999
FreeCAD v0.21 32532 (Git)
  0
SECTION
  2
HEADER
  9
$ACADVER
  1
AC1014
  9
$ACADMAINTVER
 70
     9
  9
$DWGCODEPAGE
  3
ANSI_1252
  9
$TEXTSTYLE
  7
STANDARD
  9
$DIMSTYLE
  2
STANDARD
  9
$DIMTXSTY
  7
STANDARD
  9
$CMLSTYLE
  2
STANDARD
  9
$LUNITS
 70
2
  9
$INSUNITS
 70
4
  9
$PEXTMAX
 10
50
 20
50
 30
50
  9
$PEXTMIN
 10
0
 20
0
 30
0
  9
$HANDSEED
  5
FFFF
  0
ENDSEC
  0
SECTION
  2
CLASSES
  0
CLASS
  1
ACDBDICTIONARYWDFLT
  2
AcDbDictionaryWithDefault
  3
ObjectDBX Classes
 90
        0
280
     0
281
     0
  0
CLASS
  1
XRECORD
  2
AcDbXrecord
  3
ObjectDBX Classes
 90
        0
280
     0
281
     0
  0
CLASS
  1
LWPOLYLINE
  2
AcDbPolyline
  3
ObjectDBX Classes
 90
        0
280
     0
281
     1
  0
ENDSEC
  0
SECTION
  2
TABLES
  0
TABLE
  2
VPORT
  5
20
330
0
100
AcDbSymbolTable
 70
     1
  0
VPORT
  5
21
330
20
100
AcDbSymbolTableRecord
100
AcDbViewportTableRecord
  2
*ACTIVE
 70
     0
  0
ENDTAB
  0
TABLE
  2
LTYPE
  5
22
330
0
100
AcDbSymbolTable
 70
     1
  0
LTYPE
  5
23
330
21
100
AcDbSymbolTableRecord
100
AcDbLinetypeTableRecord
  2
BYBLOCK
 70
     0
  3

 72
    65
 73
     0
 40
0.0
  0
LTYPE
  5
24
330
21
100
AcDbSymbolTableRecord
100
AcDbLinetypeTableRecord
  2
BYLAYER
 70
     0
  3

 72
    65
 73
     0
 40
0.0
  0
LTYPE
  5
25
330
21
100
AcDbSymbolTableRecord
100
AcDbLinetypeTableRecord
  2
CONTINUOUS
 70
     0
  3
Solid line
 72
    65
 73
     0
 40
0.0
  0
ENDTAB
  0
TABLE
  2
LAYER
  5
A9F
330
0
100
AcDbSymbolTable
 70
3
  0
LAYER
  5
AA0
330
A9F
100
AcDbSymbolTableRecord
100
AcDbLayerTableRecord
  2
0
 70
   0
 62
   7
  6
CONTINUOUS
  0
LAYER
  5
AA1
330
A9F
100
AcDbSymbolTableRecord
100
AcDbLayerTableRecord
  2
none
 70
    0
 62
    7
  6
CONTINUOUS
  0
LAYER
  5
AA2
330
A9F
100
AcDbSymbolTableRecord
100
AcDbLayerTableRecord
  2
Shape2DView
 70
    0
 62
    7
  6
CONTINUOUS
  0
ENDTAB
  0
TABLE
  2
STYLE
  5
70
330
0
100
AcDbSymbolTable
 70
     2
  0
STYLE
  5
71
330
70
100
AcDbSymbolTableRecord
100
AcDbTextStyleTableRecord
  2
STANDARD
 70
     0
 40
0.0
 41
1.0
 50
0.0
 71
     0
 42
2.5
  3
arial.ttf
  4

  0
STYLE
  5
72
330
70
100
AcDbSymbolTableRecord
100
AcDbTextStyleTableRecord
  2
ANNOTATIVE
 70
     0
 40
0.0
 41
1.0
 50
0.0
 71
     0
 42
2.5
  3
arial.ttf
  4

  0
ENDTAB
  0
TABLE
  2
VIEW
  5
73
330
0
100
AcDbSymbolTable
 70
     0
  0
ENDTAB
  0
TABLE
  2
UCS
  5
74
330
0
100
AcDbSymbolTable
 70
     0
  0
ENDTAB
  0
TABLE
  2
APPID
  5
75
330
0
100
AcDbSymbolTable
 70
     2
  0
APPID
  5
76
330
75
100
AcDbSymbolTableRecord
100
AcDbRegAppTableRecord
  2
ACAD
 70
     0
  0
APPID
  5
77
330
75
100
AcDbSymbolTableRecord
100
AcDbRegAppTableRecord
  2
ACADANNOTATIVE
 70
     0
  0
ENDTAB
  0
TABLE
  2
DIMSTYLE
  5
78
330
0
100
AcDbSymbolTable
 70
     2
  0
DIMSTYLE
105
79
330
78
100
AcDbSymbolTableRecord
100
AcDbDimStyleTableRecord
  2
STANDARD
 70
     0
  3

  4

  5

  6

  7

 40
0.0
 41
2.5
 42
0.625
 43
3.75
 44
1.25
 45
0.0
 46
0.0
 47
0.0
 48
0.0
140
2.5
141
2.5
142
0.0
143
0.03937007874016
144
1.0
145
0.0
146
1.0
147
0.625
 71
     0
 72
     0
 73
     0
 74
     0
 75
     0
 76
     0
 77
     1
 78
     8
170
     0
171
     3
172
     1
173
     0
174
     0
175
     0
176
     0
177
     0
178
     0
270
     2
271
     2
272
     2
273
     2
274
     3
340
71
275
     0
280
     0
281
     0
282
     0
283
     0
284
     8
285
     0
286
     0
287
     3
288
     0
  0
ENDTAB
  0
TABLE
  2
BLOCK_RECORD
  5
A01
330
0
100
AcDbSymbolTable
  70
5
  0
BLOCK_RECORD
  5
A02
330
A01
100
AcDbSymbolTableRecord
100
AcDbBlockTableRecord
  2
*MODEL_SPACE
  0
BLOCK_RECORD
  5
A03
330
A01
100
AcDbSymbolTableRecord
100
AcDbBlockTableRecord
  2
*PAPER_SPACE
  0
ENDTAB
  0
ENDSEC
  0
SECTION
  2
BLOCKS
  0
BLOCK
  5
A04
330
A02
100
AcDbEntity
  8
0
100
AcDbBlockBegin
  2
*MODEL_SPACE
 70
   0
 10
0
 20
0
 30
0
  3
*MODEL_SPACE
  1
 
  0
ENDBLK
  5
A05
330
A02
100
AcDbEntity
  8
0
100
AcDbBlockEnd
  0
BLOCK
  5
A06
330
A03
100
AcDbEntity
 67
1
  8
0
100
AcDbBlockBegin
  2
*PAPER_SPACE
 70
   0
 10
0
 20
0
 30
0
  3
*PAPER_SPACE
  1
 
  0
ENDBLK
  5
A07
330
A03
100
AcDbEntity
 67
    1
  8
0
100
AcDbBlockEnd
  0
ENDSEC
  0
SECTION
  2
ENTITIES
  0
ELLIPSE
  5
A08
330
A02
100
AcDbEntity
  8
Shape2DView
100
AcDbEllipse
 10
-0.0835834
 20
-1.1621
 30
0
 11
-1.62297
 21
5.77633
 31
0
 40
0.99669
 41
-2.05371
 42
-1.71593
  0
LINE
  5
A09
330
A02
100
AcDbEntity
  8
Shape2DView
100
AcDbLine
 10
5.7689
 20
-2.4118
 30
0
 11
5.80804
 21
-2.40081
 31
0
  0
ELLIPSE
  5
A0A
330
A02
100
AcDbEntity
  8
Shape2DView
100
AcDbEllipse
 10
-0.0444494
 20
-1.15111
 30
0
 11
-1.62297
 21
5.77633
 31
0
 40
0.99669
 41
-2.05371
 42
-1.71593
  0
LINE
  5
A0B
330
A02
100
AcDbEntity
  8
Shape2DView
100
AcDbLine
 10
5.88695
 20
-0.385921
 30
0
 11
5.84782
 21
-0.396917
 31
0
  0
LINE
  5
A0C
330
A02
100
AcDbEntity
  8
Shape2DView
100
AcDbLine
 10
46.1779
 20
68.8703
 30
0
 11
14.6998
 21
21.0735
 31
0
  0
ELLIPSE
  5
A0D
330
A02
100
AcDbEntity
  8
Shape2DView
100
AcDbEllipse
 10
18.3801
 20
18.6323
 30
0
 11
1.1963
 21
-4.25778
 31
0
 40
0.99669
 41
3.85446
 42
4.90165
  0
ELLIPSE
  5
A0E
330
A02
100
AcDbEntity
  8
Shape2DView
100
AcDbEllipse
 10
10.4945
 20
14.6881
 30
0
 11
1.1963
 21
-4.25778
 31
0
 40
0.99669
 41
0.712864
 42
1.76006
  0
LINE
  5
A0F
330
A02
100
AcDbEntity
  8
Shape2DView
100
AcDbLine
 10
14.1748
 20
12.2469
 30
0
 11
5.84782
 21
-0.396917
 31
0
  0
SPLINE
  5
A10
330
A02
100
AcDbEntity
  8
Shape2DView
100
AcDbSpline
210
0
220
0
230
1
 70
8
 71
2
 72
6
 73
3
 74
0
 40
2.82847
 40
2.82847
 40
2.82847
 40
3.65441
 40
3.65441
 40
3.65441
 10
5.55024
 20
-3.20683
 30
0
 10
5.68923
 20
-2.81757
 30
0
 10
5.7689
 20
-2.4118
 30
0
  0
ELLIPSE
  5
A11
330
A02
100
AcDbEntity
  8
Shape2DView
100
AcDbEllipse
 10
5.13007
 20
-4.11273
 30
0
 11
0.270495
 21
-0.962721
 31
0
 40
0.99669
 41
0.0203936
 42
2.43176
  0
SPLINE
  5
A12
330
A02
100
AcDbEntity
  8
Shape2DView
100
AcDbSpline
210
0
220
0
230
1
 70
8
 71
2
 72
6
 73
3
 74
0
 40
0
 40
0
 40
0
 40
0.825945
 40
0.825945
 40
0.825945
 10
3.97186
 20
-5.5101
 30
0
 10
4.28406
 20
-5.24023
 30
0
 10
4.55268
 20
-4.92674
 30
0
  0
ELLIPSE
  5
A13
330
A02
100
AcDbEntity
  8
Shape2DView
100
AcDbEllipse
 10
-5.74322e-14
 20
-1.01799
 30
0
 11
-1.62297
 21
5.77633
 31
0
 40
0.99669
 41
-3.13819
 42
-2.69019
  0
ELLIPSE
  5
A14
330
A02
100
AcDbEntity
  8
Shape2DView
100
AcDbEllipse
 10
-5.13007
 20
-4.09496
 30
0
 11
0.270495
 21
-0.962721
 31
0
 40
0.99669
 41
0.0203936
 42
0.342937
  0
ELLIPSE
  5
A15
330
A02
100
AcDbEntity
  8
Shape2DView
100
AcDbEllipse
 10
-50.3387
 20
66.2848
 30
0
 11
-1.35247
 21
4.81361
 31
0
 40
0.99669
 41
-6.28319
 42
-5.9748
  0
ELLIPSE
  5
A16
330
A02
100
AcDbEntity
  8
Shape2DView
100
AcDbEllipse
 10
-50.3387
 20
66.2848
 30
0
 11
-1.35247
 21
4.81361
 31
0
 40
0.99669
 41
-0.00407845
 42
8.88178e-16
  0
LINE
  5
A17
330
A02
100
AcDbEntity
  8
Shape2DView
100
AcDbLine
 10
-327.578
 20
-110.658
 30
0
 11
-53.0836
 21
70.4622
 31
0
  0
ELLIPSE
  5
A18
330
A02
100
AcDbEntity
  8
Shape2DView
100
AcDbEllipse
 10
-324.833
 20
-114.835
 30
0
 11
-1.35247
 21
4.81361
 31
0
 40
0.99669
 41
-5.9748
 42
-4.404
  0
LINE
  5
A19
330
A02
100
AcDbEntity
  8
Shape2DView
100
AcDbLine
 10
-294.469
 20
-170.122
 30
0
 11
-328.993
 21
-117.581
 31
0
  0
LINE
  5
A1A
330
A02
100
AcDbEntity
  8
Shape2DView
100
AcDbLine
 10
-294.072
 20
-170.809
 30
0
 11
-294.469
 21
-170.122
 31
0
  0
ELLIPSE
  5
A1B
330
A02
100
AcDbEntity
  8
Shape2DView
100
AcDbEllipse
 10
-293.571
 20
-171.674
 30
0
 11
0.270495
 21
-0.962721
 31
0
 40
0.99669
 41
0.251612
 42
3.1212
  0
LINE
  5
A1C
330
A02
100
AcDbEntity
  8
Shape2DView
100
AcDbLine
 10
-292.672
 20
-173.227
 30
0
 11
-293.07
 21
-172.54
 31
0
  0
ELLIPSE
  5
A1D
330
A02
100
AcDbEntity
  8
Shape2DView
100
AcDbEllipse
 10
-291.921
 20
-174.524
 30
0
 11
0.405742
 21
-1.44408
 31
0
 40
0.99669
 41
3.3932
 42
4.99204
  0
ELLIPSE
  5
A1E
330
A02
100
AcDbEntity
  8
Shape2DView
100
AcDbEllipse
 10
-246.575
 20
-146.445
 30
0
 11
14.8772
 21
-52.9497
 31
0
 40
0.99669
 41
4.99204
 42
5.70147
  0
ELLIPSE
  5
A1F
330
A02
100
AcDbEntity
  8
Shape2DView
100
AcDbEllipse
 10
-1.07818
 20
629.849
 30
0
 11
235.33
 21
-837.568
 31
0
 40
0.99669
 41
5.70147
 42
0
  0
ELLIPSE
  5
A20
330
A02
100
AcDbEntity
  8
Shape2DView
100
AcDbEllipse
 10
293.571
 20
-172.691
 30
0
 11
0.270495
 21
-0.962721
 31
0
 40
0.99669
 41
2.34044
 42
3.1212
  0
ELLIPSE
  5
A21
330
A02
100
AcDbEntity
  8
Shape2DView
100
AcDbEllipse
 10
50.3387
 20
66.1105
 30
0
 11
1.35247
 21
-4.81361
 31
0
 40
0.99669
 41
3.13751
 42
3.14159
  0
ELLIPSE
  5
A22
330
A02
100
AcDbEntity
  8
Shape2DView
100
AcDbEllipse
 10
50.3387
 20
66.1105
 30
0
 11
1.35247
 21
-4.81361
 31
0
 40
0.99669
 41
3.14159
 42
3.85446
  0
ELLIPSE
  5
A23
330
A02
100
AcDbEntity
  8
Shape2DView
100
AcDbEllipse
 10
-260.489
 20
-192.802
 30
0
 11
0.459841
 21
-1.63663
 31
0
 40
0.99669
 41
0.0119957
 42
3.1296
  0
ELLIPSE
  5
A24
330
A02
100
AcDbEntity
  8
Shape2DView
100
AcDbEllipse
 10
-293.669
 20
-155.356
 30
0
 11
-0.459841
 21
1.63663
 31
0
 40
0.99669
 41
-3.1296
 42
-0.0119957
  0
ELLIPSE
  5
A25
330
A02
100
AcDbEntity
  8
Shape2DView
100
AcDbEllipse
 10
-321.118
 20
-113.582
 30
0
 11
-0.459841
 21
1.63663
 31
0
 40
0.99669
 41
-3.1296
 42
-0.0119957
  0
ELLIPSE
  5
A26
330
A02
100
AcDbEntity
  8
Shape2DView
100
AcDbEllipse
 10
-88.0291
 20
-228.657
 30
0
 11
0.459841
 21
-1.63663
 31
0
 40
0.99669
 41
0.0119957
 42
3.1296
  0
ELLIPSE
  5
A27
330
A02
100
AcDbEntity
  8
Shape2DView
100
AcDbEllipse
 10
-29.6625
 20
18.8446
 30
0
 11
-0.459841
 21
1.63663
 31
0
 40
0.99669
 41
-3.1296
 42
-0.0119957
  0
ELLIPSE
  5
A28
330
A02
100
AcDbEntity
  8
Shape2DView
100
AcDbEllipse
 10
-57.1113
 20
60.6183
 30
0
 11
-0.459841
 21
1.63663
 31
0
 40
0.99669
 41
-3.1296
 42
-0.0119957
  0
ELLIPSE
  5
A29
330
A02
100
AcDbEntity
  8
Shape2DView
100
AcDbEllipse
 10
88.0291
 20
-228.962
 30
0
 11
0.459841
 21
-1.63663
 31
0
 40
0.99669
 41
0.0119957
 42
3.1296
  0
ELLIPSE
  5
A2A
330
A02
100
AcDbEntity
  8
Shape2DView
100
AcDbEllipse
 10
260.489
 20
-193.704
 30
0
 11
0.459841
 21
-1.63663
 31
0
 40
0.99669
 41
0.0119957
 42
3.1296
  0
ELLIPSE
  5
A2B
330
A02
100
AcDbEntity
  8
Shape2DView
100
AcDbEllipse
 10
293.669
 20
-156.373
 30
0
 11
-0.459841
 21
1.63663
 31
0
 40
0.99669
 41
-3.1296
 42
-2.42873
  0
ELLIPSE
  5
A2C
330
A02
100
AcDbEntity
  8
Shape2DView
100
AcDbEllipse
 10
293.669
 20
-156.373
 30
0
 11
-0.459841
 21
1.63663
 31
0
 40
0.99669
 41
-2.42873
 42
-0.0119957
  0
ELLIPSE
  5
A2D
330
A02
100
AcDbEntity
  8
Shape2DView
100
AcDbEllipse
 10
321.118
 20
-114.694
 30
0
 11
-0.459841
 21
1.63663
 31
0
 40
0.99669
 41
-3.1296
 42
-2.42873
  0
ELLIPSE
  5
A2E
330
A02
100
AcDbEntity
  8
Shape2DView
100
AcDbEllipse
 10
321.118
 20
-114.694
 30
0
 11
-0.459841
 21
1.63663
 31
0
 40
0.99669
 41
-2.42873
 42
-0.0119957
  0
ELLIPSE
  5
A2F
330
A02
100
AcDbEntity
  8
Shape2DView
100
AcDbEllipse
 10
29.6625
 20
18.7419
 30
0
 11
-0.459841
 21
1.63663
 31
0
 40
0.99669
 41
-3.1296
 42
-2.42873
  0
ELLIPSE
  5
A30
330
A02
100
AcDbEntity
  8
Shape2DView
100
AcDbEllipse
 10
29.6625
 20
18.7419
 30
0
 11
-0.459841
 21
1.63663
 31
0
 40
0.99669
 41
-2.42873
 42
-0.0119957
  0
ELLIPSE
  5
A31
330
A02
100
AcDbEntity
  8
Shape2DView
100
AcDbEllipse
 10
57.1113
 20
60.4205
 30
0
 11
-0.459841
 21
1.63663
 31
0
 40
0.99669
 41
-3.1296
 42
-2.42873
  0
ELLIPSE
  5
A32
330
A02
100
AcDbEntity
  8
Shape2DView
100
AcDbEllipse
 10
57.1113
 20
60.4205
 30
0
 11
-0.459841
 21
1.63663
 31
0
 40
0.99669
 41
-2.42873
 42
-0.0119957
  0
SPLINE
  5
A33
330
A02
100
AcDbEntity
  8
Shape2DView
100
AcDbSpline
210
0
220
0
230
1
 70
8
 71
2
 72
6
 73
3
 74
0
 40
0
 40
0
 40
0
 40
0.825937
 40
0.825937
 40
0.825937
 10
5.80804
 20
-2.40081
 30
0
 10
5.7283
 20
-2.80655
 30
0
 10
5.58935
 20
-3.19582
 30
0
  0
SPLINE
  5
A34
330
A02
100
AcDbEntity
  8
Shape2DView
100
AcDbSpline
210
0
220
0
230
1
 70
8
 71
1
 72
4
 73
2
 74
0
 40
0
 40
0
 40
1
 40
1
 10
5.55025
 20
-3.20683
 30
0
 10
5.58936
 20
-3.19582
 30
0
  0
LINE
  5
A35
330
A02
100
AcDbEntity
  8
Shape2DView
100
AcDbLine
 10
14.214
 20
12.2579
 30
0
 11
5.88695
 21
-0.385921
 31
0
  0
ELLIPSE
  5
A36
330
A02
100
AcDbEntity
  8
Shape2DView
100
AcDbEllipse
 10
10.5336
 20
14.6991
 30
0
 11
-1.1963
 21
4.25778
 31
0
 40
0.99669
 41
-2.42873
 42
-1.38153
  0
ELLIPSE
  5
A37
330
A02
100
AcDbEntity
  8
Shape2DView
100
AcDbEllipse
 10
18.4193
 20
18.6433
 30
0
 11
-1.1963
 21
4.25778
 31
0
 40
0.99669
 41
-5.57032
 42
-4.52312
  0
LINE
  5
A38
330
A02
100
AcDbEntity
  8
Shape2DView
100
AcDbLine
 10
14.7389
 20
21.0845
 30
0
 11
46.217
 21
68.8813
 31
0
  0
ELLIPSE
  5
A39
330
A02
100
AcDbEntity
  8
Shape2DView
100
AcDbEllipse
 10
50.3779
 20
66.1214
 30
0
 11
-1.35247
 21
4.81361
 31
0
 40
0.99669
 41
-0
 42
-5.57032
  0
ELLIPSE
  5
A3A
330
A02
100
AcDbEntity
  8
Shape2DView
100
AcDbEllipse
 10
50.3779
 20
66.1214
 30
0
 11
-1.35247
 21
4.81361
 31
0
 40
0.99669
 41
-0.857932
 42
-0
  0
LINE
  5
A3B
330
A02
100
AcDbEntity
  8
Shape2DView
100
AcDbLine
 10
327.617
 20
-111.782
 30
0
 11
53.1227
 21
70.2893
 31
0
  0
ELLIPSE
  5
A3C
330
A02
100
AcDbEntity
  8
Shape2DView
100
AcDbEllipse
 10
324.872
 20
-115.949
 30
0
 11
-1.35247
 21
4.81361
 31
0
 40
0.99669
 41
-2.42873
 42
-0.857932
  0
LINE
  5
A3D
330
A02
100
AcDbEntity
  8
Shape2DView
100
AcDbLine
 10
294.509
 20
-171.131
 30
0
 11
329.033
 21
-118.709
 31
0
  0
LINE
  5
A3E
330
A02
100
AcDbEntity
  8
Shape2DView
100
AcDbLine
 10
294.111
 20
-171.817
 30
0
 11
294.509
 21
-171.131
 31
0
  0
ELLIPSE
  5
A3F
330
A02
100
AcDbEntity
  8
Shape2DView
100
AcDbEllipse
 10
293.61
 20
-172.68
 30
0
 11
0.270495
 21
-0.962721
 31
0
 40
0.99669
 41
2.34044
 42
3.14159
  0
ELLIPSE
  5
A40
330
A02
100
AcDbEntity
  8
Shape2DView
100
AcDbEllipse
 10
293.61
 20
-172.68
 30
0
 11
0.270495
 21
-0.962721
 31
0
 40
0.99669
 41
3.14159
 42
5.48203
  0
LINE
  5
A41
330
A02
100
AcDbEntity
  8
Shape2DView
100
AcDbLine
 10
292.817
 20
-174.047
 30
0
 11
293.109
 21
-173.544
 31
0
  0
LINE
  5
A42
330
A02
100
AcDbEntity
  8
Shape2DView
100
AcDbLine
 10
292.712
 20
-174.229
 30
0
 11
292.817
 21
-174.047
 31
0
  0
ELLIPSE
  5
A43
330
A02
100
AcDbEntity
  8
Shape2DView
100
AcDbEllipse
 10
291.96
 20
-175.525
 30
0
 11
-0.405742
 21
1.44408
 31
0
 40
0.99669
 41
-2.4191
 42
-0.801155
  0
ELLIPSE
  5
A44
330
A02
100
AcDbEntity
  8
Shape2DView
100
AcDbEllipse
 10
247.159
 20
-146.425
 30
0
 11
-14.8772
 21
52.9497
 31
0
 40
0.99669
 41
-3.10593
 42
-2.4191
  0
ELLIPSE
  5
A45
330
A02
100
AcDbEntity
  8
Shape2DView
100
AcDbEllipse
 10
-1.03904
 20
629.86
 30
0
 11
-235.33
 21
837.568
 31
0
 40
0.99669
 41
-3.14159
 42
-3.10593
  0
ELLIPSE
  5
A46
330
A02
100
AcDbEntity
  8
Shape2DView
100
AcDbEllipse
 10
-1.03904
 20
629.86
 30
0
 11
-235.33
 21
837.568
 31
0
 40
0.99669
 41
-3.72331
 42
-3.14159
  0
ELLIPSE
  5
A47
330
A02
100
AcDbEntity
  8
Shape2DView
100
AcDbEllipse
 10
-246.536
 20
-146.434
 30
0
 11
-14.8772
 21
52.9497
 31
0
 40
0.99669
 41
-4.43274
 42
-3.72331
  0
ELLIPSE
  5
A48
330
A02
100
AcDbEntity
  8
Shape2DView
100
AcDbEllipse
 10
-291.882
 20
-174.513
 30
0
 11
-0.405742
 21
1.44408
 31
0
 40
0.99669
 41
-6.03157
 42
-4.43274
  0
LINE
  5
A49
330
A02
100
AcDbEntity
  8
Shape2DView
100
AcDbLine
 10
-292.633
 20
-173.216
 30
0
 11
-293.031
 21
-172.529
 31
0
  0
ELLIPSE
  5
A4A
330
A02
100
AcDbEntity
  8
Shape2DView
100
AcDbEllipse
 10
-293.532
 20
-171.663
 30
0
 11
0.270495
 21
-0.962721
 31
0
 40
0.99669
 41
0.251612
 42
3.14159
  0
ELLIPSE
  5
A4B
330
A02
100
AcDbEntity
  8
Shape2DView
100
AcDbEllipse
 10
-293.532
 20
-171.663
 30
0
 11
0.270495
 21
-0.962721
 31
0
 40
0.99669
 41
3.14159
 42
3.3932
  0
LINE
  5
A4C
330
A02
100
AcDbEntity
  8
Shape2DView
100
AcDbLine
 10
-294.033
 20
-170.798
 30
0
 11
-294.43
 21
-170.111
 31
0
  0
LINE
  5
A4D
330
A02
100
AcDbEntity
  8
Shape2DView
100
AcDbLine
 10
-328.954
 20
-117.57
 30
0
 11
-294.43
 21
-170.111
 31
0
  0
ELLIPSE
  5
A4E
330
A02
100
AcDbEntity
  8
Shape2DView
100
AcDbEllipse
 10
-324.793
 20
-114.824
 30
0
 11
-1.35247
 21
4.81361
 31
0
 40
0.99669
 41
-5.9748
 42
-4.404
  0
LINE
  5
A4F
330
A02
100
AcDbEntity
  8
Shape2DView
100
AcDbLine
 10
-53.0445
 20
70.4732
 30
0
 11
-327.538
 21
-110.647
 31
0
  0
ELLIPSE
  5
A50
330
A02
100
AcDbEntity
  8
Shape2DView
100
AcDbEllipse
 10
-50.2996
 20
66.2958
 30
0
 11
-1.35247
 21
4.81361
 31
0
 40
0.99669
 41
-6.28319
 42
-5.9748
  0
ELLIPSE
  5
A51
330
A02
100
AcDbEntity
  8
Shape2DView
100
AcDbEllipse
 10
-50.2996
 20
66.2958
 30
0
 11
-1.35247
 21
4.81361
 31
0
 40
0.99669
 41
-1.26241
 42
8.88178e-16
  0
LINE
  5
A52
330
A02
100
AcDbEntity
  8
Shape2DView
100
AcDbLine
 10
-14.6606
 20
21.1354
 30
0
 11
-46.1388
 21
69.0413
 31
0
  0
ELLIPSE
  5
A53
330
A02
100
AcDbEntity
  8
Shape2DView
100
AcDbEllipse
 10
-18.341
 20
18.707
 30
0
 11
-1.1963
 21
4.25778
 31
0
 40
0.99669
 41
-2.3096
 42
-1.26241
  0
ELLIPSE
  5
A54
330
A02
100
AcDbEntity
  8
Shape2DView
100
AcDbEllipse
 10
-10.4553
 20
14.7355
 30
0
 11
-1.1963
 21
4.25778
 31
0
 40
0.99669
 41
-5.4512
 42
-4.404
  0
LINE
  5
A55
330
A02
100
AcDbEntity
  8
Shape2DView
100
AcDbLine
 10
-5.80868
 20
-0.365667
 30
0
 11
-14.1357
 21
12.307
 31
0
  0
ELLIPSE
  5
A56
330
A02
100
AcDbEntity
  8
Shape2DView
100
AcDbEllipse
 10
0.122717
 20
-1.1514
 30
0
 11
-1.62297
 21
5.77633
 31
0
 40
0.99669
 41
-5.1168
 42
-4.98716
  0
ELLIPSE
  5
A57
330
A02
100
AcDbEntity
  8
Shape2DView
100
AcDbEllipse
 10
0.122717
 20
-1.1514
 30
0
 11
-1.62297
 21
5.77633
 31
0
 40
0.99669
 41
-4.98716
 42
-4.77902
  0
SPLINE
  5
A58
330
A02
100
AcDbEntity
  8
Shape2DView
100
AcDbSpline
210
0
220
0
230
1
 70
8
 71
2
 72
6
 73
3
 74
0
 40
2.82846
 40
2.82846
 40
2.82846
 40
3.6544
 40
3.6544
 40
3.6544
 10
-5.51108
 20
-3.1766
 30
0
 10
-5.65003
 20
-2.78685
 30
0
 10
-5.72977
 20
-2.38083
 30
0
  0
ELLIPSE
  5
A59
330
A02
100
AcDbEntity
  8
Shape2DView
100
AcDbEllipse
 10
-5.09094
 20
-4.08396
 30
0
 11
0.270495
 21
-0.962721
 31
0
 40
0.99669
 41
3.30185
 42
6.00841
  0
ELLIPSE
  5
A5A
330
A02
100
AcDbEntity
  8
Shape2DView
100
AcDbEllipse
 10
-5.09094
 20
-4.08396
 30
0
 11
0.270495
 21
-0.962721
 31
0
 40
0.99669
 41
6.00841
 42
0
  0
ELLIPSE
  5
A5B
330
A02
100
AcDbEntity
  8
Shape2DView
100
AcDbEllipse
 10
-5.09094
 20
-4.08396
 30
0
 11
0.270495
 21
-0.962721
 31
0
 40
0.99669
 41
0
 42
0.342968
  0
SPLINE
  5
A5C
330
A02
100
AcDbEntity
  8
Shape2DView
100
AcDbSpline
210
0
220
0
230
1
 70
8
 71
2
 72
6
 73
3
 74
0
 40
0
 40
0
 40
0
 40
0.825937
 40
0.825937
 40
0.825937
 10
-3.93273
 20
-5.48535
 30
0
 10
-4.24488
 20
-5.21436
 30
0
 10
-4.51352
 20
-4.89995
 30
0
  0
ELLIPSE
  5
A5D
330
A02
100
AcDbEntity
  8
Shape2DView
100
AcDbEllipse
 10
0.0391341
 20
-1.007
 30
0
 11
-1.62297
 21
5.77633
 31
0
 40
0.99669
 41
-3.14159
 42
-2.69019
  0
ELLIPSE
  5
A5E
330
A02
100
AcDbEntity
  8
Shape2DView
100
AcDbEllipse
 10
0.0391341
 20
-1.007
 30
0
 11
-1.62297
 21
5.77633
 31
0
 40
0.99669
 41
-4.14254
 42
-3.14159
  0
SPLINE
  5
A5F
330
A02
100
AcDbEntity
  8
Shape2DView
100
AcDbSpline
210
0
220
0
230
1
 70
8
 71
2
 72
6
 73
3
 74
0
 40
2.82846
 40
2.82846
 40
2.82846
 40
3.6544
 40
3.6544
 40
3.6544
 10
4.59179
 20
-4.91572
 30
0
 10
4.32315
 20
-5.2292
 30
0
 10
4.011
 20
-5.49911
 30
0
  0
ELLIPSE
  5
A60
330
A02
100
AcDbEntity
  8
Shape2DView
100
AcDbEllipse
 10
5.16921
 20
-4.10173
 30
0
 11
0.270495
 21
-0.962721
 31
0
 40
0.99669
 41
5.39067
 42
6.00841
  0
ELLIPSE
  5
A61
330
A02
100
AcDbEntity
  8
Shape2DView
100
AcDbEllipse
 10
5.16921
 20
-4.10173
 30
0
 11
0.270495
 21
-0.962721
 31
0
 40
0.99669
 41
6.00841
 42
0
  0
ELLIPSE
  5
A62
330
A02
100
AcDbEntity
  8
Shape2DView
100
AcDbEllipse
 10
5.16921
 20
-4.10173
 30
0
 11
0.270495
 21
-0.962721
 31
0
 40
0.99669
 41
0
 42
2.43179
  0
ELLIPSE
  5
A63
330
A02
100
AcDbEntity
  8
Shape2DView
100
AcDbEllipse
 10
-57.0722
 20
60.6293
 30
0
 11
-0.459841
 21
1.63663
 31
0
 40
0.99669
 41
-6.28319
 42
-4.404
  0
ELLIPSE
  5
A64
330
A02
100
AcDbEntity
  8
Shape2DView
100
AcDbEllipse
 10
-57.0722
 20
60.6293
 30
0
 11
-0.459841
 21
1.63663
 31
0
 40
0.99669
 41
-3.14159
 42
1.77636e-15
  0
ELLIPSE
  5
A65
330
A02
100
AcDbEntity
  8
Shape2DView
100
AcDbEllipse
 10
-57.0722
 20
60.6293
 30
0
 11
-0.459841
 21
1.63663
 31
0
 40
0.99669
 41
-4.404
 42
-3.14159
  0
ELLIPSE
  5
A66
330
A02
100
AcDbEntity
  8
Shape2DView
100
AcDbEllipse
 10
-29.6234
 20
18.8556
 30
0
 11
-0.459841
 21
1.63663
 31
0
 40
0.99669
 41
-6.28319
 42
-4.404
  0
ELLIPSE
  5
A67
330
A02
100
AcDbEntity
  8
Shape2DView
100
AcDbEllipse
 10
-29.6234
 20
18.8556
 30
0
 11
-0.459841
 21
1.63663
 31
0
 40
0.99669
 41
-3.14159
 42
1.77636e-15
  0
ELLIPSE
  5
A68
330
A02
100
AcDbEntity
  8
Shape2DView
100
AcDbEllipse
 10
-29.6234
 20
18.8556
 30
0
 11
-0.459841
 21
1.63663
 31
0
 40
0.99669
 41
-4.404
 42
-3.14159
  0
ELLIPSE
  5
A69
330
A02
100
AcDbEntity
  8
Shape2DView
100
AcDbEllipse
 10
-321.079
 20
-113.571
 30
0
 11
-0.459841
 21
1.63663
 31
0
 40
0.99669
 41
-6.28319
 42
-4.404
  0
ELLIPSE
  5
A6A
330
A02
100
AcDbEntity
  8
Shape2DView
100
AcDbEllipse
 10
-321.079
 20
-113.571
 30
0
 11
-0.459841
 21
1.63663
 31
0
 40
0.99669
 41
-3.14159
 42
1.77636e-15
  0
ELLIPSE
  5
A6B
330
A02
100
AcDbEntity
  8
Shape2DView
100
AcDbEllipse
 10
-321.079
 20
-113.571
 30
0
 11
-0.459841
 21
1.63663
 31
0
 40
0.99669
 41
-4.404
 42
-3.14159
  0
ELLIPSE
  5
A6C
330
A02
100
AcDbEntity
  8
Shape2DView
100
AcDbEllipse
 10
-293.63
 20
-155.345
 30
0
 11
-0.459841
 21
1.63663
 31
0
 40
0.99669
 41
-6.28319
 42
-4.404
  0
ELLIPSE
  5
A6D
330
A02
100
AcDbEntity
  8
Shape2DView
100
AcDbEllipse
 10
-293.63
 20
-155.345
 30
0
 11
-0.459841
 21
1.63663
 31
0
 40
0.99669
 41
-3.14159
 42
1.77636e-15
  0
ELLIPSE
  5
A6E
330
A02
100
AcDbEntity
  8
Shape2DView
100
AcDbEllipse
 10
-293.63
 20
-155.345
 30
0
 11
-0.459841
 21
1.63663
 31
0
 40
0.99669
 41
-4.404
 42
-3.14159
  0
ELLIPSE
  5
A6F
330
A02
100
AcDbEntity
  8
Shape2DView
100
AcDbEllipse
 10
-260.45
 20
-192.791
 30
0
 11
-0.459841
 21
1.63663
 31
0
 40
0.99669
 41
-0
 42
-4.98716
  0
ELLIPSE
  5
A70
330
A02
100
AcDbEntity
  8
Shape2DView
100
AcDbEllipse
 10
-260.45
 20
-192.791
 30
0
 11
-0.459841
 21
1.63663
 31
0
 40
0.99669
 41
-3.14159
 42
-0
  0
ELLIPSE
  5
A71
330
A02
100
AcDbEntity
  8
Shape2DView
100
AcDbEllipse
 10
-260.45
 20
-192.791
 30
0
 11
-0.459841
 21
1.63663
 31
0
 40
0.99669
 41
-4.98716
 42
-3.14159
  0
ELLIPSE
  5
A72
330
A02
100
AcDbEntity
  8
Shape2DView
100
AcDbEllipse
 10
-87.99
 20
-228.646
 30
0
 11
-0.459841
 21
1.63663
 31
0
 40
0.99669
 41
-0
 42
-4.98716
  0
ELLIPSE
  5
A73
330
A02
100
AcDbEntity
  8
Shape2DView
100
AcDbEllipse
 10
-87.99
 20
-228.646
 30
0
 11
-0.459841
 21
1.63663
 31
0
 40
0.99669
 41
-3.14159
 42
-0
  0
ELLIPSE
  5
A74
330
A02
100
AcDbEntity
  8
Shape2DView
100
AcDbEllipse
 10
-87.99
 20
-228.646
 30
0
 11
-0.459841
 21
1.63663
 31
0
 40
0.99669
 41
-4.98716
 42
-3.14159
  0
ELLIPSE
  5
A75
330
A02
100
AcDbEntity
  8
Shape2DView
100
AcDbEllipse
 10
57.1505
 20
60.4315
 30
0
 11
-0.459841
 21
1.63663
 31
0
 40
0.99669
 41
-3.14159
 42
-2.42873
  0
ELLIPSE
  5
A76
330
A02
100
AcDbEntity
  8
Shape2DView
100
AcDbEllipse
 10
57.1505
 20
60.4315
 30
0
 11
-0.459841
 21
1.63663
 31
0
 40
0.99669
 41
-0
 42
-3.14159
  0
ELLIPSE
  5
A77
330
A02
100
AcDbEntity
  8
Shape2DView
100
AcDbEllipse
 10
57.1505
 20
60.4315
 30
0
 11
-0.459841
 21
1.63663
 31
0
 40
0.99669
 41
-2.42873
 42
-0
  0
ELLIPSE
  5
A78
330
A02
100
AcDbEntity
  8
Shape2DView
100
AcDbEllipse
 10
29.7017
 20
18.7529
 30
0
 11
-0.459841
 21
1.63663
 31
0
 40
0.99669
 41
-3.14159
 42
-2.42873
  0
ELLIPSE
  5
A79
330
A02
100
AcDbEntity
  8
Shape2DView
100
AcDbEllipse
 10
29.7017
 20
18.7529
 30
0
 11
-0.459841
 21
1.63663
 31
0
 40
0.99669
 41
-0
 42
-3.14159
  0
ELLIPSE
  5
A7A
330
A02
100
AcDbEntity
  8
Shape2DView
100
AcDbEllipse
 10
29.7017
 20
18.7529
 30
0
 11
-0.459841
 21
1.63663
 31
0
 40
0.99669
 41
-2.42873
 42
-0
  0
ELLIPSE
  5
A7B
330
A02
100
AcDbEntity
  8
Shape2DView
100
AcDbEllipse
 10
88.0683
 20
-228.951
 30
0
 11
-0.459841
 21
1.63663
 31
0
 40
0.99669
 41
-0
 42
-4.98716
  0
ELLIPSE
  5
A7C
330
A02
100
AcDbEntity
  8
Shape2DView
100
AcDbEllipse
 10
88.0683
 20
-228.951
 30
0
 11
-0.459841
 21
1.63663
 31
0
 40
0.99669
 41
-3.14159
 42
-0
  0
ELLIPSE
  5
A7D
330
A02
100
AcDbEntity
  8
Shape2DView
100
AcDbEllipse
 10
88.0683
 20
-228.951
 30
0
 11
-0.459841
 21
1.63663
 31
0
 40
0.99669
 41
-4.98716
 42
-3.14159
  0
ELLIPSE
  5
A7E
330
A02
100
AcDbEntity
  8
Shape2DView
100
AcDbEllipse
 10
321.157
 20
-114.683
 30
0
 11
-0.459841
 21
1.63663
 31
0
 40
0.99669
 41
-3.14159
 42
-2.42873
  0
ELLIPSE
  5
A7F
330
A02
100
AcDbEntity
  8
Shape2DView
100
AcDbEllipse
 10
321.157
 20
-114.683
 30
0
 11
-0.459841
 21
1.63663
 31
0
 40
0.99669
 41
-0
 42
-3.14159
  0
ELLIPSE
  5
A80
330
A02
100
AcDbEntity
  8
Shape2DView
100
AcDbEllipse
 10
321.157
 20
-114.683
 30
0
 11
-0.459841
 21
1.63663
 31
0
 40
0.99669
 41
-2.42873
 42
-0
  0
ELLIPSE
  5
A81
330
A02
100
AcDbEntity
  8
Shape2DView
100
AcDbEllipse
 10
293.709
 20
-156.362
 30
0
 11
-0.459841
 21
1.63663
 31
0
 40
0.99669
 41
-3.14159
 42
-2.42873
  0
ELLIPSE
  5
A82
330
A02
100
AcDbEntity
  8
Shape2DView
100
AcDbEllipse
 10
293.709
 20
-156.362
 30
0
 11
-0.459841
 21
1.63663
 31
0
 40
0.99669
 41
-0
 42
-3.14159
  0
ELLIPSE
  5
A83
330
A02
100
AcDbEntity
  8
Shape2DView
100
AcDbEllipse
 10
293.709
 20
-156.362
 30
0
 11
-0.459841
 21
1.63663
 31
0
 40
0.99669
 41
-2.42873
 42
-0
  0
ELLIPSE
  5
A84
330
A02
100
AcDbEntity
  8
Shape2DView
100
AcDbEllipse
 10
260.528
 20
-193.693
 30
0
 11
-0.459841
 21
1.63663
 31
0
 40
0.99669
 41
-0
 42
-4.98716
  0
ELLIPSE
  5
A85
330
A02
100
AcDbEntity
  8
Shape2DView
100
AcDbEllipse
 10
260.528
 20
-193.693
 30
0
 11
-0.459841
 21
1.63663
 31
0
 40
0.99669
 41
-3.14159
 42
-0
  0
ELLIPSE
  5
A86
330
A02
100
AcDbEntity
  8
Shape2DView
100
AcDbEllipse
 10
260.528
 20
-193.693
 30
0
 11
-0.459841
 21
1.63663
 31
0
 40
0.99669
 41
-4.98716
 42
-3.14159
  0
SPLINE
  5
A87
330
A02
100
AcDbEntity
  8
Shape2DView
100
AcDbSpline
210
0
220
0
230
1
 70
8
 71
1
 72
4
 73
2
 74
0
 40
0
 40
0
 40
1
 40
1
 10
4.55268
 20
-4.92674
 30
0
 10
4.5918
 20
-4.91573
 30
0
  0
LINE
  5
A88
330
A02
100
AcDbEntity
  8
Shape2DView
100
AcDbLine
 10
3.97186
 20
-5.5101
 30
0
 11
4.011
 21
-5.49911
 31
0
  0
SPLINE
  5
A89
330
A02
100
AcDbEntity
  8
Shape2DView
100
AcDbSpline
210
0
220
0
230
1
 70
8
 71
1
 72
4
 73
2
 74
0
 40
0
 40
0
 40
1
 40
1
 10
-4.55268
 20
-4.91097
 30
0
 10
-4.51353
 20
-4.89996
 30
0
  0
LINE
  5
A8A
330
A02
100
AcDbEntity
  8
Shape2DView
100
AcDbLine
 10
-294.43
 20
-170.111
 30
0
 11
-294.469
 21
-170.122
 31
0
  0
LINE
  5
A8B
330
A02
100
AcDbEntity
  8
Shape2DView
100
AcDbLine
 10
-294.072
 20
-170.809
 30
0
 11
-294.033
 21
-170.798
 31
0
  0
LINE
  5
A8C
330
A02
100
AcDbEntity
  8
Shape2DView
100
AcDbLine
 10
-293.07
 20
-172.54
 30
0
 11
-293.031
 21
-172.529
 31
0
  0
LINE
  5
A8D
330
A02
100
AcDbEntity
  8
Shape2DView
100
AcDbLine
 10
-292.633
 20
-173.216
 30
0
 11
-292.672
 21
-173.227
 31
0
  0
LINE
  5
A8E
330
A02
100
AcDbEntity
  8
Shape2DView
100
AcDbLine
 10
294.072
 20
-171.827
 30
0
 11
294.111
 21
-171.817
 31
0
  0
LINE
  5
A8F
330
A02
100
AcDbEntity
  8
Shape2DView
100
AcDbLine
 10
14.1748
 20
12.2469
 30
0
 11
14.214
 21
12.2579
 31
0
  0
LINE
  5
A90
330
A02
100
AcDbEntity
  8
Shape2DView
100
AcDbLine
 10
14.6998
 20
21.0735
 30
0
 11
14.7389
 21
21.0845
 31
0
  0
LINE
  5
A91
330
A02
100
AcDbEntity
  8
Shape2DView
100
AcDbLine
 10
46.1779
 20
68.8703
 30
0
 11
46.217
 21
68.8813
 31
0
  0
LINE
  5
A92
330
A02
100
AcDbEntity
  8
Shape2DView
100
AcDbLine
 10
14.4373
 20
16.6602
 30
0
 11
14.4764
 21
16.6712
 31
0
  0
LINE
  5
A93
330
A02
100
AcDbEntity
  8
Shape2DView
100
AcDbLine
 10
-53.0836
 20
70.4622
 30
0
 11
-53.0445
 21
70.4732
 31
0
  0
LINE
  5
A94
330
A02
100
AcDbEntity
  8
Shape2DView
100
AcDbLine
 10
-327.578
 20
-110.658
 30
0
 11
-327.538
 21
-110.647
 31
0
  0
LINE
  5
A95
330
A02
100
AcDbEntity
  8
Shape2DView
100
AcDbLine
 10
-328.993
 20
-117.581
 30
0
 11
-328.954
 21
-117.57
 31
0
  0
LINE
  5
A96
330
A02
100
AcDbEntity
  8
Shape2DView
100
AcDbLine
 10
-293.193
 20
-175.312
 30
0
 11
-293.153
 21
-175.301
 31
0
  0
LINE
  5
A97
330
A02
100
AcDbEntity
  8
Shape2DView
100
AcDbLine
 10
-263.142
 20
-198.832
 30
0
 11
-263.103
 21
-198.821
 31
0
  0
LINE
  5
A98
330
A02
100
AcDbEntity
  8
Shape2DView
100
AcDbLine
 10
295.084
 20
-157.311
 30
0
 11
295.123
 21
-157.3
 31
0
  0
LINE
  5
A99
330
A02
100
AcDbEntity
  8
Shape2DView
100
AcDbLine
 10
322.533
 20
-115.633
 30
0
 11
322.572
 21
-115.622
 31
0
  0
LINE
  5
A9A
330
A02
100
AcDbEntity
  8
Shape2DView
100
AcDbLine
 10
31.0772
 20
17.8035
 30
0
 11
31.1164
 21
17.8145
 31
0
  0
LINE
  5
A9B
330
A02
100
AcDbEntity
  8
Shape2DView
100
AcDbLine
 10
58.526
 20
59.4821
 30
0
 11
58.5652
 21
59.4931
 31
0
  0
LINE
  5
A9C
330
A02
100
AcDbEntity
  8
Shape2DView
100
AcDbLine
 10
-51.6521
 20
71.1094
 30
0
 11
-51.6912
 21
71.0984
 31
0
  0
LINE
  5
A9D
330
A02
100
AcDbEntity
  8
Shape2DView
100
AcDbLine
 10
234.291
 20
-207.708
 30
0
 11
234.252
 21
-207.719
 31
0
  0
LINE
  5
A9E
330
A02
100
AcDbEntity
  8
Shape2DView
100
AcDbLine
 10
49.0254
 20
70.9351
 30
0
 11
48.9862
 21
70.9241
 31
0
  0
ENDSEC
  0
SECTION
  2
OBJECTS
  0
DICTIONARY
  5
F000
330
0
100
AcDbDictionary
  3
ACAD_GROUP
350
F001
  0
DICTIONARY
  5
F001
330
F000
100
AcDbDictionary
  0
ENDSEC
  0
EOF