999
"DXF R12 Output" (www.mydxf.blogspot.com)
 0 
SECTION
 2 
HEADER
 9 
$ACADVER
 1 
AC1009
 9 
$EXTMIN
 10 
 0 
 20 
 0 
 9 
$EXTMAX
 10 
 8.5 
 20 
 11 
 0 
ENDSEC
 0 
SECTION
 2 
ENTITIES
0
LINE
8
Layer 1
10
0.846666
20
317.647000
11
-0.846666
21
315.953000
0
LINE
8
Layer 1
10
0.000000
20
318.211000
11
0.000000
21
315.389000
0
LINE
8
Layer 1
10
2.257780
20
315.671000
11
1.128890
21
314.542110
0
LINE
8
Layer 1
10
1.693330
20
316.236000
11
0.564440
21
315.107110
0
LINE
8
Layer 1
10
1.128890
20
316.800000
11
0.000000
21
315.671110
0
LINE
8
View
10
128.703000
20
88.239100
11
128.774505
21
87.158660
0
LINE
8
View
10
128.774505
20
87.158660
11
129.054082
21
86.123218
0
LINE
8
View
10
129.054082
20
86.123218
11
129.530538
21
85.162336
0
LINE
8
View
10
129.530538
20
85.162336
11
130.192675
21
84.305576
0
LINE
8
View
10
130.192675
20
84.305576
11
131.010760
21
83.596209
0
LINE
8
View
10
131.010760
20
83.596209
11
131.943265
21
83.066362
0
LINE
8
View
10
131.943265
20
83.066362
11
132.961306
21
82.728878
0
LINE
8
View
10
132.961306
20
82.728878
11
134.036000
21
82.596600
0
LINE
8
View
10
180.231000
20
81.525100
11
134.036000
21
82.596700
0
LINE
8
View
10
180.232000
20
81.525200
11
181.485473
21
81.621699
0
LINE
8
View
10
181.485473
20
81.621699
11
182.659381
21
81.954699
0
LINE
8
View
10
182.659381
20
81.954699
11
183.728330
21
82.500131
0
LINE
8
View
10
183.728330
20
82.500131
11
184.666930
21
83.233925
0
LINE
8
View
10
184.666930
20
83.233925
11
185.449789
21
84.132008
0
LINE
8
View
10
185.449789
20
84.132008
11
186.051515
21
85.170313
0
LINE
8
View
10
186.051515
20
85.170313
11
186.446716
21
86.324767
0
LINE
8
View
10
186.446716
20
86.324767
11
186.610000
21
87.571300
0
LINE
8
View
10
130.267000
20
135.382000
11
130.400917
21
136.415609
0
LINE
8
View
10
130.400917
20
136.415609
11
130.719630
21
137.378433
0
LINE
8
View
10
130.719630
20
137.378433
11
131.204338
21
138.251550
0
LINE
8
View
10
131.204338
20
138.251550
11
131.836244
21
139.016035
0
LINE
8
View
10
131.836244
20
139.016035
11
132.596549
21
139.652966
0
LINE
8
View
10
132.596549
20
139.652966
11
133.466452
21
140.143419
0
LINE
8
View
10
133.466452
20
140.143419
11
134.427155
21
140.468472
0
LINE
8
View
10
134.427155
20
140.468472
11
135.459860
21
140.609200
0
LINE
8
View
10
135.459860
20
140.609200
11
182.308960
21
142.472810
0
LINE
8
View
10
182.308960
20
142.472810
11
183.488030
21
142.395726
0
LINE
8
View
10
183.488030
20
142.395726
11
184.588243
21
142.085092
0
LINE
8
View
10
184.588243
20
142.085092
11
185.583948
21
141.566318
0
LINE
8
View
10
185.583948
20
141.566318
11
186.449494
21
140.864814
0
LINE
8
View
10
186.449494
20
140.864814
11
187.159231
21
140.005991
0
LINE
8
View
10
187.159231
20
140.005991
11
187.687508
21
139.015257
0
LINE
8
View
10
187.687508
20
139.015257
11
188.008674
21
137.918024
0
LINE
8
View
10
188.008674
20
137.918024
11
188.097080
21
136.739700
0
LINE
8
View
10
188.097080
20
136.739700
11
186.610000
21
87.571400
0
LINE
8
View
10
128.703000
20
88.239100
11
130.266790
21
135.381500
0
LINE
8
View
10
133.542000
20
94.303600
11
133.012567
21
93.113309
0
LINE
8
View
10
133.012567
20
93.113309
11
132.828433
21
91.847077
0
LINE
8
View
10
132.828433
20
91.847077
11
132.990241
21
90.577799
0
LINE
8
View
10
132.990241
20
90.577799
11
133.498632
21
89.378370
0
LINE
8
View
10
133.498632
20
89.378370
11
134.314794
21
88.363003
0
LINE
8
View
10
134.314794
20
88.363003
11
135.356469
21
87.619927
0
LINE
8
View
10
135.356469
20
87.619927
11
136.559133
21
87.183065
0
LINE
8
View
10
136.559133
20
87.183065
11
137.858262
21
87.086341
0
LINE
8
View
10
137.858262
20
87.086341
11
139.134541
21
87.347498
0
LINE
8
View
10
139.134541
20
87.347498
11
140.271881
21
87.933762
0
LINE
8
View
10
140.271881
20
87.933762
11
141.210596
21
88.803281
0
LINE
8
View
10
141.210596
20
88.803281
11
141.891000
21
89.914200
0
LINE
8
View
10
141.891000
20
89.914100
11
142.994000
21
93.405500
0
LINE
8
View
10
142.994000
20
93.405400
11
143.925044
21
94.524395
0
LINE
8
View
10
143.925044
20
94.524395
11
144.342672
21
95.866611
0
LINE
8
View
10
144.342672
20
95.866611
11
144.228689
21
97.267669
0
LINE
8
View
10
144.228689
20
97.267669
11
143.564902
21
98.563192
0
LINE
8
View
10
143.564902
20
98.563192
11
142.452091
21
99.501617
0
LINE
8
View
10
142.452091
20
99.501617
11
141.112667
21
99.928115
0
LINE
8
View
10
141.112667
20
99.928115
11
139.710885
21
99.823403
0
LINE
8
View
10
139.710885
20
99.823403
11
138.411000
21
99.168200
0
LINE
8
View
10
138.412000
20
99.168200
11
133.542000
21
94.303500
 0 
ENDSEC
 0 
EOF