
CASCADE Topology V1, (c) Matra-Datavision
Locations 94
1
1.000000000000000 0.000000000000000 0.000000000000000 0.000000000000000 
0.000000000000000 1.000000000000000 0.000000000000000 0.000000000000000 
0.000000000000000 0.000000000000000 1.000000000000000 0.000000000000000 
1
1.000000000000000 0.000000000000000 0.000000000000000 0.000000000000000 
0.000000000000000 1.000000000000000 0.000000000000000 0.000000000000000 
0.000000000000000 0.000000000000000 1.000000000000000 0.000000000000000 
1
1.000000000000000 0.000000000000000 0.000000000000000 0.000000000000000 
0.000000000000000 1.000000000000000 0.000000000000000 0.000000000000000 
0.000000000000000 0.000000000000000 1.000000000000000 0.000000000000000 
1
1.000000000000000 0.000000000000000 0.000000000000000 0.000000000000000 
0.000000000000000 1.000000000000000 0.000000000000000 0.000000000000000 
0.000000000000000 0.000000000000000 1.000000000000000 0.000000000000000 
1
1.000000000000000 0.000000000000000 0.000000000000000 0.000000000000000 
0.000000000000000 1.000000000000000 0.000000000000000 0.000000000000000 
0.000000000000000 0.000000000000000 1.000000000000000 0.000000000000000 
1
1.000000000000000 0.000000000000000 0.000000000000000 0.000000000000000 
0.000000000000000 1.000000000000000 0.000000000000000 0.000000000000000 
0.000000000000000 0.000000000000000 1.000000000000000 0.000000000000000 
2  2 1 3 -1 4 1 5 1 6 -1 0
1
1.000000000000000 0.000000000000000 0.000000000000000 0.000000000000000 
0.000000000000000 1.000000000000000 0.000000000000000 0.000000000000000 
0.000000000000000 0.000000000000000 1.000000000000000 0.000000000000000 
1
1.000000000000000 0.000000000000000 0.000000000000000 0.000000000000000 
0.000000000000000 1.000000000000000 0.000000000000000 0.000000000000000 
0.000000000000000 0.000000000000000 1.000000000000000 0.000000000000000 
1
1.000000000000000 0.000000000000000 0.000000000000000 0.000000000000000 
0.000000000000000 1.000000000000000 0.000000000000000 0.000000000000000 
0.000000000000000 0.000000000000000 1.000000000000000 0.000000000000000 
1
-0.500000000000000 0.866025403784439 0.000000000000000 0.000000000000021 
-0.866025403784439 -0.500000000000000 0.000000000000000 0.000000000000099 
0.000000000000000 0.000000000000000 1.000000000000000 0.000000000000000 
1
1.000000000000000 0.000000000000000 0.000000000000000 0.000000000000000 
0.000000000000000 1.000000000000000 0.000000000000000 0.000000000000000 
0.000000000000000 0.000000000000000 1.000000000000000 0.000000000000000 
1
1.000000000000000 0.000000000000000 0.000000000000000 0.000000000000000 
0.000000000000000 1.000000000000000 0.000000000000000 0.000000000000000 
0.000000000000000 0.000000000000000 1.000000000000000 0.000000000000000 
1
1.000000000000000 0.000000000000000 0.000000000000000 0.000000000000000 
0.000000000000000 1.000000000000000 0.000000000000000 0.000000000000000 
0.000000000000000 0.000000000000000 1.000000000000000 0.000000000000000 
1
1.000000000000000 0.000000000000000 0.000000000000000 0.000000000000000 
0.000000000000000 1.000000000000000 0.000000000000000 0.000000000000000 
0.000000000000000 0.000000000000000 1.000000000000000 0.000000000000000 
2  8 -1 9 1 10 1 11 1 12 1 13 1 14 1 15 -1 0
1
1.000000000000000 0.000000000000000 0.000000000000000 0.000000000000000 
0.000000000000000 1.000000000000000 0.000000000000000 0.000000000000000 
0.000000000000000 0.000000000000000 1.000000000000000 18.000000000000000 
2  8 -1 9 1 10 1 11 1 12 1 13 1 14 1 15 -1 17 1 0
2  9 1 10 1 11 1 12 1 13 1 14 1 15 -1 0
1
1.000000000000000 0.000000000000000 0.000000000000000 0.000000000000000 
0.000000000000000 1.000000000000000 0.000000000000000 0.000000000000000 
0.000000000000000 0.000000000000000 1.000000000000000 0.000000000000000 
2  15 1 14 -1 13 -1 12 -1 20 -1 10 -1 9 -1 0
2  17 -1 15 1 14 -1 13 -1 12 -1 20 -1 10 -1 9 -1 0
1
-0.500000000000001 -0.866025403784439 0.000000000000000 0.000000000000085 
0.866025403784439 -0.500000000000001 0.000000000000000 -0.000000000000028 
0.000000000000000 0.000000000000000 1.000000000000001 0.000000000000000 
2  15 1 14 -1 13 -1 12 -1 23 -1 10 -1 9 -1 0
2  17 -1 15 1 14 -1 13 -1 12 -1 23 -1 10 -1 9 -1 0
2  15 1 14 -1 13 -1 12 -1 11 -1 10 -1 9 -1 0
2  17 -1 15 1 14 -1 13 -1 12 -1 11 -1 10 -1 9 -1 0
2  12 -1 20 -1 10 -1 9 -1 0
2  12 -1 23 -1 10 -1 9 -1 0
2  12 -1 11 -1 10 -1 9 -1 0
2  8 -1 0
2  9 1 10 1 11 1 12 1 13 1 14 1 15 -1 17 1 0
1
1.000000000000000 0.000000000000000 0.000000000000000 0.000000000000000 
0.000000000000000 1.000000000000000 0.000000000000000 0.000000000000000 
0.000000000000000 0.000000000000000 1.000000000000000 0.000000000000000 
1
1.000000000000000 0.000000000000000 0.000000000000000 0.000000000000000 
0.000000000000000 1.000000000000000 0.000000000000000 0.000000000000000 
0.000000000000000 0.000000000000000 1.000000000000000 0.000000000000000 
2  33 1 34 1 20 1 12 1 13 1 14 1 15 -1 0
2  33 1 34 1 20 1 12 1 13 1 14 1 15 -1 17 1 0
2  33 1 34 1 20 1 11 -1 10 -1 9 -1 0
2  33 1 34 1 10 -1 9 -1 0
2  33 1 34 1 11 1 12 1 13 1 14 1 15 -1 0
2  15 1 14 -1 13 -1 12 -1 20 -1 34 -1 33 -1 0
2  17 -1 15 1 14 -1 13 -1 12 -1 20 -1 34 -1 33 -1 0
2  15 1 14 -1 13 -1 12 -1 23 -1 34 -1 33 -1 0
2  17 -1 15 1 14 -1 13 -1 12 -1 23 -1 34 -1 33 -1 0
2  15 1 14 -1 13 -1 12 -1 11 -1 34 -1 33 -1 0
2  17 -1 15 1 14 -1 13 -1 12 -1 11 -1 34 -1 33 -1 0
2  12 -1 20 -1 34 -1 33 -1 0
2  12 -1 23 -1 34 -1 33 -1 0
2  12 -1 11 -1 34 -1 33 -1 0
2  33 1 34 1 11 1 12 1 13 1 14 1 15 -1 17 1 0
2  13 1 14 1 15 -1 2 1 3 -1 4 1 5 1 6 -1 0
2  33 1 34 1 20 1 12 1 13 1 14 1 15 -1 2 1 3 -1 4 1 5 1 6 -1 0
2  9 1 10 1 11 1 12 1 13 1 14 1 15 -1 2 1 3 -1 4 1 5 1 6 -1 0
2  9 1 10 1 20 1 12 1 13 1 14 1 15 -1 2 1 3 -1 4 1 5 1 6 -1 0
2  33 1 34 1 11 1 12 1 13 1 14 1 15 -1 2 1 3 -1 4 1 5 1 6 -1 0
2  33 1 34 1 23 1 12 1 13 1 14 1 15 -1 2 1 3 -1 4 1 5 1 6 -1 0
2  8 -1 9 1 10 1 20 1 23 -1 34 -1 33 -1 0
2  8 -1 9 1 10 1 23 1 11 -1 34 -1 33 -1 0
2  9 1 10 1 23 1 12 1 13 1 14 1 15 -1 2 1 3 -1 4 1 5 1 6 -1 0
1
1.000000000000000 0.000000000000000 0.000000000000000 140.628654555576702 
0.000000000000000 1.000000000000000 0.000000000000000 47.705675950438817 
0.000000000000000 0.000000000000000 1.000000000000000 0.000000000000000 
1
1.000000000000000 0.000000000000000 0.000000000000000 0.000000000000000 
0.000000000000000 1.000000000000000 0.000000000000000 0.000000000000000 
0.000000000000000 0.000000000000000 1.000000000000000 0.000000000000000 
2  59 1 60 1 5 1 6 -1 0
2  13 1 14 1 15 -1 2 1 3 -1 4 1 60 -1 59 -1 0
2  60 -1 59 -1 0
2  59 1 4 1 5 1 6 -1 0
2  13 1 14 1 15 -1 2 1 3 -1 59 -1 0
1
1.000000000000000 0.000000000000000 0.000000000000000 -30.300000000000011 
0.000000000000000 1.000000000000000 0.000000000000000 289.500000000000000 
0.000000000000000 0.000000000000000 1.000000000000000 0.000000000000000 
2  13 1 14 1 15 -1 2 1 3 -1 4 1 5 1 6 -1 66 -1 0
1
1.000000000000000 0.000000000000000 0.000000000000000 -30.299999999999990 
0.000000000000000 1.000000000000000 0.000000000000000 369.500000000000000 
0.000000000000000 0.000000000000000 1.000000000000000 0.000000000000000 
2  13 1 14 1 15 -1 2 1 3 -1 4 1 5 1 6 -1 68 -1 0
2  13 1 14 1 15 -1 17 1 2 1 3 -1 4 1 5 1 6 -1 0
2  33 1 34 1 20 1 12 1 13 1 14 1 15 -1 17 1 2 1 3 -1 4 1 5 1 6 -1 0
2  9 1 10 1 11 1 12 1 13 1 14 1 15 -1 17 1 2 1 3 -1 4 1 5 1 6 -1 0
2  9 1 10 1 20 1 12 1 13 1 14 1 15 -1 17 1 2 1 3 -1 4 1 5 1 6 -1 0
2  33 1 34 1 11 1 12 1 13 1 14 1 15 -1 17 1 2 1 3 -1 4 1 5 1 6 -1 0
2  33 1 34 1 23 1 12 1 13 1 14 1 15 -1 17 1 2 1 3 -1 4 1 5 1 6 -1 0
2  9 1 10 1 23 1 12 1 13 1 14 1 15 -1 17 1 2 1 3 -1 4 1 5 1 6 -1 0
2  5 1 6 -1 0
2  13 1 14 1 15 -1 17 1 2 1 3 -1 4 1 0
2  59 1 60 1 0
2  4 1 5 1 6 -1 0
2  13 1 14 1 15 -1 17 1 2 1 3 -1 0
2  8 -1 9 1 10 1 20 1 12 1 13 1 14 1 15 -1 0
2  8 -1 9 1 10 1 20 1 12 1 13 1 14 1 15 -1 17 1 0
2  9 1 10 1 20 1 12 1 13 1 14 1 15 -1 0
2  9 1 10 1 20 1 12 1 13 1 14 1 15 -1 17 1 0
2  33 1 34 1 23 1 12 1 13 1 14 1 15 -1 0
2  33 1 34 1 23 1 12 1 13 1 14 1 15 -1 17 1 0
2  8 -1 9 1 10 1 23 1 12 1 13 1 14 1 15 -1 0
2  8 -1 9 1 10 1 23 1 12 1 13 1 14 1 15 -1 17 1 0
2  9 1 10 1 23 1 12 1 13 1 14 1 15 -1 0
2  9 1 10 1 23 1 12 1 13 1 14 1 15 -1 17 1 0
2  59 -1 0
2  66 -1 0
2  68 -1 0
Curve2ds 117
1 0.19286202971107003 0.00000000000000000 0.00000000000000000 -1.00000000000000000 
1 3.33445468330086436 0.00000000000000000 0.00000000000000000 -1.00000000000000000 
1 1.51987028381113998 0.00000000000000000 0.00000000000000000 -1.00000000000000000 
1 1.51987028381113998 0.00000000000000000 0.00000000000000000 -1.00000000000000000 
1 1.62172236977865225 0.00000000000000000 0.00000000000000000 -1.00000000000000000 
1 0.00000000000000000 0.00000000000000000 1.00000000000000000 0.00000000000000000 
1 0.00000000000000000 -18.00000000000000000 1.00000000000000000 0.00000000000000000 
1 0.00000000000000000 0.00000000000000000 1.00000000000000000 0.00000000000000000 
1 0.00000000000000000 -18.00000000000000000 1.00000000000000000 0.00000000000000000 
1 0.00000000000000000 0.00000000000000000 1.00000000000000000 0.00000000000000000 
1 0.00000000000000000 -18.00000000000000000 1.00000000000000000 0.00000000000000000 
2 -18.30000000000021743 359.03392597357702698 -1.00000000000000000 0.00000000000000000 0.00000000000000000 1.00000000000000000 25.00000000000015632
2 -301.78250071357899742 -195.36522787604411633 0.50000000000000056 -0.86602540378443837 -0.86602540378443837 -0.50000000000000056 25.00000000000018829
2 320.08250071357934985 -163.66869809753302434 0.50000000000000033 0.86602540378443860 0.86602540378443860 -0.50000000000000033 25.00000000000018829
1 3.66519142925880592 0.00000000000000000 0.00000000000000000 -1.00000000000000000 
1 3.66519142925880592 0.00000000000000000 0.00000000000000000 -1.00000000000000000 
1 0.00000000000000000 0.00000000000000000 1.00000000000000000 0.00000000000000000 
1 0.00000000000000000 -18.00000000000000000 1.00000000000000000 0.00000000000000000 
2 930.37557351721829946 537.15258772989739100 0.50000000000000033 0.86602540378443860 0.86602540378443860 -0.50000000000000033 904.30517559137672379
1 0.00000000000000000 0.00000000000000000 1.00000000000000000 0.00000000000000000 
1 0.00000000000000000 -18.00000000000000000 1.00000000000000000 0.00000000000000000 
1 3.14159265358979223 0.00000000000000000 -1.00000000000000000 0.00000000000000000 
1 3.14159265358979223 -18.00000000000000000 -1.00000000000000000 0.00000000000000000 
2 -0.00000000000013429 0.00000000000000467 0.50000000000000033 0.86602540378443860 0.86602540378443860 -0.50000000000000033 384.50000000000017053
1 0.00000000000000000 0.00000000000000000 1.00000000000000000 0.00000000000000000 
1 0.00000000000000000 -18.00000000000000000 1.00000000000000000 0.00000000000000000 
1 0.00000000000000000 0.00000000000000000 1.00000000000000000 0.00000000000000000 
1 0.00000000000000000 -18.00000000000000000 1.00000000000000000 0.00000000000000000 
1 0.00000000000000000 0.00000000000000000 1.00000000000000000 0.00000000000000000 
1 0.00000000000000000 -18.00000000000000000 1.00000000000000000 0.00000000000000000 
2 -0.00000000000022053 0.00000000000001764 1.00000000000000000 0.00000000000000000 -0.00000000000000000 1.00000000000000000 384.50000000000011369
2 0.00000000000019860 -0.00000000000012323 -0.50000000000000056 0.86602540378443837 -0.86602540378443837 -0.50000000000000056 384.50000000000028422
2 0.00000000000006510 0.00000000000035004 -0.50000000000000033 -0.86602540378443860 0.86602540378443860 -0.50000000000000033 384.50000000000017053
1 1.51987028381113998 0.00000000000000000 0.00000000000000000 -1.00000000000000000 
1 1.51987028381113998 0.00000000000000000 0.00000000000000000 -1.00000000000000000 
1 0.00000000000000000 0.00000000000000000 1.00000000000000000 0.00000000000000000 
1 0.00000000000000000 -18.00000000000000000 1.00000000000000000 0.00000000000000000 
2 930.37557344124957126 537.15258786147887804 1.00000000000000000 0.00000000000000000 -0.00000000000000000 1.00000000000000000 904.30517559137683747
1 0.00000000000000000 0.00000000000000000 1.00000000000000000 0.00000000000000000 
1 0.00000000000000000 -18.00000000000000000 1.00000000000000000 0.00000000000000000 
1 0.00000000000000000 0.00000000000000000 1.00000000000000000 0.00000000000000000 
1 0.00000000000000000 -18.00000000000000000 1.00000000000000000 0.00000000000000000 
1 0.00000000000000000 0.00000000000000000 1.00000000000000000 0.00000000000000000 
1 0.00000000000000000 -18.00000000000000000 1.00000000000000000 0.00000000000000000 
2 18.30000000000017479 359.03392597357702698 1.00000000000000000 0.00000000000000000 -0.00000000000000000 1.00000000000000000 25.00000000000015632
2 -320.08250071357917932 -163.66869809753328013 -0.50000000000000056 0.86602540378443837 -0.86602540378443837 -0.50000000000000056 25.00000000000016342
2 301.78250071357916795 -195.36522787604383211 -0.50000000000000033 -0.86602540378443860 0.86602540378443860 -0.50000000000000033 25.00000000000018829
1 0.00000000000000000 0.00000000000000000 1.00000000000000000 0.00000000000000000 
1 0.00000000000000000 -18.00000000000000000 1.00000000000000000 0.00000000000000000 
1 3.14159265358979223 0.00000000000000000 -1.00000000000000000 -0.00000000000000000 
1 3.14159265358979223 -18.00000000000000000 -1.00000000000000000 0.00000000000000000 
2 0.00000000000017826 0.00000000000001764 -1.00000000000000000 0.00000000000000000 0.00000000000000000 1.00000000000000000 384.50000000000011369
1 0.00000000000000000 0.00000000000000000 1.00000000000000000 0.00000000000000000 
1 0.00000000000000000 -18.00000000000000000 1.00000000000000000 0.00000000000000000 
1 0.00000000000000000 0.00000000000000000 1.00000000000000000 0.00000000000000000 
1 0.00000000000000000 -18.00000000000000000 1.00000000000000000 0.00000000000000000 
2 -930.37557344124957126 537.15258786147887804 -1.00000000000000000 0.00000000000000000 0.00000000000000000 1.00000000000000000 904.30517559137683747
2 -0.00000007596781142 -1074.30517559137638273 0.50000000000000056 -0.86602540378443837 -0.86602540378443837 -0.50000000000000056 904.30517559137695116
1 0.00000000000000000 0.00000000000000000 1.00000000000000000 0.00000000000000000 
1 0.00000000000000000 -18.00000000000000000 1.00000000000000000 0.00000000000000000 
2 -930.37557351721864052 537.15258772989716363 -0.50000000000000056 0.86602540378443837 -0.86602540378443837 -0.50000000000000056 904.30517559137695116
1 0.00000000000000000 0.00000000000000000 1.00000000000000000 0.00000000000000000 
1 0.00000000000000000 -18.00000000000000000 1.00000000000000000 0.00000000000000000 
2 0.00000007596821679 -1074.30517559137615535 -0.50000000000000033 -0.86602540378443860 0.86602540378443860 -0.50000000000000033 904.30517559137672379
1 0.00000000000000000 0.00000000000000000 1.00000000000000000 0.00000000000000000 
1 0.00000000000000000 -18.00000000000000000 1.00000000000000000 0.00000000000000000 
1 3.14159265358979223 0.00000000000000000 -1.00000000000000000 0.00000000000000000 
1 3.14159265358979223 -18.00000000000000000 -1.00000000000000000 0.00000000000000000 
2 -0.00000000000000079 0.00000000000022214 0.50000000000000056 -0.86602540378443837 -0.86602540378443837 -0.50000000000000056 384.50000000000028422
1 0.00000000000000000 0.00000000000000000 1.00000000000000000 0.00000000000000000 
2 0.00000000000000000 -0.00000000000000000 -1.00000000000000000 -0.00000000000000022 -0.00000000000000022 1.00000000000000000 4.25000000000000444
2 28.99999999999989342 -145.64082532037502915 -0.49999999999999956 0.86602540378443893 -0.86602540378443893 -0.49999999999999956 4.25000000000000444
2 0.00000000000000000 0.00000000000000000 -1.00000000000000000 0.00000000000000000 0.00000000000000000 1.00000000000000000 4.25000000000000000
1 0.00000000000000000 0.00000000000000000 1.00000000000000000 0.00000000000000000 
2 140.62865455557667360 47.70567595043887366 -1.00000000000000000 0.00000000000000000 0.00000000000000000 1.00000000000000000 4.25000000000000000
2 0.00000000000000000 0.00000000000000000 -1.00000000000000000 0.00000000000000000 0.00000000000000000 1.00000000000000000 2.75000000000000000
1 0.00000000000000000 0.00000000000000000 1.00000000000000000 0.00000000000000000 
2 -30.30000000000003268 289.50000000000005684 -1.00000000000000000 0.00000000000000000 0.00000000000000000 1.00000000000000000 2.75000000000000000
2 -30.30000000000001137 369.50000000000005684 -1.00000000000000000 0.00000000000000000 0.00000000000000000 1.00000000000000000 2.75000000000000000
2 28.99999999999989342 -145.64082532037502915 -0.49999999999999956 0.86602540378443893 -0.86602540378443893 -0.49999999999999956 4.25000000000000000
1 0.00000000000000000 18.00000000000000000 1.00000000000000000 0.00000000000000000 
2 140.62865455557667360 47.70567595043887366 -1.00000000000000000 0.00000000000000000 -0.00000000000000000 -1.00000000000000000 4.25000000000000000
1 6.28318530717958623 18.00000000000000000 -1.00000000000000000 0.00000000000000000 
2 -30.30000000000003268 289.50000000000005684 -1.00000000000000000 0.00000000000000000 -0.00000000000000000 -1.00000000000000000 2.75000000000000000
1 6.28318530717958623 18.00000000000000000 -1.00000000000000000 0.00000000000000000 
2 -30.30000000000001137 369.50000000000005684 -1.00000000000000000 0.00000000000000000 -0.00000000000000000 -1.00000000000000000 2.75000000000000000
1 6.28318530717958623 18.00000000000000000 -1.00000000000000000 0.00000000000000000 
1 3.33445468330086436 0.00000000000000000 0.00000000000000000 -1.00000000000000000 
1 0.19286202971107003 0.00000000000000000 0.00000000000000000 -1.00000000000000000 
1 3.33445468330086436 0.00000000000000000 0.00000000000000000 -1.00000000000000000 
1 0.19286202971107003 0.00000000000000000 0.00000000000000000 -1.00000000000000000 
1 1.51987028381113998 0.00000000000000000 0.00000000000000000 -1.00000000000000000 
1 1.51987028381113998 0.00000000000000000 0.00000000000000000 -1.00000000000000000 
1 1.51987028381113998 0.00000000000000000 0.00000000000000000 -1.00000000000000000 
1 1.51987028381113998 0.00000000000000000 0.00000000000000000 -1.00000000000000000 
1 1.62172236977865225 0.00000000000000000 0.00000000000000000 -1.00000000000000000 
1 0.19286202971107003 0.00000000000000000 0.00000000000000000 -1.00000000000000000 
1 3.33445468330086436 0.00000000000000000 0.00000000000000000 -1.00000000000000000 
1 3.66519142925880592 0.00000000000000000 0.00000000000000000 -1.00000000000000000 
1 3.66519142925880592 0.00000000000000000 0.00000000000000000 -1.00000000000000000 
1 3.33445468330086436 0.00000000000000000 0.00000000000000000 -1.00000000000000000 
1 0.19286202971107003 0.00000000000000000 0.00000000000000000 -1.00000000000000000 
1 3.66519142925880592 0.00000000000000000 0.00000000000000000 -1.00000000000000000 
1 3.66519142925880592 0.00000000000000000 0.00000000000000000 -1.00000000000000000 
1 1.51987028381113998 0.00000000000000000 0.00000000000000000 -1.00000000000000000 
1 1.51987028381113998 0.00000000000000000 0.00000000000000000 -1.00000000000000000 
1 0.19286202971107003 0.00000000000000000 0.00000000000000000 -1.00000000000000000 
1 3.33445468330086436 0.00000000000000000 0.00000000000000000 -1.00000000000000000 
1 1.51987028381113998 0.00000000000000000 0.00000000000000000 -1.00000000000000000 
1 1.51987028381113998 0.00000000000000000 0.00000000000000000 -1.00000000000000000 
1 1.62172236977865225 0.00000000000000000 0.00000000000000000 -1.00000000000000000 
1 6.28318530717958623 0.00000000000000000 0.00000000000000000 1.00000000000000000 
1 0.00000000000000000 0.00000000000000000 0.00000000000000000 1.00000000000000000 
1 6.28318530717958623 0.00000000000000000 0.00000000000000000 1.00000000000000000 
1 0.00000000000000000 0.00000000000000000 0.00000000000000000 1.00000000000000000 
1 6.28318530717958623 0.00000000000000000 0.00000000000000000 1.00000000000000000 
1 0.00000000000000000 0.00000000000000000 0.00000000000000000 1.00000000000000000 
Curves 31
1 336.50049473839658276 -144.81533043546585304 0.00000000000000000 0.00000000000000000 0.00000000000000000 1.00000000000000000 
1 342.34136724442657851 -175.05038781224345712 0.00000000000000000 0.00000000000000000 0.00000000000000000 1.00000000000000000 
2 -18.30000000000019611 359.03392597357697014 0.00000000000000000 0.00000000000000000 0.00000000000000000 -1.00000000000000000 -1.00000000000000000 -0.00000000000000000 -0.00000000000000000 -0.00000000000000000 1.00000000000000000 0.00000000000000000 25.00000000000015987
1 147.22431864335410978 84.99999999999981526 0.00000000000000000 0.00000000000000000 0.00000000000000000 1.00000000000000000 
2 -930.37557344124957126 537.15258786147876435 0.00000000000000000 0.00000000000000000 0.00000000000000000 -1.00000000000000000 -1.00000000000000000 -0.00000000000000000 -0.00000000000000000 -0.00000000000000000 1.00000000000000000 0.00000000000000000 904.30517559137672379
2 0.00000000000019940 -0.00000000000004015 0.00000000000000000 0.00000000000000000 0.00000000000000000 -1.00000000000000000 -1.00000000000000000 -0.00000000000000000 -0.00000000000000000 -0.00000000000000000 1.00000000000000000 0.00000000000000000 384.50000000000011369
2 -0.00000000000019940 -0.00000000000004015 0.00000000000000000 0.00000000000000000 0.00000000000000000 1.00000000000000000 1.00000000000000000 0.00000000000000000 -0.00000000000000000 -0.00000000000000000 1.00000000000000000 0.00000000000000000 384.50000000000011369
1 322.76876640993384626 -208.95112689384956184 0.00000000000000000 0.00000000000000000 0.00000000000000000 1.00000000000000000 
2 930.37557344124957126 537.15258786147876435 0.00000000000000000 0.00000000000000000 0.00000000000000000 1.00000000000000000 1.00000000000000000 0.00000000000000000 -0.00000000000000000 -0.00000000000000000 1.00000000000000000 0.00000000000000000 904.30517559137672379
2 18.30000000000019611 359.03392597357697014 0.00000000000000000 0.00000000000000000 0.00000000000000000 1.00000000000000000 1.00000000000000000 0.00000000000000000 -0.00000000000000000 -0.00000000000000000 1.00000000000000000 0.00000000000000000 25.00000000000015987
2 -111.62865455557678729 -193.34650127081391702 0.00000000000000000 -0.00000000000000000 0.00000000000000000 1.00000000000000000 -0.49999999999999956 0.86602540378443893 -0.00000000000000000 -0.86602540378443893 -0.49999999999999956 0.00000000000000000 4.25000000000000000
2 0.00000000000000000 0.00000000000000000 0.00000000000000000 -0.00000000000000000 -0.00000000000000000 -1.00000000000000000 -1.00000000000000000 0.00000000000000000 0.00000000000000000 0.00000000000000000 1.00000000000000000 -0.00000000000000000 4.25000000000000000
2 0.00000000000000000 0.00000000000000000 0.00000000000000000 0.00000000000000000 0.00000000000000000 -1.00000000000000000 -1.00000000000000000 0.00000000000000000 -0.00000000000000000 0.00000000000000000 1.00000000000000000 0.00000000000000000 2.75000000000000000
2 28.99999999999991473 -145.64082532037508599 18.00000000000000000 0.00000000000000000 0.00000000000000000 1.00000000000000000 -0.49999999999999956 0.86602540378443893 0.00000000000000000 -0.86602540378443893 -0.49999999999999956 0.00000000000000000 4.25000000000000000
2 140.62865455557670202 47.70567595043881681 18.00000000000000000 0.00000000000000000 0.00000000000000000 1.00000000000000000 -1.00000000000000000 0.00000000000000000 0.00000000000000000 0.00000000000000000 -1.00000000000000000 0.00000000000000000 4.25000000000000000
2 -30.30000000000001137 289.50000000000000000 18.00000000000000000 0.00000000000000000 -0.00000000000000000 1.00000000000000000 -1.00000000000000000 0.00000000000000000 0.00000000000000000 -0.00000000000000000 -1.00000000000000000 0.00000000000000000 2.75000000000000000
2 -30.29999999999999005 369.50000000000000000 18.00000000000000000 0.00000000000000000 -0.00000000000000000 1.00000000000000000 -1.00000000000000000 0.00000000000000000 0.00000000000000000 -0.00000000000000000 -1.00000000000000000 0.00000000000000000 2.75000000000000000
1 42.83649235464709903 363.82564204721620627 0.00000000000000000 0.00000000000000000 0.00000000000000000 1.00000000000000000 
1 293.66400238374944820 -219.01031161175041007 0.00000000000000000 0.00000000000000000 0.00000000000000000 1.00000000000000000 
1 19.57260083449259014 384.00151470609290527 0.00000000000000000 0.00000000000000000 0.00000000000000000 1.00000000000000000 
1 -19.57260083449257948 384.00151470609301896 0.00000000000000000 0.00000000000000000 0.00000000000000000 1.00000000000000000 
1 -42.83649235464709903 363.82564204721620627 0.00000000000000000 0.00000000000000000 0.00000000000000000 1.00000000000000000 
1 -147.22431864335408136 84.99999999999965894 0.00000000000000000 0.00000000000000000 0.00000000000000000 1.00000000000000000 
1 -336.50049473839646907 -144.81533043546608042 0.00000000000000000 0.00000000000000000 0.00000000000000000 1.00000000000000000 
1 0.00000000000024158 -169.99999999999945999 0.00000000000000000 0.00000000000000000 0.00000000000000000 1.00000000000000000 
1 -342.34136724442635114 -175.05038781224365607 0.00000000000000000 0.00000000000000000 0.00000000000000000 1.00000000000000000 
1 -293.66400238374933451 -219.01031161175066586 0.00000000000000000 0.00000000000000000 0.00000000000000000 1.00000000000000000 
1 -322.76876640993384626 -208.95112689384990290 0.00000000000000000 0.00000000000000000 0.00000000000000000 1.00000000000000000 
1 -113.75365455557678729 -189.66589330473004793 0.00000000000000000 0.00000000000000003 -0.00000000000000005 1.00000000000000000 
1 -4.25000000000000000 0.00000000000000000 0.00000000000000000 0.00000000000000006 0.00000000000000000 1.00000000000000000 
1 -2.75000000000000000 0.00000000000000000 -0.00000000000000000 0.00000000000000006 0.00000000000000000 1.00000000000000000 
Polygon3D 0
PolygonOnTriangulations 0
Surfaces 25
2 320.08250071357934985 -163.66869809753308118 0.00000000000000000 0.00000000000000000 -0.00000000000000000 -1.00000000000000000 0.50000000000000033 0.86602540378443860 0.00000000000000000 0.86602540378443860 -0.50000000000000033 0.00000000000000000 25.00000000000015987
2 930.37557351721829946 537.15258772989727731 0.00000000000000000 0.00000000000000000 -0.00000000000000000 -1.00000000000000000 0.50000000000000033 0.86602540378443860 0.00000000000000000 0.86602540378443860 -0.50000000000000033 0.00000000000000000 904.30517559137672379
2 -0.00000000000011316 -0.00000000000005313 0.00000000000000000 0.00000000000000000 -0.00000000000000000 -1.00000000000000000 0.50000000000000033 0.86602540378443860 0.00000000000000000 0.86602540378443860 -0.50000000000000033 0.00000000000000000 384.50000000000011369
2 0.00000000000008624 0.00000000000029224 0.00000000000000000 -0.00000000000000000 -0.00000000000000000 -1.00000000000000000 -0.50000000000000033 -0.86602540378443860 0.00000000000000000 0.86602540378443860 -0.50000000000000033 -0.00000000000000000 384.50000000000011369
2 -18.30000000000019611 359.03392597357697014 0.00000000000000000 0.00000000000000000 0.00000000000000000 -1.00000000000000000 -1.00000000000000000 -0.00000000000000000 -0.00000000000000000 -0.00000000000000000 1.00000000000000000 0.00000000000000000 25.00000000000015987
2 -301.78250071357899742 -195.36522787604417317 0.00000000000000000 -0.00000000000000000 0.00000000000000000 -1.00000000000000000 0.50000000000000056 -0.86602540378443837 -0.00000000000000000 -0.86602540378443837 -0.50000000000000056 0.00000000000000000 25.00000000000016698
1 0.00000000000002114 -0.00000000000005780 0.00000000000000000 0.00000000000000000 0.00000000000000000 1.00000000000000000 1.00000000000000000 0.00000000000000000 -0.00000000000000000 -0.00000000000000000 1.00000000000000000 0.00000000000000000 
2 930.37557344124957126 537.15258786147876435 0.00000000000000000 -0.00000000000000000 -0.00000000000000000 -1.00000000000000000 1.00000000000000000 0.00000000000000000 0.00000000000000000 -0.00000000000000000 1.00000000000000000 -0.00000000000000000 904.30517559137672379
2 -0.00000000000019940 -0.00000000000004015 0.00000000000000000 -0.00000000000000000 -0.00000000000000000 -1.00000000000000000 1.00000000000000000 0.00000000000000000 0.00000000000000000 -0.00000000000000000 1.00000000000000000 -0.00000000000000000 384.50000000000011369
2 0.00000000000021974 -0.00000000000018103 0.00000000000000000 -0.00000000000000000 -0.00000000000000000 -1.00000000000000000 -0.50000000000000056 0.86602540378443837 0.00000000000000000 -0.86602540378443837 -0.50000000000000056 0.00000000000000000 384.50000000000022737
2 301.78250071357916795 -195.36522787604388895 0.00000000000000000 -0.00000000000000000 -0.00000000000000000 -1.00000000000000000 -0.50000000000000033 -0.86602540378443860 0.00000000000000000 0.86602540378443860 -0.50000000000000033 -0.00000000000000000 25.00000000000015987
2 18.30000000000019611 359.03392597357697014 0.00000000000000000 -0.00000000000000000 -0.00000000000000000 -1.00000000000000000 1.00000000000000000 0.00000000000000000 0.00000000000000000 -0.00000000000000000 1.00000000000000000 -0.00000000000000000 25.00000000000015987
2 -320.08250071357917932 -163.66869809753333698 0.00000000000000000 -0.00000000000000000 -0.00000000000000000 -1.00000000000000000 -0.50000000000000056 0.86602540378443837 0.00000000000000000 -0.86602540378443837 -0.50000000000000056 0.00000000000000000 25.00000000000016698
2 0.00000000000019940 -0.00000000000004015 0.00000000000000000 0.00000000000000000 0.00000000000000000 -1.00000000000000000 -1.00000000000000000 -0.00000000000000000 -0.00000000000000000 -0.00000000000000000 1.00000000000000000 0.00000000000000000 384.50000000000011369
2 -930.37557344124957126 537.15258786147876435 0.00000000000000000 0.00000000000000000 0.00000000000000000 -1.00000000000000000 -1.00000000000000000 -0.00000000000000000 -0.00000000000000000 -0.00000000000000000 1.00000000000000000 0.00000000000000000 904.30517559137672379
2 -0.00000007596779028 -1074.30517559137638273 0.00000000000000000 -0.00000000000000000 0.00000000000000000 -1.00000000000000000 0.50000000000000056 -0.86602540378443837 -0.00000000000000000 -0.86602540378443837 -0.50000000000000056 0.00000000000000000 904.30517559137695116
2 -930.37557351721864052 537.15258772989704994 0.00000000000000000 -0.00000000000000000 -0.00000000000000000 -1.00000000000000000 -0.50000000000000056 0.86602540378443837 0.00000000000000000 -0.86602540378443837 -0.50000000000000056 0.00000000000000000 904.30517559137695116
2 0.00000007596823792 -1074.30517559137615535 0.00000000000000000 -0.00000000000000000 -0.00000000000000000 -1.00000000000000000 -0.50000000000000033 -0.86602540378443860 0.00000000000000000 0.86602540378443860 -0.50000000000000033 -0.00000000000000000 904.30517559137672379
2 0.00000000000002034 0.00000000000016434 0.00000000000000000 -0.00000000000000000 0.00000000000000000 -1.00000000000000000 0.50000000000000056 -0.86602540378443837 -0.00000000000000000 -0.86602540378443837 -0.50000000000000056 0.00000000000000000 384.50000000000022737
2 -111.62865455557678729 -193.34650127081391702 0.00000000000000000 -0.00000000000000000 -0.00000000000000000 1.00000000000000000 -0.49999999999999956 0.86602540378443893 0.00000000000000000 -0.86602540378443893 -0.49999999999999956 -0.00000000000000000 4.25000000000000000
1 -111.62865455557678729 -193.34650127081391702 0.00000000000000000 -0.00000000000000000 0.00000000000000000 -1.00000000000000000 0.49999999999999956 -0.86602540378443893 -0.00000000000000000 -0.86602540378443893 -0.49999999999999956 0.00000000000000000 
1 0.00000000000000000 0.00000000000000000 0.00000000000000000 -0.00000000000000000 -0.00000000000000000 -1.00000000000000000 1.00000000000000000 -0.00000000000000000 0.00000000000000000 0.00000000000000000 1.00000000000000000 -0.00000000000000000 
2 0.00000000000000000 0.00000000000000000 0.00000000000000000 0.00000000000000000 0.00000000000000000 1.00000000000000000 -1.00000000000000000 0.00000000000000000 0.00000000000000000 -0.00000000000000000 1.00000000000000000 -0.00000000000000000 4.25000000000000000
1 0.00000000000000000 0.00000000000000000 0.00000000000000000 0.00000000000000000 0.00000000000000000 -1.00000000000000000 1.00000000000000000 -0.00000000000000000 0.00000000000000000 -0.00000000000000000 1.00000000000000000 0.00000000000000000 
2 0.00000000000000000 0.00000000000000000 0.00000000000000000 -0.00000000000000000 -0.00000000000000000 1.00000000000000000 -1.00000000000000000 0.00000000000000000 0.00000000000000000 0.00000000000000000 1.00000000000000000 0.00000000000000000 2.75000000000000000
Triangulations 0

TShapes 103
Ve
0.000000100000348
-42.836492354647099 363.825642047216206 0.000000000000000
0 0

0101101
*
Ed
 0.000000100000348 1 1 0
1  1 0 0.000000000000000 18.000000000000000
2  1 1 0 0.000000000000000 18.000000000000000
2  2 2 0 0.000000000000000 18.000000000000000
4 G1 1 0 2 0
0

0101000
+103 16 -103 18 *
Ve
0.000000100000005
-19.572600834492579 384.001514706093246 0.000000000000000
0 0

0101101
*
Ed
 0.000000100000005 1 1 0
1  2 0 0.000000000000000 18.000000000000000
2  3 3 0 0.000000000000000 18.000000000000000
2  4 1 0 0.000000000000000 18.000000000000000
4 G1 3 0 1 0
2  5 4 0 0.000000000000000 18.000000000000000
0

0101000
+101 16 -101 18 *
Ed
 0.000000100000000 1 1 0
1  3 0 0.192862029711070 1.519870283811140
2  6 5 21 0.192862029711070 1.519870283811140
2  7 5 22 0.192862029711070 1.519870283811140
2  8 6 24 0.192862029711070 1.519870283811140
2  9 6 25 0.192862029711070 1.519870283811140
2  10 1 26 0.192862029711070 1.519870283811140
2  11 1 27 0.192862029711070 1.519870283811140
2  12 7 28 0.192862029711070 1.519870283811140
2  13 7 29 0.192862029711070 1.519870283811140
2  14 7 30 0.192862029711070 1.519870283811140
0

0101000
+103 31 -101 31 *
Wi

0101100
+102 0 -100 0 -99 19 +99 32 *
Fa
0  0.000000100000000 1 0

0101000
+98 0 *
Ve
0.000000112022056
147.224318643354195 84.999999999999787 0.000000000000000
0 0

0101101
*
Ed
 0.000000112021745 1 1 0
1  4 0 0.000000000000000 18.000000000000000
2  15 8 0 0.000000000000000 18.000000000000000
2  16 2 0 0.000000000000000 18.000000000000000
4 C2 8 0 2 0
0

0101000
+96 35 -96 36 *
Ed
 0.000000100000000 1 1 0
1  5 0 3.334454683300864 3.665191429258806
2  17 2 26 3.334454683300864 3.665191429258806
2  18 2 27 3.334454683300864 3.665191429258806
2  19 7 30 3.334454683300864 3.665191429258806
0

0101000
+103 31 -96 37 *
Wi

0101100
+102 0 -95 0 -94 19 +94 32 *
Fa
0  0.000000100000000 2 0

0101000
+93 0 *
Ve
0.000000100000130
0.000000000000012 384.500000000000227 0.000000000000000
0 0

0101101
*
Ed
 0.000000100000000 1 1 0
1  6 0 1.519870283811140 1.570796326794896
2  20 3 26 1.519870283811140 1.570796326794896
2  21 3 27 1.519870283811140 1.570796326794896
2  22 4 26 1.519870283811140 1.570796326794896
2  23 4 27 1.519870283811140 1.570796326794896
2  24 7 30 1.519870283811140 1.570796326794896
0

0101000
+101 31 -91 38 *
Ve
0.000000100000005
19.572600834492590 384.001514706092905 0.000000000000000
0 0

0101101
*
Ed
 0.000000100000000 1 1 0
1  7 0 1.519870283811140 1.570796326794896
2  25 9 40 1.519870283811140 1.570796326794896
2  26 9 41 1.519870283811140 1.570796326794896
2  27 10 42 1.519870283811140 1.570796326794896
2  28 10 43 1.519870283811140 1.570796326794896
2  29 4 44 1.519870283811140 1.570796326794896
2  30 4 45 1.519870283811140 1.570796326794896
2  31 7 46 1.519870283811140 1.570796326794896
2  32 7 47 1.519870283811140 1.570796326794896
2  33 7 48 1.519870283811140 1.570796326794896
0

0101000
+89 0 -91 0 *
Ed
 0.000000100000005 1 1 0
1  8 0 0.000000000000000 18.000000000000000
2  34 11 0 0.000000000000000 18.000000000000000
2  35 4 0 0.000000000000000 18.000000000000000
4 G1 11 0 4 0
0

0101000
+89 39 -89 49 *
Wi

0101100
-100 0 +90 19 -88 39 +87 0 +88 49 -90 32 *
Fa
0  0.000000100000000 4 0

0101000
+86 0 *
Ve
0.000000100000348
42.836492354647099 363.825642047216206 0.000000000000000
0 0

0101101
*
Ed
 0.000000100000000 1 1 0
1  9 0 3.334454683300864 3.665191429258806
2  36 8 40 3.334454683300864 3.665191429258806
2  37 8 41 3.334454683300864 3.665191429258806
2  38 7 46 3.334454683300864 3.665191429258806
0

0101000
+84 0 -96 0 *
Ed
 0.000000100000000 1 1 0
1  10 0 0.192862029711070 1.519870283811140
2  39 12 40 0.192862029711070 1.519870283811140
2  40 12 41 0.192862029711070 1.519870283811140
2  41 13 42 0.192862029711070 1.519870283811140
2  42 13 43 0.192862029711070 1.519870283811140
2  43 11 44 0.192862029711070 1.519870283811140
2  44 11 45 0.192862029711070 1.519870283811140
2  45 7 46 0.192862029711070 1.519870283811140
2  46 7 47 0.192862029711070 1.519870283811140
2  47 7 48 0.192862029711070 1.519870283811140
0

0101000
+84 0 -89 0 *
Ed
 0.000000100000000 1 1 0
1  6 0 1.519870283811140 1.570796326794896
2  48 14 21 1.519870283811140 1.570796326794896
2  49 14 22 1.519870283811140 1.570796326794896
2  50 9 21 1.519870283811140 1.570796326794896
2  51 9 22 1.519870283811140 1.570796326794896
2  52 7 28 1.519870283811140 1.570796326794896
0

0101000
+101 31 -91 38 *
Ve
0.000000112022056
-147.224318643354110 84.999999999999758 0.000000000000000
0 0

0101101
*
Ed
 0.000000100000000 1 1 0
1  5 0 3.334454683300864 3.665191429258806
2  53 15 21 3.334454683300864 3.665191429258806
2  54 15 22 3.334454683300864 3.665191429258806
2  55 16 24 3.334454683300864 3.665191429258806
2  56 16 25 3.334454683300864 3.665191429258806
2  57 7 28 3.334454683300864 3.665191429258806
2  58 7 29 3.334454683300864 3.665191429258806
0

0101000
+103 31 -80 31 *
Ed
 0.000000100000000 1 1 0
1  9 0 3.334454683300864 3.665191429258806
2  59 17 42 3.334454683300864 3.665191429258806
2  60 17 43 3.334454683300864 3.665191429258806
2  61 7 47 3.334454683300864 3.665191429258806
0

0101000
+84 0 -80 56 *
Ed
 0.000000100000000 1 1 0
1  9 0 3.334454683300864 3.665191429258806
2  62 18 44 3.334454683300864 3.665191429258806
2  63 18 45 3.334454683300864 3.665191429258806
2  64 7 48 3.334454683300864 3.665191429258806
0

0101000
+84 0 -80 57 *
Ed
 0.000000100000000 1 1 0
1  6 0 1.519870283811140 1.570796326794896
2  65 19 24 1.519870283811140 1.570796326794896
2  66 19 25 1.519870283811140 1.570796326794896
2  67 10 24 1.519870283811140 1.570796326794896
2  68 10 25 1.519870283811140 1.570796326794896
2  69 7 29 1.519870283811140 1.570796326794896
0

0101000
+101 31 -91 38 *
Wi

0101100
-83 51 +82 51 +94 52 +88 51 -99 52 -81 53 -90 52 -99 53 +88 54 +79 53 
+82 54 -78 55 -77 54 +82 55 +79 58 +88 55 -99 58 -76 58 *
Ve
0.000000100000000
26.874999999999922 -141.960217354291217 0.000000000000000
0 0

0101101
*
Ed
 0.000000100000000 1 1 0
1  11 0 0.000000000000000 6.283185307179586
2  70 20 0 0.000000000000000 6.283185307179586
2  71 21 0 0.000000000000000 6.283185307179586
2  72 7 62 0.000000000000000 6.283185307179586
0

0101000
+74 63 -74 63 *
Wi

0101100
-73 61 *
Ve
0.000000100000000
-4.250000000000000 0.000000000000000 0.000000000000000
0 0

0101101
*
Ed
 0.000000100000000 1 1 0
1  12 0 0.000000000000000 6.283185307179586
2  73 22 0 0.000000000000000 6.283185307179586
2  74 23 0 0.000000000000000 6.283185307179586
2  75 7 65 0.000000000000000 6.283185307179586
0

0101000
+71 0 -71 0 *
Wi

0101100
+70 64 *
Ve
0.000000100000000
-2.750000000000000 0.000000000000000 -0.000000000000000
0 0

0101101
*
Ed
 0.000000100000000 1 1 0
1  13 0 0.000000000000000 6.283185307179586
2  76 24 0 0.000000000000000 6.283185307179586
2  77 25 0 0.000000000000000 6.283185307179586
2  78 7 67 0.000000000000000 6.283185307179586
2  79 7 69 0.000000000000000 6.283185307179586
0

0101000
+68 0 -68 0 *
Wi

0101100
+67 66 *
Wi

0101100
+67 68 *
Fa
0  0.000000100000000 7 50

0101000
+75 0 +72 0 +69 0 +66 0 +65 0 *
Wi

0101100
-83 71 +82 71 +94 72 +88 71 -99 72 -81 73 -90 72 -99 73 +88 74 +79 73 
+82 74 -78 75 -77 74 +82 75 +79 76 +88 75 -99 76 -76 76 *
Ve
0.000000100000004
26.874999999999915 -141.960217354291217 18.000000000000000
0 0

0101101
*
Ed
 0.000000100000000 1 1 0
1  14 0 0.000000000000000 6.283185307179586
2  80 7 78 0.000000000000000 6.283185307179586
2  81 20 79 0.000000000000000 6.283185307179586
0

0101100
+62 0 -62 0 *
Wi

0101100
-61 77 *
Ve
0.000000100000000
136.378654555576702 47.705675950438817 18.000000000000000
0 0

0101101
*
Ed
 0.000000100000000 1 1 0
1  15 0 0.000000000000000 6.283185307179586
2  82 7 81 0.000000000000000 6.283185307179586
2  83 23 59 0.000000000000000 6.283185307179586
0

0101100
+59 0 -59 0 *
Wi

0101100
-58 80 *
Ve
0.000000100000000
-33.050000000000011 289.500000000000000 18.000000000000000
0 0

0101101
*
Ed
 0.000000100000000 1 1 0
1  16 0 0.000000000000000 6.283185307179586
2  84 7 70 0.000000000000000 6.283185307179586
2  85 25 66 0.000000000000000 6.283185307179586
0

0101100
+56 0 -56 0 *
Wi

0101100
-55 0 *
Ve
0.000000100000000
-33.049999999999990 369.500000000000000 18.000000000000000
0 0

0101101
*
Ed
 0.000000100000000 1 1 0
1  17 0 0.000000000000000 6.283185307179586
2  86 7 70 0.000000000000000 6.283185307179586
2  87 25 68 0.000000000000000 6.283185307179586
0

0101100
+53 0 -53 0 *
Wi

0101100
-52 0 *
Fa
0  0.000000100000000 7 70

0101000
+63 0 +60 0 +57 0 +54 0 +51 0 *
Ed
 0.000000100000348 1 1 0
1  18 0 0.000000000000000 18.000000000000000
2  88 8 0 0.000000000000000 18.000000000000000
2  89 12 0 0.000000000000000 18.000000000000000
4 G1 8 0 12 0
0

0101000
+84 35 -84 36 *
Wi

0101100
+49 0 -95 0 -83 35 +83 36 *
Fa
0  0.000000100000000 8 0

0101000
+48 0 *
Ed
 0.000000100000348 1 1 0
1  19 0 0.000000000000000 18.000000000000000
2  90 18 0 0.000000000000000 18.000000000000000
2  91 11 0 0.000000000000000 18.000000000000000
4 G1 18 0 11 0
0

0101000
+84 39 -84 49 *
Wi

0101100
+46 0 -87 0 -82 39 +82 49 *
Fa
0  0.000000100000000 11 0

0101000
+45 0 *
Ed
 0.000000100000005 1 1 0
1  20 0 0.000000000000000 18.000000000000000
2  92 12 0 0.000000000000000 18.000000000000000
2  93 9 0 0.000000000000000 18.000000000000000
4 G1 12 0 9 0
0

0101000
+89 35 -89 36 *
Wi

0101100
+49 0 -43 0 -82 35 +82 36 *
Fa
0  0.000000100000000 12 0

0101000
+42 0 *
Ed
 0.000000100000005 1 1 0
1  21 0 0.000000000000000 18.000000000000000
2  94 14 0 0.000000000000000 18.000000000000000
2  95 5 0 0.000000000000000 18.000000000000000
4 G1 14 0 5 0
2  96 9 0 0.000000000000000 18.000000000000000
0

0101000
+101 82 -101 83 *
Wi

0101100
-40 0 +81 84 -88 35 +43 0 +88 36 -81 85 *
Fa
0  0.000000100000000 9 0

0101000
+39 0 *
Ed
 0.000000100000348 1 1 0
1  22 0 0.000000000000000 18.000000000000000
2  97 5 0 0.000000000000000 18.000000000000000
2  98 15 0 0.000000000000000 18.000000000000000
4 G1 5 0 15 0
0

0101000
+103 82 -103 83 *
Wi

0101100
+37 0 -40 0 -99 84 +99 85 *
Fa
0  0.000000100000000 5 0

0101000
+36 0 *
Ed
 0.000000112021745 1 1 0
1  23 0 0.000000000000000 18.000000000000000
2  99 15 0 0.000000000000000 18.000000000000000
2  100 17 0 0.000000000000000 18.000000000000000
4 C2 15 0 17 0
0

0101000
+80 82 -80 83 *
Wi

0101100
+37 0 -34 0 -79 84 +79 85 *
Fa
0  0.000000100000000 15 0

0101000
+33 0 *
Ed
 0.000000100000348 1 1 0
1  24 0 0.000000000000000 18.000000000000000
2  101 17 0 0.000000000000000 18.000000000000000
2  102 13 0 0.000000000000000 18.000000000000000
4 G1 17 0 13 0
0

0101000
+84 86 -84 87 *
Wi

0101100
+31 0 -34 0 -78 86 +78 87 *
Fa
0  0.000000100000000 17 0

0101000
+30 0 *
Ed
 0.000000112021745 1 1 0
1  25 0 0.000000000000000 18.000000000000000
2  103 16 0 0.000000000000000 18.000000000000000
2  104 18 0 0.000000000000000 18.000000000000000
4 C2 16 0 18 0
0

0101000
+80 88 -80 89 *
Wi

0101100
+46 0 -28 0 -77 39 +77 49 *
Fa
0  0.000000100000000 18 0

0101000
+27 0 *
Ed
 0.000000100000005 1 1 0
1  26 0 0.000000000000000 18.000000000000000
2  105 13 0 0.000000000000000 18.000000000000000
2  106 10 0 0.000000000000000 18.000000000000000
4 G1 13 0 10 0
0

0101000
+89 86 -89 87 *
Wi

0101100
+31 0 -25 0 -82 86 +82 87 *
Fa
0  0.000000100000000 13 0

0101000
+24 0 *
Ed
 0.000000100000348 1 1 0
1  27 0 0.000000000000000 18.000000000000000
2  107 6 0 0.000000000000000 18.000000000000000
2  108 16 0 0.000000000000000 18.000000000000000
4 G1 6 0 16 0
0

0101000
+103 88 -103 89 *
Wi

0101100
+22 0 -28 0 -79 90 +79 91 *
Fa
0  0.000000100000000 16 0

0101000
+21 0 *
Ed
 0.000000100000005 1 1 0
1  28 0 0.000000000000000 18.000000000000000
2  109 19 0 0.000000000000000 18.000000000000000
2  110 6 0 0.000000000000000 18.000000000000000
4 G1 19 0 6 0
2  111 10 0 0.000000000000000 18.000000000000000
0

0101000
+101 88 -101 89 *
Wi

0101100
-19 0 +76 90 -88 86 +25 0 +88 87 -76 91 *
Fa
0  0.000000100000000 10 0

0101000
+18 0 *
Wi

0101100
+22 0 -19 0 -99 90 +99 91 *
Fa
0  0.000000100000000 6 0

0101000
+16 0 *
Ed
 0.000000100000000 1 1 0
1  29 0 0.000000000000000 18.000000000000000
3  112 113CN 20 0 0.000000000000000 18.000000000000000
0

0101000
+74 63 -62 63 *
Wi

0101100
-14 79 -61 0 +14 79 +73 79 *
Fa
0  0.000000100000000 20 79

0101000
+13 0 *
Ed
 0.000000100000000 1 1 0
1  30 0 0.000000000000000 18.000000000000000
3  114 115CN 23 0 0.000000000000000 18.000000000000000
0

0101000
+71 0 -59 92 *
Wi

0101100
-11 59 +58 0 +11 59 +70 59 *
Fa
0  0.000000100000000 23 59

0101000
+10 0 *
Ed
 0.000000100000000 1 1 0
1  31 0 0.000000000000000 18.000000000000000
3  116 117CN 25 0 0.000000000000000 18.000000000000000
0

0101000
+68 0 -56 93 *
Wi

0101100
-8 66 +55 0 +8 66 +67 66 *
Fa
0  0.000000100000000 25 66

0101000
+7 0 *
Ed
 0.000000100000000 1 1 0
1  31 0 0.000000000000000 18.000000000000000
3  116 117CN 25 0 0.000000000000000 18.000000000000000
0

0101000
+68 0 -53 94 *
Wi

0101100
-5 68 +52 0 +5 68 +67 68 *
Fa
0  0.000000100000000 25 68

0101000
+4 0 *
Sh

0101100
+97 7 -92 7 -85 7 -64 0 +50 0 +47 7 -44 7 -41 7 -38 7 +35 7 
-32 7 +29 7 +26 7 -23 7 -20 7 -17 7 +15 7 -12 77 +9 80 +6 0 
+3 0 *
So

0100000
+2 0 *

+1 1 