
CASCADE Topology V1, (c) Matra-Datavision
Locations 6
1
1.000000000000000 0.000000000000000 0.000000000000000 0.000000000000000 
0.000000000000000 1.000000000000000 0.000000000000000 0.000000000000000 
0.000000000000000 0.000000000000000 1.000000000000000 0.000000000000000 
1
1.000000000000000 0.000000000000000 0.000000000000000 -14.300000000000001 
0.000000000000000 1.000000000000000 0.000000000000000 0.000000000000003 
0.000000000000000 0.000000000000000 1.000000000000000 -0.000000000000004 
1
1.000000000000000 0.000000000000000 0.000000000000000 28.600000000000001 
0.000000000000000 1.000000000000000 0.000000000000000 -0.000000000000006 
0.000000000000000 0.000000000000000 1.000000000000000 0.000000000000008 
2  2 1 3 1 0
2  3 -1 2 -1 0
2  2 -1 0
Curve2ds 66
1 6.28318530717958623 0.00000000000000000 0.00000000000000000 -1.00000000000000000 
1 0.00000000000000122 -2.00000000000000000 1.00000000000000000 0.00000000000000000 
1 0.00000000000000056 -2.00000000000000000 -1.00000000000000000 0.00000000000000000 
1 0.00000000000000000 0.00000000000000000 0.00000000000000000 -1.00000000000000000 
1 66.00000000000000000 0.00000000000000133 0.00000000000000000 -1.00000000000000000 
1 -0.00000000000000056 -2.00000000000000000 1.00000000000000000 0.00000000000000000 
1 0.00000000000000000 0.00000000000000000 1.00000000000000000 -0.00000000000000000 
1 -0.00000000000000007 -2.00000000000000000 -1.00000000000000000 0.00000000000000000 
1 -0.00000000000000007 -2.00000000000000000 1.00000000000000000 0.00000000000000000 
1 -4.00000000000000000 0.00000000000000089 1.00000000000000000 -0.00000000000000000 
1 -4.00000000000000000 -28.60000000000000142 1.00000000000000000 -0.00000000000000000 
1 4.71238898038468967 0.00000000000000000 0.00000000000000000 -1.00000000000000000 
1 -0.00000000000000044 -2.00000000000000000 1.00000000000000000 0.00000000000000000 
1 -0.00000000000000133 -1.99999999999999911 -1.00000000000000000 0.00000000000000000 
1 74.00000000000000000 -0.00000000000000133 -0.00000000000000006 -1.00000000000000000 
1 -4.71238898038468967 28.59999999999999787 1.00000000000000000 0.00000000000000000 
1 0.00000000000000000 0.00000000000000000 1.00000000000000000 0.00000000000000000 
1 0.00000000000000000 -28.60000000000000142 1.00000000000000000 0.00000000000000000 
1 6.28318530717958623 0.00000000000000000 -1.00000000000000000 0.00000000000000000 
1 0.00000000000000000 0.00000000000000000 1.00000000000000000 0.00000000000000000 
6 0 1 -70.00000000000000000 -2.00000000000000000  -70.00000000000000000 0.00000000000000000  
6 0 1 28.60000000000000142 -2.00000000000000000  28.60000000000000142 0.00000000000000000  
1 66.00000000000000000 0.00000000000000133 0.00000000000000000 -1.00000000000000000 
1 0.00000000000000000 0.00000000000000000 1.00000000000000000 0.00000000000000000 
6 0 1 70.00000000000000000 -2.00000000000000000  70.00000000000000000 0.00000000000000000  
6 0 1 0.00000000000000000 -2.00000000000000000  0.00000000000000000 0.00000000000000000  
1 -4.00000000000000000 0.00000000000000089 1.00000000000000000 -0.00000000000000000 
1 0.00000000000000000 0.00000000000000000 1.00000000000000000 0.00000000000000000 
6 0 1 0.00000000000000000 -2.00000000000000000  0.00000000000000000 0.00000000000000000  
6 0 1 4.00000000000000000 -2.00000000000000000  4.00000000000000000 0.00000000000000000  
8 0.00000000000000000 1.00000000000000000
1 6.28318530717958623 0.00000000000000000 0.00000000000000000 1.00000000000000000 
6 0 1 -4.00000000000000000 -2.00000000000000000  -4.00000000000000000 0.00000000000000000  
6 0 1 -28.60000000000000142 -2.00000000000000000  -28.60000000000000142 0.00000000000000000  
8 0.00000000000000000 1.00000000000000000
1 0.00000000000000000 0.00000000000000000 0.00000000000000000 1.00000000000000000 
1 -4.00000000000000000 -28.60000000000000142 1.00000000000000000 -0.00000000000000000 
1 0.00000000000000000 0.00000000000000000 -1.00000000000000000 0.00000000000000000 
1 0.00000000000000000 0.00000000000000000 -0.00000000000000006 -1.00000000000000000 
1 0.00000000000000044 -2.00000000000000000 -1.00000000000000000 -0.00000000000000000 
1 0.00000000000000000 0.00000000000000000 1.00000000000000000 0.00000000000000000 
1 0.00000000000000044 -2.00000000000000000 -1.00000000000000000 0.00000000000000000 
1 -0.00000000000000044 -2.00000000000000000 1.00000000000000000 0.00000000000000000 
1 0.00000000000000000 0.00000000000000000 1.00000000000000000 0.00000000000000000 
1 0.00000000000000635 -28.60000000000000142 1.00000000000000000 0.00000000000000000 
1 0.00000000000000000 1.00000000000000000 1.00000000000000000 0.00000000000000000 
1 4.71238898038468967 0.00000000000000000 0.00000000000000000 1.00000000000000000 
6 0 1 -0.00000000000000178 -1.99999999999999911  0.00000000000000000 0.00000000000000000  
6 0 1 74.00000000000000000 -2.00000000000000000  74.00000000000000000 -0.00000000000000089  
1 1.57079632679489656 0.00000000000000000 0.00000000000000000 1.00000000000000000 
7 0 0  1 2 2  -28.60000000000000142 -1.99999999999999978  -28.60000000000000142 0.00000000000000044 
 0.00000000000000000 2 1.00000000000000000 2
7 0 0  1 2 2  -74.00000000000000000 -2.00000000000000089  -74.00000000000000000 -0.00000000000000089 
 0.00000000000000000 2 1.00000000000000000 2
1 6.28318530717958623 1.00000000000000000 -1.00000000000000000 0.00000000000000000 
1 0.00000000000000000 0.00000000000000000 0.00000000000000000 -1.00000000000000000 
1 0.00000000000000000 0.00000000000000000 -1.00000000000000000 0.00000000000000000 
8 0.00000000000000000 28.60000000000000142
1 6.28318530717958623 0.00000000000000000 0.00000000000000000 -1.00000000000000000 
6 0 1 0.00000000000000000 -2.00000000000000000  0.00000000000000000 0.00000000000000000  
6 0 1 0.00000000000000000 -2.00000000000000000  0.00000000000000000 0.00000000000000000  
1 0.00000000000000000 0.00000000000000000 -0.00000000000000006 -1.00000000000000000 
1 0.00000000000000000 -0.00000000000000000 -1.00000000000000000 -0.00000000000000000 
6 0 1 0.00000000000000000 -2.00000000000000044  0.00000000000001421 0.00000000000000000  
6 0 1 -28.60000000000000142 -2.00000000000000000  -28.60000000000000142 0.00000000000000022  
1 0.00000000000000000 0.00000000000000000 1.00000000000000000 0.00000000000000000 
1 0.00000000000000000 0.00000000000000000 1.00000000000000000 0.00000000000000000 
1 0.00000000000000635 -28.60000000000000142 1.00000000000000000 0.00000000000000000 
1 0.00000000000000000 0.00000000000000000 -1.00000000000000000 0.00000000000000000 
1 0.00000000000000000 0.00000000000000000 -1.00000000000000000 -0.00000000000000000 
1 74.00000000000000000 0.00000000000000044 -0.00000000000000006 -1.00000000000000000 
Curves 25
1 -14.30000000000000071 -3.99999999999999689 -0.00000000000000308 1.00000000000000000 -0.00000000000000022 0.00000000000000028 
1 -14.30000000000001670 -70.00000000000000000 0.00000000000001157 1.00000000000000000 -0.00000000000000022 0.00000000000000028 
1 0.00000000000000000 0.00000000000000000 0.00000000000000000 -0.00000000000000022 -1.00000000000000000 0.00000000000000022 
1 -14.30000000000000071 0.00000000000000406 3.99999999999999600 1.00000000000000000 -0.00000000000000022 0.00000000000000028 
2 -0.00000000000000178 -3.99999999999999822 4.00000000000000089 -1.00000000000000000 0.00000000000000022 -0.00000000000000028 0.00000000000000028 -0.00000000000000044 -1.00000000000000000 -0.00000000000000022 -1.00000000000000000 0.00000000000000044 4.00000000000000000
6 0 1 14.29999999999998472 -70.00000000000000000 0.00000000000001951  14.29999999999998650 -70.00000000000000000 2.00000000000001954  
1 -14.30000000000001670 -70.00000000000000000 2.00000000000001155 1.00000000000000000 -0.00000000000000022 0.00000000000000028 
6 0 1 -14.30000000000001670 -70.00000000000000000 0.00000000000001157  -14.30000000000001670 -70.00000000000000000 2.00000000000001155  
1 -14.30000000000000071 0.00000000000000355 1.99999999999999600 -0.00000000000000022 -1.00000000000000000 0.00000000000000022 
6 0 1 -14.30000000000000071 -3.99999999999999689 -0.00000000000000308  -14.30000000000000071 -3.99999999999999645 1.99999999999999689  
6 0 1 14.30000000000000071 -4.00000000000000355 0.00000000000000486  14.30000000000000071 -4.00000000000000266 2.00000000000000488  
1 14.30000000000000071 -0.00000000000000266 2.00000000000000400 -0.00000000000000022 -1.00000000000000000 0.00000000000000022 
1 -14.30000000000001847 0.00000000000002049 78.00000000000000000 1.00000000000000000 -0.00000000000000022 0.00000000000000028 
1 -0.00000000000001732 0.00000000000001732 78.00000000000000000 0.00000000000000022 -0.00000000000000022 -1.00000000000000000 
2 -14.30000000000000249 -3.99999999999999512 3.99999999999999689 -1.00000000000000000 0.00000000000000022 -0.00000000000000028 0.00000000000000028 -0.00000000000000044 -1.00000000000000000 -0.00000000000000022 -1.00000000000000000 0.00000000000000044 2.00000000000000000
6 0 1 -14.30000000000000071 0.00000000000000406 3.99999999999999600  -14.30000000000000249 -1.99999999999999512 3.99999999999999645  
7 0 0  1 2 2  14.30000000000000071 -0.00000000000000155 4.00000000000000266  14.29999999999999893 -2.00000000000000178 4.00000000000000355 
 0.00000000000000000 2 1.00000000000000000 2
2 14.29999999999999893 -4.00000000000000178 4.00000000000000444 -1.00000000000000000 0.00000000000000022 -0.00000000000000028 0.00000000000000028 -0.00000000000000044 -1.00000000000000000 -0.00000000000000022 -1.00000000000000000 0.00000000000000044 2.00000000000000000
1 -14.30000000000000071 -3.99999999999999645 1.99999999999999689 1.00000000000000000 -0.00000000000000022 0.00000000000000028 
6 0 1 -14.30000000000001847 0.00000000000002049 78.00000000000000000  -14.30000000000001847 -1.99999999999997957 78.00000000000000000  
1 -14.30000000000001847 -1.99999999999997957 78.00000000000000000 1.00000000000000000 -0.00000000000000022 0.00000000000000028 
6 0 1 14.29999999999998295 0.00000000000001414 78.00000000000000000  14.29999999999998295 -1.99999999999998601 78.00000000000001421  
1 -14.30000000000001847 -1.99999999999997957 78.00000000000000000 0.00000000000000022 -0.00000000000000022 -1.00000000000000000 
1 14.29999999999998295 -1.99999999999998601 78.00000000000000000 0.00000000000000022 -0.00000000000000022 -1.00000000000000000 
1 -14.30000000000000249 -1.99999999999999512 3.99999999999999645 1.00000000000000000 -0.00000000000000022 0.00000000000000028 
Polygon3D 0
PolygonOnTriangulations 0
Surfaces 21
1 -14.30000000000000071 -3.99999999999999689 -0.00000000000000308 0.00000000000000028 -0.00000000000000022 -1.00000000000000000 -0.00000000000000022 -1.00000000000000000 0.00000000000000022 -1.00000000000000000 0.00000000000000022 -0.00000000000000028 
2 -14.30000000000000249 -3.99999999999999512 3.99999999999999689 -1.00000000000000000 0.00000000000000022 -0.00000000000000028 0.00000000000000028 -0.00000000000000044 -1.00000000000000000 -0.00000000000000022 -1.00000000000000000 0.00000000000000044 4.00000000000000000
1 -14.30000000000000249 -3.99999999999999556 1.99999999999999689 -0.00000000000000022 -1.00000000000000000 0.00000000000000067 1.00000000000000000 -0.00000000000000022 0.00000000000000028 -0.00000000000000028 0.00000000000000067 1.00000000000000000 
1 -14.30000000000000071 -3.99999999999999645 1.99999999999999689 0.00000000000000022 1.00000000000000000 -0.00000000000000022 -1.00000000000000000 0.00000000000000022 -0.00000000000000028 -0.00000000000000028 0.00000000000000022 1.00000000000000000 
1 -14.30000000000001670 -70.00000000000000000 2.00000000000001155 -0.00000000000000022 -1.00000000000000000 0.00000000000000000 1.00000000000000000 -0.00000000000000022 0.00000000000000028 -0.00000000000000028 0.00000000000000000 1.00000000000000000 
1 0.00000000000000000 0.00000000000000000 0.00000000000000000 0.00000000000000028 -0.00000000000000022 -1.00000000000000000 -0.00000000000000022 -1.00000000000000000 0.00000000000000022 -1.00000000000000000 0.00000000000000022 -0.00000000000000028 
1 14.30000000000000071 -0.00000000000000266 2.00000000000000400 1.00000000000000000 -0.00000000000000022 0.00000000000000000 0.00000000000000022 1.00000000000000000 -0.00000000000000022 0.00000000000000000 0.00000000000000022 1.00000000000000000 
1 -14.30000000000000071 0.00000000000000355 1.99999999999999600 -1.00000000000000000 0.00000000000000022 -0.00000000000000000 -0.00000000000000022 -1.00000000000000000 0.00000000000000022 0.00000000000000000 0.00000000000000022 1.00000000000000000 
1 -14.30000000000001847 0.00000000000002049 78.00000000000000000 0.00000000000000022 1.00000000000000000 -0.00000000000000022 0.00000000000000022 -0.00000000000000022 -1.00000000000000000 -1.00000000000000000 0.00000000000000022 -0.00000000000000022 
1 -14.30000000000000071 -1.99999999999999600 4.00000000000000000 0.00000000000000028 -0.00000000000000200 -1.00000000000000000 1.00000000000000000 -0.00000000000000022 0.00000000000000028 -0.00000000000000022 -1.00000000000000000 0.00000000000000200 
1 -14.30000000000000249 -1.99999999999999512 3.99999999999999645 -0.00000000000000028 0.00000000000000022 1.00000000000000000 -1.00000000000000000 0.00000000000000022 -0.00000000000000028 -0.00000000000000022 -1.00000000000000000 0.00000000000000022 
2 28.59999999999999787 -4.00000000000000533 4.00000000000000888 -1.00000000000000000 0.00000000000000022 -0.00000000000000028 0.00000000000000022 1.00000000000000000 -0.00000000000000022 0.00000000000000028 -0.00000000000000022 -1.00000000000000000 4.00000000000000000
9 0 0 0 0 8 1 9 2 2 2 14.30000000000000071 -4.00000000000000355 0.00000000000000422  14.29999999999999893 -4.00000000000000266 2.00000000000000444  
14.29999999999997051 -3.21460183660256016 0.00000000000000698  14.29999999999996163 -3.60730091830128208 2.00000000000000488  
14.30000000000009663 -2.42920342598313876 0.17624315584480751  14.30000000000012150 -3.21460171299156006 2.08812157792240516  
14.29999999999980709 -1.68994706265975680 0.52872773651429872  14.29999999999975380 -2.84497353132990272 2.26436386825715186  
14.30000000000025473 -1.04296497688042900 1.04296497688040901  14.30000000000032934 -2.52148248844018497 2.52148248844021206  
14.29999999999976801 -0.52872773651428984 1.68994706265977790  14.29999999999970939 -2.26436386825716873 2.84497353132988051  
14.30000000000013571 -0.17624315584480785 2.42920342598312633  14.30000000000015703 -2.08812157792239494 3.21460171299157427  
14.29999999999995985 -0.00000000000000377 3.21460183660256282  14.29999999999994920 -2.00000000000000444 3.60730091830128030  
14.30000000000000071 -0.00000000000000155 4.00000000000000266  14.29999999999999893 -2.00000000000000178 4.00000000000000355  

0.00000000000000000 9
1.57079632679489656 9

0.00000000000000000 2
1.00000000000000000 2

9 0 0 0 0 8 1 9 2 2 2 -14.29999999999998828 0.00000000000000488 3.99999999999999289  -14.29999999999999005 -1.99999999999999289 3.99999999999999378  
-14.29999999999976623 0.00000000000001435 3.21460183660252197  -14.29999999999981775 -1.99999999999997513 3.60730091830123456  
-14.30000000000081073 -0.17624315584484851 2.42920342598322803  -14.30000000000061355 -2.08812157792247399 3.21460171299169817  
-14.29999999999859561 -0.52872773651419447 1.68994706265959205  -14.29999999999900240 -2.26436386825700353 2.84497353132964159  
-14.30000000000153548 -1.04296497688051448 1.04296497688059797  -14.30000000000103810 -2.52148248844035860 2.52148248844047584  
-14.29999999999887095 -1.68994706265968464 0.52872773651414529  -14.29999999999926352 -2.84497353132975661 2.26436386825692670  
-14.30000000000055493 -2.42920342598316275 0.17624315584487144  -14.30000000000036664 -3.21460171299162401 2.08812157792251263  
-14.29999999999985150 -3.21460183660254284 -0.00000000000001881  -14.29999999999990479 -3.60730091830125588 1.99999999999996447  
-14.30000000000000071 -3.99999999999999556 -0.00000000000000311  -14.30000000000000249 -3.99999999999999512 1.99999999999999689  

4.71238898038468967 9
6.28318530717958623 9

0.00000000000000000 2
1.00000000000000000 2

1 -14.30000000000000071 -3.99999999999999645 1.99999999999999689 0.00000000000000028 -0.00000000000000022 -1.00000000000000000 -0.00000000000000022 -1.00000000000000000 0.00000000000000022 -1.00000000000000000 0.00000000000000022 -0.00000000000000028 
1 -14.30000000000001847 -1.99999999999997957 78.00000000000000000 -0.00000000000000028 0.00000000000000000 1.00000000000000000 -1.00000000000000000 0.00000000000000022 -0.00000000000000028 -0.00000000000000022 -1.00000000000000000 -0.00000000000000000 
1 -0.00000000000001732 0.00000000000001732 78.00000000000000000 0.00000000000000022 1.00000000000000000 -0.00000000000000022 0.00000000000000022 -0.00000000000000022 -1.00000000000000000 -1.00000000000000000 0.00000000000000022 -0.00000000000000022 
1 14.29999999999998295 -1.99999999999998601 78.00000000000000000 1.00000000000000000 0.00000000000000000 0.00000000000000022 -0.00000000000000022 0.00000000000000022 1.00000000000000000 -0.00000000000000000 -1.00000000000000000 0.00000000000000022 
1 -14.30000000000001847 -1.99999999999997957 78.00000000000000000 -1.00000000000000000 -0.00000000000000000 -0.00000000000000022 0.00000000000000022 -0.00000000000000022 -1.00000000000000000 -0.00000000000000000 -1.00000000000000000 0.00000000000000022 
2 -14.30000000000000249 -3.99999999999999512 3.99999999999999689 -1.00000000000000000 0.00000000000000022 -0.00000000000000028 0.00000000000000028 -0.00000000000000044 -1.00000000000000000 -0.00000000000000022 -1.00000000000000000 0.00000000000000044 2.00000000000000000
1 -14.30000000000001847 -1.99999999999997957 78.00000000000000000 0.00000000000000022 1.00000000000000000 -0.00000000000000022 0.00000000000000022 -0.00000000000000022 -1.00000000000000000 -1.00000000000000000 0.00000000000000022 -0.00000000000000022 
Triangulations 0

TShapes 68
Ve
0.001000000000000
-0.000000000000001 -4.000000000000000 0.000000000000001
0 0

0101101
*
Ed
 0.001000000000000 1 1 0
1  1 0 0.000000000000000 28.600000000000001
2  1 2 0 0.000000000000000 28.600000000000001
4 G1 1 0 2 0
2  2 3 0 0.000000000000000 28.600000000000001
2  3 4 0 0.000000000000000 28.600000000000001
2  4 1 0 0.000000000000000 28.600000000000001
0

0101000
+68 2 -68 4 *
Ve
0.001000000000000
-0.000000000000016 -70.000000000000000 0.000000000000016
0 0

0101101
*
Ed
 0.001000000000000 1 1 0
1  2 0 0.000000000000000 28.600000000000001
2  5 1 0 0.000000000000000 28.600000000000001
2  6 5 0 0.000000000000000 28.600000000000001
0

0101000
+66 2 -66 4 *
Ed
 0.001000000000000 1 1 0
2  7 6 0 4.000000000000000 70.000000000000000
1  3 0 4.000000000000000 70.000000000000000
2  8 7 5 4.000000000000000 70.000000000000000
2  9 8 6 4.000000000000000 70.000000000000000
2  10 1 6 4.000000000000000 70.000000000000000
2  11 1 5 4.000000000000000 70.000000000000000
0

0101000
+68 0 -66 0 *
Wi

0101100
+67 0 -65 0 -64 2 +64 4 *
Fa
0  0.001000000000000 1 0

0101000
+63 0 *
Ve
0.001000000000000
-0.000000000000001 0.000000000000001 4.000000000000000
0 0

0101101
*
Ed
 0.001000000000000 1 1 0
1  4 0 0.000000000000000 28.600000000000001
2  12 2 0 0.000000000000000 28.600000000000001
4 G1 2 0 9 0
2  13 10 0 0.000000000000000 28.600000000000001
2  14 11 0 0.000000000000000 28.600000000000001
2  15 9 0 0.000000000000000 28.600000000000001
0

0101000
+61 2 -61 4 *
Ed
 0.000000100000004 1 1 0
2  16 12 0 4.712388980384690 6.283185307179586
1  5 0 4.712388980384690 6.283185307179586
2  17 2 6 4.712388980384690 6.283185307179586
2  18 2 5 4.712388980384690 6.283185307179586
2  19 13 5 4.712388980384690 6.283185307179586
2  20 14 6 4.712388980384690 6.283185307179586
0

0101000
+61 0 -68 0 *
Wi

0101100
+60 0 -67 0 -59 2 +59 4 *
Fa
0  0.000000100000004 2 0

0101000
+58 0 *
Ve
0.001000000000000
14.299999999999986 -70.000000000000000 2.000000000000020
0 0

0101101
*
Ed
 0.000000100000000 1 1 0
1  6 0 0.000000000000000 1.000000000000000
4 C0 5 0 7 0
2  21 7 0 0.000000000000000 1.000000000000000
2  22 5 0 0.000000000000000 1.000000000000000
0

0101000
+66 4 -56 0 *
Ve
0.001000000000000
-14.300000000000017 -70.000000000000000 2.000000000000012
0 0

0101101
*
Ed
 0.001000000000000 1 1 0
2  23 15 0 0.000000000000000 28.600000000000001
1  7 0 0.000000000000000 28.600000000000001
2  24 5 0 0.000000000000000 28.600000000000001
0

0101000
+54 0 -56 0 *
Ed
 0.000000100000000 1 1 0
1  8 0 0.000000000000000 1.000000000000000
4 C0 5 0 8 0
2  25 8 0 0.000000000000000 1.000000000000000
2  26 5 0 0.000000000000000 1.000000000000000
0

0101000
+66 2 -54 0 *
Wi

0101000
+65 0 +55 0 -53 0 -52 0 *
Fa
0  0.000000100000000 5 0

0101000
+51 0 *
Ve
0.001000000000000
-14.300000000000001 -3.999999999999996 1.999999999999997
0 0

0101101
*
Ed
 0.001000000000000 1 1 0
2  27 15 0 4.000000000000000 70.000000000000000
1  9 0 4.000000000000000 70.000000000000000
2  28 8 0 4.000000000000000 70.000000000000000
0

0101000
+49 0 -54 0 *
Ed
 0.000000100000002 1 1 0
1  10 0 0.000000000000000 1.000000000000000
4 C0 4 0 8 0
2  29 4 0 0.000000000000000 1.000000000000000
2  30 8 0 0.000000000000000 1.000000000000000
2  31 14 0 0.000000000000000 1.000000000000000
0

0101000
+68 2 -49 0 *
Wi

0101100
+64 2 +52 0 -48 0 -47 0 *
Fa
0  0.000000100000000 8 0

0101000
+46 0 *
Ve
0.001000000000000
14.300000000000001 -4.000000000000003 2.000000000000005
0 0

0101101
*
Ed
 0.000000100000002 1 1 0
1  11 0 0.000000000000000 1.000000000000000
4 C0 7 0 4 0
2  32 7 0 0.000000000000000 1.000000000000000
2  33 4 0 0.000000000000000 1.000000000000000
2  34 13 0 0.000000000000000 1.000000000000000
0

0101000
+68 4 -44 0 *
Ed
 0.001000000000000 1 1 0
2  35 15 0 4.000000000000000 70.000000000000000
1  12 0 4.000000000000000 70.000000000000000
2  36 7 0 4.000000000000000 70.000000000000000
0

0101000
+44 0 -56 0 *
Wi

0101100
-64 4 +43 0 +42 0 -55 0 *
Fa
0  0.000000100000000 7 0

0101000
+41 0 *
Ve
0.001000000000000
-0.000000000000017 0.000000000000017 78.000000000000000
0 0

0101101
*
Ed
 0.001000000000000 1 1 0
1  13 0 0.000000000000000 28.600000000000001
2  37 9 0 0.000000000000000 28.600000000000001
2  38 16 0 0.000000000000000 28.600000000000001
0

0101000
+39 2 -39 4 *
Ed
 0.001000000000000 1 1 0
2  39 17 0 0.000000000000000 74.000000000000000
1  14 0 0.000000000000000 74.000000000000000
2  40 18 5 0.000000000000000 74.000000000000000
2  41 19 6 0.000000000000000 74.000000000000000
2  42 9 6 0.000000000000000 74.000000000000000
2  43 9 5 0.000000000000000 74.000000000000000
0

0101000
+39 0 -61 0 *
Wi

0101100
+38 0 -60 0 -37 2 +37 4 *
Fa
0  0.001000000000000 9 0

0101000
+36 0 *
Ve
0.001000000000002
-14.300000000000001 -1.999999999999996 3.999999999999998
0 0

0101101
*
Ed
 0.000000100000004 1 1 0
2  17 20 0 4.712388980384690 6.283185307179586
1  15 0 4.712388980384690 6.283185307179586
2  44 14 0 4.712388980384690 6.283185307179586
0

0101000
+34 0 -49 0 *
Ed
 0.000000100000004 1 1 0
1  16 0 0.000000000000000 1.000000000000000
2  45 14 0 0.000000000000000 1.000000000000000
4 C0 11 0 14 0
2  46 11 0 0.000000000000000 1.000000000000000
2  47 19 0 0.000000000000000 1.000000000000000
0

0101000
+61 2 -34 0 *
Wi

0101100
+59 2 +47 0 -33 0 -32 0 *
Fa
0  0.000000100000000 14 0

0101000
+31 0 *
Ve
0.001000000000002
14.300000000000001 -2.000000000000002 4.000000000000002
0 0

0101101
*
Ed
 0.000000100000004 1 1 0
1  17 0 0.000000000000000 1.000000000000000
2  48 13 0 0.000000000000000 1.000000000000000
4 C0 13 0 11 0
2  49 11 0 0.000000000000000 1.000000000000000
2  50 18 0 0.000000000000000 1.000000000000000
0

0101000
+61 4 -29 0 *
Ed
 0.000000100000004 1 1 0
2  18 20 0 4.712388980384690 6.283185307179586
1  18 0 4.712388980384690 6.283185307179586
2  51 13 0 4.712388980384690 6.283185307179586
0

0101000
+29 0 -44 0 *
Wi

0101100
-59 4 +28 0 +27 0 -43 0 *
Fa
0  0.000000100000000 13 0

0101000
+26 0 *
Ed
 0.001000000000000 1 1 0
2  52 15 0 0.000000000000000 28.600000000000001
1  19 0 0.000000000000000 28.600000000000001
2  53 4 0 0.000000000000000 28.600000000000001
2  54 20 0 0.000000000000000 28.600000000000001
0

0101000
+49 0 -44 0 *
Wi

0101100
+24 0 -53 0 -48 0 +42 0 *
Fa
0  0.001000000000000 15 0

0101000
+23 0 *
Ve
0.001000000000000
-14.300000000000018 -1.999999999999980 78.000000000000000
0 0

0101101
*
Ed
 0.000000100000000 1 1 0
1  20 0 0.000000000000000 1.000000000000000
4 C0 16 0 19 0
2  55 19 0 0.000000000000000 1.000000000000000
2  56 16 0 0.000000000000000 1.000000000000000
0

0101000
+39 2 -21 0 *
Ve
0.001000000000000
14.299999999999983 -1.999999999999986 78.000000000000014
0 0

0101101
*
Ed
 0.001000000000000 1 1 0
2  57 21 0 0.000000000000000 28.600000000000001
1  21 0 0.000000000000000 28.600000000000001
2  58 16 0 0.000000000000000 28.600000000000001
0

0101000
+21 0 -19 0 *
Ed
 0.000000100000000 1 1 0
1  22 0 0.000000000000000 1.000000000000000
4 C0 18 0 16 0
2  59 18 0 0.000000000000000 1.000000000000000
2  60 16 0 0.000000000000000 1.000000000000000
0

0101000
+39 4 -19 0 *
Wi

0101000
-38 0 +20 0 +18 0 -17 0 *
Fa
0  0.000000100000000 16 0

0101000
+16 0 *
Ed
 0.001000000000000 1 1 0
2  61 21 0 0.000000000000000 74.000000000000000
1  23 0 0.000000000000000 74.000000000000000
2  62 19 0 0.000000000000000 74.000000000000000
0

0101000
+21 0 -34 0 *
Wi

0101100
+37 2 +32 0 -14 0 -20 0 *
Fa
0  0.000000100000000 19 0

0101000
+13 0 *
Ed
 0.001000000000000 1 1 0
2  63 21 0 0.000000000000000 74.000000000000000
1  24 0 0.000000000000000 74.000000000000000
2  64 18 0 0.000000000000000 74.000000000000000
0

0101000
+19 0 -29 0 *
Wi

0101100
-37 4 +17 0 +11 0 -28 0 *
Fa
0  0.000000100000000 18 0

0101000
+10 0 *
Ed
 0.001000000000000 1 1 0
2  12 20 0 0.000000000000000 28.600000000000001
1  25 0 0.000000000000000 28.600000000000001
2  65 11 0 0.000000000000000 28.600000000000001
2  66 21 0 0.000000000000000 28.600000000000001
0

0101000
+34 0 -29 0 *
Wi

0101100
+8 0 -24 0 -33 0 +27 0 *
Fa
0  0.000000100000004 20 0

0101000
+7 0 *
Wi

0101100
+18 0 -8 0 -14 0 +11 0 *
Fa
0  0.001000000000000 21 0

0101000
+5 0 *
Sh

0101100
+62 0 +57 0 +50 0 +45 0 +40 0 +35 0 +30 0 +25 0 -22 0 +15 0 
+12 0 +9 0 -6 0 -4 0 *
So

0100000
+3 0 *
Co

1100000
+2 0 *

+1 1 