
CASCADE Topology V1, (c) Matra-Datavision
Locations 73
1
1.000000000000000 0.000000000000000 0.000000000000000 0.000000000000000 
0.000000000000000 1.000000000000000 0.000000000000000 0.000000000000000 
0.000000000000000 0.000000000000000 1.000000000000000 0.000000000000000 
1
1.000000000000000 0.000000000000000 0.000000000000000 0.000000000000000 
0.000000000000000 1.000000000000000 0.000000000000000 0.000000000000000 
0.000000000000000 0.000000000000000 1.000000000000000 0.000000000000000 
1
1.000000000000000 0.000000000000000 0.000000000000000 0.000000000000000 
0.000000000000000 1.000000000000000 0.000000000000000 0.000000000000000 
0.000000000000000 0.000000000000000 1.000000000000000 0.000000000000000 
2  1 1 2 1 3 -1 0
1
1.000000000000000 0.000000000000000 0.000000000000000 -0.000000000000000 
0.000000000000000 1.000000000000000 0.000000000000000 -0.000000000000000 
0.000000000000000 0.000000000000000 1.000000000000000 -5.000000000000000 
2  1 1 2 1 3 -1 5 1 0
1
1.000000000000000 0.000000000000000 0.000000000000000 0.000000000000000 
0.000000000000000 1.000000000000000 0.000000000000000 0.000000000000000 
0.000000000000000 0.000000000000000 1.000000000000000 0.000000000000000 
1
1.000000000000000 0.000000000000000 0.000000000000000 0.000000000000000 
0.000000000000000 1.000000000000000 0.000000000000000 0.000000000000000 
0.000000000000000 0.000000000000000 1.000000000000000 0.000000000000000 
1
1.000000000000000 0.000000000000000 0.000000000000000 0.000000000000000 
0.000000000000000 1.000000000000000 0.000000000000000 0.000000000000000 
0.000000000000000 0.000000000000000 1.000000000000000 0.000000000000000 
2  7 1 8 -1 9 -1 0
1
1.000000000000000 0.000000000000000 0.000000000000000 -0.000000000000000 
0.000000000000000 1.000000000000000 0.000000000000000 -0.000000000000000 
0.000000000000000 0.000000000000000 1.000000000000000 -5.000000000000000 
2  11 -1 7 1 8 -1 9 -1 0
2  8 -1 9 -1 0
1
1.000000000000000 0.000000000000000 0.000000000000000 0.000000000000000 
0.000000000000000 1.000000000000000 0.000000000000000 0.000000000000000 
0.000000000000000 0.000000000000000 1.000000000000000 0.000000000000000 
1
1.000000000000000 0.000000000000000 0.000000000000000 0.000000000000000 
0.000000000000000 1.000000000000000 0.000000000000000 0.000000000000000 
0.000000000000000 0.000000000000000 1.000000000000000 0.000000000000000 
1
1.000000000000000 0.000000000000000 0.000000000000000 0.000000000000000 
0.000000000000000 1.000000000000000 0.000000000000000 0.000000000000000 
0.000000000000000 0.000000000000000 1.000000000000000 0.000000000000000 
1
1.000000000000000 0.000000000000000 0.000000000000000 0.000000000000000 
0.000000000000000 1.000000000000000 0.000000000000000 0.000000000000000 
0.000000000000000 0.000000000000000 1.000000000000000 0.000000000000000 
1
1.000000000000000 0.000000000000000 0.000000000000000 0.000000000000000 
0.000000000000000 1.000000000000000 0.000000000000000 0.000000000000000 
0.000000000000000 0.000000000000000 1.000000000000000 0.000000000000000 
1
1.000000000000000 0.000000000000000 0.000000000000000 0.000000000000000 
0.000000000000000 1.000000000000000 0.000000000000000 0.000000000000000 
0.000000000000000 0.000000000000000 1.000000000000000 0.000000000000000 
1
1.000000000000000 0.000000000000000 0.000000000000000 0.000000000000000 
0.000000000000000 1.000000000000000 0.000000000000000 0.000000000000000 
0.000000000000000 0.000000000000000 1.000000000000000 0.000000000000000 
2  14 1 15 -1 16 1 17 1 18 -1 19 1 20 1 8 -1 9 -1 0
1
1.000000000000000 0.000000000000000 0.000000000000000 0.000000000000000 
0.000000000000000 1.000000000000000 0.000000000000000 0.000000000000000 
0.000000000000000 0.000000000000000 1.000000000000000 0.000000000000000 
1
1.000000000000000 0.000000000000000 0.000000000000000 0.000000000000000 
0.000000000000000 1.000000000000000 0.000000000000000 0.000000000000000 
0.000000000000000 0.000000000000000 1.000000000000000 0.000000000000000 
2  22 1 23 -1 9 -1 0
1
1.000000000000000 0.000000000000000 0.000000000000000 -0.000000000000000 
0.000000000000000 1.000000000000000 0.000000000000000 -0.000000000000000 
0.000000000000000 0.000000000000000 1.000000000000000 -5.000000000000000 
2  25 -1 22 1 23 -1 9 -1 0
2  23 -1 9 -1 0
2  14 1 15 -1 16 1 17 1 18 -1 19 1 20 1 23 -1 9 -1 0
1
1.000000000000000 0.000000000000000 0.000000000000000 0.000000000000000 
0.000000000000000 1.000000000000000 0.000000000000000 0.000000000000000 
0.000000000000000 0.000000000000000 1.000000000000000 0.000000000000000 
1
1.000000000000000 0.000000000000000 0.000000000000000 0.000000000000000 
0.000000000000000 1.000000000000000 0.000000000000000 0.000000000000000 
0.000000000000000 0.000000000000000 1.000000000000000 0.000000000000000 
2  29 1 30 -1 9 -1 0
1
1.000000000000000 0.000000000000000 0.000000000000000 -0.000000000000000 
0.000000000000000 1.000000000000000 0.000000000000000 -0.000000000000000 
0.000000000000000 0.000000000000000 1.000000000000000 -5.000000000000000 
2  32 -1 29 1 30 -1 9 -1 0
2  30 -1 9 -1 0
2  14 1 15 -1 16 1 17 1 18 -1 19 1 20 1 30 -1 9 -1 0
1
1.000000000000000 0.000000000000000 0.000000000000000 0.000000000000000 
0.000000000000000 1.000000000000000 0.000000000000000 0.000000000000000 
0.000000000000000 0.000000000000000 1.000000000000000 0.000000000000000 
1
1.000000000000000 0.000000000000000 0.000000000000000 0.000000000000000 
0.000000000000000 1.000000000000000 0.000000000000000 0.000000000000000 
0.000000000000000 0.000000000000000 1.000000000000000 0.000000000000000 
2  36 1 37 -1 9 -1 0
1
1.000000000000000 0.000000000000000 0.000000000000000 -0.000000000000000 
0.000000000000000 1.000000000000000 0.000000000000000 -0.000000000000000 
0.000000000000000 0.000000000000000 1.000000000000000 -5.000000000000000 
2  39 -1 36 1 37 -1 9 -1 0
2  37 -1 9 -1 0
1
1.000000000000000 0.000000000000000 0.000000000000000 0.000000000000000 
0.000000000000000 1.000000000000000 0.000000000000000 0.000000000000000 
0.000000000000000 0.000000000000000 1.000000000000000 0.000000000000000 
1
1.000000000000000 0.000000000000000 0.000000000000000 0.000000000000000 
0.000000000000000 1.000000000000000 0.000000000000000 0.000000000000000 
0.000000000000000 0.000000000000000 1.000000000000000 0.000000000000000 
2  14 1 15 -1 16 1 17 1 18 -1 42 1 43 1 37 -1 9 -1 0
1
1.000000000000000 0.000000000000000 0.000000000000000 0.000000000000000 
0.000000000000000 1.000000000000000 0.000000000000000 0.000000000000000 
0.000000000000000 0.000000000000000 1.000000000000000 0.000000000000000 
1
1.000000000000000 0.000000000000000 0.000000000000000 0.000000000000000 
0.000000000000000 1.000000000000000 0.000000000000000 0.000000000000000 
0.000000000000000 0.000000000000000 1.000000000000000 0.000000000000000 
1
1.000000000000000 0.000000000000000 0.000000000000000 0.000000000000000 
0.000000000000000 1.000000000000000 0.000000000000000 0.000000000000000 
0.000000000000000 0.000000000000000 1.000000000000000 0.000000000000000 
2  45 1 46 -1 47 -1 0
1
1.000000000000000 0.000000000000000 0.000000000000000 -0.000000000000000 
0.000000000000000 1.000000000000000 0.000000000000000 -0.000000000000000 
0.000000000000000 0.000000000000000 1.000000000000000 -5.000000000000000 
2  49 -1 45 1 46 -1 47 -1 0
2  46 -1 47 -1 0
1
1.000000000000000 0.000000000000000 0.000000000000000 0.000000000000000 
0.000000000000000 1.000000000000000 0.000000000000000 0.000000000000000 
0.000000000000000 0.000000000000000 1.000000000000000 0.000000000000000 
1
1.000000000000000 0.000000000000000 0.000000000000000 0.000000000000000 
0.000000000000000 1.000000000000000 0.000000000000000 0.000000000000000 
0.000000000000000 0.000000000000000 1.000000000000000 0.000000000000000 
1
1.000000000000000 0.000000000000000 0.000000000000000 0.000000000000000 
0.000000000000000 1.000000000000000 0.000000000000000 0.000000000000000 
0.000000000000000 0.000000000000000 1.000000000000000 0.000000000000000 
1
1.000000000000000 0.000000000000000 0.000000000000000 0.000000000000000 
0.000000000000000 1.000000000000000 0.000000000000000 0.000000000000000 
0.000000000000000 0.000000000000000 1.000000000000000 0.000000000000000 
1
1.000000000000000 0.000000000000000 0.000000000000000 0.000000000000000 
0.000000000000000 1.000000000000000 0.000000000000000 0.000000000000000 
0.000000000000000 0.000000000000000 1.000000000000000 0.000000000000000 
1
1.000000000000000 0.000000000000000 0.000000000000000 0.000000000000000 
0.000000000000000 1.000000000000000 0.000000000000000 0.000000000000000 
0.000000000000000 0.000000000000000 1.000000000000000 0.000000000000000 
1
1.000000000000000 0.000000000000000 0.000000000000000 0.000000000000000 
0.000000000000000 1.000000000000000 0.000000000000000 0.000000000000000 
0.000000000000000 0.000000000000000 1.000000000000000 0.000000000000000 
2  52 1 53 -1 54 1 55 1 56 -1 57 1 58 1 46 -1 47 -1 0
2  3 1 2 -1 1 -1 0
2  5 -1 3 1 2 -1 1 -1 0
2  2 -1 1 -1 0
1
1.000000000000000 0.000000000000000 0.000000000000000 0.000000000000000 
0.000000000000000 1.000000000000000 0.000000000000000 0.000000000000000 
0.000000000000000 0.000000000000000 1.000000000000000 0.000000000000000 
1
1.000000000000000 0.000000000000000 0.000000000000000 0.000000000000000 
0.000000000000000 1.000000000000000 0.000000000000000 0.000000000000000 
0.000000000000000 0.000000000000000 1.000000000000000 0.000000000000000 
1
1.000000000000000 0.000000000000000 0.000000000000000 0.000000000000000 
0.000000000000000 1.000000000000000 0.000000000000000 0.000000000000000 
0.000000000000000 0.000000000000000 1.000000000000000 0.000000000000000 
1
1.000000000000000 0.000000000000000 0.000000000000000 0.000000000000000 
0.000000000000000 1.000000000000000 0.000000000000000 0.000000000000000 
0.000000000000000 0.000000000000000 1.000000000000000 0.000000000000000 
1
1.000000000000000 0.000000000000000 0.000000000000000 0.000000000000000 
0.000000000000000 1.000000000000000 0.000000000000000 0.000000000000000 
0.000000000000000 0.000000000000000 1.000000000000000 0.000000000000000 
1
1.000000000000000 0.000000000000000 0.000000000000000 0.000000000000000 
0.000000000000000 1.000000000000000 0.000000000000000 0.000000000000000 
0.000000000000000 0.000000000000000 1.000000000000000 0.000000000000000 
1
1.000000000000000 0.000000000000000 0.000000000000000 0.000000000000000 
0.000000000000000 1.000000000000000 0.000000000000000 0.000000000000000 
0.000000000000000 0.000000000000000 1.000000000000000 0.000000000000000 
2  63 1 64 -1 65 1 66 1 67 -1 68 1 69 1 2 -1 1 -1 0
2  3 -1 0
2  1 1 2 1 0
2  3 -1 5 1 0
Curve2ds 104
1 0.00000000000000000 0.00000000000000000 0.00000000000000000 -1.00000000000000000 
1 7.99999999999999822 0.00000000000000000 0.00000000000000000 -1.00000000000000000 
1 5.00000000000000000 0.00000000000000000 0.00000000000000000 -1.00000000000000000 
1 0.00000000000000000 0.00000000000000000 0.00000000000000000 -1.00000000000000000 
1 0.00000000000000000 0.00000000000000000 1.00000000000000000 0.00000000000000000 
1 0.00000000000000000 -5.00000000000000000 1.00000000000000000 0.00000000000000000 
1 -3.99999999999999911 -2.49999999999977263 0.00000000000000000 1.00000000000000000 
1 11.84999999999992504 -22.49999999999977263 0.00000000000000000 1.00000000000000000 
1 0.00000000000000000 0.00000000000000000 1.00000000000000000 0.00000000000000000 
1 0.00000000000000000 -5.00000000000000000 1.00000000000000000 0.00000000000000000 
1 -3.99999999999999911 -2.49999999999977263 0.00000000000000000 1.00000000000000000 
1 11.84999999999992504 -22.49999999999977263 0.00000000000000000 1.00000000000000000 
1 0.00000000000000000 0.00000000000000000 1.00000000000000000 0.00000000000000000 
1 0.00000000000000000 -5.00000000000000000 1.00000000000000000 0.00000000000000000 
1 -3.99999999999999911 -2.49999999999977263 0.00000000000000000 1.00000000000000000 
1 11.84999999999992504 -22.49999999999977263 0.00000000000000000 1.00000000000000000 
1 0.00000000000000000 0.00000000000000000 1.00000000000000000 0.00000000000000000 
1 0.00000000000000000 -5.00000000000000000 1.00000000000000000 0.00000000000000000 
1 -3.99999999999999911 -2.49999999999977263 0.00000000000000000 1.00000000000000000 
1 11.84999999999992504 -22.49999999999977263 0.00000000000000000 1.00000000000000000 
1 0.00000000000000000 0.00000000000000000 1.00000000000000000 0.00000000000000000 
1 0.00000000000000000 -5.00000000000000000 1.00000000000000000 0.00000000000000000 
1 -3.99999999999999911 -2.49999999999977263 0.00000000000000000 1.00000000000000000 
1 11.84999999999992504 -22.49999999999977263 0.00000000000000000 1.00000000000000000 
1 0.00000000000000000 0.00000000000000000 1.00000000000000000 0.00000000000000000 
1 0.00000000000000000 -5.00000000000000000 1.00000000000000000 0.00000000000000000 
1 -3.99999999999999911 -2.49999999999977263 0.00000000000000000 1.00000000000000000 
1 11.84999999999992504 -22.49999999999977263 0.00000000000000000 1.00000000000000000 
1 7.99999999999999822 0.00000000000000000 0.00000000000000000 -1.00000000000000000 
1 0.00000000000000000 0.00000000000000000 0.00000000000000000 -1.00000000000000000 
1 0.00000000000000000 0.00000000000000000 1.00000000000000000 0.00000000000000000 
1 0.00000000000000000 -5.00000000000000000 1.00000000000000000 0.00000000000000000 
1 -3.99999999999999911 2.50000000000022737 1.00000000000000000 0.00000000000000000 
1 11.84999999999992504 -17.49999999999977263 1.00000000000000000 0.00000000000000000 
1 0.00000000000000000 0.00000000000000000 1.00000000000000000 0.00000000000000000 
1 0.00000000000000000 -5.00000000000000000 1.00000000000000000 0.00000000000000000 
1 -3.99999999999999911 2.50000000000022737 1.00000000000000000 0.00000000000000000 
1 11.84999999999992504 -17.49999999999977263 1.00000000000000000 0.00000000000000000 
1 0.00000000000000000 0.00000000000000000 1.00000000000000000 0.00000000000000000 
1 0.00000000000000000 -5.00000000000000000 1.00000000000000000 0.00000000000000000 
1 -3.99999999999999911 2.50000000000022737 1.00000000000000000 0.00000000000000000 
1 11.84999999999992504 -17.49999999999977263 1.00000000000000000 0.00000000000000000 
1 0.00000000000000000 0.00000000000000000 1.00000000000000000 0.00000000000000000 
1 0.00000000000000000 -5.00000000000000000 1.00000000000000000 0.00000000000000000 
1 -3.99999999999999911 2.50000000000022737 1.00000000000000000 0.00000000000000000 
1 11.84999999999992504 -17.49999999999977263 1.00000000000000000 0.00000000000000000 
1 0.00000000000000000 0.00000000000000000 1.00000000000000000 0.00000000000000000 
1 0.00000000000000000 -5.00000000000000000 1.00000000000000000 0.00000000000000000 
1 -3.99999999999999911 2.50000000000022737 1.00000000000000000 0.00000000000000000 
1 11.84999999999992504 -17.49999999999977263 1.00000000000000000 0.00000000000000000 
1 0.00000000000000000 0.00000000000000000 1.00000000000000000 0.00000000000000000 
1 0.00000000000000000 -5.00000000000000000 1.00000000000000000 0.00000000000000000 
1 -3.99999999999999911 2.50000000000022737 1.00000000000000000 0.00000000000000000 
1 11.84999999999992504 -17.49999999999977263 1.00000000000000000 0.00000000000000000 
1 5.00000000000000000 0.00000000000000000 0.00000000000000000 -1.00000000000000000 
1 0.00000000000000000 0.00000000000000000 0.00000000000000000 -1.00000000000000000 
1 0.00000000000000000 0.00000000000000000 1.00000000000000000 0.00000000000000000 
1 0.00000000000000000 -5.00000000000000000 1.00000000000000000 0.00000000000000000 
1 3.99999999999999911 2.50000000000022737 0.00000000000000000 -1.00000000000000000 
1 19.84999999999992326 -17.49999999999977263 0.00000000000000000 -1.00000000000000000 
1 0.00000000000000000 0.00000000000000000 1.00000000000000000 0.00000000000000000 
1 0.00000000000000000 -5.00000000000000000 1.00000000000000000 0.00000000000000000 
1 3.99999999999999911 2.50000000000022737 0.00000000000000000 -1.00000000000000000 
1 19.84999999999992326 -17.49999999999977263 0.00000000000000000 -1.00000000000000000 
1 0.00000000000000000 0.00000000000000000 1.00000000000000000 0.00000000000000000 
1 0.00000000000000000 -5.00000000000000000 1.00000000000000000 0.00000000000000000 
1 3.99999999999999911 2.50000000000022737 0.00000000000000000 -1.00000000000000000 
1 19.84999999999992326 -17.49999999999977263 0.00000000000000000 -1.00000000000000000 
1 0.00000000000000000 0.00000000000000000 1.00000000000000000 0.00000000000000000 
1 0.00000000000000000 -5.00000000000000000 1.00000000000000000 0.00000000000000000 
1 3.99999999999999911 2.50000000000022737 0.00000000000000000 -1.00000000000000000 
1 19.84999999999992326 -17.49999999999977263 0.00000000000000000 -1.00000000000000000 
1 0.00000000000000000 0.00000000000000000 1.00000000000000000 0.00000000000000000 
1 0.00000000000000000 -5.00000000000000000 1.00000000000000000 0.00000000000000000 
1 3.99999999999999911 2.50000000000022737 0.00000000000000000 -1.00000000000000000 
1 19.84999999999992326 -17.49999999999977263 0.00000000000000000 -1.00000000000000000 
1 0.00000000000000000 0.00000000000000000 1.00000000000000000 0.00000000000000000 
1 0.00000000000000000 -5.00000000000000000 1.00000000000000000 0.00000000000000000 
1 3.99999999999999911 2.50000000000022737 0.00000000000000000 -1.00000000000000000 
1 19.84999999999992326 -17.49999999999977263 0.00000000000000000 -1.00000000000000000 
1 0.00000000000000000 0.00000000000000000 1.00000000000000000 0.00000000000000000 
1 0.00000000000000000 -5.00000000000000000 1.00000000000000000 0.00000000000000000 
1 3.99999999999999911 -2.49999999999977263 -1.00000000000000000 0.00000000000000000 
1 19.84999999999992326 -22.49999999999977263 -1.00000000000000000 0.00000000000000000 
1 0.00000000000000000 0.00000000000000000 1.00000000000000000 0.00000000000000000 
1 0.00000000000000000 -5.00000000000000000 1.00000000000000000 0.00000000000000000 
1 3.99999999999999911 -2.49999999999977263 -1.00000000000000000 0.00000000000000000 
1 19.84999999999992326 -22.49999999999977263 -1.00000000000000000 0.00000000000000000 
1 0.00000000000000000 0.00000000000000000 1.00000000000000000 0.00000000000000000 
1 0.00000000000000000 -5.00000000000000000 1.00000000000000000 0.00000000000000000 
1 3.99999999999999911 -2.49999999999977263 -1.00000000000000000 0.00000000000000000 
1 19.84999999999992326 -22.49999999999977263 -1.00000000000000000 0.00000000000000000 
1 0.00000000000000000 0.00000000000000000 1.00000000000000000 0.00000000000000000 
1 0.00000000000000000 -5.00000000000000000 1.00000000000000000 0.00000000000000000 
1 3.99999999999999911 -2.49999999999977263 -1.00000000000000000 0.00000000000000000 
1 19.84999999999992326 -22.49999999999977263 -1.00000000000000000 0.00000000000000000 
1 0.00000000000000000 0.00000000000000000 1.00000000000000000 0.00000000000000000 
1 0.00000000000000000 -5.00000000000000000 1.00000000000000000 0.00000000000000000 
1 3.99999999999999911 -2.49999999999977263 -1.00000000000000000 0.00000000000000000 
1 19.84999999999992326 -22.49999999999977263 -1.00000000000000000 0.00000000000000000 
1 0.00000000000000000 0.00000000000000000 1.00000000000000000 0.00000000000000000 
1 0.00000000000000000 -5.00000000000000000 1.00000000000000000 0.00000000000000000 
1 3.99999999999999911 -2.49999999999977263 -1.00000000000000000 0.00000000000000000 
1 19.84999999999992326 -22.49999999999977263 -1.00000000000000000 0.00000000000000000 
Curves 8
1 -4.00000000000007638 1037.50000000000022737 0.00000000000000000 -0.00000000000000000 -0.00000000000000000 -1.00000000000000000 
1 -4.00000000000007638 1042.50000000000022737 0.00000000000000000 -0.00000000000000000 -0.00000000000000000 -1.00000000000000000 
1 -4.00000000000007638 1037.50000000000022737 0.00000000000000000 0.00000000000000000 1.00000000000000000 0.00000000000000000 
1 3.99999999999992184 1042.50000000000022737 0.00000000000000000 -0.00000000000000000 -0.00000000000000000 -1.00000000000000000 
1 -4.00000000000007638 1042.50000000000022737 0.00000000000000000 1.00000000000000000 0.00000000000000000 0.00000000000000000 
1 3.99999999999992184 1037.50000000000022737 0.00000000000000000 -0.00000000000000000 -0.00000000000000000 -1.00000000000000000 
1 3.99999999999992184 1042.50000000000022737 0.00000000000000000 0.00000000000000000 -1.00000000000000000 0.00000000000000000 
1 3.99999999999992184 1037.50000000000022737 0.00000000000000000 -1.00000000000000000 0.00000000000000000 0.00000000000000000 
Polygon3D 0
PolygonOnTriangulations 0
Surfaces 33
1 -4.00000000000007638 1037.50000000000022737 0.00000000000000000 1.00000000000000000 0.00000000000000000 0.00000000000000000 -0.00000000000000000 1.00000000000000000 0.00000000000000000 0.00000000000000000 -0.00000000000000000 1.00000000000000000 
1 3.99999999999992184 1037.50000000000022737 0.00000000000000000 0.00000000000000000 1.00000000000000000 -0.00000000000000000 -1.00000000000000000 0.00000000000000000 0.00000000000000000 0.00000000000000000 0.00000000000000000 1.00000000000000000 
1 -4.00000000000007638 1042.50000000000022737 0.00000000000000000 0.00000000000000000 -1.00000000000000000 0.00000000000000000 1.00000000000000000 0.00000000000000000 0.00000000000000000 -0.00000000000000000 0.00000000000000000 1.00000000000000000 
1 -4.00000000000007638 1037.50000000000022737 0.00000000000000000 1.00000000000000000 0.00000000000000000 0.00000000000000000 -0.00000000000000000 1.00000000000000000 0.00000000000000000 0.00000000000000000 -0.00000000000000000 1.00000000000000000 
1 -0.00000000000007720 1040.00000000000000000 0.00000000000000000 0.00000000000000000 0.00000000000000000 1.00000000000000000 1.00000000000000000 0.00000000000000000 -0.00000000000000000 -0.00000000000000000 1.00000000000000000 0.00000000000000000 
1 -15.85000000000000142 1060.00000000000000000 0.00000000000023537 0.00000000000000000 -0.00000000000000022 1.00000000000000000 1.00000000000000000 0.00000000000000000 0.00000000000000000 -0.00000000000000000 1.00000000000000000 0.00000000000000022 
1 -4.00000000000007638 1037.50000000000022737 0.00000000000000000 1.00000000000000000 0.00000000000000000 0.00000000000000000 -0.00000000000000000 1.00000000000000000 0.00000000000000000 0.00000000000000000 -0.00000000000000000 1.00000000000000000 
1 -0.00000000000007720 1040.00000000000000000 0.00000000000000000 0.00000000000000000 0.00000000000000000 1.00000000000000000 1.00000000000000000 0.00000000000000000 -0.00000000000000000 -0.00000000000000000 1.00000000000000000 0.00000000000000000 
1 -4.00000000000007638 1037.50000000000022737 0.00000000000000000 1.00000000000000000 0.00000000000000000 0.00000000000000000 -0.00000000000000000 1.00000000000000000 0.00000000000000000 0.00000000000000000 -0.00000000000000000 1.00000000000000000 
1 -0.00000000000007720 1040.00000000000000000 0.00000000000000000 0.00000000000000000 0.00000000000000000 1.00000000000000000 1.00000000000000000 0.00000000000000000 -0.00000000000000000 -0.00000000000000000 1.00000000000000000 0.00000000000000000 
1 -4.00000000000007638 1037.50000000000022737 0.00000000000000000 1.00000000000000000 0.00000000000000000 0.00000000000000000 -0.00000000000000000 1.00000000000000000 0.00000000000000000 0.00000000000000000 -0.00000000000000000 1.00000000000000000 
1 -0.00000000000007720 1040.00000000000000000 0.00000000000000000 0.00000000000000000 0.00000000000000000 1.00000000000000000 1.00000000000000000 0.00000000000000000 -0.00000000000000000 -0.00000000000000000 1.00000000000000000 0.00000000000000000 
1 -4.00000000000007638 1037.50000000000022737 0.00000000000000000 1.00000000000000000 0.00000000000000000 0.00000000000000000 -0.00000000000000000 1.00000000000000000 0.00000000000000000 0.00000000000000000 -0.00000000000000000 1.00000000000000000 
1 -0.00000000000007720 1040.00000000000000000 0.00000000000000000 0.00000000000000000 0.00000000000000000 1.00000000000000000 1.00000000000000000 0.00000000000000000 -0.00000000000000000 -0.00000000000000000 1.00000000000000000 0.00000000000000000 
1 -15.85000000000000142 1060.00000000000000000 0.00000000000023537 0.00000000000000000 -0.00000000000000022 1.00000000000000000 1.00000000000000000 0.00000000000000000 0.00000000000000000 -0.00000000000000000 1.00000000000000000 0.00000000000000022 
1 -0.00000000000007720 1040.00000000000000000 0.00000000000000000 0.00000000000000000 0.00000000000000000 1.00000000000000000 1.00000000000000000 0.00000000000000000 -0.00000000000000000 -0.00000000000000000 1.00000000000000000 0.00000000000000000 
1 -15.85000000000000142 1060.00000000000000000 0.00000000000023537 0.00000000000000000 -0.00000000000000022 1.00000000000000000 1.00000000000000000 0.00000000000000000 0.00000000000000000 -0.00000000000000000 1.00000000000000000 0.00000000000000022 
1 3.99999999999992184 1042.50000000000022737 0.00000000000000000 -1.00000000000000000 0.00000000000000000 0.00000000000000000 0.00000000000000000 -1.00000000000000000 0.00000000000000000 0.00000000000000000 0.00000000000000000 1.00000000000000000 
1 -4.00000000000007638 1042.50000000000022737 0.00000000000000000 0.00000000000000000 -1.00000000000000000 0.00000000000000000 1.00000000000000000 0.00000000000000000 0.00000000000000000 -0.00000000000000000 0.00000000000000000 1.00000000000000000 
1 -4.00000000000007638 1042.50000000000022737 0.00000000000000000 0.00000000000000000 -1.00000000000000000 0.00000000000000000 1.00000000000000000 0.00000000000000000 0.00000000000000000 -0.00000000000000000 0.00000000000000000 1.00000000000000000 
1 -4.00000000000007638 1042.50000000000022737 0.00000000000000000 0.00000000000000000 -1.00000000000000000 0.00000000000000000 1.00000000000000000 0.00000000000000000 0.00000000000000000 -0.00000000000000000 0.00000000000000000 1.00000000000000000 
1 -4.00000000000007638 1042.50000000000022737 0.00000000000000000 0.00000000000000000 -1.00000000000000000 0.00000000000000000 1.00000000000000000 0.00000000000000000 0.00000000000000000 -0.00000000000000000 0.00000000000000000 1.00000000000000000 
1 -4.00000000000007638 1042.50000000000022737 0.00000000000000000 0.00000000000000000 -1.00000000000000000 0.00000000000000000 1.00000000000000000 0.00000000000000000 0.00000000000000000 -0.00000000000000000 0.00000000000000000 1.00000000000000000 
1 3.99999999999992184 1042.50000000000022737 0.00000000000000000 -1.00000000000000000 0.00000000000000000 0.00000000000000000 0.00000000000000000 -1.00000000000000000 0.00000000000000000 0.00000000000000000 0.00000000000000000 1.00000000000000000 
1 3.99999999999992184 1042.50000000000022737 0.00000000000000000 -1.00000000000000000 0.00000000000000000 0.00000000000000000 0.00000000000000000 -1.00000000000000000 0.00000000000000000 0.00000000000000000 0.00000000000000000 1.00000000000000000 
1 3.99999999999992184 1042.50000000000022737 0.00000000000000000 -1.00000000000000000 0.00000000000000000 0.00000000000000000 0.00000000000000000 -1.00000000000000000 0.00000000000000000 0.00000000000000000 0.00000000000000000 1.00000000000000000 
1 3.99999999999992184 1042.50000000000022737 0.00000000000000000 -1.00000000000000000 0.00000000000000000 0.00000000000000000 0.00000000000000000 -1.00000000000000000 0.00000000000000000 0.00000000000000000 0.00000000000000000 1.00000000000000000 
1 3.99999999999992184 1042.50000000000022737 0.00000000000000000 -1.00000000000000000 0.00000000000000000 0.00000000000000000 0.00000000000000000 -1.00000000000000000 0.00000000000000000 0.00000000000000000 0.00000000000000000 1.00000000000000000 
1 3.99999999999992184 1037.50000000000022737 0.00000000000000000 0.00000000000000000 1.00000000000000000 -0.00000000000000000 -1.00000000000000000 0.00000000000000000 0.00000000000000000 0.00000000000000000 0.00000000000000000 1.00000000000000000 
1 3.99999999999992184 1037.50000000000022737 0.00000000000000000 0.00000000000000000 1.00000000000000000 -0.00000000000000000 -1.00000000000000000 0.00000000000000000 0.00000000000000000 0.00000000000000000 0.00000000000000000 1.00000000000000000 
1 3.99999999999992184 1037.50000000000022737 0.00000000000000000 0.00000000000000000 1.00000000000000000 -0.00000000000000000 -1.00000000000000000 0.00000000000000000 0.00000000000000000 0.00000000000000000 0.00000000000000000 1.00000000000000000 
1 3.99999999999992184 1037.50000000000022737 0.00000000000000000 0.00000000000000000 1.00000000000000000 -0.00000000000000000 -1.00000000000000000 0.00000000000000000 0.00000000000000000 0.00000000000000000 0.00000000000000000 1.00000000000000000 
1 3.99999999999992184 1037.50000000000022737 0.00000000000000000 0.00000000000000000 1.00000000000000000 -0.00000000000000000 -1.00000000000000000 0.00000000000000000 0.00000000000000000 0.00000000000000000 0.00000000000000000 1.00000000000000000 
Triangulations 0

TShapes 24
Ve
0.001000000000232
-4.000000000000076 1037.500000000000227 0.000000000000000
0 0

0101101
*
Ed
 0.001000000000232 1 1 0
1  1 0 0.000000000000000 5.000000000000000
2  1 1 0 0.000000000000000 5.000000000000000
2  2 2 0 0.000000000000000 5.000000000000000
0

0101000
+24 4 -24 6 *
Ve
0.001000000000232
-4.000000000000076 1042.500000000000227 0.000000000000000
0 0

0101101
*
Ed
 0.001000000000232 1 1 0
1  2 0 0.000000000000000 5.000000000000000
2  3 1 0 0.000000000000000 5.000000000000000
2  4 3 0 0.000000000000000 5.000000000000000
0

0101000
+22 4 -22 6 *
Ed
 0.001000000000232 1 1 0
1  3 0 0.000000000000000 5.000000000000000
2  5 4 10 0.000000000000000 5.000000000000000
2  6 4 12 0.000000000000000 5.000000000000000
2  7 5 13 0.000000000000000 5.000000000000000
2  8 6 21 0.000000000000000 5.000000000000000
2  9 7 24 0.000000000000000 5.000000000000000
2  10 7 26 0.000000000000000 5.000000000000000
2  11 8 27 0.000000000000000 5.000000000000000
2  12 6 28 0.000000000000000 5.000000000000000
2  13 9 31 0.000000000000000 5.000000000000000
2  14 9 33 0.000000000000000 5.000000000000000
2  15 10 34 0.000000000000000 5.000000000000000
2  16 6 35 0.000000000000000 5.000000000000000
2  17 11 38 0.000000000000000 5.000000000000000
2  18 11 40 0.000000000000000 5.000000000000000
2  19 12 41 0.000000000000000 5.000000000000000
2  20 6 44 0.000000000000000 5.000000000000000
2  21 13 48 0.000000000000000 5.000000000000000
2  22 13 50 0.000000000000000 5.000000000000000
2  23 14 51 0.000000000000000 5.000000000000000
2  24 15 59 0.000000000000000 5.000000000000000
2  25 1 60 0.000000000000000 5.000000000000000
2  26 1 61 0.000000000000000 5.000000000000000
2  27 16 62 0.000000000000000 5.000000000000000
2  28 17 70 0.000000000000000 5.000000000000000
0

0101000
+24 0 -22 0 *
Wi

0101100
+23 0 -21 0 -20 4 +20 6 *
Fa
0  0.001000000000232 1 0

0111000
+19 0 *
Ve
0.001000000000232
3.999999999999922 1042.500000000000227 0.000000000000000
0 0

0101101
*
Ed
 0.001000000000232 1 1 0
1  4 0 0.000000000000000 5.000000000000000
2  29 3 0 0.000000000000000 5.000000000000000
2  30 18 0 0.000000000000000 5.000000000000000
0

0101000
+17 4 -17 6 *
Ed
 0.001000000000232 1 1 0
1  5 0 0.000000000000000 7.999999999999998
2  31 19 10 0.000000000000000 7.999999999999998
2  32 19 12 0.000000000000000 7.999999999999998
2  33 5 13 0.000000000000000 7.999999999999998
2  34 6 21 0.000000000000000 7.999999999999998
2  35 20 24 0.000000000000000 7.999999999999998
2  36 20 26 0.000000000000000 7.999999999999998
2  37 8 27 0.000000000000000 7.999999999999998
2  38 6 28 0.000000000000000 7.999999999999998
2  39 21 31 0.000000000000000 7.999999999999998
2  40 21 33 0.000000000000000 7.999999999999998
2  41 10 34 0.000000000000000 7.999999999999998
2  42 6 35 0.000000000000000 7.999999999999998
2  43 22 38 0.000000000000000 7.999999999999998
2  44 22 40 0.000000000000000 7.999999999999998
2  45 12 41 0.000000000000000 7.999999999999998
2  46 6 44 0.000000000000000 7.999999999999998
2  47 23 48 0.000000000000000 7.999999999999998
2  48 23 50 0.000000000000000 7.999999999999998
2  49 14 51 0.000000000000000 7.999999999999998
2  50 15 59 0.000000000000000 7.999999999999998
2  51 3 60 0.000000000000000 7.999999999999998
2  52 3 61 0.000000000000000 7.999999999999998
2  53 16 62 0.000000000000000 7.999999999999998
2  54 17 70 0.000000000000000 7.999999999999998
0

0101000
+22 0 -17 0 *
Wi

0101100
+21 0 -16 0 -15 4 +15 6 *
Fa
0  0.001000000000232 3 0

0111000
+14 0 *
Ve
0.001000000000232
3.999999999999922 1037.500000000000227 0.000000000000000
0 0

0101101
*
Ed
 0.001000000000232 1 1 0
1  6 0 0.000000000000000 5.000000000000000
2  55 18 0 0.000000000000000 5.000000000000000
2  56 2 0 0.000000000000000 5.000000000000000
0

0101000
+12 4 -12 6 *
Ed
 0.001000000000232 1 1 0
1  7 0 0.000000000000000 5.000000000000000
2  57 24 10 0.000000000000000 5.000000000000000
2  58 24 12 0.000000000000000 5.000000000000000
2  59 5 13 0.000000000000000 5.000000000000000
2  60 6 21 0.000000000000000 5.000000000000000
2  61 25 24 0.000000000000000 5.000000000000000
2  62 25 26 0.000000000000000 5.000000000000000
2  63 8 27 0.000000000000000 5.000000000000000
2  64 6 28 0.000000000000000 5.000000000000000
2  65 26 31 0.000000000000000 5.000000000000000
2  66 26 33 0.000000000000000 5.000000000000000
2  67 10 34 0.000000000000000 5.000000000000000
2  68 6 35 0.000000000000000 5.000000000000000
2  69 27 38 0.000000000000000 5.000000000000000
2  70 27 40 0.000000000000000 5.000000000000000
2  71 12 41 0.000000000000000 5.000000000000000
2  72 6 44 0.000000000000000 5.000000000000000
2  73 28 48 0.000000000000000 5.000000000000000
2  74 28 50 0.000000000000000 5.000000000000000
2  75 14 51 0.000000000000000 5.000000000000000
2  76 15 59 0.000000000000000 5.000000000000000
2  77 18 60 0.000000000000000 5.000000000000000
2  78 18 61 0.000000000000000 5.000000000000000
2  79 16 62 0.000000000000000 5.000000000000000
2  80 17 70 0.000000000000000 5.000000000000000
0

0101000
+17 0 -12 0 *
Wi

0101100
+16 0 -11 0 -10 4 +10 6 *
Fa
0  0.001000000000232 18 0

0111000
+9 0 *
Ed
 0.001000000000232 1 1 0
1  8 0 0.000000000000000 7.999999999999998
2  81 29 10 0.000000000000000 7.999999999999998
2  82 29 12 0.000000000000000 7.999999999999998
2  83 5 13 0.000000000000000 7.999999999999998
2  84 6 21 0.000000000000000 7.999999999999998
2  85 30 24 0.000000000000000 7.999999999999998
2  86 30 26 0.000000000000000 7.999999999999998
2  87 8 27 0.000000000000000 7.999999999999998
2  88 6 28 0.000000000000000 7.999999999999998
2  89 31 31 0.000000000000000 7.999999999999998
2  90 31 33 0.000000000000000 7.999999999999998
2  91 10 34 0.000000000000000 7.999999999999998
2  92 6 35 0.000000000000000 7.999999999999998
2  93 32 38 0.000000000000000 7.999999999999998
2  94 32 40 0.000000000000000 7.999999999999998
2  95 12 41 0.000000000000000 7.999999999999998
2  96 6 44 0.000000000000000 7.999999999999998
2  97 33 48 0.000000000000000 7.999999999999998
2  98 33 50 0.000000000000000 7.999999999999998
2  99 14 51 0.000000000000000 7.999999999999998
2  100 15 59 0.000000000000000 7.999999999999998
2  101 2 60 0.000000000000000 7.999999999999998
2  102 2 61 0.000000000000000 7.999999999999998
2  103 16 62 0.000000000000000 7.999999999999998
2  104 17 70 0.000000000000000 7.999999999999998
0

0101000
+12 0 -24 0 *
Wi

0101100
+11 0 -23 0 -7 4 +7 6 *
Fa
0  0.001000000000232 2 0

0111000
+6 0 *
Wi

0101100
+20 0 +15 0 +10 0 +7 0 *
Fa
0  0.000000100000000 16 0

0111000
-4 72 *
Sh

0101100
-18 0 -13 0 -8 0 -5 0 +3 71 -3 73 *
So

1100000
+2 0 *

+1 0 