
CASCADE Topology V1, (c) Matra-Datavision
Locations 39
1
1.000000000000000 0.000000000000000 0.000000000000000 0.000000000000000 
0.000000000000000 1.000000000000000 0.000000000000000 0.000000000000000 
0.000000000000000 0.000000000000000 1.000000000000000 0.000000000000000 
1
1.000000000000000 0.000000000000000 0.000000000000000 0.000000000000000 
0.000000000000000 1.000000000000000 0.000000000000000 0.000000000000000 
0.000000000000000 0.000000000000000 1.000000000000000 0.000000000000000 
1
1.000000000000000 0.000000000000000 0.000000000000000 0.000000000000000 
0.000000000000000 1.000000000000000 0.000000000000000 0.000000000000000 
0.000000000000000 0.000000000000000 1.000000000000000 0.000000000000000 
1
1.000000000000000 0.000000000000000 0.000000000000000 736.334638153061405 
0.000000000000000 1.000000000000000 0.000000000000000 -0.000000000000243 
0.000000000000000 0.000000000000000 1.000000000000000 0.000000000000162 
2  1 1 2 1 3 -1 4 1 0
1
1.000000000000000 0.000000000000000 0.000000000000000 -1472.669276306122811 
0.000000000000000 1.000000000000000 0.000000000000000 0.000000000000486 
0.000000000000000 0.000000000000000 1.000000000000000 -0.000000000000324 
2  1 1 2 1 3 -1 4 1 6 1 0
1
0.000000000000000 -0.000000000000000 1.000000000000000 0.000000000000000 
1.000000000000000 0.000000000000000 -0.000000000000000 0.000000000000000 
-0.000000000000000 1.000000000000000 0.000000000000000 0.000000000000000 
1
1.000000000000000 0.000000000000000 0.000000000000000 0.000000000000000 
0.000000000000000 1.000000000000000 0.000000000000000 0.000000000000000 
0.000000000000000 0.000000000000000 1.000000000000000 0.000000000000000 
2  8 1 9 1 1 1 2 1 3 -1 4 1 0
2  9 -1 8 -1 0
2  8 1 9 1 1 1 2 1 3 -1 4 1 6 1 0
1
1.000000000000000 0.000000000000000 0.000000000000000 736.334638153061405 
0.000000000000000 1.000000000000000 0.000000000000000 -0.000000000000245 
0.000000000000000 0.000000000000000 1.000000000000000 0.000000000000163 
1
1.000000000000000 0.000000000000000 0.000000000000000 0.000000000000000 
0.000000000000000 1.000000000000000 0.000000000000000 0.000000000000000 
0.000000000000000 0.000000000000000 1.000000000000000 0.000000000000000 
1
1.000000000000000 0.000000000000000 0.000000000000000 0.000000000000000 
0.000000000000000 1.000000000000000 0.000000000000000 0.000000000000000 
0.000000000000000 0.000000000000000 1.000000000000000 0.000000000000000 
2  13 -1 14 1 15 -1 1 -1 9 -1 8 -1 0
1
1.000000000000000 0.000000000000000 0.000000000000000 -1472.669276306122811 
0.000000000000000 1.000000000000000 0.000000000000000 0.000000000000490 
0.000000000000000 0.000000000000000 1.000000000000000 -0.000000000000327 
2  17 -1 13 -1 14 1 15 -1 1 -1 9 -1 8 -1 0
1
1.000000000000000 0.000000000000000 0.000000000000000 736.334638153061405 
0.000000000000000 1.000000000000000 0.000000000000000 -0.000000000000243 
0.000000000000000 0.000000000000000 1.000000000000000 0.000000000000162 
1
1.000000000000000 0.000000000000000 0.000000000000000 0.000000000000000 
0.000000000000000 1.000000000000000 0.000000000000000 0.000000000000000 
0.000000000000000 0.000000000000000 1.000000000000000 0.000000000000000 
1
1.000000000000000 0.000000000000000 0.000000000000000 0.000000000000000 
0.000000000000000 1.000000000000000 0.000000000000000 0.000000000000000 
0.000000000000000 0.000000000000000 1.000000000000000 0.000000000000000 
2  19 -1 20 1 21 -1 1 -1 9 -1 8 -1 0
1
1.000000000000000 0.000000000000000 0.000000000000000 -1472.669276306122811 
0.000000000000000 1.000000000000000 0.000000000000000 0.000000000000486 
0.000000000000000 0.000000000000000 1.000000000000000 -0.000000000000324 
2  23 -1 19 -1 20 1 21 -1 1 -1 9 -1 8 -1 0
1
1.000000000000000 0.000000000000000 0.000000000000000 736.334638153061405 
0.000000000000000 1.000000000000000 0.000000000000000 -0.000000000000243 
0.000000000000000 0.000000000000000 1.000000000000000 0.000000000000162 
1
1.000000000000000 0.000000000000000 0.000000000000000 0.000000000000000 
0.000000000000000 1.000000000000000 0.000000000000000 0.000000000000000 
0.000000000000000 0.000000000000000 1.000000000000000 0.000000000000000 
1
1.000000000000000 0.000000000000000 0.000000000000000 0.000000000000000 
0.000000000000000 1.000000000000000 0.000000000000000 0.000000000000000 
0.000000000000000 0.000000000000000 1.000000000000000 0.000000000000000 
2  25 -1 26 1 27 -1 1 -1 9 -1 8 -1 0
1
1.000000000000000 0.000000000000000 0.000000000000000 -1472.669276306122811 
0.000000000000000 1.000000000000000 0.000000000000000 0.000000000000486 
0.000000000000000 0.000000000000000 1.000000000000000 -0.000000000000324 
2  29 -1 25 -1 26 1 27 -1 1 -1 9 -1 8 -1 0
1
1.000000000000000 0.000000000000000 0.000000000000000 736.334638153061405 
0.000000000000000 1.000000000000000 0.000000000000000 -0.000000000000243 
0.000000000000000 0.000000000000000 1.000000000000000 0.000000000000162 
1
1.000000000000000 0.000000000000000 0.000000000000000 0.000000000000000 
0.000000000000000 1.000000000000000 0.000000000000000 0.000000000000000 
0.000000000000000 0.000000000000000 1.000000000000000 0.000000000000000 
1
1.000000000000000 0.000000000000000 0.000000000000000 0.000000000000000 
0.000000000000000 1.000000000000000 0.000000000000000 0.000000000000000 
0.000000000000000 0.000000000000000 1.000000000000000 0.000000000000000 
2  31 -1 32 1 33 -1 1 -1 9 -1 8 -1 0
1
1.000000000000000 0.000000000000000 0.000000000000000 -1472.669276306122811 
0.000000000000000 1.000000000000000 0.000000000000000 0.000000000000486 
0.000000000000000 0.000000000000000 1.000000000000000 -0.000000000000324 
2  35 -1 31 -1 32 1 33 -1 1 -1 9 -1 8 -1 0
2  4 -1 3 1 2 -1 1 -1 9 -1 8 -1 0
2  6 -1 4 -1 3 1 2 -1 1 -1 9 -1 8 -1 0
2  8 1 9 1 0
Curve2ds 72
1 -0.00000000000002767 0.00000000000011369 -0.00000000000000026 -1.00000000000000000 
1 657.34313718179123498 -0.00000000000009397 -0.00000000000000026 -1.00000000000000000 
1 0.00000000000000000 0.00000000000000000 1.00000000000000000 0.00000000000000000 
1 -0.00000000000001202 -1472.66927630612281064 1.00000000000000000 0.00000000000000000 
1 0.00000000000000000 0.00000000000000000 1.00000000000000000 0.00000000000000000 
1 -0.00000000000039814 -1472.66927630612281064 1.00000000000000000 0.00000000000000000 
1 0.00000000000000000 0.00000000000000000 1.00000000000000000 0.00000000000000000 
1 -0.00000000000039814 -1472.66927630612281064 1.00000000000000000 0.00000000000000000 
1 0.00000000000000000 0.00000000000000000 1.00000000000000000 0.00000000000000000 
1 -0.00000000000039814 -1472.66927630612281064 1.00000000000000000 0.00000000000000000 
1 0.00000000000000000 0.00000000000000000 1.00000000000000000 0.00000000000000000 
1 -0.00000000000039814 -1472.66927630612281064 1.00000000000000000 0.00000000000000000 
1 69.99999999999978684 0.00000000000000000 0.00000000000000022 -1.00000000000000000 
1 0.00000000000000000 0.00000000000000000 0.00000000000000022 -1.00000000000000000 
1 20.00000000000065725 -0.00000000000000220 0.00000000000000022 -1.00000000000000000 
1 -0.00000000000000400 0.00000000000000000 -0.00000000000000022 -1.00000000000000000 
1 0.00000000000000000 0.00000000000000000 1.00000000000000000 0.00000000000000000 
1 0.00000000000000000 -1472.66927630612281064 1.00000000000000000 0.00000000000000000 
1 0.00000000000000000 0.00000000000000000 1.00000000000000000 0.00000000000000000 
1 0.00000000000032399 -1472.66927630612281064 1.00000000000000000 0.00000000000000000 
1 0.00000000000000000 0.00000000000000000 1.00000000000000000 0.00000000000000000 
1 0.00000000000032399 -1472.66927630612281064 1.00000000000000000 0.00000000000000000 
1 0.00000000000000000 0.00000000000000000 1.00000000000000000 0.00000000000000000 
1 0.00000000000032399 -1472.66927630612281064 1.00000000000000000 0.00000000000000000 
1 0.00000000000000000 0.00000000000000000 1.00000000000000000 0.00000000000000000 
1 0.00000000000032399 -1472.66927630612281064 1.00000000000000000 0.00000000000000000 
1 5.99999999999999556 0.00000000000000000 -0.00000000000000022 -1.00000000000000000 
1 -0.00000000000000432 0.00000000000000000 -0.00000000000000026 -1.00000000000000000 
1 0.00000000000000000 0.00000000000000000 1.00000000000000000 0.00000000000000000 
1 0.00000000000000000 -1472.66927630612281064 1.00000000000000000 0.00000000000000000 
1 0.00000000000000000 0.00000000000000000 1.00000000000000000 0.00000000000000000 
1 -0.00000000000032399 -1472.66927630612281064 1.00000000000000000 0.00000000000000000 
1 0.00000000000000000 0.00000000000000000 1.00000000000000000 0.00000000000000000 
1 -0.00000000000032399 -1472.66927630612281064 1.00000000000000000 0.00000000000000000 
1 0.00000000000000000 0.00000000000000000 1.00000000000000000 0.00000000000000000 
1 -0.00000000000032399 -1472.66927630612281064 1.00000000000000000 0.00000000000000000 
1 0.00000000000000000 0.00000000000000000 1.00000000000000000 0.00000000000000000 
1 -0.00000000000032399 -1472.66927630612281064 1.00000000000000000 0.00000000000000000 
1 65.73431371817912350 0.00000000000000197 -0.00000000000000026 -1.00000000000000000 
1 -0.00000000000001510 -0.00000000000000000 -0.00000000000000022 -1.00000000000000000 
1 0.00000000000000000 0.00000000000000000 1.00000000000000000 0.00000000000000000 
1 0.00000000000000020 -1472.66927630612281064 1.00000000000000000 0.00000000000000000 
1 0.00000000000000000 0.00000000000000000 1.00000000000000000 0.00000000000000000 
1 -0.00000000000038079 -1472.66927630612281064 1.00000000000000000 0.00000000000000000 
1 0.00000000000000000 0.00000000000000000 1.00000000000000000 0.00000000000000000 
1 -0.00000000000038079 -1472.66927630612281064 1.00000000000000000 0.00000000000000000 
1 0.00000000000000000 0.00000000000000000 1.00000000000000000 0.00000000000000000 
1 -0.00000000000038079 -1472.66927630612281064 1.00000000000000000 0.00000000000000000 
1 0.00000000000000000 0.00000000000000000 1.00000000000000000 0.00000000000000000 
1 -0.00000000000038079 -1472.66927630612281064 1.00000000000000000 0.00000000000000000 
1 0.00000000000000000 0.00000000000000000 0.00000000000000022 -1.00000000000000000 
1 4.99999999999998401 0.00000000000000055 -0.00000000000000022 -1.00000000000000000 
1 0.00000000000000000 0.00000000000000000 1.00000000000000000 0.00000000000000000 
1 0.00000000000000022 -1472.66927630612281064 1.00000000000000000 0.00000000000000000 
1 0.00000000000000000 0.00000000000000000 1.00000000000000000 0.00000000000000000 
1 -0.00000000000032473 -1472.66927630612281064 1.00000000000000000 0.00000000000000000 
1 0.00000000000000000 0.00000000000000000 1.00000000000000000 0.00000000000000000 
1 -0.00000000000032473 -1472.66927630612281064 1.00000000000000000 0.00000000000000000 
1 0.00000000000000000 0.00000000000000000 1.00000000000000000 0.00000000000000000 
1 -0.00000000000032473 -1472.66927630612281064 1.00000000000000000 0.00000000000000000 
1 0.00000000000000000 0.00000000000000000 1.00000000000000000 0.00000000000000000 
1 -0.00000000000032473 -1472.66927630612281064 1.00000000000000000 0.00000000000000000 
1 0.00000000000000000 0.00000000000000000 1.00000000000000000 -0.00000000000000000 
1 0.00000000000001406 -1472.66927630612281064 1.00000000000000000 -0.00000000000000000 
1 0.00000000000000000 0.00000000000000000 1.00000000000000000 0.00000000000000000 
1 0.00000000000031264 -1472.66927630612281064 1.00000000000000000 0.00000000000000000 
1 0.00000000000000000 0.00000000000000000 1.00000000000000000 0.00000000000000000 
1 0.00000000000031264 -1472.66927630612281064 1.00000000000000000 0.00000000000000000 
1 0.00000000000000000 0.00000000000000000 1.00000000000000000 0.00000000000000000 
1 0.00000000000031264 -1472.66927630612281064 1.00000000000000000 0.00000000000000000 
1 0.00000000000000000 0.00000000000000000 1.00000000000000000 0.00000000000000000 
1 0.00000000000031264 -1472.66927630612281064 1.00000000000000000 0.00000000000000000 
Curves 20
1 736.33463815306140532 -66.52173913043712616 -250.82608695651967423 -1.00000000000000000 0.00000000000000033 -0.00000000000000022 
1 736.33463815306151901 133.47826086956942504 -250.82608695651970265 -1.00000000000000000 0.00000000000000033 -0.00000000000000022 
1 -66.52173913043682774 -250.82608695651987318 -0.00000000000000739 1.00000000000000000 0.00000000000000000 0.00000000000000011 
1 736.33463815306129163 -66.52173913043698406 449.17391304347819414 -1.00000000000000000 0.00000000000000033 -0.00000000000000022 
1 -66.52173913043684195 449.17391304347796677 -0.00000000000000739 0.00000000000000000 -1.00000000000000000 0.00000000000000000 
1 736.33463815306151901 133.47826086956942504 -190.82608695651973107 -1.00000000000000000 0.00000000000000033 -0.00000000000000022 
1 133.47826086956973768 -250.82608695651987318 0.00000000000001482 0.00000000000000000 1.00000000000000000 -0.00000000000000000 
1 736.33463815306129163 -16.52173913043697695 449.17391304347819414 -1.00000000000000000 0.00000000000000033 -0.00000000000000022 
1 -16.52173913043682774 449.17391304347796677 -0.00000000000000183 -1.00000000000000000 0.00000000000000000 -0.00000000000000011 
1 133.47826086956973768 -190.82608695651987318 0.00000000000001482 -0.22819132278933854 0.97361631056779852 -0.00000000000000003 
1 736.33463815306140532 -0.00000000000024299 0.00000000000016199 -1.00000000000000000 0.00000000000000033 -0.00000000000000022 
1 736.33463815306140532 20.00000000000041567 0.00000000000015799 -1.00000000000000000 0.00000000000000033 -0.00000000000000022 
1 0.00000000000000000 0.00000000000000000 0.00000000000000000 1.00000000000000000 0.00000000000000000 0.00000000000000011 
1 736.33463815306140532 20.00000000000041567 6.00000000000015721 -1.00000000000000000 0.00000000000000033 -0.00000000000000022 
1 20.00000000000065725 0.00000000000000000 0.00000000000000222 0.00000000000000000 1.00000000000000000 -0.00000000000000000 
1 736.33463815306140532 4.99999999999977174 69.99999999999994316 -1.00000000000000000 0.00000000000000033 -0.00000000000000022 
1 20.00000000000065725 6.00000000000000000 0.00000000000000222 -0.22819132278933854 0.97361631056779852 -0.00000000000000003 
1 736.33463815306140532 -0.00000000000022699 69.99999999999994316 -1.00000000000000000 0.00000000000000033 -0.00000000000000022 
1 5.00000000000000000 69.99999999999978684 0.00000000000000056 -1.00000000000000000 0.00000000000000000 -0.00000000000000011 
1 0.00000000000000000 69.99999999999978684 -0.00000000000000000 0.00000000000000000 -1.00000000000000000 0.00000000000000000 
Polygon3D 0
PolygonOnTriangulations 0
Surfaces 35
1 736.33463815306140532 -66.52173913043706932 -250.82608695651970265 0.00000000000000022 -0.00000000000000000 -1.00000000000000000 0.00000000000000011 1.00000000000000000 0.00000000000000000 1.00000000000000000 -0.00000000000000011 0.00000000000000022 
1 736.33463815306140532 -66.52173913043708353 449.17391304347813730 -0.00000000000000033 -1.00000000000000000 -0.00000000000000000 0.00000000000000000 0.00000000000000000 -1.00000000000000000 1.00000000000000000 -0.00000000000000033 0.00000000000000000 
1 736.33463815306140532 133.47826086956948188 -250.82608695651970265 0.00000000000000033 1.00000000000000000 -0.00000000000000000 0.00000000000000000 0.00000000000000000 1.00000000000000000 1.00000000000000000 -0.00000000000000033 0.00000000000000000 
1 736.33463815306140532 133.47826086956948188 -190.82608695651970265 0.00000000000000027 0.97361631056779852 0.22819132278933854 -0.00000000000000003 -0.22819132278933854 0.97361631056779852 1.00000000000000000 -0.00000000000000027 -0.00000000000000003 
1 736.33463815306140532 -16.52173913043706932 449.17391304347813730 -0.00000000000000022 0.00000000000000000 1.00000000000000000 -0.00000000000000011 -1.00000000000000000 -0.00000000000000000 1.00000000000000000 -0.00000000000000011 0.00000000000000022 
1 736.33463815306151901 133.47826086956945346 -190.82608695651973107 0.00000000000000027 0.97361631056779863 0.22819132278933835 -0.00000000000000029 -0.22819132278933835 0.97361631056779863 1.00000000000000000 -0.00000000000000033 0.00000000000000022 
1 736.33463815306140532 133.47826086956948188 -190.82608695651970265 0.00000000000000027 0.97361631056779852 0.22819132278933854 -0.00000000000000003 -0.22819132278933854 0.97361631056779852 1.00000000000000000 -0.00000000000000027 -0.00000000000000003 
1 736.33463815306140532 133.47826086956948188 -190.82608695651970265 0.00000000000000027 0.97361631056779852 0.22819132278933854 -0.00000000000000003 -0.22819132278933854 0.97361631056779852 1.00000000000000000 -0.00000000000000027 -0.00000000000000003 
1 736.33463815306140532 133.47826086956948188 -190.82608695651970265 0.00000000000000027 0.97361631056779852 0.22819132278933854 -0.00000000000000003 -0.22819132278933854 0.97361631056779852 1.00000000000000000 -0.00000000000000027 -0.00000000000000003 
1 736.33463815306140532 -0.00000000000024299 0.00000000000016199 0.00000000000000022 -0.00000000000000000 -1.00000000000000000 0.00000000000000011 1.00000000000000000 0.00000000000000000 1.00000000000000000 -0.00000000000000011 0.00000000000000022 
1 736.33463815306140532 -0.00000000000024299 69.99999999999994316 -0.00000000000000033 -1.00000000000000000 -0.00000000000000000 0.00000000000000000 0.00000000000000000 -1.00000000000000000 1.00000000000000000 -0.00000000000000033 0.00000000000000000 
1 736.33463815306140532 20.00000000000041567 0.00000000000016199 0.00000000000000033 1.00000000000000000 -0.00000000000000000 0.00000000000000000 0.00000000000000000 1.00000000000000000 1.00000000000000000 -0.00000000000000033 0.00000000000000000 
1 736.33463815306140532 -0.00000000000024525 0.00000000000016350 0.00000000000000022 -0.00000000000000022 -1.00000000000000000 0.00000000000000033 1.00000000000000000 -0.00000000000000022 1.00000000000000000 -0.00000000000000033 0.00000000000000022 
1 736.33463815306140532 -0.00000000000024299 0.00000000000016199 0.00000000000000022 -0.00000000000000000 -1.00000000000000000 0.00000000000000011 1.00000000000000000 0.00000000000000000 1.00000000000000000 -0.00000000000000011 0.00000000000000022 
1 736.33463815306140532 -0.00000000000024299 0.00000000000016199 0.00000000000000022 -0.00000000000000000 -1.00000000000000000 0.00000000000000011 1.00000000000000000 0.00000000000000000 1.00000000000000000 -0.00000000000000011 0.00000000000000022 
1 736.33463815306140532 -0.00000000000024299 0.00000000000016199 0.00000000000000022 -0.00000000000000000 -1.00000000000000000 0.00000000000000011 1.00000000000000000 0.00000000000000000 1.00000000000000000 -0.00000000000000011 0.00000000000000022 
1 736.33463815306140532 20.00000000000041567 6.00000000000016165 0.00000000000000027 0.97361631056779852 0.22819132278933854 -0.00000000000000003 -0.22819132278933854 0.97361631056779852 1.00000000000000000 -0.00000000000000027 -0.00000000000000003 
1 736.33463815306140532 20.00000000000041211 0.00000000000015906 0.00000000000000033 1.00000000000000000 -0.00000000000000022 -0.00000000000000022 0.00000000000000022 1.00000000000000000 1.00000000000000000 -0.00000000000000033 0.00000000000000022 
1 736.33463815306140532 20.00000000000041567 0.00000000000016199 0.00000000000000033 1.00000000000000000 -0.00000000000000000 0.00000000000000000 0.00000000000000000 1.00000000000000000 1.00000000000000000 -0.00000000000000033 0.00000000000000000 
1 736.33463815306140532 20.00000000000041567 0.00000000000016199 0.00000000000000033 1.00000000000000000 -0.00000000000000000 0.00000000000000000 0.00000000000000000 1.00000000000000000 1.00000000000000000 -0.00000000000000033 0.00000000000000000 
1 736.33463815306140532 20.00000000000041567 0.00000000000016199 0.00000000000000033 1.00000000000000000 -0.00000000000000000 0.00000000000000000 0.00000000000000000 1.00000000000000000 1.00000000000000000 -0.00000000000000033 0.00000000000000000 
1 736.33463815306140532 4.99999999999975664 69.99999999999994316 -0.00000000000000022 0.00000000000000000 1.00000000000000000 -0.00000000000000011 -1.00000000000000000 -0.00000000000000000 1.00000000000000000 -0.00000000000000011 0.00000000000000022 
1 736.33463815306140532 20.00000000000041211 6.00000000000015898 0.00000000000000027 0.97361631056779863 0.22819132278933835 -0.00000000000000029 -0.22819132278933835 0.97361631056779863 1.00000000000000000 -0.00000000000000033 0.00000000000000022 
1 736.33463815306140532 20.00000000000041567 6.00000000000016165 0.00000000000000027 0.97361631056779852 0.22819132278933854 -0.00000000000000003 -0.22819132278933854 0.97361631056779852 1.00000000000000000 -0.00000000000000027 -0.00000000000000003 
1 736.33463815306140532 20.00000000000041567 6.00000000000016165 0.00000000000000027 0.97361631056779852 0.22819132278933854 -0.00000000000000003 -0.22819132278933854 0.97361631056779852 1.00000000000000000 -0.00000000000000027 -0.00000000000000003 
1 736.33463815306140532 20.00000000000041567 6.00000000000016165 0.00000000000000027 0.97361631056779852 0.22819132278933854 -0.00000000000000003 -0.22819132278933854 0.97361631056779852 1.00000000000000000 -0.00000000000000027 -0.00000000000000003 
1 736.33463815306140532 4.99999999999976996 69.99999999999995737 -0.00000000000000022 0.00000000000000022 1.00000000000000000 -0.00000000000000033 -1.00000000000000000 0.00000000000000022 1.00000000000000000 -0.00000000000000033 0.00000000000000022 
1 736.33463815306140532 4.99999999999975664 69.99999999999994316 -0.00000000000000022 0.00000000000000000 1.00000000000000000 -0.00000000000000011 -1.00000000000000000 -0.00000000000000000 1.00000000000000000 -0.00000000000000011 0.00000000000000022 
1 736.33463815306140532 4.99999999999975664 69.99999999999994316 -0.00000000000000022 0.00000000000000000 1.00000000000000000 -0.00000000000000011 -1.00000000000000000 -0.00000000000000000 1.00000000000000000 -0.00000000000000011 0.00000000000000022 
1 736.33463815306140532 4.99999999999975664 69.99999999999994316 -0.00000000000000022 0.00000000000000000 1.00000000000000000 -0.00000000000000011 -1.00000000000000000 -0.00000000000000000 1.00000000000000000 -0.00000000000000011 0.00000000000000022 
1 736.33463815306140532 -0.00000000000022971 69.99999999999995737 -0.00000000000000033 -1.00000000000000000 0.00000000000000022 0.00000000000000022 -0.00000000000000022 -1.00000000000000000 1.00000000000000000 -0.00000000000000033 0.00000000000000022 
1 736.33463815306140532 -0.00000000000024299 69.99999999999994316 -0.00000000000000033 -1.00000000000000000 -0.00000000000000000 0.00000000000000000 0.00000000000000000 -1.00000000000000000 1.00000000000000000 -0.00000000000000033 0.00000000000000000 
1 736.33463815306140532 -0.00000000000024299 69.99999999999994316 -0.00000000000000033 -1.00000000000000000 -0.00000000000000000 0.00000000000000000 0.00000000000000000 -1.00000000000000000 1.00000000000000000 -0.00000000000000033 0.00000000000000000 
1 736.33463815306140532 -0.00000000000024299 69.99999999999994316 -0.00000000000000033 -1.00000000000000000 -0.00000000000000000 0.00000000000000000 0.00000000000000000 -1.00000000000000000 1.00000000000000000 -0.00000000000000033 0.00000000000000000 
1 -0.00000000000001420 2.70089991362421911 67.99874296276831842 1.00000000000000000 -0.00000000000000033 0.00000000000000022 0.00000000000000033 1.00000000000000000 0.00000000000000011 -0.00000000000000022 -0.00000000000000011 1.00000000000000000 
Triangulations 0

TShapes 55
Ve
0.000001000000000
0.000000000000034 -66.521739130436885 -250.826086956519845
0 0

0101101
*
Ed
 0.000001000000000 1 1 0
1  1 0 0.000000000000000 1472.669276306122811
0

0101000
+55 5 -55 7 *
Ve
0.000001000000000
0.000000000000100 133.478260869569681 -250.826086956519873
0 0

0101101
*
Ed
 0.000001000000000 1 1 0
1  2 0 0.000000000000000 1472.669276306122811
0

0101000
+53 5 -53 7 *
Ed
 0.000001000000000 1 1 0
1  3 0 0.000000000000000 200.000000000006565
0

0101000
+55 11 -53 11 *
Wi

0101100
+54 0 -52 0 -51 10 +51 12 *
Fa
0  0.000001000000000 1 0

0111000
+50 0 *
Ve
0.000001000000000
-0.000000000000122 -66.521739130436742 449.173913043478024
0 0

0101101
*
Ed
 0.000001000000000 1 1 0
1  4 0 0.000000000000000 1472.669276306122811
0

0101000
+48 5 -48 7 *
Ed
 0.000001000000000 1 1 0
1  5 0 0.000000000000000 699.999999999997840
0

0101000
+48 11 -55 11 *
Wi

0101100
+47 0 -54 0 -46 10 +46 12 *
Fa
0  0.000001000000000 2 0

0111000
+45 0 *
Ve
0.000001000000000
0.000000000000087 133.478260869569681 -190.826086956519902
0 0

0101101
*
Ed
 0.000001000000000 1 1 0
1  6 0 0.000000000000000 1472.669276306122811
2  1 4 0 0.000000000000000 1472.669276306122811
0

0101000
+43 5 -43 7 *
Ed
 0.000001000000000 1 1 0
1  7 0 0.000000000000000 60.000000000000000
0

0101000
+53 11 -43 11 *
Wi

0101100
+52 0 -42 0 -41 10 +41 12 *
Fa
0  0.000001000000000 3 0

0111000
+40 0 *
Ve
0.000001000000000
-0.000000000000105 -16.521739130436735 449.173913043478024
0 0

0101101
*
Ed
 0.000001000000000 1 1 0
1  8 0 0.000000000000000 1472.669276306122811
2  2 4 0 0.000000000000000 1472.669276306122811
0

0101000
+38 5 -38 7 *
Ed
 0.000001000000000 1 1 0
1  9 0 0.000000000000000 50.000000000000000
0

0101000
+38 11 -48 11 *
Wi

0101100
+37 0 -47 0 -36 10 +36 12 *
Fa
0  0.000001000000000 5 0

0111000
+35 0 *
Ed
 0.000001000000000 1 1 0
1  10 0 0.000000000000000 657.343137181791235
2  3 6 16 0.000000000000000 657.343137181791235
2  4 6 18 0.000000000000000 657.343137181791235
2  5 7 22 0.000000000000000 657.343137181791235
2  6 7 24 0.000000000000000 657.343137181791235
2  7 8 28 0.000000000000000 657.343137181791235
2  8 8 30 0.000000000000000 657.343137181791235
2  9 9 34 0.000000000000000 657.343137181791235
2  10 9 36 0.000000000000000 657.343137181791235
2  11 4 37 0.000000000000000 657.343137181791235
2  12 4 38 0.000000000000000 657.343137181791235
0

0101000
+43 11 -38 11 *
Wi

0101100
+42 0 -37 0 -33 10 +33 12 *
Fa
0  0.000001000000000 4 0

0111000
+32 0 *
Ve
0.000001000000000
0.000000000000000 0.000000000000000 0.000000000000000
0 0

0101101
*
Ed
 0.000001000000000 1 1 0
1  11 0 0.000000000000000 1472.669276306122811
2  13 11 0 0.000000000000000 1472.669276306122811
2  14 10 0 0.000000000000000 1472.669276306122811
0

0101000
+30 5 -30 7 *
Ve
0.000001000000000
0.000000000000007 20.000000000000657 -0.000000000000004
0 0

0101101
*
Ed
 0.000001000000000 1 1 0
1  12 0 0.000000000000000 1472.669276306122811
2  15 10 0 0.000000000000000 1472.669276306122811
2  16 12 0 0.000000000000000 1472.669276306122811
0

0101000
+28 5 -28 7 *
Ed
 0.000001000000000 1 1 0
1  13 0 0.000000000000000 20.000000000000657
2  17 13 16 0.000000000000000 20.000000000000657
2  18 13 18 0.000000000000000 20.000000000000657
2  19 14 22 0.000000000000000 20.000000000000657
2  20 14 24 0.000000000000000 20.000000000000657
2  21 15 28 0.000000000000000 20.000000000000657
2  22 15 30 0.000000000000000 20.000000000000657
2  23 16 34 0.000000000000000 20.000000000000657
2  24 16 36 0.000000000000000 20.000000000000657
2  25 10 37 0.000000000000000 20.000000000000657
2  26 10 38 0.000000000000000 20.000000000000657
0

0101000
+30 11 -28 11 *
Wi

0101100
+29 0 -27 0 -26 10 +26 12 *
Fa
0  0.000001000000000 10 0

0111000
+25 0 *
Ve
0.000001000000000
0.000000000000005 20.000000000000657 5.999999999999996
0 0

0101101
*
Ed
 0.000001000000000 1 1 0
1  14 0 0.000000000000000 1472.669276306122811
2  27 12 0 0.000000000000000 1472.669276306122811
2  28 17 0 0.000000000000000 1472.669276306122811
0

0101000
+23 5 -23 7 *
Ed
 0.000001000000000 1 1 0
1  15 0 0.000000000000000 6.000000000000000
2  29 18 16 0.000000000000000 6.000000000000000
2  30 18 18 0.000000000000000 6.000000000000000
2  31 19 22 0.000000000000000 6.000000000000000
2  32 19 24 0.000000000000000 6.000000000000000
2  33 20 28 0.000000000000000 6.000000000000000
2  34 20 30 0.000000000000000 6.000000000000000
2  35 21 34 0.000000000000000 6.000000000000000
2  36 21 36 0.000000000000000 6.000000000000000
2  37 12 37 0.000000000000000 6.000000000000000
2  38 12 38 0.000000000000000 6.000000000000000
0

0101000
+28 11 -23 11 *
Wi

0101100
+27 0 -22 0 -21 10 +21 12 *
Fa
0  0.000001000000000 12 0

0111000
+20 0 *
Ve
0.000001000000000
-0.000000000000014 5.000000000000015 69.999999999999787
0 0

0101101
*
Ed
 0.000001000000000 1 1 0
1  16 0 0.000000000000000 1472.669276306122811
2  39 17 0 0.000000000000000 1472.669276306122811
2  40 22 0 0.000000000000000 1472.669276306122811
0

0101000
+18 5 -18 7 *
Ed
 0.000001000000000 1 1 0
1  17 0 0.000000000000000 65.734313718179123
2  41 23 16 0.000000000000000 65.734313718179123
2  42 23 18 0.000000000000000 65.734313718179123
2  43 24 22 0.000000000000000 65.734313718179123
2  44 24 24 0.000000000000000 65.734313718179123
2  45 25 28 0.000000000000000 65.734313718179123
2  46 25 30 0.000000000000000 65.734313718179123
2  47 26 34 0.000000000000000 65.734313718179123
2  48 26 36 0.000000000000000 65.734313718179123
2  49 17 37 0.000000000000000 65.734313718179123
2  50 17 38 0.000000000000000 65.734313718179123
0

0101000
+23 11 -18 11 *
Wi

0101100
+22 0 -17 0 -16 10 +16 12 *
Fa
0  0.000001000000000 17 0

0111000
+15 0 *
Ve
0.000001000000000
-0.000000000000016 0.000000000000016 69.999999999999787
0 0

0101101
*
Ed
 0.000001000000000 1 1 0
1  18 0 0.000000000000000 1472.669276306122811
2  51 11 0 0.000000000000000 1472.669276306122811
2  52 22 0 0.000000000000000 1472.669276306122811
0

0101000
+13 5 -13 7 *
Ed
 0.000001000000000 1 1 0
1  19 0 0.000000000000000 5.000000000000000
2  53 27 16 0.000000000000000 5.000000000000000
2  54 27 18 0.000000000000000 5.000000000000000
2  55 28 22 0.000000000000000 5.000000000000000
2  56 28 24 0.000000000000000 5.000000000000000
2  57 29 28 0.000000000000000 5.000000000000000
2  58 29 30 0.000000000000000 5.000000000000000
2  59 30 34 0.000000000000000 5.000000000000000
2  60 30 36 0.000000000000000 5.000000000000000
2  61 22 37 0.000000000000000 5.000000000000000
2  62 22 38 0.000000000000000 5.000000000000000
0

0101000
+18 11 -13 11 *
Wi

0101100
+17 0 -12 0 -11 10 +11 12 *
Fa
0  0.000001000000000 22 0

0111000
+10 0 *
Ed
 0.000001000000000 1 1 0
1  20 0 0.000000000000000 69.999999999999787
2  63 31 16 0.000000000000000 69.999999999999787
2  64 31 18 0.000000000000000 69.999999999999787
2  65 32 22 0.000000000000000 69.999999999999787
2  66 32 24 0.000000000000000 69.999999999999787
2  67 33 28 0.000000000000000 69.999999999999787
2  68 33 30 0.000000000000000 69.999999999999787
2  69 34 34 0.000000000000000 69.999999999999787
2  70 34 36 0.000000000000000 69.999999999999787
2  71 11 37 0.000000000000000 69.999999999999787
2  72 11 38 0.000000000000000 69.999999999999787
0

0101000
+13 11 -30 11 *
Wi

0101100
+12 0 -29 0 -8 10 +8 12 *
Fa
0  0.000001000000000 11 0

0111000
+7 0 *
Wi

0101100
+51 39 +46 39 +41 39 +36 39 +33 39 *
Wi

0101100
-26 39 -21 39 -16 39 -11 39 -8 39 *
Fa
0  0.000001000000000 35 0

0111000
+5 0 +4 0 *
Sh

0101100
+49 0 +44 0 +39 0 +34 0 +31 0 -24 0 -19 0 -14 0 -9 0 -6 0 
+3 5 -3 7 *
So

1100000
+2 0 *

+1 0 