
CASCADE Topology V1, (c) Matra-Datavision
Locations 76
1
1.000000000000000 0.000000000000000 0.000000000000000 0.000000000000000 
0.000000000000000 1.000000000000000 0.000000000000000 0.000000000000000 
0.000000000000000 0.000000000000000 1.000000000000000 0.000000000000000 
1
0.000000000000000 0.000000000000000 1.000000000000000 41.299999999999415 
0.000000000000000 1.000000000000000 0.000000000000000 0.000000000000000 
-1.000000000000000 0.000000000000000 0.000000000000000 41.099999999999419 
1
1.000000000000000 0.000000000000000 0.000000000000000 0.000000000000000 
0.000000000000000 1.000000000000000 0.000000000000000 0.000000000000000 
0.000000000000000 0.000000000000000 1.000000000000000 0.000000000000000 
1
1.000000000000000 0.000000000000000 0.000000000000000 0.000000000000000 
0.000000000000000 1.000000000000000 0.000000000000000 0.000000000000000 
0.000000000000000 0.000000000000000 1.000000000000000 0.000000000000000 
1
1.000000000000000 0.000000000000000 0.000000000000000 0.000000000000000 
0.000000000000000 1.000000000000000 0.000000000000000 0.000000000000000 
0.000000000000000 0.000000000000000 1.000000000000000 0.000000000000000 
1
0.000000000000000 0.000000000000000 -1.000000000000000 41.099999999999419 
0.000000000000000 1.000000000000000 0.000000000000000 0.000000000000000 
1.000000000000000 0.000000000000000 0.000000000000000 -41.299999999999422 
1
1.000000000000000 0.000000000000000 0.000000000000000 0.298451302091030 
0.000000000000000 1.000000000000000 0.000000000000000 -0.000000000000000 
0.000000000000000 0.000000000000000 1.000000000000000 -0.000000000000000 
2  2 1 3 1 4 -1 5 1 6 1 7 1 0
2  7 -1 6 -1 5 -1 4 1 3 -1 2 -1 0
1
-1.000000000000000 0.000000000000000 0.000000000000000 0.000000000000000 
0.000000000000000 -1.000000000000000 0.000000000000000 0.000000000000000 
0.000000000000000 0.000000000000000 1.000000000000000 0.000000000000000 
2  10 -1 0
1
1.000000000000000 0.000000000000000 0.000000000000000 0.000000000000024 
0.000000000000000 1.000000000000000 0.000000000000000 -101.215914611281207 
0.000000000000000 0.000000000000000 1.000000000000000 -37.100000000000001 
2  12 1 5 1 0
1
1.000000000000000 0.000000000000000 0.000000000000000 -22.299999999999713 
0.000000000000000 1.000000000000000 0.000000000000000 -83.394112909449618 
0.000000000000000 0.000000000000000 1.000000000000000 -37.100000000000001 
2  14 1 5 1 0
1
1.000000000000000 0.000000000000000 0.000000000000000 22.299999999999713 
0.000000000000000 1.000000000000000 0.000000000000000 -83.394112909449419 
0.000000000000000 0.000000000000000 1.000000000000000 -37.100000000000001 
2  16 1 5 1 0
1
0.000000000000000 0.000000000000000 -1.000000000000000 -41.299999999999415 
0.000000000000000 1.000000000000000 0.000000000000000 0.000000000000000 
1.000000000000000 0.000000000000000 0.000000000000000 41.099999999999419 
1
0.000000000000000 0.000000000000000 1.000000000000000 -41.099999999999419 
0.000000000000000 1.000000000000000 0.000000000000000 0.000000000000000 
-1.000000000000000 0.000000000000000 0.000000000000000 -41.299999999999422 
1
1.000000000000000 0.000000000000000 0.000000000000000 -0.298451302091030 
0.000000000000000 1.000000000000000 0.000000000000000 -0.000000000000000 
0.000000000000000 0.000000000000000 1.000000000000000 0.000000000000000 
2  18 1 3 1 4 -1 5 1 19 1 20 1 0
2  20 -1 19 -1 5 -1 4 1 3 -1 18 -1 0
2  5 -1 0
1
1.000000000000000 0.000000000000000 0.000000000000000 0.000000000000000 
0.000000000000000 1.000000000000000 0.000000000000000 0.000000000000000 
0.000000000000000 0.000000000000000 1.000000000000000 -0.100000000000000 
1
1.000000000000000 0.000000000000000 0.000000000000000 868.000000000000000 
0.000000000000000 1.000000000000000 0.000000000000000 158.297599999999989 
0.000000000000000 0.000000000000000 1.000000000000000 0.000000000000000 
2  24 -1 25 -1 0
1
1.000000000000000 0.000000000000000 0.000000000000000 0.000000000000000 
0.000000000000000 1.000000000000000 0.000000000000000 0.000000000000000 
0.000000000000000 0.000000000000000 1.000000000000000 4.400000000624287 
2  27 -1 24 -1 25 -1 0
1
1.000000000000000 0.000000000000000 0.000000000000000 0.000000000000000 
0.000000000000000 1.000000000000000 0.000000000000000 0.000000000000000 
0.000000000000000 0.000000000000000 1.000000000000000 -0.100000000000000 
1
-1.000000000000000 0.000000000000000 0.000000000000000 868.000000000000000 
0.000000000000000 -1.000000000000000 0.000000000000000 158.297599999999989 
0.000000000000000 0.000000000000000 1.000000000000000 0.000000000000000 
2  29 -1 30 -1 0
1
1.000000000000000 0.000000000000000 0.000000000000000 0.000000000000000 
0.000000000000000 1.000000000000000 0.000000000000000 0.000000000000000 
0.000000000000000 0.000000000000000 1.000000000000000 4.400000000624287 
2  32 -1 29 -1 30 -1 0
1
1.000000000000000 0.000000000000000 0.000000000000000 0.000000000000000 
0.000000000000000 1.000000000000000 0.000000000000000 0.000000000000000 
0.000000000000000 0.000000000000000 1.000000000000000 -0.100000000000000 
2  34 -1 30 -1 0
1
1.000000000000000 0.000000000000000 0.000000000000000 0.000000000000000 
0.000000000000000 1.000000000000000 0.000000000000000 0.000000000000000 
0.000000000000000 0.000000000000000 1.000000000000000 4.400000000624287 
2  36 -1 34 -1 30 -1 0
1
1.000000000000000 0.000000000000000 0.000000000000000 0.000000000000000 
0.000000000000000 1.000000000000000 0.000000000000000 0.000000000000000 
0.000000000000000 0.000000000000000 1.000000000000000 -0.100000000000000 
2  38 -1 30 -1 0
1
1.000000000000000 0.000000000000000 0.000000000000000 0.000000000000000 
0.000000000000000 1.000000000000000 0.000000000000000 0.000000000000000 
0.000000000000000 0.000000000000000 1.000000000000000 4.400000000624287 
2  40 -1 38 -1 30 -1 0
2  10 -1 5 -1 12 -1 0
1
1.000000000000000 0.000000000000000 0.000000000000000 0.000000000000000 
0.000000000000000 1.000000000000000 0.000000000000000 0.000000000000000 
0.000000000000000 0.000000000000000 1.000000000000000 -0.100000000000000 
2  43 -1 25 -1 0
1
1.000000000000000 0.000000000000000 0.000000000000000 0.000000000000000 
0.000000000000000 1.000000000000000 0.000000000000000 0.000000000000000 
0.000000000000000 0.000000000000000 1.000000000000000 4.400000000624287 
2  45 -1 43 -1 25 -1 0
1
1.000000000000000 0.000000000000000 0.000000000000000 0.000000000000000 
0.000000000000000 1.000000000000000 0.000000000000000 0.000000000000000 
0.000000000000000 0.000000000000000 1.000000000000000 -0.100000000000000 
2  47 -1 30 -1 0
1
1.000000000000000 0.000000000000000 0.000000000000000 0.000000000000000 
0.000000000000000 1.000000000000000 0.000000000000000 0.000000000000000 
0.000000000000000 0.000000000000000 1.000000000000000 4.400000000624287 
2  49 -1 47 -1 30 -1 0
1
1.000000000000000 0.000000000000000 0.000000000000000 0.000000000000000 
0.000000000000000 1.000000000000000 0.000000000000000 0.000000000000000 
0.000000000000000 0.000000000000000 1.000000000000000 -0.100000000000000 
2  51 -1 30 -1 0
1
1.000000000000000 0.000000000000000 0.000000000000000 0.000000000000000 
0.000000000000000 1.000000000000000 0.000000000000000 0.000000000000000 
0.000000000000000 0.000000000000000 1.000000000000000 4.400000000624287 
2  53 -1 51 -1 30 -1 0
1
1.000000000000000 0.000000000000000 0.000000000000000 0.000000000000000 
0.000000000000000 1.000000000000000 0.000000000000000 0.000000000000000 
0.000000000000000 0.000000000000000 1.000000000000000 -0.100000000000000 
2  55 -1 30 -1 0
1
1.000000000000000 0.000000000000000 0.000000000000000 0.000000000000000 
0.000000000000000 1.000000000000000 0.000000000000000 0.000000000000000 
0.000000000000000 0.000000000000000 1.000000000000000 4.400000000624287 
2  57 -1 55 -1 30 -1 0
2  10 -1 5 -1 14 -1 0
1
1.000000000000000 0.000000000000000 0.000000000000000 0.000000000000000 
0.000000000000000 1.000000000000000 0.000000000000000 0.000000000000000 
0.000000000000000 0.000000000000000 1.000000000000000 -0.100000000000000 
2  60 -1 25 -1 0
1
1.000000000000000 0.000000000000000 0.000000000000000 0.000000000000000 
0.000000000000000 1.000000000000000 0.000000000000000 0.000000000000000 
0.000000000000000 0.000000000000000 1.000000000000000 4.400000000624287 
2  62 -1 60 -1 25 -1 0
1
1.000000000000000 0.000000000000000 0.000000000000000 0.000000000000000 
0.000000000000000 1.000000000000000 0.000000000000000 0.000000000000000 
0.000000000000000 0.000000000000000 1.000000000000000 -0.100000000000000 
2  64 -1 30 -1 0
1
1.000000000000000 0.000000000000000 0.000000000000000 0.000000000000000 
0.000000000000000 1.000000000000000 0.000000000000000 0.000000000000000 
0.000000000000000 0.000000000000000 1.000000000000000 4.400000000624287 
2  66 -1 64 -1 30 -1 0
1
1.000000000000000 0.000000000000000 0.000000000000000 0.000000000000000 
0.000000000000000 1.000000000000000 0.000000000000000 0.000000000000000 
0.000000000000000 0.000000000000000 1.000000000000000 -0.100000000000000 
2  68 -1 30 -1 0
1
1.000000000000000 0.000000000000000 0.000000000000000 0.000000000000000 
0.000000000000000 1.000000000000000 0.000000000000000 0.000000000000000 
0.000000000000000 0.000000000000000 1.000000000000000 4.400000000624287 
2  70 -1 68 -1 30 -1 0
1
1.000000000000000 0.000000000000000 0.000000000000000 0.000000000000000 
0.000000000000000 1.000000000000000 0.000000000000000 0.000000000000000 
0.000000000000000 0.000000000000000 1.000000000000000 -0.100000000000000 
2  72 -1 30 -1 0
1
1.000000000000000 0.000000000000000 0.000000000000000 0.000000000000000 
0.000000000000000 1.000000000000000 0.000000000000000 0.000000000000000 
0.000000000000000 0.000000000000000 1.000000000000000 4.400000000624287 
2  74 -1 72 -1 30 -1 0
2  10 -1 5 -1 16 -1 0
Curve2ds 36
1 6.28318530717958623 37.39999999999999858 -1.00000000000000000 0.00000000000000000 
1 6.28318530717958623 37.39999999999999858 -1.00000000000000000 0.00000000000000000 
1 6.28318530717958623 37.39999999999999858 -1.00000000000000000 0.00000000000000000 
1 6.28318530717958623 37.10000000000000142 -1.00000000000000000 0.00000000000000000 
1 0.00000000000000000 0.00000000000000000 1.00000000000000000 0.00000000000000000 
1 0.00000000000000000 -4.40000000062428676 1.00000000000000000 0.00000000000000000 
1 0.00000000000000000 0.00000000000000000 1.00000000000000000 0.00000000000000000 
1 0.00000000000000000 -4.40000000062428676 1.00000000000000000 0.00000000000000000 
1 0.00000000000000000 0.00000000000000000 1.00000000000000000 0.00000000000000000 
1 0.00000000000000000 -4.40000000062428676 1.00000000000000000 0.00000000000000000 
1 0.00000000000000000 0.00000000000000000 1.00000000000000000 0.00000000000000000 
1 0.00000000000000000 -4.40000000062428676 1.00000000000000000 0.00000000000000000 
1 6.28318530717958623 0.00000000000000000 0.00000000000000000 1.00000000000000000 
1 0.00000000000000000 0.00000000000000000 0.00000000000000000 1.00000000000000000 
1 6.28318530717958623 37.10000000000000142 -1.00000000000000000 0.00000000000000000 
1 0.00000000000000000 0.00000000000000000 1.00000000000000000 0.00000000000000000 
1 0.00000000000000000 -4.40000000062428676 1.00000000000000000 0.00000000000000000 
1 0.00000000000000000 0.00000000000000000 1.00000000000000000 0.00000000000000000 
1 0.00000000000000000 -4.40000000062428676 1.00000000000000000 0.00000000000000000 
1 0.00000000000000000 0.00000000000000000 1.00000000000000000 0.00000000000000000 
1 0.00000000000000000 -4.40000000062428676 1.00000000000000000 0.00000000000000000 
1 0.00000000000000000 0.00000000000000000 1.00000000000000000 0.00000000000000000 
1 0.00000000000000000 -4.40000000062428676 1.00000000000000000 0.00000000000000000 
1 6.28318530717958623 0.00000000000000000 0.00000000000000000 1.00000000000000000 
1 0.00000000000000000 0.00000000000000000 0.00000000000000000 1.00000000000000000 
1 6.28318530717958623 37.10000000000000142 -1.00000000000000000 0.00000000000000000 
1 0.00000000000000000 0.00000000000000000 1.00000000000000000 0.00000000000000000 
1 0.00000000000000000 -4.40000000062428676 1.00000000000000000 0.00000000000000000 
1 0.00000000000000000 0.00000000000000000 1.00000000000000000 0.00000000000000000 
1 0.00000000000000000 -4.40000000062428676 1.00000000000000000 0.00000000000000000 
1 0.00000000000000000 0.00000000000000000 1.00000000000000000 0.00000000000000000 
1 0.00000000000000000 -4.40000000062428676 1.00000000000000000 0.00000000000000000 
1 0.00000000000000000 0.00000000000000000 1.00000000000000000 0.00000000000000000 
1 0.00000000000000000 -4.40000000062428676 1.00000000000000000 0.00000000000000000 
1 6.28318530717958623 0.00000000000000000 0.00000000000000000 1.00000000000000000 
1 0.00000000000000000 0.00000000000000000 0.00000000000000000 1.00000000000000000 
Curves 21
1 -72.49845130209044441 108.29757678588090641 0.29999999999999999 -0.00000000000000000 0.00000000000000000 -1.00000000000000000 
1 -72.49845130209044441 78.39411290944943289 0.29999999999999999 -0.00000000000000000 0.00000000000000000 -1.00000000000000000 
1 -72.49845130209044441 108.29757678588090641 0.29999999999999999 -0.00000000000000012 -1.00000000000000000 0.00000000000000000 
1 -72.49845130209044441 108.29757678588090641 0.00000000000000000 -0.00000000000000012 -1.00000000000000000 0.00000000000000000 
1 -72.49845130209044441 78.39411290944943289 0.29999999999999999 1.00000000000000000 -0.00000000000000012 0.00000000000000000 
1 72.49845130209047284 78.39411290944940447 0.29999999999999999 0.00000000000000012 1.00000000000000000 0.00000000000000000 
1 72.49845130209047284 108.29757678588087799 0.29999999999999999 -1.00000000000000000 0.00000000000000012 0.00000000000000000 
2 -0.00000000000001190 101.21591461128120670 0.29999999999999716 -0.00000000000000000 -0.00000000000000000 1.00000000000000000 1.00000000000000000 -0.00000000000000012 0.00000000000000000 0.00000000000000012 1.00000000000000000 0.00000000000000000 1.69999999999999996
2 22.29999999999972360 83.39411290944961763 0.29999999999999716 -0.00000000000000000 -0.00000000000000000 1.00000000000000000 1.00000000000000000 -0.00000000000000012 0.00000000000000000 0.00000000000000012 1.00000000000000000 0.00000000000000000 1.69999999999999996
2 -22.29999999999970228 83.39411290944941868 0.29999999999999716 -0.00000000000000000 -0.00000000000000000 1.00000000000000000 1.00000000000000000 -0.00000000000000012 0.00000000000000000 0.00000000000000012 1.00000000000000000 0.00000000000000000 1.69999999999999996
1 72.49845130209047284 78.39411290944940447 0.29999999999999999 -0.00000000000000000 0.00000000000000000 -1.00000000000000000 
1 72.49845130209047284 108.29757678588087799 0.29999999999999999 -0.00000000000000000 0.00000000000000000 -1.00000000000000000 
1 72.49845130209047284 78.39411290944940447 0.00000000000000000 0.00000000000000012 1.00000000000000000 0.00000000000000000 
2 -0.00000000000001190 101.21591461128120670 0.00000000000000000 -0.00000000000000000 -0.00000000000000000 1.00000000000000000 1.00000000000000000 -0.00000000000000012 0.00000000000000000 0.00000000000000012 1.00000000000000000 0.00000000000000000 1.69999999999999996
1 1.69999999999996376 202.43182922256241341 0.00000000000000000 -0.00000000000000006 0.00000000000000000 1.00000000000000000 
2 22.29999999999972360 83.39411290944961763 0.00000000000000000 -0.00000000000000000 -0.00000000000000000 1.00000000000000000 1.00000000000000000 -0.00000000000000012 0.00000000000000000 0.00000000000000012 1.00000000000000000 0.00000000000000000 1.69999999999999996
1 46.29999999999944293 166.78822581889923526 0.00000000000000000 -0.00000000000000006 0.00000000000000000 1.00000000000000000 
2 -22.29999999999970228 83.39411290944941868 0.00000000000000000 -0.00000000000000000 -0.00000000000000000 1.00000000000000000 1.00000000000000000 -0.00000000000000012 0.00000000000000000 0.00000000000000012 1.00000000000000000 0.00000000000000000 1.69999999999999996
1 -42.89999999999940883 166.78822581889883736 0.00000000000000000 -0.00000000000000006 0.00000000000000000 1.00000000000000000 
1 72.49845130209047284 108.29757678588087799 0.00000000000000000 -1.00000000000000000 0.00000000000000012 0.00000000000000000 
1 41.49845130209046573 78.39411290944941868 0.00000000000000000 1.00000000000000000 -0.00000000000000012 0.00000000000000000 
Polygon3D 0
PolygonOnTriangulations 0
Surfaces 21
1 -72.79690260418148284 108.29757678588090641 0.29999999999999999 -1.00000000000000000 0.00000000000000012 0.00000000000000000 -0.00000000000000012 -1.00000000000000000 0.00000000000000000 0.00000000000000000 0.00000000000000000 1.00000000000000000 
1 0.00000000000001289 93.34584484766513413 0.29999999999999988 0.00000000000000000 -0.00000000000000000 1.00000000000000000 -0.00000000000000012 -1.00000000000000000 0.00000000000000000 1.00000000000000000 -0.00000000000000012 -0.00000000000000000 
2 -0.00000000000003620 202.43182922256241341 0.00000000000000000 -0.00000000000000000 -0.00000000000000000 1.00000000000000000 1.00000000000000000 -0.00000000000000012 0.00000000000000000 -0.00000000000000012 -1.00000000000000000 -0.00000000000000000 1.69999999999999996
2 44.59999999999944009 166.78822581889923526 0.00000000000000000 -0.00000000000000000 -0.00000000000000000 1.00000000000000000 1.00000000000000000 -0.00000000000000012 0.00000000000000000 -0.00000000000000012 -1.00000000000000000 -0.00000000000000000 1.69999999999999996
2 -44.59999999999941167 166.78822581889883736 0.00000000000000000 -0.00000000000000000 -0.00000000000000000 1.00000000000000000 1.00000000000000000 -0.00000000000000012 0.00000000000000000 -0.00000000000000012 -1.00000000000000000 -0.00000000000000000 1.69999999999999996
1 72.79690260418151126 78.39411290944940447 0.29999999999999999 1.00000000000000000 -0.00000000000000012 -0.00000000000000000 0.00000000000000012 1.00000000000000000 0.00000000000000000 0.00000000000000000 -0.00000000000000000 1.00000000000000000 
2 868.00000000000000000 259.51351461128120945 -0.10000000000000001 0.00000000000000000 0.00000000000000000 -1.00000000000000000 1.00000000000000000 -0.00000000000000012 0.00000000000000000 0.00000000000000012 1.00000000000000000 0.00000000000000000 1.69999999999999996
2 868.00000000000000000 57.08168538871878184 -0.10000000000000001 -0.00000000000000000 -0.00000000000000000 -1.00000000000000000 -1.00000000000000000 0.00000000000000024 0.00000000000000000 -0.00000000000000024 -1.00000000000000000 0.00000000000000000 1.69999999999999996
2 868.00000000000000000 57.08168538871878184 -0.10000000000000001 -0.00000000000000000 -0.00000000000000000 -1.00000000000000000 -1.00000000000000000 0.00000000000000024 0.00000000000000000 -0.00000000000000024 -1.00000000000000000 0.00000000000000000 1.69999999999999996
2 868.00000000000000000 57.08168538871878184 -0.10000000000000001 -0.00000000000000000 -0.00000000000000000 -1.00000000000000000 -1.00000000000000000 0.00000000000000024 0.00000000000000000 -0.00000000000000024 -1.00000000000000000 0.00000000000000000 1.69999999999999996
2 890.29999999999972715 241.69171290944962038 -0.10000000000000001 0.00000000000000000 0.00000000000000000 -1.00000000000000000 1.00000000000000000 -0.00000000000000012 0.00000000000000000 0.00000000000000012 1.00000000000000000 0.00000000000000000 1.69999999999999996
2 845.70000000000027285 74.90348709055037091 -0.10000000000000001 -0.00000000000000000 -0.00000000000000000 -1.00000000000000000 -1.00000000000000000 0.00000000000000024 0.00000000000000000 -0.00000000000000024 -1.00000000000000000 0.00000000000000000 1.69999999999999996
2 845.70000000000027285 74.90348709055037091 -0.10000000000000001 -0.00000000000000000 -0.00000000000000000 -1.00000000000000000 -1.00000000000000000 0.00000000000000024 0.00000000000000000 -0.00000000000000024 -1.00000000000000000 0.00000000000000000 1.69999999999999996
2 845.70000000000027285 74.90348709055037091 -0.10000000000000001 -0.00000000000000000 -0.00000000000000000 -1.00000000000000000 -1.00000000000000000 0.00000000000000024 0.00000000000000000 -0.00000000000000024 -1.00000000000000000 0.00000000000000000 1.69999999999999996
2 845.70000000000027285 241.69171290944939301 -0.10000000000000001 0.00000000000000000 0.00000000000000000 -1.00000000000000000 1.00000000000000000 -0.00000000000000012 0.00000000000000000 0.00000000000000012 1.00000000000000000 0.00000000000000000 1.69999999999999996
2 890.29999999999972715 74.90348709055056986 -0.10000000000000001 -0.00000000000000000 -0.00000000000000000 -1.00000000000000000 -1.00000000000000000 0.00000000000000024 0.00000000000000000 -0.00000000000000024 -1.00000000000000000 0.00000000000000000 1.69999999999999996
2 890.29999999999972715 74.90348709055056986 -0.10000000000000001 -0.00000000000000000 -0.00000000000000000 -1.00000000000000000 -1.00000000000000000 0.00000000000000024 0.00000000000000000 -0.00000000000000024 -1.00000000000000000 0.00000000000000000 1.69999999999999996
2 890.29999999999972715 74.90348709055056986 -0.10000000000000001 -0.00000000000000000 -0.00000000000000000 -1.00000000000000000 -1.00000000000000000 0.00000000000000024 0.00000000000000000 -0.00000000000000024 -1.00000000000000000 0.00000000000000000 1.69999999999999996
1 0.00000000000001483 108.29757678588084957 0.14999999999999991 0.00000000000000012 1.00000000000000000 -0.00000000000000000 0.00000000000000000 -0.00000000000000000 -1.00000000000000000 -1.00000000000000000 0.00000000000000012 -0.00000000000000000 
1 0.00000000000001143 93.34584484766511991 0.00000000000000000 0.00000000000000000 0.00000000000000000 -1.00000000000000000 1.00000000000000000 -0.00000000000000012 0.00000000000000000 -0.00000000000000012 -1.00000000000000000 -0.00000000000000000 
1 0.00000000000000804 78.39411290944937605 0.14999999999999991 -0.00000000000000012 -1.00000000000000000 0.00000000000000000 0.00000000000000000 0.00000000000000000 1.00000000000000000 -1.00000000000000000 0.00000000000000012 0.00000000000000000 
Triangulations 0

TShapes 61
Ve
0.000000100000000
72.498451302090430 -108.297576785880921 0.300000000000004
0 0

0101101
*
Ve
0.000000100000000
72.498451302090430 -108.297576785880921 0.000000000000007
0 0

0101101
*
Ed
 0.000000100000000 1 1 0
1  1 0 0.000000000000000 0.300000000000000
0

0101000
+61 11 -60 11 *
Ve
0.000000100000000
72.498451302090430 -78.394112909449447 0.300000000000004
0 0

0101101
*
Ve
0.000000100000000
72.498451302090430 -78.394112909449447 0.000000000000007
0 0

0101101
*
Ed
 0.000000100000000 1 1 0
1  2 0 0.000000000000000 0.300000000000000
0

0101000
+58 11 -57 11 *
Ed
 0.000000100000000 1 1 0
1  3 0 0.000000000000000 29.903463876431474
0

0101000
+61 11 -58 11 *
Ed
 0.000000100000000 1 1 0
1  4 0 0.000000000000000 29.903463876431474
0

0101000
+60 11 -57 11 *
Wi

0101100
+59 9 -56 9 -55 9 +54 9 *
Fa
0  0.000000100000000 1 0

0111000
+53 0 *
Ve
0.000000100000000
-72.498451302090487 -78.394112909449390 0.300000000000004
0 0

0101101
*
Ed
 0.000000100000000 1 1 0
1  5 0 0.000000000000000 144.996902604180917
0

0101000
+58 11 -51 11 *
Ve
0.000000100000000
-72.498451302090487 -108.297576785880864 0.300000000000004
0 0

0101101
*
Ed
 0.000000100000000 1 1 0
1  6 0 0.000000000000000 29.903463876431474
0

0101000
+51 11 -49 11 *
Ed
 0.000000100000000 1 1 0
1  7 0 0.000000000000000 144.996902604180917
0

0101000
+49 11 -61 11 *
Wi

0101000
+55 0 +50 0 +48 0 +47 0 *
Ve
0.000000100000002
-1.699999999999998 -101.215914611281207 0.299999999999997
0 0

0101101
*
Ed
 0.000000100000000 1 1 0
1  8 0 0.000000000000000 6.283185307179586
2  1 3 13 0.000000000000000 6.283185307179586
0

0101000
+45 11 -45 11 *
Wi

0101100
-44 0 *
Ve
0.000000100000004
-23.999999999999730 -83.394112909449618 0.299999999999997
0 0

0101101
*
Ed
 0.000000100000000 1 1 0
1  9 0 0.000000000000000 6.283185307179586
2  2 4 15 0.000000000000000 6.283185307179586
0

0101000
+42 11 -42 11 *
Wi

0101100
-41 0 *
Ve
0.000000100000004
20.599999999999696 -83.394112909449419 0.299999999999997
0 0

0101101
*
Ed
 0.000000100000000 1 1 0
1  10 0 0.000000000000000 6.283185307179586
2  3 5 17 0.000000000000000 6.283185307179586
0

0101000
+39 11 -39 11 *
Wi

0101100
-38 0 *
Fa
0  0.000000100000000 2 0

0111000
+46 0 +43 0 +40 0 +37 0 *
Ve
0.000000100000000
-72.498451302090487 -78.394112909449390 0.000000000000007
0 0

0101101
*
Ed
 0.000000100000000 1 1 0
1  11 0 0.000000000000000 0.300000000000000
0

0101000
+51 11 -35 11 *
Ve
0.000000100000000
-72.498451302090487 -108.297576785880864 0.000000000000007
0 0

0101101
*
Ed
 0.000000100000000 1 1 0
1  12 0 0.000000000000000 0.300000000000000
0

0101000
+49 11 -33 11 *
Ed
 0.000000100000000 1 1 0
1  13 0 0.000000000000000 29.903463876431474
0

0101000
+35 11 -33 11 *
Wi

0101100
+34 22 -32 22 -48 22 +31 22 *
Fa
0  0.000000100000000 6 0

0111000
+30 0 *
Ve
0.000000100000002
-1.699999999999998 -101.215914611281207 0.000000000000000
0 0

0101101
*
Ed
 0.000000100000000 1 1 0
1  14 0 0.000000000000000 6.283185307179586
2  4 3 13 0.000000000000000 6.283185307179586
2  5 7 26 0.000000000000000 6.283185307179586
2  6 7 28 0.000000000000000 6.283185307179586
2  7 8 31 0.000000000000000 6.283185307179586
2  8 8 33 0.000000000000000 6.283185307179586
2  9 9 35 0.000000000000000 6.283185307179586
2  10 9 37 0.000000000000000 6.283185307179586
2  11 10 39 0.000000000000000 6.283185307179586
2  12 10 41 0.000000000000000 6.283185307179586
0

0101000
+28 11 -28 11 *
Ed
 0.000000100000000 1 1 0
1  15 0 37.100000000000001 37.399999999999999
3  13 14CN 3 0 37.100000000000001 37.399999999999999
0

0101000
+28 42 -45 42 *
Wi

0101100
-27 23 -26 12 +44 23 +26 12 *
Fa
0  0.000000100000000 3 12

0111000
+25 0 *
Ve
0.000000100000004
-23.999999999999730 -83.394112909449618 0.000000000000000
0 0

0101101
*
Ed
 0.000000100000000 1 1 0
1  16 0 0.000000000000000 6.283185307179586
2  15 4 15 0.000000000000000 6.283185307179586
2  16 11 44 0.000000000000000 6.283185307179586
2  17 11 46 0.000000000000000 6.283185307179586
2  18 12 48 0.000000000000000 6.283185307179586
2  19 12 50 0.000000000000000 6.283185307179586
2  20 13 52 0.000000000000000 6.283185307179586
2  21 13 54 0.000000000000000 6.283185307179586
2  22 14 56 0.000000000000000 6.283185307179586
2  23 14 58 0.000000000000000 6.283185307179586
0

0101000
+23 11 -23 11 *
Ed
 0.000000100000000 1 1 0
1  17 0 37.100000000000001 37.399999999999999
3  24 25CN 4 0 37.100000000000001 37.399999999999999
0

0101000
+23 59 -42 59 *
Wi

0101100
-22 23 -21 14 +41 23 +21 14 *
Fa
0  0.000000100000000 4 14

0111000
+20 0 *
Ve
0.000000100000004
20.599999999999696 -83.394112909449419 0.000000000000000
0 0

0101101
*
Ed
 0.000000100000000 1 1 0
1  18 0 0.000000000000000 6.283185307179586
2  26 5 17 0.000000000000000 6.283185307179586
2  27 15 61 0.000000000000000 6.283185307179586
2  28 15 63 0.000000000000000 6.283185307179586
2  29 16 65 0.000000000000000 6.283185307179586
2  30 16 67 0.000000000000000 6.283185307179586
2  31 17 69 0.000000000000000 6.283185307179586
2  32 17 71 0.000000000000000 6.283185307179586
2  33 18 73 0.000000000000000 6.283185307179586
2  34 18 75 0.000000000000000 6.283185307179586
0

0101000
+18 11 -18 11 *
Ed
 0.000000100000000 1 1 0
1  19 0 37.100000000000001 37.399999999999999
3  35 36CN 5 0 37.100000000000001 37.399999999999999
0

0101000
+18 76 -39 76 *
Wi

0101100
-17 23 -16 16 +38 23 +16 16 *
Fa
0  0.000000100000000 5 16

0111000
+15 0 *
Ed
 0.000000100000000 1 1 0
1  20 0 0.000000000000000 144.996902604180917
0

0101000
+33 11 -60 11 *
Wi

0101000
-59 0 -47 0 +32 0 +13 0 *
Fa
0  0.000000100000000 19 0

0111000
+12 0 *
Ed
 0.000000100000000 1 1 0
1  21 0 -113.996902604180917 31.000000000000000
0

0101000
+57 11 -35 11 *
Wi

0101000
-13 0 -31 0 -10 0 -54 0 *
Wi

0101100
+27 0 *
Wi

0101100
+22 0 *
Wi

0101100
+17 0 *
Fa
0  0.000000100000000 20 0

0111000
+9 0 +8 0 +7 0 +6 0 *
Wi

0101000
+56 0 +10 0 -34 0 -50 0 *
Fa
0  0.000000100000000 21 0

0111000
+4 0 *
Sh

0101000
+52 8 +36 0 +29 21 +24 5 +19 5 +14 5 +11 0 +5 0 +3 0 *
So

0100000
+2 0 *

+1 1 