
CASCADE Topology V1, (c) Matra-Datavision
Locations 27
1
1.000000000000000 0.000000000000000 0.000000000000000 0.000000000000000 
0.000000000000000 0.000000000000000 -1.000000000000000 1670.000000000000000 
0.000000000000000 1.000000000000000 0.000000000000000 1677.999999999999773 
1
1.000000000000000 0.000000000000000 0.000000000000000 0.000000000000000 
0.000000000000000 1.000000000000000 0.000000000000000 0.000000000000000 
0.000000000000000 0.000000000000000 1.000000000000000 0.000000000000000 
1
1.000000000000000 0.000000000000000 0.000000000000000 0.000000000000000 
0.000000000000000 1.000000000000000 0.000000000000000 0.000000000000000 
0.000000000000000 0.000000000000000 1.000000000000000 0.000000000000000 
2  1 1 2 1 3 -1 0
1
1.000000000000000 0.000000000000000 0.000000000000000 0.000000000000001 
0.000000000000000 1.000000000000000 0.000000000000000 -2.000000000000000 
0.000000000000000 0.000000000000000 1.000000000000000 0.000000000000000 
2  5 -1 0
1
1.000000000000000 0.000000000000000 0.000000000000000 0.000000000000000 
0.000000000000000 1.000000000000000 0.000000000000000 0.000000000000000 
0.000000000000000 0.000000000000000 1.000000000000000 0.000000000000000 
2  7 1 3 1 2 -1 1 -1 0
2  5 1 1 1 2 1 3 -1 0
2  7 1 3 1 2 -1 1 -1 5 -1 0
1
1.000000000000000 0.000000000000000 0.000000000000000 0.000000000000000 
0.000000000000000 1.000000000000000 0.000000000000000 0.000000000000000 
0.000000000000000 0.000000000000000 1.000000000000000 0.000000000000000 
2  1 1 11 1 0
2  1 1 2 1 3 -1 7 -1 0
2  5 1 1 1 11 1 0
2  5 1 1 1 2 1 3 -1 7 -1 0
1
1.000000000000000 0.000000000000000 0.000000000000000 0.000000000000000 
0.000000000000000 1.000000000000000 0.000000000000000 0.000000000000000 
0.000000000000000 0.000000000000000 1.000000000000000 0.000000000000000 
1
1.000000000000000 0.000000000000000 0.000000000000000 0.000000000000000 
0.000000000000000 1.000000000000000 0.000000000000000 0.000000000000000 
0.000000000000000 0.000000000000000 1.000000000000000 0.000000000000000 
2  16 1 17 1 2 1 3 -1 0
2  7 1 3 1 2 -1 17 -1 16 -1 0
2  17 -1 16 -1 0
2  16 1 17 1 11 1 0
2  16 1 17 1 2 1 3 -1 7 -1 0
1
1.000000000000000 0.000000000000000 0.000000000000000 0.000000000000000 
0.000000000000000 1.000000000000000 0.000000000000000 0.000000000000000 
0.000000000000000 0.000000000000000 1.000000000000000 1596.000000000000000 
2  23 1 16 1 17 1 2 1 3 -1 0
2  23 -1 0
2  7 1 3 1 2 -1 17 -1 16 -1 23 -1 0
2  17 -1 16 -1 23 -1 0
Curve2ds 60
1 33.00000000000000000 -14.30000000000000426 0.00000000000000000 1.00000000000000000 
1 0.00000000000000000 0.00000000000000000 1.00000000000000000 0.00000000000000000 
1 0.00000000000000000 -1.99999999999999978 1.00000000000000000 0.00000000000000000 
1 0.00000000000000000 0.00000000000000000 0.00000000000000000 -1.00000000000000000 
1 28.60000000000000853 0.00000000000000000 0.00000000000000026 -1.00000000000000000 
1 0.00000000000000000 0.00000000000000000 0.00000000000000000 1.00000000000000000 
1 23.60000000000000853 0.00000000000000000 0.00000000000000026 -1.00000000000000000 
1 23.60000000000000853 0.00000000000000000 0.00000000000000026 -1.00000000000000000 
1 0.00000000000000000 0.00000000000000000 1.00000000000000000 0.00000000000000000 
1 0.00000000000000000 -1.99999999999999978 1.00000000000000000 0.00000000000000000 
1 33.00000000000000000 14.30000000000000426 -1.00000000000000000 0.00000000000000000 
1 -4.71238898038468967 0.00000000000000000 1.00000000000000000 0.00000000000000000 
2 28.00000000000000000 9.30000000000000426 0.00000000000000000 1.00000000000000000 -1.00000000000000000 0.00000000000000000 5.00000000000000000
2 28.00000000000000000 9.30000000000000426 0.00000000000000000 1.00000000000000000 -1.00000000000000000 0.00000000000000000 5.00000000000000000
1 1.57079632679489656 0.00000000000000000 0.00000000000000000 1.00000000000000000 
1 5.00000000000000000 0.00000000000000000 0.00000000000000000 -1.00000000000000000 
1 5.00000000000000000 0.00000000000000000 0.00000000000000000 -1.00000000000000000 
1 -4.71238898038468967 2.00000000000000000 1.00000000000000000 0.00000000000000000 
2 28.00000000000000000 9.30000000000000249 0.00000000000000000 1.00000000000000000 -1.00000000000000000 0.00000000000000000 5.00000000000000000
2 28.00000000000000000 9.30000000000000426 0.00000000000000000 1.00000000000000000 -1.00000000000000000 0.00000000000000000 5.00000000000000000
1 -3.99999999999999956 0.00000000000000000 1.00000000000000000 0.00000000000000000 
1 0.00000000000000000 -2.00000000000000000 1.00000000000000000 0.00000000000000000 
1 15.00000000000000000 0.00000000000000000 0.00000000000000000 -1.00000000000000000 
1 0.00000000000000000 -2.00000000000000000 1.00000000000000000 0.00000000000000000 
7 0 0  5 34 9  0.00000000000000000 -0.00000000000003986  0.06189073446163054 -0.00000000000003909  0.12248342593441078 -0.00000000000003659  0.18193825973949493 -0.00000000000003542  0.24040040207179908 -0.00000000000003577  0.34001846072334907 -0.00000000000003433  0.38157827852160520 -0.00000000000003157  0.42273027677202268 -0.00000000000003098  0.46352245722418406 -0.00000000000003254  0.53349956560625267 -0.00000000000003152  0.56283208236320692 -0.00000000000003119  0.59201508761485033 -0.00000000000003079  0.62106557610953961 -0.00000000000003033  0.72092085318431232 -0.00000000000002900  0.79114619460680635 -0.00000000000002796  0.86091404202814026 -0.00000000000002429  0.93045786119289708 -0.00000000000002650  1.06954213880712912 -0.00000000000002506  1.13908595797180867 -0.00000000000002390  1.20885380539324583 -0.00000000000002145  1.27907914681566726 -0.00000000000002327  1.37893442389046195 -0.00000000000002261  1.40798491238515355 -0.00000000000002385  1.43716791763679685 -0.00000000000002225  1.46650043439374800 -0.00000000000001854  1.53647754277581639 -0.00000000000001826  1.57726972322798109 -0.00000000000002057  1.61842172147839847 -0.00000000000002183  1.65998153927665237 -0.00000000000002135  1.75959959792820575 -0.00000000000002116  1.81806174026050549 -0.00000000000001998  1.87751657406558969 -0.00000000000001992  1.93810926553837426 -0.00000000000002101  2.00000000000000222 -0.00000000000002112 
 0.00000000000000000 6 0.14028202998797867 4 0.24261668472964759 4 0.31719699900575471 4 0.49999999999998801 4 0.68280300099428315 4 0.75738331527038838 4 0.85971797001204209 4 1.00000000000000000 6
7 0 0  5 34 9  10.00000000000000000 0.00000000000000000  10.21881679015217337 0.00000000000000000  10.43800273925391053 -0.01197051388797572  10.65662233432577821 -0.03599075439140496  10.87374733589131814 -0.07202282046016836  11.24508565358926226 -0.15484626211685343  11.40043058748900151 -0.19609095282817232  11.55413525848246081 -0.24358590149335396  11.70585178191828746 -0.29724018862469404  11.96411363460759780 -0.40043443145786722  12.07175058173514337 -0.44714378447409153  12.17802037213298760 -0.49701277425487511  12.28279542658319734 -0.54998608398419579  12.63879715145781546 -0.74329582094841662  12.88192376474881939 -0.89886410358852054  13.11349227951703256 -1.07176110601201202  13.33184969714889156 -1.26078188528341695  13.73921811471665322 -1.66815030285117860  13.92823889398784409 -1.88650772048277826  14.10113589641161802 -2.11807623525137556  14.25670417905153897 -2.36120284854210638  14.45001391601580210 -2.71720457341680355  14.50298722574512666 -2.82197962786701950  14.55285621552591557 -2.92824941826486151  14.59956556854213261 -3.03588636539239776  14.70275981137530685 -3.29414821808170766  14.75641409850665298 -3.44586474151754762  14.80390904717183354 -3.59956941251100559  14.84515373788314285 -3.75491434641073329  14.92797717953983394 -4.12625266410869163  14.96400924560860268 -4.34337766567421379  14.98802948611202979 -4.56199726074608147  15.00000000000000000 -4.78118320984783374  15.00000000000000000 -4.99999999999999911 
 0.00000000000000000 6 0.14028202998797867 4 0.24261668472964759 4 0.31719699900575471 4 0.49999999999998801 4 0.68280300099428315 4 0.75738331527038838 4 0.85971797001204209 4 1.00000000000000000 6
7 0 0  5 34 9  10.00000000000000000 0.00000000000000000  10.21881679015217337 0.00000000000000000  10.43800273925391053 -0.01197051388797572  10.65662233432577821 -0.03599075439140496  10.87374733589131814 -0.07202282046016836  11.24508565358926226 -0.15484626211685343  11.40043058748900151 -0.19609095282817232  11.55413525848246081 -0.24358590149335396  11.70585178191828746 -0.29724018862469404  11.96411363460759780 -0.40043443145786722  12.07175058173514159 -0.44714378447409153  12.17802037213298760 -0.49701277425487511  12.28279542658319556 -0.54998608398419579  12.63879715145781546 -0.74329582094841662  12.88192376474881939 -0.89886410358852054  13.11349227951703256 -1.07176110601201202  13.33184969714888979 -1.26078188528341695  13.73921811471665322 -1.66815030285117860  13.92823889398784232 -1.88650772048277826  14.10113589641161624 -2.11807623525137556  14.25670417905153897 -2.36120284854210638  14.45001391601580210 -2.71720457341680355  14.50298722574512666 -2.82197962786701950  14.55285621552591380 -2.92824941826486151  14.59956556854213261 -3.03588636539239776  14.70275981137530508 -3.29414821808170766  14.75641409850665298 -3.44586474151754762  14.80390904717183176 -3.59956941251100559  14.84515373788314108 -3.75491434641073329  14.92797717953983394 -4.12625266410869163  14.96400924560860091 -4.34337766567421379  14.98802948611202979 -4.56199726074608147  15.00000000000000000 -4.78118320984783374  15.00000000000000000 -4.99999999999999911 
 0.00000000000000000 6 0.14028202998797867 4 0.24261668472964759 4 0.31719699900575471 4 0.49999999999998801 4 0.68280300099428315 4 0.75738331527038838 4 0.85971797001204209 4 1.00000000000000000 6
1 0.00000000000000000 0.00000000000000000 0.00000000000000000 1.00000000000000000 
7 0 0  1 2 2  14.00000000000000000 -1.99999999999998979  14.00000000000000000 0.00000000000001077 
 -0.00000000000002952 2 1.99999999999997291 2
7 0 0  2 5 4  14.00000000000000000 -2.12239999999998830  14.00000000000000000 -2.06119999999998882  14.00000000000000000 -0.99999999999998934  14.00000000000000000 0.06120000000001014  14.00000000000000000 0.12240000000000961 
 -0.12240000000002893 3 -0.00000000000002952 1 1.99999999999997291 1 2.12239999999997186 3
1 0.00000000000000000 0.00000000000000000 1.00000000000000000 0.00000000000000000 
1 -3.99999999999999956 0.00000000000000000 1.00000000000000000 0.00000000000000000 
6 0 1 0.00000000000000000 -2.00000000000000000  0.00000000000000000 0.00000000000000000  
6 0 1 19.00000000000000000 -2.00000000000000000  19.00000000000000000 0.00000000000000000  
1 0.00000000000000000 0.00000000000000000 1.00000000000000000 0.00000000000000000 
1 15.00000000000000000 0.00000000000000000 0.00000000000000000 -1.00000000000000000 
1 2.00000000000000222 0.00000000000000000 0.00000000000000000 1.00000000000000000 
7 0 0  1 2 2  5.00000000000000000 -2.00000000000000799  5.00000000000000000 -0.00000000000000755 
 -0.00000000000002952 2 1.99999999999997291 2
7 0 0  2 5 4  5.00000000000000000 -2.12240000000000606  5.00000000000000000 -2.06120000000000658  5.00000000000000000 -1.00000000000000711  5.00000000000000000 0.06119999999999237  5.00000000000000000 0.12239999999999185 
 -0.12240000000002893 3 -0.00000000000002952 1 1.99999999999997291 1 2.12239999999997186 3
7 0 0  5 34 9  0.00000000000000000 1.99999999999996203  0.06189073446163039 1.99999999999996314  0.12248342593441086 1.99999999999996581  0.18193825973949507 1.99999999999996692  0.24040040207179891 1.99999999999996581  0.34001846072334840 1.99999999999996692  0.38157827852160575 1.99999999999997025  0.42273027677202341 1.99999999999997091  0.46352245722418361 1.99999999999996980  0.53349956560625267 1.99999999999997047  0.56283208236320692 1.99999999999997025  0.59201508761485033 1.99999999999997113  0.62106557610953961 1.99999999999997335  0.72092085318431232 1.99999999999997446  0.79114619460680635 1.99999999999997402  0.86091404202814026 1.99999999999997180  0.93045786119289708 1.99999999999997646  1.06954213880712201 1.99999999999997780  1.13908595797182621 1.99999999999997491  1.20885380539322829 1.99999999999997913  1.27907914681567458 1.99999999999998024  1.37893442389046172 1.99999999999998090  1.40798491238515444 1.99999999999998002  1.43716791763679774 1.99999999999998002  1.46650043439374755 1.99999999999998046  1.53647754277581683 1.99999999999998090  1.57726972322798042 1.99999999999998157  1.61842172147839847 1.99999999999998157  1.65998153927665260 1.99999999999998046  1.75959959792820553 1.99999999999998090  1.81806174026050549 1.99999999999998290  1.87751657406558969 1.99999999999998290  1.93810926553837426 1.99999999999998090  2.00000000000000222 1.99999999999998090 
 0.00000000000000000 6 0.14028202998798533 4 0.24261668472965703 4 0.31719699900576526 4 0.50000000000000133 4 0.68280300099428082 4 0.75738331527038671 4 0.85971797001204109 4 1.00000000000000000 6
7 0 0  5 34 9  10.00000000000000000 0.00000000000000000  10.21881679015217337 0.00000000000000000  10.43800273925391231 -0.01197051388797572  10.65662233432577821 -0.03599075439140460  10.87374733589131814 -0.07202282046016766  11.24508565358926049 -0.15484626211685271  11.40043058748900151 -0.19609095282817252  11.55413525848246081 -0.24358590149335413  11.70585178191828746 -0.29724018862469331  11.96411363460759780 -0.40043443145786722  12.07175058173514337 -0.44714378447409153  12.17802037213298760 -0.49701277425487511  12.28279542658319734 -0.54998608398419579  12.63879715145781546 -0.74329582094841662  12.88192376474881939 -0.89886410358852054  13.11349227951703256 -1.07176110601201202  13.33184969714889156 -1.26078188528341695  13.73921811471663190 -1.66815030285115817  13.92823889398789206 -1.88650772048283333  14.10113589641157361 -2.11807623525131739  14.25670417905155318 -2.36120284854213258  14.45001391601580210 -2.71720457341680177  14.50298722574513022 -2.82197962786702083  14.55285621552591557 -2.92824941826486285  14.59956556854213261 -3.03588636539239598  14.70275981137530685 -3.29414821808170810  14.75641409850665298 -3.44586474151754718  14.80390904717183354 -3.59956941251100471  14.84515373788314641 -3.75491434641073463  14.92797717953983394 -4.12625266410868985  14.96400924560860268 -4.34337766567421291  14.98802948611202979 -4.56199726074608147  15.00000000000000000 -4.78118320984783374  15.00000000000000000 -4.99999999999999911 
 0.00000000000000000 6 0.14028202998798533 4 0.24261668472965703 4 0.31719699900576526 4 0.50000000000000133 4 0.68280300099428082 4 0.75738331527038671 4 0.85971797001204109 4 1.00000000000000000 6
7 0 0  5 34 9  10.00000000000000000 0.00000000000000000  10.21881679015217337 0.00000000000000000  10.43800273925391231 -0.01197051388797572  10.65662233432577821 -0.03599075439140460  10.87374733589131814 -0.07202282046016766  11.24508565358926049 -0.15484626211685271  11.40043058748900151 -0.19609095282817252  11.55413525848246081 -0.24358590149335413  11.70585178191828746 -0.29724018862469331  11.96411363460759780 -0.40043443145786722  12.07175058173514159 -0.44714378447409153  12.17802037213298760 -0.49701277425487511  12.28279542658319556 -0.54998608398419579  12.63879715145781546 -0.74329582094841662  12.88192376474881939 -0.89886410358852054  13.11349227951703256 -1.07176110601201202  13.33184969714888979 -1.26078188528341695  13.73921811471663190 -1.66815030285115817  13.92823889398789206 -1.88650772048283333  14.10113589641157361 -2.11807623525131739  14.25670417905155318 -2.36120284854213258  14.45001391601580210 -2.71720457341680177  14.50298722574513022 -2.82197962786702083  14.55285621552591380 -2.92824941826486285  14.59956556854213261 -3.03588636539239598  14.70275981137530508 -3.29414821808170810  14.75641409850665298 -3.44586474151754718  14.80390904717183176 -3.59956941251100471  14.84515373788314463 -3.75491434641073463  14.92797717953983394 -4.12625266410868985  14.96400924560860091 -4.34337766567421291  14.98802948611202979 -4.56199726074608147  15.00000000000000000 -4.78118320984783374  15.00000000000000000 -4.99999999999999911 
 0.00000000000000000 6 0.14028202998798533 4 0.24261668472965703 4 0.31719699900576526 4 0.50000000000000133 4 0.68280300099428082 4 0.75738331527038671 4 0.85971797001204109 4 1.00000000000000000 6
7 0 0  5 34 9  0.00000000000000000 -0.00000000000003718  0.06189073446160613 -0.00000000000003658  0.12248342593437714 -0.00000000000003427  0.18193825973944294 -0.00000000000003248  0.24040040207171690 -0.00000000000003163  0.34001846072324671 -0.00000000000002944  0.38157827852146892 -0.00000000000002852  0.42273027677188135 -0.00000000000002735  0.46352245722406138 -0.00000000000002597  0.53349956560609257 -0.00000000000002373  0.56283208236302262 -0.00000000000002365  0.59201508761465715 -0.00000000000002261  0.62106557610935542 -0.00000000000002060  0.72092085318408483 -0.00000000000001674  0.79114619460664282 -0.00000000000001485  0.86091404202784882 -0.00000000000001211  0.93045786119265461 -0.00000000000000709  1.06954213880684801 0.00000000000000011  1.13908595797151335 -0.00000000000000198  1.20885380539298892 0.00000000000001504  1.27907914681532064 0.00000000000000831  1.37893442389011489 0.00000000000001417  1.40798491238487244 0.00000000000001899  1.43716791763650242 0.00000000000002213  1.46650043439336875 0.00000000000002288  1.53647754277543114 0.00000000000002700  1.57726972322767667 0.00000000000002847  1.61842172147808716 0.00000000000003090  1.65998153927624381 0.00000000000003427  1.75959959792776433 0.00000000000004000  1.81806174026012046 0.00000000000004338  1.87751657406519579 0.00000000000004668  1.93810926553790130 0.00000000000004993  1.99999999999951328 0.00000000000005329 
 0.00000000000000000 6 0.14028202998788331 4 0.24261668472953102 4 0.31719699900567699 4 0.49999999999993849 4 0.68280300099428881 4 0.75738331527040803 4 0.85971797001205263 4 1.00000000000000000 6
7 0 0  5 34 9  10.00000000000000178 -1596.00000000000000000  10.21881679015214317 -1596.00000000000000000  10.43800273925389632 -1595.98802948611228203  10.65662233432574979 -1595.96400924560884960  10.87374733589123288 -1595.92797717953953907  11.24508565358919121 -1595.84515373788303805  11.40043058748883809 -1595.80390904717205558  11.55413525848231515 -1595.75641409850709351  11.70585178191825193 -1595.70275981137547205  11.96411363460749122 -1595.59956556854240262  12.07175058173497106 -1595.55285621552616249  12.17802037213280997 -1595.50298722574507337  12.28279542658308188 -1595.45001391601590512  12.63879715145763605 -1595.25670417905189424  12.88192376474890111 -1595.10113589641150611  13.11349227951678564 -1594.92823889398823667  13.33184969714884538 -1594.73921811471677756  13.73921811471660170 -1594.33184969714898216  13.92823889398783166 -1594.11349227951723151  14.10113589641167309 -1593.88192376474876255  14.25670417905146969 -1593.63879715145799310  14.45001391601578611 -1593.28279542658333412  14.50298722574523325 -1593.17802037213323274  14.55285621552601150 -1593.07175058173515936  14.59956556854210064 -1592.96411363460742905  14.70275981137529087 -1592.70585178191822706  14.75641409850674890 -1592.55413525848234713  14.80390904717193123 -1592.40043058748915428  14.84515373788314108 -1592.24508565358928536  14.92797717953982328 -1591.87374733589103926  14.96400924560862755 -1591.65662233432567518  14.98802948611206354 -1591.43800273925398869  15.00000000000000000 -1591.21881679015200461  15.00000000000000000 -1591.00000000000000000 
 0.00000000000000000 6 0.14028202998788331 4 0.24261668472953102 4 0.31719699900567699 4 0.49999999999993849 4 0.68280300099428881 4 0.75738331527040803 4 0.85971797001205263 4 1.00000000000000000 6
7 0 0  5 34 9  10.00000000000000178 -1596.00000000000000000  10.21881679015214317 -1596.00000000000000000  10.43800273925389632 -1595.98802948611228203  10.65662233432574979 -1595.96400924560884960  10.87374733589123288 -1595.92797717953953907  11.24508565358919121 -1595.84515373788303805  11.40043058748883809 -1595.80390904717205558  11.55413525848231515 -1595.75641409850709351  11.70585178191825193 -1595.70275981137547205  11.96411363460749122 -1595.59956556854240262  12.07175058173497106 -1595.55285621552616249  12.17802037213280997 -1595.50298722574507337  12.28279542658308188 -1595.45001391601590512  12.63879715145763427 -1595.25670417905189424  12.88192376474890111 -1595.10113589641150611  13.11349227951678387 -1594.92823889398823667  13.33184969714884360 -1594.73921811471677756  13.73921811471659993 -1594.33184969714898216  13.92823889398783166 -1594.11349227951723151  14.10113589641167309 -1593.88192376474876255  14.25670417905146792 -1593.63879715145799310  14.45001391601578433 -1593.28279542658333412  14.50298722574523325 -1593.17802037213323274  14.55285621552600972 -1593.07175058173515936  14.59956556854210064 -1592.96411363460742905  14.70275981137529087 -1592.70585178191822706  14.75641409850674890 -1592.55413525848234713  14.80390904717193123 -1592.40043058748915428  14.84515373788314108 -1592.24508565358928536  14.92797717953982328 -1591.87374733589103926  14.96400924560862578 -1591.65662233432567518  14.98802948611206176 -1591.43800273925398869  15.00000000000000000 -1591.21881679015200461  15.00000000000000000 -1591.00000000000000000 
 0.00000000000000000 6 0.14028202998788331 4 0.24261668472953102 4 0.31719699900567699 4 0.49999999999993849 4 0.68280300099428881 4 0.75738331527040803 4 0.85971797001205263 4 1.00000000000000000 6
1 -3.99999999999999956 -1596.00000000000000000 1.00000000000000000 0.00000000000000000 
1 0.00000000000000000 -2.00000000000000000 -1.00000000000000000 0.00000000000000000 
1 0.00000000000000000 0.00000000000000000 0.00000000000000000 1.00000000000000000 
7 0 0  1 2 2  -14.00000000000000000 -2.00000000000002665  -14.00000000000000000 -0.00000000000050893 
 -0.00000000000006552 2 1.99999999999944778 2
7 0 0  2 5 4  -14.00000000000000000 -2.12240000000002738  -14.00000000000000000 -2.06119999999999592  -14.00000000000000000 -1.00000000000026645  -14.00000000000000000 0.06119999999945946  -14.00000000000000000 0.12239999999949092 
 -0.12239999999999927 3 -0.00000000000006552 1 1.99999999999944778 1 2.12239999999938211 3
1 1.99999999999951328 0.00000000000000000 0.00000000000000000 1.00000000000000000 
7 0 0  1 2 2  1591.00000000000000000 -2.00000000000011724  1591.00000000000000000 0.00000000000046618 
 -0.00000000000006552 2 1.99999999999944778 2
7 0 0  2 5 4  1591.00000000000000000 -2.12240000000011619  1591.00000000000000000 -2.06120000000011672  1591.00000000000000000 -0.99999999999982592  1591.00000000000000000 0.06120000000046488  1591.00000000000000000 0.12240000000046436 
 -0.12239999999999927 3 -0.00000000000006552 1 1.99999999999944778 1 2.12239999999938211 3
7 0 0  5 34 9  0.00000000000000000 1.99999999999995337  0.06189073446160613 1.99999999999995448  0.12248342593437714 1.99999999999995515  0.18193825973944294 1.99999999999995248  0.24040040207171690 1.99999999999994560  0.34001846072324693 1.99999999999993028  0.38157827852146864 1.99999999999992073  0.42273027677188119 1.99999999999991229  0.46352245722406166 1.99999999999990519  0.53349956560609257 1.99999999999988565  0.56283208236302262 1.99999999999987432  0.59201508761465715 1.99999999999986433  0.62106557610935542 1.99999999999985567  0.72092085318409649 1.99999999999981903  0.79114619460661206 1.99999999999978706  0.86091404202787902 1.99999999999975842  0.93045786119264373 1.99999999999971756  1.06954213880684446 1.99999999999963851  1.13908595797152090 1.99999999999960165  1.20885380539297627 1.99999999999954992  1.27907914681533041 1.99999999999950417  1.37893442389011311 1.99999999999943401  1.40798491238487378 1.99999999999941447  1.43716791763650398 1.99999999999939315  1.46650043439336719 1.99999999999937050  1.53647754277543380 1.99999999999931921  1.57726972322767378 1.99999999999929012  1.61842172147808450 1.99999999999926037  1.65998153927624625 1.99999999999923017  1.75959959792776433 1.99999999999915690  1.81806174026012046 1.99999999999911426  1.87751657406519579 1.99999999999906986  1.93810926553790130 1.99999999999902367  1.99999999999951328 1.99999999999898037 
 0.00000000000000000 6 0.14028202998787587 4 0.24261668472951858 4 0.31719699900566145 4 0.49999999999994554 4 0.68280300099428026 4 0.75738331527039882 4 0.85971797001204386 4 1.00000000000000000 6
7 0 0  5 34 9  10.00000000000000178 -1596.00000000000000000  10.21881679015214317 -1596.00000000000000000  10.43800273925389632 -1595.98802948611228203  10.65662233432574979 -1595.96400924560884960  10.87374733589123288 -1595.92797717953953907  11.24508565358919299 -1595.84515373788303805  11.40043058748883986 -1595.80390904717205558  11.55413525848231515 -1595.75641409850709351  11.70585178191825548 -1595.70275981137547205  11.96411363460749122 -1595.59956556854240262  12.07175058173497106 -1595.55285621552616249  12.17802037213280997 -1595.50298722574507337  12.28279542658308188 -1595.45001391601590512  12.63879715145767690 -1595.25670417905189424  12.88192376474880341 -1595.10113589641150611  13.11349227951687624 -1594.92823889398800929  13.33184969714881341 -1594.73921811471677756  13.73921811471659105 -1594.33184969714898216  13.92823889398786008 -1594.11349227951723151  14.10113589641164111 -1593.88192376474876255  14.25670417905148923 -1593.63879715145799310  14.45001391601578078 -1593.28279542658333412  14.50298722574523502 -1593.17802037213323274  14.55285621552601150 -1593.07175058173515936  14.59956556854209886 -1592.96411363460742905  14.70275981137529620 -1592.70585178191822706  14.75641409850674357 -1592.55413525848234713  14.80390904717193123 -1592.40043058748915428  14.84515373788314285 -1592.24508565358928536  14.92797717953982328 -1591.87374733589103926  14.96400924560862755 -1591.65662233432567518  14.98802948611206354 -1591.43800273925398869  15.00000000000000000 -1591.21881679015200461  15.00000000000000000 -1591.00000000000000000 
 0.00000000000000000 6 0.14028202998787587 4 0.24261668472951858 4 0.31719699900566145 4 0.49999999999994554 4 0.68280300099428026 4 0.75738331527039882 4 0.85971797001204386 4 1.00000000000000000 6
7 0 0  5 34 9  10.00000000000000178 -1596.00000000000000000  10.21881679015214317 -1596.00000000000000000  10.43800273925389632 -1595.98802948611228203  10.65662233432574979 -1595.96400924560884960  10.87374733589123288 -1595.92797717953953907  11.24508565358919299 -1595.84515373788303805  11.40043058748883986 -1595.80390904717205558  11.55413525848231515 -1595.75641409850709351  11.70585178191825548 -1595.70275981137547205  11.96411363460749122 -1595.59956556854240262  12.07175058173497106 -1595.55285621552616249  12.17802037213280997 -1595.50298722574507337  12.28279542658308188 -1595.45001391601590512  12.63879715145767690 -1595.25670417905189424  12.88192376474880163 -1595.10113589641150611  13.11349227951687624 -1594.92823889398800929  13.33184969714881163 -1594.73921811471677756  13.73921811471658927 -1594.33184969714898216  13.92823889398786008 -1594.11349227951723151  14.10113589641164111 -1593.88192376474876255  14.25670417905148923 -1593.63879715145799310  14.45001391601578078 -1593.28279542658333412  14.50298722574523325 -1593.17802037213323274  14.55285621552600972 -1593.07175058173515936  14.59956556854209708 -1592.96411363460742905  14.70275981137529442 -1592.70585178191822706  14.75641409850674179 -1592.55413525848234713  14.80390904717193123 -1592.40043058748915428  14.84515373788314108 -1592.24508565358928536  14.92797717953982328 -1591.87374733589103926  14.96400924560862578 -1591.65662233432567518  14.98802948611206176 -1591.43800273925398869  15.00000000000000000 -1591.21881679015200461  15.00000000000000000 -1591.00000000000000000 
 0.00000000000000000 6 0.14028202998787587 4 0.24261668472951858 4 0.31719699900566145 4 0.49999999999994554 4 0.68280300099428026 4 0.75738331527039882 4 0.85971797001204386 4 1.00000000000000000 6
6 0 1 1596.00000000000000000 -2.00000000000000000  1596.00000000000000000 0.00000000000000000  
6 0 1 -19.00000000000000000 -2.00000000000000000  -19.00000000000000000 0.00000000000000000  
1 0.00000000000000000 0.00000000000000000 -1.00000000000000000 0.00000000000000000 
1 -3.99999999999999956 -1596.00000000000000000 1.00000000000000000 0.00000000000000000 
Curves 23
1 -14.30000000000000071 0.00000000000000000 1740.00000000000000000 1.00000000000000000 0.00000000000000000 0.00000000000000000 
1 14.30000000000000782 0.00000000000000000 1740.00000000000000000 0.00000000000000026 -1.00000000000000000 0.00000000000000000 
1 9.30000000000000782 -70.00000000000000000 1678.00000000000000000 0.00000000000000026 -0.00000000000000011 -1.00000000000000000 
1 14.30000000000000782 0.00000000000000000 1740.00000000000000000 0.00000000000000000 0.00000000000000000 -1.00000000000000000 
8 4.71238898038468967 6.28318530717958623
2 9.30000000000000782 -65.00000000000000000 1678.00000000000000000 -0.00000000000000026 0.00000000000000011 1.00000000000000000 1.00000000000000000 0.00000000000000000 0.00000000000000026 0.00000000000000000 1.00000000000000000 -0.00000000000000011 5.00000000000000000
1 14.30000000000000782 -65.00000000000000000 1678.00000000000000000 0.00000000000000026 -0.00000000000000011 -1.00000000000000000 
8 4.71238898038468967 6.28318530717958623
2 9.30000000000000782 -65.00000000000000000 1676.00000000000000000 -0.00000000000000026 0.00000000000000011 1.00000000000000000 1.00000000000000000 0.00000000000000000 0.00000000000000026 0.00000000000000000 1.00000000000000000 -0.00000000000000011 5.00000000000000000
1 18.30000000000000782 0.00000000000000000 0.00000000000000000 0.00000000000000000 -1.00000000000000000 0.00000000000000000 
1 18.30000000000000782 -19.00000000000000000 0.00000000000000000 0.00000000000000000 0.00000000000000000 1.00000000000000000 
8 0.00000000000000000 1.00000000000000000
7 0 0  5 34 9  18.30000000000000782 -14.00000000000000000 0.00000000000000000  18.30000000000000782 -14.21881679015217337 0.00000000000000000  18.30000000000000782 -14.43800273925391053 0.01197051388797572  18.30000000000000782 -14.65662233432577821 0.03599075439140496  18.30000000000000782 -14.87374733589131814 0.07202282046016836  18.30000000000000782 -15.24508565358926226 0.15484626211685343  18.30000000000000782 -15.40043058748900151 0.19609095282817232  18.30000000000000782 -15.55413525848246081 0.24358590149335396  18.30000000000000782 -15.70585178191828746 0.29724018862469404  18.30000000000000782 -15.96411363460759780 0.40043443145786722  18.30000000000000782 -16.07175058173514159 0.44714378447409153  18.30000000000000782 -16.17802037213298760 0.49701277425487511  18.30000000000000782 -16.28279542658319556 0.54998608398419579  18.30000000000000782 -16.63879715145781546 0.74329582094841662  18.30000000000000782 -16.88192376474881939 0.89886410358852054  18.30000000000000782 -17.11349227951703256 1.07176110601201202  18.30000000000000782 -17.33184969714888979 1.26078188528341695  18.30000000000000782 -17.73921811471665322 1.66815030285117860  18.30000000000000782 -17.92823889398784232 1.88650772048277826  18.30000000000000782 -18.10113589641161624 2.11807623525137556  18.30000000000000782 -18.25670417905153897 2.36120284854210638  18.30000000000000782 -18.45001391601580210 2.71720457341680355  18.30000000000000782 -18.50298722574512666 2.82197962786701950  18.30000000000000782 -18.55285621552591380 2.92824941826486151  18.30000000000000782 -18.59956556854213261 3.03588636539239776  18.30000000000000782 -18.70275981137530508 3.29414821808170766  18.30000000000000782 -18.75641409850665298 3.44586474151754762  18.30000000000000782 -18.80390904717183176 3.59956941251100559  18.30000000000000782 -18.84515373788314108 3.75491434641073329  18.30000000000000782 -18.92797717953983394 4.12625266410869163  18.30000000000000782 -18.96400924560860091 4.34337766567421379  18.30000000000000782 -18.98802948611202979 4.56199726074608147  18.30000000000000782 -19.00000000000000000 4.78118320984783374  18.30000000000000782 -19.00000000000000000 4.99999999999999911 
 0.00000000000000000 6 0.14028202998797867 4 0.24261668472964759 4 0.31719699900575471 4 0.49999999999998801 4 0.68280300099428315 4 0.75738331527038838 4 0.85971797001204209 4 1.00000000000000000 6
7 0 0  2 5 4  18.42239999999999611 -14.00000000000000000 0.00000000000000000  18.36119999999999663 -14.00000000000000000 0.00000000000000000  17.29999999999999716 -14.00000000000000000 0.00000000000000000  16.23879999999999768 -14.00000000000000000 0.00000000000000000  16.17759999999999820 -14.00000000000000000 0.00000000000000000 
 -0.12240000000002893 3 -0.00000000000002952 1 1.99999999999997291 1 2.12239999999997186 3
1 16.30000000000000782 0.00000000000000000 0.00000000000000000 0.00000000000000000 -1.00000000000000000 0.00000000000000000 
6 0 1 18.30000000000000782 -19.00000000000000000 0.00000000000000000  16.30000000000000782 -19.00000000000000000 0.00000000000000000  
1 16.30000000000000782 -19.00000000000000000 0.00000000000000000 0.00000000000000000 0.00000000000000000 1.00000000000000000 
7 0 0  2 5 4  18.42240000000001388 -19.00000000000000000 5.00000000000000000  18.36120000000001440 -19.00000000000000000 5.00000000000000000  17.30000000000001492 -19.00000000000000000 5.00000000000000000  16.23880000000001544 -19.00000000000000000 5.00000000000000000  16.17760000000001597 -19.00000000000000000 5.00000000000000000 
 -0.12240000000002893 3 -0.00000000000002952 1 1.99999999999997291 1 2.12239999999997186 3
8 0.00000000000000000 1.00000000000000000
7 0 0  5 34 9  16.30000000000000782 -14.00000000000000000 0.00000000000000000  16.30000000000000782 -14.21881679015217337 0.00000000000000000  16.30000000000000782 -14.43800273925391231 0.01197051388797572  16.30000000000000782 -14.65662233432577821 0.03599075439140460  16.30000000000000782 -14.87374733589131814 0.07202282046016766  16.30000000000000782 -15.24508565358926049 0.15484626211685271  16.30000000000000782 -15.40043058748900151 0.19609095282817252  16.30000000000000782 -15.55413525848246081 0.24358590149335413  16.30000000000000782 -15.70585178191828746 0.29724018862469331  16.30000000000000782 -15.96411363460759780 0.40043443145786722  16.30000000000000782 -16.07175058173514159 0.44714378447409153  16.30000000000000782 -16.17802037213298760 0.49701277425487511  16.30000000000000782 -16.28279542658319556 0.54998608398419579  16.30000000000000782 -16.63879715145781546 0.74329582094841662  16.30000000000000782 -16.88192376474881939 0.89886410358852054  16.30000000000000782 -17.11349227951703256 1.07176110601201202  16.30000000000000782 -17.33184969714888979 1.26078188528341695  16.30000000000000782 -17.73921811471663190 1.66815030285115817  16.30000000000000782 -17.92823889398789206 1.88650772048283333  16.30000000000000782 -18.10113589641157361 2.11807623525131739  16.30000000000000782 -18.25670417905155318 2.36120284854213258  16.30000000000000782 -18.45001391601580210 2.71720457341680177  16.30000000000000782 -18.50298722574513022 2.82197962786702083  16.30000000000000782 -18.55285621552591380 2.92824941826486285  16.30000000000000782 -18.59956556854213261 3.03588636539239598  16.30000000000000782 -18.70275981137530508 3.29414821808170810  16.30000000000000782 -18.75641409850665298 3.44586474151754718  16.30000000000000782 -18.80390904717183176 3.59956941251100471  16.30000000000000782 -18.84515373788314463 3.75491434641073463  16.30000000000000782 -18.92797717953983394 4.12625266410868985  16.30000000000000782 -18.96400924560860091 4.34337766567421291  16.30000000000000782 -18.98802948611202979 4.56199726074608147  16.30000000000000782 -19.00000000000000000 4.78118320984783374  16.30000000000000782 -19.00000000000000000 4.99999999999999911 
 0.00000000000000000 6 0.14028202998798533 4 0.24261668472965703 4 0.31719699900576526 4 0.50000000000000133 4 0.68280300099428082 4 0.75738331527038671 4 0.85971797001204109 4 1.00000000000000000 6
8 0.00000000000000000 1.00000000000000000
7 0 0  5 34 9  18.30000000000000782 -14.00000000000000178 1596.00000000000000000  18.30000000000000782 -14.21881679015214317 1596.00000000000000000  18.30000000000000782 -14.43800273925389632 1595.98802948611228203  18.30000000000000782 -14.65662233432574979 1595.96400924560884960  18.30000000000000782 -14.87374733589123288 1595.92797717953953907  18.30000000000000782 -15.24508565358919121 1595.84515373788303805  18.30000000000000782 -15.40043058748883809 1595.80390904717205558  18.30000000000000782 -15.55413525848231515 1595.75641409850709351  18.30000000000000782 -15.70585178191825193 1595.70275981137547205  18.30000000000000782 -15.96411363460749122 1595.59956556854240262  18.30000000000000782 -16.07175058173497106 1595.55285621552616249  18.30000000000000782 -16.17802037213280997 1595.50298722574507337  18.30000000000000782 -16.28279542658308188 1595.45001391601590512  18.30000000000000782 -16.63879715145763427 1595.25670417905189424  18.30000000000000782 -16.88192376474890111 1595.10113589641150611  18.30000000000000782 -17.11349227951678387 1594.92823889398823667  18.30000000000000782 -17.33184969714884360 1594.73921811471677756  18.30000000000000782 -17.73921811471659993 1594.33184969714898216  18.30000000000000782 -17.92823889398783166 1594.11349227951723151  18.30000000000000782 -18.10113589641167309 1593.88192376474876255  18.30000000000000782 -18.25670417905146792 1593.63879715145799310  18.30000000000000782 -18.45001391601578433 1593.28279542658333412  18.30000000000000782 -18.50298722574523325 1593.17802037213323274  18.30000000000000782 -18.55285621552600972 1593.07175058173515936  18.30000000000000782 -18.59956556854210064 1592.96411363460742905  18.30000000000000782 -18.70275981137529087 1592.70585178191822706  18.30000000000000782 -18.75641409850674890 1592.55413525848234713  18.30000000000000782 -18.80390904717193123 1592.40043058748915428  18.30000000000000782 -18.84515373788314108 1592.24508565358928536  18.30000000000000782 -18.92797717953982328 1591.87374733589103926  18.30000000000000782 -18.96400924560862578 1591.65662233432567518  18.30000000000000782 -18.98802948611206176 1591.43800273925398869  18.30000000000000782 -19.00000000000000000 1591.21881679015200461  18.30000000000000782 -19.00000000000000000 1591.00000000000000000 
 0.00000000000000000 6 0.14028202998788331 4 0.24261668472953102 4 0.31719699900567699 4 0.49999999999993849 4 0.68280300099428881 4 0.75738331527040803 4 0.85971797001205263 4 1.00000000000000000 6
1 18.30000000000000782 0.00000000000000000 0.00000000000000000 0.00000000000000000 -1.00000000000000000 0.00000000000000000 
7 0 0  2 5 4  18.42240000000003519 -14.00000000000000000 1596.00000000000000000  18.36120000000000374 -14.00000000000000000 1596.00000000000000000  17.30000000000027427 -14.00000000000000000 1596.00000000000000000  16.23880000000054835 -14.00000000000000000 1596.00000000000000000  16.17760000000051690 -14.00000000000000000 1596.00000000000000000 
 -0.12239999999999927 3 -0.00000000000006552 1 1.99999999999944778 1 2.12239999999938211 3
7 0 0  2 5 4  18.42240000000012401 -19.00000000000000000 1591.00000000000000000  18.36120000000012453 -19.00000000000000000 1591.00000000000000000  17.29999999999983373 -19.00000000000000000 1591.00000000000000000  16.23879999999954293 -19.00000000000000000 1591.00000000000000000  16.17759999999954346 -19.00000000000000000 1591.00000000000000000 
 -0.12239999999999927 3 -0.00000000000006552 1 1.99999999999944778 1 2.12239999999938211 3
8 0.00000000000000000 1.00000000000000000
7 0 0  5 34 9  16.30000000000000782 -14.00000000000000178 1596.00000000000000000  16.30000000000000782 -14.21881679015214317 1596.00000000000000000  16.30000000000000782 -14.43800273925389632 1595.98802948611228203  16.30000000000000782 -14.65662233432574979 1595.96400924560884960  16.30000000000000782 -14.87374733589123288 1595.92797717953953907  16.30000000000000782 -15.24508565358919299 1595.84515373788303805  16.30000000000000782 -15.40043058748883986 1595.80390904717205558  16.30000000000000782 -15.55413525848231515 1595.75641409850709351  16.30000000000000782 -15.70585178191825548 1595.70275981137547205  16.30000000000000782 -15.96411363460749122 1595.59956556854240262  16.30000000000000782 -16.07175058173497106 1595.55285621552616249  16.30000000000000782 -16.17802037213280997 1595.50298722574507337  16.30000000000000782 -16.28279542658308188 1595.45001391601590512  16.30000000000000782 -16.63879715145767690 1595.25670417905189424  16.30000000000000782 -16.88192376474880163 1595.10113589641150611  16.30000000000000782 -17.11349227951687624 1594.92823889398800929  16.30000000000000782 -17.33184969714881163 1594.73921811471677756  16.30000000000000782 -17.73921811471658927 1594.33184969714898216  16.30000000000000782 -17.92823889398786008 1594.11349227951723151  16.30000000000000782 -18.10113589641164111 1593.88192376474876255  16.30000000000000782 -18.25670417905148923 1593.63879715145799310  16.30000000000000782 -18.45001391601578078 1593.28279542658333412  16.30000000000000782 -18.50298722574523325 1593.17802037213323274  16.30000000000000782 -18.55285621552600972 1593.07175058173515936  16.30000000000000782 -18.59956556854209708 1592.96411363460742905  16.30000000000000782 -18.70275981137529442 1592.70585178191822706  16.30000000000000782 -18.75641409850674179 1592.55413525848234713  16.30000000000000782 -18.80390904717193123 1592.40043058748915428  16.30000000000000782 -18.84515373788314108 1592.24508565358928536  16.30000000000000782 -18.92797717953982328 1591.87374733589103926  16.30000000000000782 -18.96400924560862578 1591.65662233432567518  16.30000000000000782 -18.98802948611206176 1591.43800273925398869  16.30000000000000782 -19.00000000000000000 1591.21881679015200461  16.30000000000000782 -19.00000000000000000 1591.00000000000000000 
 0.00000000000000000 6 0.14028202998787587 4 0.24261668472951858 4 0.31719699900566145 4 0.49999999999994554 4 0.68280300099428026 4 0.75738331527039882 4 0.85971797001204386 4 1.00000000000000000 6
6 0 1 18.30000000000000782 -19.00000000000000000 1596.00000000000000000  16.30000000000000782 -19.00000000000000000 1596.00000000000000000  
1 16.30000000000000782 0.00000000000000000 1596.00000000000000000 0.00000000000000000 -1.00000000000000000 0.00000000000000000 
Polygon3D 0
PolygonOnTriangulations 0
Surfaces 11
1 -14.30000000000000071 0.00000000000000000 1740.00000000000000000 -0.00000000000000000 0.00000000000000000 1.00000000000000000 1.00000000000000000 0.00000000000000000 0.00000000000000000 0.00000000000000000 1.00000000000000000 -0.00000000000000000 
1 0.00000000000000421 0.00000000000000000 1707.00000000000000000 0.00000000000000000 1.00000000000000000 0.00000000000000000 0.00000000000000000 -0.00000000000000000 1.00000000000000000 1.00000000000000000 0.00000000000000000 -0.00000000000000000 
1 14.30000000000000782 0.00000000000000000 1740.00000000000000000 1.00000000000000000 0.00000000000000026 0.00000000000000000 0.00000000000000000 0.00000000000000000 -1.00000000000000000 -0.00000000000000026 1.00000000000000000 0.00000000000000000 
2 9.30000000000000782 -65.00000000000000000 1678.00000000000000000 0.00000000000000026 -0.00000000000000011 -1.00000000000000000 0.00000000000000000 -1.00000000000000000 0.00000000000000011 1.00000000000000000 0.00000000000000000 0.00000000000000026 5.00000000000000000
1 18.30000000000000782 -3.99999999999999956 0.00000000000000000 1.00000000000000000 0.00000000000000000 -0.00000000000000000 0.00000000000000000 -1.00000000000000000 0.00000000000000000 0.00000000000000000 -0.00000000000000000 -1.00000000000000000 
1 16.30000000000000782 0.00000000000000000 0.00000000000000000 -0.00000000000000000 -0.00000000000000000 -1.00000000000000000 0.00000000000000000 -1.00000000000000000 0.00000000000000000 -1.00000000000000000 0.00000000000000000 0.00000000000000000 
1 16.30000000000000782 -19.00000000000000000 0.00000000000000000 0.00000000000000000 -1.00000000000000000 0.00000000000000000 0.00000000000000000 0.00000000000000000 1.00000000000000000 -1.00000000000000000 0.00000000000000000 0.00000000000000000 
9 0 1 0 0 2 2 3 5 2 4 18.42239999999999611 -14.00000000000000000 0.00000000000000000  1.00000000000000000 18.36119999999999663 -14.00000000000000000 0.00000000000000000  1.00000000000000000 17.29999999999999716 -14.00000000000000000 0.00000000000000000  1.00000000000000000 16.23879999999999768 -14.00000000000000000 0.00000000000000000  1.00000000000000000 16.17759999999999820 -14.00000000000000000 0.00000000000000000  1.00000000000000000 
18.42240000000001388 -19.00000000000000000 0.00000000000000089  0.70710678118654757 18.36120000000001440 -19.00000000000000000 0.00000000000000089  0.70710678118654757 17.30000000000001492 -19.00000000000000000 0.00000000000000089  0.70710678118654757 16.23880000000001544 -19.00000000000000000 0.00000000000000089  0.70710678118654757 16.17760000000001597 -19.00000000000000000 0.00000000000000089  0.70710678118654757 
18.42240000000001388 -19.00000000000000000 5.00000000000000000  1.00000000000000000 18.36120000000001440 -19.00000000000000000 5.00000000000000000  1.00000000000000000 17.30000000000001492 -19.00000000000000000 5.00000000000000000  1.00000000000000000 16.23880000000001544 -19.00000000000000000 5.00000000000000000  1.00000000000000000 16.17760000000001597 -19.00000000000000000 5.00000000000000000  1.00000000000000000 

0.00000000000000000 3
2.00000000000000222 3

-0.12240000000002893 3
-0.00000000000002952 1
1.99999999999997291 1
2.12239999999997186 3

1 16.30000000000000782 -3.99999999999999956 0.00000000000000000 1.00000000000000000 0.00000000000000000 -0.00000000000000000 0.00000000000000000 -1.00000000000000000 0.00000000000000000 0.00000000000000000 -0.00000000000000000 -1.00000000000000000 
9 0 1 0 0 2 2 3 5 2 4 18.42240000000003519 -14.00000000000000000 1596.00000000000000000  1.00000000000000000 18.36120000000000374 -14.00000000000000000 1596.00000000000000000  1.00000000000000000 17.30000000000027427 -14.00000000000000000 1596.00000000000000000  1.00000000000000000 16.23880000000054835 -14.00000000000000000 1596.00000000000000000  1.00000000000000000 16.17760000000051690 -14.00000000000000000 1596.00000000000000000  1.00000000000000000 
18.42240000000004940 -19.00000000000000000 1596.00000000000000000  0.70710678118654757 18.36120000000001795 -19.00000000000000000 1596.00000000000000000  0.70710678118654757 17.30000000000029203 -19.00000000000000000 1596.00000000000000000  0.70710678118654757 16.23880000000056967 -19.00000000000000000 1596.00000000000000000  0.70710678118654757 16.17760000000053822 -19.00000000000000000 1596.00000000000000000  0.70710678118654757 
18.42240000000012401 -19.00000000000000000 1591.00000000000000000  1.00000000000000000 18.36120000000012453 -19.00000000000000000 1591.00000000000000000  1.00000000000000000 17.29999999999983373 -19.00000000000000000 1591.00000000000000000  1.00000000000000000 16.23879999999954293 -19.00000000000000000 1591.00000000000000000  1.00000000000000000 16.17759999999954346 -19.00000000000000000 1591.00000000000000000  1.00000000000000000 

0.00000000000000000 3
1.99999999999951328 3

-0.12239999999999927 3
-0.00000000000006552 1
1.99999999999944778 1
2.12239999999938211 3

1 16.30000000000000782 0.00000000000000000 1596.00000000000000000 0.00000000000000000 0.00000000000000000 1.00000000000000000 -0.00000000000000000 1.00000000000000000 0.00000000000000000 -1.00000000000000000 -0.00000000000000000 0.00000000000000000 
Triangulations 0

TShapes 83
Co

0100000
*
Ve
0.000000100000001
9.300000000000008 -70.000000000000000 1678.000000000000000
0 0

0101101
*
Ve
0.000000100000000
14.300000000000008 0.000000000000000 1740.000000000000000
0 0

0101101
*
Ed
 0.000000100000000 1 1 0
1  1 0 23.600000000000009 28.600000000000009
2  1 2 0 23.600000000000009 28.600000000000009
2  2 1 0 23.600000000000009 28.600000000000009
2  3 1 6 23.600000000000009 28.600000000000009
0

0101000
+82 8 -81 0 *
Ed
 0.000000100000000 1 1 0
1  2 0 0.000000000000000 2.000000000000000
2  4 3 0 0.000000000000000 2.000000000000000
2  5 1 0 0.000000000000000 2.000000000000000
0

0101000
+81 0 -81 5 *
Ve
0.000000100000001
9.300000000000008 -70.000000000000000 1676.000000000000000
0 0

0101101
*
Ed
 0.000000100000000 1 1 0
1  1 0 23.600000000000009 28.600000000000009
2  1 2 0 23.600000000000009 28.600000000000009
2  2 1 0 23.600000000000009 28.600000000000009
2  3 1 6 23.600000000000009 28.600000000000009
0

0101000
+78 10 -81 0 *
Ed
 0.000000100000000 1 1 0
1  3 0 -0.000000000000000 2.000000000000000
2  6 4 0 -0.000000000000000 2.000000000000000
2  7 1 12 -0.000000000000000 2.000000000000000
4 G1 4 0 1 12
2  8 1 13 -0.000000000000000 2.000000000000000
0

0101000
+82 0 -78 0 *
Wi

0101100
-80 4 -79 4 +77 9 +76 7 *
Fa
0  0.000000100000000 1 4

0111000
+75 0 *
Ve
0.000000100000000
14.300000000000008 -65.000000000000000 1678.000000000000000
0 0

0101101
*
Ed
 0.000000100000000 1 1 0
1  4 0 0.000000000000000 5.000000000000000
2  9 3 0 0.000000000000000 5.000000000000000
2  10 3 6 0.000000000000000 5.000000000000000
2  11 2 0 0.000000000000000 5.000000000000000
0

0101000
+81 0 -73 8 *
Ed
 0.000000100000000 1 1 0
1  5 0 4.712388980384690 6.283185307179586
2  12 4 0 4.712388980384690 6.283185307179586
2  13 2 12 4.712388980384690 6.283185307179586
2  14 2 13 4.712388980384690 6.283185307179586
0

0101000
+82 0 -73 0 *
Wi

0101100
+72 4 +80 4 -71 7 *
Fa
0  0.000000100000000 2 4

0111000
+70 0 *
Ve
0.000000100000000
14.300000000000008 -65.000000000000000 1676.000000000000000
0 0

0101101
*
Ed
 0.000000100000000 1 1 0
1  6 0 -0.000000000000000 2.000000000000000
2  15 4 0 -0.000000000000000 2.000000000000000
2  16 3 12 -0.000000000000000 2.000000000000000
4 G1 4 0 3 12
2  17 3 13 -0.000000000000000 2.000000000000000
0

0101000
+73 0 -68 0 *
Ed
 0.000000100000000 1 1 0
1  4 0 0.000000000000000 5.000000000000000
2  9 3 0 0.000000000000000 5.000000000000000
2  10 3 6 0.000000000000000 5.000000000000000
2  11 2 0 0.000000000000000 5.000000000000000
0

0101000
+81 0 -68 10 *
Wi

0101100
-72 4 -67 7 +66 9 +79 4 *
Fa
0  0.000000100000000 3 4

0111000
+65 0 *
Ed
 0.000000100000000 1 1 0
1  7 0 4.712388980384690 6.283185307179586
2  18 4 0 4.712388980384690 6.283185307179586
2  19 2 14 4.712388980384690 6.283185307179586
2  20 2 15 4.712388980384690 6.283185307179586
0

0101000
+78 0 -68 0 *
Wi

0101100
+66 9 +77 9 -63 7 *
Fa
0  0.000000100000000 2 9

0111000
+62 0 *
Wi

0101100
+71 0 -76 0 +67 0 -63 0 *
Fa
0  0.000000000000000 4 0

0111000
+60 0 *
Sh

0101100
+74 0 +69 0 +64 0 -61 0 +59 7 *
So

0100000
+58 0 *
Ve
0.001000000000011
18.300000000000008 -14.000000000000000 0.000000000000000
0 0

0101101
*
Ve
0.001000000000000
18.300000000000008 -19.000000000000000 0.000000000000000
0 0

0101101
*
Ed
 0.001000000000000 1 1 0
1  8 0 14.000000000000000 19.000000000000000
2  21 5 0 14.000000000000000 19.000000000000000
2  22 6 0 14.000000000000000 19.000000000000000
0

0101000
+56 19 -55 20 *
Ve
0.001000000000011
18.300000000000008 -19.000000000000000 5.000000000000000
0 0

0101101
*
Ed
 0.001000000000000 1 1 0
1  9 0 0.000000000000000 5.000000000000000
2  23 5 0 0.000000000000000 5.000000000000000
2  24 7 0 0.000000000000000 5.000000000000000
0

0101000
+55 20 -53 19 *
Ed
 0.001000000000011 1 1 0
1  10 0 0.000000000000000 1.000000000000000
2  25 8 0 0.000000000000000 1.000000000000000
2  26 5 21 0.000000000000000 1.000000000000000
2  27 5 22 0.000000000000000 1.000000000000000
0

0101000
+56 0 -53 0 *
Wi

0101100
-54 18 -52 18 +51 7 *
Fa
0  0.001000000000000 5 18

0111000
+50 0 *
Ve
0.001000000000004
16.300000000000008 -14.000000000000000 0.000000000000000
0 0

0101101
*
Ed
 0.000000100000000 1 1 0
1  11 0 -0.000000000000030 1.999999999999962
2  28 8 0 -0.000000000000030 1.999999999999962
2  29 6 21 -0.000000000000030 1.999999999999962
4 G1 8 0 6 21
2  30 6 22 -0.000000000000030 1.999999999999962
0

0101000
+56 0 -48 0 *
Ve
0.001000000000000
16.300000000000008 -19.000000000000000 0.000000000000000
0 0

0101101
*
Ed
 0.001000000000000 1 1 0
1  12 0 14.000000000000000 19.000000000000000
2  31 6 0 14.000000000000000 19.000000000000000
2  32 9 0 14.000000000000000 19.000000000000000
0

0101000
+48 19 -46 20 *
Ed
 0.000000100000000 1 1 0
1  13 0 0.000000000000000 1.000000000000000
2  33 7 0 0.000000000000000 1.000000000000000
2  34 6 0 0.000000000000000 1.000000000000000
0

0101000
+55 20 -46 20 *
Wi

0101100
-47 7 -45 18 +44 18 +54 18 *
Fa
0  0.000000100000000 6 18

0111000
+43 0 *
Ve
0.001000000000004
16.300000000000008 -19.000000000000000 5.000000000000000
0 0

0101101
*
Ed
 0.001000000000000 1 1 0
1  14 0 0.000000000000000 5.000000000000000
2  35 7 0 0.000000000000000 5.000000000000000
2  36 9 0 0.000000000000000 5.000000000000000
0

0101000
+46 20 -41 19 *
Ed
 0.000000100000000 1 1 0
1  15 0 -0.000000000000022 1.999999999999973
2  37 8 0 -0.000000000000022 1.999999999999973
2  38 7 21 -0.000000000000022 1.999999999999973
4 G1 8 0 7 21
2  39 7 22 -0.000000000000022 1.999999999999973
0

0101000
+53 0 -41 0 *
Wi

0101100
-44 18 -40 18 +39 7 +52 18 *
Fa
0  0.000000100000000 7 18

0111000
+38 0 *
Ed
 0.001000000000004 1 1 0
1  16 0 0.000000000000000 1.000000000000000
2  40 8 0 0.000000000000000 1.000000000000000
2  41 9 21 0.000000000000000 1.000000000000000
2  42 9 22 0.000000000000000 1.000000000000000
0

0101000
+48 0 -41 0 *
Wi

0101100
+51 0 -47 0 +39 0 -36 0 *
Fa
0  0.000000000000034 8 0

0111000
+35 0 *
Wi

0101100
-45 18 -40 18 +36 7 *
Fa
0  0.001000000000000 9 18

0111000
+33 0 *
Sh

0101100
+49 0 +42 0 +37 0 -34 7 -32 0 *
So

0100000
+31 0 *
Ve
0.001000000000004
18.300000000000008 -14.000000000000000 1596.000000000000000
0 0

0101101
*
Ve
0.001000000000004
18.300000000000008 -19.000000000000000 1591.000000000000000
0 0

0101101
*
Ed
 0.001000000000004 1 1 0
1  17 0 0.000000000000000 1.000000000000000
2  43 10 0 0.000000000000000 1.000000000000000
2  44 5 21 0.000000000000000 1.000000000000000
2  45 5 22 0.000000000000000 1.000000000000000
0

0101000
+29 0 -28 0 *
Ve
0.001000000000000
18.300000000000008 -19.000000000000000 1596.000000000000000
0 0

0101101
*
Ed
 0.001000000000000 1 1 0
1  9 0 1591.000000000000000 1596.000000000000000
2  23 5 0 1591.000000000000000 1596.000000000000000
2  24 7 0 1591.000000000000000 1596.000000000000000
0

0101000
+28 19 -26 20 *
Ed
 0.001000000000000 1 1 0
1  18 0 14.000000000000000 19.000000000000000
2  46 5 25 14.000000000000000 19.000000000000000
2  47 11 25 14.000000000000000 19.000000000000000
0

0101000
+29 26 -26 27 *
Wi

0101100
-27 7 -25 18 +24 24 *
Fa
0  0.001000000000000 5 18

0111000
+23 0 *
Ve
0.001000000000004
16.300000000000008 -14.000000000000000 1596.000000000000000
0 0

0101101
*
Ed
 0.000000100000000 1 1 0
1  19 0 -0.000000000000037 1.999999999999448
2  48 10 0 -0.000000000000037 1.999999999999448
2  49 11 21 -0.000000000000037 1.999999999999448
4 G1 10 0 11 21
2  50 11 22 -0.000000000000037 1.999999999999448
0

0101000
+29 0 -21 0 *
Ve
0.001000000000004
16.300000000000008 -19.000000000000000 1591.000000000000000
0 0

0101101
*
Ed
 0.000000100000004 1 1 0
1  20 0 0.000000000000052 1.999999999998982
2  51 10 0 0.000000000000052 1.999999999998982
2  52 7 21 0.000000000000052 1.999999999998982
4 G1 10 0 7 21
2  53 7 22 0.000000000000052 1.999999999998982
0

0101000
+28 0 -19 0 *
Ed
 0.001000000000004 1 1 0
1  21 0 0.000000000000000 1.000000000000000
2  54 10 0 0.000000000000000 1.000000000000000
2  55 9 21 0.000000000000000 1.000000000000000
2  56 9 22 0.000000000000000 1.000000000000000
0

0101000
+21 0 -19 0 *
Wi

0101100
+27 0 -20 0 +18 0 -17 0 *
Fa
0  0.000000000000044 10 0

0111000
+16 0 *
Ve
0.001000000000000
16.300000000000008 -19.000000000000000 1596.000000000000000
0 0

0101101
*
Ed
 0.001000000000000 1 1 0
1  14 0 1591.000000000000000 1596.000000000000000
2  35 7 0 1591.000000000000000 1596.000000000000000
2  36 9 0 1591.000000000000000 1596.000000000000000
0

0101000
+19 19 -14 20 *
Ed
 0.000000100000000 1 1 0
1  22 0 0.000000000000000 1.000000000000000
2  57 7 0 0.000000000000000 1.000000000000000
2  58 11 0 0.000000000000000 1.000000000000000
0

0101000
+26 20 -14 20 *
Wi

0101100
-18 7 -13 18 +12 18 +25 18 *
Fa
0  0.000000100000000 7 18

0111000
+11 0 *
Ed
 0.001000000000000 1 1 0
1  23 0 14.000000000000000 19.000000000000000
2  59 11 0 14.000000000000000 19.000000000000000
2  60 9 0 14.000000000000000 19.000000000000000
0

0101000
+21 19 -14 20 *
Wi

0101100
-24 24 -12 18 +9 18 +20 7 *
Fa
0  0.000000100000000 11 18

0111000
+8 0 *
Wi

0101100
-17 7 -13 18 +9 18 *
Fa
0  0.001000000000000 9 18

0111000
+6 0 *
Sh

0101100
+22 0 +15 7 +10 0 +7 0 -5 0 *
So

0100000
+4 0 *
Co

0100000
+57 0 +30 0 +3 0 *
Co

1100000
+83 0 +2 0 *

+1 0 