
CASCADE Topology V1, (c) Matra-Datavision
Locations 84
1
1.000000000000000 0.000000000000000 0.000000000000000 0.000000000000000 
0.000000000000000 1.000000000000000 0.000000000000000 0.000000000000000 
0.000000000000000 0.000000000000000 1.000000000000000 0.000000000000000 
1
1.000000000000000 0.000000000000000 0.000000000000000 0.000000000000000 
0.000000000000000 1.000000000000000 0.000000000000000 0.000000000000000 
0.000000000000000 0.000000000000000 1.000000000000000 0.000000000000000 
1
1.000000000000000 0.000000000000000 0.000000000000000 0.000000000000000 
0.000000000000000 1.000000000000000 0.000000000000000 0.000000000000000 
0.000000000000000 0.000000000000000 1.000000000000000 0.000000000000000 
1
1.000000000000000 0.000000000000000 0.000000000000000 0.000000000000000 
0.000000000000000 1.000000000000000 0.000000000000000 0.000000000000000 
0.000000000000000 0.000000000000000 1.000000000000000 0.000000000000000 
1
1.000000000000000 0.000000000000000 0.000000000000000 0.000000000000000 
0.000000000000000 1.000000000000000 0.000000000000000 0.000000000000000 
0.000000000000000 0.000000000000000 1.000000000000000 0.000000000000000 
1
1.000000000000000 0.000000000000000 0.000000000000000 0.000000000000000 
0.000000000000000 1.000000000000000 0.000000000000000 0.000000000000000 
0.000000000000000 0.000000000000000 1.000000000000000 0.000000000000000 
1
1.000000000000000 0.000000000000000 0.000000000000001 0.000000000000000 
-0.000000000000001 0.000000000000000 1.000000000000000 -8.000000000000000 
0.000000000000000 -1.000000000000000 0.000000000000000 0.000000000000001 
1
1.000000000000000 0.000000000000000 0.000000000000000 0.000000000000001 
0.000000000000000 1.000000000000000 0.000000000000000 4.398229715025710 
0.000000000000000 0.000000000000000 1.000000000000000 -0.000000000000001 
2  2 1 3 -1 4 1 5 -1 6 1 7 1 8 1 0
2  8 -1 7 -1 6 -1 5 1 4 -1 3 1 2 -1 0
1
1.000000000000000 0.000000000000000 0.000000000000000 0.000000000000000 
0.000000000000000 1.000000000000000 0.000000000000000 0.000000000000000 
0.000000000000000 0.000000000000000 1.000000000000000 0.000000000000000 
1
1.000000000000000 0.000000000000000 0.000000000000000 0.000000000000000 
0.000000000000000 1.000000000000000 0.000000000000000 0.000000000000000 
0.000000000000000 0.000000000000000 1.000000000000000 0.000000000000000 
1
1.000000000000000 0.000000000000000 0.000000000000000 0.000000000000000 
0.000000000000000 1.000000000000000 0.000000000000000 0.000000000000000 
0.000000000000000 0.000000000000000 1.000000000000000 0.000000000000000 
1
1.000000000000000 0.000000000000000 0.000000000000000 0.000000000000000 
0.000000000000000 1.000000000000000 0.000000000000000 0.000000000000000 
0.000000000000000 0.000000000000000 1.000000000000000 0.000000000000000 
1
1.000000000000000 0.000000000000000 0.000000000000001 0.000000000000000 
-0.000000000000001 0.000000000000000 1.000000000000000 -8.000000000000000 
0.000000000000000 -1.000000000000000 0.000000000000000 0.000000000000001 
1
1.000000000000000 0.000000000000000 0.000000000000000 0.000000000000001 
0.000000000000000 1.000000000000000 0.000000000000000 4.398229715025710 
0.000000000000000 0.000000000000000 1.000000000000000 -0.000000000000001 
2  11 1 12 -1 13 1 14 -1 2 1 3 -1 4 1 5 -1 6 1 15 1 16 1 0
1
1.000000000000000 0.000000000000000 0.000000000000001 0.000000000000000 
-0.000000000000001 0.000000000000000 1.000000000000000 -8.000000000000000 
0.000000000000000 -1.000000000000000 0.000000000000000 0.000000000000001 
1
1.000000000000000 0.000000000000000 0.000000000000000 0.000000000000001 
0.000000000000000 1.000000000000000 0.000000000000000 4.398229715025710 
0.000000000000000 0.000000000000000 1.000000000000000 -0.000000000000001 
2  2 1 3 -1 4 1 5 -1 6 1 18 1 19 1 0
1
1.000000000000000 0.000000000000000 0.000000000000001 0.000000000000000 
-0.000000000000001 0.000000000000000 1.000000000000000 -8.000000000000000 
0.000000000000000 -1.000000000000000 0.000000000000000 0.000000000000001 
1
1.000000000000000 0.000000000000000 0.000000000000000 0.000000000000001 
0.000000000000000 1.000000000000000 0.000000000000000 4.398229715025710 
0.000000000000000 0.000000000000000 1.000000000000000 -0.000000000000001 
2  11 1 12 -1 13 1 14 -1 2 1 3 -1 4 1 5 -1 6 1 21 1 22 1 0
1
1.000000000000000 0.000000000000000 0.000000000000001 0.000000000000000 
-0.000000000000001 0.000000000000000 1.000000000000000 -8.000000000000000 
0.000000000000000 -1.000000000000000 0.000000000000000 0.000000000000001 
1
1.000000000000000 0.000000000000000 0.000000000000000 0.000000000000001 
0.000000000000000 1.000000000000000 0.000000000000000 4.398229715025710 
0.000000000000000 0.000000000000000 1.000000000000000 -0.000000000000001 
2  11 1 12 -1 13 1 14 -1 2 1 3 -1 4 1 5 -1 6 1 24 1 25 1 0
2  19 -1 18 -1 6 -1 5 1 4 -1 3 1 2 -1 0
1
1.000000000000000 0.000000000000000 0.000000000000001 0.000000000000000 
-0.000000000000001 0.000000000000000 1.000000000000000 -8.000000000000000 
0.000000000000000 -1.000000000000000 0.000000000000000 0.000000000000001 
1
1.000000000000000 0.000000000000000 0.000000000000000 0.000000000000001 
0.000000000000000 1.000000000000000 0.000000000000000 4.398229715025710 
0.000000000000000 0.000000000000000 1.000000000000000 -0.000000000000001 
2  2 1 3 -1 4 1 5 -1 6 1 28 1 29 1 0
2  2 1 3 -1 4 1 5 -1 6 1 24 1 25 1 0
2  11 1 12 -1 13 1 14 -1 0
2  25 -1 24 -1 6 -1 5 1 4 -1 3 1 2 -1 0
1
1.000000000000000 0.000000000000000 0.000000000000001 0.000000000000000 
-0.000000000000001 0.000000000000000 1.000000000000000 -8.000000000000000 
0.000000000000000 -1.000000000000000 0.000000000000000 0.000000000000001 
1
1.000000000000000 0.000000000000000 0.000000000000000 0.000000000000001 
0.000000000000000 1.000000000000000 0.000000000000000 4.398229715025710 
0.000000000000000 0.000000000000000 1.000000000000000 -0.000000000000001 
2  2 1 3 -1 4 1 5 -1 6 1 34 1 35 1 0
2  29 -1 28 -1 6 -1 5 1 4 -1 3 1 2 -1 0
1
1.000000000000000 0.000000000000000 0.000000000000001 0.000000000000000 
-0.000000000000001 0.000000000000000 1.000000000000000 -8.000000000000000 
0.000000000000000 -1.000000000000000 0.000000000000000 0.000000000000001 
1
1.000000000000000 0.000000000000000 0.000000000000000 0.000000000000001 
0.000000000000000 1.000000000000000 0.000000000000000 4.398229715025710 
0.000000000000000 0.000000000000000 1.000000000000000 -0.000000000000001 
2  2 1 3 -1 4 1 5 -1 6 1 38 1 39 1 0
2  35 -1 34 -1 6 -1 5 1 4 -1 3 1 2 -1 0
1
1.000000000000000 0.000000000000000 0.000000000000001 0.000000000000000 
-0.000000000000001 0.000000000000000 1.000000000000000 -8.000000000000000 
0.000000000000000 -1.000000000000000 0.000000000000000 0.000000000000001 
1
1.000000000000000 0.000000000000000 0.000000000000000 0.000000000000001 
0.000000000000000 1.000000000000000 0.000000000000000 4.398229715025710 
0.000000000000000 0.000000000000000 1.000000000000000 -0.000000000000001 
2  11 1 12 -1 13 1 14 -1 2 1 3 -1 4 1 5 -1 6 1 42 1 43 1 0
2  39 -1 38 -1 6 -1 5 1 4 -1 3 1 2 -1 0
2  13 1 14 -1 2 1 3 -1 4 1 5 -1 6 1 0
2  6 -1 5 1 4 -1 3 1 2 -1 14 1 13 -1 0
2  11 1 12 -1 13 1 14 -1 2 1 3 -1 4 1 5 -1 6 1 0
1
1.000000000000000 0.000000000000000 0.000000000000000 40.000000000000000 
0.000000000000000 1.000000000000000 0.000000000000000 -12.000000000000000 
0.000000000000000 0.000000000000000 1.000000000000000 0.000000000000000 
2  49 1 4 1 5 -1 6 1 0
1
1.000000000000000 0.000000000000000 0.000000000000000 -40.000000000000000 
0.000000000000000 1.000000000000000 0.000000000000000 -12.000000000000000 
0.000000000000000 0.000000000000000 1.000000000000000 0.000000000000000 
2  51 1 4 1 5 -1 6 1 0
1
1.000000000000000 0.000000000000000 0.000000000000000 43.000000000000000 
0.000000000000000 1.000000000000000 0.000000000000000 0.000000000000022 
0.000000000000000 0.000000000000000 1.000000000000000 100.000000000000000 
1
1.000000000000000 0.000000000000000 0.000000000000001 0.000000000000000 
-0.000000000000001 0.000000000000000 1.000000000000000 -8.000000000000000 
0.000000000000000 -1.000000000000000 0.000000000000000 0.000000000000001 
1
1.000000000000000 0.000000000000000 0.000000000000000 0.000000000000001 
0.000000000000000 1.000000000000000 0.000000000000000 4.398229715025710 
0.000000000000000 0.000000000000000 1.000000000000000 -0.000000000000001 
2  53 1 6 1 54 1 55 1 0
1
1.000000000000000 0.000000000000000 0.000000000000000 43.000000000000000 
0.000000000000000 1.000000000000000 0.000000000000000 0.000000000000016 
0.000000000000000 0.000000000000000 1.000000000000000 71.333333333333329 
1
1.000000000000000 0.000000000000000 0.000000000000001 0.000000000000000 
-0.000000000000001 0.000000000000000 1.000000000000000 -8.000000000000000 
0.000000000000000 -1.000000000000000 0.000000000000000 0.000000000000001 
1
1.000000000000000 0.000000000000000 0.000000000000000 0.000000000000001 
0.000000000000000 1.000000000000000 0.000000000000000 4.398229715025710 
0.000000000000000 0.000000000000000 1.000000000000000 -0.000000000000001 
2  57 1 6 1 58 1 59 1 0
1
1.000000000000000 0.000000000000000 0.000000000000000 43.000000000000000 
0.000000000000000 1.000000000000000 0.000000000000000 0.000000000000009 
0.000000000000000 0.000000000000000 1.000000000000000 42.666666666666664 
1
1.000000000000000 0.000000000000000 0.000000000000001 0.000000000000000 
-0.000000000000001 0.000000000000000 1.000000000000000 -8.000000000000000 
0.000000000000000 -1.000000000000000 0.000000000000000 0.000000000000001 
1
1.000000000000000 0.000000000000000 0.000000000000000 0.000000000000001 
0.000000000000000 1.000000000000000 0.000000000000000 4.398229715025710 
0.000000000000000 0.000000000000000 1.000000000000000 -0.000000000000001 
2  61 1 6 1 62 1 63 1 0
1
1.000000000000000 0.000000000000000 0.000000000000000 43.000000000000000 
0.000000000000000 1.000000000000000 0.000000000000000 0.000000000000003 
0.000000000000000 0.000000000000000 1.000000000000000 14.000000000000000 
1
1.000000000000000 0.000000000000000 0.000000000000001 0.000000000000000 
-0.000000000000001 0.000000000000000 1.000000000000000 -8.000000000000000 
0.000000000000000 -1.000000000000000 0.000000000000000 0.000000000000001 
1
1.000000000000000 0.000000000000000 0.000000000000000 0.000000000000001 
0.000000000000000 1.000000000000000 0.000000000000000 4.398229715025710 
0.000000000000000 0.000000000000000 1.000000000000000 -0.000000000000001 
2  65 1 6 1 66 1 67 1 0
2  4 1 5 -1 6 1 0
2  6 -1 5 1 4 -1 49 -1 0
2  6 -1 5 1 4 -1 0
2  6 -1 5 1 4 -1 51 -1 0
2  6 1 54 1 55 1 0
2  55 -1 54 -1 6 -1 53 -1 0
2  55 -1 54 -1 6 -1 0
2  6 1 58 1 59 1 0
2  59 -1 58 -1 6 -1 57 -1 0
2  59 -1 58 -1 6 -1 0
2  6 1 62 1 63 1 0
2  63 -1 62 -1 6 -1 61 -1 0
2  63 -1 62 -1 6 -1 0
2  6 1 66 1 67 1 0
2  67 -1 66 -1 6 -1 65 -1 0
2  67 -1 66 -1 6 -1 0
Curve2ds 98
2 2.50000000000009059 -88.50000000000002842 0.00000000000000022 -1.00000000000000000 -1.00000000000000000 -0.00000000000000022 2.50000000000000000
1 0.00000000000000000 0.00000000000000000 1.00000000000000000 0.00000000000000000 
1 3.14159265358979578 0.00000000000000000 0.00000000000000000 -1.00000000000000000 
1 6.28318581552893729 0.00000000000000000 0.00000000000000000 -1.00000000000000000 
2 2.50000000000009059 -88.50000000000002842 0.00000000000000022 -1.00000000000000000 1.00000000000000000 0.00000000000000022 2.50000000000000000
1 6.28318530717958623 -1.99999999999998446 -1.00000000000000000 0.00000000000000000 
1 1.57079632679489589 0.00000000000000000 0.00000000000000000 -1.00000000000000000 
1 -88.50000000000002842 -2.00000000000000799 -0.00000000000000022 1.00000000000000000 
2 2.50002907928040141 -28.79672316885457306 0.00000000000000022 -1.00000000000000000 -1.00000000000000000 -0.00000000000000022 57.20327683114544470
1 0.00000000000000000 0.00000000000000000 1.00000000000000000 0.00000000000000000 
2 2.50002907928040141 -28.79672316885457306 0.00000000000000022 -1.00000000000000000 1.00000000000000000 0.00000000000000022 57.20327683114544470
1 12.56637061435917246 -1.99999999999997136 -1.00000000000000000 0.00000000000000000 
1 5.41052068118242158 0.00000000000000000 0.00000000000000000 -1.00000000000000000 
1 80.92762424310245706 0.00000000000001400 0.00000000000000014 -1.00000000000000000 
1 0.00000000000009272 -98.50000000000002842 -0.00000000000000022 1.00000000000000000 
1 -98.50000000000002842 -1.99999999999998623 1.00000000000000000 0.00000000000000022 
1 -98.50000000000002842 -2.00000000000001021 -0.00000000000000022 1.00000000000000000 
1 1.57079632679489589 0.00000000000000000 0.00000000000000000 -1.00000000000000000 
1 0.00000000000000000 0.00000000000000000 -0.00000000000000006 -1.00000000000000000 
1 0.00000000000000000 -0.00000000000000000 -1.00000000000000000 -0.00000000000000000 
1 98.33955556881019788 -3.57212390313460970 -0.64278760968653925 -0.76604444311897812 
1 0.00000000000000000 0.00000000000000000 1.00000000000000000 0.00000000000000000 
8 -30.23752109779168507 50.69010314531119832
1 78.90325165951438180 -26.73540891379079554 -0.64278760968653925 -0.76604444311897812 
8 -30.23752109779168507 50.69010314531119832
1 30.23752109779168507 -1.99999999999998801 1.00000000000000000 -0.00000000000000003 
1 0.00000000000000000 0.00000000000000300 0.00000000000000014 -1.00000000000000000 
1 2.26892802759262802 0.00000000000000000 0.00000000000000000 -1.00000000000000000 
2 2.50000000000009281 -98.50000000000002842 0.00000000000000022 -1.00000000000000000 -1.00000000000000000 -0.00000000000000022 2.50000000000000000
1 0.00000000000000000 0.00000000000000000 1.00000000000000000 0.00000000000000000 
2 2.50000000000009281 -98.50000000000002842 0.00000000000000022 -1.00000000000000000 1.00000000000000000 0.00000000000000022 2.50000000000000000
1 6.28318530717958623 -1.99999999999998668 -1.00000000000000000 0.00000000000000000 
1 0.00000000000000000 0.00000000000000000 0.00000000000000000 -1.00000000000000000 
1 -2.50000000000009903 -2.00000000000001155 0.00000000000000000 1.00000000000000000 
2 105.99999999999998579 -9.99999999999999822 0.00000000000000022 -1.00000000000000000 -1.00000000000000000 -0.00000000000000022 10.00000000000000000
1 0.00000000000000000 0.00000000000000000 1.00000000000000000 0.00000000000000000 
7 0 0  1 2 2  3.14159265358979312 0.00000000000000000  3.14159265358979312 -1.99999999999998912 
 0.00000000000000000 2 1.00000000000000000 2
7 0 0  3 15 13  1.00000000004442691 -2.19911485741246482  0.94444444448887288 -2.19911485741246171  0.83333333337776316 -2.19911485741245905  0.66666666671109787 -2.19911485741245993  0.50000000004443124 -2.19911485741245993  0.33333333337776438 -2.19911485741245993  0.16666666671109787 -2.19911485741245993  0.00000000004443113 -2.19911485741245993  -0.16666666662223539 -2.19911485741246082  -0.33333333328890236 -2.19911485741246038  -0.49999999995556887 -2.19911485741246038  -0.66666666662223539 -2.19911485741245993  -0.83333333328890213 -2.19911485741245993  -0.94444444440001352 -2.19911485741245993  -0.99999999995556887 -2.19911485741245949 
 0.00000000000000000 4 0.08333333333333143 1 0.16666666666666485 1 0.24999999999999850 1 0.33333333333333193 1 0.41666666666666535 1 0.49999999999999900 1 0.58333333333333237 1 0.66666666666666585 1 0.74999999999999956 1 0.83333333333333304 1 0.91666666666666652 1 1.00000000000000022 4
2 105.99999999999998579 -9.99999999999999822 0.00000000000000022 -1.00000000000000000 1.00000000000000000 0.00000000000000022 10.00000000000000000
1 6.28318530717958623 -1.99999999999999001 -1.00000000000000000 0.00000000000000000 
1 -2.19911485737016799 50.50000000013565682 -1.00000000000000000 0.00000000000009693 
8 -4.39822971445719979 -0.00000000000000000
1 1.00000000004442691 -2.19911485741246482 0.00000000000000028 -1.00000000000000000 
7 0 0  1 2 2  3.14159265358020301 0.00000000000000000  3.14159265358020301 -1.99999999999998690 
 0.00000000000000000 2 1.00000000000000000 2
7 0 0  3 15 13  1.00000000004442580 2.19911485704473542  0.94444444448887155 2.19911485739216106  0.83333333337776183 2.19911485771585768  0.66666666671109653 2.19911485758575687  0.50000000004442990 2.19911485762061742  0.33333333337776339 2.19911485761127601  0.16666666671109642 2.19911485761378023  0.00000000004443024 2.19911485761310788  -0.16666666662223695 2.19911485761328818  -0.33333333328890324 2.19911485761323888  -0.49999999995557021 2.19911485761325309  -0.66666666662223673 2.19911485761324954  -0.83333333328890369 2.19911485761325087  -0.94444444440001485 2.19911485761324998  -0.99999999995557021 2.19911485761324954 
 0.00000000000000000 4 0.08333333333333150 1 0.16666666666666494 1 0.24999999999999839 1 0.33333333333333204 1 0.41666666666666546 1 0.49999999999999889 1 0.58333333333333248 1 0.66666666666666596 1 0.74999999999999944 1 0.83333333333333315 1 0.91666666666666663 1 1.00000000000000022 4
1 50.50000000000000000 2.19911485751286584 0.00000000000000000 1.00000000000000000 
1 -0.99999999995556910 -2.19911485741245949 0.00000000000000025 -1.00000000000000000 
2 -0.00000000150415476 -21.00000000150671653 -0.00000000000000022 -1.00000000000000000 -1.00000000000000000 0.00000000000000022 21.00000000150543045
1 0.00000000000000000 0.00000000000000000 1.00000000000000000 0.00000000000000000 
1 4.71238898039429621 0.00000000000000000 0.00000000000000000 -1.00000000000000000 
1 58.99999999658291472 0.00000000000000000 0.00000000000000000 -1.00000000000000000 
2 -0.00000000150415431 -21.00000000150671653 -0.00000000000000022 -1.00000000000000000 1.00000000000000000 -0.00000000000000022 21.00000000150543045
1 6.28318530717958623 -1.99999999999999267 -1.00000000000000000 0.00000000000000000 
1 21.00000000000510170 -79.99999999829137209 0.00000000000000022 1.00000000000000000 
1 0.00000000000000000 -0.00000000000000000 1.00000000000000000 0.00000000000000000 
8 -39.99999999914568605 18.99999999743722867
1 21.00000000000511235 -39.99999999914569315 0.00000000000000022 1.00000000000000000 
8 -39.99999999914568605 18.99999999743722867
1 39.99999999914568605 -2.00000000000000266 1.00000000000000000 0.00000000000000028 
1 0.00000000000000000 -0.00000000000000000 0.00000000000000000 -1.00000000000000000 
1 4.71238898037507514 0.00000000000000000 0.00000000000000000 -1.00000000000000000 
2 -0.00000000150032637 -79.99999999849327992 -0.00000000000000022 -1.00000000000000000 -1.00000000000000000 0.00000000000000022 21.00000000150543045
1 0.00000000000000000 0.00000000000000000 1.00000000000000000 0.00000000000000000 
7 0 0  3 15 13  1.00000000000018097 2.19911485751099622  0.94444444444462372 2.19911485751237556  0.83333333333351101 2.19911485751365943  0.66666666666684282 2.19911485751314340  0.50000000000017608 2.19911485751328195  0.33333333333350945 2.19911485751324465  0.16666666666684271 2.19911485751325442  0.00000000000017586 2.19911485751325086  -0.16666666666649066 2.19911485751325175  -0.33333333333315740 2.19911485751325353  -0.49999999999982392 2.19911485751325264  -0.66666666666649044 2.19911485751325264  -0.83333333333315762 2.19911485751325264  -0.94444444444426834 2.19911485751325264  -0.99999999999982414 2.19911485751325175 
 0.00000000000000000 4 0.16666666666667163 1 0.33333333333333814 1 0.50000000000000511 1 0.66666666666667163 1 0.83333333333333814 1 1.00000000000000511 1 1.16666666666667118 1 1.33333333333333814 1 1.50000000000000511 1 1.66666666666667118 1 1.83333333333333814 1 2.00000000000000533 4
7 0 0  1 2 2  6.28318530710846446 0.00000000000000000  6.28318530710846446 -2.00000000000001510 
 0.00000000000000000 2 2.00000000000000533 2
2 -0.00000000150032592 -79.99999999849327992 -0.00000000000000022 -1.00000000000000000 1.00000000000000000 -0.00000000000000022 21.00000000150543045
1 6.28318530717958623 -2.00000000000000933 -1.00000000000000000 0.00000000000000000 
2 7.99999999999999112 -90.50000000000000000 0.00000000000000022 1.00000000000000000 -1.00000000000000000 0.00000000000000022 2.75000000000000000
1 0.00000000000000000 0.00000000000000000 1.00000000000000000 0.00000000000000000 
2 8.00000000000000888 -10.50000000000000178 0.00000000000000022 1.00000000000000000 -1.00000000000000000 0.00000000000000022 2.75000000000000000
1 0.00000000000000000 0.00000000000000000 1.00000000000000000 0.00000000000000000 
2 10.00000000000000711 -93.50000000000002842 0.00000000000000022 -1.00000000000000000 1.00000000000000000 0.00000000000000022 1.70000000000000284
1 0.00000000000000000 0.00000000000000000 1.00000000000000000 0.00000000000000000 
2 38.66666666666667851 -93.50000000000001421 0.00000000000000022 -1.00000000000000000 1.00000000000000000 0.00000000000000022 1.70000000000000284
1 0.00000000000000000 0.00000000000000000 1.00000000000000000 0.00000000000000000 
2 67.33333333333332860 -93.50000000000001421 0.00000000000000022 -1.00000000000000000 1.00000000000000000 0.00000000000000022 1.70000000000000284
1 0.00000000000000000 0.00000000000000000 1.00000000000000000 0.00000000000000000 
2 96.00000000000000000 -93.50000000000001421 0.00000000000000022 -1.00000000000000000 1.00000000000000000 0.00000000000000022 1.70000000000000284
1 0.00000000000000000 0.00000000000000000 1.00000000000000000 0.00000000000000000 
1 6.28318530717958623 0.00000000000000000 0.00000000000000000 1.00000000000000000 
1 0.00000000000000000 0.00000000000000000 0.00000000000000000 1.00000000000000000 
2 7.99999999999999112 -90.50000000000000000 0.00000000000000022 1.00000000000000000 1.00000000000000000 -0.00000000000000022 2.75000000000000000
1 6.28318530717958623 2.00000000000001377 -1.00000000000000000 0.00000000000000000 
1 6.28318530717958623 0.00000000000000000 0.00000000000000000 1.00000000000000000 
1 0.00000000000000000 0.00000000000000000 0.00000000000000000 1.00000000000000000 
2 8.00000000000000888 -10.50000000000000178 0.00000000000000022 1.00000000000000000 1.00000000000000000 -0.00000000000000022 2.75000000000000000
1 6.28318530717958623 1.99999999999999134 -1.00000000000000000 0.00000000000000000 
1 6.28318530717958623 0.00000000000000000 0.00000000000000000 1.00000000000000000 
1 0.00000000000000000 0.00000000000000000 0.00000000000000000 1.00000000000000000 
2 10.00000000000000711 -93.50000000000002842 0.00000000000000022 -1.00000000000000000 -1.00000000000000000 -0.00000000000000022 1.69999999999999996
1 6.28318530717958623 2.00000000000000933 -1.00000000000000000 0.00000000000000000 
1 6.28318530717958623 0.00000000000000000 0.00000000000000000 1.00000000000000000 
1 0.00000000000000000 0.00000000000000000 0.00000000000000000 1.00000000000000000 
2 38.66666666666667851 -93.50000000000001421 0.00000000000000022 -1.00000000000000000 -1.00000000000000000 -0.00000000000000022 1.69999999999999996
1 6.28318530717958623 2.00000000000000933 -1.00000000000000000 0.00000000000000000 
1 6.28318530717958623 0.00000000000000000 0.00000000000000000 1.00000000000000000 
1 0.00000000000000000 0.00000000000000000 0.00000000000000000 1.00000000000000000 
2 67.33333333333332860 -93.50000000000001421 0.00000000000000022 -1.00000000000000000 -1.00000000000000000 -0.00000000000000022 1.69999999999999996
1 6.28318530717958623 2.00000000000000933 -1.00000000000000000 0.00000000000000000 
1 6.28318530717958623 0.00000000000000000 0.00000000000000000 1.00000000000000000 
1 0.00000000000000000 0.00000000000000000 0.00000000000000000 1.00000000000000000 
2 96.00000000000000000 -93.50000000000001421 0.00000000000000022 -1.00000000000000000 -1.00000000000000000 -0.00000000000000022 1.69999999999999996
1 6.28318530717958623 2.00000000000000933 -1.00000000000000000 0.00000000000000000 
Curves 51
2 38.00000000000005684 103.89822971502560733 0.00000000000001458 -0.00000000000000006 -0.00000000000000011 1.00000000000000000 1.00000000000000000 -0.00000000000000050 0.00000000000000006 0.00000000000000050 1.00000000000000000 0.00000000000000011 2.50000000000000000
1 35.49999999999636202 103.89822971500977644 -0.00000000000000957 -0.00000000000000006 0.00000000000000011 1.00000000000000000 
2 38.00000000000005684 103.89822971502560733 1.99999999999999911 0.00000000000000006 0.00000000000000011 -1.00000000000000000 1.00000000000000000 -0.00000000000000050 0.00000000000000006 -0.00000000000000050 -1.00000000000000000 -0.00000000000000011 2.50000000000000000
1 38.00000000000005684 106.39822971502560733 -0.00000000000000914 -0.00000000000000006 0.00000000000000011 1.00000000000000000 
2 -21.70327683114539497 103.89820063574531162 0.00000000000001100 -0.00000000000000006 -0.00000000000000011 1.00000000000000000 1.00000000000000000 -0.00000000000000050 0.00000000000000006 0.00000000000000050 1.00000000000000000 0.00000000000000011 57.20327683114544470
2 -21.70327683114539497 103.89820063574531162 1.99999999999998246 0.00000000000000006 0.00000000000000011 -1.00000000000000000 1.00000000000000000 -0.00000000000000050 0.00000000000000006 -0.00000000000000050 -1.00000000000000000 -0.00000000000000011 57.20327683114544470
1 15.06628074938395301 60.07794829104973644 -0.00000000000000566 -0.00000000000000006 0.00000000000000011 1.00000000000000000 
1 48.00000000000005684 106.39822971502559312 0.00000000000001546 -1.00000000000000000 0.00000000000000050 -0.00000000000000006 
1 48.00000000000005684 106.39822971502559312 -0.00000000000000854 -0.00000000000000006 0.00000000000000011 1.00000000000000000 
1 -50.49999999999996447 106.39822971502572102 1.99999999999997402 1.00000000000000000 -0.00000000000000022 0.00000000000000028 
1 -46.92787609686538275 8.05867414621551426 -0.00000000000000116 0.76604444311897835 0.64278760968653914 0.00000000000000012 
1 -23.76459108620919380 27.49497805551131790 1.99999999999999067 0.76604444311897835 0.64278760968653914 0.00000000000000015 
1 -46.92787609686538275 8.05867414621551426 -0.00000000000000416 -0.00000000000000006 0.00000000000000011 1.00000000000000000 
2 48.00000000000005684 103.89822971502559312 0.00000000000001518 -0.00000000000000006 -0.00000000000000011 1.00000000000000000 1.00000000000000000 -0.00000000000000050 0.00000000000000006 0.00000000000000050 1.00000000000000000 0.00000000000000011 2.50000000000000000
2 48.00000000000005684 103.89822971502559312 2.00000000000000178 0.00000000000000006 0.00000000000000011 -1.00000000000000000 1.00000000000000000 -0.00000000000000050 0.00000000000000006 -0.00000000000000050 -1.00000000000000000 -0.00000000000000011 2.50000000000000000
1 50.50000000000005684 103.89822971502559312 -0.00000000000000867 -0.00000000000000006 0.00000000000000011 1.00000000000000000 
2 -40.50000000000000000 0.39822971502573079 -0.00000000000000162 -0.00000000000000006 -0.00000000000000011 1.00000000000000000 1.00000000000000000 -0.00000000000000050 0.00000000000000006 0.00000000000000050 1.00000000000000000 0.00000000000000011 10.00000000000000000
6 0 1 -50.50000000000000000 0.39822971502572102 -0.00000000000001432  -50.50000000000000000 0.39822971502572191 1.99999999999998579  
2 -40.50000000000000000 0.39822971502573079 1.99999999999998845 0.00000000000000006 0.00000000000000011 -1.00000000000000000 1.00000000000000000 -0.00000000000000050 0.00000000000000006 -0.00000000000000050 -1.00000000000000000 -0.00000000000000011 10.00000000000000000
1 -50.50000000000000000 0.39822971502572635 -0.00000000000001022 -0.00000000000009693 1.00000000000000000 -0.00000000000000028 
6 0 1 -50.50000000000000000 -3.99999999999998890 -0.00000000000001313  -50.50000000000000000 -3.99999999999998845 1.99999999999998690  
1 -50.50000000000000000 0.39822971502572102 1.99999999999998579 -0.00000000000000000 1.00000000000000000 -0.00000000000000025 
2 -29.49999999849328347 -3.99999999849583876 0.00000000000000000 0.00000000000000000 0.00000000000000000 1.00000000000000000 1.00000000000000000 0.00000000000000000 -0.00000000000000000 -0.00000000000000000 1.00000000000000000 0.00000000000000000 21.00000000150543045
1 -29.49999999829154973 -25.00000000000319034 0.00000000000000000 0.00000000000000000 0.00000000000000000 1.00000000000000000 
2 -29.49999999849328347 -3.99999999849583876 1.99999999999999267 0.00000000000000000 0.00000000000000000 -1.00000000000000000 1.00000000000000000 0.00000000000000000 0.00000000000000000 0.00000000000000000 -1.00000000000000000 0.00000000000000000 21.00000000150543045
1 29.49999999829136854 -25.00000000000510880 0.00000000000000000 -1.00000000000000000 0.00000000000000000 0.00000000000000000 
1 -10.50000000085431573 -25.00000000000510880 2.00000000000000266 -1.00000000000000000 -0.00000000000000000 -0.00000000000000028 
1 29.49999999829136854 -25.00000000000510880 0.00000000000000000 0.00000000000000000 0.00000000000000000 1.00000000000000000 
2 29.49999999849327637 -3.99999999849968013 0.00000000000000000 0.00000000000000000 0.00000000000000000 1.00000000000000000 1.00000000000000000 0.00000000000000000 -0.00000000000000000 -0.00000000000000000 1.00000000000000000 0.00000000000000000 21.00000000150543045
7 0 0  3 15 13  50.49999999999956657 -3.99999999999775513 0.00000000000001000  50.49999999999982947 -3.99999999999913447 0.05555555555556722  50.50000000000007816 -4.00000000000041833 0.16666666666667992  50.49999999999996447 -3.99999999999990230 0.33333333333334819  50.50000000000000711 -4.00000000000004086 0.50000000000001488  50.49999999999999289 -4.00000000000000355 0.66666666666668151  50.50000000000000000 -4.00000000000001332 0.83333333333334825  50.50000000000000000 -4.00000000000000977 1.00000000000001510  50.49999999999999289 -4.00000000000001066 1.16666666666668162  50.50000000000001421 -4.00000000000001243 1.33333333333334836  50.49999999999999289 -4.00000000000001155 1.50000000000001488  50.50000000000000000 -4.00000000000001155 1.66666666666668140  50.50000000000000000 -4.00000000000001155 1.83333333333334858  50.50000000000000000 -4.00000000000001155 1.94444444444445930  50.50000000000000000 -4.00000000000001066 2.00000000000001510 
 0.00000000000000000 4 0.16666666666667163 1 0.33333333333333814 1 0.50000000000000511 1 0.66666666666667163 1 0.83333333333333814 1 1.00000000000000511 1 1.16666666666667118 1 1.33333333333333814 1 1.50000000000000511 1 1.66666666666667118 1 1.83333333333333814 1 2.00000000000000533 4
2 29.49999999849327637 -3.99999999849968013 2.00000000000000933 0.00000000000000000 0.00000000000000000 -1.00000000000000000 1.00000000000000000 0.00000000000000000 0.00000000000000000 0.00000000000000000 -1.00000000000000000 0.00000000000000000 21.00000000150543045
1 50.50000000000002842 106.39822971502569260 0.00000000000000219 -0.00000000000000028 -1.00000000000000000 0.00000000000000011 
2 40.00000000000000000 -12.00000000000000000 0.00000000000000000 0.00000000000000000 0.00000000000000000 -1.00000000000000000 -1.00000000000000000 0.00000000000000000 0.00000000000000000 0.00000000000000000 1.00000000000000000 0.00000000000000000 2.75000000000000000
2 -40.00000000000000000 -12.00000000000000000 0.00000000000000000 0.00000000000000000 0.00000000000000000 -1.00000000000000000 -1.00000000000000000 0.00000000000000000 0.00000000000000000 0.00000000000000000 1.00000000000000000 0.00000000000000000 2.75000000000000000
2 43.00000000000004974 96.39822971502567839 -0.00000000000000795 0.00000000000000006 -0.00000000000000011 -1.00000000000000000 1.00000000000000000 -0.00000000000000050 0.00000000000000006 -0.00000000000000050 -1.00000000000000000 0.00000000000000011 1.69999999999999996
2 43.00000000000003553 67.73156304835900698 -0.00000000000000514 0.00000000000000006 -0.00000000000000011 -1.00000000000000000 1.00000000000000000 -0.00000000000000050 0.00000000000000006 -0.00000000000000050 -1.00000000000000000 0.00000000000000011 1.69999999999999996
2 43.00000000000002132 39.06489638169234979 -0.00000000000000132 0.00000000000000006 -0.00000000000000011 -1.00000000000000000 1.00000000000000000 -0.00000000000000050 0.00000000000000006 -0.00000000000000050 -1.00000000000000000 0.00000000000000011 1.69999999999999996
2 43.00000000000000711 10.39822971502568905 0.00000000000000150 0.00000000000000006 -0.00000000000000011 -1.00000000000000000 1.00000000000000000 -0.00000000000000050 0.00000000000000006 -0.00000000000000050 -1.00000000000000000 0.00000000000000011 1.69999999999999996
1 -2.75000000000000000 0.00000000000000000 0.00000000000000000 0.00000000000000006 0.00000000000000000 1.00000000000000000 
2 40.00000000000000000 -12.00000000000000000 2.00000000000001377 0.00000000000000000 0.00000000000000000 1.00000000000000000 -1.00000000000000000 0.00000000000000000 0.00000000000000000 0.00000000000000000 -1.00000000000000000 0.00000000000000000 2.75000000000000000
1 -2.75000000000000000 0.00000000000000000 0.00000000000000000 0.00000000000000006 0.00000000000000000 1.00000000000000000 
2 -40.00000000000000000 -12.00000000000000000 1.99999999999999134 0.00000000000000000 0.00000000000000000 1.00000000000000000 -1.00000000000000000 0.00000000000000000 0.00000000000000000 0.00000000000000000 -1.00000000000000000 0.00000000000000000 2.75000000000000000
1 1.69999999999999996 -0.00000000000000000 0.00000000000000000 -0.00000000000000006 -1.00000000000000000 0.00000000000000022 
2 43.00000000000004974 96.39822971502567839 2.00000000000000133 -0.00000000000000006 0.00000000000000011 1.00000000000000000 1.00000000000000000 -0.00000000000000050 0.00000000000000006 0.00000000000000050 1.00000000000000000 -0.00000000000000011 1.69999999999999996
1 1.69999999999999996 -0.00000000000000000 0.00000000000000000 -0.00000000000000006 -1.00000000000000000 0.00000000000000022 
2 43.00000000000003553 67.73156304835900698 2.00000000000000444 -0.00000000000000006 0.00000000000000011 1.00000000000000000 1.00000000000000000 -0.00000000000000050 0.00000000000000006 0.00000000000000050 1.00000000000000000 -0.00000000000000011 1.69999999999999996
1 1.69999999999999996 -0.00000000000000000 0.00000000000000000 -0.00000000000000006 -1.00000000000000000 0.00000000000000022 
2 43.00000000000002132 39.06489638169234979 2.00000000000000755 -0.00000000000000006 0.00000000000000011 1.00000000000000000 1.00000000000000000 -0.00000000000000050 0.00000000000000006 0.00000000000000050 1.00000000000000000 -0.00000000000000011 1.69999999999999996
1 1.69999999999999996 -0.00000000000000000 0.00000000000000000 -0.00000000000000006 -1.00000000000000000 0.00000000000000022 
2 43.00000000000000711 10.39822971502568905 2.00000000000001110 -0.00000000000000006 0.00000000000000011 1.00000000000000000 1.00000000000000000 -0.00000000000000050 0.00000000000000006 0.00000000000000050 1.00000000000000000 -0.00000000000000011 1.69999999999999996
1 50.50000000000000000 0.39822971502569926 2.00000000000001510 0.00000000000000000 -1.00000000000000000 0.00000000000000000 
Polygon3D 0
PolygonOnTriangulations 0
Surfaces 27
2 38.00000000000000000 0.00000000000000000 107.49999999999991473 -0.00000000000000000 1.00000000000000000 -0.00000000000000000 1.00000000000000000 0.00000000000000000 0.00000000000000000 -0.00000000000000000 -0.00000000000000000 1.00000000000000000 2.50000000000000000
1 -50.50000000000002132 0.00000000000003564 109.99999999999998579 0.00000000000000022 1.00000000000000000 -0.00000000000000022 0.00000000000000022 -0.00000000000000022 -1.00000000000000000 -1.00000000000000000 0.00000000000000022 -0.00000000000000022 
2 -21.70327683114544826 0.00000000000000000 107.49997092071959059 -0.00000000000000000 1.00000000000000000 -0.00000000000000000 1.00000000000000000 0.00000000000000000 0.00000000000000000 -0.00000000000000000 -0.00000000000000000 1.00000000000000000 57.20327683114544470
1 -50.50000000000002132 -1.99999999999996447 109.99999999999998579 0.00000000000000022 1.00000000000000000 -0.00000000000000022 0.00000000000000022 -0.00000000000000022 -1.00000000000000000 -1.00000000000000000 0.00000000000000022 -0.00000000000000022 
1 -50.50000000000002132 -1.99999999999996447 109.99999999999998579 -0.00000000000000028 0.00000000000000000 1.00000000000000000 -1.00000000000000000 0.00000000000000022 -0.00000000000000028 -0.00000000000000022 -1.00000000000000000 -0.00000000000000000 
1 -46.92787609686538985 0.00000000000000000 11.66044443118978080 -0.64278760968653947 0.00000000000000017 0.76604444311897801 0.76604444311897801 0.00000000000000000 0.64278760968653947 0.00000000000000011 1.00000000000000000 -0.00000000000000013 
2 48.00000000000000000 0.00000000000000000 107.49999999999991473 -0.00000000000000000 1.00000000000000000 -0.00000000000000000 1.00000000000000000 0.00000000000000000 0.00000000000000000 -0.00000000000000000 -0.00000000000000000 1.00000000000000000 2.50000000000000000
2 -40.50000000000000000 0.00000000000000000 4.00000000000000000 -0.00000000000000000 1.00000000000000000 -0.00000000000000000 1.00000000000000000 0.00000000000000000 0.00000000000000000 -0.00000000000000000 -0.00000000000000000 1.00000000000000000 10.00000000000000000
1 50.49999999999997868 -1.99999999999998690 110.00000000000001421 1.00000000000000000 0.00000000000000000 0.00000000000000022 -0.00000000000000022 0.00000000000000022 1.00000000000000000 -0.00000000000000000 -1.00000000000000000 0.00000000000000022 
1 -50.49999999999991473 -1.80088514238673847 1.00000000004441669 -1.00000000000000000 -0.00000000000003423 -0.00000000000009548 0.00000000000009548 0.00000000000000000 -1.00000000000000000 0.00000000000003423 -1.00000000000000000 0.00000000000000000 
1 0.00000000013565567 -1.80088514234444164 0.00000000000000115 0.00000000000000021 0.00000000000000030 -1.00000000000000000 0.00000000000000000 -1.00000000000000000 -0.00000000000000030 -1.00000000000000000 0.00000000000000000 -0.00000000000000021 
2 -29.49999999849328347 -3.99999999849583876 0.00000000000000000 -0.00000000000000000 -0.00000000000000000 -1.00000000000000000 1.00000000000000000 0.00000000000000000 0.00000000000000000 -0.00000000000000000 1.00000000000000000 -0.00000000000000000 21.00000000150543045
1 0.00000000000000081 -1.80088514248714482 2.00000000000000089 0.00000000000000028 -0.00000000000000013 -1.00000000000000000 -1.00000000000000000 0.00000000000000000 -0.00000000000000028 0.00000000000000000 1.00000000000000000 -0.00000000000000013 
1 -50.50000000000000000 -3.99999999999998890 -0.00000000000001313 0.00000000000000028 -0.00000000000000022 -1.00000000000000000 -0.00000000000000022 -1.00000000000000000 0.00000000000000022 -1.00000000000000000 0.00000000000000022 -0.00000000000000028 
1 29.49999999829136854 -25.00000000000510880 0.00000000000000000 0.00000000000000000 -1.00000000000000000 0.00000000000000000 -1.00000000000000000 0.00000000000000000 0.00000000000000000 -0.00000000000000000 -0.00000000000000000 -1.00000000000000000 
1 -50.50000000000000000 -3.99999999999998845 1.99999999999998690 0.00000000000000028 -0.00000000000000022 -1.00000000000000000 -0.00000000000000022 -1.00000000000000000 0.00000000000000022 -1.00000000000000000 0.00000000000000022 -0.00000000000000028 
2 29.49999999849327637 -3.99999999849968013 0.00000000000000000 -0.00000000000000000 -0.00000000000000000 -1.00000000000000000 1.00000000000000000 0.00000000000000000 0.00000000000000000 -0.00000000000000000 1.00000000000000000 -0.00000000000000000 21.00000000150543045
1 50.49999999999991473 -1.80088514248675868 1.00000000000019096 -1.00000000000000000 0.00000000000003494 0.00000000000009714 -0.00000000000009714 0.00000000000000000 -1.00000000000000000 -0.00000000000003494 -1.00000000000000000 0.00000000000000000 
1 14.41381663891204568 29.17320468351239526 0.00000000000000498 0.00000000000000008 0.00000000000000003 -1.00000000000000000 -1.00000000000000000 0.00000000000000000 -0.00000000000000008 -0.00000000000000000 1.00000000000000000 0.00000000000000003 
2 0.00000000000000000 0.00000000000000000 0.00000000000000000 0.00000000000000000 0.00000000000000000 1.00000000000000000 -1.00000000000000000 0.00000000000000000 0.00000000000000000 -0.00000000000000000 1.00000000000000000 -0.00000000000000000 2.75000000000000000
2 0.00000000000000000 0.00000000000000000 0.00000000000000000 0.00000000000000000 0.00000000000000000 1.00000000000000000 -1.00000000000000000 0.00000000000000000 0.00000000000000000 -0.00000000000000000 1.00000000000000000 -0.00000000000000000 2.75000000000000000
2 0.00000000000000000 0.00000000000000000 0.00000000000000000 -0.00000000000000000 -1.00000000000000000 0.00000000000000022 1.00000000000000000 0.00000000000000000 0.00000000000000000 0.00000000000000000 -0.00000000000000022 -1.00000000000000000 1.69999999999999996
2 0.00000000000000000 0.00000000000000000 0.00000000000000000 -0.00000000000000000 -1.00000000000000000 0.00000000000000022 1.00000000000000000 0.00000000000000000 0.00000000000000000 0.00000000000000000 -0.00000000000000022 -1.00000000000000000 1.69999999999999996
2 0.00000000000000000 0.00000000000000000 0.00000000000000000 -0.00000000000000000 -1.00000000000000000 0.00000000000000022 1.00000000000000000 0.00000000000000000 0.00000000000000000 0.00000000000000000 -0.00000000000000022 -1.00000000000000000 1.69999999999999996
2 0.00000000000000000 0.00000000000000000 0.00000000000000000 -0.00000000000000000 -1.00000000000000000 0.00000000000000022 1.00000000000000000 0.00000000000000000 0.00000000000000000 0.00000000000000000 -0.00000000000000022 -1.00000000000000000 1.69999999999999996
1 14.41381663881850450 29.17320468346434481 1.99999999999999978 -0.00000000000000026 0.00000000000000015 1.00000000000000000 1.00000000000000000 0.00000000000000000 0.00000000000000026 0.00000000000000000 1.00000000000000000 -0.00000000000000015 
1 50.49999999999997158 49.94911485751337210 1.00000000000002065 1.00000000000000000 -0.00000000000000037 -0.00000000000000786 0.00000000000000786 0.00000000000000000 1.00000000000000000 -0.00000000000000037 -1.00000000000000000 0.00000000000000000 
Triangulations 0

TShapes 137
Ve
0.001000000000202
38.000000000000057 106.398229715025607 -0.000000000000009
0 0

0101101
*
Ve
0.001000000000016
35.499999999996362 103.898229715009776 -0.000000000000010
0 0

0101101
*
Ed
 0.000000100000000 1 1 0
1  1 0 1.570796326794896 3.141592653589796
2  1 2 17 1.570796326794896 3.141592653589796
2  2 1 9 1.570796326794896 3.141592653589796
4 C0 2 17 1 9
0

0101000
+137 0 -136 0 *
Ve
0.001000000016273
35.499999999996362 103.898229715009776 1.999999999999999
0 0

0101101
*
Ed
 0.000000100000000 1 1 0
1  2 0 0.000000000000000 2.000000000000008
2  3 1 9 0.000000000000000 2.000000000000008
2  4 3 20 0.000000000000000 2.000000000000008
4 C0 1 9 3 20
0

0101000
+136 0 -134 0 *
Ve
0.001000050001016
38.000000000000057 106.398229715025664 1.999999999999999
0 0

0101101
*
Ed
 0.000000100000000 1 1 0
1  3 0 3.141592653589793 4.712388980384690
2  5 4 23 3.141592653589793 4.712388980384690
2  6 1 9 3.141592653589793 4.712388980384690
4 C0 1 9 4 23
0

0101000
+134 0 -132 0 *
Ed
 0.000000100000000 1 1 0
1  4 0 0.000000000000000 2.000000000000008
2  7 1 9 0.000000000000000 2.000000000000008
2  8 5 26 0.000000000000000 2.000000000000008
4 G1 1 9 5 26
0

0101000
+137 0 -132 0 *
Wi

0101100
-135 10 -133 10 -131 10 +130 10 *
Fa
0  0.001000000000016 1 0

0111000
+129 0 *
Ve
0.001000000000015
15.066280749383953 60.077948291049736 -0.000000000000006
0 0

0101101
*
Ed
 0.000000100000000 1 1 0
1  5 0 5.410520681182422 6.283185815528937
2  9 2 17 5.410520681182422 6.283185815528937
2  10 3 20 5.410520681182422 6.283185815528937
4 C0 2 17 3 20
0

0101000
+127 0 -136 0 *
Ve
0.001000050000458
15.066280749383953 60.077948291049736 1.999999999999997
0 0

0101101
*
Ed
 0.000000100000000 1 1 0
1  6 0 6.283184798830235 7.155849933176751
2  11 4 23 6.283184798830235 7.155849933176751
2  12 3 20 6.283184798830235 7.155849933176751
4 C0 4 23 3 20
0

0101000
+134 0 -125 0 *
Ed
 0.000000100000000 1 1 0
1  7 0 0.000000000000000 2.000000000000003
2  13 3 20 0.000000000000000 2.000000000000003
2  14 6 30 0.000000000000000 2.000000000000003
4 G1 3 20 6 30
0

0101000
+127 0 -125 0 *
Wi

0101100
-126 27 -133 27 -124 27 +123 27 *
Fa
0  0.001000000000015 3 0

0111000
+122 0 *
Ve
0.001000000000202
48.000000000000057 106.398229715025593 -0.000000000000009
0 0

0101101
*
Ed
 0.000000100000000 1 1 0
1  8 0 0.000000000000000 10.000000000000000
2  15 2 17 0.000000000000000 10.000000000000000
2  16 5 26 0.000000000000000 10.000000000000000
4 C0 2 17 5 26
0

0101000
+120 0 -137 0 *
Ve
0.001000050001014
48.000000000000057 106.398229715025650 2.000000000000001
0 0

0101101
*
Ed
 0.000000100000000 1 1 0
1  9 0 0.000000000000000 2.000000000000010
2  17 5 26 0.000000000000000 2.000000000000010
2  18 7 36 0.000000000000000 2.000000000000010
4 G1 5 26 7 36
0

0101000
+120 0 -118 0 *
Ed
 0.000000100000000 1 1 0
1  10 0 88.500000000000028 98.500000000000028
2  19 4 23 88.500000000000028 98.500000000000028
2  20 5 26 88.500000000000028 98.500000000000028
4 C0 4 23 5 26
0

0101000
+132 0 -118 0 *
Wi

0101100
+119 33 -117 33 +116 33 +130 33 *
Fa
0  0.000000100000000 5 32

0111000
+115 0 *
Ve
0.001000000000013
-46.927876096865383 8.058674146215514 -0.000000000000004
0 0

0101101
*
Ed
 0.000000100000000 1 1 0
1  11 0 0.000000000000000 80.927624243102443
2  21 2 17 0.000000000000000 80.927624243102443
2  22 6 30 0.000000000000000 80.927624243102443
4 C0 2 17 6 30
0

0101000
+113 0 -127 0 *
Ve
0.001000050000020
-46.927876096865383 8.058674146215514 1.999999999999986
0 0

0101101
*
Ed
 0.000000100000000 1 1 0
1  12 0 -30.237521097791685 50.690103145311198
2  23 4 23 -30.237521097791685 50.690103145311198
2  24 6 30 -30.237521097791685 50.690103145311198
4 C0 4 23 6 30
0

0101000
+111 0 -125 0 *
Ed
 0.000000100000000 1 1 0
1  13 0 0.000000000000000 1.999999999999990
2  25 6 30 0.000000000000000 1.999999999999990
2  26 8 40 0.000000000000000 1.999999999999990
4 G1 6 30 8 40
0

0101000
+113 0 -111 0 *
Wi

0101100
-112 37 -123 37 +110 37 +109 37 *
Fa
0  0.001000000000013 6 0

0111000
+108 0 *
Ve
0.001000000000024
50.500000000000057 103.898229715025593 -0.000000000000009
0 0

0101101
*
Ed
 0.000000100000000 1 1 0
1  14 0 0.000000000000000 1.570796326794896
2  27 2 17 0.000000000000000 1.570796326794896
2  28 7 36 0.000000000000000 1.570796326794896
4 C0 2 17 7 36
0

0101000
+106 0 -120 0 *
Ve
0.001000050001014
50.500000000000043 103.898229715025593 2.000000000000004
0 0

0101101
*
Ed
 0.000000100000000 1 1 0
1  15 0 4.712388980384690 6.283185307179586
2  29 4 23 4.712388980384690 6.283185307179586
2  30 7 36 4.712388980384690 6.283185307179586
4 C0 4 23 7 36
0

0101000
+118 0 -104 0 *
Ed
 0.000000100000000 1 1 0
1  16 0 0.000000000000000 2.000000000000012
2  31 7 36 0.000000000000000 2.000000000000012
2  32 9 44 0.000000000000000 2.000000000000012
4 G1 7 36 9 44
0

0101000
+106 0 -104 0 *
Wi

0101100
-105 41 -117 41 -103 41 +102 41 *
Fa
0  0.001000000000014 7 0

0111000
+101 0 *
Ve
0.001000000000019
-50.500000000000000 0.398229715025726 -0.000000000000010
0 0

0101101
*
Ed
 0.000000100000000 1 1 0
1  17 0 2.268928027592628 3.141592653589793
2  33 2 17 2.268928027592628 3.141592653589793
2  34 8 40 2.268928027592628 3.141592653589793
4 C0 2 17 8 40
0

0101000
+113 0 -99 0 *
Ve
0.001000050001000
-50.500000000000000 0.398229715025721 1.999999999999986
0 0

0101101
*
Ed
 0.000000100000000 1 1 0
1  18 0 0.000000000000000 1.000000000000000
2  35 8 40 0.000000000000000 1.000000000000000
2  36 10 0 0.000000000000000 1.000000000000000
4 G1 8 40 10 0
0

0101000
+99 0 -97 0 *
Ed
 0.000000100000000 1 1 0
1  19 0 3.141592653589793 4.014257279586959
2  37 4 23 3.141592653589793 4.014257279586959
2  38 8 40 3.141592653589793 4.014257279586959
4 C0 4 23 8 40
0

0101000
+97 0 -111 0 *
Wi

0101100
-98 45 -96 45 -95 45 +109 45 *
Fa
0  0.000001000000000 8 0

0111000
+94 0 *
Ve
0.001000000568528
-50.499999999999574 -3.999999999431474 -0.000000000000009
0 0

0101101
*
Ed
 0.000000100000000 1 1 0
1  20 0 -4.398229714457200 0.000000000000000
2  39 11 0 -4.398229714457200 0.000000000000000
2  40 10 0 -4.398229714457200 0.000000000000000
4 C0 11 0 10 0
0

0101000
+92 0 -99 0 *
Ve
0.001000050001000
-50.500000000000000 -3.999999999999988 1.999999999999987
0 0

0101101
*
Ed
 0.000000100000000 1 1 0
1  21 0 0.000000000000000 1.000000000000000
2  41 12 46 0.000000000000000 1.000000000000000
2  42 10 0 0.000000000000000 1.000000000000000
4 C0 10 0 12 46
0

0101000
+92 0 -90 0 *
Ed
 0.000000100000000 1 1 0
1  22 0 -4.398229715025709 0.000000000000000
2  43 13 0 -4.398229715025709 0.000000000000000
2  44 10 0 -4.398229715025709 0.000000000000000
4 C0 13 0 10 0
0

0101000
+90 0 -97 0 *
Wi

0101100
-91 0 +89 0 +88 0 -96 0 *
Fa
0  0.000000100000000 10 0

0111000
+87 0 *
Ve
0.001000000000013
-29.499999998291550 -25.000000000003190 0.000000000000000
0 0

0101101
*
Ed
 0.000000100000000 1 1 0
1  23 0 3.141592653580203 4.712388980394296
2  45 14 48 3.141592653580203 4.712388980394296
2  46 12 46 3.141592653580203 4.712388980394296
4 C0 14 48 12 46
0

0101000
+92 0 -85 0 *
Ve
0.001000050001918
-29.499999998291550 -25.000000000003190 1.999999999999997
0 0

0101101
*
Ed
 0.000000100000000 1 1 0
1  24 0 0.000000000000000 1.999999999999997
2  47 12 46 0.000000000000000 1.999999999999997
2  48 15 46 0.000000000000000 1.999999999999997
4 G1 12 46 15 46
0

0101000
+85 0 -83 0 *
Ed
 0.000000100000000 1 1 0
1  25 0 1.570796326785290 3.141592653599383
2  49 16 48 1.570796326785290 3.141592653599383
2  50 12 46 1.570796326785290 3.141592653599383
4 C0 16 48 12 46
0

0101000
+83 0 -90 0 *
Wi

0101100
-84 47 -82 47 -81 47 +89 47 *
Fa
0  0.000000500000000 12 0

0111000
+80 0 *
Ve
0.001000000000017
29.499999998291369 -25.000000000005109 0.000000000000000
0 0

0101101
*
Ed
 0.000000100000000 1 1 0
1  26 0 0.000000000000000 58.999999996582915
2  51 14 48 0.000000000000000 58.999999996582915
2  52 15 46 0.000000000000000 58.999999996582915
4 C0 14 48 15 46
0

0101000
+78 0 -85 0 *
Ve
0.001000050000004
29.499999998291369 -25.000000000005109 2.000000000000014
0 0

0101101
*
Ed
 0.000000100000000 1 1 0
1  27 0 -39.999999999145686 18.999999997437229
2  53 16 48 -39.999999999145686 18.999999997437229
2  54 15 46 -39.999999999145686 18.999999997437229
4 C0 16 48 15 46
0

0101000
+76 0 -83 0 *
Ed
 0.000000100000000 1 1 0
1  28 0 0.000000000000000 2.000000000000014
2  55 15 46 0.000000000000000 2.000000000000014
2  56 17 46 0.000000000000000 2.000000000000014
4 G1 15 46 17 46
0

0101000
+78 0 -76 0 *
Wi

0101100
-77 47 -82 47 +75 47 +74 47 *
Fa
0  0.000000500000000 15 0

0111000
+73 0 *
Ve
0.001000000002314
50.499999999999567 -3.999999999997755 0.000000000000010
0 0

0101101
*
Ed
 0.000000100000000 1 1 0
1  29 0 4.712388980375075 6.283185307108464
2  57 14 48 4.712388980375075 6.283185307108464
2  58 17 46 4.712388980375075 6.283185307108464
4 C0 14 48 17 46
0

0101000
+78 0 -71 0 *
Ve
0.001000050001000
50.500000000000000 -4.000000000000011 2.000000000000015
0 0

0101101
*
Ed
 0.000000100000000 1 1 0
1  30 0 0.000000000000000 2.000000000000005
2  59 18 0 0.000000000000000 2.000000000000005
2  60 17 46 0.000000000000000 2.000000000000005
4 G1 18 0 17 46
0

0101000
+71 0 -69 0 *
Ed
 0.000000100000000 1 1 0
1  31 0 0.000000000071122 1.570796326804511
2  61 16 48 0.000000000071122 1.570796326804511
2  62 17 46 0.000000000071122 1.570796326804511
4 C0 16 48 17 46
0

0101000
+69 0 -76 0 *
Wi

0101100
-70 47 -68 47 -67 47 +74 47 *
Fa
0  0.000000500000000 17 0

0111000
+66 0 *
Ed
 0.000000100000000 1 1 0
1  32 0 2.500000000000099 110.398229715023447
0

0101000
+106 0 -71 0 *
Wi

0101000
-135 0 -119 0 -105 0 +64 0 -70 0 +77 0 -84 0 +91 0 -98 0 +112 0 
+126 0 *
Ve
0.001000000000015
37.250000000000000 -12.000000000000000 0.000000000000000
0 0

0101101
*
Ed
 0.000000100000000 1 1 0
1  33 0 0.000000000000000 6.283185307179586
2  63 14 48 0.000000000000000 6.283185307179586
2  64 20 50 0.000000000000000 6.283185307179586
4 C0 14 48 20 50
0

0101000
+62 0 -62 0 *
Wi

0101100
-61 0 *
Ve
0.001000000000015
-42.750000000000000 -12.000000000000000 0.000000000000000
0 0

0101101
*
Ed
 0.000000100000000 1 1 0
1  34 0 0.000000000000000 6.283185307179586
2  65 14 48 0.000000000000000 6.283185307179586
2  66 21 52 0.000000000000000 6.283185307179586
4 C0 14 48 21 52
0

0101000
+59 0 -59 0 *
Wi

0101100
-58 0 *
Ve
0.001000000000010
44.700000000000053 96.398229715025678 -0.000000000000008
0 0

0101101
*
Ed
 0.000000100000000 1 1 0
1  35 0 0.000000000000000 6.283185307179586
2  67 2 17 0.000000000000000 6.283185307179586
2  68 22 56 0.000000000000000 6.283185307179586
4 C0 2 17 22 56
0

0101000
+56 0 -56 0 *
Wi

0101100
-55 0 *
Ve
0.001000000000010
44.700000000000038 67.731563048359007 -0.000000000000005
0 0

0101101
*
Ed
 0.000000100000000 1 1 0
1  36 0 0.000000000000000 6.283185307179586
2  69 2 17 0.000000000000000 6.283185307179586
2  70 23 60 0.000000000000000 6.283185307179586
4 C0 2 17 23 60
0

0101000
+53 0 -53 0 *
Wi

0101100
-52 0 *
Ve
0.001000000000010
44.700000000000024 39.064896381692350 -0.000000000000001
0 0

0101101
*
Ed
 0.000000100000000 1 1 0
1  37 0 0.000000000000000 6.283185307179586
2  71 2 17 0.000000000000000 6.283185307179586
2  72 24 64 0.000000000000000 6.283185307179586
4 C0 2 17 24 64
0

0101000
+50 0 -50 0 *
Wi

0101100
-49 0 *
Ve
0.001000000000010
44.700000000000010 10.398229715025687 0.000000000000002
0 0

0101101
*
Ed
 0.000000100000000 1 1 0
1  38 0 0.000000000000000 6.283185307179586
2  73 2 17 0.000000000000000 6.283185307179586
2  74 25 68 0.000000000000000 6.283185307179586
4 C0 2 17 25 68
0

0101000
+47 0 -47 0 *
Wi

0101100
-46 0 *
Fa
0  0.000000100000000 19 0

0111000
+63 0 +60 0 +57 0 +54 0 +51 0 +48 0 +45 0 *
Ve
0.001000000000000
37.250000000000000 -12.000000000000000 2.000000000000013
0 0

0101101
*
Ed
 0.000000100000000 1 1 0
1  39 0 0.000000000000000 2.000000000000013
3  75 76CN 20 0 0.000000000000000 2.000000000000013
0

0101000
+62 70 -43 70 *
Ed
 0.000000100000000 1 1 0
1  40 0 0.000000000000000 6.283185307179586
2  77 16 48 0.000000000000000 6.283185307179586
2  78 20 50 0.000000000000000 6.283185307179586
4 C0 16 48 20 50
0

0101000
+43 0 -43 0 *
Wi

0101100
-42 49 +41 71 +42 49 +61 71 *
Fa
0  0.000000100000000 20 49

0111000
+40 0 *
Ve
0.001000000000000
-42.750000000000000 -12.000000000000000 1.999999999999991
0 0

0101101
*
Ed
 0.000000100000000 1 1 0
1  41 0 0.000000000000000 1.999999999999991
3  79 80CN 21 0 0.000000000000000 1.999999999999991
0

0101000
+59 72 -38 72 *
Ed
 0.000000100000000 1 1 0
1  42 0 0.000000000000000 6.283185307179586
2  81 16 48 0.000000000000000 6.283185307179586
2  82 21 52 0.000000000000000 6.283185307179586
4 C0 16 48 21 52
0

0101000
+38 0 -38 0 *
Wi

0101100
-37 51 +36 71 +37 51 +58 71 *
Fa
0  0.000000100000000 21 51

0111000
+35 0 *
Ve
0.001000000000000
44.700000000000053 96.398229715025678 2.000000000000002
0 0

0101101
*
Ed
 0.000000100000000 1 1 0
1  43 0 0.000000000000000 2.000000000000010
3  83 84CN 22 0 0.000000000000000 2.000000000000010
0

0101000
+56 74 -33 74 *
Ed
 0.000000100000000 1 1 0
1  44 0 0.000000000000000 6.283185307179586
2  85 4 23 0.000000000000000 6.283185307179586
2  86 22 56 0.000000000000000 6.283185307179586
4 C0 4 23 22 56
0

0101000
+33 0 -33 0 *
Wi

0101100
-32 53 +31 75 +32 53 +55 75 *
Fa
0  0.000000100000000 22 53

0111000
+30 0 *
Ve
0.001000000000000
44.700000000000038 67.731563048359007 2.000000000000005
0 0

0101101
*
Ed
 0.000000100000000 1 1 0
1  45 0 0.000000000000000 2.000000000000010
3  87 88CN 23 0 0.000000000000000 2.000000000000010
0

0101000
+53 77 -28 77 *
Ed
 0.000000100000000 1 1 0
1  46 0 0.000000000000000 6.283185307179586
2  89 4 23 0.000000000000000 6.283185307179586
2  90 23 60 0.000000000000000 6.283185307179586
4 C0 4 23 23 60
0

0101000
+28 0 -28 0 *
Wi

0101100
-27 57 +26 78 +27 57 +52 78 *
Fa
0  0.000000100000000 23 57

0111000
+25 0 *
Ve
0.001000000000001
44.700000000000024 39.064896381692350 2.000000000000008
0 0

0101101
*
Ed
 0.000000100000000 1 1 0
1  47 0 0.000000000000000 2.000000000000010
3  91 92CN 24 0 0.000000000000000 2.000000000000010
0

0101000
+50 80 -23 80 *
Ed
 0.000000100000000 1 1 0
1  48 0 0.000000000000000 6.283185307179586
2  93 4 23 0.000000000000000 6.283185307179586
2  94 24 64 0.000000000000000 6.283185307179586
4 C0 4 23 24 64
0

0101000
+23 0 -23 0 *
Wi

0101100
-22 61 +21 81 +22 61 +49 81 *
Fa
0  0.000000100000000 24 61

0111000
+20 0 *
Ve
0.001000000000000
44.700000000000010 10.398229715025687 2.000000000000012
0 0

0101101
*
Ed
 0.000000100000000 1 1 0
1  49 0 0.000000000000000 2.000000000000010
3  95 96CN 25 0 0.000000000000000 2.000000000000010
0

0101000
+47 83 -18 83 *
Ed
 0.000000100000000 1 1 0
1  50 0 0.000000000000000 6.283185307179586
2  97 4 23 0.000000000000000 6.283185307179586
2  98 25 68 0.000000000000000 6.283185307179586
4 C0 4 23 25 68
0

0101000
+18 0 -18 0 *
Wi

0101100
-17 65 +16 84 +17 65 +46 84 *
Fa
0  0.000000100000000 25 65

0111000
+15 0 *
Ed
 0.000000100000000 1 1 0
1  51 0 -103.499999999999901 4.398229715025710
0

0101000
+104 0 -69 0 *
Wi

0101000
-131 0 +124 0 -110 0 -95 0 -88 0 -81 0 -75 0 -67 0 -13 0 -103 0 
-116 0 *
Wi

0101100
-41 0 *
Wi

0101100
-36 0 *
Wi

0101100
-31 0 *
Wi

0101100
-26 0 *
Wi

0101100
-21 0 *
Wi

0101100
-16 0 *
Fa
0  0.000000100000000 26 0

0111000
+12 0 +11 0 +10 0 +9 0 +8 0 +7 0 +6 0 *
Wi

0101000
-64 0 +102 0 +13 0 -68 0 *
Fa
0  0.000000100000000 27 0

0111000
+4 0 *
Sh

0101000
-128 9 +121 20 +114 31 +107 30 -100 36 -93 40 +86 0 -79 46 +72 46 -65 46 
+44 0 +39 69 +34 69 +29 73 +24 76 +19 79 +14 82 +5 0 +3 0 *
So

0100000
+2 0 *

+1 1 