
CASCADE Topology V1, (c) Matra-Datavision
Locations 1
1
1.000000000000000 0.000000000000000 0.000000000000000 -314.555366152836200 
0.000000000000000 1.000000000000000 0.000000000000000 -349.170211744073981 
0.000000000000000 0.000000000000000 1.000000000000000 -0.000000000000248 
Curve2ds 24
1 0.00000000000000000 0.00000000000000000 1.00000000000000000 0.00000000000000000 
1 0.00000000000000000 0.00000000000000000 1.00000000000000000 0.00000000000000000 
1 19.00000000000025224 0.00000000000000000 0.00000000000000000 -1.00000000000000000 
1 0.00000000000000000 0.00000000000000000 0.00000000000000000 1.00000000000000000 
1 0.00000000000000000 -604.17021174407398121 1.00000000000000000 0.00000000000000000 
1 0.00000000000000000 0.00000000000000000 1.00000000000000000 0.00000000000000000 
1 0.00000000000000000 0.00000000000000000 0.00000000000000000 -1.00000000000000000 
1 0.00000000000000000 0.00000000000000000 0.00000000000000000 1.00000000000000000 
1 0.00000000000000000 0.00000000000000000 1.00000000000000000 0.00000000000000000 
1 0.00000000000000000 631.11073230567239989 1.00000000000000000 0.00000000000000000 
1 19.00000000000025224 0.00000000000000000 0.00000000000000000 -1.00000000000000000 
1 631.11073230567239989 0.00000000000000000 0.00000000000000000 1.00000000000000000 
1 0.00000000000000000 -604.17021174407398121 1.00000000000000000 0.00000000000000000 
1 0.00000000000000000 631.11073230567239989 1.00000000000000000 0.00000000000000000 
1 0.00000000000000000 0.00000000000000000 0.00000000000000000 -1.00000000000000000 
1 631.11073230567239989 0.00000000000000000 0.00000000000000000 1.00000000000000000 
1 0.00000000000000000 0.00000000000000000 0.00000000000000000 1.00000000000000000 
1 0.00000000000000000 0.00000000000000000 1.00000000000000000 0.00000000000000000 
1 19.00000000000025224 0.00000000000000000 0.00000000000000000 1.00000000000000000 
1 0.00000000000000000 0.00000000000000000 1.00000000000000000 0.00000000000000000 
1 0.00000000000000000 0.00000000000000000 0.00000000000000000 1.00000000000000000 
1 0.00000000000000000 604.17021174407398121 1.00000000000000000 0.00000000000000000 
1 19.00000000000025224 0.00000000000000000 0.00000000000000000 1.00000000000000000 
1 0.00000000000000000 604.17021174407398121 1.00000000000000000 0.00000000000000000 
Curves 12
1 -1.00000000000000000 -1.00000000000000000 0.00000000000000000 0.00000000000000000 0.00000000000000000 1.00000000000000000 
1 -1.00000000000000000 -1.00000000000000000 19.00000000000025224 -0.00000000000000000 1.00000000000000000 0.00000000000000000 
1 -1.00000000000000000 603.17021174407398121 0.00000000000000000 0.00000000000000000 0.00000000000000000 1.00000000000000000 
1 -1.00000000000000000 -1.00000000000000000 0.00000000000000000 -0.00000000000000000 1.00000000000000000 0.00000000000000000 
1 630.11073230567239989 -1.00000000000000000 0.00000000000000000 0.00000000000000000 0.00000000000000000 1.00000000000000000 
1 630.11073230567239989 -1.00000000000000000 19.00000000000025224 -0.00000000000000000 1.00000000000000000 0.00000000000000000 
1 630.11073230567239989 603.17021174407398121 0.00000000000000000 0.00000000000000000 0.00000000000000000 1.00000000000000000 
1 630.11073230567239989 -1.00000000000000000 0.00000000000000000 -0.00000000000000000 1.00000000000000000 0.00000000000000000 
1 -1.00000000000000000 -1.00000000000000000 0.00000000000000000 1.00000000000000000 0.00000000000000000 -0.00000000000000000 
1 -1.00000000000000000 -1.00000000000000000 19.00000000000025224 1.00000000000000000 0.00000000000000000 -0.00000000000000000 
1 -1.00000000000000000 603.17021174407398121 0.00000000000000000 1.00000000000000000 0.00000000000000000 -0.00000000000000000 
1 -1.00000000000000000 603.17021174407398121 19.00000000000025224 1.00000000000000000 0.00000000000000000 -0.00000000000000000 
Polygon3D 0
PolygonOnTriangulations 0
Surfaces 6
1 -1.00000000000000000 -1.00000000000000000 0.00000000000000000 1.00000000000000000 0.00000000000000000 -0.00000000000000000 0.00000000000000000 0.00000000000000000 1.00000000000000000 0.00000000000000000 -1.00000000000000000 0.00000000000000000 
1 -1.00000000000000000 -1.00000000000000000 0.00000000000000000 -0.00000000000000000 1.00000000000000000 0.00000000000000000 0.00000000000000000 0.00000000000000000 1.00000000000000000 1.00000000000000000 0.00000000000000000 -0.00000000000000000 
1 -1.00000000000000000 -1.00000000000000000 19.00000000000025224 0.00000000000000000 0.00000000000000000 1.00000000000000000 1.00000000000000000 0.00000000000000000 -0.00000000000000000 -0.00000000000000000 1.00000000000000000 0.00000000000000000 
1 -1.00000000000000000 603.17021174407398121 0.00000000000000000 -0.00000000000000000 1.00000000000000000 0.00000000000000000 0.00000000000000000 0.00000000000000000 1.00000000000000000 1.00000000000000000 0.00000000000000000 -0.00000000000000000 
1 -1.00000000000000000 -1.00000000000000000 0.00000000000000000 0.00000000000000000 0.00000000000000000 1.00000000000000000 1.00000000000000000 0.00000000000000000 -0.00000000000000000 -0.00000000000000000 1.00000000000000000 0.00000000000000000 
1 630.11073230567239989 -1.00000000000000000 0.00000000000000000 1.00000000000000000 0.00000000000000000 -0.00000000000000000 0.00000000000000000 0.00000000000000000 1.00000000000000000 0.00000000000000000 -1.00000000000000000 0.00000000000000000 
Triangulations 0

TShapes 34
Ve
0.000000100000000
-1.000000000000000 -1.000000000000000 19.000000000000252
0 0

0101101
*
Ve
0.000000100000000
-1.000000000000000 -1.000000000000000 0.000000000000000
0 0

0101101
*
Ed
 0.000000100000000 1 1 0
1  1 0 0.000000000000000 19.000000000000252
2  1 1 0 0.000000000000000 19.000000000000252
2  2 2 0 0.000000000000000 19.000000000000252
0

0101000
-34 0 +33 0 *
Ve
0.000000100000000
-1.000000000000000 603.170211744073981 19.000000000000252
0 0

0101101
*
Ed
 0.000000100000000 1 1 0
1  2 0 0.000000000000000 604.170211744073981
2  3 1 0 0.000000000000000 604.170211744073981
2  4 3 0 0.000000000000000 604.170211744073981
0

0101000
-31 0 +34 0 *
Ve
0.000000100000000
-1.000000000000000 603.170211744073981 0.000000000000000
0 0

0101101
*
Ed
 0.000000100000000 1 1 0
1  3 0 0.000000000000000 19.000000000000252
2  5 1 0 0.000000000000000 19.000000000000252
2  6 4 0 0.000000000000000 19.000000000000252
0

0101000
-31 0 +29 0 *
Ed
 0.000000100000000 1 1 0
1  4 0 0.000000000000000 604.170211744073981
2  7 1 0 0.000000000000000 604.170211744073981
2  8 5 0 0.000000000000000 604.170211744073981
0

0101000
-29 0 +33 0 *
Wi

0101100
-32 0 -30 0 +28 0 +27 0 *
Fa
0  0.000000100000000 1 0

0111000
+26 0 *
Ve
0.000000100000000
630.110732305672400 -1.000000000000000 19.000000000000252
0 0

0101101
*
Ve
0.000000100000000
630.110732305672400 -1.000000000000000 0.000000000000000
0 0

0101101
*
Ed
 0.000000100000000 1 1 0
1  5 0 0.000000000000000 19.000000000000252
2  9 6 0 0.000000000000000 19.000000000000252
2  10 2 0 0.000000000000000 19.000000000000252
0

0101000
-24 0 +23 0 *
Ve
0.000000100000000
630.110732305672400 603.170211744073981 19.000000000000252
0 0

0101101
*
Ed
 0.000000100000000 1 1 0
1  6 0 0.000000000000000 604.170211744073981
2  11 6 0 0.000000000000000 604.170211744073981
2  12 3 0 0.000000000000000 604.170211744073981
0

0101000
-21 0 +24 0 *
Ve
0.000000100000000
630.110732305672400 603.170211744073981 0.000000000000000
0 0

0101101
*
Ed
 0.000000100000000 1 1 0
1  7 0 0.000000000000000 19.000000000000252
2  13 6 0 0.000000000000000 19.000000000000252
2  14 4 0 0.000000000000000 19.000000000000252
0

0101000
-21 0 +19 0 *
Ed
 0.000000100000000 1 1 0
1  8 0 0.000000000000000 604.170211744073981
2  15 6 0 0.000000000000000 604.170211744073981
2  16 5 0 0.000000000000000 604.170211744073981
0

0101000
-19 0 +23 0 *
Wi

0101100
-22 0 -20 0 +18 0 +17 0 *
Fa
0  0.000000100000000 6 0

0111000
+16 0 *
Ed
 0.000000100000000 1 1 0
1  9 0 0.000000000000000 631.110732305672400
2  17 2 0 0.000000000000000 631.110732305672400
2  18 5 0 0.000000000000000 631.110732305672400
0

0101000
-23 0 +33 0 *
Ed
 0.000000100000000 1 1 0
1  10 0 0.000000000000000 631.110732305672400
2  19 2 0 0.000000000000000 631.110732305672400
2  20 3 0 0.000000000000000 631.110732305672400
0

0101000
-24 0 +34 0 *
Wi

0101100
-14 0 -22 0 +13 0 +32 0 *
Fa
0  0.000000100000000 2 0

0111000
+12 0 *
Ed
 0.000000100000000 1 1 0
1  11 0 0.000000000000000 631.110732305672400
2  21 4 0 0.000000000000000 631.110732305672400
2  22 5 0 0.000000000000000 631.110732305672400
0

0101000
-19 0 +29 0 *
Ed
 0.000000100000000 1 1 0
1  12 0 0.000000000000000 631.110732305672400
2  23 4 0 0.000000000000000 631.110732305672400
2  24 3 0 0.000000000000000 631.110732305672400
0

0101000
-21 0 +31 0 *
Wi

0101100
-10 0 -18 0 +9 0 +28 0 *
Fa
0  0.000000100000000 4 0

0111000
+8 0 *
Wi

0101100
-27 0 -10 0 +17 0 +14 0 *
Fa
0  0.000000100000000 5 0

0111000
+6 0 *
Wi

0101100
-30 0 -9 0 +20 0 +13 0 *
Fa
0  0.000000100000000 3 0

0111000
+4 0 *
Sh

0101100
-25 0 +15 0 -11 0 +7 0 -5 0 +3 0 *
So

1100000
+2 0 *

+1 1 