
CASCADE Topology V1, (c) Matra-Datavision
Locations 27
1
1.000000000000000 0.000000000000000 0.000000000000000 0.000000000000000 
0.000000000000000 1.000000000000000 0.000000000000000 0.000000000000000 
0.000000000000000 0.000000000000000 1.000000000000000 0.000000000000000 
1
1.000000000000000 0.000000000000000 0.000000000000000 0.000000000000000 
0.000000000000000 1.000000000000000 0.000000000000000 0.000000000000000 
0.000000000000000 0.000000000000000 1.000000000000000 0.000000000000000 
1
1.000000000000000 0.000000000000000 0.000000000000000 0.000000000000000 
0.000000000000000 1.000000000000000 0.000000000000000 0.000000000000000 
0.000000000000000 0.000000000000000 1.000000000000000 0.000000000000000 
2  1 1 2 1 3 -1 0
1
1.000000000000000 0.000000000000000 0.000000000000000 0.000000000000000 
0.000000000000000 1.000000000000000 0.000000000000000 0.000000000000000 
0.000000000000000 0.000000000000000 1.000000000000000 5.000000000000000 
2  1 1 2 1 3 -1 5 1 0
1
1.000000000000000 0.000000000000000 0.000000000000000 0.000000000000000 
0.000000000000000 1.000000000000000 0.000000000000000 0.000000000000000 
0.000000000000000 0.000000000000000 1.000000000000000 0.000000000000000 
1
1.000000000000000 0.000000000000000 0.000000000000000 0.000000000000000 
0.000000000000000 1.000000000000000 0.000000000000000 0.000000000000000 
0.000000000000000 0.000000000000000 1.000000000000000 0.000000000000000 
2  7 1 8 -1 1 -1 0
1
1.000000000000000 0.000000000000000 0.000000000000000 0.000000000000000 
0.000000000000000 1.000000000000000 0.000000000000000 0.000000000000000 
0.000000000000000 0.000000000000000 1.000000000000000 10.000000000000000 
2  10 -1 7 1 8 -1 1 -1 0
1
1.000000000000000 0.000000000000000 0.000000000000000 0.000000000000000 
0.000000000000000 1.000000000000000 0.000000000000000 0.000000000000000 
0.000000000000000 0.000000000000000 1.000000000000000 0.000000000000000 
1
1.000000000000000 0.000000000000000 0.000000000000000 0.000000000000000 
0.000000000000000 1.000000000000000 0.000000000000000 0.000000000000000 
0.000000000000000 0.000000000000000 1.000000000000000 0.000000000000000 
2  12 1 13 -1 1 -1 0
1
1.000000000000000 0.000000000000000 0.000000000000000 0.000000000000000 
0.000000000000000 1.000000000000000 0.000000000000000 0.000000000000000 
0.000000000000000 0.000000000000000 1.000000000000000 10.000000000000000 
2  15 -1 12 1 13 -1 1 -1 0
1
1.000000000000000 0.000000000000000 0.000000000000000 0.000000000000000 
0.000000000000000 1.000000000000000 0.000000000000000 0.000000000000000 
0.000000000000000 0.000000000000000 1.000000000000000 0.000000000000000 
1
1.000000000000000 0.000000000000000 0.000000000000000 0.000000000000000 
0.000000000000000 1.000000000000000 0.000000000000000 0.000000000000000 
0.000000000000000 0.000000000000000 1.000000000000000 0.000000000000000 
2  17 1 18 -1 1 -1 0
1
1.000000000000000 0.000000000000000 0.000000000000000 0.000000000000000 
0.000000000000000 1.000000000000000 0.000000000000000 0.000000000000000 
0.000000000000000 0.000000000000000 1.000000000000000 5.000000000000000 
2  20 -1 17 1 18 -1 1 -1 0
2  3 1 2 -1 1 -1 0
2  5 -1 3 1 2 -1 1 -1 0
2  2 -1 1 -1 0
2  3 -1 0
2  1 1 2 1 0
2  3 -1 5 1 0
Curve2ds 48
1 3.14159265359595663 0.00000000000000000 0.00000000000000000 -1.00000000000000000 
1 4.71238898037852660 0.00000000000000000 0.00000000000000000 -1.00000000000000000 
1 0.00000000000000000 0.00000000000000000 1.00000000000000000 0.00000000000000000 
1 0.00000000000000000 -10.00000000000000000 1.00000000000000000 0.00000000000000000 
1 0.00000000000000000 0.00000000000000000 1.00000000000000000 0.00000000000000000 
1 0.00000000000000000 -10.00000000000000000 1.00000000000000000 0.00000000000000000 
1 0.00000000000000000 0.00000000000000000 1.00000000000000000 0.00000000000000000 
1 0.00000000000000000 -5.00000000000000000 1.00000000000000000 0.00000000000000000 
1 0.00000000000000000 0.00000000000000000 1.00000000000000000 0.00000000000000000 
1 0.00000000000000000 -5.00000000000000000 1.00000000000000000 0.00000000000000000 
2 -10.30000000002839222 -31.00000000002841816 1.00000000000000000 0.00000000000000000 -0.00000000000000000 1.00000000000000000 3.99999999998112088
1 4.71238898039085274 0.00000000000000000 0.00000000000000000 -1.00000000000000000 
1 10.30000000005300009 -35.00000000000954259 -1.00000000000000000 0.00000000000000000 
1 6.28318530717342316 0.00000000000000000 0.00000000000000000 -1.00000000000000000 
1 0.00000000000000000 0.00000000000000000 1.00000000000000000 0.00000000000000000 
1 0.00000000000000000 -10.00000000000000000 1.00000000000000000 0.00000000000000000 
1 0.00000000000000000 0.00000000000000000 1.00000000000000000 0.00000000000000000 
1 0.00000000000000000 -10.00000000000000000 1.00000000000000000 0.00000000000000000 
1 0.00000000000000000 0.00000000000000000 1.00000000000000000 0.00000000000000000 
1 0.00000000000000000 -5.00000000000000000 1.00000000000000000 0.00000000000000000 
1 0.00000000000000000 0.00000000000000000 1.00000000000000000 0.00000000000000000 
1 0.00000000000000000 -5.00000000000000000 1.00000000000000000 0.00000000000000000 
2 10.30000000002839222 -31.00000000002842171 1.00000000000000000 0.00000000000000000 -0.00000000000000000 1.00000000000000000 3.99999999998112088
1 0.00000000000616270 0.00000000000000000 0.00000000000000000 -1.00000000000000000 
1 14.30000000000951310 31.00000000005301715 0.00000000000000000 -1.00000000000000000 
1 1.57079632678873393 0.00000000000000000 0.00000000000000000 -1.00000000000000000 
1 0.00000000000000000 0.00000000000000000 1.00000000000000000 0.00000000000000000 
1 0.00000000000000000 -10.00000000000000000 1.00000000000000000 0.00000000000000000 
1 0.00000000000000000 0.00000000000000000 1.00000000000000000 0.00000000000000000 
1 0.00000000000000000 -10.00000000000000000 1.00000000000000000 0.00000000000000000 
1 0.00000000000000000 0.00000000000000000 1.00000000000000000 0.00000000000000000 
1 0.00000000000000000 -5.00000000000000000 1.00000000000000000 0.00000000000000000 
1 0.00000000000000000 0.00000000000000000 1.00000000000000000 0.00000000000000000 
1 0.00000000000000000 -5.00000000000000000 1.00000000000000000 0.00000000000000000 
2 10.30000000002839222 31.00000000002836487 1.00000000000000000 0.00000000000000000 -0.00000000000000000 1.00000000000000000 3.99999999998112088
1 1.57079632680105963 0.00000000000000000 0.00000000000000000 -1.00000000000000000 
1 -10.30000000005304450 35.00000000000948575 1.00000000000000000 0.00000000000000000 
1 3.14159265358363049 0.00000000000000000 0.00000000000000000 -1.00000000000000000 
1 0.00000000000000000 0.00000000000000000 1.00000000000000000 0.00000000000000000 
1 0.00000000000000000 -10.00000000000000000 1.00000000000000000 0.00000000000000000 
1 0.00000000000000000 0.00000000000000000 1.00000000000000000 0.00000000000000000 
1 0.00000000000000000 -10.00000000000000000 1.00000000000000000 0.00000000000000000 
1 0.00000000000000000 0.00000000000000000 1.00000000000000000 0.00000000000000000 
1 0.00000000000000000 -5.00000000000000000 1.00000000000000000 0.00000000000000000 
1 0.00000000000000000 0.00000000000000000 1.00000000000000000 0.00000000000000000 
1 0.00000000000000000 -5.00000000000000000 1.00000000000000000 0.00000000000000000 
2 -10.30000000002839222 31.00000000002836487 1.00000000000000000 0.00000000000000000 -0.00000000000000000 1.00000000000000000 3.99999999998112088
1 -14.30000000000951310 -31.00000000005302780 0.00000000000000000 1.00000000000000000 
Curves 16
1 -14.30000000000951133 -31.00000000005302070 0.00000000000000000 0.00000000000000000 0.00000000000000000 1.00000000000000000 
1 -10.30000000005302141 -35.00000000000951417 0.00000000000000000 0.00000000000000000 0.00000000000000000 1.00000000000000000 
2 -10.30000000002839045 -31.00000000002838974 0.00000000000000000 0.00000000000000000 0.00000000000000000 1.00000000000000000 1.00000000000000000 0.00000000000000000 -0.00000000000000000 -0.00000000000000000 1.00000000000000000 0.00000000000000000 3.99999999998112132
1 10.30000000005302496 -35.00000000000951417 0.00000000000000000 0.00000000000000000 0.00000000000000000 1.00000000000000000 
1 10.30000000005300187 -35.00000000000951417 0.00000000000000000 -1.00000000000000000 0.00000000000000000 0.00000000000000000 
1 14.30000000000951488 -31.00000000005302425 0.00000000000000000 0.00000000000000000 0.00000000000000000 1.00000000000000000 
2 10.30000000002839400 -31.00000000002839329 0.00000000000000000 0.00000000000000000 0.00000000000000000 1.00000000000000000 1.00000000000000000 0.00000000000000000 -0.00000000000000000 -0.00000000000000000 1.00000000000000000 0.00000000000000000 3.99999999998112132
1 14.30000000000951488 31.00000000005304557 0.00000000000000000 0.00000000000000000 0.00000000000000000 1.00000000000000000 
1 14.30000000000951488 31.00000000005304557 0.00000000000000000 0.00000000000000000 -1.00000000000000000 0.00000000000000000 
1 10.30000000005304273 35.00000000000951417 0.00000000000000000 0.00000000000000000 0.00000000000000000 1.00000000000000000 
2 10.30000000002839400 31.00000000002839329 0.00000000000000000 0.00000000000000000 0.00000000000000000 1.00000000000000000 1.00000000000000000 0.00000000000000000 -0.00000000000000000 -0.00000000000000000 1.00000000000000000 0.00000000000000000 3.99999999998112132
1 -10.30000000005304273 35.00000000000951417 0.00000000000000000 0.00000000000000000 0.00000000000000000 1.00000000000000000 
1 -10.30000000005304273 35.00000000000951417 0.00000000000000000 1.00000000000000000 0.00000000000000000 0.00000000000000000 
1 -14.30000000000951133 31.00000000005304202 0.00000000000000000 0.00000000000000000 0.00000000000000000 1.00000000000000000 
2 -10.30000000002839045 31.00000000002839329 0.00000000000000000 0.00000000000000000 0.00000000000000000 1.00000000000000000 1.00000000000000000 0.00000000000000000 -0.00000000000000000 -0.00000000000000000 1.00000000000000000 0.00000000000000000 3.99999999998112132
1 -14.30000000000951133 -31.00000000005299938 0.00000000000000000 0.00000000000000000 1.00000000000000000 0.00000000000000000 
Polygon3D 0
PolygonOnTriangulations 0
Surfaces 21
2 -10.30000000002839045 -31.00000000002838974 0.00000000000000000 -0.00000000000000000 -0.00000000000000000 -1.00000000000000000 1.00000000000000000 0.00000000000000000 0.00000000000000000 -0.00000000000000000 1.00000000000000000 -0.00000000000000000 3.99999999998112132
1 -14.30000000000951133 -31.00000000005299938 0.00000000000000000 -1.00000000000000000 0.00000000000000000 0.00000000000000000 0.00000000000000000 1.00000000000000000 0.00000000000000000 0.00000000000000000 0.00000000000000000 -1.00000000000000000 
1 10.30000000005300187 -35.00000000000951417 0.00000000000000000 0.00000000000000000 -1.00000000000000000 0.00000000000000000 -1.00000000000000000 0.00000000000000000 0.00000000000000000 -0.00000000000000000 -0.00000000000000000 -1.00000000000000000 
2 -10.30000000002839045 -31.00000000002838974 0.00000000000000000 -0.00000000000000000 -0.00000000000000000 -1.00000000000000000 1.00000000000000000 0.00000000000000000 0.00000000000000000 -0.00000000000000000 1.00000000000000000 -0.00000000000000000 3.99999999998112132
2 -10.30000000002839045 -31.00000000002838974 0.00000000000000000 -0.00000000000000000 -0.00000000000000000 -1.00000000000000000 1.00000000000000000 0.00000000000000000 0.00000000000000000 -0.00000000000000000 1.00000000000000000 -0.00000000000000000 3.99999999998112132
2 -10.30000000002839045 -31.00000000002838974 0.00000000000000000 -0.00000000000000000 -0.00000000000000000 -1.00000000000000000 1.00000000000000000 0.00000000000000000 0.00000000000000000 -0.00000000000000000 1.00000000000000000 -0.00000000000000000 3.99999999998112132
1 0.00000000000000239 0.00000000000002991 0.00000000000000000 0.00000000000000000 0.00000000000000000 1.00000000000000000 1.00000000000000000 0.00000000000000000 -0.00000000000000000 -0.00000000000000000 1.00000000000000000 0.00000000000000000 
2 10.30000000002839400 -31.00000000002839329 0.00000000000000000 -0.00000000000000000 -0.00000000000000000 -1.00000000000000000 1.00000000000000000 0.00000000000000000 0.00000000000000000 -0.00000000000000000 1.00000000000000000 -0.00000000000000000 3.99999999998112132
1 14.30000000000951488 31.00000000005304557 0.00000000000000000 1.00000000000000000 0.00000000000000000 -0.00000000000000000 0.00000000000000000 -1.00000000000000000 0.00000000000000000 0.00000000000000000 -0.00000000000000000 -1.00000000000000000 
2 10.30000000002839400 -31.00000000002839329 0.00000000000000000 -0.00000000000000000 -0.00000000000000000 -1.00000000000000000 1.00000000000000000 0.00000000000000000 0.00000000000000000 -0.00000000000000000 1.00000000000000000 -0.00000000000000000 3.99999999998112132
2 10.30000000002839400 -31.00000000002839329 0.00000000000000000 -0.00000000000000000 -0.00000000000000000 -1.00000000000000000 1.00000000000000000 0.00000000000000000 0.00000000000000000 -0.00000000000000000 1.00000000000000000 -0.00000000000000000 3.99999999998112132
2 10.30000000002839400 -31.00000000002839329 0.00000000000000000 -0.00000000000000000 -0.00000000000000000 -1.00000000000000000 1.00000000000000000 0.00000000000000000 0.00000000000000000 -0.00000000000000000 1.00000000000000000 -0.00000000000000000 3.99999999998112132
2 10.30000000002839400 31.00000000002839329 0.00000000000000000 -0.00000000000000000 -0.00000000000000000 -1.00000000000000000 1.00000000000000000 0.00000000000000000 0.00000000000000000 -0.00000000000000000 1.00000000000000000 -0.00000000000000000 3.99999999998112132
1 -10.30000000005304273 35.00000000000951417 0.00000000000000000 0.00000000000000000 1.00000000000000000 0.00000000000000000 1.00000000000000000 0.00000000000000000 0.00000000000000000 0.00000000000000000 0.00000000000000000 -1.00000000000000000 
2 10.30000000002839400 31.00000000002839329 0.00000000000000000 -0.00000000000000000 -0.00000000000000000 -1.00000000000000000 1.00000000000000000 0.00000000000000000 0.00000000000000000 -0.00000000000000000 1.00000000000000000 -0.00000000000000000 3.99999999998112132
2 10.30000000002839400 31.00000000002839329 0.00000000000000000 -0.00000000000000000 -0.00000000000000000 -1.00000000000000000 1.00000000000000000 0.00000000000000000 0.00000000000000000 -0.00000000000000000 1.00000000000000000 -0.00000000000000000 3.99999999998112132
2 10.30000000002839400 31.00000000002839329 0.00000000000000000 -0.00000000000000000 -0.00000000000000000 -1.00000000000000000 1.00000000000000000 0.00000000000000000 0.00000000000000000 -0.00000000000000000 1.00000000000000000 -0.00000000000000000 3.99999999998112132
2 -10.30000000002839045 31.00000000002839329 0.00000000000000000 -0.00000000000000000 -0.00000000000000000 -1.00000000000000000 1.00000000000000000 0.00000000000000000 0.00000000000000000 -0.00000000000000000 1.00000000000000000 -0.00000000000000000 3.99999999998112132
2 -10.30000000002839045 31.00000000002839329 0.00000000000000000 -0.00000000000000000 -0.00000000000000000 -1.00000000000000000 1.00000000000000000 0.00000000000000000 0.00000000000000000 -0.00000000000000000 1.00000000000000000 -0.00000000000000000 3.99999999998112132
2 -10.30000000002839045 31.00000000002839329 0.00000000000000000 -0.00000000000000000 -0.00000000000000000 -1.00000000000000000 1.00000000000000000 0.00000000000000000 0.00000000000000000 -0.00000000000000000 1.00000000000000000 -0.00000000000000000 3.99999999998112132
2 -10.30000000002839045 31.00000000002839329 0.00000000000000000 -0.00000000000000000 -0.00000000000000000 -1.00000000000000000 1.00000000000000000 0.00000000000000000 0.00000000000000000 -0.00000000000000000 1.00000000000000000 -0.00000000000000000 3.99999999998112132
Triangulations 0

TShapes 44
Ve
0.000000100000021
-14.300000000009511 -31.000000000053021 0.000000000000000
0 0

0101101
*
Ed
 0.000000100000021 1 1 0
1  1 0 0.000000000000000 5.000000000000000
2  1 1 0 0.000000000000000 5.000000000000000
4 G1 1 0 2 0
0

0101000
+44 4 -44 6 *
Ve
0.000000100000022
-10.300000000053021 -35.000000000009514 0.000000000000000
0 0

0101101
*
Ed
 0.000000100000022 1 1 0
1  2 0 0.000000000000000 5.000000000000000
2  2 1 0 0.000000000000000 5.000000000000000
4 G1 1 0 3 0
0

0101000
+42 4 -42 6 *
Ed
 0.000000100000000 1 1 0
1  3 0 3.141592653595957 4.712388980378527
2  3 4 9 3.141592653595957 4.712388980378527
2  4 4 11 3.141592653595957 4.712388980378527
2  5 5 14 3.141592653595957 4.712388980378527
2  6 5 16 3.141592653595957 4.712388980378527
2  7 6 19 3.141592653595957 4.712388980378527
2  8 6 21 3.141592653595957 4.712388980378527
2  9 1 22 3.141592653595957 4.712388980378527
2  10 1 23 3.141592653595957 4.712388980378527
2  11 7 24 3.141592653595957 4.712388980378527
0

0101000
+44 0 -42 0 *
Wi

0101100
+43 0 -41 0 -40 4 +40 6 *
Fa
0  0.000000100000000 1 0

0111000
+39 0 *
Ve
0.000000100000022
10.300000000053025 -35.000000000009514 0.000000000000000
0 0

0101101
*
Ed
 0.000000100000022 1 1 0
1  4 0 0.000000000000000 5.000000000000000
2  12 8 0 0.000000000000000 5.000000000000000
4 G1 3 0 8 0
0

0101000
+37 4 -37 6 *
Ed
 0.000000100000000 1 1 0
1  5 0 0.000000000000000 20.600000000106000
2  13 7 24 0.000000000000000 20.600000000106000
0

0101000
+37 0 -42 0 *
Wi

0101100
+36 0 -41 0 -35 4 +35 6 *
Fa
0  0.000000100000000 3 0

0111000
+34 0 *
Ve
0.000000100000021
14.300000000009515 -31.000000000053024 0.000000000000000
0 0

0101101
*
Ed
 0.000000100000021 1 1 0
1  6 0 0.000000000000000 5.000000000000000
2  14 8 0 0.000000000000000 5.000000000000000
4 G1 8 0 9 0
0

0101000
+32 4 -32 6 *
Ed
 0.000000100000000 1 1 0
1  7 0 4.712388980390853 6.283185307173423
2  15 10 9 4.712388980390853 6.283185307173423
2  16 10 11 4.712388980390853 6.283185307173423
2  17 11 14 4.712388980390853 6.283185307173423
2  18 11 16 4.712388980390853 6.283185307173423
2  19 12 19 4.712388980390853 6.283185307173423
2  20 12 21 4.712388980390853 6.283185307173423
2  21 8 22 4.712388980390853 6.283185307173423
2  22 8 23 4.712388980390853 6.283185307173423
2  23 7 24 4.712388980390853 6.283185307173423
0

0101000
+37 0 -32 0 *
Wi

0101100
+36 0 -31 0 -30 4 +30 6 *
Fa
0  0.000000100000000 8 0

0111000
+29 0 *
Ve
0.000000100000000
14.300000000009515 31.000000000053046 0.000000000000000
0 0

0101101
*
Ed
 0.000000100000000 1 1 0
1  8 0 0.000000000000000 5.000000000000000
2  24 13 0 0.000000000000000 5.000000000000000
4 G1 9 0 13 0
0

0101000
+27 4 -27 6 *
Ed
 0.000000100000000 1 1 0
1  9 0 0.000000000000000 62.000000000106049
2  25 7 24 0.000000000000000 62.000000000106049
0

0101000
+27 0 -32 0 *
Wi

0101100
+26 0 -31 0 -25 4 +25 6 *
Fa
0  0.000000100000000 9 0

0111000
+24 0 *
Ve
0.000000100000001
10.300000000053043 35.000000000009514 0.000000000000000
0 0

0101101
*
Ed
 0.000000100000001 1 1 0
1  10 0 0.000000000000000 5.000000000000000
2  26 13 0 0.000000000000000 5.000000000000000
4 G1 13 0 14 0
0

0101000
+22 4 -22 6 *
Ed
 0.000000100000000 1 1 0
1  11 0 0.000000000006163 1.570796326788734
2  27 15 9 0.000000000006163 1.570796326788734
2  28 15 11 0.000000000006163 1.570796326788734
2  29 16 14 0.000000000006163 1.570796326788734
2  30 16 16 0.000000000006163 1.570796326788734
2  31 17 19 0.000000000006163 1.570796326788734
2  32 17 21 0.000000000006163 1.570796326788734
2  33 13 22 0.000000000006163 1.570796326788734
2  34 13 23 0.000000000006163 1.570796326788734
2  35 7 24 0.000000000006163 1.570796326788734
0

0101000
+27 0 -22 0 *
Wi

0101100
+26 0 -21 0 -20 4 +20 6 *
Fa
0  0.000000100000000 13 0

0111000
+19 0 *
Ve
0.000000100000000
-10.300000000053043 35.000000000009514 0.000000000000000
0 0

0101101
*
Ed
 0.000000100000000 1 1 0
1  12 0 0.000000000000000 5.000000000000000
2  36 18 0 0.000000000000000 5.000000000000000
4 G1 14 0 18 0
0

0101000
+17 4 -17 6 *
Ed
 0.000000100000000 1 1 0
1  13 0 0.000000000000000 20.600000000106085
2  37 7 24 0.000000000000000 20.600000000106085
0

0101000
+17 0 -22 0 *
Wi

0101100
+16 0 -21 0 -15 4 +15 6 *
Fa
0  0.000000100000000 14 0

0111000
+14 0 *
Ve
0.000000100000002
-14.300000000009511 31.000000000053042 0.000000000000000
0 0

0101101
*
Ed
 0.000000100000002 1 1 0
1  14 0 0.000000000000000 5.000000000000000
2  38 18 0 0.000000000000000 5.000000000000000
4 G1 18 0 2 0
0

0101000
+12 4 -12 6 *
Ed
 0.000000100000000 1 1 0
1  15 0 1.570796326801060 3.141592653583630
2  39 19 9 1.570796326801060 3.141592653583630
2  40 19 11 1.570796326801060 3.141592653583630
2  41 20 14 1.570796326801060 3.141592653583630
2  42 20 16 1.570796326801060 3.141592653583630
2  43 21 19 1.570796326801060 3.141592653583630
2  44 21 21 1.570796326801060 3.141592653583630
2  45 18 22 1.570796326801060 3.141592653583630
2  46 18 23 1.570796326801060 3.141592653583630
2  47 7 24 1.570796326801060 3.141592653583630
0

0101000
+17 0 -12 0 *
Wi

0101100
+16 0 -11 0 -10 4 +10 6 *
Fa
0  0.000000100000000 18 0

0111000
+9 0 *
Ed
 0.000000100000000 1 1 0
1  16 0 0.000000000000000 62.000000000106041
2  48 7 24 0.000000000000000 62.000000000106041
0

0101000
+44 0 -12 0 *
Wi

0101100
+43 0 -11 0 -7 4 +7 6 *
Fa
0  0.000000100000000 2 0

0111000
+6 0 *
Wi

0101100
+40 0 -35 0 +30 0 -25 0 +20 0 -15 0 +10 0 -7 0 *
Fa
0  0.000000100000000 7 0

0111000
+4 26 *
Sh

0101100
+38 0 -33 0 +28 0 -23 0 +18 0 -13 0 +8 0 -5 0 +3 25 -3 27 
*
So

1100000
-2 0 *

+1 0 