
CASCADE Topology V1, (c) Matra-Datavision
Locations 14
1
1.000000000000000 0.000000000000000 0.000000000000000 -22.499999999999996 
0.000000000000000 1.000000000000000 0.000000000000000 161.000000000000000 
0.000000000000000 0.000000000000000 1.000000000000000 18.000000000000000 
1
1.000000000000000 0.000000000000000 0.000000000000000 0.000000000000000 
0.000000000000000 1.000000000000000 0.000000000000000 0.000000000000000 
0.000000000000000 0.000000000000000 1.000000000000000 0.000000000000000 
1
1.000000000000000 0.000000000000000 0.000000000000000 0.000000000000000 
0.000000000000000 1.000000000000000 0.000000000000000 0.000000000000000 
0.000000000000000 0.000000000000000 1.000000000000000 0.000000000000000 
1
1.000000000000000 0.000000000000000 0.000000000000000 0.000000000000000 
0.000000000000000 1.000000000000000 0.000000000000000 0.000000000000000 
0.000000000000000 0.000000000000000 1.000000000000000 0.000000000000000 
1
1.000000000000000 0.000000000000000 0.000000000000000 0.000000000000000 
0.000000000000000 1.000000000000000 0.000000000000000 0.000000000000000 
0.000000000000000 0.000000000000000 1.000000000000000 18.000000000000000 
1
1.000000000000000 0.000000000000000 0.000000000000000 0.000000000000000 
0.000000000000000 1.000000000000000 0.000000000000000 0.000000000000000 
0.000000000000000 0.000000000000000 1.000000000000000 0.000000000000000 
1
1.000000000000000 0.000000000000000 0.000000000000000 0.000000000000000 
0.000000000000000 1.000000000000000 0.000000000000000 0.000000000000000 
0.000000000000000 0.000000000000000 1.000000000000000 0.000000000000000 
2  2 1 3 1 4 -1 5 1 6 1 7 -1 1 -1 0
1
1.000000000000000 0.000000000000000 0.000000000000000 -22.500000000000004 
0.000000000000000 1.000000000000000 0.000000000000000 136.000000000000000 
0.000000000000000 0.000000000000000 1.000000000000000 18.000000000000000 
2  2 1 3 1 4 -1 5 1 6 1 7 -1 9 -1 0
1
1.000000000000000 0.000000000000000 0.000000000000000 22.500000000000004 
0.000000000000000 1.000000000000000 0.000000000000000 161.000000000000000 
0.000000000000000 0.000000000000000 1.000000000000000 18.000000000000000 
2  2 1 3 1 4 -1 5 1 6 1 7 -1 11 -1 0
1
1.000000000000000 0.000000000000000 0.000000000000000 22.499999999999996 
0.000000000000000 1.000000000000000 0.000000000000000 136.000000000000000 
0.000000000000000 0.000000000000000 1.000000000000000 18.000000000000000 
2  2 1 3 1 4 -1 5 1 6 1 7 -1 13 -1 0
Curve2ds 19
2 0.00000000000000000 0.00000000000000000 -1.00000000000000000 0.00000000000000000 0.00000000000000000 1.00000000000000000 8.00000000000000000
1 0.00000000000000000 0.00000000000000000 1.00000000000000000 0.00000000000000000 
2 -22.50000000000001066 161.00000000000002842 1.00000000000000000 0.00000000000000000 -0.00000000000000000 1.00000000000000000 8.00000000000000000
2 -22.50000000000001776 136.00000000000002842 1.00000000000000000 0.00000000000000000 -0.00000000000000000 1.00000000000000000 8.00000000000000000
2 22.49999999999998934 161.00000000000002842 1.00000000000000000 0.00000000000000000 -0.00000000000000000 1.00000000000000000 8.00000000000000000
2 22.49999999999998224 136.00000000000002842 1.00000000000000000 0.00000000000000000 -0.00000000000000000 1.00000000000000000 8.00000000000000000
1 0.00000000000000000 5.50000000000000000 1.00000000000000000 0.00000000000000000 
2 0.00000000000000000 0.00000000000000000 1.00000000000000000 0.00000000000000000 -0.00000000000000000 1.00000000000000000 8.00000000000000000
1 6.28318530717958623 0.00000000000000000 0.00000000000000000 1.00000000000000000 
1 0.00000000000000000 0.00000000000000000 0.00000000000000000 1.00000000000000000 
2 0.00000000000000000 0.00000000000000000 1.00000000000000000 0.00000000000000000 -0.00000000000000000 1.00000000000000000 2.75000000000000000
1 0.00000000000000000 0.00000000000000000 1.00000000000000000 0.00000000000000000 
1 0.00000000000000000 1754.00380993063527058 1.00000000000000000 0.00000000000000000 
1 0.00000000000000000 0.00000000000000000 1.00000000000000000 0.00000000000000000 
1 6.28318530717958623 0.00000000000000000 0.00000000000000000 1.00000000000000000 
1 0.00000000000000000 0.00000000000000000 0.00000000000000000 1.00000000000000000 
1 0.00000000000000000 3.20824184234202336 1.00000000000000000 0.00000000000000000 
1 6.28318530717958623 0.00000000000000000 0.00000000000000000 1.00000000000000000 
1 0.00000000000000000 0.00000000000000000 0.00000000000000000 1.00000000000000000 
Curves 7
2 0.00000000000000000 0.00000000000000000 0.00000000000000000 0.00000000000000000 0.00000000000000000 1.00000000000000000 1.00000000000000000 0.00000000000000000 -0.00000000000000000 -0.00000000000000000 1.00000000000000000 0.00000000000000000 8.00000000000000000
2 0.00000000000000000 0.00000000000000000 -5.50000000000000000 0.00000000000000000 0.00000000000000000 1.00000000000000000 1.00000000000000000 0.00000000000000000 -0.00000000000000000 -0.00000000000000000 1.00000000000000000 0.00000000000000000 8.00000000000000000
1 8.00000000000000000 0.00000000000000000 -0.00000000000000000 0.00000000000000000 0.00000000000000000 -1.00000000000000000 
2 0.00000000000000000 0.00000000000000000 -5.50000000000000000 0.00000000000000000 0.00000000000000000 1.00000000000000000 1.00000000000000000 0.00000000000000000 -0.00000000000000000 -0.00000000000000000 1.00000000000000000 0.00000000000000000 2.75000000000000000
2 0.00000000000000000 0.00000000000000000 -1759.50380993063527058 0.00000000000000000 0.00000000000000000 1.00000000000000000 1.00000000000000000 0.00000000000000000 -0.00000000000000000 -0.00000000000000000 1.00000000000000000 0.00000000000000000 2.74999999999989209
1 2.75000000000000000 0.00000000000000000 -5.50000000000000000 -0.00000000000000006 0.00000000000000000 -1.00000000000000000 
1 2.74999999999989209 0.00000000000000000 -1759.50380993063527058 -0.85716730070211489 -0.00000000000000000 -0.51503807491004994 
Polygon3D 0
PolygonOnTriangulations 0
Surfaces 6
1 0.00000000000000000 0.00000000000000000 0.00000000000000000 0.00000000000000000 0.00000000000000000 1.00000000000000000 -1.00000000000000000 -0.00000000000000000 0.00000000000000000 -0.00000000000000000 1.00000000000000000 -0.00000000000000000 
2 0.00000000000000000 0.00000000000000000 0.00000000000000000 -0.00000000000000000 -0.00000000000000000 -1.00000000000000000 1.00000000000000000 0.00000000000000000 0.00000000000000000 -0.00000000000000000 1.00000000000000000 -0.00000000000000000 8.00000000000000000
1 0.00000000000001316 -0.00000000000002677 0.00000000000000000 0.00000000000000000 0.00000000000000000 1.00000000000000000 1.00000000000000000 0.00000000000000000 -0.00000000000000000 -0.00000000000000000 1.00000000000000000 0.00000000000000000 
1 0.00000000000000000 0.00000000000000000 -5.50000000000000000 0.00000000000000000 0.00000000000000000 1.00000000000000000 1.00000000000000000 0.00000000000000000 -0.00000000000000000 -0.00000000000000000 1.00000000000000000 0.00000000000000000 
2 0.00000000000000000 0.00000000000000000 -5.50000000000000000 -0.00000000000000000 -0.00000000000000000 -1.00000000000000000 1.00000000000000000 0.00000000000000000 0.00000000000000000 -0.00000000000000000 1.00000000000000000 -0.00000000000000000 2.75000000000000000
3 0.00000000000000000 0.00000000000000000 -1759.50380993063527058 -0.00000000000000000 -0.00000000000000000 -1.00000000000000000 1.00000000000000000 0.00000000000000000 0.00000000000000000 -0.00000000000000000 1.00000000000000000 -0.00000000000000000 2.74999999999989209
-1.02974425867665942
Triangulations 0

TShapes 27
Ve
0.000000100000000
8.000000000000000 0.000000000000000 -0.000000000000000
0 0

0101101
*
Ed
 0.000000100000000 1 1 0
1  1 0 0.000000000000000 6.283185307179586
2  1 1 0 0.000000000000000 6.283185307179586
2  2 2 0 0.000000000000000 6.283185307179586
2  3 3 8 0.000000000000000 6.283185307179586
2  4 3 10 0.000000000000000 6.283185307179586
2  5 3 12 0.000000000000000 6.283185307179586
2  6 3 14 0.000000000000000 6.283185307179586
0

0101000
+27 0 -27 0 *
Wi

0101100
-26 0 *
Fa
0  0.000000100000000 1 0

0111000
+25 0 *
Ve
0.000000100000000
8.000000000000000 0.000000000000000 -5.500000000000000
0 0

0101101
*
Ed
 0.000000100000000 1 1 0
1  2 0 0.000000000000000 6.283185307179586
2  7 2 0 0.000000000000000 6.283185307179586
2  8 4 0 0.000000000000000 6.283185307179586
0

0101000
+23 0 -23 0 *
Ed
 0.000000100000000 1 1 0
1  3 0 0.000000000000000 5.500000000000000
3  9 10CN 2 0 0.000000000000000 5.500000000000000
0

0101000
+27 0 -23 0 *
Wi

0101100
+26 0 -22 0 -21 0 +21 0 *
Fa
0  0.000000100000000 2 0

0111000
+20 0 *
Wi

0101100
+22 0 *
Ve
0.000000100000000
2.750000000000000 0.000000000000000 -5.500000000000000
0 0

0101101
*
Ed
 0.000000100000000 1 1 0
1  4 0 0.000000000000000 6.283185307179586
2  11 4 0 0.000000000000000 6.283185307179586
2  12 5 0 0.000000000000000 6.283185307179586
0

0101000
+17 0 -17 0 *
Wi

0101100
-16 0 *
Fa
0  0.000000100000000 4 0

0111000
+18 0 +15 0 *
Ve
0.000000100000000
2.749999999999892 0.000000000000000 -1759.503809930635271
0 0

0101101
*
Ed
 0.000000100000000 1 1 0
1  5 0 0.000000000000000 6.283185307179586
2  13 5 0 0.000000000000000 6.283185307179586
2  14 6 0 0.000000000000000 6.283185307179586
0

0101000
+13 0 -13 0 *
Ed
 0.000000100000000 1 1 0
1  6 0 0.000000000000000 1754.003809930635271
3  15 16CN 5 0 0.000000000000000 1754.003809930635271
0

0101000
+17 0 -13 0 *
Wi

0101100
+16 0 -12 0 -11 0 +11 0 *
Fa
0  0.000000100000000 5 0

0111000
+10 0 *
Ve
0.000000100000000
-0.000000000000000 -0.000000000000000 -1761.156176632960978
0 0

0101101
*
Ed
 0.000000100000000 1 1 1
2  17 6 0 0.000000000000000 6.283185307179586
0

0101000
+8 0 -8 0 *
Ed
 0.000000100000000 1 1 0
1  7 0 0.000000000000000 3.208241842342023
3  18 19CN 6 0 0.000000000000000 3.208241842342023
0

0101000
+13 0 -8 0 *
Wi

0101100
+12 0 -7 0 -6 0 +6 0 *
Fa
0  0.000000100000000 6 0

0111000
+5 0 *
Sh

0101100
+24 0 +19 0 +14 0 +9 0 +4 0 *
So

0100000
-3 0 *
Co

1100000
+2 1 +2 9 +2 11 +2 13 *

+1 0 