
CASCADE Topology V1, (c) Matra-Datavision
Locations 18
1
1.000000000000000 0.000000000000000 0.000000000000000 -38.542500000000004 
0.000000000000000 1.000000000000000 0.000000000000000 -28.043324969126264 
0.000000000000000 0.000000000000000 1.000000000000000 18.000000000000000 
1
1.000000000000000 0.000000000000000 0.000000000000000 0.000000000000000 
0.000000000000000 1.000000000000000 0.000000000000000 0.000000000000000 
0.000000000000000 0.000000000000000 1.000000000000000 0.000000000000000 
1
1.000000000000000 0.000000000000000 0.000000000000000 0.000000000000000 
0.000000000000000 1.000000000000000 0.000000000000000 0.000000000000000 
0.000000000000000 0.000000000000000 1.000000000000000 0.000000000000000 
1
1.000000000000000 0.000000000000000 0.000000000000000 0.000000000000000 
0.000000000000000 1.000000000000000 0.000000000000000 0.000000000000000 
0.000000000000000 0.000000000000000 1.000000000000000 0.000000000000000 
1
1.000000000000000 0.000000000000000 0.000000000000000 0.000000000000000 
0.000000000000000 1.000000000000000 0.000000000000000 0.000000000000000 
0.000000000000000 0.000000000000000 1.000000000000000 18.000000000000000 
1
1.000000000000000 0.000000000000000 0.000000000000000 0.000000000000000 
0.000000000000000 1.000000000000000 0.000000000000000 0.000000000000000 
0.000000000000000 0.000000000000000 1.000000000000000 0.000000000000000 
1
1.000000000000000 0.000000000000000 0.000000000000000 0.000000000000000 
0.000000000000000 1.000000000000000 0.000000000000000 0.000000000000000 
0.000000000000000 0.000000000000000 1.000000000000000 0.000000000000000 
1
1.000000000000000 0.000000000000000 0.000000000000000 0.000000000000000 
0.000000000000000 1.000000000000000 0.000000000000000 0.000000000000000 
0.000000000000000 0.000000000000000 1.000000000000000 0.000000000000000 
1
1.000000000000000 0.000000000000000 0.000000000000000 0.000000000000000 
0.000000000000000 1.000000000000000 0.000000000000000 0.000000000000000 
0.000000000000000 0.000000000000000 1.000000000000000 0.000000000000000 
1
1.000000000000000 0.000000000000000 0.000000000000000 0.000000000000000 
0.000000000000000 1.000000000000000 0.000000000000000 0.000000000000000 
0.000000000000000 0.000000000000000 1.000000000000000 0.000000000000000 
1
1.000000000000000 0.000000000000000 0.000000000000000 0.000000000000000 
0.000000000000000 1.000000000000000 0.000000000000000 0.000000000000000 
0.000000000000000 0.000000000000000 1.000000000000000 0.000000000000000 
2  2 1 3 1 4 -1 5 1 6 1 7 -1 8 1 9 -1 10 1 11 -1 1 -1 0
1
1.000000000000000 0.000000000000000 0.000000000000000 -43.204999999999998 
0.000000000000000 1.000000000000000 0.000000000000000 20.131576107575491 
0.000000000000000 0.000000000000000 1.000000000000000 18.000000000000000 
2  2 1 3 1 4 -1 5 1 6 1 7 -1 8 1 9 -1 10 1 11 -1 13 -1 0
1
1.000000000000000 0.000000000000000 0.000000000000000 43.204999999999998 
0.000000000000000 1.000000000000000 0.000000000000000 20.131576107575491 
0.000000000000000 0.000000000000000 1.000000000000000 18.000000000000000 
2  2 1 3 1 4 -1 5 1 6 1 7 -1 8 1 9 -1 10 1 11 -1 15 -1 0
1
1.000000000000000 0.000000000000000 0.000000000000000 38.542500000000004 
0.000000000000000 1.000000000000000 0.000000000000000 -28.043324969126264 
0.000000000000000 0.000000000000000 1.000000000000000 18.000000000000000 
2  2 1 3 1 4 -1 5 1 6 1 7 -1 8 1 9 -1 10 1 11 -1 17 -1 0
Curve2ds 19
2 0.00000000000000000 0.00000000000000000 -1.00000000000000000 0.00000000000000000 0.00000000000000000 1.00000000000000000 12.50000000000000000
1 0.00000000000000000 0.00000000000000000 1.00000000000000000 0.00000000000000000 
2 -38.54250000000001819 -28.04332496912623540 1.00000000000000000 0.00000000000000000 -0.00000000000000000 1.00000000000000000 12.50000000000000000
2 -43.20500000000001251 20.13157610757551907 1.00000000000000000 0.00000000000000000 -0.00000000000000000 1.00000000000000000 12.50000000000000000
2 43.20499999999998408 20.13157610757551907 1.00000000000000000 0.00000000000000000 -0.00000000000000000 1.00000000000000000 12.50000000000000000
2 38.54249999999998977 -28.04332496912623540 1.00000000000000000 0.00000000000000000 -0.00000000000000000 1.00000000000000000 12.50000000000000000
1 0.00000000000000000 8.00000000000000000 1.00000000000000000 0.00000000000000000 
2 0.00000000000000000 0.00000000000000000 1.00000000000000000 0.00000000000000000 -0.00000000000000000 1.00000000000000000 12.50000000000000000
1 6.28318530717958623 0.00000000000000000 0.00000000000000000 1.00000000000000000 
1 0.00000000000000000 0.00000000000000000 0.00000000000000000 1.00000000000000000 
2 0.00000000000000000 0.00000000000000000 1.00000000000000000 0.00000000000000000 -0.00000000000000000 1.00000000000000000 4.25000000000000000
1 0.00000000000000000 0.00000000000000000 1.00000000000000000 0.00000000000000000 
1 0.00000000000000000 1751.50380993063527058 1.00000000000000000 0.00000000000000000 
1 0.00000000000000000 0.00000000000000000 1.00000000000000000 0.00000000000000000 
1 6.28318530717958623 0.00000000000000000 0.00000000000000000 1.00000000000000000 
1 0.00000000000000000 0.00000000000000000 0.00000000000000000 1.00000000000000000 
1 0.00000000000000000 4.95819193816502768 1.00000000000000000 0.00000000000000000 
1 6.28318530717958623 0.00000000000000000 0.00000000000000000 1.00000000000000000 
1 0.00000000000000000 0.00000000000000000 0.00000000000000000 1.00000000000000000 
Curves 7
2 0.00000000000000000 0.00000000000000000 0.00000000000000000 0.00000000000000000 0.00000000000000000 1.00000000000000000 1.00000000000000000 0.00000000000000000 -0.00000000000000000 -0.00000000000000000 1.00000000000000000 0.00000000000000000 12.50000000000000000
2 0.00000000000000000 0.00000000000000000 -8.00000000000000000 0.00000000000000000 0.00000000000000000 1.00000000000000000 1.00000000000000000 0.00000000000000000 -0.00000000000000000 -0.00000000000000000 1.00000000000000000 0.00000000000000000 12.50000000000000000
1 12.50000000000000000 0.00000000000000000 -0.00000000000000000 0.00000000000000000 0.00000000000000000 -1.00000000000000000 
2 0.00000000000000000 0.00000000000000000 -8.00000000000000000 0.00000000000000000 0.00000000000000000 1.00000000000000000 1.00000000000000000 0.00000000000000000 -0.00000000000000000 -0.00000000000000000 1.00000000000000000 0.00000000000000000 4.25000000000000000
2 0.00000000000000000 0.00000000000000000 -1759.50380993063527058 0.00000000000000000 0.00000000000000000 1.00000000000000000 1.00000000000000000 0.00000000000000000 -0.00000000000000000 -0.00000000000000000 1.00000000000000000 0.00000000000000000 4.24999999999989253
1 4.25000000000000000 0.00000000000000000 -8.00000000000000000 -0.00000000000000006 0.00000000000000000 -1.00000000000000000 
1 4.24999999999989253 0.00000000000000000 -1759.50380993063527058 -0.85716730070211256 -0.00000000000000000 -0.51503807491005382 
Polygon3D 0
PolygonOnTriangulations 0
Surfaces 6
1 0.00000000000000000 0.00000000000000000 0.00000000000000000 0.00000000000000000 0.00000000000000000 1.00000000000000000 -1.00000000000000000 -0.00000000000000000 0.00000000000000000 -0.00000000000000000 1.00000000000000000 -0.00000000000000000 
2 0.00000000000000000 0.00000000000000000 0.00000000000000000 -0.00000000000000000 -0.00000000000000000 -1.00000000000000000 1.00000000000000000 0.00000000000000000 0.00000000000000000 -0.00000000000000000 1.00000000000000000 -0.00000000000000000 12.50000000000000000
1 0.00000000000001316 -0.00000000000002677 0.00000000000000000 0.00000000000000000 0.00000000000000000 1.00000000000000000 1.00000000000000000 0.00000000000000000 -0.00000000000000000 -0.00000000000000000 1.00000000000000000 0.00000000000000000 
1 0.00000000000000000 0.00000000000000000 -8.00000000000000000 0.00000000000000000 0.00000000000000000 1.00000000000000000 1.00000000000000000 0.00000000000000000 -0.00000000000000000 -0.00000000000000000 1.00000000000000000 0.00000000000000000 
2 0.00000000000000000 0.00000000000000000 -8.00000000000000000 -0.00000000000000000 -0.00000000000000000 -1.00000000000000000 1.00000000000000000 0.00000000000000000 0.00000000000000000 -0.00000000000000000 1.00000000000000000 -0.00000000000000000 4.25000000000000000
3 0.00000000000000000 0.00000000000000000 -1759.50380993063527058 -0.00000000000000000 -0.00000000000000000 -1.00000000000000000 1.00000000000000000 0.00000000000000000 0.00000000000000000 -0.00000000000000000 1.00000000000000000 -0.00000000000000000 4.24999999999989253
-1.02974425867665498
Triangulations 0

TShapes 27
Ve
0.000000100000000
12.500000000000000 0.000000000000000 -0.000000000000000
0 0

0101101
*
Ed
 0.000000100000000 1 1 0
1  1 0 0.000000000000000 6.283185307179586
2  1 1 0 0.000000000000000 6.283185307179586
2  2 2 0 0.000000000000000 6.283185307179586
2  3 3 12 0.000000000000000 6.283185307179586
2  4 3 14 0.000000000000000 6.283185307179586
2  5 3 16 0.000000000000000 6.283185307179586
2  6 3 18 0.000000000000000 6.283185307179586
0

0101000
+27 0 -27 0 *
Wi

0101100
-26 0 *
Fa
0  0.000000100000000 1 0

0111000
+25 0 *
Ve
0.000000100000000
12.500000000000000 0.000000000000000 -8.000000000000000
0 0

0101101
*
Ed
 0.000000100000000 1 1 0
1  2 0 0.000000000000000 6.283185307179586
2  7 2 0 0.000000000000000 6.283185307179586
2  8 4 0 0.000000000000000 6.283185307179586
0

0101000
+23 0 -23 0 *
Ed
 0.000000100000000 1 1 0
1  3 0 0.000000000000000 8.000000000000000
3  9 10CN 2 0 0.000000000000000 8.000000000000000
0

0101000
+27 0 -23 0 *
Wi

0101100
+26 0 -22 0 -21 0 +21 0 *
Fa
0  0.000000100000000 2 0

0111000
+20 0 *
Wi

0101100
+22 0 *
Ve
0.000000100000000
4.250000000000000 0.000000000000000 -8.000000000000000
0 0

0101101
*
Ed
 0.000000100000000 1 1 0
1  4 0 0.000000000000000 6.283185307179586
2  11 4 0 0.000000000000000 6.283185307179586
2  12 5 0 0.000000000000000 6.283185307179586
0

0101000
+17 0 -17 0 *
Wi

0101100
-16 0 *
Fa
0  0.000000100000000 4 0

0111000
+18 0 +15 0 *
Ve
0.000000100000000
4.249999999999893 0.000000000000000 -1759.503809930635271
0 0

0101101
*
Ed
 0.000000100000000 1 1 0
1  5 0 0.000000000000000 6.283185307179586
2  13 5 0 0.000000000000000 6.283185307179586
2  14 6 0 0.000000000000000 6.283185307179586
0

0101000
+13 0 -13 0 *
Ed
 0.000000100000000 1 1 0
1  6 0 0.000000000000000 1751.503809930635271
3  15 16CN 5 0 0.000000000000000 1751.503809930635271
0

0101000
+17 0 -13 0 *
Wi

0101100
+16 0 -12 0 -11 0 +11 0 *
Fa
0  0.000000100000000 5 0

0111000
+10 0 *
Ve
0.000000100000000
-0.000000000000000 -0.000000000000000 -1762.057467561502335
0 0

0101101
*
Ed
 0.000000100000000 1 1 1
2  17 6 0 0.000000000000000 6.283185307179586
0

0101000
+8 0 -8 0 *
Ed
 0.000000100000000 1 1 0
1  7 0 0.000000000000000 4.958191938165028
3  18 19CN 6 0 0.000000000000000 4.958191938165028
0

0101000
+13 0 -8 0 *
Wi

0101100
+12 0 -7 0 -6 0 +6 0 *
Fa
0  0.000000100000000 6 0

0111000
+5 0 *
Sh

0101100
+24 0 +19 0 +14 0 +9 0 +4 0 *
So

0100000
-3 0 *
Co

1100000
+2 1 +2 13 +2 15 +2 17 *

+1 0 