
CASCADE Topology V1, (c) Matra-Datavision
Locations 10
1
1.000000000000000 0.000000000000000 0.000000000000000 0.000000000000000 
0.000000000000000 1.000000000000000 0.000000000000000 -60.000000000000000 
0.000000000000000 0.000000000000000 1.000000000000000 0.000000000000000 
1
1.000000000000000 0.000000000000000 0.000000000000000 0.000000000000000 
0.000000000000000 1.000000000000000 0.000000000000000 0.000000000000000 
0.000000000000000 0.000000000000000 1.000000000000000 0.000000000000000 
1
1.000000000000000 0.000000000000000 0.000000000000000 0.000000000000000 
0.000000000000000 1.000000000000000 0.000000000000000 0.000000000000000 
0.000000000000000 0.000000000000000 1.000000000000000 0.000000000000000 
1
1.000000000000000 0.000000000000000 0.000000000000000 0.000000000000000 
0.000000000000000 1.000000000000000 0.000000000000000 0.000000000000000 
0.000000000000000 0.000000000000000 1.000000000000000 0.000000000000000 
1
1.000000000000000 0.000000000000000 0.000000000000000 0.000000000000000 
0.000000000000000 1.000000000000000 0.000000000000000 0.000000000000000 
0.000000000000000 0.000000000000000 1.000000000000000 0.000000000000000 
1
1.000000000000000 0.000000000000000 0.000000000000000 0.000000000000000 
0.000000000000000 1.000000000000000 0.000000000000000 0.000000000000000 
0.000000000000000 0.000000000000000 1.000000000000000 0.000000000000000 
1
1.000000000000000 0.000000000000000 0.000000000000000 0.000000000000000 
0.000000000000000 1.000000000000000 0.000000000000000 0.000000000000000 
0.000000000000000 0.000000000000000 1.000000000000000 0.000000000000000 
2  2 1 3 1 4 1 5 -1 6 1 7 -1 1 -1 0
1
1.000000000000000 0.000000000000000 0.000000000000000 0.000000000000000 
0.000000000000000 1.000000000000000 0.000000000000000 -30.000000000000000 
0.000000000000000 0.000000000000000 1.000000000000000 0.000000000000000 
2  2 1 3 1 4 1 5 -1 6 1 7 -1 9 -1 0
Curve2ds 11
2 0.00000000000000000 0.00000000000000000 -1.00000000000000000 0.00000000000000000 0.00000000000000000 1.00000000000000000 1.69999999999999996
1 0.00000000000000000 0.00000000000000000 1.00000000000000000 0.00000000000000000 
2 56.00000000000000000 -14.30000000000001315 0.00000000000000022 1.00000000000000000 -1.00000000000000000 0.00000000000000022 1.69999999999999996
2 26.00000000000000000 -14.30000000000000604 0.00000000000000022 1.00000000000000000 -1.00000000000000000 0.00000000000000022 1.69999999999999996
1 0.00000000000000000 219.44638886069648720 1.00000000000000000 0.00000000000000000 
1 0.00000000000000000 0.00000000000000000 1.00000000000000000 0.00000000000000000 
1 6.28318530717958623 0.00000000000000000 0.00000000000000000 1.00000000000000000 
1 0.00000000000000000 0.00000000000000000 0.00000000000000000 1.00000000000000000 
1 0.00000000000000000 1.98327677526605384 1.00000000000000000 0.00000000000000000 
1 6.28318530717958623 0.00000000000000000 0.00000000000000000 1.00000000000000000 
1 0.00000000000000000 0.00000000000000000 0.00000000000000000 1.00000000000000000 
Curves 4
2 0.00000000000000000 0.00000000000000000 0.00000000000000000 -0.00000000000000000 -0.00000000000000000 -1.00000000000000000 -1.00000000000000000 0.00000000000000000 0.00000000000000000 0.00000000000000000 1.00000000000000000 -0.00000000000000000 1.69999999999999996
2 0.00000000000000000 0.00000000000000000 219.44638886069648720 -0.00000000000000000 -0.00000000000000000 -1.00000000000000000 -1.00000000000000000 0.00000000000000000 0.00000000000000000 0.00000000000000000 1.00000000000000000 -0.00000000000000000 1.69999999999998641
1 -1.69999999999999996 0.00000000000000000 0.00000000000000000 0.00000000000000006 0.00000000000000000 1.00000000000000000 
1 -1.69999999999998641 0.00000000000000000 219.44638886069648720 0.85716730070210889 0.00000000000000000 0.51503807491006004 
Polygon3D 0
PolygonOnTriangulations 0
Surfaces 4
1 0.00000000000000000 0.00000000000000000 0.00000000000000000 -0.00000000000000000 -0.00000000000000000 -1.00000000000000000 1.00000000000000000 -0.00000000000000000 0.00000000000000000 0.00000000000000000 1.00000000000000000 -0.00000000000000000 
2 0.00000000000000000 0.00000000000000000 0.00000000000000000 0.00000000000000000 0.00000000000000000 1.00000000000000000 -1.00000000000000000 0.00000000000000000 0.00000000000000000 -0.00000000000000000 1.00000000000000000 -0.00000000000000000 1.69999999999999996
1 -14.30000000000000071 -3.99999999999999689 -0.00000000000000308 0.00000000000000028 -0.00000000000000022 -1.00000000000000000 -0.00000000000000022 -1.00000000000000000 0.00000000000000022 -1.00000000000000000 0.00000000000000022 -0.00000000000000028 
3 0.00000000000000000 0.00000000000000000 219.44638886069648720 0.00000000000000000 0.00000000000000000 1.00000000000000000 -1.00000000000000000 0.00000000000000000 0.00000000000000000 -0.00000000000000000 1.00000000000000000 -0.00000000000000000 1.69999999999998641
-1.02974425867664787
Triangulations 0

TShapes 17
Ve
0.001000000000014
-1.700000000000000 0.000000000000000 0.000000000000000
0 0

0101101
*
Ed
 0.001000000000014 1 1 0
1  1 0 0.000000000000000 6.283185307179586
2  1 1 0 0.000000000000000 6.283185307179586
2  2 2 0 0.000000000000000 6.283185307179586
2  3 3 8 0.000000000000000 6.283185307179586
2  4 3 10 0.000000000000000 6.283185307179586
0

0101000
+17 0 -17 0 *
Wi

0101100
-16 0 *
Fa
0  0.000000100000000 1 0

0111000
+15 0 *
Ve
0.000000100000000
-1.699999999999986 0.000000000000000 219.446388860696487
0 0

0101101
*
Ed
 0.000000100000000 1 1 0
1  2 0 0.000000000000000 6.283185307179586
2  5 2 0 0.000000000000000 6.283185307179586
2  6 4 0 0.000000000000000 6.283185307179586
0

0101000
+13 0 -13 0 *
Ed
 0.000000100000000 1 1 0
1  3 0 0.000000000000000 219.446388860696487
3  7 8CN 2 0 0.000000000000000 219.446388860696487
0

0101000
+17 0 -13 0 *
Wi

0101100
+16 0 -12 0 -11 0 +11 0 *
Fa
0  0.000000100000000 2 0

0111000
+10 0 *
Ve
0.000000100000000
0.000000000000000 0.000000000000000 220.467851913043347
0 0

0101101
*
Ed
 0.000000100000000 1 1 1
2  9 4 0 0.000000000000000 6.283185307179586
0

0101000
+8 0 -8 0 *
Ed
 0.000000100000000 1 1 0
1  4 0 0.000000000000000 1.983276775266054
3  10 11CN 4 0 0.000000000000000 1.983276775266054
0

0101000
+13 0 -8 0 *
Wi

0101100
+12 0 -7 0 -6 0 +6 0 *
Fa
0  0.000000100000000 4 0

0111000
+5 0 *
Sh

0101100
+14 0 +9 0 +4 0 *
So

0100000
-3 0 *
Co

1100000
+2 1 +2 9 *

+1 0 