
CASCADE Topology V1, (c) Matra-Datavision
Locations 54
1
1.000000000000000 0.000000000000000 0.000000000000000 0.000000000000000 
0.000000000000000 1.000000000000000 0.000000000000000 0.000000000000000 
0.000000000000000 0.000000000000000 1.000000000000000 0.000000000000000 
1
1.000000000000000 0.000000000000000 0.000000000000000 0.000000000000000 
0.000000000000000 1.000000000000000 0.000000000000000 0.000000000000000 
0.000000000000000 0.000000000000000 1.000000000000000 0.000000000000000 
1
1.000000000000000 0.000000000000000 0.000000000000000 0.000000000000000 
0.000000000000000 1.000000000000000 0.000000000000000 0.000000000000000 
0.000000000000000 0.000000000000000 1.000000000000000 0.000000000000000 
1
1.000000000000000 0.000000000000000 0.000000000000000 0.000000000000000 
0.000000000000000 1.000000000000000 0.000000000000000 0.000000000000000 
0.000000000000000 0.000000000000000 1.000000000000000 0.000000000000000 
1
1.000000000000000 0.000000000000000 0.000000000000000 0.000000000000000 
0.000000000000000 1.000000000000000 0.000000000000000 0.000000000000000 
0.000000000000000 0.000000000000000 1.000000000000000 0.000000000000000 
1
1.000000000000000 0.000000000000000 0.000000000000000 0.000000000000000 
0.000000000000000 1.000000000000000 0.000000000000000 0.000000000000000 
0.000000000000000 0.000000000000000 1.000000000000000 0.000000000000000 
1
1.000000000000000 0.000000000000000 0.000000000000000 0.000000000000000 
0.000000000000000 1.000000000000000 0.000000000000000 0.000000000000000 
0.000000000000000 0.000000000000000 1.000000000000000 0.000000000000000 
1
1.000000000000000 0.000000000000000 0.000000000000000 0.000000000000000 
0.000000000000000 1.000000000000000 0.000000000000000 0.000000000000000 
0.000000000000000 0.000000000000000 1.000000000000000 0.000000000000000 
1
1.000000000000000 0.000000000000000 0.000000000000000 0.000000000000000 
0.000000000000000 1.000000000000000 0.000000000000000 0.000000000000000 
0.000000000000000 0.000000000000000 1.000000000000000 0.000000000000000 
1
1.000000000000000 0.000000000000000 0.000000000000000 0.000000000000000 
0.000000000000000 1.000000000000000 0.000000000000000 0.000000000000000 
0.000000000000000 0.000000000000000 1.000000000000000 0.000000000000000 
1
1.000000000000000 0.000000000000000 0.000000000000000 0.000000000000000 
0.000000000000000 1.000000000000000 0.000000000000000 0.000000000000000 
0.000000000000000 0.000000000000000 1.000000000000000 0.000000000000000 
1
0.000000000000000 -1.000000000000000 0.000000000000000 35.000000000034035 
1.000000000000000 0.000000000000000 0.000000000000000 -36.000000000034042 
0.000000000000000 0.000000000000000 1.000000000000000 0.000000000000000 
1
1.000000000000000 0.000000000000000 0.000000000000000 3.455751918948773 
0.000000000000000 1.000000000000000 0.000000000000000 -0.000000000000000 
0.000000000000000 0.000000000000000 1.000000000000000 -0.000000000000000 
2  2 1 3 1 4 -1 5 1 6 -1 7 1 8 -1 9 1 10 -1 11 1 12 1 13 1 0
2  2 -1 0
2  13 -1 12 -1 11 -1 10 1 9 -1 8 1 7 -1 6 1 5 -1 4 1 3 -1 0
1
0.000000000000000 -0.000000000000000 1.000000000000000 0.000000000000000 
1.000000000000000 0.000000000000000 -0.000000000000000 0.000000000000000 
0.000000000000000 1.000000000000000 0.000000000000000 -1.500000000000000 
2  17 -1 0
1
0.000000000000000 -1.000000000000000 0.000000000000000 35.000000000034035 
1.000000000000000 0.000000000000000 0.000000000000000 -36.000000000034042 
0.000000000000000 0.000000000000000 1.000000000000000 0.000000000000000 
1
1.000000000000000 0.000000000000000 0.000000000000000 3.455751918948773 
0.000000000000000 1.000000000000000 0.000000000000000 -0.000000000000000 
0.000000000000000 0.000000000000000 1.000000000000000 -0.000000000000000 
2  3 1 4 -1 5 1 6 -1 7 1 8 -1 9 1 10 -1 11 1 19 1 20 1 0
1
0.000000000000000 -1.000000000000000 0.000000000000000 35.000000000034035 
1.000000000000000 0.000000000000000 0.000000000000000 -36.000000000034042 
0.000000000000000 0.000000000000000 1.000000000000000 0.000000000000000 
1
1.000000000000000 0.000000000000000 0.000000000000000 3.455751918948773 
0.000000000000000 1.000000000000000 0.000000000000000 -0.000000000000000 
0.000000000000000 0.000000000000000 1.000000000000000 -0.000000000000000 
2  3 1 4 -1 5 1 6 -1 7 1 8 -1 9 1 10 -1 11 1 22 1 23 1 0
2  20 -1 19 -1 11 -1 10 1 9 -1 8 1 7 -1 6 1 5 -1 4 1 3 -1 0
2  23 -1 22 -1 11 -1 10 1 9 -1 8 1 7 -1 6 1 5 -1 4 1 3 -1 0
2  3 1 4 -1 5 1 6 -1 7 1 8 -1 9 1 10 -1 11 1 0
1
0.000000000000000 -1.000000000000000 0.000000000000000 35.000000000034035 
1.000000000000000 0.000000000000000 0.000000000000000 -36.000000000034042 
0.000000000000000 0.000000000000000 1.000000000000000 0.000000000000000 
1
1.000000000000000 0.000000000000000 0.000000000000000 3.455751918948773 
0.000000000000000 1.000000000000000 0.000000000000000 -0.000000000000000 
0.000000000000000 0.000000000000000 1.000000000000000 -0.000000000000000 
2  5 1 6 -1 7 1 8 -1 9 1 10 -1 11 1 28 1 29 1 0
1
0.000000000000000 -1.000000000000000 0.000000000000000 35.000000000034035 
1.000000000000000 0.000000000000000 0.000000000000000 -36.000000000034042 
0.000000000000000 0.000000000000000 1.000000000000000 0.000000000000000 
1
1.000000000000000 0.000000000000000 0.000000000000000 3.455751918948773 
0.000000000000000 1.000000000000000 0.000000000000000 -0.000000000000000 
0.000000000000000 0.000000000000000 1.000000000000000 -0.000000000000000 
2  5 1 6 -1 7 1 8 -1 9 1 10 -1 11 1 31 1 32 1 0
1
1.000000000000000 0.000000000000000 0.000000000000000 0.000000000000000 
0.000000000000000 1.000000000000000 0.000000000000000 -0.000000000000371 
0.000000000000000 0.000000000000000 1.000000000000000 79.000000000027612 
2  34 1 9 1 10 -1 11 1 0
1
1.000000000000000 0.000000000000000 0.000000000000000 -12.499999999999966 
0.000000000000000 1.000000000000000 0.000000000000000 -0.000000000000356 
0.000000000000000 0.000000000000000 1.000000000000000 10.999999999999773 
2  36 1 9 1 10 -1 11 1 0
1
1.000000000000000 0.000000000000000 0.000000000000000 12.500000000098648 
0.000000000000000 1.000000000000000 0.000000000000000 0.000000000000000 
0.000000000000000 0.000000000000000 1.000000000000000 10.999999999998408 
2  38 1 7 1 8 -1 9 1 10 -1 11 1 0
2  11 -1 10 1 9 -1 8 1 7 -1 6 1 5 -1 4 1 3 -1 0
2  2 1 3 1 4 -1 5 1 6 -1 7 1 8 -1 9 1 10 -1 11 1 0
2  2 1 3 1 4 -1 5 1 6 -1 7 1 8 -1 9 1 10 -1 0
2  11 -1 0
2  29 -1 28 -1 11 -1 10 1 9 -1 8 1 7 -1 6 1 5 -1 0
2  17 -1 29 -1 28 -1 11 -1 10 1 9 -1 8 1 7 -1 6 1 5 -1 0
2  32 -1 31 -1 11 -1 10 1 9 -1 8 1 7 -1 6 1 5 -1 0
2  17 -1 32 -1 31 -1 11 -1 10 1 9 -1 8 1 7 -1 6 1 5 -1 0
2  9 1 10 -1 11 1 0
2  11 -1 10 1 9 -1 0
2  17 -1 11 -1 10 1 9 -1 34 -1 0
2  17 -1 11 -1 10 1 9 -1 36 -1 0
2  7 1 8 -1 9 1 10 -1 11 1 0
2  11 -1 10 1 9 -1 8 1 7 -1 0
2  17 -1 11 -1 10 1 9 -1 8 1 7 -1 38 -1 0
Curve2ds 44
1 0.00000000000000000 0.00000000000000000 0.00000000000000000 1.00000000000000000 
1 0.00000000000000000 0.00000000000000000 0.00000000000000000 1.00000000000000000 
7 0 0  4 26 9  0.00000000000000000 -0.00000000000012689  0.01925148624791622 -0.00000000000012634  0.03793223999513366 -0.00000000000012905  0.05615313334795838 -0.00000000000012421  0.08714564997378968 -0.00000000000012349  0.10008856482301304 -0.00000000000012955  0.11286334372151213 -0.00000000000012286  0.13472383839441118 -0.00000000000012242  0.14387411805226683 -0.00000000000013543  0.15296255401431771 -0.00000000000011485  0.18430715061029032 -0.00000000000011408  0.20630434850532692 -0.00000000000013078  0.22815249711406921 -0.00000000000011325  0.27184750288596238 -0.00000000000011260  0.29369565149470556 -0.00000000000011040  0.31569284938973952 -0.00000000000011925  0.34703744598571012 -0.00000000000011923  0.35612588194776074 -0.00000000000011526  0.36527616160561588 -0.00000000000011916  0.38713665627851396 -0.00000000000011915  0.39991143517701278 -0.00000000000011384  0.41285435002623561 -0.00000000000011930  0.44384686665206491 -0.00000000000011929  0.46206776000488836 -0.00000000000011162  0.48074851375210265 -0.00000000000011269  0.50000000000001699 -0.00000000000011296 
 0.00000000000000000 5 0.13883825542917605 3 0.24110377600630062 3 0.31575015510642757 3 0.50000000000003375 3 0.68424984489362362 3 0.75889622399374135 3 0.86116174457085393 3 1.00000000000000000 5
1 0.50000000000001699 0.00000000000000000 0.00000000000000000 1.00000000000000000 
7 0 0  4 26 9  0.00000000000000000 0.49999999999990752  0.01925148624791612 0.49999999999990713  0.03793223999513366 0.49999999999991157  0.05615313334795846 0.49999999999990147  0.08714564997378958 0.49999999999990030  0.10008856482301309 0.49999999999991351  0.11286334372151217 0.49999999999990125  0.13472383839441135 0.49999999999990047  0.14387411805226652 0.49999999999990724  0.15296255401431791 0.49999999999990108  0.18430715061029035 0.49999999999990014  0.20630434850532686 0.49999999999990230  0.22815249711406926 0.49999999999990152  0.27184750288596238 0.49999999999990008  0.29369565149470550 0.49999999999989547  0.31569284938973957 0.49999999999990141  0.34703744598571029 0.49999999999990052  0.35612588194776051 0.49999999999988698  0.36527616160561582 0.49999999999990102  0.38713665627851418 0.49999999999990052  0.39991143517701250 0.49999999999988304  0.41285435002623566 0.49999999999990108  0.44384686665206480 0.49999999999990041  0.46206776000488853 0.49999999999988998  0.48074851375210259 0.49999999999989397  0.50000000000001699 0.49999999999989370 
 0.00000000000000000 5 0.13883825542917050 3 0.24110377600629074 3 0.31575015510641613 3 0.50000000000002265 3 0.68424984489361329 3 0.75889622399373291 3 0.86116174457084915 3 1.00000000000000000 5
7 0 0  4 26 9  0.00000000000000000 -0.00000000000011504  0.01925148624791506 -0.00000000000011422  0.03793223999512564 -0.00000000000011083  0.05615313334795217 -0.00000000000011274  0.08714564997378110 -0.00000000000011131  0.10008856482300452 -0.00000000000010155  0.11286334372150482 -0.00000000000011001  0.13472383839440580 -0.00000000000010922  0.14387411805226019 -0.00000000000009546  0.15296255401431200 -0.00000000000010835  0.18430715061028413 -0.00000000000010707  0.20630434850531973 -0.00000000000009595  0.22815249711406521 -0.00000000000009832  0.27184750288596055 -0.00000000000009703  0.29369565149470178 -0.00000000000009805  0.31569284938974179 -0.00000000000009612  0.34703744598571368 -0.00000000000009580  0.35612588194776956 -0.00000000000010601  0.36527616160562143 -0.00000000000010271  0.38713665627852506 -0.00000000000010254  0.39991143517702066 -0.00000000000008234  0.41285435002624943 -0.00000000000010257  0.44384686665208006 -0.00000000000010269  0.46206776000490668 -0.00000000000010007  0.48074851375212213 -0.00000000000009616  0.50000000000003886 -0.00000000000009616 
 0.00000000000000000 5 0.13883825542914785 3 0.24110377600626731 3 0.31575015510638615 3 0.49999999999997313 3 0.68424984489359386 3 0.75889622399371592 3 0.86116174457083361 3 1.00000000000000000 5
1 0.50000000000003886 0.00000000000000000 0.00000000000000000 1.00000000000000000 
7 0 0  4 26 9  0.00000000000000000 0.49999999999993316  0.01925148624791506 0.49999999999993056  0.03793223999512572 0.49999999999993394  0.05615313334795207 0.49999999999993017  0.08714564997378099 0.49999999999992556  0.10008856482300485 0.49999999999992473  0.11286334372150458 0.49999999999992373  0.13472383839440474 0.49999999999992040  0.14387411805226208 0.49999999999992278  0.15296255401431075 0.49999999999991196  0.18430715061028466 0.49999999999990730  0.20630434850531920 0.49999999999991201  0.22815249711406541 0.49999999999991074  0.27184750288596049 0.49999999999990519  0.29369565149470184 0.49999999999988526  0.31569284938974179 0.49999999999990030  0.34703744598571362 0.49999999999989730  0.35612588194776940 0.49999999999988592  0.36527616160562154 0.49999999999989486  0.38713665627852489 0.49999999999989320  0.39991143517702088 0.49999999999987144  0.41285435002624926 0.49999999999988998  0.44384686665208001 0.49999999999988820  0.46206776000490679 0.49999999999989020  0.48074851375212202 0.49999999999988193  0.50000000000003886 0.49999999999988165 
 0.00000000000000000 5 0.13883825542917461 3 0.24110377600631239 3 0.31575015510643467 3 0.50000000000000888 3 0.68424984489361806 3 0.75889622399373502 3 0.86116174457084549 3 1.00000000000000000 5
1 6.28318530717958623 -615.46366788148020532 -1.00000000000000000 0.00000000000000000 
1 6.28318530717958623 -615.46366788148020532 -1.00000000000000000 0.00000000000000000 
1 6.28318530717958623 -615.46366788148020532 -1.00000000000000000 0.00000000000000000 
7 0 0  4 26 9  0.00000000000000000 -0.00000000000004090  0.01925148624791711 -0.00000000000003879  0.03793223999514185 -0.00000000000003740  0.05615313334796355 -0.00000000000003356  0.08714564997379978 -0.00000000000002872  0.10008856482302442 -0.00000000000002800  0.11286334372152579 -0.00000000000002450  0.13472383839442692 -0.00000000000002042  0.14387411805228056 -0.00000000000001919  0.15296255401433442 -0.00000000000001704  0.18430715061030764 -0.00000000000001060  0.20630434850534524 -0.00000000000000554  0.22815249711408941 -0.00000000000000050  0.27184750288598780 0.00000000000000977  0.29369565149472787 0.00000000000001513  0.31569284938976933 0.00000000000002009  0.34703744598574371 0.00000000000002747  0.35612588194779277 0.00000000000002964  0.36527616160565135 0.00000000000003215  0.38713665627854993 0.00000000000003711  0.39991143517705308 0.00000000000003908  0.41285435002627480 0.00000000000004276  0.44384686665211032 0.00000000000004923  0.46206776000492755 0.00000000000005233  0.48074851375215288 0.00000000000005614  0.50000000000006639 0.00000000000005948 
 0.00000000000000000 5 0.13883825542917028 3 0.24110377600627686 3 0.31575015510639237 3 0.49999999999997385 3 0.68424984489355856 3 0.75889622399368661 3 0.86116174457081740 3 1.00000000000000000 5
1 0.00000000000000000 -88.79030780645655341 1.00000000000000000 0.00000000000000000 
1 0.00000000000000000 -88.79030780645655341 1.00000000000000000 0.00000000000000000 
1 6.28318530717958623 2.00000000000037170 -1.00000000000000000 0.00000000000000000 
1 6.28318530717958623 2.00000000000035616 -1.00000000000000000 0.00000000000000000 
1 6.28318530717958623 2.00000000000000000 -1.00000000000000000 0.00000000000000000 
1 0.00000000000000000 0.00000000000000000 0.00000000000000000 1.00000000000000000 
1 0.50000000000006639 0.00000000000000000 0.00000000000000000 1.00000000000000000 
7 0 0  4 26 9  0.00000000000000000 0.50000000000001188  0.01925148624791729 0.50000000000001110  0.03793223999514152 0.50000000000001066  0.05615313334796378 0.50000000000001088  0.08714564997379964 0.50000000000001188  0.10008856482302478 0.50000000000001243  0.11286334372152550 0.50000000000001377  0.13472383839442720 0.50000000000001588  0.14387411805228015 0.50000000000001632  0.15296255401433467 0.50000000000001776  0.18430715061030764 0.50000000000002198  0.20630434850534526 0.50000000000002565  0.22815249711408939 0.50000000000003009  0.27184750288598780 0.50000000000004030  0.29369565149472787 0.50000000000004663  0.31569284938976933 0.50000000000005218  0.34703744598574338 0.50000000000006173  0.35612588194779332 0.50000000000006450  0.36527616160565107 0.50000000000006783  0.38713665627855026 0.50000000000007483  0.39991143517705258 0.50000000000007816  0.41285435002627513 0.50000000000008327  0.44384686665211032 0.50000000000009348  0.46206776000492755 0.50000000000009881  0.48074851375215288 0.50000000000010558  0.50000000000006639 0.50000000000011180 
 0.00000000000000000 5 0.13883825542916817 3 0.24110377600627331 3 0.31575015510638826 3 0.49999999999997330 3 0.68424984489356144 3 0.75889622399368828 3 0.86116174457081685 3 1.00000000000000000 5
1 3.14159265358979312 0.00000000000000000 0.00000000000000000 -1.00000000000000000 
1 4.71238898038509735 0.00000000000000000 0.00000000000000000 -1.00000000000000000 
1 6.28318530717958623 -615.96366788148020532 -1.00000000000000000 0.00000000000000000 
1 1.57079632679489656 0.00000000000000000 0.00000000000000000 -1.00000000000000000 
1 6.28318530717958623 -615.96366788148020532 -1.00000000000000000 0.00000000000000000 
1 0.88095769992422468 0.00000000000000000 0.00000000000000000 -1.00000000000000000 
1 4.02255035351401791 0.00000000000000000 0.00000000000000000 -1.00000000000000000 
7 0 0  1 2 2  4.71238898038468967 -615.96366788148020532  4.71238898038468967 -615.46366788148020532 
 0.00000000000000000 2 0.49999999999999978 2
1 6.28318530717958623 -615.96366788148020532 -1.00000000000000000 0.00000000000000000 
1 0.00000000000000000 0.00000000000000000 0.00000000000000000 -1.00000000000000000 
1 6.28318530717958623 0.00000000000000000 0.00000000000000000 -1.00000000000000000 
1 0.00000000000000000 -89.29030780645655341 1.00000000000000000 0.00000000000000000 
1 0.00000000000000000 0.00000000000000000 0.00000000000000000 -1.00000000000000000 
1 6.28318530717958623 0.00000000000000000 0.00000000000000000 -1.00000000000000000 
1 0.00000000000000000 -89.29030780645655341 1.00000000000000000 0.00000000000000000 
1 6.28318530717958623 1.50000000000037148 -1.00000000000000000 0.00000000000000000 
1 6.28318530717958623 0.00000000000000000 0.00000000000000000 1.00000000000000000 
1 0.00000000000000000 0.00000000000000000 0.00000000000000000 1.00000000000000000 
1 6.28318530717958623 1.50000000000035638 -1.00000000000000000 0.00000000000000000 
1 6.28318530717958623 0.00000000000000000 0.00000000000000000 1.00000000000000000 
1 0.00000000000000000 0.00000000000000000 0.00000000000000000 1.00000000000000000 
1 6.28318530717958623 1.50000000000000000 -1.00000000000000000 0.00000000000000000 
1 6.28318530717958623 0.00000000000000000 0.00000000000000000 1.00000000000000000 
1 0.00000000000000000 0.00000000000000000 0.00000000000000000 1.00000000000000000 
Curves 48
1 -5.99999999999998579 65.45575191896432443 0.49999999999999867 1.00000000000000000 -0.00000000000000022 0.00000000000000022 
7 0 0  2 5 4  -2.99999999999998579 65.45575191896432443 0.53059999999999174  -2.99999999999998579 65.45575191896432443 0.51529999999998832  -2.99999999999998579 65.45575191896432443 0.24999999999999933  -2.99999999999998579 65.45575191896432443 -0.01529999999998988  -2.99999999999998579 65.45575191896432443 -0.03059999999998619 
 -0.03060000000010848 3 -0.00000000000011369 1 0.49999999999990330 1 0.53059999999989771 3
7 0 0  2 5 4  87.00000000000001421 65.45575191896431022 0.53060000000000507  87.00000000000001421 65.45575191896431022 0.51530000000000165  87.00000000000001421 65.45575191896431022 0.25000000000001221  87.00000000000001421 65.45575191896431022 -0.01529999999997700  87.00000000000001421 65.45575191896431022 -0.03059999999998042 
 -0.03060000000010095 3 -0.00000000000010640 1 0.49999999999993250 1 0.53059999999993246 3
1 -5.99999999999998579 65.45575191896432443 -0.00000000000000133 1.00000000000000000 -0.00000000000000022 0.00000000000000022 
8 0.00000000000000000 1.00000000000000000
7 0 0  4 26 9  -2.99999999999998579 65.45575191896432443 0.49999999999999933  -3.16335427768583388 65.45575191896432443 0.49999999999999933  -3.32677741670821359 65.44389194851576974 0.49999999999999933  -3.48895474004250072 65.42015067495640324 0.49999999999999933  -3.76619355783083787 65.35875957553568583 0.49999999999999911  -3.88241403026779786 65.32642067685125653 0.49999999999999911  -3.99675034260448792 65.28789031590800107 0.49999999999999911  -4.19044095791062787 65.21085373807801489 0.49999999999999911  -4.27090357759127315 65.17515128586745732 0.49999999999999911  -4.34991347176564425 65.13632512827939536 0.49999999999999911  -4.61828377259691614 64.99116279364264415 0.49999999999999889  -4.79933962932235314 64.86940351103925195 0.49999999999999889  -4.96774469292046295 64.73064791316313915 0.49999999999999889  -5.27489599419889643 64.42349661188468701 0.49999999999999889  -5.41365159207499591 64.25509154828657188 0.49999999999999889  -5.53541087467838189 64.07403569156113576 0.49999999999999867  -5.68057320931510912 63.80566539072988519 0.49999999999999867  -5.71939936690316131 63.72665549655550876 0.49999999999999867  -5.75510181911372065 63.64619287687487770 0.49999999999999867  -5.83213839694370062 63.45250226156873907 0.49999999999999867  -5.87066875788694720 63.33816594923204946 0.49999999999999867  -5.90300765657137472 63.22194547679509924 0.49999999999999867  -5.96439875599208502 62.94470665900678341 0.49999999999999867  -5.98814002955144087 62.78252933567250693 0.49999999999999867  -5.99999999999998579 62.61910619665015076 0.49999999999999867  -5.99999999999998579 62.45575191896431733 0.49999999999999867 
 0.00000000000000000 5 0.13883825542917605 3 0.24110377600630062 3 0.31575015510642757 3 0.50000000000003375 3 0.68424984489362362 3 0.75889622399374135 3 0.86116174457085393 3 1.00000000000000000 5
7 0 0  2 5 4  -5.99999999999998668 62.45575191896431733 0.53059999999999841  -5.99999999999998668 62.45575191896431733 0.51529999999999498  -5.99999999999998668 62.45575191896431733 0.24999999999999156  -5.99999999999998668 62.45575191896431733 -0.01530000000000475  -5.99999999999998668 62.45575191896431733 -0.03060000000000107 
 -0.03060000000010848 3 -0.00000000000011369 1 0.49999999999990330 1 0.53059999999989771 3
8 0.00000000000000000 1.00000000000000000
7 0 0  4 26 9  -2.99999999999998579 65.45575191896432443 -0.00000000000000067  -3.16335427768583299 65.45575191896432443 -0.00000000000000067  -3.32677741670821359 65.44389194851576974 -0.00000000000000067  -3.48895474004250161 65.42015067495640324 -0.00000000000000067  -3.76619355783083698 65.35875957553568583 -0.00000000000000089  -3.88241403026779786 65.32642067685125653 -0.00000000000000089  -3.99675034260448836 65.28789031590800107 -0.00000000000000089  -4.19044095791062965 65.21085373807801489 -0.00000000000000089  -4.27090357759126960 65.17515128586745732 -0.00000000000000089  -4.34991347176564602 65.13632512827939536 -0.00000000000000089  -4.61828377259691614 64.99116279364264415 -0.00000000000000111  -4.79933962932235225 64.86940351103925195 -0.00000000000000111  -4.96774469292046295 64.73064791316313915 -0.00000000000000111  -5.27489599419889643 64.42349661188468701 -0.00000000000000111  -5.41365159207499591 64.25509154828657188 -0.00000000000000111  -5.53541087467838189 64.07403569156113576 -0.00000000000000133  -5.68057320931510823 63.80566539072988519 -0.00000000000000133  -5.71939936690315776 63.72665549655550876 -0.00000000000000133  -5.75510181911371976 63.64619287687487770 -0.00000000000000133  -5.83213839694370062 63.45250226156873907 -0.00000000000000133  -5.87066875788694542 63.33816594923204946 -0.00000000000000133  -5.90300765657137472 63.22194547679509924 -0.00000000000000133  -5.96439875599208413 62.94470665900678341 -0.00000000000000133  -5.98814002955144264 62.78252933567250693 -0.00000000000000133  -5.99999999999998579 62.61910619665015076 -0.00000000000000133  -5.99999999999998579 62.45575191896431733 -0.00000000000000133 
 0.00000000000000000 5 0.13883825542917050 3 0.24110377600629074 3 0.31575015510641613 3 0.50000000000002265 3 0.68424984489361329 3 0.75889622399373291 3 0.86116174457084915 3 1.00000000000000000 5
8 0.00000000000000000 1.00000000000000000
7 0 0  4 26 9  87.00000000000001421 65.45575191896431022 0.50000000000001954  87.16335427768584054 65.45575191896431022 0.50000000000001954  87.32677741670818250 65.44389194851576974 0.50000000000001954  87.48895474004245898 65.42015067495640324 0.50000000000001954  87.76619355783076060 65.35875957553570004 0.50000000000001954  87.88241403026773924 65.32642067685128495 0.50000000000001954  87.99675034260440043 65.28789031590802949 0.50000000000001954  88.19044095791055327 65.21085373807804331 0.50000000000001954  88.27090357759119854 65.17515128586749995 0.50000000000001954  88.34991347176557497 65.13632512827943799 0.50000000000001954  88.61828377259683975 64.99116279364271520 0.50000000000001954  88.79933962932226166 64.86940351103933722 0.50000000000001954  88.96774469292037679 64.73064791316321021 0.50000000000001954  89.27489599419882893 64.42349661188477228 0.50000000000001998  89.41365159207492752 64.25509154828668557 0.50000000000001998  89.53541087467836235 64.07403569156123524 0.50000000000001998  89.68057320931509935 63.80566539072996335 0.50000000000001998  89.71939936690316131 63.72665549655555139 0.50000000000001998  89.75510181911370466 63.64619287687494165 0.50000000000001998  89.83213839694370506 63.45250226156877460 0.50000000000001998  89.87066875788696052 63.33816594923212051 0.50000000000001998  89.90300765657140403 63.22194547679512056 0.50000000000001998  89.96439875599212144 62.94470665900679762 0.50000000000001998  89.98814002955147373 62.78252933567249983 0.50000000000001998  90.00000000000001421 62.61910619665014366 0.50000000000001998  90.00000000000001421 62.45575191896430312 0.50000000000001998 
 0.00000000000000000 5 0.13883825542914785 3 0.24110377600626731 3 0.31575015510638615 3 0.49999999999997313 3 0.68424984489359386 3 0.75889622399371592 3 0.86116174457083361 3 1.00000000000000000 5
7 0 0  2 5 4  90.00000000000001421 62.45575191896429601 0.53060000000001972  90.00000000000001421 62.45575191896429601 0.51530000000001630  90.00000000000001421 62.45575191896429601 0.24999999999999867  90.00000000000001421 62.45575191896429601 -0.01530000000003318  90.00000000000001421 62.45575191896429601 -0.03060000000003660 
 -0.03060000000010095 3 -0.00000000000010640 1 0.49999999999993250 1 0.53059999999993246 3
8 0.00000000000000000 1.00000000000000000
7 0 0  4 26 9  87.00000000000001421 65.45575191896431022 0.00000000000001932  87.16335427768584054 65.45575191896431022 0.00000000000001932  87.32677741670818250 65.44389194851576974 0.00000000000001932  87.48895474004244477 65.42015067495640324 0.00000000000001932  87.76619355783076060 65.35875957553570004 0.00000000000001954  87.88241403026773924 65.32642067685128495 0.00000000000001954  87.99675034260440043 65.28789031590802949 0.00000000000001954  88.19044095791053905 65.21085373807804331 0.00000000000001954  88.27090357759121275 65.17515128586748574 0.00000000000001954  88.34991347176556076 65.13632512827943799 0.00000000000001954  88.61828377259683975 64.99116279364271520 0.00000000000001976  88.79933962932226166 64.86940351103933722 0.00000000000001976  88.96774469292037679 64.73064791316321021 0.00000000000001976  89.27489599419882893 64.42349661188477228 0.00000000000001976  89.41365159207492752 64.25509154828668557 0.00000000000001976  89.53541087467836235 64.07403569156123524 0.00000000000001998  89.68057320931509935 63.80566539072996335 0.00000000000001998  89.71939936690316131 63.72665549655555139 0.00000000000001998  89.75510181911370466 63.64619287687494165 0.00000000000001998  89.83213839694370506 63.45250226156877460 0.00000000000001998  89.87066875788697473 63.33816594923212051 0.00000000000001998  89.90300765657140403 63.22194547679512056 0.00000000000001998  89.96439875599212144 62.94470665900679762 0.00000000000001998  89.98814002955147373 62.78252933567249983 0.00000000000001998  90.00000000000001421 62.61910619665014366 0.00000000000001998  90.00000000000001421 62.45575191896430312 0.00000000000001998 
 0.00000000000000000 5 0.13883825542917461 3 0.24110377600631239 3 0.31575015510643467 3 0.50000000000000888 3 0.68424984489361806 3 0.75889622399373502 3 0.86116174457084549 3 1.00000000000000000 5
1 -5.99999999999999201 36.95575191898281275 0.49999999999999867 0.00000000000000022 1.00000000000000000 -0.00000000000000011 
2 7.12041666666666995 35.50000000000000000 0.50000000000000178 0.00000000000000000 -0.00000000000000000 1.00000000000000000 0.00000000000000022 1.00000000000000000 0.00000000000000000 -1.00000000000000000 0.00000000000000022 0.00000000000000000 13.12041666666666373
2 -13.12041666666666018 18.80000000000000426 0.49999999999999711 0.00000000000000000 -0.00000000000000000 1.00000000000000000 0.00000000000000022 1.00000000000000000 0.00000000000000000 -1.00000000000000000 0.00000000000000022 0.00000000000000000 13.12041666666666373
1 -0.00000000000000777 -35.99999999999706546 0.50000000000000000 0.00000000000000022 1.00000000000000000 -0.00000000000000000 
2 3.00000000000044542 -34.49999999999767653 0.50000000000000089 0.00000000000000000 -0.00000000000000000 1.00000000000000000 0.00000000000000022 1.00000000000000000 0.00000000000000000 -1.00000000000000000 0.00000000000000022 0.00000000000000000 3.00000000000000000
1 -6.00000000000000888 -37.49999999999767653 0.49999999999999867 1.00000000000000000 -0.00000000000000022 0.00000000000000022 
8 0.00000000000000000 1.00000000000000000
7 0 0  4 26 9  87.00000000000000000 -37.49999999999770495 0.50000000000001954  87.16335427768584054 -37.49999999999770495 0.50000000000001954  87.32677741670825355 -37.48814002954914315 0.50000000000001954  87.48895474004250161 -37.46439875598979796 0.50000000000001954  87.76619355783086007 -37.40300765656906634 0.50000000000001954  87.88241403026782450 -37.37066875788462994 0.50000000000001954  87.99675034260451412 -37.33213839694138159 0.50000000000001954  88.19044095791065274 -37.25510181911138829 0.50000000000001954  88.27090357759128381 -37.21939936690082362 0.50000000000001954  88.34991347176566023 -37.18057320931277587 0.50000000000001954  88.61828377259691081 -37.03541087467603887 0.50000000000001954  88.79933962932234692 -36.91365159207262536 0.50000000000001954  88.96774469292043364 -36.77489599419653388 0.50000000000001954  89.27489599419888577 -36.46774469291808174 0.50000000000001998  89.41365159207498436 -36.29933962931999503 0.50000000000001998  89.53541087467837656 -36.11828377259453760 0.50000000000001998  89.68057320931511356 -35.84991347176327281 0.50000000000001998  89.71939936690314710 -35.77090357758891770 0.50000000000001998  89.75510181911373309 -35.69044095790825821 0.50000000000001998  89.83213839694370506 -35.49675034260214090 0.50000000000001998  89.87066875788696052 -35.38241403026542997 0.50000000000001998  89.90300765657137561 -35.26619355782849397 0.50000000000001998  89.96439875599209302 -34.98895474004014261 0.50000000000001998  89.98814002955143110 -34.82677741670593718 0.50000000000001998  90.00000000000000000 -34.66335427768351707 0.50000000000001998  90.00000000000000000 -34.49999999999770495 0.50000000000001998 
 0.00000000000000000 5 0.13883825542917028 3 0.24110377600627686 3 0.31575015510639237 3 0.49999999999997385 3 0.68424984489355856 3 0.75889622399368661 3 0.86116174457081740 3 1.00000000000000000 5
1 89.99999999999998579 -37.49999999999769784 0.50000000000001998 0.00000000000000022 1.00000000000000000 0.00000000000000000 
2 9.99999999992121147 50.45575191898281275 0.50000000000000933 0.00000000000000000 0.00000000000000033 1.00000000000000000 -0.00000000000000044 -1.00000000000000000 0.00000000000000033 1.00000000000000000 -0.00000000000000044 0.00000000000000000 1.70000000001721463
2 79.99999999999737099 50.45575191898278433 0.50000000000001066 0.00000000000000000 0.00000000000000033 1.00000000000000000 -0.00000000000000044 -1.00000000000000000 0.00000000000000033 1.00000000000000000 -0.00000000000000044 0.00000000000000000 1.70000000001721463
2 79.00000000002761169 -0.00000000000001754 0.50000000000001776 0.00000000000000000 -0.00000000000000000 1.00000000000000000 -0.00000000000000022 -1.00000000000000000 0.00000000000000000 1.00000000000000000 -0.00000000000000022 -0.00000000000000000 1.69999999999999996
2 10.99999999999976907 -12.49999999999996803 0.50000000000000222 0.00000000000000000 -0.00000000000000000 1.00000000000000000 -0.00000000000000022 -1.00000000000000000 0.00000000000000000 1.00000000000000000 -0.00000000000000022 -0.00000000000000000 1.69999999999999996
2 10.99999999999841016 12.50000000009864642 0.50000000000000222 -0.00000000000000022 0.00000000000000000 1.00000000000000000 -0.00000000000000022 -1.00000000000000000 -0.00000000000000000 1.00000000000000000 -0.00000000000000022 0.00000000000000022 1.69999999999999996
7 0 0  2 5 4  86.99999999999998579 -37.49999999999769784 0.53059999999999086  86.99999999999998579 -37.49999999999769784 0.51529999999998921  86.99999999999998579 -37.49999999999769784 0.24999999999998423  86.99999999999998579 -37.49999999999769784 -0.01530000000002096  86.99999999999998579 -37.49999999999769784 -0.03060000000002261 
 -0.03060000000001291 3 -0.00000000000001286 1 0.50000000000005351 1 0.53060000000005336 3
7 0 0  2 5 4  89.99999999999998579 -34.49999999999769784 0.53060000000009211  89.99999999999998579 -34.49999999999769784 0.51530000000009046  89.99999999999998579 -34.49999999999769784 0.25000000000008482  89.99999999999998579 -34.49999999999769784 -0.01529999999992038  89.99999999999998579 -34.49999999999769784 -0.03059999999992202 
 -0.03060000000001291 3 -0.00000000000001286 1 0.50000000000005351 1 0.53060000000005336 3
8 0.00000000000000000 1.00000000000000000
7 0 0  4 26 9  87.00000000000000000 -37.49999999999770495 0.00000000000001932  87.16335427768584054 -37.49999999999770495 0.00000000000001932  87.32677741670825355 -37.48814002954914315 0.00000000000001932  87.48895474004250161 -37.46439875598979796 0.00000000000001932  87.76619355783086007 -37.40300765656906634 0.00000000000001954  87.88241403026782450 -37.37066875788462994 0.00000000000001954  87.99675034260451412 -37.33213839694138159 0.00000000000001954  88.19044095791065274 -37.25510181911138829 0.00000000000001954  88.27090357759126960 -37.21939936690082362 0.00000000000001954  88.34991347176567444 -37.18057320931277587 0.00000000000001954  88.61828377259691081 -37.03541087467603887 0.00000000000001976  88.79933962932234692 -36.91365159207262536 0.00000000000001976  88.96774469292043364 -36.77489599419653388 0.00000000000001976  89.27489599419888577 -36.46774469291808174 0.00000000000001976  89.41365159207498436 -36.29933962931999503 0.00000000000001976  89.53541087467837656 -36.11828377259453760 0.00000000000001998  89.68057320931511356 -35.84991347176327281 0.00000000000001998  89.71939936690314710 -35.77090357758891770 0.00000000000001998  89.75510181911371888 -35.69044095790826532 0.00000000000001998  89.83213839694370506 -35.49675034260214090 0.00000000000001998  89.87066875788696052 -35.38241403026542997 0.00000000000001998  89.90300765657137561 -35.26619355782848686 0.00000000000001998  89.96439875599209302 -34.98895474004014261 0.00000000000001998  89.98814002955143110 -34.82677741670593718 0.00000000000001998  90.00000000000000000 -34.66335427768351707 0.00000000000001998  90.00000000000000000 -34.49999999999770495 0.00000000000001998 
 0.00000000000000000 5 0.13883825542916817 3 0.24110377600627331 3 0.31575015510638826 3 0.49999999999997330 3 0.68424984489356144 3 0.75889622399368828 3 0.86116174457081685 3 1.00000000000000000 5
1 -6.00000000000000888 -37.49999999999767653 -0.00000000000000133 1.00000000000000000 -0.00000000000000022 0.00000000000000022 
1 3.00000000000044587 -37.49999999999767653 615.96366788148020532 0.00000000000000000 0.00000000000000000 -1.00000000000000000 
1 0.00000000000021883 -34.49999999999645439 615.96366788148020532 0.00000000000000000 0.00000000000000000 -1.00000000000000000 
2 3.00000000000044542 -34.49999999999767653 0.00000000000000067 0.00000000000000000 -0.00000000000000000 1.00000000000000000 0.00000000000000022 1.00000000000000000 0.00000000000000000 -1.00000000000000000 0.00000000000000022 0.00000000000000000 3.00000000000000000
1 0.00000000000000417 18.80000000000000426 615.96366788148020532 0.00000000000000000 0.00000000000000000 -1.00000000000000000 
1 -0.00000000000000816 -35.99999999999706546 0.00000000000000000 0.00000000000000022 1.00000000000000000 -0.00000000000000000 
2 -13.12041666666666018 18.80000000000000426 -0.00000000000000289 0.00000000000000000 -0.00000000000000000 1.00000000000000000 0.00000000000000022 1.00000000000000000 0.00000000000000000 -1.00000000000000000 0.00000000000000022 0.00000000000000000 13.12041666666666373
1 -2.99999999999999423 27.14999999999999858 615.96366788148020532 0.00000000000000000 0.00000000000000000 -1.00000000000000000 
7 0 0  3 15 13  -5.99999999999999201 35.50000000003404210 -0.00000000000000111  -5.99999999999999289 35.50000000003404210 0.01388888888888795  -5.99999999999999201 35.50000000003404210 0.04166666666666519  -5.99999999999999201 35.50000000003404210 0.08333333333333259  -5.99999999999999289 35.50000000003404210 0.12499999999999911  -5.99999999999999289 35.50000000003404210 0.16666666666666563  -5.99999999999999378 35.50000000003404921 0.20833333333333282  -5.99999999999999289 35.50000000003404210 0.24999999999999845  -5.99999999999999378 35.50000000003404210 0.29166666666666630  -5.99999999999999201 35.50000000003404210 0.33333333333333171  -5.99999999999999201 35.50000000003404210 0.37499999999999867  -5.99999999999999289 35.50000000003404210 0.41666666666666519  -5.99999999999999289 35.50000000003404210 0.45833333333333215  -5.99999999999999289 35.50000000003404210 0.48611111111110983  -5.99999999999999289 35.50000000003404210 0.49999999999999867 
 0.00000000000000000 4 0.04166666666666674 1 0.08333333333333326 1 0.12500000000000022 1 0.16666666666666674 1 0.20833333333333326 1 0.25000000000000022 1 0.29166666666666674 1 0.33333333333333326 1 0.37499999999999978 1 0.41666666666666630 1 0.45833333333333326 1 0.49999999999999978 4
2 7.12041666666667084 35.50000000000000000 0.00000000000000155 0.00000000000000000 -0.00000000000000000 1.00000000000000000 0.00000000000000022 1.00000000000000000 0.00000000000000000 -1.00000000000000000 0.00000000000000022 0.00000000000000000 13.12041666666666373
1 84.75575191899966399 28.45575191906160484 89.29030780645655341 -0.00000000000000033 0.00000000000000000 -1.00000000000000000 
2 9.99999999992121147 50.45575191898281275 0.00000000000000933 0.00000000000000000 0.00000000000000033 1.00000000000000000 -0.00000000000000044 -1.00000000000000000 0.00000000000000033 1.00000000000000000 -0.00000000000000044 0.00000000000000000 1.70000000001721463
1 84.75575191899964977 -41.54424808101454403 89.29030780645655341 -0.00000000000000033 0.00000000000000000 -1.00000000000000000 
2 79.99999999999737099 50.45575191898278433 0.00000000000001066 0.00000000000000000 0.00000000000000033 1.00000000000000000 -0.00000000000000044 -1.00000000000000000 0.00000000000000033 1.00000000000000000 -0.00000000000000044 0.00000000000000000 1.70000000001721463
2 79.00000000002761169 -0.00000000000001754 0.00000000000001754 0.00000000000000000 -0.00000000000000000 1.00000000000000000 -0.00000000000000022 -1.00000000000000000 0.00000000000000000 1.00000000000000000 -0.00000000000000022 -0.00000000000000000 1.69999999999999996
1 79.00000000002761169 -1.69999999999964602 -80.50000000002796696 0.00000000000000000 0.00000000000000006 1.00000000000000000 
2 10.99999999999976907 -12.49999999999996803 0.00000000000000244 0.00000000000000000 -0.00000000000000000 1.00000000000000000 -0.00000000000000022 -1.00000000000000000 0.00000000000000000 1.00000000000000000 -0.00000000000000022 -0.00000000000000000 1.69999999999999996
1 23.49999999999973710 -14.19999999999961027 -12.50000000000012612 0.00000000000000000 0.00000000000000006 1.00000000000000000 
2 10.99999999999841016 12.50000000009864642 0.00000000000000244 -0.00000000000000022 0.00000000000000000 1.00000000000000000 -0.00000000000000022 -1.00000000000000000 -0.00000000000000000 1.00000000000000000 -0.00000000000000022 0.00000000000000022 1.69999999999999996
1 -1.50000000010023671 10.80000000009864713 -12.49999999999840661 -0.00000000000000022 0.00000000000000006 1.00000000000000000 
1 90.00000000000001421 36.95575191898279144 0.00000000000001998 0.00000000000000022 1.00000000000000000 -0.00000000000000011 
1 -5.99999999999999201 35.50000000003404210 -0.00000000000000111 -0.00000000000000022 -1.00000000000000000 0.00000000000000006 
Polygon3D 0
PolygonOnTriangulations 0
Surfaces 18
1 101.45575191899835943 44.45575191898280565 0.00000000000000000 1.00000000000000000 -0.00000000000000011 -0.00000000000000011 -0.00000000000000011 -1.00000000000000000 0.00000000000000022 -0.00000000000000011 -0.00000000000000022 -1.00000000000000000 
9 0 1 0 0 2 2 3 5 2 4 101.45575191899835943 41.45575191898280565 0.53059999999999263  1.00000000000000000 101.45575191899835943 41.45575191898280565 0.51529999999998921  1.00000000000000000 101.45575191899835943 41.45575191898280565 0.25000000000000000  1.00000000000000000 101.45575191899835943 41.45575191898280565 -0.01529999999998921  1.00000000000000000 101.45575191899835943 41.45575191898280565 -0.03059999999998553  1.00000000000000000 
101.45575191899835943 44.45575191898280565 0.53059999999999974  0.70710678118654757 101.45575191899835943 44.45575191898280565 0.51529999999999632  0.70710678118654757 101.45575191899835943 44.45575191898280565 0.24999999999999289  0.70710678118654757 101.45575191899835943 44.45575191898280565 -0.01530000000000342  0.70710678118654757 101.45575191899835943 44.45575191898280565 -0.03059999999999974  0.70710678118654757 
98.45575191899835943 44.45575191898280565 0.53059999999999974  1.00000000000000000 98.45575191899835943 44.45575191898280565 0.51529999999999632  1.00000000000000000 98.45575191899835943 44.45575191898280565 0.24999999999999289  1.00000000000000000 98.45575191899835943 44.45575191898280565 -0.01530000000000342  1.00000000000000000 98.45575191899835943 44.45575191898280565 -0.03059999999999974  1.00000000000000000 

0.00000000000000000 3
0.50000000000001699 3

-0.03060000000010848 3
-0.00000000000011369 1
0.49999999999990330 1
0.53059999999989771 3

9 0 1 0 0 2 2 3 5 2 4 101.45575191899834522 -48.54424808101720146 0.53060000000000684  1.00000000000000000 101.45575191899834522 -48.54424808101720146 0.51530000000000342  1.00000000000000000 101.45575191899834522 -48.54424808101720146 0.25000000000001421  1.00000000000000000 101.45575191899834522 -48.54424808101720146 -0.01529999999997500  1.00000000000000000 101.45575191899834522 -48.54424808101720146 -0.03059999999997842  1.00000000000000000 
101.45575191899834522 -51.54424808101720146 0.53060000000002105  0.70710678118654757 101.45575191899834522 -51.54424808101720146 0.51530000000001763  0.70710678118654757 101.45575191899834522 -51.54424808101720146 0.24999999999999289  0.70710678118654757 101.45575191899834522 -51.54424808101720146 -0.01530000000002474  0.70710678118654757 101.45575191899834522 -51.54424808101720146 -0.03060000000002105  0.70710678118654757 
98.45575191899834522 -51.54424808101720146 0.53060000000002105  1.00000000000000000 98.45575191899834522 -51.54424808101720146 0.51530000000001763  1.00000000000000000 98.45575191899834522 -51.54424808101720146 0.25000000000000000  1.00000000000000000 98.45575191899834522 -51.54424808101720146 -0.01530000000003184  1.00000000000000000 98.45575191899834522 -51.54424808101720146 -0.03060000000003527  1.00000000000000000 

0.00000000000000000 3
0.50000000000003886 3

-0.03060000000010095 3
-0.00000000000010640 1
0.49999999999993250 1
0.53059999999993246 3

1 43.52356765281694351 14.82742342779868672 0.50000000000000888 -0.00000000000000022 0.00000000000000000 1.00000000000000000 0.00000000000000022 1.00000000000000000 0.00000000000000000 -1.00000000000000000 0.00000000000000022 -0.00000000000000022 
2 7.12041666666667084 35.50000000000000000 615.96366788148020532 0.00000000000000000 0.00000000000000000 1.00000000000000000 0.00000000000000022 1.00000000000000000 -0.00000000000000000 1.00000000000000000 -0.00000000000000022 -0.00000000000000000 13.12041666666666373
2 -13.12041666666666018 18.80000000000000426 615.96366788148020532 0.00000000000000000 0.00000000000000000 1.00000000000000000 0.00000000000000022 1.00000000000000000 -0.00000000000000000 1.00000000000000000 -0.00000000000000022 -0.00000000000000000 13.12041666666666373
2 3.00000000000044542 -34.49999999999767653 615.96366788148020532 0.00000000000000000 0.00000000000000000 1.00000000000000000 0.00000000000000022 1.00000000000000000 -0.00000000000000000 1.00000000000000000 -0.00000000000000022 -0.00000000000000000 3.00000000000000000
9 0 1 0 0 2 2 3 5 2 4 86.99999999999998579 -37.49999999999769784 0.53059999999999086  1.00000000000000000 86.99999999999998579 -37.49999999999769784 0.51529999999998921  1.00000000000000000 86.99999999999998579 -37.49999999999769784 0.24999999999998423  1.00000000000000000 86.99999999999998579 -37.49999999999769784 -0.01530000000002096  1.00000000000000000 86.99999999999998579 -37.49999999999769784 -0.03060000000002261  1.00000000000000000 
89.99999999999998579 -37.49999999999769784 0.53060000000003082  0.70710678118654757 89.99999999999998579 -37.49999999999769784 0.51530000000003051  0.70710678118654757 89.99999999999998579 -37.49999999999769784 0.24999999999999756  0.70710678118654757 89.99999999999998579 -37.49999999999769784 -0.01530000000003584  0.70710678118654757 89.99999999999998579 -37.49999999999769784 -0.03060000000003571  0.70710678118654757 
89.99999999999998579 -34.49999999999769784 0.53060000000009211  1.00000000000000000 89.99999999999998579 -34.49999999999769784 0.51530000000009046  1.00000000000000000 89.99999999999998579 -34.49999999999769784 0.25000000000008482  1.00000000000000000 89.99999999999998579 -34.49999999999769784 -0.01529999999992038  1.00000000000000000 89.99999999999998579 -34.49999999999769784 -0.03059999999992202  1.00000000000000000 

0.00000000000000000 3
0.50000000000006639 3

-0.03060000000001291 3
-0.00000000000001286 1
0.50000000000005351 1
0.53060000000005336 3

2 86.45575191901689038 28.45575191906160484 89.29030780645655341 0.00000000000000033 -0.00000000000000000 1.00000000000000000 -1.00000000000000000 0.00000000000000033 0.00000000000000033 -0.00000000000000033 -1.00000000000000000 0.00000000000000000 1.70000000001721463
2 86.45575191901686196 -41.54424808101454403 89.29030780645655341 0.00000000000000033 -0.00000000000000000 1.00000000000000000 -1.00000000000000000 0.00000000000000033 0.00000000000000033 -0.00000000000000033 -1.00000000000000000 0.00000000000000000 1.70000000001721463
2 79.00000000002761169 0.00000000000035394 -80.50000000002796696 0.00000000000000000 -0.00000000000000000 1.00000000000000000 -0.00000000000000022 -1.00000000000000000 0.00000000000000000 -1.00000000000000000 0.00000000000000022 0.00000000000000000 1.69999999999999996
2 23.49999999999973710 -12.49999999999961098 -12.50000000000012612 0.00000000000000000 -0.00000000000000000 1.00000000000000000 -0.00000000000000022 -1.00000000000000000 0.00000000000000000 -1.00000000000000000 0.00000000000000022 0.00000000000000000 1.69999999999999996
2 -1.50000000010023626 12.50000000009864642 -12.49999999999840661 -0.00000000000000022 0.00000000000000000 1.00000000000000000 -0.00000000000000022 -1.00000000000000000 -0.00000000000000000 -1.00000000000000000 0.00000000000000022 -0.00000000000000022 1.69999999999999996
1 -6.00000000000000888 -37.49999999999767653 -0.00000000000000133 -0.00000000000000022 -1.00000000000000000 0.00000000000000000 -1.00000000000000000 0.00000000000000022 -0.00000000000000022 0.00000000000000022 -0.00000000000000000 -1.00000000000000000 
1 -0.00000000000000766 -34.49999999999645439 615.96366788148020532 1.00000000000000000 -0.00000000000000022 0.00000000000000000 0.00000000000000022 1.00000000000000000 0.00000000000000000 -0.00000000000000000 0.00000000000000000 1.00000000000000000 
1 43.52356765281689377 14.82742342779869027 0.00000000000000977 0.00000000000000022 -0.00000000000000000 -1.00000000000000000 -0.00000000000000022 -1.00000000000000000 -0.00000000000000000 -1.00000000000000000 0.00000000000000022 -0.00000000000000022 
1 -5.99999999999998757 48.97787595949932182 0.25000000000000089 -1.00000000000000000 0.00000000000000022 -0.00000000000000022 0.00000000000000022 0.00000000000000000 -1.00000000000000000 -0.00000000000000022 -1.00000000000000000 -0.00000000000000000 
1 90.00000000000000000 13.97787595948332040 0.25000000000001976 1.00000000000000000 -0.00000000000000022 0.00000000000000022 0.00000000000000022 1.00000000000000000 0.00000000000000000 -0.00000000000000022 0.00000000000000000 1.00000000000000000 
Triangulations 0

TShapes 128
Ve
0.001000000000000
0.499999999999984 -2.999999999999986 63.955751918964324
0 0

0101101
*
Ve
0.001000000000000
0.500000000000024 87.000000000000014 63.955751918964310
0 0

0101101
*
Ed
 0.000000100000000 1 1 0
1  1 0 3.000000000000000 93.000000000000000
0

0101000
+128 18 -127 18 *
Ve
0.001000000000000
-0.000000000000016 -2.999999999999986 63.955751918964324
0 0

0101101
*
Ed
 0.000000100000000 1 1 0
1  2 0 -0.000000000000114 0.499999999999903
2  1 2 21 -0.000000000000114 0.499999999999903
4 G1 1 14 2 21
0

0101000
+128 18 -125 18 *
Ve
0.001000000000000
0.000000000000024 87.000000000000014 63.955751918964310
0 0

0101101
*
Ed
 0.000000100000000 1 1 0
1  3 0 -0.000000000000106 0.499999999999932
2  2 3 24 -0.000000000000106 0.499999999999932
4 G1 1 14 3 24
0

0101000
+127 18 -123 18 *
Ed
 0.000000100000000 1 1 0
1  4 0 3.000000000000000 93.000000000000000
0

0101000
+125 18 -123 18 *
Wi

0101100
+126 16 -124 16 +122 16 -121 16 *
Fa
0  0.000000100000000 1 0

0111000
+120 15 *
Ve
0.001000000000000
0.499999999999983 -5.999999999999987 60.955751918964317
0 0

0101101
*
Ed
 0.000000100000000 1 1 0
1  5 0 0.000000000000000 1.000000000000000
2  3 2 21 0.000000000000000 1.000000000000000
0

0101000
+128 18 -118 18 *
Ve
0.001000000000000
-0.000000000000017 -5.999999999999987 60.955751918964317
0 0

0101101
*
Ed
 0.000000100000000 1 1 0
1  6 0 -0.000000000000114 0.499999999999896
2  4 2 21 -0.000000000000114 0.499999999999896
0

0101000
+118 18 -116 18 *
Ed
 0.000000100000000 1 1 0
1  7 0 0.000000000000000 1.000000000000000
2  5 2 21 0.000000000000000 1.000000000000000
0

0101000
+125 18 -116 18 *
Wi

0101100
+117 25 -124 25 +115 25 -114 25 *
Fa
0  0.000000100000000 2 0

0111000
+113 0 *
Ve
0.001000000000000
0.500000000000026 90.000000000000014 60.955751918964296
0 0

0101101
*
Ed
 0.000000100000000 1 1 0
1  8 0 0.000000000000000 1.000000000000000
2  6 3 24 0.000000000000000 1.000000000000000
0

0101000
+127 18 -111 18 *
Ve
0.001000000000000
0.000000000000026 90.000000000000014 60.955751918964296
0 0

0101101
*
Ed
 0.000000100000000 1 1 0
1  9 0 -0.000000000000106 0.499999999999883
2  7 3 24 -0.000000000000106 0.499999999999883
0

0101000
+111 18 -109 18 *
Ed
 0.000000100000000 1 1 0
1  10 0 0.000000000000000 1.000000000000000
2  8 3 24 0.000000000000000 1.000000000000000
0

0101000
+123 18 -109 18 *
Wi

0101100
+110 26 -122 26 +108 26 -107 26 *
Fa
0  0.000000100000000 3 0

0111000
+106 0 *
Ve
0.001000050001000
0.499999999999989 -5.999999999999993 34.000000000034042
0 0

0101101
*
Ed
 0.000000100000000 1 1 0
1  11 0 -1.455751918948771 25.499999999981505
0

0101000
+104 18 -118 18 *
Ve
0.001000000000003
0.499999999999993 -2.999999999999994 25.649999999999999
0 0

0101101
*
Ed
 0.000000100000000 1 1 0
1  12 0 1.570796326794897 2.260634953665569
2  9 5 11 1.570796326794897 2.260634953665569
0

0101000
+104 18 -102 18 *
Ve
0.001000050000000
0.499999999999996 0.000000000000004 17.300000000000004
0 0

0101101
*
Ed
 0.000000100000000 1 1 0
1  13 0 4.712388980384690 5.402227607255361
2  10 6 11 4.712388980384690 5.402227607255361
0

0101000
+100 18 -102 18 *
Ve
0.001000050000226
0.500000000000008 0.000000000000219 -35.999999999996454
0 0

0101101
*
Ed
 0.000000100000000 1 1 0
1  14 0 1.500000000000611 54.799999999997070
0

0101000
+98 18 -100 18 *
Ve
0.001000050001000
0.500000000000010 3.000000000000446 -38.999999999997677
0 0

0101101
*
Ed
 0.000000100000000 1 1 0
1  15 0 1.570796326794489 3.141592653589793
2  11 7 11 1.570796326794489 3.141592653589793
0

0101000
+98 18 -96 18 *
Ve
0.001000000000000
0.500000000000047 86.999999999999986 -38.999999999997698
0 0

0101101
*
Ed
 0.000000100000000 1 1 0
1  16 0 9.000000000000455 93.000000000000000
0

0101000
+96 18 -94 18 *
Ve
0.001000000000000
0.500000000000048 89.999999999999986 -35.999999999997698
0 0

0101101
*
Ed
 0.000000100000000 1 1 0
1  17 0 0.000000000000000 1.000000000000000
2  12 8 27 0.000000000000000 1.000000000000000
0

0101000
+94 18 -92 18 *
Ed
 0.000000100000000 1 1 0
1  18 0 3.000000000000000 99.955751918961994
0

0101000
+92 18 -111 18 *
Wi

0101000
-126 0 +117 0 -103 0 +101 0 -99 0 -97 0 +95 0 +93 0 +91 0 +90 0 
-110 0 *
Ve
0.001000000000005
0.500000000000001 9.999999999921211 47.255751918965601
0 0

0101101
*
Ed
 0.000000100000000 1 1 0
1  19 0 0.000000000000000 6.283185307179586
2  13 9 30 0.000000000000000 6.283185307179586
0

0101000
+88 18 -88 18 *
Wi

0101100
-87 0 *
Ve
0.001000000000020
0.500000000000018 79.999999999997371 47.255751918965572
0 0

0101101
*
Ed
 0.000000100000000 1 1 0
1  20 0 0.000000000000000 6.283185307179586
2  14 10 33 0.000000000000000 6.283185307179586
0

0101000
+85 18 -85 18 *
Wi

0101100
-84 0 *
Ve
0.001000000000000
0.500000000000036 79.000000000027612 -3.200000000000017
0 0

0101101
*
Ed
 0.000000100000000 1 1 0
1  21 0 0.000000000000000 6.283185307179586
2  15 11 35 0.000000000000000 6.283185307179586
0

0101000
+82 18 -82 18 *
Wi

0101100
-81 0 *
Ve
0.001000000000000
0.500000000000008 10.999999999999769 -15.699999999999967
0 0

0101101
*
Ed
 0.000000100000000 1 1 0
1  22 0 0.000000000000000 6.283185307179586
2  16 12 37 0.000000000000000 6.283185307179586
0

0101000
+79 18 -79 18 *
Wi

0101100
-78 0 *
Ve
0.001000000000000
0.500000000000002 10.999999999998410 9.300000000098647
0 0

0101101
*
Ed
 0.000000100000000 1 1 0
1  23 0 0.000000000000000 6.283185307179586
2  17 13 39 0.000000000000000 6.283185307179586
0

0101000
+76 18 -76 18 *
Wi

0101100
-75 0 *
Fa
0  0.000000100000000 4 0

0111000
+89 0 +86 0 +83 0 +80 0 +77 0 +74 0 *
Ve
0.001000000000000
0.000000000000047 86.999999999999986 -38.999999999997698
0 0

0101101
*
Ed
 0.000000100000000 1 1 0
1  24 0 -0.000000000000013 0.500000000000012
2  18 8 27 -0.000000000000013 0.500000000000012
4 G1 8 27 14 41
0

0101000
+94 18 -72 18 *
Ve
0.001000000000000
0.000000000000048 89.999999999999986 -35.999999999997698
0 0

0101101
*
Ed
 0.000000100000000 1 1 0
1  25 0 0.000000000000059 0.500000000000054
2  19 8 27 0.000000000000059 0.500000000000054
0

0101000
+92 18 -70 18 *
Ed
 0.000000100000000 1 1 0
1  26 0 0.000000000000000 1.000000000000000
2  20 8 27 0.000000000000000 1.000000000000000
0

0101000
+72 18 -70 18 *
Wi

0101100
+91 40 -71 40 +69 40 -68 40 *
Fa
0  0.000000100000000 8 0

0111000
+67 0 *
Ve
0.001000050001000
0.000000000000010 3.000000000000446 -38.999999999997677
0 0

0101101
*
Ed
 0.000000100000000 1 1 0
1  27 0 9.000000000000455 93.000000000000000
0

0101000
+65 18 -72 18 *
Ed
 0.000000100000000 1 1 0
1  28 0 615.463667881480205 615.963667881480205
2  21 7 11 615.463667881480205 615.963667881480205
4 G1 14 41 7 11
0

0101000
+96 18 -65 18 *
Wi

0101100
-93 43 -71 43 +64 43 +63 43 *
Fa
0  0.000000100000000 14 42

0111000
+62 0 *
Ve
0.001000050000227
0.000000000000008 0.000000000000219 -35.999999999996454
0 0

0101101
*
Ed
 0.000000100000000 1 1 0
1  29 0 615.463667881480205 615.963667881480205
2  22 7 11 615.463667881480205 615.963667881480205
4 G1 7 11 15 11
0

0101000
+98 18 -60 18 *
Ed
 0.000000100000000 1 1 0
1  30 0 1.570796326794489 3.141592653589793
2  23 7 11 1.570796326794489 3.141592653589793
0

0101000
+60 18 -65 18 *
Wi

0101100
+95 43 -59 43 -58 43 +63 43 *
Fa
0  0.000000500000000 7 0

0111000
+57 0 *
Ve
0.001000050000000
-0.000000000000004 0.000000000000004 17.300000000000004
0 0

0101101
*
Ed
 0.000000100000000 1 1 0
1  31 0 615.463667881480205 615.963667881480205
2  24 6 11 615.463667881480205 615.963667881480205
4 G1 15 11 6 11
0

0101000
+100 18 -55 18 *
Ed
 0.000000100000000 1 1 0
1  32 0 1.500000000000611 54.799999999997070
0

0101000
+60 18 -55 18 *
Wi

0101100
-97 43 -54 43 +53 43 +59 43 *
Fa
0  0.000000500000000 15 0

0111000
+52 0 *
Ve
0.001000000000003
-0.000000000000007 -2.999999999999994 25.649999999999999
0 0

0101101
*
Ed
 0.000000100000000 1 1 0
1  33 0 4.712388980384690 5.402227607255361
2  25 6 11 4.712388980384690 5.402227607255361
0

0101000
+55 18 -50 18 *
Ed
 0.000000100000000 1 1 0
1  34 0 615.463667881480205 615.963667881480205
2  26 6 11 615.463667881480205 615.963667881480205
2  27 5 11 615.463667881480205 615.963667881480205
4 C1 6 11 5 11
0

0101000
+102 18 -50 18 *
Wi

0101100
+99 43 -54 43 -49 43 +48 43 *
Fa
0  0.000000500000000 6 0

0111000
+47 0 *
Ve
0.001000050001000
-0.000000000000010 -5.999999999999992 34.000000000034042
0 0

0101101
*
Ed
 0.000000100000000 1 1 0
1  35 0 0.000000000000000 0.500000000000000
2  28 5 11 0.000000000000000 0.500000000000000
0

0101000
+45 18 -104 18 *
Ed
 0.000000100000000 1 1 0
1  36 0 1.570796326794897 2.260634953665569
2  29 5 11 1.570796326794897 2.260634953665569
0

0101000
+45 18 -50 18 *
Wi

0101100
+101 43 +44 43 -43 43 +48 43 *
Fa
0  0.000000500000000 5 0

0111000
+42 0 *
Ve
0.001000000000005
0.000000000000001 9.999999999921211 47.255751918965601
0 0

0101101
*
Ed
 0.001000000000003 1 1 0
1  37 0 88.790307806456553 89.290307806456553
3  30 31CN 9 0 88.790307806456553 89.290307806456553
0

0101000
+88 45 -40 45 *
Ed
 0.000000100000000 1 1 0
1  38 0 0.000000000000000 6.283185307179586
2  32 9 30 0.000000000000000 6.283185307179586
0

0101000
+40 18 -40 18 *
Wi

0101100
-87 44 -39 0 +38 44 +39 0 *
Fa
0  0.001000000000003 9 0

0111000
+37 0 *
Ve
0.001000000000020
0.000000000000018 79.999999999997371 47.255751918965572
0 0

0101101
*
Ed
 0.001000000000018 1 1 0
1  39 0 88.790307806456553 89.290307806456553
3  33 34CN 10 0 88.790307806456553 89.290307806456553
0

0101000
+85 47 -35 47 *
Ed
 0.000000100000000 1 1 0
1  40 0 0.000000000000000 6.283185307179586
2  35 10 33 0.000000000000000 6.283185307179586
0

0101000
+35 18 -35 18 *
Wi

0101100
-84 46 -34 0 +33 46 +34 0 *
Fa
0  0.001000000000018 10 0

0111000
+32 0 *
Ve
0.001000000000000
0.000000000000035 79.000000000027612 -3.200000000000017
0 0

0101101
*
Ed
 0.000000100000000 1 1 0
1  41 0 0.000000000000000 6.283185307179586
2  36 11 35 0.000000000000000 6.283185307179586
0

0101000
+30 18 -30 18 *
Ed
 0.000000100000000 1 1 0
1  42 0 1.500000000000371 2.000000000000372
3  37 38CN 11 0 1.500000000000371 2.000000000000372
0

0101000
+30 50 -82 50 *
Wi

0101100
-29 49 -28 34 +81 49 +28 34 *
Fa
0  0.000000100000000 11 34

0111000
+27 0 *
Ve
0.001000000000000
0.000000000000008 10.999999999999769 -15.699999999999967
0 0

0101101
*
Ed
 0.000000100000000 1 1 0
1  43 0 0.000000000000000 6.283185307179586
2  39 12 37 0.000000000000000 6.283185307179586
0

0101000
+25 18 -25 18 *
Ed
 0.000000100000000 1 1 0
1  44 0 1.500000000000356 2.000000000000356
3  40 41CN 12 0 1.500000000000356 2.000000000000356
0

0101000
+25 51 -79 51 *
Wi

0101100
-24 49 -23 36 +78 49 +23 36 *
Fa
0  0.000000100000000 12 36

0111000
+22 0 *
Ve
0.001000000000000
0.000000000000002 10.999999999998410 9.300000000098647
0 0

0101101
*
Ed
 0.000000100000000 1 1 0
1  45 0 0.000000000000000 6.283185307179586
2  42 13 39 0.000000000000000 6.283185307179586
0

0101000
+20 18 -20 18 *
Ed
 0.000000100000000 1 1 0
1  46 0 1.500000000000000 2.000000000000000
3  43 44CN 13 0 1.500000000000000 2.000000000000000
0

0101000
+20 54 -76 54 *
Wi

0101100
-19 53 -18 38 +75 53 +18 38 *
Fa
0  0.000000100000000 13 38

0111000
+17 0 *
Ed
 0.000000100000000 1 1 0
1  47 0 -71.455751918980496 25.499999999981505
0

0101000
+70 18 -109 18 *
Ed
 0.000000100000000 1 1 0
1  48 0 -26.955751918930275 0.000000000000000
0

0101000
+116 18 -45 18 *
Wi

0101000
+121 0 +107 0 -15 0 -68 0 -64 0 -58 0 +53 0 +49 0 -43 0 -14 0 
-114 0 *
Wi

0101100
+38 0 *
Wi

0101100
+33 0 *
Wi

0101100
+29 0 *
Wi

0101100
+24 0 *
Wi

0101100
+19 0 *
Fa
0  0.000000100000000 16 0

0111000
+13 0 +12 0 +11 0 +10 0 +9 0 +8 0 *
Wi

0101000
+103 0 +115 0 +14 0 +44 0 *
Fa
0  0.000000100000000 17 0

0111000
+6 0 *
Wi

0101000
-90 0 +69 0 +15 0 -108 0 *
Fa
0  0.000000100000000 18 0

0111000
+4 0 *
Sh

0101000
+119 14 -112 21 +105 24 +73 0 -66 27 +61 11 -56 11 -51 11 +46 11 -41 11 
-36 30 -31 33 +26 48 +21 48 +16 52 +7 0 +5 0 +3 0 *
So

0100000
+2 0 *

+1 1 