
CASCADE Topology V1, (c) Matra-Datavision
Locations 54
1
1.000000000000000 0.000000000000000 0.000000000000000 0.000000000000000 
0.000000000000000 1.000000000000000 0.000000000000000 0.000000000000000 
0.000000000000000 0.000000000000000 1.000000000000000 0.000000000000000 
1
0.000000000000000 -0.000000000000000 1.000000000000000 0.000000000000002 
1.000000000000000 0.000000000000000 -0.000000000000000 -0.000000000000002 
-0.000000000000000 1.000000000000000 0.000000000000000 -6.999999999999998 
1
1.000000000000000 0.000000000000000 0.000000000000000 0.000000000000000 
0.000000000000000 1.000000000000000 0.000000000000000 0.000000000000000 
0.000000000000000 0.000000000000000 1.000000000000000 0.000000000000000 
1
1.000000000000000 0.000000000000000 0.000000000000000 278.427691239575211 
0.000000000000000 1.000000000000000 0.000000000000000 -0.000000000000062 
0.000000000000000 0.000000000000000 1.000000000000000 0.000000000000077 
2  1 1 2 1 3 -1 4 1 0
1
1.000000000000000 0.000000000000000 0.000000000000000 -556.855382479150421 
0.000000000000000 1.000000000000000 0.000000000000000 0.000000000000124 
0.000000000000000 0.000000000000000 1.000000000000000 -0.000000000000155 
2  1 1 2 1 3 -1 4 1 6 1 0
1
1.000000000000000 0.000000000000000 0.000000000000000 0.000000000000000 
0.000000000000000 1.000000000000000 0.000000000000000 0.000000000000000 
0.000000000000000 0.000000000000000 1.000000000000000 0.000000000000000 
1
0.000000000000000 -0.000000000000000 1.000000000000000 0.000000000000002 
1.000000000000000 0.000000000000000 -0.000000000000000 -0.000000000000002 
-0.000000000000000 1.000000000000000 0.000000000000000 -6.999999999999998 
1
1.000000000000000 0.000000000000000 0.000000000000000 0.000000000000000 
0.000000000000000 1.000000000000000 0.000000000000000 0.000000000000000 
0.000000000000000 0.000000000000000 1.000000000000000 0.000000000000000 
2  8 1 9 -1 10 -1 0
1
1.000000000000000 0.000000000000000 0.000000000000000 -5.000000000000000 
0.000000000000000 1.000000000000000 0.000000000000000 0.000000000000001 
0.000000000000000 0.000000000000000 1.000000000000000 -0.000000000000001 
2  12 -1 8 1 9 -1 10 -1 0
1
1.000000000000000 0.000000000000000 0.000000000000000 0.000000000000000 
0.000000000000000 1.000000000000000 0.000000000000000 0.000000000000000 
0.000000000000000 0.000000000000000 1.000000000000000 0.000000000000000 
1
0.000000000000000 -0.000000000000000 1.000000000000000 0.000000000000002 
1.000000000000000 0.000000000000000 -0.000000000000000 -0.000000000000002 
-0.000000000000000 1.000000000000000 0.000000000000000 -6.999999999999998 
1
1.000000000000000 0.000000000000000 0.000000000000000 0.000000000000000 
0.000000000000000 1.000000000000000 0.000000000000000 0.000000000000000 
0.000000000000000 0.000000000000000 1.000000000000000 0.000000000000000 
2  14 1 15 -1 16 -1 0
1
1.000000000000000 0.000000000000000 0.000000000000000 -5.000000000000000 
0.000000000000000 1.000000000000000 0.000000000000000 0.000000000000001 
0.000000000000000 0.000000000000000 1.000000000000000 -0.000000000000001 
2  18 -1 14 1 15 -1 16 -1 0
1
1.000000000000000 0.000000000000000 0.000000000000000 0.000000000000000 
0.000000000000000 1.000000000000000 0.000000000000000 0.000000000000000 
0.000000000000000 0.000000000000000 1.000000000000000 0.000000000000000 
1
0.000000000000000 -0.000000000000000 1.000000000000000 0.000000000000002 
1.000000000000000 0.000000000000000 -0.000000000000000 -0.000000000000002 
-0.000000000000000 1.000000000000000 0.000000000000000 -6.999999999999998 
1
1.000000000000000 0.000000000000000 0.000000000000000 0.000000000000000 
0.000000000000000 1.000000000000000 0.000000000000000 0.000000000000000 
0.000000000000000 0.000000000000000 1.000000000000000 0.000000000000000 
2  20 1 21 -1 22 -1 0
1
1.000000000000000 0.000000000000000 0.000000000000000 -556.855382479150421 
0.000000000000000 1.000000000000000 0.000000000000000 0.000000000000124 
0.000000000000000 0.000000000000000 1.000000000000000 -0.000000000000155 
2  24 -1 20 1 21 -1 22 -1 0
1
1.000000000000000 0.000000000000000 0.000000000000000 278.427691239575211 
0.000000000000000 1.000000000000000 0.000000000000000 -0.000000000000062 
0.000000000000000 0.000000000000000 1.000000000000000 0.000000000000077 
1
1.000000000000000 0.000000000000000 0.000000000000000 0.000000000000000 
0.000000000000000 1.000000000000000 0.000000000000000 0.000000000000000 
0.000000000000000 0.000000000000000 1.000000000000000 0.000000000000000 
1
0.000000000000000 -0.000000000000000 1.000000000000000 0.000000000000002 
1.000000000000000 0.000000000000000 -0.000000000000000 -0.000000000000002 
-0.000000000000000 1.000000000000000 0.000000000000000 -6.999999999999998 
1
1.000000000000000 0.000000000000000 0.000000000000000 0.000000000000000 
0.000000000000000 1.000000000000000 0.000000000000000 0.000000000000000 
0.000000000000000 0.000000000000000 1.000000000000000 0.000000000000000 
2  26 -1 27 1 28 -1 29 -1 0
1
1.000000000000000 0.000000000000000 0.000000000000000 -556.855382479150421 
0.000000000000000 1.000000000000000 0.000000000000000 0.000000000000124 
0.000000000000000 0.000000000000000 1.000000000000000 -0.000000000000155 
2  31 -1 26 -1 27 1 28 -1 29 -1 0
2  4 -1 3 1 2 -1 1 -1 0
2  6 -1 4 -1 3 1 2 -1 1 -1 0
1
1.000000000000000 0.000000000000000 0.000000000000000 1487.149440473208642 
0.000000000000000 1.000000000000000 0.000000000000000 -0.000000000000330 
0.000000000000000 0.000000000000000 1.000000000000000 0.000000000000330 
1
1.000000000000000 0.000000000000000 0.000000000000000 0.000000000000000 
0.000000000000000 1.000000000000000 0.000000000000000 0.000000000000000 
0.000000000000000 0.000000000000000 1.000000000000000 0.000000000000000 
1
1.000000000000000 0.000000000000000 0.000000000000000 0.000000000000000 
0.000000000000000 1.000000000000000 0.000000000000000 173.000000000000000 
0.000000000000000 0.000000000000000 1.000000000000000 1428.000000000000000 
1
1.000000000000000 0.000000000000000 0.000000000000000 0.000000000000000 
0.000000000000000 1.000000000000000 0.000000000000000 0.000000000000000 
0.000000000000000 0.000000000000000 1.000000000000000 0.000000000000000 
1
1.000000000000000 0.000000000000000 0.000000000000000 0.000000000000000 
0.000000000000000 1.000000000000000 0.000000000000000 0.000000000000000 
0.000000000000000 0.000000000000000 1.000000000000000 0.000000000000000 
1
0.000000000000000 -0.000000000000000 1.000000000000000 0.000000000000002 
1.000000000000000 0.000000000000000 -0.000000000000000 -0.000000000000002 
-0.000000000000000 1.000000000000000 0.000000000000000 -6.999999999999998 
1
1.000000000000000 0.000000000000000 0.000000000000000 0.000000000000000 
0.000000000000000 1.000000000000000 0.000000000000000 0.000000000000000 
0.000000000000000 0.000000000000000 1.000000000000000 0.000000000000000 
2  35 -1 36 1 37 -1 38 -1 39 -1 40 -1 41 -1 0
1
1.000000000000000 0.000000000000000 0.000000000000000 -2974.298880946417285 
0.000000000000000 1.000000000000000 0.000000000000000 0.000000000000660 
0.000000000000000 0.000000000000000 1.000000000000000 -0.000000000000660 
2  43 -1 35 -1 36 1 37 -1 38 -1 39 -1 40 -1 41 -1 0
1
1.000000000000000 0.000000000000000 0.000000000000000 1487.149440473208642 
0.000000000000000 1.000000000000000 0.000000000000000 -0.000000000000330 
0.000000000000000 0.000000000000000 1.000000000000000 0.000000000000330 
1
1.000000000000000 0.000000000000000 0.000000000000000 0.000000000000000 
0.000000000000000 1.000000000000000 0.000000000000000 0.000000000000000 
0.000000000000000 0.000000000000000 1.000000000000000 0.000000000000000 
1
1.000000000000000 0.000000000000000 0.000000000000000 0.000000000000000 
0.000000000000000 1.000000000000000 0.000000000000000 173.000000000000000 
0.000000000000000 0.000000000000000 1.000000000000000 1428.000000000000000 
1
1.000000000000000 0.000000000000000 0.000000000000000 0.000000000000000 
0.000000000000000 1.000000000000000 0.000000000000000 0.000000000000000 
0.000000000000000 0.000000000000000 1.000000000000000 0.000000000000000 
2  45 -1 46 1 47 -1 48 -1 39 -1 40 -1 41 -1 0
1
1.000000000000000 0.000000000000000 0.000000000000000 -2974.298880946417285 
0.000000000000000 1.000000000000000 0.000000000000000 0.000000000000660 
0.000000000000000 0.000000000000000 1.000000000000000 -0.000000000000660 
2  50 -1 45 -1 46 1 47 -1 48 -1 39 -1 40 -1 41 -1 0
2  3 -1 4 1 0
2  1 1 2 1 0
2  3 -1 4 1 6 1 0
Curve2ds 48
1 0.00000000000000000 0.00000000000000000 0.00000000000000000 -1.00000000000000000 
1 6.28318530717958623 0.00000000000000000 0.00000000000000000 -1.00000000000000000 
1 0.00000000000000000 0.00000000000000000 1.00000000000000000 0.00000000000000000 
1 0.00000000000000000 -5.00000000000000000 1.00000000000000000 0.00000000000000000 
1 0.00000000000000000 0.00000000000000000 1.00000000000000000 0.00000000000000000 
1 0.00000000000000000 -5.00000000000000000 1.00000000000000000 0.00000000000000000 
1 0.00000000000000000 0.00000000000000000 1.00000000000000000 0.00000000000000000 
1 0.00000000000000000 -556.85538247915042120 1.00000000000000000 0.00000000000000000 
1 0.00000000000000000 0.00000000000000000 1.00000000000000000 0.00000000000000000 
1 0.00000000000000000 -556.85538247915042120 1.00000000000000000 0.00000000000000000 
1 0.00000000000000000 0.00000000000000000 1.00000000000000000 0.00000000000000000 
1 0.00000000000000000 -556.85538247915042120 1.00000000000000000 0.00000000000000000 
1 0.00000000000000000 0.00000000000000000 1.00000000000000000 0.00000000000000000 
1 0.00000000000000000 -2974.29888094641728458 1.00000000000000000 0.00000000000000000 
1 0.00000000000000000 0.00000000000000000 1.00000000000000000 0.00000000000000000 
1 0.00000000000000000 -2974.29888094641728458 1.00000000000000000 0.00000000000000000 
1 0.00000000000000000 0.00000000000000000 0.00000000000000000 -1.00000000000000000 
1 6.28318530717958623 0.00000000000000000 0.00000000000000000 -1.00000000000000000 
1 0.00000000000000000 0.00000000000000000 1.00000000000000000 0.00000000000000000 
1 0.00000000000000000 -5.00000000000000000 1.00000000000000000 0.00000000000000000 
1 0.00000000000000000 0.00000000000000000 1.00000000000000000 0.00000000000000000 
1 0.00000000000000000 -5.00000000000000000 1.00000000000000000 0.00000000000000000 
1 0.00000000000000000 0.00000000000000000 1.00000000000000000 0.00000000000000000 
1 0.00000000000000000 -556.85538247915042120 1.00000000000000000 0.00000000000000000 
1 0.00000000000000000 0.00000000000000000 1.00000000000000000 0.00000000000000000 
1 0.00000000000000000 -556.85538247915042120 1.00000000000000000 0.00000000000000000 
1 0.00000000000000000 0.00000000000000000 1.00000000000000000 0.00000000000000000 
1 0.00000000000000000 -556.85538247915042120 1.00000000000000000 0.00000000000000000 
1 0.00000000000000000 0.00000000000000000 1.00000000000000000 0.00000000000000000 
1 0.00000000000000000 -2974.29888094641728458 1.00000000000000000 0.00000000000000000 
1 0.00000000000000000 0.00000000000000000 1.00000000000000000 0.00000000000000000 
1 0.00000000000000000 -2974.29888094641728458 1.00000000000000000 0.00000000000000000 
1 0.00000000000000000 0.00000000000000000 0.00000000000000000 -1.00000000000000000 
1 6.28318530717958623 0.00000000000000000 0.00000000000000000 -1.00000000000000000 
1 0.00000000000000000 0.00000000000000000 1.00000000000000000 0.00000000000000000 
1 0.00000000000000000 -5.00000000000000000 1.00000000000000000 0.00000000000000000 
1 0.00000000000000000 0.00000000000000000 1.00000000000000000 0.00000000000000000 
1 0.00000000000000000 -5.00000000000000000 1.00000000000000000 0.00000000000000000 
1 0.00000000000000000 0.00000000000000000 1.00000000000000000 0.00000000000000000 
1 0.00000000000000000 -556.85538247915042120 1.00000000000000000 0.00000000000000000 
1 0.00000000000000000 0.00000000000000000 1.00000000000000000 0.00000000000000000 
1 0.00000000000000000 -556.85538247915042120 1.00000000000000000 0.00000000000000000 
1 0.00000000000000000 0.00000000000000000 1.00000000000000000 0.00000000000000000 
1 0.00000000000000000 -556.85538247915042120 1.00000000000000000 0.00000000000000000 
1 0.00000000000000000 0.00000000000000000 1.00000000000000000 0.00000000000000000 
1 0.00000000000000000 -2974.29888094641728458 1.00000000000000000 0.00000000000000000 
1 0.00000000000000000 0.00000000000000000 1.00000000000000000 0.00000000000000000 
1 0.00000000000000000 -2974.29888094641728458 1.00000000000000000 0.00000000000000000 
Curves 6
1 278.42769123957521060 124.20000000000030127 -6.99999999999994849 -1.00000000000000000 0.00000000000000022 -0.00000000000000028 
2 122.50000000000027001 -0.00000000000000000 0.00000000000000000 0.00000000000000000 0.00000000000000000 1.00000000000000000 1.00000000000000000 0.00000000000000000 -0.00000000000000000 -0.00000000000000000 1.00000000000000000 0.00000000000000000 1.70000000000008367
1 278.42769123957521060 -120.80000000000023874 -6.99999999999989431 -1.00000000000000000 0.00000000000000022 -0.00000000000000028 
2 -122.50000000000027001 -0.00000000000000000 0.00000000000000000 0.00000000000000000 0.00000000000000000 1.00000000000000000 1.00000000000000000 0.00000000000000000 -0.00000000000000000 -0.00000000000000000 1.00000000000000000 0.00000000000000000 1.70000000000008367
1 278.42769123957521060 1.70000000000002038 -6.99999999999992095 -1.00000000000000000 0.00000000000000022 -0.00000000000000028 
2 0.00000000000000000 -0.00000000000000000 0.00000000000000000 0.00000000000000000 0.00000000000000000 1.00000000000000000 1.00000000000000000 0.00000000000000000 -0.00000000000000000 -0.00000000000000000 1.00000000000000000 0.00000000000000000 1.70000000000008367
Polygon3D 0
PolygonOnTriangulations 0
Surfaces 24
2 278.42769123957521060 122.50000000000021316 -6.99999999999994849 1.00000000000000000 -0.00000000000000022 0.00000000000000022 0.00000000000000022 1.00000000000000000 -0.00000000000000022 -0.00000000000000022 0.00000000000000022 1.00000000000000000 1.70000000000008367
2 0.00000000000002875 122.50000000000027001 -7.00000000000002576 1.00000000000000000 -0.00000000000000022 0.00000000000000022 0.00000000000000022 1.00000000000000000 -0.00000000000000022 -0.00000000000000022 0.00000000000000022 1.00000000000000000 1.70000000000008367
2 0.00000000000002875 122.50000000000027001 -7.00000000000002576 1.00000000000000000 -0.00000000000000022 0.00000000000000022 0.00000000000000022 1.00000000000000000 -0.00000000000000022 -0.00000000000000022 0.00000000000000022 1.00000000000000000 1.70000000000008367
2 0.00000000000002875 122.50000000000027001 -7.00000000000002576 1.00000000000000000 -0.00000000000000022 0.00000000000000022 0.00000000000000022 1.00000000000000000 -0.00000000000000022 -0.00000000000000022 0.00000000000000022 1.00000000000000000 1.70000000000008367
2 278.42769123957521060 122.50000000000021316 -6.99999999999994849 1.00000000000000000 -0.00000000000000022 0.00000000000000022 0.00000000000000022 1.00000000000000000 -0.00000000000000022 -0.00000000000000022 0.00000000000000022 1.00000000000000000 1.70000000000008367
2 1487.14944047320864229 295.49999999999994316 1421.00000000000022737 1.00000000000000000 -0.00000000000000022 0.00000000000000022 0.00000000000000022 1.00000000000000000 -0.00000000000000022 -0.00000000000000022 0.00000000000000022 1.00000000000000000 1.70000000000008367
2 1487.14944047320864229 295.49999999999994316 1421.00000000000022737 1.00000000000000000 -0.00000000000000022 0.00000000000000022 0.00000000000000022 1.00000000000000000 -0.00000000000000022 -0.00000000000000022 0.00000000000000022 1.00000000000000000 1.70000000000008367
1 0.00000000000000155 -0.00000000000000751 -6.99999999999999822 1.00000000000000000 -0.00000000000000022 0.00000000000000022 0.00000000000000022 1.00000000000000000 0.00000000000000000 -0.00000000000000022 0.00000000000000000 1.00000000000000000 
2 278.42769123957521060 -122.50000000000032685 -6.99999999999989342 1.00000000000000000 -0.00000000000000022 0.00000000000000022 0.00000000000000022 1.00000000000000000 -0.00000000000000022 -0.00000000000000022 0.00000000000000022 1.00000000000000000 1.70000000000008367
2 -0.00000000000002565 -122.50000000000027001 -6.99999999999997069 1.00000000000000000 -0.00000000000000022 0.00000000000000022 0.00000000000000022 1.00000000000000000 -0.00000000000000022 -0.00000000000000022 0.00000000000000022 1.00000000000000000 1.70000000000008367
2 -0.00000000000002565 -122.50000000000027001 -6.99999999999997069 1.00000000000000000 -0.00000000000000022 0.00000000000000022 0.00000000000000022 1.00000000000000000 -0.00000000000000022 -0.00000000000000022 0.00000000000000022 1.00000000000000000 1.70000000000008367
2 -0.00000000000002565 -122.50000000000027001 -6.99999999999997069 1.00000000000000000 -0.00000000000000022 0.00000000000000022 0.00000000000000022 1.00000000000000000 -0.00000000000000022 -0.00000000000000022 0.00000000000000022 1.00000000000000000 1.70000000000008367
2 278.42769123957521060 -122.50000000000032685 -6.99999999999989342 1.00000000000000000 -0.00000000000000022 0.00000000000000022 0.00000000000000022 1.00000000000000000 -0.00000000000000022 -0.00000000000000022 0.00000000000000022 1.00000000000000000 1.70000000000008367
2 1487.14944047320864229 50.49999999999938893 1421.00000000000022737 1.00000000000000000 -0.00000000000000022 0.00000000000000022 0.00000000000000022 1.00000000000000000 -0.00000000000000022 -0.00000000000000022 0.00000000000000022 1.00000000000000000 1.70000000000008367
2 1487.14944047320864229 50.49999999999938893 1421.00000000000022737 1.00000000000000000 -0.00000000000000022 0.00000000000000022 0.00000000000000022 1.00000000000000000 -0.00000000000000022 -0.00000000000000022 0.00000000000000022 1.00000000000000000 1.70000000000008367
1 0.00000000000000155 -0.00000000000000751 -6.99999999999999822 1.00000000000000000 -0.00000000000000022 0.00000000000000022 0.00000000000000022 1.00000000000000000 0.00000000000000000 -0.00000000000000022 0.00000000000000000 1.00000000000000000 
2 278.42769123957521060 -0.00000000000006338 -6.99999999999992095 1.00000000000000000 -0.00000000000000022 0.00000000000000022 0.00000000000000022 1.00000000000000000 -0.00000000000000022 -0.00000000000000022 0.00000000000000022 1.00000000000000000 1.70000000000008367
2 0.00000000000000155 -0.00000000000000155 -6.99999999999999822 1.00000000000000000 -0.00000000000000022 0.00000000000000022 0.00000000000000022 1.00000000000000000 -0.00000000000000022 -0.00000000000000022 0.00000000000000022 1.00000000000000000 1.70000000000008367
2 0.00000000000000155 -0.00000000000000155 -6.99999999999999822 1.00000000000000000 -0.00000000000000022 0.00000000000000022 0.00000000000000022 1.00000000000000000 -0.00000000000000022 -0.00000000000000022 0.00000000000000022 1.00000000000000000 1.70000000000008367
2 0.00000000000000155 -0.00000000000000155 -6.99999999999999822 1.00000000000000000 -0.00000000000000022 0.00000000000000022 0.00000000000000022 1.00000000000000000 -0.00000000000000022 -0.00000000000000022 0.00000000000000022 1.00000000000000000 1.70000000000008367
2 278.42769123957521060 -0.00000000000006338 -6.99999999999992095 1.00000000000000000 -0.00000000000000022 0.00000000000000022 0.00000000000000022 1.00000000000000000 -0.00000000000000022 -0.00000000000000022 0.00000000000000022 1.00000000000000000 1.70000000000008367
2 1487.14944047320864229 172.99999999999965894 1421.00000000000022737 1.00000000000000000 -0.00000000000000022 0.00000000000000022 0.00000000000000022 1.00000000000000000 -0.00000000000000022 -0.00000000000000022 0.00000000000000022 1.00000000000000000 1.70000000000008367
2 1487.14944047320864229 172.99999999999965894 1421.00000000000022737 1.00000000000000000 -0.00000000000000022 0.00000000000000022 0.00000000000000022 1.00000000000000000 -0.00000000000000022 -0.00000000000000022 0.00000000000000022 1.00000000000000000 1.70000000000008367
1 0.00000000000000155 -0.00000000000000751 -6.99999999999999822 1.00000000000000000 -0.00000000000000022 0.00000000000000022 0.00000000000000022 1.00000000000000000 0.00000000000000000 -0.00000000000000022 0.00000000000000000 1.00000000000000000 
Triangulations 0

TShapes 28
Ve
0.000000100000000
124.200000000000358 -0.000000000000000 0.000000000000000
0 0

0101101
*
Ed
 0.000000100000000 1 1 0
1  1 0 0.000000000000000 556.855382479150421
3  1 2CN 1 0 0.000000000000000 556.855382479150421
0

0101000
+28 5 -28 7 *
Ed
 0.000000100000000 1 1 0
1  2 0 0.000000000000000 6.283185307179586
2  3 2 11 0.000000000000000 6.283185307179586
2  4 2 13 0.000000000000000 6.283185307179586
2  5 3 17 0.000000000000000 6.283185307179586
2  6 3 19 0.000000000000000 6.283185307179586
2  7 4 23 0.000000000000000 6.283185307179586
2  8 4 25 0.000000000000000 6.283185307179586
2  9 5 30 0.000000000000000 6.283185307179586
2  10 5 32 0.000000000000000 6.283185307179586
2  11 1 33 0.000000000000000 6.283185307179586
2  12 1 34 0.000000000000000 6.283185307179586
2  13 6 42 0.000000000000000 6.283185307179586
2  14 6 44 0.000000000000000 6.283185307179586
2  15 7 49 0.000000000000000 6.283185307179586
2  16 7 51 0.000000000000000 6.283185307179586
0

0101100
+28 0 -28 0 *
Wi

0101100
+27 0 -27 0 -26 5 +26 7 *
Fa
0  0.000000100000000 1 0

0111000
+25 0 *
Wi

0101100
+26 0 *
Fa
0  0.000000100000000 8 0

0111000
+23 53 *
Sh

0101100
+24 0 +22 52 -22 54 *
So

0100000
+21 0 *
Ve
0.000000100000000
-120.800000000000182 -0.000000000000000 0.000000000000000
0 0

0101101
*
Ed
 0.000000100000000 1 1 0
1  3 0 0.000000000000000 556.855382479150421
3  17 18CN 9 0 0.000000000000000 556.855382479150421
0

0101000
+19 5 -19 7 *
Ed
 0.000000100000000 1 1 0
1  4 0 0.000000000000000 6.283185307179586
2  19 10 11 0.000000000000000 6.283185307179586
2  20 10 13 0.000000000000000 6.283185307179586
2  21 11 17 0.000000000000000 6.283185307179586
2  22 11 19 0.000000000000000 6.283185307179586
2  23 12 23 0.000000000000000 6.283185307179586
2  24 12 25 0.000000000000000 6.283185307179586
2  25 13 30 0.000000000000000 6.283185307179586
2  26 13 32 0.000000000000000 6.283185307179586
2  27 9 33 0.000000000000000 6.283185307179586
2  28 9 34 0.000000000000000 6.283185307179586
2  29 14 42 0.000000000000000 6.283185307179586
2  30 14 44 0.000000000000000 6.283185307179586
2  31 15 49 0.000000000000000 6.283185307179586
2  32 15 51 0.000000000000000 6.283185307179586
0

0101100
+19 0 -19 0 *
Wi

0101100
+18 0 -18 0 -17 5 +17 7 *
Fa
0  0.000000100000000 9 0

0111000
+16 0 *
Wi

0101100
+17 0 *
Fa
0  0.000000100000000 16 0

0111000
+14 53 *
Sh

0101100
+15 0 +13 52 -13 54 *
So

0100000
+12 0 *
Ve
0.000000100000000
1.700000000000084 -0.000000000000000 0.000000000000000
0 0

0101101
*
Ed
 0.000000100000000 1 1 0
1  5 0 0.000000000000000 556.855382479150421
3  33 34CN 17 0 0.000000000000000 556.855382479150421
0

0101000
+10 5 -10 7 *
Ed
 0.000000100000000 1 1 0
1  6 0 0.000000000000000 6.283185307179586
2  35 18 11 0.000000000000000 6.283185307179586
2  36 18 13 0.000000000000000 6.283185307179586
2  37 19 17 0.000000000000000 6.283185307179586
2  38 19 19 0.000000000000000 6.283185307179586
2  39 20 23 0.000000000000000 6.283185307179586
2  40 20 25 0.000000000000000 6.283185307179586
2  41 21 30 0.000000000000000 6.283185307179586
2  42 21 32 0.000000000000000 6.283185307179586
2  43 17 33 0.000000000000000 6.283185307179586
2  44 17 34 0.000000000000000 6.283185307179586
2  45 22 42 0.000000000000000 6.283185307179586
2  46 22 44 0.000000000000000 6.283185307179586
2  47 23 49 0.000000000000000 6.283185307179586
2  48 23 51 0.000000000000000 6.283185307179586
0

0101100
+10 0 -10 0 *
Wi

0101100
+9 0 -9 0 -8 5 +8 7 *
Fa
0  0.000000100000000 17 0

0111000
+7 0 *
Wi

0101100
+8 0 *
Fa
0  0.000000100000000 24 0

0111000
+5 53 *
Sh

0101100
+6 0 +4 52 -4 54 *
So

0100000
+3 0 *
Co

1100000
+20 0 +11 0 +2 0 *

+1 0 