
CASCADE Topology V1, (c) Matra-Datavision
Locations 3
1
1.000000000000000 0.000000000000000 0.000000000000000 0.000000000000000 
0.000000000000000 1.000000000000000 0.000000000000000 0.000000000000000 
0.000000000000000 0.000000000000000 1.000000000000000 0.000000000000000 
1
1.000000000000000 0.000000000000000 0.000000000000000 0.000000000000000 
0.000000000000000 1.000000000000000 0.000000000000000 0.000000000000000 
0.000000000000000 0.000000000000000 1.000000000000000 93.000000000000000 
2  2 -1 0
Curve2ds 83
1 1.04719755115711055 0.00000000000000000 0.00000000000000000 -1.00000000000000000 
1 0.00000000000000000 -0.99999999999998312 1.00000000000000000 0.00000000000000000 
1 0.00000000000000000 -0.99999999999998990 -1.00000000000000000 0.00000000000000000 
1 0.00000000000000000 0.00000000000000000 0.00000000000000000 -1.00000000000000000 
1 27.00000000000013500 0.00000000000000000 0.00000000000000000 -1.00000000000000000 
1 0.00000000000000000 -0.99999999999998990 1.00000000000000000 0.00000000000000000 
1 0.00000000000000000 0.00000000000000000 1.00000000000000000 0.00000000000000000 
1 0.00000000000000711 -0.99999999999999001 -1.00000000000000000 0.00000000000000000 
1 -0.00000000000000711 -0.99999999999999001 1.00000000000000000 0.00000000000000000 
1 0.00000000000000000 0.00000000000000000 1.00000000000000000 0.00000000000000000 
1 0.00000000000000000 -93.00000000000000000 1.00000000000000000 0.00000000000000000 
1 1.57079632679489678 0.00000000000000000 0.00000000000000000 -1.00000000000000000 
1 1.57079632679489678 0.00000000000000000 0.00000000000000000 -1.00000000000000000 
1 0.00000000000000000 -1.00000000000000000 1.00000000000000000 0.00000000000000000 
1 0.00000000000000000 -1.00000000000000000 -1.00000000000000000 0.00000000000000000 
1 0.00000000000000000 0.00000000000000000 1.00000000000000000 0.00000000000000000 
1 0.00000000000000000 0.00000000000000000 1.00000000000000000 0.00000000000000000 
1 0.00000000000000000 -93.00000000000000000 1.00000000000000000 0.00000000000000000 
1 0.00000000000000000 0.00000000000000000 1.00000000000000000 0.00000000000000000 
1 6.28318530717958623 0.00000000000000000 -1.00000000000000000 0.00000000000000000 
6 0 1 -27.00000000000011369 -1.00000000000000000  -27.00000000000011369 0.00000000000000000  
6 0 1 93.00000000000000000 -0.99999999999997158  93.00000000000000000 0.00000000000000000  
1 27.00000000000013500 0.00000000000000000 0.00000000000000000 -1.00000000000000000 
1 0.00000000000000000 0.00000000000000000 1.00000000000000000 0.00000000000000000 
6 0 1 27.00000000000011369 -1.00000000000000000  27.00000000000011369 0.00000000000000000  
6 0 1 0.00000000000000000 -0.99999999999997158  0.00000000000000000 0.00000000000000000  
1 0.00000000000000000 0.00000000000000000 1.00000000000000000 0.00000000000000000 
1 0.00000000000000000 0.00000000000000000 1.00000000000000000 0.00000000000000000 
6 0 1 0.00000000000000000 -1.00000000000000000  0.00000000000000000 0.00000000000000000  
6 0 1 -0.00000000000005684 -1.00000000000000000  0.00000000000000000 0.00000000000000000  
8 0.00000000000000000 1.00000000000000000
1 5.23598775602247546 0.00000000000000000 0.00000000000000000 1.00000000000000000 
6 0 1 0.00000000000005684 -1.00000000000000000  0.00000000000000000 0.00000000000000000  
6 0 1 -93.00000000000000000 -1.00000000000000000  -93.00000000000000000 0.00000000000000000  
8 0.00000000000000000 1.00000000000000000
1 1.04719755115711055 0.00000000000000000 0.00000000000000000 1.00000000000000000 
1 0.00000000000000000 -93.00000000000000000 1.00000000000000000 0.00000000000000000 
1 0.00000000000000000 0.00000000000000000 -1.00000000000000000 0.00000000000000000 
1 1.04719755115711055 0.00000000000000000 0.00000000000000000 -1.00000000000000000 
1 0.00000000000000000 -0.99999999999998990 1.00000000000000000 0.00000000000000000 
1 0.00000000000000000 -0.99999999999998312 -1.00000000000000000 0.00000000000000000 
1 0.00000000000000000 0.00000000000000000 0.00000000000000000 -1.00000000000000000 
1 0.00000000000000000 0.00000000000000000 1.00000000000000000 0.00000000000000000 
1 0.00000000000000000 0.00000000000000000 1.00000000000000000 0.00000000000000000 
1 0.00000000000000000 -93.00000000000000000 1.00000000000000000 0.00000000000000000 
1 6.28318530717958623 0.00000000000000000 -1.00000000000000000 0.00000000000000000 
1 0.00000000000000000 0.00000000000000000 1.00000000000000000 0.00000000000000000 
1 6.28318530717958623 1.00000000000000000 -1.00000000000000000 0.00000000000000000 
1 4.71238898038468967 0.00000000000000000 0.00000000000000000 1.00000000000000000 
6 0 1 -0.00000000000000000 -1.00000000000000000  0.00000000000000000 0.00000000000000000  
8 0.00000000000000000 1.00000000000000000
1 1.57079632679489678 0.00000000000000000 0.00000000000000000 1.00000000000000000 
1 1.57079632679489678 0.00000000000000000 0.00000000000000000 1.00000000000000000 
7 0 0  1 2 2  -93.00000000000000000 -1.00000000000000000  -93.00000000000000000 0.00000000000000000 
 0.00000000000000000 2 1.00000000000000000 2
8 0.00000000000000000 1.00000000000000000
1 4.71238898038468967 0.00000000000000000 0.00000000000000000 1.00000000000000000 
1 0.00000000000000000 1.00000000000000000 1.00000000000000000 0.00000000000000000 
1 0.00000000000000000 0.00000000000000000 0.00000000000000000 -1.00000000000000000 
1 0.00000000000000000 0.00000000000000000 -1.00000000000000000 0.00000000000000000 
8 0.00000000000000000 93.00000000000000000
1 1.04719755115711055 0.00000000000000000 0.00000000000000000 -1.00000000000000000 
1 27.00000000000013500 0.00000000000000000 0.00000000000000000 -1.00000000000000000 
1 -0.00000000000000000 -0.99999999999998990 -1.00000000000000000 0.00000000000000000 
1 0.00000000000000000 0.00000000000000000 1.00000000000000000 0.00000000000000000 
1 -0.00000000000000711 -0.99999999999999001 1.00000000000000000 0.00000000000000000 
1 0.00000000000000711 -0.99999999999999001 -1.00000000000000000 0.00000000000000000 
1 0.00000000000000000 0.00000000000000000 1.00000000000000000 0.00000000000000000 
1 0.00000000000000000 -93.00000000000000000 1.00000000000000000 0.00000000000000000 
1 0.00000000000000000 1.00000000000000000 1.00000000000000000 0.00000000000000000 
1 1.04719755115711055 0.00000000000000000 0.00000000000000000 1.00000000000000000 
6 0 1 0.00000000000000000 -1.00000000000000000  0.00000000000000000 0.00000000000000000  
1 5.23598775602247546 0.00000000000000000 0.00000000000000000 1.00000000000000000 
7 0 0  1 2 2  -93.00000000000000000 -1.00000000000000000  -93.00000000000000000 0.00000000000000000 
 0.00000000000000000 2 1.00000000000000000 2
1 6.28318530717958623 1.00000000000000000 -1.00000000000000000 0.00000000000000000 
1 0.00000000000000000 0.00000000000000000 -1.00000000000000000 0.00000000000000000 
8 0.00000000000000000 93.00000000000000000
1 1.57079632679489678 0.00000000000000000 0.00000000000000000 -1.00000000000000000 
6 0 1 -27.00000000000011369 -1.00000000000000000  -27.00000000000011369 0.00000000000000000  
6 0 1 0.00000000000000000 -0.99999999999997158  0.00000000000000000 0.00000000000000000  
1 27.00000000000013500 0.00000000000000000 0.00000000000000000 -1.00000000000000000 
1 0.00000000000000000 0.00000000000000000 -1.00000000000000000 0.00000000000000000 
6 0 1 27.00000000000011369 -1.00000000000000000  27.00000000000011369 0.00000000000000000  
6 0 1 -93.00000000000000000 -0.99999999999997158  -93.00000000000000000 0.00000000000000000  
1 0.00000000000000000 0.00000000000000000 1.00000000000000000 0.00000000000000000 
1 0.00000000000000000 0.00000000000000000 -1.00000000000000000 0.00000000000000000 
1 0.00000000000000000 -93.00000000000000000 1.00000000000000000 0.00000000000000000 
1 0.00000000000000000 0.00000000000000000 1.00000000000000000 0.00000000000000000 
1 0.00000000000000000 0.00000000000000000 -1.00000000000000000 0.00000000000000000 
1 -0.00000000001982640 0.00000000000000000 0.00000000000000000 -1.00000000000000000 
Curves 32
1 292.53709455407363293 -209.31088913336668611 0.00000000000000000 0.00000000000000000 0.00000000000000000 1.00000000000000000 
1 315.91978045598847302 -222.81088913382595251 0.00000000000000000 0.00000000000000000 0.00000000000000000 1.00000000000000000 
1 292.53709455407363293 -209.31088913336668611 0.00000000000000000 0.86602540377461945 -0.50000000001700740 0.00000000000000000 
1 0.00000000000006100 -130.92581088526526401 0.00000000000000000 0.00000000000000000 0.00000000000000000 1.00000000000000000 
2 0.00000000000003309 -715.99999995339703673 0.00000000000000000 0.00000000000000000 0.00000000000000000 1.00000000000000000 1.00000000000000000 0.00000000000000000 -0.00000000000000000 -0.00000000000000000 1.00000000000000000 0.00000000000000000 585.07418906813177273
6 0 1 315.91978045598847302 -222.81088913382595251 93.00000000000000000  315.41978045597147684 -223.67691453760056675 93.00000000000000000  
1 315.41978045597147684 -223.67691453760056675 0.00000000000000000 0.00000000000000000 0.00000000000000000 1.00000000000000000 
6 0 1 315.91978045598847302 -222.81088913382595251 0.00000000000000000  315.41978045597147684 -223.67691453760056675 0.00000000000000000  
1 292.03709455405663675 -210.17691453714130034 0.00000000000000000 0.86602540377461945 -0.50000000001700740 0.00000000000000000 
6 0 1 292.53709455407363293 -209.31088913336668611 0.00000000000000000  292.03709455405663675 -210.17691453714130034 0.00000000000000000  
6 0 1 292.53709455407363293 -209.31088913336668611 93.00000000000000000  292.03709455405663675 -210.17691453714130034 93.00000000000000000  
1 292.03709455405663675 -210.17691453714130034 93.00000000000000000 0.86602540377461945 -0.50000000001700740 0.00000000000000000 
1 -292.53709455407363293 -209.31088913336668611 0.00000000000000000 0.00000000000000000 0.00000000000000000 1.00000000000000000 
2 -0.00000000000003309 -715.99999995339703673 0.00000000000000000 0.00000000000000000 0.00000000000000000 -1.00000000000000000 -1.00000000000000000 -0.00000000000000000 -0.00000000000000000 -0.00000000000000000 1.00000000000000000 0.00000000000000000 585.07418906813177273
2 0.00000000000003309 -715.99999995339703673 0.00000000000000000 0.00000000000000000 0.00000000000000000 1.00000000000000000 1.00000000000000000 0.00000000000000000 -0.00000000000000000 -0.00000000000000000 1.00000000000000000 0.00000000000000000 584.07418906813177273
6 0 1 0.00000000000006100 -130.92581088526526401 0.00000000000000000  -0.00000000000006083 -131.92581088526526401 0.00000000000000000  
7 0 0  1 2 2  -0.00000000000005684 -130.92581088526526401 93.00000000000000000  -0.00000000000005684 -131.92581088526526401 93.00000000000000000 
 0.00000000000000000 2 1.00000000000000000 2
2 0.00000000000003309 -715.99999995339703673 93.00000000000000000 0.00000000000000000 0.00000000000000000 1.00000000000000000 1.00000000000000000 0.00000000000000000 -0.00000000000000000 -0.00000000000000000 1.00000000000000000 0.00000000000000000 584.07418906813177273
1 292.03709455405663675 -210.17691453714130034 0.00000000000000000 0.00000000000000000 0.00000000000000000 1.00000000000000000 
1 -315.91978045598847302 -222.81088913382595251 0.00000000000000000 0.00000000000000000 0.00000000000000000 1.00000000000000000 
1 -292.53709455407363293 -209.31088913336668611 0.00000000000000000 -0.86602540377461945 -0.50000000001700740 0.00000000000000000 
2 -0.00000000000003309 -715.99999995339703673 0.00000000000000000 0.00000000000000000 0.00000000000000000 -1.00000000000000000 -1.00000000000000000 -0.00000000000000000 -0.00000000000000000 -0.00000000000000000 1.00000000000000000 0.00000000000000000 584.07418906813177273
6 0 1 -292.53709455407363293 -209.31088913336668611 0.00000000000000000  -292.03709455403947004 -210.17691453713138117 0.00000000000000000  
7 0 0  1 2 2  -292.53709455407346240 -209.31088913336657242 93.00000000000000000  -292.03709455403924267 -210.17691453713126748 93.00000000000000000 
 0.00000000000000000 2 1.00000000000000000 2
2 -0.00000000000003309 -715.99999995339703673 93.00000000000000000 0.00000000000000000 0.00000000000000000 -1.00000000000000000 -1.00000000000000000 -0.00000000000000000 -0.00000000000000000 -0.00000000000000000 1.00000000000000000 0.00000000000000000 584.07418906813177273
1 -0.00000000000006083 -131.92581088526526401 0.00000000000000000 0.00000000000000000 0.00000000000000000 1.00000000000000000 
6 0 1 -315.91978045598847302 -222.81088913382595251 0.00000000000000000  -315.41978045597147684 -223.67691453760056675 0.00000000000000000  
1 -315.41978045597147684 -223.67691453760056675 0.00000000000000000 -0.00000000000000000 0.00000000000000000 1.00000000000000000 
6 0 1 -315.91978045598847302 -222.81088913382595251 93.00000000000000000  -315.41978045597147684 -223.67691453760056675 93.00000000000000000  
1 -292.03709455405663675 -210.17691453714130034 0.00000000000000000 -0.86602540377461945 -0.50000000001700740 0.00000000000000000 
1 -292.03709455405663675 -210.17691453714130034 93.00000000000000000 -0.86602540377461945 -0.50000000001700740 0.00000000000000000 
1 -292.03709455403947004 -210.17691453713138117 0.00000000000000000 -0.00000000000000000 -0.00000000000000000 1.00000000000000000 
Polygon3D 0
PolygonOnTriangulations 0
Surfaces 28
1 292.53709455407363293 -209.31088913336668611 0.00000000000000000 0.50000000001700740 0.86602540377461945 -0.00000000000000000 0.86602540377461945 -0.50000000001700740 0.00000000000000000 0.00000000000000000 -0.00000000000000000 -1.00000000000000000 
2 0.00000000000003309 -715.99999995339703673 0.00000000000000000 -0.00000000000000000 -0.00000000000000000 -1.00000000000000000 1.00000000000000000 0.00000000000000000 0.00000000000000000 -0.00000000000000000 1.00000000000000000 -0.00000000000000000 585.07418906813177273
1 292.03709455403947004 -210.17691453713138117 0.00000000000000000 0.86602540376470982 -0.50000000003417144 0.00000000000000000 0.00000000000000000 0.00000000000000000 1.00000000000000000 -0.50000000003417144 -0.86602540376470982 0.00000000000000000 
1 292.03709455405663675 -210.17691453714130034 0.00000000000000000 -0.86602540377462300 0.50000000001700129 0.00000000000000000 0.00000000000000000 0.00000000000000000 -1.00000000000000000 -0.50000000001700129 -0.86602540377462300 -0.00000000000000000 
1 315.41978045597147684 -223.67691453760056675 0.00000000000000000 0.86602540377462300 -0.50000000001700129 0.00000000000000000 0.00000000000000000 0.00000000000000000 1.00000000000000000 -0.50000000001700129 -0.86602540377462300 0.00000000000000000 
1 292.53709455407363293 -209.31088913336668611 0.00000000000000000 0.50000000001700740 0.86602540377461945 -0.00000000000000000 0.86602540377461945 -0.50000000001700740 0.00000000000000000 0.00000000000000000 -0.00000000000000000 -1.00000000000000000 
1 292.03709455405663675 -210.17691453714130034 93.00000000000000000 0.00000000000000000 0.00000000000000000 1.00000000000000000 -0.86602540377461945 0.50000000001700740 0.00000000000000000 -0.50000000001700740 -0.86602540377461945 0.00000000000000000 
1 292.03709455405663675 -210.17691453714130034 0.00000000000000000 0.00000000000000000 -0.00000000000000000 -1.00000000000000000 0.86602540377461945 -0.50000000001700740 0.00000000000000000 -0.50000000001700740 -0.86602540377461945 0.00000000000000000 
2 -0.00000000000003309 -715.99999995339703673 0.00000000000000000 0.00000000000000000 0.00000000000000000 -1.00000000000000000 -1.00000000000000000 -0.00000000000000000 -0.00000000000000000 -0.00000000000000000 1.00000000000000000 0.00000000000000000 585.07418906813177273
1 0.00000000000006083 -131.92581088526526401 0.00000000000000000 1.00000000000000000 -0.00000000000000016 0.00000000000000000 -0.00000000000000000 0.00000000000000000 1.00000000000000000 -0.00000000000000016 -1.00000000000000000 0.00000000000000000 
1 -0.00000000000006083 -131.92581088526526401 0.00000000000000000 -1.00000000000000000 0.00000000000012183 0.00000000000000000 0.00000000000000000 0.00000000000000000 -1.00000000000000000 -0.00000000000012183 -1.00000000000000000 -0.00000000000000000 
2 0.00000000000003309 -715.99999995339703673 0.00000000000000000 -0.00000000000000000 -0.00000000000000000 -1.00000000000000000 1.00000000000000000 0.00000000000000000 0.00000000000000000 -0.00000000000000000 1.00000000000000000 -0.00000000000000000 585.07418906813177273
9 0 0 0 0 7 1 8 2 2 2 292.53709455407368978 -209.31088913336668611 93.00000000000000000  292.03709455403952688 -210.17691453713138117 93.00000000000000000  
254.63683768916408212 -187.42916562806021830 93.00000000000019895  254.20161623785634220 -188.33259094437229919 93.00000000000019895  
214.82704017624047310 -168.85486361501131114 92.99999999999955946  214.45986103179873794 -169.79003584882849509 92.99999999999955946  
173.45405468820092665 -153.78794865125351521 93.00000000000083844  173.15758962799500864 -154.74887302940010159 93.00000000000083844  
130.89040792432561489 -142.38305387304512806 92.99999999999894840  130.66669200868417988 -143.36347132573848739 92.99999999999894840  
87.52689397970034690 -134.74489224259284015 93.00000000000069633  87.37729432957995357 -135.73836472620220661 93.00000000000069633  
43.76344700762081885 -130.92581088526512190 92.99999999999982947  43.68864718252939383 -131.92581088526588928 92.99999999999982947  
-0.00000000000005684 -130.92581088526526401 93.00000000000000000  -0.00000000000005684 -131.92581088526526401 93.00000000000000000  

1.04719755115711055 8
1.57079632679489678 8

0.00000000000000000 2
1.00000000000000000 2

9 0 0 0 0 7 1 8 2 2 2 -0.00000000000007721 -130.92581088526520716 0.00000000000000000  -0.00000000000013494 -131.92581088526517874 0.00000000000000000  
43.76344700762087570 -130.92581088526532085 0.00000000000000000  43.68864718252945778 -131.92581088526611666 0.00000000000000000  
87.52689397970085849 -134.74489224259198750 0.00000000000000000  87.37729432958012410 -135.73836472620189397 0.00000000000000000  
130.89040792432570015 -142.38305387304677652 0.00000000000000000  130.66669200868517464 -143.36347132573911267 0.00000000000000000  
173.45405468820061401 -153.78794865125234992 0.00000000000000000  173.15758962799358756 -154.74887302939956157 0.00000000000000000  
214.82704017624101311 -168.85486361501159536 0.00000000000000000  214.45986103179976112 -169.79003584882880773 0.00000000000000000  
254.63683768916388317 -187.42916562806013303 0.00000000000000000  254.20161623785600113 -188.33259094437215708 0.00000000000000000  
292.53709455407346240 -209.31088913336657242 0.00000000000000000  292.03709455403924267 -210.17691453713126748 0.00000000000000000  

4.71238898038468967 8
5.23598775602247546 8

0.00000000000000000 2
1.00000000000000000 2

1 292.03709455405663675 -210.17691453714130034 0.00000000000000000 0.50000000001700740 0.86602540377461945 -0.00000000000000000 0.86602540377461945 -0.50000000001700740 0.00000000000000000 0.00000000000000000 -0.00000000000000000 -1.00000000000000000 
1 -292.53709455407363293 -209.31088913336668611 0.00000000000000000 0.50000000001700740 -0.86602540377461945 0.00000000000000000 -0.86602540377461945 -0.50000000001700740 0.00000000000000000 0.00000000000000000 -0.00000000000000000 -1.00000000000000000 
1 -292.03709455405663675 -210.17691453714130034 0.00000000000000000 0.86602540377462300 0.50000000001700129 0.00000000000000000 -0.00000000000000000 0.00000000000000000 1.00000000000000000 0.50000000001700129 -0.86602540377462300 0.00000000000000000 
1 -292.03709455403947004 -210.17691453713138117 0.00000000000000000 -0.86602540376470982 -0.50000000003417144 -0.00000000000000000 0.00000000000000000 0.00000000000000000 -1.00000000000000000 0.50000000003417144 -0.86602540376470982 0.00000000000000000 
2 -0.00000000000003309 -715.99999995339703673 0.00000000000000000 0.00000000000000000 0.00000000000000000 -1.00000000000000000 -1.00000000000000000 -0.00000000000000000 -0.00000000000000000 -0.00000000000000000 1.00000000000000000 0.00000000000000000 585.07418906813177273
9 0 0 0 0 7 1 8 2 2 2 0.00000000000007721 -130.92581088526520716 92.99999999999995737  0.00000000000013494 -131.92581088526517874 92.99999999999995737  
-43.76344700762087570 -130.92581088526532085 93.00000000000044054  -43.68864718252945778 -131.92581088526611666 93.00000000000044054  
-87.52689397970085849 -134.74489224259198750 92.99999999999904787  -87.37729432958012410 -135.73836472620189397 92.99999999999904787  
-130.89040792432570015 -142.38305387304677652 93.00000000000115108  -130.66669200868517464 -143.36347132573911267 93.00000000000115108  
-173.45405468820061401 -153.78794865125234992 92.99999999999916156  -173.15758962799358756 -154.74887302939956157 92.99999999999916156  
-214.82704017624101311 -168.85486361501159536 93.00000000000045475  -214.45986103179976112 -169.79003584882880773 93.00000000000045475  
-254.63683768916388317 -187.42916562806013303 92.99999999999982947  -254.20161623785600113 -188.33259094437215708 92.99999999999982947  
-292.53709455407346240 -209.31088913336657242 93.00000000000000000  -292.03709455403924267 -210.17691453713126748 93.00000000000000000  

4.71238898038468967 8
5.23598775602247546 8

0.00000000000000000 2
1.00000000000000000 2

9 0 0 0 0 7 1 8 2 2 2 -292.53709455407368978 -209.31088913336668611 0.00000000000000000  -292.03709455403952688 -210.17691453713138117 0.00000000000000000  
-254.63683768916408212 -187.42916562806021830 0.00000000000000000  -254.20161623785634220 -188.33259094437229919 0.00000000000000000  
-214.82704017624047310 -168.85486361501131114 0.00000000000000000  -214.45986103179873794 -169.79003584882849509 0.00000000000000000  
-173.45405468820092665 -153.78794865125351521 0.00000000000000000  -173.15758962799500864 -154.74887302940010159 0.00000000000000000  
-130.89040792432561489 -142.38305387304512806 0.00000000000000000  -130.66669200868417988 -143.36347132573848739 0.00000000000000000  
-87.52689397970034690 -134.74489224259284015 0.00000000000000000  -87.37729432957995357 -135.73836472620220661 0.00000000000000000  
-43.76344700762081885 -130.92581088526512190 0.00000000000000000  -43.68864718252939383 -131.92581088526588928 0.00000000000000000  
0.00000000000005684 -130.92581088526526401 0.00000000000000000  0.00000000000005684 -131.92581088526526401 0.00000000000000000  

1.04719755115711055 8
1.57079632679489678 8

0.00000000000000000 2
1.00000000000000000 2

2 0.00000000000003309 -715.99999995339703673 0.00000000000000000 -0.00000000000000000 -0.00000000000000000 -1.00000000000000000 1.00000000000000000 0.00000000000000000 0.00000000000000000 -0.00000000000000000 1.00000000000000000 -0.00000000000000000 584.07418906813177273
1 -315.41978045597147684 -223.67691453760056675 0.00000000000000000 -0.86602540377462300 -0.50000000001700129 0.00000000000000000 0.00000000000000000 -0.00000000000000000 -1.00000000000000000 0.50000000001700129 -0.86602540377462300 0.00000000000000000 
1 -292.53709455407363293 -209.31088913336668611 0.00000000000000000 0.50000000001700740 -0.86602540377461945 0.00000000000000000 -0.86602540377461945 -0.50000000001700740 0.00000000000000000 0.00000000000000000 -0.00000000000000000 -1.00000000000000000 
1 -292.03709455405663675 -210.17691453714130034 93.00000000000000000 0.00000000000000000 0.00000000000000000 1.00000000000000000 -0.86602540377461945 -0.50000000001700740 0.00000000000000000 0.50000000001700740 -0.86602540377461945 0.00000000000000000 
1 -292.03709455405663675 -210.17691453714130034 0.00000000000000000 0.00000000000000000 -0.00000000000000000 -1.00000000000000000 0.86602540377461945 0.50000000001700740 0.00000000000000000 0.50000000001700740 -0.86602540377461945 0.00000000000000000 
2 -0.00000000000003309 -715.99999995339703673 0.00000000000000000 0.00000000000000000 0.00000000000000000 -1.00000000000000000 -1.00000000000000000 -0.00000000000000000 -0.00000000000000000 -0.00000000000000000 1.00000000000000000 0.00000000000000000 584.07418906813177273
1 -292.03709455405663675 -210.17691453714130034 0.00000000000000000 0.50000000001700740 -0.86602540377461945 0.00000000000000000 -0.86602540377461945 -0.50000000001700740 0.00000000000000000 0.00000000000000000 -0.00000000000000000 -1.00000000000000000 
Triangulations 0

TShapes 86
Ve
0.000000102469508
292.537094554073633 -209.310889133366686 0.000000000000000
0 0

0101101
*
Ed
 0.000000100000000 1 1 0
1  1 0 0.000000000000000 93.000000000000000
2  1 2 0 0.000000000000000 93.000000000000000
4 G1 1 0 2 0
2  2 3 0 0.000000000000000 93.000000000000000
2  3 4 0 0.000000000000000 93.000000000000000
2  4 1 0 0.000000000000000 93.000000000000000
0

0101000
+86 0 -86 2 *
Ve
0.000000102469508
315.919780455988473 -222.810889133825953 0.000000000000000
0 0

0101101
*
Ed
 0.000000102469508 1 1 0
1  2 0 0.000000000000000 93.000000000000000
2  5 1 0 0.000000000000000 93.000000000000000
2  6 5 0 0.000000000000000 93.000000000000000
0

0101000
+84 0 -84 2 *
Ed
 0.000000100000000 1 1 0
2  7 6 0 0.000000000000000 27.000000000000131
1  3 0 0.000000000000000 27.000000000000131
2  8 7 3 0.000000000000000 27.000000000000131
2  9 8 0 0.000000000000000 27.000000000000131
2  10 1 0 0.000000000000000 27.000000000000131
2  11 1 3 0.000000000000000 27.000000000000131
0

0101000
+86 0 -84 0 *
Wi

0101100
+85 0 -83 0 -82 0 +82 2 *
Fa
0  0.000000100000000 1 0

0111000
+81 0 *
Ve
0.000000102469508
0.000000000000061 -130.925810885265264 0.000000000000000
0 0

0101101
*
Ed
 0.000000100000000 1 1 0
1  4 0 0.000000000000000 93.000000000000000
2  12 2 0 0.000000000000000 93.000000000000000
2  13 9 0 0.000000000000000 93.000000000000000
4 C2 2 0 9 0
2  14 10 0 0.000000000000000 93.000000000000000
2  15 11 0 0.000000000000000 93.000000000000000
0

0101000
+79 0 -79 2 *
Ed
 0.000000100000000 1 1 0
2  16 12 0 1.047197551157111 1.570796326794897
1  5 0 1.047197551157111 1.570796326794897
2  17 2 0 1.047197551157111 1.570796326794897
2  18 2 3 1.047197551157111 1.570796326794897
2  19 13 3 1.047197551157111 1.570796326794897
2  20 14 0 1.047197551157111 1.570796326794897
0

0101000
+86 0 -79 0 *
Wi

0101100
+85 0 -78 0 -77 0 +77 2 *
Fa
0  0.000000100000000 2 0

0111000
+76 0 *
Ve
0.000000102469508
315.419780455971477 -223.676914537600567 93.000000000000000
0 0

0101101
*
Ed
 0.000000100000000 1 1 0
1  6 0 0.000000000000000 1.000000000000000
4 C0 5 0 7 0
2  21 7 0 0.000000000000000 1.000000000000000
2  22 5 0 0.000000000000000 1.000000000000000
0

0101000
+84 2 -74 0 *
Ve
0.000000102469508
315.419780455971477 -223.676914537600567 0.000000000000000
0 0

0101101
*
Ed
 0.000000100000000 1 1 0
2  23 15 0 0.000000000000000 93.000000000000000
1  7 0 0.000000000000000 93.000000000000000
2  24 5 0 0.000000000000000 93.000000000000000
0

0101000
+72 0 -74 0 *
Ed
 0.000000100000000 1 1 0
1  8 0 0.000000000000000 1.000000000000000
4 C0 5 0 8 0
2  25 8 0 0.000000000000000 1.000000000000000
2  26 5 0 0.000000000000000 1.000000000000000
0

0101000
+84 0 -72 0 *
Wi

0101000
+83 0 +73 0 -71 0 -70 0 *
Fa
0  0.000000100000000 5 0

0111000
+69 0 *
Ve
0.000000102479421
292.037094554048053 -210.176914537136327 0.000000000000000
0 0

0101101
*
Ed
 0.000000100000000 1 1 0
2  27 15 0 0.000000000000000 27.000000000000131
1  9 0 0.000000000000000 27.000000000000131
2  28 8 0 0.000000000000000 27.000000000000131
0

0101000
+67 0 -72 0 *
Ed
 0.000000100018169 1 1 0
1  10 0 0.000000000000000 1.000000000000000
4 C0 4 0 8 0
2  29 4 0 0.000000000000000 1.000000000000000
2  30 8 0 0.000000000000000 1.000000000000000
2  31 14 0 0.000000000000000 1.000000000000000
0

0101000
+86 0 -67 0 *
Wi

0101100
+82 0 +70 0 -66 0 -65 0 *
Fa
0  0.000000100000000 8 0

0111000
+64 0 *
Ve
0.000000102479421
292.037094554048053 -210.176914537136327 93.000000000000000
0 0

0101101
*
Ed
 0.000000100018169 1 1 0
1  11 0 0.000000000000000 1.000000000000000
4 C0 7 0 4 0
2  32 7 0 0.000000000000000 1.000000000000000
2  33 4 0 0.000000000000000 1.000000000000000
2  34 13 0 0.000000000000000 1.000000000000000
0

0101000
+86 2 -62 0 *
Ed
 0.000000100000000 1 1 0
2  35 15 0 0.000000000000000 27.000000000000131
1  12 0 0.000000000000000 27.000000000000131
2  36 7 0 0.000000000000000 27.000000000000131
0

0101000
+62 0 -74 0 *
Wi

0101100
-82 2 +61 0 +60 0 -73 0 *
Fa
0  0.000000100000000 7 0

0111000
+59 0 *
Ve
0.000000102469508
-292.537094554073633 -209.310889133366686 0.000000000000000
0 0

0101101
*
Ed
 0.000000100000000 1 1 0
1  13 0 0.000000000000000 93.000000000000000
2  37 9 0 0.000000000000000 93.000000000000000
4 G1 9 0 16 0
2  38 17 0 0.000000000000000 93.000000000000000
2  39 18 0 0.000000000000000 93.000000000000000
2  40 16 0 0.000000000000000 93.000000000000000
0

0101000
+57 0 -57 2 *
Ed
 0.000000100000000 1 1 0
2  41 19 0 1.047197551157111 1.570796326794897
1  14 0 1.047197551157111 1.570796326794897
2  42 9 0 1.047197551157111 1.570796326794897
2  43 9 3 1.047197551157111 1.570796326794897
2  44 20 3 1.047197551157111 1.570796326794897
2  45 21 0 1.047197551157111 1.570796326794897
0

0101000
+57 0 -79 0 *
Wi

0101100
+56 0 -78 0 -55 0 +55 2 *
Fa
0  0.000000100000000 9 0

0111000
+54 0 *
Ve
0.000000102469568
-0.000000000000000 -131.925810885265264 0.000000000000000
0 0

0101101
*
Ed
 0.000000100000000 1 1 0
2  17 22 0 1.047197551157111 1.570796326794897
1  15 0 1.047197551157111 1.570796326794897
2  46 14 0 1.047197551157111 1.570796326794897
0

0101000
+67 0 -52 0 *
Ed
 0.000000100000112 1 1 0
1  16 0 0.000000000000000 1.000000000000000
2  47 14 0 0.000000000000000 1.000000000000000
4 C0 11 0 14 0
2  48 11 0 0.000000000000000 1.000000000000000
2  49 21 0 0.000000000000000 1.000000000000000
0

0101000
+79 0 -52 0 *
Wi

0101100
-77 0 +65 0 +51 0 -50 0 *
Fa
0  0.000000100000000 14 0

0111000
+49 0 *
Ve
0.000000102469568
-0.000000000000000 -131.925810885265264 93.000000000000000
0 0

0101101
*
Ed
 0.000000100000118 1 1 0
1  17 0 0.000000000000000 1.000000000000000
2  50 13 0 0.000000000000000 1.000000000000000
4 C0 13 0 11 0
2  51 11 0 0.000000000000000 1.000000000000000
2  52 20 0 0.000000000000000 1.000000000000000
0

0101000
+79 2 -47 0 *
Ed
 0.000000100000000 1 1 0
2  18 22 0 1.047197551157111 1.570796326794897
1  18 0 1.047197551157111 1.570796326794897
2  53 13 0 1.047197551157111 1.570796326794897
0

0101000
+62 0 -47 0 *
Wi

0101100
+77 2 +46 0 -45 0 -61 0 *
Fa
0  0.000000100000000 13 0

0111000
+44 0 *
Ed
 0.000000100019826 1 1 0
2  54 15 0 0.000000000000000 93.000000000000000
1  19 0 0.000000000000000 93.000000000000000
2  55 4 0 0.000000000000000 93.000000000000000
2  56 22 0 0.000000000000000 93.000000000000000
0

0101000
+67 0 -62 0 *
Wi

0101100
+42 0 -71 0 -66 0 +60 0 *
Fa
0  0.000000100000000 15 0

0111000
+41 0 *
Ve
0.000000102469508
-315.919780455988473 -222.810889133825953 0.000000000000000
0 0

0101101
*
Ed
 0.000000102469508 1 1 0
1  20 0 0.000000000000000 93.000000000000000
2  57 16 0 0.000000000000000 93.000000000000000
2  58 23 0 0.000000000000000 93.000000000000000
0

0101000
+39 0 -39 2 *
Ed
 0.000000100000000 1 1 0
2  59 24 0 0.000000000000000 27.000000000000131
1  21 0 0.000000000000000 27.000000000000131
2  60 25 3 0.000000000000000 27.000000000000131
2  61 26 0 0.000000000000000 27.000000000000131
2  62 16 0 0.000000000000000 27.000000000000131
2  63 16 3 0.000000000000000 27.000000000000131
0

0101000
+57 0 -39 0 *
Wi

0101100
+56 0 -38 0 -37 0 +37 2 *
Fa
0  0.000000100000000 16 0

0111000
+36 0 *
Ve
0.000000102479421
-292.037094554048053 -210.176914537136327 0.000000000000000
0 0

0101101
*
Ed
 0.000000100000000 1 1 0
2  42 27 0 1.047197551157111 1.570796326794897
1  22 0 1.047197551157111 1.570796326794897
2  64 21 0 1.047197551157111 1.570796326794897
0

0101000
+34 0 -52 0 *
Ed
 0.000000100018184 1 1 0
1  23 0 0.000000000000000 1.000000000000000
2  65 21 0 0.000000000000000 1.000000000000000
4 C0 18 0 21 0
2  66 18 0 0.000000000000000 1.000000000000000
0

0101000
+57 0 -34 0 *
Wi

0101100
+55 0 +50 0 -33 0 -32 0 *
Fa
0  0.000000100000000 21 0

0111000
+31 0 *
Ve
0.000000102479421
-292.037094554048053 -210.176914537136327 93.000000000000000
0 0

0101101
*
Ed
 0.000000100018437 1 1 0
1  24 0 0.000000000000000 1.000000000000000
2  67 20 0 0.000000000000000 1.000000000000000
4 C0 20 0 18 0
2  68 18 0 0.000000000000000 1.000000000000000
0

0101000
+57 2 -29 0 *
Ed
 0.000000100000000 1 1 0
2  43 27 0 1.047197551157111 1.570796326794897
1  25 0 1.047197551157111 1.570796326794897
2  69 20 0 1.047197551157111 1.570796326794897
0

0101000
+29 0 -47 0 *
Wi

0101100
-55 2 +28 0 +27 0 -46 0 *
Fa
0  0.000000100000000 20 0

0111000
+26 0 *
Ed
 0.000000100000122 1 1 0
2  12 22 0 0.000000000000000 93.000000000000000
1  26 0 0.000000000000000 93.000000000000000
2  70 11 0 0.000000000000000 93.000000000000000
2  71 27 0 0.000000000000000 93.000000000000000
0

0101000
+52 0 -47 0 *
Wi

0101100
+42 0 -24 0 -51 0 +45 0 *
Fa
0  0.000000100000000 22 0

0111000
+23 0 *
Ve
0.000000102469508
-315.419780455971477 -223.676914537600567 0.000000000000000
0 0

0101101
*
Ed
 0.000000100000000 1 1 0
1  27 0 0.000000000000000 1.000000000000000
4 C0 23 0 26 0
2  72 26 0 0.000000000000000 1.000000000000000
2  73 23 0 0.000000000000000 1.000000000000000
0

0101000
+39 0 -21 0 *
Ve
0.000000102469508
-315.419780455971477 -223.676914537600567 93.000000000000000
0 0

0101101
*
Ed
 0.000000100000000 1 1 0
2  74 28 0 0.000000000000000 93.000000000000000
1  28 0 0.000000000000000 93.000000000000000
2  75 23 0 0.000000000000000 93.000000000000000
0

0101000
+21 0 -19 0 *
Ed
 0.000000100000000 1 1 0
1  29 0 0.000000000000000 1.000000000000000
4 C0 25 0 23 0
2  76 25 0 0.000000000000000 1.000000000000000
2  77 23 0 0.000000000000000 1.000000000000000
0

0101000
+39 2 -19 0 *
Wi

0101000
-38 0 +20 0 +18 0 -17 0 *
Fa
0  0.000000100000000 23 0

0111000
+16 0 *
Ed
 0.000000100000000 1 1 0
2  78 28 0 0.000000000000000 27.000000000000131
1  30 0 0.000000000000000 27.000000000000131
2  79 26 0 0.000000000000000 27.000000000000131
0

0101000
+34 0 -21 0 *
Wi

0101100
-37 0 +32 0 +14 0 -20 0 *
Fa
0  0.000000100000000 26 0

0111000
+13 0 *
Ed
 0.000000100000000 1 1 0
2  80 28 0 0.000000000000000 27.000000000000131
1  31 0 0.000000000000000 27.000000000000131
2  81 25 0 0.000000000000000 27.000000000000131
0

0101000
+29 0 -19 0 *
Wi

0101100
+37 2 +17 0 -11 0 -28 0 *
Fa
0  0.000000100000000 25 0

0111000
+10 0 *
Ed
 0.000000100019826 1 1 0
2  37 27 0 0.000000000000000 93.000000000000000
1  32 0 0.000000000000000 93.000000000000000
2  82 18 0 0.000000000000000 93.000000000000000
2  83 28 0 0.000000000000000 93.000000000000000
0

0101000
+34 0 -29 0 *
Wi

0101100
+8 0 -24 0 -33 0 +27 0 *
Fa
0  0.000000100000000 27 0

0111000
+7 0 *
Wi

0101100
+8 0 -18 0 -14 0 +11 0 *
Fa
0  0.000000100000000 28 0

0111000
+5 0 *
Sh

0101100
+80 0 -75 0 +68 0 +63 0 +58 0 +53 0 +48 0 +43 0 -40 0 -35 0 
+30 0 +25 0 +22 0 +15 0 +12 0 +9 0 -6 0 +4 0 *
So

0100000
+3 0 *
Co

1100000
+2 0 *

+1 1 