
CASCADE Topology V1, (c) Matra-Datavision
Locations 64
1
1.000000000000000 0.000000000000000 0.000000000000000 0.000000000000000 
0.000000000000000 1.000000000000000 0.000000000000000 0.000000000000000 
0.000000000000000 0.000000000000000 1.000000000000000 0.000000000000000 
1
0.000000000000000 -0.000000000000000 1.000000000000000 0.000000000000002 
1.000000000000000 0.000000000000000 -0.000000000000000 -0.000000000000002 
-0.000000000000000 1.000000000000000 0.000000000000000 -6.999999999999998 
1
1.000000000000000 0.000000000000000 0.000000000000000 0.000000000000000 
0.000000000000000 1.000000000000000 0.000000000000000 0.000000000000000 
0.000000000000000 0.000000000000000 1.000000000000000 0.000000000000000 
1
1.000000000000000 0.000000000000000 0.000000000000000 0.000000000000000 
0.000000000000000 1.000000000000000 0.000000000000000 173.000000000000000 
0.000000000000000 0.000000000000000 1.000000000000000 1428.000000000000000 
1
1.000000000000000 0.000000000000000 0.000000000000000 0.000000000000000 
0.000000000000000 1.000000000000000 0.000000000000000 0.000000000000000 
0.000000000000000 0.000000000000000 1.000000000000000 0.000000000000000 
1
1.000000000000000 0.000000000000000 0.000000000000000 0.000000000000000 
0.000000000000000 1.000000000000000 0.000000000000000 0.000000000000000 
0.000000000000000 0.000000000000000 1.000000000000000 0.000000000000000 
1
1.000000000000000 0.000000000000000 0.000000000000000 0.000000000000000 
0.000000000000000 1.000000000000000 0.000000000000000 0.000000000000000 
0.000000000000000 0.000000000000000 1.000000000000000 0.000000000000000 
1
1.000000000000000 0.000000000000000 0.000000000000000 0.000000000000000 
0.000000000000000 1.000000000000000 0.000000000000000 0.000000000000000 
0.000000000000000 0.000000000000000 1.000000000000000 0.000000000000000 
1
1.000000000000000 0.000000000000000 0.000000000000000 0.000000000000000 
0.000000000000000 1.000000000000000 0.000000000000000 0.000000000000000 
0.000000000000000 0.000000000000000 1.000000000000000 0.000000000000000 
1
1.000000000000000 0.000000000000000 0.000000000000000 1576.866288019524973 
0.000000000000000 1.000000000000000 0.000000000000000 -0.000000000000347 
0.000000000000000 0.000000000000000 1.000000000000000 0.000000000000347 
2  1 1 2 1 3 1 4 1 5 1 6 1 7 1 8 1 9 -1 10 1 0
1
1.000000000000000 0.000000000000000 0.000000000000000 -3153.732576039049945 
0.000000000000000 1.000000000000000 0.000000000000000 0.000000000000694 
0.000000000000000 0.000000000000000 1.000000000000000 -0.000000000000694 
2  1 1 2 1 3 1 4 1 5 1 6 1 7 1 8 1 9 -1 10 1 12 1 0
1
1.000000000000000 0.000000000000000 0.000000000000000 0.000000000000000 
0.000000000000000 1.000000000000000 0.000000000000000 0.000000000000000 
0.000000000000000 0.000000000000000 1.000000000000000 0.000000000000000 
1
0.000000000000000 -0.000000000000000 1.000000000000000 0.000000000000002 
1.000000000000000 0.000000000000000 -0.000000000000000 -0.000000000000002 
-0.000000000000000 1.000000000000000 0.000000000000000 -6.999999999999998 
1
1.000000000000000 0.000000000000000 0.000000000000000 0.000000000000000 
0.000000000000000 1.000000000000000 0.000000000000000 0.000000000000000 
0.000000000000000 0.000000000000000 1.000000000000000 0.000000000000000 
2  14 1 15 -1 16 -1 0
1
1.000000000000000 0.000000000000000 0.000000000000000 -5.000000000000000 
0.000000000000000 1.000000000000000 0.000000000000000 0.000000000000001 
0.000000000000000 0.000000000000000 1.000000000000000 -0.000000000000001 
2  18 -1 14 1 15 -1 16 -1 0
1
1.000000000000000 0.000000000000000 0.000000000000000 0.000000000000000 
0.000000000000000 1.000000000000000 0.000000000000000 0.000000000000000 
0.000000000000000 0.000000000000000 1.000000000000000 0.000000000000000 
1
0.000000000000000 -0.000000000000000 1.000000000000000 0.000000000000002 
1.000000000000000 0.000000000000000 -0.000000000000000 -0.000000000000002 
-0.000000000000000 1.000000000000000 0.000000000000000 -6.999999999999998 
1
1.000000000000000 0.000000000000000 0.000000000000000 0.000000000000000 
0.000000000000000 1.000000000000000 0.000000000000000 0.000000000000000 
0.000000000000000 0.000000000000000 1.000000000000000 0.000000000000000 
2  20 1 21 -1 22 -1 0
1
1.000000000000000 0.000000000000000 0.000000000000000 -5.000000000000000 
0.000000000000000 1.000000000000000 0.000000000000000 0.000000000000001 
0.000000000000000 0.000000000000000 1.000000000000000 -0.000000000000001 
2  24 -1 20 1 21 -1 22 -1 0
1
1.000000000000000 0.000000000000000 0.000000000000000 0.000000000000000 
0.000000000000000 1.000000000000000 0.000000000000000 0.000000000000000 
0.000000000000000 0.000000000000000 1.000000000000000 0.000000000000000 
1
0.000000000000000 -0.000000000000000 1.000000000000000 0.000000000000002 
1.000000000000000 0.000000000000000 -0.000000000000000 -0.000000000000002 
-0.000000000000000 1.000000000000000 0.000000000000000 -6.999999999999998 
1
1.000000000000000 0.000000000000000 0.000000000000000 0.000000000000000 
0.000000000000000 1.000000000000000 0.000000000000000 0.000000000000000 
0.000000000000000 0.000000000000000 1.000000000000000 0.000000000000000 
2  26 1 27 -1 28 -1 0
1
1.000000000000000 0.000000000000000 0.000000000000000 -556.855382479150421 
0.000000000000000 1.000000000000000 0.000000000000000 0.000000000000124 
0.000000000000000 0.000000000000000 1.000000000000000 -0.000000000000155 
2  30 -1 26 1 27 -1 28 -1 0
1
1.000000000000000 0.000000000000000 0.000000000000000 278.427691239575211 
0.000000000000000 1.000000000000000 0.000000000000000 -0.000000000000062 
0.000000000000000 0.000000000000000 1.000000000000000 0.000000000000077 
1
1.000000000000000 0.000000000000000 0.000000000000000 0.000000000000000 
0.000000000000000 1.000000000000000 0.000000000000000 0.000000000000000 
0.000000000000000 0.000000000000000 1.000000000000000 0.000000000000000 
1
0.000000000000000 -0.000000000000000 1.000000000000000 0.000000000000002 
1.000000000000000 0.000000000000000 -0.000000000000000 -0.000000000000002 
-0.000000000000000 1.000000000000000 0.000000000000000 -6.999999999999998 
1
1.000000000000000 0.000000000000000 0.000000000000000 0.000000000000000 
0.000000000000000 1.000000000000000 0.000000000000000 0.000000000000000 
0.000000000000000 0.000000000000000 1.000000000000000 0.000000000000000 
2  32 -1 33 1 34 -1 35 -1 0
1
1.000000000000000 0.000000000000000 0.000000000000000 -556.855382479150421 
0.000000000000000 1.000000000000000 0.000000000000000 0.000000000000124 
0.000000000000000 0.000000000000000 1.000000000000000 -0.000000000000155 
2  37 -1 32 -1 33 1 34 -1 35 -1 0
1
1.000000000000000 0.000000000000000 0.000000000000000 278.427691239575211 
0.000000000000000 1.000000000000000 0.000000000000000 -0.000000000000062 
0.000000000000000 0.000000000000000 1.000000000000000 0.000000000000077 
1
1.000000000000000 0.000000000000000 0.000000000000000 0.000000000000000 
0.000000000000000 1.000000000000000 0.000000000000000 0.000000000000000 
0.000000000000000 0.000000000000000 1.000000000000000 0.000000000000000 
1
0.000000000000000 -0.000000000000000 1.000000000000000 0.000000000000002 
1.000000000000000 0.000000000000000 -0.000000000000000 -0.000000000000002 
-0.000000000000000 1.000000000000000 0.000000000000000 -6.999999999999998 
1
1.000000000000000 0.000000000000000 0.000000000000000 0.000000000000000 
0.000000000000000 1.000000000000000 0.000000000000000 0.000000000000000 
0.000000000000000 0.000000000000000 1.000000000000000 0.000000000000000 
2  39 -1 40 1 41 -1 42 -1 0
1
1.000000000000000 0.000000000000000 0.000000000000000 -556.855382479150421 
0.000000000000000 1.000000000000000 0.000000000000000 0.000000000000124 
0.000000000000000 0.000000000000000 1.000000000000000 -0.000000000000155 
2  44 -1 39 -1 40 1 41 -1 42 -1 0
1
1.000000000000000 0.000000000000000 0.000000000000000 1487.149440473208642 
0.000000000000000 1.000000000000000 0.000000000000000 -0.000000000000330 
0.000000000000000 0.000000000000000 1.000000000000000 0.000000000000330 
1
1.000000000000000 0.000000000000000 0.000000000000000 0.000000000000000 
0.000000000000000 1.000000000000000 0.000000000000000 0.000000000000000 
0.000000000000000 0.000000000000000 1.000000000000000 0.000000000000000 
1
1.000000000000000 0.000000000000000 0.000000000000000 0.000000000000000 
0.000000000000000 1.000000000000000 0.000000000000000 173.000000000000000 
0.000000000000000 0.000000000000000 1.000000000000000 1428.000000000000000 
1
1.000000000000000 0.000000000000000 0.000000000000000 0.000000000000000 
0.000000000000000 1.000000000000000 0.000000000000000 0.000000000000000 
0.000000000000000 0.000000000000000 1.000000000000000 0.000000000000000 
2  46 -1 47 1 48 -1 49 -1 3 -1 2 -1 1 -1 0
1
1.000000000000000 0.000000000000000 0.000000000000000 -2974.298880946417285 
0.000000000000000 1.000000000000000 0.000000000000000 0.000000000000660 
0.000000000000000 0.000000000000000 1.000000000000000 -0.000000000000660 
2  51 -1 46 -1 47 1 48 -1 49 -1 3 -1 2 -1 1 -1 0
1
1.000000000000000 0.000000000000000 0.000000000000000 1487.149440473208642 
0.000000000000000 1.000000000000000 0.000000000000000 -0.000000000000330 
0.000000000000000 0.000000000000000 1.000000000000000 0.000000000000330 
1
1.000000000000000 0.000000000000000 0.000000000000000 0.000000000000000 
0.000000000000000 1.000000000000000 0.000000000000000 0.000000000000000 
0.000000000000000 0.000000000000000 1.000000000000000 0.000000000000000 
1
1.000000000000000 0.000000000000000 0.000000000000000 0.000000000000000 
0.000000000000000 1.000000000000000 0.000000000000000 173.000000000000000 
0.000000000000000 0.000000000000000 1.000000000000000 1428.000000000000000 
1
1.000000000000000 0.000000000000000 0.000000000000000 0.000000000000000 
0.000000000000000 1.000000000000000 0.000000000000000 0.000000000000000 
0.000000000000000 0.000000000000000 1.000000000000000 0.000000000000000 
2  53 -1 54 1 55 -1 56 -1 3 -1 2 -1 1 -1 0
1
1.000000000000000 0.000000000000000 0.000000000000000 -2974.298880946417285 
0.000000000000000 1.000000000000000 0.000000000000000 0.000000000000660 
0.000000000000000 0.000000000000000 1.000000000000000 -0.000000000000660 
2  58 -1 53 -1 54 1 55 -1 56 -1 3 -1 2 -1 1 -1 0
2  10 -1 9 1 8 -1 7 -1 6 -1 5 -1 4 -1 3 -1 2 -1 1 -1 0
2  12 -1 10 -1 9 1 8 -1 7 -1 6 -1 5 -1 4 -1 3 -1 2 -1 1 -1 0
2  4 1 5 1 6 1 7 1 8 1 9 -1 10 1 0
2  1 1 2 1 3 1 0
2  4 1 5 1 6 1 7 1 8 1 9 -1 10 1 12 1 0
Curve2ds 54
1 0.00000000000000000 0.00000000000000000 0.00000000000000000 -1.00000000000000000 
1 6.28318530717958623 0.00000000000000000 0.00000000000000000 -1.00000000000000000 
1 0.00000000000000000 0.00000000000000000 1.00000000000000000 0.00000000000000000 
1 0.00000000000000000 -5.00000000000000000 1.00000000000000000 0.00000000000000000 
1 0.00000000000000000 0.00000000000000000 1.00000000000000000 0.00000000000000000 
1 0.00000000000000000 -5.00000000000000000 1.00000000000000000 0.00000000000000000 
1 0.00000000000000000 0.00000000000000000 1.00000000000000000 0.00000000000000000 
1 0.00000000000000000 -556.85538247915042120 1.00000000000000000 0.00000000000000000 
1 0.00000000000000000 0.00000000000000000 1.00000000000000000 0.00000000000000000 
1 0.00000000000000000 -556.85538247915042120 1.00000000000000000 0.00000000000000000 
1 0.00000000000000000 0.00000000000000000 1.00000000000000000 0.00000000000000000 
1 0.00000000000000000 -556.85538247915042120 1.00000000000000000 0.00000000000000000 
1 0.00000000000000000 0.00000000000000000 1.00000000000000000 0.00000000000000000 
1 0.00000000000000000 -2974.29888094641728458 1.00000000000000000 0.00000000000000000 
1 0.00000000000000000 0.00000000000000000 1.00000000000000000 0.00000000000000000 
1 0.00000000000000000 -2974.29888094641728458 1.00000000000000000 0.00000000000000000 
1 0.00000000000000000 0.00000000000000000 1.00000000000000000 0.00000000000000000 
1 0.00000000000000000 -3153.73257603904994539 1.00000000000000000 0.00000000000000000 
1 0.00000000000000000 0.00000000000000000 0.00000000000000000 -1.00000000000000000 
1 6.28318530717958623 0.00000000000000000 0.00000000000000000 -1.00000000000000000 
1 0.00000000000000000 0.00000000000000000 1.00000000000000000 0.00000000000000000 
1 0.00000000000000000 -5.00000000000000000 1.00000000000000000 0.00000000000000000 
1 0.00000000000000000 0.00000000000000000 1.00000000000000000 0.00000000000000000 
1 0.00000000000000000 -5.00000000000000000 1.00000000000000000 0.00000000000000000 
1 0.00000000000000000 0.00000000000000000 1.00000000000000000 0.00000000000000000 
1 0.00000000000000000 -556.85538247915042120 1.00000000000000000 0.00000000000000000 
1 0.00000000000000000 0.00000000000000000 1.00000000000000000 0.00000000000000000 
1 0.00000000000000000 -556.85538247915042120 1.00000000000000000 0.00000000000000000 
1 0.00000000000000000 0.00000000000000000 1.00000000000000000 0.00000000000000000 
1 0.00000000000000000 -556.85538247915042120 1.00000000000000000 0.00000000000000000 
1 0.00000000000000000 0.00000000000000000 1.00000000000000000 0.00000000000000000 
1 0.00000000000000000 -2974.29888094641728458 1.00000000000000000 0.00000000000000000 
1 0.00000000000000000 0.00000000000000000 1.00000000000000000 0.00000000000000000 
1 0.00000000000000000 -2974.29888094641728458 1.00000000000000000 0.00000000000000000 
1 0.00000000000000000 0.00000000000000000 1.00000000000000000 0.00000000000000000 
1 0.00000000000000000 -3153.73257603904994539 1.00000000000000000 0.00000000000000000 
1 0.00000000000000000 0.00000000000000000 0.00000000000000000 -1.00000000000000000 
1 6.28318530717958623 0.00000000000000000 0.00000000000000000 -1.00000000000000000 
1 0.00000000000000000 0.00000000000000000 1.00000000000000000 0.00000000000000000 
1 0.00000000000000000 -5.00000000000000000 1.00000000000000000 0.00000000000000000 
1 0.00000000000000000 0.00000000000000000 1.00000000000000000 0.00000000000000000 
1 0.00000000000000000 -5.00000000000000000 1.00000000000000000 0.00000000000000000 
1 0.00000000000000000 0.00000000000000000 1.00000000000000000 0.00000000000000000 
1 0.00000000000000000 -556.85538247915042120 1.00000000000000000 0.00000000000000000 
1 0.00000000000000000 0.00000000000000000 1.00000000000000000 0.00000000000000000 
1 0.00000000000000000 -556.85538247915042120 1.00000000000000000 0.00000000000000000 
1 0.00000000000000000 0.00000000000000000 1.00000000000000000 0.00000000000000000 
1 0.00000000000000000 -556.85538247915042120 1.00000000000000000 0.00000000000000000 
1 0.00000000000000000 0.00000000000000000 1.00000000000000000 0.00000000000000000 
1 0.00000000000000000 -2974.29888094641728458 1.00000000000000000 0.00000000000000000 
1 0.00000000000000000 0.00000000000000000 1.00000000000000000 0.00000000000000000 
1 0.00000000000000000 -2974.29888094641728458 1.00000000000000000 0.00000000000000000 
1 0.00000000000000000 0.00000000000000000 1.00000000000000000 0.00000000000000000 
1 0.00000000000000000 -3153.73257603904994539 1.00000000000000000 0.00000000000000000 
Curves 6
1 1576.86628801952497270 297.20000000000004547 1421.00000000000045475 -1.00000000000000000 0.00000000000000022 -0.00000000000000022 
2 122.50000000000027001 -0.00000000000000000 0.00000000000000000 0.00000000000000000 0.00000000000000000 1.00000000000000000 1.00000000000000000 0.00000000000000000 -0.00000000000000000 -0.00000000000000000 1.00000000000000000 0.00000000000000000 1.70000000000008367
1 1576.86628801952497270 52.19999999999947704 1421.00000000000045475 -1.00000000000000000 0.00000000000000022 -0.00000000000000022 
2 -122.50000000000027001 -0.00000000000000000 0.00000000000000000 0.00000000000000000 0.00000000000000000 1.00000000000000000 1.00000000000000000 0.00000000000000000 -0.00000000000000000 -0.00000000000000000 1.00000000000000000 0.00000000000000000 1.70000000000008367
1 1576.86628801952497270 174.69999999999973284 1421.00000000000045475 -1.00000000000000000 0.00000000000000022 -0.00000000000000022 
2 0.00000000000000000 -0.00000000000000000 0.00000000000000000 0.00000000000000000 0.00000000000000000 1.00000000000000000 1.00000000000000000 0.00000000000000000 -0.00000000000000000 -0.00000000000000000 1.00000000000000000 0.00000000000000000 1.70000000000008367
Polygon3D 0
PolygonOnTriangulations 0
Surfaces 27
2 1576.86628801952497270 295.49999999999994316 1421.00000000000045475 1.00000000000000000 0.00000000000000000 0.00000000000000000 0.00000000000000000 1.00000000000000000 0.00000000000000000 0.00000000000000000 0.00000000000000000 1.00000000000000000 1.70000000000008367
2 0.00000000000002875 122.50000000000027001 -7.00000000000002576 1.00000000000000000 -0.00000000000000022 0.00000000000000022 0.00000000000000022 1.00000000000000000 -0.00000000000000022 -0.00000000000000022 0.00000000000000022 1.00000000000000000 1.70000000000008367
2 0.00000000000002875 122.50000000000027001 -7.00000000000002576 1.00000000000000000 -0.00000000000000022 0.00000000000000022 0.00000000000000022 1.00000000000000000 -0.00000000000000022 -0.00000000000000022 0.00000000000000022 1.00000000000000000 1.70000000000008367
2 0.00000000000002875 122.50000000000027001 -7.00000000000002576 1.00000000000000000 -0.00000000000000022 0.00000000000000022 0.00000000000000022 1.00000000000000000 -0.00000000000000022 -0.00000000000000022 0.00000000000000022 1.00000000000000000 1.70000000000008367
2 278.42769123957521060 122.50000000000021316 -6.99999999999994849 1.00000000000000000 -0.00000000000000022 0.00000000000000022 0.00000000000000022 1.00000000000000000 -0.00000000000000022 -0.00000000000000022 0.00000000000000022 1.00000000000000000 1.70000000000008367
2 278.42769123957521060 122.50000000000021316 -6.99999999999994849 1.00000000000000000 -0.00000000000000022 0.00000000000000022 0.00000000000000022 1.00000000000000000 -0.00000000000000022 -0.00000000000000022 0.00000000000000022 1.00000000000000000 1.70000000000008367
2 1487.14944047320864229 295.49999999999994316 1421.00000000000022737 1.00000000000000000 -0.00000000000000022 0.00000000000000022 0.00000000000000022 1.00000000000000000 -0.00000000000000022 -0.00000000000000022 0.00000000000000022 1.00000000000000000 1.70000000000008367
2 1487.14944047320864229 295.49999999999994316 1421.00000000000022737 1.00000000000000000 -0.00000000000000022 0.00000000000000022 0.00000000000000022 1.00000000000000000 -0.00000000000000022 -0.00000000000000022 0.00000000000000022 1.00000000000000000 1.70000000000008367
1 0.00000000000000155 -0.00000000000000751 -6.99999999999999822 1.00000000000000000 -0.00000000000000022 0.00000000000000022 0.00000000000000022 1.00000000000000000 0.00000000000000000 -0.00000000000000022 0.00000000000000000 1.00000000000000000 
2 1576.86628801952497270 50.49999999999938893 1421.00000000000045475 1.00000000000000000 0.00000000000000000 0.00000000000000000 0.00000000000000000 1.00000000000000000 0.00000000000000000 0.00000000000000000 0.00000000000000000 1.00000000000000000 1.70000000000008367
2 -0.00000000000002565 -122.50000000000027001 -6.99999999999997069 1.00000000000000000 -0.00000000000000022 0.00000000000000022 0.00000000000000022 1.00000000000000000 -0.00000000000000022 -0.00000000000000022 0.00000000000000022 1.00000000000000000 1.70000000000008367
2 -0.00000000000002565 -122.50000000000027001 -6.99999999999997069 1.00000000000000000 -0.00000000000000022 0.00000000000000022 0.00000000000000022 1.00000000000000000 -0.00000000000000022 -0.00000000000000022 0.00000000000000022 1.00000000000000000 1.70000000000008367
2 -0.00000000000002565 -122.50000000000027001 -6.99999999999997069 1.00000000000000000 -0.00000000000000022 0.00000000000000022 0.00000000000000022 1.00000000000000000 -0.00000000000000022 -0.00000000000000022 0.00000000000000022 1.00000000000000000 1.70000000000008367
2 278.42769123957521060 -122.50000000000032685 -6.99999999999989342 1.00000000000000000 -0.00000000000000022 0.00000000000000022 0.00000000000000022 1.00000000000000000 -0.00000000000000022 -0.00000000000000022 0.00000000000000022 1.00000000000000000 1.70000000000008367
2 278.42769123957521060 -122.50000000000032685 -6.99999999999989342 1.00000000000000000 -0.00000000000000022 0.00000000000000022 0.00000000000000022 1.00000000000000000 -0.00000000000000022 -0.00000000000000022 0.00000000000000022 1.00000000000000000 1.70000000000008367
2 1487.14944047320864229 50.49999999999938893 1421.00000000000022737 1.00000000000000000 -0.00000000000000022 0.00000000000000022 0.00000000000000022 1.00000000000000000 -0.00000000000000022 -0.00000000000000022 0.00000000000000022 1.00000000000000000 1.70000000000008367
2 1487.14944047320864229 50.49999999999938893 1421.00000000000022737 1.00000000000000000 -0.00000000000000022 0.00000000000000022 0.00000000000000022 1.00000000000000000 -0.00000000000000022 -0.00000000000000022 0.00000000000000022 1.00000000000000000 1.70000000000008367
1 0.00000000000000155 -0.00000000000000751 -6.99999999999999822 1.00000000000000000 -0.00000000000000022 0.00000000000000022 0.00000000000000022 1.00000000000000000 0.00000000000000000 -0.00000000000000022 0.00000000000000000 1.00000000000000000 
2 1576.86628801952497270 172.99999999999965894 1421.00000000000045475 1.00000000000000000 0.00000000000000000 0.00000000000000000 0.00000000000000000 1.00000000000000000 0.00000000000000000 0.00000000000000000 0.00000000000000000 1.00000000000000000 1.70000000000008367
2 0.00000000000000155 -0.00000000000000155 -6.99999999999999822 1.00000000000000000 -0.00000000000000022 0.00000000000000022 0.00000000000000022 1.00000000000000000 -0.00000000000000022 -0.00000000000000022 0.00000000000000022 1.00000000000000000 1.70000000000008367
2 0.00000000000000155 -0.00000000000000155 -6.99999999999999822 1.00000000000000000 -0.00000000000000022 0.00000000000000022 0.00000000000000022 1.00000000000000000 -0.00000000000000022 -0.00000000000000022 0.00000000000000022 1.00000000000000000 1.70000000000008367
2 0.00000000000000155 -0.00000000000000155 -6.99999999999999822 1.00000000000000000 -0.00000000000000022 0.00000000000000022 0.00000000000000022 1.00000000000000000 -0.00000000000000022 -0.00000000000000022 0.00000000000000022 1.00000000000000000 1.70000000000008367
2 278.42769123957521060 -0.00000000000006338 -6.99999999999992095 1.00000000000000000 -0.00000000000000022 0.00000000000000022 0.00000000000000022 1.00000000000000000 -0.00000000000000022 -0.00000000000000022 0.00000000000000022 1.00000000000000000 1.70000000000008367
2 278.42769123957521060 -0.00000000000006338 -6.99999999999992095 1.00000000000000000 -0.00000000000000022 0.00000000000000022 0.00000000000000022 1.00000000000000000 -0.00000000000000022 -0.00000000000000022 0.00000000000000022 1.00000000000000000 1.70000000000008367
2 1487.14944047320864229 172.99999999999965894 1421.00000000000022737 1.00000000000000000 -0.00000000000000022 0.00000000000000022 0.00000000000000022 1.00000000000000000 -0.00000000000000022 -0.00000000000000022 0.00000000000000022 1.00000000000000000 1.70000000000008367
2 1487.14944047320864229 172.99999999999965894 1421.00000000000022737 1.00000000000000000 -0.00000000000000022 0.00000000000000022 0.00000000000000022 1.00000000000000000 -0.00000000000000022 -0.00000000000000022 0.00000000000000022 1.00000000000000000 1.70000000000008367
1 0.00000000000000155 -0.00000000000000751 -6.99999999999999822 1.00000000000000000 -0.00000000000000022 0.00000000000000022 0.00000000000000022 1.00000000000000000 0.00000000000000000 -0.00000000000000022 0.00000000000000000 1.00000000000000000 
Triangulations 0

TShapes 28
Ve
0.000000100000000
124.200000000000358 -0.000000000000000 0.000000000000000
0 0

0101101
*
Ed
 0.000000100000000 1 1 0
1  1 0 0.000000000000000 3153.732576039049945
3  1 2CN 1 0 0.000000000000000 3153.732576039049945
0

0101000
+28 11 -28 13 *
Ed
 0.000000100000000 1 1 0
1  2 0 0.000000000000000 6.283185307179586
2  3 2 17 0.000000000000000 6.283185307179586
2  4 2 19 0.000000000000000 6.283185307179586
2  5 3 23 0.000000000000000 6.283185307179586
2  6 3 25 0.000000000000000 6.283185307179586
2  7 4 29 0.000000000000000 6.283185307179586
2  8 4 31 0.000000000000000 6.283185307179586
2  9 5 36 0.000000000000000 6.283185307179586
2  10 5 38 0.000000000000000 6.283185307179586
2  11 6 43 0.000000000000000 6.283185307179586
2  12 6 45 0.000000000000000 6.283185307179586
2  13 7 50 0.000000000000000 6.283185307179586
2  14 7 52 0.000000000000000 6.283185307179586
2  15 8 57 0.000000000000000 6.283185307179586
2  16 8 59 0.000000000000000 6.283185307179586
2  17 1 60 0.000000000000000 6.283185307179586
2  18 1 61 0.000000000000000 6.283185307179586
0

0101100
+28 0 -28 0 *
Wi

0101100
+27 0 -27 0 -26 11 +26 13 *
Fa
0  0.000000100000000 1 0

0101000
+25 0 *
Wi

0101100
+26 63 *
Fa
0  0.000000100000000 9 0

0101000
+23 0 *
Sh

0101100
+24 0 +22 62 -22 64 *
So

0100000
+21 0 *
Ve
0.000000100000000
-120.800000000000182 -0.000000000000000 0.000000000000000
0 0

0101101
*
Ed
 0.000000100000000 1 1 0
1  3 0 0.000000000000000 3153.732576039049945
3  19 20CN 10 0 0.000000000000000 3153.732576039049945
0

0101000
+19 11 -19 13 *
Ed
 0.000000100000000 1 1 0
1  4 0 0.000000000000000 6.283185307179586
2  21 11 17 0.000000000000000 6.283185307179586
2  22 11 19 0.000000000000000 6.283185307179586
2  23 12 23 0.000000000000000 6.283185307179586
2  24 12 25 0.000000000000000 6.283185307179586
2  25 13 29 0.000000000000000 6.283185307179586
2  26 13 31 0.000000000000000 6.283185307179586
2  27 14 36 0.000000000000000 6.283185307179586
2  28 14 38 0.000000000000000 6.283185307179586
2  29 15 43 0.000000000000000 6.283185307179586
2  30 15 45 0.000000000000000 6.283185307179586
2  31 16 50 0.000000000000000 6.283185307179586
2  32 16 52 0.000000000000000 6.283185307179586
2  33 17 57 0.000000000000000 6.283185307179586
2  34 17 59 0.000000000000000 6.283185307179586
2  35 10 60 0.000000000000000 6.283185307179586
2  36 10 61 0.000000000000000 6.283185307179586
0

0101100
+19 0 -19 0 *
Wi

0101100
+18 0 -18 0 -17 11 +17 13 *
Fa
0  0.000000100000000 10 0

0101000
+16 0 *
Wi

0101100
+17 63 *
Fa
0  0.000000100000000 18 0

0101000
+14 0 *
Sh

0101100
+15 0 +13 62 -13 64 *
So

0100000
+12 0 *
Ve
0.000000100000000
1.700000000000084 -0.000000000000000 0.000000000000000
0 0

0101101
*
Ed
 0.000000100000000 1 1 0
1  5 0 0.000000000000000 3153.732576039049945
3  37 38CN 19 0 0.000000000000000 3153.732576039049945
0

0101000
+10 11 -10 13 *
Ed
 0.000000100000000 1 1 0
1  6 0 0.000000000000000 6.283185307179586
2  39 20 17 0.000000000000000 6.283185307179586
2  40 20 19 0.000000000000000 6.283185307179586
2  41 21 23 0.000000000000000 6.283185307179586
2  42 21 25 0.000000000000000 6.283185307179586
2  43 22 29 0.000000000000000 6.283185307179586
2  44 22 31 0.000000000000000 6.283185307179586
2  45 23 36 0.000000000000000 6.283185307179586
2  46 23 38 0.000000000000000 6.283185307179586
2  47 24 43 0.000000000000000 6.283185307179586
2  48 24 45 0.000000000000000 6.283185307179586
2  49 25 50 0.000000000000000 6.283185307179586
2  50 25 52 0.000000000000000 6.283185307179586
2  51 26 57 0.000000000000000 6.283185307179586
2  52 26 59 0.000000000000000 6.283185307179586
2  53 19 60 0.000000000000000 6.283185307179586
2  54 19 61 0.000000000000000 6.283185307179586
0

0101100
+10 0 -10 0 *
Wi

0101100
+9 0 -9 0 -8 11 +8 13 *
Fa
0  0.000000100000000 19 0

0101000
+7 0 *
Wi

0101100
+8 63 *
Fa
0  0.000000100000000 27 0

0101000
+5 0 *
Sh

0101100
+6 0 +4 62 -4 64 *
So

0100000
+3 0 *
Co

1100000
+20 0 +11 0 +2 0 *

+1 0 