
CASCADE Topology V1, (c) Matra-Datavision
Locations 55
1
-1.000000000000000 0.000000000000000 0.000000000000000 0.000000000000000 
0.000000000000000 -1.000000000000000 0.000000000000000 0.000000000000000 
0.000000000000000 0.000000000000000 1.000000000000000 0.000000000000000 
1
0.000000000000000 0.000000000000000 1.000000000000000 41.299999999999415 
0.000000000000000 1.000000000000000 0.000000000000000 0.000000000000000 
-1.000000000000000 0.000000000000000 0.000000000000000 41.099999999999419 
1
1.000000000000000 0.000000000000000 0.000000000000000 0.000000000000000 
0.000000000000000 1.000000000000000 0.000000000000000 0.000000000000000 
0.000000000000000 0.000000000000000 1.000000000000000 0.000000000000000 
1
1.000000000000000 0.000000000000000 0.000000000000000 0.000000000000000 
0.000000000000000 1.000000000000000 0.000000000000000 0.000000000000000 
0.000000000000000 0.000000000000000 1.000000000000000 0.000000000000000 
1
1.000000000000000 0.000000000000000 0.000000000000000 0.000000000000000 
0.000000000000000 1.000000000000000 0.000000000000000 0.000000000000000 
0.000000000000000 0.000000000000000 1.000000000000000 0.000000000000000 
1
0.000000000000000 0.000000000000000 -1.000000000000000 41.099999999999419 
0.000000000000000 1.000000000000000 0.000000000000000 0.000000000000000 
1.000000000000000 0.000000000000000 0.000000000000000 -41.299999999999422 
1
1.000000000000000 0.000000000000000 0.000000000000000 0.298451302091030 
0.000000000000000 1.000000000000000 0.000000000000000 -0.000000000000000 
0.000000000000000 0.000000000000000 1.000000000000000 -0.000000000000000 
2  2 1 3 1 4 -1 5 1 6 1 7 1 0
2  7 -1 6 -1 5 -1 4 1 3 -1 2 -1 0
1
0.000000000000000 0.000000000000000 -1.000000000000000 41.099999999999419 
0.000000000000000 1.000000000000000 0.000000000000000 0.000000000000000 
1.000000000000000 0.000000000000000 0.000000000000000 -41.299999999999422 
1
1.000000000000000 0.000000000000000 0.000000000000000 0.298451302091030 
0.000000000000000 1.000000000000000 0.000000000000000 -0.000000000000000 
0.000000000000000 0.000000000000000 1.000000000000000 -0.000000000000000 
2  2 1 3 1 4 -1 5 1 10 1 11 1 0
1
0.000000000000000 0.000000000000000 -1.000000000000000 41.099999999999419 
0.000000000000000 1.000000000000000 0.000000000000000 0.000000000000000 
1.000000000000000 0.000000000000000 0.000000000000000 -41.299999999999422 
1
1.000000000000000 0.000000000000000 0.000000000000000 0.298451302091030 
0.000000000000000 1.000000000000000 0.000000000000000 -0.000000000000000 
0.000000000000000 0.000000000000000 1.000000000000000 -0.000000000000000 
2  2 1 3 1 4 -1 5 1 13 1 14 1 0
1
0.000000000000000 0.000000000000000 -1.000000000000000 41.099999999999419 
0.000000000000000 1.000000000000000 0.000000000000000 0.000000000000000 
1.000000000000000 0.000000000000000 0.000000000000000 -41.299999999999422 
1
1.000000000000000 0.000000000000000 0.000000000000000 0.298451302091030 
0.000000000000000 1.000000000000000 0.000000000000000 -0.000000000000000 
0.000000000000000 0.000000000000000 1.000000000000000 -0.000000000000000 
2  2 1 3 1 4 -1 5 1 16 1 17 1 0
1
1.000000000000000 0.000000000000000 0.000000000000000 0.000000000000000 
0.000000000000000 1.000000000000000 0.000000000000000 0.000000000000000 
0.000000000000000 0.000000000000000 1.000000000000000 -0.300000000000000 
1
0.000000000000000 0.000000000000000 -1.000000000000000 41.099999999999419 
0.000000000000000 1.000000000000000 0.000000000000000 0.000000000000000 
1.000000000000000 0.000000000000000 0.000000000000000 -41.299999999999422 
1
1.000000000000000 0.000000000000000 0.000000000000000 0.298451302091030 
0.000000000000000 1.000000000000000 0.000000000000000 -0.000000000000000 
0.000000000000000 0.000000000000000 1.000000000000000 -0.000000000000000 
2  19 1 2 1 3 1 4 -1 5 1 20 1 21 1 0
1
0.000000000000000 0.000000000000000 -1.000000000000000 -41.299999999999415 
0.000000000000000 1.000000000000000 0.000000000000000 0.000000000000000 
1.000000000000000 0.000000000000000 0.000000000000000 41.099999999999419 
1
0.000000000000000 0.000000000000000 1.000000000000000 -41.099999999999419 
0.000000000000000 1.000000000000000 0.000000000000000 0.000000000000000 
-1.000000000000000 0.000000000000000 0.000000000000000 -41.299999999999422 
1
1.000000000000000 0.000000000000000 0.000000000000000 -0.298451302091030 
0.000000000000000 1.000000000000000 0.000000000000000 -0.000000000000000 
0.000000000000000 0.000000000000000 1.000000000000000 0.000000000000000 
2  23 1 3 1 4 -1 5 1 24 1 25 1 0
1
0.000000000000000 0.000000000000000 1.000000000000000 -41.099999999999419 
0.000000000000000 1.000000000000000 0.000000000000000 0.000000000000000 
-1.000000000000000 0.000000000000000 0.000000000000000 -41.299999999999422 
1
1.000000000000000 0.000000000000000 0.000000000000000 -0.298451302091030 
0.000000000000000 1.000000000000000 0.000000000000000 -0.000000000000000 
0.000000000000000 0.000000000000000 1.000000000000000 0.000000000000000 
2  23 1 3 1 4 -1 5 1 27 1 28 1 0
1
1.000000000000000 0.000000000000000 0.000000000000000 0.000000000000000 
0.000000000000000 1.000000000000000 0.000000000000000 0.000000000000000 
0.000000000000000 0.000000000000000 1.000000000000000 0.000000000000000 
1
1.000000000000000 0.000000000000000 0.000000000000000 0.000000000000000 
0.000000000000000 1.000000000000000 0.000000000000000 0.000000000000000 
0.000000000000000 0.000000000000000 1.000000000000000 0.300000000000000 
1
1.000000000000000 0.000000000000000 0.000000000000000 0.000000000000000 
0.000000000000000 1.000000000000000 0.000000000000000 0.000000000000000 
0.000000000000000 0.000000000000000 1.000000000000000 0.000000000000000 
2  30 -1 31 1 32 1 3 1 4 -1 5 1 0
1
1.000000000000000 0.000000000000000 0.000000000000000 0.000000000000024 
0.000000000000000 1.000000000000000 0.000000000000000 -101.215914611281207 
0.000000000000000 0.000000000000000 1.000000000000000 -37.100000000000001 
2  34 1 5 1 0
1
1.000000000000000 0.000000000000000 0.000000000000000 -22.299999999999713 
0.000000000000000 1.000000000000000 0.000000000000000 -83.394112909449618 
0.000000000000000 0.000000000000000 1.000000000000000 -37.100000000000001 
2  36 1 5 1 0
1
1.000000000000000 0.000000000000000 0.000000000000000 22.299999999999713 
0.000000000000000 1.000000000000000 0.000000000000000 -83.394112909449419 
0.000000000000000 0.000000000000000 1.000000000000000 -37.100000000000001 
2  38 1 5 1 0
2  28 -1 27 -1 5 -1 4 1 3 -1 23 -1 0
1
0.000000000000000 0.000000000000000 1.000000000000000 -41.099999999999419 
0.000000000000000 1.000000000000000 0.000000000000000 0.000000000000000 
-1.000000000000000 0.000000000000000 0.000000000000000 -41.299999999999422 
1
1.000000000000000 0.000000000000000 0.000000000000000 -0.298451302091030 
0.000000000000000 1.000000000000000 0.000000000000000 -0.000000000000000 
0.000000000000000 0.000000000000000 1.000000000000000 0.000000000000000 
2  23 1 3 1 4 -1 5 1 41 1 42 1 0
1
0.000000000000000 0.000000000000000 1.000000000000000 -41.099999999999419 
0.000000000000000 1.000000000000000 0.000000000000000 0.000000000000000 
-1.000000000000000 0.000000000000000 0.000000000000000 -41.299999999999422 
1
1.000000000000000 0.000000000000000 0.000000000000000 -0.298451302091030 
0.000000000000000 1.000000000000000 0.000000000000000 -0.000000000000000 
0.000000000000000 0.000000000000000 1.000000000000000 0.000000000000000 
2  23 1 3 1 4 -1 5 1 44 1 45 1 0
1
1.000000000000000 0.000000000000000 0.000000000000000 0.000000000000000 
0.000000000000000 1.000000000000000 0.000000000000000 0.000000000000000 
0.000000000000000 0.000000000000000 1.000000000000000 -0.300000000000000 
1
0.000000000000000 0.000000000000000 1.000000000000000 -41.099999999999419 
0.000000000000000 1.000000000000000 0.000000000000000 0.000000000000000 
-1.000000000000000 0.000000000000000 0.000000000000000 -41.299999999999422 
1
1.000000000000000 0.000000000000000 0.000000000000000 -0.298451302091030 
0.000000000000000 1.000000000000000 0.000000000000000 -0.000000000000000 
0.000000000000000 0.000000000000000 1.000000000000000 0.000000000000000 
2  47 1 23 1 3 1 4 -1 5 1 48 1 49 1 0
2  5 -1 0
2  30 -1 32 1 3 1 4 -1 5 1 0
2  5 -1 34 -1 0
2  5 -1 36 -1 0
2  5 -1 38 -1 0
Curve2ds 34
1 31.00000000000000000 0.00000000000000000 0.00000000000000000 -1.00000000000000000 
1 0.00000000000000000 0.00000000000000000 0.00000000000000000 -1.00000000000000000 
1 29.90346387643147352 0.00000000000000000 0.00000000000000000 -1.00000000000000000 
1 0.00000000000000000 0.00000000000000000 0.00000000000000000 -1.00000000000000000 
1 15.49999999999999289 -14.95173193821574387 0.00000000000000000 1.00000000000000000 
1 0.00000000000000000 0.00000000000000000 1.00000000000000000 0.00000000000000000 
1 15.49999999999999289 -14.95173193821574387 0.00000000000000000 1.00000000000000000 
1 0.00000000000000000 -0.29999999999999999 1.00000000000000000 0.00000000000000000 
1 -15.49999999999999289 14.95173193821572966 0.00000000000000000 -1.00000000000000000 
1 0.00000000000000000 0.00000000000000000 1.00000000000000000 0.00000000000000000 
2 0.00000000000002430 -7.87006976361605837 -1.00000000000000000 0.00000000000000000 -0.00000000000000000 -1.00000000000000000 1.69999999999999996
1 6.28318530717958623 37.39999999999999858 -1.00000000000000000 0.00000000000000000 
2 -22.29999999999971294 9.95173193821553070 -1.00000000000000000 0.00000000000000000 -0.00000000000000000 -1.00000000000000000 1.69999999999999996
1 6.28318530717958623 37.39999999999999858 -1.00000000000000000 0.00000000000000000 
2 22.29999999999971294 9.95173193821572966 -1.00000000000000000 0.00000000000000000 -0.00000000000000000 -1.00000000000000000 1.69999999999999996
1 6.28318530717958623 37.39999999999999858 -1.00000000000000000 0.00000000000000000 
1 31.00000000000000000 0.00000000000000000 0.00000000000000000 -1.00000000000000000 
1 0.00000000000000000 0.00000000000000000 0.00000000000000000 -1.00000000000000000 
1 29.90346387643147352 0.00000000000000000 0.00000000000000000 -1.00000000000000000 
1 0.00000000000000000 0.00000000000000000 0.00000000000000000 -1.00000000000000000 
1 -15.49999999999999289 14.95173193821572966 0.00000000000000000 -1.00000000000000000 
1 0.00000000000000000 -0.29999999999999999 1.00000000000000000 0.00000000000000000 
2 0.00000000000002430 -7.87006976361605837 -1.00000000000000000 0.00000000000000000 -0.00000000000000000 -1.00000000000000000 1.69999999999999996
1 6.28318530717958623 37.10000000000000142 -1.00000000000000000 0.00000000000000000 
1 6.28318530717958623 0.00000000000000000 0.00000000000000000 1.00000000000000000 
1 0.00000000000000000 0.00000000000000000 0.00000000000000000 1.00000000000000000 
2 -22.29999999999971294 9.95173193821553070 -1.00000000000000000 0.00000000000000000 -0.00000000000000000 -1.00000000000000000 1.69999999999999996
1 6.28318530717958623 37.10000000000000142 -1.00000000000000000 0.00000000000000000 
1 6.28318530717958623 0.00000000000000000 0.00000000000000000 1.00000000000000000 
1 0.00000000000000000 0.00000000000000000 0.00000000000000000 1.00000000000000000 
2 22.29999999999971294 9.95173193821572966 -1.00000000000000000 0.00000000000000000 -0.00000000000000000 -1.00000000000000000 1.69999999999999996
1 6.28318530717958623 37.10000000000000142 -1.00000000000000000 0.00000000000000000 
1 6.28318530717958623 0.00000000000000000 0.00000000000000000 1.00000000000000000 
1 0.00000000000000000 0.00000000000000000 0.00000000000000000 1.00000000000000000 
Curves 21
1 72.49845130209045863 -108.29757678588089220 0.29999999999999999 0.00000000000000000 0.00000000000000000 -1.00000000000000000 
1 72.49845130209045863 -78.39411290944941868 0.29999999999999999 0.00000000000000000 0.00000000000000000 -1.00000000000000000 
1 72.49845130209045863 -108.29757678588089220 0.29999999999999999 0.00000000000000000 1.00000000000000000 0.00000000000000000 
1 72.49845130209045863 -108.29757678588089220 0.00000000000000000 0.00000000000000000 1.00000000000000000 0.00000000000000000 
1 72.49845130209045863 -78.39411290944941868 0.29999999999999999 -1.00000000000000000 0.00000000000000000 0.00000000000000000 
1 -72.49845130209045863 -78.39411290944941868 0.29999999999999999 0.00000000000000000 -1.00000000000000000 0.00000000000000000 
1 -72.49845130209045863 -108.29757678588089220 0.29999999999999999 1.00000000000000000 0.00000000000000000 0.00000000000000000 
2 0.00000000000002430 -101.21591461128120670 0.29999999999999716 0.00000000000000000 0.00000000000000000 1.00000000000000000 -1.00000000000000000 0.00000000000000000 0.00000000000000000 0.00000000000000000 -1.00000000000000000 0.00000000000000000 1.69999999999999996
2 -22.29999999999971294 -83.39411290944961763 0.29999999999999716 0.00000000000000000 0.00000000000000000 1.00000000000000000 -1.00000000000000000 0.00000000000000000 0.00000000000000000 0.00000000000000000 -1.00000000000000000 0.00000000000000000 1.69999999999999996
2 22.29999999999971294 -83.39411290944941868 0.29999999999999716 0.00000000000000000 0.00000000000000000 1.00000000000000000 -1.00000000000000000 0.00000000000000000 0.00000000000000000 0.00000000000000000 -1.00000000000000000 0.00000000000000000 1.69999999999999996
1 -72.49845130209045863 -78.39411290944941868 0.29999999999999999 0.00000000000000000 0.00000000000000000 -1.00000000000000000 
1 -72.49845130209045863 -108.29757678588089220 0.29999999999999999 0.00000000000000000 0.00000000000000000 -1.00000000000000000 
1 -72.49845130209045863 -78.39411290944941868 0.00000000000000000 0.00000000000000000 -1.00000000000000000 0.00000000000000000 
2 0.00000000000002430 -101.21591461128120670 0.00000000000000000 0.00000000000000000 0.00000000000000000 1.00000000000000000 -1.00000000000000000 0.00000000000000000 0.00000000000000000 0.00000000000000000 -1.00000000000000000 0.00000000000000000 1.69999999999999996
1 -1.69999999999999996 0.00000000000000000 0.00000000000000000 0.00000000000000006 0.00000000000000000 1.00000000000000000 
2 -22.29999999999971294 -83.39411290944961763 0.00000000000000000 0.00000000000000000 0.00000000000000000 1.00000000000000000 -1.00000000000000000 0.00000000000000000 0.00000000000000000 0.00000000000000000 -1.00000000000000000 0.00000000000000000 1.69999999999999996
1 -1.69999999999999996 0.00000000000000000 0.00000000000000000 0.00000000000000006 0.00000000000000000 1.00000000000000000 
2 22.29999999999971294 -83.39411290944941868 0.00000000000000000 0.00000000000000000 0.00000000000000000 1.00000000000000000 -1.00000000000000000 0.00000000000000000 0.00000000000000000 0.00000000000000000 -1.00000000000000000 0.00000000000000000 1.69999999999999996
1 -1.69999999999999996 0.00000000000000000 0.00000000000000000 0.00000000000000006 0.00000000000000000 1.00000000000000000 
1 -72.49845130209045863 -108.29757678588089220 0.00000000000000000 1.00000000000000000 0.00000000000000000 0.00000000000000000 
1 -41.49845130209045863 -78.39411290944941868 0.00000000000000000 -1.00000000000000000 0.00000000000000000 0.00000000000000000 
Polygon3D 0
PolygonOnTriangulations 0
Surfaces 19
1 72.19999999999942020 -108.29757678588089220 0.29999999999999999 1.00000000000000000 -0.00000000000000000 0.00000000000000000 0.00000000000000000 1.00000000000000000 0.00000000000000000 -0.00000000000000000 0.00000000000000000 1.00000000000000000 
1 41.19999999999942020 -108.29757678588089220 0.29999999999999999 0.00000000000000000 -1.00000000000000000 0.00000000000000000 1.00000000000000000 0.00000000000000000 0.00000000000000000 -0.00000000000000000 0.00000000000000000 1.00000000000000000 
1 72.19999999999942020 -78.39411290944941868 0.29999999999999999 0.00000000000000000 1.00000000000000000 0.00000000000000000 -1.00000000000000000 0.00000000000000000 0.00000000000000000 0.00000000000000000 -0.00000000000000000 1.00000000000000000 
1 56.69999999999942730 -93.34584484766514834 0.29999999999999999 0.00000000000000000 0.00000000000000000 1.00000000000000000 1.00000000000000000 0.00000000000000000 -0.00000000000000000 -0.00000000000000000 1.00000000000000000 0.00000000000000000 
1 56.69999999999942730 -93.34584484766514834 0.29999999999999999 0.00000000000000000 0.00000000000000000 1.00000000000000000 1.00000000000000000 0.00000000000000000 -0.00000000000000000 -0.00000000000000000 1.00000000000000000 0.00000000000000000 
1 -0.00000000000000146 -93.34584484766513413 0.29999999999999988 -0.00000000000000000 0.00000000000000000 1.00000000000000000 0.00000000000000000 1.00000000000000000 -0.00000000000000000 -1.00000000000000000 0.00000000000000000 -0.00000000000000000 
1 -56.69999999999942730 -93.34584484766514834 0.29999999999999999 0.00000000000000000 0.00000000000000000 1.00000000000000000 1.00000000000000000 0.00000000000000000 -0.00000000000000000 -0.00000000000000000 1.00000000000000000 0.00000000000000000 
1 -72.19999999999942020 -78.39411290944941868 0.29999999999999999 -1.00000000000000000 -0.00000000000000000 -0.00000000000000000 0.00000000000000000 -1.00000000000000000 0.00000000000000000 -0.00000000000000000 0.00000000000000000 1.00000000000000000 
1 0.00000000000000000 -93.34584484766514834 0.00000000000000000 0.00000000000000000 0.00000000000000000 1.00000000000000000 1.00000000000000000 0.00000000000000000 -0.00000000000000000 -0.00000000000000000 1.00000000000000000 0.00000000000000000 
2 0.00000000000000000 0.00000000000000000 0.00000000000000000 0.00000000000000000 0.00000000000000000 1.00000000000000000 -1.00000000000000000 0.00000000000000000 0.00000000000000000 -0.00000000000000000 1.00000000000000000 -0.00000000000000000 1.69999999999999996
2 0.00000000000000000 0.00000000000000000 0.00000000000000000 0.00000000000000000 0.00000000000000000 1.00000000000000000 -1.00000000000000000 0.00000000000000000 0.00000000000000000 -0.00000000000000000 1.00000000000000000 -0.00000000000000000 1.69999999999999996
2 0.00000000000000000 0.00000000000000000 0.00000000000000000 0.00000000000000000 0.00000000000000000 1.00000000000000000 -1.00000000000000000 0.00000000000000000 0.00000000000000000 -0.00000000000000000 1.00000000000000000 -0.00000000000000000 1.69999999999999996
1 -41.19999999999942020 -78.39411290944941868 0.29999999999999999 0.00000000000000000 1.00000000000000000 0.00000000000000000 -1.00000000000000000 0.00000000000000000 0.00000000000000000 0.00000000000000000 -0.00000000000000000 1.00000000000000000 
1 -72.19999999999942020 -108.29757678588089220 0.29999999999999999 0.00000000000000000 -1.00000000000000000 0.00000000000000000 1.00000000000000000 0.00000000000000000 0.00000000000000000 -0.00000000000000000 0.00000000000000000 1.00000000000000000 
1 -56.69999999999942730 -93.34584484766514834 0.29999999999999999 0.00000000000000000 0.00000000000000000 1.00000000000000000 1.00000000000000000 0.00000000000000000 -0.00000000000000000 -0.00000000000000000 1.00000000000000000 0.00000000000000000 
1 0.00000000000000000 -93.34584484766514834 0.00000000000000000 0.00000000000000000 0.00000000000000000 1.00000000000000000 1.00000000000000000 0.00000000000000000 -0.00000000000000000 -0.00000000000000000 1.00000000000000000 0.00000000000000000 
1 -0.00000000000000156 -108.29757678588084957 0.14999999999999991 -0.00000000000000000 -1.00000000000000000 -0.00000000000000000 0.00000000000000000 0.00000000000000000 -1.00000000000000000 1.00000000000000000 -0.00000000000000000 0.00000000000000000 
1 0.00000000000000000 -93.34584484766511991 0.00000000000000000 -0.00000000000000000 -0.00000000000000000 -1.00000000000000000 -1.00000000000000000 0.00000000000000000 0.00000000000000000 0.00000000000000000 1.00000000000000000 -0.00000000000000000 
1 0.00000000000000156 -78.39411290944937605 0.14999999999999991 0.00000000000000000 1.00000000000000000 0.00000000000000000 0.00000000000000000 -0.00000000000000000 1.00000000000000000 1.00000000000000000 0.00000000000000000 -0.00000000000000000 
Triangulations 0

TShapes 61
Ve
0.000000100000000
72.498451302090459 -108.297576785880892 0.300000000000004
0 0

0101101
*
Ve
0.000000100000000
72.498451302090459 -108.297576785880892 0.000000000000007
0 0

0101101
*
Ed
 0.000000100000000 1 1 0
1  1 0 0.000000000000000 0.300000000000000
2  1 2 12 0.000000000000000 0.300000000000000
2  2 1 8 0.000000000000000 0.300000000000000
4 C0 2 12 1 8
0

0101000
+61 0 -60 0 *
Ve
0.000000100000000
72.498451302090459 -78.394112909449419 0.300000000000004
0 0

0101101
*
Ve
0.000000100000000
72.498451302090459 -78.394112909449419 0.000000000000007
0 0

0101101
*
Ed
 0.000000100000000 1 1 0
1  2 0 0.000000000000000 0.300000000000000
2  3 1 8 0.000000000000000 0.300000000000000
2  4 3 15 0.000000000000000 0.300000000000000
4 C0 1 8 3 15
0

0101000
+58 0 -57 0 *
Ed
 0.000000100000000 1 1 0
1  3 0 0.000000000000000 29.903463876431474
2  5 4 18 0.000000000000000 29.903463876431474
2  6 1 8 0.000000000000000 29.903463876431474
4 C0 4 18 1 8
0

0101000
+61 0 -58 0 *
Ed
 0.000000100000000 1 1 0
1  4 0 0.000000000000000 29.903463876431474
2  7 5 22 0.000000000000000 29.903463876431474
2  8 1 8 0.000000000000000 29.903463876431474
4 C0 5 22 1 8
0

0101000
+60 0 -57 0 *
Wi

0101100
+59 9 -56 9 -55 9 +54 9 *
Fa
0  0.000000100000000 1 0

0111000
+53 0 *
Ve
0.000000100000000
-72.498451302090459 -78.394112909449419 0.300000000000004
0 0

0101101
*
Ed
 0.000000100000000 1 1 0
1  5 0 0.000000000000000 144.996902604180917
0

0101000
+58 0 -51 0 *
Ve
0.000000100000000
-72.498451302090459 -108.297576785880892 0.300000000000004
0 0

0101101
*
Ed
 0.000000100000000 1 1 0
1  6 0 0.000000000000000 29.903463876431474
2  9 7 26 0.000000000000000 29.903463876431474
2  10 8 29 0.000000000000000 29.903463876431474
4 C0 7 26 8 29
0

0101000
+51 0 -49 0 *
Ed
 0.000000100000000 1 1 0
1  7 0 0.000000000000000 144.996902604180917
0

0101000
+49 0 -61 0 *
Wi

0101000
+55 0 +50 0 +48 0 +47 0 *
Ve
0.000000100000002
-1.699999999999974 -101.215914611281207 0.299999999999997
0 0

0101101
*
Ed
 0.000000100000000 1 1 0
1  8 0 0.000000000000000 6.283185307179586
2  11 9 33 0.000000000000000 6.283185307179586
2  12 10 35 0.000000000000000 6.283185307179586
4 C0 9 33 10 35
0

0101000
+45 0 -45 0 *
Wi

0101100
-44 0 *
Ve
0.000000100000004
-23.999999999999709 -83.394112909449618 0.299999999999997
0 0

0101101
*
Ed
 0.000000100000000 1 1 0
1  9 0 0.000000000000000 6.283185307179586
2  13 9 33 0.000000000000000 6.283185307179586
2  14 11 37 0.000000000000000 6.283185307179586
4 C0 9 33 11 37
0

0101000
+42 0 -42 0 *
Wi

0101100
-41 0 *
Ve
0.000000100000004
20.599999999999717 -83.394112909449419 0.299999999999997
0 0

0101101
*
Ed
 0.000000100000000 1 1 0
1  10 0 0.000000000000000 6.283185307179586
2  15 9 33 0.000000000000000 6.283185307179586
2  16 12 39 0.000000000000000 6.283185307179586
4 C0 9 33 12 39
0

0101000
+39 0 -39 0 *
Wi

0101100
-38 0 *
Fa
0  0.000000100000000 6 0

0111000
+46 0 +43 0 +40 0 +37 0 *
Ve
0.000000100000000
-72.498451302090459 -78.394112909449419 0.000000000000007
0 0

0101101
*
Ed
 0.000000100000000 1 1 0
1  11 0 0.000000000000000 0.300000000000000
2  17 13 43 0.000000000000000 0.300000000000000
2  18 8 29 0.000000000000000 0.300000000000000
4 C0 13 43 8 29
0

0101000
+51 0 -35 0 *
Ve
0.000000100000000
-72.498451302090459 -108.297576785880892 0.000000000000007
0 0

0101101
*
Ed
 0.000000100000000 1 1 0
1  12 0 0.000000000000000 0.300000000000000
2  19 8 29 0.000000000000000 0.300000000000000
2  20 14 46 0.000000000000000 0.300000000000000
4 C0 8 29 14 46
0

0101000
+49 0 -33 0 *
Ed
 0.000000100000000 1 1 0
1  13 0 0.000000000000000 29.903463876431474
2  21 15 50 0.000000000000000 29.903463876431474
2  22 8 29 0.000000000000000 29.903463876431474
4 C0 15 50 8 29
0

0101000
+35 0 -33 0 *
Wi

0101100
+34 40 -32 40 -48 40 +31 40 *
Fa
0  0.000000100000000 8 0

0111000
+30 0 *
Ve
0.000000100000002
-1.699999999999974 -101.215914611281207 0.000000000000000
0 0

0101101
*
Ed
 0.000000100000000 1 1 0
1  14 0 0.000000000000000 6.283185307179586
2  23 16 52 0.000000000000000 6.283185307179586
2  24 10 35 0.000000000000000 6.283185307179586
4 C0 16 52 10 35
0

0101000
+28 0 -28 0 *
Ed
 0.000000100000000 1 1 0
1  15 0 37.100000000000001 37.399999999999999
3  25 26CN 10 0 37.100000000000001 37.399999999999999
0

0101000
+28 53 -45 53 *
Wi

0101100
-27 51 -26 34 +44 51 +26 34 *
Fa
0  0.000000100000000 10 34

0111000
+25 0 *
Ve
0.000000100000004
-23.999999999999709 -83.394112909449618 0.000000000000000
0 0

0101101
*
Ed
 0.000000100000000 1 1 0
1  16 0 0.000000000000000 6.283185307179586
2  27 16 52 0.000000000000000 6.283185307179586
2  28 11 37 0.000000000000000 6.283185307179586
4 C0 16 52 11 37
0

0101000
+23 0 -23 0 *
Ed
 0.000000100000000 1 1 0
1  17 0 37.100000000000001 37.399999999999999
3  29 30CN 11 0 37.100000000000001 37.399999999999999
0

0101000
+23 54 -42 54 *
Wi

0101100
-22 51 -21 36 +41 51 +21 36 *
Fa
0  0.000000100000000 11 36

0111000
+20 0 *
Ve
0.000000100000004
20.599999999999717 -83.394112909449419 0.000000000000000
0 0

0101101
*
Ed
 0.000000100000000 1 1 0
1  18 0 0.000000000000000 6.283185307179586
2  31 16 52 0.000000000000000 6.283185307179586
2  32 12 39 0.000000000000000 6.283185307179586
4 C0 16 52 12 39
0

0101000
+18 0 -18 0 *
Ed
 0.000000100000000 1 1 0
1  19 0 37.100000000000001 37.399999999999999
3  33 34CN 12 0 37.100000000000001 37.399999999999999
0

0101000
+18 55 -39 55 *
Wi

0101100
-17 51 -16 38 +38 51 +16 38 *
Fa
0  0.000000100000000 12 38

0111000
+15 0 *
Ed
 0.000000100000000 1 1 0
1  20 0 0.000000000000000 144.996902604180917
0

0101000
+33 0 -60 0 *
Wi

0101000
-59 0 -47 0 +32 0 +13 0 *
Fa
0  0.000000100000000 17 0

0111000
+12 0 *
Ed
 0.000000100000000 1 1 0
1  21 0 -113.996902604180917 31.000000000000000
0

0101000
+57 0 -35 0 *
Wi

0101000
-13 0 -31 0 -10 0 -54 0 *
Wi

0101100
+27 0 *
Wi

0101100
+22 0 *
Wi

0101100
+17 0 *
Fa
0  0.000000100000000 18 0

0111000
+9 0 +8 0 +7 0 +6 0 *
Wi

0101000
+56 0 +10 0 -34 0 -50 0 *
Fa
0  0.000000100000000 19 0

0111000
+4 0 *
Sh

0101000
+52 8 +36 0 +29 29 +24 5 +19 5 +14 5 +11 0 +5 0 +3 0 *
So

0100000
+2 0 *

+1 1 