
CASCADE Topology V1, (c) Matra-Datavision
Locations 20
1
1.000000000000000 0.000000000000000 0.000000000000000 0.000000000000000 
0.000000000000000 1.000000000000000 0.000000000000000 0.000000000000000 
0.000000000000000 0.000000000000000 1.000000000000000 0.000000000000000 
1
1.000000000000000 0.000000000000000 0.000000000000000 0.000000000000000 
0.000000000000000 1.000000000000000 0.000000000000000 0.000000000000000 
0.000000000000000 0.000000000000000 1.000000000000000 0.000000000000000 
1
1.000000000000000 0.000000000000000 0.000000000000000 0.000000000000000 
0.000000000000000 1.000000000000000 0.000000000000000 0.000000000000000 
0.000000000000000 0.000000000000000 1.000000000000000 0.000000000000000 
2  2 1 3 -1 0
1
1.000000000000000 0.000000000000000 0.000000000000000 0.000000000000000 
0.000000000000000 1.000000000000000 0.000000000000000 0.000000000000000 
0.000000000000000 0.000000000000000 1.000000000000000 0.000000000000000 
1
1.000000000000000 0.000000000000000 0.000000000000000 0.000000000000000 
0.000000000000000 1.000000000000000 0.000000000000000 0.000000000000000 
0.000000000000000 0.000000000000000 1.000000000000000 0.000000000000000 
1
1.000000000000000 0.000000000000000 0.000000000000000 0.000000000000000 
0.000000000000000 1.000000000000000 0.000000000000000 0.000000000000000 
0.000000000000000 0.000000000000000 1.000000000000000 0.000000000000000 
2  5 1 6 1 7 -1 0
1
1.000000000000000 0.000000000000000 0.000000000000000 0.000000000000000 
0.000000000000000 1.000000000000000 0.000000000000000 0.000000000000000 
0.000000000000000 0.000000000000000 1.000000000000000 3.000000000000000 
2  5 1 6 1 7 -1 9 1 0
2  7 1 6 -1 5 -1 0
2  9 -1 7 1 6 -1 5 -1 0
2  5 1 6 1 7 -1 2 1 3 -1 0
1
1.000000000000000 0.000000000000000 0.000000000000000 -30.300000000000011 
0.000000000000000 1.000000000000000 0.000000000000000 289.500000000000000 
0.000000000000000 0.000000000000000 1.000000000000000 3.000000000000000 
1
1.000000000000000 0.000000000000000 0.000000000000000 -30.299999999999990 
0.000000000000000 1.000000000000000 0.000000000000000 369.500000000000000 
0.000000000000000 0.000000000000000 1.000000000000000 3.000000000000000 
2  5 1 6 1 7 -1 9 1 2 1 3 -1 0
2  5 1 6 1 7 -1 9 1 2 1 3 -1 14 -1 0
2  5 1 6 1 7 -1 9 1 2 1 3 -1 15 -1 0
2  14 -1 0
2  15 -1 0
Curve2ds 100
1 3.33445468330086392 0.00000000000000000 0.00000000000000000 -1.00000000000000000 
1 6.47604733689065526 0.00000000000000000 0.00000000000000000 -1.00000000000000000 
1 3.66519142925880548 0.00000000000000000 0.00000000000000000 -1.00000000000000000 
1 2.94873062387872187 0.00000000000000000 0.00000000000000000 -1.00000000000000000 
1 0.00000000000000000 0.00000000000000000 1.00000000000000000 0.00000000000000000 
1 0.00000000000000000 -3.00000000000000000 1.00000000000000000 0.00000000000000000 
2 930.37557344124957126 537.15258786147887804 1.00000000000000000 0.00000000000000000 -0.00000000000000000 1.00000000000000000 901.30517559137683747
1 1.51987028381113998 0.00000000000000000 0.00000000000000000 -1.00000000000000000 
1 7.80305559099072621 0.00000000000000000 0.00000000000000000 -1.00000000000000000 
1 0.00000000000000000 0.00000000000000000 1.00000000000000000 0.00000000000000000 
1 0.00000000000000000 -3.00000000000000000 1.00000000000000000 0.00000000000000000 
2 18.30000000000017479 359.03392597357702698 1.00000000000000000 0.00000000000000000 -0.00000000000000000 1.00000000000000000 28.00000000000015632
1 2.61799387792078031 0.00000000000000000 0.00000000000000000 -1.00000000000000000 
1 6.47604733689065792 0.00000000000000000 0.00000000000000000 -1.00000000000000000 
1 0.00000000000000000 0.00000000000000000 1.00000000000000000 0.00000000000000000 
1 0.00000000000000000 -3.00000000000000000 1.00000000000000000 0.00000000000000000 
7 0 0  6 7 2  338.47065402137445744 -142.55292631601719222  301.00338904903054527 -109.92547516415335451  265.69434375276279070 -74.81966408958932391  232.74843721585187950 -37.41394119069283875  202.35092505806042595 2.09064231225897945  174.66362325525165033 43.47373028081047153  149.82239484880247460 86.50000001022721108 
 2.61799387792078031 7 2.94873062387872187 7
1 0.00000000000000000 0.00000000000000000 1.00000000000000000 0.00000000000000000 
1 0.00000000000000000 -3.00000000000000000 1.00000000000000000 0.00000000000000000 
2 -0.00000000000022053 0.00000000000001764 1.00000000000000000 0.00000000000000000 -0.00000000000000000 1.00000000000000000 387.50000000000011369
1 0.00000000000000000 0.00000000000000000 1.00000000000000000 0.00000000000000000 
1 0.00000000000000000 -3.00000000000000000 1.00000000000000000 0.00000000000000000 
2 320.08250071357934985 -163.66869809753302434 0.50000000000000033 0.86602540378443860 0.86602540378443860 -0.50000000000000033 28.00000000000018829
1 0.00000000000000000 0.00000000000000000 1.00000000000000000 0.00000000000000000 
1 0.00000000000000000 -3.00000000000000000 1.00000000000000000 0.00000000000000000 
2 0.00000000000017826 0.00000000000001764 -1.00000000000000000 0.00000000000000000 0.00000000000000000 1.00000000000000000 387.50000000000011369
1 0.00000000000000000 0.00000000000000000 1.00000000000000000 0.00000000000000000 
1 0.00000000000000000 -3.00000000000000000 1.00000000000000000 0.00000000000000000 
2 -0.00000000000013429 0.00000000000000467 0.50000000000000033 0.86602540378443860 0.86602540378443860 -0.50000000000000033 387.50000000000022737
1 0.00000000000000000 0.00000000000000000 1.00000000000000000 0.00000000000000000 
1 0.00000000000000000 -3.00000000000000000 1.00000000000000000 0.00000000000000000 
2 -18.30000000000021743 359.03392597357702698 -1.00000000000000000 0.00000000000000000 0.00000000000000000 1.00000000000000000 28.00000000000015632
1 0.00000000000000000 0.00000000000000000 1.00000000000000000 0.00000000000000000 
1 0.00000000000000000 -3.00000000000000000 1.00000000000000000 0.00000000000000000 
2 0.00000000000006510 0.00000000000035004 -0.50000000000000033 -0.86602540378443860 0.86602540378443860 -0.50000000000000033 387.50000000000022737
1 0.00000000000000000 0.00000000000000000 1.00000000000000000 0.00000000000000000 
1 0.00000000000000000 -3.00000000000000000 1.00000000000000000 0.00000000000000000 
7 0 0  6 7 2  -45.78087143720502894 364.40064797605265312  -55.30344050928283650 315.63931912374829380  -68.05144207217874452 267.50788337652267046  -83.97279508108854884 220.27302991540167909  -102.98601188167313580 174.19572042343216367  -124.98116644808035858 129.52626971567747205  -149.82239486061229172 86.49999998977241944 
 2.61799387792078031 7 2.94873062387872187 7
1 0.00000000000000000 0.00000000000000000 1.00000000000000000 0.00000000000000000 
1 0.00000000000000000 -3.00000000000000000 1.00000000000000000 0.00000000000000000 
2 301.78250071357916795 -195.36522787604383211 -0.50000000000000033 -0.86602540378443860 0.86602540378443860 -0.50000000000000033 28.00000000000018829
1 0.00000000000000000 0.00000000000000000 1.00000000000000000 0.00000000000000000 
1 0.00000000000000000 -3.00000000000000000 1.00000000000000000 0.00000000000000000 
2 -930.37557351721864052 537.15258772989716363 -0.50000000000000056 0.86602540378443837 -0.86602540378443837 -0.50000000000000056 901.30517559137695116
1 0.00000000000000000 0.00000000000000000 1.00000000000000000 0.00000000000000000 
1 0.00000000000000000 -3.00000000000000000 1.00000000000000000 0.00000000000000000 
2 0.00000007596821679 -1074.30517559137615535 -0.50000000000000033 -0.86602540378443860 0.86602540378443860 -0.50000000000000033 901.30517559137695116
1 0.00000000000000000 0.00000000000000000 1.00000000000000000 0.00000000000000000 
1 0.00000000000000000 -3.00000000000000000 1.00000000000000000 0.00000000000000000 
2 -320.08250071357917932 -163.66869809753328013 -0.50000000000000056 0.86602540378443837 -0.86602540378443837 -0.50000000000000056 28.00000000000016342
1 0.00000000000000000 0.00000000000000000 1.00000000000000000 0.00000000000000000 
1 0.00000000000000000 -3.00000000000000000 1.00000000000000000 0.00000000000000000 
7 0 0  6 7 2  -292.68978258416933613 -221.84772166003551774  -245.69994853974756666 -205.71384395959481139  -197.64290168058366248 -192.68821928693245127  -148.77564213476330224 -182.85908872471011932  -99.36491317638696330 -176.28636273568994852  -49.68245680717132018 -172.99999999648815674  0.00000001180959627 -172.99999999999937472 
 2.61799387792078031 7 2.94873062387872187 7
1 0.00000000000000000 0.00000000000000000 1.00000000000000000 0.00000000000000000 
1 0.00000000000000000 -3.00000000000000000 1.00000000000000000 0.00000000000000000 
2 0.00000000000019860 -0.00000000000012323 -0.50000000000000056 0.86602540378443837 -0.86602540378443837 -0.50000000000000056 387.50000000000028422
1 0.00000000000000000 0.00000000000000000 1.00000000000000000 0.00000000000000000 
1 0.00000000000000000 -3.00000000000000000 1.00000000000000000 0.00000000000000000 
2 -301.78250071357899742 -195.36522787604411633 0.50000000000000056 -0.86602540378443837 -0.86602540378443837 -0.50000000000000056 28.00000000000018829
1 0.00000000000000000 0.00000000000000000 1.00000000000000000 0.00000000000000000 
1 0.00000000000000000 -3.00000000000000000 1.00000000000000000 0.00000000000000000 
2 -0.00000000000000079 0.00000000000022214 0.50000000000000056 -0.86602540378443837 -0.86602540378443837 -0.50000000000000056 387.50000000000028422
2 -30.30000000000003268 289.50000000000005684 1.00000000000000000 0.00000000000000000 0.00000000000000000 -1.00000000000000000 2.75000000000000000
1 6.28318530717958623 3.00000000000000000 -1.00000000000000000 0.00000000000000000 
2 -30.30000000000001137 369.50000000000005684 1.00000000000000000 0.00000000000000000 0.00000000000000000 -1.00000000000000000 2.75000000000000000
1 6.28318530717958623 3.00000000000000000 -1.00000000000000000 0.00000000000000000 
2 0.00000000000000000 0.00000000000000000 -1.00000000000000000 0.00000000000000000 0.00000000000000000 1.00000000000000000 2.75000000000000000
1 0.00000000000000000 0.00000000000000000 1.00000000000000000 0.00000000000000000 
2 -30.30000000000003268 289.50000000000005684 1.00000000000000000 0.00000000000000000 -0.00000000000000000 1.00000000000000000 2.75000000000000000
2 -30.30000000000001137 369.50000000000005684 1.00000000000000000 0.00000000000000000 -0.00000000000000000 1.00000000000000000 2.75000000000000000
1 1.57079632679489567 0.00000000000000000 0.00000000000000000 -1.00000000000000000 
1 1.57079632679489656 0.00000000000000000 0.00000000000000000 -1.00000000000000000 
1 7.80305559099072621 0.00000000000000000 0.00000000000000000 -1.00000000000000000 
1 1.51987028381113998 0.00000000000000000 0.00000000000000000 -1.00000000000000000 
1 7.80305559099072621 0.00000000000000000 0.00000000000000000 -1.00000000000000000 
1 1.51987028381113998 0.00000000000000000 0.00000000000000000 -1.00000000000000000 
1 1.57079632679489589 0.00000000000000000 0.00000000000000000 -1.00000000000000000 
1 1.57079632679489656 0.00000000000000000 0.00000000000000000 -1.00000000000000000 
1 2.61799387792078031 0.00000000000000000 0.00000000000000000 -1.00000000000000000 
1 6.47604733689065704 0.00000000000000000 0.00000000000000000 -1.00000000000000000 
1 1.51987028381113998 0.00000000000000000 0.00000000000000000 -1.00000000000000000 
1 7.80305559099072710 0.00000000000000000 0.00000000000000000 -1.00000000000000000 
1 3.66519142925880592 0.00000000000000000 0.00000000000000000 -1.00000000000000000 
1 2.94873062387872187 0.00000000000000000 0.00000000000000000 -1.00000000000000000 
1 6.47604733689065615 0.00000000000000000 0.00000000000000000 -1.00000000000000000 
1 3.33445468330086392 0.00000000000000000 0.00000000000000000 -1.00000000000000000 
1 6.47604733689065526 0.00000000000000000 0.00000000000000000 -1.00000000000000000 
1 3.33445468330086392 0.00000000000000000 0.00000000000000000 -1.00000000000000000 
1 3.66519142925880548 0.00000000000000000 0.00000000000000000 -1.00000000000000000 
1 2.94873062387872187 0.00000000000000000 0.00000000000000000 -1.00000000000000000 
1 1.51987028381113998 0.00000000000000000 0.00000000000000000 -1.00000000000000000 
1 7.80305559099072621 0.00000000000000000 0.00000000000000000 -1.00000000000000000 
1 2.61799387792078031 0.00000000000000000 0.00000000000000000 -1.00000000000000000 
1 6.47604733689065792 0.00000000000000000 0.00000000000000000 -1.00000000000000000 
1 1.57079632679489567 0.00000000000000000 0.00000000000000000 -1.00000000000000000 
1 1.57079632679489678 0.00000000000000000 0.00000000000000000 -1.00000000000000000 
1 7.80305559099072532 0.00000000000000000 0.00000000000000000 -1.00000000000000000 
1 1.51987028381113998 0.00000000000000000 0.00000000000000000 -1.00000000000000000 
1 6.28318530717958623 0.00000000000000000 0.00000000000000000 1.00000000000000000 
1 0.00000000000000000 0.00000000000000000 0.00000000000000000 1.00000000000000000 
Curves 40
1 45.78087143720472341 364.40064797605305102 0.00000000000000000 0.00000000000000000 0.00000000000000000 1.00000000000000000 
1 149.82239484869634794 86.50000001041098585 0.00000000000000000 0.00000000000000000 0.00000000000000000 1.00000000000000000 
2 930.37557344124957126 537.15258786147876435 0.00000000000000000 0.00000000000000000 -0.00000000000000000 1.00000000000000000 1.00000000000000000 0.00000000000000000 0.00000000000000000 -0.00000000000000000 1.00000000000000000 0.00000000000000000 901.30517559137683747
1 19.72531293463167756 386.99762535399480612 0.00000000000000000 0.00000000000000000 0.00000000000000000 1.00000000000000000 
2 18.30000000000019611 359.03392597357697014 0.00000000000000000 0.00000000000000000 -0.00000000000000000 1.00000000000000000 1.00000000000000000 0.00000000000000000 0.00000000000000000 -0.00000000000000000 1.00000000000000000 0.00000000000000000 28.00000000000015632
1 338.47065402137445744 -142.55292631601724906 0.00000000000000000 0.00000000000000000 0.00000000000000000 1.00000000000000000 
7 0 0  6 7 2  338.47065402137445744 -142.55292631601724906 0.00000000000000000  301.00338904903054527 -109.92547516415341136 0.00000000000000000  265.69434375276279070 -74.81966408958938075 0.00000000000000000  232.74843721585190792 -37.41394119069289559 0.00000000000000000  202.35092505806045438 2.09064231225892172 0.00000000000000000  174.66362325525167876 43.47373028081041468 0.00000000000000000  149.82239484880250302 86.50000001022715423 0.00000000000000000 
 2.61799387792078031 7 2.94873062387872187 7
2 -0.00000000000019940 -0.00000000000004015 0.00000000000000000 0.00000000000000000 -0.00000000000000000 1.00000000000000000 1.00000000000000000 0.00000000000000000 0.00000000000000000 -0.00000000000000000 1.00000000000000000 0.00000000000000000 387.50000000000011369
2 320.08250071357934985 -163.66869809753308118 0.00000000000000000 0.00000000000000000 0.00000000000000000 -1.00000000000000000 0.50000000000000033 0.86602540378443860 0.00000000000000000 0.86602540378443860 -0.50000000000000033 0.00000000000000000 28.00000000000018829
2 0.00000000000019940 -0.00000000000004015 0.00000000000000000 0.00000000000000000 0.00000000000000000 -1.00000000000000000 -1.00000000000000000 0.00000000000000000 0.00000000000000000 0.00000000000000000 1.00000000000000000 0.00000000000000000 387.50000000000011369
2 -0.00000000000011316 -0.00000000000005313 0.00000000000000000 0.00000000000000000 0.00000000000000000 -1.00000000000000000 0.50000000000000033 0.86602540378443860 0.00000000000000000 0.86602540378443860 -0.50000000000000033 0.00000000000000000 387.50000000000017053
2 -18.30000000000019611 359.03392597357697014 0.00000000000000000 0.00000000000000000 0.00000000000000000 -1.00000000000000000 -1.00000000000000000 0.00000000000000000 0.00000000000000000 0.00000000000000000 1.00000000000000000 0.00000000000000000 28.00000000000015632
2 0.00000000000008624 0.00000000000029224 0.00000000000000000 0.00000000000000000 0.00000000000000000 1.00000000000000000 -0.50000000000000033 -0.86602540378443860 0.00000000000000000 0.86602540378443860 -0.50000000000000033 0.00000000000000000 387.50000000000017053
7 0 0  6 7 2  -45.78087143720500762 364.40064797605259628 0.00000000000000000  -55.30344050928281519 315.63931912374823696 0.00000000000000000  -68.05144207217873031 267.50788337652261362 0.00000000000000000  -83.97279508108853463 220.27302991540162225 0.00000000000000000  -102.98601188167312159 174.19572042343210683 0.00000000000000000  -124.98116644808034437 129.52626971567741521 0.00000000000000000  -149.82239486061226330 86.49999998977236260 0.00000000000000000 
 2.61799387792078031 7 2.94873062387872187 7
2 301.78250071357916795 -195.36522787604388895 0.00000000000000000 0.00000000000000000 0.00000000000000000 1.00000000000000000 -0.50000000000000033 -0.86602540378443860 0.00000000000000000 0.86602540378443860 -0.50000000000000033 0.00000000000000000 28.00000000000018829
2 -930.37557351721864052 537.15258772989704994 0.00000000000000000 0.00000000000000000 0.00000000000000000 1.00000000000000000 -0.50000000000000056 0.86602540378443837 0.00000000000000000 -0.86602540378443837 -0.50000000000000056 0.00000000000000000 901.30517559137695116
2 0.00000007596823792 -1074.30517559137615535 0.00000000000000000 0.00000000000000000 0.00000000000000000 1.00000000000000000 -0.50000000000000033 -0.86602540378443860 0.00000000000000000 0.86602540378443860 -0.50000000000000033 0.00000000000000000 901.30517559137672379
2 -320.08250071357917932 -163.66869809753333698 0.00000000000000000 0.00000000000000000 0.00000000000000000 1.00000000000000000 -0.50000000000000056 0.86602540378443837 0.00000000000000000 -0.86602540378443837 -0.50000000000000056 0.00000000000000000 28.00000000000016342
7 0 0  6 7 2  -292.68978258416933613 -221.84772166003557459 0.00000000000000000  -245.69994853974753823 -205.71384395959486824 0.00000000000000000  -197.64290168058363406 -192.68821928693250811 0.00000000000000000  -148.77564213476327382 -182.85908872471017617 0.00000000000000000  -99.36491317638694909 -176.28636273569000537 0.00000000000000000  -49.68245680717129886 -172.99999999648821358 0.00000000000000000  0.00000001180961741 -172.99999999999943157 0.00000000000000000 
 2.61799387792078031 7 2.94873062387872187 7
2 0.00000000000021974 -0.00000000000018103 0.00000000000000000 0.00000000000000000 0.00000000000000000 1.00000000000000000 -0.50000000000000056 0.86602540378443837 0.00000000000000000 -0.86602540378443837 -0.50000000000000056 0.00000000000000000 387.50000000000028422
2 -301.78250071357899742 -195.36522787604417317 0.00000000000000000 -0.00000000000000000 0.00000000000000000 -1.00000000000000000 0.50000000000000056 -0.86602540378443837 -0.00000000000000000 -0.86602540378443837 -0.50000000000000056 0.00000000000000000 28.00000000000018829
2 0.00000000000002034 0.00000000000016434 0.00000000000000000 -0.00000000000000000 0.00000000000000000 -1.00000000000000000 0.50000000000000056 -0.86602540378443837 -0.00000000000000000 -0.86602540378443837 -0.50000000000000056 0.00000000000000000 387.50000000000028422
2 -30.30000000000001137 289.50000000000000000 0.00000000000000000 0.00000000000000000 0.00000000000000000 -1.00000000000000000 1.00000000000000000 0.00000000000000000 0.00000000000000000 0.00000000000000000 -1.00000000000000000 0.00000000000000000 2.75000000000000000
2 -30.29999999999999005 369.50000000000000000 0.00000000000000000 0.00000000000000000 0.00000000000000000 -1.00000000000000000 1.00000000000000000 0.00000000000000000 0.00000000000000000 0.00000000000000000 -1.00000000000000000 0.00000000000000000 2.75000000000000000
2 0.00000000000000000 0.00000000000000000 0.00000000000000000 0.00000000000000000 0.00000000000000000 1.00000000000000000 1.00000000000000000 0.00000000000000000 -0.00000000000000000 -0.00000000000000000 1.00000000000000000 0.00000000000000000 2.75000000000000000
1 -0.00000000000016850 387.50000000000005684 0.00000000000000000 0.00000000000000000 0.00000000000000000 1.00000000000000000 
1 345.01243122812815045 -176.41619057800861015 0.00000000000000000 0.00000000000000000 0.00000000000000000 1.00000000000000000 
1 -19.72531293463167401 386.99762535399480612 0.00000000000000000 0.00000000000000000 0.00000000000000000 1.00000000000000000 
1 335.58484396647008907 -193.75000000000002842 0.00000000000000000 0.00000000000000000 0.00000000000000000 1.00000000000000000 
1 -45.78087143720501473 364.40064797605259628 0.00000000000000000 0.00000000000000000 0.00000000000000000 1.00000000000000000 
1 325.28711829349651907 -210.58143477598630966 0.00000000000000000 0.00000000000000000 0.00000000000000000 1.00000000000000000 
1 -149.82239486071830470 86.49999998958865888 0.00000000000000000 0.00000000000000000 0.00000000000000000 1.00000000000000000 
1 292.68978258417030247 -221.84772166003506300 0.00000000000000000 0.00000000000000000 0.00000000000000000 1.00000000000000000 
1 -338.47065402137457113 -142.55292631601838593 0.00000000000000000 0.00000000000000000 0.00000000000000000 1.00000000000000000 
1 0.00000001202193862 -172.99999999999937472 0.00000000000000000 0.00000000000000000 0.00000000000000000 1.00000000000000000 
1 -345.01243122812809361 -176.41619057800892278 0.00000000000000000 0.00000000000000000 0.00000000000000000 1.00000000000000000 
1 -292.68978258416933613 -221.84772166003554617 0.00000000000000000 0.00000000000000000 0.00000000000000000 1.00000000000000000 
1 -335.58484396646991854 -193.75000000000051159 0.00000000000000000 0.00000000000000000 0.00000000000000000 1.00000000000000000 
1 -325.28711829349629170 -210.58143477598656546 0.00000000000000000 0.00000000000000000 0.00000000000000000 1.00000000000000000 
1 2.75000000000000000 0.00000000000000000 -0.00000000000000000 -0.00000000000000005 0.00000000000000000 -1.00000000000000000 
Polygon3D 0
PolygonOnTriangulations 0
Surfaces 21
2 930.37557344124957126 537.15258786147876435 0.00000000000000000 -0.00000000000000000 -0.00000000000000000 -1.00000000000000000 1.00000000000000000 0.00000000000000000 0.00000000000000000 -0.00000000000000000 1.00000000000000000 -0.00000000000000000 901.30517559137683747
2 18.30000000000019611 359.03392597357697014 0.00000000000000000 -0.00000000000000000 -0.00000000000000000 -1.00000000000000000 1.00000000000000000 0.00000000000000000 0.00000000000000000 -0.00000000000000000 1.00000000000000000 -0.00000000000000000 28.00000000000015632
6 -0.00000000000000000 -0.00000000000000000 -1.00000000000000000 
7 0 0  6 7 2  338.47065402137445744 -142.55292631601724906 0.00000000000000000  301.00338904903054527 -109.92547516415341136 0.00000000000000000  265.69434375276279070 -74.81966408958938075 0.00000000000000000  232.74843721585190792 -37.41394119069289559 0.00000000000000000  202.35092505806045438 2.09064231225892172 0.00000000000000000  174.66362325525167876 43.47373028081041468 0.00000000000000000  149.82239484880250302 86.50000001022715423 0.00000000000000000 
 2.61799387792078031 7 2.94873062387872187 7
1 0.00000000000002114 -0.00000000000005780 0.00000000000000000 0.00000000000000000 0.00000000000000000 1.00000000000000000 1.00000000000000000 0.00000000000000000 -0.00000000000000000 -0.00000000000000000 1.00000000000000000 0.00000000000000000 
2 -0.00000000000019940 -0.00000000000004015 0.00000000000000000 -0.00000000000000000 -0.00000000000000000 -1.00000000000000000 1.00000000000000000 0.00000000000000000 0.00000000000000000 -0.00000000000000000 1.00000000000000000 -0.00000000000000000 387.50000000000011369
2 320.08250071357934985 -163.66869809753308118 0.00000000000000000 0.00000000000000000 0.00000000000000000 -1.00000000000000000 0.50000000000000033 0.86602540378443860 0.00000000000000000 0.86602540378443860 -0.50000000000000033 0.00000000000000000 28.00000000000018829
2 0.00000000000019940 -0.00000000000004015 0.00000000000000000 0.00000000000000000 0.00000000000000000 -1.00000000000000000 -1.00000000000000000 0.00000000000000000 0.00000000000000000 0.00000000000000000 1.00000000000000000 0.00000000000000000 387.50000000000011369
2 -0.00000000000011316 -0.00000000000005313 0.00000000000000000 0.00000000000000000 0.00000000000000000 -1.00000000000000000 0.50000000000000033 0.86602540378443860 0.00000000000000000 0.86602540378443860 -0.50000000000000033 0.00000000000000000 387.50000000000017053
2 -18.30000000000019611 359.03392597357697014 0.00000000000000000 0.00000000000000000 0.00000000000000000 -1.00000000000000000 -1.00000000000000000 0.00000000000000000 0.00000000000000000 0.00000000000000000 1.00000000000000000 0.00000000000000000 28.00000000000015632
2 0.00000000000008624 0.00000000000029224 0.00000000000000000 -0.00000000000000000 -0.00000000000000000 -1.00000000000000000 -0.50000000000000033 -0.86602540378443860 0.00000000000000000 0.86602540378443860 -0.50000000000000033 -0.00000000000000000 387.50000000000017053
6 -0.00000000000000000 -0.00000000000000000 -1.00000000000000000 
7 0 0  6 7 2  -45.78087143720500762 364.40064797605259628 0.00000000000000000  -55.30344050928281519 315.63931912374823696 0.00000000000000000  -68.05144207217873031 267.50788337652261362 0.00000000000000000  -83.97279508108853463 220.27302991540162225 0.00000000000000000  -102.98601188167312159 174.19572042343210683 0.00000000000000000  -124.98116644808034437 129.52626971567741521 0.00000000000000000  -149.82239486061226330 86.49999998977236260 0.00000000000000000 
 2.61799387792078031 7 2.94873062387872187 7
2 301.78250071357916795 -195.36522787604388895 0.00000000000000000 -0.00000000000000000 -0.00000000000000000 -1.00000000000000000 -0.50000000000000033 -0.86602540378443860 0.00000000000000000 0.86602540378443860 -0.50000000000000033 -0.00000000000000000 28.00000000000018829
2 -930.37557351721864052 537.15258772989704994 0.00000000000000000 -0.00000000000000000 -0.00000000000000000 -1.00000000000000000 -0.50000000000000056 0.86602540378443837 0.00000000000000000 -0.86602540378443837 -0.50000000000000056 0.00000000000000000 901.30517559137695116
2 0.00000007596823792 -1074.30517559137615535 0.00000000000000000 -0.00000000000000000 -0.00000000000000000 -1.00000000000000000 -0.50000000000000033 -0.86602540378443860 0.00000000000000000 0.86602540378443860 -0.50000000000000033 -0.00000000000000000 901.30517559137672379
2 -320.08250071357917932 -163.66869809753333698 0.00000000000000000 -0.00000000000000000 -0.00000000000000000 -1.00000000000000000 -0.50000000000000056 0.86602540378443837 0.00000000000000000 -0.86602540378443837 -0.50000000000000056 0.00000000000000000 28.00000000000016342
6 -0.00000000000000000 -0.00000000000000000 -1.00000000000000000 
7 0 0  6 7 2  -292.68978258416933613 -221.84772166003557459 0.00000000000000000  -245.69994853974753823 -205.71384395959486824 0.00000000000000000  -197.64290168058363406 -192.68821928693250811 0.00000000000000000  -148.77564213476327382 -182.85908872471017617 0.00000000000000000  -99.36491317638694909 -176.28636273569000537 0.00000000000000000  -49.68245680717129886 -172.99999999648821358 0.00000000000000000  0.00000001180961741 -172.99999999999943157 0.00000000000000000 
 2.61799387792078031 7 2.94873062387872187 7
2 0.00000000000021974 -0.00000000000018103 0.00000000000000000 -0.00000000000000000 -0.00000000000000000 -1.00000000000000000 -0.50000000000000056 0.86602540378443837 0.00000000000000000 -0.86602540378443837 -0.50000000000000056 0.00000000000000000 387.50000000000028422
2 -301.78250071357899742 -195.36522787604417317 0.00000000000000000 0.00000000000000000 -0.00000000000000000 -1.00000000000000000 0.50000000000000056 -0.86602540378443837 0.00000000000000000 -0.86602540378443837 -0.50000000000000056 0.00000000000000000 28.00000000000018829
2 0.00000000000002034 0.00000000000016434 0.00000000000000000 0.00000000000000000 -0.00000000000000000 -1.00000000000000000 0.50000000000000056 -0.86602540378443837 0.00000000000000000 -0.86602540378443837 -0.50000000000000056 0.00000000000000000 387.50000000000028422
2 0.00000000000000000 0.00000000000000000 0.00000000000000000 -0.00000000000000000 -0.00000000000000000 -1.00000000000000000 1.00000000000000000 0.00000000000000000 0.00000000000000000 -0.00000000000000000 1.00000000000000000 -0.00000000000000000 2.75000000000000000
1 0.00000000000000000 0.00000000000000000 0.00000000000000000 0.00000000000000000 0.00000000000000000 1.00000000000000000 -1.00000000000000000 -0.00000000000000000 0.00000000000000000 -0.00000000000000000 1.00000000000000000 -0.00000000000000000 
Triangulations 0

TShapes 112
Ve
0.000000100000000
45.780871437204723 364.400647976053051 0.000000000000000
0 0

0101101
*
Ed
 0.000000100000000 1 1 0
1  1 0 0.000000000000000 3.000000000000000
2  1 1 0 0.000000000000000 3.000000000000000
2  2 2 0 0.000000000000000 3.000000000000000
4 G1 1 0 2 0
0

0101000
+112 8 -112 10 *
Ve
0.000000100212280
149.822394848696348 86.500000010410986 0.000000000000000
0 0

0101101
*
Ed
 0.000000100212280 1 1 0
1  2 0 0.000000000000000 3.000000000000000
2  3 1 0 0.000000000000000 3.000000000000000
2  4 3 0 0.000000000000000 3.000000000000000
4 C1 1 0 3 0
0

0101000
+110 8 -110 10 *
Ed
 0.000000100000000 1 1 0
1  3 0 3.334454683300864 3.665191429258805
2  5 1 11 3.334454683300864 3.665191429258805
2  6 1 12 3.334454683300864 3.665191429258805
2  7 4 0 3.334454683300864 3.665191429258805
0

0101000
+112 0 -110 0 *
Wi

0101100
+111 0 -109 0 -108 8 +108 10 *
Fa
0  0.000000100000000 1 0

0101000
+107 0 *
Ve
0.000000100000000
19.725312934631678 386.997625353994806 0.000000000000000
0 0

0101101
*
Ed
 0.000000100000000 1 1 0
1  4 0 0.000000000000000 3.000000000000000
2  8 5 0 0.000000000000000 3.000000000000000
2  9 2 0 0.000000000000000 3.000000000000000
4 G1 5 0 2 0
0

0101000
+105 8 -105 10 *
Ed
 0.000000100000000 1 1 0
1  5 0 6.476047336890655 7.803055590990726
2  10 2 11 6.476047336890655 7.803055590990726
2  11 2 12 6.476047336890655 7.803055590990726
2  12 4 0 6.476047336890655 7.803055590990726
0

0101000
+112 0 -105 0 *
Wi

0101100
+111 0 -104 0 -103 8 +103 10 *
Fa
0  0.000000100000000 2 0

0101000
+102 0 *
Ve
0.000000100000000
338.470654021374457 -142.552926316017249 0.000000000000000
0 0

0101101
*
Ed
 0.000000100000000 1 1 0
1  6 0 0.000000000000000 3.000000000000000
2  13 3 0 0.000000000000000 3.000000000000000
2  14 6 0 0.000000000000000 3.000000000000000
4 G1 3 0 6 0
0

0101000
+100 8 -100 10 *
Ed
 0.000000100000000 1 1 0
1  7 0 2.617993877920780 2.948730623878722
2  15 3 11 2.617993877920780 2.948730623878722
2  16 3 12 2.617993877920780 2.948730623878722
2  17 4 0 2.617993877920780 2.948730623878722
0

0101000
+100 0 -110 0 *
Wi

0101100
+99 0 -109 0 -98 8 +98 10 *
Fa
0  0.000000100000000 3 0

0101000
+97 0 *
Ve
0.000000100000000
-0.000000000000168 387.500000000000057 0.000000000000000
0 0

0101101
*
Ed
 0.000000100000000 1 1 0
1  8 0 1.519870283811140 1.570796326794897
2  18 5 11 1.519870283811140 1.570796326794897
2  19 5 12 1.519870283811140 1.570796326794897
2  20 4 0 1.519870283811140 1.570796326794897
0

0101000
+105 0 -95 0 *
Ve
0.000000100000000
345.012431228128150 -176.416190578008610 0.000000000000000
0 0

0101101
*
Ed
 0.000000100000000 1 1 0
1  9 0 6.476047336890658 7.803055590990726
2  21 6 11 6.476047336890658 7.803055590990726
2  22 6 12 6.476047336890658 7.803055590990726
2  23 4 0 6.476047336890658 7.803055590990726
0

0101000
+100 0 -93 0 *
Ve
0.000000100000000
-19.725312934631674 386.997625353994806 0.000000000000000
0 0

0101101
*
Ed
 0.000000100000000 1 1 0
1  10 0 1.519870283811140 1.570796326794896
2  24 7 11 1.519870283811140 1.570796326794896
2  25 7 12 1.519870283811140 1.570796326794896
2  26 4 0 1.519870283811140 1.570796326794896
0

0101000
+91 0 -95 0 *
Ve
0.000000100000000
335.584843966470089 -193.750000000000028 0.000000000000000
0 0

0101101
*
Ed
 0.000000100000000 1 1 0
1  11 0 1.519870283811140 1.570796326794896
2  27 8 11 1.519870283811140 1.570796326794896
2  28 8 12 1.519870283811140 1.570796326794896
2  29 4 0 1.519870283811140 1.570796326794896
0

0101000
+93 0 -89 0 *
Ve
0.000000100000007
-45.780871437205015 364.400647976052596 0.000000000000000
0 0

0101101
*
Ed
 0.000000100000000 1 1 0
1  12 0 6.476047336890657 7.803055590990726
2  30 9 11 6.476047336890657 7.803055590990726
2  31 9 12 6.476047336890657 7.803055590990726
2  32 4 0 6.476047336890657 7.803055590990726
0

0101000
+87 0 -91 0 *
Ve
0.000000100000000
325.287118293496519 -210.581434775986310 0.000000000000000
0 0

0101101
*
Ed
 0.000000100000000 1 1 0
1  13 0 1.519870283811140 1.570796326794897
2  33 10 11 1.519870283811140 1.570796326794897
2  34 10 12 1.519870283811140 1.570796326794897
2  35 4 0 1.519870283811140 1.570796326794897
0

0101000
+85 0 -89 0 *
Ve
0.000000100212120
-149.822394860718305 86.499999989588659 0.000000000000000
0 0

0101101
*
Ed
 0.000000100000000 1 1 0
1  14 0 2.617993877920780 2.948730623878722
2  36 11 11 2.617993877920780 2.948730623878722
2  37 11 12 2.617993877920780 2.948730623878722
2  38 4 0 2.617993877920780 2.948730623878722
0

0101000
+87 0 -83 0 *
Ve
0.000000100000000
292.689782584170302 -221.847721660035063 0.000000000000000
0 0

0101101
*
Ed
 0.000000100000000 1 1 0
1  15 0 6.476047336890656 7.803055590990727
2  39 12 11 6.476047336890656 7.803055590990727
2  40 12 12 6.476047336890656 7.803055590990727
2  41 4 0 6.476047336890656 7.803055590990727
0

0101000
+81 0 -85 0 *
Ve
0.000000100000000
-338.470654021374571 -142.552926316018386 0.000000000000000
0 0

0101101
*
Ed
 0.000000100000000 1 1 0
1  16 0 3.334454683300864 3.665191429258806
2  42 13 11 3.334454683300864 3.665191429258806
2  43 13 12 3.334454683300864 3.665191429258806
2  44 4 0 3.334454683300864 3.665191429258806
0

0101000
+79 0 -83 0 *
Ve
0.000000100212321
0.000000012021939 -172.999999999999375 0.000000000000000
0 0

0101101
*
Ed
 0.000000100000000 1 1 0
1  17 0 3.334454683300864 3.665191429258805
2  45 14 11 3.334454683300864 3.665191429258805
2  46 14 12 3.334454683300864 3.665191429258805
2  47 4 0 3.334454683300864 3.665191429258805
0

0101000
+81 0 -77 0 *
Ve
0.000000100000000
-345.012431228128094 -176.416190578008923 0.000000000000000
0 0

0101101
*
Ed
 0.000000100000000 1 1 0
1  18 0 6.476047336890655 7.803055590990726
2  48 15 11 6.476047336890655 7.803055590990726
2  49 15 12 6.476047336890655 7.803055590990726
2  50 4 0 6.476047336890655 7.803055590990726
0

0101000
+79 0 -75 0 *
Ve
0.000000100000028
-292.689782584169336 -221.847721660035546 0.000000000000000
0 0

0101101
*
Ed
 0.000000100000000 1 1 0
1  19 0 2.617993877920780 2.948730623878722
2  51 16 11 2.617993877920780 2.948730623878722
2  52 16 12 2.617993877920780 2.948730623878722
2  53 4 0 2.617993877920780 2.948730623878722
0

0101000
+73 0 -77 0 *
Ve
0.000000100000000
-335.584843966469919 -193.750000000000512 0.000000000000000
0 0

0101101
*
Ed
 0.000000100000000 1 1 0
1  20 0 1.519870283811140 1.570796326794897
2  54 17 11 1.519870283811140 1.570796326794897
2  55 17 12 1.519870283811140 1.570796326794897
2  56 4 0 1.519870283811140 1.570796326794897
0

0101000
+75 0 -71 0 *
Ve
0.000000100000000
-325.287118293496292 -210.581434775986565 0.000000000000000
0 0

0101101
*
Ed
 0.000000100000000 1 1 0
1  21 0 6.476047336890658 7.803055590990725
2  57 18 11 6.476047336890658 7.803055590990725
2  58 18 12 6.476047336890658 7.803055590990725
2  59 4 0 6.476047336890658 7.803055590990725
0

0101000
+73 0 -69 0 *
Ed
 0.000000100000000 1 1 0
1  22 0 1.519870283811140 1.570796326794896
2  60 19 11 1.519870283811140 1.570796326794896
2  61 19 12 1.519870283811140 1.570796326794896
2  62 4 0 1.519870283811140 1.570796326794896
0

0101000
+69 0 -71 0 *
Wi

0101100
-108 13 +103 13 +98 13 +94 13 -92 13 -90 13 -88 13 -86 13 +84 13 +82 13 
+80 13 -78 13 -76 13 +74 13 +72 13 +70 13 -68 13 -67 13 *
Ve
0.000000100000000
-27.550000000000011 289.500000000000000 0.000000000000000
0 0

0101101
*
Ed
 0.000000100000000 1 1 0
1  23 0 0.000000000000000 6.283185307179586
2  63 4 13 0.000000000000000 6.283185307179586
2  64 20 14 0.000000000000000 6.283185307179586
0

0101100
+65 0 -65 0 *
Wi

0101100
+64 0 *
Ve
0.000000100000000
-27.549999999999990 369.500000000000000 0.000000000000000
0 0

0101101
*
Ed
 0.000000100000000 1 1 0
1  24 0 0.000000000000000 6.283185307179586
2  65 4 13 0.000000000000000 6.283185307179586
2  66 20 15 0.000000000000000 6.283185307179586
0

0101100
+62 0 -62 0 *
Wi

0101100
+61 0 *
Fa
0  0.000000100000000 4 13

0101000
+66 0 +63 0 +60 0 *
Wi

0101100
-108 16 +103 16 +98 16 +94 16 -92 16 -90 16 -88 16 -86 16 +84 16 +82 16 
+80 16 -78 16 -76 16 +74 16 +72 16 +70 16 -68 16 -67 16 *
Ve
0.000000100000000
2.750000000000000 0.000000000000000 -0.000000000000000
0 0

0101101
*
Ed
 0.000000100000000 1 1 0
1  25 0 0.000000000000000 6.283185307179586
2  67 21 0 0.000000000000000 6.283185307179586
2  68 20 0 0.000000000000000 6.283185307179586
2  69 4 17 0.000000000000000 6.283185307179586
2  70 4 18 0.000000000000000 6.283185307179586
0

0101000
+57 0 -57 0 *
Wi

0101100
-56 14 *
Wi

0101100
-56 15 *
Fa
0  0.000000100000000 4 16

0101000
+58 0 +55 0 +54 0 *
Ed
 0.000000100000000 1 1 0
1  26 0 0.000000000000000 3.000000000000000
2  71 7 0 0.000000000000000 3.000000000000000
2  72 5 0 0.000000000000000 3.000000000000000
4 C2 7 0 5 0
0

0101000
+95 8 -95 10 *
Wi

0101100
+104 0 -52 0 -94 8 +94 10 *
Fa
0  0.000000100000000 5 0

0101000
+51 0 *
Ed
 0.000000100000000 1 1 0
1  27 0 0.000000000000000 3.000000000000000
2  73 6 0 0.000000000000000 3.000000000000000
2  74 8 0 0.000000000000000 3.000000000000000
4 G1 6 0 8 0
0

0101000
+93 8 -93 10 *
Wi

0101100
+99 0 -49 0 -92 8 +92 10 *
Fa
0  0.000000100000000 6 0

0101000
+48 0 *
Ed
 0.000000100000000 1 1 0
1  28 0 0.000000000000000 3.000000000000000
2  75 9 0 0.000000000000000 3.000000000000000
2  76 7 0 0.000000000000000 3.000000000000000
4 G1 9 0 7 0
0

0101000
+91 8 -91 10 *
Wi

0101100
+46 0 -52 0 -90 8 +90 10 *
Fa
0  0.000000100000000 7 0

0101000
+45 0 *
Ed
 0.000000100000000 1 1 0
1  29 0 0.000000000000000 3.000000000000000
2  77 8 0 0.000000000000000 3.000000000000000
2  78 10 0 0.000000000000000 3.000000000000000
4 C2 8 0 10 0
0

0101000
+89 8 -89 10 *
Wi

0101100
+49 0 -43 0 -88 8 +88 10 *
Fa
0  0.000000100000000 8 0

0101000
+42 0 *
Ed
 0.000000100000007 1 1 0
1  30 0 0.000000000000000 3.000000000000000
2  79 11 0 0.000000000000000 3.000000000000000
2  80 9 0 0.000000000000000 3.000000000000000
4 G1 11 0 9 0
0

0101000
+87 8 -87 10 *
Wi

0101100
+40 0 -46 0 -86 8 +86 10 *
Fa
0  0.000000100000000 9 0

0101000
+39 0 *
Ed
 0.000000100000000 1 1 0
1  31 0 0.000000000000000 3.000000000000000
2  81 10 0 0.000000000000000 3.000000000000000
2  82 12 0 0.000000000000000 3.000000000000000
4 G1 10 0 12 0
0

0101000
+85 8 -85 10 *
Wi

0101100
+37 0 -43 0 -84 8 +84 10 *
Fa
0  0.000000100000000 10 0

0101000
+36 0 *
Ed
 0.000000100212120 1 1 0
1  32 0 0.000000000000000 3.000000000000000
2  83 13 0 0.000000000000000 3.000000000000000
2  84 11 0 0.000000000000000 3.000000000000000
4 C1 13 0 11 0
0

0101000
+83 8 -83 10 *
Wi

0101100
+40 0 -34 0 -82 8 +82 10 *
Fa
0  0.000000100000000 11 0

0101000
+33 0 *
Ed
 0.000000100000000 1 1 0
1  33 0 0.000000000000000 3.000000000000000
2  85 12 0 0.000000000000000 3.000000000000000
2  86 14 0 0.000000000000000 3.000000000000000
4 G1 12 0 14 0
0

0101000
+81 8 -81 10 *
Wi

0101100
+31 0 -37 0 -80 8 +80 10 *
Fa
0  0.000000100000000 12 0

0101000
+30 0 *
Ed
 0.000000100000000 1 1 0
1  34 0 0.000000000000000 3.000000000000000
2  87 15 0 0.000000000000000 3.000000000000000
2  88 13 0 0.000000000000000 3.000000000000000
4 G1 15 0 13 0
0

0101000
+79 8 -79 10 *
Wi

0101100
+28 0 -34 0 -78 8 +78 10 *
Fa
0  0.000000100000000 13 0

0101000
+27 0 *
Ed
 0.000000100212321 1 1 0
1  35 0 0.000000000000000 3.000000000000000
2  89 14 0 0.000000000000000 3.000000000000000
2  90 16 0 0.000000000000000 3.000000000000000
4 C1 14 0 16 0
0

0101000
+77 8 -77 10 *
Wi

0101100
+31 0 -25 0 -76 8 +76 10 *
Fa
0  0.000000100000000 14 0

0101000
+24 0 *
Ed
 0.000000100000000 1 1 0
1  36 0 0.000000000000000 3.000000000000000
2  91 17 0 0.000000000000000 3.000000000000000
2  92 15 0 0.000000000000000 3.000000000000000
4 G1 17 0 15 0
0

0101000
+75 8 -75 10 *
Wi

0101100
+28 0 -22 0 -74 8 +74 10 *
Fa
0  0.000000100000000 15 0

0101000
+21 0 *
Ed
 0.000000100000028 1 1 0
1  37 0 0.000000000000000 3.000000000000000
2  93 16 0 0.000000000000000 3.000000000000000
2  94 18 0 0.000000000000000 3.000000000000000
4 G1 16 0 18 0
0

0101000
+73 8 -73 10 *
Wi

0101100
+19 0 -25 0 -72 8 +72 10 *
Fa
0  0.000000100000000 16 0

0101000
+18 0 *
Ed
 0.000000100000000 1 1 0
1  38 0 0.000000000000000 3.000000000000000
2  95 19 0 0.000000000000000 3.000000000000000
2  96 17 0 0.000000000000000 3.000000000000000
4 C2 19 0 17 0
0

0101000
+71 8 -71 10 *
Wi

0101100
+22 0 -16 0 -70 8 +70 10 *
Fa
0  0.000000100000000 17 0

0101000
+15 0 *
Ed
 0.000000100000000 1 1 0
1  39 0 0.000000000000000 3.000000000000000
2  97 18 0 0.000000000000000 3.000000000000000
2  98 19 0 0.000000000000000 3.000000000000000
4 G1 18 0 19 0
0

0101000
+69 8 -69 10 *
Wi

0101100
+19 0 -13 0 -68 8 +68 10 *
Fa
0  0.000000100000000 18 0

0101000
+12 0 *
Wi

0101100
+13 0 -16 0 -67 8 +67 10 *
Fa
0  0.000000100000000 19 0

0101000
+10 0 *
Ed
 0.000000100000000 1 1 0
1  40 0 0.000000000000000 3.000000000000000
3  99 100CN 20 0 0.000000000000000 3.000000000000000
0

0101000
+57 0 -65 19 *
Wi

0101100
-8 14 +64 0 +8 14 +56 14 *
Fa
0  0.000000100000000 20 14

0101000
+7 0 *
Ed
 0.000000100000000 1 1 0
1  40 0 0.000000000000000 3.000000000000000
3  99 100CN 20 0 0.000000000000000 3.000000000000000
0

0101000
+57 0 -62 20 *
Wi

0101100
-5 15 +61 0 +5 15 +56 15 *
Fa
0  0.000000100000000 20 15

0101000
+4 0 *
Sh

0101100
+106 4 -101 4 -96 4 -59 0 +53 0 -50 4 +47 4 +44 4 +41 4 +38 4 
-35 4 -32 4 -29 4 +26 4 +23 4 -20 4 -17 4 -14 4 +11 4 +9 4 
+6 0 +3 0 *
So

0100000
+2 0 *

+1 1 