
CASCADE Topology V1, (c) Matra-Datavision
Locations 12
1
1.000000000000000 0.000000000000000 0.000000000000000 0.000000000000000 
0.000000000000000 1.000000000000000 0.000000000000000 0.000000000000000 
0.000000000000000 0.000000000000000 1.000000000000000 0.000000000000000 
1
0.000000000000000 -0.000000000000000 1.000000000000000 0.000000000000007 
1.000000000000000 0.000000000000000 -0.000000000000000 -30.000000000000007 
-0.000000000000000 1.000000000000000 0.000000000000000 -61.999999999999979 
1
1.000000000000000 0.000000000000000 0.000000000000000 0.000000000000000 
0.000000000000000 1.000000000000000 0.000000000000000 0.000000000000000 
0.000000000000000 0.000000000000000 1.000000000000000 0.000000000000000 
1
1.000000000000000 0.000000000000000 0.000000000000000 126.605020832511755 
0.000000000000000 1.000000000000000 0.000000000000000 -0.000000000000028 
0.000000000000000 0.000000000000000 1.000000000000000 0.000000000000035 
2  1 1 2 1 3 -1 4 1 0
1
1.000000000000000 0.000000000000000 0.000000000000000 -253.210041665023510 
0.000000000000000 1.000000000000000 0.000000000000000 0.000000000000056 
0.000000000000000 0.000000000000000 1.000000000000000 -0.000000000000070 
2  1 1 2 1 3 -1 4 1 6 1 0
2  4 -1 3 1 2 -1 1 -1 0
2  6 -1 4 -1 3 1 2 -1 1 -1 0
2  3 -1 4 1 0
2  1 1 2 1 0
2  3 -1 4 1 6 1 0
Curve2ds 8
1 0.00000000000000000 0.00000000000000000 0.00000000000000000 -1.00000000000000000 
1 6.28318530717958623 0.00000000000000000 0.00000000000000000 -1.00000000000000000 
1 0.00000000000000000 0.00000000000000000 1.00000000000000000 0.00000000000000000 
1 0.00000000000000000 -253.21004166502351040 1.00000000000000000 0.00000000000000000 
1 0.00000000000000000 0.00000000000000000 0.00000000000000000 -1.00000000000000000 
1 6.28318530717958623 0.00000000000000000 0.00000000000000000 -1.00000000000000000 
1 0.00000000000000000 0.00000000000000000 1.00000000000000000 0.00000000000000000 
1 0.00000000000000000 -253.21004166502351040 1.00000000000000000 0.00000000000000000 
Curves 4
1 126.60502083251176941 -13.30000000000003624 -61.99999999999995026 -1.00000000000000000 0.00000000000000022 -0.00000000000000028 
2 15.00000000000000000 0.00000000000000000 0.00000000000000000 0.00000000000000000 0.00000000000000000 1.00000000000000000 1.00000000000000000 0.00000000000000000 -0.00000000000000000 -0.00000000000000000 1.00000000000000000 0.00000000000000000 1.70000000000000018
1 126.60502083251176941 -43.30000000000003979 -61.99999999999994316 -1.00000000000000000 0.00000000000000022 -0.00000000000000028 
2 -15.00000000000000000 0.00000000000000000 0.00000000000000000 0.00000000000000000 0.00000000000000000 1.00000000000000000 1.00000000000000000 0.00000000000000000 -0.00000000000000000 -0.00000000000000000 1.00000000000000000 0.00000000000000000 1.70000000000000018
Polygon3D 0
PolygonOnTriangulations 0
Surfaces 4
2 126.60502083251176941 -15.00000000000003553 -61.99999999999994316 1.00000000000000000 -0.00000000000000022 0.00000000000000022 0.00000000000000022 1.00000000000000000 -0.00000000000000022 -0.00000000000000022 0.00000000000000022 1.00000000000000000 1.70000000000000018
1 0.00000000000000711 -30.00000000000000355 -61.99999999999998579 1.00000000000000000 -0.00000000000000022 0.00000000000000022 0.00000000000000022 1.00000000000000000 0.00000000000000000 -0.00000000000000022 0.00000000000000000 1.00000000000000000 
2 126.60502083251176941 -45.00000000000003553 -61.99999999999994316 1.00000000000000000 -0.00000000000000022 0.00000000000000022 0.00000000000000022 1.00000000000000000 -0.00000000000000022 -0.00000000000000022 0.00000000000000022 1.00000000000000000 1.70000000000000018
1 0.00000000000000711 -30.00000000000000355 -61.99999999999998579 1.00000000000000000 -0.00000000000000022 0.00000000000000022 0.00000000000000022 1.00000000000000000 0.00000000000000000 -0.00000000000000022 0.00000000000000000 1.00000000000000000 
Triangulations 0

TShapes 19
Ve
0.000000100000000
16.699999999999999 0.000000000000000 0.000000000000000
0 0

0101101
*
Ed
 0.000000100000000 1 1 0
1  1 0 0.000000000000000 253.210041665023510
3  1 2CN 1 0 0.000000000000000 253.210041665023510
0

0101000
+19 5 -19 7 *
Ed
 0.000000100000000 1 1 0
1  2 0 0.000000000000000 6.283185307179586
2  3 1 8 0.000000000000000 6.283185307179586
2  4 1 9 0.000000000000000 6.283185307179586
0

0101100
+19 0 -19 0 *
Wi

0101100
+18 0 -18 0 -17 5 +17 7 *
Fa
0  0.000000100000000 1 0

0111000
+16 0 *
Wi

0101100
+17 0 *
Fa
0  0.000000100000000 2 0

0111000
+14 11 *
Sh

0101100
+15 0 +13 10 -13 12 *
So

0100000
+12 0 *
Ve
0.000000100000000
-13.300000000000001 0.000000000000000 0.000000000000000
0 0

0101101
*
Ed
 0.000000100000000 1 1 0
1  3 0 0.000000000000000 253.210041665023510
3  5 6CN 3 0 0.000000000000000 253.210041665023510
0

0101000
+10 5 -10 7 *
Ed
 0.000000100000000 1 1 0
1  4 0 0.000000000000000 6.283185307179586
2  7 3 8 0.000000000000000 6.283185307179586
2  8 3 9 0.000000000000000 6.283185307179586
0

0101100
+10 0 -10 0 *
Wi

0101100
+9 0 -9 0 -8 5 +8 7 *
Fa
0  0.000000100000000 3 0

0111000
+7 0 *
Wi

0101100
+8 0 *
Fa
0  0.000000100000000 4 0

0111000
+5 11 *
Sh

0101100
+6 0 +4 10 -4 12 *
So

0100000
+3 0 *
Co

1100000
+11 0 +2 0 *

+1 0 