
CASCADE Topology V1, (c) Matra-Datavision
Locations 27
1
1.000000000000000 0.000000000000000 0.000000000000000 0.000000000000000 
0.000000000000000 1.000000000000000 0.000000000000000 0.000000000000000 
0.000000000000000 0.000000000000000 1.000000000000000 0.000000000000000 
1
1.000000000000000 0.000000000000000 0.000000000000000 0.000000000000000 
0.000000000000000 1.000000000000000 0.000000000000000 0.000000000000000 
0.000000000000000 0.000000000000000 1.000000000000000 0.000000000000000 
1
0.000000000000000 0.000000000000000 1.000000000000000 0.000000000000000 
1.000000000000000 0.000000000000000 0.000000000000000 0.000000000000000 
0.000000000000000 1.000000000000000 0.000000000000000 -8.000000000000000 
1
1.000000000000000 0.000000000000000 0.000000000000000 0.000000000000000 
0.000000000000000 1.000000000000000 0.000000000000000 0.000000000000000 
0.000000000000000 0.000000000000000 1.000000000000000 0.000000000000000 
1
1.000000000000000 0.000000000000000 0.000000000000000 260.043129115152738 
0.000000000000000 1.000000000000000 0.000000000000000 0.000000000000000 
0.000000000000000 0.000000000000000 1.000000000000000 0.000000000000000 
2  1 1 2 1 3 1 4 -1 5 1 0
1
1.000000000000000 0.000000000000000 0.000000000000000 -520.086258230305475 
0.000000000000000 1.000000000000000 0.000000000000000 -0.000000000000000 
0.000000000000000 0.000000000000000 1.000000000000000 -0.000000000000000 
2  1 1 2 1 3 1 4 -1 5 1 7 1 0
2  5 -1 4 1 3 -1 2 -1 1 -1 0
2  7 -1 5 -1 4 1 3 -1 2 -1 1 -1 0
1
1.000000000000000 0.000000000000000 0.000000000000000 1487.149440473208642 
0.000000000000000 1.000000000000000 0.000000000000000 -0.000000000000504 
0.000000000000000 0.000000000000000 1.000000000000000 0.000000000000136 
1
1.000000000000000 0.000000000000000 0.000000000000000 0.000000000000000 
0.000000000000000 1.000000000000000 0.000000000000000 0.000000000000000 
0.000000000000000 0.000000000000000 1.000000000000000 0.000000000000000 
1
0.000000000000000 -0.000000000000000 1.000000000000000 0.000000000000000 
0.998309270953514 -0.058125721744018 -0.000000000000000 192.966185419070285 
0.058125721744018 0.998309270953514 0.000000000000000 415.162514434880393 
1
1.000000000000000 0.000000000000000 0.000000000000000 0.000000000000000 
0.000000000000000 1.000000000000000 0.000000000000000 0.000000000000000 
0.000000000000000 0.000000000000000 1.000000000000000 0.000000000000000 
1
1.000000000000000 0.000000000000000 0.000000000000000 0.000000000000000 
0.000000000000000 1.000000000000000 0.000000000000000 0.000000000000000 
0.000000000000000 0.000000000000000 1.000000000000000 0.000000000000000 
2  11 -1 12 1 13 -1 14 -1 15 -1 0
1
1.000000000000000 0.000000000000000 0.000000000000000 -2974.298880946417285 
0.000000000000000 1.000000000000000 0.000000000000000 0.000000000001008 
0.000000000000000 0.000000000000000 1.000000000000000 -0.000000000000272 
2  17 -1 11 -1 12 1 13 -1 14 -1 15 -1 0
1
1.000000000000000 0.000000000000000 0.000000000000000 1487.149440473208642 
0.000000000000000 1.000000000000000 0.000000000000000 -0.000000000000504 
0.000000000000000 0.000000000000000 1.000000000000000 0.000000000000136 
1
1.000000000000000 0.000000000000000 0.000000000000000 0.000000000000000 
0.000000000000000 1.000000000000000 0.000000000000000 0.000000000000000 
0.000000000000000 0.000000000000000 1.000000000000000 0.000000000000000 
1
0.000000000000000 -0.000000000000000 1.000000000000000 0.000000000000000 
0.998309270953514 -0.058125721744018 -0.000000000000000 192.966185419070285 
0.058125721744018 0.998309270953514 0.000000000000000 415.162514434880393 
1
1.000000000000000 0.000000000000000 0.000000000000000 0.000000000000000 
0.000000000000000 1.000000000000000 0.000000000000000 0.000000000000000 
0.000000000000000 0.000000000000000 1.000000000000000 0.000000000000000 
2  19 -1 20 1 21 -1 22 -1 15 -1 0
1
1.000000000000000 0.000000000000000 0.000000000000000 -2974.298880946417285 
0.000000000000000 1.000000000000000 0.000000000000000 0.000000000001008 
0.000000000000000 0.000000000000000 1.000000000000000 -0.000000000000272 
2  24 -1 19 -1 20 1 21 -1 22 -1 15 -1 0
2  2 1 3 1 4 -1 5 1 0
2  2 1 3 1 4 -1 5 1 7 1 0
Curve2ds 24
1 0.00000000000000000 0.00000000000000000 0.00000000000000000 -1.00000000000000000 
1 6.28318530717958623 0.00000000000000000 0.00000000000000000 -1.00000000000000000 
1 0.00000000000000000 0.00000000000000000 1.00000000000000000 0.00000000000000000 
1 0.00000000000000000 -520.08625823030547508 1.00000000000000000 0.00000000000000000 
1 0.00000000000000000 0.00000000000000000 1.00000000000000000 0.00000000000000000 
1 0.00000000000000000 -2974.29888094641728458 1.00000000000000000 0.00000000000000000 
1 0.00000000000000000 0.00000000000000000 1.00000000000000000 0.00000000000000000 
1 0.00000000000000000 -2974.29888094641728458 1.00000000000000000 0.00000000000000000 
1 0.00000000000000000 0.00000000000000000 0.00000000000000000 -1.00000000000000000 
1 6.28318530717958623 0.00000000000000000 0.00000000000000000 -1.00000000000000000 
1 0.00000000000000000 0.00000000000000000 1.00000000000000000 0.00000000000000000 
1 0.00000000000000000 -520.08625823030547508 1.00000000000000000 0.00000000000000000 
1 0.00000000000000000 0.00000000000000000 1.00000000000000000 0.00000000000000000 
1 0.00000000000000000 -2974.29888094641728458 1.00000000000000000 0.00000000000000000 
1 0.00000000000000000 0.00000000000000000 1.00000000000000000 0.00000000000000000 
1 0.00000000000000000 -2974.29888094641728458 1.00000000000000000 0.00000000000000000 
1 0.00000000000000000 0.00000000000000000 0.00000000000000000 -1.00000000000000000 
1 6.28318530717958623 0.00000000000000000 0.00000000000000000 -1.00000000000000000 
1 0.00000000000000000 0.00000000000000000 1.00000000000000000 0.00000000000000000 
1 0.00000000000000000 -520.08625823030547508 1.00000000000000000 0.00000000000000000 
1 0.00000000000000000 0.00000000000000000 1.00000000000000000 0.00000000000000000 
1 0.00000000000000000 -2974.29888094641728458 1.00000000000000000 0.00000000000000000 
1 0.00000000000000000 0.00000000000000000 1.00000000000000000 0.00000000000000000 
1 0.00000000000000000 -2974.29888094641728458 1.00000000000000000 0.00000000000000000 
Curves 6
1 260.04312911515273754 -118.29999999999999716 -8.00000000000000000 -1.00000000000000000 -0.00000000000000000 -0.00000000000000000 
2 -120.00000000000000000 0.00000000000000000 0.00000000000000000 0.00000000000000000 0.00000000000000000 1.00000000000000000 1.00000000000000000 0.00000000000000000 -0.00000000000000000 -0.00000000000000000 1.00000000000000000 0.00000000000000000 1.69999999999999996
1 260.04312911515273754 121.70000000000000284 -8.00000000000000000 -1.00000000000000000 -0.00000000000000000 -0.00000000000000000 
2 120.00000000000000000 0.00000000000000000 0.00000000000000000 0.00000000000000000 0.00000000000000000 1.00000000000000000 1.00000000000000000 0.00000000000000000 -0.00000000000000000 -0.00000000000000000 1.00000000000000000 0.00000000000000000 1.69999999999999996
1 260.04312911515273754 1.69999999999999996 -8.00000000000000000 -1.00000000000000000 -0.00000000000000000 -0.00000000000000000 
2 0.00000000000000000 0.00000000000000000 0.00000000000000000 0.00000000000000000 0.00000000000000000 1.00000000000000000 1.00000000000000000 0.00000000000000000 -0.00000000000000000 -0.00000000000000000 1.00000000000000000 0.00000000000000000 1.69999999999999996
Polygon3D 0
PolygonOnTriangulations 0
Surfaces 12
2 260.04312911515273754 -120.00000000000000000 -8.00000000000000000 1.00000000000000000 0.00000000000000000 0.00000000000000000 -0.00000000000000000 1.00000000000000000 0.00000000000000000 0.00000000000000000 -0.00000000000000000 1.00000000000000000 1.69999999999999996
2 1487.14944047320864229 73.16907290464807545 408.18742782559831994 1.00000000000000000 -0.00000000000000034 0.00000000000000009 0.00000000000000033 0.99830927095351418 0.05812572174401831 -0.00000000000000011 -0.05812572174401831 0.99830927095351418 1.69999999999999996
2 1487.14944047320864229 73.16907290464807545 408.18742782559831994 1.00000000000000000 -0.00000000000000034 0.00000000000000009 0.00000000000000033 0.99830927095351418 0.05812572174401831 -0.00000000000000011 -0.05812572174401831 0.99830927095351418 1.69999999999999996
1 0.00000000000000858 0.00000000000000018 0.00000000000000000 0.00000000000000000 0.00000000000000000 1.00000000000000000 1.00000000000000000 0.00000000000000000 -0.00000000000000000 -0.00000000000000000 1.00000000000000000 0.00000000000000000 
2 260.04312911515273754 120.00000000000000000 -8.00000000000000000 1.00000000000000000 0.00000000000000000 0.00000000000000000 -0.00000000000000000 1.00000000000000000 0.00000000000000000 0.00000000000000000 -0.00000000000000000 1.00000000000000000 1.69999999999999996
2 1487.14944047320864229 312.76329793349145802 422.13760104416269314 1.00000000000000000 -0.00000000000000034 0.00000000000000009 0.00000000000000033 0.99830927095351418 0.05812572174401831 -0.00000000000000011 -0.05812572174401831 0.99830927095351418 1.69999999999999996
2 1487.14944047320864229 312.76329793349145802 422.13760104416269314 1.00000000000000000 -0.00000000000000034 0.00000000000000009 0.00000000000000033 0.99830927095351418 0.05812572174401831 -0.00000000000000011 -0.05812572174401831 0.99830927095351418 1.69999999999999996
1 0.00000000000000858 0.00000000000000018 0.00000000000000000 0.00000000000000000 0.00000000000000000 1.00000000000000000 1.00000000000000000 0.00000000000000000 -0.00000000000000000 -0.00000000000000000 1.00000000000000000 0.00000000000000000 
2 260.04312911515273754 0.00000000000000000 -8.00000000000000000 1.00000000000000000 0.00000000000000000 0.00000000000000000 -0.00000000000000000 1.00000000000000000 0.00000000000000000 0.00000000000000000 -0.00000000000000000 1.00000000000000000 1.69999999999999996
2 1487.14944047320864229 192.96618541906977384 415.16251443488050654 1.00000000000000000 -0.00000000000000034 0.00000000000000009 0.00000000000000033 0.99830927095351418 0.05812572174401831 -0.00000000000000011 -0.05812572174401831 0.99830927095351418 1.69999999999999996
2 1487.14944047320864229 192.96618541906977384 415.16251443488050654 1.00000000000000000 -0.00000000000000034 0.00000000000000009 0.00000000000000033 0.99830927095351418 0.05812572174401831 -0.00000000000000011 -0.05812572174401831 0.99830927095351418 1.69999999999999996
1 0.00000000000000858 0.00000000000000018 0.00000000000000000 0.00000000000000000 0.00000000000000000 1.00000000000000000 1.00000000000000000 0.00000000000000000 -0.00000000000000000 -0.00000000000000000 1.00000000000000000 0.00000000000000000 
Triangulations 0

TShapes 28
Ve
0.000000100000000
-118.299999999999997 0.000000000000000 0.000000000000000
0 0

0101101
*
Ed
 0.000000100000000 1 1 0
1  1 0 0.000000000000000 520.086258230305475
3  1 2CN 1 0 0.000000000000000 520.086258230305475
0

0101000
+28 6 -28 8 *
Ed
 0.000000100000000 1 1 0
1  2 0 0.000000000000000 6.283185307179586
2  3 1 9 0.000000000000000 6.283185307179586
2  4 1 10 0.000000000000000 6.283185307179586
2  5 2 16 0.000000000000000 6.283185307179586
2  6 2 18 0.000000000000000 6.283185307179586
2  7 3 23 0.000000000000000 6.283185307179586
2  8 3 25 0.000000000000000 6.283185307179586
0

0101100
+28 0 -28 0 *
Wi

0101100
+27 0 -27 0 -26 6 +26 8 *
Fa
0  0.000000100000000 1 0

0111000
+25 0 *
Wi

0101100
+26 1 *
Fa
0  0.000000100000000 4 0

0111000
+23 0 *
Sh

0101100
+24 0 +22 26 -22 27 *
So

0100000
+21 0 *
Ve
0.000000100000000
121.700000000000003 0.000000000000000 0.000000000000000
0 0

0101101
*
Ed
 0.000000100000000 1 1 0
1  3 0 0.000000000000000 520.086258230305475
3  9 10CN 5 0 0.000000000000000 520.086258230305475
0

0101000
+19 6 -19 8 *
Ed
 0.000000100000000 1 1 0
1  4 0 0.000000000000000 6.283185307179586
2  11 5 9 0.000000000000000 6.283185307179586
2  12 5 10 0.000000000000000 6.283185307179586
2  13 6 16 0.000000000000000 6.283185307179586
2  14 6 18 0.000000000000000 6.283185307179586
2  15 7 23 0.000000000000000 6.283185307179586
2  16 7 25 0.000000000000000 6.283185307179586
0

0101100
+19 0 -19 0 *
Wi

0101100
+18 0 -18 0 -17 6 +17 8 *
Fa
0  0.000000100000000 5 0

0111000
+16 0 *
Wi

0101100
+17 1 *
Fa
0  0.000000100000000 8 0

0111000
+14 0 *
Sh

0101100
+15 0 +13 26 -13 27 *
So

0100000
+12 0 *
Ve
0.000000100000000
1.700000000000000 0.000000000000000 0.000000000000000
0 0

0101101
*
Ed
 0.000000100000000 1 1 0
1  5 0 0.000000000000000 520.086258230305475
3  17 18CN 9 0 0.000000000000000 520.086258230305475
0

0101000
+10 6 -10 8 *
Ed
 0.000000100000000 1 1 0
1  6 0 0.000000000000000 6.283185307179586
2  19 9 9 0.000000000000000 6.283185307179586
2  20 9 10 0.000000000000000 6.283185307179586
2  21 10 16 0.000000000000000 6.283185307179586
2  22 10 18 0.000000000000000 6.283185307179586
2  23 11 23 0.000000000000000 6.283185307179586
2  24 11 25 0.000000000000000 6.283185307179586
0

0101100
+10 0 -10 0 *
Wi

0101100
+9 0 -9 0 -8 6 +8 8 *
Fa
0  0.000000100000000 9 0

0111000
+7 0 *
Wi

0101100
+8 1 *
Fa
0  0.000000100000000 12 0

0111000
+5 0 *
Sh

0101100
+6 0 +4 26 -4 27 *
So

0100000
+3 0 *
Co

1100000
+20 0 +11 0 +2 0 *

+1 0 