
CASCADE Topology V1, (c) Matra-Datavision
Locations 11
1
1.000000000000000 0.000000000000000 0.000000000000000 0.000000000000000 
0.000000000000000 1.000000000000000 0.000000000000000 0.000000000000000 
0.000000000000000 0.000000000000000 1.000000000000000 0.000000000000000 
1
1.000000000000000 0.000000000000000 0.000000000000000 0.000000000000000 
0.000000000000000 1.000000000000000 0.000000000000000 0.000000000000000 
0.000000000000000 0.000000000000000 1.000000000000000 0.000000000000000 
1
1.000000000000000 0.000000000000000 0.000000000000000 0.000000000000000 
0.000000000000000 1.000000000000000 0.000000000000000 0.000000000000000 
0.000000000000000 0.000000000000000 1.000000000000000 0.000000000000000 
2  1 1 2 1 3 -1 0
1
1.000000000000000 0.000000000000000 0.000000000000000 0.000000000000000 
0.000000000000000 1.000000000000000 0.000000000000000 0.000000000000000 
0.000000000000000 0.000000000000000 1.000000000000000 0.300000000000000 
2  1 1 2 1 3 -1 5 1 0
2  3 1 2 -1 1 -1 0
2  5 -1 3 1 2 -1 1 -1 0
2  3 -1 0
2  1 1 2 1 0
2  3 -1 5 1 0
Curve2ds 8
1 1.26757086729656221 0.00000000000000000 0.00000000000000000 -1.00000000000000000 
1 1.57079632679489656 0.00000000000000000 0.00000000000000000 -1.00000000000000000 
1 0.00000000000000000 0.00000000000000000 1.00000000000000000 0.00000000000000000 
1 0.00000000000000000 -0.29999999999999999 1.00000000000000000 0.00000000000000000 
1 1.57079632679489656 0.00000000000000000 0.00000000000000000 -1.00000000000000000 
1 1.87402178629321936 0.00000000000000000 0.00000000000000000 -1.00000000000000000 
1 0.00000000000000000 0.00000000000000000 1.00000000000000000 0.00000000000000000 
1 0.00000000000000000 -0.29999999999999999 1.00000000000000000 0.00000000000000000 
Curves 16
1 -41.19999999999942020 120.58029789065263060 0.00000000000000000 0.00000000000000000 0.00000000000000000 1.00000000000000000 
1 41.19999999999942020 120.58029789065263060 0.00000000000000000 0.00000000000000000 0.00000000000000000 1.00000000000000000 
1 -41.19999999999942020 120.58029789065263060 0.00000000000000000 1.00000000000000000 0.00000000000000000 0.00000000000000000 
1 41.19999999999942020 152.62175689746464968 0.00000000000000000 0.00000000000000000 0.00000000000000000 1.00000000000000000 
1 41.19999999999942020 120.58029789065263060 0.00000000000000000 0.00000000000000000 1.00000000000000000 0.00000000000000000 
1 16.35966698284735799 160.39364856177104457 0.00000000000000000 0.00000000000000000 0.00000000000000000 1.00000000000000000 
1 41.19999999999942020 152.62175689746464968 0.00000000000000000 -0.95437833286106810 0.29860006323731497 0.00000000000000000 
1 14.86666666666079095 160.62175689746570129 0.00000000000000000 0.00000000000000000 0.00000000000000000 1.00000000000000000 
2 14.86666666666079095 155.62175689746570129 0.00000000000000000 0.00000000000000000 0.00000000000000000 1.00000000000000000 1.00000000000000000 0.00000000000000000 0.00000000000000000 0.00000000000000000 1.00000000000000000 0.00000000000000000 5.00000000000000000
1 -14.86666666666071990 160.62175689746570129 0.00000000000000000 0.00000000000000000 0.00000000000000000 1.00000000000000000 
1 14.86666666666079095 160.62175689746570129 0.00000000000000000 -1.00000000000000000 0.00000000000000000 0.00000000000000000 
1 -16.35966698284723009 160.39364856177107299 0.00000000000000000 0.00000000000000000 0.00000000000000000 1.00000000000000000 
2 -14.86666666666071812 155.62175689746570129 0.00000000000000000 0.00000000000000000 0.00000000000000000 1.00000000000000000 1.00000000000000000 0.00000000000000000 0.00000000000000000 0.00000000000000000 1.00000000000000000 0.00000000000000000 5.00000000000000000
1 -41.19999999999942020 152.62175689746464968 0.00000000000000000 0.00000000000000000 0.00000000000000000 1.00000000000000000 
1 -16.35966698284723009 160.39364856177107299 0.00000000000000000 -0.95437833286106821 -0.29860006323731458 0.00000000000000000 
1 -41.19999999999942020 152.62175689746464968 0.00000000000000000 0.00000000000000000 -1.00000000000000000 0.00000000000000000 
Polygon3D 0
PolygonOnTriangulations 0
Surfaces 9
1 -41.19999999999942020 120.58029789065263060 0.00000000000000000 0.00000000000000000 1.00000000000000000 0.00000000000000000 1.00000000000000000 0.00000000000000000 0.00000000000000000 0.00000000000000000 0.00000000000000000 -1.00000000000000000 
1 41.19999999999942020 120.58029789065263060 0.00000000000000000 -1.00000000000000000 0.00000000000000000 0.00000000000000000 0.00000000000000000 1.00000000000000000 0.00000000000000000 0.00000000000000000 0.00000000000000000 -1.00000000000000000 
1 41.19999999999942020 152.62175689746464968 0.00000000000000000 -0.29860006323731497 -0.95437833286106810 0.00000000000000000 -0.95437833286106810 0.29860006323731497 0.00000000000000000 -0.00000000000000000 0.00000000000000000 -1.00000000000000000 
2 14.86666666666079095 155.62175689746570129 0.00000000000000000 -0.00000000000000000 -0.00000000000000000 -1.00000000000000000 1.00000000000000000 0.00000000000000000 0.00000000000000000 0.00000000000000000 1.00000000000000000 0.00000000000000000 5.00000000000000000
1 14.86666666666079095 160.62175689746570129 0.00000000000000000 0.00000000000000000 -1.00000000000000000 0.00000000000000000 -1.00000000000000000 0.00000000000000000 0.00000000000000000 -0.00000000000000000 -0.00000000000000000 -1.00000000000000000 
2 -14.86666666666071812 155.62175689746570129 0.00000000000000000 -0.00000000000000000 -0.00000000000000000 -1.00000000000000000 1.00000000000000000 0.00000000000000000 0.00000000000000000 0.00000000000000000 1.00000000000000000 0.00000000000000000 5.00000000000000000
1 -16.35966698284723009 160.39364856177107299 0.00000000000000000 0.29860006323731458 -0.95437833286106821 0.00000000000000000 -0.95437833286106821 -0.29860006323731458 0.00000000000000000 0.00000000000000000 -0.00000000000000000 -1.00000000000000000 
1 -41.19999999999942020 152.62175689746464968 0.00000000000000000 1.00000000000000000 0.00000000000000000 -0.00000000000000000 0.00000000000000000 -1.00000000000000000 0.00000000000000000 0.00000000000000000 -0.00000000000000000 -1.00000000000000000 
1 -0.00000000000000393 138.77533274331938173 0.00000000000000000 0.00000000000000000 0.00000000000000000 1.00000000000000000 1.00000000000000000 0.00000000000000000 -0.00000000000000000 -0.00000000000000000 1.00000000000000000 0.00000000000000000 
Triangulations 0

TShapes 44
Ve
0.000000100000000
-41.199999999999420 120.580297890652631 0.000000000000000
0 0

0101101
*
Ed
 0.000000100000000 1 1 0
1  1 0 0.000000000000000 0.300000000000000
0

0101000
+44 4 -44 6 *
Ve
0.000000100000000
41.199999999999420 120.580297890652631 0.000000000000000
0 0

0101101
*
Ed
 0.000000100000000 1 1 0
1  2 0 0.000000000000000 0.300000000000000
0

0101000
+42 4 -42 6 *
Ed
 0.000000100000000 1 1 0
1  3 0 0.000000000000000 82.399999999998840
0

0101000
+44 0 -42 0 *
Wi

0101100
+43 0 -41 0 -40 4 +40 6 *
Fa
0  0.000000100000000 1 0

0101000
+39 0 *
Ve
0.000000100000000
41.199999999999420 152.621756897464650 0.000000000000000
0 0

0101101
*
Ed
 0.000000100000000 1 1 0
1  4 0 0.000000000000000 0.300000000000000
0

0101000
+37 4 -37 6 *
Ed
 0.000000100000000 1 1 0
1  5 0 0.000000000000000 32.041459006812019
0

0101000
+42 0 -37 0 *
Wi

0101100
+41 0 -36 0 -35 4 +35 6 *
Fa
0  0.000000100000000 2 0

0101000
+34 0 *
Ve
0.000000100000000
16.359666982847358 160.393648561771045 0.000000000000000
0 0

0101101
*
Ed
 0.000000100000000 1 1 0
1  6 0 0.000000000000000 0.300000000000000
2  1 4 0 0.000000000000000 0.300000000000000
4 G1 3 0 4 0
0

0101000
+32 4 -32 6 *
Ed
 0.000000100000000 1 1 0
1  7 0 0.000000000000000 26.027762955058776
0

0101000
+37 0 -32 0 *
Wi

0101100
+36 0 -31 0 -30 4 +30 6 *
Fa
0  0.000000100000000 3 0

0101000
+29 0 *
Ve
0.000000100000000
14.866666666660791 160.621756897465701 0.000000000000000
0 0

0101101
*
Ed
 0.000000100000000 1 1 0
1  8 0 0.000000000000000 0.300000000000000
2  2 4 0 0.000000000000000 0.300000000000000
4 G1 4 0 5 0
0

0101000
+27 4 -27 6 *
Ed
 0.000000100000000 1 1 0
1  9 0 1.267570867296562 1.570796326794897
2  3 4 7 1.267570867296562 1.570796326794897
2  4 4 8 1.267570867296562 1.570796326794897
0

0101000
+32 0 -27 0 *
Wi

0101100
+31 0 -26 0 -25 4 +25 6 *
Fa
0  0.000000100000000 4 0

0101000
+24 0 *
Ve
0.000000100000001
-14.866666666660720 160.621756897465701 0.000000000000000
0 0

0101101
*
Ed
 0.000000100000001 1 1 0
1  10 0 0.000000000000000 0.300000000000000
2  5 6 0 0.000000000000000 0.300000000000000
4 G1 5 0 6 0
0

0101000
+22 4 -22 6 *
Ed
 0.000000100000000 1 1 0
1  11 0 0.000000000000000 29.733333333321511
0

0101000
+27 0 -22 0 *
Wi

0101100
+26 0 -21 0 -20 4 +20 6 *
Fa
0  0.000000100000000 5 0

0101000
+19 0 *
Ve
0.000000100000000
-16.359666982847230 160.393648561771073 0.000000000000000
0 0

0101101
*
Ed
 0.000000100000000 1 1 0
1  12 0 0.000000000000000 0.300000000000000
2  6 6 0 0.000000000000000 0.300000000000000
4 G1 6 0 7 0
0

0101000
+17 4 -17 6 *
Ed
 0.000000100000000 1 1 0
1  13 0 1.570796326794897 1.874021786293219
2  7 6 7 1.570796326794897 1.874021786293219
2  8 6 8 1.570796326794897 1.874021786293219
0

0101000
+22 0 -17 0 *
Wi

0101100
+21 0 -16 0 -15 4 +15 6 *
Fa
0  0.000000100000000 6 0

0101000
+14 0 *
Ve
0.000000100000000
-41.199999999999420 152.621756897464650 0.000000000000000
0 0

0101101
*
Ed
 0.000000100000000 1 1 0
1  14 0 0.000000000000000 0.300000000000000
0

0101000
+12 4 -12 6 *
Ed
 0.000000100000000 1 1 0
1  15 0 0.000000000000000 26.027762955058908
0

0101000
+17 0 -12 0 *
Wi

0101100
+16 0 -11 0 -10 4 +10 6 *
Fa
0  0.000000100000000 7 0

0101000
+9 0 *
Ed
 0.000000100000000 1 1 0
1  16 0 0.000000000000000 32.041459006812019
0

0101000
+12 0 -44 0 *
Wi

0101100
+11 0 -43 0 -7 4 +7 6 *
Fa
0  0.000000100000000 8 0

0101000
+6 0 *
Wi

0101100
+40 0 +35 0 +30 0 +25 0 +20 0 +15 0 +10 0 +7 0 *
Fa
0  0.000000100000000 9 0

0101000
+4 10 *
Sh

0101100
+38 0 +33 0 +28 0 +23 0 +18 0 +13 0 +8 0 +5 0 +3 9 -3 11 
*
So

1100000
-2 0 *

+1 0 