
CASCADE Topology V1, (c) Matra-Datavision
Locations 36
1
1.000000000000000 0.000000000000000 0.000000000000000 0.000000000000000 
0.000000000000000 1.000000000000000 0.000000000000000 0.000000000000000 
0.000000000000000 0.000000000000000 1.000000000000000 0.000000000000000 
1
0.000000000000000 0.000000000000000 1.000000000000000 41.299999999999415 
0.000000000000000 1.000000000000000 0.000000000000000 0.000000000000000 
-1.000000000000000 0.000000000000000 0.000000000000000 41.099999999999419 
1
0.000000000000000 0.000000000000000 1.000000000000000 41.299999999999415 
0.000000000000000 1.000000000000000 0.000000000000000 0.000000000000000 
-1.000000000000000 0.000000000000000 0.000000000000000 41.099999999999419 
2  3 -1 0
2  2 1 3 -1 0
1
1.000000000000000 0.000000000000000 0.000000000000000 0.000000000000000 
0.000000000000000 1.000000000000000 0.000000000000000 0.000000000000000 
0.000000000000000 0.000000000000000 1.000000000000000 -0.300000000000000 
2  6 -1 0
2  2 -1 0
2  6 1 2 1 0
2  2 -1 6 -1 0
1
1.000000000000000 0.000000000000000 0.000000000000000 0.000000000000000 
0.000000000000000 1.000000000000000 0.000000000000000 0.000000000000000 
0.000000000000000 0.000000000000000 1.000000000000000 0.000000000000000 
2  11 -1 0
2  6 1 2 1 3 -1 0
1
1.000000000000000 0.000000000000000 0.000000000000000 0.000000000000000 
0.000000000000000 1.000000000000000 0.000000000000000 0.000000000000000 
0.000000000000000 0.000000000000000 1.000000000000000 0.000000000000000 
1
1.000000000000000 0.000000000000000 0.000000000000000 0.000000000000000 
0.000000000000000 1.000000000000000 0.000000000000000 0.000000000000000 
0.000000000000000 0.000000000000000 1.000000000000000 0.000000000000000 
1
1.000000000000000 0.000000000000000 0.000000000000000 0.000000000000000 
0.000000000000000 1.000000000000000 0.000000000000000 0.000000000000000 
0.000000000000000 0.000000000000000 1.000000000000000 0.000000000000000 
1
1.000000000000000 0.000000000000000 0.000000000000000 0.000000000000000 
0.000000000000000 1.000000000000000 0.000000000000000 0.000000000000000 
0.000000000000000 0.000000000000000 1.000000000000000 0.300000000000000 
2  14 1 15 1 16 -1 17 1 11 1 0
2  17 -1 16 1 15 -1 14 -1 0
2  15 -1 14 -1 0
2  11 -1 17 -1 16 1 15 -1 14 -1 0
2  14 1 15 1 16 -1 11 1 0
2  16 1 15 -1 14 -1 0
2  11 -1 16 1 15 -1 14 -1 0
2  16 -1 17 1 11 1 0
2  16 -1 11 1 0
1
0.000000000000000 0.000000000000000 -1.000000000000000 -41.299999999999415 
0.000000000000000 1.000000000000000 0.000000000000000 0.000000000000000 
1.000000000000000 0.000000000000000 0.000000000000000 41.099999999999419 
2  27 -1 0
1
0.000000000000000 0.000000000000000 -1.000000000000000 -41.299999999999415 
0.000000000000000 1.000000000000000 0.000000000000000 0.000000000000000 
1.000000000000000 0.000000000000000 0.000000000000000 41.099999999999419 
2  29 1 27 -1 0
1
1.000000000000000 0.000000000000000 0.000000000000000 0.000000000000000 
0.000000000000000 1.000000000000000 0.000000000000000 0.000000000000000 
0.000000000000000 0.000000000000000 1.000000000000000 -0.300000000000000 
2  31 1 29 1 27 -1 0
2  31 -1 0
2  29 -1 0
2  31 1 29 1 0
2  29 -1 31 -1 0
Curve2ds 106
1 0.40000000000000002 0.00000000000000000 -1.00000000000000000 0.00000000000000000 
1 -0.00000000000000139 0.39999999999999858 -0.00000000000000011 -1.00000000000000000 
1 0.14999999999999999 14.95173193821571545 -1.00000000000000000 0.00000000000000000 
1 0.00000000000000000 0.00000000000000000 0.00000000000000000 -1.00000000000000000 
1 31.00000000000000000 0.00000000000000000 0.00000000000000000 -1.00000000000000000 
1 0.00000000000000000 0.00000000000000000 0.00000000000000000 -1.00000000000000000 
1 0.00000000000000000 0.00000000000000000 1.00000000000000000 0.00000000000000000 
1 0.00000000000000000 -0.29999999999999999 1.00000000000000000 0.00000000000000000 
1 -15.50000000000000711 -14.95173193821574387 1.00000000000000000 0.00000000000000000 
1 0.00000000000000000 29.90346387643147352 1.00000000000000000 0.00000000000000000 
2 0.00000000000000000 0.00000000000000000 1.00000000000000000 0.00000000000000000 -0.00000000000000000 1.00000000000000000 0.40000000000000002
2 0.00000000000000000 0.00000000000000000 1.00000000000000000 0.00000000000000000 -0.00000000000000000 1.00000000000000000 0.10000000000000003
1 0.00000000000000000 0.00000000000000000 1.00000000000000000 0.00000000000000000 
1 82.39999999999884039 0.00000000000000000 0.00000000000000000 -1.00000000000000000 
1 0.00000000000000000 0.00000000000000000 0.00000000000000000 -1.00000000000000000 
1 0.10000000000000003 0.00000000000000000 1.00000000000000000 0.00000000000000000 
1 0.00000000000000000 0.00000000000000000 0.00000000000000000 -1.00000000000000000 
1 29.90346387643147352 0.00000000000000000 0.00000000000000000 -1.00000000000000000 
1 15.49999999999999289 -14.95173193821574387 0.00000000000000000 1.00000000000000000 
1 0.00000000000000000 0.00000000000000000 1.00000000000000000 0.00000000000000000 
1 0.00000000000000000 -0.29999999999999999 1.00000000000000000 0.00000000000000000 
1 0.00000000000000000 0.00000000000000000 0.00000000000000000 1.00000000000000000 
1 1.57079632679489656 0.00000000000000000 0.00000000000000000 1.00000000000000000 
1 0.14999999999999999 -14.95173193821575808 0.00000000000000000 1.00000000000000000 
1 -15.50000000000000711 14.95173193821572966 0.00000000000000000 -1.00000000000000000 
1 0.00000000000000000 0.00000000000000000 1.00000000000000000 0.00000000000000000 
1 0.00000000000000000 -0.29999999999999999 1.00000000000000000 0.00000000000000000 
1 15.49999999999999289 14.95173193821572966 -1.00000000000000000 0.00000000000000000 
1 0.00000000000000000 0.00000000000000000 0.00000000000000000 1.00000000000000000 
1 1.57079632679489656 0.00000000000000000 0.00000000000000000 1.00000000000000000 
1 -0.14999999999999999 14.95173193821571545 0.00000000000000000 -1.00000000000000000 
1 -15.50000000000000711 -14.95173193821574387 0.00000000000000000 1.00000000000000000 
1 0.00000000000000000 0.00000000000000000 1.00000000000000000 0.00000000000000000 
2 0.00000000000000000 0.00000000000000000 -1.00000000000000000 0.00000000000000000 0.00000000000000000 1.00000000000000000 0.40000000000000002
1 0.00000000000000000 -0.29999999999999999 1.00000000000000000 0.00000000000000000 
1 41.19999999999942020 -14.95173193821574387 0.00000000000000000 1.00000000000000000 
8 0.00000000000000000 29.90346387643147352
1 0.00000000000000000 29.90346387643147352 -0.00000000000000000 -1.00000000000000000 
1 0.00000000000000000 29.90346387643147352 1.00000000000000000 0.00000000000000000 
2 0.00000000000000000 0.00000000000000000 -1.00000000000000000 0.00000000000000000 0.00000000000000000 1.00000000000000000 0.10000000000000003
1 0.00000000000000000 0.00000000000000000 1.00000000000000000 0.00000000000000000 
1 41.19999999999942020 -14.95173193821574387 0.00000000000000000 1.00000000000000000 
8 0.00000000000000000 29.90346387643147352
1 0.00000000000000000 0.00000000000000000 0.00000000000000000 1.00000000000000000 
1 29.90346387643147352 0.00000000000000000 0.00000000000000000 -1.00000000000000000 
1 0.00000000000000000 0.00000000000000000 0.00000000000000000 -1.00000000000000000 
1 -0.10000000000000003 0.00000000000000000 -1.00000000000000000 0.00000000000000000 
1 0.00000000000000000 0.00000000000000000 1.00000000000000000 0.00000000000000000 
1 -41.19999999999942020 -14.95173193821574387 1.00000000000000000 0.00000000000000000 
1 0.00000000000000000 -0.29999999999999999 1.00000000000000000 0.00000000000000000 
1 -41.19999999999942020 -14.95173193821574387 1.00000000000000000 0.00000000000000000 
1 -0.10000000000000003 0.00000000000000000 -1.00000000000000000 0.00000000000000000 
1 0.00000000000000139 0.10000000000000142 -0.00000000000000011 1.00000000000000000 
1 -0.14999999999999999 -14.95173193821575808 1.00000000000000000 0.00000000000000000 
1 31.00000000000000000 -0.29999999999999999 0.00000000000000000 1.00000000000000000 
1 0.00000000000000000 -0.00000000000000000 0.00000000000000000 -1.00000000000000000 
1 29.90346387643147352 0.00000000000000000 0.00000000000000000 -1.00000000000000000 
1 -0.10000000000000003 0.00000000000000000 -1.00000000000000000 0.00000000000000000 
1 0.00000000000000000 -0.29999999999999999 1.00000000000000000 0.00000000000000000 
1 41.19999999999942020 14.95173193821572966 -1.00000000000000000 0.00000000000000000 
1 0.00000000000000000 -0.29999999999999999 1.00000000000000000 0.00000000000000000 
1 -41.19999999999942020 14.95173193821572966 0.00000000000000000 -1.00000000000000000 
8 0.00000000000000000 29.90346387643147352
1 0.00000000000000000 29.90346387643147352 -0.00000000000000000 -1.00000000000000000 
1 0.00000000000000000 -0.00000000000000000 1.00000000000000000 0.00000000000000000 
1 41.19999999999942020 14.95173193821572966 -1.00000000000000000 0.00000000000000000 
1 0.00000000000000000 0.00000000000000000 1.00000000000000000 0.00000000000000000 
1 -41.19999999999942020 14.95173193821572966 0.00000000000000000 -1.00000000000000000 
8 0.00000000000000000 29.90346387643147352
1 0.00000000000000000 0.00000000000000000 0.00000000000000000 1.00000000000000000 
1 0.00000000000000000 29.90346387643147352 1.00000000000000000 0.00000000000000000 
2 0.00000000000000000 0.00000000000000000 -1.00000000000000000 0.00000000000000000 0.00000000000000000 1.00000000000000000 0.10000000000000003
1 0.00000000000000000 0.00000000000000000 1.00000000000000000 0.00000000000000000 
2 0.00000000000000000 0.00000000000000000 -1.00000000000000000 0.00000000000000000 0.00000000000000000 1.00000000000000000 0.40000000000000002
1 -0.10000000000000003 0.00000000000000000 -1.00000000000000000 0.00000000000000000 
1 0.00000000000000139 0.10000000000000142 -0.00000000000000011 1.00000000000000000 
1 0.14999999999999999 14.95173193821572966 -1.00000000000000000 0.00000000000000000 
1 31.00000000000000000 -0.29999999999999999 0.00000000000000000 1.00000000000000000 
1 82.39999999999884039 0.00000000000000000 0.00000000000000000 -1.00000000000000000 
1 0.00000000000000000 0.00000000000000000 0.00000000000000000 -1.00000000000000000 
1 0.10000000000000003 0.00000000000000000 1.00000000000000000 0.00000000000000000 
1 0.00000000000000000 29.90346387643147352 1.00000000000000000 0.00000000000000000 
2 0.00000000000000000 0.00000000000000000 1.00000000000000000 0.00000000000000000 -0.00000000000000000 1.00000000000000000 0.40000000000000002
1 0.00000000000000000 0.00000000000000000 0.00000000000000000 1.00000000000000000 
1 1.57079632679489656 0.00000000000000000 0.00000000000000000 1.00000000000000000 
1 -0.14999999999999999 14.95173193821572966 0.00000000000000000 -1.00000000000000000 
1 15.50000000000000711 -14.95173193821574387 0.00000000000000000 1.00000000000000000 
2 0.00000000000000000 0.00000000000000000 1.00000000000000000 0.00000000000000000 -0.00000000000000000 1.00000000000000000 0.10000000000000003
1 0.00000000000000000 0.00000000000000000 1.00000000000000000 0.00000000000000000 
1 0.00000000000000000 0.00000000000000000 0.00000000000000000 1.00000000000000000 
1 1.57079632679489656 0.00000000000000000 0.00000000000000000 1.00000000000000000 
1 0.14999999999999999 -14.95173193821574387 0.00000000000000000 1.00000000000000000 
1 15.50000000000000711 14.95173193821572966 0.00000000000000000 -1.00000000000000000 
1 0.00000000000000000 0.00000000000000000 0.00000000000000000 -1.00000000000000000 
1 29.90346387643147352 0.00000000000000000 0.00000000000000000 -1.00000000000000000 
1 -15.49999999999999289 -14.95173193821574387 1.00000000000000000 0.00000000000000000 
1 0.00000000000000000 0.00000000000000000 1.00000000000000000 0.00000000000000000 
1 0.00000000000000000 -0.29999999999999999 1.00000000000000000 0.00000000000000000 
1 0.40000000000000002 0.00000000000000000 -1.00000000000000000 0.00000000000000000 
1 -0.00000000000000139 0.39999999999999858 -0.00000000000000011 -1.00000000000000000 
1 -0.14999999999999999 -14.95173193821574387 1.00000000000000000 0.00000000000000000 
1 0.00000000000000000 0.00000000000000000 0.00000000000000000 -1.00000000000000000 
1 0.00000000000000000 0.00000000000000000 1.00000000000000000 0.00000000000000000 
1 0.00000000000000000 -0.29999999999999999 1.00000000000000000 0.00000000000000000 
1 15.50000000000000711 14.95173193821572966 -1.00000000000000000 0.00000000000000000 
1 -15.49999999999999289 14.95173193821572966 0.00000000000000000 -1.00000000000000000 
1 0.00000000000000000 0.00000000000000000 1.00000000000000000 0.00000000000000000 
1 0.00000000000000000 -0.29999999999999999 1.00000000000000000 0.00000000000000000 
1 31.00000000000000000 0.00000000000000000 0.00000000000000000 -1.00000000000000000 
1 0.00000000000000000 0.00000000000000000 0.00000000000000000 -1.00000000000000000 
Curves 38
1 41.19999999999942020 -108.29757678588089220 0.29999999999999999 0.00000000000000000 0.00000000000000000 -1.00000000000000000 
1 72.19999999999942020 -108.29757678588089220 0.29999999999999999 0.00000000000000000 0.00000000000000000 -1.00000000000000000 
1 41.19999999999942020 -108.29757678588089220 0.29999999999999999 1.00000000000000000 0.00000000000000000 0.00000000000000000 
2 41.19999999999942020 -108.29757678588089220 -0.10000000000000003 0.00000000000000000 1.00000000000000000 0.00000000000000000 0.00000000000000000 -0.00000000000000000 1.00000000000000000 1.00000000000000000 0.00000000000000000 -0.00000000000000000 0.40000000000000002
2 41.19999999999942020 -108.29757678588089220 -0.10000000000000003 0.00000000000000000 1.00000000000000000 0.00000000000000000 0.00000000000000000 -0.00000000000000000 1.00000000000000000 1.00000000000000000 0.00000000000000000 -0.00000000000000000 0.10000000000000003
1 41.19999999999942020 -108.29757678588089220 0.00000000000000000 0.00000000000000000 0.00000000000000000 1.00000000000000000 
1 72.19999999999942020 -78.39411290944941868 0.29999999999999999 0.00000000000000000 0.00000000000000000 -1.00000000000000000 
1 72.19999999999942020 -108.29757678588089220 0.29999999999999999 0.00000000000000000 1.00000000000000000 0.00000000000000000 
1 41.19999999999942020 -78.39411290944941868 0.29999999999999999 0.00000000000000000 -1.00000000000000000 0.00000000000000000 
1 72.19999999999942020 -78.39411290944941868 0.29999999999999999 -1.00000000000000000 0.00000000000000000 0.00000000000000000 
1 41.19999999999942020 -108.29757678588089220 0.00000000000000000 0.00000000000000000 1.00000000000000000 0.00000000000000000 
2 41.19999999999942020 -78.39411290944941868 -0.10000000000000003 0.00000000000000000 1.00000000000000000 0.00000000000000000 0.00000000000000000 -0.00000000000000000 1.00000000000000000 1.00000000000000000 0.00000000000000000 -0.00000000000000000 0.40000000000000002
1 41.19999999999942020 -108.29757678588089220 0.00000000000000000 0.00000000000000000 1.00000000000000000 0.00000000000000000 
2 41.19999999999942020 -78.39411290944941868 -0.10000000000000003 0.00000000000000000 1.00000000000000000 0.00000000000000000 0.00000000000000000 -0.00000000000000000 1.00000000000000000 1.00000000000000000 0.00000000000000000 -0.00000000000000000 0.10000000000000003
1 41.19999999999942020 -108.29757678588089220 0.00000000000000000 0.00000000000000000 1.00000000000000000 0.00000000000000000 
1 -41.19999999999942020 -108.29757678588089220 0.00000000000000000 0.00000000000000000 0.00000000000000000 1.00000000000000000 
1 -41.19999999999942020 -108.29757678588089220 0.00000000000000000 1.00000000000000000 0.00000000000000000 0.00000000000000000 
1 -41.19999999999942020 -108.29757678588089220 0.00000000000000000 1.00000000000000000 0.00000000000000000 0.00000000000000000 
1 41.19999999999942020 -78.39411290944941868 0.00000000000000000 0.00000000000000000 0.00000000000000000 1.00000000000000000 
1 41.19999999999942020 -78.39411290944941868 0.00000000000000000 0.00000000000000000 0.00000000000000000 1.00000000000000000 
1 41.19999999999942020 -78.39411290944941868 0.00000000000000000 -1.00000000000000000 0.00000000000000000 0.00000000000000000 
1 -41.19999999999942020 -78.39411290944941868 0.00000000000000000 0.00000000000000000 -1.00000000000000000 0.00000000000000000 
1 41.19999999999942020 -78.39411290944941868 0.00000000000000000 -1.00000000000000000 0.00000000000000000 0.00000000000000000 
1 -41.19999999999942020 -78.39411290944941868 0.00000000000000000 0.00000000000000000 -1.00000000000000000 0.00000000000000000 
2 -41.19999999999942020 -108.29757678588089220 -0.10000000000000003 0.00000000000000000 -1.00000000000000000 0.00000000000000000 0.00000000000000000 0.00000000000000000 1.00000000000000000 -1.00000000000000000 0.00000000000000000 0.00000000000000000 0.10000000000000003
2 -41.19999999999942020 -108.29757678588089220 -0.10000000000000003 0.00000000000000000 -1.00000000000000000 0.00000000000000000 0.00000000000000000 0.00000000000000000 1.00000000000000000 -1.00000000000000000 0.00000000000000000 0.00000000000000000 0.40000000000000002
1 -41.19999999999942020 -108.29757678588089220 0.00000000000000000 0.00000000000000000 0.00000000000000000 1.00000000000000000 
1 -41.19999999999942020 -78.39411290944941868 0.00000000000000000 0.00000000000000000 0.00000000000000000 1.00000000000000000 
2 -41.19999999999942020 -78.39411290944941868 -0.10000000000000003 0.00000000000000000 -1.00000000000000000 0.00000000000000000 0.00000000000000000 0.00000000000000000 1.00000000000000000 -1.00000000000000000 0.00000000000000000 0.00000000000000000 0.40000000000000002
1 -41.19999999999942020 -108.29757678588089220 0.29999999999999999 0.00000000000000000 1.00000000000000000 0.00000000000000000 
2 -41.19999999999942020 -78.39411290944941868 -0.10000000000000003 0.00000000000000000 -1.00000000000000000 0.00000000000000000 0.00000000000000000 0.00000000000000000 1.00000000000000000 -1.00000000000000000 0.00000000000000000 0.00000000000000000 0.10000000000000003
1 -41.19999999999942020 -78.39411290944941868 0.00000000000000000 0.00000000000000000 -1.00000000000000000 0.00000000000000000 
1 -72.19999999999942020 -108.29757678588089220 0.29999999999999999 0.00000000000000000 0.00000000000000000 -1.00000000000000000 
1 -72.19999999999942020 -108.29757678588089220 0.29999999999999999 1.00000000000000000 0.00000000000000000 0.00000000000000000 
1 -41.19999999999942020 -78.39411290944941868 0.29999999999999999 0.00000000000000000 0.00000000000000000 -1.00000000000000000 
1 -41.19999999999942020 -78.39411290944941868 0.29999999999999999 -1.00000000000000000 0.00000000000000000 0.00000000000000000 
1 -72.19999999999942020 -78.39411290944941868 0.29999999999999999 0.00000000000000000 -1.00000000000000000 0.00000000000000000 
1 -72.19999999999942020 -78.39411290944941868 0.29999999999999999 0.00000000000000000 0.00000000000000000 -1.00000000000000000 
Polygon3D 0
PolygonOnTriangulations 0
Surfaces 24
1 41.19999999999942020 -108.29757678588089220 0.29999999999999999 0.00000000000000000 -1.00000000000000000 0.00000000000000000 1.00000000000000000 0.00000000000000000 0.00000000000000000 -0.00000000000000000 0.00000000000000000 1.00000000000000000 
1 41.19999999999942020 -108.29757678588089220 -0.10000000000000003 0.00000000000000000 1.00000000000000000 0.00000000000000000 0.00000000000000000 -0.00000000000000000 1.00000000000000000 1.00000000000000000 0.00000000000000000 -0.00000000000000000 
1 41.19999999999942020 -93.34584484766517676 0.14999999999999999 1.00000000000000000 0.00000000000000000 0.00000000000000000 -0.00000000000000000 0.00000000000000000 1.00000000000000000 0.00000000000000000 -1.00000000000000000 0.00000000000000000 
1 72.19999999999942020 -108.29757678588089220 0.29999999999999999 1.00000000000000000 -0.00000000000000000 0.00000000000000000 0.00000000000000000 1.00000000000000000 0.00000000000000000 -0.00000000000000000 0.00000000000000000 1.00000000000000000 
1 56.69999999999942730 -93.34584484766514834 0.29999999999999999 0.00000000000000000 0.00000000000000000 1.00000000000000000 1.00000000000000000 0.00000000000000000 -0.00000000000000000 -0.00000000000000000 1.00000000000000000 0.00000000000000000 
2 41.19999999999942020 -78.39411290944941868 -0.10000000000000003 -0.00000000000000000 -1.00000000000000000 -0.00000000000000000 0.00000000000000000 0.00000000000000000 1.00000000000000000 1.00000000000000000 -0.00000000000000000 -0.00000000000000000 0.40000000000000002
2 41.19999999999942020 -108.29757678588089220 -0.10000000000000003 0.00000000000000000 1.00000000000000000 0.00000000000000000 0.00000000000000000 -0.00000000000000000 1.00000000000000000 1.00000000000000000 0.00000000000000000 -0.00000000000000000 0.10000000000000003
1 -41.19999999999942020 -108.29757678588089220 0.00000000000000000 0.00000000000000000 1.00000000000000000 0.00000000000000000 1.00000000000000000 0.00000000000000000 0.00000000000000000 0.00000000000000000 0.00000000000000000 -1.00000000000000000 
1 41.19999999999942020 -108.29757678588089220 0.00000000000000000 -1.00000000000000000 0.00000000000000000 0.00000000000000000 0.00000000000000000 1.00000000000000000 0.00000000000000000 0.00000000000000000 0.00000000000000000 -1.00000000000000000 
1 72.19999999999942020 -78.39411290944941868 0.29999999999999999 0.00000000000000000 1.00000000000000000 0.00000000000000000 -1.00000000000000000 0.00000000000000000 0.00000000000000000 0.00000000000000000 -0.00000000000000000 1.00000000000000000 
1 41.19999999999942020 -78.39411290944941868 -0.10000000000000003 0.00000000000000000 1.00000000000000000 0.00000000000000000 -0.00000000000000000 0.00000000000000000 -1.00000000000000000 1.00000000000000000 -0.00000000000000000 -0.00000000000000000 
1 0.00000000000000000 -93.34584484766514834 0.00000000000000000 0.00000000000000000 0.00000000000000000 1.00000000000000000 1.00000000000000000 0.00000000000000000 -0.00000000000000000 -0.00000000000000000 1.00000000000000000 0.00000000000000000 
1 0.00000000000000000 -93.34584484766514834 0.00000000000000000 0.00000000000000000 0.00000000000000000 1.00000000000000000 1.00000000000000000 0.00000000000000000 -0.00000000000000000 -0.00000000000000000 1.00000000000000000 0.00000000000000000 
1 -41.19999999999942020 -78.39411290944941868 0.00000000000000000 1.00000000000000000 0.00000000000000000 -0.00000000000000000 0.00000000000000000 -1.00000000000000000 0.00000000000000000 0.00000000000000000 -0.00000000000000000 -1.00000000000000000 
1 -41.19999999999942020 -108.29757678588089220 -0.10000000000000003 0.00000000000000000 -1.00000000000000000 0.00000000000000000 -0.00000000000000000 -0.00000000000000000 -1.00000000000000000 -1.00000000000000000 -0.00000000000000000 0.00000000000000000 
1 41.19999999999942020 -78.39411290944941868 0.00000000000000000 0.00000000000000000 -1.00000000000000000 0.00000000000000000 -1.00000000000000000 0.00000000000000000 0.00000000000000000 -0.00000000000000000 -0.00000000000000000 -1.00000000000000000 
2 -41.19999999999942020 -108.29757678588089220 -0.10000000000000003 -0.00000000000000000 1.00000000000000000 -0.00000000000000000 0.00000000000000000 0.00000000000000000 1.00000000000000000 -1.00000000000000000 -0.00000000000000000 0.00000000000000000 0.40000000000000002
2 -41.19999999999942020 -78.39411290944941868 -0.10000000000000003 0.00000000000000000 -1.00000000000000000 0.00000000000000000 0.00000000000000000 0.00000000000000000 1.00000000000000000 -1.00000000000000000 0.00000000000000000 0.00000000000000000 0.10000000000000003
1 -41.19999999999942020 -93.34584484766516255 0.14999999999999999 -1.00000000000000000 -0.00000000000000000 -0.00000000000000000 0.00000000000000000 0.00000000000000000 -1.00000000000000000 0.00000000000000000 -1.00000000000000000 0.00000000000000000 
1 -72.19999999999942020 -108.29757678588089220 0.29999999999999999 0.00000000000000000 -1.00000000000000000 0.00000000000000000 1.00000000000000000 0.00000000000000000 0.00000000000000000 -0.00000000000000000 0.00000000000000000 1.00000000000000000 
1 -41.19999999999942020 -78.39411290944941868 -0.10000000000000003 0.00000000000000000 -1.00000000000000000 0.00000000000000000 0.00000000000000000 0.00000000000000000 1.00000000000000000 -1.00000000000000000 0.00000000000000000 0.00000000000000000 
1 -56.69999999999942730 -93.34584484766514834 0.29999999999999999 0.00000000000000000 0.00000000000000000 1.00000000000000000 1.00000000000000000 0.00000000000000000 -0.00000000000000000 -0.00000000000000000 1.00000000000000000 0.00000000000000000 
1 -72.19999999999942020 -78.39411290944941868 0.29999999999999999 -1.00000000000000000 -0.00000000000000000 -0.00000000000000000 0.00000000000000000 -1.00000000000000000 0.00000000000000000 -0.00000000000000000 0.00000000000000000 1.00000000000000000 
1 -41.19999999999942020 -78.39411290944941868 0.29999999999999999 0.00000000000000000 1.00000000000000000 0.00000000000000000 -1.00000000000000000 0.00000000000000000 0.00000000000000000 0.00000000000000000 -0.00000000000000000 1.00000000000000000 
Triangulations 0

TShapes 109
Ve
0.000000100000000
41.599999999999419 -108.297576785880892 -0.100000000000001
0 0

0101101
*
Ve
0.000000100000000
41.299999999999422 -108.297576785880892 -0.100000000000001
0 0

0101101
*
Ed
 0.000000100000000 1 1 0
1  1 0 0.000000000000000 0.300000000000000
2  1 2 0 0.000000000000000 0.300000000000000
2  2 2 4 0.000000000000000 0.300000000000000
2  3 3 0 0.000000000000000 0.300000000000000
2  4 1 5 0.000000000000000 0.300000000000000
0

0101000
+109 4 -108 4 *
Ve
0.000000100000000
72.199999999999420 -108.297576785880892 0.300000000000000
0 0

0101101
*
Ed
 0.000000100000000 1 1 0
1  2 0 0.000000000000000 0.300000000000000
2  5 1 0 0.000000000000000 0.300000000000000
2  6 4 0 0.000000000000000 0.300000000000000
0

0101000
+106 0 -106 6 *
Ed
 0.000000100000000 1 1 0
1  3 0 0.000000000000000 31.000000000000000
2  7 1 0 0.000000000000000 31.000000000000000
2  8 1 7 0.000000000000000 31.000000000000000
2  9 5 0 0.000000000000000 31.000000000000000
0

0101000
+109 8 -106 0 *
Ed
 0.000000100000000 1 1 0
1  3 0 0.000000000000000 31.000000000000000
2  7 1 0 0.000000000000000 31.000000000000000
2  8 1 7 0.000000000000000 31.000000000000000
2  9 5 0 0.000000000000000 31.000000000000000
0

0101000
+108 10 -106 0 *
Wi

0101100
+107 3 -105 2 -104 2 +103 9 *
Fa
0  0.000000100000000 1 2

0111000
+102 0 *
Ve
0.000000100000000
41.199999999999420 -108.297576785880892 0.300000000000000
0 0

0101101
*
Ed
 0.000000100000000 1 1 0
1  4 0 0.000000000000000 1.570796326794897
2  10 6 0 0.000000000000000 1.570796326794897
2  11 2 0 0.000000000000000 1.570796326794897
0

0101000
+100 0 -109 0 *
Ve
0.000000100000000
41.199999999999420 -108.297576785880892 0.000000000000000
0 0

0101101
*
Ed
 0.000000100000000 1 1 0
1  5 0 0.000000000000000 1.570796326794897
2  12 2 0 0.000000000000000 1.570796326794897
2  13 7 0 0.000000000000000 1.570796326794897
0

0101000
+98 0 -108 0 *
Ed
 0.000000100000000 1 1 0
1  6 0 0.000000000000000 0.300000000000000
2  14 8 0 0.000000000000000 0.300000000000000
2  15 9 0 0.000000000000000 0.300000000000000
2  16 2 12 0.000000000000000 0.300000000000000
0

0101000
+98 12 -100 12 *
Wi

0101100
+99 0 -97 0 +96 11 +107 3 *
Fa
0  0.000000100000000 2 0

0111000
+95 0 *
Ve
0.000000100000000
72.199999999999420 -78.394112909449419 0.300000000000000
0 0

0101101
*
Ed
 0.000000100000000 1 1 0
1  7 0 0.000000000000000 0.300000000000000
2  17 10 0 0.000000000000000 0.300000000000000
2  18 4 0 0.000000000000000 0.300000000000000
0

0101000
+93 0 -93 6 *
Ed
 0.000000100000000 1 1 0
1  8 0 0.000000000000000 29.903463876431474
2  19 5 0 0.000000000000000 29.903463876431474
2  20 4 0 0.000000000000000 29.903463876431474
2  21 4 7 0.000000000000000 29.903463876431474
0

0101000
+106 0 -93 0 *
Wi

0101100
+105 0 -92 0 -91 0 +91 6 *
Fa
0  0.000000100000000 4 0

0111000
+90 0 *
Ve
0.000000100000000
41.599999999999419 -78.394112909449419 -0.100000000000001
0 0

0101101
*
Ed
 0.000000100000000 1 1 0
1  9 0 0.000000000000000 29.903463876431474
2  22 6 0 0.000000000000000 29.903463876431474
2  23 6 4 0.000000000000000 29.903463876431474
2  24 3 0 0.000000000000000 29.903463876431474
2  25 5 5 0.000000000000000 29.903463876431474
0

0101000
+88 4 -109 4 *
Ed
 0.000000100000000 1 1 0
1  10 0 0.000000000000000 31.000000000000000
2  26 10 0 0.000000000000000 31.000000000000000
2  27 10 7 0.000000000000000 31.000000000000000
2  28 5 0 0.000000000000000 31.000000000000000
0

0101000
+93 0 -88 8 *
Wi

0101100
+87 3 +104 2 +91 2 +86 2 *
Fa
0  0.000000100000000 5 2

0111000
+85 0 *
Ve
0.000000100000000
41.299999999999422 -78.394112909449419 -0.100000000000001
0 0

0101101
*
Ed
 0.000000100000000 1 1 0
1  11 0 0.000000000000000 29.903463876431474
2  29 7 0 0.000000000000000 29.903463876431474
2  30 7 4 0.000000000000000 29.903463876431474
2  31 3 0 0.000000000000000 29.903463876431474
2  32 5 13 0.000000000000000 29.903463876431474
0

0101000
+108 4 -83 4 *
Ed
 0.000000100000000 1 1 0
1  10 0 0.000000000000000 31.000000000000000
2  26 10 0 0.000000000000000 31.000000000000000
2  27 10 7 0.000000000000000 31.000000000000000
2  28 5 0 0.000000000000000 31.000000000000000
0

0101000
+93 0 -83 10 *
Wi

0101100
-82 3 +103 9 +91 9 +81 9 *
Fa
0  0.000000100000000 5 9

0111000
+80 0 *
Ve
0.000000100000000
41.199999999999420 -78.394112909449419 0.300000000000000
0 0

0101101
*
Ed
 0.000000100000000 1 1 0
1  12 0 0.000000000000000 1.570796326794897
2  33 6 0 0.000000000000000 1.570796326794897
2  34 11 0 0.000000000000000 1.570796326794897
0

0101000
+78 0 -88 0 *
Ed
 0.000000100000000 1 1 0
1  13 0 0.000000000000000 29.903463876431474
2  35 9 19 0.000000000000000 29.903463876431474
2  36 12 20 0.000000000000000 29.903463876431474
2  37 6 21 0.000000000000000 29.903463876431474
0

0101000
+100 21 -78 21 *
Wi

0101100
+77 0 -99 0 +76 18 +87 3 *
Fa
0  0.000000100000000 6 0

0111000
+75 0 *
Ve
0.000000100000000
41.199999999999420 -78.394112909449419 0.000000000000000
0 0

0101101
*
Ed
 0.000000100000000 1 1 0
1  14 0 0.000000000000000 1.570796326794897
2  38 7 0 0.000000000000000 1.570796326794897
2  39 11 0 0.000000000000000 1.570796326794897
0

0101000
+73 0 -83 0 *
Ed
 0.000000100000000 1 1 0
1  15 0 0.000000000000000 29.903463876431474
2  40 9 23 0.000000000000000 29.903463876431474
2  41 13 20 0.000000000000000 29.903463876431474
2  42 7 24 0.000000000000000 29.903463876431474
0

0101000
+98 24 -73 24 *
Wi

0101100
+97 0 -72 0 -71 22 +82 3 *
Fa
0  0.000000100000000 7 0

0111000
+70 0 *
Ve
0.000000100000000
-41.199999999999420 -108.297576785880892 0.000000000000000
0 0

0101101
*
Ve
0.000000100000000
-41.199999999999420 -108.297576785880892 0.300000000000000
0 0

0101101
*
Ed
 0.000000100000000 1 1 0
1  16 0 0.000000000000000 0.300000000000000
2  43 14 0 0.000000000000000 0.300000000000000
2  44 8 0 0.000000000000000 0.300000000000000
2  45 15 12 0.000000000000000 0.300000000000000
0

0101000
+68 12 -67 12 *
Ed
 0.000000100000000 1 1 0
1  17 0 0.000000000000000 82.399999999998840
2  46 8 23 0.000000000000000 82.399999999998840
2  47 13 20 0.000000000000000 82.399999999998840
0

0101000
+68 24 -98 24 *
Ed
 0.000000100000000 1 1 0
1  18 0 0.000000000000000 82.399999999998840
2  48 8 19 0.000000000000000 82.399999999998840
2  49 12 20 0.000000000000000 82.399999999998840
0

0101000
+67 21 -100 21 *
Wi

0101100
+66 11 -96 11 -65 22 +64 18 *
Fa
0  0.000000100000000 8 11

0111000
+63 0 *
Ed
 0.000000100000000 1 1 0
1  19 0 0.000000000000000 0.300000000000000
2  50 11 0 0.000000000000000 0.300000000000000
2  51 11 4 0.000000000000000 0.300000000000000
2  52 3 0 0.000000000000000 0.300000000000000
2  53 10 5 0.000000000000000 0.300000000000000
0

0101000
+83 4 -88 4 *
Wi

0101100
+92 2 +61 3 -86 2 +81 9 *
Fa
0  0.000000100000000 10 2

0111000
+60 0 *
Ed
 0.000000100000000 1 1 0
1  20 0 0.000000000000000 0.300000000000000
2  54 16 0 0.000000000000000 0.300000000000000
2  55 9 0 0.000000000000000 0.300000000000000
2  56 11 12 0.000000000000000 0.300000000000000
0

0101000
+73 12 -78 12 *
Wi

0101100
+72 0 -77 0 -58 11 +61 3 *
Fa
0  0.000000100000000 11 0

0111000
+57 0 *
Ve
0.000000100000000
-41.199999999999420 -78.394112909449419 0.300000000000000
0 0

0101101
*
Ed
 0.000000100000000 1 1 0
1  21 0 0.000000000000000 82.399999999998840
2  57 16 19 0.000000000000000 82.399999999998840
2  58 12 20 0.000000000000000 82.399999999998840
0

0101000
+78 21 -55 21 *
Ed
 0.000000100000000 1 1 0
1  22 0 0.000000000000000 29.903463876431474
2  59 14 19 0.000000000000000 29.903463876431474
2  60 12 20 0.000000000000000 29.903463876431474
2  61 17 21 0.000000000000000 29.903463876431474
0

0101000
+55 21 -67 21 *
Wi

0101100
+54 18 +53 18 +64 18 +76 18 *
Fa
0  0.000000100000000 12 25

0111000
+52 0 *
Ve
0.000000100000000
-41.199999999999420 -78.394112909449419 0.000000000000000
0 0

0101101
*
Ed
 0.000000100000000 1 1 0
1  23 0 0.000000000000000 82.399999999998840
2  62 16 23 0.000000000000000 82.399999999998840
2  63 13 20 0.000000000000000 82.399999999998840
0

0101000
+73 24 -50 24 *
Ed
 0.000000100000000 1 1 0
1  24 0 0.000000000000000 29.903463876431474
2  64 14 23 0.000000000000000 29.903463876431474
2  65 13 20 0.000000000000000 29.903463876431474
2  66 18 24 0.000000000000000 29.903463876431474
0

0101000
+50 24 -68 24 *
Wi

0101100
+49 22 +48 22 +65 22 +71 22 *
Fa
0  0.000000100000000 13 26

0111000
+47 0 *
Ve
0.000000100000000
-41.299999999999422 -108.297576785880892 -0.100000000000001
0 0

0101101
*
Ed
 0.000000100000000 1 1 0
1  25 0 0.000000000000000 1.570796326794897
2  67 18 0 0.000000000000000 1.570796326794897
2  68 15 0 0.000000000000000 1.570796326794897
0

0101000
+68 0 -45 0 *
Ve
0.000000100000000
-41.599999999999419 -108.297576785880892 -0.100000000000001
0 0

0101101
*
Ed
 0.000000100000000 1 1 0
1  26 0 0.000000000000000 1.570796326794897
2  69 17 0 0.000000000000000 1.570796326794897
2  70 15 0 0.000000000000000 1.570796326794897
0

0101000
+67 0 -43 0 *
Ed
 0.000000100000000 1 1 0
1  27 0 0.000000000000000 0.300000000000000
2  71 15 0 0.000000000000000 0.300000000000000
2  72 15 28 0.000000000000000 0.300000000000000
2  73 19 0 0.000000000000000 0.300000000000000
2  74 20 30 0.000000000000000 0.300000000000000
0

0101000
+45 28 -43 28 *
Wi

0101100
+44 0 -42 0 -66 11 +41 27 *
Fa
0  0.000000100000000 15 0

0111000
+40 0 *
Ed
 0.000000100000000 1 1 0
1  28 0 0.000000000000000 0.300000000000000
2  75 16 0 0.000000000000000 0.300000000000000
2  76 14 0 0.000000000000000 0.300000000000000
2  77 21 12 0.000000000000000 0.300000000000000
0

0101000
+50 12 -55 12 *
Wi

0101100
+58 11 -38 11 -49 22 +54 18 *
Fa
0  0.000000100000000 16 11

0111000
+37 0 *
Ve
0.000000100000000
-41.599999999999419 -78.394112909449419 -0.100000000000001
0 0

0101101
*
Ed
 0.000000100000000 1 1 0
1  29 0 0.000000000000000 1.570796326794897
2  78 17 0 0.000000000000000 1.570796326794897
2  79 21 0 0.000000000000000 1.570796326794897
0

0101000
+55 0 -35 0 *
Ed
 0.000000100000000 1 1 0
1  30 0 0.000000000000000 29.903463876431474
2  80 17 0 0.000000000000000 29.903463876431474
2  81 17 28 0.000000000000000 29.903463876431474
2  82 19 0 0.000000000000000 29.903463876431474
2  83 22 30 0.000000000000000 29.903463876431474
0

0101000
+43 28 -35 28 *
Wi

0101100
+42 0 -34 0 +53 18 +33 27 *
Fa
0  0.000000100000000 17 0

0111000
+32 0 *
Ve
0.000000100000000
-41.299999999999422 -78.394112909449419 -0.100000000000001
0 0

0101101
*
Ed
 0.000000100000000 1 1 0
1  31 0 0.000000000000000 1.570796326794897
2  84 21 0 0.000000000000000 1.570796326794897
2  85 18 0 0.000000000000000 1.570796326794897
0

0101000
+50 0 -30 0 *
Ed
 0.000000100000000 1 1 0
1  32 0 0.000000000000000 29.903463876431474
2  86 18 0 0.000000000000000 29.903463876431474
2  87 18 28 0.000000000000000 29.903463876431474
2  88 19 0 0.000000000000000 29.903463876431474
2  89 22 32 0.000000000000000 29.903463876431474
0

0101000
+30 28 -45 28 *
Wi

0101100
+29 0 -44 0 -48 22 +28 27 *
Fa
0  0.000000100000000 18 0

0111000
+27 0 *
Ve
0.000000100000000
-72.199999999999420 -108.297576785880892 0.300000000000000
0 0

0101101
*
Ed
 0.000000100000000 1 1 0
1  33 0 0.000000000000000 0.300000000000000
2  90 20 0 0.000000000000000 0.300000000000000
2  91 23 0 0.000000000000000 0.300000000000000
0

0101000
+25 0 -25 31 *
Ed
 0.000000100000000 1 1 0
1  34 0 0.000000000000000 31.000000000000000
2  92 22 0 0.000000000000000 31.000000000000000
2  93 20 0 0.000000000000000 31.000000000000000
2  94 20 33 0.000000000000000 31.000000000000000
0

0101000
+25 0 -43 34 *
Ed
 0.000000100000000 1 1 0
1  34 0 0.000000000000000 31.000000000000000
2  92 22 0 0.000000000000000 31.000000000000000
2  93 20 0 0.000000000000000 31.000000000000000
2  94 20 33 0.000000000000000 31.000000000000000
0

0101000
+25 0 -45 36 *
Wi

0101100
+24 29 +41 27 -23 29 +22 35 *
Fa
0  0.000000100000000 20 29

0111000
+21 0 *
Ed
 0.000000100000000 1 1 0
1  35 0 0.000000000000000 0.300000000000000
2  95 21 0 0.000000000000000 0.300000000000000
2  96 21 28 0.000000000000000 0.300000000000000
2  97 19 0 0.000000000000000 0.300000000000000
2  98 24 30 0.000000000000000 0.300000000000000
0

0101000
+35 28 -30 28 *
Wi

0101100
+34 0 -29 0 +38 11 +19 27 *
Fa
0  0.000000100000000 21 0

0111000
+18 0 *
Ve
0.000000100000000
-72.199999999999420 -78.394112909449419 0.300000000000000
0 0

0101101
*
Ed
 0.000000100000000 1 1 0
1  36 0 0.000000000000000 31.000000000000000
2  99 24 0 0.000000000000000 31.000000000000000
2  100 24 33 0.000000000000000 31.000000000000000
2  101 22 0 0.000000000000000 31.000000000000000
0

0101000
+35 34 -16 0 *
Ed
 0.000000100000000 1 1 0
1  37 0 0.000000000000000 29.903463876431474
2  102 22 0 0.000000000000000 29.903463876431474
2  103 23 0 0.000000000000000 29.903463876431474
2  104 23 33 0.000000000000000 29.903463876431474
0

0101000
+16 0 -25 0 *
Wi

0101100
+33 27 +15 29 +14 29 +23 29 *
Fa
0  0.000000100000000 22 29

0111000
+13 0 *
Ed
 0.000000100000000 1 1 0
1  36 0 0.000000000000000 31.000000000000000
2  99 24 0 0.000000000000000 31.000000000000000
2  100 24 33 0.000000000000000 31.000000000000000
2  101 22 0 0.000000000000000 31.000000000000000
0

0101000
+30 36 -16 0 *
Wi

0101100
-28 27 +11 35 +14 35 +22 35 *
Fa
0  0.000000100000000 22 35

0111000
+10 0 *
Ed
 0.000000100000000 1 1 0
1  38 0 0.000000000000000 0.300000000000000
2  105 24 0 0.000000000000000 0.300000000000000
2  106 23 0 0.000000000000000 0.300000000000000
0

0101000
+16 0 -16 31 *
Wi

0101100
+8 0 -24 0 -14 0 +14 31 *
Fa
0  0.000000100000000 23 0

0111000
+7 0 *
Wi

0101100
+19 27 -8 29 -15 29 +11 35 *
Fa
0  0.000000100000000 24 29

0111000
+5 0 *
Sh

0101100
+101 0 -94 0 +89 2 +84 0 -79 0 -74 0 -69 0 -62 0 +59 0 -56 0 
+51 0 -46 0 -39 0 -36 0 -31 0 -26 0 +20 0 -17 0 +12 0 -9 0 
+6 29 +4 0 *
So

0100000
+3 0 *
Co

1100000
+2 0 *

+1 1 