
CASCADE Topology V1, (c) Matra-Datavision
Locations 52
1
0.000000000000000 1.000000000000000 0.000000000000000 0.000000000000000 
0.000000000000000 0.000000000000000 1.000000000000000 0.000000000000000 
1.000000000000000 0.000000000000000 0.000000000000000 0.000000000000000 
1
0.000000000000000 0.000000000000000 1.000000000000000 0.000000000000000 
1.000000000000000 0.000000000000000 0.000000000000000 0.000000000000000 
0.000000000000000 1.000000000000000 0.000000000000000 820.000000000000000 
1
1.000000000000000 0.000000000000000 0.000000000000000 0.000000000000000 
0.000000000000000 1.000000000000000 0.000000000000000 0.000000000000000 
0.000000000000000 0.000000000000000 1.000000000000000 0.000000000000000 
1
1.000000000000000 0.000000000000000 -0.000000000000000 0.000000000000000 
-0.000000000000000 1.000000000000000 0.000000000000000 0.000000000000002 
0.000000000000000 0.000000000000000 1.000000000000000 0.000000000000000 
1
1.000000000000000 0.000000000000000 0.000000000000000 0.000000000000000 
0.000000000000000 1.000000000000000 0.000000000000000 0.000000000000000 
0.000000000000000 0.000000000000000 1.000000000000000 0.000000000000000 
1
-0.500000000000000 0.866025403784439 -0.000000000000000 21.428203230275471 
-0.866025403784439 -0.500000000000000 0.000000000000000 -7.464101615137598 
0.000000000000000 0.000000000000000 1.000000000000000 527.000000000000000 
1
1.000000000000000 0.000000000000000 0.000000000000000 0.000000000000000 
0.000000000000000 1.000000000000000 0.000000000000000 0.000000000000000 
0.000000000000000 0.000000000000000 1.000000000000000 0.000000000000000 
1
1.000000000000000 0.000000000000000 0.000000000000000 -743.574720236604435 
0.000000000000000 1.000000000000000 0.000000000000000 -1287.909194673612319 
0.000000000000000 0.000000000000000 1.000000000000000 0.000000000000161 
2  1 1 2 1 3 1 4 1 5 1 6 1 7 -1 8 1 0
1
1.000000000000000 0.000000000000000 0.000000000000000 1487.149440473208870 
0.000000000000000 1.000000000000000 0.000000000000000 2575.818389347224638 
0.000000000000000 0.000000000000000 1.000000000000000 -0.000000000000322 
2  1 1 2 1 3 1 4 1 5 1 6 1 7 -1 8 1 10 1 0
1
0.000000000000000 0.000000000000000 1.000000000000000 0.000000000000000 
1.000000000000000 0.000000000000000 0.000000000000000 0.000000000000000 
0.000000000000000 1.000000000000000 0.000000000000000 0.000000000000000 
2  12 1 1 1 2 1 3 1 4 1 5 1 6 1 7 -1 8 1 0
2  8 -1 7 1 6 -1 5 -1 4 -1 3 -1 2 -1 1 -1 12 -1 0
2  10 -1 8 -1 7 1 6 -1 5 -1 4 -1 3 -1 2 -1 1 -1 12 -1 0
1
0.000000000000000 0.000000000000000 1.000000000000000 0.000000000000000 
1.000000000000000 0.000000000000000 0.000000000000000 0.000000000000000 
0.000000000000000 1.000000000000000 0.000000000000000 615.000000000000000 
2  8 -1 7 1 6 -1 5 -1 4 -1 3 -1 16 -1 1 -1 12 -1 0
2  10 -1 8 -1 7 1 6 -1 5 -1 4 -1 3 -1 16 -1 1 -1 12 -1 0
1
0.000000000000000 0.000000000000000 1.000000000000000 0.000000000000000 
1.000000000000000 0.000000000000000 0.000000000000000 0.000000000000000 
0.000000000000000 1.000000000000000 0.000000000000000 410.000000000000000 
2  8 -1 7 1 6 -1 5 -1 4 -1 3 -1 19 -1 1 -1 12 -1 0
2  10 -1 8 -1 7 1 6 -1 5 -1 4 -1 3 -1 19 -1 1 -1 12 -1 0
1
0.000000000000000 0.000000000000000 1.000000000000000 0.000000000000000 
1.000000000000000 0.000000000000000 0.000000000000000 0.000000000000000 
0.000000000000000 1.000000000000000 0.000000000000000 205.000000000000000 
2  8 -1 7 1 6 -1 5 -1 4 -1 3 -1 22 -1 1 -1 12 -1 0
2  10 -1 8 -1 7 1 6 -1 5 -1 4 -1 3 -1 22 -1 1 -1 12 -1 0
1
0.000000000000000 0.000000000000000 1.000000000000000 0.000000000000000 
1.000000000000000 0.000000000000000 0.000000000000000 0.000000000000000 
0.000000000000000 1.000000000000000 0.000000000000000 0.000000000000000 
2  8 -1 7 1 6 -1 5 -1 4 -1 3 -1 25 -1 1 -1 12 -1 0
2  10 -1 8 -1 7 1 6 -1 5 -1 4 -1 3 -1 25 -1 1 -1 12 -1 0
2  12 -1 0
2  12 1 1 1 2 1 3 1 4 1 5 1 6 1 7 -1 8 1 10 1 0
2  5 1 6 1 7 -1 8 1 0
2  12 1 1 1 2 1 3 1 4 1 0
2  5 1 6 1 7 -1 8 1 10 1 0
2  1 1 16 1 3 1 4 1 5 1 6 1 7 -1 8 1 0
2  1 1 16 1 3 1 4 1 5 1 6 1 7 -1 8 1 10 1 0
2  12 1 1 1 16 1 3 1 4 1 5 1 6 1 7 -1 8 1 0
2  12 1 1 1 16 1 3 1 4 1 5 1 6 1 7 -1 8 1 10 1 0
2  12 1 1 1 16 1 3 1 4 1 0
2  1 1 19 1 3 1 4 1 5 1 6 1 7 -1 8 1 0
2  1 1 19 1 3 1 4 1 5 1 6 1 7 -1 8 1 10 1 0
2  12 1 1 1 19 1 3 1 4 1 5 1 6 1 7 -1 8 1 0
2  12 1 1 1 19 1 3 1 4 1 5 1 6 1 7 -1 8 1 10 1 0
2  12 1 1 1 19 1 3 1 4 1 0
2  1 1 22 1 3 1 4 1 5 1 6 1 7 -1 8 1 0
2  1 1 22 1 3 1 4 1 5 1 6 1 7 -1 8 1 10 1 0
2  12 1 1 1 22 1 3 1 4 1 5 1 6 1 7 -1 8 1 0
2  12 1 1 1 22 1 3 1 4 1 5 1 6 1 7 -1 8 1 10 1 0
2  12 1 1 1 22 1 3 1 4 1 0
2  1 1 25 1 3 1 4 1 5 1 6 1 7 -1 8 1 0
2  1 1 25 1 3 1 4 1 5 1 6 1 7 -1 8 1 10 1 0
2  12 1 1 1 25 1 3 1 4 1 5 1 6 1 7 -1 8 1 0
2  12 1 1 1 25 1 3 1 4 1 5 1 6 1 7 -1 8 1 10 1 0
2  12 1 1 1 25 1 3 1 4 1 0
Curve2ds 20
1 0.00000000000000000 0.00000000000000000 0.00000000000000000 -1.00000000000000000 
1 6.28318530717958623 0.00000000000000000 0.00000000000000000 -1.00000000000000000 
1 0.00000000000000000 0.00000000000000000 1.00000000000000000 0.00000000000000000 
1 0.00000000000000000 -2974.29888094641728458 1.00000000000000000 0.00000000000000000 
1 0.00000000000000000 0.00000000000000000 1.00000000000000000 0.00000000000000000 
1 0.00000000000000000 -2974.29888094641728458 1.00000000000000000 0.00000000000000000 
1 0.00000000000000000 0.00000000000000000 1.00000000000000000 0.00000000000000000 
1 0.00000000000000000 -2974.29888094641728458 1.00000000000000000 0.00000000000000000 
1 0.00000000000000000 0.00000000000000000 1.00000000000000000 0.00000000000000000 
1 0.00000000000000000 -2974.29888094641728458 1.00000000000000000 0.00000000000000000 
1 0.00000000000000000 0.00000000000000000 1.00000000000000000 0.00000000000000000 
1 0.00000000000000000 -2974.29888094641728458 1.00000000000000000 0.00000000000000000 
1 0.00000000000000000 0.00000000000000000 0.00000000000000000 -1.00000000000000000 
1 6.28318530717958623 0.00000000000000000 0.00000000000000000 -1.00000000000000000 
1 0.00000000000000000 0.00000000000000000 0.00000000000000000 -1.00000000000000000 
1 6.28318530717958623 0.00000000000000000 0.00000000000000000 -1.00000000000000000 
1 0.00000000000000000 0.00000000000000000 0.00000000000000000 -1.00000000000000000 
1 6.28318530717958623 0.00000000000000000 0.00000000000000000 -1.00000000000000000 
1 0.00000000000000000 0.00000000000000000 0.00000000000000000 -1.00000000000000000 
1 6.28318530717958623 0.00000000000000000 0.00000000000000000 -1.00000000000000000 
Curves 6
1 -720.67427381989568858 -1296.22329628874967966 1347.00000000000045475 0.50000000000000022 0.86602540378443860 -0.00000000000000011 
2 0.00000000000000000 0.00000000000000000 0.00000000000000000 0.00000000000000000 0.00000000000000000 1.00000000000000000 1.00000000000000000 0.00000000000000000 -0.00000000000000000 -0.00000000000000000 1.00000000000000000 0.00000000000000000 1.69999999999999996
1 -720.67427381989557489 -1296.22329628874967966 1142.00000000000022737 0.50000000000000022 0.86602540378443860 -0.00000000000000011 
1 -720.67427381989557489 -1296.22329628874990703 937.00000000000022737 0.50000000000000022 0.86602540378443860 -0.00000000000000011 
1 -720.67427381989546120 -1296.22329628874990703 732.00000000000022737 0.50000000000000022 0.86602540378443860 -0.00000000000000011 
1 -720.67427381989546120 -1296.22329628874990703 527.00000000000011369 0.50000000000000022 0.86602540378443860 -0.00000000000000011 
Polygon3D 0
PolygonOnTriangulations 0
Surfaces 10
2 -722.14651700632919074 -1295.37329628874977061 1347.00000000000045475 -0.50000000000000022 -0.86602540378443860 0.00000000000000011 0.86602540378443860 -0.50000000000000022 0.00000000000000035 -0.00000000000000025 0.00000000000000027 1.00000000000000000 1.70000000000000040
2 -722.14651700632907705 -1295.37329628874977061 1142.00000000000022737 -0.50000000000000022 -0.86602540378443860 0.00000000000000011 0.86602540378443860 -0.50000000000000022 0.00000000000000035 -0.00000000000000025 0.00000000000000027 1.00000000000000000 1.70000000000000040
2 -722.14651700632907705 -1295.37329628874999798 937.00000000000022737 -0.50000000000000022 -0.86602540378443860 0.00000000000000011 0.86602540378443860 -0.50000000000000022 0.00000000000000035 -0.00000000000000025 0.00000000000000027 1.00000000000000000 1.70000000000000040
2 -722.14651700632896336 -1295.37329628874999798 732.00000000000022737 -0.50000000000000022 -0.86602540378443860 0.00000000000000011 0.86602540378443860 -0.50000000000000022 0.00000000000000035 -0.00000000000000025 0.00000000000000027 1.00000000000000000 1.70000000000000040
2 -722.14651700632896336 -1295.37329628874999798 527.00000000000011369 -0.50000000000000022 -0.86602540378443860 0.00000000000000011 0.86602540378443860 -0.50000000000000022 0.00000000000000035 -0.00000000000000025 0.00000000000000027 1.00000000000000000 1.70000000000000040
1 -0.00000000000000000 0.00000000000000341 409.99999999999783995 1.00000000000000000 -0.00000000000000006 0.00000000000000000 0.00000000000000006 1.00000000000000000 0.00000000000000000 -0.00000000000000000 0.00000000000000000 1.00000000000000000 
1 -0.00000000000000000 0.00000000000000341 409.99999999999783995 1.00000000000000000 -0.00000000000000006 0.00000000000000000 0.00000000000000006 1.00000000000000000 0.00000000000000000 -0.00000000000000000 0.00000000000000000 1.00000000000000000 
1 -0.00000000000000000 0.00000000000000341 409.99999999999783995 1.00000000000000000 -0.00000000000000006 0.00000000000000000 0.00000000000000006 1.00000000000000000 0.00000000000000000 -0.00000000000000000 0.00000000000000000 1.00000000000000000 
1 -0.00000000000000000 0.00000000000000341 409.99999999999783995 1.00000000000000000 -0.00000000000000006 0.00000000000000000 0.00000000000000006 1.00000000000000000 0.00000000000000000 -0.00000000000000000 0.00000000000000000 1.00000000000000000 
1 -0.00000000000000000 0.00000000000000341 409.99999999999783995 1.00000000000000000 -0.00000000000000006 0.00000000000000000 0.00000000000000006 1.00000000000000000 0.00000000000000000 -0.00000000000000000 0.00000000000000000 1.00000000000000000 
Triangulations 0

TShapes 38
Ve
0.000000100000000
0.000000000000000 1.700000000000000 0.000000000000000
0 0

0101101
*
Ed
 0.000000100000000 1 1 0
1  1 0 0.000000000000000 2974.298880946417285
3  1 2CN 1 0 0.000000000000000 2974.298880946417285
0

0101000
+38 9 -38 11 *
Ed
 0.000000100000000 1 1 0
1  2 0 0.000000000000000 6.283185307179586
2  3 1 14 0.000000000000000 6.283185307179586
2  4 1 15 0.000000000000000 6.283185307179586
2  5 2 17 0.000000000000000 6.283185307179586
2  6 2 18 0.000000000000000 6.283185307179586
2  7 3 20 0.000000000000000 6.283185307179586
2  8 3 21 0.000000000000000 6.283185307179586
2  9 4 23 0.000000000000000 6.283185307179586
2  10 4 24 0.000000000000000 6.283185307179586
2  11 5 26 0.000000000000000 6.283185307179586
2  12 5 27 0.000000000000000 6.283185307179586
0

0101100
+38 28 -38 28 *
Wi

0101100
+37 0 -37 0 -36 13 +36 29 *
Fa
0  0.000000100000000 1 0

0111000
+35 0 *
Wi

0101100
+36 31 *
Fa
0  0.000000100000000 6 0

0111000
+33 0 *
Sh

0101100
+34 0 +32 30 -32 32 *
So

0100000
+31 0 *
Ed
 0.000000100000000 1 1 0
1  3 0 0.000000000000000 2974.298880946417285
3  13 14CN 2 0 0.000000000000000 2974.298880946417285
0

0101000
+38 33 -38 34 *
Wi

0101100
+29 0 -29 0 -36 35 +36 36 *
Fa
0  0.000000100000000 2 0

0111000
+28 0 *
Wi

0101100
+36 37 *
Fa
0  0.000000100000000 7 0

0111000
+26 0 *
Sh

0101100
+27 0 +25 30 -25 32 *
So

0100000
+24 0 *
Ed
 0.000000100000000 1 1 0
1  4 0 0.000000000000000 2974.298880946417285
3  15 16CN 3 0 0.000000000000000 2974.298880946417285
0

0101000
+38 38 -38 39 *
Wi

0101100
+22 0 -22 0 -36 40 +36 41 *
Fa
0  0.000000100000000 3 0

0111000
+21 0 *
Wi

0101100
+36 42 *
Fa
0  0.000000100000000 8 0

0111000
+19 0 *
Sh

0101100
+20 0 +18 30 -18 32 *
So

0100000
+17 0 *
Ed
 0.000000100000000 1 1 0
1  5 0 0.000000000000000 2974.298880946417285
3  17 18CN 4 0 0.000000000000000 2974.298880946417285
0

0101000
+38 43 -38 44 *
Wi

0101100
+15 0 -15 0 -36 45 +36 46 *
Fa
0  0.000000100000000 4 0

0111000
+14 0 *
Wi

0101100
+36 47 *
Fa
0  0.000000100000000 9 0

0111000
+12 0 *
Sh

0101100
+13 0 +11 30 -11 32 *
So

0100000
+10 0 *
Ed
 0.000000100000000 1 1 0
1  6 0 0.000000000000000 2974.298880946417285
3  19 20CN 5 0 0.000000000000000 2974.298880946417285
0

0101000
+38 48 -38 49 *
Wi

0101100
+8 0 -8 0 -36 50 +36 51 *
Fa
0  0.000000100000000 5 0

0111000
+7 0 *
Wi

0101100
+36 52 *
Fa
0  0.000000100000000 10 0

0111000
+5 0 *
Sh

0101100
+6 0 +4 30 -4 32 *
So

0100000
+3 0 *
Co

1100000
+30 0 +23 0 +16 0 +9 0 +2 0 *

+1 0 