
CASCADE Topology V1, (c) Matra-Datavision
Locations 21
1
1.000000000000000 0.000000000000000 0.000000000000000 0.000000000000000 
0.000000000000000 1.000000000000000 0.000000000000000 0.000000000000000 
0.000000000000000 0.000000000000000 1.000000000000000 0.000000000000000 
1
1.000000000000000 0.000000000000000 0.000000000000000 0.000000000000000 
0.000000000000000 1.000000000000000 0.000000000000000 0.000000000000000 
0.000000000000000 0.000000000000000 1.000000000000000 0.000000000000000 
1
1.000000000000000 0.000000000000000 0.000000000000000 0.000000000000000 
0.000000000000000 1.000000000000000 0.000000000000000 0.000000000000000 
0.000000000000000 0.000000000000000 1.000000000000000 0.000000000000000 
2  2 1 3 -1 0
1
1.000000000000000 0.000000000000000 0.000000000000000 0.000000000000000 
0.000000000000000 1.000000000000000 0.000000000000000 0.000000000000000 
0.000000000000000 0.000000000000000 1.000000000000000 0.000000000000000 
2  5 -1 3 1 2 -1 0
1
1.000000000000000 0.000000000000000 0.000000000000000 0.000000000000000 
0.000000000000000 1.000000000000000 0.000000000000000 0.000000000000000 
0.000000000000000 0.000000000000000 1.000000000000000 0.000000000000000 
1
1.000000000000000 0.000000000000000 0.000000000000000 0.000000000000000 
0.000000000000000 1.000000000000000 0.000000000000000 0.000000000000000 
0.000000000000000 0.000000000000000 1.000000000000000 0.000000000000000 
1
1.000000000000000 0.000000000000000 0.000000000000000 0.000000000000000 
0.000000000000000 1.000000000000000 0.000000000000000 0.000000000000000 
0.000000000000000 0.000000000000000 1.000000000000000 0.000000000000000 
2  7 1 8 1 9 -1 0
2  9 1 8 -1 7 -1 0
2  5 -1 3 1 2 -1 9 1 8 -1 7 -1 0
1
1.000000000000000 0.000000000000000 0.000000000000000 0.000000000000000 
0.000000000000000 1.000000000000000 0.000000000000000 0.000000000000000 
0.000000000000000 0.000000000000000 1.000000000000000 6.000000000000000 
2  7 1 8 1 9 -1 13 1 0
2  13 -1 9 1 8 -1 7 -1 0
2  5 -1 3 1 2 -1 13 -1 9 1 8 -1 7 -1 0
2  9 -1 2 1 3 -1 0
2  7 1 8 1 9 -1 2 1 3 -1 0
2  5 -1 0
2  9 -1 13 1 2 1 3 -1 0
2  7 1 8 1 9 -1 13 1 2 1 3 -1 0
Curve2ds 32
1 3.14159265358979356 0.00000000000000000 0.00000000000000000 -1.00000000000000000 
1 4.71238898038468967 0.00000000000000000 0.00000000000000000 -1.00000000000000000 
1 0.00000000000000000 0.00000000000000000 1.00000000000000000 0.00000000000000000 
1 0.00000000000000000 -6.00000000000000000 1.00000000000000000 0.00000000000000000 
1 3.14159265358979312 0.00000000000000000 0.00000000000000000 -1.00000000000000000 
1 4.71238898038468967 0.00000000000000000 0.00000000000000000 -1.00000000000000000 
1 0.00000000000000000 0.00000000000000000 1.00000000000000000 0.00000000000000000 
1 0.00000000000000000 0.00000000000000000 1.00000000000000000 0.00000000000000000 
1 0.00000000000000000 0.00000000000000000 1.00000000000000000 0.00000000000000000 
1 0.00000000000000000 -80.26356633149313780 1.00000000000000000 0.00000000000000000 
1 0.00000000000000000 -80.26356633149313780 1.00000000000000000 0.00000000000000000 
1 0.00000000000000000 -80.26356633149313780 1.00000000000000000 0.00000000000000000 
1 0.00000000000000000 -80.26356633149313780 1.00000000000000000 0.00000000000000000 
1 0.00000000000000000 -6.00000000000000000 1.00000000000000000 0.00000000000000000 
1 0.00000000000000000 -6.00000000000000000 1.00000000000000000 0.00000000000000000 
1 0.00000000000000000 -6.00000000000000000 1.00000000000000000 0.00000000000000000 
1 0.00000000000000000 -74.26356633149313780 1.00000000000000000 0.00000000000000000 
1 0.00000000000000000 -74.26356633149313780 1.00000000000000000 0.00000000000000000 
1 0.00000000000000000 -74.26356633149313780 1.00000000000000000 0.00000000000000000 
1 0.00000000000000000 -74.26356633149313780 1.00000000000000000 0.00000000000000000 
1 1.57079632679489678 0.00000000000000000 0.00000000000000000 -1.00000000000000000 
1 6.28318530717958623 0.00000000000000000 0.00000000000000000 -1.00000000000000000 
1 1.57079632679489634 0.00000000000000000 0.00000000000000000 -1.00000000000000000 
1 0.00000000000000020 0.00000000000000000 0.00000000000000000 -1.00000000000000000 
1 0.00000000000000000 0.00000000000000000 0.00000000000000000 -1.00000000000000000 
1 6.28318530717958623 0.00000000000000000 0.00000000000000000 -1.00000000000000000 
1 0.00000000000000000 0.00000000000000000 0.00000000000000000 -1.00000000000000000 
1 6.28318530717958623 0.00000000000000000 0.00000000000000000 -1.00000000000000000 
1 0.00000000000000000 0.00000000000000000 0.00000000000000000 -1.00000000000000000 
1 6.28318530717958623 0.00000000000000000 0.00000000000000000 -1.00000000000000000 
1 0.00000000000000000 0.00000000000000000 0.00000000000000000 -1.00000000000000000 
1 6.28318530717958623 0.00000000000000000 0.00000000000000000 -1.00000000000000000 
Curves 36
1 -31.52499999999999147 -15.00000000000000355 0.00000000000000000 0.00000000000000000 0.00000000000000000 1.00000000000000000 
1 -22.52499999999999147 -24.00000000000000000 0.00000000000000000 0.00000000000000000 0.00000000000000000 1.00000000000000000 
2 -22.52499999999999147 -15.00000000000000000 0.00000000000000000 0.00000000000000000 0.00000000000000000 1.00000000000000000 1.00000000000000000 0.00000000000000000 -0.00000000000000000 -0.00000000000000000 1.00000000000000000 0.00000000000000000 9.00000000000000000
2 -22.52499999999999147 -15.00000000000000000 0.00000000000000000 0.00000000000000000 0.00000000000000000 1.00000000000000000 1.00000000000000000 0.00000000000000000 -0.00000000000000000 -0.00000000000000000 1.00000000000000000 0.00000000000000000 9.00000000000000000
1 -31.52499999999999147 15.00000000000000355 0.00000000000000000 0.00000000000000000 0.00000000000000000 1.00000000000000000 
1 -31.52499999999999147 -15.00000000000000355 0.00000000000000000 0.00000000000000000 1.00000000000000000 0.00000000000000000 
1 -31.52499999999999147 -15.00000000000000355 0.00000000000000000 0.00000000000000000 1.00000000000000000 0.00000000000000000 
1 22.52499999999999503 -24.00000000000000000 0.00000000000000000 0.00000000000000000 0.00000000000000000 1.00000000000000000 
1 22.52499999999999503 -24.00000000000000000 0.00000000000000000 -1.00000000000000000 0.00000000000000000 0.00000000000000000 
1 22.52499999999999503 -24.00000000000000000 0.00000000000000000 -1.00000000000000000 0.00000000000000000 0.00000000000000000 
2 -22.52499999999999147 15.00000000000000000 0.00000000000000000 0.00000000000000000 0.00000000000000000 1.00000000000000000 1.00000000000000000 0.00000000000000000 -0.00000000000000000 -0.00000000000000000 1.00000000000000000 0.00000000000000000 9.00000000000000000
2 22.52499999999999503 -15.00000000000000000 0.00000000000000000 0.00000000000000000 0.00000000000000000 1.00000000000000000 1.00000000000000000 0.00000000000000000 -0.00000000000000000 -0.00000000000000000 1.00000000000000000 0.00000000000000000 9.00000000000000000
1 -22.52499999999999147 24.00000000000000000 0.00000000000000000 1.00000000000000000 0.00000000000000000 0.00000000000000000 
1 31.52499999999999503 15.00000000000000178 0.00000000000000000 0.00000000000000000 -1.00000000000000000 0.00000000000000000 
2 22.52499999999999503 15.00000000000000000 0.00000000000000000 0.00000000000000000 0.00000000000000000 1.00000000000000000 1.00000000000000000 0.00000000000000000 -0.00000000000000000 -0.00000000000000000 1.00000000000000000 0.00000000000000000 9.00000000000000000
2 -22.52499999999999503 -15.00000000000000000 0.00000000000000000 0.00000000000000000 0.00000000000000000 1.00000000000000000 1.00000000000000000 0.00000000000000000 -0.00000000000000000 -0.00000000000000000 1.00000000000000000 0.00000000000000000 3.25000000000000000
2 22.52499999999999858 -15.00000000000000000 0.00000000000000000 0.00000000000000000 0.00000000000000000 1.00000000000000000 1.00000000000000000 0.00000000000000000 -0.00000000000000000 -0.00000000000000000 1.00000000000000000 0.00000000000000000 3.25000000000000000
2 -22.52499999999999503 15.00000000000000000 0.00000000000000000 0.00000000000000000 0.00000000000000000 1.00000000000000000 1.00000000000000000 0.00000000000000000 -0.00000000000000000 -0.00000000000000000 1.00000000000000000 0.00000000000000000 3.25000000000000000
2 22.52499999999999503 15.00000000000000000 0.00000000000000000 0.00000000000000000 0.00000000000000000 1.00000000000000000 1.00000000000000000 0.00000000000000000 -0.00000000000000000 -0.00000000000000000 1.00000000000000000 0.00000000000000000 3.25000000000000000
2 -22.52499999999999147 15.00000000000000000 0.00000000000000000 0.00000000000000000 0.00000000000000000 1.00000000000000000 1.00000000000000000 0.00000000000000000 -0.00000000000000000 -0.00000000000000000 1.00000000000000000 0.00000000000000000 9.00000000000000000
2 22.52499999999999503 -15.00000000000000000 0.00000000000000000 0.00000000000000000 0.00000000000000000 1.00000000000000000 1.00000000000000000 0.00000000000000000 -0.00000000000000000 -0.00000000000000000 1.00000000000000000 0.00000000000000000 9.00000000000000000
1 -22.52499999999999147 24.00000000000000000 0.00000000000000000 1.00000000000000000 0.00000000000000000 0.00000000000000000 
1 31.52499999999999503 15.00000000000000178 0.00000000000000000 0.00000000000000000 -1.00000000000000000 0.00000000000000000 
2 22.52499999999999503 15.00000000000000000 0.00000000000000000 0.00000000000000000 0.00000000000000000 1.00000000000000000 1.00000000000000000 0.00000000000000000 -0.00000000000000000 -0.00000000000000000 1.00000000000000000 0.00000000000000000 9.00000000000000000
2 -22.52499999999999503 -15.00000000000000000 6.00000000000000000 0.00000000000000000 0.00000000000000000 1.00000000000000000 1.00000000000000000 0.00000000000000000 -0.00000000000000000 -0.00000000000000000 1.00000000000000000 0.00000000000000000 3.25000000000000000
2 22.52499999999999858 -15.00000000000000000 6.00000000000000000 0.00000000000000000 0.00000000000000000 1.00000000000000000 1.00000000000000000 0.00000000000000000 -0.00000000000000000 -0.00000000000000000 1.00000000000000000 0.00000000000000000 3.25000000000000000
2 -22.52499999999999503 15.00000000000000000 6.00000000000000000 0.00000000000000000 0.00000000000000000 1.00000000000000000 1.00000000000000000 0.00000000000000000 -0.00000000000000000 -0.00000000000000000 1.00000000000000000 0.00000000000000000 3.25000000000000000
2 22.52499999999999503 15.00000000000000000 6.00000000000000000 0.00000000000000000 0.00000000000000000 1.00000000000000000 1.00000000000000000 0.00000000000000000 -0.00000000000000000 -0.00000000000000000 1.00000000000000000 0.00000000000000000 3.25000000000000000
1 -22.52499999999999147 24.00000000000000000 0.00000000000000000 0.00000000000000000 0.00000000000000000 1.00000000000000000 
1 31.52499999999999503 -15.00000000000000178 0.00000000000000000 0.00000000000000000 0.00000000000000000 1.00000000000000000 
1 22.52499999999999858 24.00000000000000000 0.00000000000000000 0.00000000000000000 0.00000000000000000 1.00000000000000000 
1 31.52499999999999503 15.00000000000000178 0.00000000000000000 0.00000000000000000 0.00000000000000000 1.00000000000000000 
1 -19.27499999999999503 -15.00000000000000000 80.26356633149313780 -0.00000000000000000 -0.00000000000000000 -1.00000000000000000 
1 25.77499999999999858 -15.00000000000000000 80.26356633149313780 -0.00000000000000000 -0.00000000000000000 -1.00000000000000000 
1 -19.27499999999999503 15.00000000000000000 80.26356633149313780 -0.00000000000000000 -0.00000000000000000 -1.00000000000000000 
1 25.77499999999999503 15.00000000000000000 80.26356633149313780 -0.00000000000000000 -0.00000000000000000 -1.00000000000000000 
Polygon3D 0
PolygonOnTriangulations 0
Surfaces 14
2 -22.52499999999999147 -15.00000000000000000 0.00000000000000000 -0.00000000000000000 -0.00000000000000000 -1.00000000000000000 1.00000000000000000 0.00000000000000000 0.00000000000000000 -0.00000000000000000 1.00000000000000000 -0.00000000000000000 9.00000000000000000
1 -31.52499999999999147 -15.00000000000000355 0.00000000000000000 -1.00000000000000000 0.00000000000000000 0.00000000000000000 0.00000000000000000 1.00000000000000000 0.00000000000000000 0.00000000000000000 0.00000000000000000 -1.00000000000000000 
1 22.52499999999999503 -24.00000000000000000 0.00000000000000000 0.00000000000000000 -1.00000000000000000 0.00000000000000000 -1.00000000000000000 0.00000000000000000 0.00000000000000000 -0.00000000000000000 -0.00000000000000000 -1.00000000000000000 
2 -22.52499999999999147 15.00000000000000000 0.00000000000000000 -0.00000000000000000 -0.00000000000000000 -1.00000000000000000 1.00000000000000000 0.00000000000000000 0.00000000000000000 -0.00000000000000000 1.00000000000000000 -0.00000000000000000 9.00000000000000000
2 22.52499999999999503 -15.00000000000000000 0.00000000000000000 -0.00000000000000000 -0.00000000000000000 -1.00000000000000000 1.00000000000000000 0.00000000000000000 0.00000000000000000 -0.00000000000000000 1.00000000000000000 -0.00000000000000000 9.00000000000000000
1 0.00000000000000110 -0.00000000000000014 0.00000000000000000 0.00000000000000000 0.00000000000000000 1.00000000000000000 1.00000000000000000 0.00000000000000000 -0.00000000000000000 -0.00000000000000000 1.00000000000000000 0.00000000000000000 
2 22.52499999999999503 15.00000000000000000 0.00000000000000000 -0.00000000000000000 -0.00000000000000000 -1.00000000000000000 1.00000000000000000 0.00000000000000000 0.00000000000000000 -0.00000000000000000 1.00000000000000000 -0.00000000000000000 9.00000000000000000
2 -22.52499999999999503 -15.00000000000000000 80.26356633149313780 0.00000000000000000 0.00000000000000000 1.00000000000000000 1.00000000000000000 0.00000000000000000 -0.00000000000000000 -0.00000000000000000 1.00000000000000000 0.00000000000000000 3.25000000000000000
2 22.52499999999999858 -15.00000000000000000 80.26356633149313780 0.00000000000000000 0.00000000000000000 1.00000000000000000 1.00000000000000000 0.00000000000000000 -0.00000000000000000 -0.00000000000000000 1.00000000000000000 0.00000000000000000 3.25000000000000000
2 -22.52499999999999503 15.00000000000000000 80.26356633149313780 0.00000000000000000 0.00000000000000000 1.00000000000000000 1.00000000000000000 0.00000000000000000 -0.00000000000000000 -0.00000000000000000 1.00000000000000000 0.00000000000000000 3.25000000000000000
2 22.52499999999999503 15.00000000000000000 80.26356633149313780 0.00000000000000000 0.00000000000000000 1.00000000000000000 1.00000000000000000 0.00000000000000000 -0.00000000000000000 -0.00000000000000000 1.00000000000000000 0.00000000000000000 3.25000000000000000
1 0.00000000000000110 -0.00000000000000014 0.00000000000000000 0.00000000000000000 0.00000000000000000 1.00000000000000000 1.00000000000000000 0.00000000000000000 -0.00000000000000000 -0.00000000000000000 1.00000000000000000 0.00000000000000000 
1 -22.52499999999999147 24.00000000000000000 0.00000000000000000 0.00000000000000000 1.00000000000000000 0.00000000000000000 1.00000000000000000 0.00000000000000000 0.00000000000000000 0.00000000000000000 0.00000000000000000 -1.00000000000000000 
1 31.52499999999999503 15.00000000000000178 0.00000000000000000 1.00000000000000000 0.00000000000000000 0.00000000000000000 0.00000000000000000 -1.00000000000000000 0.00000000000000000 0.00000000000000000 0.00000000000000000 -1.00000000000000000 
Triangulations 0

TShapes 98
Ve
0.000000100000000
-31.524999999999991 -15.000000000000004 0.000000000000000
0 0

0101101
*
Ve
0.000000100000000
-31.524999999999991 -15.000000000000004 6.000000000000000
0 0

0101101
*
Ed
 0.000000100000000 1 1 0
1  1 0 0.000000000000000 6.000000000000000
2  1 1 0 0.000000000000000 6.000000000000000
4 G1 1 0 2 0
0

0101000
+98 6 -97 6 *
Ve
0.000000100000002
-22.524999999999991 -24.000000000000000 0.000000000000000
0 0

0101101
*
Ve
0.000000100000002
-22.524999999999991 -24.000000000000000 6.000000000000000
0 0

0101101
*
Ed
 0.000000100000002 1 1 0
1  2 0 0.000000000000000 6.000000000000000
2  2 1 0 0.000000000000000 6.000000000000000
4 G1 1 0 3 0
0

0101000
+95 6 -94 6 *
Ed
 0.000000100000000 1 1 0
1  3 0 3.141592653589794 4.712388980384690
2  3 1 11 3.141592653589794 4.712388980384690
0

0101000
+98 12 -95 12 *
Ed
 0.000000100000000 1 1 0
1  4 0 3.141592653589794 4.712388980384690
2  4 1 15 3.141592653589794 4.712388980384690
0

0101000
+97 16 -94 16 *
Wi

0101100
+96 0 -93 0 -92 10 +91 14 *
Fa
0  0.000000100000000 1 0

0111000
+90 0 *
Ve
0.000000100000001
-31.524999999999991 15.000000000000004 0.000000000000000
0 0

0101101
*
Ve
0.000000100000001
-31.524999999999991 15.000000000000004 6.000000000000000
0 0

0101101
*
Ed
 0.000000100000001 1 1 0
1  5 0 0.000000000000000 6.000000000000000
2  5 4 0 0.000000000000000 6.000000000000000
4 G1 2 0 4 0
0

0101000
+88 6 -87 6 *
Ed
 0.000000100000000 1 1 0
1  6 0 0.000000000000000 30.000000000000007
0

0101000
+98 12 -88 12 *
Ed
 0.000000100000000 1 1 0
1  7 0 0.000000000000000 30.000000000000007
0

0101000
+97 16 -87 16 *
Wi

0101100
+96 0 -86 0 -85 10 +84 14 *
Fa
0  0.000000100000000 2 0

0111000
+83 0 *
Ve
0.000000100000000
22.524999999999995 -24.000000000000000 0.000000000000000
0 0

0101101
*
Ve
0.000000100000000
22.524999999999995 -24.000000000000000 6.000000000000000
0 0

0101101
*
Ed
 0.000000100000000 1 1 0
1  8 0 0.000000000000000 6.000000000000000
2  6 5 0 0.000000000000000 6.000000000000000
4 G1 3 0 5 0
0

0101000
+81 6 -80 6 *
Ed
 0.000000100000000 1 1 0
1  9 0 0.000000000000000 45.049999999999983
0

0101000
+81 12 -95 12 *
Ed
 0.000000100000000 1 1 0
1  10 0 0.000000000000000 45.049999999999983
0

0101000
+80 16 -94 16 *
Wi

0101100
+79 0 -93 0 -78 10 +77 14 *
Fa
0  0.000000100000000 3 0

0111000
+76 0 *
Ve
0.000000100000000
-22.524999999999991 24.000000000000000 0.000000000000000
0 0

0101101
*
Ed
 0.000000100000000 1 1 0
1  11 0 1.570796326794897 3.141592653589793
2  7 4 11 1.570796326794897 3.141592653589793
0

0101000
+74 12 -88 12 *
Ve
0.000000100000000
31.524999999999995 -15.000000000000002 0.000000000000000
0 0

0101101
*
Ed
 0.000000100000000 1 1 0
1  12 0 4.712388980384690 6.283185307179586
2  8 5 11 4.712388980384690 6.283185307179586
0

0101000
+81 12 -72 12 *
Ve
0.000000100000000
22.524999999999999 24.000000000000000 0.000000000000000
0 0

0101101
*
Ed
 0.000000100000000 1 1 0
1  13 0 0.000000000000000 45.049999999999990
0

0101000
+74 12 -70 12 *
Ve
0.000000100000000
31.524999999999995 15.000000000000002 0.000000000000000
0 0

0101101
*
Ed
 0.000000100000000 1 1 0
1  14 0 0.000000000000000 30.000000000000004
0

0101000
+68 12 -72 12 *
Ed
 0.000000100000000 1 1 0
1  15 0 0.000000000000000 1.570796326794896
2  9 7 11 0.000000000000000 1.570796326794896
0

0101000
+68 12 -70 12 *
Wi

0101100
+92 18 -85 18 -78 18 +73 18 +71 18 -69 18 -67 18 +66 18 *
Ve
0.000000100000000
-19.274999999999995 -15.000000000000000 0.000000000000000
0 0

0101101
*
Ed
 0.000000100000000 1 1 0
1  16 0 0.000000000000000 6.283185307179586
2  10 8 0 0.000000000000000 6.283185307179586
0

0101100
+64 19 -64 19 *
Wi

0101100
-63 0 *
Ve
0.000000100000000
25.774999999999999 -15.000000000000000 0.000000000000000
0 0

0101101
*
Ed
 0.000000100000000 1 1 0
1  17 0 0.000000000000000 6.283185307179586
2  11 9 0 0.000000000000000 6.283185307179586
0

0101100
+61 19 -61 19 *
Wi

0101100
-60 0 *
Ve
0.000000100000000
-19.274999999999995 15.000000000000000 0.000000000000000
0 0

0101101
*
Ed
 0.000000100000000 1 1 0
1  18 0 0.000000000000000 6.283185307179586
2  12 10 0 0.000000000000000 6.283185307179586
0

0101100
+58 19 -58 19 *
Wi

0101100
-57 0 *
Ve
0.000000100000000
25.774999999999995 15.000000000000000 0.000000000000000
0 0

0101101
*
Ed
 0.000000100000000 1 1 0
1  19 0 0.000000000000000 6.283185307179586
2  13 11 0 0.000000000000000 6.283185307179586
0

0101100
+55 19 -55 19 *
Wi

0101100
-54 0 *
Fa
0  0.000000100000000 6 17

0111000
+65 0 +62 0 +59 0 +56 0 +53 0 *
Ve
0.000000100000000
-22.524999999999991 24.000000000000000 6.000000000000000
0 0

0101101
*
Ed
 0.000000100000000 1 1 0
1  20 0 1.570796326794897 3.141592653589793
2  14 4 15 1.570796326794897 3.141592653589793
0

0101000
+51 16 -87 16 *
Ve
0.000000100000000
31.524999999999995 -15.000000000000002 6.000000000000000
0 0

0101101
*
Ed
 0.000000100000000 1 1 0
1  21 0 4.712388980384690 6.283185307179586
2  15 5 15 4.712388980384690 6.283185307179586
0

0101000
+80 16 -49 16 *
Ve
0.000000100000000
22.524999999999999 24.000000000000000 6.000000000000000
0 0

0101101
*
Ed
 0.000000100000000 1 1 0
1  22 0 0.000000000000000 45.049999999999990
0

0101000
+51 16 -47 16 *
Ve
0.000000100000000
31.524999999999995 15.000000000000002 6.000000000000000
0 0

0101101
*
Ed
 0.000000100000000 1 1 0
1  23 0 0.000000000000000 30.000000000000004
0

0101000
+45 16 -49 16 *
Ed
 0.000000100000000 1 1 0
1  24 0 0.000000000000000 1.570796326794896
2  16 7 15 0.000000000000000 1.570796326794896
0

0101000
+45 16 -47 16 *
Wi

0101100
+91 21 -84 21 -77 21 +50 21 +48 21 -46 21 -44 21 +43 21 *
Ve
0.000000100000000
-19.274999999999995 -15.000000000000000 6.000000000000000
0 0

0101101
*
Ed
 0.000000100000000 1 1 0
1  25 0 0.000000000000000 6.283185307179586
2  17 8 0 0.000000000000000 6.283185307179586
0

0101100
+41 19 -41 19 *
Wi

0101100
-40 0 *
Ve
0.000000100000000
25.774999999999999 -15.000000000000000 6.000000000000000
0 0

0101101
*
Ed
 0.000000100000000 1 1 0
1  26 0 0.000000000000000 6.283185307179586
2  18 9 0 0.000000000000000 6.283185307179586
0

0101100
+38 19 -38 19 *
Wi

0101100
-37 0 *
Ve
0.000000100000000
-19.274999999999995 15.000000000000000 6.000000000000000
0 0

0101101
*
Ed
 0.000000100000000 1 1 0
1  27 0 0.000000000000000 6.283185307179586
2  19 10 0 0.000000000000000 6.283185307179586
0

0101100
+35 19 -35 19 *
Wi

0101100
-34 0 *
Ve
0.000000100000000
25.774999999999995 15.000000000000000 6.000000000000000
0 0

0101101
*
Ed
 0.000000100000000 1 1 0
1  28 0 0.000000000000000 6.283185307179586
2  20 11 0 0.000000000000000 6.283185307179586
0

0101100
+32 19 -32 19 *
Wi

0101100
-31 0 *
Fa
0  0.000000100000000 12 20

0111000
+42 0 +39 0 +36 0 +33 0 +30 0 *
Ed
 0.000000100000000 1 1 0
1  29 0 0.000000000000000 6.000000000000000
2  21 4 0 0.000000000000000 6.000000000000000
4 G1 4 0 13 0
0

0101000
+74 6 -51 6 *
Wi

0101100
+28 0 -86 0 -73 10 +50 14 *
Fa
0  0.000000100000000 4 0

0111000
+27 0 *
Ed
 0.000000100000000 1 1 0
1  30 0 0.000000000000000 6.000000000000000
2  22 5 0 0.000000000000000 6.000000000000000
4 G1 5 0 14 0
0

0101000
+72 6 -49 6 *
Wi

0101100
+79 0 -25 0 -71 10 +48 14 *
Fa
0  0.000000100000000 5 0

0111000
+24 0 *
Ed
 0.000000100000000 1 1 0
1  31 0 0.000000000000000 6.000000000000000
2  23 7 0 0.000000000000000 6.000000000000000
4 G1 13 0 7 0
0

0101000
+70 6 -47 6 *
Wi

0101100
+28 0 -22 0 -69 10 +46 14 *
Fa
0  0.000000100000000 13 0

0111000
+21 0 *
Ed
 0.000000100000000 1 1 0
1  32 0 0.000000000000000 6.000000000000000
2  24 7 0 0.000000000000000 6.000000000000000
4 G1 14 0 7 0
0

0101000
+68 6 -45 6 *
Wi

0101100
+19 0 -25 0 -67 10 +44 14 *
Fa
0  0.000000100000000 14 0

0111000
+18 0 *
Wi

0101100
+19 0 -22 0 -66 10 +43 14 *
Fa
0  0.000000100000000 7 0

0111000
+16 0 *
Ed
 0.000000100000000 1 1 0
1  33 0 74.263566331493138 80.263566331493138
3  25 26CN 8 0 74.263566331493138 80.263566331493138
0

0101000
+41 19 -64 19 *
Wi

0101100
-40 0 -14 0 +63 0 +14 0 *
Fa
0  0.000000100000000 8 0

0111000
+13 0 *
Ed
 0.000000100000000 1 1 0
1  34 0 74.263566331493138 80.263566331493138
3  27 28CN 9 0 74.263566331493138 80.263566331493138
0

0101000
+38 19 -61 19 *
Wi

0101100
-37 0 -11 0 +60 0 +11 0 *
Fa
0  0.000000100000000 9 0

0111000
+10 0 *
Ed
 0.000000100000000 1 1 0
1  35 0 74.263566331493138 80.263566331493138
3  29 30CN 10 0 74.263566331493138 80.263566331493138
0

0101000
+35 19 -58 19 *
Wi

0101100
-34 0 -8 0 +57 0 +8 0 *
Fa
0  0.000000100000000 10 0

0111000
+7 0 *
Ed
 0.000000100000000 1 1 0
1  36 0 74.263566331493138 80.263566331493138
3  31 32CN 11 0 74.263566331493138 80.263566331493138
0

0101000
+32 19 -55 19 *
Wi

0101100
-31 0 -5 0 +54 0 +5 0 *
Fa
0  0.000000100000000 11 0

0111000
+4 0 *
Sh

0101100
-89 4 +82 4 +75 4 -52 0 +29 0 -26 4 -23 4 +20 4 +17 4 -15 4 
-12 0 -9 0 -6 0 -3 0 *
So

0100000
+2 0 *

+1 1 