
CASCADE Topology V1, (c) Matra-Datavision
Locations 42
1
1.000000000000000 0.000000000000000 0.000000000000000 0.000000000000000 
0.000000000000000 1.000000000000000 0.000000000000000 0.000000000000000 
0.000000000000000 0.000000000000000 1.000000000000000 0.000000000000000 
1
0.866025403784439 -0.000000000000000 0.500000000000000 149.822394854707909 
0.500000000000000 0.000000000000000 -0.866025403784439 86.499999999999986 
0.000000000000000 1.000000000000000 0.000000000000000 84.000000000000000 
1
1.000000000000000 0.000000000000000 0.000000000000000 0.000000000000000 
0.000000000000000 1.000000000000000 0.000000000000000 0.000000000000000 
0.000000000000000 0.000000000000000 1.000000000000000 0.000000000000000 
1
1.000000000000000 0.000000000000000 0.000000000000000 0.000000000000000 
0.000000000000000 1.000000000000000 0.000000000000000 0.000000000000000 
0.000000000000000 0.000000000000000 1.000000000000000 0.000000000000000 
1
1.000000000000000 0.000000000000000 0.000000000000000 0.000000000000000 
0.000000000000000 1.000000000000000 0.000000000000000 0.000000000000000 
0.000000000000000 0.000000000000000 1.000000000000000 0.000000000000000 
1
1.000000000000000 0.000000000000000 0.000000000000000 0.000000000000000 
0.000000000000000 1.000000000000000 0.000000000000000 0.000000000000000 
0.000000000000000 0.000000000000000 1.000000000000000 0.000000000000000 
1
0.500000000000000 -0.866025403784439 0.000000000000000 0.000000000000000 
0.866025403784439 0.500000000000000 0.000000000000000 0.000000000000000 
0.000000000000000 0.000000000000000 1.000000000000000 410.000000000000000 
1
1.000000000000000 0.000000000000000 0.000000000000000 0.000000000000000 
0.000000000000000 1.000000000000000 0.000000000000000 0.000000000000000 
0.000000000000000 0.000000000000000 1.000000000000000 0.000000000000000 
1
1.000000000000000 0.000000000000000 0.000000000000000 0.000000000000000 
0.000000000000000 1.000000000000000 0.000000000000000 0.000000000000000 
0.000000000000000 0.000000000000000 1.000000000000000 0.000000000000000 
1
1.000000000000000 0.000000000000000 0.000000000000000 0.000000000000000 
0.000000000000000 1.000000000000000 0.000000000000000 0.000000000000000 
0.000000000000000 0.000000000000000 1.000000000000000 0.000000000000000 
1
1.000000000000000 0.000000000000000 0.000000000000000 0.000000000000000 
0.000000000000000 1.000000000000000 0.000000000000000 0.000000000000000 
0.000000000000000 0.000000000000000 1.000000000000000 0.000000000000000 
1
1.000000000000000 0.000000000000000 0.000000000000000 0.000000000000000 
0.000000000000000 1.000000000000000 0.000000000000000 0.000000000000000 
0.000000000000000 0.000000000000000 1.000000000000000 0.000000000000000 
1
1.000000000000000 0.000000000000000 0.000000000000000 -1576.866288019524973 
0.000000000000000 1.000000000000000 0.000000000000000 -0.000000000000088 
0.000000000000000 0.000000000000000 1.000000000000000 0.000000000000315 
2  1 1 2 1 3 1 4 1 5 1 6 1 7 1 8 1 9 1 10 1 11 1 12 -1 13 1 0
1
1.000000000000000 0.000000000000000 0.000000000000000 3153.732576039049945 
0.000000000000000 1.000000000000000 0.000000000000000 0.000000000000175 
0.000000000000000 0.000000000000000 1.000000000000000 -0.000000000000631 
2  1 1 2 1 3 1 4 1 5 1 6 1 7 1 8 1 9 1 10 1 11 1 12 -1 13 1 15 1 0
1
1.000000000000000 0.000000000000000 0.000000000000000 -2.000000000000000 
0.000000000000000 1.000000000000000 0.000000000000000 3.464101615137755 
0.000000000000000 0.000000000000000 1.000000000000000 0.000000000000001 
1
1.000000000000000 0.000000000000000 0.000000000000000 0.000000000000000 
0.000000000000000 1.000000000000000 0.000000000000000 0.000000000000000 
0.000000000000000 0.000000000000000 1.000000000000000 0.000000000000000 
1
1.000000000000000 0.000000000000000 0.000000000000000 0.000000000000000 
0.000000000000000 1.000000000000000 0.000000000000000 0.000000000000000 
0.000000000000000 0.000000000000000 1.000000000000000 0.000000000000000 
2  17 -1 18 1 19 -1 4 -1 3 -1 2 -1 1 -1 0
1
1.000000000000000 0.000000000000000 0.000000000000000 3.999999999999999 
0.000000000000000 1.000000000000000 0.000000000000000 -6.928203230275510 
0.000000000000000 0.000000000000000 1.000000000000000 -0.000000000000002 
2  21 -1 17 -1 18 1 19 -1 4 -1 3 -1 2 -1 1 -1 0
2  3 -1 2 -1 1 -1 0
1
1.000000000000000 0.000000000000000 0.000000000000000 -1487.149440473208642 
0.000000000000000 1.000000000000000 0.000000000000000 0.000000000000413 
0.000000000000000 0.000000000000000 1.000000000000000 0.000000000000301 
1
1.000000000000000 0.000000000000000 0.000000000000000 0.000000000000000 
0.000000000000000 1.000000000000000 0.000000000000000 0.000000000000000 
0.000000000000000 0.000000000000000 1.000000000000000 0.000000000000000 
1
0.500000000000000 -0.866025403784439 0.000000000000000 0.000000000000000 
0.866025403784439 0.500000000000000 0.000000000000000 0.000000000000000 
0.000000000000000 0.000000000000000 1.000000000000000 410.000000000000000 
1
1.000000000000000 0.000000000000000 0.000000000000000 0.000000000000000 
0.000000000000000 1.000000000000000 0.000000000000000 0.000000000000000 
0.000000000000000 0.000000000000000 1.000000000000000 0.000000000000000 
2  24 -1 25 1 26 -1 27 -1 6 -1 5 -1 4 -1 3 -1 2 -1 1 -1 0
1
1.000000000000000 0.000000000000000 0.000000000000000 2974.298880946417285 
0.000000000000000 1.000000000000000 0.000000000000000 -0.000000000000826 
0.000000000000000 0.000000000000000 1.000000000000000 -0.000000000000602 
2  29 -1 24 -1 25 1 26 -1 27 -1 6 -1 5 -1 4 -1 3 -1 2 -1 1 -1 0
1
1.000000000000000 0.000000000000000 0.000000000000000 -1487.149440473208642 
0.000000000000000 1.000000000000000 0.000000000000000 0.000000000000413 
0.000000000000000 0.000000000000000 1.000000000000000 0.000000000000301 
1
1.000000000000000 0.000000000000000 0.000000000000000 0.000000000000000 
0.000000000000000 1.000000000000000 0.000000000000000 0.000000000000000 
0.000000000000000 0.000000000000000 1.000000000000000 0.000000000000000 
1
0.500000000000000 -0.866025403784439 0.000000000000000 0.000000000000000 
0.866025403784439 0.500000000000000 0.000000000000000 0.000000000000000 
0.000000000000000 0.000000000000000 1.000000000000000 410.000000000000000 
1
1.000000000000000 0.000000000000000 0.000000000000000 0.000000000000000 
0.000000000000000 1.000000000000000 0.000000000000000 0.000000000000000 
0.000000000000000 0.000000000000000 1.000000000000000 0.000000000000000 
2  31 -1 32 1 33 -1 34 -1 6 -1 5 -1 4 -1 3 -1 2 -1 1 -1 0
1
1.000000000000000 0.000000000000000 0.000000000000000 2974.298880946417285 
0.000000000000000 1.000000000000000 0.000000000000000 -0.000000000000826 
0.000000000000000 0.000000000000000 1.000000000000000 -0.000000000000602 
2  36 -1 31 -1 32 1 33 -1 34 -1 6 -1 5 -1 4 -1 3 -1 2 -1 1 -1 0
2  13 -1 12 1 11 -1 10 -1 9 -1 8 -1 7 -1 6 -1 5 -1 4 -1 3 -1 2 -1 1 -1 0
2  15 -1 13 -1 12 1 11 -1 10 -1 9 -1 8 -1 7 -1 6 -1 5 -1 4 -1 3 -1 2 -1 1 -1 0
2  4 1 5 1 6 1 7 1 8 1 9 1 10 1 11 1 12 -1 13 1 0
2  1 1 2 1 3 1 0
2  4 1 5 1 6 1 7 1 8 1 9 1 10 1 11 1 12 -1 13 1 15 1 0
Curve2ds 44
1 0.00000000000000000 0.00000000000000000 0.00000000000000000 -1.00000000000000000 
1 6.28318530717958623 0.00000000000000000 0.00000000000000000 -1.00000000000000000 
1 0.00000000000000000 0.00000000000000000 1.00000000000000000 0.00000000000000000 
1 0.00000000000000000 -8.00000000000000000 1.00000000000000000 0.00000000000000000 
2 158.62500000000017053 24.99999999999999289 1.00000000000000000 -0.00000000000000000 -0.00000000000000000 -1.00000000000000000 1.70000000000000862
1 0.00000000000000000 0.00000000000000000 1.00000000000000000 0.00000000000000000 
1 0.00000000000000000 -2974.29888094641728458 1.00000000000000000 0.00000000000000000 
1 0.00000000000000000 0.00000000000000000 1.00000000000000000 0.00000000000000000 
1 0.00000000000000000 -2974.29888094641728458 1.00000000000000000 0.00000000000000000 
1 0.00000000000000000 0.00000000000000000 1.00000000000000000 0.00000000000000000 
1 0.00000000000000000 -3153.73257603904994539 1.00000000000000000 0.00000000000000000 
1 0.00000000000000000 0.00000000000000000 0.00000000000000000 -1.00000000000000000 
1 6.28318530717958623 0.00000000000000000 0.00000000000000000 -1.00000000000000000 
1 0.00000000000000000 0.00000000000000000 1.00000000000000000 0.00000000000000000 
1 0.00000000000000000 -8.00000000000000000 1.00000000000000000 0.00000000000000000 
2 158.62500000000014211 -25.00000000000000711 1.00000000000000000 -0.00000000000000000 -0.00000000000000000 -1.00000000000000000 1.70000000000002283
1 0.00000000000000000 0.00000000000000000 1.00000000000000000 0.00000000000000000 
1 0.00000000000000000 -2974.29888094641728458 1.00000000000000000 0.00000000000000000 
1 0.00000000000000000 0.00000000000000000 1.00000000000000000 0.00000000000000000 
1 0.00000000000000000 -2974.29888094641728458 1.00000000000000000 0.00000000000000000 
1 0.00000000000000000 0.00000000000000000 1.00000000000000000 0.00000000000000000 
1 0.00000000000000000 -3153.73257603904994539 1.00000000000000000 0.00000000000000000 
1 0.00000000000000000 0.00000000000000000 0.00000000000000000 -1.00000000000000000 
1 6.28318530717958623 0.00000000000000000 0.00000000000000000 -1.00000000000000000 
1 0.00000000000000000 0.00000000000000000 1.00000000000000000 0.00000000000000000 
1 0.00000000000000000 -8.00000000000000000 1.00000000000000000 0.00000000000000000 
2 -158.62499999999988631 24.99999999999999289 1.00000000000000000 -0.00000000000000000 -0.00000000000000000 -1.00000000000000000 1.70000000000000018
1 0.00000000000000000 0.00000000000000000 1.00000000000000000 0.00000000000000000 
1 0.00000000000000000 -2974.29888094641728458 1.00000000000000000 0.00000000000000000 
1 0.00000000000000000 0.00000000000000000 1.00000000000000000 0.00000000000000000 
1 0.00000000000000000 -2974.29888094641728458 1.00000000000000000 0.00000000000000000 
1 0.00000000000000000 0.00000000000000000 1.00000000000000000 0.00000000000000000 
1 0.00000000000000000 -3153.73257603904994539 1.00000000000000000 0.00000000000000000 
1 0.00000000000000000 0.00000000000000000 0.00000000000000000 -1.00000000000000000 
1 6.28318530717958623 0.00000000000000000 0.00000000000000000 -1.00000000000000000 
1 0.00000000000000000 0.00000000000000000 1.00000000000000000 0.00000000000000000 
1 0.00000000000000000 -8.00000000000000000 1.00000000000000000 0.00000000000000000 
2 -158.62499999999988631 -25.00000000000000711 1.00000000000000000 -0.00000000000000000 -0.00000000000000000 -1.00000000000000000 1.70000000000000018
1 0.00000000000000000 0.00000000000000000 1.00000000000000000 0.00000000000000000 
1 0.00000000000000000 -2974.29888094641728458 1.00000000000000000 0.00000000000000000 
1 0.00000000000000000 0.00000000000000000 1.00000000000000000 0.00000000000000000 
1 0.00000000000000000 -2974.29888094641728458 1.00000000000000000 0.00000000000000000 
1 0.00000000000000000 0.00000000000000000 1.00000000000000000 0.00000000000000000 
1 0.00000000000000000 -3153.73257603904994539 1.00000000000000000 0.00000000000000000 
Curves 8
1 -1576.86628801952497270 333.32500000000010232 444.00000000000034106 1.00000000000000000 0.00000000000000006 -0.00000000000000020 
2 158.62500000000000000 -50.00000000000000000 0.00000000000000000 0.00000000000000000 0.00000000000000000 1.00000000000000000 1.00000000000000000 0.00000000000000000 -0.00000000000000000 -0.00000000000000000 1.00000000000000000 0.00000000000000000 1.69999999999999996
1 -1576.86628801952497270 333.32500000000010232 494.00000000000034106 1.00000000000000000 0.00000000000000006 -0.00000000000000020 
2 158.62500000000000000 0.00000000000000000 0.00000000000000000 0.00000000000000000 0.00000000000000000 1.00000000000000000 1.00000000000000000 0.00000000000000000 -0.00000000000000000 -0.00000000000000000 1.00000000000000000 0.00000000000000000 1.69999999999999996
1 -1576.86628801952497270 16.07499999999990337 444.00000000000034106 1.00000000000000000 0.00000000000000006 -0.00000000000000020 
2 -158.62500000000000000 -50.00000000000000000 0.00000000000000000 0.00000000000000000 0.00000000000000000 1.00000000000000000 1.00000000000000000 0.00000000000000000 -0.00000000000000000 -0.00000000000000000 1.00000000000000000 0.00000000000000000 1.69999999999999996
1 -1576.86628801952497270 16.07499999999990337 494.00000000000034106 1.00000000000000000 0.00000000000000006 -0.00000000000000020 
2 -158.62500000000000000 0.00000000000000000 0.00000000000000000 0.00000000000000000 0.00000000000000000 1.00000000000000000 1.00000000000000000 0.00000000000000000 -0.00000000000000000 -0.00000000000000000 1.00000000000000000 0.00000000000000000 1.69999999999999996
Polygon3D 0
PolygonOnTriangulations 0
Surfaces 20
2 -1576.86628801952497270 331.62500000000011369 444.00000000000034106 -1.00000000000000000 -0.00000000000000000 -0.00000000000000000 0.00000000000000000 1.00000000000000000 0.00000000000000000 0.00000000000000000 0.00000000000000000 1.00000000000000000 1.70000000000000062
2 285.19567453001451440 169.27660161513773573 34.00000000000000000 -0.49999999999999989 0.86602540378443882 -0.00000000000000014 0.86602540378443882 0.49999999999999989 0.00000000000000000 -0.00000000000000007 0.00000000000000012 1.00000000000000000 1.69999999999999996
1 149.82239485470779528 86.49999999999992895 58.99999999999999289 -0.49999999999999989 0.86602540378443871 0.00000000000000020 0.86602540378443871 0.49999999999999989 0.00000000000000000 -0.00000000000000010 0.00000000000000017 -1.00000000000000000 
2 -1487.14944047320864229 331.62500000000045475 444.00000000000028422 -1.00000000000000000 0.00000000000000033 -0.00000000000000014 0.00000000000000033 1.00000000000000000 0.00000000000000000 -0.00000000000000014 0.00000000000000000 1.00000000000000000 1.69999999999999996
2 -1487.14944047320864229 331.62500000000045475 444.00000000000028422 -1.00000000000000000 0.00000000000000033 -0.00000000000000014 0.00000000000000033 1.00000000000000000 0.00000000000000000 -0.00000000000000014 0.00000000000000000 1.00000000000000000 1.69999999999999996
2 -1576.86628801952497270 331.62500000000011369 494.00000000000034106 -1.00000000000000000 -0.00000000000000000 -0.00000000000000000 0.00000000000000000 1.00000000000000000 0.00000000000000000 0.00000000000000000 0.00000000000000000 1.00000000000000000 1.70000000000000062
2 285.19567453001451440 169.27660161513773573 84.00000000000000000 -0.49999999999999989 0.86602540378443882 -0.00000000000000014 0.86602540378443882 0.49999999999999989 0.00000000000000000 -0.00000000000000007 0.00000000000000012 1.00000000000000000 1.69999999999999996
1 149.82239485470779528 86.49999999999992895 58.99999999999999289 -0.49999999999999989 0.86602540378443871 0.00000000000000020 0.86602540378443871 0.49999999999999989 0.00000000000000000 -0.00000000000000010 0.00000000000000017 -1.00000000000000000 
2 -1487.14944047320864229 331.62500000000045475 494.00000000000028422 -1.00000000000000000 0.00000000000000033 -0.00000000000000014 0.00000000000000033 1.00000000000000000 0.00000000000000000 -0.00000000000000014 0.00000000000000000 1.00000000000000000 1.69999999999999996
2 -1487.14944047320864229 331.62500000000045475 494.00000000000028422 -1.00000000000000000 0.00000000000000033 -0.00000000000000014 0.00000000000000033 1.00000000000000000 0.00000000000000000 -0.00000000000000014 0.00000000000000000 1.00000000000000000 1.69999999999999996
2 -1576.86628801952497270 14.37499999999991473 444.00000000000034106 -1.00000000000000000 -0.00000000000000000 -0.00000000000000000 0.00000000000000000 1.00000000000000000 0.00000000000000000 0.00000000000000000 0.00000000000000000 1.00000000000000000 1.70000000000000062
2 10.44911517940130352 10.65160161513774995 34.00000000000000000 -0.49999999999999989 0.86602540378443882 -0.00000000000000014 0.86602540378443882 0.49999999999999989 0.00000000000000000 -0.00000000000000007 0.00000000000000012 1.00000000000000000 1.69999999999999996
1 149.82239485470779528 86.49999999999992895 58.99999999999999289 -0.49999999999999989 0.86602540378443871 0.00000000000000020 0.86602540378443871 0.49999999999999989 0.00000000000000000 -0.00000000000000010 0.00000000000000017 -1.00000000000000000 
2 -1487.14944047320864229 14.37500000000042633 444.00000000000028422 -1.00000000000000000 0.00000000000000033 -0.00000000000000014 0.00000000000000033 1.00000000000000000 0.00000000000000000 -0.00000000000000014 0.00000000000000000 1.00000000000000000 1.69999999999999996
2 -1487.14944047320864229 14.37500000000042633 444.00000000000028422 -1.00000000000000000 0.00000000000000033 -0.00000000000000014 0.00000000000000033 1.00000000000000000 0.00000000000000000 -0.00000000000000014 0.00000000000000000 1.00000000000000000 1.69999999999999996
2 -1576.86628801952497270 14.37499999999991473 494.00000000000034106 -1.00000000000000000 -0.00000000000000000 -0.00000000000000000 0.00000000000000000 1.00000000000000000 0.00000000000000000 0.00000000000000000 0.00000000000000000 1.00000000000000000 1.70000000000000062
2 10.44911517940130352 10.65160161513774995 84.00000000000000000 -0.49999999999999989 0.86602540378443882 -0.00000000000000014 0.86602540378443882 0.49999999999999989 0.00000000000000000 -0.00000000000000007 0.00000000000000012 1.00000000000000000 1.69999999999999996
1 149.82239485470779528 86.49999999999992895 58.99999999999999289 -0.49999999999999989 0.86602540378443871 0.00000000000000020 0.86602540378443871 0.49999999999999989 0.00000000000000000 -0.00000000000000010 0.00000000000000017 -1.00000000000000000 
2 -1487.14944047320864229 14.37500000000042633 494.00000000000028422 -1.00000000000000000 0.00000000000000033 -0.00000000000000014 0.00000000000000033 1.00000000000000000 0.00000000000000000 -0.00000000000000014 0.00000000000000000 1.00000000000000000 1.69999999999999996
2 -1487.14944047320864229 14.37500000000042633 494.00000000000028422 -1.00000000000000000 0.00000000000000033 -0.00000000000000014 0.00000000000000033 1.00000000000000000 0.00000000000000000 -0.00000000000000014 0.00000000000000000 1.00000000000000000 1.69999999999999996
Triangulations 0

TShapes 37
Ve
0.000000100000000
160.324999999999989 -50.000000000000000 0.000000000000000
0 0

0101101
*
Ed
 0.000000100000000 1 1 0
1  1 0 0.000000000000000 3153.732576039049945
3  1 2CN 1 0 0.000000000000000 3153.732576039049945
0

0101000
+37 14 -37 16 *
Ed
 0.000000100000000 1 1 0
1  2 0 0.000000000000000 6.283185307179586
2  3 2 20 0.000000000000000 6.283185307179586
2  4 2 22 0.000000000000000 6.283185307179586
2  5 3 23 0.000000000000000 6.283185307179586
2  6 4 28 0.000000000000000 6.283185307179586
2  7 4 30 0.000000000000000 6.283185307179586
2  8 5 35 0.000000000000000 6.283185307179586
2  9 5 37 0.000000000000000 6.283185307179586
2  10 1 38 0.000000000000000 6.283185307179586
2  11 1 39 0.000000000000000 6.283185307179586
0

0101100
+37 0 -37 0 *
Wi

0101100
+36 0 -36 0 -35 14 +35 16 *
Fa
0  0.000000100000000 1 0

0101000
+34 0 *
Wi

0101100
+35 41 *
Fa
0  0.000000100000000 3 0

0101000
-32 0 *
Sh

0101100
-33 0 +31 40 -31 42 *
So

0100000
+30 0 *
Ve
0.000000100000000
160.324999999999989 0.000000000000000 0.000000000000000
0 0

0101101
*
Ed
 0.000000100000000 1 1 0
1  3 0 0.000000000000000 3153.732576039049945
3  12 13CN 6 0 0.000000000000000 3153.732576039049945
0

0101000
+28 14 -28 16 *
Ed
 0.000000100000000 1 1 0
1  4 0 0.000000000000000 6.283185307179586
2  14 7 20 0.000000000000000 6.283185307179586
2  15 7 22 0.000000000000000 6.283185307179586
2  16 8 23 0.000000000000000 6.283185307179586
2  17 9 28 0.000000000000000 6.283185307179586
2  18 9 30 0.000000000000000 6.283185307179586
2  19 10 35 0.000000000000000 6.283185307179586
2  20 10 37 0.000000000000000 6.283185307179586
2  21 6 38 0.000000000000000 6.283185307179586
2  22 6 39 0.000000000000000 6.283185307179586
0

0101100
+28 0 -28 0 *
Wi

0101100
+27 0 -27 0 -26 14 +26 16 *
Fa
0  0.000000100000000 6 0

0101000
+25 0 *
Wi

0101100
+26 41 *
Fa
0  0.000000100000000 8 0

0101000
-23 0 *
Sh

0101100
-24 0 +22 40 -22 42 *
So

0100000
+21 0 *
Ve
0.000000100000000
-156.925000000000011 -50.000000000000000 0.000000000000000
0 0

0101101
*
Ed
 0.000000100000000 1 1 0
1  5 0 0.000000000000000 3153.732576039049945
3  23 24CN 11 0 0.000000000000000 3153.732576039049945
0

0101000
+19 14 -19 16 *
Ed
 0.000000100000000 1 1 0
1  6 0 0.000000000000000 6.283185307179586
2  25 12 20 0.000000000000000 6.283185307179586
2  26 12 22 0.000000000000000 6.283185307179586
2  27 13 23 0.000000000000000 6.283185307179586
2  28 14 28 0.000000000000000 6.283185307179586
2  29 14 30 0.000000000000000 6.283185307179586
2  30 15 35 0.000000000000000 6.283185307179586
2  31 15 37 0.000000000000000 6.283185307179586
2  32 11 38 0.000000000000000 6.283185307179586
2  33 11 39 0.000000000000000 6.283185307179586
0

0101100
+19 0 -19 0 *
Wi

0101100
+18 0 -18 0 -17 14 +17 16 *
Fa
0  0.000000100000000 11 0

0101000
+16 0 *
Wi

0101100
+17 41 *
Fa
0  0.000000100000000 13 0

0101000
-14 0 *
Sh

0101100
-15 0 +13 40 -13 42 *
So

0100000
+12 0 *
Ve
0.000000100000000
-156.925000000000011 0.000000000000000 0.000000000000000
0 0

0101101
*
Ed
 0.000000100000000 1 1 0
1  7 0 0.000000000000000 3153.732576039049945
3  34 35CN 16 0 0.000000000000000 3153.732576039049945
0

0101000
+10 14 -10 16 *
Ed
 0.000000100000000 1 1 0
1  8 0 0.000000000000000 6.283185307179586
2  36 17 20 0.000000000000000 6.283185307179586
2  37 17 22 0.000000000000000 6.283185307179586
2  38 18 23 0.000000000000000 6.283185307179586
2  39 19 28 0.000000000000000 6.283185307179586
2  40 19 30 0.000000000000000 6.283185307179586
2  41 20 35 0.000000000000000 6.283185307179586
2  42 20 37 0.000000000000000 6.283185307179586
2  43 16 38 0.000000000000000 6.283185307179586
2  44 16 39 0.000000000000000 6.283185307179586
0

0101100
+10 0 -10 0 *
Wi

0101100
+9 0 -9 0 -8 14 +8 16 *
Fa
0  0.000000100000000 16 0

0101000
+7 0 *
Wi

0101100
+8 41 *
Fa
0  0.000000100000000 18 0

0101000
-5 0 *
Sh

0101100
-6 0 +4 40 -4 42 *
So

0100000
+3 0 *
Co

1100000
+29 0 +20 0 +11 0 +2 0 *

+1 0 