
CASCADE Topology V1, (c) Matra-Datavision
Locations 19
1
1.000000000000000 0.000000000000000 0.000000000000000 0.000000000000000 
0.000000000000000 1.000000000000000 0.000000000000000 0.000000000000000 
0.000000000000000 0.000000000000000 1.000000000000000 0.000000000000000 
1
1.000000000000000 0.000000000000000 0.000000000000000 0.000000000000000 
0.000000000000000 1.000000000000000 0.000000000000000 0.000000000000000 
0.000000000000000 0.000000000000000 1.000000000000000 0.000000000000000 
1
1.000000000000000 0.000000000000000 0.000000000000000 0.000000000000000 
0.000000000000000 1.000000000000000 0.000000000000000 0.000000000000000 
0.000000000000000 0.000000000000000 1.000000000000000 0.000000000000000 
2  1 1 2 1 3 -1 0
1
1.000000000000000 0.000000000000000 0.000000000000000 0.000000000000000 
0.000000000000000 1.000000000000000 0.000000000000000 0.000000000000000 
0.000000000000000 0.000000000000000 1.000000000000000 1074.119686068545207 
2  1 1 2 1 3 -1 5 1 0
1
1.000000000000000 0.000000000000000 0.000000000000000 0.000000000000000 
0.000000000000000 1.000000000000000 0.000000000000000 0.000000000000000 
0.000000000000000 0.000000000000000 1.000000000000000 0.000000000000000 
1
1.000000000000000 0.000000000000000 0.000000000000000 0.000000000000000 
0.000000000000000 1.000000000000000 0.000000000000000 0.000000000000000 
0.000000000000000 0.000000000000000 1.000000000000000 0.000000000000000 
2  7 1 8 1 1 1 2 1 3 -1 0
2  8 -1 7 -1 0
2  7 1 8 1 1 1 2 1 3 -1 5 1 0
2  3 1 2 -1 1 -1 8 -1 7 -1 0
2  5 -1 3 1 2 -1 1 -1 8 -1 7 -1 0
1
1.000000000000000 0.000000000000000 0.000000000000000 0.000000000000000 
0.000000000000000 1.000000000000000 0.000000000000000 0.000000000000000 
0.000000000000000 0.000000000000000 1.000000000000000 0.000000000000000 
2  14 1 2 -1 1 -1 8 -1 7 -1 0
1
1.000000000000000 0.000000000000000 0.000000000000000 0.000000000000000 
0.000000000000000 1.000000000000000 0.000000000000000 0.000000000000000 
0.000000000000000 0.000000000000000 1.000000000000000 0.000000000000000 
1
1.000000000000000 0.000000000000000 0.000000000000000 0.000000000000000 
0.000000000000000 1.000000000000000 0.000000000000000 0.000000000000000 
0.000000000000000 0.000000000000000 1.000000000000000 0.000000000000000 
2  16 1 17 -1 3 1 2 -1 1 -1 8 -1 7 -1 0
2  7 1 8 1 0
Curve2ds 46
1 3.14159265358020301 0.00000000000000000 0.00000000000000000 -1.00000000000000000 
1 -252.50000000009316636 35.82302951386716927 0.00000000000000000 1.00000000000000000 
1 4.71238898039429621 0.00000000000000000 0.00000000000000000 -1.00000000000000000 
1 0.00000000000000000 0.00000000000000000 1.00000000000000000 0.00000000000000000 
1 0.00000000000000000 -1074.11968606854520658 1.00000000000000000 0.00000000000000000 
2 -147.49999999256601768 35.82302951286020232 1.00000000000000000 0.00000000000000000 -0.00000000000000000 1.00000000000000000 105.00000000752714868
1 -252.50000000009316636 55.82302950535633812 1.00000000000000000 0.00000000000000000 
1 4.71238898037507514 0.00000000000000000 0.00000000000000000 -1.00000000000000000 
1 147.49999999135724238 -69.17697049468615944 -1.00000000000000000 0.00000000000000000 
1 6.28318530710846446 0.00000000000000000 0.00000000000000000 -1.00000000000000000 
1 252.49999999989393018 55.82302950535633812 0.00000000000000000 -1.00000000000000000 
1 0.00000000000000000 0.00000000000000000 1.00000000000000000 0.00000000000000000 
1 0.00000000000000000 -1074.11968606854520658 1.00000000000000000 0.00000000000000000 
2 147.49999999236678150 35.82302951284098924 1.00000000000000000 0.00000000000000000 -0.00000000000000000 1.00000000000000000 105.00000000752714868
1 3.14159265358020301 0.00000000000000000 0.00000000000000000 -1.00000000000000000 
1 0.00000000000000000 0.00000000000000000 0.00000000000000000 -1.00000000000000000 
1 4.71238898039429621 0.00000000000000000 0.00000000000000000 -1.00000000000000000 
1 58.99999999658291472 0.00000000000000000 0.00000000000000000 -1.00000000000000000 
1 0.00000000000000000 0.00000000000000000 1.00000000000000000 0.00000000000000000 
1 0.00000000000000000 -1074.11968606854520658 1.00000000000000000 0.00000000000000000 
2 -29.49999999859286959 4.35437621677968334 1.00000000000000000 0.00000000000000000 -0.00000000000000000 1.00000000000000000 21.00000000150543045
1 4.71238898037507514 0.00000000000000000 0.00000000000000000 -1.00000000000000000 
1 0.00000000000000000 -0.00000000000000000 0.00000000000000000 -1.00000000000000000 
1 29.49999999819178242 -16.64562378472958670 -1.00000000000000000 0.00000000000000000 
1 0.00000000000000000 -0.00000000000000000 1.00000000000000000 0.00000000000000000 
1 0.00000000000000000 -1074.11968606854520658 1.00000000000000000 0.00000000000000000 
1 21.00000000000510170 -79.99999999829137209 0.00000000000000022 1.00000000000000000 
1 79.99999999829137209 -25.00000000000510880 -1.00000000000000000 0.00000000000000000 
1 6.28318530710846446 0.00000000000000000 0.00000000000000000 -1.00000000000000000 
1 3.99999999999663158 0.00000000000000000 0.00000000000000000 -1.00000000000000000 
1 0.00000000000000000 0.00000000000000000 1.00000000000000000 0.00000000000000000 
1 0.00000000000000000 -1074.11968606854520658 1.00000000000000000 0.00000000000000000 
2 29.49999999839369025 4.35437621677584197 1.00000000000000000 0.00000000000000000 -0.00000000000000000 1.00000000000000000 21.00000000150543045
1 0.00000000000000000 0.00000000000000000 0.00000000000000000 -1.00000000000000000 
1 100.99999999999741362 0.00000000000000000 0.00000000000000000 -1.00000000000000000 
1 50.49999999989912425 8.35437621527891139 0.00000000000000000 -1.00000000000000000 
1 0.00000000000000000 0.00000000000000000 1.00000000000000000 0.00000000000000000 
1 0.00000000000000000 -1074.11968606854520658 1.00000000000000000 0.00000000000000000 
1 3.99999999829783270 0.00000000000000000 0.00000000000000000 -1.00000000000000000 
1 0.00000000000000000 0.00000000000000000 0.00000000000000000 -1.00000000000000000 
1 -50.50000000009829648 8.35437621527891139 1.00000000000000000 0.00000000000000000 
1 0.00000000000000000 0.00000000000000000 1.00000000000000000 0.00000000000000000 
1 0.00000000000000000 -1074.11968606854520658 1.00000000000000000 0.00000000000000000 
1 0.00000000000000000 0.00000000000000000 1.00000000000000000 0.00000000000000000 
1 0.00000000000000000 -1074.11968606854520658 1.00000000000000000 0.00000000000000000 
1 -50.50000000009829648 4.35437621698107868 0.00000000000000000 1.00000000000000000 
Curves 24
1 -252.49999999999357669 27.46865329859165072 0.00000000000000000 0.00000000000000000 0.00000000000000000 1.00000000000000000 
1 -252.49999999999357669 47.46865329008081602 0.00000000000000000 0.00000000000000000 0.00000000000000000 1.00000000000000000 
1 -252.49999999999357669 27.46865329859165072 0.00000000000000000 0.00000000000000000 1.00000000000000000 0.00000000000000000 
1 -147.49999999145774154 -77.53134670995207500 0.00000000000000000 0.00000000000000000 0.00000000000000000 1.00000000000000000 
2 -147.49999999246642801 27.46865329758467666 0.00000000000000000 0.00000000000000000 0.00000000000000000 1.00000000000000000 1.00000000000000000 0.00000000000000000 -0.00000000000000000 -0.00000000000000000 1.00000000000000000 0.00000000000000000 105.00000000752714868
1 252.49999999999351985 47.46865329008081602 0.00000000000000000 0.00000000000000000 0.00000000000000000 1.00000000000000000 
1 -252.49999999999357669 47.46865329008081602 0.00000000000000000 1.00000000000000000 0.00000000000000000 0.00000000000000000 
1 147.49999999145683205 -77.53134670996168154 0.00000000000000000 0.00000000000000000 0.00000000000000000 1.00000000000000000 
1 147.49999999145683205 -77.53134670996168154 0.00000000000000000 -1.00000000000000000 0.00000000000000000 0.00000000000000000 
1 252.49999999999351985 27.46865329009765588 0.00000000000000000 0.00000000000000000 0.00000000000000000 1.00000000000000000 
1 252.49999999999351985 47.46865329008081602 0.00000000000000000 0.00000000000000000 -1.00000000000000000 0.00000000000000000 
2 147.49999999246637117 27.46865329756546714 0.00000000000000000 0.00000000000000000 0.00000000000000000 1.00000000000000000 1.00000000000000000 0.00000000000000000 -0.00000000000000000 -0.00000000000000000 1.00000000000000000 0.00000000000000000 105.00000000752714868
1 -50.49999999999871392 -3.99999999829444386 0.00000000000000000 0.00000000000000000 0.00000000000000000 1.00000000000000000 
1 -29.49999999829154973 -25.00000000000319034 0.00000000000000000 0.00000000000000000 0.00000000000000000 1.00000000000000000 
2 -29.49999999849328347 -3.99999999849583876 0.00000000000000000 0.00000000000000000 0.00000000000000000 1.00000000000000000 1.00000000000000000 0.00000000000000000 -0.00000000000000000 -0.00000000000000000 1.00000000000000000 0.00000000000000000 21.00000000150543045
1 29.49999999829136854 -25.00000000000510880 0.00000000000000000 0.00000000000000000 0.00000000000000000 1.00000000000000000 
1 29.49999999829136854 -25.00000000000510880 0.00000000000000000 -1.00000000000000000 0.00000000000000000 0.00000000000000000 
1 50.49999999999870681 -3.99999999999324274 0.00000000000000000 0.00000000000000000 0.00000000000000000 1.00000000000000000 
2 29.49999999849327637 -3.99999999849968013 0.00000000000000000 0.00000000000000000 0.00000000000000000 1.00000000000000000 1.00000000000000000 0.00000000000000000 -0.00000000000000000 -0.00000000000000000 1.00000000000000000 0.00000000000000000 21.00000000150543045
1 50.49999999999870681 0.00000000000338884 0.00000000000000000 0.00000000000000000 0.00000000000000000 1.00000000000000000 
1 50.49999999999870681 0.00000000000338884 0.00000000000000000 0.00000000000000000 -1.00000000000000000 0.00000000000000000 
1 -50.49999999999871392 0.00000000000338884 0.00000000000000000 0.00000000000000000 0.00000000000000000 1.00000000000000000 
1 -50.49999999999871392 0.00000000000338884 0.00000000000000000 1.00000000000000000 0.00000000000000000 0.00000000000000000 
1 -50.49999999999871392 -3.99999999829444386 0.00000000000000000 0.00000000000000000 1.00000000000000000 0.00000000000000000 
Polygon3D 0
PolygonOnTriangulations 0
Surfaces 15
1 -252.49999999999357669 27.46865329859165072 0.00000000000000000 -1.00000000000000000 0.00000000000000000 0.00000000000000000 0.00000000000000000 1.00000000000000000 0.00000000000000000 0.00000000000000000 0.00000000000000000 -1.00000000000000000 
2 -147.49999999246642801 27.46865329758467666 0.00000000000000000 -0.00000000000000000 -0.00000000000000000 -1.00000000000000000 1.00000000000000000 0.00000000000000000 0.00000000000000000 -0.00000000000000000 1.00000000000000000 -0.00000000000000000 105.00000000752714868
1 0.00000000009958476 -8.35437621527552210 0.00000000000000000 0.00000000000000000 0.00000000000000000 1.00000000000000000 1.00000000000000000 0.00000000000000000 -0.00000000000000000 -0.00000000000000000 1.00000000000000000 0.00000000000000000 
1 147.49999999145683205 -77.53134670996168154 0.00000000000000000 0.00000000000000000 -1.00000000000000000 0.00000000000000000 -1.00000000000000000 0.00000000000000000 0.00000000000000000 -0.00000000000000000 -0.00000000000000000 -1.00000000000000000 
1 -252.49999999999357669 47.46865329008081602 0.00000000000000000 0.00000000000000000 1.00000000000000000 0.00000000000000000 1.00000000000000000 0.00000000000000000 0.00000000000000000 0.00000000000000000 0.00000000000000000 -1.00000000000000000 
2 147.49999999246637117 27.46865329756546714 0.00000000000000000 -0.00000000000000000 -0.00000000000000000 -1.00000000000000000 1.00000000000000000 0.00000000000000000 0.00000000000000000 -0.00000000000000000 1.00000000000000000 -0.00000000000000000 105.00000000752714868
1 252.49999999999351985 47.46865329008081602 0.00000000000000000 1.00000000000000000 0.00000000000000000 -0.00000000000000000 0.00000000000000000 -1.00000000000000000 0.00000000000000000 0.00000000000000000 -0.00000000000000000 -1.00000000000000000 
2 -29.49999999849328347 -3.99999999849583876 0.00000000000000000 -0.00000000000000000 -0.00000000000000000 -1.00000000000000000 1.00000000000000000 0.00000000000000000 0.00000000000000000 -0.00000000000000000 1.00000000000000000 -0.00000000000000000 21.00000000150543045
1 -50.49999999999871392 -3.99999999829444386 0.00000000000000000 -1.00000000000000000 0.00000000000000000 0.00000000000000000 0.00000000000000000 1.00000000000000000 0.00000000000000000 0.00000000000000000 0.00000000000000000 -1.00000000000000000 
1 29.49999999829136854 -25.00000000000510880 0.00000000000000000 0.00000000000000000 -1.00000000000000000 0.00000000000000000 -1.00000000000000000 0.00000000000000000 0.00000000000000000 -0.00000000000000000 -0.00000000000000000 -1.00000000000000000 
2 29.49999999849327637 -3.99999999849968013 0.00000000000000000 -0.00000000000000000 -0.00000000000000000 -1.00000000000000000 1.00000000000000000 0.00000000000000000 0.00000000000000000 -0.00000000000000000 1.00000000000000000 -0.00000000000000000 21.00000000150543045
1 -50.50000000000000000 -3.99999999999998890 -0.00000000000001313 0.00000000000000028 -0.00000000000000022 -1.00000000000000000 -0.00000000000000022 -1.00000000000000000 0.00000000000000022 -1.00000000000000000 0.00000000000000022 -0.00000000000000028 
1 -50.50000000000000000 0.00000000000000000 0.00000000000000000 -0.00000000000000000 0.00000000000000022 1.00000000000000000 1.00000000000000000 0.00000000000000000 0.00000000000000000 0.00000000000000000 1.00000000000000000 -0.00000000000000022 
1 50.49999999999870681 0.00000000000338884 0.00000000000000000 1.00000000000000000 0.00000000000000000 -0.00000000000000000 0.00000000000000000 -1.00000000000000000 0.00000000000000000 0.00000000000000000 -0.00000000000000000 -1.00000000000000000 
1 -50.49999999999871392 0.00000000000338884 0.00000000000000000 0.00000000000000000 1.00000000000000000 0.00000000000000000 1.00000000000000000 0.00000000000000000 0.00000000000000000 0.00000000000000000 0.00000000000000000 -1.00000000000000000 
Triangulations 0

TShapes 65
Ve
0.000000500000000
-252.499999999993577 27.468653298591651 0.000000000000000
0 0

0101101
*
Ed
 0.000000500000000 1 1 0
1  1 0 0.000000000000000 1074.119686068545207
2  1 2 0 0.000000000000000 1074.119686068545207
4 G1 1 0 2 0
0

0101000
+65 4 -65 6 *
Ve
0.000000500000000
-252.499999999993577 47.468653290080816 0.000000000000000
0 0

0101101
*
Ed
 0.000000500000000 1 1 0
1  2 0 0.000000000000000 1074.119686068545207
0

0101000
+63 4 -63 6 *
Ed
 0.000000500000000 1 1 0
1  3 0 0.000000000000000 19.999999991489162
2  2 3 10 0.000000000000000 19.999999991489162
0

0101000
+65 10 -63 10 *
Wi

0101100
+64 0 -62 0 -61 9 +61 11 *
Fa
0  0.000000500000000 1 0

0111000
+60 0 *
Ve
0.000000500009601
-147.499999991457742 -77.531346709952075 0.000000000000000
0 0

0101101
*
Ed
 0.000000500009601 1 1 0
1  4 0 0.000000000000000 1074.119686068545207
2  3 2 0 0.000000000000000 1074.119686068545207
4 G1 2 0 4 0
0

0101000
+58 4 -58 6 *
Ed
 0.000000500000000 1 1 0
1  5 0 3.141592653580203 4.712388980394296
2  4 2 12 3.141592653580203 4.712388980394296
2  5 2 13 3.141592653580203 4.712388980394296
2  6 3 10 3.141592653580203 4.712388980394296
0

0101000
+65 10 -58 10 *
Wi

0101100
+64 0 -57 0 -56 9 +56 11 *
Fa
0  0.000000500000000 2 0

0111000
+55 0 *
Ve
0.000000500000018
252.499999999993520 47.468653290080816 0.000000000000000
0 0

0101101
*
Ed
 0.000000500000018 1 1 0
1  6 0 0.000000000000000 1074.119686068545207
0

0101000
+53 4 -53 6 *
Ed
 0.000000500000000 1 1 0
1  7 0 0.000000000000000 504.999999999987040
2  7 3 10 0.000000000000000 504.999999999987040
0

0101000
+63 10 -53 10 *
Wi

0101100
+62 0 -52 0 -51 9 +51 11 *
Fa
0  0.000000500000000 5 0

0111000
+50 0 *
Ve
0.000000500000000
147.499999991456832 -77.531346709961682 0.000000000000000
0 0

0101101
*
Ed
 0.000000500000000 1 1 0
1  8 0 0.000000000000000 1074.119686068545207
2  8 6 0 0.000000000000000 1074.119686068545207
4 G1 4 0 6 0
0

0101000
+48 4 -48 6 *
Ed
 0.000000500000000 1 1 0
1  9 0 0.000000000000000 294.999999982914574
2  9 3 10 0.000000000000000 294.999999982914574
0

0101000
+48 10 -58 10 *
Wi

0101100
+47 0 -57 0 -46 9 +46 11 *
Fa
0  0.000000500000000 4 0

0111000
+45 0 *
Ve
0.000000500000000
252.499999999993520 27.468653290097656 0.000000000000000
0 0

0101101
*
Ed
 0.000000500000000 1 1 0
1  10 0 0.000000000000000 1074.119686068545207
2  10 6 0 0.000000000000000 1074.119686068545207
4 G1 7 0 6 0
0

0101000
+43 4 -43 6 *
Ed
 0.000000500000000 1 1 0
1  11 0 0.000000000000000 19.999999999983157
2  11 3 10 0.000000000000000 19.999999999983157
0

0101000
+53 10 -43 10 *
Wi

0101100
+52 0 -42 0 -41 9 +41 11 *
Fa
0  0.000000500000000 7 0

0111000
+40 0 *
Ed
 0.000000500000000 1 1 0
1  12 0 4.712388980375075 6.283185307108464
2  12 6 12 4.712388980375075 6.283185307108464
2  13 6 13 4.712388980375075 6.283185307108464
2  14 3 10 4.712388980375075 6.283185307108464
0

0101000
+48 10 -43 10 *
Wi

0101100
+47 0 -42 0 -38 9 +38 11 *
Fa
0  0.000000500000000 6 0

0111000
+37 0 *
Ve
0.000000500000000
-50.499999999998714 -3.999999998294444 0.000000000000000
0 0

0101101
*
Ed
 0.000000500000000 1 1 0
1  13 0 0.000000000000000 1074.119686068545207
2  15 8 0 0.000000000000000 1074.119686068545207
4 G1 8 0 9 0
2  16 9 0 0.000000000000000 1074.119686068545207
0

0101000
+35 4 -35 6 *
Ve
0.001000000000013
-29.499999998291550 -25.000000000003190 0.000000000000000
0 0

0101101
*
Ed
 0.000000500000000 1 1 0
1  14 0 0.000000000000000 1074.119686068545207
2  17 8 0 0.000000000000000 1074.119686068545207
4 G1 8 0 10 0
2  18 10 0 0.000000000000000 1074.119686068545207
0

0101000
+33 4 -33 6 *
Ed
 0.000000500000000 1 1 0
1  15 0 3.141592653580203 4.712388980394296
2  19 8 12 3.141592653580203 4.712388980394296
2  20 8 13 3.141592653580203 4.712388980394296
2  21 3 10 3.141592653580203 4.712388980394296
0

0101000
+35 10 -33 10 *
Wi

0101100
+34 0 -32 0 -31 9 +31 11 *
Fa
0  0.000000500000000 8 0

0111000
+30 0 *
Ve
0.001000000000017
29.499999998291369 -25.000000000005109 0.000000000000000
0 0

0101101
*
Ed
 0.000000500000000 1 1 0
1  16 0 0.000000000000000 1074.119686068545207
2  22 11 0 0.000000000000000 1074.119686068545207
4 G1 10 0 11 0
2  23 10 0 0.000000000000000 1074.119686068545207
0

0101000
+28 4 -28 6 *
Ed
 0.001000000000013 1 1 0
1  17 0 0.000000000000000 58.999999996582915
2  24 3 10 0.000000000000000 58.999999996582915
2  25 10 12 0.000000000000000 58.999999996582915
2  26 10 13 0.000000000000000 58.999999996582915
2  27 12 15 0.000000000000000 58.999999996582915
2  28 13 18 0.000000000000000 58.999999996582915
0

0101000
+28 10 -33 10 *
Wi

0101100
+27 0 -32 0 -26 9 +26 11 *
Fa
0  0.000000500000000 10 0

0111000
+25 0 *
Ve
0.000000500000000
50.499999999998707 -3.999999999993243 0.000000000000000
0 0

0101101
*
Ed
 0.000000500000000 1 1 0
1  18 0 0.000000000000000 1074.119686068545207
2  29 11 0 0.000000000000000 1074.119686068545207
4 G1 11 0 14 0
2  30 14 0 0.000000000000000 1074.119686068545207
0

0101000
+23 4 -23 6 *
Ed
 0.000000500000000 1 1 0
1  19 0 4.712388980375075 6.283185307108464
2  31 11 12 4.712388980375075 6.283185307108464
2  32 11 13 4.712388980375075 6.283185307108464
2  33 3 10 4.712388980375075 6.283185307108464
0

0101000
+28 10 -23 10 *
Wi

0101100
+27 0 -22 0 -21 9 +21 11 *
Fa
0  0.000000500000000 11 0

0111000
+20 0 *
Ve
0.000000500000000
50.499999999998707 0.000000000003389 0.000000000000000
0 0

0101101
*
Ed
 0.000000500000000 1 1 0
1  20 0 0.000000000000000 1074.119686068545207
2  34 14 0 0.000000000000000 1074.119686068545207
2  35 15 0 0.000000000000000 1074.119686068545207
0

0101000
+18 4 -18 6 *
Ed
 0.000000500000000 1 1 0
1  21 0 0.000000000000000 3.999999999996632
2  36 3 10 0.000000000000000 3.999999999996632
2  37 14 12 0.000000000000000 3.999999999996632
2  38 14 13 0.000000000000000 3.999999999996632
0

0101000
+18 10 -23 10 *
Wi

0101100
+17 0 -22 0 -16 9 +16 11 *
Fa
0  0.000000500000000 14 0

0111000
+15 0 *
Ve
0.000000500000000
-50.499999999998714 0.000000000003389 0.000000000000000
0 0

0101101
*
Ed
 0.000000500000000 1 1 0
1  22 0 0.000000000000000 1074.119686068545207
2  39 9 0 0.000000000000000 1074.119686068545207
2  40 15 0 0.000000000000000 1074.119686068545207
0

0101000
+13 4 -13 6 *
Ed
 0.000000500000000 1 1 0
1  23 0 0.000000000000000 100.999999999997414
2  41 3 10 0.000000000000000 100.999999999997414
2  42 15 12 0.000000000000000 100.999999999997414
2  43 15 13 0.000000000000000 100.999999999997414
0

0101000
+13 10 -18 10 *
Wi

0101100
+12 0 -17 0 -11 9 +11 11 *
Fa
0  0.000000500000000 15 0

0111000
+10 0 *
Ed
 0.000000500000000 1 1 0
1  24 0 0.000000000000000 3.999999998297833
2  44 9 12 0.000000000000000 3.999999998297833
2  45 9 13 0.000000000000000 3.999999998297833
2  46 3 10 0.000000000000000 3.999999998297833
0

0101000
+35 10 -13 10 *
Wi

0101100
+34 0 -12 0 -8 9 +8 11 *
Fa
0  0.000000500000000 9 0

0111000
+7 0 *
Wi

0101100
-61 19 +56 19 -51 19 -46 19 -41 19 +38 19 *
Wi

0101100
-31 19 +26 19 -21 19 +16 19 +11 19 +8 19 *
Fa
0  0.000000500000000 3 0

0111000
+5 0 +4 0 *
Sh

0101100
-59 0 +54 0 -49 0 -44 0 -39 0 +36 0 -29 0 +24 0 -19 0 +14 0 
+9 0 +6 0 +3 4 -3 6 *
So

1100000
-2 0 *

+1 0 