
CASCADE Topology V1, (c) Matra-Datavision
Locations 25
1
1.000000000000000 0.000000000000000 0.000000000000000 0.000000000000000 
0.000000000000000 1.000000000000000 0.000000000000000 0.000000000000000 
0.000000000000000 0.000000000000000 1.000000000000000 0.000000000000000 
1
1.000000000000000 0.000000000000000 0.000000000000000 0.000000000000000 
0.000000000000000 1.000000000000000 0.000000000000000 0.000000000000000 
0.000000000000000 0.000000000000000 1.000000000000000 0.000000000000000 
1
1.000000000000000 0.000000000000000 0.000000000000000 0.000000000000000 
0.000000000000000 1.000000000000000 0.000000000000000 0.000000000000000 
0.000000000000000 0.000000000000000 1.000000000000000 0.000000000000000 
2  2 1 3 -1 0
1
1.000000000000000 0.000000000000000 0.000000000000000 0.000000000000000 
0.000000000000000 1.000000000000000 0.000000000000000 0.000000000000000 
0.000000000000000 0.000000000000000 1.000000000000000 0.000000000000000 
2  5 -1 3 1 2 -1 0
1
1.000000000000000 0.000000000000000 0.000000000000000 0.000000000000000 
0.000000000000000 1.000000000000000 0.000000000000000 0.000000000000000 
0.000000000000000 0.000000000000000 1.000000000000000 0.000000000000000 
1
1.000000000000000 0.000000000000000 0.000000000000000 0.000000000000000 
0.000000000000000 1.000000000000000 0.000000000000000 0.000000000000000 
0.000000000000000 0.000000000000000 1.000000000000000 0.000000000000000 
1
1.000000000000000 0.000000000000000 0.000000000000000 0.000000000000000 
0.000000000000000 1.000000000000000 0.000000000000000 0.000000000000000 
0.000000000000000 0.000000000000000 1.000000000000000 0.000000000000000 
2  7 1 8 1 9 -1 0
2  9 1 8 -1 7 -1 0
2  5 -1 3 1 2 -1 9 1 8 -1 7 -1 0
1
1.000000000000000 0.000000000000000 0.000000000000000 0.000000000000000 
0.000000000000000 1.000000000000000 0.000000000000000 0.000000000000000 
0.000000000000000 0.000000000000000 1.000000000000000 5.000000000000000 
2  7 1 8 1 9 -1 13 1 0
2  13 -1 9 1 8 -1 7 -1 0
2  5 -1 3 1 2 -1 13 -1 9 1 8 -1 7 -1 0
2  9 -1 2 1 3 -1 0
2  7 1 8 1 9 -1 2 1 3 -1 0
1
1.000000000000000 0.000000000000000 0.000000000000000 0.000000000000000 
0.000000000000000 1.000000000000000 0.000000000000000 -20.000000000045169 
0.000000000000000 0.000000000000000 1.000000000000000 0.000000000000000 
2  5 -1 19 -1 0
1
1.000000000000000 0.000000000000000 0.000000000000000 0.000000000000000 
0.000000000000000 1.000000000000000 0.000000000000000 20.000000000045169 
0.000000000000000 0.000000000000000 1.000000000000000 0.000000000000000 
2  5 -1 21 -1 0
2  9 -1 13 1 2 1 3 -1 0
2  7 1 8 1 9 -1 13 1 2 1 3 -1 0
2  5 -1 0
Curve2ds 21
1 3.14159265359595663 0.00000000000000000 0.00000000000000000 -1.00000000000000000 
1 4.71238898037852660 0.00000000000000000 0.00000000000000000 -1.00000000000000000 
1 0.00000000000000000 0.00000000000000000 1.00000000000000000 0.00000000000000000 
1 0.00000000000000000 -5.00000000000000000 1.00000000000000000 0.00000000000000000 
1 3.14159265358363049 0.00000000000000000 0.00000000000000000 -1.00000000000000000 
1 4.71238898039085274 0.00000000000000000 0.00000000000000000 -1.00000000000000000 
1 0.00000000000000000 0.00000000000000000 1.00000000000000000 0.00000000000000000 
1 0.00000000000000000 0.00000000000000000 1.00000000000000000 0.00000000000000000 
1 0.00000000000000000 0.00000000000000000 1.00000000000000000 0.00000000000000000 
1 0.00000000000000000 0.00000000000000000 1.00000000000000000 0.00000000000000000 
1 0.00000000000000000 -5.00000000000000000 1.00000000000000000 0.00000000000000000 
1 0.00000000000000000 -5.00000000000000000 1.00000000000000000 0.00000000000000000 
1 0.00000000000000000 -5.00000000000000000 1.00000000000000000 0.00000000000000000 
1 6.28318530717958623 5.00000000000000000 -1.00000000000000000 0.00000000000000000 
1 6.28318530717958623 5.00000000000000000 -1.00000000000000000 0.00000000000000000 
1 1.57079632680105963 0.00000000000000000 0.00000000000000000 -1.00000000000000000 
1 6.28318530717342316 0.00000000000000000 0.00000000000000000 -1.00000000000000000 
1 1.57079632678873393 0.00000000000000000 0.00000000000000000 -1.00000000000000000 
1 0.00000000000616270 0.00000000000000000 0.00000000000000000 -1.00000000000000000 
1 6.28318530717958623 0.00000000000000000 0.00000000000000000 1.00000000000000000 
1 0.00000000000000000 0.00000000000000000 0.00000000000000000 1.00000000000000000 
Curves 30
1 -14.30000000000951133 -31.00000000005302070 0.00000000000000000 0.00000000000000000 0.00000000000000000 1.00000000000000000 
1 -10.30000000005302141 -35.00000000000951417 0.00000000000000000 0.00000000000000000 0.00000000000000000 1.00000000000000000 
2 -10.30000000002839045 -31.00000000002838974 0.00000000000000000 0.00000000000000000 0.00000000000000000 1.00000000000000000 1.00000000000000000 0.00000000000000000 -0.00000000000000000 -0.00000000000000000 1.00000000000000000 0.00000000000000000 3.99999999998112132
2 -10.30000000002839045 -31.00000000002838974 0.00000000000000000 0.00000000000000000 0.00000000000000000 1.00000000000000000 1.00000000000000000 0.00000000000000000 -0.00000000000000000 -0.00000000000000000 1.00000000000000000 0.00000000000000000 3.99999999998112132
1 -14.30000000000951133 31.00000000005304202 0.00000000000000000 0.00000000000000000 0.00000000000000000 1.00000000000000000 
1 -14.30000000000951133 -31.00000000005299938 0.00000000000000000 0.00000000000000000 1.00000000000000000 0.00000000000000000 
1 -14.30000000000951133 -31.00000000005299938 0.00000000000000000 0.00000000000000000 1.00000000000000000 0.00000000000000000 
1 10.30000000005302496 -35.00000000000951417 0.00000000000000000 0.00000000000000000 0.00000000000000000 1.00000000000000000 
1 10.30000000005300187 -35.00000000000951417 0.00000000000000000 -1.00000000000000000 0.00000000000000000 0.00000000000000000 
1 10.30000000005300187 -35.00000000000951417 0.00000000000000000 -1.00000000000000000 0.00000000000000000 0.00000000000000000 
2 -10.30000000002839045 31.00000000002839329 0.00000000000000000 0.00000000000000000 0.00000000000000000 1.00000000000000000 1.00000000000000000 0.00000000000000000 -0.00000000000000000 -0.00000000000000000 1.00000000000000000 0.00000000000000000 3.99999999998112132
2 10.30000000002839400 -31.00000000002839329 0.00000000000000000 0.00000000000000000 0.00000000000000000 1.00000000000000000 1.00000000000000000 0.00000000000000000 -0.00000000000000000 -0.00000000000000000 1.00000000000000000 0.00000000000000000 3.99999999998112132
1 -10.30000000005304273 35.00000000000951417 0.00000000000000000 1.00000000000000000 0.00000000000000000 0.00000000000000000 
1 14.30000000000951488 31.00000000005304557 0.00000000000000000 0.00000000000000000 -1.00000000000000000 0.00000000000000000 
2 10.30000000002839400 31.00000000002839329 0.00000000000000000 0.00000000000000000 0.00000000000000000 1.00000000000000000 1.00000000000000000 0.00000000000000000 -0.00000000000000000 -0.00000000000000000 1.00000000000000000 0.00000000000000000 3.99999999998112132
2 0.00000000000000000 0.00000000000000000 0.00000000000000000 0.00000000000000000 0.00000000000000000 -1.00000000000000000 -1.00000000000000000 0.00000000000000000 0.00000000000000000 0.00000000000000000 1.00000000000000000 0.00000000000000000 1.69999999999999996
2 0.00000000000000000 0.00000000000000000 0.00000000000000000 0.00000000000000000 0.00000000000000000 -1.00000000000000000 -1.00000000000000000 0.00000000000000000 0.00000000000000000 0.00000000000000000 1.00000000000000000 0.00000000000000000 1.69999999999999996
2 -10.30000000002839045 31.00000000002839329 0.00000000000000000 0.00000000000000000 0.00000000000000000 1.00000000000000000 1.00000000000000000 0.00000000000000000 -0.00000000000000000 -0.00000000000000000 1.00000000000000000 0.00000000000000000 3.99999999998112132
2 10.30000000002839400 -31.00000000002839329 0.00000000000000000 0.00000000000000000 0.00000000000000000 1.00000000000000000 1.00000000000000000 0.00000000000000000 -0.00000000000000000 -0.00000000000000000 1.00000000000000000 0.00000000000000000 3.99999999998112132
1 -10.30000000005304273 35.00000000000951417 0.00000000000000000 1.00000000000000000 0.00000000000000000 0.00000000000000000 
1 14.30000000000951488 31.00000000005304557 0.00000000000000000 0.00000000000000000 -1.00000000000000000 0.00000000000000000 
2 10.30000000002839400 31.00000000002839329 0.00000000000000000 0.00000000000000000 0.00000000000000000 1.00000000000000000 1.00000000000000000 0.00000000000000000 -0.00000000000000000 -0.00000000000000000 1.00000000000000000 0.00000000000000000 3.99999999998112132
2 0.00000000000000000 -20.00000000004516920 5.00000000000000000 0.00000000000000000 0.00000000000000000 1.00000000000000000 -1.00000000000000000 0.00000000000000000 0.00000000000000000 0.00000000000000000 -1.00000000000000000 0.00000000000000000 1.69999999999999996
2 0.00000000000000000 20.00000000004516920 5.00000000000000000 0.00000000000000000 0.00000000000000000 1.00000000000000000 -1.00000000000000000 0.00000000000000000 0.00000000000000000 0.00000000000000000 -1.00000000000000000 0.00000000000000000 1.69999999999999996
1 -10.30000000005304273 35.00000000000951417 0.00000000000000000 0.00000000000000000 0.00000000000000000 1.00000000000000000 
1 14.30000000000951488 -31.00000000005302425 0.00000000000000000 0.00000000000000000 0.00000000000000000 1.00000000000000000 
1 10.30000000005304273 35.00000000000951417 0.00000000000000000 0.00000000000000000 0.00000000000000000 1.00000000000000000 
1 14.30000000000951488 31.00000000005304557 0.00000000000000000 0.00000000000000000 0.00000000000000000 1.00000000000000000 
1 -1.69999999999999996 0.00000000000000000 0.00000000000000000 0.00000000000000006 0.00000000000000000 1.00000000000000000 
1 -1.69999999999999996 0.00000000000000000 0.00000000000000000 0.00000000000000006 0.00000000000000000 1.00000000000000000 
Polygon3D 0
PolygonOnTriangulations 0
Surfaces 12
2 -10.30000000002839045 -31.00000000002838974 0.00000000000000000 -0.00000000000000000 -0.00000000000000000 -1.00000000000000000 1.00000000000000000 0.00000000000000000 0.00000000000000000 -0.00000000000000000 1.00000000000000000 -0.00000000000000000 3.99999999998112132
1 -14.30000000000951133 -31.00000000005299938 0.00000000000000000 -1.00000000000000000 0.00000000000000000 0.00000000000000000 0.00000000000000000 1.00000000000000000 0.00000000000000000 0.00000000000000000 0.00000000000000000 -1.00000000000000000 
1 10.30000000005300187 -35.00000000000951417 0.00000000000000000 0.00000000000000000 -1.00000000000000000 0.00000000000000000 -1.00000000000000000 0.00000000000000000 0.00000000000000000 -0.00000000000000000 -0.00000000000000000 -1.00000000000000000 
2 -10.30000000002839045 31.00000000002839329 0.00000000000000000 -0.00000000000000000 -0.00000000000000000 -1.00000000000000000 1.00000000000000000 0.00000000000000000 0.00000000000000000 -0.00000000000000000 1.00000000000000000 -0.00000000000000000 3.99999999998112132
2 10.30000000002839400 -31.00000000002839329 0.00000000000000000 -0.00000000000000000 -0.00000000000000000 -1.00000000000000000 1.00000000000000000 0.00000000000000000 0.00000000000000000 -0.00000000000000000 1.00000000000000000 -0.00000000000000000 3.99999999998112132
1 0.00000000000000239 0.00000000000002991 0.00000000000000000 0.00000000000000000 0.00000000000000000 1.00000000000000000 1.00000000000000000 0.00000000000000000 -0.00000000000000000 -0.00000000000000000 1.00000000000000000 0.00000000000000000 
2 10.30000000002839400 31.00000000002839329 0.00000000000000000 -0.00000000000000000 -0.00000000000000000 -1.00000000000000000 1.00000000000000000 0.00000000000000000 0.00000000000000000 -0.00000000000000000 1.00000000000000000 -0.00000000000000000 3.99999999998112132
2 0.00000000000000000 0.00000000000000000 0.00000000000000000 0.00000000000000000 0.00000000000000000 1.00000000000000000 -1.00000000000000000 0.00000000000000000 0.00000000000000000 -0.00000000000000000 1.00000000000000000 -0.00000000000000000 1.69999999999999996
2 0.00000000000000000 0.00000000000000000 0.00000000000000000 0.00000000000000000 0.00000000000000000 1.00000000000000000 -1.00000000000000000 0.00000000000000000 0.00000000000000000 -0.00000000000000000 1.00000000000000000 -0.00000000000000000 1.69999999999999996
1 0.00000000000000239 0.00000000000002991 0.00000000000000000 0.00000000000000000 0.00000000000000000 1.00000000000000000 1.00000000000000000 0.00000000000000000 -0.00000000000000000 -0.00000000000000000 1.00000000000000000 0.00000000000000000 
1 -10.30000000005304273 35.00000000000951417 0.00000000000000000 0.00000000000000000 1.00000000000000000 0.00000000000000000 1.00000000000000000 0.00000000000000000 0.00000000000000000 0.00000000000000000 0.00000000000000000 -1.00000000000000000 
1 14.30000000000951488 31.00000000005304557 0.00000000000000000 1.00000000000000000 0.00000000000000000 0.00000000000000000 0.00000000000000000 -1.00000000000000000 0.00000000000000000 0.00000000000000000 0.00000000000000000 -1.00000000000000000 
Triangulations 0

TShapes 80
Ve
0.000000100000021
-14.300000000009511 -31.000000000053021 0.000000000000000
0 0

0101101
*
Ve
0.000000100000021
-14.300000000009511 -31.000000000053021 5.000000000000000
0 0

0101101
*
Ed
 0.000000100000021 1 1 0
1  1 0 0.000000000000000 5.000000000000000
2  1 1 0 0.000000000000000 5.000000000000000
4 G1 1 0 2 0
0

0101000
+80 6 -79 6 *
Ve
0.000000100000022
-10.300000000053021 -35.000000000009514 0.000000000000000
0 0

0101101
*
Ve
0.000000100000022
-10.300000000053021 -35.000000000009514 5.000000000000000
0 0

0101101
*
Ed
 0.000000100000022 1 1 0
1  2 0 0.000000000000000 5.000000000000000
2  2 1 0 0.000000000000000 5.000000000000000
4 G1 1 0 3 0
0

0101000
+77 6 -76 6 *
Ed
 0.000000100000000 1 1 0
1  3 0 3.141592653595957 4.712388980378527
2  3 1 11 3.141592653595957 4.712388980378527
0

0101000
+80 12 -77 12 *
Ed
 0.000000100000000 1 1 0
1  4 0 3.141592653595957 4.712388980378527
2  4 1 15 3.141592653595957 4.712388980378527
0

0101000
+79 16 -76 16 *
Wi

0101100
+78 0 -75 0 -74 10 +73 14 *
Fa
0  0.000000100000000 1 0

0111000
+72 0 *
Ve
0.000000100000002
-14.300000000009511 31.000000000053042 0.000000000000000
0 0

0101101
*
Ve
0.000000100000002
-14.300000000009511 31.000000000053042 5.000000000000000
0 0

0101101
*
Ed
 0.000000100000002 1 1 0
1  5 0 0.000000000000000 5.000000000000000
2  5 4 0 0.000000000000000 5.000000000000000
4 G1 2 0 4 0
0

0101000
+70 6 -69 6 *
Ed
 0.000000100000000 1 1 0
1  6 0 0.000000000000000 62.000000000106041
0

0101000
+80 12 -70 12 *
Ed
 0.000000100000000 1 1 0
1  7 0 0.000000000000000 62.000000000106041
0

0101000
+79 16 -69 16 *
Wi

0101100
+78 0 -68 0 -67 10 +66 14 *
Fa
0  0.000000100000000 2 0

0111000
+65 0 *
Ve
0.000000100000022
10.300000000053025 -35.000000000009514 0.000000000000000
0 0

0101101
*
Ve
0.000000100000022
10.300000000053025 -35.000000000009514 5.000000000000000
0 0

0101101
*
Ed
 0.000000100000022 1 1 0
1  8 0 0.000000000000000 5.000000000000000
2  6 5 0 0.000000000000000 5.000000000000000
4 G1 3 0 5 0
0

0101000
+63 6 -62 6 *
Ed
 0.000000100000000 1 1 0
1  9 0 0.000000000000000 20.600000000106000
0

0101000
+63 12 -77 12 *
Ed
 0.000000100000000 1 1 0
1  10 0 0.000000000000000 20.600000000106000
0

0101000
+62 16 -76 16 *
Wi

0101100
+61 0 -75 0 -60 10 +59 14 *
Fa
0  0.000000100000000 3 0

0111000
+58 0 *
Ve
0.000000100000000
-10.300000000053043 35.000000000009514 0.000000000000000
0 0

0101101
*
Ed
 0.000000100000000 1 1 0
1  11 0 1.570796326801060 3.141592653583630
2  7 4 11 1.570796326801060 3.141592653583630
0

0101000
+56 12 -70 12 *
Ve
0.000000100000021
14.300000000009515 -31.000000000053024 0.000000000000000
0 0

0101101
*
Ed
 0.000000100000000 1 1 0
1  12 0 4.712388980390853 6.283185307173423
2  8 5 11 4.712388980390853 6.283185307173423
0

0101000
+63 12 -54 12 *
Ve
0.000000100000001
10.300000000053043 35.000000000009514 0.000000000000000
0 0

0101101
*
Ed
 0.000000100000000 1 1 0
1  13 0 0.000000000000000 20.600000000106085
0

0101000
+56 12 -52 12 *
Ve
0.000000100000000
14.300000000009515 31.000000000053046 0.000000000000000
0 0

0101101
*
Ed
 0.000000100000000 1 1 0
1  14 0 0.000000000000000 62.000000000106049
0

0101000
+50 12 -54 12 *
Ed
 0.000000100000000 1 1 0
1  15 0 0.000000000006163 1.570796326788734
2  9 7 11 0.000000000006163 1.570796326788734
0

0101000
+50 12 -52 12 *
Wi

0101100
+74 18 -67 18 -60 18 +55 18 +53 18 -51 18 -49 18 +48 18 *
Ve
0.000000100000000
-1.700000000000000 -20.000000000045169 0.000000000000000
0 0

0101101
*
Ed
 0.000000100000000 1 1 0
1  16 0 0.000000000000000 6.283185307179586
2  10 8 0 0.000000000000000 6.283185307179586
0

0101000
+46 20 -46 20 *
Wi

0101100
+45 19 *
Ve
0.000000100000000
-1.700000000000000 20.000000000045169 0.000000000000000
0 0

0101101
*
Ed
 0.000000100000000 1 1 0
1  17 0 0.000000000000000 6.283185307179586
2  10 9 0 0.000000000000000 6.283185307179586
0

0101000
+43 22 -43 22 *
Wi

0101100
+42 21 *
Fa
0  0.000000100000000 6 17

0111000
+47 0 +44 0 +41 0 *
Ve
0.000000100000000
-10.300000000053043 35.000000000009514 5.000000000000000
0 0

0101101
*
Ed
 0.000000100000000 1 1 0
1  18 0 1.570796326801060 3.141592653583630
2  11 4 15 1.570796326801060 3.141592653583630
0

0101000
+39 16 -69 16 *
Ve
0.000000100000021
14.300000000009515 -31.000000000053024 5.000000000000000
0 0

0101101
*
Ed
 0.000000100000000 1 1 0
1  19 0 4.712388980390853 6.283185307173423
2  12 5 15 4.712388980390853 6.283185307173423
0

0101000
+62 16 -37 16 *
Ve
0.000000100000001
10.300000000053043 35.000000000009514 5.000000000000000
0 0

0101101
*
Ed
 0.000000100000000 1 1 0
1  20 0 0.000000000000000 20.600000000106085
0

0101000
+39 16 -35 16 *
Ve
0.000000100000000
14.300000000009515 31.000000000053046 5.000000000000000
0 0

0101101
*
Ed
 0.000000100000000 1 1 0
1  21 0 0.000000000000000 62.000000000106049
0

0101000
+33 16 -37 16 *
Ed
 0.000000100000000 1 1 0
1  22 0 0.000000000006163 1.570796326788734
2  13 7 15 0.000000000006163 1.570796326788734
0

0101000
+33 16 -35 16 *
Wi

0101100
+73 24 -66 24 -59 24 +38 24 +36 24 -34 24 -32 24 +31 24 *
Ve
0.000000100000000
-1.700000000000000 -20.000000000045169 5.000000000000000
0 0

0101101
*
Ed
 0.000000100000000 1 1 0
1  23 0 0.000000000000000 6.283185307179586
2  14 8 19 0.000000000000000 6.283185307179586
0

0101100
+29 25 -29 25 *
Wi

0101100
-28 0 *
Ve
0.000000100000000
-1.700000000000000 20.000000000045169 5.000000000000000
0 0

0101101
*
Ed
 0.000000100000000 1 1 0
1  24 0 0.000000000000000 6.283185307179586
2  15 9 21 0.000000000000000 6.283185307179586
0

0101100
+26 25 -26 25 *
Wi

0101100
-25 0 *
Fa
0  0.000000100000000 10 23

0111000
+30 0 +27 0 +24 0 *
Ed
 0.000000100000000 1 1 0
1  25 0 0.000000000000000 5.000000000000000
2  16 4 0 0.000000000000000 5.000000000000000
4 G1 4 0 11 0
0

0101000
+56 6 -39 6 *
Wi

0101100
+22 0 -68 0 -55 10 +38 14 *
Fa
0  0.000000100000000 4 0

0111000
+21 0 *
Ed
 0.000000100000021 1 1 0
1  26 0 0.000000000000000 5.000000000000000
2  17 5 0 0.000000000000000 5.000000000000000
4 G1 5 0 12 0
0

0101000
+54 6 -37 6 *
Wi

0101100
+61 0 -19 0 -53 10 +36 14 *
Fa
0  0.000000100000000 5 0

0111000
+18 0 *
Ed
 0.000000100000001 1 1 0
1  27 0 0.000000000000000 5.000000000000000
2  18 7 0 0.000000000000000 5.000000000000000
4 G1 11 0 7 0
0

0101000
+52 6 -35 6 *
Wi

0101100
+22 0 -16 0 -51 10 +34 14 *
Fa
0  0.000000100000000 11 0

0111000
+15 0 *
Ed
 0.000000100000000 1 1 0
1  28 0 0.000000000000000 5.000000000000000
2  19 7 0 0.000000000000000 5.000000000000000
4 G1 12 0 7 0
0

0101000
+50 6 -33 6 *
Wi

0101100
+13 0 -19 0 -49 10 +32 14 *
Fa
0  0.000000100000000 12 0

0111000
+12 0 *
Wi

0101100
+13 0 -16 0 -48 10 +31 14 *
Fa
0  0.000000100000000 7 0

0111000
+10 0 *
Ed
 0.000000100000000 1 1 0
1  29 0 0.000000000000000 5.000000000000000
3  20 21CN 8 0 0.000000000000000 5.000000000000000
0

0101000
+46 20 -29 20 *
Wi

0101100
-8 19 +28 0 +8 19 +45 19 *
Fa
0  0.000000100000000 8 19

0111000
+7 0 *
Ed
 0.000000100000000 1 1 0
1  30 0 0.000000000000000 5.000000000000000
3  20 21CN 9 0 0.000000000000000 5.000000000000000
0

0101000
+43 22 -26 22 *
Wi

0101100
-5 21 +25 0 +5 21 +42 21 *
Fa
0  0.000000100000000 9 21

0111000
+4 0 *
Sh

0101100
-71 4 +64 4 +57 4 -40 0 +23 0 -20 4 -17 4 +14 4 +11 4 -9 4 
+6 0 +3 0 *
So

1100000
+2 0 *

+1 1 