
CASCADE Topology V1, (c) Matra-Datavision
Locations 65
1
1.000000000000000 0.000000000000000 0.000000000000000 0.000000000000000 
0.000000000000000 1.000000000000000 0.000000000000000 0.000000000000000 
0.000000000000000 0.000000000000000 1.000000000000000 0.000000000000000 
1
1.000000000000000 0.000000000000000 0.000000000000000 0.000000000000000 
0.000000000000000 1.000000000000000 0.000000000000000 0.000000000000000 
0.000000000000000 0.000000000000000 1.000000000000000 0.000000000000000 
1
-0.500000000000001 0.866025403784439 0.000000000000000 0.000000000000000 
-0.866025403784439 -0.500000000000001 0.000000000000000 0.000000000000000 
0.000000000000000 0.000000000000000 1.000000000000001 0.000000000000000 
1
1.000000000000000 0.000000000000000 0.000000000000000 0.000000000000000 
0.000000000000000 1.000000000000000 0.000000000000000 0.000000000000000 
0.000000000000000 0.000000000000000 1.000000000000000 0.000000000000000 
1
1.000000000000000 0.000000000000000 0.000000000000000 0.000000000000000 
0.000000000000000 1.000000000000000 0.000000000000000 0.000000000000000 
0.000000000000000 0.000000000000000 1.000000000000000 0.000000000000000 
1
1.000000000000000 0.000000000000000 0.000000000000000 0.000000000000000 
0.000000000000000 1.000000000000000 0.000000000000000 0.000000000000000 
0.000000000000000 0.000000000000000 1.000000000000000 0.000000000000000 
1
1.000000000000000 0.000000000000000 0.000000000000000 0.000000000000000 
0.000000000000000 1.000000000000000 0.000000000000000 0.000000000000000 
0.000000000000000 0.000000000000000 1.000000000000000 0.000000000000000 
1
1.000000000000000 0.000000000000000 0.000000000000000 0.000000000000000 
0.000000000000000 1.000000000000000 0.000000000000000 0.000000000000000 
0.000000000000000 0.000000000000000 1.000000000000000 0.000000000000000 
1
1.000000000000000 0.000000000000000 0.000000000000000 0.000000000000000 
0.000000000000000 1.000000000000000 0.000000000000000 0.000000000000000 
0.000000000000000 0.000000000000000 1.000000000000000 0.000000000000000 
2  2 1 3 1 4 1 5 1 6 1 7 1 8 1 9 -1 0
1
1.000000000000000 0.000000000000000 0.000000000000000 0.000000000000000 
0.000000000000000 1.000000000000000 0.000000000000000 0.000000000000000 
0.000000000000000 0.000000000000000 1.000000000000000 0.300000000000000 
2  2 1 3 1 4 1 5 1 6 1 7 1 8 1 9 -1 11 1 0
1
1.000000000000000 0.000000000000000 0.000000000000000 0.000000000000000 
0.000000000000000 1.000000000000000 0.000000000000000 0.000000000000000 
0.000000000000000 0.000000000000000 1.000000000000000 0.000000000000000 
1
1.000000000000000 0.000000000000000 0.000000000000000 0.000000000000000 
0.000000000000000 1.000000000000000 0.000000000000000 0.000000000000000 
0.000000000000000 0.000000000000000 1.000000000000000 0.000000000000000 
1
1.000000000000000 0.000000000000000 0.000000000000000 0.000000000000000 
0.000000000000000 1.000000000000000 0.000000000000000 0.000000000000000 
0.000000000000000 0.000000000000000 1.000000000000000 0.000000000000000 
2  13 1 14 1 15 1 2 1 3 1 4 1 5 1 6 1 7 1 8 1 9 -1 0
2  6 -1 5 -1 4 -1 3 -1 2 -1 15 -1 14 -1 13 -1 0
1
1.000000000000000 0.000000000000000 0.000000000000000 0.000000000000000 
0.000000000000000 1.000000000000000 0.000000000000000 0.000000000000000 
0.000000000000000 0.000000000000000 1.000000000000000 0.000000000000000 
2  6 -1 5 -1 4 -1 18 -1 2 -1 15 -1 14 -1 13 -1 0
1
-0.500000000000000 -0.866025403784439 0.000000000000000 0.000000000000000 
0.866025403784439 -0.500000000000000 0.000000000000000 0.000000000000000 
0.000000000000000 0.000000000000000 1.000000000000000 0.000000000000000 
2  6 -1 5 -1 4 -1 20 -1 2 -1 15 -1 14 -1 13 -1 0
2  9 1 8 -1 7 -1 6 -1 5 -1 4 -1 3 -1 2 -1 15 -1 14 -1 13 -1 0
2  11 -1 9 1 8 -1 7 -1 6 -1 5 -1 4 -1 3 -1 2 -1 15 -1 14 -1 13 -1 0
2  9 1 8 -1 7 -1 6 -1 5 -1 4 -1 20 -1 2 -1 15 -1 14 -1 13 -1 0
2  11 -1 9 1 8 -1 7 -1 6 -1 5 -1 4 -1 20 -1 2 -1 15 -1 14 -1 13 -1 0
2  9 1 8 -1 7 -1 6 -1 5 -1 4 -1 18 -1 2 -1 15 -1 14 -1 13 -1 0
2  11 -1 9 1 8 -1 7 -1 6 -1 5 -1 4 -1 18 -1 2 -1 15 -1 14 -1 13 -1 0
2  15 -1 14 -1 13 -1 0
2  13 1 14 1 15 1 2 1 3 1 4 1 5 1 6 1 7 1 8 1 9 -1 11 1 0
2  7 1 8 1 9 -1 0
2  9 1 8 -1 7 -1 0
2  13 1 14 1 15 1 2 1 3 1 4 1 5 1 6 1 0
2  2 1 18 1 4 1 5 1 6 1 7 1 8 1 9 -1 0
1
1.000000000000000 0.000000000000000 0.000000000000000 0.000000000000000 
0.000000000000000 1.000000000000000 0.000000000000000 0.000000000000000 
0.000000000000000 0.000000000000000 1.000000000000000 0.000000000000000 
1
1.000000000000000 0.000000000000000 0.000000000000000 0.000000000000000 
0.000000000000000 1.000000000000000 0.000000000000000 0.000000000000000 
0.000000000000000 0.000000000000000 1.000000000000000 0.000000000000000 
2  34 1 35 1 15 1 2 1 18 1 4 1 5 1 6 1 0
2  9 1 8 -1 7 -1 6 -1 5 -1 4 -1 18 -1 2 -1 15 -1 35 -1 34 -1 0
2  11 -1 9 1 8 -1 7 -1 6 -1 5 -1 4 -1 18 -1 2 -1 15 -1 35 -1 34 -1 0
2  9 1 8 -1 7 -1 6 -1 5 -1 4 -1 20 -1 2 -1 15 -1 35 -1 34 -1 0
2  11 -1 9 1 8 -1 7 -1 6 -1 5 -1 4 -1 20 -1 2 -1 15 -1 35 -1 34 -1 0
2  9 1 8 -1 7 -1 6 -1 5 -1 4 -1 3 -1 2 -1 15 -1 35 -1 34 -1 0
2  11 -1 9 1 8 -1 7 -1 6 -1 5 -1 4 -1 3 -1 2 -1 15 -1 35 -1 34 -1 0
2  6 -1 5 -1 4 -1 18 -1 2 -1 15 -1 35 -1 34 -1 0
2  6 -1 5 -1 4 -1 20 -1 2 -1 15 -1 35 -1 34 -1 0
2  6 -1 5 -1 4 -1 3 -1 2 -1 15 -1 35 -1 34 -1 0
2  15 -1 35 -1 34 -1 0
2  13 1 14 1 15 1 2 1 18 1 4 1 5 1 6 1 0
2  2 1 20 1 4 1 5 1 6 1 7 1 8 1 9 -1 0
2  34 1 35 1 15 1 2 1 20 1 4 1 5 1 6 1 0
2  13 1 14 1 15 1 2 1 20 1 4 1 5 1 6 1 0
2  34 1 35 1 15 1 2 1 3 1 4 1 5 1 6 1 0
2  2 1 18 1 4 1 5 1 6 1 7 1 8 1 9 -1 11 1 0
2  34 1 35 1 15 1 2 1 18 1 4 1 5 1 6 1 7 1 8 1 9 -1 0
2  34 1 35 1 15 1 2 1 18 1 4 1 5 1 6 1 7 1 8 1 9 -1 11 1 0
2  13 1 14 1 15 1 2 1 18 1 4 1 5 1 6 1 7 1 8 1 9 -1 0
2  13 1 14 1 15 1 2 1 18 1 4 1 5 1 6 1 7 1 8 1 9 -1 11 1 0
2  2 1 20 1 4 1 5 1 6 1 7 1 8 1 9 -1 11 1 0
2  34 1 35 1 15 1 2 1 20 1 4 1 5 1 6 1 7 1 8 1 9 -1 0
2  34 1 35 1 15 1 2 1 20 1 4 1 5 1 6 1 7 1 8 1 9 -1 11 1 0
2  13 1 14 1 15 1 2 1 20 1 4 1 5 1 6 1 7 1 8 1 9 -1 0
2  13 1 14 1 15 1 2 1 20 1 4 1 5 1 6 1 7 1 8 1 9 -1 11 1 0
2  34 1 35 1 15 1 2 1 3 1 4 1 5 1 6 1 7 1 8 1 9 -1 0
2  34 1 35 1 15 1 2 1 3 1 4 1 5 1 6 1 7 1 8 1 9 -1 11 1 0
2  7 1 8 1 9 -1 11 1 0
2  11 -1 9 1 8 -1 7 -1 0
Curve2ds 96
1 0.00000000000000000 0.00000000000000000 0.00000000000000000 -1.00000000000000000 
1 14.29999999999998472 -0.15000000000000002 0.00000000000000000 1.00000000000000000 
1 3.14159265358979312 0.00000000000000000 0.00000000000000000 -1.00000000000000000 
1 59.99999999999997158 0.00000000000000000 0.00000000000000000 -1.00000000000000000 
1 334.16119246900399276 -176.41583672588279796 -0.86602540378443837 0.50000000000000067 
1 -14.29999999999995453 377.60000000000007958 0.00000000000000000 -1.00000000000000000 
1 -319.86119246900415192 -201.18416327411731004 0.86602540378443882 0.49999999999999978 
1 0.00000000000000000 0.00000000000000000 1.00000000000000000 0.00000000000000000 
1 0.00000000000000000 -0.29999999999999999 1.00000000000000000 0.00000000000000000 
1 0.00000000000000000 0.00000000000000000 1.00000000000000000 0.00000000000000000 
1 0.00000000000000000 -0.29999999999999999 1.00000000000000000 0.00000000000000000 
1 0.00000000000000000 0.00000000000000000 1.00000000000000000 0.00000000000000000 
1 0.00000000000000000 -0.29999999999999999 1.00000000000000000 0.00000000000000000 
1 3.66519142918809182 0.00000000000000000 0.00000000000000000 -1.00000000000000000 
1 -10.00000000000009948 -0.14999999999999999 0.00000000000000000 1.00000000000000000 
1 0.00000000000000000 0.00000000000000000 1.00000000000000000 0.00000000000000000 
1 0.00000000000000000 -0.29999999999999999 1.00000000000000000 0.00000000000000000 
1 0.00000000000000000 0.00000000000000000 1.00000000000000000 0.00000000000000000 
1 0.00000000000000000 -0.29999999999999999 1.00000000000000000 0.00000000000000000 
1 0.00000000000000000 0.00000000000000000 1.00000000000000000 0.00000000000000000 
1 0.00000000000000000 -0.29999999999999999 1.00000000000000000 0.00000000000000000 
2 540.09933648387595895 300.27949192431128722 0.50000000000000067 0.86602540378443837 0.86602540378443837 -0.50000000000000067 515.79933648387600442
2 -530.09933648387573157 317.60000000000007958 -1.00000000000000000 0.00000000000000000 0.00000000000000000 1.00000000000000000 515.79933648387577705
2 -10.00000000000005684 -617.87949192431142365 0.49999999999999978 -0.86602540378443882 -0.86602540378443882 -0.49999999999999978 515.79933648387589074
1 327.01119246900401549 -188.80000000000023874 0.50000000000000067 0.86602540378443837 
1 0.00000000000002461 -0.15000000000000002 1.00000000000000000 0.00000000000000000 
1 88.40400783368164639 51.04007772021792277 -0.50000000000000211 0.86602540378443749 
1 0.00000000000001941 -0.14999999999999999 1.00000000000000000 0.00000000000000000 
1 0.00000000000000000 0.00000000000000000 1.00000000000000000 0.00000000000000000 
1 0.00000000000000000 -0.29999999999999999 1.00000000000000000 0.00000000000000000 
1 0.00000000000000000 0.00000000000000000 1.00000000000000000 0.00000000000000000 
1 0.00000000000000000 -0.29999999999999999 1.00000000000000000 0.00000000000000000 
1 0.00000000000000000 0.00000000000000000 1.00000000000000000 0.00000000000000000 
1 0.00000000000000000 -0.29999999999999999 1.00000000000000000 0.00000000000000000 
2 530.09933648387573157 317.60000000000007958 1.00000000000000000 0.00000000000000000 -0.00000000000000000 1.00000000000000000 515.79933648387577705
2 -540.09933648387550420 300.27949192431168512 -0.49999999999999978 0.86602540378443882 -0.86602540378443882 -0.49999999999999978 515.79933648387577705
2 9.99999999999943334 -617.87949192431153733 -0.50000000000000067 -0.86602540378443837 0.86602540378443837 -0.50000000000000067 515.79933648387611811
1 14.29999999999995453 377.60000000000007958 0.00000000000000000 -1.00000000000000000 
1 -334.16119246900410644 -176.41583672588242848 0.86602540378443882 0.49999999999999978 
1 319.86119246900403823 -201.18416327411770794 -0.86602540378443837 0.50000000000000067 
1 0.00000000000000000 0.00000000000000000 1.00000000000000000 0.00000000000000000 
1 0.00000000000000000 -0.29999999999999999 1.00000000000000000 0.00000000000000000 
1 0.00000000000000000 0.00000000000000000 1.00000000000000000 0.00000000000000000 
1 0.00000000000000000 -0.29999999999999999 1.00000000000000000 0.00000000000000000 
1 0.00000000000000000 0.00000000000000000 1.00000000000000000 0.00000000000000000 
1 0.00000000000000000 -0.29999999999999999 1.00000000000000000 0.00000000000000000 
1 -0.00000000000000021 377.60000000000007958 -1.00000000000000000 0.00000000000000000 
1 -0.14999999999999999 0.00000000000000000 0.00000000000000000 -1.00000000000000000 
1 -88.40400783368161797 51.04007772021796541 -0.49999999999999811 -0.86602540378443971 
1 -0.00000000000002557 -0.14999999999999999 1.00000000000000000 0.00000000000000000 
1 -327.01119246900412918 -188.79999999999986926 0.49999999999999978 -0.86602540378443882 
1 -0.00000000000002461 -0.15000000000000002 1.00000000000000000 0.00000000000000000 
1 -0.00000000000008548 -102.08015544043574607 1.00000000000000000 0.00000000000000167 
1 0.00000000000003276 0.15000000000000002 -1.00000000000000000 0.00000000000000000 
1 3.14159265358979312 0.00000000000000000 0.00000000000000000 -1.00000000000000000 
1 59.99999999999994316 0.00000000000000000 0.00000000000000000 -1.00000000000000000 
1 3.66519142918809182 0.00000000000000000 0.00000000000000000 -1.00000000000000000 
1 10.00000000000009948 -0.14999999999999999 0.00000000000000000 1.00000000000000000 
1 0.00000000000000000 0.00000000000000000 0.00000000000000000 -1.00000000000000000 
1 -0.14999999999999999 14.29999999999995453 1.00000000000000000 0.00000000000000000 
1 0.00000000000000000 0.00000000000000000 0.00000000000000000 -1.00000000000000000 
1 -0.14999999999999999 -14.29999999999995453 1.00000000000000000 0.00000000000000000 
1 3.14159265358979312 0.00000000000000000 0.00000000000000000 -1.00000000000000000 
1 59.99999999999994316 0.00000000000000000 0.00000000000000000 -1.00000000000000000 
1 3.66519142918809182 0.00000000000000000 0.00000000000000000 -1.00000000000000000 
1 -10.00000000000004796 -0.14999999999999999 0.00000000000000000 1.00000000000000000 
1 3.14159265358979312 0.00000000000000000 0.00000000000000000 -1.00000000000000000 
1 59.99999999999992895 0.00000000000000000 0.00000000000000000 -1.00000000000000000 
1 3.66519142918809182 0.00000000000000000 0.00000000000000000 -1.00000000000000000 
1 10.00000000000004796 -0.14999999999999999 0.00000000000000000 1.00000000000000000 
1 0.00000000000000000 0.00000000000000000 0.00000000000000000 -1.00000000000000000 
1 -14.29999999999998650 -0.15000000000000002 0.00000000000000000 1.00000000000000000 
1 0.00000000000000000 0.00000000000000000 0.00000000000000000 -1.00000000000000000 
1 14.29999999999993676 -0.15000000000000002 0.00000000000000000 1.00000000000000000 
1 3.14159265358979312 0.00000000000000000 0.00000000000000000 -1.00000000000000000 
1 59.99999999999992895 0.00000000000000000 0.00000000000000000 -1.00000000000000000 
1 3.66519142918809182 0.00000000000000000 0.00000000000000000 -1.00000000000000000 
1 10.00000000000003908 0.15000000000000002 0.00000000000000000 -1.00000000000000000 
1 3.14159265358979312 0.00000000000000000 0.00000000000000000 -1.00000000000000000 
1 59.99999999999997158 0.00000000000000000 0.00000000000000000 -1.00000000000000000 
1 3.66519142918809182 0.00000000000000000 0.00000000000000000 -1.00000000000000000 
1 -10.00000000000004796 0.15000000000000002 0.00000000000000000 -1.00000000000000000 
1 0.00000000000000000 0.00000000000000000 0.00000000000000000 -1.00000000000000000 
1 -14.29999999999996163 -0.15000000000000002 0.00000000000000000 1.00000000000000000 
1 88.40400783368168902 51.04007772021790856 0.49999999999999734 -0.86602540378444026 
1 -0.00000000000001941 0.14999999999999999 -1.00000000000000000 0.00000000000000000 
1 -0.00000000000000021 377.60000000000007958 1.00000000000000000 0.00000000000000000 
1 0.14999999999999999 0.00000000000000000 0.00000000000000000 1.00000000000000000 
1 -88.40400783368164639 51.04007772021792277 0.50000000000000211 0.86602540378443749 
1 0.00000000000002557 0.14999999999999999 -1.00000000000000000 0.00000000000000000 
1 -327.01119246900412918 -188.79999999999986926 -0.49999999999999978 0.86602540378443882 
1 -0.00000000000002461 0.14999999999999997 -1.00000000000000000 0.00000000000000000 
1 -0.00000000000001442 -102.08015544043570344 -1.00000000000000000 0.00000000000000266 
1 -0.00000000000003829 -0.14999999999999997 1.00000000000000000 -0.00000000000000000 
1 327.01119246900401549 -188.80000000000023874 -0.50000000000000067 -0.86602540378443837 
1 0.00000000000002461 0.14999999999999997 -1.00000000000000000 0.00000000000000000 
Curves 34
1 334.16119246900399276 -176.41583672588285481 0.00000000000000000 0.00000000000000000 0.00000000000000000 1.00000000000000000 
1 282.19966824193772936 -146.41583672588282639 0.00000000000000000 0.00000000000000000 0.00000000000000000 1.00000000000000000 
1 -14.29999999999995453 377.60000000000002274 0.00000000000000000 -0.00000000000000000 -1.00000000000000000 -0.00000000000000000 
1 93.40400783368170323 42.37982368237337738 0.00000000000000000 0.00000000000000000 0.00000000000000000 1.00000000000000000 
2 -530.09933648387573157 317.60000000000002274 0.00000000000000000 0.00000000000000000 0.00000000000000000 -1.00000000000000000 -1.00000000000000000 -0.00000000000000000 -0.00000000000000000 -0.00000000000000000 1.00000000000000000 0.00000000000000000 515.79933648387577705
1 327.01119246900401549 -188.80000000000029559 0.00000000000000000 0.50000000000000067 0.86602540378443837 -0.00000000000000000 
1 88.40400783368164639 51.04007772021786593 0.00000000000000000 -0.50000000000000211 0.86602540378443749 0.00000000000000000 
2 530.09933648387573157 317.60000000000002274 0.00000000000000000 0.00000000000000000 0.00000000000000000 1.00000000000000000 1.00000000000000000 0.00000000000000000 -0.00000000000000000 -0.00000000000000000 1.00000000000000000 0.00000000000000000 515.79933648387577705
1 14.29999999999995453 377.60000000000002274 0.00000000000000000 0.00000000000000000 -1.00000000000000000 0.00000000000000000 
1 0.00000000000000000 377.60000000000002274 0.00000000000000000 -1.00000000000000000 -0.00000000000000000 -0.00000000000000000 
1 -88.40400783368161797 51.04007772021790856 0.00000000000000000 -0.49999999999999811 -0.86602540378443971 0.00000000000000000 
1 -327.01119246900412918 -188.79999999999992610 0.00000000000000000 0.49999999999999978 -0.86602540378443882 -0.00000000000000000 
1 -0.00000000000008527 -102.08015544043580292 0.00000000000000000 1.00000000000000000 0.00000000000000167 0.00000000000000000 
1 14.29999999999995453 317.60000000000007958 0.00000000000000000 0.00000000000000000 0.00000000000000000 1.00000000000000000 
1 83.40400783368161797 59.70033175806232606 0.00000000000000000 0.00000000000000000 0.00000000000000000 1.00000000000000000 
1 14.29999999999995453 377.60000000000002274 0.00000000000000000 0.00000000000000000 0.00000000000000000 1.00000000000000000 
1 -14.29999999999995453 377.60000000000002274 0.00000000000000000 0.00000000000000000 0.00000000000000000 1.00000000000000000 
1 -14.29999999999995453 317.60000000000007958 0.00000000000000000 0.00000000000000000 0.00000000000000000 1.00000000000000000 
1 -83.40400783368158955 59.70033175806230474 0.00000000000000000 0.00000000000000000 0.00000000000000000 1.00000000000000000 
1 -282.19966824193784305 -146.41583672588254217 0.00000000000000000 0.00000000000000000 0.00000000000000000 1.00000000000000000 
1 -93.40400783368167481 42.37982368237346975 0.00000000000000000 0.00000000000000000 0.00000000000000000 1.00000000000000000 
1 -334.16119246900410644 -176.41583672588248533 0.00000000000000000 0.00000000000000000 0.00000000000000000 1.00000000000000000 
1 -319.86119246900415192 -201.18416327411736688 0.00000000000000000 0.00000000000000000 0.00000000000000000 1.00000000000000000 
1 -267.89966824193788852 -171.18416327411742373 0.00000000000000000 0.00000000000000000 0.00000000000000000 1.00000000000000000 
1 -10.00000000000009237 -102.08015544043573186 0.00000000000000000 0.00000000000000000 0.00000000000000000 1.00000000000000000 
1 267.89966824193777484 -171.18416327411770794 0.00000000000000000 0.00000000000000000 0.00000000000000000 1.00000000000000000 
1 9.99999999999999467 -102.08015544043581713 0.00000000000000000 0.00000000000000000 0.00000000000000000 1.00000000000000000 
1 319.86119246900403823 -201.18416327411776479 0.00000000000000000 0.00000000000000000 0.00000000000000000 1.00000000000000000 
1 88.40400783368168902 51.04007772021785172 0.29999999999999999 0.49999999999999734 -0.86602540378444026 0.00000000000000000 
1 0.00000000000000000 377.60000000000002274 0.29999999999999999 1.00000000000000000 0.00000000000000000 0.00000000000000000 
1 -88.40400783368164639 51.04007772021786593 0.29999999999999999 0.50000000000000211 0.86602540378443749 0.00000000000000000 
1 -327.01119246900412918 -188.79999999999992610 0.29999999999999999 -0.49999999999999978 0.86602540378443882 0.00000000000000000 
1 -0.00000000000001421 -102.08015544043576028 0.29999999999999999 -1.00000000000000000 0.00000000000000266 0.00000000000000000 
1 327.01119246900401549 -188.80000000000029559 0.29999999999999999 -0.50000000000000067 -0.86602540378443837 0.00000000000000000 
Polygon3D 0
PolygonOnTriangulations 0
Surfaces 25
1 334.16119246900399276 -176.41583672588285481 0.00000000000000000 -0.50000000000000067 -0.86602540378443837 0.00000000000000000 -0.86602540378443837 0.50000000000000067 0.00000000000000000 -0.00000000000000000 0.00000000000000000 -1.00000000000000000 
1 327.01119246900407234 -188.80000000000035243 0.15000000000000002 0.86602540378443893 -0.49999999999999950 0.00000000000000000 0.49999999999999950 0.86602540378443893 0.00000000000000000 -0.00000000000000000 0.00000000000000000 1.00000000000000000 
2 540.09933648387595895 300.27949192431123038 0.00000000000000000 0.00000000000000000 -0.00000000000000000 -1.00000000000000000 0.50000000000000067 0.86602540378443837 0.00000000000000000 0.86602540378443837 -0.50000000000000067 0.00000000000000000 515.79933648387589074
1 0.00000000000000021 -0.00000000000006016 0.00000000000000000 0.00000000000000000 0.00000000000000000 1.00000000000000000 1.00000000000000000 0.00000000000000000 -0.00000000000000000 -0.00000000000000000 1.00000000000000000 0.00000000000000000 
1 -319.86119246900415192 -201.18416327411736688 0.00000000000000000 -0.49999999999999978 0.86602540378443882 0.00000000000000000 0.86602540378443882 0.49999999999999978 -0.00000000000000000 -0.00000000000000000 0.00000000000000000 -1.00000000000000000 
1 -14.29999999999995453 377.60000000000002274 0.00000000000000000 1.00000000000000000 0.00000000000000000 0.00000000000000000 0.00000000000000000 -1.00000000000000000 0.00000000000000000 0.00000000000000000 0.00000000000000000 -1.00000000000000000 
1 88.40400783368168902 51.04007772021785172 0.00000000000000000 0.86602540378444026 0.49999999999999734 -0.00000000000000000 0.49999999999999734 -0.86602540378444026 0.00000000000000000 0.00000000000000000 -0.00000000000000000 -1.00000000000000000 
1 88.40400783368166060 51.04007772021785172 0.14999999999999999 0.86602540378443815 0.50000000000000089 0.00000000000000000 -0.50000000000000089 0.86602540378443815 0.00000000000000000 0.00000000000000000 -0.00000000000000000 1.00000000000000000 
2 -530.09933648387573157 317.60000000000002274 0.00000000000000000 0.00000000000000000 0.00000000000000000 -1.00000000000000000 -1.00000000000000000 -0.00000000000000000 -0.00000000000000000 -0.00000000000000000 1.00000000000000000 0.00000000000000000 515.79933648387577705
2 -10.00000000000005684 -617.87949192431153733 0.00000000000000000 -0.00000000000000000 0.00000000000000000 -1.00000000000000000 0.49999999999999978 -0.86602540378443882 -0.00000000000000000 -0.86602540378443882 -0.49999999999999978 0.00000000000000000 515.79933648387577705
2 530.09933648387573157 317.60000000000002274 0.00000000000000000 -0.00000000000000000 -0.00000000000000000 -1.00000000000000000 1.00000000000000000 0.00000000000000000 0.00000000000000000 -0.00000000000000000 1.00000000000000000 -0.00000000000000000 515.79933648387577705
2 -540.09933648387550420 300.27949192431162828 0.00000000000000000 -0.00000000000000000 -0.00000000000000000 -1.00000000000000000 -0.49999999999999978 0.86602540378443882 0.00000000000000000 -0.86602540378443882 -0.49999999999999978 0.00000000000000000 515.79933648387577705
2 9.99999999999943334 -617.87949192431165102 0.00000000000000000 -0.00000000000000000 -0.00000000000000000 -1.00000000000000000 -0.50000000000000067 -0.86602540378443837 0.00000000000000000 0.86602540378443837 -0.50000000000000067 -0.00000000000000000 515.79933648387589074
1 319.86119246900403823 -201.18416327411776479 0.00000000000000000 -0.50000000000000067 -0.86602540378443837 0.00000000000000000 -0.86602540378443837 0.50000000000000067 0.00000000000000000 -0.00000000000000000 0.00000000000000000 -1.00000000000000000 
1 -334.16119246900410644 -176.41583672588248533 0.00000000000000000 -0.49999999999999978 0.86602540378443882 0.00000000000000000 0.86602540378443882 0.49999999999999978 0.00000000000000000 0.00000000000000000 0.00000000000000000 -1.00000000000000000 
1 14.29999999999995453 377.60000000000002274 0.00000000000000000 1.00000000000000000 0.00000000000000000 -0.00000000000000000 0.00000000000000000 -1.00000000000000000 0.00000000000000000 0.00000000000000000 -0.00000000000000000 -1.00000000000000000 
1 0.00000000000000000 377.60000000000007958 0.14999999999999999 0.00000000000000000 1.00000000000000000 0.00000000000000000 0.00000000000000000 -0.00000000000000000 1.00000000000000000 1.00000000000000000 0.00000000000000000 -0.00000000000000000 
1 -88.40400783368163218 51.04007772021788725 0.14999999999999999 -0.86602540378443837 0.50000000000000044 -0.00000000000000000 -0.50000000000000044 -0.86602540378443837 0.00000000000000000 0.00000000000000000 0.00000000000000000 1.00000000000000000 
1 -327.01119246900418602 -188.79999999999998295 0.15000000000000002 -0.86602540378443882 -0.49999999999999983 -0.00000000000000000 0.49999999999999983 -0.86602540378443882 0.00000000000000000 -0.00000000000000000 0.00000000000000000 1.00000000000000000 
1 -0.00000000000005250 -102.08015544043580292 0.15000000000000002 -0.00000000000000288 -1.00000000000000000 -0.00000000000000000 -1.00000000000000000 0.00000000000000288 0.00000000000000000 0.00000000000000000 0.00000000000000000 -1.00000000000000000 
1 88.40400783368164639 51.04007772021786593 0.00000000000000000 -0.86602540378443749 -0.50000000000000211 0.00000000000000000 -0.50000000000000211 0.86602540378443749 0.00000000000000000 -0.00000000000000000 0.00000000000000000 -1.00000000000000000 
1 -88.40400783368164639 51.04007772021786593 0.00000000000000000 -0.86602540378443749 0.50000000000000211 0.00000000000000000 0.50000000000000211 0.86602540378443749 0.00000000000000000 0.00000000000000000 0.00000000000000000 -1.00000000000000000 
1 -88.40400783368161797 51.04007772021790856 0.00000000000000000 0.86602540378443971 -0.49999999999999811 0.00000000000000000 -0.49999999999999811 -0.86602540378443971 0.00000000000000000 0.00000000000000000 -0.00000000000000000 -1.00000000000000000 
1 -0.00000000000001421 -102.08015544043576028 0.00000000000000000 -0.00000000000000266 -1.00000000000000000 0.00000000000000000 -1.00000000000000000 0.00000000000000266 0.00000000000000000 -0.00000000000000000 0.00000000000000000 -1.00000000000000000 
1 -0.00000000000008527 -102.08015544043580292 0.00000000000000000 -0.00000000000000167 1.00000000000000000 0.00000000000000000 1.00000000000000000 0.00000000000000167 0.00000000000000000 0.00000000000000000 0.00000000000000000 -1.00000000000000000 
Triangulations 0

TShapes 82
Ve
0.000000100000000
-14.299999999999955 377.600000000000023 0.000000000000000
0 0

0101101
*
Ed
 0.000000100000000 1 1 0
1  1 0 0.000000000000000 0.300000000000000
2  1 1 0 0.000000000000000 0.300000000000000
2  2 2 0 0.000000000000000 0.300000000000000
0

0101000
+82 10 -82 12 *
Ve
0.000000100000000
-14.299999999999955 317.600000000000080 0.000000000000000
0 0

0101101
*
Ed
 0.000000100000000 1 1 0
1  2 0 0.000000000000000 0.300000000000000
2  3 3 0 0.000000000000000 0.300000000000000
4 G1 1 0 3 0
2  4 1 0 0.000000000000000 0.300000000000000
0

0101000
+80 10 -80 12 *
Ed
 0.000000100000000 1 1 0
1  3 0 0.000000000000000 59.999999999999943
2  5 4 17 0.000000000000000 59.999999999999943
2  6 4 19 0.000000000000000 59.999999999999943
2  7 4 21 0.000000000000000 59.999999999999943
2  8 1 22 0.000000000000000 59.999999999999943
2  9 1 23 0.000000000000000 59.999999999999943
2  10 5 24 0.000000000000000 59.999999999999943
2  11 5 25 0.000000000000000 59.999999999999943
2  12 6 26 0.000000000000000 59.999999999999943
2  13 6 27 0.000000000000000 59.999999999999943
0

0101000
+82 28 -80 28 *
Wi

0101100
+81 0 -79 0 -78 16 +78 29 *
Fa
0  0.000000100000000 1 0

0101000
+77 0 *
Ve
0.000000100000000
-83.404007833681590 59.700331758062305 0.000000000000000
0 0

0101101
*
Ed
 0.000000100000000 1 1 0
1  4 0 0.000000000000000 0.300000000000000
2  14 3 0 0.000000000000000 0.300000000000000
4 G1 3 0 7 0
2  15 8 0 0.000000000000000 0.300000000000000
0

0101000
+75 10 -75 12 *
Ed
 0.000000100000000 1 1 0
1  5 0 3.141592653589793 3.665191429188092
2  16 3 22 3.141592653589793 3.665191429188092
2  17 3 23 3.141592653589793 3.665191429188092
2  18 9 26 3.141592653589793 3.665191429188092
2  19 9 27 3.141592653589793 3.665191429188092
2  20 10 24 3.141592653589793 3.665191429188092
2  21 10 25 3.141592653589793 3.665191429188092
2  22 4 17 3.141592653589793 3.665191429188092
2  23 4 19 3.141592653589793 3.665191429188092
2  24 4 21 3.141592653589793 3.665191429188092
0

0101000
+80 28 -75 28 *
Wi

0101100
+79 0 -74 0 -73 16 +73 29 *
Fa
0  0.000000100000000 3 0

0101000
+72 0 *
Ve
0.000000100000000
14.299999999999955 377.600000000000023 0.000000000000000
0 0

0101101
*
Ed
 0.000000100000000 1 1 0
1  6 0 -14.299999999999988 14.299999999999963
2  25 4 30 -14.299999999999988 14.299999999999963
2  26 2 0 -14.299999999999988 14.299999999999963
0

0101000
+70 10 -82 10 *
Ve
0.000000100000000
83.404007833681646 59.700331758062347 0.000000000000000
0 0

0101101
*
Ed
 0.000000100000000 1 1 0
1  7 0 -10.000000000000117 10.000000000000078
2  27 4 30 -10.000000000000117 10.000000000000078
2  28 8 0 -10.000000000000117 10.000000000000078
0

0101000
+75 10 -68 33 *
Ve
0.000000100000000
14.299999999999955 317.600000000000080 0.000000000000000
0 0

0101101
*
Ed
 0.000000100000000 1 1 0
1  8 0 3.141592653589793 3.665191429188092
2  29 11 37 3.141592653589793 3.665191429188092
2  30 11 38 3.141592653589793 3.665191429188092
2  31 12 39 3.141592653589793 3.665191429188092
2  32 12 40 3.141592653589793 3.665191429188092
2  33 13 41 3.141592653589793 3.665191429188092
2  34 13 42 3.141592653589793 3.665191429188092
2  35 4 43 3.141592653589793 3.665191429188092
2  36 4 44 3.141592653589793 3.665191429188092
2  37 4 45 3.141592653589793 3.665191429188092
0

0101000
+66 46 -68 46 *
Ed
 0.000000100000000 1 1 0
1  9 0 0.000000000000000 59.999999999999943
2  38 4 43 0.000000000000000 59.999999999999943
2  39 4 44 0.000000000000000 59.999999999999943
2  40 4 45 0.000000000000000 59.999999999999943
2  41 14 41 0.000000000000000 59.999999999999943
2  42 14 42 0.000000000000000 59.999999999999943
2  43 15 39 0.000000000000000 59.999999999999943
2  44 15 40 0.000000000000000 59.999999999999943
2  45 16 37 0.000000000000000 59.999999999999943
2  46 16 38 0.000000000000000 59.999999999999943
0

0101000
+70 46 -66 46 *
Ed
 0.000000100000000 1 1 0
1  10 0 -14.299999999999955 14.299999999999955
2  47 4 30 -14.299999999999955 14.299999999999955
2  48 17 0 -14.299999999999955 14.299999999999955
0

0101000
+70 33 -82 33 *
Ed
 0.000000100000000 1 1 0
1  11 0 -10.000000000000023 10.000000000000073
2  49 4 30 -10.000000000000023 10.000000000000073
2  50 18 0 -10.000000000000023 10.000000000000073
0

0101000
+75 33 -68 48 *
Ed
 0.000000100000000 1 1 0
1  12 0 -14.299999999999962 14.299999999999962
2  51 4 30 -14.299999999999962 14.299999999999962
2  52 19 0 -14.299999999999962 14.299999999999962
0

0101000
+70 48 -82 48 *
Ed
 0.000000100000000 1 1 0
1  13 0 -10.000000000000007 10.000000000000080
2  53 4 30 -10.000000000000007 10.000000000000080
2  54 20 0 -10.000000000000007 10.000000000000080
0

0101000
+75 48 -68 10 *
Wi

0101000
+69 31 +78 32 +73 32 +67 31 -65 36 -64 36 +63 31 +78 47 +73 47 +62 31 
-65 49 -64 49 +61 31 +78 50 +73 50 +60 31 -65 51 -64 51 *
Fa
0  0.000000100000000 4 0

0101000
+59 0 *
Ed
 0.000000100000000 1 1 0
1  14 0 0.000000000000000 0.300000000000000
2  55 11 0 0.000000000000000 0.300000000000000
4 G1 11 0 16 0
2  56 16 0 0.000000000000000 0.300000000000000
0

0101000
+66 33 -66 52 *
Ed
 0.000000100000000 1 1 0
1  15 0 0.000000000000000 0.300000000000000
2  57 11 0 0.000000000000000 0.300000000000000
4 G1 21 0 11 0
2  58 8 0 0.000000000000000 0.300000000000000
0

0101000
+68 33 -68 52 *
Wi

0101100
+57 0 -56 0 -65 53 +65 54 *
Fa
0  0.000000100000000 11 0

0101000
+55 0 *
Ed
 0.000000100000000 1 1 0
1  16 0 0.000000000000000 0.300000000000000
2  59 16 0 0.000000000000000 0.300000000000000
2  60 17 0 0.000000000000000 0.300000000000000
0

0101000
+70 33 -70 52 *
Wi

0101100
+53 0 -57 0 -64 53 +64 54 *
Fa
0  0.000000100000000 16 0

0101000
+52 0 *
Ed
 0.000000100000000 1 1 0
1  17 0 0.000000000000000 0.300000000000000
2  61 6 0 0.000000000000000 0.300000000000000
2  62 17 0 0.000000000000000 0.300000000000000
0

0101000
+82 33 -82 52 *
Ed
 0.000000100000000 1 1 0
1  18 0 0.000000000000000 0.300000000000000
2  63 9 0 0.000000000000000 0.300000000000000
4 G1 6 0 9 0
2  64 6 0 0.000000000000000 0.300000000000000
0

0101000
+80 33 -80 52 *
Wi

0101100
+50 0 -49 0 -78 55 +78 56 *
Fa
0  0.000000100000000 6 0

0101000
+48 0 *
Ed
 0.000000100000000 1 1 0
1  19 0 0.000000000000000 0.300000000000000
2  65 9 0 0.000000000000000 0.300000000000000
4 G1 9 0 22 0
2  66 18 0 0.000000000000000 0.300000000000000
0

0101000
+75 33 -75 52 *
Wi

0101100
+49 0 -46 0 -73 55 +73 56 *
Fa
0  0.000000100000000 9 0

0101000
+45 0 *
Ed
 0.000000100000000 1 1 0
1  20 0 0.000000000000000 0.300000000000000
2  67 12 0 0.000000000000000 0.300000000000000
4 G1 12 0 15 0
2  68 15 0 0.000000000000000 0.300000000000000
0

0101000
+66 48 -66 57 *
Ed
 0.000000100000000 1 1 0
1  21 0 0.000000000000000 0.300000000000000
2  69 12 0 0.000000000000000 0.300000000000000
4 G1 23 0 12 0
2  70 18 0 0.000000000000000 0.300000000000000
0

0101000
+68 48 -68 57 *
Wi

0101100
+43 0 -42 0 -65 58 +65 59 *
Fa
0  0.000000100000000 12 0

0101000
+41 0 *
Ed
 0.000000100000000 1 1 0
1  22 0 0.000000000000000 0.300000000000000
2  71 15 0 0.000000000000000 0.300000000000000
2  72 19 0 0.000000000000000 0.300000000000000
0

0101000
+70 48 -70 57 *
Wi

0101100
+39 0 -43 0 -64 58 +64 59 *
Fa
0  0.000000100000000 15 0

0101000
+38 0 *
Ed
 0.000000100000000 1 1 0
1  23 0 0.000000000000000 0.300000000000000
2  73 5 0 0.000000000000000 0.300000000000000
2  74 19 0 0.000000000000000 0.300000000000000
0

0101000
+82 48 -82 57 *
Ed
 0.000000100000000 1 1 0
1  24 0 0.000000000000000 0.300000000000000
2  75 10 0 0.000000000000000 0.300000000000000
4 G1 5 0 10 0
2  76 5 0 0.000000000000000 0.300000000000000
0

0101000
+80 48 -80 57 *
Wi

0101100
+36 0 -35 0 -78 60 +78 61 *
Fa
0  0.000000100000000 5 0

0101000
+34 0 *
Ed
 0.000000100000000 1 1 0
1  25 0 0.000000000000000 0.300000000000000
2  77 10 0 0.000000000000000 0.300000000000000
4 G1 10 0 24 0
2  78 20 0 0.000000000000000 0.300000000000000
0

0101000
+75 48 -75 57 *
Wi

0101100
+35 0 -32 0 -73 60 +73 61 *
Fa
0  0.000000100000000 10 0

0101000
+31 0 *
Ed
 0.000000100000000 1 1 0
1  26 0 0.000000000000000 0.300000000000000
2  79 13 0 0.000000000000000 0.300000000000000
4 G1 13 0 14 0
2  80 14 0 0.000000000000000 0.300000000000000
0

0101000
+66 10 -66 12 *
Ed
 0.000000100000000 1 1 0
1  27 0 0.000000000000000 0.300000000000000
2  81 13 0 0.000000000000000 0.300000000000000
4 G1 25 0 13 0
2  82 20 0 0.000000000000000 0.300000000000000
0

0101000
+68 10 -68 12 *
Wi

0101100
+29 0 -28 0 -65 62 +65 63 *
Fa
0  0.000000100000000 13 0

0101000
+27 0 *
Ed
 0.000000100000000 1 1 0
1  28 0 0.000000000000000 0.300000000000000
2  83 14 0 0.000000000000000 0.300000000000000
2  84 2 0 0.000000000000000 0.300000000000000
0

0101000
+70 10 -70 12 *
Wi

0101100
+25 0 -29 0 -64 62 +64 63 *
Fa
0  0.000000100000000 14 0

0101000
+24 0 *
Ed
 0.000000100000000 1 1 0
1  29 0 -10.000000000000110 10.000000000000082
2  85 4 64 -10.000000000000110 10.000000000000082
2  86 8 0 -10.000000000000110 10.000000000000082
0

0101000
+68 52 -75 12 *
Ed
 0.000000100000000 1 1 0
1  30 0 -14.299999999999955 14.299999999999955
2  87 4 64 -14.299999999999955 14.299999999999955
2  88 17 0 -14.299999999999955 14.299999999999955
0

0101000
+82 52 -70 52 *
Ed
 0.000000100000000 1 1 0
1  31 0 -10.000000000000023 10.000000000000075
2  89 4 64 -10.000000000000023 10.000000000000075
2  90 18 0 -10.000000000000023 10.000000000000075
0

0101000
+68 57 -75 52 *
Ed
 0.000000100000000 1 1 0
1  32 0 -14.299999999999962 14.299999999999962
2  91 4 64 -14.299999999999962 14.299999999999962
2  92 19 0 -14.299999999999962 14.299999999999962
0

0101000
+82 57 -70 57 *
Ed
 0.000000100000000 1 1 0
1  33 0 -10.000000000000009 10.000000000000078
2  93 4 64 -10.000000000000009 10.000000000000078
2  94 20 0 -10.000000000000009 10.000000000000078
0

0101000
+68 12 -75 57 *
Ed
 0.000000100000000 1 1 0
1  34 0 -14.299999999999963 14.299999999999988
2  95 4 64 -14.299999999999963 14.299999999999988
2  96 2 0 -14.299999999999963 14.299999999999988
0

0101000
+82 12 -70 12 *
Wi

0101000
+78 32 +73 32 -22 65 -65 36 -64 36 -21 65 +78 47 +73 47 -20 65 -65 49 
-64 49 -19 65 +78 50 +73 50 -18 65 -65 51 -64 51 -17 65 *
Fa
0  0.000000100000000 4 0

0101000
+16 0 *
Wi

0101000
+81 0 +17 0 -25 0 +69 0 *
Fa
0  0.000000100000000 2 0

0101000
+14 0 *
Wi

0101000
-74 0 +67 0 +56 0 +22 0 *
Fa
0  0.000000100000000 8 0

0101000
+12 0 *
Wi

0101000
-53 0 +63 0 +50 0 +21 0 *
Fa
0  0.000000100000000 17 0

0101000
+10 0 *
Wi

0101000
-46 0 +62 0 +42 0 +20 0 *
Fa
0  0.000000100000000 18 0

0101000
+8 0 *
Wi

0101000
-39 0 +61 0 +36 0 +19 0 *
Fa
0  0.000000100000000 19 0

0101000
+6 0 *
Wi

0101000
-32 0 +60 0 +28 0 +18 0 *
Fa
0  0.000000100000000 20 0

0101000
+4 0 *
Sh

0101000
-76 0 -71 0 -58 30 +54 0 +51 0 -47 0 -44 0 +40 0 +37 0 -33 0 
-30 0 +26 0 +23 0 +15 64 +13 0 +11 0 +9 0 +7 0 +5 0 +3 0 
*
So

1100000
+2 0 *

+1 1 