
CASCADE Topology V1, (c) Matra-Datavision
Locations 14
1
1.000000000000000 0.000000000000000 0.000000000000000 0.000000000000000 
0.000000000000000 1.000000000000000 0.000000000000000 0.000000000000000 
0.000000000000000 0.000000000000000 1.000000000000000 0.000000000000000 
1
1.000000000000000 0.000000000000000 0.000000000000000 0.000000000000000 
0.000000000000000 -0.000000000000000 -1.000000000000000 -0.000000000000354 
0.000000000000000 1.000000000000000 -0.000000000000000 1594.000000000000000 
1
1.000000000000000 0.000000000000000 0.000000000000000 0.000000000000000 
0.000000000000000 1.000000000000000 0.000000000000000 2.000000000000000 
0.000000000000000 0.000000000000000 1.000000000000000 -1594.000000000000227 
1
1.000000000000000 0.000000000000000 0.000000000000000 0.000000000000000 
0.000000000000000 1.000000000000000 0.000000000000000 0.000000000000000 
0.000000000000000 0.000000000000000 1.000000000000000 0.000000000000000 
1
1.000000000000000 0.000000000000000 0.000000000000000 0.000000000000000 
0.000000000000000 1.000000000000000 0.000000000000000 0.000000000000000 
0.000000000000000 0.000000000000000 1.000000000000000 0.000000000000000 
1
1.000000000000000 0.000000000000000 0.000000000000000 0.000000000000000 
0.000000000000000 1.000000000000000 0.000000000000000 0.000000000000000 
0.000000000000000 0.000000000000000 1.000000000000000 0.000000000000000 
2  1 1 2 1 3 1 4 1 5 1 6 -1 0
1
1.000000000000000 0.000000000000000 0.000000000000000 -0.000000000000000 
0.000000000000000 1.000000000000000 0.000000000000000 -5.000000000000000 
0.000000000000000 0.000000000000000 1.000000000000000 -0.000000000000001 
2  1 1 2 1 3 1 4 1 5 1 6 -1 8 1 0
2  6 1 5 -1 4 -1 3 -1 2 -1 1 -1 0
2  8 -1 6 1 5 -1 4 -1 3 -1 2 -1 1 -1 0
2  6 -1 0
2  1 1 2 1 3 1 4 1 5 1 0
2  6 -1 8 1 0
Curve2ds 8
1 0.00000000000000000 0.00000000000000000 0.00000000000000000 -1.00000000000000000 
1 6.28318530717958623 0.00000000000000000 0.00000000000000000 -1.00000000000000000 
1 0.00000000000000000 0.00000000000000000 1.00000000000000000 0.00000000000000000 
1 0.00000000000000000 -5.00000000000000000 1.00000000000000000 0.00000000000000000 
1 0.00000000000000000 0.00000000000000000 0.00000000000000000 -1.00000000000000000 
1 6.28318530717958623 0.00000000000000000 0.00000000000000000 -1.00000000000000000 
1 0.00000000000000000 0.00000000000000000 1.00000000000000000 0.00000000000000000 
1 0.00000000000000000 -5.00000000000000000 1.00000000000000000 0.00000000000000000 
Curves 4
1 -10.79999999999996163 1.99999999999964362 10.99999999999977263 -0.00000000000000001 -1.00000000000000000 -0.00000000000000022 
2 -12.49999999999996625 11.00000000000000000 0.00000000000000000 0.00000000000000000 0.00000000000000000 1.00000000000000000 1.00000000000000000 0.00000000000000000 -0.00000000000000000 -0.00000000000000000 1.00000000000000000 0.00000000000000000 1.70000000000000528
1 1.70000000000000528 1.99999999999962852 79.00000000002761169 -0.00000000000000001 -1.00000000000000000 -0.00000000000000022 
2 0.00000000000000000 79.00000000002783906 0.00000000000000000 0.00000000000000000 0.00000000000000000 1.00000000000000000 1.00000000000000000 0.00000000000000000 -0.00000000000000000 -0.00000000000000000 1.00000000000000000 0.00000000000000000 1.70000000000000528
Polygon3D 0
PolygonOnTriangulations 0
Surfaces 4
2 -12.49999999999996625 1.99999999999964362 10.99999999999977263 -0.00000000000000000 1.00000000000000000 0.00000000000000022 1.00000000000000000 0.00000000000000000 0.00000000000000000 -0.00000000000000000 -0.00000000000000022 1.00000000000000000 1.70000000000000528
1 -6.24999999999998934 1.99999999999963607 45.00000000001367084 0.00000000000000001 1.00000000000000000 0.00000000000000022 0.00000000000000000 -0.00000000000000022 1.00000000000000000 1.00000000000000000 -0.00000000000000001 -0.00000000000000000 
2 0.00000000000000000 1.99999999999962852 79.00000000002761169 -0.00000000000000000 1.00000000000000000 0.00000000000000022 1.00000000000000000 0.00000000000000000 0.00000000000000000 -0.00000000000000000 -0.00000000000000022 1.00000000000000000 1.70000000000000528
1 -6.24999999999998934 1.99999999999963607 45.00000000001367084 0.00000000000000001 1.00000000000000000 0.00000000000000022 0.00000000000000000 -0.00000000000000022 1.00000000000000000 1.00000000000000000 -0.00000000000000001 -0.00000000000000000 
Triangulations 0

TShapes 19
Ve
0.000000100000000
-10.799999999999962 11.000000000000000 0.000000000000000
0 0

0101101
*
Ed
 0.000000100000000 1 1 0
1  1 0 0.000000000000000 5.000000000000000
3  1 2CN 1 0 0.000000000000000 5.000000000000000
0

0101000
+19 7 -19 9 *
Ed
 0.000000100000000 1 1 0
1  2 0 0.000000000000000 6.283185307179586
2  3 1 10 0.000000000000000 6.283185307179586
2  4 1 11 0.000000000000000 6.283185307179586
0

0101100
+19 0 -19 0 *
Wi

0101100
+18 0 -18 0 -17 7 +17 9 *
Fa
0  0.000000100000000 1 0

0111000
+16 0 *
Wi

0101100
+17 0 *
Fa
0  0.000000100000000 2 0

0111000
-14 13 *
Sh

0101100
-15 0 +13 12 -13 14 *
So

0100000
+12 0 *
Ve
0.000000100000000
1.700000000000005 79.000000000027839 0.000000000000000
0 0

0101101
*
Ed
 0.000000100000000 1 1 0
1  3 0 0.000000000000000 5.000000000000000
3  5 6CN 3 0 0.000000000000000 5.000000000000000
0

0101000
+10 7 -10 9 *
Ed
 0.000000100000000 1 1 0
1  4 0 0.000000000000000 6.283185307179586
2  7 3 10 0.000000000000000 6.283185307179586
2  8 3 11 0.000000000000000 6.283185307179586
0

0101100
+10 0 -10 0 *
Wi

0101100
+9 0 -9 0 -8 7 +8 9 *
Fa
0  0.000000100000000 3 0

0111000
+7 0 *
Wi

0101100
+8 0 *
Fa
0  0.000000100000000 4 0

0111000
-5 13 *
Sh

0101100
-6 0 +4 12 -4 14 *
So

0100000
+3 0 *
Co

1100000
+11 0 +2 0 *

+1 0 