
CASCADE Topology V1, (c) Matra-Datavision
Locations 3
1
1.000000000000000 0.000000000000000 0.000000000000000 12.990381056766582 
0.000000000000000 1.000000000000000 0.000000000000000 7.500000000000003 
0.000000000000000 0.000000000000000 1.000000000000000 14.999999999996728 
1
1.000000000000000 0.000000000000000 0.000000000000000 12.990381056766591 
0.000000000000000 1.000000000000000 0.000000000000000 7.500000000000008 
0.000000000000000 0.000000000000000 1.000000000000000 97.499999999996675 
1
1.000000000000000 0.000000000000000 0.000000000000000 12.990381056766598 
0.000000000000000 1.000000000000000 0.000000000000000 7.500000000000012 
0.000000000000000 0.000000000000000 1.000000000000000 179.999999999997669 
Curve2ds 9
2 0.00000000000000000 0.00000000000000000 -1.00000000000000000 -0.00000000000000000 -0.00000000000000000 1.00000000000000000 1.69999999999999996
1 0.00000000000000000 0.00000000000000000 1.00000000000000000 0.00000000000000000 
1 0.00000000000000000 25.00000000000000355 1.00000000000000000 0.00000000000000000 
1 0.00000000000000000 0.00000000000000000 1.00000000000000000 0.00000000000000000 
1 6.28318530717958623 0.00000000000000000 0.00000000000000000 1.00000000000000000 
1 0.00000000000000000 0.00000000000000000 0.00000000000000000 1.00000000000000000 
1 0.00000000000000000 1.98327677526605894 1.00000000000000000 0.00000000000000000 
1 6.28318530717958623 0.00000000000000000 0.00000000000000000 1.00000000000000000 
1 0.00000000000000000 0.00000000000000000 0.00000000000000000 1.00000000000000000 
Curves 4
2 0.00000000000000000 0.00000000000000000 0.00000000000000000 0.50000000000000000 -0.86602540378443871 0.00000000000000010 0.00000000000000021 0.00000000000000000 -1.00000000000000000 0.86602540378443871 0.50000000000000000 0.00000000000000018 1.69999999999999996
2 -12.50000000000000178 21.65063509461096913 -0.00000000000000260 0.50000000000000000 -0.86602540378443871 0.00000000000000010 0.00000000000000084 0.00000000000000037 -1.00000000000000000 0.86602540378443871 0.50000000000000000 0.00000000000000091 1.69999999999999840
1 0.00000000000000035 0.00000000000000000 -1.69999999999999996 -0.50000000000000000 0.86602540378443871 -0.00000000000000004 
1 -12.50000000000000000 21.65063509461096913 -1.70000000000000107 -0.25751903745502736 0.44603605678833980 0.85716730070211222 
Polygon3D 0
PolygonOnTriangulations 0
Surfaces 3
1 0.00000000000000000 0.00000000000000000 0.00000000000000000 0.50000000000000000 -0.86602540378443871 0.00000000000000010 -0.00000000000000021 -0.00000000000000000 1.00000000000000000 0.86602540378443871 0.50000000000000000 0.00000000000000018 
2 0.00000000000000000 0.00000000000000000 0.00000000000000000 -0.50000000000000000 0.86602540378443871 -0.00000000000000010 0.00000000000000021 0.00000000000000000 -1.00000000000000000 0.86602540378443871 0.50000000000000000 0.00000000000000018 1.69999999999999996
3 -12.50000000000000178 21.65063509461096913 -0.00000000000000260 -0.50000000000000000 0.86602540378443871 -0.00000000000000010 0.00000000000000084 0.00000000000000037 -1.00000000000000000 0.86602540378443871 0.50000000000000000 0.00000000000000091 1.69999999999999840
-1.02974425867665431
Triangulations 0

TShapes 17
Ve
0.000000100000000
0.000000000000000 0.000000000000000 -1.700000000000000
0 0

0101101
*
Ed
 0.000000100000000 1 1 0
1  1 0 0.000000000000000 6.283185307179586
2  1 1 0 0.000000000000000 6.283185307179586
2  2 2 0 0.000000000000000 6.283185307179586
0

0101000
+17 0 -17 0 *
Wi

0101100
-16 0 *
Fa
0  0.000000100000000 1 0

0111000
+15 0 *
Ve
0.000000100000000
-12.500000000000000 21.650635094610969 -1.700000000000001
0 0

0101101
*
Ed
 0.000000100000000 1 1 0
1  2 0 0.000000000000000 6.283185307179586
2  3 2 0 0.000000000000000 6.283185307179586
2  4 3 0 0.000000000000000 6.283185307179586
0

0101000
+13 0 -13 0 *
Ed
 0.000000100000000 1 1 0
1  3 0 0.000000000000000 25.000000000000004
3  5 6CN 2 0 0.000000000000000 25.000000000000004
0

0101000
+17 0 -13 0 *
Wi

0101100
+16 0 -12 0 -11 0 +11 0 *
Fa
0  0.000000100000000 2 0

0111000
+10 0 *
Ve
0.000000100000000
-13.010731526173426 22.535248046970537 -0.000000000000003
0 0

0101101
*
Ed
 0.000000100000000 1 1 1
2  7 3 0 0.000000000000000 6.283185307179586
0

0101000
+8 0 -8 0 *
Ed
 0.000000100000000 1 1 0
1  4 0 0.000000000000000 1.983276775266060
3  8 9CN 3 0 0.000000000000000 1.983276775266060
0

0101000
+13 0 -8 0 *
Wi

0101100
+12 0 -7 0 -6 0 +6 0 *
Fa
0  0.000000100000000 3 0

0111000
+5 0 *
Sh

0101100
+14 0 +9 0 +4 0 *
So

0100000
-3 0 *
Co

1100000
+2 1 +2 2 +2 3 *

+1 0 