
CASCADE Topology V1, (c) Matra-Datavision
Locations 10
1
1.000000000000000 0.000000000000000 0.000000000000000 252.942558156446665 
0.000000000000000 1.000000000000000 0.000000000000000 192.206188304042143 
0.000000000000000 0.000000000000000 1.000000000000000 223.000000000000028 
1
1.000000000000000 0.000000000000000 0.000000000000000 0.000000000000000 
0.000000000000000 1.000000000000000 0.000000000000000 0.000000000000000 
0.000000000000000 0.000000000000000 1.000000000000000 0.000000000000000 
1
1.000000000000000 0.000000000000000 0.000000000000000 0.000000000000000 
0.000000000000000 1.000000000000000 0.000000000000000 0.000000000000000 
0.000000000000000 0.000000000000000 1.000000000000000 0.000000000000000 
2  2 1 3 -1 1 -1 0
1
1.000000000000000 0.000000000000000 0.000000000000000 252.942558156446552 
0.000000000000000 1.000000000000000 0.000000000000000 192.206188304042143 
0.000000000000000 0.000000000000000 1.000000000000000 319.000000000000057 
2  2 1 3 -1 5 -1 0
1
1.000000000000000 0.000000000000000 0.000000000000000 270.618283952441800 
0.000000000000000 1.000000000000000 0.000000000000000 185.237062276713175 
0.000000000000000 0.000000000000000 1.000000000000000 409.000000000000114 
2  2 1 3 -1 7 -1 0
1
1.000000000000000 0.000000000000000 0.000000000000000 270.618283952441914 
0.000000000000000 1.000000000000000 0.000000000000000 185.237062276713516 
0.000000000000000 0.000000000000000 1.000000000000000 13.000000000000004 
2  2 1 3 -1 9 -1 0
Curve2ds 13
2 0.00000000000000000 0.00000000000000000 -1.00000000000000000 -0.00000000000000000 -0.00000000000000000 1.00000000000000000 1.69999999999999996
1 0.00000000000000000 0.00000000000000000 1.00000000000000000 0.00000000000000000 
2 28.96381239625027959 -223.00000000000002842 0.00000000000000183 -1.00000000000000000 1.00000000000000000 0.00000000000000183 1.69999999999998863
2 28.96381239625037907 -319.00000000000005684 0.00000000000000183 -1.00000000000000000 1.00000000000000000 0.00000000000000183 1.69999999999998863
2 9.96381239625022808 -409.00000000000011369 0.00000000000000183 -1.00000000000000000 1.00000000000000000 0.00000000000000183 1.69999999999998863
2 9.96381239625022808 -13.00000000000000355 0.00000000000000183 -1.00000000000000000 1.00000000000000000 0.00000000000000183 1.69999999999999929
1 0.00000000000000000 25.00000000000000000 1.00000000000000000 0.00000000000000000 
1 0.00000000000000000 -0.00000000000000183 1.00000000000000000 0.00000000000000000 
1 6.28318530717958623 0.00000000000000000 0.00000000000000000 1.00000000000000000 
1 0.00000000000000000 0.00000000000000000 0.00000000000000000 1.00000000000000000 
1 0.00000000000000000 1.98327677526605850 1.00000000000000000 0.00000000000000000 
1 6.28318530717958623 0.00000000000000000 0.00000000000000000 1.00000000000000000 
1 0.00000000000000000 0.00000000000000000 0.00000000000000000 1.00000000000000000 
Curves 4
2 0.00000000000000000 0.00000000000000000 0.00000000000000000 -0.36679610670151452 -0.93030135768395572 -0.00000000000000072 -0.00000000000000196 -0.00000000000000000 1.00000000000000000 -0.93030135768395572 0.36679610670151452 -0.00000000000000182 1.69999999999999996
2 9.16990266753786365 23.25753394209889535 0.00000000000001800 -0.36679610670151452 -0.93030135768395572 -0.00000000000000072 -0.00000000000000136 -0.00000000000000024 1.00000000000000000 -0.93030135768395572 0.36679610670151452 -0.00000000000000118 1.69999999999999840
1 -0.00000000000000334 0.00000000000000000 1.69999999999999996 0.36679610670151452 0.93030135768395572 0.00000000000000066 
1 9.16990266753786010 23.25753394209889180 1.70000000000001639 0.18891396068005240 0.47914062034775523 -0.85716730070211145 
Polygon3D 0
PolygonOnTriangulations 0
Surfaces 4
1 0.00000000000000000 0.00000000000000000 0.00000000000000000 -0.36679610670151452 -0.93030135768395572 -0.00000000000000072 0.00000000000000196 0.00000000000000000 -1.00000000000000000 -0.93030135768395572 0.36679610670151452 -0.00000000000000182 
2 0.00000000000000000 0.00000000000000000 0.00000000000000000 0.36679610670151452 0.93030135768395572 0.00000000000000072 -0.00000000000000196 -0.00000000000000000 1.00000000000000000 -0.93030135768395572 0.36679610670151452 -0.00000000000000182 1.69999999999999996
1 279.88763215238174098 181.58237468186462138 0.00000000000000000 -0.36679610670150969 -0.93030135768395761 0.00000000000000000 -0.93030135768395761 0.36679610670150969 0.00000000000000000 -0.00000000000000000 0.00000000000000000 -1.00000000000000000 
3 9.16990266753786365 23.25753394209889535 0.00000000000001800 0.36679610670151452 0.93030135768395572 0.00000000000000072 -0.00000000000000136 -0.00000000000000024 1.00000000000000000 -0.93030135768395572 0.36679610670151452 -0.00000000000000118 1.69999999999999840
-1.02974425867665342
Triangulations 0

TShapes 17
Ve
0.000000100000306
-0.000000000000003 0.000000000000000 1.700000000000000
0 0

0101101
*
Ed
 0.000000100000306 1 1 0
1  1 0 0.000000000000000 6.283185307179586
2  1 1 0 0.000000000000000 6.283185307179586
2  2 2 0 0.000000000000000 6.283185307179586
2  3 3 4 0.000000000000000 6.283185307179586
2  4 3 6 0.000000000000000 6.283185307179586
2  5 3 8 0.000000000000000 6.283185307179586
2  6 3 10 0.000000000000000 6.283185307179586
0

0101000
+17 0 -17 0 *
Wi

0101100
-16 0 *
Fa
0  0.000000100000000 1 0

0111000
+15 0 *
Ve
0.000000100000000
9.169902667537860 23.257533942098892 1.700000000000016
0 0

0101101
*
Ed
 0.000000100000000 1 1 0
1  2 0 0.000000000000000 6.283185307179586
2  7 2 0 0.000000000000000 6.283185307179586
2  8 4 0 0.000000000000000 6.283185307179586
0

0101000
+13 0 -13 0 *
Ed
 0.000000100000000 1 1 0
1  3 0 0.000000000000000 25.000000000000000
3  9 10CN 2 0 0.000000000000000 25.000000000000000
0

0101000
+17 0 -13 0 *
Wi

0101100
+16 0 -12 0 -11 0 +11 0 *
Fa
0  0.000000100000000 2 0

0111000
+10 0 *
Ve
0.000000100000000
9.544571338278134 24.207802406521168 0.000000000000019
0 0

0101101
*
Ed
 0.000000100000000 1 1 1
2  11 4 0 0.000000000000000 6.283185307179586
0

0101000
+8 0 -8 0 *
Ed
 0.000000100000000 1 1 0
1  4 0 0.000000000000000 1.983276775266061
3  12 13CN 4 0 0.000000000000000 1.983276775266061
0

0101000
+13 0 -8 0 *
Wi

0101100
+12 0 -7 0 -6 0 +6 0 *
Fa
0  0.000000100000000 4 0

0111000
+5 0 *
Sh

0101100
+14 0 +9 0 +4 0 *
So

0100000
-3 0 *
Co

1100000
+2 1 +2 5 +2 7 +2 9 *

+1 0 