
CASCADE Topology V1, (c) Matra-Datavision
Locations 7
1
1.000000000000000 0.000000000000000 0.000000000000000 0.000000000000000 
0.000000000000000 1.000000000000000 0.000000000000000 0.000000000000000 
0.000000000000000 0.000000000000000 1.000000000000000 0.000000000000000 
1
1.000000000000000 0.000000000000000 0.000000000000000 0.000000000000000 
0.000000000000000 1.000000000000000 0.000000000000000 0.000000000000000 
0.000000000000000 0.000000000000000 1.000000000000000 0.000000000000000 
1
1.000000000000000 0.000000000000000 0.000000000000000 0.000000000000000 
0.000000000000000 1.000000000000000 0.000000000000000 0.000000000000000 
0.000000000000000 0.000000000000000 1.000000000000000 0.000000000000000 
2  2 1 3 -1 0
1
1.000000000000000 0.000000000000000 0.000000000000000 0.000000000000000 
0.000000000000000 1.000000000000000 0.000000000000000 -100.000000000000000 
0.000000000000000 0.000000000000000 1.000000000000000 -0.000000000000022 
2  5 -1 0
2  5 1 2 1 3 -1 0
Curve2ds 118
1 1.57079632679489656 0.00000000000000000 0.00000000000000000 -1.00000000000000000 
1 0.00000000000000000 -0.29999999999999893 1.00000000000000000 0.00000000000000000 
1 0.00000000000000000 -0.30000000000000071 -1.00000000000000000 0.00000000000000000 
1 0.00000000000000000 0.00000000000000000 0.00000000000000000 -1.00000000000000000 
1 0.00000000000000000 0.00000000000000000 1.00000000000000000 0.00000000000000000 
1 0.00000000000000000 -0.30000000000000071 -1.00000000000000000 0.00000000000000000 
1 0.00000000000000000 -0.30000000000000071 1.00000000000000000 0.00000000000000000 
1 -0.39999999999999991 0.00000000000000009 1.00000000000000000 0.00000000000000000 
1 -0.39999999999999991 -100.00000000000000000 1.00000000000000000 0.00000000000000000 
1 71.59999999999999432 0.00000000000000009 0.00000000000000000 -1.00000000000000000 
2 61.59999999999996589 -37.00000000000002132 0.00000000000000044 1.00000000000000000 -1.00000000000000000 0.00000000000000044 1.70000000000000018
1 0.00000000000000000 -115.10502083251176941 1.00000000000000000 0.00000000000000000 
2 61.59999999999997300 -7.00000000000002398 0.00000000000000044 1.00000000000000000 -1.00000000000000000 0.00000000000000044 1.70000000000000018
1 0.00000000000000000 -115.10502083251176941 1.00000000000000000 0.00000000000000000 
1 0.00000000000000000 0.00000000000000000 0.00000000000000000 -1.00000000000000000 
1 -0.00000000000000007 -0.29999999999999999 1.00000000000000000 0.00000000000000000 
1 0.00000000000000007 -0.29999999999999988 -1.00000000000000000 0.00000000000000000 
1 22.20000000000000284 0.00000000000000000 0.00000000000000000 -1.00000000000000000 
1 0.00000000000000000 100.00000000000000000 1.00000000000000000 0.00000000000000000 
1 0.00000000000000000 0.00000000000000000 1.00000000000000000 0.00000000000000000 
1 0.00000000000000000 -100.00000000000000000 1.00000000000000000 0.00000000000000000 
1 6.28318530717958623 0.00000000000000000 -1.00000000000000000 0.00000000000000000 
1 0.00000000000000000 0.00000000000000000 1.00000000000000000 0.00000000000000000 
6 0 1 72.00000000000000000 -0.30000000000000071  72.00000000000000000 0.00000000000000000  
6 0 1 0.00000000000000000 -0.30000000000000071  0.00000000000000000 0.00000000000000000  
1 -0.39999999999999991 0.00000000000000009 1.00000000000000000 0.00000000000000000 
1 0.00000000000000000 0.00000000000000000 1.00000000000000000 0.00000000000000000 
6 0 1 0.00000000000000000 -0.30000000000000071  0.00000000000000000 0.00000000000000000  
6 0 1 0.39999999999999991 -0.30000000000000071  0.39999999999999991 0.00000000000000000  
8 0.00000000000000000 1.00000000000000000
1 1.57079632679489656 0.00000000000000000 0.00000000000000000 1.00000000000000000 
6 0 1 -0.39999999999999991 -0.30000000000000071  -0.39999999999999991 0.00000000000000000  
6 0 1 -100.00000000000000000 -0.30000000000000071  -100.00000000000000000 0.00000000000000000  
8 0.00000000000000000 1.00000000000000000
1 4.71238898038468967 0.00000000000000000 0.00000000000000000 1.00000000000000000 
1 -0.39999999999999991 -100.00000000000000000 1.00000000000000000 0.00000000000000000 
1 0.00000000000000000 0.00000000000000000 -1.00000000000000000 0.00000000000000000 
6 0 1 -72.00000000000000000 -0.30000000000000071  -72.00000000000000000 0.00000000000000000  
6 0 1 100.00000000000000000 -0.30000000000000071  100.00000000000000000 0.00000000000000000  
1 71.59999999999999432 0.00000000000000009 0.00000000000000000 -1.00000000000000000 
1 0.00000000000000000 0.00000000000000000 0.00000000000000000 -1.00000000000000000 
1 6.28318530717958623 0.00000000000000000 0.00000000000000000 -1.00000000000000000 
2 61.59999999999996589 -37.00000000000002132 0.00000000000000044 1.00000000000000000 -1.00000000000000000 0.00000000000000044 1.70000000000000018
1 0.00000000000000000 -115.40502083251176657 1.00000000000000000 0.00000000000000000 
1 0.00000000000000000 0.00000000000000000 0.00000000000000000 -1.00000000000000000 
1 6.28318530717958623 0.00000000000000000 0.00000000000000000 -1.00000000000000000 
2 61.59999999999997300 -7.00000000000002398 0.00000000000000044 1.00000000000000000 -1.00000000000000000 0.00000000000000044 1.70000000000000018
1 0.00000000000000000 -115.40502083251176657 1.00000000000000000 0.00000000000000000 
1 6.28318530717958623 0.00000000000000000 0.00000000000000000 -1.00000000000000000 
1 -0.00000000000000184 -0.30000000000000032 1.00000000000000000 0.00000000000000000 
1 0.00000000000000007 -0.29999999999999999 -1.00000000000000000 0.00000000000000000 
1 0.00000000000000000 0.00000000000000000 0.00000000000000000 -1.00000000000000000 
1 0.00000000000000000 0.00000000000000000 1.00000000000000000 0.00000000000000000 
1 0.00000000000000000 -0.29999999999999999 -1.00000000000000000 0.00000000000000000 
1 0.00000000000000000 -0.29999999999999999 1.00000000000000000 0.00000000000000000 
1 -0.40000000000000036 0.00000000000000000 1.00000000000000000 0.00000000000000000 
1 -0.40000000000000036 -100.00000000000000000 1.00000000000000000 0.00000000000000000 
1 0.00000000000000000 1.00000000000000000 1.00000000000000000 0.00000000000000000 
1 0.00000000000000000 0.00000000000000000 0.00000000000000000 1.00000000000000000 
6 0 1 0.00000000000000000 -0.29999999999999988  0.00000000000000000 0.00000000000000000  
1 6.28318530717958623 0.00000000000000000 0.00000000000000000 1.00000000000000000 
7 0 0  1 2 2  -100.00000000000000000 -0.30000000000000004  -100.00000000000000000 -0.00000000000000006 
 0.00000000000000000 2 1.00000000000000000 2
1 6.28318530717958623 1.00000000000000000 -1.00000000000000000 0.00000000000000000 
1 0.00000000000000000 0.00000000000000000 0.00000000000000000 -1.00000000000000000 
1 0.00000000000000000 0.00000000000000000 -1.00000000000000000 0.00000000000000000 
8 0.00000000000000000 100.00000000000000000
1 1.57079632679489656 0.00000000000000000 0.00000000000000000 -1.00000000000000000 
1 4.71238898038468612 0.00000000000000000 0.00000000000000000 -1.00000000000000000 
1 -0.00000000000000000 -0.30000000000000071 1.00000000000000000 0.00000000000000000 
1 0.00000000000000178 -0.30000000000000071 -1.00000000000000000 0.00000000000000000 
1 71.59999999999999432 -0.00000000000000009 0.00000000000000000 -1.00000000000000000 
1 -4.71238898038468612 100.00000000000000000 1.00000000000000000 0.00000000000000000 
1 0.00000000000000000 0.00000000000000000 1.00000000000000000 0.00000000000000000 
1 0.00000000000000000 -100.00000000000000000 1.00000000000000000 0.00000000000000000 
1 6.28318530717958623 0.00000000000000000 -1.00000000000000000 0.00000000000000000 
1 0.00000000000000000 0.00000000000000000 1.00000000000000000 0.00000000000000000 
1 -0.40000000000000036 0.00000000000000000 1.00000000000000000 0.00000000000000000 
1 0.00000000000000000 0.00000000000000000 1.00000000000000000 0.00000000000000000 
6 0 1 0.40000000000000036 -0.29999999999999999  0.40000000000000036 0.00000000000000000  
6 0 1 0.00000000000000000 -0.29999999999999999  0.00000000000000000 0.00000000000000000  
8 0.00000000000000000 1.00000000000000000
1 6.28318530717958623 0.00000000000000000 0.00000000000000000 1.00000000000000000 
6 0 1 -0.40000000000000036 -0.29999999999999999  -0.40000000000000036 0.00000000000000000  
6 0 1 -100.00000000000000000 -0.29999999999999999  -100.00000000000000000 0.00000000000000000  
8 0.00000000000000000 1.00000000000000000
1 0.00000000000000000 0.00000000000000000 0.00000000000000000 1.00000000000000000 
1 -0.40000000000000036 -100.00000000000000000 1.00000000000000000 0.00000000000000000 
1 0.00000000000000000 0.00000000000000000 -1.00000000000000000 0.00000000000000000 
1 0.00000000000000000 0.00000000000000000 -1.00000000000000000 0.00000000000000000 
1 0.00000000000000000 0.00000000000000000 0.00000000000000000 -1.00000000000000000 
1 0.00000000000000000 0.00000000000000000 1.00000000000000000 0.00000000000000000 
1 0.00000000000000000 -0.30000000000000071 -1.00000000000000000 0.00000000000000000 
1 0.00000000000000000 -0.30000000000000071 1.00000000000000000 0.00000000000000000 
1 0.00000000000000000 0.00000000000000000 1.00000000000000000 0.00000000000000000 
1 -0.00000000000000622 -100.00000000000000000 1.00000000000000000 0.00000000000000000 
2 10.00000000000003730 -37.00000000000002132 -0.00000000000000044 1.00000000000000000 1.00000000000000000 0.00000000000000044 1.70000000000000018
1 0.00000000000000000 -138.10502083251176941 1.00000000000000000 0.00000000000000000 
2 10.00000000000003020 -7.00000000000001865 -0.00000000000000044 1.00000000000000000 1.00000000000000000 0.00000000000000044 1.70000000000000018
1 0.00000000000000000 -138.10502083251176941 1.00000000000000000 0.00000000000000000 
1 0.00000000000000000 1.00000000000000000 1.00000000000000000 0.00000000000000000 
1 4.71238898038468612 0.00000000000000000 0.00000000000000000 1.00000000000000000 
6 0 1 0.00000000000000178 -0.30000000000000071  0.00000000000000000 0.00000000000000000  
1 1.57079632679490011 0.00000000000000000 0.00000000000000000 1.00000000000000000 
7 0 0  1 2 2  -100.00000000000000000 -0.30000000000000249  -100.00000000000000000 0.00000000000000355 
 0.00000000000000000 2 1.00000000000000000 2
1 6.28318530717958623 1.00000000000000000 -1.00000000000000000 0.00000000000000000 
1 0.00000000000000000 0.00000000000000000 0.00000000000000000 -1.00000000000000000 
1 0.00000000000000000 0.00000000000000000 -1.00000000000000000 0.00000000000000000 
8 0.00000000000000000 100.00000000000000000
1 6.28318530717958623 0.00000000000000000 0.00000000000000000 -1.00000000000000000 
6 0 1 0.00000000000000000 -0.30000000000000071  0.00000000000000000 0.00000000000000000  
6 0 1 0.00000000000000000 -0.30000000000000071  0.00000000000000000 0.00000000000000000  
1 0.00000000000000000 0.00000000000000000 0.00000000000000000 -1.00000000000000000 
6 0 1 0.00000000000000000 -0.30000000000000071  0.00000000000000000 0.00000000000000000  
6 0 1 -100.00000000000000000 -0.30000000000000071  -100.00000000000000000 0.00000000000000000  
1 0.00000000000000000 0.00000000000000000 1.00000000000000000 0.00000000000000000 
1 0.00000000000000000 0.00000000000000000 1.00000000000000000 0.00000000000000000 
1 -0.00000000000000622 -100.00000000000000000 1.00000000000000000 0.00000000000000000 
1 0.00000000000000000 0.00000000000000000 -1.00000000000000000 0.00000000000000000 
2 10.00000000000003730 -37.00000000000002132 -0.00000000000000044 1.00000000000000000 1.00000000000000000 0.00000000000000044 1.70000000000000018
1 0.00000000000000000 -137.80502083251175804 1.00000000000000000 0.00000000000000000 
2 10.00000000000003020 -7.00000000000001865 -0.00000000000000044 1.00000000000000000 1.00000000000000000 0.00000000000000044 1.70000000000000018
1 0.00000000000000000 -137.80502083251175804 1.00000000000000000 0.00000000000000000 
1 0.00000000000000000 0.00000000000000000 -1.00000000000000000 0.00000000000000000 
1 71.59999999999999432 -0.00000000000000187 0.00000000000000000 -1.00000000000000000 
Curves 49
1 11.50000000000000000 -8.00000000000000000 -0.40000000000000169 0.00000000000000000 -1.00000000000000000 -0.00000000000000022 
1 11.50000000000000000 -8.00000000000000000 -0.00000000000000178 0.00000000000000000 0.00000000000000022 -1.00000000000000000 
1 11.50000000000000000 -7.99999999999998401 -72.00000000000000000 0.00000000000000000 -1.00000000000000000 -0.00000000000000022 
2 11.50000000000000000 -45.00000000000000711 -61.99999999999997158 1.00000000000000000 -0.00000000000000022 0.00000000000000022 0.00000000000000022 1.00000000000000000 -0.00000000000000022 -0.00000000000000022 0.00000000000000022 1.00000000000000000 1.70000000000000018
2 11.50000000000000000 -15.00000000000001066 -61.99999999999997158 1.00000000000000000 -0.00000000000000022 0.00000000000000022 0.00000000000000022 1.00000000000000000 -0.00000000000000022 -0.00000000000000022 0.00000000000000022 1.00000000000000000 1.70000000000000018
1 11.10000000000000142 -8.00000000000000000 -0.00000000000000178 0.00000000000000000 -1.00000000000000000 -0.00000000000000022 
2 11.10000000000000142 -8.00000000000000000 -0.40000000000000169 -0.00000000000000000 1.00000000000000000 0.00000000000000022 0.00000000000000000 -0.00000000000000022 1.00000000000000000 1.00000000000000000 0.00000000000000000 0.00000000000000000 0.40000000000000002
6 0 1 11.50000000000000000 -7.99999999999998401 -72.00000000000000000  11.19999999999999929 -7.99999999999998401 -72.00000000000000000  
1 11.19999999999999929 -8.00000000000000000 -0.00000000000000178 0.00000000000000000 0.00000000000000022 -1.00000000000000000 
6 0 1 11.50000000000000000 -8.00000000000000000 -0.40000000000000169  11.19999999999999929 -8.00000000000000000 -0.40000000000000169  
6 0 1 11.50000000000000000 -108.00000000000000000 -0.40000000000002389  11.19999999999999929 -108.00000000000000000 -0.40000000000002389  
1 11.19999999999999929 -108.00000000000000000 -0.00000000000002398 0.00000000000000000 0.00000000000000022 -1.00000000000000000 
6 0 1 11.50000000000000000 -107.99999999999998579 -72.00000000000002842  11.19999999999999929 -107.99999999999998579 -72.00000000000002842  
1 11.19999999999999929 -7.99999999999998401 -72.00000000000000000 0.00000000000000000 -1.00000000000000000 -0.00000000000000022 
1 126.60502083251176941 -43.30000000000003979 -61.99999999999994316 -1.00000000000000000 0.00000000000000022 -0.00000000000000028 
2 11.20000000000000284 -45.00000000000000711 -61.99999999999997158 1.00000000000000000 -0.00000000000000022 0.00000000000000022 0.00000000000000022 1.00000000000000000 -0.00000000000000022 -0.00000000000000022 0.00000000000000022 1.00000000000000000 1.70000000000000018
1 126.60502083251176941 -13.30000000000003624 -61.99999999999995026 -1.00000000000000000 0.00000000000000022 -0.00000000000000028 
2 11.20000000000000284 -15.00000000000001066 -61.99999999999997158 1.00000000000000000 -0.00000000000000022 0.00000000000000022 0.00000000000000022 1.00000000000000000 -0.00000000000000022 -0.00000000000000022 0.00000000000000022 1.00000000000000000 1.70000000000000018
1 -11.09999999999999964 -8.00000000000000000 -0.00000000000000178 0.00000000000000000 -1.00000000000000000 -0.00000000000000022 
1 -11.50000000000000000 -8.00000000000000000 -0.00000000000000178 1.00000000000000000 0.00000000000000000 0.00000000000000000 
2 11.10000000000000142 -8.00000000000000000 -0.40000000000000169 -0.00000000000000000 1.00000000000000000 0.00000000000000022 0.00000000000000000 -0.00000000000000022 1.00000000000000000 1.00000000000000000 0.00000000000000000 0.00000000000000000 0.10000000000000003
6 0 1 11.10000000000000142 -8.00000000000000000 -0.00000000000000178  11.10000000000000142 -8.00000000000000000 -0.30000000000000165  
7 0 0  1 2 2  11.09999999999999964 -108.00000000000000000 -0.00000000000002384  11.10000000000000320 -108.00000000000000000 -0.30000000000002380 
 0.00000000000000000 2 1.00000000000000000 2
2 11.10000000000000142 -108.00000000000000000 -0.40000000000002389 -0.00000000000000000 1.00000000000000000 0.00000000000000022 0.00000000000000000 -0.00000000000000022 1.00000000000000000 1.00000000000000000 0.00000000000000000 0.00000000000000000 0.10000000000000003
1 11.19999999999999929 -8.00000000000000000 -0.40000000000000169 0.00000000000000000 -1.00000000000000000 -0.00000000000000022 
1 -11.50000000000000000 -8.00000000000000000 -0.40000000000000568 0.00000000000000000 -1.00000000000000000 -0.00000000000000022 
2 -11.09999999999999964 -8.00000000000000178 -0.40000000000000213 0.00000000000000000 1.00000000000000000 0.00000000000000022 0.00000000000000377 -0.00000000000000022 1.00000000000000000 1.00000000000000000 0.00000000000000000 -0.00000000000000377 0.40000000000000002
1 -11.50000000000000000 -8.00000000000000000 -0.30000000000000177 1.00000000000000000 0.00000000000000000 0.00000000000000000 
6 0 1 -11.09999999999999964 -8.00000000000000000 -0.00000000000000178  -11.09999999999999964 -8.00000000000000000 -0.30000000000000177  
6 0 1 -11.09999999999999964 -108.00000000000000000 -0.00000000000002398  -11.09999999999999964 -108.00000000000000000 -0.30000000000002397  
1 -11.50000000000000000 -108.00000000000000000 -0.30000000000002397 1.00000000000000000 0.00000000000000000 0.00000000000000000 
1 11.10000000000000142 -8.00000000000000000 -0.30000000000000165 0.00000000000000000 -1.00000000000000000 -0.00000000000000022 
1 -11.50000000000000000 -7.99999999999998401 -72.00000000000000000 0.00000000000000000 -1.00000000000000000 -0.00000000000000022 
1 -11.50000000000000000 -7.99999999999998401 -72.00000000000000000 0.00000000000000000 -0.00000000000000022 1.00000000000000000 
2 -11.50000000000000000 -45.00000000000000711 -61.99999999999997158 1.00000000000000000 -0.00000000000000022 0.00000000000000022 0.00000000000000022 1.00000000000000000 -0.00000000000000022 -0.00000000000000022 0.00000000000000022 1.00000000000000000 1.70000000000000018
2 -11.50000000000000000 -15.00000000000000533 -61.99999999999997158 1.00000000000000000 -0.00000000000000022 0.00000000000000022 0.00000000000000022 1.00000000000000000 -0.00000000000000022 -0.00000000000000022 0.00000000000000022 1.00000000000000000 1.70000000000000018
2 -11.09999999999999964 -8.00000000000000178 -0.40000000000000213 0.00000000000000000 1.00000000000000000 0.00000000000000022 0.00000000000000377 -0.00000000000000022 1.00000000000000000 1.00000000000000000 0.00000000000000000 -0.00000000000000377 0.10000000000000003
6 0 1 -11.50000000000000000 -8.00000000000000000 -0.40000000000000568  -11.19999999999999929 -8.00000000000000178 -0.40000000000000213  
7 0 0  1 2 2  -11.50000000000000178 -108.00000000000000000 -0.40000000000002423  -11.19999999999999574 -108.00000000000000000 -0.40000000000002434 
 0.00000000000000000 2 1.00000000000000000 2
2 -11.09999999999999964 -108.00000000000000000 -0.40000000000002434 0.00000000000000000 1.00000000000000000 0.00000000000000022 0.00000000000000377 -0.00000000000000022 1.00000000000000000 1.00000000000000000 0.00000000000000000 -0.00000000000000377 0.10000000000000003
1 -11.09999999999999964 -8.00000000000000000 -0.30000000000000177 0.00000000000000000 -1.00000000000000000 -0.00000000000000022 
6 0 1 -11.50000000000000000 -7.99999999999998401 -72.00000000000000000  -11.19999999999999929 -7.99999999999998401 -72.00000000000000000  
1 -11.19999999999999929 -7.99999999999998401 -72.00000000000000000 0.00000000000000000 -1.00000000000000000 -0.00000000000000022 
6 0 1 -11.50000000000000000 -107.99999999999998579 -72.00000000000002842  -11.19999999999999929 -107.99999999999998579 -72.00000000000002842  
1 -11.19999999999999929 -7.99999999999998401 -72.00000000000000000 0.00000000000000000 -0.00000000000000022 1.00000000000000000 
1 -11.19999999999999929 -107.99999999999998579 -72.00000000000002842 0.00000000000000000 -0.00000000000000022 1.00000000000000000 
2 -11.19999999999998863 -45.00000000000000711 -61.99999999999997158 1.00000000000000000 -0.00000000000000022 0.00000000000000022 0.00000000000000022 1.00000000000000000 -0.00000000000000022 -0.00000000000000022 0.00000000000000022 1.00000000000000000 1.70000000000000018
2 -11.19999999999998863 -15.00000000000000533 -61.99999999999997158 1.00000000000000000 -0.00000000000000022 0.00000000000000022 0.00000000000000022 1.00000000000000000 -0.00000000000000022 -0.00000000000000022 0.00000000000000022 1.00000000000000000 1.70000000000000018
1 -11.19999999999999929 -8.00000000000000178 -0.40000000000000213 -0.00000000000000000 -1.00000000000000000 -0.00000000000000022 
Polygon3D 0
PolygonOnTriangulations 0
Surfaces 37
1 11.50000000000000000 -8.00000000000000000 -0.40000000000000169 1.00000000000000000 0.00000000000000000 0.00000000000000000 0.00000000000000000 0.00000000000000022 -1.00000000000000000 -0.00000000000000000 1.00000000000000000 0.00000000000000022 
2 11.10000000000000142 -8.00000000000000000 -0.40000000000000169 -0.00000000000000000 1.00000000000000000 0.00000000000000022 0.00000000000000000 -0.00000000000000022 1.00000000000000000 1.00000000000000000 0.00000000000000000 0.00000000000000000 0.40000000000000002
1 11.20000000000000107 -8.00000000000000000 -0.40000000000000169 0.00000000000000000 0.00000000000000022 -1.00000000000000000 0.00000000000000000 -1.00000000000000000 -0.00000000000000022 -1.00000000000000000 0.00000000000000000 -0.00000000000000000 
1 11.19999999999999929 -8.00000000000000000 -0.40000000000000169 0.00000000000000000 -0.00000000000000022 1.00000000000000000 -0.00000000000000000 1.00000000000000000 0.00000000000000022 -1.00000000000000000 -0.00000000000000000 0.00000000000000000 
1 11.50000000000000000 -8.00000000000000000 -0.00000000000000178 1.00000000000000000 0.00000000000000000 0.00000000000000000 0.00000000000000000 0.00000000000000022 -1.00000000000000000 -0.00000000000000000 1.00000000000000000 0.00000000000000022 
1 11.19999999999999929 -108.00000000000000000 -0.00000000000002398 -0.00000000000000000 -1.00000000000000000 -0.00000000000000022 -0.00000000000000000 -0.00000000000000022 1.00000000000000000 -1.00000000000000000 0.00000000000000000 0.00000000000000000 
1 11.19999999999999929 -8.00000000000000000 -0.00000000000000178 0.00000000000000000 1.00000000000000000 0.00000000000000022 0.00000000000000000 0.00000000000000022 -1.00000000000000000 -1.00000000000000000 0.00000000000000000 0.00000000000000000 
2 126.60502083251176941 -45.00000000000003553 -61.99999999999994316 1.00000000000000000 -0.00000000000000022 0.00000000000000022 0.00000000000000022 1.00000000000000000 -0.00000000000000022 -0.00000000000000022 0.00000000000000022 1.00000000000000000 1.70000000000000018
2 126.60502083251176941 -15.00000000000003553 -61.99999999999994316 1.00000000000000000 -0.00000000000000022 0.00000000000000022 0.00000000000000022 1.00000000000000000 -0.00000000000000022 -0.00000000000000022 0.00000000000000022 1.00000000000000000 1.70000000000000018
1 -11.09999999999999964 -8.00000000000000000 -0.00000000000000178 0.00000000000000000 -0.00000000000000022 1.00000000000000000 1.00000000000000000 0.00000000000000000 0.00000000000000000 -0.00000000000000000 1.00000000000000000 0.00000000000000022 
1 11.10000000000000320 -8.00000000000000000 -0.30000000000000177 1.00000000000000000 -0.00000000000000000 0.00000000000000592 0.00000000000000000 -1.00000000000000000 -0.00000000000000022 0.00000000000000592 0.00000000000000022 -1.00000000000000000 
1 11.10000000000000142 -8.00000000000000000 -0.30000000000000165 -1.00000000000000000 0.00000000000000000 -0.00000000000000000 0.00000000000000000 1.00000000000000000 0.00000000000000022 0.00000000000000000 0.00000000000000022 -1.00000000000000000 
2 11.10000000000000142 -108.00000000000000000 -0.40000000000002389 -0.00000000000000000 1.00000000000000000 0.00000000000000022 0.00000000000000000 -0.00000000000000022 1.00000000000000000 1.00000000000000000 0.00000000000000000 0.00000000000000000 0.40000000000000002
9 0 0 0 0 7 1 8 2 2 2 11.49999999999999289 -107.99999999999992895 -0.40000000000002378  11.19999999999999574 -107.99999999999992895 -0.40000000000002356  
11.50000000000007638 -108.00000000000103739 -0.31024020989746048  11.20000000000010942 -108.00000000000103739 -0.37756005247438573  
11.47650044537920877 -107.99999999999749889 -0.22048085400663991  11.19412511134460608 -107.99999999999749889 -0.35512021350167150  
11.42950508888102057 -108.00000000000332534 -0.13810122367084660  11.18237627222053554 -108.00000000000332534 -0.33452530591773805  
11.36189877632913259 -107.99999999999739941 -0.07049491111913880  11.16547469408206084 -107.99999999999739941 -0.31762372777979603  
11.27951914599337080 -108.00000000000119371 -0.02349955462068143  11.14487978649845346 -108.00000000000119371 -0.30587488865519119  
11.18975979010258648 -107.99999999999971578 -0.00000000000002331  11.12243994752561882 -107.99999999999971578 -0.30000000000002292  
11.09999999999999964 -108.00000000000000000 -0.00000000000002384  11.10000000000000320 -108.00000000000000000 -0.30000000000002380  

4.71238898038468967 8
6.28318530717958623 8

0.00000000000000000 2
1.00000000000000000 2

9 0 0 0 0 7 1 8 2 2 2 11.10000000000000142 -8.00000000000000000 -0.00000000000000167  11.09999999999999964 -8.00000000000000000 -0.30000000000000171  
11.18975979010259536 -8.00000000000001776 -0.00000000000000229  11.12243994752566856 -8.00000000000001776 -0.30000000000000265  
11.27951914599323047 -7.99999999999990230 -0.02349955462065449  11.14487978649820654 -7.99999999999990230 -0.30587488865515999  
11.36189877632947542 -8.00000000000018296 -0.07049491111912549  11.16547469408257776 -8.00000000000018296 -0.31762372777979198  
11.42950508888059069 -7.99999999999982503 -0.13810122367081407  11.18237627221995290 -7.99999999999982503 -0.33452530591769558  
11.47650044537952319 -8.00000000000009948 -0.22048085400662462  11.19412511134497912 -8.00000000000009948 -0.35512021350166245  
11.49999999999994849 -7.99999999999997158 -0.31024020989743561  11.19999999999996909 -7.99999999999997158 -0.37756005247435886  
11.50000000000000178 -8.00000000000000000 -0.40000000000000169  11.19999999999999929 -8.00000000000000000 -0.40000000000000174  

0.00000000000000000 8
1.57079632679489656 8

0.00000000000000000 2
1.00000000000000000 2

1 11.19999999999999929 -7.99999999999998401 -72.00000000000000000 0.00000000000000000 0.00000000000000022 -1.00000000000000000 0.00000000000000000 -1.00000000000000000 -0.00000000000000022 -1.00000000000000000 0.00000000000000000 -0.00000000000000000 
1 11.19999999999999929 -8.00000000000000000 -0.40000000000000169 1.00000000000000000 0.00000000000000000 0.00000000000000000 0.00000000000000000 0.00000000000000022 -1.00000000000000000 -0.00000000000000000 1.00000000000000000 0.00000000000000022 
2 -11.09999999999999964 -8.00000000000000178 -0.40000000000000213 0.00000000000000000 1.00000000000000000 0.00000000000000022 0.00000000000000377 -0.00000000000000022 1.00000000000000000 1.00000000000000000 0.00000000000000000 -0.00000000000000377 0.40000000000000002
1 -11.09999999999999964 -8.00000000000000178 -0.30000000000000210 1.00000000000000000 -0.00000000000000000 0.00000000000000000 0.00000000000000000 -1.00000000000000000 -0.00000000000000022 0.00000000000000000 0.00000000000000022 -1.00000000000000000 
1 -11.09999999999999964 -8.00000000000000000 -0.30000000000000177 -1.00000000000000000 0.00000000000000000 -0.00000000000000000 0.00000000000000000 1.00000000000000000 0.00000000000000022 0.00000000000000000 0.00000000000000022 -1.00000000000000000 
1 -11.50000000000000000 -8.00000000000000000 -0.00000000000000178 0.00000000000000000 -0.00000000000000022 1.00000000000000000 1.00000000000000000 0.00000000000000000 0.00000000000000000 -0.00000000000000000 1.00000000000000000 0.00000000000000022 
1 -11.50000000000000000 -108.00000000000000000 -0.30000000000002397 0.00000000000000000 -1.00000000000000000 0.00000000000000000 -1.00000000000000000 0.00000000000000000 0.00000000000000000 -0.00000000000000000 -0.00000000000000000 -1.00000000000000000 
1 -11.50000000000000000 -8.00000000000000000 -0.30000000000000177 -0.00000000000000000 1.00000000000000000 0.00000000000000000 1.00000000000000000 0.00000000000000000 0.00000000000000000 0.00000000000000000 0.00000000000000000 -1.00000000000000000 
2 11.10000000000000142 -8.00000000000000000 -0.40000000000000169 -0.00000000000000000 1.00000000000000000 0.00000000000000022 0.00000000000000000 -0.00000000000000022 1.00000000000000000 1.00000000000000000 0.00000000000000000 0.00000000000000000 0.10000000000000003
1 -11.50000000000000000 -7.99999999999998401 -72.00000000000000000 -1.00000000000000000 -0.00000000000000000 0.00000000000000000 0.00000000000000000 -0.00000000000000022 1.00000000000000000 0.00000000000000000 1.00000000000000000 0.00000000000000022 
1 -11.19999999999999929 -8.00000000000000000 -0.40000000000000568 0.00000000000000000 -0.00000000000000022 1.00000000000000000 0.00000000000000000 -1.00000000000000000 -0.00000000000000022 1.00000000000000000 0.00000000000000000 0.00000000000000000 
1 -11.19999999999999929 -8.00000000000000178 -0.40000000000000213 0.00000000000001184 0.00000000000000022 -1.00000000000000000 0.00000000000000000 1.00000000000000000 0.00000000000000022 1.00000000000000000 -0.00000000000000000 0.00000000000001184 
2 -11.09999999999999964 -108.00000000000000000 -0.40000000000002589 0.00000000000000000 1.00000000000000000 0.00000000000000022 -1.00000000000000000 0.00000000000000000 0.00000000000000000 0.00000000000000000 -0.00000000000000022 1.00000000000000000 0.40000000000000002
9 0 0 0 0 7 1 8 2 2 2 -11.09999999999999964 -108.00000000000000000 -0.00000000000002431  -11.09999999999999609 -108.00000000000000000 -0.30000000000002436  
-11.18975979010255095 -108.00000000000005684 -0.00000000000002412  -11.12243994752565435 -108.00000000000005684 -0.30000000000002541  
-11.27951914599337080 -107.99999999999921840 -0.02349955462067795  -11.14487978649823141 -107.99999999999921840 -0.30587488865518270  
-11.36189877632922673 -108.00000000000164846 -0.07049491111914537  -11.16547469408252979 -108.00000000000164846 -0.31762372777981340  
-11.42950508888083938 -107.99999999999840838 -0.13810122367083819  -11.18237627222000086 -107.99999999999840838 -0.33452530591771967  
-11.47650044537936687 -108.00000000000092371 -0.22048085400664527  -11.19412511134494181 -108.00000000000092371 -0.35512021350168421  
-11.49999999999999822 -107.99999999999974420 -0.31024020989745865  -11.19999999999997620 -107.99999999999974420 -0.37756005247438162  
-11.50000000000000178 -108.00000000000000000 -0.40000000000002423  -11.19999999999999574 -108.00000000000000000 -0.40000000000002434  

0.00000000000000000 8
1.57079632679490011 8

0.00000000000000000 2
1.00000000000000000 2

9 0 0 0 0 7 1 8 2 2 2 -11.50000000000000178 -8.00000000000000178 -0.40000000000000219  -11.19999999999999929 -8.00000000000000178 -0.40000000000000213  
-11.50000000000010836 -8.00000000000006928 -0.31024020989743828  -11.20000000000007212 -8.00000000000006928 -0.37756005247436264  
-11.47650044537904890 -7.99999999999981526 -0.22048085400661815  -11.19412511134466648 -7.99999999999981526 -0.35512021350165329  
-11.42950508888130301 -8.00000000000024514 -0.13810122367082284  -11.18237627222039698 -8.00000000000024514 -0.33452530591770901  
-11.36189877632879686 -7.99999999999980460 -0.07049491111911751  -11.16547469408219939 -7.99999999999980460 -0.31762372777978082  
-11.27951914599359462 -8.00000000000009592 -0.02349955462065851  -11.14487978649836641 -8.00000000000009592 -0.30587488865516566  
-11.18975979010250299 -7.99999999999997957 -0.00000000000000132  -11.12243994752563481 -7.99999999999997957 -0.30000000000000221  
-11.09999999999999964 -8.00000000000000178 -0.00000000000000211  -11.09999999999999964 -8.00000000000000178 -0.30000000000000210  

4.71238898038468612 8
6.28318530717958623 8

0.00000000000000000 2
1.00000000000000000 2

1 -11.09999999999999964 -8.00000000000000000 -0.30000000000000177 0.00000000000000000 -0.00000000000000022 1.00000000000000000 1.00000000000000000 0.00000000000000000 0.00000000000000000 -0.00000000000000000 1.00000000000000000 0.00000000000000022 
1 -11.50000000000000000 -7.99999999999998401 -72.00000000000000000 -1.00000000000000000 -0.00000000000000000 0.00000000000000000 0.00000000000000000 -0.00000000000000022 1.00000000000000000 0.00000000000000000 1.00000000000000000 0.00000000000000022 
1 -11.19999999999999929 -107.99999999999998579 -72.00000000000002842 0.00000000000000000 -1.00000000000000000 -0.00000000000000022 -0.00000000000000000 0.00000000000000022 -1.00000000000000000 1.00000000000000000 0.00000000000000000 0.00000000000000000 
1 -11.19999999999999929 -7.99999999999998401 -72.00000000000000000 -0.00000000000000000 1.00000000000000000 0.00000000000000022 0.00000000000000000 -0.00000000000000022 1.00000000000000000 1.00000000000000000 0.00000000000000000 0.00000000000000000 
2 -11.09999999999999964 -8.00000000000000178 -0.40000000000000213 0.00000000000000000 1.00000000000000000 0.00000000000000022 0.00000000000000377 -0.00000000000000022 1.00000000000000000 1.00000000000000000 0.00000000000000000 -0.00000000000000377 0.10000000000000003
1 -11.19999999999999929 -7.99999999999998401 -72.00000000000000000 0.00000000000000000 0.00000000000000022 -1.00000000000000000 0.00000000000000000 1.00000000000000000 0.00000000000000022 1.00000000000000000 -0.00000000000000000 0.00000000000000000 
1 -11.19999999999999929 -7.99999999999998401 -72.00000000000000000 -1.00000000000000000 -0.00000000000000000 0.00000000000000000 0.00000000000000000 -0.00000000000000022 1.00000000000000000 0.00000000000000000 1.00000000000000000 0.00000000000000022 
Triangulations 0

TShapes 139
Ve
0.001000000000000
11.500000000000000 -8.000000000000000 -0.400000000000002
0 0

0101101
*
Ed
 0.001000000000000 1 1 0
1  1 0 0.000000000000000 100.000000000000000
2  1 2 0 0.000000000000000 100.000000000000000
4 G1 1 0 2 0
2  2 3 0 0.000000000000000 100.000000000000000
2  3 4 0 0.000000000000000 100.000000000000000
2  4 1 0 0.000000000000000 100.000000000000000
0

0101000
+139 0 -139 5 *
Ve
0.001000000000000
11.500000000000000 -7.999999999999984 -72.000000000000000
0 0

0101101
*
Ed
 0.001000000000000 1 1 0
2  5 5 0 0.400000000000000 72.000000000000000
1  2 0 0.400000000000000 72.000000000000000
2  6 6 6 0.400000000000000 72.000000000000000
2  7 7 0 0.400000000000000 72.000000000000000
2  8 1 0 0.400000000000000 72.000000000000000
2  9 1 6 0.400000000000000 72.000000000000000
0

0101000
+139 0 -137 0 *
Ed
 0.001000000000000 1 1 0
1  3 0 0.000000000000000 100.000000000000000
2  10 1 0 0.000000000000000 100.000000000000000
0

0101000
+137 0 -137 5 *
Wi

0101100
+138 4 -136 4 +136 7 -135 4 *
Ve
0.001000000000007
11.500000000000000 -43.300000000000011 -61.999999999999972
0 0

0101101
*
Ed
 0.001000000000000 1 1 0
1  4 0 0.000000000000000 6.283185307179586
2  11 1 4 0.000000000000000 6.283185307179586
2  12 8 0 0.000000000000000 6.283185307179586
0

0101100
+133 0 -133 0 *
Wi

0101100
-132 0 *
Ve
0.001000000000007
11.500000000000000 -13.300000000000011 -61.999999999999979
0 0

0101101
*
Ed
 0.001000000000000 1 1 0
1  5 0 0.000000000000000 6.283185307179586
2  13 1 4 0.000000000000000 6.283185307179586
2  14 9 0 0.000000000000000 6.283185307179586
0

0101100
+130 0 -130 0 *
Wi

0101100
-129 0 *
Fa
0  0.001000000000000 1 4

0111000
+134 0 +131 0 +128 0 *
Ve
0.001000000000000
11.100000000000001 -8.000000000000000 -0.000000000000002
0 0

0101101
*
Ed
 0.001000000000000 1 1 0
1  6 0 0.000000000000000 100.000000000000000
2  15 2 0 0.000000000000000 100.000000000000000
4 G1 2 0 10 0
2  16 11 0 0.000000000000000 100.000000000000000
2  17 12 0 0.000000000000000 100.000000000000000
2  18 10 0 0.000000000000000 100.000000000000000
0

0101000
+126 0 -126 5 *
Ed
 0.000000100000000 1 1 0
2  19 13 0 0.000000000000000 1.570796326794897
1  7 0 0.000000000000000 1.570796326794897
2  20 2 0 0.000000000000000 1.570796326794897
2  21 2 6 0.000000000000000 1.570796326794897
2  22 14 6 0.000000000000000 1.570796326794897
2  23 15 0 0.000000000000000 1.570796326794897
0

0101000
+126 0 -139 0 *
Wi

0101100
+125 0 -138 0 -124 0 +124 5 *
Fa
0  0.000000100000000 2 0

0111000
+123 0 *
Ve
0.001000000000000
11.199999999999999 -7.999999999999984 -72.000000000000000
0 0

0101101
*
Ed
 0.000000100000000 1 1 0
1  8 0 0.000000000000000 1.000000000000000
4 C0 16 0 7 0
2  24 7 0 0.000000000000000 1.000000000000000
2  25 16 0 0.000000000000000 1.000000000000000
0

0101000
+137 0 -121 0 *
Ve
0.001000000000000
11.199999999999999 -8.000000000000000 -0.400000000000002
0 0

0101101
*
Ed
 0.001000000000000 1 1 0
2  26 17 0 0.400000000000000 72.000000000000000
1  9 0 0.400000000000000 72.000000000000000
2  27 7 0 0.400000000000000 72.000000000000000
0

0101000
+119 0 -121 0 *
Ed
 0.000000100000002 1 1 0
1  10 0 0.000000000000000 1.000000000000000
4 C0 4 0 7 0
2  28 4 0 0.000000000000000 1.000000000000000
2  29 7 0 0.000000000000000 1.000000000000000
2  30 15 0 0.000000000000000 1.000000000000000
0

0101000
+139 0 -119 0 *
Wi

0101100
+136 0 +120 0 -118 0 -117 0 *
Fa
0  0.000000100000000 7 0

0111000
+116 0 *
Ve
0.001000000000000
11.199999999999999 -108.000000000000000 -0.400000000000024
0 0

0101101
*
Ed
 0.000000100000002 1 1 0
1  11 0 0.000000000000000 1.000000000000000
4 C0 6 0 4 0
2  31 6 0 0.000000000000000 1.000000000000000
2  32 4 0 0.000000000000000 1.000000000000000
2  33 14 0 0.000000000000000 1.000000000000000
0

0101000
+139 5 -114 0 *
Ve
0.001000000000000
11.199999999999999 -107.999999999999986 -72.000000000000028
0 0

0101101
*
Ed
 0.001000000000000 1 1 0
2  34 17 0 0.400000000000000 72.000000000000000
1  12 0 0.400000000000000 72.000000000000000
2  35 6 0 0.400000000000000 72.000000000000000
0

0101000
+114 0 -112 0 *
Ed
 0.000000100000000 1 1 0
1  13 0 0.000000000000000 1.000000000000000
4 C0 16 0 6 0
2  36 6 0 0.000000000000000 1.000000000000000
2  37 16 0 0.000000000000000 1.000000000000000
0

0101000
+137 5 -112 0 *
Wi

0101100
-136 5 +113 0 +111 0 -110 0 *
Fa
0  0.000000100000000 6 0

0111000
+109 0 *
Ed
 0.001000000000000 1 1 0
2  38 17 0 0.000000000000000 100.000000000000000
1  14 0 0.000000000000000 100.000000000000000
0

0101000
+121 0 -112 0 *
Wi

0101000
+135 0 +110 0 -107 0 -120 0 *
Fa
0  0.000000100000000 16 0

0111000
+106 0 *
Ve
0.001000000000010
11.200000000000003 -43.300000000000011 -61.999999999999979
0 0

0101101
*
Ed
 0.000000100000000 1 1 0
1  15 0 115.105020832511769 115.405020832511767
3  39 40CN 8 0 115.105020832511769 115.405020832511767
0

0101000
+133 0 -104 0 *
Ed
 0.001000000000000 1 1 0
1  16 0 0.000000000000000 6.283185307179586
2  41 17 4 0.000000000000000 6.283185307179586
2  42 8 0 0.000000000000000 6.283185307179586
0

0101100
+104 0 -104 0 *
Wi

0101100
-132 0 -103 0 +102 0 +103 0 *
Fa
0  0.000000100000000 8 0

0111000
+101 0 *
Ve
0.001000000000014
11.200000000000003 -13.300000000000011 -61.999999999999986
0 0

0101101
*
Ed
 0.000000100000000 1 1 0
1  17 0 115.105020832511769 115.405020832511767
3  43 44CN 9 0 115.105020832511769 115.405020832511767
0

0101000
+130 0 -99 0 *
Ed
 0.001000000000000 1 1 0
1  18 0 0.000000000000000 6.283185307179586
2  45 17 4 0.000000000000000 6.283185307179586
2  46 9 0 0.000000000000000 6.283185307179586
0

0101100
+99 0 -99 0 *
Wi

0101100
-129 0 -98 0 +97 0 +98 0 *
Fa
0  0.000000100000000 9 0

0111000
+96 0 *
Ve
0.001000000000000
-11.100000000000000 -8.000000000000000 -0.000000000000002
0 0

0101101
*
Ed
 0.001000000000000 1 1 0
1  19 0 0.000000000000000 100.000000000000000
2  47 18 0 0.000000000000000 100.000000000000000
4 G1 10 0 18 0
2  48 19 0 0.000000000000000 100.000000000000000
2  49 20 0 0.000000000000000 100.000000000000000
2  50 10 0 0.000000000000000 100.000000000000000
0

0101000
+94 0 -94 5 *
Ed
 0.001000000000000 1 1 0
2  51 21 0 0.400000000000000 22.600000000000001
1  20 0 0.400000000000000 22.600000000000001
2  52 22 6 0.400000000000000 22.600000000000001
2  53 23 0 0.400000000000000 22.600000000000001
2  54 10 0 0.400000000000000 22.600000000000001
2  55 10 6 0.400000000000000 22.600000000000001
0

0101000
+94 0 -126 0 *
Wi

0101100
+93 0 -125 0 -92 0 +92 5 *
Fa
0  0.001000000000000 10 0

0111000
+91 0 *
Ve
0.001000000000001
11.100000000000001 -8.000000000000000 -0.300000000000002
0 0

0101101
*
Ed
 0.000000100000000 1 1 0
2  20 24 0 0.000000000000000 1.570796326794897
1  21 0 0.000000000000000 1.570796326794897
2  56 15 0 0.000000000000000 1.570796326794897
0

0101000
+89 0 -119 0 *
Ed
 0.000000100000002 1 1 0
1  22 0 0.000000000000000 1.000000000000000
2  57 15 0 0.000000000000000 1.000000000000000
4 C0 12 0 15 0
2  58 12 0 0.000000000000000 1.000000000000000
0

0101000
+126 0 -89 0 *
Wi

0101100
+124 0 +117 0 -88 0 -87 0 *
Fa
0  0.000000100000000 15 0

0111000
+86 0 *
Ve
0.001000000000001
11.100000000000001 -108.000000000000000 -0.300000000000024
0 0

0101101
*
Ed
 0.000000100000002 1 1 0
1  23 0 0.000000000000000 1.000000000000000
2  59 14 0 0.000000000000000 1.000000000000000
4 C0 14 0 12 0
2  60 12 0 0.000000000000000 1.000000000000000
0

0101000
+126 5 -84 0 *
Ed
 0.000000100000000 1 1 0
2  21 24 0 0.000000000000000 1.570796326794897
1  24 0 0.000000000000000 1.570796326794897
2  61 14 0 0.000000000000000 1.570796326794897
0

0101000
+84 0 -114 0 *
Wi

0101100
-124 5 +83 0 +82 0 -113 0 *
Fa
0  0.000000100000000 14 0

0111000
+81 0 *
Ed
 0.001000000000000 1 1 0
2  62 17 0 0.000000000000000 100.000000000000000
1  25 0 0.000000000000000 100.000000000000000
2  63 4 0 0.000000000000000 100.000000000000000
2  64 24 0 0.000000000000000 100.000000000000000
0

0101000
+119 0 -114 0 *
Wi

0101100
+79 4 -118 4 +111 4 -107 4 *
Wi

0101100
-102 0 *
Wi

0101100
-97 0 *
Fa
0  0.001000000000000 17 4

0111000
+78 0 +77 0 +76 0 *
Ve
0.001000000000000
-11.500000000000000 -8.000000000000000 -0.400000000000006
0 0

0101101
*
Ed
 0.001000000000000 1 1 0
1  26 0 0.000000000000000 100.000000000000000
2  65 18 0 0.000000000000000 100.000000000000000
4 G1 18 0 25 0
2  66 26 0 0.000000000000000 100.000000000000000
2  67 27 0 0.000000000000000 100.000000000000000
2  68 25 0 0.000000000000000 100.000000000000000
0

0101000
+74 0 -74 5 *
Ed
 0.000000100000002 1 1 0
2  69 28 0 4.712388980384686 6.283185307179586
1  27 0 4.712388980384686 6.283185307179586
2  70 18 0 4.712388980384686 6.283185307179586
2  71 18 6 4.712388980384686 6.283185307179586
2  72 29 6 4.712388980384686 6.283185307179586
2  73 30 0 4.712388980384686 6.283185307179586
0

0101000
+74 0 -94 0 *
Wi

0101100
+73 0 -93 0 -72 0 +72 5 *
Fa
0  0.000000100000002 18 0

0111000
+71 0 *
Ve
0.001000000000000
-11.100000000000000 -8.000000000000000 -0.300000000000002
0 0

0101101
*
Ed
 0.001000000000000 1 1 0
2  74 31 0 0.400000000000000 22.600000000000001
1  28 0 0.400000000000000 22.600000000000001
2  75 23 0 0.400000000000000 22.600000000000001
0

0101000
+69 0 -89 0 *
Ed
 0.000000100000002 1 1 0
1  29 0 0.000000000000000 1.000000000000000
4 C0 20 0 23 0
2  76 23 0 0.000000000000000 1.000000000000000
2  77 20 0 0.000000000000000 1.000000000000000
2  78 30 0 0.000000000000000 1.000000000000000
0

0101000
+94 0 -69 0 *
Wi

0101100
+92 0 +87 0 -68 0 -67 0 *
Fa
0  0.000000100000000 23 0

0111000
+66 0 *
Ve
0.001000000000000
-11.100000000000000 -108.000000000000000 -0.300000000000024
0 0

0101101
*
Ed
 0.000000100000000 1 1 0
1  30 0 0.000000000000000 1.000000000000000
4 C0 22 0 20 0
2  79 22 0 0.000000000000000 1.000000000000000
2  80 20 0 0.000000000000000 1.000000000000000
2  81 29 0 0.000000000000000 1.000000000000000
0

0101000
+94 5 -64 0 *
Ed
 0.001000000000000 1 1 0
2  82 31 0 0.400000000000000 22.600000000000001
1  31 0 0.400000000000000 22.600000000000001
2  83 22 0 0.400000000000000 22.600000000000001
0

0101000
+64 0 -84 0 *
Wi

0101100
-92 5 +63 0 +62 0 -83 0 *
Fa
0  0.000000100000000 22 0

0111000
+61 0 *
Ed
 0.001000000000000 1 1 0
2  15 24 0 0.000000000000000 100.000000000000000
1  32 0 0.000000000000000 100.000000000000000
2  84 12 0 0.000000000000000 100.000000000000000
0

0101000
+89 0 -84 0 *
Wi

0101100
+59 0 -79 0 -88 0 +82 0 *
Fa
0  0.000000100000000 24 0

0111000
+58 0 *
Ve
0.001000000000000
-11.500000000000000 -7.999999999999984 -72.000000000000000
0 0

0101101
*
Ed
 0.001000000000000 1 1 0
1  33 0 0.000000000000000 100.000000000000000
2  85 25 0 0.000000000000000 100.000000000000000
0

0101000
+56 0 -56 5 *
Ed
 0.001000000000000 1 1 0
2  86 32 0 0.000000000000000 71.599999999999994
1  34 0 0.000000000000000 71.599999999999994
2  87 33 6 0.000000000000000 71.599999999999994
2  88 34 0 0.000000000000000 71.599999999999994
2  89 25 0 0.000000000000000 71.599999999999994
2  90 25 6 0.000000000000000 71.599999999999994
0

0101000
+56 0 -74 0 *
Wi

0101100
+55 4 -54 4 +54 7 -73 4 *
Ve
0.001000000000010
-11.500000000000000 -43.300000000000011 -61.999999999999979
0 0

0101101
*
Ed
 0.001000000000000 1 1 0
1  35 0 0.000000000000000 6.283185307179586
2  91 25 4 0.000000000000000 6.283185307179586
2  92 8 0 0.000000000000000 6.283185307179586
0

0101100
+52 0 -52 0 *
Wi

0101100
+51 0 *
Ve
0.001000000000014
-11.500000000000000 -13.300000000000006 -61.999999999999986
0 0

0101101
*
Ed
 0.001000000000000 1 1 0
1  36 0 0.000000000000000 6.283185307179586
2  93 25 4 0.000000000000000 6.283185307179586
2  94 9 0 0.000000000000000 6.283185307179586
0

0101100
+49 0 -49 0 *
Wi

0101100
+48 0 *
Fa
0  0.001000000000000 25 4

0111000
+53 0 +50 0 +47 0 *
Ve
0.001000000000002
-11.199999999999999 -8.000000000000000 -0.400000000000004
0 0

0101101
*
Ed
 0.000000100000002 1 1 0
2  70 35 0 4.712388980384686 6.283185307179586
1  37 0 4.712388980384686 6.283185307179586
2  95 30 0 4.712388980384686 6.283185307179586
0

0101000
+45 0 -69 0 *
Ed
 0.000000100000004 1 1 0
1  38 0 0.000000000000000 1.000000000000000
2  96 30 0 0.000000000000000 1.000000000000000
4 C0 27 0 30 0
2  97 27 0 0.000000000000000 1.000000000000000
0

0101000
+74 0 -45 0 *
Wi

0101100
+72 0 +67 0 -44 0 -43 0 *
Fa
0  0.000000100000000 30 0

0111000
+42 0 *
Ve
0.001000000000005
-11.199999999999999 -108.000000000000000 -0.400000000000029
0 0

0101101
*
Ed
 0.000000100000009 1 1 0
1  39 0 0.000000000000000 1.000000000000000
2  98 29 0 0.000000000000000 1.000000000000000
4 C0 29 0 27 0
2  99 27 0 0.000000000000000 1.000000000000000
0

0101000
+74 5 -40 0 *
Ed
 0.000000100000002 1 1 0
2  71 35 0 4.712388980384686 6.283185307179586
1  40 0 4.712388980384686 6.283185307179586
2  100 29 0 4.712388980384686 6.283185307179586
0

0101000
+40 0 -64 0 *
Wi

0101100
-72 5 +39 0 +38 0 -63 0 *
Fa
0  0.000000100000000 29 0

0111000
+37 0 *
Ed
 0.001000000000000 1 1 0
2  101 31 0 0.000000000000000 100.000000000000000
1  41 0 0.000000000000000 100.000000000000000
2  102 20 0 0.000000000000000 100.000000000000000
2  103 35 0 0.000000000000000 100.000000000000000
0

0101000
+69 0 -64 0 *
Wi

0101100
+35 0 -59 0 -68 0 +62 0 *
Fa
0  0.001000000000000 31 0

0111000
+34 0 *
Ve
0.001000000000000
-11.199999999999999 -7.999999999999984 -72.000000000000000
0 0

0101101
*
Ed
 0.000000100000000 1 1 0
1  42 0 0.000000000000000 1.000000000000000
4 C0 36 0 34 0
2  104 34 0 0.000000000000000 1.000000000000000
2  105 36 0 0.000000000000000 1.000000000000000
0

0101000
+56 0 -32 0 *
Ve
0.001000000000000
-11.199999999999999 -107.999999999999986 -72.000000000000028
0 0

0101101
*
Ed
 0.001000000000000 1 1 0
2  106 37 0 0.000000000000000 100.000000000000000
1  43 0 0.000000000000000 100.000000000000000
0

0101000
+32 0 -30 0 *
Ed
 0.000000100000000 1 1 0
1  44 0 0.000000000000000 1.000000000000000
4 C0 33 0 36 0
2  107 33 0 0.000000000000000 1.000000000000000
2  108 36 0 0.000000000000000 1.000000000000000
0

0101000
+56 5 -30 0 *
Wi

0101000
-55 0 +31 0 +29 0 -28 0 *
Fa
0  0.000000100000000 36 0

0111000
+27 0 *
Ed
 0.001000000000000 1 1 0
2  109 37 0 0.000000000000000 71.599999999999994
1  45 0 0.000000000000000 71.599999999999994
2  110 34 0 0.000000000000000 71.599999999999994
0

0101000
+32 0 -45 0 *
Wi

0101100
+54 0 +43 0 -25 0 -31 0 *
Fa
0  0.000000100000000 34 0

0111000
+24 0 *
Ed
 0.001000000000000 1 1 0
2  111 37 0 0.000000000000000 71.599999999999994
1  46 0 0.000000000000000 71.599999999999994
2  112 33 0 0.000000000000000 71.599999999999994
0

0101000
+30 0 -40 0 *
Wi

0101100
-54 5 +28 0 +22 0 -39 0 *
Fa
0  0.000000100000000 33 0

0111000
+21 0 *
Ve
0.001000000000010
-11.199999999999989 -43.300000000000011 -61.999999999999979
0 0

0101101
*
Ed
 0.001000000000000 1 1 0
1  47 0 0.000000000000000 6.283185307179586
2  113 37 4 0.000000000000000 6.283185307179586
2  114 8 0 0.000000000000000 6.283185307179586
0

0101100
+19 0 -19 0 *
Ed
 0.000000100000000 1 1 0
1  15 0 137.805020832511758 138.105020832511769
3  39 40CN 8 0 137.805020832511758 138.105020832511769
0

0101000
+19 0 -52 0 *
Wi

0101100
-18 0 -17 0 +51 0 +17 0 *
Fa
0  0.000000100000000 8 0

0111000
+16 0 *
Ve
0.001000000000014
-11.199999999999989 -13.300000000000006 -61.999999999999986
0 0

0101101
*
Ed
 0.001000000000000 1 1 0
1  48 0 0.000000000000000 6.283185307179586
2  115 37 4 0.000000000000000 6.283185307179586
2  116 9 0 0.000000000000000 6.283185307179586
0

0101100
+14 0 -14 0 *
Ed
 0.000000100000000 1 1 0
1  17 0 137.805020832511758 138.105020832511769
3  43 44CN 9 0 137.805020832511758 138.105020832511769
0

0101000
+14 0 -49 0 *
Wi

0101100
-13 0 -12 0 +48 0 +12 0 *
Fa
0  0.000000100000000 9 0

0111000
+11 0 *
Ed
 0.001000000000000 1 1 0
2  65 35 0 0.000000000000000 100.000000000000000
1  49 0 0.000000000000000 100.000000000000000
2  117 27 0 0.000000000000000 100.000000000000000
2  118 37 0 0.000000000000000 100.000000000000000
0

0101000
+45 0 -40 0 *
Wi

0101100
+9 0 -35 0 -44 0 +38 0 *
Fa
0  0.000000100000002 35 0

0111000
+8 0 *
Wi

0101100
+29 4 -25 4 +22 4 -9 4 *
Wi

0101100
+18 0 *
Wi

0101100
+13 0 *
Fa
0  0.001000000000000 37 4

0111000
+6 0 +5 0 +4 0 *
Sh

0101100
+127 0 +122 4 +115 4 +108 4 +105 4 -100 0 -95 0 +90 4 +85 4 +80 4 
-75 0 +70 4 +65 4 +60 4 -57 4 +46 0 +41 4 +36 4 -33 4 +26 4 
+23 4 +20 4 -15 0 -10 0 -7 4 -3 0 *
So

0100000
+2 0 *

+1 1 