
CASCADE Topology V1, (c) Matra-Datavision
Locations 47
1
1.000000000000000 0.000000000000000 0.000000000000000 0.000000000000000 
0.000000000000000 1.000000000000000 0.000000000000000 0.000000000000000 
0.000000000000000 0.000000000000000 1.000000000000000 0.000000000000000 
1
1.000000000000000 0.000000000000000 0.000000000000000 0.000000000000000 
0.000000000000000 -0.000000000000000 -1.000000000000000 0.000000000000000 
0.000000000000000 1.000000000000000 -0.000000000000000 0.000000000000000 
1
1.000000000000000 0.000000000000000 0.000000000000000 0.000000000000000 
0.000000000000000 1.000000000000000 0.000000000000000 0.000000000000000 
0.000000000000000 0.000000000000000 1.000000000000000 0.000000000000000 
2  1 1 2 1 3 -1 0
1
1.000000000000000 0.000000000000000 0.000000000000000 0.000000000000000 
0.000000000000000 1.000000000000000 0.000000000000000 167.793802031018913 
0.000000000000000 0.000000000000000 1.000000000000000 0.000000000000037 
2  1 1 2 1 3 -1 5 1 0
1
1.000000000000000 0.000000000000000 0.000000000000000 0.000000000000000 
0.000000000000000 0.000000000000000 -1.000000000000000 0.000000000000000 
0.000000000000000 1.000000000000000 0.000000000000000 0.000000000000000 
1
1.000000000000000 0.000000000000000 0.000000000000000 0.000000000000000 
0.000000000000000 1.000000000000000 0.000000000000000 0.000000000000000 
0.000000000000000 0.000000000000000 1.000000000000000 0.000000000000000 
2  7 -1 8 -1 0
1
1.000000000000000 0.000000000000000 0.000000000000000 0.000000000000000 
0.000000000000000 0.000000000000000 -1.000000000000000 0.000000000000000 
0.000000000000000 1.000000000000000 0.000000000000000 0.000000000000000 
1
1.000000000000000 0.000000000000000 0.000000000000000 0.000000000000000 
0.000000000000000 1.000000000000000 0.000000000000000 0.000000000000000 
0.000000000000000 0.000000000000000 1.000000000000000 0.000000000000000 
2  10 -1 11 -1 0
1
1.000000000000000 0.000000000000000 0.000000000000000 0.000000000000000 
0.000000000000000 -0.000000000000000 -1.000000000000000 0.000000000000000 
0.000000000000000 1.000000000000000 -0.000000000000000 0.000000000000000 
1
1.000000000000000 0.000000000000000 0.000000000000000 0.000000000000000 
0.000000000000000 1.000000000000000 0.000000000000000 0.000000000000000 
0.000000000000000 0.000000000000000 1.000000000000000 0.000000000000000 
2  13 -1 14 -1 0
1
1.000000000000000 0.000000000000000 0.000000000000000 0.000000000000000 
0.000000000000000 -0.000000000000000 -1.000000000000000 0.000000000000000 
0.000000000000000 1.000000000000000 -0.000000000000000 0.000000000000000 
1
1.000000000000000 0.000000000000000 0.000000000000000 0.000000000000000 
0.000000000000000 1.000000000000000 0.000000000000000 0.000000000000000 
0.000000000000000 0.000000000000000 1.000000000000000 0.000000000000000 
2  16 -1 17 -1 0
1
1.000000000000000 0.000000000000000 0.000000000000000 0.000000000000000 
0.000000000000000 -0.000000000000000 -1.000000000000000 0.000000000000000 
0.000000000000000 1.000000000000000 -0.000000000000000 0.000000000000000 
1
1.000000000000000 0.000000000000000 0.000000000000000 0.000000000000000 
0.000000000000000 1.000000000000000 0.000000000000000 0.000000000000000 
0.000000000000000 0.000000000000000 1.000000000000000 0.000000000000000 
2  19 -1 20 -1 0
2  2 -1 1 -1 0
1
1.000000000000000 0.000000000000000 0.000000000000000 0.000000000000000 
0.000000000000000 1.000000000000000 0.000000000000000 0.000000000000000 
0.000000000000000 0.000000000000000 1.000000000000000 0.000000000000000 
2  23 1 7 -1 8 -1 0
1
1.000000000000000 0.000000000000000 0.000000000000000 0.000000000000000 
0.000000000000000 1.000000000000000 0.000000000000000 151.162958425739589 
0.000000000000000 0.000000000000000 1.000000000000000 -0.000000000000034 
2  25 -1 23 1 7 -1 8 -1 0
1
1.000000000000000 0.000000000000000 0.000000000000000 0.000000000000000 
0.000000000000000 1.000000000000000 0.000000000000000 0.000000000000000 
0.000000000000000 0.000000000000000 1.000000000000000 0.000000000000000 
2  27 1 10 -1 11 -1 0
1
1.000000000000000 0.000000000000000 0.000000000000000 0.000000000000000 
0.000000000000000 1.000000000000000 0.000000000000000 167.793802031018942 
0.000000000000000 0.000000000000000 1.000000000000000 -0.000000000000037 
2  29 -1 27 1 10 -1 11 -1 0
1
1.000000000000000 0.000000000000000 0.000000000000000 0.000000000000000 
0.000000000000000 1.000000000000000 0.000000000000000 0.000000000000000 
0.000000000000000 0.000000000000000 1.000000000000000 0.000000000000000 
2  31 1 13 -1 14 -1 0
1
1.000000000000000 0.000000000000000 0.000000000000000 0.000000000000000 
0.000000000000000 1.000000000000000 0.000000000000000 167.793802031018913 
0.000000000000000 0.000000000000000 1.000000000000000 0.000000000000037 
2  33 -1 31 1 13 -1 14 -1 0
1
1.000000000000000 0.000000000000000 0.000000000000000 0.000000000000000 
0.000000000000000 1.000000000000000 0.000000000000000 0.000000000000000 
0.000000000000000 0.000000000000000 1.000000000000000 0.000000000000000 
2  35 1 16 -1 17 -1 0
1
1.000000000000000 0.000000000000000 0.000000000000000 0.000000000000000 
0.000000000000000 1.000000000000000 0.000000000000000 167.793802031018913 
0.000000000000000 0.000000000000000 1.000000000000000 0.000000000000037 
2  37 -1 35 1 16 -1 17 -1 0
1
1.000000000000000 0.000000000000000 0.000000000000000 0.000000000000000 
0.000000000000000 1.000000000000000 0.000000000000000 0.000000000000000 
0.000000000000000 0.000000000000000 1.000000000000000 0.000000000000000 
2  39 1 19 -1 20 -1 0
1
1.000000000000000 0.000000000000000 0.000000000000000 0.000000000000000 
0.000000000000000 1.000000000000000 0.000000000000000 167.793802031018913 
0.000000000000000 0.000000000000000 1.000000000000000 0.000000000000037 
2  41 -1 39 1 19 -1 20 -1 0
2  3 1 2 -1 1 -1 0
2  5 -1 3 1 2 -1 1 -1 0
2  3 -1 0
2  1 1 2 1 0
2  3 -1 5 1 0
Curve2ds 52
1 40.00000000000397904 0.00000000000000000 0.00000000000000000 -1.00000000000000000 
1 0.00000000000000000 0.00000000000000000 0.00000000000000000 -1.00000000000000000 
1 1.49999999999999978 -20.00000000000198952 -1.00000000000000000 0.00000000000000000 
1 1.49999999999999978 -20.00000000000198952 -1.00000000000000000 0.00000000000000000 
1 1.49999999999999978 -20.00000000000198952 -1.00000000000000000 0.00000000000000000 
1 1.49999999999999978 -20.00000000000198952 -1.00000000000000000 0.00000000000000000 
1 1.49999999999999978 -20.00000000000198952 -1.00000000000000000 0.00000000000000000 
1 1.49999999999999978 -20.00000000000198952 -1.00000000000000000 0.00000000000000000 
1 40.00000000000397904 0.00000000000000000 0.00000000000000000 -1.00000000000000000 
1 -1.50000000000000022 -20.00000000000198952 0.00000000000000000 1.00000000000000000 
1 0.00000000000000000 0.00000000000000000 1.00000000000000000 0.00000000000000000 
1 0.00000000000000000 -151.16295842573958907 1.00000000000000000 0.00000000000000000 
1 -1.50000000000000022 -20.00000000000198952 0.00000000000000000 1.00000000000000000 
1 0.00000000000000000 0.00000000000000000 1.00000000000000000 0.00000000000000000 
1 0.00000000000000000 -167.79380203101894153 1.00000000000000000 0.00000000000000000 
1 -1.50000000000000022 -20.00000000000198952 0.00000000000000000 1.00000000000000000 
1 0.00000000000000000 0.00000000000000000 1.00000000000000000 0.00000000000000000 
1 0.00000000000000000 -167.79380203101891311 1.00000000000000000 0.00000000000000000 
1 -1.50000000000000022 -20.00000000000198952 0.00000000000000000 1.00000000000000000 
1 0.00000000000000000 0.00000000000000000 1.00000000000000000 0.00000000000000000 
1 0.00000000000000000 -167.79380203101891311 1.00000000000000000 0.00000000000000000 
1 -1.50000000000000022 -20.00000000000198952 0.00000000000000000 1.00000000000000000 
1 0.00000000000000000 0.00000000000000000 1.00000000000000000 0.00000000000000000 
1 0.00000000000000000 -167.79380203101891311 1.00000000000000000 0.00000000000000000 
1 -1.50000000000000022 -20.00000000000198952 0.00000000000000000 1.00000000000000000 
1 0.00000000000000000 0.00000000000000000 1.00000000000000000 0.00000000000000000 
1 0.00000000000000000 -167.79380203101891311 1.00000000000000000 0.00000000000000000 
1 0.00000000000000000 -0.00000000000000000 0.00000000000000000 -1.00000000000000000 
1 -1.50000000000000022 20.00000000000198952 1.00000000000000000 0.00000000000000000 
1 -1.50000000000000022 20.00000000000198952 1.00000000000000000 0.00000000000000000 
1 -1.50000000000000022 20.00000000000198952 1.00000000000000000 0.00000000000000000 
1 -1.50000000000000022 20.00000000000198952 1.00000000000000000 0.00000000000000000 
1 -1.50000000000000022 20.00000000000198952 1.00000000000000000 0.00000000000000000 
1 -1.50000000000000022 20.00000000000198952 1.00000000000000000 0.00000000000000000 
1 0.00000000000000000 0.00000000000000000 1.00000000000000000 0.00000000000000000 
1 0.00000000000000000 -151.16295842573958907 1.00000000000000000 0.00000000000000000 
1 1.49999999999999978 20.00000000000198952 0.00000000000000000 -1.00000000000000000 
1 0.00000000000000000 0.00000000000000000 1.00000000000000000 0.00000000000000000 
1 0.00000000000000000 -167.79380203101894153 1.00000000000000000 0.00000000000000000 
1 1.49999999999999978 20.00000000000198952 0.00000000000000000 -1.00000000000000000 
1 0.00000000000000000 -0.00000000000000000 1.00000000000000000 0.00000000000000000 
1 0.00000000000000000 -167.79380203101891311 1.00000000000000000 0.00000000000000000 
1 1.49999999999999978 20.00000000000198952 0.00000000000000000 -1.00000000000000000 
1 0.00000000000000000 -0.00000000000000000 1.00000000000000000 0.00000000000000000 
1 0.00000000000000000 -167.79380203101891311 1.00000000000000000 0.00000000000000000 
1 1.49999999999999978 20.00000000000198952 0.00000000000000000 -1.00000000000000000 
1 0.00000000000000000 -0.00000000000000000 1.00000000000000000 0.00000000000000000 
1 0.00000000000000000 -167.79380203101891311 1.00000000000000000 0.00000000000000000 
1 1.49999999999999978 20.00000000000198952 0.00000000000000000 -1.00000000000000000 
1 0.00000000000000000 -0.00000000000000000 1.00000000000000000 0.00000000000000000 
1 0.00000000000000000 -167.79380203101891311 1.00000000000000000 0.00000000000000000 
1 1.49999999999999978 20.00000000000198952 0.00000000000000000 -1.00000000000000000 
Curves 8
1 -20.00000000000339639 -0.00000000000000067 3.00000000000000622 0.00000000000000000 1.00000000000000000 0.00000000000000022 
1 -20.00000000000339639 -0.00000000000000000 0.00000000000000600 0.00000000000000000 1.00000000000000000 0.00000000000000022 
1 -20.00000000000339639 3.00000000000000577 0.00000000000000000 0.00000000000000000 -1.00000000000000000 0.00000000000000000 
1 20.00000000000058265 -0.00000000000000000 0.00000000000000600 0.00000000000000000 1.00000000000000000 0.00000000000000022 
1 -20.00000000000339639 0.00000000000000577 0.00000000000000000 1.00000000000000000 0.00000000000000000 0.00000000000000000 
1 20.00000000000058265 -0.00000000000000067 3.00000000000000622 0.00000000000000000 1.00000000000000000 0.00000000000000022 
1 20.00000000000058265 0.00000000000000577 0.00000000000000000 0.00000000000000000 1.00000000000000000 0.00000000000000000 
1 20.00000000000058265 3.00000000000000577 0.00000000000000000 -1.00000000000000000 0.00000000000000000 0.00000000000000000 
Polygon3D 0
PolygonOnTriangulations 0
Surfaces 20
1 -20.00000000000339639 -0.00000000000000067 3.00000000000000577 -1.00000000000000000 0.00000000000000000 0.00000000000000000 0.00000000000000000 0.00000000000000022 -1.00000000000000000 -0.00000000000000000 -1.00000000000000000 -0.00000000000000022 
1 20.00000000000058265 -0.00000000000000067 3.00000000000000577 0.00000000000000000 -0.00000000000000022 1.00000000000000000 -1.00000000000000000 0.00000000000000000 0.00000000000000000 -0.00000000000000000 -1.00000000000000000 -0.00000000000000022 
1 -20.00000000000339639 -0.00000000000000000 0.00000000000000577 0.00000000000000000 0.00000000000000022 -1.00000000000000000 1.00000000000000000 0.00000000000000000 0.00000000000000000 0.00000000000000000 -1.00000000000000000 -0.00000000000000022 
1 -0.00000000000140654 0.00000000000000033 1.50000000000000600 0.00000000000000000 1.00000000000000000 -0.00000000000000022 0.00000000000000000 0.00000000000000022 1.00000000000000000 1.00000000000000000 -0.00000000000000000 0.00000000000000000 
1 -0.00000000000140654 0.00000000000000033 1.50000000000000600 0.00000000000000000 1.00000000000000000 -0.00000000000000022 0.00000000000000000 0.00000000000000022 1.00000000000000000 1.00000000000000000 -0.00000000000000000 0.00000000000000000 
1 -0.00000000000140654 -0.00000000000000033 1.50000000000000600 0.00000000000000000 1.00000000000000000 0.00000000000000022 0.00000000000000000 -0.00000000000000022 1.00000000000000000 1.00000000000000000 0.00000000000000000 -0.00000000000000000 
1 -0.00000000000140654 -0.00000000000000033 1.50000000000000600 0.00000000000000000 1.00000000000000000 0.00000000000000022 0.00000000000000000 -0.00000000000000022 1.00000000000000000 1.00000000000000000 0.00000000000000000 -0.00000000000000000 
1 -0.00000000000140654 -0.00000000000000033 1.50000000000000600 0.00000000000000000 1.00000000000000000 0.00000000000000022 0.00000000000000000 -0.00000000000000022 1.00000000000000000 1.00000000000000000 0.00000000000000000 -0.00000000000000000 
1 -0.00000000000140654 -0.00000000000000033 1.50000000000000600 0.00000000000000000 1.00000000000000000 0.00000000000000022 0.00000000000000000 -0.00000000000000022 1.00000000000000000 1.00000000000000000 0.00000000000000000 -0.00000000000000000 
1 -20.00000000000339639 0.00000000000000000 0.00000000000000577 0.00000000000000000 -0.00000000000000022 -1.00000000000000000 1.00000000000000000 0.00000000000000000 0.00000000000000000 0.00000000000000000 -1.00000000000000000 0.00000000000000022 
1 -20.00000000000339639 0.00000000000000000 0.00000000000000577 0.00000000000000000 -0.00000000000000022 -1.00000000000000000 1.00000000000000000 0.00000000000000000 0.00000000000000000 0.00000000000000000 -1.00000000000000000 0.00000000000000022 
1 -20.00000000000339639 -0.00000000000000000 0.00000000000000577 0.00000000000000000 0.00000000000000022 -1.00000000000000000 1.00000000000000000 0.00000000000000000 0.00000000000000000 0.00000000000000000 -1.00000000000000000 -0.00000000000000022 
1 -20.00000000000339639 -0.00000000000000000 0.00000000000000577 0.00000000000000000 0.00000000000000022 -1.00000000000000000 1.00000000000000000 0.00000000000000000 0.00000000000000000 0.00000000000000000 -1.00000000000000000 -0.00000000000000022 
1 -20.00000000000339639 -0.00000000000000000 0.00000000000000577 0.00000000000000000 0.00000000000000022 -1.00000000000000000 1.00000000000000000 0.00000000000000000 0.00000000000000000 0.00000000000000000 -1.00000000000000000 -0.00000000000000022 
1 20.00000000000058265 -0.00000000000000000 0.00000000000000577 1.00000000000000000 0.00000000000000000 -0.00000000000000000 0.00000000000000000 -0.00000000000000022 1.00000000000000000 0.00000000000000000 -1.00000000000000000 -0.00000000000000022 
1 20.00000000000058265 0.00000000000000067 3.00000000000000577 0.00000000000000000 0.00000000000000022 1.00000000000000000 -1.00000000000000000 0.00000000000000000 0.00000000000000000 0.00000000000000000 -1.00000000000000000 0.00000000000000022 
1 20.00000000000058265 0.00000000000000067 3.00000000000000577 0.00000000000000000 0.00000000000000022 1.00000000000000000 -1.00000000000000000 0.00000000000000000 0.00000000000000000 0.00000000000000000 -1.00000000000000000 0.00000000000000022 
1 20.00000000000058265 -0.00000000000000067 3.00000000000000577 0.00000000000000000 -0.00000000000000022 1.00000000000000000 -1.00000000000000000 0.00000000000000000 0.00000000000000000 -0.00000000000000000 -1.00000000000000000 -0.00000000000000022 
1 20.00000000000058265 -0.00000000000000067 3.00000000000000577 0.00000000000000000 -0.00000000000000022 1.00000000000000000 -1.00000000000000000 0.00000000000000000 0.00000000000000000 -0.00000000000000000 -1.00000000000000000 -0.00000000000000022 
1 20.00000000000058265 -0.00000000000000067 3.00000000000000577 0.00000000000000000 -0.00000000000000022 1.00000000000000000 -1.00000000000000000 0.00000000000000000 0.00000000000000000 -0.00000000000000000 -1.00000000000000000 -0.00000000000000022 
Triangulations 0

TShapes 24
Ve
0.000000100000000
-20.000000000003396 3.000000000000006 0.000000000000000
0 0

0101101
*
Ed
 0.000000100000000 1 1 0
1  1 0 0.000000000000000 167.793802031018913
2  1 2 0 0.000000000000000 167.793802031018913
0

0101000
+24 4 -24 6 *
Ve
0.000000100000000
-20.000000000003396 0.000000000000006 0.000000000000000
0 0

0101101
*
Ed
 0.000000100000000 1 1 0
1  2 0 0.000000000000000 167.793802031018913
2  2 3 0 0.000000000000000 167.793802031018913
0

0101000
+22 4 -22 6 *
Ed
 0.000000100000000 1 1 0
1  3 0 0.000000000000000 3.000000000000000
2  3 4 9 0.000000000000000 3.000000000000000
2  4 5 12 0.000000000000000 3.000000000000000
2  5 6 15 0.000000000000000 3.000000000000000
2  6 7 18 0.000000000000000 3.000000000000000
2  7 8 21 0.000000000000000 3.000000000000000
2  8 9 22 0.000000000000000 3.000000000000000
0

0101000
+24 0 -22 0 *
Wi

0101100
+23 0 -21 0 -20 4 +20 6 *
Fa
0  0.000000100000000 1 0

0111000
+19 0 *
Ve
0.000000100000000
20.000000000000583 0.000000000000006 0.000000000000000
0 0

0101101
*
Ed
 0.000000100000000 1 1 0
1  4 0 0.000000000000000 167.793802031018913
2  9 3 0 0.000000000000000 167.793802031018913
0

0101000
+17 4 -17 6 *
Ed
 0.000000100000000 1 1 0
1  5 0 0.000000000000000 40.000000000003979
2  10 4 9 0.000000000000000 40.000000000003979
2  11 10 24 0.000000000000000 40.000000000003979
2  12 10 26 0.000000000000000 40.000000000003979
2  13 5 12 0.000000000000000 40.000000000003979
2  14 11 28 0.000000000000000 40.000000000003979
2  15 11 30 0.000000000000000 40.000000000003979
2  16 6 15 0.000000000000000 40.000000000003979
2  17 12 32 0.000000000000000 40.000000000003979
2  18 12 34 0.000000000000000 40.000000000003979
2  19 7 18 0.000000000000000 40.000000000003979
2  20 13 36 0.000000000000000 40.000000000003979
2  21 13 38 0.000000000000000 40.000000000003979
2  22 8 21 0.000000000000000 40.000000000003979
2  23 14 40 0.000000000000000 40.000000000003979
2  24 14 42 0.000000000000000 40.000000000003979
2  25 9 22 0.000000000000000 40.000000000003979
2  26 3 43 0.000000000000000 40.000000000003979
2  27 3 44 0.000000000000000 40.000000000003979
0

0101000
+22 0 -17 0 *
Wi

0101100
+21 0 -16 0 -15 4 +15 6 *
Fa
0  0.000000100000000 3 0

0111000
+14 0 *
Ve
0.000000100000000
20.000000000000583 3.000000000000006 0.000000000000000
0 0

0101101
*
Ed
 0.000000100000000 1 1 0
1  6 0 0.000000000000000 167.793802031018913
2  28 2 0 0.000000000000000 167.793802031018913
0

0101000
+12 4 -12 6 *
Ed
 0.000000100000000 1 1 0
1  7 0 0.000000000000000 3.000000000000000
2  29 4 9 0.000000000000000 3.000000000000000
2  30 5 12 0.000000000000000 3.000000000000000
2  31 6 15 0.000000000000000 3.000000000000000
2  32 7 18 0.000000000000000 3.000000000000000
2  33 8 21 0.000000000000000 3.000000000000000
2  34 9 22 0.000000000000000 3.000000000000000
0

0101000
+17 0 -12 0 *
Wi

0101100
+16 0 -11 0 -10 4 +10 6 *
Fa
0  0.000000100000000 15 0

0111000
+9 0 *
Ed
 0.000000100000000 1 1 0
1  8 0 0.000000000000000 40.000000000003979
2  35 16 24 0.000000000000000 40.000000000003979
2  36 16 26 0.000000000000000 40.000000000003979
2  37 4 9 0.000000000000000 40.000000000003979
2  38 17 28 0.000000000000000 40.000000000003979
2  39 17 30 0.000000000000000 40.000000000003979
2  40 5 12 0.000000000000000 40.000000000003979
2  41 18 32 0.000000000000000 40.000000000003979
2  42 18 34 0.000000000000000 40.000000000003979
2  43 6 15 0.000000000000000 40.000000000003979
2  44 19 36 0.000000000000000 40.000000000003979
2  45 19 38 0.000000000000000 40.000000000003979
2  46 7 18 0.000000000000000 40.000000000003979
2  47 20 40 0.000000000000000 40.000000000003979
2  48 20 42 0.000000000000000 40.000000000003979
2  49 8 21 0.000000000000000 40.000000000003979
2  50 2 43 0.000000000000000 40.000000000003979
2  51 2 44 0.000000000000000 40.000000000003979
2  52 9 22 0.000000000000000 40.000000000003979
0

0101000
+12 0 -24 0 *
Wi

0101100
+11 0 -23 0 -7 4 +7 6 *
Fa
0  0.000000100000000 2 0

0111000
+6 0 *
Wi

0101100
+20 0 +15 0 +10 0 +7 0 *
Fa
0  0.000000100000000 9 0

0111000
-4 46 *
Sh

0101100
-18 0 -13 0 -8 0 -5 0 +3 45 -3 47 *
So

1100000
-2 0 *

+1 0 