
CASCADE Topology V1, (c) Matra-Datavision
Locations 34
1
1.000000000000000 0.000000000000000 0.000000000000000 0.000000000000000 
0.000000000000000 1.000000000000000 0.000000000000000 0.000000000000000 
0.000000000000000 0.000000000000000 1.000000000000000 0.000000000000000 
1
1.000000000000000 0.000000000000000 0.000000000000000 0.000000000000000 
0.000000000000000 1.000000000000000 0.000000000000000 0.000000000000000 
0.000000000000000 0.000000000000000 1.000000000000000 0.000000000000000 
1
1.000000000000000 0.000000000000000 0.000000000000000 0.000000000000000 
0.000000000000000 1.000000000000000 0.000000000000000 0.000000000000000 
0.000000000000000 0.000000000000000 1.000000000000000 0.000000000000000 
2  2 1 3 -1 0
1
1.000000000000000 0.000000000000000 0.000000000000000 0.000000000000000 
0.000000000000000 1.000000000000000 0.000000000000000 0.000000000000000 
0.000000000000000 0.000000000000000 1.000000000000000 0.000000000000000 
1
1.000000000000000 0.000000000000000 0.000000000000000 0.000000000000000 
0.000000000000000 1.000000000000000 0.000000000000000 0.000000000000000 
0.000000000000000 0.000000000000000 1.000000000000000 0.000000000000000 
1
1.000000000000000 0.000000000000000 0.000000000000000 0.000000000000000 
0.000000000000000 1.000000000000000 0.000000000000000 0.000000000000000 
0.000000000000000 0.000000000000000 1.000000000000000 0.000000000000000 
1
1.000000000000000 0.000000000000000 0.000000000000000 0.000000000000000 
0.000000000000000 1.000000000000000 0.000000000000000 0.000000000000000 
0.000000000000000 0.000000000000000 1.000000000000000 0.000000000000000 
1
1.000000000000000 0.000000000000000 0.000000000000000 0.000000000000000 
0.000000000000000 1.000000000000000 0.000000000000000 0.000000000000000 
0.000000000000000 0.000000000000000 1.000000000000000 0.000000000000000 
1
1.000000000000000 0.000000000000000 0.000000000000000 0.000000000000000 
0.000000000000000 1.000000000000000 0.000000000000000 0.000000000000000 
0.000000000000000 0.000000000000000 1.000000000000000 0.000000000000000 
2  5 1 6 1 7 1 8 1 9 1 10 -1 0
1
1.000000000000000 0.000000000000000 0.000000000000000 0.000000000000000 
0.000000000000000 1.000000000000000 0.000000000000000 0.000000000000000 
0.000000000000000 0.000000000000000 1.000000000000000 3.000000000000000 
2  5 1 6 1 7 1 8 1 9 1 10 -1 12 1 0
2  10 1 9 -1 8 -1 7 -1 6 -1 5 -1 0
2  12 -1 10 1 9 -1 8 -1 7 -1 6 -1 5 -1 0
2  7 -1 6 -1 5 -1 0
1
1.000000000000000 0.000000000000000 0.000000000000000 0.000000000000000 
0.000000000000000 1.000000000000000 0.000000000000000 0.000000000000000 
0.000000000000000 0.000000000000000 1.000000000000000 0.000000000000000 
1
1.000000000000000 0.000000000000000 0.000000000000000 0.000000000000000 
0.000000000000000 1.000000000000000 0.000000000000000 0.000000000000000 
0.000000000000000 0.000000000000000 1.000000000000000 0.000000000000000 
2  17 1 18 1 7 1 8 1 9 1 10 -1 12 1 0
2  10 1 9 -1 8 -1 7 -1 18 -1 17 -1 0
2  12 -1 10 1 9 -1 8 -1 7 -1 18 -1 17 -1 0
2  7 -1 18 -1 17 -1 0
1
1.000000000000000 0.000000000000000 0.000000000000000 0.000000000000000 
0.000000000000000 1.000000000000000 0.000000000000000 0.000000000000000 
0.000000000000000 0.000000000000000 1.000000000000000 0.000000000000000 
2  23 -1 0
2  5 1 6 1 18 -1 17 -1 0
2  23 -1 17 1 18 1 7 1 8 1 9 1 10 -1 0
2  23 -1 17 1 18 1 7 1 8 1 9 1 10 -1 12 1 0
2  17 1 18 1 7 1 8 1 9 1 10 -1 0
2  8 1 9 1 10 -1 2 1 3 -1 0
2  5 1 6 1 7 1 8 1 9 1 10 -1 2 1 3 -1 0
2  17 1 18 1 7 1 8 1 9 1 10 -1 2 1 3 -1 0
2  8 1 9 1 10 -1 12 1 2 1 3 -1 0
2  5 1 6 1 7 1 8 1 9 1 10 -1 12 1 2 1 3 -1 0
2  17 1 18 1 7 1 8 1 9 1 10 -1 12 1 2 1 3 -1 0
Curve2ds 88
1 0.98887274094562605 0.00000000000000000 0.00000000000000000 -1.00000000000000000 
1 4.13046539453539285 0.00000000000000000 0.00000000000000000 -1.00000000000000000 
1 1.26270247728702500 0.00000000000000000 0.00000000000000000 -1.00000000000000000 
1 1.26270247728702500 0.00000000000000000 0.00000000000000000 -1.00000000000000000 
1 0.00000000000000000 0.00000000000000000 1.00000000000000000 0.00000000000000000 
1 0.00000000000000000 -3.00000000000000000 1.00000000000000000 0.00000000000000000 
2 222.77092133968457688 -144.36029930601193882 1.00000000000000000 0.00000000000000000 -0.00000000000000000 1.00000000000000000 121.23414659100242829
1 5.24799983371013656 0.00000000000000000 0.00000000000000000 -1.00000000000000000 
1 0.00000000000000000 0.00000000000000000 1.00000000000000000 0.00000000000000000 
1 0.00000000000000000 -3.00000000000000000 1.00000000000000000 0.00000000000000000 
2 289.81730321384384297 -42.45389765665746040 1.00000000000000000 0.00000000000000000 -0.00000000000000000 1.00000000000000000 0.75000000000000000
1 0.00000000000000000 0.00000000000000000 1.00000000000000000 0.00000000000000000 
1 0.00000000000000000 -3.00000000000000000 1.00000000000000000 0.00000000000000000 
1 3.14159265358980289 0.00000000000000000 -1.00000000000000000 0.00000000000000000 
1 3.14159265358980289 -3.00000000000000000 -1.00000000000000000 0.00000000000000000 
2 -0.00000000000419170 -844.39797626713266254 -1.00000000000000000 0.00000000000000000 0.00000000000000000 1.00000000000000000 855.86305465251655278
1 1.26270247728702500 0.00000000000000000 0.00000000000000000 -1.00000000000000000 
1 1.26270247728702500 0.00000000000000000 0.00000000000000000 -1.00000000000000000 
1 1.87889017630277766 0.00000000000000000 0.00000000000000000 -1.00000000000000000 
1 0.00000000000000000 0.00000000000000000 1.00000000000000000 0.00000000000000000 
1 0.00000000000000000 -3.00000000000000000 1.00000000000000000 0.00000000000000000 
2 0.00000000000419795 -844.39797626713266254 1.00000000000000000 0.00000000000000000 -0.00000000000000000 1.00000000000000000 855.86305465251655278
1 0.00000000000000000 0.00000000000000000 1.00000000000000000 0.00000000000000000 
1 0.00000000000000000 -3.00000000000000000 1.00000000000000000 0.00000000000000000 
2 -222.77092133968457688 -144.36029930601193882 -1.00000000000000000 0.00000000000000000 0.00000000000000000 1.00000000000000000 121.23414659100242829
1 290.20007804551448771 -43.09886542968143885 0.85995703069865381 0.51036644222749872 
1 0.00000000000000000 0.00000000000000000 1.00000000000000000 0.00000000000000000 
1 0.00000000000000000 -3.00000000000000000 1.00000000000000000 0.00000000000000000 
2 -289.81730321384384297 -42.45389765665746040 -1.00000000000000000 0.00000000000000000 0.00000000000000000 1.00000000000000000 0.75000000000000000
1 0.00000000000000000 0.00000000000000000 1.00000000000000000 0.00000000000000000 
1 0.00000000000000000 -3.00000000000000000 1.00000000000000000 0.00000000000000000 
2 293.04372748737631582 -39.08552159344193910 1.00000000000000000 0.00000000000000000 -0.00000000000000000 1.00000000000000000 2.00000000000000000
1 -290.20007804551448771 -43.09886542968143885 -0.85995703069865381 0.51036644222749872 
1 0.00000000000000000 0.00000000000000000 1.00000000000000000 0.00000000000000000 
1 0.00000000000000000 -3.00000000000000000 1.00000000000000000 0.00000000000000000 
2 246.79810519257307533 -68.85702505844159305 1.00000000000000000 0.00000000000000000 -0.00000000000000000 1.00000000000000000 57.00000000000079581
1 0.00000000000000000 0.00000000000000000 1.00000000000000000 0.00000000000000000 
1 0.00000000000000000 -3.00000000000000000 1.00000000000000000 0.00000000000000000 
2 -293.04372748737631582 -39.08552159344193910 -1.00000000000000000 0.00000000000000000 0.00000000000000000 1.00000000000000000 2.00000000000000000
1 0.00000000000000000 0.00000000000000000 1.00000000000000000 0.00000000000000000 
1 0.00000000000000000 -3.00000000000000000 1.00000000000000000 0.00000000000000000 
2 0.00000000000419795 -844.39797626713266254 1.00000000000000000 0.00000000000000000 -0.00000000000000000 1.00000000000000000 870.86305465251655278
1 0.00000000000000000 0.00000000000000000 1.00000000000000000 0.00000000000000000 
1 0.00000000000000000 -3.00000000000000000 1.00000000000000000 0.00000000000000000 
2 -246.79810519257307533 -68.85702505844159305 -1.00000000000000000 0.00000000000000000 0.00000000000000000 1.00000000000000000 57.00000000000079581
1 0.00000000000000000 0.00000000000000000 1.00000000000000000 0.00000000000000000 
1 0.00000000000000000 -3.00000000000000000 1.00000000000000000 0.00000000000000000 
1 3.14159265358980244 0.00000000000000000 -1.00000000000000000 -0.00000000000000000 
1 3.14159265358980244 -3.00000000000000000 -1.00000000000000000 0.00000000000000000 
2 -0.00000000000419170 -844.39797626713266254 -1.00000000000000000 0.00000000000000000 0.00000000000000000 1.00000000000000000 870.86305465251655278
2 -261.29373190312395536 -22.22503205817127991 -1.00000000000000000 0.00000000000000000 -0.00000000000000000 -1.00000000000000000 1.69999999999999996
1 6.28318530717958623 -600.10963992070423956 -1.00000000000000000 0.00000000000000000 
2 261.29373190312395536 -22.22503205817127991 1.00000000000000000 0.00000000000000000 -0.00000000000000000 1.00000000000000000 1.69999999999999996
1 0.00000000000000000 -600.10963992070423956 1.00000000000000000 0.00000000000000000 
2 -88.30398697986225898 13.34074668409141395 -1.00000000000000000 0.00000000000000000 -0.00000000000000000 -1.00000000000000000 1.69999999999999996
1 6.28318530717958623 -600.10963992070423956 -1.00000000000000000 0.00000000000000000 
2 88.30398697986225898 13.34074668409141395 1.00000000000000000 0.00000000000000000 -0.00000000000000000 1.00000000000000000 1.69999999999999996
1 0.00000000000000000 -600.10963992070423956 1.00000000000000000 0.00000000000000000 
2 -261.29373190312395536 -22.22503205817127991 -1.00000000000000000 0.00000000000000000 -0.00000000000000000 -1.00000000000000000 1.69999999999999996
1 6.28318530717958623 -597.10963992070423956 -1.00000000000000000 0.00000000000000000 
2 261.29373190312395536 -22.22503205817127991 1.00000000000000000 0.00000000000000000 -0.00000000000000000 1.00000000000000000 1.69999999999999996
1 0.00000000000000000 -597.10963992070423956 1.00000000000000000 0.00000000000000000 
2 -88.30398697986225898 13.34074668409141395 -1.00000000000000000 0.00000000000000000 -0.00000000000000000 -1.00000000000000000 1.69999999999999996
1 6.28318530717958623 -597.10963992070423956 -1.00000000000000000 0.00000000000000000 
2 88.30398697986225898 13.34074668409141395 1.00000000000000000 0.00000000000000000 -0.00000000000000000 1.00000000000000000 1.69999999999999996
1 0.00000000000000000 -597.10963992070423956 1.00000000000000000 0.00000000000000000 
1 5.24799983371014012 0.00000000000000000 0.00000000000000000 -1.00000000000000000 
1 4.13046539453539285 0.00000000000000000 0.00000000000000000 -1.00000000000000000 
1 0.98887274094562605 0.00000000000000000 0.00000000000000000 -1.00000000000000000 
1 5.24799983371013656 0.00000000000000000 0.00000000000000000 -1.00000000000000000 
1 6.85516781566566369 0.00000000000000000 0.00000000000000000 -1.00000000000000000 
1 0.57198250848607457 0.00000000000000000 0.00000000000000000 -1.00000000000000000 
1 5.24799983371014012 0.00000000000000000 0.00000000000000000 -1.00000000000000000 
1 1.26270247728702545 0.00000000000000000 0.00000000000000000 -1.00000000000000000 
1 1.26270247728702500 0.00000000000000000 0.00000000000000000 -1.00000000000000000 
1 0.57198250848607457 0.00000000000000000 0.00000000000000000 -1.00000000000000000 
1 6.85516781566566369 0.00000000000000000 0.00000000000000000 -1.00000000000000000 
1 1.26270247728702500 0.00000000000000000 0.00000000000000000 -1.00000000000000000 
1 1.26270247728702545 0.00000000000000000 0.00000000000000000 -1.00000000000000000 
1 1.87889017630277744 0.00000000000000000 0.00000000000000000 -1.00000000000000000 
1 0.00000000000000000 0.00000000000000000 0.00000000000000000 -1.00000000000000000 
1 6.28318530717958623 0.00000000000000000 0.00000000000000000 -1.00000000000000000 
1 0.00000000000000000 0.00000000000000000 0.00000000000000000 -1.00000000000000000 
1 6.28318530717958623 0.00000000000000000 0.00000000000000000 -1.00000000000000000 
1 0.00000000000000000 0.00000000000000000 0.00000000000000000 -1.00000000000000000 
1 6.28318530717958623 0.00000000000000000 0.00000000000000000 -1.00000000000000000 
1 0.00000000000000000 0.00000000000000000 0.00000000000000000 -1.00000000000000000 
1 6.28318530717958623 0.00000000000000000 0.00000000000000000 -1.00000000000000000 
Curves 38
1 289.40507926662701266 172.45446875900108807 0.00000000000000000 0.00000000000000000 0.00000000000000000 1.00000000000000000 
1 259.53430246658956548 186.70025629416872448 0.00000000000000000 0.00000000000000000 0.00000000000000000 1.00000000000000000 
2 222.77092133968457688 71.17462230860432726 0.00000000000000000 0.00000000000000000 0.00000000000000000 1.00000000000000000 1.00000000000000000 0.00000000000000000 -0.00000000000000000 -0.00000000000000000 1.00000000000000000 0.00000000000000000 121.23414659100239987
1 290.20007804551448771 172.43605618493484144 0.00000000000000000 0.00000000000000000 0.00000000000000000 1.00000000000000000 
2 289.81730321384384297 173.08102395795881989 0.00000000000000000 0.00000000000000000 0.00000000000000000 1.00000000000000000 1.00000000000000000 0.00000000000000000 -0.00000000000000000 -0.00000000000000000 1.00000000000000000 0.00000000000000000 0.75000000000000000
2 -0.00000000000419482 -628.86305465251643909 0.00000000000000000 0.00000000000000000 0.00000000000000000 -1.00000000000000000 -1.00000000000000000 -0.00000000000000000 -0.00000000000000000 -0.00000000000000000 1.00000000000000000 0.00000000000000000 855.86305465251655278
1 -259.53430246658956548 186.70025629416872448 0.00000000000000000 0.00000000000000000 0.00000000000000000 1.00000000000000000 
2 0.00000000000419482 -628.86305465251643909 0.00000000000000000 0.00000000000000000 0.00000000000000000 1.00000000000000000 1.00000000000000000 0.00000000000000000 -0.00000000000000000 -0.00000000000000000 1.00000000000000000 0.00000000000000000 855.86305465251655278
2 -222.77092133968457688 71.17462230860432726 0.00000000000000000 0.00000000000000000 0.00000000000000000 -1.00000000000000000 -1.00000000000000000 -0.00000000000000000 -0.00000000000000000 -0.00000000000000000 1.00000000000000000 0.00000000000000000 121.23414659100239987
1 290.20007804551448771 172.43605618493484144 0.00000000000000000 0.85995703069865381 0.51036644222749872 0.00000000000000000 
2 -289.81730321384384297 173.08102395795881989 0.00000000000000000 0.00000000000000000 0.00000000000000000 -1.00000000000000000 -1.00000000000000000 -0.00000000000000000 -0.00000000000000000 -0.00000000000000000 1.00000000000000000 0.00000000000000000 0.75000000000000000
2 293.04372748737631582 176.44940002117434119 0.00000000000000000 0.00000000000000000 0.00000000000000000 1.00000000000000000 1.00000000000000000 0.00000000000000000 -0.00000000000000000 -0.00000000000000000 1.00000000000000000 0.00000000000000000 2.00000000000000178
1 -290.20007804551448771 172.43605618493484144 0.00000000000000000 -0.85995703069865381 0.51036644222749872 0.00000000000000000 
2 246.79810519257307533 146.67789655617468725 0.00000000000000000 0.00000000000000000 0.00000000000000000 1.00000000000000000 1.00000000000000000 0.00000000000000000 -0.00000000000000000 -0.00000000000000000 1.00000000000000000 0.00000000000000000 57.00000000000077449
2 -293.04372748737631582 176.44940002117434119 0.00000000000000000 0.00000000000000000 0.00000000000000000 -1.00000000000000000 -1.00000000000000000 -0.00000000000000000 -0.00000000000000000 -0.00000000000000000 1.00000000000000000 0.00000000000000000 2.00000000000000178
2 0.00000000000419482 -628.86305465251643909 0.00000000000000000 0.00000000000000000 0.00000000000000000 1.00000000000000000 1.00000000000000000 0.00000000000000000 -0.00000000000000000 -0.00000000000000000 1.00000000000000000 0.00000000000000000 870.86305465251655278
2 -246.79810519257307533 146.67789655617468725 0.00000000000000000 0.00000000000000000 0.00000000000000000 -1.00000000000000000 -1.00000000000000000 -0.00000000000000000 -0.00000000000000000 -0.00000000000000000 1.00000000000000000 0.00000000000000000 57.00000000000077449
2 -0.00000000000419482 -628.86305465251643909 0.00000000000000000 0.00000000000000000 0.00000000000000000 -1.00000000000000000 -1.00000000000000000 -0.00000000000000000 -0.00000000000000000 -0.00000000000000000 1.00000000000000000 0.00000000000000000 870.86305465251655278
2 -261.29373190312395536 193.30988955644500038 0.00000000000000000 -0.00000000000000000 -0.00000000000000000 1.00000000000000000 -1.00000000000000000 0.00000000000000000 0.00000000000000000 -0.00000000000000000 -1.00000000000000000 -0.00000000000000000 1.69999999999999996
2 261.29373190312395536 193.30988955644500038 0.00000000000000000 0.00000000000000000 0.00000000000000000 1.00000000000000000 1.00000000000000000 0.00000000000000000 -0.00000000000000000 -0.00000000000000000 1.00000000000000000 0.00000000000000000 1.69999999999999996
2 -88.30398697986225898 228.87566829870769425 0.00000000000000000 -0.00000000000000000 -0.00000000000000000 1.00000000000000000 -1.00000000000000000 0.00000000000000000 0.00000000000000000 -0.00000000000000000 -1.00000000000000000 -0.00000000000000000 1.69999999999999996
2 88.30398697986225898 228.87566829870769425 0.00000000000000000 0.00000000000000000 0.00000000000000000 1.00000000000000000 1.00000000000000000 0.00000000000000000 -0.00000000000000000 -0.00000000000000000 1.00000000000000000 0.00000000000000000 1.69999999999999996
2 -261.29373190312395536 193.30988955644500038 3.00000000000000000 -0.00000000000000000 -0.00000000000000000 1.00000000000000000 -1.00000000000000000 0.00000000000000000 0.00000000000000000 -0.00000000000000000 -1.00000000000000000 -0.00000000000000000 1.69999999999999996
2 261.29373190312395536 193.30988955644500038 3.00000000000000000 0.00000000000000000 0.00000000000000000 1.00000000000000000 1.00000000000000000 0.00000000000000000 -0.00000000000000000 -0.00000000000000000 1.00000000000000000 0.00000000000000000 1.69999999999999996
2 -88.30398697986225898 228.87566829870769425 3.00000000000000000 -0.00000000000000000 -0.00000000000000000 1.00000000000000000 -1.00000000000000000 0.00000000000000000 0.00000000000000000 -0.00000000000000000 -1.00000000000000000 -0.00000000000000000 1.69999999999999996
2 88.30398697986225898 228.87566829870769425 3.00000000000000000 0.00000000000000000 0.00000000000000000 1.00000000000000000 1.00000000000000000 0.00000000000000000 -0.00000000000000000 -0.00000000000000000 1.00000000000000000 0.00000000000000000 1.69999999999999996
1 294.06446037183133058 174.72948595977703690 0.00000000000000000 0.00000000000000000 0.00000000000000000 1.00000000000000000 
1 -289.40507926662701266 172.45446875900108807 0.00000000000000000 0.00000000000000000 0.00000000000000000 1.00000000000000000 
1 -290.20007804551448771 172.43605618493484144 0.00000000000000000 0.00000000000000000 0.00000000000000000 1.00000000000000000 
1 294.72538647991456173 177.53200014717430122 0.00000000000000000 0.00000000000000000 0.00000000000000000 1.00000000000000000 
1 -294.06446037183133058 174.72948595977703690 0.00000000000000000 0.00000000000000000 0.00000000000000000 1.00000000000000000 
1 264.08294435016671287 200.99395620059485168 0.00000000000000000 0.00000000000000000 0.00000000000000000 1.00000000000000000 
1 -294.72538647991456173 177.53200014717430122 0.00000000000000000 0.00000000000000000 0.00000000000000000 1.00000000000000000 
1 -264.08294435016671287 200.99395620059485168 0.00000000000000000 0.00000000000000000 0.00000000000000000 1.00000000000000000 
1 -262.99373190312394399 193.30988955644500038 600.10963992070423956 -0.00000000000000000 -0.00000000000000000 -1.00000000000000000 
1 262.99373190312394399 193.30988955644500038 600.10963992070423956 -0.00000000000000000 -0.00000000000000000 -1.00000000000000000 
1 -90.00398697986226182 228.87566829870769425 600.10963992070423956 -0.00000000000000000 -0.00000000000000000 -1.00000000000000000 
1 90.00398697986226182 228.87566829870769425 600.10963992070423956 -0.00000000000000000 -0.00000000000000000 -1.00000000000000000 
Polygon3D 0
PolygonOnTriangulations 0
Surfaces 19
2 222.77092133968457688 71.17462230860432726 0.00000000000000000 -0.00000000000000000 -0.00000000000000000 -1.00000000000000000 1.00000000000000000 0.00000000000000000 0.00000000000000000 -0.00000000000000000 1.00000000000000000 -0.00000000000000000 121.23414659100239987
2 289.81730321384384297 173.08102395795881989 0.00000000000000000 -0.00000000000000000 -0.00000000000000000 -1.00000000000000000 1.00000000000000000 0.00000000000000000 0.00000000000000000 -0.00000000000000000 1.00000000000000000 -0.00000000000000000 0.75000000000000000
2 0.00000000000419482 -628.86305465251643909 0.00000000000000000 -0.00000000000000000 -0.00000000000000000 -1.00000000000000000 1.00000000000000000 0.00000000000000000 0.00000000000000000 -0.00000000000000000 1.00000000000000000 -0.00000000000000000 855.86305465251655278
1 -0.00000000000000312 215.53492161461628029 0.00000000000000000 0.00000000000000000 0.00000000000000000 1.00000000000000000 1.00000000000000000 0.00000000000000000 -0.00000000000000000 -0.00000000000000000 1.00000000000000000 0.00000000000000000 
1 290.20007804551448771 172.43605618493484144 0.00000000000000000 -0.51036644222749872 0.85995703069865381 0.00000000000000000 0.85995703069865381 0.51036644222749872 0.00000000000000000 0.00000000000000000 0.00000000000000000 -1.00000000000000000 
2 -0.00000000000419482 -628.86305465251643909 0.00000000000000000 0.00000000000000000 0.00000000000000000 -1.00000000000000000 -1.00000000000000000 -0.00000000000000000 -0.00000000000000000 -0.00000000000000000 1.00000000000000000 0.00000000000000000 855.86305465251655278
2 -222.77092133968457688 71.17462230860432726 0.00000000000000000 0.00000000000000000 0.00000000000000000 -1.00000000000000000 -1.00000000000000000 -0.00000000000000000 -0.00000000000000000 -0.00000000000000000 1.00000000000000000 0.00000000000000000 121.23414659100239987
2 -289.81730321384384297 173.08102395795881989 0.00000000000000000 0.00000000000000000 0.00000000000000000 -1.00000000000000000 -1.00000000000000000 -0.00000000000000000 -0.00000000000000000 -0.00000000000000000 1.00000000000000000 0.00000000000000000 0.75000000000000000
2 293.04372748737631582 176.44940002117434119 0.00000000000000000 -0.00000000000000000 -0.00000000000000000 -1.00000000000000000 1.00000000000000000 0.00000000000000000 0.00000000000000000 -0.00000000000000000 1.00000000000000000 -0.00000000000000000 2.00000000000000178
2 246.79810519257307533 146.67789655617468725 0.00000000000000000 -0.00000000000000000 -0.00000000000000000 -1.00000000000000000 1.00000000000000000 0.00000000000000000 0.00000000000000000 -0.00000000000000000 1.00000000000000000 -0.00000000000000000 57.00000000000077449
2 -293.04372748737631582 176.44940002117434119 0.00000000000000000 0.00000000000000000 0.00000000000000000 -1.00000000000000000 -1.00000000000000000 -0.00000000000000000 -0.00000000000000000 -0.00000000000000000 1.00000000000000000 0.00000000000000000 2.00000000000000178
2 0.00000000000419482 -628.86305465251643909 0.00000000000000000 -0.00000000000000000 -0.00000000000000000 -1.00000000000000000 1.00000000000000000 0.00000000000000000 0.00000000000000000 -0.00000000000000000 1.00000000000000000 -0.00000000000000000 870.86305465251655278
2 -246.79810519257307533 146.67789655617468725 0.00000000000000000 0.00000000000000000 0.00000000000000000 -1.00000000000000000 -1.00000000000000000 -0.00000000000000000 -0.00000000000000000 -0.00000000000000000 1.00000000000000000 0.00000000000000000 57.00000000000077449
2 -0.00000000000419482 -628.86305465251643909 0.00000000000000000 0.00000000000000000 0.00000000000000000 -1.00000000000000000 -1.00000000000000000 -0.00000000000000000 -0.00000000000000000 -0.00000000000000000 1.00000000000000000 0.00000000000000000 870.86305465251655278
2 -261.29373190312395536 193.30988955644500038 600.10963992070423956 -0.00000000000000000 -0.00000000000000000 1.00000000000000000 -1.00000000000000000 0.00000000000000000 -0.00000000000000000 -0.00000000000000000 1.00000000000000000 0.00000000000000000 1.69999999999999996
2 261.29373190312395536 193.30988955644500038 600.10963992070423956 0.00000000000000000 0.00000000000000000 1.00000000000000000 1.00000000000000000 0.00000000000000000 -0.00000000000000000 -0.00000000000000000 1.00000000000000000 0.00000000000000000 1.69999999999999996
2 -88.30398697986225898 228.87566829870769425 600.10963992070423956 -0.00000000000000000 -0.00000000000000000 1.00000000000000000 -1.00000000000000000 0.00000000000000000 -0.00000000000000000 -0.00000000000000000 1.00000000000000000 0.00000000000000000 1.69999999999999996
2 88.30398697986225898 228.87566829870769425 600.10963992070423956 0.00000000000000000 0.00000000000000000 1.00000000000000000 1.00000000000000000 0.00000000000000000 -0.00000000000000000 -0.00000000000000000 1.00000000000000000 0.00000000000000000 1.69999999999999996
1 -290.20007804551448771 172.43605618493484144 0.00000000000000000 -0.51036644222749872 -0.85995703069865381 0.00000000000000000 -0.85995703069865381 0.51036644222749872 0.00000000000000000 -0.00000000000000000 0.00000000000000000 -1.00000000000000000 
Triangulations 0

TShapes 106
Ve
0.000000100000028
289.405079266627013 172.454468759001088 0.000000000000000
0 0

0101101
*
Ed
 0.000000100000028 1 1 0
1  1 0 0.000000000000000 3.000000000000000
2  1 1 0 0.000000000000000 3.000000000000000
2  2 2 0 0.000000000000000 3.000000000000000
4 G1 1 0 2 0
0

0101000
+106 11 -106 13 *
Ve
0.000000100000040
259.534302466589565 186.700256294168724 0.000000000000000
0 0

0101101
*
Ed
 0.000000100000040 1 1 0
1  2 0 0.000000000000000 3.000000000000000
2  3 3 0 0.000000000000000 3.000000000000000
2  4 1 0 0.000000000000000 3.000000000000000
4 G1 3 0 1 0
0

0101000
+104 11 -104 13 *
Ed
 0.000000100000000 1 1 0
1  3 0 0.988872740945626 1.262702477287025
2  5 1 14 0.988872740945626 1.262702477287025
2  6 1 15 0.988872740945626 1.262702477287025
2  7 4 16 0.988872740945626 1.262702477287025
0

0101000
+106 0 -104 0 *
Wi

0101100
+105 0 -103 0 -102 11 +102 13 *
Fa
0  0.000000100000000 1 0

0101000
+101 0 *
Ve
0.000000100000014
290.200078045514488 172.436056184934841 0.000000000000000
0 0

0101101
*
Ed
 0.000000100000014 1 1 0
1  4 0 0.000000000000000 3.000000000000000
2  8 2 0 0.000000000000000 3.000000000000000
4 G1 2 0 5 0
0

0101000
+99 11 -99 13 *
Ed
 0.000000100000000 1 1 0
1  5 0 4.130465394535393 5.247999833710137
2  9 2 14 4.130465394535393 5.247999833710137
2  10 2 15 4.130465394535393 5.247999833710137
2  11 4 16 4.130465394535393 5.247999833710137
0

0101000
+106 0 -99 0 *
Wi

0101100
+105 0 -98 0 -97 11 +97 13 *
Fa
0  0.000000100000000 2 0

0101000
+96 0 *
Ve
0.000000100000040
-259.534302466589565 186.700256294168724 0.000000000000000
0 0

0101101
*
Ve
0.000000100000066
-0.000000000000000 227.000000000000114 0.000000000000000
0 0

0101101
*
Ed
 0.000000100000000 1 1 0
1  6 0 1.262702477287025 1.570796326794901
2  12 6 20 1.262702477287025 1.570796326794901
2  13 6 21 1.262702477287025 1.570796326794901
2  14 3 20 1.262702477287025 1.570796326794901
2  15 3 21 1.262702477287025 1.570796326794901
2  16 4 22 1.262702477287025 1.570796326794901
0

0101000
+94 24 -93 25 *
Ed
 0.000000100000040 1 1 0
1  7 0 0.000000000000000 3.000000000000000
2  17 7 0 0.000000000000000 3.000000000000000
2  18 6 0 0.000000000000000 3.000000000000000
4 G1 7 0 6 0
2  19 3 0 0.000000000000000 3.000000000000000
0

0101000
+94 26 -94 27 *
Ed
 0.000000100000000 1 1 0
1  8 0 1.262702477287025 1.570796326794901
2  20 3 14 1.262702477287025 1.570796326794901
2  21 3 15 1.262702477287025 1.570796326794901
2  22 4 16 1.262702477287025 1.570796326794901
0

0101000
+104 0 -93 0 *
Wi

0101100
-92 19 -91 0 +92 28 -90 11 +103 0 +90 13 *
Fa
0  0.000000100000000 3 0

0101000
+89 0 *
Ve
0.000000100000028
-289.405079266627013 172.454468759001088 0.000000000000000
0 0

0101101
*
Ed
 0.000000100000000 1 1 0
1  9 0 0.988872740945626 1.262702477287025
2  23 7 20 0.988872740945626 1.262702477287025
2  24 7 21 0.988872740945626 1.262702477287025
2  25 4 22 0.988872740945626 1.262702477287025
0

0101000
+87 24 -94 24 *
Ve
0.000000100000014
294.064460371831331 174.729485959777037 0.000000000000000
0 0

0101101
*
Ed
 0.000000100000000 1 1 0
1  10 0 0.000000000000000 4.493692345508598
2  26 4 16 0.000000000000000 4.493692345508598
0

0101000
+99 0 -85 0 *
Ve
0.000000100000014
-290.200078045514488 172.436056184934841 0.000000000000000
0 0

0101101
*
Ed
 0.000000100000000 1 1 0
1  11 0 4.130465394535393 5.247999833710137
2  27 8 20 4.130465394535393 5.247999833710137
2  28 8 21 4.130465394535393 5.247999833710137
2  29 4 22 4.130465394535393 5.247999833710137
0

0101000
+87 24 -83 24 *
Ve
0.000000100000014
294.725386479914562 177.532000147174301 0.000000000000000
0 0

0101101
*
Ed
 0.000000100000000 1 1 0
1  12 0 5.247999833710140 6.855167815665664
2  30 9 14 5.247999833710140 6.855167815665664
2  31 9 15 5.247999833710140 6.855167815665664
2  32 4 16 5.247999833710140 6.855167815665664
0

0101000
+85 0 -81 0 *
Ve
0.000000100000014
-294.064460371831331 174.729485959777037 0.000000000000000
0 0

0101101
*
Ed
 0.000000100000000 1 1 0
1  13 0 0.000000000000000 4.493692345508598
2  33 4 22 0.000000000000000 4.493692345508598
0

0101000
+83 24 -79 24 *
Ve
0.000000100000028
264.082944350166713 200.993956200594852 0.000000000000000
0 0

0101101
*
Ed
 0.000000100000000 1 1 0
1  14 0 0.571982508486075 1.262702477287025
2  34 10 14 0.571982508486075 1.262702477287025
2  35 10 15 0.571982508486075 1.262702477287025
2  36 4 16 0.571982508486075 1.262702477287025
0

0101000
+81 0 -77 0 *
Ve
0.000000100000014
-294.725386479914562 177.532000147174301 0.000000000000000
0 0

0101101
*
Ed
 0.000000100000000 1 1 0
1  15 0 5.247999833710140 6.855167815665664
2  37 11 20 5.247999833710140 6.855167815665664
2  38 11 21 5.247999833710140 6.855167815665664
2  39 4 22 5.247999833710140 6.855167815665664
0

0101000
+79 24 -75 24 *
Ve
0.000000100000006
0.000000000000000 242.000000000000114 0.000000000000000
0 0

0101101
*
Ed
 0.000000100000000 1 1 0
1  16 0 1.262702477287025 1.570796326794901
2  40 12 14 1.262702477287025 1.570796326794901
2  41 12 15 1.262702477287025 1.570796326794901
2  42 4 16 1.262702477287025 1.570796326794901
0

0101000
+77 0 -73 0 *
Ve
0.000000100000028
-264.082944350166713 200.993956200594852 0.000000000000000
0 0

0101101
*
Ed
 0.000000100000000 1 1 0
1  17 0 0.571982508486075 1.262702477287025
2  43 13 20 0.571982508486075 1.262702477287025
2  44 13 21 0.571982508486075 1.262702477287025
2  45 4 22 0.571982508486075 1.262702477287025
0

0101000
+75 24 -71 24 *
Ed
 0.000000100000000 1 1 0
1  18 0 1.262702477287025 1.570796326794901
2  46 14 20 1.262702477287025 1.570796326794901
2  47 14 21 1.262702477287025 1.570796326794901
2  48 12 20 1.262702477287025 1.570796326794901
2  49 12 21 1.262702477287025 1.570796326794901
2  50 4 22 1.262702477287025 1.570796326794901
0

0101000
+71 24 -73 25 *
Wi

0101100
-90 30 -102 30 +92 31 +97 30 +86 31 +84 30 -82 31 +80 30 -78 31 +76 30 
-74 31 +72 30 -70 31 -69 31 *
Ve
0.000000100000000
-262.993731903123944 193.309889556445000 0.000000000000000
0 0

0101101
*
Ed
 0.000000100000000 1 1 0
1  19 0 0.000000000000000 6.283185307179586
2  51 4 29 0.000000000000000 6.283185307179586
2  52 15 0 0.000000000000000 6.283185307179586
0

0101100
+67 0 -67 0 *
Wi

0101100
-66 0 *
Ve
0.000000100000000
262.993731903123944 193.309889556445000 0.000000000000000
0 0

0101101
*
Ed
 0.000000100000000 1 1 0
1  20 0 0.000000000000000 6.283185307179586
2  53 4 29 0.000000000000000 6.283185307179586
2  54 16 0 0.000000000000000 6.283185307179586
0

0101100
+64 0 -64 0 *
Wi

0101100
-63 0 *
Ve
0.000000100000000
-90.003986979862262 228.875668298707694 0.000000000000000
0 0

0101101
*
Ed
 0.000000100000000 1 1 0
1  21 0 0.000000000000000 6.283185307179586
2  55 4 29 0.000000000000000 6.283185307179586
2  56 17 0 0.000000000000000 6.283185307179586
0

0101100
+61 0 -61 0 *
Wi

0101100
-60 0 *
Ve
0.000000100000000
90.003986979862262 228.875668298707694 0.000000000000000
0 0

0101101
*
Ed
 0.000000100000000 1 1 0
1  22 0 0.000000000000000 6.283185307179586
2  57 4 29 0.000000000000000 6.283185307179586
2  58 18 0 0.000000000000000 6.283185307179586
0

0101100
+58 0 -58 0 *
Wi

0101100
-57 0 *
Fa
0  0.000000100000000 4 29

0101000
+68 0 +65 0 +62 0 +59 0 +56 0 *
Wi

0101100
-90 33 -102 33 +92 34 +97 33 +86 34 +84 33 -82 34 +80 33 -78 34 +76 33 
-74 34 +72 33 -70 34 -69 34 *
Ve
0.000000100000000
-262.993731903123944 193.309889556445000 3.000000000000000
0 0

0101101
*
Ed
 0.000000100000000 1 1 0
1  23 0 0.000000000000000 6.283185307179586
2  59 4 32 0.000000000000000 6.283185307179586
2  60 15 0 0.000000000000000 6.283185307179586
0

0101100
+53 0 -53 0 *
Wi

0101100
-52 0 *
Ve
0.000000100000000
262.993731903123944 193.309889556445000 3.000000000000000
0 0

0101101
*
Ed
 0.000000100000000 1 1 0
1  24 0 0.000000000000000 6.283185307179586
2  61 4 32 0.000000000000000 6.283185307179586
2  62 16 0 0.000000000000000 6.283185307179586
0

0101100
+50 0 -50 0 *
Wi

0101100
-49 0 *
Ve
0.000000100000000
-90.003986979862262 228.875668298707694 3.000000000000000
0 0

0101101
*
Ed
 0.000000100000000 1 1 0
1  25 0 0.000000000000000 6.283185307179586
2  63 4 32 0.000000000000000 6.283185307179586
2  64 17 0 0.000000000000000 6.283185307179586
0

0101100
+47 0 -47 0 *
Wi

0101100
-46 0 *
Ve
0.000000100000000
90.003986979862262 228.875668298707694 3.000000000000000
0 0

0101101
*
Ed
 0.000000100000000 1 1 0
1  26 0 0.000000000000000 6.283185307179586
2  65 4 32 0.000000000000000 6.283185307179586
2  66 18 0 0.000000000000000 6.283185307179586
0

0101100
+44 0 -44 0 *
Wi

0101100
-43 0 *
Fa
0  0.000000100000000 4 32

0101000
+54 0 +51 0 +48 0 +45 0 +42 0 *
Ed
 0.000000100000014 1 1 0
1  27 0 0.000000000000000 3.000000000000000
2  67 9 0 0.000000000000000 3.000000000000000
4 G1 5 0 9 0
0

0101000
+85 11 -85 13 *
Wi

0101100
+98 0 -40 0 -84 11 +84 13 *
Fa
0  0.000000100000000 5 0

0101000
+39 0 *
Ed
 0.000000100000028 1 1 0
1  28 0 0.000000000000000 3.000000000000000
2  68 8 0 0.000000000000000 3.000000000000000
2  69 7 0 0.000000000000000 3.000000000000000
4 G1 8 0 7 0
0

0101000
+87 26 -87 27 *
Wi

0101100
+37 0 -91 0 -86 28 +86 19 *
Fa
0  0.000000100000000 7 0

0101000
+36 0 *
Ed
 0.000000100000014 1 1 0
1  29 0 0.000000000000000 3.000000000000000
2  70 8 0 0.000000000000000 3.000000000000000
4 G1 19 0 8 0
0

0101000
+83 26 -83 27 *
Wi

0101100
+37 0 -34 0 -82 28 +82 19 *
Fa
0  0.000000100000000 8 0

0101000
+33 0 *
Ed
 0.000000100000014 1 1 0
1  30 0 0.000000000000000 3.000000000000000
2  71 9 0 0.000000000000000 3.000000000000000
2  72 10 0 0.000000000000000 3.000000000000000
4 G1 9 0 10 0
0

0101000
+81 11 -81 13 *
Wi

0101100
+40 0 -31 0 -80 11 +80 13 *
Fa
0  0.000000100000000 9 0

0101000
+30 0 *
Ed
 0.000000100000014 1 1 0
1  31 0 0.000000000000000 3.000000000000000
2  73 11 0 0.000000000000000 3.000000000000000
4 G1 11 0 19 0
0

0101000
+79 26 -79 27 *
Wi

0101100
+34 0 -28 0 -78 28 +78 19 *
Fa
0  0.000000100000000 19 0

0101000
+27 0 *
Ed
 0.000000100000028 1 1 0
1  32 0 0.000000000000000 3.000000000000000
2  74 10 0 0.000000000000000 3.000000000000000
2  75 12 0 0.000000000000000 3.000000000000000
4 G1 10 0 12 0
0

0101000
+77 11 -77 13 *
Wi

0101100
+31 0 -25 0 -76 11 +76 13 *
Fa
0  0.000000100000000 10 0

0101000
+24 0 *
Ed
 0.000000100000014 1 1 0
1  33 0 0.000000000000000 3.000000000000000
2  76 13 0 0.000000000000000 3.000000000000000
2  77 11 0 0.000000000000000 3.000000000000000
4 G1 13 0 11 0
0

0101000
+75 26 -75 27 *
Wi

0101100
+28 0 -22 0 -74 28 +74 19 *
Fa
0  0.000000100000000 11 0

0101000
+21 0 *
Ed
 0.000000100000028 1 1 0
1  34 0 0.000000000000000 3.000000000000000
2  78 14 0 0.000000000000000 3.000000000000000
2  79 13 0 0.000000000000000 3.000000000000000
4 G1 14 0 13 0
2  80 12 0 0.000000000000000 3.000000000000000
0

0101000
+71 26 -71 27 *
Wi

0101100
-19 0 +69 28 -72 11 +25 0 +72 13 -69 19 *
Fa
0  0.000000100000000 12 0

0101000
+18 0 *
Wi

0101100
+22 0 -19 0 -70 28 +70 19 *
Fa
0  0.000000100000000 13 0

0101000
+16 0 *
Ed
 0.000000100000000 1 1 0
1  35 0 597.109639920704240 600.109639920704240
3  81 82CN 15 0 597.109639920704240 600.109639920704240
0

0101000
+53 0 -67 0 *
Wi

0101100
+52 0 -14 0 -66 0 +14 0 *
Fa
0  0.000000100000000 15 0

0101000
+13 0 *
Ed
 0.000000100000000 1 1 0
1  36 0 597.109639920704240 600.109639920704240
3  83 84CN 16 0 597.109639920704240 600.109639920704240
0

0101000
+50 0 -64 0 *
Wi

0101100
-49 0 -11 0 +63 0 +11 0 *
Fa
0  0.000000100000000 16 0

0101000
+10 0 *
Ed
 0.000000100000000 1 1 0
1  37 0 597.109639920704240 600.109639920704240
3  85 86CN 17 0 597.109639920704240 600.109639920704240
0

0101000
+47 0 -61 0 *
Wi

0101100
+46 0 -8 0 -60 0 +8 0 *
Fa
0  0.000000100000000 17 0

0101000
+7 0 *
Ed
 0.000000100000000 1 1 0
1  38 0 597.109639920704240 600.109639920704240
3  87 88CN 18 0 597.109639920704240 600.109639920704240
0

0101000
+44 0 -58 0 *
Wi

0101100
-43 0 -5 0 +57 0 +5 0 *
Fa
0  0.000000100000000 18 0

0101000
+4 0 *
Sh

0101100
+100 4 -95 4 +88 4 -55 0 +41 0 -38 4 -35 4 +32 4 -29 4 +26 4 
-23 4 +20 4 -17 4 +15 4 +12 0 -9 0 +6 0 -3 0 *
So

0100000
+2 0 *

+1 1 