
CASCADE Topology V1, (c) Matra-Datavision
Locations 32
1
1.000000000000000 0.000000000000000 0.000000000000000 0.000000000000000 
0.000000000000000 1.000000000000000 0.000000000000000 0.000000000000000 
0.000000000000000 0.000000000000000 1.000000000000000 0.000000000000000 
1
0.866025403784439 -0.000000000000000 0.500000000000000 149.822394854707909 
0.500000000000000 0.000000000000000 -0.866025403784439 86.499999999999986 
0.000000000000000 1.000000000000000 0.000000000000000 84.000000000000000 
1
1.000000000000000 0.000000000000000 0.000000000000000 0.000000000000000 
0.000000000000000 1.000000000000000 0.000000000000000 0.000000000000000 
0.000000000000000 0.000000000000000 1.000000000000000 0.000000000000000 
1
1.000000000000000 0.000000000000000 0.000000000000000 0.000000000000000 
0.000000000000000 1.000000000000000 0.000000000000000 0.000000000000000 
0.000000000000000 0.000000000000000 1.000000000000000 0.000000000000000 
1
1.000000000000000 0.000000000000000 0.000000000000000 0.000000000000000 
0.000000000000000 1.000000000000000 0.000000000000000 0.000000000000000 
0.000000000000000 0.000000000000000 1.000000000000000 0.000000000000000 
1
1.000000000000000 0.000000000000000 0.000000000000000 0.000000000000000 
0.000000000000000 1.000000000000000 0.000000000000000 0.000000000000000 
0.000000000000000 0.000000000000000 1.000000000000000 0.000000000000000 
1
1.000000000000000 0.000000000000000 0.000000000000000 0.000000000000000 
0.000000000000000 1.000000000000000 0.000000000000000 0.000000000000000 
0.000000000000000 0.000000000000000 1.000000000000000 0.000000000000000 
1
0.500000000000000 -0.866025403784439 0.000000000000000 0.000000000000000 
0.866025403784439 0.500000000000000 0.000000000000000 0.000000000000000 
0.000000000000000 0.000000000000000 1.000000000000000 410.000000000000000 
1
1.000000000000000 0.000000000000000 0.000000000000000 0.000000000000000 
0.000000000000000 1.000000000000000 0.000000000000000 0.000000000000000 
0.000000000000000 0.000000000000000 1.000000000000000 0.000000000000000 
1
1.000000000000000 0.000000000000000 0.000000000000000 -1487.149440473208642 
0.000000000000000 1.000000000000000 0.000000000000000 0.000000000000413 
0.000000000000000 0.000000000000000 1.000000000000000 0.000000000000301 
2  1 1 2 1 3 1 4 1 5 1 6 1 7 1 8 1 9 -1 10 1 0
1
1.000000000000000 0.000000000000000 0.000000000000000 2974.298880946417285 
0.000000000000000 1.000000000000000 0.000000000000000 -0.000000000000826 
0.000000000000000 0.000000000000000 1.000000000000000 -0.000000000000602 
2  1 1 2 1 3 1 4 1 5 1 6 1 7 1 8 1 9 -1 10 1 12 1 0
1
1.000000000000000 0.000000000000000 0.000000000000000 -2.000000000000000 
0.000000000000000 1.000000000000000 0.000000000000000 3.464101615137755 
0.000000000000000 0.000000000000000 1.000000000000000 0.000000000000001 
1
1.000000000000000 0.000000000000000 0.000000000000000 0.000000000000000 
0.000000000000000 1.000000000000000 0.000000000000000 0.000000000000000 
0.000000000000000 0.000000000000000 1.000000000000000 0.000000000000000 
1
1.000000000000000 0.000000000000000 0.000000000000000 0.000000000000000 
0.000000000000000 1.000000000000000 0.000000000000000 0.000000000000000 
0.000000000000000 0.000000000000000 1.000000000000000 0.000000000000000 
2  14 -1 15 1 16 -1 4 -1 3 -1 2 -1 1 -1 0
1
1.000000000000000 0.000000000000000 0.000000000000000 3.999999999999999 
0.000000000000000 1.000000000000000 0.000000000000000 -6.928203230275510 
0.000000000000000 0.000000000000000 1.000000000000000 -0.000000000000002 
2  18 -1 14 -1 15 1 16 -1 4 -1 3 -1 2 -1 1 -1 0
2  3 -1 2 -1 1 -1 0
1
1.000000000000000 0.000000000000000 0.000000000000000 -1487.149440473208642 
0.000000000000000 1.000000000000000 0.000000000000000 0.000000000000413 
0.000000000000000 0.000000000000000 1.000000000000000 0.000000000000301 
1
1.000000000000000 0.000000000000000 0.000000000000000 0.000000000000000 
0.000000000000000 1.000000000000000 0.000000000000000 0.000000000000000 
0.000000000000000 0.000000000000000 1.000000000000000 0.000000000000000 
1
0.500000000000000 -0.866025403784439 0.000000000000000 0.000000000000000 
0.866025403784439 0.500000000000000 0.000000000000000 0.000000000000000 
0.000000000000000 0.000000000000000 1.000000000000000 410.000000000000000 
1
1.000000000000000 0.000000000000000 0.000000000000000 0.000000000000000 
0.000000000000000 1.000000000000000 0.000000000000000 0.000000000000000 
0.000000000000000 0.000000000000000 1.000000000000000 0.000000000000000 
2  21 -1 22 1 23 -1 24 -1 6 -1 5 -1 4 -1 3 -1 2 -1 1 -1 0
1
1.000000000000000 0.000000000000000 0.000000000000000 2974.298880946417285 
0.000000000000000 1.000000000000000 0.000000000000000 -0.000000000000826 
0.000000000000000 0.000000000000000 1.000000000000000 -0.000000000000602 
2  26 -1 21 -1 22 1 23 -1 24 -1 6 -1 5 -1 4 -1 3 -1 2 -1 1 -1 0
2  10 -1 9 1 8 -1 7 -1 6 -1 5 -1 4 -1 3 -1 2 -1 1 -1 0
2  12 -1 10 -1 9 1 8 -1 7 -1 6 -1 5 -1 4 -1 3 -1 2 -1 1 -1 0
2  4 1 5 1 6 1 7 1 8 1 9 -1 10 1 0
2  1 1 2 1 3 1 0
2  4 1 5 1 6 1 7 1 8 1 9 -1 10 1 12 1 0
Curve2ds 36
1 0.00000000000000000 0.00000000000000000 0.00000000000000000 -1.00000000000000000 
1 6.28318530717958623 0.00000000000000000 0.00000000000000000 -1.00000000000000000 
1 0.00000000000000000 0.00000000000000000 1.00000000000000000 0.00000000000000000 
1 0.00000000000000000 -8.00000000000000000 1.00000000000000000 0.00000000000000000 
2 158.62500000000017053 24.99999999999999289 1.00000000000000000 -0.00000000000000000 -0.00000000000000000 -1.00000000000000000 1.70000000000000862
1 0.00000000000000000 0.00000000000000000 1.00000000000000000 0.00000000000000000 
1 0.00000000000000000 -2974.29888094641728458 1.00000000000000000 0.00000000000000000 
1 0.00000000000000000 0.00000000000000000 1.00000000000000000 0.00000000000000000 
1 0.00000000000000000 -2974.29888094641728458 1.00000000000000000 0.00000000000000000 
1 0.00000000000000000 0.00000000000000000 0.00000000000000000 -1.00000000000000000 
1 6.28318530717958623 0.00000000000000000 0.00000000000000000 -1.00000000000000000 
1 0.00000000000000000 0.00000000000000000 1.00000000000000000 0.00000000000000000 
1 0.00000000000000000 -8.00000000000000000 1.00000000000000000 0.00000000000000000 
2 158.62500000000014211 -25.00000000000000711 1.00000000000000000 -0.00000000000000000 -0.00000000000000000 -1.00000000000000000 1.70000000000002283
1 0.00000000000000000 0.00000000000000000 1.00000000000000000 0.00000000000000000 
1 0.00000000000000000 -2974.29888094641728458 1.00000000000000000 0.00000000000000000 
1 0.00000000000000000 0.00000000000000000 1.00000000000000000 0.00000000000000000 
1 0.00000000000000000 -2974.29888094641728458 1.00000000000000000 0.00000000000000000 
1 0.00000000000000000 0.00000000000000000 0.00000000000000000 -1.00000000000000000 
1 6.28318530717958623 0.00000000000000000 0.00000000000000000 -1.00000000000000000 
1 0.00000000000000000 0.00000000000000000 1.00000000000000000 0.00000000000000000 
1 0.00000000000000000 -8.00000000000000000 1.00000000000000000 0.00000000000000000 
2 -158.62499999999988631 24.99999999999999289 1.00000000000000000 -0.00000000000000000 -0.00000000000000000 -1.00000000000000000 1.70000000000000018
1 0.00000000000000000 0.00000000000000000 1.00000000000000000 0.00000000000000000 
1 0.00000000000000000 -2974.29888094641728458 1.00000000000000000 0.00000000000000000 
1 0.00000000000000000 0.00000000000000000 1.00000000000000000 0.00000000000000000 
1 0.00000000000000000 -2974.29888094641728458 1.00000000000000000 0.00000000000000000 
1 0.00000000000000000 0.00000000000000000 0.00000000000000000 -1.00000000000000000 
1 6.28318530717958623 0.00000000000000000 0.00000000000000000 -1.00000000000000000 
1 0.00000000000000000 0.00000000000000000 1.00000000000000000 0.00000000000000000 
1 0.00000000000000000 -8.00000000000000000 1.00000000000000000 0.00000000000000000 
2 -158.62499999999988631 -25.00000000000000711 1.00000000000000000 -0.00000000000000000 -0.00000000000000000 -1.00000000000000000 1.70000000000000018
1 0.00000000000000000 0.00000000000000000 1.00000000000000000 0.00000000000000000 
1 0.00000000000000000 -2974.29888094641728458 1.00000000000000000 0.00000000000000000 
1 0.00000000000000000 0.00000000000000000 1.00000000000000000 0.00000000000000000 
1 0.00000000000000000 -2974.29888094641728458 1.00000000000000000 0.00000000000000000 
Curves 8
1 -1487.14944047320864229 333.32500000000038654 444.00000000000028422 1.00000000000000000 -0.00000000000000028 -0.00000000000000020 
2 158.62500000000000000 -50.00000000000000000 0.00000000000000000 0.00000000000000000 0.00000000000000000 1.00000000000000000 1.00000000000000000 0.00000000000000000 -0.00000000000000000 -0.00000000000000000 1.00000000000000000 0.00000000000000000 1.69999999999999996
1 -1487.14944047320864229 333.32500000000038654 494.00000000000028422 1.00000000000000000 -0.00000000000000028 -0.00000000000000020 
2 158.62500000000000000 0.00000000000000000 0.00000000000000000 0.00000000000000000 0.00000000000000000 1.00000000000000000 1.00000000000000000 0.00000000000000000 -0.00000000000000000 -0.00000000000000000 1.00000000000000000 0.00000000000000000 1.69999999999999996
1 -1487.14944047320864229 16.07500000000041496 444.00000000000028422 1.00000000000000000 -0.00000000000000028 -0.00000000000000020 
2 -158.62500000000000000 -50.00000000000000000 0.00000000000000000 0.00000000000000000 0.00000000000000000 1.00000000000000000 1.00000000000000000 0.00000000000000000 -0.00000000000000000 -0.00000000000000000 1.00000000000000000 0.00000000000000000 1.69999999999999996
1 -1487.14944047320864229 16.07500000000041496 494.00000000000028422 1.00000000000000000 -0.00000000000000028 -0.00000000000000020 
2 -158.62500000000000000 0.00000000000000000 0.00000000000000000 0.00000000000000000 0.00000000000000000 1.00000000000000000 1.00000000000000000 0.00000000000000000 -0.00000000000000000 -0.00000000000000000 1.00000000000000000 0.00000000000000000 1.69999999999999996
Polygon3D 0
PolygonOnTriangulations 0
Surfaces 16
2 -1487.14944047320864229 331.62500000000045475 444.00000000000028422 -1.00000000000000000 0.00000000000000033 -0.00000000000000014 0.00000000000000033 1.00000000000000000 0.00000000000000000 -0.00000000000000014 0.00000000000000000 1.00000000000000000 1.69999999999999996
2 285.19567453001451440 169.27660161513773573 34.00000000000000000 -0.49999999999999989 0.86602540378443882 -0.00000000000000014 0.86602540378443882 0.49999999999999989 0.00000000000000000 -0.00000000000000007 0.00000000000000012 1.00000000000000000 1.69999999999999996
1 149.82239485470779528 86.49999999999992895 58.99999999999999289 -0.49999999999999989 0.86602540378443871 0.00000000000000020 0.86602540378443871 0.49999999999999989 0.00000000000000000 -0.00000000000000010 0.00000000000000017 -1.00000000000000000 
2 -1487.14944047320864229 331.62500000000045475 444.00000000000028422 -1.00000000000000000 0.00000000000000033 -0.00000000000000014 0.00000000000000033 1.00000000000000000 0.00000000000000000 -0.00000000000000014 0.00000000000000000 1.00000000000000000 1.69999999999999996
2 -1487.14944047320864229 331.62500000000045475 494.00000000000028422 -1.00000000000000000 0.00000000000000033 -0.00000000000000014 0.00000000000000033 1.00000000000000000 0.00000000000000000 -0.00000000000000014 0.00000000000000000 1.00000000000000000 1.69999999999999996
2 285.19567453001451440 169.27660161513773573 84.00000000000000000 -0.49999999999999989 0.86602540378443882 -0.00000000000000014 0.86602540378443882 0.49999999999999989 0.00000000000000000 -0.00000000000000007 0.00000000000000012 1.00000000000000000 1.69999999999999996
1 149.82239485470779528 86.49999999999992895 58.99999999999999289 -0.49999999999999989 0.86602540378443871 0.00000000000000020 0.86602540378443871 0.49999999999999989 0.00000000000000000 -0.00000000000000010 0.00000000000000017 -1.00000000000000000 
2 -1487.14944047320864229 331.62500000000045475 494.00000000000028422 -1.00000000000000000 0.00000000000000033 -0.00000000000000014 0.00000000000000033 1.00000000000000000 0.00000000000000000 -0.00000000000000014 0.00000000000000000 1.00000000000000000 1.69999999999999996
2 -1487.14944047320864229 14.37500000000042633 444.00000000000028422 -1.00000000000000000 0.00000000000000033 -0.00000000000000014 0.00000000000000033 1.00000000000000000 0.00000000000000000 -0.00000000000000014 0.00000000000000000 1.00000000000000000 1.69999999999999996
2 10.44911517940130352 10.65160161513774995 34.00000000000000000 -0.49999999999999989 0.86602540378443882 -0.00000000000000014 0.86602540378443882 0.49999999999999989 0.00000000000000000 -0.00000000000000007 0.00000000000000012 1.00000000000000000 1.69999999999999996
1 149.82239485470779528 86.49999999999992895 58.99999999999999289 -0.49999999999999989 0.86602540378443871 0.00000000000000020 0.86602540378443871 0.49999999999999989 0.00000000000000000 -0.00000000000000010 0.00000000000000017 -1.00000000000000000 
2 -1487.14944047320864229 14.37500000000042633 444.00000000000028422 -1.00000000000000000 0.00000000000000033 -0.00000000000000014 0.00000000000000033 1.00000000000000000 0.00000000000000000 -0.00000000000000014 0.00000000000000000 1.00000000000000000 1.69999999999999996
2 -1487.14944047320864229 14.37500000000042633 494.00000000000028422 -1.00000000000000000 0.00000000000000033 -0.00000000000000014 0.00000000000000033 1.00000000000000000 0.00000000000000000 -0.00000000000000014 0.00000000000000000 1.00000000000000000 1.69999999999999996
2 10.44911517940130352 10.65160161513774995 84.00000000000000000 -0.49999999999999989 0.86602540378443882 -0.00000000000000014 0.86602540378443882 0.49999999999999989 0.00000000000000000 -0.00000000000000007 0.00000000000000012 1.00000000000000000 1.69999999999999996
1 149.82239485470779528 86.49999999999992895 58.99999999999999289 -0.49999999999999989 0.86602540378443871 0.00000000000000020 0.86602540378443871 0.49999999999999989 0.00000000000000000 -0.00000000000000010 0.00000000000000017 -1.00000000000000000 
2 -1487.14944047320864229 14.37500000000042633 494.00000000000028422 -1.00000000000000000 0.00000000000000033 -0.00000000000000014 0.00000000000000033 1.00000000000000000 0.00000000000000000 -0.00000000000000014 0.00000000000000000 1.00000000000000000 1.69999999999999996
Triangulations 0

TShapes 37
Ve
0.000000100000000
160.324999999999989 -50.000000000000000 0.000000000000000
0 0

0101101
*
Ed
 0.000000100000000 1 1 0
1  1 0 0.000000000000000 2974.298880946417285
3  1 2CN 1 0 0.000000000000000 2974.298880946417285
0

0101000
+37 11 -37 13 *
Ed
 0.000000100000000 1 1 0
1  2 0 0.000000000000000 6.283185307179586
2  3 2 17 0.000000000000000 6.283185307179586
2  4 2 19 0.000000000000000 6.283185307179586
2  5 3 20 0.000000000000000 6.283185307179586
2  6 4 25 0.000000000000000 6.283185307179586
2  7 4 27 0.000000000000000 6.283185307179586
2  8 1 28 0.000000000000000 6.283185307179586
2  9 1 29 0.000000000000000 6.283185307179586
0

0101100
+37 0 -37 0 *
Wi

0101100
+36 0 -36 0 -35 11 +35 13 *
Fa
0  0.000000100000000 1 0

0111000
+34 0 *
Wi

0101100
+35 31 *
Fa
0  0.000000100000000 3 0

0111000
-32 0 *
Sh

0101100
-33 0 +31 30 -31 32 *
So

0100000
+30 0 *
Ve
0.000000100000000
160.324999999999989 0.000000000000000 0.000000000000000
0 0

0101101
*
Ed
 0.000000100000000 1 1 0
1  3 0 0.000000000000000 2974.298880946417285
3  10 11CN 5 0 0.000000000000000 2974.298880946417285
0

0101000
+28 11 -28 13 *
Ed
 0.000000100000000 1 1 0
1  4 0 0.000000000000000 6.283185307179586
2  12 6 17 0.000000000000000 6.283185307179586
2  13 6 19 0.000000000000000 6.283185307179586
2  14 7 20 0.000000000000000 6.283185307179586
2  15 8 25 0.000000000000000 6.283185307179586
2  16 8 27 0.000000000000000 6.283185307179586
2  17 5 28 0.000000000000000 6.283185307179586
2  18 5 29 0.000000000000000 6.283185307179586
0

0101100
+28 0 -28 0 *
Wi

0101100
+27 0 -27 0 -26 11 +26 13 *
Fa
0  0.000000100000000 5 0

0111000
+25 0 *
Wi

0101100
+26 31 *
Fa
0  0.000000100000000 7 0

0111000
-23 0 *
Sh

0101100
-24 0 +22 30 -22 32 *
So

0100000
+21 0 *
Ve
0.000000100000000
-156.925000000000011 -50.000000000000000 0.000000000000000
0 0

0101101
*
Ed
 0.000000100000000 1 1 0
1  5 0 0.000000000000000 2974.298880946417285
3  19 20CN 9 0 0.000000000000000 2974.298880946417285
0

0101000
+19 11 -19 13 *
Ed
 0.000000100000000 1 1 0
1  6 0 0.000000000000000 6.283185307179586
2  21 10 17 0.000000000000000 6.283185307179586
2  22 10 19 0.000000000000000 6.283185307179586
2  23 11 20 0.000000000000000 6.283185307179586
2  24 12 25 0.000000000000000 6.283185307179586
2  25 12 27 0.000000000000000 6.283185307179586
2  26 9 28 0.000000000000000 6.283185307179586
2  27 9 29 0.000000000000000 6.283185307179586
0

0101100
+19 0 -19 0 *
Wi

0101100
+18 0 -18 0 -17 11 +17 13 *
Fa
0  0.000000100000000 9 0

0111000
+16 0 *
Wi

0101100
+17 31 *
Fa
0  0.000000100000000 11 0

0111000
-14 0 *
Sh

0101100
-15 0 +13 30 -13 32 *
So

0100000
+12 0 *
Ve
0.000000100000000
-156.925000000000011 0.000000000000000 0.000000000000000
0 0

0101101
*
Ed
 0.000000100000000 1 1 0
1  7 0 0.000000000000000 2974.298880946417285
3  28 29CN 13 0 0.000000000000000 2974.298880946417285
0

0101000
+10 11 -10 13 *
Ed
 0.000000100000000 1 1 0
1  8 0 0.000000000000000 6.283185307179586
2  30 14 17 0.000000000000000 6.283185307179586
2  31 14 19 0.000000000000000 6.283185307179586
2  32 15 20 0.000000000000000 6.283185307179586
2  33 16 25 0.000000000000000 6.283185307179586
2  34 16 27 0.000000000000000 6.283185307179586
2  35 13 28 0.000000000000000 6.283185307179586
2  36 13 29 0.000000000000000 6.283185307179586
0

0101100
+10 0 -10 0 *
Wi

0101100
+9 0 -9 0 -8 11 +8 13 *
Fa
0  0.000000100000000 13 0

0111000
+7 0 *
Wi

0101100
+8 31 *
Fa
0  0.000000100000000 15 0

0111000
-5 0 *
Sh

0101100
-6 0 +4 30 -4 32 *
So

0100000
+3 0 *
Co

1100000
+29 0 +20 0 +11 0 +2 0 *

+1 0 