
CASCADE Topology V1, (c) Matra-Datavision
Locations 42
1
1.000000000000000 0.000000000000000 0.000000000000000 0.000000000000000 
0.000000000000000 1.000000000000000 0.000000000000000 0.000000000000000 
0.000000000000000 0.000000000000000 1.000000000000000 3.000000000000000 
1
1.000000000000000 0.000000000000000 0.000000000000000 0.000000000000000 
0.000000000000000 1.000000000000000 0.000000000000000 0.000000000000000 
0.000000000000000 0.000000000000000 1.000000000000000 0.000000000000000 
1
1.000000000000000 0.000000000000000 0.000000000000000 0.000000000000000 
0.000000000000000 1.000000000000000 0.000000000000000 0.000000000000000 
0.000000000000000 0.000000000000000 1.000000000000000 0.000000000000000 
2  2 1 3 -1 0
1
1.000000000000000 0.000000000000000 0.000000000000000 0.000000000000000 
0.000000000000000 1.000000000000000 0.000000000000000 0.000000000000000 
0.000000000000000 0.000000000000000 1.000000000000000 0.000000000000000 
2  5 -1 3 1 2 -1 0
1
1.000000000000000 0.000000000000000 0.000000000000000 0.000000000000000 
0.000000000000000 1.000000000000000 0.000000000000000 0.000000000000000 
0.000000000000000 0.000000000000000 1.000000000000000 0.000000000000000 
1
1.000000000000000 0.000000000000000 0.000000000000000 0.000000000000000 
0.000000000000000 1.000000000000000 0.000000000000000 0.000000000000000 
0.000000000000000 0.000000000000000 1.000000000000000 0.000000000000000 
1
1.000000000000000 0.000000000000000 0.000000000000000 0.000000000000000 
0.000000000000000 1.000000000000000 0.000000000000000 0.000000000000000 
0.000000000000000 0.000000000000000 1.000000000000000 0.000000000000000 
1
1.000000000000000 0.000000000000000 0.000000000000000 0.000000000000000 
0.000000000000000 1.000000000000000 0.000000000000000 0.000000000000000 
0.000000000000000 0.000000000000000 1.000000000000000 0.000000000000000 
1
1.000000000000000 0.000000000000000 0.000000000000000 0.000000000000000 
0.000000000000000 1.000000000000000 0.000000000000000 0.000000000000000 
0.000000000000000 0.000000000000000 1.000000000000000 0.000000000000000 
1
1.000000000000000 0.000000000000000 0.000000000000000 0.000000000000000 
0.000000000000000 1.000000000000000 0.000000000000000 0.000000000000000 
0.000000000000000 0.000000000000000 1.000000000000000 0.000000000000000 
2  7 1 8 1 9 1 10 1 11 1 12 -1 0
2  12 1 11 -1 10 -1 9 -1 8 -1 7 -1 0
2  5 -1 3 1 2 -1 12 1 11 -1 10 -1 9 -1 8 -1 7 -1 0
1
1.000000000000000 0.000000000000000 0.000000000000000 0.000000000000000 
0.000000000000000 1.000000000000000 0.000000000000000 0.000000000000000 
0.000000000000000 0.000000000000000 1.000000000000000 3.000000000000000 
2  7 1 8 1 9 1 10 1 11 1 12 -1 16 1 0
2  16 -1 12 1 11 -1 10 -1 9 -1 8 -1 7 -1 0
2  5 -1 3 1 2 -1 16 -1 12 1 11 -1 10 -1 9 -1 8 -1 7 -1 0
1
1.000000000000000 0.000000000000000 0.000000000000000 0.000000000000000 
0.000000000000000 1.000000000000000 0.000000000000000 0.000000000000000 
0.000000000000000 0.000000000000000 1.000000000000000 0.000000000000000 
1
1.000000000000000 0.000000000000000 0.000000000000000 0.000000000000000 
0.000000000000000 1.000000000000000 0.000000000000000 0.000000000000000 
0.000000000000000 0.000000000000000 1.000000000000000 0.000000000000000 
2  20 1 21 1 9 1 10 1 11 1 12 -1 0
2  12 1 11 -1 10 -1 9 -1 21 -1 20 -1 0
2  5 -1 3 1 2 -1 12 1 11 -1 10 -1 9 -1 21 -1 20 -1 0
2  20 1 21 1 9 1 10 1 11 1 12 -1 16 1 0
2  16 -1 12 1 11 -1 10 -1 9 -1 21 -1 20 -1 0
2  5 -1 3 1 2 -1 16 -1 12 1 11 -1 10 -1 9 -1 21 -1 20 -1 0
2  10 1 11 1 12 -1 2 1 3 -1 0
2  7 1 8 1 9 1 10 1 11 1 12 -1 2 1 3 -1 0
2  20 1 21 1 9 1 10 1 11 1 12 -1 2 1 3 -1 0
1
1.000000000000000 0.000000000000000 0.000000000000000 -146.462047247211274 
0.000000000000000 1.000000000000000 0.000000000000000 101.157642895411811 
0.000000000000000 0.000000000000000 1.000000000000000 0.000000000000000 
2  5 -1 31 -1 0
1
1.000000000000000 0.000000000000000 0.000000000000000 146.462047247211274 
0.000000000000000 1.000000000000000 0.000000000000000 101.157642895411811 
0.000000000000000 0.000000000000000 1.000000000000000 0.000000000000000 
2  5 -1 33 -1 0
1
1.000000000000000 0.000000000000000 0.000000000000000 -56.245501206300993 
0.000000000000000 1.000000000000000 0.000000000000000 168.352884127513505 
0.000000000000000 0.000000000000000 1.000000000000000 0.000000000000000 
2  5 -1 35 -1 0
1
1.000000000000000 0.000000000000000 0.000000000000000 56.245501206300993 
0.000000000000000 1.000000000000000 0.000000000000000 168.352884127513505 
0.000000000000000 0.000000000000000 1.000000000000000 0.000000000000000 
2  5 -1 37 -1 0
2  10 1 11 1 12 -1 16 1 2 1 3 -1 0
2  7 1 8 1 9 1 10 1 11 1 12 -1 16 1 2 1 3 -1 0
2  20 1 21 1 9 1 10 1 11 1 12 -1 16 1 2 1 3 -1 0
2  5 -1 0
Curve2ds 39
1 0.53757250073266782 0.00000000000000000 0.00000000000000000 -1.00000000000000000 
1 6.82075780791225483 0.00000000000000000 0.00000000000000000 -1.00000000000000000 
1 1.57079632679489656 0.00000000000000000 0.00000000000000000 -1.00000000000000000 
1 1.57079632679489656 0.00000000000000000 0.00000000000000000 -1.00000000000000000 
1 0.00000000000000000 0.00000000000000000 1.00000000000000000 0.00000000000000000 
1 0.00000000000000000 -3.00000000000000000 1.00000000000000000 0.00000000000000000 
1 5.43507121257458259 0.00000000000000000 0.00000000000000000 -1.00000000000000000 
1 6.28318530717958978 0.00000000000000000 0.00000000000000000 -1.00000000000000000 
1 0.00000000000000000 0.00000000000000000 1.00000000000000000 0.00000000000000000 
1 0.00000000000000000 -3.00000000000000000 1.00000000000000000 0.00000000000000000 
1 0.53757250073266782 0.00000000000000000 0.00000000000000000 -1.00000000000000000 
1 6.82075780791225483 0.00000000000000000 0.00000000000000000 -1.00000000000000000 
1 0.00000000000000000 0.00000000000000000 1.00000000000000000 0.00000000000000000 
1 0.00000000000000000 -3.00000000000000000 1.00000000000000000 0.00000000000000000 
1 0.00000000000000000 0.00000000000000000 1.00000000000000000 0.00000000000000000 
1 0.00000000000000000 0.00000000000000000 1.00000000000000000 0.00000000000000000 
1 0.00000000000000000 0.00000000000000000 1.00000000000000000 0.00000000000000000 
1 0.00000000000000000 0.00000000000000000 1.00000000000000000 0.00000000000000000 
1 0.00000000000000000 0.00000000000000000 1.00000000000000000 0.00000000000000000 
1 0.00000000000000000 0.00000000000000000 1.00000000000000000 0.00000000000000000 
1 0.00000000000000000 -3.00000000000000000 1.00000000000000000 0.00000000000000000 
1 0.00000000000000000 -3.00000000000000000 1.00000000000000000 0.00000000000000000 
1 0.00000000000000000 -3.00000000000000000 1.00000000000000000 0.00000000000000000 
1 0.00000000000000000 -3.00000000000000000 1.00000000000000000 0.00000000000000000 
1 0.00000000000000000 -3.00000000000000000 1.00000000000000000 0.00000000000000000 
1 6.28318530717958623 3.00000000000000000 -1.00000000000000000 0.00000000000000000 
1 6.28318530717958623 3.00000000000000000 -1.00000000000000000 0.00000000000000000 
1 6.28318530717958623 3.00000000000000000 -1.00000000000000000 0.00000000000000000 
1 6.28318530717958623 3.00000000000000000 -1.00000000000000000 0.00000000000000000 
1 4.55964175914443359 0.00000000000000000 0.00000000000000000 -1.00000000000000000 
1 0.64586053017777578 0.00000000000000000 0.00000000000000000 -1.00000000000000000 
1 5.43507121257458259 0.00000000000000000 0.00000000000000000 -1.00000000000000000 
1 6.28318530717958978 0.00000000000000000 0.00000000000000000 -1.00000000000000000 
1 1.57079632679489656 0.00000000000000000 0.00000000000000000 -1.00000000000000000 
1 1.57079632679489656 0.00000000000000000 0.00000000000000000 -1.00000000000000000 
1 4.55964175914443359 0.00000000000000000 0.00000000000000000 -1.00000000000000000 
1 0.64586053017777578 0.00000000000000000 0.00000000000000000 -1.00000000000000000 
1 6.28318530717958623 0.00000000000000000 0.00000000000000000 1.00000000000000000 
1 0.00000000000000000 0.00000000000000000 0.00000000000000000 1.00000000000000000 
Curves 36
1 -158.90653028371031041 94.72969245802636351 0.00000000000000000 0.00000000000000000 0.00000000000000000 1.00000000000000000 
1 0.00000000000000000 185.00000000000000000 0.00000000000000000 0.00000000000000000 0.00000000000000000 1.00000000000000000 
2 0.00000000000000000 0.00000000000000000 0.00000000000000000 0.00000000000000000 0.00000000000000000 -1.00000000000000000 -1.00000000000000000 -0.00000000000000000 -0.00000000000000000 -0.00000000000000000 1.00000000000000000 0.00000000000000000 185.00000000000000000
2 0.00000000000000000 0.00000000000000000 0.00000000000000000 0.00000000000000000 0.00000000000000000 -1.00000000000000000 -1.00000000000000000 -0.00000000000000000 -0.00000000000000000 -0.00000000000000000 1.00000000000000000 0.00000000000000000 185.00000000000000000
1 -158.41264177722013073 91.57447546864781884 0.00000000000000000 0.00000000000000000 0.00000000000000000 1.00000000000000000 
2 -156.75914473933582372 93.44956147886384201 0.00000000000000000 0.00000000000000000 0.00000000000000000 -1.00000000000000000 -1.00000000000000000 -0.00000000000000000 -0.00000000000000000 -0.00000000000000000 1.00000000000000000 0.00000000000000000 2.50000000000000000
2 -156.75914473933582372 93.44956147886384201 0.00000000000000000 0.00000000000000000 0.00000000000000000 -1.00000000000000000 -1.00000000000000000 -0.00000000000000000 -0.00000000000000000 -0.00000000000000000 1.00000000000000000 0.00000000000000000 2.50000000000000000
1 158.90653028371031041 94.72969245802636351 0.00000000000000000 0.00000000000000000 0.00000000000000000 1.00000000000000000 
2 0.00000000000000000 0.00000000000000000 0.00000000000000000 0.00000000000000000 0.00000000000000000 1.00000000000000000 1.00000000000000000 0.00000000000000000 -0.00000000000000000 -0.00000000000000000 1.00000000000000000 0.00000000000000000 185.00000000000000000
2 0.00000000000000000 0.00000000000000000 0.00000000000000000 0.00000000000000000 0.00000000000000000 1.00000000000000000 1.00000000000000000 0.00000000000000000 -0.00000000000000000 -0.00000000000000000 1.00000000000000000 0.00000000000000000 185.00000000000000000
3 -145.18466547414581669 106.57516355037610367 0.00000000000000000 0.00000000000000000 0.00000000000000000 -1.00000000000000000 -0.66139881515371457 -0.75003440408641431 -0.00000000000000000 -0.75003440408641431 0.66139881515371457 0.00000000000000000 20.00000000000000000 10.00000000000001066
2 156.75914473933582372 93.44956147886384201 0.00000000000000000 0.00000000000000000 0.00000000000000000 1.00000000000000000 1.00000000000000000 0.00000000000000000 -0.00000000000000000 -0.00000000000000000 1.00000000000000000 0.00000000000000000 2.50000000000000000
2 0.00000000000000000 0.00000000000000000 0.00000000000000000 0.00000000000000000 0.00000000000000000 -1.00000000000000000 -1.00000000000000000 -0.00000000000000000 -0.00000000000000000 -0.00000000000000000 1.00000000000000000 0.00000000000000000 170.00000000000000000
3 145.18466547414581669 106.57516355037610367 0.00000000000000000 -0.00000000000000000 0.00000000000000000 1.00000000000000000 0.66139881515371457 -0.75003440408641431 0.00000000000000000 0.75003440408641431 0.66139881515371457 0.00000000000000000 20.00000000000000000 10.00000000000001066
2 0.00000000000000000 0.00000000000000000 0.00000000000000000 0.00000000000000000 0.00000000000000000 1.00000000000000000 1.00000000000000000 0.00000000000000000 -0.00000000000000000 -0.00000000000000000 1.00000000000000000 0.00000000000000000 170.00000000000000000
2 0.00000000000000000 0.00000000000000000 0.00000000000000000 0.00000000000000000 0.00000000000000000 -1.00000000000000000 -1.00000000000000000 0.00000000000000000 0.00000000000000000 0.00000000000000000 1.00000000000000000 0.00000000000000000 1.69999999999999996
2 0.00000000000000000 0.00000000000000000 0.00000000000000000 0.00000000000000000 0.00000000000000000 -1.00000000000000000 -1.00000000000000000 0.00000000000000000 0.00000000000000000 0.00000000000000000 1.00000000000000000 0.00000000000000000 1.69999999999999996
2 0.00000000000000000 0.00000000000000000 0.00000000000000000 0.00000000000000000 0.00000000000000000 -1.00000000000000000 -1.00000000000000000 0.00000000000000000 0.00000000000000000 0.00000000000000000 1.00000000000000000 0.00000000000000000 1.69999999999999996
2 0.00000000000000000 0.00000000000000000 0.00000000000000000 0.00000000000000000 0.00000000000000000 -1.00000000000000000 -1.00000000000000000 0.00000000000000000 0.00000000000000000 0.00000000000000000 1.00000000000000000 0.00000000000000000 1.69999999999999996
3 -145.18466547414581669 106.57516355037610367 0.00000000000000000 0.00000000000000000 0.00000000000000000 -1.00000000000000000 -0.66139881515371457 -0.75003440408641431 -0.00000000000000000 -0.75003440408641431 0.66139881515371457 0.00000000000000000 20.00000000000000000 10.00000000000001066
2 156.75914473933582372 93.44956147886384201 0.00000000000000000 0.00000000000000000 0.00000000000000000 1.00000000000000000 1.00000000000000000 0.00000000000000000 -0.00000000000000000 -0.00000000000000000 1.00000000000000000 0.00000000000000000 2.50000000000000000
2 0.00000000000000000 0.00000000000000000 0.00000000000000000 0.00000000000000000 0.00000000000000000 -1.00000000000000000 -1.00000000000000000 -0.00000000000000000 -0.00000000000000000 -0.00000000000000000 1.00000000000000000 0.00000000000000000 170.00000000000000000
3 145.18466547414581669 106.57516355037610367 0.00000000000000000 -0.00000000000000000 0.00000000000000000 1.00000000000000000 0.66139881515371457 -0.75003440408641431 0.00000000000000000 0.75003440408641431 0.66139881515371457 0.00000000000000000 20.00000000000000000 10.00000000000001066
2 0.00000000000000000 0.00000000000000000 0.00000000000000000 0.00000000000000000 0.00000000000000000 1.00000000000000000 1.00000000000000000 0.00000000000000000 -0.00000000000000000 -0.00000000000000000 1.00000000000000000 0.00000000000000000 170.00000000000000000
2 -146.46204724721127377 101.15764289541181142 3.00000000000000000 0.00000000000000000 0.00000000000000000 1.00000000000000000 -1.00000000000000000 0.00000000000000000 0.00000000000000000 0.00000000000000000 -1.00000000000000000 0.00000000000000000 1.69999999999999996
2 146.46204724721127377 101.15764289541181142 3.00000000000000000 0.00000000000000000 0.00000000000000000 1.00000000000000000 -1.00000000000000000 0.00000000000000000 0.00000000000000000 0.00000000000000000 -1.00000000000000000 0.00000000000000000 1.69999999999999996
2 -56.24550120630099315 168.35288412751350506 3.00000000000000000 0.00000000000000000 0.00000000000000000 1.00000000000000000 -1.00000000000000000 0.00000000000000000 0.00000000000000000 0.00000000000000000 -1.00000000000000000 0.00000000000000000 1.69999999999999996
2 56.24550120630099315 168.35288412751350506 3.00000000000000000 0.00000000000000000 0.00000000000000000 1.00000000000000000 -1.00000000000000000 0.00000000000000000 0.00000000000000000 0.00000000000000000 -1.00000000000000000 0.00000000000000000 1.69999999999999996
1 -135.75896069513510156 102.32059710037250966 0.00000000000000000 0.00000000000000000 0.00000000000000000 1.00000000000000000 
1 158.41264177722013073 91.57447546864781884 0.00000000000000000 0.00000000000000000 0.00000000000000000 1.00000000000000000 
1 0.00000000000000000 170.00000000000000000 0.00000000000000000 0.00000000000000000 0.00000000000000000 1.00000000000000000 
1 135.75896069513510156 102.32059710037250966 0.00000000000000000 0.00000000000000000 0.00000000000000000 1.00000000000000000 
1 -1.69999999999999996 0.00000000000000000 0.00000000000000000 0.00000000000000006 0.00000000000000000 1.00000000000000000 
1 -1.69999999999999996 0.00000000000000000 0.00000000000000000 0.00000000000000006 0.00000000000000000 1.00000000000000000 
1 -1.69999999999999996 0.00000000000000000 0.00000000000000000 0.00000000000000006 0.00000000000000000 1.00000000000000000 
1 -1.69999999999999996 0.00000000000000000 0.00000000000000000 0.00000000000000006 0.00000000000000000 1.00000000000000000 
Polygon3D 0
PolygonOnTriangulations 0
Surfaces 14
2 0.00000000000000000 0.00000000000000000 0.00000000000000000 0.00000000000000000 0.00000000000000000 -1.00000000000000000 -1.00000000000000000 -0.00000000000000000 -0.00000000000000000 -0.00000000000000000 1.00000000000000000 0.00000000000000000 185.00000000000000000
2 -156.75914473933582372 93.44956147886384201 0.00000000000000000 0.00000000000000000 0.00000000000000000 -1.00000000000000000 -1.00000000000000000 -0.00000000000000000 -0.00000000000000000 -0.00000000000000000 1.00000000000000000 0.00000000000000000 2.50000000000000000
2 0.00000000000000000 0.00000000000000000 0.00000000000000000 -0.00000000000000000 -0.00000000000000000 -1.00000000000000000 1.00000000000000000 0.00000000000000000 0.00000000000000000 -0.00000000000000000 1.00000000000000000 -0.00000000000000000 185.00000000000000000
6 -0.00000000000000000 -0.00000000000000000 -1.00000000000000000 
3 -145.18466547414581669 106.57516355037610367 0.00000000000000000 0.00000000000000000 0.00000000000000000 -1.00000000000000000 -0.66139881515371457 -0.75003440408641431 -0.00000000000000000 -0.75003440408641431 0.66139881515371457 0.00000000000000000 20.00000000000000000 10.00000000000001066
2 156.75914473933582372 93.44956147886384201 0.00000000000000000 -0.00000000000000000 -0.00000000000000000 -1.00000000000000000 1.00000000000000000 0.00000000000000000 0.00000000000000000 -0.00000000000000000 1.00000000000000000 -0.00000000000000000 2.50000000000000000
1 -0.00000000000000254 144.84836341909760904 0.00000000000000000 0.00000000000000000 0.00000000000000000 1.00000000000000000 1.00000000000000000 0.00000000000000000 -0.00000000000000000 -0.00000000000000000 1.00000000000000000 0.00000000000000000 
2 0.00000000000000000 0.00000000000000000 0.00000000000000000 0.00000000000000000 0.00000000000000000 -1.00000000000000000 -1.00000000000000000 -0.00000000000000000 -0.00000000000000000 -0.00000000000000000 1.00000000000000000 0.00000000000000000 170.00000000000000000
6 -0.00000000000000000 -0.00000000000000000 -1.00000000000000000 
3 145.18466547414581669 106.57516355037610367 0.00000000000000000 -0.00000000000000000 0.00000000000000000 1.00000000000000000 0.66139881515371457 -0.75003440408641431 0.00000000000000000 0.75003440408641431 0.66139881515371457 0.00000000000000000 20.00000000000000000 10.00000000000001066
2 0.00000000000000000 0.00000000000000000 0.00000000000000000 -0.00000000000000000 -0.00000000000000000 -1.00000000000000000 1.00000000000000000 0.00000000000000000 0.00000000000000000 -0.00000000000000000 1.00000000000000000 -0.00000000000000000 170.00000000000000000
2 0.00000000000000000 0.00000000000000000 0.00000000000000000 0.00000000000000000 0.00000000000000000 1.00000000000000000 -1.00000000000000000 0.00000000000000000 0.00000000000000000 -0.00000000000000000 1.00000000000000000 -0.00000000000000000 1.69999999999999996
2 0.00000000000000000 0.00000000000000000 0.00000000000000000 0.00000000000000000 0.00000000000000000 1.00000000000000000 -1.00000000000000000 0.00000000000000000 0.00000000000000000 -0.00000000000000000 1.00000000000000000 -0.00000000000000000 1.69999999999999996
2 0.00000000000000000 0.00000000000000000 0.00000000000000000 0.00000000000000000 0.00000000000000000 1.00000000000000000 -1.00000000000000000 0.00000000000000000 0.00000000000000000 -0.00000000000000000 1.00000000000000000 -0.00000000000000000 1.69999999999999996
2 0.00000000000000000 0.00000000000000000 0.00000000000000000 0.00000000000000000 0.00000000000000000 1.00000000000000000 -1.00000000000000000 0.00000000000000000 0.00000000000000000 -0.00000000000000000 1.00000000000000000 -0.00000000000000000 1.69999999999999996
1 -0.00000000000000254 144.84836341909760904 0.00000000000000000 0.00000000000000000 0.00000000000000000 1.00000000000000000 1.00000000000000000 0.00000000000000000 -0.00000000000000000 -0.00000000000000000 1.00000000000000000 0.00000000000000000 
Triangulations 0

TShapes 98
Ve
0.000000100000014
-158.906530283710310 94.729692458026364 0.000000000000000
0 0

0101101
*
Ve
0.000000100000014
-158.906530283710310 94.729692458026364 3.000000000000000
0 0

0101101
*
Ed
 0.000000100000014 1 1 0
1  1 0 0.000000000000000 3.000000000000000
2  1 1 0 0.000000000000000 3.000000000000000
2  2 2 0 0.000000000000000 3.000000000000000
4 G1 1 0 2 0
0

0101000
+98 6 -97 6 *
Ve
0.000000100000011
0.000000000000000 185.000000000000000 0.000000000000000
0 0

0101101
*
Ve
0.000000100000011
0.000000000000000 185.000000000000000 3.000000000000000
0 0

0101101
*
Ed
 0.000000100000011 1 1 0
1  2 0 0.000000000000000 3.000000000000000
2  3 1 0 0.000000000000000 3.000000000000000
2  4 3 0 0.000000000000000 3.000000000000000
4 C2 1 0 3 0
0

0101000
+95 6 -94 6 *
Ed
 0.000000100000000 1 1 0
1  3 0 0.537572500732668 1.570796326794897
2  5 1 14 0.537572500732668 1.570796326794897
0

0101000
+98 15 -95 15 *
Ed
 0.000000100000000 1 1 0
1  4 0 0.537572500732668 1.570796326794897
2  6 1 18 0.537572500732668 1.570796326794897
0

0101000
+97 19 -94 19 *
Wi

0101100
+96 0 -93 0 -92 13 +91 17 *
Fa
0  0.000000100000000 1 0

0101000
+90 0 *
Ve
0.000000100000007
-158.412641777220131 91.574475468647819 0.000000000000000
0 0

0101101
*
Ve
0.000000100000007
-158.412641777220131 91.574475468647819 3.000000000000000
0 0

0101101
*
Ed
 0.000000100000007 1 1 0
1  5 0 0.000000000000000 3.000000000000000
2  7 2 0 0.000000000000000 3.000000000000000
2  8 4 0 0.000000000000000 3.000000000000000
4 G1 2 0 4 0
0

0101000
+88 6 -87 6 *
Ed
 0.000000100000000 1 1 0
1  6 0 5.435071212574583 6.820757807912255
2  9 2 14 5.435071212574583 6.820757807912255
0

0101000
+88 15 -98 15 *
Ed
 0.000000100000000 1 1 0
1  7 0 5.435071212574583 6.820757807912255
2  10 2 18 5.435071212574583 6.820757807912255
0

0101000
+87 19 -97 19 *
Wi

0101100
+86 0 -96 0 -85 13 +84 17 *
Fa
0  0.000000100000000 2 0

0101000
+83 0 *
Ve
0.000000100000014
158.906530283710310 94.729692458026364 0.000000000000000
0 0

0101101
*
Ve
0.000000100000014
158.906530283710310 94.729692458026364 3.000000000000000
0 0

0101101
*
Ed
 0.000000100000014 1 1 0
1  8 0 0.000000000000000 3.000000000000000
2  11 3 0 0.000000000000000 3.000000000000000
2  12 5 0 0.000000000000000 3.000000000000000
4 G1 3 0 5 0
0

0101000
+81 6 -80 6 *
Ed
 0.000000100000000 1 1 0
1  9 0 0.537572500732668 1.570796326794897
2  13 3 23 0.537572500732668 1.570796326794897
0

0101000
+81 24 -95 24 *
Ed
 0.000000100000000 1 1 0
1  10 0 0.537572500732668 1.570796326794897
2  14 3 26 0.537572500732668 1.570796326794897
0

0101000
+80 27 -94 27 *
Wi

0101100
+79 0 -93 0 -78 22 +77 25 *
Fa
0  0.000000100000000 3 0

0101000
+76 0 *
Ve
0.000000100000032
-135.758960695135102 102.320597100372510 0.000000000000000
0 0

0101101
*
Ed
 0.000000100000000 1 1 0
1  11 0 4.559641759144434 6.283185307179590
2  15 4 14 4.559641759144434 6.283185307179590
0

0101000
+74 15 -88 15 *
Ve
0.000000100000007
158.412641777220131 91.574475468647819 0.000000000000000
0 0

0101101
*
Ed
 0.000000100000000 1 1 0
1  12 0 5.435071212574583 6.820757807912255
2  16 5 23 5.435071212574583 6.820757807912255
0

0101000
+72 24 -81 24 *
Ve
0.000000100000010
0.000000000000000 170.000000000000000 0.000000000000000
0 0

0101101
*
Ed
 0.000000100000000 1 1 0
1  13 0 0.645860530177776 1.570796326794897
2  17 7 14 0.645860530177776 1.570796326794897
0

0101000
+74 15 -70 15 *
Ve
0.000000100000032
135.758960695135102 102.320597100372510 0.000000000000000
0 0

0101101
*
Ed
 0.000000100000000 1 1 0
1  14 0 4.559641759144434 6.283185307179590
2  18 8 23 4.559641759144434 6.283185307179590
0

0101000
+68 24 -72 24 *
Ed
 0.000000100000000 1 1 0
1  15 0 0.645860530177776 1.570796326794897
2  19 9 23 0.645860530177776 1.570796326794897
0

0101000
+68 24 -70 24 *
Wi

0101100
-92 29 -85 29 +78 30 -73 29 +71 30 +69 29 +67 30 -66 30 *
Ve
0.000000100000000
-148.162047247211262 101.157642895411811 0.000000000000000
0 0

0101101
*
Ed
 0.000000100000000 1 1 0
1  16 0 0.000000000000000 6.283185307179586
2  20 10 0 0.000000000000000 6.283185307179586
0

0101000
+64 32 -64 32 *
Wi

0101100
+63 31 *
Ve
0.000000100000000
144.762047247211285 101.157642895411811 0.000000000000000
0 0

0101101
*
Ed
 0.000000100000000 1 1 0
1  17 0 0.000000000000000 6.283185307179586
2  20 11 0 0.000000000000000 6.283185307179586
0

0101000
+61 34 -61 34 *
Wi

0101100
+60 33 *
Ve
0.000000100000000
-57.945501206300996 168.352884127513505 0.000000000000000
0 0

0101101
*
Ed
 0.000000100000000 1 1 0
1  18 0 0.000000000000000 6.283185307179586
2  20 12 0 0.000000000000000 6.283185307179586
0

0101000
+58 36 -58 36 *
Wi

0101100
+57 35 *
Ve
0.000000100000000
54.545501206300990 168.352884127513505 0.000000000000000
0 0

0101101
*
Ed
 0.000000100000000 1 1 0
1  19 0 0.000000000000000 6.283185307179586
2  20 13 0 0.000000000000000 6.283185307179586
0

0101000
+55 38 -55 38 *
Wi

0101100
+54 37 *
Fa
0  0.000000100000000 6 28

0101000
+65 0 +62 0 +59 0 +56 0 +53 0 *
Ve
0.000000100000032
-135.758960695135102 102.320597100372510 3.000000000000000
0 0

0101101
*
Ed
 0.000000100000000 1 1 0
1  20 0 4.559641759144434 6.283185307179590
2  21 4 18 4.559641759144434 6.283185307179590
0

0101000
+51 19 -87 19 *
Ve
0.000000100000007
158.412641777220131 91.574475468647819 3.000000000000000
0 0

0101101
*
Ed
 0.000000100000000 1 1 0
1  21 0 5.435071212574583 6.820757807912255
2  22 5 26 5.435071212574583 6.820757807912255
0

0101000
+49 27 -80 27 *
Ve
0.000000100000010
0.000000000000000 170.000000000000000 3.000000000000000
0 0

0101101
*
Ed
 0.000000100000000 1 1 0
1  22 0 0.645860530177776 1.570796326794897
2  23 7 18 0.645860530177776 1.570796326794897
0

0101000
+51 19 -47 19 *
Ve
0.000000100000032
135.758960695135102 102.320597100372510 3.000000000000000
0 0

0101101
*
Ed
 0.000000100000000 1 1 0
1  23 0 4.559641759144434 6.283185307179590
2  24 8 26 4.559641759144434 6.283185307179590
0

0101000
+45 27 -49 27 *
Ed
 0.000000100000000 1 1 0
1  24 0 0.645860530177776 1.570796326794897
2  25 9 26 0.645860530177776 1.570796326794897
0

0101000
+45 27 -47 27 *
Wi

0101100
-91 40 -84 40 +77 41 -50 40 +48 41 +46 40 +44 41 -43 41 *
Ve
0.000000100000000
-148.162047247211262 101.157642895411811 3.000000000000000
0 0

0101101
*
Ed
 0.000000100000000 1 1 0
1  25 0 0.000000000000000 6.283185307179586
2  26 10 31 0.000000000000000 6.283185307179586
0

0101100
+41 42 -41 42 *
Wi

0101100
-40 0 *
Ve
0.000000100000000
144.762047247211285 101.157642895411811 3.000000000000000
0 0

0101101
*
Ed
 0.000000100000000 1 1 0
1  26 0 0.000000000000000 6.283185307179586
2  27 11 33 0.000000000000000 6.283185307179586
0

0101100
+38 42 -38 42 *
Wi

0101100
-37 0 *
Ve
0.000000100000000
-57.945501206300996 168.352884127513505 3.000000000000000
0 0

0101101
*
Ed
 0.000000100000000 1 1 0
1  27 0 0.000000000000000 6.283185307179586
2  28 12 35 0.000000000000000 6.283185307179586
0

0101100
+35 42 -35 42 *
Wi

0101100
-34 0 *
Ve
0.000000100000000
54.545501206300990 168.352884127513505 3.000000000000000
0 0

0101101
*
Ed
 0.000000100000000 1 1 0
1  28 0 0.000000000000000 6.283185307179586
2  29 13 37 0.000000000000000 6.283185307179586
0

0101100
+32 42 -32 42 *
Wi

0101100
-31 0 *
Fa
0  0.000000100000000 14 39

0101000
+42 0 +39 0 +36 0 +33 0 +30 0 *
Ed
 0.000000100000032 1 1 0
1  29 0 0.000000000000000 3.000000000000000
2  30 4 0 0.000000000000000 3.000000000000000
2  31 7 0 0.000000000000000 3.000000000000000
4 G1 4 0 7 0
0

0101000
+74 6 -51 6 *
Wi

0101100
+28 0 -86 0 -73 13 +50 17 *
Fa
0  0.000000100000000 4 0

0101000
+27 0 *
Ed
 0.000000100000007 1 1 0
1  30 0 0.000000000000000 3.000000000000000
2  32 5 0 0.000000000000000 3.000000000000000
2  33 8 0 0.000000000000000 3.000000000000000
4 G1 5 0 8 0
0

0101000
+72 6 -49 6 *
Wi

0101100
+25 0 -79 0 -71 22 +48 25 *
Fa
0  0.000000100000000 5 0

0101000
+24 0 *
Ed
 0.000000100000010 1 1 0
1  31 0 0.000000000000000 3.000000000000000
2  34 7 0 0.000000000000000 3.000000000000000
2  35 9 0 0.000000000000000 3.000000000000000
4 C2 7 0 9 0
0

0101000
+70 6 -47 6 *
Wi

0101100
+28 0 -22 0 -69 13 +46 17 *
Fa
0  0.000000100000000 7 0

0101000
+21 0 *
Ed
 0.000000100000032 1 1 0
1  32 0 0.000000000000000 3.000000000000000
2  36 8 0 0.000000000000000 3.000000000000000
2  37 9 0 0.000000000000000 3.000000000000000
4 G1 8 0 9 0
0

0101000
+68 6 -45 6 *
Wi

0101100
+19 0 -25 0 -67 22 +44 25 *
Fa
0  0.000000100000000 8 0

0101000
+18 0 *
Wi

0101100
+19 0 -22 0 -66 22 +43 25 *
Fa
0  0.000000100000000 9 0

0101000
+16 0 *
Ed
 0.000000100000000 1 1 0
1  33 0 0.000000000000000 3.000000000000000
3  38 39CN 10 0 0.000000000000000 3.000000000000000
0

0101000
+64 32 -41 32 *
Wi

0101100
-14 31 +40 0 +14 31 +63 31 *
Fa
0  0.000000100000000 10 31

0101000
+13 0 *
Ed
 0.000000100000000 1 1 0
1  34 0 0.000000000000000 3.000000000000000
3  38 39CN 11 0 0.000000000000000 3.000000000000000
0

0101000
+61 34 -38 34 *
Wi

0101100
-11 33 +37 0 +11 33 +60 33 *
Fa
0  0.000000100000000 11 33

0101000
+10 0 *
Ed
 0.000000100000000 1 1 0
1  35 0 0.000000000000000 3.000000000000000
3  38 39CN 12 0 0.000000000000000 3.000000000000000
0

0101000
+58 36 -35 36 *
Wi

0101100
-8 35 +34 0 +8 35 +57 35 *
Fa
0  0.000000100000000 12 35

0101000
+7 0 *
Ed
 0.000000100000000 1 1 0
1  36 0 0.000000000000000 3.000000000000000
3  38 39CN 13 0 0.000000000000000 3.000000000000000
0

0101000
+55 38 -32 38 *
Wi

0101100
-5 37 +31 0 +5 37 +54 37 *
Fa
0  0.000000100000000 13 37

0101000
+4 0 *
Sh

0101100
+89 4 +82 4 -75 4 -52 0 +29 0 +26 4 -23 4 -20 4 -17 4 +15 4 
+12 0 +9 0 +6 0 +3 0 *
So

1100000
+2 0 *

+1 1 