
CASCADE Topology V1, (c) Matra-Datavision
Locations 4
1
1.000000000000000 0.000000000000000 0.000000000000000 0.000000000000000 
0.000000000000000 1.000000000000000 0.000000000000000 -0.000000000000354 
0.000000000000000 0.000000000000000 1.000000000000000 1192.000000000027740 
1
1.000000000000000 0.000000000000000 0.000000000000000 -12.499999999999966 
0.000000000000000 1.000000000000000 0.000000000000000 -0.000000000000354 
0.000000000000000 0.000000000000000 1.000000000000000 1124.000000000000000 
1
1.000000000000000 0.000000000000000 0.000000000000000 0.000000000000000 
0.000000000000000 1.000000000000000 0.000000000000000 0.000000000000000 
0.000000000000000 0.000000000000000 1.000000000000000 -11.000000000000000 
1
1.000000000000000 0.000000000000000 0.000000000000000 12.500000000098648 
0.000000000000000 1.000000000000000 0.000000000000000 0.000000000000000 
0.000000000000000 0.000000000000000 1.000000000000000 1123.999999999998636 
Curve2ds 9
2 0.00000000000000000 0.00000000000000000 -1.00000000000000000 0.00000000000000000 0.00000000000000000 1.00000000000000000 1.69999999999999996
1 0.00000000000000000 0.00000000000000000 1.00000000000000000 0.00000000000000000 
1 0.00000000000000000 3134.47982058813249751 1.00000000000000000 0.00000000000000000 
1 0.00000000000000000 0.00000000000000000 1.00000000000000000 0.00000000000000000 
1 6.28318530717958623 0.00000000000000000 0.00000000000000000 1.00000000000000000 
1 0.00000000000000000 0.00000000000000000 0.00000000000000000 1.00000000000000000 
1 0.00000000000000000 1.98327677526593016 1.00000000000000000 0.00000000000000000 
1 6.28318530717958623 0.00000000000000000 0.00000000000000000 1.00000000000000000 
1 0.00000000000000000 0.00000000000000000 0.00000000000000000 1.00000000000000000 
Curves 4
2 0.00000000000000000 0.00000000000000000 0.00000000000000000 -0.00000000000000000 -1.00000000000000000 0.00000000000000000 -1.00000000000000000 0.00000000000000000 0.00000000000000000 -0.00000000000000000 -0.00000000000000000 -1.00000000000000000 1.69999999999999996
2 0.00000000000000000 3134.47982058813249751 -0.00000000000000000 -0.00000000000000000 -1.00000000000000000 0.00000000000000000 -1.00000000000000000 0.00000000000000000 -0.00000000000000000 0.00000000000000000 -0.00000000000000000 -1.00000000000000000 1.69999999999980811
1 -1.69999999999999996 0.00000000000000000 0.00000000000000000 0.00000000000000006 1.00000000000000000 -0.00000000000000000 
1 -1.69999999999980811 3134.47982058813249751 -0.00000000000000000 0.85716730070207237 0.51503807491012066 -0.00000000000000000 
Polygon3D 0
PolygonOnTriangulations 0
Surfaces 3
1 0.00000000000000000 0.00000000000000000 0.00000000000000000 -0.00000000000000000 -1.00000000000000000 0.00000000000000000 1.00000000000000000 -0.00000000000000000 -0.00000000000000000 -0.00000000000000000 -0.00000000000000000 -1.00000000000000000 
2 0.00000000000000000 0.00000000000000000 0.00000000000000000 0.00000000000000000 1.00000000000000000 -0.00000000000000000 -1.00000000000000000 0.00000000000000000 0.00000000000000000 -0.00000000000000000 -0.00000000000000000 -1.00000000000000000 1.69999999999999996
3 0.00000000000000000 3134.47982058813249751 -0.00000000000000000 0.00000000000000000 1.00000000000000000 -0.00000000000000000 -1.00000000000000000 0.00000000000000000 -0.00000000000000000 -0.00000000000000000 -0.00000000000000000 -1.00000000000000000 1.69999999999980811
-1.02974425867657704
Triangulations 0

TShapes 17
Ve
0.000000100000000
-1.700000000000000 0.000000000000000 0.000000000000000
0 0

0101101
*
Ed
 0.000000100000000 1 1 0
1  1 0 0.000000000000000 6.283185307179586
2  1 1 0 0.000000000000000 6.283185307179586
2  2 2 0 0.000000000000000 6.283185307179586
0

0101000
+17 0 -17 0 *
Wi

0101100
-16 0 *
Fa
0  0.000000100000000 1 0

0101000
+15 0 *
Ve
0.000000100000000
-1.699999999999808 3134.479820588132498 -0.000000000000000
0 0

0101101
*
Ed
 0.000000100000000 1 1 0
1  2 0 0.000000000000000 6.283185307179586
2  3 2 0 0.000000000000000 6.283185307179586
2  4 3 0 0.000000000000000 6.283185307179586
0

0101000
+13 0 -13 0 *
Ed
 0.000000100000000 1 1 0
1  3 0 0.000000000000000 3134.479820588132498
3  5 6CN 2 0 0.000000000000000 3134.479820588132498
0

0101000
+17 0 -13 0 *
Wi

0101100
+16 0 -12 0 -11 0 +11 0 *
Fa
0  0.000000100000000 2 0

0101000
+10 0 *
Ve
0.000000100000000
0.000000000000000 3135.501283640479414 -0.000000000000000
0 0

0101101
*
Ed
 0.000000100000000 1 1 1
2  7 3 0 0.000000000000000 6.283185307179586
0

0101000
+8 0 -8 0 *
Ed
 0.000000100000000 1 1 0
1  4 0 0.000000000000000 1.983276775265930
3  8 9CN 3 0 0.000000000000000 1.983276775265930
0

0101000
+13 0 -8 0 *
Wi

0101100
+12 0 -7 0 -6 0 +6 0 *
Fa
0  0.000000100000000 3 0

0101000
+5 0 *
Sh

0101100
+14 0 +9 0 +4 0 *
So

0100000
-3 0 *
Co

1100000
+2 1 +2 2 +2 3 +2 4 *

+1 0 