
CASCADE Topology V1, (c) Matra-Datavision
Locations 13
1
1.000000000000000 0.000000000000000 0.000000000000000 0.000000000000000 
0.000000000000000 1.000000000000000 0.000000000000000 0.000000000000000 
0.000000000000000 0.000000000000000 1.000000000000000 0.000000000000000 
1
1.000000000000000 0.000000000000000 0.000000000000000 0.000000000000000 
0.000000000000000 1.000000000000000 0.000000000000000 0.000000000000000 
0.000000000000000 0.000000000000000 1.000000000000000 0.000000000000000 
1
1.000000000000000 0.000000000000000 0.000000000000000 0.000000000000000 
0.000000000000000 1.000000000000000 0.000000000000000 0.000000000000000 
0.000000000000000 0.000000000000000 1.000000000000000 0.000000000000000 
1
1.000000000000000 0.000000000000000 0.000000000000000 0.000000000000000 
0.000000000000000 1.000000000000000 0.000000000000000 0.000000000000000 
0.000000000000000 0.000000000000000 1.000000000000000 0.000000000000000 
2  2 1 3 1 4 -1 0
1
1.000000000000000 0.000000000000000 0.000000000000000 0.000000000000000 
0.000000000000000 1.000000000000000 0.000000000000000 0.000000000000000 
0.000000000000000 0.000000000000000 1.000000000000000 6.000000000000000 
2  2 1 3 1 4 -1 6 1 0
2  4 1 3 -1 2 -1 0
2  6 -1 4 1 3 -1 2 -1 0
2  3 -1 2 -1 0
2  4 -1 0
2  2 1 3 1 0
2  4 -1 6 1 0
Curve2ds 24
1 3.14159265358979356 0.00000000000000000 0.00000000000000000 -1.00000000000000000 
1 4.71238898038468967 0.00000000000000000 0.00000000000000000 -1.00000000000000000 
1 0.00000000000000000 0.00000000000000000 1.00000000000000000 0.00000000000000000 
1 0.00000000000000000 -6.00000000000000000 1.00000000000000000 0.00000000000000000 
2 -22.52499999999999147 -15.00000000000000000 1.00000000000000000 0.00000000000000000 -0.00000000000000000 1.00000000000000000 9.00000000000000000
1 4.71238898038468967 0.00000000000000000 0.00000000000000000 -1.00000000000000000 
1 22.52499999999999503 -24.00000000000000000 -1.00000000000000000 0.00000000000000000 
1 6.28318530717958623 0.00000000000000000 0.00000000000000000 -1.00000000000000000 
1 0.00000000000000000 0.00000000000000000 1.00000000000000000 0.00000000000000000 
1 0.00000000000000000 -6.00000000000000000 1.00000000000000000 0.00000000000000000 
2 22.52499999999999503 -15.00000000000000000 1.00000000000000000 0.00000000000000000 -0.00000000000000000 1.00000000000000000 9.00000000000000000
1 0.00000000000000020 0.00000000000000000 0.00000000000000000 -1.00000000000000000 
1 31.52499999999999503 15.00000000000000178 0.00000000000000000 -1.00000000000000000 
1 1.57079632679489634 0.00000000000000000 0.00000000000000000 -1.00000000000000000 
1 0.00000000000000000 0.00000000000000000 1.00000000000000000 0.00000000000000000 
1 0.00000000000000000 -6.00000000000000000 1.00000000000000000 0.00000000000000000 
2 22.52499999999999503 15.00000000000000000 1.00000000000000000 0.00000000000000000 -0.00000000000000000 1.00000000000000000 9.00000000000000000
1 1.57079632679489678 0.00000000000000000 0.00000000000000000 -1.00000000000000000 
1 -22.52499999999999147 24.00000000000000000 1.00000000000000000 0.00000000000000000 
1 3.14159265358979312 0.00000000000000000 0.00000000000000000 -1.00000000000000000 
1 0.00000000000000000 0.00000000000000000 1.00000000000000000 0.00000000000000000 
1 0.00000000000000000 -6.00000000000000000 1.00000000000000000 0.00000000000000000 
2 -22.52499999999999147 15.00000000000000000 1.00000000000000000 0.00000000000000000 -0.00000000000000000 1.00000000000000000 9.00000000000000000
1 -31.52499999999999147 -15.00000000000000355 0.00000000000000000 1.00000000000000000 
Curves 16
1 -31.52499999999999147 -15.00000000000000355 0.00000000000000000 0.00000000000000000 0.00000000000000000 1.00000000000000000 
1 -22.52499999999999147 -24.00000000000000000 0.00000000000000000 0.00000000000000000 0.00000000000000000 1.00000000000000000 
2 -22.52499999999999147 -15.00000000000000000 0.00000000000000000 0.00000000000000000 0.00000000000000000 1.00000000000000000 1.00000000000000000 0.00000000000000000 -0.00000000000000000 -0.00000000000000000 1.00000000000000000 0.00000000000000000 9.00000000000000000
1 22.52499999999999503 -24.00000000000000000 0.00000000000000000 0.00000000000000000 0.00000000000000000 1.00000000000000000 
1 22.52499999999999503 -24.00000000000000000 0.00000000000000000 -1.00000000000000000 0.00000000000000000 0.00000000000000000 
1 31.52499999999999503 -15.00000000000000178 0.00000000000000000 0.00000000000000000 0.00000000000000000 1.00000000000000000 
2 22.52499999999999503 -15.00000000000000000 0.00000000000000000 0.00000000000000000 0.00000000000000000 1.00000000000000000 1.00000000000000000 0.00000000000000000 -0.00000000000000000 -0.00000000000000000 1.00000000000000000 0.00000000000000000 9.00000000000000000
1 31.52499999999999503 15.00000000000000178 0.00000000000000000 0.00000000000000000 0.00000000000000000 1.00000000000000000 
1 31.52499999999999503 15.00000000000000178 0.00000000000000000 0.00000000000000000 -1.00000000000000000 0.00000000000000000 
1 22.52499999999999858 24.00000000000000000 0.00000000000000000 0.00000000000000000 0.00000000000000000 1.00000000000000000 
2 22.52499999999999503 15.00000000000000000 0.00000000000000000 0.00000000000000000 0.00000000000000000 1.00000000000000000 1.00000000000000000 0.00000000000000000 -0.00000000000000000 -0.00000000000000000 1.00000000000000000 0.00000000000000000 9.00000000000000000
1 -22.52499999999999147 24.00000000000000000 0.00000000000000000 0.00000000000000000 0.00000000000000000 1.00000000000000000 
1 -22.52499999999999147 24.00000000000000000 0.00000000000000000 1.00000000000000000 0.00000000000000000 0.00000000000000000 
1 -31.52499999999999147 15.00000000000000355 0.00000000000000000 0.00000000000000000 0.00000000000000000 1.00000000000000000 
2 -22.52499999999999147 15.00000000000000000 0.00000000000000000 0.00000000000000000 0.00000000000000000 1.00000000000000000 1.00000000000000000 0.00000000000000000 -0.00000000000000000 -0.00000000000000000 1.00000000000000000 0.00000000000000000 9.00000000000000000
1 -31.52499999999999147 -15.00000000000000355 0.00000000000000000 0.00000000000000000 1.00000000000000000 0.00000000000000000 
Polygon3D 0
PolygonOnTriangulations 0
Surfaces 9
2 -22.52499999999999147 -15.00000000000000000 0.00000000000000000 -0.00000000000000000 -0.00000000000000000 -1.00000000000000000 1.00000000000000000 0.00000000000000000 0.00000000000000000 -0.00000000000000000 1.00000000000000000 -0.00000000000000000 9.00000000000000000
1 -31.52499999999999147 -15.00000000000000355 0.00000000000000000 -1.00000000000000000 0.00000000000000000 0.00000000000000000 0.00000000000000000 1.00000000000000000 0.00000000000000000 0.00000000000000000 0.00000000000000000 -1.00000000000000000 
1 22.52499999999999503 -24.00000000000000000 0.00000000000000000 0.00000000000000000 -1.00000000000000000 0.00000000000000000 -1.00000000000000000 0.00000000000000000 0.00000000000000000 -0.00000000000000000 -0.00000000000000000 -1.00000000000000000 
1 0.00000000000000110 -0.00000000000000014 0.00000000000000000 0.00000000000000000 0.00000000000000000 1.00000000000000000 1.00000000000000000 0.00000000000000000 -0.00000000000000000 -0.00000000000000000 1.00000000000000000 0.00000000000000000 
2 22.52499999999999503 -15.00000000000000000 0.00000000000000000 -0.00000000000000000 -0.00000000000000000 -1.00000000000000000 1.00000000000000000 0.00000000000000000 0.00000000000000000 -0.00000000000000000 1.00000000000000000 -0.00000000000000000 9.00000000000000000
1 31.52499999999999503 15.00000000000000178 0.00000000000000000 1.00000000000000000 0.00000000000000000 -0.00000000000000000 0.00000000000000000 -1.00000000000000000 0.00000000000000000 0.00000000000000000 -0.00000000000000000 -1.00000000000000000 
2 22.52499999999999503 15.00000000000000000 0.00000000000000000 -0.00000000000000000 -0.00000000000000000 -1.00000000000000000 1.00000000000000000 0.00000000000000000 0.00000000000000000 -0.00000000000000000 1.00000000000000000 -0.00000000000000000 9.00000000000000000
1 -22.52499999999999147 24.00000000000000000 0.00000000000000000 0.00000000000000000 1.00000000000000000 0.00000000000000000 1.00000000000000000 0.00000000000000000 0.00000000000000000 0.00000000000000000 0.00000000000000000 -1.00000000000000000 
2 -22.52499999999999147 15.00000000000000000 0.00000000000000000 -0.00000000000000000 -0.00000000000000000 -1.00000000000000000 1.00000000000000000 0.00000000000000000 0.00000000000000000 -0.00000000000000000 1.00000000000000000 -0.00000000000000000 9.00000000000000000
Triangulations 0

TShapes 44
Ve
0.000000100000000
-31.524999999999991 -15.000000000000004 0.000000000000000
0 0

0101101
*
Ed
 0.000000100000000 1 1 0
1  1 0 0.000000000000000 6.000000000000000
2  1 1 0 0.000000000000000 6.000000000000000
4 G1 1 0 2 0
0

0101000
+44 5 -44 7 *
Ve
0.000000100000002
-22.524999999999991 -24.000000000000000 0.000000000000000
0 0

0101101
*
Ed
 0.000000100000002 1 1 0
1  2 0 0.000000000000000 6.000000000000000
2  2 1 0 0.000000000000000 6.000000000000000
4 G1 1 0 3 0
0

0101000
+42 5 -42 7 *
Ed
 0.000000100000000 1 1 0
1  3 0 3.141592653589794 4.712388980384690
2  3 1 8 3.141592653589794 4.712388980384690
2  4 1 9 3.141592653589794 4.712388980384690
2  5 4 10 3.141592653589794 4.712388980384690
0

0101000
+44 0 -42 0 *
Wi

0101100
+43 0 -41 0 -40 5 +40 7 *
Fa
0  0.000000100000000 1 0

0111000
+39 0 *
Ve
0.000000100000000
22.524999999999995 -24.000000000000000 0.000000000000000
0 0

0101101
*
Ed
 0.000000100000000 1 1 0
1  4 0 0.000000000000000 6.000000000000000
2  6 5 0 0.000000000000000 6.000000000000000
4 G1 3 0 5 0
0

0101000
+37 5 -37 7 *
Ed
 0.000000100000000 1 1 0
1  5 0 0.000000000000000 45.049999999999983
2  7 4 10 0.000000000000000 45.049999999999983
0

0101000
+37 0 -42 0 *
Wi

0101100
+36 0 -41 0 -35 5 +35 7 *
Fa
0  0.000000100000000 3 0

0111000
+34 0 *
Ve
0.000000100000000
31.524999999999995 -15.000000000000002 0.000000000000000
0 0

0101101
*
Ed
 0.000000100000000 1 1 0
1  6 0 0.000000000000000 6.000000000000000
2  8 5 0 0.000000000000000 6.000000000000000
4 G1 5 0 6 0
0

0101000
+32 5 -32 7 *
Ed
 0.000000100000000 1 1 0
1  7 0 4.712388980384690 6.283185307179586
2  9 5 8 4.712388980384690 6.283185307179586
2  10 5 9 4.712388980384690 6.283185307179586
2  11 4 10 4.712388980384690 6.283185307179586
0

0101000
+37 0 -32 0 *
Wi

0101100
+36 0 -31 0 -30 5 +30 7 *
Fa
0  0.000000100000000 5 0

0111000
+29 0 *
Ve
0.000000100000000
31.524999999999995 15.000000000000002 0.000000000000000
0 0

0101101
*
Ed
 0.000000100000000 1 1 0
1  8 0 0.000000000000000 6.000000000000000
2  12 7 0 0.000000000000000 6.000000000000000
4 G1 6 0 7 0
0

0101000
+27 5 -27 7 *
Ed
 0.000000100000000 1 1 0
1  9 0 0.000000000000000 30.000000000000004
2  13 4 10 0.000000000000000 30.000000000000004
0

0101000
+27 0 -32 0 *
Wi

0101100
+26 0 -31 0 -25 5 +25 7 *
Fa
0  0.000000100000000 6 0

0111000
+24 0 *
Ve
0.000000100000000
22.524999999999999 24.000000000000000 0.000000000000000
0 0

0101101
*
Ed
 0.000000100000000 1 1 0
1  10 0 0.000000000000000 6.000000000000000
2  14 7 0 0.000000000000000 6.000000000000000
4 G1 7 0 8 0
0

0101000
+22 5 -22 7 *
Ed
 0.000000100000000 1 1 0
1  11 0 0.000000000000000 1.570796326794896
2  15 7 8 0.000000000000000 1.570796326794896
2  16 7 9 0.000000000000000 1.570796326794896
2  17 4 10 0.000000000000000 1.570796326794896
0

0101000
+27 0 -22 0 *
Wi

0101100
+26 0 -21 0 -20 5 +20 7 *
Fa
0  0.000000100000000 7 0

0111000
+19 0 *
Ve
0.000000100000000
-22.524999999999991 24.000000000000000 0.000000000000000
0 0

0101101
*
Ed
 0.000000100000000 1 1 0
1  12 0 0.000000000000000 6.000000000000000
2  18 9 0 0.000000000000000 6.000000000000000
4 G1 8 0 9 0
0

0101000
+17 5 -17 7 *
Ed
 0.000000100000000 1 1 0
1  13 0 0.000000000000000 45.049999999999990
2  19 4 10 0.000000000000000 45.049999999999990
0

0101000
+17 0 -22 0 *
Wi

0101100
+16 0 -21 0 -15 5 +15 7 *
Fa
0  0.000000100000000 8 0

0111000
+14 0 *
Ve
0.000000100000001
-31.524999999999991 15.000000000000004 0.000000000000000
0 0

0101101
*
Ed
 0.000000100000001 1 1 0
1  14 0 0.000000000000000 6.000000000000000
2  20 9 0 0.000000000000000 6.000000000000000
4 G1 9 0 2 0
0

0101000
+12 5 -12 7 *
Ed
 0.000000100000000 1 1 0
1  15 0 1.570796326794897 3.141592653589793
2  21 9 8 1.570796326794897 3.141592653589793
2  22 9 9 1.570796326794897 3.141592653589793
2  23 4 10 1.570796326794897 3.141592653589793
0

0101000
+17 0 -12 0 *
Wi

0101100
+16 0 -11 0 -10 5 +10 7 *
Fa
0  0.000000100000000 9 0

0111000
+9 0 *
Ed
 0.000000100000000 1 1 0
1  16 0 0.000000000000000 30.000000000000007
2  24 4 10 0.000000000000000 30.000000000000007
0

0101000
+44 0 -12 0 *
Wi

0101100
+43 0 -11 0 -7 5 +7 7 *
Fa
0  0.000000100000000 2 0

0111000
+6 0 *
Wi

0101100
+40 0 -35 0 +30 0 -25 0 +20 0 -15 0 +10 0 -7 0 *
Fa
0  0.000000100000000 4 0

0111000
+4 12 *
Sh

0101100
+38 0 -33 0 +28 0 -23 0 +18 0 -13 0 +8 0 -5 0 +3 11 -3 13 
*
So

1100000
-2 0 *

+1 1 