
CASCADE Topology V1, (c) Matra-Datavision
Locations 38
1
1.000000000000000 0.000000000000000 0.000000000000000 0.000000000000000 
0.000000000000000 1.000000000000000 0.000000000000000 0.000000000000000 
0.000000000000000 0.000000000000000 1.000000000000000 0.000000000000000 
1
1.000000000000000 0.000000000000000 0.000000000000000 0.000000000000000 
0.000000000000000 1.000000000000000 0.000000000000000 0.000000000000000 
0.000000000000000 0.000000000000000 1.000000000000000 0.000000000000000 
1
1.000000000000000 0.000000000000000 0.000000000000000 0.000000000000000 
0.000000000000000 1.000000000000000 0.000000000000000 0.000000000000000 
0.000000000000000 0.000000000000000 1.000000000000000 0.000000000000000 
2  2 1 3 -1 0
1
1.000000000000000 0.000000000000000 0.000000000000000 0.000000000000000 
0.000000000000000 1.000000000000000 0.000000000000000 0.000000000000000 
0.000000000000000 0.000000000000000 1.000000000000000 0.000000000000000 
1
1.000000000000000 0.000000000000000 0.000000000000000 0.000000000000000 
0.000000000000000 1.000000000000000 0.000000000000000 0.000000000000000 
0.000000000000000 0.000000000000000 1.000000000000000 0.000000000000000 
1
1.000000000000000 0.000000000000000 0.000000000000000 0.000000000000000 
0.000000000000000 1.000000000000000 0.000000000000000 0.000000000000000 
0.000000000000000 0.000000000000000 1.000000000000000 0.000000000000000 
2  5 1 6 1 7 -1 0
1
1.000000000000000 0.000000000000000 0.000000000000000 0.000000000000000 
0.000000000000000 1.000000000000000 0.000000000000000 0.000000000000000 
0.000000000000000 0.000000000000000 1.000000000000000 5.000000000000000 
2  5 1 6 1 7 -1 9 1 0
1
1.000000000000000 0.000000000000000 0.000000000000000 0.000000000000000 
0.000000000000000 1.000000000000000 0.000000000000000 0.000000000000000 
0.000000000000000 0.000000000000000 1.000000000000000 0.000000000000000 
1
1.000000000000000 0.000000000000000 0.000000000000000 0.000000000000000 
0.000000000000000 1.000000000000000 0.000000000000000 0.000000000000000 
0.000000000000000 0.000000000000000 1.000000000000000 0.000000000000000 
2  11 1 12 -1 5 -1 0
1
1.000000000000000 0.000000000000000 0.000000000000000 0.000000000000000 
0.000000000000000 1.000000000000000 0.000000000000000 0.000000000000000 
0.000000000000000 0.000000000000000 1.000000000000000 10.000000000000000 
2  14 -1 11 1 12 -1 5 -1 0
1
1.000000000000000 0.000000000000000 0.000000000000000 0.000000000000000 
0.000000000000000 1.000000000000000 0.000000000000000 0.000000000000000 
0.000000000000000 0.000000000000000 1.000000000000000 0.000000000000000 
1
1.000000000000000 0.000000000000000 0.000000000000000 0.000000000000000 
0.000000000000000 1.000000000000000 0.000000000000000 0.000000000000000 
0.000000000000000 0.000000000000000 1.000000000000000 0.000000000000000 
2  16 1 17 -1 5 -1 0
1
1.000000000000000 0.000000000000000 0.000000000000000 0.000000000000000 
0.000000000000000 1.000000000000000 0.000000000000000 0.000000000000000 
0.000000000000000 0.000000000000000 1.000000000000000 10.000000000000000 
2  19 -1 16 1 17 -1 5 -1 0
1
1.000000000000000 0.000000000000000 0.000000000000000 0.000000000000000 
0.000000000000000 1.000000000000000 0.000000000000000 0.000000000000000 
0.000000000000000 0.000000000000000 1.000000000000000 0.000000000000000 
1
1.000000000000000 0.000000000000000 0.000000000000000 0.000000000000000 
0.000000000000000 1.000000000000000 0.000000000000000 0.000000000000000 
0.000000000000000 0.000000000000000 1.000000000000000 0.000000000000000 
2  21 1 22 -1 5 -1 0
1
1.000000000000000 0.000000000000000 0.000000000000000 0.000000000000000 
0.000000000000000 1.000000000000000 0.000000000000000 0.000000000000000 
0.000000000000000 0.000000000000000 1.000000000000000 5.000000000000000 
2  24 -1 21 1 22 -1 5 -1 0
2  7 1 6 -1 5 -1 0
2  9 -1 7 1 6 -1 5 -1 0
2  6 -1 5 -1 0
2  7 -1 2 1 3 -1 0
2  5 1 6 1 7 -1 2 1 3 -1 0
1
1.000000000000000 0.000000000000000 0.000000000000000 0.000000000000000 
0.000000000000000 1.000000000000000 0.000000000000000 -20.000000000045169 
0.000000000000000 0.000000000000000 1.000000000000000 0.000000000000000 
2  7 -1 2 1 3 -1 31 -1 0
1
1.000000000000000 0.000000000000000 0.000000000000000 0.000000000000000 
0.000000000000000 1.000000000000000 0.000000000000000 20.000000000045169 
0.000000000000000 0.000000000000000 1.000000000000000 0.000000000000000 
2  7 -1 2 1 3 -1 33 -1 0
2  7 -1 9 1 2 1 3 -1 0
2  5 1 6 1 7 -1 9 1 2 1 3 -1 0
2  31 -1 0
2  33 -1 0
Curve2ds 58
1 3.14159265359595663 0.00000000000000000 0.00000000000000000 -1.00000000000000000 
1 4.71238898037852660 0.00000000000000000 0.00000000000000000 -1.00000000000000000 
1 0.00000000000000000 0.00000000000000000 1.00000000000000000 0.00000000000000000 
1 0.00000000000000000 -10.00000000000000000 1.00000000000000000 0.00000000000000000 
1 0.00000000000000000 0.00000000000000000 1.00000000000000000 0.00000000000000000 
1 0.00000000000000000 -10.00000000000000000 1.00000000000000000 0.00000000000000000 
1 0.00000000000000000 0.00000000000000000 1.00000000000000000 0.00000000000000000 
1 0.00000000000000000 -5.00000000000000000 1.00000000000000000 0.00000000000000000 
1 0.00000000000000000 0.00000000000000000 1.00000000000000000 0.00000000000000000 
1 0.00000000000000000 -5.00000000000000000 1.00000000000000000 0.00000000000000000 
2 -10.30000000002839222 -31.00000000002841816 1.00000000000000000 0.00000000000000000 -0.00000000000000000 1.00000000000000000 3.99999999998112088
1 3.14159265358363049 0.00000000000000000 0.00000000000000000 -1.00000000000000000 
1 -14.30000000000951310 -31.00000000005302780 0.00000000000000000 1.00000000000000000 
1 4.71238898039085274 0.00000000000000000 0.00000000000000000 -1.00000000000000000 
1 10.30000000005300009 -35.00000000000954259 -1.00000000000000000 0.00000000000000000 
1 0.00000000000000000 0.00000000000000000 1.00000000000000000 0.00000000000000000 
1 0.00000000000000000 -10.00000000000000000 1.00000000000000000 0.00000000000000000 
1 0.00000000000000000 0.00000000000000000 1.00000000000000000 0.00000000000000000 
1 0.00000000000000000 -10.00000000000000000 1.00000000000000000 0.00000000000000000 
1 0.00000000000000000 0.00000000000000000 1.00000000000000000 0.00000000000000000 
1 0.00000000000000000 -5.00000000000000000 1.00000000000000000 0.00000000000000000 
1 0.00000000000000000 0.00000000000000000 1.00000000000000000 0.00000000000000000 
1 0.00000000000000000 -5.00000000000000000 1.00000000000000000 0.00000000000000000 
2 -10.30000000002839222 31.00000000002836487 1.00000000000000000 0.00000000000000000 -0.00000000000000000 1.00000000000000000 3.99999999998112088
1 0.00000000000000000 0.00000000000000000 1.00000000000000000 0.00000000000000000 
1 0.00000000000000000 -10.00000000000000000 1.00000000000000000 0.00000000000000000 
1 0.00000000000000000 0.00000000000000000 1.00000000000000000 0.00000000000000000 
1 0.00000000000000000 -10.00000000000000000 1.00000000000000000 0.00000000000000000 
1 0.00000000000000000 0.00000000000000000 1.00000000000000000 0.00000000000000000 
1 0.00000000000000000 -5.00000000000000000 1.00000000000000000 0.00000000000000000 
1 0.00000000000000000 0.00000000000000000 1.00000000000000000 0.00000000000000000 
1 0.00000000000000000 -5.00000000000000000 1.00000000000000000 0.00000000000000000 
2 10.30000000002839222 -31.00000000002842171 1.00000000000000000 0.00000000000000000 -0.00000000000000000 1.00000000000000000 3.99999999998112088
1 -10.30000000005304450 35.00000000000948575 1.00000000000000000 0.00000000000000000 
1 14.30000000000951310 31.00000000005301715 0.00000000000000000 -1.00000000000000000 
1 0.00000000000000000 0.00000000000000000 1.00000000000000000 0.00000000000000000 
1 0.00000000000000000 -10.00000000000000000 1.00000000000000000 0.00000000000000000 
1 0.00000000000000000 0.00000000000000000 1.00000000000000000 0.00000000000000000 
1 0.00000000000000000 -10.00000000000000000 1.00000000000000000 0.00000000000000000 
1 0.00000000000000000 0.00000000000000000 1.00000000000000000 0.00000000000000000 
1 0.00000000000000000 -5.00000000000000000 1.00000000000000000 0.00000000000000000 
1 0.00000000000000000 0.00000000000000000 1.00000000000000000 0.00000000000000000 
1 0.00000000000000000 -5.00000000000000000 1.00000000000000000 0.00000000000000000 
2 10.30000000002839222 31.00000000002836487 1.00000000000000000 0.00000000000000000 -0.00000000000000000 1.00000000000000000 3.99999999998112088
2 0.00000000000000000 0.00000000000000000 -1.00000000000000000 0.00000000000000000 0.00000000000000000 1.00000000000000000 1.69999999999999996
1 0.00000000000000000 0.00000000000000000 1.00000000000000000 0.00000000000000000 
2 -0.00000000000000239 -20.00000000004519762 -1.00000000000000000 0.00000000000000000 0.00000000000000000 1.00000000000000000 1.69999999999999996
2 -0.00000000000000239 20.00000000004514078 -1.00000000000000000 0.00000000000000000 0.00000000000000000 1.00000000000000000 1.69999999999999996
2 -0.00000000000000239 -20.00000000004519762 -1.00000000000000000 0.00000000000000000 -0.00000000000000000 -1.00000000000000000 1.69999999999999996
1 6.28318530717958623 5.00000000000000000 -1.00000000000000000 0.00000000000000000 
2 -0.00000000000000239 20.00000000004514078 -1.00000000000000000 0.00000000000000000 -0.00000000000000000 -1.00000000000000000 1.69999999999999996
1 6.28318530717958623 5.00000000000000000 -1.00000000000000000 0.00000000000000000 
1 1.57079632680105963 0.00000000000000000 0.00000000000000000 -1.00000000000000000 
1 6.28318530717342316 0.00000000000000000 0.00000000000000000 -1.00000000000000000 
1 1.57079632678873393 0.00000000000000000 0.00000000000000000 -1.00000000000000000 
1 0.00000000000616270 0.00000000000000000 0.00000000000000000 -1.00000000000000000 
1 6.28318530717958623 0.00000000000000000 0.00000000000000000 1.00000000000000000 
1 0.00000000000000000 0.00000000000000000 0.00000000000000000 1.00000000000000000 
Curves 20
1 -14.30000000000951133 -31.00000000005302070 0.00000000000000000 0.00000000000000000 0.00000000000000000 1.00000000000000000 
1 -10.30000000005302141 -35.00000000000951417 0.00000000000000000 0.00000000000000000 0.00000000000000000 1.00000000000000000 
2 -10.30000000002839045 -31.00000000002838974 0.00000000000000000 0.00000000000000000 0.00000000000000000 1.00000000000000000 1.00000000000000000 0.00000000000000000 -0.00000000000000000 -0.00000000000000000 1.00000000000000000 0.00000000000000000 3.99999999998112132
1 -14.30000000000951133 31.00000000005304202 0.00000000000000000 0.00000000000000000 0.00000000000000000 1.00000000000000000 
1 -14.30000000000951133 -31.00000000005299938 0.00000000000000000 0.00000000000000000 1.00000000000000000 0.00000000000000000 
1 10.30000000005302496 -35.00000000000951417 0.00000000000000000 0.00000000000000000 0.00000000000000000 1.00000000000000000 
1 10.30000000005300187 -35.00000000000951417 0.00000000000000000 -1.00000000000000000 0.00000000000000000 0.00000000000000000 
2 -10.30000000002839045 31.00000000002839329 0.00000000000000000 0.00000000000000000 0.00000000000000000 1.00000000000000000 1.00000000000000000 0.00000000000000000 -0.00000000000000000 -0.00000000000000000 1.00000000000000000 0.00000000000000000 3.99999999998112132
2 10.30000000002839400 -31.00000000002839329 0.00000000000000000 0.00000000000000000 0.00000000000000000 1.00000000000000000 1.00000000000000000 0.00000000000000000 -0.00000000000000000 -0.00000000000000000 1.00000000000000000 0.00000000000000000 3.99999999998112132
1 -10.30000000005304273 35.00000000000951417 0.00000000000000000 1.00000000000000000 0.00000000000000000 0.00000000000000000 
1 14.30000000000951488 31.00000000005304557 0.00000000000000000 0.00000000000000000 -1.00000000000000000 0.00000000000000000 
2 10.30000000002839400 31.00000000002839329 0.00000000000000000 0.00000000000000000 0.00000000000000000 1.00000000000000000 1.00000000000000000 0.00000000000000000 -0.00000000000000000 -0.00000000000000000 1.00000000000000000 0.00000000000000000 3.99999999998112132
2 0.00000000000000000 0.00000000000000000 0.00000000000000000 -0.00000000000000000 -0.00000000000000000 -1.00000000000000000 -1.00000000000000000 0.00000000000000000 0.00000000000000000 0.00000000000000000 1.00000000000000000 -0.00000000000000000 1.69999999999999996
2 0.00000000000000000 -20.00000000004516920 5.00000000000000000 0.00000000000000000 0.00000000000000000 1.00000000000000000 -1.00000000000000000 0.00000000000000000 0.00000000000000000 0.00000000000000000 -1.00000000000000000 0.00000000000000000 1.69999999999999996
2 0.00000000000000000 20.00000000004516920 5.00000000000000000 0.00000000000000000 0.00000000000000000 1.00000000000000000 -1.00000000000000000 0.00000000000000000 0.00000000000000000 0.00000000000000000 -1.00000000000000000 0.00000000000000000 1.69999999999999996
1 -10.30000000005304273 35.00000000000951417 0.00000000000000000 0.00000000000000000 0.00000000000000000 1.00000000000000000 
1 14.30000000000951488 -31.00000000005302425 0.00000000000000000 0.00000000000000000 0.00000000000000000 1.00000000000000000 
1 10.30000000005304273 35.00000000000951417 0.00000000000000000 0.00000000000000000 0.00000000000000000 1.00000000000000000 
1 14.30000000000951488 31.00000000005304557 0.00000000000000000 0.00000000000000000 0.00000000000000000 1.00000000000000000 
1 -1.69999999999999996 0.00000000000000000 0.00000000000000000 0.00000000000000006 0.00000000000000000 1.00000000000000000 
Polygon3D 0
PolygonOnTriangulations 0
Surfaces 23
2 -10.30000000002839045 -31.00000000002838974 0.00000000000000000 -0.00000000000000000 -0.00000000000000000 -1.00000000000000000 1.00000000000000000 0.00000000000000000 0.00000000000000000 -0.00000000000000000 1.00000000000000000 -0.00000000000000000 3.99999999998112132
1 -14.30000000000951133 -31.00000000005299938 0.00000000000000000 -1.00000000000000000 0.00000000000000000 0.00000000000000000 0.00000000000000000 1.00000000000000000 0.00000000000000000 0.00000000000000000 0.00000000000000000 -1.00000000000000000 
1 10.30000000005300187 -35.00000000000951417 0.00000000000000000 0.00000000000000000 -1.00000000000000000 0.00000000000000000 -1.00000000000000000 0.00000000000000000 0.00000000000000000 -0.00000000000000000 -0.00000000000000000 -1.00000000000000000 
2 -10.30000000002839045 -31.00000000002838974 0.00000000000000000 -0.00000000000000000 -0.00000000000000000 -1.00000000000000000 1.00000000000000000 0.00000000000000000 0.00000000000000000 -0.00000000000000000 1.00000000000000000 -0.00000000000000000 3.99999999998112132
2 -10.30000000002839045 -31.00000000002838974 0.00000000000000000 -0.00000000000000000 -0.00000000000000000 -1.00000000000000000 1.00000000000000000 0.00000000000000000 0.00000000000000000 -0.00000000000000000 1.00000000000000000 -0.00000000000000000 3.99999999998112132
2 -10.30000000002839045 -31.00000000002838974 0.00000000000000000 -0.00000000000000000 -0.00000000000000000 -1.00000000000000000 1.00000000000000000 0.00000000000000000 0.00000000000000000 -0.00000000000000000 1.00000000000000000 -0.00000000000000000 3.99999999998112132
1 0.00000000000000239 0.00000000000002991 0.00000000000000000 0.00000000000000000 0.00000000000000000 1.00000000000000000 1.00000000000000000 0.00000000000000000 -0.00000000000000000 -0.00000000000000000 1.00000000000000000 0.00000000000000000 
2 -10.30000000002839045 31.00000000002839329 0.00000000000000000 -0.00000000000000000 -0.00000000000000000 -1.00000000000000000 1.00000000000000000 0.00000000000000000 0.00000000000000000 -0.00000000000000000 1.00000000000000000 -0.00000000000000000 3.99999999998112132
2 10.30000000002839400 -31.00000000002839329 0.00000000000000000 -0.00000000000000000 -0.00000000000000000 -1.00000000000000000 1.00000000000000000 0.00000000000000000 0.00000000000000000 -0.00000000000000000 1.00000000000000000 -0.00000000000000000 3.99999999998112132
2 -10.30000000002839045 31.00000000002839329 0.00000000000000000 -0.00000000000000000 -0.00000000000000000 -1.00000000000000000 1.00000000000000000 0.00000000000000000 0.00000000000000000 -0.00000000000000000 1.00000000000000000 -0.00000000000000000 3.99999999998112132
2 -10.30000000002839045 31.00000000002839329 0.00000000000000000 -0.00000000000000000 -0.00000000000000000 -1.00000000000000000 1.00000000000000000 0.00000000000000000 0.00000000000000000 -0.00000000000000000 1.00000000000000000 -0.00000000000000000 3.99999999998112132
2 -10.30000000002839045 31.00000000002839329 0.00000000000000000 -0.00000000000000000 -0.00000000000000000 -1.00000000000000000 1.00000000000000000 0.00000000000000000 0.00000000000000000 -0.00000000000000000 1.00000000000000000 -0.00000000000000000 3.99999999998112132
2 10.30000000002839400 -31.00000000002839329 0.00000000000000000 -0.00000000000000000 -0.00000000000000000 -1.00000000000000000 1.00000000000000000 0.00000000000000000 0.00000000000000000 -0.00000000000000000 1.00000000000000000 -0.00000000000000000 3.99999999998112132
2 10.30000000002839400 -31.00000000002839329 0.00000000000000000 -0.00000000000000000 -0.00000000000000000 -1.00000000000000000 1.00000000000000000 0.00000000000000000 0.00000000000000000 -0.00000000000000000 1.00000000000000000 -0.00000000000000000 3.99999999998112132
2 10.30000000002839400 -31.00000000002839329 0.00000000000000000 -0.00000000000000000 -0.00000000000000000 -1.00000000000000000 1.00000000000000000 0.00000000000000000 0.00000000000000000 -0.00000000000000000 1.00000000000000000 -0.00000000000000000 3.99999999998112132
2 10.30000000002839400 31.00000000002839329 0.00000000000000000 -0.00000000000000000 -0.00000000000000000 -1.00000000000000000 1.00000000000000000 0.00000000000000000 0.00000000000000000 -0.00000000000000000 1.00000000000000000 -0.00000000000000000 3.99999999998112132
2 10.30000000002839400 31.00000000002839329 0.00000000000000000 -0.00000000000000000 -0.00000000000000000 -1.00000000000000000 1.00000000000000000 0.00000000000000000 0.00000000000000000 -0.00000000000000000 1.00000000000000000 -0.00000000000000000 3.99999999998112132
2 10.30000000002839400 31.00000000002839329 0.00000000000000000 -0.00000000000000000 -0.00000000000000000 -1.00000000000000000 1.00000000000000000 0.00000000000000000 0.00000000000000000 -0.00000000000000000 1.00000000000000000 -0.00000000000000000 3.99999999998112132
2 10.30000000002839400 31.00000000002839329 0.00000000000000000 -0.00000000000000000 -0.00000000000000000 -1.00000000000000000 1.00000000000000000 0.00000000000000000 0.00000000000000000 -0.00000000000000000 1.00000000000000000 -0.00000000000000000 3.99999999998112132
1 0.00000000000000000 0.00000000000000000 0.00000000000000000 -0.00000000000000000 -0.00000000000000000 -1.00000000000000000 1.00000000000000000 -0.00000000000000000 0.00000000000000000 0.00000000000000000 1.00000000000000000 -0.00000000000000000 
2 0.00000000000000000 0.00000000000000000 0.00000000000000000 0.00000000000000000 0.00000000000000000 1.00000000000000000 -1.00000000000000000 0.00000000000000000 0.00000000000000000 -0.00000000000000000 1.00000000000000000 -0.00000000000000000 1.69999999999999996
1 -10.30000000005304273 35.00000000000951417 0.00000000000000000 0.00000000000000000 1.00000000000000000 0.00000000000000000 1.00000000000000000 0.00000000000000000 0.00000000000000000 0.00000000000000000 0.00000000000000000 -1.00000000000000000 
1 14.30000000000951488 31.00000000005304557 0.00000000000000000 1.00000000000000000 0.00000000000000000 -0.00000000000000000 0.00000000000000000 -1.00000000000000000 0.00000000000000000 0.00000000000000000 -0.00000000000000000 -1.00000000000000000 
Triangulations 0

TShapes 62
Ve
0.000000100000021
-14.300000000009511 -31.000000000053021 0.000000000000000
0 0

0101101
*
Ed
 0.000000100000021 1 1 0
1  1 0 0.000000000000000 5.000000000000000
2  1 1 0 0.000000000000000 5.000000000000000
4 G1 1 0 2 0
0

0101000
+62 8 -62 10 *
Ve
0.000000100000022
-10.300000000053021 -35.000000000009514 0.000000000000000
0 0

0101101
*
Ed
 0.000000100000022 1 1 0
1  2 0 0.000000000000000 5.000000000000000
2  2 1 0 0.000000000000000 5.000000000000000
4 G1 1 0 3 0
0

0101000
+60 8 -60 10 *
Ed
 0.000000100000000 1 1 0
1  3 0 3.141592653595957 4.712388980378527
2  3 4 13 3.141592653595957 4.712388980378527
2  4 4 15 3.141592653595957 4.712388980378527
2  5 5 18 3.141592653595957 4.712388980378527
2  6 5 20 3.141592653595957 4.712388980378527
2  7 6 23 3.141592653595957 4.712388980378527
2  8 6 25 3.141592653595957 4.712388980378527
2  9 1 26 3.141592653595957 4.712388980378527
2  10 1 27 3.141592653595957 4.712388980378527
2  11 7 28 3.141592653595957 4.712388980378527
0

0101000
+62 0 -60 0 *
Wi

0101100
+61 0 -59 0 -58 8 +58 10 *
Fa
0  0.000000100000000 1 0

0101000
+57 0 *
Ve
0.000000100000002
-14.300000000009511 31.000000000053042 0.000000000000000
0 0

0101101
*
Ed
 0.000000100000002 1 1 0
1  4 0 0.000000000000000 5.000000000000000
2  12 8 0 0.000000000000000 5.000000000000000
4 G1 8 0 2 0
0

0101000
+55 8 -55 10 *
Ed
 0.000000100000000 1 1 0
1  5 0 0.000000000000000 62.000000000106041
2  13 7 28 0.000000000000000 62.000000000106041
0

0101000
+62 0 -55 0 *
Wi

0101100
+61 0 -54 0 -53 8 +53 10 *
Fa
0  0.000000100000000 2 0

0101000
+52 0 *
Ve
0.000000100000022
10.300000000053025 -35.000000000009514 0.000000000000000
0 0

0101101
*
Ed
 0.000000100000022 1 1 0
1  6 0 0.000000000000000 5.000000000000000
2  14 9 0 0.000000000000000 5.000000000000000
4 G1 3 0 9 0
0

0101000
+50 8 -50 10 *
Ed
 0.000000100000000 1 1 0
1  7 0 0.000000000000000 20.600000000106000
2  15 7 28 0.000000000000000 20.600000000106000
0

0101000
+50 0 -60 0 *
Wi

0101100
+49 0 -59 0 -48 8 +48 10 *
Fa
0  0.000000100000000 3 0

0101000
+47 0 *
Ve
0.000000100000000
-10.300000000053043 35.000000000009514 0.000000000000000
0 0

0101101
*
Ed
 0.000000100000000 1 1 0
1  8 0 1.570796326801060 3.141592653583630
2  16 10 13 1.570796326801060 3.141592653583630
2  17 10 15 1.570796326801060 3.141592653583630
2  18 11 18 1.570796326801060 3.141592653583630
2  19 11 20 1.570796326801060 3.141592653583630
2  20 12 23 1.570796326801060 3.141592653583630
2  21 12 25 1.570796326801060 3.141592653583630
2  22 8 26 1.570796326801060 3.141592653583630
2  23 8 27 1.570796326801060 3.141592653583630
2  24 7 28 1.570796326801060 3.141592653583630
0

0101000
+45 0 -55 0 *
Ve
0.000000100000021
14.300000000009515 -31.000000000053024 0.000000000000000
0 0

0101101
*
Ed
 0.000000100000000 1 1 0
1  9 0 4.712388980390853 6.283185307173423
2  25 13 13 4.712388980390853 6.283185307173423
2  26 13 15 4.712388980390853 6.283185307173423
2  27 14 18 4.712388980390853 6.283185307173423
2  28 14 20 4.712388980390853 6.283185307173423
2  29 15 23 4.712388980390853 6.283185307173423
2  30 15 25 4.712388980390853 6.283185307173423
2  31 9 26 4.712388980390853 6.283185307173423
2  32 9 27 4.712388980390853 6.283185307173423
2  33 7 28 4.712388980390853 6.283185307173423
0

0101000
+50 0 -43 0 *
Ve
0.000000100000001
10.300000000053043 35.000000000009514 0.000000000000000
0 0

0101101
*
Ed
 0.000000100000000 1 1 0
1  10 0 0.000000000000000 20.600000000106085
2  34 7 28 0.000000000000000 20.600000000106085
0

0101000
+45 0 -41 0 *
Ve
0.000000100000000
14.300000000009515 31.000000000053046 0.000000000000000
0 0

0101101
*
Ed
 0.000000100000000 1 1 0
1  11 0 0.000000000000000 62.000000000106049
2  35 7 28 0.000000000000000 62.000000000106049
0

0101000
+39 0 -43 0 *
Ed
 0.000000100000000 1 1 0
1  12 0 0.000000000006163 1.570796326788734
2  36 16 13 0.000000000006163 1.570796326788734
2  37 16 15 0.000000000006163 1.570796326788734
2  38 17 18 0.000000000006163 1.570796326788734
2  39 17 20 0.000000000006163 1.570796326788734
2  40 18 23 0.000000000006163 1.570796326788734
2  41 18 25 0.000000000006163 1.570796326788734
2  42 19 26 0.000000000006163 1.570796326788734
2  43 19 27 0.000000000006163 1.570796326788734
2  44 7 28 0.000000000006163 1.570796326788734
0

0101000
+39 0 -41 0 *
Wi

0101100
+58 30 -53 30 -48 30 +44 30 +42 30 -40 30 -38 30 +37 30 *
Ve
0.000000100000000
-1.700000000000000 0.000000000000000 0.000000000000000
0 0

0101101
*
Ed
 0.000000100000000 1 1 0
1  13 0 0.000000000000000 6.283185307179586
2  45 20 0 0.000000000000000 6.283185307179586
2  46 21 0 0.000000000000000 6.283185307179586
2  47 7 32 0.000000000000000 6.283185307179586
2  48 7 34 0.000000000000000 6.283185307179586
0

0101000
+35 0 -35 0 *
Wi

0101100
+34 31 *
Wi

0101100
+34 33 *
Fa
0  0.000000100000000 7 29

0101000
+36 0 +33 0 +32 0 *
Wi

0101100
+58 36 -53 36 -48 36 +44 36 +42 36 -40 36 -38 36 +37 36 *
Ve
0.000000100000000
-1.700000000000000 -20.000000000045169 5.000000000000000
0 0

0101101
*
Ed
 0.000000100000000 1 1 0
1  14 0 0.000000000000000 6.283185307179586
2  49 7 35 0.000000000000000 6.283185307179586
2  50 21 31 0.000000000000000 6.283185307179586
0

0101100
+29 0 -29 0 *
Wi

0101100
-28 0 *
Ve
0.000000100000000
-1.700000000000000 20.000000000045169 5.000000000000000
0 0

0101101
*
Ed
 0.000000100000000 1 1 0
1  15 0 0.000000000000000 6.283185307179586
2  51 7 35 0.000000000000000 6.283185307179586
2  52 21 33 0.000000000000000 6.283185307179586
0

0101100
+26 0 -26 0 *
Wi

0101100
-25 0 *
Fa
0  0.000000100000000 7 35

0101000
+30 0 +27 0 +24 0 *
Ed
 0.000000100000000 1 1 0
1  16 0 0.000000000000000 5.000000000000000
2  53 8 0 0.000000000000000 5.000000000000000
4 G1 22 0 8 0
0

0101000
+45 8 -45 10 *
Wi

0101100
+22 0 -54 0 -44 8 +44 10 *
Fa
0  0.000000100000000 8 0

0101000
+21 0 *
Ed
 0.000000100000021 1 1 0
1  17 0 0.000000000000000 5.000000000000000
2  54 9 0 0.000000000000000 5.000000000000000
4 G1 9 0 23 0
0

0101000
+43 8 -43 10 *
Wi

0101100
+49 0 -19 0 -42 8 +42 10 *
Fa
0  0.000000100000000 9 0

0101000
+18 0 *
Ed
 0.000000100000001 1 1 0
1  18 0 0.000000000000000 5.000000000000000
2  55 19 0 0.000000000000000 5.000000000000000
4 G1 19 0 22 0
0

0101000
+41 8 -41 10 *
Wi

0101100
+22 0 -16 0 -40 8 +40 10 *
Fa
0  0.000000100000000 22 0

0101000
+15 0 *
Ed
 0.000000100000000 1 1 0
1  19 0 0.000000000000000 5.000000000000000
2  56 19 0 0.000000000000000 5.000000000000000
4 G1 23 0 19 0
0

0101000
+39 8 -39 10 *
Wi

0101100
+13 0 -19 0 -38 8 +38 10 *
Fa
0  0.000000100000000 23 0

0101000
+12 0 *
Wi

0101100
+13 0 -16 0 -37 8 +37 10 *
Fa
0  0.000000100000000 19 0

0101000
+10 0 *
Ed
 0.000000100000000 1 1 0
1  20 0 0.000000000000000 5.000000000000000
3  57 58CN 21 0 0.000000000000000 5.000000000000000
0

0101000
+35 0 -29 37 *
Wi

0101100
-8 31 +28 0 +8 31 +34 31 *
Fa
0  0.000000100000000 21 31

0101000
+7 0 *
Ed
 0.000000100000000 1 1 0
1  20 0 0.000000000000000 5.000000000000000
3  57 58CN 21 0 0.000000000000000 5.000000000000000
0

0101000
+35 0 -26 38 *
Wi

0101100
-5 33 +25 0 +5 33 +34 33 *
Fa
0  0.000000100000000 21 33

0101000
+4 0 *
Sh

0101100
-56 4 +51 4 +46 4 -31 0 +23 0 -20 4 -17 4 +14 4 +11 4 -9 4 
+6 0 +3 0 *
So

0100000
+2 0 *

+1 1 