
CASCADE Topology V1, (c) Matra-Datavision
Locations 23
1
1.000000000000000 0.000000000000000 0.000000000000000 0.000000000000000 
0.000000000000000 1.000000000000000 0.000000000000000 0.000000000000000 
0.000000000000000 0.000000000000000 1.000000000000000 0.000000000000000 
1
1.000000000000000 0.000000000000000 0.000000000000000 0.000000000000000 
0.000000000000000 1.000000000000000 0.000000000000000 0.000000000000000 
0.000000000000000 0.000000000000000 1.000000000000000 0.000000000000000 
1
1.000000000000000 0.000000000000000 0.000000000000000 0.000000000000000 
0.000000000000000 1.000000000000000 0.000000000000000 0.000000000000000 
0.000000000000000 0.000000000000000 1.000000000000000 0.000000000000000 
2  3 -1 2 -1 0
1
1.000000000000000 0.000000000000000 0.000000000000000 0.000000000000000 
0.000000000000000 1.000000000000000 0.000000000000000 0.000000000000000 
0.000000000000000 0.000000000000000 1.000000000000000 0.000000000000000 
1
1.000000000000000 0.000000000000000 0.000000000000000 0.000000000000000 
0.000000000000000 1.000000000000000 0.000000000000000 0.000000000000000 
0.000000000000000 0.000000000000000 1.000000000000000 0.000000000000000 
1
1.000000000000000 0.000000000000000 0.000000000000000 0.000000000000000 
0.000000000000000 1.000000000000000 0.000000000000000 0.000000000000000 
0.000000000000000 0.000000000000000 1.000000000000000 0.000000000000000 
2  5 1 6 1 7 -1 0
2  3 -1 2 -1 7 1 6 -1 5 -1 0
1
1.000000000000000 0.000000000000000 0.000000000000000 0.000000000000000 
0.000000000000000 1.000000000000000 0.000000000000000 0.000000000000000 
0.000000000000000 0.000000000000000 1.000000000000000 1.500000000000000 
2  5 1 6 1 7 -1 10 1 0
2  3 -1 2 -1 10 -1 7 1 6 -1 5 -1 0
2  7 1 6 -1 5 -1 0
2  10 -1 7 1 6 -1 5 -1 0
2  3 -1 0
1
1.000000000000000 0.000000000000000 0.000000000000000 0.000000000000000 
0.000000000000000 1.000000000000000 0.000000000000000 0.000000000000000 
0.000000000000000 0.000000000000000 1.000000000000000 0.000000000000000 
2  3 -1 16 -1 0
2  3 -1 16 -1 7 1 6 -1 5 -1 0
2  3 -1 16 -1 10 -1 7 1 6 -1 5 -1 0
2  5 1 6 1 7 -1 16 1 0
2  5 1 6 1 7 -1 2 1 0
2  5 1 6 1 7 -1 10 1 2 1 0
2  5 1 6 1 7 -1 10 1 16 1 0
Curve2ds 24
1 -0.00000000001181366 0.00000000000000000 0.00000000000000000 -1.00000000000000000 
1 1.57079632679652192 0.00000000000000000 0.00000000000000000 -1.00000000000000000 
1 0.00000000000000000 0.00000000000000000 1.00000000000000000 0.00000000000000000 
1 0.00000000000000000 -1.50000000000000000 1.00000000000000000 0.00000000000000000 
1 -0.00000000001181366 0.00000000000000000 0.00000000000000000 -1.00000000000000000 
1 1.57079632679652192 0.00000000000000000 0.00000000000000000 -1.00000000000000000 
1 0.00000000000000000 0.00000000000000000 1.00000000000000000 0.00000000000000000 
1 0.00000000000000000 -1.50000000000000000 1.00000000000000000 0.00000000000000000 
1 0.00000000000000000 0.00000000000000000 1.00000000000000000 0.00000000000000000 
1 0.00000000000000000 0.00000000000000000 1.00000000000000000 0.00000000000000000 
1 0.00000000000000000 0.00000000000000000 1.00000000000000000 0.00000000000000000 
1 0.00000000000000000 0.00000000000000000 1.00000000000000000 0.00000000000000000 
1 0.00000000000000000 0.00000000000000000 0.00000000000000000 -1.00000000000000000 
1 6.28318530717958623 0.00000000000000000 0.00000000000000000 -1.00000000000000000 
1 0.00000000000000000 -1.50000000000000000 1.00000000000000000 0.00000000000000000 
1 0.00000000000000000 0.00000000000000000 0.00000000000000000 -1.00000000000000000 
1 6.28318530717958623 0.00000000000000000 0.00000000000000000 -1.00000000000000000 
1 0.00000000000000000 -1.50000000000000000 1.00000000000000000 0.00000000000000000 
1 0.00000000000000000 0.00000000000000000 0.00000000000000000 -1.00000000000000000 
1 6.28318530717958623 0.00000000000000000 0.00000000000000000 -1.00000000000000000 
1 0.00000000000000000 -1.50000000000000000 1.00000000000000000 0.00000000000000000 
1 0.00000000000000000 0.00000000000000000 0.00000000000000000 -1.00000000000000000 
1 6.28318530717958623 0.00000000000000000 0.00000000000000000 -1.00000000000000000 
1 0.00000000000000000 -1.50000000000000000 1.00000000000000000 0.00000000000000000 
Curves 42
1 338.99999999999624833 -0.00000000002533800 0.00000000000000000 0.00000000000000000 0.00000000000000000 1.00000000000000000 
1 338.99999999999624833 7.99999999995048050 0.00000000000000000 0.00000000000000000 0.00000000000000000 1.00000000000000000 
1 338.99999999999624833 -0.00000000002533800 0.00000000000000000 0.00000000000000000 1.00000000000000000 0.00000000000000000 
1 338.99999999999624833 -0.00000000002533800 0.00000000000000000 0.00000000000000000 1.00000000000000000 0.00000000000000000 
1 344.99999999999494094 7.99999999995048050 0.00000000000000000 0.00000000000000000 0.00000000000000000 1.00000000000000000 
1 338.99999999999624833 7.99999999995048050 0.00000000000000000 1.00000000000000000 0.00000000000000000 0.00000000000000000 
1 338.99999999999624833 7.99999999995048050 0.00000000000000000 1.00000000000000000 0.00000000000000000 0.00000000000000000 
1 344.99999999999494094 93.99999999987396393 0.00000000000000000 0.00000000000000000 0.00000000000000000 1.00000000000000000 
1 344.99999999999494094 7.99999999995048050 0.00000000000000000 0.00000000000000000 1.00000000000000000 0.00000000000000000 
1 344.99999999999494094 7.99999999995048050 0.00000000000000000 0.00000000000000000 1.00000000000000000 0.00000000000000000 
1 342.99999999997953637 95.99999999990973265 0.00000000000000000 0.00000000000000000 0.00000000000000000 1.00000000000000000 
2 342.99999999998277644 93.99999999989759658 0.00000000000000000 0.00000000000000000 0.00000000000000000 1.00000000000000000 1.00000000000000000 0.00000000000000000 -0.00000000000000000 -0.00000000000000000 1.00000000000000000 0.00000000000000000 2.00000000001213696
2 342.99999999998277644 93.99999999989759658 0.00000000000000000 0.00000000000000000 0.00000000000000000 1.00000000000000000 1.00000000000000000 0.00000000000000000 -0.00000000000000000 -0.00000000000000000 1.00000000000000000 0.00000000000000000 2.00000000001213696
1 0.00000000000000000 -0.00000000002533800 1.50000000000000000 1.00000000000000000 0.00000000000000000 0.00000000000000000 
1 -338.99999999999624833 -0.00000000002533800 0.00000000000000000 0.00000000000000000 0.00000000000000000 1.00000000000000000 
1 0.00000000000000000 -0.00000000002533800 0.00000000000000000 -1.00000000000000000 -0.00000000000000000 -0.00000000000000000 
1 -338.99999999999624833 7.99999999995048050 0.00000000000000000 0.00000000000000000 0.00000000000000000 1.00000000000000000 
1 -338.99999999999624833 -0.00000000002533800 0.00000000000000000 0.00000000000000000 1.00000000000000000 0.00000000000000000 
1 -338.99999999999624833 -0.00000000002533800 0.00000000000000000 0.00000000000000000 1.00000000000000000 0.00000000000000000 
1 -344.99999999999494094 7.99999999995048050 0.00000000000000000 0.00000000000000000 0.00000000000000000 1.00000000000000000 
1 -338.99999999999624833 7.99999999995048050 0.00000000000000000 -1.00000000000000000 -0.00000000000000000 -0.00000000000000000 
1 -338.99999999999624833 7.99999999995048050 0.00000000000000000 -1.00000000000000000 -0.00000000000000000 -0.00000000000000000 
1 -344.99999999999494094 93.99999999987396393 0.00000000000000000 0.00000000000000000 0.00000000000000000 1.00000000000000000 
1 -344.99999999999494094 7.99999999995048050 0.00000000000000000 0.00000000000000000 1.00000000000000000 0.00000000000000000 
1 -344.99999999999494094 7.99999999995048050 0.00000000000000000 0.00000000000000000 1.00000000000000000 0.00000000000000000 
1 -342.99999999997953637 95.99999999990973265 0.00000000000000000 0.00000000000000000 0.00000000000000000 1.00000000000000000 
2 -342.99999999998277644 93.99999999989759658 0.00000000000000000 0.00000000000000000 0.00000000000000000 -1.00000000000000000 -1.00000000000000000 -0.00000000000000000 -0.00000000000000000 -0.00000000000000000 1.00000000000000000 0.00000000000000000 2.00000000001213696
2 -342.99999999998277644 93.99999999989759658 0.00000000000000000 0.00000000000000000 0.00000000000000000 -1.00000000000000000 -1.00000000000000000 -0.00000000000000000 -0.00000000000000000 -0.00000000000000000 1.00000000000000000 0.00000000000000000 2.00000000001213696
1 -342.99999999997953637 95.99999999990973265 0.00000000000000000 1.00000000000000000 0.00000000000000000 0.00000000000000000 
2 328.79999999999625970 15.49999999994534505 0.00000000000000000 0.00000000000000000 0.00000000000000000 1.00000000000000000 1.00000000000000000 0.00000000000000000 -0.00000000000000000 -0.00000000000000000 1.00000000000000000 0.00000000000000000 1.70000000000000528
2 -328.79999999999625970 15.49999999994534505 0.00000000000000000 0.00000000000000000 0.00000000000000000 -1.00000000000000000 -1.00000000000000000 -0.00000000000000000 -0.00000000000000000 -0.00000000000000000 1.00000000000000000 0.00000000000000000 1.70000000000000528
2 328.79999999999625970 75.49999999994271604 0.00000000000000000 0.00000000000000000 0.00000000000000000 1.00000000000000000 1.00000000000000000 0.00000000000000000 -0.00000000000000000 -0.00000000000000000 1.00000000000000000 0.00000000000000000 1.70000000000000528
2 -328.79999999999625970 75.49999999994271604 0.00000000000000000 0.00000000000000000 0.00000000000000000 -1.00000000000000000 -1.00000000000000000 -0.00000000000000000 -0.00000000000000000 -0.00000000000000000 1.00000000000000000 0.00000000000000000 1.70000000000000528
1 330.49999999999624833 15.49999999994534505 0.00000000000000000 0.00000000000000000 0.00000000000000000 1.00000000000000000 
2 328.79999999999625970 15.49999999994534505 0.00000000000000000 0.00000000000000000 0.00000000000000000 1.00000000000000000 1.00000000000000000 0.00000000000000000 -0.00000000000000000 -0.00000000000000000 1.00000000000000000 0.00000000000000000 1.70000000000000528
1 -330.49999999999624833 15.49999999994534505 0.00000000000000000 0.00000000000000000 0.00000000000000000 1.00000000000000000 
2 -328.79999999999625970 15.49999999994534505 0.00000000000000000 0.00000000000000000 0.00000000000000000 -1.00000000000000000 -1.00000000000000000 -0.00000000000000000 -0.00000000000000000 -0.00000000000000000 1.00000000000000000 0.00000000000000000 1.70000000000000528
1 330.49999999999624833 75.49999999994271604 0.00000000000000000 0.00000000000000000 0.00000000000000000 1.00000000000000000 
2 328.79999999999625970 75.49999999994271604 0.00000000000000000 0.00000000000000000 0.00000000000000000 1.00000000000000000 1.00000000000000000 0.00000000000000000 -0.00000000000000000 -0.00000000000000000 1.00000000000000000 0.00000000000000000 1.70000000000000528
1 -330.49999999999624833 75.49999999994271604 0.00000000000000000 0.00000000000000000 0.00000000000000000 1.00000000000000000 
2 -328.79999999999625970 75.49999999994271604 0.00000000000000000 0.00000000000000000 0.00000000000000000 -1.00000000000000000 -1.00000000000000000 -0.00000000000000000 -0.00000000000000000 -0.00000000000000000 1.00000000000000000 0.00000000000000000 1.70000000000000528
1 342.99999999997953637 95.99999999990973265 1.50000000000000000 -1.00000000000000000 0.00000000000000000 0.00000000000000000 
Polygon3D 0
PolygonOnTriangulations 0
Surfaces 16
1 338.99999999999624833 -0.00000000002533800 0.00000000000000000 -1.00000000000000000 0.00000000000000000 0.00000000000000000 0.00000000000000000 1.00000000000000000 0.00000000000000000 0.00000000000000000 0.00000000000000000 -1.00000000000000000 
1 338.99999999999624833 7.99999999995048050 0.00000000000000000 0.00000000000000000 1.00000000000000000 0.00000000000000000 1.00000000000000000 0.00000000000000000 0.00000000000000000 0.00000000000000000 0.00000000000000000 -1.00000000000000000 
1 344.99999999999494094 7.99999999995048050 0.00000000000000000 -1.00000000000000000 0.00000000000000000 0.00000000000000000 0.00000000000000000 1.00000000000000000 0.00000000000000000 0.00000000000000000 0.00000000000000000 -1.00000000000000000 
2 342.99999999998277644 93.99999999989759658 0.00000000000000000 -0.00000000000000000 -0.00000000000000000 -1.00000000000000000 1.00000000000000000 0.00000000000000000 0.00000000000000000 -0.00000000000000000 1.00000000000000000 -0.00000000000000000 2.00000000001213696
1 0.00000000000000000 -0.00000000002533800 0.74999999999999989 -0.00000000000000000 -1.00000000000000000 -0.00000000000000000 0.00000000000000000 0.00000000000000000 -1.00000000000000000 1.00000000000000000 -0.00000000000000000 0.00000000000000000 
1 -338.99999999999624833 -0.00000000002533800 0.00000000000000000 1.00000000000000000 0.00000000000000000 0.00000000000000000 -0.00000000000000000 1.00000000000000000 0.00000000000000000 -0.00000000000000000 0.00000000000000000 -1.00000000000000000 
1 -338.99999999999624833 7.99999999995048050 0.00000000000000000 0.00000000000000000 1.00000000000000000 0.00000000000000000 -1.00000000000000000 0.00000000000000000 0.00000000000000000 -0.00000000000000000 0.00000000000000000 -1.00000000000000000 
1 -344.99999999999494094 7.99999999995048050 0.00000000000000000 1.00000000000000000 0.00000000000000000 0.00000000000000000 -0.00000000000000000 1.00000000000000000 0.00000000000000000 -0.00000000000000000 0.00000000000000000 -1.00000000000000000 
2 -342.99999999998277644 93.99999999989759658 0.00000000000000000 0.00000000000000000 0.00000000000000000 -1.00000000000000000 -1.00000000000000000 -0.00000000000000000 -0.00000000000000000 -0.00000000000000000 1.00000000000000000 0.00000000000000000 2.00000000001213696
1 -0.00000000000000319 48.00602697876374947 0.00000000000000000 -0.00000000000000000 -0.00000000000000000 -1.00000000000000000 -1.00000000000000000 0.00000000000000000 0.00000000000000000 0.00000000000000000 1.00000000000000000 -0.00000000000000000 
2 328.79999999999625970 15.49999999994534505 0.00000000000000000 -0.00000000000000000 -0.00000000000000000 -1.00000000000000000 1.00000000000000000 0.00000000000000000 0.00000000000000000 -0.00000000000000000 1.00000000000000000 -0.00000000000000000 1.70000000000000528
2 -328.79999999999625970 15.49999999994534505 0.00000000000000000 0.00000000000000000 0.00000000000000000 -1.00000000000000000 -1.00000000000000000 -0.00000000000000000 -0.00000000000000000 -0.00000000000000000 1.00000000000000000 0.00000000000000000 1.70000000000000528
2 328.79999999999625970 75.49999999994271604 0.00000000000000000 -0.00000000000000000 -0.00000000000000000 -1.00000000000000000 1.00000000000000000 0.00000000000000000 0.00000000000000000 -0.00000000000000000 1.00000000000000000 -0.00000000000000000 1.70000000000000528
2 -328.79999999999625970 75.49999999994271604 0.00000000000000000 0.00000000000000000 0.00000000000000000 -1.00000000000000000 -1.00000000000000000 -0.00000000000000000 -0.00000000000000000 -0.00000000000000000 1.00000000000000000 0.00000000000000000 1.70000000000000528
1 -0.00000000000000927 48.00602697876376368 1.50000000000000022 0.00000000000000000 0.00000000000000000 1.00000000000000000 0.00000000000000000 1.00000000000000000 -0.00000000000000000 -1.00000000000000000 0.00000000000000000 0.00000000000000000 
1 0.00000000000000000 95.99999999990974686 0.75000000000000000 0.00000000000000000 1.00000000000000000 0.00000000000000000 0.00000000000000000 -0.00000000000000000 1.00000000000000000 1.00000000000000000 0.00000000000000000 -0.00000000000000000 
Triangulations 0

TShapes 112
Ve
0.000000100000000
338.999999999996248 -0.000000000025338 0.000000000000000
0 0

0101101
*
Ve
0.000000100000000
338.999999999996248 -0.000000000025338 1.500000000000000
0 0

0101101
*
Ed
 0.000000100000000 1 1 0
1  1 0 0.000000000000000 1.500000000000000
0

0101000
+112 4 -111 4 *
Ve
0.000000100000000
338.999999999996248 7.999999999950481 0.000000000000000
0 0

0101101
*
Ve
0.000000100000000
338.999999999996248 7.999999999950481 1.500000000000000
0 0

0101101
*
Ed
 0.000000100000000 1 1 0
1  2 0 0.000000000000000 1.500000000000000
0

0101000
+109 4 -108 4 *
Ed
 0.000000100000000 1 1 0
1  3 0 0.000000000000000 7.999999999975818
0

0101000
+112 9 -109 9 *
Ed
 0.000000100000000 1 1 0
1  4 0 0.000000000000000 7.999999999975818
0

0101000
+111 12 -108 12 *
Wi

0101100
+110 0 -107 0 -106 8 +105 11 *
Fa
0  0.000000100000000 1 0

0111000
+104 0 *
Ve
0.000000100000000
344.999999999994941 7.999999999950481 0.000000000000000
0 0

0101101
*
Ve
0.000000100000000
344.999999999994941 7.999999999950481 1.500000000000000
0 0

0101101
*
Ed
 0.000000100000000 1 1 0
1  5 0 0.000000000000000 1.500000000000000
0

0101000
+102 4 -101 4 *
Ed
 0.000000100000000 1 1 0
1  6 0 0.000000000000000 5.999999999998693
0

0101000
+109 9 -102 9 *
Ed
 0.000000100000000 1 1 0
1  7 0 0.000000000000000 5.999999999998693
0

0101000
+108 12 -101 12 *
Wi

0101100
+107 0 -100 0 -99 8 +98 11 *
Fa
0  0.000000100000000 2 0

0111000
+97 0 *
Ve
0.000000100000000
344.999999999994941 93.999999999873964 0.000000000000000
0 0

0101101
*
Ve
0.000000100000000
344.999999999994941 93.999999999873964 1.500000000000000
0 0

0101101
*
Ed
 0.000000100000000 1 1 0
1  8 0 0.000000000000000 1.500000000000000
2  1 4 0 0.000000000000000 1.500000000000000
4 G1 3 0 4 0
0

0101000
+95 4 -94 4 *
Ed
 0.000000100000000 1 1 0
1  9 0 0.000000000000000 85.999999999923489
0

0101000
+102 9 -95 9 *
Ed
 0.000000100000000 1 1 0
1  10 0 0.000000000000000 85.999999999923489
0

0101000
+101 12 -94 12 *
Wi

0101100
+100 0 -93 0 -92 8 +91 11 *
Fa
0  0.000000100000000 3 0

0111000
+90 0 *
Ve
0.000000100000000
342.999999999979536 95.999999999909733 0.000000000000000
0 0

0101101
*
Ve
0.000000100000000
342.999999999979536 95.999999999909733 1.500000000000000
0 0

0101101
*
Ed
 0.000000100000000 1 1 0
1  11 0 0.000000000000000 1.500000000000000
2  2 4 0 0.000000000000000 1.500000000000000
0

0101000
+88 4 -87 4 *
Ed
 0.000000100000000 1 1 0
1  12 0 -0.000000000011814 1.570796326796522
2  3 4 13 -0.000000000011814 1.570796326796522
0

0101000
+95 9 -88 9 *
Ed
 0.000000100000000 1 1 0
1  13 0 -0.000000000011814 1.570796326796522
2  4 4 14 -0.000000000011814 1.570796326796522
0

0101000
+94 12 -87 12 *
Wi

0101100
+93 0 -86 0 -85 8 +84 11 *
Fa
0  0.000000100000000 4 0

0111000
+83 0 *
Ve
0.000000100000000
-338.999999999996248 -0.000000000025338 1.500000000000000
0 0

0101101
*
Ed
 0.000000100000000 1 1 0
1  14 0 -338.999999999996248 338.999999999996248
0

0101000
+81 15 -111 15 *
Ve
0.000000100000000
-338.999999999996248 -0.000000000025338 0.000000000000000
0 0

0101101
*
Ed
 0.000000100000000 1 1 0
1  15 0 0.000000000000000 1.500000000000000
0

0101000
+79 17 -81 17 *
Ed
 0.000000100000000 1 1 0
1  16 0 -338.999999999996248 338.999999999996248
0

0101000
+112 15 -79 15 *
Wi

0101000
+110 2 -80 0 -78 16 -77 0 *
Fa
0  0.000000100000000 5 0

0111000
+76 0 *
Ve
0.000000100000000
-338.999999999996248 7.999999999950481 0.000000000000000
0 0

0101101
*
Ve
0.000000100000000
-338.999999999996248 7.999999999950481 1.500000000000000
0 0

0101101
*
Ed
 0.000000100000000 1 1 0
1  17 0 0.000000000000000 1.500000000000000
0

0101000
+74 17 -73 17 *
Ed
 0.000000100000000 1 1 0
1  18 0 0.000000000000000 7.999999999975818
0

0101000
+79 18 -74 18 *
Ed
 0.000000100000000 1 1 0
1  19 0 0.000000000000000 7.999999999975818
0

0101000
+81 19 -73 19 *
Wi

0101100
+78 0 -72 0 -71 8 +70 11 *
Fa
0  0.000000100000000 6 0

0111000
+69 0 *
Ve
0.000000100000000
-344.999999999994941 7.999999999950481 0.000000000000000
0 0

0101101
*
Ve
0.000000100000000
-344.999999999994941 7.999999999950481 1.500000000000000
0 0

0101101
*
Ed
 0.000000100000000 1 1 0
1  20 0 0.000000000000000 1.500000000000000
0

0101000
+67 17 -66 17 *
Ed
 0.000000100000000 1 1 0
1  21 0 0.000000000000000 5.999999999998693
0

0101000
+74 18 -67 18 *
Ed
 0.000000100000000 1 1 0
1  22 0 0.000000000000000 5.999999999998693
0

0101000
+73 19 -66 19 *
Wi

0101100
+72 0 -65 0 -64 8 +63 11 *
Fa
0  0.000000100000000 7 0

0111000
+62 0 *
Ve
0.000000100000000
-344.999999999994941 93.999999999873964 0.000000000000000
0 0

0101101
*
Ve
0.000000100000000
-344.999999999994941 93.999999999873964 1.500000000000000
0 0

0101101
*
Ed
 0.000000100000000 1 1 0
1  23 0 0.000000000000000 1.500000000000000
2  5 9 0 0.000000000000000 1.500000000000000
4 G1 8 0 9 0
0

0101000
+60 17 -59 17 *
Ed
 0.000000100000000 1 1 0
1  24 0 0.000000000000000 85.999999999923489
0

0101000
+67 18 -60 18 *
Ed
 0.000000100000000 1 1 0
1  25 0 0.000000000000000 85.999999999923489
0

0101000
+66 19 -59 19 *
Wi

0101100
+65 0 -58 0 -57 8 +56 11 *
Fa
0  0.000000100000000 8 0

0111000
+55 0 *
Ve
0.000000100000000
-342.999999999979536 95.999999999909733 0.000000000000000
0 0

0101101
*
Ve
0.000000100000000
-342.999999999979536 95.999999999909733 1.500000000000000
0 0

0101101
*
Ed
 0.000000100000000 1 1 0
1  26 0 0.000000000000000 1.500000000000000
2  6 9 0 0.000000000000000 1.500000000000000
0

0101000
+53 17 -52 17 *
Ed
 0.000000100000000 1 1 0
1  27 0 -0.000000000011814 1.570796326796522
2  7 9 13 -0.000000000011814 1.570796326796522
0

0101000
+60 18 -53 18 *
Ed
 0.000000100000000 1 1 0
1  28 0 -0.000000000011814 1.570796326796522
2  8 9 14 -0.000000000011814 1.570796326796522
0

0101000
+59 19 -52 19 *
Wi

0101100
+58 0 -51 0 -50 8 +49 11 *
Fa
0  0.000000100000000 9 0

0111000
+48 0 *
Ed
 0.000000100000000 1 1 0
1  29 0 0.000000000000000 685.999999999959073
0

0101000
+53 15 -88 15 *
Wi

0101000
+77 0 +71 20 +64 20 +57 20 +50 20 +46 0 -85 21 -92 21 -99 21 -106 21 
*
Ve
0.000000100000000
330.499999999996248 15.499999999945345 0.000000000000000
0 0

0101101
*
Ed
 0.000000100000000 1 1 0
1  30 0 0.000000000000000 6.283185307179586
2  9 11 13 0.000000000000000 6.283185307179586
0

0101100
+44 9 -44 9 *
Wi

0101100
+43 21 *
Ve
0.000000100000000
-330.499999999996248 15.499999999945345 0.000000000000000
0 0

0101101
*
Ed
 0.000000100000000 1 1 0
1  31 0 0.000000000000000 6.283185307179586
2  10 12 13 0.000000000000000 6.283185307179586
0

0101100
+41 18 -41 18 *
Wi

0101100
-40 20 *
Ve
0.000000100000000
330.499999999996248 75.499999999942716 0.000000000000000
0 0

0101101
*
Ed
 0.000000100000000 1 1 0
1  32 0 0.000000000000000 6.283185307179586
2  11 13 13 0.000000000000000 6.283185307179586
0

0101100
+38 9 -38 9 *
Wi

0101100
+37 21 *
Ve
0.000000100000000
-330.499999999996248 75.499999999942716 0.000000000000000
0 0

0101101
*
Ed
 0.000000100000000 1 1 0
1  33 0 0.000000000000000 6.283185307179586
2  12 14 13 0.000000000000000 6.283185307179586
0

0101100
+35 18 -35 18 *
Wi

0101100
-34 20 *
Fa
0  0.000000100000000 10 0

0111000
+45 0 +42 0 +39 0 +36 0 +33 0 *
Ve
0.000000100000000
330.499999999996248 15.499999999945345 1.500000000000000
0 0

0101101
*
Ed
 0.000000100000000 1 1 0
1  34 0 0.000000000000000 1.500000000000000
3  13 14CN 11 0 0.000000000000000 1.500000000000000
0

0101000
+44 4 -31 4 *
Ed
 0.000000100000000 1 1 0
1  35 0 0.000000000000000 6.283185307179586
2  15 11 14 0.000000000000000 6.283185307179586
0

0101100
+31 12 -31 12 *
Wi

0101100
+30 0 -30 0 -43 8 +29 11 *
Fa
0  0.000000100000000 11 0

0111000
+28 0 *
Ve
0.000000100000000
-330.499999999996248 15.499999999945345 1.500000000000000
0 0

0101101
*
Ed
 0.000000100000000 1 1 0
1  36 0 0.000000000000000 1.500000000000000
3  16 17CN 12 0 0.000000000000000 1.500000000000000
0

0101000
+41 17 -26 17 *
Ed
 0.000000100000000 1 1 0
1  37 0 0.000000000000000 6.283185307179586
2  18 12 14 0.000000000000000 6.283185307179586
0

0101100
+26 19 -26 19 *
Wi

0101100
+25 0 -25 0 -40 8 +24 11 *
Fa
0  0.000000100000000 12 0

0111000
+23 0 *
Ve
0.000000100000000
330.499999999996248 75.499999999942716 1.500000000000000
0 0

0101101
*
Ed
 0.000000100000000 1 1 0
1  38 0 0.000000000000000 1.500000000000000
3  19 20CN 13 0 0.000000000000000 1.500000000000000
0

0101000
+38 4 -21 4 *
Ed
 0.000000100000000 1 1 0
1  39 0 0.000000000000000 6.283185307179586
2  21 13 14 0.000000000000000 6.283185307179586
0

0101100
+21 12 -21 12 *
Wi

0101100
+20 0 -20 0 -37 8 +19 11 *
Fa
0  0.000000100000000 13 0

0111000
+18 0 *
Ve
0.000000100000000
-330.499999999996248 75.499999999942716 1.500000000000000
0 0

0101101
*
Ed
 0.000000100000000 1 1 0
1  40 0 0.000000000000000 1.500000000000000
3  22 23CN 14 0 0.000000000000000 1.500000000000000
0

0101000
+35 17 -16 17 *
Ed
 0.000000100000000 1 1 0
1  41 0 0.000000000000000 6.283185307179586
2  24 14 14 0.000000000000000 6.283185307179586
0

0101100
+16 19 -16 19 *
Wi

0101100
+15 0 -15 0 -34 8 +14 11 *
Fa
0  0.000000100000000 14 0

0111000
+13 0 *
Ed
 0.000000100000000 1 1 0
1  42 0 0.000000000000000 685.999999999959073
0

0101000
+87 15 -52 15 *
Wi

0101000
+80 0 +105 22 +98 22 +91 22 +84 22 +11 0 -49 23 -56 23 -63 23 -70 23 
*
Wi

0101100
-29 22 *
Wi

0101100
+24 23 *
Wi

0101100
-19 22 *
Wi

0101100
+14 23 *
Fa
0  0.000000100000000 15 0

0111000
+10 0 +9 0 +8 0 +7 0 +6 0 *
Wi

0101000
-86 2 -46 0 +51 16 -11 0 *
Fa
0  0.000000100000000 16 0

0111000
+4 0 *
Sh

0101000
-103 2 -96 2 -89 2 -82 2 +75 0 +68 16 +61 16 +54 16 +47 16 +32 0 
+27 2 -22 16 +17 2 -12 16 +5 0 +3 0 *
So

1100000
+2 0 *

+1 1 