
CASCADE Topology V1, (c) Matra-Datavision
Locations 1
1
1.000000000000000 0.000000000000000 0.000000000000000 0.000000000000000 
0.000000000000000 1.000000000000000 0.000000000000000 -0.000021746097133 
0.000000000000000 0.000000000000000 1.000000000000000 -0.000000000000004 
Curve2ds 24
1 0.00000000000000000 0.00000000000000000 1.00000000000000000 0.00000000000000000 
1 0.00000000000000000 0.00000000000000000 1.00000000000000000 0.00000000000000000 
1 4.00000000000069456 0.00000000000000000 0.00000000000000000 -1.00000000000000000 
1 0.00000000000000000 0.00000000000000000 0.00000000000000000 1.00000000000000000 
1 0.00000000000000000 -1432.84614079018160737 1.00000000000000000 0.00000000000000000 
1 0.00000000000000000 0.00000000000000000 1.00000000000000000 0.00000000000000000 
1 0.00000000000000000 0.00000000000000000 0.00000000000000000 -1.00000000000000000 
1 0.00000000000000000 0.00000000000000000 0.00000000000000000 1.00000000000000000 
1 0.00000000000000000 0.00000000000000000 1.00000000000000000 0.00000000000000000 
1 0.00000000000000000 1449.26692174609706854 1.00000000000000000 0.00000000000000000 
1 4.00000000000069456 0.00000000000000000 0.00000000000000000 -1.00000000000000000 
1 1449.26692174609706854 0.00000000000000000 0.00000000000000000 1.00000000000000000 
1 0.00000000000000000 -1432.84614079018160737 1.00000000000000000 0.00000000000000000 
1 0.00000000000000000 1449.26692174609706854 1.00000000000000000 0.00000000000000000 
1 0.00000000000000000 0.00000000000000000 0.00000000000000000 -1.00000000000000000 
1 1449.26692174609706854 0.00000000000000000 0.00000000000000000 1.00000000000000000 
1 0.00000000000000000 0.00000000000000000 0.00000000000000000 1.00000000000000000 
1 0.00000000000000000 0.00000000000000000 1.00000000000000000 0.00000000000000000 
1 4.00000000000069456 0.00000000000000000 0.00000000000000000 1.00000000000000000 
1 0.00000000000000000 0.00000000000000000 1.00000000000000000 0.00000000000000000 
1 0.00000000000000000 0.00000000000000000 0.00000000000000000 1.00000000000000000 
1 0.00000000000000000 1432.84614079018160737 1.00000000000000000 0.00000000000000000 
1 4.00000000000069456 0.00000000000000000 0.00000000000000000 1.00000000000000000 
1 0.00000000000000000 1432.84614079018160737 1.00000000000000000 0.00000000000000000 
Curves 12
1 0.00000000000000000 0.00000000000000000 0.00000000000000000 0.00000000000000000 0.00000000000000000 1.00000000000000000 
1 0.00000000000000000 0.00000000000000000 4.00000000000069456 -0.00000000000000000 1.00000000000000000 0.00000000000000000 
1 0.00000000000000000 1432.84614079018160737 0.00000000000000000 0.00000000000000000 0.00000000000000000 1.00000000000000000 
1 0.00000000000000000 0.00000000000000000 0.00000000000000000 -0.00000000000000000 1.00000000000000000 0.00000000000000000 
1 1449.26692174609706854 0.00000000000000000 0.00000000000000000 0.00000000000000000 0.00000000000000000 1.00000000000000000 
1 1449.26692174609706854 0.00000000000000000 4.00000000000069456 -0.00000000000000000 1.00000000000000000 0.00000000000000000 
1 1449.26692174609706854 1432.84614079018160737 0.00000000000000000 0.00000000000000000 0.00000000000000000 1.00000000000000000 
1 1449.26692174609706854 0.00000000000000000 0.00000000000000000 -0.00000000000000000 1.00000000000000000 0.00000000000000000 
1 0.00000000000000000 0.00000000000000000 0.00000000000000000 1.00000000000000000 0.00000000000000000 -0.00000000000000000 
1 0.00000000000000000 0.00000000000000000 4.00000000000069456 1.00000000000000000 0.00000000000000000 -0.00000000000000000 
1 0.00000000000000000 1432.84614079018160737 0.00000000000000000 1.00000000000000000 0.00000000000000000 -0.00000000000000000 
1 0.00000000000000000 1432.84614079018160737 4.00000000000069456 1.00000000000000000 0.00000000000000000 -0.00000000000000000 
Polygon3D 0
PolygonOnTriangulations 0
Surfaces 6
1 0.00000000000000000 0.00000000000000000 0.00000000000000000 1.00000000000000000 0.00000000000000000 -0.00000000000000000 0.00000000000000000 0.00000000000000000 1.00000000000000000 0.00000000000000000 -1.00000000000000000 0.00000000000000000 
1 0.00000000000000000 0.00000000000000000 0.00000000000000000 -0.00000000000000000 1.00000000000000000 0.00000000000000000 0.00000000000000000 0.00000000000000000 1.00000000000000000 1.00000000000000000 0.00000000000000000 -0.00000000000000000 
1 0.00000000000000000 0.00000000000000000 4.00000000000069456 0.00000000000000000 0.00000000000000000 1.00000000000000000 1.00000000000000000 0.00000000000000000 -0.00000000000000000 -0.00000000000000000 1.00000000000000000 0.00000000000000000 
1 0.00000000000000000 1432.84614079018160737 0.00000000000000000 -0.00000000000000000 1.00000000000000000 0.00000000000000000 0.00000000000000000 0.00000000000000000 1.00000000000000000 1.00000000000000000 0.00000000000000000 -0.00000000000000000 
1 0.00000000000000000 0.00000000000000000 0.00000000000000000 0.00000000000000000 0.00000000000000000 1.00000000000000000 1.00000000000000000 0.00000000000000000 -0.00000000000000000 -0.00000000000000000 1.00000000000000000 0.00000000000000000 
1 1449.26692174609706854 0.00000000000000000 0.00000000000000000 1.00000000000000000 0.00000000000000000 -0.00000000000000000 0.00000000000000000 0.00000000000000000 1.00000000000000000 0.00000000000000000 -1.00000000000000000 0.00000000000000000 
Triangulations 0

TShapes 34
Ve
0.000000100000000
0.000000000000000 0.000000000000000 4.000000000000695
0 0

0101101
*
Ve
0.000000100000000
0.000000000000000 0.000000000000000 0.000000000000000
0 0

0101101
*
Ed
 0.000000100000000 1 1 0
1  1 0 0.000000000000000 4.000000000000695
2  1 1 0 0.000000000000000 4.000000000000695
2  2 2 0 0.000000000000000 4.000000000000695
0

0101000
-34 0 +33 0 *
Ve
0.000000100000000
0.000000000000000 1432.846140790181607 4.000000000000695
0 0

0101101
*
Ed
 0.000000100000000 1 1 0
1  2 0 0.000000000000000 1432.846140790181607
2  3 1 0 0.000000000000000 1432.846140790181607
2  4 3 0 0.000000000000000 1432.846140790181607
0

0101000
-31 0 +34 0 *
Ve
0.000000100000000
0.000000000000000 1432.846140790181607 0.000000000000000
0 0

0101101
*
Ed
 0.000000100000000 1 1 0
1  3 0 0.000000000000000 4.000000000000695
2  5 1 0 0.000000000000000 4.000000000000695
2  6 4 0 0.000000000000000 4.000000000000695
0

0101000
-31 0 +29 0 *
Ed
 0.000000100000000 1 1 0
1  4 0 0.000000000000000 1432.846140790181607
2  7 1 0 0.000000000000000 1432.846140790181607
2  8 5 0 0.000000000000000 1432.846140790181607
0

0101000
-29 0 +33 0 *
Wi

0101100
-32 0 -30 0 +28 0 +27 0 *
Fa
0  0.000000100000000 1 0

0111000
+26 0 *
Ve
0.000000100000000
1449.266921746097069 0.000000000000000 4.000000000000695
0 0

0101101
*
Ve
0.000000100000000
1449.266921746097069 0.000000000000000 0.000000000000000
0 0

0101101
*
Ed
 0.000000100000000 1 1 0
1  5 0 0.000000000000000 4.000000000000695
2  9 6 0 0.000000000000000 4.000000000000695
2  10 2 0 0.000000000000000 4.000000000000695
0

0101000
-24 0 +23 0 *
Ve
0.000000100000000
1449.266921746097069 1432.846140790181607 4.000000000000695
0 0

0101101
*
Ed
 0.000000100000000 1 1 0
1  6 0 0.000000000000000 1432.846140790181607
2  11 6 0 0.000000000000000 1432.846140790181607
2  12 3 0 0.000000000000000 1432.846140790181607
0

0101000
-21 0 +24 0 *
Ve
0.000000100000000
1449.266921746097069 1432.846140790181607 0.000000000000000
0 0

0101101
*
Ed
 0.000000100000000 1 1 0
1  7 0 0.000000000000000 4.000000000000695
2  13 6 0 0.000000000000000 4.000000000000695
2  14 4 0 0.000000000000000 4.000000000000695
0

0101000
-21 0 +19 0 *
Ed
 0.000000100000000 1 1 0
1  8 0 0.000000000000000 1432.846140790181607
2  15 6 0 0.000000000000000 1432.846140790181607
2  16 5 0 0.000000000000000 1432.846140790181607
0

0101000
-19 0 +23 0 *
Wi

0101100
-22 0 -20 0 +18 0 +17 0 *
Fa
0  0.000000100000000 6 0

0111000
+16 0 *
Ed
 0.000000100000000 1 1 0
1  9 0 0.000000000000000 1449.266921746097069
2  17 2 0 0.000000000000000 1449.266921746097069
2  18 5 0 0.000000000000000 1449.266921746097069
0

0101000
-23 0 +33 0 *
Ed
 0.000000100000000 1 1 0
1  10 0 0.000000000000000 1449.266921746097069
2  19 2 0 0.000000000000000 1449.266921746097069
2  20 3 0 0.000000000000000 1449.266921746097069
0

0101000
-24 0 +34 0 *
Wi

0101100
-14 0 -22 0 +13 0 +32 0 *
Fa
0  0.000000100000000 2 0

0111000
+12 0 *
Ed
 0.000000100000000 1 1 0
1  11 0 0.000000000000000 1449.266921746097069
2  21 4 0 0.000000000000000 1449.266921746097069
2  22 5 0 0.000000000000000 1449.266921746097069
0

0101000
-19 0 +29 0 *
Ed
 0.000000100000000 1 1 0
1  12 0 0.000000000000000 1449.266921746097069
2  23 4 0 0.000000000000000 1449.266921746097069
2  24 3 0 0.000000000000000 1449.266921746097069
0

0101000
-21 0 +31 0 *
Wi

0101100
-10 0 -18 0 +9 0 +28 0 *
Fa
0  0.000000100000000 4 0

0111000
+8 0 *
Wi

0101100
-27 0 -10 0 +17 0 +14 0 *
Fa
0  0.000000100000000 5 0

0111000
+6 0 *
Wi

0101100
-30 0 -9 0 +20 0 +13 0 *
Fa
0  0.000000100000000 3 0

0111000
+4 0 *
Sh

0101100
-25 0 +15 0 -11 0 +7 0 -5 0 +3 0 *
So

1100000
+2 0 *

+1 1 