
CASCADE Topology V1, (c) Matra-Datavision
Locations 22
1
1.000000000000000 0.000000000000000 0.000000000000000 0.000000000000000 
0.000000000000000 1.000000000000000 0.000000000000000 0.000000000000000 
0.000000000000000 0.000000000000000 1.000000000000000 0.000000000000000 
1
1.000000000000000 0.000000000000000 0.000000000000000 0.000000000000000 
0.000000000000000 0.707106781186548 -0.707106781186547 109.883485192468584 
0.000000000000000 0.707106781186547 0.707106781186548 -264.482200232480636 
1
1.000000000000000 0.000000000000000 0.000000000000000 0.000000000000000 
0.000000000000000 0.707106781186548 -0.707106781186547 109.883485192468584 
0.000000000000000 0.707106781186547 0.707106781186548 -264.482200232480636 
2  3 -1 0
2  2 1 3 -1 0
1
1.000000000000000 0.000000000000000 0.000000000000000 0.000000000000000 
0.000000000000000 1.000000000000000 0.000000000000000 0.000000000000000 
0.000000000000000 0.000000000000000 1.000000000000000 0.300000000000000 
2  6 -1 0
2  2 -1 0
2  6 1 2 1 0
2  2 -1 6 -1 0
1
1.000000000000000 0.000000000000000 0.000000000000000 0.000000000000000 
0.000000000000000 1.000000000000000 0.000000000000000 0.000000000000000 
0.000000000000000 0.000000000000000 1.000000000000000 0.000000000000000 
2  11 -1 0
2  6 1 2 1 3 -1 0
1
1.000000000000000 0.000000000000000 0.000000000000000 -0.000000000000000 
0.000000000000000 1.000000000000000 0.000000000000000 206.000000000000000 
0.000000000000000 0.000000000000000 1.000000000000000 0.000000000000046 
2  14 1 11 1 0
2  14 -1 0
2  11 -1 14 -1 0
1
1.000000000000000 0.000000000000000 0.000000000000000 0.000000000000000 
0.000000000000000 1.000000000000000 0.000000000000000 -206.000000000000000 
0.000000000000000 0.000000000000000 1.000000000000000 -0.000000000000046 
2  14 1 18 1 11 1 0
2  18 -1 14 -1 0
2  11 -1 18 -1 14 -1 0
2  14 1 18 1 0
Curve2ds 129
1 0.40000000000000002 0.00000000000000000 -1.00000000000000000 0.00000000000000000 
1 0.28284271247462484 0.28284271247463266 -0.70710678118654757 -0.70710678118654746 
1 -0.15000000000000002 -11.10000000000000142 1.00000000000000000 -0.00000000000000000 
1 0.00000000000000000 0.00000000000000000 0.00000000000000000 -1.00000000000000000 
1 6.90538238691624429 0.00000000000000000 0.00000000000000000 -1.00000000000000000 
1 0.00000000000000000 0.00000000000000000 0.00000000000000053 -1.00000000000000000 
1 0.00000000000000000 0.00000000000000000 1.00000000000000000 0.00000000000000000 
1 0.00000000000000000 -0.29999999999999999 1.00000000000000000 0.00000000000000000 
1 11.09999999999999964 -3.45269119345817899 0.00000000000000000 1.00000000000000000 
1 0.00000000000000000 22.20000000000000284 1.00000000000000000 0.00000000000000000 
2 0.00000000000000000 0.00000000000000000 1.00000000000000000 0.00000000000000000 -0.00000000000000000 1.00000000000000000 0.40000000000000002
2 0.00000000000000000 0.00000000000000000 1.00000000000000000 0.00000000000000000 -0.00000000000000000 1.00000000000000000 0.10000000000000003
1 0.00000000000000000 0.00000000000000000 1.00000000000000000 0.00000000000000000 
6 0 1 0.40000000000000036 -0.29999999999999999  0.40000000000000036 0.00000000000000000  
8 0.00000000000000000 1.00000000000000000
1 6.28318530717958623 0.00000000000000000 0.00000000000000000 1.00000000000000000 
6 0 1 0.10000000000000003 0.00000000000000000  0.40000000000000002 0.00000000000000000  
1 0.00000000000000000 -0.00000000000000000 0.00000000000000000 -1.00000000000000000 
1 22.20000000000000284 0.00000000000000000 0.00000000000000053 -1.00000000000000000 
1 11.09999999999999964 3.45269119345806530 -1.00000000000000000 0.00000000000000000 
1 0.00000000000000000 0.00000000000000000 1.00000000000000000 0.00000000000000000 
1 0.00000000000000000 -0.29999999999999999 1.00000000000000000 0.00000000000000000 
1 0.00000000000000000 0.00000000000000000 0.00000000000000000 1.00000000000000000 
1 0.78539816339744828 0.00000000000000000 0.00000000000000000 1.00000000000000000 
1 -0.15000000000000002 11.09999999999999964 0.00000000000000000 -1.00000000000000000 
1 -11.10000000000000142 -3.45269119345817899 1.00000000000000000 0.00000000000000000 
1 0.00000000000000000 -0.00000000000000000 1.00000000000000000 0.00000000000000000 
1 0.00000000000000000 -0.29999999999999999 1.00000000000000000 0.00000000000000000 
1 -11.10000000000000142 3.45269119345806530 0.00000000000000000 -1.00000000000000000 
1 0.00000000000000000 0.00000000000000000 0.00000000000000000 1.00000000000000000 
1 0.78539816339744828 0.00000000000000000 0.00000000000000000 1.00000000000000000 
1 0.14999999999999997 -11.10000000000000142 0.00000000000000000 1.00000000000000000 
1 11.09999999999999964 -3.45269119345817899 -1.00000000000000000 0.00000000000000000 
1 0.00000000000000000 0.00000000000000000 1.00000000000000000 0.00000000000000000 
2 0.00000000000000000 0.00000000000000000 -1.00000000000000000 0.00000000000000000 0.00000000000000000 1.00000000000000000 0.40000000000000002
1 0.00000000000000000 0.00000000000000000 1.00000000000000000 0.00000000000000000 
1 -0.40000000000000036 0.00000000000000000 1.00000000000000000 0.00000000000000000 
8 0.40000000000000036 22.60000000000000142
1 0.00000000000000000 22.60000000000000142 -0.00000000000000000 -1.00000000000000000 
1 0.00000000000000000 22.20000000000000284 1.00000000000000000 0.00000000000000000 
2 0.00000000000000000 0.00000000000000000 -1.00000000000000000 0.00000000000000000 0.00000000000000000 1.00000000000000000 0.10000000000000003
1 -0.40000000000000036 0.00000000000000000 1.00000000000000000 0.00000000000000000 
1 0.00000000000000000 -0.29999999999999999 1.00000000000000000 0.00000000000000000 
8 0.40000000000000036 22.60000000000000142
1 0.00000000000000000 -0.40000000000000036 0.00000000000000000 1.00000000000000000 
1 0.00000000000000000 0.00000000000000000 1.00000000000000000 0.00000000000000000 
1 0.00000000000000000 0.00000000000000000 1.00000000000000000 0.00000000000000000 
1 0.00000000000000000 1.00000000000000000 1.00000000000000000 0.00000000000000000 
1 0.00000000000000000 0.00000000000000000 1.00000000000000000 0.00000000000000000 
1 4.71238898038467902 0.00000000000000000 0.00000000000000000 1.00000000000000000 
6 0 1 77.59999999999999432 -0.30000000000000071  77.59999999999999432 0.00000000000000000  
1 -0.10000000000000003 0.00000000000000000 -1.00000000000000000 0.00000000000000000 
1 -0.07071067811863613 0.07071067811864395 -0.70710678118654757 0.70710678118654746 
1 0.14999999999999997 11.09999999999999964 -1.00000000000000000 0.00000000000000000 
1 6.90538238691624429 -0.29999999999999999 -0.00000000000000000 1.00000000000000000 
1 0.00000000000000000 0.00000000000000000 0.00000000000000000 1.00000000000000000 
6 0 1 22.60000000000000142 -0.29999999999999999  22.60000000000000142 0.00000000000000006  
6 0 1 -0.10000000000000003 0.00000000000000000  -0.40000000000000008 0.00000000000000000  
1 0.00000000000000000 0.00000000000000000 0.00000000000000000 -1.00000000000000000 
8 0.00000000000000000 206.00000000000000000
1 6.28318530717958623 0.00000000000000000 0.00000000000000000 -1.00000000000000000 
1 0.00000000000000000 0.00000000000000000 0.00000000000000000 -1.00000000000000000 
1 22.20000000000000284 0.00000000000000000 0.00000000000000000 -1.00000000000000000 
1 0.00000000000000000 0.00000000000000000 -1.00000000000000000 0.00000000000000000 
1 -0.40000000000000036 -206.00000000000000000 1.00000000000000000 0.00000000000000000 
1 0.00000000000000000 0.00000000000000000 0.00000000000000000 -1.00000000000000000 
1 6.28318530717958623 0.00000000000000000 0.00000000000000000 -1.00000000000000000 
1 0.00000000000000000 0.00000000000000000 0.00000000000000000 -1.00000000000000000 
1 22.20000000000000284 0.00000000000000000 0.00000000000000000 -1.00000000000000000 
1 -0.40000000000000036 -206.00000000000000000 1.00000000000000000 0.00000000000000000 
1 0.00000000000000000 -0.29999999999999999 -1.00000000000000000 0.00000000000000000 
1 4.71238898038467902 0.00000000000000000 0.00000000000000000 -1.00000000000000000 
1 77.59999999999999432 0.00000000000003961 0.00000000000000000 -1.00000000000000000 
1 0.00000000000000000 -206.00000000000000000 1.00000000000000000 0.00000000000000000 
1 6.28318530717958623 0.00000000000000000 -1.00000000000000000 0.00000000000000000 
1 4.71238898038467902 0.00000000000000000 0.00000000000000000 -1.00000000000000000 
1 77.59999999999999432 0.00000000000003961 0.00000000000000000 -1.00000000000000000 
1 6.28318530717958623 1.00000000000000000 -1.00000000000000000 0.00000000000000000 
1 0.00000000000000000 -206.00000000000000000 1.00000000000000000 0.00000000000000000 
1 0.00000000000000000 0.00000000000000000 1.00000000000000000 0.00000000000000000 
1 0.00000000000000000 -0.30000000000000071 1.00000000000000000 0.00000000000000000 
1 0.00000000000000000 0.00000000000000000 1.00000000000000000 0.00000000000000000 
1 0.00000000000000000 0.00000000000000000 1.00000000000000000 0.00000000000000000 
6 0 1 0.00000000000000000 -0.30000000000000071  0.00000000000000000 0.00000000000000000  
6 0 1 0.00000000000000000 -0.30000000000000071  0.00000000000000000 0.00000000000000000  
1 0.00000000000000000 0.00000000000000000 1.00000000000000000 0.00000000000000000 
1 0.00000000000000000 0.00000000000000000 1.00000000000000000 0.00000000000000000 
6 0 1 0.39999999999999997 -0.30000000000000071  0.39999999999999997 0.00000000000000000  
8 0.00000000000000000 1.00000000000000000
1 1.57079632679489656 0.00000000000000000 0.00000000000000000 1.00000000000000000 
1 0.00000000000000000 1.00000000000000000 1.00000000000000000 0.00000000000000000 
1 0.00000000000000000 0.00000000000000000 1.00000000000000000 0.00000000000000000 
1 0.00000000000000000 0.00000000000000000 0.00000000000000000 -1.00000000000000000 
8 0.00000000000000000 206.00000000000000000
1 1.57079632679489656 0.00000000000000000 0.00000000000000000 -1.00000000000000000 
1 6.28318530717958623 1.00000000000000000 -1.00000000000000000 0.00000000000000000 
1 0.00000000000000000 -206.00000000000000000 1.00000000000000000 0.00000000000000000 
6 0 1 -0.40000000000000036 -0.29999999999999999  -0.40000000000000036 0.00000000000000000  
8 0.00000000000000000 1.00000000000000000
1 0.00000000000000000 0.00000000000000000 0.00000000000000000 1.00000000000000000 
1 6.28318530717958623 0.00000000000000000 0.00000000000000000 1.00000000000000000 
7 0 0  1 2 2  -22.60000000000000142 -0.29999999999999999  -22.60000000000000142 0.00000000000000008 
 0.00000000000000000 2 1.00000000000000000 2
1 0.00000000000000000 0.00000000000000000 0.00000000000000000 -1.00000000000000000 
1 1.57079632679489656 0.00000000000000000 0.00000000000000000 -1.00000000000000000 
1 0.00000000000000000 -206.00000000000000000 1.00000000000000000 0.00000000000000000 
1 6.28318530717958623 0.00000000000000000 -1.00000000000000000 0.00000000000000000 
1 0.00000000000000000 0.00000000000000000 0.00000000000000000 -1.00000000000000000 
1 0.00000000000000000 -0.30000000000000071 -1.00000000000000000 0.00000000000000000 
1 -0.00000000000000311 -205.99999999999997158 1.00000000000000000 0.00000000000000000 
1 0.00000000000000000 -0.30000000000000071 -1.00000000000000000 0.00000000000000000 
1 1.57079632679490722 0.00000000000000000 0.00000000000000000 1.00000000000000000 
7 0 0  1 2 2  -77.59999999999999432 -0.29999999999999893  -77.59999999999999432 0.00000000000000178 
 0.00000000000000000 2 1.00000000000000000 2
1 0.00000000000000000 0.00000000000000000 -1.00000000000000000 0.00000000000000000 
1 0.00000000000000000 0.00000000000000000 0.00000000000000000 -1.00000000000000000 
1 0.00000000000000000 0.00000000000000000 -1.00000000000000000 0.00000000000000000 
1 -0.00000000000000311 -205.99999999999997158 1.00000000000000000 0.00000000000000000 
6 0 1 -205.99999999999994316 -0.30000000000000071  -205.99999999999997158 0.00000000000000000  
6 0 1 0.00000000000000000 -0.30000000000000071  0.00000000000000000 0.00000000000000000  
1 -0.39999999999999997 -0.00000000000000009 1.00000000000000000 0.00000000000000000 
1 -0.00000000000000001 -0.30000000000000071 1.00000000000000000 0.00000000000000000 
6 0 1 0.00000000000000000 -0.30000000000000071  0.00000000000000000 0.00000000000000000  
6 0 1 78.00000000000000000 -0.30000000000000071  78.00000000000000000 0.00000000000000000  
1 0.00000000000000000 0.00000000000000000 1.00000000000000000 0.00000000000000000 
1 -0.39999999999999997 -0.00000000000000009 1.00000000000000000 0.00000000000000000 
1 0.00000000000000000 0.00000000000000000 1.00000000000000000 0.00000000000000000 
1 77.60000000000000853 -0.00000000000003961 0.00000000000000000 -1.00000000000000000 
1 0.00000000000000000 0.00000000000000000 -1.00000000000000000 0.00000000000000000 
1 -0.39999999999999997 -206.00000000000000000 1.00000000000000000 0.00000000000000000 
6 0 1 -0.39999999999999997 -0.30000000000000071  -0.39999999999999997 0.00000000000000000  
8 0.00000000000000000 1.00000000000000000
1 4.71238898038468967 0.00000000000000000 0.00000000000000000 1.00000000000000000 
1 77.60000000000000853 -0.00000000000003961 0.00000000000000000 -1.00000000000000000 
1 -0.00000000000000000 -0.30000000000000071 1.00000000000000000 0.00000000000000000 
1 -0.39999999999999997 -206.00000000000000000 1.00000000000000000 0.00000000000000000 
1 0.00000000000000001 -0.30000000000000071 -1.00000000000000000 0.00000000000000000 
6 0 1 205.99999999999994316 -0.30000000000000071  205.99999999999997158 0.00000000000000000  
6 0 1 -78.00000000000000000 -0.30000000000000071  -78.00000000000000000 0.00000000000000000  
Curves 57
1 -11.09999999999999964 374.19999999999998863 0.00000000000008310 0.00000000000000000 0.00000000000000000 1.00000000000000000 
1 -11.09999999999999964 381.10538238691623292 0.00000000000008310 0.00000000000000053 0.00000000000000000 1.00000000000000000 
1 -11.09999999999999964 374.19999999999998863 0.00000000000008310 0.00000000000000000 1.00000000000000000 0.00000000000000000 
2 -11.09999999999999964 374.19999999999998863 0.40000000000008312 1.00000000000000000 0.00000000000000000 0.00000000000000000 0.00000000000000000 0.00000000000000000 -1.00000000000000000 -0.00000000000000000 1.00000000000000000 0.00000000000000000 0.40000000000000002
2 -11.09999999999999964 374.19999999999998863 0.40000000000008312 1.00000000000000000 0.00000000000000000 0.00000000000000000 0.00000000000000000 0.00000000000000000 -1.00000000000000000 -0.00000000000000000 1.00000000000000000 0.00000000000000000 0.10000000000000003
6 0 1 -11.09999999999999964 374.19999999999998863 0.30000000000008309  -11.09999999999999964 374.19999999999998863 0.00000000000008310  
1 11.10000000000000142 381.10538238691623292 0.00000000000008310 0.00000000000000053 0.00000000000000000 1.00000000000000000 
1 -11.09999999999999964 381.10538238691623292 0.00000000000008310 1.00000000000000000 0.00000000000000000 0.00000000000000000 
1 11.10000000000000142 374.19999999999998863 0.00000000000008310 -1.00000000000000000 0.00000000000000000 0.00000000000000000 
1 11.10000000000000142 381.10538238691623292 0.00000000000008310 0.00000000000000000 -1.00000000000000000 0.00000000000000000 
1 -11.09999999999999964 374.19999999999998863 0.30000000000008309 1.00000000000000000 0.00000000000000000 0.00000000000000000 
2 11.10000000000000320 374.19999999999998863 0.40000000000008312 1.00000000000000000 0.00000000000000000 0.00000000000000000 0.00000000000000000 0.00000000000000000 -1.00000000000000000 -0.00000000000000000 1.00000000000000000 0.00000000000000000 0.40000000000000002
1 -11.50000000000000000 374.19999999999998863 0.00000000000008310 1.00000000000000000 0.00000000000000000 0.00000000000000000 
2 11.10000000000000320 374.19999999999998863 0.40000000000008312 1.00000000000000000 0.00000000000000000 0.00000000000000000 0.00000000000000000 0.00000000000000000 -1.00000000000000000 -0.00000000000000000 1.00000000000000000 0.00000000000000000 0.10000000000000003
1 -11.50000000000000000 168.19999999999998863 0.30000000000003735 1.00000000000000000 0.00000000000000000 0.00000000000000000 
2 -11.09999999999999964 168.19999999999998863 0.40000000000004299 0.00000000000000000 -1.00000000000000000 -0.00000000000000022 0.00000000000001088 0.00000000000000022 -1.00000000000000000 1.00000000000000000 -0.00000000000000000 0.00000000000001088 0.10000000000000001
2 -11.09999999999999964 374.19999999999998863 0.40000000000008873 0.00000000000000000 -1.00000000000000000 -0.00000000000000022 0.00000000000001088 0.00000000000000022 -1.00000000000000000 1.00000000000000000 -0.00000000000000000 0.00000000000001088 0.40000000000000002
6 0 1 -11.19999999999999929 374.19999999999998863 0.40000000000009406  -11.50000000000000000 374.19999999999998863 0.40000000000008873  
1 11.10000000000000142 374.19999999999998863 0.30000000000008309 0.00000000000000000 0.00000000000000000 -1.00000000000000000 
6 0 1 11.10000000000000142 374.19999999999998863 0.30000000000008309  11.10000000000000142 374.19999999999998863 0.00000000000008304  
1 -11.09999999999999964 374.19999999999998863 0.00000000000008310 0.00000000000000000 -1.00000000000000000 -0.00000000000000022 
1 11.10000000000000142 374.19999999999998863 0.00000000000008304 0.00000000000000000 -1.00000000000000000 -0.00000000000000022 
1 -11.50000000000000000 168.19999999999998863 0.00000000000003736 1.00000000000000000 0.00000000000000000 0.00000000000000000 
1 -11.09999999999999964 374.19999999999998863 0.30000000000008309 0.00000000000000000 -1.00000000000000000 -0.00000000000000022 
1 11.10000000000000142 374.19999999999998863 0.30000000000008309 0.00000000000000000 -1.00000000000000000 -0.00000000000000022 
1 -11.50000000000000000 168.19999999999998863 0.30000000000003735 1.00000000000000000 0.00000000000000000 0.00000000000000000 
1 -11.19999999999999929 374.19999999999998863 0.40000000000009406 0.00000000000000000 -1.00000000000000000 -0.00000000000000022 
2 -11.09999999999999964 168.19999999999998863 0.40000000000004299 0.00000000000000000 -1.00000000000000000 -0.00000000000000022 0.00000000000001088 0.00000000000000022 -1.00000000000000000 1.00000000000000000 -0.00000000000000000 0.00000000000001088 0.10000000000000001
1 -11.50000000000000000 374.19999999999998863 0.40000000000008873 0.00000000000000000 -1.00000000000000000 -0.00000000000000022 
2 -11.09999999999999964 168.19999999999998863 0.40000000000004299 0.00000000000000000 -1.00000000000000000 -0.00000000000000022 0.00000000000001088 0.00000000000000022 -1.00000000000000000 1.00000000000000000 -0.00000000000000000 0.00000000000001088 0.40000000000000002
1 -11.19999999999999929 168.19999999999996021 78.00000000000004263 0.00000000000000000 0.00000000000000022 -1.00000000000000000 
1 -11.50000000000000000 374.19999999999993179 78.00000000000008527 0.00000000000000000 0.00000000000000022 -1.00000000000000000 
6 0 1 -11.19999999999999929 374.19999999999993179 78.00000000000008527  -11.50000000000000000 374.19999999999993179 78.00000000000008527  
2 11.10000000000000142 168.19999999999998863 0.40000000000003733 0.00000000000000000 -1.00000000000000000 -0.00000000000000022 0.00000000000000000 0.00000000000000022 -1.00000000000000000 1.00000000000000000 0.00000000000000000 0.00000000000000000 0.10000000000000001
6 0 1 11.19999999999999929 374.19999999999998863 0.40000000000008307  11.50000000000000000 374.19999999999998863 0.40000000000008307  
2 11.10000000000000142 374.19999999999998863 0.40000000000008307 0.00000000000000000 -1.00000000000000000 -0.00000000000000022 0.00000000000000000 0.00000000000000022 -1.00000000000000000 1.00000000000000000 0.00000000000000000 0.00000000000000000 0.40000000000000002
1 11.50000000000000000 374.19999999999998863 0.40000000000008307 0.00000000000000000 -1.00000000000000000 -0.00000000000000022 
2 11.10000000000000142 168.19999999999998863 0.40000000000003733 0.00000000000000000 -1.00000000000000000 -0.00000000000000022 0.00000000000000000 0.00000000000000022 -1.00000000000000000 1.00000000000000000 0.00000000000000000 0.00000000000000000 0.40000000000000002
6 0 1 -11.09999999999999964 168.19999999999998863 0.30000000000003735  -11.09999999999999964 168.19999999999998863 0.00000000000003736  
7 0 0  1 2 2  11.10000000000000142 168.19999999999998863 0.30000000000003735  11.09999999999999964 168.19999999999998863 0.00000000000003728 
 0.00000000000000000 2 1.00000000000000000 2
1 11.19999999999999929 374.19999999999998863 0.40000000000008307 0.00000000000000000 -1.00000000000000000 -0.00000000000000022 
2 11.10000000000000142 168.19999999999998863 0.40000000000003733 0.00000000000000000 -1.00000000000000000 -0.00000000000000022 0.00000000000000000 0.00000000000000022 -1.00000000000000000 1.00000000000000000 0.00000000000000000 0.00000000000000000 0.10000000000000001
1 -11.19999999999999929 374.19999999999993179 78.00000000000008527 0.00000000000000000 -1.00000000000000000 -0.00000000000000022 
1 -11.19999999999999929 168.19999999999996021 78.00000000000004263 0.00000000000000000 0.00000000000000022 -1.00000000000000000 
7 0 0  1 2 2  -11.20000000000000107 168.19999999999998863 0.40000000000004299  -11.50000000000000178 168.19999999999998863 0.40000000000004282 
 0.00000000000000000 2 1.00000000000000000 2
1 -11.50000000000000000 374.19999999999993179 78.00000000000008527 0.00000000000000000 -1.00000000000000000 -0.00000000000000022 
1 -11.50000000000000000 168.19999999999996021 78.00000000000004263 0.00000000000000000 0.00000000000000022 -1.00000000000000000 
6 0 1 -11.19999999999999929 168.19999999999996021 78.00000000000004263  -11.50000000000000000 168.19999999999993179 78.00000000000004263  
1 11.19999999999999929 168.19999999999998863 0.00000000000003735 0.00000000000000000 -0.00000000000000022 1.00000000000000000 
6 0 1 11.19999999999999929 374.19999999999993179 78.00000000000008527  11.50000000000000000 374.19999999999993179 78.00000000000008527  
1 11.50000000000000000 374.19999999999998863 0.00000000000008310 0.00000000000000000 -0.00000000000000022 1.00000000000000000 
1 11.50000000000000000 374.19999999999993179 78.00000000000008527 0.00000000000000000 -1.00000000000000000 -0.00000000000000022 
1 11.50000000000000000 168.19999999999998863 0.00000000000003736 0.00000000000000000 -0.00000000000000022 1.00000000000000000 
6 0 1 11.19999999999999929 168.19999999999998863 0.40000000000003733  11.50000000000000000 168.19999999999998863 0.40000000000003733  
1 11.19999999999999929 374.19999999999993179 78.00000000000008527 0.00000000000000000 -1.00000000000000000 -0.00000000000000022 
1 11.19999999999999929 168.19999999999998863 0.00000000000003735 0.00000000000000000 -0.00000000000000022 1.00000000000000000 
6 0 1 11.19999999999999929 168.19999999999996021 78.00000000000004263  11.50000000000000000 168.19999999999993179 78.00000000000004263  
Polygon3D 0
PolygonOnTriangulations 0
Surfaces 31
1 -11.09999999999999964 374.19999999999998863 0.00000000000008310 -1.00000000000000000 0.00000000000000000 0.00000000000000053 0.00000000000000000 1.00000000000000000 0.00000000000000000 -0.00000000000000053 0.00000000000000000 -1.00000000000000000 
1 -11.09999999999999964 374.19999999999998863 0.40000000000008312 1.00000000000000000 0.00000000000000000 0.00000000000000000 0.00000000000000000 0.00000000000000000 -1.00000000000000000 -0.00000000000000000 1.00000000000000000 0.00000000000000000 
1 0.00000000000000100 374.20000000000010232 0.15000000000008312 -0.00000000000000000 1.00000000000000000 -0.00000000000000000 0.00000000000000000 0.00000000000000000 1.00000000000000000 1.00000000000000000 0.00000000000000000 -0.00000000000000000 
1 -11.09999999999999964 381.10538238691623292 0.00000000000008310 0.00000000000000000 1.00000000000000000 0.00000000000000000 1.00000000000000000 0.00000000000000000 0.00000000000000000 0.00000000000000000 0.00000000000000000 -1.00000000000000000 
1 0.00000000000000073 377.65269119345816762 0.00000000000008310 -0.00000000000000000 -0.00000000000000000 -1.00000000000000000 -1.00000000000000000 0.00000000000000000 0.00000000000000000 0.00000000000000000 1.00000000000000000 -0.00000000000000000 
2 11.10000000000000320 374.19999999999998863 0.40000000000008312 -1.00000000000000000 -0.00000000000000000 -0.00000000000000000 0.00000000000000000 0.00000000000000000 -1.00000000000000000 -0.00000000000000000 1.00000000000000000 -0.00000000000000000 0.40000000000000002
2 -11.09999999999999964 374.19999999999998863 0.40000000000008312 1.00000000000000000 0.00000000000000000 0.00000000000000000 0.00000000000000000 0.00000000000000000 -1.00000000000000000 -0.00000000000000000 1.00000000000000000 0.00000000000000000 0.10000000000000003
1 -11.50000000000000000 374.19999999999998863 0.00000000000008310 -0.00000000000000000 1.00000000000000000 0.00000000000000000 1.00000000000000000 0.00000000000000000 0.00000000000000000 0.00000000000000000 0.00000000000000000 -1.00000000000000000 
9 0 0 0 0 7 1 8 2 2 2 -11.20000000000000107 374.19999999999998863 0.40000000000008873  -11.49999999999999822 374.19999999999998863 0.40000000000008878  
-11.20000000000004547 374.20000000000067075 0.37756005247444790  -11.50000000000002487 374.20000000000067075 0.31024020989752299  
-11.19412511134470734 374.19999999999851070 0.35512021350174194  -11.47650044537927805 374.19999999999851070 0.22048085400670811  
-11.18237627222041830 374.20000000000237605 0.33452530591779500  -11.42950508888100636 374.20000000000237605 0.13810122367090261  
-11.16547469408213011 374.19999999999765805 0.31762372777986581  -11.36189877632903489 374.19999999999765805 0.07049491111920768  
-11.14487978649841970 374.20000000000112550 0.30587488865525314  -11.27951914599345962 374.20000000000112550 0.02349955462074194  
-11.12243994752562593 374.20000000000010232 0.30000000000008847  -11.18975979010254918 374.20000000000010232 0.00000000000008769  
-11.09999999999999964 374.19999999999998863 0.30000000000008875  -11.09999999999999432 374.19999999999998863 0.00000000000008868  

4.71238898038467902 8
6.28318530717958623 8

0.00000000000000000 2
1.00000000000000000 2

1 11.10000000000000142 381.10538238691623292 0.00000000000008310 1.00000000000000000 0.00000000000000000 -0.00000000000000053 0.00000000000000000 -1.00000000000000000 0.00000000000000000 -0.00000000000000053 -0.00000000000000000 -1.00000000000000000 
1 11.10000000000000320 374.19999999999998863 0.40000000000008312 1.00000000000000000 0.00000000000000000 0.00000000000000000 0.00000000000000000 -0.00000000000000000 1.00000000000000000 -0.00000000000000000 1.00000000000000000 0.00000000000000000 
1 -11.09999999999999964 374.19999999999998863 0.00000000000008310 0.00000000000000000 -0.00000000000000022 1.00000000000000000 1.00000000000000000 0.00000000000000000 0.00000000000000000 -0.00000000000000000 1.00000000000000000 0.00000000000000022 
1 -11.09999999999999964 374.19999999999998863 0.30000000000008309 0.00000000000000000 -0.00000000000000022 1.00000000000000000 1.00000000000000000 0.00000000000000000 0.00000000000000000 -0.00000000000000000 1.00000000000000000 0.00000000000000022 
2 -11.09999999999999964 374.19999999999998863 0.40000000000008873 -0.00000000000000000 1.00000000000000000 0.00000000000000022 0.00000000000001088 0.00000000000000022 -1.00000000000000000 1.00000000000000000 -0.00000000000000000 0.00000000000001088 0.10000000000000001
2 -11.09999999999999964 374.19999999999998863 0.40000000000008873 -0.00000000000000000 1.00000000000000000 0.00000000000000022 0.00000000000001088 0.00000000000000022 -1.00000000000000000 1.00000000000000000 -0.00000000000000000 0.00000000000001088 0.40000000000000002
1 -11.50000000000000000 374.19999999999993179 78.00000000000008527 0.00000000000000000 1.00000000000000000 0.00000000000000022 0.00000000000000000 0.00000000000000022 -1.00000000000000000 -1.00000000000000000 0.00000000000000000 0.00000000000000000 
9 0 0 0 0 7 1 8 2 2 2 11.09999999999999964 374.19999999999998863 0.30000000000008314  11.10000000000000142 374.19999999999998863 0.00000000000008304  
11.12243994752568099 374.20000000000010232 0.30000000000008298  11.18975979010259536 374.20000000000010232 0.00000000000008344  
11.14487978649815503 374.19999999999737383 0.30587488865524515  11.27951914599323047 374.19999999999737383 0.02349955462073658  
11.16547469408267901 374.20000000000510454 0.31762372777986697  11.36189877632947542 374.20000000000510454 0.07049491111920579  
11.18237627221983743 374.19999999999532747 0.33452530591778357  11.42950508888059069 374.19999999999532747 0.13810122367089647  
11.19412511134505195 374.20000000000260343 0.35512021350173961  11.47650044537952319 374.20000000000260343 0.22048085400670528  
11.19999999999994422 374.19999999999924967 0.37756005247444147  11.49999999999994849 374.19999999999924967 0.31024020989751733  
11.19999999999999929 374.19999999999998863 0.40000000000008307  11.50000000000000178 374.19999999999998863 0.40000000000008307  

0.00000000000000000 8
1.57079632679489656 8

0.00000000000000000 2
1.00000000000000000 2

2 11.10000000000000142 374.19999999999998863 0.40000000000008307 -0.00000000000000000 1.00000000000000000 0.00000000000000022 0.00000000000000000 0.00000000000000022 -1.00000000000000000 1.00000000000000000 -0.00000000000000000 0.00000000000000000 0.40000000000000002
1 -11.50000000000000000 168.19999999999998863 0.00000000000003736 0.00000000000000000 -1.00000000000000000 0.00000000000000000 -1.00000000000000000 0.00000000000000000 0.00000000000000000 -0.00000000000000000 -0.00000000000000000 -1.00000000000000000 
2 11.10000000000000142 374.19999999999998863 0.40000000000008307 -0.00000000000000000 1.00000000000000000 0.00000000000000022 0.00000000000000000 0.00000000000000022 -1.00000000000000000 1.00000000000000000 -0.00000000000000000 0.00000000000000000 0.10000000000000001
1 -11.19999999999999929 374.19999999999993179 78.00000000000008527 1.00000000000000000 0.00000000000000000 0.00000000000000000 0.00000000000000000 0.00000000000000022 -1.00000000000000000 -0.00000000000000000 1.00000000000000000 0.00000000000000022 
9 0 0 0 0 7 1 8 2 2 2 -11.09999999999999964 168.19999999999998863 0.30000000000004307  -11.09999999999999787 168.19999999999998863 0.00000000000004299  
-11.12243994752563658 168.20000000000001705 0.30000000000004295  -11.18975979010258115 168.20000000000001705 0.00000000000004254  
-11.14487978649830247 168.19999999999913598 0.30587488865520357  -11.27951914599325178 168.19999999999913598 0.02349955462069407  
-11.16547469408238769 168.20000000000203499 0.31762372777982856  -11.36189877632940792 168.20000000000203499 0.07049491111916545  
-11.18237627222015362 168.19999999999797069 0.33452530591774049  -11.42950508888067418 168.19999999999797069 0.13810122367085281  
-11.19412511134486010 168.20000000000123919 0.35512021350170153  -11.47650044537945213 168.20000000000123919 0.22048085400666506  
-11.20000000000000107 168.19999999999953388 0.37756005247440044  -11.49999999999996803 168.19999999999953388 0.31024020989747603  
-11.20000000000000107 168.19999999999998863 0.40000000000004299  -11.50000000000000178 168.19999999999998863 0.40000000000004282  

0.00000000000000000 8
1.57079632679490722 8

0.00000000000000000 2
1.00000000000000000 2

1 -11.50000000000000000 374.19999999999993179 78.00000000000008527 1.00000000000000000 0.00000000000000000 0.00000000000000000 0.00000000000000000 0.00000000000000022 -1.00000000000000000 -0.00000000000000000 1.00000000000000000 0.00000000000000022 
1 -11.50000000000000000 374.19999999999993179 78.00000000000008527 0.00000000000000000 -0.00000000000000022 1.00000000000000000 -0.00000000000000000 1.00000000000000000 0.00000000000000022 -1.00000000000000000 -0.00000000000000000 0.00000000000000000 
1 11.50000000000000000 374.19999999999998863 0.00000000000008310 -0.00000000000000000 1.00000000000000000 0.00000000000000022 0.00000000000000000 -0.00000000000000022 1.00000000000000000 1.00000000000000000 0.00000000000000000 0.00000000000000000 
1 11.50000000000000000 374.19999999999998863 0.40000000000008307 -1.00000000000000000 -0.00000000000000000 0.00000000000000000 0.00000000000000000 -0.00000000000000022 1.00000000000000000 0.00000000000000000 1.00000000000000000 0.00000000000000022 
9 0 0 0 0 7 1 8 2 2 2 11.19999999999999396 168.19999999999984652 0.40000000000003705  11.49999999999999289 168.19999999999984652 0.40000000000003721  
11.20000000000009877 168.20000000000206342 0.37756005247439972  11.50000000000007638 168.20000000000206342 0.31024020989747347  
11.19412511134462029 168.19999999999470219 0.35512021350168338  11.47650044537920877 168.19999999999470219 0.22048085400665482  
11.18237627222051955 168.20000000000771934 0.33452530591775431  11.42950508888102057 168.20000000000771934 0.13810122367085778  
11.16547469408205373 168.19999999999308216 0.31762372777980663  11.36189877632913259 168.19999999999308216 0.07049491111915439  
11.14487978649846589 168.20000000000388241 0.30587488865520640  11.27951914599337080 168.20000000000388241 0.02349955462069358  
11.12243994752560994 168.19999999999882334 0.30000000000003613  11.18975979010258648 168.19999999999882334 0.00000000000003713  
11.10000000000000142 168.19999999999998863 0.30000000000003735  11.09999999999999964 168.19999999999998863 0.00000000000003728  

4.71238898038468967 8
6.28318530717958623 8

0.00000000000000000 2
1.00000000000000000 2

1 11.19999999999999929 374.19999999999998863 0.40000000000008307 -1.00000000000000000 -0.00000000000000000 0.00000000000000000 0.00000000000000000 -0.00000000000000022 1.00000000000000000 0.00000000000000000 1.00000000000000000 0.00000000000000022 
1 -11.50000000000000000 168.19999999999996021 78.00000000000004263 -0.00000000000000000 -1.00000000000000000 -0.00000000000000022 -0.00000000000000000 -0.00000000000000022 1.00000000000000000 -1.00000000000000000 0.00000000000000000 0.00000000000000000 
1 11.50000000000000000 374.19999999999993179 78.00000000000008527 0.00000000000000000 -0.00000000000000022 1.00000000000000000 0.00000000000000000 -1.00000000000000000 -0.00000000000000022 1.00000000000000000 0.00000000000000000 0.00000000000000000 
1 11.50000000000000000 168.19999999999998863 0.00000000000003736 0.00000000000000000 -1.00000000000000000 -0.00000000000000022 0.00000000000000000 0.00000000000000022 -1.00000000000000000 1.00000000000000000 0.00000000000000000 0.00000000000000000 
Triangulations 0

TShapes 152
Ve
0.000000100000013
-11.100000000000000 374.482842712474621 0.117157287525458
0 0

0101101
*
Ve
0.000000100000114
-11.100000000000000 374.270710678118746 0.329289321881447
0 0

0101101
*
Ed
 0.000000100000013 1 1 0
1  1 0 0.000000000000000 0.300000000000000
2  1 2 0 0.000000000000000 0.300000000000000
2  2 2 4 0.000000000000000 0.300000000000000
2  3 3 0 0.000000000000000 0.300000000000000
2  4 1 5 0.000000000000000 0.300000000000000
0

0101000
+152 4 -151 4 *
Ve
0.000000100000000
-11.100000000000000 381.105382386916233 0.000000000000083
0 0

0101101
*
Ed
 0.000000100000000 1 1 0
1  2 0 0.000000000000000 0.300000000000000
2  5 1 0 0.000000000000000 0.300000000000000
2  6 4 0 0.000000000000000 0.300000000000000
0

0101000
+149 0 -149 6 *
Ed
 0.000000100000000 1 1 0
1  3 0 0.000000000000000 6.905382386916244
2  7 1 0 0.000000000000000 6.905382386916244
2  8 1 7 0.000000000000000 6.905382386916244
2  9 5 0 0.000000000000000 6.905382386916244
0

0101000
+152 8 -149 0 *
Ed
 0.000000100000000 1 1 0
1  3 0 0.000000000000000 6.905382386916244
2  7 1 0 0.000000000000000 6.905382386916244
2  8 1 7 0.000000000000000 6.905382386916244
2  9 5 0 0.000000000000000 6.905382386916244
0

0101000
+151 10 -149 0 *
Wi

0101100
+150 3 -148 2 -147 2 +146 9 *
Fa
0  0.000000100000000 1 2

0101000
+145 0 *
Ve
0.001000000000000
-11.100000000000000 374.199999999999989 0.000000000000083
0 0

0101101
*
Ed
 0.000000100000000 1 1 0
1  4 0 0.000000000000000 0.785398163397448
2  10 6 0 0.000000000000000 0.785398163397448
2  11 2 0 0.000000000000000 0.785398163397448
0

0101000
+143 0 -152 0 *
Ve
0.001000000000000
-11.100000000000000 374.199999999999989 0.300000000000083
0 0

0101101
*
Ed
 0.000000100000000 1 1 0
1  5 0 0.000000000000000 0.785398163397448
2  12 2 0 0.000000000000000 0.785398163397448
2  13 7 0 0.000000000000000 0.785398163397448
0

0101000
+141 0 -151 0 *
Ed
 0.000000100000004 1 1 0
1  6 0 0.000000000000000 1.000000000000000
2  14 8 0 0.000000000000000 1.000000000000000
2  15 9 0 0.000000000000000 1.000000000000000
2  16 2 12 0.000000000000000 1.000000000000000
0

0101000
+141 12 -143 12 *
Wi

0101100
+142 0 -140 0 +139 11 +150 3 *
Fa
0  0.000000100000000 2 0

0101000
+138 0 *
Ve
0.000000100000000
11.100000000000001 381.105382386916233 0.000000000000083
0 0

0101101
*
Ed
 0.000000100000000 1 1 0
1  7 0 0.000000000000000 0.300000000000000
2  17 10 0 0.000000000000000 0.300000000000000
2  18 4 0 0.000000000000000 0.300000000000000
0

0101000
+136 0 -136 6 *
Ed
 0.000000100000000 1 1 0
1  8 0 0.000000000000000 22.200000000000003
2  19 5 0 0.000000000000000 22.200000000000003
2  20 4 0 0.000000000000000 22.200000000000003
2  21 4 7 0.000000000000000 22.200000000000003
0

0101000
+149 0 -136 0 *
Wi

0101100
+148 0 -135 0 -134 0 +134 6 *
Fa
0  0.000000100000000 4 0

0101000
+133 0 *
Ve
0.000000100000013
11.100000000000001 374.482842712474621 0.117157287525458
0 0

0101101
*
Ed
 0.000000100000000 1 1 0
1  9 0 0.000000000000000 22.200000000000003
2  22 6 0 0.000000000000000 22.200000000000003
2  23 6 4 0.000000000000000 22.200000000000003
2  24 3 0 0.000000000000000 22.200000000000003
2  25 5 5 0.000000000000000 22.200000000000003
0

0101000
+131 4 -152 4 *
Ed
 0.000000100000000 1 1 0
1  10 0 0.000000000000000 6.905382386916244
2  26 10 0 0.000000000000000 6.905382386916244
2  27 10 7 0.000000000000000 6.905382386916244
2  28 5 0 0.000000000000000 6.905382386916244
0

0101000
+136 0 -131 8 *
Wi

0101100
+130 3 +147 2 +134 2 +129 2 *
Fa
0  0.000000100000000 5 2

0101000
+128 0 *
Ve
0.000000100000114
11.100000000000001 374.270710678118746 0.329289321881447
0 0

0101101
*
Ed
 0.000000100000057 1 1 0
1  11 0 0.000000000000000 22.200000000000003
2  29 7 0 0.000000000000000 22.200000000000003
2  30 7 4 0.000000000000000 22.200000000000003
2  31 3 0 0.000000000000000 22.200000000000003
2  32 5 13 0.000000000000000 22.200000000000003
0

0101000
+151 4 -126 4 *
Ed
 0.000000100000000 1 1 0
1  10 0 0.000000000000000 6.905382386916244
2  26 10 0 0.000000000000000 6.905382386916244
2  27 10 7 0.000000000000000 6.905382386916244
2  28 5 0 0.000000000000000 6.905382386916244
0

0101000
+136 0 -126 10 *
Wi

0101100
-125 3 +146 9 +134 9 +124 9 *
Fa
0  0.000000100000000 5 9

0101000
+123 0 *
Ve
0.001000000000001
11.100000000000001 374.199999999999989 0.000000000000083
0 0

0101101
*
Ed
 0.000000100000000 1 1 0
1  12 0 0.000000000000000 0.785398163397448
2  33 6 0 0.000000000000000 0.785398163397448
2  34 11 0 0.000000000000000 0.785398163397448
0

0101000
+121 0 -131 0 *
Ed
 0.001000000000000 1 1 0
1  13 0 0.400000000000000 22.600000000000001
2  35 8 0 0.400000000000000 22.600000000000001
2  36 12 0 0.400000000000000 22.600000000000001
2  37 6 12 0.400000000000000 22.600000000000001
0

0101000
+143 12 -121 12 *
Wi

0101100
+120 0 -142 0 +119 11 +130 3 *
Fa
0  0.000000100000000 6 0

0101000
+118 0 *
Ve
0.001000000000000
11.100000000000001 374.199999999999989 0.300000000000083
0 0

0101101
*
Ed
 0.000000100000000 1 1 0
1  14 0 0.000000000000000 0.785398163397448
2  38 7 0 0.000000000000000 0.785398163397448
2  39 11 0 0.000000000000000 0.785398163397448
0

0101000
+116 0 -126 0 *
Ed
 0.001000000000000 1 1 0
1  15 0 0.400000000000000 22.600000000000001
2  40 13 16 0.400000000000000 22.600000000000001
2  41 8 16 0.400000000000000 22.600000000000001
2  42 7 17 0.400000000000000 22.600000000000001
0

0101000
+141 17 -116 17 *
Wi

0101100
+140 0 -115 0 -114 15 +125 3 *
Fa
0  0.000000100000000 7 0

0101000
+113 0 *
Ve
0.001000000000000
-11.199999999999999 374.199999999999989 0.400000000000094
0 0

0101101
*
Ed
 0.000000100000000 1 1 0
1  16 0 4.712388980384679 6.283185307179586
2  43 14 16 4.712388980384679 6.283185307179586
2  44 9 16 4.712388980384679 6.283185307179586
0

0101000
+111 17 -141 17 *
Ve
0.001000000000001
-11.500000000000000 374.199999999999989 0.400000000000090
0 0

0101101
*
Ed
 0.000000100000000 1 1 0
1  17 0 4.712388980384679 6.283185307179586
2  45 9 0 4.712388980384679 6.283185307179586
2  46 15 0 4.712388980384679 6.283185307179586
0

0101000
+109 12 -143 12 *
Ed
 0.000000100000002 1 1 0
1  18 0 0.000000000000000 1.000000000000000
2  47 9 0 0.000000000000000 1.000000000000000
2  48 16 0 0.000000000000000 1.000000000000000
0

0101000
+111 12 -109 12 *
Wi

0101100
+110 15 +139 11 -108 11 -107 11 *
Fa
0  0.000000100000000 9 11

0101000
+106 0 *
Ed
 0.000000100000013 1 1 0
1  19 0 0.000000000000000 0.300000000000000
2  49 11 0 0.000000000000000 0.300000000000000
2  50 11 4 0.000000000000000 0.300000000000000
2  51 3 0 0.000000000000000 0.300000000000000
2  52 10 5 0.000000000000000 0.300000000000000
0

0101000
+126 4 -131 4 *
Wi

0101100
+135 2 +104 3 -129 2 +124 9 *
Fa
0  0.000000100000000 10 2

0101000
+103 0 *
Ed
 0.000000100000002 1 1 0
1  20 0 0.000000000000000 1.000000000000000
2  53 17 0 0.000000000000000 1.000000000000000
2  54 8 0 0.000000000000000 1.000000000000000
2  55 11 12 0.000000000000000 1.000000000000000
0

0101000
+116 12 -121 12 *
Wi

0101100
+115 0 -120 0 -101 11 +104 3 *
Fa
0  0.000000100000000 11 0

0101000
+100 0 *
Ve
0.001000000000000
-11.100000000000000 168.199999999999989 0.000000000000037
0 0

0101101
*
Ed
 0.001000000000000 1 1 0
1  21 0 0.000000000000000 206.000000000000000
2  56 12 0 0.000000000000000 206.000000000000000
2  57 15 0 0.000000000000000 206.000000000000000
0

0101000
+143 12 -98 12 *
Ve
0.001000000000001
11.100000000000001 168.199999999999989 0.000000000000037
0 0

0101101
*
Ed
 0.001000000000000 1 1 0
1  22 0 0.000000000000000 206.000000000000000
2  58 18 0 0.000000000000000 206.000000000000000
2  59 12 0 0.000000000000000 206.000000000000000
0

0101000
+121 12 -96 12 *
Ed
 0.001000000000000 1 1 0
1  23 0 0.400000000000000 22.600000000000001
2  60 19 0 0.400000000000000 22.600000000000001
2  61 12 0 0.400000000000000 22.600000000000001
0

0101000
+98 12 -96 12 *
Wi

0101100
+97 11 -95 11 -119 11 +94 11 *
Fa
0  0.001000000000000 12 11

0101000
+93 0 *
Ve
0.001000000000000
-11.100000000000000 168.199999999999989 0.300000000000037
0 0

0101101
*
Ed
 0.001000000000000 1 1 0
1  24 0 0.000000000000000 206.000000000000000
2  62 13 0 0.000000000000000 206.000000000000000
2  63 14 0 0.000000000000000 206.000000000000000
4 G1 13 0 14 0
0

0101000
+141 12 -91 12 *
Ve
0.001000000000000
11.100000000000001 168.199999999999989 0.300000000000037
0 0

0101101
*
Ed
 0.001000000000000 1 1 0
1  25 0 0.000000000000000 206.000000000000000
2  64 20 0 0.000000000000000 206.000000000000000
2  65 13 0 0.000000000000000 206.000000000000000
4 G1 20 0 13 0
0

0101000
+116 12 -89 12 *
Ed
 0.001000000000000 1 1 0
1  26 0 0.400000000000000 22.600000000000001
2  66 13 20 0.400000000000000 22.600000000000001
2  67 19 20 0.400000000000000 22.600000000000001
0

0101000
+91 21 -89 21 *
Wi

0101100
+90 11 -88 11 -114 15 +87 19 *
Fa
0  0.001000000000000 13 11

0101000
+86 0 *
Ve
0.001000000000000
-11.199999999999999 168.199999999999989 0.400000000000048
0 0

0101101
*
Ed
 0.001000000000000 1 1 0
1  27 0 0.000000000000000 206.000000000000000
2  68 14 0 0.000000000000000 206.000000000000000
2  69 21 0 0.000000000000000 206.000000000000000
4 G1 14 0 21 0
0

0101000
+111 12 -84 12 *
Ed
 0.000000100000000 1 1 0
1  28 0 4.712388980384679 6.283185307179586
2  70 14 20 4.712388980384679 6.283185307179586
2  71 22 20 4.712388980384679 6.283185307179586
0

0101000
+84 21 -91 21 *
Wi

0101100
+83 11 -90 11 -110 15 +82 19 *
Fa
0  0.000000100000000 14 11

0101000
+81 0 *
Ve
0.001000000000003
-11.500000000000000 168.199999999999989 0.400000000000046
0 0

0101101
*
Ed
 0.001000000000000 1 1 0
1  29 0 0.000000000000000 206.000000000000000
2  72 15 0 0.000000000000000 206.000000000000000
2  73 23 0 0.000000000000000 206.000000000000000
0

0101000
+109 12 -79 12 *
Ed
 0.000000100000000 1 1 0
1  30 0 4.712388980384679 6.283185307179586
2  74 22 0 4.712388980384679 6.283185307179586
2  75 15 0 4.712388980384679 6.283185307179586
0

0101000
+79 12 -98 12 *
Wi

0101100
+78 11 -97 11 -108 11 +77 11 *
Fa
0  0.000000100000000 15 11

0101000
+76 0 *
Ve
0.001000000000000
-11.199999999999999 374.199999999999932 78.000000000000085
0 0

0101101
*
Ed
 0.001000000000000 1 1 0
1  31 0 0.000000000000000 77.599999999999994
2  76 21 16 0.000000000000000 77.599999999999994
2  77 16 16 0.000000000000000 77.599999999999994
0

0101000
+74 17 -111 17 *
Ve
0.001000000000000
-11.500000000000000 374.199999999999932 78.000000000000085
0 0

0101101
*
Ed
 0.001000000000000 1 1 0
1  32 0 0.000000000000000 77.599999999999994
2  78 16 0 0.000000000000000 77.599999999999994
2  79 23 0 0.000000000000000 77.599999999999994
0

0101000
+72 12 -109 12 *
Ed
 0.000000100000000 1 1 0
1  33 0 0.000000000000000 1.000000000000000
2  80 24 0 0.000000000000000 1.000000000000000
2  81 16 0 0.000000000000000 1.000000000000000
0

0101000
+74 12 -72 12 *
Wi

0101100
+73 14 +107 0 -71 0 -70 0 *
Fa
0  0.000000100000000 16 0

0101000
+69 0 *
Ve
0.001000000000000
11.199999999999999 374.199999999999989 0.400000000000083
0 0

0101101
*
Ed
 0.000000100000000 1 1 0
1  34 0 0.000000000000000 1.570796326794897
2  82 20 16 0.000000000000000 1.570796326794897
2  83 17 16 0.000000000000000 1.570796326794897
0

0101000
+116 17 -67 17 *
Ve
0.001000000000000
11.500000000000000 374.199999999999989 0.400000000000083
0 0

0101101
*
Ed
 0.000000100000002 1 1 0
1  35 0 0.000000000000000 1.000000000000000
2  84 25 0 0.000000000000000 1.000000000000000
2  85 17 0 0.000000000000000 1.000000000000000
0

0101000
+67 12 -65 12 *
Ed
 0.000000100000000 1 1 0
1  36 0 0.000000000000000 1.570796326794897
2  86 17 0 0.000000000000000 1.570796326794897
2  87 18 0 0.000000000000000 1.570796326794897
0

0101000
+121 12 -65 12 *
Wi

0101100
+66 15 +64 11 -63 11 -101 11 *
Fa
0  0.000000100000000 17 11

0101000
+62 0 *
Ve
0.001000000000000
11.500000000000000 168.199999999999989 0.400000000000037
0 0

0101101
*
Ed
 0.001000000000000 1 1 0
1  37 0 0.000000000000000 206.000000000000000
2  88 26 0 0.000000000000000 206.000000000000000
2  89 18 0 0.000000000000000 206.000000000000000
0

0101000
+65 12 -60 12 *
Ed
 0.000000100000000 1 1 0
1  38 0 0.000000000000000 1.570796326794897
2  90 27 0 0.000000000000000 1.570796326794897
2  91 18 0 0.000000000000000 1.570796326794897
0

0101000
+96 12 -60 12 *
Wi

0101100
+95 11 -59 11 -63 11 +58 11 *
Fa
0  0.000000100000000 18 11

0101000
+57 0 *
Ed
 0.000000100000004 1 1 0
1  39 0 0.000000000000000 1.000000000000000
2  92 19 0 0.000000000000000 1.000000000000000
2  93 22 0 0.000000000000000 1.000000000000000
0

0101000
+91 12 -98 12 *
Ed
 0.000000100000004 1 1 0
1  40 0 0.000000000000000 1.000000000000000
2  94 27 0 0.000000000000000 1.000000000000000
2  95 19 0 0.000000000000000 1.000000000000000
0

0101000
+89 12 -96 12 *
Wi

0101100
-87 22 +55 0 +94 0 -54 0 *
Fa
0  0.000000100000000 19 0

0101000
+53 0 *
Ve
0.001000000000000
11.199999999999999 168.199999999999989 0.400000000000037
0 0

0101101
*
Ed
 0.001000000000000 1 1 0
1  41 0 0.000000000000000 206.000000000000000
2  96 28 0 0.000000000000000 206.000000000000000
2  97 20 0 0.000000000000000 206.000000000000000
4 G1 28 0 20 0
0

0101000
+67 12 -51 12 *
Ed
 0.000000100000000 1 1 0
1  42 0 0.000000000000000 1.570796326794897
2  98 20 20 0.000000000000000 1.570796326794897
2  99 27 20 0.000000000000000 1.570796326794897
0

0101000
+89 21 -51 21 *
Wi

0101100
+88 11 -50 11 -66 15 +49 19 *
Fa
0  0.000000100000000 20 11

0101000
+48 0 *
Ve
0.001000000000000
-11.199999999999999 168.199999999999960 78.000000000000043
0 0

0101101
*
Ed
 0.001000000000000 1 1 0
1  43 0 0.000000000000000 206.000000000000000
2  100 21 0 0.000000000000000 206.000000000000000
2  101 24 0 0.000000000000000 206.000000000000000
0

0101000
+74 12 -46 12 *
Ed
 0.001000000000000 1 1 0
1  44 0 0.000000000000000 77.599999999999994
2  102 21 20 0.000000000000000 77.599999999999994
2  103 29 20 0.000000000000000 77.599999999999994
0

0101000
+46 21 -84 21 *
Wi

0101100
+45 0 -83 0 -73 14 +44 22 *
Fa
0  0.001000000000000 21 0

0101000
+43 0 *
Ed
 0.000000100000006 1 1 0
1  45 0 0.000000000000000 1.000000000000000
2  104 22 0 0.000000000000000 1.000000000000000
2  105 29 0 0.000000000000000 1.000000000000000
0

0101000
+84 12 -79 12 *
Wi

0101100
-82 22 +41 0 +77 0 -55 0 *
Fa
0  0.000000100000000 22 0

0101000
+40 0 *
Ve
0.001000000000000
-11.500000000000000 168.199999999999932 78.000000000000043
0 0

0101101
*
Ed
 0.001000000000000 1 1 0
1  46 0 0.000000000000000 206.000000000000000
2  106 24 0 0.000000000000000 206.000000000000000
2  107 23 0 0.000000000000000 206.000000000000000
0

0101000
+72 12 -38 12 *
Ed
 0.001000000000000 1 1 0
1  47 0 0.000000000000000 77.599999999999994
2  108 29 0 0.000000000000000 77.599999999999994
2  109 23 0 0.000000000000000 77.599999999999994
0

0101000
+38 12 -79 12 *
Wi

0101100
+37 0 -78 0 -71 0 +36 0 *
Fa
0  0.001000000000000 23 0

0101000
+35 0 *
Ed
 0.000000100000000 1 1 0
1  48 0 0.000000000000000 1.000000000000000
2  110 24 0 0.000000000000000 1.000000000000000
2  111 29 0 0.000000000000000 1.000000000000000
0

0101000
+46 12 -38 12 *
Wi

0101000
-45 0 +70 0 +37 0 -33 0 *
Fa
0  0.000000100000000 24 0

0101000
+32 0 *
Ve
0.001000000000000
11.199999999999999 374.199999999999932 78.000000000000085
0 0

0101101
*
Ed
 0.001000000000000 1 1 0
1  49 0 0.400000000000000 78.000000000000000
2  112 28 16 0.400000000000000 78.000000000000000
2  113 25 16 0.400000000000000 78.000000000000000
0

0101000
+67 17 -30 17 *
Ve
0.001000000000000
11.500000000000000 374.199999999999932 78.000000000000085
0 0

0101101
*
Ed
 0.000000100000000 1 1 0
1  50 0 0.000000000000000 1.000000000000000
2  114 30 0 0.000000000000000 1.000000000000000
2  115 25 0 0.000000000000000 1.000000000000000
0

0101000
+30 12 -28 12 *
Ed
 0.001000000000000 1 1 0
1  51 0 0.400000000000000 78.000000000000000
2  116 25 0 0.400000000000000 78.000000000000000
2  117 26 0 0.400000000000000 78.000000000000000
0

0101000
+65 12 -28 12 *
Wi

0101100
+29 14 +27 0 -26 0 -64 0 *
Fa
0  0.000000100000000 25 0

0101000
+25 0 *
Ve
0.001000000000000
11.500000000000000 168.199999999999932 78.000000000000043
0 0

0101101
*
Ed
 0.001000000000000 1 1 0
1  52 0 0.000000000000000 206.000000000000000
2  118 30 0 0.000000000000000 206.000000000000000
2  119 26 0 0.000000000000000 206.000000000000000
0

0101000
+28 12 -23 12 *
Ed
 0.001000000000000 1 1 0
1  53 0 0.400000000000000 78.000000000000000
2  120 31 0 0.400000000000000 78.000000000000000
2  121 26 0 0.400000000000000 78.000000000000000
0

0101000
+60 12 -23 12 *
Wi

0101100
+59 0 -22 0 -26 0 +21 0 *
Fa
0  0.001000000000000 26 0

0101000
+20 0 *
Ed
 0.000000100000002 1 1 0
1  54 0 0.000000000000000 1.000000000000000
2  122 31 0 0.000000000000000 1.000000000000000
2  123 27 0 0.000000000000000 1.000000000000000
0

0101000
+51 12 -60 12 *
Wi

0101100
-49 22 +54 0 +58 0 -18 0 *
Fa
0  0.000000100000000 27 0

0101000
+17 0 *
Ve
0.001000000000000
11.199999999999999 168.199999999999960 78.000000000000043
0 0

0101101
*
Ed
 0.001000000000000 1 1 0
1  55 0 0.000000000000000 206.000000000000000
2  124 28 0 0.000000000000000 206.000000000000000
2  125 30 0 0.000000000000000 206.000000000000000
0

0101000
+30 12 -15 12 *
Ed
 0.001000000000000 1 1 0
1  56 0 0.400000000000000 78.000000000000000
2  126 28 20 0.400000000000000 78.000000000000000
2  127 31 20 0.400000000000000 78.000000000000000
0

0101000
+51 21 -15 21 *
Wi

0101100
+50 0 -14 0 -29 14 +13 22 *
Fa
0  0.001000000000000 28 0

0101000
+12 0 *
Wi

0101100
-44 22 +33 0 +36 0 -41 0 *
Fa
0  0.000000100000000 29 0

0101000
+10 0 *
Ed
 0.000000100000000 1 1 0
1  57 0 0.000000000000000 1.000000000000000
2  128 30 0 0.000000000000000 1.000000000000000
2  129 31 0 0.000000000000000 1.000000000000000
0

0101000
+15 12 -23 12 *
Wi

0101000
+14 0 +8 0 -22 0 -27 0 *
Fa
0  0.000000100000000 30 0

0101000
+7 0 *
Wi

0101100
-13 22 +18 0 +21 0 -8 0 *
Fa
0  0.000000100000000 31 0

0101000
+5 0 *
Sh

0101100
+144 0 -137 0 +132 2 +127 0 -122 0 -117 0 -112 0 +105 0 +102 0 -99 0 
-92 0 +85 0 +80 0 -75 0 +68 11 +61 0 -56 0 +52 11 +47 0 +42 11 
+39 11 -34 11 +31 11 +24 11 -19 11 +16 11 +11 11 +9 11 +6 11 +4 11 
*
So

0100000
+3 0 *
Co

1100000
+2 0 *

+1 1 