
CASCADE Topology V1, (c) Matra-Datavision
Locations 34
1
1.000000000000000 0.000000000000000 0.000000000000000 0.000000000000000 
0.000000000000000 1.000000000000000 0.000000000000000 0.000000000000000 
0.000000000000000 0.000000000000000 1.000000000000000 0.000000000000000 
1
1.000000000000000 0.000000000000000 0.000000000000000 0.000000000000000 
0.000000000000000 1.000000000000000 0.000000000000000 0.000000000000000 
0.000000000000000 0.000000000000000 1.000000000000000 0.000000000000000 
1
1.000000000000000 0.000000000000000 0.000000000000000 0.000000000000000 
0.000000000000000 1.000000000000000 0.000000000000000 0.000000000000000 
0.000000000000000 0.000000000000000 1.000000000000000 0.000000000000000 
1
1.000000000000000 0.000000000000000 0.000000000000000 0.000000000000000 
0.000000000000000 1.000000000000000 0.000000000000000 0.000000000000000 
0.000000000000000 0.000000000000000 1.000000000000000 0.000000000000000 
1
1.000000000000000 0.000000000000000 0.000000000000000 0.000000000000000 
0.000000000000000 1.000000000000000 0.000000000000000 0.000000000000000 
0.000000000000000 0.000000000000000 1.000000000000000 80.263566331493138 
2  1 1 2 1 3 1 4 -1 5 1 0
1
1.000000000000000 0.000000000000000 0.000000000000000 -0.000000000000000 
0.000000000000000 1.000000000000000 0.000000000000000 -0.000000000000000 
0.000000000000000 0.000000000000000 1.000000000000000 -160.527132662986276 
2  1 1 2 1 3 1 4 -1 5 1 7 1 0
1
1.000000000000000 0.000000000000000 0.000000000000000 0.000000000000000 
0.000000000000000 1.000000000000000 0.000000000000000 0.000000000000000 
0.000000000000000 0.000000000000000 1.000000000000000 997.765730749883232 
1
1.000000000000000 0.000000000000000 0.000000000000000 0.000000000000000 
0.000000000000000 1.000000000000000 0.000000000000000 0.000000000000000 
0.000000000000000 0.000000000000000 1.000000000000000 0.000000000000000 
1
-0.500000000000000 -0.866025403784439 0.000000000000000 248.696698580524355 
0.866025403784439 -0.500000000000000 0.000000000000000 143.585105872036905 
0.000000000000000 0.000000000000000 1.000000000000000 0.000000000000000 
1
1.000000000000000 0.000000000000000 0.000000000000000 0.000000000000000 
0.000000000000000 1.000000000000000 0.000000000000000 0.000000000000000 
0.000000000000000 0.000000000000000 1.000000000000000 0.000000000000000 
2  9 -1 10 1 11 -1 12 -1 0
1
1.000000000000000 0.000000000000000 0.000000000000000 -0.000000000000000 
0.000000000000000 1.000000000000000 0.000000000000000 -0.000000000000000 
0.000000000000000 0.000000000000000 1.000000000000000 -1995.531461499766465 
2  14 -1 9 -1 10 1 11 -1 12 -1 0
1
1.000000000000000 0.000000000000000 0.000000000000000 0.000000000000000 
0.000000000000000 1.000000000000000 0.000000000000000 0.000000000000000 
0.000000000000000 0.000000000000000 1.000000000000000 80.263566331493138 
1
1.000000000000000 0.000000000000000 0.000000000000000 0.000000000000000 
0.000000000000000 1.000000000000000 0.000000000000000 0.000000000000000 
0.000000000000000 0.000000000000000 1.000000000000000 0.000000000000000 
1
1.000000000000000 0.000000000000000 0.000000000000000 0.000000000000000 
0.000000000000000 1.000000000000000 0.000000000000000 0.000000000000000 
0.000000000000000 0.000000000000000 1.000000000000000 0.000000000000000 
1
1.000000000000000 0.000000000000000 0.000000000000000 0.000000000000000 
0.000000000000000 1.000000000000000 0.000000000000000 0.000000000000000 
0.000000000000000 0.000000000000000 1.000000000000000 0.000000000000000 
1
1.000000000000000 0.000000000000000 0.000000000000000 0.000000000000000 
0.000000000000000 1.000000000000000 0.000000000000000 0.000000000000000 
0.000000000000000 0.000000000000000 1.000000000000000 0.000000000000000 
2  16 -1 17 1 18 -1 19 -1 20 -1 0
1
1.000000000000000 0.000000000000000 0.000000000000000 -0.000000000000000 
0.000000000000000 1.000000000000000 0.000000000000000 -0.000000000000000 
0.000000000000000 0.000000000000000 1.000000000000000 -160.527132662986276 
2  22 -1 16 -1 17 1 18 -1 19 -1 20 -1 0
1
1.000000000000000 0.000000000000000 0.000000000000000 0.000000000000000 
0.000000000000000 1.000000000000000 0.000000000000000 0.000000000000000 
0.000000000000000 0.000000000000000 1.000000000000000 80.263566331493138 
1
1.000000000000000 0.000000000000000 0.000000000000000 0.000000000000000 
0.000000000000000 1.000000000000000 0.000000000000000 0.000000000000000 
0.000000000000000 0.000000000000000 1.000000000000000 0.000000000000000 
1
1.000000000000000 0.000000000000000 0.000000000000000 0.000000000000000 
0.000000000000000 1.000000000000000 0.000000000000000 0.000000000000000 
0.000000000000000 0.000000000000000 1.000000000000000 0.000000000000000 
1
1.000000000000000 0.000000000000000 0.000000000000000 0.000000000000000 
0.000000000000000 1.000000000000000 0.000000000000000 0.000000000000000 
0.000000000000000 0.000000000000000 1.000000000000000 0.000000000000000 
2  24 -1 25 1 26 -1 27 -1 1 -1 0
1
1.000000000000000 0.000000000000000 0.000000000000000 -0.000000000000000 
0.000000000000000 1.000000000000000 0.000000000000000 -0.000000000000000 
0.000000000000000 0.000000000000000 1.000000000000000 -160.527132662986276 
2  29 -1 24 -1 25 1 26 -1 27 -1 1 -1 0
2  5 -1 4 1 3 -1 2 -1 1 -1 0
2  7 -1 5 -1 4 1 3 -1 2 -1 1 -1 0
2  2 1 3 1 4 -1 5 1 0
2  2 1 3 1 4 -1 5 1 7 1 0
Curve2ds 40
1 0.00000000000000000 0.00000000000000000 0.00000000000000000 -1.00000000000000000 
1 6.28318530717958623 0.00000000000000000 0.00000000000000000 -1.00000000000000000 
1 0.00000000000000000 0.00000000000000000 1.00000000000000000 0.00000000000000000 
1 0.00000000000000000 -1995.53146149976646484 1.00000000000000000 0.00000000000000000 
1 0.00000000000000000 0.00000000000000000 1.00000000000000000 0.00000000000000000 
1 0.00000000000000000 -160.52713266298627559 1.00000000000000000 0.00000000000000000 
1 0.00000000000000000 0.00000000000000000 1.00000000000000000 0.00000000000000000 
1 0.00000000000000000 -160.52713266298627559 1.00000000000000000 0.00000000000000000 
1 0.00000000000000000 0.00000000000000000 1.00000000000000000 0.00000000000000000 
1 0.00000000000000000 -160.52713266298627559 1.00000000000000000 0.00000000000000000 
1 0.00000000000000000 0.00000000000000000 0.00000000000000000 -1.00000000000000000 
1 6.28318530717958623 0.00000000000000000 0.00000000000000000 -1.00000000000000000 
1 0.00000000000000000 0.00000000000000000 1.00000000000000000 0.00000000000000000 
1 0.00000000000000000 -1995.53146149976646484 1.00000000000000000 0.00000000000000000 
1 0.00000000000000000 0.00000000000000000 1.00000000000000000 0.00000000000000000 
1 0.00000000000000000 -160.52713266298627559 1.00000000000000000 0.00000000000000000 
1 0.00000000000000000 0.00000000000000000 1.00000000000000000 0.00000000000000000 
1 0.00000000000000000 -160.52713266298627559 1.00000000000000000 0.00000000000000000 
1 0.00000000000000000 0.00000000000000000 1.00000000000000000 0.00000000000000000 
1 0.00000000000000000 -160.52713266298627559 1.00000000000000000 0.00000000000000000 
1 0.00000000000000000 0.00000000000000000 0.00000000000000000 -1.00000000000000000 
1 6.28318530717958623 0.00000000000000000 0.00000000000000000 -1.00000000000000000 
1 0.00000000000000000 0.00000000000000000 1.00000000000000000 0.00000000000000000 
1 0.00000000000000000 -1995.53146149976646484 1.00000000000000000 0.00000000000000000 
1 0.00000000000000000 0.00000000000000000 1.00000000000000000 0.00000000000000000 
1 0.00000000000000000 -160.52713266298627559 1.00000000000000000 0.00000000000000000 
1 0.00000000000000000 0.00000000000000000 1.00000000000000000 0.00000000000000000 
1 0.00000000000000000 -160.52713266298627559 1.00000000000000000 0.00000000000000000 
1 0.00000000000000000 0.00000000000000000 1.00000000000000000 0.00000000000000000 
1 0.00000000000000000 -160.52713266298627559 1.00000000000000000 0.00000000000000000 
1 0.00000000000000000 0.00000000000000000 0.00000000000000000 -1.00000000000000000 
1 6.28318530717958623 0.00000000000000000 0.00000000000000000 -1.00000000000000000 
1 0.00000000000000000 0.00000000000000000 1.00000000000000000 0.00000000000000000 
1 0.00000000000000000 -1995.53146149976646484 1.00000000000000000 0.00000000000000000 
1 0.00000000000000000 0.00000000000000000 1.00000000000000000 0.00000000000000000 
1 0.00000000000000000 -160.52713266298627559 1.00000000000000000 0.00000000000000000 
1 0.00000000000000000 0.00000000000000000 1.00000000000000000 0.00000000000000000 
1 0.00000000000000000 -160.52713266298627559 1.00000000000000000 0.00000000000000000 
1 0.00000000000000000 0.00000000000000000 1.00000000000000000 0.00000000000000000 
1 0.00000000000000000 -160.52713266298627559 1.00000000000000000 0.00000000000000000 
Curves 8
1 -19.27499999999999503 15.00000000000000000 80.26356633149313780 -0.00000000000000000 -0.00000000000000000 -1.00000000000000000 
2 -22.52499999999999503 15.00000000000000000 0.00000000000000000 0.00000000000000000 0.00000000000000000 1.00000000000000000 1.00000000000000000 0.00000000000000000 -0.00000000000000000 -0.00000000000000000 1.00000000000000000 0.00000000000000000 3.25000000000000000
1 25.77499999999999503 15.00000000000000000 80.26356633149313780 -0.00000000000000000 -0.00000000000000000 -1.00000000000000000 
2 22.52499999999999503 15.00000000000000000 0.00000000000000000 0.00000000000000000 0.00000000000000000 1.00000000000000000 1.00000000000000000 0.00000000000000000 -0.00000000000000000 -0.00000000000000000 1.00000000000000000 0.00000000000000000 3.25000000000000000
1 -19.27499999999999503 -15.00000000000000000 80.26356633149313780 -0.00000000000000000 -0.00000000000000000 -1.00000000000000000 
2 -22.52499999999999503 -15.00000000000000000 0.00000000000000000 0.00000000000000000 0.00000000000000000 1.00000000000000000 1.00000000000000000 0.00000000000000000 -0.00000000000000000 -0.00000000000000000 1.00000000000000000 0.00000000000000000 3.25000000000000000
1 25.77499999999999858 -15.00000000000000000 80.26356633149313780 -0.00000000000000000 -0.00000000000000000 -1.00000000000000000 
2 22.52499999999999858 -15.00000000000000000 0.00000000000000000 0.00000000000000000 0.00000000000000000 1.00000000000000000 1.00000000000000000 0.00000000000000000 -0.00000000000000000 -0.00000000000000000 1.00000000000000000 0.00000000000000000 3.25000000000000000
Polygon3D 0
PolygonOnTriangulations 0
Surfaces 20
2 -22.52499999999999503 15.00000000000000000 80.26356633149313780 0.00000000000000000 0.00000000000000000 1.00000000000000000 1.00000000000000000 0.00000000000000000 -0.00000000000000000 -0.00000000000000000 1.00000000000000000 0.00000000000000000 3.25000000000000000
2 246.96881752375776387 116.57788365179243328 997.76573074988323242 0.00000000000000000 0.00000000000000000 1.00000000000000000 -0.49999999999999978 0.86602540378443893 0.00000000000000000 -0.86602540378443893 -0.49999999999999978 0.00000000000000000 3.25000000000000000
2 -22.52499999999999503 15.00000000000000000 80.26356633149313780 0.00000000000000000 0.00000000000000000 1.00000000000000000 1.00000000000000000 0.00000000000000000 -0.00000000000000000 -0.00000000000000000 1.00000000000000000 0.00000000000000000 3.25000000000000000
2 -22.52499999999999503 15.00000000000000000 80.26356633149313780 0.00000000000000000 0.00000000000000000 1.00000000000000000 1.00000000000000000 0.00000000000000000 -0.00000000000000000 -0.00000000000000000 1.00000000000000000 0.00000000000000000 3.25000000000000000
1 0.00000000000000137 0.00000000000000011 0.00000000000000000 0.00000000000000000 0.00000000000000000 1.00000000000000000 1.00000000000000000 0.00000000000000000 -0.00000000000000000 -0.00000000000000000 1.00000000000000000 0.00000000000000000 
2 22.52499999999999503 15.00000000000000000 80.26356633149313780 0.00000000000000000 0.00000000000000000 1.00000000000000000 1.00000000000000000 0.00000000000000000 -0.00000000000000000 -0.00000000000000000 1.00000000000000000 0.00000000000000000 3.25000000000000000
2 224.44381752375778660 155.59232809228137739 997.76573074988323242 0.00000000000000000 0.00000000000000000 1.00000000000000000 -0.49999999999999978 0.86602540378443893 0.00000000000000000 -0.86602540378443893 -0.49999999999999978 0.00000000000000000 3.25000000000000000
2 22.52499999999999503 15.00000000000000000 80.26356633149313780 0.00000000000000000 0.00000000000000000 1.00000000000000000 1.00000000000000000 0.00000000000000000 -0.00000000000000000 -0.00000000000000000 1.00000000000000000 0.00000000000000000 3.25000000000000000
2 22.52499999999999503 15.00000000000000000 80.26356633149313780 0.00000000000000000 0.00000000000000000 1.00000000000000000 1.00000000000000000 0.00000000000000000 -0.00000000000000000 -0.00000000000000000 1.00000000000000000 0.00000000000000000 3.25000000000000000
1 0.00000000000000137 0.00000000000000011 0.00000000000000000 0.00000000000000000 0.00000000000000000 1.00000000000000000 1.00000000000000000 0.00000000000000000 -0.00000000000000000 -0.00000000000000000 1.00000000000000000 0.00000000000000000 
2 -22.52499999999999503 -15.00000000000000000 80.26356633149313780 0.00000000000000000 0.00000000000000000 1.00000000000000000 1.00000000000000000 0.00000000000000000 -0.00000000000000000 -0.00000000000000000 1.00000000000000000 0.00000000000000000 3.25000000000000000
2 272.94957963729092398 131.57788365179243328 997.76573074988323242 0.00000000000000000 0.00000000000000000 1.00000000000000000 -0.49999999999999978 0.86602540378443893 0.00000000000000000 -0.86602540378443893 -0.49999999999999978 0.00000000000000000 3.25000000000000000
2 -22.52499999999999503 -15.00000000000000000 80.26356633149313780 0.00000000000000000 0.00000000000000000 1.00000000000000000 1.00000000000000000 0.00000000000000000 -0.00000000000000000 -0.00000000000000000 1.00000000000000000 0.00000000000000000 3.25000000000000000
2 -22.52499999999999503 -15.00000000000000000 80.26356633149313780 0.00000000000000000 0.00000000000000000 1.00000000000000000 1.00000000000000000 0.00000000000000000 -0.00000000000000000 -0.00000000000000000 1.00000000000000000 0.00000000000000000 3.25000000000000000
1 0.00000000000000137 0.00000000000000011 0.00000000000000000 0.00000000000000000 0.00000000000000000 1.00000000000000000 1.00000000000000000 0.00000000000000000 -0.00000000000000000 -0.00000000000000000 1.00000000000000000 0.00000000000000000 
2 22.52499999999999858 -15.00000000000000000 80.26356633149313780 0.00000000000000000 0.00000000000000000 1.00000000000000000 1.00000000000000000 0.00000000000000000 -0.00000000000000000 -0.00000000000000000 1.00000000000000000 0.00000000000000000 3.25000000000000000
2 250.42457963729094672 170.59232809228137739 997.76573074988323242 0.00000000000000000 0.00000000000000000 1.00000000000000000 -0.49999999999999978 0.86602540378443893 0.00000000000000000 -0.86602540378443893 -0.49999999999999978 0.00000000000000000 3.25000000000000000
2 22.52499999999999858 -15.00000000000000000 80.26356633149313780 0.00000000000000000 0.00000000000000000 1.00000000000000000 1.00000000000000000 0.00000000000000000 -0.00000000000000000 -0.00000000000000000 1.00000000000000000 0.00000000000000000 3.25000000000000000
2 22.52499999999999858 -15.00000000000000000 80.26356633149313780 0.00000000000000000 0.00000000000000000 1.00000000000000000 1.00000000000000000 0.00000000000000000 -0.00000000000000000 -0.00000000000000000 1.00000000000000000 0.00000000000000000 3.25000000000000000
1 0.00000000000000137 0.00000000000000011 0.00000000000000000 0.00000000000000000 0.00000000000000000 1.00000000000000000 1.00000000000000000 0.00000000000000000 -0.00000000000000000 -0.00000000000000000 1.00000000000000000 0.00000000000000000 
Triangulations 0

TShapes 37
Ve
0.000000100000000
-19.274999999999995 15.000000000000000 0.000000000000000
0 0

0101101
*
Ed
 0.000000100000000 1 1 0
1  1 0 0.000000000000000 160.527132662986276
3  1 2CN 1 0 0.000000000000000 160.527132662986276
0

0101000
+37 6 -37 8 *
Ed
 0.000000100000000 1 1 0
1  2 0 0.000000000000000 6.283185307179586
2  3 2 13 0.000000000000000 6.283185307179586
2  4 2 15 0.000000000000000 6.283185307179586
2  5 3 21 0.000000000000000 6.283185307179586
2  6 3 23 0.000000000000000 6.283185307179586
2  7 4 28 0.000000000000000 6.283185307179586
2  8 4 30 0.000000000000000 6.283185307179586
2  9 1 31 0.000000000000000 6.283185307179586
2  10 1 32 0.000000000000000 6.283185307179586
0

0101100
+37 0 -37 0 *
Wi

0101100
+36 0 -36 0 -35 6 +35 8 *
Fa
0  0.000000100000000 1 0

0111000
+34 0 *
Wi

0101100
+35 1 *
Fa
0  0.000000100000000 5 0

0111000
+32 0 *
Sh

0101100
+33 0 +31 33 -31 34 *
So

0100000
+30 0 *
Ve
0.000000100000000
25.774999999999995 15.000000000000000 0.000000000000000
0 0

0101101
*
Ed
 0.000000100000000 1 1 0
1  3 0 0.000000000000000 160.527132662986276
3  11 12CN 6 0 0.000000000000000 160.527132662986276
0

0101000
+28 6 -28 8 *
Ed
 0.000000100000000 1 1 0
1  4 0 0.000000000000000 6.283185307179586
2  13 7 13 0.000000000000000 6.283185307179586
2  14 7 15 0.000000000000000 6.283185307179586
2  15 8 21 0.000000000000000 6.283185307179586
2  16 8 23 0.000000000000000 6.283185307179586
2  17 9 28 0.000000000000000 6.283185307179586
2  18 9 30 0.000000000000000 6.283185307179586
2  19 6 31 0.000000000000000 6.283185307179586
2  20 6 32 0.000000000000000 6.283185307179586
0

0101100
+28 0 -28 0 *
Wi

0101100
+27 0 -27 0 -26 6 +26 8 *
Fa
0  0.000000100000000 6 0

0111000
+25 0 *
Wi

0101100
+26 1 *
Fa
0  0.000000100000000 10 0

0111000
+23 0 *
Sh

0101100
+24 0 +22 33 -22 34 *
So

0100000
+21 0 *
Ve
0.000000100000000
-19.274999999999995 -15.000000000000000 0.000000000000000
0 0

0101101
*
Ed
 0.000000100000000 1 1 0
1  5 0 0.000000000000000 160.527132662986276
3  21 22CN 11 0 0.000000000000000 160.527132662986276
0

0101000
+19 6 -19 8 *
Ed
 0.000000100000000 1 1 0
1  6 0 0.000000000000000 6.283185307179586
2  23 12 13 0.000000000000000 6.283185307179586
2  24 12 15 0.000000000000000 6.283185307179586
2  25 13 21 0.000000000000000 6.283185307179586
2  26 13 23 0.000000000000000 6.283185307179586
2  27 14 28 0.000000000000000 6.283185307179586
2  28 14 30 0.000000000000000 6.283185307179586
2  29 11 31 0.000000000000000 6.283185307179586
2  30 11 32 0.000000000000000 6.283185307179586
0

0101100
+19 0 -19 0 *
Wi

0101100
+18 0 -18 0 -17 6 +17 8 *
Fa
0  0.000000100000000 11 0

0111000
+16 0 *
Wi

0101100
+17 1 *
Fa
0  0.000000100000000 15 0

0111000
+14 0 *
Sh

0101100
+15 0 +13 33 -13 34 *
So

0100000
+12 0 *
Ve
0.000000100000000
25.774999999999999 -15.000000000000000 0.000000000000000
0 0

0101101
*
Ed
 0.000000100000000 1 1 0
1  7 0 0.000000000000000 160.527132662986276
3  31 32CN 16 0 0.000000000000000 160.527132662986276
0

0101000
+10 6 -10 8 *
Ed
 0.000000100000000 1 1 0
1  8 0 0.000000000000000 6.283185307179586
2  33 17 13 0.000000000000000 6.283185307179586
2  34 17 15 0.000000000000000 6.283185307179586
2  35 18 21 0.000000000000000 6.283185307179586
2  36 18 23 0.000000000000000 6.283185307179586
2  37 19 28 0.000000000000000 6.283185307179586
2  38 19 30 0.000000000000000 6.283185307179586
2  39 16 31 0.000000000000000 6.283185307179586
2  40 16 32 0.000000000000000 6.283185307179586
0

0101100
+10 0 -10 0 *
Wi

0101100
+9 0 -9 0 -8 6 +8 8 *
Fa
0  0.000000100000000 16 0

0111000
+7 0 *
Wi

0101100
+8 1 *
Fa
0  0.000000100000000 20 0

0111000
+5 0 *
Sh

0101100
+6 0 +4 33 -4 34 *
So

0100000
+3 0 *
Co

1100000
+29 0 +20 0 +11 0 +2 0 *

+1 0 