
CASCADE Topology V1, (c) Matra-Datavision
Locations 84
1
1.000000000000000 0.000000000000000 0.000000000000000 0.000000000000000 
0.000000000000000 1.000000000000000 0.000000000000000 0.000000000000000 
0.000000000000000 0.000000000000000 1.000000000000000 0.000000000000000 
1
1.000000000000000 0.000000000000000 0.000000000000000 0.000000000000000 
0.000000000000000 1.000000000000000 0.000000000000000 0.000000000000000 
0.000000000000000 0.000000000000000 1.000000000000000 0.000000000000000 
1
1.000000000000000 0.000000000000000 0.000000000000000 0.000000000000000 
0.000000000000000 1.000000000000000 0.000000000000000 0.000000000000000 
0.000000000000000 0.000000000000000 1.000000000000000 0.000000000000000 
2  2 1 3 -1 0
1
1.000000000000000 0.000000000000000 0.000000000000000 0.000000000000000 
0.000000000000000 1.000000000000000 0.000000000000000 0.000000000000000 
0.000000000000000 0.000000000000000 1.000000000000000 0.000000000000000 
1
1.000000000000000 0.000000000000000 0.000000000000000 0.000000000000000 
0.000000000000000 1.000000000000000 0.000000000000000 0.000000000000000 
0.000000000000000 0.000000000000000 1.000000000000000 0.000000000000000 
1
1.000000000000000 0.000000000000000 0.000000000000000 0.000000000000000 
0.000000000000000 1.000000000000000 0.000000000000000 0.000000000000000 
0.000000000000000 0.000000000000000 1.000000000000000 0.000000000000000 
1
1.000000000000000 0.000000000000000 0.000000000000000 0.000000000000000 
0.000000000000000 1.000000000000000 0.000000000000000 0.000000000000000 
0.000000000000000 0.000000000000000 1.000000000000000 0.000000000000000 
1
1.000000000000000 0.000000000000000 0.000000000000000 0.000000000000000 
0.000000000000000 1.000000000000000 0.000000000000000 0.000000000000000 
0.000000000000000 0.000000000000000 1.000000000000000 0.000000000000000 
1
1.000000000000000 0.000000000000000 0.000000000000000 0.000000000000000 
0.000000000000000 1.000000000000000 0.000000000000000 0.000000000000000 
0.000000000000000 0.000000000000000 1.000000000000000 0.000000000000000 
1
1.000000000000000 0.000000000000000 0.000000000000000 0.000000000000000 
0.000000000000000 1.000000000000000 0.000000000000000 0.000000000000000 
0.000000000000000 0.000000000000000 1.000000000000000 0.000000000000000 
2  5 1 6 1 7 1 8 1 9 1 10 1 11 -1 0
1
1.000000000000000 0.000000000000000 0.000000000000000 0.000000000000000 
0.000000000000000 1.000000000000000 0.000000000000000 0.000000000000000 
0.000000000000000 0.000000000000000 1.000000000000000 3.000000000000000 
2  5 1 6 1 7 1 8 1 9 1 10 1 11 -1 13 1 0
2  11 1 10 -1 9 -1 8 -1 7 -1 6 -1 5 -1 0
2  13 -1 11 1 10 -1 9 -1 8 -1 7 -1 6 -1 5 -1 0
2  8 -1 7 -1 6 -1 5 -1 0
1
1.000000000000000 0.000000000000000 0.000000000000000 0.000000000000000 
0.000000000000000 1.000000000000000 0.000000000000000 0.000000000000000 
0.000000000000000 0.000000000000000 1.000000000000000 0.000000000000000 
1
1.000000000000000 0.000000000000000 0.000000000000000 0.000000000000000 
0.000000000000000 1.000000000000000 0.000000000000000 0.000000000000000 
0.000000000000000 0.000000000000000 1.000000000000000 0.000000000000000 
1
1.000000000000000 0.000000000000000 0.000000000000000 0.000000000000000 
0.000000000000000 1.000000000000000 0.000000000000000 0.000000000000000 
0.000000000000000 0.000000000000000 1.000000000000000 0.000000000000000 
1
-0.500000000000000 0.866025403784439 0.000000000000000 0.000000000000021 
-0.866025403784439 -0.500000000000000 0.000000000000000 0.000000000000099 
0.000000000000000 0.000000000000000 1.000000000000000 0.000000000000000 
2  18 -1 19 1 20 1 21 1 8 1 9 1 10 1 11 -1 0
2  18 -1 19 1 20 1 21 1 8 1 9 1 10 1 11 -1 13 1 0
2  19 1 20 1 21 1 8 1 9 1 10 1 11 -1 0
2  11 1 10 -1 9 -1 8 -1 21 -1 20 -1 19 -1 0
2  13 -1 11 1 10 -1 9 -1 8 -1 21 -1 20 -1 19 -1 0
2  8 -1 21 -1 20 -1 19 -1 0
2  5 1 6 1 7 1 21 -1 20 -1 19 -1 0
2  18 -1 0
2  19 1 20 1 21 1 8 1 9 1 10 1 11 -1 13 1 0
1
-0.500000000000001 -0.866025403784439 0.000000000000000 0.000000000000085 
0.866025403784439 -0.500000000000001 0.000000000000000 -0.000000000000028 
0.000000000000000 0.000000000000000 1.000000000000001 0.000000000000000 
2  11 1 10 -1 9 -1 8 -1 31 -1 6 -1 5 -1 0
2  13 -1 11 1 10 -1 9 -1 8 -1 31 -1 6 -1 5 -1 0
2  11 1 10 -1 9 -1 8 -1 21 -1 6 -1 5 -1 0
2  13 -1 11 1 10 -1 9 -1 8 -1 21 -1 6 -1 5 -1 0
2  8 -1 31 -1 6 -1 5 -1 0
2  8 -1 21 -1 6 -1 5 -1 0
2  9 1 10 1 11 -1 2 1 3 -1 0
2  5 1 6 1 7 1 8 1 9 1 10 1 11 -1 2 1 3 -1 0
2  19 1 20 1 21 1 8 1 9 1 10 1 11 -1 2 1 3 -1 0
2  11 1 10 -1 9 -1 8 -1 7 -1 20 -1 19 -1 0
2  13 -1 11 1 10 -1 9 -1 8 -1 7 -1 20 -1 19 -1 0
2  11 1 10 -1 9 -1 8 -1 31 -1 20 -1 19 -1 0
2  13 -1 11 1 10 -1 9 -1 8 -1 31 -1 20 -1 19 -1 0
2  8 -1 7 -1 20 -1 19 -1 0
2  8 -1 31 -1 20 -1 19 -1 0
2  5 1 6 1 20 -1 19 -1 0
2  19 1 20 1 7 1 8 1 9 1 10 1 11 -1 2 1 3 -1 0
2  5 1 6 1 21 1 8 1 9 1 10 1 11 -1 2 1 3 -1 0
2  18 -1 19 1 20 1 31 1 21 -1 6 -1 5 -1 0
2  5 1 6 1 31 1 8 1 9 1 10 1 11 -1 2 1 3 -1 0
2  18 -1 19 1 20 1 7 1 31 -1 6 -1 5 -1 0
2  19 1 20 1 31 1 8 1 9 1 10 1 11 -1 2 1 3 -1 0
1
1.000000000000000 0.000000000000000 0.000000000000000 160.836112157986634 
0.000000000000000 1.000000000000000 0.000000000000000 -76.261032158655922 
0.000000000000000 0.000000000000000 1.000000000000000 0.000000000000000 
1
1.000000000000000 0.000000000000000 0.000000000000000 117.675123851654320 
0.000000000000000 1.000000000000000 0.000000000000000 132.886474957001582 
0.000000000000000 0.000000000000000 1.000000000000000 0.000000000000000 
2  9 1 10 1 11 -1 2 1 3 -1 55 -1 0
1
1.000000000000000 0.000000000000000 0.000000000000000 14.374064910775601 
0.000000000000000 1.000000000000000 0.000000000000000 177.418675054067563 
0.000000000000000 0.000000000000000 1.000000000000000 0.000000000000000 
2  9 1 10 1 11 -1 2 1 3 -1 57 -1 0
2  9 1 10 1 11 -1 2 1 3 -1 54 -1 0
1
1.000000000000000 0.000000000000000 0.000000000000000 173.920625057955220 
0.000000000000000 1.000000000000000 0.000000000000000 35.466409170511618 
0.000000000000000 0.000000000000000 1.000000000000000 0.000000000000000 
2  9 1 10 1 11 -1 2 1 3 -1 60 -1 0
2  9 1 10 1 11 -1 13 1 2 1 3 -1 0
2  5 1 6 1 7 1 8 1 9 1 10 1 11 -1 13 1 2 1 3 -1 0
2  19 1 20 1 21 1 8 1 9 1 10 1 11 -1 13 1 2 1 3 -1 0
2  19 1 20 1 7 1 8 1 9 1 10 1 11 -1 13 1 2 1 3 -1 0
2  5 1 6 1 21 1 8 1 9 1 10 1 11 -1 13 1 2 1 3 -1 0
2  5 1 6 1 31 1 8 1 9 1 10 1 11 -1 13 1 2 1 3 -1 0
2  19 1 20 1 31 1 8 1 9 1 10 1 11 -1 13 1 2 1 3 -1 0
2  5 1 6 1 21 1 8 1 9 1 10 1 11 -1 0
2  5 1 6 1 21 1 8 1 9 1 10 1 11 -1 13 1 0
2  18 -1 19 1 20 1 7 1 8 1 9 1 10 1 11 -1 0
2  18 -1 19 1 20 1 7 1 8 1 9 1 10 1 11 -1 13 1 0
2  19 1 20 1 7 1 8 1 9 1 10 1 11 -1 0
2  19 1 20 1 7 1 8 1 9 1 10 1 11 -1 13 1 0
2  18 -1 19 1 20 1 31 1 8 1 9 1 10 1 11 -1 0
2  18 -1 19 1 20 1 31 1 8 1 9 1 10 1 11 -1 13 1 0
2  5 1 6 1 31 1 8 1 9 1 10 1 11 -1 0
2  5 1 6 1 31 1 8 1 9 1 10 1 11 -1 13 1 0
2  19 1 20 1 31 1 8 1 9 1 10 1 11 -1 0
2  19 1 20 1 31 1 8 1 9 1 10 1 11 -1 13 1 0
2  54 -1 0
2  60 -1 0
2  57 -1 0
2  55 -1 0
Curve2ds 106
1 0.52359877559829882 0.00000000000000000 0.00000000000000000 -1.00000000000000000 
1 0.52359877559829882 0.00000000000000000 0.00000000000000000 -1.00000000000000000 
1 0.56455098802180270 0.00000000000000000 0.00000000000000000 -1.00000000000000000 
1 0.56455098802180304 0.00000000000000000 0.00000000000000000 -1.00000000000000000 
1 0.00000000000000000 0.00000000000000000 1.00000000000000000 0.00000000000000000 
1 0.00000000000000000 -3.00000000000000000 1.00000000000000000 0.00000000000000000 
2 -0.00000000000001316 0.00000000000002677 1.00000000000000000 0.00000000000000000 -0.00000000000000000 1.00000000000000000 354.17021174407386752
1 0.56455098802180304 0.00000000000000000 0.00000000000000000 -1.00000000000000000 
1 0.56455098802180270 0.00000000000000000 0.00000000000000000 -1.00000000000000000 
1 0.00000000000000000 0.00000000000000000 1.00000000000000000 0.00000000000000000 
1 0.00000000000000000 -3.00000000000000000 1.00000000000000000 0.00000000000000000 
2 0.00000000000000816 0.00000000000012625 0.50000000000000033 0.86602540378443860 0.86602540378443860 -0.50000000000000033 354.17021174407386752
1 1.22573129010829063 0.00000000000000000 0.00000000000000000 -1.00000000000000000 
1 1.22573129010829085 0.00000000000000000 0.00000000000000000 -1.00000000000000000 
1 0.00000000000000000 0.00000000000000000 1.00000000000000000 0.00000000000000000 
1 0.00000000000000000 -3.00000000000000000 1.00000000000000000 0.00000000000000000 
1 0.00000000000000000 0.00000000000000000 1.00000000000000000 0.00000000000000000 
1 0.00000000000000000 -3.00000000000000000 1.00000000000000000 0.00000000000000000 
1 0.00000000000000000 0.00000000000000000 1.00000000000000000 0.00000000000000000 
1 0.00000000000000000 -3.00000000000000000 1.00000000000000000 0.00000000000000000 
2 255.70454913011639064 161.93962032611540280 1.00000000000000000 0.00000000000000000 -0.00000000000000000 1.00000000000000000 51.50000000000000000
2 -268.09609964668106841 140.47682524686908323 -0.50000000000000056 0.86602540378443837 -0.86602540378443837 -0.50000000000000056 51.50000000000002132
2 12.39155051656448769 -302.41644557298451446 -0.50000000000000033 -0.86602540378443860 0.86602540378443860 -0.50000000000000033 51.50000000000000000
1 0.00000000000000000 0.00000000000000000 1.00000000000000000 0.00000000000000000 
1 0.00000000000000000 -3.00000000000000000 1.00000000000000000 0.00000000000000000 
1 0.00000000000000000 0.00000000000000000 1.00000000000000000 0.00000000000000000 
1 0.00000000000000000 -3.00000000000000000 1.00000000000000000 0.00000000000000000 
1 0.00000000000000000 0.00000000000000000 1.00000000000000000 0.00000000000000000 
1 0.00000000000000000 -3.00000000000000000 1.00000000000000000 0.00000000000000000 
2 -255.70454913011639064 161.93962032611540280 -1.00000000000000000 0.00000000000000000 0.00000000000000000 1.00000000000000000 51.50000000000000000
2 -12.39155051656429585 -302.41644557298468499 0.50000000000000056 -0.86602540378443837 -0.86602540378443837 -0.50000000000000056 51.50000000000000711
2 268.09609964668106841 140.47682524686925376 0.50000000000000033 0.86602540378443860 0.86602540378443860 -0.50000000000000033 51.49999999999999289
1 0.00000000000000000 0.00000000000000000 1.00000000000000000 0.00000000000000000 
1 0.00000000000000000 -3.00000000000000000 1.00000000000000000 0.00000000000000000 
1 0.00000000000000000 0.00000000000000000 1.00000000000000000 0.00000000000000000 
1 0.00000000000000000 -3.00000000000000000 1.00000000000000000 0.00000000000000000 
1 0.00000000000000000 0.00000000000000000 1.00000000000000000 0.00000000000000000 
1 0.00000000000000000 -3.00000000000000000 1.00000000000000000 0.00000000000000000 
2 -0.00000000000001316 -549.44557738923845136 1.00000000000000000 0.00000000000000000 -0.00000000000000000 1.00000000000000000 807.44557738923845136
2 475.83382801608934187 274.72278869461956674 -0.50000000000000056 0.86602540378443837 -0.86602540378443837 -0.50000000000000056 807.44557738923867873
2 -475.83382801608922819 274.72278869461950990 -0.50000000000000033 -0.86602540378443860 0.86602540378443860 -0.50000000000000033 807.44557738923856505
1 0.00000000000000000 0.00000000000000000 1.00000000000000000 0.00000000000000000 
1 0.00000000000000000 -3.00000000000000000 1.00000000000000000 0.00000000000000000 
2 -475.83382801608922819 274.72278869461950990 0.50000000000000033 0.86602540378443860 0.86602540378443860 -0.50000000000000033 807.44557738923845136
1 0.00000000000000000 0.00000000000000000 1.00000000000000000 0.00000000000000000 
1 0.00000000000000000 -3.00000000000000000 1.00000000000000000 0.00000000000000000 
2 -0.00000000000001316 -549.44557738923845136 -1.00000000000000000 0.00000000000000000 0.00000000000000000 1.00000000000000000 807.44557738923845136
1 0.00000000000000000 0.00000000000000000 1.00000000000000000 0.00000000000000000 
1 0.00000000000000000 -3.00000000000000000 1.00000000000000000 0.00000000000000000 
1 0.00000000000000000 0.00000000000000000 1.00000000000000000 0.00000000000000000 
1 0.00000000000000000 -3.00000000000000000 1.00000000000000000 0.00000000000000000 
2 -0.00000000000001316 0.00000000000002677 -1.00000000000000000 0.00000000000000000 0.00000000000000000 1.00000000000000000 354.17021174407386752
2 0.00000000000007211 -0.00000000000000165 0.50000000000000056 -0.86602540378443837 -0.86602540378443837 -0.50000000000000056 354.17021174407392436
1 0.00000000000000000 0.00000000000000000 1.00000000000000000 0.00000000000000000 
1 0.00000000000000000 -3.00000000000000000 1.00000000000000000 0.00000000000000000 
2 0.00000000000000816 0.00000000000012625 -0.50000000000000033 -0.86602540378443860 0.86602540378443860 -0.50000000000000033 354.17021174407386752
1 0.00000000000000000 0.00000000000000000 1.00000000000000000 0.00000000000000000 
1 0.00000000000000000 -3.00000000000000000 1.00000000000000000 0.00000000000000000 
2 0.00000000000007211 -0.00000000000000165 -0.50000000000000056 0.86602540378443837 -0.86602540378443837 -0.50000000000000056 354.17021174407392436
1 0.00000000000000000 0.00000000000000000 1.00000000000000000 0.00000000000000000 
1 0.00000000000000000 -3.00000000000000000 1.00000000000000000 0.00000000000000000 
2 475.83382801608934187 274.72278869461956674 0.50000000000000056 -0.86602540378443837 -0.86602540378443837 -0.50000000000000056 807.44557738923867873
2 0.00000000000000000 0.00000000000000000 -1.00000000000000000 0.00000000000000000 0.00000000000000000 1.00000000000000000 1.69999999999999996
1 0.00000000000000000 0.00000000000000000 1.00000000000000000 0.00000000000000000 
2 117.67512385165430544 132.88647495700161016 -1.00000000000000000 0.00000000000000000 0.00000000000000000 1.00000000000000000 1.70000000000000284
2 14.37406491077558890 177.41867505406759165 -1.00000000000000000 0.00000000000000000 0.00000000000000000 1.00000000000000000 1.69999999999999929
2 160.83611215798663352 -76.26103215865589391 -1.00000000000000000 0.00000000000000000 0.00000000000000000 1.00000000000000000 1.69999999999998863
2 173.92062505795522043 35.46640917051164621 -1.00000000000000000 0.00000000000000000 0.00000000000000000 1.00000000000000000 1.69999999999998863
2 160.83611215798663352 -76.26103215865589391 -1.00000000000000000 0.00000000000000000 -0.00000000000000000 -1.00000000000000000 1.69999999999999996
1 6.28318530717958623 3.00000000000000000 -1.00000000000000000 0.00000000000000000 
2 173.92062505795522043 35.46640917051164621 -1.00000000000000000 0.00000000000000000 -0.00000000000000000 -1.00000000000000000 1.69999999999999996
1 6.28318530717958623 3.00000000000000000 -1.00000000000000000 0.00000000000000000 
2 14.37406491077558890 177.41867505406759165 -1.00000000000000000 0.00000000000000000 -0.00000000000000000 -1.00000000000000000 1.69999999999999996
1 6.28318530717958623 3.00000000000000000 -1.00000000000000000 0.00000000000000000 
2 117.67512385165430544 132.88647495700161016 -1.00000000000000000 0.00000000000000000 -0.00000000000000000 -1.00000000000000000 1.69999999999999996
1 6.28318530717958623 3.00000000000000000 -1.00000000000000000 0.00000000000000000 
1 1.22573129010829085 0.00000000000000000 0.00000000000000000 -1.00000000000000000 
1 1.22573129010829063 0.00000000000000000 0.00000000000000000 -1.00000000000000000 
1 1.57079632679489656 0.00000000000000000 0.00000000000000000 -1.00000000000000000 
1 1.57079632679489656 0.00000000000000000 0.00000000000000000 -1.00000000000000000 
1 1.57079632679489656 0.00000000000000000 0.00000000000000000 -1.00000000000000000 
1 1.57079632679489656 0.00000000000000000 0.00000000000000000 -1.00000000000000000 
1 1.22573129010829085 0.00000000000000000 0.00000000000000000 -1.00000000000000000 
1 1.22573129010829063 0.00000000000000000 0.00000000000000000 -1.00000000000000000 
1 1.22573129010829063 0.00000000000000000 0.00000000000000000 -1.00000000000000000 
1 1.22573129010829085 0.00000000000000000 0.00000000000000000 -1.00000000000000000 
1 0.56455098802180304 0.00000000000000000 0.00000000000000000 -1.00000000000000000 
1 0.56455098802180270 0.00000000000000000 0.00000000000000000 -1.00000000000000000 
1 0.56455098802180270 0.00000000000000000 0.00000000000000000 -1.00000000000000000 
1 0.56455098802180304 0.00000000000000000 0.00000000000000000 -1.00000000000000000 
1 0.52359877559829882 0.00000000000000000 0.00000000000000000 -1.00000000000000000 
1 0.52359877559829882 0.00000000000000000 0.00000000000000000 -1.00000000000000000 
1 0.52359877559829882 0.00000000000000000 0.00000000000000000 -1.00000000000000000 
1 0.52359877559829882 0.00000000000000000 0.00000000000000000 -1.00000000000000000 
1 0.56455098802180270 0.00000000000000000 0.00000000000000000 -1.00000000000000000 
1 0.56455098802180304 0.00000000000000000 0.00000000000000000 -1.00000000000000000 
1 0.56455098802180304 0.00000000000000000 0.00000000000000000 -1.00000000000000000 
1 0.56455098802180270 0.00000000000000000 0.00000000000000000 -1.00000000000000000 
1 1.22573129010829063 0.00000000000000000 0.00000000000000000 -1.00000000000000000 
1 1.22573129010829085 0.00000000000000000 0.00000000000000000 -1.00000000000000000 
1 1.22573129010829085 0.00000000000000000 0.00000000000000000 -1.00000000000000000 
1 1.22573129010829063 0.00000000000000000 0.00000000000000000 -1.00000000000000000 
1 1.57079632679489656 0.00000000000000000 0.00000000000000000 -1.00000000000000000 
1 1.57079632679489656 0.00000000000000000 0.00000000000000000 -1.00000000000000000 
1 6.28318530717958623 0.00000000000000000 0.00000000000000000 1.00000000000000000 
1 0.00000000000000000 0.00000000000000000 0.00000000000000000 1.00000000000000000 
Curves 30
1 306.72040063408178412 177.08510587203676323 0.00000000000000000 0.00000000000000000 0.00000000000000000 1.00000000000000000 
1 299.21323868472643426 189.49400170622564588 0.00000000000000000 0.00000000000000000 0.00000000000000000 1.00000000000000000 
2 0.00000000000000000 0.00000000000000000 0.00000000000000000 0.00000000000000000 0.00000000000000000 1.00000000000000000 1.00000000000000000 0.00000000000000000 -0.00000000000000000 -0.00000000000000000 1.00000000000000000 0.00000000000000000 354.17021174407386752
1 313.71323868472649110 164.37926499647704759 0.00000000000000000 0.00000000000000000 0.00000000000000000 1.00000000000000000 
2 0.00000000000000000 0.00000000000000000 0.00000000000000000 0.00000000000000000 0.00000000000000000 -1.00000000000000000 -1.00000000000000000 -0.00000000000000000 -0.00000000000000000 -0.00000000000000000 1.00000000000000000 0.00000000000000000 354.17021174407386752
1 273.12482999964834107 210.40387328050036331 0.00000000000000000 0.00000000000000000 0.00000000000000000 1.00000000000000000 
2 255.70454913011639064 161.93962032611537438 0.00000000000000000 0.00000000000000000 0.00000000000000000 1.00000000000000000 1.00000000000000000 0.00000000000000000 -0.00000000000000000 -0.00000000000000000 1.00000000000000000 0.00000000000000000 51.50000000000000000
2 -255.70454913011639064 161.93962032611537438 0.00000000000000000 0.00000000000000000 0.00000000000000000 -1.00000000000000000 -1.00000000000000000 -0.00000000000000000 -0.00000000000000000 -0.00000000000000000 1.00000000000000000 0.00000000000000000 51.50000000000000000
2 0.00000000000000000 -549.44557738923845136 0.00000000000000000 0.00000000000000000 0.00000000000000000 1.00000000000000000 1.00000000000000000 0.00000000000000000 -0.00000000000000000 -0.00000000000000000 1.00000000000000000 0.00000000000000000 807.44557738923845136
2 0.00000000000000000 -549.44557738923845136 0.00000000000000000 0.00000000000000000 0.00000000000000000 -1.00000000000000000 -1.00000000000000000 -0.00000000000000000 -0.00000000000000000 -0.00000000000000000 1.00000000000000000 0.00000000000000000 807.44557738923845136
2 0.00000000000000000 0.00000000000000000 0.00000000000000000 0.00000000000000000 0.00000000000000000 -1.00000000000000000 -1.00000000000000000 0.00000000000000000 -0.00000000000000000 0.00000000000000000 1.00000000000000000 0.00000000000000000 1.69999999999999996
2 160.83611215798663352 -76.26103215865592233 3.00000000000000000 0.00000000000000000 -0.00000000000000000 1.00000000000000000 -1.00000000000000000 0.00000000000000000 0.00000000000000000 -0.00000000000000000 -1.00000000000000000 0.00000000000000000 1.69999999999999996
2 173.92062505795522043 35.46640917051161779 3.00000000000000000 0.00000000000000000 -0.00000000000000000 1.00000000000000000 -1.00000000000000000 0.00000000000000000 0.00000000000000000 -0.00000000000000000 -1.00000000000000000 0.00000000000000000 1.69999999999999996
2 14.37406491077560133 177.41867505406756322 3.00000000000000000 0.00000000000000000 -0.00000000000000000 1.00000000000000000 -1.00000000000000000 0.00000000000000000 0.00000000000000000 -0.00000000000000000 -1.00000000000000000 0.00000000000000000 1.69999999999999996
2 117.67512385165431965 132.88647495700158174 3.00000000000000000 0.00000000000000000 -0.00000000000000000 1.00000000000000000 -1.00000000000000000 0.00000000000000000 0.00000000000000000 -0.00000000000000000 -1.00000000000000000 0.00000000000000000 1.69999999999999996
1 318.77751431537944882 131.33110454375150766 0.00000000000000000 0.00000000000000000 0.00000000000000000 1.00000000000000000 
1 0.00000000000001154 258.00000000000011369 0.00000000000000000 0.00000000000000000 0.00000000000000000 1.00000000000000000 
1 223.43455417638529070 -129.00000000000005684 0.00000000000000000 0.00000000000000000 0.00000000000000000 1.00000000000000000 
1 -273.12482999964839792 210.40387328050039173 0.00000000000000000 0.00000000000000000 0.00000000000000000 1.00000000000000000 
1 45.65268431573093011 -341.73497782425175728 0.00000000000000000 0.00000000000000000 0.00000000000000000 1.00000000000000000 
1 -299.21323868472643426 189.49400170622564588 0.00000000000000000 0.00000000000000000 0.00000000000000000 1.00000000000000000 
1 14.49999999999985079 -353.87326670270255136 0.00000000000000000 0.00000000000000000 0.00000000000000000 1.00000000000000000 
1 -306.72040063408155675 177.08510587203701903 0.00000000000000000 0.00000000000000000 0.00000000000000000 1.00000000000000000 
1 0.00000000000014211 -354.17021174407386752 0.00000000000000000 0.00000000000000000 0.00000000000000000 1.00000000000000000 
1 -313.71323868472654794 164.37926499647682022 0.00000000000000000 0.00000000000000000 0.00000000000000000 1.00000000000000000 
1 -14.49999999999966249 -353.87326670270272189 0.00000000000000000 0.00000000000000000 0.00000000000000000 1.00000000000000000 
1 -318.77751431537944882 131.33110454375125187 0.00000000000000000 0.00000000000000000 0.00000000000000000 1.00000000000000000 
1 -45.65268431573074537 -341.73497782425204150 0.00000000000000000 0.00000000000000000 0.00000000000000000 1.00000000000000000 
1 -223.43455417638517702 -129.00000000000025580 0.00000000000000000 0.00000000000000000 0.00000000000000000 1.00000000000000000 
1 -1.69999999999999996 0.00000000000000000 -0.00000000000000000 0.00000000000000006 0.00000000000000000 1.00000000000000000 
Polygon3D 0
PolygonOnTriangulations 0
Surfaces 21
2 0.00000000000000000 0.00000000000000000 0.00000000000000000 -0.00000000000000000 -0.00000000000000000 -1.00000000000000000 1.00000000000000000 0.00000000000000000 0.00000000000000000 -0.00000000000000000 1.00000000000000000 -0.00000000000000000 354.17021174407386752
2 0.00000000000002132 0.00000000000009948 0.00000000000000000 0.00000000000000000 -0.00000000000000000 -1.00000000000000000 0.50000000000000033 0.86602540378443860 0.00000000000000000 0.86602540378443860 -0.50000000000000033 0.00000000000000000 354.17021174407386752
2 255.70454913011639064 161.93962032611537438 0.00000000000000000 -0.00000000000000000 -0.00000000000000000 -1.00000000000000000 1.00000000000000000 0.00000000000000000 0.00000000000000000 -0.00000000000000000 1.00000000000000000 -0.00000000000000000 51.50000000000000000
1 0.00000000000001316 -0.00000000000002677 0.00000000000000000 0.00000000000000000 0.00000000000000000 1.00000000000000000 1.00000000000000000 0.00000000000000000 -0.00000000000000000 -0.00000000000000000 1.00000000000000000 0.00000000000000000 
2 268.09609964668106841 140.47682524686922534 0.00000000000000000 0.00000000000000000 -0.00000000000000000 -1.00000000000000000 0.50000000000000033 0.86602540378443860 0.00000000000000000 0.86602540378443860 -0.50000000000000033 0.00000000000000000 51.50000000000000000
2 0.00000000000000000 -549.44557738923845136 0.00000000000000000 -0.00000000000000000 -0.00000000000000000 -1.00000000000000000 1.00000000000000000 0.00000000000000000 0.00000000000000000 -0.00000000000000000 1.00000000000000000 -0.00000000000000000 807.44557738923845136
2 -268.09609964668106841 140.47682524686905481 0.00000000000000000 -0.00000000000000000 -0.00000000000000000 -1.00000000000000000 -0.50000000000000056 0.86602540378443837 0.00000000000000000 -0.86602540378443837 -0.50000000000000056 0.00000000000000000 51.50000000000001421
2 12.39155051656450013 -302.41644557298451446 0.00000000000000000 -0.00000000000000000 -0.00000000000000000 -1.00000000000000000 -0.50000000000000033 -0.86602540378443860 0.00000000000000000 0.86602540378443860 -0.50000000000000033 -0.00000000000000000 51.50000000000000000
2 -255.70454913011639064 161.93962032611537438 0.00000000000000000 0.00000000000000000 0.00000000000000000 -1.00000000000000000 -1.00000000000000000 -0.00000000000000000 -0.00000000000000000 -0.00000000000000000 1.00000000000000000 0.00000000000000000 51.50000000000000000
2 -12.39155051656428341 -302.41644557298468499 0.00000000000000000 -0.00000000000000000 0.00000000000000000 -1.00000000000000000 0.50000000000000056 -0.86602540378443837 -0.00000000000000000 -0.86602540378443837 -0.50000000000000056 0.00000000000000000 51.50000000000001421
2 475.83382801608934187 274.72278869461956674 0.00000000000000000 -0.00000000000000000 -0.00000000000000000 -1.00000000000000000 -0.50000000000000056 0.86602540378443837 0.00000000000000000 -0.86602540378443837 -0.50000000000000056 0.00000000000000000 807.44557738923867873
2 -475.83382801608922819 274.72278869461950990 0.00000000000000000 -0.00000000000000000 -0.00000000000000000 -1.00000000000000000 -0.50000000000000033 -0.86602540378443860 0.00000000000000000 0.86602540378443860 -0.50000000000000033 -0.00000000000000000 807.44557738923845136
2 -475.83382801608922819 274.72278869461950990 0.00000000000000000 0.00000000000000000 -0.00000000000000000 -1.00000000000000000 0.50000000000000033 0.86602540378443860 0.00000000000000000 0.86602540378443860 -0.50000000000000033 0.00000000000000000 807.44557738923845136
2 0.00000000000000000 -549.44557738923845136 0.00000000000000000 0.00000000000000000 0.00000000000000000 -1.00000000000000000 -1.00000000000000000 -0.00000000000000000 -0.00000000000000000 -0.00000000000000000 1.00000000000000000 0.00000000000000000 807.44557738923845136
2 0.00000000000000000 0.00000000000000000 0.00000000000000000 0.00000000000000000 0.00000000000000000 -1.00000000000000000 -1.00000000000000000 -0.00000000000000000 -0.00000000000000000 -0.00000000000000000 1.00000000000000000 0.00000000000000000 354.17021174407386752
2 0.00000000000008527 -0.00000000000002842 0.00000000000000000 -0.00000000000000000 0.00000000000000000 -1.00000000000000000 0.50000000000000056 -0.86602540378443837 -0.00000000000000000 -0.86602540378443837 -0.50000000000000056 0.00000000000000000 354.17021174407392436
2 0.00000000000002132 0.00000000000009948 0.00000000000000000 -0.00000000000000000 -0.00000000000000000 -1.00000000000000000 -0.50000000000000033 -0.86602540378443860 0.00000000000000000 0.86602540378443860 -0.50000000000000033 -0.00000000000000000 354.17021174407386752
2 0.00000000000008527 -0.00000000000002842 0.00000000000000000 -0.00000000000000000 -0.00000000000000000 -1.00000000000000000 -0.50000000000000056 0.86602540378443837 0.00000000000000000 -0.86602540378443837 -0.50000000000000056 0.00000000000000000 354.17021174407392436
2 475.83382801608934187 274.72278869461956674 0.00000000000000000 -0.00000000000000000 0.00000000000000000 -1.00000000000000000 0.50000000000000056 -0.86602540378443837 -0.00000000000000000 -0.86602540378443837 -0.50000000000000056 0.00000000000000000 807.44557738923867873
1 0.00000000000000000 0.00000000000000000 0.00000000000000000 0.00000000000000000 0.00000000000000000 -1.00000000000000000 1.00000000000000000 -0.00000000000000000 0.00000000000000000 -0.00000000000000000 1.00000000000000000 0.00000000000000000 
2 0.00000000000000000 0.00000000000000000 0.00000000000000000 -0.00000000000000000 -0.00000000000000000 1.00000000000000000 -1.00000000000000000 0.00000000000000000 0.00000000000000000 0.00000000000000000 1.00000000000000000 0.00000000000000000 1.69999999999999996
Triangulations 0

TShapes 108
Ve
0.000000100000619
306.720400634081898 177.085105872036706 0.000000000000000
0 0

0101101
*
Ed
 0.000000100000332 1 1 0
1  1 0 0.000000000000000 3.000000000000000
2  1 1 0 0.000000000000000 3.000000000000000
2  2 2 0 0.000000000000000 3.000000000000000
4 C2 1 0 2 0
0

0101000
+108 12 -108 14 *
Ve
0.000000100000028
299.213238684726434 189.494001706225646 0.000000000000000
0 0

0101101
*
Ed
 0.000000100000028 1 1 0
1  2 0 0.000000000000000 3.000000000000000
2  3 1 0 0.000000000000000 3.000000000000000
2  4 3 0 0.000000000000000 3.000000000000000
4 G1 1 0 3 0
0

0101000
+106 12 -106 14 *
Ed
 0.000000100000000 1 1 0
1  3 0 0.523598775598299 0.564550988021803
2  5 1 15 0.523598775598299 0.564550988021803
2  6 1 16 0.523598775598299 0.564550988021803
2  7 4 17 0.523598775598299 0.564550988021803
0

0101000
+108 0 -106 0 *
Wi

0101100
+107 0 -105 0 -104 12 +104 14 *
Fa
0  0.000000100000000 1 0

0111000
+103 0 *
Ve
0.000000100000028
-299.213238684726434 189.494001706225646 0.000000000000000
0 0

0101101
*
Ed
 0.000000100000028 1 1 0
1  4 0 0.000000000000000 3.000000000000000
2  8 5 0 0.000000000000000 3.000000000000000
2  9 2 0 0.000000000000000 3.000000000000000
4 G1 5 0 2 0
0

0101000
+101 22 -101 23 *
Ed
 0.000000100000000 1 1 0
1  5 0 0.523598775598299 0.564550988021803
2  10 2 25 0.523598775598299 0.564550988021803
2  11 2 26 0.523598775598299 0.564550988021803
2  12 4 27 0.523598775598299 0.564550988021803
0

0101000
+108 28 -101 29 *
Wi

0101100
+107 0 -100 0 -99 24 +99 30 *
Fa
0  0.000000100000000 2 0

0111000
+98 0 *
Ve
0.000000100000080
273.124829999648341 210.403873280500363 0.000000000000000
0 0

0101101
*
Ed
 0.000000100000080 1 1 0
1  6 0 0.000000000000000 3.000000000000000
2  13 3 0 0.000000000000000 3.000000000000000
2  14 6 0 0.000000000000000 3.000000000000000
4 G1 3 0 6 0
0

0101000
+96 12 -96 14 *
Ed
 0.000000100000000 1 1 0
1  7 0 0.564550988021803 1.225731290108291
2  15 3 15 0.564550988021803 1.225731290108291
2  16 3 16 0.564550988021803 1.225731290108291
2  17 7 32 0.564550988021803 1.225731290108291
2  18 7 33 0.564550988021803 1.225731290108291
2  19 8 34 0.564550988021803 1.225731290108291
2  20 8 35 0.564550988021803 1.225731290108291
2  21 4 17 0.564550988021803 1.225731290108291
2  22 4 36 0.564550988021803 1.225731290108291
2  23 4 37 0.564550988021803 1.225731290108291
0

0101000
+106 0 -96 0 *
Wi

0101100
+105 0 -95 0 -94 12 +94 14 *
Fa
0  0.000000100000000 3 0

0111000
+93 0 *
Ve
0.000000100000080
-273.124829999648455 210.403873280500335 0.000000000000000
0 0

0101101
*
Ed
 0.000000100000000 1 1 0
1  8 0 0.564550988021803 1.225731290108291
2  24 9 41 0.564550988021803 1.225731290108291
2  25 9 42 0.564550988021803 1.225731290108291
2  26 10 43 0.564550988021803 1.225731290108291
2  27 10 44 0.564550988021803 1.225731290108291
2  28 5 25 0.564550988021803 1.225731290108291
2  29 5 26 0.564550988021803 1.225731290108291
2  30 4 45 0.564550988021803 1.225731290108291
2  31 4 46 0.564550988021803 1.225731290108291
2  32 4 27 0.564550988021803 1.225731290108291
0

0101000
+101 29 -91 29 *
Ve
0.000000100000130
0.000000000000012 258.000000000000227 0.000000000000000
0 0

0101101
*
Ed
 0.000000100000000 1 1 0
1  9 0 1.225731290108291 1.570796326794897
2  33 6 15 1.225731290108291 1.570796326794897
2  34 6 16 1.225731290108291 1.570796326794897
2  35 11 32 1.225731290108291 1.570796326794897
2  36 11 33 1.225731290108291 1.570796326794897
2  37 12 34 1.225731290108291 1.570796326794897
2  38 12 35 1.225731290108291 1.570796326794897
2  39 4 17 1.225731290108291 1.570796326794897
2  40 4 36 1.225731290108291 1.570796326794897
2  41 4 37 1.225731290108291 1.570796326794897
0

0101000
+96 0 -89 0 *
Ed
 0.000000100000000 1 1 0
1  10 0 1.225731290108291 1.570796326794897
2  42 13 25 1.225731290108291 1.570796326794897
2  43 13 26 1.225731290108291 1.570796326794897
2  44 4 27 1.225731290108291 1.570796326794897
0

0101000
+91 29 -89 47 *
Ed
 0.000000100000000 1 1 0
1  10 0 1.225731290108291 1.570796326794897
2  45 14 41 1.225731290108291 1.570796326794897
2  46 14 42 1.225731290108291 1.570796326794897
2  47 4 45 1.225731290108291 1.570796326794897
0

0101000
+91 29 -89 47 *
Ve
0.000000100000619
-306.720400634081500 177.085105872037161 0.000000000000000
0 0

0101101
*
Ed
 0.000000100000000 1 1 0
1  5 0 0.523598775598299 0.564550988021803
2  48 15 41 0.523598775598299 0.564550988021803
2  49 15 42 0.523598775598299 0.564550988021803
2  50 16 43 0.523598775598299 0.564550988021803
2  51 16 44 0.523598775598299 0.564550988021803
2  52 4 45 0.523598775598299 0.564550988021803
2  53 4 46 0.523598775598299 0.564550988021803
0

0101000
+85 29 -101 29 *
Ed
 0.000000100000000 1 1 0
1  3 0 0.523598775598299 0.564550988021803
2  54 17 34 0.523598775598299 0.564550988021803
2  55 17 35 0.523598775598299 0.564550988021803
2  56 4 37 0.523598775598299 0.564550988021803
0

0101000
+85 50 -106 0 *
Ed
 0.000000100000000 1 1 0
1  3 0 0.523598775598299 0.564550988021803
2  57 18 32 0.523598775598299 0.564550988021803
2  58 18 33 0.523598775598299 0.564550988021803
2  59 4 36 0.523598775598299 0.564550988021803
0

0101000
+85 52 -106 0 *
Ed
 0.000000100000000 1 1 0
1  10 0 1.225731290108291 1.570796326794897
2  60 19 43 1.225731290108291 1.570796326794897
2  61 19 44 1.225731290108291 1.570796326794897
2  62 4 46 1.225731290108291 1.570796326794897
0

0101000
+91 29 -89 47 *
Wi

0101100
+104 39 -99 40 +94 39 -90 40 +88 39 -87 40 -86 48 +88 49 -90 48 +94 49 
-84 48 +83 49 +82 51 -84 53 +94 51 -90 53 +88 51 -81 53 *
Ve
0.000000100000000
-1.700000000000000 0.000000000000000 -0.000000000000000
0 0

0101101
*
Ed
 0.000000100000000 1 1 0
1  11 0 0.000000000000000 6.283185307179586
2  63 20 0 0.000000000000000 6.283185307179586
2  64 21 0 0.000000000000000 6.283185307179586
2  65 4 56 0.000000000000000 6.283185307179586
2  66 4 58 0.000000000000000 6.283185307179586
2  67 4 59 0.000000000000000 6.283185307179586
2  68 4 61 0.000000000000000 6.283185307179586
0

0101000
+79 0 -79 0 *
Wi

0101100
+78 54 *
Wi

0101100
+78 60 *
Wi

0101100
+78 57 *
Wi

0101100
+78 55 *
Fa
0  0.000000100000000 4 38

0101000
+80 0 +77 0 +76 0 +75 0 +74 0 *
Wi

0101100
+104 63 -99 64 +94 63 -90 64 +88 63 -87 64 -86 65 +88 66 -90 65 +94 66 
-84 65 +83 66 +82 67 -84 68 +94 67 -90 68 +88 67 -81 68 *
Ve
0.000000100000000
159.136112157986645 -76.261032158655922 3.000000000000000
0 0

0101101
*
Ed
 0.000000100000000 1 1 0
1  12 0 0.000000000000000 6.283185307179586
2  69 4 62 0.000000000000000 6.283185307179586
2  70 21 54 0.000000000000000 6.283185307179586
0

0101100
+71 0 -71 0 *
Wi

0101100
-70 0 *
Ve
0.000000100000000
172.220625057955232 35.466409170511618 3.000000000000000
0 0

0101101
*
Ed
 0.000000100000000 1 1 0
1  13 0 0.000000000000000 6.283185307179586
2  71 4 62 0.000000000000000 6.283185307179586
2  72 21 60 0.000000000000000 6.283185307179586
0

0101100
+68 0 -68 0 *
Wi

0101100
-67 0 *
Ve
0.000000100000000
12.674064910775602 177.418675054067563 3.000000000000000
0 0

0101101
*
Ed
 0.000000100000000 1 1 0
1  14 0 0.000000000000000 6.283185307179586
2  73 4 62 0.000000000000000 6.283185307179586
2  74 21 57 0.000000000000000 6.283185307179586
0

0101100
+65 0 -65 0 *
Wi

0101100
-64 0 *
Ve
0.000000100000000
115.975123851654317 132.886474957001582 3.000000000000000
0 0

0101101
*
Ed
 0.000000100000000 1 1 0
1  15 0 0.000000000000000 6.283185307179586
2  75 4 62 0.000000000000000 6.283185307179586
2  76 21 55 0.000000000000000 6.283185307179586
0

0101100
+62 0 -62 0 *
Wi

0101100
-61 0 *
Fa
0  0.000000100000000 4 62

0101000
+72 0 +69 0 +66 0 +63 0 +60 0 *
Ed
 0.000000100000080 1 1 0
1  16 0 0.000000000000000 3.000000000000000
2  77 13 0 0.000000000000000 3.000000000000000
2  78 5 0 0.000000000000000 3.000000000000000
4 G1 13 0 5 0
0

0101000
+91 22 -91 23 *
Wi

0101100
+100 0 -58 0 -90 24 +90 30 *
Fa
0  0.000000100000000 5 0

0111000
+57 0 *
Ed
 0.000000100000060 1 1 0
1  17 0 0.000000000000000 3.000000000000000
2  79 6 0 0.000000000000000 3.000000000000000
2  80 14 0 0.000000000000000 3.000000000000000
4 C2 6 0 14 0
0

0101000
+89 12 -89 14 *
Wi

0101100
+95 0 -55 0 -88 12 +88 14 *
Fa
0  0.000000100000000 6 0

0111000
+54 0 *
Ed
 0.000000100000060 1 1 0
1  18 0 0.000000000000000 3.000000000000000
2  81 12 0 0.000000000000000 3.000000000000000
2  82 13 0 0.000000000000000 3.000000000000000
4 C2 12 0 13 0
0

0101000
+89 69 -89 70 *
Wi

0101100
+58 0 -52 0 -87 24 +87 30 *
Fa
0  0.000000100000000 13 0

0111000
+51 0 *
Ed
 0.000000100000080 1 1 0
1  19 0 0.000000000000000 3.000000000000000
2  83 14 0 0.000000000000000 3.000000000000000
2  84 9 0 0.000000000000000 3.000000000000000
4 G1 14 0 9 0
0

0101000
+91 71 -91 72 *
Wi

0101100
+49 0 -55 0 -86 73 +86 74 *
Fa
0  0.000000100000000 14 0

0111000
+48 0 *
Ed
 0.000000100000080 1 1 0
1  20 0 0.000000000000000 3.000000000000000
2  85 8 0 0.000000000000000 3.000000000000000
2  86 12 0 0.000000000000000 3.000000000000000
4 G1 8 0 12 0
0

0101000
+96 69 -96 70 *
Wi

0101100
+46 0 -52 0 -88 69 +88 70 *
Fa
0  0.000000100000000 12 0

0111000
+45 0 *
Ed
 0.000000100000028 1 1 0
1  21 0 0.000000000000000 3.000000000000000
2  87 9 0 0.000000000000000 3.000000000000000
2  88 15 0 0.000000000000000 3.000000000000000
4 G1 9 0 15 0
0

0101000
+101 71 -101 72 *
Wi

0101100
+43 0 -49 0 -90 73 +90 74 *
Fa
0  0.000000100000000 9 0

0111000
+42 0 *
Ed
 0.000000100000028 1 1 0
1  22 0 0.000000000000000 3.000000000000000
2  89 17 0 0.000000000000000 3.000000000000000
2  90 8 0 0.000000000000000 3.000000000000000
4 G1 17 0 8 0
0

0101000
+106 69 -106 70 *
Wi

0101100
+40 0 -46 0 -94 69 +94 70 *
Fa
0  0.000000100000000 8 0

0111000
+39 0 *
Ed
 0.000000100000332 1 1 0
1  23 0 0.000000000000000 3.000000000000000
2  91 15 0 0.000000000000000 3.000000000000000
2  92 18 0 0.000000000000000 3.000000000000000
4 C2 15 0 18 0
0

0101000
+85 71 -85 72 *
Wi

0101100
+37 0 -43 0 -84 73 +84 74 *
Fa
0  0.000000100000000 15 0

0111000
+36 0 *
Ed
 0.000000100000332 1 1 0
1  24 0 0.000000000000000 3.000000000000000
2  93 16 0 0.000000000000000 3.000000000000000
2  94 17 0 0.000000000000000 3.000000000000000
4 C2 16 0 17 0
0

0101000
+85 75 -85 76 *
Wi

0101100
+34 0 -40 0 -83 69 +83 70 *
Fa
0  0.000000100000000 17 0

0111000
+33 0 *
Ed
 0.000000100000028 1 1 0
1  25 0 0.000000000000000 3.000000000000000
2  95 18 0 0.000000000000000 3.000000000000000
2  96 7 0 0.000000000000000 3.000000000000000
4 G1 18 0 7 0
0

0101000
+106 77 -106 78 *
Wi

0101100
+37 0 -31 0 -82 77 +82 78 *
Fa
0  0.000000100000000 18 0

0111000
+30 0 *
Ed
 0.000000100000028 1 1 0
1  26 0 0.000000000000000 3.000000000000000
2  97 10 0 0.000000000000000 3.000000000000000
2  98 16 0 0.000000000000000 3.000000000000000
4 G1 10 0 16 0
0

0101000
+101 75 -101 76 *
Wi

0101100
+34 0 -28 0 -84 79 +84 80 *
Fa
0  0.000000100000000 16 0

0111000
+27 0 *
Ed
 0.000000100000080 1 1 0
1  27 0 0.000000000000000 3.000000000000000
2  99 7 0 0.000000000000000 3.000000000000000
2  100 11 0 0.000000000000000 3.000000000000000
4 G1 7 0 11 0
0

0101000
+96 77 -96 78 *
Wi

0101100
+31 0 -25 0 -94 77 +94 78 *
Fa
0  0.000000100000000 7 0

0111000
+24 0 *
Ed
 0.000000100000080 1 1 0
1  28 0 0.000000000000000 3.000000000000000
2  101 19 0 0.000000000000000 3.000000000000000
2  102 10 0 0.000000000000000 3.000000000000000
4 G1 19 0 10 0
0

0101000
+91 75 -91 76 *
Wi

0101100
+28 0 -22 0 -90 79 +90 80 *
Fa
0  0.000000100000000 10 0

0111000
+21 0 *
Ed
 0.000000100000060 1 1 0
1  29 0 0.000000000000000 3.000000000000000
2  103 11 0 0.000000000000000 3.000000000000000
2  104 19 0 0.000000000000000 3.000000000000000
4 C2 11 0 19 0
0

0101000
+89 77 -89 78 *
Wi

0101100
+25 0 -19 0 -88 77 +88 78 *
Fa
0  0.000000100000000 11 0

0111000
+18 0 *
Wi

0101100
+22 0 -19 0 -81 79 +81 80 *
Fa
0  0.000000100000000 19 0

0111000
+16 0 *
Ed
 0.000000100000000 1 1 0
1  30 0 0.000000000000000 3.000000000000000
3  105 106CN 21 0 0.000000000000000 3.000000000000000
0

0101000
+79 0 -71 81 *
Wi

0101100
-14 54 +70 0 +14 54 +78 54 *
Fa
0  0.000000100000000 21 54

0111000
+13 0 *
Ed
 0.000000100000000 1 1 0
1  30 0 0.000000000000000 3.000000000000000
3  105 106CN 21 0 0.000000000000000 3.000000000000000
0

0101000
+79 0 -68 82 *
Wi

0101100
-11 60 +67 0 +11 60 +78 60 *
Fa
0  0.000000100000000 21 60

0111000
+10 0 *
Ed
 0.000000100000000 1 1 0
1  30 0 0.000000000000000 3.000000000000000
3  105 106CN 21 0 0.000000000000000 3.000000000000000
0

0101000
+79 0 -65 83 *
Wi

0101100
-8 57 +64 0 +8 57 +78 57 *
Fa
0  0.000000100000000 21 57

0111000
+7 0 *
Ed
 0.000000100000000 1 1 0
1  30 0 0.000000000000000 3.000000000000000
3  105 106CN 21 0 0.000000000000000 3.000000000000000
0

0101000
+79 0 -62 84 *
Wi

0101100
-5 55 +61 0 +5 55 +78 55 *
Fa
0  0.000000100000000 21 55

0111000
+4 0 *
Sh

0101100
-102 4 +97 4 -92 4 -73 0 +59 0 +56 4 -53 4 +50 4 +47 4 -44 4 
+41 4 -38 4 +35 4 -32 4 -29 4 +26 4 -23 4 +20 4 -17 4 +15 4 
+12 0 +9 0 +6 0 +3 0 *
So

0100000
+2 0 *

+1 1 