
CASCADE Topology V1, (c) Matra-Datavision
Locations 13
1
1.000000000000000 0.000000000000000 0.000000000000000 0.000000000000000 
0.000000000000000 1.000000000000000 0.000000000000000 0.000000000000000 
0.000000000000000 0.000000000000000 1.000000000000000 0.000000000000000 
1
1.000000000000000 0.000000000000000 0.000000000000000 100.000000000000000 
0.000000000000000 1.000000000000000 0.000000000000000 0.000000000000000 
0.000000000000000 0.000000000000000 1.000000000000000 0.000000000000000 
1
1.000000000000000 0.000000000000000 0.000000000000000 0.000000000000000 
0.000000000000000 1.000000000000000 0.000000000000000 0.000000000000000 
0.000000000000000 0.000000000000000 1.000000000000000 0.000000000000000 
1
1.000000000000000 0.000000000000000 -0.000000000000000 0.000000000000000 
-0.000000000000000 0.000000000000000 -1.000000000000000 0.000000000000000 
0.000000000000000 1.000000000000000 0.000000000000000 0.000000000000000 
1
1.000000000000000 0.000000000000000 0.000000000000000 0.000000000000000 
0.000000000000000 1.000000000000000 0.000000000000000 0.000000000000000 
0.000000000000000 0.000000000000000 1.000000000000000 0.000000000000000 
2  4 1 5 1 0
1
1.000000000000000 0.000000000000000 0.000000000000000 0.000000000000000 
0.000000000000000 1.000000000000000 0.000000000000000 0.000000000000000 
0.000000000000000 0.000000000000000 1.000000000000000 0.000000000000000 
2  7 -1 5 -1 4 -1 0
1
1.000000000000000 0.000000000000000 0.000000000000000 0.000000000000000 
0.000000000000000 1.000000000000000 0.000000000000000 0.000000000000000 
0.000000000000000 0.000000000000000 1.000000000000000 0.000000000000000 
2  9 1 3 1 0
2  7 -1 3 -1 9 -1 0
1
-0.500000000000000 -0.866025403784439 0.000000000000000 -49.999999999999979 
0.866025403784439 -0.500000000000000 0.000000000000000 86.602540378443877 
0.000000000000000 0.000000000000000 1.000000000000000 0.000000000000000 
1
-0.500000000000001 0.866025403784439 0.000000000000000 -50.000000000000036 
-0.866025403784439 -0.500000000000001 0.000000000000000 -86.602540378443834 
0.000000000000000 0.000000000000000 1.000000000000001 0.000000000000000 
Curve2ds 0
Curves 7
1 0.00000000000000000 0.00000000000000000 0.00000000000000000 1.00000000000000000 0.00000000000000000 0.00000000000000000 
1 57.73502691896256067 0.00000000000000000 0.00000000000000000 -0.93465529130606351 -0.35555518057479879 0.00000000000000000 
1 -16.24929927174455457 -28.14461192605354256 0.00000000000000000 0.49999999999999983 0.86602540378443882 0.00000000000000000 
1 0.00000000000000240 0.00000000000000228 0.00000000000000000 -0.49999999999999989 0.86602540378443882 0.00000000000000000 
1 -16.24929927174454747 28.14461192605353546 0.00000000000000000 0.93465529130606351 -0.35555518057479868 0.00000000000000000 
1 0.00000000000000000 -16.48912368805570949 0.00000000000000000 0.00000000000000000 1.00000000000000000 0.00000000000000000 
1 57.73502691896254646 0.00000000000000000 0.00000000000000000 -0.96155297028741438 -0.27461952831408565 0.00000000000000000 
Polygon3D 0
PolygonOnTriangulations 0
Surfaces 3
1 0.00000000000000240 0.00000000000000228 0.00000000000000000 0.00000000000000000 0.00000000000000000 1.00000000000000000 1.00000000000000000 0.00000000000000000 -0.00000000000000000 -0.00000000000000000 1.00000000000000000 0.00000000000000000 
1 0.00000000000000240 0.00000000000000228 0.00000000000000000 0.00000000000000000 0.00000000000000000 1.00000000000000000 1.00000000000000000 0.00000000000000000 -0.00000000000000000 -0.00000000000000000 1.00000000000000000 0.00000000000000000 
1 0.00000000000000000 0.00000000000000000 0.00000000000000000 0.00000000000000000 -1.00000000000000000 0.00000000000000022 0.00000000000000000 -0.00000000000000022 -1.00000000000000000 1.00000000000000000 0.00000000000000000 0.00000000000000000 
Triangulations 0

TShapes 20
Ve
0.000005773502694
0.000000000000001 0.000000000000001 0.000000000000000
0 0

0101101
*
Ve
0.000005773502698
57.735026918962568 0.000000000000000 0.000000000000000
0 0

0101101
*
Ed
 0.000005773502692 1 1 0
1  1 0 0.000000000000000 57.735026918962568
0

0101000
+20 8 -19 8 *
Ve
0.000005773502695
-16.249299271744537 -28.144611926053543 0.000000000000000
0 0

0101101
*
Ed
 0.000005773502692 1 1 0
1  2 0 0.000000000000000 79.156804523433621
0

0101000
+19 11 -17 11 *
Ed
 0.000005773502692 1 1 0
1  3 0 0.000000000000000 32.498598543489130
0

0101000
+17 11 -20 11 *
Wi

0101000
-18 6 -16 10 -15 10 *
Fa
0  0.000005773502692 1 3

0111000
+14 0 *
Ve
0.000005773502692
-16.249299271744537 28.144611926053543 0.000000000000000
0 0

0101101
*
Ed
 0.000005773502692 1 1 0
1  4 0 0.000000000000000 32.498598543489130
0

0101000
+20 11 -12 11 *
Ed
 0.000005773502692 1 1 0
1  5 0 0.000000000000000 79.156804523433621
0

0101000
+12 11 -19 11 *
Wi

0101000
-11 10 -10 10 +18 6 *
Fa
0  0.000005773502692 2 3

0111000
+9 0 *
Ve
0.000005773502692
0.000000000000000 -0.000000000000004 -16.489123688055709
0 0

0101101
*
Ed
 0.000005773502692 1 1 0
1  6 0 0.000000000000000 16.489123688055709
0

0101000
+7 8 -20 8 *
Ed
 0.000005773502692 1 1 0
1  7 0 0.000000000000000 60.043521993078912
0

0101000
+19 8 -7 8 *
Wi

0101000
-18 6 -6 6 -5 6 *
Fa
0  0.000005773502692 3 5

0111000
+4 0 *
Sh

0101000
+13 0 +8 0 +3 0 *
Co

1100000
+2 2 +2 12 +2 13 *

+1 1 