
CASCADE Topology V1, (c) Matra-Datavision
Locations 18
1
1.000000000000000 0.000000000000000 0.000000000000000 0.000000000000000 
0.000000000000000 1.000000000000000 0.000000000000000 0.000000000000000 
0.000000000000000 0.000000000000000 1.000000000000000 0.000000000000000 
1
-1.000000000000000 0.000000000000000 0.000000000000000 -27.800000000000001 
0.000000000000000 -1.000000000000000 0.000000000000000 -107.500000000000000 
0.000000000000000 0.000000000000000 1.000000000000000 0.000000000000000 
1
1.000000000000000 0.000000000000000 0.000000000000000 0.000000000000000 
0.000000000000000 1.000000000000000 0.000000000000000 0.000000000000000 
0.000000000000000 0.000000000000000 1.000000000000000 0.000000000000000 
1
1.000000000000000 0.000000000000000 -0.000000000000000 0.000000000000000 
-0.000000000000000 0.000000000000000 -1.000000000000000 0.000000000000000 
0.000000000000000 1.000000000000000 0.000000000000000 0.000000000000000 
1
1.000000000000000 0.000000000000000 0.000000000000000 0.000000000000000 
0.000000000000000 1.000000000000000 0.000000000000000 0.000000000000000 
0.000000000000000 0.000000000000000 1.000000000000000 0.000000000000000 
2  4 1 5 1 0
1
1.000000000000000 0.000000000000000 0.000000000000000 0.000000000000000 
0.000000000000000 1.000000000000000 0.000000000000000 0.000000000000000 
0.000000000000000 0.000000000000000 1.000000000000000 0.000000000000000 
2  7 -1 5 -1 4 -1 0
1
1.000000000000000 0.000000000000000 0.000000000000000 0.000000000000000 
0.000000000000000 1.000000000000000 0.000000000000000 0.000000000000000 
0.000000000000000 0.000000000000000 1.000000000000000 0.000000000000000 
2  9 1 3 1 0
2  7 -1 3 -1 9 -1 0
1
-1.000000000000000 0.000000000000000 0.000000000000000 -27.800000000000001 
0.000000000000000 -1.000000000000000 0.000000000000000 -42.500000000000000 
0.000000000000000 0.000000000000000 1.000000000000000 0.000000000000000 
1
-1.000000000000000 0.000000000000000 0.000000000000000 -27.800000000000001 
0.000000000000000 -1.000000000000000 0.000000000000000 42.500000000000000 
0.000000000000000 0.000000000000000 1.000000000000000 0.000000000000000 
1
-1.000000000000000 0.000000000000000 0.000000000000000 -27.800000000000001 
0.000000000000000 -1.000000000000000 0.000000000000000 107.500000000000000 
0.000000000000000 0.000000000000000 1.000000000000000 0.000000000000000 
1
1.000000000000000 0.000000000000000 0.000000000000000 27.800000000000001 
0.000000000000000 1.000000000000000 0.000000000000000 -107.500000000000000 
0.000000000000000 0.000000000000000 1.000000000000000 0.000000000000000 
1
1.000000000000000 0.000000000000000 0.000000000000000 27.800000000000001 
0.000000000000000 1.000000000000000 0.000000000000000 -42.500000000000000 
0.000000000000000 0.000000000000000 1.000000000000000 0.000000000000000 
1
1.000000000000000 0.000000000000000 0.000000000000000 27.800000000000001 
0.000000000000000 1.000000000000000 0.000000000000000 42.500000000000000 
0.000000000000000 0.000000000000000 1.000000000000000 0.000000000000000 
1
1.000000000000000 0.000000000000000 0.000000000000000 27.800000000000001 
0.000000000000000 1.000000000000000 0.000000000000000 107.500000000000000 
0.000000000000000 0.000000000000000 1.000000000000000 0.000000000000000 
Curve2ds 0
Curves 7
1 0.00000000000000000 0.00000000000000000 0.00000000000000000 1.00000000000000000 0.00000000000000000 0.00000000000000000 
1 40.75455443268982236 0.00000000000000000 0.00000000000000000 -0.93465529130606351 -0.35555518057479879 0.00000000000000000 
1 -11.47021118727279898 -19.86698854990143204 0.00000000000000000 0.49999999999999983 0.86602540378443882 0.00000000000000000 
1 0.00000000000000170 0.00000000000000161 0.00000000000000000 -0.49999999999999989 0.86602540378443882 0.00000000000000000 
1 -11.47021118727279543 19.86698854990142848 0.00000000000000000 0.93465529130606351 -0.35555518057479868 0.00000000000000000 
1 0.00000000000000000 -11.63950074597621587 0.00000000000000000 0.00000000000000000 1.00000000000000000 0.00000000000000000 
1 40.75455443268981526 0.00000000000000000 0.00000000000000000 -0.96155297028741438 -0.27461952831408565 0.00000000000000000 
Polygon3D 0
PolygonOnTriangulations 0
Surfaces 3
1 0.00000000000000170 0.00000000000000161 0.00000000000000000 0.00000000000000000 0.00000000000000000 1.00000000000000000 1.00000000000000000 0.00000000000000000 -0.00000000000000000 -0.00000000000000000 1.00000000000000000 0.00000000000000000 
1 0.00000000000000170 0.00000000000000161 0.00000000000000000 0.00000000000000000 0.00000000000000000 1.00000000000000000 1.00000000000000000 0.00000000000000000 -0.00000000000000000 -0.00000000000000000 1.00000000000000000 0.00000000000000000 
1 0.00000000000000000 0.00000000000000000 0.00000000000000000 0.00000000000000000 -1.00000000000000000 0.00000000000000022 0.00000000000000000 -0.00000000000000022 -1.00000000000000000 1.00000000000000000 0.00000000000000000 0.00000000000000000 
Triangulations 0

TShapes 20
Ve
0.000004075455445
0.000000000000001 0.000000000000001 0.000000000000000
0 0

0101101
*
Ve
0.000004075455448
40.754554432689829 0.000000000000000 0.000000000000000
0 0

0101101
*
Ed
 0.000004075455443 1 1 0
1  1 0 0.000000000000000 40.754554432689829
0

0101000
+20 8 -19 8 *
Ve
0.000004075455446
-11.470211187272787 -19.866988549901432 0.000000000000000
0 0

0101101
*
Ed
 0.000004075455443 1 1 0
1  2 0 0.000000000000000 55.875964225254606
0

0101000
+19 11 -17 11 *
Ed
 0.000004075455443 1 1 0
1  3 0 0.000000000000000 22.940422374545612
0

0101000
+17 11 -20 11 *
Wi

0101000
-18 6 -16 10 -15 10 *
Fa
0  0.000004075455443 1 3

0111000
+14 0 *
Ve
0.000004075455443
-11.470211187272787 19.866988549901432 0.000000000000000
0 0

0101101
*
Ed
 0.000004075455443 1 1 0
1  4 0 0.000000000000000 22.940422374545612
0

0101000
+20 11 -12 11 *
Ed
 0.000004075455443 1 1 0
1  5 0 0.000000000000000 55.875964225254606
0

0101000
+12 11 -19 11 *
Wi

0101000
-11 10 -10 10 +18 6 *
Fa
0  0.000004075455443 2 3

0111000
+9 0 *
Ve
0.000004075455443
0.000000000000000 -0.000000000000003 -11.639500745976216
0 0

0101101
*
Ed
 0.000004075455443 1 1 0
1  6 0 0.000000000000000 11.639500745976216
0

0101000
+7 8 -20 8 *
Ed
 0.000004075455443 1 1 0
1  7 0 0.000000000000000 42.384097072164558
0

0101000
+19 8 -7 8 *
Wi

0101000
-18 6 -6 6 -5 6 *
Fa
0  0.000004075455443 3 5

0111000
+4 0 *
Sh

0101000
+13 0 +8 0 +3 0 *
Co

1100000
+2 2 +2 12 +2 13 +2 14 +2 15 +2 16 +2 17 +2 18 *

+1 1 