
CASCADE Topology V1, (c) Matra-Datavision
Locations 62
1
1.000000000000000 0.000000000000000 0.000000000000000 0.000000000000000 
0.000000000000000 1.000000000000000 0.000000000000000 0.000000000000000 
0.000000000000000 0.000000000000000 1.000000000000000 0.000000000000000 
1
1.000000000000000 0.000000000000000 0.000000000000000 0.000000000000000 
0.000000000000000 1.000000000000000 0.000000000000000 0.000000000000000 
0.000000000000000 0.000000000000000 1.000000000000000 0.000000000000000 
1
1.000000000000000 0.000000000000000 0.000000000000000 0.000000000000000 
0.000000000000000 1.000000000000000 0.000000000000000 0.000000000000000 
0.000000000000000 0.000000000000000 1.000000000000000 0.000000000000000 
1
1.000000000000000 0.000000000000000 0.000000000000000 0.000000000000000 
0.000000000000000 1.000000000000000 0.000000000000000 0.000000000000000 
0.000000000000000 0.000000000000000 1.000000000000000 0.000000000000000 
1
1.000000000000000 0.000000000000000 0.000000000000000 0.000000000000000 
0.000000000000000 1.000000000000000 0.000000000000000 0.000000000000000 
0.000000000000000 0.000000000000000 1.000000000000000 0.000000000000000 
1
1.000000000000000 0.000000000000000 0.000000000000000 0.000000000000000 
0.000000000000000 1.000000000000000 0.000000000000000 0.000000000000000 
0.000000000000000 0.000000000000000 1.000000000000000 0.000000000000000 
1
1.000000000000000 0.000000000000000 0.000000000000000 0.000000000000000 
0.000000000000000 1.000000000000000 0.000000000000000 0.000000000000000 
0.000000000000000 0.000000000000000 1.000000000000000 0.000000000000000 
2  1 1 2 1 3 1 4 1 5 1 6 1 7 -1 0
1
1.000000000000000 0.000000000000000 0.000000000000000 0.000000000000000 
0.000000000000000 1.000000000000000 0.000000000000000 0.000000000000000 
0.000000000000000 0.000000000000000 1.000000000000000 3.000000000000000 
2  1 1 2 1 3 1 4 1 5 1 6 1 7 -1 9 1 0
2  7 1 6 -1 5 -1 4 -1 3 -1 2 -1 1 -1 0
2  9 -1 7 1 6 -1 5 -1 4 -1 3 -1 2 -1 1 -1 0
2  4 -1 3 -1 2 -1 1 -1 0
1
-0.500000000000001 -0.866025403784439 0.000000000000000 0.000000000000085 
0.866025403784439 -0.500000000000001 0.000000000000000 -0.000000000000028 
0.000000000000000 0.000000000000000 1.000000000000001 0.000000000000000 
2  7 1 6 -1 5 -1 4 -1 14 -1 2 -1 1 -1 0
2  9 -1 7 1 6 -1 5 -1 4 -1 14 -1 2 -1 1 -1 0
1
-0.500000000000000 0.866025403784439 0.000000000000000 0.000000000000021 
-0.866025403784439 -0.500000000000000 0.000000000000000 0.000000000000099 
0.000000000000000 0.000000000000000 1.000000000000000 0.000000000000000 
2  7 1 6 -1 5 -1 4 -1 17 -1 2 -1 1 -1 0
2  9 -1 7 1 6 -1 5 -1 4 -1 17 -1 2 -1 1 -1 0
2  4 -1 14 -1 2 -1 1 -1 0
2  4 -1 17 -1 2 -1 1 -1 0
1
1.000000000000000 0.000000000000000 0.000000000000000 0.000000000000000 
0.000000000000000 1.000000000000000 0.000000000000000 0.000000000000000 
0.000000000000000 0.000000000000000 1.000000000000000 0.000000000000000 
1
1.000000000000000 0.000000000000000 0.000000000000000 0.000000000000000 
0.000000000000000 1.000000000000000 0.000000000000000 0.000000000000000 
0.000000000000000 0.000000000000000 1.000000000000000 0.000000000000000 
1
1.000000000000000 0.000000000000000 0.000000000000000 0.000000000000000 
0.000000000000000 1.000000000000000 0.000000000000000 0.000000000000000 
0.000000000000000 0.000000000000000 1.000000000000000 0.000000000000000 
2  22 -1 23 1 24 1 3 1 4 1 5 1 6 1 7 -1 0
2  22 -1 23 1 24 1 3 1 4 1 5 1 6 1 7 -1 9 1 0
2  23 1 24 1 3 1 4 1 5 1 6 1 7 -1 0
2  7 1 6 -1 5 -1 4 -1 3 -1 24 -1 23 -1 0
2  9 -1 7 1 6 -1 5 -1 4 -1 3 -1 24 -1 23 -1 0
2  4 -1 3 -1 24 -1 23 -1 0
2  22 -1 0
2  1 1 2 1 24 -1 23 -1 0
2  23 1 24 1 3 1 4 1 5 1 6 1 7 -1 9 1 0
2  7 1 6 -1 5 -1 4 -1 14 -1 24 -1 23 -1 0
2  9 -1 7 1 6 -1 5 -1 4 -1 14 -1 24 -1 23 -1 0
2  7 1 6 -1 5 -1 4 -1 17 -1 24 -1 23 -1 0
2  9 -1 7 1 6 -1 5 -1 4 -1 17 -1 24 -1 23 -1 0
2  4 -1 14 -1 24 -1 23 -1 0
2  4 -1 17 -1 24 -1 23 -1 0
2  1 1 2 1 14 1 4 1 5 1 6 1 7 -1 0
2  1 1 2 1 14 1 4 1 5 1 6 1 7 -1 9 1 0
2  22 -1 23 1 24 1 3 1 14 -1 2 -1 1 -1 0
2  22 -1 23 1 24 1 14 1 4 1 5 1 6 1 7 -1 0
2  22 -1 23 1 24 1 14 1 4 1 5 1 6 1 7 -1 9 1 0
2  23 1 24 1 14 1 4 1 5 1 6 1 7 -1 0
2  23 1 24 1 14 1 4 1 5 1 6 1 7 -1 9 1 0
2  1 1 2 1 17 1 4 1 5 1 6 1 7 -1 0
2  1 1 2 1 17 1 4 1 5 1 6 1 7 -1 9 1 0
2  22 -1 23 1 24 1 14 1 17 -1 2 -1 1 -1 0
2  22 -1 23 1 24 1 17 1 4 1 5 1 6 1 7 -1 0
2  22 -1 23 1 24 1 17 1 4 1 5 1 6 1 7 -1 9 1 0
2  23 1 24 1 17 1 4 1 5 1 6 1 7 -1 0
2  23 1 24 1 17 1 4 1 5 1 6 1 7 -1 9 1 0
2  1 1 2 1 3 1 17 -1 24 -1 23 -1 0
2  5 1 6 1 7 -1 0
2  1 1 2 1 3 1 4 1 0
2  23 1 24 1 3 1 4 1 0
2  1 1 2 1 14 1 4 1 0
2  23 1 24 1 14 1 4 1 0
2  1 1 2 1 17 1 4 1 0
2  23 1 24 1 17 1 4 1 0
2  5 1 6 1 7 -1 9 1 0
Curve2ds 90
1 0.52359877559829882 0.00000000000000000 0.00000000000000000 -1.00000000000000000 
1 0.52359877559829882 0.00000000000000000 0.00000000000000000 -1.00000000000000000 
1 0.56455098802180270 0.00000000000000000 0.00000000000000000 -1.00000000000000000 
1 0.56455098802180304 0.00000000000000000 0.00000000000000000 -1.00000000000000000 
1 0.00000000000000000 0.00000000000000000 1.00000000000000000 0.00000000000000000 
1 0.00000000000000000 -3.00000000000000000 1.00000000000000000 0.00000000000000000 
2 -0.00000000000001316 0.00000000000002677 1.00000000000000000 0.00000000000000000 -0.00000000000000000 1.00000000000000000 354.17021174407386752
1 1.22573129010829063 0.00000000000000000 0.00000000000000000 -1.00000000000000000 
1 1.22573129010829085 0.00000000000000000 0.00000000000000000 -1.00000000000000000 
1 0.00000000000000000 0.00000000000000000 1.00000000000000000 0.00000000000000000 
1 0.00000000000000000 -3.00000000000000000 1.00000000000000000 0.00000000000000000 
1 0.00000000000000000 0.00000000000000000 1.00000000000000000 0.00000000000000000 
1 0.00000000000000000 -3.00000000000000000 1.00000000000000000 0.00000000000000000 
1 0.00000000000000000 0.00000000000000000 1.00000000000000000 0.00000000000000000 
1 0.00000000000000000 -3.00000000000000000 1.00000000000000000 0.00000000000000000 
2 255.70454913011639064 161.93962032611540280 1.00000000000000000 0.00000000000000000 -0.00000000000000000 1.00000000000000000 51.50000000000000000
2 -268.09609964668106841 140.47682524686908323 -0.50000000000000056 0.86602540378443837 -0.86602540378443837 -0.50000000000000056 51.50000000000002132
2 12.39155051656448769 -302.41644557298451446 -0.50000000000000033 -0.86602540378443860 0.86602540378443860 -0.50000000000000033 51.50000000000000000
1 1.57079632679489656 0.00000000000000000 0.00000000000000000 -1.00000000000000000 
1 1.57079632679489656 0.00000000000000000 0.00000000000000000 -1.00000000000000000 
1 0.00000000000000000 0.00000000000000000 1.00000000000000000 0.00000000000000000 
1 0.00000000000000000 -3.00000000000000000 1.00000000000000000 0.00000000000000000 
1 0.00000000000000000 0.00000000000000000 1.00000000000000000 0.00000000000000000 
1 0.00000000000000000 -3.00000000000000000 1.00000000000000000 0.00000000000000000 
1 0.00000000000000000 0.00000000000000000 1.00000000000000000 0.00000000000000000 
1 0.00000000000000000 -3.00000000000000000 1.00000000000000000 0.00000000000000000 
2 -0.00000000000001316 -549.44557738923845136 1.00000000000000000 0.00000000000000000 -0.00000000000000000 1.00000000000000000 807.44557738923845136
2 475.83382801608934187 274.72278869461956674 -0.50000000000000056 0.86602540378443837 -0.86602540378443837 -0.50000000000000056 807.44557738923867873
2 -475.83382801608922819 274.72278869461950990 -0.50000000000000033 -0.86602540378443860 0.86602540378443860 -0.50000000000000033 807.44557738923856505
1 1.22573129010829085 0.00000000000000000 0.00000000000000000 -1.00000000000000000 
1 1.22573129010829063 0.00000000000000000 0.00000000000000000 -1.00000000000000000 
1 0.00000000000000000 0.00000000000000000 1.00000000000000000 0.00000000000000000 
1 0.00000000000000000 -3.00000000000000000 1.00000000000000000 0.00000000000000000 
2 -0.00000000000001316 -549.44557738923845136 -1.00000000000000000 0.00000000000000000 0.00000000000000000 1.00000000000000000 807.44557738923845136
1 0.56455098802180304 0.00000000000000000 0.00000000000000000 -1.00000000000000000 
1 0.56455098802180270 0.00000000000000000 0.00000000000000000 -1.00000000000000000 
1 0.00000000000000000 0.00000000000000000 1.00000000000000000 0.00000000000000000 
1 0.00000000000000000 -3.00000000000000000 1.00000000000000000 0.00000000000000000 
1 0.00000000000000000 0.00000000000000000 1.00000000000000000 0.00000000000000000 
1 0.00000000000000000 -3.00000000000000000 1.00000000000000000 0.00000000000000000 
1 0.00000000000000000 0.00000000000000000 1.00000000000000000 0.00000000000000000 
1 0.00000000000000000 -3.00000000000000000 1.00000000000000000 0.00000000000000000 
2 -255.70454913011639064 161.93962032611540280 -1.00000000000000000 0.00000000000000000 0.00000000000000000 1.00000000000000000 51.50000000000000000
2 -12.39155051656429585 -302.41644557298468499 0.50000000000000056 -0.86602540378443837 -0.86602540378443837 -0.50000000000000056 51.50000000000000711
2 268.09609964668106841 140.47682524686925376 0.50000000000000033 0.86602540378443860 0.86602540378443860 -0.50000000000000033 51.49999999999999289
1 0.52359877559829882 0.00000000000000000 0.00000000000000000 -1.00000000000000000 
1 0.52359877559829882 0.00000000000000000 0.00000000000000000 -1.00000000000000000 
1 0.00000000000000000 0.00000000000000000 1.00000000000000000 0.00000000000000000 
1 0.00000000000000000 -3.00000000000000000 1.00000000000000000 0.00000000000000000 
1 0.00000000000000000 0.00000000000000000 1.00000000000000000 0.00000000000000000 
1 0.00000000000000000 -3.00000000000000000 1.00000000000000000 0.00000000000000000 
2 -0.00000000000001316 0.00000000000002677 -1.00000000000000000 0.00000000000000000 0.00000000000000000 1.00000000000000000 354.17021174407386752
2 0.00000000000007211 -0.00000000000000165 0.50000000000000056 -0.86602540378443837 -0.86602540378443837 -0.50000000000000056 354.17021174407392436
1 0.56455098802180270 0.00000000000000000 0.00000000000000000 -1.00000000000000000 
1 0.56455098802180304 0.00000000000000000 0.00000000000000000 -1.00000000000000000 
1 0.00000000000000000 0.00000000000000000 1.00000000000000000 0.00000000000000000 
1 0.00000000000000000 -3.00000000000000000 1.00000000000000000 0.00000000000000000 
2 0.00000000000007211 -0.00000000000000165 -0.50000000000000056 0.86602540378443837 -0.86602540378443837 -0.50000000000000056 354.17021174407392436
1 1.22573129010829063 0.00000000000000000 0.00000000000000000 -1.00000000000000000 
1 1.22573129010829085 0.00000000000000000 0.00000000000000000 -1.00000000000000000 
1 1.57079632679489656 0.00000000000000000 0.00000000000000000 -1.00000000000000000 
1 1.57079632679489656 0.00000000000000000 0.00000000000000000 -1.00000000000000000 
1 1.22573129010829085 0.00000000000000000 0.00000000000000000 -1.00000000000000000 
1 1.22573129010829063 0.00000000000000000 0.00000000000000000 -1.00000000000000000 
1 0.00000000000000000 0.00000000000000000 1.00000000000000000 0.00000000000000000 
1 0.00000000000000000 -3.00000000000000000 1.00000000000000000 0.00000000000000000 
2 475.83382801608934187 274.72278869461956674 0.50000000000000056 -0.86602540378443837 -0.86602540378443837 -0.50000000000000056 807.44557738923867873
1 0.56455098802180304 0.00000000000000000 0.00000000000000000 -1.00000000000000000 
1 0.56455098802180270 0.00000000000000000 0.00000000000000000 -1.00000000000000000 
1 0.52359877559829882 0.00000000000000000 0.00000000000000000 -1.00000000000000000 
1 0.52359877559829882 0.00000000000000000 0.00000000000000000 -1.00000000000000000 
1 0.56455098802180270 0.00000000000000000 0.00000000000000000 -1.00000000000000000 
1 0.56455098802180304 0.00000000000000000 0.00000000000000000 -1.00000000000000000 
1 0.00000000000000000 0.00000000000000000 1.00000000000000000 0.00000000000000000 
1 0.00000000000000000 -3.00000000000000000 1.00000000000000000 0.00000000000000000 
2 0.00000000000000816 0.00000000000012625 -0.50000000000000033 -0.86602540378443860 0.86602540378443860 -0.50000000000000033 354.17021174407386752
1 1.22573129010829063 0.00000000000000000 0.00000000000000000 -1.00000000000000000 
1 1.22573129010829085 0.00000000000000000 0.00000000000000000 -1.00000000000000000 
1 1.57079632679489656 0.00000000000000000 0.00000000000000000 -1.00000000000000000 
1 1.57079632679489656 0.00000000000000000 0.00000000000000000 -1.00000000000000000 
1 1.22573129010829085 0.00000000000000000 0.00000000000000000 -1.00000000000000000 
1 1.22573129010829063 0.00000000000000000 0.00000000000000000 -1.00000000000000000 
1 0.00000000000000000 0.00000000000000000 1.00000000000000000 0.00000000000000000 
1 0.00000000000000000 -3.00000000000000000 1.00000000000000000 0.00000000000000000 
2 -475.83382801608922819 274.72278869461950990 0.50000000000000033 0.86602540378443860 0.86602540378443860 -0.50000000000000033 807.44557738923845136
1 0.56455098802180304 0.00000000000000000 0.00000000000000000 -1.00000000000000000 
1 0.56455098802180270 0.00000000000000000 0.00000000000000000 -1.00000000000000000 
1 0.00000000000000000 0.00000000000000000 1.00000000000000000 0.00000000000000000 
1 0.00000000000000000 -3.00000000000000000 1.00000000000000000 0.00000000000000000 
2 0.00000000000000816 0.00000000000012625 0.50000000000000033 0.86602540378443860 0.86602540378443860 -0.50000000000000033 354.17021174407386752
Curves 24
1 306.72040063408178412 177.08510587203676323 0.00000000000000000 0.00000000000000000 0.00000000000000000 1.00000000000000000 
1 299.21323868472643426 189.49400170622564588 0.00000000000000000 0.00000000000000000 0.00000000000000000 1.00000000000000000 
2 0.00000000000000000 0.00000000000000000 0.00000000000000000 0.00000000000000000 0.00000000000000000 1.00000000000000000 1.00000000000000000 0.00000000000000000 -0.00000000000000000 -0.00000000000000000 1.00000000000000000 0.00000000000000000 354.17021174407386752
1 273.12482999964834107 210.40387328050036331 0.00000000000000000 0.00000000000000000 0.00000000000000000 1.00000000000000000 
2 255.70454913011639064 161.93962032611537438 0.00000000000000000 0.00000000000000000 0.00000000000000000 1.00000000000000000 1.00000000000000000 0.00000000000000000 -0.00000000000000000 -0.00000000000000000 1.00000000000000000 0.00000000000000000 51.50000000000000000
1 0.00000000000001154 258.00000000000011369 0.00000000000000000 0.00000000000000000 0.00000000000000000 1.00000000000000000 
2 0.00000000000000000 -549.44557738923845136 0.00000000000000000 0.00000000000000000 0.00000000000000000 1.00000000000000000 1.00000000000000000 0.00000000000000000 -0.00000000000000000 -0.00000000000000000 1.00000000000000000 0.00000000000000000 807.44557738923845136
1 -273.12482999964839792 210.40387328050039173 0.00000000000000000 0.00000000000000000 0.00000000000000000 1.00000000000000000 
2 0.00000000000000000 -549.44557738923845136 0.00000000000000000 0.00000000000000000 0.00000000000000000 -1.00000000000000000 -1.00000000000000000 -0.00000000000000000 -0.00000000000000000 -0.00000000000000000 1.00000000000000000 0.00000000000000000 807.44557738923845136
1 -299.21323868472643426 189.49400170622564588 0.00000000000000000 0.00000000000000000 0.00000000000000000 1.00000000000000000 
2 -255.70454913011639064 161.93962032611537438 0.00000000000000000 0.00000000000000000 0.00000000000000000 -1.00000000000000000 -1.00000000000000000 -0.00000000000000000 -0.00000000000000000 -0.00000000000000000 1.00000000000000000 0.00000000000000000 51.50000000000000000
1 -306.72040063408155675 177.08510587203701903 0.00000000000000000 0.00000000000000000 0.00000000000000000 1.00000000000000000 
2 0.00000000000000000 0.00000000000000000 0.00000000000000000 0.00000000000000000 0.00000000000000000 -1.00000000000000000 -1.00000000000000000 -0.00000000000000000 -0.00000000000000000 -0.00000000000000000 1.00000000000000000 0.00000000000000000 354.17021174407386752
1 -313.71323868472654794 164.37926499647682022 0.00000000000000000 0.00000000000000000 0.00000000000000000 1.00000000000000000 
1 -318.77751431537944882 131.33110454375125187 0.00000000000000000 0.00000000000000000 0.00000000000000000 1.00000000000000000 
1 -223.43455417638517702 -129.00000000000025580 0.00000000000000000 0.00000000000000000 0.00000000000000000 1.00000000000000000 
1 -45.65268431573074537 -341.73497782425204150 0.00000000000000000 0.00000000000000000 0.00000000000000000 1.00000000000000000 
1 -14.49999999999966249 -353.87326670270272189 0.00000000000000000 0.00000000000000000 0.00000000000000000 1.00000000000000000 
1 0.00000000000014211 -354.17021174407386752 0.00000000000000000 0.00000000000000000 0.00000000000000000 1.00000000000000000 
1 14.49999999999985079 -353.87326670270255136 0.00000000000000000 0.00000000000000000 0.00000000000000000 1.00000000000000000 
1 45.65268431573093011 -341.73497782425175728 0.00000000000000000 0.00000000000000000 0.00000000000000000 1.00000000000000000 
1 223.43455417638529070 -129.00000000000005684 0.00000000000000000 0.00000000000000000 0.00000000000000000 1.00000000000000000 
1 318.77751431537944882 131.33110454375150766 0.00000000000000000 0.00000000000000000 0.00000000000000000 1.00000000000000000 
1 313.71323868472649110 164.37926499647704759 0.00000000000000000 0.00000000000000000 0.00000000000000000 1.00000000000000000 
Polygon3D 0
PolygonOnTriangulations 0
Surfaces 19
2 0.00000000000000000 0.00000000000000000 0.00000000000000000 -0.00000000000000000 -0.00000000000000000 -1.00000000000000000 1.00000000000000000 0.00000000000000000 0.00000000000000000 -0.00000000000000000 1.00000000000000000 -0.00000000000000000 354.17021174407386752
2 0.00000000000002132 0.00000000000009948 0.00000000000000000 0.00000000000000000 -0.00000000000000000 -1.00000000000000000 0.50000000000000033 0.86602540378443860 0.00000000000000000 0.86602540378443860 -0.50000000000000033 0.00000000000000000 354.17021174407386752
2 255.70454913011639064 161.93962032611537438 0.00000000000000000 -0.00000000000000000 -0.00000000000000000 -1.00000000000000000 1.00000000000000000 0.00000000000000000 0.00000000000000000 -0.00000000000000000 1.00000000000000000 -0.00000000000000000 51.50000000000000000
1 0.00000000000001316 -0.00000000000002677 0.00000000000000000 0.00000000000000000 0.00000000000000000 1.00000000000000000 1.00000000000000000 0.00000000000000000 -0.00000000000000000 -0.00000000000000000 1.00000000000000000 0.00000000000000000 
2 0.00000000000000000 -549.44557738923845136 0.00000000000000000 -0.00000000000000000 -0.00000000000000000 -1.00000000000000000 1.00000000000000000 0.00000000000000000 0.00000000000000000 -0.00000000000000000 1.00000000000000000 -0.00000000000000000 807.44557738923845136
2 -268.09609964668106841 140.47682524686905481 0.00000000000000000 -0.00000000000000000 -0.00000000000000000 -1.00000000000000000 -0.50000000000000056 0.86602540378443837 0.00000000000000000 -0.86602540378443837 -0.50000000000000056 0.00000000000000000 51.50000000000001421
2 12.39155051656450013 -302.41644557298451446 0.00000000000000000 -0.00000000000000000 -0.00000000000000000 -1.00000000000000000 -0.50000000000000033 -0.86602540378443860 0.00000000000000000 0.86602540378443860 -0.50000000000000033 -0.00000000000000000 51.50000000000000000
2 0.00000000000000000 -549.44557738923845136 0.00000000000000000 0.00000000000000000 0.00000000000000000 -1.00000000000000000 -1.00000000000000000 -0.00000000000000000 -0.00000000000000000 -0.00000000000000000 1.00000000000000000 0.00000000000000000 807.44557738923845136
2 475.83382801608934187 274.72278869461956674 0.00000000000000000 -0.00000000000000000 -0.00000000000000000 -1.00000000000000000 -0.50000000000000056 0.86602540378443837 0.00000000000000000 -0.86602540378443837 -0.50000000000000056 0.00000000000000000 807.44557738923867873
2 -475.83382801608922819 274.72278869461950990 0.00000000000000000 -0.00000000000000000 -0.00000000000000000 -1.00000000000000000 -0.50000000000000033 -0.86602540378443860 0.00000000000000000 0.86602540378443860 -0.50000000000000033 -0.00000000000000000 807.44557738923845136
2 -255.70454913011639064 161.93962032611537438 0.00000000000000000 0.00000000000000000 0.00000000000000000 -1.00000000000000000 -1.00000000000000000 -0.00000000000000000 -0.00000000000000000 -0.00000000000000000 1.00000000000000000 0.00000000000000000 51.50000000000000000
2 0.00000000000000000 0.00000000000000000 0.00000000000000000 0.00000000000000000 0.00000000000000000 -1.00000000000000000 -1.00000000000000000 -0.00000000000000000 -0.00000000000000000 -0.00000000000000000 1.00000000000000000 0.00000000000000000 354.17021174407386752
2 -12.39155051656428341 -302.41644557298468499 0.00000000000000000 -0.00000000000000000 0.00000000000000000 -1.00000000000000000 0.50000000000000056 -0.86602540378443837 -0.00000000000000000 -0.86602540378443837 -0.50000000000000056 0.00000000000000000 51.50000000000001421
2 268.09609964668106841 140.47682524686922534 0.00000000000000000 0.00000000000000000 -0.00000000000000000 -1.00000000000000000 0.50000000000000033 0.86602540378443860 0.00000000000000000 0.86602540378443860 -0.50000000000000033 0.00000000000000000 51.50000000000000000
2 0.00000000000008527 -0.00000000000002842 0.00000000000000000 -0.00000000000000000 -0.00000000000000000 -1.00000000000000000 -0.50000000000000056 0.86602540378443837 0.00000000000000000 -0.86602540378443837 -0.50000000000000056 0.00000000000000000 354.17021174407392436
2 0.00000000000008527 -0.00000000000002842 0.00000000000000000 -0.00000000000000000 0.00000000000000000 -1.00000000000000000 0.50000000000000056 -0.86602540378443837 -0.00000000000000000 -0.86602540378443837 -0.50000000000000056 0.00000000000000000 354.17021174407392436
2 475.83382801608934187 274.72278869461956674 0.00000000000000000 -0.00000000000000000 0.00000000000000000 -1.00000000000000000 0.50000000000000056 -0.86602540378443837 -0.00000000000000000 -0.86602540378443837 -0.50000000000000056 0.00000000000000000 807.44557738923867873
2 0.00000000000002132 0.00000000000009948 0.00000000000000000 -0.00000000000000000 -0.00000000000000000 -1.00000000000000000 -0.50000000000000033 -0.86602540378443860 0.00000000000000000 0.86602540378443860 -0.50000000000000033 -0.00000000000000000 354.17021174407386752
2 -475.83382801608922819 274.72278869461950990 0.00000000000000000 0.00000000000000000 -0.00000000000000000 -1.00000000000000000 0.50000000000000033 0.86602540378443860 0.00000000000000000 0.86602540378443860 -0.50000000000000033 0.00000000000000000 807.44557738923845136
Triangulations 0

TShapes 76
Ve
0.000000100000619
306.720400634081898 177.085105872036706 0.000000000000000
0 0

0101101
*
Ed
 0.000000100000332 1 1 0
1  1 0 0.000000000000000 3.000000000000000
2  1 1 0 0.000000000000000 3.000000000000000
2  2 2 0 0.000000000000000 3.000000000000000
4 C2 1 0 2 0
0

0101000
+76 8 -76 10 *
Ve
0.000000100000028
299.213238684726434 189.494001706225646 0.000000000000000
0 0

0101101
*
Ed
 0.000000100000028 1 1 0
1  2 0 0.000000000000000 3.000000000000000
2  3 1 0 0.000000000000000 3.000000000000000
2  4 3 0 0.000000000000000 3.000000000000000
4 G1 1 0 3 0
0

0101000
+74 8 -74 10 *
Ed
 0.000000100000000 1 1 0
1  3 0 0.523598775598299 0.564550988021803
2  5 1 11 0.523598775598299 0.564550988021803
2  6 1 12 0.523598775598299 0.564550988021803
2  7 4 13 0.523598775598299 0.564550988021803
0

0101000
+76 0 -74 0 *
Wi

0101100
+75 0 -73 0 -72 8 +72 10 *
Fa
0  0.000000100000000 1 0

0111000
+71 0 *
Ve
0.000000100000080
273.124829999648341 210.403873280500363 0.000000000000000
0 0

0101101
*
Ed
 0.000000100000080 1 1 0
1  4 0 0.000000000000000 3.000000000000000
2  8 3 0 0.000000000000000 3.000000000000000
2  9 5 0 0.000000000000000 3.000000000000000
4 G1 3 0 5 0
0

0101000
+69 8 -69 10 *
Ed
 0.000000100000000 1 1 0
1  5 0 0.564550988021803 1.225731290108291
2  10 3 11 0.564550988021803 1.225731290108291
2  11 3 12 0.564550988021803 1.225731290108291
2  12 6 15 0.564550988021803 1.225731290108291
2  13 6 16 0.564550988021803 1.225731290108291
2  14 7 18 0.564550988021803 1.225731290108291
2  15 7 19 0.564550988021803 1.225731290108291
2  16 4 13 0.564550988021803 1.225731290108291
2  17 4 20 0.564550988021803 1.225731290108291
2  18 4 21 0.564550988021803 1.225731290108291
0

0101000
+74 0 -69 0 *
Wi

0101100
+73 0 -68 0 -67 8 +67 10 *
Fa
0  0.000000100000000 3 0

0111000
+66 0 *
Ve
0.000000100000130
0.000000000000012 258.000000000000227 0.000000000000000
0 0

0101101
*
Ed
 0.000000100000060 1 1 0
1  6 0 0.000000000000000 3.000000000000000
2  19 5 0 0.000000000000000 3.000000000000000
2  20 8 0 0.000000000000000 3.000000000000000
4 C2 5 0 8 0
0

0101000
+64 8 -64 10 *
Ed
 0.000000100000000 1 1 0
1  7 0 1.225731290108291 1.570796326794897
2  21 5 11 1.225731290108291 1.570796326794897
2  22 5 12 1.225731290108291 1.570796326794897
2  23 9 15 1.225731290108291 1.570796326794897
2  24 9 16 1.225731290108291 1.570796326794897
2  25 10 18 1.225731290108291 1.570796326794897
2  26 10 19 1.225731290108291 1.570796326794897
2  27 4 13 1.225731290108291 1.570796326794897
2  28 4 20 1.225731290108291 1.570796326794897
2  29 4 21 1.225731290108291 1.570796326794897
0

0101000
+69 0 -64 0 *
Wi

0101100
+68 0 -63 0 -62 8 +62 10 *
Fa
0  0.000000100000000 5 0

0111000
+61 0 *
Ve
0.000000100000080
-273.124829999648455 210.403873280500335 0.000000000000000
0 0

0101101
*
Ed
 0.000000100000080 1 1 0
1  8 0 0.000000000000000 3.000000000000000
2  30 8 0 0.000000000000000 3.000000000000000
2  31 11 0 0.000000000000000 3.000000000000000
4 G1 8 0 11 0
0

0101000
+59 25 -59 26 *
Ed
 0.000000100000000 1 1 0
1  9 0 1.225731290108291 1.570796326794897
2  32 8 28 1.225731290108291 1.570796326794897
2  33 8 29 1.225731290108291 1.570796326794897
2  34 4 30 1.225731290108291 1.570796326794897
0

0101000
+59 31 -64 32 *
Wi

0101100
+58 0 -63 0 -57 27 +57 33 *
Fa
0  0.000000100000000 8 0

0111000
+56 0 *
Ve
0.000000100000028
-299.213238684726434 189.494001706225646 0.000000000000000
0 0

0101101
*
Ed
 0.000000100000028 1 1 0
1  10 0 0.000000000000000 3.000000000000000
2  35 11 0 0.000000000000000 3.000000000000000
2  36 12 0 0.000000000000000 3.000000000000000
4 G1 11 0 12 0
0

0101000
+54 25 -54 26 *
Ed
 0.000000100000000 1 1 0
1  11 0 0.564550988021803 1.225731290108291
2  37 11 28 0.564550988021803 1.225731290108291
2  38 11 29 0.564550988021803 1.225731290108291
2  39 13 34 0.564550988021803 1.225731290108291
2  40 13 35 0.564550988021803 1.225731290108291
2  41 14 36 0.564550988021803 1.225731290108291
2  42 14 37 0.564550988021803 1.225731290108291
2  43 4 30 0.564550988021803 1.225731290108291
2  44 4 38 0.564550988021803 1.225731290108291
2  45 4 39 0.564550988021803 1.225731290108291
0

0101000
+54 31 -59 31 *
Wi

0101100
+53 0 -58 0 -52 27 +52 33 *
Fa
0  0.000000100000000 11 0

0111000
+51 0 *
Ve
0.000000100000619
-306.720400634081500 177.085105872037161 0.000000000000000
0 0

0101101
*
Ed
 0.000000100000332 1 1 0
1  12 0 0.000000000000000 3.000000000000000
2  46 12 0 0.000000000000000 3.000000000000000
2  47 15 0 0.000000000000000 3.000000000000000
4 C2 12 0 15 0
0

0101000
+49 25 -49 26 *
Ed
 0.000000100000000 1 1 0
1  13 0 0.523598775598299 0.564550988021803
2  48 12 28 0.523598775598299 0.564550988021803
2  49 12 29 0.523598775598299 0.564550988021803
2  50 16 34 0.523598775598299 0.564550988021803
2  51 16 35 0.523598775598299 0.564550988021803
2  52 4 30 0.523598775598299 0.564550988021803
2  53 4 38 0.523598775598299 0.564550988021803
0

0101000
+49 31 -54 31 *
Wi

0101100
+48 0 -53 0 -47 27 +47 33 *
Fa
0  0.000000100000000 12 0

0111000
+46 0 *
Ed
 0.000000100000028 1 1 0
1  14 0 0.000000000000000 3.000000000000000
2  54 15 0 0.000000000000000 3.000000000000000
2  55 6 0 0.000000000000000 3.000000000000000
4 G1 15 0 6 0
0

0101000
+74 40 -74 41 *
Ed
 0.000000100000000 1 1 0
1  3 0 0.523598775598299 0.564550988021803
2  56 15 15 0.523598775598299 0.564550988021803
2  57 15 16 0.523598775598299 0.564550988021803
2  58 4 20 0.523598775598299 0.564550988021803
0

0101000
+49 42 -74 0 *
Wi

0101100
+48 0 -44 0 -43 40 +43 41 *
Fa
0  0.000000100000000 15 0

0111000
+42 0 *
Ed
 0.000000100000080 1 1 0
1  15 0 0.000000000000000 3.000000000000000
2  59 6 0 0.000000000000000 3.000000000000000
2  60 9 0 0.000000000000000 3.000000000000000
4 G1 6 0 9 0
0

0101000
+69 40 -69 41 *
Wi

0101100
+44 0 -40 0 -67 40 +67 41 *
Fa
0  0.000000100000000 6 0

0111000
+39 0 *
Ed
 0.000000100000060 1 1 0
1  16 0 0.000000000000000 3.000000000000000
2  61 9 0 0.000000000000000 3.000000000000000
2  62 17 0 0.000000000000000 3.000000000000000
4 C2 9 0 17 0
0

0101000
+64 40 -64 41 *
Wi

0101100
+40 0 -37 0 -62 40 +62 41 *
Fa
0  0.000000100000000 9 0

0111000
+36 0 *
Ed
 0.000000100000080 1 1 0
1  17 0 0.000000000000000 3.000000000000000
2  63 17 0 0.000000000000000 3.000000000000000
2  64 13 0 0.000000000000000 3.000000000000000
4 G1 17 0 13 0
0

0101000
+59 43 -59 44 *
Ed
 0.000000100000000 1 1 0
1  9 0 1.225731290108291 1.570796326794897
2  65 17 34 1.225731290108291 1.570796326794897
2  66 17 35 1.225731290108291 1.570796326794897
2  67 4 38 1.225731290108291 1.570796326794897
0

0101000
+59 31 -64 32 *
Wi

0101100
+34 0 -37 0 -33 45 +33 46 *
Fa
0  0.000000100000000 17 0

0111000
+32 0 *
Ed
 0.000000100000028 1 1 0
1  18 0 0.000000000000000 3.000000000000000
2  68 13 0 0.000000000000000 3.000000000000000
2  69 16 0 0.000000000000000 3.000000000000000
4 G1 13 0 16 0
0

0101000
+54 43 -54 44 *
Wi

0101100
+30 0 -34 0 -52 45 +52 46 *
Fa
0  0.000000100000000 13 0

0111000
+29 0 *
Ed
 0.000000100000332 1 1 0
1  19 0 0.000000000000000 3.000000000000000
2  70 16 0 0.000000000000000 3.000000000000000
2  71 18 0 0.000000000000000 3.000000000000000
4 C2 16 0 18 0
0

0101000
+49 43 -49 44 *
Wi

0101100
+27 0 -30 0 -47 45 +47 46 *
Fa
0  0.000000100000000 16 0

0111000
+26 0 *
Ed
 0.000000100000028 1 1 0
1  20 0 0.000000000000000 3.000000000000000
2  72 18 0 0.000000000000000 3.000000000000000
2  73 7 0 0.000000000000000 3.000000000000000
4 G1 18 0 7 0
0

0101000
+74 47 -74 48 *
Ed
 0.000000100000000 1 1 0
1  3 0 0.523598775598299 0.564550988021803
2  74 18 18 0.523598775598299 0.564550988021803
2  75 18 19 0.523598775598299 0.564550988021803
2  76 4 21 0.523598775598299 0.564550988021803
0

0101000
+49 49 -74 0 *
Wi

0101100
+27 0 -24 0 -23 47 +23 48 *
Fa
0  0.000000100000000 18 0

0111000
+22 0 *
Ed
 0.000000100000080 1 1 0
1  21 0 0.000000000000000 3.000000000000000
2  77 7 0 0.000000000000000 3.000000000000000
2  78 10 0 0.000000000000000 3.000000000000000
4 G1 7 0 10 0
0

0101000
+69 47 -69 48 *
Wi

0101100
+24 0 -20 0 -67 47 +67 48 *
Fa
0  0.000000100000000 7 0

0111000
+19 0 *
Ed
 0.000000100000060 1 1 0
1  22 0 0.000000000000000 3.000000000000000
2  79 10 0 0.000000000000000 3.000000000000000
2  80 19 0 0.000000000000000 3.000000000000000
4 C2 10 0 19 0
0

0101000
+64 47 -64 48 *
Wi

0101100
+20 0 -17 0 -62 47 +62 48 *
Fa
0  0.000000100000000 10 0

0111000
+16 0 *
Ed
 0.000000100000080 1 1 0
1  23 0 0.000000000000000 3.000000000000000
2  81 19 0 0.000000000000000 3.000000000000000
2  82 14 0 0.000000000000000 3.000000000000000
4 G1 19 0 14 0
0

0101000
+59 50 -59 51 *
Ed
 0.000000100000000 1 1 0
1  9 0 1.225731290108291 1.570796326794897
2  83 19 36 1.225731290108291 1.570796326794897
2  84 19 37 1.225731290108291 1.570796326794897
2  85 4 39 1.225731290108291 1.570796326794897
0

0101000
+59 31 -64 32 *
Wi

0101100
+14 0 -17 0 -13 52 +13 53 *
Fa
0  0.000000100000000 19 0

0111000
+12 0 *
Ed
 0.000000100000028 1 1 0
1  24 0 0.000000000000000 3.000000000000000
2  86 14 0 0.000000000000000 3.000000000000000
2  87 2 0 0.000000000000000 3.000000000000000
4 G1 14 0 2 0
0

0101000
+54 50 -54 51 *
Wi

0101100
+10 0 -14 0 -52 52 +52 53 *
Fa
0  0.000000100000000 14 0

0111000
+9 0 *
Ed
 0.000000100000000 1 1 0
1  13 0 0.523598775598299 0.564550988021803
2  88 2 36 0.523598775598299 0.564550988021803
2  89 2 37 0.523598775598299 0.564550988021803
2  90 4 39 0.523598775598299 0.564550988021803
0

0101000
+76 54 -54 31 *
Wi

0101100
+75 0 -10 0 -7 52 +7 53 *
Fa
0  0.000000100000000 2 0

0111000
+6 0 *
Wi

0101100
+72 56 +67 56 +62 56 -57 57 -52 57 -47 57 +43 58 +67 58 +62 58 -33 59 
-52 59 -47 59 +23 60 +67 60 +62 60 -13 61 -52 61 -7 61 *
Fa
0  0.000000100000000 4 0

0111000
+4 0 *
Sh

0101100
+70 0 +65 0 +60 0 -55 0 -50 0 -45 0 +41 0 +38 0 +35 0 -31 0 
-28 0 -25 0 +21 0 +18 0 +15 0 -11 0 -8 0 -5 0 +3 55 -3 62 
*
So

1100000
-2 0 *

+1 0 