
CASCADE Topology V1, (c) Matra-Datavision
Locations 34
1
1.000000000000000 0.000000000000000 0.000000000000000 0.000000000000000 
0.000000000000000 0.993288078374917 -0.115666734017457 -0.057833367008729 
0.000000000000000 0.115666734017457 0.993288078374917 0.496644039187458 
1
1.000000000000000 0.000000000000000 0.000000000000000 0.000000000000000 
0.000000000000000 1.000000000000000 0.000000000000000 0.000000000000000 
0.000000000000000 0.000000000000000 1.000000000000000 0.000000000000000 
1
1.000000000000000 0.000000000000000 0.000000000000000 0.000000000000000 
0.000000000000000 1.000000000000000 0.000000000000000 0.000000000000000 
0.000000000000000 0.000000000000000 1.000000000000000 0.000000000000000 
2  2 1 3 -1 0
1
1.000000000000000 0.000000000000000 0.000000000000000 0.000000000000000 
0.000000000000000 1.000000000000000 0.000000000000000 0.000000000000000 
0.000000000000000 0.000000000000000 1.000000000000000 0.000000000000000 
2  5 -1 3 1 2 -1 0
1
1.000000000000000 0.000000000000000 0.000000000000000 0.000000000000000 
0.000000000000000 1.000000000000000 0.000000000000000 0.000000000000000 
0.000000000000000 0.000000000000000 1.000000000000000 0.000000000000000 
1
1.000000000000000 0.000000000000000 0.000000000000000 0.000000000000000 
0.000000000000000 1.000000000000000 0.000000000000000 0.000000000000000 
0.000000000000000 0.000000000000000 1.000000000000000 0.000000000000000 
1
1.000000000000000 0.000000000000000 0.000000000000000 0.000000000000000 
0.000000000000000 1.000000000000000 0.000000000000000 0.000000000000000 
0.000000000000000 0.000000000000000 1.000000000000000 0.000000000000000 
1
1.000000000000000 0.000000000000000 0.000000000000000 0.000000000000000 
0.000000000000000 1.000000000000000 0.000000000000000 0.000000000000000 
0.000000000000000 0.000000000000000 1.000000000000000 0.000000000000000 
1
1.000000000000000 0.000000000000000 0.000000000000000 0.000000000000000 
0.000000000000000 1.000000000000000 0.000000000000000 0.000000000000000 
0.000000000000000 0.000000000000000 1.000000000000000 0.000000000000000 
1
1.000000000000000 0.000000000000000 0.000000000000000 0.000000000000000 
0.000000000000000 1.000000000000000 0.000000000000000 0.000000000000000 
0.000000000000000 0.000000000000000 1.000000000000000 0.000000000000000 
2  7 1 8 1 9 1 10 1 11 1 12 -1 0
2  12 1 11 -1 10 -1 9 -1 8 -1 7 -1 0
2  5 -1 3 1 2 -1 12 1 11 -1 10 -1 9 -1 8 -1 7 -1 0
1
1.000000000000000 0.000000000000000 0.000000000000000 0.000000000000000 
0.000000000000000 1.000000000000000 0.000000000000000 0.000000000000000 
0.000000000000000 0.000000000000000 1.000000000000000 3.000000000000000 
2  7 1 8 1 9 1 10 1 11 1 12 -1 16 1 0
2  16 -1 12 1 11 -1 10 -1 9 -1 8 -1 7 -1 0
2  5 -1 3 1 2 -1 16 -1 12 1 11 -1 10 -1 9 -1 8 -1 7 -1 0
1
1.000000000000000 0.000000000000000 0.000000000000000 0.000000000000000 
0.000000000000000 1.000000000000000 0.000000000000000 0.000000000000000 
0.000000000000000 0.000000000000000 1.000000000000000 0.000000000000000 
1
1.000000000000000 0.000000000000000 0.000000000000000 0.000000000000000 
0.000000000000000 1.000000000000000 0.000000000000000 0.000000000000000 
0.000000000000000 0.000000000000000 1.000000000000000 0.000000000000000 
2  20 1 21 1 9 1 10 1 11 1 12 -1 16 1 0
2  16 -1 12 1 11 -1 10 -1 9 -1 21 -1 20 -1 0
2  5 -1 3 1 2 -1 16 -1 12 1 11 -1 10 -1 9 -1 21 -1 20 -1 0
2  20 1 21 1 9 1 10 1 11 1 12 -1 0
2  12 1 11 -1 10 -1 9 -1 21 -1 20 -1 0
2  5 -1 3 1 2 -1 12 1 11 -1 10 -1 9 -1 21 -1 20 -1 0
2  10 1 11 1 12 -1 2 1 3 -1 0
2  7 1 8 1 9 1 10 1 11 1 12 -1 2 1 3 -1 0
2  20 1 21 1 9 1 10 1 11 1 12 -1 2 1 3 -1 0
2  5 -1 0
2  10 1 11 1 12 -1 16 1 2 1 3 -1 0
2  7 1 8 1 9 1 10 1 11 1 12 -1 16 1 2 1 3 -1 0
2  20 1 21 1 9 1 10 1 11 1 12 -1 16 1 2 1 3 -1 0
Curve2ds 60
1 0.98887274094562605 0.00000000000000000 0.00000000000000000 -1.00000000000000000 
1 4.13046539453539285 0.00000000000000000 0.00000000000000000 -1.00000000000000000 
1 1.26270247728702500 0.00000000000000000 0.00000000000000000 -1.00000000000000000 
1 1.26270247728702500 0.00000000000000000 0.00000000000000000 -1.00000000000000000 
1 0.00000000000000000 0.00000000000000000 1.00000000000000000 0.00000000000000000 
1 0.00000000000000000 -3.00000000000000000 1.00000000000000000 0.00000000000000000 
1 5.24799983371013656 0.00000000000000000 0.00000000000000000 -1.00000000000000000 
1 0.00000000000000000 0.00000000000000000 1.00000000000000000 0.00000000000000000 
1 0.00000000000000000 -3.00000000000000000 1.00000000000000000 0.00000000000000000 
1 3.14159265358980289 -3.00000000000000000 -1.00000000000000000 0.00000000000000000 
1 1.87889017630277766 0.00000000000000000 0.00000000000000000 -1.00000000000000000 
1 1.26270247728702500 0.00000000000000000 0.00000000000000000 -1.00000000000000000 
1 3.14159265358980289 0.00000000000000000 -1.00000000000000000 0.00000000000000000 
1 0.00000000000000000 0.00000000000000000 1.00000000000000000 0.00000000000000000 
1 0.00000000000000000 -3.00000000000000000 1.00000000000000000 0.00000000000000000 
1 0.00000000000000000 0.00000000000000000 1.00000000000000000 0.00000000000000000 
1 0.00000000000000000 0.00000000000000000 1.00000000000000000 0.00000000000000000 
1 0.00000000000000000 0.00000000000000000 1.00000000000000000 0.00000000000000000 
1 0.00000000000000000 0.00000000000000000 1.00000000000000000 0.00000000000000000 
1 0.00000000000000000 0.00000000000000000 1.00000000000000000 0.00000000000000000 
1 0.00000000000000000 0.00000000000000000 1.00000000000000000 0.00000000000000000 
1 0.00000000000000000 0.00000000000000000 1.00000000000000000 0.00000000000000000 
1 3.14159265358980244 0.00000000000000000 -1.00000000000000000 -0.00000000000000000 
1 6.28318530717958623 -600.10963992070423956 -1.00000000000000000 0.00000000000000000 
1 0.00000000000000000 -600.10963992070423956 1.00000000000000000 0.00000000000000000 
1 6.28318530717958623 -600.10963992070423956 -1.00000000000000000 0.00000000000000000 
1 0.00000000000000000 -600.10963992070423956 1.00000000000000000 0.00000000000000000 
1 0.00000000000000000 -3.00000000000000000 1.00000000000000000 0.00000000000000000 
1 0.00000000000000000 -3.00000000000000000 1.00000000000000000 0.00000000000000000 
1 0.00000000000000000 -3.00000000000000000 1.00000000000000000 0.00000000000000000 
1 0.00000000000000000 -3.00000000000000000 1.00000000000000000 0.00000000000000000 
1 0.00000000000000000 -3.00000000000000000 1.00000000000000000 0.00000000000000000 
1 0.00000000000000000 -3.00000000000000000 1.00000000000000000 0.00000000000000000 
1 0.00000000000000000 -3.00000000000000000 1.00000000000000000 0.00000000000000000 
1 3.14159265358980244 -3.00000000000000000 -1.00000000000000000 0.00000000000000000 
1 6.28318530717958623 -597.10963992070423956 -1.00000000000000000 0.00000000000000000 
1 0.00000000000000000 -597.10963992070423956 1.00000000000000000 0.00000000000000000 
1 6.28318530717958623 -597.10963992070423956 -1.00000000000000000 0.00000000000000000 
1 0.00000000000000000 -597.10963992070423956 1.00000000000000000 0.00000000000000000 
1 5.24799983371014012 0.00000000000000000 0.00000000000000000 -1.00000000000000000 
1 0.98887274094562605 0.00000000000000000 0.00000000000000000 -1.00000000000000000 
1 4.13046539453539285 0.00000000000000000 0.00000000000000000 -1.00000000000000000 
1 5.24799983371013656 0.00000000000000000 0.00000000000000000 -1.00000000000000000 
1 6.85516781566566369 0.00000000000000000 0.00000000000000000 -1.00000000000000000 
1 0.57198250848607457 0.00000000000000000 0.00000000000000000 -1.00000000000000000 
1 5.24799983371014012 0.00000000000000000 0.00000000000000000 -1.00000000000000000 
1 1.26270247728702545 0.00000000000000000 0.00000000000000000 -1.00000000000000000 
1 1.26270247728702500 0.00000000000000000 0.00000000000000000 -1.00000000000000000 
1 6.85516781566566369 0.00000000000000000 0.00000000000000000 -1.00000000000000000 
1 0.57198250848607457 0.00000000000000000 0.00000000000000000 -1.00000000000000000 
1 1.87889017630277744 0.00000000000000000 0.00000000000000000 -1.00000000000000000 
1 1.26270247728702545 0.00000000000000000 0.00000000000000000 -1.00000000000000000 
1 0.00000000000000000 0.00000000000000000 0.00000000000000000 -1.00000000000000000 
1 6.28318530717958623 0.00000000000000000 0.00000000000000000 -1.00000000000000000 
1 0.00000000000000000 0.00000000000000000 0.00000000000000000 -1.00000000000000000 
1 6.28318530717958623 0.00000000000000000 0.00000000000000000 -1.00000000000000000 
1 0.00000000000000000 0.00000000000000000 0.00000000000000000 -1.00000000000000000 
1 6.28318530717958623 0.00000000000000000 0.00000000000000000 -1.00000000000000000 
1 0.00000000000000000 0.00000000000000000 0.00000000000000000 -1.00000000000000000 
1 6.28318530717958623 0.00000000000000000 0.00000000000000000 -1.00000000000000000 
Curves 52
1 289.40507926662701266 172.45446875900108807 0.00000000000000000 0.00000000000000000 0.00000000000000000 1.00000000000000000 
1 259.53430246658956548 186.70025629416872448 0.00000000000000000 0.00000000000000000 0.00000000000000000 1.00000000000000000 
2 222.77092133968457688 71.17462230860432726 0.00000000000000000 0.00000000000000000 0.00000000000000000 1.00000000000000000 1.00000000000000000 0.00000000000000000 -0.00000000000000000 -0.00000000000000000 1.00000000000000000 0.00000000000000000 121.23414659100239987
2 222.77092133968457688 71.17462230860432726 0.00000000000000000 0.00000000000000000 0.00000000000000000 1.00000000000000000 1.00000000000000000 0.00000000000000000 -0.00000000000000000 -0.00000000000000000 1.00000000000000000 0.00000000000000000 121.23414659100239987
1 290.20007804551448771 172.43605618493484144 0.00000000000000000 0.00000000000000000 0.00000000000000000 1.00000000000000000 
2 289.81730321384384297 173.08102395795881989 0.00000000000000000 0.00000000000000000 0.00000000000000000 1.00000000000000000 1.00000000000000000 0.00000000000000000 -0.00000000000000000 -0.00000000000000000 1.00000000000000000 0.00000000000000000 0.75000000000000000
2 289.81730321384384297 173.08102395795881989 0.00000000000000000 0.00000000000000000 0.00000000000000000 1.00000000000000000 1.00000000000000000 0.00000000000000000 -0.00000000000000000 -0.00000000000000000 1.00000000000000000 0.00000000000000000 0.75000000000000000
2 -0.00000000000419482 -628.86305465251643909 0.00000000000000000 0.00000000000000000 0.00000000000000000 -1.00000000000000000 -1.00000000000000000 -0.00000000000000000 -0.00000000000000000 -0.00000000000000000 1.00000000000000000 0.00000000000000000 855.86305465251655278
1 -259.53430246658956548 186.70025629416872448 0.00000000000000000 0.00000000000000000 0.00000000000000000 1.00000000000000000 
2 -0.00000000000419482 -628.86305465251643909 0.00000000000000000 0.00000000000000000 0.00000000000000000 -1.00000000000000000 -1.00000000000000000 -0.00000000000000000 -0.00000000000000000 -0.00000000000000000 1.00000000000000000 0.00000000000000000 855.86305465251655278
2 0.00000000000419482 -628.86305465251643909 0.00000000000000000 0.00000000000000000 0.00000000000000000 1.00000000000000000 1.00000000000000000 0.00000000000000000 -0.00000000000000000 -0.00000000000000000 1.00000000000000000 0.00000000000000000 855.86305465251655278
2 0.00000000000419482 -628.86305465251643909 0.00000000000000000 0.00000000000000000 0.00000000000000000 1.00000000000000000 1.00000000000000000 0.00000000000000000 -0.00000000000000000 -0.00000000000000000 1.00000000000000000 0.00000000000000000 855.86305465251655278
2 -222.77092133968457688 71.17462230860432726 0.00000000000000000 0.00000000000000000 0.00000000000000000 -1.00000000000000000 -1.00000000000000000 -0.00000000000000000 -0.00000000000000000 -0.00000000000000000 1.00000000000000000 0.00000000000000000 121.23414659100239987
1 290.20007804551448771 172.43605618493484144 0.00000000000000000 0.85995703069865381 0.51036644222749872 0.00000000000000000 
2 -289.81730321384384297 173.08102395795881989 0.00000000000000000 0.00000000000000000 0.00000000000000000 -1.00000000000000000 -1.00000000000000000 -0.00000000000000000 -0.00000000000000000 -0.00000000000000000 1.00000000000000000 0.00000000000000000 0.75000000000000000
2 293.04372748737631582 176.44940002117434119 0.00000000000000000 0.00000000000000000 0.00000000000000000 1.00000000000000000 1.00000000000000000 0.00000000000000000 -0.00000000000000000 -0.00000000000000000 1.00000000000000000 0.00000000000000000 2.00000000000000178
1 -290.20007804551448771 172.43605618493484144 0.00000000000000000 -0.85995703069865381 0.51036644222749872 0.00000000000000000 
2 246.79810519257307533 146.67789655617468725 0.00000000000000000 0.00000000000000000 0.00000000000000000 1.00000000000000000 1.00000000000000000 0.00000000000000000 -0.00000000000000000 -0.00000000000000000 1.00000000000000000 0.00000000000000000 57.00000000000077449
2 -293.04372748737631582 176.44940002117434119 0.00000000000000000 0.00000000000000000 0.00000000000000000 -1.00000000000000000 -1.00000000000000000 -0.00000000000000000 -0.00000000000000000 -0.00000000000000000 1.00000000000000000 0.00000000000000000 2.00000000000000178
2 0.00000000000419482 -628.86305465251643909 0.00000000000000000 0.00000000000000000 0.00000000000000000 1.00000000000000000 1.00000000000000000 0.00000000000000000 -0.00000000000000000 -0.00000000000000000 1.00000000000000000 0.00000000000000000 870.86305465251655278
2 -246.79810519257307533 146.67789655617468725 0.00000000000000000 0.00000000000000000 0.00000000000000000 -1.00000000000000000 -1.00000000000000000 -0.00000000000000000 -0.00000000000000000 -0.00000000000000000 1.00000000000000000 0.00000000000000000 57.00000000000077449
2 -0.00000000000419482 -628.86305465251643909 0.00000000000000000 0.00000000000000000 0.00000000000000000 -1.00000000000000000 -1.00000000000000000 -0.00000000000000000 -0.00000000000000000 -0.00000000000000000 1.00000000000000000 0.00000000000000000 870.86305465251655278
2 -261.29373190312395536 193.30988955644500038 0.00000000000000000 0.00000000000000000 0.00000000000000000 1.00000000000000000 -1.00000000000000000 0.00000000000000000 0.00000000000000000 0.00000000000000000 -1.00000000000000000 0.00000000000000000 1.69999999999999996
2 261.29373190312395536 193.30988955644500038 0.00000000000000000 0.00000000000000000 0.00000000000000000 1.00000000000000000 1.00000000000000000 0.00000000000000000 -0.00000000000000000 -0.00000000000000000 1.00000000000000000 0.00000000000000000 1.69999999999999996
2 -88.30398697986225898 228.87566829870769425 0.00000000000000000 0.00000000000000000 0.00000000000000000 1.00000000000000000 -1.00000000000000000 0.00000000000000000 0.00000000000000000 0.00000000000000000 -1.00000000000000000 0.00000000000000000 1.69999999999999996
2 88.30398697986225898 228.87566829870769425 0.00000000000000000 0.00000000000000000 0.00000000000000000 1.00000000000000000 1.00000000000000000 0.00000000000000000 -0.00000000000000000 -0.00000000000000000 1.00000000000000000 0.00000000000000000 1.69999999999999996
2 -222.77092133968457688 71.17462230860432726 0.00000000000000000 0.00000000000000000 0.00000000000000000 -1.00000000000000000 -1.00000000000000000 -0.00000000000000000 -0.00000000000000000 -0.00000000000000000 1.00000000000000000 0.00000000000000000 121.23414659100239987
1 290.20007804551448771 172.43605618493484144 0.00000000000000000 0.85995703069865381 0.51036644222749872 0.00000000000000000 
2 -289.81730321384384297 173.08102395795881989 0.00000000000000000 0.00000000000000000 0.00000000000000000 -1.00000000000000000 -1.00000000000000000 -0.00000000000000000 -0.00000000000000000 -0.00000000000000000 1.00000000000000000 0.00000000000000000 0.75000000000000000
2 293.04372748737631582 176.44940002117434119 0.00000000000000000 0.00000000000000000 0.00000000000000000 1.00000000000000000 1.00000000000000000 0.00000000000000000 -0.00000000000000000 -0.00000000000000000 1.00000000000000000 0.00000000000000000 2.00000000000000178
1 -290.20007804551448771 172.43605618493484144 0.00000000000000000 -0.85995703069865381 0.51036644222749872 0.00000000000000000 
2 246.79810519257307533 146.67789655617468725 0.00000000000000000 0.00000000000000000 0.00000000000000000 1.00000000000000000 1.00000000000000000 0.00000000000000000 -0.00000000000000000 -0.00000000000000000 1.00000000000000000 0.00000000000000000 57.00000000000077449
2 -293.04372748737631582 176.44940002117434119 0.00000000000000000 0.00000000000000000 0.00000000000000000 -1.00000000000000000 -1.00000000000000000 -0.00000000000000000 -0.00000000000000000 -0.00000000000000000 1.00000000000000000 0.00000000000000000 2.00000000000000178
2 0.00000000000419482 -628.86305465251643909 0.00000000000000000 0.00000000000000000 0.00000000000000000 1.00000000000000000 1.00000000000000000 0.00000000000000000 -0.00000000000000000 -0.00000000000000000 1.00000000000000000 0.00000000000000000 870.86305465251655278
2 -246.79810519257307533 146.67789655617468725 0.00000000000000000 0.00000000000000000 0.00000000000000000 -1.00000000000000000 -1.00000000000000000 -0.00000000000000000 -0.00000000000000000 -0.00000000000000000 1.00000000000000000 0.00000000000000000 57.00000000000077449
2 -0.00000000000419482 -628.86305465251643909 0.00000000000000000 0.00000000000000000 0.00000000000000000 -1.00000000000000000 -1.00000000000000000 -0.00000000000000000 -0.00000000000000000 -0.00000000000000000 1.00000000000000000 0.00000000000000000 870.86305465251655278
2 -261.29373190312395536 193.30988955644500038 3.00000000000000000 0.00000000000000000 0.00000000000000000 1.00000000000000000 -1.00000000000000000 0.00000000000000000 0.00000000000000000 0.00000000000000000 -1.00000000000000000 0.00000000000000000 1.69999999999999996
2 261.29373190312395536 193.30988955644500038 3.00000000000000000 0.00000000000000000 0.00000000000000000 1.00000000000000000 1.00000000000000000 0.00000000000000000 -0.00000000000000000 -0.00000000000000000 1.00000000000000000 0.00000000000000000 1.69999999999999996
2 -88.30398697986225898 228.87566829870769425 3.00000000000000000 0.00000000000000000 0.00000000000000000 1.00000000000000000 -1.00000000000000000 0.00000000000000000 0.00000000000000000 0.00000000000000000 -1.00000000000000000 0.00000000000000000 1.69999999999999996
2 88.30398697986225898 228.87566829870769425 3.00000000000000000 0.00000000000000000 0.00000000000000000 1.00000000000000000 1.00000000000000000 0.00000000000000000 -0.00000000000000000 -0.00000000000000000 1.00000000000000000 0.00000000000000000 1.69999999999999996
1 294.06446037183133058 174.72948595977703690 0.00000000000000000 0.00000000000000000 0.00000000000000000 1.00000000000000000 
1 -289.40507926662701266 172.45446875900108807 0.00000000000000000 0.00000000000000000 0.00000000000000000 1.00000000000000000 
1 -290.20007804551448771 172.43605618493484144 0.00000000000000000 0.00000000000000000 0.00000000000000000 1.00000000000000000 
1 294.72538647991456173 177.53200014717430122 0.00000000000000000 0.00000000000000000 0.00000000000000000 1.00000000000000000 
1 -294.06446037183133058 174.72948595977703690 0.00000000000000000 0.00000000000000000 0.00000000000000000 1.00000000000000000 
1 264.08294435016671287 200.99395620059485168 0.00000000000000000 0.00000000000000000 0.00000000000000000 1.00000000000000000 
1 -294.72538647991456173 177.53200014717430122 0.00000000000000000 0.00000000000000000 0.00000000000000000 1.00000000000000000 
1 -264.08294435016671287 200.99395620059485168 0.00000000000000000 0.00000000000000000 0.00000000000000000 1.00000000000000000 
1 -262.99373190312394399 193.30988955644500038 600.10963992070423956 -0.00000000000000000 -0.00000000000000000 -1.00000000000000000 
1 262.99373190312394399 193.30988955644500038 600.10963992070423956 -0.00000000000000000 -0.00000000000000000 -1.00000000000000000 
1 -90.00398697986226182 228.87566829870769425 600.10963992070423956 -0.00000000000000000 -0.00000000000000000 -1.00000000000000000 
1 90.00398697986226182 228.87566829870769425 600.10963992070423956 -0.00000000000000000 -0.00000000000000000 -1.00000000000000000 
Polygon3D 0
PolygonOnTriangulations 0
Surfaces 18
2 222.77092133968457688 71.17462230860432726 0.00000000000000000 -0.00000000000000000 -0.00000000000000000 -1.00000000000000000 1.00000000000000000 0.00000000000000000 0.00000000000000000 -0.00000000000000000 1.00000000000000000 -0.00000000000000000 121.23414659100239987
2 289.81730321384384297 173.08102395795881989 0.00000000000000000 -0.00000000000000000 -0.00000000000000000 -1.00000000000000000 1.00000000000000000 0.00000000000000000 0.00000000000000000 -0.00000000000000000 1.00000000000000000 -0.00000000000000000 0.75000000000000000
2 0.00000000000419482 -628.86305465251643909 0.00000000000000000 -0.00000000000000000 -0.00000000000000000 -1.00000000000000000 1.00000000000000000 0.00000000000000000 0.00000000000000000 -0.00000000000000000 1.00000000000000000 -0.00000000000000000 855.86305465251655278
1 290.20007804551448771 172.43605618493484144 0.00000000000000000 -0.51036644222749872 0.85995703069865381 0.00000000000000000 0.85995703069865381 0.51036644222749872 0.00000000000000000 0.00000000000000000 0.00000000000000000 -1.00000000000000000 
2 -222.77092133968457688 71.17462230860432726 0.00000000000000000 0.00000000000000000 0.00000000000000000 -1.00000000000000000 -1.00000000000000000 -0.00000000000000000 -0.00000000000000000 -0.00000000000000000 1.00000000000000000 0.00000000000000000 121.23414659100239987
1 -0.00000000000000312 215.53492161461628029 0.00000000000000000 0.00000000000000000 0.00000000000000000 1.00000000000000000 1.00000000000000000 0.00000000000000000 -0.00000000000000000 -0.00000000000000000 1.00000000000000000 0.00000000000000000 
2 -289.81730321384384297 173.08102395795881989 0.00000000000000000 0.00000000000000000 0.00000000000000000 -1.00000000000000000 -1.00000000000000000 -0.00000000000000000 -0.00000000000000000 -0.00000000000000000 1.00000000000000000 0.00000000000000000 0.75000000000000000
2 293.04372748737631582 176.44940002117434119 0.00000000000000000 -0.00000000000000000 -0.00000000000000000 -1.00000000000000000 1.00000000000000000 0.00000000000000000 0.00000000000000000 -0.00000000000000000 1.00000000000000000 -0.00000000000000000 2.00000000000000178
2 246.79810519257307533 146.67789655617468725 0.00000000000000000 -0.00000000000000000 -0.00000000000000000 -1.00000000000000000 1.00000000000000000 0.00000000000000000 0.00000000000000000 -0.00000000000000000 1.00000000000000000 -0.00000000000000000 57.00000000000077449
2 -293.04372748737631582 176.44940002117434119 0.00000000000000000 0.00000000000000000 0.00000000000000000 -1.00000000000000000 -1.00000000000000000 -0.00000000000000000 -0.00000000000000000 -0.00000000000000000 1.00000000000000000 0.00000000000000000 2.00000000000000178
2 0.00000000000419482 -628.86305465251643909 0.00000000000000000 -0.00000000000000000 -0.00000000000000000 -1.00000000000000000 1.00000000000000000 0.00000000000000000 0.00000000000000000 -0.00000000000000000 1.00000000000000000 -0.00000000000000000 870.86305465251655278
2 -246.79810519257307533 146.67789655617468725 0.00000000000000000 0.00000000000000000 0.00000000000000000 -1.00000000000000000 -1.00000000000000000 -0.00000000000000000 -0.00000000000000000 -0.00000000000000000 1.00000000000000000 0.00000000000000000 57.00000000000077449
2 -261.29373190312395536 193.30988955644500038 600.10963992070423956 0.00000000000000000 0.00000000000000000 1.00000000000000000 -1.00000000000000000 0.00000000000000000 0.00000000000000000 -0.00000000000000000 1.00000000000000000 -0.00000000000000000 1.69999999999999996
2 261.29373190312395536 193.30988955644500038 600.10963992070423956 0.00000000000000000 0.00000000000000000 1.00000000000000000 1.00000000000000000 0.00000000000000000 -0.00000000000000000 -0.00000000000000000 1.00000000000000000 0.00000000000000000 1.69999999999999996
2 -88.30398697986225898 228.87566829870769425 600.10963992070423956 0.00000000000000000 0.00000000000000000 1.00000000000000000 -1.00000000000000000 0.00000000000000000 0.00000000000000000 -0.00000000000000000 1.00000000000000000 -0.00000000000000000 1.69999999999999996
2 88.30398697986225898 228.87566829870769425 600.10963992070423956 0.00000000000000000 0.00000000000000000 1.00000000000000000 1.00000000000000000 0.00000000000000000 -0.00000000000000000 -0.00000000000000000 1.00000000000000000 0.00000000000000000 1.69999999999999996
1 -0.00000000000000312 215.53492161461628029 0.00000000000000000 0.00000000000000000 0.00000000000000000 1.00000000000000000 1.00000000000000000 0.00000000000000000 -0.00000000000000000 -0.00000000000000000 1.00000000000000000 0.00000000000000000 
1 -290.20007804551448771 172.43605618493484144 0.00000000000000000 -0.51036644222749872 -0.85995703069865381 0.00000000000000000 -0.85995703069865381 0.51036644222749872 0.00000000000000000 -0.00000000000000000 0.00000000000000000 -1.00000000000000000 
Triangulations 0

TShapes 134
Ve
0.000000100000028
289.405079266627013 172.454468759001088 0.000000000000000
0 0

0101101
*
Ve
0.000000100000028
289.405079266627013 172.454468759001088 3.000000000000000
0 0

0101101
*
Ed
 0.000000100000028 1 1 0
1  1 0 0.000000000000000 3.000000000000000
2  1 1 0 0.000000000000000 3.000000000000000
2  2 2 0 0.000000000000000 3.000000000000000
4 G1 1 0 2 0
0

0101000
+134 6 -133 6 *
Ve
0.000000100000040
259.534302466589565 186.700256294168724 0.000000000000000
0 0

0101101
*
Ve
0.000000100000040
259.534302466589565 186.700256294168724 3.000000000000000
0 0

0101101
*
Ed
 0.000000100000040 1 1 0
1  2 0 0.000000000000000 3.000000000000000
2  3 1 0 0.000000000000000 3.000000000000000
2  4 3 0 0.000000000000000 3.000000000000000
4 G1 1 0 3 0
0

0101000
+131 6 -130 6 *
Ed
 0.000000100000000 1 1 0
1  3 0 0.988872740945626 1.262702477287025
2  5 1 14 0.988872740945626 1.262702477287025
0

0101000
+134 15 -131 15 *
Ed
 0.000000100000000 1 1 0
1  4 0 0.988872740945626 1.262702477287025
2  6 1 18 0.988872740945626 1.262702477287025
0

0101000
+133 19 -130 19 *
Wi

0101100
+132 0 -129 0 -128 13 +127 17 *
Fa
0  0.000000100000000 1 0

0101000
+126 0 *
Ve
0.000000100000014
290.200078045514488 172.436056184934841 0.000000000000000
0 0

0101101
*
Ve
0.000000100000014
290.200078045514488 172.436056184934841 3.000000000000000
0 0

0101101
*
Ed
 0.000000100000014 1 1 0
1  5 0 0.000000000000000 3.000000000000000
2  7 2 0 0.000000000000000 3.000000000000000
4 G1 2 0 4 0
0

0101000
+124 6 -123 6 *
Ed
 0.000000100000000 1 1 0
1  6 0 4.130465394535393 5.247999833710137
2  8 2 14 4.130465394535393 5.247999833710137
0

0101000
+134 15 -124 15 *
Ed
 0.000000100000000 1 1 0
1  7 0 4.130465394535393 5.247999833710137
2  9 2 18 4.130465394535393 5.247999833710137
0

0101000
+133 19 -123 19 *
Wi

0101100
+132 0 -122 0 -121 13 +120 17 *
Fa
0  0.000000100000000 2 0

0101000
+119 0 *
Ve
0.000000100000040
-259.534302466589565 186.700256294168724 3.000000000000000
0 0

0101101
*
Ve
0.000000100000066
-0.000000000000000 227.000000000000114 3.000000000000000
0 0

0101101
*
Ed
 0.000000100000000 1 1 0
1  8 0 1.262702477287025 1.570796326794901
2  10 3 23 1.262702477287025 1.570796326794901
0

0101000
+117 24 -116 24 *
Ve
0.000000100000040
-259.534302466589565 186.700256294168724 0.000000000000000
0 0

0101101
*
Ed
 0.000000100000040 1 1 0
1  9 0 0.000000000000000 3.000000000000000
2  11 3 0 0.000000000000000 3.000000000000000
2  12 5 0 0.000000000000000 3.000000000000000
0

0101000
+114 6 -117 6 *
Ve
0.000000100000066
-0.000000000000000 227.000000000000114 0.000000000000000
0 0

0101101
*
Ed
 0.000000100000000 1 1 0
1  10 0 1.262702477287025 1.570796326794901
2  13 3 26 1.262702477287025 1.570796326794901
0

0101000
+114 27 -112 27 *
Ed
 0.000000100000000 1 1 0
1  11 0 1.262702477287025 1.570796326794901
2  14 3 14 1.262702477287025 1.570796326794901
0

0101000
+131 15 -112 15 *
Ed
 0.000000100000000 1 1 0
1  12 0 1.262702477287025 1.570796326794901
2  15 3 18 1.262702477287025 1.570796326794901
0

0101000
+130 19 -116 19 *
Wi

0101100
-115 22 -113 0 +111 25 -110 13 +129 0 +109 17 *
Fa
0  0.000000100000000 3 0

0101000
+108 0 *
Ve
0.000000100000028
-289.405079266627013 172.454468759001088 0.000000000000000
0 0

0101101
*
Ed
 0.000000100000000 1 1 0
1  13 0 0.988872740945626 1.262702477287025
2  16 5 26 0.988872740945626 1.262702477287025
0

0101000
+106 27 -114 27 *
Ve
0.000000100000014
294.064460371831331 174.729485959777037 0.000000000000000
0 0

0101101
*
Ed
 0.000000100000000 1 1 0
1  14 0 0.000000000000000 4.493692345508598
0

0101000
+124 15 -104 15 *
Ve
0.000000100000014
-290.200078045514488 172.436056184934841 0.000000000000000
0 0

0101101
*
Ed
 0.000000100000000 1 1 0
1  15 0 4.130465394535393 5.247999833710137
2  17 7 26 4.130465394535393 5.247999833710137
0

0101000
+106 27 -102 27 *
Ve
0.000000100000014
294.725386479914562 177.532000147174301 0.000000000000000
0 0

0101101
*
Ed
 0.000000100000000 1 1 0
1  16 0 5.247999833710140 6.855167815665664
2  18 8 14 5.247999833710140 6.855167815665664
0

0101000
+104 15 -100 15 *
Ve
0.000000100000014
-294.064460371831331 174.729485959777037 0.000000000000000
0 0

0101101
*
Ed
 0.000000100000000 1 1 0
1  17 0 0.000000000000000 4.493692345508598
0

0101000
+102 27 -98 27 *
Ve
0.000000100000028
264.082944350166713 200.993956200594852 0.000000000000000
0 0

0101101
*
Ed
 0.000000100000000 1 1 0
1  18 0 0.571982508486075 1.262702477287025
2  19 9 14 0.571982508486075 1.262702477287025
0

0101000
+100 15 -96 15 *
Ve
0.000000100000014
-294.725386479914562 177.532000147174301 0.000000000000000
0 0

0101101
*
Ed
 0.000000100000000 1 1 0
1  19 0 5.247999833710140 6.855167815665664
2  20 10 26 5.247999833710140 6.855167815665664
0

0101000
+98 27 -94 27 *
Ve
0.000000100000006
0.000000000000000 242.000000000000114 0.000000000000000
0 0

0101101
*
Ed
 0.000000100000000 1 1 0
1  20 0 1.262702477287025 1.570796326794901
2  21 11 14 1.262702477287025 1.570796326794901
0

0101000
+96 15 -92 15 *
Ve
0.000000100000028
-264.082944350166713 200.993956200594852 0.000000000000000
0 0

0101101
*
Ed
 0.000000100000000 1 1 0
1  21 0 0.571982508486075 1.262702477287025
2  22 12 26 0.571982508486075 1.262702477287025
0

0101000
+94 27 -90 27 *
Ed
 0.000000100000000 1 1 0
1  22 0 1.262702477287025 1.570796326794901
2  23 11 26 1.262702477287025 1.570796326794901
0

0101000
+90 27 -92 27 *
Wi

0101100
-110 29 -128 29 +111 30 +121 29 +105 30 +103 29 -101 30 +99 29 -97 30 +95 29 
-93 30 +91 29 -89 30 -88 30 *
Ve
0.000000100000000
-262.993731903123944 193.309889556445000 0.000000000000000
0 0

0101101
*
Ed
 0.000000100000000 1 1 0
1  23 0 0.000000000000000 6.283185307179586
2  24 13 0 0.000000000000000 6.283185307179586
0

0101100
+86 31 -86 31 *
Wi

0101100
-85 0 *
Ve
0.000000100000000
262.993731903123944 193.309889556445000 0.000000000000000
0 0

0101101
*
Ed
 0.000000100000000 1 1 0
1  24 0 0.000000000000000 6.283185307179586
2  25 14 0 0.000000000000000 6.283185307179586
0

0101100
+83 31 -83 31 *
Wi

0101100
-82 0 *
Ve
0.000000100000000
-90.003986979862262 228.875668298707694 0.000000000000000
0 0

0101101
*
Ed
 0.000000100000000 1 1 0
1  25 0 0.000000000000000 6.283185307179586
2  26 15 0 0.000000000000000 6.283185307179586
0

0101100
+80 31 -80 31 *
Wi

0101100
-79 0 *
Ve
0.000000100000000
90.003986979862262 228.875668298707694 0.000000000000000
0 0

0101101
*
Ed
 0.000000100000000 1 1 0
1  26 0 0.000000000000000 6.283185307179586
2  27 16 0 0.000000000000000 6.283185307179586
0

0101100
+77 31 -77 31 *
Wi

0101100
-76 0 *
Fa
0  0.000000100000000 6 28

0101000
+87 0 +84 0 +81 0 +78 0 +75 0 *
Ve
0.000000100000028
-289.405079266627013 172.454468759001088 3.000000000000000
0 0

0101101
*
Ed
 0.000000100000000 1 1 0
1  27 0 0.988872740945626 1.262702477287025
2  28 5 23 0.988872740945626 1.262702477287025
0

0101000
+73 24 -117 24 *
Ve
0.000000100000014
294.064460371831331 174.729485959777037 3.000000000000000
0 0

0101101
*
Ed
 0.000000100000000 1 1 0
1  28 0 0.000000000000000 4.493692345508598
0

0101000
+123 19 -71 19 *
Ve
0.000000100000014
-290.200078045514488 172.436056184934841 3.000000000000000
0 0

0101101
*
Ed
 0.000000100000000 1 1 0
1  29 0 4.130465394535393 5.247999833710137
2  29 7 23 4.130465394535393 5.247999833710137
0

0101000
+73 24 -69 24 *
Ve
0.000000100000014
294.725386479914562 177.532000147174301 3.000000000000000
0 0

0101101
*
Ed
 0.000000100000000 1 1 0
1  30 0 5.247999833710140 6.855167815665664
2  30 8 18 5.247999833710140 6.855167815665664
0

0101000
+71 19 -67 19 *
Ve
0.000000100000014
-294.064460371831331 174.729485959777037 3.000000000000000
0 0

0101101
*
Ed
 0.000000100000000 1 1 0
1  31 0 0.000000000000000 4.493692345508598
0

0101000
+69 24 -65 24 *
Ve
0.000000100000028
264.082944350166713 200.993956200594852 3.000000000000000
0 0

0101101
*
Ed
 0.000000100000000 1 1 0
1  32 0 0.571982508486075 1.262702477287025
2  31 9 18 0.571982508486075 1.262702477287025
0

0101000
+67 19 -63 19 *
Ve
0.000000100000014
-294.725386479914562 177.532000147174301 3.000000000000000
0 0

0101101
*
Ed
 0.000000100000000 1 1 0
1  33 0 5.247999833710140 6.855167815665664
2  32 10 23 5.247999833710140 6.855167815665664
0

0101000
+65 24 -61 24 *
Ve
0.000000100000006
0.000000000000000 242.000000000000114 3.000000000000000
0 0

0101101
*
Ed
 0.000000100000000 1 1 0
1  34 0 1.262702477287025 1.570796326794901
2  33 11 18 1.262702477287025 1.570796326794901
0

0101000
+63 19 -59 19 *
Ve
0.000000100000028
-264.082944350166713 200.993956200594852 3.000000000000000
0 0

0101101
*
Ed
 0.000000100000000 1 1 0
1  35 0 0.571982508486075 1.262702477287025
2  34 12 23 0.571982508486075 1.262702477287025
0

0101000
+61 24 -57 24 *
Ed
 0.000000100000000 1 1 0
1  36 0 1.262702477287025 1.570796326794901
2  35 11 23 1.262702477287025 1.570796326794901
0

0101000
+57 24 -59 24 *
Wi

0101100
-109 33 -127 33 +115 34 +120 33 +72 34 +70 33 -68 34 +66 33 -64 34 +62 33 
-60 34 +58 33 -56 34 -55 34 *
Ve
0.000000100000000
-262.993731903123944 193.309889556445000 3.000000000000000
0 0

0101101
*
Ed
 0.000000100000000 1 1 0
1  37 0 0.000000000000000 6.283185307179586
2  36 13 0 0.000000000000000 6.283185307179586
0

0101100
+53 31 -53 31 *
Wi

0101100
-52 0 *
Ve
0.000000100000000
262.993731903123944 193.309889556445000 3.000000000000000
0 0

0101101
*
Ed
 0.000000100000000 1 1 0
1  38 0 0.000000000000000 6.283185307179586
2  37 14 0 0.000000000000000 6.283185307179586
0

0101100
+50 31 -50 31 *
Wi

0101100
-49 0 *
Ve
0.000000100000000
-90.003986979862262 228.875668298707694 3.000000000000000
0 0

0101101
*
Ed
 0.000000100000000 1 1 0
1  39 0 0.000000000000000 6.283185307179586
2  38 15 0 0.000000000000000 6.283185307179586
0

0101100
+47 31 -47 31 *
Wi

0101100
-46 0 *
Ve
0.000000100000000
90.003986979862262 228.875668298707694 3.000000000000000
0 0

0101101
*
Ed
 0.000000100000000 1 1 0
1  40 0 0.000000000000000 6.283185307179586
2  39 16 0 0.000000000000000 6.283185307179586
0

0101100
+44 31 -44 31 *
Wi

0101100
-43 0 *
Fa
0  0.000000100000000 17 32

0101000
+54 0 +51 0 +48 0 +45 0 +42 0 *
Ed
 0.000000100000014 1 1 0
1  41 0 0.000000000000000 3.000000000000000
2  40 8 0 0.000000000000000 3.000000000000000
4 G1 4 0 8 0
0

0101000
+104 6 -71 6 *
Wi

0101100
+122 0 -40 0 -103 13 +70 17 *
Fa
0  0.000000100000000 4 0

0101000
+39 0 *
Ed
 0.000000100000028 1 1 0
1  42 0 0.000000000000000 3.000000000000000
2  41 5 0 0.000000000000000 3.000000000000000
2  42 7 0 0.000000000000000 3.000000000000000
4 G1 5 0 7 0
0

0101000
+106 6 -73 6 *
Wi

0101100
+37 0 -113 0 -105 25 +72 22 *
Fa
0  0.000000100000000 5 0

0101000
+36 0 *
Ed
 0.000000100000014 1 1 0
1  43 0 0.000000000000000 3.000000000000000
2  43 7 0 0.000000000000000 3.000000000000000
4 G1 7 0 18 0
0

0101000
+102 6 -69 6 *
Wi

0101100
+37 0 -34 0 -101 25 +68 22 *
Fa
0  0.000000100000000 7 0

0101000
+33 0 *
Ed
 0.000000100000014 1 1 0
1  44 0 0.000000000000000 3.000000000000000
2  44 8 0 0.000000000000000 3.000000000000000
2  45 9 0 0.000000000000000 3.000000000000000
4 G1 8 0 9 0
0

0101000
+100 6 -67 6 *
Wi

0101100
+40 0 -31 0 -99 13 +66 17 *
Fa
0  0.000000100000000 8 0

0101000
+30 0 *
Ed
 0.000000100000014 1 1 0
1  45 0 0.000000000000000 3.000000000000000
2  46 10 0 0.000000000000000 3.000000000000000
4 G1 18 0 10 0
0

0101000
+98 6 -65 6 *
Wi

0101100
+34 0 -28 0 -97 25 +64 22 *
Fa
0  0.000000100000000 18 0

0101000
+27 0 *
Ed
 0.000000100000028 1 1 0
1  46 0 0.000000000000000 3.000000000000000
2  47 9 0 0.000000000000000 3.000000000000000
2  48 11 0 0.000000000000000 3.000000000000000
4 G1 9 0 11 0
0

0101000
+96 6 -63 6 *
Wi

0101100
+31 0 -25 0 -95 13 +62 17 *
Fa
0  0.000000100000000 9 0

0101000
+24 0 *
Ed
 0.000000100000014 1 1 0
1  47 0 0.000000000000000 3.000000000000000
2  49 10 0 0.000000000000000 3.000000000000000
2  50 12 0 0.000000000000000 3.000000000000000
4 G1 10 0 12 0
0

0101000
+94 6 -61 6 *
Wi

0101100
+28 0 -22 0 -93 25 +60 22 *
Fa
0  0.000000100000000 10 0

0101000
+21 0 *
Ed
 0.000000100000028 1 1 0
1  48 0 0.000000000000000 3.000000000000000
2  51 11 0 0.000000000000000 3.000000000000000
2  52 12 0 0.000000000000000 3.000000000000000
0

0101000
+90 6 -57 6 *
Wi

0101100
-19 0 +88 25 -91 13 +25 0 +58 17 -55 22 *
Fa
0  0.000000100000000 11 0

0101000
+18 0 *
Wi

0101100
+22 0 -19 0 -89 25 +56 22 *
Fa
0  0.000000100000000 12 0

0101000
+16 0 *
Ed
 0.000000100000000 1 1 0
1  49 0 597.109639920704240 600.109639920704240
3  53 54CN 13 0 597.109639920704240 600.109639920704240
0

0101000
+53 31 -86 31 *
Wi

0101100
+52 0 -14 0 -85 0 +14 0 *
Fa
0  0.000000100000000 13 0

0101000
+13 0 *
Ed
 0.000000100000000 1 1 0
1  50 0 597.109639920704240 600.109639920704240
3  55 56CN 14 0 597.109639920704240 600.109639920704240
0

0101000
+50 31 -83 31 *
Wi

0101100
-49 0 -11 0 +82 0 +11 0 *
Fa
0  0.000000100000000 14 0

0101000
+10 0 *
Ed
 0.000000100000000 1 1 0
1  51 0 597.109639920704240 600.109639920704240
3  57 58CN 15 0 597.109639920704240 600.109639920704240
0

0101000
+47 31 -80 31 *
Wi

0101100
+46 0 -8 0 -79 0 +8 0 *
Fa
0  0.000000100000000 15 0

0101000
+7 0 *
Ed
 0.000000100000000 1 1 0
1  52 0 597.109639920704240 600.109639920704240
3  59 60CN 16 0 597.109639920704240 600.109639920704240
0

0101000
+44 31 -77 31 *
Wi

0101100
-43 0 -5 0 +76 0 +5 0 *
Fa
0  0.000000100000000 16 0

0101000
+4 0 *
Sh

0101100
+125 4 -118 4 +107 4 -74 0 +41 0 -38 4 -35 4 +32 4 -29 4 +26 4 
-23 4 +20 4 -17 4 +15 4 +12 0 -9 0 +6 0 -3 0 *
So

1100000
+2 0 *

+1 1 