
CASCADE Topology V1, (c) Matra-Datavision
Locations 28
1
1.000000000000000 0.000000000000000 0.000000000000000 0.000000000000000 
0.000000000000000 1.000000000000000 0.000000000000000 0.000000000000000 
0.000000000000000 0.000000000000000 1.000000000000000 0.000000000000000 
1
1.000000000000000 0.000000000000000 0.000000000000000 0.000000000000000 
0.000000000000000 1.000000000000000 0.000000000000000 0.000000000000000 
0.000000000000000 0.000000000000000 1.000000000000000 0.000000000000000 
1
1.000000000000000 0.000000000000000 0.000000000000000 0.000000000000000 
0.000000000000000 1.000000000000000 0.000000000000000 0.000000000000000 
0.000000000000000 0.000000000000000 1.000000000000000 0.000000000000000 
1
1.000000000000000 0.000000000000000 0.000000000000000 0.000000000000000 
0.000000000000000 1.000000000000000 0.000000000000000 0.000000000000000 
0.000000000000000 0.000000000000000 1.000000000000000 0.000000000000000 
1
1.000000000000000 0.000000000000000 0.000000000000000 0.000000000000000 
0.000000000000000 1.000000000000000 0.000000000000000 0.000000000000000 
0.000000000000000 0.000000000000000 1.000000000000000 0.000000000000000 
1
1.000000000000000 0.000000000000000 0.000000000000000 0.000000000000000 
0.000000000000000 1.000000000000000 0.000000000000000 0.000000000000000 
0.000000000000000 0.000000000000000 1.000000000000000 0.000000000000000 
1
1.000000000000000 0.000000000000000 0.000000000000000 0.000000000000000 
0.000000000000000 1.000000000000000 0.000000000000000 0.000000000000000 
0.000000000000000 0.000000000000000 1.000000000000000 0.000000000000000 
1
1.000000000000000 0.000000000000000 0.000000000000000 0.000000000000000 
0.000000000000000 1.000000000000000 0.000000000000000 0.000000000000000 
0.000000000000000 0.000000000000000 1.000000000000000 0.000000000000000 
2  1 -1 2 -1 3 1 4 1 5 1 6 1 7 1 8 -1 0
1
1.000000000000000 0.000000000000000 0.000000000000000 0.000000000000000 
0.000000000000000 1.000000000000000 0.000000000000000 0.000000000000000 
0.000000000000000 0.000000000000000 1.000000000000000 3.000000000000000 
2  1 -1 2 -1 3 1 4 1 5 1 6 1 7 1 8 -1 10 1 0
2  3 1 4 1 5 1 6 1 7 1 8 -1 0
2  8 1 7 -1 6 -1 5 -1 4 -1 3 -1 0
2  10 -1 8 1 7 -1 6 -1 5 -1 4 -1 3 -1 0
2  5 -1 4 -1 3 -1 0
2  1 -1 2 -1 0
2  3 1 4 1 5 1 6 1 7 1 8 -1 10 1 0
1
1.000000000000000 0.000000000000000 0.000000000000000 0.000000000000000 
0.000000000000000 1.000000000000000 0.000000000000000 0.000000000000000 
0.000000000000000 0.000000000000000 1.000000000000000 0.000000000000000 
2  2 1 18 1 5 1 6 1 7 1 8 -1 0
2  2 1 18 1 5 1 6 1 7 1 8 -1 10 1 0
2  8 1 7 -1 6 -1 5 -1 18 -1 2 -1 0
2  10 -1 8 1 7 -1 6 -1 5 -1 18 -1 2 -1 0
2  5 -1 18 -1 2 -1 0
2  1 -1 2 -1 3 1 4 1 18 -1 2 -1 0
2  6 1 7 1 8 -1 0
2  3 1 4 1 5 1 0
2  2 1 18 1 5 1 0
2  6 1 7 1 8 -1 10 1 0
Curve2ds 40
1 0.53757250073266782 0.00000000000000000 0.00000000000000000 -1.00000000000000000 
1 6.82075780791225483 0.00000000000000000 0.00000000000000000 -1.00000000000000000 
1 1.57079632679489656 0.00000000000000000 0.00000000000000000 -1.00000000000000000 
1 1.57079632679489656 0.00000000000000000 0.00000000000000000 -1.00000000000000000 
1 0.00000000000000000 0.00000000000000000 1.00000000000000000 0.00000000000000000 
1 0.00000000000000000 -3.00000000000000000 1.00000000000000000 0.00000000000000000 
2 0.00000000000000254 -144.84836341909760904 -1.00000000000000000 0.00000000000000000 0.00000000000000000 1.00000000000000000 185.00000000000000000
1 5.43507121257458259 0.00000000000000000 0.00000000000000000 -1.00000000000000000 
1 6.28318530717958978 0.00000000000000000 0.00000000000000000 -1.00000000000000000 
1 0.00000000000000000 0.00000000000000000 1.00000000000000000 0.00000000000000000 
1 0.00000000000000000 -3.00000000000000000 1.00000000000000000 0.00000000000000000 
2 -156.75914473933582372 -51.39880194023376703 -1.00000000000000000 0.00000000000000000 0.00000000000000000 1.00000000000000000 2.50000000000000000
1 4.55964175914443359 0.00000000000000000 0.00000000000000000 -1.00000000000000000 
1 0.64586053017777578 0.00000000000000000 0.00000000000000000 -1.00000000000000000 
1 0.00000000000000000 0.00000000000000000 1.00000000000000000 0.00000000000000000 
1 0.00000000000000000 -3.00000000000000000 1.00000000000000000 0.00000000000000000 
3 -145.18466547414581669 -38.27319986872150537 -0.66139881515371457 -0.75003440408641431 -0.75003440408641431 0.66139881515371457 19.99999999999999645 10.00000000000001243
1 1.57079632679489656 0.00000000000000000 0.00000000000000000 -1.00000000000000000 
1 1.57079632679489656 0.00000000000000000 0.00000000000000000 -1.00000000000000000 
1 0.00000000000000000 0.00000000000000000 1.00000000000000000 0.00000000000000000 
1 0.00000000000000000 -3.00000000000000000 1.00000000000000000 0.00000000000000000 
2 0.00000000000000254 -144.84836341909760904 -1.00000000000000000 0.00000000000000000 0.00000000000000000 1.00000000000000000 170.00000000000000000
1 0.64586053017777578 0.00000000000000000 0.00000000000000000 -1.00000000000000000 
1 4.55964175914443359 0.00000000000000000 0.00000000000000000 -1.00000000000000000 
1 0.00000000000000000 0.00000000000000000 1.00000000000000000 0.00000000000000000 
1 0.00000000000000000 -3.00000000000000000 1.00000000000000000 0.00000000000000000 
2 0.00000000000000254 -144.84836341909760904 1.00000000000000000 0.00000000000000000 -0.00000000000000000 1.00000000000000000 170.00000000000000000
1 6.28318530717958978 0.00000000000000000 0.00000000000000000 -1.00000000000000000 
1 5.43507121257458259 0.00000000000000000 0.00000000000000000 -1.00000000000000000 
1 0.00000000000000000 0.00000000000000000 1.00000000000000000 0.00000000000000000 
1 0.00000000000000000 -3.00000000000000000 1.00000000000000000 0.00000000000000000 
3 145.18466547414581669 -38.27319986872150537 0.66139881515371457 -0.75003440408641431 0.75003440408641431 0.66139881515371457 19.99999999999999645 10.00000000000001243
1 6.82075780791225483 0.00000000000000000 0.00000000000000000 -1.00000000000000000 
1 0.53757250073266782 0.00000000000000000 0.00000000000000000 -1.00000000000000000 
1 0.00000000000000000 0.00000000000000000 1.00000000000000000 0.00000000000000000 
1 0.00000000000000000 -3.00000000000000000 1.00000000000000000 0.00000000000000000 
2 156.75914473933582372 -51.39880194023376703 1.00000000000000000 0.00000000000000000 -0.00000000000000000 1.00000000000000000 2.50000000000000000
1 0.00000000000000000 0.00000000000000000 1.00000000000000000 0.00000000000000000 
1 0.00000000000000000 -3.00000000000000000 1.00000000000000000 0.00000000000000000 
2 0.00000000000000254 -144.84836341909760904 1.00000000000000000 0.00000000000000000 -0.00000000000000000 1.00000000000000000 185.00000000000000000
Curves 16
1 -158.90653028371031041 94.72969245802636351 0.00000000000000000 0.00000000000000000 0.00000000000000000 1.00000000000000000 
1 -0.00000000000000000 185.00000000000000000 0.00000000000000000 0.00000000000000000 0.00000000000000000 1.00000000000000000 
2 0.00000000000000000 0.00000000000000000 0.00000000000000000 0.00000000000000000 0.00000000000000000 -1.00000000000000000 -1.00000000000000000 -0.00000000000000000 -0.00000000000000000 -0.00000000000000000 1.00000000000000000 0.00000000000000000 185.00000000000000000
1 -158.41264177722013073 91.57447546864781884 0.00000000000000000 0.00000000000000000 0.00000000000000000 1.00000000000000000 
2 -156.75914473933582372 93.44956147886384201 0.00000000000000000 0.00000000000000000 0.00000000000000000 -1.00000000000000000 -1.00000000000000000 -0.00000000000000000 -0.00000000000000000 -0.00000000000000000 1.00000000000000000 0.00000000000000000 2.50000000000000000
1 -135.75896069513510156 102.32059710037250966 0.00000000000000000 0.00000000000000000 0.00000000000000000 1.00000000000000000 
3 -145.18466547414581669 106.57516355037610367 0.00000000000000000 0.00000000000000000 0.00000000000000000 -1.00000000000000000 -0.66139881515371457 -0.75003440408641431 -0.00000000000000000 -0.75003440408641431 0.66139881515371457 0.00000000000000000 20.00000000000000000 10.00000000000001066
1 -0.00000000000000000 170.00000000000000000 0.00000000000000000 0.00000000000000000 0.00000000000000000 1.00000000000000000 
2 0.00000000000000000 0.00000000000000000 0.00000000000000000 0.00000000000000000 0.00000000000000000 -1.00000000000000000 -1.00000000000000000 -0.00000000000000000 -0.00000000000000000 -0.00000000000000000 1.00000000000000000 0.00000000000000000 170.00000000000000000
1 135.75896069513510156 102.32059710037250966 0.00000000000000000 0.00000000000000000 0.00000000000000000 1.00000000000000000 
2 0.00000000000000000 0.00000000000000000 0.00000000000000000 0.00000000000000000 0.00000000000000000 1.00000000000000000 1.00000000000000000 0.00000000000000000 -0.00000000000000000 -0.00000000000000000 1.00000000000000000 0.00000000000000000 170.00000000000000000
1 158.41264177722013073 91.57447546864781884 0.00000000000000000 0.00000000000000000 0.00000000000000000 1.00000000000000000 
3 145.18466547414581669 106.57516355037610367 0.00000000000000000 -0.00000000000000000 0.00000000000000000 1.00000000000000000 0.66139881515371457 -0.75003440408641431 0.00000000000000000 0.75003440408641431 0.66139881515371457 0.00000000000000000 20.00000000000000000 10.00000000000001066
1 158.90653028371031041 94.72969245802636351 0.00000000000000000 0.00000000000000000 0.00000000000000000 1.00000000000000000 
2 156.75914473933582372 93.44956147886384201 0.00000000000000000 0.00000000000000000 0.00000000000000000 1.00000000000000000 1.00000000000000000 0.00000000000000000 -0.00000000000000000 -0.00000000000000000 1.00000000000000000 0.00000000000000000 2.50000000000000000
2 0.00000000000000000 0.00000000000000000 0.00000000000000000 0.00000000000000000 0.00000000000000000 1.00000000000000000 1.00000000000000000 0.00000000000000000 -0.00000000000000000 -0.00000000000000000 1.00000000000000000 0.00000000000000000 185.00000000000000000
Polygon3D 0
PolygonOnTriangulations 0
Surfaces 9
2 0.00000000000000000 0.00000000000000000 0.00000000000000000 0.00000000000000000 0.00000000000000000 -1.00000000000000000 -1.00000000000000000 -0.00000000000000000 -0.00000000000000000 -0.00000000000000000 1.00000000000000000 0.00000000000000000 185.00000000000000000
2 -156.75914473933582372 93.44956147886384201 0.00000000000000000 0.00000000000000000 0.00000000000000000 -1.00000000000000000 -1.00000000000000000 -0.00000000000000000 -0.00000000000000000 -0.00000000000000000 1.00000000000000000 0.00000000000000000 2.50000000000000000
2 0.00000000000000000 0.00000000000000000 0.00000000000000000 -0.00000000000000000 -0.00000000000000000 -1.00000000000000000 1.00000000000000000 0.00000000000000000 0.00000000000000000 -0.00000000000000000 1.00000000000000000 -0.00000000000000000 185.00000000000000000
1 -0.00000000000000254 144.84836341909760904 0.00000000000000000 0.00000000000000000 0.00000000000000000 1.00000000000000000 1.00000000000000000 0.00000000000000000 -0.00000000000000000 -0.00000000000000000 1.00000000000000000 0.00000000000000000 
6 -0.00000000000000000 -0.00000000000000000 -1.00000000000000000 
3 -145.18466547414581669 106.57516355037610367 0.00000000000000000 0.00000000000000000 0.00000000000000000 -1.00000000000000000 -0.66139881515371457 -0.75003440408641431 -0.00000000000000000 -0.75003440408641431 0.66139881515371457 0.00000000000000000 20.00000000000000000 10.00000000000001066
2 0.00000000000000000 0.00000000000000000 0.00000000000000000 0.00000000000000000 0.00000000000000000 -1.00000000000000000 -1.00000000000000000 -0.00000000000000000 -0.00000000000000000 -0.00000000000000000 1.00000000000000000 0.00000000000000000 170.00000000000000000
2 0.00000000000000000 0.00000000000000000 0.00000000000000000 -0.00000000000000000 -0.00000000000000000 -1.00000000000000000 1.00000000000000000 0.00000000000000000 0.00000000000000000 -0.00000000000000000 1.00000000000000000 -0.00000000000000000 170.00000000000000000
6 -0.00000000000000000 -0.00000000000000000 -1.00000000000000000 
3 145.18466547414581669 106.57516355037610367 0.00000000000000000 -0.00000000000000000 0.00000000000000000 1.00000000000000000 0.66139881515371457 -0.75003440408641431 0.00000000000000000 0.75003440408641431 0.66139881515371457 0.00000000000000000 20.00000000000000000 10.00000000000001066
2 156.75914473933582372 93.44956147886384201 0.00000000000000000 -0.00000000000000000 -0.00000000000000000 -1.00000000000000000 1.00000000000000000 0.00000000000000000 0.00000000000000000 -0.00000000000000000 1.00000000000000000 -0.00000000000000000 2.50000000000000000
Triangulations 0

TShapes 44
Ve
0.000000100000014
-158.906530283710310 94.729692458026364 0.000000000000000
0 0

0101101
*
Ed
 0.000000100000014 1 1 0
1  1 0 0.000000000000000 3.000000000000000
2  1 1 0 0.000000000000000 3.000000000000000
2  2 2 0 0.000000000000000 3.000000000000000
4 G1 1 0 2 0
0

0101000
+44 9 -44 11 *
Ve
0.000000100000011
-0.000000000000000 185.000000000000000 0.000000000000000
0 0

0101101
*
Ed
 0.000000100000011 1 1 0
1  2 0 0.000000000000000 3.000000000000000
2  3 1 0 0.000000000000000 3.000000000000000
2  4 3 0 0.000000000000000 3.000000000000000
4 C2 1 0 3 0
0

0101000
+42 9 -42 11 *
Ed
 0.000000100000000 1 1 0
1  3 0 0.537572500732668 1.570796326794897
2  5 1 13 0.537572500732668 1.570796326794897
2  6 1 14 0.537572500732668 1.570796326794897
2  7 4 15 0.537572500732668 1.570796326794897
0

0101000
+44 16 -42 16 *
Wi

0101100
+43 0 -41 0 -40 12 +40 17 *
Fa
0  0.000000100000000 1 0

0111000
+39 0 *
Ve
0.000000100000007
-158.412641777220131 91.574475468647819 0.000000000000000
0 0

0101101
*
Ed
 0.000000100000007 1 1 0
1  4 0 0.000000000000000 3.000000000000000
2  8 2 0 0.000000000000000 3.000000000000000
2  9 5 0 0.000000000000000 3.000000000000000
4 G1 2 0 5 0
0

0101000
+37 9 -37 11 *
Ed
 0.000000100000000 1 1 0
1  5 0 5.435071212574583 6.820757807912255
2  10 2 13 5.435071212574583 6.820757807912255
2  11 2 14 5.435071212574583 6.820757807912255
2  12 4 15 5.435071212574583 6.820757807912255
0

0101000
+37 16 -44 16 *
Wi

0101100
+36 0 -43 0 -35 12 +35 17 *
Fa
0  0.000000100000000 2 0

0111000
+34 0 *
Ve
0.000000100000032
-135.758960695135102 102.320597100372510 0.000000000000000
0 0

0101101
*
Ed
 0.000000100000032 1 1 0
1  6 0 0.000000000000000 3.000000000000000
2  13 5 0 0.000000000000000 3.000000000000000
2  14 6 0 0.000000000000000 3.000000000000000
4 G1 5 0 6 0
0

0101000
+32 9 -32 11 *
Ed
 0.000000100000000 1 1 0
1  7 0 4.559641759144434 6.283185307179590
2  15 5 13 4.559641759144434 6.283185307179590
2  16 5 14 4.559641759144434 6.283185307179590
2  17 4 15 4.559641759144434 6.283185307179590
0

0101000
+32 16 -37 16 *
Wi

0101100
+31 0 -36 0 -30 12 +30 17 *
Fa
0  0.000000100000000 5 0

0111000
+29 0 *
Ve
0.000000100000010
-0.000000000000000 170.000000000000000 0.000000000000000
0 0

0101101
*
Ed
 0.000000100000010 1 1 0
1  8 0 0.000000000000000 3.000000000000000
2  18 6 0 0.000000000000000 3.000000000000000
2  19 7 0 0.000000000000000 3.000000000000000
4 C2 6 0 7 0
0

0101000
+27 9 -27 11 *
Ed
 0.000000100000000 1 1 0
1  9 0 0.645860530177776 1.570796326794897
2  20 6 13 0.645860530177776 1.570796326794897
2  21 6 14 0.645860530177776 1.570796326794897
2  22 4 15 0.645860530177776 1.570796326794897
0

0101000
+32 16 -27 16 *
Wi

0101100
+31 0 -26 0 -25 12 +25 17 *
Fa
0  0.000000100000000 6 0

0111000
+24 0 *
Ve
0.000000100000032
135.758960695135102 102.320597100372510 0.000000000000000
0 0

0101101
*
Ed
 0.000000100000032 1 1 0
1  10 0 0.000000000000000 3.000000000000000
2  23 7 0 0.000000000000000 3.000000000000000
2  24 8 0 0.000000000000000 3.000000000000000
4 G1 7 0 8 0
0

0101000
+22 19 -22 20 *
Ed
 0.000000100000000 1 1 0
1  11 0 0.645860530177776 1.570796326794897
2  25 7 21 0.645860530177776 1.570796326794897
2  26 7 22 0.645860530177776 1.570796326794897
2  27 4 23 0.645860530177776 1.570796326794897
0

0101000
+22 0 -27 24 *
Wi

0101100
+21 0 -26 0 -20 19 +20 20 *
Fa
0  0.000000100000000 7 0

0111000
+19 0 *
Ve
0.000000100000007
158.412641777220131 91.574475468647819 0.000000000000000
0 0

0101101
*
Ed
 0.000000100000007 1 1 0
1  12 0 0.000000000000000 3.000000000000000
2  28 8 0 0.000000000000000 3.000000000000000
2  29 9 0 0.000000000000000 3.000000000000000
4 G1 8 0 9 0
0

0101000
+17 19 -17 20 *
Ed
 0.000000100000000 1 1 0
1  13 0 4.559641759144434 6.283185307179590
2  30 8 21 4.559641759144434 6.283185307179590
2  31 8 22 4.559641759144434 6.283185307179590
2  32 4 23 4.559641759144434 6.283185307179590
0

0101000
+22 0 -17 0 *
Wi

0101100
+21 0 -16 0 -15 19 +15 20 *
Fa
0  0.000000100000000 8 0

0111000
+14 0 *
Ve
0.000000100000014
158.906530283710310 94.729692458026364 0.000000000000000
0 0

0101101
*
Ed
 0.000000100000014 1 1 0
1  14 0 0.000000000000000 3.000000000000000
2  33 9 0 0.000000000000000 3.000000000000000
2  34 3 0 0.000000000000000 3.000000000000000
4 G1 9 0 3 0
0

0101000
+12 19 -12 20 *
Ed
 0.000000100000000 1 1 0
1  15 0 5.435071212574583 6.820757807912255
2  35 9 21 5.435071212574583 6.820757807912255
2  36 9 22 5.435071212574583 6.820757807912255
2  37 4 23 5.435071212574583 6.820757807912255
0

0101000
+17 0 -12 0 *
Wi

0101100
+16 0 -11 0 -10 19 +10 20 *
Fa
0  0.000000100000000 9 0

0111000
+9 0 *
Ed
 0.000000100000000 1 1 0
1  16 0 0.537572500732668 1.570796326794897
2  38 3 21 0.537572500732668 1.570796326794897
2  39 3 22 0.537572500732668 1.570796326794897
2  40 4 23 0.537572500732668 1.570796326794897
0

0101000
+12 0 -42 24 *
Wi

0101100
+11 0 -41 0 -7 19 +7 20 *
Fa
0  0.000000100000000 3 0

0111000
+6 0 *
Wi

0101100
-40 26 -35 26 -30 26 +25 26 -20 27 +15 27 +10 27 +7 27 *
Fa
0  0.000000100000000 4 0

0111000
+4 0 *
Sh

0101100
-38 0 -33 0 -28 0 +23 0 -18 0 +13 0 +8 0 +5 0 +3 25 -3 28 
*
So

1100000
-2 0 *

+1 0 