
CASCADE Topology V1, (c) Matra-Datavision
Locations 18
1
1.000000000000000 0.000000000000000 0.000000000000000 34.575000000000003 
0.000000000000000 1.000000000000000 0.000000000000000 -34.575000000000003 
0.000000000000000 0.000000000000000 1.000000000000000 3.000000000000000 
1
1.000000000000000 0.000000000000000 0.000000000000000 0.000000000000000 
0.000000000000000 1.000000000000000 0.000000000000000 0.000000000000000 
0.000000000000000 0.000000000000000 1.000000000000000 0.000000000000000 
1
1.000000000000000 0.000000000000000 0.000000000000000 0.000000000000000 
0.000000000000000 1.000000000000000 0.000000000000000 0.000000000000000 
0.000000000000000 0.000000000000000 1.000000000000000 0.000000000000000 
1
1.000000000000000 0.000000000000000 0.000000000000000 0.000000000000000 
0.000000000000000 1.000000000000000 0.000000000000000 0.000000000000000 
0.000000000000000 0.000000000000000 1.000000000000000 0.000000000000000 
1
1.000000000000000 0.000000000000000 0.000000000000000 0.000000000000000 
0.000000000000000 1.000000000000000 0.000000000000000 0.000000000000000 
0.000000000000000 0.000000000000000 1.000000000000000 3.000000000000000 
1
1.000000000000000 0.000000000000000 0.000000000000000 0.000000000000000 
0.000000000000000 1.000000000000000 0.000000000000000 0.000000000000000 
0.000000000000000 0.000000000000000 1.000000000000000 0.000000000000000 
1
1.000000000000000 0.000000000000000 0.000000000000000 0.000000000000000 
0.000000000000000 1.000000000000000 0.000000000000000 0.000000000000000 
0.000000000000000 0.000000000000000 1.000000000000000 0.000000000000000 
1
1.000000000000000 0.000000000000000 0.000000000000000 0.000000000000000 
0.000000000000000 1.000000000000000 0.000000000000000 0.000000000000000 
0.000000000000000 0.000000000000000 1.000000000000000 0.000000000000000 
1
1.000000000000000 0.000000000000000 0.000000000000000 0.000000000000000 
0.000000000000000 1.000000000000000 0.000000000000000 0.000000000000000 
0.000000000000000 0.000000000000000 1.000000000000000 0.000000000000000 
1
1.000000000000000 0.000000000000000 0.000000000000000 0.000000000000000 
0.000000000000000 1.000000000000000 0.000000000000000 0.000000000000000 
0.000000000000000 0.000000000000000 1.000000000000000 0.000000000000000 
1
1.000000000000000 0.000000000000000 0.000000000000000 0.000000000000000 
0.000000000000000 1.000000000000000 0.000000000000000 0.000000000000000 
0.000000000000000 0.000000000000000 1.000000000000000 0.000000000000000 
2  2 1 3 1 4 -1 5 1 6 1 7 -1 8 1 9 -1 10 1 11 -1 1 -1 0
1
1.000000000000000 0.000000000000000 0.000000000000000 -34.575000000000543 
0.000000000000000 1.000000000000000 0.000000000000000 -34.574999999999733 
0.000000000000000 0.000000000000000 1.000000000000000 3.000000000000000 
2  2 1 3 1 4 -1 5 1 6 1 7 -1 8 1 9 -1 10 1 11 -1 13 -1 0
1
1.000000000000000 0.000000000000000 0.000000000000000 -34.575000000000003 
0.000000000000000 1.000000000000000 0.000000000000000 34.575000000000003 
0.000000000000000 0.000000000000000 1.000000000000000 3.000000000000000 
2  2 1 3 1 4 -1 5 1 6 1 7 -1 8 1 9 -1 10 1 11 -1 15 -1 0
1
1.000000000000000 0.000000000000000 0.000000000000000 34.575000000000003 
0.000000000000000 1.000000000000000 0.000000000000000 34.575000000000003 
0.000000000000000 0.000000000000000 1.000000000000000 3.000000000000000 
2  2 1 3 1 4 -1 5 1 6 1 7 -1 8 1 9 -1 10 1 11 -1 17 -1 0
Curve2ds 13
2 0.00000000000000000 0.00000000000000000 -1.00000000000000000 0.00000000000000000 0.00000000000000000 1.00000000000000000 4.25000000000000000
1 0.00000000000000000 0.00000000000000000 1.00000000000000000 0.00000000000000000 
2 34.57499999999998153 -34.57499999999994600 1.00000000000000000 0.00000000000000000 -0.00000000000000000 1.00000000000000000 4.25000000000000000
2 -34.57500000000056417 -34.57499999999967599 1.00000000000000000 0.00000000000000000 -0.00000000000000000 1.00000000000000000 4.25000000000000000
2 -34.57500000000002416 34.57500000000005969 1.00000000000000000 0.00000000000000000 -0.00000000000000000 1.00000000000000000 4.25000000000000000
2 34.57499999999998153 34.57500000000005969 1.00000000000000000 0.00000000000000000 -0.00000000000000000 1.00000000000000000 4.25000000000000000
1 0.00000000000000000 25.00000000000000000 1.00000000000000000 0.00000000000000000 
1 0.00000000000000000 0.00000000000000000 1.00000000000000000 0.00000000000000000 
1 6.28318530717958623 0.00000000000000000 0.00000000000000000 1.00000000000000000 
1 0.00000000000000000 0.00000000000000000 0.00000000000000000 1.00000000000000000 
1 0.00000000000000000 4.95819193816515380 1.00000000000000000 0.00000000000000000 
1 6.28318530717958623 0.00000000000000000 0.00000000000000000 1.00000000000000000 
1 0.00000000000000000 0.00000000000000000 0.00000000000000000 1.00000000000000000 
Curves 4
2 0.00000000000000000 0.00000000000000000 0.00000000000000000 0.00000000000000000 0.00000000000000000 1.00000000000000000 1.00000000000000000 0.00000000000000000 -0.00000000000000000 -0.00000000000000000 1.00000000000000000 0.00000000000000000 4.25000000000000000
2 0.00000000000000000 0.00000000000000000 -25.00000000000000000 0.00000000000000000 0.00000000000000000 1.00000000000000000 1.00000000000000000 0.00000000000000000 -0.00000000000000000 -0.00000000000000000 1.00000000000000000 0.00000000000000000 4.24999999999999822
1 4.25000000000000000 0.00000000000000000 -0.00000000000000000 -0.00000000000000007 0.00000000000000000 -1.00000000000000000 
1 4.24999999999999822 0.00000000000000000 -25.00000000000000000 -0.85716730070211222 -0.00000000000000000 -0.51503807491005449 
Polygon3D 0
PolygonOnTriangulations 0
Surfaces 4
1 0.00000000000000000 0.00000000000000000 0.00000000000000000 0.00000000000000000 0.00000000000000000 1.00000000000000000 -1.00000000000000000 -0.00000000000000000 0.00000000000000000 -0.00000000000000000 1.00000000000000000 -0.00000000000000000 
2 0.00000000000000000 0.00000000000000000 0.00000000000000000 -0.00000000000000000 -0.00000000000000000 -1.00000000000000000 1.00000000000000000 0.00000000000000000 0.00000000000000000 -0.00000000000000000 1.00000000000000000 -0.00000000000000000 4.25000000000000000
1 0.00000000000002114 -0.00000000000005780 0.00000000000000000 0.00000000000000000 0.00000000000000000 1.00000000000000000 1.00000000000000000 0.00000000000000000 -0.00000000000000000 -0.00000000000000000 1.00000000000000000 0.00000000000000000 
3 0.00000000000000000 0.00000000000000000 -25.00000000000000000 -0.00000000000000000 -0.00000000000000000 -1.00000000000000000 1.00000000000000000 0.00000000000000000 0.00000000000000000 -0.00000000000000000 1.00000000000000000 -0.00000000000000000 4.24999999999999822
-1.02974425867665431
Triangulations 0

TShapes 17
Ve
0.000000100000000
4.250000000000000 0.000000000000000 -0.000000000000000
0 0

0101101
*
Ed
 0.000000100000000 1 1 0
1  1 0 0.000000000000000 6.283185307179586
2  1 1 0 0.000000000000000 6.283185307179586
2  2 2 0 0.000000000000000 6.283185307179586
2  3 3 12 0.000000000000000 6.283185307179586
2  4 3 14 0.000000000000000 6.283185307179586
2  5 3 16 0.000000000000000 6.283185307179586
2  6 3 18 0.000000000000000 6.283185307179586
0

0101000
+17 0 -17 0 *
Wi

0101100
-16 0 *
Fa
0  0.000000100000000 1 0

0111000
+15 0 *
Ve
0.000000100000000
4.249999999999998 0.000000000000000 -25.000000000000000
0 0

0101101
*
Ed
 0.000000100000000 1 1 0
1  2 0 0.000000000000000 6.283185307179586
2  7 2 0 0.000000000000000 6.283185307179586
2  8 4 0 0.000000000000000 6.283185307179586
0

0101000
+13 0 -13 0 *
Ed
 0.000000100000000 1 1 0
1  3 0 0.000000000000000 25.000000000000000
3  9 10CN 2 0 0.000000000000000 25.000000000000000
0

0101000
+17 0 -13 0 *
Wi

0101100
+16 0 -12 0 -11 0 +11 0 *
Fa
0  0.000000100000000 2 0

0111000
+10 0 *
Ve
0.000000100000000
-0.000000000000000 -0.000000000000000 -27.553657630867132
0 0

0101101
*
Ed
 0.000000100000000 1 1 1
2  11 4 0 0.000000000000000 6.283185307179586
0

0101000
+8 0 -8 0 *
Ed
 0.000000100000000 1 1 0
1  4 0 0.000000000000000 4.958191938165154
3  12 13CN 4 0 0.000000000000000 4.958191938165154
0

0101000
+13 0 -8 0 *
Wi

0101100
+12 0 -7 0 -6 0 +6 0 *
Fa
0  0.000000100000000 4 0

0111000
+5 0 *
Sh

0101100
+14 0 +9 0 +4 0 *
So

0100000
-3 0 *
Co

1100000
+2 1 +2 13 +2 15 +2 17 *

+1 0 