
CASCADE Topology V1, (c) Matra-Datavision
Locations 82
1
1.000000000000000 0.000000000000000 0.000000000000000 0.000000000000000 
0.000000000000000 1.000000000000000 0.000000000000000 0.000000000000000 
0.000000000000000 0.000000000000000 1.000000000000000 0.000000000000000 
1
1.000000000000000 0.000000000000000 0.000000000000000 0.000000000000000 
0.000000000000000 1.000000000000000 0.000000000000000 0.000000000000000 
0.000000000000000 0.000000000000000 1.000000000000000 0.000000000000000 
1
1.000000000000000 0.000000000000000 0.000000000000000 0.000000000000000 
0.000000000000000 1.000000000000000 0.000000000000000 0.000000000000000 
0.000000000000000 0.000000000000000 1.000000000000000 0.000000000000000 
2  2 1 3 -1 0
1
1.000000000000000 0.000000000000000 0.000000000000000 0.000000000000000 
0.000000000000000 1.000000000000000 0.000000000000000 0.000000000000000 
0.000000000000000 0.000000000000000 1.000000000000000 0.000000000000000 
1
-0.500000000000001 0.866025403784439 0.000000000000000 0.000000000000000 
-0.866025403784439 -0.500000000000001 0.000000000000000 0.000000000000000 
0.000000000000000 0.000000000000000 1.000000000000001 0.000000000000000 
1
1.000000000000000 0.000000000000000 0.000000000000000 0.000000000000000 
0.000000000000000 1.000000000000000 0.000000000000000 0.000000000000000 
0.000000000000000 0.000000000000000 1.000000000000000 0.000000000000000 
1
1.000000000000000 0.000000000000000 0.000000000000000 0.000000000000000 
0.000000000000000 1.000000000000000 0.000000000000000 0.000000000000000 
0.000000000000000 0.000000000000000 1.000000000000000 0.000000000000000 
1
1.000000000000000 0.000000000000000 0.000000000000000 0.000000000000000 
0.000000000000000 1.000000000000000 0.000000000000000 0.000000000000000 
0.000000000000000 0.000000000000000 1.000000000000000 0.000000000000000 
1
1.000000000000000 0.000000000000000 0.000000000000000 0.000000000000000 
0.000000000000000 1.000000000000000 0.000000000000000 0.000000000000000 
0.000000000000000 0.000000000000000 1.000000000000000 0.000000000000000 
2  5 1 6 1 7 1 8 1 9 1 10 -1 0
1
1.000000000000000 0.000000000000000 0.000000000000000 0.000000000000000 
0.000000000000000 1.000000000000000 0.000000000000000 0.000000000000000 
0.000000000000000 0.000000000000000 1.000000000000000 3.000000000000000 
2  5 1 6 1 7 1 8 1 9 1 10 -1 12 1 0
1
1.000000000000000 0.000000000000000 0.000000000000000 0.000000000000000 
0.000000000000000 1.000000000000000 0.000000000000000 0.000000000000000 
0.000000000000000 0.000000000000000 1.000000000000000 0.000000000000000 
1
1.000000000000000 0.000000000000000 0.000000000000000 0.000000000000000 
0.000000000000000 1.000000000000000 0.000000000000000 0.000000000000000 
0.000000000000000 0.000000000000000 1.000000000000000 0.000000000000000 
1
1.000000000000000 0.000000000000000 0.000000000000000 0.000000000000000 
0.000000000000000 1.000000000000000 0.000000000000000 0.000000000000000 
0.000000000000000 0.000000000000000 1.000000000000000 0.000000000000000 
2  14 1 15 1 16 1 5 1 6 1 7 1 8 1 9 1 10 -1 0
2  10 1 9 -1 8 -1 7 -1 6 -1 5 -1 16 -1 15 -1 14 -1 0
2  12 -1 10 1 9 -1 8 -1 7 -1 6 -1 5 -1 16 -1 15 -1 14 -1 0
1
1.000000000000000 0.000000000000000 0.000000000000000 0.000000000000000 
0.000000000000000 1.000000000000000 0.000000000000000 0.000000000000000 
0.000000000000000 0.000000000000000 1.000000000000000 0.000000000000000 
2  10 1 9 -1 8 -1 7 -1 20 -1 5 -1 16 -1 15 -1 14 -1 0
2  12 -1 10 1 9 -1 8 -1 7 -1 20 -1 5 -1 16 -1 15 -1 14 -1 0
2  7 -1 6 -1 5 -1 16 -1 15 -1 14 -1 0
2  7 -1 20 -1 5 -1 16 -1 15 -1 14 -1 0
2  16 -1 15 -1 14 -1 0
2  14 1 15 1 16 1 5 1 6 1 7 1 8 1 9 1 10 -1 12 1 0
1
-0.500000000000000 -0.866025403784439 0.000000000000000 0.000000000000000 
0.866025403784439 -0.500000000000000 0.000000000000000 0.000000000000000 
0.000000000000000 0.000000000000000 1.000000000000000 0.000000000000000 
2  10 1 9 -1 8 -1 7 -1 27 -1 5 -1 16 -1 15 -1 14 -1 0
2  12 -1 10 1 9 -1 8 -1 7 -1 27 -1 5 -1 16 -1 15 -1 14 -1 0
2  7 -1 27 -1 5 -1 16 -1 15 -1 14 -1 0
1
1.000000000000000 0.000000000000000 0.000000000000000 0.000000000000000 
0.000000000000000 1.000000000000000 0.000000000000000 0.000000000000000 
0.000000000000000 0.000000000000000 1.000000000000000 0.000000000000000 
1
1.000000000000000 0.000000000000000 0.000000000000000 0.000000000000000 
0.000000000000000 1.000000000000000 0.000000000000000 0.000000000000000 
0.000000000000000 0.000000000000000 1.000000000000000 0.000000000000000 
2  31 1 32 1 16 1 5 1 6 1 7 1 8 1 9 1 10 -1 0
2  10 1 9 -1 8 -1 7 -1 6 -1 5 -1 16 -1 32 -1 31 -1 0
2  12 -1 10 1 9 -1 8 -1 7 -1 6 -1 5 -1 16 -1 32 -1 31 -1 0
2  7 -1 6 -1 5 -1 16 -1 32 -1 31 -1 0
2  16 -1 32 -1 31 -1 0
2  31 1 32 1 16 1 5 1 6 1 7 1 8 1 9 1 10 -1 12 1 0
2  8 1 9 1 10 -1 2 1 3 -1 0
2  14 1 15 1 16 1 5 1 6 1 7 1 8 1 9 1 10 -1 2 1 3 -1 0
2  31 1 32 1 16 1 5 1 6 1 7 1 8 1 9 1 10 -1 2 1 3 -1 0
2  10 1 9 -1 8 -1 7 -1 20 -1 5 -1 16 -1 32 -1 31 -1 0
2  12 -1 10 1 9 -1 8 -1 7 -1 20 -1 5 -1 16 -1 32 -1 31 -1 0
2  10 1 9 -1 8 -1 7 -1 27 -1 5 -1 16 -1 32 -1 31 -1 0
2  12 -1 10 1 9 -1 8 -1 7 -1 27 -1 5 -1 16 -1 32 -1 31 -1 0
2  7 -1 20 -1 5 -1 16 -1 32 -1 31 -1 0
2  7 -1 27 -1 5 -1 16 -1 32 -1 31 -1 0
2  5 1 20 1 6 -1 5 -1 16 -1 15 -1 14 -1 0
2  31 1 32 1 16 1 5 1 20 1 7 1 8 1 9 1 10 -1 2 1 3 -1 0
2  5 1 27 1 6 -1 5 -1 16 -1 32 -1 31 -1 0
2  14 1 15 1 16 1 5 1 27 1 7 1 8 1 9 1 10 -1 2 1 3 -1 0
2  14 1 15 1 16 1 5 1 20 1 7 1 8 1 9 1 10 -1 2 1 3 -1 0
2  31 1 32 1 16 1 5 1 27 1 7 1 8 1 9 1 10 -1 2 1 3 -1 0
2  5 1 20 1 27 -1 5 -1 16 -1 32 -1 31 -1 0
1
1.000000000000000 0.000000000000000 0.000000000000000 -25.000000000000000 
0.000000000000000 1.000000000000000 0.000000000000000 321.999999999718568 
0.000000000000000 0.000000000000000 1.000000000000000 0.000000000000000 
1
1.000000000000000 0.000000000000000 0.000000000000000 0.000000000000000 
0.000000000000000 1.000000000000000 0.000000000000000 347.000000000000114 
0.000000000000000 0.000000000000000 1.000000000000000 0.000000000000000 
2  8 1 9 1 10 -1 2 1 3 -1 56 -1 0
1
1.000000000000000 0.000000000000000 0.000000000000000 25.000000000000000 
0.000000000000000 1.000000000000000 0.000000000000000 321.999999999999886 
0.000000000000000 0.000000000000000 1.000000000000000 0.000000000000000 
2  8 1 9 1 10 -1 2 1 3 -1 58 -1 0
2  8 1 9 1 10 -1 2 1 3 -1 55 -1 0
2  8 1 9 1 10 -1 12 1 2 1 3 -1 0
2  14 1 15 1 16 1 5 1 6 1 7 1 8 1 9 1 10 -1 12 1 2 1 3 -1 0
2  31 1 32 1 16 1 5 1 6 1 7 1 8 1 9 1 10 -1 12 1 2 1 3 -1 0
2  31 1 32 1 16 1 5 1 20 1 7 1 8 1 9 1 10 -1 12 1 2 1 3 -1 0
2  14 1 15 1 16 1 5 1 27 1 7 1 8 1 9 1 10 -1 12 1 2 1 3 -1 0
2  14 1 15 1 16 1 5 1 20 1 7 1 8 1 9 1 10 -1 12 1 2 1 3 -1 0
2  31 1 32 1 16 1 5 1 27 1 7 1 8 1 9 1 10 -1 12 1 2 1 3 -1 0
2  5 1 20 1 7 1 8 1 9 1 10 -1 0
2  5 1 20 1 7 1 8 1 9 1 10 -1 12 1 0
2  31 1 32 1 16 1 5 1 20 1 7 1 8 1 9 1 10 -1 0
2  31 1 32 1 16 1 5 1 20 1 7 1 8 1 9 1 10 -1 12 1 0
2  5 1 27 1 7 1 8 1 9 1 10 -1 0
2  5 1 27 1 7 1 8 1 9 1 10 -1 12 1 0
2  14 1 15 1 16 1 5 1 27 1 7 1 8 1 9 1 10 -1 0
2  14 1 15 1 16 1 5 1 27 1 7 1 8 1 9 1 10 -1 12 1 0
2  14 1 15 1 16 1 5 1 20 1 7 1 8 1 9 1 10 -1 0
2  14 1 15 1 16 1 5 1 20 1 7 1 8 1 9 1 10 -1 12 1 0
2  31 1 32 1 16 1 5 1 27 1 7 1 8 1 9 1 10 -1 0
2  31 1 32 1 16 1 5 1 27 1 7 1 8 1 9 1 10 -1 12 1 0
2  55 -1 0
2  58 -1 0
2  56 -1 0
Curve2ds 133
1 1.34948188444710726 0.00000000000000000 0.00000000000000000 -1.00000000000000000 
1 4.49107453803690060 0.00000000000000000 0.00000000000000000 -1.00000000000000000 
1 1.57079632679489656 0.00000000000000000 0.00000000000000000 -1.00000000000000000 
1 1.57079632679489656 0.00000000000000000 0.00000000000000000 -1.00000000000000000 
1 0.00000000000000000 0.00000000000000000 1.00000000000000000 0.00000000000000000 
1 0.00000000000000000 -3.00000000000000000 1.00000000000000000 0.00000000000000000 
1 0.00000000000000000 0.00000000000000000 1.00000000000000000 0.00000000000000000 
1 0.00000000000000000 -3.00000000000000000 1.00000000000000000 0.00000000000000000 
2 241.62108765585779224 -139.49999999999985789 0.50000000000000067 0.86602540378443837 0.86602540378443837 -0.50000000000000067 82.00000000000076739
2 0.00000000000002679 278.99999999999931788 -1.00000000000000000 0.00000000000000000 0.00000000000000000 1.00000000000000000 82.00000000000072475
1 4.67717488133159343 0.00000000000000000 0.00000000000000000 -1.00000000000000000 
1 1.53558222774180031 0.00000000000000000 0.00000000000000000 -1.00000000000000000 
1 0.00000000000000000 0.00000000000000000 1.00000000000000000 0.00000000000000000 
1 0.00000000000000000 -3.00000000000000000 1.00000000000000000 0.00000000000000000 
1 0.00000000000000000 0.00000000000000000 1.00000000000000000 0.00000000000000000 
1 0.00000000000000000 -3.00000000000000000 1.00000000000000000 0.00000000000000000 
1 0.00000000000000000 0.00000000000000000 1.00000000000000000 0.00000000000000000 
1 0.00000000000000000 -3.00000000000000000 1.00000000000000000 0.00000000000000000 
2 398.18515226136997853 -188.32308546376111735 0.50000000000000067 0.86602540378443837 0.86602540378443837 -0.50000000000000067 82.00000000000156319
2 -36.00000000000014211 439.00000000000153477 -1.00000000000000000 0.00000000000000000 0.00000000000000000 1.00000000000000000 82.00000000000153477
2 -362.18515226136992169 -250.67691453624058795 0.49999999999999978 -0.86602540378443882 -0.86602540378443882 -0.49999999999999978 82.00000000000156319
1 4.49107453803690060 0.00000000000000000 0.00000000000000000 -1.00000000000000000 
1 1.34948188444710726 0.00000000000000000 0.00000000000000000 -1.00000000000000000 
1 0.00000000000000000 0.00000000000000000 1.00000000000000000 0.00000000000000000 
1 0.00000000000000000 -3.00000000000000000 1.00000000000000000 0.00000000000000000 
2 241.62108765585779224 -139.49999999999985789 -0.50000000000000067 -0.86602540378443837 0.86602540378443837 -0.50000000000000067 82.00000000000073896
1 0.00000000000000000 0.00000000000000000 1.00000000000000000 0.00000000000000000 
1 0.00000000000000000 -3.00000000000000000 1.00000000000000000 0.00000000000000000 
1 0.00000000000000000 0.00000000000000000 1.00000000000000000 0.00000000000000000 
1 0.00000000000000000 -3.00000000000000000 1.00000000000000000 0.00000000000000000 
1 0.00000000000000000 0.00000000000000000 1.00000000000000000 0.00000000000000000 
1 0.00000000000000000 -3.00000000000000000 1.00000000000000000 0.00000000000000000 
2 323.12233904495508341 -148.44108360781268630 0.50000000000000067 0.86602540378443837 0.86602540378443837 -0.50000000000000067 3.00000000000000000
2 -33.00742015282212094 354.05269594708573777 -1.00000000000000000 0.00000000000000000 0.00000000000000000 1.00000000000000000 3.00000000000000000
2 -290.11491889213300510 -205.61161233927319358 0.49999999999999978 -0.86602540378443882 -0.86602540378443882 -0.49999999999999978 3.00000000000000000
1 0.00000000000000000 0.00000000000000000 1.00000000000000000 0.00000000000000000 
1 0.00000000000000000 -3.00000000000000000 1.00000000000000000 0.00000000000000000 
1 0.00000000000000000 0.00000000000000000 1.00000000000000000 0.00000000000000000 
1 0.00000000000000000 -3.00000000000000000 1.00000000000000000 0.00000000000000000 
1 0.00000000000000000 0.00000000000000000 1.00000000000000000 0.00000000000000000 
1 0.00000000000000000 -3.00000000000000000 1.00000000000000000 0.00000000000000000 
2 36.00000000000019895 439.00000000000153477 1.00000000000000000 0.00000000000000000 -0.00000000000000000 1.00000000000000000 82.00000000000153477
2 -398.18515226137003538 -188.32308546376071945 -0.49999999999999978 0.86602540378443882 -0.86602540378443882 -0.49999999999999978 82.00000000000153477
2 362.18515226136969432 -250.67691453624101428 -0.50000000000000067 -0.86602540378443837 0.86602540378443837 -0.50000000000000067 82.00000000000154898
1 0.00000000000000000 0.00000000000000000 1.00000000000000000 0.00000000000000000 
1 0.00000000000000000 -3.00000000000000000 1.00000000000000000 0.00000000000000000 
2 618.34213830302041970 357.00000000161190883 0.50000000000000067 0.86602540378443837 0.86602540378443837 -0.50000000000000067 582.34213830395106015
1 0.00000000000000000 0.00000000000000000 1.00000000000000000 0.00000000000000000 
1 0.00000000000000000 -3.00000000000000000 1.00000000000000000 0.00000000000000000 
1 0.00000000000000000 0.00000000000000000 1.00000000000000000 0.00000000000000000 
1 0.00000000000000000 -3.00000000000000000 1.00000000000000000 0.00000000000000000 
1 0.00000000000000000 0.00000000000000000 1.00000000000000000 0.00000000000000000 
1 0.00000000000000000 -3.00000000000000000 1.00000000000000000 0.00000000000000000 
2 33.00742015282217778 354.05269594708573777 1.00000000000000000 0.00000000000000000 -0.00000000000000000 1.00000000000000000 3.00000000000000000
2 -323.12233904495508341 -148.44108360781231681 -0.49999999999999978 0.86602540378443882 -0.86602540378443882 -0.49999999999999978 3.00000000000000000
2 290.11491889213289141 -205.61161233927353464 -0.50000000000000067 -0.86602540378443837 0.86602540378443837 -0.50000000000000067 3.00000000000000000
1 0.00000000000000000 0.00000000000000000 1.00000000000000000 0.00000000000000000 
1 0.00000000000000000 -3.00000000000000000 1.00000000000000000 0.00000000000000000 
2 618.34213830395083278 357.00000000000000000 1.00000000000000000 0.00000000000000000 -0.00000000000000000 1.00000000000000000 582.34213830395083278
1 0.00000000000000000 0.00000000000000000 1.00000000000000000 0.00000000000000000 
1 0.00000000000000000 -3.00000000000000000 1.00000000000000000 0.00000000000000000 
2 -0.00000000093129579 -714.00000000161242042 -0.50000000000000067 -0.86602540378443837 0.86602540378443837 -0.50000000000000067 582.34213830395106015
1 0.00000000000000000 0.00000000000000000 1.00000000000000000 0.00000000000000000 
1 0.00000000000000000 -3.00000000000000000 1.00000000000000000 0.00000000000000000 
1 0.00000000000000000 0.00000000000000000 1.00000000000000000 0.00000000000000000 
1 0.00000000000000000 -3.00000000000000000 1.00000000000000000 0.00000000000000000 
2 -618.34213830395083278 357.00000000000000000 -1.00000000000000000 0.00000000000000000 0.00000000000000000 1.00000000000000000 582.34213830395083278
2 0.00000000093066724 -714.00000000161219305 0.49999999999999978 -0.86602540378443882 -0.86602540378443882 -0.49999999999999978 582.34213830395071909
1 0.00000000000000000 0.00000000000000000 1.00000000000000000 0.00000000000000000 
1 0.00000000000000000 -3.00000000000000000 1.00000000000000000 0.00000000000000000 
2 0.00000000000002679 278.99999999999931788 1.00000000000000000 0.00000000000000000 -0.00000000000000000 1.00000000000000000 82.00000000000072475
1 0.00000000000000000 0.00000000000000000 1.00000000000000000 0.00000000000000000 
1 0.00000000000000000 -3.00000000000000000 1.00000000000000000 0.00000000000000000 
2 -241.62108765585782066 -139.49999999999957367 0.49999999999999978 -0.86602540378443882 -0.86602540378443882 -0.49999999999999978 82.00000000000072475
1 0.00000000000000000 0.00000000000000000 1.00000000000000000 0.00000000000000000 
1 0.00000000000000000 -3.00000000000000000 1.00000000000000000 0.00000000000000000 
2 -241.62108765585782066 -139.49999999999957367 -0.49999999999999978 0.86602540378443882 -0.86602540378443882 -0.49999999999999978 82.00000000000073896
1 0.00000000000000000 0.00000000000000000 1.00000000000000000 0.00000000000000000 
1 0.00000000000000000 -3.00000000000000000 1.00000000000000000 0.00000000000000000 
2 -618.34213830301996495 357.00000000161242042 -0.49999999999999978 0.86602540378443882 -0.86602540378443882 -0.49999999999999978 582.34213830395083278
2 0.00000000000000000 0.00000000000000000 -1.00000000000000000 0.00000000000000000 0.00000000000000000 1.00000000000000000 1.69999999999999996
1 0.00000000000000000 0.00000000000000000 1.00000000000000000 0.00000000000000000 
2 0.00000000000002679 347.00000000000011369 -1.00000000000000000 0.00000000000000000 0.00000000000000000 1.00000000000000000 1.69999999999999996
2 25.00000000000002842 321.99999999999988631 -1.00000000000000000 0.00000000000000000 0.00000000000000000 1.00000000000000000 1.69999999999999929
2 -24.99999999999997158 321.99999999971856823 -1.00000000000000000 0.00000000000000000 0.00000000000000000 1.00000000000000000 1.69999999999999929
2 -24.99999999999997158 321.99999999971856823 -1.00000000000000000 0.00000000000000000 -0.00000000000000000 -1.00000000000000000 1.69999999999999996
1 6.28318530717958623 3.00000000000000000 -1.00000000000000000 0.00000000000000000 
2 25.00000000000002842 321.99999999999988631 -1.00000000000000000 0.00000000000000000 -0.00000000000000000 -1.00000000000000000 1.69999999999999996
1 6.28318530717958623 3.00000000000000000 -1.00000000000000000 0.00000000000000000 
2 0.00000000000002679 347.00000000000011369 -1.00000000000000000 0.00000000000000000 -0.00000000000000000 -1.00000000000000000 1.69999999999999996
1 6.28318530717958623 3.00000000000000000 -1.00000000000000000 0.00000000000000000 
1 0.00503520302751024 0.00000000000000000 0.00000000000000000 -1.00000000000000000 
1 3.14662785661730249 0.00000000000000000 0.00000000000000000 -1.00000000000000000 
1 1.53558222774180031 0.00000000000000000 0.00000000000000000 -1.00000000000000000 
1 4.67717488133159343 0.00000000000000000 0.00000000000000000 -1.00000000000000000 
1 3.66519142918678842 0.00000000000000000 0.00000000000000000 -1.00000000000000000 
1 3.66519142918678842 0.00000000000000000 0.00000000000000000 -1.00000000000000000 
1 3.14662785661730249 0.00000000000000000 0.00000000000000000 -1.00000000000000000 
1 0.00503520302751024 0.00000000000000000 0.00000000000000000 -1.00000000000000000 
1 3.14662785661730249 0.00000000000000000 0.00000000000000000 -1.00000000000000000 
1 0.00503520302751024 0.00000000000000000 0.00000000000000000 -1.00000000000000000 
1 3.66519142918678842 0.00000000000000000 0.00000000000000000 -1.00000000000000000 
1 3.66519142918678842 0.00000000000000000 0.00000000000000000 -1.00000000000000000 
1 1.53558222774180031 0.00000000000000000 0.00000000000000000 -1.00000000000000000 
1 4.67717488133159343 0.00000000000000000 0.00000000000000000 -1.00000000000000000 
1 0.00503520302751024 0.00000000000000000 0.00000000000000000 -1.00000000000000000 
1 3.14662785661730249 0.00000000000000000 0.00000000000000000 -1.00000000000000000 
1 4.49107453803690060 0.00000000000000000 0.00000000000000000 -1.00000000000000000 
1 1.34948188444710726 0.00000000000000000 0.00000000000000000 -1.00000000000000000 
1 4.67717488133159343 0.00000000000000000 0.00000000000000000 -1.00000000000000000 
1 1.53558222774180031 0.00000000000000000 0.00000000000000000 -1.00000000000000000 
1 1.57079632679489656 0.00000000000000000 0.00000000000000000 -1.00000000000000000 
1 1.57079632679489656 0.00000000000000000 0.00000000000000000 -1.00000000000000000 
1 1.34948188444710726 0.00000000000000000 0.00000000000000000 -1.00000000000000000 
1 4.49107453803690060 0.00000000000000000 0.00000000000000000 -1.00000000000000000 
1 1.34948188444710726 0.00000000000000000 0.00000000000000000 -1.00000000000000000 
1 4.49107453803690060 0.00000000000000000 0.00000000000000000 -1.00000000000000000 
1 1.57079632679489656 0.00000000000000000 0.00000000000000000 -1.00000000000000000 
1 1.57079632679489656 0.00000000000000000 0.00000000000000000 -1.00000000000000000 
1 4.67717488133159343 0.00000000000000000 0.00000000000000000 -1.00000000000000000 
1 1.53558222774180031 0.00000000000000000 0.00000000000000000 -1.00000000000000000 
1 4.49107453803690060 0.00000000000000000 0.00000000000000000 -1.00000000000000000 
1 1.34948188444710726 0.00000000000000000 0.00000000000000000 -1.00000000000000000 
1 0.00503520302751024 0.00000000000000000 0.00000000000000000 -1.00000000000000000 
1 3.14662785661730249 0.00000000000000000 0.00000000000000000 -1.00000000000000000 
1 1.53558222774180031 0.00000000000000000 0.00000000000000000 -1.00000000000000000 
1 4.67717488133159343 0.00000000000000000 0.00000000000000000 -1.00000000000000000 
1 3.66519142918678842 0.00000000000000000 0.00000000000000000 -1.00000000000000000 
1 3.66519142918678842 0.00000000000000000 0.00000000000000000 -1.00000000000000000 
1 3.14662785661730249 0.00000000000000000 0.00000000000000000 -1.00000000000000000 
1 0.00503520302751024 0.00000000000000000 0.00000000000000000 -1.00000000000000000 
1 6.28318530717958623 0.00000000000000000 0.00000000000000000 1.00000000000000000 
1 0.00000000000000000 0.00000000000000000 0.00000000000000000 1.00000000000000000 
Curves 37
1 319.90311995861344485 -163.91154273188035972 0.00000000000000000 0.00000000000000000 0.00000000000000000 1.00000000000000000 
1 312.63517076618234114 -180.50000000000028422 0.00000000000000000 0.00000000000000000 0.00000000000000000 1.00000000000000000 
2 -0.00000000000000000 278.99999999999931788 0.00000000000000000 0.00000000000000000 0.00000000000000000 -1.00000000000000000 -1.00000000000000000 -0.00000000000000000 -0.00000000000000000 -0.00000000000000000 1.00000000000000000 0.00000000000000000 82.00000000000072475
1 325.77161480553439787 -149.84868367331677064 0.00000000000000000 0.00000000000000000 0.00000000000000000 1.00000000000000000 
2 -36.00000000000017053 439.00000000000153477 0.00000000000000000 0.00000000000000000 0.00000000000000000 -1.00000000000000000 -1.00000000000000000 -0.00000000000000000 -0.00000000000000000 -0.00000000000000000 1.00000000000000000 0.00000000000000000 82.00000000000153477
1 301.90311995861344485 -195.08845726812018029 0.00000000000000000 0.00000000000000000 0.00000000000000000 1.00000000000000000 
2 0.00000000000000000 278.99999999999931788 0.00000000000000000 0.00000000000000000 0.00000000000000000 1.00000000000000000 1.00000000000000000 0.00000000000000000 -0.00000000000000000 -0.00000000000000000 1.00000000000000000 0.00000000000000000 82.00000000000072475
2 -33.00742015282214936 354.05269594708573777 0.00000000000000000 0.00000000000000000 0.00000000000000000 -1.00000000000000000 -1.00000000000000000 -0.00000000000000000 -0.00000000000000000 -0.00000000000000000 1.00000000000000000 0.00000000000000000 3.00000000000000000
2 36.00000000000017053 439.00000000000153477 0.00000000000000000 0.00000000000000000 0.00000000000000000 1.00000000000000000 1.00000000000000000 0.00000000000000000 -0.00000000000000000 -0.00000000000000000 1.00000000000000000 0.00000000000000000 82.00000000000153477
2 -618.34213830395083278 357.00000000000000000 0.00000000000000000 0.00000000000000000 0.00000000000000000 -1.00000000000000000 -1.00000000000000000 -0.00000000000000000 -0.00000000000000000 -0.00000000000000000 1.00000000000000000 0.00000000000000000 582.34213830395083278
2 33.00742015282214936 354.05269594708573777 0.00000000000000000 0.00000000000000000 0.00000000000000000 1.00000000000000000 1.00000000000000000 0.00000000000000000 -0.00000000000000000 -0.00000000000000000 1.00000000000000000 0.00000000000000000 3.00000000000000000
2 618.34213830395083278 357.00000000000000000 0.00000000000000000 0.00000000000000000 0.00000000000000000 1.00000000000000000 1.00000000000000000 0.00000000000000000 -0.00000000000000000 -0.00000000000000000 1.00000000000000000 0.00000000000000000 582.34213830395083278
2 0.00000000000000000 0.00000000000000000 0.00000000000000000 -0.00000000000000000 -0.00000000000000000 -1.00000000000000000 -1.00000000000000000 0.00000000000000000 0.00000000000000000 0.00000000000000000 1.00000000000000000 -0.00000000000000000 1.69999999999999996
2 -25.00000000000000000 321.99999999971856823 3.00000000000000000 0.00000000000000000 0.00000000000000000 1.00000000000000000 -1.00000000000000000 0.00000000000000000 0.00000000000000000 0.00000000000000000 -1.00000000000000000 0.00000000000000000 1.69999999999999996
2 25.00000000000000000 321.99999999999988631 3.00000000000000000 0.00000000000000000 0.00000000000000000 1.00000000000000000 -1.00000000000000000 0.00000000000000000 0.00000000000000000 0.00000000000000000 -1.00000000000000000 0.00000000000000000 1.69999999999999996
2 0.00000000000000000 347.00000000000011369 3.00000000000000000 0.00000000000000000 0.00000000000000000 1.00000000000000000 -1.00000000000000000 0.00000000000000000 0.00000000000000000 0.00000000000000000 -1.00000000000000000 0.00000000000000000 1.69999999999999996
1 324.63540181597034007 -145.85059310387958931 0.00000000000000000 0.00000000000000000 0.00000000000000000 1.00000000000000000 
1 292.65857418751767227 -207.20215241681356133 0.00000000000000000 0.00000000000000000 0.00000000000000000 1.00000000000000000 
1 114.01905283811308323 65.82893084883060908 0.00000000000000000 0.00000000000000000 0.00000000000000000 1.00000000000000000 
1 288.62801969297220239 -208.21720838845990897 0.00000000000000000 0.00000000000000000 0.00000000000000000 1.00000000000000000 
1 36.00738212299824426 354.06780149233901511 0.00000000000000000 0.00000000000000000 0.00000000000000000 1.00000000000000000 
1 -0.00000000000014211 -131.65786169766141711 0.00000000000000000 0.00000000000000000 0.00000000000000000 1.00000000000000000 
1 33.11304061801665455 357.05083609012979196 0.00000000000000000 0.00000000000000000 0.00000000000000000 1.00000000000000000 
1 -288.62801969297220239 -208.21720838845948265 0.00000000000000000 0.00000000000000000 0.00000000000000000 1.00000000000000000 
1 18.00000000000000000 359.00000000000000000 0.00000000000000000 0.00000000000000000 0.00000000000000000 1.00000000000000000 
1 -292.65857418751784280 -207.20215241681319185 0.00000000000000000 0.00000000000000000 0.00000000000000000 1.00000000000000000 
1 0.00000000000000000 361.00000000000005684 0.00000000000000000 0.00000000000000000 0.00000000000000000 1.00000000000000000 
1 -301.90311995861355854 -195.08845726811981081 0.00000000000000000 0.00000000000000000 0.00000000000000000 1.00000000000000000 
1 -18.00000000000000000 359.00000000000000000 0.00000000000000000 0.00000000000000000 0.00000000000000000 1.00000000000000000 
1 -312.63517076618251167 -180.49999999999997158 0.00000000000000000 0.00000000000000000 0.00000000000000000 1.00000000000000000 
1 -33.11304061801665455 357.05083609012979196 0.00000000000000000 0.00000000000000000 0.00000000000000000 1.00000000000000000 
1 -319.90311995861355854 -163.91154273188001866 0.00000000000000000 0.00000000000000000 0.00000000000000000 1.00000000000000000 
1 -36.00738212299823005 354.06780149233890143 0.00000000000000000 0.00000000000000000 0.00000000000000000 1.00000000000000000 
1 -325.77161480553445472 -149.84868367331642958 0.00000000000000000 0.00000000000000000 0.00000000000000000 1.00000000000000000 
1 -114.01905283811295533 65.82893084883079382 0.00000000000000000 0.00000000000000000 0.00000000000000000 1.00000000000000000 
1 -324.63540181597056744 -145.85059310387927667 0.00000000000000000 0.00000000000000000 0.00000000000000000 1.00000000000000000 
1 -1.69999999999999996 0.00000000000000000 0.00000000000000000 0.00000000000000006 0.00000000000000000 1.00000000000000000 
Polygon3D 0
PolygonOnTriangulations 0
Surfaces 27
2 241.62108765585776382 -139.49999999999988631 0.00000000000000000 0.00000000000000000 -0.00000000000000000 -1.00000000000000000 0.50000000000000067 0.86602540378443837 0.00000000000000000 0.86602540378443837 -0.50000000000000067 0.00000000000000000 82.00000000000073896
2 398.18515226136997853 -188.32308546376114577 0.00000000000000000 0.00000000000000000 -0.00000000000000000 -1.00000000000000000 0.50000000000000067 0.86602540378443837 0.00000000000000000 0.86602540378443837 -0.50000000000000067 0.00000000000000000 82.00000000000154898
2 241.62108765585776382 -139.49999999999988631 0.00000000000000000 -0.00000000000000000 -0.00000000000000000 -1.00000000000000000 -0.50000000000000067 -0.86602540378443837 0.00000000000000000 0.86602540378443837 -0.50000000000000067 -0.00000000000000000 82.00000000000073896
2 -0.00000000000000000 278.99999999999931788 0.00000000000000000 0.00000000000000000 0.00000000000000000 -1.00000000000000000 -1.00000000000000000 -0.00000000000000000 -0.00000000000000000 -0.00000000000000000 1.00000000000000000 0.00000000000000000 82.00000000000072475
1 -0.00000000000002679 -0.00000000000002037 0.00000000000000000 0.00000000000000000 0.00000000000000000 1.00000000000000000 1.00000000000000000 0.00000000000000000 -0.00000000000000000 -0.00000000000000000 1.00000000000000000 0.00000000000000000 
2 323.12233904495508341 -148.44108360781271472 0.00000000000000000 0.00000000000000000 -0.00000000000000000 -1.00000000000000000 0.50000000000000067 0.86602540378443837 0.00000000000000000 0.86602540378443837 -0.50000000000000067 0.00000000000000000 3.00000000000000089
2 -36.00000000000017053 439.00000000000153477 0.00000000000000000 0.00000000000000000 0.00000000000000000 -1.00000000000000000 -1.00000000000000000 -0.00000000000000000 -0.00000000000000000 -0.00000000000000000 1.00000000000000000 0.00000000000000000 82.00000000000153477
2 -362.18515226136992169 -250.67691453624061637 0.00000000000000000 -0.00000000000000000 0.00000000000000000 -1.00000000000000000 0.49999999999999978 -0.86602540378443882 -0.00000000000000000 -0.86602540378443882 -0.49999999999999978 0.00000000000000000 82.00000000000153477
2 362.18515226136969432 -250.67691453624104270 0.00000000000000000 -0.00000000000000000 -0.00000000000000000 -1.00000000000000000 -0.50000000000000067 -0.86602540378443837 0.00000000000000000 0.86602540378443837 -0.50000000000000067 -0.00000000000000000 82.00000000000154898
2 -33.00742015282214936 354.05269594708573777 0.00000000000000000 0.00000000000000000 0.00000000000000000 -1.00000000000000000 -1.00000000000000000 -0.00000000000000000 -0.00000000000000000 -0.00000000000000000 1.00000000000000000 0.00000000000000000 3.00000000000000000
2 -290.11491889213300510 -205.61161233927322201 0.00000000000000000 -0.00000000000000000 0.00000000000000000 -1.00000000000000000 0.49999999999999978 -0.86602540378443882 -0.00000000000000000 -0.86602540378443882 -0.49999999999999978 0.00000000000000000 3.00000000000000000
2 36.00000000000017053 439.00000000000153477 0.00000000000000000 -0.00000000000000000 -0.00000000000000000 -1.00000000000000000 1.00000000000000000 0.00000000000000000 0.00000000000000000 -0.00000000000000000 1.00000000000000000 -0.00000000000000000 82.00000000000153477
2 -398.18515226137003538 -188.32308546376074787 0.00000000000000000 -0.00000000000000000 -0.00000000000000000 -1.00000000000000000 -0.49999999999999978 0.86602540378443882 0.00000000000000000 -0.86602540378443882 -0.49999999999999978 0.00000000000000000 82.00000000000153477
2 618.34213830302041970 357.00000000161190883 0.00000000000000000 0.00000000000000000 -0.00000000000000000 -1.00000000000000000 0.50000000000000067 0.86602540378443837 0.00000000000000000 0.86602540378443837 -0.50000000000000067 0.00000000000000000 582.34213830395094647
2 33.00742015282214936 354.05269594708573777 0.00000000000000000 -0.00000000000000000 -0.00000000000000000 -1.00000000000000000 1.00000000000000000 0.00000000000000000 0.00000000000000000 -0.00000000000000000 1.00000000000000000 -0.00000000000000000 3.00000000000000000
2 -323.12233904495508341 -148.44108360781234524 0.00000000000000000 -0.00000000000000000 -0.00000000000000000 -1.00000000000000000 -0.49999999999999978 0.86602540378443882 0.00000000000000000 -0.86602540378443882 -0.49999999999999978 0.00000000000000000 3.00000000000000000
2 290.11491889213289141 -205.61161233927356307 0.00000000000000000 -0.00000000000000000 -0.00000000000000000 -1.00000000000000000 -0.50000000000000067 -0.86602540378443837 0.00000000000000000 0.86602540378443837 -0.50000000000000067 -0.00000000000000000 3.00000000000000089
2 618.34213830395083278 357.00000000000000000 0.00000000000000000 -0.00000000000000000 -0.00000000000000000 -1.00000000000000000 1.00000000000000000 0.00000000000000000 0.00000000000000000 -0.00000000000000000 1.00000000000000000 -0.00000000000000000 582.34213830395083278
2 -0.00000000093132257 -714.00000000161242042 0.00000000000000000 -0.00000000000000000 -0.00000000000000000 -1.00000000000000000 -0.50000000000000067 -0.86602540378443837 0.00000000000000000 0.86602540378443837 -0.50000000000000067 -0.00000000000000000 582.34213830395094647
2 -618.34213830395083278 357.00000000000000000 0.00000000000000000 0.00000000000000000 0.00000000000000000 -1.00000000000000000 -1.00000000000000000 -0.00000000000000000 -0.00000000000000000 -0.00000000000000000 1.00000000000000000 0.00000000000000000 582.34213830395083278
2 0.00000000093064045 -714.00000000161219305 0.00000000000000000 -0.00000000000000000 0.00000000000000000 -1.00000000000000000 0.49999999999999978 -0.86602540378443882 -0.00000000000000000 -0.86602540378443882 -0.49999999999999978 0.00000000000000000 582.34213830395083278
2 0.00000000000000000 278.99999999999931788 0.00000000000000000 -0.00000000000000000 -0.00000000000000000 -1.00000000000000000 1.00000000000000000 0.00000000000000000 0.00000000000000000 -0.00000000000000000 1.00000000000000000 -0.00000000000000000 82.00000000000072475
2 -241.62108765585784909 -139.49999999999960210 0.00000000000000000 -0.00000000000000000 0.00000000000000000 -1.00000000000000000 0.49999999999999978 -0.86602540378443882 -0.00000000000000000 -0.86602540378443882 -0.49999999999999978 0.00000000000000000 82.00000000000072475
2 -241.62108765585784909 -139.49999999999960210 0.00000000000000000 -0.00000000000000000 -0.00000000000000000 -1.00000000000000000 -0.49999999999999978 0.86602540378443882 0.00000000000000000 -0.86602540378443882 -0.49999999999999978 0.00000000000000000 82.00000000000072475
2 -618.34213830301996495 357.00000000161242042 0.00000000000000000 -0.00000000000000000 -0.00000000000000000 -1.00000000000000000 -0.49999999999999978 0.86602540378443882 0.00000000000000000 -0.86602540378443882 -0.49999999999999978 0.00000000000000000 582.34213830395083278
1 0.00000000000000000 0.00000000000000000 0.00000000000000000 -0.00000000000000000 -0.00000000000000000 -1.00000000000000000 1.00000000000000000 -0.00000000000000000 0.00000000000000000 0.00000000000000000 1.00000000000000000 -0.00000000000000000 
2 0.00000000000000000 0.00000000000000000 0.00000000000000000 0.00000000000000000 0.00000000000000000 1.00000000000000000 -1.00000000000000000 0.00000000000000000 0.00000000000000000 -0.00000000000000000 1.00000000000000000 -0.00000000000000000 1.69999999999999996
Triangulations 0

TShapes 125
Ve
0.000000100000029
-18.000000000000000 359.000000000000000 0.000000000000000
0 0

0101101
*
Ed
 0.000000100000029 1 1 0
1  1 0 0.000000000000000 3.000000000000000
2  1 1 0 0.000000000000000 3.000000000000000
2  2 2 0 0.000000000000000 3.000000000000000
4 C1 1 0 2 0
0

0101000
+125 11 -125 13 *
Ve
0.000000100000037
0.000000000000000 361.000000000000057 0.000000000000000
0 0

0101101
*
Ed
 0.000000100000037 1 1 0
1  2 0 0.000000000000000 3.000000000000000
2  3 1 0 0.000000000000000 3.000000000000000
2  4 3 0 0.000000000000000 3.000000000000000
4 C2 1 0 3 0
0

0101000
+123 11 -123 13 *
Ed
 0.000000100000000 1 1 0
1  3 0 1.349481884447107 1.570796326794897
2  5 1 18 1.349481884447107 1.570796326794897
2  6 1 19 1.349481884447107 1.570796326794897
2  7 4 21 1.349481884447107 1.570796326794897
2  8 4 22 1.349481884447107 1.570796326794897
2  9 5 23 1.349481884447107 1.570796326794897
2  10 5 24 1.349481884447107 1.570796326794897
0

0101000
+125 25 -123 25 *
Wi

0101100
+124 0 -122 0 -121 17 +121 26 *
Fa
0  0.000000100000000 1 0

0101000
+120 0 *
Ve
0.000000100000018
-33.113040618016655 357.050836090129792 0.000000000000000
0 0

0101101
*
Ed
 0.000000100000018 1 1 0
1  4 0 0.000000000000000 3.000000000000000
2  11 2 0 0.000000000000000 3.000000000000000
2  12 6 0 0.000000000000000 3.000000000000000
4 G1 2 0 6 0
0

0101000
+118 11 -118 13 *
Ed
 0.000000100000000 1 1 0
1  5 0 4.491074538036901 4.677174881331593
2  13 2 18 4.491074538036901 4.677174881331593
2  14 2 19 4.491074538036901 4.677174881331593
2  15 7 21 4.491074538036901 4.677174881331593
2  16 7 22 4.491074538036901 4.677174881331593
2  17 8 28 4.491074538036901 4.677174881331593
2  18 8 29 4.491074538036901 4.677174881331593
2  19 5 23 4.491074538036901 4.677174881331593
2  20 5 24 4.491074538036901 4.677174881331593
2  21 5 30 4.491074538036901 4.677174881331593
0

0101000
+125 25 -118 25 *
Wi

0101100
+124 0 -117 0 -116 17 +116 26 *
Fa
0  0.000000100000000 2 0

0101000
+115 0 *
Ve
0.000000100000029
18.000000000000000 359.000000000000000 0.000000000000000
0 0

0101101
*
Ed
 0.000000100000029 1 1 0
1  6 0 0.000000000000000 3.000000000000000
2  22 9 0 0.000000000000000 3.000000000000000
2  23 3 0 0.000000000000000 3.000000000000000
4 C1 9 0 3 0
0

0101000
+113 11 -113 13 *
Ed
 0.000000100000000 1 1 0
1  7 0 1.349481884447107 1.570796326794897
2  24 3 34 1.349481884447107 1.570796326794897
2  25 3 35 1.349481884447107 1.570796326794897
2  26 5 36 1.349481884447107 1.570796326794897
0

0101000
+113 37 -123 37 *
Wi

0101100
+112 0 -122 0 -111 33 +111 38 *
Fa
0  0.000000100000000 3 0

0101000
+110 0 *
Ve
0.000000100000021
-36.007382122998230 354.067801492338901 0.000000000000000
0 0

0101101
*
Ed
 0.000000100000000 1 1 0
1  8 0 0.005035203027510 1.535582227741800
2  27 6 18 0.005035203027510 1.535582227741800
2  28 6 19 0.005035203027510 1.535582227741800
2  29 10 21 0.005035203027510 1.535582227741800
2  30 10 22 0.005035203027510 1.535582227741800
2  31 11 28 0.005035203027510 1.535582227741800
2  32 11 29 0.005035203027510 1.535582227741800
2  33 5 23 0.005035203027510 1.535582227741800
2  34 5 24 0.005035203027510 1.535582227741800
2  35 5 30 0.005035203027510 1.535582227741800
0

0101000
+108 25 -118 25 *
Ve
0.000000100000018
33.113040618016655 357.050836090129792 0.000000000000000
0 0

0101101
*
Ed
 0.000000100000000 1 1 0
1  9 0 4.491074538036901 4.677174881331593
2  36 12 42 4.491074538036901 4.677174881331593
2  37 12 43 4.491074538036901 4.677174881331593
2  38 13 44 4.491074538036901 4.677174881331593
2  39 13 45 4.491074538036901 4.677174881331593
2  40 9 34 4.491074538036901 4.677174881331593
2  41 9 35 4.491074538036901 4.677174881331593
2  42 5 46 4.491074538036901 4.677174881331593
2  43 5 47 4.491074538036901 4.677174881331593
2  44 5 36 4.491074538036901 4.677174881331593
0

0101000
+113 37 -106 37 *
Ve
0.000000100171609
114.019052838113083 65.828930848830609 0.000000000000000
0 0

0101101
*
Ed
 0.000000100000000 1 1 0
1  10 0 3.146627856617302 3.665191429186788
2  45 14 18 3.146627856617302 3.665191429186788
2  46 14 19 3.146627856617302 3.665191429186788
2  47 5 23 3.146627856617302 3.665191429186788
0

0101000
+108 25 -104 48 *
Ve
0.000000100000021
36.007382122998244 354.067801492339015 0.000000000000000
0 0

0101101
*
Ed
 0.000000100000000 1 1 0
1  11 0 0.005035203027510 1.535582227741800
2  48 15 42 0.005035203027510 1.535582227741800
2  49 15 43 0.005035203027510 1.535582227741800
2  50 16 44 0.005035203027510 1.535582227741800
2  51 16 45 0.005035203027510 1.535582227741800
2  52 17 34 0.005035203027510 1.535582227741800
2  53 17 35 0.005035203027510 1.535582227741800
2  54 5 46 0.005035203027510 1.535582227741800
2  55 5 47 0.005035203027510 1.535582227741800
2  56 5 36 0.005035203027510 1.535582227741800
0

0101000
+102 37 -106 37 *
Ed
 0.000000100000000 1 1 0
1  12 0 3.146627856617302 3.665191429186788
2  57 18 42 3.146627856617302 3.665191429186788
2  58 18 43 3.146627856617302 3.665191429186788
2  59 5 46 3.146627856617302 3.665191429186788
0

0101000
+102 37 -104 37 *
Ve
0.000000100171701
-114.019052838112955 65.828930848830794 0.000000000000000
0 0

0101101
*
Ed
 0.000000100000000 1 1 0
1  12 0 3.146627856617302 3.665191429186788
2  60 19 34 3.146627856617302 3.665191429186788
2  61 19 35 3.146627856617302 3.665191429186788
2  62 5 36 3.146627856617302 3.665191429186788
0

0101000
+102 37 -99 50 *
Ed
 0.000000100000000 1 1 0
1  10 0 3.146627856617302 3.665191429186788
2  63 20 21 3.146627856617302 3.665191429186788
2  64 20 22 3.146627856617302 3.665191429186788
2  65 21 28 3.146627856617302 3.665191429186788
2  66 21 29 3.146627856617302 3.665191429186788
2  67 5 24 3.146627856617302 3.665191429186788
2  68 5 30 3.146627856617302 3.665191429186788
0

0101000
+108 25 -99 25 *
Ed
 0.000000100000000 1 1 0
1  7 0 1.349481884447107 1.570796326794897
2  69 22 42 1.349481884447107 1.570796326794897
2  70 22 43 1.349481884447107 1.570796326794897
2  71 5 46 1.349481884447107 1.570796326794897
0

0101000
+113 37 -123 37 *
Ve
0.000000100000005
0.000000000000000 361.000000000000114 0.000000000000000
0 0

0101101
*
Ed
 0.000000100000000 1 1 0
1  3 0 1.349481884447107 1.570796326794897
2  72 23 28 1.349481884447107 1.570796326794897
2  73 23 29 1.349481884447107 1.570796326794897
2  74 5 30 1.349481884447107 1.570796326794897
0

0101000
+125 25 -95 25 *
Ed
 0.000000100000000 1 1 0
1  7 0 1.349481884447107 1.570796326794897
2  75 24 44 1.349481884447107 1.570796326794897
2  76 24 45 1.349481884447107 1.570796326794897
2  77 5 47 1.349481884447107 1.570796326794897
0

0101000
+113 37 -95 37 *
Ed
 0.000000100000000 1 1 0
1  12 0 3.146627856617302 3.665191429186788
2  78 25 44 3.146627856617302 3.665191429186788
2  79 25 45 3.146627856617302 3.665191429186788
2  80 5 47 3.146627856617302 3.665191429186788
0

0101000
+102 37 -99 54 *
Wi

0101100
-121 40 +116 40 +111 41 -107 40 -105 41 +103 40 +101 41 -100 49 -98 41 +101 49 
+97 51 -105 49 -107 51 +96 49 +116 51 -121 52 -94 51 +116 52 +93 53 -107 52 
-105 53 +97 52 +101 53 -92 53 *
Ve
0.000000100000000
-1.700000000000000 0.000000000000000 0.000000000000000
0 0

0101101
*
Ed
 0.000000100000000 1 1 0
1  13 0 0.000000000000000 6.283185307179586
2  81 26 0 0.000000000000000 6.283185307179586
2  82 27 0 0.000000000000000 6.283185307179586
2  83 5 57 0.000000000000000 6.283185307179586
2  84 5 59 0.000000000000000 6.283185307179586
2  85 5 60 0.000000000000000 6.283185307179586
0

0101000
+90 0 -90 0 *
Wi

0101100
+89 55 *
Wi

0101100
+89 58 *
Wi

0101100
+89 56 *
Fa
0  0.000000100000000 5 39

0101000
+91 0 +88 0 +87 0 +86 0 *
Wi

0101100
-121 62 +116 62 +111 63 -107 62 -105 63 +103 62 +101 63 -100 64 -98 63 +101 64 
+97 65 -105 64 -107 65 +96 64 +116 65 -121 66 -94 65 +116 66 +93 67 -107 66 
-105 67 +97 66 +101 67 -92 67 *
Ve
0.000000100000000
-26.699999999999999 321.999999999718568 3.000000000000000
0 0

0101101
*
Ed
 0.000000100000000 1 1 0
1  14 0 0.000000000000000 6.283185307179586
2  86 5 61 0.000000000000000 6.283185307179586
2  87 27 55 0.000000000000000 6.283185307179586
0

0101100
+83 0 -83 0 *
Wi

0101100
-82 0 *
Ve
0.000000100000000
23.300000000000001 321.999999999999886 3.000000000000000
0 0

0101101
*
Ed
 0.000000100000000 1 1 0
1  15 0 0.000000000000000 6.283185307179586
2  88 5 61 0.000000000000000 6.283185307179586
2  89 27 58 0.000000000000000 6.283185307179586
0

0101100
+80 0 -80 0 *
Wi

0101100
-79 0 *
Ve
0.000000100000000
-1.700000000000000 347.000000000000114 3.000000000000000
0 0

0101101
*
Ed
 0.000000100000000 1 1 0
1  16 0 0.000000000000000 6.283185307179586
2  90 5 61 0.000000000000000 6.283185307179586
2  91 27 56 0.000000000000000 6.283185307179586
0

0101100
+77 0 -77 0 *
Wi

0101100
-76 0 *
Fa
0  0.000000100000000 5 61

0101000
+84 0 +81 0 +78 0 +75 0 *
Ed
 0.000000100000021 1 1 0
1  17 0 0.000000000000000 3.000000000000000
2  92 6 0 0.000000000000000 3.000000000000000
2  93 14 0 0.000000000000000 3.000000000000000
4 G1 6 0 14 0
0

0101000
+108 11 -108 13 *
Wi

0101100
+73 0 -117 0 -107 17 +107 26 *
Fa
0  0.000000100000000 6 0

0101000
+72 0 *
Ed
 0.000000100000018 1 1 0
1  18 0 0.000000000000000 3.000000000000000
2  94 17 0 0.000000000000000 3.000000000000000
2  95 9 0 0.000000000000000 3.000000000000000
4 G1 17 0 9 0
0

0101000
+106 11 -106 13 *
Wi

0101100
+112 0 -70 0 -105 33 +105 38 *
Fa
0  0.000000100000000 9 0

0101000
+69 0 *
Ed
 0.000000100171609 1 1 0
1  19 0 0.000000000000000 3.000000000000000
2  96 14 0 0.000000000000000 3.000000000000000
2  97 18 0 0.000000000000000 3.000000000000000
4 C2 14 0 18 0
0

0101000
+104 68 -104 69 *
Wi

0101100
+73 0 -67 0 -103 17 +103 26 *
Fa
0  0.000000100000000 14 0

0101000
+66 0 *
Ed
 0.000000100000021 1 1 0
1  20 0 0.000000000000000 3.000000000000000
2  98 19 0 0.000000000000000 3.000000000000000
2  99 17 0 0.000000000000000 3.000000000000000
4 G1 19 0 17 0
0

0101000
+102 11 -102 13 *
Wi

0101100
+64 0 -70 0 -101 33 +101 38 *
Fa
0  0.000000100000000 17 0

0101000
+63 0 *
Ed
 0.000000100000021 1 1 0
1  21 0 0.000000000000000 3.000000000000000
2  100 18 0 0.000000000000000 3.000000000000000
2  101 15 0 0.000000000000000 3.000000000000000
4 G1 18 0 15 0
0

0101000
+102 68 -102 69 *
Wi

0101100
+61 0 -67 0 -100 70 +100 71 *
Fa
0  0.000000100000000 18 0

0101000
+60 0 *
Ed
 0.000000100171701 1 1 0
1  22 0 0.000000000000000 3.000000000000000
2  102 21 0 0.000000000000000 3.000000000000000
2  103 19 0 0.000000000000000 3.000000000000000
4 C2 21 0 19 0
0

0101000
+99 72 -99 73 *
Wi

0101100
+64 0 -58 0 -98 33 +98 38 *
Fa
0  0.000000100000000 19 0

0101000
+57 0 *
Ed
 0.000000100000018 1 1 0
1  23 0 0.000000000000000 3.000000000000000
2  104 15 0 0.000000000000000 3.000000000000000
2  105 12 0 0.000000000000000 3.000000000000000
4 G1 15 0 12 0
0

0101000
+106 68 -106 69 *
Wi

0101100
+61 0 -55 0 -101 70 +101 71 *
Fa
0  0.000000100000000 15 0

0101000
+54 0 *
Ed
 0.000000100000021 1 1 0
1  24 0 0.000000000000000 3.000000000000000
2  106 11 0 0.000000000000000 3.000000000000000
2  107 21 0 0.000000000000000 3.000000000000000
4 G1 11 0 21 0
0

0101000
+108 72 -108 73 *
Wi

0101100
+52 0 -58 0 -97 74 +97 75 *
Fa
0  0.000000100000000 21 0

0101000
+51 0 *
Ed
 0.000000100000029 1 1 0
1  25 0 0.000000000000000 3.000000000000000
2  108 12 0 0.000000000000000 3.000000000000000
2  109 22 0 0.000000000000000 3.000000000000000
4 C1 12 0 22 0
0

0101000
+113 68 -113 69 *
Wi

0101100
+49 0 -55 0 -105 70 +105 71 *
Fa
0  0.000000100000000 12 0

0101000
+48 0 *
Ed
 0.000000100000018 1 1 0
1  26 0 0.000000000000000 3.000000000000000
2  110 8 0 0.000000000000000 3.000000000000000
2  111 11 0 0.000000000000000 3.000000000000000
4 G1 8 0 11 0
0

0101000
+118 72 -118 73 *
Wi

0101100
+52 0 -46 0 -107 74 +107 75 *
Fa
0  0.000000100000000 11 0

0101000
+45 0 *
Ed
 0.000000100000037 1 1 0
1  27 0 0.000000000000000 3.000000000000000
2  112 22 0 0.000000000000000 3.000000000000000
2  113 4 0 0.000000000000000 3.000000000000000
4 C2 22 0 4 0
0

0101000
+123 68 -123 69 *
Wi

0101100
+49 0 -43 0 -96 70 +96 71 *
Fa
0  0.000000100000000 22 0

0101000
+42 0 *
Ed
 0.000000100000029 1 1 0
1  28 0 0.000000000000000 3.000000000000000
2  114 23 0 0.000000000000000 3.000000000000000
2  115 8 0 0.000000000000000 3.000000000000000
4 C1 23 0 8 0
0

0101000
+125 72 -125 73 *
Wi

0101100
+40 0 -46 0 -116 74 +116 75 *
Fa
0  0.000000100000000 8 0

0101000
+39 0 *
Ed
 0.000000100000029 1 1 0
1  29 0 0.000000000000000 3.000000000000000
2  116 4 0 0.000000000000000 3.000000000000000
2  117 7 0 0.000000000000000 3.000000000000000
4 C1 4 0 7 0
0

0101000
+125 68 -125 69 *
Wi

0101100
+37 0 -43 0 -121 76 +121 77 *
Fa
0  0.000000100000000 4 0

0101000
+36 0 *
Ed
 0.000000100000005 1 1 0
1  30 0 0.000000000000000 3.000000000000000
2  118 24 0 0.000000000000000 3.000000000000000
2  119 23 0 0.000000000000000 3.000000000000000
4 C2 24 0 23 0
0

0101000
+95 72 -95 73 *
Wi

0101100
+40 0 -34 0 -94 74 +94 75 *
Fa
0  0.000000100000000 23 0

0101000
+33 0 *
Ed
 0.000000100000018 1 1 0
1  31 0 0.000000000000000 3.000000000000000
2  120 7 0 0.000000000000000 3.000000000000000
2  121 10 0 0.000000000000000 3.000000000000000
4 G1 7 0 10 0
0

0101000
+118 68 -118 69 *
Wi

0101100
+37 0 -31 0 -116 76 +116 77 *
Fa
0  0.000000100000000 7 0

0101000
+30 0 *
Ed
 0.000000100000029 1 1 0
1  32 0 0.000000000000000 3.000000000000000
2  122 13 0 0.000000000000000 3.000000000000000
2  123 24 0 0.000000000000000 3.000000000000000
4 C1 13 0 24 0
0

0101000
+113 72 -113 73 *
Wi

0101100
+28 0 -34 0 -93 78 +93 79 *
Fa
0  0.000000100000000 24 0

0101000
+27 0 *
Ed
 0.000000100000021 1 1 0
1  33 0 0.000000000000000 3.000000000000000
2  124 10 0 0.000000000000000 3.000000000000000
2  125 20 0 0.000000000000000 3.000000000000000
4 G1 10 0 20 0
0

0101000
+108 68 -108 69 *
Wi

0101100
+25 0 -31 0 -107 76 +107 77 *
Fa
0  0.000000100000000 10 0

0101000
+24 0 *
Ed
 0.000000100000018 1 1 0
1  34 0 0.000000000000000 3.000000000000000
2  126 16 0 0.000000000000000 3.000000000000000
2  127 13 0 0.000000000000000 3.000000000000000
4 G1 16 0 13 0
0

0101000
+106 72 -106 73 *
Wi

0101100
+28 0 -22 0 -105 78 +105 79 *
Fa
0  0.000000100000000 13 0

0101000
+21 0 *
Ed
 0.000000100171701 1 1 0
1  35 0 0.000000000000000 3.000000000000000
2  128 20 0 0.000000000000000 3.000000000000000
2  129 25 0 0.000000000000000 3.000000000000000
4 C2 20 0 25 0
0

0101000
+99 68 -99 69 *
Wi

0101100
+25 0 -19 0 -97 76 +97 77 *
Fa
0  0.000000100000000 20 0

0101000
+18 0 *
Ed
 0.000000100000021 1 1 0
1  36 0 0.000000000000000 3.000000000000000
2  130 25 0 0.000000000000000 3.000000000000000
2  131 16 0 0.000000000000000 3.000000000000000
4 G1 25 0 16 0
0

0101000
+102 72 -102 73 *
Wi

0101100
+16 0 -22 0 -101 78 +101 79 *
Fa
0  0.000000100000000 16 0

0101000
+15 0 *
Wi

0101100
+16 0 -19 0 -92 78 +92 79 *
Fa
0  0.000000100000000 25 0

0101000
+13 0 *
Ed
 0.000000100000000 1 1 0
1  37 0 0.000000000000000 3.000000000000000
3  132 133CN 27 0 0.000000000000000 3.000000000000000
0

0101000
+90 0 -83 80 *
Wi

0101100
-11 55 +82 0 +11 55 +89 55 *
Fa
0  0.000000100000000 27 55

0101000
+10 0 *
Ed
 0.000000100000000 1 1 0
1  37 0 0.000000000000000 3.000000000000000
3  132 133CN 27 0 0.000000000000000 3.000000000000000
0

0101000
+90 0 -80 81 *
Wi

0101100
-8 58 +79 0 +8 58 +89 58 *
Fa
0  0.000000100000000 27 58

0101000
+7 0 *
Ed
 0.000000100000000 1 1 0
1  37 0 0.000000000000000 3.000000000000000
3  132 133CN 27 0 0.000000000000000 3.000000000000000
0

0101000
+90 0 -77 82 *
Wi

0101100
-5 56 +76 0 +5 56 +89 56 *
Fa
0  0.000000100000000 27 56

0101000
+4 0 *
Sh

0101100
+119 4 -114 4 -109 4 -85 0 +74 0 +71 4 +68 4 -65 4 -62 4 +59 4 
+56 4 -53 4 -50 4 +47 4 +44 4 -41 4 -38 4 +35 4 +32 4 -29 4 
-26 4 +23 4 +20 4 -17 4 -14 4 +12 4 +9 0 +6 0 +3 0 *
So

0100000
+2 0 *

+1 1 