
CASCADE Topology V1, (c) Matra-Datavision
Locations 50
1
1.000000000000000 0.000000000000000 0.000000000000000 0.000000000000000 
0.000000000000000 1.000000000000000 0.000000000000000 0.000000000000000 
0.000000000000000 0.000000000000000 1.000000000000000 0.000000000000000 
1
1.000000000000000 0.000000000000000 0.000000000000000 0.000000000000000 
0.000000000000000 1.000000000000000 0.000000000000000 0.000000000000000 
0.000000000000000 0.000000000000000 1.000000000000000 0.000000000000000 
1
1.000000000000000 0.000000000000000 0.000000000000000 0.000000000000000 
0.000000000000000 1.000000000000000 0.000000000000000 0.000000000000000 
0.000000000000000 0.000000000000000 1.000000000000000 0.000000000000000 
1
1.000000000000000 0.000000000000000 0.000000000000000 0.000000000000000 
0.000000000000000 1.000000000000000 0.000000000000000 0.000000000000000 
0.000000000000000 0.000000000000000 1.000000000000000 0.000000000000000 
1
1.000000000000000 0.000000000000000 0.000000000000000 0.000000000000000 
0.000000000000000 1.000000000000000 0.000000000000000 0.000000000000000 
0.000000000000000 0.000000000000000 1.000000000000000 0.000000000000000 
1
1.000000000000000 0.000000000000000 0.000000000000000 0.000000000000000 
0.000000000000000 1.000000000000000 0.000000000000000 0.000000000000000 
0.000000000000000 0.000000000000000 1.000000000000000 0.000000000000000 
1
1.000000000000000 0.000000000000000 0.000000000000000 0.000000000000000 
0.000000000000000 1.000000000000000 0.000000000000000 0.000000000000000 
0.000000000000000 0.000000000000000 1.000000000000000 0.000000000000000 
2  2 1 3 -1 4 1 5 -1 6 1 7 -1 0
1
1.000000000000000 0.000000000000000 0.000000000000000 0.000000000000000 
0.000000000000000 1.000000000000000 0.000000000000000 0.000000000000000 
0.000000000000000 0.000000000000000 1.000000000000000 0.000000000000000 
1
1.000000000000000 0.000000000000000 0.000000000000000 0.000000000000000 
0.000000000000000 1.000000000000000 0.000000000000000 0.000000000000000 
0.000000000000000 0.000000000000000 1.000000000000000 0.000000000000000 
1
1.000000000000000 0.000000000000000 0.000000000000000 0.000000000000000 
0.000000000000000 1.000000000000000 0.000000000000000 0.000000000000000 
0.000000000000000 0.000000000000000 1.000000000000000 0.000000000000000 
2  9 1 10 1 11 -1 0
1
1.000000000000000 0.000000000000000 0.000000000000000 0.000000000000000 
0.000000000000000 1.000000000000000 0.000000000000000 0.000000000000000 
0.000000000000000 0.000000000000000 1.000000000000000 3.000000000000000 
2  9 1 10 1 11 -1 13 1 0
2  11 1 10 -1 9 -1 0
2  13 -1 11 1 10 -1 9 -1 0
2  9 1 10 1 11 -1 2 1 3 -1 4 1 5 -1 6 1 7 -1 0
1
1.000000000000000 0.000000000000000 0.000000000000000 -34.575000000000543 
0.000000000000000 1.000000000000000 0.000000000000000 -34.574999999999733 
0.000000000000000 0.000000000000000 1.000000000000000 3.000000000000000 
1
1.000000000000000 0.000000000000000 0.000000000000000 -34.575000000000003 
0.000000000000000 1.000000000000000 0.000000000000000 34.575000000000003 
0.000000000000000 0.000000000000000 1.000000000000000 3.000000000000000 
1
1.000000000000000 0.000000000000000 0.000000000000000 34.575000000000003 
0.000000000000000 1.000000000000000 0.000000000000000 -34.575000000000003 
0.000000000000000 0.000000000000000 1.000000000000000 3.000000000000000 
1
1.000000000000000 0.000000000000000 0.000000000000000 34.575000000000003 
0.000000000000000 1.000000000000000 0.000000000000000 34.575000000000003 
0.000000000000000 0.000000000000000 1.000000000000000 3.000000000000000 
2  4 1 5 -1 6 1 7 -1 0
2  9 1 10 1 11 -1 2 1 3 -1 0
1
1.000000000000000 0.000000000000000 0.000000000000000 -30.300000000000011 
0.000000000000000 1.000000000000000 0.000000000000000 289.500000000000000 
0.000000000000000 0.000000000000000 1.000000000000000 3.000000000000000 
1
1.000000000000000 0.000000000000000 0.000000000000000 -30.299999999999990 
0.000000000000000 1.000000000000000 0.000000000000000 369.500000000000000 
0.000000000000000 0.000000000000000 1.000000000000000 3.000000000000000 
2  6 1 7 -1 0
2  9 1 10 1 11 -1 2 1 3 -1 4 1 5 -1 0
1
1.000000000000000 0.000000000000000 0.000000000000000 0.000000000000030 
0.000000000000000 1.000000000000000 0.000000000000000 306.699999999999989 
0.000000000000000 0.000000000000000 1.000000000000000 3.000000000000000 
1
1.000000000000000 0.000000000000000 0.000000000000000 -0.000000000000035 
0.000000000000000 1.000000000000000 0.000000000000000 359.300000000000011 
0.000000000000000 0.000000000000000 1.000000000000000 3.000000000000000 
2  9 1 10 1 11 -1 13 1 2 1 3 -1 4 1 5 -1 6 1 7 -1 0
2  9 1 10 1 11 -1 13 1 2 1 3 -1 4 1 5 -1 6 1 7 -1 20 -1 0
2  9 1 10 1 11 -1 13 1 2 1 3 -1 4 1 5 -1 6 1 7 -1 18 -1 0
2  9 1 10 1 11 -1 13 1 2 1 3 -1 4 1 5 -1 6 1 7 -1 19 -1 0
2  9 1 10 1 11 -1 13 1 2 1 3 -1 4 1 5 -1 6 1 7 -1 21 -1 0
2  24 1 4 1 5 -1 6 1 7 -1 0
2  9 1 10 1 11 -1 13 1 2 1 3 -1 24 -1 0
2  9 1 10 1 11 -1 13 1 2 1 3 -1 25 -1 0
2  25 1 4 1 5 -1 6 1 7 -1 0
2  28 1 6 1 7 -1 0
2  9 1 10 1 11 -1 13 1 2 1 3 -1 4 1 5 -1 28 -1 0
2  9 1 10 1 11 -1 13 1 2 1 3 -1 4 1 5 -1 29 -1 0
2  29 1 6 1 7 -1 0
2  18 -1 0
2  19 -1 0
2  20 -1 0
2  21 -1 0
2  24 -1 0
2  25 -1 0
2  28 -1 0
2  29 -1 0
Curve2ds 126
1 3.33445468330086392 0.00000000000000000 0.00000000000000000 -1.00000000000000000 
1 6.47604733689065526 0.00000000000000000 0.00000000000000000 -1.00000000000000000 
1 3.66519142925880548 0.00000000000000000 0.00000000000000000 -1.00000000000000000 
1 2.94873062387872187 0.00000000000000000 0.00000000000000000 -1.00000000000000000 
1 0.00000000000000000 0.00000000000000000 1.00000000000000000 0.00000000000000000 
1 0.00000000000000000 -3.00000000000000000 1.00000000000000000 0.00000000000000000 
2 930.37557344124957126 537.15258786147887804 1.00000000000000000 0.00000000000000000 -0.00000000000000000 1.00000000000000000 901.30517559137683747
1 1.51987028381113998 0.00000000000000000 0.00000000000000000 -1.00000000000000000 
1 7.80305559099072621 0.00000000000000000 0.00000000000000000 -1.00000000000000000 
1 0.00000000000000000 0.00000000000000000 1.00000000000000000 0.00000000000000000 
1 0.00000000000000000 -3.00000000000000000 1.00000000000000000 0.00000000000000000 
2 18.30000000000017479 359.03392597357702698 1.00000000000000000 0.00000000000000000 -0.00000000000000000 1.00000000000000000 28.00000000000015632
1 2.61799387792078031 0.00000000000000000 0.00000000000000000 -1.00000000000000000 
1 6.47604733689065792 0.00000000000000000 0.00000000000000000 -1.00000000000000000 
1 0.00000000000000000 0.00000000000000000 1.00000000000000000 0.00000000000000000 
1 0.00000000000000000 -3.00000000000000000 1.00000000000000000 0.00000000000000000 
7 0 0  6 7 2  338.47065402137445744 -142.55292631601719222  301.00338904903054527 -109.92547516415335451  265.69434375276279070 -74.81966408958932391  232.74843721585187950 -37.41394119069283875  202.35092505806042595 2.09064231225897945  174.66362325525165033 43.47373028081047153  149.82239484880247460 86.50000001022721108 
 2.61799387792078031 7 2.94873062387872187 7
1 0.00000000000000000 0.00000000000000000 1.00000000000000000 0.00000000000000000 
1 0.00000000000000000 -3.00000000000000000 1.00000000000000000 0.00000000000000000 
2 -0.00000000000022053 0.00000000000001764 1.00000000000000000 0.00000000000000000 -0.00000000000000000 1.00000000000000000 387.50000000000011369
1 0.00000000000000000 0.00000000000000000 1.00000000000000000 0.00000000000000000 
1 0.00000000000000000 -3.00000000000000000 1.00000000000000000 0.00000000000000000 
2 320.08250071357934985 -163.66869809753302434 0.50000000000000033 0.86602540378443860 0.86602540378443860 -0.50000000000000033 28.00000000000018829
1 0.00000000000000000 0.00000000000000000 1.00000000000000000 0.00000000000000000 
1 0.00000000000000000 -3.00000000000000000 1.00000000000000000 0.00000000000000000 
2 0.00000000000017826 0.00000000000001764 -1.00000000000000000 0.00000000000000000 0.00000000000000000 1.00000000000000000 387.50000000000011369
1 0.00000000000000000 0.00000000000000000 1.00000000000000000 0.00000000000000000 
1 0.00000000000000000 -3.00000000000000000 1.00000000000000000 0.00000000000000000 
2 -0.00000000000013429 0.00000000000000467 0.50000000000000033 0.86602540378443860 0.86602540378443860 -0.50000000000000033 387.50000000000022737
1 0.00000000000000000 0.00000000000000000 1.00000000000000000 0.00000000000000000 
1 0.00000000000000000 -3.00000000000000000 1.00000000000000000 0.00000000000000000 
2 -18.30000000000021743 359.03392597357702698 -1.00000000000000000 0.00000000000000000 0.00000000000000000 1.00000000000000000 28.00000000000015632
1 0.00000000000000000 0.00000000000000000 1.00000000000000000 0.00000000000000000 
1 0.00000000000000000 -3.00000000000000000 1.00000000000000000 0.00000000000000000 
2 0.00000000000006510 0.00000000000035004 -0.50000000000000033 -0.86602540378443860 0.86602540378443860 -0.50000000000000033 387.50000000000022737
1 0.00000000000000000 0.00000000000000000 1.00000000000000000 0.00000000000000000 
1 0.00000000000000000 -3.00000000000000000 1.00000000000000000 0.00000000000000000 
7 0 0  6 7 2  -45.78087143720502894 364.40064797605265312  -55.30344050928283650 315.63931912374829380  -68.05144207217874452 267.50788337652267046  -83.97279508108854884 220.27302991540167909  -102.98601188167313580 174.19572042343216367  -124.98116644808035858 129.52626971567747205  -149.82239486061229172 86.49999998977241944 
 2.61799387792078031 7 2.94873062387872187 7
1 0.00000000000000000 0.00000000000000000 1.00000000000000000 0.00000000000000000 
1 0.00000000000000000 -3.00000000000000000 1.00000000000000000 0.00000000000000000 
2 301.78250071357916795 -195.36522787604383211 -0.50000000000000033 -0.86602540378443860 0.86602540378443860 -0.50000000000000033 28.00000000000018829
1 0.00000000000000000 0.00000000000000000 1.00000000000000000 0.00000000000000000 
1 0.00000000000000000 -3.00000000000000000 1.00000000000000000 0.00000000000000000 
2 -930.37557351721864052 537.15258772989716363 -0.50000000000000056 0.86602540378443837 -0.86602540378443837 -0.50000000000000056 901.30517559137695116
1 0.00000000000000000 0.00000000000000000 1.00000000000000000 0.00000000000000000 
1 0.00000000000000000 -3.00000000000000000 1.00000000000000000 0.00000000000000000 
2 0.00000007596821679 -1074.30517559137615535 -0.50000000000000033 -0.86602540378443860 0.86602540378443860 -0.50000000000000033 901.30517559137695116
1 0.00000000000000000 0.00000000000000000 1.00000000000000000 0.00000000000000000 
1 0.00000000000000000 -3.00000000000000000 1.00000000000000000 0.00000000000000000 
2 -320.08250071357917932 -163.66869809753328013 -0.50000000000000056 0.86602540378443837 -0.86602540378443837 -0.50000000000000056 28.00000000000016342
1 0.00000000000000000 0.00000000000000000 1.00000000000000000 0.00000000000000000 
1 0.00000000000000000 -3.00000000000000000 1.00000000000000000 0.00000000000000000 
7 0 0  6 7 2  -292.68978258416933613 -221.84772166003551774  -245.69994853974756666 -205.71384395959481139  -197.64290168058366248 -192.68821928693245127  -148.77564213476330224 -182.85908872471011932  -99.36491317638696330 -176.28636273568994852  -49.68245680717132018 -172.99999999648815674  0.00000001180959627 -172.99999999999937472 
 2.61799387792078031 7 2.94873062387872187 7
1 0.00000000000000000 0.00000000000000000 1.00000000000000000 0.00000000000000000 
1 0.00000000000000000 -3.00000000000000000 1.00000000000000000 0.00000000000000000 
2 0.00000000000019860 -0.00000000000012323 -0.50000000000000056 0.86602540378443837 -0.86602540378443837 -0.50000000000000056 387.50000000000028422
1 0.00000000000000000 0.00000000000000000 1.00000000000000000 0.00000000000000000 
1 0.00000000000000000 -3.00000000000000000 1.00000000000000000 0.00000000000000000 
2 -301.78250071357899742 -195.36522787604411633 0.50000000000000056 -0.86602540378443837 -0.86602540378443837 -0.50000000000000056 28.00000000000018829
1 0.00000000000000000 0.00000000000000000 1.00000000000000000 0.00000000000000000 
1 0.00000000000000000 -3.00000000000000000 1.00000000000000000 0.00000000000000000 
2 -0.00000000000000079 0.00000000000022214 0.50000000000000056 -0.86602540378443837 -0.86602540378443837 -0.50000000000000056 387.50000000000028422
2 -34.57500000000056417 -34.57499999999967599 1.00000000000000000 0.00000000000000000 0.00000000000000000 -1.00000000000000000 4.25000000000000000
1 6.28318530717958623 3.00000000000000000 -1.00000000000000000 0.00000000000000000 
2 -34.57500000000002416 34.57500000000005969 1.00000000000000000 0.00000000000000000 0.00000000000000000 -1.00000000000000000 4.25000000000000000
1 6.28318530717958623 3.00000000000000000 -1.00000000000000000 0.00000000000000000 
2 34.57499999999998153 -34.57499999999994600 1.00000000000000000 0.00000000000000000 0.00000000000000000 -1.00000000000000000 4.25000000000000000
1 6.28318530717958623 3.00000000000000000 -1.00000000000000000 0.00000000000000000 
2 34.57499999999998153 34.57500000000005969 1.00000000000000000 0.00000000000000000 0.00000000000000000 -1.00000000000000000 4.25000000000000000
1 6.28318530717958623 3.00000000000000000 -1.00000000000000000 0.00000000000000000 
2 -30.30000000000003268 289.50000000000005684 1.00000000000000000 0.00000000000000000 0.00000000000000000 -1.00000000000000000 2.75000000000000000
1 6.28318530717958623 3.00000000000000000 -1.00000000000000000 0.00000000000000000 
2 -30.30000000000001137 369.50000000000005684 1.00000000000000000 0.00000000000000000 0.00000000000000000 -1.00000000000000000 2.75000000000000000
1 6.28318530717958623 3.00000000000000000 -1.00000000000000000 0.00000000000000000 
2 0.00000000000000870 306.70000000000004547 1.00000000000000000 0.00000000000000000 0.00000000000000000 -1.00000000000000000 2.75000000000000000
1 6.28318530717958623 3.00000000000000000 -1.00000000000000000 0.00000000000000000 
2 -0.00000000000005631 359.30000000000006821 1.00000000000000000 0.00000000000000000 0.00000000000000000 -1.00000000000000000 2.75000000000000000
1 6.28318530717958623 3.00000000000000000 -1.00000000000000000 0.00000000000000000 
2 0.00000000000000000 0.00000000000000000 -1.00000000000000000 0.00000000000000000 0.00000000000000000 1.00000000000000000 4.25000000000000000
1 0.00000000000000000 0.00000000000000000 1.00000000000000000 0.00000000000000000 
2 34.57499999999998153 -34.57499999999994600 1.00000000000000000 0.00000000000000000 -0.00000000000000000 1.00000000000000000 4.25000000000000000
2 -34.57500000000056417 -34.57499999999967599 1.00000000000000000 0.00000000000000000 -0.00000000000000000 1.00000000000000000 4.25000000000000000
2 -34.57500000000002416 34.57500000000005969 1.00000000000000000 0.00000000000000000 -0.00000000000000000 1.00000000000000000 4.25000000000000000
2 34.57499999999998153 34.57500000000005969 1.00000000000000000 0.00000000000000000 -0.00000000000000000 1.00000000000000000 4.25000000000000000
2 0.00000000000000000 0.00000000000000000 -1.00000000000000000 0.00000000000000000 0.00000000000000000 1.00000000000000000 2.75000000000000000
1 0.00000000000000000 0.00000000000000000 1.00000000000000000 0.00000000000000000 
2 -30.30000000000003268 289.50000000000005684 1.00000000000000000 0.00000000000000000 -0.00000000000000000 1.00000000000000000 2.75000000000000000
2 -30.30000000000001137 369.50000000000005684 1.00000000000000000 0.00000000000000000 -0.00000000000000000 1.00000000000000000 2.75000000000000000
2 0.00000000000000000 0.00000000000000000 -1.00000000000000000 0.00000000000000000 0.00000000000000000 1.00000000000000000 2.75000000000000000
1 0.00000000000000000 0.00000000000000000 1.00000000000000000 0.00000000000000000 
2 0.00000000000000870 306.70000000000004547 1.00000000000000000 0.00000000000000000 -0.00000000000000000 1.00000000000000000 2.75000000000000000
2 -0.00000000000005631 359.30000000000006821 1.00000000000000000 0.00000000000000000 -0.00000000000000000 1.00000000000000000 2.75000000000000000
1 1.57079632679489567 0.00000000000000000 0.00000000000000000 -1.00000000000000000 
1 1.57079632679489656 0.00000000000000000 0.00000000000000000 -1.00000000000000000 
1 7.80305559099072621 0.00000000000000000 0.00000000000000000 -1.00000000000000000 
1 1.51987028381113998 0.00000000000000000 0.00000000000000000 -1.00000000000000000 
1 7.80305559099072621 0.00000000000000000 0.00000000000000000 -1.00000000000000000 
1 1.51987028381113998 0.00000000000000000 0.00000000000000000 -1.00000000000000000 
1 1.57079632679489589 0.00000000000000000 0.00000000000000000 -1.00000000000000000 
1 1.57079632679489656 0.00000000000000000 0.00000000000000000 -1.00000000000000000 
1 2.61799387792078031 0.00000000000000000 0.00000000000000000 -1.00000000000000000 
1 6.47604733689065704 0.00000000000000000 0.00000000000000000 -1.00000000000000000 
1 1.51987028381113998 0.00000000000000000 0.00000000000000000 -1.00000000000000000 
1 7.80305559099072710 0.00000000000000000 0.00000000000000000 -1.00000000000000000 
1 3.66519142925880592 0.00000000000000000 0.00000000000000000 -1.00000000000000000 
1 2.94873062387872187 0.00000000000000000 0.00000000000000000 -1.00000000000000000 
1 6.47604733689065615 0.00000000000000000 0.00000000000000000 -1.00000000000000000 
1 3.33445468330086392 0.00000000000000000 0.00000000000000000 -1.00000000000000000 
1 6.47604733689065526 0.00000000000000000 0.00000000000000000 -1.00000000000000000 
1 3.33445468330086392 0.00000000000000000 0.00000000000000000 -1.00000000000000000 
1 3.66519142925880548 0.00000000000000000 0.00000000000000000 -1.00000000000000000 
1 2.94873062387872187 0.00000000000000000 0.00000000000000000 -1.00000000000000000 
1 1.51987028381113998 0.00000000000000000 0.00000000000000000 -1.00000000000000000 
1 7.80305559099072621 0.00000000000000000 0.00000000000000000 -1.00000000000000000 
1 2.61799387792078031 0.00000000000000000 0.00000000000000000 -1.00000000000000000 
1 6.47604733689065792 0.00000000000000000 0.00000000000000000 -1.00000000000000000 
1 1.57079632679489567 0.00000000000000000 0.00000000000000000 -1.00000000000000000 
1 1.57079632679489678 0.00000000000000000 0.00000000000000000 -1.00000000000000000 
1 7.80305559099072532 0.00000000000000000 0.00000000000000000 -1.00000000000000000 
1 1.51987028381113998 0.00000000000000000 0.00000000000000000 -1.00000000000000000 
1 6.28318530717958623 0.00000000000000000 0.00000000000000000 1.00000000000000000 
1 0.00000000000000000 0.00000000000000000 0.00000000000000000 1.00000000000000000 
1 6.28318530717958623 0.00000000000000000 0.00000000000000000 1.00000000000000000 
1 0.00000000000000000 0.00000000000000000 0.00000000000000000 1.00000000000000000 
1 6.28318530717958623 0.00000000000000000 0.00000000000000000 1.00000000000000000 
1 0.00000000000000000 0.00000000000000000 0.00000000000000000 1.00000000000000000 
Curves 50
1 45.78087143720472341 364.40064797605305102 0.00000000000000000 0.00000000000000000 0.00000000000000000 1.00000000000000000 
1 149.82239484869634794 86.50000001041098585 0.00000000000000000 0.00000000000000000 0.00000000000000000 1.00000000000000000 
2 930.37557344124957126 537.15258786147876435 0.00000000000000000 0.00000000000000000 -0.00000000000000000 1.00000000000000000 1.00000000000000000 0.00000000000000000 0.00000000000000000 -0.00000000000000000 1.00000000000000000 0.00000000000000000 901.30517559137683747
1 19.72531293463167756 386.99762535399480612 0.00000000000000000 0.00000000000000000 0.00000000000000000 1.00000000000000000 
2 18.30000000000019611 359.03392597357697014 0.00000000000000000 0.00000000000000000 -0.00000000000000000 1.00000000000000000 1.00000000000000000 0.00000000000000000 0.00000000000000000 -0.00000000000000000 1.00000000000000000 0.00000000000000000 28.00000000000015632
1 338.47065402137445744 -142.55292631601724906 0.00000000000000000 0.00000000000000000 0.00000000000000000 1.00000000000000000 
7 0 0  6 7 2  338.47065402137445744 -142.55292631601724906 0.00000000000000000  301.00338904903054527 -109.92547516415341136 0.00000000000000000  265.69434375276279070 -74.81966408958938075 0.00000000000000000  232.74843721585190792 -37.41394119069289559 0.00000000000000000  202.35092505806045438 2.09064231225892172 0.00000000000000000  174.66362325525167876 43.47373028081041468 0.00000000000000000  149.82239484880250302 86.50000001022715423 0.00000000000000000 
 2.61799387792078031 7 2.94873062387872187 7
2 -0.00000000000019940 -0.00000000000004015 0.00000000000000000 0.00000000000000000 -0.00000000000000000 1.00000000000000000 1.00000000000000000 0.00000000000000000 0.00000000000000000 -0.00000000000000000 1.00000000000000000 0.00000000000000000 387.50000000000011369
2 320.08250071357934985 -163.66869809753308118 0.00000000000000000 0.00000000000000000 0.00000000000000000 -1.00000000000000000 0.50000000000000033 0.86602540378443860 0.00000000000000000 0.86602540378443860 -0.50000000000000033 0.00000000000000000 28.00000000000018829
2 0.00000000000019940 -0.00000000000004015 0.00000000000000000 0.00000000000000000 0.00000000000000000 -1.00000000000000000 -1.00000000000000000 0.00000000000000000 0.00000000000000000 0.00000000000000000 1.00000000000000000 0.00000000000000000 387.50000000000011369
2 -0.00000000000011316 -0.00000000000005313 0.00000000000000000 0.00000000000000000 0.00000000000000000 -1.00000000000000000 0.50000000000000033 0.86602540378443860 0.00000000000000000 0.86602540378443860 -0.50000000000000033 0.00000000000000000 387.50000000000017053
2 -18.30000000000019611 359.03392597357697014 0.00000000000000000 0.00000000000000000 0.00000000000000000 -1.00000000000000000 -1.00000000000000000 0.00000000000000000 0.00000000000000000 0.00000000000000000 1.00000000000000000 0.00000000000000000 28.00000000000015632
2 0.00000000000008624 0.00000000000029224 0.00000000000000000 0.00000000000000000 0.00000000000000000 1.00000000000000000 -0.50000000000000033 -0.86602540378443860 0.00000000000000000 0.86602540378443860 -0.50000000000000033 0.00000000000000000 387.50000000000017053
7 0 0  6 7 2  -45.78087143720500762 364.40064797605259628 0.00000000000000000  -55.30344050928281519 315.63931912374823696 0.00000000000000000  -68.05144207217873031 267.50788337652261362 0.00000000000000000  -83.97279508108853463 220.27302991540162225 0.00000000000000000  -102.98601188167312159 174.19572042343210683 0.00000000000000000  -124.98116644808034437 129.52626971567741521 0.00000000000000000  -149.82239486061226330 86.49999998977236260 0.00000000000000000 
 2.61799387792078031 7 2.94873062387872187 7
2 301.78250071357916795 -195.36522787604388895 0.00000000000000000 0.00000000000000000 0.00000000000000000 1.00000000000000000 -0.50000000000000033 -0.86602540378443860 0.00000000000000000 0.86602540378443860 -0.50000000000000033 0.00000000000000000 28.00000000000018829
2 -930.37557351721864052 537.15258772989704994 0.00000000000000000 0.00000000000000000 0.00000000000000000 1.00000000000000000 -0.50000000000000056 0.86602540378443837 0.00000000000000000 -0.86602540378443837 -0.50000000000000056 0.00000000000000000 901.30517559137695116
2 0.00000007596823792 -1074.30517559137615535 0.00000000000000000 0.00000000000000000 0.00000000000000000 1.00000000000000000 -0.50000000000000033 -0.86602540378443860 0.00000000000000000 0.86602540378443860 -0.50000000000000033 0.00000000000000000 901.30517559137672379
2 -320.08250071357917932 -163.66869809753333698 0.00000000000000000 0.00000000000000000 0.00000000000000000 1.00000000000000000 -0.50000000000000056 0.86602540378443837 0.00000000000000000 -0.86602540378443837 -0.50000000000000056 0.00000000000000000 28.00000000000016342
7 0 0  6 7 2  -292.68978258416933613 -221.84772166003557459 0.00000000000000000  -245.69994853974753823 -205.71384395959486824 0.00000000000000000  -197.64290168058363406 -192.68821928693250811 0.00000000000000000  -148.77564213476327382 -182.85908872471017617 0.00000000000000000  -99.36491317638694909 -176.28636273569000537 0.00000000000000000  -49.68245680717129886 -172.99999999648821358 0.00000000000000000  0.00000001180961741 -172.99999999999943157 0.00000000000000000 
 2.61799387792078031 7 2.94873062387872187 7
2 0.00000000000021974 -0.00000000000018103 0.00000000000000000 0.00000000000000000 0.00000000000000000 1.00000000000000000 -0.50000000000000056 0.86602540378443837 0.00000000000000000 -0.86602540378443837 -0.50000000000000056 0.00000000000000000 387.50000000000028422
2 -301.78250071357899742 -195.36522787604417317 0.00000000000000000 -0.00000000000000000 0.00000000000000000 -1.00000000000000000 0.50000000000000056 -0.86602540378443837 -0.00000000000000000 -0.86602540378443837 -0.50000000000000056 0.00000000000000000 28.00000000000018829
2 0.00000000000002034 0.00000000000016434 0.00000000000000000 -0.00000000000000000 0.00000000000000000 -1.00000000000000000 0.50000000000000056 -0.86602540378443837 -0.00000000000000000 -0.86602540378443837 -0.50000000000000056 0.00000000000000000 387.50000000000028422
2 -34.57500000000054285 -34.57499999999973284 0.00000000000000000 0.00000000000000000 0.00000000000000000 -1.00000000000000000 1.00000000000000000 0.00000000000000000 0.00000000000000000 0.00000000000000000 -1.00000000000000000 0.00000000000000000 4.25000000000000000
2 -34.57500000000000284 34.57500000000000284 0.00000000000000000 0.00000000000000000 0.00000000000000000 -1.00000000000000000 1.00000000000000000 0.00000000000000000 0.00000000000000000 0.00000000000000000 -1.00000000000000000 0.00000000000000000 4.25000000000000000
2 34.57500000000000284 -34.57500000000000284 0.00000000000000000 0.00000000000000000 0.00000000000000000 -1.00000000000000000 1.00000000000000000 0.00000000000000000 0.00000000000000000 0.00000000000000000 -1.00000000000000000 0.00000000000000000 4.25000000000000000
2 34.57500000000000284 34.57500000000000284 0.00000000000000000 0.00000000000000000 0.00000000000000000 -1.00000000000000000 1.00000000000000000 0.00000000000000000 0.00000000000000000 0.00000000000000000 -1.00000000000000000 0.00000000000000000 4.25000000000000000
2 -30.30000000000001137 289.50000000000000000 0.00000000000000000 0.00000000000000000 0.00000000000000000 -1.00000000000000000 1.00000000000000000 0.00000000000000000 0.00000000000000000 0.00000000000000000 -1.00000000000000000 0.00000000000000000 2.75000000000000000
2 -30.29999999999999005 369.50000000000000000 0.00000000000000000 0.00000000000000000 0.00000000000000000 -1.00000000000000000 1.00000000000000000 0.00000000000000000 0.00000000000000000 0.00000000000000000 -1.00000000000000000 0.00000000000000000 2.75000000000000000
2 0.00000000000002984 306.69999999999998863 0.00000000000000000 0.00000000000000000 0.00000000000000000 -1.00000000000000000 1.00000000000000000 0.00000000000000000 0.00000000000000000 0.00000000000000000 -1.00000000000000000 0.00000000000000000 2.75000000000000000
2 -0.00000000000003517 359.30000000000001137 0.00000000000000000 0.00000000000000000 0.00000000000000000 -1.00000000000000000 1.00000000000000000 0.00000000000000000 0.00000000000000000 0.00000000000000000 -1.00000000000000000 0.00000000000000000 2.75000000000000000
2 0.00000000000000000 0.00000000000000000 0.00000000000000000 0.00000000000000000 0.00000000000000000 1.00000000000000000 1.00000000000000000 0.00000000000000000 -0.00000000000000000 -0.00000000000000000 1.00000000000000000 0.00000000000000000 4.25000000000000000
2 0.00000000000000000 0.00000000000000000 0.00000000000000000 0.00000000000000000 0.00000000000000000 1.00000000000000000 1.00000000000000000 0.00000000000000000 -0.00000000000000000 -0.00000000000000000 1.00000000000000000 0.00000000000000000 2.75000000000000000
2 0.00000000000000000 0.00000000000000000 0.00000000000000000 0.00000000000000000 0.00000000000000000 1.00000000000000000 1.00000000000000000 0.00000000000000000 -0.00000000000000000 -0.00000000000000000 1.00000000000000000 0.00000000000000000 2.75000000000000000
1 -0.00000000000016850 387.50000000000005684 0.00000000000000000 0.00000000000000000 0.00000000000000000 1.00000000000000000 
1 345.01243122812815045 -176.41619057800861015 0.00000000000000000 0.00000000000000000 0.00000000000000000 1.00000000000000000 
1 -19.72531293463167401 386.99762535399480612 0.00000000000000000 0.00000000000000000 0.00000000000000000 1.00000000000000000 
1 335.58484396647008907 -193.75000000000002842 0.00000000000000000 0.00000000000000000 0.00000000000000000 1.00000000000000000 
1 -45.78087143720501473 364.40064797605259628 0.00000000000000000 0.00000000000000000 0.00000000000000000 1.00000000000000000 
1 325.28711829349651907 -210.58143477598630966 0.00000000000000000 0.00000000000000000 0.00000000000000000 1.00000000000000000 
1 -149.82239486071830470 86.49999998958865888 0.00000000000000000 0.00000000000000000 0.00000000000000000 1.00000000000000000 
1 292.68978258417030247 -221.84772166003506300 0.00000000000000000 0.00000000000000000 0.00000000000000000 1.00000000000000000 
1 -338.47065402137457113 -142.55292631601838593 0.00000000000000000 0.00000000000000000 0.00000000000000000 1.00000000000000000 
1 0.00000001202193862 -172.99999999999937472 0.00000000000000000 0.00000000000000000 0.00000000000000000 1.00000000000000000 
1 -345.01243122812809361 -176.41619057800892278 0.00000000000000000 0.00000000000000000 0.00000000000000000 1.00000000000000000 
1 -292.68978258416933613 -221.84772166003554617 0.00000000000000000 0.00000000000000000 0.00000000000000000 1.00000000000000000 
1 -335.58484396646991854 -193.75000000000051159 0.00000000000000000 0.00000000000000000 0.00000000000000000 1.00000000000000000 
1 -325.28711829349629170 -210.58143477598656546 0.00000000000000000 0.00000000000000000 0.00000000000000000 1.00000000000000000 
1 4.25000000000000000 0.00000000000000000 -0.00000000000000000 -0.00000000000000007 0.00000000000000000 -1.00000000000000000 
1 2.75000000000000000 0.00000000000000000 -0.00000000000000000 -0.00000000000000005 0.00000000000000000 -1.00000000000000000 
1 2.75000000000000000 0.00000000000000000 -0.00000000000000000 -0.00000000000000005 0.00000000000000000 -1.00000000000000000 
Polygon3D 0
PolygonOnTriangulations 0
Surfaces 25
2 930.37557344124957126 537.15258786147876435 0.00000000000000000 -0.00000000000000000 -0.00000000000000000 -1.00000000000000000 1.00000000000000000 0.00000000000000000 0.00000000000000000 -0.00000000000000000 1.00000000000000000 -0.00000000000000000 901.30517559137683747
2 18.30000000000019611 359.03392597357697014 0.00000000000000000 -0.00000000000000000 -0.00000000000000000 -1.00000000000000000 1.00000000000000000 0.00000000000000000 0.00000000000000000 -0.00000000000000000 1.00000000000000000 -0.00000000000000000 28.00000000000015632
6 -0.00000000000000000 -0.00000000000000000 -1.00000000000000000 
7 0 0  6 7 2  338.47065402137445744 -142.55292631601724906 0.00000000000000000  301.00338904903054527 -109.92547516415341136 0.00000000000000000  265.69434375276279070 -74.81966408958938075 0.00000000000000000  232.74843721585190792 -37.41394119069289559 0.00000000000000000  202.35092505806045438 2.09064231225892172 0.00000000000000000  174.66362325525167876 43.47373028081041468 0.00000000000000000  149.82239484880250302 86.50000001022715423 0.00000000000000000 
 2.61799387792078031 7 2.94873062387872187 7
1 0.00000000000002114 -0.00000000000005780 0.00000000000000000 0.00000000000000000 0.00000000000000000 1.00000000000000000 1.00000000000000000 0.00000000000000000 -0.00000000000000000 -0.00000000000000000 1.00000000000000000 0.00000000000000000 
2 -0.00000000000019940 -0.00000000000004015 0.00000000000000000 -0.00000000000000000 -0.00000000000000000 -1.00000000000000000 1.00000000000000000 0.00000000000000000 0.00000000000000000 -0.00000000000000000 1.00000000000000000 -0.00000000000000000 387.50000000000011369
2 320.08250071357934985 -163.66869809753308118 0.00000000000000000 0.00000000000000000 0.00000000000000000 -1.00000000000000000 0.50000000000000033 0.86602540378443860 0.00000000000000000 0.86602540378443860 -0.50000000000000033 0.00000000000000000 28.00000000000018829
2 0.00000000000019940 -0.00000000000004015 0.00000000000000000 0.00000000000000000 0.00000000000000000 -1.00000000000000000 -1.00000000000000000 0.00000000000000000 0.00000000000000000 0.00000000000000000 1.00000000000000000 0.00000000000000000 387.50000000000011369
2 -0.00000000000011316 -0.00000000000005313 0.00000000000000000 0.00000000000000000 0.00000000000000000 -1.00000000000000000 0.50000000000000033 0.86602540378443860 0.00000000000000000 0.86602540378443860 -0.50000000000000033 0.00000000000000000 387.50000000000017053
2 -18.30000000000019611 359.03392597357697014 0.00000000000000000 0.00000000000000000 0.00000000000000000 -1.00000000000000000 -1.00000000000000000 0.00000000000000000 0.00000000000000000 0.00000000000000000 1.00000000000000000 0.00000000000000000 28.00000000000015632
2 0.00000000000008624 0.00000000000029224 0.00000000000000000 -0.00000000000000000 -0.00000000000000000 -1.00000000000000000 -0.50000000000000033 -0.86602540378443860 0.00000000000000000 0.86602540378443860 -0.50000000000000033 -0.00000000000000000 387.50000000000017053
6 -0.00000000000000000 -0.00000000000000000 -1.00000000000000000 
7 0 0  6 7 2  -45.78087143720500762 364.40064797605259628 0.00000000000000000  -55.30344050928281519 315.63931912374823696 0.00000000000000000  -68.05144207217873031 267.50788337652261362 0.00000000000000000  -83.97279508108853463 220.27302991540162225 0.00000000000000000  -102.98601188167312159 174.19572042343210683 0.00000000000000000  -124.98116644808034437 129.52626971567741521 0.00000000000000000  -149.82239486061226330 86.49999998977236260 0.00000000000000000 
 2.61799387792078031 7 2.94873062387872187 7
2 301.78250071357916795 -195.36522787604388895 0.00000000000000000 -0.00000000000000000 -0.00000000000000000 -1.00000000000000000 -0.50000000000000033 -0.86602540378443860 0.00000000000000000 0.86602540378443860 -0.50000000000000033 -0.00000000000000000 28.00000000000018829
2 -930.37557351721864052 537.15258772989704994 0.00000000000000000 -0.00000000000000000 -0.00000000000000000 -1.00000000000000000 -0.50000000000000056 0.86602540378443837 0.00000000000000000 -0.86602540378443837 -0.50000000000000056 0.00000000000000000 901.30517559137695116
2 0.00000007596823792 -1074.30517559137615535 0.00000000000000000 -0.00000000000000000 -0.00000000000000000 -1.00000000000000000 -0.50000000000000033 -0.86602540378443860 0.00000000000000000 0.86602540378443860 -0.50000000000000033 -0.00000000000000000 901.30517559137672379
2 -320.08250071357917932 -163.66869809753333698 0.00000000000000000 -0.00000000000000000 -0.00000000000000000 -1.00000000000000000 -0.50000000000000056 0.86602540378443837 0.00000000000000000 -0.86602540378443837 -0.50000000000000056 0.00000000000000000 28.00000000000016342
6 -0.00000000000000000 -0.00000000000000000 -1.00000000000000000 
7 0 0  6 7 2  -292.68978258416933613 -221.84772166003557459 0.00000000000000000  -245.69994853974753823 -205.71384395959486824 0.00000000000000000  -197.64290168058363406 -192.68821928693250811 0.00000000000000000  -148.77564213476327382 -182.85908872471017617 0.00000000000000000  -99.36491317638694909 -176.28636273569000537 0.00000000000000000  -49.68245680717129886 -172.99999999648821358 0.00000000000000000  0.00000001180961741 -172.99999999999943157 0.00000000000000000 
 2.61799387792078031 7 2.94873062387872187 7
2 0.00000000000021974 -0.00000000000018103 0.00000000000000000 -0.00000000000000000 -0.00000000000000000 -1.00000000000000000 -0.50000000000000056 0.86602540378443837 0.00000000000000000 -0.86602540378443837 -0.50000000000000056 0.00000000000000000 387.50000000000028422
2 -301.78250071357899742 -195.36522787604417317 0.00000000000000000 0.00000000000000000 -0.00000000000000000 -1.00000000000000000 0.50000000000000056 -0.86602540378443837 0.00000000000000000 -0.86602540378443837 -0.50000000000000056 0.00000000000000000 28.00000000000018829
2 0.00000000000002034 0.00000000000016434 0.00000000000000000 0.00000000000000000 -0.00000000000000000 -1.00000000000000000 0.50000000000000056 -0.86602540378443837 0.00000000000000000 -0.86602540378443837 -0.50000000000000056 0.00000000000000000 387.50000000000028422
2 0.00000000000000000 0.00000000000000000 0.00000000000000000 -0.00000000000000000 -0.00000000000000000 -1.00000000000000000 1.00000000000000000 0.00000000000000000 0.00000000000000000 -0.00000000000000000 1.00000000000000000 -0.00000000000000000 4.25000000000000000
2 0.00000000000000000 0.00000000000000000 0.00000000000000000 -0.00000000000000000 -0.00000000000000000 -1.00000000000000000 1.00000000000000000 0.00000000000000000 0.00000000000000000 -0.00000000000000000 1.00000000000000000 -0.00000000000000000 2.75000000000000000
2 0.00000000000000000 0.00000000000000000 0.00000000000000000 -0.00000000000000000 -0.00000000000000000 -1.00000000000000000 1.00000000000000000 0.00000000000000000 0.00000000000000000 -0.00000000000000000 1.00000000000000000 -0.00000000000000000 2.75000000000000000
1 0.00000000000000000 0.00000000000000000 0.00000000000000000 0.00000000000000000 0.00000000000000000 1.00000000000000000 -1.00000000000000000 -0.00000000000000000 0.00000000000000000 -0.00000000000000000 1.00000000000000000 -0.00000000000000000 
1 0.00000000000000000 0.00000000000000000 0.00000000000000000 0.00000000000000000 0.00000000000000000 1.00000000000000000 -1.00000000000000000 -0.00000000000000000 0.00000000000000000 -0.00000000000000000 1.00000000000000000 -0.00000000000000000 
1 0.00000000000000000 0.00000000000000000 0.00000000000000000 0.00000000000000000 0.00000000000000000 1.00000000000000000 -1.00000000000000000 -0.00000000000000000 0.00000000000000000 -0.00000000000000000 1.00000000000000000 -0.00000000000000000 
Triangulations 0

TShapes 158
Ve
0.000000100000000
45.780871437204723 364.400647976053051 0.000000000000000
0 0

0101101
*
Ed
 0.000000100000000 1 1 0
1  1 0 0.000000000000000 3.000000000000000
2  1 1 0 0.000000000000000 3.000000000000000
2  2 2 0 0.000000000000000 3.000000000000000
4 G1 1 0 2 0
0

0101000
+158 12 -158 14 *
Ve
0.000000100212280
149.822394848696348 86.500000010410986 0.000000000000000
0 0

0101101
*
Ed
 0.000000100212280 1 1 0
1  2 0 0.000000000000000 3.000000000000000
2  3 1 0 0.000000000000000 3.000000000000000
2  4 3 0 0.000000000000000 3.000000000000000
4 C1 1 0 3 0
0

0101000
+156 12 -156 14 *
Ed
 0.000000100000000 1 1 0
1  3 0 3.334454683300864 3.665191429258805
2  5 1 15 3.334454683300864 3.665191429258805
2  6 1 16 3.334454683300864 3.665191429258805
2  7 4 0 3.334454683300864 3.665191429258805
0

0101000
+158 0 -156 0 *
Wi

0101100
+157 0 -155 0 -154 12 +154 14 *
Fa
0  0.000000100000000 1 0

0101000
+153 0 *
Ve
0.000000100000000
19.725312934631678 386.997625353994806 0.000000000000000
0 0

0101101
*
Ed
 0.000000100000000 1 1 0
1  4 0 0.000000000000000 3.000000000000000
2  8 5 0 0.000000000000000 3.000000000000000
2  9 2 0 0.000000000000000 3.000000000000000
4 G1 5 0 2 0
0

0101000
+151 12 -151 14 *
Ed
 0.000000100000000 1 1 0
1  5 0 6.476047336890655 7.803055590990726
2  10 2 15 6.476047336890655 7.803055590990726
2  11 2 16 6.476047336890655 7.803055590990726
2  12 4 0 6.476047336890655 7.803055590990726
0

0101000
+158 0 -151 0 *
Wi

0101100
+157 0 -150 0 -149 12 +149 14 *
Fa
0  0.000000100000000 2 0

0101000
+148 0 *
Ve
0.000000100000000
338.470654021374457 -142.552926316017249 0.000000000000000
0 0

0101101
*
Ed
 0.000000100000000 1 1 0
1  6 0 0.000000000000000 3.000000000000000
2  13 3 0 0.000000000000000 3.000000000000000
2  14 6 0 0.000000000000000 3.000000000000000
4 G1 3 0 6 0
0

0101000
+146 12 -146 14 *
Ed
 0.000000100000000 1 1 0
1  7 0 2.617993877920780 2.948730623878722
2  15 3 15 2.617993877920780 2.948730623878722
2  16 3 16 2.617993877920780 2.948730623878722
2  17 4 0 2.617993877920780 2.948730623878722
0

0101000
+146 0 -156 0 *
Wi

0101100
+145 0 -155 0 -144 12 +144 14 *
Fa
0  0.000000100000000 3 0

0101000
+143 0 *
Ve
0.000000100000000
-0.000000000000168 387.500000000000057 0.000000000000000
0 0

0101101
*
Ed
 0.000000100000000 1 1 0
1  8 0 1.519870283811140 1.570796326794897
2  18 5 15 1.519870283811140 1.570796326794897
2  19 5 16 1.519870283811140 1.570796326794897
2  20 4 0 1.519870283811140 1.570796326794897
0

0101000
+151 0 -141 0 *
Ve
0.000000100000000
345.012431228128150 -176.416190578008610 0.000000000000000
0 0

0101101
*
Ed
 0.000000100000000 1 1 0
1  9 0 6.476047336890658 7.803055590990726
2  21 6 15 6.476047336890658 7.803055590990726
2  22 6 16 6.476047336890658 7.803055590990726
2  23 4 0 6.476047336890658 7.803055590990726
0

0101000
+146 0 -139 0 *
Ve
0.000000100000000
-19.725312934631674 386.997625353994806 0.000000000000000
0 0

0101101
*
Ed
 0.000000100000000 1 1 0
1  10 0 1.519870283811140 1.570796326794896
2  24 7 15 1.519870283811140 1.570796326794896
2  25 7 16 1.519870283811140 1.570796326794896
2  26 4 0 1.519870283811140 1.570796326794896
0

0101000
+137 0 -141 0 *
Ve
0.000000100000000
335.584843966470089 -193.750000000000028 0.000000000000000
0 0

0101101
*
Ed
 0.000000100000000 1 1 0
1  11 0 1.519870283811140 1.570796326794896
2  27 8 15 1.519870283811140 1.570796326794896
2  28 8 16 1.519870283811140 1.570796326794896
2  29 4 0 1.519870283811140 1.570796326794896
0

0101000
+139 0 -135 0 *
Ve
0.000000100000007
-45.780871437205015 364.400647976052596 0.000000000000000
0 0

0101101
*
Ed
 0.000000100000000 1 1 0
1  12 0 6.476047336890657 7.803055590990726
2  30 9 15 6.476047336890657 7.803055590990726
2  31 9 16 6.476047336890657 7.803055590990726
2  32 4 0 6.476047336890657 7.803055590990726
0

0101000
+133 0 -137 0 *
Ve
0.000000100000000
325.287118293496519 -210.581434775986310 0.000000000000000
0 0

0101101
*
Ed
 0.000000100000000 1 1 0
1  13 0 1.519870283811140 1.570796326794897
2  33 10 15 1.519870283811140 1.570796326794897
2  34 10 16 1.519870283811140 1.570796326794897
2  35 4 0 1.519870283811140 1.570796326794897
0

0101000
+131 0 -135 0 *
Ve
0.000000100212120
-149.822394860718305 86.499999989588659 0.000000000000000
0 0

0101101
*
Ed
 0.000000100000000 1 1 0
1  14 0 2.617993877920780 2.948730623878722
2  36 11 15 2.617993877920780 2.948730623878722
2  37 11 16 2.617993877920780 2.948730623878722
2  38 4 0 2.617993877920780 2.948730623878722
0

0101000
+133 0 -129 0 *
Ve
0.000000100000000
292.689782584170302 -221.847721660035063 0.000000000000000
0 0

0101101
*
Ed
 0.000000100000000 1 1 0
1  15 0 6.476047336890656 7.803055590990727
2  39 12 15 6.476047336890656 7.803055590990727
2  40 12 16 6.476047336890656 7.803055590990727
2  41 4 0 6.476047336890656 7.803055590990727
0

0101000
+127 0 -131 0 *
Ve
0.000000100000000
-338.470654021374571 -142.552926316018386 0.000000000000000
0 0

0101101
*
Ed
 0.000000100000000 1 1 0
1  16 0 3.334454683300864 3.665191429258806
2  42 13 15 3.334454683300864 3.665191429258806
2  43 13 16 3.334454683300864 3.665191429258806
2  44 4 0 3.334454683300864 3.665191429258806
0

0101000
+125 0 -129 0 *
Ve
0.000000100212321
0.000000012021939 -172.999999999999375 0.000000000000000
0 0

0101101
*
Ed
 0.000000100000000 1 1 0
1  17 0 3.334454683300864 3.665191429258805
2  45 14 15 3.334454683300864 3.665191429258805
2  46 14 16 3.334454683300864 3.665191429258805
2  47 4 0 3.334454683300864 3.665191429258805
0

0101000
+127 0 -123 0 *
Ve
0.000000100000000
-345.012431228128094 -176.416190578008923 0.000000000000000
0 0

0101101
*
Ed
 0.000000100000000 1 1 0
1  18 0 6.476047336890655 7.803055590990726
2  48 15 15 6.476047336890655 7.803055590990726
2  49 15 16 6.476047336890655 7.803055590990726
2  50 4 0 6.476047336890655 7.803055590990726
0

0101000
+125 0 -121 0 *
Ve
0.000000100000028
-292.689782584169336 -221.847721660035546 0.000000000000000
0 0

0101101
*
Ed
 0.000000100000000 1 1 0
1  19 0 2.617993877920780 2.948730623878722
2  51 16 15 2.617993877920780 2.948730623878722
2  52 16 16 2.617993877920780 2.948730623878722
2  53 4 0 2.617993877920780 2.948730623878722
0

0101000
+119 0 -123 0 *
Ve
0.000000100000000
-335.584843966469919 -193.750000000000512 0.000000000000000
0 0

0101101
*
Ed
 0.000000100000000 1 1 0
1  20 0 1.519870283811140 1.570796326794897
2  54 17 15 1.519870283811140 1.570796326794897
2  55 17 16 1.519870283811140 1.570796326794897
2  56 4 0 1.519870283811140 1.570796326794897
0

0101000
+121 0 -117 0 *
Ve
0.000000100000000
-325.287118293496292 -210.581434775986565 0.000000000000000
0 0

0101101
*
Ed
 0.000000100000000 1 1 0
1  21 0 6.476047336890658 7.803055590990725
2  57 18 15 6.476047336890658 7.803055590990725
2  58 18 16 6.476047336890658 7.803055590990725
2  59 4 0 6.476047336890658 7.803055590990725
0

0101000
+119 0 -115 0 *
Ed
 0.000000100000000 1 1 0
1  22 0 1.519870283811140 1.570796326794896
2  60 19 15 1.519870283811140 1.570796326794896
2  61 19 16 1.519870283811140 1.570796326794896
2  62 4 0 1.519870283811140 1.570796326794896
0

0101000
+115 0 -117 0 *
Wi

0101100
-154 17 +149 17 +144 17 +140 17 -138 17 -136 17 -134 17 -132 17 +130 17 +128 17 
+126 17 -124 17 -122 17 +120 17 +118 17 +116 17 -114 17 -113 17 *
Ve
0.000000100000000
-30.325000000000543 -34.574999999999733 0.000000000000000
0 0

0101101
*
Ed
 0.000000100000000 1 1 0
1  23 0 0.000000000000000 6.283185307179586
2  63 4 17 0.000000000000000 6.283185307179586
2  64 20 18 0.000000000000000 6.283185307179586
0

0101100
+111 0 -111 0 *
Wi

0101100
+110 0 *
Ve
0.000000100000000
-30.325000000000003 34.575000000000003 0.000000000000000
0 0

0101101
*
Ed
 0.000000100000000 1 1 0
1  24 0 0.000000000000000 6.283185307179586
2  65 4 17 0.000000000000000 6.283185307179586
2  66 20 19 0.000000000000000 6.283185307179586
0

0101100
+108 0 -108 0 *
Wi

0101100
+107 0 *
Ve
0.000000100000000
38.825000000000003 -34.575000000000003 0.000000000000000
0 0

0101101
*
Ed
 0.000000100000000 1 1 0
1  25 0 0.000000000000000 6.283185307179586
2  67 4 17 0.000000000000000 6.283185307179586
2  68 20 20 0.000000000000000 6.283185307179586
0

0101100
+105 0 -105 0 *
Wi

0101100
+104 0 *
Ve
0.000000100000000
38.825000000000003 34.575000000000003 0.000000000000000
0 0

0101101
*
Ed
 0.000000100000000 1 1 0
1  26 0 0.000000000000000 6.283185307179586
2  69 4 17 0.000000000000000 6.283185307179586
2  70 20 21 0.000000000000000 6.283185307179586
0

0101100
+102 0 -102 0 *
Wi

0101100
+101 0 *
Ve
0.000000100000000
-27.550000000000011 289.500000000000000 0.000000000000000
0 0

0101101
*
Ed
 0.000000100000000 1 1 0
1  27 0 0.000000000000000 6.283185307179586
2  71 4 23 0.000000000000000 6.283185307179586
2  72 21 24 0.000000000000000 6.283185307179586
0

0101100
+99 0 -99 0 *
Wi

0101100
+98 22 *
Ve
0.000000100000000
-27.549999999999990 369.500000000000000 0.000000000000000
0 0

0101101
*
Ed
 0.000000100000000 1 1 0
1  28 0 0.000000000000000 6.283185307179586
2  73 4 23 0.000000000000000 6.283185307179586
2  74 21 25 0.000000000000000 6.283185307179586
0

0101100
+96 0 -96 0 *
Wi

0101100
+95 22 *
Ve
0.000000100000000
2.750000000000030 306.699999999999989 0.000000000000000
0 0

0101101
*
Ed
 0.000000100000000 1 1 0
1  29 0 0.000000000000000 6.283185307179586
2  75 4 27 0.000000000000000 6.283185307179586
2  76 22 28 0.000000000000000 6.283185307179586
0

0101100
+93 0 -93 0 *
Wi

0101100
+92 26 *
Ve
0.000000100000000
2.749999999999965 359.300000000000011 0.000000000000000
0 0

0101101
*
Ed
 0.000000100000000 1 1 0
1  30 0 0.000000000000000 6.283185307179586
2  77 4 27 0.000000000000000 6.283185307179586
2  78 22 29 0.000000000000000 6.283185307179586
0

0101100
+90 0 -90 0 *
Wi

0101100
+89 26 *
Fa
0  0.000000100000000 4 17

0101000
+112 0 +109 0 +106 0 +103 0 +100 0 +97 0 +94 0 +91 0 +88 0 *
Wi

0101100
-154 30 +149 30 +144 30 +140 30 -138 30 -136 30 -134 30 -132 30 +130 30 +128 30 
+126 30 -124 30 -122 30 +120 30 +118 30 +116 30 -114 30 -113 30 *
Ve
0.000000100000000
4.250000000000000 0.000000000000000 -0.000000000000000
0 0

0101101
*
Ed
 0.000000100000000 1 1 0
1  31 0 0.000000000000000 6.283185307179586
2  79 23 0 0.000000000000000 6.283185307179586
2  80 20 0 0.000000000000000 6.283185307179586
2  81 4 31 0.000000000000000 6.283185307179586
2  82 4 32 0.000000000000000 6.283185307179586
2  83 4 33 0.000000000000000 6.283185307179586
2  84 4 34 0.000000000000000 6.283185307179586
0

0101000
+85 0 -85 0 *
Wi

0101100
-84 18 *
Wi

0101100
-84 19 *
Wi

0101100
-84 20 *
Wi

0101100
-84 21 *
Ve
0.000000100000000
2.750000000000000 0.000000000000000 -0.000000000000000
0 0

0101101
*
Ed
 0.000000100000000 1 1 0
1  32 0 0.000000000000000 6.283185307179586
2  85 24 0 0.000000000000000 6.283185307179586
2  86 21 0 0.000000000000000 6.283185307179586
2  87 4 36 0.000000000000000 6.283185307179586
2  88 4 37 0.000000000000000 6.283185307179586
0

0101000
+79 0 -79 0 *
Wi

0101100
-78 35 *
Wi

0101100
-78 38 *
Ve
0.000000100000000
2.750000000000000 0.000000000000000 -0.000000000000000
0 0

0101101
*
Ed
 0.000000100000000 1 1 0
1  33 0 0.000000000000000 6.283185307179586
2  89 25 0 0.000000000000000 6.283185307179586
2  90 22 0 0.000000000000000 6.283185307179586
2  91 4 40 0.000000000000000 6.283185307179586
2  92 4 41 0.000000000000000 6.283185307179586
0

0101000
+75 0 -75 0 *
Wi

0101100
-74 39 *
Wi

0101100
-74 42 *
Fa
0  0.000000100000000 4 30

0101000
+86 0 +83 0 +82 0 +81 0 +80 0 +77 0 +76 0 +73 0 +72 0 *
Ed
 0.000000100000000 1 1 0
1  34 0 0.000000000000000 3.000000000000000
2  93 7 0 0.000000000000000 3.000000000000000
2  94 5 0 0.000000000000000 3.000000000000000
4 C2 7 0 5 0
0

0101000
+141 12 -141 14 *
Wi

0101100
+150 0 -70 0 -140 12 +140 14 *
Fa
0  0.000000100000000 5 0

0101000
+69 0 *
Ed
 0.000000100000000 1 1 0
1  35 0 0.000000000000000 3.000000000000000
2  95 6 0 0.000000000000000 3.000000000000000
2  96 8 0 0.000000000000000 3.000000000000000
4 G1 6 0 8 0
0

0101000
+139 12 -139 14 *
Wi

0101100
+145 0 -67 0 -138 12 +138 14 *
Fa
0  0.000000100000000 6 0

0101000
+66 0 *
Ed
 0.000000100000000 1 1 0
1  36 0 0.000000000000000 3.000000000000000
2  97 9 0 0.000000000000000 3.000000000000000
2  98 7 0 0.000000000000000 3.000000000000000
4 G1 9 0 7 0
0

0101000
+137 12 -137 14 *
Wi

0101100
+64 0 -70 0 -136 12 +136 14 *
Fa
0  0.000000100000000 7 0

0101000
+63 0 *
Ed
 0.000000100000000 1 1 0
1  37 0 0.000000000000000 3.000000000000000
2  99 8 0 0.000000000000000 3.000000000000000
2  100 10 0 0.000000000000000 3.000000000000000
4 C2 8 0 10 0
0

0101000
+135 12 -135 14 *
Wi

0101100
+67 0 -61 0 -134 12 +134 14 *
Fa
0  0.000000100000000 8 0

0101000
+60 0 *
Ed
 0.000000100000007 1 1 0
1  38 0 0.000000000000000 3.000000000000000
2  101 11 0 0.000000000000000 3.000000000000000
2  102 9 0 0.000000000000000 3.000000000000000
4 G1 11 0 9 0
0

0101000
+133 12 -133 14 *
Wi

0101100
+58 0 -64 0 -132 12 +132 14 *
Fa
0  0.000000100000000 9 0

0101000
+57 0 *
Ed
 0.000000100000000 1 1 0
1  39 0 0.000000000000000 3.000000000000000
2  103 10 0 0.000000000000000 3.000000000000000
2  104 12 0 0.000000000000000 3.000000000000000
4 G1 10 0 12 0
0

0101000
+131 12 -131 14 *
Wi

0101100
+55 0 -61 0 -130 12 +130 14 *
Fa
0  0.000000100000000 10 0

0101000
+54 0 *
Ed
 0.000000100212120 1 1 0
1  40 0 0.000000000000000 3.000000000000000
2  105 13 0 0.000000000000000 3.000000000000000
2  106 11 0 0.000000000000000 3.000000000000000
4 C1 13 0 11 0
0

0101000
+129 12 -129 14 *
Wi

0101100
+58 0 -52 0 -128 12 +128 14 *
Fa
0  0.000000100000000 11 0

0101000
+51 0 *
Ed
 0.000000100000000 1 1 0
1  41 0 0.000000000000000 3.000000000000000
2  107 12 0 0.000000000000000 3.000000000000000
2  108 14 0 0.000000000000000 3.000000000000000
4 G1 12 0 14 0
0

0101000
+127 12 -127 14 *
Wi

0101100
+49 0 -55 0 -126 12 +126 14 *
Fa
0  0.000000100000000 12 0

0101000
+48 0 *
Ed
 0.000000100000000 1 1 0
1  42 0 0.000000000000000 3.000000000000000
2  109 15 0 0.000000000000000 3.000000000000000
2  110 13 0 0.000000000000000 3.000000000000000
4 G1 15 0 13 0
0

0101000
+125 12 -125 14 *
Wi

0101100
+46 0 -52 0 -124 12 +124 14 *
Fa
0  0.000000100000000 13 0

0101000
+45 0 *
Ed
 0.000000100212321 1 1 0
1  43 0 0.000000000000000 3.000000000000000
2  111 14 0 0.000000000000000 3.000000000000000
2  112 16 0 0.000000000000000 3.000000000000000
4 C1 14 0 16 0
0

0101000
+123 12 -123 14 *
Wi

0101100
+49 0 -43 0 -122 12 +122 14 *
Fa
0  0.000000100000000 14 0

0101000
+42 0 *
Ed
 0.000000100000000 1 1 0
1  44 0 0.000000000000000 3.000000000000000
2  113 17 0 0.000000000000000 3.000000000000000
2  114 15 0 0.000000000000000 3.000000000000000
4 G1 17 0 15 0
0

0101000
+121 12 -121 14 *
Wi

0101100
+46 0 -40 0 -120 12 +120 14 *
Fa
0  0.000000100000000 15 0

0101000
+39 0 *
Ed
 0.000000100000028 1 1 0
1  45 0 0.000000000000000 3.000000000000000
2  115 16 0 0.000000000000000 3.000000000000000
2  116 18 0 0.000000000000000 3.000000000000000
4 G1 16 0 18 0
0

0101000
+119 12 -119 14 *
Wi

0101100
+37 0 -43 0 -118 12 +118 14 *
Fa
0  0.000000100000000 16 0

0101000
+36 0 *
Ed
 0.000000100000000 1 1 0
1  46 0 0.000000000000000 3.000000000000000
2  117 19 0 0.000000000000000 3.000000000000000
2  118 17 0 0.000000000000000 3.000000000000000
4 C2 19 0 17 0
0

0101000
+117 12 -117 14 *
Wi

0101100
+40 0 -34 0 -116 12 +116 14 *
Fa
0  0.000000100000000 17 0

0101000
+33 0 *
Ed
 0.000000100000000 1 1 0
1  47 0 0.000000000000000 3.000000000000000
2  119 18 0 0.000000000000000 3.000000000000000
2  120 19 0 0.000000000000000 3.000000000000000
4 G1 18 0 19 0
0

0101000
+115 12 -115 14 *
Wi

0101100
+37 0 -31 0 -114 12 +114 14 *
Fa
0  0.000000100000000 18 0

0101000
+30 0 *
Wi

0101100
+31 0 -34 0 -113 12 +113 14 *
Fa
0  0.000000100000000 19 0

0101000
+28 0 *
Ed
 0.000000100000000 1 1 0
1  48 0 0.000000000000000 3.000000000000000
3  121 122CN 20 0 0.000000000000000 3.000000000000000
0

0101000
+85 0 -111 43 *
Wi

0101100
-26 18 +110 0 +26 18 +84 18 *
Fa
0  0.000000100000000 20 18

0101000
+25 0 *
Ed
 0.000000100000000 1 1 0
1  48 0 0.000000000000000 3.000000000000000
3  121 122CN 20 0 0.000000000000000 3.000000000000000
0

0101000
+85 0 -108 44 *
Wi

0101100
-23 19 +107 0 +23 19 +84 19 *
Fa
0  0.000000100000000 20 19

0101000
+22 0 *
Ed
 0.000000100000000 1 1 0
1  48 0 0.000000000000000 3.000000000000000
3  121 122CN 20 0 0.000000000000000 3.000000000000000
0

0101000
+85 0 -105 45 *
Wi

0101100
-20 20 +104 0 +20 20 +84 20 *
Fa
0  0.000000100000000 20 20

0101000
+19 0 *
Ed
 0.000000100000000 1 1 0
1  48 0 0.000000000000000 3.000000000000000
3  121 122CN 20 0 0.000000000000000 3.000000000000000
0

0101000
+85 0 -102 46 *
Wi

0101100
-17 21 +101 0 +17 21 +84 21 *
Fa
0  0.000000100000000 20 21

0101000
+16 0 *
Ed
 0.000000100000000 1 1 0
1  49 0 0.000000000000000 3.000000000000000
3  123 124CN 21 0 0.000000000000000 3.000000000000000
0

0101000
+79 0 -99 47 *
Wi

0101100
-14 24 +98 0 +14 24 +78 24 *
Fa
0  0.000000100000000 21 24

0101000
+13 0 *
Ed
 0.000000100000000 1 1 0
1  49 0 0.000000000000000 3.000000000000000
3  123 124CN 21 0 0.000000000000000 3.000000000000000
0

0101000
+79 0 -96 48 *
Wi

0101100
-11 25 +95 0 +11 25 +78 25 *
Fa
0  0.000000100000000 21 25

0101000
+10 0 *
Ed
 0.000000100000000 1 1 0
1  50 0 0.000000000000000 3.000000000000000
3  125 126CN 22 0 0.000000000000000 3.000000000000000
0

0101000
+75 0 -93 49 *
Wi

0101100
-8 28 +92 0 +8 28 +74 28 *
Fa
0  0.000000100000000 22 28

0101000
+7 0 *
Ed
 0.000000100000000 1 1 0
1  50 0 0.000000000000000 3.000000000000000
3  125 126CN 22 0 0.000000000000000 3.000000000000000
0

0101000
+75 0 -90 50 *
Wi

0101100
-5 29 +89 0 +5 29 +74 29 *
Fa
0  0.000000100000000 22 29

0101000
+4 0 *
Sh

0101100
+152 8 -147 8 -142 8 -87 0 +71 0 -68 8 +65 8 +62 8 +59 8 +56 8 
-53 8 -50 8 -47 8 +44 8 +41 8 -38 8 -35 8 -32 8 +29 8 +27 8 
+24 0 +21 0 +18 0 +15 0 +12 22 +9 22 +6 26 +3 26 *
So

0100000
+2 0 *

+1 1 