
CASCADE Topology V1, (c) Matra-Datavision
Locations 47
1
1.000000000000000 0.000000000000000 0.000000000000000 0.000000000000000 
0.000000000000000 1.000000000000000 0.000000000000000 0.000000000000000 
0.000000000000000 0.000000000000000 1.000000000000000 0.000000000000000 
1
0.000000000000000 -0.000000000000000 1.000000000000000 0.000000000000000 
1.000000000000000 0.000000000000000 -0.000000000000000 0.000000000000000 
-0.000000000000000 1.000000000000000 0.000000000000000 0.000000000000000 
1
1.000000000000000 0.000000000000000 0.000000000000000 0.000000000000000 
0.000000000000000 1.000000000000000 0.000000000000000 0.000000000000000 
0.000000000000000 0.000000000000000 1.000000000000000 0.000000000000000 
1
1.000000000000000 0.000000000000000 0.000000000000000 664.636379761718899 
0.000000000000000 1.000000000000000 0.000000000000000 -0.000000000000148 
0.000000000000000 0.000000000000000 1.000000000000000 0.000000000000184 
2  1 1 2 1 3 -1 4 1 0
1
1.000000000000000 0.000000000000000 0.000000000000000 -1329.272759523437799 
0.000000000000000 1.000000000000000 0.000000000000000 0.000000000000295 
0.000000000000000 0.000000000000000 1.000000000000000 -0.000000000000369 
2  1 1 2 1 3 -1 4 1 6 1 0
1
1.000000000000000 0.000000000000000 0.000000000000000 0.000000000000000 
0.000000000000000 1.000000000000000 0.000000000000000 0.000000000000000 
0.000000000000000 0.000000000000000 1.000000000000000 0.000000000000000 
1
0.000000000000000 -0.000000000000000 1.000000000000000 0.000000000000000 
1.000000000000000 0.000000000000000 -0.000000000000000 0.000000000000000 
-0.000000000000000 1.000000000000000 0.000000000000000 0.000000000000000 
1
1.000000000000000 0.000000000000000 0.000000000000000 0.000000000000000 
0.000000000000000 1.000000000000000 0.000000000000000 0.000000000000000 
0.000000000000000 0.000000000000000 1.000000000000000 0.000000000000000 
2  8 1 9 -1 10 -1 0
1
1.000000000000000 0.000000000000000 0.000000000000000 -5.000000000000000 
0.000000000000000 1.000000000000000 0.000000000000000 0.000000000000001 
0.000000000000000 0.000000000000000 1.000000000000000 -0.000000000000001 
2  12 -1 8 1 9 -1 10 -1 0
2  9 -1 10 -1 0
1
1.000000000000000 0.000000000000000 0.000000000000000 0.000000000000000 
0.000000000000000 1.000000000000000 0.000000000000000 0.000000000000000 
0.000000000000000 0.000000000000000 1.000000000000000 0.000000000000000 
1
0.000000000000000 -0.000000000000000 1.000000000000000 0.000000000000000 
1.000000000000000 0.000000000000000 -0.000000000000000 0.000000000000000 
-0.000000000000000 1.000000000000000 0.000000000000000 0.000000000000000 
1
1.000000000000000 0.000000000000000 0.000000000000000 0.000000000000000 
0.000000000000000 1.000000000000000 0.000000000000000 0.000000000000000 
0.000000000000000 0.000000000000000 1.000000000000000 0.000000000000000 
2  15 1 16 -1 17 -1 0
1
1.000000000000000 0.000000000000000 0.000000000000000 -5.000000000000000 
0.000000000000000 1.000000000000000 0.000000000000000 0.000000000000001 
0.000000000000000 0.000000000000000 1.000000000000000 -0.000000000000001 
2  19 -1 15 1 16 -1 17 -1 0
2  16 -1 17 -1 0
1
1.000000000000000 0.000000000000000 0.000000000000000 0.000000000000000 
0.000000000000000 1.000000000000000 0.000000000000000 0.000000000000000 
0.000000000000000 0.000000000000000 1.000000000000000 0.000000000000000 
1
0.000000000000000 -0.000000000000000 1.000000000000000 0.000000000000000 
1.000000000000000 0.000000000000000 -0.000000000000000 0.000000000000000 
-0.000000000000000 1.000000000000000 0.000000000000000 0.000000000000000 
1
1.000000000000000 0.000000000000000 0.000000000000000 0.000000000000000 
0.000000000000000 1.000000000000000 0.000000000000000 0.000000000000000 
0.000000000000000 0.000000000000000 1.000000000000000 0.000000000000000 
2  22 1 23 -1 24 -1 0
1
1.000000000000000 0.000000000000000 0.000000000000000 -1329.115418663383934 
0.000000000000000 1.000000000000000 0.000000000000000 0.000000000000295 
0.000000000000000 0.000000000000000 1.000000000000000 -0.000000000000369 
2  26 -1 22 1 23 -1 24 -1 0
2  23 -1 24 -1 0
1
1.000000000000000 0.000000000000000 0.000000000000000 664.557709331691967 
0.000000000000000 1.000000000000000 0.000000000000000 -0.000000000000148 
0.000000000000000 0.000000000000000 1.000000000000000 0.000000000000184 
1
1.000000000000000 0.000000000000000 0.000000000000000 0.000000000000000 
0.000000000000000 1.000000000000000 0.000000000000000 0.000000000000000 
0.000000000000000 0.000000000000000 1.000000000000000 0.000000000000000 
1
0.000000000000000 -0.000000000000000 1.000000000000000 0.000000000000000 
1.000000000000000 0.000000000000000 -0.000000000000000 0.000000000000000 
-0.000000000000000 1.000000000000000 0.000000000000000 0.000000000000000 
1
1.000000000000000 0.000000000000000 0.000000000000000 0.000000000000000 
0.000000000000000 1.000000000000000 0.000000000000000 0.000000000000000 
0.000000000000000 0.000000000000000 1.000000000000000 0.000000000000000 
2  29 -1 30 1 31 -1 32 -1 0
1
1.000000000000000 0.000000000000000 0.000000000000000 -1329.115418663383934 
0.000000000000000 1.000000000000000 0.000000000000000 0.000000000000295 
0.000000000000000 0.000000000000000 1.000000000000000 -0.000000000000369 
2  34 -1 29 -1 30 1 31 -1 32 -1 0
1
1.000000000000000 0.000000000000000 0.000000000000000 664.557709331691967 
0.000000000000000 1.000000000000000 0.000000000000000 -0.000000000000148 
0.000000000000000 0.000000000000000 1.000000000000000 0.000000000000184 
1
1.000000000000000 0.000000000000000 0.000000000000000 0.000000000000000 
0.000000000000000 1.000000000000000 0.000000000000000 0.000000000000000 
0.000000000000000 0.000000000000000 1.000000000000000 0.000000000000000 
1
0.000000000000000 -0.000000000000000 1.000000000000000 0.000000000000000 
1.000000000000000 0.000000000000000 -0.000000000000000 0.000000000000000 
-0.000000000000000 1.000000000000000 0.000000000000000 0.000000000000000 
1
1.000000000000000 0.000000000000000 0.000000000000000 0.000000000000000 
0.000000000000000 1.000000000000000 0.000000000000000 0.000000000000000 
0.000000000000000 0.000000000000000 1.000000000000000 0.000000000000000 
2  36 -1 37 1 38 -1 39 -1 0
1
1.000000000000000 0.000000000000000 0.000000000000000 -1329.115418663383934 
0.000000000000000 1.000000000000000 0.000000000000000 0.000000000000295 
0.000000000000000 0.000000000000000 1.000000000000000 -0.000000000000369 
2  41 -1 36 -1 37 1 38 -1 39 -1 0
2  4 -1 3 1 2 -1 1 -1 0
2  6 -1 4 -1 3 1 2 -1 1 -1 0
2  3 -1 4 1 0
2  1 1 2 1 0
2  3 -1 4 1 6 1 0
Curve2ds 37
1 0.00000000000000000 0.00000000000000000 -0.00000000000000001 -1.00000000000000000 
1 222.70869400000000837 0.00000000000004945 -0.00000000000000000 -1.00000000000000000 
1 224.26005557053346706 -0.00000000000004360 -0.00000000000000001 -1.00000000000000000 
1 0.00000000000000000 0.00000000000000000 1.00000000000000000 0.00000000000000000 
1 -0.00000000000000003 -5.00000000000000000 1.00000000000000000 0.00000000000000000 
1 -117.54967710736664799 -6.97101089263334206 0.99308230988088053 0.11742029552702883 
1 0.00000000000000000 0.00000000000000000 1.00000000000000000 0.00000000000000000 
1 -0.00000000000000003 -5.00000000000000000 1.00000000000000000 0.00000000000000000 
1 -117.54967710736664799 -6.97101089263334206 0.99308230988088053 0.11742029552702883 
1 0.00000000000000000 0.00000000000000000 1.00000000000000000 0.00000000000000000 
1 -0.00000000000000866 -1329.11541866338393447 1.00000000000000000 0.00000000000000000 
1 -117.54967710736664799 -6.97101089263334206 0.99308230988088053 0.11742029552702883 
1 0.00000000000000000 0.00000000000000000 1.00000000000000000 0.00000000000000000 
1 -0.00000000000000866 -1329.11541866338393447 1.00000000000000000 0.00000000000000000 
1 0.00000000000000000 0.00000000000000000 1.00000000000000000 0.00000000000000000 
1 -0.00000000000000866 -1329.11541866338393447 1.00000000000000000 0.00000000000000000 
1 0.00000000000000000 0.00000000000000000 1.00000000000000000 0.00000000000000000 
1 -0.00000000000000866 -1329.27275952343779863 1.00000000000000000 0.00000000000000000 
1 0.00000000000000000 0.00000000000000000 -0.00000000000000000 -1.00000000000000000 
1 105.15901689263336038 19.36167110736660746 -0.00000000000000022 -1.00000000000000000 
1 105.15901689263336038 19.36167110736660746 -0.00000000000000022 -1.00000000000000000 
1 105.15901689263336038 19.36167110736660746 -0.00000000000000022 -1.00000000000000000 
1 0.00000000000000000 0.00000000000000000 1.00000000000000000 0.00000000000000000 
1 0.00000000000000111 -5.00000000000000000 1.00000000000000000 0.00000000000000000 
1 105.15901689263336038 -6.97101089263339180 -1.00000000000000000 0.00000000000000022 
1 0.00000000000000000 0.00000000000000000 1.00000000000000000 0.00000000000000000 
1 0.00000000000000111 -5.00000000000000000 1.00000000000000000 0.00000000000000000 
1 105.15901689263336038 -6.97101089263339180 -1.00000000000000000 0.00000000000000022 
1 0.00000000000000000 0.00000000000000000 1.00000000000000000 0.00000000000000000 
1 0.00000000000001091 -1329.11541866338393447 1.00000000000000000 0.00000000000000000 
1 105.15901689263336038 -6.97101089263339180 -1.00000000000000000 0.00000000000000022 
1 0.00000000000000000 0.00000000000000000 1.00000000000000000 0.00000000000000000 
1 0.00000000000001091 -1329.11541866338393447 1.00000000000000000 0.00000000000000000 
1 0.00000000000000000 0.00000000000000000 1.00000000000000000 0.00000000000000000 
1 0.00000000000001091 -1329.11541866338393447 1.00000000000000000 0.00000000000000000 
1 0.00000000000000000 0.00000000000000000 1.00000000000000000 0.00000000000000000 
1 0.00000000000001094 -1329.27275952343779863 1.00000000000000000 0.00000000000000000 
Curves 6
1 664.63637976171889932 -0.00000000000014758 0.00000000000018447 -1.00000000000000000 0.00000000000000022 -0.00000000000000028 
1 664.63637976171889932 222.70869399999986626 26.33268200000013337 -1.00000000000000000 0.00000000000000022 -0.00000000000000028 
1 0.00000000000000000 0.00000000000000000 0.00000000000000000 0.99308230988088053 0.11742029552702905 0.00000000000000000 
1 664.63637976171889932 222.70869399999986626 0.00000000000013502 -1.00000000000000000 0.00000000000000022 -0.00000000000000028 
1 222.70869400000000837 26.33268199999999837 0.00000000000000000 0.00000000000000000 -1.00000000000000000 0.00000000000000000 
1 222.70869400000000837 0.00000000000000000 0.00000000000000000 -1.00000000000000000 0.00000000000000000 0.00000000000000000 
Polygon3D 0
PolygonOnTriangulations 0
Surfaces 17
1 664.63637976171889932 -0.00000000000014758 0.00000000000018447 0.00000000000000030 0.11742029552702883 -0.99308230988088053 0.00000000000000019 0.99308230988088053 0.11742029552702883 1.00000000000000000 -0.00000000000000022 0.00000000000000028 
1 664.63637976171889932 222.70869399999986626 0.00000000000013502 -0.00000000000000028 0.00000000000000022 1.00000000000000000 -0.00000000000000022 -1.00000000000000000 0.00000000000000022 1.00000000000000000 -0.00000000000000022 0.00000000000000028 
1 0.00000000000000000 0.00000000000000000 0.00000000000000000 0.00000000000000030 0.11742029552702883 -0.99308230988088053 0.00000000000000019 0.99308230988088053 0.11742029552702883 1.00000000000000000 -0.00000000000000022 0.00000000000000028 
1 0.00000000000002455 117.54967710736664799 6.97101089263334206 1.00000000000000000 -0.00000000000000022 0.00000000000000022 0.00000000000000022 1.00000000000000000 0.00000000000000000 -0.00000000000000022 0.00000000000000000 1.00000000000000000 
1 0.00000000000000000 0.00000000000000000 0.00000000000000000 0.00000000000000030 0.11742029552702883 -0.99308230988088053 0.00000000000000019 0.99308230988088053 0.11742029552702883 1.00000000000000000 -0.00000000000000022 0.00000000000000028 
1 0.00000000000002455 117.54967710736664799 6.97101089263334206 1.00000000000000000 -0.00000000000000022 0.00000000000000022 0.00000000000000022 1.00000000000000000 0.00000000000000000 -0.00000000000000022 0.00000000000000000 1.00000000000000000 
1 0.00000000000000000 0.00000000000000000 0.00000000000000000 0.00000000000000030 0.11742029552702883 -0.99308230988088053 0.00000000000000019 0.99308230988088053 0.11742029552702883 1.00000000000000000 -0.00000000000000022 0.00000000000000028 
1 0.00000000000002455 117.54967710736664799 6.97101089263334206 1.00000000000000000 -0.00000000000000022 0.00000000000000022 0.00000000000000022 1.00000000000000000 0.00000000000000000 -0.00000000000000022 0.00000000000000000 1.00000000000000000 
1 664.55770933169196724 -0.00000000000014756 0.00000000000018445 0.00000000000000030 0.11742029552702883 -0.99308230988088053 0.00000000000000019 0.99308230988088053 0.11742029552702883 1.00000000000000000 -0.00000000000000022 0.00000000000000028 
1 664.55770933169196724 -0.00000000000014756 0.00000000000018445 0.00000000000000030 0.11742029552702883 -0.99308230988088053 0.00000000000000019 0.99308230988088053 0.11742029552702883 1.00000000000000000 -0.00000000000000022 0.00000000000000028 
1 664.63637976171889932 222.70869399999986626 26.33268200000013337 -0.00000000000000022 -1.00000000000000000 0.00000000000000022 0.00000000000000022 -0.00000000000000022 -1.00000000000000000 1.00000000000000000 -0.00000000000000022 0.00000000000000022 
1 0.00000000000004945 222.70869400000000837 -0.00000000000004945 -0.00000000000000028 0.00000000000000022 1.00000000000000000 -0.00000000000000022 -1.00000000000000000 0.00000000000000022 1.00000000000000000 -0.00000000000000022 0.00000000000000028 
1 0.00000000000004945 222.70869400000000837 -0.00000000000004945 -0.00000000000000028 0.00000000000000022 1.00000000000000000 -0.00000000000000022 -1.00000000000000000 0.00000000000000022 1.00000000000000000 -0.00000000000000022 0.00000000000000028 
1 0.00000000000004945 222.70869400000000837 -0.00000000000004945 -0.00000000000000028 0.00000000000000022 1.00000000000000000 -0.00000000000000022 -1.00000000000000000 0.00000000000000022 1.00000000000000000 -0.00000000000000022 0.00000000000000028 
1 664.55770933169196724 222.70869399999986626 0.00000000000013500 -0.00000000000000028 0.00000000000000022 1.00000000000000000 -0.00000000000000022 -1.00000000000000000 0.00000000000000022 1.00000000000000000 -0.00000000000000022 0.00000000000000028 
1 664.55770933169196724 222.70869399999986626 0.00000000000013500 -0.00000000000000028 0.00000000000000022 1.00000000000000000 -0.00000000000000022 -1.00000000000000000 0.00000000000000022 1.00000000000000000 -0.00000000000000022 0.00000000000000028 
1 0.00000000000002455 117.54967710736664799 6.97101089263334206 1.00000000000000000 -0.00000000000000022 0.00000000000000022 0.00000000000000022 1.00000000000000000 0.00000000000000000 -0.00000000000000022 0.00000000000000000 1.00000000000000000 
Triangulations 0

TShapes 19
Ve
0.000000100000000
0.000000000000000 0.000000000000000 0.000000000000000
0 0

0101101
*
Ed
 0.000000100000000 1 1 0
1  1 0 0.000000000000000 1329.272759523437799
2  1 1 0 0.000000000000000 1329.272759523437799
2  2 2 0 0.000000000000000 1329.272759523437799
0

0101000
+19 5 -19 7 *
Ve
0.000000100000000
222.708694000000008 26.332681999999998 0.000000000000000
0 0

0101101
*
Ed
 0.000000100000000 1 1 0
1  2 0 0.000000000000000 1329.272759523437799
2  3 1 0 0.000000000000000 1329.272759523437799
0

0101000
+17 5 -17 7 *
Ed
 0.000000100000000 1 1 0
1  3 0 0.000000000000000 224.260055570533467
2  4 3 11 0.000000000000000 224.260055570533467
2  5 3 13 0.000000000000000 224.260055570533467
2  6 4 14 0.000000000000000 224.260055570533467
2  7 5 18 0.000000000000000 224.260055570533467
2  8 5 20 0.000000000000000 224.260055570533467
2  9 6 21 0.000000000000000 224.260055570533467
2  10 7 25 0.000000000000000 224.260055570533467
2  11 7 27 0.000000000000000 224.260055570533467
2  12 8 28 0.000000000000000 224.260055570533467
2  13 9 33 0.000000000000000 224.260055570533467
2  14 9 35 0.000000000000000 224.260055570533467
2  15 10 40 0.000000000000000 224.260055570533467
2  16 10 42 0.000000000000000 224.260055570533467
2  17 1 43 0.000000000000000 224.260055570533467
2  18 1 44 0.000000000000000 224.260055570533467
0

0101000
+19 0 -17 0 *
Wi

0101100
+18 0 -16 0 -15 5 +15 7 *
Fa
0  0.000000100000000 1 0

0111000
+14 0 *
Ve
0.000000100000000
222.708694000000008 0.000000000000000 0.000000000000000
0 0

0101101
*
Ed
 0.000000100000000 1 1 0
1  4 0 0.000000000000000 1329.272759523437799
2  19 2 0 0.000000000000000 1329.272759523437799
0

0101000
+12 5 -12 7 *
Ed
 0.000000100000000 1 1 0
1  5 0 0.000000000000000 26.332681999999998
2  20 4 14 0.000000000000000 26.332681999999998
2  21 6 21 0.000000000000000 26.332681999999998
2  22 8 28 0.000000000000000 26.332681999999998
0

0101000
+17 0 -12 0 *
Wi

0101100
+16 0 -11 0 -10 5 +10 7 *
Fa
0  0.000000100000000 11 0

0111000
+9 0 *
Ed
 0.000000100000000 1 1 0
1  6 0 0.000000000000000 222.708694000000008
2  23 12 11 0.000000000000000 222.708694000000008
2  24 12 13 0.000000000000000 222.708694000000008
2  25 4 14 0.000000000000000 222.708694000000008
2  26 13 18 0.000000000000000 222.708694000000008
2  27 13 20 0.000000000000000 222.708694000000008
2  28 6 21 0.000000000000000 222.708694000000008
2  29 14 25 0.000000000000000 222.708694000000008
2  30 14 27 0.000000000000000 222.708694000000008
2  31 8 28 0.000000000000000 222.708694000000008
2  32 15 33 0.000000000000000 222.708694000000008
2  33 15 35 0.000000000000000 222.708694000000008
2  34 16 40 0.000000000000000 222.708694000000008
2  35 16 42 0.000000000000000 222.708694000000008
2  36 2 43 0.000000000000000 222.708694000000008
2  37 2 44 0.000000000000000 222.708694000000008
0

0101000
+12 0 -19 0 *
Wi

0101100
+11 0 -18 0 -7 5 +7 7 *
Fa
0  0.000000100000000 2 0

0111000
+6 0 *
Wi

0101100
+15 0 +10 0 +7 0 *
Fa
0  0.000000100000000 17 0

0111000
-4 46 *
Sh

0101100
-13 0 -8 0 -5 0 +3 45 -3 47 *
So

1100000
+2 0 *

+1 0 