
CASCADE Topology V1, (c) Matra-Datavision
Locations 15
1
1.000000000000000 0.000000000000000 0.000000000000000 0.000000000000000 
0.000000000000000 1.000000000000000 0.000000000000000 0.000000000000000 
0.000000000000000 0.000000000000000 1.000000000000000 0.000000000000000 
1
1.000000000000000 0.000000000000000 0.000000000000000 0.000000000000000 
0.000000000000000 1.000000000000000 0.000000000000000 0.000000000000000 
0.000000000000000 0.000000000000000 1.000000000000000 0.000000000000000 
1
1.000000000000000 0.000000000000000 0.000000000000000 0.000000000000000 
0.000000000000000 1.000000000000000 0.000000000000000 0.000000000000000 
0.000000000000000 0.000000000000000 1.000000000000000 0.000000000000000 
2  2 1 3 1 0
2  3 -1 2 -1 0
1
1.000000000000000 0.000000000000000 0.000000000000000 0.000000000000000 
0.000000000000000 1.000000000000000 0.000000000000000 0.000000000000000 
0.000000000000000 0.000000000000000 1.000000000000000 0.000000000000000 
1
1.000000000000000 0.000000000000000 0.000000000000000 0.000000000000000 
0.000000000000000 1.000000000000000 0.000000000000000 0.000000000000000 
0.000000000000000 0.000000000000000 1.000000000000000 0.000000000000000 
2  6 1 7 -1 1 -1 3 -1 2 -1 0
1
1.000000000000000 0.000000000000000 0.000000000000000 0.000000000000000 
0.000000000000000 1.000000000000000 0.000000000000000 0.000000000000000 
0.000000000000000 0.000000000000000 1.000000000000000 1074.119686068545207 
2  9 -1 6 1 7 -1 1 -1 3 -1 2 -1 0
1
1.000000000000000 0.000000000000000 0.000000000000000 0.000000000000000 
0.000000000000000 1.000000000000000 0.000000000000000 0.000000000000000 
0.000000000000000 0.000000000000000 1.000000000000000 0.000000000000000 
2  11 1 7 -1 1 -1 3 -1 2 -1 0
1
1.000000000000000 0.000000000000000 0.000000000000000 0.000000000000000 
0.000000000000000 1.000000000000000 0.000000000000000 0.000000000000000 
0.000000000000000 0.000000000000000 1.000000000000000 0.000000000000000 
1
1.000000000000000 0.000000000000000 0.000000000000000 0.000000000000000 
0.000000000000000 1.000000000000000 0.000000000000000 0.000000000000000 
0.000000000000000 0.000000000000000 1.000000000000000 0.000000000000000 
2  13 1 14 -1 6 1 7 -1 1 -1 3 -1 2 -1 0
Curve2ds 30
1 -252.50000000009316636 35.82302951386716927 0.00000000000000000 1.00000000000000000 
1 0.00000000000000000 0.00000000000000000 1.00000000000000000 0.00000000000000000 
1 0.00000000000000000 -1074.11968606854520658 1.00000000000000000 0.00000000000000000 
2 -147.49999999256601768 35.82302951286020232 1.00000000000000000 0.00000000000000000 -0.00000000000000000 1.00000000000000000 105.00000000752714868
1 -252.50000000009316636 55.82302950535633812 1.00000000000000000 0.00000000000000000 
1 147.49999999135724238 -69.17697049468615944 -1.00000000000000000 0.00000000000000000 
1 252.49999999989393018 55.82302950535633812 0.00000000000000000 -1.00000000000000000 
1 0.00000000000000000 0.00000000000000000 1.00000000000000000 0.00000000000000000 
1 0.00000000000000000 -1074.11968606854520658 1.00000000000000000 0.00000000000000000 
2 147.49999999236678150 35.82302951284098924 1.00000000000000000 0.00000000000000000 -0.00000000000000000 1.00000000000000000 105.00000000752714868
1 0.00000000000000000 0.00000000000000000 1.00000000000000000 0.00000000000000000 
1 0.00000000000000000 -1074.11968606854520658 1.00000000000000000 0.00000000000000000 
2 -29.49999999859286959 4.35437621677968334 1.00000000000000000 0.00000000000000000 -0.00000000000000000 1.00000000000000000 21.00000000150543045
1 29.49999999819178242 -16.64562378472958670 -1.00000000000000000 0.00000000000000000 
1 0.00000000000000000 -0.00000000000000000 1.00000000000000000 0.00000000000000000 
1 0.00000000000000000 -1074.11968606854520658 1.00000000000000000 0.00000000000000000 
1 21.00000000000510170 -79.99999999829137209 0.00000000000000022 1.00000000000000000 
1 79.99999999829137209 -25.00000000000510880 -1.00000000000000000 0.00000000000000000 
1 0.00000000000000000 0.00000000000000000 1.00000000000000000 0.00000000000000000 
1 0.00000000000000000 -1074.11968606854520658 1.00000000000000000 0.00000000000000000 
2 29.49999999839369025 4.35437621677584197 1.00000000000000000 0.00000000000000000 -0.00000000000000000 1.00000000000000000 21.00000000150543045
1 50.49999999989912425 8.35437621527891139 0.00000000000000000 -1.00000000000000000 
1 0.00000000000000000 0.00000000000000000 1.00000000000000000 0.00000000000000000 
1 0.00000000000000000 -1074.11968606854520658 1.00000000000000000 0.00000000000000000 
1 -50.50000000009829648 8.35437621527891139 1.00000000000000000 0.00000000000000000 
1 0.00000000000000000 0.00000000000000000 1.00000000000000000 0.00000000000000000 
1 0.00000000000000000 -1074.11968606854520658 1.00000000000000000 0.00000000000000000 
1 0.00000000000000000 0.00000000000000000 1.00000000000000000 0.00000000000000000 
1 0.00000000000000000 -1074.11968606854520658 1.00000000000000000 0.00000000000000000 
1 -50.50000000009829648 4.35437621698107868 0.00000000000000000 1.00000000000000000 
Curves 12
1 -252.49999999999357669 27.46865329859165072 0.00000000000000000 0.00000000000000000 1.00000000000000000 0.00000000000000000 
2 -147.49999999246642801 27.46865329758467666 0.00000000000000000 0.00000000000000000 0.00000000000000000 1.00000000000000000 1.00000000000000000 0.00000000000000000 -0.00000000000000000 -0.00000000000000000 1.00000000000000000 0.00000000000000000 105.00000000752714868
1 -252.49999999999357669 47.46865329008081602 0.00000000000000000 1.00000000000000000 0.00000000000000000 0.00000000000000000 
1 147.49999999145683205 -77.53134670996168154 0.00000000000000000 -1.00000000000000000 0.00000000000000000 0.00000000000000000 
1 252.49999999999351985 47.46865329008081602 0.00000000000000000 0.00000000000000000 -1.00000000000000000 0.00000000000000000 
2 147.49999999246637117 27.46865329756546714 0.00000000000000000 0.00000000000000000 0.00000000000000000 1.00000000000000000 1.00000000000000000 0.00000000000000000 -0.00000000000000000 -0.00000000000000000 1.00000000000000000 0.00000000000000000 105.00000000752714868
2 -29.49999999849328347 -3.99999999849583876 0.00000000000000000 0.00000000000000000 0.00000000000000000 1.00000000000000000 1.00000000000000000 0.00000000000000000 -0.00000000000000000 -0.00000000000000000 1.00000000000000000 0.00000000000000000 21.00000000150543045
1 29.49999999829136854 -25.00000000000510880 0.00000000000000000 -1.00000000000000000 0.00000000000000000 0.00000000000000000 
2 29.49999999849327637 -3.99999999849968013 0.00000000000000000 0.00000000000000000 0.00000000000000000 1.00000000000000000 1.00000000000000000 0.00000000000000000 -0.00000000000000000 -0.00000000000000000 1.00000000000000000 0.00000000000000000 21.00000000150543045
1 50.49999999999870681 0.00000000000338884 0.00000000000000000 0.00000000000000000 -1.00000000000000000 0.00000000000000000 
1 -50.49999999999871392 0.00000000000338884 0.00000000000000000 1.00000000000000000 0.00000000000000000 0.00000000000000000 
1 -50.49999999999871392 -3.99999999829444386 0.00000000000000000 0.00000000000000000 1.00000000000000000 0.00000000000000000 
Polygon3D 0
PolygonOnTriangulations 0
Surfaces 11
1 0.00000000009958476 -8.35437621527552210 0.00000000000000000 0.00000000000000000 0.00000000000000000 1.00000000000000000 1.00000000000000000 0.00000000000000000 -0.00000000000000000 -0.00000000000000000 1.00000000000000000 0.00000000000000000 
2 -147.49999999246642801 27.46865329758467666 0.00000000000000000 -0.00000000000000000 -0.00000000000000000 -1.00000000000000000 1.00000000000000000 0.00000000000000000 0.00000000000000000 -0.00000000000000000 1.00000000000000000 -0.00000000000000000 105.00000000752714868
2 147.49999999246637117 27.46865329756546714 0.00000000000000000 -0.00000000000000000 -0.00000000000000000 -1.00000000000000000 1.00000000000000000 0.00000000000000000 0.00000000000000000 -0.00000000000000000 1.00000000000000000 -0.00000000000000000 105.00000000752714868
2 -29.49999999849328347 -3.99999999849583876 0.00000000000000000 -0.00000000000000000 -0.00000000000000000 -1.00000000000000000 1.00000000000000000 0.00000000000000000 0.00000000000000000 -0.00000000000000000 1.00000000000000000 -0.00000000000000000 21.00000000150543045
1 29.49999999829136854 -25.00000000000510880 0.00000000000000000 0.00000000000000000 -1.00000000000000000 0.00000000000000000 -1.00000000000000000 0.00000000000000000 0.00000000000000000 -0.00000000000000000 -0.00000000000000000 -1.00000000000000000 
1 -50.50000000000000000 -3.99999999999998890 -0.00000000000001313 0.00000000000000028 -0.00000000000000022 -1.00000000000000000 -0.00000000000000022 -1.00000000000000000 0.00000000000000022 -1.00000000000000000 0.00000000000000022 -0.00000000000000028 
1 -50.50000000000000000 0.00000000000000000 0.00000000000000000 -0.00000000000000000 0.00000000000000022 1.00000000000000000 1.00000000000000000 0.00000000000000000 0.00000000000000000 0.00000000000000000 1.00000000000000000 -0.00000000000000022 
2 29.49999999849327637 -3.99999999849968013 0.00000000000000000 -0.00000000000000000 -0.00000000000000000 -1.00000000000000000 1.00000000000000000 0.00000000000000000 0.00000000000000000 -0.00000000000000000 1.00000000000000000 -0.00000000000000000 21.00000000150543045
1 50.49999999999870681 0.00000000000338884 0.00000000000000000 1.00000000000000000 0.00000000000000000 -0.00000000000000000 0.00000000000000000 -1.00000000000000000 0.00000000000000000 0.00000000000000000 -0.00000000000000000 -1.00000000000000000 
1 -50.49999999999871392 0.00000000000338884 0.00000000000000000 0.00000000000000000 1.00000000000000000 0.00000000000000000 1.00000000000000000 0.00000000000000000 0.00000000000000000 0.00000000000000000 0.00000000000000000 -1.00000000000000000 
1 -50.49999999999871392 -3.99999999829444386 0.00000000000000000 -1.00000000000000000 0.00000000000000000 0.00000000000000000 0.00000000000000000 1.00000000000000000 0.00000000000000000 0.00000000000000000 0.00000000000000000 -1.00000000000000000 
Triangulations 0

TShapes 28
Ve
0.000000500000000
-252.499999999993577 27.468653298591651 0.000000000000000
0 0

0101101
*
Ve
0.000000500000000
-252.499999999993577 47.468653290080816 0.000000000000000
0 0

0101101
*
Ed
 0.000000500000000 1 1 0
1  1 0 0.000000000000000 19.999999991489162
2  1 1 5 0.000000000000000 19.999999991489162
0

0101000
+28 5 -27 5 *
Ve
0.000000500009601
-147.499999991457742 -77.531346709952075 0.000000000000000
0 0

0101101
*
Ed
 0.000000500000000 1 1 0
1  2 0 3.141592653580203 4.712388980394296
2  2 2 8 3.141592653580203 4.712388980394296
2  3 2 10 3.141592653580203 4.712388980394296
2  4 1 5 3.141592653580203 4.712388980394296
0

0101000
+28 5 -25 5 *
Ve
0.000000500000018
252.499999999993520 47.468653290080816 0.000000000000000
0 0

0101101
*
Ed
 0.000000500000000 1 1 0
1  3 0 0.000000000000000 504.999999999987040
2  5 1 5 0.000000000000000 504.999999999987040
0

0101000
+27 5 -23 5 *
Ve
0.000000500000000
147.499999991456832 -77.531346709961682 0.000000000000000
0 0

0101101
*
Ed
 0.000000500000000 1 1 0
1  4 0 0.000000000000000 294.999999982914574
2  6 1 5 0.000000000000000 294.999999982914574
0

0101000
+21 5 -25 5 *
Ve
0.000000500000000
252.499999999993520 27.468653290097656 0.000000000000000
0 0

0101101
*
Ed
 0.000000500000000 1 1 0
1  5 0 0.000000000000000 19.999999999983157
2  7 1 5 0.000000000000000 19.999999999983157
0

0101000
+23 5 -19 5 *
Ed
 0.000000500000000 1 1 0
1  6 0 4.712388980375075 6.283185307108464
2  8 3 8 4.712388980375075 6.283185307108464
2  9 3 10 4.712388980375075 6.283185307108464
2  10 1 5 4.712388980375075 6.283185307108464
0

0101000
+21 5 -19 5 *
Wi

0101100
-26 4 +24 4 -22 4 -20 4 -18 4 +17 4 *
Ve
0.000000500000000
-50.499999999998714 -3.999999998294444 0.000000000000000
0 0

0101101
*
Ve
0.001000000000013
-29.499999998291550 -25.000000000003190 0.000000000000000
0 0

0101101
*
Ed
 0.000000500000000 1 1 0
1  7 0 3.141592653580203 4.712388980394296
2  11 4 8 3.141592653580203 4.712388980394296
2  12 4 10 3.141592653580203 4.712388980394296
2  13 1 5 3.141592653580203 4.712388980394296
0

0101000
+15 5 -14 5 *
Ve
0.001000000000017
29.499999998291369 -25.000000000005109 0.000000000000000
0 0

0101101
*
Ed
 0.001000000000013 1 1 0
1  8 0 0.000000000000000 58.999999996582915
2  14 1 5 0.000000000000000 58.999999996582915
2  15 5 8 0.000000000000000 58.999999996582915
2  16 5 10 0.000000000000000 58.999999996582915
2  17 6 12 0.000000000000000 58.999999996582915
2  18 7 15 0.000000000000000 58.999999996582915
0

0101000
+12 5 -14 5 *
Ve
0.000000500000000
50.499999999998707 -3.999999999993243 0.000000000000000
0 0

0101101
*
Ed
 0.000000500000000 1 1 0
1  9 0 4.712388980375075 6.283185307108464
2  19 8 8 4.712388980375075 6.283185307108464
2  20 8 10 4.712388980375075 6.283185307108464
2  21 1 5 4.712388980375075 6.283185307108464
0

0101000
+12 5 -10 5 *
Ve
0.000000500000000
50.499999999998707 0.000000000003389 0.000000000000000
0 0

0101101
*
Ed
 0.000000500000000 1 1 0
1  10 0 0.000000000000000 3.999999999996632
2  22 1 5 0.000000000000000 3.999999999996632
2  23 9 8 0.000000000000000 3.999999999996632
2  24 9 10 0.000000000000000 3.999999999996632
0

0101000
+8 5 -10 5 *
Ve
0.000000500000000
-50.499999999998714 0.000000000003389 0.000000000000000
0 0

0101101
*
Ed
 0.000000500000000 1 1 0
1  11 0 0.000000000000000 100.999999999997414
2  25 1 5 0.000000000000000 100.999999999997414
2  26 10 8 0.000000000000000 100.999999999997414
2  27 10 10 0.000000000000000 100.999999999997414
0

0101000
+6 5 -8 5 *
Ed
 0.000000500000000 1 1 0
1  12 0 0.000000000000000 3.999999998297833
2  28 11 8 0.000000000000000 3.999999998297833
2  29 11 10 0.000000000000000 3.999999998297833
2  30 1 5 0.000000000000000 3.999999998297833
0

0101000
+15 5 -6 5 *
Wi

0101100
-13 4 +11 4 -9 4 +7 4 +5 4 +4 4 *
Fa
0  0.000000500000000 1 0

0101000
+16 0 +3 0 *
Sh

1101000
+2 0 *

+1 1 