
CASCADE Topology V1, (c) Matra-Datavision
Locations 3
1
1.000000000000000 0.000000000000000 0.000000000000000 0.000000000000000 
0.000000000000000 1.000000000000000 0.000000000000000 0.000000000000000 
0.000000000000000 0.000000000000000 1.000000000000000 0.000000000000000 
1
1.000000000000000 0.000000000000000 0.000000000000000 0.000000000000000 
0.000000000000000 1.000000000000000 0.000000000000000 0.000000000000000 
0.000000000000000 0.000000000000000 1.000000000000000 425.000000000000000 
2  2 -1 0
Curve2ds 55
1 1.57079632833653537 0.00000000000000000 0.00000000000000000 -1.00000000000000000 
1 0.00000000000000000 -1.50000000000000000 1.00000000000000000 0.00000000000000000 
1 0.00000000000000000 -1.50000000000000000 -1.00000000000000000 0.00000000000000000 
1 0.00000000000000000 0.00000000000000000 0.00000000000000000 -1.00000000000000000 
1 10.00000000000003553 0.00000000000000000 0.00000000000000000 -1.00000000000000000 
1 0.00000000000000000 0.00000000000000000 1.00000000000000000 0.00000000000000000 
1 0.00000000000000000 -1.50000000000000000 -1.00000000000000000 0.00000000000000000 
1 -0.00000000000000000 -1.50000000000000000 1.00000000000000000 0.00000000000000000 
1 0.00000000000000000 0.00000000000000000 1.00000000000000000 0.00000000000000000 
1 0.00000000000000000 -425.00000000000000000 1.00000000000000000 0.00000000000000000 
1 1.18159771767359123 0.00000000000000000 0.00000000000000000 -1.00000000000000000 
1 0.00000000000000000 -1.49999999999999800 1.00000000000000000 0.00000000000000000 
1 0.00000000000000000 -1.50000000000018385 -1.00000000000000000 0.00000000000000000 
1 29.99999960437058988 0.00000000000000000 0.00000000000000000 -1.00000000000000000 
1 0.00000000000000000 0.00000000000000000 1.00000000000000000 0.00000000000000000 
1 0.00000000000000000 0.00000000000000000 1.00000000000000000 0.00000000000000000 
1 0.00000000000000000 -425.00000000000000000 1.00000000000000000 0.00000000000000000 
1 6.28318530717958623 0.00000000000000000 -1.00000000000000000 0.00000000000000000 
1 0.00000000000000000 0.00000000000000000 1.00000000000000000 0.00000000000000000 
6 0 1 -10.00000000000003553 -1.50000000000000000  -10.00000000000003553 0.00000000000000000  
1 10.00000000000003553 0.00000000000000000 0.00000000000000000 -1.00000000000000000 
6 0 1 10.00000000000003553 -1.50000000000000000  10.00000000000003553 0.00000000000000000  
1 0.00000000000000000 0.00000000000000000 1.00000000000000000 0.00000000000000000 
1 0.00000000000000000 0.00000000000000000 1.00000000000000000 0.00000000000000000 
6 0 1 0.00000000000000000 -1.50000000000000000  0.00000000000000000 0.00000000000000000  
6 0 1 0.00000000000000000 -1.50000000000000000  0.00000000000000000 0.00000000000000000  
8 0.00000000000000000 1.00000000000000000
1 1.57079632833653537 0.00000000000000000 0.00000000000000000 1.00000000000000000 
6 0 1 0.00000000000000000 -1.50000000000000000  0.00000000000000000 0.00000000000000000  
6 0 1 -425.00000000000000000 -1.50000000000000000  -425.00000000000000000 0.00000000000000000  
8 0.00000000000000000 1.00000000000000000
1 4.71238897884305086 0.00000000000000000 0.00000000000000000 1.00000000000000000 
1 0.00000000000000000 -425.00000000000000000 1.00000000000000000 0.00000000000000000 
1 0.00000000000000000 0.00000000000000000 -1.00000000000000000 0.00000000000000000 
1 0.00000000000000000 0.00000000000000000 0.00000000000000000 -1.00000000000000000 
1 0.00000000000000000 0.00000000000000000 1.00000000000000000 0.00000000000000000 
1 0.00000000000000366 -1.49999999999999778 -1.00000000000000000 0.00000000000000000 
1 -0.00000000000000366 -1.49999999999999778 1.00000000000000000 0.00000000000000000 
1 0.00000000000000000 0.00000000000000000 1.00000000000000000 0.00000000000000000 
1 0.00000000000000000 -425.00000000000000000 1.00000000000000000 0.00000000000000000 
1 0.00000000000000000 1.00000000000000000 1.00000000000000000 0.00000000000000000 
1 1.18159771767359123 0.00000000000000000 0.00000000000000000 1.00000000000000000 
6 0 1 0.00000000000000000 -1.50000000000022737  0.00000000000000000 0.00000000000000000  
1 5.10158758950599456 0.00000000000000000 0.00000000000000000 1.00000000000000000 
7 0 0  1 2 2  -425.00000000000000000 -1.50000000000005684  -425.00000000000000000 -0.00000000000011369 
 0.00000000000000000 2 1.00000000000000000 2
1 6.28318530717958623 1.00000000000000000 -1.00000000000000000 0.00000000000000000 
1 0.00000000000000000 0.00000000000000000 0.00000000000000000 -1.00000000000000000 
1 0.00000000000000000 0.00000000000000000 -1.00000000000000000 0.00000000000000000 
8 0.00000000000000000 425.00000000000000000
1 1.57079632833653537 0.00000000000000000 0.00000000000000000 -1.00000000000000000 
6 0 1 0.00000000000000000 -1.50000000000000000  0.00000000000000000 0.00000000000000000  
1 0.00000000000000000 0.00000000000000000 0.00000000000000000 -1.00000000000000000 
6 0 1 0.00000000000000000 -1.50000000000000000  0.00000000000000000 0.00000000000000000  
1 0.00000000000000000 0.00000000000000000 1.00000000000000000 0.00000000000000000 
1 0.00000000000000000 0.00000000000000000 1.00000000000000000 0.00000000000000000 
1 0.00000000000000000 -425.00000000000000000 1.00000000000000000 0.00000000000000000 
1 0.00000000000000000 0.00000000000000000 -1.00000000000000000 0.00000000000000000 
1 0.00000000000000000 0.00000000000000000 -1.00000000000000000 0.00000000000000000 
Curves 25
1 -10.00000000000003553 239.99999999999943157 0.00000000000000000 0.00000000000000000 0.00000000000000000 1.00000000000000000 
1 0.00000000000000000 240.00000000000000000 0.00000000000000000 0.00000000000000000 0.00000000000000000 1.00000000000000000 
1 -10.00000000000003553 239.99999999999943157 0.00000000000000000 1.00000000000000000 0.00000000000005684 0.00000000000000000 
1 -255.43390399999984197 191.62656999999964569 0.00000000000000000 0.00000000000000000 0.00000000000000000 1.00000000000000000 
2 -10.00000099716258362 -406.81985000000122454 0.00000000000000000 0.00000000000000000 0.00000000000000000 -1.00000000000000000 -1.00000000000000000 -0.00000000000000000 -0.00000000000000000 -0.00000000000000000 1.00000000000000000 0.00000000000000000 646.81985000000065611
6 0 1 0.00000000000000000 240.00000000000000000 425.00000000000000000  0.00000000000008527 238.50000000000000000 425.00000000000000000  
1 0.00000000000008527 238.50000000000000000 0.00000000000000000 0.00000000000000000 0.00000000000000000 1.00000000000000000 
6 0 1 0.00000000000000000 240.00000000000000000 0.00000000000000000  0.00000000000008527 238.50000000000000000 0.00000000000000000  
1 -9.99999999999995026 238.49999999999943157 0.00000000000000000 1.00000000000000000 0.00000000000005684 0.00000000000000000 
6 0 1 -10.00000000000003553 239.99999999999943157 0.00000000000000000  -9.99999999999995026 238.49999999999943157 0.00000000000000000  
6 0 1 -10.00000000000003553 239.99999999999943157 425.00000000000000000  -9.99999999999995026 238.49999999999943157 425.00000000000000000  
1 -9.99999999999995026 238.49999999999943157 425.00000000000000000 1.00000000000000000 0.00000000000005684 0.00000000000000000 
1 -283.19030700003747825 180.24315799999993715 0.00000000000000000 0.00000000000000000 0.00000000000000000 1.00000000000000000 
1 -283.19030700003747825 180.24315799999993715 0.00000000000000000 0.92521344553597595 0.37944707167067143 0.00000000000000000 
2 -10.00000099716258362 -406.81985000000122454 0.00000000000000000 0.00000000000000000 0.00000000000000000 -1.00000000000000000 -1.00000000000000000 -0.00000000000000000 -0.00000000000000000 -0.00000000000000000 1.00000000000000000 0.00000000000000000 645.31985000000065611
6 0 1 -255.43390399999984197 191.62656999999964569 0.00000000000000000  -254.86473338084789475 190.23874983647169756 0.00000000000000000  
7 0 0  1 2 2  -255.43390399999941565 191.62656999999964569 425.00000000000000000  -254.86473338084749685 190.23874983647192494 425.00000000000000000 
 0.00000000000000000 2 1.00000000000000000 2
2 -10.00000099716258362 -406.81985000000122454 425.00000000000000000 0.00000000000000000 0.00000000000000000 -1.00000000000000000 -1.00000000000000000 -0.00000000000000000 -0.00000000000000000 -0.00000000000000000 1.00000000000000000 0.00000000000000000 645.31985000000065611
1 -9.99999999999995026 238.49999999999943157 0.00000000000000000 0.00000000000000000 0.00000000000000000 1.00000000000000000 
6 0 1 -283.19030700003747825 180.24315799999993715 0.00000000000000000  -282.62113639253146857 178.85533783169597655 0.00000000000000000  
1 -282.62113639253146857 178.85533783169597655 0.00000000000000000 0.00000000000000000 0.00000000000000000 1.00000000000000000 
6 0 1 -283.19030700003747825 180.24315799999993715 425.00000000000000000  -282.62113639253146857 178.85533783169597655 425.00000000000000000  
1 -282.62113639253146857 178.85533783169597655 0.00000000000000000 0.92521344553597595 0.37944707167067143 0.00000000000000000 
1 -282.62113639253146857 178.85533783169597655 425.00000000000000000 0.92521344553597595 0.37944707167067143 0.00000000000000000 
1 -254.86473338084789475 190.23874983647169756 0.00000000000000000 -0.00000000000000000 -0.00000000000000000 1.00000000000000000 
Polygon3D 0
PolygonOnTriangulations 0
Surfaces 21
1 -10.00000000000003553 239.99999999999943157 0.00000000000000000 -0.00000000000005684 1.00000000000000000 0.00000000000000000 1.00000000000000000 0.00000000000005684 0.00000000000000000 0.00000000000000000 0.00000000000000000 -1.00000000000000000 
2 -10.00000099716258362 -406.81985000000122454 0.00000000000000000 0.00000000000000000 0.00000000000000000 -1.00000000000000000 -1.00000000000000000 -0.00000000000000000 -0.00000000000000000 -0.00000000000000000 1.00000000000000000 0.00000000000000000 646.81985000000065611
1 -10.00000000231249331 238.49999999999943157 0.00000000000000000 1.00000000000000000 -0.00000000154163852 0.00000000000000000 -0.00000000000000000 0.00000000000000000 1.00000000000000000 -0.00000000154163852 -1.00000000000000000 0.00000000000000000 
1 -9.99999999999995026 238.49999999999943157 0.00000000000000000 -1.00000000000000000 -0.00000000000005684 0.00000000000000000 -0.00000000000000000 0.00000000000000000 -1.00000000000000000 0.00000000000005684 -1.00000000000000000 -0.00000000000000000 
1 -10.00000000000003553 239.99999999999943157 0.00000000000000000 -0.00000000000005684 1.00000000000000000 0.00000000000000000 1.00000000000000000 0.00000000000005684 0.00000000000000000 0.00000000000000000 0.00000000000000000 -1.00000000000000000 
1 -9.99999999999995026 238.49999999999943157 425.00000000000000000 -0.00000000000000000 0.00000000000000000 1.00000000000000000 -1.00000000000000000 -0.00000000000005684 0.00000000000000000 0.00000000000005684 -1.00000000000000000 0.00000000000000000 
1 -9.99999999999995026 238.49999999999943157 0.00000000000000000 0.00000000000000000 0.00000000000000000 -1.00000000000000000 1.00000000000000000 0.00000000000005684 0.00000000000000000 0.00000000000005684 -1.00000000000000000 0.00000000000000000 
1 -283.19030700003747825 180.24315799999993715 0.00000000000000000 -0.37944707167067143 0.92521344553597595 0.00000000000000000 0.92521344553597595 0.37944707167067143 0.00000000000000000 0.00000000000000000 0.00000000000000000 -1.00000000000000000 
1 -254.86473339249383230 190.23874983169568509 0.00000000000000000 0.92521344553597507 0.37944707167067365 -0.00000000000000000 0.00000000000000000 0.00000000000000000 1.00000000000000000 0.37944707167067365 -0.92521344553597507 0.00000000000000000 
1 -254.86473338084789475 190.23874983647169756 0.00000000000000000 -0.92521344235185199 -0.37944707943458500 -0.00000000000000000 0.00000000000000000 0.00000000000000000 -1.00000000000000000 0.37944707943458500 -0.92521344235185199 0.00000000000000000 
2 -10.00000099716258362 -406.81985000000122454 0.00000000000000000 0.00000000000000000 0.00000000000000000 -1.00000000000000000 -1.00000000000000000 -0.00000000000000000 -0.00000000000000000 -0.00000000000000000 1.00000000000000000 0.00000000000000000 646.81985000000065611
9 0 0 0 0 6 1 7 2 2 2 -9.99999999999990052 239.99999999999940314 425.00000000000000000  -10.00000000231236186 238.49999999999945999 425.00000000000000000  
-51.95689782820295477 240.00000006468351899 425.00000000000233058  -51.85959817784974035 238.50000006453353762 425.00000000000233058  
-93.91379456726856745 236.73408705447917555 424.99999999999386091  -93.71919526677498880 235.24166083165729901 424.99999999999386091  
-135.55292554854759146 230.20225968424134066 425.00000000000738964  -135.26176350887507738 228.72498101920569979 425.00000000000738964  
-176.55649209431160784 220.44574759248118312 424.99999999999516831  -176.17024121372111267 218.99109465258055707 424.99999999999516831  
-216.61481812996470353 207.54699234304925426 425.00000000000170530  -216.13567045739515038 206.12225211048729534 425.00000000000170530  
-255.43390399999941565 191.62656999999964569 425.00000000000000000  -254.86473338084749685 190.23874983647192494 425.00000000000000000  

4.71238897884305086 7
5.10158758950599456 7

0.00000000000000000 2
1.00000000000000000 2

9 0 0 0 0 6 1 7 2 2 2 -255.43390399999981355 191.62656999999944674 0.00000000000000000  -254.86473338084789475 190.23874983647169756 0.00000000000000000  
-216.61481812996493090 207.54699234304811739 0.00000000000000000  -216.13567045739563355 206.12225211048630058 0.00000000000000000  
-176.55649209431467739 220.44574759248371265 0.00000000000000000  -176.17024121372404011 218.99109465258305818 0.00000000000000000  
-135.55292554854403875 230.20225968423693530 0.00000000000000000  -135.26176350887155309 228.72498101920118074 0.00000000000000000  
-93.91379456727226227 236.73408705448235878 0.00000000000000000  -93.71919526677839940 235.24166083166090857 0.00000000000000000  
-51.95689782820253555 240.00000006468232527 0.00000000000000000  -51.85959817784954851 238.50000006453200285 0.00000000000000000  
-10.00000000000000000 239.99999999999943157 0.00000000000000000  -10.00000000231248976 238.49999999999943157 0.00000000000000000  

1.18159771767359123 7
1.57079632833653537 7

0.00000000000000000 2
1.00000000000000000 2

1 0.00000000000008527 238.50000000000000000 0.00000000000000000 1.00000000000000000 0.00000000000005684 -0.00000000000000000 0.00000000000000000 0.00000000000000000 1.00000000000000000 0.00000000000005684 -1.00000000000000000 0.00000000000000000 
1 -9.99999999999995026 238.49999999999943157 0.00000000000000000 -0.00000000000005684 1.00000000000000000 0.00000000000000000 1.00000000000000000 0.00000000000005684 0.00000000000000000 0.00000000000000000 0.00000000000000000 -1.00000000000000000 
1 -283.19030700003747825 180.24315799999993715 0.00000000000000000 -0.37944707167067143 0.92521344553597595 0.00000000000000000 0.92521344553597595 0.37944707167067143 0.00000000000000000 0.00000000000000000 0.00000000000000000 -1.00000000000000000 
1 -282.62113639253146857 178.85533783169597655 425.00000000000000000 -0.00000000000000000 0.00000000000000000 1.00000000000000000 -0.92521344553597595 -0.37944707167067143 0.00000000000000000 0.37944707167067143 -0.92521344553597595 0.00000000000000000 
1 -282.62113639253146857 178.85533783169597655 0.00000000000000000 0.00000000000000000 0.00000000000000000 -1.00000000000000000 0.92521344553597595 0.37944707167067143 0.00000000000000000 0.37944707167067143 -0.92521344553597595 0.00000000000000000 
2 -10.00000099716258362 -406.81985000000122454 0.00000000000000000 0.00000000000000000 0.00000000000000000 -1.00000000000000000 -1.00000000000000000 -0.00000000000000000 -0.00000000000000000 -0.00000000000000000 1.00000000000000000 0.00000000000000000 645.31985000000065611
1 -282.62113639253146857 178.85533783169597655 0.00000000000000000 -0.92521344553597507 -0.37944707167067365 0.00000000000000000 -0.00000000000000000 0.00000000000000000 -1.00000000000000000 0.37944707167067365 -0.92521344553597507 -0.00000000000000000 
1 -282.62113639253146857 178.85533783169597655 0.00000000000000000 -0.37944707167067143 0.92521344553597595 0.00000000000000000 0.92521344553597595 0.37944707167067143 0.00000000000000000 0.00000000000000000 0.00000000000000000 -1.00000000000000000 
Triangulations 0

TShapes 68
Ve
0.000000102469508
-10.000000000000036 239.999999999999432 0.000000000000000
0 0

0101101
*
Ed
 0.000000100000000 1 1 0
1  1 0 0.000000000000000 425.000000000000000
2  1 2 0 0.000000000000000 425.000000000000000
4 G1 1 0 2 0
2  2 3 0 0.000000000000000 425.000000000000000
2  3 4 0 0.000000000000000 425.000000000000000
2  4 1 0 0.000000000000000 425.000000000000000
0

0101000
+68 0 -68 2 *
Ve
0.000000102469508
0.000000000000000 240.000000000000000 0.000000000000000
0 0

0101101
*
Ed
 0.000000102469508 1 1 0
1  2 0 0.000000000000000 425.000000000000000
2  5 1 0 0.000000000000000 425.000000000000000
0

0101000
+66 0 -66 2 *
Ed
 0.000000100000000 1 1 0
2  6 5 0 0.000000000000000 10.000000000000036
1  3 0 0.000000000000000 10.000000000000036
2  7 6 3 0.000000000000000 10.000000000000036
2  8 7 0 0.000000000000000 10.000000000000036
2  9 1 0 0.000000000000000 10.000000000000036
2  10 1 3 0.000000000000000 10.000000000000036
0

0101000
+68 0 -66 0 *
Wi

0101100
+67 0 -65 0 -64 0 +64 2 *
Fa
0  0.000000100000000 1 0

0101000
+63 0 *
Ve
0.000000111538732
-255.433903999999842 191.626569999999646 0.000000000000000
0 0

0101101
*
Ed
 0.000000100000000 1 1 0
1  4 0 0.000000000000000 425.000000000000000
2  11 2 0 0.000000000000000 425.000000000000000
4 G1 2 0 8 0
2  12 9 0 0.000000000000000 425.000000000000000
2  13 10 0 0.000000000000000 425.000000000000000
2  14 8 0 0.000000000000000 425.000000000000000
0

0101000
+61 0 -61 2 *
Ed
 0.000000100000000 1 1 0
2  15 11 0 1.181597717673591 1.570796328336535
1  5 0 1.181597717673591 1.570796328336535
2  16 2 0 1.181597717673591 1.570796328336535
2  17 2 3 1.181597717673591 1.570796328336535
2  18 12 3 1.181597717673591 1.570796328336535
2  19 13 0 1.181597717673591 1.570796328336535
0

0101000
+61 0 -68 0 *
Wi

0101100
+60 0 -67 0 -59 0 +59 2 *
Fa
0  0.000000100000000 2 0

0101000
+58 0 *
Ve
0.000000102469508
0.000000000000085 238.500000000000000 425.000000000000000
0 0

0101101
*
Ed
 0.000000100000000 1 1 0
1  6 0 0.000000000000000 1.000000000000000
4 C0 14 0 6 0
2  20 6 0 0.000000000000000 1.000000000000000
0

0101000
+66 2 -56 0 *
Ve
0.000000102469508
0.000000000000085 238.500000000000000 0.000000000000000
0 0

0101101
*
Ed
 0.000000100000000 1 1 0
2  21 15 0 0.000000000000000 425.000000000000000
1  7 0 0.000000000000000 425.000000000000000
0

0101000
+54 0 -56 0 *
Ed
 0.000000100000000 1 1 0
1  8 0 0.000000000000000 1.000000000000000
4 C0 14 0 7 0
2  22 7 0 0.000000000000000 1.000000000000000
0

0101000
+66 0 -54 0 *
Wi

0101000
+65 0 +55 0 -53 0 -52 0 *
Fa
0  0.000000100000000 14 0

0101000
+51 0 *
Ve
0.000000103625779
-10.000000001156222 238.499999999999432 0.000000000000000
0 0

0101101
*
Ed
 0.000000100000000 1 1 0
2  23 15 0 0.000000000000000 10.000000000000036
1  9 0 0.000000000000000 10.000000000000036
2  24 7 0 0.000000000000000 10.000000000000036
0

0101000
+49 0 -54 0 *
Ed
 0.000000102119831 1 1 0
1  10 0 0.000000000000000 1.000000000000000
4 C0 4 0 7 0
2  25 4 0 0.000000000000000 1.000000000000000
2  26 7 0 0.000000000000000 1.000000000000000
2  27 13 0 0.000000000000000 1.000000000000000
0

0101000
+68 0 -49 0 *
Wi

0101100
+64 0 +52 0 -48 0 -47 0 *
Fa
0  0.000000100000000 7 0

0101000
+46 0 *
Ve
0.000000103625779
-10.000000001156222 238.499999999999432 425.000000000000000
0 0

0101101
*
Ed
 0.000000102119831 1 1 0
1  11 0 0.000000000000000 1.000000000000000
4 C0 6 0 4 0
2  28 6 0 0.000000000000000 1.000000000000000
2  29 4 0 0.000000000000000 1.000000000000000
2  30 12 0 0.000000000000000 1.000000000000000
0

0101000
+68 2 -44 0 *
Ed
 0.000000100000000 1 1 0
2  31 15 0 0.000000000000000 10.000000000000036
1  12 0 0.000000000000000 10.000000000000036
2  32 6 0 0.000000000000000 10.000000000000036
0

0101000
+44 0 -56 0 *
Wi

0101100
-64 2 +43 0 +42 0 -55 0 *
Fa
0  0.000000100000000 6 0

0101000
+41 0 *
Ve
0.000000102469508
-283.190307000037478 180.243157999999937 0.000000000000000
0 0

0101101
*
Ed
 0.000000102469508 1 1 0
1  13 0 0.000000000000000 425.000000000000000
2  33 8 0 0.000000000000000 425.000000000000000
0

0101000
+39 0 -39 2 *
Ed
 0.000000100000000 1 1 0
2  34 16 0 0.000000000000000 29.999999604370629
1  14 0 0.000000000000000 29.999999604370629
2  35 17 3 0.000000000000000 29.999999604370629
2  36 18 0 0.000000000000000 29.999999604370629
2  37 8 0 0.000000000000000 29.999999604370629
2  38 8 3 0.000000000000000 29.999999604370629
0

0101000
+39 0 -61 0 *
Wi

0101100
+38 0 -60 0 -37 0 +37 2 *
Fa
0  0.000000100000000 8 0

0101000
+36 0 *
Ve
0.000000112587222
-254.864733386670878 190.238749834083706 0.000000000000000
0 0

0101101
*
Ed
 0.000000100000000 1 1 0
2  16 19 0 1.181597717673591 1.570796328336535
1  15 0 1.181597717673591 1.570796328336535
2  39 13 0 1.181597717673591 1.570796328336535
0

0101000
+34 0 -49 0 *
Ed
 0.000000111538273 1 1 0
1  16 0 0.000000000000000 1.000000000000000
2  40 13 0 0.000000000000000 1.000000000000000
4 C0 10 0 13 0
2  41 10 0 0.000000000000000 1.000000000000000
0

0101000
+61 0 -34 0 *
Wi

0101100
+59 0 +47 0 -33 0 -32 0 *
Fa
0  0.000000100000000 13 0

0101000
+31 0 *
Ve
0.000000112587222
-254.864733386670878 190.238749834083706 425.000000000000000
0 0

0101101
*
Ed
 0.000000111538732 1 1 0
1  17 0 0.000000000000000 1.000000000000000
2  42 12 0 0.000000000000000 1.000000000000000
4 C0 12 0 10 0
2  43 10 0 0.000000000000000 1.000000000000000
0

0101000
+61 2 -29 0 *
Ed
 0.000000100000000 1 1 0
2  17 19 0 1.181597717673591 1.570796328336535
1  18 0 1.181597717673591 1.570796328336535
2  44 12 0 1.181597717673591 1.570796328336535
0

0101000
+29 0 -44 0 *
Wi

0101100
-59 2 +28 0 +27 0 -43 0 *
Fa
0  0.000000100000000 12 0

0101000
+26 0 *
Ed
 0.000000102312543 1 1 0
2  45 15 0 0.000000000000000 425.000000000000000
1  19 0 0.000000000000000 425.000000000000000
2  46 4 0 0.000000000000000 425.000000000000000
2  47 19 0 0.000000000000000 425.000000000000000
0

0101000
+49 0 -44 0 *
Wi

0101100
+24 0 -53 0 -48 0 +42 0 *
Fa
0  0.000000100000000 15 0

0101000
+23 0 *
Ve
0.000000102469508
-282.621136392531469 178.855337831695977 0.000000000000000
0 0

0101101
*
Ed
 0.000000100000000 1 1 0
1  20 0 0.000000000000000 1.000000000000000
4 C0 20 0 18 0
2  48 18 0 0.000000000000000 1.000000000000000
0

0101000
+39 0 -21 0 *
Ve
0.000000102469508
-282.621136392531469 178.855337831695977 425.000000000000000
0 0

0101101
*
Ed
 0.000000100000000 1 1 0
2  49 21 0 0.000000000000000 425.000000000000000
1  21 0 0.000000000000000 425.000000000000000
0

0101000
+21 0 -19 0 *
Ed
 0.000000100000000 1 1 0
1  22 0 0.000000000000000 1.000000000000000
4 C0 17 0 20 0
2  50 17 0 0.000000000000000 1.000000000000000
0

0101000
+39 2 -19 0 *
Wi

0101000
-38 0 +20 0 +18 0 -17 0 *
Fa
0  0.000000100000000 20 0

0101000
+16 0 *
Ed
 0.000000100000000 1 1 0
2  51 21 0 0.000000000000000 29.999999604370629
1  23 0 0.000000000000000 29.999999604370629
2  52 18 0 0.000000000000000 29.999999604370629
0

0101000
+21 0 -34 0 *
Wi

0101100
+37 0 +32 0 -14 0 -20 0 *
Fa
0  0.000000100000000 18 0

0101000
+13 0 *
Ed
 0.000000100000000 1 1 0
2  53 21 0 0.000000000000000 29.999999604370629
1  24 0 0.000000000000000 29.999999604370629
2  54 17 0 0.000000000000000 29.999999604370629
0

0101000
+19 0 -29 0 *
Wi

0101100
-37 2 +17 0 +11 0 -28 0 *
Fa
0  0.000000100000000 17 0

0101000
+10 0 *
Ed
 0.000000112587222 1 1 0
2  11 19 0 0.000000000000000 425.000000000000000
1  25 0 0.000000000000000 425.000000000000000
2  55 10 0 0.000000000000000 425.000000000000000
0

0101000
+34 0 -29 0 *
Wi

0101100
+8 0 -24 0 -33 0 +27 0 *
Fa
0  0.000000100000000 19 0

0101000
+7 0 *
Wi

0101100
+18 0 -8 0 -14 0 +11 0 *
Fa
0  0.000000100000000 21 0

0101000
+5 0 *
Sh

0101100
+62 0 +57 0 +50 0 +45 0 +40 0 +35 0 +30 0 +25 0 -22 0 +15 0 
+12 0 +9 0 -6 0 -4 0 *
So

0100000
+3 0 *
Co

1100000
+2 0 *

+1 1 