
CASCADE Topology V1, (c) Matra-Datavision
Locations 61
1
1.000000000000000 0.000000000000000 0.000000000000000 0.000000000000000 
0.000000000000000 1.000000000000000 0.000000000000000 0.000000000000000 
0.000000000000000 0.000000000000000 1.000000000000000 0.000000000000000 
1
1.000000000000000 0.000000000000000 0.000000000000000 0.000000000000000 
0.000000000000000 1.000000000000000 0.000000000000000 0.000000000000000 
0.000000000000000 0.000000000000000 1.000000000000000 0.000000000000000 
1
1.000000000000000 0.000000000000000 0.000000000000000 0.000000000000000 
0.000000000000000 1.000000000000000 0.000000000000000 0.000000000000000 
0.000000000000000 0.000000000000000 1.000000000000000 0.000000000000000 
1
1.000000000000000 0.000000000000000 0.000000000000000 0.000000000000000 
0.000000000000000 1.000000000000000 0.000000000000000 0.000000000000000 
0.000000000000000 0.000000000000000 1.000000000000000 0.000000000000000 
2  2 1 3 1 4 -1 0
1
1.000000000000000 0.000000000000000 0.000000000000000 0.000000000000000 
0.000000000000000 1.000000000000000 0.000000000000000 0.000000000000000 
0.000000000000000 0.000000000000000 1.000000000000000 0.000000000000000 
2  6 -1 4 1 3 -1 2 -1 0
1
1.000000000000000 0.000000000000000 0.000000000000000 0.000000000000000 
0.000000000000000 1.000000000000000 0.000000000000000 0.000000000000000 
0.000000000000000 0.000000000000000 1.000000000000000 0.000000000000000 
1
1.000000000000000 0.000000000000000 0.000000000000000 0.000000000000000 
0.000000000000000 1.000000000000000 0.000000000000000 0.000000000000000 
0.000000000000000 0.000000000000000 1.000000000000000 0.000000000000000 
1
1.000000000000000 0.000000000000000 0.000000000000000 0.000000000000000 
0.000000000000000 1.000000000000000 0.000000000000000 0.000000000000000 
0.000000000000000 0.000000000000000 1.000000000000000 0.000000000000000 
2  8 1 9 1 10 -1 0
2  6 -1 4 1 3 -1 2 -1 10 1 9 -1 8 -1 0
1
1.000000000000000 0.000000000000000 0.000000000000000 0.000000000000000 
0.000000000000000 1.000000000000000 0.000000000000000 0.000000000000000 
0.000000000000000 0.000000000000000 1.000000000000000 3.000000000000000 
2  8 1 9 1 10 -1 13 1 0
2  6 -1 4 1 3 -1 2 -1 13 -1 10 1 9 -1 8 -1 0
2  3 1 4 -1 0
1
1.000000000000000 0.000000000000000 0.000000000000000 0.000000000000000 
0.000000000000000 1.000000000000000 0.000000000000000 0.000000000000000 
0.000000000000000 0.000000000000000 1.000000000000000 0.000000000000000 
2  17 1 2 -1 0
2  8 1 9 1 10 -1 2 1 0
2  10 1 9 -1 8 -1 0
2  8 1 9 1 10 -1 13 1 2 1 0
2  13 -1 10 1 9 -1 8 -1 0
2  8 1 9 1 10 -1 2 1 3 1 4 -1 0
2  8 1 9 1 10 -1 17 1 3 1 4 -1 0
2  6 -1 4 1 3 -1 17 -1 10 1 9 -1 8 -1 0
2  6 -1 4 1 3 -1 0
1
-0.500000000000000 0.866025403784438 0.000000000000000 0.000000000000000 
-0.866025403784438 -0.500000000000000 0.000000000000000 0.000000000000000 
0.000000000000000 0.000000000000000 1.000000000000000 0.000000000000000 
2  8 1 9 1 10 -1 17 1 27 1 3 1 4 -1 0
2  6 -1 4 1 3 -1 27 -1 17 -1 10 1 9 -1 8 -1 0
1
-0.500000000000000 -0.866025403784439 0.000000000000000 0.000000000000000 
0.866025403784439 -0.500000000000000 0.000000000000000 0.000000000000000 
0.000000000000000 0.000000000000000 1.000000000000000 0.000000000000000 
2  8 1 9 1 10 -1 17 1 30 1 3 1 4 -1 0
2  6 -1 4 1 3 -1 30 -1 17 -1 10 1 9 -1 8 -1 0
1
1.000000000000000 0.000000000000000 0.000000000000000 0.000000000000000 
0.000000000000000 1.000000000000000 0.000000000000000 0.000000000000000 
0.000000000000000 0.000000000000000 1.000000000000000 0.000000000000000 
1
1.000000000000000 0.000000000000000 0.000000000000000 0.000000000000000 
0.000000000000000 1.000000000000000 0.000000000000000 0.000000000000000 
0.000000000000000 0.000000000000000 1.000000000000000 0.000000000000000 
2  33 1 34 1 4 -1 0
2  4 1 34 -1 33 -1 0
2  6 -1 4 1 34 -1 33 -1 0
2  8 1 9 1 10 -1 13 1 2 1 3 1 4 -1 0
2  8 1 9 1 10 -1 13 1 17 1 3 1 4 -1 0
2  6 -1 4 1 3 -1 17 -1 13 -1 10 1 9 -1 8 -1 0
2  8 1 9 1 10 -1 13 1 17 1 27 1 3 1 4 -1 0
2  6 -1 4 1 3 -1 27 -1 17 -1 13 -1 10 1 9 -1 8 -1 0
2  8 1 9 1 10 -1 13 1 17 1 30 1 3 1 4 -1 0
2  6 -1 4 1 3 -1 30 -1 17 -1 13 -1 10 1 9 -1 8 -1 0
2  6 -1 0
2  6 -1 4 1 3 -1 17 -1 0
2  8 1 9 1 10 -1 17 1 0
2  8 1 9 1 10 -1 13 1 17 1 0
2  17 1 3 1 4 -1 0
2  17 1 27 1 0
2  6 -1 4 1 3 -1 27 -1 17 -1 0
2  17 1 30 1 17 -1 0
2  17 1 27 1 3 1 4 -1 0
2  17 1 30 1 0
2  6 -1 4 1 3 -1 30 -1 17 -1 0
2  8 1 9 1 10 -1 17 1 30 1 0
2  8 1 9 1 10 -1 13 1 17 1 30 1 0
2  17 1 30 1 3 1 4 -1 0
2  17 1 27 1 17 -1 0
2  8 1 9 1 10 -1 17 1 27 1 0
2  8 1 9 1 10 -1 13 1 17 1 27 1 0
Curve2ds 56
1 3.14159265358979267 0.00000000000000000 0.00000000000000000 -1.00000000000000000 
1 -0.00000000006926815 0.00000000000000000 0.00000000000000000 -1.00000000000000000 
1 3.68458002829967146 0.00000000000000000 0.00000000000000000 -1.00000000000000000 
1 3.68458002829967146 0.00000000000000000 0.00000000000000000 -1.00000000000000000 
1 0.00000000000000000 0.00000000000000000 1.00000000000000000 0.00000000000000000 
1 0.00000000000000000 -3.00000000000000000 1.00000000000000000 0.00000000000000000 
1 1.57079632679423242 0.00000000000000000 0.00000000000000000 -1.00000000000000000 
1 0.00000000000000000 0.00000000000000000 1.00000000000000000 0.00000000000000000 
1 0.00000000000000000 -3.00000000000000000 1.00000000000000000 0.00000000000000000 
1 0.00000000000000000 0.00000000000000000 1.00000000000000000 0.00000000000000000 
1 0.00000000000000000 0.00000000000000000 1.00000000000000000 0.00000000000000000 
1 0.00000000000000000 0.00000000000000000 1.00000000000000000 0.00000000000000000 
1 0.00000000000000000 0.00000000000000000 1.00000000000000000 0.00000000000000000 
1 0.00000000000000000 0.00000000000000000 1.00000000000000000 0.00000000000000000 
1 0.00000000000000000 0.00000000000000000 1.00000000000000000 0.00000000000000000 
1 0.00000000000000000 0.00000000000000000 1.00000000000000000 0.00000000000000000 
1 0.00000000000000000 0.00000000000000000 1.00000000000000000 0.00000000000000000 
1 0.00000000000000000 0.00000000000000000 1.00000000000000000 0.00000000000000000 
1 0.00000000000000000 0.00000000000000000 1.00000000000000000 0.00000000000000000 
1 0.00000000000000000 0.00000000000000000 1.00000000000000000 0.00000000000000000 
1 0.00000000000000000 0.00000000000000000 1.00000000000000000 0.00000000000000000 
1 0.00000000000000000 -3.00000000000000000 1.00000000000000000 0.00000000000000000 
1 0.00000000000000000 -3.00000000000000000 1.00000000000000000 0.00000000000000000 
1 0.00000000000000000 -3.00000000000000000 1.00000000000000000 0.00000000000000000 
1 0.00000000000000000 -3.00000000000000000 1.00000000000000000 0.00000000000000000 
1 0.00000000000000000 -3.00000000000000000 1.00000000000000000 0.00000000000000000 
1 0.00000000000000000 -3.00000000000000000 1.00000000000000000 0.00000000000000000 
1 0.00000000000000000 -3.00000000000000000 1.00000000000000000 0.00000000000000000 
1 0.00000000000000000 -3.00000000000000000 1.00000000000000000 0.00000000000000000 
1 0.00000000000000000 -3.00000000000000000 1.00000000000000000 0.00000000000000000 
1 0.00000000000000000 -3.00000000000000000 1.00000000000000000 0.00000000000000000 
1 6.28318530717958623 -3.00000000000000044 -1.00000000000000000 0.00000000000000000 
1 6.28318530717958623 -3.00000000000000044 -1.00000000000000000 0.00000000000000000 
1 3.14159265358979267 0.00000000000000000 0.00000000000000000 -1.00000000000000000 
1 1.57079632679423242 0.00000000000000000 0.00000000000000000 -1.00000000000000000 
1 -0.00000000006926815 0.00000000000000000 0.00000000000000000 -1.00000000000000000 
1 -0.00000000006926815 0.00000000000000000 0.00000000000000000 -1.00000000000000000 
1 1.57079632679423242 0.00000000000000000 0.00000000000000000 -1.00000000000000000 
1 3.14159265358979267 0.00000000000000000 0.00000000000000000 -1.00000000000000000 
1 1.57079632679423242 0.00000000000000000 0.00000000000000000 -1.00000000000000000 
1 3.68458002829967146 0.00000000000000000 0.00000000000000000 -1.00000000000000000 
1 3.68458002829967146 0.00000000000000000 0.00000000000000000 -1.00000000000000000 
1 -0.00000000006926815 0.00000000000000000 0.00000000000000000 -1.00000000000000000 
1 3.14159265358979267 0.00000000000000000 0.00000000000000000 -1.00000000000000000 
1 3.14159265358979267 0.00000000000000000 0.00000000000000000 -1.00000000000000000 
1 -0.00000000006926815 0.00000000000000000 0.00000000000000000 -1.00000000000000000 
1 3.68458002829967146 0.00000000000000000 0.00000000000000000 -1.00000000000000000 
1 3.68458002829967146 0.00000000000000000 0.00000000000000000 -1.00000000000000000 
1 1.57079632679423242 0.00000000000000000 0.00000000000000000 -1.00000000000000000 
1 3.14159265358979267 0.00000000000000000 0.00000000000000000 -1.00000000000000000 
1 1.57079632679423242 0.00000000000000000 0.00000000000000000 -1.00000000000000000 
1 -0.00000000006926815 0.00000000000000000 0.00000000000000000 -1.00000000000000000 
1 0.00000000000000000 0.00000000000000000 0.00000000000000000 -1.00000000000000000 
1 6.28318530717958623 0.00000000000000000 0.00000000000000000 -1.00000000000000000 
1 0.00000000000000000 0.00000000000000000 0.00000000000000000 -1.00000000000000000 
1 6.28318530717958623 0.00000000000000000 0.00000000000000000 -1.00000000000000000 
Curves 69
1 14.30000000000097771 317.60000000000019327 0.00000000000000000 0.00000000000000000 0.00000000000000000 1.00000000000000000 
1 14.30000000442602648 381.49999999982742338 0.00000000000000000 0.00000000000000000 0.00000000000000000 1.00000000000000000 
1 14.30000000000097771 317.60000000000019327 0.00000000000000000 0.00000000006924959 1.00000000000000000 0.00000000000000000 
1 14.30000000000097771 317.60000000000019327 0.00000000000000000 0.00000000006924959 1.00000000000000000 0.00000000000000000 
1 88.48796556067117081 51.08855073649584710 0.00000000000000000 0.00000000000000000 0.00000000000000000 1.00000000000000000 
2 530.09933648387573157 317.59999999999990905 0.00000000000000000 0.00000000000000000 0.00000000000000000 1.00000000000000000 1.00000000000000000 0.00000000000000000 -0.00000000000000000 -0.00000000000000000 1.00000000000000000 0.00000000000000000 515.79933648387475387
2 530.09933648387573157 317.59999999999990905 0.00000000000000000 0.00000000000000000 0.00000000000000000 1.00000000000000000 1.00000000000000000 0.00000000000000000 -0.00000000000000000 -0.00000000000000000 1.00000000000000000 0.00000000000000000 515.79933648387475387
1 11.80000000442820784 384.00000000000005684 0.00000000000000000 0.00000000000000000 0.00000000000000000 1.00000000000000000 
2 11.80000000442654695 381.50000000000056843 0.00000000000000000 0.00000000000000000 0.00000000000000000 1.00000000000000000 1.00000000000000000 0.00000000000000000 -0.00000000000000000 -0.00000000000000000 1.00000000000000000 0.00000000000000000 2.49999999999947908
2 11.80000000442654695 381.50000000000056843 0.00000000000000000 0.00000000000000000 0.00000000000000000 1.00000000000000000 1.00000000000000000 0.00000000000000000 -0.00000000000000000 -0.00000000000000000 1.00000000000000000 0.00000000000000000 2.49999999999947908
2 540.09933648387561789 300.27949192431128722 0.00000000000000000 0.00000000000000000 0.00000000000000000 -1.00000000000000000 0.50000000000000044 0.86602540378443837 0.00000000000000000 0.86602540378443837 -0.50000000000000044 0.00000000000000000 515.79933648387475387
1 -11.80000000442820784 384.00000000000005684 0.00000000000000000 1.00000000000000000 0.00000000000000000 0.00000000000000000 
1 282.19966824193829780 -146.41583672588191689 0.00000000000000000 0.86602540381906323 -0.49999999994002858 0.00000000000000000 
2 -11.80000000442654695 381.50000000000056843 0.00000000000000000 0.00000000000000000 0.00000000000000000 -1.00000000000000000 -1.00000000000000000 -0.00000000000000000 -0.00000000000000000 -0.00000000000000000 1.00000000000000000 0.00000000000000000 2.49999999999947908
2 336.28869154597703073 -180.53090023151057153 0.00000000000000000 0.00000000000000000 0.00000000000000000 -1.00000000000000000 0.50000000000000044 0.86602540378443837 0.00000000000000000 0.86602540378443837 -0.50000000000000044 0.00000000000000000 2.49999999999947908
1 -14.30000000000097771 317.60000000000019327 0.00000000000000000 -0.00000000006924959 1.00000000000000000 0.00000000000000000 
1 338.45375505543847794 -181.78090023150889465 0.00000000000000000 -0.50000000000000044 -0.86602540378443837 -0.00000000000000000 
2 -530.09933648387573157 317.59999999999990905 0.00000000000000000 0.00000000000000000 0.00000000000000000 -1.00000000000000000 -1.00000000000000000 -0.00000000000000000 -0.00000000000000000 -0.00000000000000000 1.00000000000000000 0.00000000000000000 515.79933648387475387
2 11.80000000442654695 381.50000000000056843 0.00000000000000000 0.00000000000000000 0.00000000000000000 1.00000000000000000 1.00000000000000000 0.00000000000000000 -0.00000000000000000 -0.00000000000000000 1.00000000000000000 0.00000000000000000 2.49999999999947908
2 530.09933648387584526 317.59999999999996589 0.00000000000000000 0.00000000000000000 0.00000000000000000 1.00000000000000000 1.00000000000000000 0.00000000000000000 -0.00000000000000000 -0.00000000000000000 1.00000000000000000 0.00000000000000000 515.79933648387475387
1 14.30000000000097771 317.60000000000019327 0.00000000000000000 0.00000000006924959 1.00000000000000000 0.00000000000000000 
1 14.30000000000098126 317.60000000000025011 0.00000000000000000 0.00000000006924959 1.00000000000000000 0.00000000000000000 
2 530.09933648387573157 317.59999999999990905 0.00000000000000000 0.00000000000000000 0.00000000000000000 1.00000000000000000 1.00000000000000000 0.00000000000000000 -0.00000000000000000 -0.00000000000000000 1.00000000000000000 0.00000000000000000 515.79933648387475387
2 11.80000000442654873 381.50000000000062528 0.00000000000000000 0.00000000000000000 0.00000000000000000 1.00000000000000000 1.00000000000000000 0.00000000000000000 -0.00000000000000000 -0.00000000000000000 1.00000000000000000 0.00000000000000000 2.49999999999947908
2 -9.99999999999988631 -617.87949192431142365 0.00000000000000000 0.00000000000000000 0.00000000000000000 -1.00000000000000000 0.49999999999999983 -0.86602540378443882 0.00000000000000000 -0.86602540378443882 -0.49999999999999983 -0.00000000000000000 515.79933648387475387
1 -326.65375505101042108 -202.21909976849124746 0.00000000000000000 -0.49999999999999983 0.86602540378443882 0.00000000000000000 
1 -267.89966824193743378 -171.18416327411836164 0.00000000000000000 -0.86602540374981396 -0.50000000005997169 -0.00000000000000000 
2 -324.48869154155056549 -200.96909976849008217 0.00000000000000000 0.00000000000000000 0.00000000000000000 -1.00000000000000000 0.49999999999999983 -0.86602540378443882 0.00000000000000000 -0.86602540378443882 -0.49999999999999983 -0.00000000000000000 2.49999999999947908
2 -129.90381056584982389 -75.00000001699176266 0.00000000000000000 0.00000000000000000 0.00000000000000000 1.00000000000000000 1.00000000000000000 0.00000000000000000 -0.00000000000000000 -0.00000000000000000 1.00000000000000000 0.00000000000000000 15.00000000000001954
2 129.90381056584990915 -75.00000000314548743 0.00000000000000000 0.00000000000000000 0.00000000000000000 1.00000000000000000 1.00000000000000000 0.00000000000000000 -0.00000000000000000 -0.00000000000000000 1.00000000000000000 0.00000000000000000 15.00000000000001954
2 540.09933648387561789 300.27949192431128722 0.00000000000000000 0.00000000000000000 0.00000000000000000 -1.00000000000000000 0.50000000000000044 0.86602540378443837 0.00000000000000000 0.86602540378443837 -0.50000000000000044 0.00000000000000000 515.79933648387475387
1 11.80000000442820784 384.00000000000005684 3.00000000000000000 -1.00000000000000000 0.00000000000000000 0.00000000000000000 
1 282.19966824193829780 -146.41583672588191689 0.00000000000000000 0.86602540381906323 -0.49999999994002858 0.00000000000000000 
2 -11.80000000442654695 381.50000000000056843 0.00000000000000000 0.00000000000000000 0.00000000000000000 -1.00000000000000000 -1.00000000000000000 -0.00000000000000000 -0.00000000000000000 -0.00000000000000000 1.00000000000000000 0.00000000000000000 2.49999999999947908
2 336.28869154597703073 -180.53090023151057153 0.00000000000000000 0.00000000000000000 0.00000000000000000 -1.00000000000000000 0.50000000000000044 0.86602540378443837 0.00000000000000000 0.86602540378443837 -0.50000000000000044 0.00000000000000000 2.49999999999947908
1 -14.30000000000097771 317.60000000000019327 0.00000000000000000 -0.00000000006924959 1.00000000000000000 0.00000000000000000 
1 326.65375505101030740 -202.21909976849150326 3.00000000000000000 0.50000000000000044 0.86602540378443837 0.00000000000000000 
2 -530.09933648387573157 317.59999999999990905 0.00000000000000000 0.00000000000000000 0.00000000000000000 -1.00000000000000000 -1.00000000000000000 -0.00000000000000000 -0.00000000000000000 -0.00000000000000000 1.00000000000000000 0.00000000000000000 515.79933648387475387
2 11.80000000442654695 381.50000000000056843 0.00000000000000000 0.00000000000000000 0.00000000000000000 1.00000000000000000 1.00000000000000000 0.00000000000000000 -0.00000000000000000 -0.00000000000000000 1.00000000000000000 0.00000000000000000 2.49999999999947908
2 530.09933648387584526 317.59999999999996589 0.00000000000000000 0.00000000000000000 0.00000000000000000 1.00000000000000000 1.00000000000000000 0.00000000000000000 -0.00000000000000000 -0.00000000000000000 1.00000000000000000 0.00000000000000000 515.79933648387475387
1 14.30000000000097771 317.60000000000019327 0.00000000000000000 0.00000000006924959 1.00000000000000000 0.00000000000000000 
1 14.30000000000098126 317.60000000000025011 0.00000000000000000 0.00000000006924959 1.00000000000000000 0.00000000000000000 
2 530.09933648387573157 317.59999999999990905 0.00000000000000000 0.00000000000000000 0.00000000000000000 1.00000000000000000 1.00000000000000000 0.00000000000000000 -0.00000000000000000 -0.00000000000000000 1.00000000000000000 0.00000000000000000 515.79933648387475387
2 11.80000000442654873 381.50000000000062528 0.00000000000000000 0.00000000000000000 0.00000000000000000 1.00000000000000000 1.00000000000000000 0.00000000000000000 -0.00000000000000000 -0.00000000000000000 1.00000000000000000 0.00000000000000000 2.49999999999947908
2 -9.99999999999988631 -617.87949192431142365 0.00000000000000000 0.00000000000000000 0.00000000000000000 -1.00000000000000000 0.49999999999999983 -0.86602540378443882 0.00000000000000000 -0.86602540378443882 -0.49999999999999983 -0.00000000000000000 515.79933648387475387
1 -338.45375505543859163 -181.78090023150863885 3.00000000000000000 0.49999999999999983 -0.86602540378443882 0.00000000000000000 
1 -267.89966824193743378 -171.18416327411836164 0.00000000000000000 -0.86602540374981396 -0.50000000005997169 -0.00000000000000000 
2 -324.48869154155056549 -200.96909976849008217 0.00000000000000000 0.00000000000000000 0.00000000000000000 -1.00000000000000000 0.49999999999999983 -0.86602540378443882 0.00000000000000000 -0.86602540378443882 -0.49999999999999983 -0.00000000000000000 2.49999999999947908
2 129.90381056584990915 -75.00000000314548743 3.00000000000000044 0.00000000000000000 0.00000000000000000 -1.00000000000000000 1.00000000000000000 0.00000000000000000 0.00000000000000000 0.00000000000000000 -1.00000000000000000 0.00000000000000000 15.00000000000001954
2 -129.90381056584982389 -75.00000001699176266 3.00000000000000044 0.00000000000000000 0.00000000000000000 -1.00000000000000000 1.00000000000000000 0.00000000000000000 0.00000000000000000 0.00000000000000000 -1.00000000000000000 0.00000000000000000 15.00000000000001954
1 282.19966824193829780 -146.41583672588191689 0.00000000000000000 0.00000000000000000 0.00000000000000000 1.00000000000000000 
1 -11.80000000442820784 384.00000000000005684 0.00000000000000000 0.00000000000000000 0.00000000000000000 1.00000000000000000 
1 337.53869154582679357 -178.36583672196337602 0.00000000000000000 0.00000000000000000 0.00000000000000000 1.00000000000000000 
1 -14.30000000442602648 381.49999999982742338 0.00000000000000000 0.00000000000000000 0.00000000000000000 1.00000000000000000 
1 338.45375505543847794 -181.78090023150889465 0.00000000000000000 0.00000000000000000 0.00000000000000000 1.00000000000000000 
1 -14.30000000000097771 317.60000000000019327 0.00000000000000000 0.00000000000000000 0.00000000000000000 1.00000000000000000 
1 11.80000000442820784 384.00000000000005684 0.00000000000000000 0.00000000000000000 0.00000000000000000 1.00000000000000000 
1 -88.48796556067117081 51.08855073649584710 0.00000000000000000 0.00000000000000000 0.00000000000000000 1.00000000000000000 
1 14.30000000442602648 381.49999999982742338 0.00000000000000000 0.00000000000000000 0.00000000000000000 1.00000000000000000 
1 14.30000000000098126 317.60000000000025011 0.00000000000000000 0.00000000000000000 0.00000000000000000 1.00000000000000000 
1 14.30000000000097771 317.60000000000019327 0.00000000000000000 0.00000000000000000 0.00000000000000000 1.00000000000000000 
1 14.30000000442603003 381.49999999982748022 0.00000000000000000 0.00000000000000000 0.00000000000000000 1.00000000000000000 
1 -0.00000000000003553 -102.17710147299166579 0.00000000000000000 0.00000000000000000 0.00000000000000000 1.00000000000000000 
1 11.80000000442820962 384.00000000000017053 0.00000000000000000 0.00000000000000000 0.00000000000000000 1.00000000000000000 
1 -267.89966824193743378 -171.18416327411836164 0.00000000000000000 0.00000000000000000 0.00000000000000000 1.00000000000000000 
1 -326.65375505101042108 -202.21909976849124746 0.00000000000000000 0.00000000000000000 0.00000000000000000 1.00000000000000000 
1 -323.23869154140089677 -203.13416327786416105 0.00000000000000000 0.00000000000000000 0.00000000000000000 1.00000000000000000 
1 -114.90381056584980968 -75.00000001699176266 0.00000000000000000 0.00000000000000000 0.00000000000000000 1.00000000000000000 
1 144.90381056584993757 -75.00000000314548743 0.00000000000000000 0.00000000000000000 0.00000000000000000 1.00000000000000000 
Polygon3D 0
PolygonOnTriangulations 0
Surfaces 25
1 14.30000000000097771 317.60000000000019327 0.00000000000000000 -1.00000000000000000 0.00000000006924959 0.00000000000000000 0.00000000006924959 1.00000000000000000 0.00000000000000000 0.00000000000000000 0.00000000000000000 -1.00000000000000000 
2 530.09933648387573157 317.59999999999990905 0.00000000000000000 -0.00000000000000000 -0.00000000000000000 -1.00000000000000000 1.00000000000000000 0.00000000000000000 0.00000000000000000 -0.00000000000000000 1.00000000000000000 -0.00000000000000000 515.79933648387475387
2 11.80000000442654695 381.50000000000056843 0.00000000000000000 -0.00000000000000000 -0.00000000000000000 -1.00000000000000000 1.00000000000000000 0.00000000000000000 0.00000000000000000 -0.00000000000000000 1.00000000000000000 -0.00000000000000000 2.49999999999947908
2 540.09933648387561789 300.27949192431128722 0.00000000000000000 -0.00000000000000000 -0.00000000000000000 -1.00000000000000000 0.50000000000000044 0.86602540378443837 -0.00000000000000000 0.86602540378443837 -0.50000000000000044 0.00000000000000000 515.79933648387475387
1 -0.00000000000002366 -0.00000000000001431 0.00000000000000000 -0.00000000000000000 -0.00000000000000000 -1.00000000000000000 -1.00000000000000000 0.00000000000000000 0.00000000000000000 0.00000000000000000 1.00000000000000000 -0.00000000000000000 
2 -11.80000000442654695 381.50000000000056843 0.00000000000000000 0.00000000000000000 0.00000000000000000 -1.00000000000000000 -1.00000000000000000 0.00000000000000000 0.00000000000000000 0.00000000000000000 1.00000000000000000 0.00000000000000000 2.49999999999947908
2 336.28869154597703073 -180.53090023151057153 0.00000000000000000 -0.00000000000000000 -0.00000000000000000 -1.00000000000000000 0.50000000000000044 0.86602540378443837 -0.00000000000000000 0.86602540378443837 -0.50000000000000044 0.00000000000000000 2.49999999999947908
2 -530.09933648387573157 317.59999999999990905 0.00000000000000000 0.00000000000000000 0.00000000000000000 -1.00000000000000000 -1.00000000000000000 0.00000000000000000 0.00000000000000000 0.00000000000000000 1.00000000000000000 0.00000000000000000 515.79933648387475387
2 11.80000000442654695 381.50000000000056843 0.00000000000000000 -0.00000000000000000 -0.00000000000000000 -1.00000000000000000 1.00000000000000000 0.00000000000000000 0.00000000000000000 -0.00000000000000000 1.00000000000000000 -0.00000000000000000 2.49999999999947908
2 530.09933648387584526 317.59999999999996589 0.00000000000000000 -0.00000000000000000 -0.00000000000000000 -1.00000000000000000 1.00000000000000000 0.00000000000000000 0.00000000000000000 -0.00000000000000000 1.00000000000000000 -0.00000000000000000 515.79933648387475387
2 530.09933648387573157 317.59999999999990905 0.00000000000000000 -0.00000000000000000 -0.00000000000000000 -1.00000000000000000 1.00000000000000000 0.00000000000000000 0.00000000000000000 -0.00000000000000000 1.00000000000000000 -0.00000000000000000 515.79933648387475387
2 11.80000000442654873 381.50000000000062528 0.00000000000000000 -0.00000000000000000 -0.00000000000000000 -1.00000000000000000 1.00000000000000000 0.00000000000000000 0.00000000000000000 -0.00000000000000000 1.00000000000000000 -0.00000000000000000 2.49999999999947908
2 -9.99999999999988631 -617.87949192431142365 0.00000000000000000 0.00000000000000000 0.00000000000000000 -1.00000000000000000 0.49999999999999983 -0.86602540378443882 0.00000000000000000 -0.86602540378443882 -0.49999999999999983 -0.00000000000000000 515.79933648387475387
2 -324.48869154155056549 -200.96909976849008217 0.00000000000000000 0.00000000000000000 0.00000000000000000 -1.00000000000000000 0.49999999999999983 -0.86602540378443882 0.00000000000000000 -0.86602540378443882 -0.49999999999999983 -0.00000000000000000 2.49999999999947908
2 -129.90381056584982389 -75.00000001699176266 0.00000000000000000 -0.00000000000000000 -0.00000000000000000 -1.00000000000000000 1.00000000000000000 0.00000000000000000 0.00000000000000000 -0.00000000000000000 1.00000000000000000 -0.00000000000000000 15.00000000000001954
2 129.90381056584990915 -75.00000000314548743 0.00000000000000000 -0.00000000000000000 -0.00000000000000000 -1.00000000000000000 1.00000000000000000 0.00000000000000000 0.00000000000000000 -0.00000000000000000 1.00000000000000000 -0.00000000000000000 15.00000000000001954
1 -0.00000000000003249 -0.00000000000001856 3.00000000000000044 0.00000000000000000 0.00000000000000000 1.00000000000000000 0.00000000000000000 1.00000000000000000 0.00000000000000000 -1.00000000000000000 0.00000000000000000 0.00000000000000000 
1 282.19966824193829780 -146.41583672588191689 0.00000000000000000 -0.49999999994002858 -0.86602540381906323 -0.00000000000000000 0.86602540381906323 -0.49999999994002858 0.00000000000000000 0.00000000000000000 -0.00000000000000000 -1.00000000000000000 
1 0.00000000000000000 383.99999999999994316 1.49999999999999978 0.00000000000000000 1.00000000000000000 0.00000000000000000 0.00000000000000000 -0.00000000000000000 1.00000000000000000 1.00000000000000000 0.00000000000000000 -0.00000000000000000 
1 -14.30000000000097771 317.60000000000019327 0.00000000000000000 1.00000000000000000 0.00000000006924959 0.00000000000000000 -0.00000000006924959 1.00000000000000000 0.00000000000000000 -0.00000000000000000 0.00000000000000000 -1.00000000000000000 
1 332.55375505322439267 -192.00000000000019895 1.50000000000000022 0.86602540378443915 -0.49999999999999928 0.00000000000000000 0.49999999999999928 0.86602540378443915 0.00000000000000000 -0.00000000000000000 0.00000000000000000 1.00000000000000000 
1 14.30000000000097771 317.60000000000019327 0.00000000000000000 -1.00000000000000000 0.00000000006924959 0.00000000000000000 0.00000000006924959 1.00000000000000000 0.00000000000000000 0.00000000000000000 0.00000000000000000 -1.00000000000000000 
1 14.30000000000098126 317.60000000000025011 0.00000000000000000 -1.00000000000000000 0.00000000006924959 0.00000000000000000 0.00000000006924959 1.00000000000000000 0.00000000000000000 0.00000000000000000 0.00000000000000000 -1.00000000000000000 
1 -267.89966824193743378 -171.18416327411836164 0.00000000000000000 -0.50000000005997169 0.86602540374981396 0.00000000000000000 -0.86602540374981396 -0.50000000005997169 -0.00000000000000000 -0.00000000000000000 0.00000000000000000 -1.00000000000000000 
1 -332.55375505322450636 -191.99999999999997158 1.50000000000000022 -0.86602540378443915 -0.49999999999999928 -0.00000000000000000 0.49999999999999928 -0.86602540378443915 0.00000000000000000 -0.00000000000000000 0.00000000000000000 1.00000000000000000 
Triangulations 0

TShapes 171
Ve
0.000000100000000
14.300000000000978 317.600000000000193 0.000000000000000
0 0

0101101
*
Ve
0.000000100000000
14.300000000000978 317.600000000000193 3.000000000000000
0 0

0101101
*
Ed
 0.000000100000000 1 1 0
1  1 0 0.000000000000000 3.000000000000000
2  1 2 0 0.000000000000000 3.000000000000000
4 G1 1 0 2 0
0

0101000
+171 7 -170 7 *
Ve
0.000000100000000
14.300000004426026 381.499999999827423 0.000000000000000
0 0

0101101
*
Ve
0.000000100000000
14.300000004426026 381.499999999827423 3.000000000000000
0 0

0101101
*
Ed
 0.000000100000000 1 1 0
1  2 0 0.000000000000000 3.000000000000000
2  2 3 0 0.000000000000000 3.000000000000000
4 G1 1 0 3 0
0

0101000
+168 7 -167 7 *
Ed
 0.000000100000000 1 1 0
1  3 0 0.000000000000000 63.899999999827230
0

0101000
+171 12 -168 12 *
Ed
 0.000000100000000 1 1 0
1  4 0 0.000000000000000 63.899999999827230
0

0101000
+170 15 -167 15 *
Wi

0101100
+169 0 -166 0 -165 11 +164 14 *
Fa
0  0.000000100000000 1 0

0101000
+163 0 *
Ve
0.000000100000095
88.487965560671185 51.088550736495819 0.000000000000000
0 0

0101101
*
Ve
0.000000100000095
88.487965560671185 51.088550736495819 3.000000000000000
0 0

0101101
*
Ed
 0.000000100000080 1 1 0
1  5 0 0.000000000000000 3.000000000000000
2  3 2 0 0.000000000000000 3.000000000000000
2  4 4 18 0.000000000000000 3.000000000000000
0

0101000
+161 7 -160 7 *
Ed
 0.000000100000000 1 1 0
1  6 0 3.141592653589793 3.684580028299671
2  5 2 20 3.141592653589793 3.684580028299671
0

0101000
+171 12 -161 12 *
Ed
 0.000000100000000 1 1 0
1  7 0 3.141592653589793 3.684580028299671
2  6 2 22 3.141592653589793 3.684580028299671
0

0101000
+170 15 -160 15 *
Wi

0101100
+169 2 -159 2 -158 19 +157 21 *
Fa
0  0.000000100000000 2 2

0101000
+156 0 *
Ve
0.000000100000000
11.800000004428208 384.000000000000057 0.000000000000000
0 0

0101101
*
Ve
0.000000100000000
11.800000004428208 384.000000000000057 3.000000000000000
0 0

0101101
*
Ed
 0.000000100000000 1 1 0
1  8 0 0.000000000000000 3.000000000000000
2  7 3 0 0.000000000000000 3.000000000000000
0

0101000
+154 7 -153 7 *
Ed
 0.000000100000000 1 1 0
1  9 0 -0.000000000069268 1.570796326794232
2  8 3 20 -0.000000000069268 1.570796326794232
0

0101000
+168 12 -154 12 *
Ed
 0.000000100000000 1 1 0
1  10 0 -0.000000000069268 1.570796326794232
2  9 3 22 -0.000000000069268 1.570796326794232
0

0101000
+167 15 -153 15 *
Wi

0101100
+166 0 -152 0 -151 11 +150 14 *
Fa
0  0.000000100000000 3 0

0101000
+149 0 *
Ve
0.000000100000000
282.199668241938298 -146.415836725881917 0.000000000000000
0 0

0101101
*
Ed
 0.000000100000000 1 1 0
1  11 0 3.141592653589793 3.684580028299671
2  10 4 20 3.141592653589793 3.684580028299671
0

0101000
+147 25 -161 25 *
Ve
0.000000100000000
-11.800000004428208 384.000000000000057 0.000000000000000
0 0

0101101
*
Ed
 0.000000100000000 1 1 0
1  12 0 0.000000000000000 23.600000008856416
0

0101000
+145 26 -154 26 *
Ve
0.000000100000000
337.538691545826794 -178.365836721963376 0.000000000000000
0 0

0101101
*
Ed
 0.000000100000000 1 1 0
1  13 0 0.000000000000000 63.899999999827230
0

0101000
+147 25 -143 25 *
Ve
0.000000100000000
-14.300000004426026 381.499999999827423 0.000000000000000
0 0

0101101
*
Ed
 0.000000100000000 1 1 0
1  14 0 -0.000000000069268 1.570796326794232
2  11 6 20 -0.000000000069268 1.570796326794232
0

0101000
+141 25 -145 25 *
Ve
0.000000100000000
338.453755055438478 -181.780900231508895 0.000000000000000
0 0

0101101
*
Ed
 0.000000100000000 1 1 0
1  15 0 -0.000000000069268 1.570796326794232
2  12 7 20 -0.000000000069268 1.570796326794232
0

0101000
+143 25 -139 25 *
Ve
0.000000100000000
-14.300000000000978 317.600000000000193 0.000000000000000
0 0

0101101
*
Ed
 0.000000100000000 1 1 0
1  16 0 0.000000000000000 63.899999999827230
0

0101000
+137 25 -141 25 *
Ve
0.000000100000000
326.653755051010251 -202.219099768491418 0.000000000000000
0 0

0101101
*
Ed
 0.000000100000000 1 1 0
1  17 0 -0.000000000000000 23.600000008856377
0

0101000
+139 26 -135 26 *
Ve
0.000000100000016
-88.487965560671171 51.088550736495847 0.000000000000000
0 0

0101101
*
Ed
 0.000000100000000 1 1 0
1  18 0 3.141592653589793 3.684580028299671
2  13 8 20 3.141592653589793 3.684580028299671
0

0101000
+137 25 -133 25 *
Ve
0.000000100000000
323.238691541400726 -203.134163277864303 0.000000000000000
0 0

0101101
*
Ed
 0.000000100000000 1 1 0
1  19 0 -0.000000000069268 1.570796326794232
2  14 9 20 -0.000000000069268 1.570796326794232
0

0101000
+131 29 -135 29 *
Ve
0.000000100000000
-282.199668241938468 -146.415836725881775 0.000000000000000
0 0

0101101
*
Ed
 0.000000100000000 1 1 0
1  20 0 3.141592653589793 3.684580028299671
2  15 10 20 3.141592653589793 3.684580028299671
0

0101000
+129 32 -133 32 *
Ve
0.000000100000000
267.899668241937206 -171.184163274118475 0.000000000000000
0 0

0101101
*
Ed
 0.000000100000000 1 1 0
1  21 0 0.000000000000000 63.899999999827230
0

0101000
+127 29 -131 29 *
Ve
0.000000100000000
-337.538691545827021 -178.365836721963177 0.000000000000000
0 0

0101101
*
Ed
 0.000000100000000 1 1 0
1  22 0 0.000000000000000 63.899999999827230
0

0101000
+129 32 -125 32 *
Ve
0.000000100000025
-0.000000000000039 -102.177101472991652 0.000000000000000
0 0

0101101
*
Ed
 0.000000100000000 1 1 0
1  23 0 3.141592653589793 3.684580028299671
2  16 11 20 3.141592653589793 3.684580028299671
0

0101000
+127 29 -123 29 *
Ve
0.000000100000000
-338.453755055438705 -181.780900231508696 0.000000000000000
0 0

0101101
*
Ed
 0.000000100000000 1 1 0
1  24 0 -0.000000000069268 1.570796326794232
2  17 12 20 -0.000000000069268 1.570796326794232
0

0101000
+125 32 -121 32 *
Ve
0.000000100000000
-267.899668241937434 -171.184163274118362 0.000000000000000
0 0

0101101
*
Ed
 0.000000100000000 1 1 0
1  25 0 3.141592653589793 3.684580028299671
2  18 13 20 3.141592653589793 3.684580028299671
0

0101000
+119 25 -123 25 *
Ve
0.000000100000000
-326.653755051010421 -202.219099768491247 0.000000000000000
0 0

0101101
*
Ed
 0.000000100000000 1 1 0
1  26 0 0.000000000000000 23.600000008856377
0

0101000
+117 26 -121 26 *
Ve
0.000000100000000
-323.238691541400897 -203.134163277864161 0.000000000000000
0 0

0101101
*
Ed
 0.000000100000000 1 1 0
1  27 0 0.000000000000000 63.899999999827230
0

0101000
+119 25 -115 25 *
Ed
 0.000000100000000 1 1 0
1  28 0 -0.000000000069268 1.570796326794232
2  19 14 20 -0.000000000069268 1.570796326794232
0

0101000
+115 25 -117 25 *
Wi

0101100
-165 23 +158 23 -151 23 -146 24 +144 16 +142 24 +140 24 +138 24 +136 24 +134 16 
-132 24 -130 28 +128 31 -126 28 -124 31 +122 28 -120 31 -118 24 +116 16 +114 24 
+113 24 *
Ve
0.000000100000000
-114.903810565849810 -75.000000016991763 0.000000000000000
0 0

0101101
*
Ed
 0.000000100000000 1 1 0
1  29 0 0.000000000000000 6.283185307179586
2  20 15 36 0.000000000000000 6.283185307179586
0

0101100
+111 37 -111 37 *
Wi

0101100
+110 35 *
Ve
0.000000100000000
144.903810565849938 -75.000000003145487 0.000000000000000
0 0

0101101
*
Ed
 0.000000100000000 1 1 0
1  30 0 0.000000000000000 6.283185307179586
2  21 16 36 0.000000000000000 6.283185307179586
0

0101100
+108 37 -108 37 *
Wi

0101100
+107 35 *
Fa
0  0.000000100000000 5 16

0101000
+112 0 +109 0 +106 0 *
Ve
0.000000100000000
282.199668241938298 -146.415836725881917 3.000000000000000
0 0

0101101
*
Ed
 0.000000100000000 1 1 0
1  31 0 3.141592653589793 3.684580028299671
2  22 4 22 3.141592653589793 3.684580028299671
0

0101000
+104 40 -160 40 *
Ve
0.000000100000000
-11.800000004428208 384.000000000000057 3.000000000000000
0 0

0101101
*
Ed
 0.000000100000000 1 1 0
1  32 0 0.000000000000000 23.600000008856416
0

0101000
+153 26 -102 26 *
Ve
0.000000100000000
337.538691545826794 -178.365836721963376 3.000000000000000
0 0

0101101
*
Ed
 0.000000100000000 1 1 0
1  33 0 0.000000000000000 63.899999999827230
0

0101000
+104 40 -100 40 *
Ve
0.000000100000000
-14.300000004426026 381.499999999827423 3.000000000000000
0 0

0101101
*
Ed
 0.000000100000000 1 1 0
1  34 0 -0.000000000069268 1.570796326794232
2  23 6 22 -0.000000000069268 1.570796326794232
0

0101000
+98 40 -102 40 *
Ve
0.000000100000000
338.453755055438478 -181.780900231508895 3.000000000000000
0 0

0101101
*
Ed
 0.000000100000000 1 1 0
1  35 0 -0.000000000069268 1.570796326794232
2  24 7 22 -0.000000000069268 1.570796326794232
0

0101000
+100 40 -96 40 *
Ve
0.000000100000000
-14.300000000000978 317.600000000000193 3.000000000000000
0 0

0101101
*
Ed
 0.000000100000000 1 1 0
1  36 0 0.000000000000000 63.899999999827230
0

0101000
+94 40 -98 40 *
Ve
0.000000100000000
326.653755051010251 -202.219099768491418 2.999999999999999
0 0

0101101
*
Ed
 0.000000100000000 1 1 0
1  37 0 0.000000000000000 23.600000008856377
0

0101000
+92 26 -96 26 *
Ve
0.000000100000016
-88.487965560671171 51.088550736495847 3.000000000000000
0 0

0101101
*
Ed
 0.000000100000000 1 1 0
1  38 0 3.141592653589793 3.684580028299671
2  25 8 22 3.141592653589793 3.684580028299671
0

0101000
+94 40 -90 40 *
Ve
0.000000100000000
323.238691541400726 -203.134163277864303 2.999999999999999
0 0

0101101
*
Ed
 0.000000100000000 1 1 0
1  39 0 -0.000000000069268 1.570796326794232
2  26 9 22 -0.000000000069268 1.570796326794232
0

0101000
+88 42 -92 42 *
Ve
0.000000100000000
-282.199668241938468 -146.415836725881775 3.000000000000001
0 0

0101101
*
Ed
 0.000000100000000 1 1 0
1  40 0 3.141592653589793 3.684580028299671
2  27 10 22 3.141592653589793 3.684580028299671
0

0101000
+86 44 -90 44 *
Ve
0.000000100000000
267.899668241937206 -171.184163274118475 2.999999999999999
0 0

0101101
*
Ed
 0.000000100000000 1 1 0
1  41 0 0.000000000000000 63.899999999827230
0

0101000
+84 42 -88 42 *
Ve
0.000000100000000
-337.538691545827021 -178.365836721963177 3.000000000000001
0 0

0101101
*
Ed
 0.000000100000000 1 1 0
1  42 0 0.000000000000000 63.899999999827230
0

0101000
+86 44 -82 44 *
Ve
0.000000100000025
-0.000000000000039 -102.177101472991652 3.000000000000000
0 0

0101101
*
Ed
 0.000000100000000 1 1 0
1  43 0 3.141592653589793 3.684580028299671
2  28 11 22 3.141592653589793 3.684580028299671
0

0101000
+84 42 -80 42 *
Ve
0.000000100000000
-338.453755055438705 -181.780900231508696 3.000000000000001
0 0

0101101
*
Ed
 0.000000100000000 1 1 0
1  44 0 -0.000000000069268 1.570796326794232
2  29 12 22 -0.000000000069268 1.570796326794232
0

0101000
+82 44 -78 44 *
Ve
0.000000100000000
-267.899668241937434 -171.184163274118362 3.000000000000000
0 0

0101101
*
Ed
 0.000000100000000 1 1 0
1  45 0 3.141592653589793 3.684580028299671
2  30 13 22 3.141592653589793 3.684580028299671
0

0101000
+76 40 -80 40 *
Ve
0.000000100000000
-326.653755051010421 -202.219099768491247 3.000000000000000
0 0

0101101
*
Ed
 0.000000100000000 1 1 0
1  46 0 0.000000000000000 23.600000008856377
0

0101000
+78 26 -74 26 *
Ve
0.000000100000000
-323.238691541400897 -203.134163277864161 3.000000000000000
0 0

0101101
*
Ed
 0.000000100000000 1 1 0
1  47 0 0.000000000000000 63.899999999827230
0

0101000
+76 40 -72 40 *
Ed
 0.000000100000000 1 1 0
1  48 0 -0.000000000069268 1.570796326794232
2  31 14 22 -0.000000000069268 1.570796326794232
0

0101000
+72 40 -74 40 *
Wi

0101100
+164 38 -157 38 +150 38 +103 39 +101 16 -99 39 -97 39 -95 39 -93 39 +91 16 
+89 39 +87 41 -85 43 +83 41 +81 43 -79 41 +77 43 +75 39 +73 16 -71 39 
-70 39 *
Ve
0.000000100000000
144.903810565849938 -75.000000003145487 3.000000000000000
0 0

0101101
*
Ed
 0.000000100000000 1 1 0
1  49 0 0.000000000000000 6.283185307179586
2  32 16 0 0.000000000000000 6.283185307179586
0

0101100
+68 45 -68 45 *
Wi

0101100
+67 0 *
Ve
0.000000100000000
-114.903810565849810 -75.000000016991763 3.000000000000000
0 0

0101101
*
Ed
 0.000000100000000 1 1 0
1  50 0 0.000000000000000 6.283185307179586
2  33 15 0 0.000000000000000 6.283185307179586
0

0101100
+65 45 -65 45 *
Wi

0101100
+64 0 *
Fa
0  0.000000100000000 17 16

0101000
+69 0 +66 0 +63 0 *
Ed
 0.000000100000000 1 1 0
1  51 0 0.000000000000000 3.000000000000000
2  34 4 0 0.000000000000000 3.000000000000000
4 G1 4 0 18 0
0

0101000
+147 46 -104 46 *
Wi

0101100
+61 17 -159 2 -146 47 +103 48 *
Fa
0  0.000000100000000 4 17

0101000
+60 0 *
Ed
 0.000000100000000 1 1 0
1  52 0 0.000000000000000 3.000000000000000
2  35 6 0 0.000000000000000 3.000000000000000
0

0101000
+145 46 -102 46 *
Wi

0101000
-152 2 -144 0 +58 17 -101 0 *
Fa
0  0.000000100000000 19 0

0101000
+57 0 *
Ed
 0.000000100000000 1 1 0
1  53 0 0.000000000000000 3.000000000000000
2  36 7 0 0.000000000000000 3.000000000000000
4 G1 18 0 7 0
0

0101000
+143 46 -100 46 *
Wi

0101100
+61 0 -55 0 -142 11 +99 14 *
Fa
0  0.000000100000000 18 0

0101000
+54 0 *
Ed
 0.000000100000000 1 1 0
1  54 0 0.000000000000000 3.000000000000000
2  37 6 0 0.000000000000000 3.000000000000000
4 G1 6 0 20 0
0

0101000
+141 46 -98 46 *
Wi

0101100
+52 0 -58 0 -140 11 +97 14 *
Fa
0  0.000000100000000 6 0

0101000
+51 0 *
Ed
 0.000000100000000 1 1 0
1  55 0 0.000000000000000 3.000000000000000
2  38 7 0 0.000000000000000 3.000000000000000
0

0101000
+139 46 -96 46 *
Wi

0101100
+55 0 -49 0 -138 11 +95 14 *
Fa
0  0.000000100000000 7 0

0101000
+48 0 *
Ed
 0.000000100000000 1 1 0
1  56 0 0.000000000000000 3.000000000000000
2  39 8 0 0.000000000000000 3.000000000000000
4 G1 20 0 8 0
0

0101000
+137 46 -94 46 *
Wi

0101100
+46 0 -52 0 -136 11 +93 14 *
Fa
0  0.000000100000000 20 0

0101000
+45 0 *
Ed
 0.000000100000000 1 1 0
1  57 0 0.000000000000000 3.000000000000000
2  40 9 0 0.000000000000000 3.000000000000000
0

0101000
+135 51 -92 51 *
Wi

0101000
+49 17 -91 0 -43 50 -134 0 *
Fa
0  0.000000100000000 21 0

0101000
+42 0 *
Ed
 0.000000100000004 1 1 0
1  58 0 0.000000000000000 3.000000000000000
2  41 8 0 0.000000000000000 3.000000000000000
2  42 10 52 0.000000000000000 3.000000000000000
0

0101000
+133 46 -90 46 *
Wi

0101100
+46 17 -40 17 -132 47 +89 48 *
Fa
0  0.000000100000000 8 17

0101000
+39 0 *
Ed
 0.000000100000000 1 1 0
1  59 0 0.000000000000000 3.000000000000000
2  43 9 0 0.000000000000000 3.000000000000000
4 G1 9 0 22 0
0

0101000
+131 51 -88 51 *
Wi

0101100
+37 0 -43 0 -130 11 +87 14 *
Fa
0  0.000000100000000 9 0

0101000
+36 0 *
Ed
 0.000000100000000 1 1 0
1  60 0 0.000000000000000 3.000000000000000
2  44 10 0 0.000000000000000 3.000000000000000
4 G1 10 0 23 0
0

0101000
+129 55 -86 55 *
Wi

0101100
+34 54 -40 17 -128 56 +85 57 *
Fa
0  0.000000100000000 10 54

0101000
+33 0 *
Ed
 0.000000100000000 1 1 0
1  61 0 0.000000000000000 3.000000000000000
2  45 11 0 0.000000000000000 3.000000000000000
4 G1 22 0 11 0
0

0101000
+127 51 -84 51 *
Wi

0101100
+31 0 -37 0 -126 11 +83 14 *
Fa
0  0.000000100000000 22 0

0101000
+30 0 *
Ed
 0.000000100000000 1 1 0
1  62 0 0.000000000000000 3.000000000000000
2  46 12 0 0.000000000000000 3.000000000000000
4 G1 23 0 12 0
0

0101000
+125 55 -82 55 *
Wi

0101100
+34 0 -28 0 -124 11 +81 14 *
Fa
0  0.000000100000000 23 0

0101000
+27 0 *
Ed
 0.000000100000011 1 1 0
1  63 0 0.000000000000000 3.000000000000000
2  47 11 59 0.000000000000000 3.000000000000000
2  48 13 0 0.000000000000000 3.000000000000000
0

0101000
+123 46 -80 46 *
Wi

0101100
+31 50 -25 17 -122 60 +79 61 *
Fa
0  0.000000100000000 11 50

0101000
+24 0 *
Ed
 0.000000100000000 1 1 0
1  64 0 0.000000000000000 3.000000000000000
2  49 12 0 0.000000000000000 3.000000000000000
0

0101000
+121 55 -78 55 *
Wi

0101100
+28 0 -22 0 -120 11 +77 14 *
Fa
0  0.000000100000000 12 0

0101000
+21 0 *
Ed
 0.000000100000000 1 1 0
1  65 0 0.000000000000000 3.000000000000000
2  50 13 0 0.000000000000000 3.000000000000000
4 G1 13 0 24 0
0

0101000
+119 46 -76 46 *
Wi

0101100
+19 17 -25 17 -118 47 +75 48 *
Fa
0  0.000000100000000 13 17

0101000
+18 0 *
Ed
 0.000000100000000 1 1 0
1  66 0 0.000000000000000 3.000000000000000
2  51 14 0 0.000000000000000 3.000000000000000
0

0101000
+117 46 -74 46 *
Wi

0101000
-22 54 -116 0 +16 17 -73 0 *
Fa
0  0.000000100000000 25 0

0101000
+15 0 *
Ed
 0.000000100000000 1 1 0
1  67 0 0.000000000000000 3.000000000000000
2  52 14 0 0.000000000000000 3.000000000000000
4 G1 24 0 14 0
0

0101000
+115 46 -72 46 *
Wi

0101100
+19 0 -13 0 -114 11 +71 14 *
Fa
0  0.000000100000000 24 0

0101000
+12 0 *
Wi

0101100
+13 0 -16 0 -113 11 +70 14 *
Fa
0  0.000000100000000 14 0

0101000
+10 0 *
Ed
 0.000000100000000 1 1 0
1  68 0 0.000000000000000 3.000000000000000
3  53 54CN 15 0 0.000000000000000 3.000000000000000
0

0101000
+111 45 -65 45 *
Wi

0101100
-110 35 -8 0 -64 0 +8 0 *
Fa
0  0.000000100000000 15 0

0101000
+7 0 *
Ed
 0.000000100000000 1 1 0
1  69 0 0.000000000000000 3.000000000000000
3  55 56CN 16 0 0.000000000000000 3.000000000000000
0

0101000
+108 45 -68 45 *
Wi

0101100
-107 35 -5 0 -67 0 +5 0 *
Fa
0  0.000000100000000 16 0

0101000
+4 0 *
Sh

0101100
-162 5 +155 16 -148 5 +105 0 +62 0 -59 16 +56 16 +53 49 +50 49 +47 49 
+44 49 +41 16 -38 16 -35 53 +32 16 -29 53 -26 58 +23 16 -20 58 -17 16 
+14 16 +11 49 +9 49 +6 0 +3 0 *
So

1100000
+2 0 *

+1 1 