
CASCADE Topology V1, (c) Matra-Datavision
Locations 98
1
1.000000000000000 0.000000000000000 0.000000000000000 0.000000000000000 
0.000000000000000 1.000000000000000 0.000000000000000 0.000000000000000 
0.000000000000000 0.000000000000000 1.000000000000000 0.000000000000000 
1
1.000000000000000 0.000000000000000 0.000000000000000 0.000000000000000 
0.000000000000000 1.000000000000000 0.000000000000000 0.000000000000000 
0.000000000000000 0.000000000000000 1.000000000000000 0.000000000000000 
1
1.000000000000000 0.000000000000000 0.000000000000000 0.000000000000000 
0.000000000000000 1.000000000000000 0.000000000000000 0.000000000000000 
0.000000000000000 0.000000000000000 1.000000000000000 0.000000000000000 
1
1.000000000000000 0.000000000000000 0.000000000000000 0.000000000000000 
0.000000000000000 1.000000000000000 0.000000000000000 0.000000000000000 
0.000000000000000 0.000000000000000 1.000000000000000 0.000000000000000 
1
1.000000000000000 0.000000000000000 0.000000000000000 0.000000000000000 
0.000000000000000 1.000000000000000 0.000000000000000 0.000000000000000 
0.000000000000000 0.000000000000000 1.000000000000000 0.000000000000000 
2  2 1 3 -1 4 1 5 -1 0
1
1.000000000000000 0.000000000000000 0.000000000000000 0.000000000000000 
0.000000000000000 1.000000000000000 0.000000000000000 0.000000000000000 
0.000000000000000 0.000000000000000 1.000000000000000 0.000000000000000 
1
1.000000000000000 0.000000000000000 0.000000000000000 0.000000000000000 
0.000000000000000 1.000000000000000 0.000000000000000 0.000000000000000 
0.000000000000000 0.000000000000000 1.000000000000000 0.000000000000000 
1
1.000000000000000 0.000000000000000 0.000000000000000 0.000000000000000 
0.000000000000000 1.000000000000000 0.000000000000000 0.000000000000000 
0.000000000000000 0.000000000000000 1.000000000000000 0.000000000000000 
1
1.000000000000000 0.000000000000000 0.000000000000000 0.000000000000000 
0.000000000000000 1.000000000000000 0.000000000000000 0.000000000000000 
0.000000000000000 0.000000000000000 1.000000000000000 0.000000000000000 
1
1.000000000000000 0.000000000000000 0.000000000000000 0.000000000000000 
0.000000000000000 1.000000000000000 0.000000000000000 0.000000000000000 
0.000000000000000 0.000000000000000 1.000000000000000 0.000000000000000 
1
1.000000000000000 0.000000000000000 0.000000000000000 0.000000000000000 
0.000000000000000 1.000000000000000 0.000000000000000 0.000000000000000 
0.000000000000000 0.000000000000000 1.000000000000000 0.000000000000000 
1
1.000000000000000 0.000000000000000 0.000000000000000 0.000000000000000 
0.000000000000000 1.000000000000000 0.000000000000000 0.000000000000000 
0.000000000000000 0.000000000000000 1.000000000000000 0.000000000000000 
2  7 1 8 1 9 1 10 1 11 1 12 1 13 -1 0
1
1.000000000000000 0.000000000000000 0.000000000000000 0.000000000000000 
0.000000000000000 1.000000000000000 0.000000000000000 0.000000000000000 
0.000000000000000 0.000000000000000 1.000000000000000 3.000000000000000 
2  7 1 8 1 9 1 10 1 11 1 12 1 13 -1 15 1 0
2  13 1 12 -1 11 -1 10 -1 9 -1 8 -1 7 -1 0
2  15 -1 13 1 12 -1 11 -1 10 -1 9 -1 8 -1 7 -1 0
2  10 -1 9 -1 8 -1 7 -1 0
1
1.000000000000000 0.000000000000000 0.000000000000000 0.000000000000000 
0.000000000000000 1.000000000000000 0.000000000000000 0.000000000000000 
0.000000000000000 0.000000000000000 1.000000000000000 0.000000000000000 
1
1.000000000000000 0.000000000000000 0.000000000000000 0.000000000000000 
0.000000000000000 1.000000000000000 0.000000000000000 0.000000000000000 
0.000000000000000 0.000000000000000 1.000000000000000 0.000000000000000 
1
1.000000000000000 0.000000000000000 0.000000000000000 0.000000000000000 
0.000000000000000 1.000000000000000 0.000000000000000 0.000000000000000 
0.000000000000000 0.000000000000000 1.000000000000000 0.000000000000000 
1
-0.500000000000000 0.866025403784439 0.000000000000000 0.000000000000021 
-0.866025403784439 -0.500000000000000 0.000000000000000 0.000000000000099 
0.000000000000000 0.000000000000000 1.000000000000000 0.000000000000000 
2  20 -1 21 1 22 1 23 1 10 1 11 1 12 1 13 -1 0
2  20 -1 21 1 22 1 23 1 10 1 11 1 12 1 13 -1 15 1 0
2  21 1 22 1 23 1 10 1 11 1 12 1 13 -1 0
2  13 1 12 -1 11 -1 10 -1 23 -1 22 -1 21 -1 0
2  15 -1 13 1 12 -1 11 -1 10 -1 23 -1 22 -1 21 -1 0
2  10 -1 23 -1 22 -1 21 -1 0
2  7 1 8 1 9 1 23 -1 22 -1 21 -1 0
2  20 -1 0
2  21 1 22 1 23 1 10 1 11 1 12 1 13 -1 15 1 0
1
-0.500000000000001 -0.866025403784439 0.000000000000000 0.000000000000085 
0.866025403784439 -0.500000000000001 0.000000000000000 -0.000000000000028 
0.000000000000000 0.000000000000000 1.000000000000001 0.000000000000000 
2  13 1 12 -1 11 -1 10 -1 33 -1 8 -1 7 -1 0
2  15 -1 13 1 12 -1 11 -1 10 -1 33 -1 8 -1 7 -1 0
2  13 1 12 -1 11 -1 10 -1 23 -1 8 -1 7 -1 0
2  15 -1 13 1 12 -1 11 -1 10 -1 23 -1 8 -1 7 -1 0
2  10 -1 33 -1 8 -1 7 -1 0
2  10 -1 23 -1 8 -1 7 -1 0
2  11 1 12 1 13 -1 2 1 3 -1 4 1 5 -1 0
2  7 1 8 1 9 1 10 1 11 1 12 1 13 -1 2 1 3 -1 4 1 5 -1 0
2  21 1 22 1 23 1 10 1 11 1 12 1 13 -1 2 1 3 -1 4 1 5 -1 0
2  13 1 12 -1 11 -1 10 -1 9 -1 22 -1 21 -1 0
2  15 -1 13 1 12 -1 11 -1 10 -1 9 -1 22 -1 21 -1 0
2  13 1 12 -1 11 -1 10 -1 33 -1 22 -1 21 -1 0
2  15 -1 13 1 12 -1 11 -1 10 -1 33 -1 22 -1 21 -1 0
2  10 -1 9 -1 22 -1 21 -1 0
2  10 -1 33 -1 22 -1 21 -1 0
2  7 1 8 1 22 -1 21 -1 0
2  21 1 22 1 9 1 10 1 11 1 12 1 13 -1 2 1 3 -1 4 1 5 -1 0
2  7 1 8 1 23 1 10 1 11 1 12 1 13 -1 2 1 3 -1 4 1 5 -1 0
2  20 -1 21 1 22 1 33 1 23 -1 8 -1 7 -1 0
2  7 1 8 1 33 1 10 1 11 1 12 1 13 -1 2 1 3 -1 4 1 5 -1 0
2  20 -1 21 1 22 1 9 1 33 -1 8 -1 7 -1 0
2  21 1 22 1 33 1 10 1 11 1 12 1 13 -1 2 1 3 -1 4 1 5 -1 0
1
1.000000000000000 0.000000000000000 0.000000000000000 -0.000000000000006 
0.000000000000000 1.000000000000000 0.000000000000000 -311.871578903272166 
0.000000000000000 0.000000000000000 1.000000000000000 3.000000000000000 
1
1.000000000000000 0.000000000000000 0.000000000000000 0.000000000000006 
0.000000000000000 1.000000000000000 0.000000000000000 -276.871578903227032 
0.000000000000000 0.000000000000000 1.000000000000000 3.000000000000000 
1
1.000000000000000 0.000000000000000 0.000000000000000 160.836112157986634 
0.000000000000000 1.000000000000000 0.000000000000000 -76.261032158655922 
0.000000000000000 0.000000000000000 1.000000000000000 0.000000000000000 
2  58 1 4 1 5 -1 0
1
1.000000000000000 0.000000000000000 0.000000000000000 117.675123851654320 
0.000000000000000 1.000000000000000 0.000000000000000 132.886474957001582 
0.000000000000000 0.000000000000000 1.000000000000000 0.000000000000000 
2  11 1 12 1 13 -1 2 1 3 -1 60 -1 0
1
1.000000000000000 0.000000000000000 0.000000000000000 14.374064910775601 
0.000000000000000 1.000000000000000 0.000000000000000 177.418675054067563 
0.000000000000000 0.000000000000000 1.000000000000000 0.000000000000000 
2  11 1 12 1 13 -1 2 1 3 -1 62 -1 0
2  11 1 12 1 13 -1 2 1 3 -1 58 -1 0
1
1.000000000000000 0.000000000000000 0.000000000000000 173.920625057955220 
0.000000000000000 1.000000000000000 0.000000000000000 35.466409170511618 
0.000000000000000 0.000000000000000 1.000000000000000 0.000000000000000 
2  11 1 12 1 13 -1 2 1 3 -1 65 -1 0
2  62 1 4 1 5 -1 0
2  65 1 4 1 5 -1 0
2  60 1 4 1 5 -1 0
2  11 1 12 1 13 -1 15 1 2 1 3 -1 4 1 5 -1 0
2  7 1 8 1 9 1 10 1 11 1 12 1 13 -1 15 1 2 1 3 -1 4 1 5 -1 0
2  21 1 22 1 23 1 10 1 11 1 12 1 13 -1 15 1 2 1 3 -1 4 1 5 -1 0
2  21 1 22 1 9 1 10 1 11 1 12 1 13 -1 15 1 2 1 3 -1 4 1 5 -1 0
2  7 1 8 1 23 1 10 1 11 1 12 1 13 -1 15 1 2 1 3 -1 4 1 5 -1 0
2  7 1 8 1 33 1 10 1 11 1 12 1 13 -1 15 1 2 1 3 -1 4 1 5 -1 0
2  21 1 22 1 33 1 10 1 11 1 12 1 13 -1 15 1 2 1 3 -1 4 1 5 -1 0
2  11 1 12 1 13 -1 15 1 2 1 3 -1 4 1 5 -1 57 -1 0
2  11 1 12 1 13 -1 15 1 2 1 3 -1 4 1 5 -1 56 -1 0
2  4 1 5 -1 0
2  11 1 12 1 13 -1 15 1 2 1 3 -1 0
2  7 1 8 1 23 1 10 1 11 1 12 1 13 -1 0
2  7 1 8 1 23 1 10 1 11 1 12 1 13 -1 15 1 0
2  20 -1 21 1 22 1 9 1 10 1 11 1 12 1 13 -1 0
2  20 -1 21 1 22 1 9 1 10 1 11 1 12 1 13 -1 15 1 0
2  21 1 22 1 9 1 10 1 11 1 12 1 13 -1 0
2  21 1 22 1 9 1 10 1 11 1 12 1 13 -1 15 1 0
2  20 -1 21 1 22 1 33 1 10 1 11 1 12 1 13 -1 0
2  20 -1 21 1 22 1 33 1 10 1 11 1 12 1 13 -1 15 1 0
2  7 1 8 1 33 1 10 1 11 1 12 1 13 -1 0
2  7 1 8 1 33 1 10 1 11 1 12 1 13 -1 15 1 0
2  21 1 22 1 33 1 10 1 11 1 12 1 13 -1 0
2  21 1 22 1 33 1 10 1 11 1 12 1 13 -1 15 1 0
2  56 -1 0
2  57 -1 0
2  58 -1 0
2  62 -1 0
2  65 -1 0
2  60 -1 0
Curve2ds 116
1 0.52359877559829882 0.00000000000000000 0.00000000000000000 -1.00000000000000000 
1 0.52359877559829882 0.00000000000000000 0.00000000000000000 -1.00000000000000000 
1 0.56455098802180270 0.00000000000000000 0.00000000000000000 -1.00000000000000000 
1 0.56455098802180304 0.00000000000000000 0.00000000000000000 -1.00000000000000000 
1 0.00000000000000000 0.00000000000000000 1.00000000000000000 0.00000000000000000 
1 0.00000000000000000 -3.00000000000000000 1.00000000000000000 0.00000000000000000 
2 -0.00000000000001316 0.00000000000002677 1.00000000000000000 0.00000000000000000 -0.00000000000000000 1.00000000000000000 354.17021174407386752
1 0.56455098802180304 0.00000000000000000 0.00000000000000000 -1.00000000000000000 
1 0.56455098802180270 0.00000000000000000 0.00000000000000000 -1.00000000000000000 
1 0.00000000000000000 0.00000000000000000 1.00000000000000000 0.00000000000000000 
1 0.00000000000000000 -3.00000000000000000 1.00000000000000000 0.00000000000000000 
2 0.00000000000000816 0.00000000000012625 0.50000000000000033 0.86602540378443860 0.86602540378443860 -0.50000000000000033 354.17021174407386752
1 1.22573129010829063 0.00000000000000000 0.00000000000000000 -1.00000000000000000 
1 1.22573129010829085 0.00000000000000000 0.00000000000000000 -1.00000000000000000 
1 0.00000000000000000 0.00000000000000000 1.00000000000000000 0.00000000000000000 
1 0.00000000000000000 -3.00000000000000000 1.00000000000000000 0.00000000000000000 
1 0.00000000000000000 0.00000000000000000 1.00000000000000000 0.00000000000000000 
1 0.00000000000000000 -3.00000000000000000 1.00000000000000000 0.00000000000000000 
1 0.00000000000000000 0.00000000000000000 1.00000000000000000 0.00000000000000000 
1 0.00000000000000000 -3.00000000000000000 1.00000000000000000 0.00000000000000000 
2 255.70454913011639064 161.93962032611540280 1.00000000000000000 0.00000000000000000 -0.00000000000000000 1.00000000000000000 51.50000000000000000
2 -268.09609964668106841 140.47682524686908323 -0.50000000000000056 0.86602540378443837 -0.86602540378443837 -0.50000000000000056 51.50000000000002132
2 12.39155051656448769 -302.41644557298451446 -0.50000000000000033 -0.86602540378443860 0.86602540378443860 -0.50000000000000033 51.50000000000000000
1 0.00000000000000000 0.00000000000000000 1.00000000000000000 0.00000000000000000 
1 0.00000000000000000 -3.00000000000000000 1.00000000000000000 0.00000000000000000 
1 0.00000000000000000 0.00000000000000000 1.00000000000000000 0.00000000000000000 
1 0.00000000000000000 -3.00000000000000000 1.00000000000000000 0.00000000000000000 
1 0.00000000000000000 0.00000000000000000 1.00000000000000000 0.00000000000000000 
1 0.00000000000000000 -3.00000000000000000 1.00000000000000000 0.00000000000000000 
2 -255.70454913011639064 161.93962032611540280 -1.00000000000000000 0.00000000000000000 0.00000000000000000 1.00000000000000000 51.50000000000000000
2 -12.39155051656429585 -302.41644557298468499 0.50000000000000056 -0.86602540378443837 -0.86602540378443837 -0.50000000000000056 51.50000000000000711
2 268.09609964668106841 140.47682524686925376 0.50000000000000033 0.86602540378443860 0.86602540378443860 -0.50000000000000033 51.49999999999999289
1 0.00000000000000000 0.00000000000000000 1.00000000000000000 0.00000000000000000 
1 0.00000000000000000 -3.00000000000000000 1.00000000000000000 0.00000000000000000 
1 0.00000000000000000 0.00000000000000000 1.00000000000000000 0.00000000000000000 
1 0.00000000000000000 -3.00000000000000000 1.00000000000000000 0.00000000000000000 
1 0.00000000000000000 0.00000000000000000 1.00000000000000000 0.00000000000000000 
1 0.00000000000000000 -3.00000000000000000 1.00000000000000000 0.00000000000000000 
2 -0.00000000000001316 -549.44557738923845136 1.00000000000000000 0.00000000000000000 -0.00000000000000000 1.00000000000000000 807.44557738923845136
2 475.83382801608934187 274.72278869461956674 -0.50000000000000056 0.86602540378443837 -0.86602540378443837 -0.50000000000000056 807.44557738923867873
2 -475.83382801608922819 274.72278869461950990 -0.50000000000000033 -0.86602540378443860 0.86602540378443860 -0.50000000000000033 807.44557738923856505
1 0.00000000000000000 0.00000000000000000 1.00000000000000000 0.00000000000000000 
1 0.00000000000000000 -3.00000000000000000 1.00000000000000000 0.00000000000000000 
2 -475.83382801608922819 274.72278869461950990 0.50000000000000033 0.86602540378443860 0.86602540378443860 -0.50000000000000033 807.44557738923845136
1 0.00000000000000000 0.00000000000000000 1.00000000000000000 0.00000000000000000 
1 0.00000000000000000 -3.00000000000000000 1.00000000000000000 0.00000000000000000 
2 -0.00000000000001316 -549.44557738923845136 -1.00000000000000000 0.00000000000000000 0.00000000000000000 1.00000000000000000 807.44557738923845136
1 0.00000000000000000 0.00000000000000000 1.00000000000000000 0.00000000000000000 
1 0.00000000000000000 -3.00000000000000000 1.00000000000000000 0.00000000000000000 
1 0.00000000000000000 0.00000000000000000 1.00000000000000000 0.00000000000000000 
1 0.00000000000000000 -3.00000000000000000 1.00000000000000000 0.00000000000000000 
2 -0.00000000000001316 0.00000000000002677 -1.00000000000000000 0.00000000000000000 0.00000000000000000 1.00000000000000000 354.17021174407386752
2 0.00000000000007211 -0.00000000000000165 0.50000000000000056 -0.86602540378443837 -0.86602540378443837 -0.50000000000000056 354.17021174407392436
1 0.00000000000000000 0.00000000000000000 1.00000000000000000 0.00000000000000000 
1 0.00000000000000000 -3.00000000000000000 1.00000000000000000 0.00000000000000000 
2 0.00000000000000816 0.00000000000012625 -0.50000000000000033 -0.86602540378443860 0.86602540378443860 -0.50000000000000033 354.17021174407386752
1 0.00000000000000000 0.00000000000000000 1.00000000000000000 0.00000000000000000 
1 0.00000000000000000 -3.00000000000000000 1.00000000000000000 0.00000000000000000 
2 0.00000000000007211 -0.00000000000000165 -0.50000000000000056 0.86602540378443837 -0.86602540378443837 -0.50000000000000056 354.17021174407392436
1 0.00000000000000000 0.00000000000000000 1.00000000000000000 0.00000000000000000 
1 0.00000000000000000 -3.00000000000000000 1.00000000000000000 0.00000000000000000 
2 475.83382801608934187 274.72278869461956674 0.50000000000000056 -0.86602540378443837 -0.86602540378443837 -0.50000000000000056 807.44557738923867873
2 -0.00000000000001879 -311.87157890327216592 1.00000000000000000 0.00000000000000000 0.00000000000000000 -1.00000000000000000 2.75000000000000000
1 6.28318530717958623 3.00000000000000000 -1.00000000000000000 0.00000000000000000 
2 -0.00000000000000753 -276.87157890322703224 1.00000000000000000 0.00000000000000000 0.00000000000000000 -1.00000000000000000 2.75000000000000000
1 6.28318530717958623 3.00000000000000000 -1.00000000000000000 0.00000000000000000 
2 0.00000000000000000 0.00000000000000000 -1.00000000000000000 0.00000000000000000 0.00000000000000000 1.00000000000000000 1.69999999999999996
1 0.00000000000000000 0.00000000000000000 1.00000000000000000 0.00000000000000000 
2 117.67512385165430544 132.88647495700161016 -1.00000000000000000 0.00000000000000000 0.00000000000000000 1.00000000000000000 1.70000000000000284
2 14.37406491077558890 177.41867505406759165 -1.00000000000000000 0.00000000000000000 0.00000000000000000 1.00000000000000000 1.69999999999999929
2 160.83611215798663352 -76.26103215865589391 -1.00000000000000000 0.00000000000000000 0.00000000000000000 1.00000000000000000 1.69999999999998863
2 173.92062505795522043 35.46640917051164621 -1.00000000000000000 0.00000000000000000 0.00000000000000000 1.00000000000000000 1.69999999999998863
2 0.00000000000000000 0.00000000000000000 -1.00000000000000000 -0.00000000000000000 -0.00000000000000000 1.00000000000000000 2.75000000000000000
1 0.00000000000000000 0.00000000000000000 1.00000000000000000 0.00000000000000000 
2 -0.00000000000000753 -276.87157890322703224 1.00000000000000000 0.00000000000000000 -0.00000000000000000 1.00000000000000000 2.75000000000000000
2 -0.00000000000001879 -311.87157890327216592 1.00000000000000000 0.00000000000000000 -0.00000000000000000 1.00000000000000000 2.75000000000000000
2 160.83611215798663352 -76.26103215865589391 -1.00000000000000000 0.00000000000000000 -0.00000000000000000 -1.00000000000000000 1.69999999999999996
1 6.28318530717958623 3.00000000000000000 -1.00000000000000000 0.00000000000000000 
2 14.37406491077558890 177.41867505406759165 -1.00000000000000000 0.00000000000000000 -0.00000000000000000 -1.00000000000000000 1.69999999999999996
1 6.28318530717958623 3.00000000000000000 -1.00000000000000000 0.00000000000000000 
2 173.92062505795522043 35.46640917051164621 -1.00000000000000000 0.00000000000000000 -0.00000000000000000 -1.00000000000000000 1.69999999999999996
1 6.28318530717958623 3.00000000000000000 -1.00000000000000000 0.00000000000000000 
2 117.67512385165430544 132.88647495700161016 -1.00000000000000000 0.00000000000000000 -0.00000000000000000 -1.00000000000000000 1.69999999999999996
1 6.28318530717958623 3.00000000000000000 -1.00000000000000000 0.00000000000000000 
1 1.22573129010829085 0.00000000000000000 0.00000000000000000 -1.00000000000000000 
1 1.22573129010829063 0.00000000000000000 0.00000000000000000 -1.00000000000000000 
1 1.57079632679489656 0.00000000000000000 0.00000000000000000 -1.00000000000000000 
1 1.57079632679489656 0.00000000000000000 0.00000000000000000 -1.00000000000000000 
1 1.57079632679489656 0.00000000000000000 0.00000000000000000 -1.00000000000000000 
1 1.57079632679489656 0.00000000000000000 0.00000000000000000 -1.00000000000000000 
1 1.22573129010829085 0.00000000000000000 0.00000000000000000 -1.00000000000000000 
1 1.22573129010829063 0.00000000000000000 0.00000000000000000 -1.00000000000000000 
1 1.22573129010829063 0.00000000000000000 0.00000000000000000 -1.00000000000000000 
1 1.22573129010829085 0.00000000000000000 0.00000000000000000 -1.00000000000000000 
1 0.56455098802180304 0.00000000000000000 0.00000000000000000 -1.00000000000000000 
1 0.56455098802180270 0.00000000000000000 0.00000000000000000 -1.00000000000000000 
1 0.56455098802180270 0.00000000000000000 0.00000000000000000 -1.00000000000000000 
1 0.56455098802180304 0.00000000000000000 0.00000000000000000 -1.00000000000000000 
1 0.52359877559829882 0.00000000000000000 0.00000000000000000 -1.00000000000000000 
1 0.52359877559829882 0.00000000000000000 0.00000000000000000 -1.00000000000000000 
1 0.52359877559829882 0.00000000000000000 0.00000000000000000 -1.00000000000000000 
1 0.52359877559829882 0.00000000000000000 0.00000000000000000 -1.00000000000000000 
1 0.56455098802180270 0.00000000000000000 0.00000000000000000 -1.00000000000000000 
1 0.56455098802180304 0.00000000000000000 0.00000000000000000 -1.00000000000000000 
1 0.56455098802180304 0.00000000000000000 0.00000000000000000 -1.00000000000000000 
1 0.56455098802180270 0.00000000000000000 0.00000000000000000 -1.00000000000000000 
1 1.22573129010829063 0.00000000000000000 0.00000000000000000 -1.00000000000000000 
1 1.22573129010829085 0.00000000000000000 0.00000000000000000 -1.00000000000000000 
1 1.22573129010829085 0.00000000000000000 0.00000000000000000 -1.00000000000000000 
1 1.22573129010829063 0.00000000000000000 0.00000000000000000 -1.00000000000000000 
1 1.57079632679489656 0.00000000000000000 0.00000000000000000 -1.00000000000000000 
1 1.57079632679489656 0.00000000000000000 0.00000000000000000 -1.00000000000000000 
1 6.28318530717958623 0.00000000000000000 0.00000000000000000 1.00000000000000000 
1 0.00000000000000000 0.00000000000000000 0.00000000000000000 1.00000000000000000 
1 6.28318530717958623 0.00000000000000000 0.00000000000000000 1.00000000000000000 
1 0.00000000000000000 0.00000000000000000 0.00000000000000000 1.00000000000000000 
Curves 34
1 306.72040063408178412 177.08510587203676323 0.00000000000000000 0.00000000000000000 0.00000000000000000 1.00000000000000000 
1 299.21323868472643426 189.49400170622564588 0.00000000000000000 0.00000000000000000 0.00000000000000000 1.00000000000000000 
2 0.00000000000000000 0.00000000000000000 0.00000000000000000 0.00000000000000000 0.00000000000000000 1.00000000000000000 1.00000000000000000 0.00000000000000000 -0.00000000000000000 -0.00000000000000000 1.00000000000000000 0.00000000000000000 354.17021174407386752
1 313.71323868472649110 164.37926499647704759 0.00000000000000000 0.00000000000000000 0.00000000000000000 1.00000000000000000 
2 0.00000000000000000 0.00000000000000000 0.00000000000000000 0.00000000000000000 0.00000000000000000 -1.00000000000000000 -1.00000000000000000 -0.00000000000000000 -0.00000000000000000 -0.00000000000000000 1.00000000000000000 0.00000000000000000 354.17021174407386752
1 273.12482999964834107 210.40387328050036331 0.00000000000000000 0.00000000000000000 0.00000000000000000 1.00000000000000000 
2 255.70454913011639064 161.93962032611537438 0.00000000000000000 0.00000000000000000 0.00000000000000000 1.00000000000000000 1.00000000000000000 0.00000000000000000 -0.00000000000000000 -0.00000000000000000 1.00000000000000000 0.00000000000000000 51.50000000000000000
2 -255.70454913011639064 161.93962032611537438 0.00000000000000000 0.00000000000000000 0.00000000000000000 -1.00000000000000000 -1.00000000000000000 -0.00000000000000000 -0.00000000000000000 -0.00000000000000000 1.00000000000000000 0.00000000000000000 51.50000000000000000
2 0.00000000000000000 -549.44557738923845136 0.00000000000000000 0.00000000000000000 0.00000000000000000 1.00000000000000000 1.00000000000000000 0.00000000000000000 -0.00000000000000000 -0.00000000000000000 1.00000000000000000 0.00000000000000000 807.44557738923845136
2 0.00000000000000000 -549.44557738923845136 0.00000000000000000 0.00000000000000000 0.00000000000000000 -1.00000000000000000 -1.00000000000000000 -0.00000000000000000 -0.00000000000000000 -0.00000000000000000 1.00000000000000000 0.00000000000000000 807.44557738923845136
2 -0.00000000000000563 -311.87157890327216592 0.00000000000000000 -0.00000000000000000 -0.00000000000000000 -1.00000000000000000 1.00000000000000000 0.00000000000000000 -0.00000000000000000 0.00000000000000000 -1.00000000000000000 0.00000000000000000 2.75000000000000000
2 0.00000000000000563 -276.87157890322703224 0.00000000000000000 -0.00000000000000000 -0.00000000000000000 -1.00000000000000000 1.00000000000000000 0.00000000000000000 -0.00000000000000000 0.00000000000000000 -1.00000000000000000 0.00000000000000000 2.75000000000000000
2 0.00000000000000000 0.00000000000000000 0.00000000000000000 0.00000000000000000 0.00000000000000000 -1.00000000000000000 -1.00000000000000000 0.00000000000000000 -0.00000000000000000 0.00000000000000000 1.00000000000000000 0.00000000000000000 1.69999999999999996
2 0.00000000000000000 0.00000000000000000 0.00000000000000000 0.00000000000000000 0.00000000000000000 1.00000000000000000 1.00000000000000000 0.00000000000000000 -0.00000000000000000 -0.00000000000000000 1.00000000000000000 -0.00000000000000000 2.75000000000000000
2 160.83611215798663352 -76.26103215865592233 3.00000000000000000 0.00000000000000000 -0.00000000000000000 1.00000000000000000 -1.00000000000000000 0.00000000000000000 0.00000000000000000 -0.00000000000000000 -1.00000000000000000 0.00000000000000000 1.69999999999999996
2 14.37406491077560133 177.41867505406756322 3.00000000000000000 0.00000000000000000 -0.00000000000000000 1.00000000000000000 -1.00000000000000000 0.00000000000000000 0.00000000000000000 -0.00000000000000000 -1.00000000000000000 0.00000000000000000 1.69999999999999996
2 173.92062505795522043 35.46640917051161779 3.00000000000000000 0.00000000000000000 -0.00000000000000000 1.00000000000000000 -1.00000000000000000 0.00000000000000000 0.00000000000000000 -0.00000000000000000 -1.00000000000000000 0.00000000000000000 1.69999999999999996
2 117.67512385165431965 132.88647495700158174 3.00000000000000000 0.00000000000000000 -0.00000000000000000 1.00000000000000000 -1.00000000000000000 0.00000000000000000 0.00000000000000000 -0.00000000000000000 -1.00000000000000000 0.00000000000000000 1.69999999999999996
1 318.77751431537944882 131.33110454375150766 0.00000000000000000 0.00000000000000000 0.00000000000000000 1.00000000000000000 
1 0.00000000000001154 258.00000000000011369 0.00000000000000000 0.00000000000000000 0.00000000000000000 1.00000000000000000 
1 223.43455417638529070 -129.00000000000005684 0.00000000000000000 0.00000000000000000 0.00000000000000000 1.00000000000000000 
1 -273.12482999964839792 210.40387328050039173 0.00000000000000000 0.00000000000000000 0.00000000000000000 1.00000000000000000 
1 45.65268431573093011 -341.73497782425175728 0.00000000000000000 0.00000000000000000 0.00000000000000000 1.00000000000000000 
1 -299.21323868472643426 189.49400170622564588 0.00000000000000000 0.00000000000000000 0.00000000000000000 1.00000000000000000 
1 14.49999999999985079 -353.87326670270255136 0.00000000000000000 0.00000000000000000 0.00000000000000000 1.00000000000000000 
1 -306.72040063408155675 177.08510587203701903 0.00000000000000000 0.00000000000000000 0.00000000000000000 1.00000000000000000 
1 0.00000000000014211 -354.17021174407386752 0.00000000000000000 0.00000000000000000 0.00000000000000000 1.00000000000000000 
1 -313.71323868472654794 164.37926499647682022 0.00000000000000000 0.00000000000000000 0.00000000000000000 1.00000000000000000 
1 -14.49999999999966249 -353.87326670270272189 0.00000000000000000 0.00000000000000000 0.00000000000000000 1.00000000000000000 
1 -318.77751431537944882 131.33110454375125187 0.00000000000000000 0.00000000000000000 0.00000000000000000 1.00000000000000000 
1 -45.65268431573074537 -341.73497782425204150 0.00000000000000000 0.00000000000000000 0.00000000000000000 1.00000000000000000 
1 -223.43455417638517702 -129.00000000000025580 0.00000000000000000 0.00000000000000000 0.00000000000000000 1.00000000000000000 
1 2.75000000000000000 0.00000000000000000 -0.00000000000000000 -0.00000000000000005 -0.00000000000000000 -1.00000000000000000 
1 -1.69999999999999996 0.00000000000000000 -0.00000000000000000 0.00000000000000006 0.00000000000000000 1.00000000000000000 
Polygon3D 0
PolygonOnTriangulations 0
Surfaces 23
2 0.00000000000000000 0.00000000000000000 0.00000000000000000 -0.00000000000000000 -0.00000000000000000 -1.00000000000000000 1.00000000000000000 0.00000000000000000 0.00000000000000000 -0.00000000000000000 1.00000000000000000 -0.00000000000000000 354.17021174407386752
2 0.00000000000002132 0.00000000000009948 0.00000000000000000 0.00000000000000000 -0.00000000000000000 -1.00000000000000000 0.50000000000000033 0.86602540378443860 0.00000000000000000 0.86602540378443860 -0.50000000000000033 0.00000000000000000 354.17021174407386752
2 255.70454913011639064 161.93962032611537438 0.00000000000000000 -0.00000000000000000 -0.00000000000000000 -1.00000000000000000 1.00000000000000000 0.00000000000000000 0.00000000000000000 -0.00000000000000000 1.00000000000000000 -0.00000000000000000 51.50000000000000000
1 0.00000000000001316 -0.00000000000002677 0.00000000000000000 0.00000000000000000 0.00000000000000000 1.00000000000000000 1.00000000000000000 0.00000000000000000 -0.00000000000000000 -0.00000000000000000 1.00000000000000000 0.00000000000000000 
2 268.09609964668106841 140.47682524686922534 0.00000000000000000 0.00000000000000000 -0.00000000000000000 -1.00000000000000000 0.50000000000000033 0.86602540378443860 0.00000000000000000 0.86602540378443860 -0.50000000000000033 0.00000000000000000 51.50000000000000000
2 0.00000000000000000 -549.44557738923845136 0.00000000000000000 -0.00000000000000000 -0.00000000000000000 -1.00000000000000000 1.00000000000000000 0.00000000000000000 0.00000000000000000 -0.00000000000000000 1.00000000000000000 -0.00000000000000000 807.44557738923845136
2 -268.09609964668106841 140.47682524686905481 0.00000000000000000 -0.00000000000000000 -0.00000000000000000 -1.00000000000000000 -0.50000000000000056 0.86602540378443837 0.00000000000000000 -0.86602540378443837 -0.50000000000000056 0.00000000000000000 51.50000000000001421
2 12.39155051656450013 -302.41644557298451446 0.00000000000000000 -0.00000000000000000 -0.00000000000000000 -1.00000000000000000 -0.50000000000000033 -0.86602540378443860 0.00000000000000000 0.86602540378443860 -0.50000000000000033 -0.00000000000000000 51.50000000000000000
2 -255.70454913011639064 161.93962032611537438 0.00000000000000000 0.00000000000000000 0.00000000000000000 -1.00000000000000000 -1.00000000000000000 -0.00000000000000000 -0.00000000000000000 -0.00000000000000000 1.00000000000000000 0.00000000000000000 51.50000000000000000
2 -12.39155051656428341 -302.41644557298468499 0.00000000000000000 -0.00000000000000000 0.00000000000000000 -1.00000000000000000 0.50000000000000056 -0.86602540378443837 -0.00000000000000000 -0.86602540378443837 -0.50000000000000056 0.00000000000000000 51.50000000000001421
2 475.83382801608934187 274.72278869461956674 0.00000000000000000 -0.00000000000000000 -0.00000000000000000 -1.00000000000000000 -0.50000000000000056 0.86602540378443837 0.00000000000000000 -0.86602540378443837 -0.50000000000000056 0.00000000000000000 807.44557738923867873
2 -475.83382801608922819 274.72278869461950990 0.00000000000000000 -0.00000000000000000 -0.00000000000000000 -1.00000000000000000 -0.50000000000000033 -0.86602540378443860 0.00000000000000000 0.86602540378443860 -0.50000000000000033 -0.00000000000000000 807.44557738923845136
2 -475.83382801608922819 274.72278869461950990 0.00000000000000000 0.00000000000000000 -0.00000000000000000 -1.00000000000000000 0.50000000000000033 0.86602540378443860 0.00000000000000000 0.86602540378443860 -0.50000000000000033 0.00000000000000000 807.44557738923845136
2 0.00000000000000000 -549.44557738923845136 0.00000000000000000 0.00000000000000000 0.00000000000000000 -1.00000000000000000 -1.00000000000000000 -0.00000000000000000 -0.00000000000000000 -0.00000000000000000 1.00000000000000000 0.00000000000000000 807.44557738923845136
2 0.00000000000000000 0.00000000000000000 0.00000000000000000 0.00000000000000000 0.00000000000000000 -1.00000000000000000 -1.00000000000000000 -0.00000000000000000 -0.00000000000000000 -0.00000000000000000 1.00000000000000000 0.00000000000000000 354.17021174407386752
2 0.00000000000008527 -0.00000000000002842 0.00000000000000000 -0.00000000000000000 0.00000000000000000 -1.00000000000000000 0.50000000000000056 -0.86602540378443837 -0.00000000000000000 -0.86602540378443837 -0.50000000000000056 0.00000000000000000 354.17021174407392436
2 0.00000000000002132 0.00000000000009948 0.00000000000000000 -0.00000000000000000 -0.00000000000000000 -1.00000000000000000 -0.50000000000000033 -0.86602540378443860 0.00000000000000000 0.86602540378443860 -0.50000000000000033 -0.00000000000000000 354.17021174407386752
2 0.00000000000008527 -0.00000000000002842 0.00000000000000000 -0.00000000000000000 -0.00000000000000000 -1.00000000000000000 -0.50000000000000056 0.86602540378443837 0.00000000000000000 -0.86602540378443837 -0.50000000000000056 0.00000000000000000 354.17021174407392436
2 475.83382801608934187 274.72278869461956674 0.00000000000000000 -0.00000000000000000 0.00000000000000000 -1.00000000000000000 0.50000000000000056 -0.86602540378443837 -0.00000000000000000 -0.86602540378443837 -0.50000000000000056 0.00000000000000000 807.44557738923867873
2 0.00000000000000000 0.00000000000000000 0.00000000000000000 -0.00000000000000000 -0.00000000000000000 -1.00000000000000000 1.00000000000000000 0.00000000000000000 -0.00000000000000000 -0.00000000000000000 1.00000000000000000 -0.00000000000000000 2.75000000000000000
1 0.00000000000000000 0.00000000000000000 0.00000000000000000 0.00000000000000000 0.00000000000000000 -1.00000000000000000 1.00000000000000000 -0.00000000000000000 0.00000000000000000 -0.00000000000000000 1.00000000000000000 0.00000000000000000 
2 0.00000000000000000 0.00000000000000000 0.00000000000000000 -0.00000000000000000 -0.00000000000000000 1.00000000000000000 -1.00000000000000000 0.00000000000000000 0.00000000000000000 0.00000000000000000 1.00000000000000000 0.00000000000000000 1.69999999999999996
1 0.00000000000000000 0.00000000000000000 0.00000000000000000 0.00000000000000000 0.00000000000000000 1.00000000000000000 -1.00000000000000000 -0.00000000000000000 0.00000000000000000 -0.00000000000000000 1.00000000000000000 -0.00000000000000000 
Triangulations 0

TShapes 124
Ve
0.000000100000619
306.720400634081898 177.085105872036706 0.000000000000000
0 0

0101101
*
Ed
 0.000000100000332 1 1 0
1  1 0 0.000000000000000 3.000000000000000
2  1 1 0 0.000000000000000 3.000000000000000
2  2 2 0 0.000000000000000 3.000000000000000
4 C2 1 0 2 0
0

0101000
+124 14 -124 16 *
Ve
0.000000100000028
299.213238684726434 189.494001706225646 0.000000000000000
0 0

0101101
*
Ed
 0.000000100000028 1 1 0
1  2 0 0.000000000000000 3.000000000000000
2  3 1 0 0.000000000000000 3.000000000000000
2  4 3 0 0.000000000000000 3.000000000000000
4 G1 1 0 3 0
0

0101000
+122 14 -122 16 *
Ed
 0.000000100000000 1 1 0
1  3 0 0.523598775598299 0.564550988021803
2  5 1 17 0.523598775598299 0.564550988021803
2  6 1 18 0.523598775598299 0.564550988021803
2  7 4 19 0.523598775598299 0.564550988021803
0

0101000
+124 0 -122 0 *
Wi

0101100
+123 0 -121 0 -120 14 +120 16 *
Fa
0  0.000000100000000 1 0

0111000
+119 0 *
Ve
0.000000100000028
-299.213238684726434 189.494001706225646 0.000000000000000
0 0

0101101
*
Ed
 0.000000100000028 1 1 0
1  4 0 0.000000000000000 3.000000000000000
2  8 5 0 0.000000000000000 3.000000000000000
2  9 2 0 0.000000000000000 3.000000000000000
4 G1 5 0 2 0
0

0101000
+117 24 -117 25 *
Ed
 0.000000100000000 1 1 0
1  5 0 0.523598775598299 0.564550988021803
2  10 2 27 0.523598775598299 0.564550988021803
2  11 2 28 0.523598775598299 0.564550988021803
2  12 4 29 0.523598775598299 0.564550988021803
0

0101000
+124 30 -117 31 *
Wi

0101100
+123 0 -116 0 -115 26 +115 32 *
Fa
0  0.000000100000000 2 0

0111000
+114 0 *
Ve
0.000000100000080
273.124829999648341 210.403873280500363 0.000000000000000
0 0

0101101
*
Ed
 0.000000100000080 1 1 0
1  6 0 0.000000000000000 3.000000000000000
2  13 3 0 0.000000000000000 3.000000000000000
2  14 6 0 0.000000000000000 3.000000000000000
4 G1 3 0 6 0
0

0101000
+112 14 -112 16 *
Ed
 0.000000100000000 1 1 0
1  7 0 0.564550988021803 1.225731290108291
2  15 3 17 0.564550988021803 1.225731290108291
2  16 3 18 0.564550988021803 1.225731290108291
2  17 7 34 0.564550988021803 1.225731290108291
2  18 7 35 0.564550988021803 1.225731290108291
2  19 8 36 0.564550988021803 1.225731290108291
2  20 8 37 0.564550988021803 1.225731290108291
2  21 4 19 0.564550988021803 1.225731290108291
2  22 4 38 0.564550988021803 1.225731290108291
2  23 4 39 0.564550988021803 1.225731290108291
0

0101000
+122 0 -112 0 *
Wi

0101100
+121 0 -111 0 -110 14 +110 16 *
Fa
0  0.000000100000000 3 0

0111000
+109 0 *
Ve
0.000000100000080
-273.124829999648455 210.403873280500335 0.000000000000000
0 0

0101101
*
Ed
 0.000000100000000 1 1 0
1  8 0 0.564550988021803 1.225731290108291
2  24 9 43 0.564550988021803 1.225731290108291
2  25 9 44 0.564550988021803 1.225731290108291
2  26 10 45 0.564550988021803 1.225731290108291
2  27 10 46 0.564550988021803 1.225731290108291
2  28 5 27 0.564550988021803 1.225731290108291
2  29 5 28 0.564550988021803 1.225731290108291
2  30 4 47 0.564550988021803 1.225731290108291
2  31 4 48 0.564550988021803 1.225731290108291
2  32 4 29 0.564550988021803 1.225731290108291
0

0101000
+117 31 -107 31 *
Ve
0.000000100000130
0.000000000000012 258.000000000000227 0.000000000000000
0 0

0101101
*
Ed
 0.000000100000000 1 1 0
1  9 0 1.225731290108291 1.570796326794897
2  33 6 17 1.225731290108291 1.570796326794897
2  34 6 18 1.225731290108291 1.570796326794897
2  35 11 34 1.225731290108291 1.570796326794897
2  36 11 35 1.225731290108291 1.570796326794897
2  37 12 36 1.225731290108291 1.570796326794897
2  38 12 37 1.225731290108291 1.570796326794897
2  39 4 19 1.225731290108291 1.570796326794897
2  40 4 38 1.225731290108291 1.570796326794897
2  41 4 39 1.225731290108291 1.570796326794897
0

0101000
+112 0 -105 0 *
Ed
 0.000000100000000 1 1 0
1  10 0 1.225731290108291 1.570796326794897
2  42 13 27 1.225731290108291 1.570796326794897
2  43 13 28 1.225731290108291 1.570796326794897
2  44 4 29 1.225731290108291 1.570796326794897
0

0101000
+107 31 -105 49 *
Ed
 0.000000100000000 1 1 0
1  10 0 1.225731290108291 1.570796326794897
2  45 14 43 1.225731290108291 1.570796326794897
2  46 14 44 1.225731290108291 1.570796326794897
2  47 4 47 1.225731290108291 1.570796326794897
0

0101000
+107 31 -105 49 *
Ve
0.000000100000619
-306.720400634081500 177.085105872037161 0.000000000000000
0 0

0101101
*
Ed
 0.000000100000000 1 1 0
1  5 0 0.523598775598299 0.564550988021803
2  48 15 43 0.523598775598299 0.564550988021803
2  49 15 44 0.523598775598299 0.564550988021803
2  50 16 45 0.523598775598299 0.564550988021803
2  51 16 46 0.523598775598299 0.564550988021803
2  52 4 47 0.523598775598299 0.564550988021803
2  53 4 48 0.523598775598299 0.564550988021803
0

0101000
+101 31 -117 31 *
Ed
 0.000000100000000 1 1 0
1  3 0 0.523598775598299 0.564550988021803
2  54 17 36 0.523598775598299 0.564550988021803
2  55 17 37 0.523598775598299 0.564550988021803
2  56 4 39 0.523598775598299 0.564550988021803
0

0101000
+101 52 -122 0 *
Ed
 0.000000100000000 1 1 0
1  3 0 0.523598775598299 0.564550988021803
2  57 18 34 0.523598775598299 0.564550988021803
2  58 18 35 0.523598775598299 0.564550988021803
2  59 4 38 0.523598775598299 0.564550988021803
0

0101000
+101 54 -122 0 *
Ed
 0.000000100000000 1 1 0
1  10 0 1.225731290108291 1.570796326794897
2  60 19 45 1.225731290108291 1.570796326794897
2  61 19 46 1.225731290108291 1.570796326794897
2  62 4 48 1.225731290108291 1.570796326794897
0

0101000
+107 31 -105 49 *
Wi

0101100
+120 41 -115 42 +110 41 -106 42 +104 41 -103 42 -102 50 +104 51 -106 50 +110 51 
-100 50 +99 51 +98 53 -100 55 +110 53 -106 55 +104 53 -97 55 *
Ve
0.000000100000000
2.749999999999994 -311.871578903272166 0.000000000000000
0 0

0101101
*
Ed
 0.000000100000000 1 1 0
1  11 0 0.000000000000000 6.283185307179586
2  63 4 40 0.000000000000000 6.283185307179586
2  64 20 56 0.000000000000000 6.283185307179586
0

0101100
+95 0 -95 0 *
Wi

0101100
+94 0 *
Ve
0.000000100000000
2.750000000000006 -276.871578903227032 0.000000000000000
0 0

0101101
*
Ed
 0.000000100000000 1 1 0
1  12 0 0.000000000000000 6.283185307179586
2  65 4 40 0.000000000000000 6.283185307179586
2  66 20 57 0.000000000000000 6.283185307179586
0

0101100
+92 0 -92 0 *
Wi

0101100
+91 0 *
Ve
0.000000100000000
-1.700000000000000 0.000000000000000 -0.000000000000000
0 0

0101101
*
Ed
 0.000000100000000 1 1 0
1  13 0 0.000000000000000 6.283185307179586
2  67 21 0 0.000000000000000 6.283185307179586
2  68 22 0 0.000000000000000 6.283185307179586
2  69 4 61 0.000000000000000 6.283185307179586
2  70 4 63 0.000000000000000 6.283185307179586
2  71 4 64 0.000000000000000 6.283185307179586
2  72 4 66 0.000000000000000 6.283185307179586
0

0101000
+89 0 -89 0 *
Wi

0101100
+88 59 *
Wi

0101100
+88 67 *
Wi

0101100
+88 68 *
Wi

0101100
+88 69 *
Fa
0  0.000000100000000 4 40

0101000
+96 0 +93 0 +90 0 +87 0 +86 0 +85 0 +84 0 *
Wi

0101100
+120 71 -115 72 +110 71 -106 72 +104 71 -103 72 -102 73 +104 74 -106 73 +110 74 
-100 73 +99 74 +98 75 -100 76 +110 75 -106 76 +104 75 -97 76 *
Ve
0.000000100000000
2.750000000000000 0.000000000000000 -0.000000000000000
0 0

0101101
*
Ed
 0.000000100000000 1 1 0
1  14 0 0.000000000000000 6.283185307179586
2  73 23 0 0.000000000000000 6.283185307179586
2  74 20 0 0.000000000000000 6.283185307179586
2  75 4 77 0.000000000000000 6.283185307179586
2  76 4 78 0.000000000000000 6.283185307179586
0

0101000
+81 0 -81 0 *
Wi

0101100
-80 56 *
Wi

0101100
-80 57 *
Ve
0.000000100000000
159.136112157986645 -76.261032158655922 3.000000000000000
0 0

0101101
*
Ed
 0.000000100000000 1 1 0
1  15 0 0.000000000000000 6.283185307179586
2  77 4 80 0.000000000000000 6.283185307179586
2  78 22 58 0.000000000000000 6.283185307179586
0

0101100
+77 0 -77 0 *
Wi

0101100
-76 79 *
Ve
0.000000100000000
12.674064910775602 177.418675054067563 3.000000000000000
0 0

0101101
*
Ed
 0.000000100000000 1 1 0
1  16 0 0.000000000000000 6.283185307179586
2  79 4 80 0.000000000000000 6.283185307179586
2  80 22 62 0.000000000000000 6.283185307179586
0

0101100
+74 0 -74 0 *
Wi

0101100
-73 79 *
Ve
0.000000100000000
172.220625057955232 35.466409170511618 3.000000000000000
0 0

0101101
*
Ed
 0.000000100000000 1 1 0
1  17 0 0.000000000000000 6.283185307179586
2  81 4 80 0.000000000000000 6.283185307179586
2  82 22 65 0.000000000000000 6.283185307179586
0

0101100
+71 0 -71 0 *
Wi

0101100
-70 79 *
Ve
0.000000100000000
115.975123851654317 132.886474957001582 3.000000000000000
0 0

0101101
*
Ed
 0.000000100000000 1 1 0
1  18 0 0.000000000000000 6.283185307179586
2  83 4 80 0.000000000000000 6.283185307179586
2  84 22 60 0.000000000000000 6.283185307179586
0

0101100
+68 0 -68 0 *
Wi

0101100
-67 79 *
Fa
0  0.000000100000000 4 70

0101000
+82 0 +79 0 +78 0 +75 0 +72 0 +69 0 +66 0 *
Ed
 0.000000100000080 1 1 0
1  19 0 0.000000000000000 3.000000000000000
2  85 13 0 0.000000000000000 3.000000000000000
2  86 5 0 0.000000000000000 3.000000000000000
4 G1 13 0 5 0
0

0101000
+107 24 -107 25 *
Wi

0101100
+116 0 -64 0 -106 26 +106 32 *
Fa
0  0.000000100000000 5 0

0111000
+63 0 *
Ed
 0.000000100000060 1 1 0
1  20 0 0.000000000000000 3.000000000000000
2  87 6 0 0.000000000000000 3.000000000000000
2  88 14 0 0.000000000000000 3.000000000000000
4 C2 6 0 14 0
0

0101000
+105 14 -105 16 *
Wi

0101100
+111 0 -61 0 -104 14 +104 16 *
Fa
0  0.000000100000000 6 0

0111000
+60 0 *
Ed
 0.000000100000060 1 1 0
1  21 0 0.000000000000000 3.000000000000000
2  89 12 0 0.000000000000000 3.000000000000000
2  90 13 0 0.000000000000000 3.000000000000000
4 C2 12 0 13 0
0

0101000
+105 81 -105 82 *
Wi

0101100
+64 0 -58 0 -103 26 +103 32 *
Fa
0  0.000000100000000 13 0

0111000
+57 0 *
Ed
 0.000000100000080 1 1 0
1  22 0 0.000000000000000 3.000000000000000
2  91 14 0 0.000000000000000 3.000000000000000
2  92 9 0 0.000000000000000 3.000000000000000
4 G1 14 0 9 0
0

0101000
+107 83 -107 84 *
Wi

0101100
+55 0 -61 0 -102 85 +102 86 *
Fa
0  0.000000100000000 14 0

0111000
+54 0 *
Ed
 0.000000100000080 1 1 0
1  23 0 0.000000000000000 3.000000000000000
2  93 8 0 0.000000000000000 3.000000000000000
2  94 12 0 0.000000000000000 3.000000000000000
4 G1 8 0 12 0
0

0101000
+112 81 -112 82 *
Wi

0101100
+52 0 -58 0 -104 81 +104 82 *
Fa
0  0.000000100000000 12 0

0111000
+51 0 *
Ed
 0.000000100000028 1 1 0
1  24 0 0.000000000000000 3.000000000000000
2  95 9 0 0.000000000000000 3.000000000000000
2  96 15 0 0.000000000000000 3.000000000000000
4 G1 9 0 15 0
0

0101000
+117 83 -117 84 *
Wi

0101100
+49 0 -55 0 -106 85 +106 86 *
Fa
0  0.000000100000000 9 0

0111000
+48 0 *
Ed
 0.000000100000028 1 1 0
1  25 0 0.000000000000000 3.000000000000000
2  97 17 0 0.000000000000000 3.000000000000000
2  98 8 0 0.000000000000000 3.000000000000000
4 G1 17 0 8 0
0

0101000
+122 81 -122 82 *
Wi

0101100
+46 0 -52 0 -110 81 +110 82 *
Fa
0  0.000000100000000 8 0

0111000
+45 0 *
Ed
 0.000000100000332 1 1 0
1  26 0 0.000000000000000 3.000000000000000
2  99 15 0 0.000000000000000 3.000000000000000
2  100 18 0 0.000000000000000 3.000000000000000
4 C2 15 0 18 0
0

0101000
+101 83 -101 84 *
Wi

0101100
+43 0 -49 0 -100 85 +100 86 *
Fa
0  0.000000100000000 15 0

0111000
+42 0 *
Ed
 0.000000100000332 1 1 0
1  27 0 0.000000000000000 3.000000000000000
2  101 16 0 0.000000000000000 3.000000000000000
2  102 17 0 0.000000000000000 3.000000000000000
4 C2 16 0 17 0
0

0101000
+101 87 -101 88 *
Wi

0101100
+40 0 -46 0 -99 81 +99 82 *
Fa
0  0.000000100000000 17 0

0111000
+39 0 *
Ed
 0.000000100000028 1 1 0
1  28 0 0.000000000000000 3.000000000000000
2  103 18 0 0.000000000000000 3.000000000000000
2  104 7 0 0.000000000000000 3.000000000000000
4 G1 18 0 7 0
0

0101000
+122 89 -122 90 *
Wi

0101100
+43 0 -37 0 -98 89 +98 90 *
Fa
0  0.000000100000000 18 0

0111000
+36 0 *
Ed
 0.000000100000028 1 1 0
1  29 0 0.000000000000000 3.000000000000000
2  105 10 0 0.000000000000000 3.000000000000000
2  106 16 0 0.000000000000000 3.000000000000000
4 G1 10 0 16 0
0

0101000
+117 87 -117 88 *
Wi

0101100
+40 0 -34 0 -100 91 +100 92 *
Fa
0  0.000000100000000 16 0

0111000
+33 0 *
Ed
 0.000000100000080 1 1 0
1  30 0 0.000000000000000 3.000000000000000
2  107 7 0 0.000000000000000 3.000000000000000
2  108 11 0 0.000000000000000 3.000000000000000
4 G1 7 0 11 0
0

0101000
+112 89 -112 90 *
Wi

0101100
+37 0 -31 0 -110 89 +110 90 *
Fa
0  0.000000100000000 7 0

0111000
+30 0 *
Ed
 0.000000100000080 1 1 0
1  31 0 0.000000000000000 3.000000000000000
2  109 19 0 0.000000000000000 3.000000000000000
2  110 10 0 0.000000000000000 3.000000000000000
4 G1 19 0 10 0
0

0101000
+107 87 -107 88 *
Wi

0101100
+34 0 -28 0 -106 91 +106 92 *
Fa
0  0.000000100000000 10 0

0111000
+27 0 *
Ed
 0.000000100000060 1 1 0
1  32 0 0.000000000000000 3.000000000000000
2  111 11 0 0.000000000000000 3.000000000000000
2  112 19 0 0.000000000000000 3.000000000000000
4 C2 11 0 19 0
0

0101000
+105 89 -105 90 *
Wi

0101100
+31 0 -25 0 -104 89 +104 90 *
Fa
0  0.000000100000000 11 0

0111000
+24 0 *
Wi

0101100
+28 0 -25 0 -97 91 +97 92 *
Fa
0  0.000000100000000 19 0

0111000
+22 0 *
Ed
 0.000000100000000 1 1 0
1  33 0 0.000000000000000 3.000000000000000
3  113 114CN 20 0 0.000000000000000 3.000000000000000
0

0101000
+81 0 -95 93 *
Wi

0101100
-20 56 +94 0 +20 56 +80 56 *
Fa
0  0.000000100000000 20 56

0111000
+19 0 *
Ed
 0.000000100000000 1 1 0
1  33 0 0.000000000000000 3.000000000000000
3  113 114CN 20 0 0.000000000000000 3.000000000000000
0

0101000
+81 0 -92 94 *
Wi

0101100
-17 57 +91 0 +17 57 +80 57 *
Fa
0  0.000000100000000 20 57

0111000
+16 0 *
Ed
 0.000000100000000 1 1 0
1  34 0 0.000000000000000 3.000000000000000
3  115 116CN 22 0 0.000000000000000 3.000000000000000
0

0101000
+89 0 -77 95 *
Wi

0101100
-14 58 +76 0 +14 58 +88 58 *
Fa
0  0.000000100000000 22 58

0111000
+13 0 *
Ed
 0.000000100000000 1 1 0
1  34 0 0.000000000000000 3.000000000000000
3  115 116CN 22 0 0.000000000000000 3.000000000000000
0

0101000
+89 0 -74 96 *
Wi

0101100
-11 62 +73 0 +11 62 +88 62 *
Fa
0  0.000000100000000 22 62

0111000
+10 0 *
Ed
 0.000000100000000 1 1 0
1  34 0 0.000000000000000 3.000000000000000
3  115 116CN 22 0 0.000000000000000 3.000000000000000
0

0101000
+89 0 -71 97 *
Wi

0101100
-8 65 +70 0 +8 65 +88 65 *
Fa
0  0.000000100000000 22 65

0111000
+7 0 *
Ed
 0.000000100000000 1 1 0
1  34 0 0.000000000000000 3.000000000000000
3  115 116CN 22 0 0.000000000000000 3.000000000000000
0

0101000
+89 0 -68 98 *
Wi

0101100
-5 60 +67 0 +5 60 +88 60 *
Fa
0  0.000000100000000 22 60

0111000
+4 0 *
Sh

0101100
-118 6 +113 6 -108 6 -83 0 +65 0 +62 6 -59 6 +56 6 +53 6 -50 6 
+47 6 -44 6 +41 6 -38 6 -35 6 +32 6 -29 6 +26 6 -23 6 +21 6 
+18 0 +15 0 +12 79 +9 79 +6 79 +3 79 *
So

0100000
+2 0 *

+1 1 