
CASCADE Topology V1, (c) Matra-Datavision
Locations 12
1
1.000000000000000 0.000000000000000 0.000000000000000 0.000000000000000 
0.000000000000000 1.000000000000000 0.000000000000000 0.000000000000000 
0.000000000000000 0.000000000000000 1.000000000000000 0.000000000000000 
1
1.000000000000000 0.000000000000000 0.000000000000000 0.000000000000000 
0.000000000000000 1.000000000000000 0.000000000000000 0.000000000000000 
0.000000000000000 0.000000000000000 1.000000000000000 0.000000000000000 
1
1.000000000000000 0.000000000000000 0.000000000000000 0.000000000000000 
0.000000000000000 1.000000000000000 0.000000000000000 0.000000000000000 
0.000000000000000 0.000000000000000 1.000000000000000 0.000000000000000 
1
1.000000000000000 0.000000000000000 0.000000000000000 0.000000000000000 
0.000000000000000 1.000000000000000 0.000000000000000 0.000000000000000 
0.000000000000000 0.000000000000000 1.000000000000000 380.396636737910740 
2  1 1 2 1 3 -1 4 1 0
1
1.000000000000000 0.000000000000000 0.000000000000000 -0.000000000000000 
0.000000000000000 1.000000000000000 0.000000000000000 -0.000000000000000 
0.000000000000000 0.000000000000000 1.000000000000000 -760.793273475821479 
2  1 1 2 1 3 -1 4 1 6 1 0
2  4 -1 3 1 2 -1 1 -1 0
2  6 -1 4 -1 3 1 2 -1 1 -1 0
2  3 -1 4 1 0
2  1 1 2 1 0
2  3 -1 4 1 6 1 0
Curve2ds 20
1 5.23094010775736074 0.00000000000000000 0.00000000000000000 -1.00000000000000000 
1 0.00000000000000000 0.00000000000000000 0.00000000000000000 -1.00000000000000000 
1 5.75958653160278899 0.00000000000000000 0.00000000000000000 -1.00000000000000000 
1 0.40000000000544861 0.00000000000000000 0.00000000000000000 -1.00000000000000000 
1 0.00000000000000000 0.00000000000000000 1.00000000000000000 0.00000000000000000 
1 -0.00000000000000000 -760.79327347582147922 1.00000000000000000 0.00000000000000000 
1 3.66519142971848533 0.00000000000000000 0.00000000000000000 -1.00000000000000000 
1 0.00000000000000000 0.00000000000000000 0.00000000000000000 -1.00000000000000000 
1 0.00000000000000000 0.00000000000000000 1.00000000000000000 0.00000000000000000 
1 0.00000000000000000 -760.79327347582147922 1.00000000000000000 0.00000000000000000 
1 0.00000000000000000 0.00000000000000000 0.00000000000000000 -1.00000000000000000 
1 0.40000000248138112 0.00000000000000000 0.00000000000000000 -1.00000000000000000 
1 0.00000000000000000 0.00000000000000000 1.00000000000000000 0.00000000000000000 
1 0.00000000000000000 -760.79327347582147922 1.00000000000000000 0.00000000000000000 
1 5.23094010794727460 0.00000000000000000 0.00000000000000000 -1.00000000000000000 
1 -0.00000000000000001 0.00000000000000000 0.00000000000000000 -1.00000000000000000 
1 0.00000000000000000 0.00000000000000000 1.00000000000000000 0.00000000000000000 
1 0.00000000000000000 -760.79327347582147922 1.00000000000000000 0.00000000000000000 
1 0.00000000000000000 0.00000000000000000 1.00000000000000000 0.00000000000000000 
1 0.00000000000000000 -760.79327347582147922 1.00000000000000000 0.00000000000000000 
Curves 10
1 4.53012701899270365 178.75610884943250767 380.39663673791073961 -0.00000000000000000 -0.00000000000000000 -1.00000000000000000 
1 4.33012701898800589 178.40969868791515296 380.39663673791073961 -0.00000000000000000 -0.00000000000000000 -1.00000000000000000 
1 4.53012701899270365 178.75610884943250767 0.00000000000000000 -0.50000000000493361 -0.86602540378159021 0.00000000000000000 
1 -4.33012701758698881 178.40969868552537037 380.39663673791073961 -0.00000000000000000 -0.00000000000000000 -1.00000000000000000 
2 0.00000000001064060 180.90969868782286767 0.00000000000000000 0.00000000000000000 0.00000000000000000 1.00000000000000000 1.00000000000000000 0.00000000000000000 -0.00000000000000000 -0.00000000000000000 1.00000000000000000 0.00000000000000000 5.00000000000163869
1 -4.53012701900687542 178.75610884908462594 380.39663673791073961 -0.00000000000000000 -0.00000000000000000 -1.00000000000000000 
1 -4.33012701758698881 178.40969868552537037 0.00000000000000000 -0.50000000044799020 0.86602540352579149 0.00000000000000000 
1 0.00000000000213608 181.37157890331502585 380.39663673791073961 -0.00000000000000000 -0.00000000000000000 -1.00000000000000000 
1 -4.53012701900687542 178.75610884908462594 0.00000000000000000 0.86602540375609915 0.50000000004908540 0.00000000000000000 
1 0.00000000000213610 181.37157890331502585 0.00000000000000000 0.86602540378401516 -0.50000000000073375 0.00000000000000000 
Polygon3D 0
PolygonOnTriangulations 0
Surfaces 6
1 4.53012701899270365 178.75610884943250767 380.39663673791073961 -0.86602540378159021 0.50000000000493361 0.00000000000000000 -0.50000000000493361 -0.86602540378159021 0.00000000000000000 0.00000000000000000 0.00000000000000000 1.00000000000000000 
1 0.00000000000213610 181.37157890331502585 380.39663673791073961 -0.50000000000073375 -0.86602540378401516 0.00000000000000000 0.86602540378401505 -0.50000000000073364 0.00000000000000000 0.00000000000000000 0.00000000000000000 1.00000000000000000 
2 0.00000000001064060 180.90969868782286767 380.39663673791073961 0.00000000000000000 0.00000000000000000 1.00000000000000000 1.00000000000000000 0.00000000000000000 -0.00000000000000000 -0.00000000000000000 1.00000000000000000 0.00000000000000000 5.00000000000163869
1 -4.33012701758698881 178.40969868552537037 380.39663673791073961 0.86602540352579149 0.50000000044799020 -0.00000000000000000 -0.50000000044799020 0.86602540352579149 0.00000000000000000 0.00000000000000000 0.00000000000000000 1.00000000000000000 
1 -4.53012701900687542 178.75610884908462594 380.39663673791073961 0.50000000004908540 -0.86602540375609915 0.00000000000000000 0.86602540375609915 0.50000000004908540 0.00000000000000000 -0.00000000000000000 0.00000000000000000 1.00000000000000000 
1 0.00000000000883330 178.52147293789138871 0.00000000000000000 0.00000000000000000 0.00000000000000000 1.00000000000000000 1.00000000000000000 0.00000000000000000 -0.00000000000000000 -0.00000000000000000 1.00000000000000000 0.00000000000000000 
Triangulations 0

TShapes 29
Ve
0.000000100000000
4.530127018992704 178.756108849432508 0.000000000000000
0 0

0101101
*
Ed
 0.000000100000000 1 1 0
1  1 0 0.000000000000000 760.793273475821479
2  1 2 0 0.000000000000000 760.793273475821479
2  2 1 0 0.000000000000000 760.793273475821479
0

0101000
+29 5 -29 7 *
Ve
0.000000100000000
4.330127018988006 178.409698687915153 0.000000000000000
0 0

0101101
*
Ed
 0.000000100000000 1 1 0
1  2 0 0.000000000000000 760.793273475821479
2  3 3 0 0.000000000000000 760.793273475821479
4 G1 1 0 3 0
2  4 1 0 0.000000000000000 760.793273475821479
0

0101000
+27 5 -27 7 *
Ed
 0.000000100000000 1 1 0
1  3 0 0.000000000000000 0.400000000005449
2  5 1 8 0.000000000000000 0.400000000005449
2  6 1 9 0.000000000000000 0.400000000005449
0

0101000
+29 0 -27 0 *
Wi

0101100
+28 0 -26 0 -25 5 +25 7 *
Fa
0  0.000000100000000 1 0

0111000
+24 0 *
Ve
0.000000100000000
-4.330127017586989 178.409698685525370 0.000000000000000
0 0

0101101
*
Ed
 0.000000100000000 1 1 0
1  4 0 0.000000000000000 760.793273475821479
2  7 3 0 0.000000000000000 760.793273475821479
4 G1 3 0 4 0
2  8 4 0 0.000000000000000 760.793273475821479
0

0101000
+22 5 -22 7 *
Ed
 0.000000100000000 1 1 0
1  5 0 3.665191429718485 5.759586531602789
2  9 3 8 3.665191429718485 5.759586531602789
2  10 3 9 3.665191429718485 5.759586531602789
0

0101000
+22 0 -27 0 *
Wi

0101100
+21 0 -26 0 -20 5 +20 7 *
Fa
0  0.000000100000000 3 0

0111000
+19 0 *
Ve
0.000000100000000
-4.530127019006875 178.756108849084626 0.000000000000000
0 0

0101101
*
Ed
 0.000000100000000 1 1 0
1  6 0 0.000000000000000 760.793273475821479
2  11 5 0 0.000000000000000 760.793273475821479
2  12 4 0 0.000000000000000 760.793273475821479
0

0101000
+17 5 -17 7 *
Ed
 0.000000100000000 1 1 0
1  7 0 0.000000000000000 0.400000002481381
2  13 4 8 0.000000000000000 0.400000002481381
2  14 4 9 0.000000000000000 0.400000002481381
0

0101000
+22 0 -17 0 *
Wi

0101100
+21 0 -16 0 -15 5 +15 7 *
Fa
0  0.000000100000000 4 0

0111000
+14 0 *
Ve
0.000000100000000
0.000000000002136 181.371578903315026 0.000000000000000
0 0

0101101
*
Ed
 0.000000100000000 1 1 0
1  8 0 0.000000000000000 760.793273475821479
2  15 5 0 0.000000000000000 760.793273475821479
2  16 2 0 0.000000000000000 760.793273475821479
0

0101000
+12 5 -12 7 *
Ed
 0.000000100000000 1 1 0
1  9 0 0.000000000000000 5.230940107947275
2  17 5 8 0.000000000000000 5.230940107947275
2  18 5 9 0.000000000000000 5.230940107947275
0

0101000
+17 0 -12 0 *
Wi

0101100
+16 0 -11 0 -10 5 +10 7 *
Fa
0  0.000000100000000 5 0

0111000
+9 0 *
Ed
 0.000000100000000 1 1 0
1  10 0 0.000000000000000 5.230940107757361
2  19 2 8 0.000000000000000 5.230940107757361
2  20 2 9 0.000000000000000 5.230940107757361
0

0101000
+12 0 -29 0 *
Wi

0101100
+11 0 -28 0 -7 5 +7 7 *
Fa
0  0.000000100000000 2 0

0111000
+6 0 *
Wi

0101100
+25 0 -20 0 +15 0 +10 0 +7 0 *
Fa
0  0.000000100000000 6 0

0111000
-4 11 *
Sh

0101100
-23 0 +18 0 -13 0 -8 0 -5 0 +3 10 -3 12 *
So

1100000
+2 0 *

+1 0 