
CASCADE Topology V1, (c) Matra-Datavision
Locations 63
1
1.000000000000000 0.000000000000000 0.000000000000000 0.000000000000000 
0.000000000000000 1.000000000000000 0.000000000000000 0.000000000000000 
0.000000000000000 0.000000000000000 1.000000000000000 0.000000000000000 
1
1.000000000000000 0.000000000000000 0.000000000000000 0.000000000000000 
0.000000000000000 1.000000000000000 0.000000000000000 0.000000000000000 
0.000000000000000 0.000000000000000 1.000000000000000 0.000000000000000 
1
1.000000000000000 0.000000000000000 0.000000000000000 0.000000000000000 
0.000000000000000 1.000000000000000 0.000000000000000 0.000000000000000 
0.000000000000000 0.000000000000000 1.000000000000000 0.000000000000000 
1
1.000000000000000 0.000000000000000 0.000000000000000 0.000000000000000 
0.000000000000000 1.000000000000000 0.000000000000000 0.000000000000000 
0.000000000000000 0.000000000000000 1.000000000000000 0.000000000000000 
1
1.000000000000000 0.000000000000000 0.000000000000000 0.000000000000000 
0.000000000000000 1.000000000000000 0.000000000000000 0.000000000000000 
0.000000000000000 0.000000000000000 1.000000000000000 0.000000000000000 
1
1.000000000000000 0.000000000000000 0.000000000000000 0.000000000000000 
0.000000000000000 1.000000000000000 0.000000000000000 0.000000000000000 
0.000000000000000 0.000000000000000 1.000000000000000 0.000000000000000 
1
1.000000000000000 0.000000000000000 0.000000000000000 0.000000000000000 
0.000000000000000 1.000000000000000 0.000000000000000 0.000000000000000 
0.000000000000000 0.000000000000000 1.000000000000000 0.000000000000000 
1
1.000000000000000 0.000000000000000 0.000000000000000 0.000000000000000 
0.000000000000000 1.000000000000000 0.000000000000000 0.000000000000000 
0.000000000000000 0.000000000000000 1.000000000000000 0.000000000000000 
2  2 1 3 1 4 1 5 1 6 1 7 1 8 -1 0
1
1.000000000000000 0.000000000000000 0.000000000000000 0.000000000000000 
0.000000000000000 1.000000000000000 0.000000000000000 0.000000000000000 
0.000000000000000 0.000000000000000 1.000000000000000 3.000000000000000 
2  2 1 3 1 4 1 5 1 6 1 7 1 8 -1 10 1 0
2  8 1 7 -1 6 -1 5 -1 4 -1 3 -1 2 -1 0
2  10 -1 8 1 7 -1 6 -1 5 -1 4 -1 3 -1 2 -1 0
2  5 -1 4 -1 3 -1 2 -1 0
1
-0.500000000000001 -0.866025403784439 0.000000000000000 0.000000000000085 
0.866025403784439 -0.500000000000001 0.000000000000000 -0.000000000000028 
0.000000000000000 0.000000000000000 1.000000000000001 0.000000000000000 
2  8 1 7 -1 6 -1 5 -1 15 -1 3 -1 2 -1 0
2  10 -1 8 1 7 -1 6 -1 5 -1 15 -1 3 -1 2 -1 0
1
-0.500000000000000 0.866025403784439 0.000000000000000 0.000000000000021 
-0.866025403784439 -0.500000000000000 0.000000000000000 0.000000000000099 
0.000000000000000 0.000000000000000 1.000000000000000 0.000000000000000 
2  8 1 7 -1 6 -1 5 -1 18 -1 3 -1 2 -1 0
2  10 -1 8 1 7 -1 6 -1 5 -1 18 -1 3 -1 2 -1 0
2  5 -1 15 -1 3 -1 2 -1 0
2  5 -1 18 -1 3 -1 2 -1 0
1
1.000000000000000 0.000000000000000 0.000000000000000 0.000000000000000 
0.000000000000000 1.000000000000000 0.000000000000000 0.000000000000000 
0.000000000000000 0.000000000000000 1.000000000000000 0.000000000000000 
1
1.000000000000000 0.000000000000000 0.000000000000000 0.000000000000000 
0.000000000000000 1.000000000000000 0.000000000000000 0.000000000000000 
0.000000000000000 0.000000000000000 1.000000000000000 0.000000000000000 
1
1.000000000000000 0.000000000000000 0.000000000000000 0.000000000000000 
0.000000000000000 1.000000000000000 0.000000000000000 0.000000000000000 
0.000000000000000 0.000000000000000 1.000000000000000 0.000000000000000 
2  23 -1 24 1 25 1 4 1 5 1 6 1 7 1 8 -1 0
2  23 -1 24 1 25 1 4 1 5 1 6 1 7 1 8 -1 10 1 0
2  24 1 25 1 4 1 5 1 6 1 7 1 8 -1 0
2  8 1 7 -1 6 -1 5 -1 4 -1 25 -1 24 -1 0
2  10 -1 8 1 7 -1 6 -1 5 -1 4 -1 25 -1 24 -1 0
2  5 -1 4 -1 25 -1 24 -1 0
2  23 -1 0
2  2 1 3 1 25 -1 24 -1 0
2  24 1 25 1 4 1 5 1 6 1 7 1 8 -1 10 1 0
2  8 1 7 -1 6 -1 5 -1 15 -1 25 -1 24 -1 0
2  10 -1 8 1 7 -1 6 -1 5 -1 15 -1 25 -1 24 -1 0
2  8 1 7 -1 6 -1 5 -1 18 -1 25 -1 24 -1 0
2  10 -1 8 1 7 -1 6 -1 5 -1 18 -1 25 -1 24 -1 0
2  5 -1 15 -1 25 -1 24 -1 0
2  5 -1 18 -1 25 -1 24 -1 0
2  2 1 3 1 15 1 5 1 6 1 7 1 8 -1 0
2  2 1 3 1 15 1 5 1 6 1 7 1 8 -1 10 1 0
2  23 -1 24 1 25 1 4 1 15 -1 3 -1 2 -1 0
2  23 -1 24 1 25 1 15 1 5 1 6 1 7 1 8 -1 0
2  23 -1 24 1 25 1 15 1 5 1 6 1 7 1 8 -1 10 1 0
2  24 1 25 1 15 1 5 1 6 1 7 1 8 -1 0
2  24 1 25 1 15 1 5 1 6 1 7 1 8 -1 10 1 0
2  2 1 3 1 18 1 5 1 6 1 7 1 8 -1 0
2  2 1 3 1 18 1 5 1 6 1 7 1 8 -1 10 1 0
2  23 -1 24 1 25 1 15 1 18 -1 3 -1 2 -1 0
2  23 -1 24 1 25 1 18 1 5 1 6 1 7 1 8 -1 0
2  23 -1 24 1 25 1 18 1 5 1 6 1 7 1 8 -1 10 1 0
2  24 1 25 1 18 1 5 1 6 1 7 1 8 -1 0
2  24 1 25 1 18 1 5 1 6 1 7 1 8 -1 10 1 0
2  2 1 3 1 4 1 18 -1 25 -1 24 -1 0
2  6 1 7 1 8 -1 0
2  2 1 3 1 4 1 5 1 0
2  24 1 25 1 4 1 5 1 0
2  2 1 3 1 15 1 5 1 0
2  24 1 25 1 15 1 5 1 0
2  2 1 3 1 18 1 5 1 0
2  24 1 25 1 18 1 5 1 0
2  6 1 7 1 8 -1 10 1 0
Curve2ds 90
1 0.52359877559829882 0.00000000000000000 0.00000000000000000 -1.00000000000000000 
1 0.52359877559829882 0.00000000000000000 0.00000000000000000 -1.00000000000000000 
1 0.56455098802180270 0.00000000000000000 0.00000000000000000 -1.00000000000000000 
1 0.56455098802180304 0.00000000000000000 0.00000000000000000 -1.00000000000000000 
1 0.00000000000000000 0.00000000000000000 1.00000000000000000 0.00000000000000000 
1 0.00000000000000000 -3.00000000000000000 1.00000000000000000 0.00000000000000000 
2 -0.00000000000001316 0.00000000000002677 1.00000000000000000 0.00000000000000000 -0.00000000000000000 1.00000000000000000 354.17021174407386752
1 1.22573129010829063 0.00000000000000000 0.00000000000000000 -1.00000000000000000 
1 1.22573129010829085 0.00000000000000000 0.00000000000000000 -1.00000000000000000 
1 0.00000000000000000 0.00000000000000000 1.00000000000000000 0.00000000000000000 
1 0.00000000000000000 -3.00000000000000000 1.00000000000000000 0.00000000000000000 
1 0.00000000000000000 0.00000000000000000 1.00000000000000000 0.00000000000000000 
1 0.00000000000000000 -3.00000000000000000 1.00000000000000000 0.00000000000000000 
1 0.00000000000000000 0.00000000000000000 1.00000000000000000 0.00000000000000000 
1 0.00000000000000000 -3.00000000000000000 1.00000000000000000 0.00000000000000000 
2 255.70454913011639064 161.93962032611540280 1.00000000000000000 0.00000000000000000 -0.00000000000000000 1.00000000000000000 51.50000000000000000
2 -268.09609964668106841 140.47682524686908323 -0.50000000000000056 0.86602540378443837 -0.86602540378443837 -0.50000000000000056 51.50000000000002132
2 12.39155051656448769 -302.41644557298451446 -0.50000000000000033 -0.86602540378443860 0.86602540378443860 -0.50000000000000033 51.50000000000000000
1 1.57079632679489656 0.00000000000000000 0.00000000000000000 -1.00000000000000000 
1 1.57079632679489656 0.00000000000000000 0.00000000000000000 -1.00000000000000000 
1 0.00000000000000000 0.00000000000000000 1.00000000000000000 0.00000000000000000 
1 0.00000000000000000 -3.00000000000000000 1.00000000000000000 0.00000000000000000 
1 0.00000000000000000 0.00000000000000000 1.00000000000000000 0.00000000000000000 
1 0.00000000000000000 -3.00000000000000000 1.00000000000000000 0.00000000000000000 
1 0.00000000000000000 0.00000000000000000 1.00000000000000000 0.00000000000000000 
1 0.00000000000000000 -3.00000000000000000 1.00000000000000000 0.00000000000000000 
2 -0.00000000000001316 -549.44557738923845136 1.00000000000000000 0.00000000000000000 -0.00000000000000000 1.00000000000000000 807.44557738923845136
2 475.83382801608934187 274.72278869461956674 -0.50000000000000056 0.86602540378443837 -0.86602540378443837 -0.50000000000000056 807.44557738923867873
2 -475.83382801608922819 274.72278869461950990 -0.50000000000000033 -0.86602540378443860 0.86602540378443860 -0.50000000000000033 807.44557738923856505
1 1.22573129010829085 0.00000000000000000 0.00000000000000000 -1.00000000000000000 
1 1.22573129010829063 0.00000000000000000 0.00000000000000000 -1.00000000000000000 
1 0.00000000000000000 0.00000000000000000 1.00000000000000000 0.00000000000000000 
1 0.00000000000000000 -3.00000000000000000 1.00000000000000000 0.00000000000000000 
2 -0.00000000000001316 -549.44557738923845136 -1.00000000000000000 0.00000000000000000 0.00000000000000000 1.00000000000000000 807.44557738923845136
1 0.56455098802180304 0.00000000000000000 0.00000000000000000 -1.00000000000000000 
1 0.56455098802180270 0.00000000000000000 0.00000000000000000 -1.00000000000000000 
1 0.00000000000000000 0.00000000000000000 1.00000000000000000 0.00000000000000000 
1 0.00000000000000000 -3.00000000000000000 1.00000000000000000 0.00000000000000000 
1 0.00000000000000000 0.00000000000000000 1.00000000000000000 0.00000000000000000 
1 0.00000000000000000 -3.00000000000000000 1.00000000000000000 0.00000000000000000 
1 0.00000000000000000 0.00000000000000000 1.00000000000000000 0.00000000000000000 
1 0.00000000000000000 -3.00000000000000000 1.00000000000000000 0.00000000000000000 
2 -255.70454913011639064 161.93962032611540280 -1.00000000000000000 0.00000000000000000 0.00000000000000000 1.00000000000000000 51.50000000000000000
2 -12.39155051656429585 -302.41644557298468499 0.50000000000000056 -0.86602540378443837 -0.86602540378443837 -0.50000000000000056 51.50000000000000711
2 268.09609964668106841 140.47682524686925376 0.50000000000000033 0.86602540378443860 0.86602540378443860 -0.50000000000000033 51.49999999999999289
1 0.52359877559829882 0.00000000000000000 0.00000000000000000 -1.00000000000000000 
1 0.52359877559829882 0.00000000000000000 0.00000000000000000 -1.00000000000000000 
1 0.00000000000000000 0.00000000000000000 1.00000000000000000 0.00000000000000000 
1 0.00000000000000000 -3.00000000000000000 1.00000000000000000 0.00000000000000000 
1 0.00000000000000000 0.00000000000000000 1.00000000000000000 0.00000000000000000 
1 0.00000000000000000 -3.00000000000000000 1.00000000000000000 0.00000000000000000 
2 -0.00000000000001316 0.00000000000002677 -1.00000000000000000 0.00000000000000000 0.00000000000000000 1.00000000000000000 354.17021174407386752
2 0.00000000000007211 -0.00000000000000165 0.50000000000000056 -0.86602540378443837 -0.86602540378443837 -0.50000000000000056 354.17021174407392436
1 0.56455098802180270 0.00000000000000000 0.00000000000000000 -1.00000000000000000 
1 0.56455098802180304 0.00000000000000000 0.00000000000000000 -1.00000000000000000 
1 0.00000000000000000 0.00000000000000000 1.00000000000000000 0.00000000000000000 
1 0.00000000000000000 -3.00000000000000000 1.00000000000000000 0.00000000000000000 
2 0.00000000000007211 -0.00000000000000165 -0.50000000000000056 0.86602540378443837 -0.86602540378443837 -0.50000000000000056 354.17021174407392436
1 1.22573129010829063 0.00000000000000000 0.00000000000000000 -1.00000000000000000 
1 1.22573129010829085 0.00000000000000000 0.00000000000000000 -1.00000000000000000 
1 1.57079632679489656 0.00000000000000000 0.00000000000000000 -1.00000000000000000 
1 1.57079632679489656 0.00000000000000000 0.00000000000000000 -1.00000000000000000 
1 1.22573129010829085 0.00000000000000000 0.00000000000000000 -1.00000000000000000 
1 1.22573129010829063 0.00000000000000000 0.00000000000000000 -1.00000000000000000 
1 0.00000000000000000 0.00000000000000000 1.00000000000000000 0.00000000000000000 
1 0.00000000000000000 -3.00000000000000000 1.00000000000000000 0.00000000000000000 
2 475.83382801608934187 274.72278869461956674 0.50000000000000056 -0.86602540378443837 -0.86602540378443837 -0.50000000000000056 807.44557738923867873
1 0.56455098802180304 0.00000000000000000 0.00000000000000000 -1.00000000000000000 
1 0.56455098802180270 0.00000000000000000 0.00000000000000000 -1.00000000000000000 
1 0.52359877559829882 0.00000000000000000 0.00000000000000000 -1.00000000000000000 
1 0.52359877559829882 0.00000000000000000 0.00000000000000000 -1.00000000000000000 
1 0.56455098802180270 0.00000000000000000 0.00000000000000000 -1.00000000000000000 
1 0.56455098802180304 0.00000000000000000 0.00000000000000000 -1.00000000000000000 
1 0.00000000000000000 0.00000000000000000 1.00000000000000000 0.00000000000000000 
1 0.00000000000000000 -3.00000000000000000 1.00000000000000000 0.00000000000000000 
2 0.00000000000000816 0.00000000000012625 -0.50000000000000033 -0.86602540378443860 0.86602540378443860 -0.50000000000000033 354.17021174407386752
1 1.22573129010829063 0.00000000000000000 0.00000000000000000 -1.00000000000000000 
1 1.22573129010829085 0.00000000000000000 0.00000000000000000 -1.00000000000000000 
1 1.57079632679489656 0.00000000000000000 0.00000000000000000 -1.00000000000000000 
1 1.57079632679489656 0.00000000000000000 0.00000000000000000 -1.00000000000000000 
1 1.22573129010829085 0.00000000000000000 0.00000000000000000 -1.00000000000000000 
1 1.22573129010829063 0.00000000000000000 0.00000000000000000 -1.00000000000000000 
1 0.00000000000000000 0.00000000000000000 1.00000000000000000 0.00000000000000000 
1 0.00000000000000000 -3.00000000000000000 1.00000000000000000 0.00000000000000000 
2 -475.83382801608922819 274.72278869461950990 0.50000000000000033 0.86602540378443860 0.86602540378443860 -0.50000000000000033 807.44557738923845136
1 0.56455098802180304 0.00000000000000000 0.00000000000000000 -1.00000000000000000 
1 0.56455098802180270 0.00000000000000000 0.00000000000000000 -1.00000000000000000 
1 0.00000000000000000 0.00000000000000000 1.00000000000000000 0.00000000000000000 
1 0.00000000000000000 -3.00000000000000000 1.00000000000000000 0.00000000000000000 
2 0.00000000000000816 0.00000000000012625 0.50000000000000033 0.86602540378443860 0.86602540378443860 -0.50000000000000033 354.17021174407386752
Curves 24
1 306.72040063408178412 177.08510587203676323 0.00000000000000000 0.00000000000000000 0.00000000000000000 1.00000000000000000 
1 299.21323868472643426 189.49400170622564588 0.00000000000000000 0.00000000000000000 0.00000000000000000 1.00000000000000000 
2 0.00000000000000000 0.00000000000000000 0.00000000000000000 0.00000000000000000 0.00000000000000000 1.00000000000000000 1.00000000000000000 0.00000000000000000 -0.00000000000000000 -0.00000000000000000 1.00000000000000000 0.00000000000000000 354.17021174407386752
1 273.12482999964834107 210.40387328050036331 0.00000000000000000 0.00000000000000000 0.00000000000000000 1.00000000000000000 
2 255.70454913011639064 161.93962032611537438 0.00000000000000000 0.00000000000000000 0.00000000000000000 1.00000000000000000 1.00000000000000000 0.00000000000000000 -0.00000000000000000 -0.00000000000000000 1.00000000000000000 0.00000000000000000 51.50000000000000000
1 0.00000000000001154 258.00000000000011369 0.00000000000000000 0.00000000000000000 0.00000000000000000 1.00000000000000000 
2 0.00000000000000000 -549.44557738923845136 0.00000000000000000 0.00000000000000000 0.00000000000000000 1.00000000000000000 1.00000000000000000 0.00000000000000000 -0.00000000000000000 -0.00000000000000000 1.00000000000000000 0.00000000000000000 807.44557738923845136
1 -273.12482999964839792 210.40387328050039173 0.00000000000000000 0.00000000000000000 0.00000000000000000 1.00000000000000000 
2 0.00000000000000000 -549.44557738923845136 0.00000000000000000 0.00000000000000000 0.00000000000000000 -1.00000000000000000 -1.00000000000000000 -0.00000000000000000 -0.00000000000000000 -0.00000000000000000 1.00000000000000000 0.00000000000000000 807.44557738923845136
1 -299.21323868472643426 189.49400170622564588 0.00000000000000000 0.00000000000000000 0.00000000000000000 1.00000000000000000 
2 -255.70454913011639064 161.93962032611537438 0.00000000000000000 0.00000000000000000 0.00000000000000000 -1.00000000000000000 -1.00000000000000000 -0.00000000000000000 -0.00000000000000000 -0.00000000000000000 1.00000000000000000 0.00000000000000000 51.50000000000000000
1 -306.72040063408155675 177.08510587203701903 0.00000000000000000 0.00000000000000000 0.00000000000000000 1.00000000000000000 
2 0.00000000000000000 0.00000000000000000 0.00000000000000000 0.00000000000000000 0.00000000000000000 -1.00000000000000000 -1.00000000000000000 -0.00000000000000000 -0.00000000000000000 -0.00000000000000000 1.00000000000000000 0.00000000000000000 354.17021174407386752
1 -313.71323868472654794 164.37926499647682022 0.00000000000000000 0.00000000000000000 0.00000000000000000 1.00000000000000000 
1 -318.77751431537944882 131.33110454375125187 0.00000000000000000 0.00000000000000000 0.00000000000000000 1.00000000000000000 
1 -223.43455417638517702 -129.00000000000025580 0.00000000000000000 0.00000000000000000 0.00000000000000000 1.00000000000000000 
1 -45.65268431573074537 -341.73497782425204150 0.00000000000000000 0.00000000000000000 0.00000000000000000 1.00000000000000000 
1 -14.49999999999966249 -353.87326670270272189 0.00000000000000000 0.00000000000000000 0.00000000000000000 1.00000000000000000 
1 0.00000000000014211 -354.17021174407386752 0.00000000000000000 0.00000000000000000 0.00000000000000000 1.00000000000000000 
1 14.49999999999985079 -353.87326670270255136 0.00000000000000000 0.00000000000000000 0.00000000000000000 1.00000000000000000 
1 45.65268431573093011 -341.73497782425175728 0.00000000000000000 0.00000000000000000 0.00000000000000000 1.00000000000000000 
1 223.43455417638529070 -129.00000000000005684 0.00000000000000000 0.00000000000000000 0.00000000000000000 1.00000000000000000 
1 318.77751431537944882 131.33110454375150766 0.00000000000000000 0.00000000000000000 0.00000000000000000 1.00000000000000000 
1 313.71323868472649110 164.37926499647704759 0.00000000000000000 0.00000000000000000 0.00000000000000000 1.00000000000000000 
Polygon3D 0
PolygonOnTriangulations 0
Surfaces 19
2 0.00000000000000000 0.00000000000000000 0.00000000000000000 -0.00000000000000000 -0.00000000000000000 -1.00000000000000000 1.00000000000000000 0.00000000000000000 0.00000000000000000 -0.00000000000000000 1.00000000000000000 -0.00000000000000000 354.17021174407386752
2 0.00000000000002132 0.00000000000009948 0.00000000000000000 0.00000000000000000 -0.00000000000000000 -1.00000000000000000 0.50000000000000033 0.86602540378443860 0.00000000000000000 0.86602540378443860 -0.50000000000000033 0.00000000000000000 354.17021174407386752
2 255.70454913011639064 161.93962032611537438 0.00000000000000000 -0.00000000000000000 -0.00000000000000000 -1.00000000000000000 1.00000000000000000 0.00000000000000000 0.00000000000000000 -0.00000000000000000 1.00000000000000000 -0.00000000000000000 51.50000000000000000
1 0.00000000000001316 -0.00000000000002677 0.00000000000000000 0.00000000000000000 0.00000000000000000 1.00000000000000000 1.00000000000000000 0.00000000000000000 -0.00000000000000000 -0.00000000000000000 1.00000000000000000 0.00000000000000000 
2 0.00000000000000000 -549.44557738923845136 0.00000000000000000 -0.00000000000000000 -0.00000000000000000 -1.00000000000000000 1.00000000000000000 0.00000000000000000 0.00000000000000000 -0.00000000000000000 1.00000000000000000 -0.00000000000000000 807.44557738923845136
2 -268.09609964668106841 140.47682524686905481 0.00000000000000000 -0.00000000000000000 -0.00000000000000000 -1.00000000000000000 -0.50000000000000056 0.86602540378443837 0.00000000000000000 -0.86602540378443837 -0.50000000000000056 0.00000000000000000 51.50000000000001421
2 12.39155051656450013 -302.41644557298451446 0.00000000000000000 -0.00000000000000000 -0.00000000000000000 -1.00000000000000000 -0.50000000000000033 -0.86602540378443860 0.00000000000000000 0.86602540378443860 -0.50000000000000033 -0.00000000000000000 51.50000000000000000
2 0.00000000000000000 -549.44557738923845136 0.00000000000000000 0.00000000000000000 0.00000000000000000 -1.00000000000000000 -1.00000000000000000 -0.00000000000000000 -0.00000000000000000 -0.00000000000000000 1.00000000000000000 0.00000000000000000 807.44557738923845136
2 475.83382801608934187 274.72278869461956674 0.00000000000000000 -0.00000000000000000 -0.00000000000000000 -1.00000000000000000 -0.50000000000000056 0.86602540378443837 0.00000000000000000 -0.86602540378443837 -0.50000000000000056 0.00000000000000000 807.44557738923867873
2 -475.83382801608922819 274.72278869461950990 0.00000000000000000 -0.00000000000000000 -0.00000000000000000 -1.00000000000000000 -0.50000000000000033 -0.86602540378443860 0.00000000000000000 0.86602540378443860 -0.50000000000000033 -0.00000000000000000 807.44557738923845136
2 -255.70454913011639064 161.93962032611537438 0.00000000000000000 0.00000000000000000 0.00000000000000000 -1.00000000000000000 -1.00000000000000000 -0.00000000000000000 -0.00000000000000000 -0.00000000000000000 1.00000000000000000 0.00000000000000000 51.50000000000000000
2 0.00000000000000000 0.00000000000000000 0.00000000000000000 0.00000000000000000 0.00000000000000000 -1.00000000000000000 -1.00000000000000000 -0.00000000000000000 -0.00000000000000000 -0.00000000000000000 1.00000000000000000 0.00000000000000000 354.17021174407386752
2 -12.39155051656428341 -302.41644557298468499 0.00000000000000000 -0.00000000000000000 0.00000000000000000 -1.00000000000000000 0.50000000000000056 -0.86602540378443837 -0.00000000000000000 -0.86602540378443837 -0.50000000000000056 0.00000000000000000 51.50000000000001421
2 268.09609964668106841 140.47682524686922534 0.00000000000000000 0.00000000000000000 -0.00000000000000000 -1.00000000000000000 0.50000000000000033 0.86602540378443860 0.00000000000000000 0.86602540378443860 -0.50000000000000033 0.00000000000000000 51.50000000000000000
2 0.00000000000008527 -0.00000000000002842 0.00000000000000000 -0.00000000000000000 -0.00000000000000000 -1.00000000000000000 -0.50000000000000056 0.86602540378443837 0.00000000000000000 -0.86602540378443837 -0.50000000000000056 0.00000000000000000 354.17021174407392436
2 0.00000000000008527 -0.00000000000002842 0.00000000000000000 -0.00000000000000000 0.00000000000000000 -1.00000000000000000 0.50000000000000056 -0.86602540378443837 -0.00000000000000000 -0.86602540378443837 -0.50000000000000056 0.00000000000000000 354.17021174407392436
2 475.83382801608934187 274.72278869461956674 0.00000000000000000 -0.00000000000000000 0.00000000000000000 -1.00000000000000000 0.50000000000000056 -0.86602540378443837 -0.00000000000000000 -0.86602540378443837 -0.50000000000000056 0.00000000000000000 807.44557738923867873
2 0.00000000000002132 0.00000000000009948 0.00000000000000000 -0.00000000000000000 -0.00000000000000000 -1.00000000000000000 -0.50000000000000033 -0.86602540378443860 0.00000000000000000 0.86602540378443860 -0.50000000000000033 -0.00000000000000000 354.17021174407386752
2 -475.83382801608922819 274.72278869461950990 0.00000000000000000 0.00000000000000000 -0.00000000000000000 -1.00000000000000000 0.50000000000000033 0.86602540378443860 0.00000000000000000 0.86602540378443860 -0.50000000000000033 0.00000000000000000 807.44557738923845136
Triangulations 0

TShapes 76
Ve
0.000000100000619
306.720400634081898 177.085105872036706 0.000000000000000
0 0

0101101
*
Ed
 0.000000100000332 1 1 0
1  1 0 0.000000000000000 3.000000000000000
2  1 1 0 0.000000000000000 3.000000000000000
2  2 2 0 0.000000000000000 3.000000000000000
4 C2 1 0 2 0
0

0101000
+76 9 -76 11 *
Ve
0.000000100000028
299.213238684726434 189.494001706225646 0.000000000000000
0 0

0101101
*
Ed
 0.000000100000028 1 1 0
1  2 0 0.000000000000000 3.000000000000000
2  3 1 0 0.000000000000000 3.000000000000000
2  4 3 0 0.000000000000000 3.000000000000000
4 G1 1 0 3 0
0

0101000
+74 9 -74 11 *
Ed
 0.000000100000000 1 1 0
1  3 0 0.523598775598299 0.564550988021803
2  5 1 12 0.523598775598299 0.564550988021803
2  6 1 13 0.523598775598299 0.564550988021803
2  7 4 14 0.523598775598299 0.564550988021803
0

0101000
+76 0 -74 0 *
Wi

0101100
+75 0 -73 0 -72 9 +72 11 *
Fa
0  0.000000100000000 1 0

0101000
+71 0 *
Ve
0.000000100000080
273.124829999648341 210.403873280500363 0.000000000000000
0 0

0101101
*
Ed
 0.000000100000080 1 1 0
1  4 0 0.000000000000000 3.000000000000000
2  8 3 0 0.000000000000000 3.000000000000000
2  9 5 0 0.000000000000000 3.000000000000000
4 G1 3 0 5 0
0

0101000
+69 9 -69 11 *
Ed
 0.000000100000000 1 1 0
1  5 0 0.564550988021803 1.225731290108291
2  10 3 12 0.564550988021803 1.225731290108291
2  11 3 13 0.564550988021803 1.225731290108291
2  12 6 16 0.564550988021803 1.225731290108291
2  13 6 17 0.564550988021803 1.225731290108291
2  14 7 19 0.564550988021803 1.225731290108291
2  15 7 20 0.564550988021803 1.225731290108291
2  16 4 14 0.564550988021803 1.225731290108291
2  17 4 21 0.564550988021803 1.225731290108291
2  18 4 22 0.564550988021803 1.225731290108291
0

0101000
+74 0 -69 0 *
Wi

0101100
+73 0 -68 0 -67 9 +67 11 *
Fa
0  0.000000100000000 3 0

0101000
+66 0 *
Ve
0.000000100000130
0.000000000000012 258.000000000000227 0.000000000000000
0 0

0101101
*
Ed
 0.000000100000060 1 1 0
1  6 0 0.000000000000000 3.000000000000000
2  19 5 0 0.000000000000000 3.000000000000000
2  20 8 0 0.000000000000000 3.000000000000000
4 C2 5 0 8 0
0

0101000
+64 9 -64 11 *
Ed
 0.000000100000000 1 1 0
1  7 0 1.225731290108291 1.570796326794897
2  21 5 12 1.225731290108291 1.570796326794897
2  22 5 13 1.225731290108291 1.570796326794897
2  23 9 16 1.225731290108291 1.570796326794897
2  24 9 17 1.225731290108291 1.570796326794897
2  25 10 19 1.225731290108291 1.570796326794897
2  26 10 20 1.225731290108291 1.570796326794897
2  27 4 14 1.225731290108291 1.570796326794897
2  28 4 21 1.225731290108291 1.570796326794897
2  29 4 22 1.225731290108291 1.570796326794897
0

0101000
+69 0 -64 0 *
Wi

0101100
+68 0 -63 0 -62 9 +62 11 *
Fa
0  0.000000100000000 5 0

0101000
+61 0 *
Ve
0.000000100000080
-273.124829999648455 210.403873280500335 0.000000000000000
0 0

0101101
*
Ed
 0.000000100000080 1 1 0
1  8 0 0.000000000000000 3.000000000000000
2  30 8 0 0.000000000000000 3.000000000000000
2  31 11 0 0.000000000000000 3.000000000000000
4 G1 8 0 11 0
0

0101000
+59 26 -59 27 *
Ed
 0.000000100000000 1 1 0
1  9 0 1.225731290108291 1.570796326794897
2  32 8 29 1.225731290108291 1.570796326794897
2  33 8 30 1.225731290108291 1.570796326794897
2  34 4 31 1.225731290108291 1.570796326794897
0

0101000
+59 32 -64 33 *
Wi

0101100
+58 0 -63 0 -57 28 +57 34 *
Fa
0  0.000000100000000 8 0

0101000
+56 0 *
Ve
0.000000100000028
-299.213238684726434 189.494001706225646 0.000000000000000
0 0

0101101
*
Ed
 0.000000100000028 1 1 0
1  10 0 0.000000000000000 3.000000000000000
2  35 11 0 0.000000000000000 3.000000000000000
2  36 12 0 0.000000000000000 3.000000000000000
4 G1 11 0 12 0
0

0101000
+54 26 -54 27 *
Ed
 0.000000100000000 1 1 0
1  11 0 0.564550988021803 1.225731290108291
2  37 11 29 0.564550988021803 1.225731290108291
2  38 11 30 0.564550988021803 1.225731290108291
2  39 13 35 0.564550988021803 1.225731290108291
2  40 13 36 0.564550988021803 1.225731290108291
2  41 14 37 0.564550988021803 1.225731290108291
2  42 14 38 0.564550988021803 1.225731290108291
2  43 4 31 0.564550988021803 1.225731290108291
2  44 4 39 0.564550988021803 1.225731290108291
2  45 4 40 0.564550988021803 1.225731290108291
0

0101000
+54 32 -59 32 *
Wi

0101100
+53 0 -58 0 -52 28 +52 34 *
Fa
0  0.000000100000000 11 0

0101000
+51 0 *
Ve
0.000000100000619
-306.720400634081500 177.085105872037161 0.000000000000000
0 0

0101101
*
Ed
 0.000000100000332 1 1 0
1  12 0 0.000000000000000 3.000000000000000
2  46 12 0 0.000000000000000 3.000000000000000
2  47 15 0 0.000000000000000 3.000000000000000
4 C2 12 0 15 0
0

0101000
+49 26 -49 27 *
Ed
 0.000000100000000 1 1 0
1  13 0 0.523598775598299 0.564550988021803
2  48 12 29 0.523598775598299 0.564550988021803
2  49 12 30 0.523598775598299 0.564550988021803
2  50 16 35 0.523598775598299 0.564550988021803
2  51 16 36 0.523598775598299 0.564550988021803
2  52 4 31 0.523598775598299 0.564550988021803
2  53 4 39 0.523598775598299 0.564550988021803
0

0101000
+49 32 -54 32 *
Wi

0101100
+48 0 -53 0 -47 28 +47 34 *
Fa
0  0.000000100000000 12 0

0101000
+46 0 *
Ed
 0.000000100000028 1 1 0
1  14 0 0.000000000000000 3.000000000000000
2  54 15 0 0.000000000000000 3.000000000000000
2  55 6 0 0.000000000000000 3.000000000000000
4 G1 15 0 6 0
0

0101000
+74 41 -74 42 *
Ed
 0.000000100000000 1 1 0
1  3 0 0.523598775598299 0.564550988021803
2  56 15 16 0.523598775598299 0.564550988021803
2  57 15 17 0.523598775598299 0.564550988021803
2  58 4 21 0.523598775598299 0.564550988021803
0

0101000
+49 43 -74 0 *
Wi

0101100
+48 0 -44 0 -43 41 +43 42 *
Fa
0  0.000000100000000 15 0

0101000
+42 0 *
Ed
 0.000000100000080 1 1 0
1  15 0 0.000000000000000 3.000000000000000
2  59 6 0 0.000000000000000 3.000000000000000
2  60 9 0 0.000000000000000 3.000000000000000
4 G1 6 0 9 0
0

0101000
+69 41 -69 42 *
Wi

0101100
+44 0 -40 0 -67 41 +67 42 *
Fa
0  0.000000100000000 6 0

0101000
+39 0 *
Ed
 0.000000100000060 1 1 0
1  16 0 0.000000000000000 3.000000000000000
2  61 9 0 0.000000000000000 3.000000000000000
2  62 17 0 0.000000000000000 3.000000000000000
4 C2 9 0 17 0
0

0101000
+64 41 -64 42 *
Wi

0101100
+40 0 -37 0 -62 41 +62 42 *
Fa
0  0.000000100000000 9 0

0101000
+36 0 *
Ed
 0.000000100000080 1 1 0
1  17 0 0.000000000000000 3.000000000000000
2  63 17 0 0.000000000000000 3.000000000000000
2  64 13 0 0.000000000000000 3.000000000000000
4 G1 17 0 13 0
0

0101000
+59 44 -59 45 *
Ed
 0.000000100000000 1 1 0
1  9 0 1.225731290108291 1.570796326794897
2  65 17 35 1.225731290108291 1.570796326794897
2  66 17 36 1.225731290108291 1.570796326794897
2  67 4 39 1.225731290108291 1.570796326794897
0

0101000
+59 32 -64 33 *
Wi

0101100
+34 0 -37 0 -33 46 +33 47 *
Fa
0  0.000000100000000 17 0

0101000
+32 0 *
Ed
 0.000000100000028 1 1 0
1  18 0 0.000000000000000 3.000000000000000
2  68 13 0 0.000000000000000 3.000000000000000
2  69 16 0 0.000000000000000 3.000000000000000
4 G1 13 0 16 0
0

0101000
+54 44 -54 45 *
Wi

0101100
+30 0 -34 0 -52 46 +52 47 *
Fa
0  0.000000100000000 13 0

0101000
+29 0 *
Ed
 0.000000100000332 1 1 0
1  19 0 0.000000000000000 3.000000000000000
2  70 16 0 0.000000000000000 3.000000000000000
2  71 18 0 0.000000000000000 3.000000000000000
4 C2 16 0 18 0
0

0101000
+49 44 -49 45 *
Wi

0101100
+27 0 -30 0 -47 46 +47 47 *
Fa
0  0.000000100000000 16 0

0101000
+26 0 *
Ed
 0.000000100000028 1 1 0
1  20 0 0.000000000000000 3.000000000000000
2  72 18 0 0.000000000000000 3.000000000000000
2  73 7 0 0.000000000000000 3.000000000000000
4 G1 18 0 7 0
0

0101000
+74 48 -74 49 *
Ed
 0.000000100000000 1 1 0
1  3 0 0.523598775598299 0.564550988021803
2  74 18 19 0.523598775598299 0.564550988021803
2  75 18 20 0.523598775598299 0.564550988021803
2  76 4 22 0.523598775598299 0.564550988021803
0

0101000
+49 50 -74 0 *
Wi

0101100
+27 0 -24 0 -23 48 +23 49 *
Fa
0  0.000000100000000 18 0

0101000
+22 0 *
Ed
 0.000000100000080 1 1 0
1  21 0 0.000000000000000 3.000000000000000
2  77 7 0 0.000000000000000 3.000000000000000
2  78 10 0 0.000000000000000 3.000000000000000
4 G1 7 0 10 0
0

0101000
+69 48 -69 49 *
Wi

0101100
+24 0 -20 0 -67 48 +67 49 *
Fa
0  0.000000100000000 7 0

0101000
+19 0 *
Ed
 0.000000100000060 1 1 0
1  22 0 0.000000000000000 3.000000000000000
2  79 10 0 0.000000000000000 3.000000000000000
2  80 19 0 0.000000000000000 3.000000000000000
4 C2 10 0 19 0
0

0101000
+64 48 -64 49 *
Wi

0101100
+20 0 -17 0 -62 48 +62 49 *
Fa
0  0.000000100000000 10 0

0101000
+16 0 *
Ed
 0.000000100000080 1 1 0
1  23 0 0.000000000000000 3.000000000000000
2  81 19 0 0.000000000000000 3.000000000000000
2  82 14 0 0.000000000000000 3.000000000000000
4 G1 19 0 14 0
0

0101000
+59 51 -59 52 *
Ed
 0.000000100000000 1 1 0
1  9 0 1.225731290108291 1.570796326794897
2  83 19 37 1.225731290108291 1.570796326794897
2  84 19 38 1.225731290108291 1.570796326794897
2  85 4 40 1.225731290108291 1.570796326794897
0

0101000
+59 32 -64 33 *
Wi

0101100
+14 0 -17 0 -13 53 +13 54 *
Fa
0  0.000000100000000 19 0

0101000
+12 0 *
Ed
 0.000000100000028 1 1 0
1  24 0 0.000000000000000 3.000000000000000
2  86 14 0 0.000000000000000 3.000000000000000
2  87 2 0 0.000000000000000 3.000000000000000
4 G1 14 0 2 0
0

0101000
+54 51 -54 52 *
Wi

0101100
+10 0 -14 0 -52 53 +52 54 *
Fa
0  0.000000100000000 14 0

0101000
+9 0 *
Ed
 0.000000100000000 1 1 0
1  13 0 0.523598775598299 0.564550988021803
2  88 2 37 0.523598775598299 0.564550988021803
2  89 2 38 0.523598775598299 0.564550988021803
2  90 4 40 0.523598775598299 0.564550988021803
0

0101000
+76 55 -54 32 *
Wi

0101100
+75 0 -10 0 -7 53 +7 54 *
Fa
0  0.000000100000000 2 0

0101000
+6 0 *
Wi

0101100
+72 57 +67 57 +62 57 -57 58 -52 58 -47 58 +43 59 +67 59 +62 59 -33 60 
-52 60 -47 60 +23 61 +67 61 +62 61 -13 62 -52 62 -7 62 *
Fa
0  0.000000100000000 4 0

0101000
+4 0 *
Sh

0101100
+70 0 +65 0 +60 0 -55 0 -50 0 -45 0 +41 0 +38 0 +35 0 -31 0 
-28 0 -25 0 +21 0 +18 0 +15 0 -11 0 -8 0 -5 0 +3 56 -3 63 
*
So

1100000
-2 0 *

+1 1 