
CASCADE Topology V1, (c) Matra-Datavision
Locations 16
1
1.000000000000000 0.000000000000000 0.000000000000000 43.000000000000000 
0.000000000000000 1.000000000000000 0.000000000000000 0.000000000000016 
0.000000000000000 0.000000000000000 1.000000000000000 71.333333333333329 
1
1.000000000000000 0.000000000000000 0.000000000000000 0.000000000000000 
0.000000000000000 1.000000000000000 0.000000000000000 0.000000000000000 
0.000000000000000 0.000000000000000 1.000000000000000 0.000000000000000 
1
1.000000000000000 0.000000000000000 0.000000000000000 0.000000000000000 
0.000000000000000 1.000000000000000 0.000000000000000 0.000000000000000 
0.000000000000000 0.000000000000000 1.000000000000000 0.000000000000000 
1
1.000000000000000 0.000000000000000 0.000000000000000 0.000000000000000 
0.000000000000000 1.000000000000000 0.000000000000000 0.000000000000000 
0.000000000000000 0.000000000000000 1.000000000000000 0.000000000000000 
1
1.000000000000000 0.000000000000000 0.000000000000000 0.000000000000000 
0.000000000000000 1.000000000000000 0.000000000000000 0.000000000000000 
0.000000000000000 0.000000000000000 1.000000000000000 0.000000000000000 
1
1.000000000000000 0.000000000000000 0.000000000000000 0.000000000000000 
0.000000000000000 1.000000000000000 0.000000000000000 0.000000000000000 
0.000000000000000 0.000000000000000 1.000000000000000 0.000000000000000 
1
1.000000000000000 0.000000000000000 0.000000000000000 0.000000000000000 
0.000000000000000 1.000000000000000 0.000000000000000 0.000000000000000 
0.000000000000000 0.000000000000000 1.000000000000000 0.000000000000000 
1
1.000000000000000 0.000000000000000 0.000000000000000 0.000000000000000 
0.000000000000000 1.000000000000000 0.000000000000000 0.000000000000000 
0.000000000000000 0.000000000000000 1.000000000000000 0.000000000000000 
1
1.000000000000000 0.000000000000000 0.000000000000000 0.000000000000000 
0.000000000000000 1.000000000000000 0.000000000000000 0.000000000000000 
0.000000000000000 0.000000000000000 1.000000000000000 0.000000000000000 
2  2 1 3 -1 4 1 5 -1 6 1 7 -1 8 1 9 -1 1 -1 0
1
1.000000000000000 0.000000000000000 0.000000000000000 43.000000000000000 
0.000000000000000 1.000000000000000 0.000000000000000 0.000000000000009 
0.000000000000000 0.000000000000000 1.000000000000000 42.666666666666664 
2  2 1 3 -1 4 1 5 -1 6 1 7 -1 8 1 9 -1 11 -1 0
1
1.000000000000000 0.000000000000000 0.000000000000000 43.000000000000000 
0.000000000000000 1.000000000000000 0.000000000000000 0.000000000000022 
0.000000000000000 0.000000000000000 1.000000000000000 100.000000000000000 
2  2 1 3 -1 4 1 5 -1 6 1 7 -1 8 1 9 -1 13 -1 0
1
1.000000000000000 0.000000000000000 0.000000000000000 43.000000000000000 
0.000000000000000 1.000000000000000 0.000000000000000 0.000000000000003 
0.000000000000000 0.000000000000000 1.000000000000000 14.000000000000000 
2  2 1 3 -1 4 1 5 -1 6 1 7 -1 8 1 9 -1 15 -1 0
Curve2ds 13
2 0.00000000000000000 0.00000000000000000 -1.00000000000000000 0.00000000000000000 0.00000000000000000 1.00000000000000000 1.69999999999999996
1 0.00000000000000000 0.00000000000000000 1.00000000000000000 0.00000000000000000 
2 38.66666666666667851 -93.50000000000001421 0.00000000000000022 -1.00000000000000000 1.00000000000000000 0.00000000000000022 1.70000000000000284
2 67.33333333333332860 -93.50000000000001421 0.00000000000000022 -1.00000000000000000 1.00000000000000000 0.00000000000000022 1.70000000000000284
2 10.00000000000000711 -93.50000000000002842 0.00000000000000022 -1.00000000000000000 1.00000000000000000 0.00000000000000022 1.70000000000000284
2 96.00000000000000000 -93.50000000000001421 0.00000000000000022 -1.00000000000000000 1.00000000000000000 0.00000000000000022 1.70000000000000284
1 0.00000000000000000 305.85494993542454267 1.00000000000000000 0.00000000000000000 
1 0.00000000000000000 0.00000000000000000 1.00000000000000000 0.00000000000000000 
1 6.28318530717958623 0.00000000000000000 0.00000000000000000 1.00000000000000000 
1 0.00000000000000000 0.00000000000000000 0.00000000000000000 1.00000000000000000 
1 0.00000000000000000 1.98327677526604962 1.00000000000000000 0.00000000000000000 
1 6.28318530717958623 0.00000000000000000 0.00000000000000000 1.00000000000000000 
1 0.00000000000000000 0.00000000000000000 0.00000000000000000 1.00000000000000000 
Curves 4
2 0.00000000000000000 0.00000000000000000 0.00000000000000000 0.00000000000000000 1.00000000000000000 -0.00000000000000022 1.00000000000000000 -0.00000000000000000 0.00000000000000000 0.00000000000000000 -0.00000000000000022 -1.00000000000000000 1.69999999999999996
2 0.00000000000000000 -305.85494993542454267 0.00000000000006791 0.00000000000000000 1.00000000000000000 -0.00000000000000022 1.00000000000000000 0.00000000000000000 0.00000000000000000 0.00000000000000000 -0.00000000000000022 -1.00000000000000000 1.69999999999998130
1 1.69999999999999996 -0.00000000000000000 0.00000000000000000 -0.00000000000000006 -1.00000000000000000 0.00000000000000022 
1 1.69999999999998130 -305.85494993542454267 0.00000000000006791 -0.85716730070210823 -0.51503807491006115 0.00000000000000011 
Polygon3D 0
PolygonOnTriangulations 0
Surfaces 4
1 0.00000000000000000 0.00000000000000000 0.00000000000000000 0.00000000000000000 1.00000000000000000 -0.00000000000000022 -1.00000000000000000 0.00000000000000000 -0.00000000000000000 -0.00000000000000000 -0.00000000000000022 -1.00000000000000000 
2 0.00000000000000000 0.00000000000000000 0.00000000000000000 -0.00000000000000000 -1.00000000000000000 0.00000000000000022 1.00000000000000000 0.00000000000000000 0.00000000000000000 0.00000000000000000 -0.00000000000000022 -1.00000000000000000 1.69999999999999996
1 -50.50000000000002132 0.00000000000003564 109.99999999999998579 0.00000000000000022 1.00000000000000000 -0.00000000000000022 0.00000000000000022 -0.00000000000000022 -1.00000000000000000 -1.00000000000000000 0.00000000000000022 -0.00000000000000022 
3 0.00000000000000000 -305.85494993542454267 0.00000000000006791 -0.00000000000000000 -1.00000000000000000 0.00000000000000022 1.00000000000000000 0.00000000000000000 0.00000000000000000 0.00000000000000000 -0.00000000000000022 -1.00000000000000000 1.69999999999998130
-1.02974425867664654
Triangulations 0

TShapes 17
Ve
0.001000000000010
1.700000000000000 -0.000000000000000 0.000000000000000
0 0

0101101
*
Ed
 0.001000000000010 1 1 0
1  1 0 0.000000000000000 6.283185307179586
2  1 1 0 0.000000000000000 6.283185307179586
2  2 2 0 0.000000000000000 6.283185307179586
2  3 3 10 0.000000000000000 6.283185307179586
2  4 3 12 0.000000000000000 6.283185307179586
2  5 3 14 0.000000000000000 6.283185307179586
2  6 3 16 0.000000000000000 6.283185307179586
0

0101000
+17 0 -17 0 *
Wi

0101100
-16 0 *
Fa
0  0.000000100000000 1 0

0111000
+15 0 *
Ve
0.000000100000000
1.699999999999981 -305.854949935424543 0.000000000000068
0 0

0101101
*
Ed
 0.000000100000000 1 1 0
1  2 0 0.000000000000000 6.283185307179586
2  7 2 0 0.000000000000000 6.283185307179586
2  8 4 0 0.000000000000000 6.283185307179586
0

0101000
+13 0 -13 0 *
Ed
 0.000000100000000 1 1 0
1  3 0 0.000000000000000 305.854949935424543
3  9 10CN 2 0 0.000000000000000 305.854949935424543
0

0101000
+17 0 -13 0 *
Wi

0101100
+16 0 -12 0 -11 0 +11 0 *
Fa
0  0.000000100000000 2 0

0111000
+10 0 *
Ve
0.000000100000000
-0.000000000000000 -306.876412987771403 0.000000000000068
0 0

0101101
*
Ed
 0.000000100000000 1 1 1
2  11 4 0 0.000000000000000 6.283185307179586
0

0101000
+8 0 -8 0 *
Ed
 0.000000100000000 1 1 0
1  4 0 0.000000000000000 1.983276775266050
3  12 13CN 4 0 0.000000000000000 1.983276775266050
0

0101000
+13 0 -8 0 *
Wi

0101100
+12 0 -7 0 -6 0 +6 0 *
Fa
0  0.000000100000000 4 0

0111000
+5 0 *
Sh

0101100
+14 0 +9 0 +4 0 *
So

0100000
-3 0 *
Co

1100000
+2 1 +2 11 +2 13 +2 15 *

+1 0 