
CASCADE Topology V1, (c) Matra-Datavision
Locations 6
1
1.000000000000000 0.000000000000000 0.000000000000000 0.000000000000000 
0.000000000000000 1.000000000000000 0.000000000000000 0.000000000000000 
0.000000000000000 0.000000000000000 1.000000000000000 0.000000000000000 
1
1.000000000000000 0.000000000000000 0.000000000000000 -19.000000000000000 
0.000000000000000 1.000000000000000 0.000000000000000 0.000000000000004 
0.000000000000000 0.000000000000000 1.000000000000000 -0.000000000000005 
1
1.000000000000000 0.000000000000000 0.000000000000000 38.000000000000000 
0.000000000000000 1.000000000000000 0.000000000000000 -0.000000000000008 
0.000000000000000 0.000000000000000 1.000000000000000 0.000000000000011 
2  2 1 3 1 0
2  3 -1 2 -1 0
2  2 -1 0
Curve2ds 55
1 3.14159265359053741 0.00000000000000000 0.00000000000000000 -1.00000000000000000 
1 0.00000000000000008 -0.29999999999999610 1.00000000000000000 -0.00000000000000000 
1 -0.00000000000000008 -0.29999999999999999 -1.00000000000000000 0.00000000000000000 
1 0.00000000000000000 0.00000000000000000 0.00000000000000000 -1.00000000000000000 
1 49.59999999999074305 0.00000000000000036 0.00000000000000000 -1.00000000000000000 
1 0.00000000000000000 0.00000000000000000 1.00000000000000000 -0.00000000000000000 
1 0.00000000000000002 -0.29999999999999999 -1.00000000000000000 0.00000000000000000 
1 -0.00000000000000002 -0.29999999999999999 1.00000000000000000 0.00000000000000000 
1 -0.40000000000035546 -0.00000000000000009 1.00000000000000000 -0.00000000000000000 
1 -0.40000000000035546 -38.00000000000000000 1.00000000000000000 -0.00000000000000000 
1 1.57079632679476289 0.00000000000000000 0.00000000000000000 -1.00000000000000000 
1 -0.00000000000000007 -0.29999999999999999 1.00000000000000000 -0.00000000000000000 
1 0.00000000000000007 -0.30000000000000004 -1.00000000000000000 0.00000000000000000 
1 99.59999999997657483 0.00000000000000080 -0.00000000000000006 -1.00000000000000000 
1 -1.57079632679475245 0.00000000000000001 1.00000000000000000 0.00000000000000000 
1 0.00000000000000000 0.00000000000000000 1.00000000000000000 0.00000000000000000 
1 0.00000000000000000 -38.00000000000000000 1.00000000000000000 0.00000000000000000 
1 6.28318530717958623 0.00000000000000000 -1.00000000000000000 0.00000000000000000 
1 0.00000000000000000 0.00000000000000000 1.00000000000000000 0.00000000000000000 
6 0 1 -49.99999999999108979 -0.29999999999999999  -49.99999999999109690 0.00000000000000000  
1 49.59999999999074305 0.00000000000000036 0.00000000000000000 -1.00000000000000000 
6 0 1 49.99999999999108979 -0.29999999999999999  49.99999999999108979 0.00000000000000000  
1 -0.40000000000035546 -0.00000000000000009 1.00000000000000000 -0.00000000000000000 
1 0.00000000000000000 0.00000000000000000 1.00000000000000000 0.00000000000000000 
6 0 1 0.00000000000000000 -0.29999999999999999  0.00000000000000000 0.00000000000000000  
6 0 1 0.40000000000035546 -0.29999999999999999  0.40000000000035546 0.00000000000000000  
8 0.00000000000000000 1.00000000000000000
1 3.14159265359053741 0.00000000000000000 0.00000000000000000 1.00000000000000000 
6 0 1 -0.40000000000035546 -0.29999999999999999  -0.40000000000035546 0.00000000000000000  
6 0 1 -38.00000000000000000 -0.29999999999999999  -38.00000000000000000 0.00000000000000000  
8 0.00000000000000000 1.00000000000000000
1 3.14159265358904882 0.00000000000000000 0.00000000000000000 1.00000000000000000 
1 -0.40000000000035546 -38.00000000000000000 1.00000000000000000 -0.00000000000000000 
1 -0.00000000000000000 0.00000000000000000 -1.00000000000000000 0.00000000000000000 
1 0.00000000000000000 0.00000000000000000 -0.00000000000000006 -1.00000000000000000 
1 0.00000000000000000 0.00000000000000000 1.00000000000000000 0.00000000000000000 
1 0.00000000000000059 -0.29999999999999999 -1.00000000000000000 0.00000000000000000 
1 -0.00000000000000059 -0.29999999999999999 1.00000000000000000 0.00000000000000000 
1 0.00000000000000000 0.00000000000000000 1.00000000000000000 0.00000000000000000 
1 0.00000000000000844 -38.00000000000000000 1.00000000000000000 0.00000000000000000 
1 0.00000000000000000 1.00000000000000000 1.00000000000000000 0.00000000000000000 
1 1.57079632679476289 0.00000000000000000 0.00000000000000000 1.00000000000000000 
6 0 1 0.00000000000000000 -0.30000000000000004  0.00000000000000000 0.00000000000000000  
1 4.71238898038482290 0.00000000000000000 0.00000000000000000 1.00000000000000000 
7 0 0  1 2 2  -38.00000000000000000 -0.29999999999999999  -38.00000000000000000 -0.00000000000000000 
 0.00000000000000000 2 1.00000000000000000 2
1 6.28318530717958623 1.00000000000000000 -1.00000000000000000 0.00000000000000000 
1 0.00000000000000000 0.00000000000000000 0.00000000000000000 -1.00000000000000000 
1 0.00000000000000000 0.00000000000000000 -1.00000000000000000 0.00000000000000000 
8 0.00000000000000000 38.00000000000000000
1 3.14159265359053741 0.00000000000000000 0.00000000000000000 -1.00000000000000000 
6 0 1 0.00000000000000000 -0.29999999999999999  0.00000000000000000 0.00000000000000000  
1 0.00000000000000000 0.00000000000000000 -0.00000000000000006 -1.00000000000000000 
6 0 1 0.00000000000000000 -0.29999999999999999  0.00000000000001421 0.00000000000000000  
1 0.00000000000000000 0.00000000000000000 1.00000000000000000 0.00000000000000000 
1 0.00000000000000000 0.00000000000000000 1.00000000000000000 0.00000000000000000 
1 0.00000000000000844 -38.00000000000000000 1.00000000000000000 0.00000000000000000 
1 0.00000000000000000 0.00000000000000000 -1.00000000000000000 0.00000000000000000 
1 0.00000000000000000 0.00000000000000000 -1.00000000000000000 0.00000000000000000 
Curves 25
1 -19.00000000000000000 0.39999999998575231 0.29999999996304594 1.00000000000000000 -0.00000000000000022 0.00000000000000028 
1 -18.99999999999998934 49.99999999997649525 0.29999999999998361 1.00000000000000000 -0.00000000000000022 0.00000000000000028 
1 -0.00000000000000008 -0.00000000001460738 0.29999999996275334 0.00000000000000022 1.00000000000000000 0.00000000000074471 
1 -19.00000000000000000 0.29999999998567789 0.39999999996305219 1.00000000000000000 -0.00000000000000022 0.00000000000000028 
2 -0.00000000000000001 0.39999999998567365 0.39999999996305513 1.00000000000000000 -0.00000000000000022 0.00000000000000028 -0.00000000000000028 -0.00000000000000016 1.00000000000000000 -0.00000000000000022 -1.00000000000000000 -0.00000000000000016 0.10000000000000001
6 0 1 19.00000000000001066 49.99999999997648104 0.29999999999999416  19.00000000000001421 49.99999999997670841 -0.00000000000000584  
1 -18.99999999999998934 49.99999999997671551 -0.00000000000001639 1.00000000000000000 -0.00000000000000022 0.00000000000000028 
6 0 1 -18.99999999999998934 49.99999999997649525 0.29999999999998361  -18.99999999999998934 49.99999999997671551 -0.00000000000001639  
1 -19.00000000000000000 -0.00000000001437972 -0.00000000003725194 0.00000000000000022 1.00000000000000000 0.00000000000074471 
6 0 1 -19.00000000000000000 0.39999999998575231 0.29999999996304594  -19.00000000000000000 0.39999999998597574 -0.00000000003695405  
6 0 1 19.00000000000000000 0.39999999998574387 0.29999999996305649  19.00000000000000000 0.39999999998596730 -0.00000000003694350  
1 19.00000000000000000 -0.00000000001438816 -0.00000000003724139 0.00000000000000022 1.00000000000000000 0.00000000000074471 
1 -19.00000000000002132 0.30000000000002641 99.99999999993963229 1.00000000000000000 -0.00000000000000022 0.00000000000000028 
1 -0.00000000000002214 0.30000000000002219 99.99999999993963229 0.00000000000000022 -0.00000000000014406 -1.00000000000000000 
2 -19.00000000000000000 0.39999999998567787 0.39999999996304986 1.00000000000000000 -0.00000000000000022 0.00000000000000028 -0.00000000000000028 -0.00000000000000016 1.00000000000000000 -0.00000000000000022 -1.00000000000000000 -0.00000000000000016 0.40000000000000002
6 0 1 -19.00000000000000000 0.29999999998567789 0.39999999996305219  -19.00000000000000000 -0.00000000001432215 0.39999999996310331  
7 0 0  1 2 2  19.00000000000000000 0.29999999998566940 0.39999999996307367  19.00000000000000000 -0.00000000001433059 0.39999999996311358 
 0.00000000000000000 2 1.00000000000000000 2
2 19.00000000000000000 0.39999999998566943 0.39999999996306040 1.00000000000000000 -0.00000000000000022 0.00000000000000028 -0.00000000000000028 -0.00000000000000016 1.00000000000000000 -0.00000000000000022 -1.00000000000000000 -0.00000000000000016 0.40000000000000002
1 -19.00000000000000000 0.39999999998597574 -0.00000000003695405 1.00000000000000000 -0.00000000000000022 0.00000000000000028 
6 0 1 -19.00000000000002132 0.30000000000002641 99.99999999993963229  -19.00000000000002132 0.00000000000002642 99.99999999993967492  
1 -19.00000000000002132 0.00000000000002642 99.99999999993967492 1.00000000000000000 -0.00000000000000022 0.00000000000000028 
6 0 1 18.99999999999997868 0.30000000000001797 99.99999999993963229  18.99999999999997868 0.00000000000001799 99.99999999993968913  
1 -19.00000000000002132 0.00000000000002642 99.99999999993967492 0.00000000000000022 -0.00000000000014406 -1.00000000000000000 
1 18.99999999999997868 0.00000000000001799 99.99999999993967492 0.00000000000000022 -0.00000000000014406 -1.00000000000000000 
1 -19.00000000000000000 -0.00000000001432215 0.39999999996310331 1.00000000000000000 -0.00000000000000022 0.00000000000000028 
Polygon3D 0
PolygonOnTriangulations 0
Surfaces 21
1 -19.00000000000000000 0.39999999998575231 0.29999999996304594 -0.00000000000000028 -0.00000000000074471 1.00000000000000000 0.00000000000000022 1.00000000000000000 0.00000000000074471 -1.00000000000000000 0.00000000000000022 -0.00000000000000028 
2 -19.00000000000000000 0.39999999998567787 0.39999999996304986 -1.00000000000000000 0.00000000000000022 -0.00000000000000028 -0.00000000000000028 -0.00000000000000016 1.00000000000000000 -0.00000000000000022 -1.00000000000000000 -0.00000000000000016 0.10000000000000001
1 -19.00000000000000000 0.39999999998597557 -0.00000000003695017 0.00000000000000022 1.00000000000000000 0.00000000000074422 1.00000000000000000 -0.00000000000000022 0.00000000000000028 0.00000000000000028 0.00000000000074422 -1.00000000000000000 
1 -19.00000000000000000 0.39999999998597574 -0.00000000003695405 -0.00000000000000022 -1.00000000000000000 -0.00000000000074477 -1.00000000000000000 0.00000000000000022 -0.00000000000000028 0.00000000000000028 0.00000000000074477 -1.00000000000000000 
1 -0.00000000000000008 -0.00000000001460738 0.29999999996275334 -0.00000000000000028 -0.00000000000074471 1.00000000000000000 0.00000000000000022 1.00000000000000000 0.00000000000074471 -1.00000000000000000 0.00000000000000022 -0.00000000000000028 
1 19.00000000000000000 -0.00000000001438816 -0.00000000003724139 1.00000000000000000 -0.00000000000000022 -0.00000000000000000 -0.00000000000000022 -1.00000000000000000 -0.00000000000074471 0.00000000000000000 0.00000000000074471 -1.00000000000000000 
1 -19.00000000000000000 -0.00000000001437972 -0.00000000003725194 -1.00000000000000000 0.00000000000000022 0.00000000000000000 0.00000000000000022 1.00000000000000000 0.00000000000074471 0.00000000000000000 0.00000000000074471 -1.00000000000000000 
1 -19.00000000000002132 0.30000000000002641 99.99999999993963229 0.00000000000000022 1.00000000000000000 -0.00000000000014406 0.00000000000000022 -0.00000000000014406 -1.00000000000000000 -1.00000000000000000 0.00000000000000022 -0.00000000000000022 
1 -19.00000000000000000 -0.00000000001432212 0.39999999996310009 0.00000000000000028 -0.00000000000015969 -1.00000000000000000 1.00000000000000000 -0.00000000000000022 0.00000000000000028 -0.00000000000000022 -1.00000000000000000 0.00000000000015969 
1 -19.00000000000000000 -0.00000000001432215 0.39999999996310331 -0.00000000000000028 0.00000000000017042 1.00000000000000000 -1.00000000000000000 0.00000000000000022 -0.00000000000000028 -0.00000000000000022 -1.00000000000000000 0.00000000000017042 
2 -0.00000000000000002 0.39999999998567365 0.39999999996305508 1.00000000000000000 -0.00000000000000022 0.00000000000000028 -0.00000000000000022 -1.00000000000000000 0.00000000000014406 0.00000000000000028 -0.00000000000014406 -1.00000000000000000 0.10000000000000001
9 0 0 0 0 7 1 8 2 2 2 19.00000000000001066 0.39999999998574398 0.29999999996306054  19.00000000000001066 0.39999999998596741 -0.00000000003693962  
19.00000000000015277 0.37756005246009106 0.29999999996304494  19.00000000000015277 0.31024020988335199 -0.00000000003700552  
18.99999999999948841 0.35512021348736633 0.30587488861819345  18.99999999999948841 0.22048085399246914 0.02349955458360476  
19.00000000000086686 0.33452530590340579 0.31762372774281750  19.00000000000086686 0.13810122365659461 0.07049491108207059  
18.99999999999917577 0.31762372776545550 0.33452530588073598  18.99999999999917577 0.07049491110483165 0.13810122363377492  
19.00000000000045830 0.30587488864083645 0.35512021346470529  19.00000000000045830 0.02349955460632810 0.22048085396963540  
18.99999999999985789 0.29999999998566551 0.37756005243741914  18.99999999999985789 -0.00000000001434313 0.31024020986049672  
19.00000000000000000 0.29999999998566940 0.39999999996307367  19.00000000000000000 -0.00000000001433059 0.39999999996311358  

3.14159265358904882 8
4.71238898038482290 8

0.00000000000000000 2
1.00000000000000000 2

9 0 0 0 0 7 1 8 2 2 2 -19.00000000000000000 0.29999999998567789 0.39999999996306324  -19.00000000000000000 -0.00000000001432217 0.39999999996310331  
-18.99999999999993960 0.29999999998567445 0.37756005243740809  -18.99999999999993960 -0.00000000001433376 0.31024020986048706  
-19.00000000000019895 0.30587488864084328 0.35512021346469641  -19.00000000000019895 0.02349955460633330 0.22048085396962314  
-18.99999999999976552 0.31762372776546860 0.33452530588072521  -18.99999999999976552 0.07049491110484600 0.13810122363376767  
-19.00000000000017408 0.33452530590340784 0.31762372774280490  -19.00000000000017408 0.13810122365659630 0.07049491108205710  
-18.99999999999993250 0.35512021348737888 0.30587488861818490  -18.99999999999993250 0.22048085399248174 0.02349955458359573  
-19.00000000000000711 0.37756005246009794 0.29999999996303339  -19.00000000000000711 0.31024020988335910 -0.00000000003701648  
-19.00000000000000000 0.39999999998575236 0.29999999996304982  -19.00000000000000000 0.39999999998597557 -0.00000000003695021  

1.57079632679476289 8
3.14159265359053741 8

0.00000000000000000 2
1.00000000000000000 2

1 -18.99999999999998934 49.99999999997671551 -0.00000000000001639 0.00000000000000022 1.00000000000000000 0.00000000000073423 1.00000000000000000 -0.00000000000000022 0.00000000000000028 0.00000000000000028 0.00000000000073423 -1.00000000000000000 
1 -19.00000000000000000 0.39999999998597574 -0.00000000003695405 -0.00000000000000028 -0.00000000000074471 1.00000000000000000 0.00000000000000022 1.00000000000000000 0.00000000000074471 -1.00000000000000000 0.00000000000000022 -0.00000000000000028 
1 -0.00000000000002214 0.30000000000002219 99.99999999993963229 0.00000000000000022 1.00000000000000000 -0.00000000000014406 0.00000000000000022 -0.00000000000014406 -1.00000000000000000 -1.00000000000000000 0.00000000000000022 -0.00000000000000022 
1 18.99999999999997868 0.00000000000001799 99.99999999993967492 1.00000000000000000 0.00000000000000000 0.00000000000000022 -0.00000000000000022 0.00000000000014406 1.00000000000000000 -0.00000000000000000 -1.00000000000000000 0.00000000000014406 
1 -19.00000000000002132 0.00000000000002642 99.99999999993967492 -1.00000000000000000 -0.00000000000000000 -0.00000000000000022 0.00000000000000022 -0.00000000000014406 -1.00000000000000000 -0.00000000000000000 -1.00000000000000000 0.00000000000014406 
2 -19.00000000000000000 0.39999999998567787 0.39999999996304986 -1.00000000000000000 0.00000000000000022 -0.00000000000000028 -0.00000000000000028 -0.00000000000000016 1.00000000000000000 -0.00000000000000022 -1.00000000000000000 -0.00000000000000016 0.40000000000000002
1 -19.00000000000002132 0.00000000000002642 99.99999999993967492 -0.00000000000000028 0.00000000000014211 1.00000000000000000 -1.00000000000000000 0.00000000000000022 -0.00000000000000028 -0.00000000000000022 -1.00000000000000000 0.00000000000014211 
1 -19.00000000000002132 0.00000000000002642 99.99999999993967492 0.00000000000000022 1.00000000000000000 -0.00000000000014406 0.00000000000000022 -0.00000000000014406 -1.00000000000000000 -1.00000000000000000 0.00000000000000022 -0.00000000000000022 
Triangulations 0

TShapes 68
Ve
0.001000000000000
0.000000000000000 0.399999999985748 0.299999999963051
0 0

0101101
*
Ed
 0.001000000000000 1 1 0
1  1 0 0.000000000000000 38.000000000000000
2  1 2 0 0.000000000000000 38.000000000000000
4 G1 1 0 2 0
2  2 3 0 0.000000000000000 38.000000000000000
2  3 4 0 0.000000000000000 38.000000000000000
2  4 1 0 0.000000000000000 38.000000000000000
0

0101000
+68 2 -68 4 *
Ve
0.001000000000000
0.000000000000011 49.999999999976488 0.299999999999989
0 0

0101101
*
Ed
 0.001000000000000 1 1 0
1  2 0 0.000000000000000 38.000000000000000
2  5 1 0 0.000000000000000 38.000000000000000
0

0101000
+66 2 -66 4 *
Ed
 0.001000000000000 1 1 0
2  6 5 0 0.400000000000355 49.999999999991097
1  3 0 0.400000000000355 49.999999999991097
2  7 6 5 0.400000000000355 49.999999999991097
2  8 7 6 0.400000000000355 49.999999999991097
2  9 1 6 0.400000000000355 49.999999999991097
2  10 1 5 0.400000000000355 49.999999999991097
0

0101000
+68 0 -66 0 *
Wi

0101100
+67 0 -65 0 -64 2 +64 4 *
Fa
0  0.001000000000000 1 0

0101000
+63 0 *
Ve
0.001000000000000
-0.000000000000000 0.299999999985674 0.399999999963057
0 0

0101101
*
Ed
 0.001000000000000 1 1 0
1  4 0 0.000000000000000 38.000000000000000
2  11 2 0 0.000000000000000 38.000000000000000
4 G1 2 0 8 0
2  12 9 0 0.000000000000000 38.000000000000000
2  13 10 0 0.000000000000000 38.000000000000000
2  14 8 0 0.000000000000000 38.000000000000000
0

0101000
+61 2 -61 4 *
Ed
 0.000000100000006 1 1 0
2  15 11 0 1.570796326794763 3.141592653590537
1  5 0 1.570796326794763 3.141592653590537
2  16 2 6 1.570796326794763 3.141592653590537
2  17 2 5 1.570796326794763 3.141592653590537
2  18 12 5 1.570796326794763 3.141592653590537
2  19 13 6 1.570796326794763 3.141592653590537
0

0101000
+61 0 -68 0 *
Wi

0101100
+60 0 -67 0 -59 2 +59 4 *
Fa
0  0.000000100000006 2 0

0101000
+58 0 *
Ve
0.001000000000000
19.000000000000014 49.999999999976708 -0.000000000000006
0 0

0101101
*
Ed
 0.000000100000000 1 1 0
1  6 0 0.000000000000000 1.000000000000000
4 C0 14 0 6 0
2  20 6 0 0.000000000000000 1.000000000000000
0

0101000
+66 4 -56 0 *
Ve
0.001000000000000
-18.999999999999989 49.999999999976716 -0.000000000000016
0 0

0101101
*
Ed
 0.001000000000000 1 1 0
2  21 15 0 0.000000000000000 38.000000000000000
1  7 0 0.000000000000000 38.000000000000000
0

0101000
+54 0 -56 0 *
Ed
 0.000000100000000 1 1 0
1  8 0 0.000000000000000 1.000000000000000
4 C0 14 0 7 0
2  22 7 0 0.000000000000000 1.000000000000000
0

0101000
+66 2 -54 0 *
Wi

0101000
+65 0 +55 0 -53 0 -52 0 *
Fa
0  0.000000100000000 14 0

0101000
+51 0 *
Ve
0.001000000000000
-19.000000000000000 0.399999999985976 -0.000000000036954
0 0

0101101
*
Ed
 0.001000000000000 1 1 0
2  23 15 0 0.400000000000355 49.999999999991097
1  9 0 0.400000000000355 49.999999999991097
2  24 7 0 0.400000000000355 49.999999999991097
0

0101000
+49 0 -54 0 *
Ed
 0.000000100000000 1 1 0
1  10 0 0.000000000000000 1.000000000000000
4 C0 4 0 7 0
2  25 4 0 0.000000000000000 1.000000000000000
2  26 7 0 0.000000000000000 1.000000000000000
2  27 13 0 0.000000000000000 1.000000000000000
0

0101000
+68 2 -49 0 *
Wi

0101100
+64 2 +52 0 -48 0 -47 0 *
Fa
0  0.000000100000000 7 0

0101000
+46 0 *
Ve
0.001000000000000
19.000000000000000 0.399999999985967 -0.000000000036944
0 0

0101101
*
Ed
 0.000000100000000 1 1 0
1  11 0 0.000000000000000 1.000000000000000
4 C0 6 0 4 0
2  28 6 0 0.000000000000000 1.000000000000000
2  29 4 0 0.000000000000000 1.000000000000000
2  30 12 0 0.000000000000000 1.000000000000000
0

0101000
+68 4 -44 0 *
Ed
 0.001000000000000 1 1 0
2  31 15 0 0.400000000000355 49.999999999991097
1  12 0 0.400000000000355 49.999999999991097
2  32 6 0 0.400000000000355 49.999999999991097
0

0101000
+44 0 -56 0 *
Wi

0101100
-64 4 +43 0 +42 0 -55 0 *
Fa
0  0.000000100000000 6 0

0101000
+41 0 *
Ve
0.001000000000000
-0.000000000000022 0.300000000000022 99.999999999939632
0 0

0101101
*
Ed
 0.001000000000000 1 1 0
1  13 0 0.000000000000000 38.000000000000000
2  33 8 0 0.000000000000000 38.000000000000000
0

0101000
+39 2 -39 4 *
Ed
 0.001000000000000 1 1 0
2  34 16 0 0.000000000000000 99.599999999976575
1  14 0 0.000000000000000 99.599999999976575
2  35 17 5 0.000000000000000 99.599999999976575
2  36 18 6 0.000000000000000 99.599999999976575
2  37 8 6 0.000000000000000 99.599999999976575
2  38 8 5 0.000000000000000 99.599999999976575
0

0101000
+39 0 -61 0 *
Wi

0101100
+38 0 -60 0 -37 2 +37 4 *
Fa
0  0.001000000000000 8 0

0101000
+36 0 *
Ve
0.001000000000002
-19.000000000000000 -0.000000000014322 0.399999999963102
0 0

0101101
*
Ed
 0.000000100000006 1 1 0
2  16 19 0 1.570796326794763 3.141592653590537
1  15 0 1.570796326794763 3.141592653590537
2  39 13 0 1.570796326794763 3.141592653590537
0

0101000
+34 0 -49 0 *
Ed
 0.000000100000003 1 1 0
1  16 0 0.000000000000000 1.000000000000000
2  40 13 0 0.000000000000000 1.000000000000000
4 C0 10 0 13 0
2  41 10 0 0.000000000000000 1.000000000000000
0

0101000
+61 2 -34 0 *
Wi

0101100
+59 2 +47 0 -33 0 -32 0 *
Fa
0  0.000000100000000 13 0

0101000
+31 0 *
Ve
0.001000000000000
19.000000000000000 -0.000000000014331 0.399999999963114
0 0

0101101
*
Ed
 0.000000100000010 1 1 0
1  17 0 0.000000000000000 1.000000000000000
2  42 12 0 0.000000000000000 1.000000000000000
4 C0 12 0 10 0
2  43 10 0 0.000000000000000 1.000000000000000
0

0101000
+61 4 -29 0 *
Ed
 0.000000100000006 1 1 0
2  17 19 0 1.570796326794763 3.141592653590537
1  18 0 1.570796326794763 3.141592653590537
2  44 12 0 1.570796326794763 3.141592653590537
0

0101000
+29 0 -44 0 *
Wi

0101100
-59 4 +28 0 +27 0 -43 0 *
Fa
0  0.000000100000000 12 0

0101000
+26 0 *
Ed
 0.001000000000000 1 1 0
2  45 15 0 0.000000000000000 38.000000000000000
1  19 0 0.000000000000000 38.000000000000000
2  46 4 0 0.000000000000000 38.000000000000000
2  47 19 0 0.000000000000000 38.000000000000000
0

0101000
+49 0 -44 0 *
Wi

0101100
+24 0 -53 0 -48 0 +42 0 *
Fa
0  0.001000000000000 15 0

0101000
+23 0 *
Ve
0.001000000000000
-19.000000000000021 0.000000000000026 99.999999999939675
0 0

0101101
*
Ed
 0.000000100000000 1 1 0
1  20 0 0.000000000000000 1.000000000000000
4 C0 20 0 18 0
2  48 18 0 0.000000000000000 1.000000000000000
0

0101000
+39 2 -21 0 *
Ve
0.001000000000000
18.999999999999979 0.000000000000018 99.999999999939689
0 0

0101101
*
Ed
 0.001000000000000 1 1 0
2  49 21 0 0.000000000000000 38.000000000000000
1  21 0 0.000000000000000 38.000000000000000
0

0101000
+21 0 -19 0 *
Ed
 0.000000100000000 1 1 0
1  22 0 0.000000000000000 1.000000000000000
4 C0 17 0 20 0
2  50 17 0 0.000000000000000 1.000000000000000
0

0101000
+39 4 -19 0 *
Wi

0101000
-38 0 +20 0 +18 0 -17 0 *
Fa
0  0.000000100000000 20 0

0101000
+16 0 *
Ed
 0.001000000000000 1 1 0
2  51 21 0 0.000000000000000 99.599999999976575
1  23 0 0.000000000000000 99.599999999976575
2  52 18 0 0.000000000000000 99.599999999976575
0

0101000
+21 0 -34 0 *
Wi

0101100
+37 2 +32 0 -14 0 -20 0 *
Fa
0  0.000000100000000 18 0

0101000
+13 0 *
Ed
 0.001000000000000 1 1 0
2  53 21 0 0.000000000000000 99.599999999976575
1  24 0 0.000000000000000 99.599999999976575
2  54 17 0 0.000000000000000 99.599999999976575
0

0101000
+19 0 -29 0 *
Wi

0101100
-37 4 +17 0 +11 0 -28 0 *
Fa
0  0.000000100000000 17 0

0101000
+10 0 *
Ed
 0.001000000000000 1 1 0
2  11 19 0 0.000000000000000 38.000000000000000
1  25 0 0.000000000000000 38.000000000000000
2  55 10 0 0.000000000000000 38.000000000000000
0

0101000
+34 0 -29 0 *
Wi

0101100
+8 0 -24 0 -33 0 +27 0 *
Fa
0  0.000000100000006 19 0

0101000
+7 0 *
Wi

0101100
+18 0 -8 0 -14 0 +11 0 *
Fa
0  0.001000000000000 21 0

0101000
+5 0 *
Sh

0101100
+62 0 +57 0 +50 0 +45 0 +40 0 +35 0 +30 0 +25 0 -22 0 +15 0 
+12 0 +9 0 -6 0 -4 0 *
So

0100000
+3 0 *
Co

1100000
+2 0 *

+1 1 