
CASCADE Topology V1, (c) Matra-Datavision
Locations 15
1
1.000000000000000 0.000000000000000 0.000000000000000 0.000000000000000 
0.000000000000000 1.000000000000000 0.000000000000000 0.000000000000000 
0.000000000000000 0.000000000000000 1.000000000000000 0.000000000000000 
1
1.000000000000000 0.000000000000000 0.000000000000000 0.000000000000000 
0.000000000000000 1.000000000000000 0.000000000000000 0.000000000000000 
0.000000000000000 0.000000000000000 1.000000000000000 0.000000000000000 
1
1.000000000000000 0.000000000000000 0.000000000000000 0.000000000000000 
0.000000000000000 1.000000000000000 0.000000000000000 0.000000000000000 
0.000000000000000 0.000000000000000 1.000000000000000 0.000000000000000 
1
1.000000000000000 0.000000000000000 0.000000000000000 687.546888028313788 
0.000000000000000 1.000000000000000 0.000000000000000 0.000000000000000 
0.000000000000000 0.000000000000000 1.000000000000000 0.000000000000000 
2  1 1 2 1 3 -1 4 1 0
1
1.000000000000000 0.000000000000000 0.000000000000000 -1375.093776056627576 
0.000000000000000 1.000000000000000 0.000000000000000 -0.000000000000000 
0.000000000000000 0.000000000000000 1.000000000000000 -0.000000000000000 
2  1 1 2 1 3 -1 4 1 6 1 0
1
0.000000000000000 0.000000000000000 1.000000000000000 11.500000000000000 
1.000000000000000 0.000000000000000 0.000000000000000 0.000000000000000 
0.000000000000000 1.000000000000000 0.000000000000000 0.000000000000000 
1
1.000000000000000 0.000000000000000 0.000000000000000 0.000000000000000 
0.000000000000000 1.000000000000000 0.000000000000000 0.000000000000000 
0.000000000000000 0.000000000000000 1.000000000000000 0.000000000000000 
2  8 1 9 1 1 1 2 1 3 -1 4 1 0
2  9 -1 8 -1 0
2  8 1 9 1 1 1 2 1 3 -1 4 1 6 1 0
2  4 -1 3 1 2 -1 1 -1 9 -1 8 -1 0
2  6 -1 4 -1 3 1 2 -1 1 -1 9 -1 8 -1 0
2  8 1 9 1 0
Curve2ds 4
1 0.00000000000000000 0.00000000000000000 0.00000000000000000 -1.00000000000000000 
1 125.74215799999998922 0.00000000000000000 0.00000000000000000 -1.00000000000000000 
1 0.00000000000000000 0.00000000000000000 1.00000000000000000 0.00000000000000000 
1 0.00000000000000000 -1375.09377605662757560 1.00000000000000000 0.00000000000000000 
Curves 16
1 699.04688802831378780 104.00000000000000000 272.14632000000000289 -1.00000000000000000 -0.00000000000000000 -0.00000000000000000 
1 699.04688802831378780 -156.00000000000000000 272.14632000000000289 -1.00000000000000000 -0.00000000000000000 -0.00000000000000000 
1 104.00000000000000000 272.14632000000005974 0.00000000000000000 -1.00000000000000000 0.00000000000000000 0.00000000000000000 
1 699.04688802831378780 104.00000000000000000 -356.56446999999991476 -1.00000000000000000 -0.00000000000000000 -0.00000000000000000 
1 104.00000000000000000 -356.56446999999991476 0.00000000000000000 0.00000000000000000 1.00000000000000000 0.00000000000000000 
1 699.04688802831378780 -156.00000000000000000 -356.56446999999991476 -1.00000000000000000 -0.00000000000000000 -0.00000000000000000 
1 -156.00000000000000000 272.14632000000005974 0.00000000000000000 0.00000000000000000 -1.00000000000000000 0.00000000000000000 
1 -156.00000000000000000 -356.56446999999991476 0.00000000000000000 1.00000000000000000 0.00000000000000000 0.00000000000000000 
1 699.04688802831378780 0.00000000000000000 20.66200399999999604 -1.00000000000000000 -0.00000000000000000 -0.00000000000000000 
1 699.04688802831378780 -52.00000000000000000 20.66200399999999604 -1.00000000000000000 -0.00000000000000000 -0.00000000000000000 
1 0.00000000000000000 20.66200399999999604 0.00000000000000000 -1.00000000000000000 0.00000000000000000 0.00000000000000000 
1 699.04688802831378780 -52.00000000000000000 -105.08015399999999318 -1.00000000000000000 -0.00000000000000000 -0.00000000000000000 
1 -52.00000000000000000 20.66200399999999604 0.00000000000000000 0.00000000000000000 -1.00000000000000000 0.00000000000000000 
1 699.04688802831378780 0.00000000000000000 -105.08015399999999318 -1.00000000000000000 -0.00000000000000000 -0.00000000000000000 
1 -52.00000000000000000 -105.08015399999999318 0.00000000000000000 1.00000000000000000 0.00000000000000000 0.00000000000000000 
1 0.00000000000000000 -105.08015399999999318 0.00000000000000000 0.00000000000000000 1.00000000000000000 0.00000000000000000 
Polygon3D 0
PolygonOnTriangulations 0
Surfaces 9
1 699.04688802831378780 104.00000000000000000 272.14632000000005974 -0.00000000000000000 0.00000000000000000 1.00000000000000000 0.00000000000000000 -1.00000000000000000 0.00000000000000000 1.00000000000000000 0.00000000000000000 0.00000000000000000 
1 699.04688802831378780 104.00000000000000000 -356.56446999999991476 0.00000000000000000 1.00000000000000000 0.00000000000000000 0.00000000000000000 -0.00000000000000000 1.00000000000000000 1.00000000000000000 0.00000000000000000 -0.00000000000000000 
1 699.04688802831378780 -156.00000000000000000 272.14632000000005974 0.00000000000000000 -1.00000000000000000 0.00000000000000000 0.00000000000000000 0.00000000000000000 -1.00000000000000000 1.00000000000000000 0.00000000000000000 0.00000000000000000 
1 699.04688802831378780 -156.00000000000000000 -356.56446999999991476 0.00000000000000000 0.00000000000000000 -1.00000000000000000 0.00000000000000000 1.00000000000000000 0.00000000000000000 1.00000000000000000 -0.00000000000000000 0.00000000000000000 
1 699.04688802831378780 0.00000000000000000 20.66200399999999604 -0.00000000000000000 0.00000000000000000 1.00000000000000000 0.00000000000000000 -1.00000000000000000 0.00000000000000000 1.00000000000000000 0.00000000000000000 0.00000000000000000 
1 699.04688802831378780 -52.00000000000000000 20.66200399999999604 0.00000000000000000 -1.00000000000000000 0.00000000000000000 0.00000000000000000 0.00000000000000000 -1.00000000000000000 1.00000000000000000 0.00000000000000000 0.00000000000000000 
1 699.04688802831378780 -52.00000000000000000 -105.08015399999999318 0.00000000000000000 0.00000000000000000 -1.00000000000000000 0.00000000000000000 1.00000000000000000 0.00000000000000000 1.00000000000000000 -0.00000000000000000 0.00000000000000000 
1 699.04688802831378780 0.00000000000000000 -105.08015399999999318 0.00000000000000000 1.00000000000000000 0.00000000000000000 0.00000000000000000 -0.00000000000000000 1.00000000000000000 1.00000000000000000 0.00000000000000000 -0.00000000000000000 
1 11.50000000000000000 -26.00000000000000000 -42.20907499999997015 1.00000000000000000 0.00000000000000000 0.00000000000000000 -0.00000000000000000 1.00000000000000000 0.00000000000000000 0.00000000000000000 -0.00000000000000000 1.00000000000000000 
Triangulations 0

TShapes 45
Ve
0.000000500000000
11.500000000000000 104.000000000000000 272.146320000000003
0 0

0101101
*
Ed
 0.000000500000000 1 1 0
1  1 0 0.000000000000000 1375.093776056627576
0

0101000
+45 5 -45 7 *
Ve
0.000000500000000
11.500000000000000 -156.000000000000000 272.146320000000003
0 0

0101101
*
Ed
 0.000000500000000 1 1 0
1  2 0 0.000000000000000 1375.093776056627576
0

0101000
+43 5 -43 7 *
Ed
 0.000000500000000 1 1 0
1  3 0 0.000000000000000 260.000000000000000
0

0101000
+45 11 -43 11 *
Wi

0101100
+44 0 -42 0 -41 10 +41 12 *
Fa
0  0.000000500000000 1 0

0111000
+40 0 *
Ve
0.000000500000000
11.500000000000000 104.000000000000000 -356.564469999999915
0 0

0101101
*
Ed
 0.000000500000000 1 1 0
1  4 0 0.000000000000000 1375.093776056627576
0

0101000
+38 5 -38 7 *
Ed
 0.000000500000000 1 1 0
1  5 0 0.000000000000000 628.710789999999974
0

0101000
+38 11 -45 11 *
Wi

0101100
+37 0 -44 0 -36 10 +36 12 *
Fa
0  0.000000500000000 2 0

0111000
+35 0 *
Ve
0.000000500000000
11.500000000000000 -156.000000000000000 -356.564469999999915
0 0

0101101
*
Ed
 0.000000500000000 1 1 0
1  6 0 0.000000000000000 1375.093776056627576
0

0101000
+33 5 -33 7 *
Ed
 0.000000500000000 1 1 0
1  7 0 0.000000000000000 628.710789999999974
0

0101000
+43 11 -33 11 *
Wi

0101100
+42 0 -32 0 -31 10 +31 12 *
Fa
0  0.000000500000000 3 0

0111000
+30 0 *
Ed
 0.000000500000000 1 1 0
1  8 0 0.000000000000000 260.000000000000000
0

0101000
+33 11 -38 11 *
Wi

0101100
+32 0 -37 0 -28 10 +28 12 *
Fa
0  0.000000500000000 4 0

0111000
+27 0 *
Ve
0.000000500000000
11.500000000000000 0.000000000000000 20.662003999999996
0 0

0101101
*
Ed
 0.000000500000000 1 1 0
1  9 0 0.000000000000000 1375.093776056627576
0

0101000
+25 5 -25 7 *
Ve
0.000000500000000
11.500000000000000 -52.000000000000000 20.662003999999996
0 0

0101101
*
Ed
 0.000000500000000 1 1 0
1  10 0 0.000000000000000 1375.093776056627576
2  1 6 0 0.000000000000000 1375.093776056627576
0

0101000
+23 5 -23 7 *
Ed
 0.000000500000000 1 1 0
1  11 0 0.000000000000000 52.000000000000000
0

0101000
+25 11 -23 11 *
Wi

0101100
+24 0 -22 0 -21 10 +21 12 *
Fa
0  0.000000500000000 5 0

0111000
+20 0 *
Ve
0.000000500000000
11.500000000000000 -52.000000000000000 -105.080153999999993
0 0

0101101
*
Ed
 0.000000500000000 1 1 0
1  12 0 0.000000000000000 1375.093776056627576
2  2 6 0 0.000000000000000 1375.093776056627576
0

0101000
+18 5 -18 7 *
Ed
 0.000000500000000 1 1 0
1  13 0 0.000000000000000 125.742157999999989
2  3 6 13 0.000000000000000 125.742157999999989
2  4 6 14 0.000000000000000 125.742157999999989
0

0101000
+23 11 -18 11 *
Wi

0101100
+22 0 -17 0 -16 10 +16 12 *
Fa
0  0.000000500000000 6 0

0111000
+15 0 *
Ve
0.000000500000000
11.500000000000000 0.000000000000000 -105.080153999999993
0 0

0101101
*
Ed
 0.000000500000000 1 1 0
1  14 0 0.000000000000000 1375.093776056627576
0

0101000
+13 5 -13 7 *
Ed
 0.000000500000000 1 1 0
1  15 0 0.000000000000000 52.000000000000000
0

0101000
+18 11 -13 11 *
Wi

0101100
+17 0 -12 0 -11 10 +11 12 *
Fa
0  0.000000500000000 7 0

0111000
+10 0 *
Ed
 0.000000500000000 1 1 0
1  16 0 0.000000000000000 125.742157999999989
0

0101000
+13 11 -25 11 *
Wi

0101100
+12 0 -24 0 -8 10 +8 12 *
Fa
0  0.000000500000000 8 0

0111000
+7 0 *
Wi

0101100
+41 15 +36 15 +31 15 +28 15 *
Wi

0101100
-21 15 -16 15 -11 15 -8 15 *
Fa
0  0.000000500000000 9 0

0111000
+5 0 +4 0 *
Sh

0101100
+39 0 +34 0 +29 0 +26 0 -19 0 -14 0 -9 0 -6 0 +3 5 -3 7 
*
So

1100000
+2 0 *

+1 0 