
CASCADE Topology V1, (c) Matra-Datavision
Locations 46
1
1.000000000000000 0.000000000000000 0.000000000000000 0.000000000000000 
0.000000000000000 1.000000000000000 0.000000000000000 0.000000000000000 
0.000000000000000 0.000000000000000 1.000000000000000 0.000000000000000 
1
1.000000000000000 0.000000000000000 0.000000000000000 0.000000000000000 
0.000000000000000 1.000000000000000 0.000000000000000 0.000000000000000 
0.000000000000000 0.000000000000000 1.000000000000000 0.000000000000000 
1
1.000000000000000 0.000000000000000 0.000000000000000 0.000000000000000 
0.000000000000000 1.000000000000000 0.000000000000000 0.000000000000000 
0.000000000000000 0.000000000000000 1.000000000000000 0.000000000000000 
2  2 1 3 -1 0
1
1.000000000000000 0.000000000000000 0.000000000000000 0.000000000000000 
0.000000000000000 1.000000000000000 0.000000000000000 0.000000000000000 
0.000000000000000 0.000000000000000 1.000000000000000 0.000000000000000 
1
1.000000000000000 0.000000000000000 0.000000000000000 0.000000000000000 
0.000000000000000 1.000000000000000 0.000000000000000 0.000000000000000 
0.000000000000000 0.000000000000000 1.000000000000000 0.000000000000000 
1
1.000000000000000 0.000000000000000 0.000000000000000 0.000000000000000 
0.000000000000000 1.000000000000000 0.000000000000000 0.000000000000000 
0.000000000000000 0.000000000000000 1.000000000000000 0.000000000000000 
1
1.000000000000000 0.000000000000000 0.000000000000000 0.000000000000000 
0.000000000000000 1.000000000000000 0.000000000000000 0.000000000000000 
0.000000000000000 0.000000000000000 1.000000000000000 0.000000000000000 
1
1.000000000000000 0.000000000000000 0.000000000000000 0.000000000000000 
0.000000000000000 1.000000000000000 0.000000000000000 0.000000000000000 
0.000000000000000 0.000000000000000 1.000000000000000 0.000000000000000 
1
1.000000000000000 0.000000000000000 0.000000000000000 0.000000000000000 
0.000000000000000 1.000000000000000 0.000000000000000 0.000000000000000 
0.000000000000000 0.000000000000000 1.000000000000000 0.000000000000000 
1
1.000000000000000 0.000000000000000 0.000000000000000 0.000000000000000 
0.000000000000000 1.000000000000000 0.000000000000000 0.000000000000000 
0.000000000000000 0.000000000000000 1.000000000000000 0.000000000000000 
1
1.000000000000000 0.000000000000000 0.000000000000000 0.000000000000000 
0.000000000000000 1.000000000000000 0.000000000000000 0.000000000000000 
0.000000000000000 0.000000000000000 1.000000000000000 0.000000000000000 
2  5 -1 6 -1 7 1 8 1 9 1 10 1 11 1 12 -1 0
1
1.000000000000000 0.000000000000000 0.000000000000000 0.000000000000000 
0.000000000000000 1.000000000000000 0.000000000000000 0.000000000000000 
0.000000000000000 0.000000000000000 1.000000000000000 3.000000000000000 
2  5 -1 6 -1 7 1 8 1 9 1 10 1 11 1 12 -1 14 1 0
2  7 1 8 1 9 1 10 1 11 1 12 -1 0
2  12 1 11 -1 10 -1 9 -1 8 -1 7 -1 0
2  14 -1 12 1 11 -1 10 -1 9 -1 8 -1 7 -1 0
2  9 -1 8 -1 7 -1 0
2  5 -1 6 -1 0
2  7 1 8 1 9 1 10 1 11 1 12 -1 14 1 0
1
1.000000000000000 0.000000000000000 0.000000000000000 0.000000000000000 
0.000000000000000 1.000000000000000 0.000000000000000 0.000000000000000 
0.000000000000000 0.000000000000000 1.000000000000000 0.000000000000000 
2  6 1 22 1 9 1 10 1 11 1 12 -1 0
2  6 1 22 1 9 1 10 1 11 1 12 -1 14 1 0
2  12 1 11 -1 10 -1 9 -1 22 -1 6 -1 0
2  14 -1 12 1 11 -1 10 -1 9 -1 22 -1 6 -1 0
2  9 -1 22 -1 6 -1 0
2  5 -1 6 -1 7 1 8 1 22 -1 6 -1 0
2  10 1 11 1 12 -1 2 1 3 -1 0
2  7 1 8 1 9 1 10 1 11 1 12 -1 2 1 3 -1 0
2  6 1 22 1 9 1 10 1 11 1 12 -1 2 1 3 -1 0
1
1.000000000000000 0.000000000000000 0.000000000000000 -146.462047247211274 
0.000000000000000 1.000000000000000 0.000000000000000 101.157642895411811 
0.000000000000000 0.000000000000000 1.000000000000000 0.000000000000000 
1
1.000000000000000 0.000000000000000 0.000000000000000 -56.245501206300993 
0.000000000000000 1.000000000000000 0.000000000000000 168.352884127513505 
0.000000000000000 0.000000000000000 1.000000000000000 0.000000000000000 
2  10 1 11 1 12 -1 2 1 3 -1 33 -1 0
2  10 1 11 1 12 -1 2 1 3 -1 32 -1 0
1
1.000000000000000 0.000000000000000 0.000000000000000 146.462047247211274 
0.000000000000000 1.000000000000000 0.000000000000000 101.157642895411811 
0.000000000000000 0.000000000000000 1.000000000000000 0.000000000000000 
2  10 1 11 1 12 -1 2 1 3 -1 36 -1 0
1
1.000000000000000 0.000000000000000 0.000000000000000 56.245501206300993 
0.000000000000000 1.000000000000000 0.000000000000000 168.352884127513505 
0.000000000000000 0.000000000000000 1.000000000000000 0.000000000000000 
2  10 1 11 1 12 -1 2 1 3 -1 38 -1 0
2  10 1 11 1 12 -1 14 1 2 1 3 -1 0
2  7 1 8 1 9 1 10 1 11 1 12 -1 14 1 2 1 3 -1 0
2  6 1 22 1 9 1 10 1 11 1 12 -1 14 1 2 1 3 -1 0
2  32 -1 0
2  36 -1 0
2  33 -1 0
2  38 -1 0
Curve2ds 56
1 0.53757250073266782 0.00000000000000000 0.00000000000000000 -1.00000000000000000 
1 6.82075780791225483 0.00000000000000000 0.00000000000000000 -1.00000000000000000 
1 1.57079632679489656 0.00000000000000000 0.00000000000000000 -1.00000000000000000 
1 1.57079632679489656 0.00000000000000000 0.00000000000000000 -1.00000000000000000 
1 0.00000000000000000 0.00000000000000000 1.00000000000000000 0.00000000000000000 
1 0.00000000000000000 -3.00000000000000000 1.00000000000000000 0.00000000000000000 
2 0.00000000000000254 -144.84836341909760904 -1.00000000000000000 0.00000000000000000 0.00000000000000000 1.00000000000000000 185.00000000000000000
1 5.43507121257458259 0.00000000000000000 0.00000000000000000 -1.00000000000000000 
1 6.28318530717958978 0.00000000000000000 0.00000000000000000 -1.00000000000000000 
1 0.00000000000000000 0.00000000000000000 1.00000000000000000 0.00000000000000000 
1 0.00000000000000000 -3.00000000000000000 1.00000000000000000 0.00000000000000000 
2 -156.75914473933582372 -51.39880194023376703 -1.00000000000000000 0.00000000000000000 0.00000000000000000 1.00000000000000000 2.50000000000000000
1 6.82075780791225483 0.00000000000000000 0.00000000000000000 -1.00000000000000000 
1 0.53757250073266782 0.00000000000000000 0.00000000000000000 -1.00000000000000000 
1 0.00000000000000000 0.00000000000000000 1.00000000000000000 0.00000000000000000 
1 0.00000000000000000 -3.00000000000000000 1.00000000000000000 0.00000000000000000 
2 0.00000000000000254 -144.84836341909760904 1.00000000000000000 0.00000000000000000 -0.00000000000000000 1.00000000000000000 185.00000000000000000
1 0.00000000000000000 0.00000000000000000 1.00000000000000000 0.00000000000000000 
1 0.00000000000000000 -3.00000000000000000 1.00000000000000000 0.00000000000000000 
3 -145.18466547414581669 -38.27319986872150537 -0.66139881515371457 -0.75003440408641431 -0.75003440408641431 0.66139881515371457 19.99999999999999645 10.00000000000001243
1 0.00000000000000000 0.00000000000000000 1.00000000000000000 0.00000000000000000 
1 0.00000000000000000 -3.00000000000000000 1.00000000000000000 0.00000000000000000 
2 156.75914473933582372 -51.39880194023376703 1.00000000000000000 0.00000000000000000 -0.00000000000000000 1.00000000000000000 2.50000000000000000
1 0.00000000000000000 0.00000000000000000 1.00000000000000000 0.00000000000000000 
1 0.00000000000000000 -3.00000000000000000 1.00000000000000000 0.00000000000000000 
2 0.00000000000000254 -144.84836341909760904 -1.00000000000000000 0.00000000000000000 0.00000000000000000 1.00000000000000000 170.00000000000000000
1 0.00000000000000000 0.00000000000000000 1.00000000000000000 0.00000000000000000 
1 0.00000000000000000 -3.00000000000000000 1.00000000000000000 0.00000000000000000 
3 145.18466547414581669 -38.27319986872150537 0.66139881515371457 -0.75003440408641431 0.75003440408641431 0.66139881515371457 19.99999999999999645 10.00000000000001243
1 0.00000000000000000 0.00000000000000000 1.00000000000000000 0.00000000000000000 
1 0.00000000000000000 -3.00000000000000000 1.00000000000000000 0.00000000000000000 
2 0.00000000000000254 -144.84836341909760904 1.00000000000000000 0.00000000000000000 -0.00000000000000000 1.00000000000000000 170.00000000000000000
2 0.00000000000000000 0.00000000000000000 -1.00000000000000000 0.00000000000000000 0.00000000000000000 1.00000000000000000 1.69999999999999996
1 0.00000000000000000 0.00000000000000000 1.00000000000000000 0.00000000000000000 
2 -56.24550120630099315 23.50452070841589602 -1.00000000000000000 0.00000000000000000 0.00000000000000000 1.00000000000000000 1.70000000000000284
2 -146.46204724721127377 -43.69072052368579762 -1.00000000000000000 0.00000000000000000 0.00000000000000000 1.00000000000000000 1.69999999999998863
2 146.46204724721127377 -43.69072052368579762 -1.00000000000000000 0.00000000000000000 0.00000000000000000 1.00000000000000000 1.69999999999998863
2 56.24550120630099315 23.50452070841589602 -1.00000000000000000 0.00000000000000000 0.00000000000000000 1.00000000000000000 1.70000000000000284
2 -146.46204724721127377 -43.69072052368579762 -1.00000000000000000 0.00000000000000000 -0.00000000000000000 -1.00000000000000000 1.69999999999999996
1 6.28318530717958623 3.00000000000000000 -1.00000000000000000 0.00000000000000000 
2 146.46204724721127377 -43.69072052368579762 -1.00000000000000000 0.00000000000000000 -0.00000000000000000 -1.00000000000000000 1.69999999999999996
1 6.28318530717958623 3.00000000000000000 -1.00000000000000000 0.00000000000000000 
2 -56.24550120630099315 23.50452070841589602 -1.00000000000000000 0.00000000000000000 -0.00000000000000000 -1.00000000000000000 1.69999999999999996
1 6.28318530717958623 3.00000000000000000 -1.00000000000000000 0.00000000000000000 
2 56.24550120630099315 23.50452070841589602 -1.00000000000000000 0.00000000000000000 -0.00000000000000000 -1.00000000000000000 1.69999999999999996
1 6.28318530717958623 3.00000000000000000 -1.00000000000000000 0.00000000000000000 
1 4.55964175914443359 0.00000000000000000 0.00000000000000000 -1.00000000000000000 
1 0.64586053017777578 0.00000000000000000 0.00000000000000000 -1.00000000000000000 
1 6.28318530717958978 0.00000000000000000 0.00000000000000000 -1.00000000000000000 
1 5.43507121257458259 0.00000000000000000 0.00000000000000000 -1.00000000000000000 
1 1.57079632679489656 0.00000000000000000 0.00000000000000000 -1.00000000000000000 
1 1.57079632679489656 0.00000000000000000 0.00000000000000000 -1.00000000000000000 
1 0.64586053017777578 0.00000000000000000 0.00000000000000000 -1.00000000000000000 
1 4.55964175914443359 0.00000000000000000 0.00000000000000000 -1.00000000000000000 
1 6.28318530717958623 0.00000000000000000 0.00000000000000000 1.00000000000000000 
1 0.00000000000000000 0.00000000000000000 0.00000000000000000 1.00000000000000000 
Curves 22
1 -158.90653028371031041 94.72969245802636351 0.00000000000000000 0.00000000000000000 0.00000000000000000 1.00000000000000000 
1 -0.00000000000000000 185.00000000000000000 0.00000000000000000 0.00000000000000000 0.00000000000000000 1.00000000000000000 
2 0.00000000000000000 0.00000000000000000 0.00000000000000000 0.00000000000000000 0.00000000000000000 -1.00000000000000000 -1.00000000000000000 -0.00000000000000000 -0.00000000000000000 -0.00000000000000000 1.00000000000000000 0.00000000000000000 185.00000000000000000
1 -158.41264177722013073 91.57447546864781884 0.00000000000000000 0.00000000000000000 0.00000000000000000 1.00000000000000000 
2 -156.75914473933582372 93.44956147886384201 0.00000000000000000 0.00000000000000000 0.00000000000000000 -1.00000000000000000 -1.00000000000000000 -0.00000000000000000 -0.00000000000000000 -0.00000000000000000 1.00000000000000000 0.00000000000000000 2.50000000000000000
1 158.90653028371031041 94.72969245802636351 0.00000000000000000 0.00000000000000000 0.00000000000000000 1.00000000000000000 
2 0.00000000000000000 0.00000000000000000 0.00000000000000000 0.00000000000000000 0.00000000000000000 1.00000000000000000 1.00000000000000000 0.00000000000000000 -0.00000000000000000 -0.00000000000000000 1.00000000000000000 0.00000000000000000 185.00000000000000000
3 -145.18466547414581669 106.57516355037610367 0.00000000000000000 0.00000000000000000 0.00000000000000000 -1.00000000000000000 -0.66139881515371457 -0.75003440408641431 -0.00000000000000000 -0.75003440408641431 0.66139881515371457 0.00000000000000000 20.00000000000000000 10.00000000000001066
2 156.75914473933582372 93.44956147886384201 0.00000000000000000 0.00000000000000000 0.00000000000000000 1.00000000000000000 1.00000000000000000 0.00000000000000000 -0.00000000000000000 -0.00000000000000000 1.00000000000000000 0.00000000000000000 2.50000000000000000
2 0.00000000000000000 0.00000000000000000 0.00000000000000000 0.00000000000000000 0.00000000000000000 -1.00000000000000000 -1.00000000000000000 -0.00000000000000000 -0.00000000000000000 -0.00000000000000000 1.00000000000000000 0.00000000000000000 170.00000000000000000
3 145.18466547414581669 106.57516355037610367 0.00000000000000000 -0.00000000000000000 0.00000000000000000 1.00000000000000000 0.66139881515371457 -0.75003440408641431 0.00000000000000000 0.75003440408641431 0.66139881515371457 0.00000000000000000 20.00000000000000000 10.00000000000001066
2 0.00000000000000000 0.00000000000000000 0.00000000000000000 0.00000000000000000 0.00000000000000000 1.00000000000000000 1.00000000000000000 0.00000000000000000 -0.00000000000000000 -0.00000000000000000 1.00000000000000000 0.00000000000000000 170.00000000000000000
2 0.00000000000000000 0.00000000000000000 0.00000000000000000 -0.00000000000000000 -0.00000000000000000 -1.00000000000000000 -1.00000000000000000 0.00000000000000000 0.00000000000000000 0.00000000000000000 1.00000000000000000 -0.00000000000000000 1.69999999999999996
2 -146.46204724721127377 101.15764289541181142 3.00000000000000000 0.00000000000000000 0.00000000000000000 1.00000000000000000 -1.00000000000000000 0.00000000000000000 0.00000000000000000 0.00000000000000000 -1.00000000000000000 0.00000000000000000 1.69999999999999996
2 146.46204724721127377 101.15764289541181142 3.00000000000000000 0.00000000000000000 0.00000000000000000 1.00000000000000000 -1.00000000000000000 0.00000000000000000 0.00000000000000000 0.00000000000000000 -1.00000000000000000 0.00000000000000000 1.69999999999999996
2 -56.24550120630099315 168.35288412751350506 3.00000000000000000 0.00000000000000000 0.00000000000000000 1.00000000000000000 -1.00000000000000000 0.00000000000000000 0.00000000000000000 0.00000000000000000 -1.00000000000000000 0.00000000000000000 1.69999999999999996
2 56.24550120630099315 168.35288412751350506 3.00000000000000000 0.00000000000000000 0.00000000000000000 1.00000000000000000 -1.00000000000000000 0.00000000000000000 0.00000000000000000 0.00000000000000000 -1.00000000000000000 0.00000000000000000 1.69999999999999996
1 -135.75896069513510156 102.32059710037250966 0.00000000000000000 0.00000000000000000 0.00000000000000000 1.00000000000000000 
1 158.41264177722013073 91.57447546864781884 0.00000000000000000 0.00000000000000000 0.00000000000000000 1.00000000000000000 
1 -0.00000000000000000 170.00000000000000000 0.00000000000000000 0.00000000000000000 0.00000000000000000 1.00000000000000000 
1 135.75896069513510156 102.32059710037250966 0.00000000000000000 0.00000000000000000 0.00000000000000000 1.00000000000000000 
1 -1.69999999999999996 0.00000000000000000 0.00000000000000000 0.00000000000000006 0.00000000000000000 1.00000000000000000 
Polygon3D 0
PolygonOnTriangulations 0
Surfaces 11
2 0.00000000000000000 0.00000000000000000 0.00000000000000000 0.00000000000000000 0.00000000000000000 -1.00000000000000000 -1.00000000000000000 -0.00000000000000000 -0.00000000000000000 -0.00000000000000000 1.00000000000000000 0.00000000000000000 185.00000000000000000
2 -156.75914473933582372 93.44956147886384201 0.00000000000000000 0.00000000000000000 0.00000000000000000 -1.00000000000000000 -1.00000000000000000 -0.00000000000000000 -0.00000000000000000 -0.00000000000000000 1.00000000000000000 0.00000000000000000 2.50000000000000000
2 0.00000000000000000 0.00000000000000000 0.00000000000000000 -0.00000000000000000 -0.00000000000000000 -1.00000000000000000 1.00000000000000000 0.00000000000000000 0.00000000000000000 -0.00000000000000000 1.00000000000000000 -0.00000000000000000 185.00000000000000000
1 -0.00000000000000254 144.84836341909760904 0.00000000000000000 0.00000000000000000 0.00000000000000000 1.00000000000000000 1.00000000000000000 0.00000000000000000 -0.00000000000000000 -0.00000000000000000 1.00000000000000000 0.00000000000000000 
6 -0.00000000000000000 -0.00000000000000000 -1.00000000000000000 
3 -145.18466547414581669 106.57516355037610367 0.00000000000000000 0.00000000000000000 0.00000000000000000 -1.00000000000000000 -0.66139881515371457 -0.75003440408641431 -0.00000000000000000 -0.75003440408641431 0.66139881515371457 0.00000000000000000 20.00000000000000000 10.00000000000001066
2 156.75914473933582372 93.44956147886384201 0.00000000000000000 -0.00000000000000000 -0.00000000000000000 -1.00000000000000000 1.00000000000000000 0.00000000000000000 0.00000000000000000 -0.00000000000000000 1.00000000000000000 -0.00000000000000000 2.50000000000000000
2 0.00000000000000000 0.00000000000000000 0.00000000000000000 0.00000000000000000 0.00000000000000000 -1.00000000000000000 -1.00000000000000000 -0.00000000000000000 -0.00000000000000000 -0.00000000000000000 1.00000000000000000 0.00000000000000000 170.00000000000000000
6 -0.00000000000000000 -0.00000000000000000 -1.00000000000000000 
3 145.18466547414581669 106.57516355037610367 0.00000000000000000 -0.00000000000000000 0.00000000000000000 1.00000000000000000 0.66139881515371457 -0.75003440408641431 0.00000000000000000 0.75003440408641431 0.66139881515371457 0.00000000000000000 20.00000000000000000 10.00000000000001066
2 0.00000000000000000 0.00000000000000000 0.00000000000000000 -0.00000000000000000 -0.00000000000000000 -1.00000000000000000 1.00000000000000000 0.00000000000000000 0.00000000000000000 -0.00000000000000000 1.00000000000000000 -0.00000000000000000 170.00000000000000000
1 0.00000000000000000 0.00000000000000000 0.00000000000000000 -0.00000000000000000 -0.00000000000000000 -1.00000000000000000 1.00000000000000000 -0.00000000000000000 0.00000000000000000 0.00000000000000000 1.00000000000000000 -0.00000000000000000 
2 0.00000000000000000 0.00000000000000000 0.00000000000000000 0.00000000000000000 0.00000000000000000 1.00000000000000000 -1.00000000000000000 0.00000000000000000 0.00000000000000000 -0.00000000000000000 1.00000000000000000 -0.00000000000000000 1.69999999999999996
Triangulations 0

TShapes 76
Ve
0.000000100000014
-158.906530283710310 94.729692458026364 0.000000000000000
0 0

0101101
*
Ed
 0.000000100000014 1 1 0
1  1 0 0.000000000000000 3.000000000000000
2  1 1 0 0.000000000000000 3.000000000000000
2  2 2 0 0.000000000000000 3.000000000000000
4 G1 1 0 2 0
0

0101000
+76 13 -76 15 *
Ve
0.000000100000011
-0.000000000000000 185.000000000000000 0.000000000000000
0 0

0101101
*
Ed
 0.000000100000011 1 1 0
1  2 0 0.000000000000000 3.000000000000000
2  3 1 0 0.000000000000000 3.000000000000000
2  4 3 0 0.000000000000000 3.000000000000000
4 C2 1 0 3 0
0

0101000
+74 13 -74 15 *
Ed
 0.000000100000000 1 1 0
1  3 0 0.537572500732668 1.570796326794897
2  5 1 17 0.537572500732668 1.570796326794897
2  6 1 18 0.537572500732668 1.570796326794897
2  7 4 19 0.537572500732668 1.570796326794897
0

0101000
+76 20 -74 20 *
Wi

0101100
+75 0 -73 0 -72 16 +72 21 *
Fa
0  0.000000100000000 1 0

0101000
+71 0 *
Ve
0.000000100000007
-158.412641777220131 91.574475468647819 0.000000000000000
0 0

0101101
*
Ed
 0.000000100000007 1 1 0
1  4 0 0.000000000000000 3.000000000000000
2  8 2 0 0.000000000000000 3.000000000000000
2  9 5 0 0.000000000000000 3.000000000000000
4 G1 2 0 5 0
0

0101000
+69 13 -69 15 *
Ed
 0.000000100000000 1 1 0
1  5 0 5.435071212574583 6.820757807912255
2  10 2 17 5.435071212574583 6.820757807912255
2  11 2 18 5.435071212574583 6.820757807912255
2  12 4 19 5.435071212574583 6.820757807912255
0

0101000
+69 20 -76 20 *
Wi

0101100
+68 0 -75 0 -67 16 +67 21 *
Fa
0  0.000000100000000 2 0

0101000
+66 0 *
Ve
0.000000100000014
158.906530283710310 94.729692458026364 0.000000000000000
0 0

0101101
*
Ed
 0.000000100000014 1 1 0
1  6 0 0.000000000000000 3.000000000000000
2  13 6 0 0.000000000000000 3.000000000000000
2  14 3 0 0.000000000000000 3.000000000000000
4 G1 6 0 3 0
0

0101000
+64 23 -64 24 *
Ed
 0.000000100000000 1 1 0
1  7 0 0.537572500732668 1.570796326794897
2  15 3 25 0.537572500732668 1.570796326794897
2  16 3 26 0.537572500732668 1.570796326794897
2  17 4 27 0.537572500732668 1.570796326794897
0

0101000
+64 0 -74 28 *
Wi

0101100
+63 0 -73 0 -62 23 +62 24 *
Fa
0  0.000000100000000 3 0

0101000
+61 0 *
Ve
0.000000100000032
-135.758960695135102 102.320597100372510 0.000000000000000
0 0

0101101
*
Ed
 0.000000100000000 1 1 0
1  8 0 4.559641759144434 6.283185307179590
2  18 5 17 4.559641759144434 6.283185307179590
2  19 5 18 4.559641759144434 6.283185307179590
2  20 4 19 4.559641759144434 6.283185307179590
0

0101000
+59 20 -69 20 *
Ve
0.000000100000007
158.412641777220131 91.574475468647819 0.000000000000000
0 0

0101101
*
Ed
 0.000000100000000 1 1 0
1  9 0 5.435071212574583 6.820757807912255
2  21 6 25 5.435071212574583 6.820757807912255
2  22 6 26 5.435071212574583 6.820757807912255
2  23 4 27 5.435071212574583 6.820757807912255
0

0101000
+57 0 -64 0 *
Ve
0.000000100000010
-0.000000000000000 170.000000000000000 0.000000000000000
0 0

0101101
*
Ed
 0.000000100000000 1 1 0
1  10 0 0.645860530177776 1.570796326794897
2  24 7 17 0.645860530177776 1.570796326794897
2  25 7 18 0.645860530177776 1.570796326794897
2  26 4 19 0.645860530177776 1.570796326794897
0

0101000
+59 20 -55 20 *
Ve
0.000000100000032
135.758960695135102 102.320597100372510 0.000000000000000
0 0

0101101
*
Ed
 0.000000100000000 1 1 0
1  11 0 4.559641759144434 6.283185307179590
2  27 8 25 4.559641759144434 6.283185307179590
2  28 8 26 4.559641759144434 6.283185307179590
2  29 4 27 4.559641759144434 6.283185307179590
0

0101000
+53 0 -57 0 *
Ed
 0.000000100000000 1 1 0
1  12 0 0.645860530177776 1.570796326794897
2  30 9 25 0.645860530177776 1.570796326794897
2  31 9 26 0.645860530177776 1.570796326794897
2  32 4 27 0.645860530177776 1.570796326794897
0

0101000
+53 0 -55 28 *
Wi

0101100
-72 30 -67 30 +62 31 -58 30 +56 31 +54 30 +52 31 -51 31 *
Ve
0.000000100000000
-1.700000000000000 0.000000000000000 0.000000000000000
0 0

0101101
*
Ed
 0.000000100000000 1 1 0
1  13 0 0.000000000000000 6.283185307179586
2  33 10 0 0.000000000000000 6.283185307179586
2  34 11 0 0.000000000000000 6.283185307179586
2  35 4 34 0.000000000000000 6.283185307179586
2  36 4 35 0.000000000000000 6.283185307179586
2  37 4 37 0.000000000000000 6.283185307179586
2  38 4 39 0.000000000000000 6.283185307179586
0

0101000
+49 0 -49 0 *
Wi

0101100
+48 32 *
Wi

0101100
+48 36 *
Wi

0101100
+48 33 *
Wi

0101100
+48 38 *
Fa
0  0.000000100000000 4 29

0101000
+50 0 +47 0 +46 0 +45 0 +44 0 *
Wi

0101100
-72 41 -67 41 +62 42 -58 41 +56 42 +54 41 +52 42 -51 42 *
Ve
0.000000100000000
-148.162047247211262 101.157642895411811 3.000000000000000
0 0

0101101
*
Ed
 0.000000100000000 1 1 0
1  14 0 0.000000000000000 6.283185307179586
2  39 4 40 0.000000000000000 6.283185307179586
2  40 11 32 0.000000000000000 6.283185307179586
0

0101100
+41 0 -41 0 *
Wi

0101100
-40 0 *
Ve
0.000000100000000
144.762047247211285 101.157642895411811 3.000000000000000
0 0

0101101
*
Ed
 0.000000100000000 1 1 0
1  15 0 0.000000000000000 6.283185307179586
2  41 4 40 0.000000000000000 6.283185307179586
2  42 11 36 0.000000000000000 6.283185307179586
0

0101100
+38 0 -38 0 *
Wi

0101100
-37 0 *
Ve
0.000000100000000
-57.945501206300996 168.352884127513505 3.000000000000000
0 0

0101101
*
Ed
 0.000000100000000 1 1 0
1  16 0 0.000000000000000 6.283185307179586
2  43 4 40 0.000000000000000 6.283185307179586
2  44 11 33 0.000000000000000 6.283185307179586
0

0101100
+35 0 -35 0 *
Wi

0101100
-34 0 *
Ve
0.000000100000000
54.545501206300990 168.352884127513505 3.000000000000000
0 0

0101101
*
Ed
 0.000000100000000 1 1 0
1  17 0 0.000000000000000 6.283185307179586
2  45 4 40 0.000000000000000 6.283185307179586
2  46 11 38 0.000000000000000 6.283185307179586
0

0101100
+32 0 -32 0 *
Wi

0101100
-31 0 *
Fa
0  0.000000100000000 4 40

0101000
+42 0 +39 0 +36 0 +33 0 +30 0 *
Ed
 0.000000100000032 1 1 0
1  18 0 0.000000000000000 3.000000000000000
2  47 5 0 0.000000000000000 3.000000000000000
2  48 7 0 0.000000000000000 3.000000000000000
4 G1 5 0 7 0
0

0101000
+59 13 -59 15 *
Wi

0101100
+28 0 -68 0 -58 16 +58 21 *
Fa
0  0.000000100000000 5 0

0101000
+27 0 *
Ed
 0.000000100000007 1 1 0
1  19 0 0.000000000000000 3.000000000000000
2  49 8 0 0.000000000000000 3.000000000000000
2  50 6 0 0.000000000000000 3.000000000000000
4 G1 8 0 6 0
0

0101000
+57 23 -57 24 *
Wi

0101100
+25 0 -63 0 -56 23 +56 24 *
Fa
0  0.000000100000000 6 0

0101000
+24 0 *
Ed
 0.000000100000010 1 1 0
1  20 0 0.000000000000000 3.000000000000000
2  51 7 0 0.000000000000000 3.000000000000000
2  52 9 0 0.000000000000000 3.000000000000000
4 C2 7 0 9 0
0

0101000
+55 13 -55 15 *
Wi

0101100
+28 0 -22 0 -54 16 +54 21 *
Fa
0  0.000000100000000 7 0

0101000
+21 0 *
Ed
 0.000000100000032 1 1 0
1  21 0 0.000000000000000 3.000000000000000
2  53 9 0 0.000000000000000 3.000000000000000
2  54 8 0 0.000000000000000 3.000000000000000
4 G1 9 0 8 0
0

0101000
+53 23 -53 24 *
Wi

0101100
+19 0 -25 0 -52 23 +52 24 *
Fa
0  0.000000100000000 8 0

0101000
+18 0 *
Wi

0101100
+19 0 -22 0 -51 23 +51 24 *
Fa
0  0.000000100000000 9 0

0101000
+16 0 *
Ed
 0.000000100000000 1 1 0
1  22 0 0.000000000000000 3.000000000000000
3  55 56CN 11 0 0.000000000000000 3.000000000000000
0

0101000
+49 0 -41 43 *
Wi

0101100
-14 32 +40 0 +14 32 +48 32 *
Fa
0  0.000000100000000 11 32

0101000
+13 0 *
Ed
 0.000000100000000 1 1 0
1  22 0 0.000000000000000 3.000000000000000
3  55 56CN 11 0 0.000000000000000 3.000000000000000
0

0101000
+49 0 -38 44 *
Wi

0101100
-11 36 +37 0 +11 36 +48 36 *
Fa
0  0.000000100000000 11 36

0101000
+10 0 *
Ed
 0.000000100000000 1 1 0
1  22 0 0.000000000000000 3.000000000000000
3  55 56CN 11 0 0.000000000000000 3.000000000000000
0

0101000
+49 0 -35 45 *
Wi

0101100
-8 33 +34 0 +8 33 +48 33 *
Fa
0  0.000000100000000 11 33

0101000
+7 0 *
Ed
 0.000000100000000 1 1 0
1  22 0 0.000000000000000 3.000000000000000
3  55 56CN 11 0 0.000000000000000 3.000000000000000
0

0101000
+49 0 -32 46 *
Wi

0101100
-5 38 +31 0 +5 38 +48 38 *
Fa
0  0.000000100000000 11 38

0101000
+4 0 *
Sh

0101100
+70 4 +65 4 -60 4 -43 0 +29 0 +26 4 -23 4 -20 4 -17 4 +15 4 
+12 0 +9 0 +6 0 +3 0 *
So

0100000
+2 0 *

+1 1 