
CASCADE Topology V1, (c) Matra-Datavision
Locations 8
1
1.000000000000000 0.000000000000000 0.000000000000000 0.000000000000000 
0.000000000000000 1.000000000000000 0.000000000000000 0.000000000000000 
0.000000000000000 0.000000000000000 1.000000000000000 0.000000000000000 
1
1.000000000000000 0.000000000000000 0.000000000000000 0.000000000000000 
0.000000000000000 1.000000000000000 0.000000000000000 0.000000000000000 
0.000000000000000 0.000000000000000 1.000000000000000 0.000000000000000 
1
1.000000000000000 0.000000000000000 0.000000000000000 0.000000000000000 
0.000000000000000 1.000000000000000 0.000000000000000 0.000000000000000 
0.000000000000000 0.000000000000000 1.000000000000000 0.000000000000000 
2  1 1 2 1 3 -1 0
1
1.000000000000000 0.000000000000000 0.000000000000000 0.000000000000000 
0.000000000000000 1.000000000000000 0.000000000000000 0.000000000000000 
0.000000000000000 0.000000000000000 1.000000000000000 3.000000000000000 
2  1 1 2 1 3 -1 5 1 0
2  3 1 2 -1 1 -1 0
2  5 -1 3 1 2 -1 1 -1 0
Curve2ds 90
1 3.33445468330086392 0.00000000000000000 0.00000000000000000 -1.00000000000000000 
1 6.47604733689065526 0.00000000000000000 0.00000000000000000 -1.00000000000000000 
1 3.66519142925880548 0.00000000000000000 0.00000000000000000 -1.00000000000000000 
1 2.94873062387872187 0.00000000000000000 0.00000000000000000 -1.00000000000000000 
1 0.00000000000000000 0.00000000000000000 1.00000000000000000 0.00000000000000000 
1 0.00000000000000000 -3.00000000000000000 1.00000000000000000 0.00000000000000000 
2 930.37557344124957126 537.15258786147887804 1.00000000000000000 0.00000000000000000 -0.00000000000000000 1.00000000000000000 901.30517559137683747
1 2.61799387792078031 0.00000000000000000 0.00000000000000000 -1.00000000000000000 
1 6.47604733689065792 0.00000000000000000 0.00000000000000000 -1.00000000000000000 
1 0.00000000000000000 0.00000000000000000 1.00000000000000000 0.00000000000000000 
1 0.00000000000000000 -3.00000000000000000 1.00000000000000000 0.00000000000000000 
7 0 0  6 7 2  338.47065402137445744 -142.55292631601719222  301.00338904903054527 -109.92547516415335451  265.69434375276279070 -74.81966408958932391  232.74843721585187950 -37.41394119069283875  202.35092505806042595 2.09064231225897945  174.66362325525165033 43.47373028081047153  149.82239484880247460 86.50000001022721108 
 2.61799387792078031 7 2.94873062387872187 7
1 7.80305559099072621 0.00000000000000000 0.00000000000000000 -1.00000000000000000 
1 1.51987028381113998 0.00000000000000000 0.00000000000000000 -1.00000000000000000 
1 0.00000000000000000 0.00000000000000000 1.00000000000000000 0.00000000000000000 
1 0.00000000000000000 -3.00000000000000000 1.00000000000000000 0.00000000000000000 
2 320.08250071357934985 -163.66869809753302434 0.50000000000000033 0.86602540378443860 0.86602540378443860 -0.50000000000000033 28.00000000000018829
1 1.57079632679489589 0.00000000000000000 0.00000000000000000 -1.00000000000000000 
1 1.57079632679489656 0.00000000000000000 0.00000000000000000 -1.00000000000000000 
1 0.00000000000000000 0.00000000000000000 1.00000000000000000 0.00000000000000000 
1 0.00000000000000000 -3.00000000000000000 1.00000000000000000 0.00000000000000000 
2 -0.00000000000013429 0.00000000000000467 0.50000000000000033 0.86602540378443860 0.86602540378443860 -0.50000000000000033 387.50000000000022737
1 1.51987028381113998 0.00000000000000000 0.00000000000000000 -1.00000000000000000 
1 7.80305559099072710 0.00000000000000000 0.00000000000000000 -1.00000000000000000 
1 0.00000000000000000 0.00000000000000000 1.00000000000000000 0.00000000000000000 
1 0.00000000000000000 -3.00000000000000000 1.00000000000000000 0.00000000000000000 
2 0.00000000000006510 0.00000000000035004 -0.50000000000000033 -0.86602540378443860 0.86602540378443860 -0.50000000000000033 387.50000000000022737
1 6.47604733689065615 0.00000000000000000 0.00000000000000000 -1.00000000000000000 
1 3.33445468330086392 0.00000000000000000 0.00000000000000000 -1.00000000000000000 
1 0.00000000000000000 0.00000000000000000 1.00000000000000000 0.00000000000000000 
1 0.00000000000000000 -3.00000000000000000 1.00000000000000000 0.00000000000000000 
2 301.78250071357916795 -195.36522787604383211 -0.50000000000000033 -0.86602540378443860 0.86602540378443860 -0.50000000000000033 28.00000000000018829
1 3.66519142925880548 0.00000000000000000 0.00000000000000000 -1.00000000000000000 
1 2.94873062387872187 0.00000000000000000 0.00000000000000000 -1.00000000000000000 
1 0.00000000000000000 0.00000000000000000 1.00000000000000000 0.00000000000000000 
1 0.00000000000000000 -3.00000000000000000 1.00000000000000000 0.00000000000000000 
2 0.00000007596821679 -1074.30517559137615535 -0.50000000000000033 -0.86602540378443860 0.86602540378443860 -0.50000000000000033 901.30517559137695116
1 2.61799387792078031 0.00000000000000000 0.00000000000000000 -1.00000000000000000 
1 6.47604733689065792 0.00000000000000000 0.00000000000000000 -1.00000000000000000 
1 0.00000000000000000 0.00000000000000000 1.00000000000000000 0.00000000000000000 
1 0.00000000000000000 -3.00000000000000000 1.00000000000000000 0.00000000000000000 
7 0 0  6 7 2  -292.68978258416933613 -221.84772166003551774  -245.69994853974756666 -205.71384395959481139  -197.64290168058366248 -192.68821928693245127  -148.77564213476330224 -182.85908872471011932  -99.36491317638696330 -176.28636273568994852  -49.68245680717132018 -172.99999999648815674  0.00000001180959627 -172.99999999999937472 
 2.61799387792078031 7 2.94873062387872187 7
1 7.80305559099072532 0.00000000000000000 0.00000000000000000 -1.00000000000000000 
1 1.51987028381113998 0.00000000000000000 0.00000000000000000 -1.00000000000000000 
1 0.00000000000000000 0.00000000000000000 1.00000000000000000 0.00000000000000000 
1 0.00000000000000000 -3.00000000000000000 1.00000000000000000 0.00000000000000000 
2 -301.78250071357899742 -195.36522787604411633 0.50000000000000056 -0.86602540378443837 -0.86602540378443837 -0.50000000000000056 28.00000000000018829
1 1.57079632679489567 0.00000000000000000 0.00000000000000000 -1.00000000000000000 
1 1.57079632679489678 0.00000000000000000 0.00000000000000000 -1.00000000000000000 
1 0.00000000000000000 0.00000000000000000 1.00000000000000000 0.00000000000000000 
1 0.00000000000000000 -3.00000000000000000 1.00000000000000000 0.00000000000000000 
2 -0.00000000000000079 0.00000000000022214 0.50000000000000056 -0.86602540378443837 -0.86602540378443837 -0.50000000000000056 387.50000000000028422
1 1.51987028381113998 0.00000000000000000 0.00000000000000000 -1.00000000000000000 
1 7.80305559099072621 0.00000000000000000 0.00000000000000000 -1.00000000000000000 
1 0.00000000000000000 0.00000000000000000 1.00000000000000000 0.00000000000000000 
1 0.00000000000000000 -3.00000000000000000 1.00000000000000000 0.00000000000000000 
2 0.00000000000019860 -0.00000000000012323 -0.50000000000000056 0.86602540378443837 -0.86602540378443837 -0.50000000000000056 387.50000000000028422
1 6.47604733689065526 0.00000000000000000 0.00000000000000000 -1.00000000000000000 
1 3.33445468330086392 0.00000000000000000 0.00000000000000000 -1.00000000000000000 
1 0.00000000000000000 0.00000000000000000 1.00000000000000000 0.00000000000000000 
1 0.00000000000000000 -3.00000000000000000 1.00000000000000000 0.00000000000000000 
2 -320.08250071357917932 -163.66869809753328013 -0.50000000000000056 0.86602540378443837 -0.86602540378443837 -0.50000000000000056 28.00000000000016342
1 3.66519142925880592 0.00000000000000000 0.00000000000000000 -1.00000000000000000 
1 2.94873062387872187 0.00000000000000000 0.00000000000000000 -1.00000000000000000 
1 0.00000000000000000 0.00000000000000000 1.00000000000000000 0.00000000000000000 
1 0.00000000000000000 -3.00000000000000000 1.00000000000000000 0.00000000000000000 
2 -930.37557351721864052 537.15258772989716363 -0.50000000000000056 0.86602540378443837 -0.86602540378443837 -0.50000000000000056 901.30517559137695116
1 2.61799387792078031 0.00000000000000000 0.00000000000000000 -1.00000000000000000 
1 6.47604733689065704 0.00000000000000000 0.00000000000000000 -1.00000000000000000 
1 0.00000000000000000 0.00000000000000000 1.00000000000000000 0.00000000000000000 
1 0.00000000000000000 -3.00000000000000000 1.00000000000000000 0.00000000000000000 
7 0 0  6 7 2  -45.78087143720502894 364.40064797605265312  -55.30344050928283650 315.63931912374829380  -68.05144207217874452 267.50788337652267046  -83.97279508108854884 220.27302991540167909  -102.98601188167313580 174.19572042343216367  -124.98116644808035858 129.52626971567747205  -149.82239486061229172 86.49999998977241944 
 2.61799387792078031 7 2.94873062387872187 7
1 7.80305559099072621 0.00000000000000000 0.00000000000000000 -1.00000000000000000 
1 1.51987028381113998 0.00000000000000000 0.00000000000000000 -1.00000000000000000 
1 0.00000000000000000 0.00000000000000000 1.00000000000000000 0.00000000000000000 
1 0.00000000000000000 -3.00000000000000000 1.00000000000000000 0.00000000000000000 
2 -18.30000000000021743 359.03392597357702698 -1.00000000000000000 0.00000000000000000 0.00000000000000000 1.00000000000000000 28.00000000000015632
1 1.57079632679489567 0.00000000000000000 0.00000000000000000 -1.00000000000000000 
1 1.57079632679489656 0.00000000000000000 0.00000000000000000 -1.00000000000000000 
1 0.00000000000000000 0.00000000000000000 1.00000000000000000 0.00000000000000000 
1 0.00000000000000000 -3.00000000000000000 1.00000000000000000 0.00000000000000000 
2 0.00000000000017826 0.00000000000001764 -1.00000000000000000 0.00000000000000000 0.00000000000000000 1.00000000000000000 387.50000000000011369
1 1.51987028381113998 0.00000000000000000 0.00000000000000000 -1.00000000000000000 
1 7.80305559099072621 0.00000000000000000 0.00000000000000000 -1.00000000000000000 
1 0.00000000000000000 0.00000000000000000 1.00000000000000000 0.00000000000000000 
1 0.00000000000000000 -3.00000000000000000 1.00000000000000000 0.00000000000000000 
2 -0.00000000000022053 0.00000000000001764 1.00000000000000000 0.00000000000000000 -0.00000000000000000 1.00000000000000000 387.50000000000011369
1 0.00000000000000000 0.00000000000000000 1.00000000000000000 0.00000000000000000 
1 0.00000000000000000 -3.00000000000000000 1.00000000000000000 0.00000000000000000 
2 18.30000000000017479 359.03392597357702698 1.00000000000000000 0.00000000000000000 -0.00000000000000000 1.00000000000000000 28.00000000000015632
Curves 36
1 45.78087143720472341 364.40064797605305102 0.00000000000000000 0.00000000000000000 0.00000000000000000 1.00000000000000000 
1 149.82239484869634794 86.50000001041098585 0.00000000000000000 0.00000000000000000 0.00000000000000000 1.00000000000000000 
2 930.37557344124957126 537.15258786147876435 0.00000000000000000 0.00000000000000000 -0.00000000000000000 1.00000000000000000 1.00000000000000000 0.00000000000000000 0.00000000000000000 -0.00000000000000000 1.00000000000000000 0.00000000000000000 901.30517559137683747
1 338.47065402137445744 -142.55292631601724906 0.00000000000000000 0.00000000000000000 0.00000000000000000 1.00000000000000000 
7 0 0  6 7 2  338.47065402137445744 -142.55292631601724906 0.00000000000000000  301.00338904903054527 -109.92547516415341136 0.00000000000000000  265.69434375276279070 -74.81966408958938075 0.00000000000000000  232.74843721585190792 -37.41394119069289559 0.00000000000000000  202.35092505806045438 2.09064231225892172 0.00000000000000000  174.66362325525167876 43.47373028081041468 0.00000000000000000  149.82239484880250302 86.50000001022715423 0.00000000000000000 
 2.61799387792078031 7 2.94873062387872187 7
1 345.01243122812815045 -176.41619057800861015 0.00000000000000000 0.00000000000000000 0.00000000000000000 1.00000000000000000 
2 320.08250071357934985 -163.66869809753308118 0.00000000000000000 0.00000000000000000 0.00000000000000000 -1.00000000000000000 0.50000000000000033 0.86602540378443860 0.00000000000000000 0.86602540378443860 -0.50000000000000033 0.00000000000000000 28.00000000000018829
1 335.58484396647008907 -193.75000000000002842 0.00000000000000000 0.00000000000000000 0.00000000000000000 1.00000000000000000 
2 -0.00000000000011316 -0.00000000000005313 0.00000000000000000 0.00000000000000000 0.00000000000000000 -1.00000000000000000 0.50000000000000033 0.86602540378443860 0.00000000000000000 0.86602540378443860 -0.50000000000000033 0.00000000000000000 387.50000000000017053
1 325.28711829349651907 -210.58143477598630966 0.00000000000000000 0.00000000000000000 0.00000000000000000 1.00000000000000000 
2 0.00000000000008624 0.00000000000029224 0.00000000000000000 0.00000000000000000 0.00000000000000000 1.00000000000000000 -0.50000000000000033 -0.86602540378443860 0.00000000000000000 0.86602540378443860 -0.50000000000000033 0.00000000000000000 387.50000000000017053
1 292.68978258417030247 -221.84772166003506300 0.00000000000000000 0.00000000000000000 0.00000000000000000 1.00000000000000000 
2 301.78250071357916795 -195.36522787604388895 0.00000000000000000 0.00000000000000000 0.00000000000000000 1.00000000000000000 -0.50000000000000033 -0.86602540378443860 0.00000000000000000 0.86602540378443860 -0.50000000000000033 0.00000000000000000 28.00000000000018829
1 0.00000001202193862 -172.99999999999937472 0.00000000000000000 0.00000000000000000 0.00000000000000000 1.00000000000000000 
2 0.00000007596823792 -1074.30517559137615535 0.00000000000000000 0.00000000000000000 0.00000000000000000 1.00000000000000000 -0.50000000000000033 -0.86602540378443860 0.00000000000000000 0.86602540378443860 -0.50000000000000033 0.00000000000000000 901.30517559137672379
1 -292.68978258416933613 -221.84772166003554617 0.00000000000000000 0.00000000000000000 0.00000000000000000 1.00000000000000000 
7 0 0  6 7 2  -292.68978258416933613 -221.84772166003557459 0.00000000000000000  -245.69994853974753823 -205.71384395959486824 0.00000000000000000  -197.64290168058363406 -192.68821928693250811 0.00000000000000000  -148.77564213476327382 -182.85908872471017617 0.00000000000000000  -99.36491317638694909 -176.28636273569000537 0.00000000000000000  -49.68245680717129886 -172.99999999648821358 0.00000000000000000  0.00000001180961741 -172.99999999999943157 0.00000000000000000 
 2.61799387792078031 7 2.94873062387872187 7
1 -325.28711829349629170 -210.58143477598656546 0.00000000000000000 0.00000000000000000 0.00000000000000000 1.00000000000000000 
2 -301.78250071357899742 -195.36522787604417317 0.00000000000000000 -0.00000000000000000 0.00000000000000000 -1.00000000000000000 0.50000000000000056 -0.86602540378443837 -0.00000000000000000 -0.86602540378443837 -0.50000000000000056 0.00000000000000000 28.00000000000018829
1 -335.58484396646991854 -193.75000000000051159 0.00000000000000000 0.00000000000000000 0.00000000000000000 1.00000000000000000 
2 0.00000000000002034 0.00000000000016434 0.00000000000000000 -0.00000000000000000 0.00000000000000000 -1.00000000000000000 0.50000000000000056 -0.86602540378443837 -0.00000000000000000 -0.86602540378443837 -0.50000000000000056 0.00000000000000000 387.50000000000028422
1 -345.01243122812809361 -176.41619057800892278 0.00000000000000000 0.00000000000000000 0.00000000000000000 1.00000000000000000 
2 0.00000000000021974 -0.00000000000018103 0.00000000000000000 0.00000000000000000 0.00000000000000000 1.00000000000000000 -0.50000000000000056 0.86602540378443837 0.00000000000000000 -0.86602540378443837 -0.50000000000000056 0.00000000000000000 387.50000000000028422
1 -338.47065402137457113 -142.55292631601838593 0.00000000000000000 0.00000000000000000 0.00000000000000000 1.00000000000000000 
2 -320.08250071357917932 -163.66869809753333698 0.00000000000000000 0.00000000000000000 0.00000000000000000 1.00000000000000000 -0.50000000000000056 0.86602540378443837 0.00000000000000000 -0.86602540378443837 -0.50000000000000056 0.00000000000000000 28.00000000000016342
1 -149.82239486071830470 86.49999998958865888 0.00000000000000000 0.00000000000000000 0.00000000000000000 1.00000000000000000 
2 -930.37557351721864052 537.15258772989704994 0.00000000000000000 0.00000000000000000 0.00000000000000000 1.00000000000000000 -0.50000000000000056 0.86602540378443837 0.00000000000000000 -0.86602540378443837 -0.50000000000000056 0.00000000000000000 901.30517559137695116
1 -45.78087143720501473 364.40064797605259628 0.00000000000000000 0.00000000000000000 0.00000000000000000 1.00000000000000000 
7 0 0  6 7 2  -45.78087143720500762 364.40064797605259628 0.00000000000000000  -55.30344050928281519 315.63931912374823696 0.00000000000000000  -68.05144207217873031 267.50788337652261362 0.00000000000000000  -83.97279508108853463 220.27302991540162225 0.00000000000000000  -102.98601188167312159 174.19572042343210683 0.00000000000000000  -124.98116644808034437 129.52626971567741521 0.00000000000000000  -149.82239486061226330 86.49999998977236260 0.00000000000000000 
 2.61799387792078031 7 2.94873062387872187 7
1 -19.72531293463167401 386.99762535399480612 0.00000000000000000 0.00000000000000000 0.00000000000000000 1.00000000000000000 
2 -18.30000000000019611 359.03392597357697014 0.00000000000000000 0.00000000000000000 0.00000000000000000 -1.00000000000000000 -1.00000000000000000 0.00000000000000000 0.00000000000000000 0.00000000000000000 1.00000000000000000 0.00000000000000000 28.00000000000015632
1 -0.00000000000016850 387.50000000000005684 0.00000000000000000 0.00000000000000000 0.00000000000000000 1.00000000000000000 
2 0.00000000000019940 -0.00000000000004015 0.00000000000000000 0.00000000000000000 0.00000000000000000 -1.00000000000000000 -1.00000000000000000 0.00000000000000000 0.00000000000000000 0.00000000000000000 1.00000000000000000 0.00000000000000000 387.50000000000011369
1 19.72531293463167756 386.99762535399480612 0.00000000000000000 0.00000000000000000 0.00000000000000000 1.00000000000000000 
2 -0.00000000000019940 -0.00000000000004015 0.00000000000000000 0.00000000000000000 -0.00000000000000000 1.00000000000000000 1.00000000000000000 0.00000000000000000 0.00000000000000000 -0.00000000000000000 1.00000000000000000 0.00000000000000000 387.50000000000011369
2 18.30000000000019611 359.03392597357697014 0.00000000000000000 0.00000000000000000 -0.00000000000000000 1.00000000000000000 1.00000000000000000 0.00000000000000000 0.00000000000000000 -0.00000000000000000 1.00000000000000000 0.00000000000000000 28.00000000000015632
Polygon3D 0
PolygonOnTriangulations 0
Surfaces 19
2 930.37557344124957126 537.15258786147876435 0.00000000000000000 -0.00000000000000000 -0.00000000000000000 -1.00000000000000000 1.00000000000000000 0.00000000000000000 0.00000000000000000 -0.00000000000000000 1.00000000000000000 -0.00000000000000000 901.30517559137683747
2 18.30000000000019611 359.03392597357697014 0.00000000000000000 -0.00000000000000000 -0.00000000000000000 -1.00000000000000000 1.00000000000000000 0.00000000000000000 0.00000000000000000 -0.00000000000000000 1.00000000000000000 -0.00000000000000000 28.00000000000015632
6 -0.00000000000000000 -0.00000000000000000 -1.00000000000000000 
7 0 0  6 7 2  338.47065402137445744 -142.55292631601724906 0.00000000000000000  301.00338904903054527 -109.92547516415341136 0.00000000000000000  265.69434375276279070 -74.81966408958938075 0.00000000000000000  232.74843721585190792 -37.41394119069289559 0.00000000000000000  202.35092505806045438 2.09064231225892172 0.00000000000000000  174.66362325525167876 43.47373028081041468 0.00000000000000000  149.82239484880250302 86.50000001022715423 0.00000000000000000 
 2.61799387792078031 7 2.94873062387872187 7
1 0.00000000000002114 -0.00000000000005780 0.00000000000000000 0.00000000000000000 0.00000000000000000 1.00000000000000000 1.00000000000000000 0.00000000000000000 -0.00000000000000000 -0.00000000000000000 1.00000000000000000 0.00000000000000000 
2 320.08250071357934985 -163.66869809753308118 0.00000000000000000 0.00000000000000000 0.00000000000000000 -1.00000000000000000 0.50000000000000033 0.86602540378443860 0.00000000000000000 0.86602540378443860 -0.50000000000000033 0.00000000000000000 28.00000000000018829
2 -0.00000000000011316 -0.00000000000005313 0.00000000000000000 0.00000000000000000 0.00000000000000000 -1.00000000000000000 0.50000000000000033 0.86602540378443860 0.00000000000000000 0.86602540378443860 -0.50000000000000033 0.00000000000000000 387.50000000000017053
2 0.00000000000008624 0.00000000000029224 0.00000000000000000 -0.00000000000000000 -0.00000000000000000 -1.00000000000000000 -0.50000000000000033 -0.86602540378443860 0.00000000000000000 0.86602540378443860 -0.50000000000000033 -0.00000000000000000 387.50000000000017053
2 301.78250071357916795 -195.36522787604388895 0.00000000000000000 -0.00000000000000000 -0.00000000000000000 -1.00000000000000000 -0.50000000000000033 -0.86602540378443860 0.00000000000000000 0.86602540378443860 -0.50000000000000033 -0.00000000000000000 28.00000000000018829
2 0.00000007596823792 -1074.30517559137615535 0.00000000000000000 -0.00000000000000000 -0.00000000000000000 -1.00000000000000000 -0.50000000000000033 -0.86602540378443860 0.00000000000000000 0.86602540378443860 -0.50000000000000033 -0.00000000000000000 901.30517559137672379
6 -0.00000000000000000 -0.00000000000000000 -1.00000000000000000 
7 0 0  6 7 2  -292.68978258416933613 -221.84772166003557459 0.00000000000000000  -245.69994853974753823 -205.71384395959486824 0.00000000000000000  -197.64290168058363406 -192.68821928693250811 0.00000000000000000  -148.77564213476327382 -182.85908872471017617 0.00000000000000000  -99.36491317638694909 -176.28636273569000537 0.00000000000000000  -49.68245680717129886 -172.99999999648821358 0.00000000000000000  0.00000001180961741 -172.99999999999943157 0.00000000000000000 
 2.61799387792078031 7 2.94873062387872187 7
2 -301.78250071357899742 -195.36522787604417317 0.00000000000000000 0.00000000000000000 -0.00000000000000000 -1.00000000000000000 0.50000000000000056 -0.86602540378443837 0.00000000000000000 -0.86602540378443837 -0.50000000000000056 0.00000000000000000 28.00000000000018829
2 0.00000000000002034 0.00000000000016434 0.00000000000000000 0.00000000000000000 -0.00000000000000000 -1.00000000000000000 0.50000000000000056 -0.86602540378443837 0.00000000000000000 -0.86602540378443837 -0.50000000000000056 0.00000000000000000 387.50000000000028422
2 0.00000000000021974 -0.00000000000018103 0.00000000000000000 -0.00000000000000000 -0.00000000000000000 -1.00000000000000000 -0.50000000000000056 0.86602540378443837 0.00000000000000000 -0.86602540378443837 -0.50000000000000056 0.00000000000000000 387.50000000000028422
2 -320.08250071357917932 -163.66869809753333698 0.00000000000000000 -0.00000000000000000 -0.00000000000000000 -1.00000000000000000 -0.50000000000000056 0.86602540378443837 0.00000000000000000 -0.86602540378443837 -0.50000000000000056 0.00000000000000000 28.00000000000016342
2 -930.37557351721864052 537.15258772989704994 0.00000000000000000 -0.00000000000000000 -0.00000000000000000 -1.00000000000000000 -0.50000000000000056 0.86602540378443837 0.00000000000000000 -0.86602540378443837 -0.50000000000000056 0.00000000000000000 901.30517559137695116
6 -0.00000000000000000 -0.00000000000000000 -1.00000000000000000 
7 0 0  6 7 2  -45.78087143720500762 364.40064797605259628 0.00000000000000000  -55.30344050928281519 315.63931912374823696 0.00000000000000000  -68.05144207217873031 267.50788337652261362 0.00000000000000000  -83.97279508108853463 220.27302991540162225 0.00000000000000000  -102.98601188167312159 174.19572042343210683 0.00000000000000000  -124.98116644808034437 129.52626971567741521 0.00000000000000000  -149.82239486061226330 86.49999998977236260 0.00000000000000000 
 2.61799387792078031 7 2.94873062387872187 7
2 -18.30000000000019611 359.03392597357697014 0.00000000000000000 0.00000000000000000 0.00000000000000000 -1.00000000000000000 -1.00000000000000000 0.00000000000000000 0.00000000000000000 0.00000000000000000 1.00000000000000000 0.00000000000000000 28.00000000000015632
2 0.00000000000019940 -0.00000000000004015 0.00000000000000000 0.00000000000000000 0.00000000000000000 -1.00000000000000000 -1.00000000000000000 0.00000000000000000 0.00000000000000000 0.00000000000000000 1.00000000000000000 0.00000000000000000 387.50000000000011369
2 -0.00000000000019940 -0.00000000000004015 0.00000000000000000 -0.00000000000000000 -0.00000000000000000 -1.00000000000000000 1.00000000000000000 0.00000000000000000 0.00000000000000000 -0.00000000000000000 1.00000000000000000 -0.00000000000000000 387.50000000000011369
Triangulations 0

TShapes 94
Ve
0.000000100000000
45.780871437204723 364.400647976053051 0.000000000000000
0 0

0101101
*
Ed
 0.000000100000000 1 1 0
1  1 0 0.000000000000000 3.000000000000000
2  1 1 0 0.000000000000000 3.000000000000000
2  2 2 0 0.000000000000000 3.000000000000000
4 G1 1 0 2 0
0

0101000
+94 4 -94 6 *
Ve
0.000000100212280
149.822394848696348 86.500000010410986 0.000000000000000
0 0

0101101
*
Ed
 0.000000100212280 1 1 0
1  2 0 0.000000000000000 3.000000000000000
2  3 1 0 0.000000000000000 3.000000000000000
2  4 3 0 0.000000000000000 3.000000000000000
4 C1 1 0 3 0
0

0101000
+92 4 -92 6 *
Ed
 0.000000100000000 1 1 0
1  3 0 3.334454683300864 3.665191429258805
2  5 1 7 3.334454683300864 3.665191429258805
2  6 1 8 3.334454683300864 3.665191429258805
2  7 4 0 3.334454683300864 3.665191429258805
0

0101000
+94 0 -92 0 *
Wi

0101100
+93 0 -91 0 -90 4 +90 6 *
Fa
0  0.000000100000000 1 0

0111000
+89 0 *
Ve
0.000000100000000
338.470654021374457 -142.552926316017249 0.000000000000000
0 0

0101101
*
Ed
 0.000000100000000 1 1 0
1  4 0 0.000000000000000 3.000000000000000
2  8 3 0 0.000000000000000 3.000000000000000
2  9 5 0 0.000000000000000 3.000000000000000
4 G1 3 0 5 0
0

0101000
+87 4 -87 6 *
Ed
 0.000000100000000 1 1 0
1  5 0 2.617993877920780 2.948730623878722
2  10 3 7 2.617993877920780 2.948730623878722
2  11 3 8 2.617993877920780 2.948730623878722
2  12 4 0 2.617993877920780 2.948730623878722
0

0101000
+87 0 -92 0 *
Wi

0101100
+86 0 -91 0 -85 4 +85 6 *
Fa
0  0.000000100000000 3 0

0111000
+84 0 *
Ve
0.000000100000000
345.012431228128150 -176.416190578008610 0.000000000000000
0 0

0101101
*
Ed
 0.000000100000000 1 1 0
1  6 0 0.000000000000000 3.000000000000000
2  13 5 0 0.000000000000000 3.000000000000000
2  14 6 0 0.000000000000000 3.000000000000000
4 G1 5 0 6 0
0

0101000
+82 4 -82 6 *
Ed
 0.000000100000000 1 1 0
1  7 0 6.476047336890658 7.803055590990726
2  15 5 7 6.476047336890658 7.803055590990726
2  16 5 8 6.476047336890658 7.803055590990726
2  17 4 0 6.476047336890658 7.803055590990726
0

0101000
+87 0 -82 0 *
Wi

0101100
+86 0 -81 0 -80 4 +80 6 *
Fa
0  0.000000100000000 5 0

0111000
+79 0 *
Ve
0.000000100000000
335.584843966470089 -193.750000000000028 0.000000000000000
0 0

0101101
*
Ed
 0.000000100000000 1 1 0
1  8 0 0.000000000000000 3.000000000000000
2  18 6 0 0.000000000000000 3.000000000000000
2  19 7 0 0.000000000000000 3.000000000000000
4 C2 6 0 7 0
0

0101000
+77 4 -77 6 *
Ed
 0.000000100000000 1 1 0
1  9 0 1.519870283811140 1.570796326794896
2  20 6 7 1.519870283811140 1.570796326794896
2  21 6 8 1.519870283811140 1.570796326794896
2  22 4 0 1.519870283811140 1.570796326794896
0

0101000
+82 0 -77 0 *
Wi

0101100
+81 0 -76 0 -75 4 +75 6 *
Fa
0  0.000000100000000 6 0

0111000
+74 0 *
Ve
0.000000100000000
325.287118293496519 -210.581434775986310 0.000000000000000
0 0

0101101
*
Ed
 0.000000100000000 1 1 0
1  10 0 0.000000000000000 3.000000000000000
2  23 7 0 0.000000000000000 3.000000000000000
2  24 8 0 0.000000000000000 3.000000000000000
4 G1 7 0 8 0
0

0101000
+72 4 -72 6 *
Ed
 0.000000100000000 1 1 0
1  11 0 1.519870283811140 1.570796326794897
2  25 7 7 1.519870283811140 1.570796326794897
2  26 7 8 1.519870283811140 1.570796326794897
2  27 4 0 1.519870283811140 1.570796326794897
0

0101000
+72 0 -77 0 *
Wi

0101100
+71 0 -76 0 -70 4 +70 6 *
Fa
0  0.000000100000000 7 0

0111000
+69 0 *
Ve
0.000000100000000
292.689782584170302 -221.847721660035063 0.000000000000000
0 0

0101101
*
Ed
 0.000000100000000 1 1 0
1  12 0 0.000000000000000 3.000000000000000
2  28 8 0 0.000000000000000 3.000000000000000
2  29 9 0 0.000000000000000 3.000000000000000
4 G1 8 0 9 0
0

0101000
+67 4 -67 6 *
Ed
 0.000000100000000 1 1 0
1  13 0 6.476047336890656 7.803055590990727
2  30 8 7 6.476047336890656 7.803055590990727
2  31 8 8 6.476047336890656 7.803055590990727
2  32 4 0 6.476047336890656 7.803055590990727
0

0101000
+67 0 -72 0 *
Wi

0101100
+66 0 -71 0 -65 4 +65 6 *
Fa
0  0.000000100000000 8 0

0111000
+64 0 *
Ve
0.000000100212321
0.000000012021939 -172.999999999999375 0.000000000000000
0 0

0101101
*
Ed
 0.000000100212321 1 1 0
1  14 0 0.000000000000000 3.000000000000000
2  33 9 0 0.000000000000000 3.000000000000000
2  34 10 0 0.000000000000000 3.000000000000000
4 C1 9 0 10 0
0

0101000
+62 4 -62 6 *
Ed
 0.000000100000000 1 1 0
1  15 0 3.334454683300864 3.665191429258805
2  35 9 7 3.334454683300864 3.665191429258805
2  36 9 8 3.334454683300864 3.665191429258805
2  37 4 0 3.334454683300864 3.665191429258805
0

0101000
+67 0 -62 0 *
Wi

0101100
+66 0 -61 0 -60 4 +60 6 *
Fa
0  0.000000100000000 9 0

0111000
+59 0 *
Ve
0.000000100000028
-292.689782584169336 -221.847721660035546 0.000000000000000
0 0

0101101
*
Ed
 0.000000100000028 1 1 0
1  16 0 0.000000000000000 3.000000000000000
2  38 10 0 0.000000000000000 3.000000000000000
2  39 11 0 0.000000000000000 3.000000000000000
4 G1 10 0 11 0
0

0101000
+57 4 -57 6 *
Ed
 0.000000100000000 1 1 0
1  17 0 2.617993877920780 2.948730623878722
2  40 10 7 2.617993877920780 2.948730623878722
2  41 10 8 2.617993877920780 2.948730623878722
2  42 4 0 2.617993877920780 2.948730623878722
0

0101000
+57 0 -62 0 *
Wi

0101100
+56 0 -61 0 -55 4 +55 6 *
Fa
0  0.000000100000000 10 0

0111000
+54 0 *
Ve
0.000000100000000
-325.287118293496292 -210.581434775986565 0.000000000000000
0 0

0101101
*
Ed
 0.000000100000000 1 1 0
1  18 0 0.000000000000000 3.000000000000000
2  43 11 0 0.000000000000000 3.000000000000000
2  44 12 0 0.000000000000000 3.000000000000000
4 G1 11 0 12 0
0

0101000
+52 4 -52 6 *
Ed
 0.000000100000000 1 1 0
1  19 0 6.476047336890658 7.803055590990725
2  45 11 7 6.476047336890658 7.803055590990725
2  46 11 8 6.476047336890658 7.803055590990725
2  47 4 0 6.476047336890658 7.803055590990725
0

0101000
+57 0 -52 0 *
Wi

0101100
+56 0 -51 0 -50 4 +50 6 *
Fa
0  0.000000100000000 11 0

0111000
+49 0 *
Ve
0.000000100000000
-335.584843966469919 -193.750000000000512 0.000000000000000
0 0

0101101
*
Ed
 0.000000100000000 1 1 0
1  20 0 0.000000000000000 3.000000000000000
2  48 12 0 0.000000000000000 3.000000000000000
2  49 13 0 0.000000000000000 3.000000000000000
4 C2 12 0 13 0
0

0101000
+47 4 -47 6 *
Ed
 0.000000100000000 1 1 0
1  21 0 1.519870283811140 1.570796326794896
2  50 12 7 1.519870283811140 1.570796326794896
2  51 12 8 1.519870283811140 1.570796326794896
2  52 4 0 1.519870283811140 1.570796326794896
0

0101000
+52 0 -47 0 *
Wi

0101100
+51 0 -46 0 -45 4 +45 6 *
Fa
0  0.000000100000000 12 0

0111000
+44 0 *
Ve
0.000000100000000
-345.012431228128094 -176.416190578008923 0.000000000000000
0 0

0101101
*
Ed
 0.000000100000000 1 1 0
1  22 0 0.000000000000000 3.000000000000000
2  53 13 0 0.000000000000000 3.000000000000000
2  54 14 0 0.000000000000000 3.000000000000000
4 G1 13 0 14 0
0

0101000
+42 4 -42 6 *
Ed
 0.000000100000000 1 1 0
1  23 0 1.519870283811140 1.570796326794897
2  55 13 7 1.519870283811140 1.570796326794897
2  56 13 8 1.519870283811140 1.570796326794897
2  57 4 0 1.519870283811140 1.570796326794897
0

0101000
+42 0 -47 0 *
Wi

0101100
+41 0 -46 0 -40 4 +40 6 *
Fa
0  0.000000100000000 13 0

0111000
+39 0 *
Ve
0.000000100000000
-338.470654021374571 -142.552926316018386 0.000000000000000
0 0

0101101
*
Ed
 0.000000100000000 1 1 0
1  24 0 0.000000000000000 3.000000000000000
2  58 14 0 0.000000000000000 3.000000000000000
2  59 15 0 0.000000000000000 3.000000000000000
4 G1 14 0 15 0
0

0101000
+37 4 -37 6 *
Ed
 0.000000100000000 1 1 0
1  25 0 6.476047336890655 7.803055590990726
2  60 14 7 6.476047336890655 7.803055590990726
2  61 14 8 6.476047336890655 7.803055590990726
2  62 4 0 6.476047336890655 7.803055590990726
0

0101000
+37 0 -42 0 *
Wi

0101100
+36 0 -41 0 -35 4 +35 6 *
Fa
0  0.000000100000000 14 0

0111000
+34 0 *
Ve
0.000000100212120
-149.822394860718305 86.499999989588659 0.000000000000000
0 0

0101101
*
Ed
 0.000000100212120 1 1 0
1  26 0 0.000000000000000 3.000000000000000
2  63 15 0 0.000000000000000 3.000000000000000
2  64 16 0 0.000000000000000 3.000000000000000
4 C1 15 0 16 0
0

0101000
+32 4 -32 6 *
Ed
 0.000000100000000 1 1 0
1  27 0 3.334454683300864 3.665191429258806
2  65 15 7 3.334454683300864 3.665191429258806
2  66 15 8 3.334454683300864 3.665191429258806
2  67 4 0 3.334454683300864 3.665191429258806
0

0101000
+37 0 -32 0 *
Wi

0101100
+36 0 -31 0 -30 4 +30 6 *
Fa
0  0.000000100000000 15 0

0111000
+29 0 *
Ve
0.000000100000007
-45.780871437205015 364.400647976052596 0.000000000000000
0 0

0101101
*
Ed
 0.000000100000007 1 1 0
1  28 0 0.000000000000000 3.000000000000000
2  68 16 0 0.000000000000000 3.000000000000000
2  69 17 0 0.000000000000000 3.000000000000000
4 G1 16 0 17 0
0

0101000
+27 4 -27 6 *
Ed
 0.000000100000000 1 1 0
1  29 0 2.617993877920780 2.948730623878722
2  70 16 7 2.617993877920780 2.948730623878722
2  71 16 8 2.617993877920780 2.948730623878722
2  72 4 0 2.617993877920780 2.948730623878722
0

0101000
+27 0 -32 0 *
Wi

0101100
+26 0 -31 0 -25 4 +25 6 *
Fa
0  0.000000100000000 16 0

0111000
+24 0 *
Ve
0.000000100000000
-19.725312934631674 386.997625353994806 0.000000000000000
0 0

0101101
*
Ed
 0.000000100000000 1 1 0
1  30 0 0.000000000000000 3.000000000000000
2  73 17 0 0.000000000000000 3.000000000000000
2  74 18 0 0.000000000000000 3.000000000000000
4 G1 17 0 18 0
0

0101000
+22 4 -22 6 *
Ed
 0.000000100000000 1 1 0
1  31 0 6.476047336890657 7.803055590990726
2  75 17 7 6.476047336890657 7.803055590990726
2  76 17 8 6.476047336890657 7.803055590990726
2  77 4 0 6.476047336890657 7.803055590990726
0

0101000
+27 0 -22 0 *
Wi

0101100
+26 0 -21 0 -20 4 +20 6 *
Fa
0  0.000000100000000 17 0

0111000
+19 0 *
Ve
0.000000100000000
-0.000000000000168 387.500000000000057 0.000000000000000
0 0

0101101
*
Ed
 0.000000100000000 1 1 0
1  32 0 0.000000000000000 3.000000000000000
2  78 18 0 0.000000000000000 3.000000000000000
2  79 19 0 0.000000000000000 3.000000000000000
4 C2 18 0 19 0
0

0101000
+17 4 -17 6 *
Ed
 0.000000100000000 1 1 0
1  33 0 1.519870283811140 1.570796326794896
2  80 18 7 1.519870283811140 1.570796326794896
2  81 18 8 1.519870283811140 1.570796326794896
2  82 4 0 1.519870283811140 1.570796326794896
0

0101000
+22 0 -17 0 *
Wi

0101100
+21 0 -16 0 -15 4 +15 6 *
Fa
0  0.000000100000000 18 0

0111000
+14 0 *
Ve
0.000000100000000
19.725312934631678 386.997625353994806 0.000000000000000
0 0

0101101
*
Ed
 0.000000100000000 1 1 0
1  34 0 0.000000000000000 3.000000000000000
2  83 19 0 0.000000000000000 3.000000000000000
2  84 2 0 0.000000000000000 3.000000000000000
4 G1 19 0 2 0
0

0101000
+12 4 -12 6 *
Ed
 0.000000100000000 1 1 0
1  35 0 1.519870283811140 1.570796326794897
2  85 19 7 1.519870283811140 1.570796326794897
2  86 19 8 1.519870283811140 1.570796326794897
2  87 4 0 1.519870283811140 1.570796326794897
0

0101000
+12 0 -17 0 *
Wi

0101100
+11 0 -16 0 -10 4 +10 6 *
Fa
0  0.000000100000000 19 0

0111000
+9 0 *
Ed
 0.000000100000000 1 1 0
1  36 0 6.476047336890655 7.803055590990726
2  88 2 7 6.476047336890655 7.803055590990726
2  89 2 8 6.476047336890655 7.803055590990726
2  90 4 0 6.476047336890655 7.803055590990726
0

0101000
+94 0 -12 0 *
Wi

0101100
+93 0 -11 0 -7 4 +7 6 *
Fa
0  0.000000100000000 2 0

0111000
+6 0 *
Wi

0101100
-90 0 +85 0 -80 0 -75 0 +70 0 +65 0 -60 0 +55 0 -50 0 -45 0 
+40 0 +35 0 -30 0 +25 0 -20 0 -15 0 +10 0 +7 0 *
Fa
0  0.000000100000000 4 0

0111000
+4 0 *
Sh

0101100
-88 0 +83 0 -78 0 -73 0 +68 0 +63 0 -58 0 +53 0 -48 0 -43 0 
+38 0 +33 0 -28 0 +23 0 -18 0 -13 0 +8 0 +5 0 +3 4 -3 6 
*
So

1100000
-2 0 *

+1 0 