
CASCADE Topology V1, (c) Matra-Datavision
Locations 14
1
1.000000000000000 0.000000000000000 0.000000000000000 0.000000000000000 
0.000000000000000 1.000000000000000 0.000000000000000 0.000000000000000 
0.000000000000000 0.000000000000000 1.000000000000000 0.000000000000000 
1
-1.000000000000000 0.000000000000000 0.000000000000000 -27.800000000000001 
0.000000000000000 -1.000000000000000 0.000000000000000 -107.500000000000000 
0.000000000000000 0.000000000000000 1.000000000000000 0.000000000000000 
1
1.000000000000000 0.000000000000000 0.000000000000000 0.000000000000000 
0.000000000000000 1.000000000000000 0.000000000000000 0.000000000000000 
0.000000000000000 0.000000000000000 1.000000000000000 0.000000000000000 
1
1.000000000000000 0.000000000000000 -0.000000000000000 0.000000000000000 
-0.000000000000000 0.000000000000000 -1.000000000000000 0.000000000000000 
0.000000000000000 1.000000000000000 0.000000000000000 0.000000000000000 
1
1.000000000000000 0.000000000000000 0.000000000000000 0.000000000000000 
0.000000000000000 1.000000000000000 0.000000000000000 0.000000000000000 
0.000000000000000 0.000000000000000 1.000000000000000 0.000000000000000 
2  4 1 5 1 0
1
1.000000000000000 0.000000000000000 0.000000000000000 0.000000000000000 
0.000000000000000 1.000000000000000 0.000000000000000 0.000000000000000 
0.000000000000000 0.000000000000000 1.000000000000000 0.000000000000000 
2  7 -1 5 -1 4 -1 0
1
1.000000000000000 0.000000000000000 0.000000000000000 0.000000000000000 
0.000000000000000 1.000000000000000 0.000000000000000 0.000000000000000 
0.000000000000000 0.000000000000000 1.000000000000000 0.000000000000000 
2  9 1 3 1 0
2  7 -1 3 -1 9 -1 0
1
-1.000000000000000 0.000000000000000 0.000000000000000 -27.800000000000001 
0.000000000000000 -1.000000000000000 0.000000000000000 -42.500000000000000 
0.000000000000000 0.000000000000000 1.000000000000000 0.000000000000000 
1
-1.000000000000000 0.000000000000000 0.000000000000000 -27.800000000000001 
0.000000000000000 -1.000000000000000 0.000000000000000 42.500000000000000 
0.000000000000000 0.000000000000000 1.000000000000000 0.000000000000000 
1
-1.000000000000000 0.000000000000000 0.000000000000000 -27.800000000000001 
0.000000000000000 -1.000000000000000 0.000000000000000 107.500000000000000 
0.000000000000000 0.000000000000000 1.000000000000000 0.000000000000000 
Curve2ds 0
Curves 7
1 0.00000000000000000 0.00000000000000000 0.00000000000000000 1.00000000000000000 0.00000000000000000 0.00000000000000000 
1 26.87499999999999645 0.00000000000000000 0.00000000000000000 -0.93465529130606351 -0.35555518057479879 0.00000000000000000 
1 -7.56386445512688610 -13.10099753784405685 0.00000000000000000 0.49999999999999983 0.86602540378443882 0.00000000000000000 
1 0.00000000000000112 0.00000000000000106 0.00000000000000000 -0.49999999999999989 0.86602540378443882 0.00000000000000000 
1 -7.56386445512688343 13.10099753784405330 0.00000000000000000 0.93465529130606351 -0.35555518057479868 0.00000000000000000 
1 0.00000000000000000 -7.67550000000000043 0.00000000000000000 0.00000000000000000 1.00000000000000000 0.00000000000000000 
1 26.87499999999998934 0.00000000000000000 0.00000000000000000 -0.96155297028741438 -0.27461952831408565 0.00000000000000000 
Polygon3D 0
PolygonOnTriangulations 0
Surfaces 3
1 0.00000000000000112 0.00000000000000106 0.00000000000000000 0.00000000000000000 0.00000000000000000 1.00000000000000000 1.00000000000000000 0.00000000000000000 -0.00000000000000000 -0.00000000000000000 1.00000000000000000 0.00000000000000000 
1 0.00000000000000112 0.00000000000000106 0.00000000000000000 0.00000000000000000 0.00000000000000000 1.00000000000000000 1.00000000000000000 0.00000000000000000 -0.00000000000000000 -0.00000000000000000 1.00000000000000000 0.00000000000000000 
1 0.00000000000000000 0.00000000000000000 0.00000000000000000 0.00000000000000000 -1.00000000000000000 0.00000000000000022 0.00000000000000000 -0.00000000000000022 -1.00000000000000000 1.00000000000000000 0.00000000000000000 0.00000000000000000 
Triangulations 0

TShapes 20
Ve
0.000002687500001
0.000000000000001 0.000000000000001 0.000000000000000
0 0

0101101
*
Ve
0.000002687500003
26.875000000000000 0.000000000000000 0.000000000000000
0 0

0101101
*
Ed
 0.000002687500000 1 1 0
1  1 0 0.000000000000000 26.875000000000000
0

0101000
+20 8 -19 8 *
Ve
0.000002687500001
-7.563864455126877 -13.100997537844057 0.000000000000000
0 0

0101101
*
Ed
 0.000002687500000 1 1 0
1  2 0 0.000000000000000 36.846594434834714
0

0101000
+19 11 -17 11 *
Ed
 0.000002687500000 1 1 0
1  3 0 0.000000000000000 15.127728910253781
0

0101000
+17 11 -20 11 *
Wi

0101000
-18 6 -16 10 -15 10 *
Fa
0  0.000002687500000 1 3

0111000
+14 0 *
Ve
0.000002687500000
-7.563864455126877 13.100997537844057 0.000000000000000
0 0

0101101
*
Ed
 0.000002687500000 1 1 0
1  4 0 0.000000000000000 15.127728910253781
0

0101000
+20 11 -12 11 *
Ed
 0.000002687500000 1 1 0
1  5 0 0.000000000000000 36.846594434834714
0

0101000
+12 11 -19 11 *
Wi

0101000
-11 10 -10 10 +18 6 *
Fa
0  0.000002687500000 2 3

0111000
+9 0 *
Ve
0.000002687500000
0.000000000000000 -0.000000000000002 -7.675500000000000
0 0

0101101
*
Ed
 0.000002687500000 1 1 0
1  6 0 0.000000000000000 7.675500000000000
0

0101000
+7 8 -20 8 *
Ed
 0.000002687500000 1 1 0
1  7 0 0.000000000000000 27.949578266049098
0

0101000
+19 8 -7 8 *
Wi

0101000
-18 6 -6 6 -5 6 *
Fa
0  0.000002687500000 3 5

0111000
+4 0 *
Sh

0101000
+13 0 +8 0 +3 0 *
Co

1100000
+2 2 +2 12 +2 13 +2 14 *

+1 1 