
CASCADE Topology V1, (c) Matra-Datavision
Locations 37
1
1.000000000000000 0.000000000000000 0.000000000000000 0.000000000000000 
0.000000000000000 1.000000000000000 0.000000000000000 0.000000000000000 
0.000000000000000 0.000000000000000 1.000000000000000 0.000000000000000 
1
1.000000000000000 0.000000000000000 0.000000000000000 0.000000000000000 
0.000000000000000 1.000000000000000 0.000000000000000 0.000000000000000 
0.000000000000000 0.000000000000000 1.000000000000000 0.000000000000000 
1
1.000000000000000 0.000000000000000 0.000000000000000 0.000000000000000 
0.000000000000000 1.000000000000000 0.000000000000000 0.000000000000000 
0.000000000000000 0.000000000000000 1.000000000000000 0.000000000000000 
1
1.000000000000000 0.000000000000000 0.000000000000000 0.000000000000000 
0.000000000000000 1.000000000000000 0.000000000000000 0.000000000000000 
0.000000000000000 0.000000000000000 1.000000000000000 0.000000000000000 
1
1.000000000000000 0.000000000000000 0.000000000000000 0.000000000000000 
0.000000000000000 1.000000000000000 0.000000000000000 0.000000000000000 
0.000000000000000 0.000000000000000 1.000000000000000 0.000000000000000 
1
1.000000000000000 0.000000000000000 0.000000000000000 0.000000000000000 
0.000000000000000 1.000000000000000 0.000000000000000 0.000000000000000 
0.000000000000000 0.000000000000000 1.000000000000000 0.000000000000000 
1
1.000000000000000 0.000000000000000 0.000000000000000 0.000000000000000 
0.000000000000000 0.993288078374917 -0.115666734017457 0.000000000000000 
0.000000000000000 0.115666734017457 0.993288078374917 0.000000000000000 
1
1.000000000000000 0.000000000000000 0.000000000000000 0.000000000000000 
0.000000000000000 1.000000000000000 0.000000000000000 0.000000000000000 
0.000000000000000 0.000000000000000 1.000000000000000 0.000000000000000 
1
1.000000000000000 0.000000000000000 0.000000000000000 -0.000000000000000 
0.000000000000000 1.000000000000000 0.000000000000000 -77.611897725367754 
0.000000000000000 0.000000000000000 1.000000000000000 666.492171716596886 
2  1 -1 2 1 3 1 4 1 5 1 6 1 7 1 8 -1 9 1 0
1
1.000000000000000 0.000000000000000 0.000000000000000 0.000000000000000 
0.000000000000000 1.000000000000000 0.000000000000000 155.223795450735508 
0.000000000000000 0.000000000000000 1.000000000000000 -1332.984343433193771 
2  1 -1 2 1 3 1 4 1 5 1 6 1 7 1 8 -1 9 1 11 1 0
2  2 1 3 1 4 1 5 1 6 1 7 1 8 -1 9 1 0
2  9 -1 8 1 7 -1 6 -1 5 -1 4 -1 3 -1 2 -1 0
2  11 -1 9 -1 8 1 7 -1 6 -1 5 -1 4 -1 3 -1 2 -1 0
1
1.000000000000000 0.000000000000000 0.000000000000000 0.000000000000000 
0.000000000000000 1.000000000000000 0.000000000000000 0.000000000000000 
0.000000000000000 0.000000000000000 1.000000000000000 600.109639920704240 
1
1.000000000000000 0.000000000000000 0.000000000000000 0.000000000000000 
0.000000000000000 1.000000000000000 0.000000000000000 0.000000000000000 
0.000000000000000 0.000000000000000 1.000000000000000 0.000000000000000 
1
1.000000000000000 0.000000000000000 0.000000000000000 0.000000000000000 
0.000000000000000 1.000000000000000 0.000000000000000 0.000000000000000 
0.000000000000000 0.000000000000000 1.000000000000000 0.000000000000000 
1
1.000000000000000 0.000000000000000 0.000000000000000 0.000000000000000 
0.000000000000000 1.000000000000000 0.000000000000000 0.000000000000000 
0.000000000000000 0.000000000000000 1.000000000000000 0.000000000000000 
1
1.000000000000000 0.000000000000000 0.000000000000000 0.000000000000000 
0.000000000000000 1.000000000000000 0.000000000000000 0.000000000000000 
0.000000000000000 0.000000000000000 1.000000000000000 0.000000000000000 
2  16 -1 17 1 18 -1 19 -1 20 -1 5 -1 4 -1 3 -1 2 -1 0
1
1.000000000000000 0.000000000000000 0.000000000000000 -0.000000000000000 
0.000000000000000 1.000000000000000 0.000000000000000 -0.000000000000000 
0.000000000000000 0.000000000000000 1.000000000000000 -1200.219279841408479 
2  22 -1 16 -1 17 1 18 -1 19 -1 20 -1 5 -1 4 -1 3 -1 2 -1 0
2  1 -1 0
2  2 1 3 1 4 1 5 1 6 1 7 1 8 -1 9 1 11 1 0
2  6 1 7 1 8 -1 9 1 0
2  2 1 3 1 4 1 5 1 0
2  6 1 7 1 8 -1 9 1 11 1 0
1
1.000000000000000 0.000000000000000 0.000000000000000 0.000000000000000 
0.000000000000000 1.000000000000000 0.000000000000000 0.000000000000000 
0.000000000000000 0.000000000000000 1.000000000000000 0.000000000000000 
1
1.000000000000000 0.000000000000000 0.000000000000000 0.000000000000000 
0.000000000000000 1.000000000000000 0.000000000000000 0.000000000000000 
0.000000000000000 0.000000000000000 1.000000000000000 0.000000000000000 
2  29 1 30 1 4 1 5 1 6 1 7 1 8 -1 9 1 0
2  29 1 30 1 4 1 5 1 6 1 7 1 8 -1 9 1 11 1 0
2  9 -1 8 1 7 -1 6 -1 5 -1 4 -1 30 -1 29 -1 0
2  11 -1 9 -1 8 1 7 -1 6 -1 5 -1 4 -1 30 -1 29 -1 0
2  16 -1 17 1 18 -1 19 -1 20 -1 5 -1 4 -1 30 -1 29 -1 0
2  22 -1 16 -1 17 1 18 -1 19 -1 20 -1 5 -1 4 -1 30 -1 29 -1 0
2  29 1 30 1 4 1 5 1 0
Curve2ds 24
1 0.00000000000000000 0.00000000000000000 0.00000000000000000 -1.00000000000000000 
1 6.28318530717958623 0.00000000000000000 0.00000000000000000 -1.00000000000000000 
1 0.00000000000000000 0.00000000000000000 1.00000000000000000 0.00000000000000000 
1 0.00000000000000000 -1341.99168645418762935 1.00000000000000000 0.00000000000000000 
1 0.00000000000000000 0.00000000000000000 1.00000000000000000 0.00000000000000000 
1 0.00000000000000000 -1200.21927984140847911 1.00000000000000000 0.00000000000000000 
1 0.00000000000000000 0.00000000000000000 0.00000000000000000 -1.00000000000000000 
1 6.28318530717958623 0.00000000000000000 0.00000000000000000 -1.00000000000000000 
1 0.00000000000000000 0.00000000000000000 1.00000000000000000 0.00000000000000000 
1 0.00000000000000000 -1341.99168645418762935 1.00000000000000000 0.00000000000000000 
1 0.00000000000000000 0.00000000000000000 1.00000000000000000 0.00000000000000000 
1 0.00000000000000000 -1200.21927984140847911 1.00000000000000000 0.00000000000000000 
1 0.00000000000000000 0.00000000000000000 0.00000000000000000 -1.00000000000000000 
1 6.28318530717958623 0.00000000000000000 0.00000000000000000 -1.00000000000000000 
1 0.00000000000000000 0.00000000000000000 1.00000000000000000 0.00000000000000000 
1 0.00000000000000000 -1341.99168645418762935 1.00000000000000000 0.00000000000000000 
1 0.00000000000000000 0.00000000000000000 1.00000000000000000 0.00000000000000000 
1 0.00000000000000000 -1200.21927984140847911 1.00000000000000000 0.00000000000000000 
1 0.00000000000000000 0.00000000000000000 0.00000000000000000 -1.00000000000000000 
1 6.28318530717958623 0.00000000000000000 0.00000000000000000 -1.00000000000000000 
1 0.00000000000000000 0.00000000000000000 1.00000000000000000 0.00000000000000000 
1 0.00000000000000000 -1341.99168645418762935 1.00000000000000000 0.00000000000000000 
1 0.00000000000000000 0.00000000000000000 1.00000000000000000 0.00000000000000000 
1 0.00000000000000000 -1200.21927984140847911 1.00000000000000000 0.00000000000000000 
Curves 8
1 -90.00398697986226182 149.72757502583047540 692.96547276477133437 0.00000000000000000 0.11566673401745733 -0.99328807837491684 
2 -88.30398697986225898 228.87566829870769425 0.00000000000000000 0.00000000000000000 0.00000000000000000 -1.00000000000000000 -1.00000000000000000 -0.00000000000000000 -0.00000000000000000 -0.00000000000000000 1.00000000000000000 0.00000000000000000 1.69999999999999996
1 90.00398697986226182 149.72757502583047540 692.96547276477133437 0.00000000000000000 0.11566673401745733 -0.99328807837491684 
2 88.30398697986225898 228.87566829870769425 0.00000000000000000 0.00000000000000000 0.00000000000000000 1.00000000000000000 1.00000000000000000 0.00000000000000000 -0.00000000000000000 -0.00000000000000000 1.00000000000000000 0.00000000000000000 1.69999999999999996
1 -262.99373190312394399 114.40051100302090958 688.85169529486631745 0.00000000000000000 0.11566673401745733 -0.99328807837491684 
2 -261.29373190312395536 193.30988955644500038 0.00000000000000000 0.00000000000000000 0.00000000000000000 -1.00000000000000000 -1.00000000000000000 -0.00000000000000000 -0.00000000000000000 -0.00000000000000000 1.00000000000000000 0.00000000000000000 1.69999999999999996
1 262.99373190312394399 114.40051100302090958 688.85169529486631745 0.00000000000000000 0.11566673401745733 -0.99328807837491684 
2 261.29373190312395536 193.30988955644500038 0.00000000000000000 0.00000000000000000 0.00000000000000000 1.00000000000000000 1.00000000000000000 0.00000000000000000 -0.00000000000000000 -0.00000000000000000 1.00000000000000000 0.00000000000000000 1.69999999999999996
Polygon3D 0
PolygonOnTriangulations 0
Surfaces 12
2 -88.30398697986225898 149.72757502583047540 692.96547276477133437 -0.00000000000000000 -0.11566673401745735 0.99328807837491684 -1.00000000000000000 0.00000000000000000 0.00000000000000000 0.00000000000000000 0.99328807837491684 0.11566673401745735 1.69999999999999996
2 -88.30398697986225898 228.87566829870769425 600.10963992070423956 -0.00000000000000000 -0.00000000000000000 1.00000000000000000 -1.00000000000000000 0.00000000000000000 -0.00000000000000000 -0.00000000000000000 1.00000000000000000 0.00000000000000000 1.69999999999999996
1 -0.00000000000000483 211.09277892757631889 0.00000000000000000 0.00000000000000000 0.00000000000000000 1.00000000000000000 1.00000000000000000 0.00000000000000000 -0.00000000000000000 -0.00000000000000000 1.00000000000000000 0.00000000000000000 
2 88.30398697986225898 149.72757502583047540 692.96547276477133437 0.00000000000000000 -0.11566673401745735 0.99328807837491684 1.00000000000000000 0.00000000000000000 0.00000000000000000 -0.00000000000000000 0.99328807837491684 0.11566673401745735 1.69999999999999996
2 88.30398697986225898 228.87566829870769425 600.10963992070423956 0.00000000000000000 0.00000000000000000 1.00000000000000000 1.00000000000000000 0.00000000000000000 -0.00000000000000000 -0.00000000000000000 1.00000000000000000 0.00000000000000000 1.69999999999999996
1 -0.00000000000000483 211.09277892757631889 0.00000000000000000 0.00000000000000000 0.00000000000000000 1.00000000000000000 1.00000000000000000 0.00000000000000000 -0.00000000000000000 -0.00000000000000000 1.00000000000000000 0.00000000000000000 
2 -261.29373190312395536 114.40051100302090958 688.85169529486631745 -0.00000000000000000 -0.11566673401745735 0.99328807837491684 -1.00000000000000000 0.00000000000000000 0.00000000000000000 0.00000000000000000 0.99328807837491684 0.11566673401745735 1.69999999999999996
2 -261.29373190312395536 193.30988955644500038 600.10963992070423956 -0.00000000000000000 -0.00000000000000000 1.00000000000000000 -1.00000000000000000 0.00000000000000000 -0.00000000000000000 -0.00000000000000000 1.00000000000000000 0.00000000000000000 1.69999999999999996
1 -0.00000000000000483 211.09277892757631889 0.00000000000000000 0.00000000000000000 0.00000000000000000 1.00000000000000000 1.00000000000000000 0.00000000000000000 -0.00000000000000000 -0.00000000000000000 1.00000000000000000 0.00000000000000000 
2 261.29373190312395536 114.40051100302090958 688.85169529486631745 0.00000000000000000 -0.11566673401745735 0.99328807837491684 1.00000000000000000 0.00000000000000000 0.00000000000000000 -0.00000000000000000 0.99328807837491684 0.11566673401745735 1.69999999999999996
2 261.29373190312395536 193.30988955644500038 600.10963992070423956 0.00000000000000000 0.00000000000000000 1.00000000000000000 1.00000000000000000 0.00000000000000000 -0.00000000000000000 -0.00000000000000000 1.00000000000000000 0.00000000000000000 1.69999999999999996
1 -0.00000000000000483 211.09277892757631889 0.00000000000000000 0.00000000000000000 0.00000000000000000 1.00000000000000000 1.00000000000000000 0.00000000000000000 -0.00000000000000000 -0.00000000000000000 1.00000000000000000 0.00000000000000000 
Triangulations 0

TShapes 37
Ve
0.000000100000000
-90.003986979862262 228.875668298707694 0.000000000000000
0 0

0101101
*
Ed
 0.000000100000000 1 1 0
1  1 0 0.000000000000000 1341.991686454187629
3  1 2CN 1 0 0.000000000000000 1341.991686454187629
0

0101000
+37 10 -37 12 *
Ed
 0.000000100000000 1 1 0
1  2 0 0.000000000000000 6.283185307179586
2  3 1 14 0.000000000000000 6.283185307179586
2  4 1 15 0.000000000000000 6.283185307179586
2  5 2 21 0.000000000000000 6.283185307179586
2  6 2 23 0.000000000000000 6.283185307179586
0

0101100
+37 24 -37 24 *
Wi

0101100
+36 0 -36 0 -35 13 +35 25 *
Fa
0  0.000000100000000 1 0

0111000
+34 0 *
Wi

0101100
+35 27 *
Fa
0  0.000000100000000 3 0

0111000
-32 0 *
Sh

0101100
-33 0 +31 26 -31 28 *
So

0100000
+30 0 *
Ve
0.000000100000000
90.003986979862262 228.875668298707694 0.000000000000000
0 0

0101101
*
Ed
 0.000000100000000 1 1 0
1  3 0 0.000000000000000 1341.991686454187629
3  7 8CN 4 0 0.000000000000000 1341.991686454187629
0

0101000
+28 31 -28 32 *
Ed
 0.000000100000000 1 1 0
1  4 0 0.000000000000000 6.283185307179586
2  9 4 33 0.000000000000000 6.283185307179586
2  10 4 34 0.000000000000000 6.283185307179586
2  11 5 35 0.000000000000000 6.283185307179586
2  12 5 36 0.000000000000000 6.283185307179586
0

0101100
+28 0 -28 0 *
Wi

0101100
+27 0 -27 0 -26 31 +26 32 *
Fa
0  0.000000100000000 4 0

0111000
+25 0 *
Wi

0101100
+26 37 *
Fa
0  0.000000100000000 6 0

0111000
+23 0 *
Sh

0101100
+24 0 +22 26 -22 28 *
So

0100000
+21 0 *
Ve
0.000000100000000
-262.993731903123944 193.309889556445000 0.000000000000000
0 0

0101101
*
Ed
 0.000000100000000 1 1 0
1  5 0 0.000000000000000 1341.991686454187629
3  13 14CN 7 0 0.000000000000000 1341.991686454187629
0

0101000
+19 10 -19 12 *
Ed
 0.000000100000000 1 1 0
1  6 0 0.000000000000000 6.283185307179586
2  15 7 14 0.000000000000000 6.283185307179586
2  16 7 15 0.000000000000000 6.283185307179586
2  17 8 21 0.000000000000000 6.283185307179586
2  18 8 23 0.000000000000000 6.283185307179586
0

0101100
+19 24 -19 24 *
Wi

0101100
+18 0 -18 0 -17 13 +17 25 *
Fa
0  0.000000100000000 7 0

0111000
+16 0 *
Wi

0101100
+17 27 *
Fa
0  0.000000100000000 9 0

0111000
-14 0 *
Sh

0101100
-15 0 +13 26 -13 28 *
So

0100000
+12 0 *
Ve
0.000000100000000
262.993731903123944 193.309889556445000 0.000000000000000
0 0

0101101
*
Ed
 0.000000100000000 1 1 0
1  7 0 0.000000000000000 1341.991686454187629
3  19 20CN 10 0 0.000000000000000 1341.991686454187629
0

0101000
+10 31 -10 32 *
Ed
 0.000000100000000 1 1 0
1  8 0 0.000000000000000 6.283185307179586
2  21 10 33 0.000000000000000 6.283185307179586
2  22 10 34 0.000000000000000 6.283185307179586
2  23 11 35 0.000000000000000 6.283185307179586
2  24 11 36 0.000000000000000 6.283185307179586
0

0101100
+10 0 -10 0 *
Wi

0101100
+9 0 -9 0 -8 31 +8 32 *
Fa
0  0.000000100000000 10 0

0111000
+7 0 *
Wi

0101100
+8 37 *
Fa
0  0.000000100000000 12 0

0111000
+5 0 *
Sh

0101100
+6 0 +4 26 -4 28 *
So

0100000
+3 0 *
Co

1100000
+29 0 +20 0 +11 0 +2 0 *

+1 0 