
CASCADE Topology V1, (c) Matra-Datavision
Locations 20
1
1.000000000000000 0.000000000000000 0.000000000000000 0.000000000000000 
0.000000000000000 1.000000000000000 0.000000000000000 0.000000000000000 
0.000000000000000 0.000000000000000 1.000000000000000 0.000000000000000 
1
1.000000000000000 0.000000000000000 0.000000000000000 0.000000000000000 
0.000000000000000 1.000000000000000 0.000000000000000 0.000000000000000 
0.000000000000000 0.000000000000000 1.000000000000000 0.000000000000000 
1
1.000000000000000 0.000000000000000 0.000000000000000 0.000000000000000 
0.000000000000000 1.000000000000000 0.000000000000000 0.000000000000000 
0.000000000000000 0.000000000000000 1.000000000000000 0.000000000000000 
1
1.000000000000000 0.000000000000000 0.000000000000000 0.000000000000000 
0.000000000000000 1.000000000000000 0.000000000000000 0.000000000000000 
0.000000000000000 0.000000000000000 1.000000000000000 0.000000000000000 
2  2 1 3 -1 4 1 0
1
1.000000000000000 0.000000000000000 0.000000000000000 -0.000000000000000 
0.000000000000000 1.000000000000000 0.000000000000000 1060.000000000000000 
0.000000000000000 0.000000000000000 1.000000000000000 0.000000000000235 
1
1.000000000000000 0.000000000000000 0.000000000000000 0.000000000000000 
0.000000000000000 1.000000000000000 0.000000000000000 -1060.000000000000000 
0.000000000000000 0.000000000000000 1.000000000000000 -0.000000000000235 
2  6 1 7 1 0
2  6 1 2 1 3 -1 4 1 0
2  7 -1 6 -1 0
2  6 -1 0
2  6 1 7 1 2 1 3 -1 4 1 0
2  2 1 3 -1 0
1
1.000000000000000 0.000000000000000 0.000000000000000 0.000000000000000 
0.000000000000000 1.000000000000000 0.000000000000000 0.000000000000000 
0.000000000000000 0.000000000000000 1.000000000000000 0.000000000000000 
1
1.000000000000000 0.000000000000000 0.000000000000000 0.000000000000047 
0.000000000000000 1.000000000000000 0.000000000000000 420.000000000000000 
0.000000000000000 0.000000000000000 1.000000000000000 -0.000000000000047 
2  14 1 15 1 0
1
1.000000000000000 0.000000000000000 0.000000000000000 0.000000000000093 
0.000000000000000 1.000000000000000 0.000000000000000 840.000000000000000 
0.000000000000000 0.000000000000000 1.000000000000000 -0.000000000000093 
2  14 1 17 1 0
2  15 -1 14 -1 0
2  17 -1 14 -1 0
Curve2ds 125
1 1.57079632679489656 0.00000000000000000 0.00000000000000000 -1.00000000000000000 
1 0.00000000000000000 -0.29999999999999893 1.00000000000000000 0.00000000000000000 
1 0.00000000000000000 -0.30000000000000071 -1.00000000000000000 0.00000000000000000 
1 0.00000000000000000 0.00000000000000000 0.00000000000000000 -1.00000000000000000 
1 0.00000000000000000 0.00000000000000000 1.00000000000000000 0.00000000000000000 
1 0.00000000000000000 -0.30000000000000071 -1.00000000000000000 0.00000000000000000 
1 0.00000000000000000 -0.30000000000000071 1.00000000000000000 0.00000000000000000 
1 -0.39999999999999991 0.00000000000000009 1.00000000000000000 0.00000000000000000 
1 -0.39999999999999991 -1060.00000000000000000 1.00000000000000000 0.00000000000000000 
1 9.60000000000000142 -0.00000000000000213 0.00000000000000000 -1.00000000000000000 
2 4.29999999999997318 -980.00000000000000000 0.00000000000000044 1.00000000000000000 -1.00000000000000000 0.00000000000000044 1.69999999999999996
1 0.00000000000000000 -1054.90071331022340928 1.00000000000000000 0.00000000000000000 
2 4.30000000000011351 -560.00000000000000000 0.00000000000000044 1.00000000000000000 -1.00000000000000000 0.00000000000000044 1.69999999999999996
1 0.00000000000000000 -1054.90071331022340928 1.00000000000000000 0.00000000000000000 
2 4.30000000000025207 -140.00000000000000000 0.00000000000000044 1.00000000000000000 -1.00000000000000000 0.00000000000000044 1.69999999999999996
1 0.00000000000000000 -1054.90071331022340928 1.00000000000000000 0.00000000000000000 
1 0.00000000000000000 0.00000000000000000 0.00000000000000000 -1.00000000000000000 
1 -0.00000000000000007 -0.29999999999999999 1.00000000000000000 0.00000000000000000 
1 0.00000000000000007 -0.29999999999999988 -1.00000000000000000 0.00000000000000000 
1 31.70000000000000284 0.00000000000000000 0.00000000000000000 -1.00000000000000000 
1 0.00000000000000000 1060.00000000000000000 1.00000000000000000 0.00000000000000000 
1 0.00000000000000000 0.00000000000000000 1.00000000000000000 0.00000000000000000 
1 0.00000000000000000 -1060.00000000000000000 1.00000000000000000 0.00000000000000000 
1 6.28318530717958623 0.00000000000000000 -1.00000000000000000 0.00000000000000000 
1 0.00000000000000000 0.00000000000000000 1.00000000000000000 0.00000000000000000 
6 0 1 10.00000000000000000 -0.30000000000000071  10.00000000000000000 0.00000000000000000  
1 -0.39999999999999991 0.00000000000000009 1.00000000000000000 0.00000000000000000 
1 0.00000000000000000 0.00000000000000000 1.00000000000000000 0.00000000000000000 
6 0 1 0.00000000000000000 -0.30000000000000071  0.00000000000000000 0.00000000000000000  
6 0 1 0.39999999999999991 -0.30000000000000071  0.39999999999999991 0.00000000000000000  
8 0.00000000000000000 1.00000000000000000
1 1.57079632679489656 0.00000000000000000 0.00000000000000000 1.00000000000000000 
6 0 1 -0.39999999999999991 -0.30000000000000071  -0.39999999999999991 0.00000000000000000  
6 0 1 -1060.00000000000000000 -0.30000000000000071  -1060.00000000000000000 0.00000000000000000  
8 0.00000000000000000 1.00000000000000000
1 4.71238898038468967 0.00000000000000000 0.00000000000000000 1.00000000000000000 
1 -0.39999999999999991 -1060.00000000000000000 1.00000000000000000 0.00000000000000000 
1 0.00000000000000000 0.00000000000000000 -1.00000000000000000 0.00000000000000000 
6 0 1 -10.00000000000000000 -0.30000000000000071  -10.00000000000000000 0.00000000000000000  
1 9.60000000000000142 -0.00000000000000213 0.00000000000000000 -1.00000000000000000 
1 0.00000000000000000 0.00000000000000000 0.00000000000000000 -1.00000000000000000 
1 6.28318530717958623 0.00000000000000000 0.00000000000000000 -1.00000000000000000 
2 4.29999999999997318 -980.00000000000000000 0.00000000000000044 1.00000000000000000 -1.00000000000000000 0.00000000000000044 1.69999999999999996
1 0.00000000000000000 -1055.20071331022336381 1.00000000000000000 0.00000000000000000 
1 0.00000000000000000 0.00000000000000000 0.00000000000000000 -1.00000000000000000 
1 6.28318530717958623 0.00000000000000000 0.00000000000000000 -1.00000000000000000 
2 4.30000000000011351 -560.00000000000000000 0.00000000000000044 1.00000000000000000 -1.00000000000000000 0.00000000000000044 1.69999999999999996
1 0.00000000000000000 -1055.20071331022336381 1.00000000000000000 0.00000000000000000 
1 0.00000000000000000 0.00000000000000000 0.00000000000000000 -1.00000000000000000 
1 6.28318530717958623 0.00000000000000000 0.00000000000000000 -1.00000000000000000 
2 4.30000000000025207 -140.00000000000000000 0.00000000000000044 1.00000000000000000 -1.00000000000000000 0.00000000000000044 1.69999999999999996
1 0.00000000000000000 -1055.20071331022336381 1.00000000000000000 0.00000000000000000 
1 6.28318530717958623 0.00000000000000000 0.00000000000000000 -1.00000000000000000 
1 -0.00000000000000007 -0.29999999999999855 1.00000000000000000 0.00000000000000000 
1 0.00000000000000007 -0.29999999999999999 -1.00000000000000000 0.00000000000000000 
1 0.00000000000000000 0.00000000000000000 0.00000000000000000 -1.00000000000000000 
1 0.00000000000000000 0.00000000000000000 1.00000000000000000 0.00000000000000000 
1 0.00000000000000000 -0.29999999999999999 -1.00000000000000000 0.00000000000000000 
1 0.00000000000000000 -0.29999999999999999 1.00000000000000000 0.00000000000000000 
1 -0.39999999999999858 0.00000000000000000 1.00000000000000000 0.00000000000000000 
1 -0.39999999999999858 -1060.00000000000000000 1.00000000000000000 0.00000000000000000 
1 0.00000000000000000 1.00000000000000000 1.00000000000000000 0.00000000000000000 
1 0.00000000000000000 0.00000000000000000 0.00000000000000000 1.00000000000000000 
6 0 1 0.00000000000000000 -0.29999999999999988  0.00000000000000000 0.00000000000000000  
1 6.28318530717958623 0.00000000000000000 0.00000000000000000 1.00000000000000000 
7 0 0  1 2 2  -1060.00000000000000000 -0.30000000000000004  -1060.00000000000000000 -0.00000000000000006 
 0.00000000000000000 2 1.00000000000000000 2
1 6.28318530717958623 1.00000000000000000 -1.00000000000000000 0.00000000000000000 
1 0.00000000000000000 0.00000000000000000 0.00000000000000000 -1.00000000000000000 
1 0.00000000000000000 0.00000000000000000 -1.00000000000000000 0.00000000000000000 
8 0.00000000000000000 1060.00000000000000000
1 1.57079632679489656 0.00000000000000000 0.00000000000000000 -1.00000000000000000 
1 4.71238898038468967 0.00000000000000000 0.00000000000000000 -1.00000000000000000 
1 0.00000000000000000 -0.30000000000000071 1.00000000000000000 0.00000000000000000 
1 -0.00000000000000000 -0.29999999999999893 -1.00000000000000000 0.00000000000000000 
1 9.60000000000000142 0.00000000000000213 0.00000000000000000 -1.00000000000000000 
1 -4.71238898038468967 1060.00000000000000000 1.00000000000000000 0.00000000000000000 
1 0.00000000000000000 0.00000000000000000 1.00000000000000000 0.00000000000000000 
1 0.00000000000000000 -1060.00000000000000000 1.00000000000000000 0.00000000000000000 
1 6.28318530717958623 0.00000000000000000 -1.00000000000000000 0.00000000000000000 
1 0.00000000000000000 0.00000000000000000 1.00000000000000000 0.00000000000000000 
1 -0.39999999999999858 0.00000000000000000 1.00000000000000000 0.00000000000000000 
1 0.00000000000000000 0.00000000000000000 1.00000000000000000 0.00000000000000000 
6 0 1 0.39999999999999858 -0.29999999999999999  0.39999999999999858 0.00000000000000000  
6 0 1 0.00000000000000000 -0.29999999999999999  0.00000000000000000 0.00000000000000000  
8 0.00000000000000000 1.00000000000000000
1 6.28318530717958623 0.00000000000000000 0.00000000000000000 1.00000000000000000 
6 0 1 -0.39999999999999858 -0.29999999999999999  -0.39999999999999858 0.00000000000000000  
6 0 1 -1060.00000000000000000 -0.29999999999999999  -1060.00000000000000000 0.00000000000000000  
8 0.00000000000000000 1.00000000000000000
1 0.00000000000000000 0.00000000000000000 0.00000000000000000 1.00000000000000000 
1 -0.39999999999999858 -1060.00000000000000000 1.00000000000000000 0.00000000000000000 
1 0.00000000000000000 0.00000000000000000 -1.00000000000000000 0.00000000000000000 
1 0.00000000000000000 0.00000000000000000 -1.00000000000000000 0.00000000000000000 
1 31.70000000000000284 0.00000000000000000 0.00000000000000000 -1.00000000000000000 
1 0.00000000000000000 0.00000000000000000 0.00000000000000000 -1.00000000000000000 
1 0.00000000000000000 0.00000000000000000 1.00000000000000000 0.00000000000000000 
1 0.00000000000000000 -0.30000000000000071 -1.00000000000000000 0.00000000000000000 
1 0.00000000000000000 -0.30000000000000071 1.00000000000000000 0.00000000000000000 
1 0.00000000000000000 0.00000000000000000 1.00000000000000000 0.00000000000000000 
1 0.00000000000000089 -1060.00000000000000000 1.00000000000000000 0.00000000000000000 
2 5.30000000000002025 -980.00000000000000000 -0.00000000000000044 1.00000000000000000 1.00000000000000000 0.00000000000000044 1.69999999999999996
1 0.00000000000000000 -1087.40071331022340928 1.00000000000000000 0.00000000000000000 
2 5.29999999999988081 -560.00000000000000000 -0.00000000000000044 1.00000000000000000 1.00000000000000000 0.00000000000000044 1.69999999999999996
1 0.00000000000000000 -1087.40071331022340928 1.00000000000000000 0.00000000000000000 
2 5.29999999999974225 -140.00000000000000000 -0.00000000000000044 1.00000000000000000 1.00000000000000000 0.00000000000000044 1.69999999999999996
1 0.00000000000000000 -1087.40071331022340928 1.00000000000000000 0.00000000000000000 
1 0.00000000000000000 1.00000000000000000 1.00000000000000000 0.00000000000000000 
1 4.71238898038468967 0.00000000000000000 0.00000000000000000 1.00000000000000000 
6 0 1 0.00000000000000000 -0.30000000000000071  0.00000000000000000 0.00000000000000000  
1 1.57079632679489656 0.00000000000000000 0.00000000000000000 1.00000000000000000 
7 0 0  1 2 2  -1060.00000000000000000 -0.29999999999999716  -1060.00000000000000000 0.00000000000000178 
 0.00000000000000000 2 1.00000000000000000 2
1 6.28318530717958623 1.00000000000000000 -1.00000000000000000 0.00000000000000000 
1 0.00000000000000000 0.00000000000000000 0.00000000000000000 -1.00000000000000000 
1 0.00000000000000000 0.00000000000000000 -1.00000000000000000 0.00000000000000000 
8 0.00000000000000000 1060.00000000000000000
1 6.28318530717958623 0.00000000000000000 0.00000000000000000 -1.00000000000000000 
6 0 1 0.00000000000000000 -0.30000000000000071  0.00000000000000000 0.00000000000000000  
1 0.00000000000000000 0.00000000000000000 0.00000000000000000 -1.00000000000000000 
6 0 1 0.00000000000000000 -0.30000000000000071  0.00000000000000000 0.00000000000000000  
1 0.00000000000000000 0.00000000000000000 1.00000000000000000 0.00000000000000000 
1 0.00000000000000000 0.00000000000000000 1.00000000000000000 0.00000000000000000 
1 0.00000000000000089 -1060.00000000000000000 1.00000000000000000 0.00000000000000000 
1 0.00000000000000000 0.00000000000000000 -1.00000000000000000 0.00000000000000000 
2 5.30000000000002025 -980.00000000000000000 -0.00000000000000044 1.00000000000000000 1.00000000000000000 0.00000000000000044 1.69999999999999996
1 0.00000000000000000 -1087.10071331022345476 1.00000000000000000 0.00000000000000000 
2 5.29999999999988081 -560.00000000000000000 -0.00000000000000044 1.00000000000000000 1.00000000000000000 0.00000000000000044 1.69999999999999996
1 0.00000000000000000 -1087.10071331022345476 1.00000000000000000 0.00000000000000000 
2 5.29999999999974225 -140.00000000000000000 -0.00000000000000044 1.00000000000000000 1.00000000000000000 0.00000000000000044 1.69999999999999996
1 0.00000000000000000 -1087.10071331022345476 1.00000000000000000 0.00000000000000000 
1 0.00000000000000000 0.00000000000000000 -1.00000000000000000 0.00000000000000000 
1 9.60000000000000142 0.00000000000000213 0.00000000000000000 -1.00000000000000000 
Curves 54
1 16.25000000000000000 1060.00000000000000000 -0.39999999999976454 0.00000000000000000 -1.00000000000000000 -0.00000000000000022 
1 16.25000000000000000 0.00000000000000000 0.00000000000000000 0.00000000000000000 0.00000000000000022 -1.00000000000000000 
1 16.25000000000000000 1060.00000000000000000 -9.99999999999976552 0.00000000000000000 -1.00000000000000000 -0.00000000000000022 
2 16.25000000000000000 80.00000000000000000 -4.69999999999995399 1.00000000000000000 -0.00000000000000022 0.00000000000000022 0.00000000000000022 1.00000000000000000 -0.00000000000000022 -0.00000000000000022 0.00000000000000022 1.00000000000000000 1.69999999999999996
2 16.25000000000000000 500.00000000000000000 -4.70000000000000107 1.00000000000000000 -0.00000000000000022 0.00000000000000022 0.00000000000000022 1.00000000000000000 -0.00000000000000022 -0.00000000000000022 0.00000000000000022 1.00000000000000000 1.69999999999999996
2 16.25000000000000000 920.00000000000000000 -4.70000000000004725 1.00000000000000000 -0.00000000000000022 0.00000000000000022 0.00000000000000022 1.00000000000000000 -0.00000000000000022 -0.00000000000000022 0.00000000000000022 1.00000000000000000 1.69999999999999996
1 15.85000000000000142 1060.00000000000000000 0.00000000000023537 0.00000000000000000 -1.00000000000000000 -0.00000000000000022 
2 15.85000000000000142 0.00000000000000000 -0.39999999999999991 -0.00000000000000000 1.00000000000000000 0.00000000000000022 0.00000000000000000 -0.00000000000000022 1.00000000000000000 1.00000000000000000 0.00000000000000000 0.00000000000000000 0.40000000000000002
6 0 1 16.25000000000000000 1060.00000000000000000 -9.99999999999976552  15.94999999999999929 1060.00000000000000000 -9.99999999999976552  
1 15.94999999999999929 1060.00000000000000000 0.00000000000023537 0.00000000000000000 0.00000000000000022 -1.00000000000000000 
6 0 1 16.25000000000000000 1060.00000000000000000 -0.39999999999976454  15.94999999999999929 1060.00000000000000000 -0.39999999999976454  
6 0 1 16.25000000000000000 0.00000000000000009 -0.39999999999999991  15.94999999999999929 0.00000000000000000 -0.39999999999999991  
1 15.94999999999999929 0.00000000000000000 0.00000000000000000 0.00000000000000000 0.00000000000000022 -1.00000000000000000 
6 0 1 16.25000000000000000 0.00000000000000222 -10.00000000000000000  15.94999999999999929 0.00000000000000000 -10.00000000000000000  
1 15.94999999999999929 1060.00000000000000000 -9.99999999999976552 0.00000000000000000 -1.00000000000000000 -0.00000000000000022 
1 1071.15071331022340928 81.69999999999977547 -4.69999999999971951 -1.00000000000000000 0.00000000000000022 -0.00000000000000028 
2 15.95000000000004547 80.00000000000000000 -4.69999999999995399 1.00000000000000000 -0.00000000000000022 0.00000000000000022 0.00000000000000022 1.00000000000000000 -0.00000000000000022 -0.00000000000000022 0.00000000000000022 1.00000000000000000 1.69999999999999996
1 1071.15071331022340928 81.69999999999977547 -4.69999999999971951 -1.00000000000000000 0.00000000000000022 -0.00000000000000028 
2 15.95000000000004547 500.00000000000000000 -4.70000000000000107 1.00000000000000000 -0.00000000000000022 0.00000000000000022 0.00000000000000022 1.00000000000000000 -0.00000000000000022 -0.00000000000000022 0.00000000000000022 1.00000000000000000 1.69999999999999996
1 1071.15071331022340928 81.69999999999977547 -4.69999999999971951 -1.00000000000000000 0.00000000000000022 -0.00000000000000028 
2 15.95000000000004547 920.00000000000000000 -4.70000000000004725 1.00000000000000000 -0.00000000000000022 0.00000000000000022 0.00000000000000022 1.00000000000000000 -0.00000000000000022 -0.00000000000000022 0.00000000000000022 1.00000000000000000 1.69999999999999996
1 -15.85000000000000142 1060.00000000000000000 0.00000000000023537 0.00000000000000000 -1.00000000000000000 -0.00000000000000022 
1 -16.25000000000000000 0.00000000000000000 0.00000000000000000 1.00000000000000000 0.00000000000000000 0.00000000000000000 
2 15.85000000000000142 1060.00000000000000000 -0.39999999999976454 -0.00000000000000000 1.00000000000000000 0.00000000000000022 0.00000000000000000 -0.00000000000000022 1.00000000000000000 1.00000000000000000 0.00000000000000000 0.00000000000000000 0.10000000000000003
6 0 1 15.85000000000000142 1060.00000000000000000 0.00000000000023537  15.85000000000000142 1060.00000000000000000 -0.29999999999976451  
7 0 0  1 2 2  15.84999999999999964 -0.00000000000000009 0.00000000000000014  15.85000000000000320 -0.00000000000000002 -0.29999999999999982 
 0.00000000000000000 2 1.00000000000000000 2
2 15.85000000000000142 0.00000000000000000 -0.39999999999999991 -0.00000000000000000 1.00000000000000000 0.00000000000000022 0.00000000000000000 -0.00000000000000022 1.00000000000000000 1.00000000000000000 0.00000000000000000 0.00000000000000000 0.10000000000000003
1 15.94999999999999929 1060.00000000000000000 -0.39999999999976454 0.00000000000000000 -1.00000000000000000 -0.00000000000000022 
1 -16.25000000000000000 1060.00000000000000000 -0.39999999999976499 0.00000000000000000 -1.00000000000000000 -0.00000000000000022 
2 -15.85000000000000142 -0.00000000000000361 -0.39999999999999858 0.00000000000000000 1.00000000000000000 0.00000000000000022 0.00000000000000022 -0.00000000000000022 1.00000000000000000 1.00000000000000000 0.00000000000000000 -0.00000000000000022 0.40000000000000002
1 -16.25000000000000000 1060.00000000000000000 -0.29999999999976462 1.00000000000000000 0.00000000000000000 0.00000000000000000 
6 0 1 -15.85000000000000142 1060.00000000000000000 0.00000000000023537  -15.85000000000000142 1060.00000000000000000 -0.29999999999976462  
6 0 1 -15.85000000000000142 0.00000000000000000 0.00000000000000000  -15.85000000000000142 0.00000000000000000 -0.29999999999999999  
1 -16.25000000000000000 0.00000000000000000 -0.29999999999999999 1.00000000000000000 0.00000000000000000 0.00000000000000000 
1 15.85000000000000142 1060.00000000000000000 -0.29999999999976451 0.00000000000000000 -1.00000000000000000 -0.00000000000000022 
1 -16.25000000000000000 1060.00000000000000000 -9.99999999999976552 0.00000000000000000 -1.00000000000000000 -0.00000000000000022 
1 -16.25000000000000000 0.00000000000000222 -10.00000000000000000 0.00000000000000000 -0.00000000000000022 1.00000000000000000 
2 -16.25000000000000000 80.00000000000001421 -4.69999999999996110 1.00000000000000000 -0.00000000000000022 0.00000000000000022 0.00000000000000022 1.00000000000000000 -0.00000000000000022 -0.00000000000000022 0.00000000000000022 1.00000000000000000 1.69999999999999996
2 -16.25000000000000000 500.00000000000000000 -4.70000000000000817 1.00000000000000000 -0.00000000000000022 0.00000000000000022 0.00000000000000022 1.00000000000000000 -0.00000000000000022 -0.00000000000000022 0.00000000000000022 1.00000000000000000 1.69999999999999996
2 -16.25000000000000000 920.00000000000000000 -4.70000000000005436 1.00000000000000000 -0.00000000000000022 0.00000000000000022 0.00000000000000022 1.00000000000000000 -0.00000000000000022 -0.00000000000000022 0.00000000000000022 1.00000000000000000 1.69999999999999996
2 -15.85000000000000142 1060.00000000000000000 -0.39999999999976321 0.00000000000000000 1.00000000000000000 0.00000000000000022 0.00000000000000022 -0.00000000000000022 1.00000000000000000 1.00000000000000000 0.00000000000000000 -0.00000000000000022 0.10000000000000003
6 0 1 -16.25000000000000000 1060.00000000000000000 -0.39999999999976499  -15.95000000000000107 1060.00000000000000000 -0.39999999999976321  
7 0 0  1 2 2  -16.24999999999999645 -0.00000000000000361 -0.39999999999999847  -15.94999999999999929 -0.00000000000000000 -0.39999999999999847 
 0.00000000000000000 2 1.00000000000000000 2
2 -15.85000000000000142 0.00000000000000000 -0.39999999999999858 0.00000000000000000 1.00000000000000000 0.00000000000000022 0.00000000000000022 -0.00000000000000022 1.00000000000000000 1.00000000000000000 0.00000000000000000 -0.00000000000000022 0.10000000000000003
1 -15.85000000000000142 1060.00000000000000000 -0.29999999999976462 0.00000000000000000 -1.00000000000000000 -0.00000000000000022 
6 0 1 -16.25000000000000000 1060.00000000000000000 -9.99999999999976552  -15.94999999999999929 1060.00000000000000000 -9.99999999999976552  
1 -15.94999999999999929 1060.00000000000000000 -9.99999999999976552 0.00000000000000000 -1.00000000000000000 -0.00000000000000022 
6 0 1 -16.25000000000000000 0.00000000000000222 -10.00000000000000000  -15.94999999999999929 0.00000000000000000 -10.00000000000000000  
1 -15.94999999999999929 1060.00000000000000000 -9.99999999999976552 0.00000000000000000 -0.00000000000000022 1.00000000000000000 
1 -15.94999999999999929 0.00000000000000000 -10.00000000000000000 0.00000000000000000 -0.00000000000000022 1.00000000000000000 
2 -15.95000000000004547 80.00000000000001421 -4.69999999999996110 1.00000000000000000 -0.00000000000000022 0.00000000000000022 0.00000000000000022 1.00000000000000000 -0.00000000000000022 -0.00000000000000022 0.00000000000000022 1.00000000000000000 1.69999999999999996
2 -15.95000000000004547 500.00000000000000000 -4.70000000000000817 1.00000000000000000 -0.00000000000000022 0.00000000000000022 0.00000000000000022 1.00000000000000000 -0.00000000000000022 -0.00000000000000022 0.00000000000000022 1.00000000000000000 1.69999999999999996
2 -15.95000000000004547 920.00000000000000000 -4.70000000000005436 1.00000000000000000 -0.00000000000000022 0.00000000000000022 0.00000000000000022 1.00000000000000000 -0.00000000000000022 -0.00000000000000022 0.00000000000000022 1.00000000000000000 1.69999999999999996
1 -15.95000000000000107 1060.00000000000000000 -0.39999999999976321 -0.00000000000000000 -1.00000000000000000 -0.00000000000000022 
Polygon3D 0
PolygonOnTriangulations 0
Surfaces 38
1 16.25000000000000000 1060.00000000000000000 -0.39999999999976454 1.00000000000000000 0.00000000000000000 0.00000000000000000 0.00000000000000000 0.00000000000000022 -1.00000000000000000 -0.00000000000000000 1.00000000000000000 0.00000000000000022 
2 15.85000000000000142 1060.00000000000000000 -0.39999999999976454 -0.00000000000000000 1.00000000000000000 0.00000000000000022 0.00000000000000000 -0.00000000000000022 1.00000000000000000 1.00000000000000000 0.00000000000000000 0.00000000000000000 0.40000000000000002
1 15.95000000000000107 1060.00000000000000000 -0.39999999999976454 0.00000000000000000 0.00000000000000022 -1.00000000000000000 0.00000000000000000 -1.00000000000000000 -0.00000000000000022 -1.00000000000000000 0.00000000000000000 -0.00000000000000000 
1 15.94999999999999929 1060.00000000000000000 -0.39999999999976454 0.00000000000000000 -0.00000000000000022 1.00000000000000000 -0.00000000000000000 1.00000000000000000 0.00000000000000022 -1.00000000000000000 -0.00000000000000000 0.00000000000000000 
1 16.25000000000000000 0.00000000000000000 0.00000000000000000 1.00000000000000000 0.00000000000000000 0.00000000000000000 0.00000000000000000 0.00000000000000022 -1.00000000000000000 -0.00000000000000000 1.00000000000000000 0.00000000000000022 
1 15.94999999999999929 0.00000000000000000 0.00000000000000000 -0.00000000000000000 -1.00000000000000000 -0.00000000000000022 -0.00000000000000000 -0.00000000000000022 1.00000000000000000 -1.00000000000000000 0.00000000000000000 0.00000000000000000 
1 15.94999999999999929 1060.00000000000000000 0.00000000000023537 0.00000000000000000 1.00000000000000000 0.00000000000000022 0.00000000000000000 0.00000000000000022 -1.00000000000000000 -1.00000000000000000 0.00000000000000000 0.00000000000000000 
2 1071.15071331022340928 79.99999999999977263 -4.69999999999971951 1.00000000000000000 -0.00000000000000022 0.00000000000000022 0.00000000000000022 1.00000000000000000 -0.00000000000000022 -0.00000000000000022 0.00000000000000022 1.00000000000000000 1.69999999999999996
2 1071.15071331022340928 79.99999999999977263 -4.69999999999971951 1.00000000000000000 -0.00000000000000022 0.00000000000000022 0.00000000000000022 1.00000000000000000 -0.00000000000000022 -0.00000000000000022 0.00000000000000022 1.00000000000000000 1.69999999999999996
2 1071.15071331022340928 79.99999999999977263 -4.69999999999971951 1.00000000000000000 -0.00000000000000022 0.00000000000000022 0.00000000000000022 1.00000000000000000 -0.00000000000000022 -0.00000000000000022 0.00000000000000022 1.00000000000000000 1.69999999999999996
1 -15.85000000000000142 1060.00000000000000000 0.00000000000023537 0.00000000000000000 -0.00000000000000022 1.00000000000000000 1.00000000000000000 0.00000000000000000 0.00000000000000000 -0.00000000000000000 1.00000000000000000 0.00000000000000022 
1 15.85000000000000142 1060.00000000000000000 -0.29999999999976462 1.00000000000000000 0.00000000000000000 0.00000000000000000 0.00000000000000000 -1.00000000000000000 -0.00000000000000022 0.00000000000000000 0.00000000000000022 -1.00000000000000000 
1 15.85000000000000142 1060.00000000000000000 -0.29999999999976451 -1.00000000000000000 0.00000000000000000 -0.00000000000000000 0.00000000000000000 1.00000000000000000 0.00000000000000022 0.00000000000000000 0.00000000000000022 -1.00000000000000000 
2 15.85000000000000142 -1060.00000000000000000 -0.40000000000023528 -0.00000000000000000 1.00000000000000000 0.00000000000000022 0.00000000000000000 -0.00000000000000022 1.00000000000000000 1.00000000000000000 0.00000000000000000 0.00000000000000000 0.40000000000000002
9 0 0 0 0 7 1 8 2 2 2 16.24999999999998934 0.00000000000000000 -0.39999999999999980  15.94999999999999218 0.00000000000000000 -0.39999999999999958  
16.25000000000012790 -0.00000000000000002 -0.31024020989743611  15.95000000000013429 -0.00000000000000000 -0.37756005247436109  
16.22650044537907377 -0.00000000000000004 -0.22048085400661732  15.94412511134457944 -0.00000000000000001 -0.35512021350165007  
16.17950508888122840 -0.00000000000000006 -0.13810122367082051  15.93237627222053732 -0.00000000000000001 -0.33452530591770963  
16.11189877632893541 -0.00000000000000007 -0.07049491111911677  15.91547469408207505 -0.00000000000000002 -0.31762372777977621  
16.02951914599347560 -0.00000000000000008 -0.02349955462065629  15.89487978649845346 -0.00000000000000002 -0.30587488865516499  
15.93975979010254918 -0.00000000000000009 0.00000000000000032  15.87243994752561882 -0.00000000000000002 -0.29999999999999954  
15.84999999999999964 -0.00000000000000009 0.00000000000000014  15.85000000000000320 -0.00000000000000002 -0.29999999999999982  

4.71238898038468967 8
6.28318530717958623 8

0.00000000000000000 2
1.00000000000000000 2

9 0 0 0 0 7 1 8 2 2 2 15.84999999999999964 1060.00000000000000000 0.00000000000023548  15.84999999999999964 1060.00000000000000000 -0.29999999999976457  
15.93975979010262556 1060.00000000000318323 0.00000000000023497  15.87243994752569343 1060.00000000000318323 -0.29999999999976545  
16.02951914599307059 1059.99999999998567546 -0.02349955462041772  15.89487978649808042 1059.99999999998567546 -0.30587488865492363  
16.11189877632977385 1060.00000000002637535 -0.07049491111888775  15.91547469408280335 1060.00000000002637535 -0.31762372777955317  
16.17950508888027628 1059.99999999997453415 -0.13810122367057742  15.93237627221971131 1059.99999999997453415 -0.33452530591746060  
16.22650044537971326 1060.00000000001477929 -0.22048085400638737  15.94412511134513721 1060.00000000001477929 -0.35512021350142359  
16.24999999999989342 1059.99999999999567990 -0.31024020989719836  15.94999999999991935 1059.99999999999567990 -0.37756005247412222  
16.24999999999999645 1060.00000000000000000 -0.39999999999976454  15.94999999999999929 1060.00000000000000000 -0.39999999999976460  

0.00000000000000000 8
1.57079632679489656 8

0.00000000000000000 2
1.00000000000000000 2

1 15.94999999999999929 1060.00000000000000000 -9.99999999999976552 0.00000000000000000 0.00000000000000022 -1.00000000000000000 0.00000000000000000 -1.00000000000000000 -0.00000000000000022 -1.00000000000000000 0.00000000000000000 -0.00000000000000000 
1 15.94999999999999929 1060.00000000000000000 -0.39999999999976454 1.00000000000000000 0.00000000000000000 0.00000000000000000 0.00000000000000000 0.00000000000000022 -1.00000000000000000 -0.00000000000000000 1.00000000000000000 0.00000000000000022 
2 -15.85000000000000142 1060.00000000000000000 -0.39999999999976321 0.00000000000000000 1.00000000000000000 0.00000000000000022 0.00000000000000022 -0.00000000000000022 1.00000000000000000 1.00000000000000000 0.00000000000000000 -0.00000000000000022 0.40000000000000002
1 -15.85000000000000142 1060.00000000000000000 -0.29999999999976318 1.00000000000000000 -0.00000000000000000 0.00000000000000000 0.00000000000000000 -1.00000000000000000 -0.00000000000000022 0.00000000000000000 0.00000000000000022 -1.00000000000000000 
1 -15.85000000000000142 1060.00000000000000000 -0.29999999999976462 -1.00000000000000000 0.00000000000000000 -0.00000000000000000 0.00000000000000000 1.00000000000000000 0.00000000000000022 0.00000000000000000 0.00000000000000022 -1.00000000000000000 
1 -16.25000000000000000 0.00000000000000000 0.00000000000000000 0.00000000000000000 -0.00000000000000022 1.00000000000000000 1.00000000000000000 0.00000000000000000 0.00000000000000000 -0.00000000000000000 1.00000000000000000 0.00000000000000022 
1 -16.25000000000000000 0.00000000000000000 -0.29999999999999999 0.00000000000000000 -1.00000000000000000 0.00000000000000000 -1.00000000000000000 0.00000000000000000 0.00000000000000000 -0.00000000000000000 -0.00000000000000000 -1.00000000000000000 
1 -16.25000000000000000 1060.00000000000000000 -0.29999999999976462 -0.00000000000000000 1.00000000000000000 0.00000000000000000 1.00000000000000000 0.00000000000000000 0.00000000000000000 0.00000000000000000 0.00000000000000000 -1.00000000000000000 
2 15.85000000000000142 1060.00000000000000000 -0.39999999999976454 -0.00000000000000000 1.00000000000000000 0.00000000000000022 0.00000000000000000 -0.00000000000000022 1.00000000000000000 1.00000000000000000 0.00000000000000000 0.00000000000000000 0.10000000000000003
1 -16.25000000000000000 1060.00000000000000000 -9.99999999999976552 -1.00000000000000000 -0.00000000000000000 0.00000000000000000 0.00000000000000000 -0.00000000000000022 1.00000000000000000 0.00000000000000000 1.00000000000000000 0.00000000000000022 
1 -15.94999999999999929 1060.00000000000000000 -0.39999999999976410 -0.00000000000000296 -0.00000000000000022 1.00000000000000000 0.00000000000000000 -1.00000000000000000 -0.00000000000000022 1.00000000000000000 -0.00000000000000000 0.00000000000000296 
1 -15.95000000000000107 1060.00000000000000000 -0.39999999999976321 0.00000000000000592 0.00000000000000022 -1.00000000000000000 0.00000000000000000 1.00000000000000000 0.00000000000000022 1.00000000000000000 -0.00000000000000000 0.00000000000000592 
2 -15.85000000000000142 -1060.00000000000000000 -0.40000000000023550 0.00000000000000000 1.00000000000000000 0.00000000000000022 -1.00000000000000000 0.00000000000000000 0.00000000000000000 0.00000000000000000 -0.00000000000000022 1.00000000000000000 0.40000000000000002
9 0 0 0 0 7 1 8 2 2 2 -15.84999999999999964 -0.00000000000000370 0.00000000000000144  -15.84999999999999964 -0.00000000000000002 -0.29999999999999849  
-15.93975979010262556 -0.00000000000000370 0.00000000000000104  -15.87243994752569343 -0.00000000000000002 -0.29999999999999871  
-16.02951914599307059 -0.00000000000000369 -0.02349955462065193  -15.89487978649808042 -0.00000000000000002 -0.30587488865516060  
-16.11189877632977385 -0.00000000000000368 -0.07049491111912132  -15.91547469408280335 -0.00000000000000002 -0.31762372777978182  
-16.17950508888027628 -0.00000000000000367 -0.13810122367081190  -15.93237627221971131 -0.00000000000000001 -0.33452530591769974  
-16.22650044537971326 -0.00000000000000365 -0.22048085400662071  -15.94412511134513721 -0.00000000000000001 -0.35512021350165485  
-16.24999999999989342 -0.00000000000000363 -0.31024020989743262  -15.94999999999991935 -0.00000000000000000 -0.37756005247435714  
-16.24999999999999645 -0.00000000000000361 -0.39999999999999847  -15.94999999999999929 -0.00000000000000000 -0.39999999999999847  

0.00000000000000000 8
1.57079632679489656 8

0.00000000000000000 2
1.00000000000000000 2

9 0 0 0 0 7 1 8 2 2 2 -16.24999999999998934 1059.99999999999909051 -0.39999999999976299  -15.94999999999999218 1059.99999999999909051 -0.39999999999976293  
-16.25000000000012790 1060.00000000001227818 -0.31024020989720003  -15.95000000000014317 1060.00000000001227818 -0.37756005247412427  
-16.22650044537907377 1059.99999999996930455 -0.22048085400637768  -15.94412511134451904 1059.99999999996930455 -0.35512021350141387  
-16.17950508888122840 1060.00000000004479261 -0.13810122367058861  -15.93237627222066699 1060.00000000004479261 -0.33452530591747243  
-16.11189877632893541 1059.99999999996111910 -0.07049491111887531  -15.91547469408192583 1059.99999999996111910 -0.31762372777953990  
-16.02951914599347560 1060.00000000002250999 -0.02349955462042219  -15.89487978649854050 1060.00000000002250999 -0.30587488865492796  
-15.93975979010254918 1059.99999999999272404 0.00000000000023776  -15.87243994752559395 1059.99999999999272404 -0.29999999999976329  
-15.84999999999999964 1060.00000000000000000 0.00000000000023681  -15.85000000000000320 1060.00000000000000000 -0.29999999999976323  

4.71238898038468967 8
6.28318530717958623 8

0.00000000000000000 2
1.00000000000000000 2

1 -15.85000000000000142 1060.00000000000000000 -0.29999999999976462 0.00000000000000000 -0.00000000000000022 1.00000000000000000 1.00000000000000000 0.00000000000000000 0.00000000000000000 -0.00000000000000000 1.00000000000000000 0.00000000000000022 
1 -16.25000000000000000 0.00000000000000222 -10.00000000000000000 -1.00000000000000000 -0.00000000000000000 0.00000000000000000 0.00000000000000000 -0.00000000000000022 1.00000000000000000 0.00000000000000000 1.00000000000000000 0.00000000000000022 
1 -15.94999999999999929 0.00000000000000000 -10.00000000000000000 -0.00000000000000740 -1.00000000000000000 -0.00000000000000022 0.00000000000000000 0.00000000000000022 -1.00000000000000000 1.00000000000000000 -0.00000000000000740 -0.00000000000000000 
1 -15.94999999999999929 1060.00000000000000000 -9.99999999999976552 -0.00000000000000000 1.00000000000000000 0.00000000000000022 0.00000000000000000 -0.00000000000000022 1.00000000000000000 1.00000000000000000 0.00000000000000000 0.00000000000000000 
2 -15.85000000000000142 1060.00000000000000000 -0.39999999999976321 0.00000000000000000 1.00000000000000000 0.00000000000000022 0.00000000000000022 -0.00000000000000022 1.00000000000000000 1.00000000000000000 0.00000000000000000 -0.00000000000000022 0.10000000000000003
1 -15.94999999999999929 1060.00000000000000000 -9.99999999999976552 0.00000000000000000 0.00000000000000022 -1.00000000000000000 0.00000000000000000 1.00000000000000000 0.00000000000000022 1.00000000000000000 -0.00000000000000000 0.00000000000000000 
1 -15.94999999999999929 1060.00000000000000000 -9.99999999999976552 -1.00000000000000000 -0.00000000000000000 0.00000000000000000 0.00000000000000000 -0.00000000000000022 1.00000000000000000 0.00000000000000000 1.00000000000000000 0.00000000000000022 
Triangulations 0

TShapes 157
Ve
0.001000000000000
16.250000000000000 0.000000000000000 -0.400000000000000
0 0

0101101
*
Ed
 0.001000000000000 1 1 0
1  1 0 0.000000000000000 1060.000000000000000
2  1 2 0 0.000000000000000 1060.000000000000000
4 G1 1 0 2 0
2  2 3 0 0.000000000000000 1060.000000000000000
2  3 4 0 0.000000000000000 1060.000000000000000
2  4 1 0 0.000000000000000 1060.000000000000000
0

0101000
+157 6 -157 8 *
Ve
0.001000000000000
16.250000000000000 0.000000000000002 -10.000000000000000
0 0

0101101
*
Ed
 0.001000000000000 1 1 0
2  5 5 0 0.400000000000000 10.000000000000000
1  2 0 0.400000000000000 10.000000000000000
2  6 6 10 0.400000000000000 10.000000000000000
2  7 7 11 0.400000000000000 10.000000000000000
2  8 1 11 0.400000000000000 10.000000000000000
2  9 1 10 0.400000000000000 10.000000000000000
0

0101000
+157 0 -155 0 *
Ed
 0.001000000000000 1 1 0
1  3 0 0.000000000000000 1060.000000000000000
2  10 1 0 0.000000000000000 1060.000000000000000
0

0101000
+155 6 -155 8 *
Wi

0101100
+156 5 -154 9 +154 12 -153 5 *
Ve
0.001000000000059
16.250000000000000 81.700000000000003 -4.700000000000013
0 0

0101101
*
Ed
 0.001000000000000 1 1 0
1  4 0 0.000000000000000 6.283185307179586
2  11 1 13 0.000000000000000 6.283185307179586
2  12 8 0 0.000000000000000 6.283185307179586
0

0101100
+151 0 -151 0 *
Wi

0101100
-150 4 *
Ve
0.001000000000059
16.250000000000000 501.699999999999989 -4.700000000000060
0 0

0101101
*
Ed
 0.001000000000000 1 1 0
1  5 0 0.000000000000000 6.283185307179586
2  13 1 5 0.000000000000000 6.283185307179586
2  14 9 16 0.000000000000000 6.283185307179586
0

0101100
+148 0 -148 0 *
Wi

0101100
-147 0 *
Ve
0.001000000000059
16.250000000000000 921.700000000000045 -4.700000000000106
0 0

0101101
*
Ed
 0.001000000000000 1 1 0
1  6 0 0.000000000000000 6.283185307179586
2  15 1 5 0.000000000000000 6.283185307179586
2  16 10 18 0.000000000000000 6.283185307179586
0

0101100
+145 0 -145 0 *
Wi

0101100
-144 0 *
Fa
0  0.001000000000000 1 5

0101000
+152 0 +149 0 +146 0 +143 0 *
Ve
0.001000000000000
15.850000000000001 0.000000000000000 0.000000000000000
0 0

0101101
*
Ed
 0.001000000000000 1 1 0
1  7 0 0.000000000000000 1060.000000000000000
2  17 2 0 0.000000000000000 1060.000000000000000
4 G1 2 0 11 0
2  18 12 0 0.000000000000000 1060.000000000000000
2  19 13 0 0.000000000000000 1060.000000000000000
2  20 11 0 0.000000000000000 1060.000000000000000
0

0101000
+141 6 -141 8 *
Ed
 0.000000100000000 1 1 0
2  21 14 0 0.000000000000000 1.570796326794897
1  8 0 0.000000000000000 1.570796326794897
2  22 2 11 0.000000000000000 1.570796326794897
2  23 2 10 0.000000000000000 1.570796326794897
2  24 15 10 0.000000000000000 1.570796326794897
2  25 16 11 0.000000000000000 1.570796326794897
0

0101000
+141 0 -157 0 *
Wi

0101100
+140 0 -156 0 -139 6 +139 8 *
Fa
0  0.000000100000000 2 0

0101000
+138 0 *
Ve
0.001000000000000
15.949999999999999 1060.000000000000000 -9.999999999999766
0 0

0101101
*
Ed
 0.000000100000000 1 1 0
1  9 0 0.000000000000000 1.000000000000000
4 C0 17 0 7 0
2  26 7 0 0.000000000000000 1.000000000000000
0

0101000
+155 6 -136 0 *
Ve
0.001000000000000
15.949999999999999 1060.000000000000000 -0.399999999999765
0 0

0101101
*
Ed
 0.001000000000000 1 1 0
2  27 18 0 0.400000000000000 10.000000000000000
1  10 0 0.400000000000000 10.000000000000000
2  28 7 0 0.400000000000000 10.000000000000000
0

0101000
+134 0 -136 0 *
Ed
 0.000000100000000 1 1 0
1  11 0 0.000000000000000 1.000000000000000
4 C0 4 0 7 0
2  29 4 0 0.000000000000000 1.000000000000000
2  30 7 0 0.000000000000000 1.000000000000000
2  31 16 0 0.000000000000000 1.000000000000000
0

0101000
+157 6 -134 0 *
Wi

0101100
+154 6 +135 0 -133 0 -132 0 *
Fa
0  0.000000100000000 7 0

0101000
+131 0 *
Ve
0.001000000000000
15.949999999999999 0.000000000000000 -0.400000000000000
0 0

0101101
*
Ed
 0.000000100000000 1 1 0
1  12 0 0.000000000000000 1.000000000000000
4 C0 6 0 4 0
2  32 6 0 0.000000000000000 1.000000000000000
2  33 4 0 0.000000000000000 1.000000000000000
2  34 15 0 0.000000000000000 1.000000000000000
0

0101000
+157 8 -129 0 *
Ve
0.001000000000000
15.949999999999999 0.000000000000000 -10.000000000000000
0 0

0101101
*
Ed
 0.001000000000000 1 1 0
2  35 18 0 0.400000000000000 10.000000000000000
1  13 0 0.400000000000000 10.000000000000000
2  36 6 0 0.400000000000000 10.000000000000000
0

0101000
+129 0 -127 0 *
Ed
 0.000000100000000 1 1 0
1  14 0 0.000000000000000 1.000000000000000
4 C0 17 0 6 0
2  37 6 0 0.000000000000000 1.000000000000000
0

0101000
+155 8 -127 0 *
Wi

0101100
-154 8 +128 0 +126 0 -125 0 *
Fa
0  0.000000100000000 6 0

0101000
+124 0 *
Ed
 0.001000000000000 1 1 0
2  38 18 0 0.000000000000000 1060.000000000000000
1  15 0 0.000000000000000 1060.000000000000000
0

0101000
+136 0 -127 0 *
Wi

0101000
+153 0 +125 0 -122 0 -135 0 *
Fa
0  0.000000100000000 17 0

0101000
+121 0 *
Ve
0.001000000000059
15.950000000000045 81.700000000000003 -4.700000000000013
0 0

0101101
*
Ed
 0.000000100000000 1 1 0
1  16 0 1054.900713310223409 1055.200713310223364
3  39 40CN 8 0 1054.900713310223409 1055.200713310223364
0

0101000
+151 0 -119 0 *
Ed
 0.001000000000000 1 1 0
1  17 0 0.000000000000000 6.283185307179586
2  41 18 13 0.000000000000000 6.283185307179586
2  42 8 0 0.000000000000000 6.283185307179586
0

0101100
+119 0 -119 0 *
Wi

0101100
-150 0 -118 0 +117 0 +118 0 *
Fa
0  0.000000100000000 8 0

0101000
+116 0 *
Ve
0.001000000000059
15.950000000000045 501.699999999999989 -4.700000000000060
0 0

0101101
*
Ed
 0.000000100000000 1 1 0
1  18 0 1054.900713310223409 1055.200713310223364
3  43 44CN 9 0 1054.900713310223409 1055.200713310223364
0

0101000
+148 19 -114 19 *
Ed
 0.001000000000000 1 1 0
1  19 0 0.000000000000000 6.283185307179586
2  45 18 5 0.000000000000000 6.283185307179586
2  46 9 16 0.000000000000000 6.283185307179586
0

0101100
+114 0 -114 0 *
Wi

0101100
-147 0 -113 16 +112 0 +113 16 *
Fa
0  0.000000100000000 9 16

0101000
+111 0 *
Ve
0.001000000000059
15.950000000000045 921.700000000000045 -4.700000000000106
0 0

0101101
*
Ed
 0.000000100000000 1 1 0
1  20 0 1054.900713310223409 1055.200713310223364
3  47 48CN 10 0 1054.900713310223409 1055.200713310223364
0

0101000
+145 20 -109 20 *
Ed
 0.001000000000000 1 1 0
1  21 0 0.000000000000000 6.283185307179586
2  49 18 5 0.000000000000000 6.283185307179586
2  50 10 18 0.000000000000000 6.283185307179586
0

0101100
+109 0 -109 0 *
Wi

0101100
-144 0 -108 18 +107 0 +108 18 *
Fa
0  0.000000100000000 10 18

0101000
+106 0 *
Ve
0.001000000000000
-15.850000000000001 0.000000000000000 0.000000000000000
0 0

0101101
*
Ed
 0.001000000000000 1 1 0
1  22 0 0.000000000000000 1060.000000000000000
2  51 19 0 0.000000000000000 1060.000000000000000
4 G1 11 0 19 0
2  52 20 0 0.000000000000000 1060.000000000000000
2  53 21 0 0.000000000000000 1060.000000000000000
2  54 11 0 0.000000000000000 1060.000000000000000
0

0101000
+104 6 -104 8 *
Ed
 0.001000000000000 1 1 0
2  55 22 0 0.399999999999999 32.100000000000001
1  23 0 0.399999999999999 32.100000000000001
2  56 23 10 0.399999999999999 32.100000000000001
2  57 24 11 0.399999999999999 32.100000000000001
2  58 11 11 0.399999999999999 32.100000000000001
2  59 11 10 0.399999999999999 32.100000000000001
0

0101000
+104 0 -141 0 *
Wi

0101100
+103 0 -140 0 -102 6 +102 8 *
Fa
0  0.001000000000000 11 0

0101000
+101 0 *
Ve
0.001000000000000
15.850000000000001 1060.000000000000000 -0.299999999999765
0 0

0101101
*
Ed
 0.000000100000000 1 1 0
2  22 25 0 0.000000000000000 1.570796326794897
1  24 0 0.000000000000000 1.570796326794897
2  60 16 0 0.000000000000000 1.570796326794897
0

0101000
+99 0 -134 0 *
Ed
 0.000000100000000 1 1 0
1  25 0 0.000000000000000 1.000000000000000
2  61 16 0 0.000000000000000 1.000000000000000
4 C0 13 0 16 0
2  62 13 0 0.000000000000000 1.000000000000000
0

0101000
+141 6 -99 0 *
Wi

0101100
+139 6 +132 0 -98 0 -97 0 *
Fa
0  0.000000100000000 16 0

0101000
+96 0 *
Ve
0.001000000000000
15.850000000000001 0.000000000000000 -0.300000000000000
0 0

0101101
*
Ed
 0.000000100000002 1 1 0
1  26 0 0.000000000000000 1.000000000000000
2  63 15 0 0.000000000000000 1.000000000000000
4 C0 15 0 13 0
2  64 13 0 0.000000000000000 1.000000000000000
0

0101000
+141 8 -94 0 *
Ed
 0.000000100000000 1 1 0
2  23 25 0 0.000000000000000 1.570796326794897
1  27 0 0.000000000000000 1.570796326794897
2  65 15 0 0.000000000000000 1.570796326794897
0

0101000
+94 0 -129 0 *
Wi

0101100
-139 8 +93 0 +92 0 -128 0 *
Fa
0  0.000000100000000 15 0

0101000
+91 0 *
Ed
 0.001000000000000 1 1 0
2  66 18 0 0.000000000000000 1060.000000000000000
1  28 0 0.000000000000000 1060.000000000000000
2  67 4 0 0.000000000000000 1060.000000000000000
2  68 25 0 0.000000000000000 1060.000000000000000
0

0101000
+134 0 -129 0 *
Wi

0101100
+89 5 -133 5 +126 5 -122 5 *
Wi

0101100
-117 4 *
Wi

0101100
-112 0 *
Wi

0101100
-107 0 *
Fa
0  0.001000000000000 18 5

0101000
+88 0 +87 0 +86 0 +85 0 *
Ve
0.001000000000000
-16.250000000000000 0.000000000000000 -0.400000000000000
0 0

0101101
*
Ed
 0.001000000000000 1 1 0
1  29 0 0.000000000000000 1060.000000000000000
2  69 19 0 0.000000000000000 1060.000000000000000
4 G1 19 0 26 0
2  70 27 0 0.000000000000000 1060.000000000000000
2  71 28 0 0.000000000000000 1060.000000000000000
2  72 26 0 0.000000000000000 1060.000000000000000
0

0101000
+83 6 -83 8 *
Ed
 0.000000100000004 1 1 0
2  73 29 0 4.712388980384690 6.283185307179586
1  30 0 4.712388980384690 6.283185307179586
2  74 19 11 4.712388980384690 6.283185307179586
2  75 19 10 4.712388980384690 6.283185307179586
2  76 30 10 4.712388980384690 6.283185307179586
2  77 31 11 4.712388980384690 6.283185307179586
0

0101000
+83 0 -104 0 *
Wi

0101100
+82 0 -103 0 -81 6 +81 8 *
Fa
0  0.000000100000004 19 0

0101000
+80 0 *
Ve
0.001000000000000
-15.850000000000001 1060.000000000000000 -0.299999999999765
0 0

0101101
*
Ed
 0.001000000000000 1 1 0
2  78 32 0 0.399999999999999 32.100000000000001
1  31 0 0.399999999999999 32.100000000000001
2  79 24 0 0.399999999999999 32.100000000000001
0

0101000
+78 0 -99 0 *
Ed
 0.000000100000000 1 1 0
1  32 0 0.000000000000000 1.000000000000000
4 C0 21 0 24 0
2  80 24 0 0.000000000000000 1.000000000000000
2  81 21 0 0.000000000000000 1.000000000000000
2  82 31 0 0.000000000000000 1.000000000000000
0

0101000
+104 6 -78 0 *
Wi

0101100
+102 6 +97 0 -77 0 -76 0 *
Fa
0  0.000000100000000 24 0

0101000
+75 0 *
Ve
0.001000000000000
-15.850000000000001 0.000000000000000 -0.300000000000000
0 0

0101101
*
Ed
 0.000000100000000 1 1 0
1  33 0 0.000000000000000 1.000000000000000
4 C0 23 0 21 0
2  83 23 0 0.000000000000000 1.000000000000000
2  84 21 0 0.000000000000000 1.000000000000000
2  85 30 0 0.000000000000000 1.000000000000000
0

0101000
+104 8 -73 0 *
Ed
 0.001000000000000 1 1 0
2  86 32 0 0.399999999999999 32.100000000000001
1  34 0 0.399999999999999 32.100000000000001
2  87 23 0 0.399999999999999 32.100000000000001
0

0101000
+73 0 -94 0 *
Wi

0101100
-102 8 +72 0 +71 0 -93 0 *
Fa
0  0.000000100000000 23 0

0101000
+70 0 *
Ed
 0.001000000000000 1 1 0
2  17 25 0 0.000000000000000 1060.000000000000000
1  35 0 0.000000000000000 1060.000000000000000
2  88 13 0 0.000000000000000 1060.000000000000000
2  89 32 0 0.000000000000000 1060.000000000000000
0

0101000
+99 0 -94 0 *
Wi

0101100
+68 0 -89 0 -98 0 +92 0 *
Fa
0  0.000000100000000 25 0

0101000
+67 0 *
Ve
0.001000000000000
-16.250000000000000 0.000000000000002 -10.000000000000000
0 0

0101101
*
Ed
 0.001000000000000 1 1 0
1  36 0 0.000000000000000 1060.000000000000000
2  90 26 0 0.000000000000000 1060.000000000000000
0

0101000
+65 6 -65 8 *
Ed
 0.001000000000000 1 1 0
2  91 33 0 0.000000000000000 9.600000000000000
1  37 0 0.000000000000000 9.600000000000000
2  92 34 10 0.000000000000000 9.600000000000000
2  93 35 11 0.000000000000000 9.600000000000000
2  94 26 11 0.000000000000000 9.600000000000000
2  95 26 10 0.000000000000000 9.600000000000000
0

0101000
+65 0 -83 0 *
Wi

0101100
+64 5 -63 9 +63 12 -82 5 *
Ve
0.001000000000060
-16.250000000000000 81.700000000000017 -4.700000000000021
0 0

0101101
*
Ed
 0.001000000000000 1 1 0
1  38 0 0.000000000000000 6.283185307179586
2  96 26 13 0.000000000000000 6.283185307179586
2  97 8 0 0.000000000000000 6.283185307179586
0

0101100
+61 0 -61 0 *
Wi

0101100
+60 4 *
Ve
0.001000000000060
-16.250000000000000 501.699999999999989 -4.700000000000069
0 0

0101101
*
Ed
 0.001000000000000 1 1 0
1  39 0 0.000000000000000 6.283185307179586
2  98 26 5 0.000000000000000 6.283185307179586
2  99 9 16 0.000000000000000 6.283185307179586
0

0101100
+58 0 -58 0 *
Wi

0101100
+57 0 *
Ve
0.001000000000060
-16.250000000000000 921.700000000000045 -4.700000000000115
0 0

0101101
*
Ed
 0.001000000000000 1 1 0
1  40 0 0.000000000000000 6.283185307179586
2  100 26 5 0.000000000000000 6.283185307179586
2  101 10 18 0.000000000000000 6.283185307179586
0

0101100
+55 0 -55 0 *
Wi

0101100
+54 0 *
Fa
0  0.001000000000000 26 5

0101000
+62 0 +59 0 +56 0 +53 0 *
Ve
0.001000000000001
-15.949999999999999 1060.000000000000000 -0.399999999999764
0 0

0101101
*
Ed
 0.000000100000004 1 1 0
2  74 36 0 4.712388980384690 6.283185307179586
1  41 0 4.712388980384690 6.283185307179586
2  102 31 0 4.712388980384690 6.283185307179586
0

0101000
+51 0 -78 0 *
Ed
 0.000000100000001 1 1 0
1  42 0 0.000000000000000 1.000000000000000
2  103 31 0 0.000000000000000 1.000000000000000
4 C0 28 0 31 0
2  104 28 0 0.000000000000000 1.000000000000000
0

0101000
+83 6 -51 0 *
Wi

0101100
+81 6 +76 0 -50 0 -49 0 *
Fa
0  0.000000100000000 31 0

0101000
+48 0 *
Ve
0.001000000000001
-15.949999999999999 0.000000000000000 -0.399999999999999
0 0

0101101
*
Ed
 0.000000100000004 1 1 0
1  43 0 0.000000000000000 1.000000000000000
2  105 30 0 0.000000000000000 1.000000000000000
4 C0 30 0 28 0
2  106 28 0 0.000000000000000 1.000000000000000
0

0101000
+83 8 -46 0 *
Ed
 0.000000100000004 1 1 0
2  75 36 0 4.712388980384690 6.283185307179586
1  44 0 4.712388980384690 6.283185307179586
2  107 30 0 4.712388980384690 6.283185307179586
0

0101000
+46 0 -73 0 *
Wi

0101100
-81 8 +45 0 +44 0 -72 0 *
Fa
0  0.000000100000000 30 0

0101000
+43 0 *
Ed
 0.001000000000000 1 1 0
2  108 32 0 0.000000000000000 1060.000000000000000
1  45 0 0.000000000000000 1060.000000000000000
2  109 21 0 0.000000000000000 1060.000000000000000
2  110 36 0 0.000000000000000 1060.000000000000000
0

0101000
+78 0 -73 0 *
Wi

0101100
+41 0 -68 0 -77 0 +71 0 *
Fa
0  0.001000000000000 32 0

0101000
+40 0 *
Ve
0.001000000000000
-15.949999999999999 1060.000000000000000 -9.999999999999766
0 0

0101101
*
Ed
 0.000000100000000 1 1 0
1  46 0 0.000000000000000 1.000000000000000
4 C0 37 0 35 0
2  111 35 0 0.000000000000000 1.000000000000000
0

0101000
+65 6 -38 0 *
Ve
0.001000000000000
-15.949999999999999 0.000000000000000 -10.000000000000000
0 0

0101101
*
Ed
 0.001000000000000 1 1 0
2  112 38 0 0.000000000000000 1060.000000000000000
1  47 0 0.000000000000000 1060.000000000000000
0

0101000
+38 0 -36 0 *
Ed
 0.000000100000000 1 1 0
1  48 0 0.000000000000000 1.000000000000000
4 C0 34 0 37 0
2  113 34 0 0.000000000000000 1.000000000000000
0

0101000
+65 8 -36 0 *
Wi

0101000
-64 0 +37 0 +35 0 -34 0 *
Fa
0  0.000000100000000 37 0

0101000
+33 0 *
Ed
 0.001000000000000 1 1 0
2  114 38 0 0.000000000000000 9.600000000000000
1  49 0 0.000000000000000 9.600000000000000
2  115 35 0 0.000000000000000 9.600000000000000
0

0101000
+38 0 -51 0 *
Wi

0101100
+63 6 +49 0 -31 0 -37 0 *
Fa
0  0.000000100000000 35 0

0101000
+30 0 *
Ed
 0.001000000000000 1 1 0
2  116 38 0 0.000000000000000 9.600000000000000
1  50 0 0.000000000000000 9.600000000000000
2  117 34 0 0.000000000000000 9.600000000000000
0

0101000
+36 0 -46 0 *
Wi

0101100
-63 8 +34 0 +28 0 -45 0 *
Fa
0  0.000000100000000 34 0

0101000
+27 0 *
Ve
0.001000000000060
-15.950000000000045 81.700000000000017 -4.700000000000021
0 0

0101101
*
Ed
 0.001000000000000 1 1 0
1  51 0 0.000000000000000 6.283185307179586
2  118 38 13 0.000000000000000 6.283185307179586
2  119 8 0 0.000000000000000 6.283185307179586
0

0101100
+25 0 -25 0 *
Ed
 0.000000100000000 1 1 0
1  16 0 1087.100713310223455 1087.400713310223409
3  39 40CN 8 0 1087.100713310223455 1087.400713310223409
0

0101000
+25 0 -61 0 *
Wi

0101100
-24 0 -23 0 +60 0 +23 0 *
Fa
0  0.000000100000000 8 0

0101000
+22 0 *
Ve
0.001000000000060
-15.950000000000045 501.699999999999989 -4.700000000000069
0 0

0101101
*
Ed
 0.001000000000000 1 1 0
1  52 0 0.000000000000000 6.283185307179586
2  120 38 5 0.000000000000000 6.283185307179586
2  121 9 16 0.000000000000000 6.283185307179586
0

0101100
+20 0 -20 0 *
Ed
 0.000000100000000 1 1 0
1  18 0 1087.100713310223455 1087.400713310223409
3  43 44CN 9 0 1087.100713310223455 1087.400713310223409
0

0101000
+20 19 -58 19 *
Wi

0101100
-19 0 -18 16 +57 0 +18 16 *
Fa
0  0.000000100000000 9 16

0101000
+17 0 *
Ve
0.001000000000060
-15.950000000000045 921.700000000000045 -4.700000000000115
0 0

0101101
*
Ed
 0.001000000000000 1 1 0
1  53 0 0.000000000000000 6.283185307179586
2  122 38 5 0.000000000000000 6.283185307179586
2  123 10 18 0.000000000000000 6.283185307179586
0

0101100
+15 0 -15 0 *
Ed
 0.000000100000000 1 1 0
1  20 0 1087.100713310223455 1087.400713310223409
3  47 48CN 10 0 1087.100713310223455 1087.400713310223409
0

0101000
+15 20 -55 20 *
Wi

0101100
-14 0 -13 18 +54 0 +13 18 *
Fa
0  0.000000100000000 10 18

0101000
+12 0 *
Ed
 0.001000000000000 1 1 0
2  69 36 0 0.000000000000000 1060.000000000000000
1  54 0 0.000000000000000 1060.000000000000000
2  124 28 0 0.000000000000000 1060.000000000000000
2  125 38 0 0.000000000000000 1060.000000000000000
0

0101000
+51 0 -46 0 *
Wi

0101100
+10 0 -41 0 -50 0 +44 0 *
Fa
0  0.000000100000004 36 0

0101000
+9 0 *
Wi

0101100
+35 5 -31 5 +28 5 -10 5 *
Wi

0101100
+24 4 *
Wi

0101100
+19 0 *
Wi

0101100
+14 0 *
Fa
0  0.001000000000000 38 5

0101000
+7 0 +6 0 +5 0 +4 0 *
Sh

0101100
+142 0 +137 5 +130 5 +123 5 +120 5 -115 4 -110 0 -105 0 +100 5 +95 5 
+90 5 -84 0 +79 5 +74 5 +69 5 -66 5 +52 0 +47 5 +42 5 -39 5 
+32 5 +29 5 +26 5 -21 4 -16 0 -11 0 -8 5 -3 0 *
So

0100000
+2 0 *

+1 1 