
CASCADE Topology V1, (c) Matra-Datavision
Locations 47
1
1.000000000000000 0.000000000000000 0.000000000000000 0.000000000000000 
0.000000000000000 1.000000000000000 0.000000000000000 0.000000000000000 
0.000000000000000 0.000000000000000 1.000000000000000 0.000000000000000 
1
1.000000000000000 0.000000000000000 0.000000000000000 0.000000000000000 
0.000000000000000 1.000000000000000 0.000000000000000 0.000000000000000 
0.000000000000000 0.000000000000000 1.000000000000000 0.000000000000000 
1
1.000000000000000 0.000000000000000 0.000000000000000 0.000000000000000 
0.000000000000000 1.000000000000000 0.000000000000000 0.000000000000000 
0.000000000000000 0.000000000000000 1.000000000000000 0.000000000000000 
1
1.000000000000000 0.000000000000000 0.000000000000000 0.000000000000000 
0.000000000000000 1.000000000000000 0.000000000000000 0.000000000000000 
0.000000000000000 0.000000000000000 1.000000000000000 0.000000000000000 
1
1.000000000000000 0.000000000000000 0.000000000000000 0.000000000000000 
0.000000000000000 1.000000000000000 0.000000000000000 0.000000000000000 
0.000000000000000 0.000000000000000 1.000000000000000 0.000000000000000 
1
1.000000000000000 0.000000000000000 0.000000000000000 0.000000000000000 
0.000000000000000 1.000000000000000 0.000000000000000 0.000000000000000 
0.000000000000000 0.000000000000000 1.000000000000000 0.000000000000000 
2  2 1 3 1 4 -1 5 1 6 -1 0
2  2 -1 0
1
1.000000000000000 0.000000000000000 0.000000000000000 0.000000000000000 
0.000000000000000 1.000000000000000 0.000000000000000 0.000000000000000 
0.000000000000000 0.000000000000000 1.000000000000000 0.000000000000000 
1
1.000000000000000 0.000000000000000 0.000000000000000 0.000000000000000 
0.000000000000000 1.000000000000000 0.000000000000000 0.000000000000000 
0.000000000000000 0.000000000000000 1.000000000000000 0.000000000000000 
1
1.000000000000000 0.000000000000000 0.000000000000000 0.000000000000000 
0.000000000000000 1.000000000000000 0.000000000000000 0.000000000000000 
0.000000000000000 0.000000000000000 1.000000000000000 0.000000000000000 
2  9 1 10 1 11 -1 0
2  11 1 10 -1 9 -1 0
2  10 -1 9 -1 0
2  2 -1 11 1 10 -1 9 -1 0
1
1.000000000000000 0.000000000000000 0.000000000000000 0.000000000000000 
0.000000000000000 1.000000000000000 0.000000000000000 0.000000000000000 
0.000000000000000 0.000000000000000 1.000000000000000 3.000000000000000 
2  9 1 10 1 11 -1 16 1 0
2  16 -1 11 1 10 -1 9 -1 0
2  2 -1 16 -1 11 1 10 -1 9 -1 0
2  3 1 4 -1 5 1 6 -1 0
2  9 1 10 1 11 -1 16 1 2 1 0
2  9 1 10 1 11 -1 2 1 0
1
1.000000000000000 0.000000000000000 0.000000000000000 0.000000000000000 
0.000000000000000 1.000000000000000 0.000000000000000 0.000000000000000 
0.000000000000000 0.000000000000000 1.000000000000000 0.000000000000000 
2  9 1 10 1 11 -1 23 1 0
2  23 -1 11 1 10 -1 9 -1 0
2  23 -1 0
2  9 1 10 1 11 -1 16 1 23 1 0
2  23 -1 16 -1 11 1 10 -1 9 -1 0
2  9 1 10 1 11 -1 23 1 3 1 4 -1 5 1 6 -1 0
2  9 1 10 1 11 -1 2 1 3 1 4 -1 5 1 6 -1 0
1
1.000000000000000 0.000000000000000 0.000000000000000 180.000000000000000 
0.000000000000000 1.000000000000000 0.000000000000000 196.470125492503939 
0.000000000000000 0.000000000000000 1.000000000000000 0.000000000000000 
2  31 1 5 1 6 -1 0
1
1.000000000000000 0.000000000000000 0.000000000000000 -180.000000000000000 
0.000000000000000 1.000000000000000 0.000000000000000 196.470125492503939 
0.000000000000000 0.000000000000000 1.000000000000000 0.000000000000000 
2  3 1 4 -1 33 -1 0
2  3 1 4 -1 31 -1 0
2  33 1 5 1 6 -1 0
1
1.000000000000000 0.000000000000000 0.000000000000000 0.000000000000000 
0.000000000000000 1.000000000000000 0.000000000000000 233.970968781892282 
0.000000000000000 0.000000000000000 1.000000000000000 0.000000000000000 
2  3 1 4 -1 5 1 6 -1 37 -1 0
2  9 1 10 1 11 -1 16 1 23 1 3 1 4 -1 5 1 6 -1 0
2  9 1 10 1 11 -1 16 1 2 1 3 1 4 -1 5 1 6 -1 0
2  5 1 6 -1 0
2  3 1 4 -1 0
2  23 1 3 1 4 -1 5 1 6 -1 0
2  2 1 23 -1 0
2  31 -1 0
2  33 -1 0
2  37 -1 0
Curve2ds 89
1 4.35337489126828370 0.00000000000000000 0.00000000000000000 -1.00000000000000000 
1 1.21178223767849280 0.00000000000000000 0.00000000000000000 -1.00000000000000000 
1 1.92981041591130054 0.00000000000000000 0.00000000000000000 -1.00000000000000000 
1 6.28318530717958801 0.00000000000000000 0.00000000000000000 -1.00000000000000000 
1 0.00000000000000000 0.00000000000000000 1.00000000000000000 0.00000000000000000 
2 94.55989084453675275 -38.38383389569847282 1.00000000000000000 0.00000000000000000 -0.00000000000000000 1.00000000000000000 5.00000000000000000
2 195.00000000000000000 -37.17478348783700426 1.00000000000000000 0.00000000000000000 -0.00000000000000000 1.00000000000000000 5.00000000000000000
1 0.00000000000000000 -3.00000000000000000 1.00000000000000000 0.00000000000000000 
2 94.55989084453675275 -38.38383389569847282 1.00000000000000000 0.00000000000000000 -0.00000000000000000 1.00000000000000000 5.00000000000000000
2 -37.17478348783700426 195.00000000000000000 0.00000000000000000 1.00000000000000000 1.00000000000000000 -0.00000000000000000 5.00000000000000000
1 0.00000000000000000 -3.00000000000000000 1.00000000000000000 0.00000000000000000 
2 -100.44010915546319040 -557.99907616636164676 1.00000000000000000 0.00000000000000000 -0.00000000000000000 1.00000000000000000 550.00000000000000000
1 3.14159265358979312 -3.00000000000000000 -1.00000000000000000 0.00000000000000000 
2 -556.79002575850017820 0.00000000000004718 0.00000000000000000 1.00000000000000000 1.00000000000000000 -0.00000000000000000 550.00000000000000000
1 0.00000000000000000 0.00000000000000000 1.00000000000000000 0.00000000000000000 
2 -100.44010915546319040 -557.99907616636164676 1.00000000000000000 0.00000000000000000 -0.00000000000000000 1.00000000000000000 550.00000000000000000
1 3.14159265358979312 0.00000000000000000 -1.00000000000000000 -0.00000000000000000 
2 0.00000000000005060 -556.79002575850017820 1.00000000000000000 0.00000000000000000 -0.00000000000000000 1.00000000000000000 550.00000000000000000
1 0.00000000000000000 0.00000000000000000 1.00000000000000000 0.00000000000000000 
1 0.00000000000000000 -3.00000000000000000 1.00000000000000000 0.00000000000000000 
2 -100.44010915546319040 -557.99907616636164676 1.00000000000000000 0.00000000000000000 -0.00000000000000000 1.00000000000000000 550.00000000000000000
1 0.00000000000000000 -0.00000000000000000 1.00000000000000000 0.00000000000000000 
2 -0.00000000000005060 -556.79002575850017820 -1.00000000000000000 0.00000000000000000 0.00000000000000000 1.00000000000000000 550.00000000000000000
1 4.35337489126828370 0.00000000000000000 0.00000000000000000 -1.00000000000000000 
1 1.21178223767849280 0.00000000000000000 0.00000000000000000 -1.00000000000000000 
1 1.21178223767849280 0.00000000000000000 0.00000000000000000 -1.00000000000000000 
1 0.00000000000000000 -3.00000000000000000 1.00000000000000000 0.00000000000000000 
2 -556.79002575850017820 -0.00000000000005402 0.00000000000000000 -1.00000000000000000 1.00000000000000000 0.00000000000000000 550.00000000000000000
1 0.00000000000000160 0.00000000000000000 0.00000000000000000 -1.00000000000000000 
1 99.55989084453675275 -38.38383389569847282 -0.00000000000000000 1.00000000000000000 
1 200.00000000000000000 -37.17478348783700426 0.00000000000000000 1.00000000000000000 
1 99.55989084453675275 -38.38383389569847282 -0.00000000000000000 1.00000000000000000 
1 -37.17478348783700426 200.00000000000000000 1.00000000000000000 0.00000000000000000 
1 0.00000000000000000 0.00000000000000000 1.00000000000000000 0.00000000000000000 
1 0.00000000000000000 -3.00000000000000000 1.00000000000000000 0.00000000000000000 
2 94.55989084453675275 -38.38383389569847282 1.00000000000000000 0.00000000000000000 -0.00000000000000000 1.00000000000000000 5.00000000000000000
2 -195.00000000000000000 -37.17478348783700426 -1.00000000000000000 0.00000000000000000 0.00000000000000000 1.00000000000000000 5.00000000000000000
2 -37.17478348783700426 -195.00000000000000000 0.00000000000000000 -1.00000000000000000 1.00000000000000000 0.00000000000000000 5.00000000000000000
1 99.55989084453675275 -38.38383389569847282 0.00000000000000000 1.00000000000000000 
1 -200.00000000000000000 -37.17478348783700426 0.00000000000000000 1.00000000000000000 
1 -37.17478348783700426 -200.00000000000000000 1.00000000000000000 0.00000000000000000 
1 0.00000000000000000 0.00000000000000000 1.00000000000000000 0.00000000000000000 
1 0.00000000000000000 -3.00000000000000000 1.00000000000000000 0.00000000000000000 
2 94.55989084453675275 -3.20299290019812588 1.00000000000000000 0.00000000000000000 -0.00000000000000000 1.00000000000000000 5.00000000000000000
2 -195.00000000000000000 -1.99394249233665732 -1.00000000000000000 0.00000000000000000 0.00000000000000000 1.00000000000000000 5.00000000000000000
2 -1.99394249233665732 -195.00000000000000000 0.00000000000000000 -1.00000000000000000 1.00000000000000000 0.00000000000000000 5.00000000000000000
1 0.00000000000000000 0.00000000000000000 1.00000000000000000 0.00000000000000000 
1 0.00000000000000000 -3.00000000000000000 1.00000000000000000 0.00000000000000000 
2 -89.98800723071627772 -516.14255200021898418 1.00000000000000000 0.00000000000000000 -0.00000000000000000 1.00000000000000000 550.12834999999995489
2 -10.45210192474696953 -514.93350159235751562 -1.00000000000000000 0.00000000000000000 0.00000000000000000 1.00000000000000000 550.12834999999995489
1 0.00000000000000000 0.00000000000000000 1.00000000000000000 0.00000000000000000 
2 -89.98800723071627772 -516.14255200021898418 1.00000000000000000 0.00000000000000000 -0.00000000000000000 1.00000000000000000 550.12834999999995489
2 10.45210192474696953 -514.93350159235751562 1.00000000000000000 0.00000000000000000 -0.00000000000000000 1.00000000000000000 550.12834999999995489
1 0.00000000000000000 0.00000000000000000 1.00000000000000000 0.00000000000000000 
2 94.55989084453675275 -3.20299290019812588 1.00000000000000000 0.00000000000000000 -0.00000000000000000 1.00000000000000000 5.00000000000000000
2 195.00000000000000000 -1.99394249233665732 1.00000000000000000 0.00000000000000000 -0.00000000000000000 1.00000000000000000 5.00000000000000000
2 0.00000000000000000 0.00000000000000000 -1.00000000000000000 0.00000000000000000 0.00000000000000000 1.00000000000000000 1.69999999999999996
1 0.00000000000000000 0.00000000000000000 1.00000000000000000 0.00000000000000000 
2 180.00000000000000000 -14.40529561334869868 1.00000000000000000 0.00000000000000000 -0.00000000000000000 1.00000000000000000 1.69999999999998863
2 -180.00000000000000000 -14.40529561334869868 1.00000000000000000 0.00000000000000000 -0.00000000000000000 1.00000000000000000 1.69999999999998863
2 0.00000000000000000 0.00000000000000000 -1.00000000000000000 0.00000000000000000 0.00000000000000000 1.00000000000000000 1.69999999999999996
1 0.00000000000000000 0.00000000000000000 1.00000000000000000 0.00000000000000000 
2 0.00000000000000000 23.09554767603964365 1.00000000000000000 0.00000000000000000 -0.00000000000000000 1.00000000000000000 1.69999999999999996
2 -514.93350159235751562 -10.45210192474697308 0.00000000000000000 -1.00000000000000000 1.00000000000000000 0.00000000000000000 550.12834999999995489
1 0.00000000000000000 -3.00000000000000000 1.00000000000000000 0.00000000000000000 
2 -89.98800723071627772 -516.14255200021898418 1.00000000000000000 0.00000000000000000 -0.00000000000000000 1.00000000000000000 550.12834999999995489
2 -514.93350159235751562 10.45210192474696598 0.00000000000000000 1.00000000000000000 1.00000000000000000 -0.00000000000000000 550.12834999999995489
1 0.00000000000000000 -3.00000000000000000 1.00000000000000000 0.00000000000000000 
2 94.55989084453675275 -3.20299290019812588 1.00000000000000000 0.00000000000000000 -0.00000000000000000 1.00000000000000000 5.00000000000000000
2 -1.99394249233665732 195.00000000000000000 0.00000000000000000 1.00000000000000000 1.00000000000000000 -0.00000000000000000 5.00000000000000000
2 -14.40529561334869868 -180.00000000000000000 0.00000000000000000 1.00000000000000000 -1.00000000000000000 0.00000000000000000 1.69999999999999996
1 6.28318530717958623 2.99999999999999867 -1.00000000000000000 0.00000000000000000 
2 -14.40529561334869868 180.00000000000000000 0.00000000000000000 1.00000000000000000 -1.00000000000000000 0.00000000000000000 1.69999999999999996
1 6.28318530717958623 2.99999999999999867 -1.00000000000000000 0.00000000000000000 
2 23.09554767603964365 -0.00000000000000342 0.00000000000000000 1.00000000000000000 -1.00000000000000000 0.00000000000000000 1.69999999999999996
1 6.28318530717958623 2.99999999999999867 -1.00000000000000000 0.00000000000000000 
1 6.28318530717958801 0.00000000000000000 0.00000000000000000 -1.00000000000000000 
1 1.22543119774445208 0.00000000000000000 0.00000000000000000 -1.00000000000000000 
1 1.22543119774483000 0.00000000000000000 0.00000000000000000 -1.00000000000000000 
1 0.00000000000000160 0.00000000000000000 0.00000000000000000 -1.00000000000000000 
1 1.22543119774445208 0.00000000000000000 0.00000000000000000 -1.00000000000000000 
1 1.22543119774483000 0.00000000000000000 0.00000000000000000 -1.00000000000000000 
1 1.58979685795190839 0.00000000000000000 0.00000000000000000 -1.00000000000000000 
1 41.88557343452191617 0.00000000000000000 0.00000000000000000 -1.00000000000000000 
8 0.00000000000000000 3.00000000000000000
1 1.58979685795190839 0.00000000000000000 0.00000000000000000 -1.00000000000000000 
1 6.28318530717958623 0.00000000000000000 0.00000000000000000 1.00000000000000000 
1 0.00000000000000000 0.00000000000000000 0.00000000000000000 1.00000000000000000 
1 6.28318530717958623 0.00000000000000000 0.00000000000000000 1.00000000000000000 
1 0.00000000000000000 0.00000000000000000 0.00000000000000000 1.00000000000000000 
Curves 31
1 -193.24324324324322788 169.01941921918086109 0.00000000000000000 -0.00000000000000000 -0.00000000000000000 1.00000000000000000 
1 -200.00000000000000000 173.70063761801563373 0.00000000000000000 -0.00000000000000000 -0.00000000000000000 1.00000000000000000 
2 -195.00000000000000000 173.70063761801563373 0.00000000000000000 0.00000000000000000 0.00000000000000000 -1.00000000000000000 -1.00000000000000000 -0.00000000000000000 -0.00000000000000000 -0.00000000000000000 1.00000000000000000 0.00000000000000000 5.00000000000000000
2 -195.00000000000000000 173.70063761801563373 0.00000000000000000 0.00000000000000000 0.00000000000000000 -1.00000000000000000 -1.00000000000000000 -0.00000000000000000 -0.00000000000000000 -0.00000000000000000 1.00000000000000000 0.00000000000000000 5.00000000000000000
2 -0.00000000000005060 -345.91460465264754021 0.00000000000000000 0.00000000000000000 0.00000000000000000 -1.00000000000000000 -1.00000000000000000 -0.00000000000000000 -0.00000000000000000 -0.00000000000000000 1.00000000000000000 0.00000000000000000 550.00000000000000000
2 -0.00000000000005060 -345.91460465264754021 0.00000000000000000 0.00000000000000000 0.00000000000000000 -1.00000000000000000 -1.00000000000000000 -0.00000000000000000 -0.00000000000000000 -0.00000000000000000 1.00000000000000000 0.00000000000000000 550.00000000000000000
2 0.00000000000005060 -345.91460465264754021 0.00000000000000000 0.00000000000000000 0.00000000000000000 1.00000000000000000 1.00000000000000000 0.00000000000000000 -0.00000000000000000 -0.00000000000000000 1.00000000000000000 0.00000000000000000 550.00000000000000000
1 193.24324324324322788 169.01941921918086109 0.00000000000000000 0.00000000000000000 0.00000000000000000 1.00000000000000000 
1 -200.00000000000000000 208.88147861351598067 0.00000000000000000 -0.00000000000000000 -0.00000000000000000 1.00000000000000000 
1 -200.00000000000000000 173.70063761801563373 0.00000000000000000 -0.00000000000000000 1.00000000000000000 -0.00000000000000000 
1 -200.00000000000000000 173.70063761801563373 0.00000000000000000 -0.00000000000000000 1.00000000000000000 -0.00000000000000000 
2 195.00000000000000000 173.70063761801563373 0.00000000000000000 0.00000000000000000 0.00000000000000000 1.00000000000000000 1.00000000000000000 0.00000000000000000 -0.00000000000000000 -0.00000000000000000 1.00000000000000000 0.00000000000000000 5.00000000000000000
1 200.00000000000000000 173.70063761801563373 0.00000000000000000 0.00000000000000000 1.00000000000000000 0.00000000000000000 
2 195.00000000000000000 208.88147861351598067 0.00000000000000000 0.00000000000000000 0.00000000000000000 1.00000000000000000 1.00000000000000000 0.00000000000000000 -0.00000000000000000 -0.00000000000000000 1.00000000000000000 0.00000000000000000 5.00000000000000000
2 10.45210192474696953 -304.05808048650487763 0.00000000000000000 0.00000000000000000 0.00000000000000000 1.00000000000000000 1.00000000000000000 0.00000000000000000 -0.00000000000000000 -0.00000000000000000 1.00000000000000000 0.00000000000000000 550.12834999999995489
2 -10.45210192474696953 -304.05808048650487763 0.00000000000000000 0.00000000000000000 0.00000000000000000 -1.00000000000000000 -1.00000000000000000 -0.00000000000000000 -0.00000000000000000 -0.00000000000000000 1.00000000000000000 0.00000000000000000 550.12834999999995489
2 -195.00000000000000000 208.88147861351598067 0.00000000000000000 0.00000000000000000 0.00000000000000000 -1.00000000000000000 -1.00000000000000000 -0.00000000000000000 -0.00000000000000000 -0.00000000000000000 1.00000000000000000 0.00000000000000000 5.00000000000000000
2 0.00000000000000000 0.00000000000000000 0.00000000000000000 -0.00000000000000000 -0.00000000000000000 -1.00000000000000000 -1.00000000000000000 0.00000000000000000 0.00000000000000000 0.00000000000000000 1.00000000000000000 -0.00000000000000000 1.69999999999999996
2 0.00000000000000000 0.00000000000000000 0.00000000000000000 -0.00000000000000000 -0.00000000000000000 -1.00000000000000000 -1.00000000000000000 0.00000000000000000 0.00000000000000000 0.00000000000000000 1.00000000000000000 -0.00000000000000000 1.69999999999999996
2 -10.45210192474696953 -304.05808048650487763 0.00000000000000000 0.00000000000000000 0.00000000000000000 -1.00000000000000000 -1.00000000000000000 -0.00000000000000000 -0.00000000000000000 -0.00000000000000000 1.00000000000000000 0.00000000000000000 550.12834999999995489
2 -195.00000000000000000 208.88147861351598067 0.00000000000000000 0.00000000000000000 0.00000000000000000 -1.00000000000000000 -1.00000000000000000 -0.00000000000000000 -0.00000000000000000 -0.00000000000000000 1.00000000000000000 0.00000000000000000 5.00000000000000000
2 180.00000000000000000 196.47012549250393931 2.99999999999999867 0.00000000000000000 0.00000000000000000 1.00000000000000000 -1.00000000000000000 0.00000000000000000 0.00000000000000000 0.00000000000000000 -1.00000000000000000 0.00000000000000000 1.69999999999999996
2 -180.00000000000000000 196.47012549250393931 2.99999999999999867 0.00000000000000000 0.00000000000000000 1.00000000000000000 -1.00000000000000000 0.00000000000000000 0.00000000000000000 0.00000000000000000 -1.00000000000000000 0.00000000000000000 1.69999999999999996
2 0.00000000000000000 233.97096878189228164 2.99999999999999867 0.00000000000000000 0.00000000000000000 1.00000000000000000 -1.00000000000000000 0.00000000000000000 0.00000000000000000 0.00000000000000000 -1.00000000000000000 0.00000000000000000 1.69999999999999996
1 200.00000000000000000 173.70063761801563373 0.00000000000000000 0.00000000000000000 0.00000000000000000 1.00000000000000000 
1 -196.69270134341326184 213.58623813574752148 0.00000000000000000 -0.00000000000000000 -0.00000000000000000 1.00000000000000000 
1 200.00000000000000000 208.88147861351598067 0.00000000000000000 0.00000000000000000 0.00000000000000000 1.00000000000000000 
1 196.69270134341326184 213.58623813574752148 0.00000000000000000 0.00000000000000000 0.00000000000000000 1.00000000000000000 
1 0.00000000000006750 245.97096878187437596 0.00000000000000000 0.00000000000000000 0.00000000000000000 1.00000000000000000 
1 -1.69999999999999996 0.00000000000000000 0.00000000000000000 0.00000000000000006 0.00000000000000000 1.00000000000000000 
1 -1.69999999999999996 0.00000000000000000 0.00000000000000000 0.00000000000000006 0.00000000000000000 1.00000000000000000 
Polygon3D 0
PolygonOnTriangulations 0
Surfaces 21
2 -195.00000000000000000 173.70063761801563373 0.00000000000000000 0.00000000000000000 -0.00000000000000000 -1.00000000000000000 -1.00000000000000000 -0.00000000000000000 0.00000000000000000 -0.00000000000000000 1.00000000000000000 -0.00000000000000000 5.00000000000000000
2 -0.00000000000005060 -345.91460465264754021 0.00000000000000000 0.00000000000000000 -0.00000000000000000 -1.00000000000000000 -1.00000000000000000 -0.00000000000000000 0.00000000000000000 -0.00000000000000000 1.00000000000000000 -0.00000000000000000 550.00000000000000000
2 0.00000000000005060 -345.91460465264754021 0.00000000000000000 -0.00000000000000000 -0.00000000000000000 -1.00000000000000000 1.00000000000000000 0.00000000000000000 0.00000000000000000 -0.00000000000000000 1.00000000000000000 -0.00000000000000000 550.00000000000000000
1 -200.00000000000000000 173.70063761801563373 0.00000000000000000 1.00000000000000000 -0.00000000000000000 -0.00000000000000000 0.00000000000000000 1.00000000000000000 -0.00000000000000000 -0.00000000000000000 -0.00000000000000000 -1.00000000000000000 
1 -100.44010915546324725 212.08447151371410655 0.00000000000000000 -0.00000000000000000 -0.00000000000000000 1.00000000000000000 -1.00000000000000000 0.00000000000000000 -0.00000000000000000 -0.00000000000000000 1.00000000000000000 0.00000000000000000 
1 0.00000000000000000 210.87542110585263799 0.00000000000000000 -0.00000000000000000 -0.00000000000000000 -1.00000000000000000 -1.00000000000000000 0.00000000000000000 0.00000000000000000 0.00000000000000000 1.00000000000000000 -0.00000000000000000 
1 -100.44010915546324725 212.08447151371410655 0.00000000000000000 -0.00000000000000000 -0.00000000000000000 1.00000000000000000 -1.00000000000000000 0.00000000000000000 -0.00000000000000000 -0.00000000000000000 1.00000000000000000 0.00000000000000000 
1 -0.00000000000000342 210.87542110585263799 2.99999999999999867 -0.00000000000000000 -0.00000000000000000 1.00000000000000000 0.00000000000000000 1.00000000000000000 0.00000000000000000 -1.00000000000000000 0.00000000000000000 0.00000000000000000 
2 0.00000000000005060 -345.91460465264754021 0.00000000000000000 -0.00000000000000000 -0.00000000000000000 -1.00000000000000000 1.00000000000000000 0.00000000000000000 0.00000000000000000 -0.00000000000000000 1.00000000000000000 -0.00000000000000000 550.00000000000000000
1 100.44010915546324725 212.08447151371410655 0.00000000000000000 0.00000000000000000 0.00000000000000000 1.00000000000000000 1.00000000000000000 0.00000000000000000 -0.00000000000000000 -0.00000000000000000 1.00000000000000000 0.00000000000000000 
2 195.00000000000000000 173.70063761801563373 0.00000000000000000 -0.00000000000000000 -0.00000000000000000 -1.00000000000000000 1.00000000000000000 0.00000000000000000 0.00000000000000000 -0.00000000000000000 1.00000000000000000 -0.00000000000000000 5.00000000000000000
2 -195.00000000000000000 208.88147861351598067 0.00000000000000000 0.00000000000000000 -0.00000000000000000 -1.00000000000000000 -1.00000000000000000 -0.00000000000000000 0.00000000000000000 -0.00000000000000000 1.00000000000000000 -0.00000000000000000 5.00000000000000000
2 195.00000000000000000 208.88147861351598067 0.00000000000000000 -0.00000000000000000 -0.00000000000000000 -1.00000000000000000 1.00000000000000000 0.00000000000000000 0.00000000000000000 -0.00000000000000000 1.00000000000000000 -0.00000000000000000 5.00000000000000000
2 10.45210192474696953 -304.05808048650487763 0.00000000000000000 -0.00000000000000000 -0.00000000000000000 -1.00000000000000000 1.00000000000000000 0.00000000000000000 0.00000000000000000 -0.00000000000000000 1.00000000000000000 -0.00000000000000000 550.12834999999995489
2 -10.45210192474696953 -304.05808048650487763 0.00000000000000000 0.00000000000000000 -0.00000000000000000 -1.00000000000000000 -1.00000000000000000 -0.00000000000000000 0.00000000000000000 -0.00000000000000000 1.00000000000000000 -0.00000000000000000 550.12834999999995489
1 0.00000000000000000 0.00000000000000000 0.00000000000000000 -0.00000000000000000 -0.00000000000000000 -1.00000000000000000 1.00000000000000000 -0.00000000000000000 0.00000000000000000 0.00000000000000000 1.00000000000000000 -0.00000000000000000 
2 0.00000000000000000 0.00000000000000000 0.00000000000000000 0.00000000000000000 0.00000000000000000 1.00000000000000000 -1.00000000000000000 0.00000000000000000 0.00000000000000000 -0.00000000000000000 1.00000000000000000 -0.00000000000000000 1.69999999999999996
1 0.00000000000000000 0.00000000000000000 0.00000000000000000 -0.00000000000000000 -0.00000000000000000 -1.00000000000000000 1.00000000000000000 -0.00000000000000000 0.00000000000000000 0.00000000000000000 1.00000000000000000 -0.00000000000000000 
2 0.00000000000000000 0.00000000000000000 0.00000000000000000 0.00000000000000000 0.00000000000000000 1.00000000000000000 -1.00000000000000000 0.00000000000000000 0.00000000000000000 -0.00000000000000000 1.00000000000000000 -0.00000000000000000 1.69999999999999996
1 200.00000000000000000 173.70063761801563373 0.00000000000000000 -1.00000000000000000 0.00000000000000000 0.00000000000000000 0.00000000000000000 1.00000000000000000 0.00000000000000000 0.00000000000000000 0.00000000000000000 -1.00000000000000000 
1 -0.00000000000003785 204.08539534735245979 0.00000000000000000 -1.00000000000000000 0.00000000000000252 0.00000000000000000 0.00000000000000252 1.00000000000000000 0.00000000000000000 0.00000000000000000 0.00000000000000000 -1.00000000000000000 
Triangulations 0

TShapes 91
Ve
0.000000100000043
-193.243243243243228 169.019419219180861 0.000000000000000
0 0

0101101
*
Ve
0.000000100000043
-193.243243243243228 169.019419219180861 3.000000000000000
0 0

0101101
*
Ed
 0.000000100000043 1 1 0
1  1 0 0.000000000000000 3.000000000000000
2  1 1 0 0.000000000000000 3.000000000000000
2  2 2 0 0.000000000000000 3.000000000000000
4 G1 1 0 2 0
2  3 3 8 0.000000000000000 3.000000000000000
0

0101000
+91 8 -90 8 *
Ve
0.000000100000000
-200.000000000000000 173.700637618015634 0.000000000000000
0 0

0101101
*
Ve
0.000000100000000
-200.000000000000000 173.700637618015634 3.000000000000000
0 0

0101101
*
Ed
 0.000000100000000 1 1 0
1  2 0 0.000000000000000 3.000000000000000
2  4 1 0 0.000000000000000 3.000000000000000
4 G1 1 0 4 0
0

0101000
+88 8 -87 8 *
Ed
 0.000000100000000 1 1 0
1  3 0 4.353374891268284 6.283185307179588
2  5 1 13 4.353374891268284 6.283185307179588
2  6 5 14 4.353374891268284 6.283185307179588
2  7 6 15 4.353374891268284 6.283185307179588
0

0101000
+91 15 -88 15 *
Ed
 0.000000100000000 1 1 0
1  4 0 4.353374891268284 6.283185307179588
2  8 1 18 4.353374891268284 6.283185307179588
2  9 7 14 4.353374891268284 6.283185307179588
2  10 8 19 4.353374891268284 6.283185307179588
0

0101000
+90 19 -87 19 *
Wi

0101100
+89 0 -86 0 -85 12 +84 17 *
Fa
0  0.000000100000000 1 0

0101000
+83 0 *
Ve
0.000000100000117
0.000000000000000 204.085395347352460 3.000000000000000
0 0

0101101
*
Ed
 0.000000100000000 1 1 0
1  5 0 1.211782237678493 1.570796326794897
2  11 2 18 1.211782237678493 1.570796326794897
2  12 7 14 1.211782237678493 1.570796326794897
2  13 3 19 1.211782237678493 1.570796326794897
2  14 8 19 1.211782237678493 1.570796326794897
0

0101000
+90 19 -81 19 *
Ve
0.000000100000117
0.000000000000000 204.085395347352460 0.000000000000000
0 0

0101101
*
Ed
 0.000000100000000 1 1 0
1  6 0 1.211782237678493 1.570796326794897
2  15 2 13 1.211782237678493 1.570796326794897
2  16 5 14 1.211782237678493 1.570796326794897
2  17 3 15 1.211782237678493 1.570796326794897
2  18 6 15 1.211782237678493 1.570796326794897
0

0101000
+91 15 -79 15 *
Ve
0.000000100000043
193.243243243243228 169.019419219180861 0.000000000000000
0 0

0101101
*
Ed
 0.000000100000000 1 1 0
1  7 0 1.211782237678493 1.570796326794897
2  19 9 13 1.211782237678493 1.570796326794897
2  20 9 18 1.211782237678493 1.570796326794897
2  21 10 14 1.211782237678493 1.570796326794897
2  22 3 25 1.211782237678493 1.570796326794897
2  23 6 25 1.211782237678493 1.570796326794897
0

0101000
+77 0 -79 25 *
Ed
 0.000000100000043 1 1 0
1  8 0 0.000000000000000 3.000000000000000
2  24 11 0 0.000000000000000 3.000000000000000
2  25 9 0 0.000000000000000 3.000000000000000
4 G1 11 0 9 0
2  26 3 26 0.000000000000000 3.000000000000000
0

0101000
+77 12 -77 17 *
Ed
 0.000000100000000 1 1 0
1  7 0 1.211782237678493 1.570796326794897
2  19 9 13 1.211782237678493 1.570796326794897
2  20 9 18 1.211782237678493 1.570796326794897
2  21 10 14 1.211782237678493 1.570796326794897
2  27 3 28 1.211782237678493 1.570796326794897
2  28 8 28 1.211782237678493 1.570796326794897
0

0101000
+77 0 -81 28 *
Wi

0101100
-80 21 -89 2 +78 22 -76 24 +75 23 +74 27 *
Fa
0  0.000000100000000 3 0

0101000
+73 0 *
Ve
0.000000100000000
-200.000000000000000 208.881478613515981 0.000000000000000
0 0

0101101
*
Ve
0.000000100000000
-200.000000000000000 208.881478613515981 3.000000000000000
0 0

0101101
*
Ed
 0.000000100000000 1 1 0
1  9 0 0.000000000000000 3.000000000000000
2  29 12 0 0.000000000000000 3.000000000000000
4 G1 4 0 12 0
0

0101000
+71 8 -70 8 *
Ed
 0.000000100000000 1 1 0
1  10 0 0.000000000000000 35.180840995500347
2  30 5 14 0.000000000000000 35.180840995500347
2  31 6 15 0.000000000000000 35.180840995500347
0

0101000
+88 15 -71 15 *
Ed
 0.000000100000000 1 1 0
1  11 0 0.000000000000000 35.180840995500347
2  32 7 14 0.000000000000000 35.180840995500347
2  33 8 19 0.000000000000000 35.180840995500347
0

0101000
+87 19 -70 19 *
Wi

0101100
+86 0 -69 0 -68 12 +67 17 *
Fa
0  0.000000100000000 4 0

0101000
+66 0 *
Ve
0.000000100000000
200.000000000000000 173.700637618015634 0.000000000000000
0 0

0101101
*
Ed
 0.000000100000000 1 1 0
1  12 0 4.353374891268284 6.283185307179588
2  34 11 13 4.353374891268284 6.283185307179588
2  35 11 18 4.353374891268284 6.283185307179588
2  36 10 14 4.353374891268284 6.283185307179588
2  37 6 25 4.353374891268284 6.283185307179588
2  38 8 28 4.353374891268284 6.283185307179588
0

0101000
+77 0 -64 0 *
Ve
0.000000100000000
200.000000000000000 208.881478613515981 0.000000000000000
0 0

0101101
*
Ed
 0.000000100000000 1 1 0
1  13 0 0.000000000000000 35.180840995500347
2  39 10 14 0.000000000000000 35.180840995500347
2  40 6 25 0.000000000000000 35.180840995500347
2  41 8 28 0.000000000000000 35.180840995500347
0

0101000
+64 0 -62 0 *
Ve
0.000000100002162
196.692701343413262 213.586238135747521 0.000000000000000
0 0

0101101
*
Ed
 0.000000100000000 1 1 0
1  14 0 0.000000000000002 1.225431197744452
2  42 13 13 0.000000000000002 1.225431197744452
2  43 13 18 0.000000000000002 1.225431197744452
2  44 10 14 0.000000000000002 1.225431197744452
2  45 6 25 0.000000000000002 1.225431197744452
2  46 8 28 0.000000000000002 1.225431197744452
0

0101000
+62 0 -60 0 *
Ve
0.000000100000135
0.000000000000000 245.970968781874376 0.000000000000000
0 0

0101101
*
Ed
 0.000000100000000 1 1 0
1  15 0 1.225431197744830 1.589796857951908
2  47 14 13 1.225431197744830 1.589796857951908
2  48 14 18 1.225431197744830 1.589796857951908
2  49 10 14 1.225431197744830 1.589796857951908
2  50 6 25 1.225431197744830 1.589796857951908
0

0101000
+60 0 -58 25 *
Ve
0.000000100002162
-196.692701343413262 213.586238135747521 0.000000000000000
0 0

0101101
*
Ed
 0.000000100000000 1 1 0
1  16 0 1.225431197744830 1.589796857951908
2  51 15 13 1.225431197744830 1.589796857951908
2  52 5 14 1.225431197744830 1.589796857951908
2  53 6 15 1.225431197744830 1.589796857951908
0

0101000
+56 15 -58 15 *
Ed
 0.000000100000000 1 1 0
1  17 0 0.000000000000002 1.225431197744452
2  54 12 13 0.000000000000002 1.225431197744452
2  55 5 14 0.000000000000002 1.225431197744452
2  56 6 15 0.000000000000002 1.225431197744452
0

0101000
+71 15 -56 15 *
Wi

0101100
-63 29 +76 29 -61 29 -78 30 -59 29 +85 30 -57 29 +68 30 +55 30 +54 30 
*
Ve
0.000000100000000
-1.700000000000000 0.000000000000000 0.000000000000000
0 0

0101101
*
Ed
 0.000000100000000 1 1 0
1  18 0 0.000000000000000 6.283185307179586
2  57 16 0 0.000000000000000 6.283185307179586
2  58 17 0 0.000000000000000 6.283185307179586
2  59 6 34 0.000000000000000 6.283185307179586
2  60 6 35 0.000000000000000 6.283185307179586
0

0101000
+52 0 -52 0 *
Wi

0101100
-51 32 *
Wi

0101100
-51 36 *
Ve
0.000000100000000
-1.700000000000000 0.000000000000000 0.000000000000000
0 0

0101101
*
Ed
 0.000000100000000 1 1 0
1  19 0 0.000000000000000 6.283185307179586
2  61 18 0 0.000000000000000 6.283185307179586
2  62 19 0 0.000000000000000 6.283185307179586
2  63 6 38 0.000000000000000 6.283185307179586
0

0101000
+48 0 -48 0 *
Wi

0101100
-47 37 *
Fa
0  0.000000100000000 6 20

0101000
+53 0 +50 0 +49 0 +46 0 *
Ve
0.000000100000135
0.000000000000000 245.970968781874376 3.000000000000000
0 0

0101101
*
Ed
 0.000000100000000 1 1 0
1  15 0 1.225431197744830 1.589796857951908
2  47 14 13 1.225431197744830 1.589796857951908
2  48 14 18 1.225431197744830 1.589796857951908
2  49 10 14 1.225431197744830 1.589796857951908
2  64 8 28 1.225431197744830 1.589796857951908
0

0101000
+60 0 -44 28 *
Ve
0.000000100002162
-196.692701343413262 213.586238135747521 3.000000000000000
0 0

0101101
*
Ed
 0.000000100000000 1 1 0
1  20 0 1.225431197744830 1.589796857951908
2  65 15 18 1.225431197744830 1.589796857951908
2  66 7 14 1.225431197744830 1.589796857951908
2  67 8 19 1.225431197744830 1.589796857951908
0

0101000
+42 19 -44 19 *
Ed
 0.000000100000000 1 1 0
1  21 0 0.000000000000002 1.225431197744452
2  68 12 18 0.000000000000002 1.225431197744452
2  69 7 14 0.000000000000002 1.225431197744452
2  70 8 19 0.000000000000002 1.225431197744452
0

0101000
+70 19 -42 19 *
Wi

0101100
+63 39 -74 39 +61 39 +80 40 +59 39 -84 40 +43 39 -67 40 -41 40 -40 40 
*
Ve
0.000000100000000
178.300000000000011 196.470125492503939 2.999999999999999
0 0

0101101
*
Ed
 0.000000100000000 1 1 0
1  22 0 0.000000000000000 6.283185307179586
2  71 8 42 0.000000000000000 6.283185307179586
2  72 17 31 0.000000000000000 6.283185307179586
0

0101100
+38 0 -38 0 *
Wi

0101100
-37 41 *
Ve
0.000000100000000
-181.699999999999989 196.470125492503939 2.999999999999999
0 0

0101101
*
Ed
 0.000000100000000 1 1 0
1  23 0 0.000000000000000 6.283185307179586
2  73 8 42 0.000000000000000 6.283185307179586
2  74 17 33 0.000000000000000 6.283185307179586
0

0101100
+35 0 -35 0 *
Wi

0101100
-34 41 *
Ve
0.000000100000000
-1.700000000000000 233.970968781892282 2.999999999999999
0 0

0101101
*
Ed
 0.000000100000000 1 1 0
1  24 0 0.000000000000000 6.283185307179586
2  75 8 20 0.000000000000000 6.283185307179586
2  76 19 37 0.000000000000000 6.283185307179586
0

0101100
+32 0 -32 0 *
Wi

0101100
-31 0 *
Fa
0  0.000000100000000 8 20

0101000
+39 0 +36 0 +33 0 +30 0 *
Ed
 0.000000100000000 1 1 0
1  25 0 0.000000000000000 3.000000000000000
2  77 11 0 0.000000000000000 3.000000000000000
4 G1 11 0 20 0
0

0101000
+64 12 -64 17 *
Wi

0101100
+75 0 -28 0 -63 12 +63 17 *
Fa
0  0.000000100000000 11 0

0101000
+27 0 *
Ed
 0.000000100002162 1 1 0
1  26 0 0.000000000000000 3.000000000000000
2  78 12 0 0.000000000000000 3.000000000000000
2  79 15 0 0.000000000000000 3.000000000000000
4 G1 12 0 15 0
0

0101000
+56 8 -42 8 *
Wi

0101100
+69 0 -25 0 -54 12 +40 17 *
Fa
0  0.000000100000000 12 0

0101000
+24 0 *
Ed
 0.000000100000000 1 1 0
1  27 0 0.000000000000000 3.000000000000000
2  80 13 0 0.000000000000000 3.000000000000000
4 G1 20 0 13 0
0

0101000
+62 12 -62 17 *
Wi

0101100
+28 0 -22 0 -61 12 +61 17 *
Fa
0  0.000000100000000 20 0

0101000
+21 0 *
Ed
 0.000000100002162 1 1 0
1  28 0 0.000000000000000 3.000000000000000
2  81 13 0 0.000000000000000 3.000000000000000
2  82 14 0 0.000000000000000 3.000000000000000
4 G1 13 0 14 0
0

0101000
+60 12 -60 17 *
Wi

0101100
+22 0 -19 0 -59 12 +59 17 *
Fa
0  0.000000100000000 13 0

0101000
+18 0 *
Ed
 0.000000100000135 1 1 0
1  29 0 0.000000000000000 3.000000000000000
2  83 14 0 0.000000000000000 3.000000000000000
2  84 21 0 0.000000000000000 3.000000000000000
2  85 15 44 0.000000000000000 3.000000000000000
0

0101000
+58 26 -44 26 *
Wi

0101100
+19 23 -16 23 -57 24 +43 27 *
Fa
0  0.000000100000000 14 23

0101000
+15 0 *
Wi

0101100
+25 2 -16 23 -55 22 +41 21 *
Fa
0  0.000000100000000 15 2

0101000
+13 0 *
Ed
 0.000000100000000 1 1 0
1  30 0 0.000000000000000 2.999999999999999
3  86 87CN 17 0 0.000000000000000 2.999999999999999
0

0101000
+52 0 -38 45 *
Wi

0101100
-11 31 +37 0 +11 31 +51 31 *
Fa
0  0.000000100000000 17 31

0101000
+10 0 *
Ed
 0.000000100000000 1 1 0
1  30 0 0.000000000000000 2.999999999999999
3  86 87CN 17 0 0.000000000000000 2.999999999999999
0

0101000
+52 0 -35 46 *
Wi

0101100
-8 33 +34 0 +8 33 +51 33 *
Fa
0  0.000000100000000 17 33

0101000
+7 0 *
Ed
 0.000000100000000 1 1 0
1  31 0 0.000000000000000 2.999999999999999
3  88 89CN 19 0 0.000000000000000 2.999999999999999
0

0101000
+48 0 -32 47 *
Wi

0101100
-5 37 +31 0 +5 37 +47 37 *
Fa
0  0.000000100000000 19 37

0101000
+4 0 *
Sh

0101100
+82 7 +72 20 +65 7 +45 0 +29 0 -26 43 +23 7 -20 43 -17 43 -14 20 
+12 20 +9 41 +6 41 +3 0 *
So

0100000
+2 0 *

+1 1 