
CASCADE Topology V1, (c) Matra-Datavision
Locations 82
1
1.000000000000000 0.000000000000000 0.000000000000000 0.000000000000000 
0.000000000000000 1.000000000000000 0.000000000000000 0.000000000000000 
0.000000000000000 0.000000000000000 1.000000000000000 0.000000000000000 
1
1.000000000000000 0.000000000000000 0.000000000000000 0.000000000000000 
0.000000000000000 1.000000000000000 0.000000000000000 0.000000000000000 
0.000000000000000 0.000000000000000 1.000000000000000 0.000000000000000 
1
1.000000000000000 0.000000000000000 0.000000000000000 0.000000000000000 
0.000000000000000 1.000000000000000 0.000000000000000 0.000000000000000 
0.000000000000000 0.000000000000000 1.000000000000000 0.000000000000000 
1
1.000000000000000 0.000000000000000 0.000000000000000 0.000000000000000 
0.000000000000000 1.000000000000000 0.000000000000000 0.000000000000000 
0.000000000000000 0.000000000000000 1.000000000000000 0.000000000000000 
2  2 1 3 -1 4 1 0
1
1.000000000000000 0.000000000000000 0.000000000000000 0.000000000000000 
0.000000000000000 1.000000000000000 0.000000000000000 0.000000000000000 
0.000000000000000 0.000000000000000 1.000000000000000 0.000000000000000 
1
1.000000000000000 0.000000000000000 0.000000000000000 0.000000000000000 
0.000000000000000 1.000000000000000 0.000000000000000 0.000000000000000 
0.000000000000000 0.000000000000000 1.000000000000000 0.000000000000000 
1
1.000000000000000 0.000000000000000 0.000000000000000 0.000000000000000 
0.000000000000000 1.000000000000000 0.000000000000000 0.000000000000000 
0.000000000000000 0.000000000000000 1.000000000000000 0.000000000000000 
1
-0.500000000000000 0.866025403784439 0.000000000000000 0.000000000000021 
-0.866025403784439 -0.500000000000000 0.000000000000000 0.000000000000099 
0.000000000000000 0.000000000000000 1.000000000000000 0.000000000000000 
1
1.000000000000000 0.000000000000000 0.000000000000000 0.000000000000000 
0.000000000000000 1.000000000000000 0.000000000000000 0.000000000000000 
0.000000000000000 0.000000000000000 1.000000000000000 0.000000000000000 
1
1.000000000000000 0.000000000000000 0.000000000000000 0.000000000000000 
0.000000000000000 1.000000000000000 0.000000000000000 0.000000000000000 
0.000000000000000 0.000000000000000 1.000000000000000 0.000000000000000 
1
1.000000000000000 0.000000000000000 0.000000000000000 0.000000000000000 
0.000000000000000 1.000000000000000 0.000000000000000 0.000000000000000 
0.000000000000000 0.000000000000000 1.000000000000000 0.000000000000000 
1
1.000000000000000 0.000000000000000 0.000000000000000 0.000000000000000 
0.000000000000000 1.000000000000000 0.000000000000000 0.000000000000000 
0.000000000000000 0.000000000000000 1.000000000000000 0.000000000000000 
2  6 -1 7 1 8 1 9 1 10 1 11 1 12 1 13 -1 0
1
1.000000000000000 0.000000000000000 0.000000000000000 0.000000000000000 
0.000000000000000 1.000000000000000 0.000000000000000 0.000000000000000 
0.000000000000000 0.000000000000000 1.000000000000000 18.000000000000000 
2  6 -1 7 1 8 1 9 1 10 1 11 1 12 1 13 -1 15 1 0
2  7 1 8 1 9 1 10 1 11 1 12 1 13 -1 0
1
1.000000000000000 0.000000000000000 0.000000000000000 0.000000000000000 
0.000000000000000 1.000000000000000 0.000000000000000 0.000000000000000 
0.000000000000000 0.000000000000000 1.000000000000000 0.000000000000000 
2  13 1 12 -1 11 -1 10 -1 18 -1 8 -1 7 -1 0
2  15 -1 13 1 12 -1 11 -1 10 -1 18 -1 8 -1 7 -1 0
1
-0.500000000000001 -0.866025403784439 0.000000000000000 0.000000000000085 
0.866025403784439 -0.500000000000001 0.000000000000000 -0.000000000000028 
0.000000000000000 0.000000000000000 1.000000000000001 0.000000000000000 
2  13 1 12 -1 11 -1 10 -1 21 -1 8 -1 7 -1 0
2  15 -1 13 1 12 -1 11 -1 10 -1 21 -1 8 -1 7 -1 0
2  13 1 12 -1 11 -1 10 -1 9 -1 8 -1 7 -1 0
2  15 -1 13 1 12 -1 11 -1 10 -1 9 -1 8 -1 7 -1 0
2  10 -1 18 -1 8 -1 7 -1 0
2  10 -1 21 -1 8 -1 7 -1 0
2  10 -1 9 -1 8 -1 7 -1 0
2  6 -1 0
2  7 1 8 1 9 1 10 1 11 1 12 1 13 -1 15 1 0
1
1.000000000000000 0.000000000000000 0.000000000000000 0.000000000000000 
0.000000000000000 1.000000000000000 0.000000000000000 0.000000000000000 
0.000000000000000 0.000000000000000 1.000000000000000 0.000000000000000 
1
1.000000000000000 0.000000000000000 0.000000000000000 0.000000000000000 
0.000000000000000 1.000000000000000 0.000000000000000 0.000000000000000 
0.000000000000000 0.000000000000000 1.000000000000000 0.000000000000000 
2  31 1 32 1 18 1 10 1 11 1 12 1 13 -1 0
2  31 1 32 1 18 1 10 1 11 1 12 1 13 -1 15 1 0
2  31 1 32 1 18 1 9 -1 8 -1 7 -1 0
2  31 1 32 1 8 -1 7 -1 0
2  31 1 32 1 9 1 10 1 11 1 12 1 13 -1 0
2  13 1 12 -1 11 -1 10 -1 18 -1 32 -1 31 -1 0
2  15 -1 13 1 12 -1 11 -1 10 -1 18 -1 32 -1 31 -1 0
2  13 1 12 -1 11 -1 10 -1 21 -1 32 -1 31 -1 0
2  15 -1 13 1 12 -1 11 -1 10 -1 21 -1 32 -1 31 -1 0
2  13 1 12 -1 11 -1 10 -1 9 -1 32 -1 31 -1 0
2  15 -1 13 1 12 -1 11 -1 10 -1 9 -1 32 -1 31 -1 0
2  10 -1 18 -1 32 -1 31 -1 0
2  10 -1 21 -1 32 -1 31 -1 0
2  10 -1 9 -1 32 -1 31 -1 0
2  31 1 32 1 9 1 10 1 11 1 12 1 13 -1 15 1 0
2  11 1 12 1 13 -1 2 1 3 -1 4 1 0
2  31 1 32 1 18 1 10 1 11 1 12 1 13 -1 2 1 3 -1 4 1 0
2  7 1 8 1 9 1 10 1 11 1 12 1 13 -1 2 1 3 -1 4 1 0
2  7 1 8 1 18 1 10 1 11 1 12 1 13 -1 2 1 3 -1 4 1 0
2  31 1 32 1 9 1 10 1 11 1 12 1 13 -1 2 1 3 -1 4 1 0
2  31 1 32 1 21 1 10 1 11 1 12 1 13 -1 2 1 3 -1 4 1 0
2  6 -1 7 1 8 1 18 1 21 -1 32 -1 31 -1 0
2  6 -1 7 1 8 1 21 1 9 -1 32 -1 31 -1 0
2  7 1 8 1 21 1 10 1 11 1 12 1 13 -1 2 1 3 -1 4 1 0
1
1.000000000000000 0.000000000000000 0.000000000000000 140.628654555576702 
0.000000000000000 1.000000000000000 0.000000000000000 47.705675950438817 
0.000000000000000 0.000000000000000 1.000000000000000 0.000000000000000 
1
1.000000000000000 0.000000000000000 0.000000000000000 0.000000000000000 
0.000000000000000 1.000000000000000 0.000000000000000 0.000000000000000 
0.000000000000000 0.000000000000000 1.000000000000000 0.000000000000000 
2  57 1 58 1 0
2  11 1 12 1 13 -1 2 1 3 -1 4 1 58 -1 57 -1 0
2  58 -1 57 -1 0
2  57 1 4 1 0
2  11 1 12 1 13 -1 2 1 3 -1 57 -1 0
2  11 1 12 1 13 -1 15 1 2 1 3 -1 4 1 0
2  31 1 32 1 18 1 10 1 11 1 12 1 13 -1 15 1 2 1 3 -1 4 1 0
2  7 1 8 1 9 1 10 1 11 1 12 1 13 -1 15 1 2 1 3 -1 4 1 0
2  7 1 8 1 18 1 10 1 11 1 12 1 13 -1 15 1 2 1 3 -1 4 1 0
2  31 1 32 1 9 1 10 1 11 1 12 1 13 -1 15 1 2 1 3 -1 4 1 0
2  31 1 32 1 21 1 10 1 11 1 12 1 13 -1 15 1 2 1 3 -1 4 1 0
2  7 1 8 1 21 1 10 1 11 1 12 1 13 -1 15 1 2 1 3 -1 4 1 0
2  11 1 12 1 13 -1 15 1 2 1 3 -1 0
2  6 -1 7 1 8 1 18 1 10 1 11 1 12 1 13 -1 0
2  6 -1 7 1 8 1 18 1 10 1 11 1 12 1 13 -1 15 1 0
2  7 1 8 1 18 1 10 1 11 1 12 1 13 -1 0
2  7 1 8 1 18 1 10 1 11 1 12 1 13 -1 15 1 0
2  31 1 32 1 21 1 10 1 11 1 12 1 13 -1 0
2  31 1 32 1 21 1 10 1 11 1 12 1 13 -1 15 1 0
2  6 -1 7 1 8 1 21 1 10 1 11 1 12 1 13 -1 0
2  6 -1 7 1 8 1 21 1 10 1 11 1 12 1 13 -1 15 1 0
2  7 1 8 1 21 1 10 1 11 1 12 1 13 -1 0
2  7 1 8 1 21 1 10 1 11 1 12 1 13 -1 15 1 0
2  57 -1 0
Curve2ds 107
1 0.19286202971107003 0.00000000000000000 0.00000000000000000 -1.00000000000000000 
1 3.33445468330086436 0.00000000000000000 0.00000000000000000 -1.00000000000000000 
1 1.51987028381113998 0.00000000000000000 0.00000000000000000 -1.00000000000000000 
1 1.51987028381113998 0.00000000000000000 0.00000000000000000 -1.00000000000000000 
1 1.62172236977865225 0.00000000000000000 0.00000000000000000 -1.00000000000000000 
1 0.00000000000000000 0.00000000000000000 1.00000000000000000 0.00000000000000000 
1 0.00000000000000000 -18.00000000000000000 1.00000000000000000 0.00000000000000000 
1 0.00000000000000000 0.00000000000000000 1.00000000000000000 0.00000000000000000 
1 0.00000000000000000 -18.00000000000000000 1.00000000000000000 0.00000000000000000 
1 0.00000000000000000 0.00000000000000000 1.00000000000000000 0.00000000000000000 
1 0.00000000000000000 -18.00000000000000000 1.00000000000000000 0.00000000000000000 
2 -18.30000000000021743 359.03392597357702698 -1.00000000000000000 0.00000000000000000 0.00000000000000000 1.00000000000000000 25.00000000000015632
2 -301.78250071357899742 -195.36522787604411633 0.50000000000000056 -0.86602540378443837 -0.86602540378443837 -0.50000000000000056 25.00000000000018829
2 320.08250071357934985 -163.66869809753302434 0.50000000000000033 0.86602540378443860 0.86602540378443860 -0.50000000000000033 25.00000000000018829
1 3.66519142925880592 0.00000000000000000 0.00000000000000000 -1.00000000000000000 
1 3.66519142925880592 0.00000000000000000 0.00000000000000000 -1.00000000000000000 
1 0.00000000000000000 0.00000000000000000 1.00000000000000000 0.00000000000000000 
1 0.00000000000000000 -18.00000000000000000 1.00000000000000000 0.00000000000000000 
2 930.37557351721829946 537.15258772989739100 0.50000000000000033 0.86602540378443860 0.86602540378443860 -0.50000000000000033 904.30517559137672379
1 0.00000000000000000 0.00000000000000000 1.00000000000000000 0.00000000000000000 
1 0.00000000000000000 -18.00000000000000000 1.00000000000000000 0.00000000000000000 
1 3.14159265358979223 0.00000000000000000 -1.00000000000000000 0.00000000000000000 
1 3.14159265358979223 -18.00000000000000000 -1.00000000000000000 0.00000000000000000 
2 -0.00000000000013429 0.00000000000000467 0.50000000000000033 0.86602540378443860 0.86602540378443860 -0.50000000000000033 384.50000000000017053
1 0.00000000000000000 0.00000000000000000 1.00000000000000000 0.00000000000000000 
1 0.00000000000000000 -18.00000000000000000 1.00000000000000000 0.00000000000000000 
1 0.00000000000000000 0.00000000000000000 1.00000000000000000 0.00000000000000000 
1 0.00000000000000000 -18.00000000000000000 1.00000000000000000 0.00000000000000000 
1 0.00000000000000000 0.00000000000000000 1.00000000000000000 0.00000000000000000 
1 0.00000000000000000 -18.00000000000000000 1.00000000000000000 0.00000000000000000 
2 -0.00000000000022053 0.00000000000001764 1.00000000000000000 0.00000000000000000 -0.00000000000000000 1.00000000000000000 384.50000000000011369
2 0.00000000000019860 -0.00000000000012323 -0.50000000000000056 0.86602540378443837 -0.86602540378443837 -0.50000000000000056 384.50000000000028422
2 0.00000000000006510 0.00000000000035004 -0.50000000000000033 -0.86602540378443860 0.86602540378443860 -0.50000000000000033 384.50000000000017053
1 1.51987028381113998 0.00000000000000000 0.00000000000000000 -1.00000000000000000 
1 1.51987028381113998 0.00000000000000000 0.00000000000000000 -1.00000000000000000 
1 0.00000000000000000 0.00000000000000000 1.00000000000000000 0.00000000000000000 
1 0.00000000000000000 -18.00000000000000000 1.00000000000000000 0.00000000000000000 
2 930.37557344124957126 537.15258786147887804 1.00000000000000000 0.00000000000000000 -0.00000000000000000 1.00000000000000000 904.30517559137683747
1 0.00000000000000000 0.00000000000000000 1.00000000000000000 0.00000000000000000 
1 0.00000000000000000 -18.00000000000000000 1.00000000000000000 0.00000000000000000 
1 0.00000000000000000 0.00000000000000000 1.00000000000000000 0.00000000000000000 
1 0.00000000000000000 -18.00000000000000000 1.00000000000000000 0.00000000000000000 
1 0.00000000000000000 0.00000000000000000 1.00000000000000000 0.00000000000000000 
1 0.00000000000000000 -18.00000000000000000 1.00000000000000000 0.00000000000000000 
2 18.30000000000017479 359.03392597357702698 1.00000000000000000 0.00000000000000000 -0.00000000000000000 1.00000000000000000 25.00000000000015632
2 -320.08250071357917932 -163.66869809753328013 -0.50000000000000056 0.86602540378443837 -0.86602540378443837 -0.50000000000000056 25.00000000000016342
2 301.78250071357916795 -195.36522787604383211 -0.50000000000000033 -0.86602540378443860 0.86602540378443860 -0.50000000000000033 25.00000000000018829
1 0.00000000000000000 0.00000000000000000 1.00000000000000000 0.00000000000000000 
1 0.00000000000000000 -18.00000000000000000 1.00000000000000000 0.00000000000000000 
1 3.14159265358979223 0.00000000000000000 -1.00000000000000000 -0.00000000000000000 
1 3.14159265358979223 -18.00000000000000000 -1.00000000000000000 0.00000000000000000 
2 0.00000000000017826 0.00000000000001764 -1.00000000000000000 0.00000000000000000 0.00000000000000000 1.00000000000000000 384.50000000000011369
1 0.00000000000000000 0.00000000000000000 1.00000000000000000 0.00000000000000000 
1 0.00000000000000000 -18.00000000000000000 1.00000000000000000 0.00000000000000000 
1 0.00000000000000000 0.00000000000000000 1.00000000000000000 0.00000000000000000 
1 0.00000000000000000 -18.00000000000000000 1.00000000000000000 0.00000000000000000 
2 -930.37557344124957126 537.15258786147887804 -1.00000000000000000 0.00000000000000000 0.00000000000000000 1.00000000000000000 904.30517559137683747
2 -0.00000007596781142 -1074.30517559137638273 0.50000000000000056 -0.86602540378443837 -0.86602540378443837 -0.50000000000000056 904.30517559137695116
1 0.00000000000000000 0.00000000000000000 1.00000000000000000 0.00000000000000000 
1 0.00000000000000000 -18.00000000000000000 1.00000000000000000 0.00000000000000000 
2 -930.37557351721864052 537.15258772989716363 -0.50000000000000056 0.86602540378443837 -0.86602540378443837 -0.50000000000000056 904.30517559137695116
1 0.00000000000000000 0.00000000000000000 1.00000000000000000 0.00000000000000000 
1 0.00000000000000000 -18.00000000000000000 1.00000000000000000 0.00000000000000000 
2 0.00000007596821679 -1074.30517559137615535 -0.50000000000000033 -0.86602540378443860 0.86602540378443860 -0.50000000000000033 904.30517559137672379
1 0.00000000000000000 0.00000000000000000 1.00000000000000000 0.00000000000000000 
1 0.00000000000000000 -18.00000000000000000 1.00000000000000000 0.00000000000000000 
1 3.14159265358979223 0.00000000000000000 -1.00000000000000000 0.00000000000000000 
1 3.14159265358979223 -18.00000000000000000 -1.00000000000000000 0.00000000000000000 
2 -0.00000000000000079 0.00000000000022214 0.50000000000000056 -0.86602540378443837 -0.86602540378443837 -0.50000000000000056 384.50000000000028422
1 0.00000000000000000 0.00000000000000000 1.00000000000000000 0.00000000000000000 
2 0.00000000000000000 -0.00000000000000000 -1.00000000000000000 -0.00000000000000022 -0.00000000000000022 1.00000000000000000 4.25000000000000444
2 28.99999999999989342 -145.64082532037502915 -0.49999999999999956 0.86602540378443893 -0.86602540378443893 -0.49999999999999956 4.25000000000000444
2 0.00000000000000000 0.00000000000000000 -1.00000000000000000 0.00000000000000000 0.00000000000000000 1.00000000000000000 4.25000000000000000
1 0.00000000000000000 0.00000000000000000 1.00000000000000000 0.00000000000000000 
2 140.62865455557667360 47.70567595043887366 -1.00000000000000000 0.00000000000000000 0.00000000000000000 1.00000000000000000 4.25000000000000000
2 28.99999999999989342 -145.64082532037502915 -0.49999999999999956 0.86602540378443893 -0.86602540378443893 -0.49999999999999956 4.25000000000000000
1 0.00000000000000000 18.00000000000000000 1.00000000000000000 0.00000000000000000 
2 140.62865455557667360 47.70567595043887366 -1.00000000000000000 0.00000000000000000 -0.00000000000000000 -1.00000000000000000 4.25000000000000000
1 6.28318530717958623 18.00000000000000000 -1.00000000000000000 0.00000000000000000 
1 3.33445468330086436 0.00000000000000000 0.00000000000000000 -1.00000000000000000 
1 0.19286202971107003 0.00000000000000000 0.00000000000000000 -1.00000000000000000 
1 3.33445468330086436 0.00000000000000000 0.00000000000000000 -1.00000000000000000 
1 0.19286202971107003 0.00000000000000000 0.00000000000000000 -1.00000000000000000 
1 1.51987028381113998 0.00000000000000000 0.00000000000000000 -1.00000000000000000 
1 1.51987028381113998 0.00000000000000000 0.00000000000000000 -1.00000000000000000 
1 1.51987028381113998 0.00000000000000000 0.00000000000000000 -1.00000000000000000 
1 1.51987028381113998 0.00000000000000000 0.00000000000000000 -1.00000000000000000 
1 1.62172236977865225 0.00000000000000000 0.00000000000000000 -1.00000000000000000 
1 0.19286202971107003 0.00000000000000000 0.00000000000000000 -1.00000000000000000 
1 3.33445468330086436 0.00000000000000000 0.00000000000000000 -1.00000000000000000 
1 3.66519142925880592 0.00000000000000000 0.00000000000000000 -1.00000000000000000 
1 3.66519142925880592 0.00000000000000000 0.00000000000000000 -1.00000000000000000 
1 3.33445468330086436 0.00000000000000000 0.00000000000000000 -1.00000000000000000 
1 0.19286202971107003 0.00000000000000000 0.00000000000000000 -1.00000000000000000 
1 3.66519142925880592 0.00000000000000000 0.00000000000000000 -1.00000000000000000 
1 3.66519142925880592 0.00000000000000000 0.00000000000000000 -1.00000000000000000 
1 1.51987028381113998 0.00000000000000000 0.00000000000000000 -1.00000000000000000 
1 1.51987028381113998 0.00000000000000000 0.00000000000000000 -1.00000000000000000 
1 0.19286202971107003 0.00000000000000000 0.00000000000000000 -1.00000000000000000 
1 3.33445468330086436 0.00000000000000000 0.00000000000000000 -1.00000000000000000 
1 1.51987028381113998 0.00000000000000000 0.00000000000000000 -1.00000000000000000 
1 1.51987028381113998 0.00000000000000000 0.00000000000000000 -1.00000000000000000 
1 1.62172236977865225 0.00000000000000000 0.00000000000000000 -1.00000000000000000 
1 6.28318530717958623 0.00000000000000000 0.00000000000000000 1.00000000000000000 
1 0.00000000000000000 0.00000000000000000 0.00000000000000000 1.00000000000000000 
1 6.28318530717958623 0.00000000000000000 0.00000000000000000 1.00000000000000000 
1 0.00000000000000000 0.00000000000000000 0.00000000000000000 1.00000000000000000 
Curves 27
1 336.50049473839658276 -144.81533043546585304 0.00000000000000000 0.00000000000000000 0.00000000000000000 1.00000000000000000 
1 342.34136724442657851 -175.05038781224345712 0.00000000000000000 0.00000000000000000 0.00000000000000000 1.00000000000000000 
2 -18.30000000000019611 359.03392597357697014 0.00000000000000000 0.00000000000000000 0.00000000000000000 -1.00000000000000000 -1.00000000000000000 -0.00000000000000000 -0.00000000000000000 -0.00000000000000000 1.00000000000000000 0.00000000000000000 25.00000000000015987
1 147.22431864335410978 84.99999999999981526 0.00000000000000000 0.00000000000000000 0.00000000000000000 1.00000000000000000 
2 -930.37557344124957126 537.15258786147876435 0.00000000000000000 0.00000000000000000 0.00000000000000000 -1.00000000000000000 -1.00000000000000000 -0.00000000000000000 -0.00000000000000000 -0.00000000000000000 1.00000000000000000 0.00000000000000000 904.30517559137672379
2 0.00000000000019940 -0.00000000000004015 0.00000000000000000 0.00000000000000000 0.00000000000000000 -1.00000000000000000 -1.00000000000000000 -0.00000000000000000 -0.00000000000000000 -0.00000000000000000 1.00000000000000000 0.00000000000000000 384.50000000000011369
2 -0.00000000000019940 -0.00000000000004015 0.00000000000000000 0.00000000000000000 0.00000000000000000 1.00000000000000000 1.00000000000000000 0.00000000000000000 -0.00000000000000000 -0.00000000000000000 1.00000000000000000 0.00000000000000000 384.50000000000011369
1 322.76876640993384626 -208.95112689384956184 0.00000000000000000 0.00000000000000000 0.00000000000000000 1.00000000000000000 
2 930.37557344124957126 537.15258786147876435 0.00000000000000000 0.00000000000000000 0.00000000000000000 1.00000000000000000 1.00000000000000000 0.00000000000000000 -0.00000000000000000 -0.00000000000000000 1.00000000000000000 0.00000000000000000 904.30517559137672379
2 18.30000000000019611 359.03392597357697014 0.00000000000000000 0.00000000000000000 0.00000000000000000 1.00000000000000000 1.00000000000000000 0.00000000000000000 -0.00000000000000000 -0.00000000000000000 1.00000000000000000 0.00000000000000000 25.00000000000015987
2 -111.62865455557678729 -193.34650127081391702 0.00000000000000000 -0.00000000000000000 0.00000000000000000 1.00000000000000000 -0.49999999999999956 0.86602540378443893 -0.00000000000000000 -0.86602540378443893 -0.49999999999999956 0.00000000000000000 4.25000000000000000
2 0.00000000000000000 0.00000000000000000 0.00000000000000000 -0.00000000000000000 -0.00000000000000000 -1.00000000000000000 -1.00000000000000000 0.00000000000000000 0.00000000000000000 0.00000000000000000 1.00000000000000000 -0.00000000000000000 4.25000000000000000
2 28.99999999999991473 -145.64082532037508599 18.00000000000000000 0.00000000000000000 0.00000000000000000 1.00000000000000000 -0.49999999999999956 0.86602540378443893 0.00000000000000000 -0.86602540378443893 -0.49999999999999956 0.00000000000000000 4.25000000000000000
2 140.62865455557670202 47.70567595043881681 18.00000000000000000 0.00000000000000000 0.00000000000000000 1.00000000000000000 -1.00000000000000000 0.00000000000000000 0.00000000000000000 0.00000000000000000 -1.00000000000000000 0.00000000000000000 4.25000000000000000
1 42.83649235464709903 363.82564204721620627 0.00000000000000000 0.00000000000000000 0.00000000000000000 1.00000000000000000 
1 293.66400238374944820 -219.01031161175041007 0.00000000000000000 0.00000000000000000 0.00000000000000000 1.00000000000000000 
1 19.57260083449259014 384.00151470609290527 0.00000000000000000 0.00000000000000000 0.00000000000000000 1.00000000000000000 
1 -19.57260083449257948 384.00151470609301896 0.00000000000000000 0.00000000000000000 0.00000000000000000 1.00000000000000000 
1 -42.83649235464709903 363.82564204721620627 0.00000000000000000 0.00000000000000000 0.00000000000000000 1.00000000000000000 
1 -147.22431864335408136 84.99999999999965894 0.00000000000000000 0.00000000000000000 0.00000000000000000 1.00000000000000000 
1 -336.50049473839646907 -144.81533043546608042 0.00000000000000000 0.00000000000000000 0.00000000000000000 1.00000000000000000 
1 0.00000000000024158 -169.99999999999945999 0.00000000000000000 0.00000000000000000 0.00000000000000000 1.00000000000000000 
1 -342.34136724442635114 -175.05038781224365607 0.00000000000000000 0.00000000000000000 0.00000000000000000 1.00000000000000000 
1 -293.66400238374933451 -219.01031161175066586 0.00000000000000000 0.00000000000000000 0.00000000000000000 1.00000000000000000 
1 -322.76876640993384626 -208.95112689384990290 0.00000000000000000 0.00000000000000000 0.00000000000000000 1.00000000000000000 
1 -113.75365455557678729 -189.66589330473004793 0.00000000000000000 0.00000000000000003 -0.00000000000000005 1.00000000000000000 
1 -4.25000000000000000 0.00000000000000000 0.00000000000000000 0.00000000000000006 0.00000000000000000 1.00000000000000000 
Polygon3D 0
PolygonOnTriangulations 0
Surfaces 23
2 320.08250071357934985 -163.66869809753308118 0.00000000000000000 0.00000000000000000 -0.00000000000000000 -1.00000000000000000 0.50000000000000033 0.86602540378443860 0.00000000000000000 0.86602540378443860 -0.50000000000000033 0.00000000000000000 25.00000000000015987
2 930.37557351721829946 537.15258772989727731 0.00000000000000000 0.00000000000000000 -0.00000000000000000 -1.00000000000000000 0.50000000000000033 0.86602540378443860 0.00000000000000000 0.86602540378443860 -0.50000000000000033 0.00000000000000000 904.30517559137672379
2 -0.00000000000011316 -0.00000000000005313 0.00000000000000000 0.00000000000000000 -0.00000000000000000 -1.00000000000000000 0.50000000000000033 0.86602540378443860 0.00000000000000000 0.86602540378443860 -0.50000000000000033 0.00000000000000000 384.50000000000011369
2 0.00000000000008624 0.00000000000029224 0.00000000000000000 -0.00000000000000000 -0.00000000000000000 -1.00000000000000000 -0.50000000000000033 -0.86602540378443860 0.00000000000000000 0.86602540378443860 -0.50000000000000033 -0.00000000000000000 384.50000000000011369
2 -18.30000000000019611 359.03392597357697014 0.00000000000000000 0.00000000000000000 0.00000000000000000 -1.00000000000000000 -1.00000000000000000 -0.00000000000000000 -0.00000000000000000 -0.00000000000000000 1.00000000000000000 0.00000000000000000 25.00000000000015987
2 -301.78250071357899742 -195.36522787604417317 0.00000000000000000 -0.00000000000000000 0.00000000000000000 -1.00000000000000000 0.50000000000000056 -0.86602540378443837 -0.00000000000000000 -0.86602540378443837 -0.50000000000000056 0.00000000000000000 25.00000000000016698
1 0.00000000000002114 -0.00000000000005780 0.00000000000000000 0.00000000000000000 0.00000000000000000 1.00000000000000000 1.00000000000000000 0.00000000000000000 -0.00000000000000000 -0.00000000000000000 1.00000000000000000 0.00000000000000000 
2 930.37557344124957126 537.15258786147876435 0.00000000000000000 -0.00000000000000000 -0.00000000000000000 -1.00000000000000000 1.00000000000000000 0.00000000000000000 0.00000000000000000 -0.00000000000000000 1.00000000000000000 -0.00000000000000000 904.30517559137672379
2 -0.00000000000019940 -0.00000000000004015 0.00000000000000000 -0.00000000000000000 -0.00000000000000000 -1.00000000000000000 1.00000000000000000 0.00000000000000000 0.00000000000000000 -0.00000000000000000 1.00000000000000000 -0.00000000000000000 384.50000000000011369
2 0.00000000000021974 -0.00000000000018103 0.00000000000000000 -0.00000000000000000 -0.00000000000000000 -1.00000000000000000 -0.50000000000000056 0.86602540378443837 0.00000000000000000 -0.86602540378443837 -0.50000000000000056 0.00000000000000000 384.50000000000022737
2 301.78250071357916795 -195.36522787604388895 0.00000000000000000 -0.00000000000000000 -0.00000000000000000 -1.00000000000000000 -0.50000000000000033 -0.86602540378443860 0.00000000000000000 0.86602540378443860 -0.50000000000000033 -0.00000000000000000 25.00000000000015987
2 18.30000000000019611 359.03392597357697014 0.00000000000000000 -0.00000000000000000 -0.00000000000000000 -1.00000000000000000 1.00000000000000000 0.00000000000000000 0.00000000000000000 -0.00000000000000000 1.00000000000000000 -0.00000000000000000 25.00000000000015987
2 -320.08250071357917932 -163.66869809753333698 0.00000000000000000 -0.00000000000000000 -0.00000000000000000 -1.00000000000000000 -0.50000000000000056 0.86602540378443837 0.00000000000000000 -0.86602540378443837 -0.50000000000000056 0.00000000000000000 25.00000000000016698
2 0.00000000000019940 -0.00000000000004015 0.00000000000000000 0.00000000000000000 0.00000000000000000 -1.00000000000000000 -1.00000000000000000 -0.00000000000000000 -0.00000000000000000 -0.00000000000000000 1.00000000000000000 0.00000000000000000 384.50000000000011369
2 -930.37557344124957126 537.15258786147876435 0.00000000000000000 0.00000000000000000 0.00000000000000000 -1.00000000000000000 -1.00000000000000000 -0.00000000000000000 -0.00000000000000000 -0.00000000000000000 1.00000000000000000 0.00000000000000000 904.30517559137672379
2 -0.00000007596779028 -1074.30517559137638273 0.00000000000000000 -0.00000000000000000 0.00000000000000000 -1.00000000000000000 0.50000000000000056 -0.86602540378443837 -0.00000000000000000 -0.86602540378443837 -0.50000000000000056 0.00000000000000000 904.30517559137695116
2 -930.37557351721864052 537.15258772989704994 0.00000000000000000 -0.00000000000000000 -0.00000000000000000 -1.00000000000000000 -0.50000000000000056 0.86602540378443837 0.00000000000000000 -0.86602540378443837 -0.50000000000000056 0.00000000000000000 904.30517559137695116
2 0.00000007596823792 -1074.30517559137615535 0.00000000000000000 -0.00000000000000000 -0.00000000000000000 -1.00000000000000000 -0.50000000000000033 -0.86602540378443860 0.00000000000000000 0.86602540378443860 -0.50000000000000033 -0.00000000000000000 904.30517559137672379
2 0.00000000000002034 0.00000000000016434 0.00000000000000000 -0.00000000000000000 0.00000000000000000 -1.00000000000000000 0.50000000000000056 -0.86602540378443837 -0.00000000000000000 -0.86602540378443837 -0.50000000000000056 0.00000000000000000 384.50000000000022737
2 -111.62865455557678729 -193.34650127081391702 0.00000000000000000 -0.00000000000000000 -0.00000000000000000 1.00000000000000000 -0.49999999999999956 0.86602540378443893 0.00000000000000000 -0.86602540378443893 -0.49999999999999956 -0.00000000000000000 4.25000000000000000
1 -111.62865455557678729 -193.34650127081391702 0.00000000000000000 -0.00000000000000000 0.00000000000000000 -1.00000000000000000 0.49999999999999956 -0.86602540378443893 -0.00000000000000000 -0.86602540378443893 -0.49999999999999956 0.00000000000000000 
1 0.00000000000000000 0.00000000000000000 0.00000000000000000 -0.00000000000000000 -0.00000000000000000 -1.00000000000000000 1.00000000000000000 -0.00000000000000000 0.00000000000000000 0.00000000000000000 1.00000000000000000 -0.00000000000000000 
2 0.00000000000000000 0.00000000000000000 0.00000000000000000 0.00000000000000000 0.00000000000000000 1.00000000000000000 -1.00000000000000000 0.00000000000000000 0.00000000000000000 -0.00000000000000000 1.00000000000000000 -0.00000000000000000 4.25000000000000000
Triangulations 0

TShapes 87
Ve
0.000000100000348
-42.836492354647099 363.825642047216206 0.000000000000000
0 0

0101101
*
Ed
 0.000000100000348 1 1 0
1  1 0 0.000000000000000 18.000000000000000
2  1 1 0 0.000000000000000 18.000000000000000
2  2 2 0 0.000000000000000 18.000000000000000
4 G1 1 0 2 0
0

0101000
+87 14 -87 16 *
Ve
0.000000100000005
-19.572600834492579 384.001514706093246 0.000000000000000
0 0

0101101
*
Ed
 0.000000100000005 1 1 0
1  2 0 0.000000000000000 18.000000000000000
2  3 3 0 0.000000000000000 18.000000000000000
2  4 1 0 0.000000000000000 18.000000000000000
4 G1 3 0 1 0
2  5 4 0 0.000000000000000 18.000000000000000
0

0101000
+85 14 -85 16 *
Ed
 0.000000100000000 1 1 0
1  3 0 0.192862029711070 1.519870283811140
2  6 5 19 0.192862029711070 1.519870283811140
2  7 5 20 0.192862029711070 1.519870283811140
2  8 6 22 0.192862029711070 1.519870283811140
2  9 6 23 0.192862029711070 1.519870283811140
2  10 1 24 0.192862029711070 1.519870283811140
2  11 1 25 0.192862029711070 1.519870283811140
2  12 7 26 0.192862029711070 1.519870283811140
2  13 7 27 0.192862029711070 1.519870283811140
2  14 7 28 0.192862029711070 1.519870283811140
0

0101000
+87 29 -85 29 *
Wi

0101100
+86 0 -84 0 -83 17 +83 30 *
Fa
0  0.000000100000000 1 0

0101000
+82 0 *
Ve
0.000000112022056
147.224318643354195 84.999999999999787 0.000000000000000
0 0

0101101
*
Ed
 0.000000112021745 1 1 0
1  4 0 0.000000000000000 18.000000000000000
2  15 8 0 0.000000000000000 18.000000000000000
2  16 2 0 0.000000000000000 18.000000000000000
4 C2 8 0 2 0
0

0101000
+80 33 -80 34 *
Ed
 0.000000100000000 1 1 0
1  5 0 3.334454683300864 3.665191429258806
2  17 2 24 3.334454683300864 3.665191429258806
2  18 2 25 3.334454683300864 3.665191429258806
2  19 7 28 3.334454683300864 3.665191429258806
0

0101000
+87 29 -80 35 *
Wi

0101100
+86 0 -79 0 -78 17 +78 30 *
Fa
0  0.000000100000000 2 0

0101000
+77 0 *
Ve
0.000000100000130
0.000000000000012 384.500000000000227 0.000000000000000
0 0

0101101
*
Ed
 0.000000100000000 1 1 0
1  6 0 1.519870283811140 1.570796326794896
2  20 3 24 1.519870283811140 1.570796326794896
2  21 3 25 1.519870283811140 1.570796326794896
2  22 4 24 1.519870283811140 1.570796326794896
2  23 4 25 1.519870283811140 1.570796326794896
2  24 7 28 1.519870283811140 1.570796326794896
0

0101000
+85 29 -75 36 *
Ve
0.000000100000005
19.572600834492590 384.001514706092905 0.000000000000000
0 0

0101101
*
Ed
 0.000000100000000 1 1 0
1  7 0 1.519870283811140 1.570796326794896
2  25 9 38 1.519870283811140 1.570796326794896
2  26 9 39 1.519870283811140 1.570796326794896
2  27 10 40 1.519870283811140 1.570796326794896
2  28 10 41 1.519870283811140 1.570796326794896
2  29 4 42 1.519870283811140 1.570796326794896
2  30 4 43 1.519870283811140 1.570796326794896
2  31 7 44 1.519870283811140 1.570796326794896
2  32 7 45 1.519870283811140 1.570796326794896
2  33 7 46 1.519870283811140 1.570796326794896
0

0101000
+73 0 -75 0 *
Ed
 0.000000100000005 1 1 0
1  8 0 0.000000000000000 18.000000000000000
2  34 11 0 0.000000000000000 18.000000000000000
2  35 4 0 0.000000000000000 18.000000000000000
4 G1 11 0 4 0
0

0101000
+73 37 -73 47 *
Wi

0101100
-84 0 +74 17 -72 37 +71 0 +72 47 -74 30 *
Fa
0  0.000000100000000 4 0

0101000
+70 0 *
Ve
0.000000100000348
42.836492354647099 363.825642047216206 0.000000000000000
0 0

0101101
*
Ed
 0.000000100000000 1 1 0
1  9 0 3.334454683300864 3.665191429258806
2  36 8 38 3.334454683300864 3.665191429258806
2  37 8 39 3.334454683300864 3.665191429258806
2  38 7 44 3.334454683300864 3.665191429258806
0

0101000
+68 0 -80 0 *
Ed
 0.000000100000000 1 1 0
1  10 0 0.192862029711070 1.519870283811140
2  39 12 38 0.192862029711070 1.519870283811140
2  40 12 39 0.192862029711070 1.519870283811140
2  41 13 40 0.192862029711070 1.519870283811140
2  42 13 41 0.192862029711070 1.519870283811140
2  43 11 42 0.192862029711070 1.519870283811140
2  44 11 43 0.192862029711070 1.519870283811140
2  45 7 44 0.192862029711070 1.519870283811140
2  46 7 45 0.192862029711070 1.519870283811140
2  47 7 46 0.192862029711070 1.519870283811140
0

0101000
+68 0 -73 0 *
Ed
 0.000000100000000 1 1 0
1  6 0 1.519870283811140 1.570796326794896
2  48 14 19 1.519870283811140 1.570796326794896
2  49 14 20 1.519870283811140 1.570796326794896
2  50 9 19 1.519870283811140 1.570796326794896
2  51 9 20 1.519870283811140 1.570796326794896
2  52 7 26 1.519870283811140 1.570796326794896
0

0101000
+85 29 -75 36 *
Ve
0.000000112022056
-147.224318643354110 84.999999999999758 0.000000000000000
0 0

0101101
*
Ed
 0.000000100000000 1 1 0
1  5 0 3.334454683300864 3.665191429258806
2  53 15 19 3.334454683300864 3.665191429258806
2  54 15 20 3.334454683300864 3.665191429258806
2  55 16 22 3.334454683300864 3.665191429258806
2  56 16 23 3.334454683300864 3.665191429258806
2  57 7 26 3.334454683300864 3.665191429258806
2  58 7 27 3.334454683300864 3.665191429258806
0

0101000
+87 29 -64 29 *
Ed
 0.000000100000000 1 1 0
1  9 0 3.334454683300864 3.665191429258806
2  59 17 40 3.334454683300864 3.665191429258806
2  60 17 41 3.334454683300864 3.665191429258806
2  61 7 45 3.334454683300864 3.665191429258806
0

0101000
+68 0 -64 54 *
Ed
 0.000000100000000 1 1 0
1  9 0 3.334454683300864 3.665191429258806
2  62 18 42 3.334454683300864 3.665191429258806
2  63 18 43 3.334454683300864 3.665191429258806
2  64 7 46 3.334454683300864 3.665191429258806
0

0101000
+68 0 -64 55 *
Ed
 0.000000100000000 1 1 0
1  6 0 1.519870283811140 1.570796326794896
2  65 19 22 1.519870283811140 1.570796326794896
2  66 19 23 1.519870283811140 1.570796326794896
2  67 10 22 1.519870283811140 1.570796326794896
2  68 10 23 1.519870283811140 1.570796326794896
2  69 7 27 1.519870283811140 1.570796326794896
0

0101000
+85 29 -75 36 *
Wi

0101100
-67 49 +66 49 +78 50 +72 49 -83 50 -65 51 -74 50 -83 51 +72 52 +63 51 
+66 52 -62 53 -61 52 +66 53 +63 56 +72 53 -83 56 -60 56 *
Ve
0.000000100000000
26.874999999999922 -141.960217354291217 0.000000000000000
0 0

0101101
*
Ed
 0.000000100000000 1 1 0
1  11 0 0.000000000000000 6.283185307179586
2  70 20 0 0.000000000000000 6.283185307179586
2  71 21 0 0.000000000000000 6.283185307179586
2  72 7 60 0.000000000000000 6.283185307179586
0

0101000
+58 61 -58 61 *
Wi

0101100
-57 59 *
Ve
0.000000100000000
-4.250000000000000 0.000000000000000 0.000000000000000
0 0

0101101
*
Ed
 0.000000100000000 1 1 0
1  12 0 0.000000000000000 6.283185307179586
2  73 22 0 0.000000000000000 6.283185307179586
2  74 23 0 0.000000000000000 6.283185307179586
2  75 7 63 0.000000000000000 6.283185307179586
0

0101000
+55 0 -55 0 *
Wi

0101100
+54 62 *
Fa
0  0.000000100000000 7 48

0101000
+59 0 +56 0 +53 0 *
Wi

0101100
-67 65 +66 65 +78 66 +72 65 -83 66 -65 67 -74 66 -83 67 +72 68 +63 67 
+66 68 -62 69 -61 68 +66 69 +63 70 +72 69 -83 70 -60 70 *
Ve
0.000000100000004
26.874999999999915 -141.960217354291217 18.000000000000000
0 0

0101101
*
Ed
 0.000000100000000 1 1 0
1  13 0 0.000000000000000 6.283185307179586
2  76 7 64 0.000000000000000 6.283185307179586
2  77 20 59 0.000000000000000 6.283185307179586
0

0101100
+50 0 -50 0 *
Wi

0101100
-49 0 *
Ve
0.000000100000000
136.378654555576702 47.705675950438817 18.000000000000000
0 0

0101101
*
Ed
 0.000000100000000 1 1 0
1  14 0 0.000000000000000 6.283185307179586
2  78 7 71 0.000000000000000 6.283185307179586
2  79 23 57 0.000000000000000 6.283185307179586
0

0101100
+47 0 -47 0 *
Wi

0101100
-46 4 *
Fa
0  0.000000100000000 7 64

0101000
+51 0 +48 0 +45 0 *
Ed
 0.000000100000348 1 1 0
1  15 0 0.000000000000000 18.000000000000000
2  80 8 0 0.000000000000000 18.000000000000000
2  81 12 0 0.000000000000000 18.000000000000000
4 G1 8 0 12 0
0

0101000
+68 33 -68 34 *
Wi

0101100
+43 0 -79 0 -67 33 +67 34 *
Fa
0  0.000000100000000 8 0

0101000
+42 0 *
Ed
 0.000000100000348 1 1 0
1  16 0 0.000000000000000 18.000000000000000
2  82 18 0 0.000000000000000 18.000000000000000
2  83 11 0 0.000000000000000 18.000000000000000
4 G1 18 0 11 0
0

0101000
+68 37 -68 47 *
Wi

0101100
+40 0 -71 0 -66 37 +66 47 *
Fa
0  0.000000100000000 11 0

0101000
+39 0 *
Ed
 0.000000100000005 1 1 0
1  17 0 0.000000000000000 18.000000000000000
2  84 12 0 0.000000000000000 18.000000000000000
2  85 9 0 0.000000000000000 18.000000000000000
4 G1 12 0 9 0
0

0101000
+73 33 -73 34 *
Wi

0101100
+43 0 -37 0 -66 33 +66 34 *
Fa
0  0.000000100000000 12 0

0101000
+36 0 *
Ed
 0.000000100000005 1 1 0
1  18 0 0.000000000000000 18.000000000000000
2  86 14 0 0.000000000000000 18.000000000000000
2  87 5 0 0.000000000000000 18.000000000000000
4 G1 14 0 5 0
2  88 9 0 0.000000000000000 18.000000000000000
0

0101000
+85 72 -85 73 *
Wi

0101100
-34 0 +65 74 -72 33 +37 0 +72 34 -65 75 *
Fa
0  0.000000100000000 9 0

0101000
+33 0 *
Ed
 0.000000100000348 1 1 0
1  19 0 0.000000000000000 18.000000000000000
2  89 5 0 0.000000000000000 18.000000000000000
2  90 15 0 0.000000000000000 18.000000000000000
4 G1 5 0 15 0
0

0101000
+87 72 -87 73 *
Wi

0101100
+31 0 -34 0 -83 74 +83 75 *
Fa
0  0.000000100000000 5 0

0101000
+30 0 *
Ed
 0.000000112021745 1 1 0
1  20 0 0.000000000000000 18.000000000000000
2  91 15 0 0.000000000000000 18.000000000000000
2  92 17 0 0.000000000000000 18.000000000000000
4 C2 15 0 17 0
0

0101000
+64 72 -64 73 *
Wi

0101100
+31 0 -28 0 -63 74 +63 75 *
Fa
0  0.000000100000000 15 0

0101000
+27 0 *
Ed
 0.000000100000348 1 1 0
1  21 0 0.000000000000000 18.000000000000000
2  93 17 0 0.000000000000000 18.000000000000000
2  94 13 0 0.000000000000000 18.000000000000000
4 G1 17 0 13 0
0

0101000
+68 76 -68 77 *
Wi

0101100
+25 0 -28 0 -62 76 +62 77 *
Fa
0  0.000000100000000 17 0

0101000
+24 0 *
Ed
 0.000000112021745 1 1 0
1  22 0 0.000000000000000 18.000000000000000
2  95 16 0 0.000000000000000 18.000000000000000
2  96 18 0 0.000000000000000 18.000000000000000
4 C2 16 0 18 0
0

0101000
+64 78 -64 79 *
Wi

0101100
+40 0 -22 0 -61 37 +61 47 *
Fa
0  0.000000100000000 18 0

0101000
+21 0 *
Ed
 0.000000100000005 1 1 0
1  23 0 0.000000000000000 18.000000000000000
2  97 13 0 0.000000000000000 18.000000000000000
2  98 10 0 0.000000000000000 18.000000000000000
4 G1 13 0 10 0
0

0101000
+73 76 -73 77 *
Wi

0101100
+25 0 -19 0 -66 76 +66 77 *
Fa
0  0.000000100000000 13 0

0101000
+18 0 *
Ed
 0.000000100000348 1 1 0
1  24 0 0.000000000000000 18.000000000000000
2  99 6 0 0.000000000000000 18.000000000000000
2  100 16 0 0.000000000000000 18.000000000000000
4 G1 6 0 16 0
0

0101000
+87 78 -87 79 *
Wi

0101100
+16 0 -22 0 -63 80 +63 81 *
Fa
0  0.000000100000000 16 0

0101000
+15 0 *
Ed
 0.000000100000005 1 1 0
1  25 0 0.000000000000000 18.000000000000000
2  101 19 0 0.000000000000000 18.000000000000000
2  102 6 0 0.000000000000000 18.000000000000000
4 G1 19 0 6 0
2  103 10 0 0.000000000000000 18.000000000000000
0

0101000
+85 78 -85 79 *
Wi

0101100
-13 0 +60 80 -72 76 +19 0 +72 77 -60 81 *
Fa
0  0.000000100000000 10 0

0101000
+12 0 *
Wi

0101100
+16 0 -13 0 -83 80 +83 81 *
Fa
0  0.000000100000000 6 0

0101000
+10 0 *
Ed
 0.000000100000000 1 1 0
1  26 0 0.000000000000000 18.000000000000000
3  104 105CN 20 0 0.000000000000000 18.000000000000000
0

0101000
+58 61 -50 61 *
Wi

0101100
-8 59 -49 0 +8 59 +57 59 *
Fa
0  0.000000100000000 20 59

0101000
+7 0 *
Ed
 0.000000100000000 1 1 0
1  27 0 0.000000000000000 18.000000000000000
3  106 107CN 23 0 0.000000000000000 18.000000000000000
0

0101000
+55 0 -47 82 *
Wi

0101100
-5 57 +46 0 +5 57 +54 57 *
Fa
0  0.000000100000000 23 57

0101000
+4 0 *
Sh

0101100
+81 5 -76 5 -69 5 -52 0 +44 0 +41 5 -38 5 -35 5 -32 5 +29 5 
-26 5 +23 5 +20 5 -17 5 -14 5 -11 5 +9 5 -6 0 +3 4 *
So

0100000
+2 0 *

+1 1 