
CASCADE Topology V1, (c) Matra-Datavision
Locations 12
1
1.000000000000000 0.000000000000000 0.000000000000000 0.000000000000000 
0.000000000000000 1.000000000000000 0.000000000000000 0.000000000000000 
0.000000000000000 0.000000000000000 1.000000000000000 0.000000000000000 
1
0.866025403784439 0.000000000000000 0.500000000000000 0.000000000000000 
0.500000000000000 -0.000000000000000 -0.866025403784439 0.000000000000000 
0.000000000000000 1.000000000000000 -0.000000000000000 0.000000000000000 
1
1.000000000000000 0.000000000000000 0.000000000000000 0.000000000000000 
0.000000000000000 1.000000000000000 0.000000000000000 0.000000000000000 
0.000000000000000 0.000000000000000 1.000000000000000 0.000000000000000 
2  1 1 2 1 3 -1 0
1
1.000000000000000 0.000000000000000 0.000000000000000 -1.394583417521822 
0.000000000000000 1.000000000000000 0.000000000000000 2.415489334540836 
0.000000000000000 0.000000000000000 1.000000000000000 0.000000000000000 
2  1 1 2 1 3 -1 5 1 0
2  2 -1 1 -1 0
2  3 1 2 -1 1 -1 0
2  5 -1 3 1 2 -1 1 -1 0
2  3 -1 0
2  1 1 2 1 0
2  3 -1 5 1 0
Curve2ds 37
1 0.00000000000000000 0.00000000000000000 0.00000000000000009 -1.00000000000000000 
1 0.00000000000000000 0.00000000000000000 -0.00000000000000009 -1.00000000000000000 
1 -0.00000000000000089 0.00000000000000000 0.00000000000000000 -1.00000000000000000 
1 64.87575284651893526 0.00000000000001214 -0.00000000000000009 -1.00000000000000000 
1 120.57591766551271917 108.26963706447723723 -0.00000000000000011 -1.00000000000000000 
1 0.00000000000000000 0.00000000000000000 1.00000000000000000 0.00000000000000000 
1 -0.00000000000000054 -2.78916683504363405 1.00000000000000000 0.00000000000000000 
1 1.57079632679488657 0.00000000000000000 0.00000000000000000 -1.00000000000000000 
1 -0.00000000000000000 0.00000000000000000 -0.00000000000000011 -1.00000000000000000 
1 0.00000000000000000 0.00000000000000000 1.00000000000000000 0.00000000000000000 
1 0.00000000000000000 -2.78916683504364382 1.00000000000000000 0.00000000000000000 
2 118.07591766551269075 43.39388421795830197 1.00000000000000000 -0.00000000000000011 -0.00000000000000011 -1.00000000000000000 2.50000000000002220
1 1.57079632679489567 0.00000000000000000 0.00000000000000000 -1.00000000000000000 
1 336.50000000000011369 -0.00000000000002842 -0.00000000000000011 -1.00000000000000000 
1 118.07591766551269075 40.89388421795830197 -1.00000000000000000 0.00000000000000011 
1 -0.00000000000000000 0.00000000000000000 1.00000000000000000 0.00000000000000000 
1 -0.00000000000001843 -2.78916683504363405 1.00000000000000000 0.00000000000000000 
1 3.14159265358979622 0.00000000000000000 0.00000000000000000 -1.00000000000000000 
1 0.00000000000000000 0.00000000000000000 -0.00000000000000009 -1.00000000000000000 
1 0.00000000000000000 0.00000000000000000 1.00000000000000000 0.00000000000000000 
1 0.00000000000000000 -2.78916683504364382 1.00000000000000000 0.00000000000000000 
2 -218.42408233448742294 41.89388421795834461 1.00000000000000000 -0.00000000000000011 -0.00000000000000011 -1.00000000000000000 1.00000000000000000
1 111.00000000000000000 0.00000000000000000 -0.00000000000000009 -1.00000000000000000 
1 -219.42408233448739452 41.89388421795834461 -0.00000000000000011 -1.00000000000000000 
1 0.00000000000000000 0.00000000000000000 1.00000000000000000 0.00000000000000000 
1 -0.00000000000000054 -2.78916683504364382 1.00000000000000000 0.00000000000000000 
1 -219.42408233448742294 -69.10611578204165539 1.00000000000000000 -0.00000000000000011 
1 -0.00000000000000000 0.00000000000000000 -0.00000000000000012 -1.00000000000000000 
1 180.17591766551265664 -69.10611578204171224 0.00000000000000011 1.00000000000000000 
1 59.53791045368785717 0.00000000000001455 -0.00000000000000012 -1.00000000000000000 
1 2.80000000000000204 -0.00000000000000059 0.00000000000000009 -1.00000000000000000 
1 -0.00000000000000000 0.00000000000000000 1.00000000000000000 0.00000000000000001 
1 -0.00000000000001843 -2.78916683504363405 1.00000000000000000 0.00000000000000001 
1 180.17591766551268506 107.60421900689574670 -0.99830927095351418 0.05812572174401819 
1 0.00000000000000000 0.00000000000000000 1.00000000000000000 0.00000000000000001 
1 0.00000000000000161 -2.78916683504363405 1.00000000000000000 0.00000000000000001 
1 120.57591766551271917 108.26963706447723723 0.05812572174402175 0.99830927095351396 
Curves 18
1 294.79504744822298790 170.20000000000004547 22.62424715348111093 -0.50000000000000000 0.86602540378443871 0.00000000000000010 
1 294.79504744822298790 170.20000000000001705 87.50000000000004263 -0.50000000000000000 0.86602540378443871 0.00000000000000010 
1 340.40000000000003411 22.62424715348107185 0.00000000000000000 0.00000000000000000 1.00000000000000000 0.00000000000000000 
1 292.62998393876188175 168.95000000000001705 90.00000000000004263 -0.50000000000000000 0.86602540378443871 0.00000000000000010 
2 337.90000000000003411 87.50000000000000000 0.00000000000000000 0.00000000000000000 0.00000000000000000 1.00000000000000000 1.00000000000000000 0.00000000000000000 -0.00000000000000000 -0.00000000000000000 1.00000000000000000 0.00000000000000000 2.50000000000000000
1 1.21243556529820484 0.69999999999997475 90.00000000000000000 -0.50000000000000000 0.86602540378443871 0.00000000000000010 
1 337.90000000000003411 90.00000000000000000 0.00000000000000000 -1.00000000000000000 0.00000000000000000 0.00000000000000000 
1 0.34641016151377557 0.19999999999998036 89.00000000000000000 -0.50000000000000000 0.86602540378443871 0.00000000000000010 
2 1.40000000000000013 89.00000000000000000 0.00000000000000000 0.00000000000000000 0.00000000000000000 1.00000000000000000 1.00000000000000000 0.00000000000000000 -0.00000000000000000 -0.00000000000000000 1.00000000000000000 0.00000000000000000 1.00000000000000000
1 0.34641016151377557 0.19999999999995571 200.00000000000000000 -0.50000000000000000 0.86602540378443871 0.00000000000000010 
1 0.40000000000000013 89.00000000000000000 0.00000000000000000 0.00000000000000000 1.00000000000000000 0.00000000000000000 
1 346.41016151377550614 200.00000000000000000 200.00000000000005684 -0.50000000000000000 0.86602540378443871 0.00000000000000010 
1 0.40000000000000013 200.00000000000000000 0.00000000000000000 1.00000000000000000 0.00000000000000000 0.00000000000000000 
1 346.41016151377550614 200.00000000000005684 23.28966521106260146 -0.50000000000000000 0.86602540378443871 0.00000000000000010 
1 400.00000000000000000 200.00000000000000000 0.00000000000000000 0.00000000000000000 -1.00000000000000000 0.00000000000000000 
1 294.93599483282514484 170.28137601044167582 19.82898119481126997 -0.50000000000000000 0.86602540378443871 0.00000000000000010 
1 400.00000000000000000 23.28966521106255527 0.00000000000000000 -0.99830927095351418 -0.05812572174401809 0.00000000000000000 
1 340.40000000000003411 22.62424715348107185 0.00000000000000000 0.05812572174402163 -0.99830927095351396 0.00000000000000000 
Polygon3D 0
PolygonOnTriangulations 0
Surfaces 10
1 294.79504744822298790 170.20000000000004547 22.62424715348111093 0.86602540378443871 0.50000000000000000 0.00000000000000011 0.00000000000000000 -0.00000000000000022 1.00000000000000000 0.50000000000000000 -0.86602540378443871 -0.00000000000000019 
1 294.79504744822298790 170.20000000000004547 22.62424715348111093 -0.86456118947926552 -0.49915463547675698 -0.05812572174402175 0.05033835164362827 0.02906286087201104 -0.99830927095351396 0.50000000000000011 -0.86602540378443871 -0.00000000000000019 
2 292.62998393876188175 168.95000000000001705 87.50000000000004263 0.50000000000000011 -0.86602540378443871 -0.00000000000000019 0.86602540378443871 0.50000000000000011 0.00000000000000011 -0.00000000000000000 -0.00000000000000022 1.00000000000000000 2.50000000000000000
1 190.37323966526813024 109.91204116724370010 130.89388421795834461 -0.50000000000000011 0.86602540378443860 0.00000000000000017 0.86602540378443860 0.50000000000000011 -0.00000000000000000 -0.00000000000000009 0.00000000000000015 -1.00000000000000000 
1 292.62998393876188175 168.95000000000001705 90.00000000000004263 -0.00000000000000004 -0.00000000000000015 1.00000000000000000 -0.86602540378443871 -0.50000000000000011 -0.00000000000000011 0.50000000000000011 -0.86602540378443871 -0.00000000000000011 
2 1.21243556529821439 0.69999999999998042 89.00000000000000000 0.50000000000000011 -0.86602540378443871 -0.00000000000000019 0.86602540378443871 0.50000000000000011 0.00000000000000011 -0.00000000000000000 -0.00000000000000022 1.00000000000000000 1.00000000000000000
1 0.34641016151377557 0.19999999999998036 89.00000000000000000 0.86602540378443871 0.50000000000000000 0.00000000000000011 0.00000000000000000 -0.00000000000000022 1.00000000000000000 0.50000000000000000 -0.86602540378443871 -0.00000000000000019 
1 0.34641016151377557 0.19999999999995571 200.00000000000000000 0.00000000000000004 0.00000000000000015 -1.00000000000000000 0.86602540378443871 0.50000000000000011 0.00000000000000011 0.50000000000000011 -0.86602540378443871 -0.00000000000000011 
1 346.41016151377550614 200.00000000000000000 200.00000000000005684 -0.86602540378443871 -0.50000000000000000 -0.00000000000000011 0.00000000000000000 0.00000000000000022 -1.00000000000000000 0.50000000000000000 -0.86602540378443871 -0.00000000000000019 
1 346.41016151377550614 200.00000000000005684 23.28966521106260146 -0.05033835164362523 -0.02906286087200919 0.99830927095351418 -0.86456118947926575 -0.49915463547675720 -0.05812572174401821 0.50000000000000011 -0.86602540378443871 -0.00000000000000010 
Triangulations 0

TShapes 49
Ve
0.000000100000000
340.400000000000034 22.624247153481072 0.000000000000000
0 0

0101101
*
Ed
 0.000000100000000 1 1 0
1  1 0 0.000000000000000 2.789166835043644
2  1 2 0 0.000000000000000 2.789166835043644
2  2 1 0 0.000000000000000 2.789166835043644
0

0101000
+49 4 -49 6 *
Ve
0.000000100000000
340.400000000000034 87.500000000000000 0.000000000000000
0 0

0101101
*
Ed
 0.000000100000000 1 1 0
1  2 0 0.000000000000000 2.789166835043644
2  3 3 0 0.000000000000000 2.789166835043644
4 G1 1 0 3 0
2  4 1 0 0.000000000000000 2.789166835043644
0

0101000
+47 4 -47 6 *
Ed
 0.000000100000000 1 1 0
1  3 0 0.000000000000000 64.875752846518935
2  5 4 7 0.000000000000000 64.875752846518935
2  6 1 8 0.000000000000000 64.875752846518935
2  7 1 9 0.000000000000000 64.875752846518935
0

0101000
+49 0 -47 0 *
Wi

0101100
+48 0 -46 0 -45 4 +45 6 *
Fa
0  0.000000100000000 1 0

0111000
+44 0 *
Ve
0.000000100000000
337.900000000000034 90.000000000000000 0.000000000000000
0 0

0101101
*
Ed
 0.000000100000000 1 1 0
1  4 0 0.000000000000000 2.789166835043644
2  8 3 0 0.000000000000000 2.789166835043644
4 G1 3 0 5 0
2  9 5 0 0.000000000000000 2.789166835043644
0

0101000
+42 4 -42 6 *
Ed
 0.000000100000000 1 1 0
1  5 0 -0.000000000000001 1.570796326794887
2  10 3 8 -0.000000000000001 1.570796326794887
2  11 3 9 -0.000000000000001 1.570796326794887
2  12 4 7 -0.000000000000001 1.570796326794887
0

0101000
+47 0 -42 0 *
Wi

0101100
+46 0 -41 0 -40 4 +40 6 *
Fa
0  0.000000100000000 3 0

0111000
+39 0 *
Ve
0.000000100000012
1.399999999999989 90.000000000000000 0.000000000000000
0 0

0101101
*
Ed
 0.000000100000012 1 1 0
1  6 0 0.000000000000000 2.789166835043644
2  13 6 0 0.000000000000000 2.789166835043644
4 C1 5 0 6 0
2  14 5 0 0.000000000000000 2.789166835043644
0

0101000
+37 4 -37 6 *
Ed
 0.000000100000000 1 1 0
1  7 0 0.000000000000000 336.500000000000057
2  15 4 7 0.000000000000000 336.500000000000057
2  16 5 8 0.000000000000000 336.500000000000057
2  17 5 9 0.000000000000000 336.500000000000057
0

0101000
+42 0 -37 0 *
Wi

0101100
+41 0 -36 0 -35 4 +35 6 *
Fa
0  0.000000100000000 5 0

0111000
+34 0 *
Ve
0.000000100000000
0.400000000000000 89.000000000000000 0.000000000000000
0 0

0101101
*
Ed
 0.000000100000000 1 1 0
1  8 0 0.000000000000000 2.789166835043644
2  18 6 0 0.000000000000000 2.789166835043644
2  19 7 0 0.000000000000000 2.789166835043644
0

0101000
+32 4 -32 6 *
Ed
 0.000000100000000 1 1 0
1  9 0 1.570796326794896 3.141592653589796
2  20 6 8 1.570796326794896 3.141592653589796
2  21 6 9 1.570796326794896 3.141592653589796
2  22 4 7 1.570796326794896 3.141592653589796
0

0101000
+37 0 -32 0 *
Wi

0101100
+36 0 -31 0 -30 4 +30 6 *
Fa
0  0.000000100000000 6 0

0111000
+29 0 *
Ve
0.000000100000000
0.400000000000000 200.000000000000000 0.000000000000000
0 0

0101101
*
Ed
 0.000000100000000 1 1 0
1  10 0 0.000000000000000 2.789166835043644
2  23 7 0 0.000000000000000 2.789166835043644
0

0101000
+27 4 -27 6 *
Ed
 0.000000100000000 1 1 0
1  11 0 0.000000000000000 111.000000000000000
2  24 4 7 0.000000000000000 111.000000000000000
2  25 7 8 0.000000000000000 111.000000000000000
2  26 7 9 0.000000000000000 111.000000000000000
0

0101000
+32 0 -27 0 *
Wi

0101100
+31 0 -26 0 -25 4 +25 6 *
Fa
0  0.000000100000000 7 0

0111000
+24 0 *
Ve
0.000000100000000
400.000000000000000 200.000000000000000 0.000000000000000
0 0

0101101
*
Ed
 0.000000100000000 1 1 0
1  12 0 0.000000000000000 2.789166835043644
0

0101000
+22 4 -22 6 *
Ed
 0.000000100000000 1 1 0
1  13 0 0.000000000000000 399.600000000000023
2  27 4 7 0.000000000000000 399.600000000000023
0

0101000
+27 0 -22 0 *
Wi

0101100
+26 0 -21 0 -20 4 +20 6 *
Fa
0  0.000000100000000 8 0

0111000
+19 0 *
Ve
0.000000100000000
400.000000000000000 23.289665211062555 0.000000000000000
0 0

0101101
*
Ed
 0.000000100000000 1 1 0
1  14 0 0.000000000000000 2.789166835043644
2  28 10 0 0.000000000000000 2.789166835043644
0

0101000
+17 4 -17 6 *
Ed
 0.000000100000000 1 1 0
1  15 0 0.000000000000000 176.710334788937445
2  29 4 7 0.000000000000000 176.710334788937445
0

0101000
+22 0 -17 0 *
Wi

0101100
+21 0 -16 0 -15 4 +15 6 *
Fa
0  0.000000100000000 9 0

0111000
+14 0 *
Ve
0.000000100000000
340.562752020883295 19.828981194811231 0.000000000000000
0 0

0101101
*
Ed
 0.000000100000000 1 1 0
1  16 0 0.000000000000000 2.789166835043644
2  30 10 0 0.000000000000000 2.789166835043644
2  31 2 0 0.000000000000000 2.789166835043644
0

0101000
+12 4 -12 6 *
Ed
 0.000000100000000 1 1 0
1  17 0 0.000000000000000 59.537910453687829
2  32 10 8 0.000000000000000 59.537910453687829
2  33 10 9 0.000000000000000 59.537910453687829
2  34 4 7 0.000000000000000 59.537910453687829
0

0101000
+17 0 -12 0 *
Wi

0101100
+16 0 -11 0 -10 4 +10 6 *
Fa
0  0.000000100000000 10 0

0111000
+9 0 *
Ed
 0.000000100000000 1 1 0
1  18 0 0.000000000000000 2.800000000000002
2  35 2 8 0.000000000000000 2.800000000000002
2  36 2 9 0.000000000000000 2.800000000000002
2  37 4 7 0.000000000000000 2.800000000000002
0

0101000
+49 0 -12 0 *
Wi

0101100
+48 0 -11 0 -7 4 +7 6 *
Fa
0  0.000000100000000 2 0

0111000
+6 0 *
Wi

0101100
+45 0 +40 0 +35 0 +30 0 +25 0 +20 0 +15 0 +10 0 -7 0 *
Fa
0  0.000000100000000 4 0

0111000
+4 11 *
Sh

0101100
+43 0 +38 0 +33 0 +28 0 +23 0 +18 0 +13 0 +8 0 -5 0 +3 10 
-3 12 *
So

1100000
-2 0 *

+1 0 