
CASCADE Topology V1, (c) Matra-Datavision
Locations 6
1
1.000000000000000 0.000000000000000 0.000000000000000 0.000000000000000 
0.000000000000000 1.000000000000000 0.000000000000000 0.000000000000000 
0.000000000000000 0.000000000000000 1.000000000000000 0.000000000000000 
1
1.000000000000000 0.000000000000000 0.000000000000000 -0.000000000000000 
0.000000000000000 1.000000000000000 0.000000000000000 128.000000000000000 
0.000000000000000 0.000000000000000 1.000000000000000 0.000000000000028 
1
1.000000000000000 0.000000000000000 0.000000000000000 0.000000000000000 
0.000000000000000 1.000000000000000 0.000000000000000 -256.000000000000000 
0.000000000000000 0.000000000000000 1.000000000000000 -0.000000000000057 
2  2 1 3 1 0
2  3 -1 2 -1 0
2  2 -1 0
Curve2ds 94
1 1.57079632679489656 0.00000000000000000 0.00000000000000000 -1.00000000000000000 
1 0.00000000000000000 -0.29999999999999893 1.00000000000000000 0.00000000000000000 
1 0.00000000000000000 -0.30000000000000071 -1.00000000000000000 0.00000000000000000 
1 0.00000000000000000 0.00000000000000000 0.00000000000000000 -1.00000000000000000 
1 14.59999999999999964 -0.00000000000000324 0.00000000000000000 -1.00000000000000000 
1 0.00000000000000000 0.00000000000000000 1.00000000000000000 0.00000000000000000 
1 0.00000000000000000 -0.30000000000000071 -1.00000000000000000 0.00000000000000000 
1 0.00000000000000000 -0.30000000000000071 1.00000000000000000 0.00000000000000000 
1 -0.39999999999999991 0.00000000000000009 1.00000000000000000 0.00000000000000000 
1 -0.39999999999999991 -256.00000000000000000 1.00000000000000000 0.00000000000000000 
1 0.00000000000000000 0.00000000000000000 0.00000000000000000 -1.00000000000000000 
1 -0.00000000000000007 -0.29999999999999999 1.00000000000000000 0.00000000000000000 
1 0.00000000000000007 -0.29999999999999988 -1.00000000000000000 0.00000000000000000 
1 22.20000000000000284 0.00000000000000000 0.00000000000000000 -1.00000000000000000 
1 0.00000000000000000 256.00000000000000000 1.00000000000000000 0.00000000000000000 
1 0.00000000000000000 0.00000000000000000 1.00000000000000000 0.00000000000000000 
1 0.00000000000000000 -256.00000000000000000 1.00000000000000000 0.00000000000000000 
1 6.28318530717958623 0.00000000000000000 -1.00000000000000000 0.00000000000000000 
1 0.00000000000000000 0.00000000000000000 1.00000000000000000 0.00000000000000000 
6 0 1 -15.00000000000000000 -0.30000000000000071  -15.00000000000000000 0.00000000000000000  
1 14.59999999999999964 -0.00000000000000324 0.00000000000000000 -1.00000000000000000 
6 0 1 15.00000000000000000 -0.30000000000000071  15.00000000000000000 0.00000000000000000  
1 -0.39999999999999991 0.00000000000000009 1.00000000000000000 0.00000000000000000 
1 0.00000000000000000 0.00000000000000000 1.00000000000000000 0.00000000000000000 
6 0 1 0.00000000000000000 -0.30000000000000071  0.00000000000000000 0.00000000000000000  
6 0 1 0.39999999999999991 -0.30000000000000071  0.39999999999999991 0.00000000000000000  
8 0.00000000000000000 1.00000000000000000
1 1.57079632679489656 0.00000000000000000 0.00000000000000000 1.00000000000000000 
6 0 1 -0.39999999999999991 -0.30000000000000071  -0.39999999999999991 0.00000000000000000  
6 0 1 -256.00000000000000000 -0.30000000000000071  -256.00000000000000000 0.00000000000000000  
8 0.00000000000000000 1.00000000000000000
1 4.71238898038468967 0.00000000000000000 0.00000000000000000 1.00000000000000000 
1 -0.39999999999999991 -256.00000000000000000 1.00000000000000000 0.00000000000000000 
1 0.00000000000000000 0.00000000000000000 -1.00000000000000000 0.00000000000000000 
1 6.28318530717958623 0.00000000000000000 0.00000000000000000 -1.00000000000000000 
1 -0.00000000000000007 -0.30000000000000032 1.00000000000000000 0.00000000000000000 
1 0.00000000000000007 -0.29999999999999999 -1.00000000000000000 0.00000000000000000 
1 0.00000000000000000 0.00000000000000000 0.00000000000000000 -1.00000000000000000 
1 0.00000000000000000 0.00000000000000000 1.00000000000000000 0.00000000000000000 
1 0.00000000000000000 -0.29999999999999999 -1.00000000000000000 0.00000000000000000 
1 0.00000000000000000 -0.29999999999999999 1.00000000000000000 0.00000000000000000 
1 -0.40000000000000036 0.00000000000000000 1.00000000000000000 0.00000000000000000 
1 -0.40000000000000036 -256.00000000000000000 1.00000000000000000 0.00000000000000000 
1 0.00000000000000000 1.00000000000000000 1.00000000000000000 0.00000000000000000 
1 0.00000000000000000 0.00000000000000000 0.00000000000000000 1.00000000000000000 
6 0 1 0.00000000000000000 -0.29999999999999988  0.00000000000000000 0.00000000000000000  
1 6.28318530717958623 0.00000000000000000 0.00000000000000000 1.00000000000000000 
7 0 0  1 2 2  -256.00000000000000000 -0.30000000000000004  -256.00000000000000000 -0.00000000000000006 
 0.00000000000000000 2 1.00000000000000000 2
1 6.28318530717958623 1.00000000000000000 -1.00000000000000000 0.00000000000000000 
1 0.00000000000000000 0.00000000000000000 0.00000000000000000 -1.00000000000000000 
1 0.00000000000000000 0.00000000000000000 -1.00000000000000000 0.00000000000000000 
8 0.00000000000000000 256.00000000000000000
1 1.57079632679489656 0.00000000000000000 0.00000000000000000 -1.00000000000000000 
1 4.71238898038468967 0.00000000000000000 0.00000000000000000 -1.00000000000000000 
1 -0.00000000000000000 -0.30000000000000071 1.00000000000000000 0.00000000000000000 
1 -0.00000000000000000 -0.29999999999999893 -1.00000000000000000 0.00000000000000000 
1 14.59999999999999964 0.00000000000000324 0.00000000000000000 -1.00000000000000000 
1 -4.71238898038468967 256.00000000000000000 1.00000000000000000 0.00000000000000000 
1 0.00000000000000000 0.00000000000000000 1.00000000000000000 0.00000000000000000 
1 0.00000000000000000 -256.00000000000000000 1.00000000000000000 0.00000000000000000 
1 6.28318530717958623 0.00000000000000000 -1.00000000000000000 0.00000000000000000 
1 0.00000000000000000 0.00000000000000000 1.00000000000000000 0.00000000000000000 
1 -0.40000000000000036 0.00000000000000000 1.00000000000000000 0.00000000000000000 
1 0.00000000000000000 0.00000000000000000 1.00000000000000000 0.00000000000000000 
6 0 1 0.40000000000000036 -0.29999999999999999  0.40000000000000036 0.00000000000000000  
6 0 1 0.00000000000000000 -0.29999999999999999  0.00000000000000000 0.00000000000000000  
8 0.00000000000000000 1.00000000000000000
1 6.28318530717958623 0.00000000000000000 0.00000000000000000 1.00000000000000000 
6 0 1 -0.40000000000000036 -0.29999999999999999  -0.40000000000000036 0.00000000000000000  
6 0 1 -256.00000000000000000 -0.29999999999999999  -256.00000000000000000 0.00000000000000000  
8 0.00000000000000000 1.00000000000000000
1 0.00000000000000000 0.00000000000000000 0.00000000000000000 1.00000000000000000 
1 -0.40000000000000036 -256.00000000000000000 1.00000000000000000 0.00000000000000000 
1 0.00000000000000000 0.00000000000000000 -1.00000000000000000 0.00000000000000000 
1 0.00000000000000000 0.00000000000000000 -1.00000000000000000 0.00000000000000000 
1 0.00000000000000000 0.00000000000000000 0.00000000000000000 -1.00000000000000000 
1 0.00000000000000000 0.00000000000000000 1.00000000000000000 0.00000000000000000 
1 0.00000000000000000 -0.30000000000000071 -1.00000000000000000 0.00000000000000000 
1 0.00000000000000000 -0.30000000000000071 1.00000000000000000 0.00000000000000000 
1 0.00000000000000000 0.00000000000000000 1.00000000000000000 0.00000000000000000 
1 0.00000000000000000 -256.00000000000000000 1.00000000000000000 0.00000000000000000 
1 0.00000000000000000 1.00000000000000000 1.00000000000000000 0.00000000000000000 
1 4.71238898038468967 0.00000000000000000 0.00000000000000000 1.00000000000000000 
6 0 1 0.00000000000000000 -0.29999999999999893  0.00000000000000000 0.00000000000000000  
1 1.57079632679489656 0.00000000000000000 0.00000000000000000 1.00000000000000000 
7 0 0  1 2 2  -256.00000000000000000 -0.30000000000000071  -256.00000000000000000 0.00000000000000178 
 0.00000000000000000 2 1.00000000000000000 2
1 6.28318530717958623 1.00000000000000000 -1.00000000000000000 0.00000000000000000 
1 0.00000000000000000 0.00000000000000000 0.00000000000000000 -1.00000000000000000 
1 0.00000000000000000 0.00000000000000000 -1.00000000000000000 0.00000000000000000 
8 0.00000000000000000 256.00000000000000000
1 6.28318530717958623 0.00000000000000000 0.00000000000000000 -1.00000000000000000 
6 0 1 0.00000000000000000 -0.30000000000000071  0.00000000000000000 0.00000000000000000  
1 0.00000000000000000 0.00000000000000000 0.00000000000000000 -1.00000000000000000 
6 0 1 0.00000000000000000 -0.30000000000000071  0.00000000000000000 0.00000000000000000  
1 0.00000000000000000 0.00000000000000000 1.00000000000000000 0.00000000000000000 
1 0.00000000000000000 0.00000000000000000 1.00000000000000000 0.00000000000000000 
1 0.00000000000000000 -256.00000000000000000 1.00000000000000000 0.00000000000000000 
1 0.00000000000000000 0.00000000000000000 -1.00000000000000000 0.00000000000000000 
1 0.00000000000000000 0.00000000000000000 -1.00000000000000000 0.00000000000000000 
1 14.59999999999999964 0.00000000000000324 0.00000000000000000 -1.00000000000000000 
Curves 39
1 11.50000000000000000 128.00000000000000000 -0.39999999999997149 0.00000000000000000 -1.00000000000000000 -0.00000000000000022 
1 11.50000000000000000 128.00000000000000000 -14.99999999999997158 0.00000000000000000 -1.00000000000000000 -0.00000000000000022 
1 11.50000000000000000 0.00000000000000000 0.00000000000000000 0.00000000000000000 0.00000000000000022 -1.00000000000000000 
1 11.10000000000000142 128.00000000000000000 0.00000000000002842 0.00000000000000000 -1.00000000000000000 -0.00000000000000022 
2 11.10000000000000142 0.00000000000000000 -0.39999999999999991 -0.00000000000000000 1.00000000000000000 0.00000000000000022 0.00000000000000000 -0.00000000000000022 1.00000000000000000 1.00000000000000000 0.00000000000000000 0.00000000000000000 0.40000000000000002
6 0 1 11.50000000000000000 -128.00000000000000000 -15.00000000000002842  11.19999999999999929 -128.00000000000000000 -15.00000000000002842  
1 11.19999999999999929 128.00000000000000000 -14.99999999999997158 0.00000000000000000 -1.00000000000000000 -0.00000000000000022 
6 0 1 11.50000000000000000 128.00000000000000000 -14.99999999999997158  11.19999999999999929 128.00000000000000000 -14.99999999999997158  
1 11.19999999999999929 128.00000000000000000 0.00000000000002842 0.00000000000000000 0.00000000000000022 -1.00000000000000000 
6 0 1 11.50000000000000000 128.00000000000000000 -0.39999999999997149  11.19999999999999929 128.00000000000000000 -0.39999999999997149  
6 0 1 11.50000000000000000 -128.00000000000000000 -0.40000000000002833  11.19999999999999929 -128.00000000000000000 -0.40000000000002833  
1 11.19999999999999929 -128.00000000000000000 -0.00000000000002842 0.00000000000000000 0.00000000000000022 -1.00000000000000000 
1 -11.09999999999999964 128.00000000000000000 0.00000000000002842 0.00000000000000000 -1.00000000000000000 -0.00000000000000022 
1 -11.50000000000000000 0.00000000000000000 0.00000000000000000 1.00000000000000000 0.00000000000000000 0.00000000000000000 
2 11.10000000000000142 128.00000000000000000 -0.39999999999997149 -0.00000000000000000 1.00000000000000000 0.00000000000000022 0.00000000000000000 -0.00000000000000022 1.00000000000000000 1.00000000000000000 0.00000000000000000 0.00000000000000000 0.10000000000000003
6 0 1 11.10000000000000142 128.00000000000000000 0.00000000000002842  11.10000000000000142 128.00000000000000000 -0.29999999999997146  
7 0 0  1 2 2  11.09999999999999964 -128.00000000000000000 -0.00000000000002828  11.10000000000000320 -128.00000000000000000 -0.30000000000002824 
 0.00000000000000000 2 1.00000000000000000 2
2 11.10000000000000142 -128.00000000000000000 -0.40000000000002833 -0.00000000000000000 1.00000000000000000 0.00000000000000022 0.00000000000000000 -0.00000000000000022 1.00000000000000000 1.00000000000000000 0.00000000000000000 0.00000000000000000 0.10000000000000003
1 11.19999999999999929 128.00000000000000000 -0.39999999999997149 0.00000000000000000 -1.00000000000000000 -0.00000000000000022 
1 -11.50000000000000000 128.00000000000000000 -0.39999999999997193 0.00000000000000000 -1.00000000000000000 -0.00000000000000022 
2 -11.10000000000000142 -0.00000000000000255 -0.40000000000000036 0.00000000000000000 1.00000000000000000 0.00000000000000022 0.00000000000000022 -0.00000000000000022 1.00000000000000000 1.00000000000000000 0.00000000000000000 -0.00000000000000022 0.40000000000000002
1 -11.50000000000000000 128.00000000000000000 -0.29999999999997157 1.00000000000000000 0.00000000000000000 0.00000000000000000 
6 0 1 -11.09999999999999964 128.00000000000000000 0.00000000000002842  -11.09999999999999964 128.00000000000000000 -0.29999999999997157  
6 0 1 -11.09999999999999964 -128.00000000000000000 -0.00000000000002842  -11.09999999999999964 -128.00000000000000000 -0.30000000000002841  
1 -11.50000000000000000 -128.00000000000000000 -0.30000000000002841 1.00000000000000000 0.00000000000000000 0.00000000000000000 
1 11.10000000000000142 128.00000000000000000 -0.29999999999997146 0.00000000000000000 -1.00000000000000000 -0.00000000000000022 
1 -11.50000000000000000 128.00000000000000000 -14.99999999999997158 0.00000000000000000 -1.00000000000000000 -0.00000000000000022 
1 -11.50000000000000000 0.00000000000000333 -15.00000000000000000 0.00000000000000000 -0.00000000000000022 1.00000000000000000 
2 -11.10000000000000142 128.00000000000000000 -0.39999999999997193 0.00000000000000000 1.00000000000000000 0.00000000000000022 0.00000000000000022 -0.00000000000000022 1.00000000000000000 1.00000000000000000 0.00000000000000000 -0.00000000000000022 0.10000000000000003
6 0 1 -11.50000000000000000 128.00000000000000000 -0.39999999999997193  -11.20000000000000107 128.00000000000000000 -0.39999999999997193  
7 0 0  1 2 2  -11.50000000000000178 -128.00000000000000000 -0.40000000000002867  -11.19999999999999929 -128.00000000000000000 -0.40000000000002867 
 0.00000000000000000 2 1.00000000000000000 2
2 -11.10000000000000142 -128.00000000000000000 -0.40000000000002878 0.00000000000000000 1.00000000000000000 0.00000000000000022 0.00000000000000022 -0.00000000000000022 1.00000000000000000 1.00000000000000000 0.00000000000000000 -0.00000000000000022 0.10000000000000003
1 -11.09999999999999964 128.00000000000000000 -0.29999999999997157 0.00000000000000000 -1.00000000000000000 -0.00000000000000022 
6 0 1 -11.50000000000000000 128.00000000000000000 -14.99999999999997158  -11.19999999999999929 128.00000000000000000 -14.99999999999997158  
1 -11.19999999999999929 128.00000000000000000 -14.99999999999997158 0.00000000000000000 -1.00000000000000000 -0.00000000000000022 
6 0 1 -11.50000000000000000 -128.00000000000000000 -15.00000000000002842  -11.19999999999999929 -128.00000000000000000 -15.00000000000002842  
1 -11.19999999999999929 128.00000000000000000 -14.99999999999997158 0.00000000000000000 -0.00000000000000022 1.00000000000000000 
1 -11.19999999999999929 -128.00000000000000000 -15.00000000000002842 0.00000000000000000 -0.00000000000000022 1.00000000000000000 
1 -11.20000000000000107 128.00000000000000000 -0.39999999999997193 -0.00000000000000000 -1.00000000000000000 -0.00000000000000022 
Polygon3D 0
PolygonOnTriangulations 0
Surfaces 35
1 11.50000000000000000 128.00000000000000000 -0.39999999999997149 1.00000000000000000 0.00000000000000000 0.00000000000000000 0.00000000000000000 0.00000000000000022 -1.00000000000000000 -0.00000000000000000 1.00000000000000000 0.00000000000000022 
2 11.10000000000000142 128.00000000000000000 -0.39999999999997149 -0.00000000000000000 1.00000000000000000 0.00000000000000022 0.00000000000000000 -0.00000000000000022 1.00000000000000000 1.00000000000000000 0.00000000000000000 0.00000000000000000 0.40000000000000002
1 11.20000000000000107 128.00000000000000000 -0.39999999999997149 0.00000000000000000 0.00000000000000022 -1.00000000000000000 0.00000000000000000 -1.00000000000000000 -0.00000000000000022 -1.00000000000000000 0.00000000000000000 -0.00000000000000000 
1 11.19999999999999929 128.00000000000000000 -0.39999999999997149 0.00000000000000000 -0.00000000000000022 1.00000000000000000 -0.00000000000000000 1.00000000000000000 0.00000000000000022 -1.00000000000000000 -0.00000000000000000 0.00000000000000000 
1 11.50000000000000000 0.00000000000000000 0.00000000000000000 1.00000000000000000 0.00000000000000000 0.00000000000000000 0.00000000000000000 0.00000000000000022 -1.00000000000000000 -0.00000000000000000 1.00000000000000000 0.00000000000000022 
1 11.19999999999999929 -128.00000000000000000 -0.00000000000002842 -0.00000000000000000 -1.00000000000000000 -0.00000000000000022 -0.00000000000000000 -0.00000000000000022 1.00000000000000000 -1.00000000000000000 0.00000000000000000 0.00000000000000000 
1 11.19999999999999929 128.00000000000000000 0.00000000000002842 0.00000000000000000 1.00000000000000000 0.00000000000000022 0.00000000000000000 0.00000000000000022 -1.00000000000000000 -1.00000000000000000 0.00000000000000000 0.00000000000000000 
1 -11.09999999999999964 128.00000000000000000 0.00000000000002842 0.00000000000000000 -0.00000000000000022 1.00000000000000000 1.00000000000000000 0.00000000000000000 0.00000000000000000 -0.00000000000000000 1.00000000000000000 0.00000000000000022 
1 11.10000000000000320 128.00000000000000000 -0.29999999999997157 1.00000000000000000 -0.00000000000000000 0.00000000000000592 0.00000000000000000 -1.00000000000000000 -0.00000000000000022 0.00000000000000592 0.00000000000000022 -1.00000000000000000 
1 11.10000000000000142 128.00000000000000000 -0.29999999999997146 -1.00000000000000000 0.00000000000000000 -0.00000000000000000 0.00000000000000000 1.00000000000000000 0.00000000000000022 0.00000000000000000 0.00000000000000022 -1.00000000000000000 
2 11.10000000000000142 -256.00000000000000000 -0.40000000000005675 -0.00000000000000000 1.00000000000000000 0.00000000000000022 0.00000000000000000 -0.00000000000000022 1.00000000000000000 1.00000000000000000 0.00000000000000000 0.00000000000000000 0.40000000000000002
9 0 0 0 0 7 1 8 2 2 2 11.49999999999999289 -127.99999999999991473 -0.40000000000002822  11.19999999999999574 -127.99999999999991473 -0.40000000000002800  
11.50000000000007638 -128.00000000000113687 -0.31024020989746465  11.20000000000010942 -128.00000000000113687 -0.37756005247439089  
11.47650044537920877 -127.99999999999728573 -0.22048085400664522  11.19412511134460608 -127.99999999999728573 -0.35512021350167383  
11.42950508888102057 -128.00000000000372324 -0.13810122367084982  11.18237627222053554 -128.00000000000372324 -0.33452530591774599  
11.36189877632913259 -127.99999999999698730 -0.07049491111914440  11.16547469408206084 -127.99999999999698730 -0.31762372777979703  
11.27951914599337080 -128.00000000000147793 -0.02349955462068514  11.14487978649845346 -128.00000000000147793 -0.30587488865519757  
11.18975979010258648 -127.99999999999965894 -0.00000000000002798  11.12243994752561882 -127.99999999999965894 -0.30000000000002691  
11.09999999999999964 -128.00000000000000000 -0.00000000000002828  11.10000000000000320 -128.00000000000000000 -0.30000000000002824  

4.71238898038468967 8
6.28318530717958623 8

0.00000000000000000 2
1.00000000000000000 2

9 0 0 0 0 7 1 8 2 2 2 11.10000000000000142 128.00000000000000000 0.00000000000002853  11.09999999999999964 128.00000000000000000 -0.29999999999997151  
11.18975979010259536 128.00000000000028422 0.00000000000002776  11.12243994752566856 128.00000000000028422 -0.29999999999997234  
11.27951914599323047 127.99999999999843681 -0.02349955462062374  11.14487978649820654 127.99999999999843681 -0.30587488865513013  
11.36189877632947542 128.00000000000292744 -0.07049491111909637  11.16547469408257776 128.00000000000292744 -0.31762372777976045  
11.42950508888059069 127.99999999999720046 -0.13810122367078256  11.18237627221995290 127.99999999999720046 -0.33452530591766755  
11.47650044537952319 128.00000000000159162 -0.22048085400659537  11.19412511134497912 128.00000000000159162 -0.35512021350163020  
11.49999999999994849 127.99999999999954525 -0.31024020989740503  11.19999999999996909 127.99999999999954525 -0.37756005247432944  
11.50000000000000178 128.00000000000000000 -0.39999999999997149  11.19999999999999929 128.00000000000000000 -0.39999999999997154  

0.00000000000000000 8
1.57079632679489656 8

0.00000000000000000 2
1.00000000000000000 2

1 11.19999999999999929 128.00000000000000000 -14.99999999999997158 0.00000000000000000 0.00000000000000022 -1.00000000000000000 0.00000000000000000 -1.00000000000000000 -0.00000000000000022 -1.00000000000000000 0.00000000000000000 -0.00000000000000000 
1 11.19999999999999929 128.00000000000000000 -0.39999999999997149 1.00000000000000000 0.00000000000000000 0.00000000000000000 0.00000000000000000 0.00000000000000022 -1.00000000000000000 -0.00000000000000000 1.00000000000000000 0.00000000000000022 
2 -11.10000000000000142 128.00000000000000000 -0.39999999999997193 0.00000000000000000 1.00000000000000000 0.00000000000000022 0.00000000000000022 -0.00000000000000022 1.00000000000000000 1.00000000000000000 0.00000000000000000 -0.00000000000000022 0.40000000000000002
1 -11.10000000000000142 128.00000000000000000 -0.29999999999997190 1.00000000000000000 0.00000000000000000 -0.00000000000000592 -0.00000000000000000 -1.00000000000000000 -0.00000000000000022 -0.00000000000000592 0.00000000000000022 -1.00000000000000000 
1 -11.09999999999999964 128.00000000000000000 -0.29999999999997157 -1.00000000000000000 0.00000000000000000 -0.00000000000000000 0.00000000000000000 1.00000000000000000 0.00000000000000022 0.00000000000000000 0.00000000000000022 -1.00000000000000000 
1 -11.50000000000000000 0.00000000000000000 0.00000000000000000 0.00000000000000000 -0.00000000000000022 1.00000000000000000 1.00000000000000000 0.00000000000000000 0.00000000000000000 -0.00000000000000000 1.00000000000000000 0.00000000000000022 
1 -11.50000000000000000 -128.00000000000000000 -0.30000000000002841 0.00000000000000000 -1.00000000000000000 0.00000000000000000 -1.00000000000000000 0.00000000000000000 0.00000000000000000 -0.00000000000000000 -0.00000000000000000 -1.00000000000000000 
1 -11.50000000000000000 128.00000000000000000 -0.29999999999997157 -0.00000000000000000 1.00000000000000000 0.00000000000000000 1.00000000000000000 0.00000000000000000 0.00000000000000000 0.00000000000000000 0.00000000000000000 -1.00000000000000000 
2 11.10000000000000142 128.00000000000000000 -0.39999999999997149 -0.00000000000000000 1.00000000000000000 0.00000000000000022 0.00000000000000000 -0.00000000000000022 1.00000000000000000 1.00000000000000000 0.00000000000000000 0.00000000000000000 0.10000000000000003
1 -11.50000000000000000 128.00000000000000000 -14.99999999999997158 -1.00000000000000000 -0.00000000000000000 0.00000000000000000 0.00000000000000000 -0.00000000000000022 1.00000000000000000 0.00000000000000000 1.00000000000000000 0.00000000000000022 
1 -11.19999999999999929 128.00000000000000000 -0.39999999999997193 0.00000000000000000 -0.00000000000000022 1.00000000000000000 0.00000000000000000 -1.00000000000000000 -0.00000000000000022 1.00000000000000000 0.00000000000000000 0.00000000000000000 
1 -11.20000000000000107 128.00000000000000000 -0.39999999999997193 0.00000000000000000 0.00000000000000022 -1.00000000000000000 0.00000000000000000 1.00000000000000000 0.00000000000000022 1.00000000000000000 -0.00000000000000000 0.00000000000000000 
2 -11.09999999999999964 -256.00000000000000000 -0.40000000000005698 0.00000000000000000 1.00000000000000000 0.00000000000000022 -1.00000000000000000 0.00000000000000000 0.00000000000000000 0.00000000000000000 -0.00000000000000022 1.00000000000000000 0.40000000000000002
9 0 0 0 0 7 1 8 2 2 2 -11.10000000000000142 -128.00000000000000000 -0.00000000000002875  -11.09999999999999964 -128.00000000000000000 -0.30000000000002869  
-11.18975979010257760 -128.00000000000028422 -0.00000000000002911  -11.12243994752568099 -128.00000000000028422 -0.30000000000002869  
-11.27951914599327310 -127.99999999999843681 -0.02349955462068228  -11.14487978649815503 -127.99999999999843681 -0.30587488865519114  
-11.36189877632940970 -128.00000000000292744 -0.07049491111915127  -11.16547469408267901 -128.00000000000292744 -0.31762372777981268  
-11.42950508888065286 -127.99999999999720046 -0.13810122367084263  -11.18237627221983743 -127.99999999999720046 -0.33452530591772850  
-11.47650044537948766 -128.00000000000159162 -0.22048085400665038  -11.19412511134505195 -128.00000000000159162 -0.35512021350168632  
-11.49999999999995559 -127.99999999999954525 -0.31024020989746309  -11.19999999999994422 -127.99999999999954525 -0.37756005247438684  
-11.50000000000000178 -128.00000000000000000 -0.40000000000002867  -11.19999999999999929 -128.00000000000000000 -0.40000000000002867  

0.00000000000000000 8
1.57079632679489656 8

0.00000000000000000 2
1.00000000000000000 2

9 0 0 0 0 7 1 8 2 2 2 -11.49999999999999467 127.99999999999991473 -0.39999999999997171  -11.19999999999999574 127.99999999999991473 -0.39999999999997166  
-11.50000000000009770 128.00000000000113687 -0.31024020989740830  -11.20000000000010054 128.00000000000113687 -0.37756005247433322  
-11.47650044537912706 127.99999999999728573 -0.22048085400658812  -11.19412511134460608 127.99999999999728573 -0.35512021350162160  
-11.42950508888115024 128.00000000000372324 -0.13810122367079469  -11.18237627222056929 128.00000000000372324 -0.33452530591768326  
-11.36189877632900824 127.99999999999698730 -0.07049491111908625  -11.16547469408199689 127.99999999999698730 -0.31762372777974651  
-11.27951914599344185 128.00000000000147793 -0.02349955462062978  -11.14487978649850497 128.00000000000147793 -0.30587488865513773  
-11.18975979010256339 127.99999999999965894 0.00000000000002872  -11.12243994752560106 127.99999999999965894 -0.29999999999997184  
-11.10000000000000142 128.00000000000000000 0.00000000000002809  -11.10000000000000320 128.00000000000000000 -0.29999999999997196  

4.71238898038468967 8
6.28318530717958623 8

0.00000000000000000 2
1.00000000000000000 2

1 -11.09999999999999964 128.00000000000000000 -0.29999999999997157 0.00000000000000000 -0.00000000000000022 1.00000000000000000 1.00000000000000000 0.00000000000000000 0.00000000000000000 -0.00000000000000000 1.00000000000000000 0.00000000000000022 
1 -11.50000000000000000 0.00000000000000333 -15.00000000000000000 -1.00000000000000000 -0.00000000000000000 0.00000000000000000 0.00000000000000000 -0.00000000000000022 1.00000000000000000 0.00000000000000000 1.00000000000000000 0.00000000000000022 
1 -11.19999999999999929 -128.00000000000000000 -15.00000000000002842 0.00000000000000000 -1.00000000000000000 -0.00000000000000022 -0.00000000000000000 0.00000000000000022 -1.00000000000000000 1.00000000000000000 0.00000000000000000 0.00000000000000000 
1 -11.19999999999999929 128.00000000000000000 -14.99999999999997158 -0.00000000000000000 1.00000000000000000 0.00000000000000022 0.00000000000000000 -0.00000000000000022 1.00000000000000000 1.00000000000000000 0.00000000000000000 0.00000000000000000 
2 -11.10000000000000142 128.00000000000000000 -0.39999999999997193 0.00000000000000000 1.00000000000000000 0.00000000000000022 0.00000000000000022 -0.00000000000000022 1.00000000000000000 1.00000000000000000 0.00000000000000000 -0.00000000000000022 0.10000000000000003
1 -11.19999999999999929 128.00000000000000000 -14.99999999999997158 0.00000000000000000 0.00000000000000022 -1.00000000000000000 0.00000000000000000 1.00000000000000000 0.00000000000000022 1.00000000000000000 -0.00000000000000000 0.00000000000000000 
1 -11.19999999999999929 128.00000000000000000 -14.99999999999997158 -1.00000000000000000 -0.00000000000000000 0.00000000000000000 0.00000000000000000 -0.00000000000000022 1.00000000000000000 0.00000000000000000 1.00000000000000000 0.00000000000000022 
Triangulations 0

TShapes 104
Ve
0.001000000000000
11.500000000000000 0.000000000000000 -0.400000000000000
0 0

0101101
*
Ed
 0.001000000000000 1 1 0
1  1 0 0.000000000000000 256.000000000000000
2  1 2 0 0.000000000000000 256.000000000000000
4 G1 1 0 2 0
2  2 3 0 0.000000000000000 256.000000000000000
2  3 4 0 0.000000000000000 256.000000000000000
2  4 1 0 0.000000000000000 256.000000000000000
0

0101000
+104 2 -104 4 *
Ve
0.001000000000000
11.500000000000000 0.000000000000003 -15.000000000000000
0 0

0101101
*
Ed
 0.001000000000000 1 1 0
1  2 0 0.000000000000000 256.000000000000000
2  5 1 0 0.000000000000000 256.000000000000000
0

0101000
+102 2 -102 4 *
Ed
 0.001000000000000 1 1 0
2  6 5 0 0.400000000000000 15.000000000000000
1  3 0 0.400000000000000 15.000000000000000
2  7 6 5 0.400000000000000 15.000000000000000
2  8 7 6 0.400000000000000 15.000000000000000
2  9 1 6 0.400000000000000 15.000000000000000
2  10 1 5 0.400000000000000 15.000000000000000
0

0101000
+104 0 -102 0 *
Wi

0101100
+103 0 -101 0 -100 2 +100 4 *
Fa
0  0.001000000000000 1 0

0101000
+99 0 *
Ve
0.001000000000000
11.100000000000001 0.000000000000000 0.000000000000000
0 0

0101101
*
Ed
 0.001000000000000 1 1 0
1  4 0 0.000000000000000 256.000000000000000
2  11 2 0 0.000000000000000 256.000000000000000
4 G1 2 0 8 0
2  12 9 0 0.000000000000000 256.000000000000000
2  13 10 0 0.000000000000000 256.000000000000000
2  14 8 0 0.000000000000000 256.000000000000000
0

0101000
+97 2 -97 4 *
Ed
 0.000000100000000 1 1 0
2  15 11 0 0.000000000000000 1.570796326794897
1  5 0 0.000000000000000 1.570796326794897
2  16 2 6 0.000000000000000 1.570796326794897
2  17 2 5 0.000000000000000 1.570796326794897
2  18 12 5 0.000000000000000 1.570796326794897
2  19 13 6 0.000000000000000 1.570796326794897
0

0101000
+97 0 -104 0 *
Wi

0101100
+96 0 -103 0 -95 2 +95 4 *
Fa
0  0.000000100000000 2 0

0101000
+94 0 *
Ve
0.001000000000000
11.199999999999999 -128.000000000000000 -15.000000000000028
0 0

0101101
*
Ed
 0.000000100000000 1 1 0
1  6 0 0.000000000000000 1.000000000000000
4 C0 14 0 6 0
2  20 6 0 0.000000000000000 1.000000000000000
0

0101000
+102 4 -92 0 *
Ve
0.001000000000000
11.199999999999999 128.000000000000000 -14.999999999999972
0 0

0101101
*
Ed
 0.001000000000000 1 1 0
2  21 15 0 0.000000000000000 256.000000000000000
1  7 0 0.000000000000000 256.000000000000000
0

0101000
+90 0 -92 0 *
Ed
 0.000000100000000 1 1 0
1  8 0 0.000000000000000 1.000000000000000
4 C0 14 0 7 0
2  22 7 0 0.000000000000000 1.000000000000000
0

0101000
+102 2 -90 0 *
Wi

0101000
+101 0 +91 0 -89 0 -88 0 *
Fa
0  0.000000100000000 14 0

0101000
+87 0 *
Ve
0.001000000000000
11.199999999999999 128.000000000000000 -0.399999999999971
0 0

0101101
*
Ed
 0.001000000000000 1 1 0
2  23 15 0 0.400000000000000 15.000000000000000
1  9 0 0.400000000000000 15.000000000000000
2  24 7 0 0.400000000000000 15.000000000000000
0

0101000
+85 0 -90 0 *
Ed
 0.000000100000002 1 1 0
1  10 0 0.000000000000000 1.000000000000000
4 C0 4 0 7 0
2  25 4 0 0.000000000000000 1.000000000000000
2  26 7 0 0.000000000000000 1.000000000000000
2  27 13 0 0.000000000000000 1.000000000000000
0

0101000
+104 2 -85 0 *
Wi

0101100
+100 2 +88 0 -84 0 -83 0 *
Fa
0  0.000000100000000 7 0

0101000
+82 0 *
Ve
0.001000000000000
11.199999999999999 -128.000000000000000 -0.400000000000028
0 0

0101101
*
Ed
 0.000000100000002 1 1 0
1  11 0 0.000000000000000 1.000000000000000
4 C0 6 0 4 0
2  28 6 0 0.000000000000000 1.000000000000000
2  29 4 0 0.000000000000000 1.000000000000000
2  30 12 0 0.000000000000000 1.000000000000000
0

0101000
+104 4 -80 0 *
Ed
 0.001000000000000 1 1 0
2  31 15 0 0.400000000000000 15.000000000000000
1  12 0 0.400000000000000 15.000000000000000
2  32 6 0 0.400000000000000 15.000000000000000
0

0101000
+80 0 -92 0 *
Wi

0101100
-100 4 +79 0 +78 0 -91 0 *
Fa
0  0.000000100000000 6 0

0101000
+77 0 *
Ve
0.001000000000000
-11.100000000000000 0.000000000000000 0.000000000000000
0 0

0101101
*
Ed
 0.001000000000000 1 1 0
1  13 0 0.000000000000000 256.000000000000000
2  33 16 0 0.000000000000000 256.000000000000000
4 G1 8 0 16 0
2  34 17 0 0.000000000000000 256.000000000000000
2  35 18 0 0.000000000000000 256.000000000000000
2  36 8 0 0.000000000000000 256.000000000000000
0

0101000
+75 2 -75 4 *
Ed
 0.001000000000000 1 1 0
2  37 19 0 0.400000000000000 22.600000000000001
1  14 0 0.400000000000000 22.600000000000001
2  38 20 5 0.400000000000000 22.600000000000001
2  39 21 6 0.400000000000000 22.600000000000001
2  40 8 6 0.400000000000000 22.600000000000001
2  41 8 5 0.400000000000000 22.600000000000001
0

0101000
+75 0 -97 0 *
Wi

0101100
+74 0 -96 0 -73 2 +73 4 *
Fa
0  0.001000000000000 8 0

0101000
+72 0 *
Ve
0.001000000000001
11.100000000000001 128.000000000000000 -0.299999999999972
0 0

0101101
*
Ed
 0.000000100000000 1 1 0
2  16 22 0 0.000000000000000 1.570796326794897
1  15 0 0.000000000000000 1.570796326794897
2  42 13 0 0.000000000000000 1.570796326794897
0

0101000
+70 0 -85 0 *
Ed
 0.000000100000002 1 1 0
1  16 0 0.000000000000000 1.000000000000000
2  43 13 0 0.000000000000000 1.000000000000000
4 C0 10 0 13 0
2  44 10 0 0.000000000000000 1.000000000000000
0

0101000
+97 2 -70 0 *
Wi

0101100
+95 2 +83 0 -69 0 -68 0 *
Fa
0  0.000000100000000 13 0

0101000
+67 0 *
Ve
0.001000000000001
11.100000000000001 -128.000000000000000 -0.300000000000028
0 0

0101101
*
Ed
 0.000000100000002 1 1 0
1  17 0 0.000000000000000 1.000000000000000
2  45 12 0 0.000000000000000 1.000000000000000
4 C0 12 0 10 0
2  46 10 0 0.000000000000000 1.000000000000000
0

0101000
+97 4 -65 0 *
Ed
 0.000000100000000 1 1 0
2  17 22 0 0.000000000000000 1.570796326794897
1  18 0 0.000000000000000 1.570796326794897
2  47 12 0 0.000000000000000 1.570796326794897
0

0101000
+65 0 -80 0 *
Wi

0101100
-95 4 +64 0 +63 0 -79 0 *
Fa
0  0.000000100000000 12 0

0101000
+62 0 *
Ed
 0.001000000000000 1 1 0
2  48 15 0 0.000000000000000 256.000000000000000
1  19 0 0.000000000000000 256.000000000000000
2  49 4 0 0.000000000000000 256.000000000000000
2  50 22 0 0.000000000000000 256.000000000000000
0

0101000
+85 0 -80 0 *
Wi

0101100
+60 0 -89 0 -84 0 +78 0 *
Fa
0  0.001000000000000 15 0

0101000
+59 0 *
Ve
0.001000000000000
-11.500000000000000 0.000000000000000 -0.400000000000000
0 0

0101101
*
Ed
 0.001000000000000 1 1 0
1  20 0 0.000000000000000 256.000000000000000
2  51 16 0 0.000000000000000 256.000000000000000
4 G1 16 0 23 0
2  52 24 0 0.000000000000000 256.000000000000000
2  53 25 0 0.000000000000000 256.000000000000000
2  54 23 0 0.000000000000000 256.000000000000000
0

0101000
+57 2 -57 4 *
Ed
 0.000000100000003 1 1 0
2  55 26 0 4.712388980384690 6.283185307179586
1  21 0 4.712388980384690 6.283185307179586
2  56 16 6 4.712388980384690 6.283185307179586
2  57 16 5 4.712388980384690 6.283185307179586
2  58 27 5 4.712388980384690 6.283185307179586
2  59 28 6 4.712388980384690 6.283185307179586
0

0101000
+57 0 -75 0 *
Wi

0101100
+56 0 -74 0 -55 2 +55 4 *
Fa
0  0.000000100000003 16 0

0101000
+54 0 *
Ve
0.001000000000000
-11.100000000000000 128.000000000000000 -0.299999999999972
0 0

0101101
*
Ed
 0.001000000000000 1 1 0
2  60 29 0 0.400000000000000 22.600000000000001
1  22 0 0.400000000000000 22.600000000000001
2  61 21 0 0.400000000000000 22.600000000000001
0

0101000
+52 0 -70 0 *
Ed
 0.000000100000002 1 1 0
1  23 0 0.000000000000000 1.000000000000000
4 C0 18 0 21 0
2  62 21 0 0.000000000000000 1.000000000000000
2  63 18 0 0.000000000000000 1.000000000000000
2  64 28 0 0.000000000000000 1.000000000000000
0

0101000
+75 2 -52 0 *
Wi

0101100
+73 2 +68 0 -51 0 -50 0 *
Fa
0  0.000000100000000 21 0

0101000
+49 0 *
Ve
0.001000000000000
-11.100000000000000 -128.000000000000000 -0.300000000000028
0 0

0101101
*
Ed
 0.000000100000002 1 1 0
1  24 0 0.000000000000000 1.000000000000000
4 C0 20 0 18 0
2  65 20 0 0.000000000000000 1.000000000000000
2  66 18 0 0.000000000000000 1.000000000000000
2  67 27 0 0.000000000000000 1.000000000000000
0

0101000
+75 4 -47 0 *
Ed
 0.001000000000000 1 1 0
2  68 29 0 0.400000000000000 22.600000000000001
1  25 0 0.400000000000000 22.600000000000001
2  69 20 0 0.400000000000000 22.600000000000001
0

0101000
+47 0 -65 0 *
Wi

0101100
-73 4 +46 0 +45 0 -64 0 *
Fa
0  0.000000100000000 20 0

0101000
+44 0 *
Ed
 0.001000000000000 1 1 0
2  11 22 0 0.000000000000000 256.000000000000000
1  26 0 0.000000000000000 256.000000000000000
2  70 10 0 0.000000000000000 256.000000000000000
0

0101000
+70 0 -65 0 *
Wi

0101100
+42 0 -60 0 -69 0 +63 0 *
Fa
0  0.000000100000000 22 0

0101000
+41 0 *
Ve
0.001000000000000
-11.500000000000000 0.000000000000003 -15.000000000000000
0 0

0101101
*
Ed
 0.001000000000000 1 1 0
1  27 0 0.000000000000000 256.000000000000000
2  71 23 0 0.000000000000000 256.000000000000000
0

0101000
+39 2 -39 4 *
Ed
 0.001000000000000 1 1 0
2  72 30 0 0.000000000000000 14.600000000000000
1  28 0 0.000000000000000 14.600000000000000
2  73 31 5 0.000000000000000 14.600000000000000
2  74 32 6 0.000000000000000 14.600000000000000
2  75 23 6 0.000000000000000 14.600000000000000
2  76 23 5 0.000000000000000 14.600000000000000
0

0101000
+39 0 -57 0 *
Wi

0101100
+38 0 -56 0 -37 2 +37 4 *
Fa
0  0.001000000000000 23 0

0101000
+36 0 *
Ve
0.001000000000001
-11.199999999999999 128.000000000000000 -0.399999999999972
0 0

0101101
*
Ed
 0.000000100000003 1 1 0
2  56 33 0 4.712388980384690 6.283185307179586
1  29 0 4.712388980384690 6.283185307179586
2  77 28 0 4.712388980384690 6.283185307179586
0

0101000
+34 0 -52 0 *
Ed
 0.000000100000000 1 1 0
1  30 0 0.000000000000000 1.000000000000000
2  78 28 0 0.000000000000000 1.000000000000000
4 C0 25 0 28 0
2  79 25 0 0.000000000000000 1.000000000000000
0

0101000
+57 2 -34 0 *
Wi

0101100
+55 2 +50 0 -33 0 -32 0 *
Fa
0  0.000000100000000 28 0

0101000
+31 0 *
Ve
0.001000000000001
-11.199999999999999 -128.000000000000000 -0.400000000000029
0 0

0101101
*
Ed
 0.000000100000000 1 1 0
1  31 0 0.000000000000000 1.000000000000000
2  80 27 0 0.000000000000000 1.000000000000000
4 C0 27 0 25 0
2  81 25 0 0.000000000000000 1.000000000000000
0

0101000
+57 4 -29 0 *
Ed
 0.000000100000003 1 1 0
2  57 33 0 4.712388980384690 6.283185307179586
1  32 0 4.712388980384690 6.283185307179586
2  82 27 0 4.712388980384690 6.283185307179586
0

0101000
+29 0 -47 0 *
Wi

0101100
-55 4 +28 0 +27 0 -46 0 *
Fa
0  0.000000100000000 27 0

0101000
+26 0 *
Ed
 0.001000000000000 1 1 0
2  83 29 0 0.000000000000000 256.000000000000000
1  33 0 0.000000000000000 256.000000000000000
2  84 18 0 0.000000000000000 256.000000000000000
2  85 33 0 0.000000000000000 256.000000000000000
0

0101000
+52 0 -47 0 *
Wi

0101100
+24 0 -42 0 -51 0 +45 0 *
Fa
0  0.001000000000000 29 0

0101000
+23 0 *
Ve
0.001000000000000
-11.199999999999999 128.000000000000000 -14.999999999999972
0 0

0101101
*
Ed
 0.000000100000000 1 1 0
1  34 0 0.000000000000000 1.000000000000000
4 C0 34 0 32 0
2  86 32 0 0.000000000000000 1.000000000000000
0

0101000
+39 2 -21 0 *
Ve
0.001000000000000
-11.199999999999999 -128.000000000000000 -15.000000000000028
0 0

0101101
*
Ed
 0.001000000000000 1 1 0
2  87 35 0 0.000000000000000 256.000000000000000
1  35 0 0.000000000000000 256.000000000000000
0

0101000
+21 0 -19 0 *
Ed
 0.000000100000000 1 1 0
1  36 0 0.000000000000000 1.000000000000000
4 C0 31 0 34 0
2  88 31 0 0.000000000000000 1.000000000000000
0

0101000
+39 4 -19 0 *
Wi

0101000
-38 0 +20 0 +18 0 -17 0 *
Fa
0  0.000000100000000 34 0

0101000
+16 0 *
Ed
 0.001000000000000 1 1 0
2  89 35 0 0.000000000000000 14.600000000000000
1  37 0 0.000000000000000 14.600000000000000
2  90 32 0 0.000000000000000 14.600000000000000
0

0101000
+21 0 -34 0 *
Wi

0101100
+37 2 +32 0 -14 0 -20 0 *
Fa
0  0.000000100000000 32 0

0101000
+13 0 *
Ed
 0.001000000000000 1 1 0
2  91 35 0 0.000000000000000 14.600000000000000
1  38 0 0.000000000000000 14.600000000000000
2  92 31 0 0.000000000000000 14.600000000000000
0

0101000
+19 0 -29 0 *
Wi

0101100
-37 4 +17 0 +11 0 -28 0 *
Fa
0  0.000000100000000 31 0

0101000
+10 0 *
Ed
 0.001000000000000 1 1 0
2  51 33 0 0.000000000000000 256.000000000000000
1  39 0 0.000000000000000 256.000000000000000
2  93 25 0 0.000000000000000 256.000000000000000
2  94 35 0 0.000000000000000 256.000000000000000
0

0101000
+34 0 -29 0 *
Wi

0101100
+8 0 -24 0 -33 0 +27 0 *
Fa
0  0.000000100000003 33 0

0101000
+7 0 *
Wi

0101100
+18 0 -8 0 -14 0 +11 0 *
Fa
0  0.001000000000000 35 0

0101000
+5 0 *
Sh

0101100
+98 0 +93 0 +86 0 +81 0 +76 0 +71 0 +66 0 +61 0 -58 0 +53 0 
+48 0 +43 0 -40 0 +35 0 +30 0 +25 0 -22 0 +15 0 +12 0 +9 0 
-6 0 -4 0 *
So

0100000
+3 0 *
Co

1100000
+2 0 *

+1 1 