
CASCADE Topology V1, (c) Matra-Datavision
Locations 40
1
1.000000000000000 0.000000000000000 0.000000000000000 0.000000000000000 
0.000000000000000 1.000000000000000 0.000000000000000 0.000000000000000 
0.000000000000000 0.000000000000000 1.000000000000000 0.000000000000000 
1
0.000000000000000 -0.000000000000000 1.000000000000000 -0.000000000000001 
1.000000000000000 0.000000000000000 -0.000000000000000 -3.396366588218791 
-0.000000000000000 1.000000000000000 0.000000000000000 0.000000000000001 
1
1.000000000000000 0.000000000000000 0.000000000000000 0.000000000000000 
0.000000000000000 1.000000000000000 0.000000000000000 0.000000000000000 
0.000000000000000 0.000000000000000 1.000000000000000 0.000000000000000 
1
1.000000000000000 0.000000000000000 0.000000000000000 1489.657981896234332 
0.000000000000000 1.000000000000000 0.000000000000000 -0.000000000000331 
0.000000000000000 0.000000000000000 1.000000000000000 0.000000000000413 
2  1 1 2 1 3 -1 4 1 0
1
1.000000000000000 0.000000000000000 0.000000000000000 -2979.315963792468665 
0.000000000000000 1.000000000000000 0.000000000000000 0.000000000000662 
0.000000000000000 0.000000000000000 1.000000000000000 -0.000000000000827 
2  1 1 2 1 3 -1 4 1 6 1 0
1
1.000000000000000 0.000000000000000 0.000000000000000 1489.657981896234332 
0.000000000000000 1.000000000000000 0.000000000000000 -0.000000000000331 
0.000000000000000 0.000000000000000 1.000000000000000 0.000000000000413 
1
1.000000000000000 0.000000000000000 0.000000000000000 0.000000000000000 
0.000000000000000 1.000000000000000 0.000000000000000 0.000000000000000 
0.000000000000000 0.000000000000000 1.000000000000000 0.000000000000000 
1
0.000000000000000 -0.000000000000000 1.000000000000000 -0.000000000000001 
1.000000000000000 0.000000000000000 -0.000000000000000 -3.396366588218791 
-0.000000000000000 1.000000000000000 0.000000000000000 0.000000000000001 
1
1.000000000000000 0.000000000000000 0.000000000000000 0.000000000000000 
0.000000000000000 1.000000000000000 0.000000000000000 0.000000000000000 
0.000000000000000 0.000000000000000 1.000000000000000 0.000000000000000 
2  8 -1 9 1 10 -1 11 -1 0
1
1.000000000000000 0.000000000000000 0.000000000000000 -2979.315963792468665 
0.000000000000000 1.000000000000000 0.000000000000000 0.000000000000662 
0.000000000000000 0.000000000000000 1.000000000000000 -0.000000000000827 
2  13 -1 8 -1 9 1 10 -1 11 -1 0
1
1.000000000000000 0.000000000000000 0.000000000000000 1489.657981896234332 
0.000000000000000 1.000000000000000 0.000000000000000 -0.000000000000331 
0.000000000000000 0.000000000000000 1.000000000000000 0.000000000000413 
1
1.000000000000000 0.000000000000000 0.000000000000000 0.000000000000000 
0.000000000000000 1.000000000000000 0.000000000000000 0.000000000000000 
0.000000000000000 0.000000000000000 1.000000000000000 0.000000000000000 
1
0.000000000000000 -0.000000000000000 1.000000000000000 -0.000000000000001 
1.000000000000000 0.000000000000000 -0.000000000000000 -3.396366588218791 
-0.000000000000000 1.000000000000000 0.000000000000000 0.000000000000001 
1
1.000000000000000 0.000000000000000 0.000000000000000 0.000000000000000 
0.000000000000000 1.000000000000000 0.000000000000000 0.000000000000000 
0.000000000000000 0.000000000000000 1.000000000000000 0.000000000000000 
2  15 -1 16 1 17 -1 18 -1 0
1
1.000000000000000 0.000000000000000 0.000000000000000 -2979.315963792468665 
0.000000000000000 1.000000000000000 0.000000000000000 0.000000000000662 
0.000000000000000 0.000000000000000 1.000000000000000 -0.000000000000827 
2  20 -1 15 -1 16 1 17 -1 18 -1 0
1
1.000000000000000 0.000000000000000 0.000000000000000 1489.657981896234332 
0.000000000000000 1.000000000000000 0.000000000000000 -0.000000000000331 
0.000000000000000 0.000000000000000 1.000000000000000 0.000000000000413 
1
1.000000000000000 0.000000000000000 0.000000000000000 0.000000000000000 
0.000000000000000 1.000000000000000 0.000000000000000 0.000000000000000 
0.000000000000000 0.000000000000000 1.000000000000000 0.000000000000000 
1
0.000000000000000 -0.000000000000000 1.000000000000000 -0.000000000000001 
1.000000000000000 0.000000000000000 -0.000000000000000 -3.396366588218791 
-0.000000000000000 1.000000000000000 0.000000000000000 0.000000000000001 
1
1.000000000000000 0.000000000000000 0.000000000000000 0.000000000000000 
0.000000000000000 1.000000000000000 0.000000000000000 0.000000000000000 
0.000000000000000 0.000000000000000 1.000000000000000 0.000000000000000 
2  22 -1 23 1 24 -1 25 -1 0
1
1.000000000000000 0.000000000000000 0.000000000000000 -2979.315963792468665 
0.000000000000000 1.000000000000000 0.000000000000000 0.000000000000662 
0.000000000000000 0.000000000000000 1.000000000000000 -0.000000000000827 
2  27 -1 22 -1 23 1 24 -1 25 -1 0
1
1.000000000000000 0.000000000000000 0.000000000000000 1489.657981896234332 
0.000000000000000 1.000000000000000 0.000000000000000 -0.000000000000331 
0.000000000000000 0.000000000000000 1.000000000000000 0.000000000000413 
1
1.000000000000000 0.000000000000000 0.000000000000000 0.000000000000000 
0.000000000000000 1.000000000000000 0.000000000000000 0.000000000000000 
0.000000000000000 0.000000000000000 1.000000000000000 0.000000000000000 
1
0.000000000000000 -0.000000000000000 1.000000000000000 -0.000000000000001 
1.000000000000000 0.000000000000000 -0.000000000000000 -3.396366588218791 
-0.000000000000000 1.000000000000000 0.000000000000000 0.000000000000001 
1
1.000000000000000 0.000000000000000 0.000000000000000 0.000000000000000 
0.000000000000000 1.000000000000000 0.000000000000000 0.000000000000000 
0.000000000000000 0.000000000000000 1.000000000000000 0.000000000000000 
2  29 -1 30 1 31 -1 32 -1 0
1
1.000000000000000 0.000000000000000 0.000000000000000 -2979.315963792468665 
0.000000000000000 1.000000000000000 0.000000000000000 0.000000000000662 
0.000000000000000 0.000000000000000 1.000000000000000 -0.000000000000827 
2  34 -1 29 -1 30 1 31 -1 32 -1 0
2  4 -1 3 1 2 -1 1 -1 0
2  6 -1 4 -1 3 1 2 -1 1 -1 0
2  3 -1 4 1 0
2  1 1 2 1 0
2  3 -1 4 1 6 1 0
Curve2ds 72
1 516.00000000000000000 0.00000000000011280 0.00000000000000006 -1.00000000000000000 
1 0.00000000000000000 0.00000000000000000 -0.00000000000000000 -1.00000000000000000 
1 18.00000000000000000 0.00000000000000400 -0.00000000000000000 -1.00000000000000000 
1 0.00000000000000000 0.00000000000000000 1.00000000000000000 0.00000000000000000 
1 -0.00000000000000015 -2979.31596379246866491 1.00000000000000000 0.00000000000000000 
1 0.00000000000000000 0.00000000000000000 1.00000000000000000 0.00000000000000000 
1 -0.00000000000000015 -2979.31596379246866491 1.00000000000000000 0.00000000000000000 
1 0.00000000000000000 0.00000000000000000 1.00000000000000000 0.00000000000000000 
1 -0.00000000000000015 -2979.31596379246866491 1.00000000000000000 0.00000000000000000 
1 0.00000000000000000 0.00000000000000000 1.00000000000000000 0.00000000000000000 
1 -0.00000000000000015 -2979.31596379246866491 1.00000000000000000 0.00000000000000000 
1 0.00000000000000000 0.00000000000000000 1.00000000000000000 0.00000000000000000 
1 -0.00000000000000015 -2979.31596379246866491 1.00000000000000000 0.00000000000000000 
1 0.00000000000000000 0.00000000000000000 0.00000000000000000 -1.00000000000000000 
1 0.00000000000000000 0.00000000000000000 0.00000000000000006 -1.00000000000000000 
1 18.00000000000000000 -0.00000000000000400 0.00000000000000000 -1.00000000000000000 
1 0.00000000000000000 0.00000000000000000 1.00000000000000000 -0.00000000000000000 
1 -0.00000000000000074 -2979.31596379246866491 1.00000000000000000 -0.00000000000000000 
1 0.00000000000000000 0.00000000000000000 1.00000000000000000 -0.00000000000000000 
1 -0.00000000000000074 -2979.31596379246866491 1.00000000000000000 -0.00000000000000000 
1 0.00000000000000000 0.00000000000000000 1.00000000000000000 -0.00000000000000000 
1 -0.00000000000000074 -2979.31596379246866491 1.00000000000000000 -0.00000000000000000 
1 0.00000000000000000 0.00000000000000000 1.00000000000000000 -0.00000000000000000 
1 -0.00000000000000074 -2979.31596379246866491 1.00000000000000000 -0.00000000000000000 
1 0.00000000000000000 0.00000000000000000 1.00000000000000000 -0.00000000000000000 
1 -0.00000000000000074 -2979.31596379246866491 1.00000000000000000 -0.00000000000000000 
1 0.00000000000000000 0.00000000000000000 1.00000000000000000 0.00000000000000000 
1 0.00000000000024795 -2979.31596379246866491 1.00000000000000000 0.00000000000000000 
1 0.00000000000000000 0.00000000000000000 1.00000000000000000 0.00000000000000000 
1 0.00000000000024795 -2979.31596379246866491 1.00000000000000000 0.00000000000000000 
1 0.00000000000000000 0.00000000000000000 1.00000000000000000 0.00000000000000000 
1 0.00000000000024795 -2979.31596379246866491 1.00000000000000000 0.00000000000000000 
1 0.00000000000000000 0.00000000000000000 1.00000000000000000 0.00000000000000000 
1 0.00000000000024795 -2979.31596379246866491 1.00000000000000000 0.00000000000000000 
1 0.00000000000000000 0.00000000000000000 1.00000000000000000 0.00000000000000000 
1 0.00000000000024795 -2979.31596379246866491 1.00000000000000000 0.00000000000000000 
1 70.00000000000000000 -0.00000000000001554 0.00000000000000006 -1.00000000000000000 
1 0.00000000000000000 0.00000000000000000 -0.00000000000000000 -1.00000000000000000 
1 18.00000000000000000 0.00000000000000400 -0.00000000000000000 -1.00000000000000000 
1 0.00000000000000000 0.00000000000000000 1.00000000000000000 0.00000000000000000 
1 -0.00000000000000015 -2979.31596379246866491 1.00000000000000000 0.00000000000000000 
1 0.00000000000000000 0.00000000000000000 1.00000000000000000 0.00000000000000000 
1 -0.00000000000000015 -2979.31596379246866491 1.00000000000000000 0.00000000000000000 
1 0.00000000000000000 0.00000000000000000 1.00000000000000000 0.00000000000000000 
1 -0.00000000000000015 -2979.31596379246866491 1.00000000000000000 0.00000000000000000 
1 0.00000000000000000 0.00000000000000000 1.00000000000000000 0.00000000000000000 
1 -0.00000000000000015 -2979.31596379246866491 1.00000000000000000 0.00000000000000000 
1 0.00000000000000000 0.00000000000000000 1.00000000000000000 0.00000000000000000 
1 -0.00000000000000015 -2979.31596379246866491 1.00000000000000000 0.00000000000000000 
1 0.00000000000000000 0.00000000000000000 0.00000000000000000 -1.00000000000000000 
1 0.00000000000000000 0.00000000000000000 0.00000000000000006 -1.00000000000000000 
1 18.00000000000000000 -0.00000000000000400 0.00000000000000000 -1.00000000000000000 
1 0.00000000000000000 0.00000000000000000 1.00000000000000000 -0.00000000000000000 
1 -0.00000000000000074 -2979.31596379246866491 1.00000000000000000 -0.00000000000000000 
1 0.00000000000000000 0.00000000000000000 1.00000000000000000 -0.00000000000000000 
1 -0.00000000000000074 -2979.31596379246866491 1.00000000000000000 -0.00000000000000000 
1 0.00000000000000000 0.00000000000000000 1.00000000000000000 -0.00000000000000000 
1 -0.00000000000000074 -2979.31596379246866491 1.00000000000000000 -0.00000000000000000 
1 0.00000000000000000 0.00000000000000000 1.00000000000000000 -0.00000000000000000 
1 -0.00000000000000074 -2979.31596379246866491 1.00000000000000000 -0.00000000000000000 
1 0.00000000000000000 0.00000000000000000 1.00000000000000000 -0.00000000000000000 
1 -0.00000000000000074 -2979.31596379246866491 1.00000000000000000 -0.00000000000000000 
1 0.00000000000000000 0.00000000000000000 1.00000000000000000 0.00000000000000000 
1 0.00000000000024795 -2979.31596379246866491 1.00000000000000000 0.00000000000000000 
1 0.00000000000000000 0.00000000000000000 1.00000000000000000 0.00000000000000000 
1 0.00000000000024795 -2979.31596379246866491 1.00000000000000000 0.00000000000000000 
1 0.00000000000000000 0.00000000000000000 1.00000000000000000 0.00000000000000000 
1 0.00000000000024795 -2979.31596379246866491 1.00000000000000000 0.00000000000000000 
1 0.00000000000000000 0.00000000000000000 1.00000000000000000 0.00000000000000000 
1 0.00000000000024795 -2979.31596379246866491 1.00000000000000000 0.00000000000000000 
1 0.00000000000000000 0.00000000000000000 1.00000000000000000 0.00000000000000000 
1 0.00000000000024795 -2979.31596379246866491 1.00000000000000000 0.00000000000000000 
Curves 16
1 1489.65798189623433245 -3.39636658821912141 0.00000000000041422 -1.00000000000000000 0.00000000000000022 -0.00000000000000028 
1 1489.65798189623433245 -21.39636658821912008 0.00000000000041821 -1.00000000000000000 0.00000000000000022 -0.00000000000000028 
1 0.00000000000000000 0.00000000000000000 0.00000000000000000 -1.00000000000000000 0.00000000000000000 0.00000000000000000 
1 1489.65798189623410508 -21.39636658821900639 516.00000000000045475 -1.00000000000000000 0.00000000000000022 -0.00000000000000028 
1 -18.00000000000000000 0.00000000000000000 0.00000000000000000 0.00000000000000000 1.00000000000000000 0.00000000000000000 
1 1489.65798189623410508 -3.39636658821900683 516.00000000000045475 -1.00000000000000000 0.00000000000000022 -0.00000000000000028 
1 -18.00000000000000000 516.00000000000000000 0.00000000000000000 1.00000000000000000 0.00000000000000000 0.00000000000000000 
1 0.00000000000000000 516.00000000000000000 0.00000000000000000 0.00000000000000000 -1.00000000000000000 0.00000000000000000 
1 1489.65798189623410508 -3.39636658821881987 1358.00000000000045475 -1.00000000000000000 0.00000000000000022 -0.00000000000000028 
1 1489.65798189623410508 -21.39636658821881809 1358.00000000000045475 -1.00000000000000000 0.00000000000000022 -0.00000000000000028 
1 0.00000000000000000 1358.00000000000000000 0.00000000000000000 -1.00000000000000000 0.00000000000000000 0.00000000000000000 
1 1489.65798189623410508 -21.39636658821880388 1428.00000000000045475 -1.00000000000000000 0.00000000000000022 -0.00000000000000028 
1 -18.00000000000000000 1358.00000000000000000 0.00000000000000000 0.00000000000000000 1.00000000000000000 0.00000000000000000 
1 1489.65798189623410508 -3.39636658821880433 1428.00000000000045475 -1.00000000000000000 0.00000000000000022 -0.00000000000000028 
1 -18.00000000000000000 1428.00000000000000000 0.00000000000000000 1.00000000000000000 0.00000000000000000 0.00000000000000000 
1 0.00000000000000000 1428.00000000000000000 0.00000000000000000 0.00000000000000000 -1.00000000000000000 0.00000000000000000 
Polygon3D 0
PolygonOnTriangulations 0
Surfaces 34
1 1489.65798189623433245 -3.39636658821912141 0.00000000000041422 -0.00000000000000028 0.00000000000000022 1.00000000000000000 -0.00000000000000022 -1.00000000000000000 0.00000000000000022 1.00000000000000000 -0.00000000000000022 0.00000000000000028 
1 1489.65798189623410508 -3.39636658821900683 516.00000000000045475 -0.00000000000000022 -1.00000000000000000 0.00000000000000022 0.00000000000000022 -0.00000000000000022 -1.00000000000000000 1.00000000000000000 -0.00000000000000022 0.00000000000000022 
1 1489.65798189623433245 -3.39636658821912141 0.00000000000041422 -0.00000000000000028 0.00000000000000022 1.00000000000000000 -0.00000000000000022 -1.00000000000000000 0.00000000000000022 1.00000000000000000 -0.00000000000000022 0.00000000000000028 
1 1489.65798189623433245 -3.39636658821912141 0.00000000000041422 -0.00000000000000028 0.00000000000000022 1.00000000000000000 -0.00000000000000022 -1.00000000000000000 0.00000000000000022 1.00000000000000000 -0.00000000000000022 0.00000000000000028 
1 1489.65798189623433245 -3.39636658821912141 0.00000000000041422 -0.00000000000000028 0.00000000000000022 1.00000000000000000 -0.00000000000000022 -1.00000000000000000 0.00000000000000022 1.00000000000000000 -0.00000000000000022 0.00000000000000028 
1 1489.65798189623433245 -3.39636658821912141 0.00000000000041422 -0.00000000000000028 0.00000000000000022 1.00000000000000000 -0.00000000000000022 -1.00000000000000000 0.00000000000000022 1.00000000000000000 -0.00000000000000022 0.00000000000000028 
1 1489.65798189623433245 -21.39636658821912008 0.00000000000041821 0.00000000000000022 1.00000000000000000 -0.00000000000000022 -0.00000000000000022 0.00000000000000022 1.00000000000000000 1.00000000000000000 -0.00000000000000022 0.00000000000000022 
1 1489.65798189623410508 -21.39636658821900639 516.00000000000045475 0.00000000000000028 -0.00000000000000022 -1.00000000000000000 0.00000000000000022 1.00000000000000000 -0.00000000000000022 1.00000000000000000 -0.00000000000000022 0.00000000000000028 
1 1489.65798189623410508 -21.39636658821900639 516.00000000000045475 0.00000000000000028 -0.00000000000000022 -1.00000000000000000 0.00000000000000022 1.00000000000000000 -0.00000000000000022 1.00000000000000000 -0.00000000000000022 0.00000000000000028 
1 1489.65798189623410508 -21.39636658821900639 516.00000000000045475 0.00000000000000028 -0.00000000000000022 -1.00000000000000000 0.00000000000000022 1.00000000000000000 -0.00000000000000022 1.00000000000000000 -0.00000000000000022 0.00000000000000028 
1 1489.65798189623410508 -21.39636658821900639 516.00000000000045475 0.00000000000000028 -0.00000000000000022 -1.00000000000000000 0.00000000000000022 1.00000000000000000 -0.00000000000000022 1.00000000000000000 -0.00000000000000022 0.00000000000000028 
1 1489.65798189623410508 -21.39636658821900639 516.00000000000045475 0.00000000000000028 -0.00000000000000022 -1.00000000000000000 0.00000000000000022 1.00000000000000000 -0.00000000000000022 1.00000000000000000 -0.00000000000000022 0.00000000000000028 
1 1489.65798189623410508 -3.39636658821900683 516.00000000000045475 -0.00000000000000022 -1.00000000000000000 0.00000000000000022 0.00000000000000022 -0.00000000000000022 -1.00000000000000000 1.00000000000000000 -0.00000000000000022 0.00000000000000022 
1 1489.65798189623410508 -3.39636658821900683 516.00000000000045475 -0.00000000000000022 -1.00000000000000000 0.00000000000000022 0.00000000000000022 -0.00000000000000022 -1.00000000000000000 1.00000000000000000 -0.00000000000000022 0.00000000000000022 
1 1489.65798189623410508 -3.39636658821900683 516.00000000000045475 -0.00000000000000022 -1.00000000000000000 0.00000000000000022 0.00000000000000022 -0.00000000000000022 -1.00000000000000000 1.00000000000000000 -0.00000000000000022 0.00000000000000022 
1 1489.65798189623410508 -3.39636658821900683 516.00000000000045475 -0.00000000000000022 -1.00000000000000000 0.00000000000000022 0.00000000000000022 -0.00000000000000022 -1.00000000000000000 1.00000000000000000 -0.00000000000000022 0.00000000000000022 
1 -0.00000000000009570 -12.39636658821870085 418.57877813504825326 1.00000000000000000 -0.00000000000000022 0.00000000000000022 0.00000000000000022 1.00000000000000000 0.00000000000000000 -0.00000000000000022 0.00000000000000000 1.00000000000000000 
1 1489.65798189623410508 -3.39636658821881987 1358.00000000000045475 -0.00000000000000028 0.00000000000000022 1.00000000000000000 -0.00000000000000022 -1.00000000000000000 0.00000000000000022 1.00000000000000000 -0.00000000000000022 0.00000000000000028 
1 1489.65798189623410508 -3.39636658821880433 1428.00000000000045475 -0.00000000000000022 -1.00000000000000000 0.00000000000000022 0.00000000000000022 -0.00000000000000022 -1.00000000000000000 1.00000000000000000 -0.00000000000000022 0.00000000000000022 
1 1489.65798189623410508 -3.39636658821881987 1358.00000000000045475 -0.00000000000000028 0.00000000000000022 1.00000000000000000 -0.00000000000000022 -1.00000000000000000 0.00000000000000022 1.00000000000000000 -0.00000000000000022 0.00000000000000028 
1 1489.65798189623410508 -3.39636658821881987 1358.00000000000045475 -0.00000000000000028 0.00000000000000022 1.00000000000000000 -0.00000000000000022 -1.00000000000000000 0.00000000000000022 1.00000000000000000 -0.00000000000000022 0.00000000000000028 
1 1489.65798189623410508 -3.39636658821881987 1358.00000000000045475 -0.00000000000000028 0.00000000000000022 1.00000000000000000 -0.00000000000000022 -1.00000000000000000 0.00000000000000022 1.00000000000000000 -0.00000000000000022 0.00000000000000028 
1 1489.65798189623410508 -3.39636658821881987 1358.00000000000045475 -0.00000000000000028 0.00000000000000022 1.00000000000000000 -0.00000000000000022 -1.00000000000000000 0.00000000000000022 1.00000000000000000 -0.00000000000000022 0.00000000000000028 
1 1489.65798189623410508 -21.39636658821881809 1358.00000000000045475 0.00000000000000022 1.00000000000000000 -0.00000000000000022 -0.00000000000000022 0.00000000000000022 1.00000000000000000 1.00000000000000000 -0.00000000000000022 0.00000000000000022 
1 1489.65798189623410508 -21.39636658821880388 1428.00000000000045475 0.00000000000000028 -0.00000000000000022 -1.00000000000000000 0.00000000000000022 1.00000000000000000 -0.00000000000000022 1.00000000000000000 -0.00000000000000022 0.00000000000000028 
1 1489.65798189623410508 -21.39636658821880388 1428.00000000000045475 0.00000000000000028 -0.00000000000000022 -1.00000000000000000 0.00000000000000022 1.00000000000000000 -0.00000000000000022 1.00000000000000000 -0.00000000000000022 0.00000000000000028 
1 1489.65798189623410508 -21.39636658821880388 1428.00000000000045475 0.00000000000000028 -0.00000000000000022 -1.00000000000000000 0.00000000000000022 1.00000000000000000 -0.00000000000000022 1.00000000000000000 -0.00000000000000022 0.00000000000000028 
1 1489.65798189623410508 -21.39636658821880388 1428.00000000000045475 0.00000000000000028 -0.00000000000000022 -1.00000000000000000 0.00000000000000022 1.00000000000000000 -0.00000000000000022 1.00000000000000000 -0.00000000000000022 0.00000000000000028 
1 1489.65798189623410508 -21.39636658821880388 1428.00000000000045475 0.00000000000000028 -0.00000000000000022 -1.00000000000000000 0.00000000000000022 1.00000000000000000 -0.00000000000000022 1.00000000000000000 -0.00000000000000022 0.00000000000000028 
1 1489.65798189623410508 -3.39636658821880433 1428.00000000000045475 -0.00000000000000022 -1.00000000000000000 0.00000000000000022 0.00000000000000022 -0.00000000000000022 -1.00000000000000000 1.00000000000000000 -0.00000000000000022 0.00000000000000022 
1 1489.65798189623410508 -3.39636658821880433 1428.00000000000045475 -0.00000000000000022 -1.00000000000000000 0.00000000000000022 0.00000000000000022 -0.00000000000000022 -1.00000000000000000 1.00000000000000000 -0.00000000000000022 0.00000000000000022 
1 1489.65798189623410508 -3.39636658821880433 1428.00000000000045475 -0.00000000000000022 -1.00000000000000000 0.00000000000000022 0.00000000000000022 -0.00000000000000022 -1.00000000000000000 1.00000000000000000 -0.00000000000000022 0.00000000000000022 
1 1489.65798189623410508 -3.39636658821880433 1428.00000000000045475 -0.00000000000000022 -1.00000000000000000 0.00000000000000022 0.00000000000000022 -0.00000000000000022 -1.00000000000000000 1.00000000000000000 -0.00000000000000022 0.00000000000000022 
1 -0.00000000000009570 -12.39636658821870085 418.57877813504825326 1.00000000000000000 -0.00000000000000022 0.00000000000000022 0.00000000000000022 1.00000000000000000 0.00000000000000000 -0.00000000000000022 0.00000000000000000 1.00000000000000000 
Triangulations 0

TShapes 49
Ve
0.000000100000000
0.000000000000000 0.000000000000000 0.000000000000000
0 0

0101101
*
Ed
 0.000000100000000 1 1 0
1  1 0 0.000000000000000 2979.315963792468665
2  1 2 0 0.000000000000000 2979.315963792468665
2  2 1 0 0.000000000000000 2979.315963792468665
0

0101000
+49 5 -49 7 *
Ve
0.000000100000000
-18.000000000000000 0.000000000000000 0.000000000000000
0 0

0101101
*
Ed
 0.000000100000000 1 1 0
1  2 0 0.000000000000000 2979.315963792468665
2  3 1 0 0.000000000000000 2979.315963792468665
0

0101000
+47 5 -47 7 *
Ed
 0.000000100000000 1 1 0
1  3 0 0.000000000000000 18.000000000000000
2  4 3 12 0.000000000000000 18.000000000000000
2  5 3 14 0.000000000000000 18.000000000000000
2  6 4 19 0.000000000000000 18.000000000000000
2  7 4 21 0.000000000000000 18.000000000000000
2  8 5 26 0.000000000000000 18.000000000000000
2  9 5 28 0.000000000000000 18.000000000000000
2  10 6 33 0.000000000000000 18.000000000000000
2  11 6 35 0.000000000000000 18.000000000000000
2  12 1 36 0.000000000000000 18.000000000000000
2  13 1 37 0.000000000000000 18.000000000000000
0

0101000
+49 0 -47 0 *
Wi

0101100
+48 0 -46 0 -45 5 +45 7 *
Fa
0  0.000000100000000 1 0

0111000
+44 0 *
Ve
0.000000100000000
-18.000000000000000 516.000000000000000 0.000000000000000
0 0

0101101
*
Ed
 0.000000100000000 1 1 0
1  4 0 0.000000000000000 2979.315963792468665
2  14 8 0 0.000000000000000 2979.315963792468665
0

0101000
+42 5 -42 7 *
Ed
 0.000000100000000 1 1 0
1  5 0 0.000000000000000 516.000000000000000
0

0101000
+47 0 -42 0 *
Wi

0101100
+46 0 -41 0 -40 5 +40 7 *
Fa
0  0.000000100000000 7 0

0111000
+39 0 *
Ve
0.000000100000000
0.000000000000000 516.000000000000000 0.000000000000000
0 0

0101101
*
Ed
 0.000000100000000 1 1 0
1  6 0 0.000000000000000 2979.315963792468665
2  15 2 0 0.000000000000000 2979.315963792468665
2  16 8 0 0.000000000000000 2979.315963792468665
0

0101000
+37 5 -37 7 *
Ed
 0.000000100000000 1 1 0
1  7 0 0.000000000000000 18.000000000000000
2  17 9 12 0.000000000000000 18.000000000000000
2  18 9 14 0.000000000000000 18.000000000000000
2  19 10 19 0.000000000000000 18.000000000000000
2  20 10 21 0.000000000000000 18.000000000000000
2  21 11 26 0.000000000000000 18.000000000000000
2  22 11 28 0.000000000000000 18.000000000000000
2  23 12 33 0.000000000000000 18.000000000000000
2  24 12 35 0.000000000000000 18.000000000000000
2  25 8 36 0.000000000000000 18.000000000000000
2  26 8 37 0.000000000000000 18.000000000000000
0

0101000
+42 0 -37 0 *
Wi

0101100
+41 0 -36 0 -35 5 +35 7 *
Fa
0  0.000000100000000 8 0

0111000
+34 0 *
Ed
 0.000000100000000 1 1 0
1  8 0 0.000000000000000 516.000000000000000
2  27 13 12 0.000000000000000 516.000000000000000
2  28 13 14 0.000000000000000 516.000000000000000
2  29 14 19 0.000000000000000 516.000000000000000
2  30 14 21 0.000000000000000 516.000000000000000
2  31 15 26 0.000000000000000 516.000000000000000
2  32 15 28 0.000000000000000 516.000000000000000
2  33 16 33 0.000000000000000 516.000000000000000
2  34 16 35 0.000000000000000 516.000000000000000
2  35 2 36 0.000000000000000 516.000000000000000
2  36 2 37 0.000000000000000 516.000000000000000
0

0101000
+37 0 -49 0 *
Wi

0101100
+36 0 -48 0 -32 5 +32 7 *
Fa
0  0.000000100000000 2 0

0111000
+31 0 *
Wi

0101100
+45 0 +40 0 +35 0 +32 0 *
Fa
0  0.000000100000000 17 0

0111000
-29 39 *
Sh

0101100
-43 0 -38 0 -33 0 -30 0 +28 38 -28 40 *
So

0100000
+27 0 *
Ve
0.000000100000000
0.000000000000000 1358.000000000000000 0.000000000000000
0 0

0101101
*
Ed
 0.000000100000000 1 1 0
1  9 0 0.000000000000000 2979.315963792468665
2  37 19 0 0.000000000000000 2979.315963792468665
2  38 18 0 0.000000000000000 2979.315963792468665
0

0101000
+25 5 -25 7 *
Ve
0.000000100000000
-18.000000000000000 1358.000000000000000 0.000000000000000
0 0

0101101
*
Ed
 0.000000100000000 1 1 0
1  10 0 0.000000000000000 2979.315963792468665
2  39 18 0 0.000000000000000 2979.315963792468665
0

0101000
+23 5 -23 7 *
Ed
 0.000000100000000 1 1 0
1  11 0 0.000000000000000 18.000000000000000
2  40 20 12 0.000000000000000 18.000000000000000
2  41 20 14 0.000000000000000 18.000000000000000
2  42 21 19 0.000000000000000 18.000000000000000
2  43 21 21 0.000000000000000 18.000000000000000
2  44 22 26 0.000000000000000 18.000000000000000
2  45 22 28 0.000000000000000 18.000000000000000
2  46 23 33 0.000000000000000 18.000000000000000
2  47 23 35 0.000000000000000 18.000000000000000
2  48 18 36 0.000000000000000 18.000000000000000
2  49 18 37 0.000000000000000 18.000000000000000
0

0101000
+25 0 -23 0 *
Wi

0101100
+24 0 -22 0 -21 5 +21 7 *
Fa
0  0.000000100000000 18 0

0111000
+20 0 *
Ve
0.000000100000000
-18.000000000000000 1428.000000000000000 0.000000000000000
0 0

0101101
*
Ed
 0.000000100000000 1 1 0
1  12 0 0.000000000000000 2979.315963792468665
2  50 25 0 0.000000000000000 2979.315963792468665
0

0101000
+18 5 -18 7 *
Ed
 0.000000100000000 1 1 0
1  13 0 0.000000000000000 70.000000000000000
0

0101000
+23 0 -18 0 *
Wi

0101100
+22 0 -17 0 -16 5 +16 7 *
Fa
0  0.000000100000000 24 0

0111000
+15 0 *
Ve
0.000000100000000
0.000000000000000 1428.000000000000000 0.000000000000000
0 0

0101101
*
Ed
 0.000000100000000 1 1 0
1  14 0 0.000000000000000 2979.315963792468665
2  51 19 0 0.000000000000000 2979.315963792468665
2  52 25 0 0.000000000000000 2979.315963792468665
0

0101000
+13 5 -13 7 *
Ed
 0.000000100000000 1 1 0
1  15 0 0.000000000000000 18.000000000000000
2  53 26 12 0.000000000000000 18.000000000000000
2  54 26 14 0.000000000000000 18.000000000000000
2  55 27 19 0.000000000000000 18.000000000000000
2  56 27 21 0.000000000000000 18.000000000000000
2  57 28 26 0.000000000000000 18.000000000000000
2  58 28 28 0.000000000000000 18.000000000000000
2  59 29 33 0.000000000000000 18.000000000000000
2  60 29 35 0.000000000000000 18.000000000000000
2  61 25 36 0.000000000000000 18.000000000000000
2  62 25 37 0.000000000000000 18.000000000000000
0

0101000
+18 0 -13 0 *
Wi

0101100
+17 0 -12 0 -11 5 +11 7 *
Fa
0  0.000000100000000 25 0

0111000
+10 0 *
Ed
 0.000000100000000 1 1 0
1  16 0 0.000000000000000 70.000000000000000
2  63 30 12 0.000000000000000 70.000000000000000
2  64 30 14 0.000000000000000 70.000000000000000
2  65 31 19 0.000000000000000 70.000000000000000
2  66 31 21 0.000000000000000 70.000000000000000
2  67 32 26 0.000000000000000 70.000000000000000
2  68 32 28 0.000000000000000 70.000000000000000
2  69 33 33 0.000000000000000 70.000000000000000
2  70 33 35 0.000000000000000 70.000000000000000
2  71 19 36 0.000000000000000 70.000000000000000
2  72 19 37 0.000000000000000 70.000000000000000
0

0101000
+13 0 -25 0 *
Wi

0101100
+12 0 -24 0 -8 5 +8 7 *
Fa
0  0.000000100000000 19 0

0111000
+7 0 *
Wi

0101100
+21 0 +16 0 +11 0 +8 0 *
Fa
0  0.000000100000000 34 0

0111000
-5 39 *
Sh

0101100
-19 0 -14 0 -9 0 -6 0 +4 38 -4 40 *
So

0100000
+3 0 *
Co

1100000
+26 0 +2 0 *

+1 0 