
CASCADE Topology V1, (c) Matra-Datavision
Locations 49
1
1.000000000000000 0.000000000000000 0.000000000000000 0.000000000000000 
0.000000000000000 1.000000000000000 0.000000000000000 0.000000000000000 
0.000000000000000 0.000000000000000 1.000000000000000 0.000000000000000 
1
1.000000000000000 0.000000000000000 0.000000000000000 0.000000000000000 
0.000000000000000 1.000000000000000 0.000000000000000 0.000000000000000 
0.000000000000000 0.000000000000000 1.000000000000000 0.000000000000000 
1
1.000000000000000 0.000000000000000 0.000000000000000 0.000000000000000 
0.000000000000000 1.000000000000000 0.000000000000000 0.000000000000000 
0.000000000000000 0.000000000000000 1.000000000000000 0.000000000000000 
2  2 1 3 -1 0
1
0.000000000000000 0.000000000000000 1.000000000000000 41.299999999999415 
0.000000000000000 1.000000000000000 0.000000000000000 0.000000000000000 
-1.000000000000000 0.000000000000000 0.000000000000000 41.099999999999419 
1
0.000000000000000 0.000000000000000 1.000000000000000 41.299999999999415 
0.000000000000000 1.000000000000000 0.000000000000000 0.000000000000000 
-1.000000000000000 0.000000000000000 0.000000000000000 41.099999999999419 
2  6 -1 0
2  5 1 6 -1 0
1
1.000000000000000 0.000000000000000 0.000000000000000 0.000000000000000 
0.000000000000000 1.000000000000000 0.000000000000000 0.000000000000000 
0.000000000000000 0.000000000000000 1.000000000000000 -0.300000000000000 
2  9 -1 0
2  5 -1 0
2  9 1 5 1 0
2  5 -1 9 -1 0
1
1.000000000000000 0.000000000000000 0.000000000000000 0.000000000000000 
0.000000000000000 1.000000000000000 0.000000000000000 0.000000000000000 
0.000000000000000 0.000000000000000 1.000000000000000 0.000000000000000 
2  14 -1 0
2  5 1 2 1 3 -1 0
2  9 1 5 1 6 -1 0
1
1.000000000000000 0.000000000000000 0.000000000000000 0.000000000000000 
0.000000000000000 1.000000000000000 0.000000000000000 0.000000000000000 
0.000000000000000 0.000000000000000 1.000000000000000 0.000000000000000 
1
1.000000000000000 0.000000000000000 0.000000000000000 0.000000000000000 
0.000000000000000 1.000000000000000 0.000000000000000 0.000000000000000 
0.000000000000000 0.000000000000000 1.000000000000000 0.000000000000000 
1
1.000000000000000 0.000000000000000 0.000000000000000 0.000000000000000 
0.000000000000000 1.000000000000000 0.000000000000000 0.000000000000000 
0.000000000000000 0.000000000000000 1.000000000000000 0.000000000000000 
1
1.000000000000000 0.000000000000000 0.000000000000000 0.000000000000000 
0.000000000000000 1.000000000000000 0.000000000000000 0.000000000000000 
0.000000000000000 0.000000000000000 1.000000000000000 0.300000000000000 
2  18 1 19 1 20 -1 21 1 14 1 0
2  21 -1 20 1 19 -1 18 -1 0
2  19 -1 18 -1 0
2  14 -1 21 -1 20 1 19 -1 18 -1 0
2  18 1 19 1 20 -1 14 1 0
2  20 1 19 -1 18 -1 0
2  14 -1 20 1 19 -1 18 -1 0
2  20 -1 21 1 14 1 2 1 3 -1 0
2  18 1 19 1 20 -1 21 1 14 1 2 1 3 -1 0
1
1.000000000000000 0.000000000000000 0.000000000000000 0.000000000000024 
0.000000000000000 1.000000000000000 0.000000000000000 -101.215914611281207 
0.000000000000000 0.000000000000000 1.000000000000000 -37.100000000000001 
1
1.000000000000000 0.000000000000000 0.000000000000000 -22.299999999999713 
0.000000000000000 1.000000000000000 0.000000000000000 -83.394112909449618 
0.000000000000000 0.000000000000000 1.000000000000000 -37.100000000000001 
1
1.000000000000000 0.000000000000000 0.000000000000000 22.299999999999713 
0.000000000000000 1.000000000000000 0.000000000000000 -83.394112909449419 
0.000000000000000 0.000000000000000 1.000000000000000 -37.100000000000001 
2  20 -1 14 1 2 1 3 -1 0
2  18 1 19 1 20 -1 14 1 2 1 3 -1 0
1
0.000000000000000 0.000000000000000 -1.000000000000000 -41.299999999999415 
0.000000000000000 1.000000000000000 0.000000000000000 0.000000000000000 
1.000000000000000 0.000000000000000 0.000000000000000 41.099999999999419 
2  36 -1 0
1
0.000000000000000 0.000000000000000 -1.000000000000000 -41.299999999999415 
0.000000000000000 1.000000000000000 0.000000000000000 0.000000000000000 
1.000000000000000 0.000000000000000 0.000000000000000 41.099999999999419 
2  38 1 36 -1 0
2  31 -1 0
2  32 -1 0
2  33 -1 0
1
1.000000000000000 0.000000000000000 0.000000000000000 0.000000000000000 
0.000000000000000 1.000000000000000 0.000000000000000 0.000000000000000 
0.000000000000000 0.000000000000000 1.000000000000000 -0.300000000000000 
2  43 1 38 1 36 -1 0
2  43 -1 0
2  38 -1 0
2  43 1 38 1 0
2  38 -1 43 -1 0
2  38 1 2 1 3 -1 0
Curve2ds 120
1 0.40000000000000002 0.00000000000000000 -1.00000000000000000 0.00000000000000000 
1 -0.00000000000000139 0.39999999999999858 -0.00000000000000011 -1.00000000000000000 
1 0.14999999999999999 14.95173193821571545 -1.00000000000000000 0.00000000000000000 
1 0.00000000000000000 0.00000000000000000 0.00000000000000000 -1.00000000000000000 
1 31.00000000000000000 0.00000000000000000 0.00000000000000000 -1.00000000000000000 
1 0.00000000000000000 0.00000000000000000 0.00000000000000000 -1.00000000000000000 
1 0.00000000000000000 0.00000000000000000 1.00000000000000000 0.00000000000000000 
1 0.00000000000000000 -0.29999999999999999 1.00000000000000000 0.00000000000000000 
1 -15.50000000000000711 -14.95173193821574387 1.00000000000000000 0.00000000000000000 
1 0.00000000000000000 29.90346387643147352 1.00000000000000000 0.00000000000000000 
2 0.00000000000000000 0.00000000000000000 1.00000000000000000 0.00000000000000000 -0.00000000000000000 1.00000000000000000 0.40000000000000002
2 0.00000000000000000 0.00000000000000000 1.00000000000000000 0.00000000000000000 -0.00000000000000000 1.00000000000000000 0.10000000000000003
1 0.00000000000000000 0.00000000000000000 1.00000000000000000 0.00000000000000000 
1 82.39999999999884039 0.00000000000000000 0.00000000000000000 -1.00000000000000000 
1 0.00000000000000000 0.00000000000000000 0.00000000000000000 -1.00000000000000000 
1 0.10000000000000003 0.00000000000000000 1.00000000000000000 0.00000000000000000 
1 0.00000000000000000 0.00000000000000000 0.00000000000000000 -1.00000000000000000 
1 29.90346387643147352 0.00000000000000000 0.00000000000000000 -1.00000000000000000 
1 15.49999999999999289 -14.95173193821574387 0.00000000000000000 1.00000000000000000 
1 0.00000000000000000 0.00000000000000000 1.00000000000000000 0.00000000000000000 
1 0.00000000000000000 -0.29999999999999999 1.00000000000000000 0.00000000000000000 
1 0.00000000000000000 0.00000000000000000 0.00000000000000000 1.00000000000000000 
1 1.57079632679489656 0.00000000000000000 0.00000000000000000 1.00000000000000000 
1 0.14999999999999999 -14.95173193821575808 0.00000000000000000 1.00000000000000000 
1 -15.50000000000000711 14.95173193821572966 0.00000000000000000 -1.00000000000000000 
1 0.00000000000000000 0.00000000000000000 1.00000000000000000 0.00000000000000000 
1 0.00000000000000000 -0.29999999999999999 1.00000000000000000 0.00000000000000000 
1 15.49999999999999289 14.95173193821572966 -1.00000000000000000 0.00000000000000000 
1 0.00000000000000000 0.00000000000000000 0.00000000000000000 1.00000000000000000 
1 1.57079632679489656 0.00000000000000000 0.00000000000000000 1.00000000000000000 
1 -0.14999999999999999 14.95173193821571545 0.00000000000000000 -1.00000000000000000 
1 -15.50000000000000711 -14.95173193821574387 0.00000000000000000 1.00000000000000000 
1 0.00000000000000000 0.00000000000000000 1.00000000000000000 0.00000000000000000 
2 0.00000000000000000 0.00000000000000000 -1.00000000000000000 0.00000000000000000 0.00000000000000000 1.00000000000000000 0.40000000000000002
1 0.00000000000000000 -0.29999999999999999 1.00000000000000000 0.00000000000000000 
1 41.19999999999942020 -14.95173193821574387 0.00000000000000000 1.00000000000000000 
8 0.00000000000000000 29.90346387643147352
1 0.00000000000000000 29.90346387643147352 -0.00000000000000000 -1.00000000000000000 
1 0.00000000000000000 29.90346387643147352 1.00000000000000000 0.00000000000000000 
2 0.00000000000000000 0.00000000000000000 -1.00000000000000000 0.00000000000000000 0.00000000000000000 1.00000000000000000 0.10000000000000003
1 0.00000000000000000 0.00000000000000000 1.00000000000000000 0.00000000000000000 
1 41.19999999999942020 -14.95173193821574387 0.00000000000000000 1.00000000000000000 
8 0.00000000000000000 29.90346387643147352
1 0.00000000000000000 0.00000000000000000 0.00000000000000000 1.00000000000000000 
1 29.90346387643147352 0.00000000000000000 0.00000000000000000 -1.00000000000000000 
1 0.00000000000000000 0.00000000000000000 0.00000000000000000 -1.00000000000000000 
1 -0.10000000000000003 0.00000000000000000 -1.00000000000000000 0.00000000000000000 
1 0.00000000000000000 0.00000000000000000 1.00000000000000000 0.00000000000000000 
1 -41.19999999999942020 -14.95173193821574387 1.00000000000000000 0.00000000000000000 
1 0.00000000000000000 -0.29999999999999999 1.00000000000000000 0.00000000000000000 
1 -41.19999999999942020 -14.95173193821574387 1.00000000000000000 0.00000000000000000 
1 -0.10000000000000003 0.00000000000000000 -1.00000000000000000 0.00000000000000000 
1 0.00000000000000139 0.10000000000000142 -0.00000000000000011 1.00000000000000000 
1 -0.14999999999999999 -14.95173193821575808 1.00000000000000000 0.00000000000000000 
1 31.00000000000000000 -0.29999999999999999 0.00000000000000000 1.00000000000000000 
1 0.00000000000000000 -0.00000000000000000 0.00000000000000000 -1.00000000000000000 
1 29.90346387643147352 0.00000000000000000 0.00000000000000000 -1.00000000000000000 
1 -0.10000000000000003 0.00000000000000000 -1.00000000000000000 0.00000000000000000 
1 0.00000000000000000 -0.29999999999999999 1.00000000000000000 0.00000000000000000 
1 41.19999999999942020 14.95173193821572966 -1.00000000000000000 0.00000000000000000 
1 0.00000000000000000 -0.29999999999999999 1.00000000000000000 0.00000000000000000 
1 -41.19999999999942020 14.95173193821572966 0.00000000000000000 -1.00000000000000000 
8 0.00000000000000000 29.90346387643147352
1 0.00000000000000000 29.90346387643147352 -0.00000000000000000 -1.00000000000000000 
2 0.00000000000002430 -7.87006976361605837 -1.00000000000000000 0.00000000000000000 -0.00000000000000000 -1.00000000000000000 1.69999999999999996
1 6.28318530717958623 37.39999999999999858 -1.00000000000000000 0.00000000000000000 
2 -22.29999999999971294 9.95173193821553070 -1.00000000000000000 0.00000000000000000 -0.00000000000000000 -1.00000000000000000 1.69999999999999996
1 6.28318530717958623 37.39999999999999858 -1.00000000000000000 0.00000000000000000 
2 22.29999999999971294 9.95173193821572966 -1.00000000000000000 0.00000000000000000 -0.00000000000000000 -1.00000000000000000 1.69999999999999996
1 6.28318530717958623 37.39999999999999858 -1.00000000000000000 0.00000000000000000 
1 0.00000000000000000 -0.00000000000000000 1.00000000000000000 0.00000000000000000 
1 41.19999999999942020 14.95173193821572966 -1.00000000000000000 0.00000000000000000 
1 0.00000000000000000 0.00000000000000000 1.00000000000000000 0.00000000000000000 
1 -41.19999999999942020 14.95173193821572966 0.00000000000000000 -1.00000000000000000 
8 0.00000000000000000 29.90346387643147352
1 0.00000000000000000 0.00000000000000000 0.00000000000000000 1.00000000000000000 
2 0.00000000000002430 -7.87006976361605837 -1.00000000000000000 0.00000000000000000 -0.00000000000000000 -1.00000000000000000 1.69999999999999996
1 6.28318530717958623 37.10000000000000142 -1.00000000000000000 0.00000000000000000 
2 -22.29999999999971294 9.95173193821553070 -1.00000000000000000 0.00000000000000000 -0.00000000000000000 -1.00000000000000000 1.69999999999999996
1 6.28318530717958623 37.10000000000000142 -1.00000000000000000 0.00000000000000000 
2 22.29999999999971294 9.95173193821572966 -1.00000000000000000 0.00000000000000000 -0.00000000000000000 -1.00000000000000000 1.69999999999999996
1 6.28318530717958623 37.10000000000000142 -1.00000000000000000 0.00000000000000000 
1 0.00000000000000000 29.90346387643147352 1.00000000000000000 0.00000000000000000 
2 0.00000000000000000 0.00000000000000000 -1.00000000000000000 0.00000000000000000 0.00000000000000000 1.00000000000000000 0.10000000000000003
1 0.00000000000000000 0.00000000000000000 1.00000000000000000 0.00000000000000000 
2 0.00000000000000000 0.00000000000000000 -1.00000000000000000 0.00000000000000000 0.00000000000000000 1.00000000000000000 0.40000000000000002
1 -0.10000000000000003 0.00000000000000000 -1.00000000000000000 0.00000000000000000 
1 0.00000000000000139 0.10000000000000142 -0.00000000000000011 1.00000000000000000 
1 0.14999999999999999 14.95173193821572966 -1.00000000000000000 0.00000000000000000 
1 31.00000000000000000 -0.29999999999999999 0.00000000000000000 1.00000000000000000 
1 82.39999999999884039 0.00000000000000000 0.00000000000000000 -1.00000000000000000 
1 0.00000000000000000 0.00000000000000000 0.00000000000000000 -1.00000000000000000 
1 0.10000000000000003 0.00000000000000000 1.00000000000000000 0.00000000000000000 
1 0.00000000000000000 29.90346387643147352 1.00000000000000000 0.00000000000000000 
2 0.00000000000000000 0.00000000000000000 1.00000000000000000 0.00000000000000000 -0.00000000000000000 1.00000000000000000 0.40000000000000002
1 0.00000000000000000 0.00000000000000000 0.00000000000000000 1.00000000000000000 
1 1.57079632679489656 0.00000000000000000 0.00000000000000000 1.00000000000000000 
1 -0.14999999999999999 14.95173193821572966 0.00000000000000000 -1.00000000000000000 
1 15.50000000000000711 -14.95173193821574387 0.00000000000000000 1.00000000000000000 
1 6.28318530717958623 0.00000000000000000 0.00000000000000000 1.00000000000000000 
1 0.00000000000000000 0.00000000000000000 0.00000000000000000 1.00000000000000000 
2 0.00000000000000000 0.00000000000000000 1.00000000000000000 0.00000000000000000 -0.00000000000000000 1.00000000000000000 0.10000000000000003
1 0.00000000000000000 0.00000000000000000 1.00000000000000000 0.00000000000000000 
1 0.00000000000000000 0.00000000000000000 0.00000000000000000 1.00000000000000000 
1 1.57079632679489656 0.00000000000000000 0.00000000000000000 1.00000000000000000 
1 0.14999999999999999 -14.95173193821574387 0.00000000000000000 1.00000000000000000 
1 15.50000000000000711 14.95173193821572966 0.00000000000000000 -1.00000000000000000 
1 0.00000000000000000 0.00000000000000000 0.00000000000000000 -1.00000000000000000 
1 29.90346387643147352 0.00000000000000000 0.00000000000000000 -1.00000000000000000 
1 -15.49999999999999289 -14.95173193821574387 1.00000000000000000 0.00000000000000000 
1 0.00000000000000000 0.00000000000000000 1.00000000000000000 0.00000000000000000 
1 0.00000000000000000 -0.29999999999999999 1.00000000000000000 0.00000000000000000 
1 0.40000000000000002 0.00000000000000000 -1.00000000000000000 0.00000000000000000 
1 -0.00000000000000139 0.39999999999999858 -0.00000000000000011 -1.00000000000000000 
1 -0.14999999999999999 -14.95173193821574387 1.00000000000000000 0.00000000000000000 
1 0.00000000000000000 0.00000000000000000 0.00000000000000000 -1.00000000000000000 
1 0.00000000000000000 0.00000000000000000 1.00000000000000000 0.00000000000000000 
1 0.00000000000000000 -0.29999999999999999 1.00000000000000000 0.00000000000000000 
1 15.50000000000000711 14.95173193821572966 -1.00000000000000000 0.00000000000000000 
1 -15.49999999999999289 14.95173193821572966 0.00000000000000000 -1.00000000000000000 
1 0.00000000000000000 0.00000000000000000 1.00000000000000000 0.00000000000000000 
1 0.00000000000000000 -0.29999999999999999 1.00000000000000000 0.00000000000000000 
1 31.00000000000000000 0.00000000000000000 0.00000000000000000 -1.00000000000000000 
1 0.00000000000000000 0.00000000000000000 0.00000000000000000 -1.00000000000000000 
Curves 45
1 41.19999999999942020 -108.29757678588089220 0.29999999999999999 0.00000000000000000 0.00000000000000000 -1.00000000000000000 
1 72.19999999999942020 -108.29757678588089220 0.29999999999999999 0.00000000000000000 0.00000000000000000 -1.00000000000000000 
1 41.19999999999942020 -108.29757678588089220 0.29999999999999999 1.00000000000000000 0.00000000000000000 0.00000000000000000 
2 41.19999999999942020 -108.29757678588089220 -0.10000000000000003 0.00000000000000000 1.00000000000000000 0.00000000000000000 0.00000000000000000 -0.00000000000000000 1.00000000000000000 1.00000000000000000 0.00000000000000000 -0.00000000000000000 0.40000000000000002
2 41.19999999999942020 -108.29757678588089220 -0.10000000000000003 0.00000000000000000 1.00000000000000000 0.00000000000000000 0.00000000000000000 -0.00000000000000000 1.00000000000000000 1.00000000000000000 0.00000000000000000 -0.00000000000000000 0.10000000000000003
1 41.19999999999942020 -108.29757678588089220 0.00000000000000000 0.00000000000000000 0.00000000000000000 1.00000000000000000 
1 72.19999999999942020 -78.39411290944941868 0.29999999999999999 0.00000000000000000 0.00000000000000000 -1.00000000000000000 
1 72.19999999999942020 -108.29757678588089220 0.29999999999999999 0.00000000000000000 1.00000000000000000 0.00000000000000000 
1 41.19999999999942020 -78.39411290944941868 0.29999999999999999 0.00000000000000000 -1.00000000000000000 0.00000000000000000 
1 72.19999999999942020 -78.39411290944941868 0.29999999999999999 -1.00000000000000000 0.00000000000000000 0.00000000000000000 
1 41.19999999999942020 -108.29757678588089220 0.00000000000000000 0.00000000000000000 1.00000000000000000 0.00000000000000000 
2 41.19999999999942020 -78.39411290944941868 -0.10000000000000003 0.00000000000000000 1.00000000000000000 0.00000000000000000 0.00000000000000000 -0.00000000000000000 1.00000000000000000 1.00000000000000000 0.00000000000000000 -0.00000000000000000 0.40000000000000002
1 41.19999999999942020 -108.29757678588089220 0.00000000000000000 0.00000000000000000 1.00000000000000000 0.00000000000000000 
2 41.19999999999942020 -78.39411290944941868 -0.10000000000000003 0.00000000000000000 1.00000000000000000 0.00000000000000000 0.00000000000000000 -0.00000000000000000 1.00000000000000000 1.00000000000000000 0.00000000000000000 -0.00000000000000000 0.10000000000000003
1 41.19999999999942020 -108.29757678588089220 0.00000000000000000 0.00000000000000000 1.00000000000000000 0.00000000000000000 
1 -41.19999999999942020 -108.29757678588089220 0.00000000000000000 0.00000000000000000 0.00000000000000000 1.00000000000000000 
1 -41.19999999999942020 -108.29757678588089220 0.00000000000000000 1.00000000000000000 0.00000000000000000 0.00000000000000000 
1 -41.19999999999942020 -108.29757678588089220 0.00000000000000000 1.00000000000000000 0.00000000000000000 0.00000000000000000 
1 41.19999999999942020 -78.39411290944941868 0.00000000000000000 0.00000000000000000 0.00000000000000000 1.00000000000000000 
1 41.19999999999942020 -78.39411290944941868 0.00000000000000000 0.00000000000000000 0.00000000000000000 1.00000000000000000 
1 41.19999999999942020 -78.39411290944941868 0.00000000000000000 -1.00000000000000000 0.00000000000000000 0.00000000000000000 
1 -41.19999999999942020 -78.39411290944941868 0.00000000000000000 0.00000000000000000 -1.00000000000000000 0.00000000000000000 
2 0.00000000000002430 -101.21591461128120670 0.29999999999999716 0.00000000000000000 0.00000000000000000 1.00000000000000000 -1.00000000000000000 0.00000000000000000 0.00000000000000000 0.00000000000000000 -1.00000000000000000 0.00000000000000000 1.69999999999999996
2 -22.29999999999971294 -83.39411290944961763 0.29999999999999716 0.00000000000000000 0.00000000000000000 1.00000000000000000 -1.00000000000000000 0.00000000000000000 0.00000000000000000 0.00000000000000000 -1.00000000000000000 0.00000000000000000 1.69999999999999996
2 22.29999999999971294 -83.39411290944941868 0.29999999999999716 0.00000000000000000 0.00000000000000000 1.00000000000000000 -1.00000000000000000 0.00000000000000000 0.00000000000000000 0.00000000000000000 -1.00000000000000000 0.00000000000000000 1.69999999999999996
1 41.19999999999942020 -78.39411290944941868 0.00000000000000000 -1.00000000000000000 0.00000000000000000 0.00000000000000000 
1 -41.19999999999942020 -78.39411290944941868 0.00000000000000000 0.00000000000000000 -1.00000000000000000 0.00000000000000000 
2 0.00000000000002430 -101.21591461128120670 0.00000000000000000 0.00000000000000000 0.00000000000000000 1.00000000000000000 -1.00000000000000000 0.00000000000000000 0.00000000000000000 0.00000000000000000 -1.00000000000000000 0.00000000000000000 1.69999999999999996
2 -22.29999999999971294 -83.39411290944961763 0.00000000000000000 0.00000000000000000 0.00000000000000000 1.00000000000000000 -1.00000000000000000 0.00000000000000000 0.00000000000000000 0.00000000000000000 -1.00000000000000000 0.00000000000000000 1.69999999999999996
2 22.29999999999971294 -83.39411290944941868 0.00000000000000000 0.00000000000000000 0.00000000000000000 1.00000000000000000 -1.00000000000000000 0.00000000000000000 0.00000000000000000 0.00000000000000000 -1.00000000000000000 0.00000000000000000 1.69999999999999996
2 -41.19999999999942020 -108.29757678588089220 -0.10000000000000003 0.00000000000000000 -1.00000000000000000 0.00000000000000000 0.00000000000000000 0.00000000000000000 1.00000000000000000 -1.00000000000000000 0.00000000000000000 0.00000000000000000 0.10000000000000003
2 -41.19999999999942020 -108.29757678588089220 -0.10000000000000003 0.00000000000000000 -1.00000000000000000 0.00000000000000000 0.00000000000000000 0.00000000000000000 1.00000000000000000 -1.00000000000000000 0.00000000000000000 0.00000000000000000 0.40000000000000002
1 -41.19999999999942020 -108.29757678588089220 0.00000000000000000 0.00000000000000000 0.00000000000000000 1.00000000000000000 
1 -41.19999999999942020 -78.39411290944941868 0.00000000000000000 0.00000000000000000 0.00000000000000000 1.00000000000000000 
2 -41.19999999999942020 -78.39411290944941868 -0.10000000000000003 0.00000000000000000 -1.00000000000000000 0.00000000000000000 0.00000000000000000 0.00000000000000000 1.00000000000000000 -1.00000000000000000 0.00000000000000000 0.00000000000000000 0.40000000000000002
1 -41.19999999999942020 -108.29757678588089220 0.29999999999999999 0.00000000000000000 1.00000000000000000 0.00000000000000000 
1 -1.69999999999999996 0.00000000000000000 0.00000000000000000 0.00000000000000006 0.00000000000000000 1.00000000000000000 
2 -41.19999999999942020 -78.39411290944941868 -0.10000000000000003 0.00000000000000000 -1.00000000000000000 0.00000000000000000 0.00000000000000000 0.00000000000000000 1.00000000000000000 -1.00000000000000000 0.00000000000000000 0.00000000000000000 0.10000000000000003
1 -41.19999999999942020 -78.39411290944941868 0.00000000000000000 0.00000000000000000 -1.00000000000000000 0.00000000000000000 
1 -72.19999999999942020 -108.29757678588089220 0.29999999999999999 0.00000000000000000 0.00000000000000000 -1.00000000000000000 
1 -72.19999999999942020 -108.29757678588089220 0.29999999999999999 1.00000000000000000 0.00000000000000000 0.00000000000000000 
1 -41.19999999999942020 -78.39411290944941868 0.29999999999999999 0.00000000000000000 0.00000000000000000 -1.00000000000000000 
1 -41.19999999999942020 -78.39411290944941868 0.29999999999999999 -1.00000000000000000 0.00000000000000000 0.00000000000000000 
1 -72.19999999999942020 -78.39411290944941868 0.29999999999999999 0.00000000000000000 -1.00000000000000000 0.00000000000000000 
1 -72.19999999999942020 -78.39411290944941868 0.29999999999999999 0.00000000000000000 0.00000000000000000 -1.00000000000000000 
Polygon3D 0
PolygonOnTriangulations 0
Surfaces 25
1 41.19999999999942020 -108.29757678588089220 0.29999999999999999 0.00000000000000000 -1.00000000000000000 0.00000000000000000 1.00000000000000000 0.00000000000000000 0.00000000000000000 -0.00000000000000000 0.00000000000000000 1.00000000000000000 
1 41.19999999999942020 -108.29757678588089220 -0.10000000000000003 0.00000000000000000 1.00000000000000000 0.00000000000000000 0.00000000000000000 -0.00000000000000000 1.00000000000000000 1.00000000000000000 0.00000000000000000 -0.00000000000000000 
1 41.19999999999942020 -93.34584484766517676 0.14999999999999999 1.00000000000000000 0.00000000000000000 0.00000000000000000 -0.00000000000000000 0.00000000000000000 1.00000000000000000 0.00000000000000000 -1.00000000000000000 0.00000000000000000 
1 72.19999999999942020 -108.29757678588089220 0.29999999999999999 1.00000000000000000 -0.00000000000000000 0.00000000000000000 0.00000000000000000 1.00000000000000000 0.00000000000000000 -0.00000000000000000 0.00000000000000000 1.00000000000000000 
1 56.69999999999942730 -93.34584484766514834 0.29999999999999999 0.00000000000000000 0.00000000000000000 1.00000000000000000 1.00000000000000000 0.00000000000000000 -0.00000000000000000 -0.00000000000000000 1.00000000000000000 0.00000000000000000 
2 41.19999999999942020 -78.39411290944941868 -0.10000000000000003 -0.00000000000000000 -1.00000000000000000 -0.00000000000000000 0.00000000000000000 0.00000000000000000 1.00000000000000000 1.00000000000000000 -0.00000000000000000 -0.00000000000000000 0.40000000000000002
2 41.19999999999942020 -108.29757678588089220 -0.10000000000000003 0.00000000000000000 1.00000000000000000 0.00000000000000000 0.00000000000000000 -0.00000000000000000 1.00000000000000000 1.00000000000000000 0.00000000000000000 -0.00000000000000000 0.10000000000000003
1 -41.19999999999942020 -108.29757678588089220 0.00000000000000000 0.00000000000000000 1.00000000000000000 0.00000000000000000 1.00000000000000000 0.00000000000000000 0.00000000000000000 0.00000000000000000 0.00000000000000000 -1.00000000000000000 
1 41.19999999999942020 -108.29757678588089220 0.00000000000000000 -1.00000000000000000 0.00000000000000000 0.00000000000000000 0.00000000000000000 1.00000000000000000 0.00000000000000000 0.00000000000000000 0.00000000000000000 -1.00000000000000000 
1 72.19999999999942020 -78.39411290944941868 0.29999999999999999 0.00000000000000000 1.00000000000000000 0.00000000000000000 -1.00000000000000000 0.00000000000000000 0.00000000000000000 0.00000000000000000 -0.00000000000000000 1.00000000000000000 
1 41.19999999999942020 -78.39411290944941868 -0.10000000000000003 0.00000000000000000 1.00000000000000000 0.00000000000000000 -0.00000000000000000 0.00000000000000000 -1.00000000000000000 1.00000000000000000 -0.00000000000000000 -0.00000000000000000 
1 0.00000000000000000 -93.34584484766514834 0.00000000000000000 0.00000000000000000 0.00000000000000000 1.00000000000000000 1.00000000000000000 0.00000000000000000 -0.00000000000000000 -0.00000000000000000 1.00000000000000000 0.00000000000000000 
1 0.00000000000000000 -93.34584484766514834 0.00000000000000000 0.00000000000000000 0.00000000000000000 1.00000000000000000 1.00000000000000000 0.00000000000000000 -0.00000000000000000 -0.00000000000000000 1.00000000000000000 0.00000000000000000 
1 -41.19999999999942020 -78.39411290944941868 0.00000000000000000 1.00000000000000000 0.00000000000000000 -0.00000000000000000 0.00000000000000000 -1.00000000000000000 0.00000000000000000 0.00000000000000000 -0.00000000000000000 -1.00000000000000000 
1 -41.19999999999942020 -108.29757678588089220 -0.10000000000000003 0.00000000000000000 -1.00000000000000000 0.00000000000000000 -0.00000000000000000 -0.00000000000000000 -1.00000000000000000 -1.00000000000000000 -0.00000000000000000 0.00000000000000000 
1 41.19999999999942020 -78.39411290944941868 0.00000000000000000 0.00000000000000000 -1.00000000000000000 0.00000000000000000 -1.00000000000000000 0.00000000000000000 0.00000000000000000 -0.00000000000000000 -0.00000000000000000 -1.00000000000000000 
2 -41.19999999999942020 -108.29757678588089220 -0.10000000000000003 -0.00000000000000000 1.00000000000000000 -0.00000000000000000 0.00000000000000000 0.00000000000000000 1.00000000000000000 -1.00000000000000000 -0.00000000000000000 0.00000000000000000 0.40000000000000002
2 0.00000000000000000 0.00000000000000000 0.00000000000000000 0.00000000000000000 0.00000000000000000 1.00000000000000000 -1.00000000000000000 0.00000000000000000 0.00000000000000000 -0.00000000000000000 1.00000000000000000 -0.00000000000000000 1.69999999999999996
2 -41.19999999999942020 -78.39411290944941868 -0.10000000000000003 0.00000000000000000 -1.00000000000000000 0.00000000000000000 0.00000000000000000 0.00000000000000000 1.00000000000000000 -1.00000000000000000 0.00000000000000000 0.00000000000000000 0.10000000000000003
1 -41.19999999999942020 -93.34584484766516255 0.14999999999999999 -1.00000000000000000 -0.00000000000000000 -0.00000000000000000 0.00000000000000000 0.00000000000000000 -1.00000000000000000 0.00000000000000000 -1.00000000000000000 0.00000000000000000 
1 -72.19999999999942020 -108.29757678588089220 0.29999999999999999 0.00000000000000000 -1.00000000000000000 0.00000000000000000 1.00000000000000000 0.00000000000000000 0.00000000000000000 -0.00000000000000000 0.00000000000000000 1.00000000000000000 
1 -41.19999999999942020 -78.39411290944941868 -0.10000000000000003 0.00000000000000000 -1.00000000000000000 0.00000000000000000 0.00000000000000000 0.00000000000000000 1.00000000000000000 -1.00000000000000000 0.00000000000000000 0.00000000000000000 
1 -56.69999999999942730 -93.34584484766514834 0.29999999999999999 0.00000000000000000 0.00000000000000000 1.00000000000000000 1.00000000000000000 0.00000000000000000 -0.00000000000000000 -0.00000000000000000 1.00000000000000000 0.00000000000000000 
1 -72.19999999999942020 -78.39411290944941868 0.29999999999999999 -1.00000000000000000 -0.00000000000000000 -0.00000000000000000 0.00000000000000000 -1.00000000000000000 0.00000000000000000 -0.00000000000000000 0.00000000000000000 1.00000000000000000 
1 -41.19999999999942020 -78.39411290944941868 0.29999999999999999 0.00000000000000000 1.00000000000000000 0.00000000000000000 -1.00000000000000000 0.00000000000000000 0.00000000000000000 0.00000000000000000 -0.00000000000000000 1.00000000000000000 
Triangulations 0

TShapes 135
Ve
0.000000100000000
41.599999999999419 -108.297576785880892 -0.100000000000001
0 0

0101101
*
Ve
0.000000100000000
41.299999999999422 -108.297576785880892 -0.100000000000001
0 0

0101101
*
Ed
 0.000000100000000 1 1 0
1  1 0 0.000000000000000 0.300000000000000
2  1 2 0 0.000000000000000 0.300000000000000
2  2 2 7 0.000000000000000 0.300000000000000
2  3 3 0 0.000000000000000 0.300000000000000
2  4 1 8 0.000000000000000 0.300000000000000
0

0101000
+135 7 -134 7 *
Ve
0.000000100000000
72.199999999999420 -108.297576785880892 0.300000000000000
0 0

0101101
*
Ed
 0.000000100000000 1 1 0
1  2 0 0.000000000000000 0.300000000000000
2  5 1 0 0.000000000000000 0.300000000000000
2  6 4 0 0.000000000000000 0.300000000000000
0

0101000
+132 0 -132 9 *
Ed
 0.000000100000000 1 1 0
1  3 0 0.000000000000000 31.000000000000000
2  7 1 0 0.000000000000000 31.000000000000000
2  8 1 10 0.000000000000000 31.000000000000000
2  9 5 0 0.000000000000000 31.000000000000000
0

0101000
+135 11 -132 0 *
Ed
 0.000000100000000 1 1 0
1  3 0 0.000000000000000 31.000000000000000
2  7 1 0 0.000000000000000 31.000000000000000
2  8 1 10 0.000000000000000 31.000000000000000
2  9 5 0 0.000000000000000 31.000000000000000
0

0101000
+134 13 -132 0 *
Wi

0101100
+133 6 -131 5 -130 5 +129 12 *
Fa
0  0.000000100000000 1 5

0101000
+128 0 *
Ve
0.000000100000000
41.199999999999420 -108.297576785880892 0.300000000000000
0 0

0101101
*
Ed
 0.000000100000000 1 1 0
1  4 0 0.000000000000000 1.570796326794897
2  10 6 0 0.000000000000000 1.570796326794897
2  11 2 0 0.000000000000000 1.570796326794897
0

0101000
+126 0 -135 0 *
Ve
0.000000100000000
41.199999999999420 -108.297576785880892 0.000000000000000
0 0

0101101
*
Ed
 0.000000100000000 1 1 0
1  5 0 0.000000000000000 1.570796326794897
2  12 2 0 0.000000000000000 1.570796326794897
2  13 7 0 0.000000000000000 1.570796326794897
0

0101000
+124 0 -134 0 *
Ed
 0.000000100000000 1 1 0
1  6 0 0.000000000000000 0.300000000000000
2  14 8 0 0.000000000000000 0.300000000000000
2  15 9 0 0.000000000000000 0.300000000000000
2  16 2 15 0.000000000000000 0.300000000000000
0

0101000
+124 15 -126 15 *
Wi

0101100
+125 0 -123 0 +122 14 +133 6 *
Fa
0  0.000000100000000 2 0

0101000
+121 0 *
Ve
0.000000100000000
72.199999999999420 -78.394112909449419 0.300000000000000
0 0

0101101
*
Ed
 0.000000100000000 1 1 0
1  7 0 0.000000000000000 0.300000000000000
2  17 10 0 0.000000000000000 0.300000000000000
2  18 4 0 0.000000000000000 0.300000000000000
0

0101000
+119 0 -119 9 *
Ed
 0.000000100000000 1 1 0
1  8 0 0.000000000000000 29.903463876431474
2  19 5 0 0.000000000000000 29.903463876431474
2  20 4 0 0.000000000000000 29.903463876431474
2  21 4 10 0.000000000000000 29.903463876431474
0

0101000
+132 0 -119 0 *
Wi

0101100
+131 0 -118 0 -117 0 +117 9 *
Fa
0  0.000000100000000 4 0

0101000
+116 0 *
Ve
0.000000100000000
41.599999999999419 -78.394112909449419 -0.100000000000001
0 0

0101101
*
Ed
 0.000000100000000 1 1 0
1  9 0 0.000000000000000 29.903463876431474
2  22 6 0 0.000000000000000 29.903463876431474
2  23 6 7 0.000000000000000 29.903463876431474
2  24 3 0 0.000000000000000 29.903463876431474
2  25 5 8 0.000000000000000 29.903463876431474
0

0101000
+114 7 -135 7 *
Ed
 0.000000100000000 1 1 0
1  10 0 0.000000000000000 31.000000000000000
2  26 10 0 0.000000000000000 31.000000000000000
2  27 10 10 0.000000000000000 31.000000000000000
2  28 5 0 0.000000000000000 31.000000000000000
0

0101000
+119 0 -114 11 *
Wi

0101100
+113 6 +130 5 +117 5 +112 5 *
Fa
0  0.000000100000000 5 5

0101000
+111 0 *
Ve
0.000000100000000
41.299999999999422 -78.394112909449419 -0.100000000000001
0 0

0101101
*
Ed
 0.000000100000000 1 1 0
1  11 0 0.000000000000000 29.903463876431474
2  29 7 0 0.000000000000000 29.903463876431474
2  30 7 7 0.000000000000000 29.903463876431474
2  31 3 0 0.000000000000000 29.903463876431474
2  32 5 17 0.000000000000000 29.903463876431474
0

0101000
+134 7 -109 7 *
Ed
 0.000000100000000 1 1 0
1  10 0 0.000000000000000 31.000000000000000
2  26 10 0 0.000000000000000 31.000000000000000
2  27 10 10 0.000000000000000 31.000000000000000
2  28 5 0 0.000000000000000 31.000000000000000
0

0101000
+119 0 -109 13 *
Wi

0101100
-108 6 +129 12 +117 12 +107 12 *
Fa
0  0.000000100000000 5 12

0101000
+106 0 *
Ve
0.000000100000000
41.199999999999420 -78.394112909449419 0.300000000000000
0 0

0101101
*
Ed
 0.000000100000000 1 1 0
1  12 0 0.000000000000000 1.570796326794897
2  33 6 0 0.000000000000000 1.570796326794897
2  34 11 0 0.000000000000000 1.570796326794897
0

0101000
+104 0 -114 0 *
Ed
 0.000000100000000 1 1 0
1  13 0 0.000000000000000 29.903463876431474
2  35 9 23 0.000000000000000 29.903463876431474
2  36 12 24 0.000000000000000 29.903463876431474
2  37 6 25 0.000000000000000 29.903463876431474
0

0101000
+126 25 -104 25 *
Wi

0101100
+103 0 -125 0 +102 22 +113 6 *
Fa
0  0.000000100000000 6 0

0101000
+101 0 *
Ve
0.000000100000000
41.199999999999420 -78.394112909449419 0.000000000000000
0 0

0101101
*
Ed
 0.000000100000000 1 1 0
1  14 0 0.000000000000000 1.570796326794897
2  38 7 0 0.000000000000000 1.570796326794897
2  39 11 0 0.000000000000000 1.570796326794897
0

0101000
+99 0 -109 0 *
Ed
 0.000000100000000 1 1 0
1  15 0 0.000000000000000 29.903463876431474
2  40 9 27 0.000000000000000 29.903463876431474
2  41 13 24 0.000000000000000 29.903463876431474
2  42 7 28 0.000000000000000 29.903463876431474
0

0101000
+124 28 -99 28 *
Wi

0101100
+123 0 -98 0 -97 26 +108 6 *
Fa
0  0.000000100000000 7 0

0101000
+96 0 *
Ve
0.000000100000000
-41.199999999999420 -108.297576785880892 0.000000000000000
0 0

0101101
*
Ve
0.000000100000000
-41.199999999999420 -108.297576785880892 0.300000000000000
0 0

0101101
*
Ed
 0.000000100000000 1 1 0
1  16 0 0.000000000000000 0.300000000000000
2  43 14 0 0.000000000000000 0.300000000000000
2  44 8 0 0.000000000000000 0.300000000000000
2  45 15 15 0.000000000000000 0.300000000000000
0

0101000
+94 15 -93 15 *
Ed
 0.000000100000000 1 1 0
1  17 0 0.000000000000000 82.399999999998840
2  46 8 27 0.000000000000000 82.399999999998840
2  47 13 24 0.000000000000000 82.399999999998840
0

0101000
+94 28 -124 28 *
Ed
 0.000000100000000 1 1 0
1  18 0 0.000000000000000 82.399999999998840
2  48 8 23 0.000000000000000 82.399999999998840
2  49 12 24 0.000000000000000 82.399999999998840
0

0101000
+93 25 -126 25 *
Wi

0101100
+92 14 -122 14 -91 26 +90 22 *
Fa
0  0.000000100000000 8 14

0101000
+89 0 *
Ed
 0.000000100000000 1 1 0
1  19 0 0.000000000000000 0.300000000000000
2  50 11 0 0.000000000000000 0.300000000000000
2  51 11 7 0.000000000000000 0.300000000000000
2  52 3 0 0.000000000000000 0.300000000000000
2  53 10 8 0.000000000000000 0.300000000000000
0

0101000
+109 7 -114 7 *
Wi

0101100
+118 5 +87 6 -112 5 +107 12 *
Fa
0  0.000000100000000 10 5

0101000
+86 0 *
Ed
 0.000000100000000 1 1 0
1  20 0 0.000000000000000 0.300000000000000
2  54 16 0 0.000000000000000 0.300000000000000
2  55 9 0 0.000000000000000 0.300000000000000
2  56 11 15 0.000000000000000 0.300000000000000
0

0101000
+99 15 -104 15 *
Wi

0101100
+98 0 -103 0 -84 14 +87 6 *
Fa
0  0.000000100000000 11 0

0101000
+83 0 *
Ve
0.000000100000000
-41.199999999999420 -78.394112909449419 0.300000000000000
0 0

0101101
*
Ed
 0.000000100000000 1 1 0
1  21 0 0.000000000000000 82.399999999998840
2  57 16 23 0.000000000000000 82.399999999998840
2  58 12 24 0.000000000000000 82.399999999998840
0

0101000
+104 25 -81 25 *
Ed
 0.000000100000000 1 1 0
1  22 0 0.000000000000000 29.903463876431474
2  59 14 23 0.000000000000000 29.903463876431474
2  60 12 24 0.000000000000000 29.903463876431474
2  61 17 25 0.000000000000000 29.903463876431474
0

0101000
+81 25 -93 25 *
Wi

0101100
+80 30 +102 30 +79 30 +90 30 *
Ve
0.000000100000002
-1.699999999999974 -101.215914611281207 0.299999999999997
0 0

0101101
*
Ed
 0.000000100000000 1 1 0
1  23 0 0.000000000000000 6.283185307179586
2  62 12 29 0.000000000000000 6.283185307179586
2  63 18 31 0.000000000000000 6.283185307179586
0

0101100
+77 0 -77 0 *
Wi

0101100
-76 0 *
Ve
0.000000100000004
-23.999999999999709 -83.394112909449618 0.299999999999997
0 0

0101101
*
Ed
 0.000000100000000 1 1 0
1  24 0 0.000000000000000 6.283185307179586
2  64 12 29 0.000000000000000 6.283185307179586
2  65 18 32 0.000000000000000 6.283185307179586
0

0101100
+74 0 -74 0 *
Wi

0101100
-73 0 *
Ve
0.000000100000004
20.599999999999717 -83.394112909449419 0.299999999999997
0 0

0101101
*
Ed
 0.000000100000000 1 1 0
1  25 0 0.000000000000000 6.283185307179586
2  66 12 29 0.000000000000000 6.283185307179586
2  67 18 33 0.000000000000000 6.283185307179586
0

0101100
+71 0 -71 0 *
Wi

0101100
-70 0 *
Fa
0  0.000000100000000 12 29

0101000
+78 0 +75 0 +72 0 +69 0 *
Ve
0.000000100000000
-41.199999999999420 -78.394112909449419 0.000000000000000
0 0

0101101
*
Ed
 0.000000100000000 1 1 0
1  26 0 0.000000000000000 82.399999999998840
2  68 16 27 0.000000000000000 82.399999999998840
2  69 13 24 0.000000000000000 82.399999999998840
0

0101000
+99 28 -67 28 *
Ed
 0.000000100000000 1 1 0
1  27 0 0.000000000000000 29.903463876431474
2  70 14 27 0.000000000000000 29.903463876431474
2  71 13 24 0.000000000000000 29.903463876431474
2  72 19 28 0.000000000000000 29.903463876431474
0

0101000
+67 28 -94 28 *
Wi

0101100
+66 35 +97 35 +65 35 +91 35 *
Ve
0.000000100000002
-1.699999999999974 -101.215914611281207 0.000000000000000
0 0

0101101
*
Ed
 0.000000100000000 1 1 0
1  28 0 0.000000000000000 6.283185307179586
2  73 13 34 0.000000000000000 6.283185307179586
2  74 18 31 0.000000000000000 6.283185307179586
0

0101100
+63 0 -63 0 *
Wi

0101100
-62 0 *
Ve
0.000000100000004
-23.999999999999709 -83.394112909449618 0.000000000000000
0 0

0101101
*
Ed
 0.000000100000000 1 1 0
1  29 0 0.000000000000000 6.283185307179586
2  75 13 34 0.000000000000000 6.283185307179586
2  76 18 32 0.000000000000000 6.283185307179586
0

0101100
+60 0 -60 0 *
Wi

0101100
-59 0 *
Ve
0.000000100000004
20.599999999999717 -83.394112909449419 0.000000000000000
0 0

0101101
*
Ed
 0.000000100000000 1 1 0
1  30 0 0.000000000000000 6.283185307179586
2  77 13 34 0.000000000000000 6.283185307179586
2  78 18 33 0.000000000000000 6.283185307179586
0

0101100
+57 0 -57 0 *
Wi

0101100
-56 0 *
Fa
0  0.000000100000000 13 34

0101000
+64 0 +61 0 +58 0 +55 0 *
Ve
0.000000100000000
-41.299999999999422 -108.297576785880892 -0.100000000000001
0 0

0101101
*
Ed
 0.000000100000000 1 1 0
1  31 0 0.000000000000000 1.570796326794897
2  79 19 0 0.000000000000000 1.570796326794897
2  80 15 0 0.000000000000000 1.570796326794897
0

0101000
+94 0 -53 0 *
Ve
0.000000100000000
-41.599999999999419 -108.297576785880892 -0.100000000000001
0 0

0101101
*
Ed
 0.000000100000000 1 1 0
1  32 0 0.000000000000000 1.570796326794897
2  81 17 0 0.000000000000000 1.570796326794897
2  82 15 0 0.000000000000000 1.570796326794897
0

0101000
+93 0 -51 0 *
Ed
 0.000000100000000 1 1 0
1  33 0 0.000000000000000 0.300000000000000
2  83 15 0 0.000000000000000 0.300000000000000
2  84 15 37 0.000000000000000 0.300000000000000
2  85 20 0 0.000000000000000 0.300000000000000
2  86 21 39 0.000000000000000 0.300000000000000
0

0101000
+53 37 -51 37 *
Wi

0101100
+52 0 -50 0 -92 14 +49 36 *
Fa
0  0.000000100000000 15 0

0101000
+48 0 *
Ed
 0.000000100000000 1 1 0
1  34 0 0.000000000000000 0.300000000000000
2  87 16 0 0.000000000000000 0.300000000000000
2  88 14 0 0.000000000000000 0.300000000000000
2  89 22 15 0.000000000000000 0.300000000000000
0

0101000
+67 15 -81 15 *
Wi

0101100
+84 14 -46 14 -66 26 +80 22 *
Fa
0  0.000000100000000 16 14

0101000
+45 0 *
Ve
0.000000100000000
-41.599999999999419 -78.394112909449419 -0.100000000000001
0 0

0101101
*
Ed
 0.000000100000000 1 1 0
1  35 0 0.000000000000000 1.570796326794897
2  90 17 0 0.000000000000000 1.570796326794897
2  91 22 0 0.000000000000000 1.570796326794897
0

0101000
+81 0 -43 0 *
Ed
 0.000000100000000 1 1 0
1  36 0 0.000000000000000 29.903463876431474
2  92 17 0 0.000000000000000 29.903463876431474
2  93 17 37 0.000000000000000 29.903463876431474
2  94 20 0 0.000000000000000 29.903463876431474
2  95 23 39 0.000000000000000 29.903463876431474
0

0101000
+51 37 -43 37 *
Wi

0101100
+50 0 -42 0 +79 22 +41 36 *
Fa
0  0.000000100000000 17 0

0101000
+40 0 *
Ed
 0.000000100000000 1 1 0
1  37 0 37.100000000000001 37.399999999999999
3  96 97CN 18 0 37.100000000000001 37.399999999999999
0

0101000
+63 40 -77 40 *
Wi

0101100
-62 0 -38 31 +76 0 +38 31 *
Fa
0  0.000000100000000 18 31

0101000
+37 0 *
Ed
 0.000000100000000 1 1 0
1  37 0 37.100000000000001 37.399999999999999
3  96 97CN 18 0 37.100000000000001 37.399999999999999
0

0101000
+60 41 -74 41 *
Wi

0101100
-59 0 -35 32 +73 0 +35 32 *
Fa
0  0.000000100000000 18 32

0101000
+34 0 *
Ed
 0.000000100000000 1 1 0
1  37 0 37.100000000000001 37.399999999999999
3  96 97CN 18 0 37.100000000000001 37.399999999999999
0

0101000
+57 42 -71 42 *
Wi

0101100
-56 0 -32 33 +70 0 +32 33 *
Fa
0  0.000000100000000 18 33

0101000
+31 0 *
Ve
0.000000100000000
-41.299999999999422 -78.394112909449419 -0.100000000000001
0 0

0101101
*
Ed
 0.000000100000000 1 1 0
1  38 0 0.000000000000000 1.570796326794897
2  98 22 0 0.000000000000000 1.570796326794897
2  99 19 0 0.000000000000000 1.570796326794897
0

0101000
+67 0 -29 0 *
Ed
 0.000000100000000 1 1 0
1  39 0 0.000000000000000 29.903463876431474
2  100 19 0 0.000000000000000 29.903463876431474
2  101 19 37 0.000000000000000 29.903463876431474
2  102 20 0 0.000000000000000 29.903463876431474
2  103 23 44 0.000000000000000 29.903463876431474
0

0101000
+29 37 -53 37 *
Wi

0101100
+28 0 -52 0 -65 26 +27 36 *
Fa
0  0.000000100000000 19 0

0101000
+26 0 *
Ve
0.000000100000000
-72.199999999999420 -108.297576785880892 0.300000000000000
0 0

0101101
*
Ed
 0.000000100000000 1 1 0
1  40 0 0.000000000000000 0.300000000000000
2  104 21 0 0.000000000000000 0.300000000000000
2  105 24 0 0.000000000000000 0.300000000000000
0

0101000
+24 0 -24 43 *
Ed
 0.000000100000000 1 1 0
1  41 0 0.000000000000000 31.000000000000000
2  106 23 0 0.000000000000000 31.000000000000000
2  107 21 0 0.000000000000000 31.000000000000000
2  108 21 45 0.000000000000000 31.000000000000000
0

0101000
+24 0 -51 46 *
Ed
 0.000000100000000 1 1 0
1  41 0 0.000000000000000 31.000000000000000
2  106 23 0 0.000000000000000 31.000000000000000
2  107 21 0 0.000000000000000 31.000000000000000
2  108 21 45 0.000000000000000 31.000000000000000
0

0101000
+24 0 -53 48 *
Wi

0101100
+23 38 +49 36 -22 38 +21 47 *
Fa
0  0.000000100000000 21 38

0101000
+20 0 *
Ed
 0.000000100000000 1 1 0
1  42 0 0.000000000000000 0.300000000000000
2  109 22 0 0.000000000000000 0.300000000000000
2  110 22 37 0.000000000000000 0.300000000000000
2  111 20 0 0.000000000000000 0.300000000000000
2  112 25 39 0.000000000000000 0.300000000000000
0

0101000
+43 37 -29 37 *
Wi

0101100
+42 0 -28 0 +46 14 +18 36 *
Fa
0  0.000000100000000 22 0

0101000
+17 0 *
Ve
0.000000100000000
-72.199999999999420 -78.394112909449419 0.300000000000000
0 0

0101101
*
Ed
 0.000000100000000 1 1 0
1  43 0 0.000000000000000 31.000000000000000
2  113 25 0 0.000000000000000 31.000000000000000
2  114 25 45 0.000000000000000 31.000000000000000
2  115 23 0 0.000000000000000 31.000000000000000
0

0101000
+43 46 -15 0 *
Ed
 0.000000100000000 1 1 0
1  44 0 0.000000000000000 29.903463876431474
2  116 23 0 0.000000000000000 29.903463876431474
2  117 24 0 0.000000000000000 29.903463876431474
2  118 24 45 0.000000000000000 29.903463876431474
0

0101000
+15 0 -24 0 *
Wi

0101100
+41 36 +14 38 +13 38 +22 38 *
Fa
0  0.000000100000000 23 38

0101000
+12 0 *
Ed
 0.000000100000000 1 1 0
1  43 0 0.000000000000000 31.000000000000000
2  113 25 0 0.000000000000000 31.000000000000000
2  114 25 45 0.000000000000000 31.000000000000000
2  115 23 0 0.000000000000000 31.000000000000000
0

0101000
+29 48 -15 0 *
Wi

0101100
-27 36 +10 47 +13 47 +21 47 *
Fa
0  0.000000100000000 23 47

0101000
+9 0 *
Ed
 0.000000100000000 1 1 0
1  45 0 0.000000000000000 0.300000000000000
2  119 25 0 0.000000000000000 0.300000000000000
2  120 24 0 0.000000000000000 0.300000000000000
0

0101000
+15 0 -15 43 *
Wi

0101100
+7 0 -23 0 -13 0 +13 43 *
Fa
0  0.000000100000000 24 0

0101000
+6 0 *
Wi

0101100
+18 36 -7 38 -14 38 +10 47 *
Fa
0  0.000000100000000 25 38

0101000
+4 0 *
Sh

0101100
+127 4 -120 4 +115 16 +110 4 -105 4 -100 4 -95 4 -88 4 +85 4 -82 4 
+68 0 -54 0 -47 4 -44 4 -39 4 +36 0 +33 0 +30 0 -25 4 +19 4 
-16 4 +11 4 -8 4 +5 49 +3 4 *
So

0100000
+2 0 *

+1 1 