
CASCADE Topology V1, (c) Matra-Datavision
Locations 38
1
1.000000000000000 0.000000000000000 0.000000000000000 0.000000000000000 
0.000000000000000 1.000000000000000 0.000000000000000 0.000000000000000 
0.000000000000000 0.000000000000000 1.000000000000000 0.000000000000000 
1
1.000000000000000 0.000000000000000 0.000000000000000 0.000000000000000 
0.000000000000000 1.000000000000000 0.000000000000000 0.000000000000000 
0.000000000000000 0.000000000000000 1.000000000000000 0.000000000000000 
1
1.000000000000000 0.000000000000000 0.000000000000000 0.000000000000000 
0.000000000000000 1.000000000000000 0.000000000000000 0.000000000000000 
0.000000000000000 0.000000000000000 1.000000000000000 0.000000000000000 
1
1.000000000000000 0.000000000000000 0.000000000000000 0.000000000000000 
0.000000000000000 1.000000000000000 0.000000000000000 0.000000000000000 
0.000000000000000 0.000000000000000 1.000000000000000 0.000000000000000 
2  2 1 3 1 4 -1 0
2  2 -1 0
1
1.000000000000000 0.000000000000000 0.000000000000000 0.000000000000000 
0.000000000000000 1.000000000000000 0.000000000000000 0.000000000000000 
0.000000000000000 0.000000000000000 1.000000000000000 0.000000000000000 
1
1.000000000000000 0.000000000000000 0.000000000000000 0.000000000000000 
0.000000000000000 1.000000000000000 0.000000000000000 0.000000000000000 
0.000000000000000 0.000000000000000 1.000000000000000 0.000000000000000 
1
1.000000000000000 0.000000000000000 0.000000000000000 0.000000000000000 
0.000000000000000 1.000000000000000 0.000000000000000 0.000000000000000 
0.000000000000000 0.000000000000000 1.000000000000000 0.000000000000000 
2  7 1 8 1 9 -1 0
2  9 1 8 -1 7 -1 0
2  8 -1 7 -1 0
2  2 -1 9 1 8 -1 7 -1 0
1
1.000000000000000 0.000000000000000 0.000000000000000 0.000000000000000 
0.000000000000000 1.000000000000000 0.000000000000000 0.000000000000000 
0.000000000000000 0.000000000000000 1.000000000000000 3.000000000000000 
2  7 1 8 1 9 -1 14 1 0
2  14 -1 9 1 8 -1 7 -1 0
2  2 -1 14 -1 9 1 8 -1 7 -1 0
2  3 1 4 -1 0
2  7 1 8 1 9 -1 14 1 2 1 0
2  7 1 8 1 9 -1 2 1 0
1
1.000000000000000 0.000000000000000 0.000000000000000 0.000000000000000 
0.000000000000000 1.000000000000000 0.000000000000000 0.000000000000000 
0.000000000000000 0.000000000000000 1.000000000000000 0.000000000000000 
2  7 1 8 1 9 -1 21 1 0
2  21 -1 9 1 8 -1 7 -1 0
2  21 -1 0
2  7 1 8 1 9 -1 14 1 21 1 0
2  21 -1 14 -1 9 1 8 -1 7 -1 0
2  7 1 8 1 9 -1 21 1 3 1 4 -1 0
2  7 1 8 1 9 -1 2 1 3 1 4 -1 0
1
1.000000000000000 0.000000000000000 0.000000000000000 180.000000000000000 
0.000000000000000 1.000000000000000 0.000000000000000 196.470125492503939 
0.000000000000000 0.000000000000000 1.000000000000000 0.000000000000000 
1
1.000000000000000 0.000000000000000 0.000000000000000 -180.000000000000000 
0.000000000000000 1.000000000000000 0.000000000000000 196.470125492503939 
0.000000000000000 0.000000000000000 1.000000000000000 0.000000000000000 
2  3 1 4 -1 30 -1 0
2  3 1 4 -1 29 -1 0
2  7 1 8 1 9 -1 14 1 21 1 3 1 4 -1 0
2  7 1 8 1 9 -1 14 1 2 1 3 1 4 -1 0
2  21 1 3 1 4 -1 0
2  2 1 21 -1 0
2  29 -1 0
2  30 -1 0
Curve2ds 82
1 4.35337489126828370 0.00000000000000000 0.00000000000000000 -1.00000000000000000 
1 1.21178223767849280 0.00000000000000000 0.00000000000000000 -1.00000000000000000 
1 1.92981041591130054 0.00000000000000000 0.00000000000000000 -1.00000000000000000 
1 6.28318530717958801 0.00000000000000000 0.00000000000000000 -1.00000000000000000 
1 0.00000000000000000 0.00000000000000000 1.00000000000000000 0.00000000000000000 
2 94.55989084453675275 -38.38383389569847282 1.00000000000000000 0.00000000000000000 -0.00000000000000000 1.00000000000000000 5.00000000000000000
2 195.00000000000000000 -37.17478348783700426 1.00000000000000000 0.00000000000000000 -0.00000000000000000 1.00000000000000000 5.00000000000000000
1 0.00000000000000000 -3.00000000000000000 1.00000000000000000 0.00000000000000000 
2 94.55989084453675275 -38.38383389569847282 1.00000000000000000 0.00000000000000000 -0.00000000000000000 1.00000000000000000 5.00000000000000000
2 -37.17478348783700426 195.00000000000000000 0.00000000000000000 1.00000000000000000 1.00000000000000000 -0.00000000000000000 5.00000000000000000
1 0.00000000000000000 -3.00000000000000000 1.00000000000000000 0.00000000000000000 
2 -100.44010915546319040 -557.99907616636164676 1.00000000000000000 0.00000000000000000 -0.00000000000000000 1.00000000000000000 550.00000000000000000
1 3.14159265358979312 -3.00000000000000000 -1.00000000000000000 0.00000000000000000 
2 -556.79002575850017820 0.00000000000004718 0.00000000000000000 1.00000000000000000 1.00000000000000000 -0.00000000000000000 550.00000000000000000
1 0.00000000000000000 0.00000000000000000 1.00000000000000000 0.00000000000000000 
2 -100.44010915546319040 -557.99907616636164676 1.00000000000000000 0.00000000000000000 -0.00000000000000000 1.00000000000000000 550.00000000000000000
1 3.14159265358979312 0.00000000000000000 -1.00000000000000000 -0.00000000000000000 
2 0.00000000000005060 -556.79002575850017820 1.00000000000000000 0.00000000000000000 -0.00000000000000000 1.00000000000000000 550.00000000000000000
1 0.00000000000000000 0.00000000000000000 1.00000000000000000 0.00000000000000000 
1 0.00000000000000000 -3.00000000000000000 1.00000000000000000 0.00000000000000000 
2 -100.44010915546319040 -557.99907616636164676 1.00000000000000000 0.00000000000000000 -0.00000000000000000 1.00000000000000000 550.00000000000000000
1 0.00000000000000000 -0.00000000000000000 1.00000000000000000 0.00000000000000000 
2 -0.00000000000005060 -556.79002575850017820 -1.00000000000000000 0.00000000000000000 0.00000000000000000 1.00000000000000000 550.00000000000000000
1 4.35337489126828370 0.00000000000000000 0.00000000000000000 -1.00000000000000000 
1 1.21178223767849280 0.00000000000000000 0.00000000000000000 -1.00000000000000000 
1 1.21178223767849280 0.00000000000000000 0.00000000000000000 -1.00000000000000000 
1 0.00000000000000000 -3.00000000000000000 1.00000000000000000 0.00000000000000000 
2 -556.79002575850017820 -0.00000000000005402 0.00000000000000000 -1.00000000000000000 1.00000000000000000 0.00000000000000000 550.00000000000000000
1 0.00000000000000160 0.00000000000000000 0.00000000000000000 -1.00000000000000000 
1 99.55989084453675275 -38.38383389569847282 -0.00000000000000000 1.00000000000000000 
1 200.00000000000000000 -37.17478348783700426 0.00000000000000000 1.00000000000000000 
1 99.55989084453675275 -38.38383389569847282 -0.00000000000000000 1.00000000000000000 
1 -37.17478348783700426 200.00000000000000000 1.00000000000000000 0.00000000000000000 
1 0.00000000000000000 0.00000000000000000 1.00000000000000000 0.00000000000000000 
1 0.00000000000000000 -3.00000000000000000 1.00000000000000000 0.00000000000000000 
2 94.55989084453675275 -38.38383389569847282 1.00000000000000000 0.00000000000000000 -0.00000000000000000 1.00000000000000000 5.00000000000000000
2 -195.00000000000000000 -37.17478348783700426 -1.00000000000000000 0.00000000000000000 0.00000000000000000 1.00000000000000000 5.00000000000000000
2 -37.17478348783700426 -195.00000000000000000 0.00000000000000000 -1.00000000000000000 1.00000000000000000 0.00000000000000000 5.00000000000000000
1 99.55989084453675275 -38.38383389569847282 0.00000000000000000 1.00000000000000000 
1 -200.00000000000000000 -37.17478348783700426 0.00000000000000000 1.00000000000000000 
1 -37.17478348783700426 -200.00000000000000000 1.00000000000000000 0.00000000000000000 
1 0.00000000000000000 0.00000000000000000 1.00000000000000000 0.00000000000000000 
1 0.00000000000000000 -3.00000000000000000 1.00000000000000000 0.00000000000000000 
2 94.55989084453675275 -3.20299290019812588 1.00000000000000000 0.00000000000000000 -0.00000000000000000 1.00000000000000000 5.00000000000000000
2 -195.00000000000000000 -1.99394249233665732 -1.00000000000000000 0.00000000000000000 0.00000000000000000 1.00000000000000000 5.00000000000000000
2 -1.99394249233665732 -195.00000000000000000 0.00000000000000000 -1.00000000000000000 1.00000000000000000 0.00000000000000000 5.00000000000000000
1 0.00000000000000000 0.00000000000000000 1.00000000000000000 0.00000000000000000 
1 0.00000000000000000 -3.00000000000000000 1.00000000000000000 0.00000000000000000 
2 -89.98800723071627772 -516.14255200021898418 1.00000000000000000 0.00000000000000000 -0.00000000000000000 1.00000000000000000 550.12834999999995489
2 -10.45210192474696953 -514.93350159235751562 -1.00000000000000000 0.00000000000000000 0.00000000000000000 1.00000000000000000 550.12834999999995489
1 0.00000000000000000 0.00000000000000000 1.00000000000000000 0.00000000000000000 
2 -89.98800723071627772 -516.14255200021898418 1.00000000000000000 0.00000000000000000 -0.00000000000000000 1.00000000000000000 550.12834999999995489
2 10.45210192474696953 -514.93350159235751562 1.00000000000000000 0.00000000000000000 -0.00000000000000000 1.00000000000000000 550.12834999999995489
1 0.00000000000000000 0.00000000000000000 1.00000000000000000 0.00000000000000000 
2 94.55989084453675275 -3.20299290019812588 1.00000000000000000 0.00000000000000000 -0.00000000000000000 1.00000000000000000 5.00000000000000000
2 195.00000000000000000 -1.99394249233665732 1.00000000000000000 0.00000000000000000 -0.00000000000000000 1.00000000000000000 5.00000000000000000
2 0.00000000000000000 0.00000000000000000 -1.00000000000000000 0.00000000000000000 0.00000000000000000 1.00000000000000000 1.69999999999999996
1 0.00000000000000000 0.00000000000000000 1.00000000000000000 0.00000000000000000 
2 180.00000000000000000 -14.40529561334869868 1.00000000000000000 0.00000000000000000 -0.00000000000000000 1.00000000000000000 1.69999999999998863
2 -180.00000000000000000 -14.40529561334869868 1.00000000000000000 0.00000000000000000 -0.00000000000000000 1.00000000000000000 1.69999999999998863
2 -514.93350159235751562 -10.45210192474697308 0.00000000000000000 -1.00000000000000000 1.00000000000000000 0.00000000000000000 550.12834999999995489
1 0.00000000000000000 -3.00000000000000000 1.00000000000000000 0.00000000000000000 
2 -89.98800723071627772 -516.14255200021898418 1.00000000000000000 0.00000000000000000 -0.00000000000000000 1.00000000000000000 550.12834999999995489
2 -514.93350159235751562 10.45210192474696598 0.00000000000000000 1.00000000000000000 1.00000000000000000 -0.00000000000000000 550.12834999999995489
1 0.00000000000000000 -3.00000000000000000 1.00000000000000000 0.00000000000000000 
2 94.55989084453675275 -3.20299290019812588 1.00000000000000000 0.00000000000000000 -0.00000000000000000 1.00000000000000000 5.00000000000000000
2 -1.99394249233665732 195.00000000000000000 0.00000000000000000 1.00000000000000000 1.00000000000000000 -0.00000000000000000 5.00000000000000000
2 -14.40529561334869868 -180.00000000000000000 0.00000000000000000 1.00000000000000000 -1.00000000000000000 0.00000000000000000 1.69999999999999996
1 6.28318530717958623 2.99999999999999867 -1.00000000000000000 0.00000000000000000 
2 -14.40529561334869868 180.00000000000000000 0.00000000000000000 1.00000000000000000 -1.00000000000000000 0.00000000000000000 1.69999999999999996
1 6.28318530717958623 2.99999999999999867 -1.00000000000000000 0.00000000000000000 
1 6.28318530717958801 0.00000000000000000 0.00000000000000000 -1.00000000000000000 
1 1.22543119774445208 0.00000000000000000 0.00000000000000000 -1.00000000000000000 
1 1.22543119774483000 0.00000000000000000 0.00000000000000000 -1.00000000000000000 
1 0.00000000000000160 0.00000000000000000 0.00000000000000000 -1.00000000000000000 
1 1.22543119774445208 0.00000000000000000 0.00000000000000000 -1.00000000000000000 
1 1.22543119774483000 0.00000000000000000 0.00000000000000000 -1.00000000000000000 
1 1.58979685795190839 0.00000000000000000 0.00000000000000000 -1.00000000000000000 
1 41.88557343452191617 0.00000000000000000 0.00000000000000000 -1.00000000000000000 
8 0.00000000000000000 3.00000000000000000
1 1.58979685795190839 0.00000000000000000 0.00000000000000000 -1.00000000000000000 
1 6.28318530717958623 0.00000000000000000 0.00000000000000000 1.00000000000000000 
1 0.00000000000000000 0.00000000000000000 0.00000000000000000 1.00000000000000000 
Curves 28
1 -193.24324324324322788 169.01941921918086109 0.00000000000000000 -0.00000000000000000 -0.00000000000000000 1.00000000000000000 
1 -200.00000000000000000 173.70063761801563373 0.00000000000000000 -0.00000000000000000 -0.00000000000000000 1.00000000000000000 
2 -195.00000000000000000 173.70063761801563373 0.00000000000000000 0.00000000000000000 0.00000000000000000 -1.00000000000000000 -1.00000000000000000 -0.00000000000000000 -0.00000000000000000 -0.00000000000000000 1.00000000000000000 0.00000000000000000 5.00000000000000000
2 -195.00000000000000000 173.70063761801563373 0.00000000000000000 0.00000000000000000 0.00000000000000000 -1.00000000000000000 -1.00000000000000000 -0.00000000000000000 -0.00000000000000000 -0.00000000000000000 1.00000000000000000 0.00000000000000000 5.00000000000000000
2 -0.00000000000005060 -345.91460465264754021 0.00000000000000000 0.00000000000000000 0.00000000000000000 -1.00000000000000000 -1.00000000000000000 -0.00000000000000000 -0.00000000000000000 -0.00000000000000000 1.00000000000000000 0.00000000000000000 550.00000000000000000
2 -0.00000000000005060 -345.91460465264754021 0.00000000000000000 0.00000000000000000 0.00000000000000000 -1.00000000000000000 -1.00000000000000000 -0.00000000000000000 -0.00000000000000000 -0.00000000000000000 1.00000000000000000 0.00000000000000000 550.00000000000000000
2 0.00000000000005060 -345.91460465264754021 0.00000000000000000 0.00000000000000000 0.00000000000000000 1.00000000000000000 1.00000000000000000 0.00000000000000000 -0.00000000000000000 -0.00000000000000000 1.00000000000000000 0.00000000000000000 550.00000000000000000
1 193.24324324324322788 169.01941921918086109 0.00000000000000000 0.00000000000000000 0.00000000000000000 1.00000000000000000 
1 -200.00000000000000000 208.88147861351598067 0.00000000000000000 -0.00000000000000000 -0.00000000000000000 1.00000000000000000 
1 -200.00000000000000000 173.70063761801563373 0.00000000000000000 -0.00000000000000000 1.00000000000000000 -0.00000000000000000 
1 -200.00000000000000000 173.70063761801563373 0.00000000000000000 -0.00000000000000000 1.00000000000000000 -0.00000000000000000 
2 195.00000000000000000 173.70063761801563373 0.00000000000000000 0.00000000000000000 0.00000000000000000 1.00000000000000000 1.00000000000000000 0.00000000000000000 -0.00000000000000000 -0.00000000000000000 1.00000000000000000 0.00000000000000000 5.00000000000000000
1 200.00000000000000000 173.70063761801563373 0.00000000000000000 0.00000000000000000 1.00000000000000000 0.00000000000000000 
2 195.00000000000000000 208.88147861351598067 0.00000000000000000 0.00000000000000000 0.00000000000000000 1.00000000000000000 1.00000000000000000 0.00000000000000000 -0.00000000000000000 -0.00000000000000000 1.00000000000000000 0.00000000000000000 5.00000000000000000
2 10.45210192474696953 -304.05808048650487763 0.00000000000000000 0.00000000000000000 0.00000000000000000 1.00000000000000000 1.00000000000000000 0.00000000000000000 -0.00000000000000000 -0.00000000000000000 1.00000000000000000 0.00000000000000000 550.12834999999995489
2 -10.45210192474696953 -304.05808048650487763 0.00000000000000000 0.00000000000000000 0.00000000000000000 -1.00000000000000000 -1.00000000000000000 -0.00000000000000000 -0.00000000000000000 -0.00000000000000000 1.00000000000000000 0.00000000000000000 550.12834999999995489
2 -195.00000000000000000 208.88147861351598067 0.00000000000000000 0.00000000000000000 0.00000000000000000 -1.00000000000000000 -1.00000000000000000 -0.00000000000000000 -0.00000000000000000 -0.00000000000000000 1.00000000000000000 0.00000000000000000 5.00000000000000000
2 0.00000000000000000 0.00000000000000000 0.00000000000000000 -0.00000000000000000 -0.00000000000000000 -1.00000000000000000 -1.00000000000000000 0.00000000000000000 0.00000000000000000 0.00000000000000000 1.00000000000000000 -0.00000000000000000 1.69999999999999996
2 -10.45210192474696953 -304.05808048650487763 0.00000000000000000 0.00000000000000000 0.00000000000000000 -1.00000000000000000 -1.00000000000000000 -0.00000000000000000 -0.00000000000000000 -0.00000000000000000 1.00000000000000000 0.00000000000000000 550.12834999999995489
2 -195.00000000000000000 208.88147861351598067 0.00000000000000000 0.00000000000000000 0.00000000000000000 -1.00000000000000000 -1.00000000000000000 -0.00000000000000000 -0.00000000000000000 -0.00000000000000000 1.00000000000000000 0.00000000000000000 5.00000000000000000
2 180.00000000000000000 196.47012549250393931 2.99999999999999867 0.00000000000000000 0.00000000000000000 1.00000000000000000 -1.00000000000000000 0.00000000000000000 0.00000000000000000 0.00000000000000000 -1.00000000000000000 0.00000000000000000 1.69999999999999996
2 -180.00000000000000000 196.47012549250393931 2.99999999999999867 0.00000000000000000 0.00000000000000000 1.00000000000000000 -1.00000000000000000 0.00000000000000000 0.00000000000000000 0.00000000000000000 -1.00000000000000000 0.00000000000000000 1.69999999999999996
1 200.00000000000000000 173.70063761801563373 0.00000000000000000 0.00000000000000000 0.00000000000000000 1.00000000000000000 
1 -196.69270134341326184 213.58623813574752148 0.00000000000000000 -0.00000000000000000 -0.00000000000000000 1.00000000000000000 
1 200.00000000000000000 208.88147861351598067 0.00000000000000000 0.00000000000000000 0.00000000000000000 1.00000000000000000 
1 196.69270134341326184 213.58623813574752148 0.00000000000000000 0.00000000000000000 0.00000000000000000 1.00000000000000000 
1 0.00000000000006750 245.97096878187437596 0.00000000000000000 0.00000000000000000 0.00000000000000000 1.00000000000000000 
1 -1.69999999999999996 0.00000000000000000 0.00000000000000000 0.00000000000000006 0.00000000000000000 1.00000000000000000 
Polygon3D 0
PolygonOnTriangulations 0
Surfaces 19
2 -195.00000000000000000 173.70063761801563373 0.00000000000000000 0.00000000000000000 -0.00000000000000000 -1.00000000000000000 -1.00000000000000000 -0.00000000000000000 0.00000000000000000 -0.00000000000000000 1.00000000000000000 -0.00000000000000000 5.00000000000000000
2 -0.00000000000005060 -345.91460465264754021 0.00000000000000000 0.00000000000000000 -0.00000000000000000 -1.00000000000000000 -1.00000000000000000 -0.00000000000000000 0.00000000000000000 -0.00000000000000000 1.00000000000000000 -0.00000000000000000 550.00000000000000000
2 0.00000000000005060 -345.91460465264754021 0.00000000000000000 -0.00000000000000000 -0.00000000000000000 -1.00000000000000000 1.00000000000000000 0.00000000000000000 0.00000000000000000 -0.00000000000000000 1.00000000000000000 -0.00000000000000000 550.00000000000000000
1 -200.00000000000000000 173.70063761801563373 0.00000000000000000 1.00000000000000000 -0.00000000000000000 -0.00000000000000000 0.00000000000000000 1.00000000000000000 -0.00000000000000000 -0.00000000000000000 -0.00000000000000000 -1.00000000000000000 
1 -100.44010915546324725 212.08447151371410655 0.00000000000000000 -0.00000000000000000 -0.00000000000000000 1.00000000000000000 -1.00000000000000000 0.00000000000000000 -0.00000000000000000 -0.00000000000000000 1.00000000000000000 0.00000000000000000 
1 0.00000000000000000 210.87542110585263799 0.00000000000000000 -0.00000000000000000 -0.00000000000000000 -1.00000000000000000 -1.00000000000000000 0.00000000000000000 0.00000000000000000 0.00000000000000000 1.00000000000000000 -0.00000000000000000 
1 -100.44010915546324725 212.08447151371410655 0.00000000000000000 -0.00000000000000000 -0.00000000000000000 1.00000000000000000 -1.00000000000000000 0.00000000000000000 -0.00000000000000000 -0.00000000000000000 1.00000000000000000 0.00000000000000000 
1 -0.00000000000000342 210.87542110585263799 2.99999999999999867 -0.00000000000000000 -0.00000000000000000 1.00000000000000000 0.00000000000000000 1.00000000000000000 0.00000000000000000 -1.00000000000000000 0.00000000000000000 0.00000000000000000 
2 0.00000000000005060 -345.91460465264754021 0.00000000000000000 -0.00000000000000000 -0.00000000000000000 -1.00000000000000000 1.00000000000000000 0.00000000000000000 0.00000000000000000 -0.00000000000000000 1.00000000000000000 -0.00000000000000000 550.00000000000000000
1 100.44010915546324725 212.08447151371410655 0.00000000000000000 0.00000000000000000 0.00000000000000000 1.00000000000000000 1.00000000000000000 0.00000000000000000 -0.00000000000000000 -0.00000000000000000 1.00000000000000000 0.00000000000000000 
2 195.00000000000000000 173.70063761801563373 0.00000000000000000 -0.00000000000000000 -0.00000000000000000 -1.00000000000000000 1.00000000000000000 0.00000000000000000 0.00000000000000000 -0.00000000000000000 1.00000000000000000 -0.00000000000000000 5.00000000000000000
2 -195.00000000000000000 208.88147861351598067 0.00000000000000000 0.00000000000000000 -0.00000000000000000 -1.00000000000000000 -1.00000000000000000 -0.00000000000000000 0.00000000000000000 -0.00000000000000000 1.00000000000000000 -0.00000000000000000 5.00000000000000000
2 195.00000000000000000 208.88147861351598067 0.00000000000000000 -0.00000000000000000 -0.00000000000000000 -1.00000000000000000 1.00000000000000000 0.00000000000000000 0.00000000000000000 -0.00000000000000000 1.00000000000000000 -0.00000000000000000 5.00000000000000000
2 10.45210192474696953 -304.05808048650487763 0.00000000000000000 -0.00000000000000000 -0.00000000000000000 -1.00000000000000000 1.00000000000000000 0.00000000000000000 0.00000000000000000 -0.00000000000000000 1.00000000000000000 -0.00000000000000000 550.12834999999995489
2 -10.45210192474696953 -304.05808048650487763 0.00000000000000000 0.00000000000000000 -0.00000000000000000 -1.00000000000000000 -1.00000000000000000 -0.00000000000000000 0.00000000000000000 -0.00000000000000000 1.00000000000000000 -0.00000000000000000 550.12834999999995489
1 0.00000000000000000 0.00000000000000000 0.00000000000000000 -0.00000000000000000 -0.00000000000000000 -1.00000000000000000 1.00000000000000000 -0.00000000000000000 0.00000000000000000 0.00000000000000000 1.00000000000000000 -0.00000000000000000 
2 0.00000000000000000 0.00000000000000000 0.00000000000000000 0.00000000000000000 0.00000000000000000 1.00000000000000000 -1.00000000000000000 0.00000000000000000 0.00000000000000000 -0.00000000000000000 1.00000000000000000 -0.00000000000000000 1.69999999999999996
1 200.00000000000000000 173.70063761801563373 0.00000000000000000 -1.00000000000000000 0.00000000000000000 0.00000000000000000 0.00000000000000000 1.00000000000000000 0.00000000000000000 0.00000000000000000 0.00000000000000000 -1.00000000000000000 
1 -0.00000000000003785 204.08539534735245979 0.00000000000000000 -1.00000000000000000 0.00000000000000252 0.00000000000000000 0.00000000000000252 1.00000000000000000 0.00000000000000000 0.00000000000000000 0.00000000000000000 -1.00000000000000000 
Triangulations 0

TShapes 82
Ve
0.000000100000043
-193.243243243243228 169.019419219180861 0.000000000000000
0 0

0101101
*
Ve
0.000000100000043
-193.243243243243228 169.019419219180861 3.000000000000000
0 0

0101101
*
Ed
 0.000000100000043 1 1 0
1  1 0 0.000000000000000 3.000000000000000
2  1 1 0 0.000000000000000 3.000000000000000
2  2 2 0 0.000000000000000 3.000000000000000
4 G1 1 0 2 0
2  3 3 6 0.000000000000000 3.000000000000000
0

0101000
+82 6 -81 6 *
Ve
0.000000100000000
-200.000000000000000 173.700637618015634 0.000000000000000
0 0

0101101
*
Ve
0.000000100000000
-200.000000000000000 173.700637618015634 3.000000000000000
0 0

0101101
*
Ed
 0.000000100000000 1 1 0
1  2 0 0.000000000000000 3.000000000000000
2  4 1 0 0.000000000000000 3.000000000000000
4 G1 1 0 4 0
0

0101000
+79 6 -78 6 *
Ed
 0.000000100000000 1 1 0
1  3 0 4.353374891268284 6.283185307179588
2  5 1 11 4.353374891268284 6.283185307179588
2  6 5 12 4.353374891268284 6.283185307179588
2  7 6 13 4.353374891268284 6.283185307179588
0

0101000
+82 13 -79 13 *
Ed
 0.000000100000000 1 1 0
1  4 0 4.353374891268284 6.283185307179588
2  8 1 16 4.353374891268284 6.283185307179588
2  9 7 12 4.353374891268284 6.283185307179588
2  10 8 17 4.353374891268284 6.283185307179588
0

0101000
+81 17 -78 17 *
Wi

0101100
+80 0 -77 0 -76 10 +75 15 *
Fa
0  0.000000100000000 1 0

0101000
+74 0 *
Ve
0.000000100000117
0.000000000000000 204.085395347352460 3.000000000000000
0 0

0101101
*
Ed
 0.000000100000000 1 1 0
1  5 0 1.211782237678493 1.570796326794897
2  11 2 16 1.211782237678493 1.570796326794897
2  12 7 12 1.211782237678493 1.570796326794897
2  13 3 17 1.211782237678493 1.570796326794897
2  14 8 17 1.211782237678493 1.570796326794897
0

0101000
+81 17 -72 17 *
Ve
0.000000100000117
0.000000000000000 204.085395347352460 0.000000000000000
0 0

0101101
*
Ed
 0.000000100000000 1 1 0
1  6 0 1.211782237678493 1.570796326794897
2  15 2 11 1.211782237678493 1.570796326794897
2  16 5 12 1.211782237678493 1.570796326794897
2  17 3 13 1.211782237678493 1.570796326794897
2  18 6 13 1.211782237678493 1.570796326794897
0

0101000
+82 13 -70 13 *
Ve
0.000000100000043
193.243243243243228 169.019419219180861 0.000000000000000
0 0

0101101
*
Ed
 0.000000100000000 1 1 0
1  7 0 1.211782237678493 1.570796326794897
2  19 9 11 1.211782237678493 1.570796326794897
2  20 9 16 1.211782237678493 1.570796326794897
2  21 10 12 1.211782237678493 1.570796326794897
2  22 3 23 1.211782237678493 1.570796326794897
2  23 6 23 1.211782237678493 1.570796326794897
0

0101000
+68 0 -70 23 *
Ed
 0.000000100000043 1 1 0
1  8 0 0.000000000000000 3.000000000000000
2  24 11 0 0.000000000000000 3.000000000000000
2  25 9 0 0.000000000000000 3.000000000000000
4 G1 11 0 9 0
2  26 3 24 0.000000000000000 3.000000000000000
0

0101000
+68 10 -68 15 *
Ed
 0.000000100000000 1 1 0
1  7 0 1.211782237678493 1.570796326794897
2  19 9 11 1.211782237678493 1.570796326794897
2  20 9 16 1.211782237678493 1.570796326794897
2  21 10 12 1.211782237678493 1.570796326794897
2  27 3 26 1.211782237678493 1.570796326794897
2  28 8 26 1.211782237678493 1.570796326794897
0

0101000
+68 0 -72 26 *
Wi

0101100
-71 19 -80 2 +69 20 -67 22 +66 21 +65 25 *
Fa
0  0.000000100000000 3 0

0101000
+64 0 *
Ve
0.000000100000000
-200.000000000000000 208.881478613515981 0.000000000000000
0 0

0101101
*
Ve
0.000000100000000
-200.000000000000000 208.881478613515981 3.000000000000000
0 0

0101101
*
Ed
 0.000000100000000 1 1 0
1  9 0 0.000000000000000 3.000000000000000
2  29 12 0 0.000000000000000 3.000000000000000
4 G1 4 0 12 0
0

0101000
+62 6 -61 6 *
Ed
 0.000000100000000 1 1 0
1  10 0 0.000000000000000 35.180840995500347
2  30 5 12 0.000000000000000 35.180840995500347
2  31 6 13 0.000000000000000 35.180840995500347
0

0101000
+79 13 -62 13 *
Ed
 0.000000100000000 1 1 0
1  11 0 0.000000000000000 35.180840995500347
2  32 7 12 0.000000000000000 35.180840995500347
2  33 8 17 0.000000000000000 35.180840995500347
0

0101000
+78 17 -61 17 *
Wi

0101100
+77 0 -60 0 -59 10 +58 15 *
Fa
0  0.000000100000000 4 0

0101000
+57 0 *
Ve
0.000000100000000
200.000000000000000 173.700637618015634 0.000000000000000
0 0

0101101
*
Ed
 0.000000100000000 1 1 0
1  12 0 4.353374891268284 6.283185307179588
2  34 11 11 4.353374891268284 6.283185307179588
2  35 11 16 4.353374891268284 6.283185307179588
2  36 10 12 4.353374891268284 6.283185307179588
2  37 6 23 4.353374891268284 6.283185307179588
2  38 8 26 4.353374891268284 6.283185307179588
0

0101000
+68 0 -55 0 *
Ve
0.000000100000000
200.000000000000000 208.881478613515981 0.000000000000000
0 0

0101101
*
Ed
 0.000000100000000 1 1 0
1  13 0 0.000000000000000 35.180840995500347
2  39 10 12 0.000000000000000 35.180840995500347
2  40 6 23 0.000000000000000 35.180840995500347
2  41 8 26 0.000000000000000 35.180840995500347
0

0101000
+55 0 -53 0 *
Ve
0.000000100002162
196.692701343413262 213.586238135747521 0.000000000000000
0 0

0101101
*
Ed
 0.000000100000000 1 1 0
1  14 0 0.000000000000002 1.225431197744452
2  42 13 11 0.000000000000002 1.225431197744452
2  43 13 16 0.000000000000002 1.225431197744452
2  44 10 12 0.000000000000002 1.225431197744452
2  45 6 23 0.000000000000002 1.225431197744452
2  46 8 26 0.000000000000002 1.225431197744452
0

0101000
+53 0 -51 0 *
Ve
0.000000100000135
0.000000000000000 245.970968781874376 0.000000000000000
0 0

0101101
*
Ed
 0.000000100000000 1 1 0
1  15 0 1.225431197744830 1.589796857951908
2  47 14 11 1.225431197744830 1.589796857951908
2  48 14 16 1.225431197744830 1.589796857951908
2  49 10 12 1.225431197744830 1.589796857951908
2  50 6 23 1.225431197744830 1.589796857951908
0

0101000
+51 0 -49 23 *
Ve
0.000000100002162
-196.692701343413262 213.586238135747521 0.000000000000000
0 0

0101101
*
Ed
 0.000000100000000 1 1 0
1  16 0 1.225431197744830 1.589796857951908
2  51 15 11 1.225431197744830 1.589796857951908
2  52 5 12 1.225431197744830 1.589796857951908
2  53 6 13 1.225431197744830 1.589796857951908
0

0101000
+47 13 -49 13 *
Ed
 0.000000100000000 1 1 0
1  17 0 0.000000000000002 1.225431197744452
2  54 12 11 0.000000000000002 1.225431197744452
2  55 5 12 0.000000000000002 1.225431197744452
2  56 6 13 0.000000000000002 1.225431197744452
0

0101000
+62 13 -47 13 *
Wi

0101100
-54 27 +67 27 -52 27 -69 28 -50 27 +76 28 -48 27 +59 28 +46 28 +45 28 
*
Ve
0.000000100000000
-1.700000000000000 0.000000000000000 0.000000000000000
0 0

0101101
*
Ed
 0.000000100000000 1 1 0
1  18 0 0.000000000000000 6.283185307179586
2  57 16 0 0.000000000000000 6.283185307179586
2  58 17 0 0.000000000000000 6.283185307179586
2  59 6 31 0.000000000000000 6.283185307179586
2  60 6 32 0.000000000000000 6.283185307179586
0

0101000
+43 0 -43 0 *
Wi

0101100
-42 29 *
Wi

0101100
-42 30 *
Fa
0  0.000000100000000 6 18

0101000
+44 0 +41 0 +40 0 *
Ve
0.000000100000135
0.000000000000000 245.970968781874376 3.000000000000000
0 0

0101101
*
Ed
 0.000000100000000 1 1 0
1  15 0 1.225431197744830 1.589796857951908
2  47 14 11 1.225431197744830 1.589796857951908
2  48 14 16 1.225431197744830 1.589796857951908
2  49 10 12 1.225431197744830 1.589796857951908
2  61 8 26 1.225431197744830 1.589796857951908
0

0101000
+51 0 -38 26 *
Ve
0.000000100002162
-196.692701343413262 213.586238135747521 3.000000000000000
0 0

0101101
*
Ed
 0.000000100000000 1 1 0
1  19 0 1.225431197744830 1.589796857951908
2  62 15 16 1.225431197744830 1.589796857951908
2  63 7 12 1.225431197744830 1.589796857951908
2  64 8 17 1.225431197744830 1.589796857951908
0

0101000
+36 17 -38 17 *
Ed
 0.000000100000000 1 1 0
1  20 0 0.000000000000002 1.225431197744452
2  65 12 16 0.000000000000002 1.225431197744452
2  66 7 12 0.000000000000002 1.225431197744452
2  67 8 17 0.000000000000002 1.225431197744452
0

0101000
+61 17 -36 17 *
Wi

0101100
+54 33 -65 33 +52 33 +71 34 +50 33 -75 34 +37 33 -58 34 -35 34 -34 34 
*
Ve
0.000000100000000
178.300000000000011 196.470125492503939 2.999999999999999
0 0

0101101
*
Ed
 0.000000100000000 1 1 0
1  21 0 0.000000000000000 6.283185307179586
2  68 8 18 0.000000000000000 6.283185307179586
2  69 17 29 0.000000000000000 6.283185307179586
0

0101100
+32 0 -32 0 *
Wi

0101100
-31 0 *
Ve
0.000000100000000
-181.699999999999989 196.470125492503939 2.999999999999999
0 0

0101101
*
Ed
 0.000000100000000 1 1 0
1  22 0 0.000000000000000 6.283185307179586
2  70 8 18 0.000000000000000 6.283185307179586
2  71 17 30 0.000000000000000 6.283185307179586
0

0101100
+29 0 -29 0 *
Wi

0101100
-28 0 *
Fa
0  0.000000100000000 8 18

0101000
+33 0 +30 0 +27 0 *
Ed
 0.000000100000000 1 1 0
1  23 0 0.000000000000000 3.000000000000000
2  72 11 0 0.000000000000000 3.000000000000000
4 G1 11 0 18 0
0

0101000
+55 10 -55 15 *
Wi

0101100
+66 0 -25 0 -54 10 +54 15 *
Fa
0  0.000000100000000 11 0

0101000
+24 0 *
Ed
 0.000000100002162 1 1 0
1  24 0 0.000000000000000 3.000000000000000
2  73 12 0 0.000000000000000 3.000000000000000
2  74 15 0 0.000000000000000 3.000000000000000
4 G1 12 0 15 0
0

0101000
+47 6 -36 6 *
Wi

0101100
+60 0 -22 0 -45 10 +34 15 *
Fa
0  0.000000100000000 12 0

0101000
+21 0 *
Ed
 0.000000100000000 1 1 0
1  25 0 0.000000000000000 3.000000000000000
2  75 13 0 0.000000000000000 3.000000000000000
4 G1 18 0 13 0
0

0101000
+53 10 -53 15 *
Wi

0101100
+25 0 -19 0 -52 10 +52 15 *
Fa
0  0.000000100000000 18 0

0101000
+18 0 *
Ed
 0.000000100002162 1 1 0
1  26 0 0.000000000000000 3.000000000000000
2  76 13 0 0.000000000000000 3.000000000000000
2  77 14 0 0.000000000000000 3.000000000000000
4 G1 13 0 14 0
0

0101000
+51 10 -51 15 *
Wi

0101100
+19 0 -16 0 -50 10 +50 15 *
Fa
0  0.000000100000000 13 0

0101000
+15 0 *
Ed
 0.000000100000135 1 1 0
1  27 0 0.000000000000000 3.000000000000000
2  78 14 0 0.000000000000000 3.000000000000000
2  79 19 0 0.000000000000000 3.000000000000000
2  80 15 36 0.000000000000000 3.000000000000000
0

0101000
+49 24 -38 24 *
Wi

0101100
+16 21 -13 21 -48 22 +37 25 *
Fa
0  0.000000100000000 14 21

0101000
+12 0 *
Wi

0101100
+22 2 -13 21 -46 20 +35 19 *
Fa
0  0.000000100000000 15 2

0101000
+10 0 *
Ed
 0.000000100000000 1 1 0
1  28 0 0.000000000000000 2.999999999999999
3  81 82CN 17 0 0.000000000000000 2.999999999999999
0

0101000
+43 0 -32 37 *
Wi

0101100
-8 29 +31 0 +8 29 +42 29 *
Fa
0  0.000000100000000 17 29

0101000
+7 0 *
Ed
 0.000000100000000 1 1 0
1  28 0 0.000000000000000 2.999999999999999
3  81 82CN 17 0 0.000000000000000 2.999999999999999
0

0101000
+43 0 -29 38 *
Wi

0101100
-5 30 +28 0 +5 30 +42 30 *
Fa
0  0.000000100000000 17 30

0101000
+4 0 *
Sh

0101100
+73 5 +63 18 +56 5 +39 0 +26 0 -23 35 +20 5 -17 35 -14 35 -11 18 
+9 18 +6 0 +3 0 *
So

0100000
+2 0 *

+1 1 