
CASCADE Topology V1, (c) Matra-Datavision
Locations 75
1
1.000000000000000 0.000000000000000 0.000000000000000 0.000000000000000 
0.000000000000000 1.000000000000000 0.000000000000000 0.000000000000000 
0.000000000000000 0.000000000000000 1.000000000000000 0.000000000000000 
1
1.000000000000000 0.000000000000000 0.000000000000000 0.000000000000000 
0.000000000000000 1.000000000000000 0.000000000000000 0.000000000000000 
0.000000000000000 0.000000000000000 1.000000000000000 0.000000000000000 
1
1.000000000000000 0.000000000000000 0.000000000000000 0.000000000000000 
0.000000000000000 1.000000000000000 0.000000000000000 0.000000000000000 
0.000000000000000 0.000000000000000 1.000000000000000 0.000000000000000 
2  2 1 3 -1 0
1
1.000000000000000 0.000000000000000 0.000000000000000 0.000000000000000 
0.000000000000000 1.000000000000000 0.000000000000000 0.000000000000000 
0.000000000000000 0.000000000000000 1.000000000000000 0.000000000000000 
1
1.000000000000000 0.000000000000000 0.000000000000000 0.000000000000000 
0.000000000000000 1.000000000000000 0.000000000000000 0.000000000000000 
0.000000000000000 0.000000000000000 1.000000000000000 0.000000000000000 
1
1.000000000000000 0.000000000000000 0.000000000000000 0.000000000000000 
0.000000000000000 1.000000000000000 0.000000000000000 0.000000000000000 
0.000000000000000 0.000000000000000 1.000000000000000 0.000000000000000 
1
-0.500000000000000 0.866025403784439 0.000000000000000 0.000000000000021 
-0.866025403784439 -0.500000000000000 0.000000000000000 0.000000000000099 
0.000000000000000 0.000000000000000 1.000000000000000 0.000000000000000 
1
1.000000000000000 0.000000000000000 0.000000000000000 0.000000000000000 
0.000000000000000 1.000000000000000 0.000000000000000 0.000000000000000 
0.000000000000000 0.000000000000000 1.000000000000000 0.000000000000000 
1
1.000000000000000 0.000000000000000 0.000000000000000 0.000000000000000 
0.000000000000000 1.000000000000000 0.000000000000000 0.000000000000000 
0.000000000000000 0.000000000000000 1.000000000000000 0.000000000000000 
1
1.000000000000000 0.000000000000000 0.000000000000000 0.000000000000000 
0.000000000000000 1.000000000000000 0.000000000000000 0.000000000000000 
0.000000000000000 0.000000000000000 1.000000000000000 0.000000000000000 
1
1.000000000000000 0.000000000000000 0.000000000000000 0.000000000000000 
0.000000000000000 1.000000000000000 0.000000000000000 0.000000000000000 
0.000000000000000 0.000000000000000 1.000000000000000 0.000000000000000 
2  5 -1 6 1 7 1 8 1 9 1 10 1 11 1 12 -1 0
1
1.000000000000000 0.000000000000000 0.000000000000000 0.000000000000000 
0.000000000000000 1.000000000000000 0.000000000000000 0.000000000000000 
0.000000000000000 0.000000000000000 1.000000000000000 18.000000000000000 
2  5 -1 6 1 7 1 8 1 9 1 10 1 11 1 12 -1 14 1 0
2  6 1 7 1 8 1 9 1 10 1 11 1 12 -1 0
1
1.000000000000000 0.000000000000000 0.000000000000000 0.000000000000000 
0.000000000000000 1.000000000000000 0.000000000000000 0.000000000000000 
0.000000000000000 0.000000000000000 1.000000000000000 0.000000000000000 
2  12 1 11 -1 10 -1 9 -1 17 -1 7 -1 6 -1 0
2  14 -1 12 1 11 -1 10 -1 9 -1 17 -1 7 -1 6 -1 0
1
-0.500000000000001 -0.866025403784439 0.000000000000000 0.000000000000085 
0.866025403784439 -0.500000000000001 0.000000000000000 -0.000000000000028 
0.000000000000000 0.000000000000000 1.000000000000001 0.000000000000000 
2  12 1 11 -1 10 -1 9 -1 20 -1 7 -1 6 -1 0
2  14 -1 12 1 11 -1 10 -1 9 -1 20 -1 7 -1 6 -1 0
2  12 1 11 -1 10 -1 9 -1 8 -1 7 -1 6 -1 0
2  14 -1 12 1 11 -1 10 -1 9 -1 8 -1 7 -1 6 -1 0
2  9 -1 17 -1 7 -1 6 -1 0
2  9 -1 20 -1 7 -1 6 -1 0
2  9 -1 8 -1 7 -1 6 -1 0
2  5 -1 0
2  6 1 7 1 8 1 9 1 10 1 11 1 12 -1 14 1 0
1
1.000000000000000 0.000000000000000 0.000000000000000 0.000000000000000 
0.000000000000000 1.000000000000000 0.000000000000000 0.000000000000000 
0.000000000000000 0.000000000000000 1.000000000000000 0.000000000000000 
1
1.000000000000000 0.000000000000000 0.000000000000000 0.000000000000000 
0.000000000000000 1.000000000000000 0.000000000000000 0.000000000000000 
0.000000000000000 0.000000000000000 1.000000000000000 0.000000000000000 
2  30 1 31 1 17 1 9 1 10 1 11 1 12 -1 0
2  30 1 31 1 17 1 9 1 10 1 11 1 12 -1 14 1 0
2  30 1 31 1 17 1 8 -1 7 -1 6 -1 0
2  30 1 31 1 7 -1 6 -1 0
2  30 1 31 1 8 1 9 1 10 1 11 1 12 -1 0
2  12 1 11 -1 10 -1 9 -1 17 -1 31 -1 30 -1 0
2  14 -1 12 1 11 -1 10 -1 9 -1 17 -1 31 -1 30 -1 0
2  12 1 11 -1 10 -1 9 -1 20 -1 31 -1 30 -1 0
2  14 -1 12 1 11 -1 10 -1 9 -1 20 -1 31 -1 30 -1 0
2  12 1 11 -1 10 -1 9 -1 8 -1 31 -1 30 -1 0
2  14 -1 12 1 11 -1 10 -1 9 -1 8 -1 31 -1 30 -1 0
2  9 -1 17 -1 31 -1 30 -1 0
2  9 -1 20 -1 31 -1 30 -1 0
2  9 -1 8 -1 31 -1 30 -1 0
2  30 1 31 1 8 1 9 1 10 1 11 1 12 -1 14 1 0
2  10 1 11 1 12 -1 2 1 3 -1 0
2  30 1 31 1 17 1 9 1 10 1 11 1 12 -1 2 1 3 -1 0
2  6 1 7 1 8 1 9 1 10 1 11 1 12 -1 2 1 3 -1 0
2  6 1 7 1 17 1 9 1 10 1 11 1 12 -1 2 1 3 -1 0
2  30 1 31 1 8 1 9 1 10 1 11 1 12 -1 2 1 3 -1 0
2  30 1 31 1 20 1 9 1 10 1 11 1 12 -1 2 1 3 -1 0
2  5 -1 6 1 7 1 17 1 20 -1 31 -1 30 -1 0
2  5 -1 6 1 7 1 20 1 8 -1 31 -1 30 -1 0
2  6 1 7 1 20 1 9 1 10 1 11 1 12 -1 2 1 3 -1 0
1
1.000000000000000 0.000000000000000 0.000000000000000 140.628654555576702 
0.000000000000000 1.000000000000000 0.000000000000000 47.705675950438817 
0.000000000000000 0.000000000000000 1.000000000000000 0.000000000000000 
2  10 1 11 1 12 -1 2 1 3 -1 56 -1 0
2  10 1 11 1 12 -1 14 1 2 1 3 -1 0
2  30 1 31 1 17 1 9 1 10 1 11 1 12 -1 14 1 2 1 3 -1 0
2  6 1 7 1 8 1 9 1 10 1 11 1 12 -1 14 1 2 1 3 -1 0
2  6 1 7 1 17 1 9 1 10 1 11 1 12 -1 14 1 2 1 3 -1 0
2  30 1 31 1 8 1 9 1 10 1 11 1 12 -1 14 1 2 1 3 -1 0
2  30 1 31 1 20 1 9 1 10 1 11 1 12 -1 14 1 2 1 3 -1 0
2  6 1 7 1 20 1 9 1 10 1 11 1 12 -1 14 1 2 1 3 -1 0
2  5 -1 6 1 7 1 17 1 9 1 10 1 11 1 12 -1 0
2  5 -1 6 1 7 1 17 1 9 1 10 1 11 1 12 -1 14 1 0
2  6 1 7 1 17 1 9 1 10 1 11 1 12 -1 0
2  6 1 7 1 17 1 9 1 10 1 11 1 12 -1 14 1 0
2  30 1 31 1 20 1 9 1 10 1 11 1 12 -1 0
2  30 1 31 1 20 1 9 1 10 1 11 1 12 -1 14 1 0
2  5 -1 6 1 7 1 20 1 9 1 10 1 11 1 12 -1 0
2  5 -1 6 1 7 1 20 1 9 1 10 1 11 1 12 -1 14 1 0
2  6 1 7 1 20 1 9 1 10 1 11 1 12 -1 0
2  6 1 7 1 20 1 9 1 10 1 11 1 12 -1 14 1 0
2  56 -1 0
Curve2ds 100
1 0.19286202971107003 0.00000000000000000 0.00000000000000000 -1.00000000000000000 
1 3.33445468330086436 0.00000000000000000 0.00000000000000000 -1.00000000000000000 
1 1.51987028381113998 0.00000000000000000 0.00000000000000000 -1.00000000000000000 
1 1.51987028381113998 0.00000000000000000 0.00000000000000000 -1.00000000000000000 
1 1.62172236977865225 0.00000000000000000 0.00000000000000000 -1.00000000000000000 
1 0.00000000000000000 0.00000000000000000 1.00000000000000000 0.00000000000000000 
1 0.00000000000000000 -18.00000000000000000 1.00000000000000000 0.00000000000000000 
1 0.00000000000000000 0.00000000000000000 1.00000000000000000 0.00000000000000000 
1 0.00000000000000000 -18.00000000000000000 1.00000000000000000 0.00000000000000000 
1 0.00000000000000000 0.00000000000000000 1.00000000000000000 0.00000000000000000 
1 0.00000000000000000 -18.00000000000000000 1.00000000000000000 0.00000000000000000 
2 -18.30000000000021743 359.03392597357702698 -1.00000000000000000 0.00000000000000000 0.00000000000000000 1.00000000000000000 25.00000000000015632
2 -301.78250071357899742 -195.36522787604411633 0.50000000000000056 -0.86602540378443837 -0.86602540378443837 -0.50000000000000056 25.00000000000018829
2 320.08250071357934985 -163.66869809753302434 0.50000000000000033 0.86602540378443860 0.86602540378443860 -0.50000000000000033 25.00000000000018829
1 3.66519142925880592 0.00000000000000000 0.00000000000000000 -1.00000000000000000 
1 3.66519142925880592 0.00000000000000000 0.00000000000000000 -1.00000000000000000 
1 0.00000000000000000 0.00000000000000000 1.00000000000000000 0.00000000000000000 
1 0.00000000000000000 -18.00000000000000000 1.00000000000000000 0.00000000000000000 
2 930.37557351721829946 537.15258772989739100 0.50000000000000033 0.86602540378443860 0.86602540378443860 -0.50000000000000033 904.30517559137672379
1 0.00000000000000000 0.00000000000000000 1.00000000000000000 0.00000000000000000 
1 0.00000000000000000 -18.00000000000000000 1.00000000000000000 0.00000000000000000 
1 3.14159265358979223 0.00000000000000000 -1.00000000000000000 0.00000000000000000 
1 3.14159265358979223 -18.00000000000000000 -1.00000000000000000 0.00000000000000000 
2 -0.00000000000013429 0.00000000000000467 0.50000000000000033 0.86602540378443860 0.86602540378443860 -0.50000000000000033 384.50000000000017053
1 0.00000000000000000 0.00000000000000000 1.00000000000000000 0.00000000000000000 
1 0.00000000000000000 -18.00000000000000000 1.00000000000000000 0.00000000000000000 
1 0.00000000000000000 0.00000000000000000 1.00000000000000000 0.00000000000000000 
1 0.00000000000000000 -18.00000000000000000 1.00000000000000000 0.00000000000000000 
1 0.00000000000000000 0.00000000000000000 1.00000000000000000 0.00000000000000000 
1 0.00000000000000000 -18.00000000000000000 1.00000000000000000 0.00000000000000000 
2 -0.00000000000022053 0.00000000000001764 1.00000000000000000 0.00000000000000000 -0.00000000000000000 1.00000000000000000 384.50000000000011369
2 0.00000000000019860 -0.00000000000012323 -0.50000000000000056 0.86602540378443837 -0.86602540378443837 -0.50000000000000056 384.50000000000028422
2 0.00000000000006510 0.00000000000035004 -0.50000000000000033 -0.86602540378443860 0.86602540378443860 -0.50000000000000033 384.50000000000017053
1 1.51987028381113998 0.00000000000000000 0.00000000000000000 -1.00000000000000000 
1 1.51987028381113998 0.00000000000000000 0.00000000000000000 -1.00000000000000000 
1 0.00000000000000000 0.00000000000000000 1.00000000000000000 0.00000000000000000 
1 0.00000000000000000 -18.00000000000000000 1.00000000000000000 0.00000000000000000 
2 930.37557344124957126 537.15258786147887804 1.00000000000000000 0.00000000000000000 -0.00000000000000000 1.00000000000000000 904.30517559137683747
1 0.00000000000000000 0.00000000000000000 1.00000000000000000 0.00000000000000000 
1 0.00000000000000000 -18.00000000000000000 1.00000000000000000 0.00000000000000000 
1 0.00000000000000000 0.00000000000000000 1.00000000000000000 0.00000000000000000 
1 0.00000000000000000 -18.00000000000000000 1.00000000000000000 0.00000000000000000 
1 0.00000000000000000 0.00000000000000000 1.00000000000000000 0.00000000000000000 
1 0.00000000000000000 -18.00000000000000000 1.00000000000000000 0.00000000000000000 
2 18.30000000000017479 359.03392597357702698 1.00000000000000000 0.00000000000000000 -0.00000000000000000 1.00000000000000000 25.00000000000015632
2 -320.08250071357917932 -163.66869809753328013 -0.50000000000000056 0.86602540378443837 -0.86602540378443837 -0.50000000000000056 25.00000000000016342
2 301.78250071357916795 -195.36522787604383211 -0.50000000000000033 -0.86602540378443860 0.86602540378443860 -0.50000000000000033 25.00000000000018829
1 0.00000000000000000 0.00000000000000000 1.00000000000000000 0.00000000000000000 
1 0.00000000000000000 -18.00000000000000000 1.00000000000000000 0.00000000000000000 
1 3.14159265358979223 0.00000000000000000 -1.00000000000000000 -0.00000000000000000 
1 3.14159265358979223 -18.00000000000000000 -1.00000000000000000 0.00000000000000000 
2 0.00000000000017826 0.00000000000001764 -1.00000000000000000 0.00000000000000000 0.00000000000000000 1.00000000000000000 384.50000000000011369
1 0.00000000000000000 0.00000000000000000 1.00000000000000000 0.00000000000000000 
1 0.00000000000000000 -18.00000000000000000 1.00000000000000000 0.00000000000000000 
1 0.00000000000000000 0.00000000000000000 1.00000000000000000 0.00000000000000000 
1 0.00000000000000000 -18.00000000000000000 1.00000000000000000 0.00000000000000000 
2 -930.37557344124957126 537.15258786147887804 -1.00000000000000000 0.00000000000000000 0.00000000000000000 1.00000000000000000 904.30517559137683747
2 -0.00000007596781142 -1074.30517559137638273 0.50000000000000056 -0.86602540378443837 -0.86602540378443837 -0.50000000000000056 904.30517559137695116
1 0.00000000000000000 0.00000000000000000 1.00000000000000000 0.00000000000000000 
1 0.00000000000000000 -18.00000000000000000 1.00000000000000000 0.00000000000000000 
2 -930.37557351721864052 537.15258772989716363 -0.50000000000000056 0.86602540378443837 -0.86602540378443837 -0.50000000000000056 904.30517559137695116
1 0.00000000000000000 0.00000000000000000 1.00000000000000000 0.00000000000000000 
1 0.00000000000000000 -18.00000000000000000 1.00000000000000000 0.00000000000000000 
2 0.00000007596821679 -1074.30517559137615535 -0.50000000000000033 -0.86602540378443860 0.86602540378443860 -0.50000000000000033 904.30517559137672379
1 0.00000000000000000 0.00000000000000000 1.00000000000000000 0.00000000000000000 
1 0.00000000000000000 -18.00000000000000000 1.00000000000000000 0.00000000000000000 
1 3.14159265358979223 0.00000000000000000 -1.00000000000000000 0.00000000000000000 
1 3.14159265358979223 -18.00000000000000000 -1.00000000000000000 0.00000000000000000 
2 -0.00000000000000079 0.00000000000022214 0.50000000000000056 -0.86602540378443837 -0.86602540378443837 -0.50000000000000056 384.50000000000028422
2 0.00000000000000000 0.00000000000000000 -1.00000000000000000 0.00000000000000000 0.00000000000000000 1.00000000000000000 4.25000000000000000
1 0.00000000000000000 0.00000000000000000 1.00000000000000000 0.00000000000000000 
2 140.62865455557667360 47.70567595043887366 -1.00000000000000000 0.00000000000000000 0.00000000000000000 1.00000000000000000 4.25000000000000000
2 140.62865455557667360 47.70567595043887366 -1.00000000000000000 0.00000000000000000 -0.00000000000000000 -1.00000000000000000 4.25000000000000000
1 6.28318530717958623 18.00000000000000000 -1.00000000000000000 0.00000000000000000 
1 3.33445468330086436 0.00000000000000000 0.00000000000000000 -1.00000000000000000 
1 0.19286202971107003 0.00000000000000000 0.00000000000000000 -1.00000000000000000 
1 3.33445468330086436 0.00000000000000000 0.00000000000000000 -1.00000000000000000 
1 0.19286202971107003 0.00000000000000000 0.00000000000000000 -1.00000000000000000 
1 1.51987028381113998 0.00000000000000000 0.00000000000000000 -1.00000000000000000 
1 1.51987028381113998 0.00000000000000000 0.00000000000000000 -1.00000000000000000 
1 1.51987028381113998 0.00000000000000000 0.00000000000000000 -1.00000000000000000 
1 1.51987028381113998 0.00000000000000000 0.00000000000000000 -1.00000000000000000 
1 1.62172236977865225 0.00000000000000000 0.00000000000000000 -1.00000000000000000 
1 0.19286202971107003 0.00000000000000000 0.00000000000000000 -1.00000000000000000 
1 3.33445468330086436 0.00000000000000000 0.00000000000000000 -1.00000000000000000 
1 3.66519142925880592 0.00000000000000000 0.00000000000000000 -1.00000000000000000 
1 3.66519142925880592 0.00000000000000000 0.00000000000000000 -1.00000000000000000 
1 3.33445468330086436 0.00000000000000000 0.00000000000000000 -1.00000000000000000 
1 0.19286202971107003 0.00000000000000000 0.00000000000000000 -1.00000000000000000 
1 3.66519142925880592 0.00000000000000000 0.00000000000000000 -1.00000000000000000 
1 3.66519142925880592 0.00000000000000000 0.00000000000000000 -1.00000000000000000 
1 1.51987028381113998 0.00000000000000000 0.00000000000000000 -1.00000000000000000 
1 1.51987028381113998 0.00000000000000000 0.00000000000000000 -1.00000000000000000 
1 0.19286202971107003 0.00000000000000000 0.00000000000000000 -1.00000000000000000 
1 3.33445468330086436 0.00000000000000000 0.00000000000000000 -1.00000000000000000 
1 1.51987028381113998 0.00000000000000000 0.00000000000000000 -1.00000000000000000 
1 1.51987028381113998 0.00000000000000000 0.00000000000000000 -1.00000000000000000 
1 1.62172236977865225 0.00000000000000000 0.00000000000000000 -1.00000000000000000 
1 6.28318530717958623 0.00000000000000000 0.00000000000000000 1.00000000000000000 
1 0.00000000000000000 0.00000000000000000 0.00000000000000000 1.00000000000000000 
Curves 24
1 336.50049473839658276 -144.81533043546585304 0.00000000000000000 0.00000000000000000 0.00000000000000000 1.00000000000000000 
1 342.34136724442657851 -175.05038781224345712 0.00000000000000000 0.00000000000000000 0.00000000000000000 1.00000000000000000 
2 -18.30000000000019611 359.03392597357697014 0.00000000000000000 0.00000000000000000 0.00000000000000000 -1.00000000000000000 -1.00000000000000000 -0.00000000000000000 -0.00000000000000000 -0.00000000000000000 1.00000000000000000 0.00000000000000000 25.00000000000015987
1 147.22431864335410978 84.99999999999981526 0.00000000000000000 0.00000000000000000 0.00000000000000000 1.00000000000000000 
2 -930.37557344124957126 537.15258786147876435 0.00000000000000000 0.00000000000000000 0.00000000000000000 -1.00000000000000000 -1.00000000000000000 -0.00000000000000000 -0.00000000000000000 -0.00000000000000000 1.00000000000000000 0.00000000000000000 904.30517559137672379
2 0.00000000000019940 -0.00000000000004015 0.00000000000000000 0.00000000000000000 0.00000000000000000 -1.00000000000000000 -1.00000000000000000 -0.00000000000000000 -0.00000000000000000 -0.00000000000000000 1.00000000000000000 0.00000000000000000 384.50000000000011369
2 -0.00000000000019940 -0.00000000000004015 0.00000000000000000 0.00000000000000000 0.00000000000000000 1.00000000000000000 1.00000000000000000 0.00000000000000000 -0.00000000000000000 -0.00000000000000000 1.00000000000000000 0.00000000000000000 384.50000000000011369
1 322.76876640993384626 -208.95112689384956184 0.00000000000000000 0.00000000000000000 0.00000000000000000 1.00000000000000000 
2 930.37557344124957126 537.15258786147876435 0.00000000000000000 0.00000000000000000 0.00000000000000000 1.00000000000000000 1.00000000000000000 0.00000000000000000 -0.00000000000000000 -0.00000000000000000 1.00000000000000000 0.00000000000000000 904.30517559137672379
2 18.30000000000019611 359.03392597357697014 0.00000000000000000 0.00000000000000000 0.00000000000000000 1.00000000000000000 1.00000000000000000 0.00000000000000000 -0.00000000000000000 -0.00000000000000000 1.00000000000000000 0.00000000000000000 25.00000000000015987
2 0.00000000000000000 0.00000000000000000 0.00000000000000000 -0.00000000000000000 -0.00000000000000000 -1.00000000000000000 -1.00000000000000000 0.00000000000000000 0.00000000000000000 0.00000000000000000 1.00000000000000000 -0.00000000000000000 4.25000000000000000
2 140.62865455557670202 47.70567595043881681 18.00000000000000000 0.00000000000000000 0.00000000000000000 1.00000000000000000 -1.00000000000000000 0.00000000000000000 0.00000000000000000 0.00000000000000000 -1.00000000000000000 0.00000000000000000 4.25000000000000000
1 42.83649235464709903 363.82564204721620627 0.00000000000000000 0.00000000000000000 0.00000000000000000 1.00000000000000000 
1 293.66400238374944820 -219.01031161175041007 0.00000000000000000 0.00000000000000000 0.00000000000000000 1.00000000000000000 
1 19.57260083449259014 384.00151470609290527 0.00000000000000000 0.00000000000000000 0.00000000000000000 1.00000000000000000 
1 -19.57260083449257948 384.00151470609301896 0.00000000000000000 0.00000000000000000 0.00000000000000000 1.00000000000000000 
1 -42.83649235464709903 363.82564204721620627 0.00000000000000000 0.00000000000000000 0.00000000000000000 1.00000000000000000 
1 -147.22431864335408136 84.99999999999965894 0.00000000000000000 0.00000000000000000 0.00000000000000000 1.00000000000000000 
1 -336.50049473839646907 -144.81533043546608042 0.00000000000000000 0.00000000000000000 0.00000000000000000 1.00000000000000000 
1 0.00000000000024158 -169.99999999999945999 0.00000000000000000 0.00000000000000000 0.00000000000000000 1.00000000000000000 
1 -342.34136724442635114 -175.05038781224365607 0.00000000000000000 0.00000000000000000 0.00000000000000000 1.00000000000000000 
1 -293.66400238374933451 -219.01031161175066586 0.00000000000000000 0.00000000000000000 0.00000000000000000 1.00000000000000000 
1 -322.76876640993384626 -208.95112689384990290 0.00000000000000000 0.00000000000000000 0.00000000000000000 1.00000000000000000 
1 -4.25000000000000000 0.00000000000000000 0.00000000000000000 0.00000000000000006 0.00000000000000000 1.00000000000000000 
Polygon3D 0
PolygonOnTriangulations 0
Surfaces 21
2 320.08250071357934985 -163.66869809753308118 0.00000000000000000 0.00000000000000000 -0.00000000000000000 -1.00000000000000000 0.50000000000000033 0.86602540378443860 0.00000000000000000 0.86602540378443860 -0.50000000000000033 0.00000000000000000 25.00000000000015987
2 930.37557351721829946 537.15258772989727731 0.00000000000000000 0.00000000000000000 -0.00000000000000000 -1.00000000000000000 0.50000000000000033 0.86602540378443860 0.00000000000000000 0.86602540378443860 -0.50000000000000033 0.00000000000000000 904.30517559137672379
2 -0.00000000000011316 -0.00000000000005313 0.00000000000000000 0.00000000000000000 -0.00000000000000000 -1.00000000000000000 0.50000000000000033 0.86602540378443860 0.00000000000000000 0.86602540378443860 -0.50000000000000033 0.00000000000000000 384.50000000000011369
2 0.00000000000008624 0.00000000000029224 0.00000000000000000 -0.00000000000000000 -0.00000000000000000 -1.00000000000000000 -0.50000000000000033 -0.86602540378443860 0.00000000000000000 0.86602540378443860 -0.50000000000000033 -0.00000000000000000 384.50000000000011369
2 -18.30000000000019611 359.03392597357697014 0.00000000000000000 0.00000000000000000 0.00000000000000000 -1.00000000000000000 -1.00000000000000000 -0.00000000000000000 -0.00000000000000000 -0.00000000000000000 1.00000000000000000 0.00000000000000000 25.00000000000015987
2 -301.78250071357899742 -195.36522787604417317 0.00000000000000000 -0.00000000000000000 0.00000000000000000 -1.00000000000000000 0.50000000000000056 -0.86602540378443837 -0.00000000000000000 -0.86602540378443837 -0.50000000000000056 0.00000000000000000 25.00000000000016698
1 0.00000000000002114 -0.00000000000005780 0.00000000000000000 0.00000000000000000 0.00000000000000000 1.00000000000000000 1.00000000000000000 0.00000000000000000 -0.00000000000000000 -0.00000000000000000 1.00000000000000000 0.00000000000000000 
2 930.37557344124957126 537.15258786147876435 0.00000000000000000 -0.00000000000000000 -0.00000000000000000 -1.00000000000000000 1.00000000000000000 0.00000000000000000 0.00000000000000000 -0.00000000000000000 1.00000000000000000 -0.00000000000000000 904.30517559137672379
2 -0.00000000000019940 -0.00000000000004015 0.00000000000000000 -0.00000000000000000 -0.00000000000000000 -1.00000000000000000 1.00000000000000000 0.00000000000000000 0.00000000000000000 -0.00000000000000000 1.00000000000000000 -0.00000000000000000 384.50000000000011369
2 0.00000000000021974 -0.00000000000018103 0.00000000000000000 -0.00000000000000000 -0.00000000000000000 -1.00000000000000000 -0.50000000000000056 0.86602540378443837 0.00000000000000000 -0.86602540378443837 -0.50000000000000056 0.00000000000000000 384.50000000000022737
2 301.78250071357916795 -195.36522787604388895 0.00000000000000000 -0.00000000000000000 -0.00000000000000000 -1.00000000000000000 -0.50000000000000033 -0.86602540378443860 0.00000000000000000 0.86602540378443860 -0.50000000000000033 -0.00000000000000000 25.00000000000015987
2 18.30000000000019611 359.03392597357697014 0.00000000000000000 -0.00000000000000000 -0.00000000000000000 -1.00000000000000000 1.00000000000000000 0.00000000000000000 0.00000000000000000 -0.00000000000000000 1.00000000000000000 -0.00000000000000000 25.00000000000015987
2 -320.08250071357917932 -163.66869809753333698 0.00000000000000000 -0.00000000000000000 -0.00000000000000000 -1.00000000000000000 -0.50000000000000056 0.86602540378443837 0.00000000000000000 -0.86602540378443837 -0.50000000000000056 0.00000000000000000 25.00000000000016698
2 0.00000000000019940 -0.00000000000004015 0.00000000000000000 0.00000000000000000 0.00000000000000000 -1.00000000000000000 -1.00000000000000000 -0.00000000000000000 -0.00000000000000000 -0.00000000000000000 1.00000000000000000 0.00000000000000000 384.50000000000011369
2 -930.37557344124957126 537.15258786147876435 0.00000000000000000 0.00000000000000000 0.00000000000000000 -1.00000000000000000 -1.00000000000000000 -0.00000000000000000 -0.00000000000000000 -0.00000000000000000 1.00000000000000000 0.00000000000000000 904.30517559137672379
2 -0.00000007596779028 -1074.30517559137638273 0.00000000000000000 -0.00000000000000000 0.00000000000000000 -1.00000000000000000 0.50000000000000056 -0.86602540378443837 -0.00000000000000000 -0.86602540378443837 -0.50000000000000056 0.00000000000000000 904.30517559137695116
2 -930.37557351721864052 537.15258772989704994 0.00000000000000000 -0.00000000000000000 -0.00000000000000000 -1.00000000000000000 -0.50000000000000056 0.86602540378443837 0.00000000000000000 -0.86602540378443837 -0.50000000000000056 0.00000000000000000 904.30517559137695116
2 0.00000007596823792 -1074.30517559137615535 0.00000000000000000 -0.00000000000000000 -0.00000000000000000 -1.00000000000000000 -0.50000000000000033 -0.86602540378443860 0.00000000000000000 0.86602540378443860 -0.50000000000000033 -0.00000000000000000 904.30517559137672379
2 0.00000000000002034 0.00000000000016434 0.00000000000000000 -0.00000000000000000 0.00000000000000000 -1.00000000000000000 0.50000000000000056 -0.86602540378443837 -0.00000000000000000 -0.86602540378443837 -0.50000000000000056 0.00000000000000000 384.50000000000022737
1 0.00000000000000000 0.00000000000000000 0.00000000000000000 -0.00000000000000000 -0.00000000000000000 -1.00000000000000000 1.00000000000000000 -0.00000000000000000 0.00000000000000000 0.00000000000000000 1.00000000000000000 -0.00000000000000000 
2 0.00000000000000000 0.00000000000000000 0.00000000000000000 0.00000000000000000 0.00000000000000000 1.00000000000000000 -1.00000000000000000 0.00000000000000000 0.00000000000000000 -0.00000000000000000 1.00000000000000000 -0.00000000000000000 4.25000000000000000
Triangulations 0

TShapes 78
Ve
0.000000100000348
-42.836492354647099 363.825642047216206 0.000000000000000
0 0

0101101
*
Ed
 0.000000100000348 1 1 0
1  1 0 0.000000000000000 18.000000000000000
2  1 1 0 0.000000000000000 18.000000000000000
2  2 2 0 0.000000000000000 18.000000000000000
4 G1 1 0 2 0
0

0101000
+78 13 -78 15 *
Ve
0.000000100000005
-19.572600834492579 384.001514706093246 0.000000000000000
0 0

0101101
*
Ed
 0.000000100000005 1 1 0
1  2 0 0.000000000000000 18.000000000000000
2  3 3 0 0.000000000000000 18.000000000000000
2  4 1 0 0.000000000000000 18.000000000000000
4 G1 3 0 1 0
2  5 4 0 0.000000000000000 18.000000000000000
0

0101000
+76 13 -76 15 *
Ed
 0.000000100000000 1 1 0
1  3 0 0.192862029711070 1.519870283811140
2  6 5 18 0.192862029711070 1.519870283811140
2  7 5 19 0.192862029711070 1.519870283811140
2  8 6 21 0.192862029711070 1.519870283811140
2  9 6 22 0.192862029711070 1.519870283811140
2  10 1 23 0.192862029711070 1.519870283811140
2  11 1 24 0.192862029711070 1.519870283811140
2  12 7 25 0.192862029711070 1.519870283811140
2  13 7 26 0.192862029711070 1.519870283811140
2  14 7 27 0.192862029711070 1.519870283811140
0

0101000
+78 28 -76 28 *
Wi

0101100
+77 0 -75 0 -74 16 +74 29 *
Fa
0  0.000000100000000 1 0

0101000
+73 0 *
Ve
0.000000112022056
147.224318643354195 84.999999999999787 0.000000000000000
0 0

0101101
*
Ed
 0.000000112021745 1 1 0
1  4 0 0.000000000000000 18.000000000000000
2  15 8 0 0.000000000000000 18.000000000000000
2  16 2 0 0.000000000000000 18.000000000000000
4 C2 8 0 2 0
0

0101000
+71 32 -71 33 *
Ed
 0.000000100000000 1 1 0
1  5 0 3.334454683300864 3.665191429258806
2  17 2 23 3.334454683300864 3.665191429258806
2  18 2 24 3.334454683300864 3.665191429258806
2  19 7 27 3.334454683300864 3.665191429258806
0

0101000
+78 28 -71 34 *
Wi

0101100
+77 0 -70 0 -69 16 +69 29 *
Fa
0  0.000000100000000 2 0

0101000
+68 0 *
Ve
0.000000100000130
0.000000000000012 384.500000000000227 0.000000000000000
0 0

0101101
*
Ed
 0.000000100000000 1 1 0
1  6 0 1.519870283811140 1.570796326794896
2  20 3 23 1.519870283811140 1.570796326794896
2  21 3 24 1.519870283811140 1.570796326794896
2  22 4 23 1.519870283811140 1.570796326794896
2  23 4 24 1.519870283811140 1.570796326794896
2  24 7 27 1.519870283811140 1.570796326794896
0

0101000
+76 28 -66 35 *
Ve
0.000000100000005
19.572600834492590 384.001514706092905 0.000000000000000
0 0

0101101
*
Ed
 0.000000100000000 1 1 0
1  7 0 1.519870283811140 1.570796326794896
2  25 9 37 1.519870283811140 1.570796326794896
2  26 9 38 1.519870283811140 1.570796326794896
2  27 10 39 1.519870283811140 1.570796326794896
2  28 10 40 1.519870283811140 1.570796326794896
2  29 4 41 1.519870283811140 1.570796326794896
2  30 4 42 1.519870283811140 1.570796326794896
2  31 7 43 1.519870283811140 1.570796326794896
2  32 7 44 1.519870283811140 1.570796326794896
2  33 7 45 1.519870283811140 1.570796326794896
0

0101000
+64 0 -66 0 *
Ed
 0.000000100000005 1 1 0
1  8 0 0.000000000000000 18.000000000000000
2  34 11 0 0.000000000000000 18.000000000000000
2  35 4 0 0.000000000000000 18.000000000000000
4 G1 11 0 4 0
0

0101000
+64 36 -64 46 *
Wi

0101100
-75 0 +65 16 -63 36 +62 0 +63 46 -65 29 *
Fa
0  0.000000100000000 4 0

0101000
+61 0 *
Ve
0.000000100000348
42.836492354647099 363.825642047216206 0.000000000000000
0 0

0101101
*
Ed
 0.000000100000000 1 1 0
1  9 0 3.334454683300864 3.665191429258806
2  36 8 37 3.334454683300864 3.665191429258806
2  37 8 38 3.334454683300864 3.665191429258806
2  38 7 43 3.334454683300864 3.665191429258806
0

0101000
+59 0 -71 0 *
Ed
 0.000000100000000 1 1 0
1  10 0 0.192862029711070 1.519870283811140
2  39 12 37 0.192862029711070 1.519870283811140
2  40 12 38 0.192862029711070 1.519870283811140
2  41 13 39 0.192862029711070 1.519870283811140
2  42 13 40 0.192862029711070 1.519870283811140
2  43 11 41 0.192862029711070 1.519870283811140
2  44 11 42 0.192862029711070 1.519870283811140
2  45 7 43 0.192862029711070 1.519870283811140
2  46 7 44 0.192862029711070 1.519870283811140
2  47 7 45 0.192862029711070 1.519870283811140
0

0101000
+59 0 -64 0 *
Ed
 0.000000100000000 1 1 0
1  6 0 1.519870283811140 1.570796326794896
2  48 14 18 1.519870283811140 1.570796326794896
2  49 14 19 1.519870283811140 1.570796326794896
2  50 9 18 1.519870283811140 1.570796326794896
2  51 9 19 1.519870283811140 1.570796326794896
2  52 7 25 1.519870283811140 1.570796326794896
0

0101000
+76 28 -66 35 *
Ve
0.000000112022056
-147.224318643354110 84.999999999999758 0.000000000000000
0 0

0101101
*
Ed
 0.000000100000000 1 1 0
1  5 0 3.334454683300864 3.665191429258806
2  53 15 18 3.334454683300864 3.665191429258806
2  54 15 19 3.334454683300864 3.665191429258806
2  55 16 21 3.334454683300864 3.665191429258806
2  56 16 22 3.334454683300864 3.665191429258806
2  57 7 25 3.334454683300864 3.665191429258806
2  58 7 26 3.334454683300864 3.665191429258806
0

0101000
+78 28 -55 28 *
Ed
 0.000000100000000 1 1 0
1  9 0 3.334454683300864 3.665191429258806
2  59 17 39 3.334454683300864 3.665191429258806
2  60 17 40 3.334454683300864 3.665191429258806
2  61 7 44 3.334454683300864 3.665191429258806
0

0101000
+59 0 -55 53 *
Ed
 0.000000100000000 1 1 0
1  9 0 3.334454683300864 3.665191429258806
2  62 18 41 3.334454683300864 3.665191429258806
2  63 18 42 3.334454683300864 3.665191429258806
2  64 7 45 3.334454683300864 3.665191429258806
0

0101000
+59 0 -55 54 *
Ed
 0.000000100000000 1 1 0
1  6 0 1.519870283811140 1.570796326794896
2  65 19 21 1.519870283811140 1.570796326794896
2  66 19 22 1.519870283811140 1.570796326794896
2  67 10 21 1.519870283811140 1.570796326794896
2  68 10 22 1.519870283811140 1.570796326794896
2  69 7 26 1.519870283811140 1.570796326794896
0

0101000
+76 28 -66 35 *
Wi

0101100
-58 48 +57 48 +69 49 +63 48 -74 49 -56 50 -65 49 -74 50 +63 51 +54 50 
+57 51 -53 52 -52 51 +57 52 +54 55 +63 52 -74 55 -51 55 *
Ve
0.000000100000000
-4.250000000000000 0.000000000000000 0.000000000000000
0 0

0101101
*
Ed
 0.000000100000000 1 1 0
1  11 0 0.000000000000000 6.283185307179586
2  70 20 0 0.000000000000000 6.283185307179586
2  71 21 0 0.000000000000000 6.283185307179586
2  72 7 57 0.000000000000000 6.283185307179586
0

0101000
+49 0 -49 0 *
Wi

0101100
+48 56 *
Fa
0  0.000000100000000 7 47

0101000
+50 0 +47 0 *
Wi

0101100
-58 59 +57 59 +69 60 +63 59 -74 60 -56 61 -65 60 -74 61 +63 62 +54 61 
+57 62 -53 63 -52 62 +57 63 +54 64 +63 63 -74 64 -51 64 *
Ve
0.000000100000000
136.378654555576702 47.705675950438817 18.000000000000000
0 0

0101101
*
Ed
 0.000000100000000 1 1 0
1  12 0 0.000000000000000 6.283185307179586
2  73 7 58 0.000000000000000 6.283185307179586
2  74 21 56 0.000000000000000 6.283185307179586
0

0101100
+44 0 -44 0 *
Wi

0101100
-43 0 *
Fa
0  0.000000100000000 7 58

0101000
+45 0 +42 0 *
Ed
 0.000000100000348 1 1 0
1  13 0 0.000000000000000 18.000000000000000
2  75 8 0 0.000000000000000 18.000000000000000
2  76 12 0 0.000000000000000 18.000000000000000
4 G1 8 0 12 0
0

0101000
+59 32 -59 33 *
Wi

0101100
+40 0 -70 0 -58 32 +58 33 *
Fa
0  0.000000100000000 8 0

0101000
+39 0 *
Ed
 0.000000100000348 1 1 0
1  14 0 0.000000000000000 18.000000000000000
2  77 18 0 0.000000000000000 18.000000000000000
2  78 11 0 0.000000000000000 18.000000000000000
4 G1 18 0 11 0
0

0101000
+59 36 -59 46 *
Wi

0101100
+37 0 -62 0 -57 36 +57 46 *
Fa
0  0.000000100000000 11 0

0101000
+36 0 *
Ed
 0.000000100000005 1 1 0
1  15 0 0.000000000000000 18.000000000000000
2  79 12 0 0.000000000000000 18.000000000000000
2  80 9 0 0.000000000000000 18.000000000000000
4 G1 12 0 9 0
0

0101000
+64 32 -64 33 *
Wi

0101100
+40 0 -34 0 -57 32 +57 33 *
Fa
0  0.000000100000000 12 0

0101000
+33 0 *
Ed
 0.000000100000005 1 1 0
1  16 0 0.000000000000000 18.000000000000000
2  81 14 0 0.000000000000000 18.000000000000000
2  82 5 0 0.000000000000000 18.000000000000000
4 G1 14 0 5 0
2  83 9 0 0.000000000000000 18.000000000000000
0

0101000
+76 65 -76 66 *
Wi

0101100
-31 0 +56 67 -63 32 +34 0 +63 33 -56 68 *
Fa
0  0.000000100000000 9 0

0101000
+30 0 *
Ed
 0.000000100000348 1 1 0
1  17 0 0.000000000000000 18.000000000000000
2  84 5 0 0.000000000000000 18.000000000000000
2  85 15 0 0.000000000000000 18.000000000000000
4 G1 5 0 15 0
0

0101000
+78 65 -78 66 *
Wi

0101100
+28 0 -31 0 -74 67 +74 68 *
Fa
0  0.000000100000000 5 0

0101000
+27 0 *
Ed
 0.000000112021745 1 1 0
1  18 0 0.000000000000000 18.000000000000000
2  86 15 0 0.000000000000000 18.000000000000000
2  87 17 0 0.000000000000000 18.000000000000000
4 C2 15 0 17 0
0

0101000
+55 65 -55 66 *
Wi

0101100
+28 0 -25 0 -54 67 +54 68 *
Fa
0  0.000000100000000 15 0

0101000
+24 0 *
Ed
 0.000000100000348 1 1 0
1  19 0 0.000000000000000 18.000000000000000
2  88 17 0 0.000000000000000 18.000000000000000
2  89 13 0 0.000000000000000 18.000000000000000
4 G1 17 0 13 0
0

0101000
+59 69 -59 70 *
Wi

0101100
+22 0 -25 0 -53 69 +53 70 *
Fa
0  0.000000100000000 17 0

0101000
+21 0 *
Ed
 0.000000112021745 1 1 0
1  20 0 0.000000000000000 18.000000000000000
2  90 16 0 0.000000000000000 18.000000000000000
2  91 18 0 0.000000000000000 18.000000000000000
4 C2 16 0 18 0
0

0101000
+55 71 -55 72 *
Wi

0101100
+37 0 -19 0 -52 36 +52 46 *
Fa
0  0.000000100000000 18 0

0101000
+18 0 *
Ed
 0.000000100000005 1 1 0
1  21 0 0.000000000000000 18.000000000000000
2  92 13 0 0.000000000000000 18.000000000000000
2  93 10 0 0.000000000000000 18.000000000000000
4 G1 13 0 10 0
0

0101000
+64 69 -64 70 *
Wi

0101100
+22 0 -16 0 -57 69 +57 70 *
Fa
0  0.000000100000000 13 0

0101000
+15 0 *
Ed
 0.000000100000348 1 1 0
1  22 0 0.000000000000000 18.000000000000000
2  94 6 0 0.000000000000000 18.000000000000000
2  95 16 0 0.000000000000000 18.000000000000000
4 G1 6 0 16 0
0

0101000
+78 71 -78 72 *
Wi

0101100
+13 0 -19 0 -54 73 +54 74 *
Fa
0  0.000000100000000 16 0

0101000
+12 0 *
Ed
 0.000000100000005 1 1 0
1  23 0 0.000000000000000 18.000000000000000
2  96 19 0 0.000000000000000 18.000000000000000
2  97 6 0 0.000000000000000 18.000000000000000
4 G1 19 0 6 0
2  98 10 0 0.000000000000000 18.000000000000000
0

0101000
+76 71 -76 72 *
Wi

0101100
-10 0 +51 73 -63 69 +16 0 +63 70 -51 74 *
Fa
0  0.000000100000000 10 0

0101000
+9 0 *
Wi

0101100
+13 0 -10 0 -74 73 +74 74 *
Fa
0  0.000000100000000 6 0

0101000
+7 0 *
Ed
 0.000000100000000 1 1 0
1  24 0 0.000000000000000 18.000000000000000
3  99 100CN 21 0 0.000000000000000 18.000000000000000
0

0101000
+49 0 -44 75 *
Wi

0101100
-5 56 +43 0 +5 56 +48 56 *
Fa
0  0.000000100000000 21 56

0101000
+4 0 *
Sh

0101100
+72 4 -67 4 -60 4 -46 0 +41 0 +38 4 -35 4 -32 4 -29 4 +26 4 
-23 4 +20 4 +17 4 -14 4 -11 4 -8 4 +6 4 +3 0 *
So

0100000
+2 0 *

+1 1 