
CASCADE Topology V1, (c) Matra-Datavision
Locations 9
1
1.000000000000000 0.000000000000000 0.000000000000000 14.866666666660791 
0.000000000000000 1.000000000000000 0.000000000000000 155.621756897465701 
0.000000000000000 0.000000000000000 1.000000000000000 -37.100000000000001 
1
1.000000000000000 0.000000000000000 0.000000000000000 0.000000000000066 
0.000000000000000 1.000000000000000 0.000000000000000 129.871934891629593 
0.000000000000000 0.000000000000000 1.000000000000000 -37.100000000000001 
1
1.000000000000000 0.000000000000000 0.000000000000000 0.000000000000000 
0.000000000000000 1.000000000000000 0.000000000000000 -144.530061367894746 
0.000000000000000 0.000000000000000 1.000000000000000 -37.100000000000001 
1
1.000000000000000 0.000000000000000 0.000000000000000 -14.866666666660789 
0.000000000000000 1.000000000000000 0.000000000000000 155.621756897464962 
0.000000000000000 0.000000000000000 1.000000000000000 -37.100000000000001 
1
1.000000000000000 0.000000000000000 0.000000000000000 -22.299999999999713 
0.000000000000000 1.000000000000000 0.000000000000000 125.580297890654023 
0.000000000000000 0.000000000000000 1.000000000000000 -37.100000000000001 
1
1.000000000000000 0.000000000000000 0.000000000000000 -22.299999999999713 
0.000000000000000 1.000000000000000 0.000000000000000 -83.394112909449618 
0.000000000000000 0.000000000000000 1.000000000000000 -37.100000000000001 
1
1.000000000000000 0.000000000000000 0.000000000000000 22.299999999999713 
0.000000000000000 1.000000000000000 0.000000000000000 125.580297890652631 
0.000000000000000 0.000000000000000 1.000000000000000 -37.100000000000001 
1
1.000000000000000 0.000000000000000 0.000000000000000 22.299999999999713 
0.000000000000000 1.000000000000000 0.000000000000000 -83.394112909449419 
0.000000000000000 0.000000000000000 1.000000000000000 -37.100000000000001 
1
1.000000000000000 0.000000000000000 0.000000000000000 0.000000000000024 
0.000000000000000 1.000000000000000 0.000000000000000 -101.215914611281207 
0.000000000000000 0.000000000000000 1.000000000000000 -37.100000000000001 
Curve2ds 9
2 0.00000000000000000 0.00000000000000000 -1.00000000000000000 -0.00000000000000000 -0.00000000000000000 1.00000000000000000 1.69999999999999996
1 0.00000000000000000 0.00000000000000000 1.00000000000000000 0.00000000000000000 
1 0.00000000000000000 640.26259291102689986 1.00000000000000000 0.00000000000000000 
1 0.00000000000000000 0.00000000000000000 1.00000000000000000 0.00000000000000000 
1 6.28318530717958623 0.00000000000000000 0.00000000000000000 1.00000000000000000 
1 0.00000000000000000 0.00000000000000000 0.00000000000000000 1.00000000000000000 
1 0.00000000000000000 1.98327677526600255 1.00000000000000000 0.00000000000000000 
1 6.28318530717958623 0.00000000000000000 0.00000000000000000 1.00000000000000000 
1 0.00000000000000000 0.00000000000000000 0.00000000000000000 1.00000000000000000 
Curves 4
2 0.00000000000000000 0.00000000000000000 0.00000000000000000 -0.00000000000000000 -0.00000000000000000 -1.00000000000000000 -1.00000000000000000 0.00000000000000000 0.00000000000000000 0.00000000000000000 1.00000000000000000 -0.00000000000000000 1.69999999999999996
2 0.00000000000000000 0.00000000000000000 640.26259291102689986 -0.00000000000000000 -0.00000000000000000 -1.00000000000000000 -1.00000000000000000 0.00000000000000000 0.00000000000000000 0.00000000000000000 1.00000000000000000 -0.00000000000000000 1.69999999999996065
1 -1.69999999999999996 0.00000000000000000 0.00000000000000000 0.00000000000000006 0.00000000000000000 1.00000000000000000 
1 -1.69999999999996065 0.00000000000000000 640.26259291102689986 0.85716730070211811 0.00000000000000000 0.51503807491004461 
Polygon3D 0
PolygonOnTriangulations 0
Surfaces 3
1 0.00000000000000000 0.00000000000000000 0.00000000000000000 -0.00000000000000000 -0.00000000000000000 -1.00000000000000000 1.00000000000000000 -0.00000000000000000 0.00000000000000000 0.00000000000000000 1.00000000000000000 -0.00000000000000000 
2 0.00000000000000000 0.00000000000000000 0.00000000000000000 0.00000000000000000 0.00000000000000000 1.00000000000000000 -1.00000000000000000 0.00000000000000000 0.00000000000000000 -0.00000000000000000 1.00000000000000000 -0.00000000000000000 1.69999999999999996
3 0.00000000000000000 0.00000000000000000 640.26259291102689986 0.00000000000000000 0.00000000000000000 1.00000000000000000 -1.00000000000000000 0.00000000000000000 0.00000000000000000 -0.00000000000000000 1.00000000000000000 -0.00000000000000000 1.69999999999996065
-1.02974425867666564
Triangulations 0

TShapes 17
Ve
0.000000100000000
-1.700000000000000 0.000000000000000 0.000000000000000
0 0

0101101
*
Ed
 0.000000100000000 1 1 0
1  1 0 0.000000000000000 6.283185307179586
2  1 1 0 0.000000000000000 6.283185307179586
2  2 2 0 0.000000000000000 6.283185307179586
0

0101000
+17 0 -17 0 *
Wi

0101100
-16 0 *
Fa
0  0.000000100000000 1 0

0111000
+15 0 *
Ve
0.000000100000000
-1.699999999999961 0.000000000000000 640.262592911026900
0 0

0101101
*
Ed
 0.000000100000000 1 1 0
1  2 0 0.000000000000000 6.283185307179586
2  3 2 0 0.000000000000000 6.283185307179586
2  4 3 0 0.000000000000000 6.283185307179586
0

0101000
+13 0 -13 0 *
Ed
 0.000000100000000 1 1 0
1  3 0 0.000000000000000 640.262592911026900
3  5 6CN 2 0 0.000000000000000 640.262592911026900
0

0101000
+17 0 -13 0 *
Wi

0101100
+16 0 -12 0 -11 0 +11 0 *
Fa
0  0.000000100000000 2 0

0111000
+10 0 *
Ve
0.000000100000000
0.000000000000000 0.000000000000000 641.284055963373703
0 0

0101101
*
Ed
 0.000000100000000 1 1 1
2  7 3 0 0.000000000000000 6.283185307179586
0

0101000
+8 0 -8 0 *
Ed
 0.000000100000000 1 1 0
1  4 0 0.000000000000000 1.983276775266003
3  8 9CN 3 0 0.000000000000000 1.983276775266003
0

0101000
+13 0 -8 0 *
Wi

0101100
+12 0 -7 0 -6 0 +6 0 *
Fa
0  0.000000100000000 3 0

0111000
+5 0 *
Sh

0101100
+14 0 +9 0 +4 0 *
So

0100000
-3 0 *
Co

1100000
+2 1 +2 2 +2 3 +2 4 +2 5 +2 6 +2 7 +2 8 +2 9 *

+1 0 