
CASCADE Topology V1, (c) Matra-Datavision
Locations 12
1
1.000000000000000 0.000000000000000 0.000000000000000 0.000000000000000 
0.000000000000000 1.000000000000000 0.000000000000000 0.000000000000000 
0.000000000000000 0.000000000000000 1.000000000000000 0.000000000000000 
1
0.000000000000000 -0.000000000000000 1.000000000000000 0.000000000000000 
1.000000000000000 0.000000000000000 -0.000000000000000 0.000000000000000 
-0.000000000000000 1.000000000000000 0.000000000000000 0.000000000000000 
1
1.000000000000000 0.000000000000000 0.000000000000000 0.000000000000000 
0.000000000000000 1.000000000000000 0.000000000000000 0.000000000000000 
0.000000000000000 0.000000000000000 1.000000000000000 0.000000000000000 
1
1.000000000000000 0.000000000000000 0.000000000000000 382.712456657747509 
0.000000000000000 1.000000000000000 0.000000000000000 -0.000000000000085 
0.000000000000000 0.000000000000000 1.000000000000000 0.000000000000106 
2  1 1 2 1 3 -1 4 1 0
1
1.000000000000000 0.000000000000000 0.000000000000000 -765.424913315495019 
0.000000000000000 1.000000000000000 0.000000000000000 0.000000000000170 
0.000000000000000 0.000000000000000 1.000000000000000 -0.000000000000212 
2  1 1 2 1 3 -1 4 1 6 1 0
2  4 -1 3 1 2 -1 1 -1 0
2  6 -1 4 -1 3 1 2 -1 1 -1 0
2  3 -1 4 1 0
2  1 1 2 1 0
2  3 -1 4 1 6 1 0
Curve2ds 16
1 52.99796766819903837 0.00000000000000241 -0.00000000000000004 -1.00000000000000000 
1 0.00000000000000000 0.00000000000000000 0.00000000000000000 -1.00000000000000000 
1 6.28318530717958623 0.00000000000000000 0.00000000000000000 -1.00000000000000000 
1 168.00000000000000000 0.00000000000001954 0.00000000000000000 -1.00000000000000000 
1 0.00000000000000000 0.00000000000000000 1.00000000000000000 -0.00000000000000000 
1 0.00000000000000000 -765.42491331549501865 1.00000000000000000 -0.00000000000000000 
1 4.71238898038468967 0.00000000000000000 0.00000000000000000 -1.00000000000000000 
1 0.00000000000000000 0.00000000000000000 0.00000000000000000 -1.00000000000000000 
1 0.00000000000000000 0.00000000000000000 1.00000000000000000 0.00000000000000000 
1 0.00000000000000000 -765.42491331549501865 1.00000000000000000 0.00000000000000000 
1 0.00000000000000000 0.00000000000000000 -0.00000000000000004 -1.00000000000000000 
1 136.43717357910909982 -0.00000000000003030 0.00000000000000000 -1.00000000000000000 
1 0.00000000000000000 0.00000000000000000 1.00000000000000000 -0.00000000000000000 
1 0.00000000000000057 -765.42491331549501865 1.00000000000000000 -0.00000000000000000 
1 0.00000000000000000 0.00000000000000000 1.00000000000000000 -0.00000000000000000 
1 -0.00000000000005710 -765.42491331549501865 1.00000000000000000 -0.00000000000000000 
Curves 12
1 382.71245665774756617 366.09999999999996589 65.50000000000002842 -1.00000000000000000 0.00000000000000022 -0.00000000000000028 
1 382.71245665774750933 -0.00000000000007044 65.50000000000011369 -1.00000000000000000 0.00000000000000022 -0.00000000000000028 
1 366.10000000000002274 65.50000000000001421 0.00000000000000000 -1.00000000000000000 0.00000000000000000 0.00000000000000000 
1 382.71245665774750933 -0.00000000000008422 3.40000000000010649 -1.00000000000000000 0.00000000000000022 -0.00000000000000028 
1 0.00000000000000000 65.50000000000001421 0.00000000000000000 0.00000000000000000 -1.00000000000000000 0.00000000000000000 
1 382.71245665774756617 167.99999999999991473 3.40000000000007097 -1.00000000000000000 0.00000000000000022 -0.00000000000000028 
1 0.00000000000000000 3.40000000000000169 0.00000000000000000 1.00000000000000000 0.00000000000000000 0.00000000000000000 
1 382.71245665774756617 197.99999999999991473 23.00000000000006395 -1.00000000000000000 0.00000000000000022 -0.00000000000000028 
3 198.00000000000000000 3.40000000000000080 0.00000000000000000 0.00000000000000000 0.00000000000000000 1.00000000000000000 -1.00000000000000000 -0.00000000000000012 0.00000000000000000 0.00000000000000012 -1.00000000000000000 0.00000000000000000 30.00000000000000355 19.59999999999999787
1 382.71245665774756617 334.43717357910901455 23.00000000000003197 -1.00000000000000000 0.00000000000000022 -0.00000000000000028 
1 198.00000000000000000 23.00000000000000000 0.00000000000000000 1.00000000000000000 0.00000000000000000 0.00000000000000000 
1 334.43717357910907140 23.00000000000000000 0.00000000000000000 0.59743472842431178 0.80191754268912763 0.00000000000000000 
Polygon3D 0
PolygonOnTriangulations 0
Surfaces 7
1 382.71245665774756617 366.09999999999996589 65.50000000000002842 -0.00000000000000028 0.00000000000000022 1.00000000000000000 -0.00000000000000022 -1.00000000000000000 0.00000000000000022 1.00000000000000000 -0.00000000000000022 0.00000000000000028 
1 382.71245665774756617 334.43717357910901455 23.00000000000003197 0.00000000000000034 0.80191754268912752 -0.59743472842431200 -0.00000000000000005 0.59743472842431200 0.80191754268912752 1.00000000000000000 -0.00000000000000024 0.00000000000000024 
1 382.71245665774750933 -0.00000000000007044 65.50000000000011369 -0.00000000000000022 -1.00000000000000000 0.00000000000000022 0.00000000000000022 -0.00000000000000022 -1.00000000000000000 1.00000000000000000 -0.00000000000000022 0.00000000000000022 
1 382.71245665774750933 -0.00000000000008422 3.40000000000010782 0.00000000000000028 -0.00000000000000022 -1.00000000000000000 0.00000000000000022 1.00000000000000000 -0.00000000000000022 1.00000000000000000 -0.00000000000000022 0.00000000000000028 
6 1.00000000000000000 -0.00000000000000022 0.00000000000000028 
3 382.71245665774756617 197.99999999999991473 3.40000000000006297 1.00000000000000000 -0.00000000000000022 0.00000000000000022 -0.00000000000000022 -1.00000000000000000 0.00000000000000010 0.00000000000000022 -0.00000000000000010 -1.00000000000000000 30.00000000000000355 19.59999999999999787
1 382.71245665774756617 197.99999999999991473 23.00000000000006395 0.00000000000000028 -0.00000000000000022 -1.00000000000000000 0.00000000000000022 1.00000000000000000 -0.00000000000000022 1.00000000000000000 -0.00000000000000022 0.00000000000000028 
1 0.00000000000002968 173.47458368628031167 39.79236016591706004 1.00000000000000000 -0.00000000000000022 0.00000000000000022 -0.00000000000000022 0.00000000000000000 1.00000000000000000 -0.00000000000000022 -1.00000000000000000 -0.00000000000000000 
Triangulations 0

TShapes 34
Ve
0.000000100000000
366.100000000000023 65.500000000000014 0.000000000000000
0 0

0101101
*
Ed
 0.000000100000000 1 1 0
1  1 0 0.000000000000000 765.424913315495019
2  1 2 0 0.000000000000000 765.424913315495019
0

0101000
+34 5 -34 7 *
Ve
0.000000100000000
0.000000000000000 65.500000000000014 0.000000000000000
0 0

0101101
*
Ed
 0.000000100000000 1 1 0
1  2 0 0.000000000000000 765.424913315495019
0

0101000
+32 5 -32 7 *
Ed
 0.000000100000000 1 1 0
1  3 0 0.000000000000000 366.100000000000023
0

0101000
+34 0 -32 0 *
Wi

0101100
+33 0 -31 0 -30 5 +30 7 *
Fa
0  0.000000100000000 1 0

0111000
+29 0 *
Ve
0.000000100000002
0.000000000000000 3.400000000000000 0.000000000000000
0 0

0101101
*
Ed
 0.000000100000002 1 1 0
1  4 0 0.000000000000000 765.424913315495019
2  2 4 0 0.000000000000000 765.424913315495019
0

0101000
+27 5 -27 7 *
Ed
 0.000000100000000 1 1 0
1  5 0 0.000000000000000 62.100000000000016
0

0101000
+32 0 -27 0 *
Wi

0101100
+31 0 -26 0 -25 5 +25 7 *
Fa
0  0.000000100000000 3 0

0111000
+24 0 *
Ve
0.000000100000000
168.000000000000000 3.400000000000002 0.000000000000000
0 0

0101101
*
Ed
 0.000000100000000 1 1 0
1  6 0 0.000000000000000 765.424913315495019
2  3 5 0 0.000000000000000 765.424913315495019
2  4 4 0 0.000000000000000 765.424913315495019
0

0101000
+22 5 -22 7 *
Ed
 0.000000100000000 1 1 0
1  7 0 0.000000000000000 168.000000000000000
2  5 4 8 0.000000000000000 168.000000000000000
2  6 4 9 0.000000000000000 168.000000000000000
0

0101000
+27 0 -22 0 *
Wi

0101100
+26 0 -21 0 -20 5 +20 7 *
Fa
0  0.000000100000000 4 0

0111000
+19 0 *
Ve
0.000000100000000
198.000000000000000 23.000000000000000 0.000000000000000
0 0

0101101
*
Ed
 0.000000100000000 1 1 0
1  8 0 0.000000000000000 765.424913315495019
2  7 5 0 0.000000000000000 765.424913315495019
4 G1 5 0 6 0
2  8 6 0 0.000000000000000 765.424913315495019
0

0101000
+17 5 -17 7 *
Ed
 0.000000100000000 1 1 0
1  9 0 4.712388980384690 6.283185307179586
2  9 5 8 4.712388980384690 6.283185307179586
2  10 5 9 4.712388980384690 6.283185307179586
0

0101000
+17 0 -22 0 *
Wi

0101100
+16 0 -21 0 -15 5 +15 7 *
Fa
0  0.000000100000000 5 0

0111000
+14 0 *
Ve
0.000000100000000
334.437173579109071 23.000000000000000 0.000000000000000
0 0

0101101
*
Ed
 0.000000100000000 1 1 0
1  10 0 0.000000000000000 765.424913315495019
2  11 2 0 0.000000000000000 765.424913315495019
2  12 6 0 0.000000000000000 765.424913315495019
0

0101000
+12 5 -12 7 *
Ed
 0.000000100000000 1 1 0
1  11 0 0.000000000000000 136.437173579109071
2  13 6 8 0.000000000000000 136.437173579109071
2  14 6 9 0.000000000000000 136.437173579109071
0

0101000
+17 0 -12 0 *
Wi

0101100
+16 0 -11 0 -10 5 +10 7 *
Fa
0  0.000000100000000 6 0

0111000
+9 0 *
Ed
 0.000000100000000 1 1 0
1  12 0 0.000000000000000 52.997967668199045
2  15 2 8 0.000000000000000 52.997967668199045
2  16 2 9 0.000000000000000 52.997967668199045
0

0101000
+12 0 -34 0 *
Wi

0101100
+11 0 -33 0 -7 5 +7 7 *
Fa
0  0.000000100000000 2 0

0111000
+6 0 *
Wi

0101100
+30 0 +25 0 +20 0 -15 0 +10 0 +7 0 *
Fa
0  0.000000100000000 7 0

0111000
+4 11 *
Sh

0101100
+28 0 +23 0 +18 0 -13 0 +8 0 +5 0 +3 10 -3 12 *
So

1100000
+2 0 *

+1 0 