
CASCADE Topology V1, (c) Matra-Datavision
Locations 37
1
1.000000000000000 0.000000000000000 0.000000000000000 0.000000000000000 
0.000000000000000 1.000000000000000 0.000000000000000 0.000000000000000 
0.000000000000000 0.000000000000000 1.000000000000000 0.000000000000000 
1
0.000000000000000 0.000000000000000 1.000000000000000 0.000000000000000 
0.998309270953514 -0.058125721744018 -0.000000000000000 192.966185419070285 
0.058125721744018 0.998309270953514 -0.000000000000000 415.162514434880393 
1
1.000000000000000 0.000000000000000 0.000000000000000 0.000000000000000 
0.000000000000000 1.000000000000000 0.000000000000000 0.000000000000000 
0.000000000000000 0.000000000000000 1.000000000000000 0.000000000000000 
1
1.000000000000000 0.000000000000000 0.000000000000000 0.000000000000000 
0.000000000000000 1.000000000000000 0.000000000000000 0.000000000000000 
0.000000000000000 0.000000000000000 1.000000000000000 0.000000000000000 
1
1.000000000000000 0.000000000000000 0.000000000000000 0.000000000000000 
0.000000000000000 1.000000000000000 0.000000000000000 0.000000000000000 
0.000000000000000 0.000000000000000 1.000000000000000 0.000000000000000 
1
1.000000000000000 0.000000000000000 0.000000000000000 0.000000000000000 
0.000000000000000 1.000000000000000 0.000000000000000 0.000000000000000 
0.000000000000000 0.000000000000000 1.000000000000000 0.000000000000000 
1
1.000000000000000 0.000000000000000 0.000000000000000 0.000000000000000 
0.000000000000000 1.000000000000000 0.000000000000000 0.000000000000000 
0.000000000000000 0.000000000000000 1.000000000000000 0.000000000000000 
1
1.000000000000000 0.000000000000000 0.000000000000000 1576.866288019524973 
0.000000000000000 1.000000000000000 0.000000000000000 -0.000000000000339 
0.000000000000000 0.000000000000000 1.000000000000000 -0.000000000000195 
2  1 1 2 1 3 1 4 1 5 1 6 1 7 -1 8 1 0
1
1.000000000000000 0.000000000000000 0.000000000000000 -3153.732576039049945 
0.000000000000000 1.000000000000000 0.000000000000000 0.000000000000679 
0.000000000000000 0.000000000000000 1.000000000000000 0.000000000000390 
2  1 1 2 1 3 1 4 1 5 1 6 1 7 -1 8 1 10 1 0
1
1.000000000000000 0.000000000000000 0.000000000000000 260.043129115152738 
0.000000000000000 1.000000000000000 0.000000000000000 0.000000000000000 
0.000000000000000 0.000000000000000 1.000000000000000 0.000000000000000 
1
1.000000000000000 0.000000000000000 0.000000000000000 0.000000000000000 
0.000000000000000 1.000000000000000 0.000000000000000 0.000000000000000 
0.000000000000000 0.000000000000000 1.000000000000000 0.000000000000000 
1
0.000000000000000 0.000000000000000 1.000000000000000 0.000000000000000 
1.000000000000000 0.000000000000000 0.000000000000000 0.000000000000000 
0.000000000000000 1.000000000000000 0.000000000000000 -8.000000000000000 
1
1.000000000000000 0.000000000000000 0.000000000000000 0.000000000000000 
0.000000000000000 1.000000000000000 0.000000000000000 0.000000000000000 
0.000000000000000 0.000000000000000 1.000000000000000 0.000000000000000 
1
1.000000000000000 0.000000000000000 0.000000000000000 0.000000000000000 
0.000000000000000 1.000000000000000 0.000000000000000 0.000000000000000 
0.000000000000000 0.000000000000000 1.000000000000000 0.000000000000000 
2  12 -1 13 1 14 -1 15 -1 16 -1 0
1
1.000000000000000 0.000000000000000 0.000000000000000 -520.086258230305475 
0.000000000000000 1.000000000000000 0.000000000000000 -0.000000000000000 
0.000000000000000 0.000000000000000 1.000000000000000 -0.000000000000000 
2  18 -1 12 -1 13 1 14 -1 15 -1 16 -1 0
1
1.000000000000000 0.000000000000000 0.000000000000000 1487.149440473208642 
0.000000000000000 1.000000000000000 0.000000000000000 -0.000000000000504 
0.000000000000000 0.000000000000000 1.000000000000000 0.000000000000136 
1
1.000000000000000 0.000000000000000 0.000000000000000 0.000000000000000 
0.000000000000000 1.000000000000000 0.000000000000000 0.000000000000000 
0.000000000000000 0.000000000000000 1.000000000000000 0.000000000000000 
1
0.000000000000000 -0.000000000000000 1.000000000000000 0.000000000000000 
0.998309270953514 -0.058125721744018 -0.000000000000000 192.966185419070285 
0.058125721744018 0.998309270953514 0.000000000000000 415.162514434880393 
1
1.000000000000000 0.000000000000000 0.000000000000000 0.000000000000000 
0.000000000000000 1.000000000000000 0.000000000000000 0.000000000000000 
0.000000000000000 0.000000000000000 1.000000000000000 0.000000000000000 
2  20 -1 21 1 22 -1 23 -1 1 -1 0
1
1.000000000000000 0.000000000000000 0.000000000000000 -2974.298880946417285 
0.000000000000000 1.000000000000000 0.000000000000000 0.000000000001008 
0.000000000000000 0.000000000000000 1.000000000000000 -0.000000000000272 
2  25 -1 20 -1 21 1 22 -1 23 -1 1 -1 0
1
1.000000000000000 0.000000000000000 0.000000000000000 1487.149440473208642 
0.000000000000000 1.000000000000000 0.000000000000000 -0.000000000000504 
0.000000000000000 0.000000000000000 1.000000000000000 0.000000000000136 
1
1.000000000000000 0.000000000000000 0.000000000000000 0.000000000000000 
0.000000000000000 1.000000000000000 0.000000000000000 0.000000000000000 
0.000000000000000 0.000000000000000 1.000000000000000 0.000000000000000 
1
0.000000000000000 -0.000000000000000 1.000000000000000 0.000000000000000 
0.998309270953514 -0.058125721744018 -0.000000000000000 192.966185419070285 
0.058125721744018 0.998309270953514 0.000000000000000 415.162514434880393 
1
1.000000000000000 0.000000000000000 0.000000000000000 0.000000000000000 
0.000000000000000 1.000000000000000 0.000000000000000 0.000000000000000 
0.000000000000000 0.000000000000000 1.000000000000000 0.000000000000000 
2  27 -1 28 1 29 -1 30 -1 1 -1 0
1
1.000000000000000 0.000000000000000 0.000000000000000 -2974.298880946417285 
0.000000000000000 1.000000000000000 0.000000000000000 0.000000000001008 
0.000000000000000 0.000000000000000 1.000000000000000 -0.000000000000272 
2  32 -1 27 -1 28 1 29 -1 30 -1 1 -1 0
2  8 -1 7 1 6 -1 5 -1 4 -1 3 -1 2 -1 1 -1 0
2  10 -1 8 -1 7 1 6 -1 5 -1 4 -1 3 -1 2 -1 1 -1 0
2  2 1 3 1 4 1 5 1 6 1 7 -1 8 1 0
2  2 1 3 1 4 1 5 1 6 1 7 -1 8 1 10 1 0
Curve2ds 30
1 0.00000000000000000 0.00000000000000000 0.00000000000000000 -1.00000000000000000 
1 6.28318530717958623 0.00000000000000000 0.00000000000000000 -1.00000000000000000 
1 0.00000000000000000 0.00000000000000000 1.00000000000000000 0.00000000000000000 
1 0.00000000000000000 -520.08625823030547508 1.00000000000000000 0.00000000000000000 
1 0.00000000000000000 0.00000000000000000 1.00000000000000000 0.00000000000000000 
1 0.00000000000000000 -2974.29888094641728458 1.00000000000000000 0.00000000000000000 
1 0.00000000000000000 0.00000000000000000 1.00000000000000000 0.00000000000000000 
1 0.00000000000000000 -2974.29888094641728458 1.00000000000000000 0.00000000000000000 
1 0.00000000000000000 0.00000000000000000 1.00000000000000000 0.00000000000000000 
1 0.00000000000000000 -3153.73257603904994539 1.00000000000000000 0.00000000000000000 
1 0.00000000000000000 0.00000000000000000 0.00000000000000000 -1.00000000000000000 
1 6.28318530717958623 0.00000000000000000 0.00000000000000000 -1.00000000000000000 
1 0.00000000000000000 0.00000000000000000 1.00000000000000000 0.00000000000000000 
1 0.00000000000000000 -520.08625823030547508 1.00000000000000000 0.00000000000000000 
1 0.00000000000000000 0.00000000000000000 1.00000000000000000 0.00000000000000000 
1 0.00000000000000000 -2974.29888094641728458 1.00000000000000000 0.00000000000000000 
1 0.00000000000000000 0.00000000000000000 1.00000000000000000 0.00000000000000000 
1 0.00000000000000000 -2974.29888094641728458 1.00000000000000000 0.00000000000000000 
1 0.00000000000000000 0.00000000000000000 1.00000000000000000 0.00000000000000000 
1 0.00000000000000000 -3153.73257603904994539 1.00000000000000000 0.00000000000000000 
1 0.00000000000000000 0.00000000000000000 0.00000000000000000 -1.00000000000000000 
1 6.28318530717958623 0.00000000000000000 0.00000000000000000 -1.00000000000000000 
1 0.00000000000000000 0.00000000000000000 1.00000000000000000 0.00000000000000000 
1 0.00000000000000000 -520.08625823030547508 1.00000000000000000 0.00000000000000000 
1 0.00000000000000000 0.00000000000000000 1.00000000000000000 0.00000000000000000 
1 0.00000000000000000 -2974.29888094641728458 1.00000000000000000 0.00000000000000000 
1 0.00000000000000000 0.00000000000000000 1.00000000000000000 0.00000000000000000 
1 0.00000000000000000 -2974.29888094641728458 1.00000000000000000 0.00000000000000000 
1 0.00000000000000000 0.00000000000000000 1.00000000000000000 0.00000000000000000 
1 0.00000000000000000 -3153.73257603904994539 1.00000000000000000 0.00000000000000000 
Curves 6
1 1576.86628801952497270 74.86619866526922351 408.28624155256289896 -1.00000000000000000 0.00000000000000022 0.00000000000000012 
2 -120.00000000000000000 0.00000000000000000 0.00000000000000000 0.00000000000000000 0.00000000000000000 1.00000000000000000 1.00000000000000000 0.00000000000000000 -0.00000000000000000 -0.00000000000000000 1.00000000000000000 0.00000000000000000 1.69999999999999996
1 1576.86628801952497270 314.46042369411259187 422.23641477112721532 -1.00000000000000000 0.00000000000000022 0.00000000000000012 
2 120.00000000000000000 0.00000000000000000 0.00000000000000000 0.00000000000000000 0.00000000000000000 1.00000000000000000 1.00000000000000000 0.00000000000000000 -0.00000000000000000 -0.00000000000000000 1.00000000000000000 0.00000000000000000 1.69999999999999996
1 1576.86628801952497270 194.66331117969090769 415.26132816184502872 -1.00000000000000000 0.00000000000000022 0.00000000000000012 
2 0.00000000000000000 0.00000000000000000 0.00000000000000000 0.00000000000000000 0.00000000000000000 1.00000000000000000 1.00000000000000000 0.00000000000000000 -0.00000000000000000 -0.00000000000000000 1.00000000000000000 0.00000000000000000 1.69999999999999996
Polygon3D 0
PolygonOnTriangulations 0
Surfaces 15
2 1576.86628801952497270 73.16907290464824598 408.18742782559809257 1.00000000000000000 -0.00000000000000022 -0.00000000000000012 0.00000000000000022 0.99830927095351429 0.05812572174401799 0.00000000000000011 -0.05812572174401799 0.99830927095351429 1.69999999999999973
2 260.04312911515273754 -120.00000000000000000 -8.00000000000000000 1.00000000000000000 0.00000000000000000 0.00000000000000000 -0.00000000000000000 1.00000000000000000 0.00000000000000000 0.00000000000000000 -0.00000000000000000 1.00000000000000000 1.69999999999999996
2 1487.14944047320864229 73.16907290464807545 408.18742782559831994 1.00000000000000000 -0.00000000000000034 0.00000000000000009 0.00000000000000033 0.99830927095351418 0.05812572174401831 -0.00000000000000011 -0.05812572174401831 0.99830927095351418 1.69999999999999996
2 1487.14944047320864229 73.16907290464807545 408.18742782559831994 1.00000000000000000 -0.00000000000000034 0.00000000000000009 0.00000000000000033 0.99830927095351418 0.05812572174401831 -0.00000000000000011 -0.05812572174401831 0.99830927095351418 1.69999999999999996
1 0.00000000000000858 0.00000000000000018 0.00000000000000000 0.00000000000000000 0.00000000000000000 1.00000000000000000 1.00000000000000000 0.00000000000000000 -0.00000000000000000 -0.00000000000000000 1.00000000000000000 0.00000000000000000 
2 1576.86628801952497270 312.76329793349162856 422.13760104416235208 1.00000000000000000 -0.00000000000000022 -0.00000000000000012 0.00000000000000022 0.99830927095351429 0.05812572174401799 0.00000000000000011 -0.05812572174401799 0.99830927095351429 1.69999999999999973
2 260.04312911515273754 120.00000000000000000 -8.00000000000000000 1.00000000000000000 0.00000000000000000 0.00000000000000000 -0.00000000000000000 1.00000000000000000 0.00000000000000000 0.00000000000000000 -0.00000000000000000 1.00000000000000000 1.69999999999999996
2 1487.14944047320864229 312.76329793349145802 422.13760104416269314 1.00000000000000000 -0.00000000000000034 0.00000000000000009 0.00000000000000033 0.99830927095351418 0.05812572174401831 -0.00000000000000011 -0.05812572174401831 0.99830927095351418 1.69999999999999996
2 1487.14944047320864229 312.76329793349145802 422.13760104416269314 1.00000000000000000 -0.00000000000000034 0.00000000000000009 0.00000000000000033 0.99830927095351418 0.05812572174401831 -0.00000000000000011 -0.05812572174401831 0.99830927095351418 1.69999999999999996
1 0.00000000000000858 0.00000000000000018 0.00000000000000000 0.00000000000000000 0.00000000000000000 1.00000000000000000 1.00000000000000000 0.00000000000000000 -0.00000000000000000 -0.00000000000000000 1.00000000000000000 0.00000000000000000 
2 1576.86628801952497270 192.96618541906994437 415.16251443488022232 1.00000000000000000 -0.00000000000000022 -0.00000000000000012 0.00000000000000022 0.99830927095351429 0.05812572174401799 0.00000000000000011 -0.05812572174401799 0.99830927095351429 1.69999999999999973
2 260.04312911515273754 0.00000000000000000 -8.00000000000000000 1.00000000000000000 0.00000000000000000 0.00000000000000000 -0.00000000000000000 1.00000000000000000 0.00000000000000000 0.00000000000000000 -0.00000000000000000 1.00000000000000000 1.69999999999999996
2 1487.14944047320864229 192.96618541906977384 415.16251443488050654 1.00000000000000000 -0.00000000000000034 0.00000000000000009 0.00000000000000033 0.99830927095351418 0.05812572174401831 -0.00000000000000011 -0.05812572174401831 0.99830927095351418 1.69999999999999996
2 1487.14944047320864229 192.96618541906977384 415.16251443488050654 1.00000000000000000 -0.00000000000000034 0.00000000000000009 0.00000000000000033 0.99830927095351418 0.05812572174401831 -0.00000000000000011 -0.05812572174401831 0.99830927095351418 1.69999999999999996
1 0.00000000000000858 0.00000000000000018 0.00000000000000000 0.00000000000000000 0.00000000000000000 1.00000000000000000 1.00000000000000000 0.00000000000000000 -0.00000000000000000 -0.00000000000000000 1.00000000000000000 0.00000000000000000 
Triangulations 0

TShapes 28
Ve
0.000000100000000
-118.299999999999997 0.000000000000000 0.000000000000000
0 0

0101101
*
Ed
 0.000000100000000 1 1 0
1  1 0 0.000000000000000 3153.732576039049945
3  1 2CN 1 0 0.000000000000000 3153.732576039049945
0

0101000
+28 9 -28 11 *
Ed
 0.000000100000000 1 1 0
1  2 0 0.000000000000000 6.283185307179586
2  3 2 17 0.000000000000000 6.283185307179586
2  4 2 19 0.000000000000000 6.283185307179586
2  5 3 24 0.000000000000000 6.283185307179586
2  6 3 26 0.000000000000000 6.283185307179586
2  7 4 31 0.000000000000000 6.283185307179586
2  8 4 33 0.000000000000000 6.283185307179586
2  9 1 34 0.000000000000000 6.283185307179586
2  10 1 35 0.000000000000000 6.283185307179586
0

0101100
+28 0 -28 0 *
Wi

0101100
+27 0 -27 0 -26 9 +26 11 *
Fa
0  0.000000100000000 1 0

0101000
+25 0 *
Wi

0101100
+26 1 *
Fa
0  0.000000100000000 5 0

0111000
+23 0 *
Sh

0101100
+24 0 +22 36 -22 37 *
So

0100000
+21 0 *
Ve
0.000000100000000
121.700000000000003 0.000000000000000 0.000000000000000
0 0

0101101
*
Ed
 0.000000100000000 1 1 0
1  3 0 0.000000000000000 3153.732576039049945
3  11 12CN 6 0 0.000000000000000 3153.732576039049945
0

0101000
+19 9 -19 11 *
Ed
 0.000000100000000 1 1 0
1  4 0 0.000000000000000 6.283185307179586
2  13 7 17 0.000000000000000 6.283185307179586
2  14 7 19 0.000000000000000 6.283185307179586
2  15 8 24 0.000000000000000 6.283185307179586
2  16 8 26 0.000000000000000 6.283185307179586
2  17 9 31 0.000000000000000 6.283185307179586
2  18 9 33 0.000000000000000 6.283185307179586
2  19 6 34 0.000000000000000 6.283185307179586
2  20 6 35 0.000000000000000 6.283185307179586
0

0101100
+19 0 -19 0 *
Wi

0101100
+18 0 -18 0 -17 9 +17 11 *
Fa
0  0.000000100000000 6 0

0101000
+16 0 *
Wi

0101100
+17 1 *
Fa
0  0.000000100000000 10 0

0111000
+14 0 *
Sh

0101100
+15 0 +13 36 -13 37 *
So

0100000
+12 0 *
Ve
0.000000100000000
1.700000000000000 0.000000000000000 0.000000000000000
0 0

0101101
*
Ed
 0.000000100000000 1 1 0
1  5 0 0.000000000000000 3153.732576039049945
3  21 22CN 11 0 0.000000000000000 3153.732576039049945
0

0101000
+10 9 -10 11 *
Ed
 0.000000100000000 1 1 0
1  6 0 0.000000000000000 6.283185307179586
2  23 12 17 0.000000000000000 6.283185307179586
2  24 12 19 0.000000000000000 6.283185307179586
2  25 13 24 0.000000000000000 6.283185307179586
2  26 13 26 0.000000000000000 6.283185307179586
2  27 14 31 0.000000000000000 6.283185307179586
2  28 14 33 0.000000000000000 6.283185307179586
2  29 11 34 0.000000000000000 6.283185307179586
2  30 11 35 0.000000000000000 6.283185307179586
0

0101100
+10 0 -10 0 *
Wi

0101100
+9 0 -9 0 -8 9 +8 11 *
Fa
0  0.000000100000000 11 0

0101000
+7 0 *
Wi

0101100
+8 1 *
Fa
0  0.000000100000000 15 0

0111000
+5 0 *
Sh

0101100
+6 0 +4 36 -4 37 *
So

0100000
+3 0 *
Co

1100000
+20 0 +11 0 +2 0 *

+1 0 