
CASCADE Topology V1, (c) Matra-Datavision
Locations 26
1
1.000000000000000 0.000000000000000 0.000000000000000 0.000000000000000 
0.000000000000000 1.000000000000000 0.000000000000000 0.000000000000000 
0.000000000000000 0.000000000000000 1.000000000000000 0.000000000000000 
1
1.000000000000000 0.000000000000000 0.000000000000000 0.000000000000000 
0.000000000000000 1.000000000000000 0.000000000000000 0.000000000000000 
0.000000000000000 0.000000000000000 1.000000000000000 0.000000000000000 
1
1.000000000000000 0.000000000000000 0.000000000000000 0.000000000000000 
0.000000000000000 1.000000000000000 0.000000000000000 0.000000000000000 
0.000000000000000 0.000000000000000 1.000000000000000 0.000000000000000 
2  2 1 3 -1 0
1
1.000000000000000 0.000000000000000 0.000000000000000 0.000000000000000 
0.000000000000000 1.000000000000000 0.000000000000000 0.000000000000000 
0.000000000000000 0.000000000000000 1.000000000000000 0.000000000000000 
1
1.000000000000000 0.000000000000000 0.000000000000000 0.000000000000000 
0.000000000000000 1.000000000000000 0.000000000000000 0.000000000000000 
0.000000000000000 0.000000000000000 1.000000000000000 0.000000000000000 
1
1.000000000000000 0.000000000000000 0.000000000000000 0.000000000000000 
0.000000000000000 1.000000000000000 0.000000000000000 0.000000000000000 
0.000000000000000 0.000000000000000 1.000000000000000 0.000000000000000 
2  5 1 6 1 7 -1 0
1
1.000000000000000 0.000000000000000 0.000000000000000 0.000000000000000 
0.000000000000000 1.000000000000000 0.000000000000000 0.000000000000000 
0.000000000000000 0.000000000000000 1.000000000000000 18.000000000000000 
2  5 1 6 1 7 -1 9 1 0
2  7 1 6 -1 5 -1 0
2  9 -1 7 1 6 -1 5 -1 0
2  5 1 6 1 7 -1 2 1 3 -1 0
1
1.000000000000000 0.000000000000000 0.000000000000000 -22.500000000000004 
0.000000000000000 1.000000000000000 0.000000000000000 136.000000000000000 
0.000000000000000 0.000000000000000 1.000000000000000 18.000000000000000 
1
1.000000000000000 0.000000000000000 0.000000000000000 22.499999999999996 
0.000000000000000 1.000000000000000 0.000000000000000 136.000000000000000 
0.000000000000000 0.000000000000000 1.000000000000000 18.000000000000000 
1
1.000000000000000 0.000000000000000 0.000000000000000 -22.499999999999996 
0.000000000000000 1.000000000000000 0.000000000000000 161.000000000000000 
0.000000000000000 0.000000000000000 1.000000000000000 18.000000000000000 
1
1.000000000000000 0.000000000000000 0.000000000000000 22.500000000000004 
0.000000000000000 1.000000000000000 0.000000000000000 161.000000000000000 
0.000000000000000 0.000000000000000 1.000000000000000 18.000000000000000 
2  5 1 6 1 7 -1 9 1 2 1 3 -1 0
2  5 1 6 1 7 -1 9 1 2 1 3 -1 16 -1 0
2  5 1 6 1 7 -1 9 1 2 1 3 -1 14 -1 0
2  5 1 6 1 7 -1 9 1 2 1 3 -1 17 -1 0
2  5 1 6 1 7 -1 9 1 2 1 3 -1 15 -1 0
2  14 -1 0
2  15 -1 0
2  16 -1 0
2  17 -1 0
Curve2ds 118
1 6.84773629520138982 0.00000000000000000 0.00000000000000000 -1.00000000000000000 
1 0.56455098802180270 0.00000000000000000 0.00000000000000000 -1.00000000000000000 
1 7.50891659728787708 0.00000000000000000 0.00000000000000000 -1.00000000000000000 
1 1.22573129010829085 0.00000000000000000 0.00000000000000000 -1.00000000000000000 
1 0.00000000000000000 0.00000000000000000 1.00000000000000000 0.00000000000000000 
1 0.00000000000000000 -18.00000000000000000 1.00000000000000000 0.00000000000000000 
2 255.70454913011639064 161.93962032611540280 1.00000000000000000 0.00000000000000000 -0.00000000000000000 1.00000000000000000 46.50000000000000000
1 -6.28318530717958623 -18.00000000000000000 1.00000000000000000 0.00000000000000000 
1 -6.28318530717958623 0.00000000000000000 1.00000000000000000 0.00000000000000000 
2 -0.00000000000001316 0.00000000000002677 1.00000000000000000 0.00000000000000000 -0.00000000000000000 1.00000000000000000 349.17021174407386752
1 0.00000000000000000 0.00000000000000000 1.00000000000000000 0.00000000000000000 
1 0.00000000000000000 -18.00000000000000000 1.00000000000000000 0.00000000000000000 
1 7.33038285837618453 0.00000000000000000 -1.00000000000000000 0.00000000000000000 
1 7.33038285837618453 -18.00000000000000000 -1.00000000000000000 0.00000000000000000 
2 0.00000000000000816 0.00000000000012625 0.50000000000000033 0.86602540378443860 0.86602540378443860 -0.50000000000000033 349.17021174407392436
1 6.84773629520138893 0.00000000000000000 0.00000000000000000 -1.00000000000000000 
1 6.84773629520138893 0.00000000000000000 0.00000000000000000 -1.00000000000000000 
1 0.48264656317479498 0.00000000000000000 0.00000000000000000 -1.00000000000000000 
1 1.22573129010829085 0.00000000000000000 0.00000000000000000 -1.00000000000000000 
1 7.50891659728787708 0.00000000000000000 0.00000000000000000 -1.00000000000000000 
1 1.91586136348150249 0.00000000000000000 0.00000000000000000 -1.00000000000000000 
1 0.00000000000000000 0.00000000000000000 1.00000000000000000 0.00000000000000000 
1 0.00000000000000000 -18.00000000000000000 1.00000000000000000 0.00000000000000000 
1 3.14159265358979312 0.00000000000000000 -1.00000000000000000 0.00000000000000000 
1 3.14159265358979312 -18.00000000000000000 -1.00000000000000000 0.00000000000000000 
2 -0.00000000000001316 -549.44557738923845136 -1.00000000000000000 0.00000000000000000 0.00000000000000000 1.00000000000000000 802.44557738923845136
1 0.00000000000000000 0.00000000000000000 1.00000000000000000 0.00000000000000000 
1 0.00000000000000000 -18.00000000000000000 1.00000000000000000 0.00000000000000000 
2 -0.00000000000001316 -549.44557738923845136 1.00000000000000000 0.00000000000000000 -0.00000000000000000 1.00000000000000000 802.44557738923845136
1 0.00000000000000000 0.00000000000000000 1.00000000000000000 0.00000000000000000 
1 0.00000000000000000 -18.00000000000000000 1.00000000000000000 0.00000000000000000 
2 268.09609964668106841 140.47682524686925376 0.50000000000000033 0.86602540378443860 0.86602540378443860 -0.50000000000000033 46.50000000000000000
1 0.00000000000000000 0.00000000000000000 1.00000000000000000 0.00000000000000000 
1 0.00000000000000000 -18.00000000000000000 1.00000000000000000 0.00000000000000000 
1 3.14159265358979312 -0.00000000000000000 -1.00000000000000000 0.00000000000000000 
1 3.14159265358979312 -18.00000000000000000 -1.00000000000000000 0.00000000000000000 
2 -475.83382801608922819 274.72278869461950990 0.50000000000000033 0.86602540378443860 0.86602540378443860 -0.50000000000000033 802.44557738923845136
1 0.00000000000000000 0.00000000000000000 1.00000000000000000 0.00000000000000000 
1 0.00000000000000000 -18.00000000000000000 1.00000000000000000 0.00000000000000000 
2 -475.83382801608922819 274.72278869461950990 -0.50000000000000033 -0.86602540378443860 0.86602540378443860 -0.50000000000000033 802.44557738923867873
1 0.00000000000000000 0.00000000000000000 1.00000000000000000 0.00000000000000000 
1 0.00000000000000000 -18.00000000000000000 1.00000000000000000 0.00000000000000000 
2 -255.70454913011639064 161.93962032611540280 -1.00000000000000000 0.00000000000000000 0.00000000000000000 1.00000000000000000 46.50000000000000000
1 0.00000000000000000 0.00000000000000000 1.00000000000000000 0.00000000000000000 
1 0.00000000000000000 -18.00000000000000000 1.00000000000000000 0.00000000000000000 
2 12.39155051656448769 -302.41644557298451446 -0.50000000000000033 -0.86602540378443860 0.86602540378443860 -0.50000000000000033 46.50000000000002842
1 -6.28318530717958623 0.00000000000000000 1.00000000000000000 0.00000000000000000 
1 -6.28318530717958623 -18.00000000000000000 1.00000000000000000 0.00000000000000000 
2 -0.00000000000001316 0.00000000000002677 -1.00000000000000000 0.00000000000000000 0.00000000000000000 1.00000000000000000 349.17021174407386752
1 0.00000000000000000 0.00000000000000000 1.00000000000000000 0.00000000000000000 
1 0.00000000000000000 -18.00000000000000000 1.00000000000000000 0.00000000000000000 
1 7.33038285837618542 0.00000000000000000 -1.00000000000000000 0.00000000000000000 
1 7.33038285837618542 -18.00000000000000000 -1.00000000000000000 0.00000000000000000 
2 0.00000000000000816 0.00000000000012625 -0.50000000000000033 -0.86602540378443860 0.86602540378443860 -0.50000000000000033 349.17021174407392436
1 0.00000000000000000 0.00000000000000000 1.00000000000000000 0.00000000000000000 
1 0.00000000000000000 -18.00000000000000000 1.00000000000000000 0.00000000000000000 
1 7.33038285837618364 0.00000000000000000 -1.00000000000000000 0.00000000000000000 
1 7.33038285837618364 -18.00000000000000000 -1.00000000000000000 0.00000000000000000 
2 0.00000000000007211 -0.00000000000000165 -0.50000000000000056 0.86602540378443837 -0.86602540378443837 -0.50000000000000056 349.17021174407392436
1 -6.28318530717958623 0.00000000000000000 1.00000000000000000 0.00000000000000000 
1 -6.28318530717958623 -18.00000000000000000 1.00000000000000000 0.00000000000000000 
2 0.00000000000007211 -0.00000000000000165 0.50000000000000056 -0.86602540378443837 -0.86602540378443837 -0.50000000000000056 349.17021174407392436
1 0.00000000000000000 0.00000000000000000 1.00000000000000000 0.00000000000000000 
1 0.00000000000000000 -18.00000000000000000 1.00000000000000000 0.00000000000000000 
2 -268.09609964668106841 140.47682524686908323 -0.50000000000000056 0.86602540378443837 -0.86602540378443837 -0.50000000000000056 46.50000000000002842
1 0.00000000000000000 0.00000000000000000 1.00000000000000000 0.00000000000000000 
1 0.00000000000000000 -18.00000000000000000 1.00000000000000000 0.00000000000000000 
2 -12.39155051656429585 -302.41644557298468499 0.50000000000000056 -0.86602540378443837 -0.86602540378443837 -0.50000000000000056 46.49999999999999289
1 0.00000000000000000 0.00000000000000000 1.00000000000000000 0.00000000000000000 
1 0.00000000000000000 -18.00000000000000000 1.00000000000000000 0.00000000000000000 
2 475.83382801608934187 274.72278869461956674 -0.50000000000000056 0.86602540378443837 -0.86602540378443837 -0.50000000000000056 802.44557738923867873
1 0.00000000000000000 0.00000000000000000 1.00000000000000000 0.00000000000000000 
1 0.00000000000000000 -18.00000000000000000 1.00000000000000000 0.00000000000000000 
1 3.14159265358979312 0.00000000000000000 -1.00000000000000000 0.00000000000000000 
1 3.14159265358979312 -18.00000000000000000 -1.00000000000000000 0.00000000000000000 
2 475.83382801608934187 274.72278869461956674 0.50000000000000056 -0.86602540378443837 -0.86602540378443837 -0.50000000000000056 802.44557738923867873
2 -22.50000000000001776 136.00000000000002842 1.00000000000000000 0.00000000000000000 0.00000000000000000 -1.00000000000000000 2.75000000000000000
1 6.28318530717958623 12.50000000000000000 -1.00000000000000000 0.00000000000000000 
2 22.49999999999998224 136.00000000000002842 1.00000000000000000 0.00000000000000000 0.00000000000000000 -1.00000000000000000 2.75000000000000000
1 6.28318530717958623 12.50000000000000000 -1.00000000000000000 0.00000000000000000 
2 -22.50000000000001066 161.00000000000002842 1.00000000000000000 0.00000000000000000 0.00000000000000000 -1.00000000000000000 2.75000000000000000
1 6.28318530717958623 12.50000000000000000 -1.00000000000000000 0.00000000000000000 
2 22.49999999999998934 161.00000000000002842 1.00000000000000000 0.00000000000000000 0.00000000000000000 -1.00000000000000000 2.75000000000000000
1 6.28318530717958623 12.50000000000000000 -1.00000000000000000 0.00000000000000000 
2 0.00000000000000000 0.00000000000000000 -1.00000000000000000 0.00000000000000000 0.00000000000000000 1.00000000000000000 8.00000000000000000
1 0.00000000000000000 0.00000000000000000 1.00000000000000000 0.00000000000000000 
2 -22.50000000000001066 161.00000000000002842 1.00000000000000000 0.00000000000000000 -0.00000000000000000 1.00000000000000000 8.00000000000000000
2 -22.50000000000001776 136.00000000000002842 1.00000000000000000 0.00000000000000000 -0.00000000000000000 1.00000000000000000 8.00000000000000000
2 22.49999999999998934 161.00000000000002842 1.00000000000000000 0.00000000000000000 -0.00000000000000000 1.00000000000000000 8.00000000000000000
2 22.49999999999998224 136.00000000000002842 1.00000000000000000 0.00000000000000000 -0.00000000000000000 1.00000000000000000 8.00000000000000000
1 1.22573129010829085 0.00000000000000000 0.00000000000000000 -1.00000000000000000 
1 7.50891659728787708 0.00000000000000000 0.00000000000000000 -1.00000000000000000 
1 1.91586136348150249 0.00000000000000000 0.00000000000000000 -1.00000000000000000 
1 6.84773629520138982 0.00000000000000000 0.00000000000000000 -1.00000000000000000 
1 0.56455098802180270 0.00000000000000000 0.00000000000000000 -1.00000000000000000 
1 7.50891659728787708 0.00000000000000000 0.00000000000000000 -1.00000000000000000 
1 1.22573129010829085 0.00000000000000000 0.00000000000000000 -1.00000000000000000 
1 6.84773629520138893 0.00000000000000000 0.00000000000000000 -1.00000000000000000 
1 6.84773629520138893 0.00000000000000000 0.00000000000000000 -1.00000000000000000 
1 0.48264656317479626 0.00000000000000000 0.00000000000000000 -1.00000000000000000 
1 6.84773629520138893 0.00000000000000000 0.00000000000000000 -1.00000000000000000 
1 6.84773629520138893 0.00000000000000000 0.00000000000000000 -1.00000000000000000 
1 0.48264656317479476 0.00000000000000000 0.00000000000000000 -1.00000000000000000 
1 6.84773629520138893 0.00000000000000000 0.00000000000000000 -1.00000000000000000 
1 0.56455098802180270 0.00000000000000000 0.00000000000000000 -1.00000000000000000 
1 7.50891659728787708 0.00000000000000000 0.00000000000000000 -1.00000000000000000 
1 1.22573129010829085 0.00000000000000000 0.00000000000000000 -1.00000000000000000 
1 1.22573129010829063 0.00000000000000000 0.00000000000000000 -1.00000000000000000 
1 7.50891659728787708 0.00000000000000000 0.00000000000000000 -1.00000000000000000 
1 1.91586136348150271 0.00000000000000000 0.00000000000000000 -1.00000000000000000 
1 6.28318530717958623 0.00000000000000000 0.00000000000000000 1.00000000000000000 
1 0.00000000000000000 0.00000000000000000 0.00000000000000000 1.00000000000000000 
2 0.00000000000000000 0.00000000000000000 1.00000000000000000 0.00000000000000000 -0.00000000000000000 1.00000000000000000 2.75000000000000000
1 0.00000000000000000 0.00000000000000000 1.00000000000000000 0.00000000000000000 
1 0.00000000000000000 5.50000000000000000 1.00000000000000000 0.00000000000000000 
2 0.00000000000000000 0.00000000000000000 1.00000000000000000 0.00000000000000000 -0.00000000000000000 1.00000000000000000 8.00000000000000000
1 6.28318530717958623 0.00000000000000000 0.00000000000000000 1.00000000000000000 
1 0.00000000000000000 0.00000000000000000 0.00000000000000000 1.00000000000000000 
Curves 39
1 294.98909406777409004 186.81881904796244953 0.00000000000000000 0.00000000000000000 0.00000000000000000 1.00000000000000000 
1 271.43354059483937135 205.69860600337565870 0.00000000000000000 0.00000000000000000 0.00000000000000000 1.00000000000000000 
2 255.70454913011639064 161.93962032611537438 0.00000000000000000 0.00000000000000000 -0.00000000000000000 1.00000000000000000 1.00000000000000000 0.00000000000000000 0.00000000000000000 -0.00000000000000000 1.00000000000000000 0.00000000000000000 46.50000000000000000
2 0.00000000000000000 0.00000000000000000 0.00000000000000000 0.00000000000000000 -0.00000000000000000 1.00000000000000000 1.00000000000000000 0.00000000000000000 0.00000000000000000 -0.00000000000000000 1.00000000000000000 0.00000000000000000 349.17021174407386752
2 0.00000000000002132 0.00000000000009948 0.00000000000000000 0.00000000000000000 0.00000000000000000 -1.00000000000000000 0.50000000000000033 0.86602540378443860 0.00000000000000000 0.86602540378443860 -0.50000000000000033 0.00000000000000000 349.17021174407386752
1 309.28439023443081624 162.05863977806851040 0.00000000000000000 0.00000000000000000 0.00000000000000000 1.00000000000000000 
1 -271.43354059483942819 205.69860600337551659 0.00000000000000000 0.00000000000000000 0.00000000000000000 1.00000000000000000 
2 0.00000000000000000 -549.44557738923845136 0.00000000000000000 0.00000000000000000 0.00000000000000000 -1.00000000000000000 -1.00000000000000000 0.00000000000000000 0.00000000000000000 0.00000000000000000 1.00000000000000000 0.00000000000000000 802.44557738923845136
2 0.00000000000000000 -549.44557738923845136 0.00000000000000000 0.00000000000000000 -0.00000000000000000 1.00000000000000000 1.00000000000000000 0.00000000000000000 0.00000000000000000 -0.00000000000000000 1.00000000000000000 0.00000000000000000 802.44557738923845136
2 268.09609964668106841 140.47682524686922534 0.00000000000000000 0.00000000000000000 0.00000000000000000 -1.00000000000000000 0.50000000000000033 0.86602540378443860 0.00000000000000000 0.86602540378443860 -0.50000000000000033 0.00000000000000000 46.49999999999999289
2 -475.83382801608922819 274.72278869461950990 0.00000000000000000 0.00000000000000000 0.00000000000000000 -1.00000000000000000 0.50000000000000033 0.86602540378443860 0.00000000000000000 0.86602540378443860 -0.50000000000000033 0.00000000000000000 802.44557738923845136
2 -475.83382801608922819 274.72278869461950990 0.00000000000000000 0.00000000000000000 0.00000000000000000 1.00000000000000000 -0.50000000000000033 -0.86602540378443860 0.00000000000000000 0.86602540378443860 -0.50000000000000033 0.00000000000000000 802.44557738923856505
2 -255.70454913011639064 161.93962032611537438 0.00000000000000000 0.00000000000000000 0.00000000000000000 -1.00000000000000000 -1.00000000000000000 0.00000000000000000 0.00000000000000000 0.00000000000000000 1.00000000000000000 0.00000000000000000 46.50000000000000000
2 12.39155051656450013 -302.41644557298451446 0.00000000000000000 0.00000000000000000 0.00000000000000000 1.00000000000000000 -0.50000000000000033 -0.86602540378443860 0.00000000000000000 0.86602540378443860 -0.50000000000000033 0.00000000000000000 46.50000000000000000
2 0.00000000000000000 0.00000000000000000 0.00000000000000000 0.00000000000000000 0.00000000000000000 -1.00000000000000000 -1.00000000000000000 0.00000000000000000 0.00000000000000000 0.00000000000000000 1.00000000000000000 0.00000000000000000 349.17021174407386752
2 0.00000000000002132 0.00000000000009948 0.00000000000000000 0.00000000000000000 0.00000000000000000 1.00000000000000000 -0.50000000000000033 -0.86602540378443860 0.00000000000000000 0.86602540378443860 -0.50000000000000033 0.00000000000000000 349.17021174407386752
2 0.00000000000008527 -0.00000000000002842 0.00000000000000000 0.00000000000000000 0.00000000000000000 1.00000000000000000 -0.50000000000000056 0.86602540378443837 0.00000000000000000 -0.86602540378443837 -0.50000000000000056 0.00000000000000000 349.17021174407392436
2 0.00000000000008527 -0.00000000000002842 0.00000000000000000 -0.00000000000000000 0.00000000000000000 -1.00000000000000000 0.50000000000000056 -0.86602540378443837 -0.00000000000000000 -0.86602540378443837 -0.50000000000000056 0.00000000000000000 349.17021174407392436
2 -268.09609964668106841 140.47682524686905481 0.00000000000000000 0.00000000000000000 0.00000000000000000 1.00000000000000000 -0.50000000000000056 0.86602540378443837 0.00000000000000000 -0.86602540378443837 -0.50000000000000056 0.00000000000000000 46.50000000000002132
2 -12.39155051656428341 -302.41644557298468499 0.00000000000000000 -0.00000000000000000 0.00000000000000000 -1.00000000000000000 0.50000000000000056 -0.86602540378443837 -0.00000000000000000 -0.86602540378443837 -0.50000000000000056 0.00000000000000000 46.50000000000000711
2 475.83382801608934187 274.72278869461956674 0.00000000000000000 0.00000000000000000 0.00000000000000000 1.00000000000000000 -0.50000000000000056 0.86602540378443837 0.00000000000000000 -0.86602540378443837 -0.50000000000000056 0.00000000000000000 802.44557738923867873
2 475.83382801608934187 274.72278869461956674 0.00000000000000000 -0.00000000000000000 0.00000000000000000 -1.00000000000000000 0.50000000000000056 -0.86602540378443837 -0.00000000000000000 -0.86602540378443837 -0.50000000000000056 0.00000000000000000 802.44557738923867873
2 -22.50000000000000355 136.00000000000000000 0.00000000000000000 0.00000000000000000 0.00000000000000000 -1.00000000000000000 1.00000000000000000 0.00000000000000000 0.00000000000000000 0.00000000000000000 -1.00000000000000000 0.00000000000000000 2.75000000000000000
2 22.49999999999999645 136.00000000000000000 0.00000000000000000 0.00000000000000000 0.00000000000000000 -1.00000000000000000 1.00000000000000000 0.00000000000000000 0.00000000000000000 0.00000000000000000 -1.00000000000000000 0.00000000000000000 2.75000000000000000
2 -22.49999999999999645 161.00000000000000000 0.00000000000000000 0.00000000000000000 0.00000000000000000 -1.00000000000000000 1.00000000000000000 0.00000000000000000 0.00000000000000000 0.00000000000000000 -1.00000000000000000 0.00000000000000000 2.75000000000000000
2 22.50000000000000355 161.00000000000000000 0.00000000000000000 0.00000000000000000 0.00000000000000000 -1.00000000000000000 1.00000000000000000 0.00000000000000000 0.00000000000000000 0.00000000000000000 -1.00000000000000000 0.00000000000000000 2.75000000000000000
2 0.00000000000000000 0.00000000000000000 0.00000000000000000 0.00000000000000000 0.00000000000000000 1.00000000000000000 1.00000000000000000 0.00000000000000000 -0.00000000000000000 -0.00000000000000000 1.00000000000000000 0.00000000000000000 8.00000000000000000
1 313.85698861938919890 132.21903859259791147 0.00000000000000000 0.00000000000000000 0.00000000000000000 1.00000000000000000 
1 -294.98909406777397635 186.81881904796253480 0.00000000000000000 0.00000000000000000 0.00000000000000000 1.00000000000000000 
1 42.42344802454981334 -337.91764459597339965 0.00000000000000000 0.00000000000000000 0.00000000000000000 1.00000000000000000 
1 14.29529616665654856 -348.87745882603098835 0.00000000000000000 0.00000000000000000 0.00000000000000000 1.00000000000000000 
1 -309.28439023443070255 162.05863977806836829 0.00000000000000000 0.00000000000000000 0.00000000000000000 1.00000000000000000 
1 -14.29529616665639580 -348.87745882603110203 0.00000000000000000 0.00000000000000000 0.00000000000000000 1.00000000000000000 
1 -313.85698861938936943 132.21903859259759884 0.00000000000000000 0.00000000000000000 0.00000000000000000 1.00000000000000000 
1 -42.42344802454931596 -337.91764459597379755 0.00000000000000000 0.00000000000000000 0.00000000000000000 1.00000000000000000 
1 2.75000000000000000 0.00000000000000000 -5.50000000000000000 -0.00000000000000006 0.00000000000000000 -1.00000000000000000 
2 0.00000000000000000 0.00000000000000000 -5.50000000000000000 0.00000000000000000 0.00000000000000000 1.00000000000000000 1.00000000000000000 0.00000000000000000 -0.00000000000000000 -0.00000000000000000 1.00000000000000000 0.00000000000000000 2.75000000000000000
2 0.00000000000000000 0.00000000000000000 -5.50000000000000000 0.00000000000000000 0.00000000000000000 1.00000000000000000 1.00000000000000000 0.00000000000000000 -0.00000000000000000 -0.00000000000000000 1.00000000000000000 0.00000000000000000 8.00000000000000000
1 8.00000000000000000 0.00000000000000000 -0.00000000000000000 0.00000000000000000 0.00000000000000000 -1.00000000000000000 
Polygon3D 0
PolygonOnTriangulations 0
Surfaces 23
2 255.70454913011639064 161.93962032611537438 0.00000000000000000 -0.00000000000000000 -0.00000000000000000 -1.00000000000000000 1.00000000000000000 0.00000000000000000 0.00000000000000000 -0.00000000000000000 1.00000000000000000 -0.00000000000000000 46.50000000000000000
2 0.00000000000000000 0.00000000000000000 0.00000000000000000 -0.00000000000000000 -0.00000000000000000 -1.00000000000000000 1.00000000000000000 0.00000000000000000 0.00000000000000000 -0.00000000000000000 1.00000000000000000 -0.00000000000000000 349.17021174407386752
2 0.00000000000000000 -549.44557738923845136 0.00000000000000000 -0.00000000000000000 -0.00000000000000000 -1.00000000000000000 1.00000000000000000 0.00000000000000000 0.00000000000000000 -0.00000000000000000 1.00000000000000000 -0.00000000000000000 802.44557738923845136
1 0.00000000000001316 -0.00000000000002677 0.00000000000000000 0.00000000000000000 0.00000000000000000 1.00000000000000000 1.00000000000000000 0.00000000000000000 -0.00000000000000000 -0.00000000000000000 1.00000000000000000 0.00000000000000000 
2 0.00000000000002132 0.00000000000009948 0.00000000000000000 0.00000000000000000 0.00000000000000000 -1.00000000000000000 0.50000000000000033 0.86602540378443860 0.00000000000000000 0.86602540378443860 -0.50000000000000033 0.00000000000000000 349.17021174407386752
2 268.09609964668106841 140.47682524686922534 0.00000000000000000 0.00000000000000000 0.00000000000000000 -1.00000000000000000 0.50000000000000033 0.86602540378443860 0.00000000000000000 0.86602540378443860 -0.50000000000000033 0.00000000000000000 46.49999999999999289
2 0.00000000000000000 -549.44557738923845136 0.00000000000000000 0.00000000000000000 0.00000000000000000 -1.00000000000000000 -1.00000000000000000 0.00000000000000000 0.00000000000000000 0.00000000000000000 1.00000000000000000 0.00000000000000000 802.44557738923845136
2 -255.70454913011639064 161.93962032611537438 0.00000000000000000 0.00000000000000000 0.00000000000000000 -1.00000000000000000 -1.00000000000000000 0.00000000000000000 0.00000000000000000 0.00000000000000000 1.00000000000000000 0.00000000000000000 46.50000000000000000
2 -475.83382801608922819 274.72278869461950990 0.00000000000000000 0.00000000000000000 0.00000000000000000 -1.00000000000000000 0.50000000000000033 0.86602540378443860 0.00000000000000000 0.86602540378443860 -0.50000000000000033 0.00000000000000000 802.44557738923845136
2 -475.83382801608922819 274.72278869461950990 0.00000000000000000 -0.00000000000000000 -0.00000000000000000 -1.00000000000000000 -0.50000000000000033 -0.86602540378443860 0.00000000000000000 0.86602540378443860 -0.50000000000000033 -0.00000000000000000 802.44557738923856505
2 12.39155051656450013 -302.41644557298451446 0.00000000000000000 -0.00000000000000000 -0.00000000000000000 -1.00000000000000000 -0.50000000000000033 -0.86602540378443860 0.00000000000000000 0.86602540378443860 -0.50000000000000033 -0.00000000000000000 46.50000000000000000
2 0.00000000000000000 0.00000000000000000 0.00000000000000000 0.00000000000000000 0.00000000000000000 -1.00000000000000000 -1.00000000000000000 0.00000000000000000 0.00000000000000000 0.00000000000000000 1.00000000000000000 0.00000000000000000 349.17021174407386752
2 0.00000000000002132 0.00000000000009948 0.00000000000000000 -0.00000000000000000 -0.00000000000000000 -1.00000000000000000 -0.50000000000000033 -0.86602540378443860 0.00000000000000000 0.86602540378443860 -0.50000000000000033 -0.00000000000000000 349.17021174407386752
2 0.00000000000008527 -0.00000000000002842 0.00000000000000000 0.00000000000000000 -0.00000000000000000 -1.00000000000000000 0.50000000000000056 -0.86602540378443837 0.00000000000000000 -0.86602540378443837 -0.50000000000000056 0.00000000000000000 349.17021174407392436
2 0.00000000000008527 -0.00000000000002842 0.00000000000000000 -0.00000000000000000 -0.00000000000000000 -1.00000000000000000 -0.50000000000000056 0.86602540378443837 0.00000000000000000 -0.86602540378443837 -0.50000000000000056 0.00000000000000000 349.17021174407392436
2 -268.09609964668106841 140.47682524686905481 0.00000000000000000 -0.00000000000000000 -0.00000000000000000 -1.00000000000000000 -0.50000000000000056 0.86602540378443837 0.00000000000000000 -0.86602540378443837 -0.50000000000000056 0.00000000000000000 46.50000000000002132
2 -12.39155051656428341 -302.41644557298468499 0.00000000000000000 0.00000000000000000 -0.00000000000000000 -1.00000000000000000 0.50000000000000056 -0.86602540378443837 0.00000000000000000 -0.86602540378443837 -0.50000000000000056 0.00000000000000000 46.50000000000000711
2 475.83382801608934187 274.72278869461956674 0.00000000000000000 -0.00000000000000000 -0.00000000000000000 -1.00000000000000000 -0.50000000000000056 0.86602540378443837 0.00000000000000000 -0.86602540378443837 -0.50000000000000056 0.00000000000000000 802.44557738923867873
2 475.83382801608934187 274.72278869461956674 0.00000000000000000 0.00000000000000000 -0.00000000000000000 -1.00000000000000000 0.50000000000000056 -0.86602540378443837 0.00000000000000000 -0.86602540378443837 -0.50000000000000056 0.00000000000000000 802.44557738923867873
2 0.00000000000000000 0.00000000000000000 -5.50000000000000000 -0.00000000000000000 -0.00000000000000000 -1.00000000000000000 1.00000000000000000 0.00000000000000000 0.00000000000000000 -0.00000000000000000 1.00000000000000000 -0.00000000000000000 2.75000000000000000
1 0.00000000000000000 0.00000000000000000 0.00000000000000000 0.00000000000000000 0.00000000000000000 1.00000000000000000 -1.00000000000000000 -0.00000000000000000 0.00000000000000000 -0.00000000000000000 1.00000000000000000 -0.00000000000000000 
2 0.00000000000000000 0.00000000000000000 0.00000000000000000 -0.00000000000000000 -0.00000000000000000 -1.00000000000000000 1.00000000000000000 0.00000000000000000 0.00000000000000000 -0.00000000000000000 1.00000000000000000 -0.00000000000000000 8.00000000000000000
1 0.00000000000000000 0.00000000000000000 -5.50000000000000000 0.00000000000000000 0.00000000000000000 1.00000000000000000 1.00000000000000000 0.00000000000000000 -0.00000000000000000 -0.00000000000000000 1.00000000000000000 0.00000000000000000 
Triangulations 0

TShapes 118
Ve
0.000000100000000
294.989094067774090 186.818819047962450 0.000000000000000
0 0

0101101
*
Ed
 0.000000100000000 1 1 0
1  1 0 0.000000000000000 18.000000000000000
2  1 1 0 0.000000000000000 18.000000000000000
4 G1 2 0 1 0
2  2 2 0 0.000000000000000 18.000000000000000
0

0101000
+118 8 -118 10 *
Ve
0.000000100000000
271.433540594839371 205.698606003375659 0.000000000000000
0 0

0101101
*
Ed
 0.000000100000000 1 1 0
1  2 0 0.000000000000000 18.000000000000000
2  3 1 0 0.000000000000000 18.000000000000000
2  4 3 0 0.000000000000000 18.000000000000000
4 G1 1 0 3 0
0

0101000
+116 8 -116 10 *
Ed
 0.000000100000000 1 1 0
1  3 0 6.847736295201390 7.508916597287877
2  5 1 11 6.847736295201390 7.508916597287877
2  6 1 12 6.847736295201390 7.508916597287877
2  7 4 0 6.847736295201390 7.508916597287877
0

0101000
+118 0 -116 0 *
Wi

0101100
+117 0 -115 0 -114 8 +114 10 *
Fa
0  0.000000100000000 1 0

0101000
+113 0 *
Ve
0.000000100000000
302.390273615159629 174.585105872036678 0.000000000000000
0 0

0101101
*
Ed
 0.000000100000000 1 1 0
1  4 0 6.806784082777884 6.847736295201389
2  8 2 12 6.806784082777884 6.847736295201389
2  9 2 11 6.806784082777884 6.847736295201389
2  10 4 0 6.806784082777884 6.847736295201389
0

0101000
+111 0 -118 0 *
Ve
0.000000100000000
309.284390234430816 162.058639778068510 0.000000000000000
0 0

0101101
*
Ed
 0.000000100000000 1 1 0
1  5 0 6.806784082777885 6.847736295201389
2  11 5 11 6.806784082777885 6.847736295201389
2  12 5 12 6.806784082777885 6.847736295201389
2  13 2 11 6.806784082777885 6.847736295201389
2  14 2 12 6.806784082777885 6.847736295201389
2  15 4 0 6.806784082777885 6.847736295201389
0

0101000
+111 0 -109 0 *
Ed
 0.000000100000000 1 1 0
1  6 0 0.000000000000000 18.000000000000000
2  16 6 0 0.000000000000000 18.000000000000000
2  17 5 0 0.000000000000000 18.000000000000000
4 G1 6 0 5 0
2  18 2 0 0.000000000000000 18.000000000000000
0

0101000
+109 8 -109 10 *
Wi

0101100
+110 10 -117 0 -110 8 +108 8 +107 0 -108 10 *
Fa
0  0.000000100000000 2 0

0101000
+106 0 *
Ve
0.000000100000000
-271.433540594839428 205.698606003375517 0.000000000000000
0 0

0101101
*
Ed
 0.000000100000000 1 1 0
1  7 0 0.000000000000000 18.000000000000000
2  19 7 0 0.000000000000000 18.000000000000000
2  20 8 0 0.000000000000000 18.000000000000000
4 G1 7 0 8 0
2  21 3 0 0.000000000000000 18.000000000000000
0

0101000
+104 8 -104 10 *
Ve
0.000000100000000
0.000000000000049 253.000000000000000 0.000000000000000
0 0

0101101
*
Ed
 0.000000100000000 1 1 0
1  8 0 1.225731290108291 1.570796326794897
2  22 7 11 1.225731290108291 1.570796326794897
2  23 7 12 1.225731290108291 1.570796326794897
2  24 3 11 1.225731290108291 1.570796326794897
2  25 3 12 1.225731290108291 1.570796326794897
2  26 4 0 1.225731290108291 1.570796326794897
0

0101000
+104 0 -102 0 *
Ed
 0.000000100000000 1 1 0
1  9 0 1.225731290108291 1.570796326794897
2  27 3 11 1.225731290108291 1.570796326794897
2  28 3 12 1.225731290108291 1.570796326794897
2  29 4 0 1.225731290108291 1.570796326794897
0

0101000
+116 0 -102 0 *
Wi

0101100
-103 0 +101 8 -100 8 +115 0 +100 10 -101 10 *
Fa
0  0.000000100000000 3 0

0101000
+99 0 *
Ve
0.000000100000000
313.856988619389199 132.219038592597911 0.000000000000000
0 0

0101101
*
Ed
 0.000000100000000 1 1 0
1  10 0 6.847736295201389 7.508916597287877
2  30 6 11 6.847736295201389 7.508916597287877
2  31 6 12 6.847736295201389 7.508916597287877
2  32 4 0 6.847736295201389 7.508916597287877
0

0101000
+109 0 -97 0 *
Ve
0.000000100000000
219.104427157463078 -126.500000000000114 0.000000000000000
0 0

0101101
*
Ed
 0.000000100000000 1 1 0
1  11 0 1.225731290108291 1.570796326794897
2  33 9 11 1.225731290108291 1.570796326794897
2  34 9 12 1.225731290108291 1.570796326794897
2  35 10 11 1.225731290108291 1.570796326794897
2  36 10 12 1.225731290108291 1.570796326794897
2  37 4 0 1.225731290108291 1.570796326794897
0

0101000
+97 0 -95 0 *
Ve
0.000000100000000
42.423448024549813 -337.917644595973400 0.000000000000000
0 0

0101101
*
Ed
 0.000000100000000 1 1 0
1  12 0 1.225731290108291 1.570796326794897
2  38 10 11 1.225731290108291 1.570796326794897
2  39 10 12 1.225731290108291 1.570796326794897
2  40 4 0 1.225731290108291 1.570796326794897
0

0101000
+93 0 -95 0 *
Ve
0.000000100000000
-294.989094067773976 186.818819047962535 0.000000000000000
0 0

0101101
*
Ed
 0.000000100000000 1 1 0
1  13 0 6.847736295201390 7.508916597287877
2  41 8 11 6.847736295201390 7.508916597287877
2  42 8 12 6.847736295201390 7.508916597287877
2  43 4 0 6.847736295201390 7.508916597287877
0

0101000
+91 0 -104 0 *
Ve
0.000000100000000
14.295296166656549 -348.877458826030988 0.000000000000000
0 0

0101101
*
Ed
 0.000000100000000 1 1 0
1  14 0 6.847736295201389 7.508916597287877
2  44 11 11 6.847736295201389 7.508916597287877
2  45 11 12 6.847736295201389 7.508916597287877
2  46 4 0 6.847736295201389 7.508916597287877
0

0101000
+89 0 -93 0 *
Ve
0.000000100000000
-302.390273615159515 174.585105872036934 0.000000000000000
0 0

0101101
*
Ed
 0.000000100000000 1 1 0
1  15 0 6.806784082777885 6.847736295201389
2  47 12 11 6.806784082777885 6.847736295201389
2  48 12 12 6.806784082777885 6.847736295201389
2  49 4 0 6.806784082777885 6.847736295201389
0

0101000
+87 0 -91 0 *
Ve
0.000000100000000
-0.000000000000028 -349.170211744073981 0.000000000000000
0 0

0101101
*
Ed
 0.000000100000000 1 1 0
1  16 0 6.806784082777885 6.847736295201389
2  50 13 11 6.806784082777885 6.847736295201389
2  51 13 12 6.806784082777885 6.847736295201389
2  52 14 11 6.806784082777885 6.847736295201389
2  53 14 12 6.806784082777885 6.847736295201389
2  54 4 0 6.806784082777885 6.847736295201389
0

0101000
+85 0 -89 0 *
Ve
0.000000100000000
-309.284390234430703 162.058639778068368 0.000000000000000
0 0

0101101
*
Ed
 0.000000100000000 1 1 0
1  17 0 6.806784082777884 6.847736295201389
2  55 15 11 6.806784082777884 6.847736295201389
2  56 15 12 6.806784082777884 6.847736295201389
2  57 12 11 6.806784082777884 6.847736295201389
2  58 12 12 6.806784082777884 6.847736295201389
2  59 4 0 6.806784082777884 6.847736295201389
0

0101000
+87 0 -83 0 *
Ve
0.000000100000000
-14.295296166656396 -348.877458826031102 0.000000000000000
0 0

0101101
*
Ed
 0.000000100000000 1 1 0
1  18 0 6.806784082777886 6.847736295201389
2  60 14 11 6.806784082777886 6.847736295201389
2  61 14 12 6.806784082777886 6.847736295201389
2  62 4 0 6.806784082777886 6.847736295201389
0

0101000
+85 0 -81 0 *
Ve
0.000000100000000
-313.856988619389369 132.219038592597599 0.000000000000000
0 0

0101101
*
Ed
 0.000000100000000 1 1 0
1  19 0 6.847736295201389 7.508916597287877
2  63 16 11 6.847736295201389 7.508916597287877
2  64 16 12 6.847736295201389 7.508916597287877
2  65 4 0 6.847736295201389 7.508916597287877
0

0101000
+83 0 -79 0 *
Ve
0.000000100000000
-42.423448024549316 -337.917644595973798 0.000000000000000
0 0

0101101
*
Ed
 0.000000100000000 1 1 0
1  20 0 6.847736295201389 7.508916597287877
2  66 17 11 6.847736295201389 7.508916597287877
2  67 17 12 6.847736295201389 7.508916597287877
2  68 4 0 6.847736295201389 7.508916597287877
0

0101000
+81 0 -77 0 *
Ve
0.000000100000000
-219.104427157462851 -126.500000000000171 0.000000000000000
0 0

0101101
*
Ed
 0.000000100000000 1 1 0
1  21 0 1.225731290108291 1.570796326794897
2  69 18 11 1.225731290108291 1.570796326794897
2  70 18 12 1.225731290108291 1.570796326794897
2  71 4 0 1.225731290108291 1.570796326794897
0

0101000
+79 0 -75 0 *
Ed
 0.000000100000000 1 1 0
1  22 0 1.225731290108291 1.570796326794897
2  72 19 11 1.225731290108291 1.570796326794897
2  73 19 12 1.225731290108291 1.570796326794897
2  74 18 11 1.225731290108291 1.570796326794897
2  75 18 12 1.225731290108291 1.570796326794897
2  76 4 0 1.225731290108291 1.570796326794897
0

0101000
+77 0 -75 0 *
Wi

0101100
+110 13 -108 13 +114 13 -96 13 +100 13 -94 13 -101 13 +92 13 -90 13 +88 13 
-86 13 +84 13 +82 13 -80 13 +78 13 -76 13 +74 13 -73 13 *
Ve
0.000000100000000
-19.750000000000004 136.000000000000000 0.000000000000000
0 0

0101101
*
Ed
 0.000000100000000 1 1 0
1  23 0 0.000000000000000 6.283185307179586
2  77 4 13 0.000000000000000 6.283185307179586
2  78 20 14 0.000000000000000 6.283185307179586
0

0101100
+71 0 -71 0 *
Wi

0101100
+70 0 *
Ve
0.000000100000000
25.249999999999996 136.000000000000000 0.000000000000000
0 0

0101101
*
Ed
 0.000000100000000 1 1 0
1  24 0 0.000000000000000 6.283185307179586
2  79 4 13 0.000000000000000 6.283185307179586
2  80 20 15 0.000000000000000 6.283185307179586
0

0101100
+68 0 -68 0 *
Wi

0101100
+67 0 *
Ve
0.000000100000000
-19.749999999999996 161.000000000000000 0.000000000000000
0 0

0101101
*
Ed
 0.000000100000000 1 1 0
1  25 0 0.000000000000000 6.283185307179586
2  81 4 13 0.000000000000000 6.283185307179586
2  82 20 16 0.000000000000000 6.283185307179586
0

0101100
+65 0 -65 0 *
Wi

0101100
+64 0 *
Ve
0.000000100000000
25.250000000000004 161.000000000000000 0.000000000000000
0 0

0101101
*
Ed
 0.000000100000000 1 1 0
1  26 0 0.000000000000000 6.283185307179586
2  83 4 13 0.000000000000000 6.283185307179586
2  84 20 17 0.000000000000000 6.283185307179586
0

0101100
+62 0 -62 0 *
Wi

0101100
+61 0 *
Fa
0  0.000000100000000 4 13

0101000
+72 0 +69 0 +66 0 +63 0 +60 0 *
Wi

0101100
+110 18 -108 18 +114 18 -96 18 +100 18 -94 18 -101 18 +92 18 -90 18 +88 18 
-86 18 +84 18 +82 18 -80 18 +78 18 -76 18 +74 18 -73 18 *
Ve
0.000000100000000
8.000000000000000 0.000000000000000 -0.000000000000000
0 0

0101101
*
Ed
 0.000000100000000 1 1 0
1  27 0 0.000000000000000 6.283185307179586
2  85 21 0 0.000000000000000 6.283185307179586
2  86 22 0 0.000000000000000 6.283185307179586
2  87 4 19 0.000000000000000 6.283185307179586
2  88 4 20 0.000000000000000 6.283185307179586
2  89 4 21 0.000000000000000 6.283185307179586
2  90 4 22 0.000000000000000 6.283185307179586
0

0101000
+57 0 -57 0 *
Wi

0101100
-56 14 *
Wi

0101100
-56 15 *
Wi

0101100
-56 16 *
Wi

0101100
-56 17 *
Fa
0  0.000000100000000 4 18

0101000
+58 0 +55 0 +54 0 +53 0 +52 0 *
Ed
 0.000000100000000 1 1 0
1  28 0 0.000000000000000 18.000000000000000
2  91 9 0 0.000000000000000 18.000000000000000
2  92 6 0 0.000000000000000 18.000000000000000
4 G1 9 0 6 0
2  93 10 0 0.000000000000000 18.000000000000000
0

0101000
+97 8 -97 10 *
Wi

0101100
+107 0 -50 0 -96 8 +96 10 *
Fa
0  0.000000100000000 6 0

0101000
+49 0 *
Ed
 0.000000100000000 1 1 0
1  29 0 0.000000000000000 18.000000000000000
2  94 8 0 0.000000000000000 18.000000000000000
4 G1 8 0 12 0
2  95 12 0 0.000000000000000 18.000000000000000
0

0101000
+91 8 -91 10 *
Wi

0101100
+47 0 -103 0 -90 8 +90 10 *
Fa
0  0.000000100000000 8 0

0101000
+46 0 *
Ed
 0.000000100000000 1 1 0
1  30 0 0.000000000000000 18.000000000000000
2  96 11 0 0.000000000000000 18.000000000000000
2  97 10 0 0.000000000000000 18.000000000000000
4 G1 11 0 10 0
0

0101000
+93 8 -93 10 *
Wi

0101100
-50 0 +94 8 -92 8 +44 0 +92 10 -94 10 *
Fa
0  0.000000100000000 10 0

0101000
+43 0 *
Ed
 0.000000100000000 1 1 0
1  31 0 0.000000000000000 18.000000000000000
2  98 13 0 0.000000000000000 18.000000000000000
2  99 11 0 0.000000000000000 18.000000000000000
4 G1 13 0 11 0
2  100 14 0 0.000000000000000 18.000000000000000
0

0101000
+89 8 -89 10 *
Wi

0101100
+41 0 -44 0 -88 8 +88 10 *
Fa
0  0.000000100000000 11 0

0101000
+40 0 *
Ed
 0.000000100000000 1 1 0
1  32 0 0.000000000000000 18.000000000000000
2  101 15 0 0.000000000000000 18.000000000000000
2  102 16 0 0.000000000000000 18.000000000000000
4 G1 15 0 16 0
2  103 12 0 0.000000000000000 18.000000000000000
0

0101000
+83 8 -83 10 *
Wi

0101100
-82 10 +86 10 -47 0 -86 8 +82 8 +38 0 *
Fa
0  0.000000100000000 12 0

0101000
+37 0 *
Ed
 0.000000100000000 1 1 0
1  33 0 0.000000000000000 18.000000000000000
2  104 17 0 0.000000000000000 18.000000000000000
4 G1 17 0 14 0
2  105 14 0 0.000000000000000 18.000000000000000
0

0101000
+81 8 -81 10 *
Wi

0101100
-84 10 +80 10 -35 0 -80 8 +84 8 +41 0 *
Fa
0  0.000000100000000 14 0

0101000
+34 0 *
Ed
 0.000000100000000 1 1 0
1  34 0 0.000000000000000 18.000000000000000
2  106 16 0 0.000000000000000 18.000000000000000
2  107 18 0 0.000000000000000 18.000000000000000
4 G1 16 0 18 0
0

0101000
+79 8 -79 10 *
Wi

0101100
+38 0 -32 0 -78 8 +78 10 *
Fa
0  0.000000100000000 16 0

0101000
+31 0 *
Ed
 0.000000100000000 1 1 0
1  35 0 0.000000000000000 18.000000000000000
2  108 19 0 0.000000000000000 18.000000000000000
2  109 17 0 0.000000000000000 18.000000000000000
4 G1 19 0 17 0
2  110 18 0 0.000000000000000 18.000000000000000
0

0101000
+77 8 -77 10 *
Wi

0101100
+35 0 -29 0 -76 8 +76 10 *
Fa
0  0.000000100000000 17 0

0101000
+28 0 *
Wi

0101100
-29 0 +73 8 -74 8 +32 0 +74 10 -73 10 *
Fa
0  0.000000100000000 18 0

0101000
+26 0 *
Ve
0.000000100000000
2.750000000000000 0.000000000000000 -5.500000000000000
0 0

0101101
*
Ed
 0.000000100000000 1 1 0
1  36 0 0.000000000000000 12.500000000000000
3  111 112CN 20 0 0.000000000000000 12.500000000000000
0

0101000
+24 0 -71 23 *
Ed
 0.000000100000000 1 1 0
1  37 0 0.000000000000000 6.283185307179586
2  113 23 0 0.000000000000000 6.283185307179586
2  114 20 0 0.000000000000000 6.283185307179586
0

0101000
+24 0 -24 0 *
Wi

0101100
-23 14 +70 0 +23 14 +22 14 *
Fa
0  0.000000100000000 20 14

0101000
+21 0 *
Ed
 0.000000100000000 1 1 0
1  36 0 0.000000000000000 12.500000000000000
3  111 112CN 20 0 0.000000000000000 12.500000000000000
0

0101000
+24 0 -68 24 *
Wi

0101100
-19 15 +67 0 +19 15 +22 15 *
Fa
0  0.000000100000000 20 15

0101000
+18 0 *
Ed
 0.000000100000000 1 1 0
1  36 0 0.000000000000000 12.500000000000000
3  111 112CN 20 0 0.000000000000000 12.500000000000000
0

0101000
+24 0 -65 25 *
Wi

0101100
-16 16 +64 0 +16 16 +22 16 *
Fa
0  0.000000100000000 20 16

0101000
+15 0 *
Ed
 0.000000100000000 1 1 0
1  36 0 0.000000000000000 12.500000000000000
3  111 112CN 20 0 0.000000000000000 12.500000000000000
0

0101000
+24 0 -62 26 *
Wi

0101100
-13 17 +61 0 +13 17 +22 17 *
Fa
0  0.000000100000000 20 17

0101000
+12 0 *
Ve
0.000000100000000
8.000000000000000 0.000000000000000 -5.500000000000000
0 0

0101101
*
Ed
 0.000000100000000 1 1 0
1  38 0 0.000000000000000 6.283185307179586
2  115 22 0 0.000000000000000 6.283185307179586
2  116 23 0 0.000000000000000 6.283185307179586
0

0101000
+10 0 -10 0 *
Ed
 0.000000100000000 1 1 0
1  39 0 0.000000000000000 5.500000000000000
3  117 118CN 22 0 0.000000000000000 5.500000000000000
0

0101000
+57 0 -10 0 *
Wi

0101100
+56 0 -9 0 -8 0 +8 0 *
Fa
0  0.000000100000000 22 0

0101000
+7 0 *
Wi

0101100
+9 0 *
Wi

0101100
-22 0 *
Fa
0  0.000000100000000 23 0

0101000
+5 0 +4 0 *
Sh

0101100
-112 4 -105 4 -98 4 -59 0 +51 0 +48 4 +45 4 -42 4 -39 4 +36 4 
+33 4 -30 4 +27 4 -25 4 +20 0 +17 0 +14 0 +11 0 +6 14 +6 15 
+6 16 +6 17 +3 14 +3 15 +3 16 +3 17 *
So

0100000
+2 0 *

+1 1 