
CASCADE Topology V1, (c) Matra-Datavision
Locations 41
1
1.000000000000000 0.000000000000000 0.000000000000000 0.000000000000000 
0.000000000000000 1.000000000000000 0.000000000000000 0.000000000000000 
0.000000000000000 0.000000000000000 1.000000000000000 0.000000000000000 
1
1.000000000000000 0.000000000000000 0.000000000000000 0.000000000000000 
0.000000000000000 -0.000000000000000 -1.000000000000000 0.000000000000000 
0.000000000000000 1.000000000000000 -0.000000000000000 0.000000000000000 
1
1.000000000000000 0.000000000000000 0.000000000000000 0.000000000000000 
0.000000000000000 1.000000000000000 0.000000000000000 0.000000000000000 
0.000000000000000 0.000000000000000 1.000000000000000 0.000000000000000 
2  1 1 2 1 3 -1 0
1
1.000000000000000 0.000000000000000 0.000000000000000 -0.000000000000000 
0.000000000000000 1.000000000000000 0.000000000000000 -2275.392953263234176 
0.000000000000000 0.000000000000000 1.000000000000000 -0.000000000000505 
2  1 1 2 1 3 -1 5 1 0
1
1.000000000000000 0.000000000000000 0.000000000000000 0.000000000000000 
0.000000000000000 1.000000000000000 0.000000000000000 0.000000000000000 
0.000000000000000 0.000000000000000 1.000000000000000 0.000000000000000 
1
1.000000000000000 0.000000000000000 0.000000000000000 0.000000000000000 
0.000000000000000 -0.000000000000000 -1.000000000000000 0.000000000000000 
0.000000000000000 1.000000000000000 -0.000000000000000 0.000000000000000 
1
1.000000000000000 0.000000000000000 0.000000000000000 0.000000000000000 
0.000000000000000 1.000000000000000 0.000000000000000 0.000000000000000 
0.000000000000000 0.000000000000000 1.000000000000000 0.000000000000000 
2  7 1 8 -1 9 -1 0
1
1.000000000000000 0.000000000000000 0.000000000000000 -0.000000000000000 
0.000000000000000 1.000000000000000 0.000000000000000 -2275.392953263234176 
0.000000000000000 0.000000000000000 1.000000000000000 -0.000000000000505 
2  11 -1 7 1 8 -1 9 -1 0
1
1.000000000000000 0.000000000000000 0.000000000000000 0.000000000000000 
0.000000000000000 1.000000000000000 0.000000000000000 0.000000000000000 
0.000000000000000 0.000000000000000 1.000000000000000 0.000000000000000 
1
1.000000000000000 0.000000000000000 0.000000000000000 0.000000000000000 
0.000000000000000 -0.000000000000000 -1.000000000000000 0.000000000000000 
0.000000000000000 1.000000000000000 -0.000000000000000 0.000000000000000 
1
1.000000000000000 0.000000000000000 0.000000000000000 0.000000000000000 
0.000000000000000 1.000000000000000 0.000000000000000 0.000000000000000 
0.000000000000000 0.000000000000000 1.000000000000000 0.000000000000000 
2  13 1 14 -1 15 -1 0
1
1.000000000000000 0.000000000000000 0.000000000000000 -0.000000000000000 
0.000000000000000 1.000000000000000 0.000000000000000 -2275.392953263234176 
0.000000000000000 0.000000000000000 1.000000000000000 -0.000000000000505 
2  17 -1 13 1 14 -1 15 -1 0
2  3 1 2 -1 1 -1 0
2  5 -1 3 1 2 -1 1 -1 0
1
1.000000000000000 0.000000000000000 0.000000000000000 0.000000000000000 
0.000000000000000 1.000000000000000 0.000000000000000 0.000000000000000 
0.000000000000000 0.000000000000000 1.000000000000000 0.000000000000000 
1
1.000000000000000 0.000000000000000 0.000000000000000 0.000000000000000 
0.000000000000000 -0.000000000000000 -1.000000000000000 0.000000000000000 
0.000000000000000 1.000000000000000 -0.000000000000000 0.000000000000000 
1
1.000000000000000 0.000000000000000 0.000000000000000 0.000000000000000 
0.000000000000000 1.000000000000000 0.000000000000000 0.000000000000000 
0.000000000000000 0.000000000000000 1.000000000000000 0.000000000000000 
2  21 1 22 -1 23 -1 0
1
1.000000000000000 0.000000000000000 0.000000000000000 0.000000000000000 
0.000000000000000 1.000000000000000 0.000000000000000 5.000000000000000 
0.000000000000000 0.000000000000000 1.000000000000000 0.000000000000001 
2  25 -1 21 1 22 -1 23 -1 0
1
1.000000000000000 0.000000000000000 0.000000000000000 0.000000000000000 
0.000000000000000 1.000000000000000 0.000000000000000 0.000000000000000 
0.000000000000000 0.000000000000000 1.000000000000000 0.000000000000000 
1
1.000000000000000 0.000000000000000 0.000000000000000 0.000000000000000 
0.000000000000000 -0.000000000000000 -1.000000000000000 0.000000000000000 
0.000000000000000 1.000000000000000 -0.000000000000000 0.000000000000000 
1
1.000000000000000 0.000000000000000 0.000000000000000 0.000000000000000 
0.000000000000000 1.000000000000000 0.000000000000000 0.000000000000000 
0.000000000000000 0.000000000000000 1.000000000000000 0.000000000000000 
2  27 1 28 -1 29 -1 0
1
1.000000000000000 0.000000000000000 0.000000000000000 0.000000000000000 
0.000000000000000 1.000000000000000 0.000000000000000 5.000000000000000 
0.000000000000000 0.000000000000000 1.000000000000000 0.000000000000001 
2  31 -1 27 1 28 -1 29 -1 0
1
1.000000000000000 0.000000000000000 0.000000000000000 0.000000000000000 
0.000000000000000 1.000000000000000 0.000000000000000 0.000000000000000 
0.000000000000000 0.000000000000000 1.000000000000000 0.000000000000000 
1
1.000000000000000 0.000000000000000 0.000000000000000 0.000000000000000 
0.000000000000000 -0.000000000000000 -1.000000000000000 0.000000000000000 
0.000000000000000 1.000000000000000 -0.000000000000000 0.000000000000000 
1
1.000000000000000 0.000000000000000 0.000000000000000 0.000000000000000 
0.000000000000000 1.000000000000000 0.000000000000000 0.000000000000000 
0.000000000000000 0.000000000000000 1.000000000000000 0.000000000000000 
2  33 1 34 -1 35 -1 0
1
1.000000000000000 0.000000000000000 0.000000000000000 0.000000000000000 
0.000000000000000 1.000000000000000 0.000000000000000 2275.392953263234176 
0.000000000000000 0.000000000000000 1.000000000000000 0.000000000000505 
2  37 -1 33 1 34 -1 35 -1 0
2  3 -1 0
2  1 1 2 1 0
2  3 -1 5 1 0
Curve2ds 38
1 0.00000000000000000 0.00000000000000000 0.00000000000000000 -1.00000000000000000 
1 15.99999999999982592 0.00000000000000000 0.00000000000000000 -1.00000000000000000 
1 25.00000000000000000 0.00000000000000000 0.00000000000000000 -1.00000000000000000 
1 0.00000000000000000 0.00000000000000000 1.00000000000000000 0.00000000000000000 
1 -0.00000000000000075 -2275.39295326323417612 1.00000000000000000 0.00000000000000000 
1 0.00000000000000000 0.00000000000000000 1.00000000000000000 0.00000000000000000 
1 -0.00000000000000075 -2275.39295326323417612 1.00000000000000000 0.00000000000000000 
1 0.00000000000000000 0.00000000000000000 1.00000000000000000 0.00000000000000000 
1 -0.00000000000000075 -2275.39295326323417612 1.00000000000000000 0.00000000000000000 
1 0.00000000000000000 0.00000000000000000 0.00000000000000000 -1.00000000000000000 
1 0.00000000000000000 0.00000000000000000 0.00000000000000000 -1.00000000000000000 
1 25.00000000000000000 0.00000000000000000 0.00000000000000000 -1.00000000000000000 
1 0.00000000000000000 0.00000000000000000 1.00000000000000000 0.00000000000000000 
1 0.00000000000000075 -2275.39295326323417612 1.00000000000000000 0.00000000000000000 
1 0.00000000000000000 0.00000000000000000 1.00000000000000000 0.00000000000000000 
1 0.00000000000000075 -2275.39295326323417612 1.00000000000000000 0.00000000000000000 
1 0.00000000000000000 0.00000000000000000 1.00000000000000000 0.00000000000000000 
1 0.00000000000000075 -2275.39295326323417612 1.00000000000000000 0.00000000000000000 
1 0.00000000000000000 0.00000000000000000 1.00000000000000000 0.00000000000000000 
1 0.00000000000000000 -2275.39295326323417612 1.00000000000000000 0.00000000000000000 
1 0.00000000000000000 0.00000000000000000 1.00000000000000000 0.00000000000000000 
1 0.00000000000000000 -2275.39295326323417612 1.00000000000000000 0.00000000000000000 
1 0.00000000000000000 0.00000000000000000 1.00000000000000000 0.00000000000000000 
1 0.00000000000000000 -2275.39295326323417612 1.00000000000000000 0.00000000000000000 
1 0.00000000000000000 0.00000000000000000 0.00000000000000000 -1.00000000000000000 
1 6.28318530717958623 0.00000000000000000 0.00000000000000000 -1.00000000000000000 
1 0.00000000000000000 0.00000000000000000 1.00000000000000000 0.00000000000000000 
1 0.00000000000000000 -5.00000000000000000 1.00000000000000000 0.00000000000000000 
1 0.00000000000000000 0.00000000000000000 1.00000000000000000 0.00000000000000000 
1 0.00000000000000000 -5.00000000000000000 1.00000000000000000 0.00000000000000000 
1 0.00000000000000000 0.00000000000000000 1.00000000000000000 0.00000000000000000 
1 0.00000000000000000 -2275.39295326323417612 1.00000000000000000 0.00000000000000000 
1 0.00000000000000000 0.00000000000000000 1.00000000000000000 0.00000000000000000 
1 0.00000000000000000 -2275.39295326323417612 1.00000000000000000 0.00000000000000000 
1 0.00000000000000000 0.00000000000000000 1.00000000000000000 0.00000000000000000 
1 0.00000000000000000 -2275.39295326323417612 1.00000000000000000 0.00000000000000000 
1 0.00000000000000000 0.00000000000000000 1.00000000000000000 0.00000000000000000 
1 0.00000000000000000 -2275.39295326323417612 1.00000000000000000 0.00000000000000000 
Curves 10
1 -7.99999999999991296 -0.00000000000000311 14.00000000000000000 -0.00000000000000000 -1.00000000000000000 -0.00000000000000022 
1 -7.99999999999991296 0.00000000000000244 -11.00000000000000000 -0.00000000000000000 -1.00000000000000000 -0.00000000000000022 
1 -7.99999999999991296 14.00000000000000000 0.00000000000000000 0.00000000000000000 -1.00000000000000000 0.00000000000000000 
1 7.99999999999991296 0.00000000000000244 -11.00000000000000000 -0.00000000000000000 -1.00000000000000000 -0.00000000000000022 
1 -7.99999999999991296 -11.00000000000000000 0.00000000000000000 1.00000000000000000 0.00000000000000000 0.00000000000000000 
1 7.99999999999991296 -0.00000000000000311 14.00000000000000000 -0.00000000000000000 -1.00000000000000000 -0.00000000000000022 
1 7.99999999999991296 -11.00000000000000000 0.00000000000000000 0.00000000000000000 1.00000000000000000 0.00000000000000000 
1 7.99999999999991296 14.00000000000000000 0.00000000000000000 -1.00000000000000000 0.00000000000000000 0.00000000000000000 
1 1.79999999999815086 0.00000000000000244 -11.00000000000000000 -0.00000000000000000 -1.00000000000000000 -0.00000000000000022 
2 0.00000000000000000 -11.00000000000000000 0.00000000000000000 0.00000000000000000 0.00000000000000000 1.00000000000000000 1.00000000000000000 0.00000000000000000 -0.00000000000000000 -0.00000000000000000 1.00000000000000000 0.00000000000000000 1.79999999999815086
Polygon3D 0
PolygonOnTriangulations 0
Surfaces 17
1 -7.99999999999991296 -0.00000000000000311 14.00000000000000000 1.00000000000000000 -0.00000000000000000 0.00000000000000000 0.00000000000000000 0.00000000000000022 -1.00000000000000000 0.00000000000000000 1.00000000000000000 0.00000000000000022 
1 7.99999999999991296 -0.00000000000000311 14.00000000000000000 -0.00000000000000000 0.00000000000000022 -1.00000000000000000 -1.00000000000000000 -0.00000000000000000 0.00000000000000000 0.00000000000000000 1.00000000000000000 0.00000000000000022 
1 -7.99999999999991296 -0.00000000000000311 14.00000000000000000 1.00000000000000000 -0.00000000000000000 0.00000000000000000 0.00000000000000000 0.00000000000000022 -1.00000000000000000 0.00000000000000000 1.00000000000000000 0.00000000000000022 
1 -7.99999999999991296 -0.00000000000000311 14.00000000000000000 1.00000000000000000 -0.00000000000000000 0.00000000000000000 0.00000000000000000 0.00000000000000022 -1.00000000000000000 0.00000000000000000 1.00000000000000000 0.00000000000000022 
1 -7.99999999999991296 0.00000000000000244 -11.00000000000000000 0.00000000000000000 -0.00000000000000022 1.00000000000000000 1.00000000000000000 0.00000000000000000 0.00000000000000000 -0.00000000000000000 1.00000000000000000 0.00000000000000022 
1 7.99999999999991296 0.00000000000000244 -11.00000000000000000 -1.00000000000000000 0.00000000000000000 0.00000000000000000 0.00000000000000000 -0.00000000000000022 1.00000000000000000 0.00000000000000000 1.00000000000000000 0.00000000000000022 
1 7.99999999999991296 0.00000000000000244 -11.00000000000000000 -1.00000000000000000 0.00000000000000000 0.00000000000000000 0.00000000000000000 -0.00000000000000022 1.00000000000000000 0.00000000000000000 1.00000000000000000 0.00000000000000022 
1 7.99999999999991296 0.00000000000000244 -11.00000000000000000 -1.00000000000000000 0.00000000000000000 0.00000000000000000 0.00000000000000000 -0.00000000000000022 1.00000000000000000 0.00000000000000000 1.00000000000000000 0.00000000000000022 
1 7.99999999999991296 -0.00000000000000311 14.00000000000000000 -0.00000000000000000 0.00000000000000022 -1.00000000000000000 -1.00000000000000000 -0.00000000000000000 0.00000000000000000 0.00000000000000000 1.00000000000000000 0.00000000000000022 
1 7.99999999999991296 -0.00000000000000311 14.00000000000000000 -0.00000000000000000 0.00000000000000022 -1.00000000000000000 -1.00000000000000000 -0.00000000000000000 0.00000000000000000 0.00000000000000000 1.00000000000000000 0.00000000000000022 
2 0.00000000000000000 0.00000000000000244 -11.00000000000000000 -0.00000000000000000 1.00000000000000000 0.00000000000000022 1.00000000000000000 0.00000000000000000 0.00000000000000000 -0.00000000000000000 -0.00000000000000022 1.00000000000000000 1.79999999999815086
2 0.00000000000000000 0.00000000000000244 -11.00000000000000000 0.00000000000000000 -1.00000000000000000 -0.00000000000000022 1.00000000000000000 0.00000000000000000 0.00000000000000000 0.00000000000000000 -0.00000000000000022 1.00000000000000000 1.79999999999815086
2 0.00000000000000000 0.00000000000000244 -11.00000000000000000 0.00000000000000000 -1.00000000000000000 -0.00000000000000022 1.00000000000000000 0.00000000000000000 0.00000000000000000 0.00000000000000000 -0.00000000000000022 1.00000000000000000 1.79999999999815086
2 0.00000000000000000 0.00000000000000244 -11.00000000000000000 0.00000000000000000 -1.00000000000000000 -0.00000000000000022 1.00000000000000000 0.00000000000000000 0.00000000000000000 0.00000000000000000 -0.00000000000000022 1.00000000000000000 1.79999999999815086
2 0.00000000000000000 0.00000000000000244 -11.00000000000000000 -0.00000000000000000 1.00000000000000000 0.00000000000000022 1.00000000000000000 0.00000000000000000 0.00000000000000000 -0.00000000000000000 -0.00000000000000022 1.00000000000000000 1.79999999999815086
2 0.00000000000000000 0.00000000000000244 -11.00000000000000000 -0.00000000000000000 1.00000000000000000 0.00000000000000022 1.00000000000000000 0.00000000000000000 0.00000000000000000 -0.00000000000000000 -0.00000000000000022 1.00000000000000000 1.79999999999815086
1 0.00000000000000000 -0.00000000000000005 0.22020257305245283 0.00000000000000000 1.00000000000000000 0.00000000000000022 0.00000000000000000 -0.00000000000000022 1.00000000000000000 1.00000000000000000 0.00000000000000000 -0.00000000000000000 
Triangulations 0

TShapes 30
Ve
0.000000100000000
-7.999999999999913 14.000000000000000 0.000000000000000
0 0

0101101
*
Ed
 0.000000100000000 1 1 0
1  1 0 0.000000000000000 2275.392953263234176
2  1 1 0 0.000000000000000 2275.392953263234176
2  2 2 0 0.000000000000000 2275.392953263234176
0

0101000
+30 4 -30 6 *
Ve
0.000000100000000
-7.999999999999913 -11.000000000000000 0.000000000000000
0 0

0101101
*
Ed
 0.000000100000000 1 1 0
1  2 0 0.000000000000000 2275.392953263234176
2  3 1 0 0.000000000000000 2275.392953263234176
0

0101000
+28 4 -28 6 *
Ed
 0.000000100000000 1 1 0
1  3 0 0.000000000000000 25.000000000000000
2  4 3 10 0.000000000000000 25.000000000000000
2  5 3 12 0.000000000000000 25.000000000000000
2  6 4 16 0.000000000000000 25.000000000000000
2  7 4 18 0.000000000000000 25.000000000000000
2  8 1 19 0.000000000000000 25.000000000000000
2  9 1 20 0.000000000000000 25.000000000000000
0

0101000
+30 0 -28 0 *
Wi

0101100
+29 0 -27 0 -26 4 +26 6 *
Fa
0  0.000000100000000 1 0

0111000
+25 0 *
Ve
0.000000100000000
7.999999999999913 -11.000000000000000 0.000000000000000
0 0

0101101
*
Ed
 0.000000100000000 1 1 0
1  4 0 0.000000000000000 2275.392953263234176
2  10 6 0 0.000000000000000 2275.392953263234176
0

0101000
+23 4 -23 6 *
Ed
 0.000000100000000 1 1 0
1  5 0 0.000000000000000 15.999999999999826
0

0101000
+28 0 -23 0 *
Wi

0101100
+27 0 -22 0 -21 4 +21 6 *
Fa
0  0.000000100000000 5 0

0111000
+20 0 *
Ve
0.000000100000000
7.999999999999913 14.000000000000000 0.000000000000000
0 0

0101101
*
Ed
 0.000000100000000 1 1 0
1  6 0 0.000000000000000 2275.392953263234176
2  11 2 0 0.000000000000000 2275.392953263234176
2  12 6 0 0.000000000000000 2275.392953263234176
0

0101000
+18 4 -18 6 *
Ed
 0.000000100000000 1 1 0
1  7 0 0.000000000000000 25.000000000000000
2  13 7 10 0.000000000000000 25.000000000000000
2  14 7 12 0.000000000000000 25.000000000000000
2  15 8 16 0.000000000000000 25.000000000000000
2  16 8 18 0.000000000000000 25.000000000000000
2  17 6 19 0.000000000000000 25.000000000000000
2  18 6 20 0.000000000000000 25.000000000000000
0

0101000
+23 0 -18 0 *
Wi

0101100
+22 0 -17 0 -16 4 +16 6 *
Fa
0  0.000000100000000 6 0

0111000
+15 0 *
Ed
 0.000000100000000 1 1 0
1  8 0 0.000000000000000 15.999999999999826
2  19 9 10 0.000000000000000 15.999999999999826
2  20 9 12 0.000000000000000 15.999999999999826
2  21 10 16 0.000000000000000 15.999999999999826
2  22 10 18 0.000000000000000 15.999999999999826
2  23 2 19 0.000000000000000 15.999999999999826
2  24 2 20 0.000000000000000 15.999999999999826
0

0101000
+18 0 -30 0 *
Wi

0101100
+17 0 -29 0 -13 4 +13 6 *
Fa
0  0.000000100000000 2 0

0111000
+12 0 *
Ve
0.000000100000000
1.799999999998151 -11.000000000000000 0.000000000000000
0 0

0101101
*
Ed
 0.000000100000000 1 1 0
1  9 0 0.000000000000000 2275.392953263234176
3  25 26CN 11 0 0.000000000000000 2275.392953263234176
0

0101000
+10 4 -10 6 *
Ed
 0.000000100000000 1 1 0
1  10 0 0.000000000000000 6.283185307179586
2  27 12 24 0.000000000000000 6.283185307179586
2  28 12 26 0.000000000000000 6.283185307179586
2  29 13 30 0.000000000000000 6.283185307179586
2  30 13 32 0.000000000000000 6.283185307179586
2  31 14 36 0.000000000000000 6.283185307179586
2  32 14 38 0.000000000000000 6.283185307179586
2  33 15 10 0.000000000000000 6.283185307179586
2  34 15 12 0.000000000000000 6.283185307179586
2  35 16 16 0.000000000000000 6.283185307179586
2  36 16 18 0.000000000000000 6.283185307179586
2  37 11 19 0.000000000000000 6.283185307179586
2  38 11 20 0.000000000000000 6.283185307179586
0

0101100
+10 0 -10 0 *
Wi

0101100
+9 0 -9 0 -8 4 +8 6 *
Fa
0  0.000000100000000 11 0

0111000
+7 0 *
Wi

0101100
+26 0 +21 0 +16 0 +13 0 *
Wi

0101100
+8 0 *
Fa
0  0.000000100000000 17 0

0111000
-5 40 +4 40 *
Sh

0101100
-24 0 -19 0 -14 0 -11 0 +6 0 +3 39 -3 41 *
So

1100000
+2 0 *

+1 0 