
CASCADE Topology V1, (c) Matra-Datavision
Locations 17
1
1.000000000000000 0.000000000000000 0.000000000000000 0.000000000000000 
0.000000000000000 1.000000000000000 0.000000000000000 0.000000000000000 
0.000000000000000 0.000000000000000 1.000000000000000 0.000000000000000 
1
1.000000000000000 0.000000000000000 0.000000000000000 0.000000000000000 
0.000000000000000 1.000000000000000 0.000000000000000 0.000000000000000 
0.000000000000000 0.000000000000000 1.000000000000000 0.000000000000000 
2  2 -1 0
1
1.000000000000000 0.000000000000000 0.000000000000000 0.000000000000000 
0.000000000000000 1.000000000000000 0.000000000000000 0.000000000000000 
0.000000000000000 0.000000000000000 1.000000000000000 0.000000000000000 
1
1.000000000000000 0.000000000000000 0.000000000000000 0.000000000000000 
0.000000000000000 1.000000000000000 0.000000000000000 0.000000000000000 
0.000000000000000 0.000000000000000 1.000000000000000 0.000000000000000 
1
1.000000000000000 0.000000000000000 0.000000000000000 0.000000000000000 
0.000000000000000 1.000000000000000 0.000000000000000 0.000000000000000 
0.000000000000000 0.000000000000000 1.000000000000000 0.000000000000000 
2  4 1 5 1 6 -1 0
1
1.000000000000000 0.000000000000000 0.000000000000000 0.000000000000000 
0.000000000000000 1.000000000000000 0.000000000000000 0.000000000000000 
0.000000000000000 0.000000000000000 1.000000000000000 3.000000000000000 
2  4 1 5 1 6 -1 8 1 0
2  6 1 5 -1 4 -1 0
2  8 -1 6 1 5 -1 4 -1 0
2  5 -1 4 -1 0
2  2 -1 6 1 5 -1 4 -1 0
2  2 -1 8 -1 6 1 5 -1 4 -1 0
2  6 -1 0
2  4 1 5 1 0
2  6 -1 8 1 0
Curve2ds 33
1 4.35337489126828370 0.00000000000000000 0.00000000000000000 -1.00000000000000000 
1 1.21178223767849280 0.00000000000000000 0.00000000000000000 -1.00000000000000000 
1 1.21178223767849280 0.00000000000000000 0.00000000000000000 -1.00000000000000000 
1 6.28318530717958801 0.00000000000000000 0.00000000000000000 -1.00000000000000000 
1 0.00000000000000000 0.00000000000000000 1.00000000000000000 0.00000000000000000 
1 0.00000000000000000 -3.00000000000000000 1.00000000000000000 0.00000000000000000 
2 94.55989084453675275 -38.38383389569847282 1.00000000000000000 0.00000000000000000 -0.00000000000000000 1.00000000000000000 5.00000000000000000
2 -195.00000000000000000 -37.17478348783700426 -1.00000000000000000 0.00000000000000000 0.00000000000000000 1.00000000000000000 5.00000000000000000
2 -37.17478348783700426 -195.00000000000000000 0.00000000000000000 -1.00000000000000000 1.00000000000000000 0.00000000000000000 5.00000000000000000
1 0.00000000000000160 0.00000000000000000 0.00000000000000000 -1.00000000000000000 
1 99.55989084453675275 -38.38383389569847282 0.00000000000000000 1.00000000000000000 
1 -200.00000000000000000 -37.17478348783700426 0.00000000000000000 1.00000000000000000 
1 -37.17478348783700426 -200.00000000000000000 1.00000000000000000 0.00000000000000000 
1 1.22543119774445208 0.00000000000000000 0.00000000000000000 -1.00000000000000000 
1 1.22543119774483000 0.00000000000000000 0.00000000000000000 -1.00000000000000000 
1 0.00000000000000000 0.00000000000000000 1.00000000000000000 0.00000000000000000 
1 0.00000000000000000 -3.00000000000000000 1.00000000000000000 0.00000000000000000 
2 94.55989084453675275 -3.20299290019812588 1.00000000000000000 0.00000000000000000 -0.00000000000000000 1.00000000000000000 5.00000000000000000
2 -195.00000000000000000 -1.99394249233665732 -1.00000000000000000 0.00000000000000000 0.00000000000000000 1.00000000000000000 5.00000000000000000
2 -1.99394249233665732 -195.00000000000000000 0.00000000000000000 -1.00000000000000000 1.00000000000000000 0.00000000000000000 5.00000000000000000
1 1.58979685795190839 0.00000000000000000 0.00000000000000000 -1.00000000000000000 
1 41.88557343452191617 0.00000000000000000 0.00000000000000000 -1.00000000000000000 
1 0.00000000000000000 0.00000000000000000 1.00000000000000000 0.00000000000000000 
1 0.00000000000000000 -3.00000000000000000 1.00000000000000000 0.00000000000000000 
2 -89.98800723071627772 -516.14255200021898418 1.00000000000000000 0.00000000000000000 -0.00000000000000000 1.00000000000000000 550.12834999999995489
1 1.57079632679489678 0.00000000000000000 0.00000000000000000 -1.00000000000000000 
1 0.00000000000000000 0.00000000000000000 0.00000000000000000 -1.00000000000000000 
1 0.00000000000000000 0.00000000000000000 1.00000000000000000 0.00000000000000000 
1 0.00000000000000000 -3.00000000000000000 1.00000000000000000 0.00000000000000000 
1 -100.44010915546328988 -7.99907616636164676 0.00000000000000252 1.00000000000000000 
1 0.00000000000000000 0.00000000000000000 1.00000000000000000 0.00000000000000000 
1 0.00000000000000000 -3.00000000000000000 1.00000000000000000 0.00000000000000000 
2 -100.44010915546319040 -557.99907616636164676 1.00000000000000000 0.00000000000000000 -0.00000000000000000 1.00000000000000000 550.00000000000000000
Curves 12
1 193.24324324324322788 169.01941921918086109 0.00000000000000000 0.00000000000000000 0.00000000000000000 1.00000000000000000 
1 200.00000000000000000 173.70063761801563373 0.00000000000000000 0.00000000000000000 0.00000000000000000 1.00000000000000000 
2 195.00000000000000000 173.70063761801563373 0.00000000000000000 0.00000000000000000 0.00000000000000000 1.00000000000000000 1.00000000000000000 0.00000000000000000 -0.00000000000000000 -0.00000000000000000 1.00000000000000000 0.00000000000000000 5.00000000000000000
1 200.00000000000000000 208.88147861351598067 0.00000000000000000 0.00000000000000000 0.00000000000000000 1.00000000000000000 
1 200.00000000000000000 173.70063761801563373 0.00000000000000000 0.00000000000000000 1.00000000000000000 0.00000000000000000 
1 196.69270134341326184 213.58623813574752148 0.00000000000000000 0.00000000000000000 0.00000000000000000 1.00000000000000000 
2 195.00000000000000000 208.88147861351598067 0.00000000000000000 0.00000000000000000 0.00000000000000000 1.00000000000000000 1.00000000000000000 0.00000000000000000 -0.00000000000000000 -0.00000000000000000 1.00000000000000000 0.00000000000000000 5.00000000000000000
1 0.00000000000006750 245.97096878187437596 0.00000000000000000 0.00000000000000000 0.00000000000000000 1.00000000000000000 
2 10.45210192474696953 -304.05808048650487763 0.00000000000000000 0.00000000000000000 0.00000000000000000 1.00000000000000000 1.00000000000000000 0.00000000000000000 -0.00000000000000000 -0.00000000000000000 1.00000000000000000 0.00000000000000000 550.12834999999995489
1 -0.00000000000003785 204.08539534735245979 0.00000000000000000 0.00000000000000000 0.00000000000000000 1.00000000000000000 
1 -0.00000000000003785 204.08539534735245979 0.00000000000000000 0.00000000000000252 1.00000000000000000 0.00000000000000000 
2 0.00000000000005060 -345.91460465264754021 0.00000000000000000 0.00000000000000000 0.00000000000000000 1.00000000000000000 1.00000000000000000 0.00000000000000000 -0.00000000000000000 -0.00000000000000000 1.00000000000000000 0.00000000000000000 550.00000000000000000
Polygon3D 0
PolygonOnTriangulations 0
Surfaces 10
2 195.00000000000000000 173.70063761801563373 0.00000000000000000 -0.00000000000000000 -0.00000000000000000 -1.00000000000000000 1.00000000000000000 0.00000000000000000 0.00000000000000000 -0.00000000000000000 1.00000000000000000 -0.00000000000000000 5.00000000000000000
2 0.00000000000005060 -345.91460465264754021 0.00000000000000000 -0.00000000000000000 -0.00000000000000000 -1.00000000000000000 1.00000000000000000 0.00000000000000000 0.00000000000000000 -0.00000000000000000 1.00000000000000000 -0.00000000000000000 550.00000000000000000
2 0.00000000000005060 -345.91460465264754021 0.00000000000000000 -0.00000000000000000 -0.00000000000000000 -1.00000000000000000 1.00000000000000000 0.00000000000000000 0.00000000000000000 -0.00000000000000000 1.00000000000000000 -0.00000000000000000 550.00000000000000000
1 200.00000000000000000 173.70063761801563373 0.00000000000000000 -1.00000000000000000 0.00000000000000000 0.00000000000000000 0.00000000000000000 1.00000000000000000 0.00000000000000000 0.00000000000000000 0.00000000000000000 -1.00000000000000000 
1 100.44010915546324725 212.08447151371410655 0.00000000000000000 0.00000000000000000 0.00000000000000000 1.00000000000000000 1.00000000000000000 0.00000000000000000 -0.00000000000000000 -0.00000000000000000 1.00000000000000000 0.00000000000000000 
1 0.00000000000000000 210.87542110585263799 0.00000000000000000 -0.00000000000000000 -0.00000000000000000 -1.00000000000000000 -1.00000000000000000 0.00000000000000000 0.00000000000000000 0.00000000000000000 1.00000000000000000 -0.00000000000000000 
1 -0.00000000000000342 210.87542110585263799 2.99999999999999867 -0.00000000000000000 -0.00000000000000000 1.00000000000000000 0.00000000000000000 1.00000000000000000 0.00000000000000000 -1.00000000000000000 0.00000000000000000 0.00000000000000000 
2 195.00000000000000000 208.88147861351598067 0.00000000000000000 -0.00000000000000000 -0.00000000000000000 -1.00000000000000000 1.00000000000000000 0.00000000000000000 0.00000000000000000 -0.00000000000000000 1.00000000000000000 -0.00000000000000000 5.00000000000000000
2 10.45210192474696953 -304.05808048650487763 0.00000000000000000 -0.00000000000000000 -0.00000000000000000 -1.00000000000000000 1.00000000000000000 0.00000000000000000 0.00000000000000000 -0.00000000000000000 1.00000000000000000 -0.00000000000000000 550.12834999999995489
1 -0.00000000000003785 204.08539534735245979 0.00000000000000000 -1.00000000000000000 0.00000000000000252 0.00000000000000000 0.00000000000000252 1.00000000000000000 0.00000000000000000 0.00000000000000000 0.00000000000000000 -1.00000000000000000 
Triangulations 0

TShapes 34
Ve
0.000000100000043
193.243243243243228 169.019419219180861 0.000000000000000
0 0

0101101
*
Ed
 0.000000100000043 1 1 0
1  1 0 0.000000000000000 3.000000000000000
2  1 1 0 0.000000000000000 3.000000000000000
2  2 2 0 0.000000000000000 3.000000000000000
4 G1 1 0 2 0
2  3 3 3 0.000000000000000 3.000000000000000
0

0101000
+34 7 -34 9 *
Ve
0.000000100000000
200.000000000000000 173.700637618015634 0.000000000000000
0 0

0101101
*
Ed
 0.000000100000000 1 1 0
1  2 0 0.000000000000000 3.000000000000000
2  4 1 0 0.000000000000000 3.000000000000000
4 G1 1 0 4 0
0

0101000
+32 7 -32 9 *
Ed
 0.000000100000000 1 1 0
1  3 0 4.353374891268284 6.283185307179588
2  5 1 10 4.353374891268284 6.283185307179588
2  6 1 11 4.353374891268284 6.283185307179588
2  7 5 12 4.353374891268284 6.283185307179588
2  8 6 13 4.353374891268284 6.283185307179588
2  9 7 14 4.353374891268284 6.283185307179588
0

0101000
+34 0 -32 0 *
Wi

0101100
+33 0 -31 0 -30 7 +30 9 *
Fa
0  0.000000100000000 1 0

0101000
+29 0 *
Ve
0.000000100000000
200.000000000000000 208.881478613515981 0.000000000000000
0 0

0101101
*
Ed
 0.000000100000000 1 1 0
1  4 0 0.000000000000000 3.000000000000000
2  10 8 0 0.000000000000000 3.000000000000000
4 G1 4 0 8 0
0

0101000
+27 7 -27 9 *
Ed
 0.000000100000000 1 1 0
1  5 0 0.000000000000000 35.180840995500347
2  11 5 12 0.000000000000000 35.180840995500347
2  12 6 13 0.000000000000000 35.180840995500347
2  13 7 14 0.000000000000000 35.180840995500347
0

0101000
+32 0 -27 0 *
Wi

0101100
+31 0 -26 0 -25 7 +25 9 *
Fa
0  0.000000100000000 4 0

0101000
+24 0 *
Ve
0.000000100002162
196.692701343413262 213.586238135747521 0.000000000000000
0 0

0101101
*
Ed
 0.000000100002162 1 1 0
1  6 0 0.000000000000000 3.000000000000000
2  14 8 0 0.000000000000000 3.000000000000000
2  15 9 0 0.000000000000000 3.000000000000000
4 G1 8 0 9 0
0

0101000
+22 7 -22 9 *
Ed
 0.000000100000000 1 1 0
1  7 0 0.000000000000002 1.225431197744452
2  16 8 10 0.000000000000002 1.225431197744452
2  17 8 11 0.000000000000002 1.225431197744452
2  18 5 12 0.000000000000002 1.225431197744452
2  19 6 13 0.000000000000002 1.225431197744452
2  20 7 14 0.000000000000002 1.225431197744452
0

0101000
+27 0 -22 0 *
Wi

0101100
+26 0 -21 0 -20 7 +20 9 *
Fa
0  0.000000100000000 8 0

0101000
+19 0 *
Ve
0.000000100000000
0.000000000000068 245.970968781874376 0.000000000000000
0 0

0101101
*
Ed
 0.000000100000000 1 1 0
1  8 0 0.000000000000000 3.000000000000000
2  21 9 0 0.000000000000000 3.000000000000000
2  22 10 0 0.000000000000000 3.000000000000000
0

0101000
+17 7 -17 9 *
Ed
 0.000000100000000 1 1 0
1  9 0 1.225431197744830 1.589796857951908
2  23 9 10 1.225431197744830 1.589796857951908
2  24 9 11 1.225431197744830 1.589796857951908
2  25 5 12 1.225431197744830 1.589796857951908
0

0101000
+22 0 -17 0 *
Wi

0101100
+21 0 -16 0 -15 7 +15 9 *
Fa
0  0.000000100000000 9 0

0101000
+14 0 *
Ve
0.000000100000000
-0.000000000000038 204.085395347352460 0.000000000000000
0 0

0101101
*
Ed
 0.000000100000000 1 1 0
1  10 0 0.000000000000000 3.000000000000000
2  26 2 0 0.000000000000000 3.000000000000000
2  27 10 0 0.000000000000000 3.000000000000000
0

0101000
+12 7 -12 9 *
Ed
 0.000000100000000 1 1 0
1  11 0 0.000000000000000 41.885573434521916
2  28 10 10 0.000000000000000 41.885573434521916
2  29 10 11 0.000000000000000 41.885573434521916
2  30 5 12 0.000000000000000 41.885573434521916
0

0101000
+12 0 -17 0 *
Wi

0101100
+11 0 -16 0 -10 7 +10 9 *
Fa
0  0.000000100000000 10 0

0101000
+9 0 *
Ed
 0.000000100000000 1 1 0
1  12 0 1.211782237678493 1.570796326794897
2  31 2 10 1.211782237678493 1.570796326794897
2  32 2 11 1.211782237678493 1.570796326794897
2  33 5 12 1.211782237678493 1.570796326794897
0

0101000
+34 0 -12 0 *
Wi

0101100
+33 0 -11 0 -7 7 +7 9 *
Fa
0  0.000000100000000 2 0

0101000
+6 0 *
Wi

0101100
+30 0 +25 0 +20 0 +15 0 -10 0 -7 0 *
Fa
0  0.000000100000000 5 0

0101000
+4 16 *
Sh

0101100
+28 0 +23 0 +18 0 +13 0 -8 0 -5 0 +3 15 -3 17 *
So

1100000
-2 0 *

+1 1 