
CASCADE Topology V1, (c) Matra-Datavision
Locations 13
1
1.000000000000000 0.000000000000000 0.000000000000000 0.000000000000000 
0.000000000000000 1.000000000000000 0.000000000000000 0.000000000000000 
0.000000000000000 0.000000000000000 1.000000000000000 0.000000000000000 
1
0.000000000000000 -0.000000000000000 1.000000000000000 0.000000000000001 
1.000000000000000 0.000000000000000 -0.000000000000000 6.708587988005342 
-0.000000000000000 1.000000000000000 0.000000000000000 -0.000000000000001 
1
1.000000000000000 0.000000000000000 0.000000000000000 0.000000000000000 
0.000000000000000 1.000000000000000 0.000000000000000 0.000000000000000 
0.000000000000000 0.000000000000000 1.000000000000000 0.000000000000000 
1
1.000000000000000 0.000000000000000 0.000000000000000 11.500000000000000 
0.000000000000000 1.000000000000000 0.000000000000000 -0.000000000000003 
0.000000000000000 0.000000000000000 1.000000000000000 0.000000000000003 
2  1 1 2 1 3 -1 4 1 0
1
1.000000000000000 0.000000000000000 0.000000000000000 -23.000000000000000 
0.000000000000000 1.000000000000000 0.000000000000000 0.000000000000005 
0.000000000000000 0.000000000000000 1.000000000000000 -0.000000000000006 
2  1 1 2 1 3 -1 4 1 6 1 0
2  4 -1 3 1 2 -1 1 -1 0
2  6 -1 4 -1 3 1 2 -1 1 -1 0
2  2 -1 1 -1 0
2  3 -1 4 1 0
2  1 1 2 1 0
2  3 -1 4 1 6 1 0
Curve2ds 16
1 2.00000000000000000 -0.00000000000000044 0.00000000000000000 -1.00000000000000000 
1 0.00000000000000000 0.00000000000000000 0.00000000000000005 -1.00000000000000000 
1 34.64101615063972872 0.00000000000000015 0.00000000000000005 -1.00000000000000000 
1 0.00000000000000000 0.00000000000000000 1.00000000000000000 -0.00000000000000000 
1 0.00000000000000131 -23.00000000000000000 1.00000000000000000 -0.00000000000000000 
1 18.02237103699567200 4.49038105621321471 -0.86602540380288417 -0.49999999996805167 
1 0.00000000000000000 0.00000000000000000 -0.00000000000000006 -1.00000000000000000 
1 -11.97762896300432800 -12.83012701799992605 0.00000000000000022 1.00000000000000000 
1 30.00000000000000000 -0.00000000000000044 -0.00000000000000006 -1.00000000000000000 
1 0.00000000000000000 0.00000000000000000 0.00000000000000000 -1.00000000000000000 
1 0.00000000000000000 0.00000000000000000 1.00000000000000000 0.00000000000000000 
1 0.00000000000000155 -23.00000000000000000 1.00000000000000000 0.00000000000000000 
1 -11.97762896300432445 6.49038105621322092 1.00000000000000000 -0.00000000000000022 
1 0.00000000000000000 0.00000000000000000 1.00000000000000000 -0.00000000000000000 
1 0.00000000000000022 -23.00000000000000000 1.00000000000000000 -0.00000000000000000 
1 18.02237103699567555 6.49038105621321382 -0.00000000000000022 -1.00000000000000000 
Curves 8
1 11.50000000000000178 8.70858798800533940 -0.39999999999999730 -1.00000000000000000 0.00000000000000022 -0.00000000000000028 
1 11.50000000000001243 26.02909606221847838 -30.40000000000000213 -1.00000000000000000 0.00000000000000022 -0.00000000000000028 
1 2.00000000000000000 -0.39999999999999858 0.00000000000000000 0.49999999996805183 -0.86602540380288406 0.00000000000000000 
1 11.50000000000000888 6.70858798800533229 -30.39999999999999858 -1.00000000000000000 0.00000000000000022 -0.00000000000000028 
1 19.32050807421314786 -30.39999999999999858 0.00000000000000000 -1.00000000000000000 0.00000000000000000 0.00000000000000000 
1 11.50000000000000178 6.70858798800533940 -0.39999999999999686 -1.00000000000000000 0.00000000000000022 -0.00000000000000028 
1 0.00000000000000000 -30.39999999999999858 0.00000000000000000 0.00000000000000000 1.00000000000000000 0.00000000000000000 
1 0.00000000000000000 -0.39999999999999858 0.00000000000000000 1.00000000000000000 0.00000000000000000 0.00000000000000000 
Polygon3D 0
PolygonOnTriangulations 0
Surfaces 5
1 11.50000000000000178 8.70858798800533940 -0.39999999999999730 -0.00000000000000005 -0.86602540380288417 -0.49999999996805167 0.00000000000000030 0.49999999996805167 -0.86602540380288417 1.00000000000000000 -0.00000000000000019 0.00000000000000023 
1 11.50000000000000178 6.70858798800533940 -0.39999999999999686 0.00000000000000028 -0.00000000000000022 -1.00000000000000000 0.00000000000000022 1.00000000000000000 -0.00000000000000022 1.00000000000000000 -0.00000000000000022 0.00000000000000028 
1 0.00000000000000702 13.19896904421855588 -18.42237103699567413 1.00000000000000000 -0.00000000000000022 0.00000000000000022 -0.00000000000000022 0.00000000000000000 1.00000000000000000 -0.00000000000000022 -1.00000000000000000 -0.00000000000000000 
1 11.50000000000001243 26.02909606221847838 -30.40000000000000213 -0.00000000000000028 0.00000000000000022 1.00000000000000000 -0.00000000000000022 -1.00000000000000000 0.00000000000000022 1.00000000000000000 -0.00000000000000022 0.00000000000000028 
1 11.50000000000000888 6.70858798800533229 -30.39999999999999858 0.00000000000000022 1.00000000000000000 -0.00000000000000022 -0.00000000000000022 0.00000000000000022 1.00000000000000000 1.00000000000000000 -0.00000000000000022 0.00000000000000022 
Triangulations 0

TShapes 24
Ve
0.000000100000529
2.000000000000000 -0.399999999999999 0.000000000000000
0 0

0101101
*
Ed
 0.000000100000000 1 1 0
1  1 0 0.000000000000000 23.000000000000000
2  1 2 0 0.000000000000000 23.000000000000000
2  2 1 0 0.000000000000000 23.000000000000000
0

0101000
+24 5 -24 7 *
Ve
0.000000100000000
19.320508074213148 -30.399999999999999 0.000000000000000
0 0

0101101
*
Ed
 0.000000100000000 1 1 0
1  2 0 0.000000000000000 23.000000000000000
2  3 1 0 0.000000000000000 23.000000000000000
0

0101000
+22 5 -22 7 *
Ed
 0.000000100000000 1 1 0
1  3 0 0.000000000000000 34.641016150639729
2  4 1 8 0.000000000000000 34.641016150639729
2  5 1 9 0.000000000000000 34.641016150639729
2  6 3 10 0.000000000000000 34.641016150639729
0

0101000
+24 0 -22 0 *
Wi

0101100
+23 0 -21 0 -20 5 +20 7 *
Fa
0  0.000000100000000 1 0

0111000
+19 0 *
Ve
0.000000100000000
0.000000000000000 -30.399999999999999 0.000000000000000
0 0

0101101
*
Ed
 0.000000100000000 1 1 0
1  4 0 0.000000000000000 23.000000000000000
2  7 5 0 0.000000000000000 23.000000000000000
0

0101000
+17 5 -17 7 *
Ed
 0.000000100000000 1 1 0
1  5 0 0.000000000000000 19.320508074213148
2  8 3 10 0.000000000000000 19.320508074213148
0

0101000
+22 0 -17 0 *
Wi

0101100
+21 0 -16 0 -15 5 +15 7 *
Fa
0  0.000000100000000 4 0

0111000
+14 0 *
Ve
0.000000100000000
0.000000000000000 -0.399999999999999 0.000000000000000
0 0

0101101
*
Ed
 0.000000100000000 1 1 0
1  6 0 0.000000000000000 23.000000000000000
2  9 5 0 0.000000000000000 23.000000000000000
2  10 2 0 0.000000000000000 23.000000000000000
0

0101000
+12 5 -12 7 *
Ed
 0.000000100000000 1 1 0
1  7 0 0.000000000000000 30.000000000000000
2  11 5 8 0.000000000000000 30.000000000000000
2  12 5 9 0.000000000000000 30.000000000000000
2  13 3 10 0.000000000000000 30.000000000000000
0

0101000
+17 0 -12 0 *
Wi

0101100
+16 0 -11 0 -10 5 +10 7 *
Fa
0  0.000000100000000 5 0

0111000
+9 0 *
Ed
 0.000000100000000 1 1 0
1  8 0 0.000000000000000 2.000000000000000
2  14 2 8 0.000000000000000 2.000000000000000
2  15 2 9 0.000000000000000 2.000000000000000
2  16 3 10 0.000000000000000 2.000000000000000
0

0101000
+12 0 -24 0 *
Wi

0101100
+11 0 -23 0 -7 5 +7 7 *
Fa
0  0.000000100000000 2 0

0111000
+6 0 *
Wi

0101100
+20 0 +15 0 +10 0 +7 0 *
Fa
0  0.000000100000000 3 0

0111000
-4 12 *
Sh

0101100
-18 0 -13 0 -8 0 -5 0 +3 11 -3 13 *
So

1100000
+2 0 *

+1 0 