
CASCADE Topology V1, (c) Matra-Datavision
Locations 17
1
1.000000000000000 0.000000000000000 0.000000000000000 0.000000000000000 
0.000000000000000 1.000000000000000 0.000000000000000 0.000000000000000 
0.000000000000000 0.000000000000000 1.000000000000000 0.000000000000000 
1
0.000000000000000 -0.000000000000000 1.000000000000000 0.000000000000000 
1.000000000000000 0.000000000000000 -0.000000000000000 0.000000000000000 
-0.000000000000000 1.000000000000000 0.000000000000000 0.000000000000000 
1
1.000000000000000 0.000000000000000 0.000000000000000 0.000000000000000 
0.000000000000000 1.000000000000000 0.000000000000000 0.000000000000000 
0.000000000000000 0.000000000000000 1.000000000000000 0.000000000000000 
2  2 1 3 1 0
2  3 -1 2 -1 0
1
1.000000000000000 0.000000000000000 0.000000000000000 1787.999983858713676 
0.000000000000000 1.000000000000000 0.000000000000000 -0.000000000000596 
0.000000000000000 0.000000000000000 1.000000000000000 0.000000000000397 
1
1.000000000000000 0.000000000000000 0.000000000000000 0.000000000000000 
0.000000000000000 1.000000000000000 0.000000000000000 0.000000000000000 
0.000000000000000 0.000000000000000 1.000000000000000 0.000000000000000 
1
1.000000000000000 0.000000000000000 0.000000000000000 0.000000000000000 
0.000000000000000 1.000000000000000 0.000000000000000 0.000000000000000 
0.000000000000000 0.000000000000000 1.000000000000000 0.000000000000000 
2  6 -1 7 1 8 -1 1 -1 3 -1 2 -1 0
1
1.000000000000000 0.000000000000000 0.000000000000000 -3575.999967717427353 
0.000000000000000 1.000000000000000 0.000000000000000 0.000000000001191 
0.000000000000000 0.000000000000000 1.000000000000000 -0.000000000000794 
2  10 -1 6 -1 7 1 8 -1 1 -1 3 -1 2 -1 0
1
1.000000000000000 0.000000000000000 0.000000000000000 1787.999983858713676 
0.000000000000000 1.000000000000000 0.000000000000000 -0.000000000000590 
0.000000000000000 0.000000000000000 1.000000000000000 0.000000000000393 
1
1.000000000000000 0.000000000000000 0.000000000000000 0.000000000000000 
0.000000000000000 1.000000000000000 0.000000000000000 0.000000000000000 
0.000000000000000 0.000000000000000 1.000000000000000 0.000000000000000 
1
1.000000000000000 0.000000000000000 0.000000000000000 0.000000000000000 
0.000000000000000 1.000000000000000 0.000000000000000 0.000000000000000 
0.000000000000000 0.000000000000000 1.000000000000000 0.000000000000000 
2  12 -1 13 1 14 -1 1 -1 3 -1 2 -1 0
1
1.000000000000000 0.000000000000000 0.000000000000000 -3575.999967717427353 
0.000000000000000 1.000000000000000 0.000000000000000 0.000000000001180 
0.000000000000000 0.000000000000000 1.000000000000000 -0.000000000000787 
2  16 -1 12 -1 13 1 14 -1 1 -1 3 -1 2 -1 0
Curve2ds 24
1 0.00000000000000000 0.00000000000000000 1.00000000000000000 0.00000000000000000 
1 -0.00000000000000000 -3575.99996771742735291 1.00000000000000000 0.00000000000000000 
1 0.00000000000000000 0.00000000000000000 1.00000000000000000 0.00000000000000000 
1 -0.00000000000078672 -3575.99996771742735291 1.00000000000000000 0.00000000000000000 
1 0.00000000000000000 0.00000000000000000 1.00000000000000000 0.00000000000000000 
1 -0.00000000000000178 -3575.99996771742735291 1.00000000000000000 0.00000000000000000 
1 0.00000000000000000 0.00000000000000000 1.00000000000000000 0.00000000000000000 
1 -0.00000000000078160 -3575.99996771742735291 1.00000000000000000 0.00000000000000000 
1 0.00000000000000000 0.00000000000000000 1.00000000000000000 0.00000000000000000 
1 -0.00000000000000266 -3575.99996771742735291 1.00000000000000000 0.00000000000000000 
1 0.00000000000000000 0.00000000000000000 1.00000000000000000 0.00000000000000000 
1 -0.00000000000080035 -3575.99996771742735291 1.00000000000000000 0.00000000000000000 
1 0.00000000000000000 0.00000000000000000 1.00000000000000000 -0.00000000000000000 
1 0.00000000000000178 -3575.99996771742735291 1.00000000000000000 -0.00000000000000000 
1 0.00000000000000000 0.00000000000000000 1.00000000000000000 0.00000000000000000 
1 0.00000000000078160 -3575.99996771742735291 1.00000000000000000 0.00000000000000000 
1 0.00000000000000000 0.00000000000000000 1.00000000000000000 -0.00000000000000000 
1 0.00000000000000178 -3575.99996771742735291 1.00000000000000000 -0.00000000000000000 
1 0.00000000000000000 0.00000000000000000 1.00000000000000000 0.00000000000000000 
1 0.00000000000078160 -3575.99996771742735291 1.00000000000000000 0.00000000000000000 
1 0.00000000000000000 0.00000000000000000 1.00000000000000000 -0.00000000000000000 
1 0.00000000000000266 -3575.99996771742735291 1.00000000000000000 -0.00000000000000000 
1 0.00000000000000000 0.00000000000000000 1.00000000000000000 0.00000000000000000 
1 0.00000000000080035 -3575.99996771742735291 1.00000000000000000 0.00000000000000000 
Curves 12
1 883.38268590239636069 -80.80000000000751470 0.00000000000009808 0.00000000000000000 1.00000000000000000 -0.00000000000000000 
1 -873.08845726826461942 -80.80000000000751470 -0.00000000000009693 1.00000000000000000 -0.00000000000000000 0.00000000000000011 
1 883.38268590239636069 119.20000000000420926 0.00000000000009808 0.00000000000000000 1.00000000000000000 -0.00000000000000000 
1 -873.08845726826461942 119.19999999999249951 -0.00000000000009693 0.00000000000000000 -1.00000000000000000 0.00000000000000000 
1 883.38268590239636069 121.20000000001128626 0.00000000000009808 -1.00000000000000000 0.00000000000000000 -0.00000000000000011 
1 -873.08845726826461942 121.20000000001131468 -0.00000000000009693 0.00000000000000000 -1.00000000000000000 0.00000000000000000 
1 180.79422863413196865 -0.00000000000000000 0.00000000000002007 0.00000000000000000 1.00000000000000000 -0.00000000000000000 
1 180.79422863413196865 40.00000000000234479 0.00000000000002007 0.00000000000000000 1.00000000000000000 -0.00000000000000000 
1 180.79422863413196865 40.40000000000376446 0.00000000000002007 -1.00000000000000000 0.00000000000000000 -0.00000000000000011 
1 -170.50000000000022737 40.40000000000376446 -0.00000000000001893 0.00000000000000000 -1.00000000000000000 0.00000000000000000 
1 -170.50000000000022737 40.00000000000000000 -0.00000000000001893 0.00000000000000000 -1.00000000000000000 0.00000000000000000 
1 -170.50000000000022737 0.00000000000000000 -0.00000000000001893 1.00000000000000000 -0.00000000000000000 0.00000000000000011 
Polygon3D 0
PolygonOnTriangulations 0
Surfaces 13
1 -0.00000000000000277 5.14711431706586797 20.20000000000186446 1.00000000000000000 -0.00000000000000033 0.00000000000000022 0.00000000000000033 1.00000000000000000 0.00000000000000011 -0.00000000000000022 -0.00000000000000011 1.00000000000000000 
1 1787.99998385871367645 180.79422863413137179 0.00000000000035687 0.00000000000000033 1.00000000000000000 -0.00000000000000022 -0.00000000000000022 0.00000000000000022 1.00000000000000000 1.00000000000000000 -0.00000000000000033 0.00000000000000022 
1 1787.99998385871367645 180.79422863413137179 0.00000000000039336 0.00000000000000033 1.00000000000000000 -0.00000000000000000 0.00000000000000000 0.00000000000000000 1.00000000000000000 1.00000000000000000 -0.00000000000000033 0.00000000000000000 
1 1787.99998385871367645 180.79422863413137179 40.00000000000270006 0.00000000000000033 1.00000000000000000 -0.00000000000000022 -0.00000000000000022 0.00000000000000022 1.00000000000000000 1.00000000000000000 -0.00000000000000033 0.00000000000000022 
1 1787.99998385871367645 180.79422863413137179 40.00000000000273559 0.00000000000000033 1.00000000000000000 -0.00000000000000000 0.00000000000000000 0.00000000000000000 1.00000000000000000 1.00000000000000000 -0.00000000000000033 0.00000000000000000 
1 1787.99998385871367645 180.79422863413137179 40.40000000000411973 -0.00000000000000022 0.00000000000000022 1.00000000000000000 -0.00000000000000033 -1.00000000000000000 0.00000000000000022 1.00000000000000000 -0.00000000000000033 0.00000000000000022 
1 1787.99998385871367645 180.79422863413137179 40.40000000000415525 -0.00000000000000022 0.00000000000000000 1.00000000000000000 -0.00000000000000011 -1.00000000000000000 0.00000000000000000 1.00000000000000000 -0.00000000000000011 0.00000000000000022 
1 1787.99998385871367645 -170.50000000000082423 40.40000000000419789 -0.00000000000000033 -1.00000000000000000 0.00000000000000022 0.00000000000000022 -0.00000000000000022 -1.00000000000000000 1.00000000000000000 -0.00000000000000033 0.00000000000000022 
1 1787.99998385871367645 -170.50000000000082423 40.40000000000415525 -0.00000000000000033 -1.00000000000000000 -0.00000000000000000 0.00000000000000000 0.00000000000000000 -1.00000000000000000 1.00000000000000000 -0.00000000000000033 0.00000000000000000 
1 1787.99998385871367645 -170.50000000000082423 40.00000000000043343 -0.00000000000000033 -1.00000000000000000 0.00000000000000022 0.00000000000000022 -0.00000000000000022 -1.00000000000000000 1.00000000000000000 -0.00000000000000033 0.00000000000000022 
1 1787.99998385871367645 -170.50000000000082423 40.00000000000039080 -0.00000000000000033 -1.00000000000000000 -0.00000000000000000 0.00000000000000000 0.00000000000000000 -1.00000000000000000 1.00000000000000000 -0.00000000000000033 0.00000000000000000 
1 1787.99998385871367645 -170.50000000000082423 0.00000000000043487 0.00000000000000022 -0.00000000000000022 -1.00000000000000000 0.00000000000000033 1.00000000000000000 -0.00000000000000022 1.00000000000000000 -0.00000000000000033 0.00000000000000022 
1 1787.99998385871367645 -170.50000000000082423 0.00000000000039336 0.00000000000000022 -0.00000000000000000 -1.00000000000000000 0.00000000000000011 1.00000000000000000 0.00000000000000000 1.00000000000000000 -0.00000000000000011 0.00000000000000022 
Triangulations 0

TShapes 28
Ve
0.000000500000000
0.000000000000312 883.382685902396361 -80.800000000007714
0 0

0101101
*
Ve
0.000000500000000
0.000000000000268 883.382685902396361 119.200000000003982
0 0

0101101
*
Ed
 0.000000500000000 1 1 0
1  1 0 0.000000000000000 200.000000000011710
0

0101000
+28 5 -27 5 *
Ve
0.000000500000000
-0.000000000000273 -873.088457268264619 -80.800000000007330
0 0

0101101
*
Ed
 0.000000500000000 1 1 0
1  2 0 0.000000000000000 1756.471143170660980
0

0101000
+25 5 -28 5 *
Ve
0.000000500000000
0.000000000000267 883.382685902396361 121.200000000011087
0 0

0101101
*
Ed
 0.000000500000000 1 1 0
1  3 0 0.000000000000000 2.000000000007098
0

0101000
+27 5 -23 5 *
Ve
0.000000500000000
-0.000000000000317 -873.088457268264619 119.199999999992670
0 0

0101101
*
Ed
 0.000000500000000 1 1 0
1  4 0 0.000000000000000 200.000000000000000
0

0101000
+21 5 -25 5 *
Ve
0.000000500000000
-0.000000000000318 -873.088457268264619 121.200000000011485
0 0

0101101
*
Ed
 0.000000500000000 1 1 0
1  5 0 0.000000000000000 1756.471143170660980
0

0101000
+23 5 -19 5 *
Ed
 0.000000500000000 1 1 0
1  6 0 0.000000000000000 2.000000000018822
0

0101000
+19 5 -21 5 *
Wi

0101100
+26 4 +24 4 +22 4 +20 4 +18 4 +17 4 *
Ve
0.000000500000000
0.000000000000060 180.794228634131969 -0.000000000000040
0 0

0101101
*
Ve
0.000000500000000
0.000000000000051 180.794228634131969 40.000000000002302
0 0

0101101
*
Ed
 0.000000500000000 1 1 0
1  7 0 0.000000000000000 40.000000000002345
2  1 2 9 0.000000000000000 40.000000000002345
2  2 2 11 0.000000000000000 40.000000000002345
2  3 3 15 0.000000000000000 40.000000000002345
2  4 3 17 0.000000000000000 40.000000000002345
0

0101000
+15 5 -14 5 *
Ve
0.000000500000000
0.000000000000051 180.794228634131969 40.400000000003722
0 0

0101101
*
Ed
 0.000000500000000 1 1 0
1  8 0 0.000000000000000 0.400000000001420
2  5 4 9 0.000000000000000 0.400000000001420
2  6 4 11 0.000000000000000 0.400000000001420
2  7 5 15 0.000000000000000 0.400000000001420
2  8 5 17 0.000000000000000 0.400000000001420
0

0101000
+14 5 -12 5 *
Ve
0.000000500000000
-0.000000000000066 -170.500000000000227 40.400000000003800
0 0

0101101
*
Ed
 0.000000500000000 1 1 0
1  9 0 0.000000000000000 351.294228634132196
2  9 6 9 0.000000000000000 351.294228634132196
2  10 6 11 0.000000000000000 351.294228634132196
2  11 7 15 0.000000000000000 351.294228634132196
2  12 7 17 0.000000000000000 351.294228634132196
0

0101000
+12 5 -10 5 *
Ve
0.000000500000000
-0.000000000000066 -170.500000000000227 40.000000000000036
0 0

0101101
*
Ed
 0.000000500000000 1 1 0
1  10 0 0.000000000000000 0.400000000003764
2  13 8 9 0.000000000000000 0.400000000003764
2  14 8 11 0.000000000000000 0.400000000003764
2  15 9 15 0.000000000000000 0.400000000003764
2  16 9 17 0.000000000000000 0.400000000003764
0

0101000
+10 5 -8 5 *
Ve
0.000000500000000
-0.000000000000057 -170.500000000000227 0.000000000000038
0 0

0101101
*
Ed
 0.000000500000000 1 1 0
1  11 0 0.000000000000000 40.000000000000000
2  17 10 9 0.000000000000000 40.000000000000000
2  18 10 11 0.000000000000000 40.000000000000000
2  19 11 15 0.000000000000000 40.000000000000000
2  20 11 17 0.000000000000000 40.000000000000000
0

0101000
+8 5 -6 5 *
Ed
 0.000000500000000 1 1 0
1  12 0 0.000000000000000 351.294228634132196
2  21 12 9 0.000000000000000 351.294228634132196
2  22 12 11 0.000000000000000 351.294228634132196
2  23 13 15 0.000000000000000 351.294228634132196
2  24 13 17 0.000000000000000 351.294228634132196
0

0101000
+6 5 -15 5 *
Wi

0101100
-13 4 -11 4 -9 4 -7 4 -5 4 -4 4 *
Fa
0  0.000000500000000 1 0

0101000
+16 0 +3 0 *
Sh

1101000
+2 0 *

+1 1 