
CASCADE Topology V1, (c) Matra-Datavision
Locations 10
1
1.000000000000000 0.000000000000000 0.000000000000000 40.000000000000000 
0.000000000000000 1.000000000000000 0.000000000000000 -12.000000000000000 
0.000000000000000 0.000000000000000 1.000000000000000 0.000000000000000 
1
1.000000000000000 0.000000000000000 0.000000000000000 0.000000000000000 
0.000000000000000 1.000000000000000 0.000000000000000 0.000000000000000 
0.000000000000000 0.000000000000000 1.000000000000000 0.000000000000000 
1
1.000000000000000 0.000000000000000 0.000000000000000 0.000000000000000 
0.000000000000000 1.000000000000000 0.000000000000000 0.000000000000000 
0.000000000000000 0.000000000000000 1.000000000000000 0.000000000000000 
1
1.000000000000000 0.000000000000000 0.000000000000000 0.000000000000000 
0.000000000000000 1.000000000000000 0.000000000000000 0.000000000000000 
0.000000000000000 0.000000000000000 1.000000000000000 0.000000000000000 
1
1.000000000000000 0.000000000000000 0.000000000000000 0.000000000000000 
0.000000000000000 1.000000000000000 0.000000000000000 0.000000000000000 
0.000000000000000 0.000000000000000 1.000000000000000 0.000000000000000 
1
1.000000000000000 0.000000000000000 0.000000000000000 0.000000000000000 
0.000000000000000 1.000000000000000 0.000000000000000 0.000000000000000 
0.000000000000000 0.000000000000000 1.000000000000000 0.000000000000000 
1
1.000000000000000 0.000000000000000 0.000000000000000 0.000000000000000 
0.000000000000000 1.000000000000000 0.000000000000000 0.000000000000000 
0.000000000000000 0.000000000000000 1.000000000000000 0.000000000000000 
2  2 1 3 -1 4 1 5 -1 6 1 7 -1 1 -1 0
1
1.000000000000000 0.000000000000000 0.000000000000000 -40.000000000000000 
0.000000000000000 1.000000000000000 0.000000000000000 -12.000000000000000 
0.000000000000000 0.000000000000000 1.000000000000000 0.000000000000000 
2  2 1 3 -1 4 1 5 -1 6 1 7 -1 9 -1 0
Curve2ds 11
2 0.00000000000000000 0.00000000000000000 -1.00000000000000000 0.00000000000000000 0.00000000000000000 1.00000000000000000 2.75000000000000000
1 0.00000000000000000 0.00000000000000000 1.00000000000000000 0.00000000000000000 
2 7.99999999999999112 -90.50000000000000000 0.00000000000000022 1.00000000000000000 -1.00000000000000000 0.00000000000000022 2.75000000000000000
2 8.00000000000000888 -10.50000000000000178 0.00000000000000022 1.00000000000000000 -1.00000000000000000 0.00000000000000022 2.75000000000000000
1 0.00000000000000000 305.85494993542454267 1.00000000000000000 0.00000000000000000 
1 0.00000000000000000 0.00000000000000000 1.00000000000000000 0.00000000000000000 
1 6.28318530717958623 0.00000000000000000 0.00000000000000000 1.00000000000000000 
1 0.00000000000000000 0.00000000000000000 0.00000000000000000 1.00000000000000000 
1 0.00000000000000000 3.20824184234212906 1.00000000000000000 0.00000000000000000 
1 6.28318530717958623 0.00000000000000000 0.00000000000000000 1.00000000000000000 
1 0.00000000000000000 0.00000000000000000 0.00000000000000000 1.00000000000000000 
Curves 4
2 0.00000000000000000 0.00000000000000000 0.00000000000000000 -0.00000000000000000 -0.00000000000000000 -1.00000000000000000 -1.00000000000000000 0.00000000000000000 0.00000000000000000 0.00000000000000000 1.00000000000000000 -0.00000000000000000 2.75000000000000000
2 0.00000000000000000 0.00000000000000000 305.85494993542454267 -0.00000000000000000 -0.00000000000000000 -1.00000000000000000 -1.00000000000000000 0.00000000000000000 0.00000000000000000 0.00000000000000000 1.00000000000000000 -0.00000000000000000 2.74999999999998135
1 -2.75000000000000000 0.00000000000000000 0.00000000000000000 0.00000000000000006 0.00000000000000000 1.00000000000000000 
1 -2.74999999999998135 0.00000000000000000 305.85494993542454267 0.85716730070211444 0.00000000000000000 0.51503807491005071 
Polygon3D 0
PolygonOnTriangulations 0
Surfaces 4
1 0.00000000000000000 0.00000000000000000 0.00000000000000000 -0.00000000000000000 -0.00000000000000000 -1.00000000000000000 1.00000000000000000 -0.00000000000000000 0.00000000000000000 0.00000000000000000 1.00000000000000000 -0.00000000000000000 
2 0.00000000000000000 0.00000000000000000 0.00000000000000000 0.00000000000000000 0.00000000000000000 1.00000000000000000 -1.00000000000000000 0.00000000000000000 0.00000000000000000 -0.00000000000000000 1.00000000000000000 -0.00000000000000000 2.75000000000000000
1 -50.50000000000000000 -3.99999999999998890 -0.00000000000001313 0.00000000000000028 -0.00000000000000022 -1.00000000000000000 -0.00000000000000022 -1.00000000000000000 0.00000000000000022 -1.00000000000000000 0.00000000000000022 -0.00000000000000028 
3 0.00000000000000000 0.00000000000000000 305.85494993542454267 0.00000000000000000 0.00000000000000000 1.00000000000000000 -1.00000000000000000 0.00000000000000000 0.00000000000000000 -0.00000000000000000 1.00000000000000000 -0.00000000000000000 2.74999999999998135
-1.02974425867665875
Triangulations 0

TShapes 17
Ve
0.001000000000015
-2.750000000000000 0.000000000000000 0.000000000000000
0 0

0101101
*
Ed
 0.001000000000015 1 1 0
1  1 0 0.000000000000000 6.283185307179586
2  1 1 0 0.000000000000000 6.283185307179586
2  2 2 0 0.000000000000000 6.283185307179586
2  3 3 8 0.000000000000000 6.283185307179586
2  4 3 10 0.000000000000000 6.283185307179586
0

0101000
+17 0 -17 0 *
Wi

0101100
-16 0 *
Fa
0  0.000000100000000 1 0

0111000
+15 0 *
Ve
0.000000100000000
-2.749999999999981 0.000000000000000 305.854949935424543
0 0

0101101
*
Ed
 0.000000100000000 1 1 0
1  2 0 0.000000000000000 6.283185307179586
2  5 2 0 0.000000000000000 6.283185307179586
2  6 4 0 0.000000000000000 6.283185307179586
0

0101000
+13 0 -13 0 *
Ed
 0.000000100000000 1 1 0
1  3 0 0.000000000000000 305.854949935424543
3  7 8CN 2 0 0.000000000000000 305.854949935424543
0

0101000
+17 0 -13 0 *
Wi

0101100
+16 0 -12 0 -11 0 +11 0 *
Fa
0  0.000000100000000 2 0

0111000
+10 0 *
Ve
0.000000100000000
0.000000000000000 0.000000000000000 307.507316637750307
0 0

0101101
*
Ed
 0.000000100000000 1 1 1
2  9 4 0 0.000000000000000 6.283185307179586
0

0101000
+8 0 -8 0 *
Ed
 0.000000100000000 1 1 0
1  4 0 0.000000000000000 3.208241842342130
3  10 11CN 4 0 0.000000000000000 3.208241842342130
0

0101000
+13 0 -8 0 *
Wi

0101100
+12 0 -7 0 -6 0 +6 0 *
Fa
0  0.000000100000000 4 0

0111000
+5 0 *
Sh

0101100
+14 0 +9 0 +4 0 *
So

0100000
-3 0 *
Co

1100000
+2 1 +2 9 *

+1 0 