
CASCADE Topology V1, (c) Matra-Datavision
Locations 3
1
1.000000000000000 0.000000000000000 0.000000000000000 0.000000000000000 
0.000000000000000 1.000000000000000 0.000000000000000 0.000000000000000 
0.000000000000000 0.000000000000000 1.000000000000000 0.000000000000000 
1
1.000000000000000 0.000000000000000 0.000000000000000 0.000000000000000 
0.000000000000000 1.000000000000000 0.000000000000000 0.000000000000000 
0.000000000000000 0.000000000000000 1.000000000000000 84.000000000000000 
2  2 -1 0
Curve2ds 93
1 1.57079632679489656 0.00000000000000000 0.00000000000000000 -1.00000000000000000 
1 0.00000000000000000 -2.00000000000000000 1.00000000000000000 0.00000000000000000 
1 0.00000000000000000 -2.00000000000000000 -1.00000000000000000 0.00000000000000000 
1 0.00000000000000000 0.00000000000000000 0.00000000000000000 -1.00000000000000000 
1 21.00000000000000000 0.00000000000000000 0.00000000000000000 -1.00000000000000000 
1 0.00000000000000000 0.00000000000000000 1.00000000000000000 0.00000000000000000 
1 0.00000000000000000 -2.00000000000000000 -1.00000000000000000 0.00000000000000000 
1 0.00000000000000000 -2.00000000000000000 1.00000000000000000 0.00000000000000000 
1 -3.99999999999999956 0.00000000000000000 1.00000000000000000 0.00000000000000000 
1 -3.99999999999999956 -84.00000000000000000 1.00000000000000000 0.00000000000000000 
1 0.00000000000000000 0.00000000000000000 0.00000000000000000 -1.00000000000000000 
1 0.00000000000000000 -2.00000000000000000 1.00000000000000000 0.00000000000000000 
1 0.00000000000000000 -1.99999999999999956 -1.00000000000000000 0.00000000000000000 
1 63.99999999999988631 0.00000000000000000 0.00000000000000000 -1.00000000000000000 
1 0.00000000000000000 84.00000000000000000 1.00000000000000000 0.00000000000000000 
1 0.00000000000000000 0.00000000000000000 1.00000000000000000 0.00000000000000000 
1 0.00000000000000000 -84.00000000000000000 1.00000000000000000 0.00000000000000000 
1 6.28318530717958623 0.00000000000000000 -1.00000000000000000 0.00000000000000000 
1 0.00000000000000000 0.00000000000000000 1.00000000000000000 0.00000000000000000 
6 0 1 -25.00000000000000000 -2.00000000000000000  -25.00000000000000000 0.00000000000000000  
1 21.00000000000000000 0.00000000000000000 0.00000000000000000 -1.00000000000000000 
6 0 1 25.00000000000000000 -2.00000000000000000  25.00000000000000000 0.00000000000000000  
1 -3.99999999999999956 0.00000000000000000 1.00000000000000000 0.00000000000000000 
1 0.00000000000000000 0.00000000000000000 1.00000000000000000 0.00000000000000000 
6 0 1 0.00000000000000000 -2.00000000000000000  0.00000000000000000 0.00000000000000000  
6 0 1 3.99999999999999956 -2.00000000000000000  3.99999999999999956 0.00000000000000000  
8 0.00000000000000000 1.00000000000000000
1 1.57079632679489656 0.00000000000000000 0.00000000000000000 1.00000000000000000 
6 0 1 -3.99999999999999956 -2.00000000000000000  -3.99999999999999956 0.00000000000000000  
6 0 1 -84.00000000000000000 -2.00000000000000000  -84.00000000000000000 0.00000000000000000  
8 0.00000000000000000 1.00000000000000000
1 4.71238898038468967 0.00000000000000000 0.00000000000000000 1.00000000000000000 
1 -3.99999999999999956 -84.00000000000000000 1.00000000000000000 0.00000000000000000 
1 0.00000000000000000 0.00000000000000000 -1.00000000000000000 0.00000000000000000 
1 6.28318530717958623 0.00000000000000000 0.00000000000000000 -1.00000000000000000 
1 0.00000000000000000 -2.00000000000000000 1.00000000000000000 0.00000000000000000 
1 0.00000000000000000 -2.00000000000000000 -1.00000000000000000 0.00000000000000000 
1 0.00000000000000000 0.00000000000000000 0.00000000000000000 -1.00000000000000000 
1 0.00000000000000000 0.00000000000000000 1.00000000000000000 0.00000000000000000 
1 0.00000000000000000 -2.00000000000000000 -1.00000000000000000 0.00000000000000000 
1 0.00000000000000000 -2.00000000000000000 1.00000000000000000 0.00000000000000000 
1 -4.00000000000000000 0.00000000000000000 1.00000000000000000 0.00000000000000000 
1 -4.00000000000000000 -84.00000000000000000 1.00000000000000000 0.00000000000000000 
1 0.00000000000000000 1.00000000000000000 1.00000000000000000 0.00000000000000000 
1 0.00000000000000000 0.00000000000000000 0.00000000000000000 1.00000000000000000 
6 0 1 0.00000000000000000 -1.99999999999999956  0.00000000000000000 0.00000000000000000  
1 6.28318530717958623 0.00000000000000000 0.00000000000000000 1.00000000000000000 
7 0 0  1 2 2  -84.00000000000000000 -2.00000000000000000  -84.00000000000000000 -0.00000000000000044 
 0.00000000000000000 2 1.00000000000000000 2
1 6.28318530717958623 1.00000000000000000 -1.00000000000000000 0.00000000000000000 
1 0.00000000000000000 0.00000000000000000 0.00000000000000000 -1.00000000000000000 
1 0.00000000000000000 0.00000000000000000 -1.00000000000000000 0.00000000000000000 
8 0.00000000000000000 84.00000000000000000
1 1.57079632679489656 0.00000000000000000 0.00000000000000000 -1.00000000000000000 
1 4.71238898038468967 0.00000000000000000 0.00000000000000000 -1.00000000000000000 
1 0.00000000000000000 -2.00000000000000000 1.00000000000000000 0.00000000000000000 
1 0.00000000000000000 -2.00000000000000000 -1.00000000000000000 0.00000000000000000 
1 21.00000000000000000 0.00000000000000000 0.00000000000000000 -1.00000000000000000 
1 -4.71238898038468967 84.00000000000000000 1.00000000000000000 0.00000000000000000 
1 0.00000000000000000 0.00000000000000000 1.00000000000000000 0.00000000000000000 
1 0.00000000000000000 -84.00000000000000000 1.00000000000000000 0.00000000000000000 
1 6.28318530717958623 0.00000000000000000 -1.00000000000000000 0.00000000000000000 
1 0.00000000000000000 0.00000000000000000 1.00000000000000000 0.00000000000000000 
1 -4.00000000000000000 0.00000000000000000 1.00000000000000000 0.00000000000000000 
1 0.00000000000000000 0.00000000000000000 1.00000000000000000 0.00000000000000000 
6 0 1 4.00000000000000000 -2.00000000000000000  4.00000000000000000 0.00000000000000000  
6 0 1 0.00000000000000000 -2.00000000000000000  0.00000000000000000 0.00000000000000000  
8 0.00000000000000000 1.00000000000000000
1 6.28318530717958623 0.00000000000000000 0.00000000000000000 1.00000000000000000 
6 0 1 -4.00000000000000000 -2.00000000000000000  -4.00000000000000000 0.00000000000000000  
6 0 1 -84.00000000000000000 -2.00000000000000000  -84.00000000000000000 0.00000000000000000  
8 0.00000000000000000 1.00000000000000000
1 0.00000000000000000 0.00000000000000000 0.00000000000000000 1.00000000000000000 
1 -4.00000000000000000 -84.00000000000000000 1.00000000000000000 0.00000000000000000 
1 0.00000000000000000 0.00000000000000000 -1.00000000000000000 0.00000000000000000 
1 0.00000000000000000 0.00000000000000000 -1.00000000000000000 0.00000000000000000 
1 0.00000000000000000 0.00000000000000000 0.00000000000000000 -1.00000000000000000 
1 0.00000000000000000 0.00000000000000000 1.00000000000000000 0.00000000000000000 
1 0.00000000000000000 -2.00000000000000000 -1.00000000000000000 0.00000000000000000 
1 0.00000000000000000 -2.00000000000000000 1.00000000000000000 0.00000000000000000 
1 0.00000000000000000 0.00000000000000000 1.00000000000000000 0.00000000000000000 
1 0.00000000000000000 -84.00000000000000000 1.00000000000000000 0.00000000000000000 
1 0.00000000000000000 1.00000000000000000 1.00000000000000000 0.00000000000000000 
1 4.71238898038468967 0.00000000000000000 0.00000000000000000 1.00000000000000000 
6 0 1 0.00000000000000000 -2.00000000000000000  0.00000000000000000 0.00000000000000000  
1 1.57079632679489656 0.00000000000000000 0.00000000000000000 1.00000000000000000 
7 0 0  1 2 2  -84.00000000000000000 -2.00000000000000711  -84.00000000000000000 0.00000000000000711 
 0.00000000000000000 2 1.00000000000000000 2
1 6.28318530717958623 1.00000000000000000 -1.00000000000000000 0.00000000000000000 
1 0.00000000000000000 0.00000000000000000 0.00000000000000000 -1.00000000000000000 
1 0.00000000000000000 0.00000000000000000 -1.00000000000000000 0.00000000000000000 
8 0.00000000000000000 84.00000000000000000
1 6.28318530717958623 0.00000000000000000 0.00000000000000000 -1.00000000000000000 
6 0 1 0.00000000000000000 -2.00000000000000000  0.00000000000000000 0.00000000000000000  
1 0.00000000000000000 0.00000000000000000 0.00000000000000000 -1.00000000000000000 
6 0 1 0.00000000000000000 -2.00000000000000000  0.00000000000000000 0.00000000000000000  
1 0.00000000000000000 0.00000000000000000 1.00000000000000000 0.00000000000000000 
1 0.00000000000000000 0.00000000000000000 1.00000000000000000 0.00000000000000000 
1 0.00000000000000000 -84.00000000000000000 1.00000000000000000 0.00000000000000000 
1 0.00000000000000000 0.00000000000000000 -1.00000000000000000 0.00000000000000000 
1 0.00000000000000000 0.00000000000000000 -1.00000000000000000 0.00000000000000000 
Curves 39
1 35.99999999999994316 -3.99999999999999956 0.00000000000000000 0.00000000000000000 0.00000000000000000 1.00000000000000000 
1 35.99999999999994316 -25.00000000000000000 0.00000000000000000 0.00000000000000000 0.00000000000000000 1.00000000000000000 
1 35.99999999999994316 0.00000000000000000 0.00000000000000000 0.00000000000000000 -1.00000000000000000 0.00000000000000000 
1 31.99999999999994316 0.00000000000000000 0.00000000000000000 0.00000000000000000 0.00000000000000000 1.00000000000000000 
2 31.99999999999994316 -3.99999999999999956 0.00000000000000000 0.00000000000000000 0.00000000000000000 -1.00000000000000000 0.00000000000000000 1.00000000000000000 0.00000000000000000 1.00000000000000000 -0.00000000000000000 0.00000000000000000 4.00000000000000000
6 0 1 35.99999999999994316 -25.00000000000000000 84.00000000000000000  33.99999999999994316 -25.00000000000000000 84.00000000000000000  
1 33.99999999999994316 -25.00000000000000000 0.00000000000000000 0.00000000000000000 0.00000000000000000 1.00000000000000000 
6 0 1 35.99999999999994316 -25.00000000000000000 0.00000000000000000  33.99999999999994316 -25.00000000000000000 0.00000000000000000  
1 33.99999999999994316 0.00000000000000000 0.00000000000000000 0.00000000000000000 -1.00000000000000000 0.00000000000000000 
6 0 1 35.99999999999994316 -3.99999999999999956 0.00000000000000000  33.99999999999994316 -3.99999999999999956 0.00000000000000000  
6 0 1 35.99999999999994316 -3.99999999999999956 84.00000000000000000  33.99999999999994316 -3.99999999999999956 84.00000000000000000  
1 33.99999999999994316 0.00000000000000000 84.00000000000000000 0.00000000000000000 -1.00000000000000000 0.00000000000000000 
1 -31.99999999999994316 0.00000000000000000 0.00000000000000000 0.00000000000000000 0.00000000000000000 1.00000000000000000 
1 -35.99999999999994316 0.00000000000000000 0.00000000000000000 1.00000000000000000 0.00000000000000000 0.00000000000000000 
2 31.99999999999994316 -3.99999999999999956 0.00000000000000000 0.00000000000000000 0.00000000000000000 -1.00000000000000000 0.00000000000000000 1.00000000000000000 0.00000000000000000 1.00000000000000000 -0.00000000000000000 0.00000000000000000 2.00000000000000000
6 0 1 31.99999999999994316 0.00000000000000000 0.00000000000000000  31.99999999999994316 -1.99999999999999956 0.00000000000000000  
7 0 0  1 2 2  31.99999999999994671 0.00000000000000067 84.00000000000000000  31.99999999999994316 -1.99999999999999911 84.00000000000000000 
 0.00000000000000000 2 1.00000000000000000 2
2 31.99999999999994316 -3.99999999999999956 84.00000000000000000 0.00000000000000000 0.00000000000000000 -1.00000000000000000 0.00000000000000000 1.00000000000000000 0.00000000000000000 1.00000000000000000 -0.00000000000000000 0.00000000000000000 2.00000000000000000
1 33.99999999999994316 -3.99999999999999956 0.00000000000000000 0.00000000000000000 0.00000000000000000 1.00000000000000000 
1 -35.99999999999994316 -4.00000000000000000 0.00000000000000000 0.00000000000000000 0.00000000000000000 1.00000000000000000 
2 -31.99999999999994316 -4.00000000000000000 0.00000000000000000 0.00000000000000000 0.00000000000000000 -1.00000000000000000 0.00000000000000022 1.00000000000000000 0.00000000000000000 1.00000000000000000 -0.00000000000000022 0.00000000000000000 4.00000000000000000
1 -35.99999999999994316 -2.00000000000000000 0.00000000000000000 1.00000000000000000 0.00000000000000000 0.00000000000000000 
6 0 1 -31.99999999999994316 0.00000000000000000 0.00000000000000000  -31.99999999999994316 -2.00000000000000000 0.00000000000000000  
6 0 1 -31.99999999999994316 0.00000000000000000 84.00000000000000000  -31.99999999999994316 -2.00000000000000000 84.00000000000000000  
1 -35.99999999999994316 -2.00000000000000000 84.00000000000000000 1.00000000000000000 0.00000000000000000 0.00000000000000000 
1 31.99999999999994316 -1.99999999999999956 0.00000000000000000 -0.00000000000000000 -0.00000000000000000 1.00000000000000000 
1 -35.99999999999994316 -25.00000000000000000 0.00000000000000000 0.00000000000000000 0.00000000000000000 1.00000000000000000 
1 -35.99999999999994316 -25.00000000000000000 0.00000000000000000 0.00000000000000000 1.00000000000000000 0.00000000000000000 
2 -31.99999999999994316 -4.00000000000000000 0.00000000000000000 0.00000000000000000 0.00000000000000000 -1.00000000000000000 0.00000000000000022 1.00000000000000000 0.00000000000000000 1.00000000000000000 -0.00000000000000022 0.00000000000000000 2.00000000000000000
6 0 1 -35.99999999999994316 -4.00000000000000000 0.00000000000000000  -33.99999999999994316 -4.00000000000000000 0.00000000000000000  
7 0 0  1 2 2  -35.99999999999995026 -3.99999999999999867 84.00000000000000000  -33.99999999999993605 -3.99999999999999867 84.00000000000000000 
 0.00000000000000000 2 1.00000000000000000 2
2 -31.99999999999994316 -4.00000000000000000 84.00000000000000000 0.00000000000000000 0.00000000000000000 -1.00000000000000000 0.00000000000000022 1.00000000000000000 0.00000000000000000 1.00000000000000000 -0.00000000000000022 0.00000000000000000 2.00000000000000000
1 -31.99999999999994316 -2.00000000000000000 0.00000000000000000 0.00000000000000000 0.00000000000000000 1.00000000000000000 
6 0 1 -35.99999999999994316 -25.00000000000000000 0.00000000000000000  -33.99999999999994316 -25.00000000000000000 0.00000000000000000  
1 -33.99999999999994316 -25.00000000000000000 0.00000000000000000 0.00000000000000000 0.00000000000000000 1.00000000000000000 
6 0 1 -35.99999999999994316 -25.00000000000000000 84.00000000000000000  -33.99999999999994316 -25.00000000000000000 84.00000000000000000  
1 -33.99999999999994316 -25.00000000000000000 0.00000000000000000 0.00000000000000000 1.00000000000000000 0.00000000000000000 
1 -33.99999999999994316 -25.00000000000000000 84.00000000000000000 0.00000000000000000 1.00000000000000000 0.00000000000000000 
1 -33.99999999999994316 -4.00000000000000000 0.00000000000000000 -0.00000000000000000 -0.00000000000000000 1.00000000000000000 
Polygon3D 0
PolygonOnTriangulations 0
Surfaces 35
1 35.99999999999994316 -3.99999999999999956 0.00000000000000000 1.00000000000000000 0.00000000000000000 -0.00000000000000000 0.00000000000000000 -1.00000000000000000 0.00000000000000000 0.00000000000000000 -0.00000000000000000 -1.00000000000000000 
2 31.99999999999994316 -3.99999999999999956 0.00000000000000000 0.00000000000000000 0.00000000000000000 -1.00000000000000000 0.00000000000000000 1.00000000000000000 0.00000000000000000 1.00000000000000000 -0.00000000000000000 0.00000000000000000 4.00000000000000000
1 33.99999999999994316 -3.99999999999999956 0.00000000000000000 -0.00000000000000000 -1.00000000000000000 -0.00000000000000000 -0.00000000000000000 0.00000000000000000 1.00000000000000000 -1.00000000000000000 0.00000000000000000 -0.00000000000000000 
1 33.99999999999994316 -3.99999999999999956 0.00000000000000000 0.00000000000000000 1.00000000000000000 -0.00000000000000000 0.00000000000000000 -0.00000000000000000 -1.00000000000000000 -1.00000000000000000 0.00000000000000000 -0.00000000000000000 
1 35.99999999999994316 0.00000000000000000 0.00000000000000000 1.00000000000000000 0.00000000000000000 -0.00000000000000000 0.00000000000000000 -1.00000000000000000 0.00000000000000000 0.00000000000000000 -0.00000000000000000 -1.00000000000000000 
1 33.99999999999994316 0.00000000000000000 84.00000000000000000 0.00000000000000000 0.00000000000000000 1.00000000000000000 -0.00000000000000000 1.00000000000000000 0.00000000000000000 -1.00000000000000000 -0.00000000000000000 0.00000000000000000 
1 33.99999999999994316 0.00000000000000000 0.00000000000000000 -0.00000000000000000 -0.00000000000000000 -1.00000000000000000 0.00000000000000000 -1.00000000000000000 0.00000000000000000 -1.00000000000000000 0.00000000000000000 0.00000000000000000 
1 -31.99999999999994316 0.00000000000000000 0.00000000000000000 0.00000000000000000 1.00000000000000000 0.00000000000000000 1.00000000000000000 0.00000000000000000 0.00000000000000000 0.00000000000000000 0.00000000000000000 -1.00000000000000000 
1 31.99999999999994316 -2.00000000000000000 0.00000000000000000 1.00000000000000000 0.00000000000000000 -0.00000000000000000 0.00000000000000000 0.00000000000000000 1.00000000000000000 0.00000000000000000 -1.00000000000000000 0.00000000000000000 
1 31.99999999999994316 -1.99999999999999956 0.00000000000000000 -1.00000000000000000 -0.00000000000000000 -0.00000000000000000 0.00000000000000000 0.00000000000000000 -1.00000000000000000 0.00000000000000000 -1.00000000000000000 0.00000000000000000 
2 31.99999999999994316 -3.99999999999999956 84.00000000000000000 -0.00000000000000000 0.00000000000000000 -1.00000000000000000 0.00000000000000000 1.00000000000000000 0.00000000000000000 1.00000000000000000 0.00000000000000000 -0.00000000000000000 4.00000000000000000
9 0 0 0 0 8 1 9 2 2 2 35.99999999999991473 -3.99999999999999734 83.99999999999992895  33.99999999999991473 -3.99999999999999645 83.99999999999992895  
35.99999999999956657 -3.21460183660252818 83.99999999999899103  33.99999999999951683 -3.60730091830122968 83.99999999999899103  
35.82375684415649175 -2.42920342598322936 84.00000000000345324  33.91187842207899195 -3.21460171299173281 84.00000000000345324  
35.47127226348339946 -1.68994706265960026 83.99999999999430145  33.73563613174034259 -2.84497353132959896 83.99999999999430145  
34.95703502312182565 -1.04296497688059575 84.00000000000591172  33.47851751156243694 -2.52148248844051759 84.00000000000591172  
34.31005293733863937 -0.52872773651415639 83.99999999999573674  33.15502646866797676 -2.26436386825690805 83.99999999999573674  
33.57079657401751405 -0.17624315584486894 84.00000000000210321  32.78539828700946401 -2.08812157792252417 84.00000000000210321  
32.78539816339722535 0.00000000000001387 83.99999999999945999  32.39269908169836754 -1.99999999999996669 83.99999999999945999  
31.99999999999994671 0.00000000000000067 84.00000000000000000  31.99999999999994316 -1.99999999999999911 84.00000000000000000  

4.71238898038468967 9
6.28318530717958623 9

0.00000000000000000 2
1.00000000000000000 2

9 0 0 0 0 8 1 9 2 2 2 31.99999999999994671 0.00000000000000044 0.00000000000000000  31.99999999999993960 -1.99999999999999911 0.00000000000000000  
32.78539816339731061 0.00000000000000057 0.00000000000000000  32.39269908169870860 -2.00000000000000933 0.00000000000000000  
33.57079657401709483 -0.17624315584481010 0.00000000000000000  32.78539828700815661 -2.08812157792237363 0.00000000000000000  
34.31005293733967676 -0.52872773651428218 0.00000000000000000  33.15502646867059866 -2.26436386825719227 0.00000000000000000  
34.95703502312014166 -1.04296497688042233 0.00000000000000000  33.47851751155884870 -2.52148248844015344 0.00000000000000000  
35.47127226348515450 -1.68994706265975747 0.00000000000000000  33.73563613174366793 -2.84497353132992181 0.00000000000000000  
35.82375684415538331 -2.42920342598313432 0.00000000000000000  33.91187842207700953 -3.21460171299154229 0.00000000000000000  
35.99999999999991473 -3.21460183660255483 0.00000000000000000  34.00000000000009948 -3.60730091830128474 0.00000000000000000  
35.99999999999994316 -3.99999999999999911 0.00000000000000000  33.99999999999993605 -3.99999999999999911 0.00000000000000000  

0.00000000000000000 9
1.57079632679489656 9

0.00000000000000000 2
1.00000000000000000 2

1 33.99999999999994316 -25.00000000000000000 0.00000000000000000 0.00000000000000000 -1.00000000000000000 0.00000000000000000 0.00000000000000000 0.00000000000000000 1.00000000000000000 -1.00000000000000000 0.00000000000000000 0.00000000000000000 
1 33.99999999999994316 -3.99999999999999956 0.00000000000000000 1.00000000000000000 0.00000000000000000 -0.00000000000000000 0.00000000000000000 -1.00000000000000000 0.00000000000000000 0.00000000000000000 -0.00000000000000000 -1.00000000000000000 
2 -31.99999999999994316 -4.00000000000000000 0.00000000000000000 0.00000000000000000 0.00000000000000000 -1.00000000000000000 0.00000000000000022 1.00000000000000000 0.00000000000000000 1.00000000000000000 -0.00000000000000022 0.00000000000000000 4.00000000000000000
1 -31.99999999999994316 -2.00000000000000000 0.00000000000000000 1.00000000000000000 0.00000000000000000 0.00000000000000000 0.00000000000000000 -0.00000000000000000 1.00000000000000000 0.00000000000000000 -1.00000000000000000 -0.00000000000000000 
1 -31.99999999999994316 -2.00000000000000000 0.00000000000000000 -1.00000000000000000 0.00000000000000000 0.00000000000000000 0.00000000000000000 0.00000000000000000 -1.00000000000000000 -0.00000000000000000 -1.00000000000000000 -0.00000000000000000 
1 -35.99999999999994316 0.00000000000000000 0.00000000000000000 0.00000000000000000 1.00000000000000000 0.00000000000000000 1.00000000000000000 0.00000000000000000 0.00000000000000000 0.00000000000000000 0.00000000000000000 -1.00000000000000000 
1 -35.99999999999994316 -2.00000000000000000 84.00000000000000000 -0.00000000000000000 0.00000000000000000 1.00000000000000000 -1.00000000000000000 0.00000000000000000 -0.00000000000000000 -0.00000000000000000 -1.00000000000000000 0.00000000000000000 
1 -35.99999999999994316 -2.00000000000000000 0.00000000000000000 0.00000000000000000 0.00000000000000000 -1.00000000000000000 1.00000000000000000 0.00000000000000000 0.00000000000000000 0.00000000000000000 -1.00000000000000000 0.00000000000000000 
2 31.99999999999994316 -3.99999999999999956 0.00000000000000000 0.00000000000000000 0.00000000000000000 -1.00000000000000000 0.00000000000000000 1.00000000000000000 0.00000000000000000 1.00000000000000000 -0.00000000000000000 0.00000000000000000 2.00000000000000000
1 -35.99999999999994316 -25.00000000000000000 0.00000000000000000 -1.00000000000000000 0.00000000000000000 0.00000000000000000 0.00000000000000000 1.00000000000000000 0.00000000000000000 0.00000000000000000 0.00000000000000000 -1.00000000000000000 
1 -33.99999999999994316 -4.00000000000000000 0.00000000000000000 0.00000000000000000 1.00000000000000000 0.00000000000000000 0.00000000000000000 -0.00000000000000000 1.00000000000000000 1.00000000000000000 0.00000000000000000 -0.00000000000000000 
1 -33.99999999999994316 -4.00000000000000000 0.00000000000000000 0.00000000000000000 -1.00000000000000000 0.00000000000000000 0.00000000000000000 0.00000000000000000 -1.00000000000000000 1.00000000000000000 0.00000000000000000 0.00000000000000000 
2 -31.99999999999994316 -3.99999999999999956 84.00000000000000000 0.00000000000000000 0.00000000000000000 -1.00000000000000000 -1.00000000000000000 0.00000000000000000 0.00000000000000000 0.00000000000000000 1.00000000000000000 0.00000000000000000 4.00000000000000000
9 0 0 0 0 8 1 9 2 2 2 -31.99999999999994671 0.00000000000000044 84.00000000000000000  -31.99999999999993960 -1.99999999999999956 84.00000000000000000  
-32.78539816339731772 -0.00000000000000097 83.99999999999992895  -32.39269908169870860 -1.99999999999999534 83.99999999999992895  
-33.57079657401708772 -0.17624315584480751 84.00000000000031264  -32.78539828700813530 -2.08812157792242026 84.00000000000031264  
-34.31005293733970518 -0.52872773651428473 83.99999999999943157  -33.15502646867064840 -2.26436386825710922 83.99999999999943157  
-34.95703502312010613 -1.04296497688042100 84.00000000000083844  -33.47851751155878475 -2.52148248844024936 84.00000000000083844  
-35.47127226348517581 -1.68994706265975791 83.99999999999910472  -33.73563613174376741 -2.84497353132984587 83.99999999999910472  
-35.82375684415538331 -2.42920342598313255 84.00000000000059686  -33.91187842207691006 -3.21460171299158226 84.00000000000059686  
-35.99999999999990763 -3.21460183660255572 83.99999999999980105  -34.00000000000015632 -3.60730091830127320 83.99999999999980105  
-35.99999999999995026 -3.99999999999999867 84.00000000000000000  -33.99999999999993605 -3.99999999999999867 84.00000000000000000  

0.00000000000000000 9
1.57079632679489656 9

0.00000000000000000 2
1.00000000000000000 2

9 0 0 0 0 8 1 9 2 2 2 -35.99999999999991473 -3.99999999999999645 0.00000000000000000  -33.99999999999991473 -3.99999999999999645 0.00000000000000000  
-35.99999999999956657 -3.21460183660252685 0.00000000000000000  -33.99999999999951683 -3.60730091830122923 0.00000000000000000  
-35.82375684415649175 -2.42920342598323069 0.00000000000000000  -33.91187842207899195 -3.21460171299173103 0.00000000000000000  
-35.47127226348339946 -1.68994706265959271 0.00000000000000000  -33.73563613174034259 -2.84497353132959452 0.00000000000000000  
-34.95703502312182565 -1.04296497688060663 0.00000000000000000  -33.47851751156243694 -2.52148248844052913 0.00000000000000000  
-34.31005293733863937 -0.52872773651414684 0.00000000000000000  -33.15502646866797676 -2.26436386825690095 0.00000000000000000  
-33.57079657401751405 -0.17624315584487346 0.00000000000000000  -32.78539828700946401 -2.08812157792252640 0.00000000000000000  
-32.78539816339722535 0.00000000000001486 0.00000000000000000  -32.39269908169836754 -1.99999999999996714 0.00000000000000000  
-31.99999999999994671 0.00000000000000022 0.00000000000000000  -31.99999999999994316 -2.00000000000000000 0.00000000000000000  

4.71238898038468967 9
6.28318530717958623 9

0.00000000000000000 2
1.00000000000000000 2

1 -31.99999999999994316 -2.00000000000000000 0.00000000000000000 0.00000000000000000 1.00000000000000000 0.00000000000000000 1.00000000000000000 0.00000000000000000 0.00000000000000000 0.00000000000000000 0.00000000000000000 -1.00000000000000000 
1 -35.99999999999994316 -25.00000000000000000 0.00000000000000000 -1.00000000000000000 0.00000000000000000 0.00000000000000000 0.00000000000000000 1.00000000000000000 0.00000000000000000 0.00000000000000000 0.00000000000000000 -1.00000000000000000 
1 -33.99999999999994316 -25.00000000000000000 84.00000000000000000 0.00000000000000000 0.00000000000000000 1.00000000000000000 0.00000000000000000 -1.00000000000000000 0.00000000000000000 1.00000000000000000 0.00000000000000000 -0.00000000000000000 
1 -33.99999999999994316 -25.00000000000000000 0.00000000000000000 0.00000000000000000 0.00000000000000000 -1.00000000000000000 0.00000000000000000 1.00000000000000000 0.00000000000000000 1.00000000000000000 -0.00000000000000000 0.00000000000000000 
2 -31.99999999999994316 -4.00000000000000000 0.00000000000000000 0.00000000000000000 0.00000000000000000 -1.00000000000000000 0.00000000000000022 1.00000000000000000 0.00000000000000000 1.00000000000000000 -0.00000000000000022 0.00000000000000000 2.00000000000000000
1 -33.99999999999994316 -25.00000000000000000 0.00000000000000000 0.00000000000000000 -1.00000000000000000 0.00000000000000000 -0.00000000000000000 -0.00000000000000000 -1.00000000000000000 1.00000000000000000 0.00000000000000000 -0.00000000000000000 
1 -33.99999999999994316 -25.00000000000000000 0.00000000000000000 -1.00000000000000000 0.00000000000000000 0.00000000000000000 0.00000000000000000 1.00000000000000000 0.00000000000000000 0.00000000000000000 0.00000000000000000 -1.00000000000000000 
Triangulations 0

TShapes 104
Ve
0.001000000000000
35.999999999999943 -4.000000000000000 0.000000000000000
0 0

0101101
*
Ed
 0.001000000000000 1 1 0
1  1 0 0.000000000000000 84.000000000000000
2  1 2 0 0.000000000000000 84.000000000000000
4 G1 1 0 2 0
2  2 3 0 0.000000000000000 84.000000000000000
2  3 4 0 0.000000000000000 84.000000000000000
2  4 1 0 0.000000000000000 84.000000000000000
0

0101000
+104 0 -104 2 *
Ve
0.001000000000000
35.999999999999943 -25.000000000000000 0.000000000000000
0 0

0101101
*
Ed
 0.001000000000000 1 1 0
1  2 0 0.000000000000000 84.000000000000000
2  5 1 0 0.000000000000000 84.000000000000000
0

0101000
+102 0 -102 2 *
Ed
 0.001000000000000 1 1 0
2  6 5 0 4.000000000000000 25.000000000000000
1  3 0 4.000000000000000 25.000000000000000
2  7 6 3 4.000000000000000 25.000000000000000
2  8 7 0 4.000000000000000 25.000000000000000
2  9 1 0 4.000000000000000 25.000000000000000
2  10 1 3 4.000000000000000 25.000000000000000
0

0101000
+104 0 -102 0 *
Wi

0101100
+103 0 -101 0 -100 0 +100 2 *
Fa
0  0.001000000000000 1 0

0111000
+99 0 *
Ve
0.001000000000000
31.999999999999943 0.000000000000000 0.000000000000000
0 0

0101101
*
Ed
 0.001000000000000 1 1 0
1  4 0 0.000000000000000 84.000000000000000
2  11 2 0 0.000000000000000 84.000000000000000
4 G1 2 0 8 0
2  12 9 0 0.000000000000000 84.000000000000000
2  13 10 0 0.000000000000000 84.000000000000000
2  14 8 0 0.000000000000000 84.000000000000000
0

0101000
+97 0 -97 2 *
Ed
 0.000000100000000 1 1 0
2  15 11 0 0.000000000000000 1.570796326794897
1  5 0 0.000000000000000 1.570796326794897
2  16 2 0 0.000000000000000 1.570796326794897
2  17 2 3 0.000000000000000 1.570796326794897
2  18 12 3 0.000000000000000 1.570796326794897
2  19 13 0 0.000000000000000 1.570796326794897
0

0101000
+97 0 -104 0 *
Wi

0101100
+96 0 -103 0 -95 0 +95 2 *
Fa
0  0.000000100000000 2 0

0111000
+94 0 *
Ve
0.001000000000000
33.999999999999943 -25.000000000000000 84.000000000000000
0 0

0101101
*
Ed
 0.000000100000000 1 1 0
1  6 0 0.000000000000000 1.000000000000000
4 C0 14 0 6 0
2  20 6 0 0.000000000000000 1.000000000000000
0

0101000
+102 2 -92 0 *
Ve
0.001000000000000
33.999999999999943 -25.000000000000000 0.000000000000000
0 0

0101101
*
Ed
 0.001000000000000 1 1 0
2  21 15 0 0.000000000000000 84.000000000000000
1  7 0 0.000000000000000 84.000000000000000
0

0101000
+90 0 -92 0 *
Ed
 0.000000100000000 1 1 0
1  8 0 0.000000000000000 1.000000000000000
4 C0 14 0 7 0
2  22 7 0 0.000000000000000 1.000000000000000
0

0101000
+102 0 -90 0 *
Wi

0101000
+101 0 +91 0 -89 0 -88 0 *
Fa
0  0.000000100000000 14 0

0111000
+87 0 *
Ve
0.001000000000000
33.999999999999943 -4.000000000000000 0.000000000000000
0 0

0101101
*
Ed
 0.001000000000000 1 1 0
2  23 15 0 4.000000000000000 25.000000000000000
1  9 0 4.000000000000000 25.000000000000000
2  24 7 0 4.000000000000000 25.000000000000000
0

0101000
+85 0 -90 0 *
Ed
 0.000000100000000 1 1 0
1  10 0 0.000000000000000 1.000000000000000
4 C0 4 0 7 0
2  25 4 0 0.000000000000000 1.000000000000000
2  26 7 0 0.000000000000000 1.000000000000000
2  27 13 0 0.000000000000000 1.000000000000000
0

0101000
+104 0 -85 0 *
Wi

0101100
+100 0 +88 0 -84 0 -83 0 *
Fa
0  0.000000100000000 7 0

0111000
+82 0 *
Ve
0.001000000000000
33.999999999999943 -4.000000000000000 84.000000000000000
0 0

0101101
*
Ed
 0.000000100000000 1 1 0
1  11 0 0.000000000000000 1.000000000000000
4 C0 6 0 4 0
2  28 6 0 0.000000000000000 1.000000000000000
2  29 4 0 0.000000000000000 1.000000000000000
2  30 12 0 0.000000000000000 1.000000000000000
0

0101000
+104 2 -80 0 *
Ed
 0.001000000000000 1 1 0
2  31 15 0 4.000000000000000 25.000000000000000
1  12 0 4.000000000000000 25.000000000000000
2  32 6 0 4.000000000000000 25.000000000000000
0

0101000
+80 0 -92 0 *
Wi

0101100
-100 2 +79 0 +78 0 -91 0 *
Fa
0  0.000000100000000 6 0

0111000
+77 0 *
Ve
0.001000000000000
-31.999999999999943 0.000000000000000 0.000000000000000
0 0

0101101
*
Ed
 0.001000000000000 1 1 0
1  13 0 0.000000000000000 84.000000000000000
2  33 16 0 0.000000000000000 84.000000000000000
4 G1 8 0 16 0
2  34 17 0 0.000000000000000 84.000000000000000
2  35 18 0 0.000000000000000 84.000000000000000
2  36 8 0 0.000000000000000 84.000000000000000
0

0101000
+75 0 -75 2 *
Ed
 0.001000000000000 1 1 0
2  37 19 0 4.000000000000000 67.999999999999886
1  14 0 4.000000000000000 67.999999999999886
2  38 20 3 4.000000000000000 67.999999999999886
2  39 21 0 4.000000000000000 67.999999999999886
2  40 8 0 4.000000000000000 67.999999999999886
2  41 8 3 4.000000000000000 67.999999999999886
0

0101000
+75 0 -97 0 *
Wi

0101100
+74 0 -96 0 -73 0 +73 2 *
Fa
0  0.001000000000000 8 0

0111000
+72 0 *
Ve
0.001000000000000
31.999999999999943 -2.000000000000000 0.000000000000000
0 0

0101101
*
Ed
 0.000000100000000 1 1 0
2  16 22 0 0.000000000000000 1.570796326794897
1  15 0 0.000000000000000 1.570796326794897
2  42 13 0 0.000000000000000 1.570796326794897
0

0101000
+70 0 -85 0 *
Ed
 0.000000100000000 1 1 0
1  16 0 0.000000000000000 1.000000000000000
2  43 13 0 0.000000000000000 1.000000000000000
4 C0 10 0 13 0
2  44 10 0 0.000000000000000 1.000000000000000
0

0101000
+97 0 -70 0 *
Wi

0101100
+95 0 +83 0 -69 0 -68 0 *
Fa
0  0.000000100000000 13 0

0111000
+67 0 *
Ve
0.001000000000000
31.999999999999943 -2.000000000000000 84.000000000000000
0 0

0101101
*
Ed
 0.000000100000004 1 1 0
1  17 0 0.000000000000000 1.000000000000000
2  45 12 0 0.000000000000000 1.000000000000000
4 C0 12 0 10 0
2  46 10 0 0.000000000000000 1.000000000000000
0

0101000
+97 2 -65 0 *
Ed
 0.000000100000000 1 1 0
2  17 22 0 0.000000000000000 1.570796326794897
1  18 0 0.000000000000000 1.570796326794897
2  47 12 0 0.000000000000000 1.570796326794897
0

0101000
+65 0 -80 0 *
Wi

0101100
-95 2 +64 0 +63 0 -79 0 *
Fa
0  0.000000100000000 12 0

0111000
+62 0 *
Ed
 0.001000000000000 1 1 0
2  48 15 0 0.000000000000000 84.000000000000000
1  19 0 0.000000000000000 84.000000000000000
2  49 4 0 0.000000000000000 84.000000000000000
2  50 22 0 0.000000000000000 84.000000000000000
0

0101000
+85 0 -80 0 *
Wi

0101100
+60 0 -89 0 -84 0 +78 0 *
Fa
0  0.001000000000000 15 0

0111000
+59 0 *
Ve
0.001000000000000
-35.999999999999943 -4.000000000000000 0.000000000000000
0 0

0101101
*
Ed
 0.001000000000000 1 1 0
1  20 0 0.000000000000000 84.000000000000000
2  51 16 0 0.000000000000000 84.000000000000000
4 G1 16 0 23 0
2  52 24 0 0.000000000000000 84.000000000000000
2  53 25 0 0.000000000000000 84.000000000000000
2  54 23 0 0.000000000000000 84.000000000000000
0

0101000
+57 0 -57 2 *
Ed
 0.000000100000000 1 1 0
2  55 26 0 4.712388980384690 6.283185307179586
1  21 0 4.712388980384690 6.283185307179586
2  56 16 0 4.712388980384690 6.283185307179586
2  57 16 3 4.712388980384690 6.283185307179586
2  58 27 3 4.712388980384690 6.283185307179586
2  59 28 0 4.712388980384690 6.283185307179586
0

0101000
+57 0 -75 0 *
Wi

0101100
+56 0 -74 0 -55 0 +55 2 *
Fa
0  0.000000100000000 16 0

0111000
+54 0 *
Ve
0.001000000000000
-31.999999999999943 -2.000000000000000 0.000000000000000
0 0

0101101
*
Ed
 0.001000000000000 1 1 0
2  60 29 0 4.000000000000000 67.999999999999886
1  22 0 4.000000000000000 67.999999999999886
2  61 21 0 4.000000000000000 67.999999999999886
0

0101000
+52 0 -70 0 *
Ed
 0.000000100000000 1 1 0
1  23 0 0.000000000000000 1.000000000000000
4 C0 18 0 21 0
2  62 21 0 0.000000000000000 1.000000000000000
2  63 18 0 0.000000000000000 1.000000000000000
2  64 28 0 0.000000000000000 1.000000000000000
0

0101000
+75 0 -52 0 *
Wi

0101100
+73 0 +68 0 -51 0 -50 0 *
Fa
0  0.000000100000000 21 0

0111000
+49 0 *
Ve
0.001000000000000
-31.999999999999943 -2.000000000000000 84.000000000000000
0 0

0101101
*
Ed
 0.000000100000000 1 1 0
1  24 0 0.000000000000000 1.000000000000000
4 C0 20 0 18 0
2  65 20 0 0.000000000000000 1.000000000000000
2  66 18 0 0.000000000000000 1.000000000000000
2  67 27 0 0.000000000000000 1.000000000000000
0

0101000
+75 2 -47 0 *
Ed
 0.001000000000000 1 1 0
2  68 29 0 4.000000000000000 67.999999999999886
1  25 0 4.000000000000000 67.999999999999886
2  69 20 0 4.000000000000000 67.999999999999886
0

0101000
+47 0 -65 0 *
Wi

0101100
-73 2 +46 0 +45 0 -64 0 *
Fa
0  0.000000100000000 20 0

0111000
+44 0 *
Ed
 0.001000000000000 1 1 0
2  11 22 0 0.000000000000000 84.000000000000000
1  26 0 0.000000000000000 84.000000000000000
2  70 10 0 0.000000000000000 84.000000000000000
0

0101000
+70 0 -65 0 *
Wi

0101100
+42 0 -60 0 -69 0 +63 0 *
Fa
0  0.000000100000000 22 0

0111000
+41 0 *
Ve
0.001000000000000
-35.999999999999943 -25.000000000000000 0.000000000000000
0 0

0101101
*
Ed
 0.001000000000000 1 1 0
1  27 0 0.000000000000000 84.000000000000000
2  71 23 0 0.000000000000000 84.000000000000000
0

0101000
+39 0 -39 2 *
Ed
 0.001000000000000 1 1 0
2  72 30 0 0.000000000000000 21.000000000000000
1  28 0 0.000000000000000 21.000000000000000
2  73 31 3 0.000000000000000 21.000000000000000
2  74 32 0 0.000000000000000 21.000000000000000
2  75 23 0 0.000000000000000 21.000000000000000
2  76 23 3 0.000000000000000 21.000000000000000
0

0101000
+39 0 -57 0 *
Wi

0101100
+38 0 -56 0 -37 0 +37 2 *
Fa
0  0.001000000000000 23 0

0111000
+36 0 *
Ve
0.001000000000000
-33.999999999999943 -4.000000000000000 0.000000000000000
0 0

0101101
*
Ed
 0.000000100000000 1 1 0
2  56 33 0 4.712388980384690 6.283185307179586
1  29 0 4.712388980384690 6.283185307179586
2  77 28 0 4.712388980384690 6.283185307179586
0

0101000
+34 0 -52 0 *
Ed
 0.000000100000000 1 1 0
1  30 0 0.000000000000000 1.000000000000000
2  78 28 0 0.000000000000000 1.000000000000000
4 C0 25 0 28 0
2  79 25 0 0.000000000000000 1.000000000000000
0

0101000
+57 0 -34 0 *
Wi

0101100
+55 0 +50 0 -33 0 -32 0 *
Fa
0  0.000000100000000 28 0

0111000
+31 0 *
Ve
0.001000000000000
-33.999999999999943 -4.000000000000000 84.000000000000000
0 0

0101101
*
Ed
 0.000000100000002 1 1 0
1  31 0 0.000000000000000 1.000000000000000
2  80 27 0 0.000000000000000 1.000000000000000
4 C0 27 0 25 0
2  81 25 0 0.000000000000000 1.000000000000000
0

0101000
+57 2 -29 0 *
Ed
 0.000000100000000 1 1 0
2  57 33 0 4.712388980384690 6.283185307179586
1  32 0 4.712388980384690 6.283185307179586
2  82 27 0 4.712388980384690 6.283185307179586
0

0101000
+29 0 -47 0 *
Wi

0101100
-55 2 +28 0 +27 0 -46 0 *
Fa
0  0.000000100000000 27 0

0111000
+26 0 *
Ed
 0.001000000000000 1 1 0
2  83 29 0 0.000000000000000 84.000000000000000
1  33 0 0.000000000000000 84.000000000000000
2  84 18 0 0.000000000000000 84.000000000000000
2  85 33 0 0.000000000000000 84.000000000000000
0

0101000
+52 0 -47 0 *
Wi

0101100
+24 0 -42 0 -51 0 +45 0 *
Fa
0  0.001000000000000 29 0

0111000
+23 0 *
Ve
0.001000000000000
-33.999999999999943 -25.000000000000000 0.000000000000000
0 0

0101101
*
Ed
 0.000000100000000 1 1 0
1  34 0 0.000000000000000 1.000000000000000
4 C0 34 0 32 0
2  86 32 0 0.000000000000000 1.000000000000000
0

0101000
+39 0 -21 0 *
Ve
0.001000000000000
-33.999999999999943 -25.000000000000000 84.000000000000000
0 0

0101101
*
Ed
 0.001000000000000 1 1 0
2  87 35 0 0.000000000000000 84.000000000000000
1  35 0 0.000000000000000 84.000000000000000
0

0101000
+21 0 -19 0 *
Ed
 0.000000100000000 1 1 0
1  36 0 0.000000000000000 1.000000000000000
4 C0 31 0 34 0
2  88 31 0 0.000000000000000 1.000000000000000
0

0101000
+39 2 -19 0 *
Wi

0101000
-38 0 +20 0 +18 0 -17 0 *
Fa
0  0.000000100000000 34 0

0111000
+16 0 *
Ed
 0.001000000000000 1 1 0
2  89 35 0 0.000000000000000 21.000000000000000
1  37 0 0.000000000000000 21.000000000000000
2  90 32 0 0.000000000000000 21.000000000000000
0

0101000
+21 0 -34 0 *
Wi

0101100
+37 0 +32 0 -14 0 -20 0 *
Fa
0  0.000000100000000 32 0

0111000
+13 0 *
Ed
 0.001000000000000 1 1 0
2  91 35 0 0.000000000000000 21.000000000000000
1  38 0 0.000000000000000 21.000000000000000
2  92 31 0 0.000000000000000 21.000000000000000
0

0101000
+19 0 -29 0 *
Wi

0101100
-37 2 +17 0 +11 0 -28 0 *
Fa
0  0.000000100000000 31 0

0111000
+10 0 *
Ed
 0.001000000000000 1 1 0
2  51 33 0 0.000000000000000 84.000000000000000
1  39 0 0.000000000000000 84.000000000000000
2  93 25 0 0.000000000000000 84.000000000000000
0

0101000
+34 0 -29 0 *
Wi

0101100
+8 0 -24 0 -33 0 +27 0 *
Fa
0  0.000000100000000 33 0

0111000
+7 0 *
Wi

0101100
+18 0 -8 0 -14 0 +11 0 *
Fa
0  0.001000000000000 35 0

0111000
+5 0 *
Sh

0101100
+98 0 +93 0 +86 0 +81 0 +76 0 +71 0 +66 0 +61 0 -58 0 +53 0 
+48 0 +43 0 -40 0 +35 0 +30 0 +25 0 -22 0 +15 0 +12 0 +9 0 
-6 0 -4 0 *
So

0100000
+3 0 *
Co

1100000
+2 0 *

+1 1 