
CASCADE Topology V1, (c) Matra-Datavision
Locations 65
1
-1.000000000000000 0.000000000000000 0.000000000000000 0.000000000000000 
0.000000000000000 -1.000000000000000 0.000000000000000 0.000000000000000 
0.000000000000000 0.000000000000000 1.000000000000000 0.000000000000000 
1
0.000000000000000 0.000000000000000 -1.000000000000000 -41.299999999999415 
0.000000000000000 1.000000000000000 0.000000000000000 0.000000000000000 
1.000000000000000 0.000000000000000 0.000000000000000 41.099999999999419 
1
1.000000000000000 0.000000000000000 0.000000000000000 0.000000000000000 
0.000000000000000 1.000000000000000 0.000000000000000 0.000000000000000 
0.000000000000000 0.000000000000000 1.000000000000000 0.000000000000000 
1
1.000000000000000 0.000000000000000 0.000000000000000 0.000000000000000 
0.000000000000000 1.000000000000000 0.000000000000000 0.000000000000000 
0.000000000000000 0.000000000000000 1.000000000000000 0.000000000000000 
1
1.000000000000000 0.000000000000000 0.000000000000000 0.000000000000000 
0.000000000000000 1.000000000000000 0.000000000000000 0.000000000000000 
0.000000000000000 0.000000000000000 1.000000000000000 0.000000000000000 
1
0.000000000000000 0.000000000000000 1.000000000000000 -41.099999999999419 
0.000000000000000 1.000000000000000 0.000000000000000 0.000000000000000 
-1.000000000000000 0.000000000000000 0.000000000000000 -41.299999999999422 
1
1.000000000000000 0.000000000000000 0.000000000000000 -0.298451302091030 
0.000000000000000 1.000000000000000 0.000000000000000 -0.000000000000000 
0.000000000000000 0.000000000000000 1.000000000000000 0.000000000000000 
2  2 1 3 1 4 -1 5 1 6 1 7 1 0
2  7 -1 6 -1 5 -1 4 1 3 -1 2 -1 0
1
0.000000000000000 0.000000000000000 1.000000000000000 -41.099999999999419 
0.000000000000000 1.000000000000000 0.000000000000000 0.000000000000000 
-1.000000000000000 0.000000000000000 0.000000000000000 -41.299999999999422 
1
1.000000000000000 0.000000000000000 0.000000000000000 -0.298451302091030 
0.000000000000000 1.000000000000000 0.000000000000000 -0.000000000000000 
0.000000000000000 0.000000000000000 1.000000000000000 0.000000000000000 
2  2 1 3 1 4 -1 5 1 10 1 11 1 0
1
0.000000000000000 0.000000000000000 1.000000000000000 -41.099999999999419 
0.000000000000000 1.000000000000000 0.000000000000000 0.000000000000000 
-1.000000000000000 0.000000000000000 0.000000000000000 -41.299999999999422 
1
1.000000000000000 0.000000000000000 0.000000000000000 -0.298451302091030 
0.000000000000000 1.000000000000000 0.000000000000000 -0.000000000000000 
0.000000000000000 0.000000000000000 1.000000000000000 0.000000000000000 
2  2 1 3 1 4 -1 5 1 13 1 14 1 0
1
0.000000000000000 0.000000000000000 1.000000000000000 -41.099999999999419 
0.000000000000000 1.000000000000000 0.000000000000000 0.000000000000000 
-1.000000000000000 0.000000000000000 0.000000000000000 -41.299999999999422 
1
1.000000000000000 0.000000000000000 0.000000000000000 -0.298451302091030 
0.000000000000000 1.000000000000000 0.000000000000000 -0.000000000000000 
0.000000000000000 0.000000000000000 1.000000000000000 0.000000000000000 
2  2 1 3 1 4 -1 5 1 16 1 17 1 0
1
1.000000000000000 0.000000000000000 0.000000000000000 0.000000000000000 
0.000000000000000 1.000000000000000 0.000000000000000 0.000000000000000 
0.000000000000000 0.000000000000000 1.000000000000000 -0.300000000000000 
1
0.000000000000000 0.000000000000000 1.000000000000000 -41.099999999999419 
0.000000000000000 1.000000000000000 0.000000000000000 0.000000000000000 
-1.000000000000000 0.000000000000000 0.000000000000000 -41.299999999999422 
1
1.000000000000000 0.000000000000000 0.000000000000000 -0.298451302091030 
0.000000000000000 1.000000000000000 0.000000000000000 -0.000000000000000 
0.000000000000000 0.000000000000000 1.000000000000000 0.000000000000000 
2  19 1 2 1 3 1 4 -1 5 1 20 1 21 1 0
1
0.000000000000000 0.000000000000000 1.000000000000000 41.299999999999415 
0.000000000000000 1.000000000000000 0.000000000000000 0.000000000000000 
-1.000000000000000 0.000000000000000 0.000000000000000 41.099999999999419 
1
0.000000000000000 0.000000000000000 -1.000000000000000 41.099999999999419 
0.000000000000000 1.000000000000000 0.000000000000000 0.000000000000000 
1.000000000000000 0.000000000000000 0.000000000000000 -41.299999999999422 
1
1.000000000000000 0.000000000000000 0.000000000000000 0.298451302091030 
0.000000000000000 1.000000000000000 0.000000000000000 -0.000000000000000 
0.000000000000000 0.000000000000000 1.000000000000000 -0.000000000000000 
2  23 1 3 1 4 -1 5 1 24 1 25 1 0
1
0.000000000000000 0.000000000000000 -1.000000000000000 41.099999999999419 
0.000000000000000 1.000000000000000 0.000000000000000 0.000000000000000 
1.000000000000000 0.000000000000000 0.000000000000000 -41.299999999999422 
1
1.000000000000000 0.000000000000000 0.000000000000000 0.298451302091030 
0.000000000000000 1.000000000000000 0.000000000000000 -0.000000000000000 
0.000000000000000 0.000000000000000 1.000000000000000 -0.000000000000000 
2  23 1 3 1 4 -1 5 1 27 1 28 1 0
1
1.000000000000000 0.000000000000000 0.000000000000000 0.000000000000000 
0.000000000000000 1.000000000000000 0.000000000000000 0.000000000000000 
0.000000000000000 0.000000000000000 1.000000000000000 0.000000000000000 
1
1.000000000000000 0.000000000000000 0.000000000000000 0.000000000000000 
0.000000000000000 1.000000000000000 0.000000000000000 0.000000000000000 
0.000000000000000 0.000000000000000 1.000000000000000 0.300000000000000 
1
1.000000000000000 0.000000000000000 0.000000000000000 0.000000000000000 
0.000000000000000 1.000000000000000 0.000000000000000 0.000000000000000 
0.000000000000000 0.000000000000000 1.000000000000000 0.000000000000000 
2  30 -1 31 1 32 1 3 1 4 -1 5 1 0
2  32 1 3 1 4 -1 5 1 0
1
1.000000000000000 0.000000000000000 0.000000000000000 -22.299999999999713 
0.000000000000000 1.000000000000000 0.000000000000000 125.580297890654023 
0.000000000000000 0.000000000000000 1.000000000000000 -37.100000000000001 
2  35 1 5 1 0
1
1.000000000000000 0.000000000000000 0.000000000000000 22.299999999999713 
0.000000000000000 1.000000000000000 0.000000000000000 125.580297890652631 
0.000000000000000 0.000000000000000 1.000000000000000 -37.100000000000001 
2  37 1 5 1 0
1
1.000000000000000 0.000000000000000 0.000000000000000 -14.866666666660789 
0.000000000000000 1.000000000000000 0.000000000000000 155.621756897464962 
0.000000000000000 0.000000000000000 1.000000000000000 -37.100000000000001 
2  39 1 5 1 0
1
1.000000000000000 0.000000000000000 0.000000000000000 0.000000000000066 
0.000000000000000 1.000000000000000 0.000000000000000 129.871934891629593 
0.000000000000000 0.000000000000000 1.000000000000000 -37.100000000000001 
2  41 1 5 1 0
1
1.000000000000000 0.000000000000000 0.000000000000000 14.866666666660791 
0.000000000000000 1.000000000000000 0.000000000000000 155.621756897465701 
0.000000000000000 0.000000000000000 1.000000000000000 -37.100000000000001 
2  43 1 5 1 0
2  28 -1 27 -1 5 -1 4 1 3 -1 23 -1 0
1
0.000000000000000 0.000000000000000 -1.000000000000000 41.099999999999419 
0.000000000000000 1.000000000000000 0.000000000000000 0.000000000000000 
1.000000000000000 0.000000000000000 0.000000000000000 -41.299999999999422 
1
1.000000000000000 0.000000000000000 0.000000000000000 0.298451302091030 
0.000000000000000 1.000000000000000 0.000000000000000 -0.000000000000000 
0.000000000000000 0.000000000000000 1.000000000000000 -0.000000000000000 
2  23 1 3 1 4 -1 5 1 46 1 47 1 0
1
0.000000000000000 0.000000000000000 -1.000000000000000 41.099999999999419 
0.000000000000000 1.000000000000000 0.000000000000000 0.000000000000000 
1.000000000000000 0.000000000000000 0.000000000000000 -41.299999999999422 
1
1.000000000000000 0.000000000000000 0.000000000000000 0.298451302091030 
0.000000000000000 1.000000000000000 0.000000000000000 -0.000000000000000 
0.000000000000000 0.000000000000000 1.000000000000000 -0.000000000000000 
2  23 1 3 1 4 -1 5 1 49 1 50 1 0
1
1.000000000000000 0.000000000000000 0.000000000000000 0.000000000000000 
0.000000000000000 1.000000000000000 0.000000000000000 0.000000000000000 
0.000000000000000 0.000000000000000 1.000000000000000 -0.300000000000000 
1
0.000000000000000 0.000000000000000 -1.000000000000000 41.099999999999419 
0.000000000000000 1.000000000000000 0.000000000000000 0.000000000000000 
1.000000000000000 0.000000000000000 0.000000000000000 -41.299999999999422 
1
1.000000000000000 0.000000000000000 0.000000000000000 0.298451302091030 
0.000000000000000 1.000000000000000 0.000000000000000 -0.000000000000000 
0.000000000000000 0.000000000000000 1.000000000000000 -0.000000000000000 
2  52 1 23 1 3 1 4 -1 5 1 53 1 54 1 0
2  3 1 4 -1 5 1 0
2  5 -1 4 1 3 -1 0
2  30 -1 32 1 3 1 4 -1 5 1 0
2  5 -1 4 1 3 -1 32 -1 0
2  5 -1 0
2  5 -1 35 -1 0
2  5 -1 37 -1 0
2  5 -1 39 -1 0
2  5 -1 41 -1 0
2  5 -1 43 -1 0
Curve2ds 78
1 31.00000000000000000 0.00000000000000000 0.00000000000000000 -1.00000000000000000 
1 0.00000000000000000 0.00000000000000000 0.00000000000000000 -1.00000000000000000 
1 32.04145900681201908 0.00000000000000000 0.00000000000000000 -1.00000000000000000 
1 0.00000000000000000 0.00000000000000000 0.00000000000000000 -1.00000000000000000 
1 -15.49999999999999289 16.02072950340598823 0.00000000000000000 -1.00000000000000000 
1 0.00000000000000000 0.00000000000000000 1.00000000000000000 0.00000000000000000 
1 -15.49999999999999289 16.02072950340598823 0.00000000000000000 -1.00000000000000000 
1 0.00000000000000000 -0.29999999999999999 1.00000000000000000 0.00000000000000000 
1 15.49999999999999289 -16.02072950340603086 0.00000000000000000 1.00000000000000000 
1 0.00000000000000000 0.00000000000000000 1.00000000000000000 0.00000000000000000 
1 41.19999999999942730 13.84642415414526795 -0.95437833286106810 0.29860006323731497 
1 0.00000000000000000 -0.29999999999999999 1.00000000000000000 0.00000000000000000 
2 14.86666666666079450 16.84642415414631955 1.00000000000000000 0.00000000000000000 -0.00000000000000000 1.00000000000000000 5.00000000000000000
1 0.00000000000000000 -0.29999999999999999 1.00000000000000000 0.00000000000000000 
1 14.86666666666079450 21.84642415414631955 -1.00000000000000000 0.00000000000000000 
1 0.00000000000000000 -0.29999999999999999 1.00000000000000000 0.00000000000000000 
2 -14.86666666666071457 16.84642415414631955 1.00000000000000000 0.00000000000000000 -0.00000000000000000 1.00000000000000000 5.00000000000000000
1 0.00000000000000000 -0.29999999999999999 1.00000000000000000 0.00000000000000000 
1 -16.35966698284722654 21.61831581845169126 -0.95437833286106821 -0.29860006323731458 
1 0.00000000000000000 -0.29999999999999999 1.00000000000000000 0.00000000000000000 
2 -22.29999999999970939 -13.19503485266535847 -1.00000000000000000 0.00000000000000000 -0.00000000000000000 -1.00000000000000000 1.69999999999999996
1 6.28318530717958623 37.39999999999999858 -1.00000000000000000 0.00000000000000000 
2 22.29999999999971649 -13.19503485266675114 -1.00000000000000000 0.00000000000000000 -0.00000000000000000 -1.00000000000000000 1.69999999999999996
1 6.28318530717958623 37.39999999999999858 -1.00000000000000000 0.00000000000000000 
2 -14.86666666666078562 16.84642415414558059 -1.00000000000000000 0.00000000000000000 -0.00000000000000000 -1.00000000000000000 1.69999999999999996
1 6.28318530717958623 37.39999999999999858 -1.00000000000000000 0.00000000000000000 
2 0.00000000000006983 -8.90339785168978892 -1.00000000000000000 0.00000000000000000 -0.00000000000000000 -1.00000000000000000 1.69999999999999996
1 6.28318530717958623 37.39999999999999858 -1.00000000000000000 0.00000000000000000 
2 14.86666666666079450 16.84642415414631955 -1.00000000000000000 0.00000000000000000 -0.00000000000000000 -1.00000000000000000 1.69999999999999996
1 6.28318530717958623 37.39999999999999858 -1.00000000000000000 0.00000000000000000 
1 31.00000000000000000 0.00000000000000000 0.00000000000000000 -1.00000000000000000 
1 0.00000000000000000 0.00000000000000000 0.00000000000000000 -1.00000000000000000 
1 32.04145900681201908 0.00000000000000000 0.00000000000000000 -1.00000000000000000 
1 0.00000000000000000 0.00000000000000000 0.00000000000000000 -1.00000000000000000 
1 15.49999999999999289 -16.02072950340603086 0.00000000000000000 1.00000000000000000 
1 0.00000000000000000 -0.29999999999999999 1.00000000000000000 0.00000000000000000 
1 0.14922565104552632 0.14999999999999927 0.00000000000000000 1.00000000000000000 
8 -0.29999999999999999 -0.00000000000000000
1 0.00000000000000000 0.00000000000000000 -0.00000000000000000 1.00000000000000000 
1 26.02776295505878323 0.00000000000000000 0.00000000000000000 -1.00000000000000000 
1 1.26757086729656221 0.00000000000000000 0.00000000000000000 -1.00000000000000000 
1 41.19999999999942730 13.84642415414526795 -0.95437833286106810 0.29860006323731497 
1 0.00000000000000000 0.00000000000000000 1.00000000000000000 0.00000000000000000 
1 1.57079632679489656 0.00000000000000000 0.00000000000000000 -1.00000000000000000 
1 0.00000000000000000 -0.00000000000000000 0.00000000000000000 -1.00000000000000000 
2 14.86666666666079450 16.84642415414631955 1.00000000000000000 0.00000000000000000 -0.00000000000000000 1.00000000000000000 5.00000000000000000
1 0.00000000000000000 0.00000000000000000 1.00000000000000000 0.00000000000000000 
1 1.57079632679489656 0.00000000000000000 0.00000000000000000 -1.00000000000000000 
1 29.73333333332151085 0.00000000000000000 0.00000000000000000 -1.00000000000000000 
1 14.86666666666079450 21.84642415414631955 -1.00000000000000000 0.00000000000000000 
1 0.00000000000000000 -0.00000000000000000 1.00000000000000000 0.00000000000000000 
1 0.00000000000000000 0.00000000000000000 0.00000000000000000 -1.00000000000000000 
1 1.87402178629321936 0.00000000000000000 0.00000000000000000 -1.00000000000000000 
1 -0.14922565104552632 0.14999999999999933 0.00000000000000000 -1.00000000000000000 
1 26.02776295505891113 0.00000000000000000 0.00000000000000000 -1.00000000000000000 
1 -16.35966698284722654 21.61831581845169126 -0.95437833286106821 -0.29860006323731458 
1 0.00000000000000000 0.00000000000000000 1.00000000000000000 0.00000000000000000 
2 -14.86666666666071457 16.84642415414631955 1.00000000000000000 0.00000000000000000 -0.00000000000000000 1.00000000000000000 5.00000000000000000
1 0.00000000000000000 0.00000000000000000 1.00000000000000000 0.00000000000000000 
2 -22.29999999999970939 -13.19503485266535847 -1.00000000000000000 0.00000000000000000 -0.00000000000000000 -1.00000000000000000 1.69999999999999996
1 6.28318530717958623 37.10000000000000142 -1.00000000000000000 0.00000000000000000 
1 6.28318530717958623 0.00000000000000000 0.00000000000000000 1.00000000000000000 
1 0.00000000000000000 0.00000000000000000 0.00000000000000000 1.00000000000000000 
2 22.29999999999971649 -13.19503485266675114 -1.00000000000000000 0.00000000000000000 -0.00000000000000000 -1.00000000000000000 1.69999999999999996
1 6.28318530717958623 37.10000000000000142 -1.00000000000000000 0.00000000000000000 
1 6.28318530717958623 0.00000000000000000 0.00000000000000000 1.00000000000000000 
1 0.00000000000000000 0.00000000000000000 0.00000000000000000 1.00000000000000000 
2 -14.86666666666078562 16.84642415414558059 -1.00000000000000000 0.00000000000000000 -0.00000000000000000 -1.00000000000000000 1.69999999999999996
1 6.28318530717958623 37.10000000000000142 -1.00000000000000000 0.00000000000000000 
1 6.28318530717958623 0.00000000000000000 0.00000000000000000 1.00000000000000000 
1 0.00000000000000000 0.00000000000000000 0.00000000000000000 1.00000000000000000 
2 0.00000000000006983 -8.90339785168978892 -1.00000000000000000 0.00000000000000000 -0.00000000000000000 -1.00000000000000000 1.69999999999999996
1 6.28318530717958623 37.10000000000000142 -1.00000000000000000 0.00000000000000000 
1 6.28318530717958623 0.00000000000000000 0.00000000000000000 1.00000000000000000 
1 0.00000000000000000 0.00000000000000000 0.00000000000000000 1.00000000000000000 
2 14.86666666666079450 16.84642415414631955 -1.00000000000000000 0.00000000000000000 -0.00000000000000000 -1.00000000000000000 1.69999999999999996
1 6.28318530717958623 37.10000000000000142 -1.00000000000000000 0.00000000000000000 
1 6.28318530717958623 0.00000000000000000 0.00000000000000000 1.00000000000000000 
1 0.00000000000000000 0.00000000000000000 0.00000000000000000 1.00000000000000000 
Curves 45
1 -72.49845130209045863 152.62175689746464968 0.29999999999999999 0.00000000000000000 0.00000000000000000 -1.00000000000000000 
1 -72.49845130209045863 120.58029789065263060 0.29999999999999999 0.00000000000000000 0.00000000000000000 -1.00000000000000000 
1 -72.49845130209045863 152.62175689746464968 0.29999999999999999 0.00000000000000000 -1.00000000000000000 0.00000000000000000 
1 -72.49845130209045863 152.62175689746464968 0.00000000000000000 0.00000000000000000 -1.00000000000000000 0.00000000000000000 
1 -72.49845130209045863 120.58029789065263060 0.29999999999999999 1.00000000000000000 0.00000000000000000 0.00000000000000000 
1 72.49845130209045863 120.58029789065263060 0.29999999999999999 0.00000000000000000 1.00000000000000000 0.00000000000000000 
1 72.49845130209045863 152.62175689746464968 0.29999999999999999 -1.00000000000000000 0.00000000000000000 0.00000000000000000 
1 41.19999999999942020 152.62175689746464968 0.29999999999999999 -0.95437833286106810 0.29860006323731497 0.00000000000000000 
2 14.86666666666079095 155.62175689746570129 0.29999999999999999 0.00000000000000000 0.00000000000000000 1.00000000000000000 1.00000000000000000 0.00000000000000000 -0.00000000000000000 -0.00000000000000000 1.00000000000000000 0.00000000000000000 5.00000000000000000
1 14.86666666666079095 160.62175689746570129 0.29999999999999999 -1.00000000000000000 0.00000000000000000 0.00000000000000000 
2 -14.86666666666071812 155.62175689746570129 0.29999999999999999 0.00000000000000000 0.00000000000000000 1.00000000000000000 1.00000000000000000 0.00000000000000000 -0.00000000000000000 -0.00000000000000000 1.00000000000000000 0.00000000000000000 5.00000000000000000
1 -16.35966698284723009 160.39364856177107299 0.29999999999999999 -0.95437833286106821 -0.29860006323731458 0.00000000000000000 
1 -41.19999999999942020 152.62175689746464968 0.29999999999999999 1.00000000000000000 -0.00000000000000000 0.00000000000000949 
2 -22.29999999999971294 125.58029789065402326 0.29999999999999716 0.00000000000000000 0.00000000000000000 1.00000000000000000 -1.00000000000000000 0.00000000000000000 0.00000000000000000 0.00000000000000000 -1.00000000000000000 0.00000000000000000 1.69999999999999996
2 22.29999999999971294 125.58029789065263060 0.29999999999999716 0.00000000000000000 0.00000000000000000 1.00000000000000000 -1.00000000000000000 0.00000000000000000 0.00000000000000000 0.00000000000000000 -1.00000000000000000 0.00000000000000000 1.69999999999999996
2 -14.86666666666078918 155.62175689746496232 0.29999999999999716 0.00000000000000000 0.00000000000000000 1.00000000000000000 -1.00000000000000000 0.00000000000000000 0.00000000000000000 0.00000000000000000 -1.00000000000000000 0.00000000000000000 1.69999999999999996
2 0.00000000000006590 129.87193489162959281 0.29999999999999716 0.00000000000000000 0.00000000000000000 1.00000000000000000 -1.00000000000000000 0.00000000000000000 0.00000000000000000 0.00000000000000000 -1.00000000000000000 0.00000000000000000 1.69999999999999996
2 14.86666666666079095 155.62175689746570129 0.29999999999999716 0.00000000000000000 0.00000000000000000 1.00000000000000000 -1.00000000000000000 0.00000000000000000 0.00000000000000000 0.00000000000000000 -1.00000000000000000 0.00000000000000000 1.69999999999999996
1 72.49845130209045863 120.58029789065263060 0.29999999999999999 0.00000000000000000 0.00000000000000000 -1.00000000000000000 
1 72.49845130209045863 152.62175689746464968 0.29999999999999999 0.00000000000000000 0.00000000000000000 -1.00000000000000000 
1 72.49845130209045863 120.58029789065263060 0.00000000000000000 0.00000000000000000 1.00000000000000000 0.00000000000000000 
1 41.19999999999942020 152.62175689746464968 0.00000000000000000 -0.00000000000000000 -0.00000000000000000 -1.00000000000000000 
1 16.35966698284735799 160.39364856177104457 0.00000000000000000 0.00000000000000000 0.00000000000000000 1.00000000000000000 
1 41.19999999999942020 152.62175689746464968 0.00000000000000000 -0.95437833286106810 0.29860006323731497 0.00000000000000000 
1 14.86666666666079095 160.62175689746570129 0.00000000000000000 0.00000000000000000 0.00000000000000000 1.00000000000000000 
2 14.86666666666079095 155.62175689746570129 0.00000000000000000 0.00000000000000000 0.00000000000000000 1.00000000000000000 1.00000000000000000 0.00000000000000000 -0.00000000000000000 -0.00000000000000000 1.00000000000000000 0.00000000000000000 5.00000000000000000
1 -14.86666666666071990 160.62175689746570129 0.00000000000000000 0.00000000000000000 0.00000000000000000 1.00000000000000000 
1 14.86666666666079095 160.62175689746570129 0.00000000000000000 -1.00000000000000000 0.00000000000000000 0.00000000000000000 
1 -16.35966698284723009 160.39364856177107299 0.00000000000000000 0.00000000000000000 0.00000000000000000 1.00000000000000000 
1 -41.19999999999942020 152.62175689746464968 0.00000000000000000 0.00000000000000000 0.00000000000000000 1.00000000000000000 
1 -16.35966698284723009 160.39364856177107299 0.00000000000000000 -0.95437833286106821 -0.29860006323731458 0.00000000000000000 
2 -14.86666666666071812 155.62175689746570129 0.00000000000000000 0.00000000000000000 0.00000000000000000 1.00000000000000000 1.00000000000000000 0.00000000000000000 -0.00000000000000000 -0.00000000000000000 1.00000000000000000 0.00000000000000000 5.00000000000000000
2 -22.29999999999971294 125.58029789065402326 0.00000000000000000 0.00000000000000000 0.00000000000000000 1.00000000000000000 -1.00000000000000000 0.00000000000000000 0.00000000000000000 0.00000000000000000 -1.00000000000000000 0.00000000000000000 1.69999999999999996
1 -1.69999999999999996 0.00000000000000000 0.00000000000000000 0.00000000000000006 0.00000000000000000 1.00000000000000000 
2 22.29999999999971294 125.58029789065263060 0.00000000000000000 0.00000000000000000 0.00000000000000000 1.00000000000000000 -1.00000000000000000 0.00000000000000000 0.00000000000000000 0.00000000000000000 -1.00000000000000000 0.00000000000000000 1.69999999999999996
1 -1.69999999999999996 0.00000000000000000 0.00000000000000000 0.00000000000000006 0.00000000000000000 1.00000000000000000 
2 -14.86666666666078918 155.62175689746496232 0.00000000000000000 0.00000000000000000 0.00000000000000000 1.00000000000000000 -1.00000000000000000 0.00000000000000000 0.00000000000000000 0.00000000000000000 -1.00000000000000000 0.00000000000000000 1.69999999999999996
1 -1.69999999999999996 0.00000000000000000 0.00000000000000000 0.00000000000000006 0.00000000000000000 1.00000000000000000 
2 0.00000000000006590 129.87193489162959281 0.00000000000000000 0.00000000000000000 0.00000000000000000 1.00000000000000000 -1.00000000000000000 0.00000000000000000 0.00000000000000000 0.00000000000000000 -1.00000000000000000 0.00000000000000000 1.69999999999999996
1 -1.69999999999999996 0.00000000000000000 0.00000000000000000 0.00000000000000006 0.00000000000000000 1.00000000000000000 
2 14.86666666666079095 155.62175689746570129 0.00000000000000000 0.00000000000000000 0.00000000000000000 1.00000000000000000 -1.00000000000000000 0.00000000000000000 0.00000000000000000 0.00000000000000000 -1.00000000000000000 0.00000000000000000 1.69999999999999996
1 -1.69999999999999996 0.00000000000000000 0.00000000000000000 0.00000000000000006 0.00000000000000000 1.00000000000000000 
1 -41.19999999999942020 152.62175689746464968 0.00000000000000000 -1.00000000000000000 0.00000000000000000 0.00000000000000000 
1 72.49845130209045863 152.62175689746464968 0.00000000000000000 -1.00000000000000000 0.00000000000000000 0.00000000000000000 
1 41.49845130209045863 120.58029789065263060 0.00000000000000000 1.00000000000000000 0.00000000000000000 0.00000000000000000 
Polygon3D 0
PolygonOnTriangulations 0
Surfaces 29
1 -72.19999999999942020 152.62175689746464968 0.29999999999999999 -1.00000000000000000 -0.00000000000000000 -0.00000000000000000 0.00000000000000000 -1.00000000000000000 0.00000000000000000 -0.00000000000000000 0.00000000000000000 1.00000000000000000 
1 -41.19999999999942020 152.62175689746464968 0.29999999999999999 0.00000000000000000 1.00000000000000000 0.00000000000000000 -1.00000000000000000 0.00000000000000000 0.00000000000000000 0.00000000000000000 -0.00000000000000000 1.00000000000000000 
1 -72.19999999999942020 120.58029789065263060 0.29999999999999999 0.00000000000000000 -1.00000000000000000 0.00000000000000000 1.00000000000000000 0.00000000000000000 0.00000000000000000 -0.00000000000000000 0.00000000000000000 1.00000000000000000 
1 -56.69999999999942730 136.60102739405866146 0.29999999999999999 0.00000000000000000 0.00000000000000000 1.00000000000000000 1.00000000000000000 0.00000000000000000 -0.00000000000000000 -0.00000000000000000 1.00000000000000000 0.00000000000000000 
1 -56.69999999999942730 136.60102739405866146 0.29999999999999999 0.00000000000000000 0.00000000000000000 1.00000000000000000 1.00000000000000000 0.00000000000000000 -0.00000000000000000 -0.00000000000000000 1.00000000000000000 0.00000000000000000 
1 0.00000000000000016 138.01176416726238472 0.29999999999999988 -0.00000000000000000 -0.00000000000000000 1.00000000000000000 0.00000000000000000 1.00000000000000000 0.00000000000000000 -1.00000000000000000 0.00000000000000000 0.00000000000000000 
1 56.69999999999942730 136.60102739405866146 0.29999999999999999 0.00000000000000000 0.00000000000000000 1.00000000000000000 1.00000000000000000 0.00000000000000000 -0.00000000000000000 -0.00000000000000000 1.00000000000000000 0.00000000000000000 
1 72.19999999999942020 120.58029789065263060 0.29999999999999999 1.00000000000000000 -0.00000000000000000 0.00000000000000000 0.00000000000000000 1.00000000000000000 0.00000000000000000 -0.00000000000000000 0.00000000000000000 1.00000000000000000 
1 -0.00000000000000393 138.77533274331938173 0.00000000000000000 0.00000000000000000 0.00000000000000000 1.00000000000000000 1.00000000000000000 0.00000000000000000 -0.00000000000000000 -0.00000000000000000 1.00000000000000000 0.00000000000000000 
1 41.19999999999942020 152.62175689746464968 0.00000000000000000 -0.29860006323731497 -0.95437833286106810 0.00000000000000000 -0.95437833286106810 0.29860006323731497 0.00000000000000000 -0.00000000000000000 0.00000000000000000 -1.00000000000000000 
2 14.86666666666079095 155.62175689746570129 0.00000000000000000 -0.00000000000000000 -0.00000000000000000 -1.00000000000000000 1.00000000000000000 0.00000000000000000 0.00000000000000000 -0.00000000000000000 1.00000000000000000 -0.00000000000000000 5.00000000000000000
1 14.86666666666079095 160.62175689746570129 0.00000000000000000 0.00000000000000000 -1.00000000000000000 0.00000000000000000 -1.00000000000000000 0.00000000000000000 0.00000000000000000 -0.00000000000000000 -0.00000000000000000 -1.00000000000000000 
2 -14.86666666666071812 155.62175689746570129 0.00000000000000000 -0.00000000000000000 -0.00000000000000000 -1.00000000000000000 1.00000000000000000 0.00000000000000000 0.00000000000000000 -0.00000000000000000 1.00000000000000000 -0.00000000000000000 5.00000000000000000
1 -16.35966698284723009 160.39364856177107299 0.00000000000000000 0.29860006323731458 -0.95437833286106821 0.00000000000000000 -0.95437833286106821 -0.29860006323731458 0.00000000000000000 0.00000000000000000 -0.00000000000000000 -1.00000000000000000 
2 0.00000000000000000 0.00000000000000000 0.00000000000000000 0.00000000000000000 0.00000000000000000 1.00000000000000000 -1.00000000000000000 0.00000000000000000 0.00000000000000000 -0.00000000000000000 1.00000000000000000 -0.00000000000000000 1.69999999999999996
2 0.00000000000000000 0.00000000000000000 0.00000000000000000 0.00000000000000000 0.00000000000000000 1.00000000000000000 -1.00000000000000000 0.00000000000000000 0.00000000000000000 -0.00000000000000000 1.00000000000000000 -0.00000000000000000 1.69999999999999996
2 0.00000000000000000 0.00000000000000000 0.00000000000000000 0.00000000000000000 0.00000000000000000 1.00000000000000000 -1.00000000000000000 0.00000000000000000 0.00000000000000000 -0.00000000000000000 1.00000000000000000 -0.00000000000000000 1.69999999999999996
2 0.00000000000000000 0.00000000000000000 0.00000000000000000 0.00000000000000000 0.00000000000000000 1.00000000000000000 -1.00000000000000000 0.00000000000000000 0.00000000000000000 -0.00000000000000000 1.00000000000000000 -0.00000000000000000 1.69999999999999996
2 0.00000000000000000 0.00000000000000000 0.00000000000000000 0.00000000000000000 0.00000000000000000 1.00000000000000000 -1.00000000000000000 0.00000000000000000 0.00000000000000000 -0.00000000000000000 1.00000000000000000 -0.00000000000000000 1.69999999999999996
1 41.19999999999942020 120.58029789065263060 0.29999999999999999 0.00000000000000000 -1.00000000000000000 0.00000000000000000 1.00000000000000000 0.00000000000000000 0.00000000000000000 -0.00000000000000000 0.00000000000000000 1.00000000000000000 
1 72.19999999999942020 152.62175689746464968 0.29999999999999999 0.00000000000000000 1.00000000000000000 0.00000000000000000 -1.00000000000000000 0.00000000000000000 0.00000000000000000 0.00000000000000000 -0.00000000000000000 1.00000000000000000 
1 56.69999999999942730 136.60102739405866146 0.29999999999999999 0.00000000000000000 0.00000000000000000 1.00000000000000000 1.00000000000000000 0.00000000000000000 -0.00000000000000000 -0.00000000000000000 1.00000000000000000 0.00000000000000000 
1 41.34922565104494652 152.62175689746467810 0.14999999999999927 0.00000000000000000 -1.00000000000000000 -0.00000000000000000 -1.00000000000000000 -0.00000000000000000 0.00000000000000000 -0.00000000000000000 0.00000000000000000 -1.00000000000000000 
1 -0.00000000000000393 138.77533274331938173 0.00000000000000000 0.00000000000000000 0.00000000000000000 1.00000000000000000 1.00000000000000000 0.00000000000000000 -0.00000000000000000 -0.00000000000000000 1.00000000000000000 0.00000000000000000 
1 -41.34922565104494652 152.62175689746467810 0.14999999999999933 -0.00000000000000000 -1.00000000000000000 0.00000000000000000 -1.00000000000000000 0.00000000000000000 0.00000000000000000 -0.00000000000000000 0.00000000000000000 -1.00000000000000000 
1 -56.84922565104493941 152.62175689746467810 0.14999999999999997 0.00000000000000000 1.00000000000000000 0.00000000000000000 0.00000000000000000 -0.00000000000000000 1.00000000000000000 1.00000000000000000 0.00000000000000000 -0.00000000000000000 
1 56.84922565104494652 152.62175689746467810 0.14999999999999997 -0.00000000000000000 1.00000000000000000 0.00000000000000000 0.00000000000000000 0.00000000000000000 1.00000000000000000 1.00000000000000000 0.00000000000000000 -0.00000000000000000 
1 -0.00000000000000383 138.01176416726232787 0.00000000000000000 -0.00000000000000000 -0.00000000000000000 -1.00000000000000000 -1.00000000000000000 0.00000000000000000 0.00000000000000000 0.00000000000000000 1.00000000000000000 -0.00000000000000000 
1 -0.00000000000000156 120.58029789065257376 0.14999999999999991 0.00000000000000000 -1.00000000000000000 0.00000000000000000 0.00000000000000000 -0.00000000000000000 -1.00000000000000000 1.00000000000000000 0.00000000000000000 0.00000000000000000 
Triangulations 0

TShapes 121
Ve
0.000000100000000
-72.498451302090459 152.621756897464650 0.300000000000004
0 0

0101101
*
Ve
0.000000100000000
-72.498451302090459 152.621756897464650 0.000000000000007
0 0

0101101
*
Ed
 0.000000100000000 1 1 0
1  1 0 0.000000000000000 0.300000000000000
2  1 2 12 0.000000000000000 0.300000000000000
2  2 1 8 0.000000000000000 0.300000000000000
4 C0 2 12 1 8
0

0101000
+121 0 -120 0 *
Ve
0.000000100000000
-72.498451302090459 120.580297890652631 0.300000000000004
0 0

0101101
*
Ve
0.000000100000000
-72.498451302090459 120.580297890652631 0.000000000000007
0 0

0101101
*
Ed
 0.000000100000000 1 1 0
1  2 0 0.000000000000000 0.300000000000000
2  3 1 8 0.000000000000000 0.300000000000000
2  4 3 15 0.000000000000000 0.300000000000000
4 C0 1 8 3 15
0

0101000
+118 0 -117 0 *
Ed
 0.000000100000000 1 1 0
1  3 0 0.000000000000000 32.041459006812019
2  5 4 18 0.000000000000000 32.041459006812019
2  6 1 8 0.000000000000000 32.041459006812019
4 C0 4 18 1 8
0

0101000
+121 0 -118 0 *
Ed
 0.000000100000000 1 1 0
1  4 0 0.000000000000000 32.041459006812019
2  7 5 22 0.000000000000000 32.041459006812019
2  8 1 8 0.000000000000000 32.041459006812019
4 C0 5 22 1 8
0

0101000
+120 0 -117 0 *
Wi

0101100
+119 9 -116 9 -115 9 +114 9 *
Fa
0  0.000000100000000 1 0

0111000
+113 0 *
Ve
0.000000100000000
72.498451302090459 120.580297890652631 0.300000000000004
0 0

0101101
*
Ed
 0.000000100000000 1 1 0
1  5 0 0.000000000000000 144.996902604180917
0

0101000
+118 0 -111 0 *
Ve
0.000000100000000
72.498451302090459 152.621756897464650 0.300000000000004
0 0

0101101
*
Ed
 0.000000100000000 1 1 0
1  6 0 0.000000000000000 32.041459006812019
2  9 7 26 0.000000000000000 32.041459006812019
2  10 8 29 0.000000000000000 32.041459006812019
4 C0 7 26 8 29
0

0101000
+111 0 -109 0 *
Ve
0.000000100000000
41.199999999999420 152.621756897464650 0.300000000000000
0 0

0101101
*
Ed
 0.000000100000000 1 1 0
1  7 0 0.000000000000000 31.298451302091038
0

0101000
+109 0 -107 0 *
Ve
0.000000100000004
16.359666982847358 160.393648561771045 0.300000000000000
0 0

0101101
*
Ed
 0.000000100000000 1 1 0
1  8 0 0.000000000000000 26.027762955058776
2  11 9 33 0.000000000000000 26.027762955058776
2  12 10 34 0.000000000000000 26.027762955058776
4 C0 9 33 10 34
0

0101000
+107 0 -105 0 *
Ve
0.000000100000000
14.866666666660791 160.621756897465701 0.300000000000000
0 0

0101101
*
Ed
 0.000000100000000 1 1 0
1  9 0 1.267570867296562 1.570796326794897
2  13 9 33 1.267570867296562 1.570796326794897
2  14 11 34 1.267570867296562 1.570796326794897
4 C0 9 33 11 34
0

0101000
+105 0 -103 0 *
Ve
0.000000100000001
-14.866666666660720 160.621756897465701 0.300000000000000
0 0

0101101
*
Ed
 0.000000100000000 1 1 0
1  10 0 0.000000000000000 29.733333333321511
2  15 9 33 0.000000000000000 29.733333333321511
2  16 12 34 0.000000000000000 29.733333333321511
4 C0 9 33 12 34
0

0101000
+103 0 -101 0 *
Ve
0.000000100000000
-16.359666982847230 160.393648561771073 0.300000000000000
0 0

0101101
*
Ed
 0.000000100000000 1 1 0
1  11 0 1.570796326794897 1.874021786293219
2  17 9 33 1.570796326794897 1.874021786293219
2  18 13 34 1.570796326794897 1.874021786293219
4 C0 9 33 13 34
0

0101000
+101 0 -99 0 *
Ve
0.000000100000000
-41.199999999999420 152.621756897464650 0.300000000000000
0 0

0101101
*
Ed
 0.000000100000000 1 1 0
1  12 0 0.000000000000000 26.027762955058908
2  19 9 33 0.000000000000000 26.027762955058908
2  20 14 34 0.000000000000000 26.027762955058908
4 C0 9 33 14 34
0

0101000
+99 0 -97 0 *
Ed
 0.000000100000000 1 1 0
1  13 0 -31.298451302091038 0.000000000000000
0

0101000
+121 0 -97 0 *
Wi

0101000
+115 0 +110 0 +108 0 +106 0 +104 0 +102 0 +100 0 +98 0 +96 0 -95 0 
*
Ve
0.000000100000004
-23.999999999999709 125.580297890654023 0.299999999999997
0 0

0101101
*
Ed
 0.000000100000000 1 1 0
1  14 0 0.000000000000000 6.283185307179586
2  21 9 33 0.000000000000000 6.283185307179586
2  22 15 36 0.000000000000000 6.283185307179586
4 C0 9 33 15 36
0

0101000
+93 0 -93 0 *
Wi

0101100
-92 0 *
Ve
0.000000100000004
20.599999999999717 125.580297890652631 0.299999999999997
0 0

0101101
*
Ed
 0.000000100000000 1 1 0
1  15 0 0.000000000000000 6.283185307179586
2  23 9 33 0.000000000000000 6.283185307179586
2  24 16 38 0.000000000000000 6.283185307179586
4 C0 9 33 16 38
0

0101000
+90 0 -90 0 *
Wi

0101100
-89 0 *
Ve
0.000000100000004
-16.566666666660787 155.621756897464962 0.299999999999997
0 0

0101101
*
Ed
 0.000000100000000 1 1 0
1  16 0 0.000000000000000 6.283185307179586
2  25 9 33 0.000000000000000 6.283185307179586
2  26 17 40 0.000000000000000 6.283185307179586
4 C0 9 33 17 40
0

0101000
+87 0 -87 0 *
Wi

0101100
-86 0 *
Ve
0.000000100000002
-1.699999999999932 129.871934891629593 0.299999999999997
0 0

0101101
*
Ed
 0.000000100000000 1 1 0
1  17 0 0.000000000000000 6.283185307179586
2  27 9 33 0.000000000000000 6.283185307179586
2  28 18 42 0.000000000000000 6.283185307179586
4 C0 9 33 18 42
0

0101000
+84 0 -84 0 *
Wi

0101100
-83 0 *
Ve
0.000000100000002
13.166666666660793 155.621756897465701 0.299999999999997
0 0

0101101
*
Ed
 0.000000100000000 1 1 0
1  18 0 0.000000000000000 6.283185307179586
2  29 9 33 0.000000000000000 6.283185307179586
2  30 19 44 0.000000000000000 6.283185307179586
4 C0 9 33 19 44
0

0101000
+81 0 -81 0 *
Wi

0101100
-80 0 *
Fa
0  0.000000100000000 6 0

0111000
+94 0 +91 0 +88 0 +85 0 +82 0 +79 0 *
Ve
0.000000100000000
72.498451302090459 120.580297890652631 0.000000000000007
0 0

0101101
*
Ed
 0.000000100000000 1 1 0
1  19 0 0.000000000000000 0.300000000000000
2  31 20 48 0.000000000000000 0.300000000000000
2  32 8 29 0.000000000000000 0.300000000000000
4 C0 20 48 8 29
0

0101000
+111 0 -77 0 *
Ve
0.000000100000000
72.498451302090459 152.621756897464650 0.000000000000007
0 0

0101101
*
Ed
 0.000000100000000 1 1 0
1  20 0 0.000000000000000 0.300000000000000
2  33 8 29 0.000000000000000 0.300000000000000
2  34 21 51 0.000000000000000 0.300000000000000
4 C0 8 29 21 51
0

0101000
+109 0 -75 0 *
Ed
 0.000000100000000 1 1 0
1  21 0 0.000000000000000 32.041459006812019
2  35 22 55 0.000000000000000 32.041459006812019
2  36 8 29 0.000000000000000 32.041459006812019
4 C0 22 55 8 29
0

0101000
+77 0 -75 0 *
Wi

0101100
+76 45 -74 45 -108 45 +73 45 *
Fa
0  0.000000100000000 8 0

0111000
+72 0 *
Ve
0.000000100000000
41.199999999999420 152.621756897464650 0.000000000000000
0 0

0101101
*
Ed
 0.000000100000000 1 1 0
1  22 0 -0.300000000000000 0.000000000000000
2  37 23 0 -0.300000000000000 0.000000000000000
2  38 10 34 -0.300000000000000 0.000000000000000
4 C0 23 0 10 34
0

0101000
+107 0 -70 0 *
Ve
0.000000100000000
16.359666982847358 160.393648561771045 0.000000000000000
0 0

0101101
*
Ed
 0.000000100000000 1 1 0
1  23 0 0.000000000000000 0.300000000000000
2  39 10 34 0.000000000000000 0.300000000000000
2  40 11 34 0.000000000000000 0.300000000000000
4 G1 10 34 11 34
0

0101000
+68 0 -105 0 *
Ed
 0.000000100000000 1 1 0
1  24 0 0.000000000000000 26.027762955058776
2  41 24 58 0.000000000000000 26.027762955058776
2  42 10 34 0.000000000000000 26.027762955058776
4 C0 24 58 10 34
0

0101000
+70 0 -68 0 *
Wi

0101100
-69 57 -67 57 -66 57 +104 57 *
Fa
0  0.000000100000000 10 32

0111000
+65 0 *
Ve
0.000000100000000
14.866666666660791 160.621756897465701 0.000000000000000
0 0

0101101
*
Ed
 0.000000100000000 1 1 0
1  25 0 0.000000000000000 0.300000000000000
2  43 11 34 0.000000000000000 0.300000000000000
2  44 12 34 0.000000000000000 0.300000000000000
4 G1 11 34 12 34
0

0101000
+63 0 -103 0 *
Ed
 0.000000100000000 1 1 0
1  26 0 1.267570867296562 1.570796326794897
2  45 24 58 1.267570867296562 1.570796326794897
2  46 11 34 1.267570867296562 1.570796326794897
4 C0 24 58 11 34
0

0101000
+68 0 -63 0 *
Wi

0101100
+67 59 -62 59 -61 59 +102 59 *
Fa
0  0.000000100000000 11 0

0111000
+60 0 *
Ve
0.000000100000001
-14.866666666660720 160.621756897465701 0.000000000000000
0 0

0101101
*
Ed
 0.000000100000000 1 1 0
1  27 0 0.000000000000000 0.300000000000000
2  47 13 34 0.000000000000000 0.300000000000000
2  48 12 34 0.000000000000000 0.300000000000000
4 G1 13 34 12 34
0

0101000
+58 0 -101 0 *
Ed
 0.000000100000000 1 1 0
1  28 0 0.000000000000000 29.733333333321511
2  49 24 58 0.000000000000000 29.733333333321511
2  50 12 34 0.000000000000000 29.733333333321511
4 C0 24 58 12 34
0

0101000
+63 0 -58 0 *
Wi

0101100
+62 59 -57 59 -56 59 +100 59 *
Fa
0  0.000000100000000 12 0

0111000
+55 0 *
Ve
0.000000100000000
-16.359666982847230 160.393648561771073 0.000000000000000
0 0

0101101
*
Ed
 0.000000100000000 1 1 0
1  29 0 0.000000000000000 0.300000000000000
2  51 14 34 0.000000000000000 0.300000000000000
2  52 13 34 0.000000000000000 0.300000000000000
4 G1 14 34 13 34
0

0101000
+53 0 -99 0 *
Ve
0.000000100000000
-41.199999999999420 152.621756897464650 0.000000000000000
0 0

0101101
*
Ed
 0.000000100000000 1 1 0
1  30 0 0.000000000000000 0.300000000000000
2  53 25 0 0.000000000000000 0.300000000000000
2  54 14 34 0.000000000000000 0.300000000000000
4 C0 25 0 14 34
0

0101000
+51 0 -97 0 *
Ed
 0.000000100000000 1 1 0
1  31 0 0.000000000000000 26.027762955058908
2  55 24 58 0.000000000000000 26.027762955058908
2  56 14 34 0.000000000000000 26.027762955058908
4 C0 24 58 14 34
0

0101000
+53 0 -51 0 *
Wi

0101100
+52 57 -50 57 -49 57 +96 57 *
Fa
0  0.000000100000000 14 32

0111000
+48 0 *
Ed
 0.000000100000000 1 1 0
1  32 0 1.570796326794897 1.874021786293219
2  57 24 58 1.570796326794897 1.874021786293219
2  58 13 34 1.570796326794897 1.874021786293219
4 C0 24 58 13 34
0

0101000
+58 0 -53 0 *
Wi

0101100
+57 59 -52 59 -46 59 +98 59 *
Fa
0  0.000000100000000 13 0

0111000
+45 0 *
Ve
0.000000100000004
-23.999999999999709 125.580297890654023 0.000000000000000
0 0

0101101
*
Ed
 0.000000100000000 1 1 0
1  33 0 0.000000000000000 6.283185307179586
2  59 24 58 0.000000000000000 6.283185307179586
2  60 15 36 0.000000000000000 6.283185307179586
4 C0 24 58 15 36
0

0101000
+43 0 -43 0 *
Ed
 0.000000100000000 1 1 0
1  34 0 37.100000000000001 37.399999999999999
3  61 62CN 15 0 37.100000000000001 37.399999999999999
0

0101000
+43 61 -93 61 *
Wi

0101100
-42 60 -41 35 +92 60 +41 35 *
Fa
0  0.000000100000000 15 35

0111000
+40 0 *
Ve
0.000000100000004
20.599999999999717 125.580297890652631 0.000000000000000
0 0

0101101
*
Ed
 0.000000100000000 1 1 0
1  35 0 0.000000000000000 6.283185307179586
2  63 24 58 0.000000000000000 6.283185307179586
2  64 16 38 0.000000000000000 6.283185307179586
4 C0 24 58 16 38
0

0101000
+38 0 -38 0 *
Ed
 0.000000100000000 1 1 0
1  36 0 37.100000000000001 37.399999999999999
3  65 66CN 16 0 37.100000000000001 37.399999999999999
0

0101000
+38 62 -90 62 *
Wi

0101100
-37 60 -36 37 +89 60 +36 37 *
Fa
0  0.000000100000000 16 37

0111000
+35 0 *
Ve
0.000000100000004
-16.566666666660787 155.621756897464962 0.000000000000000
0 0

0101101
*
Ed
 0.000000100000000 1 1 0
1  37 0 0.000000000000000 6.283185307179586
2  67 24 58 0.000000000000000 6.283185307179586
2  68 17 40 0.000000000000000 6.283185307179586
4 C0 24 58 17 40
0

0101000
+33 0 -33 0 *
Ed
 0.000000100000000 1 1 0
1  38 0 37.100000000000001 37.399999999999999
3  69 70CN 17 0 37.100000000000001 37.399999999999999
0

0101000
+33 63 -87 63 *
Wi

0101100
-32 60 -31 39 +86 60 +31 39 *
Fa
0  0.000000100000000 17 39

0111000
+30 0 *
Ve
0.000000100000002
-1.699999999999932 129.871934891629593 0.000000000000000
0 0

0101101
*
Ed
 0.000000100000000 1 1 0
1  39 0 0.000000000000000 6.283185307179586
2  71 24 58 0.000000000000000 6.283185307179586
2  72 18 42 0.000000000000000 6.283185307179586
4 C0 24 58 18 42
0

0101000
+28 0 -28 0 *
Ed
 0.000000100000000 1 1 0
1  40 0 37.100000000000001 37.399999999999999
3  73 74CN 18 0 37.100000000000001 37.399999999999999
0

0101000
+28 64 -84 64 *
Wi

0101100
-27 60 -26 41 +83 60 +26 41 *
Fa
0  0.000000100000000 18 41

0111000
+25 0 *
Ve
0.000000100000002
13.166666666660793 155.621756897465701 0.000000000000000
0 0

0101101
*
Ed
 0.000000100000000 1 1 0
1  41 0 0.000000000000000 6.283185307179586
2  75 24 58 0.000000000000000 6.283185307179586
2  76 19 44 0.000000000000000 6.283185307179586
4 C0 24 58 19 44
0

0101000
+23 0 -23 0 *
Ed
 0.000000100000000 1 1 0
1  42 0 37.100000000000001 37.399999999999999
3  77 78CN 19 0 37.100000000000001 37.399999999999999
0

0101000
+23 65 -81 65 *
Wi

0101100
-22 60 -21 43 +80 60 +21 43 *
Fa
0  0.000000100000000 19 43

0111000
+20 0 *
Ed
 0.000000100000000 1 1 0
1  43 0 0.000000000000000 31.298451302091038
0

0101000
+51 0 -120 0 *
Wi

0101000
-119 0 +95 0 -50 0 +18 0 *
Fa
0  0.000000100000000 26 0

0111000
+17 0 *
Ed
 0.000000100000000 1 1 0
1  44 0 0.000000000000000 31.298451302091038
0

0101000
+75 0 -70 0 *
Wi

0101000
+74 0 +15 0 -69 0 -106 0 *
Fa
0  0.000000100000000 27 0

0111000
+14 0 *
Ed
 0.000000100000000 1 1 0
1  45 0 -113.996902604180917 31.000000000000000
0

0101000
+117 0 -77 0 *
Wi

0101000
-18 0 -49 0 -46 0 -56 0 -61 0 -66 0 -15 0 -73 0 -12 0 -114 0 
*
Wi

0101100
+42 0 *
Wi

0101100
+37 0 *
Wi

0101100
+32 0 *
Wi

0101100
+27 0 *
Wi

0101100
+22 0 *
Fa
0  0.000000100000000 28 0

0111000
+11 0 +10 0 +9 0 +8 0 +7 0 +6 0 *
Wi

0101000
+116 0 +12 0 -76 0 -110 0 *
Fa
0  0.000000100000000 29 0

0111000
+4 0 *
Sh

0101000
+112 8 +78 0 +71 29 -64 56 -59 34 -54 34 -47 56 -44 34 +39 5 +34 5 
+29 5 +24 5 +19 5 +16 0 +13 0 +5 0 +3 0 *
So

0100000
+2 0 *

+1 1 