
CASCADE Topology V1, (c) Matra-Datavision
Locations 141
1
1.000000000000000 0.000000000000000 0.000000000000000 0.000000000000000 
0.000000000000000 1.000000000000000 0.000000000000000 0.000000000000000 
0.000000000000000 0.000000000000000 1.000000000000000 0.000000000000000 
1
1.000000000000000 0.000000000000000 0.000000000000000 0.000000000000000 
0.000000000000000 -0.000000000000000 -1.000000000000000 0.000000000000000 
0.000000000000000 1.000000000000000 -0.000000000000000 0.000000000000000 
1
1.000000000000000 0.000000000000000 0.000000000000000 0.000000000000000 
0.000000000000000 1.000000000000000 0.000000000000000 0.000000000000000 
0.000000000000000 0.000000000000000 1.000000000000000 0.000000000000000 
1
1.000000000000000 0.000000000000000 0.000000000000000 0.000000000000000 
0.000000000000000 1.000000000000000 0.000000000000000 0.000000000000000 
0.000000000000000 0.000000000000000 1.000000000000000 0.000000000000000 
1
1.000000000000000 0.000000000000000 0.000000000000000 0.000000000000000 
0.000000000000000 1.000000000000000 0.000000000000000 0.000000000000000 
0.000000000000000 0.000000000000000 1.000000000000000 0.000000000000000 
1
1.000000000000000 0.000000000000000 0.000000000000000 0.000000000000000 
0.000000000000000 1.000000000000000 0.000000000000000 0.000000000000000 
0.000000000000000 0.000000000000000 1.000000000000000 0.000000000000000 
1
1.000000000000000 0.000000000000000 0.000000000000000 0.000000000000000 
0.000000000000000 1.000000000000000 0.000000000000000 0.000000000000000 
0.000000000000000 0.000000000000000 1.000000000000000 0.000000000000000 
1
-0.000000000000000 1.000000000000000 0.000000000000000 14.500000000000000 
-1.000000000000000 0.000000000000000 0.000000000000000 286.000000000000000 
0.000000000000000 0.000000000000000 1.000000000000000 0.000000000000000 
1
1.000000000000000 0.000000000000000 0.000000000000000 0.000000000000000 
0.000000000000000 1.000000000000000 0.000000000000000 0.000000000000000 
0.000000000000000 0.000000000000000 1.000000000000000 0.000000000000000 
1
1.000000000000000 0.000000000000000 0.000000000000000 1487.149440473208642 
0.000000000000000 1.000000000000000 0.000000000000000 -0.000000000000330 
0.000000000000000 0.000000000000000 1.000000000000000 0.000000000000327 
2  1 1 2 1 3 1 4 1 5 1 6 1 7 1 8 1 9 -1 10 1 0
1
1.000000000000000 0.000000000000000 0.000000000000000 -2974.298880946417285 
0.000000000000000 1.000000000000000 0.000000000000000 0.000000000000660 
0.000000000000000 0.000000000000000 1.000000000000000 -0.000000000000654 
2  1 1 2 1 3 1 4 1 5 1 6 1 7 1 8 1 9 -1 10 1 12 1 0
1
1.000000000000000 0.000000000000000 0.000000000000000 -61.750577325236705 
0.000000000000000 1.000000000000000 0.000000000000000 0.000000000000014 
0.000000000000000 0.000000000000000 1.000000000000000 0.000000000000014 
1
1.000000000000000 0.000000000000000 0.000000000000000 0.000000000000000 
0.000000000000000 1.000000000000000 0.000000000000000 0.000000000000000 
0.000000000000000 0.000000000000000 1.000000000000000 0.000000000000000 
1
0.000000000000000 -1.000000000000000 0.000000000000000 0.000000000000000 
1.000000000000000 0.000000000000000 0.000000000000000 0.000000000000000 
0.000000000000000 0.000000000000000 1.000000000000000 0.000000000000000 
1
1.000000000000000 0.000000000000000 0.000000000000000 0.000000000000000 
0.000000000000000 1.000000000000000 0.000000000000000 0.000000000000000 
0.000000000000000 0.000000000000000 1.000000000000000 0.000000000000000 
1
1.000000000000000 0.000000000000000 0.000000000000000 0.000000000000000 
0.000000000000000 1.000000000000000 0.000000000000000 0.000000000000000 
0.000000000000000 0.000000000000000 1.000000000000000 0.000000000000000 
1
1.000000000000000 0.000000000000000 0.000000000000000 0.000000000000000 
0.000000000000000 1.000000000000000 0.000000000000000 0.000000000000000 
0.000000000000000 0.000000000000000 1.000000000000000 0.000000000000000 
2  14 -1 15 1 16 -1 17 -1 18 -1 19 -1 4 -1 3 -1 2 -1 1 -1 0
1
1.000000000000000 0.000000000000000 0.000000000000000 123.501154650473410 
0.000000000000000 1.000000000000000 0.000000000000000 -0.000000000000027 
0.000000000000000 0.000000000000000 1.000000000000000 -0.000000000000027 
2  21 -1 14 -1 15 1 16 -1 17 -1 18 -1 19 -1 4 -1 3 -1 2 -1 1 -1 0
1
1.000000000000000 0.000000000000000 0.000000000000000 -60.549478940783310 
0.000000000000000 1.000000000000000 0.000000000000000 0.000000000000013 
0.000000000000000 0.000000000000000 1.000000000000000 0.000000000000013 
1
1.000000000000000 0.000000000000000 0.000000000000000 0.000000000000000 
0.000000000000000 1.000000000000000 0.000000000000000 0.000000000000000 
0.000000000000000 0.000000000000000 1.000000000000000 0.000000000000000 
1
0.000000000000000 -1.000000000000000 0.000000000000000 0.000000000000000 
1.000000000000000 0.000000000000000 0.000000000000000 0.000000000000000 
0.000000000000000 0.000000000000000 1.000000000000000 0.000000000000000 
1
1.000000000000000 0.000000000000000 0.000000000000000 0.000000000000000 
0.000000000000000 1.000000000000000 0.000000000000000 0.000000000000000 
0.000000000000000 0.000000000000000 1.000000000000000 0.000000000000000 
2  23 -1 24 1 25 -1 26 -1 18 -1 19 -1 4 -1 3 -1 2 -1 1 -1 0
1
1.000000000000000 0.000000000000000 0.000000000000000 121.098957881566619 
0.000000000000000 1.000000000000000 0.000000000000000 -0.000000000000027 
0.000000000000000 0.000000000000000 1.000000000000000 -0.000000000000027 
2  28 -1 23 -1 24 1 25 -1 26 -1 18 -1 19 -1 4 -1 3 -1 2 -1 1 -1 0
1
1.000000000000000 0.000000000000000 0.000000000000000 -608.062571883955911 
0.000000000000000 1.000000000000000 0.000000000000000 -351.065089561337686 
0.000000000000000 0.000000000000000 1.000000000000000 -0.000000000000039 
1
1.000000000000000 0.000000000000000 0.000000000000000 0.000000000000000 
0.000000000000000 1.000000000000000 0.000000000000000 0.000000000000000 
0.000000000000000 0.000000000000000 1.000000000000000 0.000000000000000 
1
1.000000000000000 0.000000000000000 0.000000000000000 0.000000000000000 
0.000000000000000 1.000000000000000 0.000000000000000 0.000000000000000 
0.000000000000000 0.000000000000000 1.000000000000000 0.000000000000000 
1
1.000000000000000 0.000000000000000 0.000000000000000 0.000000000000000 
0.000000000000000 1.000000000000000 0.000000000000000 0.000000000000000 
0.000000000000000 0.000000000000000 1.000000000000000 0.000000000000000 
1
1.000000000000000 0.000000000000000 0.000000000000000 0.000000000000000 
0.000000000000000 1.000000000000000 0.000000000000000 0.000000000000000 
0.000000000000000 0.000000000000000 1.000000000000000 0.000000000000000 
1
1.000000000000000 0.000000000000000 0.000000000000000 0.000000000000000 
0.000000000000000 1.000000000000000 0.000000000000000 0.000000000000000 
0.000000000000000 0.000000000000000 1.000000000000000 300.000000000000000 
1
1.000000000000000 0.000000000000000 0.000000000000000 0.000000000000000 
0.000000000000000 1.000000000000000 0.000000000000000 0.000000000000000 
0.000000000000000 0.000000000000000 1.000000000000000 0.000000000000000 
1
1.000000000000000 0.000000000000000 0.000000000000000 0.000000000000000 
0.000000000000000 1.000000000000000 0.000000000000000 0.000000000000000 
0.000000000000000 0.000000000000000 1.000000000000000 0.000000000000000 
1
0.000000000000000 -0.866025403784439 -0.500000000000000 265.160161513775506 
0.000000000000000 -0.500000000000000 0.866025403784439 169.833448434842040 
-1.000000000000000 0.000000000000000 0.000000000000000 50.000000000000000 
1
1.000000000000000 0.000000000000000 0.000000000000000 0.000000000000000 
0.000000000000000 1.000000000000000 0.000000000000000 0.000000000000000 
0.000000000000000 0.000000000000000 1.000000000000000 0.000000000000000 
1
1.000000000000000 0.000000000000000 0.000000000000000 0.000000000000000 
0.000000000000000 1.000000000000000 0.000000000000000 0.000000000000000 
0.000000000000000 0.000000000000000 1.000000000000000 0.000000000000000 
2  30 -1 31 1 32 -1 33 -1 34 -1 35 -1 36 -1 37 -1 38 -1 39 -1 40 -1 3 -1 2 -1 1 -1 0
1
1.000000000000000 0.000000000000000 0.000000000000000 1216.125143767911823 
0.000000000000000 1.000000000000000 0.000000000000000 702.130179122675372 
0.000000000000000 0.000000000000000 1.000000000000000 0.000000000000078 
2  42 -1 30 -1 31 1 32 -1 33 -1 34 -1 35 -1 36 -1 37 -1 38 -1 39 -1 40 -1 3 -1 2 -1 1 -1 0
1
1.000000000000000 0.000000000000000 0.000000000000000 0.000000000000000 
0.000000000000000 1.000000000000000 0.000000000000000 0.000000000000000 
0.000000000000000 0.000000000000000 1.000000000000000 0.000000000000000 
1
0.000000000000000 -0.866025403784439 -0.500000000000000 265.160161513775506 
0.000000000000000 -0.500000000000000 0.866025403784439 169.833448434842040 
-1.000000000000000 0.000000000000000 0.000000000000000 50.000000000000000 
1
1.000000000000000 0.000000000000000 0.000000000000000 0.000000000000000 
0.000000000000000 1.000000000000000 0.000000000000000 0.000000000000000 
0.000000000000000 0.000000000000000 1.000000000000000 0.000000000000000 
2  30 -1 31 1 32 -1 33 -1 44 -1 45 -1 46 -1 40 -1 3 -1 2 -1 1 -1 0
2  42 -1 30 -1 31 1 32 -1 33 -1 44 -1 45 -1 46 -1 40 -1 3 -1 2 -1 1 -1 0
1
1.000000000000000 0.000000000000000 0.000000000000000 1487.149440473208188 
0.000000000000000 1.000000000000000 0.000000000000000 -0.000000000000330 
0.000000000000000 0.000000000000000 1.000000000000000 0.000000000000330 
1
1.000000000000000 0.000000000000000 0.000000000000000 0.000000000000000 
0.000000000000000 1.000000000000000 0.000000000000000 0.000000000000000 
0.000000000000000 0.000000000000000 1.000000000000000 0.000000000000000 
1
-0.000000000000000 1.000000000000000 0.000000000000000 14.500000000000000 
-1.000000000000000 0.000000000000000 0.000000000000000 257.000000000000000 
0.000000000000000 0.000000000000000 1.000000000000000 1.400000000000000 
1
1.000000000000000 0.000000000000000 0.000000000000000 0.000000000000000 
0.000000000000000 1.000000000000000 0.000000000000000 0.000000000000000 
0.000000000000000 0.000000000000000 1.000000000000000 0.000000000000000 
1
1.000000000000000 0.000000000000000 0.000000000000000 0.000000000000000 
0.000000000000000 1.000000000000000 0.000000000000000 0.000000000000000 
0.000000000000000 0.000000000000000 1.000000000000000 0.000000000000000 
1
1.000000000000000 0.000000000000000 0.000000000000000 0.000000000000000 
0.000000000000000 1.000000000000000 0.000000000000000 0.000000000000000 
0.000000000000000 0.000000000000000 1.000000000000000 0.000000000000000 
2  49 -1 50 1 51 -1 52 -1 53 -1 54 -1 4 -1 3 -1 2 -1 1 -1 0
1
1.000000000000000 0.000000000000000 0.000000000000000 -2974.298880946416375 
0.000000000000000 1.000000000000000 0.000000000000000 0.000000000000660 
0.000000000000000 0.000000000000000 1.000000000000000 -0.000000000000660 
2  56 -1 49 -1 50 1 51 -1 52 -1 53 -1 54 -1 4 -1 3 -1 2 -1 1 -1 0
1
1.000000000000000 0.000000000000000 0.000000000000000 1576.866288019524973 
0.000000000000000 1.000000000000000 0.000000000000000 -0.000000000000350 
0.000000000000000 0.000000000000000 1.000000000000000 0.000000000000350 
1
1.000000000000000 0.000000000000000 0.000000000000000 0.000000000000000 
0.000000000000000 1.000000000000000 0.000000000000000 0.000000000000000 
0.000000000000000 0.000000000000000 1.000000000000000 0.000000000000000 
1
1.000000000000000 0.000000000000000 0.000000000000000 0.000000000000000 
0.000000000000000 1.000000000000000 0.000000000000000 0.000000000000000 
0.000000000000000 0.000000000000000 1.000000000000000 0.000000000000000 
1
1.000000000000000 0.000000000000000 0.000000000000000 0.000000000000000 
0.000000000000000 1.000000000000000 0.000000000000000 0.000000000000000 
0.000000000000000 0.000000000000000 1.000000000000000 0.000000000000000 
1
1.000000000000000 0.000000000000000 0.000000000000000 0.000000000000000 
0.000000000000000 1.000000000000000 0.000000000000000 0.000000000000000 
0.000000000000000 0.000000000000000 1.000000000000000 0.000000000000000 
1
1.000000000000000 0.000000000000000 0.000000000000000 0.000000000000000 
0.000000000000000 1.000000000000000 0.000000000000000 0.000000000000000 
0.000000000000000 0.000000000000000 1.000000000000000 0.000000000000000 
1
-0.000000000000000 1.000000000000000 0.000000000000000 14.500000000000000 
-1.000000000000000 0.000000000000000 0.000000000000000 257.000000000000000 
0.000000000000000 0.000000000000000 1.000000000000000 1.400000000000000 
2  58 -1 59 1 60 -1 61 -1 62 -1 63 -1 64 -1 53 -1 54 -1 4 -1 3 -1 2 -1 1 -1 0
1
1.000000000000000 0.000000000000000 0.000000000000000 -3153.732576039049945 
0.000000000000000 1.000000000000000 0.000000000000000 0.000000000000700 
0.000000000000000 0.000000000000000 1.000000000000000 -0.000000000000700 
2  66 -1 58 -1 59 1 60 -1 61 -1 62 -1 63 -1 64 -1 53 -1 54 -1 4 -1 3 -1 2 -1 1 -1 0
1
1.000000000000000 0.000000000000000 0.000000000000000 1576.866288019524973 
0.000000000000000 1.000000000000000 0.000000000000000 -0.000000000000350 
0.000000000000000 0.000000000000000 1.000000000000000 0.000000000000350 
1
1.000000000000000 0.000000000000000 0.000000000000000 0.000000000000000 
0.000000000000000 1.000000000000000 0.000000000000000 0.000000000000000 
0.000000000000000 0.000000000000000 1.000000000000000 0.000000000000000 
1
1.000000000000000 0.000000000000000 0.000000000000000 0.000000000000000 
0.000000000000000 1.000000000000000 0.000000000000000 0.000000000000000 
0.000000000000000 0.000000000000000 1.000000000000000 0.000000000000000 
2  68 -1 69 1 70 -1 61 -1 62 -1 63 -1 64 -1 53 -1 54 -1 4 -1 3 -1 2 -1 1 -1 0
1
1.000000000000000 0.000000000000000 0.000000000000000 -3153.732576039049945 
0.000000000000000 1.000000000000000 0.000000000000000 0.000000000000700 
0.000000000000000 0.000000000000000 1.000000000000000 -0.000000000000700 
2  72 -1 68 -1 69 1 70 -1 61 -1 62 -1 63 -1 64 -1 53 -1 54 -1 4 -1 3 -1 2 -1 1 -1 0
1
1.000000000000000 0.000000000000000 0.000000000000000 1576.866288019524973 
0.000000000000000 1.000000000000000 0.000000000000000 -0.000000000000350 
0.000000000000000 0.000000000000000 1.000000000000000 0.000000000000350 
1
1.000000000000000 0.000000000000000 0.000000000000000 0.000000000000000 
0.000000000000000 1.000000000000000 0.000000000000000 0.000000000000000 
0.000000000000000 0.000000000000000 1.000000000000000 0.000000000000000 
1
1.000000000000000 0.000000000000000 0.000000000000000 0.000000000000000 
0.000000000000000 1.000000000000000 0.000000000000000 0.000000000000000 
0.000000000000000 0.000000000000000 1.000000000000000 0.000000000000000 
2  74 -1 75 1 76 -1 61 -1 62 -1 63 -1 64 -1 53 -1 54 -1 4 -1 3 -1 2 -1 1 -1 0
1
1.000000000000000 0.000000000000000 0.000000000000000 -3153.732576039049945 
0.000000000000000 1.000000000000000 0.000000000000000 0.000000000000700 
0.000000000000000 0.000000000000000 1.000000000000000 -0.000000000000700 
2  78 -1 74 -1 75 1 76 -1 61 -1 62 -1 63 -1 64 -1 53 -1 54 -1 4 -1 3 -1 2 -1 1 -1 0
1
1.000000000000000 0.000000000000000 0.000000000000000 -608.062571883955911 
0.000000000000000 1.000000000000000 0.000000000000000 -351.065089561337686 
0.000000000000000 0.000000000000000 1.000000000000000 -0.000000000000039 
1
1.000000000000000 0.000000000000000 0.000000000000000 0.000000000000000 
0.000000000000000 1.000000000000000 0.000000000000000 0.000000000000000 
0.000000000000000 0.000000000000000 1.000000000000000 0.000000000000000 
1
1.000000000000000 0.000000000000000 0.000000000000000 0.000000000000000 
0.000000000000000 1.000000000000000 0.000000000000000 0.000000000000000 
0.000000000000000 0.000000000000000 1.000000000000000 0.000000000000000 
1
1.000000000000000 0.000000000000000 0.000000000000000 0.000000000000000 
0.000000000000000 1.000000000000000 0.000000000000000 0.000000000000000 
0.000000000000000 0.000000000000000 1.000000000000000 0.000000000000000 
1
1.000000000000000 0.000000000000000 0.000000000000000 0.000000000000000 
0.000000000000000 1.000000000000000 0.000000000000000 0.000000000000000 
0.000000000000000 0.000000000000000 1.000000000000000 0.000000000000000 
1
1.000000000000000 0.000000000000000 0.000000000000000 0.000000000000000 
0.000000000000000 1.000000000000000 0.000000000000000 0.000000000000000 
0.000000000000000 0.000000000000000 1.000000000000000 300.000000000000000 
1
1.000000000000000 0.000000000000000 0.000000000000000 0.000000000000000 
0.000000000000000 1.000000000000000 0.000000000000000 0.000000000000000 
0.000000000000000 0.000000000000000 1.000000000000000 0.000000000000000 
1
1.000000000000000 0.000000000000000 0.000000000000000 0.000000000000000 
0.000000000000000 1.000000000000000 0.000000000000000 0.000000000000000 
0.000000000000000 0.000000000000000 1.000000000000000 0.000000000000000 
1
0.000000000000000 -0.866025403784439 -0.500000000000000 265.160161513775506 
0.000000000000000 -0.500000000000000 0.866025403784439 169.833448434842040 
-1.000000000000000 0.000000000000000 0.000000000000000 50.000000000000000 
1
1.000000000000000 0.000000000000000 0.000000000000000 0.000000000000000 
0.000000000000000 1.000000000000000 0.000000000000000 0.000000000000000 
0.000000000000000 0.000000000000000 1.000000000000000 0.000000000000000 
1
1.000000000000000 0.000000000000000 0.000000000000000 0.000000000000000 
0.000000000000000 1.000000000000000 0.000000000000000 0.000000000000000 
0.000000000000000 0.000000000000000 1.000000000000000 0.000000000000000 
2  80 -1 81 1 82 -1 83 -1 84 -1 85 -1 86 -1 87 -1 88 -1 89 -1 90 -1 3 -1 2 -1 1 -1 0
1
1.000000000000000 0.000000000000000 0.000000000000000 1216.125143767911823 
0.000000000000000 1.000000000000000 0.000000000000000 702.130179122675372 
0.000000000000000 0.000000000000000 1.000000000000000 0.000000000000078 
2  92 -1 80 -1 81 1 82 -1 83 -1 84 -1 85 -1 86 -1 87 -1 88 -1 89 -1 90 -1 3 -1 2 -1 1 -1 0
1
1.000000000000000 0.000000000000000 0.000000000000000 0.000000000000000 
0.000000000000000 1.000000000000000 0.000000000000000 0.000000000000000 
0.000000000000000 0.000000000000000 1.000000000000000 0.000000000000000 
1
0.000000000000000 -0.866025403784439 -0.500000000000000 265.160161513775506 
0.000000000000000 -0.500000000000000 0.866025403784439 169.833448434842040 
-1.000000000000000 0.000000000000000 0.000000000000000 50.000000000000000 
1
1.000000000000000 0.000000000000000 0.000000000000000 0.000000000000000 
0.000000000000000 1.000000000000000 0.000000000000000 0.000000000000000 
0.000000000000000 0.000000000000000 1.000000000000000 0.000000000000000 
2  80 -1 81 1 82 -1 83 -1 94 -1 95 -1 96 -1 90 -1 3 -1 2 -1 1 -1 0
2  92 -1 80 -1 81 1 82 -1 83 -1 94 -1 95 -1 96 -1 90 -1 3 -1 2 -1 1 -1 0
1
1.000000000000000 0.000000000000000 0.000000000000000 1487.149440473208188 
0.000000000000000 1.000000000000000 0.000000000000000 -0.000000000000330 
0.000000000000000 0.000000000000000 1.000000000000000 0.000000000000327 
1
1.000000000000000 0.000000000000000 0.000000000000000 0.000000000000000 
0.000000000000000 1.000000000000000 0.000000000000000 0.000000000000000 
0.000000000000000 0.000000000000000 1.000000000000000 0.000000000000000 
1
-0.000000000000000 1.000000000000000 0.000000000000000 14.500000000000000 
-1.000000000000000 0.000000000000000 0.000000000000000 257.000000000000000 
0.000000000000000 0.000000000000000 1.000000000000000 1.400000000000000 
1
1.000000000000000 0.000000000000000 0.000000000000000 0.000000000000000 
0.000000000000000 1.000000000000000 0.000000000000000 0.000000000000000 
0.000000000000000 0.000000000000000 1.000000000000000 0.000000000000000 
1
1.000000000000000 0.000000000000000 0.000000000000000 0.000000000000000 
0.000000000000000 1.000000000000000 0.000000000000000 0.000000000000000 
0.000000000000000 0.000000000000000 1.000000000000000 0.000000000000000 
1
1.000000000000000 0.000000000000000 0.000000000000000 0.000000000000000 
0.000000000000000 1.000000000000000 0.000000000000000 0.000000000000000 
0.000000000000000 0.000000000000000 1.000000000000000 0.000000000000000 
2  99 -1 100 1 101 -1 102 -1 103 -1 104 -1 4 -1 3 -1 2 -1 1 -1 0
1
1.000000000000000 0.000000000000000 0.000000000000000 -2974.298880946416375 
0.000000000000000 1.000000000000000 0.000000000000000 0.000000000000660 
0.000000000000000 0.000000000000000 1.000000000000000 -0.000000000000654 
2  106 -1 99 -1 100 1 101 -1 102 -1 103 -1 104 -1 4 -1 3 -1 2 -1 1 -1 0
1
1.000000000000000 0.000000000000000 0.000000000000000 1576.866288019524973 
0.000000000000000 1.000000000000000 0.000000000000000 -0.000000000000350 
0.000000000000000 0.000000000000000 1.000000000000000 0.000000000000347 
1
1.000000000000000 0.000000000000000 0.000000000000000 0.000000000000000 
0.000000000000000 1.000000000000000 0.000000000000000 0.000000000000000 
0.000000000000000 0.000000000000000 1.000000000000000 0.000000000000000 
1
1.000000000000000 0.000000000000000 0.000000000000000 0.000000000000000 
0.000000000000000 1.000000000000000 0.000000000000000 0.000000000000000 
0.000000000000000 0.000000000000000 1.000000000000000 0.000000000000000 
1
1.000000000000000 0.000000000000000 0.000000000000000 0.000000000000000 
0.000000000000000 1.000000000000000 0.000000000000000 0.000000000000000 
0.000000000000000 0.000000000000000 1.000000000000000 0.000000000000000 
1
1.000000000000000 0.000000000000000 0.000000000000000 0.000000000000000 
0.000000000000000 1.000000000000000 0.000000000000000 0.000000000000000 
0.000000000000000 0.000000000000000 1.000000000000000 0.000000000000000 
1
1.000000000000000 0.000000000000000 0.000000000000000 0.000000000000000 
0.000000000000000 1.000000000000000 0.000000000000000 0.000000000000000 
0.000000000000000 0.000000000000000 1.000000000000000 0.000000000000000 
1
-0.000000000000000 1.000000000000000 0.000000000000000 14.500000000000000 
-1.000000000000000 0.000000000000000 0.000000000000000 257.000000000000000 
0.000000000000000 0.000000000000000 1.000000000000000 1.400000000000000 
2  108 -1 109 1 110 -1 111 -1 112 -1 113 -1 114 -1 103 -1 104 -1 4 -1 3 -1 2 -1 1 -1 0
1
1.000000000000000 0.000000000000000 0.000000000000000 -3153.732576039049945 
0.000000000000000 1.000000000000000 0.000000000000000 0.000000000000700 
0.000000000000000 0.000000000000000 1.000000000000000 -0.000000000000694 
2  116 -1 108 -1 109 1 110 -1 111 -1 112 -1 113 -1 114 -1 103 -1 104 -1 4 -1 3 -1 2 -1 1 -1 0
1
1.000000000000000 0.000000000000000 0.000000000000000 1487.149440473208188 
0.000000000000000 1.000000000000000 0.000000000000000 -0.000000000000330 
0.000000000000000 0.000000000000000 1.000000000000000 0.000000000000327 
1
1.000000000000000 0.000000000000000 0.000000000000000 0.000000000000000 
0.000000000000000 1.000000000000000 0.000000000000000 0.000000000000000 
0.000000000000000 0.000000000000000 1.000000000000000 0.000000000000000 
1
-0.000000000000000 1.000000000000000 0.000000000000000 14.500000000000000 
-1.000000000000000 0.000000000000000 0.000000000000000 257.000000000000000 
0.000000000000000 0.000000000000000 1.000000000000000 1.400000000000000 
1
1.000000000000000 0.000000000000000 0.000000000000000 0.000000000000000 
0.000000000000000 1.000000000000000 0.000000000000000 0.000000000000000 
0.000000000000000 0.000000000000000 1.000000000000000 0.000000000000000 
1
1.000000000000000 0.000000000000000 0.000000000000000 0.000000000000000 
0.000000000000000 1.000000000000000 0.000000000000000 0.000000000000000 
0.000000000000000 0.000000000000000 1.000000000000000 0.000000000000000 
1
1.000000000000000 0.000000000000000 0.000000000000000 0.000000000000000 
0.000000000000000 1.000000000000000 0.000000000000000 0.000000000000000 
0.000000000000000 0.000000000000000 1.000000000000000 0.000000000000000 
2  118 -1 119 1 120 -1 121 -1 122 -1 123 -1 4 -1 3 -1 2 -1 1 -1 0
1
1.000000000000000 0.000000000000000 0.000000000000000 -2974.298880946416375 
0.000000000000000 1.000000000000000 0.000000000000000 0.000000000000660 
0.000000000000000 0.000000000000000 1.000000000000000 -0.000000000000654 
2  125 -1 118 -1 119 1 120 -1 121 -1 122 -1 123 -1 4 -1 3 -1 2 -1 1 -1 0
1
1.000000000000000 0.000000000000000 0.000000000000000 1576.866288019524973 
0.000000000000000 1.000000000000000 0.000000000000000 -0.000000000000350 
0.000000000000000 0.000000000000000 1.000000000000000 0.000000000000347 
1
1.000000000000000 0.000000000000000 0.000000000000000 0.000000000000000 
0.000000000000000 1.000000000000000 0.000000000000000 0.000000000000000 
0.000000000000000 0.000000000000000 1.000000000000000 0.000000000000000 
1
1.000000000000000 0.000000000000000 0.000000000000000 0.000000000000000 
0.000000000000000 1.000000000000000 0.000000000000000 0.000000000000000 
0.000000000000000 0.000000000000000 1.000000000000000 0.000000000000000 
1
1.000000000000000 0.000000000000000 0.000000000000000 0.000000000000000 
0.000000000000000 1.000000000000000 0.000000000000000 0.000000000000000 
0.000000000000000 0.000000000000000 1.000000000000000 0.000000000000000 
1
1.000000000000000 0.000000000000000 0.000000000000000 0.000000000000000 
0.000000000000000 1.000000000000000 0.000000000000000 0.000000000000000 
0.000000000000000 0.000000000000000 1.000000000000000 0.000000000000000 
1
1.000000000000000 0.000000000000000 0.000000000000000 0.000000000000000 
0.000000000000000 1.000000000000000 0.000000000000000 0.000000000000000 
0.000000000000000 0.000000000000000 1.000000000000000 0.000000000000000 
1
-0.000000000000000 1.000000000000000 0.000000000000000 14.500000000000000 
-1.000000000000000 0.000000000000000 0.000000000000000 257.000000000000000 
0.000000000000000 0.000000000000000 1.000000000000000 1.400000000000000 
2  127 -1 128 1 129 -1 130 -1 131 -1 132 -1 133 -1 122 -1 123 -1 4 -1 3 -1 2 -1 1 -1 0
1
1.000000000000000 0.000000000000000 0.000000000000000 -3153.732576039049945 
0.000000000000000 1.000000000000000 0.000000000000000 0.000000000000700 
0.000000000000000 0.000000000000000 1.000000000000000 -0.000000000000694 
2  135 -1 127 -1 128 1 129 -1 130 -1 131 -1 132 -1 133 -1 122 -1 123 -1 4 -1 3 -1 2 -1 1 -1 0
2  10 -1 9 1 8 -1 7 -1 6 -1 5 -1 4 -1 3 -1 2 -1 1 -1 0
2  12 -1 10 -1 9 1 8 -1 7 -1 6 -1 5 -1 4 -1 3 -1 2 -1 1 -1 0
2  4 1 5 1 6 1 7 1 8 1 9 -1 10 1 0
2  1 1 2 1 3 1 0
2  4 1 5 1 6 1 7 1 8 1 9 -1 10 1 12 1 0
Curve2ds 64
1 0.00000000000000000 0.00000000000000000 0.00000000000000000 -1.00000000000000000 
1 6.28318530717958623 0.00000000000000000 0.00000000000000000 -1.00000000000000000 
1 0.00000000000000000 0.00000000000000000 1.00000000000000000 0.00000000000000000 
1 0.00000000000000000 -123.50115465047340990 1.00000000000000000 0.00000000000000000 
1 0.00000000000000000 0.00000000000000000 1.00000000000000000 0.00000000000000000 
1 0.00000000000000000 -121.09895788156661922 1.00000000000000000 0.00000000000000000 
1 0.00000000000000000 0.00000000000000000 1.00000000000000000 0.00000000000000000 
1 0.00000000000000000 -1404.26035824535210850 1.00000000000000000 0.00000000000000000 
1 0.00000000000000000 0.00000000000000000 1.00000000000000000 0.00000000000000000 
1 0.00000000000000000 -1404.26035824535210850 1.00000000000000000 0.00000000000000000 
1 0.00000000000000000 0.00000000000000000 1.00000000000000000 0.00000000000000000 
1 0.00000000000000000 -2974.29888094641637508 1.00000000000000000 0.00000000000000000 
1 0.00000000000000000 0.00000000000000000 1.00000000000000000 0.00000000000000000 
1 0.00000000000000000 -3153.73257603904994539 1.00000000000000000 0.00000000000000000 
1 0.00000000000000000 0.00000000000000000 1.00000000000000000 0.00000000000000000 
1 0.00000000000000000 -3153.73257603904994539 1.00000000000000000 0.00000000000000000 
1 0.00000000000000000 0.00000000000000000 1.00000000000000000 0.00000000000000000 
1 0.00000000000000000 -3153.73257603904994539 1.00000000000000000 0.00000000000000000 
1 0.00000000000000000 0.00000000000000000 1.00000000000000000 0.00000000000000000 
1 0.00000000000000000 -1404.26035824535210850 1.00000000000000000 0.00000000000000000 
1 0.00000000000000000 0.00000000000000000 1.00000000000000000 0.00000000000000000 
1 0.00000000000000000 -1404.26035824535210850 1.00000000000000000 0.00000000000000000 
1 0.00000000000000000 0.00000000000000000 1.00000000000000000 0.00000000000000000 
1 0.00000000000000000 -2974.29888094641637508 1.00000000000000000 0.00000000000000000 
1 0.00000000000000000 0.00000000000000000 1.00000000000000000 0.00000000000000000 
1 0.00000000000000000 -3153.73257603904994539 1.00000000000000000 0.00000000000000000 
1 0.00000000000000000 0.00000000000000000 1.00000000000000000 0.00000000000000000 
1 0.00000000000000000 -2974.29888094641637508 1.00000000000000000 0.00000000000000000 
1 0.00000000000000000 0.00000000000000000 1.00000000000000000 0.00000000000000000 
1 0.00000000000000000 -3153.73257603904994539 1.00000000000000000 0.00000000000000000 
1 0.00000000000000000 0.00000000000000000 1.00000000000000000 0.00000000000000000 
1 0.00000000000000000 -2974.29888094641728458 1.00000000000000000 0.00000000000000000 
1 0.00000000000000000 0.00000000000000000 0.00000000000000000 -1.00000000000000000 
1 6.28318530717958623 0.00000000000000000 0.00000000000000000 -1.00000000000000000 
1 0.00000000000000000 0.00000000000000000 1.00000000000000000 0.00000000000000000 
1 0.00000000000000000 -123.50115465047340990 1.00000000000000000 0.00000000000000000 
1 0.00000000000000000 0.00000000000000000 1.00000000000000000 0.00000000000000000 
1 0.00000000000000000 -121.09895788156661922 1.00000000000000000 0.00000000000000000 
1 0.00000000000000000 0.00000000000000000 1.00000000000000000 0.00000000000000000 
1 0.00000000000000000 -1404.26035824535210850 1.00000000000000000 0.00000000000000000 
1 0.00000000000000000 0.00000000000000000 1.00000000000000000 0.00000000000000000 
1 0.00000000000000000 -1404.26035824535210850 1.00000000000000000 0.00000000000000000 
1 0.00000000000000000 0.00000000000000000 1.00000000000000000 0.00000000000000000 
1 0.00000000000000000 -2974.29888094641637508 1.00000000000000000 0.00000000000000000 
1 0.00000000000000000 0.00000000000000000 1.00000000000000000 0.00000000000000000 
1 0.00000000000000000 -3153.73257603904994539 1.00000000000000000 0.00000000000000000 
1 0.00000000000000000 0.00000000000000000 1.00000000000000000 0.00000000000000000 
1 0.00000000000000000 -3153.73257603904994539 1.00000000000000000 0.00000000000000000 
1 0.00000000000000000 0.00000000000000000 1.00000000000000000 0.00000000000000000 
1 0.00000000000000000 -3153.73257603904994539 1.00000000000000000 0.00000000000000000 
1 0.00000000000000000 0.00000000000000000 1.00000000000000000 0.00000000000000000 
1 0.00000000000000000 -1404.26035824535210850 1.00000000000000000 0.00000000000000000 
1 0.00000000000000000 0.00000000000000000 1.00000000000000000 0.00000000000000000 
1 0.00000000000000000 -1404.26035824535210850 1.00000000000000000 0.00000000000000000 
1 0.00000000000000000 0.00000000000000000 1.00000000000000000 0.00000000000000000 
1 0.00000000000000000 -2974.29888094641637508 1.00000000000000000 0.00000000000000000 
1 0.00000000000000000 0.00000000000000000 1.00000000000000000 0.00000000000000000 
1 0.00000000000000000 -3153.73257603904994539 1.00000000000000000 0.00000000000000000 
1 0.00000000000000000 0.00000000000000000 1.00000000000000000 0.00000000000000000 
1 0.00000000000000000 -2974.29888094641637508 1.00000000000000000 0.00000000000000000 
1 0.00000000000000000 0.00000000000000000 1.00000000000000000 0.00000000000000000 
1 0.00000000000000000 -3153.73257603904994539 1.00000000000000000 0.00000000000000000 
1 0.00000000000000000 0.00000000000000000 1.00000000000000000 0.00000000000000000 
1 0.00000000000000000 -2974.29888094641728458 1.00000000000000000 0.00000000000000000 
Curves 4
1 1501.64944047320864229 304.29999999999967031 10.50000000000032685 -1.00000000000000000 0.00000000000000022 -0.00000000000000022 
2 -20.00000000000000000 10.50000000000000000 0.00000000000000000 0.00000000000000000 0.00000000000000000 1.00000000000000000 1.00000000000000000 0.00000000000000000 -0.00000000000000000 -0.00000000000000000 1.00000000000000000 0.00000000000000000 1.69999999999999996
1 1501.64944047320864229 264.29999999999967031 10.50000000000032685 -1.00000000000000000 0.00000000000000022 -0.00000000000000022 
2 20.00000000000000000 10.50000000000000000 0.00000000000000000 0.00000000000000000 0.00000000000000000 1.00000000000000000 1.00000000000000000 0.00000000000000000 -0.00000000000000000 -0.00000000000000000 1.00000000000000000 0.00000000000000000 1.69999999999999996
Polygon3D 0
PolygonOnTriangulations 0
Surfaces 32
2 1501.64944047320864229 305.99999999999965894 10.50000000000032685 1.00000000000000000 -0.00000000000000022 -0.00000000000000000 -0.00000000000000022 -1.00000000000000000 0.00000000000000000 0.00000000000000000 -0.00000000000000000 1.00000000000000000 1.69999999999999996
2 -61.75057732523670495 -19.99999999999998579 10.50000000000001421 -1.00000000000000000 0.00000000000000022 0.00000000000000022 0.00000000000000022 1.00000000000000000 0.00000000000000000 0.00000000000000022 -0.00000000000000000 1.00000000000000000 1.69999999999999996
2 -60.54947894078330961 -19.99999999999998579 10.50000000000001421 -1.00000000000000000 0.00000000000000022 0.00000000000000022 0.00000000000000022 1.00000000000000000 0.00000000000000000 0.00000000000000022 -0.00000000000000000 1.00000000000000000 1.69999999999999996
2 -348.15241037018040515 -172.13837438675903968 369.99999999999994316 -0.86602540378443904 -0.49999999999999961 -0.00000000000000006 0.00000000000000000 0.00000000000000011 -1.00000000000000000 -0.49999999999999961 0.86602540378443904 0.00000000000000010 1.69999999999999996
2 -348.15241037018040515 -172.13837438675903968 69.99999999999997158 -0.86602540378443904 -0.49999999999999961 -0.00000000000000006 0.00000000000000000 0.00000000000000011 -1.00000000000000000 -0.49999999999999961 0.86602540378443904 0.00000000000000010 1.69999999999999996
2 1501.64944047320818754 276.99999999999965894 11.90000000000033076 1.00000000000000000 -0.00000000000000022 0.00000000000000022 -0.00000000000000022 -1.00000000000000000 0.00000000000000000 -0.00000000000000022 0.00000000000000000 1.00000000000000000 1.69999999999999996
2 1591.36628801952497270 276.99999999999965894 11.90000000000035030 1.00000000000000000 -0.00000000000000022 0.00000000000000022 -0.00000000000000022 -1.00000000000000000 0.00000000000000000 -0.00000000000000022 0.00000000000000000 1.00000000000000000 1.69999999999999996
2 1591.36628801952497270 276.99999999999965894 11.90000000000035030 1.00000000000000000 -0.00000000000000022 0.00000000000000022 -0.00000000000000022 -1.00000000000000000 0.00000000000000000 -0.00000000000000022 0.00000000000000000 1.00000000000000000 1.69999999999999996
2 1591.36628801952497270 276.99999999999965894 11.90000000000035030 1.00000000000000000 -0.00000000000000022 0.00000000000000022 -0.00000000000000022 -1.00000000000000000 0.00000000000000000 -0.00000000000000022 0.00000000000000000 1.00000000000000000 1.69999999999999996
2 -348.15241037018040515 -172.13837438675903968 369.99999999999994316 -0.86602540378443893 -0.49999999999999978 -0.00000000000000006 0.00000000000000000 0.00000000000000011 -1.00000000000000000 -0.49999999999999978 0.86602540378443893 0.00000000000000010 1.69999999999999996
2 -348.15241037018040515 -172.13837438675903968 69.99999999999997158 -0.86602540378443893 -0.49999999999999978 -0.00000000000000006 0.00000000000000000 0.00000000000000011 -1.00000000000000000 -0.49999999999999978 0.86602540378443893 0.00000000000000010 1.69999999999999996
2 1501.64944047320818754 276.99999999999965894 11.90000000000032720 1.00000000000000000 -0.00000000000000022 -0.00000000000000000 -0.00000000000000022 -1.00000000000000000 0.00000000000000000 0.00000000000000000 -0.00000000000000000 1.00000000000000000 1.69999999999999996
2 1591.36628801952497270 276.99999999999965894 11.90000000000034674 1.00000000000000000 -0.00000000000000022 -0.00000000000000000 -0.00000000000000022 -1.00000000000000000 0.00000000000000000 0.00000000000000000 -0.00000000000000000 1.00000000000000000 1.69999999999999996
2 1501.64944047320818754 276.99999999999965894 11.90000000000032720 1.00000000000000000 -0.00000000000000022 -0.00000000000000000 -0.00000000000000022 -1.00000000000000000 0.00000000000000000 0.00000000000000000 -0.00000000000000000 1.00000000000000000 1.69999999999999996
2 1591.36628801952497270 276.99999999999965894 11.90000000000034674 1.00000000000000000 -0.00000000000000022 -0.00000000000000000 -0.00000000000000022 -1.00000000000000000 0.00000000000000000 0.00000000000000000 -0.00000000000000000 1.00000000000000000 1.69999999999999996
1 -0.00000000000000101 -0.00000000000000233 10.49999999999999822 -0.00000000000000000 1.00000000000000000 0.00000000000000022 0.00000000000000000 -0.00000000000000022 1.00000000000000000 1.00000000000000000 0.00000000000000000 0.00000000000000000 
2 1501.64944047320864229 265.99999999999965894 10.50000000000032685 1.00000000000000000 -0.00000000000000022 -0.00000000000000000 -0.00000000000000022 -1.00000000000000000 0.00000000000000000 0.00000000000000000 -0.00000000000000000 1.00000000000000000 1.69999999999999996
2 -61.75057732523669785 20.00000000000001421 10.50000000000001421 -1.00000000000000000 0.00000000000000022 0.00000000000000022 0.00000000000000022 1.00000000000000000 0.00000000000000000 0.00000000000000022 -0.00000000000000000 1.00000000000000000 1.69999999999999996
2 -60.54947894078330251 20.00000000000001421 10.50000000000001421 -1.00000000000000000 0.00000000000000022 0.00000000000000022 0.00000000000000022 1.00000000000000000 0.00000000000000000 0.00000000000000022 -0.00000000000000000 1.00000000000000000 1.69999999999999996
2 -348.15241037018040515 -172.13837438675903968 329.99999999999994316 -0.86602540378443904 -0.49999999999999961 -0.00000000000000006 0.00000000000000000 0.00000000000000011 -1.00000000000000000 -0.49999999999999961 0.86602540378443904 0.00000000000000010 1.69999999999999996
2 -348.15241037018040515 -172.13837438675903968 29.99999999999996447 -0.86602540378443904 -0.49999999999999961 -0.00000000000000006 0.00000000000000000 0.00000000000000011 -1.00000000000000000 -0.49999999999999961 0.86602540378443904 0.00000000000000010 1.69999999999999996
2 1501.64944047320818754 236.99999999999965894 11.90000000000033076 1.00000000000000000 -0.00000000000000022 0.00000000000000022 -0.00000000000000022 -1.00000000000000000 0.00000000000000000 -0.00000000000000022 0.00000000000000000 1.00000000000000000 1.69999999999999996
2 1591.36628801952497270 236.99999999999965894 11.90000000000035030 1.00000000000000000 -0.00000000000000022 0.00000000000000022 -0.00000000000000022 -1.00000000000000000 0.00000000000000000 -0.00000000000000022 0.00000000000000000 1.00000000000000000 1.69999999999999996
2 1591.36628801952497270 236.99999999999965894 11.90000000000035030 1.00000000000000000 -0.00000000000000022 0.00000000000000022 -0.00000000000000022 -1.00000000000000000 0.00000000000000000 -0.00000000000000022 0.00000000000000000 1.00000000000000000 1.69999999999999996
2 1591.36628801952497270 236.99999999999965894 11.90000000000035030 1.00000000000000000 -0.00000000000000022 0.00000000000000022 -0.00000000000000022 -1.00000000000000000 0.00000000000000000 -0.00000000000000022 0.00000000000000000 1.00000000000000000 1.69999999999999996
2 -348.15241037018040515 -172.13837438675903968 329.99999999999994316 -0.86602540378443893 -0.49999999999999978 -0.00000000000000006 0.00000000000000000 0.00000000000000011 -1.00000000000000000 -0.49999999999999978 0.86602540378443893 0.00000000000000010 1.69999999999999996
2 -348.15241037018040515 -172.13837438675903968 29.99999999999996447 -0.86602540378443893 -0.49999999999999978 -0.00000000000000006 0.00000000000000000 0.00000000000000011 -1.00000000000000000 -0.49999999999999978 0.86602540378443893 0.00000000000000010 1.69999999999999996
2 1501.64944047320818754 236.99999999999965894 11.90000000000032720 1.00000000000000000 -0.00000000000000022 -0.00000000000000000 -0.00000000000000022 -1.00000000000000000 0.00000000000000000 0.00000000000000000 -0.00000000000000000 1.00000000000000000 1.69999999999999996
2 1591.36628801952497270 236.99999999999965894 11.90000000000034674 1.00000000000000000 -0.00000000000000022 -0.00000000000000000 -0.00000000000000022 -1.00000000000000000 0.00000000000000000 0.00000000000000000 -0.00000000000000000 1.00000000000000000 1.69999999999999996
2 1501.64944047320818754 236.99999999999965894 11.90000000000032720 1.00000000000000000 -0.00000000000000022 -0.00000000000000000 -0.00000000000000022 -1.00000000000000000 0.00000000000000000 0.00000000000000000 -0.00000000000000000 1.00000000000000000 1.69999999999999996
2 1591.36628801952497270 236.99999999999965894 11.90000000000034674 1.00000000000000000 -0.00000000000000022 -0.00000000000000000 -0.00000000000000022 -1.00000000000000000 0.00000000000000000 0.00000000000000000 -0.00000000000000000 1.00000000000000000 1.69999999999999996
1 -0.00000000000000101 -0.00000000000000233 10.49999999999999822 -0.00000000000000000 1.00000000000000000 0.00000000000000022 0.00000000000000000 -0.00000000000000022 1.00000000000000000 1.00000000000000000 0.00000000000000000 0.00000000000000000 
Triangulations 0

TShapes 19
Ve
0.000000100000000
-18.300000000000001 10.500000000000000 0.000000000000000
0 0

0101101
*
Ed
 0.000000100000000 1 1 0
1  1 0 0.000000000000000 2974.298880946417285
3  1 2CN 1 0 0.000000000000000 2974.298880946417285
0

0101000
+19 11 -19 13 *
Ed
 0.000000100000000 1 1 0
1  2 0 0.000000000000000 6.283185307179586
2  3 2 20 0.000000000000000 6.283185307179586
2  4 2 22 0.000000000000000 6.283185307179586
2  5 3 27 0.000000000000000 6.283185307179586
2  6 3 29 0.000000000000000 6.283185307179586
2  7 4 41 0.000000000000000 6.283185307179586
2  8 4 43 0.000000000000000 6.283185307179586
2  9 5 47 0.000000000000000 6.283185307179586
2  10 5 48 0.000000000000000 6.283185307179586
2  11 6 55 0.000000000000000 6.283185307179586
2  12 6 57 0.000000000000000 6.283185307179586
2  13 7 65 0.000000000000000 6.283185307179586
2  14 7 67 0.000000000000000 6.283185307179586
2  15 8 71 0.000000000000000 6.283185307179586
2  16 8 73 0.000000000000000 6.283185307179586
2  17 9 77 0.000000000000000 6.283185307179586
2  18 9 79 0.000000000000000 6.283185307179586
2  19 10 91 0.000000000000000 6.283185307179586
2  20 10 93 0.000000000000000 6.283185307179586
2  21 11 97 0.000000000000000 6.283185307179586
2  22 11 98 0.000000000000000 6.283185307179586
2  23 12 105 0.000000000000000 6.283185307179586
2  24 12 107 0.000000000000000 6.283185307179586
2  25 13 115 0.000000000000000 6.283185307179586
2  26 13 117 0.000000000000000 6.283185307179586
2  27 14 124 0.000000000000000 6.283185307179586
2  28 14 126 0.000000000000000 6.283185307179586
2  29 15 134 0.000000000000000 6.283185307179586
2  30 15 136 0.000000000000000 6.283185307179586
2  31 1 137 0.000000000000000 6.283185307179586
2  32 1 138 0.000000000000000 6.283185307179586
0

0101100
+19 0 -19 0 *
Wi

0101100
+18 0 -18 0 -17 11 +17 13 *
Fa
0  0.000000100000000 1 0

0111000
+16 0 *
Wi

0101100
+17 140 *
Fa
0  0.000000100000000 16 0

0111000
-14 0 *
Sh

0101100
-15 0 +13 139 -13 141 *
So

0100000
+12 0 *
Ve
0.000000100000000
21.699999999999999 10.500000000000000 0.000000000000000
0 0

0101101
*
Ed
 0.000000100000000 1 1 0
1  3 0 0.000000000000000 2974.298880946417285
3  33 34CN 17 0 0.000000000000000 2974.298880946417285
0

0101000
+10 11 -10 13 *
Ed
 0.000000100000000 1 1 0
1  4 0 0.000000000000000 6.283185307179586
2  35 18 20 0.000000000000000 6.283185307179586
2  36 18 22 0.000000000000000 6.283185307179586
2  37 19 27 0.000000000000000 6.283185307179586
2  38 19 29 0.000000000000000 6.283185307179586
2  39 20 41 0.000000000000000 6.283185307179586
2  40 20 43 0.000000000000000 6.283185307179586
2  41 21 47 0.000000000000000 6.283185307179586
2  42 21 48 0.000000000000000 6.283185307179586
2  43 22 55 0.000000000000000 6.283185307179586
2  44 22 57 0.000000000000000 6.283185307179586
2  45 23 65 0.000000000000000 6.283185307179586
2  46 23 67 0.000000000000000 6.283185307179586
2  47 24 71 0.000000000000000 6.283185307179586
2  48 24 73 0.000000000000000 6.283185307179586
2  49 25 77 0.000000000000000 6.283185307179586
2  50 25 79 0.000000000000000 6.283185307179586
2  51 26 91 0.000000000000000 6.283185307179586
2  52 26 93 0.000000000000000 6.283185307179586
2  53 27 97 0.000000000000000 6.283185307179586
2  54 27 98 0.000000000000000 6.283185307179586
2  55 28 105 0.000000000000000 6.283185307179586
2  56 28 107 0.000000000000000 6.283185307179586
2  57 29 115 0.000000000000000 6.283185307179586
2  58 29 117 0.000000000000000 6.283185307179586
2  59 30 124 0.000000000000000 6.283185307179586
2  60 30 126 0.000000000000000 6.283185307179586
2  61 31 134 0.000000000000000 6.283185307179586
2  62 31 136 0.000000000000000 6.283185307179586
2  63 17 137 0.000000000000000 6.283185307179586
2  64 17 138 0.000000000000000 6.283185307179586
0

0101100
+10 0 -10 0 *
Wi

0101100
+9 0 -9 0 -8 11 +8 13 *
Fa
0  0.000000100000000 17 0

0111000
+7 0 *
Wi

0101100
+8 140 *
Fa
0  0.000000100000000 32 0

0111000
-5 0 *
Sh

0101100
-6 0 +4 139 -4 141 *
So

0100000
+3 0 *
Co

1100000
+11 0 +2 0 *

+1 0 