
CASCADE Topology V1, (c) Matra-Datavision
Locations 45
1
1.000000000000000 0.000000000000000 0.000000000000000 0.000000000000000 
0.000000000000000 1.000000000000000 0.000000000000000 0.000000000000000 
0.000000000000000 0.000000000000000 1.000000000000000 0.000000000000000 
1
1.000000000000000 0.000000000000000 0.000000000000000 -50.500000000000000 
0.000000000000000 1.000000000000000 0.000000000000000 0.000000000000011 
0.000000000000000 0.000000000000000 1.000000000000000 -0.000000000000014 
1
1.000000000000000 0.000000000000000 0.000000000000000 101.000000000000000 
0.000000000000000 1.000000000000000 0.000000000000000 -0.000000000000022 
0.000000000000000 0.000000000000000 1.000000000000000 0.000000000000028 
2  2 1 3 1 0
1
1.000000000000000 0.000000000000000 0.000000000000000 0.000000000000000 
0.000000000000000 1.000000000000000 0.000000000000000 0.000000000000000 
0.000000000000000 0.000000000000000 1.000000000000000 0.000000000000000 
1
1.000000000000000 0.000000000000000 0.000000000000000 0.000000000000000 
0.000000000000000 1.000000000000000 0.000000000000000 0.000000000000000 
0.000000000000000 0.000000000000000 1.000000000000000 0.000000000000000 
2  5 1 6 1 1 -1 0
1
1.000000000000000 0.000000000000000 0.000000000000000 0.000000000000000 
0.000000000000000 1.000000000000000 0.000000000000000 0.000000000000000 
0.000000000000000 0.000000000000000 1.000000000000000 0.000000000000000 
2  5 1 8 1 1 -1 0
1
1.000000000000000 0.000000000000000 0.000000000000000 0.000000000000000 
0.000000000000000 1.000000000000000 0.000000000000000 0.000000000000000 
0.000000000000000 0.000000000000000 1.000000000000000 0.000000000000000 
1
1.000000000000000 0.000000000000000 0.000000000000000 0.000000000000000 
0.000000000000000 1.000000000000000 0.000000000000000 0.000000000000000 
0.000000000000000 0.000000000000000 1.000000000000000 0.000000000000000 
2  10 1 11 1 1 -1 0
2  3 -1 2 -1 0
2  2 -1 0
1
1.000000000000000 0.000000000000000 0.000000000000000 0.000000000000000 
0.000000000000000 1.000000000000000 0.000000000000000 0.000000000000000 
0.000000000000000 0.000000000000000 1.000000000000000 0.000000000000000 
2  15 1 1 -1 0
1
1.000000000000000 0.000000000000000 0.000000000000000 0.000000000000000 
0.000000000000000 1.000000000000000 0.000000000000000 0.000000000000000 
0.000000000000000 0.000000000000000 1.000000000000000 0.000000000000000 
2  17 1 1 -1 0
1
1.000000000000000 0.000000000000000 0.000000000000000 0.000000000000000 
0.000000000000000 1.000000000000000 0.000000000000000 0.000000000000000 
0.000000000000000 0.000000000000000 1.000000000000000 0.000000000000000 
2  19 1 1 -1 0
1
1.000000000000000 0.000000000000000 0.000000000000000 0.000000000000000 
0.000000000000000 1.000000000000000 0.000000000000000 0.000000000000000 
0.000000000000000 0.000000000000000 1.000000000000000 0.000000000000000 
1
1.000000000000000 0.000000000000000 0.000000000000000 0.000000000000000 
0.000000000000000 1.000000000000000 0.000000000000000 0.000000000000000 
0.000000000000000 0.000000000000000 1.000000000000000 0.000000000000000 
1
1.000000000000000 0.000000000000000 0.000000000000000 0.000000000000000 
0.000000000000000 1.000000000000000 0.000000000000000 0.000000000000000 
0.000000000000000 0.000000000000000 1.000000000000000 0.000000000000000 
2  21 1 22 -1 23 1 1 -1 2 -1 0
1
1.000000000000000 0.000000000000000 0.000000000000000 0.000000000000000 
0.000000000000000 1.000000000000000 0.000000000000000 0.000000000000000 
0.000000000000000 0.000000000000000 1.000000000000000 0.000000000000000 
2  25 1 1 -1 0
2  21 1 22 -1 23 1 1 -1 0
1
1.000000000000000 0.000000000000000 0.000000000000000 0.000000000000000 
0.000000000000000 1.000000000000000 0.000000000000000 0.000000000000000 
0.000000000000000 0.000000000000000 1.000000000000000 0.000000000000000 
2  28 1 22 -1 23 1 1 -1 0
2  23 1 1 -1 0
2  15 1 1 -1 3 -1 2 -1 0
2  15 1 1 -1 2 -1 0
2  17 1 1 -1 3 -1 2 -1 0
2  17 1 1 -1 2 -1 0
2  19 1 1 -1 3 -1 2 -1 0
2  19 1 1 -1 2 -1 0
1
1.000000000000000 0.000000000000000 0.000000000000000 0.000000000000000 
0.000000000000000 1.000000000000000 0.000000000000000 0.000000000000000 
0.000000000000000 0.000000000000000 1.000000000000000 0.000000000000000 
1
1.000000000000000 0.000000000000000 0.000000000000000 0.000000000000000 
0.000000000000000 1.000000000000000 0.000000000000000 0.000000000000000 
0.000000000000000 0.000000000000000 1.000000000000000 0.000000000000000 
2  37 1 38 -1 25 1 1 -1 0
1
1.000000000000000 0.000000000000000 0.000000000000000 0.000000000000000 
0.000000000000000 1.000000000000000 0.000000000000000 0.000000000000000 
0.000000000000000 0.000000000000000 1.000000000000000 0.000000000000000 
1
1.000000000000000 0.000000000000000 0.000000000000000 0.000000000000000 
0.000000000000000 1.000000000000000 0.000000000000000 0.000000000000000 
0.000000000000000 0.000000000000000 1.000000000000000 0.000000000000000 
2  40 1 41 -1 17 1 1 -1 0
1
1.000000000000000 0.000000000000000 0.000000000000000 0.000000000000000 
0.000000000000000 1.000000000000000 0.000000000000000 0.000000000000000 
0.000000000000000 0.000000000000000 1.000000000000000 0.000000000000000 
1
1.000000000000000 0.000000000000000 0.000000000000000 0.000000000000000 
0.000000000000000 1.000000000000000 0.000000000000000 0.000000000000000 
0.000000000000000 0.000000000000000 1.000000000000000 0.000000000000000 
2  43 1 44 -1 19 1 1 -1 0
Curve2ds 133
1 6.28318530717958623 0.00000000000000000 0.00000000000000000 -1.00000000000000000 
1 -0.00000000000000056 -1.99999999999999978 1.00000000000000000 0.00000000000000000 
1 0.00000000000000056 -2.00000000000000000 -1.00000000000000000 0.00000000000000000 
1 0.00000000000000000 0.00000000000000000 0.00000000000000000 -1.00000000000000000 
1 36.00000000000000000 -0.00000000000000089 0.00000000000000000 -1.00000000000000000 
1 -0.00000000000000056 -2.00000000000000000 1.00000000000000000 0.00000000000000000 
1 -50.50000000009958967 -31.64562378472445658 1.00000000000000000 -0.00000000000000022 
1 -50.50000000009958967 -31.64562378472445658 1.00000000000000000 -0.00000000000000022 
1 -50.50000000009958967 -31.64562378472446369 1.00000000000000000 -0.00000000000000022 
1 0.00000000000000000 0.00000000000000000 1.00000000000000000 -0.00000000000000000 
1 -0.00000000000000011 -2.00000000000000000 -1.00000000000000000 0.00000000000000000 
1 -0.00000000000000011 -2.00000000000000000 1.00000000000000000 0.00000000000000000 
1 -4.00000000000000000 0.00000000000000089 1.00000000000000000 -0.00000000000000000 
1 -4.00000000000000000 -101.00000000000000000 1.00000000000000000 -0.00000000000000000 
1 4.71238898038468967 0.00000000000000000 0.00000000000000000 -1.00000000000000000 
1 -0.00000000000000044 -2.00000000000000000 1.00000000000000000 -0.00000000000000000 
1 0.00000000000000044 -2.00000000000000000 -1.00000000000000000 0.00000000000000000 
1 106.00000000000000000 0.00000000000000222 -0.00000000000000006 -1.00000000000000000 
1 -0.00000000000128608 -3.99999999999998579 1.00000000000000000 -0.00000000000000028 
1 -0.00000000000128608 -3.99999999999998579 1.00000000000000000 -0.00000000000000028 
1 -0.00000000000128608 -3.99999999999998579 1.00000000000000000 -0.00000000000000028 
1 -4.71238898038468967 101.00000000000000000 1.00000000000000000 0.00000000000000000 
1 0.00000000000000000 0.00000000000000000 1.00000000000000000 0.00000000000000000 
1 0.00000000000000000 -101.00000000000000000 1.00000000000000000 0.00000000000000000 
1 6.28318530717958623 0.00000000000000000 -1.00000000000000000 0.00000000000000000 
1 0.00000000000000000 0.00000000000000000 1.00000000000000000 0.00000000000000000 
2 31.00000000000001421 -3.99999999999998845 1.00000000000000000 -0.00000000000000022 -0.00000000000000022 -1.00000000000000000 4.00000000000000000
6 0 1 -40.00000000000000000 -2.00000000000000000  -39.99999999999999289 0.00000000000000000  
6 0 1 101.00000000000000000 -2.00000000000000000  101.00000000000000000 0.00000000000000000  
1 36.00000000000000000 -0.00000000000000089 0.00000000000000000 -1.00000000000000000 
1 0.00000000000000000 0.00000000000000000 1.00000000000000000 0.00000000000000000 
6 0 1 40.00000000000000000 -2.00000000000000000  40.00000000000000000 0.00000000000000000  
6 0 1 0.00000000000000000 -2.00000000000000000  0.00000000000000000 0.00000000000000000  
1 -4.00000000000000000 0.00000000000000089 1.00000000000000000 -0.00000000000000000 
1 0.00000000000000000 0.00000000000000000 1.00000000000000000 0.00000000000000000 
1 -3.99995063205751933 -1.99999999999998601 1.00000000000000000 -0.00000000000000022 
6 0 1 0.00000000000000000 -2.00000000000000000  0.00000000000000000 0.00000000000000000  
6 0 1 4.00000000000000000 -2.00000000000000000  4.00000000000000000 0.00000000000000000  
8 0.00000000000000000 1.00000000000000000
1 6.28318530717958623 0.00000000000000000 0.00000000000000000 1.00000000000000000 
6 0 1 35.00000000000001421 -3.99999999999998890  33.00000000000001421 -3.99999999999998890  
6 0 1 4.00000000000001510 -3.99999999999998890  2.00000000000001510 -3.99999999999998890  
6 0 1 -4.00000000000000000 -2.00000000000000000  -4.00000000000000000 0.00000000000000000  
6 0 1 -101.00000000000000000 -2.00000000000000000  -101.00000000000000000 0.00000000000000000  
8 0.00000000000000000 1.00000000000000000
1 0.00000000000000000 0.00000000000000000 0.00000000000000000 1.00000000000000000 
1 -4.00000000000000000 -101.00000000000000000 1.00000000000000000 -0.00000000000000000 
1 0.00000000000000000 0.00000000000000000 -1.00000000000000000 0.00000000000000000 
1 -4.00000000000013411 -2.00000000000001421 1.00000000000000000 -0.00000000000000022 
1 -3.99999999999998934 -2.00000000000001421 1.00000000000000000 -0.00000000000000022 
1 0.00000000000000000 0.00000000000000000 -0.00000000000000006 -1.00000000000000000 
1 0.00000000000000044 -2.00000000000000000 -1.00000000000000000 -0.00000000000000000 
1 -0.00000000000130740 -109.99999999999998579 1.00000000000000000 -0.00000000000000028 
1 -0.00000000000130740 -109.99999999999998579 1.00000000000000000 -0.00000000000000028 
1 -0.00000000000130740 -109.99999999999998579 1.00000000000000000 -0.00000000000000028 
1 0.00000000000000000 0.00000000000000000 1.00000000000000000 0.00000000000000000 
1 0.00000000000000044 -2.00000000000000000 -1.00000000000000000 0.00000000000000000 
1 -0.00000000000000044 -2.00000000000000000 1.00000000000000000 0.00000000000000000 
1 0.00000000000000000 0.00000000000000000 1.00000000000000000 0.00000000000000000 
1 -0.00000000000000600 -101.00000000000000000 1.00000000000000000 0.00000000000000000 
1 0.00000000000337523 -110.00000000000001421 0.00000000000000022 1.00000000000000000 
1 -0.00000000000130740 -109.99999999999998579 0.00000000000000022 1.00000000000000000 
1 100.99999999999869260 -110.00000000000001421 0.00000000000000022 1.00000000000000000 
1 3.99999999829447939 -109.99999999999998579 -0.00000000000000022 1.00000000000000000 
1 0.00000000000337523 -110.00000000000001421 0.00000000000000022 1.00000000000000000 
1 -0.00000000000130740 -109.99999999999998579 0.00000000000000022 1.00000000000000000 
1 100.99999999999869260 -110.00000000000001421 0.00000000000000022 1.00000000000000000 
1 3.99999999829447939 -109.99999999999998579 -0.00000000000000022 1.00000000000000000 
1 0.00000000000337542 -110.00000000000001421 0.00000000000000022 1.00000000000000000 
1 -0.00000000000130740 -109.99999999999998579 0.00000000000000022 1.00000000000000000 
1 100.99999999999869260 -110.00000000000001421 0.00000000000000022 1.00000000000000000 
1 3.99999999829447939 -109.99999999999998579 -0.00000000000000022 1.00000000000000000 
1 0.00000000000000000 1.00000000000000000 1.00000000000000000 0.00000000000000000 
2 31.00000000000001421 -3.99999999999998845 1.00000000000000000 -0.00000000000000022 -0.00000000000000022 -1.00000000000000000 2.00000000000000000
2 0.00000000000001510 -3.99999999999998890 1.00000000000000000 -0.00000000000000022 -0.00000000000000022 -1.00000000000000000 2.00000000000000000
2 0.00000000000001510 -3.99999999999998890 1.00000000000000000 -0.00000000000000022 -0.00000000000000022 -1.00000000000000000 2.00000000000000000
2 -0.00000000170554415 -3.99999999999998668 -0.00000000000000044 1.00000000000000000 -1.00000000000000000 -0.00000000000000044 2.00000000000000000
2 -0.00000000170554415 -3.99999999999998668 -0.00000000000000044 1.00000000000000000 -1.00000000000000000 -0.00000000000000044 2.00000000000000000
2 0.00000000000001421 -3.99999999999998801 1.00000000000000000 -0.00000000000000044 -0.00000000000000044 -1.00000000000000000 2.00000000000000000
2 -0.00000000170554415 -3.99999999999998668 -0.00000000000000044 1.00000000000000000 -1.00000000000000000 -0.00000000000000044 2.00000000000000000
2 0.00000000000001421 -3.99999999999998801 1.00000000000000000 -0.00000000000000044 -0.00000000000000044 -1.00000000000000000 2.00000000000000000
1 4.71238898038468967 0.00000000000000000 0.00000000000000000 1.00000000000000000 
6 0 1 0.00000000000000000 -2.00000000000000000  0.00000000000000000 0.00000000000000000  
6 0 1 106.00000000000000000 -2.00000000000000000  106.00000000000000000 0.00000000000000000  
6 0 1 31.00000000000001421 0.00000000000001121  31.00000000000001421 -1.99999999999998890  
6 0 1 3.99999999829445585 -3.99999999999998579  1.99999999829445585 -3.99999999999998623  
6 0 1 3.99999999829445585 -3.99999999999998579  1.99999999829445585 -3.99999999999998623  
6 0 1 3.99999999829445585 -3.99999999999998579  1.99999999829445585 -3.99999999999998623  
1 1.57079632679489656 0.00000000000000000 0.00000000000000000 1.00000000000000000 
7 0 0  1 2 2  -101.00000000000000000 -1.99999999999999978  -101.00000000000000000 0.00000000000000044 
 0.00000000000000000 2 1.00000000000000000 2
7 0 0  1 2 2  -106.00000000000000000 -2.00000000000000000  -106.00000000000000000 0.00000000000000000 
 0.00000000000000000 2 1.00000000000000000 2
7 0 0  1 2 2  4.00000000000001332 -0.00000000000001132  4.00000000000001332 -2.00000000000001155 
 0.00000000000000000 2 1.00000000000000000 2
7 0 0  1 2 2  4.00000000000001332 -0.00000000000001132  4.00000000000001332 -2.00000000000001155 
 0.00000000000000000 2 1.00000000000000000 2
7 0 0  1 2 2  4.00000000000001332 -0.00000000000001132  4.00000000000001332 -2.00000000000001155 
 0.00000000000000000 2 1.00000000000000000 2
7 0 0  1 2 2  0.00000000000339909 -4.00000000000001332  2.00000000000339950 -4.00000000000001421 
 0.00000000000000000 2 1.00000000000000000 2
7 0 0  1 2 2  0.00000000000339909 -4.00000000000001332  2.00000000000339950 -4.00000000000001421 
 0.00000000000000000 2 1.00000000000000000 2
7 0 0  1 2 2  4.00000000000001332 -0.00000000000001044  4.00000000000001421 -2.00000000000001066 
 0.00000000000000000 2 1.00000000000000000 2
7 0 0  1 2 2  0.00000000000339928 -4.00000000000001332  2.00000000000339950 -4.00000000000001421 
 0.00000000000000000 2 1.00000000000000000 2
7 0 0  1 2 2  4.00000000000001332 -0.00000000000001044  4.00000000000001421 -2.00000000000001066 
 0.00000000000000000 2 1.00000000000000000 2
1 6.28318530717958623 1.00000000000000000 -1.00000000000000000 0.00000000000000000 
2 4.00000000000001421 -4.00000000000001155 -1.00000000000000000 -0.00000000000000022 0.00000000000000022 -1.00000000000000000 2.00000000000000000
2 4.00000000000001421 -4.00000000000001155 -1.00000000000000000 -0.00000000000000022 0.00000000000000022 -1.00000000000000000 2.00000000000000000
2 4.00000000000001421 -4.00000000000001155 -1.00000000000000000 -0.00000000000000022 0.00000000000000022 -1.00000000000000000 2.00000000000000000
2 4.00000000000339906 -4.00000000000001510 0.00000000000000044 1.00000000000000000 1.00000000000000000 -0.00000000000000044 2.00000000000000000
2 4.00000000000339906 -4.00000000000001510 0.00000000000000044 1.00000000000000000 1.00000000000000000 -0.00000000000000044 2.00000000000000000
2 4.00000000000001510 -4.00000000000001066 -1.00000000000000000 -0.00000000000000044 0.00000000000000044 -1.00000000000000000 2.00000000000000000
2 4.00000000000339995 -4.00000000000001510 0.00000000000000044 1.00000000000000000 1.00000000000000000 -0.00000000000000044 2.00000000000000000
2 4.00000000000001510 -4.00000000000001066 -1.00000000000000000 -0.00000000000000044 0.00000000000000044 -1.00000000000000000 2.00000000000000000
1 0.00000000000000000 0.00000000000000000 0.00000000000000000 -1.00000000000000000 
1 0.00000000000000000 0.00000000000000000 -1.00000000000000000 0.00000000000000000 
8 0.00000000000000000 101.00000000000000000
1 6.28318530717958623 0.00000000000000000 0.00000000000000000 -1.00000000000000000 
6 0 1 0.00000000000000000 -2.00000000000000000  0.00000000000000000 0.00000000000000000  
6 0 1 0.00000000000000000 -2.00000000000000000  0.00000000000000000 0.00000000000000000  
6 0 1 3.99999999829447939 -109.99999999999998579  1.99999999829447939 -109.99999999999998579  
6 0 1 3.99999999829447939 -109.99999999999998579  1.99999999829447939 -109.99999999999998579  
6 0 1 3.99999999829447939 -109.99999999999998579  1.99999999829447939 -109.99999999999998579  
1 0.00000000000000000 0.00000000000000000 -0.00000000000000006 -1.00000000000000000 
1 0.00000000000000000 -0.00000000000000000 -1.00000000000000000 -0.00000000000000000 
6 0 1 0.00000000000000000 -2.00000000000000044  0.00000000000000000 0.00000000000000000  
6 0 1 -101.00000000000000000 -2.00000000000000000  -101.00000000000000000 0.00000000000000000  
6 0 1 0.00000000000337544 -110.00000000000001421  2.00000000000337552 -110.00000000000001421  
6 0 1 0.00000000000337544 -110.00000000000001421  2.00000000000337552 -110.00000000000001421  
6 0 1 0.00000000000337563 -110.00000000000001421  2.00000000000337597 -110.00000000000001421  
1 0.00000000000000000 0.00000000000000000 1.00000000000000000 0.00000000000000000 
1 0.00000000000000000 0.00000000000000000 1.00000000000000000 0.00000000000000000 
1 1.99999999829447939 -109.99999999999998579 -0.00000000000000022 1.00000000000000000 
1 1.99999999829447939 -109.99999999999998579 -0.00000000000000022 1.00000000000000000 
1 1.99999999829447939 -109.99999999999998579 -0.00000000000000022 1.00000000000000000 
1 -0.00000000000000600 -101.00000000000000000 1.00000000000000000 0.00000000000000000 
1 0.00000000000000000 0.00000000000000000 -1.00000000000000000 0.00000000000000000 
1 2.00000000000337552 -110.00000000000001421 0.00000000000000022 1.00000000000000000 
1 2.00000000000337552 -110.00000000000001421 0.00000000000000022 1.00000000000000000 
1 2.00000000000337597 -110.00000000000001421 0.00000000000000022 1.00000000000000000 
1 0.00000000000000000 0.00000000000000000 -1.00000000000000000 -0.00000000000000000 
1 106.00000000000000000 0.00000000000000222 -0.00000000000000006 -1.00000000000000000 
Curves 25
1 -50.50000000000000000 -3.99999999999998890 -0.00000000000001313 1.00000000000000000 -0.00000000000000022 0.00000000000000028 
1 -50.50000000000000711 -39.99999999999998579 -0.00000000000000513 1.00000000000000000 -0.00000000000000022 0.00000000000000028 
1 0.00000000000000000 0.00000000000000000 0.00000000000000000 -0.00000000000000022 -1.00000000000000000 0.00000000000000022 
1 -50.50000000000000000 0.00000000000001210 3.99999999999998579 1.00000000000000000 -0.00000000000000022 0.00000000000000028 
2 0.00000000000000178 -3.99999999999999911 4.00000000000000089 -1.00000000000000000 0.00000000000000022 -0.00000000000000028 0.00000000000000028 -0.00000000000000044 -1.00000000000000000 -0.00000000000000022 -1.00000000000000000 0.00000000000000044 4.00000000000000000
6 0 1 50.49999999999999289 -40.00000000000001421 0.00000000000002290  50.49999999999998579 -40.00000000000000711 2.00000000000002309  
1 -50.50000000000000711 -39.99999999999998579 1.99999999999999489 1.00000000000000000 -0.00000000000000022 0.00000000000000028 
6 0 1 -50.50000000000000711 -39.99999999999998579 -0.00000000000000513  -50.50000000000000711 -39.99999999999998579 1.99999999999999489  
1 -50.50000000000000000 0.00000000000001155 1.99999999999998601 -0.00000000000000022 -1.00000000000000000 0.00000000000000022 
6 0 1 -50.50000000000000000 -3.99999999999998890 -0.00000000000001313  -50.50000000000000000 -3.99999999999998845 1.99999999999998690  
6 0 1 50.50000000000000000 -4.00000000000001155 0.00000000000001490  50.50000000000000000 -4.00000000000001066 2.00000000000001510  
1 50.50000000000000000 -0.00000000000001066 2.00000000000001421 -0.00000000000000022 -1.00000000000000000 0.00000000000000022 
1 -50.50000000000002132 0.00000000000003564 109.99999999999998579 1.00000000000000000 -0.00000000000000022 0.00000000000000028 
1 -0.00000000000002442 0.00000000000002442 110.00000000000000000 0.00000000000000022 -0.00000000000000022 -1.00000000000000000 
2 -50.50000000000000000 -3.99999999999998801 3.99999999999998668 -1.00000000000000000 0.00000000000000022 -0.00000000000000028 0.00000000000000028 -0.00000000000000044 -1.00000000000000000 -0.00000000000000022 -1.00000000000000000 0.00000000000000044 2.00000000000000000
6 0 1 -50.50000000000000000 0.00000000000001210 3.99999999999998579  -50.50000000000000000 -1.99999999999998801 3.99999999999998623  
7 0 0  1 2 2  50.50000000000000000 -0.00000000000001044 4.00000000000001332  50.50000000000000000 -2.00000000000001066 4.00000000000001421 
 0.00000000000000000 2 1.00000000000000000 2
2 50.50000000000000000 -4.00000000000001066 4.00000000000001510 -1.00000000000000000 0.00000000000000022 -0.00000000000000028 0.00000000000000028 -0.00000000000000044 -1.00000000000000000 -0.00000000000000022 -1.00000000000000000 0.00000000000000044 2.00000000000000000
1 -50.50000000000000000 -3.99999999999998845 1.99999999999998690 1.00000000000000000 -0.00000000000000022 0.00000000000000028 
6 0 1 -50.50000000000002132 0.00000000000003564 109.99999999999998579  -50.50000000000002132 -1.99999999999996447 109.99999999999998579  
1 -50.50000000000002132 -1.99999999999996447 109.99999999999998579 1.00000000000000000 -0.00000000000000022 0.00000000000000028 
6 0 1 50.49999999999997868 0.00000000000001321 110.00000000000001421  50.49999999999997868 -1.99999999999998690 110.00000000000001421  
1 -50.50000000000002132 -1.99999999999996447 109.99999999999998579 0.00000000000000022 -0.00000000000000022 -1.00000000000000000 
1 50.49999999999997868 -1.99999999999998690 110.00000000000001421 0.00000000000000022 -0.00000000000000022 -1.00000000000000000 
1 -50.50000000000000000 -1.99999999999998801 3.99999999999998623 1.00000000000000000 -0.00000000000000022 0.00000000000000028 
Polygon3D 0
PolygonOnTriangulations 0
Surfaces 45
1 -50.50000000000000000 -3.99999999999998890 -0.00000000000001313 0.00000000000000028 -0.00000000000000022 -1.00000000000000000 -0.00000000000000022 -1.00000000000000000 0.00000000000000022 -1.00000000000000000 0.00000000000000022 -0.00000000000000028 
2 -50.50000000000000000 -3.99999999999998801 3.99999999999998668 -1.00000000000000000 0.00000000000000022 -0.00000000000000028 0.00000000000000028 -0.00000000000000044 -1.00000000000000000 -0.00000000000000022 -1.00000000000000000 0.00000000000000044 4.00000000000000000
1 -50.50000000000000000 -3.99999999999998845 1.99999999999998668 -0.00000000000000022 -1.00000000000000000 0.00000000000000022 1.00000000000000000 -0.00000000000000022 0.00000000000000028 -0.00000000000000028 0.00000000000000022 1.00000000000000000 
1 -50.50000000000000000 -3.99999999999998845 1.99999999999998690 0.00000000000000022 1.00000000000000000 -0.00000000000000022 -1.00000000000000000 0.00000000000000022 -0.00000000000000028 -0.00000000000000028 0.00000000000000022 1.00000000000000000 
1 -50.50000000000000711 -39.99999999999998579 1.99999999999999489 -0.00000000000000022 -1.00000000000000000 0.00000000000000000 1.00000000000000000 -0.00000000000000022 0.00000000000000028 -0.00000000000000028 0.00000000000000000 1.00000000000000000 
1 0.00000000009958144 -8.35437621527552920 0.00000000000000000 0.00000000000000000 0.00000000000000000 1.00000000000000000 1.00000000000000000 0.00000000000000000 -0.00000000000000000 -0.00000000000000000 1.00000000000000000 0.00000000000000000 
1 0.00000000009958476 -8.35437621527552210 0.00000000000000000 0.00000000000000000 0.00000000000000000 1.00000000000000000 1.00000000000000000 0.00000000000000000 -0.00000000000000000 -0.00000000000000000 1.00000000000000000 0.00000000000000000 
1 0.00000000000000000 0.00000000000000000 0.00000000000000000 0.00000000000000028 -0.00000000000000022 -1.00000000000000000 -0.00000000000000022 -1.00000000000000000 0.00000000000000022 -1.00000000000000000 0.00000000000000022 -0.00000000000000028 
1 50.50000000000000000 -0.00000000000001066 2.00000000000001421 1.00000000000000000 -0.00000000000000022 0.00000000000000000 0.00000000000000022 1.00000000000000000 -0.00000000000000022 0.00000000000000000 0.00000000000000022 1.00000000000000000 
1 -50.50000000000000000 0.00000000000001155 1.99999999999998601 -1.00000000000000000 0.00000000000000022 -0.00000000000000000 -0.00000000000000022 -1.00000000000000000 0.00000000000000022 0.00000000000000000 0.00000000000000022 1.00000000000000000 
1 -50.50000000000002132 0.00000000000003564 109.99999999999998579 0.00000000000000022 1.00000000000000000 -0.00000000000000022 0.00000000000000022 -0.00000000000000022 -1.00000000000000000 -1.00000000000000000 0.00000000000000022 -0.00000000000000022 
1 -50.50000000000000000 -1.99999999999998801 3.99999999999998579 0.00000000000000028 0.00000000000000000 -1.00000000000000000 1.00000000000000000 -0.00000000000000022 0.00000000000000028 -0.00000000000000022 -1.00000000000000000 -0.00000000000000000 
1 -50.50000000000000000 -1.99999999999998801 3.99999999999998623 -0.00000000000000028 0.00000000000000022 1.00000000000000000 -1.00000000000000000 0.00000000000000022 -0.00000000000000028 -0.00000000000000022 -1.00000000000000000 0.00000000000000022 
1 -50.49999999999871392 0.00000000000338865 0.00000000000000000 0.00000000000000000 1.00000000000000000 0.00000000000000000 1.00000000000000000 0.00000000000000000 0.00000000000000000 0.00000000000000000 0.00000000000000000 -1.00000000000000000 
1 -50.49999999999871392 0.00000000000338865 0.00000000000000000 0.00000000000000000 1.00000000000000000 0.00000000000000000 1.00000000000000000 0.00000000000000000 0.00000000000000000 0.00000000000000000 0.00000000000000000 -1.00000000000000000 
1 -50.49999999999871392 0.00000000000338884 0.00000000000000000 0.00000000000000000 1.00000000000000000 0.00000000000000000 1.00000000000000000 0.00000000000000000 0.00000000000000000 0.00000000000000000 0.00000000000000000 -1.00000000000000000 
2 101.00000000000000000 -4.00000000000002132 4.00000000000002842 -1.00000000000000000 0.00000000000000022 -0.00000000000000028 0.00000000000000022 1.00000000000000000 -0.00000000000000022 0.00000000000000028 -0.00000000000000022 -1.00000000000000000 4.00000000000000000
9 0 0 0 0 8 1 9 2 2 2 50.50000000000000000 -4.00000000000001243 0.00000000000001488  50.50000000000000000 -4.00000000000001155 2.00000000000001510  
50.50000000000007105 -3.21460183660256238 0.00000000000001309  50.50000000000007105 -3.60730091830128963 2.00000000000001554  
50.49999999999972999 -2.42920342598316807 0.17624315584483591  50.49999999999972999 -3.21460171299158004 2.08812157792241138  
50.50000000000054712 -1.68994706265973260 0.52872773651426996  50.50000000000054712 -2.84497353132989295 2.26436386825717539  
50.49999999999933209 -1.04296497688047163 1.04296497688047918  50.49999999999933209 -2.52148248844020806 2.52148248844019962  
50.50000000000056133 -0.52872773651427329 1.68994706265972949  50.50000000000056133 -2.26436386825717406 2.84497353132991426  
50.49999999999971578 -0.17624315584482936 2.42920342598317252  50.49999999999971578 -2.08812157792240338 3.21460171299156983  
50.50000000000007816 -0.00000000000000922 3.21460183660256194  50.50000000000007816 -2.00000000000001332 3.60730091830129629  
50.50000000000000000 -0.00000000000001044 4.00000000000001332  50.50000000000000000 -2.00000000000001066 4.00000000000001421  

0.00000000000000000 9
1.57079632679489656 9

0.00000000000000000 2
1.00000000000000000 2

9 0 0 0 0 8 1 9 2 2 2 -50.49999999999995737 0.00000000000001199 3.99999999999998312  -50.49999999999995737 -1.99999999999998579 3.99999999999998224  
-50.49999999999943157 0.00000000000001968 3.21460183660251708  -50.49999999999943157 -1.99999999999997513 3.60730091830123989  
-50.50000000000197531 -0.17624315584483524 2.42920342598319561  -50.50000000000197531 -2.08812157792244690 3.21460171299163466  
-50.49999999999669598 -0.52872773651419891 1.68994706265961825  -50.49999999999669598 -2.26436386825703284 2.84497353132973352  
-50.50000000000345324 -1.04296497688049361 1.04296497688054957  -50.50000000000345324 -2.52148248844030354 2.52148248844032530  
-50.49999999999754863 -1.68994706265968930 0.52872773651416094  -50.49999999999754863 -2.84497353132979258 2.26436386825704306  
-50.50000000000113687 -2.42920342598315031 0.17624315584484981  -50.50000000000113687 -3.21460171299159203 2.08812157792242914  
-50.49999999999972289 -3.21460183660253662 -0.00000000000002669  -50.49999999999972289 -3.60730091830125588 1.99999999999997824  
-50.50000000000000000 -3.99999999999998845 -0.00000000000001332  -50.50000000000000000 -3.99999999999998801 1.99999999999998623  

4.71238898038468967 9
6.28318530717958623 9

0.00000000000000000 2
1.00000000000000000 2

1 -50.50000000000000000 0.00000000000000777 35.00000000000000000 1.00000000000000000 -0.00000000000000000 0.00000000000000000 0.00000000000000000 -0.00000000000000022 -1.00000000000000000 0.00000000000000000 1.00000000000000000 -0.00000000000000022 
1 -50.50000000000000000 -3.99999999999998845 1.99999999999998690 0.00000000000000028 -0.00000000000000022 -1.00000000000000000 -0.00000000000000022 -1.00000000000000000 0.00000000000000022 -1.00000000000000000 0.00000000000000022 -0.00000000000000028 
1 -50.50000000000000711 -3.99995063205750778 0.00000000000000000 1.00000000000000000 0.00000000000000000 -0.00000000000000000 0.00000000000000000 -1.00000000000000000 0.00000000000000000 0.00000000000000000 -0.00000000000000000 -1.00000000000000000 
1 -50.50000000000000000 0.00000000000000089 4.00000000000000089 1.00000000000000000 -0.00000000000000000 0.00000000000000000 0.00000000000000000 -0.00000000000000022 -1.00000000000000000 0.00000000000000000 1.00000000000000000 -0.00000000000000022 
1 50.50000000000000000 -4.00000000000014477 0.00000000000000000 1.00000000000000000 0.00000000000000000 -0.00000000000000000 0.00000000000000000 -1.00000000000000000 0.00000000000000000 0.00000000000000000 -0.00000000000000000 -1.00000000000000000 
1 50.50000000000000000 -4.00000000000000000 0.00000000000000000 1.00000000000000000 0.00000000000000000 -0.00000000000000000 0.00000000000000000 -1.00000000000000000 0.00000000000000000 0.00000000000000000 -0.00000000000000000 -1.00000000000000000 
1 -50.50000000000002132 -1.99999999999996447 109.99999999999998579 -0.00000000000000028 0.00000000000000000 1.00000000000000000 -1.00000000000000000 0.00000000000000022 -0.00000000000000028 -0.00000000000000022 -1.00000000000000000 -0.00000000000000000 
1 -0.00000000000002442 0.00000000000002442 110.00000000000000000 0.00000000000000022 1.00000000000000000 -0.00000000000000022 0.00000000000000022 -0.00000000000000022 -1.00000000000000000 -1.00000000000000000 0.00000000000000022 -0.00000000000000022 
1 50.49999999999997868 -1.99999999999998690 110.00000000000001421 1.00000000000000000 0.00000000000000000 0.00000000000000022 -0.00000000000000022 0.00000000000000022 1.00000000000000000 -0.00000000000000000 -1.00000000000000000 0.00000000000000022 
1 -50.50000000000002132 -1.99999999999996447 109.99999999999998579 -1.00000000000000000 -0.00000000000000000 -0.00000000000000022 0.00000000000000022 -0.00000000000000022 -1.00000000000000000 -0.00000000000000000 -1.00000000000000000 0.00000000000000022 
1 50.49999999999870681 0.00000000000338865 0.00000000000000000 1.00000000000000000 0.00000000000000000 -0.00000000000000000 0.00000000000000000 -1.00000000000000000 0.00000000000000000 0.00000000000000000 -0.00000000000000000 -1.00000000000000000 
1 -50.49999999999871392 -3.99999999829444386 0.00000000000000000 -1.00000000000000000 0.00000000000000000 0.00000000000000000 0.00000000000000000 1.00000000000000000 0.00000000000000000 0.00000000000000000 0.00000000000000000 -1.00000000000000000 
1 50.49999999999870681 0.00000000000338865 0.00000000000000000 1.00000000000000000 0.00000000000000000 -0.00000000000000000 0.00000000000000000 -1.00000000000000000 0.00000000000000000 0.00000000000000000 -0.00000000000000000 -1.00000000000000000 
1 -50.49999999999871392 -3.99999999829444386 0.00000000000000000 -1.00000000000000000 0.00000000000000000 0.00000000000000000 0.00000000000000000 1.00000000000000000 0.00000000000000000 0.00000000000000000 0.00000000000000000 -1.00000000000000000 
1 50.49999999999870681 0.00000000000338884 0.00000000000000000 1.00000000000000000 0.00000000000000000 -0.00000000000000000 0.00000000000000000 -1.00000000000000000 0.00000000000000000 0.00000000000000000 -0.00000000000000000 -1.00000000000000000 
1 -50.49999999999871392 -3.99999999829444386 0.00000000000000000 -1.00000000000000000 0.00000000000000000 0.00000000000000000 0.00000000000000000 1.00000000000000000 0.00000000000000000 0.00000000000000000 0.00000000000000000 -1.00000000000000000 
2 -50.50000000000000000 -3.99999999999998801 3.99999999999998668 -1.00000000000000000 0.00000000000000022 -0.00000000000000028 0.00000000000000028 -0.00000000000000044 -1.00000000000000000 -0.00000000000000022 -1.00000000000000000 0.00000000000000044 2.00000000000000000
1 -50.50000000000000000 0.00000000000000089 4.00000000000000089 1.00000000000000000 -0.00000000000000000 0.00000000000000000 0.00000000000000000 -0.00000000000000022 -1.00000000000000000 0.00000000000000000 1.00000000000000000 -0.00000000000000022 
1 -50.50000000000000000 0.00000000000000000 4.00000000000000089 1.00000000000000000 0.00000000000000000 0.00000000000000000 0.00000000000000000 0.00000000000000000 -1.00000000000000000 -0.00000000000000000 1.00000000000000000 0.00000000000000000 
1 -50.50000000000000000 0.00000000000000000 4.00000000000000089 1.00000000000000000 0.00000000000000000 0.00000000000000000 0.00000000000000000 0.00000000000000000 -1.00000000000000000 -0.00000000000000000 1.00000000000000000 0.00000000000000000 
1 50.50000000000000000 0.00000000000000000 0.00000000000000000 -1.00000000000000000 0.00000000000000000 -0.00000000000000000 0.00000000000000000 0.00000000000000022 1.00000000000000000 0.00000000000000000 1.00000000000000000 -0.00000000000000022 
1 50.50000000000000000 0.00000000000000000 0.00000000000000000 -1.00000000000000000 0.00000000000000000 -0.00000000000000000 0.00000000000000000 0.00000000000000022 1.00000000000000000 0.00000000000000000 1.00000000000000000 -0.00000000000000022 
1 50.50000000000000000 0.00000000000000000 0.00000000000000000 -1.00000000000000000 0.00000000000000000 -0.00000000000000000 0.00000000000000000 0.00000000000000022 1.00000000000000000 0.00000000000000000 1.00000000000000000 -0.00000000000000022 
1 50.50000000000000000 0.00000000000000000 0.00000000000000000 -1.00000000000000000 0.00000000000000000 0.00000000000000000 0.00000000000000000 0.00000000000000000 1.00000000000000000 0.00000000000000000 1.00000000000000000 -0.00000000000000000 
1 50.50000000000000000 0.00000000000000000 0.00000000000000000 -1.00000000000000000 0.00000000000000000 0.00000000000000000 0.00000000000000000 0.00000000000000000 1.00000000000000000 0.00000000000000000 1.00000000000000000 -0.00000000000000000 
1 -50.50000000000002132 -1.99999999999996447 109.99999999999998579 0.00000000000000022 1.00000000000000000 -0.00000000000000022 0.00000000000000022 -0.00000000000000022 -1.00000000000000000 -1.00000000000000000 0.00000000000000022 -0.00000000000000022 
Triangulations 0

TShapes 68
Ve
0.001000000000000
-0.000000000000001 -4.000000000000000 0.000000000000001
0 0

0101101
*
Ed
 0.001000000000000 1 1 0
1  1 0 0.000000000000000 101.000000000000000
2  1 2 0 0.000000000000000 101.000000000000000
4 G1 1 0 2 0
2  2 3 0 0.000000000000000 101.000000000000000
2  3 4 0 0.000000000000000 101.000000000000000
2  4 1 0 0.000000000000000 101.000000000000000
0

0101000
+68 2 -68 4 *
Ve
0.001000000000000
-0.000000000000009 -40.000000000000000 0.000000000000009
0 0

0101101
*
Ed
 0.001000000000000 1 1 0
1  2 0 0.000000000000000 101.000000000000000
2  5 1 0 0.000000000000000 101.000000000000000
2  6 5 0 0.000000000000000 101.000000000000000
2  7 6 7 0.000000000000000 101.000000000000000
2  8 6 9 0.000000000000000 101.000000000000000
2  9 7 12 0.000000000000000 101.000000000000000
0

0101000
+66 2 -66 4 *
Ed
 0.001000000000000 1 1 0
2  10 8 0 4.000000000000000 40.000000000000000
1  3 0 4.000000000000000 40.000000000000000
2  11 9 13 4.000000000000000 40.000000000000000
2  12 10 14 4.000000000000000 40.000000000000000
2  13 1 14 4.000000000000000 40.000000000000000
2  14 1 13 4.000000000000000 40.000000000000000
0

0101000
+68 0 -66 0 *
Wi

0101100
+67 0 -65 0 -64 2 +64 4 *
Fa
0  0.001000000000000 1 0

0101000
+63 0 *
Ve
0.001000000000000
-0.000000000000001 0.000000000000001 4.000000000000000
0 0

0101101
*
Ed
 0.001000000000000 1 1 0
1  4 0 0.000000000000000 101.000000000000000
2  15 2 0 0.000000000000000 101.000000000000000
4 G1 2 0 11 0
2  16 12 0 0.000000000000000 101.000000000000000
2  17 13 0 0.000000000000000 101.000000000000000
2  18 11 0 0.000000000000000 101.000000000000000
2  19 14 16 0.000000000000000 101.000000000000000
2  20 15 18 0.000000000000000 101.000000000000000
2  21 16 20 0.000000000000000 101.000000000000000
0

0101000
+61 2 -61 4 *
Ed
 0.000001000000000 1 1 0
2  22 17 0 4.712388980384690 6.283185307179586
1  5 0 4.712388980384690 6.283185307179586
2  23 2 14 4.712388980384690 6.283185307179586
2  24 2 13 4.712388980384690 6.283185307179586
2  25 18 13 4.712388980384690 6.283185307179586
2  26 19 14 4.712388980384690 6.283185307179586
2  27 20 24 4.712388980384690 6.283185307179586
0

0101000
+61 0 -68 0 *
Wi

0101100
+60 0 -67 0 -59 2 +59 4 *
Fa
0  0.000000100000002 2 0

0101000
+58 0 *
Ve
0.001000000000000
50.499999999999986 -40.000000000000007 2.000000000000023
0 0

0101101
*
Ed
 0.000000100000000 1 1 0
1  6 0 0.000000000000000 1.000000000000000
4 C0 5 0 9 0
2  28 9 0 0.000000000000000 1.000000000000000
2  29 5 0 0.000000000000000 1.000000000000000
0

0101000
+66 4 -56 0 *
Ve
0.001000000000000
-50.500000000000007 -39.999999999999986 1.999999999999995
0 0

0101101
*
Ed
 0.001000000000000 1 1 0
2  30 21 0 0.000000000000000 101.000000000000000
1  7 0 0.000000000000000 101.000000000000000
2  31 5 0 0.000000000000000 101.000000000000000
0

0101000
+54 0 -56 0 *
Ed
 0.000000100000000 1 1 0
1  8 0 0.000000000000000 1.000000000000000
4 C0 5 0 10 0
2  32 10 0 0.000000000000000 1.000000000000000
2  33 5 0 0.000000000000000 1.000000000000000
0

0101000
+66 2 -54 0 *
Wi

0101000
+65 0 +55 0 -53 0 -52 0 *
Fa
0  0.000000100000000 5 0

0101000
+51 0 *
Ve
0.001000050001000
-50.500000000000000 -3.999999999999988 1.999999999999987
0 0

0101101
*
Ed
 0.001000000000000 1 1 0
2  34 21 0 4.000000000000000 40.000000000000000
1  9 0 4.000000000000000 40.000000000000000
2  35 10 0 4.000000000000000 40.000000000000000
2  36 22 26 4.000000000000000 40.000000000000000
0

0101000
+49 0 -54 0 *
Ed
 0.000001000000000 1 1 0
1  10 0 0.000000000000000 1.000000000000000
4 C0 4 0 10 0
2  37 4 0 0.000000000000000 1.000000000000000
2  38 10 0 0.000000000000000 1.000000000000000
2  39 19 0 0.000000000000000 1.000000000000000
2  40 20 27 0.000000000000000 1.000000000000000
2  41 23 29 0.000000000000000 1.000000000000000
0

0101000
+68 2 -49 0 *
Wi

0101100
+64 2 +52 0 -48 0 -47 0 *
Fa
0  0.000000100000000 10 0

0101000
+46 0 *
Ve
0.001000050001000
50.500000000000000 -4.000000000000011 2.000000000000015
0 0

0101101
*
Ed
 0.000000100000001 1 1 0
1  11 0 0.000000000000000 1.000000000000000
4 C0 9 0 4 0
2  42 9 0 0.000000000000000 1.000000000000000
2  43 4 0 0.000000000000000 1.000000000000000
2  44 18 0 0.000000000000000 1.000000000000000
0

0101000
+68 4 -44 0 *
Ed
 0.001000000000000 1 1 0
2  45 21 0 4.000000000000000 40.000000000000000
1  12 0 4.000000000000000 40.000000000000000
2  46 9 0 4.000000000000000 40.000000000000000
2  47 24 30 4.000000000000000 40.000000000000000
2  48 25 26 4.000000000000000 40.000000000000000
0

0101000
+44 0 -56 0 *
Wi

0101100
-64 4 +43 0 +42 0 -55 0 *
Fa
0  0.000000100000000 9 0

0101000
+41 0 *
Ve
0.001000000000000
-0.000000000000024 0.000000000000024 110.000000000000000
0 0

0101101
*
Ed
 0.001000000000000 1 1 0
1  13 0 0.000000000000000 101.000000000000000
2  49 11 0 0.000000000000000 101.000000000000000
2  50 26 0 0.000000000000000 101.000000000000000
2  51 14 16 0.000000000000000 101.000000000000000
2  52 15 18 0.000000000000000 101.000000000000000
2  53 16 20 0.000000000000000 101.000000000000000
0

0101000
+39 2 -39 4 *
Ed
 0.001000000000000 1 1 0
2  54 27 0 0.000000000000000 106.000000000000000
1  14 0 0.000000000000000 106.000000000000000
2  55 28 13 0.000000000000000 106.000000000000000
2  56 29 14 0.000000000000000 106.000000000000000
2  57 11 14 0.000000000000000 106.000000000000000
2  58 11 13 0.000000000000000 106.000000000000000
2  59 30 31 0.000000000000000 106.000000000000000
2  60 14 32 0.000000000000000 106.000000000000000
2  61 14 31 0.000000000000000 106.000000000000000
2  62 31 32 0.000000000000000 106.000000000000000
2  63 32 33 0.000000000000000 106.000000000000000
2  64 15 34 0.000000000000000 106.000000000000000
2  65 15 33 0.000000000000000 106.000000000000000
2  66 33 34 0.000000000000000 106.000000000000000
2  67 34 35 0.000000000000000 106.000000000000000
2  68 16 36 0.000000000000000 106.000000000000000
2  69 16 35 0.000000000000000 106.000000000000000
2  70 35 36 0.000000000000000 106.000000000000000
0

0101000
+39 0 -61 0 *
Wi

0101100
+38 0 -60 0 -37 2 +37 4 *
Fa
0  0.001000000000000 11 0

0101000
+36 0 *
Ve
0.001000050001000
-50.500000000000000 -1.999999999999988 3.999999999999986
0 0

0101101
*
Ed
 0.000001000000000 1 1 0
2  23 36 0 4.712388980384690 6.283185307179586
1  15 0 4.712388980384690 6.283185307179586
2  71 19 0 4.712388980384690 6.283185307179586
2  72 20 27 4.712388980384690 6.283185307179586
2  73 23 29 4.712388980384690 6.283185307179586
2  74 37 39 4.712388980384690 6.283185307179586
2  75 31 16 4.712388980384690 6.283185307179586
2  76 33 18 4.712388980384690 6.283185307179586
2  77 38 42 4.712388980384690 6.283185307179586
2  78 35 20 4.712388980384690 6.283185307179586
2  79 39 45 4.712388980384690 6.283185307179586
0

0101000
+34 0 -49 0 *
Ed
 0.000001000000000 1 1 0
1  16 0 0.000000000000000 1.000000000000000
2  80 19 0 0.000000000000000 1.000000000000000
4 C0 13 0 19 0
2  81 13 0 0.000000000000000 1.000000000000000
2  82 29 0 0.000000000000000 1.000000000000000
2  83 20 27 0.000000000000000 1.000000000000000
2  84 31 16 0.000000000000000 1.000000000000000
2  85 33 18 0.000000000000000 1.000000000000000
2  86 35 20 0.000000000000000 1.000000000000000
0

0101000
+61 2 -34 0 *
Wi

0101100
+59 2 +47 0 -33 0 -32 0 *
Fa
0  0.000000100000000 19 0

0101000
+31 0 *
Ve
0.001000000000004
50.500000000000000 -2.000000000000011 4.000000000000014
0 0

0101101
*
Ed
 0.000001000000000 1 1 0
1  17 0 0.000000000000000 1.000000000000000
2  87 18 0 0.000000000000000 1.000000000000000
4 C0 18 0 13 0
2  88 13 0 0.000000000000000 1.000000000000000
2  89 28 0 0.000000000000000 1.000000000000000
2  90 40 27 0.000000000000000 1.000000000000000
2  91 41 29 0.000000000000000 1.000000000000000
2  92 42 39 0.000000000000000 1.000000000000000
2  93 30 16 0.000000000000000 1.000000000000000
2  94 32 18 0.000000000000000 1.000000000000000
2  95 43 42 0.000000000000000 1.000000000000000
2  96 34 20 0.000000000000000 1.000000000000000
2  97 44 45 0.000000000000000 1.000000000000000
0

0101000
+61 4 -29 0 *
Ed
 0.000001000000000 1 1 0
2  24 36 0 4.712388980384690 6.283185307179586
1  18 0 4.712388980384690 6.283185307179586
2  98 18 0 4.712388980384690 6.283185307179586
2  99 40 27 4.712388980384690 6.283185307179586
2  100 41 29 4.712388980384690 6.283185307179586
2  101 42 39 4.712388980384690 6.283185307179586
2  102 30 16 4.712388980384690 6.283185307179586
2  103 32 18 4.712388980384690 6.283185307179586
2  104 43 42 4.712388980384690 6.283185307179586
2  105 34 20 4.712388980384690 6.283185307179586
2  106 44 45 4.712388980384690 6.283185307179586
0

0101000
+29 0 -44 0 *
Wi

0101100
-59 4 +28 0 +27 0 -43 0 *
Fa
0  0.000000100000000 18 0

0101000
+26 0 *
Ed
 0.001000000000000 1 1 0
2  107 21 0 0.000000000000000 101.000000000000000
1  19 0 0.000000000000000 101.000000000000000
2  108 4 0 0.000000000000000 101.000000000000000
2  109 36 0 0.000000000000000 101.000000000000000
0

0101000
+49 0 -44 0 *
Wi

0101100
+24 0 -53 0 -48 0 +42 0 *
Fa
0  0.001000000000000 21 0

0101000
+23 0 *
Ve
0.001000000000000
-50.500000000000021 -1.999999999999964 109.999999999999986
0 0

0101101
*
Ed
 0.000000500001307 1 1 0
1  20 0 0.000000000000000 1.000000000000000
4 C0 26 0 29 0
2  110 29 0 0.000000000000000 1.000000000000000
2  111 26 0 0.000000000000000 1.000000000000000
2  112 31 16 0.000000000000000 1.000000000000000
2  113 33 18 0.000000000000000 1.000000000000000
2  114 35 20 0.000000000000000 1.000000000000000
0

0101000
+39 2 -21 0 *
Ve
0.001000000000000
50.499999999999979 -1.999999999999987 110.000000000000014
0 0

0101101
*
Ed
 0.001000000000000 1 1 0
2  115 45 0 0.000000000000000 101.000000000000000
1  21 0 0.000000000000000 101.000000000000000
2  116 26 0 0.000000000000000 101.000000000000000
0

0101000
+21 0 -19 0 *
Ed
 0.000000500001272 1 1 0
1  22 0 0.000000000000000 1.000000000000000
4 C0 28 0 26 0
2  117 28 0 0.000000000000000 1.000000000000000
2  118 26 0 0.000000000000000 1.000000000000000
2  119 30 16 0.000000000000000 1.000000000000000
2  120 32 18 0.000000000000000 1.000000000000000
2  121 34 20 0.000000000000000 1.000000000000000
0

0101000
+39 4 -19 0 *
Wi

0101000
-38 0 +20 0 +18 0 -17 0 *
Fa
0  0.000000100000000 26 0

0101000
+16 0 *
Ed
 0.001000000000000 1 1 0
2  122 45 0 0.000000000000000 106.000000000000000
1  23 0 0.000000000000000 106.000000000000000
2  123 29 0 0.000000000000000 106.000000000000000
2  124 31 16 0.000000000000000 106.000000000000000
2  125 33 18 0.000000000000000 106.000000000000000
2  126 35 20 0.000000000000000 106.000000000000000
0

0101000
+21 0 -34 0 *
Wi

0101100
+37 2 +32 0 -14 0 -20 0 *
Fa
0  0.000000100000000 29 0

0101000
+13 0 *
Ed
 0.001000000000000 1 1 0
2  127 45 0 0.000000000000000 106.000000000000000
1  24 0 0.000000000000000 106.000000000000000
2  128 28 0 0.000000000000000 106.000000000000000
2  129 30 16 0.000000000000000 106.000000000000000
2  130 32 18 0.000000000000000 106.000000000000000
2  131 34 20 0.000000000000000 106.000000000000000
0

0101000
+19 0 -29 0 *
Wi

0101100
-37 4 +17 0 +11 0 -28 0 *
Fa
0  0.000000100000000 28 0

0101000
+10 0 *
Ed
 0.001000000000000 1 1 0
2  15 36 0 0.000000000000000 101.000000000000000
1  25 0 0.000000000000000 101.000000000000000
2  132 13 0 0.000000000000000 101.000000000000000
2  133 45 0 0.000000000000000 101.000000000000000
0

0101000
+34 0 -29 0 *
Wi

0101100
+8 0 -24 0 -33 0 +27 0 *
Fa
0  0.000000100000002 36 0

0101000
+7 0 *
Wi

0101100
+18 0 -8 0 -14 0 +11 0 *
Fa
0  0.001000000000000 45 0

0101000
+5 0 *
Sh

0101100
+62 0 +57 0 +50 0 +45 0 +40 0 +35 0 +30 0 +25 0 -22 0 +15 0 
+12 0 +9 0 -6 0 -4 0 *
So

0100000
+3 0 *
Co

1100000
+2 0 *

+1 1 