
CASCADE Topology V1, (c) Matra-Datavision
Locations 34
1
1.000000000000000 0.000000000000000 0.000000000000000 0.000000000000000 
0.000000000000000 1.000000000000000 0.000000000000000 0.000000000000000 
0.000000000000000 0.000000000000000 1.000000000000000 0.000000000000000 
1
1.000000000000000 0.000000000000000 0.000000000000000 0.000000000000000 
0.000000000000000 1.000000000000000 0.000000000000000 0.000000000000000 
0.000000000000000 0.000000000000000 1.000000000000000 0.000000000000000 
1
1.000000000000000 0.000000000000000 0.000000000000000 0.000000000000000 
0.000000000000000 1.000000000000000 0.000000000000000 0.000000000000000 
0.000000000000000 0.000000000000000 1.000000000000000 0.000000000000000 
1
1.000000000000000 0.000000000000000 0.000000000000000 0.000000000000000 
0.000000000000000 1.000000000000000 0.000000000000000 0.000000000000000 
0.000000000000000 0.000000000000000 1.000000000000000 0.000000000000000 
1
1.000000000000000 0.000000000000000 0.000000000000000 0.000000000000000 
0.000000000000000 1.000000000000000 0.000000000000000 0.000000000000000 
0.000000000000000 0.000000000000000 1.000000000000000 0.000000000000000 
2  2 1 3 -1 4 1 5 -1 0
1
1.000000000000000 0.000000000000000 0.000000000000000 0.000000000000000 
0.000000000000000 1.000000000000000 0.000000000000000 0.000000000000000 
0.000000000000000 0.000000000000000 1.000000000000000 0.000000000000000 
1
1.000000000000000 0.000000000000000 0.000000000000000 0.000000000000000 
0.000000000000000 1.000000000000000 0.000000000000000 0.000000000000000 
0.000000000000000 0.000000000000000 1.000000000000000 0.000000000000000 
1
1.000000000000000 0.000000000000000 0.000000000000000 0.000000000000000 
0.000000000000000 1.000000000000000 0.000000000000000 0.000000000000000 
0.000000000000000 0.000000000000000 1.000000000000000 0.000000000000000 
2  7 1 8 1 9 -1 0
1
1.000000000000000 0.000000000000000 0.000000000000000 0.000000000000000 
0.000000000000000 1.000000000000000 0.000000000000000 0.000000000000000 
0.000000000000000 0.000000000000000 1.000000000000000 18.000000000000000 
2  7 1 8 1 9 -1 11 1 0
2  9 1 8 -1 7 -1 0
2  11 -1 9 1 8 -1 7 -1 0
2  7 1 8 1 9 -1 2 1 3 -1 4 1 5 -1 0
2  4 1 5 -1 0
2  7 1 8 1 9 -1 2 1 3 -1 0
1
1.000000000000000 0.000000000000000 0.000000000000000 -22.500000000000004 
0.000000000000000 1.000000000000000 0.000000000000000 136.000000000000000 
0.000000000000000 0.000000000000000 1.000000000000000 18.000000000000000 
1
1.000000000000000 0.000000000000000 0.000000000000000 -22.499999999999996 
0.000000000000000 1.000000000000000 0.000000000000000 161.000000000000000 
0.000000000000000 0.000000000000000 1.000000000000000 18.000000000000000 
1
1.000000000000000 0.000000000000000 0.000000000000000 22.499999999999996 
0.000000000000000 1.000000000000000 0.000000000000000 136.000000000000000 
0.000000000000000 0.000000000000000 1.000000000000000 18.000000000000000 
1
1.000000000000000 0.000000000000000 0.000000000000000 22.500000000000004 
0.000000000000000 1.000000000000000 0.000000000000000 161.000000000000000 
0.000000000000000 0.000000000000000 1.000000000000000 18.000000000000000 
2  7 1 8 1 9 -1 11 1 2 1 3 -1 4 1 5 -1 0
2  18 1 4 1 5 -1 0
2  7 1 8 1 9 -1 11 1 2 1 3 -1 19 -1 0
2  7 1 8 1 9 -1 11 1 2 1 3 -1 18 -1 0
2  7 1 8 1 9 -1 11 1 2 1 3 -1 21 -1 0
2  7 1 8 1 9 -1 11 1 2 1 3 -1 20 -1 0
2  19 1 4 1 5 -1 0
2  20 1 4 1 5 -1 0
2  21 1 4 1 5 -1 0
2  18 -1 0
2  19 -1 0
2  20 -1 0
2  21 -1 0
Curve2ds 124
1 6.84773629520138982 0.00000000000000000 0.00000000000000000 -1.00000000000000000 
1 0.56455098802180270 0.00000000000000000 0.00000000000000000 -1.00000000000000000 
1 7.50891659728787708 0.00000000000000000 0.00000000000000000 -1.00000000000000000 
1 1.22573129010829085 0.00000000000000000 0.00000000000000000 -1.00000000000000000 
1 0.00000000000000000 0.00000000000000000 1.00000000000000000 0.00000000000000000 
1 0.00000000000000000 -18.00000000000000000 1.00000000000000000 0.00000000000000000 
2 255.70454913011639064 161.93962032611540280 1.00000000000000000 0.00000000000000000 -0.00000000000000000 1.00000000000000000 46.50000000000000000
1 -6.28318530717958623 -18.00000000000000000 1.00000000000000000 0.00000000000000000 
1 -6.28318530717958623 0.00000000000000000 1.00000000000000000 0.00000000000000000 
2 -0.00000000000001316 0.00000000000002677 1.00000000000000000 0.00000000000000000 -0.00000000000000000 1.00000000000000000 349.17021174407386752
1 0.00000000000000000 0.00000000000000000 1.00000000000000000 0.00000000000000000 
1 0.00000000000000000 -18.00000000000000000 1.00000000000000000 0.00000000000000000 
1 7.33038285837618453 0.00000000000000000 -1.00000000000000000 0.00000000000000000 
1 7.33038285837618453 -18.00000000000000000 -1.00000000000000000 0.00000000000000000 
2 0.00000000000000816 0.00000000000012625 0.50000000000000033 0.86602540378443860 0.86602540378443860 -0.50000000000000033 349.17021174407392436
1 6.84773629520138893 0.00000000000000000 0.00000000000000000 -1.00000000000000000 
1 6.84773629520138893 0.00000000000000000 0.00000000000000000 -1.00000000000000000 
1 0.48264656317479498 0.00000000000000000 0.00000000000000000 -1.00000000000000000 
1 1.22573129010829085 0.00000000000000000 0.00000000000000000 -1.00000000000000000 
1 7.50891659728787708 0.00000000000000000 0.00000000000000000 -1.00000000000000000 
1 1.91586136348150249 0.00000000000000000 0.00000000000000000 -1.00000000000000000 
1 0.00000000000000000 0.00000000000000000 1.00000000000000000 0.00000000000000000 
1 0.00000000000000000 -18.00000000000000000 1.00000000000000000 0.00000000000000000 
1 3.14159265358979312 0.00000000000000000 -1.00000000000000000 0.00000000000000000 
1 3.14159265358979312 -18.00000000000000000 -1.00000000000000000 0.00000000000000000 
2 -0.00000000000001316 -549.44557738923845136 -1.00000000000000000 0.00000000000000000 0.00000000000000000 1.00000000000000000 802.44557738923845136
1 0.00000000000000000 0.00000000000000000 1.00000000000000000 0.00000000000000000 
1 0.00000000000000000 -18.00000000000000000 1.00000000000000000 0.00000000000000000 
2 -0.00000000000001316 -549.44557738923845136 1.00000000000000000 0.00000000000000000 -0.00000000000000000 1.00000000000000000 802.44557738923845136
1 0.00000000000000000 0.00000000000000000 1.00000000000000000 0.00000000000000000 
1 0.00000000000000000 -18.00000000000000000 1.00000000000000000 0.00000000000000000 
2 268.09609964668106841 140.47682524686925376 0.50000000000000033 0.86602540378443860 0.86602540378443860 -0.50000000000000033 46.50000000000000000
1 0.00000000000000000 0.00000000000000000 1.00000000000000000 0.00000000000000000 
1 0.00000000000000000 -18.00000000000000000 1.00000000000000000 0.00000000000000000 
1 3.14159265358979312 -0.00000000000000000 -1.00000000000000000 0.00000000000000000 
1 3.14159265358979312 -18.00000000000000000 -1.00000000000000000 0.00000000000000000 
2 -475.83382801608922819 274.72278869461950990 0.50000000000000033 0.86602540378443860 0.86602540378443860 -0.50000000000000033 802.44557738923845136
1 0.00000000000000000 0.00000000000000000 1.00000000000000000 0.00000000000000000 
1 0.00000000000000000 -18.00000000000000000 1.00000000000000000 0.00000000000000000 
2 -475.83382801608922819 274.72278869461950990 -0.50000000000000033 -0.86602540378443860 0.86602540378443860 -0.50000000000000033 802.44557738923867873
1 0.00000000000000000 0.00000000000000000 1.00000000000000000 0.00000000000000000 
1 0.00000000000000000 -18.00000000000000000 1.00000000000000000 0.00000000000000000 
2 -255.70454913011639064 161.93962032611540280 -1.00000000000000000 0.00000000000000000 0.00000000000000000 1.00000000000000000 46.50000000000000000
1 0.00000000000000000 0.00000000000000000 1.00000000000000000 0.00000000000000000 
1 0.00000000000000000 -18.00000000000000000 1.00000000000000000 0.00000000000000000 
2 12.39155051656448769 -302.41644557298451446 -0.50000000000000033 -0.86602540378443860 0.86602540378443860 -0.50000000000000033 46.50000000000002842
1 -6.28318530717958623 0.00000000000000000 1.00000000000000000 0.00000000000000000 
1 -6.28318530717958623 -18.00000000000000000 1.00000000000000000 0.00000000000000000 
2 -0.00000000000001316 0.00000000000002677 -1.00000000000000000 0.00000000000000000 0.00000000000000000 1.00000000000000000 349.17021174407386752
1 0.00000000000000000 0.00000000000000000 1.00000000000000000 0.00000000000000000 
1 0.00000000000000000 -18.00000000000000000 1.00000000000000000 0.00000000000000000 
1 7.33038285837618542 0.00000000000000000 -1.00000000000000000 0.00000000000000000 
1 7.33038285837618542 -18.00000000000000000 -1.00000000000000000 0.00000000000000000 
2 0.00000000000000816 0.00000000000012625 -0.50000000000000033 -0.86602540378443860 0.86602540378443860 -0.50000000000000033 349.17021174407392436
1 0.00000000000000000 0.00000000000000000 1.00000000000000000 0.00000000000000000 
1 0.00000000000000000 -18.00000000000000000 1.00000000000000000 0.00000000000000000 
1 7.33038285837618364 0.00000000000000000 -1.00000000000000000 0.00000000000000000 
1 7.33038285837618364 -18.00000000000000000 -1.00000000000000000 0.00000000000000000 
2 0.00000000000007211 -0.00000000000000165 -0.50000000000000056 0.86602540378443837 -0.86602540378443837 -0.50000000000000056 349.17021174407392436
1 -6.28318530717958623 0.00000000000000000 1.00000000000000000 0.00000000000000000 
1 -6.28318530717958623 -18.00000000000000000 1.00000000000000000 0.00000000000000000 
2 0.00000000000007211 -0.00000000000000165 0.50000000000000056 -0.86602540378443837 -0.86602540378443837 -0.50000000000000056 349.17021174407392436
1 0.00000000000000000 0.00000000000000000 1.00000000000000000 0.00000000000000000 
1 0.00000000000000000 -18.00000000000000000 1.00000000000000000 0.00000000000000000 
2 -268.09609964668106841 140.47682524686908323 -0.50000000000000056 0.86602540378443837 -0.86602540378443837 -0.50000000000000056 46.50000000000002842
1 0.00000000000000000 0.00000000000000000 1.00000000000000000 0.00000000000000000 
1 0.00000000000000000 -18.00000000000000000 1.00000000000000000 0.00000000000000000 
2 -12.39155051656429585 -302.41644557298468499 0.50000000000000056 -0.86602540378443837 -0.86602540378443837 -0.50000000000000056 46.49999999999999289
1 0.00000000000000000 0.00000000000000000 1.00000000000000000 0.00000000000000000 
1 0.00000000000000000 -18.00000000000000000 1.00000000000000000 0.00000000000000000 
2 475.83382801608934187 274.72278869461956674 -0.50000000000000056 0.86602540378443837 -0.86602540378443837 -0.50000000000000056 802.44557738923867873
1 0.00000000000000000 0.00000000000000000 1.00000000000000000 0.00000000000000000 
1 0.00000000000000000 -18.00000000000000000 1.00000000000000000 0.00000000000000000 
1 3.14159265358979312 0.00000000000000000 -1.00000000000000000 0.00000000000000000 
1 3.14159265358979312 -18.00000000000000000 -1.00000000000000000 0.00000000000000000 
2 475.83382801608934187 274.72278869461956674 0.50000000000000056 -0.86602540378443837 -0.86602540378443837 -0.50000000000000056 802.44557738923867873
2 -0.00000000000001316 0.00000000000002677 1.00000000000000000 0.00000000000000000 -0.00000000000000000 1.00000000000000000 30.00000000000000000
1 0.00000000000000000 -897.75190496531763529 1.00000000000000000 0.00000000000000000 
2 -22.50000000000001776 136.00000000000002842 1.00000000000000000 0.00000000000000000 0.00000000000000000 -1.00000000000000000 2.75000000000000000
1 6.28318530717958623 12.50000000000000000 -1.00000000000000000 0.00000000000000000 
2 -22.50000000000001066 161.00000000000002842 1.00000000000000000 0.00000000000000000 0.00000000000000000 -1.00000000000000000 2.75000000000000000
1 6.28318530717958623 12.50000000000000000 -1.00000000000000000 0.00000000000000000 
2 22.49999999999998224 136.00000000000002842 1.00000000000000000 0.00000000000000000 0.00000000000000000 -1.00000000000000000 2.75000000000000000
1 6.28318530717958623 12.50000000000000000 -1.00000000000000000 0.00000000000000000 
2 22.49999999999998934 161.00000000000002842 1.00000000000000000 0.00000000000000000 0.00000000000000000 -1.00000000000000000 2.75000000000000000
1 6.28318530717958623 12.50000000000000000 -1.00000000000000000 0.00000000000000000 
2 -0.00000000000001316 0.00000000000002677 1.00000000000000000 0.00000000000000000 -0.00000000000000000 1.00000000000000000 30.00000000000000000
1 0.00000000000000000 -879.75190496531763529 1.00000000000000000 0.00000000000000000 
2 0.00000000000000000 0.00000000000000000 -1.00000000000000000 0.00000000000000000 0.00000000000000000 1.00000000000000000 8.00000000000000000
1 0.00000000000000000 0.00000000000000000 1.00000000000000000 0.00000000000000000 
2 -22.50000000000001066 161.00000000000002842 1.00000000000000000 0.00000000000000000 -0.00000000000000000 1.00000000000000000 8.00000000000000000
2 -22.50000000000001776 136.00000000000002842 1.00000000000000000 0.00000000000000000 -0.00000000000000000 1.00000000000000000 8.00000000000000000
2 22.49999999999998934 161.00000000000002842 1.00000000000000000 0.00000000000000000 -0.00000000000000000 1.00000000000000000 8.00000000000000000
2 22.49999999999998224 136.00000000000002842 1.00000000000000000 0.00000000000000000 -0.00000000000000000 1.00000000000000000 8.00000000000000000
1 1.22573129010829085 0.00000000000000000 0.00000000000000000 -1.00000000000000000 
1 7.50891659728787708 0.00000000000000000 0.00000000000000000 -1.00000000000000000 
1 1.91586136348150249 0.00000000000000000 0.00000000000000000 -1.00000000000000000 
1 6.84773629520138982 0.00000000000000000 0.00000000000000000 -1.00000000000000000 
1 0.56455098802180270 0.00000000000000000 0.00000000000000000 -1.00000000000000000 
1 7.50891659728787708 0.00000000000000000 0.00000000000000000 -1.00000000000000000 
1 1.22573129010829085 0.00000000000000000 0.00000000000000000 -1.00000000000000000 
1 6.84773629520138893 0.00000000000000000 0.00000000000000000 -1.00000000000000000 
1 6.84773629520138893 0.00000000000000000 0.00000000000000000 -1.00000000000000000 
1 0.48264656317479626 0.00000000000000000 0.00000000000000000 -1.00000000000000000 
1 6.84773629520138893 0.00000000000000000 0.00000000000000000 -1.00000000000000000 
1 6.84773629520138893 0.00000000000000000 0.00000000000000000 -1.00000000000000000 
1 0.48264656317479476 0.00000000000000000 0.00000000000000000 -1.00000000000000000 
1 6.84773629520138893 0.00000000000000000 0.00000000000000000 -1.00000000000000000 
1 0.56455098802180270 0.00000000000000000 0.00000000000000000 -1.00000000000000000 
1 7.50891659728787708 0.00000000000000000 0.00000000000000000 -1.00000000000000000 
1 1.22573129010829085 0.00000000000000000 0.00000000000000000 -1.00000000000000000 
1 1.22573129010829063 0.00000000000000000 0.00000000000000000 -1.00000000000000000 
1 7.50891659728787708 0.00000000000000000 0.00000000000000000 -1.00000000000000000 
1 1.91586136348150271 0.00000000000000000 0.00000000000000000 -1.00000000000000000 
1 0.00000000000000000 0.00000000000000000 0.00000000000000000 -1.00000000000000000 
1 6.28318530717958623 0.00000000000000000 0.00000000000000000 -1.00000000000000000 
1 6.28318530717958623 0.00000000000000000 0.00000000000000000 1.00000000000000000 
1 0.00000000000000000 0.00000000000000000 0.00000000000000000 1.00000000000000000 
2 0.00000000000000000 0.00000000000000000 1.00000000000000000 0.00000000000000000 -0.00000000000000000 1.00000000000000000 2.75000000000000000
1 0.00000000000000000 0.00000000000000000 1.00000000000000000 0.00000000000000000 
1 0.00000000000000000 5.50000000000000000 1.00000000000000000 0.00000000000000000 
2 0.00000000000000000 0.00000000000000000 1.00000000000000000 0.00000000000000000 -0.00000000000000000 1.00000000000000000 8.00000000000000000
1 6.28318530717958623 0.00000000000000000 0.00000000000000000 1.00000000000000000 
1 0.00000000000000000 0.00000000000000000 0.00000000000000000 1.00000000000000000 
Curves 42
1 294.98909406777409004 186.81881904796244953 0.00000000000000000 0.00000000000000000 0.00000000000000000 1.00000000000000000 
1 271.43354059483937135 205.69860600337565870 0.00000000000000000 0.00000000000000000 0.00000000000000000 1.00000000000000000 
2 255.70454913011639064 161.93962032611537438 0.00000000000000000 0.00000000000000000 -0.00000000000000000 1.00000000000000000 1.00000000000000000 0.00000000000000000 0.00000000000000000 -0.00000000000000000 1.00000000000000000 0.00000000000000000 46.50000000000000000
2 0.00000000000000000 0.00000000000000000 0.00000000000000000 0.00000000000000000 -0.00000000000000000 1.00000000000000000 1.00000000000000000 0.00000000000000000 0.00000000000000000 -0.00000000000000000 1.00000000000000000 0.00000000000000000 349.17021174407386752
2 0.00000000000002132 0.00000000000009948 0.00000000000000000 0.00000000000000000 0.00000000000000000 -1.00000000000000000 0.50000000000000033 0.86602540378443860 0.00000000000000000 0.86602540378443860 -0.50000000000000033 0.00000000000000000 349.17021174407386752
1 309.28439023443081624 162.05863977806851040 0.00000000000000000 0.00000000000000000 0.00000000000000000 1.00000000000000000 
1 -271.43354059483942819 205.69860600337551659 0.00000000000000000 0.00000000000000000 0.00000000000000000 1.00000000000000000 
2 0.00000000000000000 -549.44557738923845136 0.00000000000000000 0.00000000000000000 0.00000000000000000 -1.00000000000000000 -1.00000000000000000 0.00000000000000000 0.00000000000000000 0.00000000000000000 1.00000000000000000 0.00000000000000000 802.44557738923845136
2 0.00000000000000000 -549.44557738923845136 0.00000000000000000 0.00000000000000000 -0.00000000000000000 1.00000000000000000 1.00000000000000000 0.00000000000000000 0.00000000000000000 -0.00000000000000000 1.00000000000000000 0.00000000000000000 802.44557738923845136
2 268.09609964668106841 140.47682524686922534 0.00000000000000000 0.00000000000000000 0.00000000000000000 -1.00000000000000000 0.50000000000000033 0.86602540378443860 0.00000000000000000 0.86602540378443860 -0.50000000000000033 0.00000000000000000 46.49999999999999289
2 -475.83382801608922819 274.72278869461950990 0.00000000000000000 0.00000000000000000 0.00000000000000000 -1.00000000000000000 0.50000000000000033 0.86602540378443860 0.00000000000000000 0.86602540378443860 -0.50000000000000033 0.00000000000000000 802.44557738923845136
2 -475.83382801608922819 274.72278869461950990 0.00000000000000000 0.00000000000000000 0.00000000000000000 1.00000000000000000 -0.50000000000000033 -0.86602540378443860 0.00000000000000000 0.86602540378443860 -0.50000000000000033 0.00000000000000000 802.44557738923856505
2 -255.70454913011639064 161.93962032611537438 0.00000000000000000 0.00000000000000000 0.00000000000000000 -1.00000000000000000 -1.00000000000000000 0.00000000000000000 0.00000000000000000 0.00000000000000000 1.00000000000000000 0.00000000000000000 46.50000000000000000
2 12.39155051656450013 -302.41644557298451446 0.00000000000000000 0.00000000000000000 0.00000000000000000 1.00000000000000000 -0.50000000000000033 -0.86602540378443860 0.00000000000000000 0.86602540378443860 -0.50000000000000033 0.00000000000000000 46.50000000000000000
2 0.00000000000000000 0.00000000000000000 0.00000000000000000 0.00000000000000000 0.00000000000000000 -1.00000000000000000 -1.00000000000000000 0.00000000000000000 0.00000000000000000 0.00000000000000000 1.00000000000000000 0.00000000000000000 349.17021174407386752
2 0.00000000000002132 0.00000000000009948 0.00000000000000000 0.00000000000000000 0.00000000000000000 1.00000000000000000 -0.50000000000000033 -0.86602540378443860 0.00000000000000000 0.86602540378443860 -0.50000000000000033 0.00000000000000000 349.17021174407386752
2 0.00000000000008527 -0.00000000000002842 0.00000000000000000 0.00000000000000000 0.00000000000000000 1.00000000000000000 -0.50000000000000056 0.86602540378443837 0.00000000000000000 -0.86602540378443837 -0.50000000000000056 0.00000000000000000 349.17021174407392436
2 0.00000000000008527 -0.00000000000002842 0.00000000000000000 -0.00000000000000000 0.00000000000000000 -1.00000000000000000 0.50000000000000056 -0.86602540378443837 -0.00000000000000000 -0.86602540378443837 -0.50000000000000056 0.00000000000000000 349.17021174407392436
2 -268.09609964668106841 140.47682524686905481 0.00000000000000000 0.00000000000000000 0.00000000000000000 1.00000000000000000 -0.50000000000000056 0.86602540378443837 0.00000000000000000 -0.86602540378443837 -0.50000000000000056 0.00000000000000000 46.50000000000002132
2 -12.39155051656428341 -302.41644557298468499 0.00000000000000000 -0.00000000000000000 0.00000000000000000 -1.00000000000000000 0.50000000000000056 -0.86602540378443837 -0.00000000000000000 -0.86602540378443837 -0.50000000000000056 0.00000000000000000 46.50000000000000711
2 475.83382801608934187 274.72278869461956674 0.00000000000000000 0.00000000000000000 0.00000000000000000 1.00000000000000000 -0.50000000000000056 0.86602540378443837 0.00000000000000000 -0.86602540378443837 -0.50000000000000056 0.00000000000000000 802.44557738923867873
2 475.83382801608934187 274.72278869461956674 0.00000000000000000 -0.00000000000000000 0.00000000000000000 -1.00000000000000000 0.50000000000000056 -0.86602540378443837 -0.00000000000000000 -0.86602540378443837 -0.50000000000000056 0.00000000000000000 802.44557738923867873
2 0.00000000000000000 0.00000000000000000 0.00000000000000000 0.00000000000000000 0.00000000000000000 1.00000000000000000 1.00000000000000000 0.00000000000000000 -0.00000000000000000 -0.00000000000000000 1.00000000000000000 0.00000000000000000 30.00000000000000000
2 -22.50000000000000355 136.00000000000000000 0.00000000000000000 0.00000000000000000 0.00000000000000000 -1.00000000000000000 1.00000000000000000 0.00000000000000000 0.00000000000000000 0.00000000000000000 -1.00000000000000000 0.00000000000000000 2.75000000000000000
2 -22.49999999999999645 161.00000000000000000 0.00000000000000000 0.00000000000000000 0.00000000000000000 -1.00000000000000000 1.00000000000000000 0.00000000000000000 0.00000000000000000 0.00000000000000000 -1.00000000000000000 0.00000000000000000 2.75000000000000000
2 22.49999999999999645 136.00000000000000000 0.00000000000000000 0.00000000000000000 0.00000000000000000 -1.00000000000000000 1.00000000000000000 0.00000000000000000 0.00000000000000000 0.00000000000000000 -1.00000000000000000 0.00000000000000000 2.75000000000000000
2 22.50000000000000355 161.00000000000000000 0.00000000000000000 0.00000000000000000 0.00000000000000000 -1.00000000000000000 1.00000000000000000 0.00000000000000000 0.00000000000000000 0.00000000000000000 -1.00000000000000000 0.00000000000000000 2.75000000000000000
2 0.00000000000000000 0.00000000000000000 18.00000000000000000 0.00000000000000000 0.00000000000000000 1.00000000000000000 1.00000000000000000 0.00000000000000000 -0.00000000000000000 -0.00000000000000000 1.00000000000000000 0.00000000000000000 30.00000000000000000
2 0.00000000000000000 0.00000000000000000 0.00000000000000000 0.00000000000000000 0.00000000000000000 1.00000000000000000 1.00000000000000000 0.00000000000000000 -0.00000000000000000 -0.00000000000000000 1.00000000000000000 0.00000000000000000 8.00000000000000000
1 313.85698861938919890 132.21903859259791147 0.00000000000000000 0.00000000000000000 0.00000000000000000 1.00000000000000000 
1 -294.98909406777397635 186.81881904796253480 0.00000000000000000 0.00000000000000000 0.00000000000000000 1.00000000000000000 
1 42.42344802454981334 -337.91764459597339965 0.00000000000000000 0.00000000000000000 0.00000000000000000 1.00000000000000000 
1 14.29529616665654856 -348.87745882603098835 0.00000000000000000 0.00000000000000000 0.00000000000000000 1.00000000000000000 
1 -309.28439023443070255 162.05863977806836829 0.00000000000000000 0.00000000000000000 0.00000000000000000 1.00000000000000000 
1 -14.29529616665639580 -348.87745882603110203 0.00000000000000000 0.00000000000000000 0.00000000000000000 1.00000000000000000 
1 -313.85698861938936943 132.21903859259759884 0.00000000000000000 0.00000000000000000 0.00000000000000000 1.00000000000000000 
1 -42.42344802454931596 -337.91764459597379755 0.00000000000000000 0.00000000000000000 0.00000000000000000 1.00000000000000000 
1 30.00000000000000000 0.00000000000000000 897.75190496531763529 -0.00000000000000000 -0.00000000000000000 -1.00000000000000000 
1 2.75000000000000000 0.00000000000000000 -5.50000000000000000 -0.00000000000000006 0.00000000000000000 -1.00000000000000000 
2 0.00000000000000000 0.00000000000000000 -5.50000000000000000 0.00000000000000000 0.00000000000000000 1.00000000000000000 1.00000000000000000 0.00000000000000000 -0.00000000000000000 -0.00000000000000000 1.00000000000000000 0.00000000000000000 2.75000000000000000
2 0.00000000000000000 0.00000000000000000 -5.50000000000000000 0.00000000000000000 0.00000000000000000 1.00000000000000000 1.00000000000000000 0.00000000000000000 -0.00000000000000000 -0.00000000000000000 1.00000000000000000 0.00000000000000000 8.00000000000000000
1 8.00000000000000000 0.00000000000000000 -0.00000000000000000 0.00000000000000000 0.00000000000000000 -1.00000000000000000 
Polygon3D 0
PolygonOnTriangulations 0
Surfaces 24
2 255.70454913011639064 161.93962032611537438 0.00000000000000000 -0.00000000000000000 -0.00000000000000000 -1.00000000000000000 1.00000000000000000 0.00000000000000000 0.00000000000000000 -0.00000000000000000 1.00000000000000000 -0.00000000000000000 46.50000000000000000
2 0.00000000000000000 0.00000000000000000 0.00000000000000000 -0.00000000000000000 -0.00000000000000000 -1.00000000000000000 1.00000000000000000 0.00000000000000000 0.00000000000000000 -0.00000000000000000 1.00000000000000000 -0.00000000000000000 349.17021174407386752
2 0.00000000000000000 -549.44557738923845136 0.00000000000000000 -0.00000000000000000 -0.00000000000000000 -1.00000000000000000 1.00000000000000000 0.00000000000000000 0.00000000000000000 -0.00000000000000000 1.00000000000000000 -0.00000000000000000 802.44557738923845136
1 0.00000000000001316 -0.00000000000002677 0.00000000000000000 0.00000000000000000 0.00000000000000000 1.00000000000000000 1.00000000000000000 0.00000000000000000 -0.00000000000000000 -0.00000000000000000 1.00000000000000000 0.00000000000000000 
2 0.00000000000002132 0.00000000000009948 0.00000000000000000 0.00000000000000000 0.00000000000000000 -1.00000000000000000 0.50000000000000033 0.86602540378443860 0.00000000000000000 0.86602540378443860 -0.50000000000000033 0.00000000000000000 349.17021174407386752
2 268.09609964668106841 140.47682524686922534 0.00000000000000000 0.00000000000000000 0.00000000000000000 -1.00000000000000000 0.50000000000000033 0.86602540378443860 0.00000000000000000 0.86602540378443860 -0.50000000000000033 0.00000000000000000 46.49999999999999289
2 0.00000000000000000 -549.44557738923845136 0.00000000000000000 0.00000000000000000 0.00000000000000000 -1.00000000000000000 -1.00000000000000000 0.00000000000000000 0.00000000000000000 0.00000000000000000 1.00000000000000000 0.00000000000000000 802.44557738923845136
2 -255.70454913011639064 161.93962032611537438 0.00000000000000000 0.00000000000000000 0.00000000000000000 -1.00000000000000000 -1.00000000000000000 0.00000000000000000 0.00000000000000000 0.00000000000000000 1.00000000000000000 0.00000000000000000 46.50000000000000000
2 -475.83382801608922819 274.72278869461950990 0.00000000000000000 0.00000000000000000 0.00000000000000000 -1.00000000000000000 0.50000000000000033 0.86602540378443860 0.00000000000000000 0.86602540378443860 -0.50000000000000033 0.00000000000000000 802.44557738923845136
2 -475.83382801608922819 274.72278869461950990 0.00000000000000000 -0.00000000000000000 -0.00000000000000000 -1.00000000000000000 -0.50000000000000033 -0.86602540378443860 0.00000000000000000 0.86602540378443860 -0.50000000000000033 -0.00000000000000000 802.44557738923856505
2 12.39155051656450013 -302.41644557298451446 0.00000000000000000 -0.00000000000000000 -0.00000000000000000 -1.00000000000000000 -0.50000000000000033 -0.86602540378443860 0.00000000000000000 0.86602540378443860 -0.50000000000000033 -0.00000000000000000 46.50000000000000000
2 0.00000000000000000 0.00000000000000000 0.00000000000000000 0.00000000000000000 0.00000000000000000 -1.00000000000000000 -1.00000000000000000 0.00000000000000000 0.00000000000000000 0.00000000000000000 1.00000000000000000 0.00000000000000000 349.17021174407386752
2 0.00000000000002132 0.00000000000009948 0.00000000000000000 -0.00000000000000000 -0.00000000000000000 -1.00000000000000000 -0.50000000000000033 -0.86602540378443860 0.00000000000000000 0.86602540378443860 -0.50000000000000033 -0.00000000000000000 349.17021174407386752
2 0.00000000000008527 -0.00000000000002842 0.00000000000000000 0.00000000000000000 -0.00000000000000000 -1.00000000000000000 0.50000000000000056 -0.86602540378443837 0.00000000000000000 -0.86602540378443837 -0.50000000000000056 0.00000000000000000 349.17021174407392436
2 0.00000000000008527 -0.00000000000002842 0.00000000000000000 -0.00000000000000000 -0.00000000000000000 -1.00000000000000000 -0.50000000000000056 0.86602540378443837 0.00000000000000000 -0.86602540378443837 -0.50000000000000056 0.00000000000000000 349.17021174407392436
2 -268.09609964668106841 140.47682524686905481 0.00000000000000000 -0.00000000000000000 -0.00000000000000000 -1.00000000000000000 -0.50000000000000056 0.86602540378443837 0.00000000000000000 -0.86602540378443837 -0.50000000000000056 0.00000000000000000 46.50000000000002132
2 -12.39155051656428341 -302.41644557298468499 0.00000000000000000 0.00000000000000000 -0.00000000000000000 -1.00000000000000000 0.50000000000000056 -0.86602540378443837 0.00000000000000000 -0.86602540378443837 -0.50000000000000056 0.00000000000000000 46.50000000000000711
2 475.83382801608934187 274.72278869461956674 0.00000000000000000 -0.00000000000000000 -0.00000000000000000 -1.00000000000000000 -0.50000000000000056 0.86602540378443837 0.00000000000000000 -0.86602540378443837 -0.50000000000000056 0.00000000000000000 802.44557738923867873
2 475.83382801608934187 274.72278869461956674 0.00000000000000000 0.00000000000000000 -0.00000000000000000 -1.00000000000000000 0.50000000000000056 -0.86602540378443837 0.00000000000000000 -0.86602540378443837 -0.50000000000000056 0.00000000000000000 802.44557738923867873
2 0.00000000000000000 0.00000000000000000 897.75190496531763529 0.00000000000000000 0.00000000000000000 1.00000000000000000 1.00000000000000000 0.00000000000000000 -0.00000000000000000 -0.00000000000000000 1.00000000000000000 0.00000000000000000 30.00000000000000000
2 0.00000000000000000 0.00000000000000000 -5.50000000000000000 -0.00000000000000000 -0.00000000000000000 -1.00000000000000000 1.00000000000000000 0.00000000000000000 0.00000000000000000 -0.00000000000000000 1.00000000000000000 -0.00000000000000000 2.75000000000000000
1 0.00000000000000000 0.00000000000000000 0.00000000000000000 0.00000000000000000 0.00000000000000000 1.00000000000000000 -1.00000000000000000 -0.00000000000000000 0.00000000000000000 -0.00000000000000000 1.00000000000000000 -0.00000000000000000 
2 0.00000000000000000 0.00000000000000000 0.00000000000000000 -0.00000000000000000 -0.00000000000000000 -1.00000000000000000 1.00000000000000000 0.00000000000000000 0.00000000000000000 -0.00000000000000000 1.00000000000000000 -0.00000000000000000 8.00000000000000000
1 0.00000000000000000 0.00000000000000000 -5.50000000000000000 0.00000000000000000 0.00000000000000000 1.00000000000000000 1.00000000000000000 0.00000000000000000 -0.00000000000000000 -0.00000000000000000 1.00000000000000000 0.00000000000000000 
Triangulations 0

TShapes 127
Ve
0.000000100000000
294.989094067774090 186.818819047962450 0.000000000000000
0 0

0101101
*
Ed
 0.000000100000000 1 1 0
1  1 0 0.000000000000000 18.000000000000000
2  1 1 0 0.000000000000000 18.000000000000000
4 G1 2 0 1 0
2  2 2 0 0.000000000000000 18.000000000000000
0

0101000
+127 10 -127 12 *
Ve
0.000000100000000
271.433540594839371 205.698606003375659 0.000000000000000
0 0

0101101
*
Ed
 0.000000100000000 1 1 0
1  2 0 0.000000000000000 18.000000000000000
2  3 1 0 0.000000000000000 18.000000000000000
2  4 3 0 0.000000000000000 18.000000000000000
4 G1 1 0 3 0
0

0101000
+125 10 -125 12 *
Ed
 0.000000100000000 1 1 0
1  3 0 6.847736295201390 7.508916597287877
2  5 1 13 6.847736295201390 7.508916597287877
2  6 1 14 6.847736295201390 7.508916597287877
2  7 4 0 6.847736295201390 7.508916597287877
0

0101000
+127 0 -125 0 *
Wi

0101100
+126 0 -124 0 -123 10 +123 12 *
Fa
0  0.000000100000000 1 0

0101000
+122 0 *
Ve
0.000000100000000
302.390273615159629 174.585105872036678 0.000000000000000
0 0

0101101
*
Ed
 0.000000100000000 1 1 0
1  4 0 6.806784082777884 6.847736295201389
2  8 2 14 6.806784082777884 6.847736295201389
2  9 2 13 6.806784082777884 6.847736295201389
2  10 4 0 6.806784082777884 6.847736295201389
0

0101000
+120 0 -127 0 *
Ve
0.000000100000000
309.284390234430816 162.058639778068510 0.000000000000000
0 0

0101101
*
Ed
 0.000000100000000 1 1 0
1  5 0 6.806784082777885 6.847736295201389
2  11 5 13 6.806784082777885 6.847736295201389
2  12 5 14 6.806784082777885 6.847736295201389
2  13 2 13 6.806784082777885 6.847736295201389
2  14 2 14 6.806784082777885 6.847736295201389
2  15 4 0 6.806784082777885 6.847736295201389
0

0101000
+120 0 -118 0 *
Ed
 0.000000100000000 1 1 0
1  6 0 0.000000000000000 18.000000000000000
2  16 6 0 0.000000000000000 18.000000000000000
2  17 5 0 0.000000000000000 18.000000000000000
4 G1 6 0 5 0
2  18 2 0 0.000000000000000 18.000000000000000
0

0101000
+118 10 -118 12 *
Wi

0101100
+119 12 -126 0 -119 10 +117 10 +116 0 -117 12 *
Fa
0  0.000000100000000 2 0

0101000
+115 0 *
Ve
0.000000100000000
-271.433540594839428 205.698606003375517 0.000000000000000
0 0

0101101
*
Ed
 0.000000100000000 1 1 0
1  7 0 0.000000000000000 18.000000000000000
2  19 7 0 0.000000000000000 18.000000000000000
2  20 8 0 0.000000000000000 18.000000000000000
4 G1 7 0 8 0
2  21 3 0 0.000000000000000 18.000000000000000
0

0101000
+113 10 -113 12 *
Ve
0.000000100000000
0.000000000000049 253.000000000000000 0.000000000000000
0 0

0101101
*
Ed
 0.000000100000000 1 1 0
1  8 0 1.225731290108291 1.570796326794897
2  22 7 13 1.225731290108291 1.570796326794897
2  23 7 14 1.225731290108291 1.570796326794897
2  24 3 13 1.225731290108291 1.570796326794897
2  25 3 14 1.225731290108291 1.570796326794897
2  26 4 0 1.225731290108291 1.570796326794897
0

0101000
+113 0 -111 0 *
Ed
 0.000000100000000 1 1 0
1  9 0 1.225731290108291 1.570796326794897
2  27 3 13 1.225731290108291 1.570796326794897
2  28 3 14 1.225731290108291 1.570796326794897
2  29 4 0 1.225731290108291 1.570796326794897
0

0101000
+125 0 -111 0 *
Wi

0101100
-112 0 +110 10 -109 10 +124 0 +109 12 -110 12 *
Fa
0  0.000000100000000 3 0

0101000
+108 0 *
Ve
0.000000100000000
313.856988619389199 132.219038592597911 0.000000000000000
0 0

0101101
*
Ed
 0.000000100000000 1 1 0
1  10 0 6.847736295201389 7.508916597287877
2  30 6 13 6.847736295201389 7.508916597287877
2  31 6 14 6.847736295201389 7.508916597287877
2  32 4 0 6.847736295201389 7.508916597287877
0

0101000
+118 0 -106 0 *
Ve
0.000000100000000
219.104427157463078 -126.500000000000114 0.000000000000000
0 0

0101101
*
Ed
 0.000000100000000 1 1 0
1  11 0 1.225731290108291 1.570796326794897
2  33 9 13 1.225731290108291 1.570796326794897
2  34 9 14 1.225731290108291 1.570796326794897
2  35 10 13 1.225731290108291 1.570796326794897
2  36 10 14 1.225731290108291 1.570796326794897
2  37 4 0 1.225731290108291 1.570796326794897
0

0101000
+106 0 -104 0 *
Ve
0.000000100000000
42.423448024549813 -337.917644595973400 0.000000000000000
0 0

0101101
*
Ed
 0.000000100000000 1 1 0
1  12 0 1.225731290108291 1.570796326794897
2  38 10 13 1.225731290108291 1.570796326794897
2  39 10 14 1.225731290108291 1.570796326794897
2  40 4 0 1.225731290108291 1.570796326794897
0

0101000
+102 0 -104 0 *
Ve
0.000000100000000
-294.989094067773976 186.818819047962535 0.000000000000000
0 0

0101101
*
Ed
 0.000000100000000 1 1 0
1  13 0 6.847736295201390 7.508916597287877
2  41 8 13 6.847736295201390 7.508916597287877
2  42 8 14 6.847736295201390 7.508916597287877
2  43 4 0 6.847736295201390 7.508916597287877
0

0101000
+100 0 -113 0 *
Ve
0.000000100000000
14.295296166656549 -348.877458826030988 0.000000000000000
0 0

0101101
*
Ed
 0.000000100000000 1 1 0
1  14 0 6.847736295201389 7.508916597287877
2  44 11 13 6.847736295201389 7.508916597287877
2  45 11 14 6.847736295201389 7.508916597287877
2  46 4 0 6.847736295201389 7.508916597287877
0

0101000
+98 0 -102 0 *
Ve
0.000000100000000
-302.390273615159515 174.585105872036934 0.000000000000000
0 0

0101101
*
Ed
 0.000000100000000 1 1 0
1  15 0 6.806784082777885 6.847736295201389
2  47 12 13 6.806784082777885 6.847736295201389
2  48 12 14 6.806784082777885 6.847736295201389
2  49 4 0 6.806784082777885 6.847736295201389
0

0101000
+96 0 -100 0 *
Ve
0.000000100000000
-0.000000000000028 -349.170211744073981 0.000000000000000
0 0

0101101
*
Ed
 0.000000100000000 1 1 0
1  16 0 6.806784082777885 6.847736295201389
2  50 13 13 6.806784082777885 6.847736295201389
2  51 13 14 6.806784082777885 6.847736295201389
2  52 14 13 6.806784082777885 6.847736295201389
2  53 14 14 6.806784082777885 6.847736295201389
2  54 4 0 6.806784082777885 6.847736295201389
0

0101000
+94 0 -98 0 *
Ve
0.000000100000000
-309.284390234430703 162.058639778068368 0.000000000000000
0 0

0101101
*
Ed
 0.000000100000000 1 1 0
1  17 0 6.806784082777884 6.847736295201389
2  55 15 13 6.806784082777884 6.847736295201389
2  56 15 14 6.806784082777884 6.847736295201389
2  57 12 13 6.806784082777884 6.847736295201389
2  58 12 14 6.806784082777884 6.847736295201389
2  59 4 0 6.806784082777884 6.847736295201389
0

0101000
+96 0 -92 0 *
Ve
0.000000100000000
-14.295296166656396 -348.877458826031102 0.000000000000000
0 0

0101101
*
Ed
 0.000000100000000 1 1 0
1  18 0 6.806784082777886 6.847736295201389
2  60 14 13 6.806784082777886 6.847736295201389
2  61 14 14 6.806784082777886 6.847736295201389
2  62 4 0 6.806784082777886 6.847736295201389
0

0101000
+94 0 -90 0 *
Ve
0.000000100000000
-313.856988619389369 132.219038592597599 0.000000000000000
0 0

0101101
*
Ed
 0.000000100000000 1 1 0
1  19 0 6.847736295201389 7.508916597287877
2  63 16 13 6.847736295201389 7.508916597287877
2  64 16 14 6.847736295201389 7.508916597287877
2  65 4 0 6.847736295201389 7.508916597287877
0

0101000
+92 0 -88 0 *
Ve
0.000000100000000
-42.423448024549316 -337.917644595973798 0.000000000000000
0 0

0101101
*
Ed
 0.000000100000000 1 1 0
1  20 0 6.847736295201389 7.508916597287877
2  66 17 13 6.847736295201389 7.508916597287877
2  67 17 14 6.847736295201389 7.508916597287877
2  68 4 0 6.847736295201389 7.508916597287877
0

0101000
+90 0 -86 0 *
Ve
0.000000100000000
-219.104427157462851 -126.500000000000171 0.000000000000000
0 0

0101101
*
Ed
 0.000000100000000 1 1 0
1  21 0 1.225731290108291 1.570796326794897
2  69 18 13 1.225731290108291 1.570796326794897
2  70 18 14 1.225731290108291 1.570796326794897
2  71 4 0 1.225731290108291 1.570796326794897
0

0101000
+88 0 -84 0 *
Ed
 0.000000100000000 1 1 0
1  22 0 1.225731290108291 1.570796326794897
2  72 19 13 1.225731290108291 1.570796326794897
2  73 19 14 1.225731290108291 1.570796326794897
2  74 18 13 1.225731290108291 1.570796326794897
2  75 18 14 1.225731290108291 1.570796326794897
2  76 4 0 1.225731290108291 1.570796326794897
0

0101000
+86 0 -84 0 *
Wi

0101100
+119 15 -117 15 +123 15 -105 15 +109 15 -103 15 -110 15 +101 15 -99 15 +97 15 
-95 15 +93 15 +91 15 -89 15 +87 15 -85 15 +83 15 -82 15 *
Ve
0.000000100000007
30.000000000000000 0.000000000000000 0.000000000000000
0 0

0101101
*
Ed
 0.000000100000000 1 1 0
1  23 0 0.000000000000000 6.283185307179586
2  77 4 15 0.000000000000000 6.283185307179586
2  78 20 0 0.000000000000000 6.283185307179586
0

0101100
+80 0 -80 0 *
Wi

0101100
-79 0 *
Ve
0.000000100000000
-19.750000000000004 136.000000000000000 0.000000000000000
0 0

0101101
*
Ed
 0.000000100000000 1 1 0
1  24 0 0.000000000000000 6.283185307179586
2  79 4 17 0.000000000000000 6.283185307179586
2  80 21 18 0.000000000000000 6.283185307179586
0

0101100
+77 0 -77 0 *
Wi

0101100
+76 16 *
Ve
0.000000100000000
-19.749999999999996 161.000000000000000 0.000000000000000
0 0

0101101
*
Ed
 0.000000100000000 1 1 0
1  25 0 0.000000000000000 6.283185307179586
2  81 4 17 0.000000000000000 6.283185307179586
2  82 21 19 0.000000000000000 6.283185307179586
0

0101100
+74 0 -74 0 *
Wi

0101100
+73 16 *
Ve
0.000000100000000
25.249999999999996 136.000000000000000 0.000000000000000
0 0

0101101
*
Ed
 0.000000100000000 1 1 0
1  26 0 0.000000000000000 6.283185307179586
2  83 4 17 0.000000000000000 6.283185307179586
2  84 21 20 0.000000000000000 6.283185307179586
0

0101100
+71 0 -71 0 *
Wi

0101100
+70 16 *
Ve
0.000000100000000
25.250000000000004 161.000000000000000 0.000000000000000
0 0

0101101
*
Ed
 0.000000100000000 1 1 0
1  27 0 0.000000000000000 6.283185307179586
2  85 4 17 0.000000000000000 6.283185307179586
2  86 21 21 0.000000000000000 6.283185307179586
0

0101100
+68 0 -68 0 *
Wi

0101100
+67 16 *
Fa
0  0.000000100000000 4 15

0101000
+81 0 +78 0 +75 0 +72 0 +69 0 +66 0 *
Wi

0101100
+119 22 -117 22 +123 22 -105 22 +109 22 -103 22 -110 22 +101 22 -99 22 +97 22 
-95 22 +93 22 +91 22 -89 22 +87 22 -85 22 +83 22 -82 22 *
Ve
0.000000100000007
30.000000000000000 0.000000000000000 18.000000000000000
0 0

0101101
*
Ed
 0.000000100000000 1 1 0
1  28 0 0.000000000000000 6.283185307179586
2  87 4 22 0.000000000000000 6.283185307179586
2  88 20 0 0.000000000000000 6.283185307179586
0

0101100
+63 0 -63 0 *
Wi

0101100
-62 0 *
Ve
0.000000100000000
8.000000000000000 0.000000000000000 -0.000000000000000
0 0

0101101
*
Ed
 0.000000100000000 1 1 0
1  29 0 0.000000000000000 6.283185307179586
2  89 22 0 0.000000000000000 6.283185307179586
2  90 23 0 0.000000000000000 6.283185307179586
2  91 4 24 0.000000000000000 6.283185307179586
2  92 4 25 0.000000000000000 6.283185307179586
2  93 4 26 0.000000000000000 6.283185307179586
2  94 4 27 0.000000000000000 6.283185307179586
0

0101000
+60 0 -60 0 *
Wi

0101100
-59 23 *
Wi

0101100
-59 28 *
Wi

0101100
-59 29 *
Wi

0101100
-59 30 *
Fa
0  0.000000100000000 4 22

0101000
+64 0 +61 0 +58 0 +57 0 +56 0 +55 0 *
Ed
 0.000000100000000 1 1 0
1  30 0 0.000000000000000 18.000000000000000
2  95 9 0 0.000000000000000 18.000000000000000
2  96 6 0 0.000000000000000 18.000000000000000
4 G1 9 0 6 0
2  97 10 0 0.000000000000000 18.000000000000000
0

0101000
+106 10 -106 12 *
Wi

0101100
+116 0 -53 0 -105 10 +105 12 *
Fa
0  0.000000100000000 6 0

0101000
+52 0 *
Ed
 0.000000100000000 1 1 0
1  31 0 0.000000000000000 18.000000000000000
2  98 8 0 0.000000000000000 18.000000000000000
4 G1 8 0 12 0
2  99 12 0 0.000000000000000 18.000000000000000
0

0101000
+100 10 -100 12 *
Wi

0101100
+50 0 -112 0 -99 10 +99 12 *
Fa
0  0.000000100000000 8 0

0101000
+49 0 *
Ed
 0.000000100000000 1 1 0
1  32 0 0.000000000000000 18.000000000000000
2  100 11 0 0.000000000000000 18.000000000000000
2  101 10 0 0.000000000000000 18.000000000000000
4 G1 11 0 10 0
0

0101000
+102 10 -102 12 *
Wi

0101100
-53 0 +103 10 -101 10 +47 0 +101 12 -103 12 *
Fa
0  0.000000100000000 10 0

0101000
+46 0 *
Ed
 0.000000100000000 1 1 0
1  33 0 0.000000000000000 18.000000000000000
2  102 13 0 0.000000000000000 18.000000000000000
2  103 11 0 0.000000000000000 18.000000000000000
4 G1 13 0 11 0
2  104 14 0 0.000000000000000 18.000000000000000
0

0101000
+98 10 -98 12 *
Wi

0101100
+44 0 -47 0 -97 10 +97 12 *
Fa
0  0.000000100000000 11 0

0101000
+43 0 *
Ed
 0.000000100000000 1 1 0
1  34 0 0.000000000000000 18.000000000000000
2  105 15 0 0.000000000000000 18.000000000000000
2  106 16 0 0.000000000000000 18.000000000000000
4 G1 15 0 16 0
2  107 12 0 0.000000000000000 18.000000000000000
0

0101000
+92 10 -92 12 *
Wi

0101100
-91 12 +95 12 -50 0 -95 10 +91 10 +41 0 *
Fa
0  0.000000100000000 12 0

0101000
+40 0 *
Ed
 0.000000100000000 1 1 0
1  35 0 0.000000000000000 18.000000000000000
2  108 17 0 0.000000000000000 18.000000000000000
4 G1 17 0 14 0
2  109 14 0 0.000000000000000 18.000000000000000
0

0101000
+90 10 -90 12 *
Wi

0101100
-93 12 +89 12 -38 0 -89 10 +93 10 +44 0 *
Fa
0  0.000000100000000 14 0

0101000
+37 0 *
Ed
 0.000000100000000 1 1 0
1  36 0 0.000000000000000 18.000000000000000
2  110 16 0 0.000000000000000 18.000000000000000
2  111 18 0 0.000000000000000 18.000000000000000
4 G1 16 0 18 0
0

0101000
+88 10 -88 12 *
Wi

0101100
+41 0 -35 0 -87 10 +87 12 *
Fa
0  0.000000100000000 16 0

0101000
+34 0 *
Ed
 0.000000100000000 1 1 0
1  37 0 0.000000000000000 18.000000000000000
2  112 19 0 0.000000000000000 18.000000000000000
2  113 17 0 0.000000000000000 18.000000000000000
4 G1 19 0 17 0
2  114 18 0 0.000000000000000 18.000000000000000
0

0101000
+86 10 -86 12 *
Wi

0101100
+38 0 -32 0 -85 10 +85 12 *
Fa
0  0.000000100000000 17 0

0101000
+31 0 *
Wi

0101100
-32 0 +82 10 -83 10 +35 0 +83 12 -82 12 *
Fa
0  0.000000100000000 18 0

0101000
+29 0 *
Ed
 0.000000100000000 1 1 0
1  38 0 879.751904965317635 897.751904965317635
3  115 116CN 20 0 879.751904965317635 897.751904965317635
0

0101000
+63 0 -80 0 *
Wi

0101100
-62 0 -27 0 +79 0 +27 0 *
Fa
0  0.000000100000000 20 0

0101000
+26 0 *
Ve
0.000000100000000
2.750000000000000 0.000000000000000 -5.500000000000000
0 0

0101101
*
Ed
 0.000000100000000 1 1 0
1  39 0 0.000000000000000 12.500000000000000
3  117 118CN 21 0 0.000000000000000 12.500000000000000
0

0101000
+24 0 -77 31 *
Ed
 0.000000100000000 1 1 0
1  40 0 0.000000000000000 6.283185307179586
2  119 24 0 0.000000000000000 6.283185307179586
2  120 21 0 0.000000000000000 6.283185307179586
0

0101000
+24 0 -24 0 *
Wi

0101100
-23 18 +76 0 +23 18 +22 18 *
Fa
0  0.000000100000000 21 18

0101000
+21 0 *
Ed
 0.000000100000000 1 1 0
1  39 0 0.000000000000000 12.500000000000000
3  117 118CN 21 0 0.000000000000000 12.500000000000000
0

0101000
+24 0 -74 32 *
Wi

0101100
-19 19 +73 0 +19 19 +22 19 *
Fa
0  0.000000100000000 21 19

0101000
+18 0 *
Ed
 0.000000100000000 1 1 0
1  39 0 0.000000000000000 12.500000000000000
3  117 118CN 21 0 0.000000000000000 12.500000000000000
0

0101000
+24 0 -71 33 *
Wi

0101100
-16 20 +70 0 +16 20 +22 20 *
Fa
0  0.000000100000000 21 20

0101000
+15 0 *
Ed
 0.000000100000000 1 1 0
1  39 0 0.000000000000000 12.500000000000000
3  117 118CN 21 0 0.000000000000000 12.500000000000000
0

0101000
+24 0 -68 34 *
Wi

0101100
-13 21 +67 0 +13 21 +22 21 *
Fa
0  0.000000100000000 21 21

0101000
+12 0 *
Ve
0.000000100000000
8.000000000000000 0.000000000000000 -5.500000000000000
0 0

0101101
*
Ed
 0.000000100000000 1 1 0
1  41 0 0.000000000000000 6.283185307179586
2  121 23 0 0.000000000000000 6.283185307179586
2  122 24 0 0.000000000000000 6.283185307179586
0

0101000
+10 0 -10 0 *
Ed
 0.000000100000000 1 1 0
1  42 0 0.000000000000000 5.500000000000000
3  123 124CN 23 0 0.000000000000000 5.500000000000000
0

0101000
+60 0 -10 0 *
Wi

0101100
+59 0 -9 0 -8 0 +8 0 *
Fa
0  0.000000100000000 23 0

0101000
+7 0 *
Wi

0101100
+9 0 *
Wi

0101100
-22 0 *
Fa
0  0.000000100000000 24 0

0101000
+5 0 +4 0 *
Sh

0101100
-121 6 -114 6 -107 6 -65 0 +54 0 +51 6 +48 6 -45 6 -42 6 +39 6 
+36 6 -33 6 +30 6 -28 6 -25 0 +20 16 +17 16 +14 16 +11 16 +6 23 
+6 28 +6 29 +6 30 +3 23 +3 28 +3 29 +3 30 *
So

0100000
+2 0 *

+1 1 