
CASCADE Topology V1, (c) Matra-Datavision
Locations 17
1
1.000000000000000 0.000000000000000 0.000000000000000 0.000000000000000 
0.000000000000000 1.000000000000000 0.000000000000000 0.000000000000022 
0.000000000000000 0.000000000000000 1.000000000000000 486.000000000000000 
1
1.000000000000000 0.000000000000000 0.000000000000000 0.000000000000000 
0.000000000000000 1.000000000000000 0.000000000000000 0.000000000000000 
0.000000000000000 0.000000000000000 1.000000000000000 0.000000000000000 
1
1.000000000000000 0.000000000000000 0.000000000000000 0.000000000000000 
0.000000000000000 1.000000000000000 0.000000000000000 0.000000000000000 
0.000000000000000 0.000000000000000 1.000000000000000 0.000000000000000 
1
1.000000000000000 0.000000000000000 0.000000000000000 0.000000000000000 
0.000000000000000 1.000000000000000 0.000000000000000 0.000000000000000 
0.000000000000000 0.000000000000000 1.000000000000000 0.000000000000000 
1
1.000000000000000 0.000000000000000 0.000000000000000 0.000000000000000 
0.000000000000000 1.000000000000000 0.000000000000000 0.000000000000000 
0.000000000000000 0.000000000000000 1.000000000000000 0.000000000000000 
1
1.000000000000000 0.000000000000000 0.000000000000000 0.000000000000000 
0.000000000000000 1.000000000000000 0.000000000000000 0.000000000000000 
0.000000000000000 0.000000000000000 1.000000000000000 0.000000000000000 
2  2 1 3 1 4 1 5 1 6 -1 1 -1 0
1
1.000000000000000 0.000000000000000 0.000000000000000 0.000000000000000 
0.000000000000000 1.000000000000000 0.000000000000000 0.000000000000244 
0.000000000000000 0.000000000000000 1.000000000000000 1486.000000000000000 
2  2 1 3 1 4 1 5 1 6 -1 8 -1 0
1
1.000000000000000 0.000000000000000 0.000000000000000 0.000000000000000 
0.000000000000000 1.000000000000000 0.000000000000000 0.000000000000200 
0.000000000000000 0.000000000000000 1.000000000000000 1286.000000000000000 
2  2 1 3 1 4 1 5 1 6 -1 10 -1 0
1
1.000000000000000 0.000000000000000 0.000000000000000 0.000000000000000 
0.000000000000000 1.000000000000000 0.000000000000000 0.000000000000155 
0.000000000000000 0.000000000000000 1.000000000000000 1086.000000000000000 
2  2 1 3 1 4 1 5 1 6 -1 12 -1 0
1
1.000000000000000 0.000000000000000 0.000000000000000 0.000000000000000 
0.000000000000000 1.000000000000000 0.000000000000000 0.000000000000111 
0.000000000000000 0.000000000000000 1.000000000000000 886.000000000000000 
2  2 1 3 1 4 1 5 1 6 -1 14 -1 0
1
1.000000000000000 0.000000000000000 0.000000000000000 0.000000000000000 
0.000000000000000 1.000000000000000 0.000000000000000 0.000000000000067 
0.000000000000000 0.000000000000000 1.000000000000000 686.000000000000000 
2  2 1 3 1 4 1 5 1 6 -1 16 -1 0
Curve2ds 15
2 0.00000000000000000 0.00000000000000000 -1.00000000000000000 0.00000000000000000 0.00000000000000000 1.00000000000000000 1.69999999999999996
1 0.00000000000000000 0.00000000000000000 1.00000000000000000 0.00000000000000000 
2 -352.00000000000000000 -0.00000000000000323 0.00000000000000000 -1.00000000000000000 -1.00000000000000000 -0.00000000000000000 1.69999999999999996
2 648.00000000000000000 -0.00000000000000323 0.00000000000000000 -1.00000000000000000 -1.00000000000000000 -0.00000000000000000 1.69999999999999996
2 448.00000000000000000 -0.00000000000000323 0.00000000000000000 -1.00000000000000000 -1.00000000000000000 -0.00000000000000000 1.69999999999999996
2 248.00000000000000000 -0.00000000000000323 0.00000000000000000 -1.00000000000000000 -1.00000000000000000 -0.00000000000000000 1.69999999999999996
2 48.00000000000000000 -0.00000000000000323 0.00000000000000000 -1.00000000000000000 -1.00000000000000000 -0.00000000000000000 1.69999999999999996
2 -152.00000000000000000 -0.00000000000000323 0.00000000000000000 -1.00000000000000000 -1.00000000000000000 -0.00000000000000000 1.69999999999999996
1 0.00000000000000000 25.00000000000000000 1.00000000000000000 0.00000000000000000 
1 0.00000000000000000 0.00000000000000000 1.00000000000000000 0.00000000000000000 
1 6.28318530717958623 0.00000000000000000 0.00000000000000000 1.00000000000000000 
1 0.00000000000000000 0.00000000000000000 0.00000000000000000 1.00000000000000000 
1 0.00000000000000000 1.98327677526606050 1.00000000000000000 0.00000000000000000 
1 6.28318530717958623 0.00000000000000000 0.00000000000000000 1.00000000000000000 
1 0.00000000000000000 0.00000000000000000 0.00000000000000000 1.00000000000000000 
Curves 4
2 0.00000000000000000 0.00000000000000000 0.00000000000000000 -0.00000000000000000 -1.00000000000000000 0.00000000000000022 -1.00000000000000000 0.00000000000000000 0.00000000000000000 -0.00000000000000000 -0.00000000000000022 -1.00000000000000000 1.69999999999999996
2 0.00000000000000000 25.00000000000000000 -0.00000000000000555 -0.00000000000000000 -1.00000000000000000 0.00000000000000022 -1.00000000000000000 0.00000000000000000 0.00000000000000000 -0.00000000000000000 -0.00000000000000022 -1.00000000000000000 1.69999999999999840
1 -1.69999999999999996 0.00000000000000000 0.00000000000000000 0.00000000000000006 1.00000000000000000 -0.00000000000000022 
1 -1.69999999999999840 25.00000000000000000 -0.00000000000000555 0.85716730070211211 0.51503807491005460 -0.00000000000000011 
Polygon3D 0
PolygonOnTriangulations 0
Surfaces 4
1 0.00000000000000000 0.00000000000000000 0.00000000000000000 -0.00000000000000000 -1.00000000000000000 0.00000000000000022 1.00000000000000000 -0.00000000000000000 0.00000000000000000 -0.00000000000000000 -0.00000000000000022 -1.00000000000000000 
2 0.00000000000000000 0.00000000000000000 0.00000000000000000 0.00000000000000000 1.00000000000000000 -0.00000000000000022 -1.00000000000000000 0.00000000000000000 0.00000000000000000 -0.00000000000000000 -0.00000000000000022 -1.00000000000000000 1.69999999999999996
1 0.00000000000000323 0.00000000000000000 838.00000000000000000 0.00000000000000000 1.00000000000000000 0.00000000000000000 0.00000000000000000 -0.00000000000000000 1.00000000000000000 1.00000000000000000 0.00000000000000000 -0.00000000000000000 
3 0.00000000000000000 25.00000000000000000 -0.00000000000000555 0.00000000000000000 1.00000000000000000 -0.00000000000000022 -1.00000000000000000 0.00000000000000000 -0.00000000000000000 -0.00000000000000000 -0.00000000000000022 -1.00000000000000000 1.69999999999999840
-1.02974425867665409
Triangulations 0

TShapes 17
Ve
0.001000000000245
-1.700000000000000 0.000000000000000 0.000000000000000
0 0

0101101
*
Ed
 0.001000000000245 1 1 0
1  1 0 0.000000000000000 6.283185307179586
2  1 1 0 0.000000000000000 6.283185307179586
2  2 2 0 0.000000000000000 6.283185307179586
2  3 3 7 0.000000000000000 6.283185307179586
2  4 3 9 0.000000000000000 6.283185307179586
2  5 3 11 0.000000000000000 6.283185307179586
2  6 3 13 0.000000000000000 6.283185307179586
2  7 3 15 0.000000000000000 6.283185307179586
2  8 3 17 0.000000000000000 6.283185307179586
0

0101000
+17 0 -17 0 *
Wi

0101100
-16 0 *
Fa
0  0.000000100000000 1 0

0111000
+15 0 *
Ve
0.000000100000000
-1.699999999999998 25.000000000000000 -0.000000000000006
0 0

0101101
*
Ed
 0.000000100000000 1 1 0
1  2 0 0.000000000000000 6.283185307179586
2  9 2 0 0.000000000000000 6.283185307179586
2  10 4 0 0.000000000000000 6.283185307179586
0

0101000
+13 0 -13 0 *
Ed
 0.000000100000000 1 1 0
1  3 0 0.000000000000000 25.000000000000000
3  11 12CN 2 0 0.000000000000000 25.000000000000000
0

0101000
+17 0 -13 0 *
Wi

0101100
+16 0 -12 0 -11 0 +11 0 *
Fa
0  0.000000100000000 2 0

0111000
+10 0 *
Ve
0.000000100000000
0.000000000000000 26.021463052346853 -0.000000000000006
0 0

0101101
*
Ed
 0.000000100000000 1 1 1
2  13 4 0 0.000000000000000 6.283185307179586
0

0101000
+8 0 -8 0 *
Ed
 0.000000100000000 1 1 0
1  4 0 0.000000000000000 1.983276775266060
3  14 15CN 4 0 0.000000000000000 1.983276775266060
0

0101000
+13 0 -8 0 *
Wi

0101100
+12 0 -7 0 -6 0 +6 0 *
Fa
0  0.000000100000000 4 0

0111000
+5 0 *
Sh

0101100
+14 0 +9 0 +4 0 *
So

0100000
-3 0 *
Co

0100000
+2 1 +2 8 +2 10 +2 12 +2 14 +2 16 *

+1 0 