
CASCADE Topology V1, (c) Matra-Datavision
Locations 12
1
1.000000000000000 0.000000000000000 0.000000000000000 0.000000000000000 
0.000000000000000 1.000000000000000 0.000000000000000 0.000000000000000 
0.000000000000000 0.000000000000000 1.000000000000000 0.000000000000000 
1
0.000000000000000 -0.000000000000000 1.000000000000000 0.000000000000019 
1.000000000000000 0.000000000000000 -0.000000000000000 79.999999999999986 
-0.000000000000000 1.000000000000000 0.000000000000000 -4.700000000000017 
1
1.000000000000000 0.000000000000000 0.000000000000000 0.000000000000000 
0.000000000000000 1.000000000000000 0.000000000000000 0.000000000000000 
0.000000000000000 0.000000000000000 1.000000000000000 0.000000000000000 
1
1.000000000000000 0.000000000000000 0.000000000000000 1071.150713310223409 
0.000000000000000 1.000000000000000 0.000000000000000 -0.000000000000238 
0.000000000000000 0.000000000000000 1.000000000000000 0.000000000000297 
2  1 1 2 1 3 -1 4 1 0
1
1.000000000000000 0.000000000000000 0.000000000000000 -2142.301426620446819 
0.000000000000000 1.000000000000000 0.000000000000000 0.000000000000476 
0.000000000000000 0.000000000000000 1.000000000000000 -0.000000000000595 
2  1 1 2 1 3 -1 4 1 6 1 0
2  4 -1 3 1 2 -1 1 -1 0
2  6 -1 4 -1 3 1 2 -1 1 -1 0
2  3 -1 4 1 0
2  1 1 2 1 0
2  3 -1 4 1 6 1 0
Curve2ds 4
1 0.00000000000000000 0.00000000000000000 0.00000000000000000 -1.00000000000000000 
1 6.28318530717958623 0.00000000000000000 0.00000000000000000 -1.00000000000000000 
1 0.00000000000000000 0.00000000000000000 1.00000000000000000 0.00000000000000000 
1 0.00000000000000000 -2142.30142662044681856 1.00000000000000000 0.00000000000000000 
Curves 2
1 1071.15071331022340928 81.69999999999977547 -4.69999999999971951 -1.00000000000000000 0.00000000000000022 -0.00000000000000028 
2 0.00000000000002740 0.00000000000000000 0.00000000000000000 0.00000000000000000 0.00000000000000000 1.00000000000000000 1.00000000000000000 0.00000000000000000 -0.00000000000000000 -0.00000000000000000 1.00000000000000000 0.00000000000000000 1.69999999999999996
Polygon3D 0
PolygonOnTriangulations 0
Surfaces 2
2 1071.15071331022340928 79.99999999999977263 -4.69999999999971951 1.00000000000000000 -0.00000000000000022 0.00000000000000022 0.00000000000000022 1.00000000000000000 -0.00000000000000022 -0.00000000000000022 0.00000000000000022 1.00000000000000000 1.69999999999999996
1 0.00000000000001881 80.00000000000000000 -4.70000000000001794 1.00000000000000000 -0.00000000000000022 0.00000000000000022 -0.00000000000000022 0.00000000000000000 1.00000000000000000 -0.00000000000000022 -1.00000000000000000 -0.00000000000000000 
Triangulations 0

TShapes 9
Ve
0.000000100000000
1.700000000000027 0.000000000000000 0.000000000000000
0 0

0101101
*
Ed
 0.000000100000000 1 1 0
1  1 0 0.000000000000000 2142.301426620446819
3  1 2CN 1 0 0.000000000000000 2142.301426620446819
0

0101000
+9 5 -9 7 *
Ed
 0.000000100000000 1 1 0
1  2 0 0.000000000000000 6.283185307179586
2  3 1 8 0.000000000000000 6.283185307179586
2  4 1 9 0.000000000000000 6.283185307179586
0

0101100
+9 0 -9 0 *
Wi

0101100
+8 0 -8 0 -7 5 +7 7 *
Fa
0  0.000000100000000 1 0

0111000
+6 0 *
Wi

0101100
+7 0 *
Fa
0  0.000000100000000 2 0

0111000
+4 11 *
Sh

0101100
+5 0 +3 10 -3 12 *
So

1100000
+2 0 *

+1 0 