
CASCADE Topology V1, (c) Matra-Datavision
Locations 29
1
1.000000000000000 0.000000000000000 0.000000000000000 0.000000000000000 
0.000000000000000 1.000000000000000 0.000000000000000 0.000000000000000 
0.000000000000000 0.000000000000000 1.000000000000000 0.000000000000000 
1
0.000000000000000 -0.000000000000000 1.000000000000000 0.000000000000000 
1.000000000000000 0.000000000000000 -0.000000000000000 0.000000000000000 
-0.000000000000000 1.000000000000000 0.000000000000000 0.000000000000000 
1
1.000000000000000 0.000000000000000 0.000000000000000 0.000000000000000 
0.000000000000000 1.000000000000000 0.000000000000000 0.000000000000000 
0.000000000000000 0.000000000000000 1.000000000000000 0.000000000000000 
1
1.000000000000000 0.000000000000000 0.000000000000000 14.500000000000000 
0.000000000000000 1.000000000000000 0.000000000000000 -0.000000000000003 
0.000000000000000 0.000000000000000 1.000000000000000 0.000000000000004 
2  1 1 2 1 3 -1 4 1 0
1
1.000000000000000 0.000000000000000 0.000000000000000 -29.000000000000000 
0.000000000000000 1.000000000000000 0.000000000000000 0.000000000000006 
0.000000000000000 0.000000000000000 1.000000000000000 -0.000000000000008 
2  1 1 2 1 3 -1 4 1 6 1 0
2  4 -1 3 1 2 -1 1 -1 0
2  6 -1 4 -1 3 1 2 -1 1 -1 0
1
1.000000000000000 0.000000000000000 0.000000000000000 1487.149440473208642 
0.000000000000000 1.000000000000000 0.000000000000000 -0.000000000000330 
0.000000000000000 0.000000000000000 1.000000000000000 0.000000000000330 
1
1.000000000000000 0.000000000000000 0.000000000000000 0.000000000000000 
0.000000000000000 1.000000000000000 0.000000000000000 0.000000000000000 
0.000000000000000 0.000000000000000 1.000000000000000 0.000000000000000 
1
1.000000000000000 0.000000000000000 0.000000000000000 0.000000000000000 
0.000000000000000 1.000000000000000 0.000000000000000 -8.371578903249574 
0.000000000000000 0.000000000000000 1.000000000000000 1428.000000000000000 
1
1.000000000000000 0.000000000000000 0.000000000000000 0.000000000000000 
0.000000000000000 1.000000000000000 0.000000000000000 0.000000000000000 
0.000000000000000 0.000000000000000 1.000000000000000 0.000000000000000 
1
1.000000000000000 0.000000000000000 0.000000000000000 0.000000000000000 
0.000000000000000 1.000000000000000 0.000000000000000 0.000000000000000 
0.000000000000000 0.000000000000000 1.000000000000000 0.000000000000000 
1
0.000000000000000 -0.000000000000000 1.000000000000000 0.000000000000000 
1.000000000000000 0.000000000000000 -0.000000000000000 0.000000000000000 
-0.000000000000000 1.000000000000000 0.000000000000000 0.000000000000000 
1
1.000000000000000 0.000000000000000 0.000000000000000 0.000000000000000 
0.000000000000000 1.000000000000000 0.000000000000000 0.000000000000000 
0.000000000000000 0.000000000000000 1.000000000000000 0.000000000000000 
2  10 -1 11 1 12 -1 13 -1 14 -1 15 -1 16 -1 0
1
1.000000000000000 0.000000000000000 0.000000000000000 -2974.298880946417285 
0.000000000000000 1.000000000000000 0.000000000000000 0.000000000000660 
0.000000000000000 0.000000000000000 1.000000000000000 -0.000000000000660 
2  18 -1 10 -1 11 1 12 -1 13 -1 14 -1 15 -1 16 -1 0
1
1.000000000000000 0.000000000000000 0.000000000000000 1487.149440473208642 
0.000000000000000 1.000000000000000 0.000000000000000 -0.000000000000330 
0.000000000000000 0.000000000000000 1.000000000000000 0.000000000000330 
1
1.000000000000000 0.000000000000000 0.000000000000000 0.000000000000000 
0.000000000000000 1.000000000000000 0.000000000000000 0.000000000000000 
0.000000000000000 0.000000000000000 1.000000000000000 0.000000000000000 
1
1.000000000000000 0.000000000000000 0.000000000000000 0.000000000000000 
0.000000000000000 1.000000000000000 0.000000000000000 -8.371578903249574 
0.000000000000000 0.000000000000000 1.000000000000000 1428.000000000000000 
1
1.000000000000000 0.000000000000000 0.000000000000000 0.000000000000000 
0.000000000000000 1.000000000000000 0.000000000000000 0.000000000000000 
0.000000000000000 0.000000000000000 1.000000000000000 0.000000000000000 
2  20 -1 21 1 22 -1 23 -1 14 -1 15 -1 16 -1 0
1
1.000000000000000 0.000000000000000 0.000000000000000 -2974.298880946417285 
0.000000000000000 1.000000000000000 0.000000000000000 0.000000000000660 
0.000000000000000 0.000000000000000 1.000000000000000 -0.000000000000660 
2  25 -1 20 -1 21 1 22 -1 23 -1 14 -1 15 -1 16 -1 0
2  3 -1 4 1 0
2  1 1 2 1 0
2  3 -1 4 1 6 1 0
Curve2ds 16
1 0.00000000000000000 0.00000000000000000 0.00000000000000000 -1.00000000000000000 
1 6.28318530717958623 0.00000000000000000 0.00000000000000000 -1.00000000000000000 
1 0.00000000000000000 0.00000000000000000 1.00000000000000000 0.00000000000000000 
1 0.00000000000000000 -29.00000000000000000 1.00000000000000000 0.00000000000000000 
1 0.00000000000000000 0.00000000000000000 1.00000000000000000 0.00000000000000000 
1 0.00000000000000000 -2974.29888094641728458 1.00000000000000000 0.00000000000000000 
1 0.00000000000000000 0.00000000000000000 1.00000000000000000 0.00000000000000000 
1 0.00000000000000000 -2974.29888094641728458 1.00000000000000000 0.00000000000000000 
1 0.00000000000000000 0.00000000000000000 0.00000000000000000 -1.00000000000000000 
1 6.28318530717958623 0.00000000000000000 0.00000000000000000 -1.00000000000000000 
1 0.00000000000000000 0.00000000000000000 1.00000000000000000 0.00000000000000000 
1 0.00000000000000000 -29.00000000000000000 1.00000000000000000 0.00000000000000000 
1 0.00000000000000000 0.00000000000000000 1.00000000000000000 0.00000000000000000 
1 0.00000000000000000 -2974.29888094641728458 1.00000000000000000 0.00000000000000000 
1 0.00000000000000000 0.00000000000000000 1.00000000000000000 0.00000000000000000 
1 0.00000000000000000 -2974.29888094641728458 1.00000000000000000 0.00000000000000000 
Curves 4
1 14.50000000000001066 43.70000000000000284 -7.00000000000000533 -1.00000000000000000 0.00000000000000022 -0.00000000000000028 
2 42.00000000000000000 -7.00000000000000000 0.00000000000000000 0.00000000000000000 0.00000000000000000 1.00000000000000000 1.00000000000000000 0.00000000000000000 -0.00000000000000000 -0.00000000000000000 1.00000000000000000 0.00000000000000000 1.69999999999999996
1 14.50000000000000711 23.69999999999999574 -7.00000000000000089 -1.00000000000000000 0.00000000000000022 -0.00000000000000028 
2 22.00000000000000000 -7.00000000000000000 0.00000000000000000 0.00000000000000000 0.00000000000000000 1.00000000000000000 1.00000000000000000 0.00000000000000000 -0.00000000000000000 -0.00000000000000000 1.00000000000000000 0.00000000000000000 1.69999999999999996
Polygon3D 0
PolygonOnTriangulations 0
Surfaces 8
2 14.50000000000001066 42.00000000000000000 -7.00000000000000444 1.00000000000000000 -0.00000000000000022 0.00000000000000022 0.00000000000000022 1.00000000000000000 -0.00000000000000022 -0.00000000000000022 0.00000000000000022 1.00000000000000000 1.69999999999999996
2 1487.14944047320864229 33.62842109675009539 1421.00000000000022737 1.00000000000000000 -0.00000000000000022 0.00000000000000022 0.00000000000000022 1.00000000000000000 -0.00000000000000022 -0.00000000000000022 0.00000000000000022 1.00000000000000000 1.69999999999999996
2 1487.14944047320864229 33.62842109675009539 1421.00000000000022737 1.00000000000000000 -0.00000000000000022 0.00000000000000022 0.00000000000000022 1.00000000000000000 -0.00000000000000022 -0.00000000000000022 0.00000000000000022 1.00000000000000000 1.69999999999999996
1 0.00000000000000866 31.99999999999999289 -7.00000000000000533 1.00000000000000000 -0.00000000000000022 0.00000000000000022 -0.00000000000000022 0.00000000000000000 1.00000000000000000 -0.00000000000000022 -1.00000000000000000 -0.00000000000000000 
2 14.50000000000000711 21.99999999999999645 -7.00000000000000089 1.00000000000000000 -0.00000000000000022 0.00000000000000022 0.00000000000000022 1.00000000000000000 -0.00000000000000022 -0.00000000000000022 0.00000000000000022 1.00000000000000000 1.69999999999999996
2 1487.14944047320864229 13.62842109675009539 1421.00000000000022737 1.00000000000000000 -0.00000000000000022 0.00000000000000022 0.00000000000000022 1.00000000000000000 -0.00000000000000022 -0.00000000000000022 0.00000000000000022 1.00000000000000000 1.69999999999999996
2 1487.14944047320864229 13.62842109675009539 1421.00000000000022737 1.00000000000000000 -0.00000000000000022 0.00000000000000022 0.00000000000000022 1.00000000000000000 -0.00000000000000022 -0.00000000000000022 0.00000000000000022 1.00000000000000000 1.69999999999999996
1 0.00000000000000866 31.99999999999999289 -7.00000000000000533 1.00000000000000000 -0.00000000000000022 0.00000000000000022 -0.00000000000000022 0.00000000000000000 1.00000000000000000 -0.00000000000000022 -1.00000000000000000 -0.00000000000000000 
Triangulations 0

TShapes 19
Ve
0.000000100000000
43.700000000000003 -7.000000000000000 0.000000000000000
0 0

0101101
*
Ed
 0.000000100000000 1 1 0
1  1 0 0.000000000000000 29.000000000000000
3  1 2CN 1 0 0.000000000000000 29.000000000000000
0

0101000
+19 5 -19 7 *
Ed
 0.000000100000000 1 1 0
1  2 0 0.000000000000000 6.283185307179586
2  3 1 8 0.000000000000000 6.283185307179586
2  4 1 9 0.000000000000000 6.283185307179586
2  5 2 17 0.000000000000000 6.283185307179586
2  6 2 19 0.000000000000000 6.283185307179586
2  7 3 24 0.000000000000000 6.283185307179586
2  8 3 26 0.000000000000000 6.283185307179586
0

0101100
+19 0 -19 0 *
Wi

0101100
+18 0 -18 0 -17 5 +17 7 *
Fa
0  0.000000100000000 1 0

0111000
+16 0 *
Wi

0101100
+17 0 *
Fa
0  0.000000100000000 4 0

0111000
+14 28 *
Sh

0101100
+15 0 +13 27 -13 29 *
So

0100000
+12 0 *
Ve
0.000000100000000
23.699999999999999 -7.000000000000000 0.000000000000000
0 0

0101101
*
Ed
 0.000000100000000 1 1 0
1  3 0 0.000000000000000 29.000000000000000
3  9 10CN 5 0 0.000000000000000 29.000000000000000
0

0101000
+10 5 -10 7 *
Ed
 0.000000100000000 1 1 0
1  4 0 0.000000000000000 6.283185307179586
2  11 5 8 0.000000000000000 6.283185307179586
2  12 5 9 0.000000000000000 6.283185307179586
2  13 6 17 0.000000000000000 6.283185307179586
2  14 6 19 0.000000000000000 6.283185307179586
2  15 7 24 0.000000000000000 6.283185307179586
2  16 7 26 0.000000000000000 6.283185307179586
0

0101100
+10 0 -10 0 *
Wi

0101100
+9 0 -9 0 -8 5 +8 7 *
Fa
0  0.000000100000000 5 0

0111000
+7 0 *
Wi

0101100
+8 0 *
Fa
0  0.000000100000000 8 0

0111000
+5 28 *
Sh

0101100
+6 0 +4 27 -4 29 *
So

0100000
+3 0 *
Co

1100000
+11 0 +2 0 *

+1 0 