
CASCADE Topology V1, (c) Matra-Datavision
Locations 6
1
1.000000000000000 0.000000000000000 0.000000000000000 0.000000000000000 
0.000000000000000 1.000000000000000 0.000000000000000 0.000000000000000 
0.000000000000000 0.000000000000000 1.000000000000000 0.000000000000000 
1
1.000000000000000 0.000000000000000 0.000000000000000 -0.000000000000000 
0.000000000000000 1.000000000000000 0.000000000000000 206.000000000000000 
0.000000000000000 0.000000000000000 1.000000000000000 0.000000000000046 
1
1.000000000000000 0.000000000000000 0.000000000000000 0.000000000000000 
0.000000000000000 1.000000000000000 0.000000000000000 -206.000000000000000 
0.000000000000000 0.000000000000000 1.000000000000000 -0.000000000000046 
2  2 1 3 1 0
2  3 -1 2 -1 0
2  2 -1 0
Curve2ds 93
1 1.57079632679489656 0.00000000000000000 0.00000000000000000 -1.00000000000000000 
1 -0.00000000000000000 -0.30000000000000249 1.00000000000000000 0.00000000000000000 
1 0.00000000000000000 -0.30000000000000071 -1.00000000000000000 0.00000000000000000 
1 0.00000000000000000 0.00000000000000000 0.00000000000000000 -1.00000000000000000 
1 77.60000000000000853 -0.00000000000003961 0.00000000000000000 -1.00000000000000000 
1 0.00000000000000000 0.00000000000000000 1.00000000000000000 0.00000000000000000 
1 0.00000000000000001 -0.30000000000000071 -1.00000000000000000 0.00000000000000000 
1 -0.00000000000000001 -0.30000000000000071 1.00000000000000000 0.00000000000000000 
1 -0.39999999999999997 -0.00000000000000009 1.00000000000000000 0.00000000000000000 
1 -0.39999999999999997 -206.00000000000000000 1.00000000000000000 0.00000000000000000 
1 0.00000000000000000 0.00000000000000000 0.00000000000000000 -1.00000000000000000 
1 -0.00000000000000007 -0.29999999999999999 1.00000000000000000 0.00000000000000000 
1 0.00000000000000007 -0.30000000000000004 -1.00000000000000000 0.00000000000000000 
1 22.20000000000000284 0.00000000000000000 0.00000000000000000 -1.00000000000000000 
1 0.00000000000000000 0.00000000000000000 1.00000000000000000 0.00000000000000000 
1 0.00000000000000000 0.00000000000000000 1.00000000000000000 0.00000000000000000 
1 0.00000000000000000 -206.00000000000000000 1.00000000000000000 0.00000000000000000 
1 6.28318530717958623 0.00000000000000000 -1.00000000000000000 0.00000000000000000 
1 0.00000000000000000 0.00000000000000000 1.00000000000000000 0.00000000000000000 
6 0 1 -78.00000000000000000 -0.30000000000000071  -78.00000000000000000 0.00000000000000000  
1 77.60000000000000853 -0.00000000000003961 0.00000000000000000 -1.00000000000000000 
6 0 1 78.00000000000000000 -0.30000000000000071  78.00000000000000000 0.00000000000000000  
1 -0.39999999999999997 -0.00000000000000009 1.00000000000000000 0.00000000000000000 
1 0.00000000000000000 0.00000000000000000 1.00000000000000000 0.00000000000000000 
6 0 1 0.00000000000000000 -0.30000000000000071  0.00000000000000000 0.00000000000000000  
6 0 1 0.39999999999999997 -0.30000000000000071  0.39999999999999997 0.00000000000000000  
8 0.00000000000000000 1.00000000000000000
1 1.57079632679489656 0.00000000000000000 0.00000000000000000 1.00000000000000000 
6 0 1 -0.39999999999999997 -0.30000000000000071  -0.39999999999999997 0.00000000000000000  
6 0 1 -206.00000000000000000 -0.30000000000000071  -206.00000000000000000 0.00000000000000000  
8 0.00000000000000000 1.00000000000000000
1 4.71238898038468967 0.00000000000000000 0.00000000000000000 1.00000000000000000 
1 -0.39999999999999997 -206.00000000000000000 1.00000000000000000 0.00000000000000000 
1 0.00000000000000000 0.00000000000000000 -1.00000000000000000 0.00000000000000000 
1 6.28318530717958623 0.00000000000000000 0.00000000000000000 -1.00000000000000000 
1 -0.00000000000000007 -0.29999999999999438 1.00000000000000000 0.00000000000000000 
1 0.00000000000000007 -0.29999999999999999 -1.00000000000000000 0.00000000000000000 
1 0.00000000000000000 0.00000000000000000 0.00000000000000000 -1.00000000000000000 
1 0.00000000000000000 0.00000000000000000 1.00000000000000000 0.00000000000000000 
1 0.00000000000000000 -0.29999999999999999 -1.00000000000000000 0.00000000000000000 
1 0.00000000000000000 -0.29999999999999999 1.00000000000000000 0.00000000000000000 
1 -0.40000000000000036 0.00000000000000000 1.00000000000000000 0.00000000000000000 
1 -0.40000000000000036 -206.00000000000000000 1.00000000000000000 0.00000000000000000 
1 0.00000000000000000 1.00000000000000000 1.00000000000000000 0.00000000000000000 
1 0.00000000000000000 0.00000000000000000 0.00000000000000000 1.00000000000000000 
6 0 1 0.00000000000000000 -0.30000000000000004  0.00000000000000000 0.00000000000000000  
1 6.28318530717958623 0.00000000000000000 0.00000000000000000 1.00000000000000000 
7 0 0  1 2 2  -206.00000000000000000 -0.30000000000000004  -206.00000000000000000 0.00000000000000003 
 0.00000000000000000 2 1.00000000000000000 2
1 6.28318530717958623 1.00000000000000000 -1.00000000000000000 0.00000000000000000 
1 0.00000000000000000 0.00000000000000000 0.00000000000000000 -1.00000000000000000 
1 0.00000000000000000 0.00000000000000000 -1.00000000000000000 0.00000000000000000 
8 0.00000000000000000 206.00000000000000000
1 1.57079632679489656 0.00000000000000000 0.00000000000000000 -1.00000000000000000 
1 4.71238898038467902 0.00000000000000000 0.00000000000000000 -1.00000000000000000 
1 -0.00000000000000000 -0.30000000000000071 1.00000000000000000 0.00000000000000000 
1 0.00000000000000000 -0.30000000000000071 -1.00000000000000000 0.00000000000000000 
1 77.59999999999999432 0.00000000000003961 0.00000000000000000 -1.00000000000000000 
1 -4.71238898038467902 0.00000000000000000 1.00000000000000000 0.00000000000000000 
1 0.00000000000000000 0.00000000000000000 1.00000000000000000 0.00000000000000000 
1 0.00000000000000000 -206.00000000000000000 1.00000000000000000 0.00000000000000000 
1 6.28318530717958623 0.00000000000000000 -1.00000000000000000 0.00000000000000000 
1 0.00000000000000000 0.00000000000000000 1.00000000000000000 0.00000000000000000 
1 -0.40000000000000036 0.00000000000000000 1.00000000000000000 0.00000000000000000 
1 0.00000000000000000 0.00000000000000000 1.00000000000000000 0.00000000000000000 
6 0 1 0.40000000000000036 -0.29999999999999999  0.40000000000000036 0.00000000000000000  
6 0 1 0.00000000000000000 -0.29999999999999999  0.00000000000000000 0.00000000000000000  
8 0.00000000000000000 1.00000000000000000
1 6.28318530717958623 0.00000000000000000 0.00000000000000000 1.00000000000000000 
6 0 1 -0.40000000000000036 -0.29999999999999999  -0.40000000000000036 0.00000000000000000  
6 0 1 -206.00000000000000000 -0.29999999999999999  -206.00000000000000000 0.00000000000000000  
8 0.00000000000000000 1.00000000000000000
1 0.00000000000000000 0.00000000000000000 0.00000000000000000 1.00000000000000000 
1 -0.40000000000000036 -206.00000000000000000 1.00000000000000000 0.00000000000000000 
1 0.00000000000000000 0.00000000000000000 -1.00000000000000000 0.00000000000000000 
1 0.00000000000000000 0.00000000000000000 -1.00000000000000000 0.00000000000000000 
1 0.00000000000000000 0.00000000000000000 0.00000000000000000 -1.00000000000000000 
1 0.00000000000000000 0.00000000000000000 1.00000000000000000 0.00000000000000000 
1 0.00000000000000000 -0.30000000000000071 -1.00000000000000000 0.00000000000000000 
1 0.00000000000000000 -0.30000000000000071 1.00000000000000000 0.00000000000000000 
1 0.00000000000000000 0.00000000000000000 1.00000000000000000 0.00000000000000000 
1 -0.00000000000000311 -205.99999999999997158 1.00000000000000000 0.00000000000000000 
1 0.00000000000000000 1.00000000000000000 1.00000000000000000 0.00000000000000000 
1 4.71238898038467902 0.00000000000000000 0.00000000000000000 1.00000000000000000 
6 0 1 0.00000000000000000 -0.30000000000000071  0.00000000000000000 0.00000000000000000  
1 1.57079632679490722 0.00000000000000000 0.00000000000000000 1.00000000000000000 
7 0 0  1 2 2  -206.00000000000000000 -0.29999999999999893  -206.00000000000000000 0.00000000000000178 
 0.00000000000000000 2 1.00000000000000000 2
1 6.28318530717958623 1.00000000000000000 -1.00000000000000000 0.00000000000000000 
1 0.00000000000000000 0.00000000000000000 0.00000000000000000 -1.00000000000000000 
1 0.00000000000000000 0.00000000000000000 -1.00000000000000000 0.00000000000000000 
8 0.00000000000000000 206.00000000000000000
1 6.28318530717958623 0.00000000000000000 0.00000000000000000 -1.00000000000000000 
6 0 1 0.00000000000000000 -0.30000000000000071  0.00000000000000000 0.00000000000000000  
1 0.00000000000000000 0.00000000000000000 0.00000000000000000 -1.00000000000000000 
6 0 1 0.00000000000000000 -0.30000000000000071  0.00000000000000000 0.00000000000000000  
1 0.00000000000000000 0.00000000000000000 1.00000000000000000 0.00000000000000000 
1 0.00000000000000000 0.00000000000000000 1.00000000000000000 0.00000000000000000 
1 -0.00000000000000311 -205.99999999999997158 1.00000000000000000 0.00000000000000000 
1 0.00000000000000000 0.00000000000000000 -1.00000000000000000 0.00000000000000000 
1 0.00000000000000000 0.00000000000000000 -1.00000000000000000 0.00000000000000000 
Curves 39
1 11.19999999999999929 374.19999999999998863 0.40000000000008307 0.00000000000000000 -1.00000000000000000 -0.00000000000000022 
1 11.19999999999999929 374.19999999999993179 78.00000000000008527 0.00000000000000000 -1.00000000000000000 -0.00000000000000022 
1 11.19999999999999929 168.19999999999998863 0.00000000000003735 0.00000000000000000 -0.00000000000000022 1.00000000000000000 
1 11.10000000000000142 374.19999999999998863 0.30000000000008309 0.00000000000000000 -1.00000000000000000 -0.00000000000000022 
2 11.10000000000000142 168.19999999999998863 0.40000000000003733 0.00000000000000000 -1.00000000000000000 -0.00000000000000022 0.00000000000000000 0.00000000000000022 -1.00000000000000000 1.00000000000000000 0.00000000000000000 0.00000000000000000 0.10000000000000001
6 0 1 11.19999999999999929 168.19999999999996021 78.00000000000004263  11.50000000000000000 168.19999999999993179 78.00000000000004263  
1 11.50000000000000000 374.19999999999993179 78.00000000000008527 0.00000000000000000 -1.00000000000000000 -0.00000000000000022 
6 0 1 11.19999999999999929 374.19999999999993179 78.00000000000008527  11.50000000000000000 374.19999999999993179 78.00000000000008527  
1 11.50000000000000000 374.19999999999998863 0.00000000000008310 0.00000000000000000 -0.00000000000000022 1.00000000000000000 
6 0 1 11.19999999999999929 374.19999999999998863 0.40000000000008307  11.50000000000000000 374.19999999999998863 0.40000000000008307  
6 0 1 11.19999999999999929 168.19999999999998863 0.40000000000003733  11.50000000000000000 168.19999999999998863 0.40000000000003733  
1 11.50000000000000000 168.19999999999998863 0.00000000000003736 0.00000000000000000 -0.00000000000000022 1.00000000000000000 
1 -11.09999999999999964 374.19999999999998863 0.30000000000008309 0.00000000000000000 -1.00000000000000000 -0.00000000000000022 
1 -11.50000000000000000 168.19999999999998863 0.30000000000003735 1.00000000000000000 0.00000000000000000 0.00000000000000000 
2 11.10000000000000142 374.19999999999998863 0.40000000000008307 0.00000000000000000 -1.00000000000000000 -0.00000000000000022 0.00000000000000000 0.00000000000000022 -1.00000000000000000 1.00000000000000000 0.00000000000000000 0.00000000000000000 0.40000000000000002
6 0 1 11.10000000000000142 374.19999999999998863 0.30000000000008309  11.10000000000000142 374.19999999999998863 0.00000000000008304  
7 0 0  1 2 2  11.10000000000000142 168.19999999999998863 0.30000000000003735  11.09999999999999964 168.19999999999998863 0.00000000000003728 
 0.00000000000000000 2 1.00000000000000000 2
2 11.10000000000000142 168.19999999999998863 0.40000000000003733 0.00000000000000000 -1.00000000000000000 -0.00000000000000022 0.00000000000000000 0.00000000000000022 -1.00000000000000000 1.00000000000000000 0.00000000000000000 0.00000000000000000 0.40000000000000002
1 11.50000000000000000 374.19999999999998863 0.40000000000008307 0.00000000000000000 -1.00000000000000000 -0.00000000000000022 
1 -11.19999999999999929 374.19999999999998863 0.40000000000009406 0.00000000000000000 -1.00000000000000000 -0.00000000000000022 
2 -11.09999999999999964 168.19999999999998863 0.40000000000004299 0.00000000000000000 -1.00000000000000000 -0.00000000000000022 0.00000000000001088 0.00000000000000022 -1.00000000000000000 1.00000000000000000 -0.00000000000000000 0.00000000000001088 0.10000000000000001
1 -11.50000000000000000 374.19999999999998863 0.00000000000008310 1.00000000000000000 0.00000000000000000 0.00000000000000000 
6 0 1 -11.09999999999999964 374.19999999999998863 0.30000000000008309  -11.09999999999999964 374.19999999999998863 0.00000000000008310  
6 0 1 -11.09999999999999964 168.19999999999998863 0.30000000000003735  -11.09999999999999964 168.19999999999998863 0.00000000000003736  
1 -11.50000000000000000 168.19999999999998863 0.00000000000003736 1.00000000000000000 0.00000000000000000 0.00000000000000000 
1 11.10000000000000142 374.19999999999998863 0.00000000000008304 0.00000000000000000 -1.00000000000000000 -0.00000000000000022 
1 -11.19999999999999929 374.19999999999993179 78.00000000000008527 0.00000000000000000 -1.00000000000000000 -0.00000000000000022 
1 -11.19999999999999929 168.19999999999996021 78.00000000000004263 0.00000000000000000 0.00000000000000022 -1.00000000000000000 
2 -11.09999999999999964 374.19999999999998863 0.40000000000008873 0.00000000000000000 -1.00000000000000000 -0.00000000000000022 0.00000000000001088 0.00000000000000022 -1.00000000000000000 1.00000000000000000 -0.00000000000000000 0.00000000000001088 0.40000000000000002
6 0 1 -11.19999999999999929 374.19999999999998863 0.40000000000009406  -11.50000000000000000 374.19999999999998863 0.40000000000008873  
7 0 0  1 2 2  -11.20000000000000107 168.19999999999998863 0.40000000000004299  -11.50000000000000178 168.19999999999998863 0.40000000000004282 
 0.00000000000000000 2 1.00000000000000000 2
2 -11.09999999999999964 168.19999999999998863 0.40000000000004299 0.00000000000000000 -1.00000000000000000 -0.00000000000000022 0.00000000000001088 0.00000000000000022 -1.00000000000000000 1.00000000000000000 -0.00000000000000000 0.00000000000001088 0.40000000000000002
1 -11.09999999999999964 374.19999999999998863 0.00000000000008310 0.00000000000000000 -1.00000000000000000 -0.00000000000000022 
6 0 1 -11.19999999999999929 374.19999999999993179 78.00000000000008527  -11.50000000000000000 374.19999999999993179 78.00000000000008527  
1 -11.50000000000000000 374.19999999999993179 78.00000000000008527 0.00000000000000000 -1.00000000000000000 -0.00000000000000022 
6 0 1 -11.19999999999999929 168.19999999999996021 78.00000000000004263  -11.50000000000000000 168.19999999999993179 78.00000000000004263  
1 -11.50000000000000000 374.19999999999993179 78.00000000000008527 0.00000000000000000 0.00000000000000022 -1.00000000000000000 
1 -11.50000000000000000 168.19999999999996021 78.00000000000004263 0.00000000000000000 0.00000000000000022 -1.00000000000000000 
1 -11.50000000000000000 374.19999999999998863 0.40000000000008873 0.00000000000000000 -1.00000000000000000 -0.00000000000000022 
Polygon3D 0
PolygonOnTriangulations 0
Surfaces 35
1 11.19999999999999929 374.19999999999998863 0.40000000000008307 -1.00000000000000000 -0.00000000000000000 0.00000000000000000 0.00000000000000000 -0.00000000000000022 1.00000000000000000 0.00000000000000000 1.00000000000000000 0.00000000000000022 
2 11.10000000000000142 374.19999999999998863 0.40000000000008307 -0.00000000000000000 1.00000000000000000 0.00000000000000022 0.00000000000000000 0.00000000000000022 -1.00000000000000000 1.00000000000000000 -0.00000000000000000 0.00000000000000000 0.10000000000000001
1 11.50000000000000178 374.19999999999998863 0.40000000000008307 0.00000000000000000 -0.00000000000000022 1.00000000000000000 0.00000000000000000 -1.00000000000000000 -0.00000000000000022 1.00000000000000000 0.00000000000000000 0.00000000000000000 
1 11.50000000000000000 374.19999999999998863 0.40000000000008307 0.00000000000000000 0.00000000000000022 -1.00000000000000000 0.00000000000000000 1.00000000000000000 0.00000000000000022 1.00000000000000000 -0.00000000000000000 0.00000000000000000 
1 11.19999999999999929 168.19999999999998863 0.00000000000003735 -1.00000000000000000 -0.00000000000000000 0.00000000000000000 0.00000000000000000 -0.00000000000000022 1.00000000000000000 0.00000000000000000 1.00000000000000000 0.00000000000000022 
1 11.50000000000000000 168.19999999999998863 0.00000000000003736 0.00000000000000000 -1.00000000000000000 -0.00000000000000022 0.00000000000000000 0.00000000000000022 -1.00000000000000000 1.00000000000000000 0.00000000000000000 0.00000000000000000 
1 11.50000000000000000 374.19999999999998863 0.00000000000008310 -0.00000000000000000 1.00000000000000000 0.00000000000000022 0.00000000000000000 -0.00000000000000022 1.00000000000000000 1.00000000000000000 0.00000000000000000 0.00000000000000000 
1 -11.09999999999999964 374.19999999999998863 0.30000000000008309 0.00000000000000000 -0.00000000000000022 1.00000000000000000 1.00000000000000000 0.00000000000000000 0.00000000000000000 -0.00000000000000000 1.00000000000000000 0.00000000000000022 
1 11.10000000000000320 374.19999999999998863 0.00000000000008310 1.00000000000000000 -0.00000000000000000 0.00000000000000592 0.00000000000000000 -1.00000000000000000 -0.00000000000000022 0.00000000000000592 0.00000000000000022 -1.00000000000000000 
1 11.10000000000000142 374.19999999999998863 0.00000000000008304 -1.00000000000000000 0.00000000000000000 -0.00000000000000000 0.00000000000000000 1.00000000000000000 0.00000000000000022 0.00000000000000000 0.00000000000000022 -1.00000000000000000 
2 11.10000000000000142 168.19999999999998863 0.40000000000003733 0.00000000000000000 -1.00000000000000000 -0.00000000000000022 -0.00000000000000000 0.00000000000000022 -1.00000000000000000 1.00000000000000000 0.00000000000000000 0.00000000000000000 0.10000000000000001
9 0 0 0 0 7 1 8 2 2 2 11.19999999999999396 168.19999999999984652 0.40000000000003705  11.49999999999999289 168.19999999999984652 0.40000000000003721  
11.20000000000009877 168.20000000000206342 0.37756005247439972  11.50000000000007638 168.20000000000206342 0.31024020989747347  
11.19412511134462029 168.19999999999470219 0.35512021350168338  11.47650044537920877 168.19999999999470219 0.22048085400665482  
11.18237627222051955 168.20000000000771934 0.33452530591775431  11.42950508888102057 168.20000000000771934 0.13810122367085778  
11.16547469408205373 168.19999999999308216 0.31762372777980663  11.36189877632913259 168.19999999999308216 0.07049491111915439  
11.14487978649846589 168.20000000000388241 0.30587488865520640  11.27951914599337080 168.20000000000388241 0.02349955462069358  
11.12243994752560994 168.19999999999882334 0.30000000000003613  11.18975979010258648 168.19999999999882334 0.00000000000003713  
11.10000000000000142 168.19999999999998863 0.30000000000003735  11.09999999999999964 168.19999999999998863 0.00000000000003728  

4.71238898038468967 8
6.28318530717958623 8

0.00000000000000000 2
1.00000000000000000 2

9 0 0 0 0 7 1 8 2 2 2 11.09999999999999964 374.19999999999998863 0.30000000000008314  11.10000000000000142 374.19999999999998863 0.00000000000008304  
11.12243994752568099 374.20000000000010232 0.30000000000008298  11.18975979010259536 374.20000000000010232 0.00000000000008344  
11.14487978649815503 374.19999999999737383 0.30587488865524515  11.27951914599323047 374.19999999999737383 0.02349955462073658  
11.16547469408267901 374.20000000000510454 0.31762372777986697  11.36189877632947542 374.20000000000510454 0.07049491111920579  
11.18237627221983743 374.19999999999532747 0.33452530591778357  11.42950508888059069 374.19999999999532747 0.13810122367089647  
11.19412511134505195 374.20000000000260343 0.35512021350173961  11.47650044537952319 374.20000000000260343 0.22048085400670528  
11.19999999999994422 374.19999999999924967 0.37756005247444147  11.49999999999994849 374.19999999999924967 0.31024020989751733  
11.19999999999999929 374.19999999999998863 0.40000000000008307  11.50000000000000178 374.19999999999998863 0.40000000000008307  

0.00000000000000000 8
1.57079632679489656 8

0.00000000000000000 2
1.00000000000000000 2

1 11.50000000000000000 374.19999999999993179 78.00000000000008527 0.00000000000000000 -0.00000000000000022 1.00000000000000000 0.00000000000000000 -1.00000000000000000 -0.00000000000000022 1.00000000000000000 0.00000000000000000 0.00000000000000000 
1 11.50000000000000000 374.19999999999998863 0.40000000000008307 -1.00000000000000000 -0.00000000000000000 0.00000000000000000 0.00000000000000000 -0.00000000000000022 1.00000000000000000 0.00000000000000000 1.00000000000000000 0.00000000000000022 
2 -11.09999999999999964 374.19999999999998863 0.40000000000008873 -0.00000000000000000 1.00000000000000000 0.00000000000000022 0.00000000000001088 0.00000000000000022 -1.00000000000000000 1.00000000000000000 -0.00000000000000000 0.00000000000001088 0.10000000000000001
1 -11.09999999999999609 374.19999999999998863 0.00000000000008871 1.00000000000000000 -0.00000000000000000 0.00000000000001184 0.00000000000000000 -1.00000000000000000 -0.00000000000000022 0.00000000000001184 0.00000000000000022 -1.00000000000000000 
1 -11.09999999999999964 374.19999999999998863 0.00000000000008310 -1.00000000000000000 0.00000000000000000 -0.00000000000000000 0.00000000000000000 1.00000000000000000 0.00000000000000022 0.00000000000000000 0.00000000000000022 -1.00000000000000000 
1 -11.50000000000000000 168.19999999999998863 0.30000000000003735 0.00000000000000000 -0.00000000000000022 1.00000000000000000 1.00000000000000000 0.00000000000000000 0.00000000000000000 -0.00000000000000000 1.00000000000000000 0.00000000000000022 
1 -11.50000000000000000 168.19999999999998863 0.00000000000003736 0.00000000000000000 -1.00000000000000000 0.00000000000000000 -1.00000000000000000 0.00000000000000000 0.00000000000000000 -0.00000000000000000 -0.00000000000000000 -1.00000000000000000 
1 -11.50000000000000000 374.19999999999998863 0.00000000000008310 -0.00000000000000000 1.00000000000000000 0.00000000000000000 1.00000000000000000 0.00000000000000000 0.00000000000000000 0.00000000000000000 0.00000000000000000 -1.00000000000000000 
2 11.10000000000000142 374.19999999999998863 0.40000000000008307 -0.00000000000000000 1.00000000000000000 0.00000000000000022 0.00000000000000000 0.00000000000000022 -1.00000000000000000 1.00000000000000000 -0.00000000000000000 0.00000000000000000 0.40000000000000002
1 -11.19999999999999929 374.19999999999993179 78.00000000000008527 1.00000000000000000 0.00000000000000000 0.00000000000000000 0.00000000000000000 0.00000000000000022 -1.00000000000000000 -0.00000000000000000 1.00000000000000000 0.00000000000000022 
1 -11.50000000000000000 374.19999999999998863 0.40000000000009095 0.00000000000001036 0.00000000000000022 -1.00000000000000000 0.00000000000000000 -1.00000000000000000 -0.00000000000000022 -1.00000000000000000 0.00000000000000000 -0.00000000000001036 
1 -11.50000000000000000 374.19999999999998863 0.40000000000008873 -0.00000000000001776 -0.00000000000000022 1.00000000000000000 0.00000000000000000 1.00000000000000000 0.00000000000000022 -1.00000000000000000 0.00000000000000000 -0.00000000000001776 
2 -11.09999999999999964 168.19999999999998863 0.40000000000004277 0.00000000000000000 -1.00000000000000000 -0.00000000000000022 -1.00000000000000000 -0.00000000000000000 0.00000000000000000 -0.00000000000000000 0.00000000000000022 -1.00000000000000000 0.10000000000000001
9 0 0 0 0 7 1 8 2 2 2 -11.09999999999999964 168.19999999999998863 0.30000000000004307  -11.09999999999999787 168.19999999999998863 0.00000000000004299  
-11.12243994752563658 168.20000000000001705 0.30000000000004295  -11.18975979010258115 168.20000000000001705 0.00000000000004254  
-11.14487978649830247 168.19999999999913598 0.30587488865520357  -11.27951914599325178 168.19999999999913598 0.02349955462069407  
-11.16547469408238769 168.20000000000203499 0.31762372777982856  -11.36189877632940792 168.20000000000203499 0.07049491111916545  
-11.18237627222015362 168.19999999999797069 0.33452530591774049  -11.42950508888067418 168.19999999999797069 0.13810122367085281  
-11.19412511134486010 168.20000000000123919 0.35512021350170153  -11.47650044537945213 168.20000000000123919 0.22048085400666506  
-11.20000000000000107 168.19999999999953388 0.37756005247440044  -11.49999999999996803 168.19999999999953388 0.31024020989747603  
-11.20000000000000107 168.19999999999998863 0.40000000000004299  -11.50000000000000178 168.19999999999998863 0.40000000000004282  

0.00000000000000000 8
1.57079632679490722 8

0.00000000000000000 2
1.00000000000000000 2

9 0 0 0 0 7 1 8 2 2 2 -11.20000000000000107 374.19999999999998863 0.40000000000008873  -11.49999999999999822 374.19999999999998863 0.40000000000008878  
-11.20000000000004547 374.20000000000067075 0.37756005247444790  -11.50000000000002487 374.20000000000067075 0.31024020989752299  
-11.19412511134470734 374.19999999999851070 0.35512021350174194  -11.47650044537927805 374.19999999999851070 0.22048085400670811  
-11.18237627222041830 374.20000000000237605 0.33452530591779500  -11.42950508888100636 374.20000000000237605 0.13810122367090261  
-11.16547469408213011 374.19999999999765805 0.31762372777986581  -11.36189877632903489 374.19999999999765805 0.07049491111920768  
-11.14487978649841970 374.20000000000112550 0.30587488865525314  -11.27951914599345962 374.20000000000112550 0.02349955462074194  
-11.12243994752562593 374.20000000000010232 0.30000000000008847  -11.18975979010254918 374.20000000000010232 0.00000000000008769  
-11.09999999999999964 374.19999999999998863 0.30000000000008875  -11.09999999999999432 374.19999999999998863 0.00000000000008868  

4.71238898038467902 8
6.28318530717958623 8

0.00000000000000000 2
1.00000000000000000 2

1 -11.09999999999999964 374.19999999999998863 0.00000000000008310 0.00000000000000000 -0.00000000000000022 1.00000000000000000 1.00000000000000000 0.00000000000000000 0.00000000000000000 -0.00000000000000000 1.00000000000000000 0.00000000000000022 
1 -11.19999999999999929 168.19999999999996021 78.00000000000004263 1.00000000000000000 0.00000000000000000 0.00000000000000000 0.00000000000000000 0.00000000000000022 -1.00000000000000000 -0.00000000000000000 1.00000000000000000 0.00000000000000022 
1 -11.50000000000000000 168.19999999999996021 78.00000000000004263 -0.00000000000000000 -1.00000000000000000 -0.00000000000000022 -0.00000000000000000 -0.00000000000000022 1.00000000000000000 -1.00000000000000000 0.00000000000000000 0.00000000000000000 
1 -11.50000000000000000 374.19999999999993179 78.00000000000008527 0.00000000000000000 1.00000000000000000 0.00000000000000022 0.00000000000000000 0.00000000000000022 -1.00000000000000000 -1.00000000000000000 0.00000000000000000 0.00000000000000000 
2 -11.09999999999999964 374.19999999999998863 0.40000000000008873 -0.00000000000000000 1.00000000000000000 0.00000000000000022 0.00000000000001088 0.00000000000000022 -1.00000000000000000 1.00000000000000000 -0.00000000000000000 0.00000000000001088 0.40000000000000002
1 -11.50000000000000000 374.19999999999993179 78.00000000000008527 0.00000000000000000 -0.00000000000000022 1.00000000000000000 -0.00000000000000000 1.00000000000000000 0.00000000000000022 -1.00000000000000000 -0.00000000000000000 0.00000000000000000 
1 -11.50000000000000000 374.19999999999993179 78.00000000000008527 1.00000000000000000 0.00000000000000000 0.00000000000000000 0.00000000000000000 0.00000000000000022 -1.00000000000000000 -0.00000000000000000 1.00000000000000000 0.00000000000000022 
Triangulations 0

TShapes 104
Ve
0.001000000000000
11.199999999999999 168.199999999999989 0.400000000000037
0 0

0101101
*
Ed
 0.001000000000000 1 1 0
1  1 0 0.000000000000000 206.000000000000000
2  1 2 0 0.000000000000000 206.000000000000000
4 G1 1 0 2 0
2  2 3 0 0.000000000000000 206.000000000000000
2  3 4 0 0.000000000000000 206.000000000000000
2  4 1 0 0.000000000000000 206.000000000000000
0

0101000
+104 2 -104 4 *
Ve
0.001000000000000
11.199999999999999 168.199999999999960 78.000000000000043
0 0

0101101
*
Ed
 0.001000000000000 1 1 0
1  2 0 0.000000000000000 206.000000000000000
2  5 1 0 0.000000000000000 206.000000000000000
0

0101000
+102 2 -102 4 *
Ed
 0.001000000000000 1 1 0
2  6 5 0 0.400000000000000 78.000000000000000
1  3 0 0.400000000000000 78.000000000000000
2  7 6 5 0.400000000000000 78.000000000000000
2  8 7 6 0.400000000000000 78.000000000000000
2  9 1 6 0.400000000000000 78.000000000000000
2  10 1 5 0.400000000000000 78.000000000000000
0

0101000
+104 0 -102 0 *
Wi

0101100
+103 0 -101 0 -100 2 +100 4 *
Fa
0  0.001000000000000 1 0

0101000
+99 0 *
Ve
0.001000000000000
11.100000000000001 168.199999999999989 0.300000000000037
0 0

0101101
*
Ed
 0.001000000000000 1 1 0
1  4 0 0.000000000000000 206.000000000000000
2  11 2 0 0.000000000000000 206.000000000000000
4 G1 2 0 8 0
2  12 9 0 0.000000000000000 206.000000000000000
2  13 10 0 0.000000000000000 206.000000000000000
2  14 8 0 0.000000000000000 206.000000000000000
0

0101000
+97 2 -97 4 *
Ed
 0.000000100000000 1 1 0
2  15 11 0 0.000000000000000 1.570796326794897
1  5 0 0.000000000000000 1.570796326794897
2  16 2 6 0.000000000000000 1.570796326794897
2  17 2 5 0.000000000000000 1.570796326794897
2  18 12 5 0.000000000000000 1.570796326794897
2  19 13 6 0.000000000000000 1.570796326794897
0

0101000
+97 0 -104 0 *
Wi

0101100
+96 0 -103 0 -95 2 +95 4 *
Fa
0  0.000000100000000 2 0

0101000
+94 0 *
Ve
0.001000000000000
11.500000000000000 168.199999999999932 78.000000000000043
0 0

0101101
*
Ed
 0.000000100000000 1 1 0
1  6 0 0.000000000000000 1.000000000000000
4 C0 14 0 6 0
2  20 6 0 0.000000000000000 1.000000000000000
0

0101000
+102 4 -92 0 *
Ve
0.001000000000000
11.500000000000000 374.199999999999932 78.000000000000085
0 0

0101101
*
Ed
 0.001000000000000 1 1 0
2  21 15 0 0.000000000000000 206.000000000000000
1  7 0 0.000000000000000 206.000000000000000
0

0101000
+90 0 -92 0 *
Ed
 0.000000100000000 1 1 0
1  8 0 0.000000000000000 1.000000000000000
4 C0 14 0 7 0
2  22 7 0 0.000000000000000 1.000000000000000
0

0101000
+102 2 -90 0 *
Wi

0101000
+101 0 +91 0 -89 0 -88 0 *
Fa
0  0.000000100000000 14 0

0101000
+87 0 *
Ve
0.001000000000000
11.500000000000000 374.199999999999989 0.400000000000083
0 0

0101101
*
Ed
 0.001000000000000 1 1 0
2  23 15 0 0.400000000000000 78.000000000000000
1  9 0 0.400000000000000 78.000000000000000
2  24 7 0 0.400000000000000 78.000000000000000
0

0101000
+85 0 -90 0 *
Ed
 0.000000100000002 1 1 0
1  10 0 0.000000000000000 1.000000000000000
4 C0 4 0 7 0
2  25 4 0 0.000000000000000 1.000000000000000
2  26 7 0 0.000000000000000 1.000000000000000
2  27 13 0 0.000000000000000 1.000000000000000
0

0101000
+104 2 -85 0 *
Wi

0101100
+100 2 +88 0 -84 0 -83 0 *
Fa
0  0.000000100000000 7 0

0101000
+82 0 *
Ve
0.001000000000000
11.500000000000000 168.199999999999989 0.400000000000037
0 0

0101101
*
Ed
 0.000000100000002 1 1 0
1  11 0 0.000000000000000 1.000000000000000
4 C0 6 0 4 0
2  28 6 0 0.000000000000000 1.000000000000000
2  29 4 0 0.000000000000000 1.000000000000000
2  30 12 0 0.000000000000000 1.000000000000000
0

0101000
+104 4 -80 0 *
Ed
 0.001000000000000 1 1 0
2  31 15 0 0.400000000000000 78.000000000000000
1  12 0 0.400000000000000 78.000000000000000
2  32 6 0 0.400000000000000 78.000000000000000
0

0101000
+80 0 -92 0 *
Wi

0101100
-100 4 +79 0 +78 0 -91 0 *
Fa
0  0.000000100000000 6 0

0101000
+77 0 *
Ve
0.001000000000000
-11.100000000000000 168.199999999999989 0.300000000000037
0 0

0101101
*
Ed
 0.001000000000000 1 1 0
1  13 0 0.000000000000000 206.000000000000000
2  33 16 0 0.000000000000000 206.000000000000000
4 G1 8 0 16 0
2  34 17 0 0.000000000000000 206.000000000000000
2  35 18 0 0.000000000000000 206.000000000000000
2  36 8 0 0.000000000000000 206.000000000000000
0

0101000
+75 2 -75 4 *
Ed
 0.001000000000000 1 1 0
2  37 19 0 0.400000000000000 22.600000000000001
1  14 0 0.400000000000000 22.600000000000001
2  38 20 5 0.400000000000000 22.600000000000001
2  39 21 6 0.400000000000000 22.600000000000001
2  40 8 6 0.400000000000000 22.600000000000001
2  41 8 5 0.400000000000000 22.600000000000001
0

0101000
+75 0 -97 0 *
Wi

0101100
+74 0 -96 0 -73 2 +73 4 *
Fa
0  0.001000000000000 8 0

0101000
+72 0 *
Ve
0.001000000000001
11.100000000000001 374.199999999999989 0.000000000000083
0 0

0101101
*
Ed
 0.000000100000000 1 1 0
2  16 22 0 0.000000000000000 1.570796326794897
1  15 0 0.000000000000000 1.570796326794897
2  42 13 0 0.000000000000000 1.570796326794897
0

0101000
+70 0 -85 0 *
Ed
 0.000000100000002 1 1 0
1  16 0 0.000000000000000 1.000000000000000
2  43 13 0 0.000000000000000 1.000000000000000
4 C0 10 0 13 0
2  44 10 0 0.000000000000000 1.000000000000000
0

0101000
+97 2 -70 0 *
Wi

0101100
+95 2 +83 0 -69 0 -68 0 *
Fa
0  0.000000100000000 13 0

0101000
+67 0 *
Ve
0.001000000000001
11.100000000000001 168.199999999999989 0.000000000000037
0 0

0101101
*
Ed
 0.000000100000004 1 1 0
1  17 0 0.000000000000000 1.000000000000000
2  45 12 0 0.000000000000000 1.000000000000000
4 C0 12 0 10 0
2  46 10 0 0.000000000000000 1.000000000000000
0

0101000
+97 4 -65 0 *
Ed
 0.000000100000000 1 1 0
2  17 22 0 0.000000000000000 1.570796326794897
1  18 0 0.000000000000000 1.570796326794897
2  47 12 0 0.000000000000000 1.570796326794897
0

0101000
+65 0 -80 0 *
Wi

0101100
-95 4 +64 0 +63 0 -79 0 *
Fa
0  0.000000100000000 12 0

0101000
+62 0 *
Ed
 0.001000000000000 1 1 0
2  48 15 0 0.000000000000000 206.000000000000000
1  19 0 0.000000000000000 206.000000000000000
2  49 4 0 0.000000000000000 206.000000000000000
2  50 22 0 0.000000000000000 206.000000000000000
0

0101000
+85 0 -80 0 *
Wi

0101100
+60 0 -89 0 -84 0 +78 0 *
Fa
0  0.001000000000000 15 0

0101000
+59 0 *
Ve
0.001000000000000
-11.199999999999999 168.199999999999989 0.400000000000048
0 0

0101101
*
Ed
 0.001000000000000 1 1 0
1  20 0 0.000000000000000 206.000000000000000
2  51 16 0 0.000000000000000 206.000000000000000
4 G1 16 0 23 0
2  52 24 0 0.000000000000000 206.000000000000000
2  53 25 0 0.000000000000000 206.000000000000000
2  54 23 0 0.000000000000000 206.000000000000000
0

0101000
+57 2 -57 4 *
Ed
 0.000000100000000 1 1 0
2  55 26 0 4.712388980384679 6.283185307179586
1  21 0 4.712388980384679 6.283185307179586
2  56 16 6 4.712388980384679 6.283185307179586
2  57 16 5 4.712388980384679 6.283185307179586
2  58 27 5 4.712388980384679 6.283185307179586
2  59 28 6 4.712388980384679 6.283185307179586
0

0101000
+57 0 -75 0 *
Wi

0101100
+56 0 -74 0 -55 2 +55 4 *
Fa
0  0.000000100000000 16 0

0101000
+54 0 *
Ve
0.001000000000000
-11.100000000000000 374.199999999999989 0.000000000000083
0 0

0101101
*
Ed
 0.001000000000000 1 1 0
2  60 29 0 0.400000000000000 22.600000000000001
1  22 0 0.400000000000000 22.600000000000001
2  61 21 0 0.400000000000000 22.600000000000001
0

0101000
+52 0 -70 0 *
Ed
 0.000000100000004 1 1 0
1  23 0 0.000000000000000 1.000000000000000
4 C0 18 0 21 0
2  62 21 0 0.000000000000000 1.000000000000000
2  63 18 0 0.000000000000000 1.000000000000000
2  64 28 0 0.000000000000000 1.000000000000000
0

0101000
+75 2 -52 0 *
Wi

0101100
+73 2 +68 0 -51 0 -50 0 *
Fa
0  0.000000100000000 21 0

0101000
+49 0 *
Ve
0.001000000000000
-11.100000000000000 168.199999999999989 0.000000000000037
0 0

0101101
*
Ed
 0.000000100000004 1 1 0
1  24 0 0.000000000000000 1.000000000000000
4 C0 20 0 18 0
2  65 20 0 0.000000000000000 1.000000000000000
2  66 18 0 0.000000000000000 1.000000000000000
2  67 27 0 0.000000000000000 1.000000000000000
0

0101000
+75 4 -47 0 *
Ed
 0.001000000000000 1 1 0
2  68 29 0 0.400000000000000 22.600000000000001
1  25 0 0.400000000000000 22.600000000000001
2  69 20 0 0.400000000000000 22.600000000000001
0

0101000
+47 0 -65 0 *
Wi

0101100
-73 4 +46 0 +45 0 -64 0 *
Fa
0  0.000000100000000 20 0

0101000
+44 0 *
Ed
 0.001000000000000 1 1 0
2  11 22 0 0.000000000000000 206.000000000000000
1  26 0 0.000000000000000 206.000000000000000
2  70 10 0 0.000000000000000 206.000000000000000
0

0101000
+70 0 -65 0 *
Wi

0101100
+42 0 -60 0 -69 0 +63 0 *
Fa
0  0.000000100000000 22 0

0101000
+41 0 *
Ve
0.001000000000000
-11.199999999999999 168.199999999999960 78.000000000000043
0 0

0101101
*
Ed
 0.001000000000000 1 1 0
1  27 0 0.000000000000000 206.000000000000000
2  71 23 0 0.000000000000000 206.000000000000000
0

0101000
+39 2 -39 4 *
Ed
 0.001000000000000 1 1 0
2  72 30 0 0.000000000000000 77.599999999999994
1  28 0 0.000000000000000 77.599999999999994
2  73 31 5 0.000000000000000 77.599999999999994
2  74 32 6 0.000000000000000 77.599999999999994
2  75 23 6 0.000000000000000 77.599999999999994
2  76 23 5 0.000000000000000 77.599999999999994
0

0101000
+39 0 -57 0 *
Wi

0101100
+38 0 -56 0 -37 2 +37 4 *
Fa
0  0.001000000000000 23 0

0101000
+36 0 *
Ve
0.001000000000001
-11.500000000000000 374.199999999999989 0.400000000000090
0 0

0101101
*
Ed
 0.000000100000000 1 1 0
2  56 33 0 4.712388980384679 6.283185307179586
1  29 0 4.712388980384679 6.283185307179586
2  77 28 0 4.712388980384679 6.283185307179586
0

0101000
+34 0 -52 0 *
Ed
 0.000000100000002 1 1 0
1  30 0 0.000000000000000 1.000000000000000
2  78 28 0 0.000000000000000 1.000000000000000
4 C0 25 0 28 0
2  79 25 0 0.000000000000000 1.000000000000000
0

0101000
+57 2 -34 0 *
Wi

0101100
+55 2 +50 0 -33 0 -32 0 *
Fa
0  0.000000100000000 28 0

0101000
+31 0 *
Ve
0.001000000000003
-11.500000000000000 168.199999999999989 0.400000000000046
0 0

0101101
*
Ed
 0.000000100000006 1 1 0
1  31 0 0.000000000000000 1.000000000000000
2  80 27 0 0.000000000000000 1.000000000000000
4 C0 27 0 25 0
2  81 25 0 0.000000000000000 1.000000000000000
0

0101000
+57 4 -29 0 *
Ed
 0.000000100000000 1 1 0
2  57 33 0 4.712388980384679 6.283185307179586
1  32 0 4.712388980384679 6.283185307179586
2  82 27 0 4.712388980384679 6.283185307179586
0

0101000
+29 0 -47 0 *
Wi

0101100
-55 4 +28 0 +27 0 -46 0 *
Fa
0  0.000000100000000 27 0

0101000
+26 0 *
Ed
 0.001000000000000 1 1 0
2  83 29 0 0.000000000000000 206.000000000000000
1  33 0 0.000000000000000 206.000000000000000
2  84 18 0 0.000000000000000 206.000000000000000
2  85 33 0 0.000000000000000 206.000000000000000
0

0101000
+52 0 -47 0 *
Wi

0101100
+24 0 -42 0 -51 0 +45 0 *
Fa
0  0.001000000000000 29 0

0101000
+23 0 *
Ve
0.001000000000000
-11.500000000000000 374.199999999999932 78.000000000000085
0 0

0101101
*
Ed
 0.000000100000000 1 1 0
1  34 0 0.000000000000000 1.000000000000000
4 C0 34 0 32 0
2  86 32 0 0.000000000000000 1.000000000000000
0

0101000
+39 2 -21 0 *
Ve
0.001000000000000
-11.500000000000000 168.199999999999932 78.000000000000043
0 0

0101101
*
Ed
 0.001000000000000 1 1 0
2  87 35 0 0.000000000000000 206.000000000000000
1  35 0 0.000000000000000 206.000000000000000
0

0101000
+21 0 -19 0 *
Ed
 0.000000100000000 1 1 0
1  36 0 0.000000000000000 1.000000000000000
4 C0 31 0 34 0
2  88 31 0 0.000000000000000 1.000000000000000
0

0101000
+39 4 -19 0 *
Wi

0101000
-38 0 +20 0 +18 0 -17 0 *
Fa
0  0.000000100000000 34 0

0101000
+16 0 *
Ed
 0.001000000000000 1 1 0
2  89 35 0 0.000000000000000 77.599999999999994
1  37 0 0.000000000000000 77.599999999999994
2  90 32 0 0.000000000000000 77.599999999999994
0

0101000
+21 0 -34 0 *
Wi

0101100
+37 2 +32 0 -14 0 -20 0 *
Fa
0  0.000000100000000 32 0

0101000
+13 0 *
Ed
 0.001000000000000 1 1 0
2  91 35 0 0.000000000000000 77.599999999999994
1  38 0 0.000000000000000 77.599999999999994
2  92 31 0 0.000000000000000 77.599999999999994
0

0101000
+19 0 -29 0 *
Wi

0101100
-37 4 +17 0 +11 0 -28 0 *
Fa
0  0.000000100000000 31 0

0101000
+10 0 *
Ed
 0.001000000000000 1 1 0
2  51 33 0 0.000000000000000 206.000000000000000
1  39 0 0.000000000000000 206.000000000000000
2  93 25 0 0.000000000000000 206.000000000000000
0

0101000
+34 0 -29 0 *
Wi

0101100
+8 0 -24 0 -33 0 +27 0 *
Fa
0  0.000000100000000 33 0

0101000
+7 0 *
Wi

0101100
+18 0 -8 0 -14 0 +11 0 *
Fa
0  0.001000000000000 35 0

0101000
+5 0 *
Sh

0101100
+98 0 +93 0 +86 0 +81 0 +76 0 +71 0 +66 0 +61 0 -58 0 +53 0 
+48 0 +43 0 -40 0 +35 0 +30 0 +25 0 -22 0 +15 0 +12 0 +9 0 
-6 0 -4 0 *
So

0100000
+3 0 *
Co

1100000
+2 0 *

+1 1 