
CASCADE Topology V1, (c) Matra-Datavision
Locations 3
1
1.000000000000000 0.000000000000000 0.000000000000000 0.000000000000000 
0.000000000000000 1.000000000000000 0.000000000000000 0.000000000000000 
0.000000000000000 0.000000000000000 1.000000000000000 0.000000000000000 
1
1.000000000000000 0.000000000000000 0.000000000000000 0.000000000000000 
0.000000000000000 1.000000000000000 0.000000000000000 -100.000000000000000 
0.000000000000000 0.000000000000000 1.000000000000000 -0.000000000000022 
2  2 -1 0
Curve2ds 98
1 1.57079632679489656 0.00000000000000000 0.00000000000000000 -1.00000000000000000 
1 0.00000000000000000 -0.29999999999999893 1.00000000000000000 0.00000000000000000 
1 0.00000000000000000 -0.30000000000000071 -1.00000000000000000 0.00000000000000000 
1 0.00000000000000000 0.00000000000000000 0.00000000000000000 -1.00000000000000000 
1 71.59999999999999432 0.00000000000000009 0.00000000000000000 -1.00000000000000000 
1 0.00000000000000000 0.00000000000000000 1.00000000000000000 0.00000000000000000 
1 0.00000000000000000 -0.30000000000000071 -1.00000000000000000 0.00000000000000000 
1 0.00000000000000000 -0.30000000000000071 1.00000000000000000 0.00000000000000000 
1 -0.39999999999999991 0.00000000000000009 1.00000000000000000 0.00000000000000000 
1 -0.39999999999999991 -100.00000000000000000 1.00000000000000000 0.00000000000000000 
1 0.00000000000000000 0.00000000000000000 0.00000000000000000 -1.00000000000000000 
1 -0.00000000000000007 -0.29999999999999999 1.00000000000000000 0.00000000000000000 
1 0.00000000000000007 -0.29999999999999988 -1.00000000000000000 0.00000000000000000 
1 22.20000000000000284 0.00000000000000000 0.00000000000000000 -1.00000000000000000 
1 0.00000000000000000 100.00000000000000000 1.00000000000000000 0.00000000000000000 
1 0.00000000000000000 0.00000000000000000 1.00000000000000000 0.00000000000000000 
1 0.00000000000000000 -100.00000000000000000 1.00000000000000000 0.00000000000000000 
1 6.28318530717958623 0.00000000000000000 -1.00000000000000000 0.00000000000000000 
1 0.00000000000000000 0.00000000000000000 1.00000000000000000 0.00000000000000000 
6 0 1 -72.00000000000000000 -0.30000000000000071  -72.00000000000000000 0.00000000000000000  
6 0 1 100.00000000000000000 -0.30000000000000071  100.00000000000000000 0.00000000000000000  
1 71.59999999999999432 0.00000000000000009 0.00000000000000000 -1.00000000000000000 
6 0 1 72.00000000000000000 -0.30000000000000071  72.00000000000000000 0.00000000000000000  
6 0 1 0.00000000000000000 -0.30000000000000071  0.00000000000000000 0.00000000000000000  
1 -0.39999999999999991 0.00000000000000009 1.00000000000000000 0.00000000000000000 
1 0.00000000000000000 0.00000000000000000 1.00000000000000000 0.00000000000000000 
6 0 1 0.00000000000000000 -0.30000000000000071  0.00000000000000000 0.00000000000000000  
6 0 1 0.39999999999999991 -0.30000000000000071  0.39999999999999991 0.00000000000000000  
8 0.00000000000000000 1.00000000000000000
1 1.57079632679489656 0.00000000000000000 0.00000000000000000 1.00000000000000000 
6 0 1 -0.39999999999999991 -0.30000000000000071  -0.39999999999999991 0.00000000000000000  
6 0 1 -100.00000000000000000 -0.30000000000000071  -100.00000000000000000 0.00000000000000000  
8 0.00000000000000000 1.00000000000000000
1 4.71238898038468967 0.00000000000000000 0.00000000000000000 1.00000000000000000 
1 -0.39999999999999991 -100.00000000000000000 1.00000000000000000 0.00000000000000000 
1 0.00000000000000000 0.00000000000000000 -1.00000000000000000 0.00000000000000000 
1 6.28318530717958623 0.00000000000000000 0.00000000000000000 -1.00000000000000000 
1 -0.00000000000000184 -0.30000000000000032 1.00000000000000000 0.00000000000000000 
1 0.00000000000000007 -0.29999999999999999 -1.00000000000000000 0.00000000000000000 
1 0.00000000000000000 0.00000000000000000 0.00000000000000000 -1.00000000000000000 
1 0.00000000000000000 0.00000000000000000 1.00000000000000000 0.00000000000000000 
1 0.00000000000000000 -0.29999999999999999 -1.00000000000000000 0.00000000000000000 
1 0.00000000000000000 -0.29999999999999999 1.00000000000000000 0.00000000000000000 
1 -0.40000000000000036 0.00000000000000000 1.00000000000000000 0.00000000000000000 
1 -0.40000000000000036 -100.00000000000000000 1.00000000000000000 0.00000000000000000 
1 0.00000000000000000 1.00000000000000000 1.00000000000000000 0.00000000000000000 
1 0.00000000000000000 0.00000000000000000 0.00000000000000000 1.00000000000000000 
6 0 1 0.00000000000000000 -0.29999999999999988  0.00000000000000000 0.00000000000000000  
1 6.28318530717958623 0.00000000000000000 0.00000000000000000 1.00000000000000000 
7 0 0  1 2 2  -100.00000000000000000 -0.30000000000000004  -100.00000000000000000 -0.00000000000000006 
 0.00000000000000000 2 1.00000000000000000 2
1 6.28318530717958623 1.00000000000000000 -1.00000000000000000 0.00000000000000000 
1 0.00000000000000000 0.00000000000000000 0.00000000000000000 -1.00000000000000000 
1 0.00000000000000000 0.00000000000000000 -1.00000000000000000 0.00000000000000000 
8 0.00000000000000000 100.00000000000000000
1 1.57079632679489656 0.00000000000000000 0.00000000000000000 -1.00000000000000000 
1 4.71238898038468612 0.00000000000000000 0.00000000000000000 -1.00000000000000000 
1 -0.00000000000000000 -0.30000000000000071 1.00000000000000000 0.00000000000000000 
1 0.00000000000000178 -0.30000000000000071 -1.00000000000000000 0.00000000000000000 
1 71.59999999999999432 -0.00000000000000009 0.00000000000000000 -1.00000000000000000 
1 -4.71238898038468612 100.00000000000000000 1.00000000000000000 0.00000000000000000 
1 0.00000000000000000 0.00000000000000000 1.00000000000000000 0.00000000000000000 
1 0.00000000000000000 -100.00000000000000000 1.00000000000000000 0.00000000000000000 
1 6.28318530717958623 0.00000000000000000 -1.00000000000000000 0.00000000000000000 
1 0.00000000000000000 0.00000000000000000 1.00000000000000000 0.00000000000000000 
1 -0.40000000000000036 0.00000000000000000 1.00000000000000000 0.00000000000000000 
1 0.00000000000000000 0.00000000000000000 1.00000000000000000 0.00000000000000000 
6 0 1 0.40000000000000036 -0.29999999999999999  0.40000000000000036 0.00000000000000000  
6 0 1 0.00000000000000000 -0.29999999999999999  0.00000000000000000 0.00000000000000000  
8 0.00000000000000000 1.00000000000000000
1 6.28318530717958623 0.00000000000000000 0.00000000000000000 1.00000000000000000 
6 0 1 -0.40000000000000036 -0.29999999999999999  -0.40000000000000036 0.00000000000000000  
6 0 1 -100.00000000000000000 -0.29999999999999999  -100.00000000000000000 0.00000000000000000  
8 0.00000000000000000 1.00000000000000000
1 0.00000000000000000 0.00000000000000000 0.00000000000000000 1.00000000000000000 
1 -0.40000000000000036 -100.00000000000000000 1.00000000000000000 0.00000000000000000 
1 0.00000000000000000 0.00000000000000000 -1.00000000000000000 0.00000000000000000 
1 0.00000000000000000 0.00000000000000000 -1.00000000000000000 0.00000000000000000 
1 0.00000000000000000 0.00000000000000000 0.00000000000000000 -1.00000000000000000 
1 0.00000000000000000 0.00000000000000000 1.00000000000000000 0.00000000000000000 
1 0.00000000000000000 -0.30000000000000071 -1.00000000000000000 0.00000000000000000 
1 0.00000000000000000 -0.30000000000000071 1.00000000000000000 0.00000000000000000 
1 0.00000000000000000 0.00000000000000000 1.00000000000000000 0.00000000000000000 
1 -0.00000000000000622 -100.00000000000000000 1.00000000000000000 0.00000000000000000 
1 0.00000000000000000 1.00000000000000000 1.00000000000000000 0.00000000000000000 
1 4.71238898038468612 0.00000000000000000 0.00000000000000000 1.00000000000000000 
6 0 1 0.00000000000000178 -0.30000000000000071  0.00000000000000000 0.00000000000000000  
1 1.57079632679490011 0.00000000000000000 0.00000000000000000 1.00000000000000000 
7 0 0  1 2 2  -100.00000000000000000 -0.30000000000000249  -100.00000000000000000 0.00000000000000355 
 0.00000000000000000 2 1.00000000000000000 2
1 6.28318530717958623 1.00000000000000000 -1.00000000000000000 0.00000000000000000 
1 0.00000000000000000 0.00000000000000000 0.00000000000000000 -1.00000000000000000 
1 0.00000000000000000 0.00000000000000000 -1.00000000000000000 0.00000000000000000 
8 0.00000000000000000 100.00000000000000000
1 6.28318530717958623 0.00000000000000000 0.00000000000000000 -1.00000000000000000 
6 0 1 0.00000000000000000 -0.30000000000000071  0.00000000000000000 0.00000000000000000  
6 0 1 0.00000000000000000 -0.30000000000000071  0.00000000000000000 0.00000000000000000  
1 0.00000000000000000 0.00000000000000000 0.00000000000000000 -1.00000000000000000 
6 0 1 0.00000000000000000 -0.30000000000000071  0.00000000000000000 0.00000000000000000  
6 0 1 -100.00000000000000000 -0.30000000000000071  -100.00000000000000000 0.00000000000000000  
1 0.00000000000000000 0.00000000000000000 1.00000000000000000 0.00000000000000000 
1 0.00000000000000000 0.00000000000000000 1.00000000000000000 0.00000000000000000 
1 -0.00000000000000622 -100.00000000000000000 1.00000000000000000 0.00000000000000000 
1 0.00000000000000000 0.00000000000000000 -1.00000000000000000 0.00000000000000000 
1 0.00000000000000000 0.00000000000000000 -1.00000000000000000 0.00000000000000000 
1 71.59999999999999432 -0.00000000000000187 0.00000000000000000 -1.00000000000000000 
Curves 39
1 11.50000000000000000 -8.00000000000000000 -0.40000000000000169 0.00000000000000000 -1.00000000000000000 -0.00000000000000022 
1 11.50000000000000000 -7.99999999999998401 -72.00000000000000000 0.00000000000000000 -1.00000000000000000 -0.00000000000000022 
1 11.50000000000000000 -8.00000000000000000 -0.00000000000000178 0.00000000000000000 0.00000000000000022 -1.00000000000000000 
1 11.10000000000000142 -8.00000000000000000 -0.00000000000000178 0.00000000000000000 -1.00000000000000000 -0.00000000000000022 
2 11.10000000000000142 -8.00000000000000000 -0.40000000000000169 -0.00000000000000000 1.00000000000000000 0.00000000000000022 0.00000000000000000 -0.00000000000000022 1.00000000000000000 1.00000000000000000 0.00000000000000000 0.00000000000000000 0.40000000000000002
6 0 1 11.50000000000000000 -107.99999999999998579 -72.00000000000002842  11.19999999999999929 -107.99999999999998579 -72.00000000000002842  
1 11.19999999999999929 -7.99999999999998401 -72.00000000000000000 0.00000000000000000 -1.00000000000000000 -0.00000000000000022 
6 0 1 11.50000000000000000 -7.99999999999998401 -72.00000000000000000  11.19999999999999929 -7.99999999999998401 -72.00000000000000000  
1 11.19999999999999929 -8.00000000000000000 -0.00000000000000178 0.00000000000000000 0.00000000000000022 -1.00000000000000000 
6 0 1 11.50000000000000000 -8.00000000000000000 -0.40000000000000169  11.19999999999999929 -8.00000000000000000 -0.40000000000000169  
6 0 1 11.50000000000000000 -108.00000000000000000 -0.40000000000002389  11.19999999999999929 -108.00000000000000000 -0.40000000000002389  
1 11.19999999999999929 -108.00000000000000000 -0.00000000000002398 0.00000000000000000 0.00000000000000022 -1.00000000000000000 
1 -11.09999999999999964 -8.00000000000000000 -0.00000000000000178 0.00000000000000000 -1.00000000000000000 -0.00000000000000022 
1 -11.50000000000000000 -8.00000000000000000 -0.00000000000000178 1.00000000000000000 0.00000000000000000 0.00000000000000000 
2 11.10000000000000142 -8.00000000000000000 -0.40000000000000169 -0.00000000000000000 1.00000000000000000 0.00000000000000022 0.00000000000000000 -0.00000000000000022 1.00000000000000000 1.00000000000000000 0.00000000000000000 0.00000000000000000 0.10000000000000003
6 0 1 11.10000000000000142 -8.00000000000000000 -0.00000000000000178  11.10000000000000142 -8.00000000000000000 -0.30000000000000165  
7 0 0  1 2 2  11.09999999999999964 -108.00000000000000000 -0.00000000000002384  11.10000000000000320 -108.00000000000000000 -0.30000000000002380 
 0.00000000000000000 2 1.00000000000000000 2
2 11.10000000000000142 -108.00000000000000000 -0.40000000000002389 -0.00000000000000000 1.00000000000000000 0.00000000000000022 0.00000000000000000 -0.00000000000000022 1.00000000000000000 1.00000000000000000 0.00000000000000000 0.00000000000000000 0.10000000000000003
1 11.19999999999999929 -8.00000000000000000 -0.40000000000000169 0.00000000000000000 -1.00000000000000000 -0.00000000000000022 
1 -11.50000000000000000 -8.00000000000000000 -0.40000000000000568 0.00000000000000000 -1.00000000000000000 -0.00000000000000022 
2 -11.09999999999999964 -8.00000000000000178 -0.40000000000000213 0.00000000000000000 1.00000000000000000 0.00000000000000022 0.00000000000000377 -0.00000000000000022 1.00000000000000000 1.00000000000000000 0.00000000000000000 -0.00000000000000377 0.40000000000000002
1 -11.50000000000000000 -8.00000000000000000 -0.30000000000000177 1.00000000000000000 0.00000000000000000 0.00000000000000000 
6 0 1 -11.09999999999999964 -8.00000000000000000 -0.00000000000000178  -11.09999999999999964 -8.00000000000000000 -0.30000000000000177  
6 0 1 -11.09999999999999964 -108.00000000000000000 -0.00000000000002398  -11.09999999999999964 -108.00000000000000000 -0.30000000000002397  
1 -11.50000000000000000 -108.00000000000000000 -0.30000000000002397 1.00000000000000000 0.00000000000000000 0.00000000000000000 
1 11.10000000000000142 -8.00000000000000000 -0.30000000000000165 0.00000000000000000 -1.00000000000000000 -0.00000000000000022 
1 -11.50000000000000000 -7.99999999999998401 -72.00000000000000000 0.00000000000000000 -1.00000000000000000 -0.00000000000000022 
1 -11.50000000000000000 -7.99999999999998401 -72.00000000000000000 0.00000000000000000 -0.00000000000000022 1.00000000000000000 
2 -11.09999999999999964 -8.00000000000000178 -0.40000000000000213 0.00000000000000000 1.00000000000000000 0.00000000000000022 0.00000000000000377 -0.00000000000000022 1.00000000000000000 1.00000000000000000 0.00000000000000000 -0.00000000000000377 0.10000000000000003
6 0 1 -11.50000000000000000 -8.00000000000000000 -0.40000000000000568  -11.19999999999999929 -8.00000000000000178 -0.40000000000000213  
7 0 0  1 2 2  -11.50000000000000178 -108.00000000000000000 -0.40000000000002423  -11.19999999999999574 -108.00000000000000000 -0.40000000000002434 
 0.00000000000000000 2 1.00000000000000000 2
2 -11.09999999999999964 -108.00000000000000000 -0.40000000000002434 0.00000000000000000 1.00000000000000000 0.00000000000000022 0.00000000000000377 -0.00000000000000022 1.00000000000000000 1.00000000000000000 0.00000000000000000 -0.00000000000000377 0.10000000000000003
1 -11.09999999999999964 -8.00000000000000000 -0.30000000000000177 0.00000000000000000 -1.00000000000000000 -0.00000000000000022 
6 0 1 -11.50000000000000000 -7.99999999999998401 -72.00000000000000000  -11.19999999999999929 -7.99999999999998401 -72.00000000000000000  
1 -11.19999999999999929 -7.99999999999998401 -72.00000000000000000 0.00000000000000000 -1.00000000000000000 -0.00000000000000022 
6 0 1 -11.50000000000000000 -107.99999999999998579 -72.00000000000002842  -11.19999999999999929 -107.99999999999998579 -72.00000000000002842  
1 -11.19999999999999929 -7.99999999999998401 -72.00000000000000000 0.00000000000000000 -0.00000000000000022 1.00000000000000000 
1 -11.19999999999999929 -107.99999999999998579 -72.00000000000002842 0.00000000000000000 -0.00000000000000022 1.00000000000000000 
1 -11.19999999999999929 -8.00000000000000178 -0.40000000000000213 -0.00000000000000000 -1.00000000000000000 -0.00000000000000022 
Polygon3D 0
PolygonOnTriangulations 0
Surfaces 35
1 11.50000000000000000 -8.00000000000000000 -0.40000000000000169 1.00000000000000000 0.00000000000000000 0.00000000000000000 0.00000000000000000 0.00000000000000022 -1.00000000000000000 -0.00000000000000000 1.00000000000000000 0.00000000000000022 
2 11.10000000000000142 -8.00000000000000000 -0.40000000000000169 -0.00000000000000000 1.00000000000000000 0.00000000000000022 0.00000000000000000 -0.00000000000000022 1.00000000000000000 1.00000000000000000 0.00000000000000000 0.00000000000000000 0.40000000000000002
1 11.20000000000000107 -8.00000000000000000 -0.40000000000000169 0.00000000000000000 0.00000000000000022 -1.00000000000000000 0.00000000000000000 -1.00000000000000000 -0.00000000000000022 -1.00000000000000000 0.00000000000000000 -0.00000000000000000 
1 11.19999999999999929 -8.00000000000000000 -0.40000000000000169 0.00000000000000000 -0.00000000000000022 1.00000000000000000 -0.00000000000000000 1.00000000000000000 0.00000000000000022 -1.00000000000000000 -0.00000000000000000 0.00000000000000000 
1 11.50000000000000000 -8.00000000000000000 -0.00000000000000178 1.00000000000000000 0.00000000000000000 0.00000000000000000 0.00000000000000000 0.00000000000000022 -1.00000000000000000 -0.00000000000000000 1.00000000000000000 0.00000000000000022 
1 11.19999999999999929 -108.00000000000000000 -0.00000000000002398 -0.00000000000000000 -1.00000000000000000 -0.00000000000000022 -0.00000000000000000 -0.00000000000000022 1.00000000000000000 -1.00000000000000000 0.00000000000000000 0.00000000000000000 
1 11.19999999999999929 -8.00000000000000000 -0.00000000000000178 0.00000000000000000 1.00000000000000000 0.00000000000000022 0.00000000000000000 0.00000000000000022 -1.00000000000000000 -1.00000000000000000 0.00000000000000000 0.00000000000000000 
1 -11.09999999999999964 -8.00000000000000000 -0.00000000000000178 0.00000000000000000 -0.00000000000000022 1.00000000000000000 1.00000000000000000 0.00000000000000000 0.00000000000000000 -0.00000000000000000 1.00000000000000000 0.00000000000000022 
1 11.10000000000000320 -8.00000000000000000 -0.30000000000000177 1.00000000000000000 -0.00000000000000000 0.00000000000000592 0.00000000000000000 -1.00000000000000000 -0.00000000000000022 0.00000000000000592 0.00000000000000022 -1.00000000000000000 
1 11.10000000000000142 -8.00000000000000000 -0.30000000000000165 -1.00000000000000000 0.00000000000000000 -0.00000000000000000 0.00000000000000000 1.00000000000000000 0.00000000000000022 0.00000000000000000 0.00000000000000022 -1.00000000000000000 
2 11.10000000000000142 -108.00000000000000000 -0.40000000000002389 -0.00000000000000000 1.00000000000000000 0.00000000000000022 0.00000000000000000 -0.00000000000000022 1.00000000000000000 1.00000000000000000 0.00000000000000000 0.00000000000000000 0.40000000000000002
9 0 0 0 0 7 1 8 2 2 2 11.49999999999999289 -107.99999999999992895 -0.40000000000002378  11.19999999999999574 -107.99999999999992895 -0.40000000000002356  
11.50000000000007638 -108.00000000000103739 -0.31024020989746048  11.20000000000010942 -108.00000000000103739 -0.37756005247438573  
11.47650044537920877 -107.99999999999749889 -0.22048085400663991  11.19412511134460608 -107.99999999999749889 -0.35512021350167150  
11.42950508888102057 -108.00000000000332534 -0.13810122367084660  11.18237627222053554 -108.00000000000332534 -0.33452530591773805  
11.36189877632913259 -107.99999999999739941 -0.07049491111913880  11.16547469408206084 -107.99999999999739941 -0.31762372777979603  
11.27951914599337080 -108.00000000000119371 -0.02349955462068143  11.14487978649845346 -108.00000000000119371 -0.30587488865519119  
11.18975979010258648 -107.99999999999971578 -0.00000000000002331  11.12243994752561882 -107.99999999999971578 -0.30000000000002292  
11.09999999999999964 -108.00000000000000000 -0.00000000000002384  11.10000000000000320 -108.00000000000000000 -0.30000000000002380  

4.71238898038468967 8
6.28318530717958623 8

0.00000000000000000 2
1.00000000000000000 2

9 0 0 0 0 7 1 8 2 2 2 11.10000000000000142 -8.00000000000000000 -0.00000000000000167  11.09999999999999964 -8.00000000000000000 -0.30000000000000171  
11.18975979010259536 -8.00000000000001776 -0.00000000000000229  11.12243994752566856 -8.00000000000001776 -0.30000000000000265  
11.27951914599323047 -7.99999999999990230 -0.02349955462065449  11.14487978649820654 -7.99999999999990230 -0.30587488865515999  
11.36189877632947542 -8.00000000000018296 -0.07049491111912549  11.16547469408257776 -8.00000000000018296 -0.31762372777979198  
11.42950508888059069 -7.99999999999982503 -0.13810122367081407  11.18237627221995290 -7.99999999999982503 -0.33452530591769558  
11.47650044537952319 -8.00000000000009948 -0.22048085400662462  11.19412511134497912 -8.00000000000009948 -0.35512021350166245  
11.49999999999994849 -7.99999999999997158 -0.31024020989743561  11.19999999999996909 -7.99999999999997158 -0.37756005247435886  
11.50000000000000178 -8.00000000000000000 -0.40000000000000169  11.19999999999999929 -8.00000000000000000 -0.40000000000000174  

0.00000000000000000 8
1.57079632679489656 8

0.00000000000000000 2
1.00000000000000000 2

1 11.19999999999999929 -7.99999999999998401 -72.00000000000000000 0.00000000000000000 0.00000000000000022 -1.00000000000000000 0.00000000000000000 -1.00000000000000000 -0.00000000000000022 -1.00000000000000000 0.00000000000000000 -0.00000000000000000 
1 11.19999999999999929 -8.00000000000000000 -0.40000000000000169 1.00000000000000000 0.00000000000000000 0.00000000000000000 0.00000000000000000 0.00000000000000022 -1.00000000000000000 -0.00000000000000000 1.00000000000000000 0.00000000000000022 
2 -11.09999999999999964 -8.00000000000000178 -0.40000000000000213 0.00000000000000000 1.00000000000000000 0.00000000000000022 0.00000000000000377 -0.00000000000000022 1.00000000000000000 1.00000000000000000 0.00000000000000000 -0.00000000000000377 0.40000000000000002
1 -11.09999999999999964 -8.00000000000000178 -0.30000000000000210 1.00000000000000000 -0.00000000000000000 0.00000000000000000 0.00000000000000000 -1.00000000000000000 -0.00000000000000022 0.00000000000000000 0.00000000000000022 -1.00000000000000000 
1 -11.09999999999999964 -8.00000000000000000 -0.30000000000000177 -1.00000000000000000 0.00000000000000000 -0.00000000000000000 0.00000000000000000 1.00000000000000000 0.00000000000000022 0.00000000000000000 0.00000000000000022 -1.00000000000000000 
1 -11.50000000000000000 -8.00000000000000000 -0.00000000000000178 0.00000000000000000 -0.00000000000000022 1.00000000000000000 1.00000000000000000 0.00000000000000000 0.00000000000000000 -0.00000000000000000 1.00000000000000000 0.00000000000000022 
1 -11.50000000000000000 -108.00000000000000000 -0.30000000000002397 0.00000000000000000 -1.00000000000000000 0.00000000000000000 -1.00000000000000000 0.00000000000000000 0.00000000000000000 -0.00000000000000000 -0.00000000000000000 -1.00000000000000000 
1 -11.50000000000000000 -8.00000000000000000 -0.30000000000000177 -0.00000000000000000 1.00000000000000000 0.00000000000000000 1.00000000000000000 0.00000000000000000 0.00000000000000000 0.00000000000000000 0.00000000000000000 -1.00000000000000000 
2 11.10000000000000142 -8.00000000000000000 -0.40000000000000169 -0.00000000000000000 1.00000000000000000 0.00000000000000022 0.00000000000000000 -0.00000000000000022 1.00000000000000000 1.00000000000000000 0.00000000000000000 0.00000000000000000 0.10000000000000003
1 -11.50000000000000000 -7.99999999999998401 -72.00000000000000000 -1.00000000000000000 -0.00000000000000000 0.00000000000000000 0.00000000000000000 -0.00000000000000022 1.00000000000000000 0.00000000000000000 1.00000000000000000 0.00000000000000022 
1 -11.19999999999999929 -8.00000000000000000 -0.40000000000000568 0.00000000000000000 -0.00000000000000022 1.00000000000000000 0.00000000000000000 -1.00000000000000000 -0.00000000000000022 1.00000000000000000 0.00000000000000000 0.00000000000000000 
1 -11.19999999999999929 -8.00000000000000178 -0.40000000000000213 0.00000000000001184 0.00000000000000022 -1.00000000000000000 0.00000000000000000 1.00000000000000000 0.00000000000000022 1.00000000000000000 -0.00000000000000000 0.00000000000001184 
2 -11.09999999999999964 -108.00000000000000000 -0.40000000000002589 0.00000000000000000 1.00000000000000000 0.00000000000000022 -1.00000000000000000 0.00000000000000000 0.00000000000000000 0.00000000000000000 -0.00000000000000022 1.00000000000000000 0.40000000000000002
9 0 0 0 0 7 1 8 2 2 2 -11.09999999999999964 -108.00000000000000000 -0.00000000000002431  -11.09999999999999609 -108.00000000000000000 -0.30000000000002436  
-11.18975979010255095 -108.00000000000005684 -0.00000000000002412  -11.12243994752565435 -108.00000000000005684 -0.30000000000002541  
-11.27951914599337080 -107.99999999999921840 -0.02349955462067795  -11.14487978649823141 -107.99999999999921840 -0.30587488865518270  
-11.36189877632922673 -108.00000000000164846 -0.07049491111914537  -11.16547469408252979 -108.00000000000164846 -0.31762372777981340  
-11.42950508888083938 -107.99999999999840838 -0.13810122367083819  -11.18237627222000086 -107.99999999999840838 -0.33452530591771967  
-11.47650044537936687 -108.00000000000092371 -0.22048085400664527  -11.19412511134494181 -108.00000000000092371 -0.35512021350168421  
-11.49999999999999822 -107.99999999999974420 -0.31024020989745865  -11.19999999999997620 -107.99999999999974420 -0.37756005247438162  
-11.50000000000000178 -108.00000000000000000 -0.40000000000002423  -11.19999999999999574 -108.00000000000000000 -0.40000000000002434  

0.00000000000000000 8
1.57079632679490011 8

0.00000000000000000 2
1.00000000000000000 2

9 0 0 0 0 7 1 8 2 2 2 -11.50000000000000178 -8.00000000000000178 -0.40000000000000219  -11.19999999999999929 -8.00000000000000178 -0.40000000000000213  
-11.50000000000010836 -8.00000000000006928 -0.31024020989743828  -11.20000000000007212 -8.00000000000006928 -0.37756005247436264  
-11.47650044537904890 -7.99999999999981526 -0.22048085400661815  -11.19412511134466648 -7.99999999999981526 -0.35512021350165329  
-11.42950508888130301 -8.00000000000024514 -0.13810122367082284  -11.18237627222039698 -8.00000000000024514 -0.33452530591770901  
-11.36189877632879686 -7.99999999999980460 -0.07049491111911751  -11.16547469408219939 -7.99999999999980460 -0.31762372777978082  
-11.27951914599359462 -8.00000000000009592 -0.02349955462065851  -11.14487978649836641 -8.00000000000009592 -0.30587488865516566  
-11.18975979010250299 -7.99999999999997957 -0.00000000000000132  -11.12243994752563481 -7.99999999999997957 -0.30000000000000221  
-11.09999999999999964 -8.00000000000000178 -0.00000000000000211  -11.09999999999999964 -8.00000000000000178 -0.30000000000000210  

4.71238898038468612 8
6.28318530717958623 8

0.00000000000000000 2
1.00000000000000000 2

1 -11.09999999999999964 -8.00000000000000000 -0.30000000000000177 0.00000000000000000 -0.00000000000000022 1.00000000000000000 1.00000000000000000 0.00000000000000000 0.00000000000000000 -0.00000000000000000 1.00000000000000000 0.00000000000000022 
1 -11.50000000000000000 -7.99999999999998401 -72.00000000000000000 -1.00000000000000000 -0.00000000000000000 0.00000000000000000 0.00000000000000000 -0.00000000000000022 1.00000000000000000 0.00000000000000000 1.00000000000000000 0.00000000000000022 
1 -11.19999999999999929 -107.99999999999998579 -72.00000000000002842 0.00000000000000000 -1.00000000000000000 -0.00000000000000022 -0.00000000000000000 0.00000000000000022 -1.00000000000000000 1.00000000000000000 0.00000000000000000 0.00000000000000000 
1 -11.19999999999999929 -7.99999999999998401 -72.00000000000000000 -0.00000000000000000 1.00000000000000000 0.00000000000000022 0.00000000000000000 -0.00000000000000022 1.00000000000000000 1.00000000000000000 0.00000000000000000 0.00000000000000000 
2 -11.09999999999999964 -8.00000000000000178 -0.40000000000000213 0.00000000000000000 1.00000000000000000 0.00000000000000022 0.00000000000000377 -0.00000000000000022 1.00000000000000000 1.00000000000000000 0.00000000000000000 -0.00000000000000377 0.10000000000000003
1 -11.19999999999999929 -7.99999999999998401 -72.00000000000000000 0.00000000000000000 0.00000000000000022 -1.00000000000000000 0.00000000000000000 1.00000000000000000 0.00000000000000022 1.00000000000000000 -0.00000000000000000 0.00000000000000000 
1 -11.19999999999999929 -7.99999999999998401 -72.00000000000000000 -1.00000000000000000 -0.00000000000000000 0.00000000000000000 0.00000000000000000 -0.00000000000000022 1.00000000000000000 0.00000000000000000 1.00000000000000000 0.00000000000000022 
Triangulations 0

TShapes 104
Ve
0.001000000000000
11.500000000000000 -8.000000000000000 -0.400000000000002
0 0

0101101
*
Ed
 0.001000000000000 1 1 0
1  1 0 0.000000000000000 100.000000000000000
2  1 2 0 0.000000000000000 100.000000000000000
4 G1 1 0 2 0
2  2 3 0 0.000000000000000 100.000000000000000
2  3 4 0 0.000000000000000 100.000000000000000
2  4 1 0 0.000000000000000 100.000000000000000
0

0101000
+104 0 -104 2 *
Ve
0.001000000000000
11.500000000000000 -7.999999999999984 -72.000000000000000
0 0

0101101
*
Ed
 0.001000000000000 1 1 0
1  2 0 0.000000000000000 100.000000000000000
2  5 1 0 0.000000000000000 100.000000000000000
0

0101000
+102 0 -102 2 *
Ed
 0.001000000000000 1 1 0
2  6 5 0 0.400000000000000 72.000000000000000
1  3 0 0.400000000000000 72.000000000000000
2  7 6 3 0.400000000000000 72.000000000000000
2  8 7 0 0.400000000000000 72.000000000000000
2  9 1 0 0.400000000000000 72.000000000000000
2  10 1 3 0.400000000000000 72.000000000000000
0

0101000
+104 0 -102 0 *
Wi

0101100
+103 0 -101 0 -100 0 +100 2 *
Fa
0  0.001000000000000 1 0

0111000
+99 0 *
Ve
0.001000000000000
11.100000000000001 -8.000000000000000 -0.000000000000002
0 0

0101101
*
Ed
 0.001000000000000 1 1 0
1  4 0 0.000000000000000 100.000000000000000
2  11 2 0 0.000000000000000 100.000000000000000
4 G1 2 0 8 0
2  12 9 0 0.000000000000000 100.000000000000000
2  13 10 0 0.000000000000000 100.000000000000000
2  14 8 0 0.000000000000000 100.000000000000000
0

0101000
+97 0 -97 2 *
Ed
 0.000000100000000 1 1 0
2  15 11 0 0.000000000000000 1.570796326794897
1  5 0 0.000000000000000 1.570796326794897
2  16 2 0 0.000000000000000 1.570796326794897
2  17 2 3 0.000000000000000 1.570796326794897
2  18 12 3 0.000000000000000 1.570796326794897
2  19 13 0 0.000000000000000 1.570796326794897
0

0101000
+97 0 -104 0 *
Wi

0101100
+96 0 -103 0 -95 0 +95 2 *
Fa
0  0.000000100000000 2 0

0111000
+94 0 *
Ve
0.001000000000000
11.199999999999999 -107.999999999999986 -72.000000000000028
0 0

0101101
*
Ed
 0.000000100000000 1 1 0
1  6 0 0.000000000000000 1.000000000000000
4 C0 14 0 6 0
2  20 6 0 0.000000000000000 1.000000000000000
2  21 14 0 0.000000000000000 1.000000000000000
0

0101000
+102 2 -92 0 *
Ve
0.001000000000000
11.199999999999999 -7.999999999999984 -72.000000000000000
0 0

0101101
*
Ed
 0.001000000000000 1 1 0
2  22 15 0 0.000000000000000 100.000000000000000
1  7 0 0.000000000000000 100.000000000000000
0

0101000
+90 0 -92 0 *
Ed
 0.000000100000000 1 1 0
1  8 0 0.000000000000000 1.000000000000000
4 C0 14 0 7 0
2  23 7 0 0.000000000000000 1.000000000000000
2  24 14 0 0.000000000000000 1.000000000000000
0

0101000
+102 0 -90 0 *
Wi

0101000
+101 0 +91 0 -89 0 -88 0 *
Fa
0  0.000000100000000 14 0

0111000
+87 0 *
Ve
0.001000000000000
11.199999999999999 -8.000000000000000 -0.400000000000002
0 0

0101101
*
Ed
 0.001000000000000 1 1 0
2  25 15 0 0.400000000000000 72.000000000000000
1  9 0 0.400000000000000 72.000000000000000
2  26 7 0 0.400000000000000 72.000000000000000
0

0101000
+85 0 -90 0 *
Ed
 0.000000100000002 1 1 0
1  10 0 0.000000000000000 1.000000000000000
4 C0 4 0 7 0
2  27 4 0 0.000000000000000 1.000000000000000
2  28 7 0 0.000000000000000 1.000000000000000
2  29 13 0 0.000000000000000 1.000000000000000
0

0101000
+104 0 -85 0 *
Wi

0101100
+100 0 +88 0 -84 0 -83 0 *
Fa
0  0.000000100000000 7 0

0111000
+82 0 *
Ve
0.001000000000000
11.199999999999999 -108.000000000000000 -0.400000000000024
0 0

0101101
*
Ed
 0.000000100000002 1 1 0
1  11 0 0.000000000000000 1.000000000000000
4 C0 6 0 4 0
2  30 6 0 0.000000000000000 1.000000000000000
2  31 4 0 0.000000000000000 1.000000000000000
2  32 12 0 0.000000000000000 1.000000000000000
0

0101000
+104 2 -80 0 *
Ed
 0.001000000000000 1 1 0
2  33 15 0 0.400000000000000 72.000000000000000
1  12 0 0.400000000000000 72.000000000000000
2  34 6 0 0.400000000000000 72.000000000000000
0

0101000
+80 0 -92 0 *
Wi

0101100
-100 2 +79 0 +78 0 -91 0 *
Fa
0  0.000000100000000 6 0

0111000
+77 0 *
Ve
0.001000000000000
-11.100000000000000 -8.000000000000000 -0.000000000000002
0 0

0101101
*
Ed
 0.001000000000000 1 1 0
1  13 0 0.000000000000000 100.000000000000000
2  35 16 0 0.000000000000000 100.000000000000000
4 G1 8 0 16 0
2  36 17 0 0.000000000000000 100.000000000000000
2  37 18 0 0.000000000000000 100.000000000000000
2  38 8 0 0.000000000000000 100.000000000000000
0

0101000
+75 0 -75 2 *
Ed
 0.001000000000000 1 1 0
2  39 19 0 0.400000000000000 22.600000000000001
1  14 0 0.400000000000000 22.600000000000001
2  40 20 3 0.400000000000000 22.600000000000001
2  41 21 0 0.400000000000000 22.600000000000001
2  42 8 0 0.400000000000000 22.600000000000001
2  43 8 3 0.400000000000000 22.600000000000001
0

0101000
+75 0 -97 0 *
Wi

0101100
+74 0 -96 0 -73 0 +73 2 *
Fa
0  0.001000000000000 8 0

0111000
+72 0 *
Ve
0.001000000000001
11.100000000000001 -8.000000000000000 -0.300000000000002
0 0

0101101
*
Ed
 0.000000100000000 1 1 0
2  16 22 0 0.000000000000000 1.570796326794897
1  15 0 0.000000000000000 1.570796326794897
2  44 13 0 0.000000000000000 1.570796326794897
0

0101000
+70 0 -85 0 *
Ed
 0.000000100000002 1 1 0
1  16 0 0.000000000000000 1.000000000000000
2  45 13 0 0.000000000000000 1.000000000000000
4 C0 10 0 13 0
2  46 10 0 0.000000000000000 1.000000000000000
0

0101000
+97 0 -70 0 *
Wi

0101100
+95 0 +83 0 -69 0 -68 0 *
Fa
0  0.000000100000000 13 0

0111000
+67 0 *
Ve
0.001000000000001
11.100000000000001 -108.000000000000000 -0.300000000000024
0 0

0101101
*
Ed
 0.000000100000002 1 1 0
1  17 0 0.000000000000000 1.000000000000000
2  47 12 0 0.000000000000000 1.000000000000000
4 C0 12 0 10 0
2  48 10 0 0.000000000000000 1.000000000000000
0

0101000
+97 2 -65 0 *
Ed
 0.000000100000000 1 1 0
2  17 22 0 0.000000000000000 1.570796326794897
1  18 0 0.000000000000000 1.570796326794897
2  49 12 0 0.000000000000000 1.570796326794897
0

0101000
+65 0 -80 0 *
Wi

0101100
-95 2 +64 0 +63 0 -79 0 *
Fa
0  0.000000100000000 12 0

0111000
+62 0 *
Ed
 0.001000000000000 1 1 0
2  50 15 0 0.000000000000000 100.000000000000000
1  19 0 0.000000000000000 100.000000000000000
2  51 4 0 0.000000000000000 100.000000000000000
2  52 22 0 0.000000000000000 100.000000000000000
0

0101000
+85 0 -80 0 *
Wi

0101100
+60 0 -89 0 -84 0 +78 0 *
Fa
0  0.001000000000000 15 0

0111000
+59 0 *
Ve
0.001000000000000
-11.500000000000000 -8.000000000000000 -0.400000000000006
0 0

0101101
*
Ed
 0.001000000000000 1 1 0
1  20 0 0.000000000000000 100.000000000000000
2  53 16 0 0.000000000000000 100.000000000000000
4 G1 16 0 23 0
2  54 24 0 0.000000000000000 100.000000000000000
2  55 25 0 0.000000000000000 100.000000000000000
2  56 23 0 0.000000000000000 100.000000000000000
0

0101000
+57 0 -57 2 *
Ed
 0.000000100000002 1 1 0
2  57 26 0 4.712388980384686 6.283185307179586
1  21 0 4.712388980384686 6.283185307179586
2  58 16 0 4.712388980384686 6.283185307179586
2  59 16 3 4.712388980384686 6.283185307179586
2  60 27 3 4.712388980384686 6.283185307179586
2  61 28 0 4.712388980384686 6.283185307179586
0

0101000
+57 0 -75 0 *
Wi

0101100
+56 0 -74 0 -55 0 +55 2 *
Fa
0  0.000000100000002 16 0

0111000
+54 0 *
Ve
0.001000000000000
-11.100000000000000 -8.000000000000000 -0.300000000000002
0 0

0101101
*
Ed
 0.001000000000000 1 1 0
2  62 29 0 0.400000000000000 22.600000000000001
1  22 0 0.400000000000000 22.600000000000001
2  63 21 0 0.400000000000000 22.600000000000001
0

0101000
+52 0 -70 0 *
Ed
 0.000000100000002 1 1 0
1  23 0 0.000000000000000 1.000000000000000
4 C0 18 0 21 0
2  64 21 0 0.000000000000000 1.000000000000000
2  65 18 0 0.000000000000000 1.000000000000000
2  66 28 0 0.000000000000000 1.000000000000000
0

0101000
+75 0 -52 0 *
Wi

0101100
+73 0 +68 0 -51 0 -50 0 *
Fa
0  0.000000100000000 21 0

0111000
+49 0 *
Ve
0.001000000000000
-11.100000000000000 -108.000000000000000 -0.300000000000024
0 0

0101101
*
Ed
 0.000000100000000 1 1 0
1  24 0 0.000000000000000 1.000000000000000
4 C0 20 0 18 0
2  67 20 0 0.000000000000000 1.000000000000000
2  68 18 0 0.000000000000000 1.000000000000000
2  69 27 0 0.000000000000000 1.000000000000000
0

0101000
+75 2 -47 0 *
Ed
 0.001000000000000 1 1 0
2  70 29 0 0.400000000000000 22.600000000000001
1  25 0 0.400000000000000 22.600000000000001
2  71 20 0 0.400000000000000 22.600000000000001
0

0101000
+47 0 -65 0 *
Wi

0101100
-73 2 +46 0 +45 0 -64 0 *
Fa
0  0.000000100000000 20 0

0111000
+44 0 *
Ed
 0.001000000000000 1 1 0
2  11 22 0 0.000000000000000 100.000000000000000
1  26 0 0.000000000000000 100.000000000000000
2  72 10 0 0.000000000000000 100.000000000000000
0

0101000
+70 0 -65 0 *
Wi

0101100
+42 0 -60 0 -69 0 +63 0 *
Fa
0  0.000000100000000 22 0

0111000
+41 0 *
Ve
0.001000000000000
-11.500000000000000 -7.999999999999984 -72.000000000000000
0 0

0101101
*
Ed
 0.001000000000000 1 1 0
1  27 0 0.000000000000000 100.000000000000000
2  73 23 0 0.000000000000000 100.000000000000000
0

0101000
+39 0 -39 2 *
Ed
 0.001000000000000 1 1 0
2  74 30 0 0.000000000000000 71.599999999999994
1  28 0 0.000000000000000 71.599999999999994
2  75 31 3 0.000000000000000 71.599999999999994
2  76 32 0 0.000000000000000 71.599999999999994
2  77 23 0 0.000000000000000 71.599999999999994
2  78 23 3 0.000000000000000 71.599999999999994
0

0101000
+39 0 -57 0 *
Wi

0101100
+38 0 -56 0 -37 0 +37 2 *
Fa
0  0.001000000000000 23 0

0111000
+36 0 *
Ve
0.001000000000002
-11.199999999999999 -8.000000000000000 -0.400000000000004
0 0

0101101
*
Ed
 0.000000100000002 1 1 0
2  58 33 0 4.712388980384686 6.283185307179586
1  29 0 4.712388980384686 6.283185307179586
2  79 28 0 4.712388980384686 6.283185307179586
0

0101000
+34 0 -52 0 *
Ed
 0.000000100000004 1 1 0
1  30 0 0.000000000000000 1.000000000000000
2  80 28 0 0.000000000000000 1.000000000000000
4 C0 25 0 28 0
2  81 25 0 0.000000000000000 1.000000000000000
0

0101000
+57 0 -34 0 *
Wi

0101100
+55 0 +50 0 -33 0 -32 0 *
Fa
0  0.000000100000000 28 0

0111000
+31 0 *
Ve
0.001000000000005
-11.199999999999999 -108.000000000000000 -0.400000000000029
0 0

0101101
*
Ed
 0.000000100000009 1 1 0
1  31 0 0.000000000000000 1.000000000000000
2  82 27 0 0.000000000000000 1.000000000000000
4 C0 27 0 25 0
2  83 25 0 0.000000000000000 1.000000000000000
0

0101000
+57 2 -29 0 *
Ed
 0.000000100000002 1 1 0
2  59 33 0 4.712388980384686 6.283185307179586
1  32 0 4.712388980384686 6.283185307179586
2  84 27 0 4.712388980384686 6.283185307179586
0

0101000
+29 0 -47 0 *
Wi

0101100
-55 2 +28 0 +27 0 -46 0 *
Fa
0  0.000000100000000 27 0

0111000
+26 0 *
Ed
 0.001000000000000 1 1 0
2  85 29 0 0.000000000000000 100.000000000000000
1  33 0 0.000000000000000 100.000000000000000
2  86 18 0 0.000000000000000 100.000000000000000
2  87 33 0 0.000000000000000 100.000000000000000
0

0101000
+52 0 -47 0 *
Wi

0101100
+24 0 -42 0 -51 0 +45 0 *
Fa
0  0.001000000000000 29 0

0111000
+23 0 *
Ve
0.001000000000000
-11.199999999999999 -7.999999999999984 -72.000000000000000
0 0

0101101
*
Ed
 0.000000100000000 1 1 0
1  34 0 0.000000000000000 1.000000000000000
4 C0 34 0 32 0
2  88 32 0 0.000000000000000 1.000000000000000
2  89 34 0 0.000000000000000 1.000000000000000
0

0101000
+39 0 -21 0 *
Ve
0.001000000000000
-11.199999999999999 -107.999999999999986 -72.000000000000028
0 0

0101101
*
Ed
 0.001000000000000 1 1 0
2  90 35 0 0.000000000000000 100.000000000000000
1  35 0 0.000000000000000 100.000000000000000
0

0101000
+21 0 -19 0 *
Ed
 0.000000100000000 1 1 0
1  36 0 0.000000000000000 1.000000000000000
4 C0 31 0 34 0
2  91 31 0 0.000000000000000 1.000000000000000
2  92 34 0 0.000000000000000 1.000000000000000
0

0101000
+39 2 -19 0 *
Wi

0101000
-38 0 +20 0 +18 0 -17 0 *
Fa
0  0.000000100000000 34 0

0111000
+16 0 *
Ed
 0.001000000000000 1 1 0
2  93 35 0 0.000000000000000 71.599999999999994
1  37 0 0.000000000000000 71.599999999999994
2  94 32 0 0.000000000000000 71.599999999999994
0

0101000
+21 0 -34 0 *
Wi

0101100
+37 0 +32 0 -14 0 -20 0 *
Fa
0  0.000000100000000 32 0

0111000
+13 0 *
Ed
 0.001000000000000 1 1 0
2  95 35 0 0.000000000000000 71.599999999999994
1  38 0 0.000000000000000 71.599999999999994
2  96 31 0 0.000000000000000 71.599999999999994
0

0101000
+19 0 -29 0 *
Wi

0101100
-37 2 +17 0 +11 0 -28 0 *
Fa
0  0.000000100000000 31 0

0111000
+10 0 *
Ed
 0.001000000000000 1 1 0
2  53 33 0 0.000000000000000 100.000000000000000
1  39 0 0.000000000000000 100.000000000000000
2  97 25 0 0.000000000000000 100.000000000000000
2  98 35 0 0.000000000000000 100.000000000000000
0

0101000
+34 0 -29 0 *
Wi

0101100
+8 0 -24 0 -33 0 +27 0 *
Fa
0  0.000000100000002 33 0

0111000
+7 0 *
Wi

0101100
+18 0 -8 0 -14 0 +11 0 *
Fa
0  0.001000000000000 35 0

0111000
+5 0 *
Sh

0101100
+98 0 +93 0 +86 0 +81 0 +76 0 +71 0 +66 0 +61 0 -58 0 +53 0 
+48 0 +43 0 -40 0 +35 0 +30 0 +25 0 -22 0 +15 0 +12 0 +9 0 
-6 0 -4 0 *
So

0100000
+3 0 *
Co

1100000
+2 0 *

+1 1 