
CASCADE Topology V1, (c) Matra-Datavision
Locations 8
1
1.000000000000000 0.000000000000000 0.000000000000000 0.000000000000000 
0.000000000000000 1.000000000000000 0.000000000000000 0.000000000000000 
0.000000000000000 0.000000000000000 1.000000000000000 0.000000000000000 
1
1.000000000000000 0.000000000000000 0.000000000000000 0.000000000000000 
0.000000000000000 1.000000000000000 0.000000000000000 0.000000000000000 
0.000000000000000 0.000000000000000 1.000000000000000 96.000000000000000 
2  2 -1 0
1
1.000000000000000 0.000000000000000 0.000000000000000 0.000000000000000 
0.000000000000000 1.000000000000000 0.000000000000000 0.000000000000000 
0.000000000000000 0.000000000000000 1.000000000000000 0.000000000000000 
1
1.000000000000000 0.000000000000000 0.000000000000000 0.000000000000000 
0.000000000000000 1.000000000000000 0.000000000000000 0.000000000000000 
0.000000000000000 0.000000000000000 1.000000000000000 0.000000000000000 
1
1.000000000000000 0.000000000000000 0.000000000000000 0.000000000000000 
0.000000000000000 1.000000000000000 0.000000000000000 0.000000000000000 
0.000000000000000 0.000000000000000 1.000000000000000 0.000000000000000 
2  4 1 5 -1 6 -1 2 -1 0
2  4 1 5 -1 6 -1 0
Curve2ds 62
1 6.28318530717958623 0.00000000000000000 0.00000000000000000 -1.00000000000000000 
1 0.00000000000000000 -0.50000000000000000 1.00000000000000000 0.00000000000000000 
1 0.00000000000000000 -0.50000000000000000 -1.00000000000000000 0.00000000000000000 
1 0.00000000000000000 0.00000000000000000 0.00000000000000000 -1.00000000000000000 
1 72.50000000003171863 0.00000000000000000 0.00000000000000000 -1.00000000000000000 
1 0.00000000000000000 0.00000000000000000 1.00000000000000000 0.00000000000000000 
1 0.00000000000000000 -0.50000000000000000 -1.00000000000000000 0.00000000000000000 
1 0.00000000000000000 -0.50000000000000000 1.00000000000000000 0.00000000000000000 
1 -2.50000000000000000 0.00000000000000000 1.00000000000000000 0.00000000000000000 
1 -2.50000000000000000 -96.00000000000000000 1.00000000000000000 0.00000000000000000 
1 4.71238898038468967 0.00000000000000000 0.00000000000000000 -1.00000000000000000 
1 0.00000000000000000 -0.50000000000000000 1.00000000000000000 0.00000000000000000 
1 -0.00000000000000000 -0.50000000000000000 -1.00000000000000000 0.00000000000000000 
1 25.99999999998150813 0.00000000000000000 0.00000000000000000 -1.00000000000000000 
1 -4.71238898038468967 96.00000000000000000 1.00000000000000000 0.00000000000000000 
1 0.00000000000000000 0.00000000000000000 1.00000000000000000 0.00000000000000000 
1 0.00000000000000000 -96.00000000000000000 1.00000000000000000 0.00000000000000000 
1 6.28318530717958623 0.00000000000000000 -1.00000000000000000 0.00000000000000000 
1 0.00000000000000000 0.00000000000000000 1.00000000000000000 0.00000000000000000 
2 2.99999999996595790 -618.43989348242700999 0.00000000000000022 1.00000000000000000 1.00000000000000000 -0.00000000000000022 2.50000000000000000
6 0 1 -75.00000000003171863 -0.50000000000000000  -75.00000000003171863 0.00000000000000000  
1 72.50000000003171863 0.00000000000000000 0.00000000000000000 -1.00000000000000000 
6 0 1 75.00000000003171863 -0.50000000000000000  75.00000000003171863 0.00000000000000000  
6 0 1 0.00000000000000000 -0.50000000000000000  0.00000000000000000 0.00000000000000000  
1 -2.50000000000000000 0.00000000000000000 1.00000000000000000 0.00000000000000000 
1 0.00000000000000000 0.00000000000000000 1.00000000000000000 0.00000000000000000 
6 0 1 0.00000000000000000 -0.50000000000000000  0.00000000000000000 0.00000000000000000  
6 0 1 2.50000000000000000 -0.50000000000000000  2.50000000000000000 0.00000000000000000  
8 0.00000000000000000 1.00000000000000000
1 6.28318530717958623 0.00000000000000000 0.00000000000000000 1.00000000000000000 
6 0 1 -2.50000000000000000 -0.50000000000000000  -2.50000000000000000 0.00000000000000000  
6 0 1 -96.00000000000000000 -0.50000000000000000  -96.00000000000000000 0.00000000000000000  
8 0.00000000000000000 1.00000000000000000
1 0.00000000000000000 0.00000000000000000 0.00000000000000000 1.00000000000000000 
6 0 1 2.99999999996595790 -615.93989348242700999  2.99999999996595790 -616.43989348242700999  
1 -2.50000000000000000 -96.00000000000000000 1.00000000000000000 0.00000000000000000 
1 0.00000000000000000 0.00000000000000000 -1.00000000000000000 0.00000000000000000 
1 0.00000000000000000 0.00000000000000000 0.00000000000000000 -1.00000000000000000 
1 0.00000000000000000 0.00000000000000000 1.00000000000000000 0.00000000000000000 
1 0.00000000000000000 -0.50000000000000000 -1.00000000000000000 0.00000000000000000 
1 0.00000000000000000 -0.50000000000000000 1.00000000000000000 0.00000000000000000 
1 0.00000000000000000 0.00000000000000000 1.00000000000000000 0.00000000000000000 
1 0.00000000000000000 -96.00000000000000000 1.00000000000000000 0.00000000000000000 
1 0.00000000000000000 1.00000000000000000 1.00000000000000000 0.00000000000000000 
1 4.71238898038468967 0.00000000000000000 0.00000000000000000 1.00000000000000000 
6 0 1 0.00000000000000000 -0.50000000000000000  0.00000000000000000 0.00000000000000000  
6 0 1 2.00000000003404210 -618.43989348242700999  1.50000000003404210 -618.43989348242700999  
1 1.57079632679489656 0.00000000000000000 0.00000000000000000 1.00000000000000000 
7 0 0  1 2 2  -96.00000000000000000 -0.50000000000000000  -96.00000000000000000 0.00000000000000711 
 0.00000000000000000 2 1.00000000000000000 2
7 0 0  1 2 2  0.49999999996595790 -618.43989348242700999  0.99999999996596500 -618.43989348242700999 
 0.00000000000000000 2 1.00000000000000000 2
1 6.28318530717958623 1.00000000000000000 -1.00000000000000000 0.00000000000000000 
2 2.99999999996595790 -618.43989348242700999 0.00000000000000022 1.00000000000000000 1.00000000000000000 -0.00000000000000022 2.00000000000000000
1 0.00000000000000000 0.00000000000000000 0.00000000000000000 -1.00000000000000000 
1 0.00000000000000000 0.00000000000000000 -1.00000000000000000 0.00000000000000000 
8 0.00000000000000000 96.00000000000000000
1 6.28318530717958623 0.00000000000000000 0.00000000000000000 -1.00000000000000000 
6 0 1 0.00000000000000000 -0.50000000000000000  0.00000000000000000 0.00000000000000000  
1 0.00000000000000000 0.00000000000000000 0.00000000000000000 -1.00000000000000000 
6 0 1 0.00000000000000000 -0.50000000000000000  0.00000000000000000 0.00000000000000000  
1 0.00000000000000000 0.00000000000000000 1.00000000000000000 0.00000000000000000 
1 0.00000000000000000 0.00000000000000000 1.00000000000000000 0.00000000000000000 
1 0.00000000000000000 -96.00000000000000000 1.00000000000000000 0.00000000000000000 
1 0.00000000000000000 0.00000000000000000 -1.00000000000000000 0.00000000000000000 
1 0.00000000000000000 0.00000000000000000 -1.00000000000000000 0.00000000000000000 
1 25.99999999998150813 0.00000000000000000 0.00000000000000000 -1.00000000000000000 
Curves 25
1 -35.00000000003404210 1.50000000000000000 -6.00000000000000000 0.00000000000000000 0.00000000000000000 1.00000000000000000 
1 37.49999999999767653 1.50000000000000000 -6.00000000000000000 0.00000000000000000 0.00000000000000000 1.00000000000000000 
1 -37.50000000003404210 1.50000000000000000 -6.00000000000000000 1.00000000000000000 0.00000000000000000 0.00000000000000000 
1 -37.50000000003404210 -1.00000000000000000 -6.00000000000000000 0.00000000000000000 0.00000000000000000 1.00000000000000000 
2 -35.00000000003404210 -1.00000000000000000 -6.00000000000000000 0.00000000000000000 0.00000000000000000 -1.00000000000000000 0.00000000000000022 1.00000000000000000 0.00000000000000000 1.00000000000000000 -0.00000000000000022 0.00000000000000000 2.50000000000000000
6 0 1 37.49999999999767653 1.50000000000000000 90.00000000000000000  37.49999999999767653 1.00000000000000000 90.00000000000000000  
1 37.49999999999767653 1.00000000000000000 -6.00000000000000000 0.00000000000000000 0.00000000000000000 1.00000000000000000 
6 0 1 37.49999999999767653 1.50000000000000000 -6.00000000000000000  37.49999999999767653 1.00000000000000000 -6.00000000000000000  
1 -37.50000000003404210 1.00000000000000000 -6.00000000000000000 1.00000000000000000 0.00000000000000000 0.00000000000000000 
6 0 1 -35.00000000003404210 1.50000000000000000 -6.00000000000000000  -35.00000000003404210 1.00000000000000000 -6.00000000000000000  
6 0 1 -35.00000000003404210 1.50000000000000000 90.00000000000000000  -35.00000000003404210 1.00000000000000000 90.00000000000000000  
1 -37.50000000003404210 1.00000000000000000 90.00000000000000000 1.00000000000000000 0.00000000000000000 0.00000000000000000 
1 -37.50000000003404210 -26.99999999998150813 -6.00000000000000000 0.00000000000000000 0.00000000000000000 1.00000000000000000 
1 -37.50000000003404210 -26.99999999998150813 -6.00000000000000000 0.00000000000000000 1.00000000000000000 0.00000000000000000 
2 -35.00000000003404210 -1.00000000000000000 -6.00000000000000000 0.00000000000000000 0.00000000000000000 -1.00000000000000000 0.00000000000000022 1.00000000000000000 0.00000000000000000 1.00000000000000000 -0.00000000000000022 0.00000000000000000 2.00000000000000000
6 0 1 -37.50000000003404210 -1.00000000000000000 -6.00000000000000000  -37.00000000003404210 -0.99999999999999989 -6.00000000000000000  
7 0 0  1 2 2  -37.50000000003404210 -0.99999999999999944 90.00000000000000000  -37.00000000003403500 -0.99999999999999956 90.00000000000000000 
 0.00000000000000000 2 1.00000000000000000 2
2 -35.00000000003404210 -1.00000000000000000 90.00000000000000000 0.00000000000000000 0.00000000000000000 -1.00000000000000000 0.00000000000000022 1.00000000000000000 0.00000000000000000 1.00000000000000000 -0.00000000000000022 0.00000000000000000 2.00000000000000000
1 -35.00000000003404210 1.00000000000000000 -6.00000000000000000 0.00000000000000000 0.00000000000000000 1.00000000000000000 
6 0 1 -37.50000000003404210 -26.99999999998150813 -6.00000000000000000  -37.00000000003404210 -26.99999999998150813 -6.00000000000000000  
1 -37.00000000003404210 -26.99999999998150813 -6.00000000000000000 0.00000000000000000 0.00000000000000000 1.00000000000000000 
6 0 1 -37.50000000003404210 -26.99999999998150813 90.00000000000000000  -37.00000000003404210 -26.99999999998150813 90.00000000000000000  
1 -37.00000000003404210 -26.99999999998150813 -6.00000000000000000 0.00000000000000000 1.00000000000000000 0.00000000000000000 
1 -37.00000000003404210 -26.99999999998150813 90.00000000000000000 0.00000000000000000 1.00000000000000000 0.00000000000000000 
1 -37.00000000003404210 -0.99999999999999989 -6.00000000000000000 -0.00000000000000000 -0.00000000000000000 1.00000000000000000 
Polygon3D 0
PolygonOnTriangulations 0
Surfaces 23
1 -35.00000000003404210 1.50000000000000000 -6.00000000000000000 0.00000000000000000 1.00000000000000000 0.00000000000000000 1.00000000000000000 0.00000000000000000 0.00000000000000000 0.00000000000000000 0.00000000000000000 -1.00000000000000000 
2 -35.00000000003404210 -1.00000000000000000 -6.00000000000000000 0.00000000000000000 0.00000000000000000 -1.00000000000000000 0.00000000000000022 1.00000000000000000 0.00000000000000000 1.00000000000000000 -0.00000000000000022 0.00000000000000000 2.50000000000000000
1 -35.00000000003404210 1.00000000000000000 -6.00000000000000000 1.00000000000000000 0.00000000000000000 0.00000000000000000 0.00000000000000000 -0.00000000000000000 1.00000000000000000 0.00000000000000000 -1.00000000000000000 -0.00000000000000000 
1 -35.00000000003404210 1.00000000000000000 -6.00000000000000000 -1.00000000000000000 0.00000000000000000 0.00000000000000000 0.00000000000000000 0.00000000000000000 -1.00000000000000000 -0.00000000000000000 -1.00000000000000000 -0.00000000000000000 
1 -37.50000000003404210 1.50000000000000000 -6.00000000000000000 0.00000000000000000 1.00000000000000000 0.00000000000000000 1.00000000000000000 0.00000000000000000 0.00000000000000000 0.00000000000000000 0.00000000000000000 -1.00000000000000000 
1 -37.50000000003404210 1.00000000000000000 90.00000000000000000 -0.00000000000000000 0.00000000000000000 1.00000000000000000 -1.00000000000000000 0.00000000000000000 -0.00000000000000000 -0.00000000000000000 -1.00000000000000000 0.00000000000000000 
1 -37.50000000003404210 1.00000000000000000 -6.00000000000000000 0.00000000000000000 0.00000000000000000 -1.00000000000000000 1.00000000000000000 0.00000000000000000 0.00000000000000000 0.00000000000000000 -1.00000000000000000 0.00000000000000000 
1 -37.50000000003404210 -26.99999999998150813 -6.00000000000000000 -1.00000000000000000 0.00000000000000000 0.00000000000000000 0.00000000000000000 1.00000000000000000 0.00000000000000000 0.00000000000000000 0.00000000000000000 -1.00000000000000000 
1 -37.00000000003404210 -1.00000000000000000 -6.00000000000000000 0.00000000000000000 1.00000000000000000 0.00000000000000000 0.00000000000000000 -0.00000000000000000 1.00000000000000000 1.00000000000000000 0.00000000000000000 -0.00000000000000000 
1 -37.00000000003404210 -0.99999999999999989 -6.00000000000000000 0.00000000000000022 -1.00000000000000000 0.00000000000000000 0.00000000000000000 0.00000000000000000 -1.00000000000000000 1.00000000000000000 0.00000000000000022 0.00000000000000000 
2 -35.00000000003404210 -0.99999999999999956 90.00000000000000000 0.00000000000000000 0.00000000000000000 -1.00000000000000000 -1.00000000000000000 0.00000000000000000 0.00000000000000000 0.00000000000000000 1.00000000000000000 0.00000000000000000 2.50000000000000000
9 0 0 0 0 8 1 9 2 2 2 -35.00000000003404210 1.49999999999999978 90.00000000000000000  -35.00000000003403500 1.00000000000000000 90.00000000000000000  
-35.49087385215744916 1.49999999999999711 90.00000000000005684  -35.39269908173265122 1.00000000000000022 90.00000000000005684  
-35.98174785879452742 1.38984802759699999 89.99999999999978684  -35.78539828704283821 0.91187842207759351 89.99999999999978684  
-36.44378308587183568 1.16954516467856640 90.00000000000032685  -36.15502646870337600 0.73563613174286213 90.00000000000032685  
-36.84814688948355865 0.84814688944974237 89.99999999999965894  -36.47851751159488742 0.47851751155978423 89.99999999999965894  
-37.16954516471271575 0.44378308583764897 90.00000000000018474  -36.73563613177594078 0.15502646867012521 90.00000000000018474  
-37.38984802763106075 -0.01825214123945884 89.99999999999997158  -36.91187842211216719 -0.21460171299156872 89.99999999999997158  
-37.50000000003403500 -0.50912614787659638 90.00000000000000000  -37.00000000003386447 -0.60730091830127697 90.00000000000000000  
-37.50000000003404210 -0.99999999999999944 90.00000000000000000  -37.00000000003403500 -0.99999999999999956 90.00000000000000000  

0.00000000000000000 9
1.57079632679489656 9

0.00000000000000000 2
1.00000000000000000 2

9 0 0 0 0 8 1 9 2 2 2 -37.50000000003402079 -0.99999999999999956 -5.99999999999999556  -37.00000000003401368 -0.99999999999999933 -5.99999999999999556  
-37.50000000003369394 -0.50912614787660349 -5.99999999999992895  -37.00000000003350920 -0.60730091830127997 -5.99999999999992895  
-37.38984802763217630 -0.01825214123943490 -6.00000000000024514  -36.91187842211346037 -0.21460171299155670 -6.00000000000024514  
-37.16954516471098913 0.44378308583761061 -5.99999999999957812  -36.73563613177377363 0.15502646867010134 -5.99999999999957812  
-36.84814688948524264 0.84814688944977445 -6.00000000000045919  -36.47851751159728195 0.47851751155981004 -6.00000000000045919  
-36.44378308587074144 1.16954516467854752 -5.99999999999964650  -36.15502646870158543 0.73563613174284137 -5.99999999999964650  
-35.98174785879503190 1.38984802759700576 -6.00000000000018296  -35.78539828704371928 0.91187842207760461 -6.00000000000018296  
-35.49087385215736390 1.49999999999999600 -5.99999999999994849  -35.39269908173245938 0.99999999999999689 -5.99999999999994849  
-35.00000000003404921 1.50000000000000000 -6.00000000000000000  -35.00000000003404921 1.00000000000000000 -6.00000000000000000  

4.71238898038468967 9
6.28318530717958623 9

0.00000000000000000 2
1.00000000000000000 2

1 -38.00000000000000000 617.43989348242700999 90.00000000000014211 0.00000000000000000 -0.00000000000000022 1.00000000000000000 1.00000000000000000 0.00000000000000000 0.00000000000000000 -0.00000000000000000 1.00000000000000000 0.00000000000000022 
1 37.49999999999767653 1.00000000000000000 -6.00000000000000000 1.00000000000000000 0.00000000000000000 -0.00000000000000000 0.00000000000000000 0.00000000000000000 1.00000000000000000 0.00000000000000000 -1.00000000000000000 0.00000000000000000 
1 -35.00000000003404210 1.00000000000000000 -6.00000000000000000 0.00000000000000000 1.00000000000000000 0.00000000000000000 1.00000000000000000 0.00000000000000000 0.00000000000000000 0.00000000000000000 0.00000000000000000 -1.00000000000000000 
1 -37.50000000003404210 -26.99999999998150813 -6.00000000000000000 -1.00000000000000000 0.00000000000000000 0.00000000000000000 0.00000000000000000 1.00000000000000000 0.00000000000000000 0.00000000000000000 0.00000000000000000 -1.00000000000000000 
1 -37.00000000003404210 -26.99999999998150813 90.00000000000000000 0.00000000000000000 0.00000000000000000 1.00000000000000000 0.00000000000000000 -1.00000000000000000 0.00000000000000000 1.00000000000000000 0.00000000000000000 -0.00000000000000000 
1 -37.00000000003404210 -26.99999999998150813 -6.00000000000000000 0.00000000000000000 0.00000000000000000 -1.00000000000000000 0.00000000000000000 1.00000000000000000 0.00000000000000000 1.00000000000000000 -0.00000000000000000 0.00000000000000000 
2 -35.00000000003404210 -1.00000000000000000 -6.00000000000000000 0.00000000000000000 0.00000000000000000 -1.00000000000000000 0.00000000000000022 1.00000000000000000 0.00000000000000000 1.00000000000000000 -0.00000000000000022 0.00000000000000000 2.00000000000000000
1 -35.50000000000000000 617.43989348242700999 -5.99999999999986411 0.00000000000000000 0.00000000000000022 -1.00000000000000000 -1.00000000000000000 0.00000000000000000 -0.00000000000000000 0.00000000000000000 1.00000000000000000 0.00000000000000022 
1 -37.00000000003404210 -26.99999999998150813 -6.00000000000000000 0.00000000000000000 -1.00000000000000000 0.00000000000000000 -0.00000000000000000 -0.00000000000000000 -1.00000000000000000 1.00000000000000000 0.00000000000000000 -0.00000000000000000 
1 -37.00000000003404210 -26.99999999998150813 -6.00000000000000000 -1.00000000000000000 0.00000000000000000 0.00000000000000000 0.00000000000000000 1.00000000000000000 0.00000000000000000 0.00000000000000000 0.00000000000000000 -1.00000000000000000 
Triangulations 0

TShapes 68
Ve
0.001000000000000
-35.000000000034042 1.500000000000000 -6.000000000000000
0 0

0101101
*
Ed
 0.001000000000000 1 1 0
1  1 0 0.000000000000000 96.000000000000000
2  1 2 0 0.000000000000000 96.000000000000000
4 G1 1 0 2 0
2  2 3 0 0.000000000000000 96.000000000000000
2  3 4 0 0.000000000000000 96.000000000000000
2  4 1 0 0.000000000000000 96.000000000000000
0

0101000
+68 0 -68 2 *
Ve
0.001000000000000
37.499999999997677 1.500000000000000 -6.000000000000000
0 0

0101101
*
Ed
 0.001000000000000 1 1 0
1  2 0 0.000000000000000 96.000000000000000
2  5 1 0 0.000000000000000 96.000000000000000
0

0101000
+66 0 -66 2 *
Ed
 0.001000000000000 1 1 0
2  6 5 0 2.500000000000000 75.000000000031719
1  3 0 2.500000000000000 75.000000000031719
2  7 6 3 2.500000000000000 75.000000000031719
2  8 7 0 2.500000000000000 75.000000000031719
2  9 1 0 2.500000000000000 75.000000000031719
2  10 1 3 2.500000000000000 75.000000000031719
0

0101000
+68 0 -66 0 *
Wi

0101100
+67 0 -65 0 -64 0 +64 2 *
Fa
0  0.001000000000000 1 0

0111000
+63 0 *
Ve
0.001000000000000
-37.500000000034042 -1.000000000000000 -6.000000000000000
0 0

0101101
*
Ed
 0.001000000000000 1 1 0
1  4 0 0.000000000000000 96.000000000000000
2  11 2 0 0.000000000000000 96.000000000000000
4 G1 2 0 8 0
2  12 9 0 0.000000000000000 96.000000000000000
2  13 10 0 0.000000000000000 96.000000000000000
2  14 8 0 0.000000000000000 96.000000000000000
0

0101000
+61 0 -61 2 *
Ed
 0.000000500000000 1 1 0
2  15 11 0 4.712388980384690 6.283185307179586
1  5 0 4.712388980384690 6.283185307179586
2  16 2 0 4.712388980384690 6.283185307179586
2  17 2 3 4.712388980384690 6.283185307179586
2  18 12 3 4.712388980384690 6.283185307179586
2  19 13 0 4.712388980384690 6.283185307179586
2  20 14 7 4.712388980384690 6.283185307179586
0

0101000
+61 0 -68 0 *
Wi

0101100
+60 0 -67 0 -59 0 +59 2 *
Fa
0  0.000000100000000 2 0

0111000
+58 0 *
Ve
0.001000000000000
37.499999999997677 1.000000000000000 90.000000000000000
0 0

0101101
*
Ed
 0.000000100000000 1 1 0
1  6 0 0.000000000000000 1.000000000000000
4 C0 15 0 6 0
2  21 6 0 0.000000000000000 1.000000000000000
0

0101000
+66 2 -56 0 *
Ve
0.001000000000000
37.499999999997677 1.000000000000000 -6.000000000000000
0 0

0101101
*
Ed
 0.001000000000000 1 1 0
2  22 16 0 0.000000000000000 96.000000000000000
1  7 0 0.000000000000000 96.000000000000000
0

0101000
+54 0 -56 0 *
Ed
 0.000000100000000 1 1 0
1  8 0 0.000000000000000 1.000000000000000
4 C0 15 0 7 0
2  23 7 0 0.000000000000000 1.000000000000000
2  24 15 0 0.000000000000000 1.000000000000000
0

0101000
+66 0 -54 0 *
Wi

0101000
+65 0 +55 0 -53 0 -52 0 *
Fa
0  0.000000100000000 15 0

0111000
+51 0 *
Ve
0.001000000000000
-35.000000000034042 1.000000000000000 -6.000000000000000
0 0

0101101
*
Ed
 0.001000000000000 1 1 0
2  25 16 0 2.500000000000000 75.000000000031719
1  9 0 2.500000000000000 75.000000000031719
2  26 7 0 2.500000000000000 75.000000000031719
0

0101000
+49 0 -54 0 *
Ed
 0.000000100000000 1 1 0
1  10 0 0.000000000000000 1.000000000000000
4 C0 4 0 7 0
2  27 4 0 0.000000000000000 1.000000000000000
2  28 7 0 0.000000000000000 1.000000000000000
2  29 13 0 0.000000000000000 1.000000000000000
0

0101000
+68 0 -49 0 *
Wi

0101100
+64 0 +52 0 -48 0 -47 0 *
Fa
0  0.000000100000000 7 0

0111000
+46 0 *
Ve
0.001000000000000
-35.000000000034042 1.000000000000000 90.000000000000000
0 0

0101101
*
Ed
 0.000000500000000 1 1 0
1  11 0 0.000000000000000 1.000000000000000
4 C0 6 0 4 0
2  30 6 0 0.000000000000000 1.000000000000000
2  31 4 0 0.000000000000000 1.000000000000000
2  32 12 0 0.000000000000000 1.000000000000000
2  33 14 8 0.000000000000000 1.000000000000000
0

0101000
+68 2 -44 0 *
Ed
 0.001000000000000 1 1 0
2  34 16 0 2.500000000000000 75.000000000031719
1  12 0 2.500000000000000 75.000000000031719
2  35 6 0 2.500000000000000 75.000000000031719
0

0101000
+44 0 -56 0 *
Wi

0101100
-64 2 +43 0 +42 0 -55 0 *
Fa
0  0.000000100000000 6 0

0111000
+41 0 *
Ve
0.001000000000000
-37.500000000034042 -26.999999999981508 -6.000000000000000
0 0

0101101
*
Ed
 0.001000000000000 1 1 0
1  13 0 0.000000000000000 96.000000000000000
2  36 8 0 0.000000000000000 96.000000000000000
0

0101000
+39 0 -39 2 *
Ed
 0.001000000000000 1 1 0
2  37 17 0 0.000000000000000 25.999999999981508
1  14 0 0.000000000000000 25.999999999981508
2  38 18 3 0.000000000000000 25.999999999981508
2  39 19 0 0.000000000000000 25.999999999981508
2  40 8 0 0.000000000000000 25.999999999981508
2  41 8 3 0.000000000000000 25.999999999981508
0

0101000
+39 0 -61 0 *
Wi

0101100
+38 0 -60 0 -37 0 +37 2 *
Fa
0  0.001000000000000 8 0

0111000
+36 0 *
Ve
0.001000000000000
-37.000000000034042 -1.000000000000000 -6.000000000000000
0 0

0101101
*
Ed
 0.000000100000000 1 1 0
2  16 20 0 4.712388980384690 6.283185307179586
1  15 0 4.712388980384690 6.283185307179586
2  42 13 0 4.712388980384690 6.283185307179586
0

0101000
+34 0 -49 0 *
Ed
 0.000000500000000 1 1 0
1  16 0 0.000000000000000 1.000000000000000
2  43 13 0 0.000000000000000 1.000000000000000
4 C0 10 0 13 0
2  44 10 0 0.000000000000000 1.000000000000000
2  45 21 8 0.000000000000000 1.000000000000000
0

0101000
+61 0 -34 0 *
Wi

0101100
+59 0 +47 0 -33 0 -32 0 *
Fa
0  0.000000100000000 13 0

0111000
+31 0 *
Ve
0.001000000000000
-37.000000000034042 -1.000000000000000 90.000000000000000
0 0

0101101
*
Ed
 0.000000500000000 1 1 0
1  17 0 0.000000000000000 1.000000000000000
2  46 12 0 0.000000000000000 1.000000000000000
4 C0 12 0 10 0
2  47 10 0 0.000000000000000 1.000000000000000
2  48 14 8 0.000000000000000 1.000000000000000
0

0101000
+61 2 -29 0 *
Ed
 0.000000500000000 1 1 0
2  17 20 0 4.712388980384690 6.283185307179586
1  18 0 4.712388980384690 6.283185307179586
2  49 12 0 4.712388980384690 6.283185307179586
2  50 14 8 4.712388980384690 6.283185307179586
0

0101000
+29 0 -44 0 *
Wi

0101100
-59 2 +28 0 +27 0 -43 0 *
Fa
0  0.000000100000000 12 0

0111000
+26 0 *
Ed
 0.001000000000000 1 1 0
2  51 16 0 0.000000000000000 96.000000000000000
1  19 0 0.000000000000000 96.000000000000000
2  52 4 0 0.000000000000000 96.000000000000000
2  53 20 0 0.000000000000000 96.000000000000000
0

0101000
+49 0 -44 0 *
Wi

0101100
+24 0 -53 0 -48 0 +42 0 *
Fa
0  0.001000000000000 16 0

0111000
+23 0 *
Ve
0.001000000000000
-37.000000000034042 -26.999999999981508 -6.000000000000000
0 0

0101101
*
Ed
 0.000000100000000 1 1 0
1  20 0 0.000000000000000 1.000000000000000
4 C0 22 0 19 0
2  54 19 0 0.000000000000000 1.000000000000000
0

0101000
+39 0 -21 0 *
Ve
0.001000000000000
-37.000000000034042 -26.999999999981508 90.000000000000000
0 0

0101101
*
Ed
 0.001000000000000 1 1 0
2  55 23 0 0.000000000000000 96.000000000000000
1  21 0 0.000000000000000 96.000000000000000
0

0101000
+21 0 -19 0 *
Ed
 0.000000100000000 1 1 0
1  22 0 0.000000000000000 1.000000000000000
4 C0 18 0 22 0
2  56 18 0 0.000000000000000 1.000000000000000
0

0101000
+39 2 -19 0 *
Wi

0101000
-38 0 +20 0 +18 0 -17 0 *
Fa
0  0.000000100000000 22 0

0111000
+16 0 *
Ed
 0.001000000000000 1 1 0
2  57 23 0 0.000000000000000 25.999999999981508
1  23 0 0.000000000000000 25.999999999981508
2  58 19 0 0.000000000000000 25.999999999981508
0

0101000
+21 0 -34 0 *
Wi

0101100
+37 0 +32 0 -14 0 -20 0 *
Fa
0  0.000000100000000 19 0

0111000
+13 0 *
Ed
 0.001000000000000 1 1 0
2  59 23 0 0.000000000000000 25.999999999981508
1  24 0 0.000000000000000 25.999999999981508
2  60 18 0 0.000000000000000 25.999999999981508
0

0101000
+19 0 -29 0 *
Wi

0101100
-37 2 +17 0 +11 0 -28 0 *
Fa
0  0.000000100000000 18 0

0111000
+10 0 *
Ed
 0.001000000000000 1 1 0
2  11 20 0 0.000000000000000 96.000000000000000
1  25 0 0.000000000000000 96.000000000000000
2  61 10 0 0.000000000000000 96.000000000000000
2  62 23 0 0.000000000000000 96.000000000000000
0

0101000
+34 0 -29 0 *
Wi

0101100
+8 0 -24 0 -33 0 +27 0 *
Fa
0  0.000000100000000 20 0

0111000
+7 0 *
Wi

0101100
+18 0 -8 0 -14 0 +11 0 *
Fa
0  0.001000000000000 23 0

0111000
+5 0 *
Sh

0101100
+62 0 +57 0 +50 0 +45 0 +40 0 +35 0 +30 0 +25 0 -22 0 +15 0 
+12 0 +9 0 -6 0 -4 0 *
So

0100000
+3 0 *
Co

1100000
+2 0 *

+1 1 