
CASCADE Topology V1, (c) Matra-Datavision
Locations 11
1
1.000000000000000 0.000000000000000 0.000000000000000 0.000000000000000 
0.000000000000000 1.000000000000000 0.000000000000000 0.000000000000000 
0.000000000000000 0.000000000000000 1.000000000000000 0.000000000000000 
1
0.000000000000000 0.000000000000000 1.000000000000000 11.500000000000000 
1.000000000000000 0.000000000000000 0.000000000000000 0.000000000000000 
0.000000000000000 1.000000000000000 0.000000000000000 0.000000000000000 
1
1.000000000000000 0.000000000000000 0.000000000000000 0.000000000000000 
0.000000000000000 1.000000000000000 0.000000000000000 0.000000000000000 
0.000000000000000 0.000000000000000 1.000000000000000 0.000000000000000 
2  2 1 3 1 0
2  3 -1 2 -1 0
1
1.000000000000000 0.000000000000000 0.000000000000000 687.546888028313788 
0.000000000000000 1.000000000000000 0.000000000000000 0.000000000000000 
0.000000000000000 0.000000000000000 1.000000000000000 0.000000000000000 
1
1.000000000000000 0.000000000000000 0.000000000000000 0.000000000000000 
0.000000000000000 1.000000000000000 0.000000000000000 0.000000000000000 
0.000000000000000 0.000000000000000 1.000000000000000 0.000000000000000 
1
1.000000000000000 0.000000000000000 0.000000000000000 0.000000000000000 
0.000000000000000 1.000000000000000 0.000000000000000 0.000000000000000 
0.000000000000000 0.000000000000000 1.000000000000000 0.000000000000000 
2  6 -1 7 1 8 -1 1 -1 3 -1 2 -1 0
1
1.000000000000000 0.000000000000000 0.000000000000000 -1375.093776056627576 
0.000000000000000 1.000000000000000 0.000000000000000 -0.000000000000000 
0.000000000000000 0.000000000000000 1.000000000000000 -0.000000000000000 
2  10 -1 6 -1 7 1 8 -1 1 -1 3 -1 2 -1 0
Curve2ds 2
1 0.00000000000000000 0.00000000000000000 1.00000000000000000 0.00000000000000000 
1 0.00000000000000000 -1375.09377605662757560 1.00000000000000000 0.00000000000000000 
Curves 8
1 104.00000000000000000 272.14632000000005974 0.00000000000000000 -1.00000000000000000 0.00000000000000000 0.00000000000000000 
1 104.00000000000000000 -356.56446999999991476 0.00000000000000000 0.00000000000000000 1.00000000000000000 0.00000000000000000 
1 -156.00000000000000000 272.14632000000005974 0.00000000000000000 0.00000000000000000 -1.00000000000000000 0.00000000000000000 
1 -156.00000000000000000 -356.56446999999991476 0.00000000000000000 1.00000000000000000 0.00000000000000000 0.00000000000000000 
1 0.00000000000000000 20.66200399999999604 0.00000000000000000 -1.00000000000000000 0.00000000000000000 0.00000000000000000 
1 -52.00000000000000000 20.66200399999999604 0.00000000000000000 0.00000000000000000 -1.00000000000000000 0.00000000000000000 
1 -52.00000000000000000 -105.08015399999999318 0.00000000000000000 1.00000000000000000 0.00000000000000000 0.00000000000000000 
1 0.00000000000000000 -105.08015399999999318 0.00000000000000000 0.00000000000000000 1.00000000000000000 0.00000000000000000 
Polygon3D 0
PolygonOnTriangulations 0
Surfaces 2
1 11.50000000000000000 -26.00000000000000000 -42.20907499999997015 1.00000000000000000 0.00000000000000000 0.00000000000000000 -0.00000000000000000 1.00000000000000000 0.00000000000000000 0.00000000000000000 -0.00000000000000000 1.00000000000000000 
1 699.04688802831378780 -52.00000000000000000 20.66200399999999604 0.00000000000000000 -1.00000000000000000 0.00000000000000000 0.00000000000000000 0.00000000000000000 -1.00000000000000000 1.00000000000000000 0.00000000000000000 0.00000000000000000 
Triangulations 0

TShapes 20
Ve
0.000000500000000
11.500000000000000 104.000000000000000 272.146320000000003
0 0

0101101
*
Ve
0.000000500000000
11.500000000000000 -156.000000000000000 272.146320000000003
0 0

0101101
*
Ed
 0.000000500000000 1 1 0
1  1 0 0.000000000000000 260.000000000000000
0

0101000
+20 5 -19 5 *
Ve
0.000000500000000
11.500000000000000 104.000000000000000 -356.564469999999915
0 0

0101101
*
Ed
 0.000000500000000 1 1 0
1  2 0 0.000000000000000 628.710789999999974
0

0101000
+17 5 -20 5 *
Ve
0.000000500000000
11.500000000000000 -156.000000000000000 -356.564469999999915
0 0

0101101
*
Ed
 0.000000500000000 1 1 0
1  3 0 0.000000000000000 628.710789999999974
0

0101000
+19 5 -15 5 *
Ed
 0.000000500000000 1 1 0
1  4 0 0.000000000000000 260.000000000000000
0

0101000
+15 5 -17 5 *
Wi

0101100
+18 4 +16 4 +14 4 +13 4 *
Ve
0.000000500000000
11.500000000000000 0.000000000000000 20.662003999999996
0 0

0101101
*
Ve
0.000000500000000
11.500000000000000 -52.000000000000000 20.662003999999996
0 0

0101101
*
Ed
 0.000000500000000 1 1 0
1  5 0 0.000000000000000 52.000000000000000
0

0101000
+11 5 -10 5 *
Ve
0.000000500000000
11.500000000000000 -52.000000000000000 -105.080153999999993
0 0

0101101
*
Ed
 0.000000500000000 1 1 0
1  6 0 0.000000000000000 125.742157999999989
2  1 2 9 0.000000000000000 125.742157999999989
2  2 2 11 0.000000000000000 125.742157999999989
0

0101000
+10 5 -8 5 *
Ve
0.000000500000000
11.500000000000000 0.000000000000000 -105.080153999999993
0 0

0101101
*
Ed
 0.000000500000000 1 1 0
1  7 0 0.000000000000000 52.000000000000000
0

0101000
+8 5 -6 5 *
Ed
 0.000000500000000 1 1 0
1  8 0 0.000000000000000 125.742157999999989
0

0101000
+6 5 -11 5 *
Wi

0101100
-9 4 -7 4 -5 4 -4 4 *
Fa
0  0.000000500000000 1 0

0111000
+12 0 +3 0 *
Sh

1101000
+2 0 *

+1 1 