
CASCADE Topology V1, (c) Matra-Datavision
Locations 9
1
1.000000000000000 0.000000000000000 0.000000000000000 0.000000000000000 
0.000000000000000 1.000000000000000 0.000000000000000 0.000000000000000 
0.000000000000000 0.000000000000000 1.000000000000000 0.000000000000000 
1
1.000000000000000 0.000000000000000 0.000000000000000 0.000000000000000 
0.000000000000000 1.000000000000000 0.000000000000000 0.000000000000000 
0.000000000000000 0.000000000000000 1.000000000000000 0.000000000000000 
2  2 -1 0
1
1.000000000000000 0.000000000000000 0.000000000000000 0.000000000000000 
0.000000000000000 1.000000000000000 0.000000000000000 0.000000000000000 
0.000000000000000 0.000000000000000 1.000000000000000 1596.000000000000000 
2  4 1 2 1 0
2  4 -1 0
2  2 -1 4 -1 0
1
1.000000000000000 0.000000000000000 0.000000000000000 0.000000000000000 
0.000000000000000 1.000000000000000 0.000000000000000 -2.000000000000000 
0.000000000000000 0.000000000000000 1.000000000000000 0.000000000000000 
2  8 -1 0
Curve2ds 101
1 4.71238898038468967 0.00000000000000000 0.00000000000000000 -1.00000000000000000 
1 15.00000000000000000 0.00000000000000000 0.00000000000000000 -1.00000000000000000 
1 0.00000000000000000 0.00000000000000000 0.00000000000000000 -1.00000000000000000 
1 6.28318530717958623 0.00000000000000000 0.00000000000000000 -1.00000000000000000 
1 0.00000000000000000 0.00000000000000000 1.00000000000000000 0.00000000000000000 
1 0.00000000000000000 0.00000000000000000 1.00000000000000000 0.00000000000000000 
1 0.00000000000000000 0.00000000000000000 1.00000000000000000 0.00000000000000000 
1 0.00000000000000000 -1596.00000000000000000 1.00000000000000000 0.00000000000000000 
1 6.28318530717958623 0.00000000000000000 -1.00000000000000000 0.00000000000000000 
1 0.00000000000000000 0.00000000000000000 0.00000000000000000 -1.00000000000000000 
1 0.00000000000000000 -2.00000000000000000 -1.00000000000000000 0.00000000000000000 
1 0.00000000000000000 0.00000000000000000 1.00000000000000000 0.00000000000000000 
1 0.00000000000000000 -2.00000000000000000 1.00000000000000000 0.00000000000000000 
1 0.00000000000000000 -1596.00000000000000000 1.00000000000000000 0.00000000000000000 
1 0.00000000000000000 -2.00000000000000000 -1.00000000000000000 0.00000000000000000 
6 0 1 4.00000000000000000 -2.00000000000000000  4.00000000000000000 0.00000000000000000  
8 0.00000000000000000 1.00000000000000000
1 6.28318530717958623 0.00000000000000000 0.00000000000000000 1.00000000000000000 
6 0 1 0.00000000000000000 0.00000000000000000  0.00000000000000000 -2.00000000000000000  
1 0.00000000000000000 1.00000000000000000 1.00000000000000000 0.00000000000000000 
1 0.00000000000000000 0.00000000000000000 1.00000000000000000 0.00000000000000000 
1 4.71238898038468967 0.00000000000000000 0.00000000000000000 1.00000000000000000 
6 0 1 15.00000000000000000 -2.00000000000000000  15.00000000000000000 0.00000000000000000  
1 0.00000000000000000 0.00000000000000000 0.00000000000000000 -1.00000000000000000 
1 1.57079632679489656 0.00000000000000000 0.00000000000000000 -1.00000000000000000 
1 15.00000000000000000 0.00000000000000000 0.00000000000000000 -1.00000000000000000 
1 0.00000000000000000 -2.00000000000000000 1.00000000000000000 0.00000000000000000 
1 -3.99999999999999956 0.00000000000000000 1.00000000000000000 0.00000000000000000 
1 0.00000000000000000 -2.00000000000000000 1.00000000000000000 0.00000000000000000 
1 -3.99999999999999956 -1596.00000000000000000 1.00000000000000000 0.00000000000000000 
1 0.00000000000000000 -2.00000000000000000 -1.00000000000000000 0.00000000000000000 
1 0.00000000000000000 0.00000000000000000 0.00000000000000000 -1.00000000000000000 
1 28.60000000000000853 0.00000000000000000 0.00000000000000000 -1.00000000000000000 
1 0.00000000000000000 0.00000000000000000 1.00000000000000000 0.00000000000000000 
1 0.00000000000000000 0.00000000000000000 1.00000000000000000 0.00000000000000000 
1 0.00000000000000000 0.00000000000000000 1.00000000000000000 0.00000000000000000 
1 0.00000000000000000 -1596.00000000000000000 1.00000000000000000 0.00000000000000000 
1 6.28318530717958623 0.00000000000000000 -1.00000000000000000 0.00000000000000000 
6 0 1 1596.00000000000000000 -2.00000000000000000  1596.00000000000000000 0.00000000000000000  
6 0 1 -19.00000000000000000 -2.00000000000000000  -19.00000000000000000 0.00000000000000000  
1 0.00000000000000000 0.00000000000000000 1.00000000000000000 0.00000000000000000 
1 15.00000000000000000 0.00000000000000000 0.00000000000000000 -1.00000000000000000 
6 0 1 0.00000000000000000 -2.00000000000000000  0.00000000000000000 0.00000000000000000  
6 0 1 19.00000000000000000 -2.00000000000000000  19.00000000000000000 0.00000000000000000  
1 0.00000000000000000 0.00000000000000000 1.00000000000000000 0.00000000000000000 
1 -3.99999999999999956 0.00000000000000000 1.00000000000000000 0.00000000000000000 
6 0 1 3.99999999999999956 -2.00000000000000000  3.99999999999999956 0.00000000000000000  
8 0.00000000000000000 1.00000000000000000
1 1.57079632679489656 0.00000000000000000 0.00000000000000000 1.00000000000000000 
6 0 1 -3.99999999999999956 -2.00000000000000000  -3.99999999999999956 0.00000000000000000  
8 0.00000000000000000 1.00000000000000000
1 4.71238898038468967 0.00000000000000000 0.00000000000000000 1.00000000000000000 
1 0.00000000000000000 0.00000000000000000 -1.00000000000000000 0.00000000000000000 
1 -3.99999999999999956 -1596.00000000000000000 1.00000000000000000 0.00000000000000000 
1 0.00000000000000000 1.00000000000000000 1.00000000000000000 0.00000000000000000 
1 0.00000000000000000 0.00000000000000000 1.00000000000000000 0.00000000000000000 
1 0.00000000000000000 0.00000000000000000 0.00000000000000000 1.00000000000000000 
6 0 1 32.60000000000000853 -2.00000000000000000  32.60000000000000853 -0.00000000000000044  
6 0 1 0.00000000000000000 0.00000000000000000  0.00000000000000000 -1.99999999999999956  
1 6.28318530717958623 0.00000000000000000 0.00000000000000000 1.00000000000000000 
7 0 0  1 2 2  -32.60000000000000853 -2.00000000000000089  -32.60000000000000853 -0.00000000000000089 
 0.00000000000000000 2 1.00000000000000000 2
7 0 0  1 2 2  1596.00000000000000000 0.00000000000000067  1596.00000000000000000 -1.99999999999999911 
 0.00000000000000000 2 1.00000000000000000 2
1 6.28318530717958623 1.00000000000000000 -1.00000000000000000 0.00000000000000000 
1 0.00000000000000000 -1596.00000000000000000 1.00000000000000000 0.00000000000000000 
1 0.00000000000000000 0.00000000000000000 0.00000000000000000 -1.00000000000000000 
8 0.00000000000000000 1596.00000000000000000
1 1.57079632679489656 0.00000000000000000 0.00000000000000000 -1.00000000000000000 
1 -4.00000000000000000 0.00000000000000000 1.00000000000000000 0.00000000000000000 
1 0.00000000000000000 -2.00000000000000000 1.00000000000000000 0.00000000000000000 
1 0.00000000000000000 0.00000000000000000 1.00000000000000000 0.00000000000000000 
1 -4.00000000000000000 0.00000000000000000 1.00000000000000000 0.00000000000000000 
1 0.00000000000000000 0.00000000000000000 0.00000000000000000 -1.00000000000000000 
1 28.60000000000000853 0.00000000000000000 0.00000000000000000 -1.00000000000000000 
1 0.00000000000000000 -1.99999999999999956 1.00000000000000000 0.00000000000000000 
1 0.00000000000000000 0.00000000000000000 0.00000000000000000 -1.00000000000000000 
1 0.00000000000000000 0.00000000000000000 1.00000000000000000 0.00000000000000000 
1 0.00000000000000000 -1.99999999999999978 1.00000000000000000 0.00000000000000000 
1 39.99999999999977263 14.30000000000000426 -1.00000000000000000 0.00000000000000000 
1 1.57079632679489656 0.00000000000000000 0.00000000000000000 1.00000000000000000 
7 0 0  1 2 2  -15.00000000000000178 -2.00000000000000355  -15.00000000000000178 0.00000000000000000 
 0.00000000000000000 2 1.00000000000000000 2
1 6.28318530717958623 1.00000000000000000 -1.00000000000000000 0.00000000000000000 
1 0.00000000000000000 -1596.00000000000000000 1.00000000000000000 0.00000000000000000 
6 0 1 -4.00000000000000000 -2.00000000000000000  -4.00000000000000000 0.00000000000000000  
8 0.00000000000000000 1.00000000000000000
1 0.00000000000000000 0.00000000000000000 0.00000000000000000 1.00000000000000000 
6 0 1 1596.00000000000000000 0.00000000000000000  1596.00000000000000000 -2.00000000000000000  
1 80.00000000000000000 0.00000000000000000 0.00000000000000000 -1.00000000000000000 
1 0.00000000000000000 0.00000000000000000 1.00000000000000000 0.00000000000000000 
1 0.00000000000000000 -1.99999999999999978 1.00000000000000000 0.00000000000000000 
1 -40.00000000000022737 -14.30000000000000426 1.00000000000000000 0.00000000000000000 
1 39.99999999999977263 -14.30000000000000426 0.00000000000000000 1.00000000000000000 
6 0 1 0.00000000000000000 -2.00000000000000000  0.00000000000000000 0.00000000000000000  
6 0 1 0.00000000000000000 -2.00000000000000000  0.00000000000000000 0.00000000000000000  
1 -0.00000000000000000 0.00000000000000000 -1.00000000000000000 0.00000000000000000 
1 0.00000000000000000 0.00000000000000000 0.00000000000000000 -1.00000000000000000 
6 0 1 -1596.00000000000000000 -2.00000000000000000  -1596.00000000000000000 0.00000000000000000  
6 0 1 0.00000000000000000 -2.00000000000000000  0.00000000000000000 0.00000000000000000  
1 0.00000000000000000 0.00000000000000000 1.00000000000000000 0.00000000000000000 
1 0.00000000000000000 0.00000000000000000 1.00000000000000000 0.00000000000000000 
1 0.00000000000000000 0.00000000000000000 -1.00000000000000000 0.00000000000000000 
1 0.00000000000000000 -1596.00000000000000000 1.00000000000000000 0.00000000000000000 
1 4.71238898038468967 0.00000000000000000 0.00000000000000000 -1.00000000000000000 
1 15.00000000000000000 0.00000000000000000 0.00000000000000000 -1.00000000000000000 
1 0.00000000000000000 0.00000000000000000 0.00000000000000000 -1.00000000000000000 
8 0.00000000000000000 1596.00000000000000000
1 6.28318530717958623 0.00000000000000000 0.00000000000000000 -1.00000000000000000 
1 0.00000000000000000 -2.00000000000000000 1.00000000000000000 0.00000000000000000 
Curves 47
1 -18.30000000000000071 -4.00000000000000000 0.00000000000000000 0.00000000000000000 0.00000000000000000 1.00000000000000000 
1 -14.30000000000000071 0.00000000000000000 0.00000000000000000 0.00000000000000000 0.00000000000000000 1.00000000000000000 
2 -14.30000000000000071 -4.00000000000000000 0.00000000000000000 0.00000000000000000 0.00000000000000000 -1.00000000000000000 0.00000000000000022 1.00000000000000000 0.00000000000000000 1.00000000000000000 -0.00000000000000022 0.00000000000000000 4.00000000000000000
2 -14.30000000000000071 -4.00000000000000000 0.00000000000000000 0.00000000000000000 0.00000000000000000 -1.00000000000000000 0.00000000000000022 1.00000000000000000 0.00000000000000000 1.00000000000000000 -0.00000000000000022 0.00000000000000000 4.00000000000000000
1 -18.30000000000000071 -19.00000000000000000 0.00000000000000000 0.00000000000000000 0.00000000000000000 1.00000000000000000 
1 -18.30000000000000071 -19.00000000000000000 0.00000000000000000 0.00000000000000000 1.00000000000000000 0.00000000000000000 
1 -18.30000000000000071 -19.00000000000000000 0.00000000000000000 0.00000000000000000 1.00000000000000000 0.00000000000000000 
6 0 1 -14.30000000000000071 0.00000000000000000 0.00000000000000000  -14.30000000000000071 -2.00000000000000000 0.00000000000000000  
2 -14.30000000000000071 -4.00000000000000000 0.00000000000000000 0.00000000000000000 0.00000000000000000 -1.00000000000000000 0.00000000000000022 1.00000000000000000 0.00000000000000000 1.00000000000000000 -0.00000000000000022 0.00000000000000000 2.00000000000000000
6 0 1 -18.30000000000000071 -4.00000000000000000 0.00000000000000000  -16.30000000000000071 -4.00000000000000000 0.00000000000000000  
1 18.30000000000000782 -3.99999999999999956 0.00000000000000000 0.00000000000000000 0.00000000000000000 1.00000000000000000 
1 18.30000000000000782 -19.00000000000000000 0.00000000000000000 0.00000000000000000 0.00000000000000000 1.00000000000000000 
1 18.30000000000000782 0.00000000000000000 0.00000000000000000 0.00000000000000000 -1.00000000000000000 0.00000000000000000 
1 18.30000000000000782 0.00000000000000000 0.00000000000000000 0.00000000000000000 -1.00000000000000000 0.00000000000000000 
1 14.30000000000000782 0.00000000000000000 0.00000000000000000 0.00000000000000000 0.00000000000000000 1.00000000000000000 
2 14.30000000000000782 -3.99999999999999956 0.00000000000000000 0.00000000000000000 0.00000000000000000 -1.00000000000000000 0.00000000000000000 1.00000000000000000 0.00000000000000000 1.00000000000000000 -0.00000000000000000 0.00000000000000000 4.00000000000000000
2 14.30000000000000782 -3.99999999999999956 0.00000000000000000 0.00000000000000000 0.00000000000000000 -1.00000000000000000 0.00000000000000000 1.00000000000000000 0.00000000000000000 1.00000000000000000 -0.00000000000000000 0.00000000000000000 4.00000000000000000
6 0 1 18.30000000000000782 -19.00000000000000000 1596.00000000000000000  16.30000000000000782 -19.00000000000000000 1596.00000000000000000  
1 16.30000000000000782 -19.00000000000000000 0.00000000000000000 0.00000000000000000 0.00000000000000000 1.00000000000000000 
6 0 1 18.30000000000000782 -19.00000000000000000 0.00000000000000000  16.30000000000000782 -19.00000000000000000 0.00000000000000000  
1 16.30000000000000782 0.00000000000000000 0.00000000000000000 0.00000000000000000 -1.00000000000000000 0.00000000000000000 
6 0 1 18.30000000000000782 -3.99999999999999956 0.00000000000000000  16.30000000000000782 -3.99999999999999956 0.00000000000000000  
6 0 1 18.30000000000000782 -3.99999999999999956 1596.00000000000000000  16.30000000000000782 -3.99999999999999956 1596.00000000000000000  
1 16.30000000000000782 0.00000000000000000 1596.00000000000000000 0.00000000000000000 -1.00000000000000000 0.00000000000000000 
2 14.30000000000000782 -3.99999999999999956 0.00000000000000000 0.00000000000000000 0.00000000000000000 -1.00000000000000000 0.00000000000000000 1.00000000000000000 0.00000000000000000 1.00000000000000000 -0.00000000000000000 0.00000000000000000 2.00000000000000000
6 0 1 14.30000000000000782 0.00000000000000000 0.00000000000000000  14.30000000000000782 -1.99999999999999956 0.00000000000000000  
7 0 0  1 2 2  14.30000000000000959 0.00000000000000067 1596.00000000000000000  14.30000000000000782 -1.99999999999999911 1596.00000000000000000 
 0.00000000000000000 2 1.00000000000000000 2
2 14.30000000000000782 -3.99999999999999956 1596.00000000000000000 0.00000000000000000 0.00000000000000000 -1.00000000000000000 0.00000000000000000 1.00000000000000000 0.00000000000000000 1.00000000000000000 -0.00000000000000000 0.00000000000000000 2.00000000000000000
1 16.30000000000000782 -3.99999999999999956 0.00000000000000000 0.00000000000000000 0.00000000000000000 1.00000000000000000 
1 -18.30000000000000071 0.00000000000000000 0.00000000000000000 1.00000000000000000 0.00000000000000000 0.00000000000000000 
1 -18.30000000000000071 -2.00000000000000000 0.00000000000000000 1.00000000000000000 0.00000000000000000 0.00000000000000000 
1 14.30000000000000782 -1.99999999999999956 0.00000000000000000 -0.00000000000000000 -0.00000000000000000 1.00000000000000000 
1 14.30000000000000782 0.00000000000000000 1676.00000000000000000 0.00000000000000010 -1.00000000000000000 0.00000000000000000 
1 14.30000000000000782 0.00000000000000000 1676.00000000000000000 0.00000000000000000 0.00000000000000000 -1.00000000000000000 
7 0 0  1 2 2  -18.30000000000000426 -3.99999999999999867 1596.00000000000000000  -16.30000000000000071 -3.99999999999999867 1596.00000000000000000 
 0.00000000000000000 2 1.00000000000000000 2
2 -14.30000000000000071 -4.00000000000000000 1596.00000000000000000 0.00000000000000000 0.00000000000000000 -1.00000000000000000 0.00000000000000022 1.00000000000000000 0.00000000000000000 1.00000000000000000 -0.00000000000000022 0.00000000000000000 2.00000000000000000
6 0 1 -14.30000000000000071 0.00000000000000000 1596.00000000000000000  -14.30000000000000071 -2.00000000000000000 1596.00000000000000000  
1 -14.30000000000000071 0.00000000000000000 1676.00000000000000000 0.00000000000000010 -1.00000000000000000 0.00000000000000000 
1 -14.30000000000000071 0.00000000000000000 1596.00000000000000000 0.00000000000000000 0.00000000000000000 1.00000000000000000 
1 -14.30000000000000071 0.00000000000000000 1676.00000000000000000 1.00000000000000000 0.00000000000000000 0.00000000000000000 
6 0 1 -18.30000000000000071 -19.00000000000000000 0.00000000000000000  -16.30000000000000071 -19.00000000000000000 0.00000000000000000  
1 -16.30000000000000071 -19.00000000000000000 0.00000000000000000 0.00000000000000000 0.00000000000000000 1.00000000000000000 
6 0 1 -18.30000000000000071 -19.00000000000000000 1596.00000000000000000  -16.30000000000000071 -19.00000000000000000 1596.00000000000000000  
1 -16.30000000000000071 -19.00000000000000000 0.00000000000000000 0.00000000000000000 1.00000000000000000 0.00000000000000000 
1 -16.30000000000000071 -19.00000000000000000 1596.00000000000000000 0.00000000000000000 1.00000000000000000 0.00000000000000000 
1 -16.30000000000000071 -4.00000000000000000 0.00000000000000000 -0.00000000000000000 -0.00000000000000000 1.00000000000000000 
1 -14.30000000000000071 -2.00000000000000000 0.00000000000000000 0.00000000000000000 0.00000000000000000 1.00000000000000000 
Polygon3D 0
PolygonOnTriangulations 0
Surfaces 30
2 -14.30000000000000071 -4.00000000000000000 0.00000000000000000 0.00000000000000000 0.00000000000000000 -1.00000000000000000 0.00000000000000022 1.00000000000000000 0.00000000000000000 1.00000000000000000 -0.00000000000000022 0.00000000000000000 4.00000000000000000
1 -18.30000000000000071 -19.00000000000000000 0.00000000000000000 -1.00000000000000000 0.00000000000000000 0.00000000000000000 0.00000000000000000 1.00000000000000000 0.00000000000000000 0.00000000000000000 0.00000000000000000 -1.00000000000000000 
1 -14.30000000000000071 0.00000000000000000 0.00000000000000000 0.00000000000000000 1.00000000000000000 0.00000000000000000 1.00000000000000000 0.00000000000000000 0.00000000000000000 0.00000000000000000 0.00000000000000000 -1.00000000000000000 
1 -14.30000000000000071 0.00000000000000000 0.00000000000000000 -1.00000000000000000 -0.00000000000000000 0.00000000000000000 0.00000000000000000 0.00000000000000000 1.00000000000000000 -0.00000000000000000 1.00000000000000000 0.00000000000000000 
9 0 0 0 0 8 1 9 2 2 2 -18.29999999999998650 -3.99999999999999645 0.00000000000000000  -16.29999999999999005 -3.99999999999999645 0.00000000000000000  
-18.29999999999979110 -3.21460183660252685 0.00000000000000000  -16.29999999999985505 -3.60730091830122923 0.00000000000000000  
-18.12375684415584587 -2.42920342598323069 0.00000000000000000  -16.21187842207807961 -3.21460171299173103 0.00000000000000000  
-17.77127226348466849 -1.68994706265959271 0.00000000000000000  -16.03563613174205571 -2.84497353132959452 0.00000000000000000  
-17.25703502312062909 -1.04296497688060663 0.00000000000000000  -15.77851751156063287 -2.52148248844052913 0.00000000000000000  
-16.61005293733951760 -0.52872773651414684 0.00000000000000000  -15.45502646866950336 -2.26436386825690095 0.00000000000000000  
-15.87079657401719857 -0.17624315584487346 0.00000000000000000  -15.08539828700873997 -2.08812157792252640 0.00000000000000000  
-15.08539816339736284 0.00000000000001486 0.00000000000000000  -14.69269908169864536 -1.99999999999996714 0.00000000000000000  
-14.30000000000000071 0.00000000000000022 0.00000000000000000  -14.30000000000000071 -2.00000000000000000 0.00000000000000000  

4.71238898038468967 9
6.28318530717958623 9

0.00000000000000000 2
1.00000000000000000 2

9 0 0 0 0 8 1 9 2 2 2 -14.30000000000000426 0.00000000000000044 1596.00000000000000000  -14.30000000000000071 -1.99999999999999956 1596.00000000000000000  
-15.08539816339743567 -0.00000000000000097 1596.00000000000454747  -14.69269908169874128 -1.99999999999999534 1596.00000000000454747  
-15.87079657401685751 -0.17624315584480751 1595.99999999998294697  -15.08539828700835095 -2.08812157792242026 1595.99999999998294697  
-16.61005293734030985 -0.52872773651428473 1596.00000000003456080  -15.45502646867025653 -2.26436386825710922 1596.00000000003456080  
-17.25703502311947091 -1.04296497688042100 1595.99999999995270628  -15.77851751155967719 -2.52148248844024936 1595.99999999995270628  
-17.77127226348578048 -1.68994706265975791 1596.00000000004274625  -16.03563613174286573 -2.84497353132984587 1596.00000000004274625  
-18.12375684415518151 -2.42920342598313255 1595.99999999997635314  -16.21187842207764263 -3.21460171299158226 1595.99999999997635314  
-18.29999999999999716 -3.21460183660255572 1596.00000000000659384  -16.29999999999996874 -3.60730091830127320 1596.00000000000659384  
-18.30000000000000426 -3.99999999999999867 1596.00000000000000000  -16.30000000000000071 -3.99999999999999867 1596.00000000000000000  

0.00000000000000000 9
1.57079632679489656 9

0.00000000000000000 2
1.00000000000000000 2

1 -16.30000000000000071 -19.00000000000000000 0.00000000000000000 0.00000000000000000 -1.00000000000000000 0.00000000000000000 -0.00000000000000000 -0.00000000000000000 -1.00000000000000000 1.00000000000000000 0.00000000000000000 -0.00000000000000000 
1 -16.30000000000000071 -19.00000000000000000 0.00000000000000000 0.00000000000000000 0.00000000000000000 -1.00000000000000000 0.00000000000000000 1.00000000000000000 0.00000000000000000 1.00000000000000000 -0.00000000000000000 0.00000000000000000 
1 -16.30000000000000071 -19.00000000000000000 1596.00000000000000000 0.00000000000000000 0.00000000000000000 1.00000000000000000 0.00000000000000000 -1.00000000000000000 0.00000000000000000 1.00000000000000000 0.00000000000000000 -0.00000000000000000 
1 -18.30000000000000071 -2.00000000000000000 0.00000000000000000 0.00000000000000000 0.00000000000000000 -1.00000000000000000 1.00000000000000000 0.00000000000000000 0.00000000000000000 0.00000000000000000 -1.00000000000000000 0.00000000000000000 
2 -14.30000000000000071 -4.00000000000000000 0.00000000000000000 0.00000000000000000 0.00000000000000000 -1.00000000000000000 0.00000000000000022 1.00000000000000000 0.00000000000000000 1.00000000000000000 -0.00000000000000022 0.00000000000000000 2.00000000000000000
1 18.30000000000000782 -3.99999999999999956 0.00000000000000000 1.00000000000000000 0.00000000000000000 -0.00000000000000000 0.00000000000000000 -1.00000000000000000 0.00000000000000000 0.00000000000000000 -0.00000000000000000 -1.00000000000000000 
2 14.30000000000000782 -3.99999999999999956 0.00000000000000000 0.00000000000000000 0.00000000000000000 -1.00000000000000000 0.00000000000000000 1.00000000000000000 0.00000000000000000 1.00000000000000000 -0.00000000000000000 0.00000000000000000 4.00000000000000000
1 16.30000000000000782 -19.00000000000000000 0.00000000000000000 0.00000000000000000 -1.00000000000000000 0.00000000000000000 0.00000000000000000 0.00000000000000000 1.00000000000000000 -1.00000000000000000 0.00000000000000000 0.00000000000000000 
1 16.30000000000000782 0.00000000000000000 0.00000000000000000 -0.00000000000000000 -0.00000000000000000 -1.00000000000000000 0.00000000000000000 -1.00000000000000000 0.00000000000000000 -1.00000000000000000 0.00000000000000000 0.00000000000000000 
1 16.30000000000000782 0.00000000000000000 1596.00000000000000000 0.00000000000000000 0.00000000000000000 1.00000000000000000 -0.00000000000000000 1.00000000000000000 0.00000000000000000 -1.00000000000000000 -0.00000000000000000 0.00000000000000000 
1 14.30000000000000782 0.00000000000000000 0.00000000000000000 -1.00000000000000000 -0.00000000000000000 0.00000000000000000 0.00000000000000000 0.00000000000000000 1.00000000000000000 -0.00000000000000000 1.00000000000000000 0.00000000000000000 
9 0 0 0 0 8 1 9 2 2 2 14.30000000000000782 0.00000000000000044 0.00000000000000000  14.30000000000000782 -1.99999999999999911 0.00000000000000000  
15.08539816339745876 0.00000000000000057 0.00000000000000000  14.69269908169870753 -2.00000000000000933 0.00000000000000000  
15.87079657401681487 -0.17624315584481010 0.00000000000000000  15.08539828700849839 -2.08812157792237363 0.00000000000000000  
16.61005293734039157 -0.52872773651428218 0.00000000000000000  15.45502646866999719 -2.26436386825719227 0.00000000000000000  
17.25703502311939630 -1.04296497688042233 0.00000000000000000  15.77851751156000049 -2.52148248844015344 0.00000000000000000  
17.77127226348585864 -1.68994706265975747 0.00000000000000000  16.03563613174264901 -2.84497353132992181 0.00000000000000000  
18.12375684415513888 -2.42920342598313432 0.00000000000000000  16.21187842207774210 -3.21460171299154229 0.00000000000000000  
18.30000000000002203 -3.21460183660255483 0.00000000000000000  16.29999999999995808 -3.60730091830128474 0.00000000000000000  
18.30000000000000782 -3.99999999999999911 0.00000000000000000  16.30000000000000782 -3.99999999999999911 0.00000000000000000  

0.00000000000000000 9
1.57079632679489656 9

0.00000000000000000 2
1.00000000000000000 2

9 0 0 0 0 8 1 9 2 2 2 18.29999999999999361 -3.99999999999999734 1595.99999999999886313  16.29999999999999716 -3.99999999999999645 1595.99999999999886313  
18.29999999999973426 -3.21460183660252818 1595.99999999998021849  16.29999999999980886 -3.60730091830122968 1595.99999999998021849  
18.12375684415611587 -2.42920342598322936 1596.00000000006866685  16.21187842207826435 -3.21460171299173281 1596.00000000006866685  
17.77127226348416400 -1.68994706265960026 1595.99999999988199306  16.03563613174173952 -2.84497353132959896 1595.99999999988199306  
17.25703502312127213 -1.04296497688059575 1596.00000000012687451  15.77851751156102011 -2.52148248844051759 1596.00000000012687451  
16.61005293733900245 -0.52872773651415639 1595.99999999990609467  15.45502646866921737 -2.26436386825690805 1595.99999999990609467  
15.87079657401747212 -0.17624315584486894 1596.00000000004615686  15.08539828700889274 -2.08812157792252417 1596.00000000004615686  
15.08539816339729889 0.00000000000001387 1595.99999999998794920  14.69269908169860628 -1.99999999999996669 1595.99999999998794920  
14.30000000000000959 0.00000000000000067 1596.00000000000000000  14.30000000000000782 -1.99999999999999911 1596.00000000000000000  

4.71238898038468967 9
6.28318530717958623 9

0.00000000000000000 2
1.00000000000000000 2

1 16.30000000000000782 -3.99999999999999956 0.00000000000000000 1.00000000000000000 0.00000000000000000 -0.00000000000000000 0.00000000000000000 -1.00000000000000000 0.00000000000000000 0.00000000000000000 -0.00000000000000000 -1.00000000000000000 
2 14.30000000000000782 -3.99999999999999956 0.00000000000000000 0.00000000000000000 0.00000000000000000 -1.00000000000000000 0.00000000000000000 1.00000000000000000 0.00000000000000000 1.00000000000000000 -0.00000000000000000 0.00000000000000000 2.00000000000000000
1 -18.30000000000000071 -2.00000000000000000 1596.00000000000000000 -0.00000000000000000 0.00000000000000000 1.00000000000000000 -1.00000000000000000 0.00000000000000000 -0.00000000000000000 -0.00000000000000000 -1.00000000000000000 0.00000000000000000 
1 -14.30000000000000071 -2.00000000000000000 0.00000000000000000 0.00000000000000000 1.00000000000000000 0.00000000000000000 1.00000000000000000 0.00000000000000000 0.00000000000000000 0.00000000000000000 0.00000000000000000 -1.00000000000000000 
1 14.30000000000000782 0.00000000000000000 1676.00000000000000000 1.00000000000000000 0.00000000000000010 0.00000000000000000 0.00000000000000000 0.00000000000000000 -1.00000000000000000 -0.00000000000000010 1.00000000000000000 0.00000000000000000 
1 0.00000000000000419 0.00000000000000000 1636.00000000000022737 0.00000000000000000 1.00000000000000000 0.00000000000000000 0.00000000000000000 -0.00000000000000000 1.00000000000000000 1.00000000000000000 0.00000000000000000 -0.00000000000000000 
1 -14.30000000000000071 0.00000000000000000 1596.00000000000000000 -1.00000000000000000 -0.00000000000000010 0.00000000000000000 0.00000000000000000 0.00000000000000000 1.00000000000000000 -0.00000000000000010 1.00000000000000000 0.00000000000000000 
1 -14.30000000000000071 0.00000000000000000 1676.00000000000000000 -0.00000000000000000 0.00000000000000000 1.00000000000000000 1.00000000000000000 0.00000000000000000 0.00000000000000000 0.00000000000000000 1.00000000000000000 -0.00000000000000000 
1 -16.30000000000000071 -19.00000000000000000 0.00000000000000000 -1.00000000000000000 0.00000000000000000 0.00000000000000000 0.00000000000000000 1.00000000000000000 0.00000000000000000 0.00000000000000000 0.00000000000000000 -1.00000000000000000 
1 0.00000000000000323 0.00000000000000000 838.00000000000000000 0.00000000000000000 1.00000000000000000 0.00000000000000000 0.00000000000000000 -0.00000000000000000 1.00000000000000000 1.00000000000000000 0.00000000000000000 -0.00000000000000000 
1 0.00000000000000347 -1.99999999999999978 837.99999999999977263 0.00000000000000001 -1.00000000000000000 0.00000000000000000 -1.00000000000000000 -0.00000000000000001 0.00000000000000000 0.00000000000000000 -0.00000000000000000 -1.00000000000000000 
Triangulations 0

TShapes 126
Ve
0.001000000000000
-18.300000000000001 -4.000000000000000 0.000000000000000
0 0

0101101
*
Ve
0.001000000000000
-18.300000000000001 -4.000000000000000 1596.000000000000000
0 0

0101101
*
Ed
 0.001000000000000 1 1 0
1  1 0 0.000000000000000 1596.000000000000000
2  1 1 0 0.000000000000000 1596.000000000000000
2  2 2 0 0.000000000000000 1596.000000000000000
4 G1 1 0 2 0
0

0101000
+126 3 -125 3 *
Ve
0.001000000000000
-14.300000000000001 0.000000000000000 0.000000000000000
0 0

0101101
*
Ve
0.001000000000000
-14.300000000000001 0.000000000000000 1596.000000000000000
0 0

0101101
*
Ed
 0.001000000000000 1 1 0
1  2 0 0.000000000000000 1596.000000000000000
2  3 3 0 0.000000000000000 1596.000000000000000
2  4 1 0 0.000000000000000 1596.000000000000000
4 G1 3 0 1 0
2  5 4 3 0.000000000000000 1596.000000000000000
0

0101000
+123 3 -122 3 *
Ed
 0.000000100000000 1 1 0
1  3 0 4.712388980384690 6.283185307179586
2  6 1 0 4.712388980384690 6.283185307179586
2  7 5 0 4.712388980384690 6.283185307179586
0

0101000
+126 3 -123 3 *
Ed
 0.000000100000000 1 1 0
1  4 0 4.712388980384690 6.283185307179586
2  8 1 6 4.712388980384690 6.283185307179586
2  9 6 6 4.712388980384690 6.283185307179586
0

0101000
+125 7 -122 7 *
Wi

0101100
+124 2 -121 2 -120 2 +119 5 *
Fa
0  0.000000100000000 1 2

0101000
+118 0 *
Ve
0.001000000000000
-18.300000000000001 -19.000000000000000 0.000000000000000
0 0

0101101
*
Ve
0.001000000000000
-18.300000000000001 -19.000000000000000 1596.000000000000000
0 0

0101101
*
Ed
 0.001000000000000 1 1 0
1  5 0 0.000000000000000 1596.000000000000000
2  10 2 0 0.000000000000000 1596.000000000000000
2  11 7 0 0.000000000000000 1596.000000000000000
0

0101000
+116 3 -115 3 *
Ed
 0.001000000000000 1 1 0
1  6 0 0.000000000000000 15.000000000000000
2  12 2 0 0.000000000000000 15.000000000000000
2  13 8 0 0.000000000000000 15.000000000000000
0

0101000
+116 3 -126 3 *
Ed
 0.001000000000000 1 1 0
1  7 0 0.000000000000000 15.000000000000000
2  14 2 6 0.000000000000000 15.000000000000000
2  15 9 6 0.000000000000000 15.000000000000000
0

0101000
+115 7 -125 7 *
Wi

0101100
+114 0 -124 0 -113 0 +112 4 *
Fa
0  0.001000000000000 2 0

0101000
+111 0 *
Ve
0.001000000000002
-14.300000000000002 -2.000000000000000 0.000000000000000
0 0

0101101
*
Ed
 0.001000000000000 1 1 0
1  8 0 0.000000000000000 1.000000000000000
2  16 10 0 0.000000000000000 1.000000000000000
2  17 5 0 0.000000000000000 1.000000000000000
2  18 4 3 0.000000000000000 1.000000000000000
0

0101000
+123 3 -109 3 *
Ve
0.001000000000000
-16.300000000000001 -4.000000000000000 0.000000000000000
0 0

0101101
*
Ed
 0.000000100000000 1 1 0
1  9 0 4.712388980384690 6.283185307179586
2  19 5 0 4.712388980384690 6.283185307179586
2  20 11 0 4.712388980384690 6.283185307179586
0

0101000
+107 3 -109 3 *
Ed
 0.000000100000000 1 1 0
1  10 0 0.000000000000000 1.000000000000000
2  21 5 0 0.000000000000000 1.000000000000000
2  22 8 0 0.000000000000000 1.000000000000000
0

0101000
+126 3 -107 3 *
Wi

0101100
+120 2 +108 2 -106 2 -105 2 *
Fa
0  0.000000100000000 5 2

0101000
+104 0 *
Ve
0.001000000000000
18.300000000000008 -4.000000000000000 0.000000000000000
0 0

0101101
*
Ve
0.001000000000000
18.300000000000008 -4.000000000000000 1596.000000000000000
0 0

0101101
*
Ed
 0.001000000000000 1 1 0
1  11 0 0.000000000000000 1596.000000000000000
2  23 12 0 0.000000000000000 1596.000000000000000
2  24 13 0 0.000000000000000 1596.000000000000000
4 G1 12 0 13 0
0

0101000
+102 3 -101 3 *
Ve
0.001000000000000
18.300000000000008 -19.000000000000000 0.000000000000000
0 0

0101101
*
Ve
0.001000000000000
18.300000000000008 -19.000000000000000 1596.000000000000000
0 0

0101101
*
Ed
 0.001000000000000 1 1 0
1  12 0 0.000000000000000 1596.000000000000000
2  25 12 0 0.000000000000000 1596.000000000000000
2  26 14 0 0.000000000000000 1596.000000000000000
0

0101000
+99 3 -98 3 *
Ed
 0.001000000000000 1 1 0
1  13 0 4.000000000000000 19.000000000000000
2  27 12 0 4.000000000000000 19.000000000000000
2  28 15 0 4.000000000000000 19.000000000000000
0

0101000
+102 3 -99 3 *
Ed
 0.001000000000000 1 1 0
1  14 0 4.000000000000000 19.000000000000000
2  29 12 6 4.000000000000000 19.000000000000000
2  30 16 6 4.000000000000000 19.000000000000000
0

0101000
+101 7 -98 7 *
Wi

0101100
+100 0 -97 0 -96 0 +95 4 *
Fa
0  0.001000000000000 12 0

0101000
+94 0 *
Ve
0.001000000000000
14.300000000000008 0.000000000000000 0.000000000000000
0 0

0101101
*
Ve
0.001000000000005
14.300000000000006 0.000000000000000 1596.000000000000000
0 0

0101101
*
Ed
 0.001000000000000 1 1 0
1  15 0 0.000000000000000 1596.000000000000000
2  31 13 0 0.000000000000000 1596.000000000000000
2  32 3 0 0.000000000000000 1596.000000000000000
4 G1 13 0 3 0
2  33 17 3 0.000000000000000 1596.000000000000000
0

0101000
+92 3 -91 3 *
Ed
 0.000000100000000 1 1 0
1  16 0 0.000000000000000 1.570796326794897
2  34 13 0 0.000000000000000 1.570796326794897
2  35 18 0 0.000000000000000 1.570796326794897
0

0101000
+92 3 -102 3 *
Ed
 0.000000100000000 1 1 0
1  17 0 0.000000000000000 1.570796326794897
2  36 13 6 0.000000000000000 1.570796326794897
2  37 19 6 0.000000000000000 1.570796326794897
0

0101000
+91 7 -101 7 *
Wi

0101100
+90 2 -100 2 -89 2 +88 5 *
Fa
0  0.000000100000000 13 2

0101000
+87 0 *
Ve
0.001000000000000
16.300000000000008 -19.000000000000000 1596.000000000000000
0 0

0101101
*
Ed
 0.000000100000000 1 1 0
1  18 0 0.000000000000000 1.000000000000000
2  38 14 0 0.000000000000000 1.000000000000000
2  39 16 0 0.000000000000000 1.000000000000000
0

0101000
+98 3 -85 3 *
Ve
0.001000000000000
16.300000000000008 -19.000000000000000 0.000000000000000
0 0

0101101
*
Ed
 0.001000000000000 1 1 0
1  19 0 0.000000000000000 1596.000000000000000
2  40 14 0 0.000000000000000 1596.000000000000000
2  41 20 0 0.000000000000000 1596.000000000000000
0

0101000
+83 3 -85 3 *
Ed
 0.000000100000000 1 1 0
1  20 0 0.000000000000000 1.000000000000000
2  42 14 0 0.000000000000000 1.000000000000000
2  43 15 0 0.000000000000000 1.000000000000000
0

0101000
+99 3 -83 3 *
Wi

0101000
+97 0 +84 0 -82 0 -81 0 *
Fa
0  0.000000100000000 14 0

0101000
+80 0 *
Ve
0.001000000000000
16.300000000000008 -4.000000000000000 0.000000000000000
0 0

0101101
*
Ed
 0.001000000000000 1 1 0
1  21 0 4.000000000000000 19.000000000000000
2  44 15 0 4.000000000000000 19.000000000000000
2  45 20 0 4.000000000000000 19.000000000000000
0

0101000
+78 3 -83 3 *
Ed
 0.000000100000000 1 1 0
1  22 0 0.000000000000000 1.000000000000000
2  46 15 0 0.000000000000000 1.000000000000000
2  47 18 0 0.000000000000000 1.000000000000000
0

0101000
+102 3 -78 3 *
Wi

0101100
+96 0 +81 0 -77 0 -76 0 *
Fa
0  0.000000100000000 15 0

0101000
+75 0 *
Ve
0.001000000000000
16.300000000000008 -4.000000000000000 1596.000000000000000
0 0

0101101
*
Ed
 0.000000100000000 1 1 0
1  23 0 0.000000000000000 1.000000000000000
2  48 16 0 0.000000000000000 1.000000000000000
2  49 19 0 0.000000000000000 1.000000000000000
0

0101000
+101 3 -73 3 *
Ed
 0.001000000000000 1 1 0
1  24 0 4.000000000000000 19.000000000000000
2  50 16 0 4.000000000000000 19.000000000000000
2  51 20 0 4.000000000000000 19.000000000000000
0

0101000
+73 3 -85 3 *
Wi

0101100
-95 4 +72 0 +71 0 -84 0 *
Fa
0  0.000000100000000 16 0

0101000
+70 0 *
Ve
0.001000000000002
14.300000000000006 -2.000000000000000 0.000000000000000
0 0

0101101
*
Ed
 0.000000100000000 1 1 0
1  25 0 0.000000000000000 1.570796326794897
2  52 18 0 0.000000000000000 1.570796326794897
2  53 21 0 0.000000000000000 1.570796326794897
0

0101000
+68 3 -78 3 *
Ed
 0.001000000000000 1 1 0
1  26 0 0.000000000000000 1.000000000000000
2  54 18 0 0.000000000000000 1.000000000000000
2  55 10 0 0.000000000000000 1.000000000000000
2  56 17 3 0.000000000000000 1.000000000000000
0

0101000
+92 3 -68 3 *
Wi

0101100
+89 2 +76 2 -67 2 -66 2 *
Fa
0  0.000000100000000 18 2

0101000
+65 0 *
Ve
0.001000000000004
14.300000000000006 -2.000000000000000 1596.000000000000000
0 0

0101101
*
Ed
 0.001000000000004 1 1 0
1  27 0 0.000000000000000 1.000000000000000
2  57 19 0 0.000000000000000 1.000000000000000
2  58 22 0 0.000000000000000 1.000000000000000
2  59 17 3 0.000000000000000 1.000000000000000
0

0101000
+91 3 -63 3 *
Ed
 0.000000100000000 1 1 0
1  28 0 0.000000000000000 1.570796326794897
2  60 19 0 0.000000000000000 1.570796326794897
2  61 21 0 0.000000000000000 1.570796326794897
0

0101000
+63 3 -73 3 *
Wi

0101100
-88 5 +62 2 +61 2 -72 2 *
Fa
0  0.000000100000000 19 2

0101000
+60 0 *
Ed
 0.001000000000000 1 1 0
1  29 0 0.000000000000000 1596.000000000000000
2  62 20 0 0.000000000000000 1596.000000000000000
2  63 21 0 0.000000000000000 1596.000000000000000
0

0101000
+78 3 -73 3 *
Wi

0101100
+58 0 -82 0 -77 0 +71 0 *
Fa
0  0.001000000000000 20 0

0101000
+57 0 *
Ed
 0.001000000000000 1 1 0
1  30 0 4.000000000000000 32.600000000000009
2  64 3 0 4.000000000000000 32.600000000000009
2  65 10 0 4.000000000000000 32.600000000000009
0

0101000
+123 3 -92 3 *
Ed
 0.001000000000000 1 1 0
1  31 0 4.000000000000000 32.600000000000009
2  66 10 0 4.000000000000000 32.600000000000009
2  67 23 0 4.000000000000000 32.600000000000009
0

0101000
+109 3 -68 3 *
Wi

0101100
+55 2 +66 2 -54 2 -108 2 *
Fa
0  0.000000100000000 10 2

0101000
+53 0 *
Ed
 0.001000000000000 1 1 0
1  32 0 0.000000000000000 1596.000000000000000
2  68 21 0 0.000000000000000 1596.000000000000000
2  69 23 0 0.000000000000000 1596.000000000000000
2  70 17 3 0.000000000000000 1596.000000000000000
0

0101000
+68 3 -63 3 *
Wi

0101100
+51 2 -58 2 -67 2 +61 2 *
Fa
0  0.000000100000000 21 2

0101000
+50 0 *
Ve
0.001000000000000
14.300000000000008 0.000000000000000 1676.000000000000000
0 0

0101101
*
Ed
 0.000000100000000 1 1 0
1  33 0 0.000000000000000 2.000000000000000
2  71 24 0 0.000000000000000 2.000000000000000
0

0101000
+48 0 -48 8 *
Ed
 0.001000000000000 1 1 0
1  34 0 0.000000000000000 80.000000000000000
2  72 24 0 0.000000000000000 80.000000000000000
2  73 24 9 0.000000000000000 80.000000000000000
2  74 25 0 0.000000000000000 80.000000000000000
0

0101000
+48 0 -91 0 *
Ed
 0.001000000000000 1 1 0
1  34 0 0.000000000000000 80.000000000000000
2  72 24 0 0.000000000000000 80.000000000000000
2  73 24 9 0.000000000000000 80.000000000000000
2  74 25 0 0.000000000000000 80.000000000000000
0

0101000
+48 0 -63 9 *
Wi

0101100
+47 0 -62 2 -46 0 +45 8 *
Fa
0  0.000000100000000 24 0

0101000
+44 0 *
Ve
0.001000000000000
-16.300000000000001 -4.000000000000000 1596.000000000000000
0 0

0101101
*
Ed
 0.000000100000002 1 1 0
1  35 0 0.000000000000000 1.000000000000000
2  75 6 0 0.000000000000000 1.000000000000000
2  76 9 0 0.000000000000000 1.000000000000000
0

0101000
+125 3 -42 3 *
Ve
0.001000000000002
-14.300000000000002 -2.000000000000000 1596.000000000000000
0 0

0101101
*
Ed
 0.000000100000000 1 1 0
1  36 0 4.712388980384690 6.283185307179586
2  77 6 0 4.712388980384690 6.283185307179586
2  78 11 0 4.712388980384690 6.283185307179586
0

0101000
+42 3 -40 3 *
Ed
 0.001000000000000 1 1 0
1  37 0 0.000000000000000 1.000000000000000
2  79 22 0 0.000000000000000 1.000000000000000
2  80 6 0 0.000000000000000 1.000000000000000
2  81 4 3 0.000000000000000 1.000000000000000
0

0101000
+122 3 -40 3 *
Wi

0101100
-119 5 +41 2 +39 2 -38 2 *
Fa
0  0.000000100000000 6 2

0101000
+37 0 *
Ve
0.001000000000000
-14.300000000000001 0.000000000000000 1676.000000000000000
0 0

0101101
*
Ed
 0.000000100000000 1 1 0
1  38 0 0.000000000000000 2.000000000000000
2  82 26 0 0.000000000000000 2.000000000000000
0

0101000
+35 0 -35 8 *
Ed
 0.001000000000000 1 1 0
1  39 0 0.000000000000000 80.000000000000000
2  83 26 0 0.000000000000000 80.000000000000000
2  84 26 9 0.000000000000000 80.000000000000000
2  85 25 0 0.000000000000000 80.000000000000000
0

0101000
+122 0 -35 0 *
Ed
 0.001000000000000 1 1 0
1  39 0 0.000000000000000 80.000000000000000
2  83 26 0 0.000000000000000 80.000000000000000
2  84 26 9 0.000000000000000 80.000000000000000
2  85 25 0 0.000000000000000 80.000000000000000
0

0101000
+40 9 -35 0 *
Wi

0101100
+38 2 -34 0 -33 0 +32 8 *
Fa
0  0.000000100000000 26 0

0101000
+31 0 *
Ed
 0.001000000000000 1 1 0
1  40 0 0.000000000000000 28.600000000000009
2  86 25 0 0.000000000000000 28.600000000000009
0

0101000
+35 0 -48 0 *
Wi

0101100
+34 0 -47 0 -29 0 +29 8 *
Fa
0  0.000000100000000 27 0

0101000
+28 0 *
Ve
0.001000000000000
-16.300000000000001 -19.000000000000000 0.000000000000000
0 0

0101101
*
Ed
 0.000000100000000 1 1 0
1  41 0 0.000000000000000 1.000000000000000
2  87 7 0 0.000000000000000 1.000000000000000
2  88 8 0 0.000000000000000 1.000000000000000
0

0101000
+116 3 -26 3 *
Ve
0.001000000000000
-16.300000000000001 -19.000000000000000 1596.000000000000000
0 0

0101101
*
Ed
 0.001000000000000 1 1 0
1  42 0 0.000000000000000 1596.000000000000000
2  89 7 0 0.000000000000000 1596.000000000000000
2  90 28 0 0.000000000000000 1596.000000000000000
0

0101000
+26 3 -24 3 *
Ed
 0.000000100000000 1 1 0
1  43 0 0.000000000000000 1.000000000000000
2  91 7 0 0.000000000000000 1.000000000000000
2  92 9 0 0.000000000000000 1.000000000000000
0

0101000
+115 3 -24 3 *
Wi

0101000
-114 0 +25 0 +23 0 -22 0 *
Fa
0  0.000000100000000 7 0

0101000
+21 0 *
Ed
 0.001000000000000 1 1 0
1  44 0 0.000000000000000 15.000000000000000
2  93 8 0 0.000000000000000 15.000000000000000
2  94 28 0 0.000000000000000 15.000000000000000
0

0101000
+26 3 -107 3 *
Wi

0101100
+113 0 +105 0 -19 0 -25 0 *
Fa
0  0.000000100000000 8 0

0101000
+18 0 *
Ed
 0.001000000000000 1 1 0
1  45 0 0.000000000000000 15.000000000000000
2  95 9 0 0.000000000000000 15.000000000000000
2  96 28 0 0.000000000000000 15.000000000000000
0

0101000
+24 3 -42 3 *
Wi

0101100
-112 4 +22 0 +16 0 -41 0 *
Fa
0  0.000000100000000 9 0

0101000
+15 0 *
Ed
 0.001000000000000 1 1 0
1  46 0 0.000000000000000 1596.000000000000000
2  97 11 0 0.000000000000000 1596.000000000000000
2  98 28 0 0.000000000000000 1596.000000000000000
0

0101000
+107 3 -42 3 *
Ed
 0.001000000000000 1 1 0
1  47 0 0.000000000000000 1596.000000000000000
2  99 23 0 0.000000000000000 1596.000000000000000
2  100 11 0 0.000000000000000 1596.000000000000000
2  101 4 3 0.000000000000000 1596.000000000000000
0

0101000
+109 3 -40 3 *
Wi

0101100
+13 2 -12 2 -106 2 +39 2 *
Fa
0  0.000000100000000 11 2

0101000
+11 0 *
Wi

0101100
+23 0 -13 0 -19 0 +16 0 *
Fa
0  0.001000000000000 28 0

0101000
+9 0 *
Wi

0101100
+121 2 +33 0 +29 0 +46 0 -90 2 -55 2 *
Fa
0  0.001000000000000 29 0

0101000
+7 0 *
Wi

0101100
-12 2 +54 2 +51 2 -45 8 -29 8 -32 8 *
Fa
0  0.001000000000000 30 0

0101000
+5 0 *
Sh

0101100
+117 0 +110 2 +103 0 +93 2 +86 0 +79 2 +74 2 +69 2 +64 0 +59 0 
-56 2 +52 0 -49 0 +43 0 +36 0 +30 0 +27 0 +20 2 +17 2 +14 2 
-10 0 -8 2 +6 0 +4 0 *
So

0100000
+3 0 *
Co

1100000
+2 0 *

+1 1 