
CASCADE Topology V1, (c) Matra-Datavision
Locations 56
1
1.000000000000000 0.000000000000000 0.000000000000000 0.000000000000000 
0.000000000000000 1.000000000000000 0.000000000000000 0.000000000000000 
0.000000000000000 0.000000000000000 1.000000000000000 37.100000000000001 
1
1.000000000000000 0.000000000000000 0.000000000000000 0.000000000000000 
0.000000000000000 1.000000000000000 0.000000000000000 0.000000000000000 
0.000000000000000 0.000000000000000 1.000000000000000 0.000000000000000 
1
1.000000000000000 0.000000000000000 0.000000000000000 0.000000000000000 
0.000000000000000 1.000000000000000 0.000000000000000 0.000000000000000 
0.000000000000000 0.000000000000000 1.000000000000000 0.000000000000000 
2  2 1 3 -1 0
1
0.000000000000000 0.000000000000000 -1.000000000000000 -41.299999999999415 
0.000000000000000 1.000000000000000 0.000000000000000 0.000000000000000 
1.000000000000000 0.000000000000000 0.000000000000000 41.099999999999419 
1
0.000000000000000 0.000000000000000 -1.000000000000000 -41.299999999999415 
0.000000000000000 1.000000000000000 0.000000000000000 0.000000000000000 
1.000000000000000 0.000000000000000 0.000000000000000 41.099999999999419 
1
1.000000000000000 0.000000000000000 0.000000000000000 0.000000000000000 
0.000000000000000 1.000000000000000 0.000000000000000 0.000000000000000 
0.000000000000000 0.000000000000000 1.000000000000000 0.000000000000000 
2  7 -1 3 1 2 -1 6 -1 0
2  7 -1 3 1 2 -1 5 -1 0
1
1.000000000000000 0.000000000000000 0.000000000000000 0.000000000000000 
0.000000000000000 1.000000000000000 0.000000000000000 0.000000000000000 
0.000000000000000 0.000000000000000 1.000000000000000 -0.300000000000000 
2  10 1 5 1 0
2  7 -1 3 1 2 -1 5 -1 10 -1 0
2  7 -1 3 1 2 -1 0
1
1.000000000000000 0.000000000000000 0.000000000000000 0.000000000000000 
0.000000000000000 1.000000000000000 0.000000000000000 0.000000000000000 
0.000000000000000 0.000000000000000 1.000000000000000 0.000000000000000 
2  7 -1 3 1 2 -1 14 -1 0
2  5 1 2 1 3 -1 0
2  6 -1 0
1
1.000000000000000 0.000000000000000 0.000000000000000 0.000000000000000 
0.000000000000000 1.000000000000000 0.000000000000000 0.000000000000000 
0.000000000000000 0.000000000000000 1.000000000000000 0.000000000000000 
1
1.000000000000000 0.000000000000000 0.000000000000000 0.000000000000000 
0.000000000000000 1.000000000000000 0.000000000000000 0.000000000000000 
0.000000000000000 0.000000000000000 1.000000000000000 0.000000000000000 
1
1.000000000000000 0.000000000000000 0.000000000000000 0.000000000000000 
0.000000000000000 1.000000000000000 0.000000000000000 0.000000000000000 
0.000000000000000 0.000000000000000 1.000000000000000 0.000000000000000 
1
1.000000000000000 0.000000000000000 0.000000000000000 0.000000000000000 
0.000000000000000 1.000000000000000 0.000000000000000 0.000000000000000 
0.000000000000000 0.000000000000000 1.000000000000000 0.300000000000000 
2  18 1 19 1 20 -1 21 1 14 1 0
2  14 -1 21 -1 20 1 19 -1 18 -1 0
2  7 -1 3 1 2 -1 14 -1 21 -1 20 1 19 -1 18 -1 0
2  18 1 19 1 20 -1 14 1 0
2  14 -1 20 1 19 -1 18 -1 0
2  7 -1 3 1 2 -1 14 -1 20 1 19 -1 18 -1 0
2  20 -1 21 1 14 1 2 1 3 -1 0
2  18 1 19 1 20 -1 21 1 14 1 2 1 3 -1 0
2  21 -1 20 1 19 -1 18 -1 0
1
1.000000000000000 0.000000000000000 0.000000000000000 -22.299999999999713 
0.000000000000000 1.000000000000000 0.000000000000000 125.580297890654023 
0.000000000000000 0.000000000000000 1.000000000000000 -37.100000000000001 
2  7 -1 0
1
1.000000000000000 0.000000000000000 0.000000000000000 0.000000000000066 
0.000000000000000 1.000000000000000 0.000000000000000 129.871934891629593 
0.000000000000000 0.000000000000000 1.000000000000000 -37.100000000000001 
1
1.000000000000000 0.000000000000000 0.000000000000000 22.299999999999713 
0.000000000000000 1.000000000000000 0.000000000000000 125.580297890652631 
0.000000000000000 0.000000000000000 1.000000000000000 -37.100000000000001 
1
1.000000000000000 0.000000000000000 0.000000000000000 -14.866666666660789 
0.000000000000000 1.000000000000000 0.000000000000000 155.621756897464962 
0.000000000000000 0.000000000000000 1.000000000000000 -37.100000000000001 
1
1.000000000000000 0.000000000000000 0.000000000000000 14.866666666660791 
0.000000000000000 1.000000000000000 0.000000000000000 155.621756897465701 
0.000000000000000 0.000000000000000 1.000000000000000 -37.100000000000001 
2  20 -1 14 1 2 1 3 -1 0
2  18 1 19 1 20 -1 14 1 2 1 3 -1 0
2  20 1 19 -1 18 -1 0
2  14 1 2 1 3 -1 0
2  18 1 19 1 20 -1 0
2  18 1 19 1 20 -1 21 1 0
1
0.000000000000000 0.000000000000000 1.000000000000000 41.299999999999415 
0.000000000000000 1.000000000000000 0.000000000000000 0.000000000000000 
-1.000000000000000 0.000000000000000 0.000000000000000 41.099999999999419 
2  43 -1 0
2  7 -1 3 1 2 -1 43 -1 0
2  7 -1 31 -1 0
2  7 -1 33 -1 0
2  7 -1 34 -1 0
2  7 -1 35 -1 0
2  7 -1 36 -1 0
1
0.000000000000000 0.000000000000000 1.000000000000000 41.299999999999415 
0.000000000000000 1.000000000000000 0.000000000000000 0.000000000000000 
-1.000000000000000 0.000000000000000 0.000000000000000 41.099999999999419 
2  7 -1 3 1 2 -1 51 -1 0
1
1.000000000000000 0.000000000000000 0.000000000000000 0.000000000000000 
0.000000000000000 1.000000000000000 0.000000000000000 0.000000000000000 
0.000000000000000 0.000000000000000 1.000000000000000 -0.300000000000000 
2  53 1 51 1 0
2  7 -1 3 1 2 -1 51 -1 53 -1 0
2  51 1 2 1 3 -1 0
Curve2ds 36
1 0.00000000000000000 32.04145900681201908 1.00000000000000000 0.00000000000000000 
1 0.00000000000000000 0.00000000000000000 1.00000000000000000 0.00000000000000000 
1 1.57079632679489656 0.00000000000000000 0.00000000000000000 1.00000000000000000 
1 1.57079632679489656 0.00000000000000000 0.00000000000000000 1.00000000000000000 
1 0.00000000000000000 0.00000000000000000 1.00000000000000000 0.00000000000000000 
1 0.00000000000000000 32.04145900681201908 -0.00000000000000000 -1.00000000000000000 
1 0.00000000000000000 32.04145900681201908 1.00000000000000000 0.00000000000000000 
1 0.00000000000000000 0.00000000000000000 0.00000000000000000 1.00000000000000000 
1 1.87402178629321936 0.00000000000000000 0.00000000000000000 -1.00000000000000000 
1 0.00000000000000000 32.04145900681201908 -0.00000000000000000 -1.00000000000000000 
1 0.00000000000000000 -0.29999999999999999 1.00000000000000000 0.00000000000000000 
1 0.00000000000000000 -0.29999999999999999 1.00000000000000000 0.00000000000000000 
1 6.28318530717958623 37.39999999999999858 -1.00000000000000000 0.00000000000000000 
1 6.28318530717958623 37.39999999999999858 -1.00000000000000000 0.00000000000000000 
1 6.28318530717958623 37.39999999999999858 -1.00000000000000000 0.00000000000000000 
1 6.28318530717958623 37.39999999999999858 -1.00000000000000000 0.00000000000000000 
1 6.28318530717958623 37.39999999999999858 -1.00000000000000000 0.00000000000000000 
1 0.00000000000000000 0.00000000000000000 0.00000000000000000 1.00000000000000000 
1 0.00000000000000000 0.00000000000000000 1.00000000000000000 0.00000000000000000 
1 0.00000000000000000 0.00000000000000000 1.00000000000000000 0.00000000000000000 
1 6.28318530717958623 37.10000000000000142 -1.00000000000000000 0.00000000000000000 
1 6.28318530717958623 37.10000000000000142 -1.00000000000000000 0.00000000000000000 
1 6.28318530717958623 37.10000000000000142 -1.00000000000000000 0.00000000000000000 
1 6.28318530717958623 37.10000000000000142 -1.00000000000000000 0.00000000000000000 
1 6.28318530717958623 37.10000000000000142 -1.00000000000000000 0.00000000000000000 
1 1.57079632679489656 0.00000000000000000 0.00000000000000000 -1.00000000000000000 
1 0.00000000000000000 0.00000000000000000 1.00000000000000000 0.00000000000000000 
1 0.00000000000000000 32.04145900681201908 1.00000000000000000 0.00000000000000000 
1 1.57079632679489656 0.00000000000000000 0.00000000000000000 1.00000000000000000 
1 1.26757086729656221 0.00000000000000000 0.00000000000000000 -1.00000000000000000 
1 1.57079632679489656 0.00000000000000000 0.00000000000000000 -1.00000000000000000 
1 6.28318530717958623 0.00000000000000000 0.00000000000000000 1.00000000000000000 
1 0.00000000000000000 0.00000000000000000 0.00000000000000000 1.00000000000000000 
1 0.00000000000000000 0.00000000000000000 1.00000000000000000 0.00000000000000000 
1 0.00000000000000000 32.04145900681201908 1.00000000000000000 0.00000000000000000 
1 1.57079632679489656 0.00000000000000000 0.00000000000000000 1.00000000000000000 
Curves 71
1 -41.19999999999942020 152.62175689746464968 0.29999999999999999 0.00000000000000000 0.00000000000000000 -1.00000000000000000 
1 -72.19999999999942020 152.62175689746464968 0.29999999999999999 0.00000000000000000 0.00000000000000000 -1.00000000000000000 
1 -41.19999999999942020 152.62175689746464968 0.29999999999999999 -1.00000000000000000 0.00000000000000000 0.00000000000000000 
1 -41.19999999999942020 152.62175689746464968 0.29999999999999999 -1.00000000000000000 0.00000000000000000 0.00000000000000000 
2 -41.19999999999942020 152.62175689746464968 -0.10000000000000003 0.00000000000000000 -1.00000000000000000 0.00000000000000000 0.00000000000000000 0.00000000000000000 1.00000000000000000 -1.00000000000000000 0.00000000000000000 0.00000000000000000 0.40000000000000002
2 -41.19999999999942020 152.62175689746464968 -0.10000000000000003 0.00000000000000000 -1.00000000000000000 0.00000000000000000 0.00000000000000000 0.00000000000000000 1.00000000000000000 -1.00000000000000000 0.00000000000000000 0.00000000000000000 0.10000000000000003
1 -41.19999999999942020 152.62175689746464968 0.00000000000000000 0.00000000000000000 0.00000000000000000 1.00000000000000000 
1 -72.19999999999942020 120.58029789065263060 0.29999999999999999 0.00000000000000000 0.00000000000000000 -1.00000000000000000 
1 -72.19999999999942020 152.62175689746464968 0.29999999999999999 0.00000000000000000 -1.00000000000000000 0.00000000000000000 
1 -72.19999999999942020 152.62175689746464968 0.29999999999999999 0.00000000000000000 -1.00000000000000000 0.00000000000000000 
1 -41.19999999999942020 120.58029789065263060 0.29999999999999999 0.00000000000000000 1.00000000000000000 0.00000000000000000 
1 -72.19999999999942020 120.58029789065263060 0.29999999999999999 1.00000000000000000 0.00000000000000000 0.00000000000000000 
1 -41.19999999999942020 152.62175689746464968 0.00000000000000000 0.00000000000000000 -1.00000000000000000 0.00000000000000000 
1 -72.19999999999942020 120.58029789065263060 0.29999999999999999 1.00000000000000000 0.00000000000000000 0.00000000000000000 
2 -41.19999999999942020 120.58029789065263060 -0.10000000000000003 0.00000000000000000 -1.00000000000000000 0.00000000000000000 0.00000000000000000 0.00000000000000000 1.00000000000000000 -1.00000000000000000 0.00000000000000000 0.00000000000000000 0.40000000000000002
1 -41.19999999999942020 152.62175689746464968 0.00000000000000000 0.00000000000000000 -1.00000000000000000 0.00000000000000000 
2 -41.19999999999942020 120.58029789065263060 -0.10000000000000003 0.00000000000000000 -1.00000000000000000 0.00000000000000000 0.00000000000000000 0.00000000000000000 1.00000000000000000 -1.00000000000000000 0.00000000000000000 0.00000000000000000 0.10000000000000003
1 -41.19999999999942020 152.62175689746464968 0.00000000000000000 0.00000000000000000 -1.00000000000000000 0.00000000000000000 
1 -16.35966698284723009 160.39364856177107299 0.00000000000000000 0.00000000000000000 0.00000000000000000 1.00000000000000000 
1 -16.35966698284723009 160.39364856177107299 0.00000000000000000 -0.95437833286106821 -0.29860006323731458 0.00000000000000000 
1 -16.35966698284723009 160.39364856177107299 0.00000000000000000 -0.95437833286106821 -0.29860006323731458 0.00000000000000000 
1 -41.19999999999942020 120.58029789065263060 0.00000000000000000 0.00000000000000000 0.00000000000000000 1.00000000000000000 
1 -41.19999999999942020 120.58029789065263060 0.00000000000000000 0.00000000000000000 0.00000000000000000 1.00000000000000000 
1 -41.19999999999942020 120.58029789065263060 0.00000000000000000 1.00000000000000000 0.00000000000000000 0.00000000000000000 
1 41.19999999999942020 120.58029789065263060 0.00000000000000000 0.00000000000000000 1.00000000000000000 0.00000000000000000 
1 41.19999999999942020 152.62175689746464968 0.00000000000000000 -0.95437833286106810 0.29860006323731497 0.00000000000000000 
2 -14.86666666666071812 155.62175689746570129 0.00000000000000000 0.00000000000000000 0.00000000000000000 1.00000000000000000 1.00000000000000000 0.00000000000000000 0.00000000000000000 0.00000000000000000 1.00000000000000000 0.00000000000000000 5.00000000000000000
2 14.86666666666079095 155.62175689746570129 0.00000000000000000 0.00000000000000000 0.00000000000000000 1.00000000000000000 1.00000000000000000 0.00000000000000000 0.00000000000000000 0.00000000000000000 1.00000000000000000 0.00000000000000000 5.00000000000000000
1 14.86666666666079095 160.62175689746570129 0.00000000000000000 -1.00000000000000000 0.00000000000000000 0.00000000000000000 
2 -22.29999999999971294 125.58029789065402326 0.29999999999999716 0.00000000000000000 0.00000000000000000 1.00000000000000000 -1.00000000000000000 0.00000000000000000 0.00000000000000000 0.00000000000000000 -1.00000000000000000 0.00000000000000000 1.69999999999999996
2 0.00000000000006590 129.87193489162959281 0.29999999999999716 0.00000000000000000 0.00000000000000000 1.00000000000000000 -1.00000000000000000 0.00000000000000000 0.00000000000000000 0.00000000000000000 -1.00000000000000000 0.00000000000000000 1.69999999999999996
2 22.29999999999971294 125.58029789065263060 0.29999999999999716 0.00000000000000000 0.00000000000000000 1.00000000000000000 -1.00000000000000000 0.00000000000000000 0.00000000000000000 0.00000000000000000 -1.00000000000000000 0.00000000000000000 1.69999999999999996
2 -14.86666666666078918 155.62175689746496232 0.29999999999999716 0.00000000000000000 0.00000000000000000 1.00000000000000000 -1.00000000000000000 0.00000000000000000 0.00000000000000000 0.00000000000000000 -1.00000000000000000 0.00000000000000000 1.69999999999999996
2 14.86666666666079095 155.62175689746570129 0.29999999999999716 0.00000000000000000 0.00000000000000000 1.00000000000000000 -1.00000000000000000 0.00000000000000000 0.00000000000000000 0.00000000000000000 -1.00000000000000000 0.00000000000000000 1.69999999999999996
1 -41.19999999999942020 120.58029789065263060 0.00000000000000000 1.00000000000000000 0.00000000000000000 0.00000000000000000 
1 41.19999999999942020 120.58029789065263060 0.00000000000000000 0.00000000000000000 1.00000000000000000 0.00000000000000000 
1 41.19999999999942020 152.62175689746464968 0.00000000000000000 -0.95437833286106810 0.29860006323731497 0.00000000000000000 
2 -14.86666666666071812 155.62175689746570129 0.00000000000000000 0.00000000000000000 0.00000000000000000 1.00000000000000000 1.00000000000000000 0.00000000000000000 0.00000000000000000 0.00000000000000000 1.00000000000000000 0.00000000000000000 5.00000000000000000
2 14.86666666666079095 155.62175689746570129 0.00000000000000000 0.00000000000000000 0.00000000000000000 1.00000000000000000 1.00000000000000000 0.00000000000000000 0.00000000000000000 0.00000000000000000 1.00000000000000000 0.00000000000000000 5.00000000000000000
1 14.86666666666079095 160.62175689746570129 0.00000000000000000 -1.00000000000000000 0.00000000000000000 0.00000000000000000 
2 -22.29999999999971294 125.58029789065402326 0.00000000000000000 0.00000000000000000 0.00000000000000000 1.00000000000000000 -1.00000000000000000 0.00000000000000000 0.00000000000000000 0.00000000000000000 -1.00000000000000000 0.00000000000000000 1.69999999999999996
2 0.00000000000006590 129.87193489162959281 0.00000000000000000 0.00000000000000000 0.00000000000000000 1.00000000000000000 -1.00000000000000000 0.00000000000000000 0.00000000000000000 0.00000000000000000 -1.00000000000000000 0.00000000000000000 1.69999999999999996
2 22.29999999999971294 125.58029789065263060 0.00000000000000000 0.00000000000000000 0.00000000000000000 1.00000000000000000 -1.00000000000000000 0.00000000000000000 0.00000000000000000 0.00000000000000000 -1.00000000000000000 0.00000000000000000 1.69999999999999996
2 -14.86666666666078918 155.62175689746496232 0.00000000000000000 0.00000000000000000 0.00000000000000000 1.00000000000000000 -1.00000000000000000 0.00000000000000000 0.00000000000000000 0.00000000000000000 -1.00000000000000000 0.00000000000000000 1.69999999999999996
2 14.86666666666079095 155.62175689746570129 0.00000000000000000 0.00000000000000000 0.00000000000000000 1.00000000000000000 -1.00000000000000000 0.00000000000000000 0.00000000000000000 0.00000000000000000 -1.00000000000000000 0.00000000000000000 1.69999999999999996
1 -14.86666666666071990 160.62175689746570129 0.00000000000000000 0.00000000000000000 0.00000000000000000 1.00000000000000000 
1 41.19999999999942020 120.58029789065263060 0.00000000000000000 0.00000000000000000 0.00000000000000000 1.00000000000000000 
2 41.19999999999942020 152.62175689746464968 -0.10000000000000003 0.00000000000000000 1.00000000000000000 0.00000000000000000 0.00000000000000000 0.00000000000000000 1.00000000000000000 1.00000000000000000 0.00000000000000000 0.00000000000000000 0.40000000000000002
2 41.19999999999942020 120.58029789065263060 -0.10000000000000003 0.00000000000000000 1.00000000000000000 0.00000000000000000 0.00000000000000000 0.00000000000000000 1.00000000000000000 1.00000000000000000 0.00000000000000000 0.00000000000000000 0.40000000000000002
1 41.19999999999942020 152.62175689746464968 0.29999999999999999 0.00000000000000000 -1.00000000000000000 0.00000000000000000 
1 41.19999999999942020 152.62175689746464968 0.00000000000000000 0.00000000000000000 0.00000000000000000 1.00000000000000000 
1 16.35966698284735799 160.39364856177104457 0.00000000000000000 0.00000000000000000 0.00000000000000000 1.00000000000000000 
1 14.86666666666079095 160.62175689746570129 0.00000000000000000 0.00000000000000000 0.00000000000000000 1.00000000000000000 
1 -1.69999999999999996 0.00000000000000000 0.00000000000000000 0.00000000000000006 0.00000000000000000 1.00000000000000000 
1 -1.69999999999999996 0.00000000000000000 0.00000000000000000 0.00000000000000006 0.00000000000000000 1.00000000000000000 
1 -1.69999999999999996 0.00000000000000000 0.00000000000000000 0.00000000000000006 0.00000000000000000 1.00000000000000000 
1 -1.69999999999999996 0.00000000000000000 0.00000000000000000 0.00000000000000006 0.00000000000000000 1.00000000000000000 
1 -1.69999999999999996 0.00000000000000000 0.00000000000000000 0.00000000000000006 0.00000000000000000 1.00000000000000000 
2 41.19999999999942020 120.58029789065263060 -0.10000000000000003 0.00000000000000000 1.00000000000000000 0.00000000000000000 0.00000000000000000 0.00000000000000000 1.00000000000000000 1.00000000000000000 0.00000000000000000 0.00000000000000000 0.10000000000000003
2 41.19999999999942020 152.62175689746464968 -0.10000000000000003 0.00000000000000000 1.00000000000000000 0.00000000000000000 0.00000000000000000 0.00000000000000000 1.00000000000000000 1.00000000000000000 0.00000000000000000 0.00000000000000000 0.10000000000000003
1 41.19999999999942020 120.58029789065263060 0.00000000000000000 0.00000000000000000 1.00000000000000000 0.00000000000000000 
1 41.19999999999942020 120.58029789065263060 0.29999999999999999 0.00000000000000000 0.00000000000000000 -1.00000000000000000 
1 41.19999999999942020 152.62175689746464968 0.00000000000000000 0.00000000000000000 0.00000000000000000 1.00000000000000000 
1 41.19999999999942020 120.58029789065263060 0.29999999999999999 1.00000000000000000 0.00000000000000000 0.00000000000000000 
1 72.19999999999942020 120.58029789065263060 0.29999999999999999 0.00000000000000000 1.00000000000000000 0.00000000000000000 
1 72.19999999999942020 152.62175689746464968 0.29999999999999999 -1.00000000000000000 0.00000000000000000 0.00000000000000000 
1 41.19999999999942020 120.58029789065263060 0.29999999999999999 1.00000000000000000 0.00000000000000000 0.00000000000000000 
1 72.19999999999942020 120.58029789065263060 0.29999999999999999 0.00000000000000000 1.00000000000000000 0.00000000000000000 
1 72.19999999999942020 152.62175689746464968 0.29999999999999999 -1.00000000000000000 0.00000000000000000 0.00000000000000000 
1 72.19999999999942020 120.58029789065263060 0.29999999999999999 0.00000000000000000 0.00000000000000000 -1.00000000000000000 
1 72.19999999999942020 152.62175689746464968 0.29999999999999999 0.00000000000000000 0.00000000000000000 -1.00000000000000000 
Polygon3D 0
PolygonOnTriangulations 0
Surfaces 31
1 -41.19999999999942020 152.62175689746464968 0.29999999999999999 0.00000000000000000 1.00000000000000000 0.00000000000000000 -1.00000000000000000 0.00000000000000000 0.00000000000000000 0.00000000000000000 0.00000000000000000 1.00000000000000000 
1 -41.19999999999942020 152.62175689746464968 -0.10000000000000003 0.00000000000000000 -1.00000000000000000 0.00000000000000000 0.00000000000000000 0.00000000000000000 1.00000000000000000 -1.00000000000000000 0.00000000000000000 0.00000000000000000 
2 -41.19999999999942020 120.58029789065263060 -0.10000000000000003 0.00000000000000000 1.00000000000000000 0.00000000000000000 0.00000000000000000 0.00000000000000000 1.00000000000000000 -1.00000000000000000 0.00000000000000000 0.00000000000000000 0.40000000000000002
2 -41.19999999999942020 152.62175689746464968 -0.10000000000000003 0.00000000000000000 -1.00000000000000000 0.00000000000000000 0.00000000000000000 0.00000000000000000 1.00000000000000000 -1.00000000000000000 0.00000000000000000 0.00000000000000000 0.10000000000000003
1 -72.19999999999942020 152.62175689746464968 0.29999999999999999 -1.00000000000000000 -0.00000000000000000 -0.00000000000000000 0.00000000000000000 -1.00000000000000000 0.00000000000000000 0.00000000000000000 0.00000000000000000 1.00000000000000000 
1 -56.69999999999942730 136.60102739405866146 0.29999999999999999 0.00000000000000000 0.00000000000000000 1.00000000000000000 1.00000000000000000 0.00000000000000000 0.00000000000000000 0.00000000000000000 1.00000000000000000 0.00000000000000000 
1 -56.69999999999942730 136.60102739405866146 0.29999999999999999 0.00000000000000000 0.00000000000000000 1.00000000000000000 1.00000000000000000 0.00000000000000000 0.00000000000000000 0.00000000000000000 1.00000000000000000 0.00000000000000000 
1 -16.35966698284723009 160.39364856177107299 0.00000000000000000 0.29860006323731458 -0.95437833286106821 0.00000000000000000 -0.95437833286106821 -0.29860006323731458 0.00000000000000000 0.00000000000000000 0.00000000000000000 -1.00000000000000000 
2 -14.86666666666071812 155.62175689746570129 0.00000000000000000 -0.00000000000000000 -0.00000000000000000 -1.00000000000000000 1.00000000000000000 0.00000000000000000 0.00000000000000000 0.00000000000000000 1.00000000000000000 0.00000000000000000 5.00000000000000000
1 -72.19999999999942020 120.58029789065263060 0.29999999999999999 0.00000000000000000 -1.00000000000000000 0.00000000000000000 1.00000000000000000 0.00000000000000000 0.00000000000000000 0.00000000000000000 0.00000000000000000 1.00000000000000000 
1 -41.19999999999942020 120.58029789065263060 -0.10000000000000003 0.00000000000000000 -1.00000000000000000 0.00000000000000000 -0.00000000000000000 -0.00000000000000000 -1.00000000000000000 -1.00000000000000000 0.00000000000000000 0.00000000000000000 
1 -0.00000000000000393 138.77533274331938173 0.00000000000000000 0.00000000000000000 0.00000000000000000 1.00000000000000000 1.00000000000000000 0.00000000000000000 0.00000000000000000 0.00000000000000000 1.00000000000000000 0.00000000000000000 
2 41.19999999999942020 152.62175689746464968 -0.10000000000000003 -0.00000000000000000 -1.00000000000000000 -0.00000000000000000 0.00000000000000000 0.00000000000000000 1.00000000000000000 1.00000000000000000 0.00000000000000000 0.00000000000000000 0.40000000000000002
2 14.86666666666079095 155.62175689746570129 0.00000000000000000 -0.00000000000000000 -0.00000000000000000 -1.00000000000000000 1.00000000000000000 0.00000000000000000 0.00000000000000000 0.00000000000000000 1.00000000000000000 0.00000000000000000 5.00000000000000000
2 0.00000000000000000 0.00000000000000000 0.00000000000000000 0.00000000000000000 0.00000000000000000 1.00000000000000000 -1.00000000000000000 0.00000000000000000 0.00000000000000000 -0.00000000000000000 1.00000000000000000 -0.00000000000000000 1.69999999999999996
2 0.00000000000000000 0.00000000000000000 0.00000000000000000 0.00000000000000000 0.00000000000000000 1.00000000000000000 -1.00000000000000000 0.00000000000000000 0.00000000000000000 -0.00000000000000000 1.00000000000000000 -0.00000000000000000 1.69999999999999996
2 0.00000000000000000 0.00000000000000000 0.00000000000000000 0.00000000000000000 0.00000000000000000 1.00000000000000000 -1.00000000000000000 0.00000000000000000 0.00000000000000000 -0.00000000000000000 1.00000000000000000 -0.00000000000000000 1.69999999999999996
2 0.00000000000000000 0.00000000000000000 0.00000000000000000 0.00000000000000000 0.00000000000000000 1.00000000000000000 -1.00000000000000000 0.00000000000000000 0.00000000000000000 -0.00000000000000000 1.00000000000000000 -0.00000000000000000 1.69999999999999996
2 0.00000000000000000 0.00000000000000000 0.00000000000000000 0.00000000000000000 0.00000000000000000 1.00000000000000000 -1.00000000000000000 0.00000000000000000 0.00000000000000000 -0.00000000000000000 1.00000000000000000 -0.00000000000000000 1.69999999999999996
1 -0.00000000000000393 138.77533274331938173 0.00000000000000000 0.00000000000000000 0.00000000000000000 1.00000000000000000 1.00000000000000000 0.00000000000000000 0.00000000000000000 0.00000000000000000 1.00000000000000000 0.00000000000000000 
2 41.19999999999942020 120.58029789065263060 -0.10000000000000003 0.00000000000000000 1.00000000000000000 0.00000000000000000 0.00000000000000000 0.00000000000000000 1.00000000000000000 1.00000000000000000 0.00000000000000000 0.00000000000000000 0.10000000000000003
1 14.86666666666079095 160.62175689746570129 0.00000000000000000 0.00000000000000000 -1.00000000000000000 0.00000000000000000 -1.00000000000000000 0.00000000000000000 0.00000000000000000 -0.00000000000000000 -0.00000000000000000 -1.00000000000000000 
1 -41.19999999999942020 120.58029789065263060 0.00000000000000000 0.00000000000000000 1.00000000000000000 0.00000000000000000 1.00000000000000000 0.00000000000000000 0.00000000000000000 0.00000000000000000 0.00000000000000000 -1.00000000000000000 
1 41.19999999999942020 152.62175689746464968 0.00000000000000000 -0.29860006323731497 -0.95437833286106810 0.00000000000000000 -0.95437833286106810 0.29860006323731497 0.00000000000000000 0.00000000000000000 0.00000000000000000 -1.00000000000000000 
1 41.19999999999942020 120.58029789065263060 -0.10000000000000003 0.00000000000000000 1.00000000000000000 0.00000000000000000 0.00000000000000000 0.00000000000000000 1.00000000000000000 1.00000000000000000 0.00000000000000000 0.00000000000000000 
1 41.19999999999942020 152.62175689746464968 -0.10000000000000003 0.00000000000000000 1.00000000000000000 0.00000000000000000 0.00000000000000000 0.00000000000000000 -1.00000000000000000 1.00000000000000000 0.00000000000000000 0.00000000000000000 
1 56.69999999999942730 136.60102739405866146 0.29999999999999999 0.00000000000000000 0.00000000000000000 1.00000000000000000 1.00000000000000000 0.00000000000000000 0.00000000000000000 0.00000000000000000 1.00000000000000000 0.00000000000000000 
1 56.69999999999942730 136.60102739405866146 0.29999999999999999 0.00000000000000000 0.00000000000000000 1.00000000000000000 1.00000000000000000 0.00000000000000000 0.00000000000000000 0.00000000000000000 1.00000000000000000 0.00000000000000000 
1 41.19999999999942020 120.58029789065263060 0.29999999999999999 0.00000000000000000 -1.00000000000000000 0.00000000000000000 1.00000000000000000 0.00000000000000000 0.00000000000000000 0.00000000000000000 0.00000000000000000 1.00000000000000000 
1 72.19999999999942020 152.62175689746464968 0.29999999999999999 0.00000000000000000 1.00000000000000000 0.00000000000000000 -1.00000000000000000 0.00000000000000000 0.00000000000000000 0.00000000000000000 0.00000000000000000 1.00000000000000000 
1 72.19999999999942020 120.58029789065263060 0.29999999999999999 1.00000000000000000 0.00000000000000000 0.00000000000000000 0.00000000000000000 1.00000000000000000 0.00000000000000000 0.00000000000000000 0.00000000000000000 1.00000000000000000 
Triangulations 0

TShapes 187
Ve
0.000000100000000
-41.599999999999419 152.621756897464650 -0.100000000000001
0 0

0101101
*
Ve
0.000000100000000
-41.299999999999422 152.621756897464650 -0.100000000000001
0 0

0101101
*
Ed
 0.000000100000000 1 1 0
1  1 0 0.000000000000000 0.300000000000000
0

0101000
+187 8 -186 8 *
Ve
0.000000100000000
-41.599999999999426 152.621756897464650 -31.100000000000001
0 0

0101101
*
Ve
0.000000100000000
-41.299999999999429 152.621756897464650 -31.100000000000001
0 0

0101101
*
Ed
 0.000000100000000 1 1 0
1  2 0 0.000000000000000 0.300000000000000
0

0101000
+184 9 -183 9 *
Ed
 0.000000100000000 1 1 0
1  3 0 0.000000000000000 31.000000000000000
0

0101000
+187 9 -184 9 *
Ed
 0.000000100000000 1 1 0
1  4 0 0.000000000000000 31.000000000000000
0

0101000
+186 12 -183 12 *
Wi

0101100
+185 6 -182 5 -181 5 +180 11 *
Fa
0  0.000000100000000 1 5

0101000
+179 0 *
Ve
0.000000100000000
-41.199999999999420 152.621756897464650 0.300000000000000
0 0

0101101
*
Ed
 0.000000100000000 1 1 0
1  5 0 0.000000000000000 1.570796326794897
2  1 3 0 0.000000000000000 1.570796326794897
0

0101000
+177 13 -187 13 *
Ve
0.000000100000000
-41.199999999999420 152.621756897464650 0.000000000000000
0 0

0101101
*
Ed
 0.000000100000000 1 1 0
1  6 0 0.000000000000000 1.570796326794897
2  2 4 0 0.000000000000000 1.570796326794897
0

0101000
+175 13 -186 13 *
Ed
 0.000000100000000 1 1 0
1  7 0 0.000000000000000 0.300000000000000
0

0101000
+175 15 -177 15 *
Wi

0101100
+176 0 -174 0 +173 14 +185 6 *
Fa
0  0.000000100000000 2 0

0101000
+172 0 *
Ve
0.000000100000000
-41.599999999999426 120.580297890652631 -31.100000000000001
0 0

0101101
*
Ve
0.000000100000000
-41.299999999999429 120.580297890652631 -31.100000000000001
0 0

0101101
*
Ed
 0.000000100000000 1 1 0
1  8 0 0.000000000000000 0.300000000000000
0

0101000
+170 9 -169 9 *
Ed
 0.000000100000000 1 1 0
1  9 0 0.000000000000000 32.041459006812019
0

0101000
+184 9 -170 9 *
Ed
 0.000000100000000 1 1 0
1  10 0 0.000000000000000 32.041459006812019
0

0101000
+183 12 -169 12 *
Wi

0101100
+182 0 -168 0 -167 0 +166 10 *
Fa
0  0.000000100000000 5 0

0101000
+165 0 *
Ve
0.000000100000000
-41.599999999999419 120.580297890652631 -0.100000000000001
0 0

0101101
*
Ed
 0.000000100000000 1 1 0
1  11 0 0.000000000000000 32.041459006812019
2  3 3 17 0.000000000000000 32.041459006812019
0

0101000
+163 8 -187 8 *
Ed
 0.000000100000000 1 1 0
1  12 0 0.000000000000000 31.000000000000000
0

0101000
+170 9 -163 9 *
Wi

0101100
+162 6 +181 5 +167 5 +161 5 *
Fa
0  0.000000100000000 6 5

0101000
+160 0 *
Ve
0.000000100000000
-41.299999999999422 120.580297890652631 -0.100000000000001
0 0

0101101
*
Ed
 0.000000100000000 1 1 0
1  13 0 0.000000000000000 32.041459006812019
2  4 4 17 0.000000000000000 32.041459006812019
0

0101000
+186 8 -158 8 *
Ed
 0.000000100000000 1 1 0
1  14 0 0.000000000000000 31.000000000000000
0

0101000
+169 12 -158 12 *
Wi

0101100
-157 6 +180 11 +166 11 +156 11 *
Fa
0  0.000000100000000 7 11

0101000
+155 0 *
Ve
0.000000100000000
-41.199999999999420 120.580297890652631 0.300000000000000
0 0

0101101
*
Ed
 0.000000100000000 1 1 0
1  15 0 0.000000000000000 1.570796326794897
2  5 3 0 0.000000000000000 1.570796326794897
0

0101000
+153 13 -163 13 *
Ed
 0.000000100000000 1 1 0
1  16 0 0.000000000000000 32.041459006812019
2  6 3 23 0.000000000000000 32.041459006812019
0

0101000
+177 24 -153 24 *
Wi

0101100
+152 0 -176 0 +151 22 +162 6 *
Fa
0  0.000000100000000 3 0

0101000
+150 0 *
Ve
0.000000100000000
-41.199999999999420 120.580297890652631 0.000000000000000
0 0

0101101
*
Ed
 0.000000100000000 1 1 0
1  17 0 0.000000000000000 1.570796326794897
2  7 4 0 0.000000000000000 1.570796326794897
0

0101000
+148 13 -158 13 *
Ed
 0.000000100000000 1 1 0
1  18 0 0.000000000000000 32.041459006812019
2  8 4 26 0.000000000000000 32.041459006812019
0

0101000
+175 27 -148 27 *
Wi

0101100
+174 0 -147 0 -146 25 +157 6 *
Fa
0  0.000000100000000 4 0

0101000
+145 0 *
Ve
0.000000100000000
-16.359666982847230 160.393648561771073 0.000000000000000
0 0

0101101
*
Ve
0.000000100000000
-16.359666982847230 160.393648561771073 0.300000000000000
0 0

0101101
*
Ed
 0.000000100000000 1 1 0
1  19 0 0.000000000000000 0.300000000000000
2  9 9 0 0.000000000000000 0.300000000000000
4 G1 8 0 9 0
0

0101000
+143 15 -142 15 *
Ed
 0.000000100000000 1 1 0
1  20 0 0.000000000000000 26.027762955058908
0

0101000
+143 27 -175 27 *
Ed
 0.000000100000000 1 1 0
1  21 0 0.000000000000000 26.027762955058908
0

0101000
+142 24 -177 24 *
Wi

0101100
+141 14 -173 14 -140 25 +139 22 *
Fa
0  0.000000100000000 8 14

0101000
+138 0 *
Ed
 0.000000100000000 1 1 0
1  22 0 0.000000000000000 0.300000000000000
0

0101000
+158 8 -163 8 *
Wi

0101100
+168 5 +136 6 -161 5 +156 11 *
Fa
0  0.000000100000000 10 5

0101000
+135 0 *
Ed
 0.000000100000000 1 1 0
1  23 0 0.000000000000000 0.300000000000000
0

0101000
+148 15 -153 15 *
Wi

0101100
+147 0 -152 0 -133 14 +136 6 *
Fa
0  0.000000100000000 11 0

0101000
+132 0 *
Ve
0.000000100000000
41.199999999999420 120.580297890652631 0.300000000000000
0 0

0101101
*
Ed
 0.000000100000000 1 1 0
1  24 0 0.000000000000000 82.399999999998840
0

0101000
+153 24 -130 24 *
Ve
0.000000100000000
41.199999999999420 152.621756897464650 0.300000000000000
0 0

0101101
*
Ed
 0.000000100000000 1 1 0
1  25 0 0.000000000000000 32.041459006812019
2  10 13 23 0.000000000000000 32.041459006812019
0

0101000
+130 24 -128 24 *
Ve
0.000000100000004
16.359666982847358 160.393648561771045 0.300000000000000
0 0

0101101
*
Ed
 0.000000100000000 1 1 0
1  26 0 0.000000000000000 26.027762955058776
0

0101000
+128 24 -126 24 *
Ve
0.000000100000001
-14.866666666660720 160.621756897465701 0.300000000000000
0 0

0101101
*
Ed
 0.000000100000000 1 1 0
1  27 0 1.570796326794897 1.874021786293219
2  11 9 30 1.570796326794897 1.874021786293219
0

0101000
+124 24 -142 24 *
Ve
0.000000100000000
14.866666666660791 160.621756897465701 0.300000000000000
0 0

0101101
*
Ed
 0.000000100000000 1 1 0
1  28 0 1.267570867296562 1.570796326794897
2  12 14 30 1.267570867296562 1.570796326794897
0

0101000
+126 24 -122 24 *
Ed
 0.000000100000000 1 1 0
1  29 0 0.000000000000000 29.733333333321511
0

0101000
+122 24 -124 24 *
Wi

0101100
+129 29 +151 29 +127 29 +139 29 +125 29 +123 29 +121 29 +120 29 *
Ve
0.000000100000004
-23.999999999999709 125.580297890654023 0.299999999999997
0 0

0101101
*
Ed
 0.000000100000000 1 1 0
1  30 0 0.000000000000000 6.283185307179586
2  13 15 31 0.000000000000000 6.283185307179586
0

0101100
+118 32 -118 32 *
Wi

0101100
-117 0 *
Ve
0.000000100000002
-1.699999999999932 129.871934891629593 0.299999999999997
0 0

0101101
*
Ed
 0.000000100000000 1 1 0
1  31 0 0.000000000000000 6.283185307179586
2  14 16 33 0.000000000000000 6.283185307179586
0

0101100
+115 32 -115 32 *
Wi

0101100
-114 0 *
Ve
0.000000100000004
20.599999999999717 125.580297890652631 0.299999999999997
0 0

0101101
*
Ed
 0.000000100000000 1 1 0
1  32 0 0.000000000000000 6.283185307179586
2  15 17 34 0.000000000000000 6.283185307179586
0

0101100
+112 32 -112 32 *
Wi

0101100
-111 0 *
Ve
0.000000100000004
-16.566666666660787 155.621756897464962 0.299999999999997
0 0

0101101
*
Ed
 0.000000100000000 1 1 0
1  33 0 0.000000000000000 6.283185307179586
2  16 18 35 0.000000000000000 6.283185307179586
0

0101100
+109 32 -109 32 *
Wi

0101100
-108 0 *
Ve
0.000000100000002
13.166666666660793 155.621756897465701 0.299999999999997
0 0

0101101
*
Ed
 0.000000100000000 1 1 0
1  34 0 0.000000000000000 6.283185307179586
2  17 19 36 0.000000000000000 6.283185307179586
0

0101100
+106 32 -106 32 *
Wi

0101100
-105 0 *
Fa
0  0.000000100000000 12 28

0101000
+119 0 +116 0 +113 0 +110 0 +107 0 +104 0 *
Ve
0.000000100000000
41.199999999999420 120.580297890652631 0.000000000000000
0 0

0101101
*
Ed
 0.000000100000000 1 1 0
1  35 0 0.000000000000000 82.399999999998840
0

0101000
+148 27 -102 27 *
Ve
0.000000100000000
41.199999999999420 152.621756897464650 0.000000000000000
0 0

0101101
*
Ed
 0.000000100000000 1 1 0
1  36 0 0.000000000000000 32.041459006812019
2  18 21 26 0.000000000000000 32.041459006812019
0

0101000
+102 27 -100 27 *
Ve
0.000000100000000
16.359666982847358 160.393648561771045 0.000000000000000
0 0

0101101
*
Ed
 0.000000100000000 1 1 0
1  37 0 0.000000000000000 26.027762955058776
0

0101000
+100 27 -98 27 *
Ve
0.000000100000001
-14.866666666660720 160.621756897465701 0.000000000000000
0 0

0101101
*
Ed
 0.000000100000000 1 1 0
1  38 0 1.570796326794897 1.874021786293219
2  19 9 39 1.570796326794897 1.874021786293219
0

0101000
+96 27 -143 27 *
Ve
0.000000100000000
14.866666666660791 160.621756897465701 0.000000000000000
0 0

0101101
*
Ed
 0.000000100000000 1 1 0
1  39 0 1.267570867296562 1.570796326794897
2  20 14 39 1.267570867296562 1.570796326794897
0

0101000
+98 27 -94 27 *
Ed
 0.000000100000000 1 1 0
1  40 0 0.000000000000000 29.733333333321511
0

0101000
+94 27 -96 27 *
Wi

0101100
+101 38 +146 38 +99 38 +140 38 +97 38 +95 38 +93 38 +92 38 *
Ve
0.000000100000004
-23.999999999999709 125.580297890654023 0.000000000000000
0 0

0101101
*
Ed
 0.000000100000000 1 1 0
1  41 0 0.000000000000000 6.283185307179586
2  21 15 31 0.000000000000000 6.283185307179586
0

0101100
+90 32 -90 32 *
Wi

0101100
-89 0 *
Ve
0.000000100000002
-1.699999999999932 129.871934891629593 0.000000000000000
0 0

0101101
*
Ed
 0.000000100000000 1 1 0
1  42 0 0.000000000000000 6.283185307179586
2  22 16 33 0.000000000000000 6.283185307179586
0

0101100
+87 32 -87 32 *
Wi

0101100
-86 0 *
Ve
0.000000100000004
20.599999999999717 125.580297890652631 0.000000000000000
0 0

0101101
*
Ed
 0.000000100000000 1 1 0
1  43 0 0.000000000000000 6.283185307179586
2  23 17 34 0.000000000000000 6.283185307179586
0

0101100
+84 32 -84 32 *
Wi

0101100
-83 0 *
Ve
0.000000100000004
-16.566666666660787 155.621756897464962 0.000000000000000
0 0

0101101
*
Ed
 0.000000100000000 1 1 0
1  44 0 0.000000000000000 6.283185307179586
2  24 18 35 0.000000000000000 6.283185307179586
0

0101100
+81 32 -81 32 *
Wi

0101100
-80 0 *
Ve
0.000000100000002
13.166666666660793 155.621756897465701 0.000000000000000
0 0

0101101
*
Ed
 0.000000100000000 1 1 0
1  45 0 0.000000000000000 6.283185307179586
2  25 19 36 0.000000000000000 6.283185307179586
0

0101100
+78 32 -78 32 *
Wi

0101100
-77 0 *
Fa
0  0.000000100000000 20 37

0101000
+91 0 +88 0 +85 0 +82 0 +79 0 +76 0 *
Ed
 0.000000100000001 1 1 0
1  46 0 0.000000000000000 0.300000000000000
2  26 9 0 0.000000000000000 0.300000000000000
4 G1 9 0 22 0
0

0101000
+96 15 -124 15 *
Wi

0101100
+74 0 -141 0 -95 41 +123 42 *
Fa
0  0.000000100000000 9 0

0101000
+73 0 *
Ed
 0.000000100000000 1 1 0
1  47 0 0.000000000000000 0.300000000000000
0

0101000
+102 15 -130 15 *
Wi

0101100
+133 14 -71 14 -101 25 +129 22 *
Fa
0  0.000000100000000 23 14

0101000
+70 0 *
Ve
0.000000100000000
41.599999999999419 152.621756897464650 -0.100000000000001
0 0

0101101
*
Ed
 0.000000100000000 1 1 0
1  48 0 0.000000000000000 1.570796326794897
2  27 13 0 0.000000000000000 1.570796326794897
0

0101000
+128 13 -68 13 *
Ve
0.000000100000000
41.599999999999419 120.580297890652631 -0.100000000000001
0 0

0101101
*
Ed
 0.000000100000000 1 1 0
1  49 0 0.000000000000000 1.570796326794897
2  28 13 0 0.000000000000000 1.570796326794897
0

0101000
+130 13 -66 13 *
Ed
 0.000000100000000 1 1 0
1  50 0 0.000000000000000 32.041459006812019
2  29 13 44 0.000000000000000 32.041459006812019
0

0101000
+68 45 -66 45 *
Wi

0101100
+67 0 -65 0 +127 22 +64 43 *
Fa
0  0.000000100000000 13 0

0101000
+63 0 *
Ed
 0.000000100000000 1 1 0
1  51 0 0.000000000000000 0.300000000000000
0

0101000
+100 15 -128 15 *
Ed
 0.000000100000000 1 1 0
1  52 0 0.000000000000000 0.300000000000000
2  30 14 0 0.000000000000000 0.300000000000000
4 G1 24 0 14 0
0

0101000
+98 15 -126 15 *
Wi

0101100
+61 14 -60 14 -97 25 +125 22 *
Fa
0  0.000000100000000 24 14

0101000
+59 0 *
Ed
 0.000000100000000 1 1 0
1  53 0 0.000000000000000 0.300000000000000
2  31 14 0 0.000000000000000 0.300000000000000
4 G1 14 0 22 0
0

0101000
+94 15 -122 15 *
Wi

0101100
+60 0 -57 0 -93 41 +121 42 *
Fa
0  0.000000100000000 14 0

0101000
+56 0 *
Wi

0101100
+57 0 -74 0 -92 41 +120 42 *
Fa
0  0.000000100000000 22 0

0101000
+54 0 *
Ed
 0.000000100000000 1 1 0
1  54 0 37.100000000000001 37.399999999999999
3  32 33CN 15 0 37.100000000000001 37.399999999999999
0

0101000
+90 46 -118 46 *
Wi

0101100
-89 0 -52 31 +117 0 +52 31 *
Fa
0  0.000000100000000 15 31

0101000
+51 0 *
Ed
 0.000000100000000 1 1 0
1  55 0 37.100000000000001 37.399999999999999
3  32 33CN 16 0 37.100000000000001 37.399999999999999
0

0101000
+87 47 -115 47 *
Wi

0101100
-86 0 -49 33 +114 0 +49 33 *
Fa
0  0.000000100000000 16 33

0101000
+48 0 *
Ed
 0.000000100000000 1 1 0
1  56 0 37.100000000000001 37.399999999999999
3  32 33CN 17 0 37.100000000000001 37.399999999999999
0

0101000
+84 48 -112 48 *
Wi

0101100
-83 0 -46 34 +111 0 +46 34 *
Fa
0  0.000000100000000 17 34

0101000
+45 0 *
Ed
 0.000000100000000 1 1 0
1  57 0 37.100000000000001 37.399999999999999
3  32 33CN 18 0 37.100000000000001 37.399999999999999
0

0101000
+81 49 -109 49 *
Wi

0101100
-80 0 -43 35 +108 0 +43 35 *
Fa
0  0.000000100000000 18 35

0101000
+42 0 *
Ed
 0.000000100000000 1 1 0
1  58 0 37.100000000000001 37.399999999999999
3  32 33CN 19 0 37.100000000000001 37.399999999999999
0

0101000
+78 50 -106 50 *
Wi

0101100
-77 0 -40 36 +105 0 +40 36 *
Fa
0  0.000000100000000 19 36

0101000
+39 0 *
Ve
0.000000100000000
41.299999999999422 120.580297890652631 -0.100000000000001
0 0

0101101
*
Ed
 0.000000100000000 1 1 0
1  59 0 0.000000000000000 1.570796326794897
2  34 21 0 0.000000000000000 1.570796326794897
0

0101000
+102 13 -37 13 *
Ve
0.000000100000000
41.299999999999422 152.621756897464650 -0.100000000000001
0 0

0101101
*
Ed
 0.000000100000000 1 1 0
1  60 0 0.000000000000000 1.570796326794897
2  35 21 0 0.000000000000000 1.570796326794897
0

0101000
+100 13 -35 13 *
Ed
 0.000000100000000 1 1 0
1  61 0 0.000000000000000 32.041459006812019
2  36 21 44 0.000000000000000 32.041459006812019
0

0101000
+37 45 -35 45 *
Wi

0101100
+36 0 -34 0 -99 25 +33 43 *
Fa
0  0.000000100000000 21 0

0101000
+32 0 *
Ed
 0.000000100000000 1 1 0
1  62 0 0.000000000000000 0.300000000000000
0

0101000
+66 45 -37 45 *
Wi

0101100
+65 0 -36 0 +71 14 +30 43 *
Fa
0  0.000000100000000 25 0

0101000
+29 0 *
Ed
 0.000000100000000 1 1 0
1  63 0 0.000000000000000 0.300000000000000
0

0101000
+35 45 -68 45 *
Wi

0101100
+34 0 -67 0 -61 14 +27 43 *
Fa
0  0.000000100000000 26 0

0101000
+26 0 *
Ve
0.000000100000000
41.599999999999426 120.580297890652631 -31.100000000000001
0 0

0101101
*
Ed
 0.000000100000000 1 1 0
1  64 0 0.000000000000000 31.000000000000000
0

0101000
+66 52 -24 52 *
Ve
0.000000100000000
41.599999999999426 152.621756897464650 -31.100000000000001
0 0

0101101
*
Ed
 0.000000100000000 1 1 0
1  65 0 0.000000000000000 32.041459006812019
0

0101000
+24 52 -22 52 *
Ed
 0.000000100000000 1 1 0
1  66 0 0.000000000000000 31.000000000000000
0

0101000
+22 52 -68 52 *
Wi

0101100
+64 43 +23 51 +21 51 +20 51 *
Fa
0  0.000000100000000 27 51

0101000
+19 0 *
Ve
0.000000100000000
41.299999999999429 120.580297890652631 -31.100000000000001
0 0

0101101
*
Ed
 0.000000100000000 1 1 0
1  67 0 0.000000000000000 31.000000000000000
0

0101000
+37 55 -17 55 *
Ve
0.000000100000000
41.299999999999429 152.621756897464650 -31.100000000000001
0 0

0101101
*
Ed
 0.000000100000000 1 1 0
1  68 0 0.000000000000000 32.041459006812019
0

0101000
+17 55 -15 55 *
Ed
 0.000000100000000 1 1 0
1  69 0 0.000000000000000 31.000000000000000
0

0101000
+15 55 -35 55 *
Wi

0101100
-33 43 +16 54 +14 54 +13 54 *
Fa
0  0.000000100000000 28 54

0101000
+12 0 *
Ed
 0.000000100000000 1 1 0
1  70 0 0.000000000000000 0.300000000000000
0

0101000
+24 52 -17 52 *
Wi

0101100
+30 43 -10 51 -23 51 +16 54 *
Fa
0  0.000000100000000 29 51

0101000
+9 0 *
Ed
 0.000000100000000 1 1 0
1  71 0 0.000000000000000 0.300000000000000
0

0101000
+22 52 -15 52 *
Wi

0101100
+7 51 +27 43 -20 51 +13 54 *
Fa
0  0.000000100000000 30 51

0101000
+6 0 *
Wi

0101100
+10 0 -7 0 -21 0 +14 53 *
Fa
0  0.000000100000000 31 0

0101000
+4 0 *
Sh

0101100
+178 4 -171 4 +164 16 +159 4 -154 4 -149 4 -144 4 -137 4 +134 4 -131 4 
+103 0 -75 0 -72 40 -69 4 -62 4 -58 4 -55 40 -53 40 +50 0 +47 0 
+44 0 +41 0 +38 0 -31 4 -28 4 -25 4 +18 4 -11 4 +8 4 +5 4 
+3 56 *
So

1100000
+2 0 *

+1 1 