
CASCADE Topology V1, (c) Matra-Datavision
Locations 22
1
1.000000000000000 0.000000000000000 0.000000000000000 0.000000000000000 
0.000000000000000 1.000000000000000 0.000000000000000 0.000000000000000 
0.000000000000000 0.000000000000000 1.000000000000000 0.000000000000000 
1
1.000000000000000 0.000000000000000 0.000000000000000 0.000000000000000 
0.000000000000000 1.000000000000000 0.000000000000000 0.000000000000000 
0.000000000000000 0.000000000000000 1.000000000000000 0.000000000000000 
1
1.000000000000000 0.000000000000000 0.000000000000000 0.000000000000000 
0.000000000000000 1.000000000000000 0.000000000000000 0.000000000000000 
0.000000000000000 0.000000000000000 1.000000000000000 0.000000000000000 
2  2 1 3 -1 0
1
1.000000000000000 0.000000000000000 0.000000000000000 0.000000000000000 
0.000000000000000 1.000000000000000 0.000000000000000 -274.300000000000011 
0.000000000000000 0.000000000000000 1.000000000000000 0.000000000000061 
2  5 -1 0
2  5 1 2 1 3 -1 0
1
1.000000000000000 0.000000000000000 0.000000000000000 0.000000000000009 
0.000000000000000 1.000000000000000 0.000000000000000 -122.500000000000000 
0.000000000000000 0.000000000000000 1.000000000000000 0.000000000000000 
1
1.000000000000000 0.000000000000000 0.000000000000000 0.000000000000000 
0.000000000000000 1.000000000000000 0.000000000000000 75.000000000050946 
0.000000000000000 0.000000000000000 1.000000000000000 0.000000000000000 
2  2 1 3 -1 9 -1 0
2  2 1 3 -1 8 -1 0
1
1.000000000000000 0.000000000000000 0.000000000000000 0.000000000000000 
0.000000000000000 1.000000000000000 0.000000000000000 -75.000000000012022 
0.000000000000000 0.000000000000000 1.000000000000000 0.000000000000000 
2  2 1 3 -1 12 -1 0
1
1.000000000000000 0.000000000000000 0.000000000000000 0.000000000521431 
0.000000000000000 1.000000000000000 0.000000000000000 122.500000000000000 
0.000000000000000 0.000000000000000 1.000000000000000 0.000000000000000 
2  2 1 3 -1 14 -1 0
1
1.000000000000000 0.000000000000000 0.000000000000000 0.000000000000000 
0.000000000000000 1.000000000000000 0.000000000000000 0.000000000000000 
0.000000000000000 0.000000000000000 1.000000000000000 0.000000000000000 
2  2 1 3 -1 16 -1 0
2  8 -1 0
2  12 -1 0
2  16 -1 0
2  9 -1 0
2  14 -1 0
Curve2ds 114
1 1.57079632679489656 0.00000000000000000 0.00000000000000000 -1.00000000000000000 
1 0.00000000000000000 -0.30000000000000071 1.00000000000000000 0.00000000000000000 
1 0.00000000000000000 -0.30000000000000071 -1.00000000000000000 0.00000000000000000 
1 0.00000000000000000 0.00000000000000000 0.00000000000000000 -1.00000000000000000 
1 14.60000000000141540 0.00000000000000324 0.00000000000000000 -1.00000000000000000 
1 0.00000000000000000 0.00000000000000000 1.00000000000000000 0.00000000000000000 
1 0.00000000000000003 -0.30000000000000071 -1.00000000000000000 0.00000000000000000 
1 -0.00000000000000002 -0.30000000000000071 1.00000000000000000 0.00000000000000000 
1 -0.39999999999999991 -0.00000000000000009 1.00000000000000000 0.00000000000000000 
1 -0.39999999999999991 -274.30000000000001137 1.00000000000000000 0.00000000000000000 
1 0.00000000000000000 0.00000000000000000 0.00000000000000000 -1.00000000000000000 
1 0.00000000000000007 -0.30000000000000004 1.00000000000000000 0.00000000000000000 
1 -0.00000000000000007 -0.29999999999999993 -1.00000000000000000 0.00000000000000000 
1 22.20000000000000284 0.00000000000000000 0.00000000000000000 -1.00000000000000000 
1 0.00000000000000000 274.30000000000001137 1.00000000000000000 0.00000000000000000 
1 0.00000000000000000 0.00000000000000000 1.00000000000000000 0.00000000000000000 
1 0.00000000000000000 -274.30000000000001137 1.00000000000000000 0.00000000000000000 
1 6.28318530717958623 0.00000000000000000 -1.00000000000000000 0.00000000000000000 
1 0.00000000000000000 0.00000000000000000 1.00000000000000000 0.00000000000000000 
6 0 1 -15.00000000000141576 -0.30000000000000071  -15.00000000000141576 0.00000000000000000  
1 14.60000000000141540 0.00000000000000324 0.00000000000000000 -1.00000000000000000 
6 0 1 15.00000000000141576 -0.30000000000000071  15.00000000000141576 0.00000000000000000  
1 -0.39999999999999991 -0.00000000000000009 1.00000000000000000 0.00000000000000000 
1 0.00000000000000000 0.00000000000000000 1.00000000000000000 0.00000000000000000 
6 0 1 0.00000000000000000 -0.30000000000000071  0.00000000000000000 0.00000000000000000  
6 0 1 0.39999999999999991 -0.30000000000000071  0.39999999999999991 0.00000000000000000  
8 0.00000000000000000 1.00000000000000000
1 1.57079632679489656 0.00000000000000000 0.00000000000000000 1.00000000000000000 
6 0 1 -0.39999999999999991 -0.30000000000000071  -0.39999999999999991 0.00000000000000000  
6 0 1 -274.30000000000001137 -0.30000000000000071  -274.30000000000001137 0.00000000000000000  
8 0.00000000000000000 1.00000000000000000
1 4.71238898038468967 0.00000000000000000 0.00000000000000000 1.00000000000000000 
1 -0.39999999999999991 -274.30000000000001137 1.00000000000000000 0.00000000000000000 
1 0.00000000000000000 0.00000000000000000 -1.00000000000000000 0.00000000000000000 
1 6.28318530717958623 0.00000000000000000 0.00000000000000000 -1.00000000000000000 
1 0.00000000000000007 -0.29999999999999916 1.00000000000000000 0.00000000000000000 
1 -0.00000000000000007 -0.30000000000000004 -1.00000000000000000 0.00000000000000000 
1 0.00000000000000000 0.00000000000000000 0.00000000000000000 -1.00000000000000000 
1 0.00000000000000000 0.00000000000000000 1.00000000000000000 0.00000000000000000 
1 0.00000000000000000 -0.30000000000000004 -1.00000000000000000 0.00000000000000000 
1 0.00000000000000000 -0.30000000000000004 1.00000000000000000 0.00000000000000000 
1 -0.40000000000000036 0.00000000000000000 1.00000000000000000 0.00000000000000000 
1 -0.40000000000000036 -274.30000000000001137 1.00000000000000000 0.00000000000000000 
2 0.00000000000000000 0.00000000000000000 -1.00000000000000000 0.00000000000000000 0.00000000000000000 1.00000000000000000 1.69999999999999996
1 0.00000000000000000 0.00000000000000000 1.00000000000000000 0.00000000000000000 
2 11.10000000001871001 -71.79999999994906545 1.00000000000000000 0.00000000000000000 -0.00000000000000000 1.00000000000000000 1.69999999999999996
2 11.10000000001871889 -269.30000000000001137 1.00000000000000000 0.00000000000000000 -0.00000000000000000 1.00000000000000000 1.69999999999999996
2 11.10000000001871001 -221.80000000001203375 1.00000000000000000 0.00000000000000000 -0.00000000000000000 1.00000000000000000 1.69999999999999996
2 11.10000000054014180 -24.30000000000001137 1.00000000000000000 0.00000000000000000 -0.00000000000000000 1.00000000000000000 1.69999999999999996
2 11.10000000001871001 -146.80000000000001137 1.00000000000000000 0.00000000000000000 -0.00000000000000000 1.00000000000000000 1.69999999999999996
1 0.00000000000000000 1.00000000000000000 1.00000000000000000 0.00000000000000000 
1 0.00000000000000000 0.00000000000000000 0.00000000000000000 1.00000000000000000 
6 0 1 0.00000000000000000 -0.29999999999999993  0.00000000000000000 0.00000000000000000  
1 6.28318530717958623 0.00000000000000000 0.00000000000000000 1.00000000000000000 
7 0 0  1 2 2  -274.30000000000001137 -0.29999999999999999  -274.30000000000001137 -0.00000000000000006 
 0.00000000000000000 2 1.00000000000000000 2
1 6.28318530717958623 1.00000000000000000 -1.00000000000000000 0.00000000000000000 
1 0.00000000000000000 0.00000000000000000 0.00000000000000000 -1.00000000000000000 
1 0.00000000000000000 0.00000000000000000 -1.00000000000000000 0.00000000000000000 
8 0.00000000000000000 274.30000000000001137
1 1.57079632679489656 0.00000000000000000 0.00000000000000000 -1.00000000000000000 
1 4.71238898038469056 0.00000000000000000 0.00000000000000000 -1.00000000000000000 
1 0.00000000000000000 -0.30000000000000071 1.00000000000000000 0.00000000000000000 
1 0.00000000000000000 -0.30000000000000071 -1.00000000000000000 -0.00000000000000000 
1 14.60000000000141362 -0.00000000000000324 0.00000000000000000 -1.00000000000000000 
1 -4.71238898038468967 274.30000000000001137 1.00000000000000000 0.00000000000000000 
1 0.00000000000000000 0.00000000000000000 1.00000000000000000 0.00000000000000000 
1 0.00000000000000000 -274.30000000000001137 1.00000000000000000 0.00000000000000000 
1 6.28318530717958623 0.00000000000000000 -1.00000000000000000 0.00000000000000000 
1 0.00000000000000000 0.00000000000000000 1.00000000000000000 0.00000000000000000 
1 -0.40000000000000036 0.00000000000000000 1.00000000000000000 0.00000000000000000 
1 0.00000000000000000 0.00000000000000000 1.00000000000000000 0.00000000000000000 
6 0 1 0.40000000000000036 -0.30000000000000004  0.40000000000000036 0.00000000000000000  
6 0 1 0.00000000000000000 -0.30000000000000004  0.00000000000000000 0.00000000000000000  
8 0.00000000000000000 1.00000000000000000
1 6.28318530717958623 0.00000000000000000 0.00000000000000000 1.00000000000000000 
6 0 1 -0.40000000000000036 -0.30000000000000004  -0.40000000000000036 0.00000000000000000  
6 0 1 -274.30000000000001137 -0.30000000000000004  -274.30000000000001137 0.00000000000000000  
8 0.00000000000000000 1.00000000000000000
1 0.00000000000000000 0.00000000000000000 0.00000000000000000 1.00000000000000000 
1 -0.40000000000000036 -274.30000000000001137 1.00000000000000000 0.00000000000000000 
1 0.00000000000000000 0.00000000000000000 -1.00000000000000000 0.00000000000000000 
1 6.28318530717958623 0.00000000000000000 0.00000000000000000 1.00000000000000000 
1 0.00000000000000000 0.00000000000000000 0.00000000000000000 1.00000000000000000 
2 11.10000000001871889 -269.30000000000001137 1.00000000000000000 0.00000000000000000 0.00000000000000000 -1.00000000000000000 1.69999999999999996
1 6.28318530717958623 0.30000000000611066 -1.00000000000000000 0.00000000000000000 
2 11.10000000001871001 -221.80000000001203375 1.00000000000000000 0.00000000000000000 0.00000000000000000 -1.00000000000000000 1.69999999999999996
1 6.28318530717958623 0.30000000000612120 -1.00000000000000000 0.00000000000000000 
2 11.10000000001871001 -146.80000000000001137 1.00000000000000000 0.00000000000000000 0.00000000000000000 -1.00000000000000000 1.69999999999999996
1 6.28318530717958623 0.30000000000613786 -1.00000000000000000 0.00000000000000000 
2 11.10000000001871001 -71.79999999994906545 1.00000000000000000 0.00000000000000000 0.00000000000000000 -1.00000000000000000 1.69999999999999996
1 6.28318530717958623 0.30000000000615451 -1.00000000000000000 0.00000000000000000 
2 11.10000000054014180 -24.30000000000001137 1.00000000000000000 0.00000000000000000 0.00000000000000000 -1.00000000000000000 1.69999999999999996
1 6.28318530717958623 0.30000000000616506 -1.00000000000000000 0.00000000000000000 
1 0.00000000000000000 -0.00000000000000000 -1.00000000000000000 0.00000000000000000 
1 22.19999999999999929 0.00000000000000000 0.00000000000000000 -1.00000000000000000 
1 0.00000000000000000 0.00000000000000000 0.00000000000000000 -1.00000000000000000 
1 0.00000000000000000 0.00000000000000000 1.00000000000000000 0.00000000000000000 
1 0.00000000000000000 -0.30000000000000071 -1.00000000000000000 0.00000000000000000 
1 0.00000000000000000 -0.30000000000000071 1.00000000000000000 0.00000000000000000 
1 0.00000000000000000 0.00000000000000000 1.00000000000000000 0.00000000000000000 
1 -0.00000000000000051 -274.30000000000001137 1.00000000000000000 0.00000000000000000 
1 0.00000000000000000 1.00000000000000000 1.00000000000000000 0.00000000000000000 
1 4.71238898038469056 0.00000000000000000 0.00000000000000000 1.00000000000000000 
6 0 1 0.00000000000000000 -0.30000000000000071  0.00000000000000000 0.00000000000000000  
1 1.57079632679489567 0.00000000000000000 0.00000000000000000 1.00000000000000000 
7 0 0  1 2 2  -274.30000000000001137 -0.30000000000000071  -274.30000000000001137 0.00000000000000178 
 0.00000000000000000 2 1.00000000000000000 2
1 6.28318530717958623 1.00000000000000000 -1.00000000000000000 0.00000000000000000 
1 0.00000000000000000 0.00000000000000000 0.00000000000000000 -1.00000000000000000 
1 0.00000000000000000 0.00000000000000000 -1.00000000000000000 0.00000000000000000 
8 0.00000000000000000 274.30000000000001137
1 6.28318530717958623 0.00000000000000000 0.00000000000000000 -1.00000000000000000 
6 0 1 0.00000000000000000 -0.30000000000000071  0.00000000000000000 0.00000000000000000  
1 0.00000000000000000 0.00000000000000000 0.00000000000000000 -1.00000000000000000 
6 0 1 0.00000000000000000 -0.30000000000000071  0.00000000000000000 0.00000000000000000  
1 0.00000000000000000 0.00000000000000000 1.00000000000000000 0.00000000000000000 
1 0.00000000000000000 0.00000000000000000 1.00000000000000000 0.00000000000000000 
1 -0.00000000000000051 -274.30000000000001137 1.00000000000000000 0.00000000000000000 
1 -0.00000000000000000 0.00000000000000000 -1.00000000000000000 0.00000000000000000 
1 0.00000000000000000 0.00000000000000000 -1.00000000000000000 0.00000000000000000 
1 14.60000000000141362 -0.00000000000000324 0.00000000000000000 -1.00000000000000000 
Curves 46
1 11.49999999998128963 146.80000000000001137 -0.40000000000617036 0.00000000000000000 -1.00000000000000000 0.00000000000000022 
1 11.49999999998128963 146.80000000000001137 -15.00000000000758504 0.00000000000000000 -1.00000000000000000 0.00000000000000022 
1 11.49999999998128963 146.80000000000001137 -0.00000000000617044 0.00000000000000000 -0.00000000000000022 -1.00000000000000000 
1 11.09999999998129105 146.80000000000001137 -0.00000000000617043 0.00000000000000000 -1.00000000000000000 0.00000000000000022 
2 11.09999999998128928 146.80000000000001137 -0.40000000000617036 0.00000000000000000 1.00000000000000000 -0.00000000000000022 0.00000000000000000 0.00000000000000022 1.00000000000000000 1.00000000000000000 -0.00000000000000000 0.00000000000000000 0.40000000000000002
6 0 1 11.49999999998128963 -127.50000000000000000 -15.00000000000752465  11.19999999998128892 -127.50000000000000000 -15.00000000000752465  
1 11.19999999998128892 146.80000000000001137 -15.00000000000758504 0.00000000000000000 -1.00000000000000000 0.00000000000000022 
6 0 1 11.49999999998128963 146.80000000000001137 -15.00000000000758504  11.19999999998128892 146.80000000000001137 -15.00000000000758504  
1 11.19999999998128892 146.80000000000001137 -0.00000000000617045 0.00000000000000000 -0.00000000000000022 -1.00000000000000000 
6 0 1 11.49999999998128963 146.80000000000001137 -0.40000000000617036  11.19999999998128892 146.80000000000001137 -0.40000000000617036  
6 0 1 11.49999999998128963 -127.50000000000000000 -0.40000000000610947  11.19999999998128892 -127.50000000000000000 -0.40000000000610947  
1 11.19999999998128892 -127.50000000000000000 -0.00000000000610956 0.00000000000000000 -0.00000000000000022 -1.00000000000000000 
1 -11.10000000001871001 146.80000000000001137 -0.00000000000617043 0.00000000000000000 -1.00000000000000000 0.00000000000000022 
1 -11.50000000001871037 146.80000000000001137 -0.00000000000617043 1.00000000000000000 0.00000000000000000 0.00000000000000000 
2 0.00000000000000000 0.00000000000000000 0.00000000000000000 0.00000000000000000 0.00000000000000000 1.00000000000000000 1.00000000000000000 0.00000000000000000 -0.00000000000000000 -0.00000000000000000 1.00000000000000000 0.00000000000000000 1.69999999999999996
2 11.09999999998128928 146.80000000000001137 -0.40000000000617036 0.00000000000000000 1.00000000000000000 -0.00000000000000022 0.00000000000000000 0.00000000000000022 1.00000000000000000 1.00000000000000000 -0.00000000000000000 0.00000000000000000 0.10000000000000003
6 0 1 11.09999999998129105 146.80000000000001137 -0.00000000000617043  11.09999999998128928 146.80000000000001137 -0.30000000000617033  
7 0 0  1 2 2  11.09999999998128750 -127.50000000000000000 -0.00000000000610942  11.09999999998129105 -127.50000000000000000 -0.30000000000610938 
 0.00000000000000000 2 1.00000000000000000 2
2 11.09999999998128928 -127.50000000000000000 -0.40000000000610947 0.00000000000000000 1.00000000000000000 -0.00000000000000022 0.00000000000000000 0.00000000000000022 1.00000000000000000 1.00000000000000000 -0.00000000000000000 0.00000000000000000 0.10000000000000003
1 11.19999999998128892 146.80000000000001137 -0.40000000000617036 0.00000000000000000 -1.00000000000000000 0.00000000000000022 
1 -11.50000000001871037 146.80000000000001137 -0.40000000000616964 0.00000000000000000 -1.00000000000000000 0.00000000000000022 
2 -11.10000000001871001 146.80000000000001137 -0.40000000000616964 -0.00000000000000000 1.00000000000000000 -0.00000000000000022 0.00000000000000022 0.00000000000000022 1.00000000000000000 1.00000000000000000 -0.00000000000000000 -0.00000000000000022 0.40000000000000002
1 -11.50000000001871037 146.80000000000001137 -0.30000000000617044 1.00000000000000000 0.00000000000000000 0.00000000000000000 
6 0 1 -11.10000000001871001 146.80000000000001137 -0.00000000000617043  -11.10000000001871001 146.80000000000001137 -0.30000000000617044  
6 0 1 -11.10000000001871001 -127.50000000000000000 -0.00000000000610952  -11.10000000001871001 -127.50000000000000000 -0.30000000000610955  
1 -11.50000000001871037 -127.50000000000000000 -0.30000000000610955 1.00000000000000000 0.00000000000000000 0.00000000000000000 
1 1.69999999999999996 0.00000000000000000 -0.00000000000000000 -0.00000000000000006 0.00000000000000000 -1.00000000000000000 
2 0.00000000000000890 -122.50000000000000000 -0.30000000000611066 0.00000000000000000 0.00000000000000000 -1.00000000000000000 1.00000000000000000 0.00000000000000000 0.00000000000000000 0.00000000000000000 -1.00000000000000000 0.00000000000000000 1.69999999999999996
2 0.00000000000000000 -75.00000000001202238 -0.30000000000612120 0.00000000000000000 0.00000000000000000 -1.00000000000000000 1.00000000000000000 0.00000000000000000 0.00000000000000000 0.00000000000000000 -1.00000000000000000 0.00000000000000000 1.69999999999999996
2 0.00000000000000000 0.00000000000000000 -0.30000000000613786 0.00000000000000000 0.00000000000000000 -1.00000000000000000 1.00000000000000000 0.00000000000000000 0.00000000000000000 0.00000000000000000 -1.00000000000000000 0.00000000000000000 1.69999999999999996
2 0.00000000000000000 75.00000000005094591 -0.30000000000615451 0.00000000000000000 0.00000000000000000 -1.00000000000000000 1.00000000000000000 0.00000000000000000 0.00000000000000000 0.00000000000000000 -1.00000000000000000 0.00000000000000000 1.69999999999999996
2 0.00000000052143120 122.50000000000000000 -0.30000000000616506 0.00000000000000000 0.00000000000000000 -1.00000000000000000 1.00000000000000000 0.00000000000000000 0.00000000000000000 0.00000000000000000 -1.00000000000000000 0.00000000000000000 1.69999999999999996
1 11.09999999998128928 146.80000000000001137 -0.30000000000617033 -0.00000000000000000 -1.00000000000000000 0.00000000000000022 
1 -11.50000000001871037 146.80000000000001137 -15.00000000000758327 0.00000000000000000 -1.00000000000000000 0.00000000000000022 
1 -11.50000000001871037 146.80000000000001137 -15.00000000000758327 0.00000000000000000 0.00000000000000022 1.00000000000000000 
2 -11.10000000001871001 146.80000000000001137 -0.40000000000616964 -0.00000000000000000 1.00000000000000000 -0.00000000000000022 0.00000000000000022 0.00000000000000022 1.00000000000000000 1.00000000000000000 -0.00000000000000000 -0.00000000000000022 0.10000000000000003
6 0 1 -11.50000000001871037 146.80000000000001137 -0.40000000000616964  -11.20000000001870966 146.80000000000001137 -0.40000000000616953  
7 0 0  1 2 2  -11.50000000001871037 -127.50000000000000000 -0.40000000000610830  -11.20000000001870788 -127.50000000000000000 -0.40000000000610858 
 0.00000000000000000 2 1.00000000000000000 2
2 -11.10000000001871001 -127.50000000000000000 -0.40000000000610875 -0.00000000000000000 1.00000000000000000 -0.00000000000000022 0.00000000000000022 0.00000000000000022 1.00000000000000000 1.00000000000000000 -0.00000000000000000 -0.00000000000000022 0.10000000000000003
1 -11.10000000001871001 146.80000000000001137 -0.30000000000617044 0.00000000000000000 -1.00000000000000000 0.00000000000000022 
6 0 1 -11.50000000001871037 146.80000000000001137 -15.00000000000758327  -11.20000000001870966 146.80000000000001137 -15.00000000000758327  
1 -11.20000000001870966 146.80000000000001137 -15.00000000000758327 0.00000000000000000 -1.00000000000000000 0.00000000000000022 
6 0 1 -11.50000000001871037 -127.50000000000000000 -15.00000000000752287  -11.20000000001870966 -127.50000000000000000 -15.00000000000752287  
1 -11.20000000001870966 146.80000000000001137 -15.00000000000758327 0.00000000000000000 0.00000000000000022 1.00000000000000000 
1 -11.20000000001870966 -127.50000000000000000 -15.00000000000752287 0.00000000000000000 0.00000000000000022 1.00000000000000000 
1 -11.20000000001870966 146.80000000000001137 -0.40000000000616953 0.00000000000000000 -1.00000000000000000 0.00000000000000022 
Polygon3D 0
PolygonOnTriangulations 0
Surfaces 37
1 11.49999999998128963 146.80000000000001137 -0.40000000000617036 1.00000000000000000 0.00000000000000000 0.00000000000000000 0.00000000000000000 -0.00000000000000022 -1.00000000000000000 0.00000000000000000 1.00000000000000000 -0.00000000000000022 
2 11.09999999998128928 146.80000000000001137 -0.40000000000617036 0.00000000000000000 1.00000000000000000 -0.00000000000000022 0.00000000000000000 0.00000000000000022 1.00000000000000000 1.00000000000000000 -0.00000000000000000 0.00000000000000000 0.40000000000000002
1 11.19999999998128892 146.80000000000001137 -0.40000000000617036 -0.00000000000000000 -0.00000000000000022 -1.00000000000000000 -0.00000000000000000 -1.00000000000000000 0.00000000000000022 -1.00000000000000000 0.00000000000000000 0.00000000000000000 
1 11.19999999998128892 146.80000000000001137 -0.40000000000617036 0.00000000000000000 0.00000000000000022 1.00000000000000000 -0.00000000000000000 1.00000000000000000 -0.00000000000000022 -1.00000000000000000 0.00000000000000000 0.00000000000000000 
1 11.49999999998128963 146.80000000000001137 -0.00000000000617044 1.00000000000000000 0.00000000000000000 0.00000000000000000 0.00000000000000000 -0.00000000000000022 -1.00000000000000000 0.00000000000000000 1.00000000000000000 -0.00000000000000022 
1 11.19999999998128892 -127.50000000000000000 -0.00000000000610956 -0.00000000000000000 -1.00000000000000000 0.00000000000000022 0.00000000000000000 0.00000000000000022 1.00000000000000000 -1.00000000000000000 0.00000000000000000 0.00000000000000000 
1 11.19999999998128892 146.80000000000001137 -0.00000000000617045 0.00000000000000000 1.00000000000000000 -0.00000000000000022 0.00000000000000000 -0.00000000000000022 -1.00000000000000000 -1.00000000000000000 0.00000000000000000 -0.00000000000000000 
1 -11.10000000001871001 146.80000000000001137 -0.00000000000617043 -0.00000000000000000 0.00000000000000022 1.00000000000000000 1.00000000000000000 0.00000000000000000 0.00000000000000000 0.00000000000000000 1.00000000000000000 -0.00000000000000022 
1 11.09999999998129283 146.80000000000001137 -0.30000000000617044 1.00000000000000000 0.00000000000000000 0.00000000000000592 -0.00000000000000000 -1.00000000000000000 0.00000000000000022 0.00000000000000592 -0.00000000000000022 -1.00000000000000000 
1 11.09999999998128928 146.80000000000001137 -0.30000000000617033 -1.00000000000000000 0.00000000000000000 0.00000000000000592 -0.00000000000000000 1.00000000000000000 -0.00000000000000022 -0.00000000000000592 -0.00000000000000022 -1.00000000000000000 
2 11.09999999998128928 -127.50000000000000000 -0.40000000000610947 0.00000000000000000 1.00000000000000000 -0.00000000000000022 0.00000000000000000 0.00000000000000022 1.00000000000000000 1.00000000000000000 -0.00000000000000000 0.00000000000000000 0.40000000000000002
9 0 0 0 0 7 1 8 2 2 2 11.49999999998128075 -127.49999999999991473 -0.40000000000610936  11.19999999998128359 -127.49999999999991473 -0.40000000000610914  
11.49999999998137312 -127.50000000000139266 -0.31024020990354600  11.19999999998139018 -127.50000000000139266 -0.37756005248047303  
11.47650044536045755 -127.49999999999643308 -0.22048085401272591  11.19412511132592236 -127.49999999999643308 -0.35512021350775136  
11.42950508886239014 -127.50000000000504485 -0.13810122367693137  11.18237627220175234 -127.50000000000504485 -0.33452530592383384  
11.36189877631030676 -127.49999999999570832 -0.07049491112522525  11.16547469406341619 -127.49999999999570832 -0.31762372778587050  
11.27951914597473859 -127.50000000000220268 -0.02349955462676642  11.14487978647970934 -127.50000000000220268 -0.30587488866128398  
11.18975979008384769 -127.49999999999940314 -0.00000000000610907  11.12243994750691733 -127.49999999999940314 -0.30000000000610610  
11.09999999998128750 -127.50000000000000000 -0.00000000000610942  11.09999999998129105 -127.50000000000000000 -0.30000000000610938  

4.71238898038468967 8
6.28318530717958623 8

0.00000000000000000 2
1.00000000000000000 2

9 0 0 0 0 7 1 8 2 2 2 11.09999999998128928 146.80000000000001137 -0.00000000000617033  11.09999999998128750 146.80000000000001137 -0.30000000000617033  
11.18975979008390453 146.79999999999995453 -0.00000000000617085  11.12243994750696352 146.79999999999995453 -0.30000000000617150  
11.27951914597445437 146.79999999999921556 -0.02349955462682354  11.14487978647948374 146.79999999999921556 -0.30587488866132845  
11.36189877631084855 146.80000000000197247 -0.07049491112529328  11.16547469406386028 146.80000000000197247 -0.31762372778595999  
11.42950508886183236 146.79999999999807869 -0.13810122367698396  11.18237627220125674 146.79999999999807869 -0.33452530592386565  
11.47650044536080927 146.80000000000100613 -0.22048085401279224  11.19412511132626520 146.80000000000100613 -0.35512021350782996  
11.49999999998124167 146.79999999999981242 -0.31024020990360485  11.19999999998124984 146.79999999999981242 -0.37756005248052793  
11.49999999998128963 146.80000000000001137 -0.40000000000617042  11.19999999998128715 146.80000000000001137 -0.40000000000617036  

0.00000000000000000 8
1.57079632679489656 8

0.00000000000000000 2
1.00000000000000000 2

1 11.19999999998128892 146.80000000000001137 -15.00000000000758504 -0.00000000000000000 -0.00000000000000022 -1.00000000000000000 0.00000000000000000 -1.00000000000000000 0.00000000000000022 -1.00000000000000000 0.00000000000000000 0.00000000000000000 
1 11.19999999998128892 146.80000000000001137 -0.40000000000617036 1.00000000000000000 0.00000000000000000 0.00000000000000000 0.00000000000000000 -0.00000000000000022 -1.00000000000000000 0.00000000000000000 1.00000000000000000 -0.00000000000000022 
2 -11.10000000001871001 146.80000000000001137 -0.40000000000616964 -0.00000000000000000 1.00000000000000000 -0.00000000000000022 0.00000000000000022 0.00000000000000022 1.00000000000000000 1.00000000000000000 -0.00000000000000000 -0.00000000000000022 0.40000000000000002
1 -11.10000000001871001 146.80000000000001137 -0.30000000000616961 1.00000000000000000 0.00000000000000000 0.00000000000000000 0.00000000000000000 -1.00000000000000000 0.00000000000000022 0.00000000000000000 -0.00000000000000022 -1.00000000000000000 
1 -11.10000000001871001 146.80000000000001137 -0.30000000000617044 -1.00000000000000000 -0.00000000000000000 -0.00000000000000000 0.00000000000000000 1.00000000000000000 -0.00000000000000022 0.00000000000000000 -0.00000000000000022 -1.00000000000000000 
1 -11.50000000001871037 146.80000000000001137 -0.00000000000617043 -0.00000000000000000 0.00000000000000022 1.00000000000000000 1.00000000000000000 0.00000000000000000 0.00000000000000000 0.00000000000000000 1.00000000000000000 -0.00000000000000022 
1 -11.50000000001871037 -127.50000000000000000 -0.30000000000610955 0.00000000000000000 -1.00000000000000000 0.00000000000000000 -1.00000000000000000 0.00000000000000000 0.00000000000000000 -0.00000000000000000 -0.00000000000000000 -1.00000000000000000 
1 -11.50000000001871037 146.80000000000001137 -0.30000000000617044 -0.00000000000000000 1.00000000000000000 0.00000000000000000 1.00000000000000000 0.00000000000000000 0.00000000000000000 0.00000000000000000 0.00000000000000000 -1.00000000000000000 
1 0.00000000000000000 0.00000000000000000 0.00000000000000000 0.00000000000000000 0.00000000000000000 1.00000000000000000 -1.00000000000000000 -0.00000000000000000 0.00000000000000000 -0.00000000000000000 1.00000000000000000 -0.00000000000000000 
2 0.00000000000000000 0.00000000000000000 0.00000000000000000 -0.00000000000000000 -0.00000000000000000 -1.00000000000000000 1.00000000000000000 0.00000000000000000 0.00000000000000000 -0.00000000000000000 1.00000000000000000 -0.00000000000000000 1.69999999999999996
2 11.09999999998128928 146.80000000000001137 -0.40000000000617036 0.00000000000000000 1.00000000000000000 -0.00000000000000022 0.00000000000000000 0.00000000000000022 1.00000000000000000 1.00000000000000000 -0.00000000000000000 0.00000000000000000 0.10000000000000003
1 -11.50000000001871037 146.80000000000001137 -15.00000000000758327 -1.00000000000000000 0.00000000000000000 0.00000000000000000 0.00000000000000000 0.00000000000000022 1.00000000000000000 0.00000000000000000 1.00000000000000000 -0.00000000000000022 
1 -11.20000000001870966 146.80000000000001137 -0.40000000000616964 -0.00000000000000000 0.00000000000000022 1.00000000000000000 0.00000000000000000 -1.00000000000000000 0.00000000000000022 1.00000000000000000 0.00000000000000000 0.00000000000000000 
1 -11.20000000001870966 146.80000000000001137 -0.40000000000616953 0.00000000000000037 -0.00000000000000022 -1.00000000000000000 0.00000000000000000 1.00000000000000000 -0.00000000000000022 1.00000000000000000 0.00000000000000000 0.00000000000000037 
2 -11.10000000001871001 -127.50000000000000000 -0.40000000000610908 0.00000000000000000 1.00000000000000000 -0.00000000000000022 -1.00000000000000000 0.00000000000000000 0.00000000000000000 0.00000000000000000 0.00000000000000022 1.00000000000000000 0.40000000000000002
9 0 0 0 0 7 1 8 2 2 2 -11.10000000001871001 -127.50000000000000000 -0.00000000000610872  -11.10000000001870823 -127.50000000000000000 -0.30000000000610871  
-11.18975979012127198 -127.50000000000014211 -0.00000000000610903  -11.12243994754437360 -127.50000000000014211 -0.30000000000611043  
-11.27951914601203853 -127.49999999999877787 -0.02349955462676232  -11.14487978651692224 -127.49999999999877787 -0.30587488866126522  
-11.36189877634800993 -127.50000000000235900 -0.07049491112523083  -11.16547469410128457 -127.50000000000235900 -0.31762372778590187  
-11.42950508889948402 -127.49999999999785416 -0.13810122367692262  -11.18237627223864550 -127.49999999999785416 -0.33452530592379925  
-11.47650044539810388 -127.50000000000119371 -0.22048085401273002  -11.19412511136370725 -127.50000000000119371 -0.35512021350777173  
-11.50000000001869793 -127.49999999999964473 -0.31024020990354279  -11.20000000001867058 -127.49999999999964473 -0.37756005248046509  
-11.50000000001871037 -127.50000000000000000 -0.40000000000610830  -11.20000000001870788 -127.50000000000000000 -0.40000000000610858  

0.00000000000000000 8
1.57079632679489567 8

0.00000000000000000 2
1.00000000000000000 2

9 0 0 0 0 7 1 8 2 2 2 -11.50000000001871214 146.80000000000001137 -0.40000000000616931  -11.20000000001870966 146.80000000000001137 -0.40000000000616953  
-11.50000000001872102 146.80000000000057980 -0.31024020990360390  -11.20000000001871321 146.80000000000057980 -0.37756005248052915  
-11.47650044539797776 146.79999999999768079 -0.22048085401278872  -11.19412511136351362 146.79999999999768079 -0.35512021350782036  
-11.42950508889971850 146.80000000000379146 -0.13810122367698652  -11.18237627223895103 146.80000000000379146 -0.33452530592388097  
-11.36189877634776302 146.79999999999623128 -0.07049491112528902  -11.16547469410098792 146.79999999999623128 -0.31762372778594161  
-11.27951914601218064 146.80000000000228511 -0.02349955462682480  -11.14487978651707500 146.80000000000228511 -0.30587488866133855  
-11.18975979012123823 146.79999999999938609 -0.00000000000616946  -11.12243994754434340 146.79999999999938609 -0.30000000000616789  
-11.10000000001871179 146.80000000000001137 -0.00000000000616962  -11.10000000001871001 146.80000000000001137 -0.30000000000616961  

4.71238898038469056 8
6.28318530717958623 8

0.00000000000000000 2
1.00000000000000000 2

1 -11.10000000001871001 146.80000000000001137 -0.30000000000617044 -0.00000000000000000 0.00000000000000022 1.00000000000000000 1.00000000000000000 0.00000000000000000 0.00000000000000000 0.00000000000000000 1.00000000000000000 -0.00000000000000022 
1 -11.50000000001871037 146.80000000000001137 -15.00000000000758327 -1.00000000000000000 0.00000000000000000 0.00000000000000000 0.00000000000000000 0.00000000000000022 1.00000000000000000 0.00000000000000000 1.00000000000000000 -0.00000000000000022 
1 -11.20000000001870966 -127.50000000000000000 -15.00000000000752287 0.00000000000000000 -1.00000000000000000 0.00000000000000022 -0.00000000000000000 -0.00000000000000022 -1.00000000000000000 1.00000000000000000 0.00000000000000000 -0.00000000000000000 
1 -11.20000000001870966 146.80000000000001137 -15.00000000000758327 0.00000000000000000 1.00000000000000000 -0.00000000000000022 0.00000000000000000 0.00000000000000022 1.00000000000000000 1.00000000000000000 -0.00000000000000000 0.00000000000000000 
2 -11.10000000001871001 146.80000000000001137 -0.40000000000616964 -0.00000000000000000 1.00000000000000000 -0.00000000000000022 0.00000000000000022 0.00000000000000022 1.00000000000000000 1.00000000000000000 -0.00000000000000000 -0.00000000000000022 0.10000000000000003
1 -11.20000000001870966 146.80000000000001137 -15.00000000000758327 0.00000000000000000 -0.00000000000000022 -1.00000000000000000 -0.00000000000000000 1.00000000000000000 -0.00000000000000022 1.00000000000000000 0.00000000000000000 0.00000000000000000 
1 -11.20000000001870966 146.80000000000001137 -15.00000000000758327 -1.00000000000000000 0.00000000000000000 0.00000000000000000 0.00000000000000000 0.00000000000000022 1.00000000000000000 0.00000000000000000 1.00000000000000000 -0.00000000000000022 
Triangulations 0

TShapes 140
Ve
0.001000000000000
11.499999999981290 146.800000000000011 -0.400000000006170
0 0

0101101
*
Ed
 0.001000000000000 1 1 0
1  1 0 0.000000000000000 274.300000000000011
2  1 2 0 0.000000000000000 274.300000000000011
4 G1 1 0 2 0
2  2 3 0 0.000000000000000 274.300000000000011
2  3 4 0 0.000000000000000 274.300000000000011
2  4 1 0 0.000000000000000 274.300000000000011
0

0101000
+140 0 -140 5 *
Ve
0.001000000000000
11.499999999981290 146.800000000000011 -15.000000000007585
0 0

0101101
*
Ed
 0.001000000000000 1 1 0
1  2 0 0.000000000000000 274.300000000000011
2  5 1 0 0.000000000000000 274.300000000000011
0

0101000
+138 0 -138 5 *
Ed
 0.001000000000000 1 1 0
2  6 5 0 0.400000000000000 15.000000000001414
1  3 0 0.400000000000000 15.000000000001414
2  7 6 6 0.400000000000000 15.000000000001414
2  8 7 0 0.400000000000000 15.000000000001414
2  9 1 0 0.400000000000000 15.000000000001414
2  10 1 6 0.400000000000000 15.000000000001414
0

0101000
+140 0 -138 0 *
Wi

0101100
+139 0 -137 0 -136 0 +136 5 *
Fa
0  0.001000000000000 1 0

0111000
+135 0 *
Ve
0.001000000000000
11.099999999981291 146.800000000000011 -0.000000000006170
0 0

0101101
*
Ed
 0.001000000000000 1 1 0
1  4 0 0.000000000000000 274.300000000000011
2  11 2 0 0.000000000000000 274.300000000000011
4 G1 2 0 8 0
2  12 9 0 0.000000000000000 274.300000000000011
2  13 10 0 0.000000000000000 274.300000000000011
2  14 8 0 0.000000000000000 274.300000000000011
0

0101000
+133 0 -133 5 *
Ed
 0.000000100000000 1 1 0
2  15 11 0 0.000000000000000 1.570796326794897
1  5 0 0.000000000000000 1.570796326794897
2  16 2 0 0.000000000000000 1.570796326794897
2  17 2 6 0.000000000000000 1.570796326794897
2  18 12 6 0.000000000000000 1.570796326794897
2  19 13 0 0.000000000000000 1.570796326794897
0

0101000
+133 0 -140 0 *
Wi

0101100
+132 0 -139 0 -131 0 +131 5 *
Fa
0  0.000000100000000 2 0

0111000
+130 0 *
Ve
0.001000000000000
11.199999999981289 -127.500000000000000 -15.000000000007525
0 0

0101101
*
Ed
 0.000000100000000 1 1 0
1  6 0 0.000000000000000 1.000000000000000
4 C0 14 0 6 0
2  20 6 0 0.000000000000000 1.000000000000000
0

0101000
+138 5 -128 0 *
Ve
0.001000000000000
11.199999999981289 146.800000000000011 -15.000000000007585
0 0

0101101
*
Ed
 0.001000000000000 1 1 0
2  21 15 0 0.000000000000000 274.300000000000011
1  7 0 0.000000000000000 274.300000000000011
0

0101000
+126 0 -128 0 *
Ed
 0.000000100000000 1 1 0
1  8 0 0.000000000000000 1.000000000000000
4 C0 14 0 7 0
2  22 7 0 0.000000000000000 1.000000000000000
0

0101000
+138 0 -126 0 *
Wi

0101000
+137 0 +127 0 -125 0 -124 0 *
Fa
0  0.000000100000000 14 0

0111000
+123 0 *
Ve
0.001000000000000
11.199999999981289 146.800000000000011 -0.400000000006170
0 0

0101101
*
Ed
 0.001000000000000 1 1 0
2  23 15 0 0.400000000000000 15.000000000001414
1  9 0 0.400000000000000 15.000000000001414
2  24 7 0 0.400000000000000 15.000000000001414
0

0101000
+121 0 -126 0 *
Ed
 0.000000100000000 1 1 0
1  10 0 0.000000000000000 1.000000000000000
4 C0 4 0 7 0
2  25 4 0 0.000000000000000 1.000000000000000
2  26 7 0 0.000000000000000 1.000000000000000
2  27 13 0 0.000000000000000 1.000000000000000
0

0101000
+140 0 -121 0 *
Wi

0101100
+136 0 +124 0 -120 0 -119 0 *
Fa
0  0.000000100000000 7 0

0111000
+118 0 *
Ve
0.001000000000000
11.199999999981289 -127.500000000000000 -0.400000000006109
0 0

0101101
*
Ed
 0.000000100000000 1 1 0
1  11 0 0.000000000000000 1.000000000000000
4 C0 6 0 4 0
2  28 6 0 0.000000000000000 1.000000000000000
2  29 4 0 0.000000000000000 1.000000000000000
2  30 12 0 0.000000000000000 1.000000000000000
0

0101000
+140 5 -116 0 *
Ed
 0.001000000000000 1 1 0
2  31 15 0 0.400000000000000 15.000000000001414
1  12 0 0.400000000000000 15.000000000001414
2  32 6 0 0.400000000000000 15.000000000001414
0

0101000
+116 0 -128 0 *
Wi

0101100
-136 5 +115 0 +114 0 -127 0 *
Fa
0  0.000000100000000 6 0

0111000
+113 0 *
Ve
0.001000000000000
-11.100000000018710 146.800000000000011 -0.000000000006170
0 0

0101101
*
Ed
 0.001000000000000 1 1 0
1  13 0 0.000000000000000 274.300000000000011
2  33 16 0 0.000000000000000 274.300000000000011
4 G1 8 0 16 0
2  34 17 0 0.000000000000000 274.300000000000011
2  35 18 0 0.000000000000000 274.300000000000011
2  36 8 0 0.000000000000000 274.300000000000011
0

0101000
+111 0 -111 5 *
Ed
 0.001000000000000 1 1 0
2  37 19 0 0.400000000000000 22.600000000000001
1  14 0 0.400000000000000 22.600000000000001
2  38 20 6 0.400000000000000 22.600000000000001
2  39 21 0 0.400000000000000 22.600000000000001
2  40 8 0 0.400000000000000 22.600000000000001
2  41 8 6 0.400000000000000 22.600000000000001
0

0101000
+111 0 -133 0 *
Wi

0101100
+110 4 -109 4 +109 7 -132 4 *
Ve
0.001000000006165
1.700000000000000 0.000000000000000 -0.000000000000000
0 0

0101101
*
Ed
 0.001000000006165 1 1 0
1  15 0 0.000000000000000 6.283185307179586
2  42 22 0 0.000000000000000 6.283185307179586
2  43 23 0 0.000000000000000 6.283185307179586
2  44 8 10 0.000000000000000 6.283185307179586
2  45 8 11 0.000000000000000 6.283185307179586
2  46 8 13 0.000000000000000 6.283185307179586
2  47 8 15 0.000000000000000 6.283185307179586
2  48 8 17 0.000000000000000 6.283185307179586
0

0101000
+107 0 -107 0 *
Wi

0101100
-106 8 *
Wi

0101100
-106 12 *
Wi

0101100
-106 16 *
Wi

0101100
-106 9 *
Wi

0101100
-106 14 *
Fa
0  0.001000000000000 8 4

0111000
+108 0 +105 0 +104 0 +103 0 +102 0 +101 0 *
Ve
0.001000000000002
11.099999999981291 146.800000000000011 -0.300000000006170
0 0

0101101
*
Ed
 0.000000100000000 1 1 0
2  16 24 0 0.000000000000000 1.570796326794897
1  16 0 0.000000000000000 1.570796326794897
2  49 13 0 0.000000000000000 1.570796326794897
0

0101000
+99 0 -121 0 *
Ed
 0.000000100000004 1 1 0
1  17 0 0.000000000000000 1.000000000000000
2  50 13 0 0.000000000000000 1.000000000000000
4 C0 10 0 13 0
2  51 10 0 0.000000000000000 1.000000000000000
0

0101000
+133 0 -99 0 *
Wi

0101100
+131 0 +119 0 -98 0 -97 0 *
Fa
0  0.000000100000000 13 0

0111000
+96 0 *
Ve
0.001000000000002
11.099999999981291 -127.500000000000000 -0.300000000006109
0 0

0101101
*
Ed
 0.000000100000004 1 1 0
1  18 0 0.000000000000000 1.000000000000000
2  52 12 0 0.000000000000000 1.000000000000000
4 C0 12 0 10 0
2  53 10 0 0.000000000000000 1.000000000000000
0

0101000
+133 5 -94 0 *
Ed
 0.000000100000000 1 1 0
2  17 24 0 0.000000000000000 1.570796326794897
1  19 0 0.000000000000000 1.570796326794897
2  54 12 0 0.000000000000000 1.570796326794897
0

0101000
+94 0 -116 0 *
Wi

0101100
-131 5 +93 0 +92 0 -115 0 *
Fa
0  0.000000100000000 12 0

0111000
+91 0 *
Ed
 0.001000000000000 1 1 0
2  55 15 0 0.000000000000000 274.300000000000011
1  20 0 0.000000000000000 274.300000000000011
2  56 4 0 0.000000000000000 274.300000000000011
2  57 24 0 0.000000000000000 274.300000000000011
0

0101000
+121 0 -116 0 *
Wi

0101100
+89 0 -125 0 -120 0 +114 0 *
Fa
0  0.001000000000000 15 0

0111000
+88 0 *
Ve
0.001000000000000
-11.500000000018710 146.800000000000011 -0.400000000006170
0 0

0101101
*
Ed
 0.001000000000000 1 1 0
1  21 0 0.000000000000000 274.300000000000011
2  58 16 0 0.000000000000000 274.300000000000011
4 G1 16 0 25 0
2  59 26 0 0.000000000000000 274.300000000000011
2  60 27 0 0.000000000000000 274.300000000000011
2  61 25 0 0.000000000000000 274.300000000000011
0

0101000
+86 0 -86 5 *
Ed
 0.000000100000000 1 1 0
2  62 28 0 4.712388980384691 6.283185307179586
1  22 0 4.712388980384691 6.283185307179586
2  63 16 0 4.712388980384691 6.283185307179586
2  64 16 6 4.712388980384691 6.283185307179586
2  65 29 6 4.712388980384691 6.283185307179586
2  66 30 0 4.712388980384691 6.283185307179586
0

0101000
+86 0 -111 0 *
Wi

0101100
+85 0 -110 0 -84 0 +84 5 *
Fa
0  0.000000100000000 16 0

0111000
+83 0 *
Ve
0.001000000000000
-11.100000000018710 146.800000000000011 -0.300000000006170
0 0

0101101
*
Ed
 0.001000000000000 1 1 0
2  67 31 0 0.400000000000000 22.600000000000001
1  23 0 0.400000000000000 22.600000000000001
2  68 21 0 0.400000000000000 22.600000000000001
0

0101000
+81 0 -99 0 *
Ed
 0.000000100000000 1 1 0
1  24 0 0.000000000000000 1.000000000000000
4 C0 18 0 21 0
2  69 21 0 0.000000000000000 1.000000000000000
2  70 18 0 0.000000000000000 1.000000000000000
2  71 30 0 0.000000000000000 1.000000000000000
0

0101000
+111 0 -81 0 *
Wi

0101100
+109 0 +97 0 -80 0 -79 0 *
Fa
0  0.000000100000000 21 0

0111000
+78 0 *
Ve
0.001000000000000
-11.100000000018710 -127.500000000000000 -0.300000000006110
0 0

0101101
*
Ed
 0.000000100000000 1 1 0
1  25 0 0.000000000000000 1.000000000000000
4 C0 20 0 18 0
2  72 20 0 0.000000000000000 1.000000000000000
2  73 18 0 0.000000000000000 1.000000000000000
2  74 29 0 0.000000000000000 1.000000000000000
0

0101000
+111 5 -76 0 *
Ed
 0.001000000000000 1 1 0
2  75 31 0 0.400000000000000 22.600000000000001
1  26 0 0.400000000000000 22.600000000000001
2  76 20 0 0.400000000000000 22.600000000000001
0

0101000
+76 0 -94 0 *
Wi

0101100
-109 5 +75 0 +74 0 -93 0 *
Fa
0  0.000000100000000 20 0

0111000
+73 0 *
Ve
0.001000000000000
1.700000000000009 -122.500000000000000 -0.300000000006111
0 0

0101101
*
Ed
 0.000000100000000 1 1 0
1  27 0 0.000000000000000 0.300000000006111
3  77 78CN 23 0 0.000000000000000 0.300000000006111
0

0101000
+107 0 -71 18 *
Ed
 0.001000000000000 1 1 0
1  28 0 0.000000000000000 6.283185307179586
2  79 31 4 0.000000000000000 6.283185307179586
2  80 23 8 0.000000000000000 6.283185307179586
0

0101100
+71 0 -71 0 *
Wi

0101100
-70 8 +69 0 +70 8 +106 8 *
Fa
0  0.000000100000000 23 8

0111000
+68 0 *
Ve
0.001000000000000
1.700000000000000 -75.000000000012022 -0.300000000006121
0 0

0101101
*
Ed
 0.000000100000000 1 1 0
1  27 0 0.000000000000000 0.300000000006121
3  77 78CN 23 0 0.000000000000000 0.300000000006121
0

0101000
+107 0 -66 19 *
Ed
 0.001000000000000 1 1 0
1  29 0 0.000000000000000 6.283185307179586
2  81 31 4 0.000000000000000 6.283185307179586
2  82 23 12 0.000000000000000 6.283185307179586
0

0101100
+66 0 -66 0 *
Wi

0101100
-65 12 +64 0 +65 12 +106 12 *
Fa
0  0.000000100000000 23 12

0111000
+63 0 *
Ve
0.001000000000000
1.700000000000000 0.000000000000000 -0.300000000006138
0 0

0101101
*
Ed
 0.000000100000000 1 1 0
1  27 0 0.000000000000000 0.300000000006138
3  77 78CN 23 0 0.000000000000000 0.300000000006138
0

0101000
+107 0 -61 20 *
Ed
 0.001000000000000 1 1 0
1  30 0 0.000000000000000 6.283185307179586
2  83 31 4 0.000000000000000 6.283185307179586
2  84 23 16 0.000000000000000 6.283185307179586
0

0101100
+61 0 -61 0 *
Wi

0101100
-60 16 +59 0 +60 16 +106 16 *
Fa
0  0.000000100000000 23 16

0111000
+58 0 *
Ve
0.001000000000000
1.700000000000000 75.000000000050946 -0.300000000006155
0 0

0101101
*
Ed
 0.000000100000000 1 1 0
1  27 0 0.000000000000000 0.300000000006155
3  77 78CN 23 0 0.000000000000000 0.300000000006155
0

0101000
+107 0 -56 21 *
Ed
 0.001000000000000 1 1 0
1  31 0 0.000000000000000 6.283185307179586
2  85 31 4 0.000000000000000 6.283185307179586
2  86 23 9 0.000000000000000 6.283185307179586
0

0101100
+56 0 -56 0 *
Wi

0101100
-55 9 +54 0 +55 9 +106 9 *
Fa
0  0.000000100000000 23 9

0111000
+53 0 *
Ve
0.001000000000000
1.700000000521431 122.500000000000000 -0.300000000006165
0 0

0101101
*
Ed
 0.000000100000000 1 1 0
1  27 0 0.000000000000000 0.300000000006165
3  77 78CN 23 0 0.000000000000000 0.300000000006165
0

0101000
+107 0 -51 22 *
Ed
 0.001000000000000 1 1 0
1  32 0 0.000000000000000 6.283185307179586
2  87 31 4 0.000000000000000 6.283185307179586
2  88 23 14 0.000000000000000 6.283185307179586
0

0101100
+51 0 -51 0 *
Wi

0101100
-50 14 +49 0 +50 14 +106 14 *
Fa
0  0.000000100000000 23 14

0111000
+48 0 *
Ed
 0.001000000000000 1 1 0
2  11 24 0 0.000000000000000 274.300000000000011
1  33 0 0.000000000000000 274.300000000000011
2  89 10 0 0.000000000000000 274.300000000000011
2  90 31 0 0.000000000000000 274.300000000000011
0

0101000
+99 0 -94 0 *
Wi

0101100
+46 0 -89 0 -98 0 +92 0 *
Fa
0  0.000000100000000 24 0

0111000
+45 0 *
Ve
0.001000000000000
-11.500000000018710 146.800000000000011 -15.000000000007583
0 0

0101101
*
Ed
 0.001000000000000 1 1 0
1  34 0 0.000000000000000 274.300000000000011
2  91 25 0 0.000000000000000 274.300000000000011
0

0101000
+43 0 -43 5 *
Ed
 0.001000000000000 1 1 0
2  92 32 0 0.000000000000000 14.600000000001414
1  35 0 0.000000000000000 14.600000000001414
2  93 33 6 0.000000000000000 14.600000000001414
2  94 34 0 0.000000000000000 14.600000000001414
2  95 25 0 0.000000000000000 14.600000000001414
2  96 25 6 0.000000000000000 14.600000000001414
0

0101000
+43 0 -86 0 *
Wi

0101100
+42 0 -85 0 -41 0 +41 5 *
Fa
0  0.001000000000000 25 0

0111000
+40 0 *
Ve
0.001000000000000
-11.200000000018710 146.800000000000011 -0.400000000006170
0 0

0101101
*
Ed
 0.000000100000000 1 1 0
2  63 35 0 4.712388980384691 6.283185307179586
1  36 0 4.712388980384691 6.283185307179586
2  97 30 0 4.712388980384691 6.283185307179586
0

0101000
+38 0 -81 0 *
Ed
 0.000000100000002 1 1 0
1  37 0 0.000000000000000 1.000000000000000
2  98 30 0 0.000000000000000 1.000000000000000
4 C0 27 0 30 0
2  99 27 0 0.000000000000000 1.000000000000000
0

0101000
+86 0 -38 0 *
Wi

0101100
+84 0 +79 0 -37 0 -36 0 *
Fa
0  0.000000100000000 30 0

0111000
+35 0 *
Ve
0.001000000000000
-11.200000000018710 -127.500000000000000 -0.400000000006109
0 0

0101101
*
Ed
 0.000000100000001 1 1 0
1  38 0 0.000000000000000 1.000000000000000
2  100 29 0 0.000000000000000 1.000000000000000
4 C0 29 0 27 0
2  101 27 0 0.000000000000000 1.000000000000000
0

0101000
+86 5 -33 0 *
Ed
 0.000000100000000 1 1 0
2  64 35 0 4.712388980384691 6.283185307179586
1  39 0 4.712388980384691 6.283185307179586
2  102 29 0 4.712388980384691 6.283185307179586
0

0101000
+33 0 -76 0 *
Wi

0101100
-84 5 +32 0 +31 0 -75 0 *
Fa
0  0.000000100000000 29 0

0111000
+30 0 *
Ed
 0.001000000000000 1 1 0
2  103 31 0 0.000000000000000 274.300000000000011
1  40 0 0.000000000000000 274.300000000000011
2  104 18 0 0.000000000000000 274.300000000000011
2  105 35 0 0.000000000000000 274.300000000000011
0

0101000
+81 0 -76 0 *
Wi

0101100
+28 4 -80 4 +74 4 -46 4 *
Wi

0101100
+69 0 *
Wi

0101100
+64 0 *
Wi

0101100
+59 0 *
Wi

0101100
+54 0 *
Wi

0101100
+49 0 *
Fa
0  0.001000000000000 31 4

0111000
+27 0 +26 0 +25 0 +24 0 +23 0 +22 0 *
Ve
0.001000000000000
-11.200000000018710 146.800000000000011 -15.000000000007583
0 0

0101101
*
Ed
 0.000000100000000 1 1 0
1  41 0 0.000000000000000 1.000000000000000
4 C0 36 0 34 0
2  106 34 0 0.000000000000000 1.000000000000000
0

0101000
+43 0 -20 0 *
Ve
0.001000000000000
-11.200000000018710 -127.500000000000000 -15.000000000007523
0 0

0101101
*
Ed
 0.001000000000000 1 1 0
2  107 37 0 0.000000000000000 274.300000000000011
1  42 0 0.000000000000000 274.300000000000011
0

0101000
+20 0 -18 0 *
Ed
 0.000000100000000 1 1 0
1  43 0 0.000000000000000 1.000000000000000
4 C0 33 0 36 0
2  108 33 0 0.000000000000000 1.000000000000000
0

0101000
+43 5 -18 0 *
Wi

0101000
-42 0 +19 0 +17 0 -16 0 *
Fa
0  0.000000100000000 36 0

0111000
+15 0 *
Ed
 0.001000000000000 1 1 0
2  109 37 0 0.000000000000000 14.600000000001414
1  44 0 0.000000000000000 14.600000000001414
2  110 34 0 0.000000000000000 14.600000000001414
0

0101000
+20 0 -38 0 *
Wi

0101100
+41 0 +36 0 -13 0 -19 0 *
Fa
0  0.000000100000000 34 0

0111000
+12 0 *
Ed
 0.001000000000000 1 1 0
2  111 37 0 0.000000000000000 14.600000000001414
1  45 0 0.000000000000000 14.600000000001414
2  112 33 0 0.000000000000000 14.600000000001414
0

0101000
+18 0 -33 0 *
Wi

0101100
-41 5 +16 0 +10 0 -32 0 *
Fa
0  0.000000100000000 33 0

0111000
+9 0 *
Ed
 0.001000000000000 1 1 0
2  58 35 0 0.000000000000000 274.300000000000011
1  46 0 0.000000000000000 274.300000000000011
2  113 27 0 0.000000000000000 274.300000000000011
2  114 37 0 0.000000000000000 274.300000000000011
0

0101000
+38 0 -33 0 *
Wi

0101100
+7 0 -28 0 -37 0 +31 0 *
Fa
0  0.000000100000000 35 0

0111000
+6 0 *
Wi

0101100
+17 0 -7 0 -13 0 +10 0 *
Fa
0  0.001000000000000 37 0

0111000
+4 0 *
Sh

0101100
+134 4 +129 4 +122 4 +117 4 +112 4 +100 0 +95 4 +90 4 -87 4 +82 4 
+77 4 +72 4 +67 0 +62 0 +57 0 +52 0 +47 0 -44 4 +39 4 +34 4 
+29 4 -21 0 +14 4 +11 4 +8 4 -5 4 -3 4 *
So

0100000
+2 0 *

+1 1 