
CASCADE Topology V1, (c) Matra-Datavision
Locations 19
1
1.000000000000000 0.000000000000000 0.000000000000000 0.000000000000000 
0.000000000000000 1.000000000000000 0.000000000000000 0.000000000000000 
0.000000000000000 0.000000000000000 1.000000000000000 0.000000000000000 
1
1.000000000000000 0.000000000000000 0.000000000000000 0.000000000000000 
0.000000000000000 1.000000000000000 0.000000000000000 0.000000000000000 
0.000000000000000 0.000000000000000 1.000000000000000 0.000000000000000 
1
1.000000000000000 0.000000000000000 0.000000000000000 0.000000000000000 
0.000000000000000 1.000000000000000 0.000000000000000 0.000000000000000 
0.000000000000000 0.000000000000000 1.000000000000000 0.000000000000000 
2  2 1 3 -1 0
1
1.000000000000000 0.000000000000000 0.000000000000000 0.000000000000000 
0.000000000000000 1.000000000000000 0.000000000000000 0.000000000000000 
0.000000000000000 0.000000000000000 1.000000000000000 0.000000000000000 
1
1.000000000000000 0.000000000000000 0.000000000000000 0.000000000000000 
0.000000000000000 1.000000000000000 0.000000000000000 0.000000000000000 
0.000000000000000 0.000000000000000 1.000000000000000 0.000000000000000 
1
1.000000000000000 0.000000000000000 0.000000000000000 0.000000000000000 
0.000000000000000 1.000000000000000 0.000000000000000 0.000000000000000 
0.000000000000000 0.000000000000000 1.000000000000000 0.000000000000000 
1
1.000000000000000 0.000000000000000 0.000000000000000 0.000000000000000 
0.000000000000000 1.000000000000000 0.000000000000000 0.000000000000000 
0.000000000000000 0.000000000000000 1.000000000000000 0.000000000000000 
2  5 1 6 -1 7 1 8 -1 0
1
1.000000000000000 0.000000000000000 0.000000000000000 0.000000000000000 
0.000000000000000 1.000000000000000 0.000000000000000 -100.000000000000000 
0.000000000000000 0.000000000000000 1.000000000000000 -0.000000000000022 
2  10 -1 0
2  8 1 7 -1 6 1 5 -1 0
2  7 1 8 -1 0
2  5 1 6 -1 0
2  5 1 6 -1 7 1 8 -1 2 1 3 -1 0
2  7 1 8 -1 2 1 3 -1 0
1
1.000000000000000 0.000000000000000 0.000000000000000 0.000000000000007 
0.000000000000000 1.000000000000000 0.000000000000000 -33.212074235133215 
0.000000000000000 0.000000000000000 1.000000000000000 0.000000000000000 
2  5 1 6 -1 7 1 8 -1 2 1 3 -1 17 -1 0
2  17 -1 0
Curve2ds 132
1 0.00000000000000000 0.00000000000000000 1.00000000000000000 0.00000000000000000 
1 0.00000000000000000 -0.30000000000000071 -1.00000000000000000 0.00000000000000000 
1 0.00000000000000000 -0.30000000000000071 1.00000000000000000 0.00000000000000000 
1 -0.39999999999999991 0.00000000000000009 1.00000000000000000 0.00000000000000000 
1 -0.39999999999999991 -100.00000000000000000 1.00000000000000000 0.00000000000000000 
1 71.59999999999999432 0.00000000000000009 0.00000000000000000 -1.00000000000000000 
1 0.00000000000000000 -0.30000000000000071 1.00000000000000000 0.00000000000000000 
8 10.53100200000000797 82.13100199999999518
1 -10.53100200000000797 -44.00000000000000000 1.00000000000000000 -0.00000000000000022 
8 10.53100200000000797 82.13100199999999518
1 10.53100199999999909 -687.54688802831378780 1.00000000000000000 0.00000000000000000 
1 1.57079632679489656 0.00000000000000000 0.00000000000000000 -1.00000000000000000 
1 0.00000000000000000 -0.29999999999999893 1.00000000000000000 0.00000000000000000 
1 0.00000000000000000 -0.30000000000000071 -1.00000000000000000 0.00000000000000000 
1 0.00000000000000000 0.00000000000000000 0.00000000000000000 -1.00000000000000000 
2 61.59999999999996589 -37.00000000000002132 0.00000000000000044 1.00000000000000000 -1.00000000000000000 0.00000000000000044 1.70000000000000018
1 0.00000000000000000 -115.10502083251176941 1.00000000000000000 0.00000000000000000 
2 61.59999999999997300 -7.00000000000002398 0.00000000000000044 1.00000000000000000 -1.00000000000000000 0.00000000000000044 1.70000000000000018
1 0.00000000000000000 -115.10502083251176941 1.00000000000000000 0.00000000000000000 
6 0 1 72.00000000000000000 -0.30000000000000071  72.00000000000000000 0.00000000000000000  
6 0 1 0.00000000000000000 -0.30000000000000071  0.00000000000000000 0.00000000000000000  
1 -0.39999999999999991 0.00000000000000009 1.00000000000000000 0.00000000000000000 
1 0.00000000000000000 0.00000000000000000 1.00000000000000000 0.00000000000000000 
6 0 1 0.00000000000000000 -0.30000000000000071  0.00000000000000000 0.00000000000000000  
6 0 1 0.39999999999999991 -0.30000000000000071  0.39999999999999991 0.00000000000000000  
8 0.00000000000000000 1.00000000000000000
1 1.57079632679489656 0.00000000000000000 0.00000000000000000 1.00000000000000000 
1 71.59999999999999432 0.00000000000000009 0.00000000000000000 -1.00000000000000000 
1 0.00000000000000000 0.00000000000000000 1.00000000000000000 0.00000000000000000 
8 343.62344401415691664 343.92344401415692801
1 44.00000000000001421 -343.92344401415692801 0.00000000000000000 1.00000000000000000 
8 343.62344401415691664 343.92344401415692801
1 92.66200400000001025 -343.92344401415687116 0.00000000000000000 -1.00000000000000000 
8 10.53100200000000797 82.13100199999999518
1 -10.53100200000000797 -44.00000000000000000 1.00000000000000000 -0.00000000000000022 
8 10.53100200000000797 82.13100199999999518
1 10.53100199999999909 -687.84688802831374232 1.00000000000000000 0.00000000000000000 
1 0.00000000000000000 -44.00000000000000000 1.00000000000000000 0.00000000000000000 
2 21.06200400000000883 -687.94688802831376506 -1.00000000000000000 0.00000000000000000 0.00000000000000000 1.00000000000000000 0.10000000000000003
8 -355.07344401415690527 -332.87344401415691664
1 355.07344401415690527 -44.00000000000000000 1.00000000000000000 0.00000000000000000 
8 -355.07344401415690527 -332.87344401415691664
1 20.96200400000000741 -355.07344401415690527 0.00000000000000000 1.00000000000000000 
1 0.00000000000000000 -44.00000000000000000 1.00000000000000000 0.00000000000000000 
2 21.06200400000000883 -710.14688802831381054 -1.00000000000000000 0.00000000000000377 0.00000000000000377 1.00000000000000000 0.10000000000000003
8 -46.33100200000001223 25.26899799999998919
1 46.33100200000000513 -44.00000000000000711 1.00000000000000000 0.00000000000000022 
8 -46.33100200000001223 25.26899799999998919
1 46.33100199999999802 -710.24688802831383327 -1.00000000000000000 0.00000000000000000 
8 355.12344401415685979 355.42344401415687116
1 -44.00000000000001421 355.12344401415685979 -0.00000000000000000 -1.00000000000000000 
8 355.12344401415685979 355.42344401415687116
1 92.66200400000001025 -355.12344401415691664 0.00000000000000000 -1.00000000000000000 
8 -46.33100200000001223 25.26899799999998919
1 46.33100200000000513 -44.00000000000000711 1.00000000000000000 0.00000000000000022 
8 -46.33100200000001223 25.26899799999998919
1 46.33100199999999802 -710.54688802831378780 -1.00000000000000000 0.00000000000000000 
1 0.00000000000000000 -44.00000000000000000 1.00000000000000000 0.00000000000000000 
2 21.06200400000000883 -710.14688802831381054 -1.00000000000000000 0.00000000000000377 0.00000000000000377 1.00000000000000000 0.40000000000000002
8 -355.07344401415690527 -332.87344401415691664
1 355.07344401415690527 -44.00000000000000000 1.00000000000000000 0.00000000000000000 
8 -355.07344401415690527 -332.87344401415691664
1 20.66200400000000670 -355.07344401415690527 0.00000000000000000 1.00000000000000000 
1 0.00000000000000000 -44.00000000000000000 1.00000000000000000 0.00000000000000000 
2 21.06200400000000883 -687.94688802831376506 -1.00000000000000000 0.00000000000000000 0.00000000000000000 1.00000000000000000 0.40000000000000002
1 0.00000000000000000 100.00000000000000000 1.00000000000000000 0.00000000000000000 
1 0.00000000000000000 0.00000000000000000 1.00000000000000000 0.00000000000000000 
1 0.00000000000000000 -100.00000000000000000 1.00000000000000000 0.00000000000000000 
1 6.28318530717958623 0.00000000000000000 -1.00000000000000000 0.00000000000000000 
1 0.00000000000000000 0.00000000000000000 1.00000000000000000 0.00000000000000000 
1 0.00000000000000000 0.00000000000000000 0.00000000000000000 -1.00000000000000000 
1 -0.00000000000000007 -0.29999999999999999 1.00000000000000000 0.00000000000000000 
1 0.00000000000000007 -0.29999999999999988 -1.00000000000000000 0.00000000000000000 
1 22.20000000000000284 0.00000000000000000 0.00000000000000000 -1.00000000000000000 
1 0.00000000000000000 0.00000000000000000 0.00000000000000000 -1.00000000000000000 
1 6.28318530717958623 0.00000000000000000 0.00000000000000000 -1.00000000000000000 
2 61.59999999999996589 -37.00000000000002132 0.00000000000000044 1.00000000000000000 -1.00000000000000000 0.00000000000000044 1.70000000000000018
1 0.00000000000000000 -115.40502083251176657 1.00000000000000000 0.00000000000000000 
1 0.00000000000000000 0.00000000000000000 0.00000000000000000 -1.00000000000000000 
1 6.28318530717958623 0.00000000000000000 0.00000000000000000 -1.00000000000000000 
2 61.59999999999997300 -7.00000000000002398 0.00000000000000044 1.00000000000000000 -1.00000000000000000 0.00000000000000044 1.70000000000000018
1 0.00000000000000000 -115.40502083251176657 1.00000000000000000 0.00000000000000000 
1 0.00000000000000000 0.00000000000000000 0.00000000000000000 -1.00000000000000000 
1 0.00000000000000000 0.00000000000000000 -1.00000000000000000 0.00000000000000000 
8 0.00000000000000000 100.00000000000000000
1 1.57079632679489656 0.00000000000000000 0.00000000000000000 -1.00000000000000000 
1 0.00000000000000000 1.00000000000000000 1.00000000000000000 0.00000000000000000 
1 0.00000000000000000 0.00000000000000000 0.00000000000000000 1.00000000000000000 
6 0 1 0.00000000000000000 -0.29999999999999988  0.00000000000000000 0.00000000000000000  
1 0.00000000000000000 0.00000000000000000 -1.00000000000000000 0.00000000000000000 
1 22.20000000000000284 0.00000000000000000 0.00000000000000000 -1.00000000000000000 
1 -0.40000000000000036 0.00000000000000000 1.00000000000000000 0.00000000000000000 
1 0.00000000000000000 0.00000000000000000 1.00000000000000000 0.00000000000000000 
1 0.00000000000000000 0.00000000000000000 0.00000000000000000 -1.00000000000000000 
1 0.00000000000000000 0.00000000000000000 -1.00000000000000000 0.00000000000000000 
8 0.00000000000000000 100.00000000000000000
1 6.28318530717958623 0.00000000000000000 0.00000000000000000 -1.00000000000000000 
2 11.10000000000000675 -25.21207423513321544 1.00000000000000000 0.00000000000000000 0.00000000000000000 -1.00000000000000000 1.69999999999999996
1 6.28318530717958623 0.30000000000000737 -1.00000000000000000 0.00000000000000000 
1 0.00000000000000000 0.00000000000000000 1.00000000000000000 0.00000000000000000 
1 0.00000000000000000 1.00000000000000000 1.00000000000000000 0.00000000000000000 
1 4.71238898038468612 0.00000000000000000 0.00000000000000000 -1.00000000000000000 
1 0.00000000000000000 0.00000000000000000 -1.00000000000000000 0.00000000000000000 
1 71.59999999999999432 -0.00000000000000187 0.00000000000000000 -1.00000000000000000 
1 0.00000000000000000 0.00000000000000000 1.00000000000000000 0.00000000000000000 
1 0.00000000000000000 0.00000000000000000 1.00000000000000000 0.00000000000000000 
1 0.00000000000000000 0.00000000000000000 0.00000000000000000 -1.00000000000000000 
1 0.00000000000000000 0.00000000000000000 -1.00000000000000000 0.00000000000000000 
2 10.00000000000003730 -37.00000000000002132 -0.00000000000000044 1.00000000000000000 1.00000000000000000 0.00000000000000044 1.70000000000000018
1 0.00000000000000000 -137.80502083251175804 1.00000000000000000 0.00000000000000000 
2 10.00000000000003020 -7.00000000000001865 -0.00000000000000044 1.00000000000000000 1.00000000000000000 0.00000000000000044 1.70000000000000018
1 0.00000000000000000 -137.80502083251175804 1.00000000000000000 0.00000000000000000 
1 0.00000000000000000 0.00000000000000000 0.00000000000000000 -1.00000000000000000 
1 0.00000000000000000 -0.30000000000000071 -1.00000000000000000 0.00000000000000000 
6 0 1 0.00000000000000000 -0.30000000000000071  0.00000000000000000 0.00000000000000000  
6 0 1 0.00000000000000000 -0.30000000000000071  0.00000000000000000 0.00000000000000000  
1 0.00000000000000000 0.00000000000000000 1.00000000000000000 0.00000000000000000 
1 0.00000000000000000 -0.30000000000000071 -1.00000000000000000 0.00000000000000000 
1 0.00000000000000000 -0.30000000000000071 1.00000000000000000 0.00000000000000000 
1 0.00000000000000000 0.00000000000000000 1.00000000000000000 0.00000000000000000 
1 -0.00000000000000622 -100.00000000000000000 1.00000000000000000 0.00000000000000000 
1 -0.00000000000000000 -0.30000000000000071 1.00000000000000000 0.00000000000000000 
1 0.00000000000000178 -0.30000000000000071 -1.00000000000000000 0.00000000000000000 
1 71.59999999999999432 -0.00000000000000009 0.00000000000000000 -1.00000000000000000 
2 10.00000000000003730 -37.00000000000002132 -0.00000000000000044 1.00000000000000000 1.00000000000000000 0.00000000000000044 1.70000000000000018
1 0.00000000000000000 -138.10502083251176941 1.00000000000000000 0.00000000000000000 
2 10.00000000000003020 -7.00000000000001865 -0.00000000000000044 1.00000000000000000 1.00000000000000000 0.00000000000000044 1.70000000000000018
1 0.00000000000000000 -138.10502083251176941 1.00000000000000000 0.00000000000000000 
1 -4.71238898038468612 100.00000000000000000 1.00000000000000000 0.00000000000000000 
1 0.00000000000000000 -100.00000000000000000 1.00000000000000000 0.00000000000000000 
1 6.28318530717958623 0.00000000000000000 -1.00000000000000000 0.00000000000000000 
1 0.00000000000000000 0.00000000000000000 1.00000000000000000 0.00000000000000000 
1 6.28318530717958623 0.00000000000000000 0.00000000000000000 -1.00000000000000000 
1 -0.00000000000000184 -0.30000000000000032 1.00000000000000000 0.00000000000000000 
1 0.00000000000000007 -0.29999999999999999 -1.00000000000000000 0.00000000000000000 
1 0.00000000000000000 0.00000000000000000 0.00000000000000000 -1.00000000000000000 
1 0.00000000000000000 0.00000000000000000 1.00000000000000000 0.00000000000000000 
1 0.00000000000000000 -0.29999999999999999 -1.00000000000000000 0.00000000000000000 
1 0.00000000000000000 -0.29999999999999999 1.00000000000000000 0.00000000000000000 
1 -0.40000000000000036 0.00000000000000000 1.00000000000000000 0.00000000000000000 
1 -0.40000000000000036 -100.00000000000000000 1.00000000000000000 0.00000000000000000 
2 0.00000000000000000 0.00000000000000000 -1.00000000000000000 0.00000000000000000 0.00000000000000000 1.00000000000000000 1.69999999999999996
1 0.00000000000000000 0.00000000000000000 1.00000000000000000 0.00000000000000000 
2 11.10000000000000675 -25.21207423513321544 1.00000000000000000 0.00000000000000000 -0.00000000000000000 1.00000000000000000 1.69999999999999996
6 0 1 0.40000000000000036 -0.29999999999999999  0.40000000000000036 0.00000000000000000  
6 0 1 0.00000000000000000 -0.29999999999999999  0.00000000000000000 0.00000000000000000  
8 0.00000000000000000 1.00000000000000000
1 6.28318530717958623 0.00000000000000000 0.00000000000000000 1.00000000000000000 
1 6.28318530717958623 0.00000000000000000 0.00000000000000000 1.00000000000000000 
1 0.00000000000000000 0.00000000000000000 0.00000000000000000 1.00000000000000000 
1 4.71238898038468612 0.00000000000000000 0.00000000000000000 1.00000000000000000 
6 0 1 0.00000000000000178 -0.30000000000000071  0.00000000000000000 0.00000000000000000  
Curves 53
1 11.50000000000000000 -8.00000000000000000 -0.00000000000000178 0.00000000000000000 0.00000000000000022 -1.00000000000000000 
1 11.50000000000000000 -7.99999999999998401 -72.00000000000000000 0.00000000000000000 -1.00000000000000000 -0.00000000000000022 
1 11.50000000000000000 -52.00000000000000000 10.13100199999999695 0.00000000000000000 0.00000000000000000 -1.00000000000000000 
1 11.50000000000000000 -8.00000000000000000 -0.40000000000000169 0.00000000000000000 -1.00000000000000000 -0.00000000000000022 
2 11.50000000000000000 -45.00000000000000711 -61.99999999999997158 1.00000000000000000 -0.00000000000000022 0.00000000000000022 0.00000000000000022 1.00000000000000000 -0.00000000000000022 -0.00000000000000022 0.00000000000000022 1.00000000000000000 1.70000000000000018
2 11.50000000000000000 -15.00000000000001066 -61.99999999999997158 1.00000000000000000 -0.00000000000000022 0.00000000000000022 0.00000000000000022 1.00000000000000000 -0.00000000000000022 -0.00000000000000022 0.00000000000000022 1.00000000000000000 1.70000000000000018
6 0 1 11.50000000000000000 -7.99999999999998401 -72.00000000000000000  11.19999999999999929 -7.99999999999998401 -72.00000000000000000  
1 11.19999999999999929 -8.00000000000000000 -0.00000000000000178 0.00000000000000000 0.00000000000000022 -1.00000000000000000 
6 0 1 11.50000000000000000 -8.00000000000000000 -0.40000000000000169  11.19999999999999929 -8.00000000000000000 -0.40000000000000169  
1 11.19999999999999929 -7.99999999999998401 -72.00000000000000000 0.00000000000000000 -1.00000000000000000 -0.00000000000000022 
1 355.12344401415691664 -52.00000000000000000 -72.00000000000001421 -1.00000000000000000 -0.00000000000000000 -0.00000000000000000 
1 11.20000000000002238 -52.00000000000000000 10.13100199999999695 0.00000000000000000 0.00000000000000000 -1.00000000000000000 
2 11.10000000000000142 -52.00000000000000000 -0.40000000000001146 0.00000000000000000 1.00000000000000000 0.00000000000000022 0.00000000000000000 -0.00000000000000022 1.00000000000000000 1.00000000000000000 0.00000000000000000 -0.00000000000000000 0.10000000000000003
1 343.97344401415688253 -52.00000000000000000 -0.30000000000001148 1.00000000000000000 0.00000000000000000 0.00000000000000000 
2 -11.09999999999999964 -52.00000000000000000 -0.40000000000001190 0.00000000000000000 1.00000000000000000 0.00000000000000022 0.00000000000000377 -0.00000000000000022 1.00000000000000000 1.00000000000000000 0.00000000000000000 -0.00000000000000377 0.10000000000000003
1 -11.20000000000002238 -52.00000000000000000 -25.66899800000000198 0.00000000000000000 0.00000000000000000 1.00000000000000000 
1 343.92344401415687116 -52.00000000000000000 -72.00000000000001421 -1.00000000000000000 -0.00000000000000000 -0.00000000000000000 
1 -11.50000000000000000 -52.00000000000000000 -25.66899800000000198 0.00000000000000000 0.00000000000000000 1.00000000000000000 
2 -11.09999999999999964 -52.00000000000000000 -0.40000000000001190 0.00000000000000000 1.00000000000000000 0.00000000000000022 0.00000000000000377 -0.00000000000000022 1.00000000000000000 1.00000000000000000 0.00000000000000000 -0.00000000000000377 0.40000000000000002
1 343.97344401415688253 -52.00000000000000000 -0.00000000000001110 1.00000000000000000 0.00000000000000000 0.00000000000000000 
2 11.10000000000000142 -52.00000000000000000 -0.40000000000001146 0.00000000000000000 1.00000000000000000 0.00000000000000022 0.00000000000000000 -0.00000000000000022 1.00000000000000000 1.00000000000000000 0.00000000000000000 -0.00000000000000000 0.40000000000000002
2 11.10000000000000142 -8.00000000000000000 -0.40000000000000169 -0.00000000000000000 1.00000000000000000 0.00000000000000022 0.00000000000000000 -0.00000000000000022 1.00000000000000000 1.00000000000000000 0.00000000000000000 0.00000000000000000 0.40000000000000002
1 11.10000000000000142 -8.00000000000000000 -0.00000000000000178 0.00000000000000000 -1.00000000000000000 -0.00000000000000022 
1 126.60502083251176941 -43.30000000000003979 -61.99999999999994316 -1.00000000000000000 0.00000000000000022 -0.00000000000000028 
2 11.20000000000000284 -45.00000000000000711 -61.99999999999997158 1.00000000000000000 -0.00000000000000022 0.00000000000000022 0.00000000000000022 1.00000000000000000 -0.00000000000000022 -0.00000000000000022 0.00000000000000022 1.00000000000000000 1.70000000000000018
1 126.60502083251176941 -13.30000000000003624 -61.99999999999995026 -1.00000000000000000 0.00000000000000022 -0.00000000000000028 
2 11.20000000000000284 -15.00000000000001066 -61.99999999999997158 1.00000000000000000 -0.00000000000000022 0.00000000000000022 0.00000000000000022 1.00000000000000000 -0.00000000000000022 -0.00000000000000022 0.00000000000000022 1.00000000000000000 1.70000000000000018
1 11.19999999999999929 -8.00000000000000000 -0.40000000000000169 0.00000000000000000 -1.00000000000000000 -0.00000000000000022 
2 11.10000000000000142 -8.00000000000000000 -0.40000000000000169 -0.00000000000000000 1.00000000000000000 0.00000000000000022 0.00000000000000000 -0.00000000000000022 1.00000000000000000 1.00000000000000000 0.00000000000000000 0.00000000000000000 0.10000000000000003
6 0 1 11.10000000000000142 -8.00000000000000000 -0.00000000000000178  11.10000000000000142 -8.00000000000000000 -0.30000000000000165  
1 11.10000000000000142 -8.00000000000000000 -0.30000000000000165 0.00000000000000000 -1.00000000000000000 -0.00000000000000022 
1 -11.50000000000000000 -8.00000000000000000 -0.30000000000000177 1.00000000000000000 0.00000000000000000 0.00000000000000000 
1 -11.09999999999999964 -8.00000000000000000 -0.30000000000000177 0.00000000000000000 -1.00000000000000000 -0.00000000000000022 
2 0.00000000000000711 -33.21207423513321544 -0.30000000000000737 0.00000000000000000 0.00000000000000000 -1.00000000000000000 1.00000000000000000 0.00000000000000000 0.00000000000000000 0.00000000000000000 -1.00000000000000000 0.00000000000000000 1.69999999999999996
2 -11.09999999999999964 -8.00000000000000178 -0.40000000000000213 0.00000000000000000 1.00000000000000000 0.00000000000000022 0.00000000000000377 -0.00000000000000022 1.00000000000000000 1.00000000000000000 0.00000000000000000 -0.00000000000000377 0.10000000000000003
1 -11.19999999999999929 -8.00000000000000178 -0.40000000000000213 -0.00000000000000000 -1.00000000000000000 -0.00000000000000022 
1 -11.19999999999999929 -7.99999999999998401 -72.00000000000000000 0.00000000000000000 -0.00000000000000022 1.00000000000000000 
1 -11.19999999999999929 -7.99999999999998401 -72.00000000000000000 0.00000000000000000 -1.00000000000000000 -0.00000000000000022 
2 -11.19999999999998863 -45.00000000000000711 -61.99999999999997158 1.00000000000000000 -0.00000000000000022 0.00000000000000022 0.00000000000000022 1.00000000000000000 -0.00000000000000022 -0.00000000000000022 0.00000000000000022 1.00000000000000000 1.70000000000000018
2 -11.19999999999998863 -15.00000000000000533 -61.99999999999997158 1.00000000000000000 -0.00000000000000022 0.00000000000000022 0.00000000000000022 1.00000000000000000 -0.00000000000000022 -0.00000000000000022 0.00000000000000022 1.00000000000000000 1.70000000000000018
1 -11.50000000000000000 -7.99999999999998401 -72.00000000000000000 0.00000000000000000 -1.00000000000000000 -0.00000000000000022 
6 0 1 -11.50000000000000000 -7.99999999999998401 -72.00000000000000000  -11.19999999999999929 -7.99999999999998401 -72.00000000000000000  
1 -11.50000000000000000 -7.99999999999998401 -72.00000000000000000 0.00000000000000000 -0.00000000000000022 1.00000000000000000 
1 -11.50000000000000000 -8.00000000000000000 -0.40000000000000568 0.00000000000000000 -1.00000000000000000 -0.00000000000000022 
2 -11.50000000000000000 -45.00000000000000711 -61.99999999999997158 1.00000000000000000 -0.00000000000000022 0.00000000000000022 0.00000000000000022 1.00000000000000000 -0.00000000000000022 -0.00000000000000022 0.00000000000000022 1.00000000000000000 1.70000000000000018
2 -11.50000000000000000 -15.00000000000000533 -61.99999999999997158 1.00000000000000000 -0.00000000000000022 0.00000000000000022 0.00000000000000022 1.00000000000000000 -0.00000000000000022 -0.00000000000000022 0.00000000000000022 1.00000000000000000 1.70000000000000018
2 -11.09999999999999964 -8.00000000000000178 -0.40000000000000213 0.00000000000000000 1.00000000000000000 0.00000000000000022 0.00000000000000377 -0.00000000000000022 1.00000000000000000 1.00000000000000000 0.00000000000000000 -0.00000000000000377 0.40000000000000002
1 -11.09999999999999964 -8.00000000000000000 -0.00000000000000178 0.00000000000000000 -1.00000000000000000 -0.00000000000000022 
1 -11.50000000000000000 -8.00000000000000000 -0.00000000000000178 1.00000000000000000 0.00000000000000000 0.00000000000000000 
2 0.00000000000000000 0.00000000000000000 0.00000000000000000 0.00000000000000000 0.00000000000000000 1.00000000000000000 1.00000000000000000 0.00000000000000000 -0.00000000000000000 -0.00000000000000000 1.00000000000000000 0.00000000000000000 1.69999999999999996
6 0 1 -11.09999999999999964 -8.00000000000000000 -0.00000000000000178  -11.09999999999999964 -8.00000000000000000 -0.30000000000000177  
1 1.69999999999999996 0.00000000000000000 -0.00000000000000000 -0.00000000000000006 0.00000000000000000 -1.00000000000000000 
6 0 1 -11.50000000000000000 -8.00000000000000000 -0.40000000000000568  -11.19999999999999929 -8.00000000000000178 -0.40000000000000213  
Polygon3D 0
PolygonOnTriangulations 0
Surfaces 40
1 11.50000000000000000 -8.00000000000000000 -0.40000000000000169 1.00000000000000000 0.00000000000000000 0.00000000000000000 0.00000000000000000 0.00000000000000022 -1.00000000000000000 -0.00000000000000000 1.00000000000000000 0.00000000000000022 
1 11.50000000000000000 -8.00000000000000000 -0.00000000000000178 1.00000000000000000 0.00000000000000000 0.00000000000000000 0.00000000000000000 0.00000000000000022 -1.00000000000000000 -0.00000000000000000 1.00000000000000000 0.00000000000000022 
1 11.19999999999999929 -108.00000000000000000 -0.00000000000002398 -0.00000000000000000 -1.00000000000000000 -0.00000000000000022 -0.00000000000000000 -0.00000000000000022 1.00000000000000000 -1.00000000000000000 0.00000000000000000 0.00000000000000000 
1 11.19999999999999929 -8.00000000000000000 -0.00000000000000178 0.00000000000000000 1.00000000000000000 0.00000000000000022 0.00000000000000000 0.00000000000000022 -1.00000000000000000 -1.00000000000000000 0.00000000000000000 0.00000000000000000 
1 11.19999999999999929 -7.99999999999998401 -72.00000000000000000 0.00000000000000000 0.00000000000000022 -1.00000000000000000 0.00000000000000000 -1.00000000000000000 -0.00000000000000022 -1.00000000000000000 0.00000000000000000 -0.00000000000000000 
1 699.04688802831378780 -52.00000000000000000 20.66200399999999604 0.00000000000000000 -1.00000000000000000 0.00000000000000000 0.00000000000000000 0.00000000000000000 -1.00000000000000000 1.00000000000000000 0.00000000000000000 0.00000000000000000 
2 11.10000000000000142 -8.00000000000000000 -0.40000000000000169 -0.00000000000000000 1.00000000000000000 0.00000000000000022 0.00000000000000000 -0.00000000000000022 1.00000000000000000 1.00000000000000000 0.00000000000000000 0.00000000000000000 0.40000000000000002
1 11.20000000000000107 -8.00000000000000000 -0.40000000000000169 0.00000000000000000 0.00000000000000022 -1.00000000000000000 0.00000000000000000 -1.00000000000000000 -0.00000000000000022 -1.00000000000000000 0.00000000000000000 -0.00000000000000000 
1 11.19999999999999929 -8.00000000000000000 -0.40000000000000169 0.00000000000000000 -0.00000000000000022 1.00000000000000000 -0.00000000000000000 1.00000000000000000 0.00000000000000022 -1.00000000000000000 -0.00000000000000000 0.00000000000000000 
2 126.60502083251176941 -45.00000000000003553 -61.99999999999994316 1.00000000000000000 -0.00000000000000022 0.00000000000000022 0.00000000000000022 1.00000000000000000 -0.00000000000000022 -0.00000000000000022 0.00000000000000022 1.00000000000000000 1.70000000000000018
2 126.60502083251176941 -15.00000000000003553 -61.99999999999994316 1.00000000000000000 -0.00000000000000022 0.00000000000000022 0.00000000000000022 1.00000000000000000 -0.00000000000000022 -0.00000000000000022 0.00000000000000022 1.00000000000000000 1.70000000000000018
1 11.19999999999999929 -8.00000000000000000 -0.40000000000000169 1.00000000000000000 0.00000000000000000 0.00000000000000000 0.00000000000000000 0.00000000000000022 -1.00000000000000000 -0.00000000000000000 1.00000000000000000 0.00000000000000022 
9 0 0 0 0 7 1 8 2 2 2 11.10000000000000142 -8.00000000000000000 -0.00000000000000167  11.09999999999999964 -8.00000000000000000 -0.30000000000000171  
11.18975979010259536 -8.00000000000001776 -0.00000000000000229  11.12243994752566856 -8.00000000000001776 -0.30000000000000265  
11.27951914599323047 -7.99999999999990230 -0.02349955462065449  11.14487978649820654 -7.99999999999990230 -0.30587488865515999  
11.36189877632947542 -8.00000000000018296 -0.07049491111912549  11.16547469408257776 -8.00000000000018296 -0.31762372777979198  
11.42950508888059069 -7.99999999999982503 -0.13810122367081407  11.18237627221995290 -7.99999999999982503 -0.33452530591769558  
11.47650044537952319 -8.00000000000009948 -0.22048085400662462  11.19412511134497912 -8.00000000000009948 -0.35512021350166245  
11.49999999999994849 -7.99999999999997158 -0.31024020989743561  11.19999999999996909 -7.99999999999997158 -0.37756005247435886  
11.50000000000000178 -8.00000000000000000 -0.40000000000000169  11.19999999999999929 -8.00000000000000000 -0.40000000000000174  

0.00000000000000000 8
1.57079632679489656 8

0.00000000000000000 2
1.00000000000000000 2

2 11.10000000000000142 -8.00000000000000000 -0.40000000000000169 -0.00000000000000000 1.00000000000000000 0.00000000000000022 0.00000000000000000 -0.00000000000000022 1.00000000000000000 1.00000000000000000 0.00000000000000000 0.00000000000000000 0.10000000000000003
1 -11.09999999999999964 -8.00000000000000000 -0.30000000000000177 0.00000000000000000 -0.00000000000000022 1.00000000000000000 1.00000000000000000 0.00000000000000000 0.00000000000000000 -0.00000000000000000 1.00000000000000000 0.00000000000000022 
2 -11.09999999999999964 -8.00000000000000178 -0.40000000000000213 0.00000000000000000 1.00000000000000000 0.00000000000000022 0.00000000000000377 -0.00000000000000022 1.00000000000000000 1.00000000000000000 0.00000000000000000 -0.00000000000000377 0.10000000000000003
1 -11.19999999999999929 -7.99999999999998401 -72.00000000000000000 -1.00000000000000000 -0.00000000000000000 0.00000000000000000 0.00000000000000000 -0.00000000000000022 1.00000000000000000 0.00000000000000000 1.00000000000000000 0.00000000000000022 
1 -11.19999999999999929 -7.99999999999998401 -72.00000000000000000 0.00000000000000000 0.00000000000000022 -1.00000000000000000 0.00000000000000000 1.00000000000000000 0.00000000000000022 1.00000000000000000 -0.00000000000000000 0.00000000000000000 
1 -11.50000000000000000 -7.99999999999998401 -72.00000000000000000 -1.00000000000000000 -0.00000000000000000 0.00000000000000000 0.00000000000000000 -0.00000000000000022 1.00000000000000000 0.00000000000000000 1.00000000000000000 0.00000000000000022 
2 -11.09999999999999964 -8.00000000000000178 -0.40000000000000213 0.00000000000000000 1.00000000000000000 0.00000000000000022 0.00000000000000377 -0.00000000000000022 1.00000000000000000 1.00000000000000000 0.00000000000000000 -0.00000000000000377 0.40000000000000002
1 -11.09999999999999964 -8.00000000000000000 -0.00000000000000178 0.00000000000000000 -0.00000000000000022 1.00000000000000000 1.00000000000000000 0.00000000000000000 0.00000000000000000 -0.00000000000000000 1.00000000000000000 0.00000000000000022 
2 11.10000000000000142 -108.00000000000000000 -0.40000000000002389 -0.00000000000000000 1.00000000000000000 0.00000000000000022 0.00000000000000000 -0.00000000000000022 1.00000000000000000 1.00000000000000000 0.00000000000000000 0.00000000000000000 0.40000000000000002
9 0 0 0 0 7 1 8 2 2 2 11.49999999999999289 -107.99999999999992895 -0.40000000000002378  11.19999999999999574 -107.99999999999992895 -0.40000000000002356  
11.50000000000007638 -108.00000000000103739 -0.31024020989746048  11.20000000000010942 -108.00000000000103739 -0.37756005247438573  
11.47650044537920877 -107.99999999999749889 -0.22048085400663991  11.19412511134460608 -107.99999999999749889 -0.35512021350167150  
11.42950508888102057 -108.00000000000332534 -0.13810122367084660  11.18237627222053554 -108.00000000000332534 -0.33452530591773805  
11.36189877632913259 -107.99999999999739941 -0.07049491111913880  11.16547469408206084 -107.99999999999739941 -0.31762372777979603  
11.27951914599337080 -108.00000000000119371 -0.02349955462068143  11.14487978649845346 -108.00000000000119371 -0.30587488865519119  
11.18975979010258648 -107.99999999999971578 -0.00000000000002331  11.12243994752561882 -107.99999999999971578 -0.30000000000002292  
11.09999999999999964 -108.00000000000000000 -0.00000000000002384  11.10000000000000320 -108.00000000000000000 -0.30000000000002380  

4.71238898038468967 8
6.28318530717958623 8

0.00000000000000000 2
1.00000000000000000 2

1 11.10000000000000320 -8.00000000000000000 -0.30000000000000177 1.00000000000000000 -0.00000000000000000 0.00000000000000592 0.00000000000000000 -1.00000000000000000 -0.00000000000000022 0.00000000000000592 0.00000000000000022 -1.00000000000000000 
1 11.10000000000000142 -8.00000000000000000 -0.30000000000000165 -1.00000000000000000 0.00000000000000000 -0.00000000000000000 0.00000000000000000 1.00000000000000000 0.00000000000000022 0.00000000000000000 0.00000000000000022 -1.00000000000000000 
1 -11.50000000000000000 -8.00000000000000000 -0.30000000000000177 -0.00000000000000000 1.00000000000000000 0.00000000000000000 1.00000000000000000 0.00000000000000000 0.00000000000000000 0.00000000000000000 0.00000000000000000 -1.00000000000000000 
1 -11.09999999999999964 -8.00000000000000000 -0.30000000000000177 -1.00000000000000000 0.00000000000000000 -0.00000000000000000 0.00000000000000000 1.00000000000000000 0.00000000000000022 0.00000000000000000 0.00000000000000022 -1.00000000000000000 
2 0.00000000000000000 0.00000000000000000 0.00000000000000000 -0.00000000000000000 -0.00000000000000000 -1.00000000000000000 1.00000000000000000 0.00000000000000000 0.00000000000000000 -0.00000000000000000 1.00000000000000000 -0.00000000000000000 1.69999999999999996
9 0 0 0 0 7 1 8 2 2 2 -11.50000000000000178 -8.00000000000000178 -0.40000000000000219  -11.19999999999999929 -8.00000000000000178 -0.40000000000000213  
-11.50000000000010836 -8.00000000000006928 -0.31024020989743828  -11.20000000000007212 -8.00000000000006928 -0.37756005247436264  
-11.47650044537904890 -7.99999999999981526 -0.22048085400661815  -11.19412511134466648 -7.99999999999981526 -0.35512021350165329  
-11.42950508888130301 -8.00000000000024514 -0.13810122367082284  -11.18237627222039698 -8.00000000000024514 -0.33452530591770901  
-11.36189877632879686 -7.99999999999980460 -0.07049491111911751  -11.16547469408219939 -7.99999999999980460 -0.31762372777978082  
-11.27951914599359462 -8.00000000000009592 -0.02349955462065851  -11.14487978649836641 -8.00000000000009592 -0.30587488865516566  
-11.18975979010250299 -7.99999999999997957 -0.00000000000000132  -11.12243994752563481 -7.99999999999997957 -0.30000000000000221  
-11.09999999999999964 -8.00000000000000178 -0.00000000000000211  -11.09999999999999964 -8.00000000000000178 -0.30000000000000210  

4.71238898038468612 8
6.28318530717958623 8

0.00000000000000000 2
1.00000000000000000 2

1 -11.19999999999999929 -8.00000000000000178 -0.40000000000000213 0.00000000000001184 0.00000000000000022 -1.00000000000000000 0.00000000000000000 1.00000000000000000 0.00000000000000022 1.00000000000000000 -0.00000000000000000 0.00000000000001184 
1 -11.19999999999999929 -7.99999999999998401 -72.00000000000000000 -0.00000000000000000 1.00000000000000000 0.00000000000000022 0.00000000000000000 -0.00000000000000022 1.00000000000000000 1.00000000000000000 0.00000000000000000 0.00000000000000000 
1 -11.50000000000000000 -7.99999999999998401 -72.00000000000000000 -1.00000000000000000 -0.00000000000000000 0.00000000000000000 0.00000000000000000 -0.00000000000000022 1.00000000000000000 0.00000000000000000 1.00000000000000000 0.00000000000000022 
1 -11.19999999999999929 -107.99999999999998579 -72.00000000000002842 0.00000000000000000 -1.00000000000000000 -0.00000000000000022 -0.00000000000000000 0.00000000000000022 -1.00000000000000000 1.00000000000000000 0.00000000000000000 0.00000000000000000 
1 -11.19999999999999929 -8.00000000000000000 -0.40000000000000568 0.00000000000000000 -0.00000000000000022 1.00000000000000000 0.00000000000000000 -1.00000000000000000 -0.00000000000000022 1.00000000000000000 0.00000000000000000 0.00000000000000000 
2 -11.09999999999999964 -108.00000000000000000 -0.40000000000002589 0.00000000000000000 1.00000000000000000 0.00000000000000022 -1.00000000000000000 0.00000000000000000 0.00000000000000000 0.00000000000000000 -0.00000000000000022 1.00000000000000000 0.40000000000000002
9 0 0 0 0 7 1 8 2 2 2 -11.09999999999999964 -108.00000000000000000 -0.00000000000002431  -11.09999999999999609 -108.00000000000000000 -0.30000000000002436  
-11.18975979010255095 -108.00000000000005684 -0.00000000000002412  -11.12243994752565435 -108.00000000000005684 -0.30000000000002541  
-11.27951914599337080 -107.99999999999921840 -0.02349955462067795  -11.14487978649823141 -107.99999999999921840 -0.30587488865518270  
-11.36189877632922673 -108.00000000000164846 -0.07049491111914537  -11.16547469408252979 -108.00000000000164846 -0.31762372777981340  
-11.42950508888083938 -107.99999999999840838 -0.13810122367083819  -11.18237627222000086 -107.99999999999840838 -0.33452530591771967  
-11.47650044537936687 -108.00000000000092371 -0.22048085400664527  -11.19412511134494181 -108.00000000000092371 -0.35512021350168421  
-11.49999999999999822 -107.99999999999974420 -0.31024020989745865  -11.19999999999997620 -107.99999999999974420 -0.37756005247438162  
-11.50000000000000178 -108.00000000000000000 -0.40000000000002423  -11.19999999999999574 -108.00000000000000000 -0.40000000000002434  

0.00000000000000000 8
1.57079632679490011 8

0.00000000000000000 2
1.00000000000000000 2

1 -11.09999999999999964 -8.00000000000000178 -0.30000000000000210 1.00000000000000000 -0.00000000000000000 0.00000000000000000 0.00000000000000000 -1.00000000000000000 -0.00000000000000022 0.00000000000000000 0.00000000000000022 -1.00000000000000000 
1 -11.50000000000000000 -8.00000000000000000 -0.00000000000000178 0.00000000000000000 -0.00000000000000022 1.00000000000000000 1.00000000000000000 0.00000000000000000 0.00000000000000000 -0.00000000000000000 1.00000000000000000 0.00000000000000022 
1 -11.50000000000000000 -108.00000000000000000 -0.30000000000002397 0.00000000000000000 -1.00000000000000000 0.00000000000000000 -1.00000000000000000 0.00000000000000000 0.00000000000000000 -0.00000000000000000 -0.00000000000000000 -1.00000000000000000 
1 0.00000000000000000 0.00000000000000000 0.00000000000000000 0.00000000000000000 0.00000000000000000 1.00000000000000000 -1.00000000000000000 -0.00000000000000000 0.00000000000000000 -0.00000000000000000 1.00000000000000000 -0.00000000000000000 
Triangulations 0

TShapes 147
Ve
0.001000000000000
11.500000000000000 -8.000000000000000 -0.400000000000002
0 0

0101101
*
Ve
0.001000000000000
11.500000000000000 -7.999999999999984 -72.000000000000000
0 0

0101101
*
Ed
 0.001000000000000 1 1 0
2  1 2 0 0.400000000000000 72.000000000000000
1  1 0 0.400000000000000 72.000000000000000
2  2 3 11 0.400000000000000 72.000000000000000
2  3 4 0 0.400000000000000 72.000000000000000
2  4 1 0 0.400000000000000 72.000000000000000
2  5 1 11 0.400000000000000 72.000000000000000
0

0101000
+147 0 -146 0 *
Ve
0.001000500001000
11.500000000000000 -52.000000000000000 -72.000000000000014
0 0

0101101
*
Ed
 0.001000000000000 1 1 0
1  2 0 0.000000000000000 44.000000000000014
2  6 1 0 0.000000000000000 44.000000000000014
2  7 5 0 0.000000000000000 44.000000000000014
0

0101000
+146 0 -144 12 *
Ve
0.001000500001000
11.500000000000000 -52.000000000000000 -0.400000000000011
0 0

0101101
*
Ed
 0.001000050000000 1 1 0
1  3 0 10.531002000000008 82.131001999999995
2  8 1 9 10.531002000000008 82.131001999999995
2  9 6 0 10.531002000000008 82.131001999999995
0

0101000
+142 0 -144 0 *
Ed
 0.001000000000000 1 1 0
1  4 0 0.000000000000000 44.000000000000000
2  10 7 0 0.000000000000000 44.000000000000000
4 G1 1 0 7 0
2  11 8 0 0.000000000000000 44.000000000000000
2  12 9 0 0.000000000000000 44.000000000000000
2  13 1 0 0.000000000000000 44.000000000000000
0

0101000
+147 0 -142 12 *
Wi

0101100
-145 9 -143 9 +141 0 +140 9 *
Ve
0.001000000000007
11.500000000000000 -43.300000000000011 -61.999999999999972
0 0

0101101
*
Ed
 0.001000000000000 1 1 0
1  5 0 0.000000000000000 6.283185307179586
2  14 1 14 0.000000000000000 6.283185307179586
2  15 10 0 0.000000000000000 6.283185307179586
0

0101100
+138 0 -138 0 *
Wi

0101100
-137 13 *
Ve
0.001000000000007
11.500000000000000 -13.300000000000011 -61.999999999999979
0 0

0101101
*
Ed
 0.001000000000000 1 1 0
1  6 0 0.000000000000000 6.283185307179586
2  16 1 14 0.000000000000000 6.283185307179586
2  17 11 0 0.000000000000000 6.283185307179586
0

0101100
+135 0 -135 0 *
Wi

0101100
-134 13 *
Fa
0  0.001000000000000 1 9

0101000
+139 0 +136 0 +133 0 *
Ve
0.001000000000000
11.199999999999999 -7.999999999999984 -72.000000000000000
0 0

0101101
*
Ed
 0.000000100000000 1 1 0
1  7 0 0.000000000000000 1.000000000000000
4 C0 5 0 4 0
2  18 4 0 0.000000000000000 1.000000000000000
2  19 5 0 0.000000000000000 1.000000000000000
0

0101000
+146 0 -131 0 *
Ve
0.001000000000000
11.199999999999999 -8.000000000000000 -0.400000000000002
0 0

0101101
*
Ed
 0.001000000000000 1 1 0
2  20 12 0 0.400000000000000 72.000000000000000
1  8 0 0.400000000000000 72.000000000000000
2  21 4 0 0.400000000000000 72.000000000000000
0

0101000
+129 0 -131 0 *
Ed
 0.000000100000002 1 1 0
1  9 0 0.000000000000000 1.000000000000000
4 C0 9 0 4 0
2  22 9 0 0.000000000000000 1.000000000000000
2  23 4 0 0.000000000000000 1.000000000000000
2  24 13 0 0.000000000000000 1.000000000000000
0

0101000
+147 0 -129 0 *
Wi

0101100
+145 0 +130 0 -128 0 -127 0 *
Fa
0  0.000000100000000 4 0

0101000
+126 0 *
Ve
0.001000500001000
11.199999999999999 -52.000000000000000 -72.000000000000014
0 0

0101101
*
Ed
 0.001000000000000 1 1 0
2  25 12 0 0.000000000000000 44.000000000000014
1  10 0 0.000000000000000 44.000000000000014
2  26 5 0 0.000000000000000 44.000000000000014
0

0101000
+131 0 -124 12 *
Ed
 0.000000550000000 1 1 0
1  11 0 343.623444014156917 343.923444014156928
2  27 5 9 343.623444014156917 343.923444014156928
2  28 6 0 343.623444014156917 343.923444014156928
0

0101000
+144 0 -124 0 *
Wi

0101100
-130 9 -123 9 +122 0 +143 9 *
Fa
0  0.000000100000000 5 9

0101000
+121 0 *
Ve
0.001000500001000
11.199999999999999 -52.000000000000000 -0.400000000000011
0 0

0101101
*
Ed
 0.001000050000000 1 1 0
1  12 0 10.531002000000008 82.131001999999995
2  29 12 9 10.531002000000008 82.131001999999995
2  30 6 0 10.531002000000008 82.131001999999995
0

0101000
+119 0 -124 0 *
Ve
0.001000500001000
11.100000000000001 -52.000000000000000 -0.300000000000011
0 0

0101101
*
Ed
 0.000000500000000 1 1 0
1  13 0 0.000000000000000 1.570796326794897
2  31 14 9 0.000000000000000 1.570796326794897
2  32 6 0 0.000000000000000 1.570796326794897
0

0101000
+117 0 -119 0 *
Ve
0.001000500001000
-11.100000000000000 -52.000000000000000 -0.300000000000012
0 0

0101101
*
Ed
 0.001000050000000 1 1 0
1  14 0 -355.073444014156905 -332.873444014156917
2  33 15 9 -355.073444014156905 -332.873444014156917
2  34 6 0 -355.073444014156905 -332.873444014156917
0

0101000
+115 0 -117 0 *
Ve
0.001000500001000
-11.199999999999999 -52.000000000000000 -0.400000000000012
0 0

0101101
*
Ed
 0.000000500000000 1 1 0
1  15 0 4.712388980384686 6.283185307179583
2  35 16 9 4.712388980384686 6.283185307179583
2  36 6 0 4.712388980384686 6.283185307179583
0

0101000
+113 0 -115 0 *
Ve
0.001000500001000
-11.199999999999999 -52.000000000000000 -72.000000000000014
0 0

0101101
*
Ed
 0.001000050000000 1 1 0
1  16 0 -46.331002000000012 25.268997999999989
2  37 17 9 -46.331002000000012 25.268997999999989
2  38 6 0 -46.331002000000012 25.268997999999989
0

0101000
+111 0 -113 0 *
Ve
0.001000500001000
-11.500000000000000 -52.000000000000000 -72.000000000000014
0 0

0101101
*
Ed
 0.000000550000000 1 1 0
1  17 0 355.123444014156860 355.423444014156871
2  39 18 9 355.123444014156860 355.423444014156871
2  40 6 0 355.123444014156860 355.423444014156871
0

0101000
+111 0 -109 0 *
Ve
0.001000500001000
-11.500000000000000 -52.000000000000000 -0.400000000000015
0 0

0101101
*
Ed
 0.001000050000000 1 1 0
1  18 0 -46.331002000000012 25.268997999999989
2  41 19 9 -46.331002000000012 25.268997999999989
2  42 6 0 -46.331002000000012 25.268997999999989
0

0101000
+109 0 -107 0 *
Ve
0.001000500001000
-11.100000000000000 -52.000000000000000 -0.000000000000012
0 0

0101101
*
Ed
 0.000000500000000 1 1 0
1  19 0 4.712388980384686 6.283185307179587
2  43 20 9 4.712388980384686 6.283185307179587
2  44 6 0 4.712388980384686 6.283185307179587
0

0101000
+107 0 -105 0 *
Ve
0.001000500001000
11.100000000000001 -52.000000000000000 -0.000000000000012
0 0

0101101
*
Ed
 0.001000050000000 1 1 0
1  20 0 -355.073444014156905 -332.873444014156917
2  45 21 9 -355.073444014156905 -332.873444014156917
2  46 6 0 -355.073444014156905 -332.873444014156917
0

0101000
+105 0 -103 0 *
Ed
 0.000000500000000 1 1 0
1  21 0 0.000000000000000 1.570796326794897
2  47 7 9 0.000000000000000 1.570796326794897
2  48 6 0 0.000000000000000 1.570796326794897
0

0101000
+103 0 -142 0 *
Wi

0101100
-141 0 -122 0 +118 0 +116 0 +114 0 +112 0 +110 0 -108 0 -106 0 -104 0 
-102 0 -101 0 *
Fa
0  0.000000500000000 6 0

0101000
+100 0 *
Ve
0.001000000000000
11.100000000000001 -8.000000000000000 -0.000000000000002
0 0

0101101
*
Ed
 0.000000100000000 1 1 0
2  49 22 0 0.000000000000000 1.570796326794897
1  22 0 0.000000000000000 1.570796326794897
2  50 7 0 0.000000000000000 1.570796326794897
2  51 7 11 0.000000000000000 1.570796326794897
2  52 23 11 0.000000000000000 1.570796326794897
2  53 13 0 0.000000000000000 1.570796326794897
0

0101000
+98 0 -147 0 *
Ed
 0.001000000000000 1 1 0
1  23 0 0.000000000000000 44.000000000000000
2  54 7 0 0.000000000000000 44.000000000000000
4 G1 7 0 21 0
2  55 24 0 0.000000000000000 44.000000000000000
2  56 25 0 0.000000000000000 44.000000000000000
2  57 21 0 0.000000000000000 44.000000000000000
0

0101000
+98 0 -103 12 *
Wi

0101100
-97 9 -140 9 +101 0 +96 9 *
Fa
0  0.000000100000000 7 9

0101000
+95 0 *
Ve
0.001000000000010
11.200000000000003 -43.300000000000011 -61.999999999999979
0 0

0101101
*
Ed
 0.000000100000000 1 1 0
1  24 0 115.105020832511769 115.405020832511767
3  58 59CN 10 0 115.105020832511769 115.405020832511767
0

0101000
+138 0 -93 0 *
Ed
 0.001000000000000 1 1 0
1  25 0 0.000000000000000 6.283185307179586
2  60 12 14 0.000000000000000 6.283185307179586
2  61 10 0 0.000000000000000 6.283185307179586
0

0101100
+93 0 -93 0 *
Wi

0101100
-137 0 -92 0 +91 0 +92 0 *
Fa
0  0.000000100000000 10 0

0101000
+90 0 *
Ve
0.001000000000014
11.200000000000003 -13.300000000000011 -61.999999999999986
0 0

0101101
*
Ed
 0.000000100000000 1 1 0
1  26 0 115.105020832511769 115.405020832511767
3  62 63CN 11 0 115.105020832511769 115.405020832511767
0

0101000
+135 0 -88 0 *
Ed
 0.001000000000000 1 1 0
1  27 0 0.000000000000000 6.283185307179586
2  64 12 14 0.000000000000000 6.283185307179586
2  65 11 0 0.000000000000000 6.283185307179586
0

0101100
+88 0 -88 0 *
Wi

0101100
-134 0 -87 0 +86 0 +87 0 *
Fa
0  0.000000100000000 11 0

0101000
+85 0 *
Ed
 0.001000000000000 1 1 0
2  66 12 0 0.000000000000000 44.000000000000000
1  28 0 0.000000000000000 44.000000000000000
2  67 9 0 0.000000000000000 44.000000000000000
2  68 14 0 0.000000000000000 44.000000000000000
0

0101000
+129 0 -119 12 *
Wi

0101100
-128 9 -123 9 +118 0 +83 9 *
Wi

0101100
-91 13 *
Wi

0101100
-86 13 *
Fa
0  0.001000000000000 12 9

0101000
+82 0 +81 0 +80 0 *
Ve
0.001000000000001
11.100000000000001 -8.000000000000000 -0.300000000000002
0 0

0101101
*
Ed
 0.000000100000000 1 1 0
2  50 14 0 0.000000000000000 1.570796326794897
1  29 0 0.000000000000000 1.570796326794897
2  69 13 0 0.000000000000000 1.570796326794897
0

0101000
+78 0 -129 0 *
Ed
 0.000000100000002 1 1 0
1  30 0 0.000000000000000 1.000000000000000
2  70 13 0 0.000000000000000 1.000000000000000
4 C0 25 0 13 0
2  71 25 0 0.000000000000000 1.000000000000000
0

0101000
+98 0 -78 0 *
Wi

0101100
+97 0 +127 0 -77 0 -76 0 *
Fa
0  0.000000100000000 13 0

0101000
+75 0 *
Ed
 0.001000000000000 1 1 0
2  54 14 0 0.000000000000000 44.000000000000000
1  31 0 0.000000000000000 44.000000000000000
2  72 25 0 0.000000000000000 44.000000000000000
2  73 15 0 0.000000000000000 44.000000000000000
0

0101000
+78 0 -117 12 *
Wi

0101100
-77 9 -83 9 +116 0 +73 9 *
Fa
0  0.000000100000000 14 9

0101000
+72 0 *
Ve
0.001000000000000
-11.100000000000000 -8.000000000000000 -0.300000000000002
0 0

0101101
*
Ed
 0.001000000000000 1 1 0
2  74 15 0 0.400000000000000 22.600000000000001
1  32 0 0.400000000000000 22.600000000000001
2  75 26 0 0.400000000000000 22.600000000000001
0

0101000
+70 0 -78 0 *
Ed
 0.001000000000000 1 1 0
2  76 15 0 0.000000000000000 44.000000000000000
1  33 0 0.000000000000000 44.000000000000000
2  77 27 0 0.000000000000000 44.000000000000000
2  78 16 0 0.000000000000000 44.000000000000000
0

0101000
+70 0 -115 12 *
Wi

0101100
-69 15 +68 15 -73 15 +114 4 *
Ve
0.001000000000000
1.700000000000007 -33.212074235133215 -0.300000000000007
0 0

0101101
*
Ed
 0.001000000000000 1 1 0
1  34 0 0.000000000000000 6.283185307179586
2  79 15 15 0.000000000000000 6.283185307179586
2  80 28 17 0.000000000000000 6.283185307179586
0

0101100
+66 0 -66 0 *
Wi

0101100
+65 0 *
Fa
0  0.001000000000000 15 15

0101000
+67 0 +64 0 *
Ve
0.001000000000002
-11.199999999999999 -8.000000000000000 -0.400000000000004
0 0

0101101
*
Ed
 0.000000100000002 1 1 0
2  81 16 0 4.712388980384686 6.283185307179586
1  35 0 4.712388980384686 6.283185307179586
2  82 29 0 4.712388980384686 6.283185307179586
0

0101000
+62 0 -70 0 *
Ed
 0.001000000000000 1 1 0
2  83 16 0 0.000000000000000 44.000000000000000
1  36 0 0.000000000000000 44.000000000000000
2  84 30 0 0.000000000000000 44.000000000000000
2  85 17 0 0.000000000000000 44.000000000000000
0

0101000
+62 0 -113 12 *
Wi

0101100
-61 9 -68 9 +112 0 +60 9 *
Fa
0  0.000000100000002 16 9

0101000
+59 0 *
Ve
0.001000000000000
-11.199999999999999 -7.999999999999984 -72.000000000000000
0 0

0101101
*
Ed
 0.001000000000000 1 1 0
2  86 17 0 0.000000000000000 71.599999999999994
1  37 0 0.000000000000000 71.599999999999994
2  87 31 0 0.000000000000000 71.599999999999994
0

0101000
+57 0 -62 0 *
Ed
 0.001000000000000 1 1 0
2  88 17 0 0.000000000000000 44.000000000000014
1  38 0 0.000000000000000 44.000000000000014
2  89 18 0 0.000000000000000 44.000000000000014
0

0101000
+57 0 -111 12 *
Wi

0101100
-56 9 -60 9 +110 0 +55 9 *
Ve
0.001000000000010
-11.199999999999989 -43.300000000000011 -61.999999999999979
0 0

0101101
*
Ed
 0.001000000000000 1 1 0
1  39 0 0.000000000000000 6.283185307179586
2  90 17 14 0.000000000000000 6.283185307179586
2  91 10 0 0.000000000000000 6.283185307179586
0

0101100
+53 0 -53 0 *
Wi

0101100
+52 13 *
Ve
0.001000000000014
-11.199999999999989 -13.300000000000006 -61.999999999999986
0 0

0101101
*
Ed
 0.001000000000000 1 1 0
1  40 0 0.000000000000000 6.283185307179586
2  92 17 14 0.000000000000000 6.283185307179586
2  93 11 0 0.000000000000000 6.283185307179586
0

0101100
+50 0 -50 0 *
Wi

0101100
+49 13 *
Fa
0  0.001000000000000 17 9

0101000
+54 0 +51 0 +48 0 *
Ve
0.001000000000000
-11.500000000000000 -7.999999999999984 -72.000000000000000
0 0

0101101
*
Ed
 0.001000000000000 1 1 0
1  41 0 0.000000000000000 44.000000000000014
2  94 19 0 0.000000000000000 44.000000000000014
2  95 18 0 0.000000000000000 44.000000000000014
0

0101000
+46 0 -109 12 *
Ed
 0.000000100000000 1 1 0
1  42 0 0.000000000000000 1.000000000000000
4 C0 18 0 31 0
2  96 31 0 0.000000000000000 1.000000000000000
2  97 18 0 0.000000000000000 1.000000000000000
0

0101000
+46 0 -57 0 *
Wi

0101100
-45 9 +108 0 +55 9 +44 9 *
Fa
0  0.000000100000000 18 9

0101000
+43 0 *
Ve
0.001000000000000
-11.500000000000000 -8.000000000000000 -0.400000000000006
0 0

0101101
*
Ed
 0.001000000000000 1 1 0
2  98 32 0 0.000000000000000 71.599999999999994
1  43 0 0.000000000000000 71.599999999999994
2  99 33 11 0.000000000000000 71.599999999999994
2  100 31 0 0.000000000000000 71.599999999999994
2  101 19 0 0.000000000000000 71.599999999999994
2  102 19 11 0.000000000000000 71.599999999999994
0

0101000
+46 0 -41 0 *
Ed
 0.001000000000000 1 1 0
1  44 0 0.000000000000000 44.000000000000000
2  83 20 0 0.000000000000000 44.000000000000000
4 G1 20 0 19 0
2  103 34 0 0.000000000000000 44.000000000000000
2  104 30 0 0.000000000000000 44.000000000000000
2  105 19 0 0.000000000000000 44.000000000000000
0

0101000
+41 0 -107 12 *
Wi

0101100
-40 9 -39 9 +106 0 +45 9 *
Ve
0.001000000000010
-11.500000000000000 -43.300000000000011 -61.999999999999979
0 0

0101101
*
Ed
 0.001000000000000 1 1 0
1  45 0 0.000000000000000 6.283185307179586
2  106 19 14 0.000000000000000 6.283185307179586
2  107 10 0 0.000000000000000 6.283185307179586
0

0101100
+37 0 -37 0 *
Wi

0101100
+36 13 *
Ve
0.001000000000014
-11.500000000000000 -13.300000000000006 -61.999999999999986
0 0

0101101
*
Ed
 0.001000000000000 1 1 0
1  46 0 0.000000000000000 6.283185307179586
2  108 19 14 0.000000000000000 6.283185307179586
2  109 11 0 0.000000000000000 6.283185307179586
0

0101100
+34 0 -34 0 *
Wi

0101100
+33 13 *
Fa
0  0.001000000000000 19 9

0101000
+38 0 +35 0 +32 0 *
Ve
0.001000000000000
-11.100000000000000 -8.000000000000000 -0.000000000000002
0 0

0101101
*
Ed
 0.000000100000002 1 1 0
2  110 35 0 4.712388980384686 6.283185307179586
1  47 0 4.712388980384686 6.283185307179586
2  81 20 0 4.712388980384686 6.283185307179586
2  111 20 11 4.712388980384686 6.283185307179586
2  112 36 11 4.712388980384686 6.283185307179586
2  113 29 0 4.712388980384686 6.283185307179586
0

0101000
+41 0 -30 0 *
Ed
 0.001000000000000 1 1 0
1  48 0 0.000000000000000 44.000000000000000
2  114 20 0 0.000000000000000 44.000000000000000
4 G1 21 0 20 0
2  115 37 0 0.000000000000000 44.000000000000000
2  116 27 0 0.000000000000000 44.000000000000000
2  117 21 0 0.000000000000000 44.000000000000000
0

0101000
+30 0 -105 12 *
Wi

0101100
-29 9 -28 9 +104 0 +39 9 *
Fa
0  0.000000100000002 20 9

0101000
+27 0 *
Ed
 0.001000000000000 1 1 0
2  118 38 0 0.400000000000000 22.600000000000001
1  49 0 0.400000000000000 22.600000000000001
2  119 39 11 0.400000000000000 22.600000000000001
2  120 26 0 0.400000000000000 22.600000000000001
2  121 21 0 0.400000000000000 22.600000000000001
2  122 21 11 0.400000000000000 22.600000000000001
0

0101000
+30 0 -98 0 *
Wi

0101100
-25 15 +28 15 -96 15 +102 4 *
Ve
0.001000000000008
1.700000000000000 0.000000000000000 -0.000000000000000
0 0

0101101
*
Ed
 0.001000000000008 1 1 0
1  50 0 0.000000000000000 6.283185307179586
2  123 40 0 0.000000000000000 6.283185307179586
2  124 28 0 0.000000000000000 6.283185307179586
2  125 21 18 0.000000000000000 6.283185307179586
0

0101000
+23 0 -23 0 *
Wi

0101100
-22 17 *
Fa
0  0.001000000000000 21 15

0101000
+24 0 +21 0 *
Ed
 0.000000100000002 1 1 0
1  51 0 0.000000000000000 1.000000000000000
4 C0 27 0 26 0
2  126 26 0 0.000000000000000 1.000000000000000
2  127 27 0 0.000000000000000 1.000000000000000
2  128 29 0 0.000000000000000 1.000000000000000
0

0101000
+30 0 -70 0 *
Wi

0101100
+25 0 +76 0 -69 0 -19 0 *
Fa
0  0.000000100000000 26 0

0101000
+18 0 *
Ed
 0.000000100000000 1 1 0
1  52 0 0.000000000000000 0.300000000000007
3  129 130CN 28 0 0.000000000000000 0.300000000000007
0

0101000
+23 0 -66 19 *
Wi

0101100
-16 17 +65 0 +16 17 +22 17 *
Fa
0  0.000000100000000 28 17

0101000
+15 0 *
Ed
 0.000000100000004 1 1 0
1  53 0 0.000000000000000 1.000000000000000
2  131 29 0 0.000000000000000 1.000000000000000
4 C0 30 0 29 0
2  132 30 0 0.000000000000000 1.000000000000000
0

0101000
+41 0 -62 0 *
Wi

0101100
+29 0 +19 0 -61 0 -13 0 *
Fa
0  0.000000100000000 29 0

0101000
+12 0 *
Wi

0101100
+40 0 +13 0 -56 0 -44 0 *
Fa
0  0.000000100000000 31 0

0101000
+10 0 *
Ed
 0.000000100000000 1 1 0
1  24 0 137.805020832511758 138.105020832511769
3  58 59CN 10 0 137.805020832511758 138.105020832511769
0

0101000
+53 0 -37 0 *
Wi

0101100
-52 0 -8 0 +36 0 +8 0 *
Fa
0  0.000000100000000 10 0

0101000
+7 0 *
Ed
 0.000000100000000 1 1 0
1  26 0 137.805020832511758 138.105020832511769
3  62 63CN 11 0 137.805020832511758 138.105020832511769
0

0101000
+50 0 -34 0 *
Wi

0101100
-49 0 -5 0 +33 0 +5 0 *
Fa
0  0.000000100000000 11 0

0101000
+4 0 *
Sh

0101100
+132 4 +125 15 +120 4 +99 4 +94 4 -89 16 -84 16 -79 4 +74 15 -71 4 
-63 0 -58 4 -47 4 +42 4 +31 4 +26 4 +20 0 +17 15 +14 0 +11 15 
+9 15 -6 16 -3 16 *
So

0100000
+2 0 *

+1 1 