
CASCADE Topology V1, (c) Matra-Datavision
Locations 61
1
1.000000000000000 0.000000000000000 0.000000000000000 0.000000000000000 
0.000000000000000 1.000000000000000 0.000000000000000 0.000000000000000 
0.000000000000000 0.000000000000000 1.000000000000000 0.000000000000000 
1
1.000000000000000 0.000000000000000 0.000000000000000 0.000000000000000 
0.000000000000000 1.000000000000000 0.000000000000000 0.000000000000000 
0.000000000000000 0.000000000000000 1.000000000000000 0.000000000000000 
1
1.000000000000000 0.000000000000000 0.000000000000000 0.000000000000000 
0.000000000000000 1.000000000000000 0.000000000000000 0.000000000000000 
0.000000000000000 0.000000000000000 1.000000000000000 0.000000000000000 
2  1 1 2 1 3 -1 0
1
1.000000000000000 0.000000000000000 0.000000000000000 0.000000000000000 
0.000000000000000 1.000000000000000 0.000000000000000 0.000000000000000 
0.000000000000000 0.000000000000000 1.000000000000000 5.000000000000000 
2  1 1 2 1 3 -1 5 1 0
1
1.000000000000000 0.000000000000000 0.000000000000000 0.000000000000000 
0.000000000000000 1.000000000000000 0.000000000000000 0.000000000000000 
0.000000000000000 0.000000000000000 1.000000000000000 0.000000000000000 
1
1.000000000000000 0.000000000000000 0.000000000000000 0.000000000000000 
0.000000000000000 1.000000000000000 0.000000000000000 0.000000000000000 
0.000000000000000 0.000000000000000 1.000000000000000 0.000000000000000 
1
1.000000000000000 0.000000000000000 0.000000000000000 0.000000000000000 
0.000000000000000 1.000000000000000 0.000000000000000 0.000000000000000 
0.000000000000000 0.000000000000000 1.000000000000000 0.000000000000000 
2  7 1 8 -1 9 -1 0
1
1.000000000000000 0.000000000000000 0.000000000000000 -0.000000000000000 
0.000000000000000 1.000000000000000 0.000000000000000 -0.000000000000000 
0.000000000000000 0.000000000000000 1.000000000000000 -5.000000000000000 
2  11 -1 7 1 8 -1 9 -1 0
2  8 -1 9 -1 0
1
1.000000000000000 0.000000000000000 0.000000000000000 0.000000000000000 
0.000000000000000 1.000000000000000 0.000000000000000 0.000000000000000 
0.000000000000000 0.000000000000000 1.000000000000000 0.000000000000000 
1
1.000000000000000 0.000000000000000 0.000000000000000 0.000000000000000 
0.000000000000000 1.000000000000000 0.000000000000000 0.000000000000000 
0.000000000000000 0.000000000000000 1.000000000000000 0.000000000000000 
1
1.000000000000000 0.000000000000000 0.000000000000000 0.000000000000000 
0.000000000000000 1.000000000000000 0.000000000000000 0.000000000000000 
0.000000000000000 0.000000000000000 1.000000000000000 0.000000000000000 
1
1.000000000000000 0.000000000000000 0.000000000000000 0.000000000000000 
0.000000000000000 1.000000000000000 0.000000000000000 0.000000000000000 
0.000000000000000 0.000000000000000 1.000000000000000 0.000000000000000 
2  14 1 15 1 16 -1 17 1 8 -1 9 -1 0
1
1.000000000000000 0.000000000000000 0.000000000000000 0.000000000000000 
0.000000000000000 1.000000000000000 0.000000000000000 0.000000000000000 
0.000000000000000 0.000000000000000 1.000000000000000 0.000000000000000 
1
1.000000000000000 0.000000000000000 0.000000000000000 0.000000000000000 
0.000000000000000 1.000000000000000 0.000000000000000 0.000000000000000 
0.000000000000000 0.000000000000000 1.000000000000000 0.000000000000000 
2  19 1 20 -1 9 -1 0
1
1.000000000000000 0.000000000000000 0.000000000000000 -0.000000000000000 
0.000000000000000 1.000000000000000 0.000000000000000 -0.000000000000000 
0.000000000000000 0.000000000000000 1.000000000000000 -5.000000000000000 
2  22 -1 19 1 20 -1 9 -1 0
2  20 -1 9 -1 0
2  14 1 15 1 16 -1 17 1 20 -1 9 -1 0
1
1.000000000000000 0.000000000000000 0.000000000000000 0.000000000000000 
0.000000000000000 1.000000000000000 0.000000000000000 0.000000000000000 
0.000000000000000 0.000000000000000 1.000000000000000 0.000000000000000 
1
1.000000000000000 0.000000000000000 0.000000000000000 0.000000000000000 
0.000000000000000 1.000000000000000 0.000000000000000 0.000000000000000 
0.000000000000000 0.000000000000000 1.000000000000000 0.000000000000000 
2  26 1 27 -1 9 -1 0
1
1.000000000000000 0.000000000000000 0.000000000000000 0.000000000000000 
0.000000000000000 1.000000000000000 0.000000000000000 0.000000000000000 
0.000000000000000 0.000000000000000 1.000000000000000 5.000000000000000 
2  29 -1 26 1 27 -1 9 -1 0
2  27 -1 9 -1 0
2  14 1 15 1 16 -1 17 1 27 -1 9 -1 0
1
1.000000000000000 0.000000000000000 0.000000000000000 0.000000000000000 
0.000000000000000 1.000000000000000 0.000000000000000 0.000000000000000 
0.000000000000000 0.000000000000000 1.000000000000000 0.000000000000000 
1
1.000000000000000 0.000000000000000 0.000000000000000 0.000000000000000 
0.000000000000000 1.000000000000000 0.000000000000000 0.000000000000000 
0.000000000000000 0.000000000000000 1.000000000000000 0.000000000000000 
2  33 1 34 -1 9 -1 0
1
1.000000000000000 0.000000000000000 0.000000000000000 0.000000000000000 
0.000000000000000 1.000000000000000 0.000000000000000 0.000000000000000 
0.000000000000000 0.000000000000000 1.000000000000000 5.000000000000000 
2  36 -1 33 1 34 -1 9 -1 0
2  34 -1 9 -1 0
2  14 1 15 1 16 -1 17 1 34 -1 9 -1 0
1
1.000000000000000 0.000000000000000 0.000000000000000 0.000000000000000 
0.000000000000000 1.000000000000000 0.000000000000000 0.000000000000000 
0.000000000000000 0.000000000000000 1.000000000000000 0.000000000000000 
1
1.000000000000000 0.000000000000000 0.000000000000000 0.000000000000000 
0.000000000000000 1.000000000000000 0.000000000000000 0.000000000000000 
0.000000000000000 0.000000000000000 1.000000000000000 0.000000000000000 
2  40 1 41 -1 9 -1 0
1
1.000000000000000 0.000000000000000 0.000000000000000 0.000000000000000 
0.000000000000000 1.000000000000000 0.000000000000000 0.000000000000000 
0.000000000000000 0.000000000000000 1.000000000000000 5.000000000000000 
2  43 -1 40 1 41 -1 9 -1 0
2  41 -1 9 -1 0
1
1.000000000000000 0.000000000000000 0.000000000000000 0.000000000000000 
0.000000000000000 1.000000000000000 0.000000000000000 0.000000000000000 
0.000000000000000 0.000000000000000 1.000000000000000 0.000000000000000 
1
1.000000000000000 0.000000000000000 0.000000000000000 0.000000000000000 
0.000000000000000 1.000000000000000 0.000000000000000 0.000000000000000 
0.000000000000000 0.000000000000000 1.000000000000000 0.000000000000000 
1
1.000000000000000 0.000000000000000 0.000000000000000 0.000000000000000 
0.000000000000000 1.000000000000000 0.000000000000000 0.000000000000000 
0.000000000000000 0.000000000000000 1.000000000000000 0.000000000000000 
1
1.000000000000000 0.000000000000000 0.000000000000000 0.000000000000000 
0.000000000000000 1.000000000000000 0.000000000000000 0.000000000000000 
0.000000000000000 0.000000000000000 1.000000000000000 0.000000000000000 
2  46 1 47 1 48 -1 49 1 41 -1 9 -1 0
2  3 1 2 -1 1 -1 0
2  5 -1 3 1 2 -1 1 -1 0
2  2 -1 1 -1 0
1
1.000000000000000 0.000000000000000 0.000000000000000 0.000000000000000 
0.000000000000000 1.000000000000000 0.000000000000000 0.000000000000000 
0.000000000000000 0.000000000000000 1.000000000000000 0.000000000000000 
1
1.000000000000000 0.000000000000000 0.000000000000000 0.000000000000000 
0.000000000000000 1.000000000000000 0.000000000000000 0.000000000000000 
0.000000000000000 0.000000000000000 1.000000000000000 0.000000000000000 
1
1.000000000000000 0.000000000000000 0.000000000000000 0.000000000000000 
0.000000000000000 1.000000000000000 0.000000000000000 0.000000000000000 
0.000000000000000 0.000000000000000 1.000000000000000 0.000000000000000 
1
1.000000000000000 0.000000000000000 0.000000000000000 0.000000000000000 
0.000000000000000 1.000000000000000 0.000000000000000 0.000000000000000 
0.000000000000000 0.000000000000000 1.000000000000000 0.000000000000000 
2  54 1 55 1 56 -1 57 1 2 -1 1 -1 0
2  3 -1 0
2  1 1 2 1 0
2  3 -1 5 1 0
Curve2ds 52
1 0.00000000000000000 0.00000000000000000 0.00000000000000000 -1.00000000000000000 
1 6.28318530717958623 0.00000000000000000 0.00000000000000000 -1.00000000000000000 
1 0.00000000000000000 0.00000000000000000 1.00000000000000000 0.00000000000000000 
1 0.00000000000000000 -5.00000000000000000 1.00000000000000000 0.00000000000000000 
2 -96.96784299999995937 -0.00000000108441611 1.00000000000000000 0.00000000000000000 -0.00000000000000000 1.00000000000000000 14.99999999999998579
2 -96.96784299999993095 -109.63691700216602953 1.00000000000000000 0.00000000000000000 -0.00000000000000000 1.00000000000000000 14.99999999999998579
1 0.00000000000000000 0.00000000000000000 1.00000000000000000 0.00000000000000000 
1 0.00000000000000000 -5.00000000000000000 1.00000000000000000 0.00000000000000000 
2 -96.96784299999995937 -0.00000000108441611 1.00000000000000000 0.00000000000000000 -0.00000000000000000 1.00000000000000000 14.99999999999998579
2 -96.96784299999993095 -109.63691700216602953 1.00000000000000000 0.00000000000000000 -0.00000000000000000 1.00000000000000000 14.99999999999998579
1 0.00000000000000000 0.00000000000000000 1.00000000000000000 0.00000000000000000 
1 0.00000000000000000 -5.00000000000000000 1.00000000000000000 0.00000000000000000 
2 -96.96784299999995937 -0.00000000108441611 1.00000000000000000 0.00000000000000000 -0.00000000000000000 1.00000000000000000 14.99999999999998579
2 -96.96784299999993095 -109.63691700216602953 1.00000000000000000 0.00000000000000000 -0.00000000000000000 1.00000000000000000 14.99999999999998579
1 0.00000000000000000 0.00000000000000000 1.00000000000000000 0.00000000000000000 
1 0.00000000000000000 -5.00000000000000000 1.00000000000000000 0.00000000000000000 
2 -96.96784299999995937 -0.00000000108441611 1.00000000000000000 0.00000000000000000 -0.00000000000000000 1.00000000000000000 14.99999999999998579
2 -96.96784299999993095 -109.63691700216602953 1.00000000000000000 0.00000000000000000 -0.00000000000000000 1.00000000000000000 14.99999999999998579
1 0.00000000000000000 0.00000000000000000 1.00000000000000000 0.00000000000000000 
1 0.00000000000000000 -5.00000000000000000 1.00000000000000000 0.00000000000000000 
2 -96.96784299999995937 -0.00000000108441611 1.00000000000000000 0.00000000000000000 -0.00000000000000000 1.00000000000000000 14.99999999999998579
2 -96.96784299999993095 -109.63691700216602953 1.00000000000000000 0.00000000000000000 -0.00000000000000000 1.00000000000000000 14.99999999999998579
1 0.00000000000000000 0.00000000000000000 1.00000000000000000 0.00000000000000000 
1 0.00000000000000000 -5.00000000000000000 1.00000000000000000 0.00000000000000000 
2 -96.96784299999995937 -0.00000000108441611 1.00000000000000000 0.00000000000000000 -0.00000000000000000 1.00000000000000000 14.99999999999998579
2 -96.96784299999993095 -109.63691700216600111 1.00000000000000000 0.00000000000000000 -0.00000000000000000 1.00000000000000000 14.99999999999998579
1 0.00000000000000000 0.00000000000000000 0.00000000000000000 -1.00000000000000000 
1 6.28318530717958623 0.00000000000000000 0.00000000000000000 -1.00000000000000000 
1 0.00000000000000000 0.00000000000000000 1.00000000000000000 0.00000000000000000 
1 0.00000000000000000 -5.00000000000000000 1.00000000000000000 0.00000000000000000 
2 96.96784299999997359 0.00000000108435927 1.00000000000000000 0.00000000000000000 -0.00000000000000000 1.00000000000000000 14.99999999999998579
2 96.96784300000000201 -109.63691699999725415 1.00000000000000000 0.00000000000000000 -0.00000000000000000 1.00000000000000000 14.99999999999998579
1 0.00000000000000000 0.00000000000000000 1.00000000000000000 0.00000000000000000 
1 0.00000000000000000 -5.00000000000000000 1.00000000000000000 0.00000000000000000 
2 96.96784299999997359 0.00000000108435927 1.00000000000000000 0.00000000000000000 -0.00000000000000000 1.00000000000000000 14.99999999999998579
2 96.96784300000000201 -109.63691699999725415 1.00000000000000000 0.00000000000000000 -0.00000000000000000 1.00000000000000000 14.99999999999998579
1 0.00000000000000000 0.00000000000000000 1.00000000000000000 0.00000000000000000 
1 0.00000000000000000 -5.00000000000000000 1.00000000000000000 0.00000000000000000 
2 96.96784299999997359 0.00000000108435927 1.00000000000000000 0.00000000000000000 -0.00000000000000000 1.00000000000000000 14.99999999999998579
2 96.96784300000000201 -109.63691699999725415 1.00000000000000000 0.00000000000000000 -0.00000000000000000 1.00000000000000000 14.99999999999998579
1 0.00000000000000000 0.00000000000000000 1.00000000000000000 0.00000000000000000 
1 0.00000000000000000 -5.00000000000000000 1.00000000000000000 0.00000000000000000 
2 96.96784299999997359 0.00000000108435927 1.00000000000000000 0.00000000000000000 -0.00000000000000000 1.00000000000000000 14.99999999999998579
2 96.96784300000000201 -109.63691699999725415 1.00000000000000000 0.00000000000000000 -0.00000000000000000 1.00000000000000000 14.99999999999998579
1 0.00000000000000000 0.00000000000000000 1.00000000000000000 0.00000000000000000 
1 0.00000000000000000 -5.00000000000000000 1.00000000000000000 0.00000000000000000 
2 96.96784299999997359 0.00000000108435927 1.00000000000000000 0.00000000000000000 -0.00000000000000000 1.00000000000000000 14.99999999999998579
2 96.96784300000000201 -109.63691699999725415 1.00000000000000000 0.00000000000000000 -0.00000000000000000 1.00000000000000000 14.99999999999998579
1 0.00000000000000000 0.00000000000000000 1.00000000000000000 0.00000000000000000 
1 0.00000000000000000 -5.00000000000000000 1.00000000000000000 0.00000000000000000 
2 96.96784299999997359 0.00000000108435927 1.00000000000000000 0.00000000000000000 -0.00000000000000000 1.00000000000000000 14.99999999999998579
2 96.96784300000000201 -109.63691699999722573 1.00000000000000000 0.00000000000000000 -0.00000000000000000 1.00000000000000000 14.99999999999998579
Curves 4
1 -81.96784299999995937 -109.63691700216607217 0.00000000000000000 0.00000000000000000 0.00000000000000000 1.00000000000000000 
2 -96.96784299999994516 -109.63691700216607217 0.00000000000000000 0.00000000000000000 0.00000000000000000 1.00000000000000000 1.00000000000000000 0.00000000000000000 -0.00000000000000000 -0.00000000000000000 1.00000000000000000 0.00000000000000000 14.99999999999998934
1 111.96784299999997359 -109.63691699999729678 0.00000000000000000 0.00000000000000000 0.00000000000000000 1.00000000000000000 
2 96.96784299999998780 -109.63691699999729678 0.00000000000000000 0.00000000000000000 0.00000000000000000 1.00000000000000000 1.00000000000000000 0.00000000000000000 -0.00000000000000000 -0.00000000000000000 1.00000000000000000 0.00000000000000000 14.99999999999998934
Polygon3D 0
PolygonOnTriangulations 0
Surfaces 27
2 -96.96784299999994516 -109.63691700216607217 0.00000000000000000 -0.00000000000000000 -0.00000000000000000 -1.00000000000000000 1.00000000000000000 0.00000000000000000 0.00000000000000000 -0.00000000000000000 1.00000000000000000 -0.00000000000000000 14.99999999999998934
2 -96.96784299999994516 -109.63691700216607217 0.00000000000000000 0.00000000000000000 0.00000000000000000 1.00000000000000000 1.00000000000000000 0.00000000000000000 -0.00000000000000000 -0.00000000000000000 1.00000000000000000 0.00000000000000000 14.99999999999998934
1 0.00000000000001750 -109.63691700108165605 0.00000000000000000 0.00000000000000000 0.00000000000000000 1.00000000000000000 1.00000000000000000 0.00000000000000000 -0.00000000000000000 -0.00000000000000000 1.00000000000000000 0.00000000000000000 
1 -0.00000000000001339 -0.00000000000004646 0.00000000000000000 0.00000000000000000 0.00000000000000000 1.00000000000000000 1.00000000000000000 0.00000000000000000 -0.00000000000000000 -0.00000000000000000 1.00000000000000000 0.00000000000000000 
2 -96.96784299999994516 -109.63691700216607217 0.00000000000000000 0.00000000000000000 0.00000000000000000 1.00000000000000000 1.00000000000000000 0.00000000000000000 -0.00000000000000000 -0.00000000000000000 1.00000000000000000 0.00000000000000000 14.99999999999998934
1 0.00000000000001750 -109.63691700108165605 0.00000000000000000 0.00000000000000000 0.00000000000000000 1.00000000000000000 1.00000000000000000 0.00000000000000000 -0.00000000000000000 -0.00000000000000000 1.00000000000000000 0.00000000000000000 
2 -96.96784299999994516 -109.63691700216607217 0.00000000000000000 -0.00000000000000000 -0.00000000000000000 -1.00000000000000000 1.00000000000000000 0.00000000000000000 0.00000000000000000 -0.00000000000000000 1.00000000000000000 -0.00000000000000000 14.99999999999998934
1 0.00000000000001750 -109.63691700108165605 0.00000000000000000 0.00000000000000000 0.00000000000000000 1.00000000000000000 1.00000000000000000 0.00000000000000000 -0.00000000000000000 -0.00000000000000000 1.00000000000000000 0.00000000000000000 
2 -96.96784299999994516 -109.63691700216607217 0.00000000000000000 -0.00000000000000000 -0.00000000000000000 -1.00000000000000000 1.00000000000000000 0.00000000000000000 0.00000000000000000 -0.00000000000000000 1.00000000000000000 -0.00000000000000000 14.99999999999998934
1 0.00000000000001750 -109.63691700108165605 0.00000000000000000 0.00000000000000000 0.00000000000000000 1.00000000000000000 1.00000000000000000 0.00000000000000000 -0.00000000000000000 -0.00000000000000000 1.00000000000000000 0.00000000000000000 
2 -96.96784299999994516 -109.63691700216607217 0.00000000000000000 -0.00000000000000000 -0.00000000000000000 -1.00000000000000000 1.00000000000000000 0.00000000000000000 0.00000000000000000 -0.00000000000000000 1.00000000000000000 -0.00000000000000000 14.99999999999998934
1 0.00000000000001750 -109.63691700108165605 0.00000000000000000 0.00000000000000000 0.00000000000000000 1.00000000000000000 1.00000000000000000 0.00000000000000000 -0.00000000000000000 -0.00000000000000000 1.00000000000000000 0.00000000000000000 
1 -0.00000000000000837 -0.00000000000004018 0.00000000000000000 0.00000000000000000 0.00000000000000000 1.00000000000000000 1.00000000000000000 0.00000000000000000 -0.00000000000000000 -0.00000000000000000 1.00000000000000000 0.00000000000000000 
1 0.00000000000001750 -109.63691700108165605 0.00000000000000000 0.00000000000000000 0.00000000000000000 1.00000000000000000 1.00000000000000000 0.00000000000000000 -0.00000000000000000 -0.00000000000000000 1.00000000000000000 0.00000000000000000 
1 -0.00000000000001211 -0.00000000000007665 0.00000000000000000 0.00000000000000000 0.00000000000000000 1.00000000000000000 1.00000000000000000 0.00000000000000000 -0.00000000000000000 -0.00000000000000000 1.00000000000000000 0.00000000000000000 
2 96.96784299999998780 -109.63691699999729678 0.00000000000000000 -0.00000000000000000 -0.00000000000000000 -1.00000000000000000 1.00000000000000000 0.00000000000000000 0.00000000000000000 -0.00000000000000000 1.00000000000000000 -0.00000000000000000 14.99999999999998934
2 96.96784299999998780 -109.63691699999729678 0.00000000000000000 0.00000000000000000 0.00000000000000000 1.00000000000000000 1.00000000000000000 0.00000000000000000 -0.00000000000000000 -0.00000000000000000 1.00000000000000000 0.00000000000000000 14.99999999999998934
1 0.00000000000001750 -109.63691700108165605 0.00000000000000000 0.00000000000000000 0.00000000000000000 1.00000000000000000 1.00000000000000000 0.00000000000000000 -0.00000000000000000 -0.00000000000000000 1.00000000000000000 0.00000000000000000 
2 96.96784299999998780 -109.63691699999729678 0.00000000000000000 0.00000000000000000 0.00000000000000000 1.00000000000000000 1.00000000000000000 0.00000000000000000 -0.00000000000000000 -0.00000000000000000 1.00000000000000000 0.00000000000000000 14.99999999999998934
1 0.00000000000001750 -109.63691700108165605 0.00000000000000000 0.00000000000000000 0.00000000000000000 1.00000000000000000 1.00000000000000000 0.00000000000000000 -0.00000000000000000 -0.00000000000000000 1.00000000000000000 0.00000000000000000 
2 96.96784299999998780 -109.63691699999729678 0.00000000000000000 -0.00000000000000000 -0.00000000000000000 -1.00000000000000000 1.00000000000000000 0.00000000000000000 0.00000000000000000 -0.00000000000000000 1.00000000000000000 -0.00000000000000000 14.99999999999998934
1 0.00000000000001750 -109.63691700108165605 0.00000000000000000 0.00000000000000000 0.00000000000000000 1.00000000000000000 1.00000000000000000 0.00000000000000000 -0.00000000000000000 -0.00000000000000000 1.00000000000000000 0.00000000000000000 
2 96.96784299999998780 -109.63691699999729678 0.00000000000000000 -0.00000000000000000 -0.00000000000000000 -1.00000000000000000 1.00000000000000000 0.00000000000000000 0.00000000000000000 -0.00000000000000000 1.00000000000000000 -0.00000000000000000 14.99999999999998934
1 0.00000000000001750 -109.63691700108165605 0.00000000000000000 0.00000000000000000 0.00000000000000000 1.00000000000000000 1.00000000000000000 0.00000000000000000 -0.00000000000000000 -0.00000000000000000 1.00000000000000000 0.00000000000000000 
2 96.96784299999998780 -109.63691699999729678 0.00000000000000000 -0.00000000000000000 -0.00000000000000000 -1.00000000000000000 1.00000000000000000 0.00000000000000000 0.00000000000000000 -0.00000000000000000 1.00000000000000000 -0.00000000000000000 14.99999999999998934
1 0.00000000000001750 -109.63691700108165605 0.00000000000000000 0.00000000000000000 0.00000000000000000 1.00000000000000000 1.00000000000000000 0.00000000000000000 -0.00000000000000000 -0.00000000000000000 1.00000000000000000 0.00000000000000000 
1 0.00000000000001750 -109.63691700108165605 0.00000000000000000 0.00000000000000000 0.00000000000000000 1.00000000000000000 1.00000000000000000 0.00000000000000000 -0.00000000000000000 -0.00000000000000000 1.00000000000000000 0.00000000000000000 
Triangulations 0

TShapes 19
Ve
0.000000100000000
-81.967842999999959 -109.636917002166072 0.000000000000000
0 0

0101101
*
Ed
 0.000000100000000 1 1 0
1  1 0 0.000000000000000 5.000000000000000
3  1 2CN 1 0 0.000000000000000 5.000000000000000
0

0101000
+19 4 -19 6 *
Ed
 0.000000100000000 1 1 0
1  2 0 0.000000000000000 6.283185307179586
2  3 2 10 0.000000000000000 6.283185307179586
2  4 2 12 0.000000000000000 6.283185307179586
2  5 3 13 0.000000000000000 6.283185307179586
2  6 4 18 0.000000000000000 6.283185307179586
2  7 5 21 0.000000000000000 6.283185307179586
2  8 5 23 0.000000000000000 6.283185307179586
2  9 6 24 0.000000000000000 6.283185307179586
2  10 4 25 0.000000000000000 6.283185307179586
2  11 7 28 0.000000000000000 6.283185307179586
2  12 7 30 0.000000000000000 6.283185307179586
2  13 8 31 0.000000000000000 6.283185307179586
2  14 4 32 0.000000000000000 6.283185307179586
2  15 9 35 0.000000000000000 6.283185307179586
2  16 9 37 0.000000000000000 6.283185307179586
2  17 10 38 0.000000000000000 6.283185307179586
2  18 4 39 0.000000000000000 6.283185307179586
2  19 11 42 0.000000000000000 6.283185307179586
2  20 11 44 0.000000000000000 6.283185307179586
2  21 12 45 0.000000000000000 6.283185307179586
2  22 13 50 0.000000000000000 6.283185307179586
2  23 1 51 0.000000000000000 6.283185307179586
2  24 1 52 0.000000000000000 6.283185307179586
2  25 14 53 0.000000000000000 6.283185307179586
2  26 15 58 0.000000000000000 6.283185307179586
0

0101100
+19 0 -19 0 *
Wi

0101100
+18 0 -18 0 -17 4 +17 6 *
Fa
0  0.000000100000000 1 0

0111000
+16 0 *
Wi

0101100
+17 0 *
Fa
0  0.000000100000000 14 0

0111000
+14 60 *
Sh

0101100
+15 0 +13 59 -13 61 *
So

0100000
-12 0 *
Ve
0.000000100000000
111.967842999999974 -109.636916999997297 0.000000000000000
0 0

0101101
*
Ed
 0.000000100000000 1 1 0
1  3 0 0.000000000000000 5.000000000000000
3  27 28CN 16 0 0.000000000000000 5.000000000000000
0

0101000
+10 4 -10 6 *
Ed
 0.000000100000000 1 1 0
1  4 0 0.000000000000000 6.283185307179586
2  29 17 10 0.000000000000000 6.283185307179586
2  30 17 12 0.000000000000000 6.283185307179586
2  31 18 13 0.000000000000000 6.283185307179586
2  32 4 18 0.000000000000000 6.283185307179586
2  33 19 21 0.000000000000000 6.283185307179586
2  34 19 23 0.000000000000000 6.283185307179586
2  35 20 24 0.000000000000000 6.283185307179586
2  36 4 25 0.000000000000000 6.283185307179586
2  37 21 28 0.000000000000000 6.283185307179586
2  38 21 30 0.000000000000000 6.283185307179586
2  39 22 31 0.000000000000000 6.283185307179586
2  40 4 32 0.000000000000000 6.283185307179586
2  41 23 35 0.000000000000000 6.283185307179586
2  42 23 37 0.000000000000000 6.283185307179586
2  43 24 38 0.000000000000000 6.283185307179586
2  44 4 39 0.000000000000000 6.283185307179586
2  45 25 42 0.000000000000000 6.283185307179586
2  46 25 44 0.000000000000000 6.283185307179586
2  47 26 45 0.000000000000000 6.283185307179586
2  48 13 50 0.000000000000000 6.283185307179586
2  49 16 51 0.000000000000000 6.283185307179586
2  50 16 52 0.000000000000000 6.283185307179586
2  51 27 53 0.000000000000000 6.283185307179586
2  52 15 58 0.000000000000000 6.283185307179586
0

0101100
+10 0 -10 0 *
Wi

0101100
+9 0 -9 0 -8 4 +8 6 *
Fa
0  0.000000100000000 16 0

0111000
+7 0 *
Wi

0101100
+8 0 *
Fa
0  0.000000100000000 27 0

0111000
+5 60 *
Sh

0101100
+6 0 +4 59 -4 61 *
So

0100000
-3 0 *
Co

1100000
+11 0 +2 0 *

+1 0 