
CASCADE Topology V1, (c) Matra-Datavision
Locations 166
1
1.000000000000000 0.000000000000000 0.000000000000000 0.000000000000000 
0.000000000000000 1.000000000000000 0.000000000000000 0.000000000000000 
0.000000000000000 0.000000000000000 1.000000000000000 0.000000000000000 
1
0.000000000000000 -0.000000000000000 1.000000000000000 0.000000000000000 
1.000000000000000 0.000000000000000 -0.000000000000000 0.000000000000000 
-0.000000000000000 1.000000000000000 0.000000000000000 0.000000000000000 
1
1.000000000000000 0.000000000000000 0.000000000000000 0.000000000000000 
0.000000000000000 1.000000000000000 0.000000000000000 0.000000000000000 
0.000000000000000 0.000000000000000 1.000000000000000 0.000000000000000 
1
1.000000000000000 0.000000000000000 0.000000000000000 895.395714106482501 
0.000000000000000 1.000000000000000 0.000000000000000 -0.000000000000199 
0.000000000000000 0.000000000000000 1.000000000000000 0.000000000000249 
2  1 1 2 1 3 -1 4 1 0
1
1.000000000000000 0.000000000000000 0.000000000000000 -1790.791428212965002 
0.000000000000000 1.000000000000000 0.000000000000000 0.000000000000398 
0.000000000000000 0.000000000000000 1.000000000000000 -0.000000000000497 
2  1 1 2 1 3 -1 4 1 6 1 0
1
1.000000000000000 0.000000000000000 0.000000000000000 900.544527422462920 
0.000000000000000 1.000000000000000 0.000000000000000 -0.000000000000200 
0.000000000000000 0.000000000000000 1.000000000000000 0.000000000000250 
1
1.000000000000000 0.000000000000000 0.000000000000000 0.000000000000000 
0.000000000000000 1.000000000000000 0.000000000000000 0.000000000000000 
0.000000000000000 0.000000000000000 1.000000000000000 0.000000000000000 
1
0.000000000000000 -0.000000000000000 1.000000000000000 0.000000000000000 
1.000000000000000 0.000000000000000 -0.000000000000000 0.000000000000000 
-0.000000000000000 1.000000000000000 0.000000000000000 0.000000000000000 
1
1.000000000000000 0.000000000000000 0.000000000000000 0.000000000000000 
0.000000000000000 1.000000000000000 0.000000000000000 0.000000000000000 
0.000000000000000 0.000000000000000 1.000000000000000 0.000000000000000 
2  8 -1 9 1 10 -1 11 -1 0
1
1.000000000000000 0.000000000000000 0.000000000000000 -1801.089054844925840 
0.000000000000000 1.000000000000000 0.000000000000000 0.000000000000400 
0.000000000000000 0.000000000000000 1.000000000000000 -0.000000000000500 
2  13 -1 8 -1 9 1 10 -1 11 -1 0
1
1.000000000000000 0.000000000000000 0.000000000000000 900.544527422462920 
0.000000000000000 1.000000000000000 0.000000000000000 -0.000000000000200 
0.000000000000000 0.000000000000000 1.000000000000000 0.000000000000250 
1
1.000000000000000 0.000000000000000 0.000000000000000 0.000000000000000 
0.000000000000000 1.000000000000000 0.000000000000000 0.000000000000000 
0.000000000000000 0.000000000000000 1.000000000000000 0.000000000000000 
1
0.000000000000000 -0.000000000000000 1.000000000000000 0.000000000000000 
1.000000000000000 0.000000000000000 -0.000000000000000 0.000000000000000 
-0.000000000000000 1.000000000000000 0.000000000000000 0.000000000000000 
1
1.000000000000000 0.000000000000000 0.000000000000000 0.000000000000000 
0.000000000000000 1.000000000000000 0.000000000000000 0.000000000000000 
0.000000000000000 0.000000000000000 1.000000000000000 0.000000000000000 
2  15 -1 16 1 17 -1 18 -1 0
1
1.000000000000000 0.000000000000000 0.000000000000000 -1801.089054844925840 
0.000000000000000 1.000000000000000 0.000000000000000 0.000000000000400 
0.000000000000000 0.000000000000000 1.000000000000000 -0.000000000000500 
2  20 -1 15 -1 16 1 17 -1 18 -1 0
1
1.000000000000000 0.000000000000000 0.000000000000000 900.544527422462920 
0.000000000000000 1.000000000000000 0.000000000000000 -0.000000000000200 
0.000000000000000 0.000000000000000 1.000000000000000 0.000000000000250 
1
1.000000000000000 0.000000000000000 0.000000000000000 0.000000000000000 
0.000000000000000 1.000000000000000 0.000000000000000 0.000000000000000 
0.000000000000000 0.000000000000000 1.000000000000000 0.000000000000000 
1
0.000000000000000 -0.000000000000000 1.000000000000000 0.000000000000000 
1.000000000000000 0.000000000000000 -0.000000000000000 0.000000000000000 
-0.000000000000000 1.000000000000000 0.000000000000000 0.000000000000000 
1
1.000000000000000 0.000000000000000 0.000000000000000 0.000000000000000 
0.000000000000000 1.000000000000000 0.000000000000000 0.000000000000000 
0.000000000000000 0.000000000000000 1.000000000000000 0.000000000000000 
2  22 -1 23 1 24 -1 25 -1 0
1
1.000000000000000 0.000000000000000 0.000000000000000 -1801.089054844925840 
0.000000000000000 1.000000000000000 0.000000000000000 0.000000000000400 
0.000000000000000 0.000000000000000 1.000000000000000 -0.000000000000500 
2  27 -1 22 -1 23 1 24 -1 25 -1 0
1
1.000000000000000 0.000000000000000 0.000000000000000 900.544527422462920 
0.000000000000000 1.000000000000000 0.000000000000000 -0.000000000000200 
0.000000000000000 0.000000000000000 1.000000000000000 0.000000000000250 
1
1.000000000000000 0.000000000000000 0.000000000000000 0.000000000000000 
0.000000000000000 1.000000000000000 0.000000000000000 0.000000000000000 
0.000000000000000 0.000000000000000 1.000000000000000 0.000000000000000 
1
0.000000000000000 -0.000000000000000 1.000000000000000 0.000000000000000 
1.000000000000000 0.000000000000000 -0.000000000000000 0.000000000000000 
-0.000000000000000 1.000000000000000 0.000000000000000 0.000000000000000 
1
1.000000000000000 0.000000000000000 0.000000000000000 0.000000000000000 
0.000000000000000 1.000000000000000 0.000000000000000 0.000000000000000 
0.000000000000000 0.000000000000000 1.000000000000000 0.000000000000000 
2  29 -1 30 1 31 -1 32 -1 0
1
1.000000000000000 0.000000000000000 0.000000000000000 -1801.089054844925840 
0.000000000000000 1.000000000000000 0.000000000000000 0.000000000000400 
0.000000000000000 0.000000000000000 1.000000000000000 -0.000000000000500 
2  34 -1 29 -1 30 1 31 -1 32 -1 0
1
1.000000000000000 0.000000000000000 0.000000000000000 895.928696046221717 
0.000000000000000 1.000000000000000 0.000000000000000 -0.000000000000199 
0.000000000000000 0.000000000000000 1.000000000000000 0.000000000000249 
1
1.000000000000000 0.000000000000000 0.000000000000000 0.000000000000000 
0.000000000000000 1.000000000000000 0.000000000000000 0.000000000000000 
0.000000000000000 0.000000000000000 1.000000000000000 0.000000000000000 
1
0.000000000000000 -0.000000000000000 1.000000000000000 0.000000000000000 
1.000000000000000 0.000000000000000 -0.000000000000000 0.000000000000000 
-0.000000000000000 1.000000000000000 0.000000000000000 0.000000000000000 
1
1.000000000000000 0.000000000000000 0.000000000000000 0.000000000000000 
0.000000000000000 1.000000000000000 0.000000000000000 0.000000000000000 
0.000000000000000 0.000000000000000 1.000000000000000 0.000000000000000 
2  36 -1 37 1 38 -1 39 -1 0
1
1.000000000000000 0.000000000000000 0.000000000000000 -1791.857392092443433 
0.000000000000000 1.000000000000000 0.000000000000000 0.000000000000398 
0.000000000000000 0.000000000000000 1.000000000000000 -0.000000000000497 
2  41 -1 36 -1 37 1 38 -1 39 -1 0
1
1.000000000000000 0.000000000000000 0.000000000000000 895.395714106482501 
0.000000000000000 1.000000000000000 0.000000000000000 -0.000000000000199 
0.000000000000000 0.000000000000000 1.000000000000000 0.000000000000249 
1
1.000000000000000 0.000000000000000 0.000000000000000 0.000000000000000 
0.000000000000000 1.000000000000000 0.000000000000000 0.000000000000000 
0.000000000000000 0.000000000000000 1.000000000000000 0.000000000000000 
1
0.000000000000000 -0.000000000000000 1.000000000000000 0.000000000000000 
1.000000000000000 0.000000000000000 -0.000000000000000 0.000000000000000 
-0.000000000000000 1.000000000000000 0.000000000000000 0.000000000000000 
1
1.000000000000000 0.000000000000000 0.000000000000000 0.000000000000000 
0.000000000000000 1.000000000000000 0.000000000000000 0.000000000000000 
0.000000000000000 0.000000000000000 1.000000000000000 0.000000000000000 
2  43 -1 44 1 45 -1 46 -1 0
1
1.000000000000000 0.000000000000000 0.000000000000000 -1790.791428212965002 
0.000000000000000 1.000000000000000 0.000000000000000 0.000000000000398 
0.000000000000000 0.000000000000000 1.000000000000000 -0.000000000000497 
2  48 -1 43 -1 44 1 45 -1 46 -1 0
1
1.000000000000000 0.000000000000000 0.000000000000000 895.395714106482501 
0.000000000000000 1.000000000000000 0.000000000000000 -0.000000000000199 
0.000000000000000 0.000000000000000 1.000000000000000 0.000000000000249 
1
1.000000000000000 0.000000000000000 0.000000000000000 0.000000000000000 
0.000000000000000 1.000000000000000 0.000000000000000 0.000000000000000 
0.000000000000000 0.000000000000000 1.000000000000000 0.000000000000000 
1
0.000000000000000 -0.000000000000000 1.000000000000000 0.000000000000000 
1.000000000000000 0.000000000000000 -0.000000000000000 0.000000000000000 
-0.000000000000000 1.000000000000000 0.000000000000000 0.000000000000000 
1
1.000000000000000 0.000000000000000 0.000000000000000 0.000000000000000 
0.000000000000000 1.000000000000000 0.000000000000000 0.000000000000000 
0.000000000000000 0.000000000000000 1.000000000000000 0.000000000000000 
2  50 -1 51 1 52 -1 53 -1 0
1
1.000000000000000 0.000000000000000 0.000000000000000 -1790.791428212965002 
0.000000000000000 1.000000000000000 0.000000000000000 0.000000000000398 
0.000000000000000 0.000000000000000 1.000000000000000 -0.000000000000497 
2  55 -1 50 -1 51 1 52 -1 53 -1 0
1
1.000000000000000 0.000000000000000 0.000000000000000 895.395714106482501 
0.000000000000000 1.000000000000000 0.000000000000000 -0.000000000000199 
0.000000000000000 0.000000000000000 1.000000000000000 0.000000000000249 
1
1.000000000000000 0.000000000000000 0.000000000000000 0.000000000000000 
0.000000000000000 1.000000000000000 0.000000000000000 0.000000000000000 
0.000000000000000 0.000000000000000 1.000000000000000 0.000000000000000 
1
0.000000000000000 -0.000000000000000 1.000000000000000 0.000000000000000 
1.000000000000000 0.000000000000000 -0.000000000000000 0.000000000000000 
-0.000000000000000 1.000000000000000 0.000000000000000 0.000000000000000 
1
1.000000000000000 0.000000000000000 0.000000000000000 0.000000000000000 
0.000000000000000 1.000000000000000 0.000000000000000 0.000000000000000 
0.000000000000000 0.000000000000000 1.000000000000000 0.000000000000000 
2  57 -1 58 1 59 -1 60 -1 0
1
1.000000000000000 0.000000000000000 0.000000000000000 -1790.791428212965002 
0.000000000000000 1.000000000000000 0.000000000000000 0.000000000000398 
0.000000000000000 0.000000000000000 1.000000000000000 -0.000000000000497 
2  62 -1 57 -1 58 1 59 -1 60 -1 0
1
1.000000000000000 0.000000000000000 0.000000000000000 895.395714106482501 
0.000000000000000 1.000000000000000 0.000000000000000 -0.000000000000199 
0.000000000000000 0.000000000000000 1.000000000000000 0.000000000000249 
1
1.000000000000000 0.000000000000000 0.000000000000000 0.000000000000000 
0.000000000000000 1.000000000000000 0.000000000000000 0.000000000000000 
0.000000000000000 0.000000000000000 1.000000000000000 0.000000000000000 
1
0.000000000000000 -0.000000000000000 1.000000000000000 0.000000000000000 
1.000000000000000 0.000000000000000 -0.000000000000000 0.000000000000000 
-0.000000000000000 1.000000000000000 0.000000000000000 0.000000000000000 
1
1.000000000000000 0.000000000000000 0.000000000000000 0.000000000000000 
0.000000000000000 1.000000000000000 0.000000000000000 0.000000000000000 
0.000000000000000 0.000000000000000 1.000000000000000 0.000000000000000 
2  64 -1 65 1 66 -1 67 -1 0
1
1.000000000000000 0.000000000000000 0.000000000000000 -1790.791428212965002 
0.000000000000000 1.000000000000000 0.000000000000000 0.000000000000398 
0.000000000000000 0.000000000000000 1.000000000000000 -0.000000000000497 
2  69 -1 64 -1 65 1 66 -1 67 -1 0
1
1.000000000000000 0.000000000000000 0.000000000000000 895.395714106482501 
0.000000000000000 1.000000000000000 0.000000000000000 -0.000000000000199 
0.000000000000000 0.000000000000000 1.000000000000000 0.000000000000249 
1
1.000000000000000 0.000000000000000 0.000000000000000 0.000000000000000 
0.000000000000000 1.000000000000000 0.000000000000000 0.000000000000000 
0.000000000000000 0.000000000000000 1.000000000000000 0.000000000000000 
1
0.000000000000000 -0.000000000000000 1.000000000000000 0.000000000000000 
1.000000000000000 0.000000000000000 -0.000000000000000 0.000000000000000 
-0.000000000000000 1.000000000000000 0.000000000000000 0.000000000000000 
1
1.000000000000000 0.000000000000000 0.000000000000000 0.000000000000000 
0.000000000000000 1.000000000000000 0.000000000000000 0.000000000000000 
0.000000000000000 0.000000000000000 1.000000000000000 0.000000000000000 
2  71 -1 72 1 73 -1 74 -1 0
1
1.000000000000000 0.000000000000000 0.000000000000000 -1790.791428212965002 
0.000000000000000 1.000000000000000 0.000000000000000 0.000000000000398 
0.000000000000000 0.000000000000000 1.000000000000000 -0.000000000000497 
2  76 -1 71 -1 72 1 73 -1 74 -1 0
1
1.000000000000000 0.000000000000000 0.000000000000000 895.395714106482501 
0.000000000000000 1.000000000000000 0.000000000000000 -0.000000000000199 
0.000000000000000 0.000000000000000 1.000000000000000 0.000000000000249 
1
1.000000000000000 0.000000000000000 0.000000000000000 0.000000000000000 
0.000000000000000 1.000000000000000 0.000000000000000 0.000000000000000 
0.000000000000000 0.000000000000000 1.000000000000000 0.000000000000000 
1
0.000000000000000 -0.000000000000000 1.000000000000000 0.000000000000000 
1.000000000000000 0.000000000000000 -0.000000000000000 0.000000000000000 
-0.000000000000000 1.000000000000000 0.000000000000000 0.000000000000000 
1
1.000000000000000 0.000000000000000 0.000000000000000 0.000000000000000 
0.000000000000000 1.000000000000000 0.000000000000000 0.000000000000000 
0.000000000000000 0.000000000000000 1.000000000000000 0.000000000000000 
2  78 -1 79 1 80 -1 81 -1 0
1
1.000000000000000 0.000000000000000 0.000000000000000 -1790.791428212965002 
0.000000000000000 1.000000000000000 0.000000000000000 0.000000000000398 
0.000000000000000 0.000000000000000 1.000000000000000 -0.000000000000497 
2  83 -1 78 -1 79 1 80 -1 81 -1 0
1
1.000000000000000 0.000000000000000 0.000000000000000 895.395714106482501 
0.000000000000000 1.000000000000000 0.000000000000000 -0.000000000000199 
0.000000000000000 0.000000000000000 1.000000000000000 0.000000000000249 
1
1.000000000000000 0.000000000000000 0.000000000000000 0.000000000000000 
0.000000000000000 1.000000000000000 0.000000000000000 0.000000000000000 
0.000000000000000 0.000000000000000 1.000000000000000 0.000000000000000 
1
0.000000000000000 -0.000000000000000 1.000000000000000 0.000000000000000 
1.000000000000000 0.000000000000000 -0.000000000000000 0.000000000000000 
-0.000000000000000 1.000000000000000 0.000000000000000 0.000000000000000 
1
1.000000000000000 0.000000000000000 0.000000000000000 0.000000000000000 
0.000000000000000 1.000000000000000 0.000000000000000 0.000000000000000 
0.000000000000000 0.000000000000000 1.000000000000000 0.000000000000000 
2  85 -1 86 1 87 -1 88 -1 0
1
1.000000000000000 0.000000000000000 0.000000000000000 -1790.791428212965002 
0.000000000000000 1.000000000000000 0.000000000000000 0.000000000000398 
0.000000000000000 0.000000000000000 1.000000000000000 -0.000000000000497 
2  90 -1 85 -1 86 1 87 -1 88 -1 0
1
1.000000000000000 0.000000000000000 0.000000000000000 895.395714106482501 
0.000000000000000 1.000000000000000 0.000000000000000 -0.000000000000199 
0.000000000000000 0.000000000000000 1.000000000000000 0.000000000000249 
1
1.000000000000000 0.000000000000000 0.000000000000000 0.000000000000000 
0.000000000000000 1.000000000000000 0.000000000000000 0.000000000000000 
0.000000000000000 0.000000000000000 1.000000000000000 0.000000000000000 
1
0.000000000000000 -0.000000000000000 1.000000000000000 0.000000000000000 
1.000000000000000 0.000000000000000 -0.000000000000000 0.000000000000000 
-0.000000000000000 1.000000000000000 0.000000000000000 0.000000000000000 
1
1.000000000000000 0.000000000000000 0.000000000000000 0.000000000000000 
0.000000000000000 1.000000000000000 0.000000000000000 0.000000000000000 
0.000000000000000 0.000000000000000 1.000000000000000 0.000000000000000 
2  92 -1 93 1 94 -1 95 -1 0
1
1.000000000000000 0.000000000000000 0.000000000000000 -1790.791428212965002 
0.000000000000000 1.000000000000000 0.000000000000000 0.000000000000398 
0.000000000000000 0.000000000000000 1.000000000000000 -0.000000000000497 
2  97 -1 92 -1 93 1 94 -1 95 -1 0
1
1.000000000000000 0.000000000000000 0.000000000000000 895.395714106482501 
0.000000000000000 1.000000000000000 0.000000000000000 -0.000000000000199 
0.000000000000000 0.000000000000000 1.000000000000000 0.000000000000249 
1
1.000000000000000 0.000000000000000 0.000000000000000 0.000000000000000 
0.000000000000000 1.000000000000000 0.000000000000000 0.000000000000000 
0.000000000000000 0.000000000000000 1.000000000000000 0.000000000000000 
1
0.000000000000000 -0.000000000000000 1.000000000000000 0.000000000000000 
1.000000000000000 0.000000000000000 -0.000000000000000 0.000000000000000 
-0.000000000000000 1.000000000000000 0.000000000000000 0.000000000000000 
1
1.000000000000000 0.000000000000000 0.000000000000000 0.000000000000000 
0.000000000000000 1.000000000000000 0.000000000000000 0.000000000000000 
0.000000000000000 0.000000000000000 1.000000000000000 0.000000000000000 
2  99 -1 100 1 101 -1 102 -1 0
1
1.000000000000000 0.000000000000000 0.000000000000000 -1790.791428212965002 
0.000000000000000 1.000000000000000 0.000000000000000 0.000000000000398 
0.000000000000000 0.000000000000000 1.000000000000000 -0.000000000000497 
2  104 -1 99 -1 100 1 101 -1 102 -1 0
1
1.000000000000000 0.000000000000000 0.000000000000000 895.395714106482501 
0.000000000000000 1.000000000000000 0.000000000000000 -0.000000000000199 
0.000000000000000 0.000000000000000 1.000000000000000 0.000000000000249 
1
1.000000000000000 0.000000000000000 0.000000000000000 0.000000000000000 
0.000000000000000 1.000000000000000 0.000000000000000 0.000000000000000 
0.000000000000000 0.000000000000000 1.000000000000000 0.000000000000000 
1
0.000000000000000 -0.000000000000000 1.000000000000000 0.000000000000000 
1.000000000000000 0.000000000000000 -0.000000000000000 0.000000000000000 
-0.000000000000000 1.000000000000000 0.000000000000000 0.000000000000000 
1
1.000000000000000 0.000000000000000 0.000000000000000 0.000000000000000 
0.000000000000000 1.000000000000000 0.000000000000000 0.000000000000000 
0.000000000000000 0.000000000000000 1.000000000000000 0.000000000000000 
2  106 -1 107 1 108 -1 109 -1 0
1
1.000000000000000 0.000000000000000 0.000000000000000 -1790.791428212965002 
0.000000000000000 1.000000000000000 0.000000000000000 0.000000000000398 
0.000000000000000 0.000000000000000 1.000000000000000 -0.000000000000497 
2  111 -1 106 -1 107 1 108 -1 109 -1 0
1
1.000000000000000 0.000000000000000 0.000000000000000 895.395714106482274 
0.000000000000000 1.000000000000000 0.000000000000000 -0.000000000000199 
0.000000000000000 0.000000000000000 1.000000000000000 0.000000000000249 
1
1.000000000000000 0.000000000000000 0.000000000000000 0.000000000000000 
0.000000000000000 1.000000000000000 0.000000000000000 0.000000000000000 
0.000000000000000 0.000000000000000 1.000000000000000 0.000000000000000 
1
0.000000000000000 -0.000000000000000 1.000000000000000 0.000000000000000 
1.000000000000000 0.000000000000000 -0.000000000000000 0.000000000000000 
-0.000000000000000 1.000000000000000 0.000000000000000 0.000000000000000 
1
1.000000000000000 0.000000000000000 0.000000000000000 0.000000000000000 
0.000000000000000 1.000000000000000 0.000000000000000 0.000000000000000 
0.000000000000000 0.000000000000000 1.000000000000000 0.000000000000000 
2  113 -1 114 1 115 -1 116 -1 0
1
1.000000000000000 0.000000000000000 0.000000000000000 -1790.791428212964547 
0.000000000000000 1.000000000000000 0.000000000000000 0.000000000000398 
0.000000000000000 0.000000000000000 1.000000000000000 -0.000000000000497 
2  118 -1 113 -1 114 1 115 -1 116 -1 0
1
1.000000000000000 0.000000000000000 0.000000000000000 895.395714106482274 
0.000000000000000 1.000000000000000 0.000000000000000 -0.000000000000199 
0.000000000000000 0.000000000000000 1.000000000000000 0.000000000000249 
1
1.000000000000000 0.000000000000000 0.000000000000000 0.000000000000000 
0.000000000000000 1.000000000000000 0.000000000000000 0.000000000000000 
0.000000000000000 0.000000000000000 1.000000000000000 0.000000000000000 
1
0.000000000000000 -0.000000000000000 1.000000000000000 0.000000000000000 
1.000000000000000 0.000000000000000 -0.000000000000000 0.000000000000000 
-0.000000000000000 1.000000000000000 0.000000000000000 0.000000000000000 
1
1.000000000000000 0.000000000000000 0.000000000000000 0.000000000000000 
0.000000000000000 1.000000000000000 0.000000000000000 0.000000000000000 
0.000000000000000 0.000000000000000 1.000000000000000 0.000000000000000 
2  120 -1 121 1 122 -1 123 -1 0
1
1.000000000000000 0.000000000000000 0.000000000000000 -1790.791428212964547 
0.000000000000000 1.000000000000000 0.000000000000000 0.000000000000398 
0.000000000000000 0.000000000000000 1.000000000000000 -0.000000000000497 
2  125 -1 120 -1 121 1 122 -1 123 -1 0
1
1.000000000000000 0.000000000000000 0.000000000000000 895.395714106482274 
0.000000000000000 1.000000000000000 0.000000000000000 -0.000000000000199 
0.000000000000000 0.000000000000000 1.000000000000000 0.000000000000249 
1
1.000000000000000 0.000000000000000 0.000000000000000 0.000000000000000 
0.000000000000000 1.000000000000000 0.000000000000000 0.000000000000000 
0.000000000000000 0.000000000000000 1.000000000000000 0.000000000000000 
1
0.000000000000000 -0.000000000000000 1.000000000000000 0.000000000000000 
1.000000000000000 0.000000000000000 -0.000000000000000 0.000000000000000 
-0.000000000000000 1.000000000000000 0.000000000000000 0.000000000000000 
1
1.000000000000000 0.000000000000000 0.000000000000000 0.000000000000000 
0.000000000000000 1.000000000000000 0.000000000000000 0.000000000000000 
0.000000000000000 0.000000000000000 1.000000000000000 0.000000000000000 
2  127 -1 128 1 129 -1 130 -1 0
1
1.000000000000000 0.000000000000000 0.000000000000000 -1790.791428212964547 
0.000000000000000 1.000000000000000 0.000000000000000 0.000000000000398 
0.000000000000000 0.000000000000000 1.000000000000000 -0.000000000000497 
2  132 -1 127 -1 128 1 129 -1 130 -1 0
1
1.000000000000000 0.000000000000000 0.000000000000000 895.395714106482274 
0.000000000000000 1.000000000000000 0.000000000000000 -0.000000000000199 
0.000000000000000 0.000000000000000 1.000000000000000 0.000000000000249 
1
1.000000000000000 0.000000000000000 0.000000000000000 0.000000000000000 
0.000000000000000 1.000000000000000 0.000000000000000 0.000000000000000 
0.000000000000000 0.000000000000000 1.000000000000000 0.000000000000000 
1
0.000000000000000 -0.000000000000000 1.000000000000000 0.000000000000000 
1.000000000000000 0.000000000000000 -0.000000000000000 0.000000000000000 
-0.000000000000000 1.000000000000000 0.000000000000000 0.000000000000000 
1
1.000000000000000 0.000000000000000 0.000000000000000 0.000000000000000 
0.000000000000000 1.000000000000000 0.000000000000000 0.000000000000000 
0.000000000000000 0.000000000000000 1.000000000000000 0.000000000000000 
2  134 -1 135 1 136 -1 137 -1 0
1
1.000000000000000 0.000000000000000 0.000000000000000 -1790.791428212964547 
0.000000000000000 1.000000000000000 0.000000000000000 0.000000000000398 
0.000000000000000 0.000000000000000 1.000000000000000 -0.000000000000497 
2  139 -1 134 -1 135 1 136 -1 137 -1 0
1
1.000000000000000 0.000000000000000 0.000000000000000 895.395714106482274 
0.000000000000000 1.000000000000000 0.000000000000000 -0.000000000000199 
0.000000000000000 0.000000000000000 1.000000000000000 0.000000000000249 
1
1.000000000000000 0.000000000000000 0.000000000000000 0.000000000000000 
0.000000000000000 1.000000000000000 0.000000000000000 0.000000000000000 
0.000000000000000 0.000000000000000 1.000000000000000 0.000000000000000 
1
0.000000000000000 -0.000000000000000 1.000000000000000 0.000000000000000 
1.000000000000000 0.000000000000000 -0.000000000000000 0.000000000000000 
-0.000000000000000 1.000000000000000 0.000000000000000 0.000000000000000 
1
1.000000000000000 0.000000000000000 0.000000000000000 0.000000000000000 
0.000000000000000 1.000000000000000 0.000000000000000 0.000000000000000 
0.000000000000000 0.000000000000000 1.000000000000000 0.000000000000000 
2  141 -1 142 1 143 -1 144 -1 0
1
1.000000000000000 0.000000000000000 0.000000000000000 -1790.791428212964547 
0.000000000000000 1.000000000000000 0.000000000000000 0.000000000000398 
0.000000000000000 0.000000000000000 1.000000000000000 -0.000000000000497 
2  146 -1 141 -1 142 1 143 -1 144 -1 0
1
1.000000000000000 0.000000000000000 0.000000000000000 895.395714106482274 
0.000000000000000 1.000000000000000 0.000000000000000 -0.000000000000199 
0.000000000000000 0.000000000000000 1.000000000000000 0.000000000000249 
1
1.000000000000000 0.000000000000000 0.000000000000000 0.000000000000000 
0.000000000000000 1.000000000000000 0.000000000000000 0.000000000000000 
0.000000000000000 0.000000000000000 1.000000000000000 0.000000000000000 
1
0.000000000000000 -0.000000000000000 1.000000000000000 0.000000000000000 
1.000000000000000 0.000000000000000 -0.000000000000000 0.000000000000000 
-0.000000000000000 1.000000000000000 0.000000000000000 0.000000000000000 
1
1.000000000000000 0.000000000000000 0.000000000000000 0.000000000000000 
0.000000000000000 1.000000000000000 0.000000000000000 0.000000000000000 
0.000000000000000 0.000000000000000 1.000000000000000 0.000000000000000 
2  148 -1 149 1 150 -1 151 -1 0
1
1.000000000000000 0.000000000000000 0.000000000000000 -1790.791428212964547 
0.000000000000000 1.000000000000000 0.000000000000000 0.000000000000398 
0.000000000000000 0.000000000000000 1.000000000000000 -0.000000000000497 
2  153 -1 148 -1 149 1 150 -1 151 -1 0
1
1.000000000000000 0.000000000000000 0.000000000000000 895.395714106482501 
0.000000000000000 1.000000000000000 0.000000000000000 -0.000000000000199 
0.000000000000000 0.000000000000000 1.000000000000000 0.000000000000249 
1
1.000000000000000 0.000000000000000 0.000000000000000 0.000000000000000 
0.000000000000000 1.000000000000000 0.000000000000000 0.000000000000000 
0.000000000000000 0.000000000000000 1.000000000000000 0.000000000000000 
1
0.000000000000000 -0.000000000000000 1.000000000000000 0.000000000000000 
1.000000000000000 0.000000000000000 -0.000000000000000 0.000000000000000 
-0.000000000000000 1.000000000000000 0.000000000000000 0.000000000000000 
1
1.000000000000000 0.000000000000000 0.000000000000000 0.000000000000000 
0.000000000000000 1.000000000000000 0.000000000000000 0.000000000000000 
0.000000000000000 0.000000000000000 1.000000000000000 0.000000000000000 
2  155 -1 156 1 157 -1 158 -1 0
1
1.000000000000000 0.000000000000000 0.000000000000000 -1790.791428212965002 
0.000000000000000 1.000000000000000 0.000000000000000 0.000000000000398 
0.000000000000000 0.000000000000000 1.000000000000000 -0.000000000000497 
2  160 -1 155 -1 156 1 157 -1 158 -1 0
2  4 -1 3 1 2 -1 1 -1 0
2  6 -1 4 -1 3 1 2 -1 1 -1 0
2  3 -1 4 1 0
2  1 1 2 1 0
2  3 -1 4 1 6 1 0
Curve2ds 106
1 0.00000000000000018 0.00000000000000000 -0.00000000000000004 -1.00000000000000000 
1 65.09999999999998010 0.00000000000009923 0.00000000000000006 -1.00000000000000000 
1 81.18041635764132025 0.00000000000000369 -0.00000000000000004 -1.00000000000000000 
1 0.00000000000000000 0.00000000000000000 1.00000000000000000 -0.00000000000000000 
1 -0.00000000000006035 -1801.08905484492584037 1.00000000000000000 -0.00000000000000000 
1 0.00000000000000000 0.00000000000000000 1.00000000000000000 -0.00000000000000000 
1 -0.00000000000006035 -1801.08905484492584037 1.00000000000000000 -0.00000000000000000 
1 0.00000000000000000 0.00000000000000000 1.00000000000000000 -0.00000000000000000 
1 -0.00000000000006035 -1801.08905484492584037 1.00000000000000000 -0.00000000000000000 
1 0.00000000000000000 0.00000000000000000 1.00000000000000000 -0.00000000000000000 
1 -0.00000000000006035 -1801.08905484492584037 1.00000000000000000 -0.00000000000000000 
1 0.00000000000000000 0.00000000000000000 1.00000000000000000 -0.00000000000000000 
1 -0.00000000000010159 -1791.85739209244343328 1.00000000000000000 -0.00000000000000000 
1 0.00000000000000000 0.00000000000000000 1.00000000000000000 0.00000000000000000 
1 -0.00000000000010128 -1790.79142821296500188 1.00000000000000000 0.00000000000000000 
1 0.00000000000000000 0.00000000000000000 1.00000000000000000 0.00000000000000000 
1 -0.00000000000010128 -1790.79142821296500188 1.00000000000000000 0.00000000000000000 
1 0.00000000000000000 0.00000000000000000 1.00000000000000000 0.00000000000000000 
1 -0.00000000000010128 -1790.79142821296500188 1.00000000000000000 0.00000000000000000 
1 0.00000000000000000 0.00000000000000000 1.00000000000000000 0.00000000000000000 
1 -0.00000000000010128 -1790.79142821296500188 1.00000000000000000 0.00000000000000000 
1 0.00000000000000000 0.00000000000000000 1.00000000000000000 0.00000000000000000 
1 -0.00000000000010128 -1790.79142821296500188 1.00000000000000000 0.00000000000000000 
1 0.00000000000000000 0.00000000000000000 1.00000000000000000 0.00000000000000000 
1 -0.00000000000010128 -1790.79142821296500188 1.00000000000000000 0.00000000000000000 
1 0.00000000000000000 0.00000000000000000 1.00000000000000000 0.00000000000000000 
1 -0.00000000000010128 -1790.79142821296500188 1.00000000000000000 0.00000000000000000 
1 0.00000000000000000 0.00000000000000000 1.00000000000000000 0.00000000000000000 
1 -0.00000000000010128 -1790.79142821296500188 1.00000000000000000 0.00000000000000000 
1 0.00000000000000000 0.00000000000000000 1.00000000000000000 0.00000000000000000 
1 -0.00000000000010128 -1790.79142821296500188 1.00000000000000000 0.00000000000000000 
1 0.00000000000000000 0.00000000000000000 1.00000000000000000 0.00000000000000000 
1 -0.00000000000010128 -1790.79142821296500188 1.00000000000000000 0.00000000000000000 
1 0.00000000000000000 0.00000000000000000 1.00000000000000000 -0.00000000000000000 
1 -0.00000000000010128 -1790.79142821296454713 1.00000000000000000 -0.00000000000000000 
1 0.00000000000000000 0.00000000000000000 1.00000000000000000 -0.00000000000000000 
1 -0.00000000000010128 -1790.79142821296454713 1.00000000000000000 -0.00000000000000000 
1 0.00000000000000000 0.00000000000000000 1.00000000000000000 -0.00000000000000000 
1 -0.00000000000010128 -1790.79142821296454713 1.00000000000000000 -0.00000000000000000 
1 0.00000000000000000 0.00000000000000000 1.00000000000000000 -0.00000000000000000 
1 -0.00000000000010128 -1790.79142821296454713 1.00000000000000000 -0.00000000000000000 
1 0.00000000000000000 0.00000000000000000 1.00000000000000000 -0.00000000000000000 
1 -0.00000000000010128 -1790.79142821296454713 1.00000000000000000 -0.00000000000000000 
1 0.00000000000000000 0.00000000000000000 1.00000000000000000 -0.00000000000000000 
1 -0.00000000000010128 -1790.79142821296454713 1.00000000000000000 -0.00000000000000000 
1 0.00000000000000000 0.00000000000000000 1.00000000000000000 0.00000000000000000 
1 -0.00000000000010128 -1790.79142821296500188 1.00000000000000000 0.00000000000000000 
1 0.00000000000000000 0.00000000000000000 1.00000000000000000 0.00000000000000000 
1 -0.00000000000010128 -1790.79142821296500188 1.00000000000000000 0.00000000000000000 
1 0.00000000000000000 0.00000000000000000 0.00000000000000006 -1.00000000000000000 
1 0.00000000000000000 0.00000000000000000 1.00000000000000000 0.00000000000000000 
1 -0.00000000000005483 -1801.08905484492584037 1.00000000000000000 0.00000000000000000 
1 0.00000000000000000 0.00000000000000000 1.00000000000000000 0.00000000000000000 
1 -0.00000000000005483 -1801.08905484492584037 1.00000000000000000 0.00000000000000000 
1 0.00000000000000000 0.00000000000000000 1.00000000000000000 0.00000000000000000 
1 -0.00000000000005483 -1801.08905484492584037 1.00000000000000000 0.00000000000000000 
1 0.00000000000000000 0.00000000000000000 1.00000000000000000 0.00000000000000000 
1 -0.00000000000005483 -1801.08905484492584037 1.00000000000000000 0.00000000000000000 
1 0.00000000000000000 0.00000000000000000 1.00000000000000000 0.00000000000000000 
1 0.00000000000005681 -1791.85739209244343328 1.00000000000000000 0.00000000000000000 
1 0.00000000000000000 0.00000000000000000 1.00000000000000000 0.00000000000000000 
1 0.00000000000011167 -1801.08905484492584037 1.00000000000000000 0.00000000000000000 
1 0.00000000000000000 0.00000000000000000 1.00000000000000000 0.00000000000000000 
1 0.00000000000011167 -1801.08905484492584037 1.00000000000000000 0.00000000000000000 
1 0.00000000000000000 0.00000000000000000 1.00000000000000000 0.00000000000000000 
1 0.00000000000011167 -1801.08905484492584037 1.00000000000000000 0.00000000000000000 
1 0.00000000000000000 0.00000000000000000 1.00000000000000000 0.00000000000000000 
1 0.00000000000011167 -1801.08905484492584037 1.00000000000000000 0.00000000000000000 
1 0.00000000000000000 0.00000000000000000 1.00000000000000000 0.00000000000000000 
1 0.00000000000008530 -1791.85739209244343328 1.00000000000000000 0.00000000000000000 
1 0.00000000000000000 0.00000000000000000 1.00000000000000000 0.00000000000000000 
1 0.00000000000008553 -1790.79142821296500188 1.00000000000000000 0.00000000000000000 
1 0.00000000000000000 0.00000000000000000 1.00000000000000000 0.00000000000000000 
1 0.00000000000008553 -1790.79142821296500188 1.00000000000000000 0.00000000000000000 
1 0.00000000000000000 0.00000000000000000 1.00000000000000000 0.00000000000000000 
1 0.00000000000008553 -1790.79142821296500188 1.00000000000000000 0.00000000000000000 
1 0.00000000000000000 0.00000000000000000 1.00000000000000000 0.00000000000000000 
1 0.00000000000008553 -1790.79142821296500188 1.00000000000000000 0.00000000000000000 
1 0.00000000000000000 0.00000000000000000 1.00000000000000000 0.00000000000000000 
1 0.00000000000008553 -1790.79142821296500188 1.00000000000000000 0.00000000000000000 
1 0.00000000000000000 0.00000000000000000 1.00000000000000000 0.00000000000000000 
1 0.00000000000008553 -1790.79142821296500188 1.00000000000000000 0.00000000000000000 
1 0.00000000000000000 0.00000000000000000 1.00000000000000000 0.00000000000000000 
1 0.00000000000008553 -1790.79142821296500188 1.00000000000000000 0.00000000000000000 
1 0.00000000000000000 0.00000000000000000 1.00000000000000000 0.00000000000000000 
1 0.00000000000008553 -1790.79142821296500188 1.00000000000000000 0.00000000000000000 
1 0.00000000000000000 0.00000000000000000 1.00000000000000000 0.00000000000000000 
1 0.00000000000008553 -1790.79142821296500188 1.00000000000000000 0.00000000000000000 
1 0.00000000000000000 0.00000000000000000 1.00000000000000000 0.00000000000000000 
1 0.00000000000008553 -1790.79142821296500188 1.00000000000000000 0.00000000000000000 
1 0.00000000000000000 0.00000000000000000 1.00000000000000000 0.00000000000000000 
1 0.00000000000008553 -1790.79142821296454713 1.00000000000000000 0.00000000000000000 
1 0.00000000000000000 0.00000000000000000 1.00000000000000000 0.00000000000000000 
1 0.00000000000008553 -1790.79142821296454713 1.00000000000000000 0.00000000000000000 
1 0.00000000000000000 0.00000000000000000 1.00000000000000000 0.00000000000000000 
1 0.00000000000008553 -1790.79142821296454713 1.00000000000000000 0.00000000000000000 
1 0.00000000000000000 0.00000000000000000 1.00000000000000000 0.00000000000000000 
1 0.00000000000008553 -1790.79142821296454713 1.00000000000000000 0.00000000000000000 
1 0.00000000000000000 0.00000000000000000 1.00000000000000000 0.00000000000000000 
1 0.00000000000008553 -1790.79142821296454713 1.00000000000000000 0.00000000000000000 
1 0.00000000000000000 0.00000000000000000 1.00000000000000000 0.00000000000000000 
1 0.00000000000008553 -1790.79142821296454713 1.00000000000000000 0.00000000000000000 
1 0.00000000000000000 0.00000000000000000 1.00000000000000000 0.00000000000000000 
1 0.00000000000008553 -1790.79142821296500188 1.00000000000000000 0.00000000000000000 
1 0.00000000000000000 0.00000000000000000 1.00000000000000000 0.00000000000000000 
1 0.00000000000008553 -1790.79142821296500188 1.00000000000000000 0.00000000000000000 
Curves 6
1 895.39571410648261462 317.59999999999985221 0.40000000000018404 -1.00000000000000000 0.00000000000000022 -0.00000000000000028 
1 895.39571410648261462 366.09999999999985221 65.50000000000015632 -1.00000000000000000 0.00000000000000022 -0.00000000000000028 
1 317.60000000000002274 0.40000000000000568 0.00000000000000000 0.59743472842431178 0.80191754268912774 0.00000000000000000 
1 895.39571410648250094 317.59999999999985221 65.50000000000017053 -1.00000000000000000 0.00000000000000022 -0.00000000000000028 
1 366.10000000000002274 65.50000000000000000 0.00000000000000000 -1.00000000000000000 0.00000000000000000 0.00000000000000000 
1 317.60000000000002274 65.50000000000000000 0.00000000000000000 0.00000000000000000 -1.00000000000000000 0.00000000000000000 
Polygon3D 0
PolygonOnTriangulations 0
Surfaces 53
1 895.39571410648261462 317.59999999999985221 0.40000000000018371 0.00000000000000034 0.80191754268912763 -0.59743472842431200 -0.00000000000000005 0.59743472842431200 0.80191754268912763 1.00000000000000000 -0.00000000000000024 0.00000000000000024 
1 895.39571410648250094 317.59999999999985221 65.50000000000017053 -0.00000000000000022 -1.00000000000000000 0.00000000000000022 0.00000000000000022 -0.00000000000000022 -1.00000000000000000 1.00000000000000000 -0.00000000000000022 0.00000000000000022 
1 900.54452742246303387 317.59999999999979536 0.40000000000018515 0.00000000000000034 0.80191754268912763 -0.59743472842431200 -0.00000000000000005 0.59743472842431200 0.80191754268912763 1.00000000000000000 -0.00000000000000024 0.00000000000000024 
1 900.54452742246303387 317.59999999999979536 0.40000000000018515 0.00000000000000034 0.80191754268912763 -0.59743472842431200 -0.00000000000000005 0.59743472842431200 0.80191754268912763 1.00000000000000000 -0.00000000000000024 0.00000000000000024 
1 900.54452742246303387 317.59999999999979536 0.40000000000018515 0.00000000000000034 0.80191754268912763 -0.59743472842431200 -0.00000000000000005 0.59743472842431200 0.80191754268912763 1.00000000000000000 -0.00000000000000024 0.00000000000000024 
1 900.54452742246303387 317.59999999999979536 0.40000000000018515 0.00000000000000034 0.80191754268912763 -0.59743472842431200 -0.00000000000000005 0.59743472842431200 0.80191754268912763 1.00000000000000000 -0.00000000000000024 0.00000000000000024 
1 895.92869604622183033 317.59999999999985221 0.40000000000018388 0.00000000000000034 0.80191754268912763 -0.59743472842431200 -0.00000000000000005 0.59743472842431200 0.80191754268912763 1.00000000000000000 -0.00000000000000024 0.00000000000000024 
1 895.39571410648261462 317.59999999999985221 0.40000000000018371 0.00000000000000034 0.80191754268912763 -0.59743472842431200 -0.00000000000000005 0.59743472842431200 0.80191754268912763 1.00000000000000000 -0.00000000000000024 0.00000000000000024 
1 895.39571410648261462 317.59999999999985221 0.40000000000018371 0.00000000000000034 0.80191754268912763 -0.59743472842431200 -0.00000000000000005 0.59743472842431200 0.80191754268912763 1.00000000000000000 -0.00000000000000024 0.00000000000000024 
1 895.39571410648261462 317.59999999999985221 0.40000000000018371 0.00000000000000034 0.80191754268912763 -0.59743472842431200 -0.00000000000000005 0.59743472842431200 0.80191754268912763 1.00000000000000000 -0.00000000000000024 0.00000000000000024 
1 895.39571410648261462 317.59999999999985221 0.40000000000018371 0.00000000000000034 0.80191754268912763 -0.59743472842431200 -0.00000000000000005 0.59743472842431200 0.80191754268912763 1.00000000000000000 -0.00000000000000024 0.00000000000000024 
1 895.39571410648261462 317.59999999999985221 0.40000000000018371 0.00000000000000034 0.80191754268912763 -0.59743472842431200 -0.00000000000000005 0.59743472842431200 0.80191754268912763 1.00000000000000000 -0.00000000000000024 0.00000000000000024 
1 895.39571410648261462 317.59999999999985221 0.40000000000018371 0.00000000000000034 0.80191754268912763 -0.59743472842431200 -0.00000000000000005 0.59743472842431200 0.80191754268912763 1.00000000000000000 -0.00000000000000024 0.00000000000000024 
1 895.39571410648261462 317.59999999999985221 0.40000000000018371 0.00000000000000034 0.80191754268912763 -0.59743472842431200 -0.00000000000000005 0.59743472842431200 0.80191754268912763 1.00000000000000000 -0.00000000000000024 0.00000000000000024 
1 895.39571410648261462 317.59999999999985221 0.40000000000018371 0.00000000000000034 0.80191754268912763 -0.59743472842431200 -0.00000000000000005 0.59743472842431200 0.80191754268912763 1.00000000000000000 -0.00000000000000024 0.00000000000000024 
1 895.39571410648261462 317.59999999999985221 0.40000000000018371 0.00000000000000034 0.80191754268912763 -0.59743472842431200 -0.00000000000000005 0.59743472842431200 0.80191754268912763 1.00000000000000000 -0.00000000000000024 0.00000000000000024 
1 895.39571410648261462 317.59999999999985221 0.40000000000018371 0.00000000000000034 0.80191754268912763 -0.59743472842431200 -0.00000000000000005 0.59743472842431200 0.80191754268912763 1.00000000000000000 -0.00000000000000024 0.00000000000000024 
1 895.39571410648238725 317.59999999999985221 0.40000000000018371 0.00000000000000034 0.80191754268912763 -0.59743472842431200 -0.00000000000000005 0.59743472842431200 0.80191754268912763 1.00000000000000000 -0.00000000000000024 0.00000000000000024 
1 895.39571410648238725 317.59999999999985221 0.40000000000018371 0.00000000000000034 0.80191754268912763 -0.59743472842431200 -0.00000000000000005 0.59743472842431200 0.80191754268912763 1.00000000000000000 -0.00000000000000024 0.00000000000000024 
1 895.39571410648238725 317.59999999999985221 0.40000000000018371 0.00000000000000034 0.80191754268912763 -0.59743472842431200 -0.00000000000000005 0.59743472842431200 0.80191754268912763 1.00000000000000000 -0.00000000000000024 0.00000000000000024 
1 895.39571410648238725 317.59999999999985221 0.40000000000018371 0.00000000000000034 0.80191754268912763 -0.59743472842431200 -0.00000000000000005 0.59743472842431200 0.80191754268912763 1.00000000000000000 -0.00000000000000024 0.00000000000000024 
1 895.39571410648238725 317.59999999999985221 0.40000000000018371 0.00000000000000034 0.80191754268912763 -0.59743472842431200 -0.00000000000000005 0.59743472842431200 0.80191754268912763 1.00000000000000000 -0.00000000000000024 0.00000000000000024 
1 895.39571410648238725 317.59999999999985221 0.40000000000018371 0.00000000000000034 0.80191754268912763 -0.59743472842431200 -0.00000000000000005 0.59743472842431200 0.80191754268912763 1.00000000000000000 -0.00000000000000024 0.00000000000000024 
1 895.39571410648261462 317.59999999999985221 0.40000000000018371 0.00000000000000034 0.80191754268912763 -0.59743472842431200 -0.00000000000000005 0.59743472842431200 0.80191754268912763 1.00000000000000000 -0.00000000000000024 0.00000000000000024 
1 895.39571410648261462 366.09999999999985221 65.50000000000015632 -0.00000000000000028 0.00000000000000022 1.00000000000000000 -0.00000000000000022 -1.00000000000000000 0.00000000000000022 1.00000000000000000 -0.00000000000000022 0.00000000000000028 
1 900.54452742246303387 366.09999999999979536 65.50000000000017053 -0.00000000000000028 0.00000000000000022 1.00000000000000000 -0.00000000000000022 -1.00000000000000000 0.00000000000000022 1.00000000000000000 -0.00000000000000022 0.00000000000000028 
1 900.54452742246303387 366.09999999999979536 65.50000000000017053 -0.00000000000000028 0.00000000000000022 1.00000000000000000 -0.00000000000000022 -1.00000000000000000 0.00000000000000022 1.00000000000000000 -0.00000000000000022 0.00000000000000028 
1 900.54452742246303387 366.09999999999979536 65.50000000000017053 -0.00000000000000028 0.00000000000000022 1.00000000000000000 -0.00000000000000022 -1.00000000000000000 0.00000000000000022 1.00000000000000000 -0.00000000000000022 0.00000000000000028 
1 900.54452742246303387 366.09999999999979536 65.50000000000017053 -0.00000000000000028 0.00000000000000022 1.00000000000000000 -0.00000000000000022 -1.00000000000000000 0.00000000000000022 1.00000000000000000 -0.00000000000000022 0.00000000000000028 
1 895.92869604622183033 366.09999999999985221 65.50000000000015632 -0.00000000000000028 0.00000000000000022 1.00000000000000000 -0.00000000000000022 -1.00000000000000000 0.00000000000000022 1.00000000000000000 -0.00000000000000022 0.00000000000000028 
1 900.54452742246292019 317.59999999999979536 65.50000000000018474 -0.00000000000000022 -1.00000000000000000 0.00000000000000022 0.00000000000000022 -0.00000000000000022 -1.00000000000000000 1.00000000000000000 -0.00000000000000022 0.00000000000000022 
1 900.54452742246292019 317.59999999999979536 65.50000000000018474 -0.00000000000000022 -1.00000000000000000 0.00000000000000022 0.00000000000000022 -0.00000000000000022 -1.00000000000000000 1.00000000000000000 -0.00000000000000022 0.00000000000000022 
1 900.54452742246292019 317.59999999999979536 65.50000000000018474 -0.00000000000000022 -1.00000000000000000 0.00000000000000022 0.00000000000000022 -0.00000000000000022 -1.00000000000000000 1.00000000000000000 -0.00000000000000022 0.00000000000000022 
1 900.54452742246292019 317.59999999999979536 65.50000000000018474 -0.00000000000000022 -1.00000000000000000 0.00000000000000022 0.00000000000000022 -0.00000000000000022 -1.00000000000000000 1.00000000000000000 -0.00000000000000022 0.00000000000000022 
1 895.92869604622171664 317.59999999999985221 65.50000000000017053 -0.00000000000000022 -1.00000000000000000 0.00000000000000022 0.00000000000000022 -0.00000000000000022 -1.00000000000000000 1.00000000000000000 -0.00000000000000022 0.00000000000000022 
1 895.39571410648250094 317.59999999999985221 65.50000000000017053 -0.00000000000000022 -1.00000000000000000 0.00000000000000022 0.00000000000000022 -0.00000000000000022 -1.00000000000000000 1.00000000000000000 -0.00000000000000022 0.00000000000000022 
1 895.39571410648250094 317.59999999999985221 65.50000000000017053 -0.00000000000000022 -1.00000000000000000 0.00000000000000022 0.00000000000000022 -0.00000000000000022 -1.00000000000000000 1.00000000000000000 -0.00000000000000022 0.00000000000000022 
1 895.39571410648250094 317.59999999999985221 65.50000000000017053 -0.00000000000000022 -1.00000000000000000 0.00000000000000022 0.00000000000000022 -0.00000000000000022 -1.00000000000000000 1.00000000000000000 -0.00000000000000022 0.00000000000000022 
1 895.39571410648250094 317.59999999999985221 65.50000000000017053 -0.00000000000000022 -1.00000000000000000 0.00000000000000022 0.00000000000000022 -0.00000000000000022 -1.00000000000000000 1.00000000000000000 -0.00000000000000022 0.00000000000000022 
1 895.39571410648250094 317.59999999999985221 65.50000000000017053 -0.00000000000000022 -1.00000000000000000 0.00000000000000022 0.00000000000000022 -0.00000000000000022 -1.00000000000000000 1.00000000000000000 -0.00000000000000022 0.00000000000000022 
1 895.39571410648250094 317.59999999999985221 65.50000000000017053 -0.00000000000000022 -1.00000000000000000 0.00000000000000022 0.00000000000000022 -0.00000000000000022 -1.00000000000000000 1.00000000000000000 -0.00000000000000022 0.00000000000000022 
1 895.39571410648250094 317.59999999999985221 65.50000000000017053 -0.00000000000000022 -1.00000000000000000 0.00000000000000022 0.00000000000000022 -0.00000000000000022 -1.00000000000000000 1.00000000000000000 -0.00000000000000022 0.00000000000000022 
1 895.39571410648250094 317.59999999999985221 65.50000000000017053 -0.00000000000000022 -1.00000000000000000 0.00000000000000022 0.00000000000000022 -0.00000000000000022 -1.00000000000000000 1.00000000000000000 -0.00000000000000022 0.00000000000000022 
1 895.39571410648250094 317.59999999999985221 65.50000000000017053 -0.00000000000000022 -1.00000000000000000 0.00000000000000022 0.00000000000000022 -0.00000000000000022 -1.00000000000000000 1.00000000000000000 -0.00000000000000022 0.00000000000000022 
1 895.39571410648250094 317.59999999999985221 65.50000000000017053 -0.00000000000000022 -1.00000000000000000 0.00000000000000022 0.00000000000000022 -0.00000000000000022 -1.00000000000000000 1.00000000000000000 -0.00000000000000022 0.00000000000000022 
1 895.39571410648227356 317.59999999999985221 65.50000000000017053 -0.00000000000000022 -1.00000000000000000 0.00000000000000022 0.00000000000000022 -0.00000000000000022 -1.00000000000000000 1.00000000000000000 -0.00000000000000022 0.00000000000000022 
1 895.39571410648227356 317.59999999999985221 65.50000000000017053 -0.00000000000000022 -1.00000000000000000 0.00000000000000022 0.00000000000000022 -0.00000000000000022 -1.00000000000000000 1.00000000000000000 -0.00000000000000022 0.00000000000000022 
1 895.39571410648227356 317.59999999999985221 65.50000000000017053 -0.00000000000000022 -1.00000000000000000 0.00000000000000022 0.00000000000000022 -0.00000000000000022 -1.00000000000000000 1.00000000000000000 -0.00000000000000022 0.00000000000000022 
1 895.39571410648227356 317.59999999999985221 65.50000000000017053 -0.00000000000000022 -1.00000000000000000 0.00000000000000022 0.00000000000000022 -0.00000000000000022 -1.00000000000000000 1.00000000000000000 -0.00000000000000022 0.00000000000000022 
1 895.39571410648227356 317.59999999999985221 65.50000000000017053 -0.00000000000000022 -1.00000000000000000 0.00000000000000022 0.00000000000000022 -0.00000000000000022 -1.00000000000000000 1.00000000000000000 -0.00000000000000022 0.00000000000000022 
1 895.39571410648227356 317.59999999999985221 65.50000000000017053 -0.00000000000000022 -1.00000000000000000 0.00000000000000022 0.00000000000000022 -0.00000000000000022 -1.00000000000000000 1.00000000000000000 -0.00000000000000022 0.00000000000000022 
1 895.39571410648250094 317.59999999999985221 65.50000000000017053 -0.00000000000000022 -1.00000000000000000 0.00000000000000022 0.00000000000000022 -0.00000000000000022 -1.00000000000000000 1.00000000000000000 -0.00000000000000022 0.00000000000000022 
1 0.00000000000006499 333.74510408941029027 41.05489591058958609 1.00000000000000000 -0.00000000000000022 0.00000000000000022 -0.00000000000000022 0.00000000000000000 1.00000000000000000 -0.00000000000000022 -1.00000000000000000 -0.00000000000000000 
Triangulations 0

TShapes 19
Ve
0.000000100000000
317.600000000000023 0.400000000000006 0.000000000000000
0 0

0101101
*
Ed
 0.000000100000000 1 1 0
1  1 0 0.000000000000000 1790.791428212965002
2  1 1 0 0.000000000000000 1790.791428212965002
2  2 2 0 0.000000000000000 1790.791428212965002
0

0101000
+19 5 -19 7 *
Ve
0.000000100000000
366.100000000000023 65.500000000000000 0.000000000000000
0 0

0101101
*
Ed
 0.000000100000000 1 1 0
1  2 0 0.000000000000000 1790.791428212965002
2  3 1 0 0.000000000000000 1790.791428212965002
0

0101000
+17 5 -17 7 *
Ed
 0.000000100000000 1 1 0
1  3 0 0.000000000000000 81.180416357641320
2  4 3 12 0.000000000000000 81.180416357641320
2  5 3 14 0.000000000000000 81.180416357641320
2  6 4 19 0.000000000000000 81.180416357641320
2  7 4 21 0.000000000000000 81.180416357641320
2  8 5 26 0.000000000000000 81.180416357641320
2  9 5 28 0.000000000000000 81.180416357641320
2  10 6 33 0.000000000000000 81.180416357641320
2  11 6 35 0.000000000000000 81.180416357641320
2  12 7 40 0.000000000000000 81.180416357641320
2  13 7 42 0.000000000000000 81.180416357641320
2  14 8 47 0.000000000000000 81.180416357641320
2  15 8 49 0.000000000000000 81.180416357641320
2  16 9 54 0.000000000000000 81.180416357641320
2  17 9 56 0.000000000000000 81.180416357641320
2  18 10 61 0.000000000000000 81.180416357641320
2  19 10 63 0.000000000000000 81.180416357641320
2  20 11 68 0.000000000000000 81.180416357641320
2  21 11 70 0.000000000000000 81.180416357641320
2  22 12 75 0.000000000000000 81.180416357641320
2  23 12 77 0.000000000000000 81.180416357641320
2  24 13 82 0.000000000000000 81.180416357641320
2  25 13 84 0.000000000000000 81.180416357641320
2  26 14 89 0.000000000000000 81.180416357641320
2  27 14 91 0.000000000000000 81.180416357641320
2  28 15 96 0.000000000000000 81.180416357641320
2  29 15 98 0.000000000000000 81.180416357641320
2  30 16 103 0.000000000000000 81.180416357641320
2  31 16 105 0.000000000000000 81.180416357641320
2  32 17 110 0.000000000000000 81.180416357641320
2  33 17 112 0.000000000000000 81.180416357641320
2  34 18 117 0.000000000000000 81.180416357641320
2  35 18 119 0.000000000000000 81.180416357641320
2  36 19 124 0.000000000000000 81.180416357641320
2  37 19 126 0.000000000000000 81.180416357641320
2  38 20 131 0.000000000000000 81.180416357641320
2  39 20 133 0.000000000000000 81.180416357641320
2  40 21 138 0.000000000000000 81.180416357641320
2  41 21 140 0.000000000000000 81.180416357641320
2  42 22 145 0.000000000000000 81.180416357641320
2  43 22 147 0.000000000000000 81.180416357641320
2  44 23 152 0.000000000000000 81.180416357641320
2  45 23 154 0.000000000000000 81.180416357641320
2  46 24 159 0.000000000000000 81.180416357641320
2  47 24 161 0.000000000000000 81.180416357641320
2  48 1 162 0.000000000000000 81.180416357641320
2  49 1 163 0.000000000000000 81.180416357641320
0

0101000
+19 0 -17 0 *
Wi

0101100
+18 0 -16 0 -15 5 +15 7 *
Fa
0  0.000000100000000 1 0

0111000
+14 0 *
Ve
0.000000100000000
317.600000000000023 65.500000000000000 0.000000000000000
0 0

0101101
*
Ed
 0.000000100000000 1 1 0
1  4 0 0.000000000000000 1790.791428212965002
2  50 2 0 0.000000000000000 1790.791428212965002
0

0101000
+12 5 -12 7 *
Ed
 0.000000100000000 1 1 0
1  5 0 0.000000000000000 48.500000000000000
2  51 26 12 0.000000000000000 48.500000000000000
2  52 26 14 0.000000000000000 48.500000000000000
2  53 27 19 0.000000000000000 48.500000000000000
2  54 27 21 0.000000000000000 48.500000000000000
2  55 28 26 0.000000000000000 48.500000000000000
2  56 28 28 0.000000000000000 48.500000000000000
2  57 29 33 0.000000000000000 48.500000000000000
2  58 29 35 0.000000000000000 48.500000000000000
2  59 30 40 0.000000000000000 48.500000000000000
2  60 30 42 0.000000000000000 48.500000000000000
0

0101000
+17 0 -12 0 *
Wi

0101100
+16 0 -11 0 -10 5 +10 7 *
Fa
0  0.000000100000000 25 0

0111000
+9 0 *
Ed
 0.000000100000000 1 1 0
1  6 0 0.000000000000000 65.099999999999994
2  61 31 12 0.000000000000000 65.099999999999994
2  62 31 14 0.000000000000000 65.099999999999994
2  63 32 19 0.000000000000000 65.099999999999994
2  64 32 21 0.000000000000000 65.099999999999994
2  65 33 26 0.000000000000000 65.099999999999994
2  66 33 28 0.000000000000000 65.099999999999994
2  67 34 33 0.000000000000000 65.099999999999994
2  68 34 35 0.000000000000000 65.099999999999994
2  69 35 40 0.000000000000000 65.099999999999994
2  70 35 42 0.000000000000000 65.099999999999994
2  71 36 47 0.000000000000000 65.099999999999994
2  72 36 49 0.000000000000000 65.099999999999994
2  73 37 54 0.000000000000000 65.099999999999994
2  74 37 56 0.000000000000000 65.099999999999994
2  75 38 61 0.000000000000000 65.099999999999994
2  76 38 63 0.000000000000000 65.099999999999994
2  77 39 68 0.000000000000000 65.099999999999994
2  78 39 70 0.000000000000000 65.099999999999994
2  79 40 75 0.000000000000000 65.099999999999994
2  80 40 77 0.000000000000000 65.099999999999994
2  81 41 82 0.000000000000000 65.099999999999994
2  82 41 84 0.000000000000000 65.099999999999994
2  83 42 89 0.000000000000000 65.099999999999994
2  84 42 91 0.000000000000000 65.099999999999994
2  85 43 96 0.000000000000000 65.099999999999994
2  86 43 98 0.000000000000000 65.099999999999994
2  87 44 103 0.000000000000000 65.099999999999994
2  88 44 105 0.000000000000000 65.099999999999994
2  89 45 110 0.000000000000000 65.099999999999994
2  90 45 112 0.000000000000000 65.099999999999994
2  91 46 117 0.000000000000000 65.099999999999994
2  92 46 119 0.000000000000000 65.099999999999994
2  93 47 124 0.000000000000000 65.099999999999994
2  94 47 126 0.000000000000000 65.099999999999994
2  95 48 131 0.000000000000000 65.099999999999994
2  96 48 133 0.000000000000000 65.099999999999994
2  97 49 138 0.000000000000000 65.099999999999994
2  98 49 140 0.000000000000000 65.099999999999994
2  99 50 145 0.000000000000000 65.099999999999994
2  100 50 147 0.000000000000000 65.099999999999994
2  101 51 152 0.000000000000000 65.099999999999994
2  102 51 154 0.000000000000000 65.099999999999994
2  103 52 159 0.000000000000000 65.099999999999994
2  104 52 161 0.000000000000000 65.099999999999994
2  105 2 162 0.000000000000000 65.099999999999994
2  106 2 163 0.000000000000000 65.099999999999994
0

0101000
+12 0 -19 0 *
Wi

0101100
+11 0 -18 0 -7 5 +7 7 *
Fa
0  0.000000100000000 2 0

0111000
+6 0 *
Wi

0101100
+15 0 +10 0 +7 0 *
Fa
0  0.000000100000000 53 0

0111000
+4 165 *
Sh

0101100
+13 0 +8 0 +5 0 +3 164 -3 166 *
So

0100000
+2 0 *

+1 0 