
CASCADE Topology V1, (c) Matra-Datavision
Locations 21
1
1.000000000000000 0.000000000000000 0.000000000000000 0.000000000000000 
0.000000000000000 1.000000000000000 0.000000000000000 0.000000000000000 
0.000000000000000 0.000000000000000 1.000000000000000 0.000000000000000 
1
0.866025403784439 -0.000000000000000 -0.500000000000001 0.000000000000000 
-0.500000000000001 -0.000000000000000 -0.866025403784439 181.371578903315026 
-0.000000000000000 1.000000000000000 -0.000000000000000 0.000000000000040 
1
1.000000000000000 0.000000000000000 0.000000000000000 0.000000000000000 
0.000000000000000 1.000000000000000 0.000000000000000 0.000000000000000 
0.000000000000000 0.000000000000000 1.000000000000000 0.000000000000000 
2  1 1 2 1 3 -1 0
1
1.000000000000000 0.000000000000000 0.000000000000000 -2.500000000000003 
0.000000000000000 1.000000000000000 0.000000000000000 -4.330127018922192 
0.000000000000000 0.000000000000000 1.000000000000000 -0.000000000000001 
2  1 1 2 1 3 -1 5 1 0
2  3 1 2 -1 1 -1 0
2  5 -1 3 1 2 -1 1 -1 0
2  2 -1 1 -1 0
1
1.000000000000000 0.000000000000000 0.000000000000000 0.000000000000000 
0.000000000000000 1.000000000000000 0.000000000000000 0.000000000000000 
0.000000000000000 0.000000000000000 1.000000000000000 0.000000000000000 
1
1.000000000000000 0.000000000000000 0.000000000000000 0.000000000000000 
0.000000000000000 1.000000000000000 0.000000000000000 0.000000000000000 
0.000000000000000 0.000000000000000 1.000000000000000 0.000000000000000 
1
1.000000000000000 0.000000000000000 0.000000000000000 0.000000000000000 
0.000000000000000 1.000000000000000 0.000000000000000 0.000000000000000 
0.000000000000000 0.000000000000000 1.000000000000000 0.000000000000000 
1
1.000000000000000 0.000000000000000 0.000000000000000 0.000000000000000 
0.000000000000000 1.000000000000000 0.000000000000000 0.000000000000000 
0.000000000000000 0.000000000000000 1.000000000000000 0.000000000000000 
1
1.000000000000000 0.000000000000000 0.000000000000000 0.000000000000000 
0.000000000000000 1.000000000000000 0.000000000000000 0.000000000000000 
0.000000000000000 0.000000000000000 1.000000000000000 0.000000000000000 
1
1.000000000000000 0.000000000000000 0.000000000000000 0.000000000000000 
0.000000000000000 1.000000000000000 0.000000000000000 0.000000000000000 
0.000000000000000 0.000000000000000 1.000000000000000 0.000000000000000 
1
1.000000000000000 0.000000000000000 0.000000000000000 0.000000000000000 
0.000000000000000 1.000000000000000 0.000000000000000 0.000000000000000 
0.000000000000000 0.000000000000000 1.000000000000000 0.000000000000000 
1
1.000000000000000 0.000000000000000 0.000000000000000 0.000000000000000 
0.000000000000000 1.000000000000000 0.000000000000000 0.000000000000000 
0.000000000000000 0.000000000000000 1.000000000000000 0.000000000000000 
2  10 1 11 1 12 -1 13 1 14 -1 15 1 16 -1 17 1 2 -1 1 -1 0
2  3 -1 0
2  1 1 2 1 0
2  3 -1 5 1 0
Curve2ds 41
1 3.14159265358979312 0.00000000000000000 0.00000000000000000 -1.00000000000000000 
1 0.00000000000000000 0.00000000000000000 0.00000000000000028 -1.00000000000000000 
1 5.49778714378213884 0.00000000000000000 0.00000000000000000 -1.00000000000000000 
1 0.73725830020304794 0.00000000000000028 0.00000000000000028 -1.00000000000000000 
1 0.00000000000000000 0.00000000000000000 1.00000000000000000 0.00000000000000000 
1 0.00000000000000148 -4.99999999999999201 1.00000000000000000 0.00000000000000000 
1 9.45010581966310781 0.44940198462185998 0.00000000000000006 -1.00000000000000000 
1 18.47520861410403725 -63.00000000000004263 0.00000000000000006 -1.00000000000000000 
1 8.63937979737193196 0.00000000000000000 0.00000000000000000 -1.00000000000000000 
1 9.13622734492497202 0.00000000000000266 0.00000000000000000 -1.00000000000000000 
1 0.00000000000000000 0.00000000000000000 1.00000000000000000 0.00000000000000000 
1 0.00000000000000000 -5.00000000000000000 1.00000000000000000 0.00000000000000000 
2 8.31873496976462867 -1.41922716547966310 1.00000000000000000 0.00000000000000006 0.00000000000000006 -1.00000000000000000 1.60000000000000830
2 17.34383776420555989 -64.86862915010156883 1.00000000000000000 0.00000000000000006 0.00000000000000006 -1.00000000000000000 1.60000000000000830
1 4.71238898038468967 0.00000000000000000 0.00000000000000000 -1.00000000000000000 
1 0.00000000000000000 0.00000000000000000 0.00000000000000000 -1.00000000000000000 
1 0.00000000000000000 0.00000000000000000 1.00000000000000000 -0.00000000000000000 
1 -0.00000000000000400 -4.99999999999999289 1.00000000000000000 -0.00000000000000000 
1 -1.94886322505881493 -2.55059801537813868 1.00000000000000000 0.00000000000000006 
1 7.07623956938210963 -66.00000000000004263 1.00000000000000000 0.00000000000000006 
1 3.14159265358979312 0.00000000000000000 0.00000000000000000 -1.00000000000000000 
1 5.23094010775808016 -0.00000000000000888 0.00000000000000000 -1.00000000000000000 
1 0.00000000000000000 0.00000000000000000 1.00000000000000000 0.00000000000000000 
1 0.00000000000000000 -5.00000000000000000 1.00000000000000000 0.00000000000000000 
2 -1.94886322505881582 -5.55059801537814224 1.00000000000000000 0.00000000000000006 0.00000000000000006 -1.00000000000000000 2.99999999999999867
2 7.07623956938210963 -69.00000000000004263 1.00000000000000000 0.00000000000000006 0.00000000000000006 -1.00000000000000000 3.00000000000000000
1 0.00000000000000000 0.00000000000000000 0.00000000000000000 -1.00000000000000000 
1 0.00000000000000000 0.00000000000000000 1.00000000000000000 -0.00000000000000000 
1 -0.00000000000000400 -4.99999999999999289 1.00000000000000000 -0.00000000000000000 
1 -10.17980333281689909 -5.55059801537814224 1.00000000000000000 0.00000000000000006 
1 22.62990915248000334 0.00000000000000000 -0.00000000000000000 -1.00000000000000000 
1 -10.17980333281689553 3.44940198462185998 0.00000000000000006 -1.00000000000000000 
1 4.71238898038468967 0.00000000000000000 0.00000000000000000 -1.00000000000000000 
1 0.00000000000000000 0.00000000000000000 -0.00000000000000000 -1.00000000000000000 
1 0.00000000000000000 0.00000000000000000 1.00000000000000000 0.00000000000000000 
1 0.00000000000000488 -4.99999999999999378 1.00000000000000000 0.00000000000000000 
1 12.45010581966310426 3.44940198462186132 -1.00000000000000000 -0.00000000000000006 
1 0.00000000000000000 0.00000000000000000 1.00000000000000000 0.00000000000000000 
1 0.00000000000000000 -5.00000000000000000 1.00000000000000000 0.00000000000000000 
2 12.45010581966310426 0.44940198462186087 1.00000000000000000 0.00000000000000006 0.00000000000000006 -1.00000000000000000 2.99999999999999689
2 21.47520861410403725 -63.00000000000004263 1.00000000000000000 0.00000000000000006 0.00000000000000006 -1.00000000000000000 3.00000000000000000
Curves 16
1 17.00000000002833644 171.55662432707501353 3.00000000000004041 -0.50000000000000056 -0.86602540378443837 -0.00000000000000010 
1 17.00000000002833644 171.55662432707501353 3.73725830020308836 -0.50000000000000056 -0.86602540378443837 -0.00000000000000010 
1 19.62990915247999624 3.00000000000000044 0.00000000000000000 0.00000000000000000 1.00000000000000000 0.00000000000000000 
1 15.04040820580179094 172.68799517697348733 6.00000000000003908 -0.50000000000000056 -0.86602540378443837 -0.00000000000000010 
2 18.49853830258151888 4.86862915010152353 0.00000000000000000 0.00000000000000000 0.00000000000000000 1.00000000000000000 1.00000000000000000 0.00000000000000000 0.00000000000000000 0.00000000000000000 1.00000000000000000 0.00000000000000000 1.60000000000000009
1 7.12820323034671510 177.25610884943597512 6.00000000000003997 -0.50000000000000056 -0.86602540378443837 -0.00000000000000010 
1 8.23094010775807305 5.99999999999999911 0.00000000000000000 1.00000000000000000 0.00000000000000000 0.00000000000000000 
1 4.53012701899339909 178.75610884943597512 9.00000000000004263 -0.50000000000000056 -0.86602540378443837 -0.00000000000000010 
2 8.23094010775807305 9.00000000000000000 0.00000000000000000 0.00000000000000000 0.00000000000000000 1.00000000000000000 1.00000000000000000 0.00000000000000000 0.00000000000000000 0.00000000000000000 1.00000000000000000 0.00000000000000000 3.00000000000000000
1 -0.00000000000000130 181.37157890331502585 9.00000000000004263 -0.50000000000000056 -0.86602540378443837 -0.00000000000000010 
1 0.00000000000000000 9.00000000000000000 0.00000000000000000 1.00000000000000000 0.00000000000000000 0.00000000000000000 
1 0.00000000000000000 181.37157890331502585 0.00000000000004027 -0.50000000000000056 -0.86602540378443837 -0.00000000000000010 
1 0.00000000000000000 0.00000000000000000 0.00000000000000000 0.00000000000000000 1.00000000000000000 0.00000000000000000 
1 19.59807621138164890 170.05662432707501353 0.00000000000003902 -0.50000000000000056 -0.86602540378443837 -0.00000000000000010 
1 22.62990915247999624 0.00000000000000000 0.00000000000000000 -1.00000000000000000 0.00000000000000000 0.00000000000000000 
2 22.62990915247999624 3.00000000000000000 0.00000000000000000 0.00000000000000000 0.00000000000000000 1.00000000000000000 1.00000000000000000 0.00000000000000000 0.00000000000000000 0.00000000000000000 1.00000000000000000 0.00000000000000000 3.00000000000000000
Polygon3D 0
PolygonOnTriangulations 0
Surfaces 10
1 17.00000000002833644 171.55662432707501353 3.00000000000004041 -0.86602540378443837 0.50000000000000056 0.00000000000000006 -0.00000000000000014 -0.00000000000000036 1.00000000000000000 0.50000000000000056 0.86602540378443837 0.00000000000000038 
2 19.59807621138164890 170.05662432707501353 3.00000000000003952 0.50000000000000056 0.86602540378443837 0.00000000000000038 0.86602540378443837 -0.50000000000000056 -0.00000000000000006 -0.00000000000000014 -0.00000000000000036 1.00000000000000000 3.00000000000000089
2 16.02020410291506280 172.12230975202425043 4.86862915010156350 0.50000000000000056 0.86602540378443837 0.00000000000000038 0.86602540378443837 -0.50000000000000056 -0.00000000000000006 -0.00000000000000014 -0.00000000000000036 1.00000000000000000 1.60000000000000053
1 8.81596829174891106 176.28167723690654611 3.44940198462190040 0.50000000000000078 0.86602540378443826 0.00000000000000084 0.86602540378443826 -0.50000000000000078 0.00000000000000000 0.00000000000000042 0.00000000000000072 -1.00000000000000000 
1 1.00000000000000000 180.79422863413196865 -60.00000000000000000 0.49999999999999956 0.86602540378443893 -0.00000000000000000 0.86602540378443893 -0.49999999999999956 0.00000000000000000 0.00000000000000000 -0.00000000000000000 -1.00000000000000000 
1 7.12820323034671510 177.25610884943597512 6.00000000000003908 -0.00000000000000000 -0.00000000000000012 1.00000000000000000 0.86602540378443837 -0.50000000000000056 -0.00000000000000006 0.50000000000000056 0.86602540378443837 0.00000000000000010 
2 7.12820323034671510 177.25610884943597512 9.00000000000004263 0.50000000000000056 0.86602540378443837 0.00000000000000038 0.86602540378443837 -0.50000000000000056 -0.00000000000000006 -0.00000000000000014 -0.00000000000000036 1.00000000000000000 3.00000000000000089
1 -0.00000000000000130 181.37157890331502585 9.00000000000004263 -0.00000000000000000 -0.00000000000000012 1.00000000000000000 0.86602540378443837 -0.50000000000000056 -0.00000000000000006 0.50000000000000056 0.86602540378443837 0.00000000000000010 
1 0.00000000000000000 181.37157890331502585 0.00000000000004027 -0.86602540378443837 0.50000000000000056 0.00000000000000006 -0.00000000000000014 -0.00000000000000036 1.00000000000000000 0.50000000000000056 0.86602540378443837 0.00000000000000038 
1 19.59807621138164890 170.05662432707501353 0.00000000000003902 0.00000000000000000 0.00000000000000012 -1.00000000000000000 -0.86602540378443837 0.50000000000000056 0.00000000000000006 0.50000000000000056 0.86602540378443837 0.00000000000000010 
Triangulations 0

TShapes 44
Ve
0.001000000005713
19.629909152479996 3.000000000000000 0.000000000000000
0 0

0101101
*
Ed
 0.000000100000000 1 1 0
1  1 0 0.000000000000000 5.000000000000000
2  1 2 0 0.000000000000000 5.000000000000000
4 G1 1 0 2 0
2  2 1 0 0.000000000000000 5.000000000000000
0

0101000
+44 4 -44 6 *
Ve
0.001000000005713
19.629909152479996 3.737258300203048 0.000000000000000
0 0

0101101
*
Ed
 0.000000100000000 1 1 0
1  2 0 0.000000000000000 5.000000000000000
2  3 3 0 0.000000000000000 5.000000000000000
2  4 1 0 0.000000000000000 5.000000000000000
0

0101000
+42 4 -42 6 *
Ed
 0.001000000005711 1 1 0
1  3 0 0.000000000000000 0.737258300203048
2  5 1 7 0.000000000000000 0.737258300203048
2  6 1 8 0.000000000000000 0.737258300203048
2  7 4 9 0.000000000000000 0.737258300203048
2  8 5 18 0.000000000000000 0.737258300203048
0

0101000
+44 0 -42 0 *
Wi

0101100
+43 0 -41 0 -40 4 +40 6 *
Fa
0  0.000000100000000 1 0

0101000
+39 0 *
Ve
0.001000000005714
17.367167452683042 5.999999999999999 0.000000000000000
0 0

0101101
*
Ed
 0.000000100000000 1 1 0
1  4 0 0.000000000000000 5.000000000000000
2  9 3 0 0.000000000000000 5.000000000000000
2  10 6 0 0.000000000000000 5.000000000000000
0

0101000
+37 4 -37 6 *
Ed
 0.001000000005713 1 1 0
1  5 0 5.497787143782139 8.639379797371932
2  11 3 7 5.497787143782139 8.639379797371932
2  12 3 8 5.497787143782139 8.639379797371932
2  13 4 9 5.497787143782139 8.639379797371932
2  14 5 18 5.497787143782139 8.639379797371932
0

0101000
+42 0 -37 0 *
Wi

0101100
+41 0 -36 0 -35 4 +35 6 *
Fa
0  0.000000100000000 3 0

0101000
+34 0 *
Ve
0.001000000005714
8.230940107758073 6.000000000000000 0.000000000000000
0 0

0101101
*
Ed
 0.000000100000000 1 1 0
1  6 0 0.000000000000000 5.000000000000000
2  15 7 0 0.000000000000000 5.000000000000000
4 G1 6 0 7 0
2  16 6 0 0.000000000000000 5.000000000000000
0

0101000
+32 4 -32 6 *
Ed
 0.001000000005714 1 1 0
1  7 0 0.000000000000000 9.136227344924968
2  17 6 7 0.000000000000000 9.136227344924968
2  18 6 8 0.000000000000000 9.136227344924968
2  19 4 9 0.000000000000000 9.136227344924968
2  20 5 18 0.000000000000000 9.136227344924968
0

0101000
+32 0 -37 0 *
Wi

0101100
+31 0 -36 0 -30 4 +30 6 *
Fa
0  0.000000100000000 6 0

0101000
+29 0 *
Ve
0.001000000012594
5.230940107758073 9.000000000000000 0.000000000000000
0 0

0101101
*
Ed
 0.000000100000000 1 1 0
1  8 0 0.000000000000000 5.000000000000000
2  21 7 0 0.000000000000000 5.000000000000000
2  22 8 0 0.000000000000000 5.000000000000000
0

0101000
+27 4 -27 6 *
Ed
 0.001000000005710 1 1 0
1  9 0 3.141592653589793 4.712388980384690
2  23 7 7 3.141592653589793 4.712388980384690
2  24 7 8 3.141592653589793 4.712388980384690
2  25 4 9 3.141592653589793 4.712388980384690
2  26 5 18 3.141592653589793 4.712388980384690
0

0101000
+27 0 -32 0 *
Wi

0101100
+26 0 -31 0 -25 4 +25 6 *
Fa
0  0.000000100000000 7 0

0101000
+24 0 *
Ve
0.000000100000000
0.000000000000000 9.000000000000000 0.000000000000000
0 0

0101101
*
Ed
 0.000000100000000 1 1 0
1  10 0 0.000000000000000 5.000000000000000
2  27 8 0 0.000000000000000 5.000000000000000
0

0101000
+22 4 -22 6 *
Ed
 0.000000100000000 1 1 0
1  11 0 0.000000000000000 5.230940107758073
2  28 8 7 0.000000000000000 5.230940107758073
2  29 8 8 0.000000000000000 5.230940107758073
2  30 4 9 0.000000000000000 5.230940107758073
0

0101000
+22 0 -27 0 *
Wi

0101100
+21 0 -26 0 -20 4 +20 6 *
Fa
0  0.000000100000000 8 0

0101000
+19 0 *
Ve
0.000000100000000
0.000000000000000 0.000000000000000 0.000000000000000
0 0

0101101
*
Ed
 0.000000100000000 1 1 0
1  12 0 0.000000000000000 5.000000000000000
2  31 10 0 0.000000000000000 5.000000000000000
0

0101000
+17 4 -17 6 *
Ed
 0.000000100000000 1 1 0
1  13 0 0.000000000000000 9.000000000000000
2  32 4 9 0.000000000000000 9.000000000000000
0

0101000
+17 0 -22 0 *
Wi

0101100
+16 0 -21 0 -15 4 +15 6 *
Fa
0  0.000000100000000 9 0

0101000
+14 0 *
Ve
0.001000050152242
22.629909152479996 0.000000000000000 0.000000000000000
0 0

0101101
*
Ed
 0.000000100000000 1 1 0
1  14 0 0.000000000000000 5.000000000000000
2  33 2 0 0.000000000000000 5.000000000000000
2  34 10 0 0.000000000000000 5.000000000000000
0

0101000
+12 4 -12 6 *
Ed
 0.000000100000000 1 1 0
1  15 0 0.000000000000000 22.629909152479996
2  35 10 7 0.000000000000000 22.629909152479996
2  36 10 8 0.000000000000000 22.629909152479996
2  37 4 9 0.000000000000000 22.629909152479996
0

0101000
+12 0 -17 0 *
Wi

0101100
+11 0 -16 0 -10 4 +10 6 *
Fa
0  0.000000100000000 10 0

0101000
+9 0 *
Ed
 0.001000000005713 1 1 0
1  16 0 3.141592653589793 4.712388980384690
2  38 2 7 3.141592653589793 4.712388980384690
2  39 2 8 3.141592653589793 4.712388980384690
2  40 4 9 3.141592653589793 4.712388980384690
2  41 5 18 3.141592653589793 4.712388980384690
0

0101000
+44 0 -12 0 *
Wi

0101100
+43 0 -11 0 -7 4 +7 6 *
Fa
0  0.000000100000000 2 0

0101000
+6 0 *
Wi

0101100
+40 0 +35 0 -30 0 -25 0 -20 0 -15 0 -10 0 -7 0 *
Fa
0  0.000000100000000 4 0

0101000
-4 20 *
Sh

0101100
-38 0 -33 0 +28 0 +23 0 +18 0 +13 0 +8 0 +5 0 +3 19 -3 21 
*
So

1100000
+2 0 *

+1 0 