
CASCADE Topology V1, (c) Matra-Datavision
Locations 63
1
1.000000000000000 0.000000000000000 0.000000000000000 0.000000000000000 
0.000000000000000 1.000000000000000 0.000000000000000 0.000000000000000 
0.000000000000000 0.000000000000000 1.000000000000000 0.000000000000000 
1
1.000000000000000 0.000000000000000 0.000000000000000 0.000000000000000 
0.000000000000000 1.000000000000000 0.000000000000000 0.000000000000000 
0.000000000000000 0.000000000000000 1.000000000000000 0.000000000000000 
1
1.000000000000000 0.000000000000000 0.000000000000000 0.000000000000000 
0.000000000000000 1.000000000000000 0.000000000000000 0.000000000000000 
0.000000000000000 0.000000000000000 1.000000000000000 0.000000000000000 
2  1 1 2 1 3 -1 0
1
1.000000000000000 0.000000000000000 0.000000000000000 0.000000000000000 
0.000000000000000 1.000000000000000 0.000000000000000 0.000000000000000 
0.000000000000000 0.000000000000000 1.000000000000000 5.000000000000000 
2  1 1 2 1 3 -1 5 1 0
1
1.000000000000000 0.000000000000000 0.000000000000000 0.000000000000000 
0.000000000000000 1.000000000000000 0.000000000000000 0.000000000000000 
0.000000000000000 0.000000000000000 1.000000000000000 0.000000000000000 
1
1.000000000000000 0.000000000000000 0.000000000000000 0.000000000000000 
0.000000000000000 1.000000000000000 0.000000000000000 0.000000000000000 
0.000000000000000 0.000000000000000 1.000000000000000 0.000000000000000 
1
1.000000000000000 0.000000000000000 0.000000000000000 0.000000000000000 
0.000000000000000 1.000000000000000 0.000000000000000 0.000000000000000 
0.000000000000000 0.000000000000000 1.000000000000000 0.000000000000000 
2  7 1 8 -1 9 -1 0
1
1.000000000000000 0.000000000000000 0.000000000000000 0.000000000000000 
0.000000000000000 1.000000000000000 0.000000000000000 0.000000000000000 
0.000000000000000 0.000000000000000 1.000000000000000 5.000000000000000 
2  11 -1 7 1 8 -1 9 -1 0
2  8 -1 9 -1 0
1
1.000000000000000 0.000000000000000 0.000000000000000 0.000000000000000 
0.000000000000000 1.000000000000000 0.000000000000000 0.000000000000000 
0.000000000000000 0.000000000000000 1.000000000000000 0.000000000000000 
2  14 1 8 -1 9 -1 0
1
1.000000000000000 0.000000000000000 0.000000000000000 0.000000000000000 
0.000000000000000 1.000000000000000 0.000000000000000 0.000000000000000 
0.000000000000000 0.000000000000000 1.000000000000000 0.000000000000000 
1
1.000000000000000 0.000000000000000 0.000000000000000 0.000000000000000 
0.000000000000000 1.000000000000000 0.000000000000000 0.000000000000000 
0.000000000000000 0.000000000000000 1.000000000000000 0.000000000000000 
2  16 1 17 -1 1 -1 0
1
1.000000000000000 0.000000000000000 0.000000000000000 0.000000000000000 
0.000000000000000 1.000000000000000 0.000000000000000 0.000000000000000 
0.000000000000000 0.000000000000000 1.000000000000000 5.000000000000000 
2  19 -1 16 1 17 -1 1 -1 0
2  17 -1 1 -1 0
1
1.000000000000000 0.000000000000000 0.000000000000000 0.000000000000000 
0.000000000000000 1.000000000000000 0.000000000000000 0.000000000000000 
0.000000000000000 0.000000000000000 1.000000000000000 0.000000000000000 
2  22 1 17 -1 1 -1 0
1
1.000000000000000 0.000000000000000 0.000000000000000 0.000000000000000 
0.000000000000000 1.000000000000000 0.000000000000000 0.000000000000000 
0.000000000000000 0.000000000000000 1.000000000000000 0.000000000000000 
1
1.000000000000000 0.000000000000000 0.000000000000000 0.000000000000000 
0.000000000000000 1.000000000000000 0.000000000000000 0.000000000000000 
0.000000000000000 0.000000000000000 1.000000000000000 0.000000000000000 
2  24 1 25 -1 1 -1 0
1
1.000000000000000 0.000000000000000 0.000000000000000 0.000000000000000 
0.000000000000000 1.000000000000000 0.000000000000000 0.000000000000000 
0.000000000000000 0.000000000000000 1.000000000000000 5.000000000000000 
2  27 -1 24 1 25 -1 1 -1 0
2  25 -1 1 -1 0
1
1.000000000000000 0.000000000000000 0.000000000000000 0.000000000000000 
0.000000000000000 1.000000000000000 0.000000000000000 0.000000000000000 
0.000000000000000 0.000000000000000 1.000000000000000 0.000000000000000 
2  30 1 25 -1 1 -1 0
1
1.000000000000000 0.000000000000000 0.000000000000000 0.000000000000000 
0.000000000000000 1.000000000000000 0.000000000000000 0.000000000000000 
0.000000000000000 0.000000000000000 1.000000000000000 0.000000000000000 
1
1.000000000000000 0.000000000000000 0.000000000000000 0.000000000000000 
0.000000000000000 1.000000000000000 0.000000000000000 0.000000000000000 
0.000000000000000 0.000000000000000 1.000000000000000 0.000000000000000 
2  32 1 33 -1 1 -1 0
1
1.000000000000000 0.000000000000000 0.000000000000000 0.000000000000000 
0.000000000000000 1.000000000000000 0.000000000000000 0.000000000000000 
0.000000000000000 0.000000000000000 1.000000000000000 5.000000000000000 
2  35 -1 32 1 33 -1 1 -1 0
2  33 -1 1 -1 0
1
1.000000000000000 0.000000000000000 0.000000000000000 0.000000000000000 
0.000000000000000 1.000000000000000 0.000000000000000 0.000000000000000 
0.000000000000000 0.000000000000000 1.000000000000000 0.000000000000000 
2  38 1 33 -1 1 -1 0
1
1.000000000000000 0.000000000000000 0.000000000000000 0.000000000000000 
0.000000000000000 1.000000000000000 0.000000000000000 0.000000000000000 
0.000000000000000 0.000000000000000 1.000000000000000 0.000000000000000 
1
1.000000000000000 0.000000000000000 0.000000000000000 0.000000000000000 
0.000000000000000 1.000000000000000 0.000000000000000 0.000000000000000 
0.000000000000000 0.000000000000000 1.000000000000000 0.000000000000000 
2  40 1 41 -1 1 -1 0
1
1.000000000000000 0.000000000000000 0.000000000000000 0.000000000000000 
0.000000000000000 1.000000000000000 0.000000000000000 0.000000000000000 
0.000000000000000 0.000000000000000 1.000000000000000 5.000000000000000 
2  43 -1 40 1 41 -1 1 -1 0
2  41 -1 1 -1 0
1
1.000000000000000 0.000000000000000 0.000000000000000 0.000000000000000 
0.000000000000000 1.000000000000000 0.000000000000000 0.000000000000000 
0.000000000000000 0.000000000000000 1.000000000000000 0.000000000000000 
2  46 1 41 -1 1 -1 0
1
1.000000000000000 0.000000000000000 0.000000000000000 0.000000000000000 
0.000000000000000 1.000000000000000 0.000000000000000 0.000000000000000 
0.000000000000000 0.000000000000000 1.000000000000000 0.000000000000000 
1
1.000000000000000 0.000000000000000 0.000000000000000 0.000000000000000 
0.000000000000000 1.000000000000000 0.000000000000000 0.000000000000000 
0.000000000000000 0.000000000000000 1.000000000000000 0.000000000000000 
2  48 1 49 -1 1 -1 0
1
1.000000000000000 0.000000000000000 0.000000000000000 0.000000000000000 
0.000000000000000 1.000000000000000 0.000000000000000 0.000000000000000 
0.000000000000000 0.000000000000000 1.000000000000000 5.000000000000000 
2  51 -1 48 1 49 -1 1 -1 0
2  49 -1 1 -1 0
1
1.000000000000000 0.000000000000000 0.000000000000000 0.000000000000000 
0.000000000000000 1.000000000000000 0.000000000000000 0.000000000000000 
0.000000000000000 0.000000000000000 1.000000000000000 0.000000000000000 
2  54 1 49 -1 1 -1 0
2  3 1 2 -1 1 -1 0
2  5 -1 3 1 2 -1 1 -1 0
2  2 -1 1 -1 0
1
1.000000000000000 0.000000000000000 0.000000000000000 0.000000000000000 
0.000000000000000 1.000000000000000 0.000000000000000 0.000000000000000 
0.000000000000000 0.000000000000000 1.000000000000000 0.000000000000000 
2  59 1 2 -1 1 -1 0
2  3 -1 0
2  1 1 2 1 0
2  3 -1 5 1 0
Curve2ds 60
1 0.00000000000000000 0.00000000000000000 0.00000000000000000 -1.00000000000000000 
1 6.28318530717958623 0.00000000000000000 0.00000000000000000 -1.00000000000000000 
1 0.00000000000000000 0.00000000000000000 1.00000000000000000 0.00000000000000000 
1 0.00000000000000000 -5.00000000000000000 1.00000000000000000 0.00000000000000000 
2 -129.90381056584988073 -0.00000000692313051 1.00000000000000000 0.00000000000000000 -0.00000000000000000 1.00000000000000000 15.00000000000001421
2 129.90381056584979547 -75.00000001699174845 -1.00000000000000000 0.00000000000000000 0.00000000000000000 1.00000000000000000 15.00000000000001421
1 0.00000000000000000 0.00000000000000000 1.00000000000000000 0.00000000000000000 
1 0.00000000000000000 -5.00000000000000000 1.00000000000000000 0.00000000000000000 
2 -129.90381056584988073 -0.00000000692313051 1.00000000000000000 0.00000000000000000 -0.00000000000000000 1.00000000000000000 15.00000000000001421
2 129.90381056584979547 -75.00000001699174845 -1.00000000000000000 0.00000000000000000 0.00000000000000000 1.00000000000000000 15.00000000000001421
1 0.00000000000000000 0.00000000000000000 1.00000000000000000 0.00000000000000000 
1 0.00000000000000000 -5.00000000000000000 1.00000000000000000 0.00000000000000000 
2 -129.90381056584988073 -0.00000000692313051 1.00000000000000000 0.00000000000000000 -0.00000000000000000 1.00000000000000000 15.00000000000001421
2 129.90381056584979547 -75.00000001699174845 -1.00000000000000000 0.00000000000000000 0.00000000000000000 1.00000000000000000 15.00000000000001421
1 0.00000000000000000 0.00000000000000000 1.00000000000000000 0.00000000000000000 
1 0.00000000000000000 -5.00000000000000000 1.00000000000000000 0.00000000000000000 
2 -129.90381056584988073 -0.00000000692313051 1.00000000000000000 0.00000000000000000 -0.00000000000000000 1.00000000000000000 15.00000000000001421
2 129.90381056584979547 -75.00000001699174845 -1.00000000000000000 0.00000000000000000 0.00000000000000000 1.00000000000000000 15.00000000000001421
1 0.00000000000000000 0.00000000000000000 1.00000000000000000 0.00000000000000000 
1 0.00000000000000000 -5.00000000000000000 1.00000000000000000 0.00000000000000000 
2 -129.90381056584988073 -0.00000000692313051 1.00000000000000000 0.00000000000000000 -0.00000000000000000 1.00000000000000000 15.00000000000001421
2 129.90381056584979547 -75.00000001699174845 -1.00000000000000000 0.00000000000000000 0.00000000000000000 1.00000000000000000 15.00000000000001421
1 0.00000000000000000 0.00000000000000000 1.00000000000000000 0.00000000000000000 
1 0.00000000000000000 -5.00000000000000000 1.00000000000000000 0.00000000000000000 
2 -129.90381056584988073 -0.00000000692313051 1.00000000000000000 0.00000000000000000 -0.00000000000000000 1.00000000000000000 15.00000000000001421
2 129.90381056584979547 -75.00000001699174845 -1.00000000000000000 0.00000000000000000 0.00000000000000000 1.00000000000000000 15.00000000000001421
1 0.00000000000000000 0.00000000000000000 1.00000000000000000 0.00000000000000000 
1 0.00000000000000000 -5.00000000000000000 1.00000000000000000 0.00000000000000000 
2 -129.90381056584988073 -0.00000000692313051 1.00000000000000000 0.00000000000000000 -0.00000000000000000 1.00000000000000000 15.00000000000001421
2 129.90381056584979547 -75.00000001699174845 -1.00000000000000000 0.00000000000000000 0.00000000000000000 1.00000000000000000 15.00000000000001421
1 0.00000000000000000 0.00000000000000000 0.00000000000000000 -1.00000000000000000 
1 6.28318530717958623 0.00000000000000000 0.00000000000000000 -1.00000000000000000 
1 0.00000000000000000 0.00000000000000000 1.00000000000000000 0.00000000000000000 
1 0.00000000000000000 -5.00000000000000000 1.00000000000000000 0.00000000000000000 
2 129.90381056584985231 0.00000000692314472 1.00000000000000000 0.00000000000000000 -0.00000000000000000 1.00000000000000000 15.00000000000002842
2 -129.90381056584993757 -75.00000000314547322 -1.00000000000000000 0.00000000000000000 0.00000000000000000 1.00000000000000000 15.00000000000002842
1 0.00000000000000000 0.00000000000000000 1.00000000000000000 0.00000000000000000 
1 0.00000000000000000 -5.00000000000000000 1.00000000000000000 0.00000000000000000 
2 129.90381056584985231 0.00000000692314472 1.00000000000000000 0.00000000000000000 -0.00000000000000000 1.00000000000000000 15.00000000000002842
2 -129.90381056584993757 -75.00000000314547322 -1.00000000000000000 0.00000000000000000 0.00000000000000000 1.00000000000000000 15.00000000000002842
1 0.00000000000000000 0.00000000000000000 1.00000000000000000 0.00000000000000000 
1 0.00000000000000000 -5.00000000000000000 1.00000000000000000 0.00000000000000000 
2 129.90381056584985231 0.00000000692314472 1.00000000000000000 0.00000000000000000 -0.00000000000000000 1.00000000000000000 15.00000000000002842
2 -129.90381056584993757 -75.00000000314547322 -1.00000000000000000 0.00000000000000000 0.00000000000000000 1.00000000000000000 15.00000000000002842
1 0.00000000000000000 0.00000000000000000 1.00000000000000000 0.00000000000000000 
1 0.00000000000000000 -5.00000000000000000 1.00000000000000000 0.00000000000000000 
2 129.90381056584985231 0.00000000692314472 1.00000000000000000 0.00000000000000000 -0.00000000000000000 1.00000000000000000 15.00000000000002842
2 -129.90381056584993757 -75.00000000314547322 -1.00000000000000000 0.00000000000000000 0.00000000000000000 1.00000000000000000 15.00000000000002842
1 0.00000000000000000 0.00000000000000000 1.00000000000000000 0.00000000000000000 
1 0.00000000000000000 -5.00000000000000000 1.00000000000000000 0.00000000000000000 
2 129.90381056584985231 0.00000000692314472 1.00000000000000000 0.00000000000000000 -0.00000000000000000 1.00000000000000000 15.00000000000002842
2 -129.90381056584993757 -75.00000000314547322 -1.00000000000000000 0.00000000000000000 0.00000000000000000 1.00000000000000000 15.00000000000002842
1 0.00000000000000000 0.00000000000000000 1.00000000000000000 0.00000000000000000 
1 0.00000000000000000 -5.00000000000000000 1.00000000000000000 0.00000000000000000 
2 129.90381056584985231 0.00000000692314472 1.00000000000000000 0.00000000000000000 -0.00000000000000000 1.00000000000000000 15.00000000000002842
2 -129.90381056584993757 -75.00000000314547322 -1.00000000000000000 0.00000000000000000 0.00000000000000000 1.00000000000000000 15.00000000000002842
1 0.00000000000000000 0.00000000000000000 1.00000000000000000 0.00000000000000000 
1 0.00000000000000000 -5.00000000000000000 1.00000000000000000 0.00000000000000000 
2 129.90381056584985231 0.00000000692314472 1.00000000000000000 0.00000000000000000 -0.00000000000000000 1.00000000000000000 15.00000000000002842
2 -129.90381056584993757 -75.00000000314547322 -1.00000000000000000 0.00000000000000000 0.00000000000000000 1.00000000000000000 15.00000000000002842
Curves 4
1 -114.90381056584980968 -75.00000001699176266 0.00000000000000000 0.00000000000000000 0.00000000000000000 1.00000000000000000 
2 -129.90381056584982389 -75.00000001699176266 0.00000000000000000 0.00000000000000000 0.00000000000000000 1.00000000000000000 1.00000000000000000 0.00000000000000000 -0.00000000000000000 -0.00000000000000000 1.00000000000000000 0.00000000000000000 15.00000000000001954
1 144.90381056584993757 -75.00000000314548743 0.00000000000000000 0.00000000000000000 0.00000000000000000 1.00000000000000000 
2 129.90381056584990915 -75.00000000314548743 0.00000000000000000 0.00000000000000000 0.00000000000000000 1.00000000000000000 1.00000000000000000 0.00000000000000000 -0.00000000000000000 -0.00000000000000000 1.00000000000000000 0.00000000000000000 15.00000000000001954
Polygon3D 0
PolygonOnTriangulations 0
Surfaces 35
2 -129.90381056584982389 -75.00000001699176266 0.00000000000000000 -0.00000000000000000 -0.00000000000000000 -1.00000000000000000 1.00000000000000000 0.00000000000000000 0.00000000000000000 -0.00000000000000000 1.00000000000000000 -0.00000000000000000 15.00000000000001954
2 -129.90381056584982389 -75.00000001699176266 0.00000000000000000 -0.00000000000000000 -0.00000000000000000 -1.00000000000000000 1.00000000000000000 0.00000000000000000 0.00000000000000000 -0.00000000000000000 1.00000000000000000 -0.00000000000000000 15.00000000000001954
1 0.00000000000005397 -75.00000001006863215 0.00000000000000000 0.00000000000000000 0.00000000000000000 1.00000000000000000 1.00000000000000000 0.00000000000000000 -0.00000000000000000 -0.00000000000000000 1.00000000000000000 0.00000000000000000 
1 -0.00000000000002366 -0.00000000000001431 0.00000000000000000 -0.00000000000000000 -0.00000000000000000 -1.00000000000000000 -1.00000000000000000 0.00000000000000000 0.00000000000000000 0.00000000000000000 1.00000000000000000 -0.00000000000000000 
2 -129.90381056584982389 -75.00000001699176266 0.00000000000000000 -0.00000000000000000 -0.00000000000000000 -1.00000000000000000 1.00000000000000000 0.00000000000000000 0.00000000000000000 -0.00000000000000000 1.00000000000000000 -0.00000000000000000 15.00000000000001954
1 0.00000000000005397 -75.00000001006863215 0.00000000000000000 0.00000000000000000 0.00000000000000000 1.00000000000000000 1.00000000000000000 0.00000000000000000 -0.00000000000000000 -0.00000000000000000 1.00000000000000000 0.00000000000000000 
1 -0.00000000000002366 -0.00000000000001431 0.00000000000000000 -0.00000000000000000 -0.00000000000000000 -1.00000000000000000 -1.00000000000000000 0.00000000000000000 0.00000000000000000 0.00000000000000000 1.00000000000000000 -0.00000000000000000 
2 -129.90381056584982389 -75.00000001699176266 0.00000000000000000 -0.00000000000000000 -0.00000000000000000 -1.00000000000000000 1.00000000000000000 0.00000000000000000 0.00000000000000000 -0.00000000000000000 1.00000000000000000 -0.00000000000000000 15.00000000000001954
1 0.00000000000005397 -75.00000001006863215 0.00000000000000000 0.00000000000000000 0.00000000000000000 1.00000000000000000 1.00000000000000000 0.00000000000000000 -0.00000000000000000 -0.00000000000000000 1.00000000000000000 0.00000000000000000 
1 -0.00000000000002366 -0.00000000000001431 0.00000000000000000 -0.00000000000000000 -0.00000000000000000 -1.00000000000000000 -1.00000000000000000 0.00000000000000000 0.00000000000000000 0.00000000000000000 1.00000000000000000 -0.00000000000000000 
2 -129.90381056584982389 -75.00000001699176266 0.00000000000000000 -0.00000000000000000 -0.00000000000000000 -1.00000000000000000 1.00000000000000000 0.00000000000000000 0.00000000000000000 -0.00000000000000000 1.00000000000000000 -0.00000000000000000 15.00000000000001954
1 0.00000000000005397 -75.00000001006863215 0.00000000000000000 0.00000000000000000 0.00000000000000000 1.00000000000000000 1.00000000000000000 0.00000000000000000 -0.00000000000000000 -0.00000000000000000 1.00000000000000000 0.00000000000000000 
1 -0.00000000000002366 -0.00000000000001431 0.00000000000000000 -0.00000000000000000 -0.00000000000000000 -1.00000000000000000 -1.00000000000000000 0.00000000000000000 0.00000000000000000 0.00000000000000000 1.00000000000000000 -0.00000000000000000 
2 -129.90381056584982389 -75.00000001699176266 0.00000000000000000 -0.00000000000000000 -0.00000000000000000 -1.00000000000000000 1.00000000000000000 0.00000000000000000 0.00000000000000000 -0.00000000000000000 1.00000000000000000 -0.00000000000000000 15.00000000000001954
1 0.00000000000005397 -75.00000001006863215 0.00000000000000000 0.00000000000000000 0.00000000000000000 1.00000000000000000 1.00000000000000000 0.00000000000000000 -0.00000000000000000 -0.00000000000000000 1.00000000000000000 0.00000000000000000 
1 -0.00000000000002366 -0.00000000000001431 0.00000000000000000 -0.00000000000000000 -0.00000000000000000 -1.00000000000000000 -1.00000000000000000 0.00000000000000000 0.00000000000000000 0.00000000000000000 1.00000000000000000 -0.00000000000000000 
2 -129.90381056584982389 -75.00000001699176266 0.00000000000000000 -0.00000000000000000 -0.00000000000000000 -1.00000000000000000 1.00000000000000000 0.00000000000000000 0.00000000000000000 -0.00000000000000000 1.00000000000000000 -0.00000000000000000 15.00000000000001954
1 0.00000000000005397 -75.00000001006863215 0.00000000000000000 0.00000000000000000 0.00000000000000000 1.00000000000000000 1.00000000000000000 0.00000000000000000 -0.00000000000000000 -0.00000000000000000 1.00000000000000000 0.00000000000000000 
1 -0.00000000000002366 -0.00000000000001431 0.00000000000000000 -0.00000000000000000 -0.00000000000000000 -1.00000000000000000 -1.00000000000000000 0.00000000000000000 0.00000000000000000 0.00000000000000000 1.00000000000000000 -0.00000000000000000 
1 0.00000000000005397 -75.00000001006863215 0.00000000000000000 0.00000000000000000 0.00000000000000000 1.00000000000000000 1.00000000000000000 0.00000000000000000 -0.00000000000000000 -0.00000000000000000 1.00000000000000000 0.00000000000000000 
1 -0.00000000000002366 -0.00000000000001431 0.00000000000000000 -0.00000000000000000 -0.00000000000000000 -1.00000000000000000 -1.00000000000000000 0.00000000000000000 0.00000000000000000 0.00000000000000000 1.00000000000000000 -0.00000000000000000 
2 129.90381056584990915 -75.00000000314548743 0.00000000000000000 -0.00000000000000000 -0.00000000000000000 -1.00000000000000000 1.00000000000000000 0.00000000000000000 0.00000000000000000 -0.00000000000000000 1.00000000000000000 -0.00000000000000000 15.00000000000001954
2 129.90381056584990915 -75.00000000314548743 0.00000000000000000 -0.00000000000000000 -0.00000000000000000 -1.00000000000000000 1.00000000000000000 0.00000000000000000 0.00000000000000000 -0.00000000000000000 1.00000000000000000 -0.00000000000000000 15.00000000000001954
1 0.00000000000005397 -75.00000001006863215 0.00000000000000000 0.00000000000000000 0.00000000000000000 1.00000000000000000 1.00000000000000000 0.00000000000000000 -0.00000000000000000 -0.00000000000000000 1.00000000000000000 0.00000000000000000 
2 129.90381056584990915 -75.00000000314548743 0.00000000000000000 -0.00000000000000000 -0.00000000000000000 -1.00000000000000000 1.00000000000000000 0.00000000000000000 0.00000000000000000 -0.00000000000000000 1.00000000000000000 -0.00000000000000000 15.00000000000001954
1 0.00000000000005397 -75.00000001006863215 0.00000000000000000 0.00000000000000000 0.00000000000000000 1.00000000000000000 1.00000000000000000 0.00000000000000000 -0.00000000000000000 -0.00000000000000000 1.00000000000000000 0.00000000000000000 
2 129.90381056584990915 -75.00000000314548743 0.00000000000000000 -0.00000000000000000 -0.00000000000000000 -1.00000000000000000 1.00000000000000000 0.00000000000000000 0.00000000000000000 -0.00000000000000000 1.00000000000000000 -0.00000000000000000 15.00000000000001954
1 0.00000000000005397 -75.00000001006863215 0.00000000000000000 0.00000000000000000 0.00000000000000000 1.00000000000000000 1.00000000000000000 0.00000000000000000 -0.00000000000000000 -0.00000000000000000 1.00000000000000000 0.00000000000000000 
2 129.90381056584990915 -75.00000000314548743 0.00000000000000000 -0.00000000000000000 -0.00000000000000000 -1.00000000000000000 1.00000000000000000 0.00000000000000000 0.00000000000000000 -0.00000000000000000 1.00000000000000000 -0.00000000000000000 15.00000000000001954
1 0.00000000000005397 -75.00000001006863215 0.00000000000000000 0.00000000000000000 0.00000000000000000 1.00000000000000000 1.00000000000000000 0.00000000000000000 -0.00000000000000000 -0.00000000000000000 1.00000000000000000 0.00000000000000000 
2 129.90381056584990915 -75.00000000314548743 0.00000000000000000 -0.00000000000000000 -0.00000000000000000 -1.00000000000000000 1.00000000000000000 0.00000000000000000 0.00000000000000000 -0.00000000000000000 1.00000000000000000 -0.00000000000000000 15.00000000000001954
1 0.00000000000005397 -75.00000001006863215 0.00000000000000000 0.00000000000000000 0.00000000000000000 1.00000000000000000 1.00000000000000000 0.00000000000000000 -0.00000000000000000 -0.00000000000000000 1.00000000000000000 0.00000000000000000 
2 129.90381056584990915 -75.00000000314548743 0.00000000000000000 -0.00000000000000000 -0.00000000000000000 -1.00000000000000000 1.00000000000000000 0.00000000000000000 0.00000000000000000 -0.00000000000000000 1.00000000000000000 -0.00000000000000000 15.00000000000001954
1 0.00000000000005397 -75.00000001006863215 0.00000000000000000 0.00000000000000000 0.00000000000000000 1.00000000000000000 1.00000000000000000 0.00000000000000000 -0.00000000000000000 -0.00000000000000000 1.00000000000000000 0.00000000000000000 
1 0.00000000000005397 -75.00000001006863215 0.00000000000000000 0.00000000000000000 0.00000000000000000 1.00000000000000000 1.00000000000000000 0.00000000000000000 -0.00000000000000000 -0.00000000000000000 1.00000000000000000 0.00000000000000000 
Triangulations 0

TShapes 19
Ve
0.000000100000000
-114.903810565849810 -75.000000016991763 0.000000000000000
0 0

0101101
*
Ed
 0.000000100000000 1 1 0
1  1 0 0.000000000000000 5.000000000000000
3  1 2CN 1 0 0.000000000000000 5.000000000000000
0

0101000
+19 4 -19 6 *
Ed
 0.000000100000000 1 1 0
1  2 0 0.000000000000000 6.283185307179586
2  3 2 10 0.000000000000000 6.283185307179586
2  4 2 12 0.000000000000000 6.283185307179586
2  5 3 13 0.000000000000000 6.283185307179586
2  6 4 15 0.000000000000000 6.283185307179586
2  7 5 18 0.000000000000000 6.283185307179586
2  8 5 20 0.000000000000000 6.283185307179586
2  9 6 21 0.000000000000000 6.283185307179586
2  10 7 23 0.000000000000000 6.283185307179586
2  11 8 26 0.000000000000000 6.283185307179586
2  12 8 28 0.000000000000000 6.283185307179586
2  13 9 29 0.000000000000000 6.283185307179586
2  14 10 31 0.000000000000000 6.283185307179586
2  15 11 34 0.000000000000000 6.283185307179586
2  16 11 36 0.000000000000000 6.283185307179586
2  17 12 37 0.000000000000000 6.283185307179586
2  18 13 39 0.000000000000000 6.283185307179586
2  19 14 42 0.000000000000000 6.283185307179586
2  20 14 44 0.000000000000000 6.283185307179586
2  21 15 45 0.000000000000000 6.283185307179586
2  22 16 47 0.000000000000000 6.283185307179586
2  23 17 50 0.000000000000000 6.283185307179586
2  24 17 52 0.000000000000000 6.283185307179586
2  25 18 53 0.000000000000000 6.283185307179586
2  26 19 55 0.000000000000000 6.283185307179586
2  27 1 56 0.000000000000000 6.283185307179586
2  28 1 57 0.000000000000000 6.283185307179586
2  29 20 58 0.000000000000000 6.283185307179586
2  30 21 60 0.000000000000000 6.283185307179586
0

0101100
+19 0 -19 0 *
Wi

0101100
+18 0 -18 0 -17 4 +17 6 *
Fa
0  0.000000100000000 1 0

0111000
+16 0 *
Wi

0101100
+17 0 *
Fa
0  0.000000100000000 20 0

0111000
+14 62 *
Sh

0101100
+15 0 +13 61 -13 63 *
So

0100000
-12 0 *
Ve
0.000000100000000
144.903810565849938 -75.000000003145487 0.000000000000000
0 0

0101101
*
Ed
 0.000000100000000 1 1 0
1  3 0 0.000000000000000 5.000000000000000
3  31 32CN 22 0 0.000000000000000 5.000000000000000
0

0101000
+10 4 -10 6 *
Ed
 0.000000100000000 1 1 0
1  4 0 0.000000000000000 6.283185307179586
2  33 23 10 0.000000000000000 6.283185307179586
2  34 23 12 0.000000000000000 6.283185307179586
2  35 24 13 0.000000000000000 6.283185307179586
2  36 4 15 0.000000000000000 6.283185307179586
2  37 25 18 0.000000000000000 6.283185307179586
2  38 25 20 0.000000000000000 6.283185307179586
2  39 26 21 0.000000000000000 6.283185307179586
2  40 7 23 0.000000000000000 6.283185307179586
2  41 27 26 0.000000000000000 6.283185307179586
2  42 27 28 0.000000000000000 6.283185307179586
2  43 28 29 0.000000000000000 6.283185307179586
2  44 10 31 0.000000000000000 6.283185307179586
2  45 29 34 0.000000000000000 6.283185307179586
2  46 29 36 0.000000000000000 6.283185307179586
2  47 30 37 0.000000000000000 6.283185307179586
2  48 13 39 0.000000000000000 6.283185307179586
2  49 31 42 0.000000000000000 6.283185307179586
2  50 31 44 0.000000000000000 6.283185307179586
2  51 32 45 0.000000000000000 6.283185307179586
2  52 16 47 0.000000000000000 6.283185307179586
2  53 33 50 0.000000000000000 6.283185307179586
2  54 33 52 0.000000000000000 6.283185307179586
2  55 34 53 0.000000000000000 6.283185307179586
2  56 19 55 0.000000000000000 6.283185307179586
2  57 22 56 0.000000000000000 6.283185307179586
2  58 22 57 0.000000000000000 6.283185307179586
2  59 35 58 0.000000000000000 6.283185307179586
2  60 21 60 0.000000000000000 6.283185307179586
0

0101100
+10 0 -10 0 *
Wi

0101100
+9 0 -9 0 -8 4 +8 6 *
Fa
0  0.000000100000000 22 0

0111000
+7 0 *
Wi

0101100
+8 0 *
Fa
0  0.000000100000000 35 0

0111000
+5 62 *
Sh

0101100
+6 0 +4 61 -4 63 *
So

0100000
-3 0 *
Co

1100000
+11 0 +2 0 *

+1 0 