
CASCADE Topology V1, (c) Matra-Datavision
Locations 23
1
1.000000000000000 0.000000000000000 0.000000000000000 0.000000000000000 
0.000000000000000 1.000000000000000 0.000000000000000 0.000000000000000 
0.000000000000000 0.000000000000000 1.000000000000000 0.000000000000000 
1
1.000000000000000 0.000000000000000 0.000000000000000 0.000000000000000 
0.000000000000000 1.000000000000000 0.000000000000000 0.000000000000000 
0.000000000000000 0.000000000000000 1.000000000000000 0.000000000000000 
2  2 -1 0
1
1.000000000000000 0.000000000000000 0.000000000000000 0.000000000000000 
0.000000000000000 1.000000000000000 0.000000000000000 0.000000000000000 
0.000000000000000 0.000000000000000 1.000000000000000 0.000000000000000 
1
1.000000000000000 0.000000000000000 0.000000000000000 0.000000000000000 
0.000000000000000 1.000000000000000 0.000000000000000 0.000000000000000 
0.000000000000000 0.000000000000000 1.000000000000000 0.000000000000000 
1
1.000000000000000 0.000000000000000 0.000000000000000 0.000000000000000 
0.000000000000000 1.000000000000000 0.000000000000000 0.000000000000000 
0.000000000000000 0.000000000000000 1.000000000000000 0.000000000000000 
2  4 1 5 1 6 -1 0
2  6 1 5 -1 4 -1 0
2  5 -1 4 -1 0
2  2 -1 6 1 5 -1 4 -1 0
1
1.000000000000000 0.000000000000000 0.000000000000000 0.000000000000000 
0.000000000000000 1.000000000000000 0.000000000000000 0.000000000000000 
0.000000000000000 0.000000000000000 1.000000000000000 3.000000000000000 
2  4 1 5 1 6 -1 11 1 0
2  11 -1 6 1 5 -1 4 -1 0
2  2 -1 11 -1 6 1 5 -1 4 -1 0
1
1.000000000000000 0.000000000000000 0.000000000000000 0.000000000000000 
0.000000000000000 1.000000000000000 0.000000000000000 0.000000000000000 
0.000000000000000 0.000000000000000 1.000000000000000 0.000000000000000 
2  15 -1 0
2  15 -1 6 1 5 -1 4 -1 0
2  15 -1 11 -1 6 1 5 -1 4 -1 0
2  2 1 15 -1 0
2  4 1 5 1 6 -1 15 1 0
2  4 1 5 1 6 -1 11 1 15 1 0
2  4 1 5 1 6 -1 2 1 0
2  4 1 5 1 6 -1 11 1 2 1 0
Curve2ds 72
1 4.35337489126828370 0.00000000000000000 0.00000000000000000 -1.00000000000000000 
1 1.21178223767849280 0.00000000000000000 0.00000000000000000 -1.00000000000000000 
1 1.92981041591130054 0.00000000000000000 0.00000000000000000 -1.00000000000000000 
1 6.28318530717958801 0.00000000000000000 0.00000000000000000 -1.00000000000000000 
1 0.00000000000000000 0.00000000000000000 1.00000000000000000 0.00000000000000000 
2 94.55989084453675275 -38.38383389569847282 1.00000000000000000 0.00000000000000000 -0.00000000000000000 1.00000000000000000 5.00000000000000000
2 195.00000000000000000 -37.17478348783700426 1.00000000000000000 0.00000000000000000 -0.00000000000000000 1.00000000000000000 5.00000000000000000
1 0.00000000000000000 -3.00000000000000000 1.00000000000000000 0.00000000000000000 
2 94.55989084453675275 -38.38383389569847282 1.00000000000000000 0.00000000000000000 -0.00000000000000000 1.00000000000000000 5.00000000000000000
2 -37.17478348783700426 195.00000000000000000 0.00000000000000000 1.00000000000000000 1.00000000000000000 -0.00000000000000000 5.00000000000000000
1 0.00000000000000160 0.00000000000000000 0.00000000000000000 -1.00000000000000000 
1 99.55989084453675275 -38.38383389569847282 -0.00000000000000000 1.00000000000000000 
1 200.00000000000000000 -37.17478348783700426 0.00000000000000000 1.00000000000000000 
1 99.55989084453675275 -38.38383389569847282 -0.00000000000000000 1.00000000000000000 
1 -37.17478348783700426 200.00000000000000000 1.00000000000000000 0.00000000000000000 
1 1.22543119774445208 0.00000000000000000 0.00000000000000000 -1.00000000000000000 
1 1.22543119774483000 0.00000000000000000 0.00000000000000000 -1.00000000000000000 
1 0.00000000000000000 0.00000000000000000 1.00000000000000000 0.00000000000000000 
2 94.55989084453675275 -3.20299290019812588 1.00000000000000000 0.00000000000000000 -0.00000000000000000 1.00000000000000000 5.00000000000000000
2 195.00000000000000000 -1.99394249233665732 1.00000000000000000 0.00000000000000000 -0.00000000000000000 1.00000000000000000 5.00000000000000000
1 0.00000000000000000 -3.00000000000000000 1.00000000000000000 0.00000000000000000 
2 94.55989084453675275 -3.20299290019812588 1.00000000000000000 0.00000000000000000 -0.00000000000000000 1.00000000000000000 5.00000000000000000
2 -1.99394249233665732 195.00000000000000000 0.00000000000000000 1.00000000000000000 1.00000000000000000 -0.00000000000000000 5.00000000000000000
1 4.35337489126828370 0.00000000000000000 0.00000000000000000 -1.00000000000000000 
1 1.21178223767849280 0.00000000000000000 0.00000000000000000 -1.00000000000000000 
1 1.21178223767849280 0.00000000000000000 0.00000000000000000 -1.00000000000000000 
1 6.28318530717958801 0.00000000000000000 0.00000000000000000 -1.00000000000000000 
1 0.00000000000000000 0.00000000000000000 1.00000000000000000 0.00000000000000000 
1 0.00000000000000000 -3.00000000000000000 1.00000000000000000 0.00000000000000000 
2 94.55989084453675275 -38.38383389569847282 1.00000000000000000 0.00000000000000000 -0.00000000000000000 1.00000000000000000 5.00000000000000000
2 -195.00000000000000000 -37.17478348783700426 -1.00000000000000000 0.00000000000000000 0.00000000000000000 1.00000000000000000 5.00000000000000000
2 -37.17478348783700426 -195.00000000000000000 0.00000000000000000 -1.00000000000000000 1.00000000000000000 0.00000000000000000 5.00000000000000000
1 0.00000000000000160 0.00000000000000000 0.00000000000000000 -1.00000000000000000 
1 99.55989084453675275 -38.38383389569847282 0.00000000000000000 1.00000000000000000 
1 -200.00000000000000000 -37.17478348783700426 0.00000000000000000 1.00000000000000000 
1 -37.17478348783700426 -200.00000000000000000 1.00000000000000000 0.00000000000000000 
1 1.22543119774445208 0.00000000000000000 0.00000000000000000 -1.00000000000000000 
1 1.22543119774483000 0.00000000000000000 0.00000000000000000 -1.00000000000000000 
1 0.00000000000000000 0.00000000000000000 1.00000000000000000 0.00000000000000000 
1 0.00000000000000000 -3.00000000000000000 1.00000000000000000 0.00000000000000000 
2 94.55989084453675275 -3.20299290019812588 1.00000000000000000 0.00000000000000000 -0.00000000000000000 1.00000000000000000 5.00000000000000000
2 -195.00000000000000000 -1.99394249233665732 -1.00000000000000000 0.00000000000000000 0.00000000000000000 1.00000000000000000 5.00000000000000000
2 -1.99394249233665732 -195.00000000000000000 0.00000000000000000 -1.00000000000000000 1.00000000000000000 0.00000000000000000 5.00000000000000000
1 1.58979685795190839 0.00000000000000000 0.00000000000000000 -1.00000000000000000 
1 41.88557343452191617 0.00000000000000000 0.00000000000000000 -1.00000000000000000 
8 0.00000000000000000 3.00000000000000000
1 1.58979685795190839 0.00000000000000000 0.00000000000000000 -1.00000000000000000 
1 0.00000000000000000 0.00000000000000000 1.00000000000000000 0.00000000000000000 
1 0.00000000000000000 -3.00000000000000000 1.00000000000000000 0.00000000000000000 
2 -89.98800723071627772 -516.14255200021898418 1.00000000000000000 0.00000000000000000 -0.00000000000000000 1.00000000000000000 550.12834999999995489
2 -10.45210192474696953 -514.93350159235751562 -1.00000000000000000 0.00000000000000000 0.00000000000000000 1.00000000000000000 550.12834999999995489
2 -514.93350159235751562 -10.45210192474697308 0.00000000000000000 -1.00000000000000000 1.00000000000000000 0.00000000000000000 550.12834999999995489
1 0.00000000000000000 0.00000000000000000 1.00000000000000000 0.00000000000000000 
2 -89.98800723071627772 -516.14255200021898418 1.00000000000000000 0.00000000000000000 -0.00000000000000000 1.00000000000000000 550.12834999999995489
2 10.45210192474696953 -514.93350159235751562 1.00000000000000000 0.00000000000000000 -0.00000000000000000 1.00000000000000000 550.12834999999995489
1 0.00000000000000000 -3.00000000000000000 1.00000000000000000 0.00000000000000000 
2 -89.98800723071627772 -516.14255200021898418 1.00000000000000000 0.00000000000000000 -0.00000000000000000 1.00000000000000000 550.12834999999995489
2 -514.93350159235751562 10.45210192474696598 0.00000000000000000 1.00000000000000000 1.00000000000000000 -0.00000000000000000 550.12834999999995489
1 0.00000000000000000 0.00000000000000000 1.00000000000000000 0.00000000000000000 
1 0.00000000000000000 -3.00000000000000000 1.00000000000000000 0.00000000000000000 
2 -100.44010915546319040 -557.99907616636164676 1.00000000000000000 0.00000000000000000 -0.00000000000000000 1.00000000000000000 550.00000000000000000
1 0.00000000000000000 -0.00000000000000000 1.00000000000000000 0.00000000000000000 
2 -0.00000000000005060 -556.79002575850017820 -1.00000000000000000 0.00000000000000000 0.00000000000000000 1.00000000000000000 550.00000000000000000
1 0.00000000000000000 0.00000000000000000 1.00000000000000000 0.00000000000000000 
2 -100.44010915546319040 -557.99907616636164676 1.00000000000000000 0.00000000000000000 -0.00000000000000000 1.00000000000000000 550.00000000000000000
1 3.14159265358979312 0.00000000000000000 -1.00000000000000000 -0.00000000000000000 
2 0.00000000000005060 -556.79002575850017820 1.00000000000000000 0.00000000000000000 -0.00000000000000000 1.00000000000000000 550.00000000000000000
1 0.00000000000000000 -3.00000000000000000 1.00000000000000000 0.00000000000000000 
2 -100.44010915546319040 -557.99907616636164676 1.00000000000000000 0.00000000000000000 -0.00000000000000000 1.00000000000000000 550.00000000000000000
1 3.14159265358979312 -3.00000000000000000 -1.00000000000000000 0.00000000000000000 
2 -556.79002575850017820 0.00000000000004718 0.00000000000000000 1.00000000000000000 1.00000000000000000 -0.00000000000000000 550.00000000000000000
1 0.00000000000000000 -3.00000000000000000 1.00000000000000000 0.00000000000000000 
2 -556.79002575850017820 -0.00000000000005402 0.00000000000000000 -1.00000000000000000 1.00000000000000000 0.00000000000000000 550.00000000000000000
Curves 24
1 -193.24324324324322788 169.01941921918086109 0.00000000000000000 -0.00000000000000000 -0.00000000000000000 1.00000000000000000 
1 -200.00000000000000000 173.70063761801563373 0.00000000000000000 -0.00000000000000000 -0.00000000000000000 1.00000000000000000 
2 -195.00000000000000000 173.70063761801563373 0.00000000000000000 0.00000000000000000 0.00000000000000000 -1.00000000000000000 -1.00000000000000000 -0.00000000000000000 -0.00000000000000000 -0.00000000000000000 1.00000000000000000 0.00000000000000000 5.00000000000000000
2 -195.00000000000000000 173.70063761801563373 0.00000000000000000 0.00000000000000000 0.00000000000000000 -1.00000000000000000 -1.00000000000000000 -0.00000000000000000 -0.00000000000000000 -0.00000000000000000 1.00000000000000000 0.00000000000000000 5.00000000000000000
1 -200.00000000000000000 208.88147861351598067 0.00000000000000000 -0.00000000000000000 -0.00000000000000000 1.00000000000000000 
1 -200.00000000000000000 173.70063761801563373 0.00000000000000000 -0.00000000000000000 1.00000000000000000 -0.00000000000000000 
1 -200.00000000000000000 173.70063761801563373 0.00000000000000000 -0.00000000000000000 1.00000000000000000 -0.00000000000000000 
1 -196.69270134341326184 213.58623813574752148 0.00000000000000000 -0.00000000000000000 -0.00000000000000000 1.00000000000000000 
2 -195.00000000000000000 208.88147861351598067 0.00000000000000000 0.00000000000000000 0.00000000000000000 -1.00000000000000000 -1.00000000000000000 -0.00000000000000000 -0.00000000000000000 -0.00000000000000000 1.00000000000000000 0.00000000000000000 5.00000000000000000
2 -195.00000000000000000 208.88147861351598067 0.00000000000000000 0.00000000000000000 0.00000000000000000 -1.00000000000000000 -1.00000000000000000 -0.00000000000000000 -0.00000000000000000 -0.00000000000000000 1.00000000000000000 0.00000000000000000 5.00000000000000000
1 193.24324324324322788 169.01941921918086109 0.00000000000000000 0.00000000000000000 0.00000000000000000 1.00000000000000000 
1 200.00000000000000000 173.70063761801563373 0.00000000000000000 0.00000000000000000 0.00000000000000000 1.00000000000000000 
2 195.00000000000000000 173.70063761801563373 0.00000000000000000 0.00000000000000000 0.00000000000000000 1.00000000000000000 1.00000000000000000 0.00000000000000000 -0.00000000000000000 -0.00000000000000000 1.00000000000000000 0.00000000000000000 5.00000000000000000
1 200.00000000000000000 208.88147861351598067 0.00000000000000000 0.00000000000000000 0.00000000000000000 1.00000000000000000 
1 200.00000000000000000 173.70063761801563373 0.00000000000000000 0.00000000000000000 1.00000000000000000 0.00000000000000000 
1 196.69270134341326184 213.58623813574752148 0.00000000000000000 0.00000000000000000 0.00000000000000000 1.00000000000000000 
2 195.00000000000000000 208.88147861351598067 0.00000000000000000 0.00000000000000000 0.00000000000000000 1.00000000000000000 1.00000000000000000 0.00000000000000000 -0.00000000000000000 -0.00000000000000000 1.00000000000000000 0.00000000000000000 5.00000000000000000
1 0.00000000000006750 245.97096878187437596 0.00000000000000000 0.00000000000000000 0.00000000000000000 1.00000000000000000 
2 10.45210192474696953 -304.05808048650487763 0.00000000000000000 0.00000000000000000 0.00000000000000000 1.00000000000000000 1.00000000000000000 0.00000000000000000 -0.00000000000000000 -0.00000000000000000 1.00000000000000000 0.00000000000000000 550.12834999999995489
2 -10.45210192474696953 -304.05808048650487763 0.00000000000000000 0.00000000000000000 0.00000000000000000 -1.00000000000000000 -1.00000000000000000 -0.00000000000000000 -0.00000000000000000 -0.00000000000000000 1.00000000000000000 0.00000000000000000 550.12834999999995489
2 -10.45210192474696953 -304.05808048650487763 0.00000000000000000 0.00000000000000000 0.00000000000000000 -1.00000000000000000 -1.00000000000000000 -0.00000000000000000 -0.00000000000000000 -0.00000000000000000 1.00000000000000000 0.00000000000000000 550.12834999999995489
2 0.00000000000005060 -345.91460465264754021 0.00000000000000000 0.00000000000000000 0.00000000000000000 1.00000000000000000 1.00000000000000000 0.00000000000000000 -0.00000000000000000 -0.00000000000000000 1.00000000000000000 0.00000000000000000 550.00000000000000000
2 -0.00000000000005060 -345.91460465264754021 0.00000000000000000 0.00000000000000000 0.00000000000000000 -1.00000000000000000 -1.00000000000000000 -0.00000000000000000 -0.00000000000000000 -0.00000000000000000 1.00000000000000000 0.00000000000000000 550.00000000000000000
2 -0.00000000000005060 -345.91460465264754021 0.00000000000000000 0.00000000000000000 0.00000000000000000 -1.00000000000000000 -1.00000000000000000 -0.00000000000000000 -0.00000000000000000 -0.00000000000000000 1.00000000000000000 0.00000000000000000 550.00000000000000000
Polygon3D 0
PolygonOnTriangulations 0
Surfaces 17
2 -195.00000000000000000 173.70063761801563373 0.00000000000000000 0.00000000000000000 -0.00000000000000000 -1.00000000000000000 -1.00000000000000000 -0.00000000000000000 0.00000000000000000 -0.00000000000000000 1.00000000000000000 -0.00000000000000000 5.00000000000000000
2 -0.00000000000005060 -345.91460465264754021 0.00000000000000000 0.00000000000000000 -0.00000000000000000 -1.00000000000000000 -1.00000000000000000 -0.00000000000000000 0.00000000000000000 -0.00000000000000000 1.00000000000000000 -0.00000000000000000 550.00000000000000000
2 0.00000000000005060 -345.91460465264754021 0.00000000000000000 -0.00000000000000000 -0.00000000000000000 -1.00000000000000000 1.00000000000000000 0.00000000000000000 0.00000000000000000 -0.00000000000000000 1.00000000000000000 -0.00000000000000000 550.00000000000000000
1 -200.00000000000000000 173.70063761801563373 0.00000000000000000 1.00000000000000000 -0.00000000000000000 -0.00000000000000000 0.00000000000000000 1.00000000000000000 -0.00000000000000000 -0.00000000000000000 -0.00000000000000000 -1.00000000000000000 
1 -100.44010915546324725 212.08447151371410655 0.00000000000000000 -0.00000000000000000 -0.00000000000000000 1.00000000000000000 -1.00000000000000000 0.00000000000000000 -0.00000000000000000 -0.00000000000000000 1.00000000000000000 0.00000000000000000 
1 0.00000000000000000 210.87542110585263799 0.00000000000000000 -0.00000000000000000 -0.00000000000000000 -1.00000000000000000 -1.00000000000000000 0.00000000000000000 0.00000000000000000 0.00000000000000000 1.00000000000000000 -0.00000000000000000 
1 -100.44010915546324725 212.08447151371410655 0.00000000000000000 -0.00000000000000000 -0.00000000000000000 1.00000000000000000 -1.00000000000000000 0.00000000000000000 -0.00000000000000000 -0.00000000000000000 1.00000000000000000 0.00000000000000000 
1 -0.00000000000000342 210.87542110585263799 2.99999999999999867 -0.00000000000000000 -0.00000000000000000 1.00000000000000000 0.00000000000000000 1.00000000000000000 0.00000000000000000 -1.00000000000000000 0.00000000000000000 0.00000000000000000 
2 -195.00000000000000000 208.88147861351598067 0.00000000000000000 0.00000000000000000 -0.00000000000000000 -1.00000000000000000 -1.00000000000000000 -0.00000000000000000 0.00000000000000000 -0.00000000000000000 1.00000000000000000 -0.00000000000000000 5.00000000000000000
2 -10.45210192474696953 -304.05808048650487763 0.00000000000000000 0.00000000000000000 -0.00000000000000000 -1.00000000000000000 -1.00000000000000000 -0.00000000000000000 0.00000000000000000 -0.00000000000000000 1.00000000000000000 -0.00000000000000000 550.12834999999995489
2 195.00000000000000000 173.70063761801563373 0.00000000000000000 -0.00000000000000000 -0.00000000000000000 -1.00000000000000000 1.00000000000000000 0.00000000000000000 0.00000000000000000 -0.00000000000000000 1.00000000000000000 -0.00000000000000000 5.00000000000000000
2 0.00000000000005060 -345.91460465264754021 0.00000000000000000 -0.00000000000000000 -0.00000000000000000 -1.00000000000000000 1.00000000000000000 0.00000000000000000 0.00000000000000000 -0.00000000000000000 1.00000000000000000 -0.00000000000000000 550.00000000000000000
1 200.00000000000000000 173.70063761801563373 0.00000000000000000 -1.00000000000000000 0.00000000000000000 0.00000000000000000 0.00000000000000000 1.00000000000000000 0.00000000000000000 0.00000000000000000 0.00000000000000000 -1.00000000000000000 
1 100.44010915546324725 212.08447151371410655 0.00000000000000000 0.00000000000000000 0.00000000000000000 1.00000000000000000 1.00000000000000000 0.00000000000000000 -0.00000000000000000 -0.00000000000000000 1.00000000000000000 0.00000000000000000 
2 195.00000000000000000 208.88147861351598067 0.00000000000000000 -0.00000000000000000 -0.00000000000000000 -1.00000000000000000 1.00000000000000000 0.00000000000000000 0.00000000000000000 -0.00000000000000000 1.00000000000000000 -0.00000000000000000 5.00000000000000000
2 10.45210192474696953 -304.05808048650487763 0.00000000000000000 -0.00000000000000000 -0.00000000000000000 -1.00000000000000000 1.00000000000000000 0.00000000000000000 0.00000000000000000 -0.00000000000000000 1.00000000000000000 -0.00000000000000000 550.12834999999995489
1 -0.00000000000003785 204.08539534735245979 0.00000000000000000 -1.00000000000000000 0.00000000000000252 0.00000000000000000 0.00000000000000252 1.00000000000000000 0.00000000000000000 0.00000000000000000 0.00000000000000000 -1.00000000000000000 
Triangulations 0

TShapes 66
Ve
0.000000100000043
-193.243243243243228 169.019419219180861 0.000000000000000
0 0

0101101
*
Ve
0.000000100000043
-193.243243243243228 169.019419219180861 3.000000000000000
0 0

0101101
*
Ed
 0.000000100000043 1 1 0
1  1 0 0.000000000000000 3.000000000000000
2  1 1 0 0.000000000000000 3.000000000000000
2  2 2 0 0.000000000000000 3.000000000000000
4 G1 1 0 2 0
2  3 3 3 0.000000000000000 3.000000000000000
0

0101000
+66 3 -65 3 *
Ve
0.000000100000000
-200.000000000000000 173.700637618015634 0.000000000000000
0 0

0101101
*
Ve
0.000000100000000
-200.000000000000000 173.700637618015634 3.000000000000000
0 0

0101101
*
Ed
 0.000000100000000 1 1 0
1  2 0 0.000000000000000 3.000000000000000
2  4 1 0 0.000000000000000 3.000000000000000
4 G1 1 0 4 0
0

0101000
+63 3 -62 3 *
Ed
 0.000000100000000 1 1 0
1  3 0 4.353374891268284 6.283185307179588
2  5 1 8 4.353374891268284 6.283185307179588
2  6 5 9 4.353374891268284 6.283185307179588
2  7 6 10 4.353374891268284 6.283185307179588
0

0101000
+66 10 -63 10 *
Ed
 0.000000100000000 1 1 0
1  4 0 4.353374891268284 6.283185307179588
2  8 1 13 4.353374891268284 6.283185307179588
2  9 7 9 4.353374891268284 6.283185307179588
2  10 8 14 4.353374891268284 6.283185307179588
0

0101000
+65 14 -62 14 *
Wi

0101100
+64 0 -61 0 -60 7 +59 12 *
Fa
0  0.000000100000000 1 0

0101000
+58 0 *
Ve
0.000000100000000
-200.000000000000000 208.881478613515981 0.000000000000000
0 0

0101101
*
Ve
0.000000100000000
-200.000000000000000 208.881478613515981 3.000000000000000
0 0

0101101
*
Ed
 0.000000100000000 1 1 0
1  5 0 0.000000000000000 3.000000000000000
2  11 9 0 0.000000000000000 3.000000000000000
4 G1 4 0 9 0
0

0101000
+56 3 -55 3 *
Ed
 0.000000100000000 1 1 0
1  6 0 0.000000000000000 35.180840995500347
2  12 5 9 0.000000000000000 35.180840995500347
2  13 6 10 0.000000000000000 35.180840995500347
0

0101000
+63 10 -56 10 *
Ed
 0.000000100000000 1 1 0
1  7 0 0.000000000000000 35.180840995500347
2  14 7 9 0.000000000000000 35.180840995500347
2  15 8 14 0.000000000000000 35.180840995500347
0

0101000
+62 14 -55 14 *
Wi

0101100
+61 0 -54 0 -53 7 +52 12 *
Fa
0  0.000000100000000 4 0

0101000
+51 0 *
Ve
0.000000100002162
-196.692701343413262 213.586238135747521 0.000000000000000
0 0

0101101
*
Ve
0.000000100002162
-196.692701343413262 213.586238135747521 3.000000000000000
0 0

0101101
*
Ed
 0.000000100002162 1 1 0
1  8 0 0.000000000000000 3.000000000000000
2  16 9 0 0.000000000000000 3.000000000000000
2  17 10 0 0.000000000000000 3.000000000000000
4 G1 9 0 10 0
0

0101000
+49 3 -48 3 *
Ed
 0.000000100000000 1 1 0
1  9 0 0.000000000000002 1.225431197744452
2  18 9 8 0.000000000000002 1.225431197744452
2  19 5 9 0.000000000000002 1.225431197744452
2  20 6 10 0.000000000000002 1.225431197744452
0

0101000
+56 10 -49 10 *
Ed
 0.000000100000000 1 1 0
1  10 0 0.000000000000002 1.225431197744452
2  21 9 13 0.000000000000002 1.225431197744452
2  22 7 9 0.000000000000002 1.225431197744452
2  23 8 14 0.000000000000002 1.225431197744452
0

0101000
+55 14 -48 14 *
Wi

0101100
+54 0 -47 0 -46 7 +45 12 *
Fa
0  0.000000100000000 9 0

0101000
+44 0 *
Ve
0.000000100000043
193.243243243243228 169.019419219180861 0.000000000000000
0 0

0101101
*
Ed
 0.000000100000043 1 1 0
1  11 0 0.000000000000000 3.000000000000000
2  24 11 0 0.000000000000000 3.000000000000000
2  25 12 0 0.000000000000000 3.000000000000000
4 G1 11 0 12 0
2  26 3 16 0.000000000000000 3.000000000000000
0

0101000
+42 7 -42 12 *
Ve
0.000000100000000
200.000000000000000 173.700637618015634 0.000000000000000
0 0

0101101
*
Ed
 0.000000100000000 1 1 0
1  12 0 0.000000000000000 3.000000000000000
2  27 11 0 0.000000000000000 3.000000000000000
4 G1 11 0 13 0
0

0101000
+40 7 -40 12 *
Ed
 0.000000100000000 1 1 0
1  13 0 4.353374891268284 6.283185307179588
2  28 11 8 4.353374891268284 6.283185307179588
2  29 11 13 4.353374891268284 6.283185307179588
2  30 14 9 4.353374891268284 6.283185307179588
2  31 6 17 4.353374891268284 6.283185307179588
2  32 8 18 4.353374891268284 6.283185307179588
0

0101000
+42 0 -40 0 *
Wi

0101100
+41 0 -39 0 -38 7 +38 12 *
Fa
0  0.000000100000000 11 0

0101000
+37 0 *
Ve
0.000000100000000
200.000000000000000 208.881478613515981 0.000000000000000
0 0

0101101
*
Ed
 0.000000100000000 1 1 0
1  14 0 0.000000000000000 3.000000000000000
2  33 15 0 0.000000000000000 3.000000000000000
4 G1 13 0 15 0
0

0101000
+35 7 -35 12 *
Ed
 0.000000100000000 1 1 0
1  15 0 0.000000000000000 35.180840995500347
2  34 14 9 0.000000000000000 35.180840995500347
2  35 6 17 0.000000000000000 35.180840995500347
2  36 8 18 0.000000000000000 35.180840995500347
0

0101000
+40 0 -35 0 *
Wi

0101100
+39 0 -34 0 -33 7 +33 12 *
Fa
0  0.000000100000000 13 0

0101000
+32 0 *
Ve
0.000000100002162
196.692701343413262 213.586238135747521 0.000000000000000
0 0

0101101
*
Ed
 0.000000100002162 1 1 0
1  16 0 0.000000000000000 3.000000000000000
2  37 15 0 0.000000000000000 3.000000000000000
2  38 16 0 0.000000000000000 3.000000000000000
4 G1 15 0 16 0
0

0101000
+30 7 -30 12 *
Ed
 0.000000100000000 1 1 0
1  17 0 0.000000000000002 1.225431197744452
2  39 15 8 0.000000000000002 1.225431197744452
2  40 15 13 0.000000000000002 1.225431197744452
2  41 14 9 0.000000000000002 1.225431197744452
2  42 6 17 0.000000000000002 1.225431197744452
2  43 8 18 0.000000000000002 1.225431197744452
0

0101000
+35 0 -30 0 *
Wi

0101100
+34 0 -29 0 -28 7 +28 12 *
Fa
0  0.000000100000000 15 0

0101000
+27 0 *
Ve
0.000000100000135
0.000000000000000 245.970968781874376 0.000000000000000
0 0

0101101
*
Ve
0.000000100000135
0.000000000000000 245.970968781874376 3.000000000000000
0 0

0101101
*
Ed
 0.000000100000135 1 1 0
1  18 0 0.000000000000000 3.000000000000000
2  44 16 0 0.000000000000000 3.000000000000000
2  45 17 0 0.000000000000000 3.000000000000000
2  46 10 19 0.000000000000000 3.000000000000000
0

0101000
+25 16 -24 16 *
Ed
 0.000000100000000 1 1 0
1  19 0 1.225431197744830 1.589796857951908
2  47 16 8 1.225431197744830 1.589796857951908
2  48 16 13 1.225431197744830 1.589796857951908
2  49 14 9 1.225431197744830 1.589796857951908
2  50 6 17 1.225431197744830 1.589796857951908
0

0101000
+30 0 -25 17 *
Ed
 0.000000100000000 1 1 0
1  19 0 1.225431197744830 1.589796857951908
2  47 16 8 1.225431197744830 1.589796857951908
2  48 16 13 1.225431197744830 1.589796857951908
2  49 14 9 1.225431197744830 1.589796857951908
2  51 8 18 1.225431197744830 1.589796857951908
0

0101000
+30 0 -24 18 *
Wi

0101100
+29 15 -23 15 -22 20 +21 21 *
Fa
0  0.000000100000000 16 15

0101000
+20 0 *
Ed
 0.000000100000000 1 1 0
1  20 0 1.225431197744830 1.589796857951908
2  52 10 8 1.225431197744830 1.589796857951908
2  53 5 9 1.225431197744830 1.589796857951908
2  54 6 10 1.225431197744830 1.589796857951908
0

0101000
+49 10 -25 10 *
Ed
 0.000000100000000 1 1 0
1  21 0 1.225431197744830 1.589796857951908
2  55 10 13 1.225431197744830 1.589796857951908
2  56 7 9 1.225431197744830 1.589796857951908
2  57 8 14 1.225431197744830 1.589796857951908
0

0101000
+48 14 -24 14 *
Wi

0101100
+47 2 -23 15 -18 22 +17 23 *
Fa
0  0.000000100000000 10 2

0101000
+16 0 *
Ve
0.000000100000117
0.000000000000000 204.085395347352460 0.000000000000000
0 0

0101101
*
Ed
 0.000000100000000 1 1 0
1  22 0 1.211782237678493 1.570796326794897
2  58 12 8 1.211782237678493 1.570796326794897
2  59 12 13 1.211782237678493 1.570796326794897
2  60 14 9 1.211782237678493 1.570796326794897
2  61 3 17 1.211782237678493 1.570796326794897
2  62 6 17 1.211782237678493 1.570796326794897
0

0101000
+42 0 -14 17 *
Ed
 0.000000100000000 1 1 0
1  23 0 1.211782237678493 1.570796326794897
2  63 2 8 1.211782237678493 1.570796326794897
2  64 5 9 1.211782237678493 1.570796326794897
2  65 3 10 1.211782237678493 1.570796326794897
2  66 6 10 1.211782237678493 1.570796326794897
0

0101000
+66 10 -14 10 *
Wi

0101100
-38 20 +13 20 -12 22 +60 22 +53 22 +46 22 +18 22 -22 20 -28 20 -33 20 
*
Fa
0  0.000000100000000 6 0

0101000
+11 0 *
Ve
0.000000100000117
0.000000000000000 204.085395347352460 3.000000000000000
0 0

0101101
*
Ed
 0.000000100000000 1 1 0
1  24 0 1.211782237678493 1.570796326794897
2  67 2 13 1.211782237678493 1.570796326794897
2  68 7 9 1.211782237678493 1.570796326794897
2  69 3 14 1.211782237678493 1.570796326794897
2  70 8 14 1.211782237678493 1.570796326794897
0

0101000
+65 14 -9 14 *
Ed
 0.000000100000000 1 1 0
1  22 0 1.211782237678493 1.570796326794897
2  58 12 8 1.211782237678493 1.570796326794897
2  59 12 13 1.211782237678493 1.570796326794897
2  60 14 9 1.211782237678493 1.570796326794897
2  71 3 18 1.211782237678493 1.570796326794897
2  72 8 18 1.211782237678493 1.570796326794897
0

0101000
+42 0 -9 18 *
Wi

0101100
+38 21 +33 21 +28 21 +21 21 -17 23 -45 23 -52 23 -59 23 +8 23 -7 21 
*
Fa
0  0.000000100000000 8 0

0101000
+6 0 *
Wi

0101100
-8 23 -64 2 +12 22 -13 20 +41 15 +7 21 *
Fa
0  0.000000100000000 3 0

0101000
+4 0 *
Sh

0101100
+57 2 +50 2 +43 2 -36 15 -31 15 -26 15 -19 0 +15 0 +10 0 +5 0 
+3 0 *
So

0100000
+2 0 *

+1 1 