
CASCADE Topology V1, (c) Matra-Datavision
Locations 19
1
1.000000000000000 0.000000000000000 0.000000000000000 0.000000000000000 
0.000000000000000 1.000000000000000 0.000000000000000 0.000000000000000 
0.000000000000000 0.000000000000000 1.000000000000000 0.000000000000000 
1
1.000000000000000 0.000000000000000 0.000000000000000 0.000000000000000 
0.000000000000000 1.000000000000000 0.000000000000000 0.000000000000000 
0.000000000000000 0.000000000000000 1.000000000000000 0.000000000000000 
1
1.000000000000000 0.000000000000000 0.000000000000000 0.000000000000000 
0.000000000000000 1.000000000000000 0.000000000000000 0.000000000000000 
0.000000000000000 0.000000000000000 1.000000000000000 0.000000000000000 
1
1.000000000000000 0.000000000000000 0.000000000000000 0.000000000000000 
0.000000000000000 1.000000000000000 0.000000000000000 0.000000000000000 
0.000000000000000 0.000000000000000 1.000000000000000 0.000000000000000 
1
1.000000000000000 0.000000000000000 0.000000000000000 0.000000000000000 
0.000000000000000 1.000000000000000 0.000000000000000 0.000000000000000 
0.000000000000000 0.000000000000000 1.000000000000000 0.000000000000000 
2  3 1 4 1 5 -1 0
1
1.000000000000000 0.000000000000000 0.000000000000000 0.000000000000000 
0.000000000000000 1.000000000000000 0.000000000000000 0.000000000000000 
0.000000000000000 0.000000000000000 1.000000000000000 1.500000000000000 
2  3 1 4 1 5 -1 7 1 0
2  4 -1 3 -1 0
2  5 1 4 -1 3 -1 0
2  7 -1 5 1 4 -1 3 -1 0
2  3 1 4 1 5 -1 7 1 2 1 0
1
1.000000000000000 0.000000000000000 0.000000000000000 0.000000000000000 
0.000000000000000 1.000000000000000 0.000000000000000 0.000000000000000 
0.000000000000000 0.000000000000000 1.000000000000000 0.000000000000000 
2  13 -1 0
2  3 1 4 1 5 -1 2 1 0
2  13 -1 5 1 4 -1 3 -1 0
2  13 -1 7 -1 5 1 4 -1 3 -1 0
2  3 1 4 1 5 -1 13 1 0
2  3 1 4 1 5 -1 7 1 13 1 0
Curve2ds 46
1 338.99999999999624833 0.00000000000000000 0.00000000000000000 -1.00000000000000000 
1 163.65306588986831571 -47.95612296927982499 0.00000000000000000 1.00000000000000000 
1 163.65306588986831571 -39.95612296930400476 1.00000000000000000 0.00000000000000000 
1 -0.00000000001181366 0.00000000000000000 0.00000000000000000 -1.00000000000000000 
1 169.65306588986700831 -39.95612296930400476 0.00000000000000000 1.00000000000000000 
1 1.57079632679652192 0.00000000000000000 0.00000000000000000 -1.00000000000000000 
1 0.00000000000000000 -0.00000000000000000 0.00000000000000000 -1.00000000000000000 
1 0.00000000000000000 0.00000000000000000 1.00000000000000000 0.00000000000000000 
1 0.00000000000000000 -1.50000000000000000 1.00000000000000000 0.00000000000000000 
2 167.65306588985484382 46.04387703064310955 1.00000000000000000 0.00000000000000000 -0.00000000000000000 1.00000000000000000 2.00000000001216449
1 338.99999999999624833 0.00000000000000000 0.00000000000000000 -1.00000000000000000 
1 163.65306588986831571 -47.95612296927982499 -0.00000000000000000 1.00000000000000000 
1 163.65306588986831571 -47.95612296927982499 -0.00000000000000000 1.00000000000000000 
1 163.65306588986831571 -39.95612296930400476 1.00000000000000000 0.00000000000000000 
1 163.65306588986831571 -39.95612296930400476 1.00000000000000000 0.00000000000000000 
1 -0.00000000001181366 0.00000000000000000 0.00000000000000000 -1.00000000000000000 
1 169.65306588986700831 -39.95612296930400476 -0.00000000000000000 1.00000000000000000 
1 169.65306588986700831 -39.95612296930400476 -0.00000000000000000 1.00000000000000000 
1 1.57079632679652192 0.00000000000000000 0.00000000000000000 -1.00000000000000000 
1 0.00000000000000000 0.00000000000000000 0.00000000000000000 -1.00000000000000000 
1 0.00000000000000000 0.00000000000000000 1.00000000000000000 0.00000000000000000 
2 167.65306588985484382 46.04387703064310955 1.00000000000000000 0.00000000000000000 -0.00000000000000000 1.00000000000000000 2.00000000001216449
1 0.00000000000000000 -1.50000000000000000 1.00000000000000000 0.00000000000000000 
2 167.65306588985484382 46.04387703064310955 1.00000000000000000 0.00000000000000000 -0.00000000000000000 1.00000000000000000 2.00000000001216449
1 0.00000000000000000 0.00000000000000000 1.00000000000000000 0.00000000000000000 
1 0.00000000000000000 -1.50000000000000000 1.00000000000000000 0.00000000000000000 
2 153.45306588986832708 -32.45612296930914198 1.00000000000000000 0.00000000000000000 -0.00000000000000000 1.00000000000000000 1.69999999999998863
1 0.00000000000000000 0.00000000000000000 1.00000000000000000 0.00000000000000000 
2 153.45306588986832708 -32.45612296930914198 1.00000000000000000 0.00000000000000000 -0.00000000000000000 1.00000000000000000 1.69999999999998863
1 0.00000000000000000 0.00000000000000000 1.00000000000000000 0.00000000000000000 
1 0.00000000000000000 -1.50000000000000000 1.00000000000000000 0.00000000000000000 
2 153.45306588986832708 27.54387703068822901 1.00000000000000000 0.00000000000000000 -0.00000000000000000 1.00000000000000000 1.69999999999998863
1 0.00000000000000000 0.00000000000000000 1.00000000000000000 0.00000000000000000 
2 153.45306588986832708 27.54387703068822901 1.00000000000000000 0.00000000000000000 -0.00000000000000000 1.00000000000000000 1.69999999999998863
1 0.00000000000000000 0.00000000000000000 0.00000000000000000 -1.00000000000000000 
1 6.28318530717958623 0.00000000000000000 0.00000000000000000 -1.00000000000000000 
1 0.00000000000000000 0.00000000000000000 0.00000000000000000 -1.00000000000000000 
1 6.28318530717958623 0.00000000000000000 0.00000000000000000 -1.00000000000000000 
1 0.00000000000000000 -1.50000000000000000 1.00000000000000000 0.00000000000000000 
2 153.45306588986832708 -32.45612296930914198 1.00000000000000000 0.00000000000000000 -0.00000000000000000 1.00000000000000000 1.69999999999998863
1 0.00000000000000000 0.00000000000000000 0.00000000000000000 -1.00000000000000000 
1 6.28318530717958623 0.00000000000000000 0.00000000000000000 -1.00000000000000000 
1 0.00000000000000000 0.00000000000000000 0.00000000000000000 -1.00000000000000000 
1 6.28318530717958623 0.00000000000000000 0.00000000000000000 -1.00000000000000000 
1 0.00000000000000000 -1.50000000000000000 1.00000000000000000 0.00000000000000000 
2 153.45306588986832708 27.54387703068822901 1.00000000000000000 0.00000000000000000 -0.00000000000000000 1.00000000000000000 1.69999999999998863
Curves 36
1 338.99999999999624833 -0.00000000002533800 0.00000000000000000 0.00000000000000000 0.00000000000000000 1.00000000000000000 
1 338.99999999999624833 7.99999999995048050 0.00000000000000000 0.00000000000000000 0.00000000000000000 1.00000000000000000 
1 338.99999999999624833 -0.00000000002533800 0.00000000000000000 0.00000000000000000 1.00000000000000000 0.00000000000000000 
1 344.99999999999494094 7.99999999995048050 0.00000000000000000 0.00000000000000000 0.00000000000000000 1.00000000000000000 
1 338.99999999999624833 7.99999999995048050 0.00000000000000000 1.00000000000000000 0.00000000000000000 0.00000000000000000 
1 344.99999999999494094 93.99999999987396393 0.00000000000000000 0.00000000000000000 0.00000000000000000 1.00000000000000000 
1 344.99999999999494094 7.99999999995048050 0.00000000000000000 0.00000000000000000 1.00000000000000000 0.00000000000000000 
1 342.99999999997953637 95.99999999990973265 0.00000000000000000 0.00000000000000000 0.00000000000000000 1.00000000000000000 
2 342.99999999998277644 93.99999999989759658 0.00000000000000000 0.00000000000000000 0.00000000000000000 1.00000000000000000 1.00000000000000000 0.00000000000000000 -0.00000000000000000 -0.00000000000000000 1.00000000000000000 0.00000000000000000 2.00000000001213696
1 0.00000000000000000 -0.00000000002533800 1.50000000000000000 1.00000000000000000 0.00000000000000000 0.00000000000000000 
1 -338.99999999999624833 -0.00000000002533800 0.00000000000000000 -0.00000000000000000 -0.00000000000000000 1.00000000000000000 
1 0.00000000000000000 -0.00000000002533800 0.00000000000000000 -1.00000000000000000 -0.00000000000000000 -0.00000000000000000 
1 -338.99999999999624833 7.99999999995048050 0.00000000000000000 -0.00000000000000000 -0.00000000000000000 1.00000000000000000 
1 -338.99999999999624833 -0.00000000002533800 0.00000000000000000 -0.00000000000000000 1.00000000000000000 -0.00000000000000000 
1 -338.99999999999624833 -0.00000000002533800 0.00000000000000000 -0.00000000000000000 1.00000000000000000 -0.00000000000000000 
1 -344.99999999999494094 7.99999999995048050 0.00000000000000000 -0.00000000000000000 -0.00000000000000000 1.00000000000000000 
1 -338.99999999999624833 7.99999999995048050 0.00000000000000000 -1.00000000000000000 -0.00000000000000000 -0.00000000000000000 
1 -338.99999999999624833 7.99999999995048050 0.00000000000000000 -1.00000000000000000 -0.00000000000000000 -0.00000000000000000 
1 -344.99999999999494094 93.99999999987396393 0.00000000000000000 -0.00000000000000000 -0.00000000000000000 1.00000000000000000 
1 -344.99999999999494094 7.99999999995048050 0.00000000000000000 -0.00000000000000000 1.00000000000000000 -0.00000000000000000 
1 -344.99999999999494094 7.99999999995048050 0.00000000000000000 -0.00000000000000000 1.00000000000000000 -0.00000000000000000 
1 -342.99999999997953637 95.99999999990973265 0.00000000000000000 -0.00000000000000000 -0.00000000000000000 1.00000000000000000 
2 -342.99999999998277644 93.99999999989759658 0.00000000000000000 0.00000000000000000 0.00000000000000000 -1.00000000000000000 -1.00000000000000000 -0.00000000000000000 -0.00000000000000000 -0.00000000000000000 1.00000000000000000 0.00000000000000000 2.00000000001213696
2 -342.99999999998277644 93.99999999989759658 0.00000000000000000 0.00000000000000000 0.00000000000000000 -1.00000000000000000 -1.00000000000000000 -0.00000000000000000 -0.00000000000000000 -0.00000000000000000 1.00000000000000000 0.00000000000000000 2.00000000001213696
1 -342.99999999997953637 95.99999999990973265 0.00000000000000000 1.00000000000000000 0.00000000000000000 0.00000000000000000 
2 328.79999999999625970 15.49999999994534505 0.00000000000000000 0.00000000000000000 0.00000000000000000 1.00000000000000000 1.00000000000000000 0.00000000000000000 -0.00000000000000000 -0.00000000000000000 1.00000000000000000 0.00000000000000000 1.70000000000000528
2 -328.79999999999625970 15.49999999994534505 0.00000000000000000 0.00000000000000000 0.00000000000000000 -1.00000000000000000 -1.00000000000000000 -0.00000000000000000 -0.00000000000000000 -0.00000000000000000 1.00000000000000000 0.00000000000000000 1.70000000000000528
2 328.79999999999625970 75.49999999994271604 0.00000000000000000 0.00000000000000000 0.00000000000000000 1.00000000000000000 1.00000000000000000 0.00000000000000000 -0.00000000000000000 -0.00000000000000000 1.00000000000000000 0.00000000000000000 1.70000000000000528
2 -328.79999999999625970 75.49999999994271604 0.00000000000000000 0.00000000000000000 0.00000000000000000 -1.00000000000000000 -1.00000000000000000 -0.00000000000000000 -0.00000000000000000 -0.00000000000000000 1.00000000000000000 0.00000000000000000 1.70000000000000528
1 330.49999999999624833 15.49999999994534505 0.00000000000000000 0.00000000000000000 0.00000000000000000 1.00000000000000000 
1 -330.49999999999624833 15.49999999994534505 0.00000000000000000 -0.00000000000000000 -0.00000000000000000 1.00000000000000000 
2 -328.79999999999625970 15.49999999994534505 0.00000000000000000 0.00000000000000000 0.00000000000000000 -1.00000000000000000 -1.00000000000000000 -0.00000000000000000 -0.00000000000000000 -0.00000000000000000 1.00000000000000000 0.00000000000000000 1.70000000000000528
1 330.49999999999624833 75.49999999994271604 0.00000000000000000 0.00000000000000000 0.00000000000000000 1.00000000000000000 
1 -330.49999999999624833 75.49999999994271604 0.00000000000000000 -0.00000000000000000 -0.00000000000000000 1.00000000000000000 
2 -328.79999999999625970 75.49999999994271604 0.00000000000000000 0.00000000000000000 0.00000000000000000 -1.00000000000000000 -1.00000000000000000 -0.00000000000000000 -0.00000000000000000 -0.00000000000000000 1.00000000000000000 0.00000000000000000 1.70000000000000528
1 342.99999999997953637 95.99999999990973265 1.50000000000000000 -1.00000000000000000 0.00000000000000000 0.00000000000000000 
Polygon3D 0
PolygonOnTriangulations 0
Surfaces 23
1 338.99999999999624833 -0.00000000002533800 0.00000000000000000 -1.00000000000000000 0.00000000000000000 0.00000000000000000 0.00000000000000000 1.00000000000000000 0.00000000000000000 0.00000000000000000 0.00000000000000000 -1.00000000000000000 
1 0.00000000000000000 -0.00000000002533800 0.00000000000000000 0.00000000000000000 1.00000000000000000 0.00000000000000000 1.00000000000000000 0.00000000000000000 0.00000000000000000 0.00000000000000000 0.00000000000000000 -1.00000000000000000 
1 175.34693411012793263 47.95612296925448703 0.00000000000000000 0.00000000000000000 0.00000000000000000 1.00000000000000000 1.00000000000000000 0.00000000000000000 -0.00000000000000000 -0.00000000000000000 1.00000000000000000 0.00000000000000000 
1 338.99999999999624833 7.99999999995048050 0.00000000000000000 0.00000000000000000 1.00000000000000000 0.00000000000000000 1.00000000000000000 0.00000000000000000 0.00000000000000000 0.00000000000000000 0.00000000000000000 -1.00000000000000000 
1 344.99999999999494094 7.99999999995048050 0.00000000000000000 -1.00000000000000000 0.00000000000000000 0.00000000000000000 0.00000000000000000 1.00000000000000000 0.00000000000000000 0.00000000000000000 0.00000000000000000 -1.00000000000000000 
2 342.99999999998277644 93.99999999989759658 0.00000000000000000 -0.00000000000000000 -0.00000000000000000 -1.00000000000000000 1.00000000000000000 0.00000000000000000 0.00000000000000000 -0.00000000000000000 1.00000000000000000 -0.00000000000000000 2.00000000001213696
1 342.99999999997953637 95.99999999990973265 0.00000000000000000 0.00000000000000000 -1.00000000000000000 0.00000000000000000 -1.00000000000000000 0.00000000000000000 0.00000000000000000 -0.00000000000000000 -0.00000000000000000 -1.00000000000000000 
1 0.00000000000000000 -0.00000000002533800 0.74999999999999989 -0.00000000000000000 -1.00000000000000000 -0.00000000000000000 0.00000000000000000 0.00000000000000000 -1.00000000000000000 1.00000000000000000 -0.00000000000000000 0.00000000000000000 
1 0.00000000000000000 -0.00000000002533800 0.00000000000000000 -0.00000000000000000 1.00000000000000000 -0.00000000000000000 -1.00000000000000000 -0.00000000000000000 -0.00000000000000000 0.00000000000000000 -0.00000000000000000 -1.00000000000000000 
1 -338.99999999999624833 -0.00000000002533800 0.00000000000000000 1.00000000000000000 -0.00000000000000000 -0.00000000000000000 0.00000000000000000 1.00000000000000000 -0.00000000000000000 -0.00000000000000000 -0.00000000000000000 -1.00000000000000000 
1 -175.34693411012793263 47.95612296925448703 0.00000000000000000 -0.00000000000000000 -0.00000000000000000 1.00000000000000000 -1.00000000000000000 0.00000000000000000 -0.00000000000000000 -0.00000000000000000 1.00000000000000000 0.00000000000000000 
1 -175.34693411012793263 47.95612296925448703 0.00000000000000000 -0.00000000000000000 -0.00000000000000000 1.00000000000000000 -1.00000000000000000 0.00000000000000000 -0.00000000000000000 -0.00000000000000000 1.00000000000000000 0.00000000000000000 
1 -338.99999999999624833 7.99999999995048050 0.00000000000000000 -0.00000000000000000 1.00000000000000000 -0.00000000000000000 -1.00000000000000000 -0.00000000000000000 -0.00000000000000000 0.00000000000000000 -0.00000000000000000 -1.00000000000000000 
1 -344.99999999999494094 7.99999999995048050 0.00000000000000000 1.00000000000000000 -0.00000000000000000 -0.00000000000000000 0.00000000000000000 1.00000000000000000 -0.00000000000000000 -0.00000000000000000 -0.00000000000000000 -1.00000000000000000 
2 -342.99999999998277644 93.99999999989759658 0.00000000000000000 0.00000000000000000 -0.00000000000000000 -1.00000000000000000 -1.00000000000000000 -0.00000000000000000 0.00000000000000000 -0.00000000000000000 1.00000000000000000 -0.00000000000000000 2.00000000001213696
1 -342.99999999997953637 95.99999999990973265 0.00000000000000000 -0.00000000000000000 -1.00000000000000000 -0.00000000000000000 1.00000000000000000 -0.00000000000000000 0.00000000000000000 0.00000000000000000 -0.00000000000000000 -1.00000000000000000 
1 -0.00000000000000319 48.00602697876374947 0.00000000000000000 -0.00000000000000000 -0.00000000000000000 -1.00000000000000000 -1.00000000000000000 0.00000000000000000 0.00000000000000000 0.00000000000000000 1.00000000000000000 -0.00000000000000000 
2 328.79999999999625970 15.49999999994534505 0.00000000000000000 -0.00000000000000000 -0.00000000000000000 -1.00000000000000000 1.00000000000000000 0.00000000000000000 0.00000000000000000 -0.00000000000000000 1.00000000000000000 -0.00000000000000000 1.70000000000000528
2 -328.79999999999625970 15.49999999994534505 0.00000000000000000 0.00000000000000000 -0.00000000000000000 -1.00000000000000000 -1.00000000000000000 -0.00000000000000000 0.00000000000000000 -0.00000000000000000 1.00000000000000000 -0.00000000000000000 1.70000000000000528
2 328.79999999999625970 75.49999999994271604 0.00000000000000000 -0.00000000000000000 -0.00000000000000000 -1.00000000000000000 1.00000000000000000 0.00000000000000000 0.00000000000000000 -0.00000000000000000 1.00000000000000000 -0.00000000000000000 1.70000000000000528
2 -328.79999999999625970 75.49999999994271604 0.00000000000000000 0.00000000000000000 -0.00000000000000000 -1.00000000000000000 -1.00000000000000000 -0.00000000000000000 0.00000000000000000 -0.00000000000000000 1.00000000000000000 -0.00000000000000000 1.70000000000000528
1 -0.00000000000000927 48.00602697876376368 1.50000000000000022 0.00000000000000000 0.00000000000000000 1.00000000000000000 0.00000000000000000 1.00000000000000000 -0.00000000000000000 -1.00000000000000000 0.00000000000000000 0.00000000000000000 
1 0.00000000000000000 95.99999999990974686 0.75000000000000000 0.00000000000000000 1.00000000000000000 0.00000000000000000 0.00000000000000000 -0.00000000000000000 1.00000000000000000 1.00000000000000000 0.00000000000000000 -0.00000000000000000 
Triangulations 0

TShapes 99
Ve
0.000000100000000
338.999999999996248 -0.000000000025338 0.000000000000000
0 0

0101101
*
Ed
 0.000000100000000 1 1 0
1  1 0 0.000000000000000 1.500000000000000
2  1 2 0 0.000000000000000 1.500000000000000
0

0101000
+99 6 -99 8 *
Ve
0.000000100000000
338.999999999996248 7.999999999950481 0.000000000000000
0 0

0101101
*
Ed
 0.000000100000000 1 1 0
1  2 0 0.000000000000000 1.500000000000000
0

0101000
+97 6 -97 8 *
Ed
 0.000000100000000 1 1 0
1  3 0 0.000000000000000 7.999999999975818
2  2 3 9 0.000000000000000 7.999999999975818
0

0101000
+99 0 -97 0 *
Wi

0101100
+98 0 -96 0 -95 6 +95 8 *
Fa
0  0.000000100000000 1 0

0101000
+94 0 *
Ve
0.000000100000000
344.999999999994941 7.999999999950481 0.000000000000000
0 0

0101101
*
Ed
 0.000000100000000 1 1 0
1  4 0 0.000000000000000 1.500000000000000
0

0101000
+92 6 -92 8 *
Ed
 0.000000100000000 1 1 0
1  5 0 0.000000000000000 5.999999999998693
2  3 3 9 0.000000000000000 5.999999999998693
0

0101000
+97 0 -92 0 *
Wi

0101100
+96 0 -91 0 -90 6 +90 8 *
Fa
0  0.000000100000000 4 0

0101000
+89 0 *
Ve
0.000000100000000
344.999999999994941 93.999999999873964 0.000000000000000
0 0

0101101
*
Ed
 0.000000100000000 1 1 0
1  6 0 0.000000000000000 1.500000000000000
2  4 6 0 0.000000000000000 1.500000000000000
4 G1 5 0 6 0
0

0101000
+87 6 -87 8 *
Ed
 0.000000100000000 1 1 0
1  7 0 0.000000000000000 85.999999999923489
2  5 3 9 0.000000000000000 85.999999999923489
0

0101000
+92 0 -87 0 *
Wi

0101100
+91 0 -86 0 -85 6 +85 8 *
Fa
0  0.000000100000000 5 0

0101000
+84 0 *
Ve
0.000000100000000
342.999999999979536 95.999999999909733 0.000000000000000
0 0

0101101
*
Ed
 0.000000100000000 1 1 0
1  8 0 0.000000000000000 1.500000000000000
2  6 6 0 0.000000000000000 1.500000000000000
4 G1 6 0 7 0
2  7 7 0 0.000000000000000 1.500000000000000
0

0101000
+82 6 -82 8 *
Ed
 0.000000100000000 1 1 0
1  9 0 -0.000000000011814 1.570796326796522
2  8 6 10 -0.000000000011814 1.570796326796522
2  9 6 11 -0.000000000011814 1.570796326796522
2  10 3 9 -0.000000000011814 1.570796326796522
0

0101000
+87 0 -82 0 *
Wi

0101100
+86 0 -81 0 -80 6 +80 8 *
Fa
0  0.000000100000000 6 0

0101000
+79 0 *
Ve
0.000000100000000
-338.999999999996248 -0.000000000025338 1.500000000000000
0 0

0101101
*
Ed
 0.000000100000000 1 1 0
1  10 0 -338.999999999996248 338.999999999996248
0

0101000
+77 0 -99 12 *
Ve
0.000000100000000
-338.999999999996248 -0.000000000025338 0.000000000000000
0 0

0101101
*
Ed
 0.000000100000000 1 1 0
1  11 0 0.000000000000000 1.500000000000000
2  11 9 0 0.000000000000000 1.500000000000000
0

0101000
+75 14 -77 14 *
Ed
 0.000000100000000 1 1 0
1  12 0 -338.999999999996248 338.999999999996248
0

0101000
+99 15 -75 0 *
Wi

0101000
+98 2 -76 0 -74 13 -73 0 *
Fa
0  0.000000100000000 8 0

0101000
+72 0 *
Ve
0.000000100000000
-338.999999999996248 7.999999999950481 0.000000000000000
0 0

0101101
*
Ve
0.000000100000000
-338.999999999996248 7.999999999950481 1.500000000000000
0 0

0101101
*
Ed
 0.000000100000000 1 1 0
1  13 0 0.000000000000000 1.500000000000000
0

0101000
+70 14 -69 14 *
Ed
 0.000000100000000 1 1 0
1  14 0 0.000000000000000 7.999999999975818
2  12 11 9 0.000000000000000 7.999999999975818
0

0101000
+75 16 -70 16 *
Ed
 0.000000100000000 1 1 0
1  15 0 0.000000000000000 7.999999999975818
2  13 12 9 0.000000000000000 7.999999999975818
0

0101000
+77 17 -69 17 *
Wi

0101100
+74 0 -68 0 -67 6 +66 8 *
Fa
0  0.000000100000000 10 0

0101000
+65 0 *
Ve
0.000000100000000
-344.999999999994941 7.999999999950481 0.000000000000000
0 0

0101101
*
Ve
0.000000100000000
-344.999999999994941 7.999999999950481 1.500000000000000
0 0

0101101
*
Ed
 0.000000100000000 1 1 0
1  16 0 0.000000000000000 1.500000000000000
0

0101000
+63 14 -62 14 *
Ed
 0.000000100000000 1 1 0
1  17 0 0.000000000000000 5.999999999998693
2  14 11 9 0.000000000000000 5.999999999998693
0

0101000
+70 16 -63 16 *
Ed
 0.000000100000000 1 1 0
1  18 0 0.000000000000000 5.999999999998693
2  15 12 9 0.000000000000000 5.999999999998693
0

0101000
+69 17 -62 17 *
Wi

0101100
+68 0 -61 0 -60 6 +59 8 *
Fa
0  0.000000100000000 13 0

0101000
+58 0 *
Ve
0.000000100000000
-344.999999999994941 93.999999999873964 0.000000000000000
0 0

0101101
*
Ve
0.000000100000000
-344.999999999994941 93.999999999873964 1.500000000000000
0 0

0101101
*
Ed
 0.000000100000000 1 1 0
1  19 0 0.000000000000000 1.500000000000000
2  16 15 0 0.000000000000000 1.500000000000000
4 G1 14 0 15 0
0

0101000
+56 14 -55 14 *
Ed
 0.000000100000000 1 1 0
1  20 0 0.000000000000000 85.999999999923489
2  17 11 9 0.000000000000000 85.999999999923489
0

0101000
+63 16 -56 16 *
Ed
 0.000000100000000 1 1 0
1  21 0 0.000000000000000 85.999999999923489
2  18 12 9 0.000000000000000 85.999999999923489
0

0101000
+62 17 -55 17 *
Wi

0101100
+61 0 -54 0 -53 6 +52 8 *
Fa
0  0.000000100000000 14 0

0101000
+51 0 *
Ve
0.000000100000000
-342.999999999979536 95.999999999909733 0.000000000000000
0 0

0101101
*
Ve
0.000000100000000
-342.999999999979536 95.999999999909733 1.500000000000000
0 0

0101101
*
Ed
 0.000000100000000 1 1 0
1  22 0 0.000000000000000 1.500000000000000
2  19 15 0 0.000000000000000 1.500000000000000
4 G1 15 0 16 0
2  20 16 0 0.000000000000000 1.500000000000000
0

0101000
+49 14 -48 14 *
Ed
 0.000000100000000 1 1 0
1  23 0 -0.000000000011814 1.570796326796522
2  21 15 10 -0.000000000011814 1.570796326796522
2  22 11 9 -0.000000000011814 1.570796326796522
0

0101000
+56 16 -49 16 *
Ed
 0.000000100000000 1 1 0
1  24 0 -0.000000000011814 1.570796326796522
2  23 15 11 -0.000000000011814 1.570796326796522
2  24 12 9 -0.000000000011814 1.570796326796522
0

0101000
+55 17 -48 17 *
Wi

0101100
+54 0 -47 0 -46 6 +45 8 *
Fa
0  0.000000100000000 15 0

0101000
+44 0 *
Ed
 0.000000100000000 1 1 0
1  25 0 0.000000000000000 685.999999999959073
0

0101000
+49 0 -82 15 *
Wi

0101000
+73 0 +67 18 +60 18 +53 18 +46 18 +42 0 -80 15 -85 15 -90 15 -95 15 
*
Ve
0.000000100000000
330.499999999996248 15.499999999945345 0.000000000000000
0 0

0101101
*
Ed
 0.000000100000000 1 1 0
1  26 0 0.000000000000000 6.283185307179586
2  25 18 10 0.000000000000000 6.283185307179586
2  26 18 11 0.000000000000000 6.283185307179586
2  27 3 9 0.000000000000000 6.283185307179586
0

0101100
+40 0 -40 0 *
Wi

0101100
+39 15 *
Ve
0.000000100000000
-330.499999999996248 15.499999999945345 0.000000000000000
0 0

0101101
*
Ed
 0.000000100000000 1 1 0
1  27 0 0.000000000000000 6.283185307179586
2  28 19 10 0.000000000000000 6.283185307179586
2  29 11 9 0.000000000000000 6.283185307179586
0

0101100
+37 16 -37 16 *
Wi

0101100
-36 18 *
Ve
0.000000100000000
330.499999999996248 75.499999999942716 0.000000000000000
0 0

0101101
*
Ed
 0.000000100000000 1 1 0
1  28 0 0.000000000000000 6.283185307179586
2  30 20 10 0.000000000000000 6.283185307179586
2  31 20 11 0.000000000000000 6.283185307179586
2  32 3 9 0.000000000000000 6.283185307179586
0

0101100
+34 0 -34 0 *
Wi

0101100
+33 15 *
Ve
0.000000100000000
-330.499999999996248 75.499999999942716 0.000000000000000
0 0

0101101
*
Ed
 0.000000100000000 1 1 0
1  29 0 0.000000000000000 6.283185307179586
2  33 21 10 0.000000000000000 6.283185307179586
2  34 11 9 0.000000000000000 6.283185307179586
0

0101100
+31 16 -31 16 *
Wi

0101100
-30 18 *
Fa
0  0.000000100000000 17 0

0101000
+41 0 +38 0 +35 0 +32 0 +29 0 *
Ed
 0.000000100000000 1 1 0
1  30 0 0.000000000000000 1.500000000000000
3  35 36CN 18 0 0.000000000000000 1.500000000000000
0

0101000
+40 6 -40 8 *
Wi

0101100
+27 0 -27 0 -39 6 +39 8 *
Fa
0  0.000000100000000 18 0

0101000
+26 0 *
Ve
0.000000100000000
-330.499999999996248 15.499999999945345 1.500000000000000
0 0

0101101
*
Ed
 0.000000100000000 1 1 0
1  31 0 0.000000000000000 1.500000000000000
3  37 38CN 19 0 0.000000000000000 1.500000000000000
0

0101000
+37 14 -24 14 *
Ed
 0.000000100000000 1 1 0
1  32 0 0.000000000000000 6.283185307179586
2  39 19 11 0.000000000000000 6.283185307179586
2  40 12 9 0.000000000000000 6.283185307179586
0

0101100
+24 17 -24 17 *
Wi

0101100
+23 0 -23 0 -36 6 +22 8 *
Fa
0  0.000000100000000 19 0

0101000
+21 0 *
Ed
 0.000000100000000 1 1 0
1  33 0 0.000000000000000 1.500000000000000
3  41 42CN 20 0 0.000000000000000 1.500000000000000
0

0101000
+34 6 -34 8 *
Wi

0101100
+19 0 -19 0 -33 6 +33 8 *
Fa
0  0.000000100000000 20 0

0101000
+18 0 *
Ve
0.000000100000000
-330.499999999996248 75.499999999942716 1.500000000000000
0 0

0101101
*
Ed
 0.000000100000000 1 1 0
1  34 0 0.000000000000000 1.500000000000000
3  43 44CN 21 0 0.000000000000000 1.500000000000000
0

0101000
+31 14 -16 14 *
Ed
 0.000000100000000 1 1 0
1  35 0 0.000000000000000 6.283185307179586
2  45 21 11 0.000000000000000 6.283185307179586
2  46 12 9 0.000000000000000 6.283185307179586
0

0101100
+16 17 -16 17 *
Wi

0101100
+15 0 -15 0 -30 6 +14 8 *
Fa
0  0.000000100000000 21 0

0101000
+13 0 *
Ed
 0.000000100000000 1 1 0
1  36 0 0.000000000000000 685.999999999959073
0

0101000
+82 12 -48 0 *
Wi

0101000
+76 0 +95 12 +90 12 +85 12 +80 12 +11 0 -45 19 -52 19 -59 19 -66 19 
*
Wi

0101100
-39 12 *
Wi

0101100
+22 19 *
Wi

0101100
-33 12 *
Wi

0101100
+14 19 *
Fa
0  0.000000100000000 22 0

0101000
+10 0 +9 0 +8 0 +7 0 +6 0 *
Wi

0101000
-81 2 -42 0 +47 13 -11 0 *
Fa
0  0.000000100000000 23 0

0101000
+4 0 *
Sh

0101000
-93 2 -88 2 -83 2 -78 2 +71 0 +64 13 +57 13 +50 13 +43 13 +28 0 
+25 2 -20 13 +17 2 -12 13 +5 0 +3 0 *
So

0100000
+2 0 *

+1 1 