
CASCADE Topology V1, (c) Matra-Datavision
Locations 53
1
1.000000000000000 0.000000000000000 0.000000000000000 0.000000000000000 
0.000000000000000 1.000000000000000 0.000000000000000 0.000000000000000 
0.000000000000000 0.000000000000000 1.000000000000000 0.000000000000000 
1
1.000000000000000 0.000000000000000 0.000000000000000 0.000000000000000 
0.000000000000000 1.000000000000000 0.000000000000000 0.000000000000000 
0.000000000000000 0.000000000000000 1.000000000000000 0.000000000000000 
1
1.000000000000000 0.000000000000000 0.000000000000000 0.000000000000000 
0.000000000000000 1.000000000000000 0.000000000000000 0.000000000000000 
0.000000000000000 0.000000000000000 1.000000000000000 0.000000000000000 
1
1.000000000000000 0.000000000000000 0.000000000000000 0.000000000000000 
0.000000000000000 1.000000000000000 0.000000000000000 0.000000000000000 
0.000000000000000 0.000000000000000 1.000000000000000 0.000000000000000 
1
1.000000000000000 0.000000000000000 0.000000000000000 0.000000000000000 
0.000000000000000 1.000000000000000 0.000000000000000 0.000000000000000 
0.000000000000000 0.000000000000000 1.000000000000000 0.000000000000000 
1
1.000000000000000 0.000000000000000 0.000000000000000 0.000000000000000 
0.000000000000000 1.000000000000000 0.000000000000000 0.000000000000000 
0.000000000000000 0.000000000000000 1.000000000000000 0.000000000000000 
1
1.000000000000000 0.000000000000000 0.000000000000000 0.000000000000000 
0.000000000000000 1.000000000000000 0.000000000000000 0.000000000000000 
0.000000000000000 0.000000000000000 1.000000000000000 0.000000000000000 
2  2 1 3 1 4 -1 5 1 6 -1 7 1 0
1
1.000000000000000 0.000000000000000 0.000000000000000 0.000000000000000 
0.000000000000000 1.000000000000000 0.000000000000000 0.000000000000000 
0.000000000000000 0.000000000000000 1.000000000000000 0.000000000000000 
1
1.000000000000000 0.000000000000000 0.000000000000000 0.000000000000000 
0.000000000000000 1.000000000000000 0.000000000000000 0.000000000000000 
0.000000000000000 0.000000000000000 1.000000000000000 0.000000000000000 
1
1.000000000000000 0.000000000000000 0.000000000000000 0.000000000000000 
0.000000000000000 1.000000000000000 0.000000000000000 0.000000000000000 
0.000000000000000 0.000000000000000 1.000000000000000 0.000000000000000 
1
1.000000000000000 0.000000000000000 0.000000000000000 0.000000000000000 
0.000000000000000 1.000000000000000 0.000000000000000 0.000000000000000 
0.000000000000000 0.000000000000000 1.000000000000000 0.000000000000000 
2  10 1 11 1 12 1 2 1 3 1 4 -1 5 1 6 -1 7 1 0
2  12 -1 11 -1 10 -1 0
2  4 1 3 -1 2 -1 12 -1 11 -1 10 -1 0
1
1.000000000000000 0.000000000000000 0.000000000000000 0.000000000000000 
0.000000000000000 1.000000000000000 0.000000000000000 0.000000000000000 
0.000000000000000 0.000000000000000 1.000000000000000 3.000000000000000 
2  16 -1 4 1 3 -1 2 -1 12 -1 11 -1 10 -1 0
2  7 -1 6 1 5 -1 4 1 3 -1 2 -1 12 -1 11 -1 10 -1 0
1
1.000000000000000 0.000000000000000 0.000000000000000 0.000000000000000 
0.000000000000000 1.000000000000000 0.000000000000000 0.000000000000000 
0.000000000000000 0.000000000000000 1.000000000000000 0.000000000000000 
1
1.000000000000000 0.000000000000000 0.000000000000000 0.000000000000000 
0.000000000000000 1.000000000000000 0.000000000000000 0.000000000000000 
0.000000000000000 0.000000000000000 1.000000000000000 0.000000000000000 
2  19 -1 20 -1 10 1 11 1 12 1 2 1 3 1 4 -1 5 1 6 -1 7 1 0
2  9 1 7 -1 6 1 5 -1 4 1 3 -1 2 -1 12 -1 11 -1 10 -1 0
2  9 1 7 -1 6 1 5 -1 16 -1 4 1 3 -1 2 -1 12 -1 11 -1 10 -1 0
2  19 -1 20 -1 0
2  2 1 3 1 4 -1 5 1 6 -1 0
2  7 -1 0
1
1.000000000000000 0.000000000000000 0.000000000000000 0.000000000000000 
0.000000000000000 1.000000000000000 0.000000000000000 0.000000000000000 
0.000000000000000 0.000000000000000 1.000000000000000 0.000000000000000 
2  20 1 27 1 12 1 2 1 3 1 4 -1 5 1 6 -1 7 1 0
2  4 1 3 -1 2 -1 12 -1 27 -1 20 -1 0
2  16 -1 4 1 3 -1 2 -1 12 -1 27 -1 20 -1 0
2  12 -1 27 -1 20 -1 0
2  6 1 5 -1 4 1 3 -1 2 -1 12 -1 27 -1 20 -1 0
2  6 1 5 -1 16 -1 4 1 3 -1 2 -1 12 -1 27 -1 20 -1 0
2  20 1 27 1 12 1 2 1 3 1 4 -1 5 1 6 -1 0
2  2 1 3 1 4 -1 16 1 5 1 6 -1 7 1 0
2  5 1 6 -1 7 1 9 -1 0
2  9 -1 0
2  10 1 11 1 12 1 2 1 3 1 4 -1 16 1 5 1 6 -1 7 1 0
2  7 -1 6 1 5 -1 16 -1 4 1 3 -1 2 -1 12 -1 11 -1 10 -1 0
2  19 -1 20 -1 10 1 11 1 12 1 2 1 3 1 4 -1 16 1 5 1 6 -1 7 1 0
2  2 1 3 1 4 -1 16 1 5 1 6 -1 0
2  20 1 27 1 12 1 2 1 3 1 4 -1 16 1 5 1 6 -1 7 1 0
2  20 1 27 1 12 1 2 1 3 1 4 -1 16 1 5 1 6 -1 0
2  5 1 6 -1 7 1 0
2  9 1 7 -1 6 1 5 -1 0
2  19 -1 20 -1 10 1 11 1 12 1 2 1 3 1 4 -1 0
2  19 -1 20 -1 10 1 11 1 12 1 2 1 3 1 4 -1 16 1 0
2  10 1 11 1 12 1 2 1 3 1 4 -1 0
2  10 1 11 1 12 1 2 1 3 1 4 -1 16 1 0
2  5 1 6 -1 0
2  6 1 5 -1 0
2  20 1 27 1 12 1 2 1 3 1 4 -1 0
2  20 1 27 1 12 1 2 1 3 1 4 -1 16 1 0
Curve2ds 144
2 -11.50000000000001421 -171.28895327222232936 -1.00000000000000000 0.00000000000000000 -0.00000000000000000 -1.00000000000000000 4.75240109625286333
1 6.28318530717958623 -362.25451715559307786 -1.00000000000000000 0.00000000000000000 
1 -14.50000000000000888 -176.04135436847519713 -0.43011493385387412 0.90277413768665171 
1 0.00000000000000000 0.00000000000000000 1.00000000000000000 0.00000000000000000 
1 0.00000000000000000 -3.00000000000000000 1.00000000000000000 0.00000000000000000 
2 -31.60000000000005471 -116.90033006941234817 -1.00000000000000000 0.00000000000000000 -0.00000000000000000 -1.00000000000000000 10.00000000000000000
1 12.56637061435917246 -362.25451715559307786 -1.00000000000000000 0.00000000000000000 
1 -41.60000000000000142 -119.16079244030001405 0.00000000000000000 1.00000000000000000 
1 0.00000000000000000 0.00000000000000000 1.00000000000000000 0.00000000000000000 
1 0.00000000000000000 -3.00000000000000000 1.00000000000000000 0.00000000000000000 
2 -38.60000000000000142 143.61630091377932672 -1.00000000000000000 0.00000000000000000 -0.00000000000000000 -1.00000000000000000 3.00000000000000000
1 6.28318530717958623 -362.25451715559307786 -1.00000000000000000 0.00000000000000000 
1 -41.60000000000000142 145.34835172134819459 0.86602540378443837 0.50000000000000044 
1 0.00000000000000000 0.00000000000000000 1.00000000000000000 0.00000000000000000 
1 0.00000000000000000 -3.00000000000000000 1.00000000000000000 0.00000000000000000 
2 -16.88564064605490600 159.61719374719766051 -1.00000000000000000 0.00000000000000000 -0.00000000000000000 -1.00000000000000000 1.59999999999991460
1 6.28318530717958623 -362.25451715559307786 -1.00000000000000000 0.00000000000000000 
1 -15.49999999999999822 160.41719374719744451 -0.50000000000000000 0.86602540378443871 
1 0.00000000000000000 0.00000000000000000 1.00000000000000000 0.00000000000000000 
1 0.00000000000000000 -3.00000000000000000 1.00000000000000000 0.00000000000000000 
1 -0.00000000000002905 -362.25451715559307786 1.00000000000000000 0.00000000000000000 
1 -0.00000000000002905 -359.25451715559307786 1.00000000000000000 0.00000000000000000 
1 0.00000000000000000 0.00000000000000000 1.00000000000000000 0.00000000000000000 
1 0.00000000000000000 -3.00000000000000000 1.00000000000000000 0.00000000000000000 
1 -17.00000000000000000 163.01526995855076052 0.86602540378443860 0.50000000000000022 
2 0.00000000000000124 169.36612291963663779 -1.00000000000000000 0.00000000000000000 -0.00000000000000000 -1.00000000000000000 3.00000000000000000
1 6.28318530717958623 -362.25451715559307786 -1.00000000000000000 0.00000000000000000 
1 6.28318530717958623 -362.25451715559307786 -1.00000000000000000 0.00000000000000000 
2 0.00000000000000124 169.36612291963663779 1.00000000000000000 0.00000000000000000 -0.00000000000000000 1.00000000000000000 3.00000000000000000
1 0.00000000000000000 -362.25451715559307786 1.00000000000000000 0.00000000000000000 
1 3.14159265358979312 -362.25451715559307786 -1.00000000000000000 0.00000000000000000 
1 0.00000000000000000 0.00000000000000000 1.00000000000000000 0.00000000000000000 
1 0.00000000000000000 -3.00000000000000000 1.00000000000000000 0.00000000000000000 
1 17.00000000000000000 163.01526995855076052 -0.86602540378443860 0.50000000000000022 
1 0.00000000000000000 0.00000000000000000 1.00000000000000000 0.00000000000000000 
1 0.00000000000000000 -3.00000000000000000 1.00000000000000000 0.00000000000000000 
1 15.50000000000000178 160.41719374719744451 0.50000000000000000 0.86602540378443871 
1 -0.00000000000002905 -362.25451715559307786 1.00000000000000000 0.00000000000000000 
1 -0.00000000000002905 -359.25451715559307786 1.00000000000000000 0.00000000000000000 
2 16.88564064605490600 159.61719374719766051 1.00000000000000000 0.00000000000000000 -0.00000000000000000 1.00000000000000000 1.59999999999991460
1 0.00000000000000000 -362.25451715559307786 1.00000000000000000 0.00000000000000000 
1 0.00000000000000000 0.00000000000000000 1.00000000000000000 0.00000000000000000 
1 0.00000000000000000 -3.00000000000000000 1.00000000000000000 0.00000000000000000 
1 41.60000000000000142 145.34835172134819459 -0.86602540378443837 0.50000000000000044 
2 38.60000000000000142 143.61630091377932672 1.00000000000000000 0.00000000000000000 -0.00000000000000000 1.00000000000000000 3.00000000000000000
1 0.00000000000000000 -362.25451715559307786 1.00000000000000000 0.00000000000000000 
1 0.00000000000000000 0.00000000000000000 1.00000000000000000 0.00000000000000000 
1 0.00000000000000000 -3.00000000000000000 1.00000000000000000 0.00000000000000000 
1 41.60000000000000142 -119.16079244030001405 0.00000000000000000 1.00000000000000000 
2 31.60000000000005471 -116.90033006941234817 1.00000000000000000 0.00000000000000000 -0.00000000000000000 1.00000000000000000 10.00000000000000000
1 0.00000000000000000 -362.25451715559307786 1.00000000000000000 0.00000000000000000 
1 0.00000000000000000 0.00000000000000000 1.00000000000000000 0.00000000000000000 
1 0.00000000000000000 -3.00000000000000000 1.00000000000000000 0.00000000000000000 
1 14.50000000000001243 -176.04135436847519713 0.43011493385387412 0.90277413768665171 
2 11.50000000000001776 -171.28895327222232936 1.00000000000000000 0.00000000000000000 -0.00000000000000000 1.00000000000000000 4.75240109625286333
1 0.00000000000000000 -362.25451715559307786 1.00000000000000000 0.00000000000000000 
1 0.00000000000000124 -176.04135436847519713 1.00000000000000000 0.00000000000000000 
2 -11.50000000000001421 -171.28895327222232936 -1.00000000000000000 0.00000000000000000 -0.00000000000000000 -1.00000000000000000 4.75240109625286333
1 6.28318530717958623 -359.25451715559307786 -1.00000000000000000 0.00000000000000000 
1 5.83855957305824536 0.00000000000000000 0.00000000000000000 -1.00000000000000000 
1 2.99997315284715249 0.00000000000000000 0.00000000000000000 -1.00000000000000000 
1 2.99997315284715338 -362.25451715559307786 0.00000000000000000 1.00000000000000000 
1 4.71238898038468879 0.00000000000000000 0.00000000000000000 -1.00000000000000000 
1 -0.00000000000000000 0.00000000000000000 0.00000000000000000 -1.00000000000000000 
1 11.50000000000001066 -362.25451715559307786 -0.00000000000000000 1.00000000000000000 
1 0.00000000000000124 -176.04135436847519713 -1.00000000000000000 0.00000000000000000 
2 -31.60000000000005471 -116.90033006941234817 -1.00000000000000000 0.00000000000000000 -0.00000000000000000 -1.00000000000000000 10.00000000000000000
1 12.56637061435917246 -359.25451715559307786 -1.00000000000000000 0.00000000000000000 
2 -38.60000000000000142 143.61630091377932672 -1.00000000000000000 0.00000000000000000 -0.00000000000000000 -1.00000000000000000 3.00000000000000000
1 6.28318530717958623 -359.25451715559307786 -1.00000000000000000 0.00000000000000000 
2 -16.88564064605490600 159.61719374719766051 -1.00000000000000000 0.00000000000000000 -0.00000000000000000 -1.00000000000000000 1.59999999999991460
1 6.28318530717958623 -359.25451715559307786 -1.00000000000000000 0.00000000000000000 
2 0.00000000000000124 169.36612291963663779 -1.00000000000000000 0.00000000000000000 -0.00000000000000000 -1.00000000000000000 3.00000000000000000
1 6.28318530717958623 -359.25451715559307786 -1.00000000000000000 0.00000000000000000 
1 6.28318530717958623 -359.25451715559307786 -1.00000000000000000 0.00000000000000000 
2 0.00000000000000124 169.36612291963663779 1.00000000000000000 0.00000000000000000 -0.00000000000000000 1.00000000000000000 3.00000000000000000
1 0.00000000000000000 -359.25451715559307786 1.00000000000000000 0.00000000000000000 
1 3.14159265358979312 -359.25451715559307786 -1.00000000000000000 0.00000000000000000 
2 16.88564064605490600 159.61719374719766051 1.00000000000000000 0.00000000000000000 -0.00000000000000000 1.00000000000000000 1.59999999999991460
1 0.00000000000000000 -359.25451715559307786 1.00000000000000000 0.00000000000000000 
2 38.60000000000000142 143.61630091377932672 1.00000000000000000 0.00000000000000000 -0.00000000000000000 1.00000000000000000 3.00000000000000000
1 0.00000000000000000 -359.25451715559307786 1.00000000000000000 0.00000000000000000 
2 31.60000000000005471 -116.90033006941234817 1.00000000000000000 0.00000000000000000 -0.00000000000000000 1.00000000000000000 10.00000000000000000
1 0.00000000000000000 -359.25451715559307786 1.00000000000000000 0.00000000000000000 
2 11.50000000000001776 -171.28895327222232936 1.00000000000000000 0.00000000000000000 -0.00000000000000000 1.00000000000000000 4.75240109625286333
1 0.00000000000000000 -359.25451715559307786 1.00000000000000000 0.00000000000000000 
1 5.83856522224514585 0.00000000000000000 0.00000000000000000 -1.00000000000000000 
1 0.00000000000000000 0.00000000000000000 0.00000000000000000 -1.00000000000000000 
1 60.74595258239305906 -362.25451715559307786 0.00000000000000000 1.00000000000000000 
1 6.28318788833327435 0.00000000000000000 0.00000000000000000 -1.00000000000000000 
1 2.26048818242455241 0.00000000000000000 0.00000000000000000 -1.00000000000000000 
1 2.26048818242455241 -362.25451715559307786 0.00000000000000000 1.00000000000000000 
1 -0.00000000000000355 0.00000000000000000 0.00000000000000000 -1.00000000000000000 
1 0.00000000000000000 0.00000000000000000 0.00000000000000000 -1.00000000000000000 
1 262.77709335407934077 -362.25451715559307786 0.00000000000000000 1.00000000000000000 
1 1.04719755119659563 0.00000000000000000 0.00000000000000000 -1.00000000000000000 
1 1.73205080756887586 0.00000000000000000 0.00000000000000000 -1.00000000000000000 
1 1.73205080756888208 -362.25451715559307786 0.00000000000000000 1.00000000000000000 
1 5.75958653158127465 0.00000000000000000 0.00000000000000000 -1.00000000000000000 
1 3.00665927567398361 0.00000000000000000 0.00000000000000000 -1.00000000000000000 
1 26.93768405169883451 -362.25451715559307786 0.00000000000000000 1.00000000000000000 
1 30.13768405169847497 0.00000000000000000 0.00000000000000000 -1.00000000000000000 
1 0.00000000000000000 0.00000000000000000 0.00000000000000000 -1.00000000000000000 
8 0.00000000000000000 3.00000000000000000
1 2.61799387799154060 -362.25451715559307786 -0.00000000000000000 1.00000000000000000 
1 -0.00000000000002905 -362.25451715559307786 0.00000000000000000 1.00000000000000000 
1 0.00000000000000000 0.00000000000000000 0.00000000000000000 -1.00000000000000000 
1 3.00000000000000000 0.00000000000000000 0.00000000000000000 -1.00000000000000000 
1 2.99999999999999423 -362.25451715559307786 0.00000000000000000 1.00000000000000000 
1 1.04719755119659585 0.00000000000000000 0.00000000000000000 -1.00000000000000000 
1 0.00000000000000000 0.00000000000000000 0.00000000000000000 -1.00000000000000000 
1 17.89785834487839011 -362.25451715559307786 0.00000000000000000 1.00000000000000000 
1 1.04719755119659630 0.00000000000000000 0.00000000000000000 -1.00000000000000000 
1 1.04719755119659585 0.00000000000000000 0.00000000000000000 -1.00000000000000000 
1 0.00000000000000000 0.00000000000000000 0.00000000000000000 -1.00000000000000000 
1 17.89785834487839011 -362.25451715559307786 0.00000000000000000 1.00000000000000000 
1 2.09439510239319704 0.00000000000000000 0.00000000000000000 -1.00000000000000000 
1 0.00000000000000000 0.00000000000000000 0.00000000000000000 -1.00000000000000000 
1 3.00000000000000000 0.00000000000000000 0.00000000000000000 -1.00000000000000000 
1 2.99999999999999423 -362.25451715559307786 0.00000000000000000 1.00000000000000000 
1 0.00000000000000000 0.00000000000000000 0.00000000000000000 -1.00000000000000000 
1 30.13768405169847497 0.00000000000000000 0.00000000000000000 -1.00000000000000000 
8 0.00000000000000000 3.00000000000000000
1 2.61799387799154060 -362.25451715559307786 -0.00000000000000000 1.00000000000000000 
1 -0.00000000000002905 -362.25451715559307786 0.00000000000000000 1.00000000000000000 
1 5.75958653158127465 0.00000000000000000 0.00000000000000000 -1.00000000000000000 
1 3.00665927567398361 0.00000000000000000 0.00000000000000000 -1.00000000000000000 
1 26.93768405169883451 -362.25451715559307786 0.00000000000000000 1.00000000000000000 
1 1.04719755119659563 0.00000000000000000 0.00000000000000000 -1.00000000000000000 
1 1.73205080756887586 0.00000000000000000 0.00000000000000000 -1.00000000000000000 
1 1.73205080756888208 -362.25451715559307786 0.00000000000000000 1.00000000000000000 
1 -0.00000000000000355 0.00000000000000000 0.00000000000000000 -1.00000000000000000 
1 0.00000000000000000 0.00000000000000000 0.00000000000000000 -1.00000000000000000 
1 262.77709335407934077 -362.25451715559307786 0.00000000000000000 1.00000000000000000 
1 6.28318788833327435 0.00000000000000000 0.00000000000000000 -1.00000000000000000 
1 2.26048818242455241 0.00000000000000000 0.00000000000000000 -1.00000000000000000 
1 2.26048818242455241 -362.25451715559307786 0.00000000000000000 1.00000000000000000 
1 5.83856522224514585 0.00000000000000000 0.00000000000000000 -1.00000000000000000 
1 0.00000000000000000 0.00000000000000000 0.00000000000000000 -1.00000000000000000 
1 60.74595258239305906 -362.25451715559307786 0.00000000000000000 1.00000000000000000 
1 5.83855957305824536 0.00000000000000000 0.00000000000000000 -1.00000000000000000 
1 2.99997315284715249 0.00000000000000000 0.00000000000000000 -1.00000000000000000 
1 2.99997315284715338 -362.25451715559307786 0.00000000000000000 1.00000000000000000 
1 4.71238898038468879 0.00000000000000000 0.00000000000000000 -1.00000000000000000 
1 0.00000000000000000 0.00000000000000000 0.00000000000000000 -1.00000000000000000 
1 11.50000000000001066 -362.25451715559307786 0.00000000000000000 1.00000000000000000 
Curves 52
2 -11.50000000000001599 -162.74759890374713223 0.00000000000000000 0.00000000000000000 0.00000000000000000 1.00000000000000000 -1.00000000000000000 0.00000000000000000 0.00000000000000000 0.00000000000000000 -1.00000000000000000 0.00000000000000000 4.75240109625286333
1 -14.50000000000001066 -167.50000000000000000 0.00000000000000000 -0.43011493385387412 0.90277413768665171 -0.00000000000000000 
2 -31.60000000000005471 -108.35897570093715103 0.00000000000000000 0.00000000000000000 0.00000000000000000 1.00000000000000000 -1.00000000000000000 0.00000000000000000 0.00000000000000000 0.00000000000000000 -1.00000000000000000 0.00000000000000000 10.00000000000000000
1 -41.60000000000000142 -110.61943807182483113 0.00000000000000000 -0.00000000000000000 1.00000000000000000 -0.00000000000000000 
2 -38.60000000000000142 152.15765528225452385 0.00000000000000000 0.00000000000000000 0.00000000000000000 1.00000000000000000 -1.00000000000000000 0.00000000000000000 0.00000000000000000 0.00000000000000000 -1.00000000000000000 0.00000000000000000 3.00000000000000000
1 -41.60000000000000142 153.88970608982339172 0.00000000000000000 0.86602540378443837 0.50000000000000044 -0.00000000000000000 
2 -16.88564064605490600 168.15854811567285765 0.00000000000000000 0.00000000000000000 0.00000000000000000 1.00000000000000000 -1.00000000000000000 0.00000000000000000 0.00000000000000000 0.00000000000000000 -1.00000000000000000 0.00000000000000000 1.59999999999991460
1 -15.50000000000000000 168.95854811567264164 0.00000000000000000 -0.50000000000000000 0.86602540378443871 -0.00000000000000000 
1 -17.00000000000000000 171.55662432702595765 0.00000000000000000 0.86602540378443860 0.50000000000000022 -0.00000000000000000 
2 0.00000000000000000 177.90747728811183492 0.00000000000000000 0.00000000000000000 0.00000000000000000 1.00000000000000000 -1.00000000000000000 0.00000000000000000 0.00000000000000000 0.00000000000000000 -1.00000000000000000 0.00000000000000000 3.00000000000000000
2 0.00000000000000000 177.90747728811183492 0.00000000000000000 0.00000000000000000 0.00000000000000000 1.00000000000000000 1.00000000000000000 0.00000000000000000 -0.00000000000000000 -0.00000000000000000 1.00000000000000000 0.00000000000000000 3.00000000000000000
1 17.00000000000000000 171.55662432702595765 0.00000000000000000 -0.86602540378443849 0.50000000000000011 0.00000000000000000 
1 15.50000000000000000 168.95854811567264164 0.00000000000000000 0.50000000000000000 0.86602540378443871 0.00000000000000000 
2 16.88564064605490600 168.15854811567285765 0.00000000000000000 0.00000000000000000 0.00000000000000000 1.00000000000000000 1.00000000000000000 0.00000000000000000 -0.00000000000000000 -0.00000000000000000 1.00000000000000000 0.00000000000000000 1.59999999999991460
1 41.60000000000000142 153.88970608982339172 0.00000000000000000 -0.86602540378443837 0.50000000000000044 0.00000000000000000 
2 38.60000000000000142 152.15765528225452385 0.00000000000000000 0.00000000000000000 0.00000000000000000 1.00000000000000000 1.00000000000000000 0.00000000000000000 -0.00000000000000000 -0.00000000000000000 1.00000000000000000 0.00000000000000000 3.00000000000000000
1 41.60000000000000142 -110.61943807182483113 0.00000000000000000 0.00000000000000000 1.00000000000000000 0.00000000000000000 
2 31.60000000000005471 -108.35897570093715103 0.00000000000000000 0.00000000000000000 0.00000000000000000 1.00000000000000000 1.00000000000000000 0.00000000000000000 -0.00000000000000000 -0.00000000000000000 1.00000000000000000 0.00000000000000000 10.00000000000000000
1 14.50000000000001066 -167.50000000000000000 0.00000000000000000 0.43011493385387412 0.90277413768665171 0.00000000000000000 
2 11.50000000000001599 -162.74759890374713223 0.00000000000000000 0.00000000000000000 0.00000000000000000 1.00000000000000000 1.00000000000000000 0.00000000000000000 -0.00000000000000000 -0.00000000000000000 1.00000000000000000 0.00000000000000000 4.75240109625286333
1 0.00000000000000000 -167.50000000000000000 0.00000000000000000 1.00000000000000000 0.00000000000000000 0.00000000000000000 
2 -11.50000000000001599 -162.74759890374713223 3.00000000000000000 0.00000000000000000 0.00000000000000000 1.00000000000000000 -1.00000000000000000 0.00000000000000000 0.00000000000000000 0.00000000000000000 -1.00000000000000000 0.00000000000000000 4.75240109625286333
1 -15.79033325415981537 -164.79170182383603560 362.25451715559307786 0.00000000000000000 -0.00000000000000000 -1.00000000000000000 
1 -11.50000000000001066 -167.50000000000000000 362.25451715559307786 0.00000000000000000 -0.00000000000000000 -1.00000000000000000 
1 0.00000000000000000 -167.50000000000000000 3.00000000000000000 -1.00000000000000000 -0.00000000000000000 -0.00000000000000000 
2 -31.60000000000005471 -108.35897570093715103 3.00000000000000000 0.00000000000000000 0.00000000000000000 1.00000000000000000 -1.00000000000000000 0.00000000000000000 0.00000000000000000 0.00000000000000000 -1.00000000000000000 0.00000000000000000 10.00000000000000000
2 -38.60000000000000142 152.15765528225452385 3.00000000000000000 0.00000000000000000 0.00000000000000000 1.00000000000000000 -1.00000000000000000 0.00000000000000000 0.00000000000000000 0.00000000000000000 -1.00000000000000000 0.00000000000000000 3.00000000000000000
2 -16.88564064605490600 168.15854811567285765 3.00000000000000000 0.00000000000000000 0.00000000000000000 1.00000000000000000 -1.00000000000000000 0.00000000000000000 0.00000000000000000 0.00000000000000000 -1.00000000000000000 0.00000000000000000 1.59999999999991460
2 0.00000000000000000 177.90747728811183492 3.00000000000000000 0.00000000000000000 0.00000000000000000 1.00000000000000000 -1.00000000000000000 0.00000000000000000 0.00000000000000000 0.00000000000000000 -1.00000000000000000 0.00000000000000000 3.00000000000000000
2 0.00000000000000000 177.90747728811183492 3.00000000000000000 0.00000000000000000 0.00000000000000000 1.00000000000000000 1.00000000000000000 0.00000000000000000 -0.00000000000000000 -0.00000000000000000 1.00000000000000000 0.00000000000000000 3.00000000000000000
2 16.88564064605490600 168.15854811567285765 3.00000000000000000 0.00000000000000000 0.00000000000000000 1.00000000000000000 1.00000000000000000 0.00000000000000000 -0.00000000000000000 -0.00000000000000000 1.00000000000000000 0.00000000000000000 1.59999999999991460
2 38.60000000000000142 152.15765528225452385 3.00000000000000000 0.00000000000000000 0.00000000000000000 1.00000000000000000 1.00000000000000000 0.00000000000000000 -0.00000000000000000 -0.00000000000000000 1.00000000000000000 0.00000000000000000 3.00000000000000000
2 31.60000000000005471 -108.35897570093715103 3.00000000000000000 0.00000000000000000 0.00000000000000000 1.00000000000000000 1.00000000000000000 0.00000000000000000 -0.00000000000000000 -0.00000000000000000 1.00000000000000000 0.00000000000000000 10.00000000000000000
2 11.50000000000001599 -162.74759890374713223 3.00000000000000000 0.00000000000000000 0.00000000000000000 1.00000000000000000 1.00000000000000000 0.00000000000000000 -0.00000000000000000 -0.00000000000000000 1.00000000000000000 0.00000000000000000 4.75240109625286333
1 -40.62774137686658094 -112.66012503947587220 362.25451715559307786 0.00000000000000000 -0.00000000000000000 -1.00000000000000000 
1 -41.59999999996674092 -108.35894988940027872 362.25451715559307786 0.00000000000000000 -0.00000000000000000 -1.00000000000000000 
1 -41.60000000000000142 152.15765528225452385 362.25451715559307786 0.00000000000000000 -0.00000000000000000 -1.00000000000000000 
1 -40.10000000000000853 154.75573149360783987 362.25451715559307786 0.00000000000000000 -0.00000000000000000 -1.00000000000000000 
1 -18.27128129210992213 167.35854811567287470 362.25451715559307786 0.00000000000000000 -0.00000000000000000 -1.00000000000000000 
1 -15.50000000000000000 168.95854811567264164 0.00000000000000000 0.00000000000000000 0.00000000000000000 1.00000000000000000 
1 -17.00000000000000000 171.55662432702595765 0.00000000000000000 0.00000000000000000 0.00000000000000000 1.00000000000000000 
1 -1.50000000000000488 180.50555349946515094 362.25451715559307786 0.00000000000000000 -0.00000000000000000 -1.00000000000000000 
1 1.50000000000000488 180.50555349946515094 362.25451715559307786 -0.00000000000000000 -0.00000000000000000 -1.00000000000000000 
1 17.00000000000000000 171.55662432702595765 0.00000000000000000 0.00000000000000000 0.00000000000000000 1.00000000000000000 
1 15.50000000000000000 168.95854811567264164 0.00000000000000000 0.00000000000000000 0.00000000000000000 1.00000000000000000 
1 18.27128129210992213 167.35854811567287470 362.25451715559307786 -0.00000000000000000 -0.00000000000000000 -1.00000000000000000 
1 40.10000000000000853 154.75573149360783987 362.25451715559307786 -0.00000000000000000 -0.00000000000000000 -1.00000000000000000 
1 41.60000000000000142 152.15765528225452385 362.25451715559307786 -0.00000000000000000 -0.00000000000000000 -1.00000000000000000 
1 41.59999999996674092 -108.35894988940027872 362.25451715559307786 -0.00000000000000000 -0.00000000000000000 -1.00000000000000000 
1 40.62774137686658094 -112.66012503947587220 362.25451715559307786 -0.00000000000000000 -0.00000000000000000 -1.00000000000000000 
1 15.79033325415981537 -164.79170182383603560 362.25451715559307786 -0.00000000000000000 -0.00000000000000000 -1.00000000000000000 
1 11.50000000000001066 -167.50000000000000000 362.25451715559307786 -0.00000000000000000 -0.00000000000000000 -1.00000000000000000 
Polygon3D 0
PolygonOnTriangulations 0
Surfaces 43
1 -0.00000000000000124 8.54135436847519003 0.00000000000000000 0.00000000000000000 0.00000000000000000 1.00000000000000000 1.00000000000000000 0.00000000000000000 -0.00000000000000000 -0.00000000000000000 1.00000000000000000 0.00000000000000000 
2 -11.50000000000001599 -162.74759890374713223 362.25451715559307786 -0.00000000000000000 -0.00000000000000000 1.00000000000000000 -1.00000000000000000 0.00000000000000000 -0.00000000000000000 -0.00000000000000000 1.00000000000000000 0.00000000000000000 4.75240109625286333
1 -14.50000000000001066 -167.50000000000000000 0.00000000000000000 -0.90277413768665171 -0.43011493385387412 0.00000000000000000 -0.43011493385387412 0.90277413768665171 0.00000000000000000 -0.00000000000000000 0.00000000000000000 -1.00000000000000000 
2 -31.60000000000005471 -108.35897570093715103 362.25451715559307786 -0.00000000000000000 -0.00000000000000000 1.00000000000000000 -1.00000000000000000 0.00000000000000000 -0.00000000000000000 -0.00000000000000000 1.00000000000000000 0.00000000000000000 10.00000000000000000
1 -41.60000000000000142 -110.61943807182483113 0.00000000000000000 -1.00000000000000000 0.00000000000000000 0.00000000000000000 0.00000000000000000 1.00000000000000000 0.00000000000000000 0.00000000000000000 0.00000000000000000 -1.00000000000000000 
2 -38.60000000000000142 152.15765528225452385 362.25451715559307786 -0.00000000000000000 -0.00000000000000000 1.00000000000000000 -1.00000000000000000 0.00000000000000000 -0.00000000000000000 -0.00000000000000000 1.00000000000000000 0.00000000000000000 3.00000000000000000
1 -41.60000000000000142 153.88970608982339172 0.00000000000000000 -0.50000000000000044 0.86602540378443837 0.00000000000000000 0.86602540378443837 0.50000000000000044 0.00000000000000000 0.00000000000000000 0.00000000000000000 -1.00000000000000000 
2 -16.88564064605490600 168.15854811567285765 362.25451715559307786 -0.00000000000000000 -0.00000000000000000 1.00000000000000000 -1.00000000000000000 0.00000000000000000 -0.00000000000000000 -0.00000000000000000 1.00000000000000000 0.00000000000000000 1.59999999999991460
1 -15.50000000000000000 168.95854811567264164 0.00000000000000000 -0.86602540378443871 -0.50000000000000000 0.00000000000000000 -0.50000000000000000 0.86602540378443871 0.00000000000000000 -0.00000000000000000 0.00000000000000000 -1.00000000000000000 
1 -15.49999999999984013 168.95854811567275533 362.25451715559307786 -0.86602540378440163 -0.50000000000006428 -0.00000000000000000 -0.50000000000006428 0.86602540378440163 -0.00000000000000000 -0.00000000000000000 -0.00000000000000000 1.00000000000000000 
1 -17.00000000000000000 171.55662432702595765 0.00000000000000000 -0.50000000000000022 0.86602540378443860 0.00000000000000000 0.86602540378443860 0.50000000000000022 0.00000000000000000 0.00000000000000000 0.00000000000000000 -1.00000000000000000 
2 0.00000000000000000 177.90747728811183492 362.25451715559307786 -0.00000000000000000 -0.00000000000000000 1.00000000000000000 -1.00000000000000000 0.00000000000000000 -0.00000000000000000 -0.00000000000000000 1.00000000000000000 0.00000000000000000 3.00000000000000000
2 0.00000000000000000 177.90747728811183492 362.25451715559307786 0.00000000000000000 0.00000000000000000 1.00000000000000000 -1.00000000000000000 0.00000000000000000 0.00000000000000000 -0.00000000000000000 1.00000000000000000 -0.00000000000000000 3.00000000000000000
2 0.00000000000000000 177.90747728811183492 362.25451715559307786 0.00000000000000000 0.00000000000000000 1.00000000000000000 1.00000000000000000 0.00000000000000000 -0.00000000000000000 -0.00000000000000000 1.00000000000000000 0.00000000000000000 3.00000000000000000
1 17.00000000000000000 171.55662432702595765 0.00000000000000000 -0.50000000000000022 -0.86602540378443860 0.00000000000000000 -0.86602540378443860 0.50000000000000022 0.00000000000000000 -0.00000000000000000 0.00000000000000000 -1.00000000000000000 
1 15.50000000000000000 168.95854811567264164 0.00000000000000000 -0.86602540378443871 0.50000000000000000 0.00000000000000000 0.50000000000000000 0.86602540378443871 0.00000000000000000 0.00000000000000000 0.00000000000000000 -1.00000000000000000 
1 15.49999999999984013 168.95854811567275533 362.25451715559307786 0.86602540378440163 -0.50000000000006428 0.00000000000000000 0.50000000000006428 0.86602540378440163 0.00000000000000000 -0.00000000000000000 0.00000000000000000 1.00000000000000000 
2 16.88564064605490600 168.15854811567285765 362.25451715559307786 0.00000000000000000 0.00000000000000000 1.00000000000000000 1.00000000000000000 0.00000000000000000 -0.00000000000000000 -0.00000000000000000 1.00000000000000000 0.00000000000000000 1.59999999999991460
1 41.60000000000000142 153.88970608982339172 0.00000000000000000 -0.50000000000000044 -0.86602540378443837 0.00000000000000000 -0.86602540378443837 0.50000000000000044 0.00000000000000000 -0.00000000000000000 0.00000000000000000 -1.00000000000000000 
2 38.60000000000000142 152.15765528225452385 362.25451715559307786 0.00000000000000000 0.00000000000000000 1.00000000000000000 1.00000000000000000 0.00000000000000000 -0.00000000000000000 -0.00000000000000000 1.00000000000000000 0.00000000000000000 3.00000000000000000
1 41.60000000000000142 -110.61943807182483113 0.00000000000000000 -1.00000000000000000 0.00000000000000000 0.00000000000000000 0.00000000000000000 1.00000000000000000 0.00000000000000000 0.00000000000000000 0.00000000000000000 -1.00000000000000000 
2 31.60000000000005471 -108.35897570093715103 362.25451715559307786 0.00000000000000000 0.00000000000000000 1.00000000000000000 1.00000000000000000 0.00000000000000000 -0.00000000000000000 -0.00000000000000000 1.00000000000000000 0.00000000000000000 10.00000000000000000
1 14.50000000000001066 -167.50000000000000000 0.00000000000000000 -0.90277413768665171 0.43011493385387412 0.00000000000000000 0.43011493385387412 0.90277413768665171 0.00000000000000000 0.00000000000000000 0.00000000000000000 -1.00000000000000000 
2 11.50000000000001599 -162.74759890374713223 362.25451715559307786 0.00000000000000000 0.00000000000000000 1.00000000000000000 1.00000000000000000 0.00000000000000000 -0.00000000000000000 -0.00000000000000000 1.00000000000000000 0.00000000000000000 4.75240109625286333
1 -14.50000000000001066 -167.50000000000000000 362.25451715559307786 -0.90277413769307513 -0.43011493384039179 -0.00000000000000000 -0.43011493384039179 0.90277413769307513 -0.00000000000000000 -0.00000000000000000 -0.00000000000000000 1.00000000000000000 
1 -11.50000000000001066 -167.50000000000000000 362.25451715559307786 -0.00000000000000000 -1.00000000000000000 -0.00000000000000000 -1.00000000000000000 0.00000000000000000 0.00000000000000000 -0.00000000000000000 -0.00000000000000000 1.00000000000000000 
1 0.00000000000000000 -167.50000000000000000 0.00000000000000000 0.00000000000000000 -1.00000000000000000 0.00000000000000000 -1.00000000000000000 0.00000000000000000 0.00000000000000000 -0.00000000000000000 -0.00000000000000000 -1.00000000000000000 
1 -40.62774137686658094 -112.66012503947587220 362.25451715559307786 -0.90277413769236614 -0.43011493384187993 -0.00000000000000000 -0.43011493384187993 0.90277413769236614 -0.00000000000000000 -0.00000000000000000 -0.00000000000000000 1.00000000000000000 
1 -41.59999999996674092 -110.61943807182483113 362.25451715559307786 -1.00000000000000000 -0.00000000000000000 -0.00000000000000000 0.00000000000000000 1.00000000000000000 -0.00000000000000000 -0.00000000000000000 0.00000000000000000 1.00000000000000000 
1 -41.60000000000000142 152.15765528225452385 362.25451715559307786 -1.00000000000000000 -0.00000000000000000 -0.00000000000000000 0.00000000000000000 1.00000000000000000 -0.00000000000000000 -0.00000000000000000 0.00000000000000000 1.00000000000000000 
1 -41.60000000000000142 153.88970608982339172 362.25451715559307786 -0.50000000000000588 0.86602540378443527 -0.00000000000000000 0.86602540378443527 0.50000000000000588 -0.00000000000000000 -0.00000000000000000 0.00000000000000000 1.00000000000000000 
1 -19.59807621135244204 170.05662432702581555 362.25451715559307786 0.89736679948483034 0.44128542598000259 -0.00000000000000000 0.44128542598000259 -0.89736679948483034 0.00000000000000000 -0.00000000000000000 0.00000000000000000 1.00000000000000000 
1 -1.50000000000000488 180.50555349946515094 362.25451715559307786 -0.50000000000000377 0.86602540378443649 -0.00000000000000000 0.86602540378443649 0.50000000000000377 -0.00000000000000000 -0.00000000000000000 0.00000000000000000 1.00000000000000000 
1 1.50000000000000488 180.50555349946515094 362.25451715559307786 0.50000000000000377 0.86602540378443649 -0.00000000000000000 -0.86602540378443649 0.50000000000000377 0.00000000000000000 0.00000000000000000 0.00000000000000000 1.00000000000000000 
1 19.59807621135244204 170.05662432702581555 362.25451715559307786 -0.89736679948483034 0.44128542598000259 0.00000000000000000 -0.44128542598000259 -0.89736679948483034 0.00000000000000000 0.00000000000000000 0.00000000000000000 1.00000000000000000 
1 41.60000000000000142 153.88970608982339172 362.25451715559307786 0.50000000000000588 0.86602540378443527 -0.00000000000000000 -0.86602540378443527 0.50000000000000588 0.00000000000000000 0.00000000000000000 0.00000000000000000 1.00000000000000000 
1 41.60000000000000142 152.15765528225452385 362.25451715559307786 1.00000000000000000 0.00000000000000000 0.00000000000000000 -0.00000000000000000 1.00000000000000000 0.00000000000000000 0.00000000000000000 -0.00000000000000000 1.00000000000000000 
1 41.59999999996674092 -110.61943807182483113 362.25451715559307786 1.00000000000000000 0.00000000000000000 0.00000000000000000 -0.00000000000000000 1.00000000000000000 0.00000000000000000 0.00000000000000000 -0.00000000000000000 1.00000000000000000 
1 40.62774137686658094 -112.66012503947587220 362.25451715559307786 0.90277413769236614 -0.43011493384187993 0.00000000000000000 0.43011493384187993 0.90277413769236614 0.00000000000000000 -0.00000000000000000 0.00000000000000000 1.00000000000000000 
1 14.50000000000001066 -167.50000000000000000 362.25451715559307786 0.90277413769307513 -0.43011493384039179 0.00000000000000000 0.43011493384039179 0.90277413769307513 0.00000000000000000 -0.00000000000000000 0.00000000000000000 1.00000000000000000 
1 11.50000000000001066 -167.50000000000000000 362.25451715559307786 0.00000000000000000 -1.00000000000000000 0.00000000000000000 1.00000000000000000 0.00000000000000000 0.00000000000000000 -0.00000000000000000 0.00000000000000000 1.00000000000000000 
1 0.00000000000000000 -167.50000000000000000 0.00000000000000000 0.00000000000000000 1.00000000000000000 0.00000000000000000 1.00000000000000000 0.00000000000000000 0.00000000000000000 0.00000000000000000 0.00000000000000000 -1.00000000000000000 
1 0.00000000000000000 -167.49999999999997158 1.49999999999999956 -0.00000000000000000 -1.00000000000000000 -0.00000000000000000 0.00000000000000000 0.00000000000000000 -1.00000000000000000 1.00000000000000000 -0.00000000000000000 0.00000000000000000 
Triangulations 0

TShapes 144
Ve
0.000000100067203
-15.790333254180039 -164.791701823845671 0.000000000000000
0 0

0101101
*
Ve
0.000000100000000
-11.500000000000011 -167.500000000000000 0.000000000000000
0 0

0101101
*
Ed
 0.000000100000000 1 1 0
1  1 0 0.444625734121341 1.570796326794898
2  1 1 8 0.444625734121341 1.570796326794898
2  2 2 9 0.444625734121341 1.570796326794898
0

0101000
+144 0 -143 0 *
Ve
0.000000100027523
-40.627741376866581 -112.660125039475872 0.000000000000000
0 0

0101101
*
Ed
 0.000000100000000 1 1 0
1  2 0 2.999973152847153 60.745952582393066
2  3 1 14 2.999973152847153 60.745952582393066
2  4 3 15 2.999973152847153 60.745952582393066
2  5 3 17 2.999973152847153 60.745952582393066
0

0101000
+144 18 -141 18 *
Ve
0.000000100049894
-41.599999999983368 -108.358949889400279 0.000000000000000
0 0

0101101
*
Ed
 0.000000100000000 1 1 0
1  3 0 6.283182726025899 6.727805392114027
2  6 1 8 6.283182726025899 6.727805392114027
2  7 4 9 6.283182726025899 6.727805392114027
0

0101000
+139 0 -141 0 *
Ve
0.000000100000028
-41.600000000000001 152.157655282254495 0.000000000000000
0 0

0101101
*
Ed
 0.000000100000000 1 1 0
1  4 0 2.260488182424552 262.777093354079341
2  8 1 14 2.260488182424552 262.777093354079341
2  9 5 15 2.260488182424552 262.777093354079341
2  10 5 17 2.260488182424552 262.777093354079341
0

0101000
+139 18 -137 18 *
Ve
0.000000100000036
-40.100000000000009 154.755731493607840 0.000000000000000
0 0

0101101
*
Ed
 0.000000100000000 1 1 0
1  5 0 5.235987755982991 6.283185307179586
2  11 1 8 5.235987755982991 6.283185307179586
2  12 6 9 5.235987755982991 6.283185307179586
0

0101000
+135 0 -137 0 *
Ve
0.000000100000097
-18.271281292109908 167.358548115672846 0.000000000000000
0 0

0101101
*
Ed
 0.000000100000000 1 1 0
1  6 0 1.732050807568876 26.937684051698835
2  13 1 14 1.732050807568876 26.937684051698835
2  14 7 15 1.732050807568876 26.937684051698835
2  15 7 17 1.732050807568876 26.937684051698835
0

0101000
+135 18 -133 18 *
Ve
0.000000150001000
-15.500000000000000 168.958548115672642 0.000000000000000
0 0

0101101
*
Ed
 0.000000100000000 1 1 0
1  7 0 0.523598775598316 3.665191429188048
2  16 1 8 0.523598775598316 3.665191429188048
2  17 8 9 0.523598775598316 3.665191429188048
0

0101000
+133 0 -131 21 *
Ve
0.000000100000177
-17.000000000000000 171.556624327025958 0.000000000000000
0 0

0101101
*
Ed
 0.000000100000177 1 1 0
1  8 0 0.000000000000000 3.000000000000000
2  18 1 14 0.000000000000000 3.000000000000000
2  19 9 15 0.000000000000000 3.000000000000000
2  20 9 17 0.000000000000000 3.000000000000000
2  21 10 22 0.000000000000000 3.000000000000000
2  22 10 23 0.000000000000000 3.000000000000000
0

0101000
+131 24 -129 24 *
Ve
0.000000100000010
-1.500000000000005 180.505553499465151 0.000000000000000
0 0

0101101
*
Ed
 0.000000100000000 1 1 0
1  9 0 0.000000000000000 17.897858344878394
2  23 11 15 0.000000000000000 17.897858344878394
2  24 11 17 0.000000000000000 17.897858344878394
2  25 1 14 0.000000000000000 17.897858344878394
0

0101000
+129 24 -127 18 *
Ve
0.000000150001000
0.000000000000000 180.907477288111835 0.000000000000000
0 0

0101101
*
Ed
 0.000000100000000 1 1 0
1  10 0 4.712388980384690 5.235987755982990
2  26 1 8 4.712388980384690 5.235987755982990
2  27 12 9 4.712388980384690 5.235987755982990
2  28 13 0 4.712388980384690 5.235987755982990
0

0101000
+125 7 -127 0 *
Ve
0.000000100000036
1.500000000000008 180.505553499465151 -0.000000000000028
0 0

0101101
*
Ed
 0.000000100000000 1 1 0
1  11 0 1.047197551196596 1.570796326794897
2  29 1 25 1.047197551196596 1.570796326794897
2  30 14 0 1.047197551196596 1.570796326794897
2  31 13 26 1.047197551196596 1.570796326794897
0

0101000
+123 0 -125 0 *
Ve
0.000000100000177
17.000000000000000 171.556624327025958 0.000000000000000
0 0

0101101
*
Ed
 0.000000100000000 1 1 0
1  12 0 0.000000000000000 17.897858344878387
2  32 15 29 0.000000000000000 17.897858344878387
2  33 15 30 0.000000000000000 17.897858344878387
2  34 1 31 0.000000000000000 17.897858344878387
0

0101000
+121 0 -123 32 *
Ve
0.000000150001000
15.500000000000000 168.958548115672642 0.000000000000000
0 0

0101101
*
Ed
 0.000000100000177 1 1 0
1  13 0 0.000000000000000 3.000000000000000
2  35 16 29 0.000000000000000 3.000000000000000
2  36 16 30 0.000000000000000 3.000000000000000
2  37 1 31 0.000000000000000 3.000000000000000
2  38 17 32 0.000000000000000 3.000000000000000
2  39 17 33 0.000000000000000 3.000000000000000
0

0101000
+119 0 -121 0 *
Ve
0.000000100000097
18.271281292109908 167.358548115672846 0.000000000000000
0 0

0101101
*
Ed
 0.000000100000000 1 1 0
1  14 0 2.617993877991538 5.759586531581270
2  40 1 25 2.617993877991538 5.759586531581270
2  41 18 0 2.617993877991538 5.759586531581270
0

0101000
+119 34 -117 0 *
Ve
0.000000100000036
40.100000000000009 154.755731493607840 0.000000000000000
0 0

0101101
*
Ed
 0.000000100000000 1 1 0
1  15 0 1.732050807568876 26.937684051698835
2  42 19 29 1.732050807568876 26.937684051698835
2  43 19 30 1.732050807568876 26.937684051698835
2  44 1 31 1.732050807568876 26.937684051698835
0

0101000
+115 32 -117 32 *
Ve
0.000000100000028
41.600000000000001 152.157655282254495 0.000000000000000
0 0

0101101
*
Ed
 0.000000100000000 1 1 0
1  16 0 0.000000000000000 1.047197551196596
2  45 1 25 0.000000000000000 1.047197551196596
2  46 20 0 0.000000000000000 1.047197551196596
0

0101000
+113 0 -115 0 *
Ve
0.000000100049894
41.599999999983368 -108.358949889400279 0.000000000000000
0 0

0101101
*
Ed
 0.000000100000000 1 1 0
1  17 0 2.260488182424552 262.777093354079341
2  47 21 29 2.260488182424552 262.777093354079341
2  48 21 30 2.260488182424552 262.777093354079341
2  49 1 31 2.260488182424552 262.777093354079341
0

0101000
+111 32 -113 32 *
Ve
0.000000100027523
40.627741376866581 -112.660125039475872 0.000000000000000
0 0

0101101
*
Ed
 0.000000100000000 1 1 0
1  18 0 5.838565222245146 6.283187888333273
2  50 1 25 5.838565222245146 6.283187888333273
2  51 22 0 5.838565222245146 6.283187888333273
0

0101000
+109 0 -111 0 *
Ve
0.000000100067203
15.790333254180039 -164.791701823845671 0.000000000000000
0 0

0101101
*
Ed
 0.000000100000000 1 1 0
1  19 0 2.999973152847153 60.745952582393066
2  52 23 29 2.999973152847153 60.745952582393066
2  53 23 30 2.999973152847153 60.745952582393066
2  54 1 31 2.999973152847153 60.745952582393066
0

0101000
+107 32 -109 32 *
Ve
0.000000100000000
11.500000000000011 -167.500000000000000 0.000000000000000
0 0

0101101
*
Ed
 0.000000100000000 1 1 0
1  20 0 4.712388980384689 5.838559573058245
2  55 1 25 4.712388980384689 5.838559573058245
2  56 24 0 4.712388980384689 5.838559573058245
0

0101000
+105 0 -107 0 *
Ed
 0.000000100000000 1 1 0
1  21 0 -11.500000000000011 11.500000000000011
2  57 1 8 -11.500000000000011 11.500000000000011
0

0101000
+143 0 -105 7 *
Wi

0101000
+142 0 -140 13 +138 0 -136 13 +134 0 -132 13 -130 0 -128 13 -126 13 +124 0 
+122 7 +120 28 +118 28 -116 7 +114 28 +112 7 +110 28 +108 7 +106 28 +104 7 
+103 0 *
Fa
0  0.000000100000000 1 8

0111000
+102 0 *
Ve
0.000000100067203
-15.790333254180039 -164.791701823845671 3.000000000000000
0 0

0101101
*
Ve
0.000000100000000
-11.500000000000011 -167.500000000000000 3.000000000000000
0 0

0101101
*
Ed
 0.000000100000000 1 1 0
1  22 0 0.444625734121341 1.570796326794898
2  58 1 35 0.444625734121341 1.570796326794898
2  59 2 9 0.444625734121341 1.570796326794898
0

0101000
+100 0 -99 0 *
Ed
 0.000000100044802 1 1 0
1  23 0 359.254517155593078 362.254517155593078
2  60 2 0 359.254517155593078 362.254517155593078
2  61 25 0 359.254517155593078 362.254517155593078
2  62 3 36 359.254517155593078 362.254517155593078
0

0101000
+100 37 -144 37 *
Ed
 0.000000100000000 1 1 0
1  24 0 359.254517155593078 362.254517155593078
2  63 2 0 359.254517155593078 362.254517155593078
2  64 26 0 359.254517155593078 362.254517155593078
2  65 27 36 359.254517155593078 362.254517155593078
0

0101000
+99 37 -143 37 *
Wi

0101100
+98 0 -97 9 -142 0 +96 9 *
Fa
0  0.000000100000000 2 9

0111000
+95 0 *
Ve
0.000000100000000
11.500000000000011 -167.500000000000000 3.000000000000000
0 0

0101101
*
Ed
 0.000000100000000 1 1 0
1  25 0 -11.500000000000011 11.500000000000011
2  66 1 35 -11.500000000000011 11.500000000000011
0

0101000
+93 7 -99 0 *
Ve
0.000000100027523
-40.627741376866581 -112.660125039475872 3.000000000000000
0 0

0101101
*
Ed
 0.000000100000000 1 1 0
1  2 0 2.999973152847153 60.745952582393066
2  3 1 14 2.999973152847153 60.745952582393066
2  4 3 15 2.999973152847153 60.745952582393066
2  5 3 17 2.999973152847153 60.745952582393066
0

0101000
+100 39 -91 39 *
Ve
0.000000100049894
-41.599999999983368 -108.358949889400279 3.000000000000000
0 0

0101101
*
Ed
 0.000000100000000 1 1 0
1  26 0 6.283182726025899 6.727805392114027
2  67 1 35 6.283182726025899 6.727805392114027
2  68 4 9 6.283182726025899 6.727805392114027
0

0101000
+89 0 -91 0 *
Ve
0.000000100000028
-41.600000000000001 152.157655282254495 3.000000000000000
0 0

0101101
*
Ed
 0.000000100000000 1 1 0
1  4 0 2.260488182424552 262.777093354079341
2  8 1 14 2.260488182424552 262.777093354079341
2  9 5 15 2.260488182424552 262.777093354079341
2  10 5 17 2.260488182424552 262.777093354079341
0

0101000
+89 39 -87 39 *
Ve
0.000000100000036
-40.100000000000009 154.755731493607840 3.000000000000000
0 0

0101101
*
Ed
 0.000000100000000 1 1 0
1  27 0 5.235987755982991 6.283185307179586
2  69 1 35 5.235987755982991 6.283185307179586
2  70 6 9 5.235987755982991 6.283185307179586
0

0101000
+85 0 -87 0 *
Ve
0.000000100000097
-18.271281292109908 167.358548115672846 3.000000000000000
0 0

0101101
*
Ed
 0.000000100000000 1 1 0
1  6 0 1.732050807568876 26.937684051698835
2  13 1 14 1.732050807568876 26.937684051698835
2  14 7 15 1.732050807568876 26.937684051698835
2  15 7 17 1.732050807568876 26.937684051698835
0

0101000
+85 39 -83 39 *
Ed
 0.000000100000000 1 1 0
1  28 0 0.523598775598316 3.665191429188048
2  71 1 35 0.523598775598316 3.665191429188048
2  72 8 9 0.523598775598316 3.665191429188048
0

0101000
+83 0 -131 40 *
Ve
0.000000100000010
-1.500000000000005 180.505553499465151 3.000000000000000
0 0

0101101
*
Ed
 0.000000100000000 1 1 0
1  9 0 0.000000000000000 17.897858344878394
2  23 11 15 0.000000000000000 17.897858344878394
2  24 11 17 0.000000000000000 17.897858344878394
2  25 1 14 0.000000000000000 17.897858344878394
0

0101000
+129 24 -80 39 *
Ve
0.000000150001000
0.000000000000000 180.907477288111835 3.000000000000000
0 0

0101101
*
Ed
 0.000000100000000 1 1 0
1  29 0 4.712388980384690 5.235987755982990
2  73 1 35 4.712388980384690 5.235987755982990
2  74 12 9 4.712388980384690 5.235987755982990
2  75 13 0 4.712388980384690 5.235987755982990
0

0101000
+78 7 -80 0 *
Ve
0.000000100000036
1.500000000000008 180.505553499465151 2.999999999999972
0 0

0101101
*
Ed
 0.000000100000000 1 1 0
1  30 0 1.047197551196596 1.570796326794897
2  76 1 41 1.047197551196596 1.570796326794897
2  77 14 0 1.047197551196596 1.570796326794897
2  78 13 26 1.047197551196596 1.570796326794897
0

0101000
+76 0 -78 0 *
Ed
 0.000000100000000 1 1 0
1  12 0 0.000000000000000 17.897858344878387
2  32 15 29 0.000000000000000 17.897858344878387
2  33 15 30 0.000000000000000 17.897858344878387
2  34 1 31 0.000000000000000 17.897858344878387
0

0101000
+121 0 -76 33 *
Ve
0.000000100000097
18.271281292109908 167.358548115672846 3.000000000000000
0 0

0101101
*
Ed
 0.000000100000000 1 1 0
1  31 0 2.617993877991538 5.759586531581270
2  79 1 41 2.617993877991538 5.759586531581270
2  80 18 0 2.617993877991538 5.759586531581270
0

0101000
+119 43 -73 0 *
Ve
0.000000100000036
40.100000000000009 154.755731493607840 3.000000000000000
0 0

0101101
*
Ed
 0.000000100000000 1 1 0
1  15 0 1.732050807568876 26.937684051698835
2  42 19 29 1.732050807568876 26.937684051698835
2  43 19 30 1.732050807568876 26.937684051698835
2  44 1 31 1.732050807568876 26.937684051698835
0

0101000
+71 33 -73 33 *
Ve
0.000000100000028
41.600000000000001 152.157655282254495 3.000000000000000
0 0

0101101
*
Ed
 0.000000100000000 1 1 0
1  32 0 0.000000000000000 1.047197551196596
2  81 1 41 0.000000000000000 1.047197551196596
2  82 20 0 0.000000000000000 1.047197551196596
0

0101000
+69 0 -71 0 *
Ve
0.000000100049894
41.599999999983368 -108.358949889400279 3.000000000000000
0 0

0101101
*
Ed
 0.000000100000000 1 1 0
1  17 0 2.260488182424552 262.777093354079341
2  47 21 29 2.260488182424552 262.777093354079341
2  48 21 30 2.260488182424552 262.777093354079341
2  49 1 31 2.260488182424552 262.777093354079341
0

0101000
+67 33 -69 33 *
Ve
0.000000100027523
40.627741376866581 -112.660125039475872 3.000000000000000
0 0

0101101
*
Ed
 0.000000100000000 1 1 0
1  33 0 5.838565222245146 6.283187888333273
2  83 1 41 5.838565222245146 6.283187888333273
2  84 22 0 5.838565222245146 6.283187888333273
0

0101000
+65 0 -67 0 *
Ve
0.000000100067203
15.790333254180039 -164.791701823845671 3.000000000000000
0 0

0101101
*
Ed
 0.000000100000000 1 1 0
1  19 0 2.999973152847153 60.745952582393066
2  52 23 29 2.999973152847153 60.745952582393066
2  53 23 30 2.999973152847153 60.745952582393066
2  54 1 31 2.999973152847153 60.745952582393066
0

0101000
+63 33 -65 33 *
Ed
 0.000000100000000 1 1 0
1  34 0 4.712388980384689 5.838559573058245
2  85 1 41 4.712388980384689 5.838559573058245
2  86 24 0 4.712388980384689 5.838559573058245
0

0101000
+93 0 -63 0 *
Wi

0101000
-92 0 +98 0 -90 38 +88 0 -86 38 +84 0 -82 38 -81 0 -128 38 -79 38 
+77 0 +75 7 +74 42 +118 42 -72 7 +70 42 +68 7 +66 42 +64 7 +62 42 
+61 7 *
Fa
0  0.000000100000000 1 35

0111000
+60 0 *
Ed
 0.000000100000007 1 1 0
1  35 0 359.254517155593078 362.254517155593078
2  87 4 0 359.254517155593078 362.254517155593078
2  88 28 0 359.254517155593078 362.254517155593078
2  89 3 36 359.254517155593078 362.254517155593078
0

0101000
+91 37 -141 37 *
Wi

0101100
-140 13 +58 9 +90 38 -97 9 *
Fa
0  0.000000100000000 3 44

0111000
+57 0 *
Ed
 0.000000100033261 1 1 0
1  36 0 359.254517155593078 362.254517155593078
2  90 4 0 359.254517155593078 362.254517155593078
2  91 29 0 359.254517155593078 362.254517155593078
2  92 5 36 359.254517155593078 362.254517155593078
0

0101000
+89 37 -139 37 *
Wi

0101100
+88 0 -55 9 -138 0 +58 9 *
Fa
0  0.000000100000000 4 9

0111000
+54 0 *
Ed
 0.000000100000000 1 1 0
1  37 0 359.254517155593078 362.254517155593078
2  93 6 0 359.254517155593078 362.254517155593078
2  94 30 0 359.254517155593078 362.254517155593078
2  95 5 36 359.254517155593078 362.254517155593078
0

0101000
+87 37 -137 37 *
Wi

0101100
-136 13 +52 9 +86 38 -55 9 *
Fa
0  0.000000100000000 5 44

0111000
+51 0 *
Ed
 0.000000100000007 1 1 0
1  38 0 359.254517155593078 362.254517155593078
2  96 6 0 359.254517155593078 362.254517155593078
2  97 31 0 359.254517155593078 362.254517155593078
2  98 7 36 359.254517155593078 362.254517155593078
0

0101000
+85 37 -135 37 *
Wi

0101100
+84 0 -49 9 -134 0 +52 9 *
Fa
0  0.000000100000000 6 9

0111000
+48 0 *
Ed
 0.000000100000065 1 1 0
1  39 0 359.254517155593078 362.254517155593078
2  99 8 0 359.254517155593078 362.254517155593078
2  100 32 0 359.254517155593078 362.254517155593078
2  101 7 36 359.254517155593078 362.254517155593078
0

0101000
+83 37 -133 37 *
Wi

0101100
-132 13 +46 9 +82 38 -49 9 *
Fa
0  0.000000100000000 7 44

0111000
+45 0 *
Ed
 0.000000100000196 1 1 0
1  40 0 0.000000000000000 3.000000000000000
2  102 7 0 0.000000000000000 3.000000000000000
2  103 9 0 0.000000000000000 3.000000000000000
2  104 8 45 0.000000000000000 3.000000000000000
2  105 10 45 0.000000000000000 3.000000000000000
0

0101000
+131 46 -131 47 *
Wi

0101100
+81 0 -46 9 -130 0 -43 44 *
Fa
0  0.000000100000000 8 9

0111000
+42 0 *
Ed
 0.000000100000087 1 1 0
1  41 0 0.000000000000000 3.000000000000000
2  106 11 0 0.000000000000000 3.000000000000000
2  107 9 0 0.000000000000000 3.000000000000000
2  108 10 45 0.000000000000000 3.000000000000000
0

0101000
+129 46 -129 47 *
Wi

0101100
+43 0 -40 0 -128 48 +128 49 *
Fa
0  0.000000100000000 9 0

0111000
+39 0 *
Ed
 0.000000100000003 1 1 0
1  42 0 359.254517155593078 362.254517155593078
2  109 12 0 359.254517155593078 362.254517155593078
2  110 33 0 359.254517155593078 362.254517155593078
2  111 11 36 359.254517155593078 362.254517155593078
2  112 13 37 359.254517155593078 362.254517155593078
0

0101000
+80 37 -127 37 *
Wi

0101100
-126 13 +37 9 +79 38 +40 44 *
Fa
0  0.000000100000000 11 44

0111000
+36 0 *
Ed
 0.000000100000003 1 1 0
1  43 0 359.254517155593135 362.254517155593135
2  113 14 0 359.254517155593135 362.254517155593135
2  114 34 0 359.254517155593135 362.254517155593135
2  115 15 50 359.254517155593135 362.254517155593135
2  116 13 26 359.254517155593135 362.254517155593135
0

0101000
+76 0 -123 0 *
Ed
 0.000000100000087 1 1 0
1  44 0 0.000000000000000 3.000000000000000
2  117 15 0 0.000000000000000 3.000000000000000
2  118 16 0 0.000000000000000 3.000000000000000
2  119 17 51 0.000000000000000 3.000000000000000
0

0101000
+121 52 -121 53 *
Wi

0101100
-120 34 +34 0 +74 43 +33 50 *
Fa
0  0.000000100000000 15 50

0111000
+32 0 *
Ed
 0.000000100000196 1 1 0
1  45 0 0.000000000000000 3.000000000000000
2  120 16 0 0.000000000000000 3.000000000000000
2  121 19 0 0.000000000000000 3.000000000000000
2  122 18 51 0.000000000000000 3.000000000000000
2  123 17 51 0.000000000000000 3.000000000000000
0

0101000
+119 52 -119 53 *
Wi

0101100
+30 0 -33 0 -118 52 +118 53 *
Fa
0  0.000000100000000 16 0

0111000
+29 0 *
Ed
 0.000000100000065 1 1 0
1  46 0 359.254517155593078 362.254517155593078
2  124 18 0 359.254517155593078 362.254517155593078
2  125 35 0 359.254517155593078 362.254517155593078
2  126 19 50 359.254517155593078 362.254517155593078
0

0101000
+73 0 -117 0 *
Wi

0101100
-72 0 -27 0 +116 0 -30 50 *
Fa
0  0.000000100000000 18 0

0111000
+26 0 *
Ed
 0.000000100000007 1 1 0
1  47 0 359.254517155593078 362.254517155593078
2  127 20 0 359.254517155593078 362.254517155593078
2  128 36 0 359.254517155593078 362.254517155593078
2  129 19 50 359.254517155593078 362.254517155593078
0

0101000
+71 0 -115 0 *
Wi

0101100
-114 34 +27 0 +70 43 -24 0 *
Fa
0  0.000000100000000 19 50

0111000
+23 0 *
Ed
 0.000000100000000 1 1 0
1  48 0 359.254517155593078 362.254517155593078
2  130 20 0 359.254517155593078 362.254517155593078
2  131 37 0 359.254517155593078 362.254517155593078
2  132 21 50 359.254517155593078 362.254517155593078
0

0101000
+69 0 -113 0 *
Wi

0101100
-68 0 -24 0 +112 0 +21 0 *
Fa
0  0.000000100000000 20 0

0111000
+20 0 *
Ed
 0.000000100033261 1 1 0
1  49 0 359.254517155593078 362.254517155593078
2  133 22 0 359.254517155593078 362.254517155593078
2  134 38 0 359.254517155593078 362.254517155593078
2  135 21 50 359.254517155593078 362.254517155593078
0

0101000
+67 0 -111 0 *
Wi

0101100
-110 34 +21 0 +66 43 -18 0 *
Fa
0  0.000000100000000 21 50

0111000
+17 0 *
Ed
 0.000000100000007 1 1 0
1  50 0 359.254517155593078 362.254517155593078
2  136 22 0 359.254517155593078 362.254517155593078
2  137 39 0 359.254517155593078 362.254517155593078
2  138 23 50 359.254517155593078 362.254517155593078
0

0101000
+65 0 -109 0 *
Wi

0101100
-64 0 -18 0 +108 0 +15 0 *
Fa
0  0.000000100000000 22 0

0111000
+14 0 *
Ed
 0.000000100044802 1 1 0
1  51 0 359.254517155593078 362.254517155593078
2  139 24 0 359.254517155593078 362.254517155593078
2  140 40 0 359.254517155593078 362.254517155593078
2  141 23 50 359.254517155593078 362.254517155593078
0

0101000
+63 0 -107 0 *
Wi

0101100
-106 34 +15 0 +62 43 -12 0 *
Fa
0  0.000000100000000 23 50

0111000
+11 0 *
Ed
 0.000000100000000 1 1 0
1  52 0 359.254517155593078 362.254517155593078
2  142 24 0 359.254517155593078 362.254517155593078
2  143 41 0 359.254517155593078 362.254517155593078
2  144 42 50 359.254517155593078 362.254517155593078
0

0101000
+93 0 -105 0 *
Wi

0101100
-61 0 -12 0 +104 0 +9 0 *
Fa
0  0.000000100000000 24 0

0111000
+8 0 *
Wi

0101000
+103 0 -9 7 +92 0 +96 9 *
Fa
0  0.000000100000000 43 0

0111000
+6 0 *
Wi

0101100
+75 7 +77 0 +37 9 -124 0 -122 7 -34 7 *
Fa
0  0.000000100000000 13 0

0111000
+4 0 *
Sh

0101000
-101 0 -94 0 +59 0 +56 0 -53 0 +50 0 -47 0 +44 0 +41 0 +38 44 
+35 0 -31 7 -28 44 -25 7 -22 7 +19 7 -16 7 +13 7 -10 7 +7 7 
+5 0 -3 0 *
So

0100000
+2 0 *

+1 1 