
CASCADE Topology V1, (c) Matra-Datavision
Locations 187
1
0.000000000000000 1.000000000000000 0.000000000000000 0.000000000000000 
0.000000000000000 0.000000000000000 1.000000000000000 0.000000000000000 
1.000000000000000 0.000000000000000 0.000000000000000 0.000000000000000 
1
0.000000000000000 0.000000000000000 1.000000000000000 0.000000000000000 
1.000000000000000 0.000000000000000 0.000000000000000 0.000000000000000 
0.000000000000000 1.000000000000000 0.000000000000000 820.000000000000000 
1
1.000000000000000 0.000000000000000 0.000000000000000 0.000000000000000 
0.000000000000000 1.000000000000000 0.000000000000000 0.000000000000000 
0.000000000000000 0.000000000000000 1.000000000000000 0.000000000000000 
1
1.000000000000000 0.000000000000000 0.000000000000000 0.000000000000000 
0.000000000000000 1.000000000000000 0.000000000000000 0.000000000000000 
0.000000000000000 0.000000000000000 1.000000000000000 0.000000000000000 
1
1.000000000000000 0.000000000000000 0.000000000000000 0.000000000000000 
0.000000000000000 1.000000000000000 0.000000000000000 0.000000000000000 
0.000000000000000 0.000000000000000 1.000000000000000 0.000000000000000 
1
1.000000000000000 0.000000000000000 0.000000000000000 0.000000000000000 
0.000000000000000 1.000000000000000 0.000000000000000 0.000000000000000 
0.000000000000000 0.000000000000000 1.000000000000000 0.000000000000000 
1
1.000000000000000 0.000000000000000 0.000000000000000 0.000000000000000 
0.000000000000000 1.000000000000000 0.000000000000000 9.732050807568877 
0.000000000000000 0.000000000000000 1.000000000000000 527.000000000000000 
1
1.000000000000000 0.000000000000000 0.000000000000000 0.000000000000000 
0.000000000000000 1.000000000000000 0.000000000000000 0.000000000000000 
0.000000000000000 0.000000000000000 1.000000000000000 0.000000000000000 
2  1 1 2 1 3 1 4 1 5 1 6 1 7 1 8 -1 0
1
1.000000000000000 0.000000000000000 0.000000000000000 -3153.732576039049945 
0.000000000000000 1.000000000000000 0.000000000000000 0.000000000000000 
0.000000000000000 0.000000000000000 1.000000000000000 0.000000000000000 
2  1 1 2 1 3 1 4 1 5 1 6 1 7 1 8 -1 10 1 0
1
0.000000000000000 0.000000000000000 1.000000000000000 0.000000000000000 
1.000000000000000 0.000000000000000 0.000000000000000 0.000000000000000 
0.000000000000000 1.000000000000000 0.000000000000000 0.000000000000000 
2  12 1 1 1 2 1 3 1 4 1 5 1 6 1 7 1 8 -1 0
1
1.000000000000000 0.000000000000000 0.000000000000000 -743.574720236604435 
0.000000000000000 1.000000000000000 0.000000000000000 -1287.909194673612319 
0.000000000000000 0.000000000000000 1.000000000000000 0.000000000000161 
1
1.000000000000000 0.000000000000000 0.000000000000000 0.000000000000000 
0.000000000000000 1.000000000000000 0.000000000000000 0.000000000000000 
0.000000000000000 0.000000000000000 1.000000000000000 0.000000000000000 
1
-0.500000000000000 0.866025403784439 -0.000000000000000 21.428203230275471 
-0.866025403784439 -0.500000000000000 0.000000000000000 -7.464101615137598 
0.000000000000000 0.000000000000000 1.000000000000000 527.000000000000000 
1
1.000000000000000 0.000000000000000 0.000000000000000 0.000000000000000 
0.000000000000000 1.000000000000000 0.000000000000000 0.000000000000000 
0.000000000000000 0.000000000000000 1.000000000000000 0.000000000000000 
1
1.000000000000000 0.000000000000000 -0.000000000000000 0.000000000000000 
-0.000000000000000 1.000000000000000 0.000000000000000 0.000000000000002 
0.000000000000000 0.000000000000000 1.000000000000000 0.000000000000000 
1
1.000000000000000 0.000000000000000 0.000000000000000 0.000000000000000 
0.000000000000000 1.000000000000000 0.000000000000000 0.000000000000000 
0.000000000000000 0.000000000000000 1.000000000000000 0.000000000000000 
2  14 -1 15 1 16 -1 17 -1 18 -1 19 -1 3 -1 2 -1 1 -1 12 -1 0
1
1.000000000000000 0.000000000000000 0.000000000000000 1487.149440473208870 
0.000000000000000 1.000000000000000 0.000000000000000 2575.818389347224638 
0.000000000000000 0.000000000000000 1.000000000000000 -0.000000000000322 
2  21 -1 14 -1 15 1 16 -1 17 -1 18 -1 19 -1 3 -1 2 -1 1 -1 12 -1 0
1
0.000000000000000 0.000000000000000 1.000000000000000 0.000000000000000 
1.000000000000000 0.000000000000000 0.000000000000000 0.000000000000000 
0.000000000000000 1.000000000000000 0.000000000000000 615.000000000000000 
2  14 -1 15 1 16 -1 17 -1 18 -1 19 -1 3 -1 23 -1 1 -1 12 -1 0
2  21 -1 14 -1 15 1 16 -1 17 -1 18 -1 19 -1 3 -1 23 -1 1 -1 12 -1 0
1
0.000000000000000 0.000000000000000 1.000000000000000 0.000000000000000 
1.000000000000000 0.000000000000000 0.000000000000000 0.000000000000000 
0.000000000000000 1.000000000000000 0.000000000000000 0.000000000000000 
2  14 -1 15 1 16 -1 17 -1 18 -1 19 -1 3 -1 26 -1 1 -1 12 -1 0
2  21 -1 14 -1 15 1 16 -1 17 -1 18 -1 19 -1 3 -1 26 -1 1 -1 12 -1 0
1
0.000000000000000 0.000000000000000 1.000000000000000 0.000000000000000 
1.000000000000000 0.000000000000000 0.000000000000000 0.000000000000000 
0.000000000000000 1.000000000000000 0.000000000000000 410.000000000000000 
2  14 -1 15 1 16 -1 17 -1 18 -1 19 -1 3 -1 29 -1 1 -1 12 -1 0
2  21 -1 14 -1 15 1 16 -1 17 -1 18 -1 19 -1 3 -1 29 -1 1 -1 12 -1 0
1
0.000000000000000 0.000000000000000 1.000000000000000 0.000000000000000 
1.000000000000000 0.000000000000000 0.000000000000000 0.000000000000000 
0.000000000000000 1.000000000000000 0.000000000000000 205.000000000000000 
2  14 -1 15 1 16 -1 17 -1 18 -1 19 -1 3 -1 32 -1 1 -1 12 -1 0
2  21 -1 14 -1 15 1 16 -1 17 -1 18 -1 19 -1 3 -1 32 -1 1 -1 12 -1 0
1
1.000000000000000 0.000000000000000 0.000000000000000 0.000000000000000 
0.000000000000000 1.000000000000000 0.000000000000000 0.000000000000000 
0.000000000000000 0.000000000000000 1.000000000000000 0.000000000000000 
1
1.000000000000000 0.000000000000000 0.000000000000000 0.000000000000000 
0.000000000000000 1.000000000000000 0.000000000000000 9.732050807568877 
0.000000000000000 0.000000000000000 1.000000000000000 527.000000000000000 
1
1.000000000000000 0.000000000000000 0.000000000000000 0.000000000000000 
0.000000000000000 1.000000000000000 0.000000000000000 0.000000000000000 
0.000000000000000 0.000000000000000 1.000000000000000 0.000000000000000 
2  35 1 36 -1 37 -1 5 -1 4 -1 3 -1 2 -1 1 -1 12 -1 0
1
1.000000000000000 0.000000000000000 0.000000000000000 -3153.732576039049945 
0.000000000000000 1.000000000000000 0.000000000000000 0.000000000000000 
0.000000000000000 0.000000000000000 1.000000000000000 0.000000000000000 
2  39 -1 35 1 36 -1 37 -1 5 -1 4 -1 3 -1 2 -1 1 -1 12 -1 0
2  35 1 36 -1 37 -1 5 -1 4 -1 3 -1 23 -1 1 -1 12 -1 0
2  39 -1 35 1 36 -1 37 -1 5 -1 4 -1 3 -1 23 -1 1 -1 12 -1 0
2  35 1 36 -1 37 -1 5 -1 4 -1 3 -1 29 -1 1 -1 12 -1 0
2  39 -1 35 1 36 -1 37 -1 5 -1 4 -1 3 -1 29 -1 1 -1 12 -1 0
2  35 1 36 -1 37 -1 5 -1 4 -1 3 -1 32 -1 1 -1 12 -1 0
2  39 -1 35 1 36 -1 37 -1 5 -1 4 -1 3 -1 32 -1 1 -1 12 -1 0
2  35 1 36 -1 37 -1 5 -1 4 -1 3 -1 26 -1 1 -1 12 -1 0
2  39 -1 35 1 36 -1 37 -1 5 -1 4 -1 3 -1 26 -1 1 -1 12 -1 0
1
1.000000000000000 0.000000000000000 0.000000000000000 -743.574720236604435 
0.000000000000000 1.000000000000000 0.000000000000000 -1287.909194673612319 
0.000000000000000 0.000000000000000 1.000000000000000 0.000000000000161 
1
1.000000000000000 0.000000000000000 0.000000000000000 0.000000000000000 
0.000000000000000 1.000000000000000 0.000000000000000 0.000000000000000 
0.000000000000000 0.000000000000000 1.000000000000000 0.000000000000000 
1
-0.500000000000000 0.866025403784439 -0.000000000000000 21.428203230275471 
-0.866025403784439 -0.500000000000000 0.000000000000000 -7.464101615137598 
0.000000000000000 0.000000000000000 1.000000000000000 527.000000000000000 
1
1.000000000000000 0.000000000000000 0.000000000000000 0.000000000000000 
0.000000000000000 1.000000000000000 0.000000000000000 0.000000000000000 
0.000000000000000 0.000000000000000 1.000000000000000 0.000000000000000 
1
1.000000000000000 0.000000000000000 -0.000000000000000 0.000000000000000 
-0.000000000000000 1.000000000000000 0.000000000000000 0.000000000000002 
0.000000000000000 0.000000000000000 1.000000000000000 0.000000000000000 
1
1.000000000000000 0.000000000000000 0.000000000000000 0.000000000000000 
0.000000000000000 1.000000000000000 0.000000000000000 0.000000000000000 
0.000000000000000 0.000000000000000 1.000000000000000 0.000000000000000 
2  49 -1 50 1 51 -1 52 -1 53 -1 54 -1 3 -1 2 -1 1 -1 12 -1 0
1
1.000000000000000 0.000000000000000 0.000000000000000 1487.149440473208870 
0.000000000000000 1.000000000000000 0.000000000000000 2575.818389347224638 
0.000000000000000 0.000000000000000 1.000000000000000 -0.000000000000322 
2  56 -1 49 -1 50 1 51 -1 52 -1 53 -1 54 -1 3 -1 2 -1 1 -1 12 -1 0
2  49 -1 50 1 51 -1 52 -1 53 -1 54 -1 3 -1 23 -1 1 -1 12 -1 0
2  56 -1 49 -1 50 1 51 -1 52 -1 53 -1 54 -1 3 -1 23 -1 1 -1 12 -1 0
2  49 -1 50 1 51 -1 52 -1 53 -1 54 -1 3 -1 29 -1 1 -1 12 -1 0
2  56 -1 49 -1 50 1 51 -1 52 -1 53 -1 54 -1 3 -1 29 -1 1 -1 12 -1 0
2  49 -1 50 1 51 -1 52 -1 53 -1 54 -1 3 -1 32 -1 1 -1 12 -1 0
2  56 -1 49 -1 50 1 51 -1 52 -1 53 -1 54 -1 3 -1 32 -1 1 -1 12 -1 0
2  49 -1 50 1 51 -1 52 -1 53 -1 54 -1 3 -1 26 -1 1 -1 12 -1 0
2  56 -1 49 -1 50 1 51 -1 52 -1 53 -1 54 -1 3 -1 26 -1 1 -1 12 -1 0
1
1.000000000000000 0.000000000000000 0.000000000000000 0.000000000000000 
0.000000000000000 1.000000000000000 0.000000000000000 0.000000000000000 
0.000000000000000 0.000000000000000 1.000000000000000 0.000000000000000 
1
1.000000000000000 0.000000000000000 0.000000000000000 0.000000000000000 
0.000000000000000 1.000000000000000 0.000000000000000 9.732050807568877 
0.000000000000000 0.000000000000000 1.000000000000000 527.000000000000000 
1
1.000000000000000 0.000000000000000 0.000000000000000 0.000000000000000 
0.000000000000000 1.000000000000000 0.000000000000000 0.000000000000000 
0.000000000000000 0.000000000000000 1.000000000000000 0.000000000000000 
2  66 1 67 -1 68 -1 5 -1 4 -1 3 -1 2 -1 1 -1 12 -1 0
1
1.000000000000000 0.000000000000000 0.000000000000000 -3153.732576039049945 
0.000000000000000 1.000000000000000 0.000000000000000 0.000000000000000 
0.000000000000000 0.000000000000000 1.000000000000000 0.000000000000000 
2  70 -1 66 1 67 -1 68 -1 5 -1 4 -1 3 -1 2 -1 1 -1 12 -1 0
2  66 1 67 -1 68 -1 5 -1 4 -1 3 -1 23 -1 1 -1 12 -1 0
2  70 -1 66 1 67 -1 68 -1 5 -1 4 -1 3 -1 23 -1 1 -1 12 -1 0
2  66 1 67 -1 68 -1 5 -1 4 -1 3 -1 29 -1 1 -1 12 -1 0
2  70 -1 66 1 67 -1 68 -1 5 -1 4 -1 3 -1 29 -1 1 -1 12 -1 0
2  66 1 67 -1 68 -1 5 -1 4 -1 3 -1 32 -1 1 -1 12 -1 0
2  70 -1 66 1 67 -1 68 -1 5 -1 4 -1 3 -1 32 -1 1 -1 12 -1 0
2  66 1 67 -1 68 -1 5 -1 4 -1 3 -1 26 -1 1 -1 12 -1 0
2  70 -1 66 1 67 -1 68 -1 5 -1 4 -1 3 -1 26 -1 1 -1 12 -1 0
1
1.000000000000000 0.000000000000000 0.000000000000000 -743.574720236604435 
0.000000000000000 1.000000000000000 0.000000000000000 -1287.909194673612319 
0.000000000000000 0.000000000000000 1.000000000000000 0.000000000000161 
1
1.000000000000000 0.000000000000000 0.000000000000000 0.000000000000000 
0.000000000000000 1.000000000000000 0.000000000000000 0.000000000000000 
0.000000000000000 0.000000000000000 1.000000000000000 0.000000000000000 
1
-0.500000000000000 0.866025403784439 -0.000000000000000 21.428203230275471 
-0.866025403784439 -0.500000000000000 0.000000000000000 -7.464101615137598 
0.000000000000000 0.000000000000000 1.000000000000000 527.000000000000000 
1
1.000000000000000 0.000000000000000 0.000000000000000 0.000000000000000 
0.000000000000000 1.000000000000000 0.000000000000000 0.000000000000000 
0.000000000000000 0.000000000000000 1.000000000000000 0.000000000000000 
1
1.000000000000000 0.000000000000000 -0.000000000000000 0.000000000000000 
-0.000000000000000 1.000000000000000 0.000000000000000 0.000000000000002 
0.000000000000000 0.000000000000000 1.000000000000000 0.000000000000000 
1
1.000000000000000 0.000000000000000 0.000000000000000 0.000000000000000 
0.000000000000000 1.000000000000000 0.000000000000000 0.000000000000000 
0.000000000000000 0.000000000000000 1.000000000000000 0.000000000000000 
2  80 -1 81 1 82 -1 83 -1 84 -1 85 -1 3 -1 2 -1 1 -1 12 -1 0
1
1.000000000000000 0.000000000000000 0.000000000000000 1487.149440473208870 
0.000000000000000 1.000000000000000 0.000000000000000 2575.818389347224638 
0.000000000000000 0.000000000000000 1.000000000000000 -0.000000000000322 
2  87 -1 80 -1 81 1 82 -1 83 -1 84 -1 85 -1 3 -1 2 -1 1 -1 12 -1 0
2  80 -1 81 1 82 -1 83 -1 84 -1 85 -1 3 -1 23 -1 1 -1 12 -1 0
2  87 -1 80 -1 81 1 82 -1 83 -1 84 -1 85 -1 3 -1 23 -1 1 -1 12 -1 0
2  80 -1 81 1 82 -1 83 -1 84 -1 85 -1 3 -1 29 -1 1 -1 12 -1 0
2  87 -1 80 -1 81 1 82 -1 83 -1 84 -1 85 -1 3 -1 29 -1 1 -1 12 -1 0
2  80 -1 81 1 82 -1 83 -1 84 -1 85 -1 3 -1 32 -1 1 -1 12 -1 0
2  87 -1 80 -1 81 1 82 -1 83 -1 84 -1 85 -1 3 -1 32 -1 1 -1 12 -1 0
2  80 -1 81 1 82 -1 83 -1 84 -1 85 -1 3 -1 26 -1 1 -1 12 -1 0
2  87 -1 80 -1 81 1 82 -1 83 -1 84 -1 85 -1 3 -1 26 -1 1 -1 12 -1 0
1
1.000000000000000 0.000000000000000 0.000000000000000 0.000000000000000 
0.000000000000000 1.000000000000000 0.000000000000000 0.000000000000000 
0.000000000000000 0.000000000000000 1.000000000000000 0.000000000000000 
1
1.000000000000000 0.000000000000000 0.000000000000000 0.000000000000000 
0.000000000000000 1.000000000000000 0.000000000000000 9.732050807568877 
0.000000000000000 0.000000000000000 1.000000000000000 527.000000000000000 
1
1.000000000000000 0.000000000000000 0.000000000000000 0.000000000000000 
0.000000000000000 1.000000000000000 0.000000000000000 0.000000000000000 
0.000000000000000 0.000000000000000 1.000000000000000 0.000000000000000 
2  97 1 98 -1 99 -1 5 -1 4 -1 3 -1 2 -1 1 -1 12 -1 0
1
1.000000000000000 0.000000000000000 0.000000000000000 -3153.732576039049945 
0.000000000000000 1.000000000000000 0.000000000000000 0.000000000000000 
0.000000000000000 0.000000000000000 1.000000000000000 0.000000000000000 
2  101 -1 97 1 98 -1 99 -1 5 -1 4 -1 3 -1 2 -1 1 -1 12 -1 0
2  97 1 98 -1 99 -1 5 -1 4 -1 3 -1 23 -1 1 -1 12 -1 0
2  101 -1 97 1 98 -1 99 -1 5 -1 4 -1 3 -1 23 -1 1 -1 12 -1 0
2  97 1 98 -1 99 -1 5 -1 4 -1 3 -1 29 -1 1 -1 12 -1 0
2  101 -1 97 1 98 -1 99 -1 5 -1 4 -1 3 -1 29 -1 1 -1 12 -1 0
2  97 1 98 -1 99 -1 5 -1 4 -1 3 -1 32 -1 1 -1 12 -1 0
2  101 -1 97 1 98 -1 99 -1 5 -1 4 -1 3 -1 32 -1 1 -1 12 -1 0
2  97 1 98 -1 99 -1 5 -1 4 -1 3 -1 26 -1 1 -1 12 -1 0
2  101 -1 97 1 98 -1 99 -1 5 -1 4 -1 3 -1 26 -1 1 -1 12 -1 0
1
1.000000000000000 0.000000000000000 0.000000000000000 0.000000000000000 
0.000000000000000 1.000000000000000 0.000000000000000 0.000000000000000 
0.000000000000000 0.000000000000000 1.000000000000000 0.000000000000000 
1
1.000000000000000 0.000000000000000 0.000000000000000 0.000000000000000 
0.000000000000000 1.000000000000000 0.000000000000000 9.732050807568877 
0.000000000000000 0.000000000000000 1.000000000000000 527.000000000000000 
1
1.000000000000000 0.000000000000000 0.000000000000000 0.000000000000000 
0.000000000000000 1.000000000000000 0.000000000000000 0.000000000000000 
0.000000000000000 0.000000000000000 1.000000000000000 0.000000000000000 
2  111 1 112 -1 113 -1 5 -1 4 -1 3 -1 2 -1 1 -1 12 -1 0
1
1.000000000000000 0.000000000000000 0.000000000000000 -3153.732576039049945 
0.000000000000000 1.000000000000000 0.000000000000000 0.000000000000000 
0.000000000000000 0.000000000000000 1.000000000000000 0.000000000000000 
2  115 -1 111 1 112 -1 113 -1 5 -1 4 -1 3 -1 2 -1 1 -1 12 -1 0
2  111 1 112 -1 113 -1 5 -1 4 -1 3 -1 23 -1 1 -1 12 -1 0
2  115 -1 111 1 112 -1 113 -1 5 -1 4 -1 3 -1 23 -1 1 -1 12 -1 0
2  111 1 112 -1 113 -1 5 -1 4 -1 3 -1 29 -1 1 -1 12 -1 0
2  115 -1 111 1 112 -1 113 -1 5 -1 4 -1 3 -1 29 -1 1 -1 12 -1 0
2  111 1 112 -1 113 -1 5 -1 4 -1 3 -1 32 -1 1 -1 12 -1 0
2  115 -1 111 1 112 -1 113 -1 5 -1 4 -1 3 -1 32 -1 1 -1 12 -1 0
2  111 1 112 -1 113 -1 5 -1 4 -1 3 -1 26 -1 1 -1 12 -1 0
2  115 -1 111 1 112 -1 113 -1 5 -1 4 -1 3 -1 26 -1 1 -1 12 -1 0
1
1.000000000000000 0.000000000000000 0.000000000000000 0.000000000000000 
0.000000000000000 1.000000000000000 0.000000000000000 0.000000000000000 
0.000000000000000 0.000000000000000 1.000000000000000 0.000000000000000 
1
1.000000000000000 0.000000000000000 0.000000000000000 0.000000000000000 
0.000000000000000 1.000000000000000 0.000000000000000 9.732050807568877 
0.000000000000000 0.000000000000000 1.000000000000000 527.000000000000000 
1
1.000000000000000 0.000000000000000 0.000000000000000 0.000000000000000 
0.000000000000000 1.000000000000000 0.000000000000000 0.000000000000000 
0.000000000000000 0.000000000000000 1.000000000000000 0.000000000000000 
2  125 1 126 -1 127 -1 5 -1 4 -1 3 -1 2 -1 1 -1 12 -1 0
1
1.000000000000000 0.000000000000000 0.000000000000000 -3153.732576039049945 
0.000000000000000 1.000000000000000 0.000000000000000 0.000000000000000 
0.000000000000000 0.000000000000000 1.000000000000000 0.000000000000000 
2  129 -1 125 1 126 -1 127 -1 5 -1 4 -1 3 -1 2 -1 1 -1 12 -1 0
2  125 1 126 -1 127 -1 5 -1 4 -1 3 -1 23 -1 1 -1 12 -1 0
2  129 -1 125 1 126 -1 127 -1 5 -1 4 -1 3 -1 23 -1 1 -1 12 -1 0
2  125 1 126 -1 127 -1 5 -1 4 -1 3 -1 29 -1 1 -1 12 -1 0
2  129 -1 125 1 126 -1 127 -1 5 -1 4 -1 3 -1 29 -1 1 -1 12 -1 0
2  125 1 126 -1 127 -1 5 -1 4 -1 3 -1 32 -1 1 -1 12 -1 0
2  129 -1 125 1 126 -1 127 -1 5 -1 4 -1 3 -1 32 -1 1 -1 12 -1 0
2  125 1 126 -1 127 -1 5 -1 4 -1 3 -1 26 -1 1 -1 12 -1 0
2  129 -1 125 1 126 -1 127 -1 5 -1 4 -1 3 -1 26 -1 1 -1 12 -1 0
1
1.000000000000000 0.000000000000000 0.000000000000000 0.000000000000000 
0.000000000000000 1.000000000000000 0.000000000000000 0.000000000000000 
0.000000000000000 0.000000000000000 1.000000000000000 0.000000000000000 
1
1.000000000000000 0.000000000000000 0.000000000000000 0.000000000000000 
0.000000000000000 1.000000000000000 0.000000000000000 9.732050807568877 
0.000000000000000 0.000000000000000 1.000000000000000 527.000000000000000 
1
1.000000000000000 0.000000000000000 0.000000000000000 0.000000000000000 
0.000000000000000 1.000000000000000 0.000000000000000 0.000000000000000 
0.000000000000000 0.000000000000000 1.000000000000000 0.000000000000000 
2  139 1 140 -1 141 -1 5 -1 4 -1 3 -1 2 -1 1 -1 12 -1 0
1
1.000000000000000 0.000000000000000 0.000000000000000 -3153.732576039049945 
0.000000000000000 1.000000000000000 0.000000000000000 0.000000000000000 
0.000000000000000 0.000000000000000 1.000000000000000 0.000000000000000 
2  143 -1 139 1 140 -1 141 -1 5 -1 4 -1 3 -1 2 -1 1 -1 12 -1 0
2  139 1 140 -1 141 -1 5 -1 4 -1 3 -1 23 -1 1 -1 12 -1 0
2  143 -1 139 1 140 -1 141 -1 5 -1 4 -1 3 -1 23 -1 1 -1 12 -1 0
2  139 1 140 -1 141 -1 5 -1 4 -1 3 -1 29 -1 1 -1 12 -1 0
2  143 -1 139 1 140 -1 141 -1 5 -1 4 -1 3 -1 29 -1 1 -1 12 -1 0
2  139 1 140 -1 141 -1 5 -1 4 -1 3 -1 32 -1 1 -1 12 -1 0
2  143 -1 139 1 140 -1 141 -1 5 -1 4 -1 3 -1 32 -1 1 -1 12 -1 0
2  139 1 140 -1 141 -1 5 -1 4 -1 3 -1 26 -1 1 -1 12 -1 0
2  143 -1 139 1 140 -1 141 -1 5 -1 4 -1 3 -1 26 -1 1 -1 12 -1 0
2  8 1 7 -1 6 -1 5 -1 4 -1 3 -1 2 -1 1 -1 12 -1 0
2  10 -1 8 1 7 -1 6 -1 5 -1 4 -1 3 -1 2 -1 1 -1 12 -1 0
2  8 1 7 -1 6 -1 5 -1 4 -1 3 -1 23 -1 1 -1 12 -1 0
2  10 -1 8 1 7 -1 6 -1 5 -1 4 -1 3 -1 23 -1 1 -1 12 -1 0
2  8 1 7 -1 6 -1 5 -1 4 -1 3 -1 29 -1 1 -1 12 -1 0
2  10 -1 8 1 7 -1 6 -1 5 -1 4 -1 3 -1 29 -1 1 -1 12 -1 0
2  8 1 7 -1 6 -1 5 -1 4 -1 3 -1 32 -1 1 -1 12 -1 0
2  10 -1 8 1 7 -1 6 -1 5 -1 4 -1 3 -1 32 -1 1 -1 12 -1 0
2  8 1 7 -1 6 -1 5 -1 4 -1 3 -1 26 -1 1 -1 12 -1 0
2  10 -1 8 1 7 -1 6 -1 5 -1 4 -1 3 -1 26 -1 1 -1 12 -1 0
2  12 -1 0
2  12 1 1 1 2 1 3 1 4 1 5 1 6 1 7 1 8 -1 10 1 0
2  6 1 7 1 8 -1 0
2  12 1 1 1 2 1 3 1 4 1 5 1 0
2  6 1 7 1 8 -1 10 1 0
2  1 1 23 1 3 1 4 1 5 1 6 1 7 1 8 -1 0
2  1 1 23 1 3 1 4 1 5 1 6 1 7 1 8 -1 10 1 0
2  12 1 1 1 23 1 3 1 4 1 5 1 6 1 7 1 8 -1 0
2  12 1 1 1 23 1 3 1 4 1 5 1 6 1 7 1 8 -1 10 1 0
2  12 1 1 1 23 1 3 1 4 1 5 1 0
2  1 1 29 1 3 1 4 1 5 1 6 1 7 1 8 -1 0
2  1 1 29 1 3 1 4 1 5 1 6 1 7 1 8 -1 10 1 0
2  12 1 1 1 29 1 3 1 4 1 5 1 6 1 7 1 8 -1 0
2  12 1 1 1 29 1 3 1 4 1 5 1 6 1 7 1 8 -1 10 1 0
2  12 1 1 1 29 1 3 1 4 1 5 1 0
2  1 1 32 1 3 1 4 1 5 1 6 1 7 1 8 -1 0
2  1 1 32 1 3 1 4 1 5 1 6 1 7 1 8 -1 10 1 0
2  12 1 1 1 32 1 3 1 4 1 5 1 6 1 7 1 8 -1 0
2  12 1 1 1 32 1 3 1 4 1 5 1 6 1 7 1 8 -1 10 1 0
2  12 1 1 1 32 1 3 1 4 1 5 1 0
2  1 1 26 1 3 1 4 1 5 1 6 1 7 1 8 -1 0
2  1 1 26 1 3 1 4 1 5 1 6 1 7 1 8 -1 10 1 0
2  12 1 1 1 26 1 3 1 4 1 5 1 6 1 7 1 8 -1 0
2  12 1 1 1 26 1 3 1 4 1 5 1 6 1 7 1 8 -1 10 1 0
2  12 1 1 1 26 1 3 1 4 1 5 1 0
Curve2ds 110
1 0.00000000000000000 0.00000000000000000 0.00000000000000000 -1.00000000000000000 
1 6.28318530717958623 0.00000000000000000 0.00000000000000000 -1.00000000000000000 
1 0.00000000000000000 0.00000000000000000 1.00000000000000000 0.00000000000000000 
1 0.00000000000000000 -2974.29888094641728458 1.00000000000000000 0.00000000000000000 
1 0.00000000000000000 0.00000000000000000 1.00000000000000000 0.00000000000000000 
1 0.00000000000000000 -2974.29888094641728458 1.00000000000000000 0.00000000000000000 
1 0.00000000000000000 0.00000000000000000 1.00000000000000000 0.00000000000000000 
1 0.00000000000000000 -2974.29888094641728458 1.00000000000000000 0.00000000000000000 
1 0.00000000000000000 0.00000000000000000 1.00000000000000000 0.00000000000000000 
1 0.00000000000000000 -2974.29888094641728458 1.00000000000000000 0.00000000000000000 
1 0.00000000000000000 0.00000000000000000 1.00000000000000000 0.00000000000000000 
1 0.00000000000000000 -2974.29888094641728458 1.00000000000000000 0.00000000000000000 
1 0.00000000000000000 0.00000000000000000 1.00000000000000000 0.00000000000000000 
1 0.00000000000000000 -3153.73257603904994539 1.00000000000000000 0.00000000000000000 
1 0.00000000000000000 0.00000000000000000 1.00000000000000000 0.00000000000000000 
1 0.00000000000000000 -3153.73257603904994539 1.00000000000000000 0.00000000000000000 
1 0.00000000000000000 0.00000000000000000 1.00000000000000000 0.00000000000000000 
1 0.00000000000000000 -3153.73257603904994539 1.00000000000000000 0.00000000000000000 
1 0.00000000000000000 0.00000000000000000 1.00000000000000000 0.00000000000000000 
1 0.00000000000000000 -3153.73257603904994539 1.00000000000000000 0.00000000000000000 
1 0.00000000000000000 0.00000000000000000 1.00000000000000000 0.00000000000000000 
1 0.00000000000000000 -3153.73257603904994539 1.00000000000000000 0.00000000000000000 
1 0.00000000000000000 0.00000000000000000 1.00000000000000000 0.00000000000000000 
1 0.00000000000000000 -2974.29888094641728458 1.00000000000000000 0.00000000000000000 
1 0.00000000000000000 0.00000000000000000 1.00000000000000000 0.00000000000000000 
1 0.00000000000000000 -2974.29888094641728458 1.00000000000000000 0.00000000000000000 
1 0.00000000000000000 0.00000000000000000 1.00000000000000000 0.00000000000000000 
1 0.00000000000000000 -2974.29888094641728458 1.00000000000000000 0.00000000000000000 
1 0.00000000000000000 0.00000000000000000 1.00000000000000000 0.00000000000000000 
1 0.00000000000000000 -2974.29888094641728458 1.00000000000000000 0.00000000000000000 
1 0.00000000000000000 0.00000000000000000 1.00000000000000000 0.00000000000000000 
1 0.00000000000000000 -2974.29888094641728458 1.00000000000000000 0.00000000000000000 
1 0.00000000000000000 0.00000000000000000 1.00000000000000000 0.00000000000000000 
1 0.00000000000000000 -3153.73257603904994539 1.00000000000000000 0.00000000000000000 
1 0.00000000000000000 0.00000000000000000 1.00000000000000000 0.00000000000000000 
1 0.00000000000000000 -3153.73257603904994539 1.00000000000000000 0.00000000000000000 
1 0.00000000000000000 0.00000000000000000 1.00000000000000000 0.00000000000000000 
1 0.00000000000000000 -3153.73257603904994539 1.00000000000000000 0.00000000000000000 
1 0.00000000000000000 0.00000000000000000 1.00000000000000000 0.00000000000000000 
1 0.00000000000000000 -3153.73257603904994539 1.00000000000000000 0.00000000000000000 
1 0.00000000000000000 0.00000000000000000 1.00000000000000000 0.00000000000000000 
1 0.00000000000000000 -3153.73257603904994539 1.00000000000000000 0.00000000000000000 
1 0.00000000000000000 0.00000000000000000 1.00000000000000000 0.00000000000000000 
1 0.00000000000000000 -2974.29888094641728458 1.00000000000000000 0.00000000000000000 
1 0.00000000000000000 0.00000000000000000 1.00000000000000000 0.00000000000000000 
1 0.00000000000000000 -2974.29888094641728458 1.00000000000000000 0.00000000000000000 
1 0.00000000000000000 0.00000000000000000 1.00000000000000000 0.00000000000000000 
1 0.00000000000000000 -2974.29888094641728458 1.00000000000000000 0.00000000000000000 
1 0.00000000000000000 0.00000000000000000 1.00000000000000000 0.00000000000000000 
1 0.00000000000000000 -2974.29888094641728458 1.00000000000000000 0.00000000000000000 
1 0.00000000000000000 0.00000000000000000 1.00000000000000000 0.00000000000000000 
1 0.00000000000000000 -2974.29888094641728458 1.00000000000000000 0.00000000000000000 
1 0.00000000000000000 0.00000000000000000 1.00000000000000000 0.00000000000000000 
1 0.00000000000000000 -3153.73257603904994539 1.00000000000000000 0.00000000000000000 
1 0.00000000000000000 0.00000000000000000 1.00000000000000000 0.00000000000000000 
1 0.00000000000000000 -3153.73257603904994539 1.00000000000000000 0.00000000000000000 
1 0.00000000000000000 0.00000000000000000 1.00000000000000000 0.00000000000000000 
1 0.00000000000000000 -3153.73257603904994539 1.00000000000000000 0.00000000000000000 
1 0.00000000000000000 0.00000000000000000 1.00000000000000000 0.00000000000000000 
1 0.00000000000000000 -3153.73257603904994539 1.00000000000000000 0.00000000000000000 
1 0.00000000000000000 0.00000000000000000 1.00000000000000000 0.00000000000000000 
1 0.00000000000000000 -3153.73257603904994539 1.00000000000000000 0.00000000000000000 
1 0.00000000000000000 0.00000000000000000 1.00000000000000000 0.00000000000000000 
1 0.00000000000000000 -3153.73257603904994539 1.00000000000000000 0.00000000000000000 
1 0.00000000000000000 0.00000000000000000 1.00000000000000000 0.00000000000000000 
1 0.00000000000000000 -3153.73257603904994539 1.00000000000000000 0.00000000000000000 
1 0.00000000000000000 0.00000000000000000 1.00000000000000000 0.00000000000000000 
1 0.00000000000000000 -3153.73257603904994539 1.00000000000000000 0.00000000000000000 
1 0.00000000000000000 0.00000000000000000 1.00000000000000000 0.00000000000000000 
1 0.00000000000000000 -3153.73257603904994539 1.00000000000000000 0.00000000000000000 
1 0.00000000000000000 0.00000000000000000 1.00000000000000000 0.00000000000000000 
1 0.00000000000000000 -3153.73257603904994539 1.00000000000000000 0.00000000000000000 
1 0.00000000000000000 0.00000000000000000 1.00000000000000000 0.00000000000000000 
1 0.00000000000000000 -3153.73257603904994539 1.00000000000000000 0.00000000000000000 
1 0.00000000000000000 0.00000000000000000 1.00000000000000000 0.00000000000000000 
1 0.00000000000000000 -3153.73257603904994539 1.00000000000000000 0.00000000000000000 
1 0.00000000000000000 0.00000000000000000 1.00000000000000000 0.00000000000000000 
1 0.00000000000000000 -3153.73257603904994539 1.00000000000000000 0.00000000000000000 
1 0.00000000000000000 0.00000000000000000 1.00000000000000000 0.00000000000000000 
1 0.00000000000000000 -3153.73257603904994539 1.00000000000000000 0.00000000000000000 
1 0.00000000000000000 0.00000000000000000 1.00000000000000000 0.00000000000000000 
1 0.00000000000000000 -3153.73257603904994539 1.00000000000000000 0.00000000000000000 
1 0.00000000000000000 0.00000000000000000 1.00000000000000000 0.00000000000000000 
1 0.00000000000000000 -3153.73257603904994539 1.00000000000000000 0.00000000000000000 
1 0.00000000000000000 0.00000000000000000 1.00000000000000000 0.00000000000000000 
1 0.00000000000000000 -3153.73257603904994539 1.00000000000000000 0.00000000000000000 
1 0.00000000000000000 0.00000000000000000 1.00000000000000000 0.00000000000000000 
1 0.00000000000000000 -3153.73257603904994539 1.00000000000000000 0.00000000000000000 
1 0.00000000000000000 0.00000000000000000 1.00000000000000000 0.00000000000000000 
1 0.00000000000000000 -3153.73257603904994539 1.00000000000000000 0.00000000000000000 
1 0.00000000000000000 0.00000000000000000 1.00000000000000000 0.00000000000000000 
1 0.00000000000000000 -3153.73257603904994539 1.00000000000000000 0.00000000000000000 
1 0.00000000000000000 0.00000000000000000 1.00000000000000000 0.00000000000000000 
1 0.00000000000000000 -3153.73257603904994539 1.00000000000000000 0.00000000000000000 
1 0.00000000000000000 0.00000000000000000 1.00000000000000000 0.00000000000000000 
1 0.00000000000000000 -3153.73257603904994539 1.00000000000000000 0.00000000000000000 
1 0.00000000000000000 0.00000000000000000 1.00000000000000000 0.00000000000000000 
1 0.00000000000000000 -3153.73257603904994539 1.00000000000000000 0.00000000000000000 
1 0.00000000000000000 0.00000000000000000 1.00000000000000000 0.00000000000000000 
1 0.00000000000000000 -3153.73257603904994539 1.00000000000000000 0.00000000000000000 
1 0.00000000000000000 0.00000000000000000 1.00000000000000000 0.00000000000000000 
1 0.00000000000000000 -3153.73257603904994539 1.00000000000000000 0.00000000000000000 
1 0.00000000000000000 0.00000000000000000 0.00000000000000000 -1.00000000000000000 
1 6.28318530717958623 0.00000000000000000 0.00000000000000000 -1.00000000000000000 
1 0.00000000000000000 0.00000000000000000 0.00000000000000000 -1.00000000000000000 
1 6.28318530717958623 0.00000000000000000 0.00000000000000000 -1.00000000000000000 
1 0.00000000000000000 0.00000000000000000 0.00000000000000000 -1.00000000000000000 
1 6.28318530717958623 0.00000000000000000 0.00000000000000000 -1.00000000000000000 
1 0.00000000000000000 0.00000000000000000 0.00000000000000000 -1.00000000000000000 
1 6.28318530717958623 0.00000000000000000 0.00000000000000000 -1.00000000000000000 
Curves 6
1 0.00000000000000000 11.43205080756887604 1347.00000000000000000 -1.00000000000000000 0.00000000000000000 0.00000000000000000 
2 0.00000000000000000 0.00000000000000000 0.00000000000000000 0.00000000000000000 0.00000000000000000 1.00000000000000000 1.00000000000000000 0.00000000000000000 -0.00000000000000000 -0.00000000000000000 1.00000000000000000 0.00000000000000000 1.69999999999999996
1 0.00000000000000000 11.43205080756887604 1142.00000000000000000 -1.00000000000000000 0.00000000000000000 0.00000000000000000 
1 0.00000000000000000 11.43205080756887604 937.00000000000000000 -1.00000000000000000 0.00000000000000000 0.00000000000000000 
1 0.00000000000000000 11.43205080756887604 732.00000000000000000 -1.00000000000000000 0.00000000000000000 0.00000000000000000 
1 0.00000000000000000 11.43205080756887604 527.00000000000000000 -1.00000000000000000 0.00000000000000000 0.00000000000000000 
Polygon3D 0
PolygonOnTriangulations 0
Surfaces 55
2 0.00000000000000000 9.73205080756887675 1347.00000000000000000 1.00000000000000000 0.00000000000000000 0.00000000000000000 0.00000000000000000 1.00000000000000000 0.00000000000000000 0.00000000000000000 0.00000000000000000 1.00000000000000000 1.69999999999999996
2 -722.14651700632919074 -1295.37329628874977061 1347.00000000000045475 -0.50000000000000022 -0.86602540378443860 0.00000000000000011 0.86602540378443860 -0.50000000000000022 0.00000000000000035 -0.00000000000000025 0.00000000000000027 1.00000000000000000 1.70000000000000040
2 -722.14651700632907705 -1295.37329628874977061 1142.00000000000022737 -0.50000000000000022 -0.86602540378443860 0.00000000000000011 0.86602540378443860 -0.50000000000000022 0.00000000000000035 -0.00000000000000025 0.00000000000000027 1.00000000000000000 1.70000000000000040
2 -722.14651700632896336 -1295.37329628874999798 527.00000000000011369 -0.50000000000000022 -0.86602540378443860 0.00000000000000011 0.86602540378443860 -0.50000000000000022 0.00000000000000035 -0.00000000000000025 0.00000000000000027 1.00000000000000000 1.70000000000000040
2 -722.14651700632907705 -1295.37329628874999798 937.00000000000022737 -0.50000000000000022 -0.86602540378443860 0.00000000000000011 0.86602540378443860 -0.50000000000000022 0.00000000000000035 -0.00000000000000025 0.00000000000000027 1.00000000000000000 1.70000000000000040
2 -722.14651700632896336 -1295.37329628874999798 732.00000000000022737 -0.50000000000000022 -0.86602540378443860 0.00000000000000011 0.86602540378443860 -0.50000000000000022 0.00000000000000035 -0.00000000000000025 0.00000000000000027 1.00000000000000000 1.70000000000000040
2 0.00000000000000000 9.73205080756887675 1347.00000000000000000 1.00000000000000000 0.00000000000000000 0.00000000000000000 -0.00000000000000000 1.00000000000000000 0.00000000000000000 0.00000000000000000 -0.00000000000000000 1.00000000000000000 1.69999999999999996
2 0.00000000000000000 9.73205080756887675 1142.00000000000000000 1.00000000000000000 0.00000000000000000 0.00000000000000000 -0.00000000000000000 1.00000000000000000 0.00000000000000000 0.00000000000000000 -0.00000000000000000 1.00000000000000000 1.69999999999999996
2 0.00000000000000000 9.73205080756887675 937.00000000000000000 1.00000000000000000 0.00000000000000000 0.00000000000000000 -0.00000000000000000 1.00000000000000000 0.00000000000000000 0.00000000000000000 -0.00000000000000000 1.00000000000000000 1.69999999999999996
2 0.00000000000000000 9.73205080756887675 732.00000000000000000 1.00000000000000000 0.00000000000000000 0.00000000000000000 -0.00000000000000000 1.00000000000000000 0.00000000000000000 0.00000000000000000 -0.00000000000000000 1.00000000000000000 1.69999999999999996
2 0.00000000000000000 9.73205080756887675 527.00000000000000000 1.00000000000000000 0.00000000000000000 0.00000000000000000 -0.00000000000000000 1.00000000000000000 0.00000000000000000 0.00000000000000000 -0.00000000000000000 1.00000000000000000 1.69999999999999996
2 -722.14651700632919074 -1295.37329628874977061 1347.00000000000045475 -0.50000000000000022 -0.86602540378443860 0.00000000000000011 0.86602540378443860 -0.50000000000000022 0.00000000000000035 -0.00000000000000025 0.00000000000000027 1.00000000000000000 1.70000000000000040
2 -722.14651700632907705 -1295.37329628874977061 1142.00000000000022737 -0.50000000000000022 -0.86602540378443860 0.00000000000000011 0.86602540378443860 -0.50000000000000022 0.00000000000000035 -0.00000000000000025 0.00000000000000027 1.00000000000000000 1.70000000000000040
2 -722.14651700632907705 -1295.37329628874999798 937.00000000000022737 -0.50000000000000022 -0.86602540378443860 0.00000000000000011 0.86602540378443860 -0.50000000000000022 0.00000000000000035 -0.00000000000000025 0.00000000000000027 1.00000000000000000 1.70000000000000040
2 -722.14651700632896336 -1295.37329628874999798 732.00000000000022737 -0.50000000000000022 -0.86602540378443860 0.00000000000000011 0.86602540378443860 -0.50000000000000022 0.00000000000000035 -0.00000000000000025 0.00000000000000027 1.00000000000000000 1.70000000000000040
2 -722.14651700632896336 -1295.37329628874999798 527.00000000000011369 -0.50000000000000022 -0.86602540378443860 0.00000000000000011 0.86602540378443860 -0.50000000000000022 0.00000000000000035 -0.00000000000000025 0.00000000000000027 1.00000000000000000 1.70000000000000040
2 0.00000000000000000 9.73205080756887675 1347.00000000000000000 1.00000000000000000 0.00000000000000000 0.00000000000000000 -0.00000000000000000 1.00000000000000000 0.00000000000000000 0.00000000000000000 -0.00000000000000000 1.00000000000000000 1.69999999999999996
2 0.00000000000000000 9.73205080756887675 1142.00000000000000000 1.00000000000000000 0.00000000000000000 0.00000000000000000 -0.00000000000000000 1.00000000000000000 0.00000000000000000 0.00000000000000000 -0.00000000000000000 1.00000000000000000 1.69999999999999996
2 0.00000000000000000 9.73205080756887675 937.00000000000000000 1.00000000000000000 0.00000000000000000 0.00000000000000000 -0.00000000000000000 1.00000000000000000 0.00000000000000000 0.00000000000000000 -0.00000000000000000 1.00000000000000000 1.69999999999999996
2 0.00000000000000000 9.73205080756887675 732.00000000000000000 1.00000000000000000 0.00000000000000000 0.00000000000000000 -0.00000000000000000 1.00000000000000000 0.00000000000000000 0.00000000000000000 -0.00000000000000000 1.00000000000000000 1.69999999999999996
2 0.00000000000000000 9.73205080756887675 527.00000000000000000 1.00000000000000000 0.00000000000000000 0.00000000000000000 -0.00000000000000000 1.00000000000000000 0.00000000000000000 0.00000000000000000 -0.00000000000000000 1.00000000000000000 1.69999999999999996
2 -722.14651700632919074 -1295.37329628874977061 1347.00000000000045475 -0.50000000000000022 -0.86602540378443860 0.00000000000000011 0.86602540378443860 -0.50000000000000022 0.00000000000000035 -0.00000000000000025 0.00000000000000027 1.00000000000000000 1.70000000000000040
2 -722.14651700632907705 -1295.37329628874977061 1142.00000000000022737 -0.50000000000000022 -0.86602540378443860 0.00000000000000011 0.86602540378443860 -0.50000000000000022 0.00000000000000035 -0.00000000000000025 0.00000000000000027 1.00000000000000000 1.70000000000000040
2 -722.14651700632907705 -1295.37329628874999798 937.00000000000022737 -0.50000000000000022 -0.86602540378443860 0.00000000000000011 0.86602540378443860 -0.50000000000000022 0.00000000000000035 -0.00000000000000025 0.00000000000000027 1.00000000000000000 1.70000000000000040
2 -722.14651700632896336 -1295.37329628874999798 732.00000000000022737 -0.50000000000000022 -0.86602540378443860 0.00000000000000011 0.86602540378443860 -0.50000000000000022 0.00000000000000035 -0.00000000000000025 0.00000000000000027 1.00000000000000000 1.70000000000000040
2 -722.14651700632896336 -1295.37329628874999798 527.00000000000011369 -0.50000000000000022 -0.86602540378443860 0.00000000000000011 0.86602540378443860 -0.50000000000000022 0.00000000000000035 -0.00000000000000025 0.00000000000000027 1.00000000000000000 1.70000000000000040
2 0.00000000000000000 9.73205080756887675 1347.00000000000000000 1.00000000000000000 0.00000000000000000 0.00000000000000000 -0.00000000000000000 1.00000000000000000 0.00000000000000000 0.00000000000000000 -0.00000000000000000 1.00000000000000000 1.69999999999999996
2 0.00000000000000000 9.73205080756887675 1142.00000000000000000 1.00000000000000000 0.00000000000000000 0.00000000000000000 -0.00000000000000000 1.00000000000000000 0.00000000000000000 0.00000000000000000 -0.00000000000000000 1.00000000000000000 1.69999999999999996
2 0.00000000000000000 9.73205080756887675 937.00000000000000000 1.00000000000000000 0.00000000000000000 0.00000000000000000 -0.00000000000000000 1.00000000000000000 0.00000000000000000 0.00000000000000000 -0.00000000000000000 1.00000000000000000 1.69999999999999996
2 0.00000000000000000 9.73205080756887675 732.00000000000000000 1.00000000000000000 0.00000000000000000 0.00000000000000000 -0.00000000000000000 1.00000000000000000 0.00000000000000000 0.00000000000000000 -0.00000000000000000 1.00000000000000000 1.69999999999999996
2 0.00000000000000000 9.73205080756887675 527.00000000000000000 1.00000000000000000 0.00000000000000000 0.00000000000000000 -0.00000000000000000 1.00000000000000000 0.00000000000000000 0.00000000000000000 -0.00000000000000000 1.00000000000000000 1.69999999999999996
2 0.00000000000000000 9.73205080756887675 1347.00000000000000000 1.00000000000000000 0.00000000000000000 0.00000000000000000 -0.00000000000000000 1.00000000000000000 0.00000000000000000 0.00000000000000000 -0.00000000000000000 1.00000000000000000 1.69999999999999996
2 0.00000000000000000 9.73205080756887675 1142.00000000000000000 1.00000000000000000 0.00000000000000000 0.00000000000000000 -0.00000000000000000 1.00000000000000000 0.00000000000000000 0.00000000000000000 -0.00000000000000000 1.00000000000000000 1.69999999999999996
2 0.00000000000000000 9.73205080756887675 937.00000000000000000 1.00000000000000000 0.00000000000000000 0.00000000000000000 -0.00000000000000000 1.00000000000000000 0.00000000000000000 0.00000000000000000 -0.00000000000000000 1.00000000000000000 1.69999999999999996
2 0.00000000000000000 9.73205080756887675 732.00000000000000000 1.00000000000000000 0.00000000000000000 0.00000000000000000 -0.00000000000000000 1.00000000000000000 0.00000000000000000 0.00000000000000000 -0.00000000000000000 1.00000000000000000 1.69999999999999996
2 0.00000000000000000 9.73205080756887675 527.00000000000000000 1.00000000000000000 0.00000000000000000 0.00000000000000000 -0.00000000000000000 1.00000000000000000 0.00000000000000000 0.00000000000000000 -0.00000000000000000 1.00000000000000000 1.69999999999999996
2 0.00000000000000000 9.73205080756887675 1347.00000000000000000 1.00000000000000000 0.00000000000000000 0.00000000000000000 -0.00000000000000000 1.00000000000000000 0.00000000000000000 0.00000000000000000 -0.00000000000000000 1.00000000000000000 1.69999999999999996
2 0.00000000000000000 9.73205080756887675 1142.00000000000000000 1.00000000000000000 0.00000000000000000 0.00000000000000000 -0.00000000000000000 1.00000000000000000 0.00000000000000000 0.00000000000000000 -0.00000000000000000 1.00000000000000000 1.69999999999999996
2 0.00000000000000000 9.73205080756887675 937.00000000000000000 1.00000000000000000 0.00000000000000000 0.00000000000000000 -0.00000000000000000 1.00000000000000000 0.00000000000000000 0.00000000000000000 -0.00000000000000000 1.00000000000000000 1.69999999999999996
2 0.00000000000000000 9.73205080756887675 732.00000000000000000 1.00000000000000000 0.00000000000000000 0.00000000000000000 -0.00000000000000000 1.00000000000000000 0.00000000000000000 0.00000000000000000 -0.00000000000000000 1.00000000000000000 1.69999999999999996
2 0.00000000000000000 9.73205080756887675 527.00000000000000000 1.00000000000000000 0.00000000000000000 0.00000000000000000 -0.00000000000000000 1.00000000000000000 0.00000000000000000 0.00000000000000000 -0.00000000000000000 1.00000000000000000 1.69999999999999996
2 0.00000000000000000 9.73205080756887675 1347.00000000000000000 1.00000000000000000 0.00000000000000000 0.00000000000000000 -0.00000000000000000 1.00000000000000000 0.00000000000000000 0.00000000000000000 -0.00000000000000000 1.00000000000000000 1.69999999999999996
2 0.00000000000000000 9.73205080756887675 1142.00000000000000000 1.00000000000000000 0.00000000000000000 0.00000000000000000 -0.00000000000000000 1.00000000000000000 0.00000000000000000 0.00000000000000000 -0.00000000000000000 1.00000000000000000 1.69999999999999996
2 0.00000000000000000 9.73205080756887675 937.00000000000000000 1.00000000000000000 0.00000000000000000 0.00000000000000000 -0.00000000000000000 1.00000000000000000 0.00000000000000000 0.00000000000000000 -0.00000000000000000 1.00000000000000000 1.69999999999999996
2 0.00000000000000000 9.73205080756887675 732.00000000000000000 1.00000000000000000 0.00000000000000000 0.00000000000000000 -0.00000000000000000 1.00000000000000000 0.00000000000000000 0.00000000000000000 -0.00000000000000000 1.00000000000000000 1.69999999999999996
2 0.00000000000000000 9.73205080756887675 527.00000000000000000 1.00000000000000000 0.00000000000000000 0.00000000000000000 -0.00000000000000000 1.00000000000000000 0.00000000000000000 0.00000000000000000 -0.00000000000000000 1.00000000000000000 1.69999999999999996
2 0.00000000000000000 9.73205080756887675 1142.00000000000000000 1.00000000000000000 0.00000000000000000 0.00000000000000000 0.00000000000000000 1.00000000000000000 0.00000000000000000 0.00000000000000000 0.00000000000000000 1.00000000000000000 1.69999999999999996
2 0.00000000000000000 9.73205080756887675 937.00000000000000000 1.00000000000000000 0.00000000000000000 0.00000000000000000 0.00000000000000000 1.00000000000000000 0.00000000000000000 0.00000000000000000 0.00000000000000000 1.00000000000000000 1.69999999999999996
2 0.00000000000000000 9.73205080756887675 732.00000000000000000 1.00000000000000000 0.00000000000000000 0.00000000000000000 0.00000000000000000 1.00000000000000000 0.00000000000000000 0.00000000000000000 0.00000000000000000 1.00000000000000000 1.69999999999999996
2 0.00000000000000000 9.73205080756887675 527.00000000000000000 1.00000000000000000 0.00000000000000000 0.00000000000000000 0.00000000000000000 1.00000000000000000 0.00000000000000000 0.00000000000000000 0.00000000000000000 1.00000000000000000 1.69999999999999996
1 0.00000000000000000 0.00000000000000162 409.99999999999783995 1.00000000000000000 0.00000000000000000 0.00000000000000000 -0.00000000000000000 0.00000000000000000 1.00000000000000000 0.00000000000000000 -1.00000000000000000 0.00000000000000000 
1 0.00000000000000000 0.00000000000000162 409.99999999999783995 1.00000000000000000 0.00000000000000000 0.00000000000000000 -0.00000000000000000 0.00000000000000000 1.00000000000000000 0.00000000000000000 -1.00000000000000000 0.00000000000000000 
1 0.00000000000000000 0.00000000000000162 409.99999999999783995 1.00000000000000000 0.00000000000000000 0.00000000000000000 -0.00000000000000000 0.00000000000000000 1.00000000000000000 0.00000000000000000 -1.00000000000000000 0.00000000000000000 
1 0.00000000000000000 0.00000000000000162 409.99999999999783995 1.00000000000000000 0.00000000000000000 0.00000000000000000 -0.00000000000000000 0.00000000000000000 1.00000000000000000 0.00000000000000000 -1.00000000000000000 0.00000000000000000 
1 0.00000000000000000 0.00000000000000162 409.99999999999783995 1.00000000000000000 0.00000000000000000 0.00000000000000000 -0.00000000000000000 0.00000000000000000 1.00000000000000000 0.00000000000000000 -1.00000000000000000 0.00000000000000000 
Triangulations 0

TShapes 38
Ve
0.000000100000000
0.000000000000000 1.700000000000000 0.000000000000000
0 0

0101101
*
Ed
 0.000000100000000 1 1 0
1  1 0 0.000000000000000 3153.732576039049945
3  1 2CN 1 0 0.000000000000000 3153.732576039049945
0

0101000
+38 9 -38 11 *
Ed
 0.000000100000000 1 1 0
1  2 0 0.000000000000000 6.283185307179586
2  3 2 20 0.000000000000000 6.283185307179586
2  4 2 22 0.000000000000000 6.283185307179586
2  5 3 24 0.000000000000000 6.283185307179586
2  6 3 25 0.000000000000000 6.283185307179586
2  7 4 27 0.000000000000000 6.283185307179586
2  8 4 28 0.000000000000000 6.283185307179586
2  9 5 30 0.000000000000000 6.283185307179586
2  10 5 31 0.000000000000000 6.283185307179586
2  11 6 33 0.000000000000000 6.283185307179586
2  12 6 34 0.000000000000000 6.283185307179586
2  13 7 38 0.000000000000000 6.283185307179586
2  14 7 40 0.000000000000000 6.283185307179586
2  15 8 41 0.000000000000000 6.283185307179586
2  16 8 42 0.000000000000000 6.283185307179586
2  17 9 43 0.000000000000000 6.283185307179586
2  18 9 44 0.000000000000000 6.283185307179586
2  19 10 45 0.000000000000000 6.283185307179586
2  20 10 46 0.000000000000000 6.283185307179586
2  21 11 47 0.000000000000000 6.283185307179586
2  22 11 48 0.000000000000000 6.283185307179586
2  23 12 55 0.000000000000000 6.283185307179586
2  24 12 57 0.000000000000000 6.283185307179586
2  25 13 58 0.000000000000000 6.283185307179586
2  26 13 59 0.000000000000000 6.283185307179586
2  27 14 60 0.000000000000000 6.283185307179586
2  28 14 61 0.000000000000000 6.283185307179586
2  29 15 62 0.000000000000000 6.283185307179586
2  30 15 63 0.000000000000000 6.283185307179586
2  31 16 64 0.000000000000000 6.283185307179586
2  32 16 65 0.000000000000000 6.283185307179586
2  33 17 69 0.000000000000000 6.283185307179586
2  34 17 71 0.000000000000000 6.283185307179586
2  35 18 72 0.000000000000000 6.283185307179586
2  36 18 73 0.000000000000000 6.283185307179586
2  37 19 74 0.000000000000000 6.283185307179586
2  38 19 75 0.000000000000000 6.283185307179586
2  39 20 76 0.000000000000000 6.283185307179586
2  40 20 77 0.000000000000000 6.283185307179586
2  41 21 78 0.000000000000000 6.283185307179586
2  42 21 79 0.000000000000000 6.283185307179586
2  43 22 86 0.000000000000000 6.283185307179586
2  44 22 88 0.000000000000000 6.283185307179586
2  45 23 89 0.000000000000000 6.283185307179586
2  46 23 90 0.000000000000000 6.283185307179586
2  47 24 91 0.000000000000000 6.283185307179586
2  48 24 92 0.000000000000000 6.283185307179586
2  49 25 93 0.000000000000000 6.283185307179586
2  50 25 94 0.000000000000000 6.283185307179586
2  51 26 95 0.000000000000000 6.283185307179586
2  52 26 96 0.000000000000000 6.283185307179586
2  53 27 100 0.000000000000000 6.283185307179586
2  54 27 102 0.000000000000000 6.283185307179586
2  55 28 103 0.000000000000000 6.283185307179586
2  56 28 104 0.000000000000000 6.283185307179586
2  57 29 105 0.000000000000000 6.283185307179586
2  58 29 106 0.000000000000000 6.283185307179586
2  59 30 107 0.000000000000000 6.283185307179586
2  60 30 108 0.000000000000000 6.283185307179586
2  61 31 109 0.000000000000000 6.283185307179586
2  62 31 110 0.000000000000000 6.283185307179586
2  63 32 114 0.000000000000000 6.283185307179586
2  64 32 116 0.000000000000000 6.283185307179586
2  65 33 117 0.000000000000000 6.283185307179586
2  66 33 118 0.000000000000000 6.283185307179586
2  67 34 119 0.000000000000000 6.283185307179586
2  68 34 120 0.000000000000000 6.283185307179586
2  69 35 121 0.000000000000000 6.283185307179586
2  70 35 122 0.000000000000000 6.283185307179586
2  71 36 123 0.000000000000000 6.283185307179586
2  72 36 124 0.000000000000000 6.283185307179586
2  73 37 128 0.000000000000000 6.283185307179586
2  74 37 130 0.000000000000000 6.283185307179586
2  75 38 131 0.000000000000000 6.283185307179586
2  76 38 132 0.000000000000000 6.283185307179586
2  77 39 133 0.000000000000000 6.283185307179586
2  78 39 134 0.000000000000000 6.283185307179586
2  79 40 135 0.000000000000000 6.283185307179586
2  80 40 136 0.000000000000000 6.283185307179586
2  81 41 137 0.000000000000000 6.283185307179586
2  82 41 138 0.000000000000000 6.283185307179586
2  83 42 142 0.000000000000000 6.283185307179586
2  84 42 144 0.000000000000000 6.283185307179586
2  85 43 145 0.000000000000000 6.283185307179586
2  86 43 146 0.000000000000000 6.283185307179586
2  87 44 147 0.000000000000000 6.283185307179586
2  88 44 148 0.000000000000000 6.283185307179586
2  89 45 149 0.000000000000000 6.283185307179586
2  90 45 150 0.000000000000000 6.283185307179586
2  91 46 151 0.000000000000000 6.283185307179586
2  92 46 152 0.000000000000000 6.283185307179586
2  93 1 153 0.000000000000000 6.283185307179586
2  94 1 154 0.000000000000000 6.283185307179586
2  95 47 155 0.000000000000000 6.283185307179586
2  96 47 156 0.000000000000000 6.283185307179586
2  97 48 157 0.000000000000000 6.283185307179586
2  98 48 158 0.000000000000000 6.283185307179586
2  99 49 159 0.000000000000000 6.283185307179586
2  100 49 160 0.000000000000000 6.283185307179586
2  101 50 161 0.000000000000000 6.283185307179586
2  102 50 162 0.000000000000000 6.283185307179586
0

0101100
+38 163 -38 163 *
Wi

0101100
+37 0 -37 0 -36 13 +36 164 *
Fa
0  0.000000100000000 1 0

0101000
+35 0 *
Wi

0101100
+36 166 *
Fa
0  0.000000100000000 51 0

0101000
+33 0 *
Sh

0101100
+34 0 +32 165 -32 167 *
So

0100000
+31 0 *
Ed
 0.000000100000000 1 1 0
1  3 0 0.000000000000000 3153.732576039049945
3  103 104CN 47 0 0.000000000000000 3153.732576039049945
0

0101000
+38 168 -38 169 *
Wi

0101100
+29 0 -29 0 -36 170 +36 171 *
Fa
0  0.000000100000000 47 0

0101000
+28 0 *
Wi

0101100
+36 172 *
Fa
0  0.000000100000000 52 0

0101000
+26 0 *
Sh

0101100
+27 0 +25 165 -25 167 *
So

0100000
+24 0 *
Ed
 0.000000100000000 1 1 0
1  4 0 0.000000000000000 3153.732576039049945
3  105 106CN 48 0 0.000000000000000 3153.732576039049945
0

0101000
+38 173 -38 174 *
Wi

0101100
+22 0 -22 0 -36 175 +36 176 *
Fa
0  0.000000100000000 48 0

0101000
+21 0 *
Wi

0101100
+36 177 *
Fa
0  0.000000100000000 53 0

0101000
+19 0 *
Sh

0101100
+20 0 +18 165 -18 167 *
So

0100000
+17 0 *
Ed
 0.000000100000000 1 1 0
1  5 0 0.000000000000000 3153.732576039049945
3  107 108CN 49 0 0.000000000000000 3153.732576039049945
0

0101000
+38 178 -38 179 *
Wi

0101100
+15 0 -15 0 -36 180 +36 181 *
Fa
0  0.000000100000000 49 0

0101000
+14 0 *
Wi

0101100
+36 182 *
Fa
0  0.000000100000000 54 0

0101000
+12 0 *
Sh

0101100
+13 0 +11 165 -11 167 *
So

0100000
+10 0 *
Ed
 0.000000100000000 1 1 0
1  6 0 0.000000000000000 3153.732576039049945
3  109 110CN 50 0 0.000000000000000 3153.732576039049945
0

0101000
+38 183 -38 184 *
Wi

0101100
+8 0 -8 0 -36 185 +36 186 *
Fa
0  0.000000100000000 50 0

0101000
+7 0 *
Wi

0101100
+36 187 *
Fa
0  0.000000100000000 55 0

0101000
+5 0 *
Sh

0101100
+6 0 +4 165 -4 167 *
So

0100000
+3 0 *
Co

1100000
+30 0 +23 0 +16 0 +9 0 +2 0 *

+1 0 