
CASCADE Topology V1, (c) Matra-Datavision
Locations 26
1
1.000000000000000 0.000000000000000 0.000000000000000 0.000000000000000 
0.000000000000000 1.000000000000000 0.000000000000000 0.000000000000000 
0.000000000000000 0.000000000000000 1.000000000000000 0.000000000000000 
1
1.000000000000000 0.000000000000000 0.000000000000000 0.000000000000000 
0.000000000000000 0.993288078374917 -0.115666734017457 0.000000000000000 
0.000000000000000 0.115666734017457 0.993288078374917 0.000000000000000 
1
1.000000000000000 0.000000000000000 0.000000000000000 0.000000000000000 
0.000000000000000 1.000000000000000 0.000000000000000 0.000000000000000 
0.000000000000000 0.000000000000000 1.000000000000000 0.000000000000000 
2  1 1 2 1 3 -1 0
1
1.000000000000000 0.000000000000000 0.000000000000000 -0.000000000000000 
0.000000000000000 1.000000000000000 0.000000000000000 -0.578333670087287 
0.000000000000000 0.000000000000000 1.000000000000000 4.966440391874583 
2  1 1 2 1 3 -1 5 1 0
2  3 1 2 -1 1 -1 0
2  5 -1 3 1 2 -1 1 -1 0
2  2 -1 1 -1 0
1
1.000000000000000 0.000000000000000 0.000000000000000 0.000000000000000 
0.000000000000000 0.993288078374917 -0.115666734017457 0.000000000000000 
0.000000000000000 0.115666734017457 0.993288078374917 0.000000000000000 
1
1.000000000000000 0.000000000000000 0.000000000000000 0.000000000000000 
0.000000000000000 0.993288078374917 -0.115666734017457 0.000000000000000 
0.000000000000000 0.115666734017457 0.993288078374917 0.000000000000000 
1
1.000000000000000 0.000000000000000 0.000000000000000 0.000000000000000 
0.000000000000000 1.000000000000000 0.000000000000000 0.000000000000000 
0.000000000000000 0.000000000000000 1.000000000000000 0.000000000000000 
1
1.000000000000000 0.000000000000000 0.000000000000000 0.000000000000000 
0.000000000000000 1.000000000000000 0.000000000000000 0.000000000000000 
0.000000000000000 0.000000000000000 1.000000000000000 0.000000000000000 
1
1.000000000000000 0.000000000000000 0.000000000000000 0.000000000000000 
0.000000000000000 1.000000000000000 0.000000000000000 0.000000000000000 
0.000000000000000 0.000000000000000 1.000000000000000 0.000000000000000 
1
1.000000000000000 0.000000000000000 0.000000000000000 0.000000000000000 
0.000000000000000 1.000000000000000 0.000000000000000 0.000000000000000 
0.000000000000000 0.000000000000000 1.000000000000000 0.000000000000000 
1
1.000000000000000 0.000000000000000 0.000000000000000 0.000000000000000 
0.000000000000000 1.000000000000000 0.000000000000000 0.000000000000000 
0.000000000000000 0.000000000000000 1.000000000000000 0.000000000000000 
1
1.000000000000000 0.000000000000000 0.000000000000000 0.000000000000000 
0.000000000000000 1.000000000000000 0.000000000000000 0.000000000000000 
0.000000000000000 0.000000000000000 1.000000000000000 0.000000000000000 
1
1.000000000000000 0.000000000000000 0.000000000000000 0.000000000000000 
0.000000000000000 1.000000000000000 0.000000000000000 0.000000000000000 
0.000000000000000 0.000000000000000 1.000000000000000 0.000000000000000 
1
1.000000000000000 0.000000000000000 0.000000000000000 0.000000000000000 
0.000000000000000 1.000000000000000 0.000000000000000 0.000000000000000 
0.000000000000000 0.000000000000000 1.000000000000000 0.000000000000000 
1
1.000000000000000 0.000000000000000 0.000000000000000 0.000000000000000 
0.000000000000000 1.000000000000000 0.000000000000000 0.000000000000000 
0.000000000000000 0.000000000000000 1.000000000000000 0.000000000000000 
1
1.000000000000000 0.000000000000000 0.000000000000000 0.000000000000000 
0.000000000000000 1.000000000000000 0.000000000000000 0.000000000000000 
0.000000000000000 0.000000000000000 1.000000000000000 0.000000000000000 
1
1.000000000000000 0.000000000000000 0.000000000000000 0.000000000000000 
0.000000000000000 1.000000000000000 0.000000000000000 0.000000000000000 
0.000000000000000 0.000000000000000 1.000000000000000 0.000000000000000 
2  10 -1 11 1 12 1 13 1 14 1 15 -1 16 1 17 -1 18 1 19 -1 20 1 21 -1 22 1 2 -1 1 -1 0
2  3 -1 0
2  1 1 2 1 0
2  3 -1 5 1 0
Curve2ds 21
1 5.63474060023121659 0.00000000000000000 0.00000000000000000 -1.00000000000000000 
1 0.00000000000000000 0.00000000000000000 0.00000000000000003 -1.00000000000000000 
1 6.83744726853013063 0.00000000000000000 0.00000000000000000 -1.00000000000000000 
1 0.55426196135054129 0.00000000000000000 0.00000000000000000 -1.00000000000000000 
1 0.00000000000000000 0.00000000000000000 1.00000000000000000 0.00000000000000000 
1 0.00000000000000000 -4.99999999999999911 1.00000000000000000 0.00000000000000000 
2 0.16409001162876172 1.54146577372370075 0.00000000000000000 -1.00000000000000000 1.00000000000000000 0.00000000000000000 1.50000000000000000
2 24.38005556803611995 -292.28857275333871257 0.00000000000000000 -1.00000000000000000 1.00000000000000000 0.00000000000000000 1.50000000000000000
1 0.52651981901076517 0.00000000000000000 0.00000000000000000 -1.00000000000000000 
1 0.94222248012513532 -0.00000000000000348 -0.00000000000000003 -1.00000000000000000 
1 0.00000000000000000 0.00000000000000000 1.00000000000000000 0.00000000000000000 
1 0.00000000000000000 -4.99999999999999911 1.00000000000000000 0.00000000000000000 
2 -27.99381049787260878 47.03193333448882640 0.00000000000000000 -1.00000000000000000 1.00000000000000000 0.00000000000000000 55.00000000000000000
1 0.00000000000000000 0.00000000000000000 -0.00000000000000003 -1.00000000000000000 
1 0.10000000000004700 0.00000000000000218 0.00000000000000003 -1.00000000000000000 
1 0.00000000000000000 0.00000000000000000 1.00000000000000000 0.00000000000000000 
1 -0.00000000000000150 -4.99999999999999822 1.00000000000000000 0.00000000000000000 
1 -0.82828740334101680 0.29567690130028268 0.50252756108121832 -0.86456118947924243 
1 0.00000000000000000 0.00000000000000000 1.00000000000000000 0.00000000000000000 
1 0.00000000000000222 -5.00000000000000089 1.00000000000000000 0.00000000000000000 
1 -0.74183128439308033 0.34592965740847603 -0.86456118947899741 -0.50252756108163987 
Curves 8
1 293.48410886965393729 172.76247207522857252 20.11790067833808138 -0.00000000000000000 -0.11566673401745739 0.99328807837491684 
1 293.56400642326667594 174.44648785799398638 20.31400149729184079 -0.00000000000000000 -0.11566673401745739 0.99328807837491684 
2 292.28857275333871257 174.83579706567678613 0.00000000000000000 0.00000000000000000 0.00000000000000000 1.00000000000000000 1.00000000000000000 0.00000000000000000 -0.00000000000000000 -0.00000000000000000 1.00000000000000000 0.00000000000000000 1.50000000000000000
1 294.34897061393320428 173.14691096157991979 20.16266794312426569 -0.00000000000000000 -0.11566673401745739 0.99328807837491684 
2 246.79810519257358692 146.67789655617539779 0.00000000000000000 0.00000000000000000 0.00000000000000000 1.00000000000000000 1.00000000000000000 0.00000000000000000 -0.00000000000000000 -0.00000000000000000 1.00000000000000000 0.00000000000000000 55.00000000000000000
1 293.53436162576213064 172.67659624297502319 20.10790058142354653 -0.00000000000000000 -0.11566673401745739 0.99328807837491684 
1 293.53436162576213064 173.84341965070700553 0.00000000000000000 0.86456118947924243 0.50252756108121832 0.00000000000000000 
1 293.48410886965393729 173.92987576965495577 0.00000000000000000 0.50252756108163987 -0.86456118947899729 0.00000000000000000 
Polygon3D 0
PolygonOnTriangulations 0
Surfaces 6
2 292.28857275333871257 173.66231289851302222 20.22268563592578872 -0.00000000000000000 0.11566673401745736 -0.99328807837491684 1.00000000000000000 0.00000000000000000 0.00000000000000000 -0.00000000000000000 0.99328807837491684 0.11566673401745736 1.50000000000000000
1 293.48410886965393729 172.76247207522857252 20.11790067833808138 0.86456118947899741 0.49915463547721567 0.05812572174407160 0.50252756108163987 -0.85875832253512563 -0.10000096914528374 0.00000000000000001 0.11566673401745735 -0.99328807837491673 
2 246.79810519257358692 145.69340601035830218 16.96575324720326350 -0.00000000000000000 0.11566673401745736 -0.99328807837491684 1.00000000000000000 0.00000000000000000 0.00000000000000000 -0.00000000000000000 0.99328807837491684 0.11566673401745736 55.00000000000000000
1 293.83003852706241332 173.49932424618177151 20.20370588019580183 -0.00000000000000258 -0.11566673401745760 0.99328807837491673 0.00000000000000000 0.99328807837491673 0.11566673401745760 -1.00000000000000000 0.00000000000000030 -0.00000000000000256 
1 0.00000000000000561 149.44589435266473743 17.40272423320693207 -0.00000000000000000 -0.11566673401745739 0.99328807837491684 0.00000000000000000 0.99328807837491684 0.11566673401745739 -1.00000000000000000 0.00000000000000000 0.00000000000000000 
1 293.53436162576213064 172.67659624297502319 20.10790058142354653 -0.50252756108121832 0.85875832253536899 0.10000096914531210 0.86456118947924243 0.49915463547679700 0.05812572174402283 -0.00000000000000003 0.11566673401745739 -0.99328807837491684 
Triangulations 0

TShapes 24
Ve
0.000000150000222
293.484108869653937 173.929875769654956 0.000000000000000
0 0

0101101
*
Ed
 0.000000100000000 1 1 0
1  1 0 0.000000000000000 4.999999999999999
2  1 1 0 0.000000000000000 4.999999999999999
2  2 2 0 0.000000000000000 4.999999999999999
0

0101000
+24 4 -24 6 *
Ve
0.000001663051722
293.564006423266676 175.625270911737573 0.000000000000000
0 0

0101101
*
Ed
 0.000000100000000 1 1 0
1  2 0 0.000000000000000 4.999999999999999
2  3 1 0 0.000000000000000 4.999999999999999
2  4 3 0 0.000000000000000 4.999999999999999
0

0101000
+22 4 -22 6 *
Ed
 0.000000100000014 1 1 0
1  3 0 5.634740600231217 6.837447268530131
2  5 1 7 5.634740600231217 6.837447268530131
2  6 1 8 5.634740600231217 6.837447268530131
2  7 4 9 5.634740600231217 6.837447268530131
2  8 5 23 5.634740600231217 6.837447268530131
0

0101000
+24 0 -22 0 *
Wi

0101100
+23 0 -21 0 -20 4 +20 6 *
Fa
0  0.000000100000000 1 0

0111000
+19 0 *
Ve
0.000000100000000
294.348970613933204 174.316912415640189 0.000000000000000
0 0

0101101
*
Ed
 0.000000100000000 1 1 0
1  4 0 0.000000000000000 4.999999999999999
2  9 3 0 0.000000000000000 4.999999999999999
2  10 6 0 0.000000000000000 4.999999999999999
0

0101000
+17 4 -17 6 *
Ed
 0.000000100000000 1 1 0
1  5 0 0.526519819010765 0.554261961350541
2  11 3 7 0.526519819010765 0.554261961350541
2  12 3 8 0.526519819010765 0.554261961350541
2  13 4 9 0.526519819010765 0.554261961350541
0

0101000
+17 0 -22 0 *
Wi

0101100
+16 0 -21 0 -15 4 +15 6 *
Fa
0  0.000000100000000 3 0

0111000
+14 0 *
Ve
0.000000100000000
293.534361625762131 173.843419650707006 0.000000000000000
0 0

0101101
*
Ed
 0.000000100000000 1 1 0
1  6 0 0.000000000000000 4.999999999999999
2  14 6 0 0.000000000000000 4.999999999999999
2  15 2 0 0.000000000000000 4.999999999999999
0

0101000
+12 4 -12 6 *
Ed
 0.000000100000000 1 1 0
1  7 0 0.000000000000000 0.942222480125141
2  16 6 7 0.000000000000000 0.942222480125141
2  17 6 8 0.000000000000000 0.942222480125141
2  18 4 9 0.000000000000000 0.942222480125141
0

0101000
+12 0 -17 0 *
Wi

0101100
+11 0 -16 0 -10 4 +10 6 *
Fa
0  0.000000100000000 6 0

0111000
+9 0 *
Ed
 0.000000100000000 1 1 0
1  8 0 0.000000000000000 0.100000000000058
2  19 2 7 0.000000000000000 0.100000000000058
2  20 2 8 0.000000000000000 0.100000000000058
2  21 4 9 0.000000000000000 0.100000000000058
0

0101000
+24 0 -12 0 *
Wi

0101100
+23 0 -11 0 -7 4 +7 6 *
Fa
0  0.000000100000000 2 0

0111000
+6 0 *
Wi

0101100
+20 0 -15 0 -10 0 -7 0 *
Fa
0  0.000000100000000 4 0

0111000
-4 25 *
Sh

0101100
-18 0 +13 0 +8 0 +5 0 +3 24 -3 26 *
So

1100000
-2 0 *

+1 0 