
CASCADE Topology V1, (c) Matra-Datavision
Locations 3
1
1.000000000000000 0.000000000000000 0.000000000000000 0.000000000000000 
0.000000000000000 1.000000000000000 0.000000000000000 0.000000000000000 
0.000000000000000 0.000000000000000 1.000000000000000 0.000000000000000 
1
1.000000000000000 0.000000000000000 0.000000000000000 0.000000000000000 
0.000000000000000 1.000000000000000 0.000000000000000 0.000000000000000 
0.000000000000000 0.000000000000000 1.000000000000000 1596.000000000000000 
2  2 -1 0
Curve2ds 93
1 1.57079632679489656 0.00000000000000000 0.00000000000000000 -1.00000000000000000 
1 0.00000000000000000 -2.00000000000000000 1.00000000000000000 0.00000000000000000 
1 0.00000000000000000 -2.00000000000000000 -1.00000000000000000 0.00000000000000000 
1 0.00000000000000000 0.00000000000000000 0.00000000000000000 -1.00000000000000000 
1 15.00000000000000000 0.00000000000000000 0.00000000000000000 -1.00000000000000000 
1 0.00000000000000000 0.00000000000000000 1.00000000000000000 0.00000000000000000 
1 0.00000000000000000 -2.00000000000000000 -1.00000000000000000 0.00000000000000000 
1 0.00000000000000000 -2.00000000000000000 1.00000000000000000 0.00000000000000000 
1 -3.99999999999999956 0.00000000000000000 1.00000000000000000 0.00000000000000000 
1 -3.99999999999999956 -1596.00000000000000000 1.00000000000000000 0.00000000000000000 
1 0.00000000000000000 0.00000000000000000 0.00000000000000000 -1.00000000000000000 
1 0.00000000000000000 -2.00000000000000000 1.00000000000000000 0.00000000000000000 
1 0.00000000000000000 -1.99999999999999956 -1.00000000000000000 0.00000000000000000 
1 28.60000000000000853 0.00000000000000000 0.00000000000000000 -1.00000000000000000 
1 0.00000000000000000 1596.00000000000000000 1.00000000000000000 0.00000000000000000 
1 0.00000000000000000 0.00000000000000000 1.00000000000000000 0.00000000000000000 
1 0.00000000000000000 -1596.00000000000000000 1.00000000000000000 0.00000000000000000 
1 6.28318530717958623 0.00000000000000000 -1.00000000000000000 0.00000000000000000 
1 0.00000000000000000 0.00000000000000000 1.00000000000000000 0.00000000000000000 
6 0 1 -19.00000000000000000 -2.00000000000000000  -19.00000000000000000 0.00000000000000000  
1 15.00000000000000000 0.00000000000000000 0.00000000000000000 -1.00000000000000000 
6 0 1 19.00000000000000000 -2.00000000000000000  19.00000000000000000 0.00000000000000000  
1 -3.99999999999999956 0.00000000000000000 1.00000000000000000 0.00000000000000000 
1 0.00000000000000000 0.00000000000000000 1.00000000000000000 0.00000000000000000 
6 0 1 0.00000000000000000 -2.00000000000000000  0.00000000000000000 0.00000000000000000  
6 0 1 3.99999999999999956 -2.00000000000000000  3.99999999999999956 0.00000000000000000  
8 0.00000000000000000 1.00000000000000000
1 1.57079632679489656 0.00000000000000000 0.00000000000000000 1.00000000000000000 
6 0 1 -3.99999999999999956 -2.00000000000000000  -3.99999999999999956 0.00000000000000000  
6 0 1 -1596.00000000000000000 -2.00000000000000000  -1596.00000000000000000 0.00000000000000000  
8 0.00000000000000000 1.00000000000000000
1 4.71238898038468967 0.00000000000000000 0.00000000000000000 1.00000000000000000 
1 -3.99999999999999956 -1596.00000000000000000 1.00000000000000000 0.00000000000000000 
1 0.00000000000000000 0.00000000000000000 -1.00000000000000000 0.00000000000000000 
1 6.28318530717958623 0.00000000000000000 0.00000000000000000 -1.00000000000000000 
1 0.00000000000000000 -2.00000000000000000 1.00000000000000000 0.00000000000000000 
1 0.00000000000000000 -2.00000000000000000 -1.00000000000000000 0.00000000000000000 
1 0.00000000000000000 0.00000000000000000 0.00000000000000000 -1.00000000000000000 
1 0.00000000000000000 0.00000000000000000 1.00000000000000000 0.00000000000000000 
1 0.00000000000000000 -2.00000000000000000 -1.00000000000000000 0.00000000000000000 
1 0.00000000000000000 -2.00000000000000000 1.00000000000000000 0.00000000000000000 
1 -4.00000000000000000 0.00000000000000000 1.00000000000000000 0.00000000000000000 
1 -4.00000000000000000 -1596.00000000000000000 1.00000000000000000 0.00000000000000000 
1 0.00000000000000000 1.00000000000000000 1.00000000000000000 0.00000000000000000 
1 0.00000000000000000 0.00000000000000000 0.00000000000000000 1.00000000000000000 
6 0 1 0.00000000000000000 -1.99999999999999956  0.00000000000000000 0.00000000000000000  
1 6.28318530717958623 0.00000000000000000 0.00000000000000000 1.00000000000000000 
7 0 0  1 2 2  -1596.00000000000000000 -2.00000000000000000  -1596.00000000000000000 -0.00000000000000044 
 0.00000000000000000 2 1.00000000000000000 2
1 6.28318530717958623 1.00000000000000000 -1.00000000000000000 0.00000000000000000 
1 0.00000000000000000 0.00000000000000000 0.00000000000000000 -1.00000000000000000 
1 0.00000000000000000 0.00000000000000000 -1.00000000000000000 0.00000000000000000 
8 0.00000000000000000 1596.00000000000000000
1 1.57079632679489656 0.00000000000000000 0.00000000000000000 -1.00000000000000000 
1 4.71238898038468967 0.00000000000000000 0.00000000000000000 -1.00000000000000000 
1 0.00000000000000000 -2.00000000000000000 1.00000000000000000 0.00000000000000000 
1 0.00000000000000000 -2.00000000000000000 -1.00000000000000000 0.00000000000000000 
1 15.00000000000000000 0.00000000000000000 0.00000000000000000 -1.00000000000000000 
1 -4.71238898038468967 1596.00000000000000000 1.00000000000000000 0.00000000000000000 
1 0.00000000000000000 0.00000000000000000 1.00000000000000000 0.00000000000000000 
1 0.00000000000000000 -1596.00000000000000000 1.00000000000000000 0.00000000000000000 
1 6.28318530717958623 0.00000000000000000 -1.00000000000000000 0.00000000000000000 
1 0.00000000000000000 0.00000000000000000 1.00000000000000000 0.00000000000000000 
1 -4.00000000000000000 0.00000000000000000 1.00000000000000000 0.00000000000000000 
1 0.00000000000000000 0.00000000000000000 1.00000000000000000 0.00000000000000000 
6 0 1 4.00000000000000000 -2.00000000000000000  4.00000000000000000 0.00000000000000000  
6 0 1 0.00000000000000000 -2.00000000000000000  0.00000000000000000 0.00000000000000000  
8 0.00000000000000000 1.00000000000000000
1 6.28318530717958623 0.00000000000000000 0.00000000000000000 1.00000000000000000 
6 0 1 -4.00000000000000000 -2.00000000000000000  -4.00000000000000000 0.00000000000000000  
6 0 1 -1596.00000000000000000 -2.00000000000000000  -1596.00000000000000000 0.00000000000000000  
8 0.00000000000000000 1.00000000000000000
1 0.00000000000000000 0.00000000000000000 0.00000000000000000 1.00000000000000000 
1 -4.00000000000000000 -1596.00000000000000000 1.00000000000000000 0.00000000000000000 
1 0.00000000000000000 0.00000000000000000 -1.00000000000000000 0.00000000000000000 
1 0.00000000000000000 0.00000000000000000 -1.00000000000000000 0.00000000000000000 
1 0.00000000000000000 0.00000000000000000 0.00000000000000000 -1.00000000000000000 
1 0.00000000000000000 0.00000000000000000 1.00000000000000000 0.00000000000000000 
1 0.00000000000000000 -2.00000000000000000 -1.00000000000000000 0.00000000000000000 
1 0.00000000000000000 -2.00000000000000000 1.00000000000000000 0.00000000000000000 
1 0.00000000000000000 0.00000000000000000 1.00000000000000000 0.00000000000000000 
1 0.00000000000000000 -1596.00000000000000000 1.00000000000000000 0.00000000000000000 
1 0.00000000000000000 1.00000000000000000 1.00000000000000000 0.00000000000000000 
1 4.71238898038468967 0.00000000000000000 0.00000000000000000 1.00000000000000000 
6 0 1 0.00000000000000000 -2.00000000000000000  0.00000000000000000 0.00000000000000000  
1 1.57079632679489656 0.00000000000000000 0.00000000000000000 1.00000000000000000 
7 0 0  1 2 2  -1596.00000000000000000 -2.00000000000000355  -1596.00000000000000000 0.00000000000000000 
 0.00000000000000000 2 1.00000000000000000 2
1 6.28318530717958623 1.00000000000000000 -1.00000000000000000 0.00000000000000000 
1 0.00000000000000000 0.00000000000000000 0.00000000000000000 -1.00000000000000000 
1 0.00000000000000000 0.00000000000000000 -1.00000000000000000 0.00000000000000000 
8 0.00000000000000000 1596.00000000000000000
1 6.28318530717958623 0.00000000000000000 0.00000000000000000 -1.00000000000000000 
6 0 1 0.00000000000000000 -2.00000000000000000  0.00000000000000000 0.00000000000000000  
1 0.00000000000000000 0.00000000000000000 0.00000000000000000 -1.00000000000000000 
6 0 1 0.00000000000000000 -2.00000000000000000  0.00000000000000000 0.00000000000000000  
1 0.00000000000000000 0.00000000000000000 1.00000000000000000 0.00000000000000000 
1 0.00000000000000000 0.00000000000000000 1.00000000000000000 0.00000000000000000 
1 0.00000000000000000 -1596.00000000000000000 1.00000000000000000 0.00000000000000000 
1 0.00000000000000000 0.00000000000000000 -1.00000000000000000 0.00000000000000000 
1 0.00000000000000000 0.00000000000000000 -1.00000000000000000 0.00000000000000000 
Curves 39
1 18.30000000000000782 -3.99999999999999956 0.00000000000000000 0.00000000000000000 0.00000000000000000 1.00000000000000000 
1 18.30000000000000782 -19.00000000000000000 0.00000000000000000 0.00000000000000000 0.00000000000000000 1.00000000000000000 
1 18.30000000000000782 0.00000000000000000 0.00000000000000000 0.00000000000000000 -1.00000000000000000 0.00000000000000000 
1 14.30000000000000782 0.00000000000000000 0.00000000000000000 0.00000000000000000 0.00000000000000000 1.00000000000000000 
2 14.30000000000000782 -3.99999999999999956 0.00000000000000000 0.00000000000000000 0.00000000000000000 -1.00000000000000000 0.00000000000000000 1.00000000000000000 0.00000000000000000 1.00000000000000000 -0.00000000000000000 0.00000000000000000 4.00000000000000000
6 0 1 18.30000000000000782 -19.00000000000000000 1596.00000000000000000  16.30000000000000782 -19.00000000000000000 1596.00000000000000000  
1 16.30000000000000782 -19.00000000000000000 0.00000000000000000 0.00000000000000000 0.00000000000000000 1.00000000000000000 
6 0 1 18.30000000000000782 -19.00000000000000000 0.00000000000000000  16.30000000000000782 -19.00000000000000000 0.00000000000000000  
1 16.30000000000000782 0.00000000000000000 0.00000000000000000 0.00000000000000000 -1.00000000000000000 0.00000000000000000 
6 0 1 18.30000000000000782 -3.99999999999999956 0.00000000000000000  16.30000000000000782 -3.99999999999999956 0.00000000000000000  
6 0 1 18.30000000000000782 -3.99999999999999956 1596.00000000000000000  16.30000000000000782 -3.99999999999999956 1596.00000000000000000  
1 16.30000000000000782 0.00000000000000000 1596.00000000000000000 0.00000000000000000 -1.00000000000000000 0.00000000000000000 
1 -14.30000000000000071 0.00000000000000000 0.00000000000000000 0.00000000000000000 0.00000000000000000 1.00000000000000000 
1 -18.30000000000000071 0.00000000000000000 0.00000000000000000 1.00000000000000000 0.00000000000000000 0.00000000000000000 
2 14.30000000000000782 -3.99999999999999956 0.00000000000000000 0.00000000000000000 0.00000000000000000 -1.00000000000000000 0.00000000000000000 1.00000000000000000 0.00000000000000000 1.00000000000000000 -0.00000000000000000 0.00000000000000000 2.00000000000000000
6 0 1 14.30000000000000782 0.00000000000000000 0.00000000000000000  14.30000000000000782 -1.99999999999999956 0.00000000000000000  
7 0 0  1 2 2  14.30000000000000959 0.00000000000000067 1596.00000000000000000  14.30000000000000782 -1.99999999999999911 1596.00000000000000000 
 0.00000000000000000 2 1.00000000000000000 2
2 14.30000000000000782 -3.99999999999999956 1596.00000000000000000 0.00000000000000000 0.00000000000000000 -1.00000000000000000 0.00000000000000000 1.00000000000000000 0.00000000000000000 1.00000000000000000 -0.00000000000000000 0.00000000000000000 2.00000000000000000
1 16.30000000000000782 -3.99999999999999956 0.00000000000000000 0.00000000000000000 0.00000000000000000 1.00000000000000000 
1 -18.30000000000000071 -4.00000000000000000 0.00000000000000000 0.00000000000000000 0.00000000000000000 1.00000000000000000 
2 -14.30000000000000071 -4.00000000000000000 0.00000000000000000 0.00000000000000000 0.00000000000000000 -1.00000000000000000 0.00000000000000022 1.00000000000000000 0.00000000000000000 1.00000000000000000 -0.00000000000000022 0.00000000000000000 4.00000000000000000
1 -18.30000000000000071 -2.00000000000000000 0.00000000000000000 1.00000000000000000 0.00000000000000000 0.00000000000000000 
6 0 1 -14.30000000000000071 0.00000000000000000 0.00000000000000000  -14.30000000000000071 -2.00000000000000000 0.00000000000000000  
6 0 1 -14.30000000000000071 0.00000000000000000 1596.00000000000000000  -14.30000000000000071 -2.00000000000000000 1596.00000000000000000  
1 -18.30000000000000071 -2.00000000000000000 1596.00000000000000000 1.00000000000000000 0.00000000000000000 0.00000000000000000 
1 14.30000000000000782 -1.99999999999999956 0.00000000000000000 -0.00000000000000000 -0.00000000000000000 1.00000000000000000 
1 -18.30000000000000071 -19.00000000000000000 0.00000000000000000 0.00000000000000000 0.00000000000000000 1.00000000000000000 
1 -18.30000000000000071 -19.00000000000000000 0.00000000000000000 0.00000000000000000 1.00000000000000000 0.00000000000000000 
2 -14.30000000000000071 -4.00000000000000000 0.00000000000000000 0.00000000000000000 0.00000000000000000 -1.00000000000000000 0.00000000000000022 1.00000000000000000 0.00000000000000000 1.00000000000000000 -0.00000000000000022 0.00000000000000000 2.00000000000000000
6 0 1 -18.30000000000000071 -4.00000000000000000 0.00000000000000000  -16.30000000000000071 -4.00000000000000000 0.00000000000000000  
7 0 0  1 2 2  -18.30000000000000426 -3.99999999999999867 1596.00000000000000000  -16.30000000000000071 -3.99999999999999867 1596.00000000000000000 
 0.00000000000000000 2 1.00000000000000000 2
2 -14.30000000000000071 -4.00000000000000000 1596.00000000000000000 0.00000000000000000 0.00000000000000000 -1.00000000000000000 0.00000000000000022 1.00000000000000000 0.00000000000000000 1.00000000000000000 -0.00000000000000022 0.00000000000000000 2.00000000000000000
1 -14.30000000000000071 -2.00000000000000000 0.00000000000000000 0.00000000000000000 0.00000000000000000 1.00000000000000000 
6 0 1 -18.30000000000000071 -19.00000000000000000 0.00000000000000000  -16.30000000000000071 -19.00000000000000000 0.00000000000000000  
1 -16.30000000000000071 -19.00000000000000000 0.00000000000000000 0.00000000000000000 0.00000000000000000 1.00000000000000000 
6 0 1 -18.30000000000000071 -19.00000000000000000 1596.00000000000000000  -16.30000000000000071 -19.00000000000000000 1596.00000000000000000  
1 -16.30000000000000071 -19.00000000000000000 0.00000000000000000 0.00000000000000000 1.00000000000000000 0.00000000000000000 
1 -16.30000000000000071 -19.00000000000000000 1596.00000000000000000 0.00000000000000000 1.00000000000000000 0.00000000000000000 
1 -16.30000000000000071 -4.00000000000000000 0.00000000000000000 -0.00000000000000000 -0.00000000000000000 1.00000000000000000 
Polygon3D 0
PolygonOnTriangulations 0
Surfaces 35
1 18.30000000000000782 -3.99999999999999956 0.00000000000000000 1.00000000000000000 0.00000000000000000 -0.00000000000000000 0.00000000000000000 -1.00000000000000000 0.00000000000000000 0.00000000000000000 -0.00000000000000000 -1.00000000000000000 
2 14.30000000000000782 -3.99999999999999956 0.00000000000000000 0.00000000000000000 0.00000000000000000 -1.00000000000000000 0.00000000000000000 1.00000000000000000 0.00000000000000000 1.00000000000000000 -0.00000000000000000 0.00000000000000000 4.00000000000000000
1 16.30000000000000782 -3.99999999999999956 0.00000000000000000 -0.00000000000000000 -1.00000000000000000 -0.00000000000000000 -0.00000000000000000 0.00000000000000000 1.00000000000000000 -1.00000000000000000 0.00000000000000000 -0.00000000000000000 
1 16.30000000000000782 -3.99999999999999956 0.00000000000000000 0.00000000000000000 1.00000000000000000 -0.00000000000000000 0.00000000000000000 -0.00000000000000000 -1.00000000000000000 -1.00000000000000000 0.00000000000000000 -0.00000000000000000 
1 18.30000000000000782 0.00000000000000000 0.00000000000000000 1.00000000000000000 0.00000000000000000 -0.00000000000000000 0.00000000000000000 -1.00000000000000000 0.00000000000000000 0.00000000000000000 -0.00000000000000000 -1.00000000000000000 
1 16.30000000000000782 0.00000000000000000 1596.00000000000000000 0.00000000000000000 0.00000000000000000 1.00000000000000000 -0.00000000000000000 1.00000000000000000 0.00000000000000000 -1.00000000000000000 -0.00000000000000000 0.00000000000000000 
1 16.30000000000000782 0.00000000000000000 0.00000000000000000 -0.00000000000000000 -0.00000000000000000 -1.00000000000000000 0.00000000000000000 -1.00000000000000000 0.00000000000000000 -1.00000000000000000 0.00000000000000000 0.00000000000000000 
1 -14.30000000000000071 0.00000000000000000 0.00000000000000000 0.00000000000000000 1.00000000000000000 0.00000000000000000 1.00000000000000000 0.00000000000000000 0.00000000000000000 0.00000000000000000 0.00000000000000000 -1.00000000000000000 
1 14.30000000000000782 -2.00000000000000000 0.00000000000000000 1.00000000000000000 0.00000000000000000 -0.00000000000000000 0.00000000000000000 0.00000000000000000 1.00000000000000000 0.00000000000000000 -1.00000000000000000 0.00000000000000000 
1 14.30000000000000782 -1.99999999999999956 0.00000000000000000 -1.00000000000000000 -0.00000000000000000 -0.00000000000000000 0.00000000000000000 0.00000000000000000 -1.00000000000000000 0.00000000000000000 -1.00000000000000000 0.00000000000000000 
2 14.30000000000000782 -3.99999999999999956 1596.00000000000000000 -0.00000000000000000 0.00000000000000000 -1.00000000000000000 0.00000000000000000 1.00000000000000000 0.00000000000000000 1.00000000000000000 0.00000000000000000 -0.00000000000000000 4.00000000000000000
9 0 0 0 0 8 1 9 2 2 2 18.29999999999999361 -3.99999999999999734 1595.99999999999886313  16.29999999999999716 -3.99999999999999645 1595.99999999999886313  
18.29999999999973426 -3.21460183660252818 1595.99999999998021849  16.29999999999980886 -3.60730091830122968 1595.99999999998021849  
18.12375684415611587 -2.42920342598322936 1596.00000000006866685  16.21187842207826435 -3.21460171299173281 1596.00000000006866685  
17.77127226348416400 -1.68994706265960026 1595.99999999988199306  16.03563613174173952 -2.84497353132959896 1595.99999999988199306  
17.25703502312127213 -1.04296497688059575 1596.00000000012687451  15.77851751156102011 -2.52148248844051759 1596.00000000012687451  
16.61005293733900245 -0.52872773651415639 1595.99999999990609467  15.45502646866921737 -2.26436386825690805 1595.99999999990609467  
15.87079657401747212 -0.17624315584486894 1596.00000000004615686  15.08539828700889274 -2.08812157792252417 1596.00000000004615686  
15.08539816339729889 0.00000000000001387 1595.99999999998794920  14.69269908169860628 -1.99999999999996669 1595.99999999998794920  
14.30000000000000959 0.00000000000000067 1596.00000000000000000  14.30000000000000782 -1.99999999999999911 1596.00000000000000000  

4.71238898038468967 9
6.28318530717958623 9

0.00000000000000000 2
1.00000000000000000 2

9 0 0 0 0 8 1 9 2 2 2 14.30000000000000782 0.00000000000000044 0.00000000000000000  14.30000000000000782 -1.99999999999999911 0.00000000000000000  
15.08539816339745876 0.00000000000000057 0.00000000000000000  14.69269908169870753 -2.00000000000000933 0.00000000000000000  
15.87079657401681487 -0.17624315584481010 0.00000000000000000  15.08539828700849839 -2.08812157792237363 0.00000000000000000  
16.61005293734039157 -0.52872773651428218 0.00000000000000000  15.45502646866999719 -2.26436386825719227 0.00000000000000000  
17.25703502311939630 -1.04296497688042233 0.00000000000000000  15.77851751156000049 -2.52148248844015344 0.00000000000000000  
17.77127226348585864 -1.68994706265975747 0.00000000000000000  16.03563613174264901 -2.84497353132992181 0.00000000000000000  
18.12375684415513888 -2.42920342598313432 0.00000000000000000  16.21187842207774210 -3.21460171299154229 0.00000000000000000  
18.30000000000002203 -3.21460183660255483 0.00000000000000000  16.29999999999995808 -3.60730091830128474 0.00000000000000000  
18.30000000000000782 -3.99999999999999911 0.00000000000000000  16.30000000000000782 -3.99999999999999911 0.00000000000000000  

0.00000000000000000 9
1.57079632679489656 9

0.00000000000000000 2
1.00000000000000000 2

1 16.30000000000000782 -19.00000000000000000 0.00000000000000000 0.00000000000000000 -1.00000000000000000 0.00000000000000000 0.00000000000000000 0.00000000000000000 1.00000000000000000 -1.00000000000000000 0.00000000000000000 0.00000000000000000 
1 16.30000000000000782 -3.99999999999999956 0.00000000000000000 1.00000000000000000 0.00000000000000000 -0.00000000000000000 0.00000000000000000 -1.00000000000000000 0.00000000000000000 0.00000000000000000 -0.00000000000000000 -1.00000000000000000 
2 -14.30000000000000071 -4.00000000000000000 0.00000000000000000 0.00000000000000000 0.00000000000000000 -1.00000000000000000 0.00000000000000022 1.00000000000000000 0.00000000000000000 1.00000000000000000 -0.00000000000000022 0.00000000000000000 4.00000000000000000
1 -14.30000000000000071 -2.00000000000000000 0.00000000000000000 1.00000000000000000 0.00000000000000000 0.00000000000000000 0.00000000000000000 -0.00000000000000000 1.00000000000000000 0.00000000000000000 -1.00000000000000000 -0.00000000000000000 
1 -14.30000000000000071 -2.00000000000000000 0.00000000000000000 -1.00000000000000000 0.00000000000000000 0.00000000000000000 0.00000000000000000 0.00000000000000000 -1.00000000000000000 -0.00000000000000000 -1.00000000000000000 -0.00000000000000000 
1 -18.30000000000000071 0.00000000000000000 0.00000000000000000 0.00000000000000000 1.00000000000000000 0.00000000000000000 1.00000000000000000 0.00000000000000000 0.00000000000000000 0.00000000000000000 0.00000000000000000 -1.00000000000000000 
1 -18.30000000000000071 -2.00000000000000000 1596.00000000000000000 -0.00000000000000000 0.00000000000000000 1.00000000000000000 -1.00000000000000000 0.00000000000000000 -0.00000000000000000 -0.00000000000000000 -1.00000000000000000 0.00000000000000000 
1 -18.30000000000000071 -2.00000000000000000 0.00000000000000000 0.00000000000000000 0.00000000000000000 -1.00000000000000000 1.00000000000000000 0.00000000000000000 0.00000000000000000 0.00000000000000000 -1.00000000000000000 0.00000000000000000 
2 14.30000000000000782 -3.99999999999999956 0.00000000000000000 0.00000000000000000 0.00000000000000000 -1.00000000000000000 0.00000000000000000 1.00000000000000000 0.00000000000000000 1.00000000000000000 -0.00000000000000000 0.00000000000000000 2.00000000000000000
1 -18.30000000000000071 -19.00000000000000000 0.00000000000000000 -1.00000000000000000 0.00000000000000000 0.00000000000000000 0.00000000000000000 1.00000000000000000 0.00000000000000000 0.00000000000000000 0.00000000000000000 -1.00000000000000000 
1 -16.30000000000000071 -4.00000000000000000 0.00000000000000000 0.00000000000000000 1.00000000000000000 0.00000000000000000 0.00000000000000000 -0.00000000000000000 1.00000000000000000 1.00000000000000000 0.00000000000000000 -0.00000000000000000 
1 -16.30000000000000071 -4.00000000000000000 0.00000000000000000 0.00000000000000000 -1.00000000000000000 0.00000000000000000 0.00000000000000000 0.00000000000000000 -1.00000000000000000 1.00000000000000000 0.00000000000000000 0.00000000000000000 
2 -14.30000000000000071 -3.99999999999999956 1596.00000000000000000 0.00000000000000000 0.00000000000000000 -1.00000000000000000 -1.00000000000000000 0.00000000000000000 0.00000000000000000 0.00000000000000000 1.00000000000000000 0.00000000000000000 4.00000000000000000
9 0 0 0 0 8 1 9 2 2 2 -14.30000000000000426 0.00000000000000044 1596.00000000000000000  -14.30000000000000071 -1.99999999999999956 1596.00000000000000000  
-15.08539816339743567 -0.00000000000000097 1596.00000000000454747  -14.69269908169874128 -1.99999999999999534 1596.00000000000454747  
-15.87079657401685751 -0.17624315584480751 1595.99999999998294697  -15.08539828700835095 -2.08812157792242026 1595.99999999998294697  
-16.61005293734030985 -0.52872773651428473 1596.00000000003456080  -15.45502646867025653 -2.26436386825710922 1596.00000000003456080  
-17.25703502311947091 -1.04296497688042100 1595.99999999995270628  -15.77851751155967719 -2.52148248844024936 1595.99999999995270628  
-17.77127226348578048 -1.68994706265975791 1596.00000000004274625  -16.03563613174286573 -2.84497353132984587 1596.00000000004274625  
-18.12375684415518151 -2.42920342598313255 1595.99999999997635314  -16.21187842207764263 -3.21460171299158226 1595.99999999997635314  
-18.29999999999999716 -3.21460183660255572 1596.00000000000659384  -16.29999999999996874 -3.60730091830127320 1596.00000000000659384  
-18.30000000000000426 -3.99999999999999867 1596.00000000000000000  -16.30000000000000071 -3.99999999999999867 1596.00000000000000000  

0.00000000000000000 9
1.57079632679489656 9

0.00000000000000000 2
1.00000000000000000 2

9 0 0 0 0 8 1 9 2 2 2 -18.29999999999998650 -3.99999999999999645 0.00000000000000000  -16.29999999999999005 -3.99999999999999645 0.00000000000000000  
-18.29999999999979110 -3.21460183660252685 0.00000000000000000  -16.29999999999985505 -3.60730091830122923 0.00000000000000000  
-18.12375684415584587 -2.42920342598323069 0.00000000000000000  -16.21187842207807961 -3.21460171299173103 0.00000000000000000  
-17.77127226348466849 -1.68994706265959271 0.00000000000000000  -16.03563613174205571 -2.84497353132959452 0.00000000000000000  
-17.25703502312062909 -1.04296497688060663 0.00000000000000000  -15.77851751156063287 -2.52148248844052913 0.00000000000000000  
-16.61005293733951760 -0.52872773651414684 0.00000000000000000  -15.45502646866950336 -2.26436386825690095 0.00000000000000000  
-15.87079657401719857 -0.17624315584487346 0.00000000000000000  -15.08539828700873997 -2.08812157792252640 0.00000000000000000  
-15.08539816339736284 0.00000000000001486 0.00000000000000000  -14.69269908169864536 -1.99999999999996714 0.00000000000000000  
-14.30000000000000071 0.00000000000000022 0.00000000000000000  -14.30000000000000071 -2.00000000000000000 0.00000000000000000  

4.71238898038468967 9
6.28318530717958623 9

0.00000000000000000 2
1.00000000000000000 2

1 -14.30000000000000071 -2.00000000000000000 0.00000000000000000 0.00000000000000000 1.00000000000000000 0.00000000000000000 1.00000000000000000 0.00000000000000000 0.00000000000000000 0.00000000000000000 0.00000000000000000 -1.00000000000000000 
1 -18.30000000000000071 -19.00000000000000000 0.00000000000000000 -1.00000000000000000 0.00000000000000000 0.00000000000000000 0.00000000000000000 1.00000000000000000 0.00000000000000000 0.00000000000000000 0.00000000000000000 -1.00000000000000000 
1 -16.30000000000000071 -19.00000000000000000 1596.00000000000000000 0.00000000000000000 0.00000000000000000 1.00000000000000000 0.00000000000000000 -1.00000000000000000 0.00000000000000000 1.00000000000000000 0.00000000000000000 -0.00000000000000000 
1 -16.30000000000000071 -19.00000000000000000 0.00000000000000000 0.00000000000000000 0.00000000000000000 -1.00000000000000000 0.00000000000000000 1.00000000000000000 0.00000000000000000 1.00000000000000000 -0.00000000000000000 0.00000000000000000 
2 -14.30000000000000071 -4.00000000000000000 0.00000000000000000 0.00000000000000000 0.00000000000000000 -1.00000000000000000 0.00000000000000022 1.00000000000000000 0.00000000000000000 1.00000000000000000 -0.00000000000000022 0.00000000000000000 2.00000000000000000
1 -16.30000000000000071 -19.00000000000000000 0.00000000000000000 0.00000000000000000 -1.00000000000000000 0.00000000000000000 -0.00000000000000000 -0.00000000000000000 -1.00000000000000000 1.00000000000000000 0.00000000000000000 -0.00000000000000000 
1 -16.30000000000000071 -19.00000000000000000 0.00000000000000000 -1.00000000000000000 0.00000000000000000 0.00000000000000000 0.00000000000000000 1.00000000000000000 0.00000000000000000 0.00000000000000000 0.00000000000000000 -1.00000000000000000 
Triangulations 0

TShapes 104
Ve
0.001000000000000
18.300000000000008 -4.000000000000000 0.000000000000000
0 0

0101101
*
Ed
 0.001000000000000 1 1 0
1  1 0 0.000000000000000 1596.000000000000000
2  1 2 0 0.000000000000000 1596.000000000000000
4 G1 1 0 2 0
2  2 3 0 0.000000000000000 1596.000000000000000
2  3 4 0 0.000000000000000 1596.000000000000000
2  4 1 0 0.000000000000000 1596.000000000000000
0

0101000
+104 0 -104 2 *
Ve
0.001000000000000
18.300000000000008 -19.000000000000000 0.000000000000000
0 0

0101101
*
Ed
 0.001000000000000 1 1 0
1  2 0 0.000000000000000 1596.000000000000000
2  5 1 0 0.000000000000000 1596.000000000000000
0

0101000
+102 0 -102 2 *
Ed
 0.001000000000000 1 1 0
2  6 5 0 4.000000000000000 19.000000000000000
1  3 0 4.000000000000000 19.000000000000000
2  7 6 3 4.000000000000000 19.000000000000000
2  8 7 0 4.000000000000000 19.000000000000000
2  9 1 0 4.000000000000000 19.000000000000000
2  10 1 3 4.000000000000000 19.000000000000000
0

0101000
+104 0 -102 0 *
Wi

0101100
+103 0 -101 0 -100 0 +100 2 *
Fa
0  0.001000000000000 1 0

0101000
+99 0 *
Ve
0.001000000000000
14.300000000000008 0.000000000000000 0.000000000000000
0 0

0101101
*
Ed
 0.001000000000000 1 1 0
1  4 0 0.000000000000000 1596.000000000000000
2  11 2 0 0.000000000000000 1596.000000000000000
4 G1 2 0 8 0
2  12 9 0 0.000000000000000 1596.000000000000000
2  13 10 0 0.000000000000000 1596.000000000000000
2  14 8 0 0.000000000000000 1596.000000000000000
0

0101000
+97 0 -97 2 *
Ed
 0.000000100000000 1 1 0
2  15 11 0 0.000000000000000 1.570796326794897
1  5 0 0.000000000000000 1.570796326794897
2  16 2 0 0.000000000000000 1.570796326794897
2  17 2 3 0.000000000000000 1.570796326794897
2  18 12 3 0.000000000000000 1.570796326794897
2  19 13 0 0.000000000000000 1.570796326794897
0

0101000
+97 0 -104 0 *
Wi

0101100
+96 0 -103 0 -95 0 +95 2 *
Fa
0  0.000000100000000 2 0

0101000
+94 0 *
Ve
0.001000000000000
16.300000000000008 -19.000000000000000 1596.000000000000000
0 0

0101101
*
Ed
 0.000000100000000 1 1 0
1  6 0 0.000000000000000 1.000000000000000
4 C0 14 0 6 0
2  20 6 0 0.000000000000000 1.000000000000000
0

0101000
+102 2 -92 0 *
Ve
0.001000000000000
16.300000000000008 -19.000000000000000 0.000000000000000
0 0

0101101
*
Ed
 0.001000000000000 1 1 0
2  21 15 0 0.000000000000000 1596.000000000000000
1  7 0 0.000000000000000 1596.000000000000000
0

0101000
+90 0 -92 0 *
Ed
 0.000000100000000 1 1 0
1  8 0 0.000000000000000 1.000000000000000
4 C0 14 0 7 0
2  22 7 0 0.000000000000000 1.000000000000000
0

0101000
+102 0 -90 0 *
Wi

0101000
+101 0 +91 0 -89 0 -88 0 *
Fa
0  0.000000100000000 14 0

0101000
+87 0 *
Ve
0.001000000000000
16.300000000000008 -4.000000000000000 0.000000000000000
0 0

0101101
*
Ed
 0.001000000000000 1 1 0
2  23 15 0 4.000000000000000 19.000000000000000
1  9 0 4.000000000000000 19.000000000000000
2  24 7 0 4.000000000000000 19.000000000000000
0

0101000
+85 0 -90 0 *
Ed
 0.000000100000000 1 1 0
1  10 0 0.000000000000000 1.000000000000000
4 C0 4 0 7 0
2  25 4 0 0.000000000000000 1.000000000000000
2  26 7 0 0.000000000000000 1.000000000000000
2  27 13 0 0.000000000000000 1.000000000000000
0

0101000
+104 0 -85 0 *
Wi

0101100
+100 0 +88 0 -84 0 -83 0 *
Fa
0  0.000000100000000 7 0

0101000
+82 0 *
Ve
0.001000000000000
16.300000000000008 -4.000000000000000 1596.000000000000000
0 0

0101101
*
Ed
 0.000000100000000 1 1 0
1  11 0 0.000000000000000 1.000000000000000
4 C0 6 0 4 0
2  28 6 0 0.000000000000000 1.000000000000000
2  29 4 0 0.000000000000000 1.000000000000000
2  30 12 0 0.000000000000000 1.000000000000000
0

0101000
+104 2 -80 0 *
Ed
 0.001000000000000 1 1 0
2  31 15 0 4.000000000000000 19.000000000000000
1  12 0 4.000000000000000 19.000000000000000
2  32 6 0 4.000000000000000 19.000000000000000
0

0101000
+80 0 -92 0 *
Wi

0101100
-100 2 +79 0 +78 0 -91 0 *
Fa
0  0.000000100000000 6 0

0101000
+77 0 *
Ve
0.001000000000000
-14.300000000000001 0.000000000000000 0.000000000000000
0 0

0101101
*
Ed
 0.001000000000000 1 1 0
1  13 0 0.000000000000000 1596.000000000000000
2  33 16 0 0.000000000000000 1596.000000000000000
4 G1 8 0 16 0
2  34 17 0 0.000000000000000 1596.000000000000000
2  35 18 0 0.000000000000000 1596.000000000000000
2  36 8 0 0.000000000000000 1596.000000000000000
0

0101000
+75 0 -75 2 *
Ed
 0.001000000000000 1 1 0
2  37 19 0 4.000000000000000 32.600000000000009
1  14 0 4.000000000000000 32.600000000000009
2  38 20 3 4.000000000000000 32.600000000000009
2  39 21 0 4.000000000000000 32.600000000000009
2  40 8 0 4.000000000000000 32.600000000000009
2  41 8 3 4.000000000000000 32.600000000000009
0

0101000
+75 0 -97 0 *
Wi

0101100
+74 0 -96 0 -73 0 +73 2 *
Fa
0  0.001000000000000 8 0

0101000
+72 0 *
Ve
0.001000000000000
14.300000000000008 -2.000000000000000 0.000000000000000
0 0

0101101
*
Ed
 0.000000100000000 1 1 0
2  16 22 0 0.000000000000000 1.570796326794897
1  15 0 0.000000000000000 1.570796326794897
2  42 13 0 0.000000000000000 1.570796326794897
0

0101000
+70 0 -85 0 *
Ed
 0.000000100000000 1 1 0
1  16 0 0.000000000000000 1.000000000000000
2  43 13 0 0.000000000000000 1.000000000000000
4 C0 10 0 13 0
2  44 10 0 0.000000000000000 1.000000000000000
0

0101000
+97 0 -70 0 *
Wi

0101100
+95 0 +83 0 -69 0 -68 0 *
Fa
0  0.000000100000000 13 0

0101000
+67 0 *
Ve
0.001000000000000
14.300000000000008 -2.000000000000000 1596.000000000000000
0 0

0101101
*
Ed
 0.000000100000002 1 1 0
1  17 0 0.000000000000000 1.000000000000000
2  45 12 0 0.000000000000000 1.000000000000000
4 C0 12 0 10 0
2  46 10 0 0.000000000000000 1.000000000000000
0

0101000
+97 2 -65 0 *
Ed
 0.000000100000000 1 1 0
2  17 22 0 0.000000000000000 1.570796326794897
1  18 0 0.000000000000000 1.570796326794897
2  47 12 0 0.000000000000000 1.570796326794897
0

0101000
+65 0 -80 0 *
Wi

0101100
-95 2 +64 0 +63 0 -79 0 *
Fa
0  0.000000100000000 12 0

0101000
+62 0 *
Ed
 0.001000000000000 1 1 0
2  48 15 0 0.000000000000000 1596.000000000000000
1  19 0 0.000000000000000 1596.000000000000000
2  49 4 0 0.000000000000000 1596.000000000000000
2  50 22 0 0.000000000000000 1596.000000000000000
0

0101000
+85 0 -80 0 *
Wi

0101100
+60 0 -89 0 -84 0 +78 0 *
Fa
0  0.001000000000000 15 0

0101000
+59 0 *
Ve
0.001000000000000
-18.300000000000001 -4.000000000000000 0.000000000000000
0 0

0101101
*
Ed
 0.001000000000000 1 1 0
1  20 0 0.000000000000000 1596.000000000000000
2  51 16 0 0.000000000000000 1596.000000000000000
4 G1 16 0 23 0
2  52 24 0 0.000000000000000 1596.000000000000000
2  53 25 0 0.000000000000000 1596.000000000000000
2  54 23 0 0.000000000000000 1596.000000000000000
0

0101000
+57 0 -57 2 *
Ed
 0.000000100000000 1 1 0
2  55 26 0 4.712388980384690 6.283185307179586
1  21 0 4.712388980384690 6.283185307179586
2  56 16 0 4.712388980384690 6.283185307179586
2  57 16 3 4.712388980384690 6.283185307179586
2  58 27 3 4.712388980384690 6.283185307179586
2  59 28 0 4.712388980384690 6.283185307179586
0

0101000
+57 0 -75 0 *
Wi

0101100
+56 0 -74 0 -55 0 +55 2 *
Fa
0  0.000000100000000 16 0

0101000
+54 0 *
Ve
0.001000000000000
-14.300000000000001 -2.000000000000000 0.000000000000000
0 0

0101101
*
Ed
 0.001000000000000 1 1 0
2  60 29 0 4.000000000000000 32.600000000000009
1  22 0 4.000000000000000 32.600000000000009
2  61 21 0 4.000000000000000 32.600000000000009
0

0101000
+52 0 -70 0 *
Ed
 0.000000100000000 1 1 0
1  23 0 0.000000000000000 1.000000000000000
4 C0 18 0 21 0
2  62 21 0 0.000000000000000 1.000000000000000
2  63 18 0 0.000000000000000 1.000000000000000
2  64 28 0 0.000000000000000 1.000000000000000
0

0101000
+75 0 -52 0 *
Wi

0101100
+73 0 +68 0 -51 0 -50 0 *
Fa
0  0.000000100000000 21 0

0101000
+49 0 *
Ve
0.001000000000000
-14.300000000000001 -2.000000000000000 1596.000000000000000
0 0

0101101
*
Ed
 0.000000100000000 1 1 0
1  24 0 0.000000000000000 1.000000000000000
4 C0 20 0 18 0
2  65 20 0 0.000000000000000 1.000000000000000
2  66 18 0 0.000000000000000 1.000000000000000
2  67 27 0 0.000000000000000 1.000000000000000
0

0101000
+75 2 -47 0 *
Ed
 0.001000000000000 1 1 0
2  68 29 0 4.000000000000000 32.600000000000009
1  25 0 4.000000000000000 32.600000000000009
2  69 20 0 4.000000000000000 32.600000000000009
0

0101000
+47 0 -65 0 *
Wi

0101100
-73 2 +46 0 +45 0 -64 0 *
Fa
0  0.000000100000000 20 0

0101000
+44 0 *
Ed
 0.001000000000000 1 1 0
2  11 22 0 0.000000000000000 1596.000000000000000
1  26 0 0.000000000000000 1596.000000000000000
2  70 10 0 0.000000000000000 1596.000000000000000
0

0101000
+70 0 -65 0 *
Wi

0101100
+42 0 -60 0 -69 0 +63 0 *
Fa
0  0.000000100000000 22 0

0101000
+41 0 *
Ve
0.001000000000000
-18.300000000000001 -19.000000000000000 0.000000000000000
0 0

0101101
*
Ed
 0.001000000000000 1 1 0
1  27 0 0.000000000000000 1596.000000000000000
2  71 23 0 0.000000000000000 1596.000000000000000
0

0101000
+39 0 -39 2 *
Ed
 0.001000000000000 1 1 0
2  72 30 0 0.000000000000000 15.000000000000000
1  28 0 0.000000000000000 15.000000000000000
2  73 31 3 0.000000000000000 15.000000000000000
2  74 32 0 0.000000000000000 15.000000000000000
2  75 23 0 0.000000000000000 15.000000000000000
2  76 23 3 0.000000000000000 15.000000000000000
0

0101000
+39 0 -57 0 *
Wi

0101100
+38 0 -56 0 -37 0 +37 2 *
Fa
0  0.001000000000000 23 0

0101000
+36 0 *
Ve
0.001000000000000
-16.300000000000001 -4.000000000000000 0.000000000000000
0 0

0101101
*
Ed
 0.000000100000000 1 1 0
2  56 33 0 4.712388980384690 6.283185307179586
1  29 0 4.712388980384690 6.283185307179586
2  77 28 0 4.712388980384690 6.283185307179586
0

0101000
+34 0 -52 0 *
Ed
 0.000000100000000 1 1 0
1  30 0 0.000000000000000 1.000000000000000
2  78 28 0 0.000000000000000 1.000000000000000
4 C0 25 0 28 0
2  79 25 0 0.000000000000000 1.000000000000000
0

0101000
+57 0 -34 0 *
Wi

0101100
+55 0 +50 0 -33 0 -32 0 *
Fa
0  0.000000100000000 28 0

0101000
+31 0 *
Ve
0.001000000000000
-16.300000000000001 -4.000000000000000 1596.000000000000000
0 0

0101101
*
Ed
 0.000000100000002 1 1 0
1  31 0 0.000000000000000 1.000000000000000
2  80 27 0 0.000000000000000 1.000000000000000
4 C0 27 0 25 0
2  81 25 0 0.000000000000000 1.000000000000000
0

0101000
+57 2 -29 0 *
Ed
 0.000000100000000 1 1 0
2  57 33 0 4.712388980384690 6.283185307179586
1  32 0 4.712388980384690 6.283185307179586
2  82 27 0 4.712388980384690 6.283185307179586
0

0101000
+29 0 -47 0 *
Wi

0101100
-55 2 +28 0 +27 0 -46 0 *
Fa
0  0.000000100000000 27 0

0101000
+26 0 *
Ed
 0.001000000000000 1 1 0
2  83 29 0 0.000000000000000 1596.000000000000000
1  33 0 0.000000000000000 1596.000000000000000
2  84 18 0 0.000000000000000 1596.000000000000000
2  85 33 0 0.000000000000000 1596.000000000000000
0

0101000
+52 0 -47 0 *
Wi

0101100
+24 0 -42 0 -51 0 +45 0 *
Fa
0  0.001000000000000 29 0

0101000
+23 0 *
Ve
0.001000000000000
-16.300000000000001 -19.000000000000000 0.000000000000000
0 0

0101101
*
Ed
 0.000000100000000 1 1 0
1  34 0 0.000000000000000 1.000000000000000
4 C0 34 0 32 0
2  86 32 0 0.000000000000000 1.000000000000000
0

0101000
+39 0 -21 0 *
Ve
0.001000000000000
-16.300000000000001 -19.000000000000000 1596.000000000000000
0 0

0101101
*
Ed
 0.001000000000000 1 1 0
2  87 35 0 0.000000000000000 1596.000000000000000
1  35 0 0.000000000000000 1596.000000000000000
0

0101000
+21 0 -19 0 *
Ed
 0.000000100000000 1 1 0
1  36 0 0.000000000000000 1.000000000000000
4 C0 31 0 34 0
2  88 31 0 0.000000000000000 1.000000000000000
0

0101000
+39 2 -19 0 *
Wi

0101000
-38 0 +20 0 +18 0 -17 0 *
Fa
0  0.000000100000000 34 0

0101000
+16 0 *
Ed
 0.001000000000000 1 1 0
2  89 35 0 0.000000000000000 15.000000000000000
1  37 0 0.000000000000000 15.000000000000000
2  90 32 0 0.000000000000000 15.000000000000000
0

0101000
+21 0 -34 0 *
Wi

0101100
+37 0 +32 0 -14 0 -20 0 *
Fa
0  0.000000100000000 32 0

0101000
+13 0 *
Ed
 0.001000000000000 1 1 0
2  91 35 0 0.000000000000000 15.000000000000000
1  38 0 0.000000000000000 15.000000000000000
2  92 31 0 0.000000000000000 15.000000000000000
0

0101000
+19 0 -29 0 *
Wi

0101100
-37 2 +17 0 +11 0 -28 0 *
Fa
0  0.000000100000000 31 0

0101000
+10 0 *
Ed
 0.001000000000000 1 1 0
2  51 33 0 0.000000000000000 1596.000000000000000
1  39 0 0.000000000000000 1596.000000000000000
2  93 25 0 0.000000000000000 1596.000000000000000
0

0101000
+34 0 -29 0 *
Wi

0101100
+8 0 -24 0 -33 0 +27 0 *
Fa
0  0.000000100000000 33 0

0101000
+7 0 *
Wi

0101100
+18 0 -8 0 -14 0 +11 0 *
Fa
0  0.001000000000000 35 0

0101000
+5 0 *
Sh

0101100
+98 0 +93 0 +86 0 +81 0 +76 0 +71 0 +66 0 +61 0 -58 0 +53 0 
+48 0 +43 0 -40 0 +35 0 +30 0 +25 0 -22 0 +15 0 +12 0 +9 0 
-6 0 -4 0 *
So

0100000
+3 0 *
Co

1100000
+2 0 *

+1 1 