
CASCADE Topology V1, (c) Matra-Datavision
Locations 141
1
-1.000000000000000 0.000000000000000 0.000000000000000 867.999999999999886 
0.000000000000000 -1.000000000000000 0.000000000000000 -120.580297890652673 
0.000000000000000 0.000000000000000 1.000000000000000 0.000000000000000 
1
0.000000000000000 0.000000000000000 -1.000000000000000 -41.299999999999415 
0.000000000000000 1.000000000000000 0.000000000000000 0.000000000000000 
1.000000000000000 0.000000000000000 0.000000000000000 41.099999999999419 
1
1.000000000000000 0.000000000000000 0.000000000000000 0.000000000000000 
0.000000000000000 1.000000000000000 0.000000000000000 0.000000000000000 
0.000000000000000 0.000000000000000 1.000000000000000 0.000000000000000 
1
1.000000000000000 0.000000000000000 0.000000000000000 0.000000000000000 
0.000000000000000 1.000000000000000 0.000000000000000 0.000000000000000 
0.000000000000000 0.000000000000000 1.000000000000000 0.000000000000000 
1
1.000000000000000 0.000000000000000 0.000000000000000 0.000000000000000 
0.000000000000000 1.000000000000000 0.000000000000000 0.000000000000000 
0.000000000000000 0.000000000000000 1.000000000000000 0.000000000000000 
1
0.000000000000000 0.000000000000000 1.000000000000000 -41.099999999999419 
0.000000000000000 1.000000000000000 0.000000000000000 0.000000000000000 
-1.000000000000000 0.000000000000000 0.000000000000000 -41.299999999999422 
1
1.000000000000000 0.000000000000000 0.000000000000000 -0.298451302091030 
0.000000000000000 1.000000000000000 0.000000000000000 -0.000000000000000 
0.000000000000000 0.000000000000000 1.000000000000000 0.000000000000000 
2  2 1 3 1 4 -1 5 1 6 1 7 1 0
2  7 -1 6 -1 5 -1 4 1 3 -1 2 -1 0
1
-1.000000000000000 0.000000000000000 0.000000000000000 0.000000000000000 
0.000000000000000 -1.000000000000000 0.000000000000000 0.000000000000000 
0.000000000000000 0.000000000000000 1.000000000000000 0.000000000000000 
2  10 -1 0
1
1.000000000000000 0.000000000000000 0.000000000000000 0.000000000000000 
0.000000000000000 1.000000000000000 0.000000000000000 0.000000000000000 
0.000000000000000 0.000000000000000 1.000000000000000 0.000000000000000 
2  12 1 3 1 4 -1 5 1 0
1
1.000000000000000 0.000000000000000 0.000000000000000 -22.299999999999713 
0.000000000000000 1.000000000000000 0.000000000000000 125.580297890654023 
0.000000000000000 0.000000000000000 1.000000000000000 -37.100000000000001 
2  14 1 5 1 0
1
1.000000000000000 0.000000000000000 0.000000000000000 22.299999999999713 
0.000000000000000 1.000000000000000 0.000000000000000 125.580297890652631 
0.000000000000000 0.000000000000000 1.000000000000000 -37.100000000000001 
2  16 1 5 1 0
1
1.000000000000000 0.000000000000000 0.000000000000000 -14.866666666660789 
0.000000000000000 1.000000000000000 0.000000000000000 155.621756897464962 
0.000000000000000 0.000000000000000 1.000000000000000 -37.100000000000001 
2  18 1 5 1 0
1
1.000000000000000 0.000000000000000 0.000000000000000 0.000000000000066 
0.000000000000000 1.000000000000000 0.000000000000000 129.871934891629593 
0.000000000000000 0.000000000000000 1.000000000000000 -37.100000000000001 
2  20 1 5 1 0
1
1.000000000000000 0.000000000000000 0.000000000000000 14.866666666660791 
0.000000000000000 1.000000000000000 0.000000000000000 155.621756897465701 
0.000000000000000 0.000000000000000 1.000000000000000 -37.100000000000001 
2  22 1 5 1 0
1
0.000000000000000 0.000000000000000 1.000000000000000 41.299999999999415 
0.000000000000000 1.000000000000000 0.000000000000000 0.000000000000000 
-1.000000000000000 0.000000000000000 0.000000000000000 41.099999999999419 
1
0.000000000000000 0.000000000000000 -1.000000000000000 41.099999999999419 
0.000000000000000 1.000000000000000 0.000000000000000 0.000000000000000 
1.000000000000000 0.000000000000000 0.000000000000000 -41.299999999999422 
1
1.000000000000000 0.000000000000000 0.000000000000000 0.298451302091030 
0.000000000000000 1.000000000000000 0.000000000000000 -0.000000000000000 
0.000000000000000 0.000000000000000 1.000000000000000 -0.000000000000000 
2  24 1 3 1 4 -1 5 1 25 1 26 1 0
2  26 -1 25 -1 5 -1 4 1 3 -1 24 -1 0
2  3 1 4 -1 5 1 0
2  5 -1 4 1 3 -1 0
2  5 -1 4 1 3 -1 12 -1 0
2  5 -1 0
1
1.000000000000000 0.000000000000000 0.000000000000000 0.000000000000000 
0.000000000000000 1.000000000000000 0.000000000000000 0.000000000000000 
0.000000000000000 0.000000000000000 1.000000000000000 -0.100000000000000 
1
1.000000000000000 0.000000000000000 0.000000000000000 868.000000000000000 
0.000000000000000 1.000000000000000 0.000000000000000 -120.580299999999994 
0.000000000000000 0.000000000000000 1.000000000000000 0.000000000000000 
2  33 -1 34 -1 0
1
1.000000000000000 0.000000000000000 0.000000000000000 0.000000000000000 
0.000000000000000 1.000000000000000 0.000000000000000 0.000000000000000 
0.000000000000000 0.000000000000000 1.000000000000000 4.400000000624287 
2  36 -1 33 -1 34 -1 0
1
1.000000000000000 0.000000000000000 0.000000000000000 0.000000000000000 
0.000000000000000 1.000000000000000 0.000000000000000 0.000000000000000 
0.000000000000000 0.000000000000000 1.000000000000000 -0.100000000000000 
2  38 -1 34 -1 0
1
1.000000000000000 0.000000000000000 0.000000000000000 0.000000000000000 
0.000000000000000 1.000000000000000 0.000000000000000 0.000000000000000 
0.000000000000000 0.000000000000000 1.000000000000000 4.400000000624287 
2  40 -1 38 -1 34 -1 0
1
1.000000000000000 0.000000000000000 0.000000000000000 0.000000000000000 
0.000000000000000 1.000000000000000 0.000000000000000 0.000000000000000 
0.000000000000000 0.000000000000000 1.000000000000000 -0.100000000000000 
1
-1.000000000000000 0.000000000000000 0.000000000000000 868.000000000000000 
0.000000000000000 -1.000000000000000 0.000000000000000 158.297599999999989 
0.000000000000000 0.000000000000000 1.000000000000000 0.000000000000000 
2  42 -1 43 -1 0
1
1.000000000000000 0.000000000000000 0.000000000000000 0.000000000000000 
0.000000000000000 1.000000000000000 0.000000000000000 0.000000000000000 
0.000000000000000 0.000000000000000 1.000000000000000 4.400000000624287 
2  45 -1 42 -1 43 -1 0
1
1.000000000000000 0.000000000000000 0.000000000000000 0.000000000000000 
0.000000000000000 1.000000000000000 0.000000000000000 0.000000000000000 
0.000000000000000 0.000000000000000 1.000000000000000 -0.100000000000000 
1
1.000000000000000 0.000000000000000 0.000000000000000 868.000000000000000 
0.000000000000000 1.000000000000000 0.000000000000000 158.297599999999989 
0.000000000000000 0.000000000000000 1.000000000000000 0.000000000000000 
2  47 -1 48 -1 0
1
1.000000000000000 0.000000000000000 0.000000000000000 0.000000000000000 
0.000000000000000 1.000000000000000 0.000000000000000 0.000000000000000 
0.000000000000000 0.000000000000000 1.000000000000000 4.400000000624287 
2  50 -1 47 -1 48 -1 0
1
1.000000000000000 0.000000000000000 0.000000000000000 0.000000000000000 
0.000000000000000 1.000000000000000 0.000000000000000 0.000000000000000 
0.000000000000000 0.000000000000000 1.000000000000000 -0.100000000000000 
1
-1.000000000000000 0.000000000000000 0.000000000000000 867.999999999999886 
0.000000000000000 -1.000000000000000 0.000000000000000 -120.580297890652673 
0.000000000000000 0.000000000000000 1.000000000000000 0.000000000000000 
2  52 -1 53 -1 0
1
1.000000000000000 0.000000000000000 0.000000000000000 0.000000000000000 
0.000000000000000 1.000000000000000 0.000000000000000 0.000000000000000 
0.000000000000000 0.000000000000000 1.000000000000000 4.400000000624287 
2  55 -1 52 -1 53 -1 0
2  10 -1 5 -1 14 -1 0
1
1.000000000000000 0.000000000000000 0.000000000000000 0.000000000000000 
0.000000000000000 1.000000000000000 0.000000000000000 0.000000000000000 
0.000000000000000 0.000000000000000 1.000000000000000 -0.100000000000000 
2  58 -1 34 -1 0
1
1.000000000000000 0.000000000000000 0.000000000000000 0.000000000000000 
0.000000000000000 1.000000000000000 0.000000000000000 0.000000000000000 
0.000000000000000 0.000000000000000 1.000000000000000 4.400000000624287 
2  60 -1 58 -1 34 -1 0
1
1.000000000000000 0.000000000000000 0.000000000000000 0.000000000000000 
0.000000000000000 1.000000000000000 0.000000000000000 0.000000000000000 
0.000000000000000 0.000000000000000 1.000000000000000 -0.100000000000000 
2  62 -1 34 -1 0
1
1.000000000000000 0.000000000000000 0.000000000000000 0.000000000000000 
0.000000000000000 1.000000000000000 0.000000000000000 0.000000000000000 
0.000000000000000 0.000000000000000 1.000000000000000 4.400000000624287 
2  64 -1 62 -1 34 -1 0
1
1.000000000000000 0.000000000000000 0.000000000000000 0.000000000000000 
0.000000000000000 1.000000000000000 0.000000000000000 0.000000000000000 
0.000000000000000 0.000000000000000 1.000000000000000 -0.100000000000000 
2  66 -1 43 -1 0
1
1.000000000000000 0.000000000000000 0.000000000000000 0.000000000000000 
0.000000000000000 1.000000000000000 0.000000000000000 0.000000000000000 
0.000000000000000 0.000000000000000 1.000000000000000 4.400000000624287 
2  68 -1 66 -1 43 -1 0
1
1.000000000000000 0.000000000000000 0.000000000000000 0.000000000000000 
0.000000000000000 1.000000000000000 0.000000000000000 0.000000000000000 
0.000000000000000 0.000000000000000 1.000000000000000 -0.100000000000000 
2  70 -1 48 -1 0
1
1.000000000000000 0.000000000000000 0.000000000000000 0.000000000000000 
0.000000000000000 1.000000000000000 0.000000000000000 0.000000000000000 
0.000000000000000 0.000000000000000 1.000000000000000 4.400000000624287 
2  72 -1 70 -1 48 -1 0
1
1.000000000000000 0.000000000000000 0.000000000000000 0.000000000000000 
0.000000000000000 1.000000000000000 0.000000000000000 0.000000000000000 
0.000000000000000 0.000000000000000 1.000000000000000 -0.100000000000000 
2  74 -1 53 -1 0
1
1.000000000000000 0.000000000000000 0.000000000000000 0.000000000000000 
0.000000000000000 1.000000000000000 0.000000000000000 0.000000000000000 
0.000000000000000 0.000000000000000 1.000000000000000 4.400000000624287 
2  76 -1 74 -1 53 -1 0
2  10 -1 5 -1 16 -1 0
1
1.000000000000000 0.000000000000000 0.000000000000000 0.000000000000000 
0.000000000000000 1.000000000000000 0.000000000000000 0.000000000000000 
0.000000000000000 0.000000000000000 1.000000000000000 -0.100000000000000 
2  79 -1 34 -1 0
1
1.000000000000000 0.000000000000000 0.000000000000000 0.000000000000000 
0.000000000000000 1.000000000000000 0.000000000000000 0.000000000000000 
0.000000000000000 0.000000000000000 1.000000000000000 4.400000000624287 
2  81 -1 79 -1 34 -1 0
1
1.000000000000000 0.000000000000000 0.000000000000000 0.000000000000000 
0.000000000000000 1.000000000000000 0.000000000000000 0.000000000000000 
0.000000000000000 0.000000000000000 1.000000000000000 -0.100000000000000 
2  83 -1 34 -1 0
1
1.000000000000000 0.000000000000000 0.000000000000000 0.000000000000000 
0.000000000000000 1.000000000000000 0.000000000000000 0.000000000000000 
0.000000000000000 0.000000000000000 1.000000000000000 4.400000000624287 
2  85 -1 83 -1 34 -1 0
1
1.000000000000000 0.000000000000000 0.000000000000000 0.000000000000000 
0.000000000000000 1.000000000000000 0.000000000000000 0.000000000000000 
0.000000000000000 0.000000000000000 1.000000000000000 -0.100000000000000 
2  87 -1 43 -1 0
1
1.000000000000000 0.000000000000000 0.000000000000000 0.000000000000000 
0.000000000000000 1.000000000000000 0.000000000000000 0.000000000000000 
0.000000000000000 0.000000000000000 1.000000000000000 4.400000000624287 
2  89 -1 87 -1 43 -1 0
1
1.000000000000000 0.000000000000000 0.000000000000000 0.000000000000000 
0.000000000000000 1.000000000000000 0.000000000000000 0.000000000000000 
0.000000000000000 0.000000000000000 1.000000000000000 -0.100000000000000 
2  91 -1 48 -1 0
1
1.000000000000000 0.000000000000000 0.000000000000000 0.000000000000000 
0.000000000000000 1.000000000000000 0.000000000000000 0.000000000000000 
0.000000000000000 0.000000000000000 1.000000000000000 4.400000000624287 
2  93 -1 91 -1 48 -1 0
1
1.000000000000000 0.000000000000000 0.000000000000000 0.000000000000000 
0.000000000000000 1.000000000000000 0.000000000000000 0.000000000000000 
0.000000000000000 0.000000000000000 1.000000000000000 -0.100000000000000 
2  95 -1 53 -1 0
1
1.000000000000000 0.000000000000000 0.000000000000000 0.000000000000000 
0.000000000000000 1.000000000000000 0.000000000000000 0.000000000000000 
0.000000000000000 0.000000000000000 1.000000000000000 4.400000000624287 
2  97 -1 95 -1 53 -1 0
2  10 -1 5 -1 18 -1 0
1
1.000000000000000 0.000000000000000 0.000000000000000 0.000000000000000 
0.000000000000000 1.000000000000000 0.000000000000000 0.000000000000000 
0.000000000000000 0.000000000000000 1.000000000000000 -0.100000000000000 
2  100 -1 34 -1 0
1
1.000000000000000 0.000000000000000 0.000000000000000 0.000000000000000 
0.000000000000000 1.000000000000000 0.000000000000000 0.000000000000000 
0.000000000000000 0.000000000000000 1.000000000000000 4.400000000624287 
2  102 -1 100 -1 34 -1 0
1
1.000000000000000 0.000000000000000 0.000000000000000 0.000000000000000 
0.000000000000000 1.000000000000000 0.000000000000000 0.000000000000000 
0.000000000000000 0.000000000000000 1.000000000000000 -0.100000000000000 
2  104 -1 34 -1 0
1
1.000000000000000 0.000000000000000 0.000000000000000 0.000000000000000 
0.000000000000000 1.000000000000000 0.000000000000000 0.000000000000000 
0.000000000000000 0.000000000000000 1.000000000000000 4.400000000624287 
2  106 -1 104 -1 34 -1 0
1
1.000000000000000 0.000000000000000 0.000000000000000 0.000000000000000 
0.000000000000000 1.000000000000000 0.000000000000000 0.000000000000000 
0.000000000000000 0.000000000000000 1.000000000000000 -0.100000000000000 
2  108 -1 43 -1 0
1
1.000000000000000 0.000000000000000 0.000000000000000 0.000000000000000 
0.000000000000000 1.000000000000000 0.000000000000000 0.000000000000000 
0.000000000000000 0.000000000000000 1.000000000000000 4.400000000624287 
2  110 -1 108 -1 43 -1 0
1
1.000000000000000 0.000000000000000 0.000000000000000 0.000000000000000 
0.000000000000000 1.000000000000000 0.000000000000000 0.000000000000000 
0.000000000000000 0.000000000000000 1.000000000000000 -0.100000000000000 
2  112 -1 48 -1 0
1
1.000000000000000 0.000000000000000 0.000000000000000 0.000000000000000 
0.000000000000000 1.000000000000000 0.000000000000000 0.000000000000000 
0.000000000000000 0.000000000000000 1.000000000000000 4.400000000624287 
2  114 -1 112 -1 48 -1 0
1
1.000000000000000 0.000000000000000 0.000000000000000 0.000000000000000 
0.000000000000000 1.000000000000000 0.000000000000000 0.000000000000000 
0.000000000000000 0.000000000000000 1.000000000000000 -0.100000000000000 
2  116 -1 53 -1 0
1
1.000000000000000 0.000000000000000 0.000000000000000 0.000000000000000 
0.000000000000000 1.000000000000000 0.000000000000000 0.000000000000000 
0.000000000000000 0.000000000000000 1.000000000000000 4.400000000624287 
2  118 -1 116 -1 53 -1 0
2  10 -1 5 -1 20 -1 0
1
1.000000000000000 0.000000000000000 0.000000000000000 0.000000000000000 
0.000000000000000 1.000000000000000 0.000000000000000 0.000000000000000 
0.000000000000000 0.000000000000000 1.000000000000000 -0.100000000000000 
2  121 -1 34 -1 0
1
1.000000000000000 0.000000000000000 0.000000000000000 0.000000000000000 
0.000000000000000 1.000000000000000 0.000000000000000 0.000000000000000 
0.000000000000000 0.000000000000000 1.000000000000000 4.400000000624287 
2  123 -1 121 -1 34 -1 0
1
1.000000000000000 0.000000000000000 0.000000000000000 0.000000000000000 
0.000000000000000 1.000000000000000 0.000000000000000 0.000000000000000 
0.000000000000000 0.000000000000000 1.000000000000000 -0.100000000000000 
2  125 -1 34 -1 0
1
1.000000000000000 0.000000000000000 0.000000000000000 0.000000000000000 
0.000000000000000 1.000000000000000 0.000000000000000 0.000000000000000 
0.000000000000000 0.000000000000000 1.000000000000000 4.400000000624287 
2  127 -1 125 -1 34 -1 0
1
1.000000000000000 0.000000000000000 0.000000000000000 0.000000000000000 
0.000000000000000 1.000000000000000 0.000000000000000 0.000000000000000 
0.000000000000000 0.000000000000000 1.000000000000000 -0.100000000000000 
2  129 -1 43 -1 0
1
1.000000000000000 0.000000000000000 0.000000000000000 0.000000000000000 
0.000000000000000 1.000000000000000 0.000000000000000 0.000000000000000 
0.000000000000000 0.000000000000000 1.000000000000000 4.400000000624287 
2  131 -1 129 -1 43 -1 0
1
1.000000000000000 0.000000000000000 0.000000000000000 0.000000000000000 
0.000000000000000 1.000000000000000 0.000000000000000 0.000000000000000 
0.000000000000000 0.000000000000000 1.000000000000000 -0.100000000000000 
2  133 -1 48 -1 0
1
1.000000000000000 0.000000000000000 0.000000000000000 0.000000000000000 
0.000000000000000 1.000000000000000 0.000000000000000 0.000000000000000 
0.000000000000000 0.000000000000000 1.000000000000000 4.400000000624287 
2  135 -1 133 -1 48 -1 0
1
1.000000000000000 0.000000000000000 0.000000000000000 0.000000000000000 
0.000000000000000 1.000000000000000 0.000000000000000 0.000000000000000 
0.000000000000000 0.000000000000000 1.000000000000000 -0.100000000000000 
2  137 -1 53 -1 0
1
1.000000000000000 0.000000000000000 0.000000000000000 0.000000000000000 
0.000000000000000 1.000000000000000 0.000000000000000 0.000000000000000 
0.000000000000000 0.000000000000000 1.000000000000000 4.400000000624287 
2  139 -1 137 -1 53 -1 0
2  10 -1 5 -1 22 -1 0
Curve2ds 78
1 0.00000000000000000 -0.29999999999999999 1.00000000000000000 0.00000000000000000 
1 0.00000000000000000 -0.29999999999999999 1.00000000000000000 0.00000000000000000 
1 6.28318530717958623 37.39999999999999858 -1.00000000000000000 0.00000000000000000 
1 6.28318530717958623 37.39999999999999858 -1.00000000000000000 0.00000000000000000 
1 6.28318530717958623 37.39999999999999858 -1.00000000000000000 0.00000000000000000 
1 6.28318530717958623 37.39999999999999858 -1.00000000000000000 0.00000000000000000 
1 6.28318530717958623 37.39999999999999858 -1.00000000000000000 0.00000000000000000 
1 1.26757086729656221 0.00000000000000000 0.00000000000000000 -1.00000000000000000 
1 1.57079632679489656 0.00000000000000000 0.00000000000000000 -1.00000000000000000 
1 0.00000000000000000 0.00000000000000000 1.00000000000000000 0.00000000000000000 
1 1.57079632679489656 0.00000000000000000 0.00000000000000000 -1.00000000000000000 
1 1.87402178629321936 0.00000000000000000 0.00000000000000000 -1.00000000000000000 
1 0.00000000000000000 0.00000000000000000 1.00000000000000000 0.00000000000000000 
1 6.28318530717958623 37.10000000000000142 -1.00000000000000000 0.00000000000000000 
1 0.00000000000000000 0.00000000000000000 1.00000000000000000 0.00000000000000000 
1 0.00000000000000000 -4.40000000062428676 1.00000000000000000 0.00000000000000000 
1 0.00000000000000000 0.00000000000000000 1.00000000000000000 0.00000000000000000 
1 0.00000000000000000 -4.40000000062428676 1.00000000000000000 0.00000000000000000 
1 0.00000000000000000 0.00000000000000000 1.00000000000000000 0.00000000000000000 
1 0.00000000000000000 -4.40000000062428676 1.00000000000000000 0.00000000000000000 
1 0.00000000000000000 0.00000000000000000 1.00000000000000000 0.00000000000000000 
1 0.00000000000000000 -4.40000000062428676 1.00000000000000000 0.00000000000000000 
1 0.00000000000000000 0.00000000000000000 1.00000000000000000 0.00000000000000000 
1 0.00000000000000000 -4.40000000062428676 1.00000000000000000 0.00000000000000000 
1 6.28318530717958623 0.00000000000000000 0.00000000000000000 1.00000000000000000 
1 0.00000000000000000 0.00000000000000000 0.00000000000000000 1.00000000000000000 
1 6.28318530717958623 37.10000000000000142 -1.00000000000000000 0.00000000000000000 
1 0.00000000000000000 0.00000000000000000 1.00000000000000000 0.00000000000000000 
1 0.00000000000000000 -4.40000000062428676 1.00000000000000000 0.00000000000000000 
1 0.00000000000000000 0.00000000000000000 1.00000000000000000 0.00000000000000000 
1 0.00000000000000000 -4.40000000062428676 1.00000000000000000 0.00000000000000000 
1 0.00000000000000000 0.00000000000000000 1.00000000000000000 0.00000000000000000 
1 0.00000000000000000 -4.40000000062428676 1.00000000000000000 0.00000000000000000 
1 0.00000000000000000 0.00000000000000000 1.00000000000000000 0.00000000000000000 
1 0.00000000000000000 -4.40000000062428676 1.00000000000000000 0.00000000000000000 
1 0.00000000000000000 0.00000000000000000 1.00000000000000000 0.00000000000000000 
1 0.00000000000000000 -4.40000000062428676 1.00000000000000000 0.00000000000000000 
1 6.28318530717958623 0.00000000000000000 0.00000000000000000 1.00000000000000000 
1 0.00000000000000000 0.00000000000000000 0.00000000000000000 1.00000000000000000 
1 6.28318530717958623 37.10000000000000142 -1.00000000000000000 0.00000000000000000 
1 0.00000000000000000 0.00000000000000000 1.00000000000000000 0.00000000000000000 
1 0.00000000000000000 -4.40000000062428676 1.00000000000000000 0.00000000000000000 
1 0.00000000000000000 0.00000000000000000 1.00000000000000000 0.00000000000000000 
1 0.00000000000000000 -4.40000000062428676 1.00000000000000000 0.00000000000000000 
1 0.00000000000000000 0.00000000000000000 1.00000000000000000 0.00000000000000000 
1 0.00000000000000000 -4.40000000062428676 1.00000000000000000 0.00000000000000000 
1 0.00000000000000000 0.00000000000000000 1.00000000000000000 0.00000000000000000 
1 0.00000000000000000 -4.40000000062428676 1.00000000000000000 0.00000000000000000 
1 0.00000000000000000 0.00000000000000000 1.00000000000000000 0.00000000000000000 
1 0.00000000000000000 -4.40000000062428676 1.00000000000000000 0.00000000000000000 
1 6.28318530717958623 0.00000000000000000 0.00000000000000000 1.00000000000000000 
1 0.00000000000000000 0.00000000000000000 0.00000000000000000 1.00000000000000000 
1 6.28318530717958623 37.10000000000000142 -1.00000000000000000 0.00000000000000000 
1 0.00000000000000000 0.00000000000000000 1.00000000000000000 0.00000000000000000 
1 0.00000000000000000 -4.40000000062428676 1.00000000000000000 0.00000000000000000 
1 0.00000000000000000 0.00000000000000000 1.00000000000000000 0.00000000000000000 
1 0.00000000000000000 -4.40000000062428676 1.00000000000000000 0.00000000000000000 
1 0.00000000000000000 0.00000000000000000 1.00000000000000000 0.00000000000000000 
1 0.00000000000000000 -4.40000000062428676 1.00000000000000000 0.00000000000000000 
1 0.00000000000000000 0.00000000000000000 1.00000000000000000 0.00000000000000000 
1 0.00000000000000000 -4.40000000062428676 1.00000000000000000 0.00000000000000000 
1 0.00000000000000000 0.00000000000000000 1.00000000000000000 0.00000000000000000 
1 0.00000000000000000 -4.40000000062428676 1.00000000000000000 0.00000000000000000 
1 6.28318530717958623 0.00000000000000000 0.00000000000000000 1.00000000000000000 
1 0.00000000000000000 0.00000000000000000 0.00000000000000000 1.00000000000000000 
1 6.28318530717958623 37.10000000000000142 -1.00000000000000000 0.00000000000000000 
1 0.00000000000000000 0.00000000000000000 1.00000000000000000 0.00000000000000000 
1 0.00000000000000000 -4.40000000062428676 1.00000000000000000 0.00000000000000000 
1 0.00000000000000000 0.00000000000000000 1.00000000000000000 0.00000000000000000 
1 0.00000000000000000 -4.40000000062428676 1.00000000000000000 0.00000000000000000 
1 0.00000000000000000 0.00000000000000000 1.00000000000000000 0.00000000000000000 
1 0.00000000000000000 -4.40000000062428676 1.00000000000000000 0.00000000000000000 
1 0.00000000000000000 0.00000000000000000 1.00000000000000000 0.00000000000000000 
1 0.00000000000000000 -4.40000000062428676 1.00000000000000000 0.00000000000000000 
1 0.00000000000000000 0.00000000000000000 1.00000000000000000 0.00000000000000000 
1 0.00000000000000000 -4.40000000062428676 1.00000000000000000 0.00000000000000000 
1 6.28318530717958623 0.00000000000000000 0.00000000000000000 1.00000000000000000 
1 0.00000000000000000 0.00000000000000000 0.00000000000000000 1.00000000000000000 
Curves 45
1 72.49845130209044441 -152.62175689746464968 0.29999999999999999 -0.00000000000000000 0.00000000000000000 -1.00000000000000000 
1 72.49845130209044441 -120.58029789065264481 0.29999999999999999 -0.00000000000000000 0.00000000000000000 -1.00000000000000000 
1 72.49845130209044441 -152.62175689746464968 0.29999999999999999 0.00000000000000012 1.00000000000000000 0.00000000000000000 
1 72.49845130209044441 -152.62175689746464968 0.00000000000000000 0.00000000000000012 1.00000000000000000 0.00000000000000000 
1 72.49845130209044441 -120.58029789065264481 0.29999999999999999 -1.00000000000000000 0.00000000000000012 0.00000000000000000 
1 -72.49845130209047284 -120.58029789065261639 0.29999999999999999 -0.00000000000000012 -1.00000000000000000 0.00000000000000000 
1 -72.49845130209047284 -152.62175689746464968 0.29999999999999999 1.00000000000000000 -0.00000000000000012 0.00000000000000000 
1 -41.19999999999944151 -152.62175689746464968 0.29999999999999999 0.95437833286106810 -0.29860006323731508 0.00000000000000000 
2 -14.86666666666081049 -155.62175689746570129 0.29999999999999999 0.00000000000000000 0.00000000000000000 1.00000000000000000 -1.00000000000000000 0.00000000000000012 0.00000000000000000 -0.00000000000000012 -1.00000000000000000 0.00000000000000000 5.00000000000000000
1 -14.86666666666081049 -160.62175689746570129 0.29999999999999999 1.00000000000000000 -0.00000000000000012 0.00000000000000000 
2 14.86666666666069858 -155.62175689746570129 0.29999999999999999 0.00000000000000000 0.00000000000000000 1.00000000000000000 -1.00000000000000000 0.00000000000000012 0.00000000000000000 -0.00000000000000012 -1.00000000000000000 0.00000000000000000 5.00000000000000000
1 16.35966698284720877 -160.39364856177107299 0.29999999999999999 0.95437833286106821 0.29860006323731447 0.00000000000000000 
1 41.19999999999939888 -152.62175689746464968 0.29999999999999999 -1.00000000000000000 0.00000000000000012 0.00000000000000949 
2 22.29999999999969873 -125.58029789065402326 0.29999999999999716 -0.00000000000000000 -0.00000000000000000 1.00000000000000000 1.00000000000000000 -0.00000000000000012 0.00000000000000000 0.00000000000000012 1.00000000000000000 0.00000000000000000 1.69999999999999996
2 -22.29999999999972715 -125.58029789065263060 0.29999999999999716 -0.00000000000000000 -0.00000000000000000 1.00000000000000000 1.00000000000000000 -0.00000000000000012 0.00000000000000000 0.00000000000000012 1.00000000000000000 0.00000000000000000 1.69999999999999996
2 14.86666666666076964 -155.62175689746496232 0.29999999999999716 -0.00000000000000000 -0.00000000000000000 1.00000000000000000 1.00000000000000000 -0.00000000000000012 0.00000000000000000 0.00000000000000012 1.00000000000000000 0.00000000000000000 1.69999999999999996
2 -0.00000000000008180 -129.87193489162959281 0.29999999999999716 -0.00000000000000000 -0.00000000000000000 1.00000000000000000 1.00000000000000000 -0.00000000000000012 0.00000000000000000 0.00000000000000012 1.00000000000000000 0.00000000000000000 1.69999999999999996
2 -14.86666666666081049 -155.62175689746570129 0.29999999999999716 -0.00000000000000000 -0.00000000000000000 1.00000000000000000 1.00000000000000000 -0.00000000000000012 0.00000000000000000 0.00000000000000012 1.00000000000000000 0.00000000000000000 1.69999999999999996
1 -72.49845130209047284 -120.58029789065261639 0.29999999999999999 -0.00000000000000000 0.00000000000000000 -1.00000000000000000 
1 -72.49845130209047284 -152.62175689746464968 0.29999999999999999 -0.00000000000000000 0.00000000000000000 -1.00000000000000000 
1 -72.49845130209047284 -120.58029789065261639 0.00000000000000000 -0.00000000000000012 -1.00000000000000000 0.00000000000000000 
1 -41.19999999999944151 -152.62175689746464968 0.00000000000000000 0.00000000000000000 0.00000000000000000 -1.00000000000000000 
1 -16.35966698284737930 -160.39364856177104457 0.00000000000000000 0.00000000000000000 0.00000000000000000 1.00000000000000000 
1 -41.19999999999944151 -152.62175689746464968 0.00000000000000000 0.95437833286106810 -0.29860006323731508 0.00000000000000000 
1 -14.86666666666081049 -160.62175689746570129 0.00000000000000000 0.00000000000000000 0.00000000000000000 1.00000000000000000 
2 -14.86666666666081049 -155.62175689746570129 0.00000000000000000 0.00000000000000000 0.00000000000000000 1.00000000000000000 -1.00000000000000000 0.00000000000000012 0.00000000000000000 -0.00000000000000012 -1.00000000000000000 0.00000000000000000 5.00000000000000000
1 14.86666666666070036 -160.62175689746570129 0.00000000000000000 0.00000000000000000 0.00000000000000000 1.00000000000000000 
1 -14.86666666666081049 -160.62175689746570129 0.00000000000000000 1.00000000000000000 -0.00000000000000012 0.00000000000000000 
1 16.35966698284720877 -160.39364856177107299 0.00000000000000000 0.00000000000000000 0.00000000000000000 1.00000000000000000 
1 41.19999999999939888 -152.62175689746464968 0.00000000000000000 0.00000000000000000 0.00000000000000000 1.00000000000000000 
1 16.35966698284720877 -160.39364856177107299 0.00000000000000000 0.95437833286106821 0.29860006323731447 0.00000000000000000 
2 14.86666666666069858 -155.62175689746570129 0.00000000000000000 0.00000000000000000 0.00000000000000000 1.00000000000000000 -1.00000000000000000 0.00000000000000012 0.00000000000000000 -0.00000000000000012 -1.00000000000000000 0.00000000000000000 5.00000000000000000
2 22.29999999999969873 -125.58029789065402326 0.00000000000000000 -0.00000000000000000 -0.00000000000000000 1.00000000000000000 1.00000000000000000 -0.00000000000000012 0.00000000000000000 0.00000000000000012 1.00000000000000000 0.00000000000000000 1.69999999999999996
1 46.29999999999941451 -251.16059578130804653 0.00000000000000000 -0.00000000000000006 0.00000000000000000 1.00000000000000000 
2 -22.29999999999972715 -125.58029789065263060 0.00000000000000000 -0.00000000000000000 -0.00000000000000000 1.00000000000000000 1.00000000000000000 -0.00000000000000012 0.00000000000000000 0.00000000000000012 1.00000000000000000 0.00000000000000000 1.69999999999999996
1 -42.89999999999943725 -251.16059578130526120 0.00000000000000000 -0.00000000000000006 0.00000000000000000 1.00000000000000000 
2 14.86666666666076964 -155.62175689746496232 0.00000000000000000 -0.00000000000000000 -0.00000000000000000 1.00000000000000000 1.00000000000000000 -0.00000000000000012 0.00000000000000000 0.00000000000000012 1.00000000000000000 0.00000000000000000 1.69999999999999996
1 31.43333333332155988 -311.24351379492992464 0.00000000000000000 -0.00000000000000006 0.00000000000000000 1.00000000000000000 
2 -0.00000000000008180 -129.87193489162959281 0.00000000000000000 -0.00000000000000000 -0.00000000000000000 1.00000000000000000 1.00000000000000000 -0.00000000000000012 0.00000000000000000 0.00000000000000012 1.00000000000000000 0.00000000000000000 1.69999999999999996
1 1.69999999999985230 -259.74386978325918562 0.00000000000000000 -0.00000000000000006 0.00000000000000000 1.00000000000000000 
2 -14.86666666666081049 -155.62175689746570129 0.00000000000000000 -0.00000000000000000 -0.00000000000000000 1.00000000000000000 1.00000000000000000 -0.00000000000000012 0.00000000000000000 0.00000000000000012 1.00000000000000000 0.00000000000000000 1.69999999999999996
1 -28.03333333332160393 -311.24351379493140257 0.00000000000000000 -0.00000000000000006 0.00000000000000000 1.00000000000000000 
1 41.19999999999939888 -152.62175689746464968 0.00000000000000000 1.00000000000000000 -0.00000000000000012 0.00000000000000000 
1 -72.49845130209047284 -152.62175689746464968 0.00000000000000000 1.00000000000000000 -0.00000000000000012 0.00000000000000000 
1 -41.49845130209047284 -120.58029789065263060 0.00000000000000000 -1.00000000000000000 0.00000000000000012 0.00000000000000000 
Polygon3D 0
PolygonOnTriangulations 0
Surfaces 42
1 72.79690260418148284 -152.62175689746464968 0.29999999999999999 1.00000000000000000 -0.00000000000000012 -0.00000000000000000 0.00000000000000012 1.00000000000000000 0.00000000000000000 0.00000000000000000 -0.00000000000000000 1.00000000000000000 
1 -0.00000000000001706 -138.01176416726238472 0.29999999999999988 0.00000000000000000 0.00000000000000000 1.00000000000000000 -0.00000000000000012 -1.00000000000000000 0.00000000000000000 1.00000000000000000 -0.00000000000000012 0.00000000000000000 
2 -14.86666666666081049 -155.62175689746570129 0.00000000000000000 0.00000000000000000 0.00000000000000000 -1.00000000000000000 -1.00000000000000000 0.00000000000000012 0.00000000000000000 -0.00000000000000012 -1.00000000000000000 -0.00000000000000000 5.00000000000000000
2 14.86666666666069858 -155.62175689746570129 0.00000000000000000 0.00000000000000000 0.00000000000000000 -1.00000000000000000 -1.00000000000000000 0.00000000000000012 0.00000000000000000 -0.00000000000000012 -1.00000000000000000 -0.00000000000000000 5.00000000000000000
2 44.59999999999941167 -251.16059578130804653 0.00000000000000000 -0.00000000000000000 -0.00000000000000000 1.00000000000000000 1.00000000000000000 -0.00000000000000012 0.00000000000000000 -0.00000000000000012 -1.00000000000000000 -0.00000000000000000 1.69999999999999996
2 -44.59999999999944009 -251.16059578130526120 0.00000000000000000 -0.00000000000000000 -0.00000000000000000 1.00000000000000000 1.00000000000000000 -0.00000000000000012 0.00000000000000000 -0.00000000000000012 -1.00000000000000000 -0.00000000000000000 1.69999999999999996
2 29.73333333332156059 -311.24351379492992464 0.00000000000000000 -0.00000000000000000 -0.00000000000000000 1.00000000000000000 1.00000000000000000 -0.00000000000000012 0.00000000000000000 -0.00000000000000012 -1.00000000000000000 -0.00000000000000000 1.69999999999999996
2 -0.00000000000014770 -259.74386978325918562 0.00000000000000000 -0.00000000000000000 -0.00000000000000000 1.00000000000000000 1.00000000000000000 -0.00000000000000012 0.00000000000000000 -0.00000000000000012 -1.00000000000000000 -0.00000000000000000 1.69999999999999996
2 -29.73333333332160322 -311.24351379493140257 0.00000000000000000 -0.00000000000000000 -0.00000000000000000 1.00000000000000000 1.00000000000000000 -0.00000000000000012 0.00000000000000000 -0.00000000000000012 -1.00000000000000000 -0.00000000000000000 1.69999999999999996
1 -72.79690260418151126 -120.58029789065261639 0.29999999999999999 -1.00000000000000000 0.00000000000000012 0.00000000000000000 -0.00000000000000012 -1.00000000000000000 0.00000000000000000 0.00000000000000000 0.00000000000000000 1.00000000000000000 
1 -41.19999999999944151 -152.62175689746464968 0.00000000000000000 0.29860006323731508 0.95437833286106810 0.00000000000000000 0.95437833286106810 -0.29860006323731508 0.00000000000000000 0.00000000000000000 0.00000000000000000 -1.00000000000000000 
1 -14.86666666666081049 -160.62175689746570129 0.00000000000000000 0.00000000000000012 1.00000000000000000 0.00000000000000000 1.00000000000000000 -0.00000000000000012 0.00000000000000000 0.00000000000000000 0.00000000000000000 -1.00000000000000000 
1 16.35966698284720877 -160.39364856177107299 0.00000000000000000 -0.29860006323731447 0.95437833286106821 0.00000000000000000 0.95437833286106821 0.29860006323731447 0.00000000000000000 0.00000000000000000 0.00000000000000000 -1.00000000000000000 
2 890.29999999999972715 -246.16059789065400309 -0.10000000000000001 0.00000000000000000 0.00000000000000000 -1.00000000000000000 1.00000000000000000 -0.00000000000000012 0.00000000000000000 0.00000000000000012 1.00000000000000000 0.00000000000000000 1.69999999999999996
2 890.29999999999972715 -246.16059789065400309 -0.10000000000000001 0.00000000000000000 0.00000000000000000 -1.00000000000000000 1.00000000000000000 -0.00000000000000012 0.00000000000000000 0.00000000000000012 1.00000000000000000 0.00000000000000000 1.69999999999999996
2 845.70000000000027285 283.87789789065402601 -0.10000000000000001 -0.00000000000000000 -0.00000000000000000 -1.00000000000000000 -1.00000000000000000 0.00000000000000024 0.00000000000000000 -0.00000000000000024 -1.00000000000000000 0.00000000000000000 1.69999999999999996
2 890.29999999999972715 32.71730210934596528 -0.10000000000000001 0.00000000000000000 0.00000000000000000 -1.00000000000000000 1.00000000000000000 -0.00000000000000012 0.00000000000000000 0.00000000000000012 1.00000000000000000 0.00000000000000000 1.69999999999999996
2 845.70000000000027285 5.00000000000136424 -0.10000000000000001 -0.00000000000000000 -0.00000000000000000 -1.00000000000000000 -1.00000000000000000 0.00000000000000057 0.00000000000000000 -0.00000000000000057 -1.00000000000000000 0.00000000000000000 1.69999999999999996
2 845.70000000000027285 -246.16059789065263885 -0.10000000000000001 0.00000000000000000 0.00000000000000000 -1.00000000000000000 1.00000000000000000 -0.00000000000000012 0.00000000000000000 0.00000000000000012 1.00000000000000000 0.00000000000000000 1.69999999999999996
2 845.70000000000027285 -246.16059789065263885 -0.10000000000000001 0.00000000000000000 0.00000000000000000 -1.00000000000000000 1.00000000000000000 -0.00000000000000012 0.00000000000000000 0.00000000000000012 1.00000000000000000 0.00000000000000000 1.69999999999999996
2 890.29999999999972715 283.87789789065260493 -0.10000000000000001 -0.00000000000000000 -0.00000000000000000 -1.00000000000000000 -1.00000000000000000 0.00000000000000024 0.00000000000000000 -0.00000000000000024 -1.00000000000000000 0.00000000000000000 1.69999999999999996
2 845.70000000000027285 32.71730210934735794 -0.10000000000000001 0.00000000000000000 0.00000000000000000 -1.00000000000000000 1.00000000000000000 -0.00000000000000012 0.00000000000000000 0.00000000000000012 1.00000000000000000 0.00000000000000000 1.69999999999999996
2 890.29999999999972715 4.99999999999994316 -0.10000000000000001 -0.00000000000000000 -0.00000000000000000 -1.00000000000000000 -1.00000000000000000 0.00000000000000057 0.00000000000000000 -0.00000000000000057 -1.00000000000000000 0.00000000000000000 1.69999999999999996
2 882.86666666666076253 -276.20205689746495636 -0.10000000000000001 0.00000000000000000 0.00000000000000000 -1.00000000000000000 1.00000000000000000 -0.00000000000000012 0.00000000000000000 0.00000000000000012 1.00000000000000000 0.00000000000000000 1.69999999999999996
2 882.86666666666076253 -276.20205689746495636 -0.10000000000000001 0.00000000000000000 0.00000000000000000 -1.00000000000000000 1.00000000000000000 -0.00000000000000012 0.00000000000000000 0.00000000000000012 1.00000000000000000 0.00000000000000000 1.69999999999999996
2 853.13333333333923747 313.91935689746492244 -0.10000000000000001 -0.00000000000000000 -0.00000000000000000 -1.00000000000000000 -1.00000000000000000 0.00000000000000024 0.00000000000000000 -0.00000000000000024 -1.00000000000000000 0.00000000000000000 1.69999999999999996
2 882.86666666666076253 2.67584310253502622 -0.10000000000000001 0.00000000000000000 0.00000000000000000 -1.00000000000000000 1.00000000000000000 -0.00000000000000012 0.00000000000000000 0.00000000000000012 1.00000000000000000 0.00000000000000000 1.69999999999999996
2 853.13333333333923747 35.04145900681228909 -0.10000000000000001 -0.00000000000000000 -0.00000000000000000 -1.00000000000000000 -1.00000000000000000 0.00000000000000057 0.00000000000000000 -0.00000000000000057 -1.00000000000000000 0.00000000000000000 1.69999999999999996
2 867.99999999999988631 -250.45223489162958685 -0.10000000000000001 0.00000000000000000 0.00000000000000000 -1.00000000000000000 1.00000000000000000 -0.00000000000000012 0.00000000000000000 0.00000000000000012 1.00000000000000000 0.00000000000000000 1.69999999999999996
2 867.99999999999988631 -250.45223489162958685 -0.10000000000000001 0.00000000000000000 0.00000000000000000 -1.00000000000000000 1.00000000000000000 -0.00000000000000012 0.00000000000000000 0.00000000000000012 1.00000000000000000 0.00000000000000000 1.69999999999999996
2 868.00000000000011369 288.16953489162960977 -0.10000000000000001 -0.00000000000000000 -0.00000000000000000 -1.00000000000000000 -1.00000000000000000 0.00000000000000024 0.00000000000000000 -0.00000000000000024 -1.00000000000000000 0.00000000000000000 1.69999999999999996
2 867.99999999999988631 28.42566510837039573 -0.10000000000000001 0.00000000000000000 0.00000000000000000 -1.00000000000000000 1.00000000000000000 -0.00000000000000012 0.00000000000000000 0.00000000000000012 1.00000000000000000 0.00000000000000000 1.69999999999999996
2 868.00000000000000000 9.29163700097691958 -0.10000000000000001 -0.00000000000000000 -0.00000000000000000 -1.00000000000000000 -1.00000000000000000 0.00000000000000057 0.00000000000000000 -0.00000000000000057 -1.00000000000000000 0.00000000000000000 1.69999999999999996
2 853.13333333333923747 -276.20205689746569533 -0.10000000000000001 0.00000000000000000 0.00000000000000000 -1.00000000000000000 1.00000000000000000 -0.00000000000000012 0.00000000000000000 0.00000000000000012 1.00000000000000000 0.00000000000000000 1.69999999999999996
2 853.13333333333923747 -276.20205689746569533 -0.10000000000000001 0.00000000000000000 0.00000000000000000 -1.00000000000000000 1.00000000000000000 -0.00000000000000012 0.00000000000000000 0.00000000000000012 1.00000000000000000 0.00000000000000000 1.69999999999999996
2 882.86666666666087622 313.91935689746571825 -0.10000000000000001 -0.00000000000000000 -0.00000000000000000 -1.00000000000000000 -1.00000000000000000 0.00000000000000024 0.00000000000000000 -0.00000000000000024 -1.00000000000000000 0.00000000000000000 1.69999999999999996
2 853.13333333333923747 2.67584310253428725 -0.10000000000000001 0.00000000000000000 0.00000000000000000 -1.00000000000000000 1.00000000000000000 -0.00000000000000012 0.00000000000000000 0.00000000000000012 1.00000000000000000 0.00000000000000000 1.69999999999999996
2 882.86666666666076253 35.04145900681302805 -0.10000000000000001 -0.00000000000000000 -0.00000000000000000 -1.00000000000000000 -1.00000000000000000 0.00000000000000057 0.00000000000000000 -0.00000000000000057 -1.00000000000000000 0.00000000000000000 1.69999999999999996
1 56.84922565104491810 -152.62175689746467810 0.14999999999999997 -0.00000000000000012 -1.00000000000000000 0.00000000000000000 0.00000000000000000 0.00000000000000000 1.00000000000000000 -1.00000000000000000 0.00000000000000012 0.00000000000000000 
1 -56.84922565104496783 -152.62175689746467810 0.14999999999999997 -0.00000000000000012 -1.00000000000000000 0.00000000000000000 0.00000000000000000 0.00000000000000000 1.00000000000000000 -1.00000000000000000 0.00000000000000012 0.00000000000000000 
1 -0.00000000000001307 -138.01176416726232787 0.00000000000000000 0.00000000000000000 0.00000000000000000 -1.00000000000000000 1.00000000000000000 -0.00000000000000012 0.00000000000000000 -0.00000000000000012 -1.00000000000000000 -0.00000000000000000 
1 -0.00000000000001320 -120.58029789065257376 0.14999999999999991 0.00000000000000012 1.00000000000000000 0.00000000000000000 0.00000000000000000 0.00000000000000000 -1.00000000000000000 -1.00000000000000000 0.00000000000000012 0.00000000000000000 
Triangulations 0

TShapes 121
Ve
0.000000100000000
-72.498451302090430 152.621756897464650 0.300000000000004
0 0

0101101
*
Ve
0.000000100000000
-72.498451302090430 152.621756897464650 0.000000000000007
0 0

0101101
*
Ed
 0.000000100000000 1 1 0
1  1 0 0.000000000000000 0.300000000000000
0

0101000
+121 11 -120 11 *
Ve
0.000000100000000
-72.498451302090430 120.580297890652659 0.300000000000004
0 0

0101101
*
Ve
0.000000100000000
-72.498451302090430 120.580297890652659 0.000000000000007
0 0

0101101
*
Ed
 0.000000100000000 1 1 0
1  2 0 0.000000000000000 0.300000000000000
0

0101000
+118 11 -117 11 *
Ed
 0.000000100000000 1 1 0
1  3 0 0.000000000000000 32.041459006812019
0

0101000
+121 11 -118 11 *
Ed
 0.000000100000000 1 1 0
1  4 0 0.000000000000000 32.041459006812019
0

0101000
+120 11 -117 11 *
Wi

0101100
+119 9 -116 9 -115 9 +114 9 *
Fa
0  0.000000100000000 1 0

0111000
+113 0 *
Ve
0.000000100000000
72.498451302090487 120.580297890652602 0.300000000000004
0 0

0101101
*
Ed
 0.000000100000000 1 1 0
1  5 0 0.000000000000000 144.996902604180917
0

0101000
+118 11 -111 11 *
Ve
0.000000100000000
72.498451302090487 152.621756897464650 0.300000000000004
0 0

0101101
*
Ed
 0.000000100000000 1 1 0
1  6 0 0.000000000000000 32.041459006812019
0

0101000
+111 11 -109 11 *
Ve
0.000000100000000
41.199999999999463 152.621756897464650 0.300000000000000
0 0

0101101
*
Ed
 0.000000100000000 1 1 0
1  7 0 0.000000000000000 31.298451302091038
0

0101000
+109 11 -107 11 *
Ve
0.000000100000004
16.359666982847401 160.393648561771045 0.300000000000000
0 0

0101101
*
Ed
 0.000000100000000 1 1 0
1  8 0 0.000000000000000 26.027762955058776
0

0101000
+107 11 -105 11 *
Ve
0.000000100000000
14.866666666660830 160.621756897465701 0.300000000000000
0 0

0101101
*
Ed
 0.000000100000000 1 1 0
1  9 0 1.267570867296562 1.570796326794897
2  1 3 13 1.267570867296562 1.570796326794897
0

0101000
+105 11 -103 11 *
Ve
0.000000100000001
-14.866666666660681 160.621756897465701 0.300000000000000
0 0

0101101
*
Ed
 0.000000100000000 1 1 0
1  10 0 0.000000000000000 29.733333333321511
0

0101000
+103 11 -101 11 *
Ve
0.000000100000000
-16.359666982847187 160.393648561771073 0.300000000000000
0 0

0101101
*
Ed
 0.000000100000000 1 1 0
1  11 0 1.570796326794897 1.874021786293219
2  2 4 13 1.570796326794897 1.874021786293219
0

0101000
+101 11 -99 11 *
Ve
0.000000100000000
-41.199999999999378 152.621756897464650 0.300000000000000
0 0

0101101
*
Ed
 0.000000100000000 1 1 0
1  12 0 0.000000000000000 26.027762955058908
0

0101000
+99 11 -97 11 *
Ed
 0.000000100000000 1 1 0
1  13 0 -31.298451302091038 0.000000000000000
0

0101000
+121 11 -97 11 *
Wi

0101000
+115 0 +110 0 +108 0 +106 0 +104 0 +102 0 +100 0 +98 0 +96 0 -95 0 
*
Ve
0.000000100000004
-23.999999999999680 125.580297890654023 0.299999999999997
0 0

0101101
*
Ed
 0.000000100000000 1 1 0
1  14 0 0.000000000000000 6.283185307179586
2  3 5 15 0.000000000000000 6.283185307179586
0

0101000
+93 11 -93 11 *
Wi

0101100
-92 0 *
Ve
0.000000100000004
20.599999999999746 125.580297890652631 0.299999999999997
0 0

0101101
*
Ed
 0.000000100000000 1 1 0
1  15 0 0.000000000000000 6.283185307179586
2  4 6 17 0.000000000000000 6.283185307179586
0

0101000
+90 11 -90 11 *
Wi

0101100
-89 0 *
Ve
0.000000100000004
-16.566666666660751 155.621756897464962 0.299999999999997
0 0

0101101
*
Ed
 0.000000100000000 1 1 0
1  16 0 0.000000000000000 6.283185307179586
2  5 7 19 0.000000000000000 6.283185307179586
0

0101000
+87 11 -87 11 *
Wi

0101100
-86 0 *
Ve
0.000000100000002
-1.699999999999900 129.871934891629593 0.299999999999997
0 0

0101101
*
Ed
 0.000000100000000 1 1 0
1  17 0 0.000000000000000 6.283185307179586
2  6 8 21 0.000000000000000 6.283185307179586
0

0101000
+84 11 -84 11 *
Wi

0101100
-83 0 *
Ve
0.000000100000002
13.166666666660833 155.621756897465701 0.299999999999997
0 0

0101101
*
Ed
 0.000000100000000 1 1 0
1  18 0 0.000000000000000 6.283185307179586
2  7 9 23 0.000000000000000 6.283185307179586
0

0101000
+81 11 -81 11 *
Wi

0101100
-80 0 *
Fa
0  0.000000100000000 2 0

0111000
+94 0 +91 0 +88 0 +85 0 +82 0 +79 0 *
Ve
0.000000100000000
72.498451302090487 120.580297890652602 0.000000000000007
0 0

0101101
*
Ed
 0.000000100000000 1 1 0
1  19 0 0.000000000000000 0.300000000000000
0

0101000
+111 11 -77 11 *
Ve
0.000000100000000
72.498451302090487 152.621756897464650 0.000000000000007
0 0

0101101
*
Ed
 0.000000100000000 1 1 0
1  20 0 0.000000000000000 0.300000000000000
0

0101000
+109 11 -75 11 *
Ed
 0.000000100000000 1 1 0
1  21 0 0.000000000000000 32.041459006812019
0

0101000
+77 11 -75 11 *
Wi

0101100
+76 28 -74 28 -108 28 +73 28 *
Fa
0  0.000000100000000 10 0

0111000
+72 0 *
Ve
0.000000100000000
41.199999999999463 152.621756897464650 0.000000000000000
0 0

0101101
*
Ed
 0.000000100000000 1 1 0
1  22 0 -0.300000000000000 0.000000000000000
0

0101000
+107 11 -70 11 *
Ve
0.000000100000000
16.359666982847401 160.393648561771045 0.000000000000000
0 0

0101101
*
Ed
 0.000000100000000 1 1 0
1  23 0 0.000000000000000 0.300000000000000
2  8 3 13 0.000000000000000 0.300000000000000
4 G1 11 13 3 13
0

0101000
+68 11 -105 11 *
Ed
 0.000000100000000 1 1 0
1  24 0 0.000000000000000 26.027762955058776
0

0101000
+70 11 -68 11 *
Wi

0101100
-69 30 -67 30 -66 30 +104 30 *
Fa
0  0.000000100000000 11 12

0111000
+65 0 *
Ve
0.000000100000000
14.866666666660830 160.621756897465701 0.000000000000000
0 0

0101101
*
Ed
 0.000000100000000 1 1 0
1  25 0 0.000000000000000 0.300000000000000
2  9 3 13 0.000000000000000 0.300000000000000
4 G1 3 13 12 13
0

0101000
+63 11 -103 11 *
Ed
 0.000000100000000 1 1 0
1  26 0 1.267570867296562 1.570796326794897
2  10 3 13 1.267570867296562 1.570796326794897
0

0101000
+68 11 -63 11 *
Wi

0101100
+67 31 -62 31 -61 31 +102 31 *
Fa
0  0.000000100000000 3 0

0111000
+60 0 *
Ve
0.000000100000001
-14.866666666660681 160.621756897465701 0.000000000000000
0 0

0101101
*
Ed
 0.000000100000000 1 1 0
1  27 0 0.000000000000000 0.300000000000000
2  11 4 13 0.000000000000000 0.300000000000000
4 G1 12 13 4 13
0

0101000
+58 11 -101 11 *
Ed
 0.000000100000000 1 1 0
1  28 0 0.000000000000000 29.733333333321511
0

0101000
+63 11 -58 11 *
Wi

0101100
+62 31 -57 31 -56 31 +100 31 *
Fa
0  0.000000100000000 12 0

0111000
+55 0 *
Ve
0.000000100000000
-16.359666982847187 160.393648561771073 0.000000000000000
0 0

0101101
*
Ed
 0.000000100000000 1 1 0
1  29 0 0.000000000000000 0.300000000000000
2  12 4 13 0.000000000000000 0.300000000000000
4 G1 13 13 4 13
0

0101000
+53 11 -99 11 *
Ve
0.000000100000000
-41.199999999999378 152.621756897464650 0.000000000000000
0 0

0101101
*
Ed
 0.000000100000000 1 1 0
1  30 0 0.000000000000000 0.300000000000000
0

0101000
+51 11 -97 11 *
Ed
 0.000000100000000 1 1 0
1  31 0 0.000000000000000 26.027762955058908
0

0101000
+53 11 -51 11 *
Wi

0101100
+52 30 -50 30 -49 30 +96 30 *
Fa
0  0.000000100000000 13 12

0111000
+48 0 *
Ed
 0.000000100000000 1 1 0
1  32 0 1.570796326794897 1.874021786293219
2  13 4 13 1.570796326794897 1.874021786293219
0

0101000
+58 11 -53 11 *
Wi

0101100
+57 31 -52 31 -46 31 +98 31 *
Fa
0  0.000000100000000 4 0

0111000
+45 0 *
Ve
0.000000100000004
-23.999999999999680 125.580297890654023 0.000000000000000
0 0

0101101
*
Ed
 0.000000100000000 1 1 0
1  33 0 0.000000000000000 6.283185307179586
2  14 5 15 0.000000000000000 6.283185307179586
2  15 14 35 0.000000000000000 6.283185307179586
2  16 14 37 0.000000000000000 6.283185307179586
2  17 15 39 0.000000000000000 6.283185307179586
2  18 15 41 0.000000000000000 6.283185307179586
2  19 16 44 0.000000000000000 6.283185307179586
2  20 16 46 0.000000000000000 6.283185307179586
2  21 17 49 0.000000000000000 6.283185307179586
2  22 17 51 0.000000000000000 6.283185307179586
2  23 18 54 0.000000000000000 6.283185307179586
2  24 18 56 0.000000000000000 6.283185307179586
0

0101000
+43 11 -43 11 *
Ed
 0.000000100000000 1 1 0
1  34 0 37.100000000000001 37.399999999999999
3  25 26CN 5 0 37.100000000000001 37.399999999999999
0

0101000
+43 57 -93 57 *
Wi

0101100
-42 32 -41 14 +92 32 +41 14 *
Fa
0  0.000000100000000 5 14

0111000
+40 0 *
Ve
0.000000100000004
20.599999999999746 125.580297890652631 0.000000000000000
0 0

0101101
*
Ed
 0.000000100000000 1 1 0
1  35 0 0.000000000000000 6.283185307179586
2  27 6 17 0.000000000000000 6.283185307179586
2  28 19 59 0.000000000000000 6.283185307179586
2  29 19 61 0.000000000000000 6.283185307179586
2  30 20 63 0.000000000000000 6.283185307179586
2  31 20 65 0.000000000000000 6.283185307179586
2  32 21 67 0.000000000000000 6.283185307179586
2  33 21 69 0.000000000000000 6.283185307179586
2  34 22 71 0.000000000000000 6.283185307179586
2  35 22 73 0.000000000000000 6.283185307179586
2  36 23 75 0.000000000000000 6.283185307179586
2  37 23 77 0.000000000000000 6.283185307179586
0

0101000
+38 11 -38 11 *
Ed
 0.000000100000000 1 1 0
1  36 0 37.100000000000001 37.399999999999999
3  38 39CN 6 0 37.100000000000001 37.399999999999999
0

0101000
+38 78 -90 78 *
Wi

0101100
-37 32 -36 16 +89 32 +36 16 *
Fa
0  0.000000100000000 6 16

0111000
+35 0 *
Ve
0.000000100000004
-16.566666666660751 155.621756897464962 0.000000000000000
0 0

0101101
*
Ed
 0.000000100000000 1 1 0
1  37 0 0.000000000000000 6.283185307179586
2  40 7 19 0.000000000000000 6.283185307179586
2  41 24 80 0.000000000000000 6.283185307179586
2  42 24 82 0.000000000000000 6.283185307179586
2  43 25 84 0.000000000000000 6.283185307179586
2  44 25 86 0.000000000000000 6.283185307179586
2  45 26 88 0.000000000000000 6.283185307179586
2  46 26 90 0.000000000000000 6.283185307179586
2  47 27 92 0.000000000000000 6.283185307179586
2  48 27 94 0.000000000000000 6.283185307179586
2  49 28 96 0.000000000000000 6.283185307179586
2  50 28 98 0.000000000000000 6.283185307179586
0

0101000
+33 11 -33 11 *
Ed
 0.000000100000000 1 1 0
1  38 0 37.100000000000001 37.399999999999999
3  51 52CN 7 0 37.100000000000001 37.399999999999999
0

0101000
+33 99 -87 99 *
Wi

0101100
-32 32 -31 18 +86 32 +31 18 *
Fa
0  0.000000100000000 7 18

0111000
+30 0 *
Ve
0.000000100000002
-1.699999999999900 129.871934891629593 0.000000000000000
0 0

0101101
*
Ed
 0.000000100000000 1 1 0
1  39 0 0.000000000000000 6.283185307179586
2  53 8 21 0.000000000000000 6.283185307179586
2  54 29 101 0.000000000000000 6.283185307179586
2  55 29 103 0.000000000000000 6.283185307179586
2  56 30 105 0.000000000000000 6.283185307179586
2  57 30 107 0.000000000000000 6.283185307179586
2  58 31 109 0.000000000000000 6.283185307179586
2  59 31 111 0.000000000000000 6.283185307179586
2  60 32 113 0.000000000000000 6.283185307179586
2  61 32 115 0.000000000000000 6.283185307179586
2  62 33 117 0.000000000000000 6.283185307179586
2  63 33 119 0.000000000000000 6.283185307179586
0

0101000
+28 11 -28 11 *
Ed
 0.000000100000000 1 1 0
1  40 0 37.100000000000001 37.399999999999999
3  64 65CN 8 0 37.100000000000001 37.399999999999999
0

0101000
+28 120 -84 120 *
Wi

0101100
-27 32 -26 20 +83 32 +26 20 *
Fa
0  0.000000100000000 8 20

0111000
+25 0 *
Ve
0.000000100000002
13.166666666660833 155.621756897465701 0.000000000000000
0 0

0101101
*
Ed
 0.000000100000000 1 1 0
1  41 0 0.000000000000000 6.283185307179586
2  66 9 23 0.000000000000000 6.283185307179586
2  67 34 122 0.000000000000000 6.283185307179586
2  68 34 124 0.000000000000000 6.283185307179586
2  69 35 126 0.000000000000000 6.283185307179586
2  70 35 128 0.000000000000000 6.283185307179586
2  71 36 130 0.000000000000000 6.283185307179586
2  72 36 132 0.000000000000000 6.283185307179586
2  73 37 134 0.000000000000000 6.283185307179586
2  74 37 136 0.000000000000000 6.283185307179586
2  75 38 138 0.000000000000000 6.283185307179586
2  76 38 140 0.000000000000000 6.283185307179586
0

0101000
+23 11 -23 11 *
Ed
 0.000000100000000 1 1 0
1  42 0 37.100000000000001 37.399999999999999
3  77 78CN 9 0 37.100000000000001 37.399999999999999
0

0101000
+23 141 -81 141 *
Wi

0101100
-22 32 -21 22 +80 32 +21 22 *
Fa
0  0.000000100000000 9 22

0111000
+20 0 *
Ed
 0.000000100000000 1 1 0
1  43 0 0.000000000000000 31.298451302091038
0

0101000
+51 11 -120 11 *
Wi

0101000
-119 0 +95 0 -50 0 +18 0 *
Fa
0  0.000000100000000 39 0

0111000
+17 0 *
Ed
 0.000000100000000 1 1 0
1  44 0 0.000000000000000 31.298451302091038
0

0101000
+75 11 -70 11 *
Wi

0101000
+74 0 +15 0 -69 0 -106 0 *
Fa
0  0.000000100000000 40 0

0111000
+14 0 *
Ed
 0.000000100000000 1 1 0
1  45 0 -113.996902604180917 31.000000000000000
0

0101000
+117 11 -77 11 *
Wi

0101000
-18 0 -49 0 -46 0 -56 0 -61 0 -66 0 -15 0 -73 0 -12 0 -114 0 
*
Wi

0101100
+42 0 *
Wi

0101100
+37 0 *
Wi

0101100
+32 0 *
Wi

0101100
+27 0 *
Wi

0101100
+22 0 *
Fa
0  0.000000100000000 41 0

0111000
+11 0 +10 0 +9 0 +8 0 +7 0 +6 0 *
Wi

0101000
+116 0 +12 0 -76 0 -110 0 *
Fa
0  0.000000100000000 42 0

0111000
+4 0 *
Sh

0101000
+112 8 +78 0 +71 27 -64 29 -59 13 -54 13 -47 29 -44 13 +39 5 +34 5 
+29 5 +24 5 +19 5 +16 0 +13 0 +5 0 +3 0 *
So

0100000
+2 0 *

+1 1 