
CASCADE Topology V1, (c) Matra-Datavision
Locations 3
1
1.000000000000000 0.000000000000000 0.000000000000000 0.000000000000000 
0.000000000000000 1.000000000000000 0.000000000000000 0.000000000000000 
0.000000000000000 0.000000000000000 1.000000000000000 0.000000000000000 
1
1.000000000000000 0.000000000000000 0.000000000000000 0.000000000000000 
0.000000000000000 1.000000000000000 0.000000000000000 0.000000000000000 
0.000000000000000 0.000000000000000 1.000000000000000 1123.000000000000000 
2  2 -1 0
Curve2ds 56
1 1.57079632679489656 0.00000000000000000 0.00000000000000000 -1.00000000000000000 
1 0.00000000000000000 -0.50000000000000000 1.00000000000000000 0.00000000000000000 
1 0.00000000000000000 -0.50000000000000000 -1.00000000000000000 0.00000000000000000 
1 0.00000000000000000 0.00000000000000000 0.00000000000000000 -1.00000000000000000 
1 17.50000000000045119 0.00000000000000000 0.00000000000000000 -1.00000000000000000 
1 0.00000000000000000 0.00000000000000000 1.00000000000000000 0.00000000000000000 
1 0.00000000000000000 -0.50000000000000000 -1.00000000000000000 0.00000000000000000 
1 0.00000000000000000 -0.50000000000000000 1.00000000000000000 0.00000000000000000 
1 -1.99999999999999956 0.00000000000000000 1.00000000000000000 0.00000000000000000 
1 -1.99999999999999956 -1123.00000000000000000 1.00000000000000000 0.00000000000000000 
1 0.00000000000000000 0.00000000000000000 0.00000000000000000 -1.00000000000000000 
1 0.00000000000000000 -0.50000000000000000 1.00000000000000000 0.00000000000000000 
1 0.00000000000000000 -0.49999999999999956 -1.00000000000000000 0.00000000000000000 
1 34.60000000000856346 0.00000000000000000 0.00000000000000000 -1.00000000000000000 
1 0.00000000000000000 1123.00000000000000000 1.00000000000000000 0.00000000000000000 
1 0.00000000000000000 0.00000000000000000 1.00000000000000000 0.00000000000000000 
1 0.00000000000000000 -1123.00000000000000000 1.00000000000000000 0.00000000000000000 
1 6.28318530717958623 0.00000000000000000 -1.00000000000000000 0.00000000000000000 
1 0.00000000000000000 0.00000000000000000 1.00000000000000000 0.00000000000000000 
6 0 1 -19.50000000000045119 -0.50000000000000000  -19.50000000000045119 0.00000000000000000  
1 17.50000000000045119 0.00000000000000000 0.00000000000000000 -1.00000000000000000 
6 0 1 19.50000000000045119 -0.50000000000000000  19.50000000000045119 0.00000000000000000  
1 -1.99999999999999956 0.00000000000000000 1.00000000000000000 0.00000000000000000 
1 0.00000000000000000 0.00000000000000000 1.00000000000000000 0.00000000000000000 
6 0 1 0.00000000000000000 -0.50000000000000000  0.00000000000000000 0.00000000000000000  
6 0 1 1.99999999999999956 -0.50000000000000000  1.99999999999999956 0.00000000000000000  
8 0.00000000000000000 1.00000000000000000
1 1.57079632679489656 0.00000000000000000 0.00000000000000000 1.00000000000000000 
6 0 1 -1.99999999999999956 -0.50000000000000000  -1.99999999999999956 0.00000000000000000  
6 0 1 -1123.00000000000000000 -0.50000000000000000  -1123.00000000000000000 0.00000000000000000  
8 0.00000000000000000 1.00000000000000000
1 4.71238898038468967 0.00000000000000000 0.00000000000000000 1.00000000000000000 
1 -1.99999999999999956 -1123.00000000000000000 1.00000000000000000 0.00000000000000000 
1 0.00000000000000000 0.00000000000000000 -1.00000000000000000 0.00000000000000000 
1 0.00000000000000000 0.00000000000000000 0.00000000000000000 -1.00000000000000000 
1 0.00000000000000000 0.00000000000000000 1.00000000000000000 0.00000000000000000 
1 0.00000000000000000 -0.50000000000000000 -1.00000000000000000 0.00000000000000000 
1 0.00000000000000000 -0.50000000000000000 1.00000000000000000 0.00000000000000000 
1 0.00000000000000000 0.00000000000000000 1.00000000000000000 0.00000000000000000 
1 0.00000000000000000 -1123.00000000000000000 1.00000000000000000 0.00000000000000000 
1 0.00000000000000000 1.00000000000000000 1.00000000000000000 0.00000000000000000 
1 0.00000000000000000 0.00000000000000000 0.00000000000000000 1.00000000000000000 
6 0 1 0.00000000000000000 -0.49999999999999956  0.00000000000000000 0.00000000000000000  
1 6.28318530717958623 0.00000000000000000 0.00000000000000000 1.00000000000000000 
7 0 0  1 2 2  -1123.00000000000000000 -0.50000000000000000  -1123.00000000000000000 0.00000000000000000 
 0.00000000000000000 2 1.00000000000000000 2
1 6.28318530717958623 1.00000000000000000 -1.00000000000000000 0.00000000000000000 
1 0.00000000000000000 0.00000000000000000 0.00000000000000000 -1.00000000000000000 
1 0.00000000000000000 0.00000000000000000 -1.00000000000000000 0.00000000000000000 
8 0.00000000000000000 1123.00000000000000000
1 1.57079632679489656 0.00000000000000000 0.00000000000000000 -1.00000000000000000 
6 0 1 0.00000000000000000 -0.50000000000000000  0.00000000000000000 0.00000000000000000  
1 0.00000000000000000 0.00000000000000000 0.00000000000000000 -1.00000000000000000 
6 0 1 0.00000000000000000 -0.50000000000000000  0.00000000000000000 0.00000000000000000  
1 0.00000000000000000 0.00000000000000000 1.00000000000000000 0.00000000000000000 
1 0.00000000000000000 0.00000000000000000 1.00000000000000000 0.00000000000000000 
1 0.00000000000000000 -1123.00000000000000000 1.00000000000000000 0.00000000000000000 
1 0.00000000000000000 0.00000000000000000 -1.00000000000000000 0.00000000000000000 
1 0.00000000000000000 0.00000000000000000 -1.00000000000000000 0.00000000000000000 
1 34.60000000000856346 0.00000000000000000 0.00000000000000000 -1.00000000000000000 
Curves 25
1 18.80000000003699157 -0.49999999999999956 0.00000000000000000 0.00000000000000000 0.00000000000000000 1.00000000000000000 
1 18.80000000003699157 -18.00000000000045119 0.00000000000000000 0.00000000000000000 0.00000000000000000 1.00000000000000000 
1 18.80000000003699157 1.50000000000000000 0.00000000000000000 0.00000000000000000 -1.00000000000000000 0.00000000000000000 
1 16.30000000003699157 2.00000000000000000 0.00000000000000000 0.00000000000000000 0.00000000000000000 1.00000000000000000 
2 16.30000000003699157 -0.49999999999999956 0.00000000000000000 0.00000000000000000 0.00000000000000000 -1.00000000000000000 0.00000000000000000 1.00000000000000000 0.00000000000000000 1.00000000000000000 -0.00000000000000000 0.00000000000000000 2.50000000000000000
6 0 1 18.80000000003699157 -18.00000000000045119 1123.00000000000000000  18.30000000003699157 -18.00000000000045119 1123.00000000000000000  
1 18.30000000003699157 -18.00000000000045119 0.00000000000000000 0.00000000000000000 0.00000000000000000 1.00000000000000000 
6 0 1 18.80000000003699157 -18.00000000000045119 0.00000000000000000  18.30000000003699157 -18.00000000000045119 0.00000000000000000  
1 18.30000000003699157 1.50000000000000000 0.00000000000000000 0.00000000000000000 -1.00000000000000000 0.00000000000000000 
6 0 1 18.80000000003699157 -0.49999999999999956 0.00000000000000000  18.30000000003699157 -0.49999999999999956 0.00000000000000000  
6 0 1 18.80000000003699157 -0.49999999999999956 1123.00000000000000000  18.30000000003699157 -0.49999999999999956 1123.00000000000000000  
1 18.30000000003699157 1.50000000000000000 1123.00000000000000000 0.00000000000000000 -1.00000000000000000 0.00000000000000000 
1 -18.29999999997157190 2.00000000000000000 0.00000000000000000 0.00000000000000000 0.00000000000000000 1.00000000000000000 
1 -18.29999999997157190 2.00000000000000000 0.00000000000000000 1.00000000000000000 0.00000000000000000 0.00000000000000000 
2 16.30000000003699157 -0.49999999999999956 0.00000000000000000 0.00000000000000000 0.00000000000000000 -1.00000000000000000 0.00000000000000000 1.00000000000000000 0.00000000000000000 1.00000000000000000 -0.00000000000000000 0.00000000000000000 2.00000000000000000
6 0 1 16.30000000003699157 2.00000000000000000 0.00000000000000000  16.30000000003699157 1.50000000000000044 0.00000000000000000  
7 0 0  1 2 2  16.30000000003699157 2.00000000000000044 1123.00000000000000000  16.30000000003699157 1.50000000000000044 1123.00000000000000000 
 0.00000000000000000 2 1.00000000000000000 2
2 16.30000000003699157 -0.49999999999999956 1123.00000000000000000 0.00000000000000000 0.00000000000000000 -1.00000000000000000 0.00000000000000000 1.00000000000000000 0.00000000000000000 1.00000000000000000 -0.00000000000000000 0.00000000000000000 2.00000000000000000
1 18.30000000003699157 -0.49999999999999956 0.00000000000000000 0.00000000000000000 0.00000000000000000 1.00000000000000000 
6 0 1 -18.29999999997157190 2.00000000000000000 0.00000000000000000  -18.29999999997157190 1.50000000000000000 0.00000000000000000  
1 -18.29999999997157190 1.50000000000000000 0.00000000000000000 0.00000000000000000 0.00000000000000000 1.00000000000000000 
6 0 1 -18.29999999997157190 2.00000000000000000 1123.00000000000000000  -18.29999999997157190 1.50000000000000000 1123.00000000000000000  
1 -18.29999999997157190 1.50000000000000000 0.00000000000000000 1.00000000000000000 0.00000000000000000 0.00000000000000000 
1 -18.29999999997157190 1.50000000000000000 1123.00000000000000000 1.00000000000000000 0.00000000000000000 0.00000000000000000 
1 16.30000000003699157 1.50000000000000044 0.00000000000000000 -0.00000000000000000 -0.00000000000000000 1.00000000000000000 
Polygon3D 0
PolygonOnTriangulations 0
Surfaces 21
1 18.80000000003699157 -0.49999999999999956 0.00000000000000000 1.00000000000000000 0.00000000000000000 -0.00000000000000000 0.00000000000000000 -1.00000000000000000 0.00000000000000000 0.00000000000000000 -0.00000000000000000 -1.00000000000000000 
2 16.30000000003699157 -0.49999999999999956 0.00000000000000000 0.00000000000000000 0.00000000000000000 -1.00000000000000000 0.00000000000000000 1.00000000000000000 0.00000000000000000 1.00000000000000000 -0.00000000000000000 0.00000000000000000 2.50000000000000000
1 18.30000000003699157 -0.49999999999999944 0.00000000000000000 -0.00000000000000022 -1.00000000000000000 -0.00000000000000000 -0.00000000000000000 0.00000000000000000 1.00000000000000000 -1.00000000000000000 0.00000000000000022 -0.00000000000000000 
1 18.30000000003699157 -0.49999999999999956 0.00000000000000000 0.00000000000000000 1.00000000000000000 -0.00000000000000000 0.00000000000000000 -0.00000000000000000 -1.00000000000000000 -1.00000000000000000 0.00000000000000000 -0.00000000000000000 
1 18.80000000003699157 1.50000000000000000 0.00000000000000000 1.00000000000000000 0.00000000000000000 -0.00000000000000000 0.00000000000000000 -1.00000000000000000 0.00000000000000000 0.00000000000000000 -0.00000000000000000 -1.00000000000000000 
1 18.30000000003699157 1.50000000000000000 1123.00000000000000000 0.00000000000000000 0.00000000000000000 1.00000000000000000 -0.00000000000000000 1.00000000000000000 0.00000000000000000 -1.00000000000000000 -0.00000000000000000 0.00000000000000000 
1 18.30000000003699157 1.50000000000000000 0.00000000000000000 -0.00000000000000000 -0.00000000000000000 -1.00000000000000000 0.00000000000000000 -1.00000000000000000 0.00000000000000000 -1.00000000000000000 0.00000000000000000 0.00000000000000000 
1 -18.29999999997157190 2.00000000000000000 0.00000000000000000 0.00000000000000000 1.00000000000000000 0.00000000000000000 1.00000000000000000 0.00000000000000000 0.00000000000000000 0.00000000000000000 0.00000000000000000 -1.00000000000000000 
1 16.30000000003699157 1.50000000000000000 0.00000000000000000 1.00000000000000000 0.00000000000000000 -0.00000000000000000 0.00000000000000000 0.00000000000000000 1.00000000000000000 0.00000000000000000 -1.00000000000000000 0.00000000000000000 
1 16.30000000003699157 1.50000000000000044 0.00000000000000000 -1.00000000000000000 -0.00000000000000000 -0.00000000000000000 0.00000000000000000 0.00000000000000000 -1.00000000000000000 0.00000000000000000 -1.00000000000000000 0.00000000000000000 
2 16.30000000003699157 -0.49999999999999956 1123.00000000000000000 -0.00000000000000000 0.00000000000000000 -1.00000000000000000 0.00000000000000000 1.00000000000000000 0.00000000000000000 1.00000000000000000 0.00000000000000000 -0.00000000000000000 2.50000000000000000
9 0 0 0 0 8 1 9 2 2 2 18.80000000003697735 -0.50000000000000000 1122.99999999999909051  18.30000000003697735 -0.49999999999999967 1122.99999999999909051  
18.80000000003669669 -0.00912614787660192 1122.99999999998613021  18.30000000003673222 -0.10730091830128079 1122.99999999998613021  
18.68984802763498720 0.48174785876055937 1123.00000000004820322  18.21187842211553587 0.28539828700844339 1123.00000000004820322  
18.46954516471383556 0.94378308583762838 1122.99999999991860022  18.03563613177816904 0.65502646867010828 1122.99999999991860022  
18.14814688948866461 1.34814688944974570 1123.00000000008776624  17.77851751159865756 0.97851751155979383 1123.00000000008776624  
17.74378308587313313 1.66954516467857217 1122.99999999993247002  17.45502646870572150 1.23563613174286036 1122.99999999993247002  
17.28174785879831177 1.88984802759699555 1123.00000000003501555  17.08539828704609320 1.41187842207759306 1123.00000000003501555  
16.79087385216017481 1.99999999999999911 1122.99999999999045031  16.69269908173555095 1.50000000000000044 1122.99999999999045031  
16.30000000003699157 2.00000000000000044 1123.00000000000000000  16.30000000003699157 1.50000000000000044 1123.00000000000000000  

4.71238898038468967 9
6.28318530717958623 9

0.00000000000000000 2
1.00000000000000000 2

9 0 0 0 0 8 1 9 2 2 2 16.30000000003699157 2.00000000000000000 0.00000000000000000  16.30000000003699157 1.50000000000000044 0.00000000000000000  
16.79087385216044126 1.99999999999999711 0.00000000000000000  16.69269908173572503 1.49999999999999756 0.00000000000000000  
17.28174785879737385 1.88984802759700288 0.00000000000000000  17.08539828704540398 1.41187842207760683 0.00000000000000000  
17.74378308587493436 1.66954516467856018 0.00000000000000000  17.45502646870714969 1.23563613174283593 0.00000000000000000  
18.14814688948637666 1.34814688944974947 0.00000000000000000  17.77851751159676397 0.97851751155981614 0.00000000000000000  
18.46954516471591035 0.94378308583764270 0.00000000000000000  18.03563613177987079 0.65502646867010217 0.00000000000000000  
18.68984802763377218 0.48174785876054427 0.00000000000000000  18.21187842211455887 0.28539828700844089 0.00000000000000000  
18.80000000003705907 -0.00912614787659694 0.00000000000000000  18.30000000003701643 -0.10730091830127893 0.00000000000000000  
18.80000000003699157 -0.49999999999999933 0.00000000000000000  18.30000000003699157 -0.49999999999999978 0.00000000000000000  

0.00000000000000000 9
1.57079632679489656 9

0.00000000000000000 2
1.00000000000000000 2

1 18.30000000003699157 -18.00000000000045119 0.00000000000000000 0.00000000000000000 -1.00000000000000000 0.00000000000000000 0.00000000000000000 0.00000000000000000 1.00000000000000000 -1.00000000000000000 0.00000000000000000 0.00000000000000000 
1 18.30000000003699157 -0.49999999999999956 0.00000000000000000 1.00000000000000000 0.00000000000000000 -0.00000000000000000 0.00000000000000000 -1.00000000000000000 0.00000000000000000 0.00000000000000000 -0.00000000000000000 -1.00000000000000000 
1 -18.29999999997157190 2.00000000000000000 0.00000000000000000 0.00000000000000000 1.00000000000000000 0.00000000000000000 1.00000000000000000 0.00000000000000000 0.00000000000000000 0.00000000000000000 0.00000000000000000 -1.00000000000000000 
1 -18.29999999997157190 1.50000000000000000 1123.00000000000000000 -0.00000000000000000 0.00000000000000000 1.00000000000000000 -1.00000000000000000 0.00000000000000000 -0.00000000000000000 -0.00000000000000000 -1.00000000000000000 0.00000000000000000 
1 -18.29999999997157190 1.50000000000000000 0.00000000000000000 0.00000000000000000 0.00000000000000000 -1.00000000000000000 1.00000000000000000 0.00000000000000000 0.00000000000000000 0.00000000000000000 -1.00000000000000000 0.00000000000000000 
2 16.30000000003699157 -0.49999999999999956 0.00000000000000000 0.00000000000000000 0.00000000000000000 -1.00000000000000000 0.00000000000000000 1.00000000000000000 0.00000000000000000 1.00000000000000000 -0.00000000000000000 0.00000000000000000 2.00000000000000000
1 -18.29999999997157190 1.50000000000000000 0.00000000000000000 -1.00000000000000000 0.00000000000000000 0.00000000000000000 0.00000000000000000 0.00000000000000000 -1.00000000000000000 -0.00000000000000000 -1.00000000000000000 -0.00000000000000000 
1 -18.29999999997157190 1.50000000000000000 0.00000000000000000 0.00000000000000000 1.00000000000000000 0.00000000000000000 1.00000000000000000 0.00000000000000000 0.00000000000000000 0.00000000000000000 0.00000000000000000 -1.00000000000000000 
Triangulations 0

TShapes 68
Ve
0.001000000000000
18.800000000036992 -0.500000000000000 0.000000000000000
0 0

0101101
*
Ed
 0.001000000000000 1 1 0
1  1 0 0.000000000000000 1123.000000000000000
2  1 2 0 0.000000000000000 1123.000000000000000
4 G1 1 0 2 0
2  2 3 0 0.000000000000000 1123.000000000000000
2  3 4 0 0.000000000000000 1123.000000000000000
2  4 1 0 0.000000000000000 1123.000000000000000
0

0101000
+68 0 -68 2 *
Ve
0.001000000000000
18.800000000036992 -18.000000000000451 0.000000000000000
0 0

0101101
*
Ed
 0.001000000000000 1 1 0
1  2 0 0.000000000000000 1123.000000000000000
2  5 1 0 0.000000000000000 1123.000000000000000
0

0101000
+66 0 -66 2 *
Ed
 0.001000000000000 1 1 0
2  6 5 0 2.000000000000000 19.500000000000451
1  3 0 2.000000000000000 19.500000000000451
2  7 6 3 2.000000000000000 19.500000000000451
2  8 7 0 2.000000000000000 19.500000000000451
2  9 1 0 2.000000000000000 19.500000000000451
2  10 1 3 2.000000000000000 19.500000000000451
0

0101000
+68 0 -66 0 *
Wi

0101100
+67 0 -65 0 -64 0 +64 2 *
Fa
0  0.001000000000000 1 0

0101000
+63 0 *
Ve
0.001000000000000
16.300000000036992 2.000000000000000 0.000000000000000
0 0

0101101
*
Ed
 0.001000000000000 1 1 0
1  4 0 0.000000000000000 1123.000000000000000
2  11 2 0 0.000000000000000 1123.000000000000000
4 G1 2 0 8 0
2  12 9 0 0.000000000000000 1123.000000000000000
2  13 10 0 0.000000000000000 1123.000000000000000
2  14 8 0 0.000000000000000 1123.000000000000000
0

0101000
+61 0 -61 2 *
Ed
 0.000000100000000 1 1 0
2  15 11 0 0.000000000000000 1.570796326794897
1  5 0 0.000000000000000 1.570796326794897
2  16 2 0 0.000000000000000 1.570796326794897
2  17 2 3 0.000000000000000 1.570796326794897
2  18 12 3 0.000000000000000 1.570796326794897
2  19 13 0 0.000000000000000 1.570796326794897
0

0101000
+61 0 -68 0 *
Wi

0101100
+60 0 -67 0 -59 0 +59 2 *
Fa
0  0.000000100000000 2 0

0101000
+58 0 *
Ve
0.001000000000000
18.300000000036992 -18.000000000000451 1123.000000000000000
0 0

0101101
*
Ed
 0.000000100000000 1 1 0
1  6 0 0.000000000000000 1.000000000000000
4 C0 14 0 6 0
2  20 6 0 0.000000000000000 1.000000000000000
0

0101000
+66 2 -56 0 *
Ve
0.001000000000000
18.300000000036992 -18.000000000000451 0.000000000000000
0 0

0101101
*
Ed
 0.001000000000000 1 1 0
2  21 15 0 0.000000000000000 1123.000000000000000
1  7 0 0.000000000000000 1123.000000000000000
0

0101000
+54 0 -56 0 *
Ed
 0.000000100000000 1 1 0
1  8 0 0.000000000000000 1.000000000000000
4 C0 14 0 7 0
2  22 7 0 0.000000000000000 1.000000000000000
0

0101000
+66 0 -54 0 *
Wi

0101000
+65 0 +55 0 -53 0 -52 0 *
Fa
0  0.000000100000000 14 0

0101000
+51 0 *
Ve
0.001000000000000
18.300000000036992 -0.500000000000000 0.000000000000000
0 0

0101101
*
Ed
 0.001000000000000 1 1 0
2  23 15 0 2.000000000000000 19.500000000000451
1  9 0 2.000000000000000 19.500000000000451
2  24 7 0 2.000000000000000 19.500000000000451
0

0101000
+49 0 -54 0 *
Ed
 0.000000100000000 1 1 0
1  10 0 0.000000000000000 1.000000000000000
4 C0 4 0 7 0
2  25 4 0 0.000000000000000 1.000000000000000
2  26 7 0 0.000000000000000 1.000000000000000
2  27 13 0 0.000000000000000 1.000000000000000
0

0101000
+68 0 -49 0 *
Wi

0101100
+64 0 +52 0 -48 0 -47 0 *
Fa
0  0.000000100000000 7 0

0101000
+46 0 *
Ve
0.001000000000000
18.300000000036992 -0.500000000000000 1123.000000000000000
0 0

0101101
*
Ed
 0.000000100000000 1 1 0
1  11 0 0.000000000000000 1.000000000000000
4 C0 6 0 4 0
2  28 6 0 0.000000000000000 1.000000000000000
2  29 4 0 0.000000000000000 1.000000000000000
2  30 12 0 0.000000000000000 1.000000000000000
0

0101000
+68 2 -44 0 *
Ed
 0.001000000000000 1 1 0
2  31 15 0 2.000000000000000 19.500000000000451
1  12 0 2.000000000000000 19.500000000000451
2  32 6 0 2.000000000000000 19.500000000000451
0

0101000
+44 0 -56 0 *
Wi

0101100
-64 2 +43 0 +42 0 -55 0 *
Fa
0  0.000000100000000 6 0

0101000
+41 0 *
Ve
0.001000000000000
-18.299999999971572 2.000000000000000 0.000000000000000
0 0

0101101
*
Ed
 0.001000000000000 1 1 0
1  13 0 0.000000000000000 1123.000000000000000
2  33 8 0 0.000000000000000 1123.000000000000000
0

0101000
+39 0 -39 2 *
Ed
 0.001000000000000 1 1 0
2  34 16 0 0.000000000000000 34.600000000008563
1  14 0 0.000000000000000 34.600000000008563
2  35 17 3 0.000000000000000 34.600000000008563
2  36 18 0 0.000000000000000 34.600000000008563
2  37 8 0 0.000000000000000 34.600000000008563
2  38 8 3 0.000000000000000 34.600000000008563
0

0101000
+39 0 -61 0 *
Wi

0101100
+38 0 -60 0 -37 0 +37 2 *
Fa
0  0.001000000000000 8 0

0101000
+36 0 *
Ve
0.001000000000000
16.300000000036992 1.500000000000000 0.000000000000000
0 0

0101101
*
Ed
 0.000000100000000 1 1 0
2  16 19 0 0.000000000000000 1.570796326794897
1  15 0 0.000000000000000 1.570796326794897
2  39 13 0 0.000000000000000 1.570796326794897
0

0101000
+34 0 -49 0 *
Ed
 0.000000100000000 1 1 0
1  16 0 0.000000000000000 1.000000000000000
2  40 13 0 0.000000000000000 1.000000000000000
4 C0 10 0 13 0
2  41 10 0 0.000000000000000 1.000000000000000
0

0101000
+61 0 -34 0 *
Wi

0101100
+59 0 +47 0 -33 0 -32 0 *
Fa
0  0.000000100000000 13 0

0101000
+31 0 *
Ve
0.001000000000000
16.300000000036992 1.500000000000000 1123.000000000000000
0 0

0101101
*
Ed
 0.000000100000000 1 1 0
1  17 0 0.000000000000000 1.000000000000000
2  42 12 0 0.000000000000000 1.000000000000000
4 C0 12 0 10 0
2  43 10 0 0.000000000000000 1.000000000000000
0

0101000
+61 2 -29 0 *
Ed
 0.000000100000000 1 1 0
2  17 19 0 0.000000000000000 1.570796326794897
1  18 0 0.000000000000000 1.570796326794897
2  44 12 0 0.000000000000000 1.570796326794897
0

0101000
+29 0 -44 0 *
Wi

0101100
-59 2 +28 0 +27 0 -43 0 *
Fa
0  0.000000100000000 12 0

0101000
+26 0 *
Ed
 0.001000000000000 1 1 0
2  45 15 0 0.000000000000000 1123.000000000000000
1  19 0 0.000000000000000 1123.000000000000000
2  46 4 0 0.000000000000000 1123.000000000000000
2  47 19 0 0.000000000000000 1123.000000000000000
0

0101000
+49 0 -44 0 *
Wi

0101100
+24 0 -53 0 -48 0 +42 0 *
Fa
0  0.001000000000000 15 0

0101000
+23 0 *
Ve
0.001000000000000
-18.299999999971572 1.500000000000000 0.000000000000000
0 0

0101101
*
Ed
 0.000000100000000 1 1 0
1  20 0 0.000000000000000 1.000000000000000
4 C0 20 0 18 0
2  48 18 0 0.000000000000000 1.000000000000000
0

0101000
+39 0 -21 0 *
Ve
0.001000000000000
-18.299999999971572 1.500000000000000 1123.000000000000000
0 0

0101101
*
Ed
 0.001000000000000 1 1 0
2  49 21 0 0.000000000000000 1123.000000000000000
1  21 0 0.000000000000000 1123.000000000000000
0

0101000
+21 0 -19 0 *
Ed
 0.000000100000000 1 1 0
1  22 0 0.000000000000000 1.000000000000000
4 C0 17 0 20 0
2  50 17 0 0.000000000000000 1.000000000000000
0

0101000
+39 2 -19 0 *
Wi

0101000
-38 0 +20 0 +18 0 -17 0 *
Fa
0  0.000000100000000 20 0

0101000
+16 0 *
Ed
 0.001000000000000 1 1 0
2  51 21 0 0.000000000000000 34.600000000008563
1  23 0 0.000000000000000 34.600000000008563
2  52 18 0 0.000000000000000 34.600000000008563
0

0101000
+21 0 -34 0 *
Wi

0101100
+37 0 +32 0 -14 0 -20 0 *
Fa
0  0.000000100000000 18 0

0101000
+13 0 *
Ed
 0.001000000000000 1 1 0
2  53 21 0 0.000000000000000 34.600000000008563
1  24 0 0.000000000000000 34.600000000008563
2  54 17 0 0.000000000000000 34.600000000008563
0

0101000
+19 0 -29 0 *
Wi

0101100
-37 2 +17 0 +11 0 -28 0 *
Fa
0  0.000000100000000 17 0

0101000
+10 0 *
Ed
 0.001000000000000 1 1 0
2  11 19 0 0.000000000000000 1123.000000000000000
1  25 0 0.000000000000000 1123.000000000000000
2  55 10 0 0.000000000000000 1123.000000000000000
2  56 21 0 0.000000000000000 1123.000000000000000
0

0101000
+34 0 -29 0 *
Wi

0101100
+8 0 -24 0 -33 0 +27 0 *
Fa
0  0.000000100000000 19 0

0101000
+7 0 *
Wi

0101100
+18 0 -8 0 -14 0 +11 0 *
Fa
0  0.001000000000000 21 0

0101000
+5 0 *
Sh

0101100
+62 0 +57 0 +50 0 +45 0 +40 0 +35 0 +30 0 +25 0 -22 0 +15 0 
+12 0 +9 0 -6 0 -4 0 *
So

0100000
+3 0 *
Co

1100000
+2 0 *

+1 1 