
CASCADE Topology V1, (c) Matra-Datavision
Locations 63
1
1.000000000000000 0.000000000000000 0.000000000000000 0.000000000000000 
0.000000000000000 1.000000000000000 0.000000000000000 0.000000000000000 
0.000000000000000 0.000000000000000 1.000000000000000 0.000000000000000 
1
1.000000000000000 0.000000000000000 0.000000000000000 0.000000000000000 
0.000000000000000 1.000000000000000 0.000000000000000 0.000000000000000 
0.000000000000000 0.000000000000000 1.000000000000000 0.000000000000000 
1
1.000000000000000 0.000000000000000 0.000000000000000 0.000000000000000 
0.000000000000000 1.000000000000000 0.000000000000000 0.000000000000000 
0.000000000000000 0.000000000000000 1.000000000000000 0.000000000000000 
2  2 1 3 -1 0
1
1.000000000000000 0.000000000000000 0.000000000000000 0.000000000000000 
0.000000000000000 1.000000000000000 0.000000000000000 0.000000000000000 
0.000000000000000 0.000000000000000 1.000000000000000 0.000000000000000 
1
1.000000000000000 0.000000000000000 0.000000000000000 0.000000000000000 
0.000000000000000 1.000000000000000 0.000000000000000 0.000000000000000 
0.000000000000000 0.000000000000000 1.000000000000000 0.000000000000000 
1
1.000000000000000 0.000000000000000 0.000000000000000 0.000000000000000 
0.000000000000000 1.000000000000000 0.000000000000000 0.000000000000000 
0.000000000000000 0.000000000000000 1.000000000000000 0.000000000000000 
1
1.000000000000000 0.000000000000000 0.000000000000000 0.000000000000000 
0.000000000000000 1.000000000000000 0.000000000000000 0.000000000000000 
0.000000000000000 0.000000000000000 1.000000000000000 0.000000000000000 
1
1.000000000000000 0.000000000000000 0.000000000000000 0.000000000000000 
0.000000000000000 1.000000000000000 0.000000000000000 0.000000000000000 
0.000000000000000 0.000000000000000 1.000000000000000 0.000000000000000 
1
1.000000000000000 0.000000000000000 0.000000000000000 0.000000000000000 
0.000000000000000 1.000000000000000 0.000000000000000 0.000000000000000 
0.000000000000000 0.000000000000000 1.000000000000000 0.000000000000000 
2  5 1 6 -1 7 1 8 -1 9 1 10 -1 0
1
1.000000000000000 0.000000000000000 0.000000000000000 0.000000000000000 
0.000000000000000 1.000000000000000 0.000000000000000 0.000000000000000 
0.000000000000000 0.000000000000000 1.000000000000000 0.000000000000000 
1
1.000000000000000 0.000000000000000 0.000000000000000 0.000000000000000 
0.000000000000000 1.000000000000000 0.000000000000000 0.000000000000000 
0.000000000000000 0.000000000000000 1.000000000000000 0.000000000000000 
1
1.000000000000000 0.000000000000000 0.000000000000000 0.000000000000000 
0.000000000000000 1.000000000000000 0.000000000000000 0.000000000000000 
0.000000000000000 0.000000000000000 1.000000000000000 0.000000000000000 
1
1.000000000000000 0.000000000000000 0.000000000000000 0.000000000000000 
0.000000000000000 1.000000000000000 0.000000000000000 0.000000000000000 
0.000000000000000 0.000000000000000 1.000000000000000 0.000000000000000 
2  12 1 13 1 14 1 15 1 6 -1 7 1 8 -1 9 1 10 -1 0
2  6 1 15 -1 14 -1 13 -1 12 -1 0
1
1.000000000000000 0.000000000000000 0.000000000000000 0.000000000000000 
0.000000000000000 1.000000000000000 0.000000000000000 0.000000000000000 
0.000000000000000 0.000000000000000 1.000000000000000 0.000000000000000 
2  18 -1 3 1 2 -1 10 1 9 -1 8 1 7 -1 6 1 15 -1 14 -1 13 -1 12 -1 0
2  18 -1 3 1 2 -1 10 1 9 -1 8 1 7 -1 6 1 5 -1 0
1
1.000000000000000 0.000000000000000 0.000000000000000 40.000000000000000 
0.000000000000000 1.000000000000000 0.000000000000000 -12.000000000000000 
0.000000000000000 0.000000000000000 1.000000000000000 0.000000000000000 
2  18 -1 3 1 2 -1 21 -1 0
1
1.000000000000000 0.000000000000000 0.000000000000000 -40.000000000000000 
0.000000000000000 1.000000000000000 0.000000000000000 -12.000000000000000 
0.000000000000000 0.000000000000000 1.000000000000000 0.000000000000000 
2  18 -1 3 1 2 -1 23 -1 0
2  7 1 8 -1 9 1 10 -1 2 1 3 -1 0
2  12 1 13 1 14 1 15 1 6 -1 0
2  18 -1 3 1 2 -1 10 1 9 -1 8 1 7 -1 0
2  5 1 6 -1 0
2  6 1 5 -1 0
2  9 1 10 -1 2 1 3 -1 0
2  5 1 6 -1 7 1 8 -1 0
1
1.000000000000000 0.000000000000000 0.000000000000000 -50.500000000000000 
0.000000000000000 1.000000000000000 0.000000000000000 0.000000000000011 
0.000000000000000 0.000000000000000 1.000000000000000 -0.000000000000014 
2  32 1 5 1 6 -1 7 1 8 -1 0
2  32 -1 0
2  18 -1 3 1 2 -1 10 1 9 -1 8 1 7 -1 6 1 5 -1 32 -1 0
1
1.000000000000000 0.000000000000000 0.000000000000000 101.000000000000000 
0.000000000000000 1.000000000000000 0.000000000000000 -0.000000000000022 
0.000000000000000 0.000000000000000 1.000000000000000 0.000000000000028 
2  32 1 36 1 5 1 6 -1 7 1 8 -1 0
2  36 -1 32 -1 0
2  18 -1 3 1 2 -1 10 1 9 -1 8 1 7 -1 6 1 5 -1 36 -1 32 -1 0
2  18 -1 3 1 2 -1 0
2  7 1 8 -1 9 1 10 -1 0
2  8 1 7 -1 6 1 5 -1 0
2  5 1 6 -1 7 1 8 -1 9 1 10 -1 2 1 3 -1 0
1
1.000000000000000 0.000000000000000 0.000000000000000 0.000000000000000 
0.000000000000000 0.000000000000000 -1.000000000000000 0.000000000000000 
0.000000000000000 1.000000000000000 0.000000000000000 0.000000000000000 
1
1.000000000000000 0.000000000000000 0.000000000000000 0.000000000000000 
0.000000000000000 1.000000000000000 0.000000000000000 0.000000000000000 
0.000000000000000 0.000000000000000 1.000000000000000 0.000000000000000 
1
1.000000000000000 0.000000000000000 0.000000000000000 0.000000000000000 
0.000000000000000 1.000000000000000 0.000000000000000 0.000000000000000 
0.000000000000000 0.000000000000000 1.000000000000000 0.000000000000000 
1
1.000000000000000 0.000000000000000 0.000000000000000 0.000000000000000 
0.000000000000000 1.000000000000000 0.000000000000000 0.000000000000000 
0.000000000000000 0.000000000000000 1.000000000000000 0.000000000000000 
2  44 1 45 1 46 1 47 1 8 -1 9 1 10 -1 2 1 3 -1 0
2  8 1 47 -1 46 -1 45 -1 44 -1 0
2  18 -1 3 1 2 -1 10 1 9 -1 8 1 47 -1 46 -1 45 -1 44 -1 0
2  32 1 36 1 5 1 6 -1 7 1 8 -1 9 1 10 -1 2 1 3 -1 0
1
1.000000000000000 0.000000000000000 0.000000000000000 43.000000000000000 
0.000000000000000 1.000000000000000 0.000000000000000 0.000000000000022 
0.000000000000000 0.000000000000000 1.000000000000000 100.000000000000000 
2  18 -1 52 -1 0
1
1.000000000000000 0.000000000000000 0.000000000000000 43.000000000000000 
0.000000000000000 1.000000000000000 0.000000000000000 0.000000000000016 
0.000000000000000 0.000000000000000 1.000000000000000 71.333333333333329 
2  18 -1 54 -1 0
1
1.000000000000000 0.000000000000000 0.000000000000000 43.000000000000000 
0.000000000000000 1.000000000000000 0.000000000000000 0.000000000000009 
0.000000000000000 0.000000000000000 1.000000000000000 42.666666666666664 
2  18 -1 56 -1 0
1
1.000000000000000 0.000000000000000 0.000000000000000 43.000000000000000 
0.000000000000000 1.000000000000000 0.000000000000000 0.000000000000003 
0.000000000000000 0.000000000000000 1.000000000000000 14.000000000000000 
2  18 -1 58 -1 0
2  32 1 36 1 5 1 6 -1 0
2  44 1 45 1 46 1 47 1 8 -1 0
2  18 -1 3 1 2 -1 10 1 9 -1 0
2  18 -1 0
Curve2ds 49
1 0.00000000000000000 0.00000000000000000 1.00000000000000000 0.00000000000000000 
1 6.28318530717958623 0.00000000000000000 0.00000000000000000 -1.00000000000000000 
1 0.00000000000000000 0.00000000000000000 1.00000000000000000 0.00000000000000000 
1 0.00000000000000000 0.00000000000000000 1.00000000000000000 0.00000000000000000 
1 4.71238898039429621 0.00000000000000000 0.00000000000000000 -1.00000000000000000 
1 6.28318530717958623 -1.99999999999999267 -1.00000000000000000 0.00000000000000000 
7 0 0  1 2 2  3.14159265358020301 0.00000000000000000  3.14159265358020301 -1.99999999999998690 
 0.00000000000000000 2 1.00000000000000000 2
1 6.28318530717958623 0.00000000000000000 0.00000000000000000 1.00000000000000000 
1 4.71238898038468967 0.00000000000000000 0.00000000000000000 -1.00000000000000000 
1 0.00000000000000000 0.00000000000000000 1.00000000000000000 0.00000000000000000 
1 0.00000000000000000 0.00000000000000000 1.00000000000000000 0.00000000000000000 
1 0.00000000000000000 -101.00000000000000000 1.00000000000000000 0.00000000000000000 
1 6.28318530717958623 0.00000000000000000 -1.00000000000000000 0.00000000000000000 
1 4.71238898037507514 0.00000000000000000 0.00000000000000000 -1.00000000000000000 
7 0 0  1 2 2  6.28318530710846446 0.00000000000000000  6.28318530710846446 -2.00000000000001510 
 0.00000000000000000 2 1.00000000000000000 2
1 0.00000000000000000 0.00000000000000000 0.00000000000000000 1.00000000000000000 
1 6.28318530717958623 -2.00000000000000933 -1.00000000000000000 0.00000000000000000 
1 6.28318530717958623 0.00000000000000000 0.00000000000000000 1.00000000000000000 
1 0.00000000000000000 0.00000000000000000 0.00000000000000000 1.00000000000000000 
1 6.28318530717958623 2.00000000000001377 -1.00000000000000000 0.00000000000000000 
1 6.28318530717958623 1.99999999999999134 -1.00000000000000000 0.00000000000000000 
1 6.28318530717958623 0.00000000000000000 0.00000000000000000 -1.00000000000000000 
1 0.00000000000000000 1.00000000000000000 1.00000000000000000 0.00000000000000000 
1 4.71238898038468967 0.00000000000000000 0.00000000000000000 1.00000000000000000 
7 0 0  1 2 2  3.14159265358979312 0.00000000000000000  3.14159265358979312 -1.99999999999998912 
 0.00000000000000000 2 1.00000000000000000 2
1 0.00000000000000000 0.00000000000000000 1.00000000000000000 0.00000000000000000 
1 0.00000000000000000 0.00000000000000000 1.00000000000000000 0.00000000000000000 
1 0.00000000000000000 0.00000000000000000 1.00000000000000000 0.00000000000000000 
1 0.00000000000000000 0.00000000000000000 1.00000000000000000 0.00000000000000000 
1 0.00000000000000000 0.00000000000000000 1.00000000000000000 0.00000000000000000 
1 1.57079632679489656 0.00000000000000000 0.00000000000000000 1.00000000000000000 
1 6.28318530717958623 1.00000000000000000 -1.00000000000000000 0.00000000000000000 
1 6.28318530717958623 -1.99999999999999001 -1.00000000000000000 0.00000000000000000 
1 2.26892802759262802 0.00000000000000000 0.00000000000000000 -1.00000000000000000 
1 3.14159265358979578 0.00000000000000000 0.00000000000000000 -1.00000000000000000 
1 6.28318581552893729 0.00000000000000000 0.00000000000000000 -1.00000000000000000 
1 6.28318530717958623 -1.99999999999998446 -1.00000000000000000 0.00000000000000000 
1 1.57079632679489589 0.00000000000000000 0.00000000000000000 -1.00000000000000000 
1 1.57079632679489589 0.00000000000000000 0.00000000000000000 -1.00000000000000000 
1 12.56637061435917246 -1.99999999999997136 -1.00000000000000000 0.00000000000000000 
1 5.41052068118242158 0.00000000000000000 0.00000000000000000 -1.00000000000000000 
1 6.28318530717958623 -1.99999999999998668 -1.00000000000000000 0.00000000000000000 
1 0.00000000000000000 0.00000000000000000 0.00000000000000000 -1.00000000000000000 
1 6.28318530717958623 0.00000000000000000 0.00000000000000000 1.00000000000000000 
1 0.00000000000000000 0.00000000000000000 0.00000000000000000 1.00000000000000000 
1 6.28318530717958623 2.00000000000000933 -1.00000000000000000 0.00000000000000000 
1 6.28318530717958623 2.00000000000000933 -1.00000000000000000 0.00000000000000000 
1 6.28318530717958623 2.00000000000000933 -1.00000000000000000 0.00000000000000000 
1 6.28318530717958623 2.00000000000000933 -1.00000000000000000 0.00000000000000000 
Curves 58
2 -29.49999999849328347 -3.99999999849583876 0.00000000000000000 0.00000000000000000 0.00000000000000000 1.00000000000000000 1.00000000000000000 0.00000000000000000 -0.00000000000000000 -0.00000000000000000 1.00000000000000000 0.00000000000000000 21.00000000150543045
1 -50.50000000000000000 -3.99999999999998890 -0.00000000000001313 1.00000000000000000 -0.00000000000000022 0.00000000000000028 
1 29.49999999829136854 -25.00000000000510880 0.00000000000000000 -1.00000000000000000 0.00000000000000000 0.00000000000000000 
2 29.49999999849327637 -3.99999999849968013 0.00000000000000000 0.00000000000000000 0.00000000000000000 1.00000000000000000 1.00000000000000000 0.00000000000000000 -0.00000000000000000 -0.00000000000000000 1.00000000000000000 0.00000000000000000 21.00000000150543045
2 0.00000000000000000 0.00000000000000000 0.00000000000000000 0.00000000000000000 0.00000000000000000 -1.00000000000000000 -1.00000000000000000 0.00000000000000000 0.00000000000000000 0.00000000000000000 1.00000000000000000 0.00000000000000000 2.75000000000000000
2 0.00000000000000000 0.00000000000000000 0.00000000000000000 0.00000000000000000 0.00000000000000000 -1.00000000000000000 -1.00000000000000000 0.00000000000000000 0.00000000000000000 0.00000000000000000 1.00000000000000000 0.00000000000000000 2.75000000000000000
1 -29.49999999829154973 -25.00000000000319034 0.00000000000000000 0.00000000000000000 0.00000000000000000 1.00000000000000000 
2 -29.49999999849328347 -3.99999999849583876 1.99999999999999267 0.00000000000000000 0.00000000000000000 -1.00000000000000000 1.00000000000000000 0.00000000000000000 0.00000000000000000 0.00000000000000000 -1.00000000000000000 0.00000000000000000 21.00000000150543045
6 0 1 -50.50000000000000000 -3.99999999999998890 -0.00000000000001313  -50.50000000000000000 -3.99999999999998845 1.99999999999998690  
1 -50.50000000000000000 0.00000000000001210 3.99999999999998579 1.00000000000000000 -0.00000000000000022 0.00000000000000028 
2 0.00000000000000178 -3.99999999999999911 4.00000000000000089 -1.00000000000000000 0.00000000000000022 -0.00000000000000028 0.00000000000000028 -0.00000000000000044 -1.00000000000000000 -0.00000000000000022 -1.00000000000000000 0.00000000000000044 4.00000000000000000
2 0.00000000000000178 -3.99999999999999911 4.00000000000000089 -1.00000000000000000 0.00000000000000022 -0.00000000000000028 0.00000000000000028 -0.00000000000000044 -1.00000000000000000 -0.00000000000000022 -1.00000000000000000 0.00000000000000044 4.00000000000000000
1 -10.50000000085431573 -25.00000000000510880 2.00000000000000266 -1.00000000000000000 -0.00000000000000000 -0.00000000000000028 
1 29.49999999829136854 -25.00000000000510880 0.00000000000000000 0.00000000000000000 0.00000000000000000 1.00000000000000000 
6 0 1 50.50000000000000000 -4.00000000000001155 0.00000000000001490  50.50000000000000000 -4.00000000000001066 2.00000000000001510  
2 29.49999999849327637 -3.99999999849968013 2.00000000000000933 0.00000000000000000 0.00000000000000000 -1.00000000000000000 1.00000000000000000 0.00000000000000000 0.00000000000000000 0.00000000000000000 -1.00000000000000000 0.00000000000000000 21.00000000150543045
1 -2.75000000000000000 0.00000000000000000 0.00000000000000000 0.00000000000000006 0.00000000000000000 1.00000000000000000 
2 40.00000000000000000 -12.00000000000000000 2.00000000000001377 0.00000000000000000 0.00000000000000000 1.00000000000000000 -1.00000000000000000 0.00000000000000000 0.00000000000000000 0.00000000000000000 -1.00000000000000000 0.00000000000000000 2.75000000000000000
1 -2.75000000000000000 0.00000000000000000 0.00000000000000000 0.00000000000000006 0.00000000000000000 1.00000000000000000 
2 -40.00000000000000000 -12.00000000000000000 1.99999999999999134 0.00000000000000000 0.00000000000000000 1.00000000000000000 -1.00000000000000000 0.00000000000000000 0.00000000000000000 0.00000000000000000 -1.00000000000000000 0.00000000000000000 2.75000000000000000
1 -50.50000000000000000 -3.99999999999998845 1.99999999999998690 1.00000000000000000 -0.00000000000000022 0.00000000000000028 
2 -50.50000000000000000 -3.99999999999998801 3.99999999999998668 -1.00000000000000000 0.00000000000000022 -0.00000000000000028 0.00000000000000028 -0.00000000000000044 -1.00000000000000000 -0.00000000000000022 -1.00000000000000000 0.00000000000000044 2.00000000000000000
6 0 1 -50.50000000000000000 0.00000000000001210 3.99999999999998579  -50.50000000000000000 -1.99999999999998801 3.99999999999998623  
2 38.00000000000000000 107.49999999999991473 0.00000000000000000 0.00000000000000000 0.00000000000000000 1.00000000000000000 1.00000000000000000 0.00000000000000000 -0.00000000000000000 -0.00000000000000000 1.00000000000000000 0.00000000000000000 2.50000000000000000
1 48.00000000000000000 109.99999999999991473 0.00000000000000000 -1.00000000000000000 0.00000000000000000 0.00000000000000000 
2 -21.70327683114544826 107.49997092071959059 0.00000000000000000 0.00000000000000000 0.00000000000000000 1.00000000000000000 1.00000000000000000 0.00000000000000000 -0.00000000000000000 -0.00000000000000000 1.00000000000000000 0.00000000000000000 57.20327683114544470
2 48.00000000000000000 107.49999999999991473 0.00000000000000000 0.00000000000000000 0.00000000000000000 1.00000000000000000 1.00000000000000000 0.00000000000000000 -0.00000000000000000 -0.00000000000000000 1.00000000000000000 0.00000000000000000 2.50000000000000000
1 -46.92787609686538985 11.66044443118978080 0.00000000000000000 0.76604444311897801 0.64278760968653947 0.00000000000000000 
1 -0.00000000000002442 0.00000000000002442 110.00000000000000000 0.00000000000000022 -0.00000000000000022 -1.00000000000000000 
2 -40.50000000000000000 4.00000000000000000 0.00000000000000000 0.00000000000000000 0.00000000000000000 1.00000000000000000 1.00000000000000000 0.00000000000000000 -0.00000000000000000 -0.00000000000000000 1.00000000000000000 0.00000000000000000 10.00000000000000000
2 0.00000000000000000 0.00000000000000000 0.00000000000000000 0.00000000000000000 1.00000000000000000 -0.00000000000000022 1.00000000000000000 0.00000000000000000 0.00000000000000000 0.00000000000000000 -0.00000000000000022 -1.00000000000000000 1.69999999999999996
2 0.00000000000000000 0.00000000000000000 0.00000000000000000 0.00000000000000000 1.00000000000000000 -0.00000000000000022 1.00000000000000000 0.00000000000000000 0.00000000000000000 0.00000000000000000 -0.00000000000000022 -1.00000000000000000 1.69999999999999996
2 0.00000000000000000 0.00000000000000000 0.00000000000000000 0.00000000000000000 1.00000000000000000 -0.00000000000000022 1.00000000000000000 0.00000000000000000 0.00000000000000000 0.00000000000000000 -0.00000000000000022 -1.00000000000000000 1.69999999999999996
2 0.00000000000000000 0.00000000000000000 0.00000000000000000 0.00000000000000000 1.00000000000000000 -0.00000000000000022 1.00000000000000000 0.00000000000000000 0.00000000000000000 0.00000000000000000 -0.00000000000000022 -1.00000000000000000 1.69999999999999996
7 0 0  1 2 2  50.50000000000000000 -0.00000000000001044 4.00000000000001332  50.50000000000000000 -2.00000000000001066 4.00000000000001421 
 0.00000000000000000 2 1.00000000000000000 2
2 50.50000000000000000 -4.00000000000001066 4.00000000000001510 -1.00000000000000000 0.00000000000000022 -0.00000000000000028 0.00000000000000028 -0.00000000000000044 -1.00000000000000000 -0.00000000000000022 -1.00000000000000000 0.00000000000000044 2.00000000000000000
1 -50.50000000000000000 -1.99999999999998801 3.99999999999998623 1.00000000000000000 -0.00000000000000022 0.00000000000000028 
2 -40.50000000000000000 -1.99999999999999001 4.00000000000000000 -0.00000000000000000 1.00000000000000000 0.00000000000000000 1.00000000000000000 0.00000000000000000 0.00000000000000000 0.00000000000000000 0.00000000000000000 -1.00000000000000000 10.00000000000000000
1 -46.92787609686538985 0.00000000000000300 11.66044443118978080 0.00000000000000000 -1.00000000000000000 0.00000000000000022 
1 35.49999999999630518 0.00000000000002400 107.49999999998408384 0.00000000000000000 -1.00000000000000000 0.00000000000000022 
2 38.00000000000000000 -1.99999999999998446 107.49999999999991473 -0.00000000000000000 1.00000000000000000 0.00000000000000000 1.00000000000000000 0.00000000000000000 0.00000000000000000 0.00000000000000000 0.00000000000000000 -1.00000000000000000 2.50000000000000000
1 38.00000000000000000 0.00000000000002400 109.99999999999991473 0.00000000000000000 -1.00000000000000000 0.00000000000000022 
1 48.00000000000000000 0.00000000000002400 109.99999999999991473 0.00000000000000000 -1.00000000000000000 0.00000000000000022 
1 -50.50000000000002132 -1.99999999999996447 109.99999999999998579 1.00000000000000000 -0.00000000000000022 0.00000000000000028 
2 -21.70327683114544826 -1.99999999999997136 107.49997092071959059 -0.00000000000000000 1.00000000000000000 0.00000000000000000 1.00000000000000000 0.00000000000000000 0.00000000000000000 0.00000000000000000 0.00000000000000000 -1.00000000000000000 57.20327683114544470
1 15.06628074938391926 0.00000000000001400 63.67971857602403674 0.00000000000000000 -1.00000000000000000 0.00000000000000022 
2 48.00000000000000000 -1.99999999999998668 107.49999999999991473 -0.00000000000000000 1.00000000000000000 0.00000000000000000 1.00000000000000000 0.00000000000000000 0.00000000000000000 0.00000000000000000 0.00000000000000000 -1.00000000000000000 2.50000000000000000
1 50.50000000000000000 0.00000000000002400 107.49999999999991473 0.00000000000000000 -1.00000000000000000 0.00000000000000022 
1 -23.76459108620920802 -1.99999999999998801 31.09674834048559688 0.76604444311897801 -0.00000000000000003 0.64278760968653947 
1 50.49999999999997868 -1.99999999999998690 110.00000000000001421 0.00000000000000022 -0.00000000000000022 -1.00000000000000000 
1 1.69999999999999996 0.00000000000000000 0.00000000000000000 -0.00000000000000006 -1.00000000000000000 0.00000000000000022 
2 43.00000000000000000 -1.99999999999998712 100.00000000000000000 0.00000000000000000 -1.00000000000000000 0.00000000000000022 1.00000000000000000 0.00000000000000000 0.00000000000000000 -0.00000000000000000 0.00000000000000022 1.00000000000000000 1.69999999999999996
1 1.69999999999999996 0.00000000000000000 0.00000000000000000 -0.00000000000000006 -1.00000000000000000 0.00000000000000022 
2 43.00000000000000000 -1.99999999999999356 71.33333333333332860 0.00000000000000000 -1.00000000000000000 0.00000000000000022 1.00000000000000000 0.00000000000000000 0.00000000000000000 -0.00000000000000000 0.00000000000000022 1.00000000000000000 1.69999999999999996
1 1.69999999999999996 0.00000000000000000 0.00000000000000000 -0.00000000000000006 -1.00000000000000000 0.00000000000000022 
2 43.00000000000000000 -1.99999999999999978 42.66666666666666430 0.00000000000000000 -1.00000000000000000 0.00000000000000022 1.00000000000000000 0.00000000000000000 0.00000000000000000 -0.00000000000000000 0.00000000000000022 1.00000000000000000 1.69999999999999996
1 1.69999999999999996 0.00000000000000000 0.00000000000000000 -0.00000000000000006 -1.00000000000000000 0.00000000000000022 
2 43.00000000000000000 -2.00000000000000622 14.00000000000000000 0.00000000000000000 -1.00000000000000000 0.00000000000000022 1.00000000000000000 0.00000000000000000 0.00000000000000000 -0.00000000000000000 0.00000000000000022 1.00000000000000000 1.69999999999999996
Polygon3D 0
PolygonOnTriangulations 0
Surfaces 24
1 -50.50000000000000000 -3.99999999999998890 -0.00000000000001313 0.00000000000000028 -0.00000000000000022 -1.00000000000000000 -0.00000000000000022 -1.00000000000000000 0.00000000000000022 -1.00000000000000000 0.00000000000000022 -0.00000000000000028 
2 -29.49999999849328347 -3.99999999849583876 0.00000000000000000 -0.00000000000000000 -0.00000000000000000 -1.00000000000000000 1.00000000000000000 0.00000000000000000 0.00000000000000000 -0.00000000000000000 1.00000000000000000 -0.00000000000000000 21.00000000150543045
2 -50.50000000000000000 -3.99999999999998801 3.99999999999998668 -1.00000000000000000 0.00000000000000022 -0.00000000000000028 0.00000000000000028 -0.00000000000000044 -1.00000000000000000 -0.00000000000000022 -1.00000000000000000 0.00000000000000044 4.00000000000000000
2 29.49999999849327637 -3.99999999849968013 0.00000000000000000 -0.00000000000000000 -0.00000000000000000 -1.00000000000000000 1.00000000000000000 0.00000000000000000 0.00000000000000000 -0.00000000000000000 1.00000000000000000 -0.00000000000000000 21.00000000150543045
2 0.00000000000000000 0.00000000000000000 0.00000000000000000 0.00000000000000000 0.00000000000000000 1.00000000000000000 -1.00000000000000000 0.00000000000000000 0.00000000000000000 -0.00000000000000000 1.00000000000000000 -0.00000000000000000 2.75000000000000000
2 0.00000000000000000 0.00000000000000000 0.00000000000000000 0.00000000000000000 0.00000000000000000 1.00000000000000000 -1.00000000000000000 0.00000000000000000 0.00000000000000000 -0.00000000000000000 1.00000000000000000 -0.00000000000000000 2.75000000000000000
1 29.49999999829136854 -25.00000000000510880 0.00000000000000000 0.00000000000000000 -1.00000000000000000 0.00000000000000000 -1.00000000000000000 0.00000000000000000 0.00000000000000000 -0.00000000000000000 -0.00000000000000000 -1.00000000000000000 
9 0 0 0 0 8 1 9 2 2 2 -50.49999999999995737 0.00000000000001199 3.99999999999998312  -50.49999999999995737 -1.99999999999998579 3.99999999999998224  
-50.49999999999943157 0.00000000000001968 3.21460183660251708  -50.49999999999943157 -1.99999999999997513 3.60730091830123989  
-50.50000000000197531 -0.17624315584483524 2.42920342598319561  -50.50000000000197531 -2.08812157792244690 3.21460171299163466  
-50.49999999999669598 -0.52872773651419891 1.68994706265961825  -50.49999999999669598 -2.26436386825703284 2.84497353132973352  
-50.50000000000345324 -1.04296497688049361 1.04296497688054957  -50.50000000000345324 -2.52148248844030354 2.52148248844032530  
-50.49999999999754863 -1.68994706265968930 0.52872773651416094  -50.49999999999754863 -2.84497353132979258 2.26436386825704306  
-50.50000000000113687 -2.42920342598315031 0.17624315584484981  -50.50000000000113687 -3.21460171299159203 2.08812157792242914  
-50.49999999999972289 -3.21460183660253662 -0.00000000000002669  -50.49999999999972289 -3.60730091830125588 1.99999999999997824  
-50.50000000000000000 -3.99999999999998845 -0.00000000000001332  -50.50000000000000000 -3.99999999999998801 1.99999999999998623  

4.71238898038468967 9
6.28318530717958623 9

0.00000000000000000 2
1.00000000000000000 2

1 -50.50000000000002132 0.00000000000003564 109.99999999999998579 0.00000000000000022 1.00000000000000000 -0.00000000000000022 0.00000000000000022 -0.00000000000000022 -1.00000000000000000 -1.00000000000000000 0.00000000000000022 -0.00000000000000022 
9 0 0 0 0 8 1 9 2 2 2 50.50000000000000000 -4.00000000000001243 0.00000000000001488  50.50000000000000000 -4.00000000000001155 2.00000000000001510  
50.50000000000007105 -3.21460183660256238 0.00000000000001309  50.50000000000007105 -3.60730091830128963 2.00000000000001554  
50.49999999999972999 -2.42920342598316807 0.17624315584483591  50.49999999999972999 -3.21460171299158004 2.08812157792241138  
50.50000000000054712 -1.68994706265973260 0.52872773651426996  50.50000000000054712 -2.84497353132989295 2.26436386825717539  
50.49999999999933209 -1.04296497688047163 1.04296497688047918  50.49999999999933209 -2.52148248844020806 2.52148248844019962  
50.50000000000056133 -0.52872773651427329 1.68994706265972949  50.50000000000056133 -2.26436386825717406 2.84497353132991426  
50.49999999999971578 -0.17624315584482936 2.42920342598317252  50.49999999999971578 -2.08812157792240338 3.21460171299156983  
50.50000000000007816 -0.00000000000000922 3.21460183660256194  50.50000000000007816 -2.00000000000001332 3.60730091830129629  
50.50000000000000000 -0.00000000000001044 4.00000000000001332  50.50000000000000000 -2.00000000000001066 4.00000000000001421  

0.00000000000000000 9
1.57079632679489656 9

0.00000000000000000 2
1.00000000000000000 2

1 -50.50000000000000000 -3.99999999999998845 1.99999999999998690 0.00000000000000028 -0.00000000000000022 -1.00000000000000000 -0.00000000000000022 -1.00000000000000000 0.00000000000000022 -1.00000000000000000 0.00000000000000022 -0.00000000000000028 
2 -50.50000000000000000 -3.99999999999998801 3.99999999999998668 -1.00000000000000000 0.00000000000000022 -0.00000000000000028 0.00000000000000028 -0.00000000000000044 -1.00000000000000000 -0.00000000000000022 -1.00000000000000000 0.00000000000000044 2.00000000000000000
2 -40.50000000000000000 0.00000000000000000 4.00000000000000000 0.00000000000000000 1.00000000000000000 0.00000000000000000 1.00000000000000000 0.00000000000000000 0.00000000000000000 -0.00000000000000000 -0.00000000000000000 1.00000000000000000 10.00000000000000000
2 38.00000000000000000 0.00000000000000000 107.49999999999991473 0.00000000000000000 1.00000000000000000 0.00000000000000000 1.00000000000000000 0.00000000000000000 0.00000000000000000 -0.00000000000000000 -0.00000000000000000 1.00000000000000000 2.50000000000000000
2 -21.70327683114544826 0.00000000000000000 107.49997092071959059 0.00000000000000000 1.00000000000000000 0.00000000000000000 1.00000000000000000 0.00000000000000000 0.00000000000000000 -0.00000000000000000 -0.00000000000000000 1.00000000000000000 57.20327683114544470
2 48.00000000000000000 0.00000000000000000 107.49999999999991473 0.00000000000000000 1.00000000000000000 0.00000000000000000 1.00000000000000000 0.00000000000000000 0.00000000000000000 -0.00000000000000000 -0.00000000000000000 1.00000000000000000 2.50000000000000000
2 0.00000000000000000 0.00000000000000000 0.00000000000000000 0.00000000000000000 -1.00000000000000000 0.00000000000000022 1.00000000000000000 0.00000000000000000 0.00000000000000000 0.00000000000000000 -0.00000000000000022 -1.00000000000000000 1.69999999999999996
2 0.00000000000000000 0.00000000000000000 0.00000000000000000 0.00000000000000000 -1.00000000000000000 0.00000000000000022 1.00000000000000000 0.00000000000000000 0.00000000000000000 0.00000000000000000 -0.00000000000000022 -1.00000000000000000 1.69999999999999996
2 0.00000000000000000 0.00000000000000000 0.00000000000000000 0.00000000000000000 -1.00000000000000000 0.00000000000000022 1.00000000000000000 0.00000000000000000 0.00000000000000000 0.00000000000000000 -0.00000000000000022 -1.00000000000000000 1.69999999999999996
2 0.00000000000000000 0.00000000000000000 0.00000000000000000 0.00000000000000000 -1.00000000000000000 0.00000000000000022 1.00000000000000000 0.00000000000000000 0.00000000000000000 0.00000000000000000 -0.00000000000000022 -1.00000000000000000 1.69999999999999996
1 -46.92787609686538985 0.00000000000000000 11.66044443118978080 -0.64278760968653947 0.00000000000000017 0.76604444311897801 0.76604444311897801 0.00000000000000000 0.64278760968653947 0.00000000000000011 1.00000000000000000 -0.00000000000000013 
1 -50.50000000000002132 -1.99999999999996447 109.99999999999998579 -0.00000000000000028 0.00000000000000000 1.00000000000000000 -1.00000000000000000 0.00000000000000022 -0.00000000000000028 -0.00000000000000022 -1.00000000000000000 -0.00000000000000000 
1 50.49999999999997868 -1.99999999999998690 110.00000000000001421 1.00000000000000000 0.00000000000000000 0.00000000000000022 -0.00000000000000022 0.00000000000000022 1.00000000000000000 -0.00000000000000000 -1.00000000000000000 0.00000000000000022 
1 -50.50000000000002132 -1.99999999999996447 109.99999999999998579 0.00000000000000022 1.00000000000000000 -0.00000000000000022 0.00000000000000022 -0.00000000000000022 -1.00000000000000000 -1.00000000000000000 0.00000000000000022 -0.00000000000000022 
Triangulations 0

TShapes 156
Ve
0.001000000568528
-50.499999999999574 -3.999999999431474 -0.000000000000009
0 0

0101101
*
Ve
0.001000000000013
-29.499999998291550 -25.000000000003190 0.000000000000000
0 0

0101101
*
Ed
 0.001000000000012 1 1 0
1  1 0 3.141592653580203 4.712388980394296
2  1 2 17 3.141592653580203 4.712388980394296
0

0101000
+156 19 -155 19 *
Ve
0.001000000002314
50.499999999999567 -3.999999999997755 0.000000000000010
0 0

0101101
*
Ed
 0.001000000000000 1 1 0
1  2 0 0.000000000000000 101.000000000000000
2  2 3 0 0.000000000000000 101.000000000000000
4 G1 1 0 3 0
0

0101000
+156 20 -153 20 *
Ve
0.001000000000017
29.499999998291369 -25.000000000005109 0.000000000000000
0 0

0101101
*
Ed
 0.001000000000013 1 1 0
1  3 0 0.000000000000000 58.999999996582915
0

0101000
+151 19 -155 19 *
Ed
 0.001000000000017 1 1 0
1  4 0 4.712388980375075 6.283185307108464
2  3 4 17 4.712388980375075 6.283185307108464
0

0101000
+151 19 -153 19 *
Wi

0101100
-154 16 +152 11 +150 16 -149 16 *
Ve
0.001000000000015
37.250000000000000 -12.000000000000000 0.000000000000000
0 0

0101101
*
Ed
 0.001000000000015 1 1 0
1  5 0 0.000000000000000 6.283185307179586
2  4 5 0 0.000000000000000 6.283185307179586
0

0101000
+147 22 -147 22 *
Wi

0101100
-146 21 *
Ve
0.001000000000015
-42.750000000000000 -12.000000000000000 0.000000000000000
0 0

0101101
*
Ed
 0.001000000000015 1 1 0
1  6 0 0.000000000000000 6.283185307179586
2  4 6 0 0.000000000000000 6.283185307179586
0

0101000
+144 24 -144 24 *
Wi

0101100
-143 23 *
Fa
0  0.001000000000000 1 11

0101000
+148 0 +145 0 +142 0 *
Ve
0.001000050001918
-29.499999998291550 -25.000000000003190 1.999999999999997
0 0

0101101
*
Ed
 0.000000500000000 1 1 0
1  7 0 0.000000000000000 1.999999999999997
2  5 2 0 0.000000000000000 1.999999999999997
4 G1 2 0 7 0
0

0101000
+155 27 -140 27 *
Ve
0.001000050001000
-50.500000000000000 -3.999999999999988 1.999999999999987
0 0

0101101
*
Ed
 0.001000000000000 1 1 0
1  8 0 1.570796326785290 3.141592653599383
2  6 2 0 1.570796326785290 3.141592653599383
0

0101000
+140 27 -138 27 *
Ed
 0.000001000000000 1 1 0
1  9 0 0.000000000000000 1.000000000000000
2  7 2 29 0.000000000000000 1.000000000000000
2  8 8 0 0.000000000000000 1.000000000000000
0

0101000
+156 20 -138 20 *
Wi

0101100
-154 26 -139 0 -137 0 +136 28 *
Fa
0  0.000000500000000 2 0

0101000
+135 0 *
Ve
0.001000000000019
-50.500000000000000 0.000000000000008 3.999999999999991
0 0

0101101
*
Ve
0.001000000000000
50.500000000000000 -0.000000000000010 4.000000000000014
0 0

0101101
*
Ed
 0.001000000000000 1 1 0
1  10 0 0.000000000000000 101.000000000000000
2  9 3 0 0.000000000000000 101.000000000000000
4 G1 3 0 9 0
0

0101000
+133 20 -132 20 *
Ed
 0.000001000000000 1 1 0
1  11 0 4.712388980384690 6.283185307179586
2  10 3 34 4.712388980384690 6.283185307179586
2  11 8 34 4.712388980384690 6.283185307179586
0

0101000
+133 35 -156 35 *
Ed
 0.000001000000000 1 1 0
1  12 0 4.712388980384690 6.283185307179586
2  12 3 38 4.712388980384690 6.283185307179586
2  13 10 38 4.712388980384690 6.283185307179586
0

0101000
+132 39 -153 39 *
Wi

0101100
+131 31 -152 31 -130 33 +129 37 *
Fa
0  0.000000100000002 3 31

0101000
+128 0 *
Ve
0.001000050000004
29.499999998291369 -25.000000000005109 2.000000000000014
0 0

0101101
*
Ed
 0.001000050000000 1 1 0
1  13 0 -39.999999999145686 18.999999997437229
0

0101000
+126 27 -140 27 *
Ed
 0.000000500000000 1 1 0
1  14 0 0.000000000000000 2.000000000000014
2  14 4 0 0.000000000000000 2.000000000000014
4 G1 7 0 4 0
0

0101000
+151 27 -126 27 *
Wi

0101100
-150 26 -139 0 +125 0 +124 0 *
Fa
0  0.000000500000000 7 0

0101000
+123 0 *
Ve
0.001000050001000
50.500000000000000 -4.000000000000011 2.000000000000015
0 0

0101101
*
Ed
 0.000001000000000 1 1 0
1  15 0 0.000000000000000 1.000000000000000
2  15 4 29 0.000000000000000 1.000000000000000
2  16 10 0 0.000000000000000 1.000000000000000
0

0101000
+153 20 -121 20 *
Ed
 0.001000000000000 1 1 0
1  16 0 0.000000000071122 1.570796326804511
2  17 4 0 0.000000000071122 1.570796326804511
0

0101000
+121 27 -126 27 *
Wi

0101100
-149 26 -120 28 -119 0 +124 0 *
Fa
0  0.000000500000000 4 0

0101000
+118 0 *
Ve
0.001000000000000
37.250000000000000 -12.000000000000000 2.000000000000013
0 0

0101101
*
Ed
 0.000000100000000 1 1 0
1  17 0 0.000000000000000 2.000000000000013
3  18 19CN 5 0 0.000000000000000 2.000000000000013
0

0101000
+147 22 -116 22 *
Ed
 0.001000000000000 1 1 0
1  18 0 0.000000000000000 6.283185307179586
2  20 5 21 0.000000000000000 6.283185307179586
0

0101100
+116 40 -116 40 *
Wi

0101100
-115 21 +114 0 +115 21 +146 21 *
Fa
0  0.000000100000000 5 21

0101000
+113 0 *
Ve
0.001000000000000
-42.750000000000000 -12.000000000000000 1.999999999999991
0 0

0101101
*
Ed
 0.000000100000000 1 1 0
1  19 0 0.000000000000000 1.999999999999991
3  18 19CN 6 0 0.000000000000000 1.999999999999991
0

0101000
+144 24 -111 24 *
Ed
 0.001000000000000 1 1 0
1  20 0 0.000000000000000 6.283185307179586
2  21 6 23 0.000000000000000 6.283185307179586
0

0101100
+111 40 -111 40 *
Wi

0101100
-110 23 +109 0 +110 23 +143 23 *
Fa
0  0.000000100000000 6 23

0101000
+108 0 *
Ed
 0.001000000000000 1 1 0
1  21 0 0.000000000000000 101.000000000000000
2  22 12 0 0.000000000000000 101.000000000000000
0

0101000
+138 20 -121 20 *
Wi

0101100
+137 41 +125 41 +106 11 +119 41 *
Wi

0101100
+114 0 *
Wi

0101100
+109 0 *
Fa
0  0.001000000000000 11 11

0101000
+105 0 +104 0 +103 0 *
Ve
0.001000050001000
-50.500000000000000 -1.999999999999988 3.999999999999986
0 0

0101101
*
Ed
 0.000001000000000 1 1 0
1  22 0 4.712388980384690 6.283185307179586
2  23 8 0 4.712388980384690 6.283185307179586
2  10 12 0 4.712388980384690 6.283185307179586
0

0101000
+101 20 -138 20 *
Ed
 0.000001000000015 1 1 0
1  23 0 0.000000000000000 1.000000000000000
2  24 8 0 0.000000000000000 1.000000000000000
2  25 13 42 0.000000000000000 1.000000000000000
0

0101000
+133 20 -101 20 *
Wi

0101100
+130 33 +136 31 -100 31 -99 31 *
Fa
0  0.000000100000000 8 31

0101000
+98 0 *
Ve
0.001000000000202
38.000000000000000 0.000000000000024 109.999999999999915
0 0

0101101
*
Ve
0.001000000000016
35.499999999996305 0.000000000000024 107.499999999984084
0 0

0101101
*
Ed
 0.001000000000016 1 1 0
1  24 0 1.570796326794896 3.141592653589796
2  26 14 49 1.570796326794896 3.141592653589796
0

0101000
+96 50 -95 50 *
Ve
0.001000000000202
48.000000000000000 0.000000000000024 109.999999999999915
0 0

0101101
*
Ed
 0.001000000000101 1 1 0
1  25 0 0.000000000000000 10.000000000000000
0

0101000
+93 50 -96 50 *
Ve
0.001000000000015
15.066280749383919 0.000000000000014 63.679718576024037
0 0

0101101
*
Ed
 0.001000000000015 1 1 0
1  26 0 5.410520681182422 6.283185815528937
2  27 15 49 5.410520681182422 6.283185815528937
0

0101000
+91 50 -95 50 *
Ve
0.001000000000024
50.500000000000000 0.000000000000024 107.499999999999915
0 0

0101101
*
Ed
 0.001000000000014 1 1 0
1  27 0 0.000000000000000 1.570796326794896
2  28 16 49 0.000000000000000 1.570796326794896
0

0101000
+89 50 -93 50 *
Ve
0.001000000000013
-46.927876096865390 0.000000000000003 11.660444431189781
0 0

0101101
*
Ed
 0.001000000000013 1 1 0
1  28 0 0.000000000000000 80.927624243102443
0

0101000
+87 50 -91 50 *
Ed
 0.001000000000000 1 1 0
1  29 0 2.500000000000099 106.000000000000000
0

0101000
+89 39 -132 39 *
Ed
 0.001000000000013 1 1 0
1  30 0 2.268928027592628 3.141592653589793
2  29 13 49 2.268928027592628 3.141592653589793
0

0101000
+87 50 -133 50 *
Wi

0101100
-94 48 -92 48 +90 48 -88 48 +86 48 +85 51 -84 48 -131 43 *
Ve
0.001000000000010
44.700000000000003 0.000000000000022 100.000000000000000
0 0

0101101
*
Ed
 0.001000000000010 1 1 0
1  31 0 0.000000000000000 6.283185307179586
2  30 17 0 0.000000000000000 6.283185307179586
0

0101000
+82 53 -82 53 *
Wi

0101100
-81 52 *
Ve
0.001000000000010
44.700000000000003 0.000000000000016 71.333333333333329
0 0

0101101
*
Ed
 0.001000000000010 1 1 0
1  32 0 0.000000000000000 6.283185307179586
2  30 18 0 0.000000000000000 6.283185307179586
0

0101000
+79 55 -79 55 *
Wi

0101100
-78 54 *
Ve
0.001000000000010
44.700000000000003 0.000000000000009 42.666666666666664
0 0

0101101
*
Ed
 0.001000000000010 1 1 0
1  33 0 0.000000000000000 6.283185307179586
2  30 19 0 0.000000000000000 6.283185307179586
0

0101000
+76 57 -76 57 *
Wi

0101100
-75 56 *
Ve
0.001000000000010
44.700000000000003 0.000000000000003 14.000000000000000
0 0

0101101
*
Ed
 0.001000000000010 1 1 0
1  34 0 0.000000000000000 6.283185307179586
2  30 20 0 0.000000000000000 6.283185307179586
0

0101000
+73 59 -73 59 *
Wi

0101100
-72 58 *
Fa
0  0.001000000000000 9 43

0101000
+83 0 +80 0 +77 0 +74 0 +71 0 *
Ve
0.001000000000004
50.500000000000000 -2.000000000000011 4.000000000000014
0 0

0101101
*
Ed
 0.000001000000000 1 1 0
1  35 0 0.000000000000000 1.000000000000000
2  31 10 0 0.000000000000000 1.000000000000000
0

0101000
+132 20 -69 20 *
Ed
 0.000001000000000 1 1 0
1  36 0 4.712388980384690 6.283185307179586
2  32 10 0 4.712388980384690 6.283185307179586
2  12 12 0 4.712388980384690 6.283185307179586
0

0101000
+69 20 -121 20 *
Wi

0101100
-129 60 +68 28 +67 28 -120 28 *
Fa
0  0.000000100000000 10 28

0101000
+66 0 *
Ed
 0.001000000000000 1 1 0
1  37 0 0.000000000000000 101.000000000000000
2  9 12 0 0.000000000000000 101.000000000000000
0

0101000
+101 20 -69 20 *
Wi

0101100
+64 0 -106 0 -100 0 +67 0 *
Fa
0  0.000000100000002 12 0

0101000
+63 0 *
Ve
0.001000050000020
-46.927876096865390 -1.999999999999987 11.660444431189781
0 0

0101101
*
Ed
 0.001000000000000 1 1 0
1  38 0 3.141592653589793 4.014257279586959
2  33 13 0 3.141592653589793 4.014257279586959
0

0101000
+101 62 -61 62 *
Ed
 0.001000000000013 1 1 0
1  39 0 0.000000000000000 1.999999999999990
2  34 13 0 0.000000000000000 1.999999999999990
4 G1 13 0 21 0
0

0101000
+87 62 -61 62 *
Wi

0101100
-84 61 -99 31 -60 0 +59 0 *
Fa
0  0.000001000000000 13 0

0101000
+58 0 *
Ve
0.001000000016273
35.499999999996305 -1.999999999999984 107.499999999984084
0 0

0101101
*
Ed
 0.001000000000016 1 1 0
1  40 0 0.000000000000000 2.000000000000008
2  35 14 0 0.000000000000000 2.000000000000008
2  36 15 0 0.000000000000000 2.000000000000008
4 G1 14 0 15 0
0

0101000
+95 62 -56 62 *
Ve
0.001000050001016
38.000000000000000 -1.999999999999984 109.999999999999972
0 0

0101101
*
Ed
 0.001000000000016 1 1 0
1  41 0 3.141592653589793 4.712388980384690
2  37 14 0 3.141592653589793 4.712388980384690
0

0101000
+56 62 -54 62 *
Ed
 0.001000000000201 1 1 0
1  42 0 0.000000000000000 2.000000000000008
2  38 14 0 0.000000000000000 2.000000000000008
0

0101000
+96 62 -54 62 *
Wi

0101100
-94 61 -55 0 -53 0 +52 0 *
Fa
0  0.001000000000016 14 0

0101000
+51 0 *
Ve
0.001000050001014
48.000000000000000 -1.999999999999986 109.999999999999972
0 0

0101101
*
Ed
 0.001000000000201 1 1 0
1  43 0 0.000000000000000 2.000000000000010
2  39 16 0 0.000000000000000 2.000000000000010
0

0101000
+93 62 -49 62 *
Ed
 0.001000000000200 1 1 0
1  44 0 88.500000000000028 98.500000000000028
0

0101000
+54 20 -49 20 *
Wi

0101100
+92 61 -48 0 +47 31 +52 0 *
Fa
0  0.000000100000000 22 31

0101000
+46 0 *
Ve
0.001000050000458
15.066280749383919 -1.999999999999989 63.679718576024037
0 0

0101101
*
Ed
 0.001000000000015 1 1 0
1  45 0 6.283184798830235 7.155849933176751
2  40 15 0 6.283184798830235 7.155849933176751
0

0101000
+56 62 -44 62 *
Ed
 0.001000000000015 1 1 0
1  46 0 0.000000000000000 2.000000000000003
2  41 15 0 0.000000000000000 2.000000000000003
4 G1 15 0 21 0
0

0101000
+91 62 -44 62 *
Wi

0101100
-90 61 -55 0 -43 0 +42 0 *
Fa
0  0.001000000000015 15 0

0101000
+41 0 *
Ve
0.001000050001014
50.499999999999986 -1.999999999999988 107.499999999999915
0 0

0101101
*
Ed
 0.001000000000014 1 1 0
1  47 0 4.712388980384690 6.283185307179586
2  42 16 0 4.712388980384690 6.283185307179586
0

0101000
+49 62 -39 62 *
Ed
 0.001000000000024 1 1 0
1  48 0 0.000000000000000 2.000000000000012
2  43 16 0 0.000000000000000 2.000000000000012
0

0101000
+89 62 -39 62 *
Wi

0101100
-88 61 -48 0 -38 0 +37 0 *
Fa
0  0.001000000000014 16 0

0101000
+36 0 *
Ed
 0.001000050000013 1 1 0
1  49 0 -30.237521097791685 50.690103145311198
0

0101000
+61 62 -44 62 *
Wi

0101100
-86 61 -42 0 +34 0 +59 0 *
Fa
0  0.001000000000013 21 0

0101000
+33 0 *
Ed
 0.001000000000000 1 1 0
1  50 0 2.500000000000099 106.000000000000000
0

0101000
+39 20 -69 20 *
Wi

0101100
-85 37 -68 31 +31 31 +37 0 *
Fa
0  0.000000100000000 23 31

0101000
+30 0 *
Ve
0.001000000000000
44.700000000000003 -1.999999999999988 100.000000000000000
0 0

0101101
*
Ed
 0.000000100000000 1 1 0
1  51 0 0.000000000000000 2.000000000000010
3  44 45CN 17 0 0.000000000000000 2.000000000000010
0

0101000
+82 53 -28 53 *
Ed
 0.001000000000000 1 1 0
1  52 0 0.000000000000000 6.283185307179586
2  46 17 52 0.000000000000000 6.283185307179586
0

0101100
+28 63 -28 63 *
Wi

0101100
-27 52 +26 0 +27 52 +81 52 *
Fa
0  0.000000100000000 17 52

0101000
+25 0 *
Ve
0.001000000000000
44.700000000000003 -1.999999999999994 71.333333333333329
0 0

0101101
*
Ed
 0.000000100000000 1 1 0
1  53 0 0.000000000000000 2.000000000000010
3  44 45CN 18 0 0.000000000000000 2.000000000000010
0

0101000
+79 55 -23 55 *
Ed
 0.001000000000000 1 1 0
1  54 0 0.000000000000000 6.283185307179586
2  47 18 54 0.000000000000000 6.283185307179586
0

0101100
+23 63 -23 63 *
Wi

0101100
-22 54 +21 0 +22 54 +78 54 *
Fa
0  0.000000100000000 18 54

0101000
+20 0 *
Ve
0.001000000000001
44.700000000000003 -2.000000000000000 42.666666666666664
0 0

0101101
*
Ed
 0.000000100000000 1 1 0
1  55 0 0.000000000000000 2.000000000000010
3  44 45CN 19 0 0.000000000000000 2.000000000000010
0

0101000
+76 57 -18 57 *
Ed
 0.001000000000000 1 1 0
1  56 0 0.000000000000000 6.283185307179586
2  48 19 56 0.000000000000000 6.283185307179586
0

0101100
+18 63 -18 63 *
Wi

0101100
-17 56 +16 0 +17 56 +75 56 *
Fa
0  0.000000100000000 19 56

0101000
+15 0 *
Ve
0.001000000000000
44.700000000000003 -2.000000000000007 14.000000000000000
0 0

0101101
*
Ed
 0.000000100000000 1 1 0
1  57 0 0.000000000000000 2.000000000000010
3  44 45CN 20 0 0.000000000000000 2.000000000000010
0

0101000
+73 59 -13 59 *
Ed
 0.001000000000000 1 1 0
1  58 0 0.000000000000000 6.283185307179586
2  49 20 58 0.000000000000000 6.283185307179586
0

0101100
+13 63 -13 63 *
Wi

0101100
-12 58 +11 0 +12 58 +72 58 *
Fa
0  0.000000100000000 20 58

0101000
+10 0 *
Wi

0101100
+53 30 -43 30 +47 43 +34 30 +38 30 +60 30 +31 43 -64 43 *
Wi

0101100
+26 0 *
Wi

0101100
+21 0 *
Wi

0101100
+16 0 *
Wi

0101100
+11 0 *
Fa
0  0.001000000000000 24 43

0101000
+8 0 +7 0 +6 0 +5 0 +4 0 *
Sh

0101100
+141 4 -134 25 +127 30 +122 25 -117 25 +112 4 +107 4 -102 4 +97 30 +70 0 
+65 25 -62 43 -57 30 -50 30 +45 30 +40 30 -35 30 +32 30 +29 30 +24 0 
+19 0 +14 0 +9 0 -3 0 *
So

0100000
+2 0 *

+1 1 