
CASCADE Topology V1, (c) Matra-Datavision
Locations 8
1
1.000000000000000 0.000000000000000 0.000000000000000 0.000000000000000 
0.000000000000000 1.000000000000000 0.000000000000000 0.000000000000000 
0.000000000000000 0.000000000000000 1.000000000000000 0.000000000000000 
1
1.000000000000000 0.000000000000000 0.000000000000000 0.000000000000000 
0.000000000000000 1.000000000000000 0.000000000000000 0.000000000000000 
0.000000000000000 0.000000000000000 1.000000000000000 0.000000000000000 
1
1.000000000000000 0.000000000000000 0.000000000000000 0.000000000000000 
0.000000000000000 1.000000000000000 0.000000000000000 0.000000000000000 
0.000000000000000 0.000000000000000 1.000000000000000 0.000000000000000 
2  1 1 2 1 3 -1 0
1
1.000000000000000 0.000000000000000 0.000000000000000 0.000000000000000 
0.000000000000000 1.000000000000000 0.000000000000000 0.000000000000000 
0.000000000000000 0.000000000000000 1.000000000000000 18.000000000000000 
2  1 1 2 1 3 -1 5 1 0
2  3 1 2 -1 1 -1 0
2  5 -1 3 1 2 -1 1 -1 0
Curve2ds 96
1 6.84773629520138982 0.00000000000000000 0.00000000000000000 -1.00000000000000000 
1 0.56455098802180270 0.00000000000000000 0.00000000000000000 -1.00000000000000000 
1 7.50891659728787708 0.00000000000000000 0.00000000000000000 -1.00000000000000000 
1 1.22573129010829085 0.00000000000000000 0.00000000000000000 -1.00000000000000000 
1 0.00000000000000000 0.00000000000000000 1.00000000000000000 0.00000000000000000 
1 0.00000000000000000 -18.00000000000000000 1.00000000000000000 0.00000000000000000 
2 255.70454913011639064 161.93962032611540280 1.00000000000000000 0.00000000000000000 -0.00000000000000000 1.00000000000000000 46.50000000000000000
1 -6.28318530717958623 -18.00000000000000000 1.00000000000000000 0.00000000000000000 
1 -6.28318530717958623 0.00000000000000000 1.00000000000000000 0.00000000000000000 
2 -0.00000000000001316 0.00000000000002677 1.00000000000000000 0.00000000000000000 -0.00000000000000000 1.00000000000000000 349.17021174407386752
1 0.00000000000000000 0.00000000000000000 1.00000000000000000 0.00000000000000000 
1 0.00000000000000000 -18.00000000000000000 1.00000000000000000 0.00000000000000000 
2 -0.00000000000001316 -549.44557738923845136 1.00000000000000000 0.00000000000000000 -0.00000000000000000 1.00000000000000000 802.44557738923845136
1 0.00000000000000000 0.00000000000000000 1.00000000000000000 0.00000000000000000 
1 0.00000000000000000 -18.00000000000000000 1.00000000000000000 0.00000000000000000 
1 3.14159265358979312 0.00000000000000000 -1.00000000000000000 0.00000000000000000 
1 3.14159265358979312 -18.00000000000000000 -1.00000000000000000 0.00000000000000000 
2 -0.00000000000001316 -549.44557738923845136 -1.00000000000000000 0.00000000000000000 0.00000000000000000 1.00000000000000000 802.44557738923845136
1 0.00000000000000000 0.00000000000000000 1.00000000000000000 0.00000000000000000 
1 0.00000000000000000 -18.00000000000000000 1.00000000000000000 0.00000000000000000 
2 -255.70454913011639064 161.93962032611540280 -1.00000000000000000 0.00000000000000000 0.00000000000000000 1.00000000000000000 46.50000000000000000
1 -6.28318530717958623 0.00000000000000000 1.00000000000000000 0.00000000000000000 
1 -6.28318530717958623 -18.00000000000000000 1.00000000000000000 0.00000000000000000 
2 -0.00000000000001316 0.00000000000002677 -1.00000000000000000 0.00000000000000000 0.00000000000000000 1.00000000000000000 349.17021174407386752
1 0.00000000000000000 0.00000000000000000 1.00000000000000000 0.00000000000000000 
1 0.00000000000000000 -18.00000000000000000 1.00000000000000000 0.00000000000000000 
1 7.33038285837618364 0.00000000000000000 -1.00000000000000000 0.00000000000000000 
1 7.33038285837618364 -18.00000000000000000 -1.00000000000000000 0.00000000000000000 
2 0.00000000000007211 -0.00000000000000165 -0.50000000000000056 0.86602540378443837 -0.86602540378443837 -0.50000000000000056 349.17021174407392436
1 0.00000000000000000 0.00000000000000000 1.00000000000000000 0.00000000000000000 
1 0.00000000000000000 -18.00000000000000000 1.00000000000000000 0.00000000000000000 
2 -268.09609964668106841 140.47682524686908323 -0.50000000000000056 0.86602540378443837 -0.86602540378443837 -0.50000000000000056 46.50000000000002842
1 0.00000000000000000 0.00000000000000000 1.00000000000000000 0.00000000000000000 
1 0.00000000000000000 -18.00000000000000000 1.00000000000000000 0.00000000000000000 
2 475.83382801608934187 274.72278869461956674 -0.50000000000000056 0.86602540378443837 -0.86602540378443837 -0.50000000000000056 802.44557738923867873
1 0.00000000000000000 0.00000000000000000 1.00000000000000000 0.00000000000000000 
1 0.00000000000000000 -18.00000000000000000 1.00000000000000000 0.00000000000000000 
1 3.14159265358979312 0.00000000000000000 -1.00000000000000000 0.00000000000000000 
1 3.14159265358979312 -18.00000000000000000 -1.00000000000000000 0.00000000000000000 
2 475.83382801608934187 274.72278869461956674 0.50000000000000056 -0.86602540378443837 -0.86602540378443837 -0.50000000000000056 802.44557738923867873
1 0.00000000000000000 0.00000000000000000 1.00000000000000000 0.00000000000000000 
1 0.00000000000000000 -18.00000000000000000 1.00000000000000000 0.00000000000000000 
2 -12.39155051656429585 -302.41644557298468499 0.50000000000000056 -0.86602540378443837 -0.86602540378443837 -0.50000000000000056 46.49999999999999289
1 -6.28318530717958623 0.00000000000000000 1.00000000000000000 0.00000000000000000 
1 -6.28318530717958623 -18.00000000000000000 1.00000000000000000 0.00000000000000000 
2 0.00000000000007211 -0.00000000000000165 0.50000000000000056 -0.86602540378443837 -0.86602540378443837 -0.50000000000000056 349.17021174407392436
1 0.00000000000000000 0.00000000000000000 1.00000000000000000 0.00000000000000000 
1 0.00000000000000000 -18.00000000000000000 1.00000000000000000 0.00000000000000000 
1 7.33038285837618542 0.00000000000000000 -1.00000000000000000 0.00000000000000000 
1 7.33038285837618542 -18.00000000000000000 -1.00000000000000000 0.00000000000000000 
2 0.00000000000000816 0.00000000000012625 -0.50000000000000033 -0.86602540378443860 0.86602540378443860 -0.50000000000000033 349.17021174407392436
1 0.00000000000000000 0.00000000000000000 1.00000000000000000 0.00000000000000000 
1 0.00000000000000000 -18.00000000000000000 1.00000000000000000 0.00000000000000000 
2 12.39155051656448769 -302.41644557298451446 -0.50000000000000033 -0.86602540378443860 0.86602540378443860 -0.50000000000000033 46.50000000000002842
1 0.00000000000000000 0.00000000000000000 1.00000000000000000 0.00000000000000000 
1 0.00000000000000000 -18.00000000000000000 1.00000000000000000 0.00000000000000000 
2 -475.83382801608922819 274.72278869461950990 -0.50000000000000033 -0.86602540378443860 0.86602540378443860 -0.50000000000000033 802.44557738923867873
1 0.00000000000000000 0.00000000000000000 1.00000000000000000 0.00000000000000000 
1 0.00000000000000000 -18.00000000000000000 1.00000000000000000 0.00000000000000000 
1 3.14159265358979312 -0.00000000000000000 -1.00000000000000000 0.00000000000000000 
1 3.14159265358979312 -18.00000000000000000 -1.00000000000000000 0.00000000000000000 
2 -475.83382801608922819 274.72278869461950990 0.50000000000000033 0.86602540378443860 0.86602540378443860 -0.50000000000000033 802.44557738923845136
1 0.00000000000000000 0.00000000000000000 1.00000000000000000 0.00000000000000000 
1 0.00000000000000000 -18.00000000000000000 1.00000000000000000 0.00000000000000000 
2 268.09609964668106841 140.47682524686925376 0.50000000000000033 0.86602540378443860 0.86602540378443860 -0.50000000000000033 46.50000000000000000
1 0.00000000000000000 0.00000000000000000 1.00000000000000000 0.00000000000000000 
1 0.00000000000000000 -18.00000000000000000 1.00000000000000000 0.00000000000000000 
1 7.33038285837618453 0.00000000000000000 -1.00000000000000000 0.00000000000000000 
1 7.33038285837618453 -18.00000000000000000 -1.00000000000000000 0.00000000000000000 
2 0.00000000000000816 0.00000000000012625 0.50000000000000033 0.86602540378443860 0.86602540378443860 -0.50000000000000033 349.17021174407392436
1 6.84773629520138982 0.00000000000000000 0.00000000000000000 -1.00000000000000000 
1 0.56455098802180270 0.00000000000000000 0.00000000000000000 -1.00000000000000000 
1 1.22573129010829085 0.00000000000000000 0.00000000000000000 -1.00000000000000000 
1 7.50891659728787708 0.00000000000000000 0.00000000000000000 -1.00000000000000000 
1 1.91586136348150249 0.00000000000000000 0.00000000000000000 -1.00000000000000000 
1 6.84773629520138893 0.00000000000000000 0.00000000000000000 -1.00000000000000000 
1 6.84773629520138893 0.00000000000000000 0.00000000000000000 -1.00000000000000000 
1 0.48264656317479476 0.00000000000000000 0.00000000000000000 -1.00000000000000000 
1 7.50891659728787708 0.00000000000000000 0.00000000000000000 -1.00000000000000000 
1 1.22573129010829085 0.00000000000000000 0.00000000000000000 -1.00000000000000000 
1 6.84773629520138893 0.00000000000000000 0.00000000000000000 -1.00000000000000000 
1 0.56455098802180270 0.00000000000000000 0.00000000000000000 -1.00000000000000000 
1 1.22573129010829063 0.00000000000000000 0.00000000000000000 -1.00000000000000000 
1 7.50891659728787708 0.00000000000000000 0.00000000000000000 -1.00000000000000000 
1 1.91586136348150271 0.00000000000000000 0.00000000000000000 -1.00000000000000000 
1 6.84773629520138893 0.00000000000000000 0.00000000000000000 -1.00000000000000000 
1 6.84773629520138893 0.00000000000000000 0.00000000000000000 -1.00000000000000000 
1 0.48264656317479626 0.00000000000000000 0.00000000000000000 -1.00000000000000000 
1 7.50891659728787708 0.00000000000000000 0.00000000000000000 -1.00000000000000000 
1 1.22573129010829085 0.00000000000000000 0.00000000000000000 -1.00000000000000000 
1 6.84773629520138893 0.00000000000000000 0.00000000000000000 -1.00000000000000000 
1 6.84773629520138893 0.00000000000000000 0.00000000000000000 -1.00000000000000000 
1 0.48264656317479498 0.00000000000000000 0.00000000000000000 -1.00000000000000000 
1 1.22573129010829085 0.00000000000000000 0.00000000000000000 -1.00000000000000000 
1 7.50891659728787708 0.00000000000000000 0.00000000000000000 -1.00000000000000000 
1 1.91586136348150249 0.00000000000000000 0.00000000000000000 -1.00000000000000000 
Curves 30
1 294.98909406777409004 186.81881904796244953 0.00000000000000000 0.00000000000000000 0.00000000000000000 1.00000000000000000 
1 271.43354059483937135 205.69860600337565870 0.00000000000000000 0.00000000000000000 0.00000000000000000 1.00000000000000000 
2 255.70454913011639064 161.93962032611537438 0.00000000000000000 0.00000000000000000 -0.00000000000000000 1.00000000000000000 1.00000000000000000 0.00000000000000000 0.00000000000000000 -0.00000000000000000 1.00000000000000000 0.00000000000000000 46.50000000000000000
2 0.00000000000000000 0.00000000000000000 0.00000000000000000 0.00000000000000000 -0.00000000000000000 1.00000000000000000 1.00000000000000000 0.00000000000000000 0.00000000000000000 -0.00000000000000000 1.00000000000000000 0.00000000000000000 349.17021174407386752
2 0.00000000000000000 -549.44557738923845136 0.00000000000000000 0.00000000000000000 -0.00000000000000000 1.00000000000000000 1.00000000000000000 0.00000000000000000 0.00000000000000000 -0.00000000000000000 1.00000000000000000 0.00000000000000000 802.44557738923845136
2 0.00000000000000000 -549.44557738923845136 0.00000000000000000 0.00000000000000000 0.00000000000000000 -1.00000000000000000 -1.00000000000000000 0.00000000000000000 0.00000000000000000 0.00000000000000000 1.00000000000000000 0.00000000000000000 802.44557738923845136
2 -255.70454913011639064 161.93962032611537438 0.00000000000000000 0.00000000000000000 0.00000000000000000 -1.00000000000000000 -1.00000000000000000 0.00000000000000000 0.00000000000000000 0.00000000000000000 1.00000000000000000 0.00000000000000000 46.50000000000000000
2 0.00000000000000000 0.00000000000000000 0.00000000000000000 0.00000000000000000 0.00000000000000000 -1.00000000000000000 -1.00000000000000000 0.00000000000000000 0.00000000000000000 0.00000000000000000 1.00000000000000000 0.00000000000000000 349.17021174407386752
2 0.00000000000008527 -0.00000000000002842 0.00000000000000000 0.00000000000000000 0.00000000000000000 1.00000000000000000 -0.50000000000000056 0.86602540378443837 0.00000000000000000 -0.86602540378443837 -0.50000000000000056 0.00000000000000000 349.17021174407392436
2 -268.09609964668106841 140.47682524686905481 0.00000000000000000 0.00000000000000000 0.00000000000000000 1.00000000000000000 -0.50000000000000056 0.86602540378443837 0.00000000000000000 -0.86602540378443837 -0.50000000000000056 0.00000000000000000 46.50000000000002132
2 475.83382801608934187 274.72278869461956674 0.00000000000000000 0.00000000000000000 0.00000000000000000 1.00000000000000000 -0.50000000000000056 0.86602540378443837 0.00000000000000000 -0.86602540378443837 -0.50000000000000056 0.00000000000000000 802.44557738923867873
2 475.83382801608934187 274.72278869461956674 0.00000000000000000 -0.00000000000000000 0.00000000000000000 -1.00000000000000000 0.50000000000000056 -0.86602540378443837 -0.00000000000000000 -0.86602540378443837 -0.50000000000000056 0.00000000000000000 802.44557738923867873
2 -12.39155051656428341 -302.41644557298468499 0.00000000000000000 -0.00000000000000000 0.00000000000000000 -1.00000000000000000 0.50000000000000056 -0.86602540378443837 -0.00000000000000000 -0.86602540378443837 -0.50000000000000056 0.00000000000000000 46.50000000000000711
2 0.00000000000008527 -0.00000000000002842 0.00000000000000000 -0.00000000000000000 0.00000000000000000 -1.00000000000000000 0.50000000000000056 -0.86602540378443837 -0.00000000000000000 -0.86602540378443837 -0.50000000000000056 0.00000000000000000 349.17021174407392436
2 0.00000000000002132 0.00000000000009948 0.00000000000000000 0.00000000000000000 0.00000000000000000 1.00000000000000000 -0.50000000000000033 -0.86602540378443860 0.00000000000000000 0.86602540378443860 -0.50000000000000033 0.00000000000000000 349.17021174407386752
2 12.39155051656450013 -302.41644557298451446 0.00000000000000000 0.00000000000000000 0.00000000000000000 1.00000000000000000 -0.50000000000000033 -0.86602540378443860 0.00000000000000000 0.86602540378443860 -0.50000000000000033 0.00000000000000000 46.50000000000000000
2 -475.83382801608922819 274.72278869461950990 0.00000000000000000 0.00000000000000000 0.00000000000000000 1.00000000000000000 -0.50000000000000033 -0.86602540378443860 0.00000000000000000 0.86602540378443860 -0.50000000000000033 0.00000000000000000 802.44557738923856505
2 -475.83382801608922819 274.72278869461950990 0.00000000000000000 0.00000000000000000 0.00000000000000000 -1.00000000000000000 0.50000000000000033 0.86602540378443860 0.00000000000000000 0.86602540378443860 -0.50000000000000033 0.00000000000000000 802.44557738923845136
2 268.09609964668106841 140.47682524686922534 0.00000000000000000 0.00000000000000000 0.00000000000000000 -1.00000000000000000 0.50000000000000033 0.86602540378443860 0.00000000000000000 0.86602540378443860 -0.50000000000000033 0.00000000000000000 46.49999999999999289
2 0.00000000000002132 0.00000000000009948 0.00000000000000000 0.00000000000000000 0.00000000000000000 -1.00000000000000000 0.50000000000000033 0.86602540378443860 0.00000000000000000 0.86602540378443860 -0.50000000000000033 0.00000000000000000 349.17021174407386752
1 -294.98909406777397635 186.81881904796253480 0.00000000000000000 0.00000000000000000 0.00000000000000000 1.00000000000000000 
1 -271.43354059483942819 205.69860600337551659 0.00000000000000000 0.00000000000000000 0.00000000000000000 1.00000000000000000 
1 -309.28439023443070255 162.05863977806836829 0.00000000000000000 0.00000000000000000 0.00000000000000000 1.00000000000000000 
1 -313.85698861938936943 132.21903859259759884 0.00000000000000000 0.00000000000000000 0.00000000000000000 1.00000000000000000 
1 -14.29529616665639580 -348.87745882603110203 0.00000000000000000 0.00000000000000000 0.00000000000000000 1.00000000000000000 
1 -42.42344802454931596 -337.91764459597379755 0.00000000000000000 0.00000000000000000 0.00000000000000000 1.00000000000000000 
1 14.29529616665654856 -348.87745882603098835 0.00000000000000000 0.00000000000000000 0.00000000000000000 1.00000000000000000 
1 42.42344802454981334 -337.91764459597339965 0.00000000000000000 0.00000000000000000 0.00000000000000000 1.00000000000000000 
1 309.28439023443081624 162.05863977806851040 0.00000000000000000 0.00000000000000000 0.00000000000000000 1.00000000000000000 
1 313.85698861938919890 132.21903859259791147 0.00000000000000000 0.00000000000000000 0.00000000000000000 1.00000000000000000 
Polygon3D 0
PolygonOnTriangulations 0
Surfaces 19
2 255.70454913011639064 161.93962032611537438 0.00000000000000000 -0.00000000000000000 -0.00000000000000000 -1.00000000000000000 1.00000000000000000 0.00000000000000000 0.00000000000000000 -0.00000000000000000 1.00000000000000000 -0.00000000000000000 46.50000000000000000
2 0.00000000000000000 0.00000000000000000 0.00000000000000000 -0.00000000000000000 -0.00000000000000000 -1.00000000000000000 1.00000000000000000 0.00000000000000000 0.00000000000000000 -0.00000000000000000 1.00000000000000000 -0.00000000000000000 349.17021174407386752
2 0.00000000000000000 -549.44557738923845136 0.00000000000000000 -0.00000000000000000 -0.00000000000000000 -1.00000000000000000 1.00000000000000000 0.00000000000000000 0.00000000000000000 -0.00000000000000000 1.00000000000000000 -0.00000000000000000 802.44557738923845136
1 0.00000000000001316 -0.00000000000002677 0.00000000000000000 0.00000000000000000 0.00000000000000000 1.00000000000000000 1.00000000000000000 0.00000000000000000 -0.00000000000000000 -0.00000000000000000 1.00000000000000000 0.00000000000000000 
2 0.00000000000000000 -549.44557738923845136 0.00000000000000000 0.00000000000000000 0.00000000000000000 -1.00000000000000000 -1.00000000000000000 0.00000000000000000 0.00000000000000000 0.00000000000000000 1.00000000000000000 0.00000000000000000 802.44557738923845136
2 -255.70454913011639064 161.93962032611537438 0.00000000000000000 0.00000000000000000 0.00000000000000000 -1.00000000000000000 -1.00000000000000000 0.00000000000000000 0.00000000000000000 0.00000000000000000 1.00000000000000000 0.00000000000000000 46.50000000000000000
2 0.00000000000000000 0.00000000000000000 0.00000000000000000 0.00000000000000000 0.00000000000000000 -1.00000000000000000 -1.00000000000000000 0.00000000000000000 0.00000000000000000 0.00000000000000000 1.00000000000000000 0.00000000000000000 349.17021174407386752
2 0.00000000000008527 -0.00000000000002842 0.00000000000000000 -0.00000000000000000 -0.00000000000000000 -1.00000000000000000 -0.50000000000000056 0.86602540378443837 0.00000000000000000 -0.86602540378443837 -0.50000000000000056 0.00000000000000000 349.17021174407392436
2 -268.09609964668106841 140.47682524686905481 0.00000000000000000 -0.00000000000000000 -0.00000000000000000 -1.00000000000000000 -0.50000000000000056 0.86602540378443837 0.00000000000000000 -0.86602540378443837 -0.50000000000000056 0.00000000000000000 46.50000000000002132
2 475.83382801608934187 274.72278869461956674 0.00000000000000000 -0.00000000000000000 -0.00000000000000000 -1.00000000000000000 -0.50000000000000056 0.86602540378443837 0.00000000000000000 -0.86602540378443837 -0.50000000000000056 0.00000000000000000 802.44557738923867873
2 475.83382801608934187 274.72278869461956674 0.00000000000000000 0.00000000000000000 -0.00000000000000000 -1.00000000000000000 0.50000000000000056 -0.86602540378443837 0.00000000000000000 -0.86602540378443837 -0.50000000000000056 0.00000000000000000 802.44557738923867873
2 -12.39155051656428341 -302.41644557298468499 0.00000000000000000 0.00000000000000000 -0.00000000000000000 -1.00000000000000000 0.50000000000000056 -0.86602540378443837 0.00000000000000000 -0.86602540378443837 -0.50000000000000056 0.00000000000000000 46.50000000000000711
2 0.00000000000008527 -0.00000000000002842 0.00000000000000000 0.00000000000000000 -0.00000000000000000 -1.00000000000000000 0.50000000000000056 -0.86602540378443837 0.00000000000000000 -0.86602540378443837 -0.50000000000000056 0.00000000000000000 349.17021174407392436
2 0.00000000000002132 0.00000000000009948 0.00000000000000000 -0.00000000000000000 -0.00000000000000000 -1.00000000000000000 -0.50000000000000033 -0.86602540378443860 0.00000000000000000 0.86602540378443860 -0.50000000000000033 -0.00000000000000000 349.17021174407386752
2 12.39155051656450013 -302.41644557298451446 0.00000000000000000 -0.00000000000000000 -0.00000000000000000 -1.00000000000000000 -0.50000000000000033 -0.86602540378443860 0.00000000000000000 0.86602540378443860 -0.50000000000000033 -0.00000000000000000 46.50000000000000000
2 -475.83382801608922819 274.72278869461950990 0.00000000000000000 -0.00000000000000000 -0.00000000000000000 -1.00000000000000000 -0.50000000000000033 -0.86602540378443860 0.00000000000000000 0.86602540378443860 -0.50000000000000033 -0.00000000000000000 802.44557738923856505
2 -475.83382801608922819 274.72278869461950990 0.00000000000000000 0.00000000000000000 0.00000000000000000 -1.00000000000000000 0.50000000000000033 0.86602540378443860 0.00000000000000000 0.86602540378443860 -0.50000000000000033 0.00000000000000000 802.44557738923845136
2 268.09609964668106841 140.47682524686922534 0.00000000000000000 0.00000000000000000 0.00000000000000000 -1.00000000000000000 0.50000000000000033 0.86602540378443860 0.00000000000000000 0.86602540378443860 -0.50000000000000033 0.00000000000000000 46.49999999999999289
2 0.00000000000002132 0.00000000000009948 0.00000000000000000 0.00000000000000000 0.00000000000000000 -1.00000000000000000 0.50000000000000033 0.86602540378443860 0.00000000000000000 0.86602540378443860 -0.50000000000000033 0.00000000000000000 349.17021174407386752
Triangulations 0

TShapes 76
Ve
0.000000100000000
294.989094067774090 186.818819047962450 0.000000000000000
0 0

0101101
*
Ed
 0.000000100000000 1 1 0
1  1 0 0.000000000000000 18.000000000000000
2  1 1 0 0.000000000000000 18.000000000000000
4 G1 2 0 1 0
2  2 2 0 0.000000000000000 18.000000000000000
0

0101000
+76 4 -76 6 *
Ve
0.000000100000000
271.433540594839371 205.698606003375659 0.000000000000000
0 0

0101101
*
Ed
 0.000000100000000 1 1 0
1  2 0 0.000000000000000 18.000000000000000
2  3 1 0 0.000000000000000 18.000000000000000
2  4 3 0 0.000000000000000 18.000000000000000
4 G1 1 0 3 0
0

0101000
+74 4 -74 6 *
Ed
 0.000000100000000 1 1 0
1  3 0 6.847736295201390 7.508916597287877
2  5 1 7 6.847736295201390 7.508916597287877
2  6 1 8 6.847736295201390 7.508916597287877
2  7 4 0 6.847736295201390 7.508916597287877
0

0101000
+76 0 -74 0 *
Wi

0101100
+75 0 -73 0 -72 4 +72 6 *
Fa
0  0.000000100000000 1 0

0111000
+71 0 *
Ve
0.000000100000000
302.390273615159629 174.585105872036678 0.000000000000000
0 0

0101101
*
Ed
 0.000000100000000 1 1 0
1  4 0 6.806784082777884 6.847736295201389
2  8 2 8 6.806784082777884 6.847736295201389
2  9 2 7 6.806784082777884 6.847736295201389
2  10 4 0 6.806784082777884 6.847736295201389
0

0101000
+69 0 -76 0 *
Ve
0.000000100000000
0.000000000000049 253.000000000000000 0.000000000000000
0 0

0101101
*
Ed
 0.000000100000000 1 1 0
1  5 0 1.225731290108291 1.570796326794897
2  11 3 7 1.225731290108291 1.570796326794897
2  12 3 8 1.225731290108291 1.570796326794897
2  13 4 0 1.225731290108291 1.570796326794897
0

0101000
+74 0 -67 0 *
Ve
0.000000100000000
-271.433540594839428 205.698606003375517 0.000000000000000
0 0

0101101
*
Ed
 0.000000100000000 1 1 0
1  6 0 1.225731290108291 1.570796326794897
2  14 5 7 1.225731290108291 1.570796326794897
2  15 5 8 1.225731290108291 1.570796326794897
2  16 3 7 1.225731290108291 1.570796326794897
2  17 3 8 1.225731290108291 1.570796326794897
2  18 4 0 1.225731290108291 1.570796326794897
0

0101000
+65 0 -67 0 *
Ve
0.000000100000000
-294.989094067773976 186.818819047962535 0.000000000000000
0 0

0101101
*
Ed
 0.000000100000000 1 1 0
1  7 0 6.847736295201390 7.508916597287877
2  19 6 7 6.847736295201390 7.508916597287877
2  20 6 8 6.847736295201390 7.508916597287877
2  21 4 0 6.847736295201390 7.508916597287877
0

0101000
+63 0 -65 0 *
Ve
0.000000100000000
-302.390273615159515 174.585105872036934 0.000000000000000
0 0

0101101
*
Ed
 0.000000100000000 1 1 0
1  8 0 6.806784082777885 6.847736295201389
2  22 7 7 6.806784082777885 6.847736295201389
2  23 7 8 6.806784082777885 6.847736295201389
2  24 4 0 6.806784082777885 6.847736295201389
0

0101000
+61 0 -63 0 *
Ve
0.000000100000000
-309.284390234430703 162.058639778068368 0.000000000000000
0 0

0101101
*
Ed
 0.000000100000000 1 1 0
1  9 0 6.806784082777884 6.847736295201389
2  25 8 7 6.806784082777884 6.847736295201389
2  26 8 8 6.806784082777884 6.847736295201389
2  27 7 7 6.806784082777884 6.847736295201389
2  28 7 8 6.806784082777884 6.847736295201389
2  29 4 0 6.806784082777884 6.847736295201389
0

0101000
+61 0 -59 0 *
Ve
0.000000100000000
-313.856988619389369 132.219038592597599 0.000000000000000
0 0

0101101
*
Ed
 0.000000100000000 1 1 0
1  10 0 6.847736295201389 7.508916597287877
2  30 9 7 6.847736295201389 7.508916597287877
2  31 9 8 6.847736295201389 7.508916597287877
2  32 4 0 6.847736295201389 7.508916597287877
0

0101000
+59 0 -57 0 *
Ve
0.000000100000000
-219.104427157462851 -126.500000000000171 0.000000000000000
0 0

0101101
*
Ed
 0.000000100000000 1 1 0
1  11 0 1.225731290108291 1.570796326794897
2  33 10 7 1.225731290108291 1.570796326794897
2  34 10 8 1.225731290108291 1.570796326794897
2  35 4 0 1.225731290108291 1.570796326794897
0

0101000
+57 0 -55 0 *
Ve
0.000000100000000
-42.423448024549316 -337.917644595973798 0.000000000000000
0 0

0101101
*
Ed
 0.000000100000000 1 1 0
1  12 0 1.225731290108291 1.570796326794897
2  36 11 7 1.225731290108291 1.570796326794897
2  37 11 8 1.225731290108291 1.570796326794897
2  38 10 7 1.225731290108291 1.570796326794897
2  39 10 8 1.225731290108291 1.570796326794897
2  40 4 0 1.225731290108291 1.570796326794897
0

0101000
+53 0 -55 0 *
Ve
0.000000100000000
-14.295296166656396 -348.877458826031102 0.000000000000000
0 0

0101101
*
Ed
 0.000000100000000 1 1 0
1  13 0 6.847736295201389 7.508916597287877
2  41 12 7 6.847736295201389 7.508916597287877
2  42 12 8 6.847736295201389 7.508916597287877
2  43 4 0 6.847736295201389 7.508916597287877
0

0101000
+51 0 -53 0 *
Ve
0.000000100000000
-0.000000000000028 -349.170211744073981 0.000000000000000
0 0

0101101
*
Ed
 0.000000100000000 1 1 0
1  14 0 6.806784082777886 6.847736295201389
2  44 13 7 6.806784082777886 6.847736295201389
2  45 13 8 6.806784082777886 6.847736295201389
2  46 4 0 6.806784082777886 6.847736295201389
0

0101000
+49 0 -51 0 *
Ve
0.000000100000000
14.295296166656549 -348.877458826030988 0.000000000000000
0 0

0101101
*
Ed
 0.000000100000000 1 1 0
1  15 0 6.806784082777885 6.847736295201389
2  47 14 7 6.806784082777885 6.847736295201389
2  48 14 8 6.806784082777885 6.847736295201389
2  49 13 7 6.806784082777885 6.847736295201389
2  50 13 8 6.806784082777885 6.847736295201389
2  51 4 0 6.806784082777885 6.847736295201389
0

0101000
+49 0 -47 0 *
Ve
0.000000100000000
42.423448024549813 -337.917644595973400 0.000000000000000
0 0

0101101
*
Ed
 0.000000100000000 1 1 0
1  16 0 6.847736295201389 7.508916597287877
2  52 15 7 6.847736295201389 7.508916597287877
2  53 15 8 6.847736295201389 7.508916597287877
2  54 4 0 6.847736295201389 7.508916597287877
0

0101000
+47 0 -45 0 *
Ve
0.000000100000000
219.104427157463078 -126.500000000000114 0.000000000000000
0 0

0101101
*
Ed
 0.000000100000000 1 1 0
1  17 0 1.225731290108291 1.570796326794897
2  55 16 7 1.225731290108291 1.570796326794897
2  56 16 8 1.225731290108291 1.570796326794897
2  57 4 0 1.225731290108291 1.570796326794897
0

0101000
+45 0 -43 0 *
Ve
0.000000100000000
313.856988619389199 132.219038592597911 0.000000000000000
0 0

0101101
*
Ed
 0.000000100000000 1 1 0
1  18 0 1.225731290108291 1.570796326794897
2  58 17 7 1.225731290108291 1.570796326794897
2  59 17 8 1.225731290108291 1.570796326794897
2  60 16 7 1.225731290108291 1.570796326794897
2  61 16 8 1.225731290108291 1.570796326794897
2  62 4 0 1.225731290108291 1.570796326794897
0

0101000
+41 0 -43 0 *
Ve
0.000000100000000
309.284390234430816 162.058639778068510 0.000000000000000
0 0

0101101
*
Ed
 0.000000100000000 1 1 0
1  19 0 6.847736295201389 7.508916597287877
2  63 18 7 6.847736295201389 7.508916597287877
2  64 18 8 6.847736295201389 7.508916597287877
2  65 4 0 6.847736295201389 7.508916597287877
0

0101000
+39 0 -41 0 *
Ed
 0.000000100000000 1 1 0
1  20 0 6.806784082777885 6.847736295201389
2  66 19 7 6.806784082777885 6.847736295201389
2  67 19 8 6.806784082777885 6.847736295201389
2  68 2 7 6.806784082777885 6.847736295201389
2  69 2 8 6.806784082777885 6.847736295201389
2  70 4 0 6.806784082777885 6.847736295201389
0

0101000
+69 0 -39 0 *
Wi

0101100
+68 0 +72 0 +66 0 -64 0 -62 0 -60 0 +58 0 +56 0 +54 0 -52 0 
-50 0 -48 0 +46 0 +44 0 +42 0 -40 0 -38 0 -37 0 *
Fa
0  0.000000100000000 4 0

0111000
+36 0 *
Ed
 0.000000100000000 1 1 0
1  21 0 0.000000000000000 18.000000000000000
2  71 6 0 0.000000000000000 18.000000000000000
4 G1 6 0 7 0
2  72 7 0 0.000000000000000 18.000000000000000
0

0101000
+63 4 -63 6 *
Ed
 0.000000100000000 1 1 0
1  22 0 0.000000000000000 18.000000000000000
2  73 5 0 0.000000000000000 18.000000000000000
2  74 6 0 0.000000000000000 18.000000000000000
4 G1 5 0 6 0
2  75 3 0 0.000000000000000 18.000000000000000
0

0101000
+65 4 -65 6 *
Wi

0101100
+34 0 -33 0 -62 4 +62 6 *
Fa
0  0.000000100000000 6 0

0111000
+32 0 *
Ed
 0.000000100000000 1 1 0
1  23 0 0.000000000000000 18.000000000000000
2  76 8 0 0.000000000000000 18.000000000000000
2  77 9 0 0.000000000000000 18.000000000000000
4 G1 8 0 9 0
2  78 7 0 0.000000000000000 18.000000000000000
0

0101000
+59 4 -59 6 *
Ed
 0.000000100000000 1 1 0
1  24 0 0.000000000000000 18.000000000000000
2  79 9 0 0.000000000000000 18.000000000000000
2  80 10 0 0.000000000000000 18.000000000000000
4 G1 9 0 10 0
0

0101000
+57 4 -57 6 *
Wi

0101100
+30 0 -29 0 -56 4 +56 6 *
Fa
0  0.000000100000000 9 0

0111000
+28 0 *
Ed
 0.000000100000000 1 1 0
1  25 0 0.000000000000000 18.000000000000000
2  81 12 0 0.000000000000000 18.000000000000000
4 G1 12 0 13 0
2  82 13 0 0.000000000000000 18.000000000000000
0

0101000
+51 4 -51 6 *
Ed
 0.000000100000000 1 1 0
1  26 0 0.000000000000000 18.000000000000000
2  83 11 0 0.000000000000000 18.000000000000000
2  84 12 0 0.000000000000000 18.000000000000000
4 G1 11 0 12 0
2  85 10 0 0.000000000000000 18.000000000000000
0

0101000
+53 4 -53 6 *
Wi

0101100
+26 0 -25 0 -50 4 +50 6 *
Fa
0  0.000000100000000 12 0

0111000
+24 0 *
Ed
 0.000000100000000 1 1 0
1  27 0 0.000000000000000 18.000000000000000
2  86 14 0 0.000000000000000 18.000000000000000
2  87 15 0 0.000000000000000 18.000000000000000
4 G1 14 0 15 0
2  88 13 0 0.000000000000000 18.000000000000000
0

0101000
+47 4 -47 6 *
Ed
 0.000000100000000 1 1 0
1  28 0 0.000000000000000 18.000000000000000
2  89 15 0 0.000000000000000 18.000000000000000
2  90 16 0 0.000000000000000 18.000000000000000
4 G1 15 0 16 0
0

0101000
+45 4 -45 6 *
Wi

0101100
+22 0 -21 0 -44 4 +44 6 *
Fa
0  0.000000100000000 15 0

0111000
+20 0 *
Ed
 0.000000100000000 1 1 0
1  29 0 0.000000000000000 18.000000000000000
2  91 18 0 0.000000000000000 18.000000000000000
2  92 19 0 0.000000000000000 18.000000000000000
4 G1 18 0 19 0
2  93 2 0 0.000000000000000 18.000000000000000
0

0101000
+39 4 -39 6 *
Ed
 0.000000100000000 1 1 0
1  30 0 0.000000000000000 18.000000000000000
2  94 17 0 0.000000000000000 18.000000000000000
2  95 18 0 0.000000000000000 18.000000000000000
4 G1 17 0 18 0
2  96 16 0 0.000000000000000 18.000000000000000
0

0101000
+41 4 -41 6 *
Wi

0101100
+18 0 -17 0 -38 4 +38 6 *
Fa
0  0.000000100000000 18 0

0111000
+16 0 *
Wi

0101100
+68 6 -75 0 -68 4 +37 4 +18 0 -37 6 *
Fa
0  0.000000100000000 2 0

0111000
+14 0 *
Wi

0101100
-58 6 +60 6 -34 0 -60 4 +58 4 +30 0 *
Fa
0  0.000000100000000 7 0

0111000
+12 0 *
Wi

0101100
-46 6 +48 6 -26 0 -48 4 +46 4 +22 0 *
Fa
0  0.000000100000000 13 0

0111000
+10 0 *
Wi

0101100
-33 0 +64 4 -66 4 +73 0 +66 6 -64 6 *
Fa
0  0.000000100000000 3 0

0111000
+8 0 *
Wi

0101100
-25 0 +52 4 -54 4 +29 0 +54 6 -52 6 *
Fa
0  0.000000100000000 10 0

0111000
+6 0 *
Wi

0101100
-17 0 +40 4 -42 4 +21 0 +42 6 -40 6 *
Fa
0  0.000000100000000 16 0

0111000
+4 0 *
Sh

0101100
-70 0 -35 4 +31 0 -27 0 +23 0 -19 0 +15 0 +35 6 -13 0 +11 0 
+9 0 -7 0 -5 0 -3 0 *
So

1100000
+2 0 *

+1 0 