
CASCADE Topology V1, (c) Matra-Datavision
Locations 15
1
1.000000000000000 0.000000000000000 0.000000000000000 0.000000000000000 
0.000000000000000 1.000000000000000 0.000000000000000 0.000000000000000 
0.000000000000000 0.000000000000000 1.000000000000000 0.000000000000000 
1
0.925213443171384 0.000000000000000 -0.379447077436305 283.190307037511445 
-0.379447077436305 0.000000000000000 -0.925213443171384 180.243157806499113 
-0.000000000000000 1.000000000000000 0.000000000000000 0.000000000000000 
1
1.000000000000000 0.000000000000000 0.000000000000000 0.000000000000000 
0.000000000000000 1.000000000000000 0.000000000000000 0.000000000000000 
0.000000000000000 0.000000000000000 1.000000000000000 0.000000000000000 
2  1 1 2 1 3 -1 0
1
1.000000000000000 0.000000000000000 0.000000000000000 0.569170616154457 
0.000000000000000 1.000000000000000 0.000000000000000 1.387820164757076 
0.000000000000000 0.000000000000000 1.000000000000000 -0.000000000000001 
2  1 1 2 1 3 -1 5 1 0
2  2 -1 1 -1 0
2  3 1 2 -1 1 -1 0
2  5 -1 3 1 2 -1 1 -1 0
1
1.000000000000000 0.000000000000000 0.000000000000000 0.000000000000000 
0.000000000000000 1.000000000000000 0.000000000000000 0.000000000000000 
0.000000000000000 0.000000000000000 1.000000000000000 0.000000000000000 
2  10 1 2 -1 1 -1 0
2  10 1 3 -1 5 -1 3 1 2 -1 1 -1 0
2  3 -1 0
2  1 1 2 1 0
2  3 -1 5 1 0
Curve2ds 122
1 6.28318530717958357 0.00000000000000000 0.00000000000000000 -1.00000000000000000 
1 0.00000000000000000 0.00000000000000000 0.00000000000000000 -1.00000000000000000 
1 5.73731133161653784 -157.49999999999789679 0.00000000000000003 -1.00000000000000000 
1 1.57079632679489678 0.00000000000000000 0.00000000000000000 -1.00000000000000000 
1 0.00000000000000000 0.00000000000000000 0.00000000000000006 -1.00000000000000000 
1 0.00000000000000000 0.00000000000000000 1.00000000000000000 0.00000000000000000 
1 0.00000000000000000 -1.50000000000000044 1.00000000000000000 0.00000000000000000 
2 0.73731133161656071 -197.49999999999795364 1.00000000000000000 0.00000000000000003 0.00000000000000003 -1.00000000000000000 4.99999999999996625
1 5.99999999999999556 -0.00000000000001021 0.00000000000000006 -1.00000000000000000 
1 -0.00000000000000000 0.00000000000000000 0.00000000000000008 -1.00000000000000000 
1 0.00000000000000000 0.00000000000000000 1.00000000000000000 0.00000000000000000 
1 0.00000000000000400 -1.49999999999999623 1.00000000000000000 0.00000000000000000 
1 0.73731133161656071 -202.49999999999795364 -1.00000000000000000 -0.00000000000000003 
1 50.00000000000005684 0.00000000000003350 0.00000000000000008 -1.00000000000000000 
1 0.00000000000000000 0.00000000000000000 -0.00000000000000006 -1.00000000000000000 
1 -0.00000000000000000 0.00000000000000000 1.00000000000000000 0.00000000000000000 
1 -0.00000000000000057 -1.49999999999999623 1.00000000000000000 0.00000000000000000 
1 -5.26268866838343463 -202.49999999999795364 -0.00000000000000003 1.00000000000000000 
1 29.00000000000115818 -415.00000000000011369 -0.00000000000000003 1.00000000000000000 
1 29.00000000000115818 -415.00000000000011369 -0.00000000000000003 1.00000000000000000 
1 4.71238898038468967 0.00000000000000000 0.00000000000000000 -1.00000000000000000 
1 6.00000000000004796 -0.00000000000001110 -0.00000000000000006 -1.00000000000000000 
1 0.00000000000000000 0.00000000000000000 1.00000000000000000 -0.00000000000000000 
1 -0.00000000000000400 -1.49999999999999623 1.00000000000000000 -0.00000000000000000 
1 -5.26268866838348792 -152.49999999999789679 1.00000000000000000 0.00000000000000003 
1 0.00000000000000000 0.00000000000000000 1.00000000000000000 0.00000000000000000 
1 0.00000000000000000 -1.50000000000000044 1.00000000000000000 0.00000000000000000 
2 0.73731133161656071 -157.49999999999789679 1.00000000000000000 0.00000000000000003 0.00000000000000003 -1.00000000000000000 4.99999999999997691
1 0.00000000000000000 0.00000000000000000 0.00000000000000000 -1.00000000000000000 
1 6.28318530717958623 0.00000000000000000 0.00000000000000000 -1.00000000000000000 
1 0.00000000000000000 0.00000000000000000 1.00000000000000000 0.00000000000000000 
1 0.00000000000000000 -1.50000000000000044 1.00000000000000000 0.00000000000000000 
2 0.23731133161655682 -177.49999999999795364 1.00000000000000000 0.00000000000000003 0.00000000000000003 -1.00000000000000000 1.70000000000001772
1 6.28318530717958623 0.00000000000000000 0.00000000000000000 -1.00000000000000000 
1 0.00000000000000250 0.00000000000000000 0.00000000000000000 -1.00000000000000000 
1 5.73731133161651741 79.16666666666804986 0.00000000000000003 -1.00000000000000000 
1 1.57079632679489678 0.00000000000000000 0.00000000000000000 -1.00000000000000000 
1 0.00000000000000000 0.00000000000000000 0.00000000000000006 -1.00000000000000000 
1 0.00000000000000000 0.00000000000000000 1.00000000000000000 0.00000000000000000 
1 0.00000000000000000 -1.50000000000000044 1.00000000000000000 0.00000000000000000 
2 0.73731133161654050 39.16666666666804986 1.00000000000000000 0.00000000000000003 0.00000000000000003 -1.00000000000000000 4.99999999999996625
1 5.99999999999999556 -0.00000000000001021 0.00000000000000006 -1.00000000000000000 
1 -0.00000000000000000 0.00000000000000000 0.00000000000000008 -1.00000000000000000 
1 0.00000000000000000 0.00000000000000000 1.00000000000000000 0.00000000000000000 
1 0.00000000000000400 -1.49999999999999623 1.00000000000000000 0.00000000000000000 
1 0.73731133161652973 34.16666666666804986 -1.00000000000000000 -0.00000000000000003 
1 50.00000000000000000 0.00000000000000720 0.00000000000000008 -1.00000000000000000 
1 0.00000000000000000 0.00000000000000000 -0.00000000000000006 -1.00000000000000000 
1 -0.00000000000000000 0.00000000000000000 1.00000000000000000 0.00000000000000000 
1 -0.00000000000000057 -1.49999999999999623 1.00000000000000000 0.00000000000000000 
1 -5.26268866838345595 34.16666666666804986 -0.00000000000000003 1.00000000000000000 
1 29.00000000000115818 -178.33333333333411019 -0.00000000000000003 1.00000000000000000 
1 29.00000000000115818 -178.33333333333411019 -0.00000000000000003 1.00000000000000000 
1 4.71238898038468967 0.00000000000000000 0.00000000000000000 -1.00000000000000000 
1 5.99999999999999556 0.00000000000001021 -0.00000000000000006 -1.00000000000000000 
1 0.00000000000000000 0.00000000000000000 1.00000000000000000 -0.00000000000000000 
1 -0.00000000000000400 -1.49999999999999623 1.00000000000000000 -0.00000000000000000 
1 -5.26268866838344529 84.16666666666804986 1.00000000000000000 0.00000000000000003 
1 0.00000000000000000 0.00000000000000000 1.00000000000000000 0.00000000000000000 
1 0.00000000000000000 -1.50000000000000044 1.00000000000000000 0.00000000000000000 
2 0.73731133161654050 79.16666666666804986 1.00000000000000000 0.00000000000000003 0.00000000000000003 -1.00000000000000000 4.99999999999997691
1 6.28318530717958446 0.00000000000000000 0.00000000000000000 -1.00000000000000000 
1 0.00000000000000040 0.00000000000000000 0.00000000000000000 -1.00000000000000000 
1 5.73731133161655915 -39.16666666666495189 0.00000000000000003 -1.00000000000000000 
1 1.57079632679489678 0.00000000000000000 0.00000000000000000 -1.00000000000000000 
1 0.00000000000000000 0.00000000000000000 0.00000000000000006 -1.00000000000000000 
1 0.00000000000000000 0.00000000000000000 1.00000000000000000 0.00000000000000000 
1 0.00000000000000000 -1.50000000000000044 1.00000000000000000 0.00000000000000000 
2 0.73731133161658235 -79.16666666666492347 1.00000000000000000 0.00000000000000003 0.00000000000000003 -1.00000000000000000 4.99999999999996625
1 6.00000000000004796 0.00000000000001110 0.00000000000000006 -1.00000000000000000 
1 -0.00000000000000000 0.00000000000000000 0.00000000000000008 -1.00000000000000000 
1 0.00000000000000000 0.00000000000000000 1.00000000000000000 0.00000000000000000 
1 0.00000000000000400 -1.49999999999999623 1.00000000000000000 0.00000000000000000 
1 0.73731133161658235 -84.16666666666492347 -1.00000000000000000 -0.00000000000000003 
1 49.99999999999997158 -0.00000000000001909 0.00000000000000008 -1.00000000000000000 
1 0.00000000000000000 0.00000000000000000 -0.00000000000000006 -1.00000000000000000 
1 -0.00000000000000000 0.00000000000000000 1.00000000000000000 0.00000000000000000 
1 -0.00000000000000057 -1.49999999999999623 1.00000000000000000 0.00000000000000000 
1 -5.26268866838347726 -84.16666666666492347 -0.00000000000000003 1.00000000000000000 
1 29.00000000000110845 -296.66666666666708352 -0.00000000000000003 1.00000000000000000 
1 29.00000000000110845 -296.66666666666708352 -0.00000000000000003 1.00000000000000000 
1 4.71238898038468967 0.00000000000000000 0.00000000000000000 -1.00000000000000000 
1 5.99999999999999556 0.00000000000001021 -0.00000000000000006 -1.00000000000000000 
1 0.00000000000000000 0.00000000000000000 1.00000000000000000 -0.00000000000000000 
1 -0.00000000000000400 -1.49999999999999623 1.00000000000000000 -0.00000000000000000 
1 -5.26268866838346661 -34.16666666666495189 1.00000000000000000 0.00000000000000003 
1 0.00000000000000000 0.00000000000000000 1.00000000000000000 0.00000000000000000 
1 0.00000000000000000 -1.50000000000000044 1.00000000000000000 0.00000000000000000 
2 0.73731133161651896 -39.16666666666495189 1.00000000000000000 0.00000000000000003 0.00000000000000003 -1.00000000000000000 4.99999999999997691
1 6.28318530717958623 0.00000000000000000 0.00000000000000000 -1.00000000000000000 
1 0.00000000000000000 0.00000000000000000 0.00000000000000000 -1.00000000000000000 
1 5.73731133161652895 197.50000000000102318 0.00000000000000003 -1.00000000000000000 
1 1.57079632679477865 0.00000000000000000 0.00000000000000000 -1.00000000000000000 
1 0.00000000000000000 0.00000000000000000 0.00000000000000006 -1.00000000000000000 
1 0.00000000000000000 0.00000000000000000 1.00000000000000000 0.00000000000000000 
1 0.00000000000000000 -1.50000000000000044 1.00000000000000000 0.00000000000000000 
2 0.73731133161655127 157.50000000000335376 1.00000000000000000 0.00000000000000003 0.00000000000000003 -1.00000000000000000 4.99999999999997691
1 6.00000000000060751 -0.00000000000000488 0.00000000000000006 -1.00000000000000000 
1 -0.00000000000000000 0.00000000000000000 0.00000000000000008 -1.00000000000000000 
1 0.00000000000000000 0.00000000000000000 1.00000000000000000 0.00000000000000000 
1 0.00000000000000400 -1.49999999999999623 1.00000000000000000 0.00000000000000000 
1 0.73731133161711093 152.50000000000335376 -1.00000000000000000 -0.00000000000000003 
1 49.99999999999766942 0.00000000000000720 0.00000000000000008 -1.00000000000000000 
1 0.00000000000000000 0.00000000000000000 -0.00000000000000006 -1.00000000000000000 
1 -0.00000000000000000 0.00000000000000000 1.00000000000000000 0.00000000000000000 
1 -0.00000000000000057 -1.49999999999999623 1.00000000000000000 0.00000000000000000 
1 -5.26268866838349680 152.50000000000335376 -0.00000000000000003 1.00000000000000000 
1 29.00000000000109779 -59.99999999999879208 -0.00000000000000003 1.00000000000000000 
1 29.00000000000109779 -59.99999999999879208 -0.00000000000000003 1.00000000000000000 
1 4.71238898038480958 0.00000000000000000 0.00000000000000000 -1.00000000000000000 
1 6.00000000000060751 0.00000000000000488 -0.00000000000000006 -1.00000000000000000 
1 0.00000000000000000 0.00000000000000000 1.00000000000000000 -0.00000000000000000 
1 -0.00000000000000400 -1.49999999999999623 1.00000000000000000 -0.00000000000000000 
1 -5.26268866838348615 202.50000000000102318 1.00000000000000000 0.00000000000000003 
1 0.00000000000000000 0.00000000000000000 1.00000000000000000 0.00000000000000000 
1 0.00000000000000000 -1.50000000000000044 1.00000000000000000 0.00000000000000000 
2 0.73731133161656204 197.50000000000102318 1.00000000000000000 0.00000000000000003 0.00000000000000003 -1.00000000000000000 4.99999999999996625
1 0.00000000000000000 0.00000000000000000 0.00000000000000000 -1.00000000000000000 
1 6.28318530717958623 0.00000000000000000 0.00000000000000000 -1.00000000000000000 
1 0.00000000000000000 0.00000000000000000 1.00000000000000000 0.00000000000000000 
1 0.00000000000000000 -1.50000000000000044 1.00000000000000000 0.00000000000000000 
2 0.23731133161654736 177.50000000000216005 1.00000000000000000 0.00000000000000003 0.00000000000000003 -1.00000000000000000 1.70000000000001772
Curves 52
1 292.44244146922534355 176.44868703213617778 370.00000000000005684 0.37944707743630451 0.92521344317138365 -0.00000000000000046 
1 292.44244146922540040 176.44868703213620620 410.00000000000011369 0.37944707743630451 0.92521344317138365 -0.00000000000000046 
1 10.00000000000002132 370.00000000000000000 0.00000000000000000 0.00000000000000000 1.00000000000000000 0.00000000000000000 
1 287.81637425336845126 178.34592241931773060 415.00000000000011369 0.37944707743630451 0.92521344317138365 -0.00000000000000046 
2 5.00000000000002132 410.00000000000000000 0.00000000000000000 0.00000000000000000 0.00000000000000000 1.00000000000000000 1.00000000000000000 0.00000000000000000 -0.00000000000000000 -0.00000000000000000 1.00000000000000000 0.00000000000000000 5.00000000000000000
1 282.26509359434015778 180.62260488393556557 415.00000000000011369 0.37944707743630451 0.92521344317138365 -0.00000000000000046 
1 5.00000000000002043 415.00000000000000000 0.00000000000000000 -1.00000000000000000 0.00000000000000000 0.00000000000000000 
1 282.26509359434010094 180.62260488393553715 365.00000000000005684 0.37944707743630451 0.92521344317138365 -0.00000000000000046 
1 -1.00000000000000000 415.00000000000000000 0.00000000000000000 0.00000000000000000 -1.00000000000000000 0.00000000000000000 
1 287.81637425336845126 178.34592241931770218 365.00000000000005684 0.37944707743630451 0.92521344317138365 -0.00000000000000046 
1 -1.00000000000000000 365.00000000000000000 0.00000000000000000 1.00000000000000000 0.00000000000000000 0.00000000000000000 
2 5.00000000000002043 370.00000000000000000 0.00000000000000000 0.00000000000000000 0.00000000000000000 1.00000000000000000 1.00000000000000000 0.00000000000000000 -0.00000000000000000 -0.00000000000000000 1.00000000000000000 0.00000000000000000 5.00000000000000000
1 288.92663038517412133 177.89058592639415224 390.00000000000011369 0.37944707743630451 0.92521344317138365 -0.00000000000000046 
2 4.50000000000000266 390.00000000000000000 0.00000000000000000 0.00000000000000000 0.00000000000000000 1.00000000000000000 1.00000000000000000 0.00000000000000000 -0.00000000000000000 -0.00000000000000000 1.00000000000000000 0.00000000000000000 1.69999999999999996
1 292.44244146922528671 176.44868703213612093 133.33333333333411019 0.37944707743630451 0.92521344317138365 -0.00000000000000046 
1 292.44244146922534355 176.44868703213612093 173.33333333333411019 0.37944707743630451 0.92521344317138365 -0.00000000000000046 
1 10.00000000000000711 133.33333333333408177 0.00000000000000000 0.00000000000000000 1.00000000000000000 0.00000000000000000 
1 287.81637425336839442 178.34592241931764534 178.33333333333411019 0.37944707743630451 0.92521344317138365 -0.00000000000000046 
2 5.00000000000000711 173.33333333333408177 0.00000000000000000 0.00000000000000000 0.00000000000000000 1.00000000000000000 1.00000000000000000 0.00000000000000000 -0.00000000000000000 -0.00000000000000000 1.00000000000000000 0.00000000000000000 5.00000000000000000
1 282.26509359434010094 180.62260488393548030 178.33333333333411019 0.37944707743630451 0.92521344317138365 -0.00000000000000046 
1 5.00000000000000622 178.33333333333408177 0.00000000000000000 -1.00000000000000000 0.00000000000000000 0.00000000000000000 
1 282.26509359434010094 180.62260488393545188 128.33333333333411019 0.37944707743630451 0.92521344317138365 -0.00000000000000046 
1 -1.00000000000000000 178.33333333333408177 0.00000000000000000 0.00000000000000000 -1.00000000000000000 0.00000000000000000 
1 287.81637425336839442 178.34592241931761691 128.33333333333411019 0.37944707743630451 0.92521344317138365 -0.00000000000000046 
1 -1.00000000000000000 128.33333333333408177 0.00000000000000000 1.00000000000000000 0.00000000000000000 0.00000000000000000 
2 5.00000000000000711 133.33333333333408177 0.00000000000000000 0.00000000000000000 0.00000000000000000 1.00000000000000000 1.00000000000000000 0.00000000000000000 -0.00000000000000000 -0.00000000000000000 1.00000000000000000 0.00000000000000000 5.00000000000000000
1 292.44244146922534355 176.44868703213614936 251.66666666666711194 0.37944707743630451 0.92521344317138365 -0.00000000000000046 
1 292.44244146922534355 176.44868703213614936 291.66666666666708352 0.37944707743630451 0.92521344317138365 -0.00000000000000046 
1 10.00000000000001421 251.66666666666705510 0.00000000000000000 0.00000000000000000 1.00000000000000000 0.00000000000000000 
1 287.81637425336845126 178.34592241931767376 296.66666666666708352 0.37944707743630451 0.92521344317138365 -0.00000000000000046 
2 5.00000000000001510 291.66666666666702667 0.00000000000000000 0.00000000000000000 0.00000000000000000 1.00000000000000000 1.00000000000000000 0.00000000000000000 -0.00000000000000000 -0.00000000000000000 1.00000000000000000 0.00000000000000000 5.00000000000000000
1 282.26509359434010094 180.62260488393550872 296.66666666666708352 0.37944707743630451 0.92521344317138365 -0.00000000000000046 
1 5.00000000000001421 296.66666666666702667 0.00000000000000000 -1.00000000000000000 0.00000000000000000 0.00000000000000000 
1 282.26509359434010094 180.62260488393550872 246.66666666666711194 0.37944707743630451 0.92521344317138365 -0.00000000000000046 
1 -1.00000000000000000 296.66666666666702667 0.00000000000000000 0.00000000000000000 -1.00000000000000000 0.00000000000000000 
1 287.81637425336839442 178.34592241931767376 246.66666666666711194 0.37944707743630451 0.92521344317138365 -0.00000000000000046 
1 -1.00000000000000000 246.66666666666705510 0.00000000000000000 1.00000000000000000 0.00000000000000000 0.00000000000000000 
2 5.00000000000001332 251.66666666666705510 0.00000000000000000 0.00000000000000000 0.00000000000000000 1.00000000000000000 1.00000000000000000 0.00000000000000000 -0.00000000000000000 -0.00000000000000000 1.00000000000000000 0.00000000000000000 5.00000000000000000
1 292.44244146922528671 176.44868703213606409 15.00000000000112799 0.37944707743630451 0.92521344317138365 -0.00000000000000046 
1 292.44244146922528671 176.44868703213609251 54.99999999999879208 0.37944707743630451 0.92521344317138365 -0.00000000000000046 
1 10.00000000000000000 15.00000000000112443 0.00000000000000000 0.00000000000000000 1.00000000000000000 0.00000000000000000 
1 287.81637425336890601 178.34592241931738954 59.99999999999879208 0.37944707743630451 0.92521344317138365 -0.00000000000000046 
2 5.00000000000000000 54.99999999999877787 0.00000000000000000 0.00000000000000000 0.00000000000000000 1.00000000000000000 1.00000000000000000 0.00000000000000000 -0.00000000000000000 -0.00000000000000000 1.00000000000000000 0.00000000000000000 5.00000000000000000
1 282.26509359434004409 180.62260488393545188 59.99999999999879208 0.37944707743630451 0.92521344317138365 -0.00000000000000046 
1 5.00000000000058975 59.99999999999877787 0.00000000000000000 -1.00000000000000000 0.00000000000000000 0.00000000000000000 
1 282.26509359434004409 180.62260488393542346 10.00000000000112621 0.37944707743630451 0.92521344317138365 -0.00000000000000046 
1 -1.00000000000000000 59.99999999999877787 0.00000000000000000 0.00000000000000000 -1.00000000000000000 0.00000000000000000 
1 287.81637425336890601 178.34592241931736112 10.00000000000112799 0.37944707743630451 0.92521344317138365 -0.00000000000000046 
1 -1.00000000000000000 10.00000000000112621 0.00000000000000000 1.00000000000000000 0.00000000000000000 0.00000000000000000 
2 5.00000000000000000 15.00000000000112621 0.00000000000000000 0.00000000000000000 0.00000000000000000 1.00000000000000000 1.00000000000000000 0.00000000000000000 -0.00000000000000000 -0.00000000000000000 1.00000000000000000 0.00000000000000000 5.00000000000000000
1 288.92663038517400764 177.89058592639403855 35.00000000000000711 0.37944707743630451 0.92521344317138365 -0.00000000000000046 
2 4.50000000000000000 35.00000000000000000 0.00000000000000000 0.00000000000000000 0.00000000000000000 1.00000000000000000 1.00000000000000000 0.00000000000000000 -0.00000000000000000 -0.00000000000000000 1.00000000000000000 0.00000000000000000 1.69999999999999996
Polygon3D 0
PolygonOnTriangulations 0
Surfaces 32
1 292.44244146922534355 176.44868703213617778 370.00000000000005684 0.92521344317138365 -0.37944707743630451 -0.00000000000000003 0.00000000000000017 0.00000000000000034 1.00000000000000000 -0.37944707743630451 -0.92521344317138365 0.00000000000000038 
2 287.81637425336845126 178.34592241931770218 370.00000000000005684 -0.37944707743630457 -0.92521344317138365 0.00000000000000038 0.92521344317138365 -0.37944707743630457 -0.00000000000000003 0.00000000000000017 0.00000000000000034 1.00000000000000000 5.00000000000000089
2 287.81637425336845126 178.34592241931773060 410.00000000000011369 -0.37944707743630457 -0.92521344317138365 0.00000000000000038 0.92521344317138365 -0.37944707743630457 -0.00000000000000003 0.00000000000000017 0.00000000000000034 1.00000000000000000 5.00000000000000089
1 287.13420389755424367 178.62569304926034874 212.50000000000216005 0.37944707743630468 0.92521344317138365 -0.00000000000000039 0.92521344317138365 -0.37944707743630468 0.00000000000000000 -0.00000000000000015 -0.00000000000000036 -1.00000000000000000 
1 287.81637425336845126 178.34592241931773060 415.00000000000011369 0.00000000000000020 0.00000000000000042 1.00000000000000000 -0.92521344317138365 0.37944707743630457 0.00000000000000003 -0.37944707743630457 -0.92521344317138365 0.00000000000000046 
1 282.26509359434015778 180.62260488393556557 415.00000000000011369 -0.92521344317138365 0.37944707743630451 0.00000000000000003 -0.00000000000000017 -0.00000000000000034 -1.00000000000000000 -0.37944707743630451 -0.92521344317138365 0.00000000000000038 
1 282.26509359434010094 180.62260488393553715 365.00000000000005684 -0.00000000000000020 -0.00000000000000042 -1.00000000000000000 0.92521344317138365 -0.37944707743630457 -0.00000000000000003 -0.37944707743630457 -0.92521344317138365 0.00000000000000046 
1 255.43390374236878415 191.62657012958840141 0.00000000000000000 0.37944707743629463 0.92521344317138776 -0.00000000000000000 0.92521344317138776 -0.37944707743629463 0.00000000000000000 0.00000000000000000 -0.00000000000000000 -1.00000000000000000 
1 256.00307435852323579 193.01439029434547479 0.00000000000000000 0.37944707743629463 0.92521344317138776 -0.00000000000000000 0.92521344317138776 -0.37944707743629463 0.00000000000000000 0.00000000000000000 -0.00000000000000000 -1.00000000000000000 
2 287.35376753178275067 178.53564595803587167 390.00000000000011369 -0.37944707743630457 -0.92521344317138365 0.00000000000000038 0.92521344317138365 -0.37944707743630457 -0.00000000000000003 0.00000000000000017 0.00000000000000034 1.00000000000000000 1.70000000000000040
1 292.44244146922528671 176.44868703213612093 133.33333333333411019 0.92521344317138365 -0.37944707743630451 -0.00000000000000003 0.00000000000000017 0.00000000000000034 1.00000000000000000 -0.37944707743630451 -0.92521344317138365 0.00000000000000038 
2 287.81637425336839442 178.34592241931764534 133.33333333333411019 -0.37944707743630457 -0.92521344317138365 0.00000000000000038 0.92521344317138365 -0.37944707743630457 -0.00000000000000003 0.00000000000000017 0.00000000000000034 1.00000000000000000 5.00000000000000089
2 287.81637425336839442 178.34592241931764534 173.33333333333411019 -0.37944707743630457 -0.92521344317138365 0.00000000000000038 0.92521344317138365 -0.37944707743630457 -0.00000000000000003 0.00000000000000017 0.00000000000000034 1.00000000000000000 5.00000000000000089
1 287.13420389755424367 178.62569304926034874 212.50000000000216005 0.37944707743630468 0.92521344317138365 -0.00000000000000039 0.92521344317138365 -0.37944707743630468 0.00000000000000000 -0.00000000000000015 -0.00000000000000036 -1.00000000000000000 
1 287.81637425336839442 178.34592241931764534 178.33333333333411019 0.00000000000000020 0.00000000000000042 1.00000000000000000 -0.92521344317138365 0.37944707743630457 0.00000000000000003 -0.37944707743630457 -0.92521344317138365 0.00000000000000046 
1 282.26509359434010094 180.62260488393548030 178.33333333333411019 -0.92521344317138365 0.37944707743630451 0.00000000000000003 -0.00000000000000017 -0.00000000000000034 -1.00000000000000000 -0.37944707743630451 -0.92521344317138365 0.00000000000000038 
1 282.26509359434010094 180.62260488393545188 128.33333333333411019 -0.00000000000000020 -0.00000000000000042 -1.00000000000000000 0.92521344317138365 -0.37944707743630457 -0.00000000000000003 -0.37944707743630457 -0.92521344317138365 0.00000000000000046 
1 292.44244146922534355 176.44868703213614936 251.66666666666711194 0.92521344317138365 -0.37944707743630451 -0.00000000000000003 0.00000000000000017 0.00000000000000034 1.00000000000000000 -0.37944707743630451 -0.92521344317138365 0.00000000000000038 
2 287.81637425336839442 178.34592241931767376 251.66666666666711194 -0.37944707743630457 -0.92521344317138365 0.00000000000000038 0.92521344317138365 -0.37944707743630457 -0.00000000000000003 0.00000000000000017 0.00000000000000034 1.00000000000000000 5.00000000000000089
2 287.81637425336845126 178.34592241931767376 291.66666666666708352 -0.37944707743630457 -0.92521344317138365 0.00000000000000038 0.92521344317138365 -0.37944707743630457 -0.00000000000000003 0.00000000000000017 0.00000000000000034 1.00000000000000000 5.00000000000000089
1 287.13420389755424367 178.62569304926034874 212.50000000000216005 0.37944707743630468 0.92521344317138365 -0.00000000000000039 0.92521344317138365 -0.37944707743630468 0.00000000000000000 -0.00000000000000015 -0.00000000000000036 -1.00000000000000000 
1 287.81637425336845126 178.34592241931767376 296.66666666666708352 0.00000000000000020 0.00000000000000042 1.00000000000000000 -0.92521344317138365 0.37944707743630457 0.00000000000000003 -0.37944707743630457 -0.92521344317138365 0.00000000000000046 
1 282.26509359434010094 180.62260488393550872 296.66666666666708352 -0.92521344317138365 0.37944707743630451 0.00000000000000003 -0.00000000000000017 -0.00000000000000034 -1.00000000000000000 -0.37944707743630451 -0.92521344317138365 0.00000000000000038 
1 282.26509359434010094 180.62260488393550872 246.66666666666711194 -0.00000000000000020 -0.00000000000000042 -1.00000000000000000 0.92521344317138365 -0.37944707743630457 -0.00000000000000003 -0.37944707743630457 -0.92521344317138365 0.00000000000000046 
1 292.44244146922528671 176.44868703213606409 15.00000000000112799 0.92521344317138365 -0.37944707743630451 -0.00000000000000003 0.00000000000000017 0.00000000000000034 1.00000000000000000 -0.37944707743630451 -0.92521344317138365 0.00000000000000038 
2 287.81637425336839442 178.34592241931758849 15.00000000000112976 -0.37944707743630457 -0.92521344317138365 0.00000000000000038 0.92521344317138365 -0.37944707743630457 -0.00000000000000003 0.00000000000000017 0.00000000000000034 1.00000000000000000 5.00000000000000089
2 287.81637425336839442 178.34592241931761691 54.99999999999879208 -0.37944707743630457 -0.92521344317138365 0.00000000000000038 0.92521344317138365 -0.37944707743630457 -0.00000000000000003 0.00000000000000017 0.00000000000000034 1.00000000000000000 5.00000000000000089
1 287.13420389755424367 178.62569304926034874 212.50000000000216005 0.37944707743630468 0.92521344317138365 -0.00000000000000039 0.92521344317138365 -0.37944707743630468 0.00000000000000000 -0.00000000000000015 -0.00000000000000036 -1.00000000000000000 
1 287.81637425336890601 178.34592241931738954 59.99999999999879208 0.00000000000000020 0.00000000000000042 1.00000000000000000 -0.92521344317138365 0.37944707743630457 0.00000000000000003 -0.37944707743630457 -0.92521344317138365 0.00000000000000046 
1 282.26509359434004409 180.62260488393545188 59.99999999999879208 -0.92521344317138365 0.37944707743630451 0.00000000000000003 -0.00000000000000017 -0.00000000000000034 -1.00000000000000000 -0.37944707743630451 -0.92521344317138365 0.00000000000000038 
1 282.26509359434004409 180.62260488393542346 10.00000000000112799 -0.00000000000000020 -0.00000000000000042 -1.00000000000000000 0.92521344317138365 -0.37944707743630457 -0.00000000000000003 -0.37944707743630457 -0.92521344317138365 0.00000000000000046 
2 287.35376753178269382 178.53564595803575799 35.00000000000000711 -0.37944707743630457 -0.92521344317138365 0.00000000000000038 0.92521344317138365 -0.37944707743630457 -0.00000000000000003 0.00000000000000017 0.00000000000000034 1.00000000000000000 1.70000000000000040
Triangulations 0

TShapes 149
Ve
0.000000102469508
10.000000000000021 370.000000000000000 0.000000000000000
0 0

0101101
*
Ed
 0.000000100000000 1 1 0
1  1 0 0.000000000000000 1.500000000000000
2  1 2 0 0.000000000000000 1.500000000000000
4 G1 1 0 2 0
0

0101000
+149 4 -149 6 *
Ve
0.000000102469508
10.000000000000021 410.000000000000000 0.000000000000000
0 0

0101101
*
Ed
 0.000000100000000 1 1 0
1  2 0 0.000000000000000 1.500000000000000
2  2 3 0 0.000000000000000 1.500000000000000
4 G1 1 0 3 0
0

0101000
+147 4 -147 6 *
Ed
 0.000000102469508 1 1 0
1  3 0 0.000000000000000 40.000000000000000
2  3 4 7 0.000000000000000 40.000000000000000
0

0101000
+149 0 -147 0 *
Wi

0101100
+148 0 -146 0 -145 4 +145 6 *
Fa
0  0.000000100000000 1 0

0111000
+144 0 *
Ve
0.000000102469508
5.000000000000020 415.000000000000000 0.000000000000000
0 0

0101101
*
Ed
 0.000000100000000 1 1 0
1  4 0 0.000000000000000 1.500000000000000
2  4 3 0 0.000000000000000 1.500000000000000
4 G1 3 0 5 0
2  5 5 0 0.000000000000000 1.500000000000000
0

0101000
+142 4 -142 6 *
Ed
 0.000000102469508 1 1 0
1  5 0 0.000000000000000 1.570796326794897
2  6 3 8 0.000000000000000 1.570796326794897
2  7 3 9 0.000000000000000 1.570796326794897
2  8 4 7 0.000000000000000 1.570796326794897
0

0101000
+147 0 -142 0 *
Wi

0101100
+146 0 -141 0 -140 4 +140 6 *
Fa
0  0.000000100000000 3 0

0111000
+139 0 *
Ve
0.000000100000153
-1.000000000000000 415.000000000000000 0.000000000000000
0 0

0101101
*
Ed
 0.000000100000000 1 1 0
1  6 0 0.000000000000000 1.500000000000000
2  9 5 0 0.000000000000000 1.500000000000000
2  10 6 0 0.000000000000000 1.500000000000000
0

0101000
+137 4 -137 6 *
Ed
 0.000000100000000 1 1 0
1  7 0 0.000000000000000 6.000000000000020
2  11 5 8 0.000000000000000 6.000000000000020
2  12 5 9 0.000000000000000 6.000000000000020
2  13 4 7 0.000000000000000 6.000000000000020
0

0101000
+142 0 -137 0 *
Wi

0101100
+141 0 -136 0 -135 4 +135 6 *
Fa
0  0.000000100000000 5 0

0111000
+134 0 *
Ve
0.000000100000153
-1.000000000000000 365.000000000000000 0.000000000000000
0 0

0101101
*
Ed
 0.000000100000000 1 1 0
1  8 0 0.000000000000000 1.500000000000000
2  14 6 0 0.000000000000000 1.500000000000000
2  15 7 0 0.000000000000000 1.500000000000000
0

0101000
+132 4 -132 6 *
Ed
 0.000000100000153 1 1 0
1  9 0 0.000000000000000 50.000000000000000
2  16 6 8 0.000000000000000 50.000000000000000
2  17 6 9 0.000000000000000 50.000000000000000
2  18 4 7 0.000000000000000 50.000000000000000
2  19 8 11 0.000000000000000 50.000000000000000
2  20 9 12 0.000000000000000 50.000000000000000
0

0101000
+137 0 -132 0 *
Wi

0101100
+136 0 -131 0 -130 4 +130 6 *
Fa
0  0.000000100000000 6 0

0111000
+129 0 *
Ve
0.000000102469508
5.000000000000020 365.000000000000000 0.000000000000000
0 0

0101101
*
Ed
 0.000000100000000 1 1 0
1  10 0 0.000000000000000 1.500000000000000
2  21 2 0 0.000000000000000 1.500000000000000
4 G1 7 0 2 0
2  22 7 0 0.000000000000000 1.500000000000000
0

0101000
+127 4 -127 6 *
Ed
 0.000000100000000 1 1 0
1  11 0 0.000000000000000 6.000000000000020
2  23 7 8 0.000000000000000 6.000000000000020
2  24 7 9 0.000000000000000 6.000000000000020
2  25 4 7 0.000000000000000 6.000000000000020
0

0101000
+132 0 -127 0 *
Wi

0101100
+131 0 -126 0 -125 4 +125 6 *
Fa
0  0.000000100000000 7 0

0111000
+124 0 *
Ed
 0.000000102469508 1 1 0
1  12 0 4.712388980384690 6.283185307179584
2  26 2 8 4.712388980384690 6.283185307179584
2  27 2 9 4.712388980384690 6.283185307179584
2  28 4 7 4.712388980384690 6.283185307179584
0

0101000
+127 0 -149 0 *
Wi

0101100
+126 0 -148 0 -122 4 +122 6 *
Fa
0  0.000000100000000 2 0

0111000
+121 0 *
Ve
0.000000100000000
6.200000000000003 390.000000000000000 0.000000000000000
0 0

0101101
*
Ed
 0.000000100000000 1 1 0
1  13 0 0.000000000000000 1.500000000000000
3  29 30CN 10 0 0.000000000000000 1.500000000000000
0

0101000
+119 4 -119 6 *
Ed
 0.000000102469508 1 1 0
1  14 0 0.000000000000000 6.283185307179586
2  31 10 8 0.000000000000000 6.283185307179586
2  32 10 9 0.000000000000000 6.283185307179586
2  33 4 7 0.000000000000000 6.283185307179586
0

0101100
+119 0 -119 0 *
Wi

0101100
+118 0 -118 0 -117 4 +117 6 *
Fa
0  0.000000100000000 10 0

0111000
+116 0 *
Wi

0101100
+145 0 +140 0 +135 0 +130 0 +125 0 +122 0 *
Wi

0101100
+117 0 *
Fa
0  0.000000100000000 4 0

0111000
-114 14 +113 14 *
Sh

0101100
-143 0 -138 0 -133 0 -128 0 -123 0 -120 0 +115 0 +112 13 -112 15 *
So

0100000
-111 0 *
Ve
0.000000102469508
10.000000000000007 133.333333333334082 0.000000000000000
0 0

0101101
*
Ed
 0.000000100000000 1 1 0
1  15 0 0.000000000000000 1.500000000000000
2  34 12 0 0.000000000000000 1.500000000000000
4 G1 11 0 12 0
0

0101000
+109 4 -109 6 *
Ve
0.000000102469508
10.000000000000007 173.333333333334082 0.000000000000000
0 0

0101101
*
Ed
 0.000000100000000 1 1 0
1  16 0 0.000000000000000 1.500000000000000
2  35 13 0 0.000000000000000 1.500000000000000
4 G1 11 0 13 0
0

0101000
+107 4 -107 6 *
Ed
 0.000000102469508 1 1 0
1  17 0 0.000000000000000 40.000000000000000
2  36 14 7 0.000000000000000 40.000000000000000
0

0101000
+109 0 -107 0 *
Wi

0101100
+108 0 -106 0 -105 4 +105 6 *
Fa
0  0.000000100000000 11 0

0111000
+104 0 *
Ve
0.000000102469508
5.000000000000006 178.333333333334082 0.000000000000000
0 0

0101101
*
Ed
 0.000000100000000 1 1 0
1  18 0 0.000000000000000 1.500000000000000
2  37 13 0 0.000000000000000 1.500000000000000
4 G1 13 0 15 0
2  38 15 0 0.000000000000000 1.500000000000000
0

0101000
+102 4 -102 6 *
Ed
 0.000000102469508 1 1 0
1  19 0 0.000000000000002 1.570796326794897
2  39 13 8 0.000000000000002 1.570796326794897
2  40 13 9 0.000000000000002 1.570796326794897
2  41 14 7 0.000000000000002 1.570796326794897
0

0101000
+107 0 -102 0 *
Wi

0101100
+106 0 -101 0 -100 4 +100 6 *
Fa
0  0.000000100000000 13 0

0111000
+99 0 *
Ve
0.000000100000057
-1.000000000000000 178.333333333334082 0.000000000000000
0 0

0101101
*
Ed
 0.000000100000000 1 1 0
1  20 0 0.000000000000000 1.500000000000000
2  42 15 0 0.000000000000000 1.500000000000000
2  43 16 0 0.000000000000000 1.500000000000000
0

0101000
+97 4 -97 6 *
Ed
 0.000000100000000 1 1 0
1  21 0 0.000000000000000 6.000000000000006
2  44 15 8 0.000000000000000 6.000000000000006
2  45 15 9 0.000000000000000 6.000000000000006
2  46 14 7 0.000000000000000 6.000000000000006
0

0101000
+102 0 -97 0 *
Wi

0101100
+101 0 -96 0 -95 4 +95 6 *
Fa
0  0.000000100000000 15 0

0111000
+94 0 *
Ve
0.000000100000057
-1.000000000000000 128.333333333334082 0.000000000000000
0 0

0101101
*
Ed
 0.000000100000000 1 1 0
1  22 0 0.000000000000000 1.500000000000000
2  47 16 0 0.000000000000000 1.500000000000000
2  48 17 0 0.000000000000000 1.500000000000000
0

0101000
+92 4 -92 6 *
Ed
 0.000000100000057 1 1 0
1  23 0 0.000000000000000 50.000000000000000
2  49 16 8 0.000000000000000 50.000000000000000
2  50 16 9 0.000000000000000 50.000000000000000
2  51 14 7 0.000000000000000 50.000000000000000
2  52 8 11 0.000000000000000 50.000000000000000
2  53 9 12 0.000000000000000 50.000000000000000
0

0101000
+97 0 -92 0 *
Wi

0101100
+96 0 -91 0 -90 4 +90 6 *
Fa
0  0.000000100000000 16 0

0111000
+89 0 *
Ve
0.000000102469508
5.000000000000006 128.333333333334082 0.000000000000000
0 0

0101101
*
Ed
 0.000000100000000 1 1 0
1  24 0 0.000000000000000 1.500000000000000
2  54 12 0 0.000000000000000 1.500000000000000
4 G1 17 0 12 0
2  55 17 0 0.000000000000000 1.500000000000000
0

0101000
+87 4 -87 6 *
Ed
 0.000000100000000 1 1 0
1  25 0 0.000000000000000 6.000000000000006
2  56 17 8 0.000000000000000 6.000000000000006
2  57 17 9 0.000000000000000 6.000000000000006
2  58 14 7 0.000000000000000 6.000000000000006
0

0101000
+92 0 -87 0 *
Wi

0101100
+91 0 -86 0 -85 4 +85 6 *
Fa
0  0.000000100000000 17 0

0111000
+84 0 *
Ed
 0.000000102469508 1 1 0
1  26 0 4.712388980384690 6.283185307179586
2  59 12 8 4.712388980384690 6.283185307179586
2  60 12 9 4.712388980384690 6.283185307179586
2  61 14 7 4.712388980384690 6.283185307179586
0

0101000
+87 0 -109 0 *
Wi

0101100
+86 0 -108 0 -82 4 +82 6 *
Fa
0  0.000000100000000 12 0

0111000
+81 0 *
Wi

0101100
+105 0 +100 0 +95 0 +90 0 +85 0 +82 0 *
Fa
0  0.000000100000000 14 0

0111000
-79 14 *
Sh

0101100
-103 0 -98 0 -93 0 -88 0 -83 0 -80 0 +78 13 -78 15 *
So

0100000
-77 0 *
Ve
0.000000102469508
10.000000000000014 251.666666666667055 0.000000000000000
0 0

0101101
*
Ed
 0.000000100000000 1 1 0
1  27 0 0.000000000000000 1.500000000000000
2  62 19 0 0.000000000000000 1.500000000000000
4 G1 18 0 19 0
0

0101000
+75 4 -75 6 *
Ve
0.000000102469508
10.000000000000014 291.666666666667027 0.000000000000000
0 0

0101101
*
Ed
 0.000000100000000 1 1 0
1  28 0 0.000000000000000 1.500000000000000
2  63 20 0 0.000000000000000 1.500000000000000
4 G1 18 0 20 0
0

0101000
+73 4 -73 6 *
Ed
 0.000000102469508 1 1 0
1  29 0 0.000000000000000 39.999999999999972
2  64 21 7 0.000000000000000 39.999999999999972
0

0101000
+75 0 -73 0 *
Wi

0101100
+74 0 -72 0 -71 4 +71 6 *
Fa
0  0.000000100000000 18 0

0111000
+70 0 *
Ve
0.000000102469508
5.000000000000014 296.666666666667027 0.000000000000000
0 0

0101101
*
Ed
 0.000000100000000 1 1 0
1  30 0 0.000000000000000 1.500000000000000
2  65 20 0 0.000000000000000 1.500000000000000
4 G1 20 0 22 0
2  66 22 0 0.000000000000000 1.500000000000000
0

0101000
+68 4 -68 6 *
Ed
 0.000000102469508 1 1 0
1  31 0 0.000000000000000 1.570796326794897
2  67 20 8 0.000000000000000 1.570796326794897
2  68 20 9 0.000000000000000 1.570796326794897
2  69 21 7 0.000000000000000 1.570796326794897
0

0101000
+73 0 -68 0 *
Wi

0101100
+72 0 -67 0 -66 4 +66 6 *
Fa
0  0.000000100000000 20 0

0111000
+65 0 *
Ve
0.000000100000127
-1.000000000000000 296.666666666667027 0.000000000000000
0 0

0101101
*
Ed
 0.000000100000000 1 1 0
1  32 0 0.000000000000000 1.500000000000000
2  70 22 0 0.000000000000000 1.500000000000000
2  71 23 0 0.000000000000000 1.500000000000000
0

0101000
+63 4 -63 6 *
Ed
 0.000000100000000 1 1 0
1  33 0 0.000000000000000 6.000000000000014
2  72 22 8 0.000000000000000 6.000000000000014
2  73 22 9 0.000000000000000 6.000000000000014
2  74 21 7 0.000000000000000 6.000000000000014
0

0101000
+68 0 -63 0 *
Wi

0101100
+67 0 -62 0 -61 4 +61 6 *
Fa
0  0.000000100000000 22 0

0111000
+60 0 *
Ve
0.000000100000102
-1.000000000000000 246.666666666667055 0.000000000000000
0 0

0101101
*
Ed
 0.000000100000000 1 1 0
1  34 0 0.000000000000000 1.500000000000000
2  75 23 0 0.000000000000000 1.500000000000000
2  76 24 0 0.000000000000000 1.500000000000000
0

0101000
+58 4 -58 6 *
Ed
 0.000000100000102 1 1 0
1  35 0 0.000000000000000 49.999999999999972
2  77 23 8 0.000000000000000 49.999999999999972
2  78 23 9 0.000000000000000 49.999999999999972
2  79 21 7 0.000000000000000 49.999999999999972
2  80 8 11 0.000000000000000 49.999999999999972
2  81 9 12 0.000000000000000 49.999999999999972
0

0101000
+63 0 -58 0 *
Wi

0101100
+62 0 -57 0 -56 4 +56 6 *
Fa
0  0.000000100000000 23 0

0111000
+55 0 *
Ve
0.000000102469508
5.000000000000012 246.666666666667055 0.000000000000000
0 0

0101101
*
Ed
 0.000000100000000 1 1 0
1  36 0 0.000000000000000 1.500000000000000
2  82 19 0 0.000000000000000 1.500000000000000
4 G1 24 0 19 0
2  83 24 0 0.000000000000000 1.500000000000000
0

0101000
+53 4 -53 6 *
Ed
 0.000000100000000 1 1 0
1  37 0 0.000000000000000 6.000000000000012
2  84 24 8 0.000000000000000 6.000000000000012
2  85 24 9 0.000000000000000 6.000000000000012
2  86 21 7 0.000000000000000 6.000000000000012
0

0101000
+58 0 -53 0 *
Wi

0101100
+57 0 -52 0 -51 4 +51 6 *
Fa
0  0.000000100000000 24 0

0111000
+50 0 *
Ed
 0.000000102469508 1 1 0
1  38 0 4.712388980384690 6.283185307179584
2  87 19 8 4.712388980384690 6.283185307179584
2  88 19 9 4.712388980384690 6.283185307179584
2  89 21 7 4.712388980384690 6.283185307179584
0

0101000
+53 0 -75 0 *
Wi

0101100
+52 0 -74 0 -48 4 +48 6 *
Fa
0  0.000000100000000 19 0

0111000
+47 0 *
Wi

0101100
+71 0 +66 0 +61 0 +56 0 +51 0 +48 0 *
Fa
0  0.000000100000000 21 0

0111000
-45 14 *
Sh

0101100
-69 0 -64 0 -59 0 -54 0 -49 0 -46 0 +44 13 -44 15 *
So

0100000
-43 0 *
Ve
0.000000102469508
10.000000000000000 15.000000000001124 0.000000000000000
0 0

0101101
*
Ed
 0.000000100000000 1 1 0
1  39 0 0.000000000000000 1.500000000000000
2  90 26 0 0.000000000000000 1.500000000000000
4 G1 25 0 26 0
0

0101000
+41 4 -41 6 *
Ve
0.000000102469508
10.000000000000000 54.999999999998778 0.000000000000000
0 0

0101101
*
Ed
 0.000000100000000 1 1 0
1  40 0 0.000000000000000 1.500000000000000
2  91 27 0 0.000000000000000 1.500000000000000
4 G1 25 0 27 0
0

0101000
+39 4 -39 6 *
Ed
 0.000000102469508 1 1 0
1  41 0 0.000000000000000 39.999999999997655
2  92 28 7 0.000000000000000 39.999999999997655
0

0101000
+41 0 -39 0 *
Wi

0101100
+40 0 -38 0 -37 4 +37 6 *
Fa
0  0.000000100000000 25 0

0111000
+36 0 *
Ve
0.000000102469508
5.000000000000590 59.999999999998778 0.000000000000000
0 0

0101101
*
Ed
 0.000000100000000 1 1 0
1  42 0 0.000000000000000 1.500000000000000
2  93 27 0 0.000000000000000 1.500000000000000
4 G1 27 0 29 0
2  94 29 0 0.000000000000000 1.500000000000000
0

0101000
+34 4 -34 6 *
Ed
 0.000000102469508 1 1 0
1  43 0 0.000000000000000 1.570796326794779
2  95 27 8 0.000000000000000 1.570796326794779
2  96 27 9 0.000000000000000 1.570796326794779
2  97 28 7 0.000000000000000 1.570796326794779
0

0101000
+39 0 -34 0 *
Wi

0101100
+38 0 -33 0 -32 4 +32 6 *
Fa
0  0.000000100000000 27 0

0111000
+31 0 *
Ve
0.000000100000028
-1.000000000000000 59.999999999998778 0.000000000000000
0 0

0101101
*
Ed
 0.000000100000000 1 1 0
1  44 0 0.000000000000000 1.500000000000000
2  98 29 0 0.000000000000000 1.500000000000000
2  99 30 0 0.000000000000000 1.500000000000000
0

0101000
+29 4 -29 6 *
Ed
 0.000000100000000 1 1 0
1  45 0 0.000000000000000 6.000000000000590
2  100 29 8 0.000000000000000 6.000000000000590
2  101 29 9 0.000000000000000 6.000000000000590
2  102 28 7 0.000000000000000 6.000000000000590
0

0101000
+34 0 -29 0 *
Wi

0101100
+33 0 -28 0 -27 4 +27 6 *
Fa
0  0.000000100000000 29 0

0111000
+26 0 *
Ve
0.000000100000028
-1.000000000000000 10.000000000001124 0.000000000000000
0 0

0101101
*
Ed
 0.000000100000002 1 1 0
1  46 0 0.000000000000000 1.500000000000000
2  103 30 0 0.000000000000000 1.500000000000000
2  104 31 0 0.000000000000000 1.500000000000000
0

0101000
+24 4 -24 6 *
Ed
 0.000000100000028 1 1 0
1  47 0 0.000000000000000 49.999999999997655
2  105 30 8 0.000000000000000 49.999999999997655
2  106 30 9 0.000000000000000 49.999999999997655
2  107 28 7 0.000000000000000 49.999999999997655
2  108 8 11 0.000000000000000 49.999999999997655
2  109 9 12 0.000000000000000 49.999999999997655
0

0101000
+29 0 -24 0 *
Wi

0101100
+28 0 -23 0 -22 4 +22 6 *
Fa
0  0.000000100000000 30 0

0111000
+21 0 *
Ve
0.000000102469508
5.000000000000599 10.000000000001126 0.000000000000000
0 0

0101101
*
Ed
 0.000000100000000 1 1 0
1  48 0 0.000000000000000 1.500000000000000
2  110 26 0 0.000000000000000 1.500000000000000
4 G1 31 0 26 0
2  111 31 0 0.000000000000000 1.500000000000000
0

0101000
+19 4 -19 6 *
Ed
 0.000000100000000 1 1 0
1  49 0 0.000000000000000 6.000000000000599
2  112 31 8 0.000000000000000 6.000000000000599
2  113 31 9 0.000000000000000 6.000000000000599
2  114 28 7 0.000000000000000 6.000000000000599
0

0101000
+24 0 -19 0 *
Wi

0101100
+23 0 -18 0 -17 4 +17 6 *
Fa
0  0.000000100000000 31 0

0111000
+16 0 *
Ed
 0.000000102469508 1 1 0
1  50 0 4.712388980384810 6.283185307179586
2  115 26 8 4.712388980384810 6.283185307179586
2  116 26 9 4.712388980384810 6.283185307179586
2  117 28 7 4.712388980384810 6.283185307179586
0

0101000
+19 0 -41 0 *
Wi

0101100
+18 0 -40 0 -14 4 +14 6 *
Fa
0  0.000000100000000 26 0

0111000
+13 0 *
Ve
0.000000100000000
6.200000000000000 35.000000000000000 0.000000000000000
0 0

0101101
*
Ed
 0.000000100000000 1 1 0
1  51 0 0.000000000000000 1.500000000000000
3  118 119CN 32 0 0.000000000000000 1.500000000000000
0

0101000
+11 4 -11 6 *
Ed
 0.000000102469508 1 1 0
1  52 0 0.000000000000000 6.283185307179586
2  120 32 8 0.000000000000000 6.283185307179586
2  121 32 9 0.000000000000000 6.283185307179586
2  122 28 7 0.000000000000000 6.283185307179586
0

0101100
+11 0 -11 0 *
Wi

0101100
+10 0 -10 0 -9 4 +9 6 *
Fa
0  0.000000100000000 32 0

0111000
+8 0 *
Wi

0101100
+37 0 +32 0 +27 0 +22 0 +17 0 +14 0 *
Wi

0101100
+9 0 *
Fa
0  0.000000100000000 28 0

0111000
-6 14 +5 14 *
Sh

0101100
-35 0 -30 0 -25 0 -20 0 -15 0 -12 0 +7 0 +4 13 -4 15 *
So

0100000
-3 0 *
Co

1100000
+110 0 +76 0 +42 0 +2 0 *

+1 0 