
CASCADE Topology V1, (c) Matra-Datavision
Locations 47
1
1.000000000000000 0.000000000000000 0.000000000000000 0.000000000000000 
0.000000000000000 1.000000000000000 0.000000000000000 0.000000000000000 
0.000000000000000 0.000000000000000 1.000000000000000 37.100000000000001 
1
1.000000000000000 0.000000000000000 0.000000000000000 0.000000000000000 
0.000000000000000 1.000000000000000 0.000000000000000 0.000000000000000 
0.000000000000000 0.000000000000000 1.000000000000000 0.000000000000000 
1
1.000000000000000 0.000000000000000 0.000000000000000 0.000000000000000 
0.000000000000000 1.000000000000000 0.000000000000000 0.000000000000000 
0.000000000000000 0.000000000000000 1.000000000000000 0.000000000000000 
2  2 1 3 -1 0
1
0.000000000000000 0.000000000000000 1.000000000000000 41.299999999999415 
0.000000000000000 1.000000000000000 0.000000000000000 0.000000000000000 
-1.000000000000000 0.000000000000000 0.000000000000000 41.099999999999419 
1
0.000000000000000 0.000000000000000 1.000000000000000 41.299999999999415 
0.000000000000000 1.000000000000000 0.000000000000000 0.000000000000000 
-1.000000000000000 0.000000000000000 0.000000000000000 41.099999999999419 
1
1.000000000000000 0.000000000000000 0.000000000000000 0.000000000000000 
0.000000000000000 1.000000000000000 0.000000000000000 0.000000000000000 
0.000000000000000 0.000000000000000 1.000000000000000 0.000000000000000 
2  7 -1 3 1 2 -1 6 -1 0
2  7 -1 3 1 2 -1 5 -1 0
1
1.000000000000000 0.000000000000000 0.000000000000000 0.000000000000000 
0.000000000000000 1.000000000000000 0.000000000000000 0.000000000000000 
0.000000000000000 0.000000000000000 1.000000000000000 -0.300000000000000 
2  10 1 5 1 0
2  7 -1 3 1 2 -1 5 -1 10 -1 0
2  7 -1 3 1 2 -1 0
1
1.000000000000000 0.000000000000000 0.000000000000000 0.000000000000000 
0.000000000000000 1.000000000000000 0.000000000000000 0.000000000000000 
0.000000000000000 0.000000000000000 1.000000000000000 0.000000000000000 
2  7 -1 3 1 2 -1 14 -1 0
2  5 1 2 1 3 -1 0
2  6 -1 0
1
1.000000000000000 0.000000000000000 0.000000000000000 0.000000000000000 
0.000000000000000 1.000000000000000 0.000000000000000 0.000000000000000 
0.000000000000000 0.000000000000000 1.000000000000000 0.000000000000000 
1
1.000000000000000 0.000000000000000 0.000000000000000 0.000000000000000 
0.000000000000000 1.000000000000000 0.000000000000000 0.000000000000000 
0.000000000000000 0.000000000000000 1.000000000000000 0.000000000000000 
1
1.000000000000000 0.000000000000000 0.000000000000000 0.000000000000000 
0.000000000000000 1.000000000000000 0.000000000000000 0.000000000000000 
0.000000000000000 0.000000000000000 1.000000000000000 0.000000000000000 
1
1.000000000000000 0.000000000000000 0.000000000000000 0.000000000000000 
0.000000000000000 1.000000000000000 0.000000000000000 0.000000000000000 
0.000000000000000 0.000000000000000 1.000000000000000 0.300000000000000 
2  18 1 19 1 20 -1 21 1 14 1 0
2  14 -1 21 -1 20 1 19 -1 18 -1 0
2  7 -1 3 1 2 -1 14 -1 21 -1 20 1 19 -1 18 -1 0
2  18 1 19 1 20 -1 14 1 0
2  14 -1 20 1 19 -1 18 -1 0
2  7 -1 3 1 2 -1 14 -1 20 1 19 -1 18 -1 0
2  20 -1 21 1 14 1 2 1 3 -1 0
2  18 1 19 1 20 -1 21 1 14 1 2 1 3 -1 0
1
1.000000000000000 0.000000000000000 0.000000000000000 0.000000000000024 
0.000000000000000 1.000000000000000 0.000000000000000 -101.215914611281207 
0.000000000000000 0.000000000000000 1.000000000000000 -37.100000000000001 
2  7 -1 0
1
1.000000000000000 0.000000000000000 0.000000000000000 -22.299999999999713 
0.000000000000000 1.000000000000000 0.000000000000000 -83.394112909449618 
0.000000000000000 0.000000000000000 1.000000000000000 -37.100000000000001 
1
1.000000000000000 0.000000000000000 0.000000000000000 22.299999999999713 
0.000000000000000 1.000000000000000 0.000000000000000 -83.394112909449419 
0.000000000000000 0.000000000000000 1.000000000000000 -37.100000000000001 
2  20 -1 14 1 2 1 3 -1 0
2  18 1 19 1 20 -1 14 1 2 1 3 -1 0
1
0.000000000000000 0.000000000000000 -1.000000000000000 -41.299999999999415 
0.000000000000000 1.000000000000000 0.000000000000000 0.000000000000000 
1.000000000000000 0.000000000000000 0.000000000000000 41.099999999999419 
2  7 -1 3 1 2 -1 36 -1 0
2  36 -1 0
2  7 -1 30 -1 0
2  7 -1 32 -1 0
2  7 -1 33 -1 0
1
0.000000000000000 0.000000000000000 -1.000000000000000 -41.299999999999415 
0.000000000000000 1.000000000000000 0.000000000000000 0.000000000000000 
1.000000000000000 0.000000000000000 0.000000000000000 41.099999999999419 
2  7 -1 3 1 2 -1 42 -1 0
1
1.000000000000000 0.000000000000000 0.000000000000000 0.000000000000000 
0.000000000000000 1.000000000000000 0.000000000000000 0.000000000000000 
0.000000000000000 0.000000000000000 1.000000000000000 -0.300000000000000 
2  44 1 42 1 0
2  7 -1 3 1 2 -1 42 -1 44 -1 0
2  42 1 2 1 3 -1 0
Curve2ds 24
1 0.00000000000000000 29.90346387643147352 1.00000000000000000 0.00000000000000000 
1 0.00000000000000000 0.00000000000000000 1.00000000000000000 0.00000000000000000 
1 1.57079632679489656 0.00000000000000000 0.00000000000000000 1.00000000000000000 
1 1.57079632679489656 0.00000000000000000 0.00000000000000000 1.00000000000000000 
1 0.00000000000000000 0.00000000000000000 1.00000000000000000 0.00000000000000000 
1 0.00000000000000000 29.90346387643147352 -0.00000000000000000 -1.00000000000000000 
1 0.00000000000000000 29.90346387643147352 1.00000000000000000 0.00000000000000000 
1 0.00000000000000000 0.00000000000000000 0.00000000000000000 1.00000000000000000 
1 0.00000000000000000 29.90346387643147352 -0.00000000000000000 -1.00000000000000000 
1 6.28318530717958623 37.39999999999999858 -1.00000000000000000 0.00000000000000000 
1 6.28318530717958623 37.39999999999999858 -1.00000000000000000 0.00000000000000000 
1 6.28318530717958623 37.39999999999999858 -1.00000000000000000 0.00000000000000000 
1 0.00000000000000000 0.00000000000000000 0.00000000000000000 1.00000000000000000 
1 6.28318530717958623 37.10000000000000142 -1.00000000000000000 0.00000000000000000 
1 6.28318530717958623 37.10000000000000142 -1.00000000000000000 0.00000000000000000 
1 6.28318530717958623 37.10000000000000142 -1.00000000000000000 0.00000000000000000 
1 0.00000000000000000 29.90346387643147352 1.00000000000000000 0.00000000000000000 
1 0.00000000000000000 0.00000000000000000 1.00000000000000000 0.00000000000000000 
1 0.00000000000000000 29.90346387643147352 1.00000000000000000 0.00000000000000000 
1 1.57079632679489656 0.00000000000000000 0.00000000000000000 1.00000000000000000 
1 6.28318530717958623 0.00000000000000000 0.00000000000000000 1.00000000000000000 
1 0.00000000000000000 0.00000000000000000 0.00000000000000000 1.00000000000000000 
1 0.00000000000000000 0.00000000000000000 1.00000000000000000 0.00000000000000000 
1 1.57079632679489656 0.00000000000000000 0.00000000000000000 1.00000000000000000 
Curves 53
1 41.19999999999942020 -108.29757678588089220 0.29999999999999999 0.00000000000000000 0.00000000000000000 -1.00000000000000000 
1 72.19999999999942020 -108.29757678588089220 0.29999999999999999 0.00000000000000000 0.00000000000000000 -1.00000000000000000 
1 41.19999999999942020 -108.29757678588089220 0.29999999999999999 1.00000000000000000 0.00000000000000000 0.00000000000000000 
1 41.19999999999942020 -108.29757678588089220 0.29999999999999999 1.00000000000000000 0.00000000000000000 0.00000000000000000 
2 41.19999999999942020 -108.29757678588089220 -0.10000000000000003 0.00000000000000000 1.00000000000000000 0.00000000000000000 0.00000000000000000 -0.00000000000000000 1.00000000000000000 1.00000000000000000 0.00000000000000000 -0.00000000000000000 0.40000000000000002
2 41.19999999999942020 -108.29757678588089220 -0.10000000000000003 0.00000000000000000 1.00000000000000000 0.00000000000000000 0.00000000000000000 -0.00000000000000000 1.00000000000000000 1.00000000000000000 0.00000000000000000 -0.00000000000000000 0.10000000000000003
1 41.19999999999942020 -108.29757678588089220 0.00000000000000000 0.00000000000000000 0.00000000000000000 1.00000000000000000 
1 72.19999999999942020 -78.39411290944941868 0.29999999999999999 0.00000000000000000 0.00000000000000000 -1.00000000000000000 
1 72.19999999999942020 -108.29757678588089220 0.29999999999999999 0.00000000000000000 1.00000000000000000 0.00000000000000000 
1 72.19999999999942020 -108.29757678588089220 0.29999999999999999 0.00000000000000000 1.00000000000000000 0.00000000000000000 
1 41.19999999999942020 -78.39411290944941868 0.29999999999999999 0.00000000000000000 -1.00000000000000000 0.00000000000000000 
1 72.19999999999942020 -78.39411290944941868 0.29999999999999999 -1.00000000000000000 0.00000000000000000 0.00000000000000000 
1 41.19999999999942020 -108.29757678588089220 0.00000000000000000 0.00000000000000000 1.00000000000000000 0.00000000000000000 
1 72.19999999999942020 -78.39411290944941868 0.29999999999999999 -1.00000000000000000 0.00000000000000000 0.00000000000000000 
2 41.19999999999942020 -78.39411290944941868 -0.10000000000000003 0.00000000000000000 1.00000000000000000 0.00000000000000000 0.00000000000000000 -0.00000000000000000 1.00000000000000000 1.00000000000000000 0.00000000000000000 -0.00000000000000000 0.40000000000000002
1 41.19999999999942020 -108.29757678588089220 0.00000000000000000 0.00000000000000000 1.00000000000000000 0.00000000000000000 
2 41.19999999999942020 -78.39411290944941868 -0.10000000000000003 0.00000000000000000 1.00000000000000000 0.00000000000000000 0.00000000000000000 -0.00000000000000000 1.00000000000000000 1.00000000000000000 0.00000000000000000 -0.00000000000000000 0.10000000000000003
1 41.19999999999942020 -108.29757678588089220 0.00000000000000000 0.00000000000000000 1.00000000000000000 0.00000000000000000 
1 -41.19999999999942020 -108.29757678588089220 0.00000000000000000 0.00000000000000000 0.00000000000000000 1.00000000000000000 
1 -41.19999999999942020 -108.29757678588089220 0.00000000000000000 1.00000000000000000 0.00000000000000000 0.00000000000000000 
1 -41.19999999999942020 -108.29757678588089220 0.00000000000000000 1.00000000000000000 0.00000000000000000 0.00000000000000000 
1 41.19999999999942020 -78.39411290944941868 0.00000000000000000 0.00000000000000000 0.00000000000000000 1.00000000000000000 
1 41.19999999999942020 -78.39411290944941868 0.00000000000000000 0.00000000000000000 0.00000000000000000 1.00000000000000000 
1 41.19999999999942020 -78.39411290944941868 0.00000000000000000 -1.00000000000000000 0.00000000000000000 0.00000000000000000 
1 -41.19999999999942020 -78.39411290944941868 0.00000000000000000 0.00000000000000000 -1.00000000000000000 0.00000000000000000 
2 0.00000000000002430 -101.21591461128120670 0.29999999999999716 0.00000000000000000 0.00000000000000000 1.00000000000000000 -1.00000000000000000 0.00000000000000000 0.00000000000000000 0.00000000000000000 -1.00000000000000000 0.00000000000000000 1.69999999999999996
2 -22.29999999999971294 -83.39411290944961763 0.29999999999999716 0.00000000000000000 0.00000000000000000 1.00000000000000000 -1.00000000000000000 0.00000000000000000 0.00000000000000000 0.00000000000000000 -1.00000000000000000 0.00000000000000000 1.69999999999999996
2 22.29999999999971294 -83.39411290944941868 0.29999999999999716 0.00000000000000000 0.00000000000000000 1.00000000000000000 -1.00000000000000000 0.00000000000000000 0.00000000000000000 0.00000000000000000 -1.00000000000000000 0.00000000000000000 1.69999999999999996
1 41.19999999999942020 -78.39411290944941868 0.00000000000000000 -1.00000000000000000 0.00000000000000000 0.00000000000000000 
1 -41.19999999999942020 -78.39411290944941868 0.00000000000000000 0.00000000000000000 -1.00000000000000000 0.00000000000000000 
2 0.00000000000002430 -101.21591461128120670 0.00000000000000000 0.00000000000000000 0.00000000000000000 1.00000000000000000 -1.00000000000000000 0.00000000000000000 0.00000000000000000 0.00000000000000000 -1.00000000000000000 0.00000000000000000 1.69999999999999996
2 -22.29999999999971294 -83.39411290944961763 0.00000000000000000 0.00000000000000000 0.00000000000000000 1.00000000000000000 -1.00000000000000000 0.00000000000000000 0.00000000000000000 0.00000000000000000 -1.00000000000000000 0.00000000000000000 1.69999999999999996
2 22.29999999999971294 -83.39411290944941868 0.00000000000000000 0.00000000000000000 0.00000000000000000 1.00000000000000000 -1.00000000000000000 0.00000000000000000 0.00000000000000000 0.00000000000000000 -1.00000000000000000 0.00000000000000000 1.69999999999999996
2 -41.19999999999942020 -108.29757678588089220 -0.10000000000000003 0.00000000000000000 -1.00000000000000000 0.00000000000000000 0.00000000000000000 0.00000000000000000 1.00000000000000000 -1.00000000000000000 0.00000000000000000 0.00000000000000000 0.10000000000000003
2 -41.19999999999942020 -108.29757678588089220 -0.10000000000000003 0.00000000000000000 -1.00000000000000000 0.00000000000000000 0.00000000000000000 0.00000000000000000 1.00000000000000000 -1.00000000000000000 0.00000000000000000 0.00000000000000000 0.40000000000000002
1 -41.19999999999942020 -108.29757678588089220 0.00000000000000000 0.00000000000000000 0.00000000000000000 1.00000000000000000 
1 -41.19999999999942020 -78.39411290944941868 0.00000000000000000 0.00000000000000000 0.00000000000000000 1.00000000000000000 
2 -41.19999999999942020 -78.39411290944941868 -0.10000000000000003 0.00000000000000000 -1.00000000000000000 0.00000000000000000 0.00000000000000000 0.00000000000000000 1.00000000000000000 -1.00000000000000000 0.00000000000000000 0.00000000000000000 0.40000000000000002
1 -41.19999999999942020 -108.29757678588089220 0.29999999999999999 0.00000000000000000 1.00000000000000000 0.00000000000000000 
1 -1.69999999999999996 0.00000000000000000 0.00000000000000000 0.00000000000000006 0.00000000000000000 1.00000000000000000 
1 -1.69999999999999996 0.00000000000000000 0.00000000000000000 0.00000000000000006 0.00000000000000000 1.00000000000000000 
1 -1.69999999999999996 0.00000000000000000 0.00000000000000000 0.00000000000000006 0.00000000000000000 1.00000000000000000 
2 -41.19999999999942020 -78.39411290944941868 -0.10000000000000003 0.00000000000000000 -1.00000000000000000 0.00000000000000000 0.00000000000000000 0.00000000000000000 1.00000000000000000 -1.00000000000000000 0.00000000000000000 0.00000000000000000 0.10000000000000003
1 -41.19999999999942020 -78.39411290944941868 0.00000000000000000 0.00000000000000000 -1.00000000000000000 0.00000000000000000 
1 -72.19999999999942020 -108.29757678588089220 0.29999999999999999 0.00000000000000000 0.00000000000000000 -1.00000000000000000 
1 -72.19999999999942020 -108.29757678588089220 0.29999999999999999 1.00000000000000000 0.00000000000000000 0.00000000000000000 
1 -72.19999999999942020 -108.29757678588089220 0.29999999999999999 1.00000000000000000 0.00000000000000000 0.00000000000000000 
1 -41.19999999999942020 -78.39411290944941868 0.29999999999999999 0.00000000000000000 0.00000000000000000 -1.00000000000000000 
1 -41.19999999999942020 -78.39411290944941868 0.29999999999999999 -1.00000000000000000 0.00000000000000000 0.00000000000000000 
1 -72.19999999999942020 -78.39411290944941868 0.29999999999999999 0.00000000000000000 -1.00000000000000000 0.00000000000000000 
1 -41.19999999999942020 -78.39411290944941868 0.29999999999999999 -1.00000000000000000 0.00000000000000000 0.00000000000000000 
1 -72.19999999999942020 -78.39411290944941868 0.29999999999999999 0.00000000000000000 -1.00000000000000000 0.00000000000000000 
1 -72.19999999999942020 -78.39411290944941868 0.29999999999999999 0.00000000000000000 0.00000000000000000 -1.00000000000000000 
Polygon3D 0
PolygonOnTriangulations 0
Surfaces 25
1 41.19999999999942020 -108.29757678588089220 0.29999999999999999 0.00000000000000000 -1.00000000000000000 0.00000000000000000 1.00000000000000000 0.00000000000000000 0.00000000000000000 -0.00000000000000000 0.00000000000000000 1.00000000000000000 
1 41.19999999999942020 -108.29757678588089220 -0.10000000000000003 0.00000000000000000 1.00000000000000000 0.00000000000000000 0.00000000000000000 -0.00000000000000000 1.00000000000000000 1.00000000000000000 0.00000000000000000 -0.00000000000000000 
2 41.19999999999942020 -78.39411290944941868 -0.10000000000000003 -0.00000000000000000 -1.00000000000000000 -0.00000000000000000 0.00000000000000000 0.00000000000000000 1.00000000000000000 1.00000000000000000 -0.00000000000000000 -0.00000000000000000 0.40000000000000002
2 41.19999999999942020 -108.29757678588089220 -0.10000000000000003 0.00000000000000000 1.00000000000000000 0.00000000000000000 0.00000000000000000 -0.00000000000000000 1.00000000000000000 1.00000000000000000 0.00000000000000000 -0.00000000000000000 0.10000000000000003
1 72.19999999999942020 -108.29757678588089220 0.29999999999999999 1.00000000000000000 0.00000000000000000 0.00000000000000000 -0.00000000000000000 1.00000000000000000 0.00000000000000000 0.00000000000000000 -0.00000000000000000 1.00000000000000000 
1 56.69999999999942730 -93.34584484766514834 0.29999999999999999 0.00000000000000000 0.00000000000000000 1.00000000000000000 1.00000000000000000 0.00000000000000000 -0.00000000000000000 -0.00000000000000000 1.00000000000000000 0.00000000000000000 
1 56.69999999999942730 -93.34584484766514834 0.29999999999999999 0.00000000000000000 0.00000000000000000 1.00000000000000000 1.00000000000000000 0.00000000000000000 -0.00000000000000000 -0.00000000000000000 1.00000000000000000 0.00000000000000000 
1 -41.19999999999942020 -108.29757678588089220 0.00000000000000000 0.00000000000000000 1.00000000000000000 0.00000000000000000 1.00000000000000000 0.00000000000000000 0.00000000000000000 0.00000000000000000 0.00000000000000000 -1.00000000000000000 
1 72.19999999999942020 -78.39411290944941868 0.29999999999999999 0.00000000000000000 1.00000000000000000 0.00000000000000000 -1.00000000000000000 0.00000000000000000 0.00000000000000000 0.00000000000000000 -0.00000000000000000 1.00000000000000000 
1 41.19999999999942020 -78.39411290944941868 -0.10000000000000003 0.00000000000000000 1.00000000000000000 0.00000000000000000 0.00000000000000000 0.00000000000000000 -1.00000000000000000 1.00000000000000000 -0.00000000000000000 -0.00000000000000000 
1 0.00000000000000000 -93.34584484766514834 0.00000000000000000 0.00000000000000000 0.00000000000000000 1.00000000000000000 1.00000000000000000 0.00000000000000000 -0.00000000000000000 -0.00000000000000000 1.00000000000000000 0.00000000000000000 
2 -41.19999999999942020 -108.29757678588089220 -0.10000000000000003 0.00000000000000000 1.00000000000000000 0.00000000000000000 0.00000000000000000 -0.00000000000000000 1.00000000000000000 -1.00000000000000000 -0.00000000000000000 0.00000000000000000 0.40000000000000002
2 0.00000000000000000 0.00000000000000000 0.00000000000000000 0.00000000000000000 0.00000000000000000 1.00000000000000000 -1.00000000000000000 0.00000000000000000 0.00000000000000000 -0.00000000000000000 1.00000000000000000 -0.00000000000000000 1.69999999999999996
2 0.00000000000000000 0.00000000000000000 0.00000000000000000 0.00000000000000000 0.00000000000000000 1.00000000000000000 -1.00000000000000000 0.00000000000000000 0.00000000000000000 -0.00000000000000000 1.00000000000000000 -0.00000000000000000 1.69999999999999996
2 0.00000000000000000 0.00000000000000000 0.00000000000000000 0.00000000000000000 0.00000000000000000 1.00000000000000000 -1.00000000000000000 0.00000000000000000 0.00000000000000000 -0.00000000000000000 1.00000000000000000 -0.00000000000000000 1.69999999999999996
1 0.00000000000000000 -93.34584484766514834 0.00000000000000000 0.00000000000000000 0.00000000000000000 1.00000000000000000 1.00000000000000000 0.00000000000000000 -0.00000000000000000 -0.00000000000000000 1.00000000000000000 0.00000000000000000 
2 -41.19999999999942020 -78.39411290944941868 -0.10000000000000003 0.00000000000000000 -1.00000000000000000 0.00000000000000000 0.00000000000000000 0.00000000000000000 1.00000000000000000 -1.00000000000000000 0.00000000000000000 0.00000000000000000 0.10000000000000003
1 -41.19999999999942020 -108.29757678588089220 -0.10000000000000003 0.00000000000000000 -1.00000000000000000 0.00000000000000000 -0.00000000000000000 -0.00000000000000000 -1.00000000000000000 -1.00000000000000000 -0.00000000000000000 0.00000000000000000 
1 41.19999999999942020 -78.39411290944941868 0.00000000000000000 0.00000000000000000 -1.00000000000000000 0.00000000000000000 -1.00000000000000000 0.00000000000000000 0.00000000000000000 -0.00000000000000000 -0.00000000000000000 -1.00000000000000000 
1 -72.19999999999942020 -108.29757678588089220 0.29999999999999999 0.00000000000000000 -1.00000000000000000 0.00000000000000000 1.00000000000000000 0.00000000000000000 0.00000000000000000 -0.00000000000000000 0.00000000000000000 1.00000000000000000 
1 -41.19999999999942020 -78.39411290944941868 -0.10000000000000003 0.00000000000000000 -1.00000000000000000 0.00000000000000000 0.00000000000000000 0.00000000000000000 1.00000000000000000 -1.00000000000000000 0.00000000000000000 0.00000000000000000 
1 -56.69999999999942730 -93.34584484766514834 0.29999999999999999 0.00000000000000000 0.00000000000000000 1.00000000000000000 1.00000000000000000 0.00000000000000000 -0.00000000000000000 -0.00000000000000000 1.00000000000000000 0.00000000000000000 
1 -56.69999999999942730 -93.34584484766514834 0.29999999999999999 0.00000000000000000 0.00000000000000000 1.00000000000000000 1.00000000000000000 0.00000000000000000 -0.00000000000000000 -0.00000000000000000 1.00000000000000000 0.00000000000000000 
1 -72.19999999999942020 -78.39411290944941868 0.29999999999999999 -1.00000000000000000 -0.00000000000000000 -0.00000000000000000 0.00000000000000000 -1.00000000000000000 0.00000000000000000 -0.00000000000000000 0.00000000000000000 1.00000000000000000 
1 -41.19999999999942020 -78.39411290944941868 0.29999999999999999 0.00000000000000000 1.00000000000000000 0.00000000000000000 -1.00000000000000000 0.00000000000000000 0.00000000000000000 0.00000000000000000 -0.00000000000000000 1.00000000000000000 
Triangulations 0

TShapes 141
Ve
0.000000100000000
41.599999999999419 -108.297576785880892 -0.100000000000001
0 0

0101101
*
Ve
0.000000100000000
41.299999999999422 -108.297576785880892 -0.100000000000001
0 0

0101101
*
Ed
 0.000000100000000 1 1 0
1  1 0 0.000000000000000 0.300000000000000
0

0101000
+141 8 -140 8 *
Ve
0.000000100000000
41.599999999999426 -108.297576785880892 -31.100000000000001
0 0

0101101
*
Ve
0.000000100000000
41.299999999999429 -108.297576785880892 -31.100000000000001
0 0

0101101
*
Ed
 0.000000100000000 1 1 0
1  2 0 0.000000000000000 0.300000000000000
0

0101000
+138 9 -137 9 *
Ed
 0.000000100000000 1 1 0
1  3 0 0.000000000000000 31.000000000000000
0

0101000
+141 9 -138 9 *
Ed
 0.000000100000000 1 1 0
1  4 0 0.000000000000000 31.000000000000000
0

0101000
+140 12 -137 12 *
Wi

0101100
+139 6 -136 5 -135 5 +134 11 *
Fa
0  0.000000100000000 1 5

0111000
+133 0 *
Ve
0.000000100000000
41.199999999999420 -108.297576785880892 0.300000000000000
0 0

0101101
*
Ed
 0.000000100000000 1 1 0
1  5 0 0.000000000000000 1.570796326794897
2  1 3 0 0.000000000000000 1.570796326794897
0

0101000
+131 13 -141 13 *
Ve
0.000000100000000
41.199999999999420 -108.297576785880892 0.000000000000000
0 0

0101101
*
Ed
 0.000000100000000 1 1 0
1  6 0 0.000000000000000 1.570796326794897
2  2 4 0 0.000000000000000 1.570796326794897
0

0101000
+129 13 -140 13 *
Ed
 0.000000100000000 1 1 0
1  7 0 0.000000000000000 0.300000000000000
0

0101000
+129 15 -131 15 *
Wi

0101100
+130 0 -128 0 +127 14 +139 6 *
Fa
0  0.000000100000000 2 0

0111000
+126 0 *
Ve
0.000000100000000
41.599999999999426 -78.394112909449419 -31.100000000000001
0 0

0101101
*
Ve
0.000000100000000
41.299999999999429 -78.394112909449419 -31.100000000000001
0 0

0101101
*
Ed
 0.000000100000000 1 1 0
1  8 0 0.000000000000000 0.300000000000000
0

0101000
+124 9 -123 9 *
Ed
 0.000000100000000 1 1 0
1  9 0 0.000000000000000 29.903463876431474
0

0101000
+138 9 -124 9 *
Ed
 0.000000100000000 1 1 0
1  10 0 0.000000000000000 29.903463876431474
0

0101000
+137 12 -123 12 *
Wi

0101100
+136 0 -122 0 -121 0 +120 10 *
Fa
0  0.000000100000000 5 0

0111000
+119 0 *
Ve
0.000000100000000
41.599999999999419 -78.394112909449419 -0.100000000000001
0 0

0101101
*
Ed
 0.000000100000000 1 1 0
1  11 0 0.000000000000000 29.903463876431474
2  3 3 17 0.000000000000000 29.903463876431474
0

0101000
+117 8 -141 8 *
Ed
 0.000000100000000 1 1 0
1  12 0 0.000000000000000 31.000000000000000
0

0101000
+124 9 -117 9 *
Wi

0101100
+116 6 +135 5 +121 5 +115 5 *
Fa
0  0.000000100000000 6 5

0111000
+114 0 *
Ve
0.000000100000000
41.299999999999422 -78.394112909449419 -0.100000000000001
0 0

0101101
*
Ed
 0.000000100000000 1 1 0
1  13 0 0.000000000000000 29.903463876431474
2  4 4 17 0.000000000000000 29.903463876431474
0

0101000
+140 8 -112 8 *
Ed
 0.000000100000000 1 1 0
1  14 0 0.000000000000000 31.000000000000000
0

0101000
+123 12 -112 12 *
Wi

0101100
-111 6 +134 11 +120 11 +110 11 *
Fa
0  0.000000100000000 7 11

0111000
+109 0 *
Ve
0.000000100000000
41.199999999999420 -78.394112909449419 0.300000000000000
0 0

0101101
*
Ed
 0.000000100000000 1 1 0
1  15 0 0.000000000000000 1.570796326794897
2  5 3 0 0.000000000000000 1.570796326794897
0

0101000
+107 13 -117 13 *
Ed
 0.000000100000000 1 1 0
1  16 0 0.000000000000000 29.903463876431474
2  6 3 23 0.000000000000000 29.903463876431474
0

0101000
+131 24 -107 24 *
Wi

0101100
+106 0 -130 0 +105 22 +116 6 *
Fa
0  0.000000100000000 3 0

0111000
+104 0 *
Ve
0.000000100000000
41.199999999999420 -78.394112909449419 0.000000000000000
0 0

0101101
*
Ed
 0.000000100000000 1 1 0
1  17 0 0.000000000000000 1.570796326794897
2  7 4 0 0.000000000000000 1.570796326794897
0

0101000
+102 13 -112 13 *
Ed
 0.000000100000000 1 1 0
1  18 0 0.000000000000000 29.903463876431474
2  8 4 26 0.000000000000000 29.903463876431474
0

0101000
+129 27 -102 27 *
Wi

0101100
+128 0 -101 0 -100 25 +111 6 *
Fa
0  0.000000100000000 4 0

0111000
+99 0 *
Ve
0.000000100000000
-41.199999999999420 -108.297576785880892 0.000000000000000
0 0

0101101
*
Ve
0.000000100000000
-41.199999999999420 -108.297576785880892 0.300000000000000
0 0

0101101
*
Ed
 0.000000100000000 1 1 0
1  19 0 0.000000000000000 0.300000000000000
0

0101000
+97 15 -96 15 *
Ed
 0.000000100000000 1 1 0
1  20 0 0.000000000000000 82.399999999998840
0

0101000
+97 27 -129 27 *
Ed
 0.000000100000000 1 1 0
1  21 0 0.000000000000000 82.399999999998840
0

0101000
+96 24 -131 24 *
Wi

0101100
+95 14 -127 14 -94 25 +93 22 *
Fa
0  0.000000100000000 8 14

0111000
+92 0 *
Ed
 0.000000100000000 1 1 0
1  22 0 0.000000000000000 0.300000000000000
0

0101000
+112 8 -117 8 *
Wi

0101100
+122 5 +90 6 -115 5 +110 11 *
Fa
0  0.000000100000000 9 5

0111000
+89 0 *
Ed
 0.000000100000000 1 1 0
1  23 0 0.000000000000000 0.300000000000000
0

0101000
+102 15 -107 15 *
Wi

0101100
+101 0 -106 0 -87 14 +90 6 *
Fa
0  0.000000100000000 10 0

0111000
+86 0 *
Ve
0.000000100000000
-41.199999999999420 -78.394112909449419 0.300000000000000
0 0

0101101
*
Ed
 0.000000100000000 1 1 0
1  24 0 0.000000000000000 82.399999999998840
0

0101000
+107 24 -84 24 *
Ed
 0.000000100000000 1 1 0
1  25 0 0.000000000000000 29.903463876431474
2  9 12 23 0.000000000000000 29.903463876431474
0

0101000
+84 24 -96 24 *
Wi

0101100
+83 29 +105 29 +82 29 +93 29 *
Ve
0.000000100000002
-1.699999999999974 -101.215914611281207 0.299999999999997
0 0

0101101
*
Ed
 0.000000100000000 1 1 0
1  26 0 0.000000000000000 6.283185307179586
2  10 13 30 0.000000000000000 6.283185307179586
0

0101100
+80 31 -80 31 *
Wi

0101100
-79 0 *
Ve
0.000000100000004
-23.999999999999709 -83.394112909449618 0.299999999999997
0 0

0101101
*
Ed
 0.000000100000000 1 1 0
1  27 0 0.000000000000000 6.283185307179586
2  11 14 32 0.000000000000000 6.283185307179586
0

0101100
+77 31 -77 31 *
Wi

0101100
-76 0 *
Ve
0.000000100000004
20.599999999999717 -83.394112909449419 0.299999999999997
0 0

0101101
*
Ed
 0.000000100000000 1 1 0
1  28 0 0.000000000000000 6.283185307179586
2  12 15 33 0.000000000000000 6.283185307179586
0

0101100
+74 31 -74 31 *
Wi

0101100
-73 0 *
Fa
0  0.000000100000000 11 28

0111000
+81 0 +78 0 +75 0 +72 0 *
Ve
0.000000100000000
-41.199999999999420 -78.394112909449419 0.000000000000000
0 0

0101101
*
Ed
 0.000000100000000 1 1 0
1  29 0 0.000000000000000 82.399999999998840
0

0101000
+102 27 -70 27 *
Ed
 0.000000100000000 1 1 0
1  30 0 0.000000000000000 29.903463876431474
2  13 17 26 0.000000000000000 29.903463876431474
0

0101000
+70 27 -97 27 *
Wi

0101100
+69 35 +100 35 +68 35 +94 35 *
Ve
0.000000100000002
-1.699999999999974 -101.215914611281207 0.000000000000000
0 0

0101101
*
Ed
 0.000000100000000 1 1 0
1  31 0 0.000000000000000 6.283185307179586
2  14 13 30 0.000000000000000 6.283185307179586
0

0101100
+66 31 -66 31 *
Wi

0101100
-65 0 *
Ve
0.000000100000004
-23.999999999999709 -83.394112909449618 0.000000000000000
0 0

0101101
*
Ed
 0.000000100000000 1 1 0
1  32 0 0.000000000000000 6.283185307179586
2  15 14 32 0.000000000000000 6.283185307179586
0

0101100
+63 31 -63 31 *
Wi

0101100
-62 0 *
Ve
0.000000100000004
20.599999999999717 -83.394112909449419 0.000000000000000
0 0

0101101
*
Ed
 0.000000100000000 1 1 0
1  33 0 0.000000000000000 6.283185307179586
2  16 15 33 0.000000000000000 6.283185307179586
0

0101100
+60 31 -60 31 *
Wi

0101100
-59 0 *
Fa
0  0.000000100000000 16 34

0111000
+67 0 +64 0 +61 0 +58 0 *
Ve
0.000000100000000
-41.299999999999422 -108.297576785880892 -0.100000000000001
0 0

0101101
*
Ed
 0.000000100000000 1 1 0
1  34 0 0.000000000000000 1.570796326794897
2  17 17 0 0.000000000000000 1.570796326794897
0

0101000
+97 13 -56 13 *
Ve
0.000000100000000
-41.599999999999419 -108.297576785880892 -0.100000000000001
0 0

0101101
*
Ed
 0.000000100000000 1 1 0
1  35 0 0.000000000000000 1.570796326794897
2  18 12 0 0.000000000000000 1.570796326794897
0

0101000
+96 13 -54 13 *
Ed
 0.000000100000000 1 1 0
1  36 0 0.000000000000000 0.300000000000000
0

0101000
+56 37 -54 37 *
Wi

0101100
+55 0 -53 0 -95 14 +52 36 *
Fa
0  0.000000100000000 18 0

0111000
+51 0 *
Ed
 0.000000100000000 1 1 0
1  37 0 0.000000000000000 0.300000000000000
0

0101000
+70 15 -84 15 *
Wi

0101100
+87 14 -49 14 -69 25 +83 22 *
Fa
0  0.000000100000000 19 14

0111000
+48 0 *
Ve
0.000000100000000
-41.599999999999419 -78.394112909449419 -0.100000000000001
0 0

0101101
*
Ed
 0.000000100000000 1 1 0
1  38 0 0.000000000000000 1.570796326794897
2  19 12 0 0.000000000000000 1.570796326794897
0

0101000
+84 13 -46 13 *
Ed
 0.000000100000000 1 1 0
1  39 0 0.000000000000000 29.903463876431474
2  20 12 38 0.000000000000000 29.903463876431474
0

0101000
+54 37 -46 37 *
Wi

0101100
+53 0 -45 0 +82 22 +44 36 *
Fa
0  0.000000100000000 12 0

0111000
+43 0 *
Ed
 0.000000100000000 1 1 0
1  40 0 37.100000000000001 37.399999999999999
3  21 22CN 13 0 37.100000000000001 37.399999999999999
0

0101000
+66 39 -80 39 *
Wi

0101100
-65 0 -41 30 +79 0 +41 30 *
Fa
0  0.000000100000000 13 30

0111000
+40 0 *
Ed
 0.000000100000000 1 1 0
1  41 0 37.100000000000001 37.399999999999999
3  21 22CN 14 0 37.100000000000001 37.399999999999999
0

0101000
+63 40 -77 40 *
Wi

0101100
-62 0 -38 32 +76 0 +38 32 *
Fa
0  0.000000100000000 14 32

0111000
+37 0 *
Ed
 0.000000100000000 1 1 0
1  42 0 37.100000000000001 37.399999999999999
3  21 22CN 15 0 37.100000000000001 37.399999999999999
0

0101000
+60 41 -74 41 *
Wi

0101100
-59 0 -35 33 +73 0 +35 33 *
Fa
0  0.000000100000000 15 33

0111000
+34 0 *
Ve
0.000000100000000
-41.299999999999422 -78.394112909449419 -0.100000000000001
0 0

0101101
*
Ed
 0.000000100000000 1 1 0
1  43 0 0.000000000000000 1.570796326794897
2  23 17 0 0.000000000000000 1.570796326794897
0

0101000
+70 13 -32 13 *
Ed
 0.000000100000000 1 1 0
1  44 0 0.000000000000000 29.903463876431474
2  24 17 38 0.000000000000000 29.903463876431474
0

0101000
+32 37 -56 37 *
Wi

0101100
+31 0 -55 0 -68 25 +30 36 *
Fa
0  0.000000100000000 17 0

0111000
+29 0 *
Ve
0.000000100000000
-41.599999999999426 -108.297576785880892 -31.100000000000001
0 0

0101101
*
Ve
0.000000100000000
-41.299999999999429 -108.297576785880892 -31.100000000000001
0 0

0101101
*
Ed
 0.000000100000000 1 1 0
1  45 0 0.000000000000000 0.300000000000000
0

0101000
+27 43 -26 43 *
Ed
 0.000000100000000 1 1 0
1  46 0 0.000000000000000 31.000000000000000
0

0101000
+27 43 -54 43 *
Ed
 0.000000100000000 1 1 0
1  47 0 0.000000000000000 31.000000000000000
0

0101000
+26 46 -56 46 *
Wi

0101100
+25 42 +52 36 -24 42 +23 45 *
Fa
0  0.000000100000000 20 42

0111000
+22 0 *
Ed
 0.000000100000000 1 1 0
1  48 0 0.000000000000000 0.300000000000000
0

0101000
+46 37 -32 37 *
Wi

0101100
+45 0 -31 0 +49 14 +20 36 *
Fa
0  0.000000100000000 21 0

0111000
+19 0 *
Ve
0.000000100000000
-41.599999999999426 -78.394112909449419 -31.100000000000001
0 0

0101101
*
Ed
 0.000000100000000 1 1 0
1  49 0 0.000000000000000 31.000000000000000
0

0101000
+46 43 -17 43 *
Ed
 0.000000100000000 1 1 0
1  50 0 0.000000000000000 29.903463876431474
0

0101000
+17 43 -27 43 *
Wi

0101100
+44 36 +16 42 +15 42 +24 42 *
Fa
0  0.000000100000000 22 42

0111000
+14 0 *
Ve
0.000000100000000
-41.299999999999429 -78.394112909449419 -31.100000000000001
0 0

0101101
*
Ed
 0.000000100000000 1 1 0
1  51 0 0.000000000000000 31.000000000000000
0

0101000
+32 46 -12 46 *
Ed
 0.000000100000000 1 1 0
1  52 0 0.000000000000000 29.903463876431474
0

0101000
+12 46 -26 46 *
Wi

0101100
-30 36 +11 45 +10 45 +23 45 *
Fa
0  0.000000100000000 23 45

0111000
+9 0 *
Ed
 0.000000100000000 1 1 0
1  53 0 0.000000000000000 0.300000000000000
0

0101000
+17 43 -12 43 *
Wi

0101100
+7 0 -25 0 -15 0 +10 44 *
Fa
0  0.000000100000000 24 0

0111000
+6 0 *
Wi

0101100
+20 36 -7 42 -16 42 +11 45 *
Fa
0  0.000000100000000 25 42

0111000
+4 0 *
Sh

0101100
+132 4 -125 4 +118 16 +113 4 -108 4 -103 4 -98 4 -91 4 +88 4 -85 4 
+71 0 -57 0 -50 4 -47 4 -42 4 +39 0 +36 0 +33 0 -28 4 +21 4 
-18 4 +13 4 -8 4 +5 47 +3 4 *
So

0100000
+2 0 *

+1 1 