
CASCADE Topology V1, (c) Matra-Datavision
Locations 62
1
1.000000000000000 0.000000000000000 0.000000000000000 0.000000000000000 
0.000000000000000 1.000000000000000 0.000000000000000 0.000000000000000 
0.000000000000000 0.000000000000000 1.000000000000000 0.000000000000000 
1
1.000000000000000 0.000000000000000 0.000000000000000 0.000000000000000 
0.000000000000000 1.000000000000000 0.000000000000000 0.000000000000000 
0.000000000000000 0.000000000000000 1.000000000000000 0.000000000000000 
1
1.000000000000000 0.000000000000000 0.000000000000000 0.000000000000000 
0.000000000000000 1.000000000000000 0.000000000000000 0.000000000000000 
0.000000000000000 0.000000000000000 1.000000000000000 0.000000000000000 
1
-0.500000000000000 0.866025403784439 0.000000000000000 0.000000000000021 
-0.866025403784439 -0.500000000000000 0.000000000000000 0.000000000000099 
0.000000000000000 0.000000000000000 1.000000000000000 0.000000000000000 
1
1.000000000000000 0.000000000000000 0.000000000000000 0.000000000000000 
0.000000000000000 1.000000000000000 0.000000000000000 0.000000000000000 
0.000000000000000 0.000000000000000 1.000000000000000 0.000000000000000 
1
1.000000000000000 0.000000000000000 0.000000000000000 0.000000000000000 
0.000000000000000 1.000000000000000 0.000000000000000 0.000000000000000 
0.000000000000000 0.000000000000000 1.000000000000000 0.000000000000000 
1
1.000000000000000 0.000000000000000 0.000000000000000 0.000000000000000 
0.000000000000000 1.000000000000000 0.000000000000000 0.000000000000000 
0.000000000000000 0.000000000000000 1.000000000000000 0.000000000000000 
1
1.000000000000000 0.000000000000000 0.000000000000000 0.000000000000000 
0.000000000000000 1.000000000000000 0.000000000000000 0.000000000000000 
0.000000000000000 0.000000000000000 1.000000000000000 0.000000000000000 
2  1 -1 2 1 3 1 4 1 5 1 6 1 7 1 8 -1 0
1
1.000000000000000 0.000000000000000 0.000000000000000 0.000000000000000 
0.000000000000000 1.000000000000000 0.000000000000000 0.000000000000000 
0.000000000000000 0.000000000000000 1.000000000000000 18.000000000000000 
2  1 -1 2 1 3 1 4 1 5 1 6 1 7 1 8 -1 10 1 0
2  2 1 3 1 4 1 5 1 6 1 7 1 8 -1 0
1
1.000000000000000 0.000000000000000 0.000000000000000 0.000000000000000 
0.000000000000000 1.000000000000000 0.000000000000000 0.000000000000000 
0.000000000000000 0.000000000000000 1.000000000000000 0.000000000000000 
2  8 1 7 -1 6 -1 5 -1 13 -1 3 -1 2 -1 0
2  10 -1 8 1 7 -1 6 -1 5 -1 13 -1 3 -1 2 -1 0
1
-0.500000000000001 -0.866025403784439 0.000000000000000 0.000000000000085 
0.866025403784439 -0.500000000000001 0.000000000000000 -0.000000000000028 
0.000000000000000 0.000000000000000 1.000000000000001 0.000000000000000 
2  8 1 7 -1 6 -1 5 -1 16 -1 3 -1 2 -1 0
2  10 -1 8 1 7 -1 6 -1 5 -1 16 -1 3 -1 2 -1 0
2  8 1 7 -1 6 -1 5 -1 4 -1 3 -1 2 -1 0
2  10 -1 8 1 7 -1 6 -1 5 -1 4 -1 3 -1 2 -1 0
2  5 -1 13 -1 3 -1 2 -1 0
2  5 -1 16 -1 3 -1 2 -1 0
2  5 -1 4 -1 3 -1 2 -1 0
2  1 -1 0
2  2 1 3 1 4 1 5 1 6 1 7 1 8 -1 10 1 0
1
1.000000000000000 0.000000000000000 0.000000000000000 0.000000000000000 
0.000000000000000 1.000000000000000 0.000000000000000 0.000000000000000 
0.000000000000000 0.000000000000000 1.000000000000000 0.000000000000000 
1
1.000000000000000 0.000000000000000 0.000000000000000 0.000000000000000 
0.000000000000000 1.000000000000000 0.000000000000000 0.000000000000000 
0.000000000000000 0.000000000000000 1.000000000000000 0.000000000000000 
2  26 1 27 1 13 1 5 1 6 1 7 1 8 -1 0
2  26 1 27 1 13 1 5 1 6 1 7 1 8 -1 10 1 0
2  26 1 27 1 13 1 4 -1 3 -1 2 -1 0
2  8 1 7 -1 6 -1 5 -1 13 -1 27 -1 26 -1 0
2  10 -1 8 1 7 -1 6 -1 5 -1 13 -1 27 -1 26 -1 0
2  5 -1 13 -1 27 -1 26 -1 0
2  8 1 7 -1 6 -1 5 -1 16 -1 27 -1 26 -1 0
2  10 -1 8 1 7 -1 6 -1 5 -1 16 -1 27 -1 26 -1 0
2  8 1 7 -1 6 -1 5 -1 4 -1 27 -1 26 -1 0
2  10 -1 8 1 7 -1 6 -1 5 -1 4 -1 27 -1 26 -1 0
2  5 -1 16 -1 27 -1 26 -1 0
2  5 -1 4 -1 27 -1 26 -1 0
2  6 1 7 1 8 -1 0
2  26 1 27 1 13 1 5 1 0
2  2 1 3 1 13 1 5 1 0
2  26 1 27 1 3 -1 2 -1 0
2  26 1 27 1 16 1 5 1 0
2  1 -1 2 1 3 1 13 1 16 -1 27 -1 26 -1 0
2  2 1 3 1 16 1 5 1 0
2  26 1 27 1 4 1 5 1 0
2  1 -1 2 1 3 1 16 1 4 -1 27 -1 26 -1 0
2  2 1 3 1 4 1 5 1 0
2  1 -1 2 1 3 1 13 1 5 1 6 1 7 1 8 -1 0
2  1 -1 2 1 3 1 13 1 5 1 6 1 7 1 8 -1 10 1 0
2  2 1 3 1 13 1 5 1 6 1 7 1 8 -1 0
2  2 1 3 1 13 1 5 1 6 1 7 1 8 -1 10 1 0
2  26 1 27 1 16 1 5 1 6 1 7 1 8 -1 0
2  26 1 27 1 16 1 5 1 6 1 7 1 8 -1 10 1 0
2  1 -1 2 1 3 1 16 1 5 1 6 1 7 1 8 -1 0
2  1 -1 2 1 3 1 16 1 5 1 6 1 7 1 8 -1 10 1 0
2  2 1 3 1 16 1 5 1 6 1 7 1 8 -1 0
2  2 1 3 1 16 1 5 1 6 1 7 1 8 -1 10 1 0
2  26 1 27 1 4 1 5 1 6 1 7 1 8 -1 0
2  26 1 27 1 4 1 5 1 6 1 7 1 8 -1 10 1 0
2  6 1 7 1 8 -1 10 1 0
Curve2ds 93
1 0.19286202971107003 0.00000000000000000 0.00000000000000000 -1.00000000000000000 
1 3.33445468330086436 0.00000000000000000 0.00000000000000000 -1.00000000000000000 
1 1.51987028381113998 0.00000000000000000 0.00000000000000000 -1.00000000000000000 
1 1.51987028381113998 0.00000000000000000 0.00000000000000000 -1.00000000000000000 
1 1.62172236977865225 0.00000000000000000 0.00000000000000000 -1.00000000000000000 
1 0.00000000000000000 0.00000000000000000 1.00000000000000000 0.00000000000000000 
1 0.00000000000000000 -18.00000000000000000 1.00000000000000000 0.00000000000000000 
1 0.00000000000000000 0.00000000000000000 1.00000000000000000 0.00000000000000000 
1 0.00000000000000000 -18.00000000000000000 1.00000000000000000 0.00000000000000000 
1 0.00000000000000000 0.00000000000000000 1.00000000000000000 0.00000000000000000 
1 0.00000000000000000 -18.00000000000000000 1.00000000000000000 0.00000000000000000 
2 -18.30000000000021743 359.03392597357702698 -1.00000000000000000 0.00000000000000000 0.00000000000000000 1.00000000000000000 25.00000000000015632
2 -301.78250071357899742 -195.36522787604411633 0.50000000000000056 -0.86602540378443837 -0.86602540378443837 -0.50000000000000056 25.00000000000018829
2 320.08250071357934985 -163.66869809753302434 0.50000000000000033 0.86602540378443860 0.86602540378443860 -0.50000000000000033 25.00000000000018829
1 3.66519142925880592 0.00000000000000000 0.00000000000000000 -1.00000000000000000 
1 3.66519142925880592 0.00000000000000000 0.00000000000000000 -1.00000000000000000 
1 0.00000000000000000 0.00000000000000000 1.00000000000000000 0.00000000000000000 
1 0.00000000000000000 -18.00000000000000000 1.00000000000000000 0.00000000000000000 
2 930.37557351721829946 537.15258772989739100 0.50000000000000033 0.86602540378443860 0.86602540378443860 -0.50000000000000033 904.30517559137672379
1 3.33445468330086436 0.00000000000000000 0.00000000000000000 -1.00000000000000000 
1 0.19286202971107003 0.00000000000000000 0.00000000000000000 -1.00000000000000000 
1 0.00000000000000000 0.00000000000000000 1.00000000000000000 0.00000000000000000 
1 0.00000000000000000 -18.00000000000000000 1.00000000000000000 0.00000000000000000 
2 930.37557344124957126 537.15258786147887804 1.00000000000000000 0.00000000000000000 -0.00000000000000000 1.00000000000000000 904.30517559137683747
1 1.51987028381113998 0.00000000000000000 0.00000000000000000 -1.00000000000000000 
1 1.51987028381113998 0.00000000000000000 0.00000000000000000 -1.00000000000000000 
1 0.00000000000000000 0.00000000000000000 1.00000000000000000 0.00000000000000000 
1 0.00000000000000000 -18.00000000000000000 1.00000000000000000 0.00000000000000000 
1 0.00000000000000000 0.00000000000000000 1.00000000000000000 0.00000000000000000 
1 0.00000000000000000 -18.00000000000000000 1.00000000000000000 0.00000000000000000 
1 0.00000000000000000 0.00000000000000000 1.00000000000000000 0.00000000000000000 
1 0.00000000000000000 -18.00000000000000000 1.00000000000000000 0.00000000000000000 
2 18.30000000000017479 359.03392597357702698 1.00000000000000000 0.00000000000000000 -0.00000000000000000 1.00000000000000000 25.00000000000015632
2 -320.08250071357917932 -163.66869809753328013 -0.50000000000000056 0.86602540378443837 -0.86602540378443837 -0.50000000000000056 25.00000000000016342
2 301.78250071357916795 -195.36522787604383211 -0.50000000000000033 -0.86602540378443860 0.86602540378443860 -0.50000000000000033 25.00000000000018829
1 0.00000000000000000 0.00000000000000000 1.00000000000000000 0.00000000000000000 
1 0.00000000000000000 -18.00000000000000000 1.00000000000000000 0.00000000000000000 
1 0.00000000000000000 0.00000000000000000 1.00000000000000000 0.00000000000000000 
1 0.00000000000000000 -18.00000000000000000 1.00000000000000000 0.00000000000000000 
1 0.00000000000000000 0.00000000000000000 1.00000000000000000 0.00000000000000000 
1 0.00000000000000000 -18.00000000000000000 1.00000000000000000 0.00000000000000000 
2 -0.00000000000022053 0.00000000000001764 1.00000000000000000 0.00000000000000000 -0.00000000000000000 1.00000000000000000 384.50000000000011369
2 0.00000000000019860 -0.00000000000012323 -0.50000000000000056 0.86602540378443837 -0.86602540378443837 -0.50000000000000056 384.50000000000028422
2 0.00000000000006510 0.00000000000035004 -0.50000000000000033 -0.86602540378443860 0.86602540378443860 -0.50000000000000033 384.50000000000017053
1 0.00000000000000000 0.00000000000000000 1.00000000000000000 0.00000000000000000 
1 0.00000000000000000 -18.00000000000000000 1.00000000000000000 0.00000000000000000 
1 3.14159265358979223 0.00000000000000000 -1.00000000000000000 -0.00000000000000000 
1 3.14159265358979223 -18.00000000000000000 -1.00000000000000000 0.00000000000000000 
2 0.00000000000017826 0.00000000000001764 -1.00000000000000000 0.00000000000000000 0.00000000000000000 1.00000000000000000 384.50000000000011369
1 0.00000000000000000 0.00000000000000000 1.00000000000000000 0.00000000000000000 
1 0.00000000000000000 -18.00000000000000000 1.00000000000000000 0.00000000000000000 
1 0.00000000000000000 0.00000000000000000 1.00000000000000000 0.00000000000000000 
1 0.00000000000000000 -18.00000000000000000 1.00000000000000000 0.00000000000000000 
2 -930.37557344124957126 537.15258786147887804 -1.00000000000000000 0.00000000000000000 0.00000000000000000 1.00000000000000000 904.30517559137683747
2 -0.00000007596781142 -1074.30517559137638273 0.50000000000000056 -0.86602540378443837 -0.86602540378443837 -0.50000000000000056 904.30517559137695116
1 0.00000000000000000 0.00000000000000000 1.00000000000000000 0.00000000000000000 
1 0.00000000000000000 -18.00000000000000000 1.00000000000000000 0.00000000000000000 
2 -930.37557351721864052 537.15258772989716363 -0.50000000000000056 0.86602540378443837 -0.86602540378443837 -0.50000000000000056 904.30517559137695116
1 0.00000000000000000 0.00000000000000000 1.00000000000000000 0.00000000000000000 
1 0.00000000000000000 -18.00000000000000000 1.00000000000000000 0.00000000000000000 
1 3.14159265358979223 0.00000000000000000 -1.00000000000000000 0.00000000000000000 
1 3.14159265358979223 -18.00000000000000000 -1.00000000000000000 0.00000000000000000 
2 -0.00000000000000079 0.00000000000022214 0.50000000000000056 -0.86602540378443837 -0.86602540378443837 -0.50000000000000056 384.50000000000028422
1 0.00000000000000000 0.00000000000000000 1.00000000000000000 0.00000000000000000 
1 0.00000000000000000 -18.00000000000000000 1.00000000000000000 0.00000000000000000 
2 0.00000007596821679 -1074.30517559137615535 -0.50000000000000033 -0.86602540378443860 0.86602540378443860 -0.50000000000000033 904.30517559137672379
1 0.00000000000000000 0.00000000000000000 1.00000000000000000 0.00000000000000000 
1 0.00000000000000000 -18.00000000000000000 1.00000000000000000 0.00000000000000000 
1 3.14159265358979223 0.00000000000000000 -1.00000000000000000 0.00000000000000000 
1 3.14159265358979223 -18.00000000000000000 -1.00000000000000000 0.00000000000000000 
2 -0.00000000000013429 0.00000000000000467 0.50000000000000033 0.86602540378443860 0.86602540378443860 -0.50000000000000033 384.50000000000017053
1 0.19286202971107003 0.00000000000000000 0.00000000000000000 -1.00000000000000000 
1 3.33445468330086436 0.00000000000000000 0.00000000000000000 -1.00000000000000000 
1 1.51987028381113998 0.00000000000000000 0.00000000000000000 -1.00000000000000000 
1 1.51987028381113998 0.00000000000000000 0.00000000000000000 -1.00000000000000000 
1 1.62172236977865225 0.00000000000000000 0.00000000000000000 -1.00000000000000000 
1 3.66519142925880592 0.00000000000000000 0.00000000000000000 -1.00000000000000000 
1 3.66519142925880592 0.00000000000000000 0.00000000000000000 -1.00000000000000000 
1 3.33445468330086436 0.00000000000000000 0.00000000000000000 -1.00000000000000000 
1 0.19286202971107003 0.00000000000000000 0.00000000000000000 -1.00000000000000000 
1 1.51987028381113998 0.00000000000000000 0.00000000000000000 -1.00000000000000000 
1 1.51987028381113998 0.00000000000000000 0.00000000000000000 -1.00000000000000000 
1 0.19286202971107003 0.00000000000000000 0.00000000000000000 -1.00000000000000000 
1 3.33445468330086436 0.00000000000000000 0.00000000000000000 -1.00000000000000000 
1 1.51987028381113998 0.00000000000000000 0.00000000000000000 -1.00000000000000000 
1 1.51987028381113998 0.00000000000000000 0.00000000000000000 -1.00000000000000000 
1 1.62172236977865225 0.00000000000000000 0.00000000000000000 -1.00000000000000000 
1 3.66519142925880592 0.00000000000000000 0.00000000000000000 -1.00000000000000000 
1 3.66519142925880592 0.00000000000000000 0.00000000000000000 -1.00000000000000000 
1 3.33445468330086436 0.00000000000000000 0.00000000000000000 -1.00000000000000000 
1 0.19286202971107003 0.00000000000000000 0.00000000000000000 -1.00000000000000000 
1 1.51987028381113998 0.00000000000000000 0.00000000000000000 -1.00000000000000000 
1 1.51987028381113998 0.00000000000000000 0.00000000000000000 -1.00000000000000000 
Curves 21
1 336.50049473839658276 -144.81533043546585304 0.00000000000000000 0.00000000000000000 0.00000000000000000 1.00000000000000000 
1 342.34136724442657851 -175.05038781224345712 0.00000000000000000 0.00000000000000000 0.00000000000000000 1.00000000000000000 
2 -18.30000000000019611 359.03392597357697014 0.00000000000000000 0.00000000000000000 0.00000000000000000 -1.00000000000000000 -1.00000000000000000 -0.00000000000000000 -0.00000000000000000 -0.00000000000000000 1.00000000000000000 0.00000000000000000 25.00000000000015987
1 147.22431864335410978 84.99999999999981526 0.00000000000000000 0.00000000000000000 0.00000000000000000 1.00000000000000000 
2 -930.37557344124957126 537.15258786147876435 0.00000000000000000 0.00000000000000000 0.00000000000000000 -1.00000000000000000 -1.00000000000000000 -0.00000000000000000 -0.00000000000000000 -0.00000000000000000 1.00000000000000000 0.00000000000000000 904.30517559137672379
1 42.83649235464709903 363.82564204721620627 0.00000000000000000 0.00000000000000000 0.00000000000000000 1.00000000000000000 
2 930.37557344124957126 537.15258786147876435 0.00000000000000000 0.00000000000000000 0.00000000000000000 1.00000000000000000 1.00000000000000000 0.00000000000000000 -0.00000000000000000 -0.00000000000000000 1.00000000000000000 0.00000000000000000 904.30517559137672379
1 19.57260083449259014 384.00151470609290527 0.00000000000000000 0.00000000000000000 0.00000000000000000 1.00000000000000000 
2 18.30000000000019611 359.03392597357697014 0.00000000000000000 0.00000000000000000 0.00000000000000000 1.00000000000000000 1.00000000000000000 0.00000000000000000 -0.00000000000000000 -0.00000000000000000 1.00000000000000000 0.00000000000000000 25.00000000000015987
2 -0.00000000000019940 -0.00000000000004015 0.00000000000000000 0.00000000000000000 0.00000000000000000 1.00000000000000000 1.00000000000000000 0.00000000000000000 -0.00000000000000000 -0.00000000000000000 1.00000000000000000 0.00000000000000000 384.50000000000011369
2 0.00000000000019940 -0.00000000000004015 0.00000000000000000 0.00000000000000000 0.00000000000000000 -1.00000000000000000 -1.00000000000000000 -0.00000000000000000 -0.00000000000000000 -0.00000000000000000 1.00000000000000000 0.00000000000000000 384.50000000000011369
1 -42.83649235464709903 363.82564204721620627 0.00000000000000000 0.00000000000000000 0.00000000000000000 1.00000000000000000 
1 -19.57260083449257948 384.00151470609301896 0.00000000000000000 0.00000000000000000 0.00000000000000000 1.00000000000000000 
1 -147.22431864335408136 84.99999999999965894 0.00000000000000000 0.00000000000000000 0.00000000000000000 1.00000000000000000 
1 -336.50049473839646907 -144.81533043546608042 0.00000000000000000 0.00000000000000000 0.00000000000000000 1.00000000000000000 
1 -342.34136724442635114 -175.05038781224365607 0.00000000000000000 0.00000000000000000 0.00000000000000000 1.00000000000000000 
1 -293.66400238374933451 -219.01031161175066586 0.00000000000000000 0.00000000000000000 0.00000000000000000 1.00000000000000000 
1 -322.76876640993384626 -208.95112689384990290 0.00000000000000000 0.00000000000000000 0.00000000000000000 1.00000000000000000 
1 0.00000000000024158 -169.99999999999945999 0.00000000000000000 0.00000000000000000 0.00000000000000000 1.00000000000000000 
1 293.66400238374944820 -219.01031161175041007 0.00000000000000000 0.00000000000000000 0.00000000000000000 1.00000000000000000 
1 322.76876640993384626 -208.95112689384956184 0.00000000000000000 0.00000000000000000 0.00000000000000000 1.00000000000000000 
Polygon3D 0
PolygonOnTriangulations 0
Surfaces 19
2 320.08250071357934985 -163.66869809753308118 0.00000000000000000 0.00000000000000000 -0.00000000000000000 -1.00000000000000000 0.50000000000000033 0.86602540378443860 0.00000000000000000 0.86602540378443860 -0.50000000000000033 0.00000000000000000 25.00000000000015987
2 930.37557351721829946 537.15258772989727731 0.00000000000000000 0.00000000000000000 -0.00000000000000000 -1.00000000000000000 0.50000000000000033 0.86602540378443860 0.00000000000000000 0.86602540378443860 -0.50000000000000033 0.00000000000000000 904.30517559137672379
2 -0.00000000000011316 -0.00000000000005313 0.00000000000000000 0.00000000000000000 -0.00000000000000000 -1.00000000000000000 0.50000000000000033 0.86602540378443860 0.00000000000000000 0.86602540378443860 -0.50000000000000033 0.00000000000000000 384.50000000000011369
2 0.00000000000008624 0.00000000000029224 0.00000000000000000 -0.00000000000000000 -0.00000000000000000 -1.00000000000000000 -0.50000000000000033 -0.86602540378443860 0.00000000000000000 0.86602540378443860 -0.50000000000000033 -0.00000000000000000 384.50000000000011369
2 -18.30000000000019611 359.03392597357697014 0.00000000000000000 0.00000000000000000 0.00000000000000000 -1.00000000000000000 -1.00000000000000000 -0.00000000000000000 -0.00000000000000000 -0.00000000000000000 1.00000000000000000 0.00000000000000000 25.00000000000015987
2 -301.78250071357899742 -195.36522787604417317 0.00000000000000000 -0.00000000000000000 0.00000000000000000 -1.00000000000000000 0.50000000000000056 -0.86602540378443837 -0.00000000000000000 -0.86602540378443837 -0.50000000000000056 0.00000000000000000 25.00000000000016698
1 0.00000000000002114 -0.00000000000005780 0.00000000000000000 0.00000000000000000 0.00000000000000000 1.00000000000000000 1.00000000000000000 0.00000000000000000 -0.00000000000000000 -0.00000000000000000 1.00000000000000000 0.00000000000000000 
2 930.37557344124957126 537.15258786147876435 0.00000000000000000 -0.00000000000000000 -0.00000000000000000 -1.00000000000000000 1.00000000000000000 0.00000000000000000 0.00000000000000000 -0.00000000000000000 1.00000000000000000 -0.00000000000000000 904.30517559137672379
2 18.30000000000019611 359.03392597357697014 0.00000000000000000 -0.00000000000000000 -0.00000000000000000 -1.00000000000000000 1.00000000000000000 0.00000000000000000 0.00000000000000000 -0.00000000000000000 1.00000000000000000 -0.00000000000000000 25.00000000000015987
2 -0.00000000000019940 -0.00000000000004015 0.00000000000000000 -0.00000000000000000 -0.00000000000000000 -1.00000000000000000 1.00000000000000000 0.00000000000000000 0.00000000000000000 -0.00000000000000000 1.00000000000000000 -0.00000000000000000 384.50000000000011369
2 -320.08250071357917932 -163.66869809753333698 0.00000000000000000 -0.00000000000000000 -0.00000000000000000 -1.00000000000000000 -0.50000000000000056 0.86602540378443837 0.00000000000000000 -0.86602540378443837 -0.50000000000000056 0.00000000000000000 25.00000000000016698
2 301.78250071357916795 -195.36522787604388895 0.00000000000000000 -0.00000000000000000 -0.00000000000000000 -1.00000000000000000 -0.50000000000000033 -0.86602540378443860 0.00000000000000000 0.86602540378443860 -0.50000000000000033 -0.00000000000000000 25.00000000000015987
2 0.00000000000021974 -0.00000000000018103 0.00000000000000000 -0.00000000000000000 -0.00000000000000000 -1.00000000000000000 -0.50000000000000056 0.86602540378443837 0.00000000000000000 -0.86602540378443837 -0.50000000000000056 0.00000000000000000 384.50000000000022737
2 0.00000000000019940 -0.00000000000004015 0.00000000000000000 0.00000000000000000 0.00000000000000000 -1.00000000000000000 -1.00000000000000000 -0.00000000000000000 -0.00000000000000000 -0.00000000000000000 1.00000000000000000 0.00000000000000000 384.50000000000011369
2 -930.37557344124957126 537.15258786147876435 0.00000000000000000 0.00000000000000000 0.00000000000000000 -1.00000000000000000 -1.00000000000000000 -0.00000000000000000 -0.00000000000000000 -0.00000000000000000 1.00000000000000000 0.00000000000000000 904.30517559137672379
2 -0.00000007596779028 -1074.30517559137638273 0.00000000000000000 -0.00000000000000000 0.00000000000000000 -1.00000000000000000 0.50000000000000056 -0.86602540378443837 -0.00000000000000000 -0.86602540378443837 -0.50000000000000056 0.00000000000000000 904.30517559137695116
2 -930.37557351721864052 537.15258772989704994 0.00000000000000000 -0.00000000000000000 -0.00000000000000000 -1.00000000000000000 -0.50000000000000056 0.86602540378443837 0.00000000000000000 -0.86602540378443837 -0.50000000000000056 0.00000000000000000 904.30517559137695116
2 0.00000000000002034 0.00000000000016434 0.00000000000000000 -0.00000000000000000 0.00000000000000000 -1.00000000000000000 0.50000000000000056 -0.86602540378443837 -0.00000000000000000 -0.86602540378443837 -0.50000000000000056 0.00000000000000000 384.50000000000022737
2 0.00000007596823792 -1074.30517559137615535 0.00000000000000000 -0.00000000000000000 -0.00000000000000000 -1.00000000000000000 -0.50000000000000033 -0.86602540378443860 0.00000000000000000 0.86602540378443860 -0.50000000000000033 -0.00000000000000000 904.30517559137672379
Triangulations 0

TShapes 67
Ve
0.000000100000348
-42.836492354647099 363.825642047216206 0.000000000000000
0 0

0101101
*
Ed
 0.000000100000348 1 1 0
1  1 0 0.000000000000000 18.000000000000000
2  1 1 0 0.000000000000000 18.000000000000000
2  2 2 0 0.000000000000000 18.000000000000000
4 G1 1 0 2 0
0

0101000
+67 9 -67 11 *
Ve
0.000000100000005
-19.572600834492579 384.001514706093246 0.000000000000000
0 0

0101101
*
Ed
 0.000000100000005 1 1 0
1  2 0 0.000000000000000 18.000000000000000
2  3 3 0 0.000000000000000 18.000000000000000
2  4 1 0 0.000000000000000 18.000000000000000
4 G1 3 0 1 0
2  5 4 0 0.000000000000000 18.000000000000000
0

0101000
+65 9 -65 11 *
Ed
 0.000000100000000 1 1 0
1  3 0 0.192862029711070 1.519870283811140
2  6 5 14 0.192862029711070 1.519870283811140
2  7 5 15 0.192862029711070 1.519870283811140
2  8 6 17 0.192862029711070 1.519870283811140
2  9 6 18 0.192862029711070 1.519870283811140
2  10 1 19 0.192862029711070 1.519870283811140
2  11 1 20 0.192862029711070 1.519870283811140
2  12 7 21 0.192862029711070 1.519870283811140
2  13 7 22 0.192862029711070 1.519870283811140
2  14 7 23 0.192862029711070 1.519870283811140
0

0101000
+67 24 -65 24 *
Wi

0101100
+66 0 -64 0 -63 12 +63 25 *
Fa
0  0.000000100000000 1 0

0111000
+62 0 *
Ve
0.000000112022056
147.224318643354195 84.999999999999787 0.000000000000000
0 0

0101101
*
Ed
 0.000000112021745 1 1 0
1  4 0 0.000000000000000 18.000000000000000
2  15 8 0 0.000000000000000 18.000000000000000
2  16 2 0 0.000000000000000 18.000000000000000
4 C2 8 0 2 0
0

0101000
+60 28 -60 29 *
Ed
 0.000000100000000 1 1 0
1  5 0 3.334454683300864 3.665191429258806
2  17 2 19 3.334454683300864 3.665191429258806
2  18 2 20 3.334454683300864 3.665191429258806
2  19 7 23 3.334454683300864 3.665191429258806
0

0101000
+67 24 -60 30 *
Wi

0101100
+66 0 -59 0 -58 12 +58 25 *
Fa
0  0.000000100000000 2 0

0111000
+57 0 *
Ve
0.000000100000348
42.836492354647099 363.825642047216206 0.000000000000000
0 0

0101101
*
Ed
 0.000000100000348 1 1 0
1  6 0 0.000000000000000 18.000000000000000
2  20 8 0 0.000000000000000 18.000000000000000
2  21 9 0 0.000000000000000 18.000000000000000
4 G1 8 0 9 0
0

0101000
+55 28 -55 29 *
Ed
 0.000000100000000 1 1 0
1  7 0 3.334454683300864 3.665191429258806
2  22 8 31 3.334454683300864 3.665191429258806
2  23 8 32 3.334454683300864 3.665191429258806
2  24 7 33 3.334454683300864 3.665191429258806
0

0101000
+55 0 -60 0 *
Wi

0101100
+54 0 -59 0 -53 28 +53 29 *
Fa
0  0.000000100000000 8 0

0111000
+52 0 *
Ve
0.000000100000005
19.572600834492590 384.001514706092905 0.000000000000000
0 0

0101101
*
Ed
 0.000000100000005 1 1 0
1  8 0 0.000000000000000 18.000000000000000
2  25 9 0 0.000000000000000 18.000000000000000
2  26 10 0 0.000000000000000 18.000000000000000
4 G1 9 0 10 0
0

0101000
+50 28 -50 29 *
Ed
 0.000000100000000 1 1 0
1  9 0 0.192862029711070 1.519870283811140
2  27 9 31 0.192862029711070 1.519870283811140
2  28 9 32 0.192862029711070 1.519870283811140
2  29 11 34 0.192862029711070 1.519870283811140
2  30 11 35 0.192862029711070 1.519870283811140
2  31 12 36 0.192862029711070 1.519870283811140
2  32 12 37 0.192862029711070 1.519870283811140
2  33 7 33 0.192862029711070 1.519870283811140
2  34 7 38 0.192862029711070 1.519870283811140
2  35 7 39 0.192862029711070 1.519870283811140
0

0101000
+55 0 -50 0 *
Wi

0101100
+54 0 -49 0 -48 28 +48 29 *
Fa
0  0.000000100000000 9 0

0111000
+47 0 *
Ve
0.000000100000130
0.000000000000012 384.500000000000227 0.000000000000000
0 0

0101101
*
Ed
 0.000000100000000 1 1 0
1  10 0 1.519870283811140 1.570796326794896
2  36 10 31 1.519870283811140 1.570796326794896
2  37 10 32 1.519870283811140 1.570796326794896
2  38 13 34 1.519870283811140 1.570796326794896
2  39 13 35 1.519870283811140 1.570796326794896
2  40 4 36 1.519870283811140 1.570796326794896
2  41 4 37 1.519870283811140 1.570796326794896
2  42 7 33 1.519870283811140 1.570796326794896
2  43 7 38 1.519870283811140 1.570796326794896
2  44 7 39 1.519870283811140 1.570796326794896
0

0101000
+50 0 -45 0 *
Ed
 0.000000100000000 1 1 0
1  11 0 1.519870283811140 1.570796326794896
2  45 14 14 1.519870283811140 1.570796326794896
2  46 14 15 1.519870283811140 1.570796326794896
2  47 10 14 1.519870283811140 1.570796326794896
2  48 10 15 1.519870283811140 1.570796326794896
2  49 7 21 1.519870283811140 1.570796326794896
0

0101000
+65 24 -45 43 *
Ve
0.000000112022056
-147.224318643354110 84.999999999999758 0.000000000000000
0 0

0101101
*
Ed
 0.000000100000000 1 1 0
1  5 0 3.334454683300864 3.665191429258806
2  50 15 14 3.334454683300864 3.665191429258806
2  51 15 15 3.334454683300864 3.665191429258806
2  52 16 17 3.334454683300864 3.665191429258806
2  53 16 18 3.334454683300864 3.665191429258806
2  54 7 21 3.334454683300864 3.665191429258806
2  55 7 22 3.334454683300864 3.665191429258806
0

0101000
+67 24 -42 24 *
Ed
 0.000000100000000 1 1 0
1  7 0 3.334454683300864 3.665191429258806
2  56 17 34 3.334454683300864 3.665191429258806
2  57 17 35 3.334454683300864 3.665191429258806
2  58 7 38 3.334454683300864 3.665191429258806
0

0101000
+55 0 -42 45 *
Ed
 0.000000100000000 1 1 0
1  11 0 1.519870283811140 1.570796326794896
2  59 18 17 1.519870283811140 1.570796326794896
2  60 18 18 1.519870283811140 1.570796326794896
2  61 13 17 1.519870283811140 1.570796326794896
2  62 13 18 1.519870283811140 1.570796326794896
2  63 7 22 1.519870283811140 1.570796326794896
0

0101000
+65 24 -45 43 *
Ed
 0.000000100000000 1 1 0
1  7 0 3.334454683300864 3.665191429258806
2  64 19 36 3.334454683300864 3.665191429258806
2  65 19 37 3.334454683300864 3.665191429258806
2  66 7 39 3.334454683300864 3.665191429258806
0

0101000
+55 0 -42 48 *
Ed
 0.000000100000000 1 1 0
1  11 0 1.519870283811140 1.570796326794896
2  67 3 19 1.519870283811140 1.570796326794896
2  68 3 20 1.519870283811140 1.570796326794896
2  69 4 19 1.519870283811140 1.570796326794896
2  70 4 20 1.519870283811140 1.570796326794896
2  71 7 23 1.519870283811140 1.570796326794896
0

0101000
+65 24 -45 43 *
Wi

0101100
-53 41 +48 41 +44 41 -43 42 -63 42 +41 42 -40 44 +48 44 +44 44 -39 46 
-63 46 +41 46 -38 47 +48 47 +44 47 -37 49 -63 49 +58 49 *
Fa
0  0.000000100000000 7 0

0111000
+36 0 *
Ed
 0.000000100000348 1 1 0
1  12 0 0.000000000000000 18.000000000000000
2  72 5 0 0.000000000000000 18.000000000000000
2  73 15 0 0.000000000000000 18.000000000000000
4 G1 5 0 15 0
0

0101000
+67 50 -67 51 *
Ed
 0.000000100000005 1 1 0
1  13 0 0.000000000000000 18.000000000000000
2  74 14 0 0.000000000000000 18.000000000000000
2  75 5 0 0.000000000000000 18.000000000000000
4 G1 14 0 5 0
2  76 10 0 0.000000000000000 18.000000000000000
0

0101000
+65 50 -65 51 *
Wi

0101100
+34 0 -33 0 -63 52 +63 53 *
Fa
0  0.000000100000000 5 0

0111000
+32 0 *
Ed
 0.000000112021745 1 1 0
1  14 0 0.000000000000000 18.000000000000000
2  77 15 0 0.000000000000000 18.000000000000000
2  78 17 0 0.000000000000000 18.000000000000000
4 C2 15 0 17 0
0

0101000
+42 50 -42 51 *
Wi

0101100
+34 0 -30 0 -41 52 +41 53 *
Fa
0  0.000000100000000 15 0

0111000
+29 0 *
Ed
 0.000000100000348 1 1 0
1  15 0 0.000000000000000 18.000000000000000
2  79 17 0 0.000000000000000 18.000000000000000
2  80 11 0 0.000000000000000 18.000000000000000
4 G1 17 0 11 0
0

0101000
+55 54 -55 55 *
Wi

0101100
+27 0 -30 0 -40 54 +40 55 *
Fa
0  0.000000100000000 17 0

0111000
+26 0 *
Ed
 0.000000100000005 1 1 0
1  16 0 0.000000000000000 18.000000000000000
2  81 11 0 0.000000000000000 18.000000000000000
2  82 13 0 0.000000000000000 18.000000000000000
4 G1 11 0 13 0
0

0101000
+50 54 -50 55 *
Wi

0101100
+27 0 -24 0 -48 54 +48 55 *
Fa
0  0.000000100000000 11 0

0111000
+23 0 *
Ed
 0.000000100000348 1 1 0
1  17 0 0.000000000000000 18.000000000000000
2  83 6 0 0.000000000000000 18.000000000000000
2  84 16 0 0.000000000000000 18.000000000000000
4 G1 6 0 16 0
0

0101000
+67 56 -67 57 *
Ed
 0.000000100000005 1 1 0
1  18 0 0.000000000000000 18.000000000000000
2  85 18 0 0.000000000000000 18.000000000000000
2  86 6 0 0.000000000000000 18.000000000000000
4 G1 18 0 6 0
2  87 13 0 0.000000000000000 18.000000000000000
0

0101000
+65 56 -65 57 *
Wi

0101100
+21 0 -20 0 -63 58 +63 59 *
Fa
0  0.000000100000000 6 0

0111000
+19 0 *
Ed
 0.000000112021745 1 1 0
1  19 0 0.000000000000000 18.000000000000000
2  88 16 0 0.000000000000000 18.000000000000000
2  89 19 0 0.000000000000000 18.000000000000000
4 C2 16 0 19 0
0

0101000
+42 56 -42 57 *
Wi

0101100
+21 0 -17 0 -41 58 +41 59 *
Fa
0  0.000000100000000 16 0

0111000
+16 0 *
Ed
 0.000000100000348 1 1 0
1  20 0 0.000000000000000 18.000000000000000
2  90 19 0 0.000000000000000 18.000000000000000
2  91 12 0 0.000000000000000 18.000000000000000
4 G1 19 0 12 0
0

0101000
+55 60 -55 61 *
Wi

0101100
+14 0 -17 0 -38 60 +38 61 *
Fa
0  0.000000100000000 19 0

0111000
+13 0 *
Ed
 0.000000100000005 1 1 0
1  21 0 0.000000000000000 18.000000000000000
2  92 12 0 0.000000000000000 18.000000000000000
2  93 4 0 0.000000000000000 18.000000000000000
4 G1 12 0 4 0
0

0101000
+50 60 -50 61 *
Wi

0101100
+14 0 -11 0 -48 60 +48 61 *
Fa
0  0.000000100000000 12 0

0111000
+10 0 *
Wi

0101100
-33 0 +43 52 -44 28 +49 0 +44 29 -43 53 *
Fa
0  0.000000100000000 10 0

0111000
+8 0 *
Wi

0101100
-20 0 +39 58 -44 54 +24 0 +44 55 -39 59 *
Fa
0  0.000000100000000 13 0

0111000
+6 0 *
Wi

0101100
-64 0 +37 12 -44 60 +11 0 +44 61 -37 25 *
Fa
0  0.000000100000000 4 0

0111000
+4 0 *
Sh

0101100
+61 0 -56 0 +51 0 -46 0 -35 40 +31 0 -28 0 +25 0 -22 0 +18 0 
-15 0 +12 0 -9 0 +35 62 -7 0 -5 0 -3 0 *
So

1100000
+2 0 *

+1 0 