
CASCADE Topology V1, (c) Matra-Datavision
Locations 40
1
1.000000000000000 0.000000000000000 0.000000000000000 0.000000000000000 
0.000000000000000 1.000000000000000 0.000000000000000 0.000000000000000 
0.000000000000000 0.000000000000000 1.000000000000000 0.000000000000000 
1
1.000000000000000 0.000000000000000 0.000000000000000 0.000000000000000 
0.000000000000000 0.000000000000000 -1.000000000000000 0.000000000000000 
0.000000000000000 1.000000000000000 0.000000000000000 0.000000000000000 
1
1.000000000000000 0.000000000000000 0.000000000000000 0.000000000000000 
0.000000000000000 1.000000000000000 0.000000000000000 0.000000000000000 
0.000000000000000 0.000000000000000 1.000000000000000 0.000000000000000 
2  2 1 3 1 0
1
1.000000000000000 0.000000000000000 0.000000000000000 0.000000000000000 
0.000000000000000 1.000000000000000 0.000000000000000 0.000000000000000 
0.000000000000000 0.000000000000000 1.000000000000000 0.000000000000000 
1
1.000000000000000 0.000000000000000 0.000000000000000 0.000000000000000 
0.000000000000000 1.000000000000000 0.000000000000000 0.000000000000000 
0.000000000000000 0.000000000000000 1.000000000000000 0.000000000000000 
2  5 1 6 -1 1 -1 3 -1 2 -1 0
1
1.000000000000000 0.000000000000000 0.000000000000000 -0.000000000000000 
0.000000000000000 1.000000000000000 0.000000000000000 -3017.652842856512507 
0.000000000000000 0.000000000000000 1.000000000000000 0.000000000000670 
2  8 -1 5 1 6 -1 1 -1 3 -1 2 -1 0
2  3 -1 2 -1 0
1
1.000000000000000 0.000000000000000 0.000000000000000 0.000000000000000 
0.000000000000000 1.000000000000000 0.000000000000000 0.000000000000000 
0.000000000000000 0.000000000000000 1.000000000000000 0.000000000000000 
1
1.000000000000000 0.000000000000000 0.000000000000000 0.000000000000000 
0.000000000000000 1.000000000000000 0.000000000000000 0.000000000000000 
0.000000000000000 0.000000000000000 1.000000000000000 0.000000000000000 
2  11 1 12 -1 1 -1 3 -1 2 -1 0
1
1.000000000000000 0.000000000000000 0.000000000000000 -0.000000000000000 
0.000000000000000 1.000000000000000 0.000000000000000 -3017.652842856513416 
0.000000000000000 0.000000000000000 1.000000000000000 0.000000000000670 
2  14 -1 11 1 12 -1 1 -1 3 -1 2 -1 0
1
1.000000000000000 0.000000000000000 0.000000000000000 0.000000000000000 
0.000000000000000 1.000000000000000 0.000000000000000 0.000000000000000 
0.000000000000000 0.000000000000000 1.000000000000000 0.000000000000000 
1
1.000000000000000 0.000000000000000 0.000000000000000 0.000000000000000 
0.000000000000000 1.000000000000000 0.000000000000000 0.000000000000000 
0.000000000000000 0.000000000000000 1.000000000000000 0.000000000000000 
2  16 1 17 -1 1 -1 3 -1 2 -1 0
1
1.000000000000000 0.000000000000000 0.000000000000000 0.000000000000000 
0.000000000000000 1.000000000000000 0.000000000000000 -3016.993584679953074 
0.000000000000000 0.000000000000000 1.000000000000000 0.000000000000664 
2  19 -1 16 1 17 -1 1 -1 3 -1 2 -1 0
1
1.000000000000000 0.000000000000000 0.000000000000000 0.000000000000000 
0.000000000000000 1.000000000000000 0.000000000000000 0.000000000000000 
0.000000000000000 0.000000000000000 1.000000000000000 0.000000000000000 
1
1.000000000000000 0.000000000000000 0.000000000000000 0.000000000000000 
0.000000000000000 1.000000000000000 0.000000000000000 0.000000000000000 
0.000000000000000 0.000000000000000 1.000000000000000 0.000000000000000 
2  21 1 22 -1 1 -1 3 -1 2 -1 0
1
1.000000000000000 0.000000000000000 0.000000000000000 0.000000000000000 
0.000000000000000 1.000000000000000 0.000000000000000 -3016.993584679953074 
0.000000000000000 0.000000000000000 1.000000000000000 0.000000000000664 
2  24 -1 21 1 22 -1 1 -1 3 -1 2 -1 0
1
1.000000000000000 0.000000000000000 0.000000000000000 0.000000000000000 
0.000000000000000 1.000000000000000 0.000000000000000 0.000000000000000 
0.000000000000000 0.000000000000000 1.000000000000000 0.000000000000000 
1
1.000000000000000 0.000000000000000 0.000000000000000 0.000000000000000 
0.000000000000000 1.000000000000000 0.000000000000000 0.000000000000000 
0.000000000000000 0.000000000000000 1.000000000000000 0.000000000000000 
1
1.000000000000000 0.000000000000000 0.000000000000000 0.000000000000000 
0.000000000000000 1.000000000000000 0.000000000000000 0.000000000000000 
0.000000000000000 0.000000000000000 1.000000000000000 0.000000000000000 
2  26 1 27 -1 28 1 6 -1 1 -1 3 -1 2 -1 0
1
1.000000000000000 0.000000000000000 0.000000000000000 0.000000000000000 
0.000000000000000 1.000000000000000 0.000000000000000 0.000000000000000 
0.000000000000000 0.000000000000000 1.000000000000000 0.000000000000000 
1
1.000000000000000 0.000000000000000 0.000000000000000 0.000000000000000 
0.000000000000000 1.000000000000000 0.000000000000000 0.000000000000000 
0.000000000000000 0.000000000000000 1.000000000000000 0.000000000000000 
1
1.000000000000000 0.000000000000000 0.000000000000000 0.000000000000000 
0.000000000000000 1.000000000000000 0.000000000000000 0.000000000000000 
0.000000000000000 0.000000000000000 1.000000000000000 0.000000000000000 
2  30 1 31 -1 32 1 12 -1 1 -1 3 -1 2 -1 0
1
1.000000000000000 0.000000000000000 0.000000000000000 0.000000000000000 
0.000000000000000 1.000000000000000 0.000000000000000 0.000000000000000 
0.000000000000000 0.000000000000000 1.000000000000000 0.000000000000000 
1
1.000000000000000 0.000000000000000 0.000000000000000 0.000000000000000 
0.000000000000000 1.000000000000000 0.000000000000000 0.000000000000000 
0.000000000000000 0.000000000000000 1.000000000000000 0.000000000000000 
1
1.000000000000000 0.000000000000000 0.000000000000000 0.000000000000000 
0.000000000000000 1.000000000000000 0.000000000000000 0.000000000000000 
0.000000000000000 0.000000000000000 1.000000000000000 0.000000000000000 
2  34 1 35 -1 36 1 17 -1 1 -1 3 -1 2 -1 0
1
1.000000000000000 0.000000000000000 0.000000000000000 0.000000000000000 
0.000000000000000 1.000000000000000 0.000000000000000 0.000000000000000 
0.000000000000000 0.000000000000000 1.000000000000000 0.000000000000000 
1
1.000000000000000 0.000000000000000 0.000000000000000 0.000000000000000 
0.000000000000000 1.000000000000000 0.000000000000000 0.000000000000000 
0.000000000000000 0.000000000000000 1.000000000000000 0.000000000000000 
2  34 1 38 -1 39 1 22 -1 1 -1 3 -1 2 -1 0
Curve2ds 154
1 0.00000000000000000 0.00000000000000000 1.00000000000000000 0.00000000000000000 
1 0.00000000000000000 -3017.65284285651250684 1.00000000000000000 0.00000000000000000 
2 366.95812136529815461 558.50434144116093194 0.00000000000000000 -1.00000000000000000 -1.00000000000000000 -0.00000000000000000 100.00000000000000000
1 0.00000000000000000 0.00000000000000000 1.00000000000000000 0.00000000000000000 
1 0.00000000000000000 -3017.65284285651341634 1.00000000000000000 0.00000000000000000 
1 0.00000000000000000 0.00000000000000000 1.00000000000000000 0.00000000000000000 
1 0.00000000000000000 -3016.99358467995307365 1.00000000000000000 0.00000000000000000 
1 0.00000000000000000 0.00000000000000000 1.00000000000000000 0.00000000000000000 
1 0.00000000000000000 -3016.99358467995307365 1.00000000000000000 0.00000000000000000 
1 0.00000000000000000 0.00000000000000000 1.00000000000000000 0.00000000000000000 
1 0.00000000000000776 -3017.65284285651250684 1.00000000000000000 0.00000000000000000 
1 290.35367705340036082 622.78310240981477364 -0.64278760968653947 -0.76604444311897801 
1 0.00000000000000000 0.00000000000000000 1.00000000000000000 0.00000000000000000 
1 0.00000000000000776 -3017.65284285651341634 1.00000000000000000 0.00000000000000000 
1 0.00000000000000000 0.00000000000000000 1.00000000000000000 0.00000000000000000 
1 0.00000000000042019 -3016.99358467995307365 1.00000000000000000 0.00000000000000000 
1 0.00000000000000000 0.00000000000000000 1.00000000000000000 0.00000000000000000 
1 0.00000000000042019 -3016.99358467995307365 1.00000000000000000 0.00000000000000000 
1 366.95812136529815461 658.50434144116093194 1.00000000000000000 -0.00000000000000000 
1 0.00000000000000000 0.00000000000000000 1.00000000000000000 0.00000000000000000 
1 0.00000000000000000 -3017.65284285651250684 1.00000000000000000 0.00000000000000000 
2 -668.04158784189758080 370.53710975261537897 0.00000000000000000 -1.00000000000000000 -1.00000000000000000 -0.00000000000000000 572.03276831145444703
1 0.00000000000000000 0.00000000000000000 1.00000000000000000 0.00000000000000000 
1 0.00000000000000000 -3017.65284285651341634 1.00000000000000000 0.00000000000000000 
1 0.00000000000000000 0.00000000000000000 1.00000000000000000 0.00000000000000000 
1 0.00000000000000000 -3016.99358467995307365 1.00000000000000000 0.00000000000000000 
1 0.00000000000000000 0.00000000000000000 1.00000000000000000 0.00000000000000000 
1 0.00000000000000000 -3016.99358467995307365 1.00000000000000000 0.00000000000000000 
1 406.95812136529815461 658.50434144116093194 0.00000000000000000 -1.00000000000000000 
1 0.00000000000000000 0.00000000000000000 1.00000000000000000 0.00000000000000000 
1 0.00000000000000000 -3017.65284285651250684 1.00000000000000000 0.00000000000000000 
2 -668.04187863470087905 -226.49565855883912491 0.00000000000000000 -1.00000000000000000 -1.00000000000000000 -0.00000000000000000 24.99999999999997158
1 0.00000000000000000 0.00000000000000000 1.00000000000000000 0.00000000000000000 
1 0.00000000000000000 -3017.65284285651341634 1.00000000000000000 0.00000000000000000 
1 0.00000000000000000 0.00000000000000000 1.00000000000000000 0.00000000000000000 
1 0.00000000000000000 -3016.99358467995307365 1.00000000000000000 0.00000000000000000 
1 0.00000000000000000 0.00000000000000000 1.00000000000000000 0.00000000000000000 
1 0.00000000000000000 -3016.99358467995307365 1.00000000000000000 0.00000000000000000 
1 406.95812136529815461 -351.49565855883906806 -1.00000000000000000 0.00000000000000000 
1 -693.04187863470087905 -326.49565855883906806 0.00000000000000000 1.00000000000000000 
1 0.00000000000000000 0.00000000000000000 1.00000000000000000 0.00000000000000000 
1 0.00000000000000000 -3017.65284285651250684 1.00000000000000000 0.00000000000000000 
2 -668.04187863470087905 -326.49565855883906806 0.00000000000000000 -1.00000000000000000 -1.00000000000000000 -0.00000000000000000 25.00000000000000000
1 0.00000000000000000 0.00000000000000000 1.00000000000000000 0.00000000000000000 
1 0.00000000000000000 -3017.65284285651341634 1.00000000000000000 0.00000000000000000 
1 0.00000000000000000 0.00000000000000000 1.00000000000000000 0.00000000000000000 
1 0.00000000000000000 -3016.99358467995307365 1.00000000000000000 0.00000000000000000 
1 0.00000000000000000 0.00000000000000000 1.00000000000000000 0.00000000000000000 
1 0.00000000000000000 -3016.99358467995307365 1.00000000000000000 0.00000000000000000 
1 68.00405961497062890 56.07662690023437335 -0.64278760968653947 -0.76604444311897801 
1 0.00000000000000000 0.00000000000000000 1.00000000000000000 0.00000000000000000 
1 -0.00000000000000024 -3017.65284285651250684 1.00000000000000000 0.00000000000000000 
1 98.33955556881019788 -3.57212390313460970 -0.64278760968653925 -0.76604444311897812 
1 0.00000000000000000 0.00000000000000000 1.00000000000000000 0.00000000000000000 
1 -0.00000000000000024 -3017.65284285651341634 1.00000000000000000 0.00000000000000000 
1 98.33955556881019788 -3.57212390313460970 -0.64278760968653925 -0.76604444311897812 
1 0.00000000000000000 0.00000000000000000 1.00000000000000000 0.00000000000000000 
1 0.00000000000042704 -3016.99358467995307365 1.00000000000000000 0.00000000000000000 
1 98.33955556881019788 -3.57212390313460970 -0.64278760968653925 -0.76604444311897812 
1 0.00000000000000000 0.00000000000000000 1.00000000000000000 0.00000000000000000 
1 0.00000000000042704 -3016.99358467995307365 1.00000000000000000 0.00000000000000000 
1 98.33955556881019788 -3.57212390313460970 -0.64278760968653925 -0.76604444311897812 
1 0.00000000000000000 0.00000000000000000 1.00000000000000000 0.00000000000000000 
1 0.00000000000000000 -3017.65284285651250684 1.00000000000000000 0.00000000000000000 
2 -27.83546687455918800 30.85202763451443175 0.00000000000000000 -1.00000000000000000 -1.00000000000000000 -0.00000000000000000 57.20327683114544470
2 2.50002907928040141 -28.79672316885457306 0.00000000000000022 -1.00000000000000000 -1.00000000000000000 -0.00000000000000022 57.20327683114544470
1 0.00000000000000000 0.00000000000000000 1.00000000000000000 0.00000000000000000 
1 0.00000000000000000 -3017.65284285651341634 1.00000000000000000 0.00000000000000000 
2 2.50002907928040141 -28.79672316885457306 0.00000000000000022 -1.00000000000000000 -1.00000000000000000 -0.00000000000000022 57.20327683114544470
1 0.00000000000000000 0.00000000000000000 1.00000000000000000 0.00000000000000000 
1 0.00000000000000000 -3016.99358467995307365 1.00000000000000000 0.00000000000000000 
2 2.50002907928040141 -28.79672316885457306 0.00000000000000022 -1.00000000000000000 -1.00000000000000000 -0.00000000000000022 57.20327683114544470
1 0.00000000000000000 0.00000000000000000 1.00000000000000000 0.00000000000000000 
1 0.00000000000000000 -3016.99358467995307365 1.00000000000000000 0.00000000000000000 
2 2.50002907928040141 -28.79672316885457306 0.00000000000000022 -1.00000000000000000 -1.00000000000000000 -0.00000000000000022 57.20327683114544470
1 0.00000000000000000 0.00000000000000000 1.00000000000000000 0.00000000000000000 
1 0.00000000000000000 -3017.65284285651250684 1.00000000000000000 0.00000000000000000 
2 -27.83549595383951214 -28.85124919663101650 0.00000000000000000 -1.00000000000000000 -1.00000000000000000 -0.00000000000000000 2.50000000000000000
2 2.50000000000009059 -88.50000000000002842 0.00000000000000022 -1.00000000000000000 -1.00000000000000000 -0.00000000000000022 2.50000000000000000
1 0.00000000000000000 0.00000000000000000 1.00000000000000000 0.00000000000000000 
1 0.00000000000000000 -3017.65284285651341634 1.00000000000000000 0.00000000000000000 
2 2.50000000000009059 -88.50000000000002842 0.00000000000000022 -1.00000000000000000 -1.00000000000000000 -0.00000000000000022 2.50000000000000000
1 0.00000000000000000 0.00000000000000000 1.00000000000000000 0.00000000000000000 
1 0.00000000000000000 -3016.99358467995307365 1.00000000000000000 0.00000000000000000 
2 2.50000000000009059 -88.50000000000002842 0.00000000000000022 -1.00000000000000000 -1.00000000000000000 -0.00000000000000022 2.50000000000000000
1 0.00000000000000000 0.00000000000000000 1.00000000000000000 0.00000000000000000 
1 0.00000000000000000 -3016.99358467995307365 1.00000000000000000 0.00000000000000000 
2 2.50000000000009059 -88.50000000000002842 0.00000000000000022 -1.00000000000000000 -1.00000000000000000 -0.00000000000000022 2.50000000000000000
1 -30.33549595383951214 -38.85124919663101650 0.00000000000000000 1.00000000000000000 
1 0.00000000000000000 0.00000000000000000 1.00000000000000000 0.00000000000000000 
1 0.00000000000000000 -3017.65284285651250684 1.00000000000000000 0.00000000000000000 
1 0.00000000000009293 -98.50000000000002842 -0.00000000000000022 1.00000000000000000 
1 -98.50000000000002842 -2.00000000000001066 1.00000000000000000 0.00000000000000022 
1 0.00000000000000000 0.00000000000000000 1.00000000000000000 0.00000000000000000 
1 0.00000000000000000 -3017.65284285651341634 1.00000000000000000 0.00000000000000000 
1 0.00000000000009293 -98.50000000000002842 -0.00000000000000022 1.00000000000000000 
1 -98.50000000000002842 -2.00000000000001066 1.00000000000000000 0.00000000000000022 
1 0.00000000000000000 0.00000000000000000 1.00000000000000000 0.00000000000000000 
1 0.00000000000000000 -3016.99358467995307365 1.00000000000000000 0.00000000000000000 
1 0.00000000000009272 -98.50000000000002842 -0.00000000000000022 1.00000000000000000 
1 -98.50000000000002842 -1.99999999999998623 1.00000000000000000 0.00000000000000022 
1 0.00000000000000000 0.00000000000000000 1.00000000000000000 0.00000000000000000 
1 0.00000000000000000 -3016.99358467995307365 1.00000000000000000 0.00000000000000000 
1 0.00000000000009272 -98.50000000000002842 -0.00000000000000022 1.00000000000000000 
1 -98.50000000000002842 -1.99999999999998623 1.00000000000000000 0.00000000000000022 
1 0.00000000000000000 0.00000000000000000 1.00000000000000000 0.00000000000000000 
1 0.00000000000000000 -3017.65284285651250684 1.00000000000000000 0.00000000000000000 
2 -27.83549595383951214 -38.85124919663101650 0.00000000000000000 -1.00000000000000000 -1.00000000000000000 -0.00000000000000000 2.50000000000000000
2 2.50000000000009281 -98.50000000000002842 0.00000000000000022 -1.00000000000000000 -1.00000000000000000 -0.00000000000000022 2.50000000000000000
1 0.00000000000000000 0.00000000000000000 1.00000000000000000 0.00000000000000000 
1 0.00000000000000000 -3017.65284285651341634 1.00000000000000000 0.00000000000000000 
2 2.50000000000009281 -98.50000000000002842 0.00000000000000022 -1.00000000000000000 -1.00000000000000000 -0.00000000000000022 2.50000000000000000
1 0.00000000000000000 0.00000000000000000 1.00000000000000000 0.00000000000000000 
1 0.00000000000000000 -3016.99358467995307365 1.00000000000000000 0.00000000000000000 
2 2.50000000000009281 -98.50000000000002842 0.00000000000000022 -1.00000000000000000 -1.00000000000000000 -0.00000000000000022 2.50000000000000000
1 0.00000000000000000 0.00000000000000000 1.00000000000000000 0.00000000000000000 
1 0.00000000000000000 -3016.99358467995307365 1.00000000000000000 0.00000000000000000 
2 2.50000000000009281 -98.50000000000002842 0.00000000000000022 -1.00000000000000000 -1.00000000000000000 -0.00000000000000022 2.50000000000000000
1 0.00000000000000000 0.00000000000000000 1.00000000000000000 0.00000000000000000 
1 -0.00000000000000000 -3017.65284285651250684 1.00000000000000000 0.00000000000000000 
1 79.66450404616040259 -41.35124919663101650 -1.00000000000000000 0.00000000000000000 
1 0.00000000000000000 0.00000000000000000 1.00000000000000000 0.00000000000000000 
1 -0.00000000000000000 -3017.65284285651341634 1.00000000000000000 0.00000000000000000 
1 0.00000000000000000 0.00000000000000000 1.00000000000000000 0.00000000000000000 
1 0.00000000000066374 -3016.99358467995307365 1.00000000000000000 0.00000000000000000 
1 0.00000000000000000 0.00000000000000000 1.00000000000000000 0.00000000000000000 
1 0.00000000000066374 -3016.99358467995307365 1.00000000000000000 0.00000000000000000 
1 0.00000000000000000 0.00000000000000000 1.00000000000000000 0.00000000000000000 
1 0.00000000000000000 -3017.65284285651250684 1.00000000000000000 0.00000000000000000 
1 79.66450404616040259 59.64875080336898350 0.00000000000000000 -1.00000000000000000 
1 0.00000000000000000 0.00000000000000000 1.00000000000000000 0.00000000000000000 
1 0.00000000000000000 -3017.65284285651341634 1.00000000000000000 0.00000000000000000 
1 0.00000000000000000 0.00000000000000000 1.00000000000000000 0.00000000000000000 
1 0.00000000000000000 -3016.99358467995307365 1.00000000000000000 0.00000000000000000 
1 0.00000000000000000 0.00000000000000000 1.00000000000000000 0.00000000000000000 
1 0.00000000000000000 -3016.99358467995307365 1.00000000000000000 0.00000000000000000 
1 0.00000000000000000 0.00000000000000000 1.00000000000000000 0.00000000000000000 
1 0.00000000000000037 -3017.65284285651250684 1.00000000000000000 0.00000000000000000 
1 75.66450404616040259 59.64875080336898350 1.00000000000000000 -0.00000000000000000 
1 0.00000000000000000 0.00000000000000000 1.00000000000000000 0.00000000000000000 
1 0.00000000000000037 -3017.65284285651341634 1.00000000000000000 0.00000000000000000 
1 0.00000000000000000 0.00000000000000000 1.00000000000000000 0.00000000000000000 
1 -0.00000000000066347 -3016.99358467995307365 1.00000000000000000 0.00000000000000000 
1 0.00000000000000000 0.00000000000000000 1.00000000000000000 0.00000000000000000 
1 -0.00000000000066347 -3016.99358467995307365 1.00000000000000000 0.00000000000000000 
1 0.00000000000000000 0.00000000000000000 1.00000000000000000 0.00000000000000000 
1 0.00000000000000000 -3017.65284285651250684 1.00000000000000000 0.00000000000000000 
2 75.66450404616040259 49.64875080336898350 0.00000000000000000 -1.00000000000000000 -1.00000000000000000 -0.00000000000000000 10.00000000000000000
1 0.00000000000000000 0.00000000000000000 1.00000000000000000 0.00000000000000000 
1 0.00000000000000000 -3017.65284285651341634 1.00000000000000000 0.00000000000000000 
1 0.00000000000000000 0.00000000000000000 1.00000000000000000 0.00000000000000000 
1 0.00000000000000000 -3016.99358467995307365 1.00000000000000000 0.00000000000000000 
1 0.00000000000000000 0.00000000000000000 1.00000000000000000 0.00000000000000000 
1 0.00000000000000000 -3016.99358467995307365 1.00000000000000000 0.00000000000000000 
Curves 18
2 -549.35559063779192002 -287.29361731913775202 0.00000000000000000 0.00000000000000000 0.00000000000000000 1.00000000000000000 1.00000000000000000 0.00000000000000000 -0.00000000000000000 -0.00000000000000000 1.00000000000000000 0.00000000000000000 100.00000000000000000
1 -613.63435160644576172 -210.68917300723995822 0.00000000000000000 0.76604444311897801 0.64278760968653947 0.00000000000000000 
1 -649.35559063779192002 -287.29361731913775202 0.00000000000000000 0.00000000000000000 -1.00000000000000000 0.00000000000000000 
2 -361.38835894924636705 747.70609188805804024 0.00000000000000000 0.00000000000000000 0.00000000000000000 1.00000000000000000 1.00000000000000000 0.00000000000000000 -0.00000000000000000 -0.00000000000000000 1.00000000000000000 0.00000000000000000 572.03276831145444703
1 -649.35559063779192002 -327.29361731913775202 0.00000000000000000 1.00000000000000000 0.00000000000000000 0.00000000000000000 
2 235.64440936220810840 747.70638268086133849 0.00000000000000000 0.00000000000000000 0.00000000000000000 1.00000000000000000 1.00000000000000000 0.00000000000000000 -0.00000000000000000 -0.00000000000000000 1.00000000000000000 0.00000000000000000 25.00000000000000000
1 360.64440936220807998 -327.29361731913775202 0.00000000000000000 0.00000000000000000 1.00000000000000000 0.00000000000000000 
1 335.64440936220807998 772.70638268086133849 0.00000000000000000 -1.00000000000000000 0.00000000000000000 0.00000000000000000 
2 335.64440936220807998 747.70638268086133849 0.00000000000000000 0.00000000000000000 0.00000000000000000 1.00000000000000000 1.00000000000000000 0.00000000000000000 -0.00000000000000000 -0.00000000000000000 1.00000000000000000 0.00000000000000000 25.00000000000000000
1 -46.92787609686538985 11.66044443118978080 0.00000000000000000 0.76604444311897801 0.64278760968653947 0.00000000000000000 
2 -21.70327683114544826 107.49997092071959059 0.00000000000000000 0.00000000000000000 0.00000000000000000 1.00000000000000000 1.00000000000000000 0.00000000000000000 -0.00000000000000000 -0.00000000000000000 1.00000000000000000 0.00000000000000000 57.20327683114544470
2 38.00000000000000000 107.49999999999991473 0.00000000000000000 0.00000000000000000 0.00000000000000000 1.00000000000000000 1.00000000000000000 0.00000000000000000 -0.00000000000000000 -0.00000000000000000 1.00000000000000000 0.00000000000000000 2.50000000000000000
1 48.00000000000000000 109.99999999999991473 0.00000000000000000 -1.00000000000000000 0.00000000000000000 0.00000000000000000 
2 48.00000000000000000 107.49999999999991473 0.00000000000000000 0.00000000000000000 0.00000000000000000 1.00000000000000000 1.00000000000000000 0.00000000000000000 -0.00000000000000000 -0.00000000000000000 1.00000000000000000 0.00000000000000000 2.50000000000000000
1 50.50000000000000000 0.00000000000000000 0.00000000000000000 0.00000000000000000 1.00000000000000000 0.00000000000000000 
1 -50.50000000000000000 0.00000000000000000 0.00000000000000000 1.00000000000000000 0.00000000000000000 0.00000000000000000 
1 -50.50000000000000000 4.00000000000000089 0.00000000000000000 0.00000000000000000 -1.00000000000000000 0.00000000000000000 
2 -40.50000000000000000 4.00000000000000000 0.00000000000000000 0.00000000000000000 0.00000000000000000 1.00000000000000000 1.00000000000000000 0.00000000000000000 -0.00000000000000000 -0.00000000000000000 1.00000000000000000 0.00000000000000000 10.00000000000000000
Polygon3D 0
PolygonOnTriangulations 0
Surfaces 63
1 9.14875080336898350 0.00000000000001769 79.66450404616040259 0.00000000000000000 1.00000000000000000 -0.00000000000000022 0.00000000000000000 -0.00000000000000022 -1.00000000000000000 -1.00000000000000000 0.00000000000000000 -0.00000000000000000 
2 -549.35559063779192002 -0.00000000000006379 -287.29361731913775202 -0.00000000000000000 1.00000000000000000 -0.00000000000000022 1.00000000000000000 0.00000000000000000 0.00000000000000000 -0.00000000000000000 0.00000000000000022 1.00000000000000000 100.00000000000000000
2 -549.35559063779192002 -0.00000000000006379 -287.29361731913775202 -0.00000000000000000 1.00000000000000000 -0.00000000000000022 1.00000000000000000 0.00000000000000000 0.00000000000000000 -0.00000000000000000 0.00000000000000022 1.00000000000000000 100.00000000000000000
2 -549.35559063779192002 0.00000000000000000 -287.29361731913775202 -0.00000000000000000 1.00000000000000000 -0.00000000000000000 1.00000000000000000 0.00000000000000000 0.00000000000000000 -0.00000000000000000 -0.00000000000000000 1.00000000000000000 100.00000000000000000
2 -549.35559063779192002 0.00000000000000000 -287.29361731913775202 -0.00000000000000000 1.00000000000000000 -0.00000000000000000 1.00000000000000000 0.00000000000000000 0.00000000000000000 -0.00000000000000000 -0.00000000000000000 1.00000000000000000 100.00000000000000000
1 -613.63435160644576172 -0.00000000000004678 -210.68917300723995822 -0.64278760968653947 0.00000000000000017 0.76604444311897801 0.76604444311897801 0.00000000000000014 0.64278760968653947 0.00000000000000000 1.00000000000000000 -0.00000000000000022 
1 -613.63435160644576172 -0.00000000000004678 -210.68917300723995822 -0.64278760968653947 0.00000000000000017 0.76604444311897801 0.76604444311897801 0.00000000000000014 0.64278760968653947 0.00000000000000000 1.00000000000000000 -0.00000000000000022 
1 -613.63435160644576172 0.00000000000000000 -210.68917300723995822 -0.64278760968653947 0.00000000000000017 0.76604444311897801 0.76604444311897801 0.00000000000000000 0.64278760968653947 0.00000000000000011 1.00000000000000000 -0.00000000000000013 
1 -613.63435160644576172 0.00000000000000000 -210.68917300723995822 -0.64278760968653947 0.00000000000000017 0.76604444311897801 0.76604444311897801 0.00000000000000000 0.64278760968653947 0.00000000000000011 1.00000000000000000 -0.00000000000000013 
2 -361.38835894924636705 0.00000000000016602 747.70609188805804024 -0.00000000000000000 1.00000000000000000 -0.00000000000000022 1.00000000000000000 0.00000000000000000 0.00000000000000000 -0.00000000000000000 0.00000000000000022 1.00000000000000000 572.03276831145444703
2 -361.38835894924636705 0.00000000000016602 747.70609188805804024 -0.00000000000000000 1.00000000000000000 -0.00000000000000022 1.00000000000000000 0.00000000000000000 0.00000000000000000 -0.00000000000000000 0.00000000000000022 1.00000000000000000 572.03276831145444703
2 -361.38835894924636705 0.00000000000000000 747.70609188805804024 -0.00000000000000000 1.00000000000000000 -0.00000000000000000 1.00000000000000000 0.00000000000000000 0.00000000000000000 -0.00000000000000000 -0.00000000000000000 1.00000000000000000 572.03276831145444703
2 -361.38835894924636705 0.00000000000000000 747.70609188805804024 -0.00000000000000000 1.00000000000000000 -0.00000000000000000 1.00000000000000000 0.00000000000000000 0.00000000000000000 -0.00000000000000000 -0.00000000000000000 1.00000000000000000 572.03276831145444703
2 235.64440936220810840 0.00000000000016602 747.70638268086133849 -0.00000000000000000 1.00000000000000000 -0.00000000000000022 1.00000000000000000 0.00000000000000000 0.00000000000000000 -0.00000000000000000 0.00000000000000022 1.00000000000000000 25.00000000000000000
2 235.64440936220810840 0.00000000000016602 747.70638268086133849 -0.00000000000000000 1.00000000000000000 -0.00000000000000022 1.00000000000000000 0.00000000000000000 0.00000000000000000 -0.00000000000000000 0.00000000000000022 1.00000000000000000 25.00000000000000000
2 235.64440936220810840 0.00000000000000000 747.70638268086133849 -0.00000000000000000 1.00000000000000000 -0.00000000000000000 1.00000000000000000 0.00000000000000000 0.00000000000000000 -0.00000000000000000 -0.00000000000000000 1.00000000000000000 25.00000000000000000
2 235.64440936220810840 0.00000000000000000 747.70638268086133849 -0.00000000000000000 1.00000000000000000 -0.00000000000000000 1.00000000000000000 0.00000000000000000 0.00000000000000000 -0.00000000000000000 -0.00000000000000000 1.00000000000000000 25.00000000000000000
2 335.64440936220807998 0.00000000000016602 747.70638268086133849 -0.00000000000000000 1.00000000000000000 -0.00000000000000022 1.00000000000000000 0.00000000000000000 0.00000000000000000 -0.00000000000000000 0.00000000000000022 1.00000000000000000 25.00000000000000000
2 335.64440936220807998 0.00000000000016602 747.70638268086133849 -0.00000000000000000 1.00000000000000000 -0.00000000000000022 1.00000000000000000 0.00000000000000000 0.00000000000000000 -0.00000000000000000 0.00000000000000022 1.00000000000000000 25.00000000000000000
2 335.64440936220807998 0.00000000000000000 747.70638268086133849 -0.00000000000000000 1.00000000000000000 -0.00000000000000000 1.00000000000000000 0.00000000000000000 0.00000000000000000 -0.00000000000000000 -0.00000000000000000 1.00000000000000000 25.00000000000000000
2 335.64440936220807998 0.00000000000000000 747.70638268086133849 -0.00000000000000000 1.00000000000000000 -0.00000000000000000 1.00000000000000000 0.00000000000000000 0.00000000000000000 -0.00000000000000000 -0.00000000000000000 1.00000000000000000 25.00000000000000000
1 -46.92787609686538985 0.00000000000000259 11.66044443118978080 -0.64278760968653947 0.00000000000000017 0.76604444311897801 0.76604444311897801 0.00000000000000014 0.64278760968653947 0.00000000000000000 1.00000000000000000 -0.00000000000000022 
1 -50.50000000000002132 0.00000000000003564 109.99999999999998579 0.00000000000000022 1.00000000000000000 -0.00000000000000022 0.00000000000000022 -0.00000000000000022 -1.00000000000000000 -1.00000000000000000 0.00000000000000022 -0.00000000000000022 
1 -46.92787609686538985 0.00000000000000259 11.66044443118978080 -0.64278760968653947 0.00000000000000017 0.76604444311897801 0.76604444311897801 0.00000000000000014 0.64278760968653947 0.00000000000000000 1.00000000000000000 -0.00000000000000022 
1 -50.50000000000002132 0.00000000000003564 109.99999999999998579 0.00000000000000022 1.00000000000000000 -0.00000000000000022 0.00000000000000022 -0.00000000000000022 -1.00000000000000000 -1.00000000000000000 0.00000000000000022 -0.00000000000000022 
1 -46.92787609686538985 0.00000000000000000 11.66044443118978080 -0.64278760968653947 0.00000000000000017 0.76604444311897801 0.76604444311897801 0.00000000000000000 0.64278760968653947 0.00000000000000011 1.00000000000000000 -0.00000000000000013 
1 -50.50000000000002132 0.00000000000003564 109.99999999999998579 0.00000000000000022 1.00000000000000000 -0.00000000000000022 0.00000000000000022 -0.00000000000000022 -1.00000000000000000 -1.00000000000000000 0.00000000000000022 -0.00000000000000022 
1 -46.92787609686538985 0.00000000000000000 11.66044443118978080 -0.64278760968653947 0.00000000000000017 0.76604444311897801 0.76604444311897801 0.00000000000000000 0.64278760968653947 0.00000000000000011 1.00000000000000000 -0.00000000000000013 
2 -21.70327683114544826 0.00000000000002387 107.49997092071959059 -0.00000000000000000 1.00000000000000000 -0.00000000000000022 1.00000000000000000 0.00000000000000000 0.00000000000000000 -0.00000000000000000 0.00000000000000022 1.00000000000000000 57.20327683114544470
2 -21.70327683114544826 0.00000000000002387 107.49997092071959059 -0.00000000000000000 1.00000000000000000 -0.00000000000000022 1.00000000000000000 0.00000000000000000 0.00000000000000000 -0.00000000000000000 0.00000000000000022 1.00000000000000000 57.20327683114544470
2 -21.70327683114544826 0.00000000000000000 107.49997092071959059 -0.00000000000000000 1.00000000000000000 -0.00000000000000000 1.00000000000000000 0.00000000000000000 0.00000000000000000 -0.00000000000000000 -0.00000000000000000 1.00000000000000000 57.20327683114544470
2 -21.70327683114544826 0.00000000000000000 107.49997092071959059 -0.00000000000000000 1.00000000000000000 -0.00000000000000000 1.00000000000000000 0.00000000000000000 0.00000000000000000 -0.00000000000000000 -0.00000000000000000 1.00000000000000000 57.20327683114544470
2 38.00000000000000000 0.00000000000002387 107.49999999999991473 -0.00000000000000000 1.00000000000000000 -0.00000000000000022 1.00000000000000000 0.00000000000000000 0.00000000000000000 -0.00000000000000000 0.00000000000000022 1.00000000000000000 2.50000000000000000
2 38.00000000000000000 0.00000000000002387 107.49999999999991473 -0.00000000000000000 1.00000000000000000 -0.00000000000000022 1.00000000000000000 0.00000000000000000 0.00000000000000000 -0.00000000000000000 0.00000000000000022 1.00000000000000000 2.50000000000000000
2 38.00000000000000000 0.00000000000000000 107.49999999999991473 -0.00000000000000000 1.00000000000000000 -0.00000000000000000 1.00000000000000000 0.00000000000000000 0.00000000000000000 -0.00000000000000000 -0.00000000000000000 1.00000000000000000 2.50000000000000000
2 38.00000000000000000 0.00000000000000000 107.49999999999991473 -0.00000000000000000 1.00000000000000000 -0.00000000000000000 1.00000000000000000 0.00000000000000000 0.00000000000000000 -0.00000000000000000 -0.00000000000000000 1.00000000000000000 2.50000000000000000
1 48.00000000000000000 0.00000000000002442 109.99999999999991473 -0.00000000000000000 -0.00000000000000022 -1.00000000000000000 -1.00000000000000000 0.00000000000000000 0.00000000000000000 0.00000000000000000 1.00000000000000000 -0.00000000000000022 
1 -50.50000000000002132 -1.99999999999996447 109.99999999999998579 -0.00000000000000028 0.00000000000000000 1.00000000000000000 -1.00000000000000000 0.00000000000000022 -0.00000000000000028 -0.00000000000000022 -1.00000000000000000 -0.00000000000000000 
1 48.00000000000000000 0.00000000000002442 109.99999999999991473 -0.00000000000000000 -0.00000000000000022 -1.00000000000000000 -1.00000000000000000 0.00000000000000000 0.00000000000000000 0.00000000000000000 1.00000000000000000 -0.00000000000000022 
1 -50.50000000000002132 -1.99999999999996447 109.99999999999998579 -0.00000000000000028 0.00000000000000000 1.00000000000000000 -1.00000000000000000 0.00000000000000022 -0.00000000000000028 -0.00000000000000022 -1.00000000000000000 -0.00000000000000000 
1 48.00000000000000000 0.00000000000000000 109.99999999999991473 -0.00000000000000000 -0.00000000000000022 -1.00000000000000000 -1.00000000000000000 0.00000000000000000 0.00000000000000000 0.00000000000000000 1.00000000000000000 -0.00000000000000022 
1 -50.50000000000002132 -1.99999999999996447 109.99999999999998579 -0.00000000000000028 0.00000000000000000 1.00000000000000000 -1.00000000000000000 0.00000000000000022 -0.00000000000000028 -0.00000000000000022 -1.00000000000000000 -0.00000000000000000 
1 48.00000000000000000 0.00000000000000000 109.99999999999991473 -0.00000000000000000 -0.00000000000000022 -1.00000000000000000 -1.00000000000000000 0.00000000000000000 0.00000000000000000 0.00000000000000000 1.00000000000000000 -0.00000000000000022 
2 48.00000000000000000 0.00000000000002387 107.49999999999991473 -0.00000000000000000 1.00000000000000000 -0.00000000000000022 1.00000000000000000 0.00000000000000000 0.00000000000000000 -0.00000000000000000 0.00000000000000022 1.00000000000000000 2.50000000000000000
2 48.00000000000000000 0.00000000000002387 107.49999999999991473 -0.00000000000000000 1.00000000000000000 -0.00000000000000022 1.00000000000000000 0.00000000000000000 0.00000000000000000 -0.00000000000000000 0.00000000000000022 1.00000000000000000 2.50000000000000000
2 48.00000000000000000 0.00000000000000000 107.49999999999991473 -0.00000000000000000 1.00000000000000000 -0.00000000000000000 1.00000000000000000 0.00000000000000000 0.00000000000000000 -0.00000000000000000 -0.00000000000000000 1.00000000000000000 2.50000000000000000
2 48.00000000000000000 0.00000000000000000 107.49999999999991473 -0.00000000000000000 1.00000000000000000 -0.00000000000000000 1.00000000000000000 0.00000000000000000 0.00000000000000000 -0.00000000000000000 -0.00000000000000000 1.00000000000000000 2.50000000000000000
1 50.50000000000000000 0.00000000000000000 0.00000000000000000 -1.00000000000000000 0.00000000000000000 -0.00000000000000000 0.00000000000000000 0.00000000000000022 1.00000000000000000 0.00000000000000000 1.00000000000000000 -0.00000000000000022 
1 50.50000000000000000 0.00000000000000000 0.00000000000000000 -1.00000000000000000 0.00000000000000000 -0.00000000000000000 0.00000000000000000 0.00000000000000022 1.00000000000000000 0.00000000000000000 1.00000000000000000 -0.00000000000000022 
1 50.50000000000000000 0.00000000000000000 0.00000000000000000 -1.00000000000000000 0.00000000000000000 0.00000000000000000 0.00000000000000000 0.00000000000000000 1.00000000000000000 0.00000000000000000 1.00000000000000000 -0.00000000000000000 
1 50.50000000000000000 0.00000000000000000 0.00000000000000000 -1.00000000000000000 0.00000000000000000 0.00000000000000000 0.00000000000000000 0.00000000000000000 1.00000000000000000 0.00000000000000000 1.00000000000000000 -0.00000000000000000 
1 -50.50000000000000000 0.00000000000000000 0.00000000000000000 -0.00000000000000000 0.00000000000000022 1.00000000000000000 1.00000000000000000 0.00000000000000000 0.00000000000000000 0.00000000000000000 1.00000000000000000 -0.00000000000000022 
1 -50.50000000000000000 0.00000000000000000 0.00000000000000000 -0.00000000000000000 0.00000000000000022 1.00000000000000000 1.00000000000000000 0.00000000000000000 0.00000000000000000 0.00000000000000000 1.00000000000000000 -0.00000000000000022 
1 -50.50000000000000000 0.00000000000000000 0.00000000000000000 -0.00000000000000000 0.00000000000000022 1.00000000000000000 1.00000000000000000 0.00000000000000000 0.00000000000000000 0.00000000000000000 1.00000000000000000 -0.00000000000000022 
1 -50.50000000000000000 0.00000000000000000 0.00000000000000000 -0.00000000000000000 0.00000000000000022 1.00000000000000000 1.00000000000000000 0.00000000000000000 0.00000000000000000 0.00000000000000000 1.00000000000000000 -0.00000000000000022 
1 -50.50000000000000000 0.00000000000000089 4.00000000000000089 1.00000000000000000 -0.00000000000000000 0.00000000000000000 0.00000000000000000 -0.00000000000000022 -1.00000000000000000 0.00000000000000000 1.00000000000000000 -0.00000000000000022 
1 -50.50000000000000000 0.00000000000000089 4.00000000000000089 1.00000000000000000 -0.00000000000000000 0.00000000000000000 0.00000000000000000 -0.00000000000000022 -1.00000000000000000 0.00000000000000000 1.00000000000000000 -0.00000000000000022 
1 -50.50000000000000000 0.00000000000000000 4.00000000000000089 1.00000000000000000 0.00000000000000000 0.00000000000000000 0.00000000000000000 0.00000000000000000 -1.00000000000000000 -0.00000000000000000 1.00000000000000000 0.00000000000000000 
1 -50.50000000000000000 0.00000000000000000 4.00000000000000089 1.00000000000000000 0.00000000000000000 0.00000000000000000 0.00000000000000000 0.00000000000000000 -1.00000000000000000 -0.00000000000000000 1.00000000000000000 0.00000000000000000 
2 -40.50000000000000000 0.00000000000000089 4.00000000000000000 -0.00000000000000000 1.00000000000000000 -0.00000000000000022 1.00000000000000000 0.00000000000000000 0.00000000000000000 -0.00000000000000000 0.00000000000000022 1.00000000000000000 10.00000000000000000
2 -40.50000000000000000 0.00000000000000089 4.00000000000000000 -0.00000000000000000 1.00000000000000000 -0.00000000000000022 1.00000000000000000 0.00000000000000000 0.00000000000000000 -0.00000000000000000 0.00000000000000022 1.00000000000000000 10.00000000000000000
2 -40.50000000000000000 0.00000000000000000 4.00000000000000000 -0.00000000000000000 1.00000000000000000 -0.00000000000000000 1.00000000000000000 0.00000000000000000 0.00000000000000000 -0.00000000000000000 -0.00000000000000000 1.00000000000000000 10.00000000000000000
2 -40.50000000000000000 0.00000000000000000 4.00000000000000000 -0.00000000000000000 1.00000000000000000 -0.00000000000000000 1.00000000000000000 0.00000000000000000 0.00000000000000000 -0.00000000000000000 -0.00000000000000000 1.00000000000000000 10.00000000000000000
Triangulations 0

TShapes 40
Ve
0.000001000000000
-613.634351606445762 -0.000000000000047 -210.689173007239958
0 0

0101101
*
Ve
0.000001000000000
-649.355590637791920 -0.000000000000064 -287.293617319137752
0 0

0101101
*
Ed
 0.000001000000000 1 1 0
1  1 0 2.268928027592628 3.141592653589793
2  1 2 7 2.268928027592628 3.141592653589793
2  2 2 9 2.268928027592628 3.141592653589793
2  3 1 10 2.268928027592628 3.141592653589793
2  4 3 13 2.268928027592628 3.141592653589793
2  5 3 15 2.268928027592628 3.141592653589793
2  6 4 18 2.268928027592628 3.141592653589793
2  7 4 20 2.268928027592628 3.141592653589793
2  8 5 23 2.268928027592628 3.141592653589793
2  9 5 25 2.268928027592628 3.141592653589793
0

0101000
+40 10 -39 10 *
Ve
0.000001000000053
6.307216856047290 0.000000000000069 309.503568441102630
0 0

0101101
*
Ed
 0.000001000000000 1 1 0
1  2 0 0.000000000000000 809.276242431024457
2  10 6 7 0.000000000000000 809.276242431024457
2  11 6 9 0.000000000000000 809.276242431024457
2  12 1 10 0.000000000000000 809.276242431024457
2  13 7 13 0.000000000000000 809.276242431024457
2  14 7 15 0.000000000000000 809.276242431024457
2  15 8 18 0.000000000000000 809.276242431024457
2  16 8 20 0.000000000000000 809.276242431024457
2  17 9 23 0.000000000000000 809.276242431024457
2  18 9 25 0.000000000000000 809.276242431024457
0

0101000
+40 10 -37 10 *
Ve
0.000001000000000
-649.355590637791920 -0.000000000000073 -327.293617319137752
0 0

0101101
*
Ed
 0.000001000000000 1 1 0
1  3 0 0.000000000000000 40.000000000000007
2  19 1 10 0.000000000000000 40.000000000000007
0

0101000
+39 10 -35 10 *
Ve
0.000001000162633
210.644409362171160 0.000000000000166 747.706382680703086
0 0

0101101
*
Ed
 0.000001000000000 1 1 0
1  4 0 5.410520681182422 6.283185815528937
2  20 10 7 5.410520681182422 6.283185815528937
2  21 10 9 5.410520681182422 6.283185815528937
2  22 1 10 5.410520681182422 6.283185815528937
2  23 11 13 5.410520681182422 6.283185815528937
2  24 11 15 5.410520681182422 6.283185815528937
2  25 12 18 5.410520681182422 6.283185815528937
2  26 12 20 5.410520681182422 6.283185815528937
2  27 13 23 5.410520681182422 6.283185815528937
2  28 13 25 5.410520681182422 6.283185815528937
0

0101000
+37 10 -33 10 *
Ve
0.000001000000000
360.644409362208080 -0.000000000000073 -327.293617319137752
0 0

0101101
*
Ed
 0.000001000000000 1 1 0
1  5 0 0.000000000000000 1010.000000000000000
2  29 1 10 0.000000000000000 1010.000000000000000
0

0101000
+35 10 -31 10 *
Ve
0.000001000000000
235.644409362208108 0.000000000000172 772.706382680861338
0 0

0101101
*
Ed
 0.000001000000000 1 1 0
1  6 0 1.570796326794896 3.141592653589796
2  30 14 7 1.570796326794896 3.141592653589796
2  31 14 9 1.570796326794896 3.141592653589796
2  32 1 10 1.570796326794896 3.141592653589796
2  33 15 13 1.570796326794896 3.141592653589796
2  34 15 15 1.570796326794896 3.141592653589796
2  35 16 18 1.570796326794896 3.141592653589796
2  36 16 20 1.570796326794896 3.141592653589796
2  37 17 23 1.570796326794896 3.141592653589796
2  38 17 25 1.570796326794896 3.141592653589796
0

0101000
+29 10 -33 10 *
Ve
0.000001000000000
360.644409362208080 0.000000000000166 747.706382680861338
0 0

0101101
*
Ed
 0.000001000000000 1 1 0
1  7 0 0.000000000000000 1074.999999999999091
2  39 1 10 0.000000000000000 1074.999999999999091
0

0101000
+31 10 -27 10 *
Ve
0.000001000000000
335.644409362208080 0.000000000000172 772.706382680861338
0 0

0101101
*
Ed
 0.000001000000000 1 1 0
1  8 0 0.000000000000000 100.000000000000000
2  40 1 10 0.000000000000000 100.000000000000000
0

0101000
+25 10 -29 10 *
Ed
 0.000001000000000 1 1 0
1  9 0 0.000000000000000 1.570796326794896
2  41 18 7 0.000000000000000 1.570796326794896
2  42 18 9 0.000000000000000 1.570796326794896
2  43 1 10 0.000000000000000 1.570796326794896
2  44 19 13 0.000000000000000 1.570796326794896
2  45 19 15 0.000000000000000 1.570796326794896
2  46 20 18 0.000000000000000 1.570796326794896
2  47 20 20 0.000000000000000 1.570796326794896
2  48 21 23 0.000000000000000 1.570796326794896
2  49 21 25 0.000000000000000 1.570796326794896
0

0101000
+27 10 -25 10 *
Wi

0101100
-38 4 +36 4 -34 4 +32 4 -30 4 -28 4 -26 4 -24 4 -23 4 *
Ve
0.001000000000013
-46.927876096865390 0.000000000000003 11.660444431189781
0 0

0101101
*
Ve
0.001000000000015
15.066280749383919 0.000000000000014 63.679718576024037
0 0

0101101
*
Ed
 0.001000000000013 1 1 0
1  10 0 0.000000000000000 80.927624243102443
2  50 1 10 0.000000000000000 80.927624243102443
2  51 22 7 0.000000000000000 80.927624243102443
2  52 22 9 0.000000000000000 80.927624243102443
2  53 23 29 0.000000000000000 80.927624243102443
2  54 24 13 0.000000000000000 80.927624243102443
2  55 24 15 0.000000000000000 80.927624243102443
2  56 25 33 0.000000000000000 80.927624243102443
2  57 26 18 0.000000000000000 80.927624243102443
2  58 26 20 0.000000000000000 80.927624243102443
2  59 27 37 0.000000000000000 80.927624243102443
2  60 28 23 0.000000000000000 80.927624243102443
2  61 28 25 0.000000000000000 80.927624243102443
2  62 27 40 0.000000000000000 80.927624243102443
0

0101000
+21 10 -20 10 *
Ve
0.001000000000016
35.499999999996305 0.000000000000024 107.499999999984084
0 0

0101101
*
Ed
 0.001000000000015 1 1 0
1  11 0 5.410520681182422 6.283185815528937
2  63 29 7 5.410520681182422 6.283185815528937
2  64 29 9 5.410520681182422 6.283185815528937
2  65 1 10 5.410520681182422 6.283185815528937
2  66 23 29 5.410520681182422 6.283185815528937
2  67 30 13 5.410520681182422 6.283185815528937
2  68 30 15 5.410520681182422 6.283185815528937
2  69 25 33 5.410520681182422 6.283185815528937
2  70 31 18 5.410520681182422 6.283185815528937
2  71 31 20 5.410520681182422 6.283185815528937
2  72 27 37 5.410520681182422 6.283185815528937
2  73 32 23 5.410520681182422 6.283185815528937
2  74 32 25 5.410520681182422 6.283185815528937
2  75 27 40 5.410520681182422 6.283185815528937
0

0101000
+20 10 -18 10 *
Ve
0.001000000000202
38.000000000000000 0.000000000000024 109.999999999999915
0 0

0101101
*
Ed
 0.001000000000016 1 1 0
1  12 0 1.570796326794896 3.141592653589796
2  76 33 7 1.570796326794896 3.141592653589796
2  77 33 9 1.570796326794896 3.141592653589796
2  78 1 10 1.570796326794896 3.141592653589796
2  79 23 29 1.570796326794896 3.141592653589796
2  80 34 13 1.570796326794896 3.141592653589796
2  81 34 15 1.570796326794896 3.141592653589796
2  82 25 33 1.570796326794896 3.141592653589796
2  83 35 18 1.570796326794896 3.141592653589796
2  84 35 20 1.570796326794896 3.141592653589796
2  85 27 37 1.570796326794896 3.141592653589796
2  86 36 23 1.570796326794896 3.141592653589796
2  87 36 25 1.570796326794896 3.141592653589796
2  88 27 40 1.570796326794896 3.141592653589796
0

0101000
+16 10 -18 10 *
Ve
0.001000000000202
48.000000000000000 0.000000000000024 109.999999999999915
0 0

0101101
*
Ed
 0.001000000000101 1 1 0
1  13 0 0.000000000000000 10.000000000000000
2  89 1 10 0.000000000000000 10.000000000000000
2  90 37 7 0.000000000000000 10.000000000000000
2  91 37 9 0.000000000000000 10.000000000000000
2  92 23 29 0.000000000000000 10.000000000000000
2  93 38 29 0.000000000000000 10.000000000000000
2  94 39 13 0.000000000000000 10.000000000000000
2  95 39 15 0.000000000000000 10.000000000000000
2  96 25 33 0.000000000000000 10.000000000000000
2  97 40 33 0.000000000000000 10.000000000000000
2  98 41 18 0.000000000000000 10.000000000000000
2  99 41 20 0.000000000000000 10.000000000000000
2  100 27 37 0.000000000000000 10.000000000000000
2  101 42 37 0.000000000000000 10.000000000000000
2  102 43 23 0.000000000000000 10.000000000000000
2  103 43 25 0.000000000000000 10.000000000000000
2  104 27 40 0.000000000000000 10.000000000000000
2  105 42 40 0.000000000000000 10.000000000000000
0

0101000
+14 10 -16 10 *
Ve
0.001000000000024
50.500000000000000 0.000000000000024 107.499999999999915
0 0

0101101
*
Ed
 0.001000000000014 1 1 0
1  14 0 0.000000000000000 1.570796326794896
2  106 44 7 0.000000000000000 1.570796326794896
2  107 44 9 0.000000000000000 1.570796326794896
2  108 1 10 0.000000000000000 1.570796326794896
2  109 23 29 0.000000000000000 1.570796326794896
2  110 45 13 0.000000000000000 1.570796326794896
2  111 45 15 0.000000000000000 1.570796326794896
2  112 25 33 0.000000000000000 1.570796326794896
2  113 46 18 0.000000000000000 1.570796326794896
2  114 46 20 0.000000000000000 1.570796326794896
2  115 27 37 0.000000000000000 1.570796326794896
2  116 47 23 0.000000000000000 1.570796326794896
2  117 47 25 0.000000000000000 1.570796326794896
2  118 27 40 0.000000000000000 1.570796326794896
0

0101000
+12 10 -14 10 *
Ve
0.000001000000000
50.500000000000000 0.000000000000000 0.000000000000000
0 0

0101101
*
Ed
 0.000001000000000 1 1 0
1  15 0 0.000000000000000 107.499999999999915
2  119 48 7 0.000000000000000 107.499999999999915
2  120 48 9 0.000000000000000 107.499999999999915
2  121 1 10 0.000000000000000 107.499999999999915
2  122 49 13 0.000000000000000 107.499999999999915
2  123 49 15 0.000000000000000 107.499999999999915
2  124 50 18 0.000000000000000 107.499999999999915
2  125 50 20 0.000000000000000 107.499999999999915
2  126 51 23 0.000000000000000 107.499999999999915
2  127 51 25 0.000000000000000 107.499999999999915
0

0101000
+10 10 -12 10 *
Ve
0.000001000000000
-50.500000000000000 0.000000000000000 0.000000000000000
0 0

0101101
*
Ed
 0.000001000000000 1 1 0
1  16 0 0.000000000000000 101.000000000000000
2  128 52 7 0.000000000000000 101.000000000000000
2  129 52 9 0.000000000000000 101.000000000000000
2  130 1 10 0.000000000000000 101.000000000000000
2  131 53 13 0.000000000000000 101.000000000000000
2  132 53 15 0.000000000000000 101.000000000000000
2  133 54 18 0.000000000000000 101.000000000000000
2  134 54 20 0.000000000000000 101.000000000000000
2  135 55 23 0.000000000000000 101.000000000000000
2  136 55 25 0.000000000000000 101.000000000000000
0

0101000
+8 10 -10 10 *
Ve
0.000001000000000
-50.500000000000000 0.000000000000001 4.000000000000001
0 0

0101101
*
Ed
 0.000001000000000 1 1 0
1  17 0 0.000000000000000 4.000000000000001
2  137 56 7 0.000000000000000 4.000000000000001
2  138 56 9 0.000000000000000 4.000000000000001
2  139 1 10 0.000000000000000 4.000000000000001
2  140 57 13 0.000000000000000 4.000000000000001
2  141 57 15 0.000000000000000 4.000000000000001
2  142 58 18 0.000000000000000 4.000000000000001
2  143 58 20 0.000000000000000 4.000000000000001
2  144 59 23 0.000000000000000 4.000000000000001
2  145 59 25 0.000000000000000 4.000000000000001
0

0101000
+6 10 -8 10 *
Ed
 0.000001000000000 1 1 0
1  18 0 2.268928027592628 3.141592653589793
2  146 60 7 2.268928027592628 3.141592653589793
2  147 60 9 2.268928027592628 3.141592653589793
2  148 1 10 2.268928027592628 3.141592653589793
2  149 61 13 2.268928027592628 3.141592653589793
2  150 61 15 2.268928027592628 3.141592653589793
2  151 62 18 2.268928027592628 3.141592653589793
2  152 62 20 2.268928027592628 3.141592653589793
2  153 63 23 2.268928027592628 3.141592653589793
2  154 63 25 2.268928027592628 3.141592653589793
0

0101000
+21 10 -6 10 *
Wi

0101100
-19 4 -17 4 +15 4 +13 4 +11 4 +9 4 +7 4 +5 4 +4 4 *
Fa
0  0.000001000000000 1 0

0101000
+22 0 +3 0 *
Sh

1101000
+2 0 *

+1 1 