
CASCADE Topology V1, (c) Matra-Datavision
Locations 51
1
1.000000000000000 0.000000000000000 0.000000000000000 0.000000000000000 
0.000000000000000 1.000000000000000 0.000000000000000 0.000000000000000 
0.000000000000000 0.000000000000000 1.000000000000000 0.000000000000000 
1
1.000000000000000 0.000000000000000 0.000000000000000 0.000000000000000 
0.000000000000000 1.000000000000000 0.000000000000000 0.000000000000000 
0.000000000000000 0.000000000000000 1.000000000000000 0.000000000000000 
1
1.000000000000000 0.000000000000000 0.000000000000000 0.000000000000000 
0.000000000000000 1.000000000000000 0.000000000000000 0.000000000000000 
0.000000000000000 0.000000000000000 1.000000000000000 0.000000000000000 
1
1.000000000000000 0.000000000000000 0.000000000000000 0.000000000000000 
0.000000000000000 1.000000000000000 0.000000000000000 0.000000000000000 
0.000000000000000 0.000000000000000 1.000000000000000 0.000000000000000 
1
1.000000000000000 0.000000000000000 0.000000000000000 0.000000000000000 
0.000000000000000 1.000000000000000 0.000000000000000 0.000000000000000 
0.000000000000000 0.000000000000000 1.000000000000000 0.000000000000000 
1
1.000000000000000 0.000000000000000 0.000000000000000 0.000000000000000 
0.000000000000000 1.000000000000000 0.000000000000000 0.000000000000000 
0.000000000000000 0.000000000000000 1.000000000000000 0.000000000000000 
2  2 1 3 1 4 -1 5 1 6 -1 0
2  2 -1 0
1
1.000000000000000 0.000000000000000 0.000000000000000 0.000000000000000 
0.000000000000000 1.000000000000000 0.000000000000000 0.000000000000000 
0.000000000000000 0.000000000000000 1.000000000000000 0.000000000000000 
2  9 -1 6 1 5 -1 4 1 3 -1 2 -1 0
1
1.000000000000000 0.000000000000000 0.000000000000000 0.000000000000000 
0.000000000000000 1.000000000000000 0.000000000000000 0.000000000000000 
0.000000000000000 0.000000000000000 1.000000000000000 0.000000000000000 
1
1.000000000000000 0.000000000000000 0.000000000000000 0.000000000000000 
0.000000000000000 1.000000000000000 0.000000000000000 0.000000000000000 
0.000000000000000 0.000000000000000 1.000000000000000 0.000000000000000 
1
1.000000000000000 0.000000000000000 0.000000000000000 0.000000000000000 
0.000000000000000 1.000000000000000 0.000000000000000 0.000000000000000 
0.000000000000000 0.000000000000000 1.000000000000000 0.000000000000000 
2  11 1 12 1 13 -1 0
2  13 1 12 -1 11 -1 0
2  9 -1 6 1 5 -1 4 1 3 -1 2 -1 13 1 12 -1 11 -1 0
1
1.000000000000000 0.000000000000000 0.000000000000000 0.000000000000000 
0.000000000000000 1.000000000000000 0.000000000000000 0.000000000000000 
0.000000000000000 0.000000000000000 1.000000000000000 3.000000000000000 
2  11 1 12 1 13 -1 17 1 0
2  17 -1 13 1 12 -1 11 -1 0
2  9 -1 6 1 5 -1 4 1 3 -1 2 -1 17 -1 13 1 12 -1 11 -1 0
2  3 1 4 -1 5 1 6 -1 0
2  11 1 12 1 13 -1 17 1 2 1 0
2  2 -1 17 -1 13 1 12 -1 11 -1 0
2  11 1 12 1 13 -1 2 1 0
2  2 -1 13 1 12 -1 11 -1 0
1
1.000000000000000 0.000000000000000 0.000000000000000 0.000000000000000 
0.000000000000000 1.000000000000000 0.000000000000000 0.000000000000000 
0.000000000000000 0.000000000000000 1.000000000000000 0.000000000000000 
2  11 1 12 1 13 -1 26 1 0
2  26 -1 13 1 12 -1 11 -1 0
2  9 -1 6 1 5 -1 4 1 3 -1 26 -1 13 1 12 -1 11 -1 0
2  26 -1 0
2  9 -1 6 1 5 -1 4 1 3 -1 26 -1 0
2  11 1 12 1 13 -1 17 1 26 1 0
2  26 -1 17 -1 13 1 12 -1 11 -1 0
2  9 -1 6 1 5 -1 4 1 3 -1 26 -1 17 -1 13 1 12 -1 11 -1 0
2  11 1 12 1 13 -1 26 1 3 1 4 -1 5 1 6 -1 0
2  11 1 12 1 13 -1 2 1 3 1 4 -1 5 1 6 -1 0
1
1.000000000000000 0.000000000000000 0.000000000000000 180.000000000000000 
0.000000000000000 1.000000000000000 0.000000000000000 196.470125492503939 
0.000000000000000 0.000000000000000 1.000000000000000 0.000000000000000 
2  37 1 5 1 6 -1 0
2  9 -1 6 1 5 -1 37 -1 0
1
1.000000000000000 0.000000000000000 0.000000000000000 -180.000000000000000 
0.000000000000000 1.000000000000000 0.000000000000000 196.470125492503939 
0.000000000000000 0.000000000000000 1.000000000000000 0.000000000000000 
2  40 1 5 1 6 -1 0
2  9 -1 6 1 5 -1 40 -1 0
1
1.000000000000000 0.000000000000000 0.000000000000000 0.000000000000000 
0.000000000000000 1.000000000000000 0.000000000000000 233.970968781892282 
0.000000000000000 0.000000000000000 1.000000000000000 0.000000000000000 
2  9 -1 43 -1 0
2  11 1 12 1 13 -1 17 1 26 1 3 1 4 -1 5 1 6 -1 0
2  11 1 12 1 13 -1 17 1 2 1 3 1 4 -1 5 1 6 -1 0
2  5 1 6 -1 0
2  9 -1 6 1 5 -1 0
2  9 -1 0
2  26 1 3 1 4 -1 5 1 6 -1 0
2  2 1 26 -1 0
Curve2ds 39
1 4.35337489126828370 0.00000000000000000 0.00000000000000000 -1.00000000000000000 
1 1.92981041591130054 0.00000000000000000 0.00000000000000000 -1.00000000000000000 
1 6.28318530717958801 0.00000000000000000 0.00000000000000000 -1.00000000000000000 
1 0.00000000000000000 0.00000000000000000 1.00000000000000000 0.00000000000000000 
1 0.00000000000000000 -3.00000000000000000 1.00000000000000000 0.00000000000000000 
1 3.14159265358979312 -3.00000000000000000 -1.00000000000000000 0.00000000000000000 
1 3.14159265358979312 0.00000000000000000 -1.00000000000000000 -0.00000000000000000 
1 0.00000000000000000 -0.00000000000000000 1.00000000000000000 0.00000000000000000 
1 1.21178223767849280 0.00000000000000000 0.00000000000000000 -1.00000000000000000 
1 4.35337489126828370 0.00000000000000000 0.00000000000000000 -1.00000000000000000 
1 0.00000000000000000 -3.00000000000000000 1.00000000000000000 0.00000000000000000 
1 0.00000000000000160 0.00000000000000000 0.00000000000000000 -1.00000000000000000 
1 0.00000000000000000 0.00000000000000000 1.00000000000000000 0.00000000000000000 
1 0.00000000000000000 0.00000000000000000 1.00000000000000000 0.00000000000000000 
1 0.00000000000000000 0.00000000000000000 1.00000000000000000 0.00000000000000000 
1 0.00000000000000000 0.00000000000000000 1.00000000000000000 0.00000000000000000 
1 0.00000000000000000 0.00000000000000000 1.00000000000000000 0.00000000000000000 
1 0.00000000000000000 0.00000000000000000 1.00000000000000000 0.00000000000000000 
1 0.00000000000000000 0.00000000000000000 1.00000000000000000 0.00000000000000000 
1 0.00000000000000000 -3.00000000000000000 1.00000000000000000 0.00000000000000000 
1 0.00000000000000000 -3.00000000000000000 1.00000000000000000 0.00000000000000000 
1 0.00000000000000000 -3.00000000000000000 1.00000000000000000 0.00000000000000000 
1 0.00000000000000000 -3.00000000000000000 1.00000000000000000 0.00000000000000000 
1 0.00000000000000000 -3.00000000000000000 1.00000000000000000 0.00000000000000000 
1 6.28318530717958623 2.99999999999999867 -1.00000000000000000 0.00000000000000000 
1 6.28318530717958623 2.99999999999999867 -1.00000000000000000 0.00000000000000000 
1 6.28318530717958623 2.99999999999999867 -1.00000000000000000 0.00000000000000000 
1 6.28318530717958801 0.00000000000000000 0.00000000000000000 -1.00000000000000000 
1 1.22543119774445208 0.00000000000000000 0.00000000000000000 -1.00000000000000000 
1 1.22543119774483000 0.00000000000000000 0.00000000000000000 -1.00000000000000000 
1 0.00000000000000160 0.00000000000000000 0.00000000000000000 -1.00000000000000000 
1 1.22543119774445208 0.00000000000000000 0.00000000000000000 -1.00000000000000000 
1 1.22543119774483000 0.00000000000000000 0.00000000000000000 -1.00000000000000000 
1 1.58979685795190839 0.00000000000000000 0.00000000000000000 -1.00000000000000000 
1 1.58979685795190839 0.00000000000000000 0.00000000000000000 -1.00000000000000000 
1 6.28318530717958623 0.00000000000000000 0.00000000000000000 1.00000000000000000 
1 0.00000000000000000 0.00000000000000000 0.00000000000000000 1.00000000000000000 
1 6.28318530717958623 0.00000000000000000 0.00000000000000000 1.00000000000000000 
1 0.00000000000000000 0.00000000000000000 0.00000000000000000 1.00000000000000000 
Curves 38
1 -193.24324324324322788 169.01941921918086109 0.00000000000000000 0.00000000000000000 0.00000000000000000 1.00000000000000000 
1 -200.00000000000000000 173.70063761801563373 0.00000000000000000 0.00000000000000000 0.00000000000000000 1.00000000000000000 
2 -195.00000000000000000 173.70063761801563373 0.00000000000000000 0.00000000000000000 0.00000000000000000 -1.00000000000000000 -1.00000000000000000 -0.00000000000000000 -0.00000000000000000 -0.00000000000000000 1.00000000000000000 0.00000000000000000 5.00000000000000000
2 -195.00000000000000000 173.70063761801563373 0.00000000000000000 0.00000000000000000 0.00000000000000000 -1.00000000000000000 -1.00000000000000000 -0.00000000000000000 -0.00000000000000000 -0.00000000000000000 1.00000000000000000 0.00000000000000000 5.00000000000000000
2 -0.00000000000005060 -345.91460465264754021 0.00000000000000000 0.00000000000000000 0.00000000000000000 -1.00000000000000000 -1.00000000000000000 -0.00000000000000000 -0.00000000000000000 -0.00000000000000000 1.00000000000000000 0.00000000000000000 550.00000000000000000
2 -0.00000000000005060 -345.91460465264754021 0.00000000000000000 0.00000000000000000 0.00000000000000000 -1.00000000000000000 -1.00000000000000000 -0.00000000000000000 -0.00000000000000000 -0.00000000000000000 1.00000000000000000 0.00000000000000000 550.00000000000000000
2 0.00000000000005060 -345.91460465264754021 0.00000000000000000 0.00000000000000000 0.00000000000000000 1.00000000000000000 1.00000000000000000 0.00000000000000000 -0.00000000000000000 -0.00000000000000000 1.00000000000000000 0.00000000000000000 550.00000000000000000
1 193.24324324324322788 169.01941921918086109 0.00000000000000000 0.00000000000000000 0.00000000000000000 1.00000000000000000 
2 0.00000000000005060 -345.91460465264754021 0.00000000000000000 0.00000000000000000 0.00000000000000000 1.00000000000000000 1.00000000000000000 0.00000000000000000 -0.00000000000000000 -0.00000000000000000 1.00000000000000000 0.00000000000000000 550.00000000000000000
1 -200.00000000000000000 208.88147861351598067 0.00000000000000000 0.00000000000000000 0.00000000000000000 1.00000000000000000 
1 -200.00000000000000000 173.70063761801563373 0.00000000000000000 0.00000000000000000 1.00000000000000000 0.00000000000000000 
1 -200.00000000000000000 173.70063761801563373 0.00000000000000000 0.00000000000000000 1.00000000000000000 0.00000000000000000 
2 195.00000000000000000 173.70063761801563373 0.00000000000000000 0.00000000000000000 0.00000000000000000 1.00000000000000000 1.00000000000000000 0.00000000000000000 -0.00000000000000000 -0.00000000000000000 1.00000000000000000 0.00000000000000000 5.00000000000000000
1 200.00000000000000000 173.70063761801563373 0.00000000000000000 0.00000000000000000 1.00000000000000000 0.00000000000000000 
2 195.00000000000000000 208.88147861351598067 0.00000000000000000 0.00000000000000000 0.00000000000000000 1.00000000000000000 1.00000000000000000 0.00000000000000000 -0.00000000000000000 -0.00000000000000000 1.00000000000000000 0.00000000000000000 5.00000000000000000
2 10.45210192474696953 -304.05808048650487763 0.00000000000000000 0.00000000000000000 0.00000000000000000 1.00000000000000000 1.00000000000000000 0.00000000000000000 -0.00000000000000000 -0.00000000000000000 1.00000000000000000 0.00000000000000000 550.12834999999995489
2 -10.45210192474696953 -304.05808048650487763 0.00000000000000000 0.00000000000000000 0.00000000000000000 -1.00000000000000000 -1.00000000000000000 -0.00000000000000000 -0.00000000000000000 -0.00000000000000000 1.00000000000000000 0.00000000000000000 550.12834999999995489
2 -195.00000000000000000 208.88147861351598067 0.00000000000000000 0.00000000000000000 0.00000000000000000 -1.00000000000000000 -1.00000000000000000 -0.00000000000000000 -0.00000000000000000 -0.00000000000000000 1.00000000000000000 0.00000000000000000 5.00000000000000000
2 0.00000000000000000 0.00000000000000000 0.00000000000000000 0.00000000000000000 0.00000000000000000 -1.00000000000000000 -1.00000000000000000 0.00000000000000000 0.00000000000000000 0.00000000000000000 1.00000000000000000 0.00000000000000000 1.69999999999999996
2 0.00000000000000000 0.00000000000000000 0.00000000000000000 0.00000000000000000 0.00000000000000000 -1.00000000000000000 -1.00000000000000000 0.00000000000000000 0.00000000000000000 0.00000000000000000 1.00000000000000000 0.00000000000000000 1.69999999999999996
2 0.00000000000000000 0.00000000000000000 0.00000000000000000 0.00000000000000000 0.00000000000000000 -1.00000000000000000 -1.00000000000000000 0.00000000000000000 0.00000000000000000 0.00000000000000000 1.00000000000000000 0.00000000000000000 1.69999999999999996
2 195.00000000000000000 173.70063761801563373 0.00000000000000000 0.00000000000000000 0.00000000000000000 1.00000000000000000 1.00000000000000000 0.00000000000000000 -0.00000000000000000 -0.00000000000000000 1.00000000000000000 0.00000000000000000 5.00000000000000000
1 200.00000000000000000 173.70063761801563373 0.00000000000000000 0.00000000000000000 1.00000000000000000 0.00000000000000000 
2 195.00000000000000000 208.88147861351598067 0.00000000000000000 0.00000000000000000 0.00000000000000000 1.00000000000000000 1.00000000000000000 0.00000000000000000 -0.00000000000000000 -0.00000000000000000 1.00000000000000000 0.00000000000000000 5.00000000000000000
2 10.45210192474696953 -304.05808048650487763 0.00000000000000000 0.00000000000000000 0.00000000000000000 1.00000000000000000 1.00000000000000000 0.00000000000000000 -0.00000000000000000 -0.00000000000000000 1.00000000000000000 0.00000000000000000 550.12834999999995489
2 -10.45210192474696953 -304.05808048650487763 0.00000000000000000 0.00000000000000000 0.00000000000000000 -1.00000000000000000 -1.00000000000000000 -0.00000000000000000 -0.00000000000000000 -0.00000000000000000 1.00000000000000000 0.00000000000000000 550.12834999999995489
2 -195.00000000000000000 208.88147861351598067 0.00000000000000000 0.00000000000000000 0.00000000000000000 -1.00000000000000000 -1.00000000000000000 -0.00000000000000000 -0.00000000000000000 -0.00000000000000000 1.00000000000000000 0.00000000000000000 5.00000000000000000
2 180.00000000000000000 196.47012549250393931 2.99999999999999867 0.00000000000000000 0.00000000000000000 1.00000000000000000 -1.00000000000000000 0.00000000000000000 0.00000000000000000 0.00000000000000000 -1.00000000000000000 0.00000000000000000 1.69999999999999996
2 -180.00000000000000000 196.47012549250393931 2.99999999999999867 0.00000000000000000 0.00000000000000000 1.00000000000000000 -1.00000000000000000 0.00000000000000000 0.00000000000000000 0.00000000000000000 -1.00000000000000000 0.00000000000000000 1.69999999999999996
2 0.00000000000000000 233.97096878189228164 2.99999999999999867 0.00000000000000000 0.00000000000000000 1.00000000000000000 -1.00000000000000000 0.00000000000000000 0.00000000000000000 0.00000000000000000 -1.00000000000000000 0.00000000000000000 1.69999999999999996
1 200.00000000000000000 173.70063761801563373 0.00000000000000000 0.00000000000000000 0.00000000000000000 1.00000000000000000 
1 -196.69270134341326184 213.58623813574752148 0.00000000000000000 0.00000000000000000 0.00000000000000000 1.00000000000000000 
1 200.00000000000000000 208.88147861351598067 0.00000000000000000 0.00000000000000000 0.00000000000000000 1.00000000000000000 
1 196.69270134341326184 213.58623813574752148 0.00000000000000000 0.00000000000000000 0.00000000000000000 1.00000000000000000 
1 0.00000000000006750 245.97096878187437596 0.00000000000000000 0.00000000000000000 0.00000000000000000 1.00000000000000000 
1 -1.69999999999999996 0.00000000000000000 0.00000000000000000 0.00000000000000006 0.00000000000000000 1.00000000000000000 
1 -1.69999999999999996 0.00000000000000000 0.00000000000000000 0.00000000000000006 0.00000000000000000 1.00000000000000000 
1 -1.69999999999999996 0.00000000000000000 0.00000000000000000 0.00000000000000006 0.00000000000000000 1.00000000000000000 
Polygon3D 0
PolygonOnTriangulations 0
Surfaces 14
2 -195.00000000000000000 173.70063761801563373 0.00000000000000000 0.00000000000000000 0.00000000000000000 -1.00000000000000000 -1.00000000000000000 -0.00000000000000000 -0.00000000000000000 -0.00000000000000000 1.00000000000000000 0.00000000000000000 5.00000000000000000
2 0.00000000000005060 -345.91460465264754021 0.00000000000000000 -0.00000000000000000 -0.00000000000000000 -1.00000000000000000 1.00000000000000000 0.00000000000000000 0.00000000000000000 -0.00000000000000000 1.00000000000000000 -0.00000000000000000 550.00000000000000000
1 -200.00000000000000000 173.70063761801563373 0.00000000000000000 1.00000000000000000 0.00000000000000000 0.00000000000000000 -0.00000000000000000 1.00000000000000000 0.00000000000000000 -0.00000000000000000 0.00000000000000000 -1.00000000000000000 
2 195.00000000000000000 173.70063761801563373 0.00000000000000000 -0.00000000000000000 -0.00000000000000000 -1.00000000000000000 1.00000000000000000 0.00000000000000000 0.00000000000000000 -0.00000000000000000 1.00000000000000000 -0.00000000000000000 5.00000000000000000
2 -195.00000000000000000 208.88147861351598067 0.00000000000000000 0.00000000000000000 0.00000000000000000 -1.00000000000000000 -1.00000000000000000 -0.00000000000000000 -0.00000000000000000 -0.00000000000000000 1.00000000000000000 0.00000000000000000 5.00000000000000000
1 0.00000000000000000 210.87542110585263799 0.00000000000000000 -0.00000000000000000 -0.00000000000000000 -1.00000000000000000 -1.00000000000000000 0.00000000000000000 0.00000000000000000 0.00000000000000000 1.00000000000000000 -0.00000000000000000 
2 195.00000000000000000 208.88147861351598067 0.00000000000000000 -0.00000000000000000 -0.00000000000000000 -1.00000000000000000 1.00000000000000000 0.00000000000000000 0.00000000000000000 -0.00000000000000000 1.00000000000000000 -0.00000000000000000 5.00000000000000000
2 10.45210192474696953 -304.05808048650487763 0.00000000000000000 -0.00000000000000000 -0.00000000000000000 -1.00000000000000000 1.00000000000000000 0.00000000000000000 0.00000000000000000 -0.00000000000000000 1.00000000000000000 -0.00000000000000000 550.12834999999995489
2 -10.45210192474696953 -304.05808048650487763 0.00000000000000000 0.00000000000000000 0.00000000000000000 -1.00000000000000000 -1.00000000000000000 -0.00000000000000000 -0.00000000000000000 -0.00000000000000000 1.00000000000000000 0.00000000000000000 550.12834999999995489
2 0.00000000000000000 0.00000000000000000 0.00000000000000000 0.00000000000000000 0.00000000000000000 1.00000000000000000 -1.00000000000000000 0.00000000000000000 0.00000000000000000 -0.00000000000000000 1.00000000000000000 -0.00000000000000000 1.69999999999999996
2 0.00000000000000000 0.00000000000000000 0.00000000000000000 0.00000000000000000 0.00000000000000000 1.00000000000000000 -1.00000000000000000 0.00000000000000000 0.00000000000000000 -0.00000000000000000 1.00000000000000000 -0.00000000000000000 1.69999999999999996
2 0.00000000000000000 0.00000000000000000 0.00000000000000000 0.00000000000000000 0.00000000000000000 1.00000000000000000 -1.00000000000000000 0.00000000000000000 0.00000000000000000 -0.00000000000000000 1.00000000000000000 -0.00000000000000000 1.69999999999999996
1 -0.00000000000000342 210.87542110585263799 2.99999999999999867 -0.00000000000000000 -0.00000000000000000 1.00000000000000000 0.00000000000000000 1.00000000000000000 0.00000000000000000 -1.00000000000000000 0.00000000000000000 0.00000000000000000 
1 200.00000000000000000 173.70063761801563373 0.00000000000000000 -1.00000000000000000 0.00000000000000000 0.00000000000000000 0.00000000000000000 1.00000000000000000 0.00000000000000000 0.00000000000000000 0.00000000000000000 -1.00000000000000000 
Triangulations 0

TShapes 100
Ve
0.000000100000043
-193.243243243243228 169.019419219180861 0.000000000000000
0 0

0101101
*
Ve
0.000000100000043
-193.243243243243228 169.019419219180861 3.000000000000000
0 0

0101101
*
Ed
 0.000000100000043 1 1 0
1  1 0 0.000000000000000 3.000000000000000
2  1 1 0 0.000000000000000 3.000000000000000
2  2 2 8 0.000000000000000 3.000000000000000
0

0101000
+100 10 -99 10 *
Ve
0.000000100000000
-200.000000000000000 173.700637618015634 0.000000000000000
0 0

0101101
*
Ve
0.000000100000000
-200.000000000000000 173.700637618015634 3.000000000000000
0 0

0101101
*
Ed
 0.000000100000000 1 1 0
1  2 0 0.000000000000000 3.000000000000000
2  3 1 0 0.000000000000000 3.000000000000000
4 G1 1 0 3 0
0

0101000
+97 10 -96 10 *
Ed
 0.000000100000000 1 1 0
1  3 0 4.353374891268284 6.283185307179588
2  4 1 15 4.353374891268284 6.283185307179588
0

0101000
+100 16 -97 16 *
Ed
 0.000000100000000 1 1 0
1  4 0 4.353374891268284 6.283185307179588
2  5 1 19 4.353374891268284 6.283185307179588
0

0101000
+99 20 -96 20 *
Wi

0101100
+98 0 -95 0 -94 14 +93 18 *
Fa
0  0.000000100000000 1 0

0101000
+92 0 *
Ve
0.000000100000117
0.000000000000000 204.085395347352460 3.000000000000000
0 0

0101101
*
Ed
 0.000000100000000 1 1 0
1  5 0 1.211782237678493 1.570796326794897
2  6 2 23 1.211782237678493 1.570796326794897
0

0101000
+99 20 -90 20 *
Ve
0.000000100000117
0.000000000000000 204.085395347352460 0.000000000000000
0 0

0101101
*
Ed
 0.000000100000000 1 1 0
1  6 0 1.211782237678493 1.570796326794897
2  7 2 25 1.211782237678493 1.570796326794897
0

0101000
+100 16 -88 16 *
Ve
0.000000100000043
193.243243243243228 169.019419219180861 0.000000000000000
0 0

0101101
*
Ed
 0.000000100000000 1 1 0
1  7 0 1.211782237678493 1.570796326794897
2  8 2 28 1.211782237678493 1.570796326794897
0

0101000
+86 29 -88 29 *
Ve
0.000000100000043
193.243243243243228 169.019419219180861 3.000000000000000
0 0

0101101
*
Ed
 0.000000100000043 1 1 0
1  8 0 0.000000000000000 3.000000000000000
2  9 2 30 0.000000000000000 3.000000000000000
2  10 4 0 0.000000000000000 3.000000000000000
0

0101000
+86 31 -84 31 *
Ed
 0.000000100000000 1 1 0
1  9 0 1.211782237678493 1.570796326794897
2  11 2 33 1.211782237678493 1.570796326794897
0

0101000
+84 34 -90 34 *
Wi

0101100
-89 22 -98 2 +87 24 -85 27 +83 26 +82 32 *
Fa
0  0.000000100000000 2 0

0101000
+81 0 *
Ve
0.000000100000000
-200.000000000000000 208.881478613515981 0.000000000000000
0 0

0101101
*
Ve
0.000000100000000
-200.000000000000000 208.881478613515981 3.000000000000000
0 0

0101101
*
Ed
 0.000000100000000 1 1 0
1  10 0 0.000000000000000 3.000000000000000
2  12 5 0 0.000000000000000 3.000000000000000
4 G1 3 0 5 0
0

0101000
+79 10 -78 10 *
Ed
 0.000000100000000 1 1 0
1  11 0 0.000000000000000 35.180840995500347
0

0101000
+97 16 -79 16 *
Ed
 0.000000100000000 1 1 0
1  12 0 0.000000000000000 35.180840995500347
0

0101000
+96 20 -78 20 *
Wi

0101100
+95 0 -77 0 -76 14 +75 18 *
Fa
0  0.000000100000000 3 0

0101000
+74 0 *
Ve
0.000000100000000
200.000000000000000 173.700637618015634 0.000000000000000
0 0

0101101
*
Ed
 0.000000100000000 1 1 0
1  13 0 4.353374891268284 6.283185307179588
2  13 4 15 4.353374891268284 6.283185307179588
0

0101000
+86 29 -72 29 *
Ve
0.000000100000000
200.000000000000000 208.881478613515981 0.000000000000000
0 0

0101101
*
Ed
 0.000000100000000 1 1 0
1  14 0 0.000000000000000 35.180840995500347
0

0101000
+72 29 -70 29 *
Ve
0.000000100002162
196.692701343413262 213.586238135747521 0.000000000000000
0 0

0101101
*
Ed
 0.000000100000000 1 1 0
1  15 0 0.000000000000002 1.225431197744452
2  14 7 15 0.000000000000002 1.225431197744452
0

0101000
+70 29 -68 29 *
Ve
0.000000100000135
0.000000000000000 245.970968781874376 0.000000000000000
0 0

0101101
*
Ed
 0.000000100000000 1 1 0
1  16 0 1.225431197744830 1.589796857951908
2  15 8 15 1.225431197744830 1.589796857951908
0

0101000
+68 29 -66 29 *
Ve
0.000000100002162
-196.692701343413262 213.586238135747521 0.000000000000000
0 0

0101101
*
Ed
 0.000000100000000 1 1 0
1  17 0 1.225431197744830 1.589796857951908
2  16 9 15 1.225431197744830 1.589796857951908
0

0101000
+64 16 -66 16 *
Ed
 0.000000100000000 1 1 0
1  18 0 0.000000000000002 1.225431197744452
2  17 5 15 0.000000000000002 1.225431197744452
0

0101000
+79 16 -64 16 *
Wi

0101100
-71 35 +85 35 -69 35 -87 36 -67 35 +94 36 -65 35 +76 36 +63 36 +62 36 
*
Ve
0.000000100000000
178.300000000000011 196.470125492503939 0.000000000000000
0 0

0101101
*
Ed
 0.000000100000000 1 1 0
1  19 0 0.000000000000000 6.283185307179586
2  18 10 0 0.000000000000000 6.283185307179586
0

0101000
+60 39 -60 39 *
Wi

0101100
-59 38 *
Ve
0.000000100000000
-181.699999999999989 196.470125492503939 0.000000000000000
0 0

0101101
*
Ed
 0.000000100000000 1 1 0
1  20 0 0.000000000000000 6.283185307179586
2  18 11 0 0.000000000000000 6.283185307179586
0

0101000
+57 42 -57 42 *
Wi

0101100
-56 41 *
Ve
0.000000100000000
-1.700000000000000 233.970968781892282 0.000000000000000
0 0

0101101
*
Ed
 0.000000100000000 1 1 0
1  21 0 0.000000000000000 6.283185307179586
2  19 12 0 0.000000000000000 6.283185307179586
0

0101000
+54 44 -54 44 *
Wi

0101100
-53 43 *
Fa
0  0.000000100000000 6 21

0101000
+61 0 +58 0 +55 0 +52 0 *
Ve
0.000000100000000
200.000000000000000 173.700637618015634 3.000000000000000
0 0

0101101
*
Ed
 0.000000100000000 1 1 0
1  22 0 4.353374891268284 6.283185307179588
2  20 4 19 4.353374891268284 6.283185307179588
0

0101000
+84 34 -50 34 *
Ve
0.000000100000000
200.000000000000000 208.881478613515981 3.000000000000000
0 0

0101101
*
Ed
 0.000000100000000 1 1 0
1  23 0 0.000000000000000 35.180840995500347
0

0101000
+50 34 -48 34 *
Ve
0.000000100002162
196.692701343413262 213.586238135747521 3.000000000000000
0 0

0101101
*
Ed
 0.000000100000000 1 1 0
1  24 0 0.000000000000002 1.225431197744452
2  21 7 19 0.000000000000002 1.225431197744452
0

0101000
+48 34 -46 34 *
Ve
0.000000100000135
0.000000000000000 245.970968781874376 3.000000000000000
0 0

0101101
*
Ed
 0.000000100000000 1 1 0
1  25 0 1.225431197744830 1.589796857951908
2  22 8 19 1.225431197744830 1.589796857951908
0

0101000
+46 34 -44 34 *
Ve
0.000000100002162
-196.692701343413262 213.586238135747521 3.000000000000000
0 0

0101101
*
Ed
 0.000000100000000 1 1 0
1  26 0 1.225431197744830 1.589796857951908
2  23 9 19 1.225431197744830 1.589796857951908
0

0101000
+42 20 -44 20 *
Ed
 0.000000100000000 1 1 0
1  27 0 0.000000000000002 1.225431197744452
2  24 5 19 0.000000000000002 1.225431197744452
0

0101000
+78 20 -42 20 *
Wi

0101100
+49 45 -82 45 +47 45 +89 46 +45 45 -93 46 +43 45 -75 46 -41 46 -40 46 
*
Ve
0.000000100000000
178.300000000000011 196.470125492503939 2.999999999999999
0 0

0101101
*
Ed
 0.000000100000000 1 1 0
1  28 0 0.000000000000000 6.283185307179586
2  25 10 37 0.000000000000000 6.283185307179586
0

0101100
+38 48 -38 48 *
Wi

0101100
-37 47 *
Ve
0.000000100000000
-181.699999999999989 196.470125492503939 2.999999999999999
0 0

0101101
*
Ed
 0.000000100000000 1 1 0
1  29 0 0.000000000000000 6.283185307179586
2  26 11 40 0.000000000000000 6.283185307179586
0

0101100
+35 48 -35 48 *
Wi

0101100
-34 47 *
Ve
0.000000100000000
-1.700000000000000 233.970968781892282 2.999999999999999
0 0

0101101
*
Ed
 0.000000100000000 1 1 0
1  30 0 0.000000000000000 6.283185307179586
2  27 12 43 0.000000000000000 6.283185307179586
0

0101100
+32 49 -32 49 *
Wi

0101100
-31 0 *
Fa
0  0.000000100000000 13 21

0101000
+39 0 +36 0 +33 0 +30 0 *
Ed
 0.000000100000000 1 1 0
1  31 0 0.000000000000000 3.000000000000000
2  28 4 0 0.000000000000000 3.000000000000000
4 G1 4 0 14 0
0

0101000
+72 31 -50 31 *
Wi

0101100
+83 0 -28 0 -71 14 +49 18 *
Fa
0  0.000000100000000 4 0

0101000
+27 0 *
Ed
 0.000000100002162 1 1 0
1  32 0 0.000000000000000 3.000000000000000
2  29 5 0 0.000000000000000 3.000000000000000
2  30 9 0 0.000000000000000 3.000000000000000
4 G1 5 0 9 0
0

0101000
+64 10 -42 10 *
Wi

0101100
+77 0 -25 0 -62 14 +40 18 *
Fa
0  0.000000100000000 5 0

0101000
+24 0 *
Ed
 0.000000100000000 1 1 0
1  33 0 0.000000000000000 3.000000000000000
2  31 7 0 0.000000000000000 3.000000000000000
4 G1 14 0 7 0
0

0101000
+70 31 -48 31 *
Wi

0101100
+28 0 -22 0 -69 14 +47 18 *
Fa
0  0.000000100000000 14 0

0101000
+21 0 *
Ed
 0.000000100002162 1 1 0
1  34 0 0.000000000000000 3.000000000000000
2  32 7 0 0.000000000000000 3.000000000000000
2  33 8 0 0.000000000000000 3.000000000000000
4 G1 7 0 8 0
0

0101000
+68 31 -46 31 *
Wi

0101100
+22 0 -19 0 -67 14 +45 18 *
Fa
0  0.000000100000000 7 0

0101000
+18 0 *
Ed
 0.000000100000135 1 1 0
1  35 0 0.000000000000000 3.000000000000000
2  34 8 0 0.000000000000000 3.000000000000000
2  35 9 51 0.000000000000000 3.000000000000000
0

0101000
+66 31 -44 31 *
Wi

0101100
+19 26 -16 26 -65 27 +43 32 *
Fa
0  0.000000100000000 8 26

0101000
+15 0 *
Wi

0101100
+25 2 -16 26 -63 24 +41 22 *
Fa
0  0.000000100000000 9 2

0101000
+13 0 *
Ed
 0.000000100000000 1 1 0
1  36 0 0.000000000000000 2.999999999999999
3  36 37CN 10 0 0.000000000000000 2.999999999999999
0

0101000
+60 39 -38 39 *
Wi

0101100
-11 37 +37 0 +11 37 +59 37 *
Fa
0  0.000000100000000 10 37

0101000
+10 0 *
Ed
 0.000000100000000 1 1 0
1  37 0 0.000000000000000 2.999999999999999
3  36 37CN 11 0 0.000000000000000 2.999999999999999
0

0101000
+57 42 -35 42 *
Wi

0101100
-8 40 +34 0 +8 40 +56 40 *
Fa
0  0.000000100000000 11 40

0101000
+7 0 *
Ed
 0.000000100000000 1 1 0
1  38 0 0.000000000000000 2.999999999999999
3  38 39CN 12 0 0.000000000000000 2.999999999999999
0

0101000
+54 44 -32 44 *
Wi

0101100
-5 43 +31 0 +5 43 +53 43 *
Fa
0  0.000000100000000 12 43

0101000
+4 0 *
Sh

0101100
+91 7 +80 21 +73 7 +51 0 +29 0 -26 50 +23 7 -20 50 -17 50 -14 21 
+12 21 +9 47 +6 47 +3 0 *
So

1100000
+2 0 *

+1 1 