
CASCADE Topology V1, (c) Matra-Datavision
Locations 29
1
1.000000000000000 0.000000000000000 0.000000000000000 0.000000000000000 
0.000000000000000 1.000000000000000 0.000000000000000 0.000000000000000 
0.000000000000000 0.000000000000000 1.000000000000000 0.000000000000000 
1
1.000000000000000 0.000000000000000 0.000000000000000 0.000000000000000 
0.000000000000000 1.000000000000000 0.000000000000000 0.000000000000000 
0.000000000000000 0.000000000000000 1.000000000000000 0.000000000000000 
1
1.000000000000000 0.000000000000000 0.000000000000000 0.000000000000000 
0.000000000000000 1.000000000000000 0.000000000000000 0.000000000000000 
0.000000000000000 0.000000000000000 1.000000000000000 0.000000000000000 
1
1.000000000000000 0.000000000000000 0.000000000000000 0.000000000000000 
0.000000000000000 1.000000000000000 0.000000000000000 0.000000000000000 
0.000000000000000 0.000000000000000 1.000000000000000 0.000000000000000 
1
1.000000000000000 0.000000000000000 0.000000000000000 0.000000000000000 
0.000000000000000 1.000000000000000 0.000000000000000 0.000000000000000 
0.000000000000000 0.000000000000000 1.000000000000000 0.000000000000000 
1
1.000000000000000 0.000000000000000 0.000000000000000 0.000000000000000 
0.000000000000000 1.000000000000000 0.000000000000000 0.000000000000000 
0.000000000000000 0.000000000000000 1.000000000000000 0.000000000000000 
1
1.000000000000000 0.000000000000000 0.000000000000000 0.000000000000000 
0.000000000000000 1.000000000000000 0.000000000000000 0.000000000000000 
0.000000000000000 0.000000000000000 1.000000000000000 0.000000000000000 
2  2 1 3 1 4 1 5 1 6 1 7 -1 0
1
1.000000000000000 0.000000000000000 0.000000000000000 0.000000000000000 
0.000000000000000 1.000000000000000 0.000000000000000 0.000000000000000 
0.000000000000000 0.000000000000000 1.000000000000000 3.000000000000000 
2  2 1 3 1 4 1 5 1 6 1 7 -1 9 1 0
2  7 1 6 -1 5 -1 4 -1 3 -1 2 -1 0
2  9 -1 7 1 6 -1 5 -1 4 -1 3 -1 2 -1 0
2  4 -1 3 -1 2 -1 0
2  5 1 6 1 7 -1 0
2  2 1 3 1 4 1 0
1
1.000000000000000 0.000000000000000 0.000000000000000 0.000000000000000 
0.000000000000000 1.000000000000000 0.000000000000000 0.000000000000000 
0.000000000000000 0.000000000000000 1.000000000000000 0.000000000000000 
1
1.000000000000000 0.000000000000000 0.000000000000000 0.000000000000000 
0.000000000000000 1.000000000000000 0.000000000000000 0.000000000000000 
0.000000000000000 0.000000000000000 1.000000000000000 0.000000000000000 
2  16 1 17 1 4 1 0
2  7 1 6 -1 5 -1 4 -1 17 -1 16 -1 0
2  9 -1 7 1 6 -1 5 -1 4 -1 17 -1 16 -1 0
2  4 -1 17 -1 16 -1 0
1
1.000000000000000 0.000000000000000 0.000000000000000 0.000000000000000 
0.000000000000000 1.000000000000000 0.000000000000000 0.000000000000000 
0.000000000000000 0.000000000000000 1.000000000000000 0.000000000000000 
2  22 -1 0
2  2 1 3 1 17 -1 16 -1 0
2  22 -1 16 1 17 1 4 1 5 1 6 1 7 -1 0
2  22 -1 16 1 17 1 4 1 5 1 6 1 7 -1 9 1 0
2  16 1 17 1 4 1 5 1 6 1 7 -1 0
2  16 1 17 1 4 1 5 1 6 1 7 -1 9 1 0
2  5 1 6 1 7 -1 9 1 0
Curve2ds 64
1 0.98887274094562605 0.00000000000000000 0.00000000000000000 -1.00000000000000000 
1 4.13046539453539285 0.00000000000000000 0.00000000000000000 -1.00000000000000000 
1 1.26270247728702500 0.00000000000000000 0.00000000000000000 -1.00000000000000000 
1 1.26270247728702500 0.00000000000000000 0.00000000000000000 -1.00000000000000000 
1 0.00000000000000000 0.00000000000000000 1.00000000000000000 0.00000000000000000 
1 0.00000000000000000 -3.00000000000000000 1.00000000000000000 0.00000000000000000 
2 222.77092133968457688 -144.36029930601193882 1.00000000000000000 0.00000000000000000 -0.00000000000000000 1.00000000000000000 121.23414659100242829
1 5.24799983371013656 0.00000000000000000 0.00000000000000000 -1.00000000000000000 
1 0.00000000000000000 0.00000000000000000 1.00000000000000000 0.00000000000000000 
1 0.00000000000000000 -3.00000000000000000 1.00000000000000000 0.00000000000000000 
2 289.81730321384384297 -42.45389765665746040 1.00000000000000000 0.00000000000000000 -0.00000000000000000 1.00000000000000000 0.75000000000000000
1 5.24799983371014012 0.00000000000000000 0.00000000000000000 -1.00000000000000000 
1 290.20007804551448771 -43.09886542968143885 0.85995703069865381 0.51036644222749872 
1 6.85516781566566369 0.00000000000000000 0.00000000000000000 -1.00000000000000000 
1 0.57198250848607457 0.00000000000000000 0.00000000000000000 -1.00000000000000000 
1 0.00000000000000000 0.00000000000000000 1.00000000000000000 0.00000000000000000 
1 0.00000000000000000 -3.00000000000000000 1.00000000000000000 0.00000000000000000 
2 293.04372748737631582 -39.08552159344193910 1.00000000000000000 0.00000000000000000 -0.00000000000000000 1.00000000000000000 2.00000000000000000
1 1.26270247728702545 0.00000000000000000 0.00000000000000000 -1.00000000000000000 
1 1.26270247728702500 0.00000000000000000 0.00000000000000000 -1.00000000000000000 
1 0.00000000000000000 0.00000000000000000 1.00000000000000000 0.00000000000000000 
1 0.00000000000000000 -3.00000000000000000 1.00000000000000000 0.00000000000000000 
2 246.79810519257307533 -68.85702505844159305 1.00000000000000000 0.00000000000000000 -0.00000000000000000 1.00000000000000000 57.00000000000079581
1 0.00000000000000000 0.00000000000000000 1.00000000000000000 0.00000000000000000 
1 0.00000000000000000 -3.00000000000000000 1.00000000000000000 0.00000000000000000 
2 0.00000000000419795 -844.39797626713266254 1.00000000000000000 0.00000000000000000 -0.00000000000000000 1.00000000000000000 855.86305465251655278
1 0.00000000000000000 0.00000000000000000 1.00000000000000000 0.00000000000000000 
1 0.00000000000000000 -3.00000000000000000 1.00000000000000000 0.00000000000000000 
2 0.00000000000419795 -844.39797626713266254 1.00000000000000000 0.00000000000000000 -0.00000000000000000 1.00000000000000000 870.86305465251655278
1 0.00000000000000000 0.00000000000000000 1.00000000000000000 0.00000000000000000 
1 0.00000000000000000 -3.00000000000000000 1.00000000000000000 0.00000000000000000 
1 3.14159265358980244 0.00000000000000000 -1.00000000000000000 -0.00000000000000000 
1 3.14159265358980244 -3.00000000000000000 -1.00000000000000000 0.00000000000000000 
2 -0.00000000000419170 -844.39797626713266254 -1.00000000000000000 0.00000000000000000 0.00000000000000000 1.00000000000000000 870.86305465251655278
1 0.00000000000000000 0.00000000000000000 1.00000000000000000 0.00000000000000000 
1 0.00000000000000000 -3.00000000000000000 1.00000000000000000 0.00000000000000000 
2 -246.79810519257307533 -68.85702505844159305 -1.00000000000000000 0.00000000000000000 0.00000000000000000 1.00000000000000000 57.00000000000079581
1 0.00000000000000000 0.00000000000000000 1.00000000000000000 0.00000000000000000 
1 0.00000000000000000 -3.00000000000000000 1.00000000000000000 0.00000000000000000 
2 -293.04372748737631582 -39.08552159344193910 -1.00000000000000000 0.00000000000000000 0.00000000000000000 1.00000000000000000 2.00000000000000000
1 -290.20007804551448771 -43.09886542968143885 -0.85995703069865381 0.51036644222749872 
1 0.00000000000000000 0.00000000000000000 1.00000000000000000 0.00000000000000000 
1 0.00000000000000000 -3.00000000000000000 1.00000000000000000 0.00000000000000000 
2 -289.81730321384384297 -42.45389765665746040 -1.00000000000000000 0.00000000000000000 0.00000000000000000 1.00000000000000000 0.75000000000000000
1 0.00000000000000000 0.00000000000000000 1.00000000000000000 0.00000000000000000 
1 0.00000000000000000 -3.00000000000000000 1.00000000000000000 0.00000000000000000 
2 -222.77092133968457688 -144.36029930601193882 -1.00000000000000000 0.00000000000000000 0.00000000000000000 1.00000000000000000 121.23414659100242829
1 0.00000000000000000 0.00000000000000000 1.00000000000000000 0.00000000000000000 
1 0.00000000000000000 -3.00000000000000000 1.00000000000000000 0.00000000000000000 
1 3.14159265358980289 0.00000000000000000 -1.00000000000000000 0.00000000000000000 
1 3.14159265358980289 -3.00000000000000000 -1.00000000000000000 0.00000000000000000 
2 -0.00000000000419170 -844.39797626713266254 -1.00000000000000000 0.00000000000000000 0.00000000000000000 1.00000000000000000 855.86305465251655278
1 0.57198250848607457 0.00000000000000000 0.00000000000000000 -1.00000000000000000 
1 6.85516781566566369 0.00000000000000000 0.00000000000000000 -1.00000000000000000 
1 1.26270247728702500 0.00000000000000000 0.00000000000000000 -1.00000000000000000 
1 1.26270247728702545 0.00000000000000000 0.00000000000000000 -1.00000000000000000 
1 1.87889017630277744 0.00000000000000000 0.00000000000000000 -1.00000000000000000 
1 5.24799983371014012 0.00000000000000000 0.00000000000000000 -1.00000000000000000 
1 5.24799983371013656 0.00000000000000000 0.00000000000000000 -1.00000000000000000 
1 4.13046539453539285 0.00000000000000000 0.00000000000000000 -1.00000000000000000 
1 0.98887274094562605 0.00000000000000000 0.00000000000000000 -1.00000000000000000 
1 1.26270247728702500 0.00000000000000000 0.00000000000000000 -1.00000000000000000 
1 1.26270247728702500 0.00000000000000000 0.00000000000000000 -1.00000000000000000 
1 1.87889017630277766 0.00000000000000000 0.00000000000000000 -1.00000000000000000 
Curves 26
1 289.40507926662701266 172.45446875900108807 0.00000000000000000 0.00000000000000000 0.00000000000000000 1.00000000000000000 
1 259.53430246658956548 186.70025629416872448 0.00000000000000000 0.00000000000000000 0.00000000000000000 1.00000000000000000 
2 222.77092133968457688 71.17462230860432726 0.00000000000000000 0.00000000000000000 0.00000000000000000 1.00000000000000000 1.00000000000000000 0.00000000000000000 -0.00000000000000000 -0.00000000000000000 1.00000000000000000 0.00000000000000000 121.23414659100239987
1 290.20007804551448771 172.43605618493484144 0.00000000000000000 0.00000000000000000 0.00000000000000000 1.00000000000000000 
2 289.81730321384384297 173.08102395795881989 0.00000000000000000 0.00000000000000000 0.00000000000000000 1.00000000000000000 1.00000000000000000 0.00000000000000000 -0.00000000000000000 -0.00000000000000000 1.00000000000000000 0.00000000000000000 0.75000000000000000
1 294.06446037183133058 174.72948595977703690 0.00000000000000000 0.00000000000000000 0.00000000000000000 1.00000000000000000 
1 290.20007804551448771 172.43605618493484144 0.00000000000000000 0.85995703069865381 0.51036644222749872 0.00000000000000000 
1 294.72538647991456173 177.53200014717430122 0.00000000000000000 0.00000000000000000 0.00000000000000000 1.00000000000000000 
2 293.04372748737631582 176.44940002117434119 0.00000000000000000 0.00000000000000000 0.00000000000000000 1.00000000000000000 1.00000000000000000 0.00000000000000000 -0.00000000000000000 -0.00000000000000000 1.00000000000000000 0.00000000000000000 2.00000000000000178
1 264.08294435016671287 200.99395620059485168 0.00000000000000000 0.00000000000000000 0.00000000000000000 1.00000000000000000 
2 246.79810519257307533 146.67789655617468725 0.00000000000000000 0.00000000000000000 0.00000000000000000 1.00000000000000000 1.00000000000000000 0.00000000000000000 -0.00000000000000000 -0.00000000000000000 1.00000000000000000 0.00000000000000000 57.00000000000077449
2 0.00000000000419482 -628.86305465251643909 0.00000000000000000 0.00000000000000000 0.00000000000000000 1.00000000000000000 1.00000000000000000 0.00000000000000000 -0.00000000000000000 -0.00000000000000000 1.00000000000000000 0.00000000000000000 855.86305465251655278
2 0.00000000000419482 -628.86305465251643909 0.00000000000000000 0.00000000000000000 0.00000000000000000 1.00000000000000000 1.00000000000000000 0.00000000000000000 -0.00000000000000000 -0.00000000000000000 1.00000000000000000 0.00000000000000000 870.86305465251655278
2 -0.00000000000419482 -628.86305465251643909 0.00000000000000000 0.00000000000000000 0.00000000000000000 -1.00000000000000000 -1.00000000000000000 -0.00000000000000000 -0.00000000000000000 -0.00000000000000000 1.00000000000000000 0.00000000000000000 870.86305465251655278
2 -246.79810519257307533 146.67789655617468725 0.00000000000000000 0.00000000000000000 0.00000000000000000 -1.00000000000000000 -1.00000000000000000 -0.00000000000000000 -0.00000000000000000 -0.00000000000000000 1.00000000000000000 0.00000000000000000 57.00000000000077449
2 -293.04372748737631582 176.44940002117434119 0.00000000000000000 0.00000000000000000 0.00000000000000000 -1.00000000000000000 -1.00000000000000000 -0.00000000000000000 -0.00000000000000000 -0.00000000000000000 1.00000000000000000 0.00000000000000000 2.00000000000000178
1 -290.20007804551448771 172.43605618493484144 0.00000000000000000 -0.85995703069865381 0.51036644222749872 0.00000000000000000 
2 -289.81730321384384297 173.08102395795881989 0.00000000000000000 0.00000000000000000 0.00000000000000000 -1.00000000000000000 -1.00000000000000000 -0.00000000000000000 -0.00000000000000000 -0.00000000000000000 1.00000000000000000 0.00000000000000000 0.75000000000000000
2 -222.77092133968457688 71.17462230860432726 0.00000000000000000 0.00000000000000000 0.00000000000000000 -1.00000000000000000 -1.00000000000000000 -0.00000000000000000 -0.00000000000000000 -0.00000000000000000 1.00000000000000000 0.00000000000000000 121.23414659100239987
2 -0.00000000000419482 -628.86305465251643909 0.00000000000000000 0.00000000000000000 0.00000000000000000 -1.00000000000000000 -1.00000000000000000 -0.00000000000000000 -0.00000000000000000 -0.00000000000000000 1.00000000000000000 0.00000000000000000 855.86305465251655278
1 -294.72538647991456173 177.53200014717430122 0.00000000000000000 0.00000000000000000 0.00000000000000000 1.00000000000000000 
1 -264.08294435016671287 200.99395620059485168 0.00000000000000000 0.00000000000000000 0.00000000000000000 1.00000000000000000 
1 -294.06446037183133058 174.72948595977703690 0.00000000000000000 0.00000000000000000 0.00000000000000000 1.00000000000000000 
1 -290.20007804551448771 172.43605618493484144 0.00000000000000000 0.00000000000000000 0.00000000000000000 1.00000000000000000 
1 -289.40507926662701266 172.45446875900108807 0.00000000000000000 0.00000000000000000 0.00000000000000000 1.00000000000000000 
1 -259.53430246658956548 186.70025629416872448 0.00000000000000000 0.00000000000000000 0.00000000000000000 1.00000000000000000 
Polygon3D 0
PolygonOnTriangulations 0
Surfaces 15
2 222.77092133968457688 71.17462230860432726 0.00000000000000000 -0.00000000000000000 -0.00000000000000000 -1.00000000000000000 1.00000000000000000 0.00000000000000000 0.00000000000000000 -0.00000000000000000 1.00000000000000000 -0.00000000000000000 121.23414659100239987
2 289.81730321384384297 173.08102395795881989 0.00000000000000000 -0.00000000000000000 -0.00000000000000000 -1.00000000000000000 1.00000000000000000 0.00000000000000000 0.00000000000000000 -0.00000000000000000 1.00000000000000000 -0.00000000000000000 0.75000000000000000
2 0.00000000000419482 -628.86305465251643909 0.00000000000000000 -0.00000000000000000 -0.00000000000000000 -1.00000000000000000 1.00000000000000000 0.00000000000000000 0.00000000000000000 -0.00000000000000000 1.00000000000000000 -0.00000000000000000 855.86305465251655278
1 -0.00000000000000312 215.53492161461628029 0.00000000000000000 0.00000000000000000 0.00000000000000000 1.00000000000000000 1.00000000000000000 0.00000000000000000 -0.00000000000000000 -0.00000000000000000 1.00000000000000000 0.00000000000000000 
1 290.20007804551448771 172.43605618493484144 0.00000000000000000 -0.51036644222749872 0.85995703069865381 0.00000000000000000 0.85995703069865381 0.51036644222749872 0.00000000000000000 0.00000000000000000 0.00000000000000000 -1.00000000000000000 
2 293.04372748737631582 176.44940002117434119 0.00000000000000000 -0.00000000000000000 -0.00000000000000000 -1.00000000000000000 1.00000000000000000 0.00000000000000000 0.00000000000000000 -0.00000000000000000 1.00000000000000000 -0.00000000000000000 2.00000000000000178
2 246.79810519257307533 146.67789655617468725 0.00000000000000000 -0.00000000000000000 -0.00000000000000000 -1.00000000000000000 1.00000000000000000 0.00000000000000000 0.00000000000000000 -0.00000000000000000 1.00000000000000000 -0.00000000000000000 57.00000000000077449
2 0.00000000000419482 -628.86305465251643909 0.00000000000000000 -0.00000000000000000 -0.00000000000000000 -1.00000000000000000 1.00000000000000000 0.00000000000000000 0.00000000000000000 -0.00000000000000000 1.00000000000000000 -0.00000000000000000 870.86305465251655278
2 -0.00000000000419482 -628.86305465251643909 0.00000000000000000 0.00000000000000000 0.00000000000000000 -1.00000000000000000 -1.00000000000000000 -0.00000000000000000 -0.00000000000000000 -0.00000000000000000 1.00000000000000000 0.00000000000000000 870.86305465251655278
2 -246.79810519257307533 146.67789655617468725 0.00000000000000000 0.00000000000000000 0.00000000000000000 -1.00000000000000000 -1.00000000000000000 -0.00000000000000000 -0.00000000000000000 -0.00000000000000000 1.00000000000000000 0.00000000000000000 57.00000000000077449
2 -293.04372748737631582 176.44940002117434119 0.00000000000000000 0.00000000000000000 0.00000000000000000 -1.00000000000000000 -1.00000000000000000 -0.00000000000000000 -0.00000000000000000 -0.00000000000000000 1.00000000000000000 0.00000000000000000 2.00000000000000178
2 -289.81730321384384297 173.08102395795881989 0.00000000000000000 0.00000000000000000 0.00000000000000000 -1.00000000000000000 -1.00000000000000000 -0.00000000000000000 -0.00000000000000000 -0.00000000000000000 1.00000000000000000 0.00000000000000000 0.75000000000000000
2 -222.77092133968457688 71.17462230860432726 0.00000000000000000 0.00000000000000000 0.00000000000000000 -1.00000000000000000 -1.00000000000000000 -0.00000000000000000 -0.00000000000000000 -0.00000000000000000 1.00000000000000000 0.00000000000000000 121.23414659100239987
2 -0.00000000000419482 -628.86305465251643909 0.00000000000000000 0.00000000000000000 0.00000000000000000 -1.00000000000000000 -1.00000000000000000 -0.00000000000000000 -0.00000000000000000 -0.00000000000000000 1.00000000000000000 0.00000000000000000 855.86305465251655278
1 -290.20007804551448771 172.43605618493484144 0.00000000000000000 -0.51036644222749872 -0.85995703069865381 0.00000000000000000 -0.85995703069865381 0.51036644222749872 0.00000000000000000 -0.00000000000000000 0.00000000000000000 -1.00000000000000000 
Triangulations 0

TShapes 68
Ve
0.000000100000028
289.405079266627013 172.454468759001088 0.000000000000000
0 0

0101101
*
Ed
 0.000000100000028 1 1 0
1  1 0 0.000000000000000 3.000000000000000
2  1 1 0 0.000000000000000 3.000000000000000
2  2 2 0 0.000000000000000 3.000000000000000
4 G1 1 0 2 0
0

0101000
+68 8 -68 10 *
Ve
0.000000100000040
259.534302466589565 186.700256294168724 0.000000000000000
0 0

0101101
*
Ed
 0.000000100000040 1 1 0
1  2 0 0.000000000000000 3.000000000000000
2  3 3 0 0.000000000000000 3.000000000000000
2  4 1 0 0.000000000000000 3.000000000000000
4 G1 3 0 1 0
0

0101000
+66 8 -66 10 *
Ed
 0.000000100000000 1 1 0
1  3 0 0.988872740945626 1.262702477287025
2  5 1 11 0.988872740945626 1.262702477287025
2  6 1 12 0.988872740945626 1.262702477287025
2  7 4 13 0.988872740945626 1.262702477287025
0

0101000
+68 0 -66 0 *
Wi

0101100
+67 0 -65 0 -64 8 +64 10 *
Fa
0  0.000000100000000 1 0

0101000
+63 0 *
Ve
0.000000100000014
290.200078045514488 172.436056184934841 0.000000000000000
0 0

0101101
*
Ed
 0.000000100000014 1 1 0
1  4 0 0.000000000000000 3.000000000000000
2  8 2 0 0.000000000000000 3.000000000000000
4 G1 2 0 5 0
0

0101000
+61 8 -61 10 *
Ed
 0.000000100000000 1 1 0
1  5 0 4.130465394535393 5.247999833710137
2  9 2 11 4.130465394535393 5.247999833710137
2  10 2 12 4.130465394535393 5.247999833710137
2  11 4 13 4.130465394535393 5.247999833710137
0

0101000
+68 0 -61 0 *
Wi

0101100
+67 0 -60 0 -59 8 +59 10 *
Fa
0  0.000000100000000 2 0

0101000
+58 0 *
Ve
0.000000100000014
294.064460371831331 174.729485959777037 0.000000000000000
0 0

0101101
*
Ed
 0.000000100000014 1 1 0
1  6 0 0.000000000000000 3.000000000000000
2  12 6 0 0.000000000000000 3.000000000000000
4 G1 5 0 6 0
0

0101000
+56 8 -56 10 *
Ed
 0.000000100000000 1 1 0
1  7 0 0.000000000000000 4.493692345508598
2  13 4 13 0.000000000000000 4.493692345508598
0

0101000
+61 0 -56 0 *
Wi

0101100
+60 0 -55 0 -54 8 +54 10 *
Fa
0  0.000000100000000 5 0

0101000
+53 0 *
Ve
0.000000100000014
294.725386479914562 177.532000147174301 0.000000000000000
0 0

0101101
*
Ed
 0.000000100000014 1 1 0
1  8 0 0.000000000000000 3.000000000000000
2  14 6 0 0.000000000000000 3.000000000000000
2  15 7 0 0.000000000000000 3.000000000000000
4 G1 6 0 7 0
0

0101000
+51 8 -51 10 *
Ed
 0.000000100000000 1 1 0
1  9 0 5.247999833710140 6.855167815665664
2  16 6 11 5.247999833710140 6.855167815665664
2  17 6 12 5.247999833710140 6.855167815665664
2  18 4 13 5.247999833710140 6.855167815665664
0

0101000
+56 0 -51 0 *
Wi

0101100
+55 0 -50 0 -49 8 +49 10 *
Fa
0  0.000000100000000 6 0

0101000
+48 0 *
Ve
0.000000100000028
264.082944350166713 200.993956200594852 0.000000000000000
0 0

0101101
*
Ed
 0.000000100000028 1 1 0
1  10 0 0.000000000000000 3.000000000000000
2  19 7 0 0.000000000000000 3.000000000000000
2  20 8 0 0.000000000000000 3.000000000000000
4 G1 7 0 8 0
0

0101000
+46 8 -46 10 *
Ed
 0.000000100000000 1 1 0
1  11 0 0.571982508486075 1.262702477287025
2  21 7 11 0.571982508486075 1.262702477287025
2  22 7 12 0.571982508486075 1.262702477287025
2  23 4 13 0.571982508486075 1.262702477287025
0

0101000
+51 0 -46 0 *
Wi

0101100
+50 0 -45 0 -44 8 +44 10 *
Fa
0  0.000000100000000 7 0

0101000
+43 0 *
Ve
0.000000100000066
-0.000000000000000 227.000000000000114 0.000000000000000
0 0

0101101
*
Ed
 0.000000100000000 1 1 0
1  12 0 1.262702477287025 1.570796326794901
2  24 3 11 1.262702477287025 1.570796326794901
2  25 3 12 1.262702477287025 1.570796326794901
2  26 4 13 1.262702477287025 1.570796326794901
0

0101000
+66 0 -41 0 *
Ve
0.000000100000006
0.000000000000000 242.000000000000114 0.000000000000000
0 0

0101101
*
Ed
 0.000000100000000 1 1 0
1  13 0 1.262702477287025 1.570796326794901
2  27 8 11 1.262702477287025 1.570796326794901
2  28 8 12 1.262702477287025 1.570796326794901
2  29 4 13 1.262702477287025 1.570796326794901
0

0101000
+46 0 -39 0 *
Ve
0.000000100000028
-264.082944350166713 200.993956200594852 0.000000000000000
0 0

0101101
*
Ed
 0.000000100000000 1 1 0
1  14 0 1.262702477287025 1.570796326794901
2  30 9 19 1.262702477287025 1.570796326794901
2  31 9 20 1.262702477287025 1.570796326794901
2  32 8 19 1.262702477287025 1.570796326794901
2  33 8 20 1.262702477287025 1.570796326794901
2  34 4 21 1.262702477287025 1.570796326794901
0

0101000
+37 23 -39 24 *
Ve
0.000000100000014
-294.725386479914562 177.532000147174301 0.000000000000000
0 0

0101101
*
Ed
 0.000000100000000 1 1 0
1  15 0 0.571982508486075 1.262702477287025
2  35 10 19 0.571982508486075 1.262702477287025
2  36 10 20 0.571982508486075 1.262702477287025
2  37 4 21 0.571982508486075 1.262702477287025
0

0101000
+35 23 -37 23 *
Ve
0.000000100000014
-294.064460371831331 174.729485959777037 0.000000000000000
0 0

0101101
*
Ed
 0.000000100000000 1 1 0
1  16 0 5.247999833710140 6.855167815665664
2  38 11 19 5.247999833710140 6.855167815665664
2  39 11 20 5.247999833710140 6.855167815665664
2  40 4 21 5.247999833710140 6.855167815665664
0

0101000
+33 23 -35 23 *
Ve
0.000000100000014
-290.200078045514488 172.436056184934841 0.000000000000000
0 0

0101101
*
Ed
 0.000000100000000 1 1 0
1  17 0 0.000000000000000 4.493692345508598
2  41 4 21 0.000000000000000 4.493692345508598
0

0101000
+31 23 -33 23 *
Ve
0.000000100000028
-289.405079266627013 172.454468759001088 0.000000000000000
0 0

0101101
*
Ed
 0.000000100000000 1 1 0
1  18 0 4.130465394535393 5.247999833710137
2  42 12 19 4.130465394535393 5.247999833710137
2  43 12 20 4.130465394535393 5.247999833710137
2  44 4 21 4.130465394535393 5.247999833710137
0

0101000
+29 23 -31 23 *
Ve
0.000000100000040
-259.534302466589565 186.700256294168724 0.000000000000000
0 0

0101101
*
Ed
 0.000000100000000 1 1 0
1  19 0 0.988872740945626 1.262702477287025
2  45 13 19 0.988872740945626 1.262702477287025
2  46 13 20 0.988872740945626 1.262702477287025
2  47 4 21 0.988872740945626 1.262702477287025
0

0101000
+29 23 -27 23 *
Ed
 0.000000100000000 1 1 0
1  20 0 1.262702477287025 1.570796326794901
2  48 14 19 1.262702477287025 1.570796326794901
2  49 14 20 1.262702477287025 1.570796326794901
2  50 3 19 1.262702477287025 1.570796326794901
2  51 3 20 1.262702477287025 1.570796326794901
2  52 4 21 1.262702477287025 1.570796326794901
0

0101000
+27 23 -41 24 *
Wi

0101100
-40 15 -64 15 +59 15 +54 15 +49 15 +44 15 +38 15 -36 18 -34 18 -32 18 
-30 18 -28 18 +26 18 +25 18 *
Fa
0  0.000000100000000 4 0

0101000
+24 0 *
Ed
 0.000000100000014 1 1 0
1  21 0 0.000000000000000 3.000000000000000
2  53 10 0 0.000000000000000 3.000000000000000
2  54 11 0 0.000000000000000 3.000000000000000
4 G1 10 0 11 0
0

0101000
+35 25 -35 26 *
Ed
 0.000000100000028 1 1 0
1  22 0 0.000000000000000 3.000000000000000
2  55 9 0 0.000000000000000 3.000000000000000
2  56 10 0 0.000000000000000 3.000000000000000
4 G1 9 0 10 0
2  57 8 0 0.000000000000000 3.000000000000000
0

0101000
+37 25 -37 26 *
Wi

0101100
+22 0 -21 0 -34 27 +34 28 *
Fa
0  0.000000100000000 10 0

0101000
+20 0 *
Ed
 0.000000100000014 1 1 0
1  23 0 0.000000000000000 3.000000000000000
2  58 11 0 0.000000000000000 3.000000000000000
4 G1 11 0 15 0
0

0101000
+33 25 -33 26 *
Wi

0101100
+18 0 -22 0 -32 27 +32 28 *
Fa
0  0.000000100000000 11 0

0101000
+17 0 *
Ed
 0.000000100000014 1 1 0
1  24 0 0.000000000000000 3.000000000000000
2  59 12 0 0.000000000000000 3.000000000000000
4 G1 15 0 12 0
0

0101000
+31 25 -31 26 *
Wi

0101100
+15 0 -18 0 -30 27 +30 28 *
Fa
0  0.000000100000000 15 0

0101000
+14 0 *
Ed
 0.000000100000028 1 1 0
1  25 0 0.000000000000000 3.000000000000000
2  60 12 0 0.000000000000000 3.000000000000000
2  61 13 0 0.000000000000000 3.000000000000000
4 G1 12 0 13 0
0

0101000
+29 25 -29 26 *
Wi

0101100
+12 0 -15 0 -28 27 +28 28 *
Fa
0  0.000000100000000 12 0

0101000
+11 0 *
Ed
 0.000000100000040 1 1 0
1  26 0 0.000000000000000 3.000000000000000
2  62 13 0 0.000000000000000 3.000000000000000
2  63 14 0 0.000000000000000 3.000000000000000
4 G1 13 0 14 0
2  64 3 0 0.000000000000000 3.000000000000000
0

0101000
+27 25 -27 26 *
Wi

0101100
+12 0 -9 0 -26 27 +26 28 *
Fa
0  0.000000100000000 13 0

0101000
+8 0 *
Wi

0101100
-25 28 -9 0 +25 27 -40 8 +65 0 +40 10 *
Fa
0  0.000000100000000 3 0

0101000
+6 0 *
Wi

0101100
-21 0 +36 27 -38 8 +45 0 +38 10 -36 28 *
Fa
0  0.000000100000000 8 0

0101000
+4 0 *
Sh

0101100
+62 0 -57 0 -52 0 -47 0 -42 0 -23 14 +19 0 +16 0 +13 0 +10 0 
-7 0 +23 29 +5 0 -3 0 *
So

1100000
+2 0 *

+1 1 