
CASCADE Topology V1, (c) Matra-Datavision
Locations 51
1
1.000000000000000 0.000000000000000 0.000000000000000 0.000000000000000 
0.000000000000000 1.000000000000000 0.000000000000000 0.000000000000000 
0.000000000000000 0.000000000000000 1.000000000000000 0.000000000000000 
1
1.000000000000000 0.000000000000000 0.000000000000000 0.000000000000000 
0.000000000000000 1.000000000000000 0.000000000000000 0.000000000000000 
0.000000000000000 0.000000000000000 1.000000000000000 0.000000000000000 
1
1.000000000000000 0.000000000000000 0.000000000000000 0.000000000000000 
0.000000000000000 1.000000000000000 0.000000000000000 0.000000000000000 
0.000000000000000 0.000000000000000 1.000000000000000 0.000000000000000 
2  2 1 3 -1 0
1
1.000000000000000 0.000000000000000 0.000000000000000 0.000000000000000 
0.000000000000000 1.000000000000000 0.000000000000000 0.000000000000000 
0.000000000000000 0.000000000000000 1.000000000000000 0.000000000000000 
1
1.000000000000000 0.000000000000000 0.000000000000000 0.000000000000000 
0.000000000000000 1.000000000000000 0.000000000000000 0.000000000000000 
0.000000000000000 0.000000000000000 1.000000000000000 0.000000000000000 
1
1.000000000000000 0.000000000000000 0.000000000000000 0.000000000000000 
0.000000000000000 1.000000000000000 0.000000000000000 0.000000000000000 
0.000000000000000 0.000000000000000 1.000000000000000 0.000000000000000 
1
1.000000000000000 0.000000000000000 0.000000000000000 0.000000000000000 
0.000000000000000 1.000000000000000 0.000000000000000 0.000000000000000 
0.000000000000000 0.000000000000000 1.000000000000000 0.000000000000000 
2  5 1 6 1 7 1 8 1 3 -1 0
2  3 1 8 -1 7 -1 6 -1 5 -1 0
1
1.000000000000000 0.000000000000000 0.000000000000000 0.000000000000000 
0.000000000000000 1.000000000000000 0.000000000000000 0.000000000000000 
0.000000000000000 0.000000000000000 1.000000000000000 1074.119686068545207 
2  11 -1 3 1 8 -1 7 -1 6 -1 5 -1 0
2  6 -1 5 -1 0
2  2 1 8 -1 7 -1 6 -1 5 -1 0
1
1.000000000000000 0.000000000000000 0.000000000000000 0.000000000000000 
0.000000000000000 1.000000000000000 0.000000000000000 0.000000000000000 
0.000000000000000 0.000000000000000 1.000000000000000 0.000000000000000 
2  15 1 1 -1 3 1 8 -1 7 -1 6 -1 5 -1 0
2  15 1 1 -1 3 1 2 -1 0
2  3 1 2 -1 0
2  7 1 8 1 3 -1 0
1
1.000000000000000 0.000000000000000 0.000000000000000 0.000000000000000 
0.000000000000000 1.000000000000000 0.000000000000000 0.000000000000000 
0.000000000000000 0.000000000000000 1.000000000000000 0.000000000000000 
1
1.000000000000000 0.000000000000000 0.000000000000000 0.000000000000000 
0.000000000000000 1.000000000000000 0.000000000000000 0.000000000000000 
0.000000000000000 0.000000000000000 1.000000000000000 0.000000000000000 
1
1.000000000000000 0.000000000000000 0.000000000000000 0.000000000000000 
0.000000000000000 1.000000000000000 0.000000000000000 0.000000000000000 
0.000000000000000 0.000000000000000 1.000000000000000 0.000000000000000 
2  20 1 21 -1 22 1 2 -1 0
1
1.000000000000000 0.000000000000000 0.000000000000000 0.000000000000000 
0.000000000000000 1.000000000000000 0.000000000000000 0.000000000000000 
0.000000000000000 0.000000000000000 1.000000000000000 0.000000000000000 
2  24 1 21 -1 22 1 2 -1 0
1
1.000000000000000 0.000000000000000 0.000000000000000 0.000000000000000 
0.000000000000000 1.000000000000000 0.000000000000000 0.000000000000000 
0.000000000000000 0.000000000000000 1.000000000000000 0.000000000000000 
2  26 1 2 -1 0
1
1.000000000000000 0.000000000000000 0.000000000000000 0.000000000000000 
0.000000000000000 1.000000000000000 0.000000000000000 0.000000000000000 
0.000000000000000 0.000000000000000 1.000000000000000 0.000000000000000 
2  28 1 2 -1 0
1
1.000000000000000 0.000000000000000 0.000000000000000 -50.500000000000000 
0.000000000000000 1.000000000000000 0.000000000000000 0.000000000000011 
0.000000000000000 0.000000000000000 1.000000000000000 -0.000000000000014 
1
1.000000000000000 0.000000000000000 0.000000000000000 101.000000000000000 
0.000000000000000 1.000000000000000 0.000000000000000 -0.000000000000022 
0.000000000000000 0.000000000000000 1.000000000000000 0.000000000000028 
2  30 1 31 1 0
2  30 1 2 1 3 -1 0
2  30 -1 0
2  31 -1 30 -1 0
2  20 1 21 -1 22 1 2 -1 30 -1 0
2  3 1 2 -1 30 -1 0
2  30 1 31 1 2 1 3 -1 0
2  3 1 2 -1 31 -1 30 -1 0
2  15 1 1 -1 3 1 2 -1 31 -1 30 -1 0
1
1.000000000000000 0.000000000000000 0.000000000000000 0.000000000000000 
0.000000000000000 1.000000000000000 0.000000000000000 0.000000000000000 
0.000000000000000 0.000000000000000 1.000000000000000 0.000000000000000 
1
1.000000000000000 0.000000000000000 0.000000000000000 0.000000000000000 
0.000000000000000 1.000000000000000 0.000000000000000 0.000000000000000 
0.000000000000000 0.000000000000000 1.000000000000000 0.000000000000000 
1
1.000000000000000 0.000000000000000 0.000000000000000 0.000000000000000 
0.000000000000000 1.000000000000000 0.000000000000000 0.000000000000000 
0.000000000000000 0.000000000000000 1.000000000000000 0.000000000000000 
2  41 1 42 -1 43 1 2 -1 0
1
1.000000000000000 0.000000000000000 0.000000000000000 0.000000000000000 
0.000000000000000 1.000000000000000 0.000000000000000 0.000000000000000 
0.000000000000000 0.000000000000000 1.000000000000000 0.000000000000000 
1
1.000000000000000 0.000000000000000 0.000000000000000 0.000000000000000 
0.000000000000000 1.000000000000000 0.000000000000000 0.000000000000000 
0.000000000000000 0.000000000000000 1.000000000000000 0.000000000000000 
2  45 1 46 -1 28 1 2 -1 0
2  26 1 2 -1 31 -1 30 -1 0
2  26 1 2 -1 30 -1 0
2  28 1 2 -1 31 -1 30 -1 0
2  28 1 2 -1 30 -1 0
Curve2ds 145
1 0.00000000000000000 0.00000000000000000 1.00000000000000000 0.00000000000000000 
1 0.00000000000000000 -1074.11968606854520658 1.00000000000000000 0.00000000000000000 
2 -29.49999999859286959 4.35437621677968334 1.00000000000000000 0.00000000000000000 -0.00000000000000000 1.00000000000000000 21.00000000150543045
2 -0.00000000150415476 -21.00000000150671653 -0.00000000000000022 -1.00000000000000000 -1.00000000000000000 0.00000000000000022 21.00000000150543045
2 21.00000000150671653 -3.99999999849583876 1.00000000000000000 0.00000000000000000 -0.00000000000000000 1.00000000000000000 21.00000000150543045
1 29.49999999819178242 -16.64562378472958670 -1.00000000000000000 0.00000000000000000 
1 0.00000000000000000 -0.00000000000000000 1.00000000000000000 0.00000000000000000 
1 0.00000000000000000 -1074.11968606854520658 1.00000000000000000 0.00000000000000000 
1 21.00000000000510170 -79.99999999829137209 0.00000000000000022 1.00000000000000000 
1 79.99999999829137209 -25.00000000000510880 -1.00000000000000000 0.00000000000000000 
1 0.00000000000000000 0.00000000000000000 1.00000000000000000 0.00000000000000000 
1 0.00000000000000000 -1074.11968606854520658 1.00000000000000000 0.00000000000000000 
2 29.49999999839369025 4.35437621677584197 1.00000000000000000 0.00000000000000000 -0.00000000000000000 1.00000000000000000 21.00000000150543045
2 -0.00000000150032637 -79.99999999849327992 -0.00000000000000022 -1.00000000000000000 -1.00000000000000000 0.00000000000000022 21.00000000150543045
2 79.99999999849327992 -3.99999999849968013 1.00000000000000000 0.00000000000000000 -0.00000000000000000 1.00000000000000000 21.00000000150543045
1 6.28318530717958623 0.00000000000000000 0.00000000000000000 -1.00000000000000000 
1 -0.00000000000000056 -1.99999999999999978 1.00000000000000000 0.00000000000000000 
1 0.00000000000000056 -2.00000000000000000 -1.00000000000000000 0.00000000000000000 
1 0.00000000000000000 0.00000000000000000 0.00000000000000000 -1.00000000000000000 
1 0.00000000000000000 -3.99999999999998890 1.00000000000000000 -0.00000000000000022 
1 4.71238898039429621 0.00000000000000000 0.00000000000000000 -1.00000000000000000 
1 58.99999999658291472 0.00000000000000000 0.00000000000000000 -1.00000000000000000 
2 -0.00000000150415431 -21.00000000150671653 -0.00000000000000022 -1.00000000000000000 1.00000000000000000 -0.00000000000000022 21.00000000150543045
1 6.28318530717958623 -1.99999999999999267 -1.00000000000000000 0.00000000000000000 
6 0 1 0.00000000000000000 -2.00000000000000000  0.00000000000000000 0.00000000000000000  
6 0 1 4.00000000000000000 -2.00000000000000000  4.00000000000000000 0.00000000000000000  
8 0.00000000000000000 1.00000000000000000
1 6.28318530717958623 0.00000000000000000 0.00000000000000000 1.00000000000000000 
6 0 1 35.00000000000001421 -3.99999999999998890  33.00000000000001421 -3.99999999999998890  
6 0 1 4.00000000000001510 -3.99999999999998890  2.00000000000001510 -3.99999999999998890  
7 0 0  1 2 2  3.14159265358020301 0.00000000000000000  3.14159265358020301 -1.99999999999998690 
 0.00000000000000000 2 1.00000000000000000 2
6 0 1 -0.00000000170554504 0.00000000000001313  -0.00000000170554459 -1.99999999999998690  
6 0 1 4.00000000000001421 -3.99999999999998890  2.00000000000001421 -3.99999999999998845  
8 -39.99999999914568605 18.99999999743722867
1 21.00000000000511235 -39.99999999914569315 0.00000000000000022 1.00000000000000000 
8 -39.99999999914568605 18.99999999743722867
1 39.99999999914568605 -2.00000000000000266 1.00000000000000000 0.00000000000000028 
1 4.71238898037507514 0.00000000000000000 0.00000000000000000 -1.00000000000000000 
1 0.00000000000000000 -0.00000000000000000 0.00000000000000000 -1.00000000000000000 
6 0 1 -4.00000000000000000 -2.00000000000000000  -4.00000000000000000 0.00000000000000000  
6 0 1 -101.00000000000000000 -2.00000000000000000  -101.00000000000000000 0.00000000000000000  
8 0.00000000000000000 1.00000000000000000
1 0.00000000000000000 0.00000000000000000 0.00000000000000000 1.00000000000000000 
7 0 0  1 2 2  6.28318530710846446 0.00000000000000000  6.28318530710846446 -2.00000000000001510 
 0.00000000000000000 2 1.00000000000000000 2
6 0 1 4.00000000000339995 -0.00000000000001490  4.00000000000339995 -2.00000000000001510  
6 0 1 0.00000000000001490 -4.00000000000001155  2.00000000000001510 -4.00000000000001066  
2 -0.00000000150032592 -79.99999999849327992 -0.00000000000000022 -1.00000000000000000 1.00000000000000000 -0.00000000000000022 21.00000000150543045
1 6.28318530717958623 -2.00000000000000933 -1.00000000000000000 0.00000000000000000 
1 4.71238898038468967 0.00000000000000000 0.00000000000000000 -1.00000000000000000 
1 -0.00000000000000044 -2.00000000000000000 1.00000000000000000 -0.00000000000000000 
1 0.00000000000000044 -2.00000000000000000 -1.00000000000000000 0.00000000000000000 
1 106.00000000000000000 0.00000000000000222 -0.00000000000000006 -1.00000000000000000 
1 -0.00000000000128608 -3.99999999999998579 1.00000000000000000 -0.00000000000000028 
1 -0.00000000000128608 -3.99999999999998579 1.00000000000000000 -0.00000000000000028 
1 -0.00000000000128608 -3.99999999999998579 1.00000000000000000 -0.00000000000000028 
1 -4.71238898038468967 101.00000000000000000 1.00000000000000000 0.00000000000000000 
1 0.00000000000000000 0.00000000000000000 1.00000000000000000 0.00000000000000000 
1 0.00000000000000000 -101.00000000000000000 1.00000000000000000 0.00000000000000000 
1 6.28318530717958623 0.00000000000000000 -1.00000000000000000 0.00000000000000000 
1 0.00000000000000000 0.00000000000000000 1.00000000000000000 0.00000000000000000 
2 31.00000000000001421 -3.99999999999998845 1.00000000000000000 -0.00000000000000022 -0.00000000000000022 -1.00000000000000000 4.00000000000000000
2 -0.00000000170554415 -3.99999999999998668 -0.00000000000000044 1.00000000000000000 -1.00000000000000000 -0.00000000000000044 4.00000000000000000
2 4.00000000000339817 -4.00000000000001510 0.00000000000000044 1.00000000000000000 1.00000000000000000 -0.00000000000000044 4.00000000000000000
2 4.00000000000001510 -4.00000000000000977 -1.00000000000000000 -0.00000000000000044 0.00000000000000044 -1.00000000000000000 4.00000000000000000
1 0.00000000000000000 0.00000000000000000 0.00000000000000000 -1.00000000000000000 
1 0.00000000000000000 0.00000000000000000 -1.00000000000000000 0.00000000000000000 
8 0.00000000000000000 101.00000000000000000
1 6.28318530717958623 0.00000000000000000 0.00000000000000000 -1.00000000000000000 
1 0.00000000000000000 1.00000000000000000 1.00000000000000000 0.00000000000000000 
2 31.00000000000001421 -3.99999999999998845 1.00000000000000000 -0.00000000000000022 -0.00000000000000022 -1.00000000000000000 2.00000000000000000
2 0.00000000000001510 -3.99999999999998890 1.00000000000000000 -0.00000000000000022 -0.00000000000000022 -1.00000000000000000 2.00000000000000000
2 0.00000000000001510 -3.99999999999998890 1.00000000000000000 -0.00000000000000022 -0.00000000000000022 -1.00000000000000000 2.00000000000000000
2 -0.00000000170554415 -3.99999999999998668 -0.00000000000000044 1.00000000000000000 -1.00000000000000000 -0.00000000000000044 2.00000000000000000
2 -0.00000000170554415 -3.99999999999998668 -0.00000000000000044 1.00000000000000000 -1.00000000000000000 -0.00000000000000044 2.00000000000000000
2 0.00000000000001421 -3.99999999999998801 1.00000000000000000 -0.00000000000000044 -0.00000000000000044 -1.00000000000000000 2.00000000000000000
2 -0.00000000170554415 -3.99999999999998668 -0.00000000000000044 1.00000000000000000 -1.00000000000000000 -0.00000000000000044 2.00000000000000000
2 0.00000000000001421 -3.99999999999998801 1.00000000000000000 -0.00000000000000044 -0.00000000000000044 -1.00000000000000000 2.00000000000000000
1 4.71238898038468967 0.00000000000000000 0.00000000000000000 1.00000000000000000 
6 0 1 0.00000000000000000 -2.00000000000000000  0.00000000000000000 0.00000000000000000  
6 0 1 106.00000000000000000 -2.00000000000000000  106.00000000000000000 0.00000000000000000  
6 0 1 31.00000000000001421 0.00000000000001121  31.00000000000001421 -1.99999999999998890  
6 0 1 3.99999999829445585 -3.99999999999998579  1.99999999829445585 -3.99999999999998623  
6 0 1 3.99999999829445585 -3.99999999999998579  1.99999999829445585 -3.99999999999998623  
6 0 1 3.99999999829445585 -3.99999999999998579  1.99999999829445585 -3.99999999999998623  
1 1.57079632679489656 0.00000000000000000 0.00000000000000000 1.00000000000000000 
7 0 0  1 2 2  -101.00000000000000000 -1.99999999999999978  -101.00000000000000000 0.00000000000000044 
 0.00000000000000000 2 1.00000000000000000 2
7 0 0  1 2 2  -106.00000000000000000 -2.00000000000000000  -106.00000000000000000 0.00000000000000000 
 0.00000000000000000 2 1.00000000000000000 2
7 0 0  1 2 2  4.00000000000001332 -0.00000000000001132  4.00000000000001332 -2.00000000000001155 
 0.00000000000000000 2 1.00000000000000000 2
7 0 0  1 2 2  4.00000000000001332 -0.00000000000001132  4.00000000000001332 -2.00000000000001155 
 0.00000000000000000 2 1.00000000000000000 2
7 0 0  1 2 2  4.00000000000001332 -0.00000000000001132  4.00000000000001332 -2.00000000000001155 
 0.00000000000000000 2 1.00000000000000000 2
7 0 0  1 2 2  0.00000000000339909 -4.00000000000001332  2.00000000000339950 -4.00000000000001421 
 0.00000000000000000 2 1.00000000000000000 2
7 0 0  1 2 2  0.00000000000339909 -4.00000000000001332  2.00000000000339950 -4.00000000000001421 
 0.00000000000000000 2 1.00000000000000000 2
7 0 0  1 2 2  4.00000000000001332 -0.00000000000001044  4.00000000000001421 -2.00000000000001066 
 0.00000000000000000 2 1.00000000000000000 2
7 0 0  1 2 2  0.00000000000339928 -4.00000000000001332  2.00000000000339950 -4.00000000000001421 
 0.00000000000000000 2 1.00000000000000000 2
7 0 0  1 2 2  4.00000000000001332 -0.00000000000001044  4.00000000000001421 -2.00000000000001066 
 0.00000000000000000 2 1.00000000000000000 2
1 6.28318530717958623 1.00000000000000000 -1.00000000000000000 0.00000000000000000 
2 4.00000000000001421 -4.00000000000001155 -1.00000000000000000 -0.00000000000000022 0.00000000000000022 -1.00000000000000000 2.00000000000000000
2 4.00000000000001421 -4.00000000000001155 -1.00000000000000000 -0.00000000000000022 0.00000000000000022 -1.00000000000000000 2.00000000000000000
2 4.00000000000001421 -4.00000000000001155 -1.00000000000000000 -0.00000000000000022 0.00000000000000022 -1.00000000000000000 2.00000000000000000
2 4.00000000000339906 -4.00000000000001510 0.00000000000000044 1.00000000000000000 1.00000000000000000 -0.00000000000000044 2.00000000000000000
2 4.00000000000339906 -4.00000000000001510 0.00000000000000044 1.00000000000000000 1.00000000000000000 -0.00000000000000044 2.00000000000000000
2 4.00000000000001510 -4.00000000000001066 -1.00000000000000000 -0.00000000000000044 0.00000000000000044 -1.00000000000000000 2.00000000000000000
2 4.00000000000339995 -4.00000000000001510 0.00000000000000044 1.00000000000000000 1.00000000000000000 -0.00000000000000044 2.00000000000000000
2 4.00000000000001510 -4.00000000000001066 -1.00000000000000000 -0.00000000000000044 0.00000000000000044 -1.00000000000000000 2.00000000000000000
1 0.00000000000000000 0.00000000000000000 -0.00000000000000006 -1.00000000000000000 
1 0.00000000000000044 -2.00000000000000000 -1.00000000000000000 -0.00000000000000000 
1 -0.00000000000130740 -109.99999999999998579 1.00000000000000000 -0.00000000000000028 
1 -0.00000000000130740 -109.99999999999998579 1.00000000000000000 -0.00000000000000028 
1 -0.00000000000130740 -109.99999999999998579 1.00000000000000000 -0.00000000000000028 
1 0.00000000000000000 0.00000000000000000 1.00000000000000000 0.00000000000000000 
1 0.00000000000000044 -2.00000000000000000 -1.00000000000000000 0.00000000000000000 
1 -0.00000000000000044 -2.00000000000000000 1.00000000000000000 0.00000000000000000 
1 0.00000000000000000 0.00000000000000000 1.00000000000000000 0.00000000000000000 
1 -0.00000000000000600 -101.00000000000000000 1.00000000000000000 0.00000000000000000 
1 0.00000000000337523 -110.00000000000001421 0.00000000000000022 1.00000000000000000 
1 -0.00000000000130740 -109.99999999999998579 0.00000000000000022 1.00000000000000000 
1 100.99999999999869260 -110.00000000000001421 0.00000000000000022 1.00000000000000000 
1 3.99999999829447939 -109.99999999999998579 -0.00000000000000022 1.00000000000000000 
1 0.00000000000337523 -110.00000000000001421 0.00000000000000022 1.00000000000000000 
1 -0.00000000000130740 -109.99999999999998579 0.00000000000000022 1.00000000000000000 
1 100.99999999999869260 -110.00000000000001421 0.00000000000000022 1.00000000000000000 
1 3.99999999829447939 -109.99999999999998579 -0.00000000000000022 1.00000000000000000 
1 0.00000000000337542 -110.00000000000001421 0.00000000000000022 1.00000000000000000 
1 -0.00000000000130740 -109.99999999999998579 0.00000000000000022 1.00000000000000000 
1 100.99999999999869260 -110.00000000000001421 0.00000000000000022 1.00000000000000000 
1 3.99999999829447939 -109.99999999999998579 -0.00000000000000022 1.00000000000000000 
1 0.00000000000000000 0.00000000000000000 -1.00000000000000000 -0.00000000000000000 
1 106.00000000000000000 0.00000000000000222 -0.00000000000000006 -1.00000000000000000 
1 0.00000000000000000 0.00000000000000000 1.00000000000000000 0.00000000000000000 
1 0.00000000000000000 0.00000000000000000 1.00000000000000000 0.00000000000000000 
1 1.99999999829447939 -109.99999999999998579 -0.00000000000000022 1.00000000000000000 
1 1.99999999829447939 -109.99999999999998579 -0.00000000000000022 1.00000000000000000 
1 1.99999999829447939 -109.99999999999998579 -0.00000000000000022 1.00000000000000000 
6 0 1 0.00000000000000000 -2.00000000000000000  0.00000000000000000 0.00000000000000000  
6 0 1 0.00000000000000000 -2.00000000000000000  0.00000000000000000 0.00000000000000000  
6 0 1 3.99999999829447939 -109.99999999999998579  1.99999999829447939 -109.99999999999998579  
6 0 1 3.99999999829447939 -109.99999999999998579  1.99999999829447939 -109.99999999999998579  
6 0 1 3.99999999829447939 -109.99999999999998579  1.99999999829447939 -109.99999999999998579  
6 0 1 0.00000000000000000 -2.00000000000000044  0.00000000000000000 0.00000000000000000  
6 0 1 -101.00000000000000000 -2.00000000000000000  -101.00000000000000000 0.00000000000000000  
6 0 1 0.00000000000337544 -110.00000000000001421  2.00000000000337552 -110.00000000000001421  
6 0 1 0.00000000000337544 -110.00000000000001421  2.00000000000337552 -110.00000000000001421  
6 0 1 0.00000000000337563 -110.00000000000001421  2.00000000000337597 -110.00000000000001421  
1 -0.00000000000000600 -101.00000000000000000 1.00000000000000000 0.00000000000000000 
1 0.00000000000000000 0.00000000000000000 -1.00000000000000000 0.00000000000000000 
1 2.00000000000337552 -110.00000000000001421 0.00000000000000022 1.00000000000000000 
1 2.00000000000337552 -110.00000000000001421 0.00000000000000022 1.00000000000000000 
1 2.00000000000337597 -110.00000000000001421 0.00000000000000022 1.00000000000000000 
1 0.00000000000000000 0.00000000000000000 -0.00000000000000006 -1.00000000000000000 
1 0.00000000000000000 -0.00000000000000000 -1.00000000000000000 -0.00000000000000000 
Curves 26
2 -29.49999999849328347 -3.99999999849583876 0.00000000000000000 0.00000000000000000 0.00000000000000000 1.00000000000000000 1.00000000000000000 0.00000000000000000 -0.00000000000000000 -0.00000000000000000 1.00000000000000000 0.00000000000000000 21.00000000150543045
1 29.49999999829136854 -25.00000000000510880 0.00000000000000000 -1.00000000000000000 0.00000000000000000 0.00000000000000000 
2 29.49999999849327637 -3.99999999849968013 0.00000000000000000 0.00000000000000000 0.00000000000000000 1.00000000000000000 1.00000000000000000 0.00000000000000000 -0.00000000000000000 -0.00000000000000000 1.00000000000000000 0.00000000000000000 21.00000000150543045
1 -50.50000000000000000 -3.99999999999998890 -0.00000000000001313 1.00000000000000000 -0.00000000000000022 0.00000000000000028 
1 -29.49999999829154973 -25.00000000000319034 0.00000000000000000 0.00000000000000000 0.00000000000000000 1.00000000000000000 
2 -29.49999999849328347 -3.99999999849583876 1.99999999999999267 0.00000000000000000 0.00000000000000000 -1.00000000000000000 1.00000000000000000 0.00000000000000000 0.00000000000000000 0.00000000000000000 -1.00000000000000000 0.00000000000000000 21.00000000150543045
6 0 1 -50.50000000000000000 -3.99999999999998890 -0.00000000000001313  -50.50000000000000000 -3.99999999999998845 1.99999999999998690  
1 -10.50000000085431573 -25.00000000000510880 2.00000000000000266 -1.00000000000000000 -0.00000000000000000 -0.00000000000000028 
1 29.49999999829136854 -25.00000000000510880 0.00000000000000000 0.00000000000000000 0.00000000000000000 1.00000000000000000 
6 0 1 50.50000000000000000 -4.00000000000001155 0.00000000000001490  50.50000000000000000 -4.00000000000001066 2.00000000000001510  
2 29.49999999849327637 -3.99999999849968013 2.00000000000000933 0.00000000000000000 0.00000000000000000 -1.00000000000000000 1.00000000000000000 0.00000000000000000 0.00000000000000000 0.00000000000000000 -1.00000000000000000 0.00000000000000000 21.00000000150543045
1 -50.50000000000000000 0.00000000000001210 3.99999999999998579 1.00000000000000000 -0.00000000000000022 0.00000000000000028 
2 0.00000000000000178 -3.99999999999999911 4.00000000000000089 -1.00000000000000000 0.00000000000000022 -0.00000000000000028 0.00000000000000028 -0.00000000000000044 -1.00000000000000000 -0.00000000000000022 -1.00000000000000000 0.00000000000000044 4.00000000000000000
1 -50.50000000000000000 -3.99999999999998845 1.99999999999998690 1.00000000000000000 -0.00000000000000022 0.00000000000000028 
2 -50.50000000000000000 -3.99999999999998801 3.99999999999998668 -1.00000000000000000 0.00000000000000022 -0.00000000000000028 0.00000000000000028 -0.00000000000000044 -1.00000000000000000 -0.00000000000000022 -1.00000000000000000 0.00000000000000044 2.00000000000000000
6 0 1 -50.50000000000000000 0.00000000000001210 3.99999999999998579  -50.50000000000000000 -1.99999999999998801 3.99999999999998623  
7 0 0  1 2 2  50.50000000000000000 -0.00000000000001044 4.00000000000001332  50.50000000000000000 -2.00000000000001066 4.00000000000001421 
 0.00000000000000000 2 1.00000000000000000 2
2 50.50000000000000000 -4.00000000000001066 4.00000000000001510 -1.00000000000000000 0.00000000000000022 -0.00000000000000028 0.00000000000000028 -0.00000000000000044 -1.00000000000000000 -0.00000000000000022 -1.00000000000000000 0.00000000000000044 2.00000000000000000
1 -50.50000000000002132 0.00000000000003564 109.99999999999998579 1.00000000000000000 -0.00000000000000022 0.00000000000000028 
1 -0.00000000000002442 0.00000000000002442 110.00000000000000000 0.00000000000000022 -0.00000000000000022 -1.00000000000000000 
1 -50.50000000000000000 -1.99999999999998801 3.99999999999998623 1.00000000000000000 -0.00000000000000022 0.00000000000000028 
1 -50.50000000000002132 -1.99999999999996447 109.99999999999998579 0.00000000000000022 -0.00000000000000022 -1.00000000000000000 
6 0 1 -50.50000000000002132 0.00000000000003564 109.99999999999998579  -50.50000000000002132 -1.99999999999996447 109.99999999999998579  
6 0 1 50.49999999999997868 0.00000000000001321 110.00000000000001421  50.49999999999997868 -1.99999999999998690 110.00000000000001421  
1 50.49999999999997868 -1.99999999999998690 110.00000000000001421 0.00000000000000022 -0.00000000000000022 -1.00000000000000000 
1 -50.50000000000002132 -1.99999999999996447 109.99999999999998579 1.00000000000000000 -0.00000000000000022 0.00000000000000028 
Polygon3D 0
PolygonOnTriangulations 0
Surfaces 43
1 -50.50000000000000000 -3.99999999999998890 -0.00000000000001313 0.00000000000000028 -0.00000000000000022 -1.00000000000000000 -0.00000000000000022 -1.00000000000000000 0.00000000000000022 -1.00000000000000000 0.00000000000000022 -0.00000000000000028 
2 -29.49999999849328347 -3.99999999849583876 0.00000000000000000 -0.00000000000000000 -0.00000000000000000 -1.00000000000000000 1.00000000000000000 0.00000000000000000 0.00000000000000000 -0.00000000000000000 1.00000000000000000 -0.00000000000000000 21.00000000150543045
1 0.00000000009958476 -8.35437621527552210 0.00000000000000000 0.00000000000000000 0.00000000000000000 1.00000000000000000 1.00000000000000000 0.00000000000000000 -0.00000000000000000 -0.00000000000000000 1.00000000000000000 0.00000000000000000 
1 -50.50000000000000000 0.00000000000000000 0.00000000000000000 -0.00000000000000000 0.00000000000000022 1.00000000000000000 1.00000000000000000 0.00000000000000000 0.00000000000000000 0.00000000000000000 1.00000000000000000 -0.00000000000000022 
1 29.49999999829136854 -25.00000000000510880 0.00000000000000000 0.00000000000000000 -1.00000000000000000 0.00000000000000000 -1.00000000000000000 0.00000000000000000 0.00000000000000000 -0.00000000000000000 -0.00000000000000000 -1.00000000000000000 
2 29.49999999849327637 -3.99999999849968013 0.00000000000000000 -0.00000000000000000 -0.00000000000000000 -1.00000000000000000 1.00000000000000000 0.00000000000000000 0.00000000000000000 -0.00000000000000000 1.00000000000000000 -0.00000000000000000 21.00000000150543045
2 -50.50000000000000000 -3.99999999999998801 3.99999999999998668 -1.00000000000000000 0.00000000000000022 -0.00000000000000028 0.00000000000000028 -0.00000000000000044 -1.00000000000000000 -0.00000000000000022 -1.00000000000000000 0.00000000000000044 4.00000000000000000
1 -50.50000000000000000 -3.99999999999998845 1.99999999999998668 -0.00000000000000022 -1.00000000000000000 0.00000000000000022 1.00000000000000000 -0.00000000000000022 0.00000000000000028 -0.00000000000000028 0.00000000000000022 1.00000000000000000 
1 -50.50000000000000000 -3.99999999999998845 1.99999999999998690 0.00000000000000022 1.00000000000000000 -0.00000000000000022 -1.00000000000000000 0.00000000000000022 -0.00000000000000028 -0.00000000000000028 0.00000000000000022 1.00000000000000000 
1 -50.50000000000000000 -3.99999999999998845 1.99999999999998690 0.00000000000000028 -0.00000000000000022 -1.00000000000000000 -0.00000000000000022 -1.00000000000000000 0.00000000000000022 -1.00000000000000000 0.00000000000000022 -0.00000000000000028 
1 -50.50000000000000000 0.00000000000001155 1.99999999999998601 -1.00000000000000000 0.00000000000000022 -0.00000000000000000 -0.00000000000000022 -1.00000000000000000 0.00000000000000022 0.00000000000000000 0.00000000000000022 1.00000000000000000 
9 0 0 0 0 8 1 9 2 2 2 -50.49999999999995737 0.00000000000001199 3.99999999999998312  -50.49999999999995737 -1.99999999999998579 3.99999999999998224  
-50.49999999999943157 0.00000000000001968 3.21460183660251708  -50.49999999999943157 -1.99999999999997513 3.60730091830123989  
-50.50000000000197531 -0.17624315584483524 2.42920342598319561  -50.50000000000197531 -2.08812157792244690 3.21460171299163466  
-50.49999999999669598 -0.52872773651419891 1.68994706265961825  -50.49999999999669598 -2.26436386825703284 2.84497353132973352  
-50.50000000000345324 -1.04296497688049361 1.04296497688054957  -50.50000000000345324 -2.52148248844030354 2.52148248844032530  
-50.49999999999754863 -1.68994706265968930 0.52872773651416094  -50.49999999999754863 -2.84497353132979258 2.26436386825704306  
-50.50000000000113687 -2.42920342598315031 0.17624315584484981  -50.50000000000113687 -3.21460171299159203 2.08812157792242914  
-50.49999999999972289 -3.21460183660253662 -0.00000000000002669  -50.49999999999972289 -3.60730091830125588 1.99999999999997824  
-50.50000000000000000 -3.99999999999998845 -0.00000000000001332  -50.50000000000000000 -3.99999999999998801 1.99999999999998623  

4.71238898038468967 9
6.28318530717958623 9

0.00000000000000000 2
1.00000000000000000 2

1 -50.50000000000000000 0.00000000000000777 35.00000000000000000 1.00000000000000000 -0.00000000000000000 0.00000000000000000 0.00000000000000000 -0.00000000000000022 -1.00000000000000000 0.00000000000000000 1.00000000000000000 -0.00000000000000022 
1 -50.50000000000000000 0.00000000000000089 4.00000000000000089 1.00000000000000000 -0.00000000000000000 0.00000000000000000 0.00000000000000000 -0.00000000000000022 -1.00000000000000000 0.00000000000000000 1.00000000000000000 -0.00000000000000022 
1 -50.49999999999871392 -3.99999999829444386 0.00000000000000000 -1.00000000000000000 0.00000000000000000 0.00000000000000000 0.00000000000000000 1.00000000000000000 0.00000000000000000 0.00000000000000000 0.00000000000000000 -1.00000000000000000 
1 -50.50000000000000000 0.00000000000000000 4.00000000000000089 1.00000000000000000 0.00000000000000000 0.00000000000000000 0.00000000000000000 0.00000000000000000 -1.00000000000000000 -0.00000000000000000 1.00000000000000000 0.00000000000000000 
1 50.50000000000000000 -0.00000000000001066 2.00000000000001421 1.00000000000000000 -0.00000000000000022 0.00000000000000000 0.00000000000000022 1.00000000000000000 -0.00000000000000022 0.00000000000000000 0.00000000000000022 1.00000000000000000 
9 0 0 0 0 8 1 9 2 2 2 50.50000000000000000 -4.00000000000001243 0.00000000000001488  50.50000000000000000 -4.00000000000001155 2.00000000000001510  
50.50000000000007105 -3.21460183660256238 0.00000000000001309  50.50000000000007105 -3.60730091830128963 2.00000000000001554  
50.49999999999972999 -2.42920342598316807 0.17624315584483591  50.49999999999972999 -3.21460171299158004 2.08812157792241138  
50.50000000000054712 -1.68994706265973260 0.52872773651426996  50.50000000000054712 -2.84497353132989295 2.26436386825717539  
50.49999999999933209 -1.04296497688047163 1.04296497688047918  50.49999999999933209 -2.52148248844020806 2.52148248844019962  
50.50000000000056133 -0.52872773651427329 1.68994706265972949  50.50000000000056133 -2.26436386825717406 2.84497353132991426  
50.49999999999971578 -0.17624315584482936 2.42920342598317252  50.49999999999971578 -2.08812157792240338 3.21460171299156983  
50.50000000000007816 -0.00000000000000922 3.21460183660256194  50.50000000000007816 -2.00000000000001332 3.60730091830129629  
50.50000000000000000 -0.00000000000001044 4.00000000000001332  50.50000000000000000 -2.00000000000001066 4.00000000000001421  

0.00000000000000000 9
1.57079632679489656 9

0.00000000000000000 2
1.00000000000000000 2

1 50.49999999999870681 0.00000000000338884 0.00000000000000000 1.00000000000000000 0.00000000000000000 -0.00000000000000000 0.00000000000000000 -1.00000000000000000 0.00000000000000000 0.00000000000000000 -0.00000000000000000 -1.00000000000000000 
1 50.50000000000000000 0.00000000000000000 0.00000000000000000 -1.00000000000000000 0.00000000000000000 0.00000000000000000 0.00000000000000000 0.00000000000000000 1.00000000000000000 0.00000000000000000 1.00000000000000000 -0.00000000000000000 
1 -50.50000000000002132 0.00000000000003564 109.99999999999998579 0.00000000000000022 1.00000000000000000 -0.00000000000000022 0.00000000000000022 -0.00000000000000022 -1.00000000000000000 -1.00000000000000000 0.00000000000000022 -0.00000000000000022 
1 -50.50000000000000000 -1.99999999999998801 3.99999999999998579 0.00000000000000028 0.00000000000000000 -1.00000000000000000 1.00000000000000000 -0.00000000000000022 0.00000000000000028 -0.00000000000000022 -1.00000000000000000 -0.00000000000000000 
1 -50.50000000000000000 -1.99999999999998801 3.99999999999998623 -0.00000000000000028 0.00000000000000022 1.00000000000000000 -1.00000000000000000 0.00000000000000022 -0.00000000000000028 -0.00000000000000022 -1.00000000000000000 0.00000000000000022 
1 -50.49999999999871392 0.00000000000338865 0.00000000000000000 0.00000000000000000 1.00000000000000000 0.00000000000000000 1.00000000000000000 0.00000000000000000 0.00000000000000000 0.00000000000000000 0.00000000000000000 -1.00000000000000000 
1 -50.49999999999871392 0.00000000000338865 0.00000000000000000 0.00000000000000000 1.00000000000000000 0.00000000000000000 1.00000000000000000 0.00000000000000000 0.00000000000000000 0.00000000000000000 0.00000000000000000 -1.00000000000000000 
1 -50.49999999999871392 0.00000000000338884 0.00000000000000000 0.00000000000000000 1.00000000000000000 0.00000000000000000 1.00000000000000000 0.00000000000000000 0.00000000000000000 0.00000000000000000 0.00000000000000000 -1.00000000000000000 
2 101.00000000000000000 -4.00000000000002132 4.00000000000002842 -1.00000000000000000 0.00000000000000022 -0.00000000000000028 0.00000000000000022 1.00000000000000000 -0.00000000000000022 0.00000000000000028 -0.00000000000000022 -1.00000000000000000 4.00000000000000000
2 -50.50000000000000000 -3.99999999999998801 3.99999999999998668 -1.00000000000000000 0.00000000000000022 -0.00000000000000028 0.00000000000000028 -0.00000000000000044 -1.00000000000000000 -0.00000000000000022 -1.00000000000000000 0.00000000000000044 2.00000000000000000
1 -50.50000000000000000 0.00000000000000089 4.00000000000000089 1.00000000000000000 -0.00000000000000000 0.00000000000000000 0.00000000000000000 -0.00000000000000022 -1.00000000000000000 0.00000000000000000 1.00000000000000000 -0.00000000000000022 
1 -50.49999999999871392 -3.99999999829444386 0.00000000000000000 -1.00000000000000000 0.00000000000000000 0.00000000000000000 0.00000000000000000 1.00000000000000000 0.00000000000000000 0.00000000000000000 0.00000000000000000 -1.00000000000000000 
1 -50.49999999999871392 -3.99999999829444386 0.00000000000000000 -1.00000000000000000 0.00000000000000000 0.00000000000000000 0.00000000000000000 1.00000000000000000 0.00000000000000000 0.00000000000000000 0.00000000000000000 -1.00000000000000000 
1 -50.50000000000000000 0.00000000000000000 4.00000000000000089 1.00000000000000000 0.00000000000000000 0.00000000000000000 0.00000000000000000 0.00000000000000000 -1.00000000000000000 -0.00000000000000000 1.00000000000000000 0.00000000000000000 
1 -50.50000000000002132 -1.99999999999996447 109.99999999999998579 -1.00000000000000000 -0.00000000000000000 -0.00000000000000022 0.00000000000000022 -0.00000000000000022 -1.00000000000000000 -0.00000000000000000 -1.00000000000000000 0.00000000000000022 
1 50.49999999999997868 -1.99999999999998690 110.00000000000001421 1.00000000000000000 0.00000000000000000 0.00000000000000022 -0.00000000000000022 0.00000000000000022 1.00000000000000000 -0.00000000000000000 -1.00000000000000000 0.00000000000000022 
1 50.50000000000000000 0.00000000000000000 0.00000000000000000 -1.00000000000000000 0.00000000000000000 -0.00000000000000000 0.00000000000000000 0.00000000000000022 1.00000000000000000 0.00000000000000000 1.00000000000000000 -0.00000000000000022 
1 50.50000000000000000 0.00000000000000000 0.00000000000000000 -1.00000000000000000 0.00000000000000000 -0.00000000000000000 0.00000000000000000 0.00000000000000022 1.00000000000000000 0.00000000000000000 1.00000000000000000 -0.00000000000000022 
1 50.50000000000000000 0.00000000000000000 0.00000000000000000 -1.00000000000000000 0.00000000000000000 -0.00000000000000000 0.00000000000000000 0.00000000000000022 1.00000000000000000 0.00000000000000000 1.00000000000000000 -0.00000000000000022 
1 50.49999999999870681 0.00000000000338865 0.00000000000000000 1.00000000000000000 0.00000000000000000 -0.00000000000000000 0.00000000000000000 -1.00000000000000000 0.00000000000000000 0.00000000000000000 -0.00000000000000000 -1.00000000000000000 
1 50.49999999999870681 0.00000000000338865 0.00000000000000000 1.00000000000000000 0.00000000000000000 -0.00000000000000000 0.00000000000000000 -1.00000000000000000 0.00000000000000000 0.00000000000000000 -0.00000000000000000 -1.00000000000000000 
1 50.50000000000000000 0.00000000000000000 0.00000000000000000 -1.00000000000000000 0.00000000000000000 0.00000000000000000 0.00000000000000000 0.00000000000000000 1.00000000000000000 0.00000000000000000 1.00000000000000000 -0.00000000000000000 
1 -50.50000000000002132 -1.99999999999996447 109.99999999999998579 -0.00000000000000028 0.00000000000000000 1.00000000000000000 -1.00000000000000000 0.00000000000000022 -0.00000000000000028 -0.00000000000000022 -1.00000000000000000 -0.00000000000000000 
1 -0.00000000000002442 0.00000000000002442 110.00000000000000000 0.00000000000000022 1.00000000000000000 -0.00000000000000022 0.00000000000000022 -0.00000000000000022 -1.00000000000000000 -1.00000000000000000 0.00000000000000022 -0.00000000000000022 
1 -50.50000000000002132 -1.99999999999996447 109.99999999999998579 0.00000000000000022 1.00000000000000000 -0.00000000000000022 0.00000000000000022 -0.00000000000000022 -1.00000000000000000 -1.00000000000000000 0.00000000000000022 -0.00000000000000022 
Triangulations 0

TShapes 71
Ve
0.001000000568528
-50.499999999999574 -3.999999999431474 -0.000000000000009
0 0

0101101
*
Ve
0.001000000000013
-29.499999998291550 -25.000000000003190 0.000000000000000
0 0

0101101
*
Ed
 0.001000000000012 1 1 0
1  1 0 3.141592653580203 4.712388980394296
2  1 2 10 3.141592653580203 4.712388980394296
2  2 2 12 3.141592653580203 4.712388980394296
2  3 3 13 3.141592653580203 4.712388980394296
2  4 1 14 3.141592653580203 4.712388980394296
2  5 4 16 3.141592653580203 4.712388980394296
0

0101000
+71 10 -70 13 *
Ve
0.001000000000017
29.499999998291369 -25.000000000005109 0.000000000000000
0 0

0101101
*
Ed
 0.001000000000013 1 1 0
1  2 0 0.000000000000000 58.999999996582915
2  6 3 13 0.000000000000000 58.999999996582915
2  7 5 10 0.000000000000000 58.999999996582915
2  8 5 12 0.000000000000000 58.999999996582915
2  9 1 14 0.000000000000000 58.999999996582915
2  10 4 16 0.000000000000000 58.999999996582915
0

0101000
+68 13 -70 13 *
Ve
0.001000000002314
50.499999999999567 -3.999999999997755 0.000000000000010
0 0

0101101
*
Ed
 0.001000000000017 1 1 0
1  3 0 4.712388980375075 6.283185307108464
2  11 6 10 4.712388980375075 6.283185307108464
2  12 6 12 4.712388980375075 6.283185307108464
2  13 3 13 4.712388980375075 6.283185307108464
2  14 1 14 4.712388980375075 6.283185307108464
2  15 4 16 4.712388980375075 6.283185307108464
0

0101000
+68 13 -66 10 *
Ed
 0.001000000000000 1 1 0
1  4 0 0.000000000000000 101.000000000000000
2  16 7 0 0.000000000000000 101.000000000000000
4 G1 1 0 7 0
2  17 8 0 0.000000000000000 101.000000000000000
2  18 9 0 0.000000000000000 101.000000000000000
2  19 1 0 0.000000000000000 101.000000000000000
2  20 4 17 0.000000000000000 101.000000000000000
0

0101000
+71 18 -66 18 *
Wi

0101100
-69 9 +67 9 -65 9 +64 4 *
Fa
0  0.001000000000000 1 4

0101000
+63 0 *
Ve
0.001000050001918
-29.499999998291550 -25.000000000003190 1.999999999999997
0 0

0101101
*
Ed
 0.000000500000000 1 1 0
1  5 0 0.000000000000000 1.999999999999997
2  21 2 0 0.000000000000000 1.999999999999997
4 G1 2 0 5 0
2  22 5 0 0.000000000000000 1.999999999999997
0

0101000
+70 19 -61 0 *
Ve
0.001000050001000
-50.500000000000000 -3.999999999999988 1.999999999999987
0 0

0101101
*
Ed
 0.001000000000000 1 1 0
1  6 0 1.570796326785290 3.141592653599383
2  23 10 4 1.570796326785290 3.141592653599383
2  24 2 0 1.570796326785290 3.141592653599383
0

0101000
+61 0 -59 4 *
Ed
 0.000001000000000 1 1 0
1  7 0 0.000000000000000 1.000000000000000
4 C0 9 0 11 0
2  25 9 0 0.000000000000000 1.000000000000000
2  26 11 0 0.000000000000000 1.000000000000000
2  27 12 0 0.000000000000000 1.000000000000000
2  28 13 23 0.000000000000000 1.000000000000000
2  29 14 25 0.000000000000000 1.000000000000000
2  30 2 18 0.000000000000000 1.000000000000000
2  31 15 18 0.000000000000000 1.000000000000000
2  32 16 17 0.000000000000000 1.000000000000000
0

0101000
+71 18 -59 0 *
Wi

0101100
-69 9 -60 0 -58 0 +57 4 *
Fa
0  0.000000500000000 2 0

0101000
+56 0 *
Ve
0.001000050000004
29.499999998291369 -25.000000000005109 2.000000000000014
0 0

0101101
*
Ed
 0.001000050000000 1 1 0
1  8 0 -39.999999999145686 18.999999997437229
2  33 10 4 -39.999999999145686 18.999999997437229
2  34 5 0 -39.999999999145686 18.999999997437229
0

0101000
+54 0 -61 0 *
Ed
 0.000000500000000 1 1 0
1  9 0 0.000000000000000 2.000000000000014
2  35 6 0 0.000000000000000 2.000000000000014
4 G1 5 0 6 0
2  36 5 0 0.000000000000000 2.000000000000014
0

0101000
+68 19 -54 0 *
Wi

0101100
-67 9 -60 0 +53 0 +52 0 *
Fa
0  0.000000500000000 5 0

0101000
+51 0 *
Ve
0.001000050001000
50.500000000000000 -4.000000000000011 2.000000000000015
0 0

0101101
*
Ed
 0.000001000000000 1 1 0
1  10 0 0.000000000000000 1.000000000000000
4 C0 17 0 9 0
2  37 17 0 0.000000000000000 1.000000000000000
2  38 9 0 0.000000000000000 1.000000000000000
2  39 18 0 0.000000000000000 1.000000000000000
2  40 6 18 0.000000000000000 1.000000000000000
2  41 19 18 0.000000000000000 1.000000000000000
2  42 20 17 0.000000000000000 1.000000000000000
0

0101000
+66 18 -49 0 *
Ed
 0.001000000000000 1 1 0
1  11 0 0.000000000071122 1.570796326804511
2  43 10 4 0.000000000071122 1.570796326804511
2  44 6 0 0.000000000071122 1.570796326804511
0

0101000
+49 4 -54 0 *
Wi

0101100
-65 9 -48 4 -47 0 +52 0 *
Fa
0  0.000000500000000 6 0

0101000
+46 0 *
Ve
0.001000000000000
-0.000000000000001 0.000000000000001 4.000000000000000
0 0

0101101
*
Ed
 0.001000000000000 1 1 0
1  12 0 0.000000000000000 101.000000000000000
2  45 7 0 0.000000000000000 101.000000000000000
4 G1 7 0 21 0
2  46 22 0 0.000000000000000 101.000000000000000
2  47 23 0 0.000000000000000 101.000000000000000
2  48 21 0 0.000000000000000 101.000000000000000
2  49 24 27 0.000000000000000 101.000000000000000
2  50 25 29 0.000000000000000 101.000000000000000
2  51 26 18 0.000000000000000 101.000000000000000
0

0101000
+44 30 -44 32 *
Ed
 0.000001000000000 1 1 0
2  52 27 0 4.712388980384690 6.283185307179586
1  13 0 4.712388980384690 6.283185307179586
2  53 7 34 4.712388980384690 6.283185307179586
2  54 7 35 4.712388980384690 6.283185307179586
2  55 18 35 4.712388980384690 6.283185307179586
2  56 12 34 4.712388980384690 6.283185307179586
2  57 13 36 4.712388980384690 6.283185307179586
2  58 15 37 4.712388980384690 6.283185307179586
0

0101000
+44 0 -71 37 *
Ed
 0.000001000000000 1 1 0
2  52 27 0 4.712388980384690 6.283185307179586
1  13 0 4.712388980384690 6.283185307179586
2  53 7 34 4.712388980384690 6.283185307179586
2  54 7 35 4.712388980384690 6.283185307179586
2  55 18 35 4.712388980384690 6.283185307179586
2  56 12 34 4.712388980384690 6.283185307179586
2  57 13 36 4.712388980384690 6.283185307179586
2  59 19 39 4.712388980384690 6.283185307179586
2  60 20 40 4.712388980384690 6.283185307179586
0

0101000
+44 0 -66 39 *
Wi

0101100
+43 4 -64 4 -42 33 +41 38 *
Fa
0  0.000000100000002 7 4

0101000
+40 0 *
Ed
 0.001000000000000 1 1 0
2  61 10 0 0.000000000000000 101.000000000000000
1  14 0 0.000000000000000 101.000000000000000
2  62 9 0 0.000000000000000 101.000000000000000
2  63 28 0 0.000000000000000 101.000000000000000
0

0101000
+59 0 -49 0 *
Wi

0101100
+58 0 +53 0 +47 0 +38 4 *
Fa
0  0.001000000000000 10 4

0101000
+37 0 *
Ve
0.001000050001000
-50.500000000000000 -1.999999999999988 3.999999999999986
0 0

0101101
*
Ed
 0.000001000000000 1 1 0
2  53 28 0 4.712388980384690 6.283185307179586
1  15 0 4.712388980384690 6.283185307179586
2  64 12 0 4.712388980384690 6.283185307179586
2  65 13 23 4.712388980384690 6.283185307179586
2  66 14 25 4.712388980384690 6.283185307179586
2  67 29 44 4.712388980384690 6.283185307179586
2  68 30 27 4.712388980384690 6.283185307179586
2  69 31 29 4.712388980384690 6.283185307179586
2  70 32 47 4.712388980384690 6.283185307179586
2  71 15 18 4.712388980384690 6.283185307179586
2  72 16 17 4.712388980384690 6.283185307179586
0

0101000
+35 0 -59 0 *
Ed
 0.000001000000000 1 1 0
1  16 0 0.000000000000000 1.000000000000000
2  73 12 0 0.000000000000000 1.000000000000000
4 C0 23 0 12 0
2  74 23 0 0.000000000000000 1.000000000000000
2  75 33 0 0.000000000000000 1.000000000000000
2  76 13 23 0.000000000000000 1.000000000000000
2  77 30 27 0.000000000000000 1.000000000000000
2  78 31 29 0.000000000000000 1.000000000000000
2  79 15 18 0.000000000000000 1.000000000000000
0

0101000
+44 30 -35 0 *
Wi

0101100
+42 33 +57 4 -34 4 -33 4 *
Fa
0  0.000000100000000 12 4

0101000
+32 0 *
Ve
0.001000000000004
50.500000000000000 -2.000000000000011 4.000000000000014
0 0

0101101
*
Ed
 0.000001000000000 1 1 0
1  17 0 0.000000000000000 1.000000000000000
2  80 18 0 0.000000000000000 1.000000000000000
4 C0 18 0 23 0
2  81 23 0 0.000000000000000 1.000000000000000
2  82 34 0 0.000000000000000 1.000000000000000
2  83 35 23 0.000000000000000 1.000000000000000
2  84 36 25 0.000000000000000 1.000000000000000
2  85 37 44 0.000000000000000 1.000000000000000
2  86 38 27 0.000000000000000 1.000000000000000
2  87 39 29 0.000000000000000 1.000000000000000
2  88 40 47 0.000000000000000 1.000000000000000
2  89 19 18 0.000000000000000 1.000000000000000
2  90 20 17 0.000000000000000 1.000000000000000
0

0101000
+44 32 -30 0 *
Ed
 0.000001000000000 1 1 0
2  54 28 0 4.712388980384690 6.283185307179586
1  18 0 4.712388980384690 6.283185307179586
2  91 18 0 4.712388980384690 6.283185307179586
2  92 35 23 4.712388980384690 6.283185307179586
2  93 36 25 4.712388980384690 6.283185307179586
2  94 37 44 4.712388980384690 6.283185307179586
2  95 38 27 4.712388980384690 6.283185307179586
2  96 39 29 4.712388980384690 6.283185307179586
2  97 40 47 4.712388980384690 6.283185307179586
2  98 19 18 4.712388980384690 6.283185307179586
2  99 20 17 4.712388980384690 6.283185307179586
0

0101000
+30 0 -49 0 *
Wi

0101100
-41 38 +29 4 +28 4 -48 4 *
Fa
0  0.000000100000000 18 4

0101000
+27 0 *
Ve
0.001000000000000
-0.000000000000024 0.000000000000024 110.000000000000000
0 0

0101101
*
Ed
 0.001000000000000 1 1 0
1  19 0 0.000000000000000 101.000000000000000
2  100 21 0 0.000000000000000 101.000000000000000
2  101 41 0 0.000000000000000 101.000000000000000
2  102 24 27 0.000000000000000 101.000000000000000
2  103 25 29 0.000000000000000 101.000000000000000
2  104 26 18 0.000000000000000 101.000000000000000
0

0101000
+25 30 -25 32 *
Ed
 0.001000000000000 1 1 0
2  105 42 0 0.000000000000000 106.000000000000000
1  20 0 0.000000000000000 106.000000000000000
2  106 34 35 0.000000000000000 106.000000000000000
2  107 33 34 0.000000000000000 106.000000000000000
2  108 21 34 0.000000000000000 106.000000000000000
2  109 21 35 0.000000000000000 106.000000000000000
2  110 38 48 0.000000000000000 106.000000000000000
2  111 24 49 0.000000000000000 106.000000000000000
2  112 24 48 0.000000000000000 106.000000000000000
2  113 30 49 0.000000000000000 106.000000000000000
2  114 39 50 0.000000000000000 106.000000000000000
2  115 25 51 0.000000000000000 106.000000000000000
2  116 25 50 0.000000000000000 106.000000000000000
2  117 31 51 0.000000000000000 106.000000000000000
2  118 19 39 0.000000000000000 106.000000000000000
2  119 26 37 0.000000000000000 106.000000000000000
2  120 26 39 0.000000000000000 106.000000000000000
2  121 15 37 0.000000000000000 106.000000000000000
0

0101000
+25 0 -44 0 *
Wi

0101100
+24 0 -43 0 -23 30 +23 32 *
Fa
0  0.001000000000000 21 0

0101000
+22 0 *
Ed
 0.001000000000000 1 1 0
2  45 28 0 0.000000000000000 101.000000000000000
1  21 0 0.000000000000000 101.000000000000000
2  122 23 0 0.000000000000000 101.000000000000000
2  123 43 0 0.000000000000000 101.000000000000000
0

0101000
+35 0 -30 0 *
Wi

0101100
+20 0 -38 0 -34 0 +28 0 *
Fa
0  0.000000100000002 28 0

0101000
+19 0 *
Ve
0.001000000000000
-50.500000000000021 -1.999999999999964 109.999999999999986
0 0

0101101
*
Ed
 0.001000000000000 1 1 0
2  124 43 0 0.000000000000000 106.000000000000000
1  22 0 0.000000000000000 106.000000000000000
2  125 33 0 0.000000000000000 106.000000000000000
2  126 30 27 0.000000000000000 106.000000000000000
2  127 31 29 0.000000000000000 106.000000000000000
2  128 15 18 0.000000000000000 106.000000000000000
0

0101000
+17 0 -35 0 *
Ed
 0.000000500001307 1 1 0
1  23 0 0.000000000000000 1.000000000000000
4 C0 41 0 33 0
2  129 33 0 0.000000000000000 1.000000000000000
2  130 41 0 0.000000000000000 1.000000000000000
2  131 30 27 0.000000000000000 1.000000000000000
2  132 31 29 0.000000000000000 1.000000000000000
2  133 15 18 0.000000000000000 1.000000000000000
0

0101000
+25 30 -17 0 *
Wi

0101100
+23 30 +33 0 -16 0 -15 0 *
Fa
0  0.000000100000000 33 0

0101000
+14 0 *
Ve
0.001000000000000
50.499999999999979 -1.999999999999987 110.000000000000014
0 0

0101101
*
Ed
 0.000000500001272 1 1 0
1  24 0 0.000000000000000 1.000000000000000
4 C0 34 0 41 0
2  134 34 0 0.000000000000000 1.000000000000000
2  135 41 0 0.000000000000000 1.000000000000000
2  136 38 27 0.000000000000000 1.000000000000000
2  137 39 29 0.000000000000000 1.000000000000000
2  138 19 18 0.000000000000000 1.000000000000000
0

0101000
+25 32 -12 0 *
Ed
 0.001000000000000 1 1 0
2  139 43 0 0.000000000000000 106.000000000000000
1  25 0 0.000000000000000 106.000000000000000
2  140 34 0 0.000000000000000 106.000000000000000
2  141 38 27 0.000000000000000 106.000000000000000
2  142 39 29 0.000000000000000 106.000000000000000
2  143 19 18 0.000000000000000 106.000000000000000
0

0101000
+12 0 -30 0 *
Wi

0101100
-23 32 +11 0 +10 0 -29 0 *
Fa
0  0.000000100000000 34 0

0101000
+9 0 *
Ed
 0.001000000000000 1 1 0
2  144 43 0 0.000000000000000 101.000000000000000
1  26 0 0.000000000000000 101.000000000000000
2  145 41 0 0.000000000000000 101.000000000000000
0

0101000
+17 0 -12 0 *
Wi

0101000
-24 0 +15 0 +7 0 -11 0 *
Fa
0  0.000000100000000 41 0

0101000
+6 0 *
Wi

0101100
+7 0 -20 0 -16 0 +10 0 *
Fa
0  0.001000000000000 43 0

0101000
+4 0 *
Sh

0101100
+62 0 -55 0 +50 0 -45 0 +39 0 -36 0 +31 0 +26 0 +21 4 -18 4 
+13 4 +8 4 +5 4 -3 4 *
So

0100000
+2 0 *

+1 1 