
CASCADE Topology V1, (c) Matra-Datavision
Locations 29
1
1.000000000000000 0.000000000000000 0.000000000000000 0.000000000000000 
0.000000000000000 1.000000000000000 0.000000000000000 0.000000000000000 
0.000000000000000 0.000000000000000 1.000000000000000 0.000000000000000 
1
1.000000000000000 0.000000000000000 0.000000000000000 0.000000000000000 
0.000000000000000 1.000000000000000 0.000000000000000 0.000000000000000 
0.000000000000000 0.000000000000000 1.000000000000000 0.000000000000000 
1
1.000000000000000 0.000000000000000 0.000000000000000 0.000000000000000 
0.000000000000000 1.000000000000000 0.000000000000000 0.000000000000000 
0.000000000000000 0.000000000000000 1.000000000000000 0.000000000000000 
1
1.000000000000000 0.000000000000000 0.000000000000000 0.000000000000000 
0.000000000000000 1.000000000000000 0.000000000000000 0.000000000000000 
0.000000000000000 0.000000000000000 1.000000000000000 0.000000000000000 
1
1.000000000000000 0.000000000000000 0.000000000000000 0.000000000000000 
0.000000000000000 0.000000000000000 -1.000000000000000 0.000000000000000 
0.000000000000000 1.000000000000000 0.000000000000000 470.000000000000000 
1
1.000000000000000 0.000000000000000 0.000000000000000 0.000000000000000 
0.000000000000000 1.000000000000000 0.000000000000000 0.000000000000000 
0.000000000000000 0.000000000000000 1.000000000000000 0.000000000000000 
1
1.000000000000000 0.000000000000000 0.000000000000000 -0.000000000000000 
0.000000000000000 1.000000000000000 0.000000000000000 1702.634142791676368 
0.000000000000000 0.000000000000000 1.000000000000000 -0.000000000000378 
2  1 1 2 1 3 1 4 1 5 1 6 -1 7 1 0
1
1.000000000000000 0.000000000000000 0.000000000000000 0.000000000000000 
0.000000000000000 1.000000000000000 0.000000000000000 -3405.268285583352736 
0.000000000000000 0.000000000000000 1.000000000000000 0.000000000000756 
2  1 1 2 1 3 1 4 1 5 1 6 -1 7 1 9 1 0
1
1.000000000000000 0.000000000000000 0.000000000000000 -0.000000000000000 
0.000000000000000 1.000000000000000 0.000000000000000 1702.634142791676368 
0.000000000000000 0.000000000000000 1.000000000000000 -0.000000000000378 
1
1.000000000000000 0.000000000000000 0.000000000000000 0.000000000000000 
0.000000000000000 1.000000000000000 0.000000000000000 0.000000000000000 
0.000000000000000 0.000000000000000 1.000000000000000 0.000000000000000 
1
1.000000000000000 0.000000000000000 0.000000000000000 0.000000000000000 
0.000000000000000 0.000000000000000 -1.000000000000000 0.000000000000000 
0.000000000000000 1.000000000000000 0.000000000000000 470.000000000000000 
1
1.000000000000000 0.000000000000000 0.000000000000000 0.000000000000000 
0.000000000000000 1.000000000000000 0.000000000000000 0.000000000000000 
0.000000000000000 0.000000000000000 1.000000000000000 0.000000000000000 
2  11 -1 12 1 13 -1 14 -1 3 -1 2 -1 1 -1 0
1
1.000000000000000 0.000000000000000 0.000000000000000 0.000000000000000 
0.000000000000000 1.000000000000000 0.000000000000000 -3405.268285583352736 
0.000000000000000 0.000000000000000 1.000000000000000 0.000000000000756 
2  16 -1 11 -1 12 1 13 -1 14 -1 3 -1 2 -1 1 -1 0
1
1.000000000000000 0.000000000000000 0.000000000000000 -0.000000000000000 
0.000000000000000 1.000000000000000 0.000000000000000 1702.634142791676368 
0.000000000000000 0.000000000000000 1.000000000000000 -0.000000000000378 
1
1.000000000000000 0.000000000000000 0.000000000000000 0.000000000000000 
0.000000000000000 1.000000000000000 0.000000000000000 0.000000000000000 
0.000000000000000 0.000000000000000 1.000000000000000 0.000000000000000 
1
1.000000000000000 0.000000000000000 0.000000000000000 0.000000000000000 
0.000000000000000 0.000000000000000 -1.000000000000000 0.000000000000000 
0.000000000000000 1.000000000000000 0.000000000000000 470.000000000000000 
1
1.000000000000000 0.000000000000000 0.000000000000000 0.000000000000000 
0.000000000000000 1.000000000000000 0.000000000000000 0.000000000000000 
0.000000000000000 0.000000000000000 1.000000000000000 0.000000000000000 
2  18 -1 19 1 20 -1 21 -1 3 -1 2 -1 1 -1 0
1
1.000000000000000 0.000000000000000 0.000000000000000 0.000000000000000 
0.000000000000000 1.000000000000000 0.000000000000000 -3405.268285583352736 
0.000000000000000 0.000000000000000 1.000000000000000 0.000000000000756 
2  23 -1 18 -1 19 1 20 -1 21 -1 3 -1 2 -1 1 -1 0
2  7 -1 6 1 5 -1 4 -1 3 -1 2 -1 1 -1 0
2  9 -1 7 -1 6 1 5 -1 4 -1 3 -1 2 -1 1 -1 0
2  6 -1 7 1 0
2  1 1 2 1 3 1 4 1 5 1 0
2  6 -1 7 1 9 1 0
Curve2ds 16
1 0.00000000000000000 0.00000000000000000 0.00000000000000000 -1.00000000000000000 
1 6.28318530717958623 0.00000000000000000 0.00000000000000000 -1.00000000000000000 
1 0.00000000000000000 0.00000000000000000 1.00000000000000000 0.00000000000000000 
1 0.00000000000000000 -3405.26828558335273556 1.00000000000000000 0.00000000000000000 
1 0.00000000000000000 0.00000000000000000 1.00000000000000000 0.00000000000000000 
1 0.00000000000000000 -3405.26828558335273556 1.00000000000000000 0.00000000000000000 
1 0.00000000000000000 0.00000000000000000 1.00000000000000000 0.00000000000000000 
1 0.00000000000000000 -3405.26828558335273556 1.00000000000000000 0.00000000000000000 
1 0.00000000000000000 0.00000000000000000 0.00000000000000000 -1.00000000000000000 
1 6.28318530717958623 0.00000000000000000 0.00000000000000000 -1.00000000000000000 
1 0.00000000000000000 0.00000000000000000 1.00000000000000000 0.00000000000000000 
1 0.00000000000000000 -3405.26828558335273556 1.00000000000000000 0.00000000000000000 
1 0.00000000000000000 0.00000000000000000 1.00000000000000000 0.00000000000000000 
1 0.00000000000000000 -3405.26828558335273556 1.00000000000000000 0.00000000000000000 
1 0.00000000000000000 0.00000000000000000 1.00000000000000000 0.00000000000000000 
1 0.00000000000000000 -3405.26828558335273556 1.00000000000000000 0.00000000000000000 
Curves 4
1 1.80000000000001492 1702.63414279167636778 469.99999999999960210 0.00000000000000000 -1.00000000000000000 0.00000000000000022 
2 0.00000000000000000 0.00000000000000000 0.00000000000000000 0.00000000000000000 0.00000000000000000 1.00000000000000000 1.00000000000000000 0.00000000000000000 -0.00000000000000000 -0.00000000000000000 1.00000000000000000 0.00000000000000000 1.80000000000001470
1 14.30000000009866312 1702.63414279167659515 1604.99999999999818101 0.00000000000000000 -1.00000000000000000 0.00000000000000022 
2 12.50000000009864820 1134.99999999999863576 0.00000000000000000 0.00000000000000000 0.00000000000000000 1.00000000000000000 1.00000000000000000 0.00000000000000000 -0.00000000000000000 -0.00000000000000000 1.00000000000000000 0.00000000000000000 1.80000000000001470
Polygon3D 0
PolygonOnTriangulations 0
Surfaces 8
2 -0.00000000000000000 1702.63414279167636778 469.99999999999960210 -0.00000000000000000 1.00000000000000000 -0.00000000000000022 1.00000000000000000 0.00000000000000000 0.00000000000000000 -0.00000000000000000 0.00000000000000022 1.00000000000000000 1.80000000000001470
2 -0.00000000000000000 1702.63414279167636778 469.99999999999960210 -0.00000000000000000 1.00000000000000000 -0.00000000000000022 1.00000000000000000 0.00000000000000000 0.00000000000000000 -0.00000000000000000 0.00000000000000022 1.00000000000000000 1.80000000000001470
2 -0.00000000000000000 1702.63414279167636778 469.99999999999960210 -0.00000000000000000 1.00000000000000000 -0.00000000000000022 1.00000000000000000 0.00000000000000000 0.00000000000000000 -0.00000000000000000 0.00000000000000022 1.00000000000000000 1.80000000000001470
1 6.25000000004932144 0.00000000000012601 1037.49999999999954525 -0.00000000000000000 1.00000000000000000 -0.00000000000000022 0.00000000000000000 0.00000000000000022 1.00000000000000000 1.00000000000000000 0.00000000000000000 -0.00000000000000000 
2 12.50000000009864820 1702.63414279167659515 1604.99999999999818101 -0.00000000000000000 1.00000000000000000 -0.00000000000000022 1.00000000000000000 0.00000000000000000 0.00000000000000000 -0.00000000000000000 0.00000000000000022 1.00000000000000000 1.80000000000001470
2 12.50000000009864820 1702.63414279167659515 1604.99999999999818101 -0.00000000000000000 1.00000000000000000 -0.00000000000000022 1.00000000000000000 0.00000000000000000 0.00000000000000000 -0.00000000000000000 0.00000000000000022 1.00000000000000000 1.80000000000001470
2 12.50000000009864820 1702.63414279167659515 1604.99999999999818101 -0.00000000000000000 1.00000000000000000 -0.00000000000000022 1.00000000000000000 0.00000000000000000 0.00000000000000000 -0.00000000000000000 0.00000000000000022 1.00000000000000000 1.80000000000001470
1 6.25000000004932144 0.00000000000012601 1037.49999999999954525 -0.00000000000000000 1.00000000000000000 -0.00000000000000022 0.00000000000000000 0.00000000000000022 1.00000000000000000 1.00000000000000000 0.00000000000000000 -0.00000000000000000 
Triangulations 0

TShapes 19
Ve
0.000000100000000
1.800000000000015 0.000000000000000 0.000000000000000
0 0

0101101
*
Ed
 0.000000100000000 1 1 0
1  1 0 0.000000000000000 3405.268285583352736
3  1 2CN 1 0 0.000000000000000 3405.268285583352736
0

0101000
+19 8 -19 10 *
Ed
 0.000000100000000 1 1 0
1  2 0 0.000000000000000 6.283185307179586
2  3 2 15 0.000000000000000 6.283185307179586
2  4 2 17 0.000000000000000 6.283185307179586
2  5 3 22 0.000000000000000 6.283185307179586
2  6 3 24 0.000000000000000 6.283185307179586
2  7 1 25 0.000000000000000 6.283185307179586
2  8 1 26 0.000000000000000 6.283185307179586
0

0101100
+19 0 -19 0 *
Wi

0101100
+18 0 -18 0 -17 8 +17 10 *
Fa
0  0.000000100000000 1 0

0111000
+16 0 *
Wi

0101100
+17 0 *
Fa
0  0.000000100000000 4 0

0111000
-14 28 *
Sh

0101100
-15 0 +13 27 -13 29 *
So

0100000
+12 0 *
Ve
0.000000100000000
14.300000000098663 1134.999999999998636 0.000000000000000
0 0

0101101
*
Ed
 0.000000100000000 1 1 0
1  3 0 0.000000000000000 3405.268285583352736
3  9 10CN 5 0 0.000000000000000 3405.268285583352736
0

0101000
+10 8 -10 10 *
Ed
 0.000000100000000 1 1 0
1  4 0 0.000000000000000 6.283185307179586
2  11 6 15 0.000000000000000 6.283185307179586
2  12 6 17 0.000000000000000 6.283185307179586
2  13 7 22 0.000000000000000 6.283185307179586
2  14 7 24 0.000000000000000 6.283185307179586
2  15 5 25 0.000000000000000 6.283185307179586
2  16 5 26 0.000000000000000 6.283185307179586
0

0101100
+10 0 -10 0 *
Wi

0101100
+9 0 -9 0 -8 8 +8 10 *
Fa
0  0.000000100000000 5 0

0111000
+7 0 *
Wi

0101100
+8 0 *
Fa
0  0.000000100000000 8 0

0111000
-5 28 *
Sh

0101100
-6 0 +4 27 -4 29 *
So

0100000
+3 0 *
Co

1100000
+11 0 +2 0 *

+1 0 