
CASCADE Topology V1, (c) Matra-Datavision
Locations 12
1
1.000000000000000 0.000000000000000 0.000000000000000 0.000000000000000 
0.000000000000000 0.993288078374917 -0.115666734017457 0.000000000000000 
0.000000000000000 0.115666734017457 0.993288078374917 0.000000000000000 
1
1.000000000000000 0.000000000000000 0.000000000000000 0.000000000000000 
0.000000000000000 1.000000000000000 0.000000000000000 0.000000000000000 
0.000000000000000 0.000000000000000 1.000000000000000 0.000000000000000 
1
1.000000000000000 0.000000000000000 0.000000000000000 0.000000000000000 
0.000000000000000 0.993288078374917 -0.115666734017457 0.000000000000000 
0.000000000000000 0.115666734017457 0.993288078374917 0.000000000000000 
1
1.000000000000000 0.000000000000000 0.000000000000000 0.000000000000000 
0.000000000000000 0.993288078374917 -0.115666734017457 0.000000000000000 
0.000000000000000 0.115666734017457 0.993288078374917 0.000000000000000 
2  2 1 3 1 4 -1 0
1
1.000000000000000 0.000000000000000 0.000000000000000 0.000000000000000 
0.000000000000000 1.000000000000000 0.000000000000000 -0.000000000000000 
0.000000000000000 0.000000000000000 1.000000000000000 0.500000000000000 
2  2 1 3 1 4 -1 6 1 0
2  4 1 3 -1 2 -1 0
2  6 -1 4 1 3 -1 2 -1 0
2  4 -1 0
2  2 1 3 1 0
2  4 -1 6 1 0
Curve2ds 12
1 0.52651981901076517 0.00000000000000000 0.00000000000000000 -1.00000000000000000 
1 1.26270247728702989 0.00000000000000000 0.00000000000000000 -1.00000000000000000 
1 1.26270247728703011 0.00000000000000000 0.00000000000000000 -1.00000000000000000 
1 0.00000000000000000 0.00000000000000000 1.00000000000000000 0.00000000000000000 
1 0.00000000000000000 -0.49999999999999989 1.00000000000000000 0.00000000000000000 
1 1.87889017630276323 0.00000000000000000 0.00000000000000000 -1.00000000000000000 
1 1.87889017630276300 0.00000000000000000 0.00000000000000000 -1.00000000000000000 
1 0.00000000000000000 0.00000000000000000 1.00000000000000000 0.00000000000000000 
1 0.00000000000000000 -0.49999999999999989 1.00000000000000000 0.00000000000000000 
1 2.61507283457902817 0.00000000000000000 0.00000000000000000 -1.00000000000000000 
1 0.00000000000000000 0.00000000000000000 1.00000000000000000 0.00000000000000000 
1 0.00000000000000000 -0.49999999999999989 1.00000000000000000 0.00000000000000000 
Curves 10
1 0.00000000000000000 3.22610691872901167 0.00000000000000013 0.00000000000000000 -0.00000000000000004 1.00000000000000000 
1 294.34897061393320428 174.31691241564016082 0.00000000000000726 0.00000000000000000 -0.00000000000000004 1.00000000000000000 
1 0.00000000000000000 3.22610691872901167 0.00000000000000000 0.86456118947926575 0.50252756108117802 0.00000000000000000 
1 263.47645876568981294 199.08812954640470139 0.00000000000000829 0.00000000000000000 -0.00000000000000004 1.00000000000000000 
2 246.79810519257358692 146.67789655617536937 0.00000000000000000 0.00000000000000000 0.00000000000000000 1.00000000000000000 1.00000000000000000 0.00000000000000000 -0.00000000000000000 -0.00000000000000000 1.00000000000000000 0.00000000000000000 55.00000000000000000
1 -263.47645876568981294 199.08812954640470139 0.00000000000000829 0.00000000000000000 -0.00000000000000004 1.00000000000000000 
2 0.00000000000000000 -628.86305465254429237 0.00000000000000000 0.00000000000000000 0.00000000000000000 1.00000000000000000 1.00000000000000000 0.00000000000000000 -0.00000000000000000 -0.00000000000000000 1.00000000000000000 0.00000000000000000 868.86305465254429237
1 -294.34897061393314743 174.31691241564016082 0.00000000000000726 0.00000000000000000 -0.00000000000000004 1.00000000000000000 
2 -246.79810519257358692 146.67789655617536937 0.00000000000000000 0.00000000000000000 0.00000000000000000 1.00000000000000000 1.00000000000000000 0.00000000000000000 -0.00000000000000000 -0.00000000000000000 1.00000000000000000 0.00000000000000000 54.99999999999997158
1 0.00000000000000000 3.22610691872901167 0.00000000000000000 -0.86456118947926575 0.50252756108117813 0.00000000000000000 
Polygon3D 0
PolygonOnTriangulations 0
Surfaces 6
1 0.00000000000000000 3.22610691872901167 0.00000000000000013 -0.50252756108117802 0.86456118947926575 0.00000000000000004 0.86456118947926575 0.50252756108117802 0.00000000000000002 -0.00000000000000000 0.00000000000000004 -1.00000000000000000 
2 246.79810519257358692 146.67789655617536937 0.00000000000000611 -0.00000000000000000 0.00000000000000004 -1.00000000000000000 1.00000000000000000 0.00000000000000000 0.00000000000000000 -0.00000000000000000 1.00000000000000000 0.00000000000000004 55.00000000000000000
2 0.00000000000000000 -628.86305465254429237 -0.00000000000002618 -0.00000000000000000 0.00000000000000004 -1.00000000000000000 1.00000000000000000 0.00000000000000000 0.00000000000000000 -0.00000000000000000 1.00000000000000000 0.00000000000000004 868.86305465254429237
2 -246.79810519257358692 146.67789655617536937 0.00000000000000611 -0.00000000000000000 0.00000000000000004 -1.00000000000000000 1.00000000000000000 0.00000000000000000 0.00000000000000000 -0.00000000000000000 1.00000000000000000 0.00000000000000004 54.99999999999997158
1 0.00000000000000000 3.22610691872901167 0.00000000000000013 -0.50252756108117813 -0.86456118947926575 -0.00000000000000004 -0.86456118947926575 0.50252756108117813 0.00000000000000002 0.00000000000000000 0.00000000000000004 -1.00000000000000000 
1 0.00000000000000561 149.44589435266473743 17.40272423320693207 -0.00000000000000000 -0.11566673401745739 0.99328807837491684 0.00000000000000000 0.99328807837491684 0.11566673401745739 -1.00000000000000000 0.00000000000000000 0.00000000000000000 
Triangulations 0

TShapes 29
Ve
0.000000100000000
0.000000000000000 3.226106918729012 0.000000000000000
0 0

0101101
*
Ed
 0.000000100000000 1 1 0
1  1 0 0.000000000000000 0.500000000000000
0

0101000
+29 5 -29 7 *
Ve
0.000000100000000
294.348970613933204 174.316912415640161 0.000000000000000
0 0

0101101
*
Ed
 0.000000100000000 1 1 0
1  2 0 0.000000000000000 0.500000000000000
2  1 2 0 0.000000000000000 0.500000000000000
0

0101000
+27 5 -27 7 *
Ed
 0.000000100000000 1 1 0
1  3 0 0.000000000000000 340.460541365756512
0

0101000
+29 0 -27 0 *
Wi

0101100
+28 0 -26 0 -25 5 +25 7 *
Fa
0  0.000000100000000 1 0

0101000
+24 0 *
Ve
0.000000100000040
263.476458765689813 199.088129546404701 0.000000000000000
0 0

0101101
*
Ed
 0.000000100000040 1 1 0
1  4 0 0.000000000000000 0.500000000000000
2  2 2 0 0.000000000000000 0.500000000000000
2  3 3 0 0.000000000000000 0.500000000000000
4 G1 2 0 3 0
0

0101000
+22 5 -22 7 *
Ed
 0.000000100000000 1 1 0
1  5 0 0.526519819010765 1.262702477287030
2  4 2 8 0.526519819010765 1.262702477287030
2  5 2 9 0.526519819010765 1.262702477287030
0

0101000
+27 0 -22 0 *
Wi

0101100
+26 0 -21 0 -20 5 +20 7 *
Fa
0  0.000000100000000 2 0

0101000
+19 0 *
Ve
0.000000100000040
-263.476458765689813 199.088129546404701 0.000000000000000
0 0

0101101
*
Ed
 0.000000100000040 1 1 0
1  6 0 0.000000000000000 0.500000000000000
2  6 3 0 0.000000000000000 0.500000000000000
2  7 4 0 0.000000000000000 0.500000000000000
4 G1 3 0 4 0
0

0101000
+17 5 -17 7 *
Ed
 0.000000100000000 1 1 0
1  7 0 1.262702477287030 1.878890176302763
2  8 3 8 1.262702477287030 1.878890176302763
2  9 3 9 1.262702477287030 1.878890176302763
0

0101000
+22 0 -17 0 *
Wi

0101100
+21 0 -16 0 -15 5 +15 7 *
Fa
0  0.000000100000000 3 0

0101000
+14 0 *
Ve
0.000000100000000
-294.348970613933147 174.316912415640161 0.000000000000000
0 0

0101101
*
Ed
 0.000000100000000 1 1 0
1  8 0 0.000000000000000 0.500000000000000
2  10 4 0 0.000000000000000 0.500000000000000
0

0101000
+12 5 -12 7 *
Ed
 0.000000100000000 1 1 0
1  9 0 1.878890176302763 2.615072834579028
2  11 4 8 1.878890176302763 2.615072834579028
2  12 4 9 1.878890176302763 2.615072834579028
0

0101000
+17 0 -12 0 *
Wi

0101100
+16 0 -11 0 -10 5 +10 7 *
Fa
0  0.000000100000000 4 0

0101000
+9 0 *
Ed
 0.000000100000000 1 1 0
1  10 0 0.000000000000000 340.460541365756455
0

0101000
+29 0 -12 0 *
Wi

0101100
+28 0 -11 0 -7 5 +7 7 *
Fa
0  0.000000100000000 5 0

0101000
+6 0 *
Wi

0101100
+25 0 +20 0 +15 0 +10 0 -7 0 *
Fa
0  0.000000100000000 6 0

0101000
+4 11 *
Sh

0101100
+23 0 +18 0 +13 0 +8 0 -5 0 +3 10 -3 12 *
So

1100000
-2 0 *

+1 1 