
CASCADE Topology V1, (c) Matra-Datavision
Locations 76
1
1.000000000000000 0.000000000000000 0.000000000000000 0.000000000000000 
0.000000000000000 1.000000000000000 0.000000000000000 0.000000000000000 
0.000000000000000 0.000000000000000 1.000000000000000 0.000000000000000 
1
1.000000000000000 0.000000000000000 0.000000000000000 0.000000000000000 
0.000000000000000 1.000000000000000 0.000000000000000 0.000000000000000 
0.000000000000000 0.000000000000000 1.000000000000000 0.000000000000000 
1
1.000000000000000 0.000000000000000 0.000000000000000 0.000000000000000 
0.000000000000000 1.000000000000000 0.000000000000000 0.000000000000000 
0.000000000000000 0.000000000000000 1.000000000000000 0.000000000000000 
1
1.000000000000000 0.000000000000000 0.000000000000000 0.000000000000000 
0.000000000000000 1.000000000000000 0.000000000000000 0.000000000000000 
0.000000000000000 0.000000000000000 1.000000000000000 0.000000000000000 
1
1.000000000000000 0.000000000000000 0.000000000000000 0.000000000000000 
0.000000000000000 1.000000000000000 0.000000000000000 0.000000000000000 
0.000000000000000 0.000000000000000 1.000000000000000 0.000000000000000 
1
1.000000000000000 0.000000000000000 0.000000000000000 0.000000000000000 
0.000000000000000 1.000000000000000 0.000000000000000 0.000000000000000 
0.000000000000000 0.000000000000000 1.000000000000000 0.000000000000000 
1
1.000000000000000 0.000000000000000 0.000000000000001 0.000000000000000 
-0.000000000000001 0.000000000000000 1.000000000000000 -8.000000000000000 
0.000000000000000 -1.000000000000000 0.000000000000000 0.000000000000001 
1
1.000000000000000 0.000000000000000 0.000000000000000 0.000000000000001 
0.000000000000000 1.000000000000000 0.000000000000000 4.398229715025710 
0.000000000000000 0.000000000000000 1.000000000000000 -0.000000000000001 
2  2 1 3 -1 4 1 5 -1 6 1 7 1 8 1 0
2  8 -1 7 -1 6 -1 5 1 4 -1 3 1 2 -1 0
1
1.000000000000000 0.000000000000000 0.000000000000000 0.000000000000000 
0.000000000000000 1.000000000000000 0.000000000000000 0.000000000000000 
0.000000000000000 0.000000000000000 1.000000000000000 0.000000000000000 
2  11 -1 0
1
1.000000000000000 0.000000000000000 0.000000000000001 0.000000000000000 
-0.000000000000001 0.000000000000000 1.000000000000000 -8.000000000000000 
0.000000000000000 -1.000000000000000 0.000000000000000 0.000000000000001 
1
1.000000000000000 0.000000000000000 0.000000000000000 0.000000000000001 
0.000000000000000 1.000000000000000 0.000000000000000 4.398229715025710 
0.000000000000000 0.000000000000000 1.000000000000000 -0.000000000000001 
2  2 1 3 -1 4 1 5 -1 6 1 13 1 14 1 0
1
1.000000000000000 0.000000000000000 0.000000000000000 0.000000000000000 
0.000000000000000 1.000000000000000 0.000000000000000 0.000000000000000 
0.000000000000000 0.000000000000000 1.000000000000000 0.000000000000000 
1
1.000000000000000 0.000000000000000 0.000000000000000 0.000000000000000 
0.000000000000000 1.000000000000000 0.000000000000000 0.000000000000000 
0.000000000000000 0.000000000000000 1.000000000000000 0.000000000000000 
1
1.000000000000000 0.000000000000000 0.000000000000000 0.000000000000000 
0.000000000000000 1.000000000000000 0.000000000000000 0.000000000000000 
0.000000000000000 0.000000000000000 1.000000000000000 0.000000000000000 
1
1.000000000000000 0.000000000000000 0.000000000000000 0.000000000000000 
0.000000000000000 1.000000000000000 0.000000000000000 0.000000000000000 
0.000000000000000 0.000000000000000 1.000000000000000 0.000000000000000 
1
1.000000000000000 0.000000000000000 0.000000000000001 0.000000000000000 
-0.000000000000001 0.000000000000000 1.000000000000000 -8.000000000000000 
0.000000000000000 -1.000000000000000 0.000000000000000 0.000000000000001 
1
1.000000000000000 0.000000000000000 0.000000000000000 0.000000000000001 
0.000000000000000 1.000000000000000 0.000000000000000 4.398229715025710 
0.000000000000000 0.000000000000000 1.000000000000000 -0.000000000000001 
2  16 1 17 -1 18 1 19 -1 2 1 3 -1 4 1 5 -1 6 1 20 1 21 1 0
2  14 -1 13 -1 6 -1 5 1 4 -1 3 1 2 -1 0
1
1.000000000000000 0.000000000000000 0.000000000000001 0.000000000000000 
-0.000000000000001 0.000000000000000 1.000000000000000 -8.000000000000000 
0.000000000000000 -1.000000000000000 0.000000000000000 0.000000000000001 
1
1.000000000000000 0.000000000000000 0.000000000000000 0.000000000000001 
0.000000000000000 1.000000000000000 0.000000000000000 4.398229715025710 
0.000000000000000 0.000000000000000 1.000000000000000 -0.000000000000001 
2  2 1 3 -1 4 1 5 -1 6 1 24 1 25 1 0
2  2 1 3 -1 4 1 5 -1 6 1 20 1 21 1 0
2  16 1 17 -1 18 1 19 -1 0
2  21 -1 20 -1 6 -1 5 1 4 -1 3 1 2 -1 0
1
1.000000000000000 0.000000000000000 0.000000000000001 0.000000000000000 
-0.000000000000001 0.000000000000000 1.000000000000000 -8.000000000000000 
0.000000000000000 -1.000000000000000 0.000000000000000 0.000000000000001 
1
1.000000000000000 0.000000000000000 0.000000000000000 0.000000000000001 
0.000000000000000 1.000000000000000 0.000000000000000 4.398229715025710 
0.000000000000000 0.000000000000000 1.000000000000000 -0.000000000000001 
2  2 1 3 -1 4 1 5 -1 6 1 30 1 31 1 0
2  25 -1 24 -1 6 -1 5 1 4 -1 3 1 2 -1 0
1
1.000000000000000 0.000000000000000 0.000000000000001 0.000000000000000 
-0.000000000000001 0.000000000000000 1.000000000000000 -8.000000000000000 
0.000000000000000 -1.000000000000000 0.000000000000000 0.000000000000001 
1
1.000000000000000 0.000000000000000 0.000000000000000 0.000000000000001 
0.000000000000000 1.000000000000000 0.000000000000000 4.398229715025710 
0.000000000000000 0.000000000000000 1.000000000000000 -0.000000000000001 
2  2 1 3 -1 4 1 5 -1 6 1 34 1 35 1 0
2  31 -1 30 -1 6 -1 5 1 4 -1 3 1 2 -1 0
2  35 -1 34 -1 6 -1 5 1 4 -1 3 1 2 -1 0
2  18 1 19 -1 2 1 3 -1 4 1 5 -1 6 1 0
2  6 -1 5 1 4 -1 3 1 2 -1 19 1 18 -1 0
1
1.000000000000000 0.000000000000000 0.000000000000000 40.000000000000000 
0.000000000000000 1.000000000000000 0.000000000000000 -12.000000000000000 
0.000000000000000 0.000000000000000 1.000000000000000 0.000000000000000 
2  41 1 4 1 5 -1 6 1 0
1
1.000000000000000 0.000000000000000 0.000000000000000 -40.000000000000000 
0.000000000000000 1.000000000000000 0.000000000000000 -12.000000000000000 
0.000000000000000 0.000000000000000 1.000000000000000 0.000000000000000 
2  43 1 4 1 5 -1 6 1 0
1
1.000000000000000 0.000000000000000 0.000000000000000 43.000000000000000 
0.000000000000000 1.000000000000000 0.000000000000000 0.000000000000022 
0.000000000000000 0.000000000000000 1.000000000000000 100.000000000000000 
1
1.000000000000000 0.000000000000000 0.000000000000001 0.000000000000000 
-0.000000000000001 0.000000000000000 1.000000000000000 -8.000000000000000 
0.000000000000000 -1.000000000000000 0.000000000000000 0.000000000000001 
1
1.000000000000000 0.000000000000000 0.000000000000000 0.000000000000001 
0.000000000000000 1.000000000000000 0.000000000000000 4.398229715025710 
0.000000000000000 0.000000000000000 1.000000000000000 -0.000000000000001 
2  45 1 6 1 46 1 47 1 0
1
1.000000000000000 0.000000000000000 0.000000000000000 43.000000000000000 
0.000000000000000 1.000000000000000 0.000000000000000 0.000000000000016 
0.000000000000000 0.000000000000000 1.000000000000000 71.333333333333329 
1
1.000000000000000 0.000000000000000 0.000000000000001 0.000000000000000 
-0.000000000000001 0.000000000000000 1.000000000000000 -8.000000000000000 
0.000000000000000 -1.000000000000000 0.000000000000000 0.000000000000001 
1
1.000000000000000 0.000000000000000 0.000000000000000 0.000000000000001 
0.000000000000000 1.000000000000000 0.000000000000000 4.398229715025710 
0.000000000000000 0.000000000000000 1.000000000000000 -0.000000000000001 
2  49 1 6 1 50 1 51 1 0
1
1.000000000000000 0.000000000000000 0.000000000000000 43.000000000000000 
0.000000000000000 1.000000000000000 0.000000000000000 0.000000000000009 
0.000000000000000 0.000000000000000 1.000000000000000 42.666666666666664 
1
1.000000000000000 0.000000000000000 0.000000000000001 0.000000000000000 
-0.000000000000001 0.000000000000000 1.000000000000000 -8.000000000000000 
0.000000000000000 -1.000000000000000 0.000000000000000 0.000000000000001 
1
1.000000000000000 0.000000000000000 0.000000000000000 0.000000000000001 
0.000000000000000 1.000000000000000 0.000000000000000 4.398229715025710 
0.000000000000000 0.000000000000000 1.000000000000000 -0.000000000000001 
2  53 1 6 1 54 1 55 1 0
1
1.000000000000000 0.000000000000000 0.000000000000000 43.000000000000000 
0.000000000000000 1.000000000000000 0.000000000000000 0.000000000000003 
0.000000000000000 0.000000000000000 1.000000000000000 14.000000000000000 
1
1.000000000000000 0.000000000000000 0.000000000000001 0.000000000000000 
-0.000000000000001 0.000000000000000 1.000000000000000 -8.000000000000000 
0.000000000000000 -1.000000000000000 0.000000000000000 0.000000000000001 
1
1.000000000000000 0.000000000000000 0.000000000000000 0.000000000000001 
0.000000000000000 1.000000000000000 0.000000000000000 4.398229715025710 
0.000000000000000 0.000000000000000 1.000000000000000 -0.000000000000001 
2  57 1 6 1 58 1 59 1 0
2  4 1 5 -1 6 1 0
2  11 -1 6 -1 5 1 4 -1 41 -1 0
2  6 -1 5 1 4 -1 0
2  11 -1 6 -1 5 1 4 -1 43 -1 0
2  6 1 46 1 47 1 0
2  11 -1 47 -1 46 -1 6 -1 45 -1 0
2  47 -1 46 -1 6 -1 0
2  6 1 50 1 51 1 0
2  11 -1 51 -1 50 -1 6 -1 49 -1 0
2  51 -1 50 -1 6 -1 0
2  6 1 54 1 55 1 0
2  11 -1 55 -1 54 -1 6 -1 53 -1 0
2  55 -1 54 -1 6 -1 0
2  6 1 58 1 59 1 0
2  11 -1 59 -1 58 -1 6 -1 57 -1 0
2  59 -1 58 -1 6 -1 0
Curve2ds 48
1 0.00000000000000000 0.00000000000000000 1.00000000000000000 0.00000000000000000 
1 3.14159265358979578 0.00000000000000000 0.00000000000000000 -1.00000000000000000 
1 6.28318581552893729 0.00000000000000000 0.00000000000000000 -1.00000000000000000 
1 6.28318530717958623 -1.99999999999998446 -1.00000000000000000 0.00000000000000000 
1 1.57079632679489589 0.00000000000000000 0.00000000000000000 -1.00000000000000000 
1 0.00000000000000000 0.00000000000000000 1.00000000000000000 0.00000000000000000 
1 12.56637061435917246 -1.99999999999997136 -1.00000000000000000 0.00000000000000000 
1 5.41052068118242158 0.00000000000000000 0.00000000000000000 -1.00000000000000000 
1 1.57079632679489589 0.00000000000000000 0.00000000000000000 -1.00000000000000000 
1 2.26892802759262802 0.00000000000000000 0.00000000000000000 -1.00000000000000000 
1 0.00000000000000000 0.00000000000000000 1.00000000000000000 0.00000000000000000 
1 6.28318530717958623 -1.99999999999998668 -1.00000000000000000 0.00000000000000000 
1 0.00000000000000000 0.00000000000000000 0.00000000000000000 -1.00000000000000000 
1 0.00000000000000000 0.00000000000000000 1.00000000000000000 0.00000000000000000 
7 0 0  1 2 2  3.14159265358979312 0.00000000000000000  3.14159265358979312 -1.99999999999998912 
 0.00000000000000000 2 1.00000000000000000 2
1 6.28318530717958623 -1.99999999999999001 -1.00000000000000000 0.00000000000000000 
7 0 0  1 2 2  3.14159265358020301 0.00000000000000000  3.14159265358020301 -1.99999999999998690 
 0.00000000000000000 2 1.00000000000000000 2
1 0.00000000000000000 0.00000000000000000 1.00000000000000000 0.00000000000000000 
1 4.71238898039429621 0.00000000000000000 0.00000000000000000 -1.00000000000000000 
1 6.28318530717958623 -1.99999999999999267 -1.00000000000000000 0.00000000000000000 
1 4.71238898037507514 0.00000000000000000 0.00000000000000000 -1.00000000000000000 
1 0.00000000000000000 0.00000000000000000 1.00000000000000000 0.00000000000000000 
7 0 0  1 2 2  6.28318530710846446 0.00000000000000000  6.28318530710846446 -2.00000000000001510 
 0.00000000000000000 2 2.00000000000000533 2
1 6.28318530717958623 -2.00000000000000933 -1.00000000000000000 0.00000000000000000 
1 0.00000000000000000 0.00000000000000000 1.00000000000000000 0.00000000000000000 
1 0.00000000000000000 0.00000000000000000 1.00000000000000000 0.00000000000000000 
1 0.00000000000000000 0.00000000000000000 1.00000000000000000 0.00000000000000000 
1 0.00000000000000000 0.00000000000000000 1.00000000000000000 0.00000000000000000 
1 0.00000000000000000 0.00000000000000000 1.00000000000000000 0.00000000000000000 
1 0.00000000000000000 0.00000000000000000 1.00000000000000000 0.00000000000000000 
1 6.28318530717958623 0.00000000000000000 0.00000000000000000 1.00000000000000000 
1 0.00000000000000000 0.00000000000000000 0.00000000000000000 1.00000000000000000 
1 6.28318530717958623 2.00000000000001377 -1.00000000000000000 0.00000000000000000 
1 6.28318530717958623 0.00000000000000000 0.00000000000000000 1.00000000000000000 
1 0.00000000000000000 0.00000000000000000 0.00000000000000000 1.00000000000000000 
1 6.28318530717958623 1.99999999999999134 -1.00000000000000000 0.00000000000000000 
1 6.28318530717958623 0.00000000000000000 0.00000000000000000 1.00000000000000000 
1 0.00000000000000000 0.00000000000000000 0.00000000000000000 1.00000000000000000 
1 6.28318530717958623 2.00000000000000933 -1.00000000000000000 0.00000000000000000 
1 6.28318530717958623 0.00000000000000000 0.00000000000000000 1.00000000000000000 
1 0.00000000000000000 0.00000000000000000 0.00000000000000000 1.00000000000000000 
1 6.28318530717958623 2.00000000000000933 -1.00000000000000000 0.00000000000000000 
1 6.28318530717958623 0.00000000000000000 0.00000000000000000 1.00000000000000000 
1 0.00000000000000000 0.00000000000000000 0.00000000000000000 1.00000000000000000 
1 6.28318530717958623 2.00000000000000933 -1.00000000000000000 0.00000000000000000 
1 6.28318530717958623 0.00000000000000000 0.00000000000000000 1.00000000000000000 
1 0.00000000000000000 0.00000000000000000 0.00000000000000000 1.00000000000000000 
1 6.28318530717958623 2.00000000000000933 -1.00000000000000000 0.00000000000000000 
Curves 51
2 38.00000000000005684 103.89822971502560733 0.00000000000001458 -0.00000000000000006 -0.00000000000000011 1.00000000000000000 1.00000000000000000 -0.00000000000000050 0.00000000000000006 0.00000000000000050 1.00000000000000000 0.00000000000000011 2.50000000000000000
1 35.49999999999636202 103.89822971500977644 -0.00000000000000957 -0.00000000000000006 0.00000000000000011 1.00000000000000000 
2 38.00000000000005684 103.89822971502560733 1.99999999999999911 0.00000000000000006 0.00000000000000011 -1.00000000000000000 1.00000000000000000 -0.00000000000000050 0.00000000000000006 -0.00000000000000050 -1.00000000000000000 -0.00000000000000011 2.50000000000000000
1 38.00000000000005684 106.39822971502560733 -0.00000000000000914 -0.00000000000000006 0.00000000000000011 1.00000000000000000 
2 -21.70327683114539497 103.89820063574531162 0.00000000000001100 -0.00000000000000006 -0.00000000000000011 1.00000000000000000 1.00000000000000000 -0.00000000000000050 0.00000000000000006 0.00000000000000050 1.00000000000000000 0.00000000000000011 57.20327683114544470
2 -21.70327683114539497 103.89820063574531162 1.99999999999998246 0.00000000000000006 0.00000000000000011 -1.00000000000000000 1.00000000000000000 -0.00000000000000050 0.00000000000000006 -0.00000000000000050 -1.00000000000000000 -0.00000000000000011 57.20327683114544470
1 15.06628074938395301 60.07794829104973644 -0.00000000000000566 -0.00000000000000006 0.00000000000000011 1.00000000000000000 
1 48.00000000000005684 106.39822971502559312 0.00000000000001546 -1.00000000000000000 0.00000000000000050 -0.00000000000000006 
1 48.00000000000005684 106.39822971502559312 -0.00000000000000854 -0.00000000000000006 0.00000000000000011 1.00000000000000000 
1 -50.49999999999996447 106.39822971502572102 1.99999999999997402 1.00000000000000000 -0.00000000000000022 0.00000000000000028 
1 -46.92787609686538275 8.05867414621551426 -0.00000000000000116 0.76604444311897835 0.64278760968653914 0.00000000000000012 
1 -23.76459108620919380 27.49497805551131790 1.99999999999999067 0.76604444311897835 0.64278760968653914 0.00000000000000015 
1 -46.92787609686538275 8.05867414621551426 -0.00000000000000416 -0.00000000000000006 0.00000000000000011 1.00000000000000000 
2 48.00000000000005684 103.89822971502559312 0.00000000000001518 -0.00000000000000006 -0.00000000000000011 1.00000000000000000 1.00000000000000000 -0.00000000000000050 0.00000000000000006 0.00000000000000050 1.00000000000000000 0.00000000000000011 2.50000000000000000
2 48.00000000000005684 103.89822971502559312 2.00000000000000178 0.00000000000000006 0.00000000000000011 -1.00000000000000000 1.00000000000000000 -0.00000000000000050 0.00000000000000006 -0.00000000000000050 -1.00000000000000000 -0.00000000000000011 2.50000000000000000
1 50.50000000000005684 103.89822971502559312 -0.00000000000000867 -0.00000000000000006 0.00000000000000011 1.00000000000000000 
2 -40.50000000000000000 0.39822971502573079 -0.00000000000000162 -0.00000000000000006 -0.00000000000000011 1.00000000000000000 1.00000000000000000 -0.00000000000000050 0.00000000000000006 0.00000000000000050 1.00000000000000000 0.00000000000000011 10.00000000000000000
6 0 1 -50.50000000000000000 0.39822971502572102 -0.00000000000001432  -50.50000000000000000 0.39822971502572191 1.99999999999998579  
2 -40.50000000000000000 0.39822971502573079 1.99999999999998845 0.00000000000000006 0.00000000000000011 -1.00000000000000000 1.00000000000000000 -0.00000000000000050 0.00000000000000006 -0.00000000000000050 -1.00000000000000000 -0.00000000000000011 10.00000000000000000
1 -50.50000000000000000 0.39822971502572635 -0.00000000000001022 -0.00000000000009693 1.00000000000000000 -0.00000000000000028 
6 0 1 -50.50000000000000000 -3.99999999999998890 -0.00000000000001313  -50.50000000000000000 -3.99999999999998845 1.99999999999998690  
1 -50.50000000000000000 0.39822971502572102 1.99999999999998579 0.00000000000000000 1.00000000000000000 -0.00000000000000025 
2 -29.49999999849328347 -3.99999999849583876 0.00000000000000000 0.00000000000000000 0.00000000000000000 1.00000000000000000 1.00000000000000000 0.00000000000000000 -0.00000000000000000 -0.00000000000000000 1.00000000000000000 0.00000000000000000 21.00000000150543045
1 -29.49999999829154973 -25.00000000000319034 0.00000000000000000 0.00000000000000000 0.00000000000000000 1.00000000000000000 
2 -29.49999999849328347 -3.99999999849583876 1.99999999999999267 0.00000000000000000 0.00000000000000000 -1.00000000000000000 1.00000000000000000 0.00000000000000000 0.00000000000000000 0.00000000000000000 -1.00000000000000000 0.00000000000000000 21.00000000150543045
1 29.49999999829136854 -25.00000000000510880 0.00000000000000000 -1.00000000000000000 0.00000000000000000 0.00000000000000000 
1 -10.50000000085431573 -25.00000000000510880 2.00000000000000266 -1.00000000000000000 -0.00000000000000000 -0.00000000000000028 
1 29.49999999829136854 -25.00000000000510880 0.00000000000000000 0.00000000000000000 0.00000000000000000 1.00000000000000000 
2 29.49999999849327637 -3.99999999849968013 0.00000000000000000 0.00000000000000000 0.00000000000000000 1.00000000000000000 1.00000000000000000 0.00000000000000000 -0.00000000000000000 -0.00000000000000000 1.00000000000000000 0.00000000000000000 21.00000000150543045
7 0 0  3 15 13  50.49999999999956657 -3.99999999999775513 0.00000000000001000  50.49999999999982947 -3.99999999999913447 0.05555555555556722  50.50000000000007816 -4.00000000000041833 0.16666666666667992  50.49999999999996447 -3.99999999999990230 0.33333333333334819  50.50000000000000711 -4.00000000000004086 0.50000000000001488  50.49999999999999289 -4.00000000000000355 0.66666666666668151  50.50000000000000000 -4.00000000000001332 0.83333333333334825  50.50000000000000000 -4.00000000000000977 1.00000000000001510  50.49999999999999289 -4.00000000000001066 1.16666666666668162  50.50000000000001421 -4.00000000000001243 1.33333333333334836  50.49999999999999289 -4.00000000000001155 1.50000000000001488  50.50000000000000000 -4.00000000000001155 1.66666666666668140  50.50000000000000000 -4.00000000000001155 1.83333333333334858  50.50000000000000000 -4.00000000000001155 1.94444444444445930  50.50000000000000000 -4.00000000000001066 2.00000000000001510 
 0.00000000000000000 4 0.16666666666667163 1 0.33333333333333814 1 0.50000000000000511 1 0.66666666666667163 1 0.83333333333333814 1 1.00000000000000511 1 1.16666666666667118 1 1.33333333333333814 1 1.50000000000000511 1 1.66666666666667118 1 1.83333333333333814 1 2.00000000000000533 4
2 29.49999999849327637 -3.99999999849968013 2.00000000000000933 0.00000000000000000 0.00000000000000000 -1.00000000000000000 1.00000000000000000 0.00000000000000000 0.00000000000000000 0.00000000000000000 -1.00000000000000000 0.00000000000000000 21.00000000150543045
1 50.50000000000002842 106.39822971502569260 0.00000000000000219 -0.00000000000000028 -1.00000000000000000 0.00000000000000011 
2 40.00000000000000000 -12.00000000000000000 0.00000000000000000 0.00000000000000000 0.00000000000000000 -1.00000000000000000 -1.00000000000000000 0.00000000000000000 0.00000000000000000 0.00000000000000000 1.00000000000000000 0.00000000000000000 2.75000000000000000
2 -40.00000000000000000 -12.00000000000000000 0.00000000000000000 0.00000000000000000 0.00000000000000000 -1.00000000000000000 -1.00000000000000000 0.00000000000000000 0.00000000000000000 0.00000000000000000 1.00000000000000000 0.00000000000000000 2.75000000000000000
2 43.00000000000004974 96.39822971502567839 -0.00000000000000795 0.00000000000000006 -0.00000000000000011 -1.00000000000000000 1.00000000000000000 -0.00000000000000050 0.00000000000000006 -0.00000000000000050 -1.00000000000000000 0.00000000000000011 1.69999999999999996
2 43.00000000000003553 67.73156304835900698 -0.00000000000000514 0.00000000000000006 -0.00000000000000011 -1.00000000000000000 1.00000000000000000 -0.00000000000000050 0.00000000000000006 -0.00000000000000050 -1.00000000000000000 0.00000000000000011 1.69999999999999996
2 43.00000000000002132 39.06489638169234979 -0.00000000000000132 0.00000000000000006 -0.00000000000000011 -1.00000000000000000 1.00000000000000000 -0.00000000000000050 0.00000000000000006 -0.00000000000000050 -1.00000000000000000 0.00000000000000011 1.69999999999999996
2 43.00000000000000711 10.39822971502568905 0.00000000000000150 0.00000000000000006 -0.00000000000000011 -1.00000000000000000 1.00000000000000000 -0.00000000000000050 0.00000000000000006 -0.00000000000000050 -1.00000000000000000 0.00000000000000011 1.69999999999999996
1 -2.75000000000000000 0.00000000000000000 0.00000000000000000 0.00000000000000006 0.00000000000000000 1.00000000000000000 
2 40.00000000000000000 -12.00000000000000000 2.00000000000001377 0.00000000000000000 0.00000000000000000 1.00000000000000000 -1.00000000000000000 0.00000000000000000 0.00000000000000000 0.00000000000000000 -1.00000000000000000 0.00000000000000000 2.75000000000000000
1 -2.75000000000000000 0.00000000000000000 0.00000000000000000 0.00000000000000006 0.00000000000000000 1.00000000000000000 
2 -40.00000000000000000 -12.00000000000000000 1.99999999999999134 0.00000000000000000 0.00000000000000000 1.00000000000000000 -1.00000000000000000 0.00000000000000000 0.00000000000000000 0.00000000000000000 -1.00000000000000000 0.00000000000000000 2.75000000000000000
1 1.69999999999999996 0.00000000000000000 -0.00000000000000000 -0.00000000000000006 -1.00000000000000000 0.00000000000000022 
2 43.00000000000004974 96.39822971502567839 2.00000000000000133 -0.00000000000000006 0.00000000000000011 1.00000000000000000 1.00000000000000000 -0.00000000000000050 0.00000000000000006 0.00000000000000050 1.00000000000000000 -0.00000000000000011 1.69999999999999996
1 1.69999999999999996 0.00000000000000000 -0.00000000000000000 -0.00000000000000006 -1.00000000000000000 0.00000000000000022 
2 43.00000000000003553 67.73156304835900698 2.00000000000000444 -0.00000000000000006 0.00000000000000011 1.00000000000000000 1.00000000000000000 -0.00000000000000050 0.00000000000000006 0.00000000000000050 1.00000000000000000 -0.00000000000000011 1.69999999999999996
1 1.69999999999999996 0.00000000000000000 -0.00000000000000000 -0.00000000000000006 -1.00000000000000000 0.00000000000000022 
2 43.00000000000002132 39.06489638169234979 2.00000000000000755 -0.00000000000000006 0.00000000000000011 1.00000000000000000 1.00000000000000000 -0.00000000000000050 0.00000000000000006 0.00000000000000050 1.00000000000000000 -0.00000000000000011 1.69999999999999996
1 1.69999999999999996 0.00000000000000000 -0.00000000000000000 -0.00000000000000006 -1.00000000000000000 0.00000000000000022 
2 43.00000000000000711 10.39822971502568905 2.00000000000001110 -0.00000000000000006 0.00000000000000011 1.00000000000000000 1.00000000000000000 -0.00000000000000050 0.00000000000000006 0.00000000000000050 1.00000000000000000 -0.00000000000000011 1.69999999999999996
1 50.50000000000000000 0.39822971502569926 2.00000000000001510 0.00000000000000000 -1.00000000000000000 0.00000000000000000 
Polygon3D 0
PolygonOnTriangulations 0
Surfaces 19
2 38.00000000000000000 0.00000000000000000 107.49999999999991473 0.00000000000000000 1.00000000000000000 0.00000000000000000 1.00000000000000000 0.00000000000000000 -0.00000000000000000 0.00000000000000000 -0.00000000000000000 1.00000000000000000 2.50000000000000000
2 -21.70327683114544826 0.00000000000000000 107.49997092071959059 0.00000000000000000 1.00000000000000000 0.00000000000000000 1.00000000000000000 0.00000000000000000 -0.00000000000000000 0.00000000000000000 -0.00000000000000000 1.00000000000000000 57.20327683114544470
1 -50.50000000000002132 -1.99999999999996447 109.99999999999998579 -0.00000000000000028 0.00000000000000000 1.00000000000000000 -1.00000000000000000 0.00000000000000022 -0.00000000000000028 -0.00000000000000022 -1.00000000000000000 -0.00000000000000000 
1 -46.92787609686538985 -0.00000000000000000 11.66044443118978080 -0.64278760968653947 0.00000000000000017 0.76604444311897801 0.76604444311897801 0.00000000000000000 0.64278760968653947 0.00000000000000011 1.00000000000000000 -0.00000000000000013 
2 48.00000000000000000 0.00000000000000000 107.49999999999991473 0.00000000000000000 1.00000000000000000 0.00000000000000000 1.00000000000000000 0.00000000000000000 -0.00000000000000000 0.00000000000000000 -0.00000000000000000 1.00000000000000000 2.50000000000000000
2 -40.50000000000000000 -0.00000000000000000 4.00000000000000000 0.00000000000000000 1.00000000000000000 0.00000000000000000 1.00000000000000000 0.00000000000000000 -0.00000000000000000 0.00000000000000000 -0.00000000000000000 1.00000000000000000 10.00000000000000000
1 -50.49999999999991473 -1.80088514238673847 1.00000000004441669 -1.00000000000000000 -0.00000000000003423 -0.00000000000009548 0.00000000000009548 0.00000000000000000 -1.00000000000000000 0.00000000000003423 -1.00000000000000000 0.00000000000000000 
2 -29.49999999849328347 -3.99999999849583876 0.00000000000000000 -0.00000000000000000 -0.00000000000000000 -1.00000000000000000 1.00000000000000000 0.00000000000000000 0.00000000000000000 -0.00000000000000000 1.00000000000000000 -0.00000000000000000 21.00000000150543045
1 29.49999999829136854 -25.00000000000510880 0.00000000000000000 0.00000000000000000 -1.00000000000000000 0.00000000000000000 -1.00000000000000000 0.00000000000000000 0.00000000000000000 -0.00000000000000000 -0.00000000000000000 -1.00000000000000000 
2 29.49999999849327637 -3.99999999849968013 0.00000000000000000 -0.00000000000000000 -0.00000000000000000 -1.00000000000000000 1.00000000000000000 0.00000000000000000 0.00000000000000000 -0.00000000000000000 1.00000000000000000 -0.00000000000000000 21.00000000150543045
1 14.41381663891204568 29.17320468351239526 0.00000000000000498 0.00000000000000008 0.00000000000000003 -1.00000000000000000 -1.00000000000000000 0.00000000000000000 -0.00000000000000008 -0.00000000000000000 1.00000000000000000 0.00000000000000003 
2 0.00000000000000000 0.00000000000000000 0.00000000000000000 0.00000000000000000 0.00000000000000000 1.00000000000000000 -1.00000000000000000 0.00000000000000000 0.00000000000000000 -0.00000000000000000 1.00000000000000000 -0.00000000000000000 2.75000000000000000
2 0.00000000000000000 0.00000000000000000 0.00000000000000000 0.00000000000000000 0.00000000000000000 1.00000000000000000 -1.00000000000000000 0.00000000000000000 0.00000000000000000 -0.00000000000000000 1.00000000000000000 -0.00000000000000000 2.75000000000000000
2 0.00000000000000000 0.00000000000000000 0.00000000000000000 -0.00000000000000000 -1.00000000000000000 0.00000000000000022 1.00000000000000000 0.00000000000000000 0.00000000000000000 0.00000000000000000 -0.00000000000000022 -1.00000000000000000 1.69999999999999996
2 0.00000000000000000 0.00000000000000000 0.00000000000000000 -0.00000000000000000 -1.00000000000000000 0.00000000000000022 1.00000000000000000 0.00000000000000000 0.00000000000000000 0.00000000000000000 -0.00000000000000022 -1.00000000000000000 1.69999999999999996
2 0.00000000000000000 0.00000000000000000 0.00000000000000000 -0.00000000000000000 -1.00000000000000000 0.00000000000000022 1.00000000000000000 0.00000000000000000 0.00000000000000000 0.00000000000000000 -0.00000000000000022 -1.00000000000000000 1.69999999999999996
2 0.00000000000000000 0.00000000000000000 0.00000000000000000 -0.00000000000000000 -1.00000000000000000 0.00000000000000022 1.00000000000000000 0.00000000000000000 0.00000000000000000 0.00000000000000000 -0.00000000000000022 -1.00000000000000000 1.69999999999999996
1 14.41381663881850450 29.17320468346434481 1.99999999999999978 -0.00000000000000026 0.00000000000000015 1.00000000000000000 1.00000000000000000 0.00000000000000000 0.00000000000000026 0.00000000000000000 1.00000000000000000 -0.00000000000000015 
1 50.49999999999997158 49.94911485751337210 1.00000000000002065 1.00000000000000000 -0.00000000000000037 -0.00000000000000786 0.00000000000000786 0.00000000000000000 1.00000000000000000 -0.00000000000000037 -1.00000000000000000 0.00000000000000000 
Triangulations 0

TShapes 137
Ve
0.001000000000202
38.000000000000057 106.398229715025607 -0.000000000000009
0 0

0101101
*
Ve
0.001000000000016
35.499999999996362 103.898229715009776 -0.000000000000010
0 0

0101101
*
Ed
 0.000000100000000 1 1 0
1  1 0 1.570796326794896 3.141592653589796
2  1 1 9 1.570796326794896 3.141592653589796
0

0101000
+137 12 -136 12 *
Ve
0.001000000016273
35.499999999996362 103.898229715009776 1.999999999999999
0 0

0101101
*
Ed
 0.000000100000000 1 1 0
1  2 0 0.000000000000000 2.000000000000008
2  2 1 9 0.000000000000000 2.000000000000008
2  3 2 15 0.000000000000000 2.000000000000008
0

0101000
+136 12 -134 12 *
Ve
0.001000050001016
38.000000000000057 106.398229715025664 1.999999999999999
0 0

0101101
*
Ed
 0.000000100000000 1 1 0
1  3 0 3.141592653589793 4.712388980384690
2  4 1 9 3.141592653589793 4.712388980384690
0

0101000
+134 12 -132 12 *
Ed
 0.000000100000000 1 1 0
1  4 0 0.000000000000000 2.000000000000008
2  5 1 9 0.000000000000000 2.000000000000008
4 G1 1 9 3 22
0

0101000
+137 12 -132 12 *
Wi

0101100
-135 10 -133 10 -131 10 +130 10 *
Fa
0  0.001000000000016 1 0

0111000
+129 0 *
Ve
0.001000000000015
15.066280749383953 60.077948291049736 -0.000000000000006
0 0

0101101
*
Ed
 0.000000100000000 1 1 0
1  5 0 5.410520681182422 6.283185815528937
2  6 2 15 5.410520681182422 6.283185815528937
0

0101000
+127 12 -136 12 *
Ve
0.001000050000458
15.066280749383953 60.077948291049736 1.999999999999997
0 0

0101101
*
Ed
 0.000000100000000 1 1 0
1  6 0 6.283184798830235 7.155849933176751
2  7 2 15 6.283184798830235 7.155849933176751
0

0101000
+134 12 -125 12 *
Ed
 0.000000100000000 1 1 0
1  7 0 0.000000000000000 2.000000000000003
2  8 2 15 0.000000000000000 2.000000000000003
4 G1 2 15 4 26
0

0101000
+127 12 -125 12 *
Wi

0101100
-126 23 -133 23 -124 23 +123 23 *
Fa
0  0.001000000000015 2 0

0111000
+122 0 *
Ve
0.001000000000202
48.000000000000057 106.398229715025593 -0.000000000000009
0 0

0101101
*
Ed
 0.000000100000000 1 1 0
1  8 0 0.000000000000000 10.000000000000000
0

0101000
+120 12 -137 12 *
Ve
0.001000050001014
48.000000000000057 106.398229715025650 2.000000000000001
0 0

0101101
*
Ed
 0.000000100000000 1 1 0
1  9 0 0.000000000000000 2.000000000000010
2  9 5 32 0.000000000000000 2.000000000000010
4 G1 3 22 5 32
0

0101000
+120 12 -118 12 *
Ed
 0.000000100000000 1 1 0
1  10 0 88.500000000000028 98.500000000000028
0

0101000
+132 12 -118 12 *
Wi

0101100
+119 29 -117 29 +116 29 +130 29 *
Fa
0  0.000000100000000 3 28

0111000
+115 0 *
Ve
0.001000000000013
-46.927876096865383 8.058674146215514 -0.000000000000004
0 0

0101101
*
Ed
 0.000000100000000 1 1 0
1  11 0 0.000000000000000 80.927624243102443
0

0101000
+113 12 -127 12 *
Ve
0.001000050000020
-46.927876096865383 8.058674146215514 1.999999999999986
0 0

0101101
*
Ed
 0.000000100000000 1 1 0
1  12 0 -30.237521097791685 50.690103145311198
0

0101000
+111 12 -125 12 *
Ed
 0.000000100000000 1 1 0
1  13 0 0.000000000000000 1.999999999999990
2  10 6 36 0.000000000000000 1.999999999999990
4 G1 4 26 6 36
0

0101000
+113 12 -111 12 *
Wi

0101100
-112 33 -123 33 +110 33 +109 33 *
Fa
0  0.001000000000013 4 0

0111000
+108 0 *
Ve
0.001000000000024
50.500000000000057 103.898229715025593 -0.000000000000009
0 0

0101101
*
Ed
 0.000000100000000 1 1 0
1  14 0 0.000000000000000 1.570796326794896
2  11 5 32 0.000000000000000 1.570796326794896
0

0101000
+106 12 -120 12 *
Ve
0.001000050001014
50.500000000000043 103.898229715025593 2.000000000000004
0 0

0101101
*
Ed
 0.000000100000000 1 1 0
1  15 0 4.712388980384690 6.283185307179586
2  12 5 32 4.712388980384690 6.283185307179586
0

0101000
+118 12 -104 12 *
Ed
 0.000000100000000 1 1 0
1  16 0 0.000000000000000 2.000000000000012
2  13 5 32 0.000000000000000 2.000000000000012
0

0101000
+106 12 -104 12 *
Wi

0101100
-105 37 -117 37 -103 37 +102 37 *
Fa
0  0.001000000000014 5 0

0111000
+101 0 *
Ve
0.001000000000019
-50.500000000000000 0.398229715025726 -0.000000000000010
0 0

0101101
*
Ed
 0.000000100000000 1 1 0
1  17 0 2.268928027592628 3.141592653589793
2  14 6 36 2.268928027592628 3.141592653589793
0

0101000
+113 12 -99 12 *
Ve
0.001000050001000
-50.500000000000000 0.398229715025721 1.999999999999986
0 0

0101101
*
Ed
 0.000000100000000 1 1 0
1  18 0 0.000000000000000 1.000000000000000
2  15 6 36 0.000000000000000 1.000000000000000
4 G1 6 36 7 0
0

0101000
+99 12 -97 12 *
Ed
 0.000000100000000 1 1 0
1  19 0 3.141592653589793 4.014257279586959
2  16 6 36 3.141592653589793 4.014257279586959
0

0101000
+97 12 -111 12 *
Wi

0101100
-98 38 -96 38 -95 38 +109 38 *
Fa
0  0.000001000000000 6 0

0111000
+94 0 *
Ve
0.001000000568528
-50.499999999999574 -3.999999999431474 -0.000000000000009
0 0

0101101
*
Ed
 0.000000100000000 1 1 0
1  20 0 -4.398229714457200 0.000000000000000
0

0101000
+92 12 -99 12 *
Ve
0.001000050001000
-50.500000000000000 -3.999999999999988 1.999999999999987
0 0

0101101
*
Ed
 0.000000100000000 1 1 0
1  21 0 0.000000000000000 1.000000000000000
2  17 8 39 0.000000000000000 1.000000000000000
0

0101000
+92 12 -90 12 *
Ed
 0.000000100000000 1 1 0
1  22 0 -4.398229715025709 0.000000000000000
0

0101000
+90 12 -97 12 *
Wi

0101100
-91 0 +89 0 +88 0 -96 0 *
Fa
0  0.000000100000000 7 0

0111000
+87 0 *
Ve
0.001000000000013
-29.499999998291550 -25.000000000003190 0.000000000000000
0 0

0101101
*
Ed
 0.000000100000000 1 1 0
1  23 0 3.141592653580203 4.712388980394296
2  18 8 39 3.141592653580203 4.712388980394296
0

0101000
+92 12 -85 12 *
Ve
0.001000050001918
-29.499999998291550 -25.000000000003190 1.999999999999997
0 0

0101101
*
Ed
 0.000000100000000 1 1 0
1  24 0 0.000000000000000 1.999999999999997
2  19 8 39 0.000000000000000 1.999999999999997
4 G1 8 39 9 39
0

0101000
+85 12 -83 12 *
Ed
 0.000000100000000 1 1 0
1  25 0 1.570796326785290 3.141592653599383
2  20 8 39 1.570796326785290 3.141592653599383
0

0101000
+83 12 -90 12 *
Wi

0101100
-84 40 -82 40 -81 40 +89 40 *
Fa
0  0.000000500000000 8 0

0111000
+80 0 *
Ve
0.001000000000017
29.499999998291369 -25.000000000005109 0.000000000000000
0 0

0101101
*
Ed
 0.000000100000000 1 1 0
1  26 0 0.000000000000000 58.999999996582915
0

0101000
+78 12 -85 12 *
Ve
0.001000050000004
29.499999998291369 -25.000000000005109 2.000000000000014
0 0

0101101
*
Ed
 0.000000100000000 1 1 0
1  27 0 -39.999999999145686 18.999999997437229
0

0101000
+76 12 -83 12 *
Ed
 0.000000100000000 1 1 0
1  28 0 0.000000000000000 2.000000000000014
2  21 10 39 0.000000000000000 2.000000000000014
4 G1 9 39 10 39
0

0101000
+78 12 -76 12 *
Wi

0101100
-77 40 -82 40 +75 40 +74 40 *
Fa
0  0.000000500000000 9 0

0111000
+73 0 *
Ve
0.001000000002314
50.499999999999567 -3.999999999997755 0.000000000000010
0 0

0101101
*
Ed
 0.000000100000000 1 1 0
1  29 0 4.712388980375075 6.283185307108464
2  22 10 39 4.712388980375075 6.283185307108464
0

0101000
+78 12 -71 12 *
Ve
0.001000050001000
50.500000000000000 -4.000000000000011 2.000000000000015
0 0

0101101
*
Ed
 0.000000100000000 1 1 0
1  30 0 0.000000000000000 2.000000000000005
2  23 10 39 0.000000000000000 2.000000000000005
0

0101000
+71 12 -69 12 *
Ed
 0.000000100000000 1 1 0
1  31 0 0.000000000071122 1.570796326804511
2  24 10 39 0.000000000071122 1.570796326804511
0

0101000
+69 12 -76 12 *
Wi

0101100
-70 40 -68 40 -67 40 +74 40 *
Fa
0  0.000000500000000 10 0

0111000
+66 0 *
Ed
 0.000000100000000 1 1 0
1  32 0 2.500000000000099 110.398229715023447
0

0101000
+106 12 -71 12 *
Wi

0101000
-135 0 -119 0 -105 0 +64 0 -70 0 +77 0 -84 0 +91 0 -98 0 +112 0 
+126 0 *
Ve
0.001000000000015
37.250000000000000 -12.000000000000000 0.000000000000000
0 0

0101101
*
Ed
 0.000000100000000 1 1 0
1  33 0 0.000000000000000 6.283185307179586
2  25 12 42 0.000000000000000 6.283185307179586
0

0101000
+62 12 -62 12 *
Wi

0101100
-61 0 *
Ve
0.001000000000015
-42.750000000000000 -12.000000000000000 0.000000000000000
0 0

0101101
*
Ed
 0.000000100000000 1 1 0
1  34 0 0.000000000000000 6.283185307179586
2  26 13 44 0.000000000000000 6.283185307179586
0

0101000
+59 12 -59 12 *
Wi

0101100
-58 0 *
Ve
0.001000000000010
44.700000000000053 96.398229715025678 -0.000000000000008
0 0

0101101
*
Ed
 0.000000100000000 1 1 0
1  35 0 0.000000000000000 6.283185307179586
2  27 14 48 0.000000000000000 6.283185307179586
0

0101000
+56 12 -56 12 *
Wi

0101100
-55 0 *
Ve
0.001000000000010
44.700000000000038 67.731563048359007 -0.000000000000005
0 0

0101101
*
Ed
 0.000000100000000 1 1 0
1  36 0 0.000000000000000 6.283185307179586
2  28 15 52 0.000000000000000 6.283185307179586
0

0101000
+53 12 -53 12 *
Wi

0101100
-52 0 *
Ve
0.001000000000010
44.700000000000024 39.064896381692350 -0.000000000000001
0 0

0101101
*
Ed
 0.000000100000000 1 1 0
1  37 0 0.000000000000000 6.283185307179586
2  29 16 56 0.000000000000000 6.283185307179586
0

0101000
+50 12 -50 12 *
Wi

0101100
-49 0 *
Ve
0.001000000000010
44.700000000000010 10.398229715025687 0.000000000000002
0 0

0101101
*
Ed
 0.000000100000000 1 1 0
1  38 0 0.000000000000000 6.283185307179586
2  30 17 60 0.000000000000000 6.283185307179586
0

0101000
+47 12 -47 12 *
Wi

0101100
-46 0 *
Fa
0  0.000000100000000 11 0

0111000
+63 0 +60 0 +57 0 +54 0 +51 0 +48 0 +45 0 *
Ve
0.001000000000000
37.250000000000000 -12.000000000000000 2.000000000000013
0 0

0101101
*
Ed
 0.000000100000000 1 1 0
1  39 0 0.000000000000000 2.000000000000013
3  31 32CN 12 0 0.000000000000000 2.000000000000013
0

0101000
+62 62 -43 62 *
Ed
 0.000000100000000 1 1 0
1  40 0 0.000000000000000 6.283185307179586
2  33 12 42 0.000000000000000 6.283185307179586
0

0101000
+43 12 -43 12 *
Wi

0101100
-42 41 +41 63 +42 41 +61 63 *
Fa
0  0.000000100000000 12 41

0111000
+40 0 *
Ve
0.001000000000000
-42.750000000000000 -12.000000000000000 1.999999999999991
0 0

0101101
*
Ed
 0.000000100000000 1 1 0
1  41 0 0.000000000000000 1.999999999999991
3  34 35CN 13 0 0.000000000000000 1.999999999999991
0

0101000
+59 64 -38 64 *
Ed
 0.000000100000000 1 1 0
1  42 0 0.000000000000000 6.283185307179586
2  36 13 44 0.000000000000000 6.283185307179586
0

0101000
+38 12 -38 12 *
Wi

0101100
-37 43 +36 63 +37 43 +58 63 *
Fa
0  0.000000100000000 13 43

0111000
+35 0 *
Ve
0.001000000000000
44.700000000000053 96.398229715025678 2.000000000000002
0 0

0101101
*
Ed
 0.000000100000000 1 1 0
1  43 0 0.000000000000000 2.000000000000010
3  37 38CN 14 0 0.000000000000000 2.000000000000010
0

0101000
+56 66 -33 66 *
Ed
 0.000000100000000 1 1 0
1  44 0 0.000000000000000 6.283185307179586
2  39 14 48 0.000000000000000 6.283185307179586
0

0101000
+33 12 -33 12 *
Wi

0101100
-32 45 +31 67 +32 45 +55 67 *
Fa
0  0.000000100000000 14 45

0111000
+30 0 *
Ve
0.001000000000000
44.700000000000038 67.731563048359007 2.000000000000005
0 0

0101101
*
Ed
 0.000000100000000 1 1 0
1  45 0 0.000000000000000 2.000000000000010
3  40 41CN 15 0 0.000000000000000 2.000000000000010
0

0101000
+53 69 -28 69 *
Ed
 0.000000100000000 1 1 0
1  46 0 0.000000000000000 6.283185307179586
2  42 15 52 0.000000000000000 6.283185307179586
0

0101000
+28 12 -28 12 *
Wi

0101100
-27 49 +26 70 +27 49 +52 70 *
Fa
0  0.000000100000000 15 49

0111000
+25 0 *
Ve
0.001000000000001
44.700000000000024 39.064896381692350 2.000000000000008
0 0

0101101
*
Ed
 0.000000100000000 1 1 0
1  47 0 0.000000000000000 2.000000000000010
3  43 44CN 16 0 0.000000000000000 2.000000000000010
0

0101000
+50 72 -23 72 *
Ed
 0.000000100000000 1 1 0
1  48 0 0.000000000000000 6.283185307179586
2  45 16 56 0.000000000000000 6.283185307179586
0

0101000
+23 12 -23 12 *
Wi

0101100
-22 53 +21 73 +22 53 +49 73 *
Fa
0  0.000000100000000 16 53

0111000
+20 0 *
Ve
0.001000000000000
44.700000000000010 10.398229715025687 2.000000000000012
0 0

0101101
*
Ed
 0.000000100000000 1 1 0
1  49 0 0.000000000000000 2.000000000000010
3  46 47CN 17 0 0.000000000000000 2.000000000000010
0

0101000
+47 75 -18 75 *
Ed
 0.000000100000000 1 1 0
1  50 0 0.000000000000000 6.283185307179586
2  48 17 60 0.000000000000000 6.283185307179586
0

0101000
+18 12 -18 12 *
Wi

0101100
-17 57 +16 76 +17 57 +46 76 *
Fa
0  0.000000100000000 17 57

0111000
+15 0 *
Ed
 0.000000100000000 1 1 0
1  51 0 -103.499999999999901 4.398229715025710
0

0101000
+104 12 -69 12 *
Wi

0101000
-131 0 +124 0 -110 0 -95 0 -88 0 -81 0 -75 0 -67 0 -13 0 -103 0 
-116 0 *
Wi

0101100
-41 0 *
Wi

0101100
-36 0 *
Wi

0101100
-31 0 *
Wi

0101100
-26 0 *
Wi

0101100
-21 0 *
Wi

0101100
-16 0 *
Fa
0  0.000000100000000 18 0

0111000
+12 0 +11 0 +10 0 +9 0 +8 0 +7 0 +6 0 *
Wi

0101000
-64 0 +102 0 +13 0 -68 0 *
Fa
0  0.000000100000000 19 0

0111000
+4 0 *
Sh

0101000
-128 9 +121 15 +114 27 +107 26 -100 32 -93 36 +86 0 -79 39 +72 39 -65 39 
+44 0 +39 61 +34 61 +29 65 +24 68 +19 71 +14 74 +5 0 +3 0 *
So

0100000
+2 0 *

+1 1 