
CASCADE Topology V1, (c) Matra-Datavision
Locations 19
1
1.000000000000000 0.000000000000000 0.000000000000000 0.000000000000000 
0.000000000000000 1.000000000000000 0.000000000000000 0.000000000000000 
0.000000000000000 0.000000000000000 1.000000000000000 0.000000000000000 
1
1.000000000000000 0.000000000000000 0.000000000000000 0.000000000000000 
0.000000000000000 1.000000000000000 0.000000000000000 0.000000000000000 
0.000000000000000 0.000000000000000 1.000000000000000 0.000000000000000 
1
1.000000000000000 0.000000000000000 0.000000000000000 0.000000000000000 
0.000000000000000 1.000000000000000 0.000000000000000 0.000000000000000 
0.000000000000000 0.000000000000000 1.000000000000000 0.000000000000000 
2  2 1 3 -1 0
1
1.000000000000000 0.000000000000000 0.000000000000000 0.000000000000000 
0.000000000000000 1.000000000000000 0.000000000000000 0.000000000000000 
0.000000000000000 0.000000000000000 1.000000000000000 0.000000000000000 
1
1.000000000000000 0.000000000000000 0.000000000000000 0.000000000000000 
0.000000000000000 1.000000000000000 0.000000000000000 0.000000000000000 
0.000000000000000 0.000000000000000 1.000000000000000 0.000000000000000 
1
1.000000000000000 0.000000000000000 0.000000000000000 0.000000000000000 
0.000000000000000 1.000000000000000 0.000000000000000 0.000000000000000 
0.000000000000000 0.000000000000000 1.000000000000000 0.000000000000000 
1
1.000000000000000 0.000000000000000 0.000000000000000 0.000000000000000 
0.000000000000000 1.000000000000000 0.000000000000000 0.000000000000000 
0.000000000000000 0.000000000000000 1.000000000000000 0.000000000000000 
2  5 1 6 -1 7 1 8 -1 0
1
1.000000000000000 0.000000000000000 0.000000000000000 0.000000000000000 
0.000000000000000 1.000000000000000 0.000000000000000 0.000000000000000 
0.000000000000000 0.000000000000000 1.000000000000000 0.000000000000000 
2  10 -1 3 1 2 -1 8 1 7 -1 6 1 5 -1 0
2  10 -1 3 1 2 -1 0
2  7 1 8 -1 0
2  10 -1 3 1 2 -1 8 1 7 -1 0
2  5 1 6 -1 7 1 8 -1 2 1 3 -1 0
2  7 1 8 -1 2 1 3 -1 0
1
1.000000000000000 0.000000000000000 0.000000000000000 0.000000000000007 
0.000000000000000 1.000000000000000 0.000000000000000 -33.212074235133215 
0.000000000000000 0.000000000000000 1.000000000000000 0.000000000000000 
2  10 -1 0
2  10 -1 17 -1 0
Curve2ds 36
1 1.57079632679489656 0.00000000000000000 0.00000000000000000 -1.00000000000000000 
1 0.00000000000000000 -115.10502083251176941 1.00000000000000000 0.00000000000000000 
1 0.00000000000000000 -115.10502083251176941 1.00000000000000000 0.00000000000000000 
1 1.57079632679489656 0.00000000000000000 0.00000000000000000 1.00000000000000000 
1 0.00000000000000000 -44.00000000000000000 1.00000000000000000 0.00000000000000000 
1 0.00000000000000000 -44.00000000000000000 1.00000000000000000 0.00000000000000000 
1 0.00000000000000000 -44.00000000000000000 1.00000000000000000 0.00000000000000000 
1 0.00000000000000000 -44.00000000000000000 1.00000000000000000 0.00000000000000000 
1 0.00000000000000000 0.00000000000000000 1.00000000000000000 0.00000000000000000 
1 0.00000000000000000 0.00000000000000000 1.00000000000000000 0.00000000000000000 
1 0.00000000000000000 0.00000000000000000 0.00000000000000000 -1.00000000000000000 
1 0.00000000000000000 0.00000000000000000 0.00000000000000000 -1.00000000000000000 
1 6.28318530717958623 0.00000000000000000 0.00000000000000000 -1.00000000000000000 
1 0.00000000000000000 -115.40502083251176657 1.00000000000000000 0.00000000000000000 
1 0.00000000000000000 0.00000000000000000 0.00000000000000000 -1.00000000000000000 
1 6.28318530717958623 0.00000000000000000 0.00000000000000000 -1.00000000000000000 
1 0.00000000000000000 -115.40502083251176657 1.00000000000000000 0.00000000000000000 
1 1.57079632679489656 0.00000000000000000 0.00000000000000000 -1.00000000000000000 
1 0.00000000000000000 1.00000000000000000 1.00000000000000000 0.00000000000000000 
1 0.00000000000000000 0.00000000000000000 0.00000000000000000 1.00000000000000000 
1 6.28318530717958623 0.00000000000000000 0.00000000000000000 -1.00000000000000000 
1 6.28318530717958623 0.30000000000000737 -1.00000000000000000 0.00000000000000000 
1 0.00000000000000000 0.00000000000000000 1.00000000000000000 0.00000000000000000 
1 0.00000000000000000 1.00000000000000000 1.00000000000000000 0.00000000000000000 
1 4.71238898038468612 0.00000000000000000 0.00000000000000000 -1.00000000000000000 
1 0.00000000000000000 -137.80502083251175804 1.00000000000000000 0.00000000000000000 
1 0.00000000000000000 -137.80502083251175804 1.00000000000000000 0.00000000000000000 
1 0.00000000000000000 -138.10502083251176941 1.00000000000000000 0.00000000000000000 
1 0.00000000000000000 -138.10502083251176941 1.00000000000000000 0.00000000000000000 
1 0.00000000000000000 0.00000000000000000 1.00000000000000000 0.00000000000000000 
1 6.28318530717958623 0.00000000000000000 0.00000000000000000 -1.00000000000000000 
1 0.00000000000000000 0.00000000000000000 1.00000000000000000 0.00000000000000000 
1 6.28318530717958623 0.00000000000000000 0.00000000000000000 1.00000000000000000 
1 6.28318530717958623 0.00000000000000000 0.00000000000000000 1.00000000000000000 
1 0.00000000000000000 0.00000000000000000 0.00000000000000000 1.00000000000000000 
1 4.71238898038468612 0.00000000000000000 0.00000000000000000 1.00000000000000000 
Curves 55
1 11.50000000000000000 -8.00000000000000000 -0.00000000000000178 0.00000000000000000 0.00000000000000022 -1.00000000000000000 
1 11.50000000000000000 -7.99999999999998401 -72.00000000000000000 0.00000000000000000 -1.00000000000000000 -0.00000000000000022 
1 11.50000000000000000 -52.00000000000000000 10.13100199999999695 0.00000000000000000 0.00000000000000000 -1.00000000000000000 
1 11.50000000000000000 -8.00000000000000000 -0.40000000000000169 0.00000000000000000 -1.00000000000000000 -0.00000000000000022 
2 11.50000000000000000 -45.00000000000000711 -61.99999999999997158 1.00000000000000000 -0.00000000000000022 0.00000000000000022 0.00000000000000022 1.00000000000000000 -0.00000000000000022 -0.00000000000000022 0.00000000000000022 1.00000000000000000 1.70000000000000018
2 11.50000000000000000 -15.00000000000001066 -61.99999999999997158 1.00000000000000000 -0.00000000000000022 0.00000000000000022 0.00000000000000022 1.00000000000000000 -0.00000000000000022 -0.00000000000000022 0.00000000000000022 1.00000000000000000 1.70000000000000018
6 0 1 11.50000000000000000 -7.99999999999998401 -72.00000000000000000  11.19999999999999929 -7.99999999999998401 -72.00000000000000000  
1 11.19999999999999929 -8.00000000000000000 -0.00000000000000178 0.00000000000000000 0.00000000000000022 -1.00000000000000000 
6 0 1 11.50000000000000000 -8.00000000000000000 -0.40000000000000169  11.19999999999999929 -8.00000000000000000 -0.40000000000000169  
1 11.19999999999999929 -7.99999999999998401 -72.00000000000000000 0.00000000000000000 -1.00000000000000000 -0.00000000000000022 
1 355.12344401415691664 -52.00000000000000000 -72.00000000000001421 -1.00000000000000000 -0.00000000000000000 -0.00000000000000000 
1 11.20000000000002238 -52.00000000000000000 10.13100199999999695 0.00000000000000000 0.00000000000000000 -1.00000000000000000 
2 11.10000000000000142 -52.00000000000000000 -0.40000000000001146 -0.00000000000000000 1.00000000000000000 0.00000000000000022 0.00000000000000000 -0.00000000000000022 1.00000000000000000 1.00000000000000000 0.00000000000000000 0.00000000000000000 0.10000000000000003
1 343.97344401415688253 -52.00000000000000000 -0.30000000000001148 1.00000000000000000 0.00000000000000000 0.00000000000000000 
2 -11.09999999999999964 -52.00000000000000000 -0.40000000000001190 0.00000000000000000 1.00000000000000000 0.00000000000000022 0.00000000000000377 -0.00000000000000022 1.00000000000000000 1.00000000000000000 0.00000000000000000 -0.00000000000000377 0.10000000000000003
1 -11.20000000000002238 -52.00000000000000000 -25.66899800000000198 0.00000000000000000 0.00000000000000000 1.00000000000000000 
1 343.92344401415687116 -52.00000000000000000 -72.00000000000001421 -1.00000000000000000 -0.00000000000000000 -0.00000000000000000 
1 -11.50000000000000000 -52.00000000000000000 -25.66899800000000198 0.00000000000000000 0.00000000000000000 1.00000000000000000 
2 -11.09999999999999964 -52.00000000000000000 -0.40000000000001190 0.00000000000000000 1.00000000000000000 0.00000000000000022 0.00000000000000377 -0.00000000000000022 1.00000000000000000 1.00000000000000000 0.00000000000000000 -0.00000000000000377 0.40000000000000002
1 343.97344401415688253 -52.00000000000000000 -0.00000000000001110 1.00000000000000000 0.00000000000000000 0.00000000000000000 
2 11.10000000000000142 -52.00000000000000000 -0.40000000000001146 -0.00000000000000000 1.00000000000000000 0.00000000000000022 0.00000000000000000 -0.00000000000000022 1.00000000000000000 1.00000000000000000 0.00000000000000000 0.00000000000000000 0.40000000000000002
2 11.10000000000000142 -8.00000000000000000 -0.40000000000000169 -0.00000000000000000 1.00000000000000000 0.00000000000000022 0.00000000000000000 -0.00000000000000022 1.00000000000000000 1.00000000000000000 0.00000000000000000 0.00000000000000000 0.40000000000000002
1 11.10000000000000142 -8.00000000000000000 -0.00000000000000178 0.00000000000000000 -1.00000000000000000 -0.00000000000000022 
1 126.60502083251176941 -43.30000000000003979 -61.99999999999994316 -1.00000000000000000 0.00000000000000022 -0.00000000000000028 
2 11.20000000000000284 -45.00000000000000711 -61.99999999999997158 1.00000000000000000 -0.00000000000000022 0.00000000000000022 0.00000000000000022 1.00000000000000000 -0.00000000000000022 -0.00000000000000022 0.00000000000000022 1.00000000000000000 1.70000000000000018
1 126.60502083251176941 -13.30000000000003624 -61.99999999999995026 -1.00000000000000000 0.00000000000000022 -0.00000000000000028 
2 11.20000000000000284 -15.00000000000001066 -61.99999999999997158 1.00000000000000000 -0.00000000000000022 0.00000000000000022 0.00000000000000022 1.00000000000000000 -0.00000000000000022 -0.00000000000000022 0.00000000000000022 1.00000000000000000 1.70000000000000018
1 11.19999999999999929 -8.00000000000000000 -0.40000000000000169 0.00000000000000000 -1.00000000000000000 -0.00000000000000022 
2 11.10000000000000142 -8.00000000000000000 -0.40000000000000169 -0.00000000000000000 1.00000000000000000 0.00000000000000022 0.00000000000000000 -0.00000000000000022 1.00000000000000000 1.00000000000000000 0.00000000000000000 0.00000000000000000 0.10000000000000003
6 0 1 11.10000000000000142 -8.00000000000000000 -0.00000000000000178  11.10000000000000142 -8.00000000000000000 -0.30000000000000165  
1 11.10000000000000142 -8.00000000000000000 -0.30000000000000165 0.00000000000000000 -1.00000000000000000 -0.00000000000000022 
1 -11.50000000000000000 -8.00000000000000000 -0.30000000000000177 1.00000000000000000 0.00000000000000000 0.00000000000000000 
1 -11.09999999999999964 -8.00000000000000000 -0.30000000000000177 0.00000000000000000 -1.00000000000000000 -0.00000000000000022 
2 0.00000000000000711 -33.21207423513321544 -0.30000000000000737 0.00000000000000000 0.00000000000000000 -1.00000000000000000 1.00000000000000000 0.00000000000000000 0.00000000000000000 0.00000000000000000 -1.00000000000000000 0.00000000000000000 1.69999999999999996
2 -11.09999999999999964 -8.00000000000000178 -0.40000000000000213 0.00000000000000000 1.00000000000000000 0.00000000000000022 0.00000000000000377 -0.00000000000000022 1.00000000000000000 1.00000000000000000 0.00000000000000000 -0.00000000000000377 0.10000000000000003
1 -11.19999999999999929 -8.00000000000000178 -0.40000000000000213 -0.00000000000000000 -1.00000000000000000 -0.00000000000000022 
1 -11.19999999999999929 -7.99999999999998401 -72.00000000000000000 0.00000000000000000 -0.00000000000000022 1.00000000000000000 
1 -11.19999999999999929 -7.99999999999998401 -72.00000000000000000 0.00000000000000000 -1.00000000000000000 -0.00000000000000022 
2 -11.19999999999998863 -45.00000000000000711 -61.99999999999997158 1.00000000000000000 -0.00000000000000022 0.00000000000000022 0.00000000000000022 1.00000000000000000 -0.00000000000000022 -0.00000000000000022 0.00000000000000022 1.00000000000000000 1.70000000000000018
2 -11.19999999999998863 -15.00000000000000533 -61.99999999999997158 1.00000000000000000 -0.00000000000000022 0.00000000000000022 0.00000000000000022 1.00000000000000000 -0.00000000000000022 -0.00000000000000022 0.00000000000000022 1.00000000000000000 1.70000000000000018
1 -11.50000000000000000 -7.99999999999998401 -72.00000000000000000 0.00000000000000000 -1.00000000000000000 -0.00000000000000022 
6 0 1 -11.50000000000000000 -7.99999999999998401 -72.00000000000000000  -11.19999999999999929 -7.99999999999998401 -72.00000000000000000  
1 -11.50000000000000000 -7.99999999999998401 -72.00000000000000000 0.00000000000000000 -0.00000000000000022 1.00000000000000000 
1 -11.50000000000000000 -8.00000000000000000 -0.40000000000000568 0.00000000000000000 -1.00000000000000000 -0.00000000000000022 
2 -11.50000000000000000 -45.00000000000000711 -61.99999999999997158 1.00000000000000000 -0.00000000000000022 0.00000000000000022 0.00000000000000022 1.00000000000000000 -0.00000000000000022 -0.00000000000000022 0.00000000000000022 1.00000000000000000 1.70000000000000018
2 -11.50000000000000000 -15.00000000000000533 -61.99999999999997158 1.00000000000000000 -0.00000000000000022 0.00000000000000022 0.00000000000000022 1.00000000000000000 -0.00000000000000022 -0.00000000000000022 0.00000000000000022 1.00000000000000000 1.70000000000000018
2 -11.09999999999999964 -8.00000000000000178 -0.40000000000000213 0.00000000000000000 1.00000000000000000 0.00000000000000022 0.00000000000000377 -0.00000000000000022 1.00000000000000000 1.00000000000000000 0.00000000000000000 -0.00000000000000377 0.40000000000000002
1 -11.09999999999999964 -8.00000000000000000 -0.00000000000000178 0.00000000000000000 -1.00000000000000000 -0.00000000000000022 
1 -11.50000000000000000 -8.00000000000000000 -0.00000000000000178 1.00000000000000000 0.00000000000000000 0.00000000000000000 
2 0.00000000000000000 0.00000000000000000 0.00000000000000000 0.00000000000000000 0.00000000000000000 1.00000000000000000 1.00000000000000000 0.00000000000000000 -0.00000000000000000 -0.00000000000000000 1.00000000000000000 0.00000000000000000 1.69999999999999996
6 0 1 -11.09999999999999964 -8.00000000000000000 -0.00000000000000178  -11.09999999999999964 -8.00000000000000000 -0.30000000000000177  
1 1.69999999999999996 0.00000000000000000 0.00000000000000000 -0.00000000000000006 0.00000000000000000 -1.00000000000000000 
6 0 1 -11.50000000000000000 -8.00000000000000000 -0.40000000000000568  -11.19999999999999929 -8.00000000000000178 -0.40000000000000213  
1 126.60502083251176941 -43.30000000000003979 -61.99999999999994316 -1.00000000000000000 0.00000000000000022 -0.00000000000000028 
1 126.60502083251176941 -13.30000000000003624 -61.99999999999995026 -1.00000000000000000 0.00000000000000022 -0.00000000000000028 
Polygon3D 0
PolygonOnTriangulations 0
Surfaces 23
1 11.50000000000000000 -8.00000000000000000 -0.40000000000000169 1.00000000000000000 0.00000000000000000 0.00000000000000000 0.00000000000000000 0.00000000000000022 -1.00000000000000000 -0.00000000000000000 1.00000000000000000 0.00000000000000022 
2 11.10000000000000142 -8.00000000000000000 -0.40000000000000169 0.00000000000000000 1.00000000000000000 0.00000000000000022 0.00000000000000000 -0.00000000000000022 1.00000000000000000 1.00000000000000000 0.00000000000000000 -0.00000000000000000 0.40000000000000002
2 126.60502083251176941 -45.00000000000003553 -61.99999999999994316 1.00000000000000000 -0.00000000000000022 0.00000000000000022 0.00000000000000022 1.00000000000000000 -0.00000000000000022 -0.00000000000000022 0.00000000000000022 1.00000000000000000 1.70000000000000018
2 126.60502083251176941 -15.00000000000003553 -61.99999999999994316 1.00000000000000000 -0.00000000000000022 0.00000000000000022 0.00000000000000022 1.00000000000000000 -0.00000000000000022 -0.00000000000000022 0.00000000000000022 1.00000000000000000 1.70000000000000018
1 11.19999999999999929 -8.00000000000000000 -0.00000000000000178 0.00000000000000000 1.00000000000000000 0.00000000000000022 0.00000000000000000 0.00000000000000022 -1.00000000000000000 -1.00000000000000000 0.00000000000000000 0.00000000000000000 
9 0 0 0 0 7 1 8 2 2 2 11.10000000000000142 -8.00000000000000000 -0.00000000000000167  11.09999999999999964 -8.00000000000000000 -0.30000000000000171  
11.18975979010259536 -8.00000000000001776 -0.00000000000000229  11.12243994752566856 -8.00000000000001776 -0.30000000000000265  
11.27951914599323047 -7.99999999999990230 -0.02349955462065449  11.14487978649820654 -7.99999999999990230 -0.30587488865515999  
11.36189877632947542 -8.00000000000018296 -0.07049491111912549  11.16547469408257776 -8.00000000000018296 -0.31762372777979198  
11.42950508888059069 -7.99999999999982503 -0.13810122367081407  11.18237627221995290 -7.99999999999982503 -0.33452530591769558  
11.47650044537952319 -8.00000000000009948 -0.22048085400662462  11.19412511134497912 -8.00000000000009948 -0.35512021350166245  
11.49999999999994849 -7.99999999999997158 -0.31024020989743561  11.19999999999996909 -7.99999999999997158 -0.37756005247435886  
11.50000000000000178 -8.00000000000000000 -0.40000000000000169  11.19999999999999929 -8.00000000000000000 -0.40000000000000174  

0.00000000000000000 8
1.57079632679489656 8

0.00000000000000000 2
1.00000000000000000 2

1 11.19999999999999929 -7.99999999999998401 -72.00000000000000000 0.00000000000000000 0.00000000000000022 -1.00000000000000000 0.00000000000000000 -1.00000000000000000 -0.00000000000000022 -1.00000000000000000 0.00000000000000000 -0.00000000000000000 
1 699.04688802831378780 -52.00000000000000000 20.66200399999999604 0.00000000000000000 -1.00000000000000000 0.00000000000000000 0.00000000000000000 0.00000000000000000 -1.00000000000000000 1.00000000000000000 0.00000000000000000 0.00000000000000000 
2 11.10000000000000142 -8.00000000000000000 -0.40000000000000169 0.00000000000000000 1.00000000000000000 0.00000000000000022 0.00000000000000000 -0.00000000000000022 1.00000000000000000 1.00000000000000000 0.00000000000000000 -0.00000000000000000 0.10000000000000003
2 -11.09999999999999964 -8.00000000000000178 -0.40000000000000213 0.00000000000000000 1.00000000000000000 0.00000000000000022 0.00000000000000377 -0.00000000000000022 1.00000000000000000 1.00000000000000000 0.00000000000000000 -0.00000000000000377 0.10000000000000003
2 -11.09999999999999964 -8.00000000000000178 -0.40000000000000213 0.00000000000000000 1.00000000000000000 0.00000000000000022 0.00000000000000377 -0.00000000000000022 1.00000000000000000 1.00000000000000000 0.00000000000000000 -0.00000000000000377 0.40000000000000002
1 -11.09999999999999964 -8.00000000000000000 -0.00000000000000178 0.00000000000000000 -0.00000000000000022 1.00000000000000000 1.00000000000000000 0.00000000000000000 0.00000000000000000 -0.00000000000000000 1.00000000000000000 0.00000000000000022 
1 11.19999999999999929 -8.00000000000000000 -0.40000000000000169 1.00000000000000000 0.00000000000000000 0.00000000000000000 0.00000000000000000 0.00000000000000022 -1.00000000000000000 -0.00000000000000000 1.00000000000000000 0.00000000000000022 
1 -11.09999999999999964 -8.00000000000000000 -0.30000000000000177 0.00000000000000000 -0.00000000000000022 1.00000000000000000 1.00000000000000000 0.00000000000000000 0.00000000000000000 -0.00000000000000000 1.00000000000000000 0.00000000000000022 
2 0.00000000000000000 0.00000000000000000 0.00000000000000000 -0.00000000000000000 -0.00000000000000000 -1.00000000000000000 1.00000000000000000 0.00000000000000000 0.00000000000000000 -0.00000000000000000 1.00000000000000000 -0.00000000000000000 1.69999999999999996
9 0 0 0 0 7 1 8 2 2 2 -11.50000000000000178 -8.00000000000000178 -0.40000000000000219  -11.19999999999999929 -8.00000000000000178 -0.40000000000000213  
-11.50000000000010836 -8.00000000000006928 -0.31024020989743828  -11.20000000000007212 -8.00000000000006928 -0.37756005247436264  
-11.47650044537904890 -7.99999999999981526 -0.22048085400661815  -11.19412511134466648 -7.99999999999981526 -0.35512021350165329  
-11.42950508888130301 -8.00000000000024514 -0.13810122367082284  -11.18237627222039698 -8.00000000000024514 -0.33452530591770901  
-11.36189877632879686 -7.99999999999980460 -0.07049491111911751  -11.16547469408219939 -7.99999999999980460 -0.31762372777978082  
-11.27951914599359462 -8.00000000000009592 -0.02349955462065851  -11.14487978649836641 -8.00000000000009592 -0.30587488865516566  
-11.18975979010250299 -7.99999999999997957 -0.00000000000000132  -11.12243994752563481 -7.99999999999997957 -0.30000000000000221  
-11.09999999999999964 -8.00000000000000178 -0.00000000000000211  -11.09999999999999964 -8.00000000000000178 -0.30000000000000210  

4.71238898038468612 8
6.28318530717958623 8

0.00000000000000000 2
1.00000000000000000 2

1 -11.19999999999999929 -7.99999999999998401 -72.00000000000000000 -1.00000000000000000 0.00000000000000000 0.00000000000000000 0.00000000000000000 -0.00000000000000022 1.00000000000000000 0.00000000000000000 1.00000000000000000 0.00000000000000022 
2 126.60502083251176941 -45.00000000000003553 -61.99999999999994316 1.00000000000000000 -0.00000000000000022 0.00000000000000022 0.00000000000000022 1.00000000000000000 -0.00000000000000022 -0.00000000000000022 0.00000000000000022 1.00000000000000000 1.70000000000000018
2 126.60502083251176941 -15.00000000000003553 -61.99999999999994316 1.00000000000000000 -0.00000000000000022 0.00000000000000022 0.00000000000000022 1.00000000000000000 -0.00000000000000022 -0.00000000000000022 0.00000000000000022 1.00000000000000000 1.70000000000000018
1 -11.19999999999999929 -7.99999999999998401 -72.00000000000000000 0.00000000000000000 0.00000000000000022 -1.00000000000000000 0.00000000000000000 1.00000000000000000 0.00000000000000022 1.00000000000000000 -0.00000000000000000 0.00000000000000000 
1 -11.50000000000000000 -7.99999999999998401 -72.00000000000000000 -1.00000000000000000 0.00000000000000000 0.00000000000000000 0.00000000000000000 -0.00000000000000022 1.00000000000000000 0.00000000000000000 1.00000000000000000 0.00000000000000022 
1 -11.50000000000000000 -8.00000000000000000 -0.30000000000000177 0.00000000000000000 1.00000000000000000 0.00000000000000000 1.00000000000000000 0.00000000000000000 0.00000000000000000 0.00000000000000000 0.00000000000000000 -1.00000000000000000 
1 -11.19999999999999929 -7.99999999999998401 -72.00000000000000000 0.00000000000000000 1.00000000000000000 0.00000000000000022 0.00000000000000000 -0.00000000000000022 1.00000000000000000 1.00000000000000000 0.00000000000000000 -0.00000000000000000 
Triangulations 0

TShapes 147
Ve
0.001000000000000
11.500000000000000 -8.000000000000000 -0.400000000000002
0 0

0101101
*
Ve
0.001000000000000
11.500000000000000 -7.999999999999984 -72.000000000000000
0 0

0101101
*
Ed
 0.001000000000000 1 1 0
1  1 0 0.400000000000000 72.000000000000000
0

0101000
+147 11 -146 11 *
Ve
0.001000500001000
11.500000000000000 -52.000000000000000 -72.000000000000014
0 0

0101101
*
Ed
 0.001000000000000 1 1 0
1  2 0 0.000000000000000 44.000000000000014
0

0101000
+146 11 -144 11 *
Ve
0.001000500001000
11.500000000000000 -52.000000000000000 -0.400000000000011
0 0

0101101
*
Ed
 0.001000050000000 1 1 0
1  3 0 10.531002000000008 82.131001999999995
0

0101000
+142 12 -144 12 *
Ed
 0.001000000000000 1 1 0
1  4 0 0.000000000000000 44.000000000000000
2  1 2 0 0.000000000000000 44.000000000000000
4 G1 1 0 2 0
0

0101000
+147 11 -142 11 *
Wi

0101100
-145 9 -143 9 +141 0 +140 9 *
Ve
0.001000000000007
11.500000000000000 -43.300000000000011 -61.999999999999972
0 0

0101101
*
Ed
 0.001000000000000 1 1 0
1  5 0 0.000000000000000 6.283185307179586
2  2 3 0 0.000000000000000 6.283185307179586
0

0101100
+138 14 -138 14 *
Wi

0101100
-137 13 *
Ve
0.001000000000007
11.500000000000000 -13.300000000000011 -61.999999999999979
0 0

0101101
*
Ed
 0.001000000000000 1 1 0
1  6 0 0.000000000000000 6.283185307179586
2  3 4 0 0.000000000000000 6.283185307179586
0

0101100
+135 14 -135 14 *
Wi

0101100
-134 13 *
Fa
0  0.001000000000000 1 9

0111000
+139 0 +136 0 +133 0 *
Ve
0.001000000000000
11.199999999999999 -7.999999999999984 -72.000000000000000
0 0

0101101
*
Ed
 0.000000100000000 1 1 0
1  7 0 0.000000000000000 1.000000000000000
0

0101000
+146 11 -131 11 *
Ve
0.001000000000000
11.199999999999999 -8.000000000000000 -0.400000000000002
0 0

0101101
*
Ed
 0.001000000000000 1 1 0
1  8 0 0.400000000000000 72.000000000000000
0

0101000
+129 11 -131 11 *
Ed
 0.000000100000002 1 1 0
1  9 0 0.000000000000000 1.000000000000000
2  4 6 0 0.000000000000000 1.000000000000000
0

0101000
+147 11 -129 11 *
Wi

0101100
+145 0 +130 0 -128 0 -127 0 *
Fa
0  0.000000100000000 5 0

0111000
+126 0 *
Ve
0.001000500001000
11.199999999999999 -52.000000000000000 -72.000000000000014
0 0

0101101
*
Ed
 0.001000000000000 1 1 0
1  10 0 0.000000000000000 44.000000000000014
0

0101000
+131 11 -124 11 *
Ed
 0.000000550000000 1 1 0
1  11 0 343.623444014156917 343.923444014156928
0

0101000
+144 12 -124 12 *
Wi

0101100
-130 9 -123 9 +122 0 +143 9 *
Fa
0  0.000000100000000 7 9

0111000
+121 0 *
Ve
0.001000500001000
11.199999999999999 -52.000000000000000 -0.400000000000011
0 0

0101101
*
Ed
 0.001000050000000 1 1 0
1  12 0 10.531002000000008 82.131001999999995
0

0101000
+119 12 -124 12 *
Ve
0.001000500001000
11.100000000000001 -52.000000000000000 -0.300000000000011
0 0

0101101
*
Ed
 0.000000500000000 1 1 0
1  13 0 0.000000000000000 1.570796326794897
2  5 9 9 0.000000000000000 1.570796326794897
0

0101000
+117 12 -119 12 *
Ve
0.001000500001000
-11.100000000000000 -52.000000000000000 -0.300000000000012
0 0

0101101
*
Ed
 0.001000050000000 1 1 0
1  14 0 -355.073444014156905 -332.873444014156917
0

0101000
+115 12 -117 12 *
Ve
0.001000500001000
-11.199999999999999 -52.000000000000000 -0.400000000000012
0 0

0101101
*
Ed
 0.000000500000000 1 1 0
1  15 0 4.712388980384686 6.283185307179583
2  6 10 9 4.712388980384686 6.283185307179583
0

0101000
+113 12 -115 12 *
Ve
0.001000500001000
-11.199999999999999 -52.000000000000000 -72.000000000000014
0 0

0101101
*
Ed
 0.001000050000000 1 1 0
1  16 0 -46.331002000000012 25.268997999999989
0

0101000
+111 12 -113 12 *
Ve
0.001000500001000
-11.500000000000000 -52.000000000000000 -72.000000000000014
0 0

0101101
*
Ed
 0.000000550000000 1 1 0
1  17 0 355.123444014156860 355.423444014156871
0

0101000
+111 12 -109 12 *
Ve
0.001000500001000
-11.500000000000000 -52.000000000000000 -0.400000000000015
0 0

0101101
*
Ed
 0.001000050000000 1 1 0
1  18 0 -46.331002000000012 25.268997999999989
0

0101000
+109 12 -107 12 *
Ve
0.001000500001000
-11.100000000000000 -52.000000000000000 -0.000000000000012
0 0

0101101
*
Ed
 0.000000500000000 1 1 0
1  19 0 4.712388980384686 6.283185307179587
2  7 11 9 4.712388980384686 6.283185307179587
0

0101000
+107 12 -105 12 *
Ve
0.001000500001000
11.100000000000001 -52.000000000000000 -0.000000000000012
0 0

0101101
*
Ed
 0.001000050000000 1 1 0
1  20 0 -355.073444014156905 -332.873444014156917
0

0101000
+105 12 -103 12 *
Ed
 0.000000500000000 1 1 0
1  21 0 0.000000000000000 1.570796326794897
2  8 2 9 0.000000000000000 1.570796326794897
0

0101000
+103 12 -142 12 *
Wi

0101100
-141 0 -122 0 +118 0 +116 0 +114 0 +112 0 +110 0 -108 0 -106 0 -104 0 
-102 0 -101 0 *
Fa
0  0.000000500000000 8 0

0111000
+100 0 *
Ve
0.001000000000000
11.100000000000001 -8.000000000000000 -0.000000000000002
0 0

0101101
*
Ed
 0.000000100000000 1 1 0
1  22 0 0.000000000000000 1.570796326794897
2  9 2 0 0.000000000000000 1.570796326794897
2  10 6 0 0.000000000000000 1.570796326794897
0

0101000
+98 11 -147 11 *
Ed
 0.001000000000000 1 1 0
1  23 0 0.000000000000000 44.000000000000000
2  11 2 0 0.000000000000000 44.000000000000000
4 G1 2 0 12 0
0

0101000
+98 11 -103 11 *
Wi

0101100
-97 9 -140 9 +101 0 +96 9 *
Fa
0  0.000000100000000 2 9

0111000
+95 0 *
Ve
0.001000000000010
11.200000000000003 -43.300000000000011 -61.999999999999979
0 0

0101101
*
Ed
 0.000000100000000 1 1 0
1  24 0 115.105020832511769 115.405020832511767
3  12 13CN 3 0 115.105020832511769 115.405020832511767
0

0101000
+138 14 -93 14 *
Ed
 0.001000000000000 1 1 0
1  25 0 0.000000000000000 6.283185307179586
2  14 3 0 0.000000000000000 6.283185307179586
0

0101100
+93 14 -93 14 *
Wi

0101100
-137 0 -92 0 +91 0 +92 0 *
Fa
0  0.000000100000000 3 0

0111000
+90 0 *
Ve
0.001000000000014
11.200000000000003 -13.300000000000011 -61.999999999999986
0 0

0101101
*
Ed
 0.000000100000000 1 1 0
1  26 0 115.105020832511769 115.405020832511767
3  15 16CN 4 0 115.105020832511769 115.405020832511767
0

0101000
+135 14 -88 14 *
Ed
 0.001000000000000 1 1 0
1  27 0 0.000000000000000 6.283185307179586
2  17 4 0 0.000000000000000 6.283185307179586
0

0101100
+88 14 -88 14 *
Wi

0101100
-134 0 -87 0 +86 0 +87 0 *
Fa
0  0.000000100000000 4 0

0111000
+85 0 *
Ed
 0.001000000000000 1 1 0
1  28 0 0.000000000000000 44.000000000000000
2  18 9 0 0.000000000000000 44.000000000000000
0

0101000
+129 11 -119 11 *
Wi

0101100
-128 9 -123 9 +118 0 +83 9 *
Wi

0101100
-91 13 *
Wi

0101100
-86 13 *
Fa
0  0.001000000000000 13 9

0111000
+82 0 +81 0 +80 0 *
Ve
0.001000000000001
11.100000000000001 -8.000000000000000 -0.300000000000002
0 0

0101101
*
Ed
 0.000000100000000 1 1 0
1  29 0 0.000000000000000 1.570796326794897
2  19 6 0 0.000000000000000 1.570796326794897
2  9 9 0 0.000000000000000 1.570796326794897
0

0101000
+78 11 -129 11 *
Ed
 0.000000100000002 1 1 0
1  30 0 0.000000000000000 1.000000000000000
2  20 6 0 0.000000000000000 1.000000000000000
0

0101000
+98 11 -78 11 *
Wi

0101100
+97 0 +127 0 -77 0 -76 0 *
Fa
0  0.000000100000000 6 0

0111000
+75 0 *
Ed
 0.001000000000000 1 1 0
1  31 0 0.000000000000000 44.000000000000000
2  11 9 0 0.000000000000000 44.000000000000000
0

0101000
+78 11 -117 11 *
Wi

0101100
-77 9 -83 9 +116 0 +73 9 *
Fa
0  0.000000100000000 9 9

0111000
+72 0 *
Ve
0.001000000000000
-11.100000000000000 -8.000000000000000 -0.300000000000002
0 0

0101101
*
Ed
 0.001000000000000 1 1 0
1  32 0 0.400000000000000 22.600000000000001
0

0101000
+70 11 -78 11 *
Ed
 0.001000000000000 1 1 0
1  33 0 0.000000000000000 44.000000000000000
2  21 10 0 0.000000000000000 44.000000000000000
0

0101000
+70 11 -115 11 *
Wi

0101100
-69 15 +68 15 -73 15 +114 4 *
Ve
0.001000000000000
1.700000000000007 -33.212074235133215 -0.300000000000007
0 0

0101101
*
Ed
 0.001000000000000 1 1 0
1  34 0 0.000000000000000 6.283185307179586
2  22 15 17 0.000000000000000 6.283185307179586
0

0101100
+66 18 -66 18 *
Wi

0101100
+65 0 *
Fa
0  0.001000000000000 14 15

0111000
+67 0 +64 0 *
Ve
0.001000000000002
-11.199999999999999 -8.000000000000000 -0.400000000000004
0 0

0101101
*
Ed
 0.000000100000002 1 1 0
1  35 0 4.712388980384686 6.283185307179586
2  23 10 0 4.712388980384686 6.283185307179586
2  24 16 0 4.712388980384686 6.283185307179586
0

0101000
+62 11 -70 11 *
Ed
 0.001000000000000 1 1 0
1  36 0 0.000000000000000 44.000000000000000
2  25 10 0 0.000000000000000 44.000000000000000
0

0101000
+62 11 -113 11 *
Wi

0101100
-61 9 -68 9 +112 0 +60 9 *
Fa
0  0.000000100000002 10 9

0111000
+59 0 *
Ve
0.001000000000000
-11.199999999999999 -7.999999999999984 -72.000000000000000
0 0

0101101
*
Ed
 0.001000000000000 1 1 0
1  37 0 0.000000000000000 71.599999999999994
0

0101000
+57 11 -62 11 *
Ed
 0.001000000000000 1 1 0
1  38 0 0.000000000000000 44.000000000000014
0

0101000
+57 11 -111 11 *
Wi

0101100
-56 9 -60 9 +110 0 +55 9 *
Ve
0.001000000000010
-11.199999999999989 -43.300000000000011 -61.999999999999979
0 0

0101101
*
Ed
 0.001000000000000 1 1 0
1  39 0 0.000000000000000 6.283185307179586
2  26 18 0 0.000000000000000 6.283185307179586
0

0101100
+53 14 -53 14 *
Wi

0101100
+52 13 *
Ve
0.001000000000014
-11.199999999999989 -13.300000000000006 -61.999999999999986
0 0

0101101
*
Ed
 0.001000000000000 1 1 0
1  40 0 0.000000000000000 6.283185307179586
2  27 19 0 0.000000000000000 6.283185307179586
0

0101100
+50 14 -50 14 *
Wi

0101100
+49 13 *
Fa
0  0.001000000000000 17 9

0111000
+54 0 +51 0 +48 0 *
Ve
0.001000000000000
-11.500000000000000 -7.999999999999984 -72.000000000000000
0 0

0101101
*
Ed
 0.001000000000000 1 1 0
1  41 0 0.000000000000000 44.000000000000014
0

0101000
+46 11 -109 11 *
Ed
 0.000000100000000 1 1 0
1  42 0 0.000000000000000 1.000000000000000
0

0101000
+46 11 -57 11 *
Wi

0101100
-45 9 +108 0 +55 9 +44 9 *
Fa
0  0.000000100000000 20 9

0111000
+43 0 *
Ve
0.001000000000000
-11.500000000000000 -8.000000000000000 -0.400000000000006
0 0

0101101
*
Ed
 0.001000000000000 1 1 0
1  43 0 0.000000000000000 71.599999999999994
0

0101000
+46 11 -41 11 *
Ed
 0.001000000000000 1 1 0
1  44 0 0.000000000000000 44.000000000000000
2  25 11 0 0.000000000000000 44.000000000000000
4 G1 21 0 11 0
0

0101000
+41 11 -107 11 *
Wi

0101100
-40 9 -39 9 +106 0 +45 9 *
Ve
0.001000000000010
-11.500000000000000 -43.300000000000011 -61.999999999999979
0 0

0101101
*
Ed
 0.001000000000000 1 1 0
1  45 0 0.000000000000000 6.283185307179586
2  28 18 0 0.000000000000000 6.283185307179586
0

0101100
+37 14 -37 14 *
Wi

0101100
+36 13 *
Ve
0.001000000000014
-11.500000000000000 -13.300000000000006 -61.999999999999986
0 0

0101101
*
Ed
 0.001000000000000 1 1 0
1  46 0 0.000000000000000 6.283185307179586
2  29 19 0 0.000000000000000 6.283185307179586
0

0101100
+34 14 -34 14 *
Wi

0101100
+33 13 *
Fa
0  0.001000000000000 21 9

0111000
+38 0 +35 0 +32 0 *
Ve
0.001000000000000
-11.100000000000000 -8.000000000000000 -0.000000000000002
0 0

0101101
*
Ed
 0.000000100000002 1 1 0
1  47 0 4.712388980384686 6.283185307179586
2  23 11 0 4.712388980384686 6.283185307179586
2  30 16 0 4.712388980384686 6.283185307179586
0

0101000
+41 11 -30 11 *
Ed
 0.001000000000000 1 1 0
1  48 0 0.000000000000000 44.000000000000000
2  31 11 0 0.000000000000000 44.000000000000000
4 G1 11 0 12 0
0

0101000
+30 11 -105 11 *
Wi

0101100
-29 9 -28 9 +104 0 +39 9 *
Fa
0  0.000000100000002 11 9

0111000
+27 0 *
Ed
 0.001000000000000 1 1 0
1  49 0 0.400000000000000 22.600000000000001
0

0101000
+30 11 -98 11 *
Wi

0101100
-25 15 +28 15 -96 15 +102 4 *
Ve
0.001000000000008
1.700000000000007 -33.212074235133215 0.000000000000000
0 0

0101101
*
Ed
 0.001000000000008 1 1 0
1  50 0 0.000000000000000 6.283185307179586
2  32 15 0 0.000000000000000 6.283185307179586
0

0101000
+23 19 -23 19 *
Wi

0101100
-22 17 *
Fa
0  0.001000000000000 12 15

0111000
+24 0 +21 0 *
Ed
 0.000000100000002 1 1 0
1  51 0 0.000000000000000 1.000000000000000
2  33 16 0 0.000000000000000 1.000000000000000
0

0101000
+30 11 -70 11 *
Wi

0101100
+25 0 +76 0 -69 0 -19 0 *
Fa
0  0.000000100000000 22 0

0111000
+18 0 *
Ed
 0.000000100000000 1 1 0
1  52 0 0.000000000000000 0.300000000000007
3  34 35CN 15 0 0.000000000000000 0.300000000000007
0

0101000
+23 19 -66 19 *
Wi

0101100
-16 17 +65 0 +16 17 +22 17 *
Fa
0  0.000000100000000 15 17

0111000
+15 0 *
Ed
 0.000000100000004 1 1 0
1  53 0 0.000000000000000 1.000000000000000
2  36 16 0 0.000000000000000 1.000000000000000
0

0101000
+41 11 -62 11 *
Wi

0101100
+29 0 +19 0 -61 0 -13 0 *
Fa
0  0.000000100000000 16 0

0111000
+12 0 *
Wi

0101100
+40 0 +13 0 -56 0 -44 0 *
Fa
0  0.000000100000000 23 0

0111000
+10 0 *
Ed
 0.000000100000000 1 1 0
1  54 0 137.805020832511758 138.105020832511769
3  12 13CN 18 0 137.805020832511758 138.105020832511769
0

0101000
+53 14 -37 14 *
Wi

0101100
-52 0 -8 0 +36 0 +8 0 *
Fa
0  0.000000100000000 18 0

0111000
+7 0 *
Ed
 0.000000100000000 1 1 0
1  55 0 137.805020832511758 138.105020832511769
3  15 16CN 19 0 137.805020832511758 138.105020832511769
0

0101000
+50 14 -34 14 *
Wi

0101100
-49 0 -5 0 +33 0 +5 0 *
Fa
0  0.000000100000000 19 0

0111000
+4 0 *
Sh

0101100
+132 4 +125 15 +120 4 +99 4 +94 4 -89 16 -84 16 -79 4 +74 15 -71 4 
-63 0 -58 4 -47 4 +42 4 +31 4 +26 4 +20 0 +17 15 +14 0 +11 15 
+9 15 -6 16 -3 16 *
So

1100000
+2 0 *

+1 1 