
CASCADE Topology V1, (c) Matra-Datavision
Locations 51
1
1.000000000000000 0.000000000000000 0.000000000000000 0.000000000000000 
0.000000000000000 1.000000000000000 0.000000000000000 0.000000000000000 
0.000000000000000 0.000000000000000 1.000000000000000 0.000000000000000 
1
1.000000000000000 0.000000000000000 0.000000000000000 0.000000000000000 
0.000000000000000 1.000000000000000 0.000000000000000 0.000000000000000 
0.000000000000000 0.000000000000000 1.000000000000000 0.000000000000000 
1
1.000000000000000 0.000000000000000 0.000000000000000 0.000000000000000 
0.000000000000000 1.000000000000000 0.000000000000000 0.000000000000000 
0.000000000000000 0.000000000000000 1.000000000000000 0.000000000000000 
1
1.000000000000000 0.000000000000000 0.000000000000000 0.000000000000000 
0.000000000000000 1.000000000000000 0.000000000000000 0.000000000000000 
0.000000000000000 0.000000000000000 1.000000000000000 0.000000000000000 
1
1.000000000000000 0.000000000000000 0.000000000000000 0.000000000000000 
0.000000000000000 1.000000000000000 0.000000000000000 0.000000000000000 
0.000000000000000 0.000000000000000 1.000000000000000 0.000000000000000 
1
1.000000000000000 0.000000000000000 0.000000000000000 0.000000000000000 
0.000000000000000 1.000000000000000 0.000000000000000 0.000000000000000 
0.000000000000000 0.000000000000000 1.000000000000000 0.000000000000000 
1
1.000000000000000 0.000000000000000 0.000000000000000 0.000000000000000 
0.000000000000000 1.000000000000000 0.000000000000000 0.000000000000000 
0.000000000000000 0.000000000000000 1.000000000000000 0.000000000000000 
2  2 1 3 -1 4 1 5 -1 6 1 7 -1 0
1
1.000000000000000 0.000000000000000 0.000000000000000 0.000000000000000 
0.000000000000000 1.000000000000000 0.000000000000000 0.000000000000000 
0.000000000000000 0.000000000000000 1.000000000000000 0.000000000000000 
1
1.000000000000000 0.000000000000000 0.000000000000000 0.000000000000000 
0.000000000000000 1.000000000000000 0.000000000000000 0.000000000000000 
0.000000000000000 0.000000000000000 1.000000000000000 0.000000000000000 
1
1.000000000000000 0.000000000000000 0.000000000000000 0.000000000000000 
0.000000000000000 1.000000000000000 0.000000000000000 0.000000000000000 
0.000000000000000 0.000000000000000 1.000000000000000 0.000000000000000 
2  9 1 10 1 11 -1 0
1
1.000000000000000 0.000000000000000 0.000000000000000 0.000000000000000 
0.000000000000000 1.000000000000000 0.000000000000000 0.000000000000000 
0.000000000000000 0.000000000000000 1.000000000000000 18.000000000000000 
2  9 1 10 1 11 -1 13 1 0
2  11 1 10 -1 9 -1 0
2  13 -1 11 1 10 -1 9 -1 0
2  9 1 10 1 11 -1 2 1 3 -1 4 1 5 -1 6 1 7 -1 0
1
1.000000000000000 0.000000000000000 0.000000000000000 -38.542500000000004 
0.000000000000000 1.000000000000000 0.000000000000000 -28.043324969126264 
0.000000000000000 0.000000000000000 1.000000000000000 18.000000000000000 
1
1.000000000000000 0.000000000000000 0.000000000000000 -43.204999999999998 
0.000000000000000 1.000000000000000 0.000000000000000 20.131576107575491 
0.000000000000000 0.000000000000000 1.000000000000000 18.000000000000000 
2  6 1 7 -1 0
2  9 1 10 1 11 -1 2 1 3 -1 4 1 5 -1 0
1
1.000000000000000 0.000000000000000 0.000000000000000 38.542500000000004 
0.000000000000000 1.000000000000000 0.000000000000000 -28.043324969126264 
0.000000000000000 0.000000000000000 1.000000000000000 18.000000000000000 
1
1.000000000000000 0.000000000000000 0.000000000000000 43.204999999999998 
0.000000000000000 1.000000000000000 0.000000000000000 20.131576107575491 
0.000000000000000 0.000000000000000 1.000000000000000 18.000000000000000 
2  4 1 5 -1 6 1 7 -1 0
2  9 1 10 1 11 -1 2 1 3 -1 0
1
1.000000000000000 0.000000000000000 0.000000000000000 -22.500000000000004 
0.000000000000000 1.000000000000000 0.000000000000000 136.000000000000000 
0.000000000000000 0.000000000000000 1.000000000000000 18.000000000000000 
1
1.000000000000000 0.000000000000000 0.000000000000000 -22.499999999999996 
0.000000000000000 1.000000000000000 0.000000000000000 161.000000000000000 
0.000000000000000 0.000000000000000 1.000000000000000 18.000000000000000 
1
1.000000000000000 0.000000000000000 0.000000000000000 22.499999999999996 
0.000000000000000 1.000000000000000 0.000000000000000 136.000000000000000 
0.000000000000000 0.000000000000000 1.000000000000000 18.000000000000000 
1
1.000000000000000 0.000000000000000 0.000000000000000 22.500000000000004 
0.000000000000000 1.000000000000000 0.000000000000000 161.000000000000000 
0.000000000000000 0.000000000000000 1.000000000000000 18.000000000000000 
2  9 1 10 1 11 -1 13 1 2 1 3 -1 4 1 5 -1 6 1 7 -1 0
2  9 1 10 1 11 -1 13 1 2 1 3 -1 4 1 5 -1 6 1 7 -1 18 -1 0
2  9 1 10 1 11 -1 13 1 2 1 3 -1 4 1 5 -1 6 1 7 -1 19 -1 0
2  9 1 10 1 11 -1 13 1 2 1 3 -1 4 1 5 -1 6 1 7 -1 23 -1 0
2  9 1 10 1 11 -1 13 1 2 1 3 -1 4 1 5 -1 6 1 7 -1 22 -1 0
2  9 1 10 1 11 -1 13 1 2 1 3 -1 4 1 5 -1 0
2  26 1 4 1 5 -1 6 1 7 -1 0
2  9 1 10 1 11 -1 13 1 2 1 3 -1 27 -1 0
2  9 1 10 1 11 -1 13 1 2 1 3 -1 26 -1 0
2  9 1 10 1 11 -1 13 1 2 1 3 -1 29 -1 0
2  9 1 10 1 11 -1 13 1 2 1 3 -1 28 -1 0
2  27 1 4 1 5 -1 6 1 7 -1 0
2  28 1 4 1 5 -1 6 1 7 -1 0
2  29 1 4 1 5 -1 6 1 7 -1 0
2  18 -1 0
2  19 -1 0
2  22 -1 0
2  23 -1 0
2  26 -1 0
2  27 -1 0
2  28 -1 0
2  29 -1 0
Curve2ds 146
1 6.84773629520138982 0.00000000000000000 0.00000000000000000 -1.00000000000000000 
1 0.56455098802180270 0.00000000000000000 0.00000000000000000 -1.00000000000000000 
1 7.50891659728787708 0.00000000000000000 0.00000000000000000 -1.00000000000000000 
1 1.22573129010829085 0.00000000000000000 0.00000000000000000 -1.00000000000000000 
1 0.00000000000000000 0.00000000000000000 1.00000000000000000 0.00000000000000000 
1 0.00000000000000000 -18.00000000000000000 1.00000000000000000 0.00000000000000000 
2 255.70454913011639064 161.93962032611540280 1.00000000000000000 0.00000000000000000 -0.00000000000000000 1.00000000000000000 46.50000000000000000
1 -6.28318530717958623 -18.00000000000000000 1.00000000000000000 0.00000000000000000 
1 -6.28318530717958623 0.00000000000000000 1.00000000000000000 0.00000000000000000 
2 -0.00000000000001316 0.00000000000002677 1.00000000000000000 0.00000000000000000 -0.00000000000000000 1.00000000000000000 349.17021174407386752
1 0.00000000000000000 0.00000000000000000 1.00000000000000000 0.00000000000000000 
1 0.00000000000000000 -18.00000000000000000 1.00000000000000000 0.00000000000000000 
1 7.33038285837618453 0.00000000000000000 -1.00000000000000000 0.00000000000000000 
1 7.33038285837618453 -18.00000000000000000 -1.00000000000000000 0.00000000000000000 
2 0.00000000000000816 0.00000000000012625 0.50000000000000033 0.86602540378443860 0.86602540378443860 -0.50000000000000033 349.17021174407392436
1 6.84773629520138893 0.00000000000000000 0.00000000000000000 -1.00000000000000000 
1 6.84773629520138893 0.00000000000000000 0.00000000000000000 -1.00000000000000000 
1 0.48264656317479498 0.00000000000000000 0.00000000000000000 -1.00000000000000000 
1 1.22573129010829085 0.00000000000000000 0.00000000000000000 -1.00000000000000000 
1 7.50891659728787708 0.00000000000000000 0.00000000000000000 -1.00000000000000000 
1 1.91586136348150249 0.00000000000000000 0.00000000000000000 -1.00000000000000000 
1 0.00000000000000000 0.00000000000000000 1.00000000000000000 0.00000000000000000 
1 0.00000000000000000 -18.00000000000000000 1.00000000000000000 0.00000000000000000 
1 3.14159265358979312 0.00000000000000000 -1.00000000000000000 0.00000000000000000 
1 3.14159265358979312 -18.00000000000000000 -1.00000000000000000 0.00000000000000000 
2 -0.00000000000001316 -549.44557738923845136 -1.00000000000000000 0.00000000000000000 0.00000000000000000 1.00000000000000000 802.44557738923845136
1 0.00000000000000000 0.00000000000000000 1.00000000000000000 0.00000000000000000 
1 0.00000000000000000 -18.00000000000000000 1.00000000000000000 0.00000000000000000 
2 -0.00000000000001316 -549.44557738923845136 1.00000000000000000 0.00000000000000000 -0.00000000000000000 1.00000000000000000 802.44557738923845136
1 0.00000000000000000 0.00000000000000000 1.00000000000000000 0.00000000000000000 
1 0.00000000000000000 -18.00000000000000000 1.00000000000000000 0.00000000000000000 
2 268.09609964668106841 140.47682524686925376 0.50000000000000033 0.86602540378443860 0.86602540378443860 -0.50000000000000033 46.50000000000000000
1 0.00000000000000000 0.00000000000000000 1.00000000000000000 0.00000000000000000 
1 0.00000000000000000 -18.00000000000000000 1.00000000000000000 0.00000000000000000 
1 3.14159265358979312 -0.00000000000000000 -1.00000000000000000 0.00000000000000000 
1 3.14159265358979312 -18.00000000000000000 -1.00000000000000000 0.00000000000000000 
2 -475.83382801608922819 274.72278869461950990 0.50000000000000033 0.86602540378443860 0.86602540378443860 -0.50000000000000033 802.44557738923845136
1 0.00000000000000000 0.00000000000000000 1.00000000000000000 0.00000000000000000 
1 0.00000000000000000 -18.00000000000000000 1.00000000000000000 0.00000000000000000 
2 -475.83382801608922819 274.72278869461950990 -0.50000000000000033 -0.86602540378443860 0.86602540378443860 -0.50000000000000033 802.44557738923867873
1 0.00000000000000000 0.00000000000000000 1.00000000000000000 0.00000000000000000 
1 0.00000000000000000 -18.00000000000000000 1.00000000000000000 0.00000000000000000 
2 -255.70454913011639064 161.93962032611540280 -1.00000000000000000 0.00000000000000000 0.00000000000000000 1.00000000000000000 46.50000000000000000
1 0.00000000000000000 0.00000000000000000 1.00000000000000000 0.00000000000000000 
1 0.00000000000000000 -18.00000000000000000 1.00000000000000000 0.00000000000000000 
2 12.39155051656448769 -302.41644557298451446 -0.50000000000000033 -0.86602540378443860 0.86602540378443860 -0.50000000000000033 46.50000000000002842
1 -6.28318530717958623 0.00000000000000000 1.00000000000000000 0.00000000000000000 
1 -6.28318530717958623 -18.00000000000000000 1.00000000000000000 0.00000000000000000 
2 -0.00000000000001316 0.00000000000002677 -1.00000000000000000 0.00000000000000000 0.00000000000000000 1.00000000000000000 349.17021174407386752
1 0.00000000000000000 0.00000000000000000 1.00000000000000000 0.00000000000000000 
1 0.00000000000000000 -18.00000000000000000 1.00000000000000000 0.00000000000000000 
1 7.33038285837618542 0.00000000000000000 -1.00000000000000000 0.00000000000000000 
1 7.33038285837618542 -18.00000000000000000 -1.00000000000000000 0.00000000000000000 
2 0.00000000000000816 0.00000000000012625 -0.50000000000000033 -0.86602540378443860 0.86602540378443860 -0.50000000000000033 349.17021174407392436
1 0.00000000000000000 0.00000000000000000 1.00000000000000000 0.00000000000000000 
1 0.00000000000000000 -18.00000000000000000 1.00000000000000000 0.00000000000000000 
1 7.33038285837618364 0.00000000000000000 -1.00000000000000000 0.00000000000000000 
1 7.33038285837618364 -18.00000000000000000 -1.00000000000000000 0.00000000000000000 
2 0.00000000000007211 -0.00000000000000165 -0.50000000000000056 0.86602540378443837 -0.86602540378443837 -0.50000000000000056 349.17021174407392436
1 -6.28318530717958623 0.00000000000000000 1.00000000000000000 0.00000000000000000 
1 -6.28318530717958623 -18.00000000000000000 1.00000000000000000 0.00000000000000000 
2 0.00000000000007211 -0.00000000000000165 0.50000000000000056 -0.86602540378443837 -0.86602540378443837 -0.50000000000000056 349.17021174407392436
1 0.00000000000000000 0.00000000000000000 1.00000000000000000 0.00000000000000000 
1 0.00000000000000000 -18.00000000000000000 1.00000000000000000 0.00000000000000000 
2 -268.09609964668106841 140.47682524686908323 -0.50000000000000056 0.86602540378443837 -0.86602540378443837 -0.50000000000000056 46.50000000000002842
1 0.00000000000000000 0.00000000000000000 1.00000000000000000 0.00000000000000000 
1 0.00000000000000000 -18.00000000000000000 1.00000000000000000 0.00000000000000000 
2 -12.39155051656429585 -302.41644557298468499 0.50000000000000056 -0.86602540378443837 -0.86602540378443837 -0.50000000000000056 46.49999999999999289
1 0.00000000000000000 0.00000000000000000 1.00000000000000000 0.00000000000000000 
1 0.00000000000000000 -18.00000000000000000 1.00000000000000000 0.00000000000000000 
2 475.83382801608934187 274.72278869461956674 -0.50000000000000056 0.86602540378443837 -0.86602540378443837 -0.50000000000000056 802.44557738923867873
1 0.00000000000000000 0.00000000000000000 1.00000000000000000 0.00000000000000000 
1 0.00000000000000000 -18.00000000000000000 1.00000000000000000 0.00000000000000000 
1 3.14159265358979312 0.00000000000000000 -1.00000000000000000 0.00000000000000000 
1 3.14159265358979312 -18.00000000000000000 -1.00000000000000000 0.00000000000000000 
2 475.83382801608934187 274.72278869461956674 0.50000000000000056 -0.86602540378443837 -0.86602540378443837 -0.50000000000000056 802.44557738923867873
2 -38.54250000000001819 -28.04332496912623540 1.00000000000000000 0.00000000000000000 0.00000000000000000 -1.00000000000000000 4.25000000000000000
1 6.28318530717958623 10.00000000000000000 -1.00000000000000000 0.00000000000000000 
2 -43.20500000000001251 20.13157610757551907 1.00000000000000000 0.00000000000000000 0.00000000000000000 -1.00000000000000000 4.25000000000000000
1 6.28318530717958623 10.00000000000000000 -1.00000000000000000 0.00000000000000000 
2 -0.00000000000001316 0.00000000000002677 1.00000000000000000 0.00000000000000000 -0.00000000000000000 1.00000000000000000 30.00000000000000000
1 0.00000000000000000 -897.75190496531763529 1.00000000000000000 0.00000000000000000 
2 38.54249999999998977 -28.04332496912623540 1.00000000000000000 0.00000000000000000 0.00000000000000000 -1.00000000000000000 4.25000000000000000
1 6.28318530717958623 10.00000000000000000 -1.00000000000000000 0.00000000000000000 
2 43.20499999999998408 20.13157610757551907 1.00000000000000000 0.00000000000000000 0.00000000000000000 -1.00000000000000000 4.25000000000000000
1 6.28318530717958623 10.00000000000000000 -1.00000000000000000 0.00000000000000000 
2 -22.50000000000001776 136.00000000000002842 1.00000000000000000 0.00000000000000000 0.00000000000000000 -1.00000000000000000 2.75000000000000000
1 6.28318530717958623 12.50000000000000000 -1.00000000000000000 0.00000000000000000 
2 -22.50000000000001066 161.00000000000002842 1.00000000000000000 0.00000000000000000 0.00000000000000000 -1.00000000000000000 2.75000000000000000
1 6.28318530717958623 12.50000000000000000 -1.00000000000000000 0.00000000000000000 
2 22.49999999999998224 136.00000000000002842 1.00000000000000000 0.00000000000000000 0.00000000000000000 -1.00000000000000000 2.75000000000000000
1 6.28318530717958623 12.50000000000000000 -1.00000000000000000 0.00000000000000000 
2 22.49999999999998934 161.00000000000002842 1.00000000000000000 0.00000000000000000 0.00000000000000000 -1.00000000000000000 2.75000000000000000
1 6.28318530717958623 12.50000000000000000 -1.00000000000000000 0.00000000000000000 
2 0.00000000000000000 0.00000000000000000 -1.00000000000000000 0.00000000000000000 0.00000000000000000 1.00000000000000000 12.50000000000000000
1 0.00000000000000000 0.00000000000000000 1.00000000000000000 0.00000000000000000 
2 -38.54250000000001819 -28.04332496912623540 1.00000000000000000 0.00000000000000000 -0.00000000000000000 1.00000000000000000 12.50000000000000000
2 -43.20500000000001251 20.13157610757551907 1.00000000000000000 0.00000000000000000 -0.00000000000000000 1.00000000000000000 12.50000000000000000
2 43.20499999999998408 20.13157610757551907 1.00000000000000000 0.00000000000000000 -0.00000000000000000 1.00000000000000000 12.50000000000000000
2 38.54249999999998977 -28.04332496912623540 1.00000000000000000 0.00000000000000000 -0.00000000000000000 1.00000000000000000 12.50000000000000000
2 -0.00000000000001316 0.00000000000002677 1.00000000000000000 0.00000000000000000 -0.00000000000000000 1.00000000000000000 30.00000000000000000
1 0.00000000000000000 -879.75190496531763529 1.00000000000000000 0.00000000000000000 
2 0.00000000000000000 0.00000000000000000 -1.00000000000000000 0.00000000000000000 0.00000000000000000 1.00000000000000000 8.00000000000000000
1 0.00000000000000000 0.00000000000000000 1.00000000000000000 0.00000000000000000 
2 -22.50000000000001066 161.00000000000002842 1.00000000000000000 0.00000000000000000 -0.00000000000000000 1.00000000000000000 8.00000000000000000
2 -22.50000000000001776 136.00000000000002842 1.00000000000000000 0.00000000000000000 -0.00000000000000000 1.00000000000000000 8.00000000000000000
2 22.49999999999998934 161.00000000000002842 1.00000000000000000 0.00000000000000000 -0.00000000000000000 1.00000000000000000 8.00000000000000000
2 22.49999999999998224 136.00000000000002842 1.00000000000000000 0.00000000000000000 -0.00000000000000000 1.00000000000000000 8.00000000000000000
1 1.22573129010829085 0.00000000000000000 0.00000000000000000 -1.00000000000000000 
1 7.50891659728787708 0.00000000000000000 0.00000000000000000 -1.00000000000000000 
1 1.91586136348150249 0.00000000000000000 0.00000000000000000 -1.00000000000000000 
1 6.84773629520138982 0.00000000000000000 0.00000000000000000 -1.00000000000000000 
1 0.56455098802180270 0.00000000000000000 0.00000000000000000 -1.00000000000000000 
1 7.50891659728787708 0.00000000000000000 0.00000000000000000 -1.00000000000000000 
1 1.22573129010829085 0.00000000000000000 0.00000000000000000 -1.00000000000000000 
1 6.84773629520138893 0.00000000000000000 0.00000000000000000 -1.00000000000000000 
1 6.84773629520138893 0.00000000000000000 0.00000000000000000 -1.00000000000000000 
1 0.48264656317479626 0.00000000000000000 0.00000000000000000 -1.00000000000000000 
1 6.84773629520138893 0.00000000000000000 0.00000000000000000 -1.00000000000000000 
1 6.84773629520138893 0.00000000000000000 0.00000000000000000 -1.00000000000000000 
1 0.48264656317479476 0.00000000000000000 0.00000000000000000 -1.00000000000000000 
1 6.84773629520138893 0.00000000000000000 0.00000000000000000 -1.00000000000000000 
1 0.56455098802180270 0.00000000000000000 0.00000000000000000 -1.00000000000000000 
1 7.50891659728787708 0.00000000000000000 0.00000000000000000 -1.00000000000000000 
1 1.22573129010829085 0.00000000000000000 0.00000000000000000 -1.00000000000000000 
1 1.22573129010829063 0.00000000000000000 0.00000000000000000 -1.00000000000000000 
1 7.50891659728787708 0.00000000000000000 0.00000000000000000 -1.00000000000000000 
1 1.91586136348150271 0.00000000000000000 0.00000000000000000 -1.00000000000000000 
1 6.28318530717958623 0.00000000000000000 0.00000000000000000 1.00000000000000000 
1 0.00000000000000000 0.00000000000000000 0.00000000000000000 1.00000000000000000 
2 0.00000000000000000 0.00000000000000000 1.00000000000000000 0.00000000000000000 -0.00000000000000000 1.00000000000000000 4.25000000000000000
1 0.00000000000000000 0.00000000000000000 1.00000000000000000 0.00000000000000000 
1 0.00000000000000000 0.00000000000000000 0.00000000000000000 -1.00000000000000000 
1 6.28318530717958623 0.00000000000000000 0.00000000000000000 -1.00000000000000000 
1 6.28318530717958623 0.00000000000000000 0.00000000000000000 1.00000000000000000 
1 0.00000000000000000 0.00000000000000000 0.00000000000000000 1.00000000000000000 
2 0.00000000000000000 0.00000000000000000 1.00000000000000000 0.00000000000000000 -0.00000000000000000 1.00000000000000000 2.75000000000000000
1 0.00000000000000000 0.00000000000000000 1.00000000000000000 0.00000000000000000 
1 0.00000000000000000 8.00000000000000000 1.00000000000000000 0.00000000000000000 
2 0.00000000000000000 0.00000000000000000 1.00000000000000000 0.00000000000000000 -0.00000000000000000 1.00000000000000000 12.50000000000000000
1 6.28318530717958623 0.00000000000000000 0.00000000000000000 1.00000000000000000 
1 0.00000000000000000 0.00000000000000000 0.00000000000000000 1.00000000000000000 
1 0.00000000000000000 5.50000000000000000 1.00000000000000000 0.00000000000000000 
2 0.00000000000000000 0.00000000000000000 1.00000000000000000 0.00000000000000000 -0.00000000000000000 1.00000000000000000 8.00000000000000000
1 6.28318530717958623 0.00000000000000000 0.00000000000000000 1.00000000000000000 
1 0.00000000000000000 0.00000000000000000 0.00000000000000000 1.00000000000000000 
Curves 51
1 294.98909406777409004 186.81881904796244953 0.00000000000000000 0.00000000000000000 0.00000000000000000 1.00000000000000000 
1 271.43354059483937135 205.69860600337565870 0.00000000000000000 0.00000000000000000 0.00000000000000000 1.00000000000000000 
2 255.70454913011639064 161.93962032611537438 0.00000000000000000 0.00000000000000000 -0.00000000000000000 1.00000000000000000 1.00000000000000000 0.00000000000000000 0.00000000000000000 -0.00000000000000000 1.00000000000000000 0.00000000000000000 46.50000000000000000
2 0.00000000000000000 0.00000000000000000 0.00000000000000000 0.00000000000000000 -0.00000000000000000 1.00000000000000000 1.00000000000000000 0.00000000000000000 0.00000000000000000 -0.00000000000000000 1.00000000000000000 0.00000000000000000 349.17021174407386752
2 0.00000000000002132 0.00000000000009948 0.00000000000000000 0.00000000000000000 0.00000000000000000 -1.00000000000000000 0.50000000000000033 0.86602540378443860 0.00000000000000000 0.86602540378443860 -0.50000000000000033 0.00000000000000000 349.17021174407386752
1 309.28439023443081624 162.05863977806851040 0.00000000000000000 0.00000000000000000 0.00000000000000000 1.00000000000000000 
1 -271.43354059483942819 205.69860600337551659 0.00000000000000000 0.00000000000000000 0.00000000000000000 1.00000000000000000 
2 0.00000000000000000 -549.44557738923845136 0.00000000000000000 0.00000000000000000 0.00000000000000000 -1.00000000000000000 -1.00000000000000000 0.00000000000000000 0.00000000000000000 0.00000000000000000 1.00000000000000000 0.00000000000000000 802.44557738923845136
2 0.00000000000000000 -549.44557738923845136 0.00000000000000000 0.00000000000000000 -0.00000000000000000 1.00000000000000000 1.00000000000000000 0.00000000000000000 0.00000000000000000 -0.00000000000000000 1.00000000000000000 0.00000000000000000 802.44557738923845136
2 268.09609964668106841 140.47682524686922534 0.00000000000000000 0.00000000000000000 0.00000000000000000 -1.00000000000000000 0.50000000000000033 0.86602540378443860 0.00000000000000000 0.86602540378443860 -0.50000000000000033 0.00000000000000000 46.49999999999999289
2 -475.83382801608922819 274.72278869461950990 0.00000000000000000 0.00000000000000000 0.00000000000000000 -1.00000000000000000 0.50000000000000033 0.86602540378443860 0.00000000000000000 0.86602540378443860 -0.50000000000000033 0.00000000000000000 802.44557738923845136
2 -475.83382801608922819 274.72278869461950990 0.00000000000000000 0.00000000000000000 0.00000000000000000 1.00000000000000000 -0.50000000000000033 -0.86602540378443860 0.00000000000000000 0.86602540378443860 -0.50000000000000033 0.00000000000000000 802.44557738923856505
2 -255.70454913011639064 161.93962032611537438 0.00000000000000000 0.00000000000000000 0.00000000000000000 -1.00000000000000000 -1.00000000000000000 0.00000000000000000 0.00000000000000000 0.00000000000000000 1.00000000000000000 0.00000000000000000 46.50000000000000000
2 12.39155051656450013 -302.41644557298451446 0.00000000000000000 0.00000000000000000 0.00000000000000000 1.00000000000000000 -0.50000000000000033 -0.86602540378443860 0.00000000000000000 0.86602540378443860 -0.50000000000000033 0.00000000000000000 46.50000000000000000
2 0.00000000000000000 0.00000000000000000 0.00000000000000000 0.00000000000000000 0.00000000000000000 -1.00000000000000000 -1.00000000000000000 0.00000000000000000 0.00000000000000000 0.00000000000000000 1.00000000000000000 0.00000000000000000 349.17021174407386752
2 0.00000000000002132 0.00000000000009948 0.00000000000000000 0.00000000000000000 0.00000000000000000 1.00000000000000000 -0.50000000000000033 -0.86602540378443860 0.00000000000000000 0.86602540378443860 -0.50000000000000033 0.00000000000000000 349.17021174407386752
2 0.00000000000008527 -0.00000000000002842 0.00000000000000000 0.00000000000000000 0.00000000000000000 1.00000000000000000 -0.50000000000000056 0.86602540378443837 0.00000000000000000 -0.86602540378443837 -0.50000000000000056 0.00000000000000000 349.17021174407392436
2 0.00000000000008527 -0.00000000000002842 0.00000000000000000 -0.00000000000000000 0.00000000000000000 -1.00000000000000000 0.50000000000000056 -0.86602540378443837 -0.00000000000000000 -0.86602540378443837 -0.50000000000000056 0.00000000000000000 349.17021174407392436
2 -268.09609964668106841 140.47682524686905481 0.00000000000000000 0.00000000000000000 0.00000000000000000 1.00000000000000000 -0.50000000000000056 0.86602540378443837 0.00000000000000000 -0.86602540378443837 -0.50000000000000056 0.00000000000000000 46.50000000000002132
2 -12.39155051656428341 -302.41644557298468499 0.00000000000000000 -0.00000000000000000 0.00000000000000000 -1.00000000000000000 0.50000000000000056 -0.86602540378443837 -0.00000000000000000 -0.86602540378443837 -0.50000000000000056 0.00000000000000000 46.50000000000000711
2 475.83382801608934187 274.72278869461956674 0.00000000000000000 0.00000000000000000 0.00000000000000000 1.00000000000000000 -0.50000000000000056 0.86602540378443837 0.00000000000000000 -0.86602540378443837 -0.50000000000000056 0.00000000000000000 802.44557738923867873
2 475.83382801608934187 274.72278869461956674 0.00000000000000000 -0.00000000000000000 0.00000000000000000 -1.00000000000000000 0.50000000000000056 -0.86602540378443837 -0.00000000000000000 -0.86602540378443837 -0.50000000000000056 0.00000000000000000 802.44557738923867873
2 -38.54250000000000398 -28.04332496912626382 0.00000000000000000 0.00000000000000000 0.00000000000000000 -1.00000000000000000 1.00000000000000000 0.00000000000000000 0.00000000000000000 0.00000000000000000 -1.00000000000000000 0.00000000000000000 4.25000000000000000
2 -43.20499999999999829 20.13157610757549065 0.00000000000000000 0.00000000000000000 0.00000000000000000 -1.00000000000000000 1.00000000000000000 0.00000000000000000 0.00000000000000000 0.00000000000000000 -1.00000000000000000 0.00000000000000000 4.25000000000000000
2 0.00000000000000000 0.00000000000000000 0.00000000000000000 0.00000000000000000 0.00000000000000000 1.00000000000000000 1.00000000000000000 0.00000000000000000 -0.00000000000000000 -0.00000000000000000 1.00000000000000000 0.00000000000000000 30.00000000000000000
2 38.54250000000000398 -28.04332496912626382 0.00000000000000000 0.00000000000000000 0.00000000000000000 -1.00000000000000000 1.00000000000000000 0.00000000000000000 0.00000000000000000 0.00000000000000000 -1.00000000000000000 0.00000000000000000 4.25000000000000000
2 43.20499999999999829 20.13157610757549065 0.00000000000000000 0.00000000000000000 0.00000000000000000 -1.00000000000000000 1.00000000000000000 0.00000000000000000 0.00000000000000000 0.00000000000000000 -1.00000000000000000 0.00000000000000000 4.25000000000000000
2 -22.50000000000000355 136.00000000000000000 0.00000000000000000 0.00000000000000000 0.00000000000000000 -1.00000000000000000 1.00000000000000000 0.00000000000000000 0.00000000000000000 0.00000000000000000 -1.00000000000000000 0.00000000000000000 2.75000000000000000
2 -22.49999999999999645 161.00000000000000000 0.00000000000000000 0.00000000000000000 0.00000000000000000 -1.00000000000000000 1.00000000000000000 0.00000000000000000 0.00000000000000000 0.00000000000000000 -1.00000000000000000 0.00000000000000000 2.75000000000000000
2 22.49999999999999645 136.00000000000000000 0.00000000000000000 0.00000000000000000 0.00000000000000000 -1.00000000000000000 1.00000000000000000 0.00000000000000000 0.00000000000000000 0.00000000000000000 -1.00000000000000000 0.00000000000000000 2.75000000000000000
2 22.50000000000000355 161.00000000000000000 0.00000000000000000 0.00000000000000000 0.00000000000000000 -1.00000000000000000 1.00000000000000000 0.00000000000000000 0.00000000000000000 0.00000000000000000 -1.00000000000000000 0.00000000000000000 2.75000000000000000
2 0.00000000000000000 0.00000000000000000 0.00000000000000000 0.00000000000000000 0.00000000000000000 1.00000000000000000 1.00000000000000000 0.00000000000000000 -0.00000000000000000 -0.00000000000000000 1.00000000000000000 0.00000000000000000 12.50000000000000000
2 0.00000000000000000 0.00000000000000000 18.00000000000000000 0.00000000000000000 0.00000000000000000 1.00000000000000000 1.00000000000000000 0.00000000000000000 -0.00000000000000000 -0.00000000000000000 1.00000000000000000 0.00000000000000000 30.00000000000000000
2 0.00000000000000000 0.00000000000000000 0.00000000000000000 0.00000000000000000 0.00000000000000000 1.00000000000000000 1.00000000000000000 0.00000000000000000 -0.00000000000000000 -0.00000000000000000 1.00000000000000000 0.00000000000000000 8.00000000000000000
1 313.85698861938919890 132.21903859259791147 0.00000000000000000 0.00000000000000000 0.00000000000000000 1.00000000000000000 
1 -294.98909406777397635 186.81881904796253480 0.00000000000000000 0.00000000000000000 0.00000000000000000 1.00000000000000000 
1 42.42344802454981334 -337.91764459597339965 0.00000000000000000 0.00000000000000000 0.00000000000000000 1.00000000000000000 
1 14.29529616665654856 -348.87745882603098835 0.00000000000000000 0.00000000000000000 0.00000000000000000 1.00000000000000000 
1 -309.28439023443070255 162.05863977806836829 0.00000000000000000 0.00000000000000000 0.00000000000000000 1.00000000000000000 
1 -14.29529616665639580 -348.87745882603110203 0.00000000000000000 0.00000000000000000 0.00000000000000000 1.00000000000000000 
1 -313.85698861938936943 132.21903859259759884 0.00000000000000000 0.00000000000000000 0.00000000000000000 1.00000000000000000 
1 -42.42344802454931596 -337.91764459597379755 0.00000000000000000 0.00000000000000000 0.00000000000000000 1.00000000000000000 
1 4.25000000000000000 0.00000000000000000 -8.00000000000000000 -0.00000000000000006 0.00000000000000000 -1.00000000000000000 
2 0.00000000000000000 0.00000000000000000 -8.00000000000000000 0.00000000000000000 0.00000000000000000 1.00000000000000000 1.00000000000000000 0.00000000000000000 -0.00000000000000000 -0.00000000000000000 1.00000000000000000 0.00000000000000000 4.25000000000000000
1 30.00000000000000000 0.00000000000000000 897.75190496531763529 -0.00000000000000000 -0.00000000000000000 -1.00000000000000000 
1 2.75000000000000000 0.00000000000000000 -5.50000000000000000 -0.00000000000000006 0.00000000000000000 -1.00000000000000000 
2 0.00000000000000000 0.00000000000000000 -5.50000000000000000 0.00000000000000000 0.00000000000000000 1.00000000000000000 1.00000000000000000 0.00000000000000000 -0.00000000000000000 -0.00000000000000000 1.00000000000000000 0.00000000000000000 2.75000000000000000
2 0.00000000000000000 0.00000000000000000 -8.00000000000000000 0.00000000000000000 0.00000000000000000 1.00000000000000000 1.00000000000000000 0.00000000000000000 -0.00000000000000000 -0.00000000000000000 1.00000000000000000 0.00000000000000000 12.50000000000000000
1 12.50000000000000000 0.00000000000000000 -0.00000000000000000 0.00000000000000000 0.00000000000000000 -1.00000000000000000 
2 0.00000000000000000 0.00000000000000000 -5.50000000000000000 0.00000000000000000 0.00000000000000000 1.00000000000000000 1.00000000000000000 0.00000000000000000 -0.00000000000000000 -0.00000000000000000 1.00000000000000000 0.00000000000000000 8.00000000000000000
1 8.00000000000000000 0.00000000000000000 -0.00000000000000000 0.00000000000000000 0.00000000000000000 -1.00000000000000000 
Polygon3D 0
PolygonOnTriangulations 0
Surfaces 28
2 255.70454913011639064 161.93962032611537438 0.00000000000000000 -0.00000000000000000 -0.00000000000000000 -1.00000000000000000 1.00000000000000000 0.00000000000000000 0.00000000000000000 -0.00000000000000000 1.00000000000000000 -0.00000000000000000 46.50000000000000000
2 0.00000000000000000 0.00000000000000000 0.00000000000000000 -0.00000000000000000 -0.00000000000000000 -1.00000000000000000 1.00000000000000000 0.00000000000000000 0.00000000000000000 -0.00000000000000000 1.00000000000000000 -0.00000000000000000 349.17021174407386752
2 0.00000000000000000 -549.44557738923845136 0.00000000000000000 -0.00000000000000000 -0.00000000000000000 -1.00000000000000000 1.00000000000000000 0.00000000000000000 0.00000000000000000 -0.00000000000000000 1.00000000000000000 -0.00000000000000000 802.44557738923845136
1 0.00000000000001316 -0.00000000000002677 0.00000000000000000 0.00000000000000000 0.00000000000000000 1.00000000000000000 1.00000000000000000 0.00000000000000000 -0.00000000000000000 -0.00000000000000000 1.00000000000000000 0.00000000000000000 
2 0.00000000000002132 0.00000000000009948 0.00000000000000000 0.00000000000000000 0.00000000000000000 -1.00000000000000000 0.50000000000000033 0.86602540378443860 0.00000000000000000 0.86602540378443860 -0.50000000000000033 0.00000000000000000 349.17021174407386752
2 268.09609964668106841 140.47682524686922534 0.00000000000000000 0.00000000000000000 0.00000000000000000 -1.00000000000000000 0.50000000000000033 0.86602540378443860 0.00000000000000000 0.86602540378443860 -0.50000000000000033 0.00000000000000000 46.49999999999999289
2 0.00000000000000000 -549.44557738923845136 0.00000000000000000 0.00000000000000000 0.00000000000000000 -1.00000000000000000 -1.00000000000000000 0.00000000000000000 0.00000000000000000 0.00000000000000000 1.00000000000000000 0.00000000000000000 802.44557738923845136
2 -255.70454913011639064 161.93962032611537438 0.00000000000000000 0.00000000000000000 0.00000000000000000 -1.00000000000000000 -1.00000000000000000 0.00000000000000000 0.00000000000000000 0.00000000000000000 1.00000000000000000 0.00000000000000000 46.50000000000000000
2 -475.83382801608922819 274.72278869461950990 0.00000000000000000 0.00000000000000000 0.00000000000000000 -1.00000000000000000 0.50000000000000033 0.86602540378443860 0.00000000000000000 0.86602540378443860 -0.50000000000000033 0.00000000000000000 802.44557738923845136
2 -475.83382801608922819 274.72278869461950990 0.00000000000000000 -0.00000000000000000 -0.00000000000000000 -1.00000000000000000 -0.50000000000000033 -0.86602540378443860 0.00000000000000000 0.86602540378443860 -0.50000000000000033 -0.00000000000000000 802.44557738923856505
2 12.39155051656450013 -302.41644557298451446 0.00000000000000000 -0.00000000000000000 -0.00000000000000000 -1.00000000000000000 -0.50000000000000033 -0.86602540378443860 0.00000000000000000 0.86602540378443860 -0.50000000000000033 -0.00000000000000000 46.50000000000000000
2 0.00000000000000000 0.00000000000000000 0.00000000000000000 0.00000000000000000 0.00000000000000000 -1.00000000000000000 -1.00000000000000000 0.00000000000000000 0.00000000000000000 0.00000000000000000 1.00000000000000000 0.00000000000000000 349.17021174407386752
2 0.00000000000002132 0.00000000000009948 0.00000000000000000 -0.00000000000000000 -0.00000000000000000 -1.00000000000000000 -0.50000000000000033 -0.86602540378443860 0.00000000000000000 0.86602540378443860 -0.50000000000000033 -0.00000000000000000 349.17021174407386752
2 0.00000000000008527 -0.00000000000002842 0.00000000000000000 0.00000000000000000 -0.00000000000000000 -1.00000000000000000 0.50000000000000056 -0.86602540378443837 0.00000000000000000 -0.86602540378443837 -0.50000000000000056 0.00000000000000000 349.17021174407392436
2 0.00000000000008527 -0.00000000000002842 0.00000000000000000 -0.00000000000000000 -0.00000000000000000 -1.00000000000000000 -0.50000000000000056 0.86602540378443837 0.00000000000000000 -0.86602540378443837 -0.50000000000000056 0.00000000000000000 349.17021174407392436
2 -268.09609964668106841 140.47682524686905481 0.00000000000000000 -0.00000000000000000 -0.00000000000000000 -1.00000000000000000 -0.50000000000000056 0.86602540378443837 0.00000000000000000 -0.86602540378443837 -0.50000000000000056 0.00000000000000000 46.50000000000002132
2 -12.39155051656428341 -302.41644557298468499 0.00000000000000000 0.00000000000000000 -0.00000000000000000 -1.00000000000000000 0.50000000000000056 -0.86602540378443837 0.00000000000000000 -0.86602540378443837 -0.50000000000000056 0.00000000000000000 46.50000000000000711
2 475.83382801608934187 274.72278869461956674 0.00000000000000000 -0.00000000000000000 -0.00000000000000000 -1.00000000000000000 -0.50000000000000056 0.86602540378443837 0.00000000000000000 -0.86602540378443837 -0.50000000000000056 0.00000000000000000 802.44557738923867873
2 475.83382801608934187 274.72278869461956674 0.00000000000000000 0.00000000000000000 -0.00000000000000000 -1.00000000000000000 0.50000000000000056 -0.86602540378443837 0.00000000000000000 -0.86602540378443837 -0.50000000000000056 0.00000000000000000 802.44557738923867873
2 0.00000000000000000 0.00000000000000000 -8.00000000000000000 -0.00000000000000000 -0.00000000000000000 -1.00000000000000000 1.00000000000000000 0.00000000000000000 0.00000000000000000 -0.00000000000000000 1.00000000000000000 -0.00000000000000000 4.25000000000000000
2 0.00000000000000000 0.00000000000000000 897.75190496531763529 0.00000000000000000 0.00000000000000000 1.00000000000000000 1.00000000000000000 0.00000000000000000 -0.00000000000000000 -0.00000000000000000 1.00000000000000000 0.00000000000000000 30.00000000000000000
2 0.00000000000000000 0.00000000000000000 -5.50000000000000000 -0.00000000000000000 -0.00000000000000000 -1.00000000000000000 1.00000000000000000 0.00000000000000000 0.00000000000000000 -0.00000000000000000 1.00000000000000000 -0.00000000000000000 2.75000000000000000
1 0.00000000000000000 0.00000000000000000 0.00000000000000000 0.00000000000000000 0.00000000000000000 1.00000000000000000 -1.00000000000000000 -0.00000000000000000 0.00000000000000000 -0.00000000000000000 1.00000000000000000 -0.00000000000000000 
2 0.00000000000000000 0.00000000000000000 0.00000000000000000 -0.00000000000000000 -0.00000000000000000 -1.00000000000000000 1.00000000000000000 0.00000000000000000 0.00000000000000000 -0.00000000000000000 1.00000000000000000 -0.00000000000000000 12.50000000000000000
1 0.00000000000000000 0.00000000000000000 0.00000000000000000 0.00000000000000000 0.00000000000000000 1.00000000000000000 -1.00000000000000000 -0.00000000000000000 0.00000000000000000 -0.00000000000000000 1.00000000000000000 -0.00000000000000000 
2 0.00000000000000000 0.00000000000000000 0.00000000000000000 -0.00000000000000000 -0.00000000000000000 -1.00000000000000000 1.00000000000000000 0.00000000000000000 0.00000000000000000 -0.00000000000000000 1.00000000000000000 -0.00000000000000000 8.00000000000000000
1 0.00000000000000000 0.00000000000000000 -8.00000000000000000 0.00000000000000000 0.00000000000000000 1.00000000000000000 1.00000000000000000 0.00000000000000000 -0.00000000000000000 -0.00000000000000000 1.00000000000000000 0.00000000000000000 
1 0.00000000000000000 0.00000000000000000 -5.50000000000000000 0.00000000000000000 0.00000000000000000 1.00000000000000000 1.00000000000000000 0.00000000000000000 -0.00000000000000000 -0.00000000000000000 1.00000000000000000 0.00000000000000000 
Triangulations 0

TShapes 167
Ve
0.000000100000000
294.989094067774090 186.818819047962450 0.000000000000000
0 0

0101101
*
Ed
 0.000000100000000 1 1 0
1  1 0 0.000000000000000 18.000000000000000
2  1 1 0 0.000000000000000 18.000000000000000
4 G1 2 0 1 0
2  2 2 0 0.000000000000000 18.000000000000000
0

0101000
+167 12 -167 14 *
Ve
0.000000100000000
271.433540594839371 205.698606003375659 0.000000000000000
0 0

0101101
*
Ed
 0.000000100000000 1 1 0
1  2 0 0.000000000000000 18.000000000000000
2  3 1 0 0.000000000000000 18.000000000000000
2  4 3 0 0.000000000000000 18.000000000000000
4 G1 1 0 3 0
0

0101000
+165 12 -165 14 *
Ed
 0.000000100000000 1 1 0
1  3 0 6.847736295201390 7.508916597287877
2  5 1 15 6.847736295201390 7.508916597287877
2  6 1 16 6.847736295201390 7.508916597287877
2  7 4 0 6.847736295201390 7.508916597287877
0

0101000
+167 0 -165 0 *
Wi

0101100
+166 0 -164 0 -163 12 +163 14 *
Fa
0  0.000000100000000 1 0

0101000
+162 0 *
Ve
0.000000100000000
302.390273615159629 174.585105872036678 0.000000000000000
0 0

0101101
*
Ed
 0.000000100000000 1 1 0
1  4 0 6.806784082777884 6.847736295201389
2  8 2 16 6.806784082777884 6.847736295201389
2  9 2 15 6.806784082777884 6.847736295201389
2  10 4 0 6.806784082777884 6.847736295201389
0

0101000
+160 0 -167 0 *
Ve
0.000000100000000
309.284390234430816 162.058639778068510 0.000000000000000
0 0

0101101
*
Ed
 0.000000100000000 1 1 0
1  5 0 6.806784082777885 6.847736295201389
2  11 5 15 6.806784082777885 6.847736295201389
2  12 5 16 6.806784082777885 6.847736295201389
2  13 2 15 6.806784082777885 6.847736295201389
2  14 2 16 6.806784082777885 6.847736295201389
2  15 4 0 6.806784082777885 6.847736295201389
0

0101000
+160 0 -158 0 *
Ed
 0.000000100000000 1 1 0
1  6 0 0.000000000000000 18.000000000000000
2  16 6 0 0.000000000000000 18.000000000000000
2  17 5 0 0.000000000000000 18.000000000000000
4 G1 6 0 5 0
2  18 2 0 0.000000000000000 18.000000000000000
0

0101000
+158 12 -158 14 *
Wi

0101100
+159 14 -166 0 -159 12 +157 12 +156 0 -157 14 *
Fa
0  0.000000100000000 2 0

0101000
+155 0 *
Ve
0.000000100000000
-271.433540594839428 205.698606003375517 0.000000000000000
0 0

0101101
*
Ed
 0.000000100000000 1 1 0
1  7 0 0.000000000000000 18.000000000000000
2  19 7 0 0.000000000000000 18.000000000000000
2  20 8 0 0.000000000000000 18.000000000000000
4 G1 7 0 8 0
2  21 3 0 0.000000000000000 18.000000000000000
0

0101000
+153 12 -153 14 *
Ve
0.000000100000000
0.000000000000049 253.000000000000000 0.000000000000000
0 0

0101101
*
Ed
 0.000000100000000 1 1 0
1  8 0 1.225731290108291 1.570796326794897
2  22 7 15 1.225731290108291 1.570796326794897
2  23 7 16 1.225731290108291 1.570796326794897
2  24 3 15 1.225731290108291 1.570796326794897
2  25 3 16 1.225731290108291 1.570796326794897
2  26 4 0 1.225731290108291 1.570796326794897
0

0101000
+153 0 -151 0 *
Ed
 0.000000100000000 1 1 0
1  9 0 1.225731290108291 1.570796326794897
2  27 3 15 1.225731290108291 1.570796326794897
2  28 3 16 1.225731290108291 1.570796326794897
2  29 4 0 1.225731290108291 1.570796326794897
0

0101000
+165 0 -151 0 *
Wi

0101100
-152 0 +150 12 -149 12 +164 0 +149 14 -150 14 *
Fa
0  0.000000100000000 3 0

0101000
+148 0 *
Ve
0.000000100000000
313.856988619389199 132.219038592597911 0.000000000000000
0 0

0101101
*
Ed
 0.000000100000000 1 1 0
1  10 0 6.847736295201389 7.508916597287877
2  30 6 15 6.847736295201389 7.508916597287877
2  31 6 16 6.847736295201389 7.508916597287877
2  32 4 0 6.847736295201389 7.508916597287877
0

0101000
+158 0 -146 0 *
Ve
0.000000100000000
219.104427157463078 -126.500000000000114 0.000000000000000
0 0

0101101
*
Ed
 0.000000100000000 1 1 0
1  11 0 1.225731290108291 1.570796326794897
2  33 9 15 1.225731290108291 1.570796326794897
2  34 9 16 1.225731290108291 1.570796326794897
2  35 10 15 1.225731290108291 1.570796326794897
2  36 10 16 1.225731290108291 1.570796326794897
2  37 4 0 1.225731290108291 1.570796326794897
0

0101000
+146 0 -144 0 *
Ve
0.000000100000000
42.423448024549813 -337.917644595973400 0.000000000000000
0 0

0101101
*
Ed
 0.000000100000000 1 1 0
1  12 0 1.225731290108291 1.570796326794897
2  38 10 15 1.225731290108291 1.570796326794897
2  39 10 16 1.225731290108291 1.570796326794897
2  40 4 0 1.225731290108291 1.570796326794897
0

0101000
+142 0 -144 0 *
Ve
0.000000100000000
-294.989094067773976 186.818819047962535 0.000000000000000
0 0

0101101
*
Ed
 0.000000100000000 1 1 0
1  13 0 6.847736295201390 7.508916597287877
2  41 8 15 6.847736295201390 7.508916597287877
2  42 8 16 6.847736295201390 7.508916597287877
2  43 4 0 6.847736295201390 7.508916597287877
0

0101000
+140 0 -153 0 *
Ve
0.000000100000000
14.295296166656549 -348.877458826030988 0.000000000000000
0 0

0101101
*
Ed
 0.000000100000000 1 1 0
1  14 0 6.847736295201389 7.508916597287877
2  44 11 15 6.847736295201389 7.508916597287877
2  45 11 16 6.847736295201389 7.508916597287877
2  46 4 0 6.847736295201389 7.508916597287877
0

0101000
+138 0 -142 0 *
Ve
0.000000100000000
-302.390273615159515 174.585105872036934 0.000000000000000
0 0

0101101
*
Ed
 0.000000100000000 1 1 0
1  15 0 6.806784082777885 6.847736295201389
2  47 12 15 6.806784082777885 6.847736295201389
2  48 12 16 6.806784082777885 6.847736295201389
2  49 4 0 6.806784082777885 6.847736295201389
0

0101000
+136 0 -140 0 *
Ve
0.000000100000000
-0.000000000000028 -349.170211744073981 0.000000000000000
0 0

0101101
*
Ed
 0.000000100000000 1 1 0
1  16 0 6.806784082777885 6.847736295201389
2  50 13 15 6.806784082777885 6.847736295201389
2  51 13 16 6.806784082777885 6.847736295201389
2  52 14 15 6.806784082777885 6.847736295201389
2  53 14 16 6.806784082777885 6.847736295201389
2  54 4 0 6.806784082777885 6.847736295201389
0

0101000
+134 0 -138 0 *
Ve
0.000000100000000
-309.284390234430703 162.058639778068368 0.000000000000000
0 0

0101101
*
Ed
 0.000000100000000 1 1 0
1  17 0 6.806784082777884 6.847736295201389
2  55 15 15 6.806784082777884 6.847736295201389
2  56 15 16 6.806784082777884 6.847736295201389
2  57 12 15 6.806784082777884 6.847736295201389
2  58 12 16 6.806784082777884 6.847736295201389
2  59 4 0 6.806784082777884 6.847736295201389
0

0101000
+136 0 -132 0 *
Ve
0.000000100000000
-14.295296166656396 -348.877458826031102 0.000000000000000
0 0

0101101
*
Ed
 0.000000100000000 1 1 0
1  18 0 6.806784082777886 6.847736295201389
2  60 14 15 6.806784082777886 6.847736295201389
2  61 14 16 6.806784082777886 6.847736295201389
2  62 4 0 6.806784082777886 6.847736295201389
0

0101000
+134 0 -130 0 *
Ve
0.000000100000000
-313.856988619389369 132.219038592597599 0.000000000000000
0 0

0101101
*
Ed
 0.000000100000000 1 1 0
1  19 0 6.847736295201389 7.508916597287877
2  63 16 15 6.847736295201389 7.508916597287877
2  64 16 16 6.847736295201389 7.508916597287877
2  65 4 0 6.847736295201389 7.508916597287877
0

0101000
+132 0 -128 0 *
Ve
0.000000100000000
-42.423448024549316 -337.917644595973798 0.000000000000000
0 0

0101101
*
Ed
 0.000000100000000 1 1 0
1  20 0 6.847736295201389 7.508916597287877
2  66 17 15 6.847736295201389 7.508916597287877
2  67 17 16 6.847736295201389 7.508916597287877
2  68 4 0 6.847736295201389 7.508916597287877
0

0101000
+130 0 -126 0 *
Ve
0.000000100000000
-219.104427157462851 -126.500000000000171 0.000000000000000
0 0

0101101
*
Ed
 0.000000100000000 1 1 0
1  21 0 1.225731290108291 1.570796326794897
2  69 18 15 1.225731290108291 1.570796326794897
2  70 18 16 1.225731290108291 1.570796326794897
2  71 4 0 1.225731290108291 1.570796326794897
0

0101000
+128 0 -124 0 *
Ed
 0.000000100000000 1 1 0
1  22 0 1.225731290108291 1.570796326794897
2  72 19 15 1.225731290108291 1.570796326794897
2  73 19 16 1.225731290108291 1.570796326794897
2  74 18 15 1.225731290108291 1.570796326794897
2  75 18 16 1.225731290108291 1.570796326794897
2  76 4 0 1.225731290108291 1.570796326794897
0

0101000
+126 0 -124 0 *
Wi

0101100
+159 17 -157 17 +163 17 -145 17 +149 17 -143 17 -150 17 +141 17 -139 17 +137 17 
-135 17 +133 17 +131 17 -129 17 +127 17 -125 17 +123 17 -122 17 *
Ve
0.000000100000000
-34.292500000000004 -28.043324969126264 0.000000000000000
0 0

0101101
*
Ed
 0.000000100000000 1 1 0
1  23 0 0.000000000000000 6.283185307179586
2  77 4 17 0.000000000000000 6.283185307179586
2  78 20 18 0.000000000000000 6.283185307179586
0

0101100
+120 0 -120 0 *
Wi

0101100
+119 0 *
Ve
0.000000100000000
-38.954999999999998 20.131576107575491 0.000000000000000
0 0

0101101
*
Ed
 0.000000100000000 1 1 0
1  24 0 0.000000000000000 6.283185307179586
2  79 4 17 0.000000000000000 6.283185307179586
2  80 20 19 0.000000000000000 6.283185307179586
0

0101100
+117 0 -117 0 *
Wi

0101100
+116 0 *
Ve
0.000000100000007
30.000000000000000 0.000000000000000 0.000000000000000
0 0

0101101
*
Ed
 0.000000100000000 1 1 0
1  25 0 0.000000000000000 6.283185307179586
2  81 4 21 0.000000000000000 6.283185307179586
2  82 21 0 0.000000000000000 6.283185307179586
0

0101100
+114 0 -114 0 *
Wi

0101100
-113 20 *
Ve
0.000000100000000
42.792500000000004 -28.043324969126264 0.000000000000000
0 0

0101101
*
Ed
 0.000000100000000 1 1 0
1  26 0 0.000000000000000 6.283185307179586
2  83 4 17 0.000000000000000 6.283185307179586
2  84 20 22 0.000000000000000 6.283185307179586
0

0101100
+111 0 -111 0 *
Wi

0101100
+110 0 *
Ve
0.000000100000000
47.454999999999998 20.131576107575491 0.000000000000000
0 0

0101101
*
Ed
 0.000000100000000 1 1 0
1  27 0 0.000000000000000 6.283185307179586
2  85 4 17 0.000000000000000 6.283185307179586
2  86 20 23 0.000000000000000 6.283185307179586
0

0101100
+108 0 -108 0 *
Wi

0101100
+107 0 *
Ve
0.000000100000000
-19.750000000000004 136.000000000000000 0.000000000000000
0 0

0101101
*
Ed
 0.000000100000000 1 1 0
1  28 0 0.000000000000000 6.283185307179586
2  87 4 25 0.000000000000000 6.283185307179586
2  88 22 26 0.000000000000000 6.283185307179586
0

0101100
+105 0 -105 0 *
Wi

0101100
+104 24 *
Ve
0.000000100000000
-19.749999999999996 161.000000000000000 0.000000000000000
0 0

0101101
*
Ed
 0.000000100000000 1 1 0
1  29 0 0.000000000000000 6.283185307179586
2  89 4 25 0.000000000000000 6.283185307179586
2  90 22 27 0.000000000000000 6.283185307179586
0

0101100
+102 0 -102 0 *
Wi

0101100
+101 24 *
Ve
0.000000100000000
25.249999999999996 136.000000000000000 0.000000000000000
0 0

0101101
*
Ed
 0.000000100000000 1 1 0
1  30 0 0.000000000000000 6.283185307179586
2  91 4 25 0.000000000000000 6.283185307179586
2  92 22 28 0.000000000000000 6.283185307179586
0

0101100
+99 0 -99 0 *
Wi

0101100
+98 24 *
Ve
0.000000100000000
25.250000000000004 161.000000000000000 0.000000000000000
0 0

0101101
*
Ed
 0.000000100000000 1 1 0
1  31 0 0.000000000000000 6.283185307179586
2  93 4 25 0.000000000000000 6.283185307179586
2  94 22 29 0.000000000000000 6.283185307179586
0

0101100
+96 0 -96 0 *
Wi

0101100
+95 24 *
Fa
0  0.000000100000000 4 17

0101000
+121 0 +118 0 +115 0 +112 0 +109 0 +106 0 +103 0 +100 0 +97 0 +94 0 
*
Wi

0101100
+159 30 -157 30 +163 30 -145 30 +149 30 -143 30 -150 30 +141 30 -139 30 +137 30 
-135 30 +133 30 +131 30 -129 30 +127 30 -125 30 +123 30 -122 30 *
Ve
0.000000100000000
12.500000000000000 0.000000000000000 -0.000000000000000
0 0

0101101
*
Ed
 0.000000100000000 1 1 0
1  32 0 0.000000000000000 6.283185307179586
2  95 23 0 0.000000000000000 6.283185307179586
2  96 24 0 0.000000000000000 6.283185307179586
2  97 4 31 0.000000000000000 6.283185307179586
2  98 4 32 0.000000000000000 6.283185307179586
2  99 4 33 0.000000000000000 6.283185307179586
2  100 4 34 0.000000000000000 6.283185307179586
0

0101000
+91 0 -91 0 *
Wi

0101100
-90 18 *
Ve
0.000000100000007
30.000000000000000 0.000000000000000 18.000000000000000
0 0

0101101
*
Ed
 0.000000100000000 1 1 0
1  33 0 0.000000000000000 6.283185307179586
2  101 4 35 0.000000000000000 6.283185307179586
2  102 21 0 0.000000000000000 6.283185307179586
0

0101100
+88 0 -88 0 *
Wi

0101100
-87 20 *
Wi

0101100
-90 19 *
Wi

0101100
-90 22 *
Wi

0101100
-90 23 *
Ve
0.000000100000000
8.000000000000000 0.000000000000000 -0.000000000000000
0 0

0101101
*
Ed
 0.000000100000000 1 1 0
1  34 0 0.000000000000000 6.283185307179586
2  103 25 0 0.000000000000000 6.283185307179586
2  104 26 0 0.000000000000000 6.283185307179586
2  105 4 37 0.000000000000000 6.283185307179586
2  106 4 38 0.000000000000000 6.283185307179586
2  107 4 39 0.000000000000000 6.283185307179586
2  108 4 40 0.000000000000000 6.283185307179586
0

0101000
+82 0 -82 0 *
Wi

0101100
-81 36 *
Wi

0101100
-81 41 *
Wi

0101100
-81 42 *
Wi

0101100
-81 43 *
Fa
0  0.000000100000000 4 30

0101000
+92 0 +89 0 +86 0 +85 0 +84 0 +83 0 +80 0 +79 0 +78 0 +77 0 
*
Ed
 0.000000100000000 1 1 0
1  35 0 0.000000000000000 18.000000000000000
2  109 9 0 0.000000000000000 18.000000000000000
2  110 6 0 0.000000000000000 18.000000000000000
4 G1 9 0 6 0
2  111 10 0 0.000000000000000 18.000000000000000
0

0101000
+146 12 -146 14 *
Wi

0101100
+156 0 -75 0 -145 12 +145 14 *
Fa
0  0.000000100000000 6 0

0101000
+74 0 *
Ed
 0.000000100000000 1 1 0
1  36 0 0.000000000000000 18.000000000000000
2  112 8 0 0.000000000000000 18.000000000000000
4 G1 8 0 12 0
2  113 12 0 0.000000000000000 18.000000000000000
0

0101000
+140 12 -140 14 *
Wi

0101100
+72 0 -152 0 -139 12 +139 14 *
Fa
0  0.000000100000000 8 0

0101000
+71 0 *
Ed
 0.000000100000000 1 1 0
1  37 0 0.000000000000000 18.000000000000000
2  114 11 0 0.000000000000000 18.000000000000000
2  115 10 0 0.000000000000000 18.000000000000000
4 G1 11 0 10 0
0

0101000
+142 12 -142 14 *
Wi

0101100
-75 0 +143 12 -141 12 +69 0 +141 14 -143 14 *
Fa
0  0.000000100000000 10 0

0101000
+68 0 *
Ed
 0.000000100000000 1 1 0
1  38 0 0.000000000000000 18.000000000000000
2  116 13 0 0.000000000000000 18.000000000000000
2  117 11 0 0.000000000000000 18.000000000000000
4 G1 13 0 11 0
2  118 14 0 0.000000000000000 18.000000000000000
0

0101000
+138 12 -138 14 *
Wi

0101100
+66 0 -69 0 -137 12 +137 14 *
Fa
0  0.000000100000000 11 0

0101000
+65 0 *
Ed
 0.000000100000000 1 1 0
1  39 0 0.000000000000000 18.000000000000000
2  119 15 0 0.000000000000000 18.000000000000000
2  120 16 0 0.000000000000000 18.000000000000000
4 G1 15 0 16 0
2  121 12 0 0.000000000000000 18.000000000000000
0

0101000
+132 12 -132 14 *
Wi

0101100
-131 14 +135 14 -72 0 -135 12 +131 12 +63 0 *
Fa
0  0.000000100000000 12 0

0101000
+62 0 *
Ed
 0.000000100000000 1 1 0
1  40 0 0.000000000000000 18.000000000000000
2  122 17 0 0.000000000000000 18.000000000000000
4 G1 17 0 14 0
2  123 14 0 0.000000000000000 18.000000000000000
0

0101000
+130 12 -130 14 *
Wi

0101100
-133 14 +129 14 -60 0 -129 12 +133 12 +66 0 *
Fa
0  0.000000100000000 14 0

0101000
+59 0 *
Ed
 0.000000100000000 1 1 0
1  41 0 0.000000000000000 18.000000000000000
2  124 16 0 0.000000000000000 18.000000000000000
2  125 18 0 0.000000000000000 18.000000000000000
4 G1 16 0 18 0
0

0101000
+128 12 -128 14 *
Wi

0101100
+63 0 -57 0 -127 12 +127 14 *
Fa
0  0.000000100000000 16 0

0101000
+56 0 *
Ed
 0.000000100000000 1 1 0
1  42 0 0.000000000000000 18.000000000000000
2  126 19 0 0.000000000000000 18.000000000000000
2  127 17 0 0.000000000000000 18.000000000000000
4 G1 19 0 17 0
2  128 18 0 0.000000000000000 18.000000000000000
0

0101000
+126 12 -126 14 *
Wi

0101100
+60 0 -54 0 -125 12 +125 14 *
Fa
0  0.000000100000000 17 0

0101000
+53 0 *
Wi

0101100
-54 0 +122 12 -123 12 +57 0 +123 14 -122 14 *
Fa
0  0.000000100000000 18 0

0101000
+51 0 *
Ve
0.000000100000000
4.250000000000000 0.000000000000000 -8.000000000000000
0 0

0101101
*
Ed
 0.000000100000000 1 1 0
1  43 0 0.000000000000000 10.000000000000000
3  129 130CN 20 0 0.000000000000000 10.000000000000000
0

0101000
+49 0 -120 44 *
Ed
 0.000000100000000 1 1 0
1  44 0 0.000000000000000 6.283185307179586
2  131 27 0 0.000000000000000 6.283185307179586
2  132 20 0 0.000000000000000 6.283185307179586
0

0101000
+49 0 -49 0 *
Wi

0101100
-48 18 +119 0 +48 18 +47 18 *
Fa
0  0.000000100000000 20 18

0101000
+46 0 *
Ed
 0.000000100000000 1 1 0
1  43 0 0.000000000000000 10.000000000000000
3  129 130CN 20 0 0.000000000000000 10.000000000000000
0

0101000
+49 0 -117 45 *
Wi

0101100
-44 19 +116 0 +44 19 +47 19 *
Fa
0  0.000000100000000 20 19

0101000
+43 0 *
Ed
 0.000000100000000 1 1 0
1  45 0 879.751904965317635 897.751904965317635
3  133 134CN 21 0 879.751904965317635 897.751904965317635
0

0101000
+88 0 -114 0 *
Wi

0101100
-87 0 -41 0 +113 0 +41 0 *
Fa
0  0.000000100000000 21 0

0101000
+40 0 *
Ed
 0.000000100000000 1 1 0
1  43 0 0.000000000000000 10.000000000000000
3  129 130CN 20 0 0.000000000000000 10.000000000000000
0

0101000
+49 0 -111 46 *
Wi

0101100
-38 22 +110 0 +38 22 +47 22 *
Fa
0  0.000000100000000 20 22

0101000
+37 0 *
Ed
 0.000000100000000 1 1 0
1  43 0 0.000000000000000 10.000000000000000
3  129 130CN 20 0 0.000000000000000 10.000000000000000
0

0101000
+49 0 -108 47 *
Wi

0101100
-35 23 +107 0 +35 23 +47 23 *
Fa
0  0.000000100000000 20 23

0101000
+34 0 *
Ve
0.000000100000000
2.750000000000000 0.000000000000000 -5.500000000000000
0 0

0101101
*
Ed
 0.000000100000000 1 1 0
1  46 0 0.000000000000000 12.500000000000000
3  135 136CN 22 0 0.000000000000000 12.500000000000000
0

0101000
+32 0 -105 48 *
Ed
 0.000000100000000 1 1 0
1  47 0 0.000000000000000 6.283185307179586
2  137 28 0 0.000000000000000 6.283185307179586
2  138 22 0 0.000000000000000 6.283185307179586
0

0101000
+32 0 -32 0 *
Wi

0101100
-31 26 +104 0 +31 26 +30 26 *
Fa
0  0.000000100000000 22 26

0101000
+29 0 *
Ed
 0.000000100000000 1 1 0
1  46 0 0.000000000000000 12.500000000000000
3  135 136CN 22 0 0.000000000000000 12.500000000000000
0

0101000
+32 0 -102 49 *
Wi

0101100
-27 27 +101 0 +27 27 +30 27 *
Fa
0  0.000000100000000 22 27

0101000
+26 0 *
Ed
 0.000000100000000 1 1 0
1  46 0 0.000000000000000 12.500000000000000
3  135 136CN 22 0 0.000000000000000 12.500000000000000
0

0101000
+32 0 -99 50 *
Wi

0101100
-24 28 +98 0 +24 28 +30 28 *
Fa
0  0.000000100000000 22 28

0101000
+23 0 *
Ed
 0.000000100000000 1 1 0
1  46 0 0.000000000000000 12.500000000000000
3  135 136CN 22 0 0.000000000000000 12.500000000000000
0

0101000
+32 0 -96 51 *
Wi

0101100
-21 29 +95 0 +21 29 +30 29 *
Fa
0  0.000000100000000 22 29

0101000
+20 0 *
Ve
0.000000100000000
12.500000000000000 0.000000000000000 -8.000000000000000
0 0

0101101
*
Ed
 0.000000100000000 1 1 0
1  48 0 0.000000000000000 6.283185307179586
2  139 24 0 0.000000000000000 6.283185307179586
2  140 27 0 0.000000000000000 6.283185307179586
0

0101000
+18 0 -18 0 *
Ed
 0.000000100000000 1 1 0
1  49 0 0.000000000000000 8.000000000000000
3  141 142CN 24 0 0.000000000000000 8.000000000000000
0

0101000
+91 0 -18 0 *
Wi

0101100
+90 0 -17 0 -16 0 +16 0 *
Fa
0  0.000000100000000 24 0

0101000
+15 0 *
Ve
0.000000100000000
8.000000000000000 0.000000000000000 -5.500000000000000
0 0

0101101
*
Ed
 0.000000100000000 1 1 0
1  50 0 0.000000000000000 6.283185307179586
2  143 26 0 0.000000000000000 6.283185307179586
2  144 28 0 0.000000000000000 6.283185307179586
0

0101000
+13 0 -13 0 *
Ed
 0.000000100000000 1 1 0
1  51 0 0.000000000000000 5.500000000000000
3  145 146CN 26 0 0.000000000000000 5.500000000000000
0

0101000
+82 0 -13 0 *
Wi

0101100
+81 0 -12 0 -11 0 +11 0 *
Fa
0  0.000000100000000 26 0

0101000
+10 0 *
Wi

0101100
+17 0 *
Wi

0101100
-47 0 *
Fa
0  0.000000100000000 27 0

0101000
+8 0 +7 0 *
Wi

0101100
+12 0 *
Wi

0101100
-30 0 *
Fa
0  0.000000100000000 28 0

0101000
+5 0 +4 0 *
Sh

0101100
-161 8 -154 8 -147 8 -93 0 +76 0 +73 8 +70 8 -67 8 -64 8 +61 8 
+58 8 -55 8 +52 8 -50 8 +45 0 +42 0 -39 20 +36 0 +33 0 +28 24 
+25 24 +22 24 +19 24 +14 18 +14 19 +14 22 +14 23 +9 36 +9 41 +9 42 
+9 43 +6 18 +6 19 +6 22 +6 23 +3 36 +3 41 +3 42 +3 43 *
So

0100000
+2 0 *

+1 1 