
CASCADE Topology V1, (c) Matra-Datavision
Locations 2
1
1.000000000000000 0.000000000000000 0.000000000000000 -0.000000000000016 
0.000000000000000 1.000000000000000 0.000000000000000 367.000000000000000 
0.000000000000000 0.000000000000000 1.000000000000000 67.999999999890662 
1
1.000000000000000 0.000000000000000 0.000000000000000 -0.000000000000002 
0.000000000000000 1.000000000000000 0.000000000000000 367.000000000000000 
0.000000000000000 0.000000000000000 1.000000000000000 8.000000000130921 
Curve2ds 9
2 0.00000000000000000 0.00000000000000000 -1.00000000000000000 0.00000000000000000 0.00000000000000000 1.00000000000000000 1.69999999999999996
1 0.00000000000000000 0.00000000000000000 1.00000000000000000 0.00000000000000000 
1 0.00000000000000000 25.00000000000000000 1.00000000000000000 0.00000000000000000 
1 0.00000000000000000 0.00000000000000000 1.00000000000000000 0.00000000000000000 
1 6.28318530717958623 0.00000000000000000 0.00000000000000000 1.00000000000000000 
1 0.00000000000000000 0.00000000000000000 0.00000000000000000 1.00000000000000000 
1 0.00000000000000000 1.94370191538464310 1.00000000000000000 0.00000000000000000 
1 6.28318530717958623 0.00000000000000000 0.00000000000000000 1.00000000000000000 
1 0.00000000000000000 0.00000000000000000 0.00000000000000000 1.00000000000000000 
Curves 4
2 0.00000000000000000 0.00000000000000000 0.00000000000000000 -1.00000000000000000 0.00000000000000022 -0.00000000000000022 -0.00000000000000022 0.00000000000000000 1.00000000000000000 0.00000000000000022 1.00000000000000000 0.00000000000000000 1.69999999999999996
2 25.00000000000000000 -0.00000000000000555 0.00000000000000555 -1.00000000000000000 0.00000000000000022 -0.00000000000000022 -0.00000000000000022 0.00000000000000000 1.00000000000000000 0.00000000000000022 1.00000000000000000 0.00000000000000000 1.69999999999999840
1 -0.00000000000000038 0.00000000000000000 1.69999999999999996 1.00000000000000000 -0.00000000000000022 0.00000000000000016 
1 25.00000000000000000 -0.00000000000000555 1.70000000000000395 0.48480962024633784 -0.00000000000000011 -0.87461970713939541 
Polygon3D 0
PolygonOnTriangulations 0
Surfaces 3
1 0.00000000000000000 0.00000000000000000 0.00000000000000000 -1.00000000000000000 0.00000000000000022 -0.00000000000000022 0.00000000000000022 0.00000000000000000 -1.00000000000000000 0.00000000000000022 1.00000000000000000 0.00000000000000000 
2 0.00000000000000000 0.00000000000000000 0.00000000000000000 1.00000000000000000 -0.00000000000000022 0.00000000000000022 -0.00000000000000022 0.00000000000000000 1.00000000000000000 0.00000000000000022 1.00000000000000000 0.00000000000000000 1.69999999999999996
3 25.00000000000000000 -0.00000000000000555 0.00000000000000555 1.00000000000000000 -0.00000000000000022 0.00000000000000022 -0.00000000000000022 0.00000000000000000 1.00000000000000000 0.00000000000000022 1.00000000000000000 0.00000000000000000 1.69999999999999840
-1.06465084371654028
Triangulations 0

TShapes 17
Ve
0.000000100000000
-0.000000000000000 0.000000000000000 1.700000000000000
0 0

0101101
*
Ed
 0.000000100000000 1 1 0
1  1 0 0.000000000000000 6.283185307179586
2  1 1 0 0.000000000000000 6.283185307179586
2  2 2 0 0.000000000000000 6.283185307179586
0

0101000
+17 0 -17 0 *
Wi

0101100
-16 0 *
Fa
0  0.000000100000000 1 0

0111000
+15 0 *
Ve
0.000000100000000
25.000000000000000 -0.000000000000006 1.700000000000004
0 0

0101101
*
Ed
 0.000000100000000 1 1 0
1  2 0 0.000000000000000 6.283185307179586
2  3 2 0 0.000000000000000 6.283185307179586
2  4 3 0 0.000000000000000 6.283185307179586
0

0101000
+13 0 -13 0 *
Ed
 0.000000100000000 1 1 0
1  3 0 0.000000000000000 25.000000000000000
3  5 6CN 2 0 0.000000000000000 25.000000000000000
0

0101000
+17 0 -13 0 *
Wi

0101100
+16 0 -12 0 -11 0 +11 0 *
Fa
0  0.000000100000000 2 0

0111000
+10 0 *
Ve
0.000000100000000
25.942325387469708 -0.000000000000006 0.000000000000006
0 0

0101101
*
Ed
 0.000000100000000 1 1 1
2  7 3 0 0.000000000000000 6.283185307179586
0

0101000
+8 0 -8 0 *
Ed
 0.000000100000000 1 1 0
1  4 0 0.000000000000000 1.943701915384643
3  8 9CN 3 0 0.000000000000000 1.943701915384643
0

0101000
+13 0 -8 0 *
Wi

0101100
+12 0 -7 0 -6 0 +6 0 *
Fa
0  0.000000100000000 3 0

0111000
+5 0 *
Sh

0101100
+14 0 +9 0 +4 0 *
So

0100000
-3 0 *
Co

1100000
+2 1 +2 2 *

+1 0 