
CASCADE Topology V1, (c) Matra-Datavision
Locations 8
1
1.000000000000000 0.000000000000000 0.000000000000000 0.000000000000000 
0.000000000000000 1.000000000000000 0.000000000000000 0.000000000000000 
0.000000000000000 0.000000000000000 1.000000000000000 0.000000000000000 
1
1.000000000000000 0.000000000000000 0.000000000000000 0.000000000000000 
0.000000000000000 -0.000000000000000 -1.000000000000000 0.000000000000000 
0.000000000000000 1.000000000000000 -0.000000000000000 0.000000000000000 
2  2 -1 0
1
1.000000000000000 0.000000000000000 0.000000000000000 0.000000000000000 
0.000000000000000 -0.000000000000000 -1.000000000000000 0.000000000000000 
0.000000000000000 1.000000000000000 -0.000000000000000 0.000000000000000 
1
1.000000000000000 0.000000000000000 0.000000000000000 0.000000000000000 
0.000000000000000 -0.000000000000000 -1.000000000000000 0.000000000000000 
0.000000000000000 1.000000000000000 -0.000000000000000 0.000000000000000 
2  4 1 5 -1 0
2  5 1 4 -1 0
2  2 -1 5 1 4 -1 0
Curve2ds 12
1 0.00000000000000000 0.00000000000000000 1.00000000000000000 0.00000000000000000 
1 0.00000000000000000 5.65685424949237969 1.00000000000000000 0.00000000000000000 
1 0.00000000000000000 1.50103331075629387 1.00000000000000000 0.00000000000000000 
1 6.28318530717958623 0.00000000000000000 0.00000000000000000 1.00000000000000000 
1 0.00000000000000000 0.00000000000000000 0.00000000000000000 1.00000000000000000 
1 0.00000000000000000 0.00000000000000001 1.00000000000000000 0.00000000000000000 
1 0.00000000000000000 45.99000000000000199 1.00000000000000000 0.00000000000000000 
1 6.28318530717958623 0.00000000000000000 0.00000000000000000 1.00000000000000000 
1 0.00000000000000000 0.00000000000000000 0.00000000000000000 1.00000000000000000 
1 0.00000000000000000 0.00000000000000000 1.00000000000000000 0.00000000000000000 
1 6.28318530717958623 0.00000000000000000 0.00000000000000000 1.00000000000000000 
1 0.00000000000000000 0.00000000000000000 0.00000000000000000 1.00000000000000000 
Curves 7
2 0.00000000000000000 0.00000000000000000 0.00000000000000000 0.00000000000000000 0.00000000000000022 -1.00000000000000000 1.00000000000000000 0.00000000000000000 0.00000000000000000 0.00000000000000000 -1.00000000000000000 -0.00000000000000022 0.50100000000000000
2 0.00000000000000000 -0.00000000000000089 4.00000000000000000 0.00000000000000000 0.00000000000000022 -1.00000000000000000 1.00000000000000000 0.00000000000000000 0.00000000000000000 0.00000000000000000 -1.00000000000000000 -0.00000000000000022 4.50100000000000033
1 0.50100000000000000 0.00000000000000000 0.00000000000000000 0.70710678118654757 -0.00000000000000016 0.70710678118654757 
2 0.00000000000000000 -0.00000000000000089 4.00999999999999890 0.00000000000000000 0.00000000000000022 -1.00000000000000000 1.00000000000000000 0.00000000000000000 0.00000000000000000 0.00000000000000000 -1.00000000000000000 -0.00000000000000022 3.00000000000000000
1 3.00000000000000000 -0.00000000000000089 4.00999999999999979 0.99997780811654546 0.00000000000000000 -0.00666207733588624 
2 0.00000000000000000 -0.00000000000001110 50.00000000000000000 0.00000000000000000 0.00000000000000022 -1.00000000000000000 1.00000000000000000 0.00000000000000000 0.00000000000000000 0.00000000000000000 -1.00000000000000000 -0.00000000000000022 3.00000000000000000
1 3.00000000000000000 -0.00000000000001110 50.00000000000000000 0.00000000000000000 0.00000000000000022 -1.00000000000000000 
Polygon3D 0
PolygonOnTriangulations 0
Surfaces 5
1 0.00000000000000000 0.00000000000000000 0.00000000000000000 -0.00000000000000000 0.00000000000000022 -1.00000000000000000 -1.00000000000000000 0.00000000000000000 0.00000000000000000 -0.00000000000000000 -1.00000000000000000 -0.00000000000000022 
3 0.00000000000000000 0.00000000000000000 0.00000000000000000 0.00000000000000000 -0.00000000000000022 1.00000000000000000 1.00000000000000000 0.00000000000000000 0.00000000000000000 0.00000000000000000 -1.00000000000000000 -0.00000000000000022 0.50100000000000000
0.78539816339744828
3 0.00000000000000000 -0.00000000000000089 4.00999999999999979 -0.00000000000000000 0.00000000000000022 -1.00000000000000000 1.00000000000000000 0.00000000000000000 0.00000000000000000 0.00000000000000000 -1.00000000000000000 -0.00000000000000022 3.00000000000000000
1.56413420017722493
2 0.00000000000000000 -0.00000000000001110 50.00000000000000000 -0.00000000000000000 0.00000000000000022 -1.00000000000000000 1.00000000000000000 0.00000000000000000 0.00000000000000000 0.00000000000000000 -1.00000000000000000 -0.00000000000000022 3.00000000000000000
1 0.00000000000000000 -0.00000000000001110 50.00000000000000000 -0.00000000000000000 0.00000000000000022 -1.00000000000000000 1.00000000000000000 0.00000000000000000 0.00000000000000000 0.00000000000000000 -1.00000000000000000 -0.00000000000000022 
Triangulations 0

TShapes 23
Ve
0.000000100000000
0.501000000000000 0.000000000000000 0.000000000000000
0 0

0101101
*
Ed
 0.000000100000000 1 1 0
1  1 0 0.000000000000000 6.283185307179586
2  1 2 0 0.000000000000000 6.283185307179586
0

0101000
+23 3 -23 3 *
Wi

0101100
-22 0 *
Fa
0  0.000000100000000 1 0

0111000
+21 0 *
Ve
0.000000100000000
4.501000000000000 -4.000000000000000 -0.000000000000002
0 0

0101101
*
Ed
 0.000000100000000 1 1 0
1  2 0 0.000000000000000 6.283185307179586
2  2 2 0 0.000000000000000 6.283185307179586
2  3 3 0 0.000000000000000 6.283185307179586
0

0101000
+19 3 -19 3 *
Ed
 0.000000100000000 1 1 0
1  3 0 0.000000000000000 5.656854249492381
3  4 5CN 2 7 0.000000000000000 5.656854249492381
0

0101000
+23 8 -19 8 *
Wi

0101100
+22 0 -18 0 -17 6 +17 6 *
Fa
0  0.000000100000000 2 0

0111000
+16 0 *
Ve
0.000000100000001
3.000000000000000 -4.009999999999999 -0.000000000000002
0 0

0101101
*
Ed
 0.000000100000001 1 1 0
1  4 0 0.000000000000000 6.283185307179586
2  6 3 0 0.000000000000000 6.283185307179586
2  7 4 0 0.000000000000000 6.283185307179586
0

0101000
+14 3 -14 3 *
Ed
 0.000000100000000 1 1 0
1  5 0 0.000000000000000 1.501033310756294
3  8 9CN 3 7 0.000000000000000 1.501033310756294
0

0101000
+14 8 -19 8 *
Wi

0101100
+13 0 -18 0 -12 6 +12 6 *
Fa
0  0.000000100000000 3 0

0111000
+11 0 *
Ve
0.000000100000000
3.000000000000000 -50.000000000000000 -0.000000000000022
0 0

0101101
*
Ed
 0.000000100000000 1 1 0
1  6 0 0.000000000000000 6.283185307179586
2  10 4 0 0.000000000000000 6.283185307179586
0

0101000
+9 3 -9 3 *
Ed
 0.000000100000000 1 1 0
1  7 0 0.000000000000000 45.990000000000002
3  11 12CN 4 7 0.000000000000000 45.990000000000002
0

0101000
+9 8 -14 8 *
Wi

0101100
+8 0 -13 0 -7 6 +7 6 *
Fa
0  0.000000100000000 4 0

0111000
+6 0 *
Wi

0101100
+8 0 *
Fa
0  0.000000100000000 5 0

0111000
+4 0 *
Sh

0101100
+20 0 +15 0 -10 0 -5 0 +3 0 *
So

1100000
-2 0 *

+1 1 