
CASCADE Topology V1, (c) Matra-Datavision
Locations 13
1
1.000000000000000 0.000000000000000 0.000000000000000 0.000000000000000 
0.000000000000000 1.000000000000000 0.000000000000000 0.000000000000000 
0.000000000000000 0.000000000000000 1.000000000000000 0.000000000000000 
1
1.000000000000000 0.000000000000000 0.000000000000000 3.000000000000000 
0.000000000000000 1.000000000000000 0.000000000000000 0.000000000000000 
0.000000000000000 0.000000000000000 1.000000000000000 0.000000000000000 
1
1.000000000000000 0.000000000000000 0.000000000000000 0.000000000000000 
0.000000000000000 1.000000000000000 0.000000000000000 0.000000000000000 
0.000000000000000 0.000000000000000 1.000000000000000 0.000000000000000 
1
1.000000000000000 0.000000000000000 -0.000000000000000 0.000000000000000 
-0.000000000000000 0.000000000000000 -1.000000000000000 0.000000000000000 
0.000000000000000 1.000000000000000 0.000000000000000 0.000000000000000 
1
1.000000000000000 0.000000000000000 0.000000000000000 0.000000000000000 
0.000000000000000 1.000000000000000 0.000000000000000 0.000000000000000 
0.000000000000000 0.000000000000000 1.000000000000000 0.000000000000000 
2  4 1 5 1 0
1
1.000000000000000 0.000000000000000 0.000000000000000 0.000000000000000 
0.000000000000000 1.000000000000000 0.000000000000000 0.000000000000000 
0.000000000000000 0.000000000000000 1.000000000000000 0.000000000000000 
2  7 -1 5 -1 4 -1 0
1
1.000000000000000 0.000000000000000 0.000000000000000 0.000000000000000 
0.000000000000000 1.000000000000000 0.000000000000000 0.000000000000000 
0.000000000000000 0.000000000000000 1.000000000000000 0.000000000000000 
2  9 1 3 1 0
2  7 -1 3 -1 9 -1 0
1
-0.500000000000000 -0.866025403784439 0.000000000000000 -1.499999999999999 
0.866025403784439 -0.500000000000000 0.000000000000000 2.598076211353316 
0.000000000000000 0.000000000000000 1.000000000000000 0.000000000000000 
1
-0.500000000000001 0.866025403784439 0.000000000000000 -1.500000000000001 
-0.866025403784439 -0.500000000000001 0.000000000000000 -2.598076211353315 
0.000000000000000 0.000000000000000 1.000000000000001 0.000000000000000 
Curve2ds 0
Curves 7
1 0.00000000000000000 0.00000000000000000 0.00000000000000000 1.00000000000000000 0.00000000000000000 0.00000000000000000 
1 1.73205080756887719 0.00000000000000000 0.00000000000000000 -0.93465529130606351 -0.35555518057479879 0.00000000000000000 
1 -0.48747897815233676 -0.84433835778160637 0.00000000000000000 0.49999999999999983 0.86602540378443882 0.00000000000000000 
1 0.00000000000000007 0.00000000000000007 0.00000000000000000 -0.49999999999999989 0.86602540378443882 0.00000000000000000 
1 -0.48747897815233660 0.84433835778160626 0.00000000000000000 0.93465529130606351 -0.35555518057479868 0.00000000000000000 
1 0.00000000000000000 -0.49467371064167143 0.00000000000000000 0.00000000000000000 1.00000000000000000 0.00000000000000000 
1 1.73205080756887675 0.00000000000000000 0.00000000000000000 -0.96155297028741438 -0.27461952831408565 0.00000000000000000 
Polygon3D 0
PolygonOnTriangulations 0
Surfaces 3
1 0.00000000000000007 0.00000000000000007 0.00000000000000000 0.00000000000000000 0.00000000000000000 1.00000000000000000 1.00000000000000000 0.00000000000000000 -0.00000000000000000 -0.00000000000000000 1.00000000000000000 0.00000000000000000 
1 0.00000000000000007 0.00000000000000007 0.00000000000000000 0.00000000000000000 0.00000000000000000 1.00000000000000000 1.00000000000000000 0.00000000000000000 -0.00000000000000000 -0.00000000000000000 1.00000000000000000 0.00000000000000000 
1 0.00000000000000000 0.00000000000000000 0.00000000000000000 0.00000000000000000 -1.00000000000000000 0.00000000000000022 0.00000000000000000 -0.00000000000000022 -1.00000000000000000 1.00000000000000000 0.00000000000000000 0.00000000000000000 
Triangulations 0

TShapes 20
Ve
0.000000173205081
0.000000000000000 0.000000000000000 0.000000000000000
0 0

0101101
*
Ve
0.000000173205081
1.732050807568877 0.000000000000000 0.000000000000000
0 0

0101101
*
Ed
 0.000000173205081 1 1 0
1  1 0 0.000000000000000 1.732050807568877
0

0101000
+20 8 -19 8 *
Ve
0.000000173205081
-0.487478978152336 -0.844338357781606 0.000000000000000
0 0

0101101
*
Ed
 0.000000173205081 1 1 0
1  2 0 0.000000000000000 2.374704135703009
0

0101000
+19 11 -17 11 *
Ed
 0.000000173205081 1 1 0
1  3 0 0.000000000000000 0.974957956304674
0

0101000
+17 11 -20 11 *
Wi

0101000
-18 6 -16 10 -15 10 *
Fa
0  0.000000173205081 1 3

0101000
+14 0 *
Ve
0.000000173205081
-0.487478978152336 0.844338357781606 0.000000000000000
0 0

0101101
*
Ed
 0.000000173205081 1 1 0
1  4 0 0.000000000000000 0.974957956304674
0

0101000
+20 11 -12 11 *
Ed
 0.000000173205081 1 1 0
1  5 0 0.000000000000000 2.374704135703009
0

0101000
+12 11 -19 11 *
Wi

0101000
-11 10 -10 10 +18 6 *
Fa
0  0.000000173205081 2 3

0101000
+9 0 *
Ve
0.000000173205081
0.000000000000000 -0.000000000000000 -0.494673710641671
0 0

0101101
*
Ed
 0.000000173205081 1 1 0
1  6 0 0.000000000000000 0.494673710641671
0

0101000
+7 8 -20 8 *
Ed
 0.000000173205081 1 1 0
1  7 0 0.000000000000000 1.801305659792368
0

0101000
+19 8 -7 8 *
Wi

0101000
-18 6 -6 6 -5 6 *
Fa
0  0.000000173205081 3 5

0101000
+4 0 *
Sh

0101000
+13 0 +8 0 +3 0 *
Co

1100000
+2 2 +2 12 +2 13 *

+1 1 