
CASCADE Topology V1, (c) Matra-Datavision
Locations 17
1
1.000000000000000 0.000000000000000 0.000000000000000 0.000000000000000 
0.000000000000000 1.000000000000000 0.000000000000000 0.000000000000000 
0.000000000000000 0.000000000000000 1.000000000000000 0.000000000000000 
1
1.000000000000000 0.000000000000000 0.000000000000000 0.000000000000000 
0.000000000000000 1.000000000000000 0.000000000000000 0.000000000000000 
0.000000000000000 0.000000000000000 1.000000000000000 0.000000000000000 
1
1.000000000000000 0.000000000000000 0.000000000000000 0.000000000000000 
0.000000000000000 1.000000000000000 0.000000000000000 0.000000000000000 
0.000000000000000 0.000000000000000 1.000000000000000 0.000000000000000 
1
1.000000000000000 0.000000000000000 0.000000000000000 0.000000000000000 
0.000000000000000 1.000000000000000 0.000000000000000 0.000000000000000 
0.000000000000000 0.000000000000000 1.000000000000000 0.000000000000000 
2  3 1 4 -1 0
1
1.000000000000000 0.000000000000000 0.000000000000000 0.000000000000000 
0.000000000000000 1.000000000000000 0.000000000000000 0.000000000000000 
0.000000000000000 0.000000000000000 1.000000000000000 0.000000000000000 
2  6 -1 2 -1 4 1 3 -1 0
1
1.000000000000000 0.000000000000000 0.000000000000000 0.000000000000000 
0.000000000000000 1.000000000000000 0.000000000000000 0.000000000000000 
0.000000000000000 0.000000000000000 1.000000000000000 93.000000000000000 
2  8 1 3 1 4 -1 0
2  6 -1 2 -1 4 1 3 -1 8 -1 0
2  6 -1 2 -1 0
2  3 1 4 -1 2 1 0
2  8 -1 0
2  8 1 3 1 4 -1 2 1 0
1
1.000000000000000 0.000000000000000 0.000000000000000 0.000000000000000 
0.000000000000000 1.000000000000000 0.000000000000000 0.000000000000000 
0.000000000000000 0.000000000000000 1.000000000000000 0.000000000000000 
2  6 -1 0
2  6 -1 15 -1 0
Curve2ds 42
1 1.04719755115711055 0.00000000000000000 0.00000000000000000 -1.00000000000000000 
1 0.00000000000000000 -585.07418906783732382 1.00000000000000000 0.00000000000000000 
1 0.00000000000000000 -585.07418906783732382 1.00000000000000000 0.00000000000000000 
1 1.57079632679489678 0.00000000000000000 0.00000000000000000 -1.00000000000000000 
1 1.57079632679489678 0.00000000000000000 0.00000000000000000 -1.00000000000000000 
1 0.00000000000000000 0.00000000000000000 1.00000000000000000 0.00000000000000000 
1 6.28318530717958623 0.00000000000000000 -1.00000000000000000 0.00000000000000000 
1 0.00000000000000000 -93.00000000000000000 1.00000000000000000 0.00000000000000000 
1 0.00000000000000000 0.00000000000000000 1.00000000000000000 0.00000000000000000 
1 5.23598775602247546 0.00000000000000000 0.00000000000000000 1.00000000000000000 
1 1.04719755115711055 0.00000000000000000 0.00000000000000000 1.00000000000000000 
1 0.00000000000000000 -584.07418906783732382 1.00000000000000000 0.00000000000000000 
1 0.00000000000000000 0.00000000000000000 0.00000000000000000 -1.00000000000000000 
1 6.28318530717958623 0.00000000000000000 0.00000000000000000 -1.00000000000000000 
1 0.00000000000000000 -584.07418906783732382 1.00000000000000000 0.00000000000000000 
1 0.00000000000000000 0.00000000000000000 0.00000000000000000 -1.00000000000000000 
1 6.28318530717958623 0.00000000000000000 0.00000000000000000 -1.00000000000000000 
1 1.04719755115711055 0.00000000000000000 0.00000000000000000 -1.00000000000000000 
1 0.00000000000000000 0.00000000000000000 1.00000000000000000 0.00000000000000000 
1 0.00000000000000000 0.00000000000000000 1.00000000000000000 0.00000000000000000 
1 0.00000000000000000 -93.00000000000000000 1.00000000000000000 0.00000000000000000 
1 6.28318530717958623 0.00000000000000000 -1.00000000000000000 0.00000000000000000 
1 6.28318530717958623 1.00000000000000000 -1.00000000000000000 0.00000000000000000 
1 4.71238898038468967 0.00000000000000000 0.00000000000000000 1.00000000000000000 
1 1.57079632679489678 0.00000000000000000 0.00000000000000000 1.00000000000000000 
1 1.57079632679489678 0.00000000000000000 0.00000000000000000 1.00000000000000000 
1 4.71238898038468967 0.00000000000000000 0.00000000000000000 1.00000000000000000 
1 0.00000000000000000 1.00000000000000000 1.00000000000000000 0.00000000000000000 
1 1.04719755115711055 0.00000000000000000 0.00000000000000000 -1.00000000000000000 
1 6.28318530717958623 -585.07418906783721013 -1.00000000000000000 0.00000000000000000 
1 6.28318530717958623 -585.07418906783721013 -1.00000000000000000 0.00000000000000000 
1 0.00000000000000000 1.00000000000000000 1.00000000000000000 0.00000000000000000 
1 1.04719755115711055 0.00000000000000000 0.00000000000000000 1.00000000000000000 
1 5.23598775602247546 0.00000000000000000 0.00000000000000000 1.00000000000000000 
1 6.28318530717958623 1.00000000000000000 -1.00000000000000000 0.00000000000000000 
1 1.57079632679489678 0.00000000000000000 0.00000000000000000 -1.00000000000000000 
1 6.28318530717958623 -584.07418906783721013 -1.00000000000000000 0.00000000000000000 
1 0.00000000000000000 0.00000000000000000 0.00000000000000000 -1.00000000000000000 
1 6.28318530717958623 0.00000000000000000 0.00000000000000000 -1.00000000000000000 
1 6.28318530717958623 -584.07418906783721013 -1.00000000000000000 0.00000000000000000 
1 0.00000000000000000 0.00000000000000000 0.00000000000000000 -1.00000000000000000 
1 6.28318530717958623 0.00000000000000000 0.00000000000000000 -1.00000000000000000 
Curves 48
1 292.53709455407363293 -209.31088913336668611 0.00000000000000000 0.00000000000000000 0.00000000000000000 1.00000000000000000 
1 292.53709455407363293 -209.31088913336668611 0.00000000000000000 0.86602540377461945 -0.50000000001700740 0.00000000000000000 
1 292.53709455407363293 -209.31088913336668611 0.00000000000000000 0.86602540377461945 -0.50000000001700740 0.00000000000000000 
1 315.91978045598847302 -222.81088913382595251 0.00000000000000000 0.00000000000000000 0.00000000000000000 1.00000000000000000 
2 305.52747559068524197 -216.81088912207030717 82.99999999999656097 -0.50000000000000011 -0.86602540378443871 0.00000000000000000 0.86602540378443871 -0.50000000000000011 0.00000000000000011 -0.00000000000000010 0.00000000000000006 1.00000000000000000 1.70000000004957852
2 305.52747559068524197 -216.81088912207030717 12.99999999999793765 -0.50000000000000011 -0.86602540378443871 0.00000000000000000 0.86602540378443871 -0.50000000000000011 0.00000000000000011 -0.00000000000000010 0.00000000000000006 1.00000000000000000 1.70000000004957852
1 0.00000000000006100 -130.92581088526526401 0.00000000000000000 0.00000000000000000 0.00000000000000000 1.00000000000000000 
2 0.00000000000003309 -715.99999995339703673 0.00000000000000000 0.00000000000000000 0.00000000000000000 1.00000000000000000 1.00000000000000000 0.00000000000000000 -0.00000000000000000 -0.00000000000000000 1.00000000000000000 0.00000000000000000 585.07418906813177273
2 0.00000000000003309 -715.99999995339703673 0.00000000000000000 0.00000000000000000 0.00000000000000000 1.00000000000000000 1.00000000000000000 0.00000000000000000 -0.00000000000000000 -0.00000000000000000 1.00000000000000000 0.00000000000000000 585.07418906813177273
6 0 1 315.91978045598847302 -222.81088913382595251 0.00000000000000000  315.41978045597147684 -223.67691453760056675 0.00000000000000000  
1 292.03709455405663675 -210.17691453714130034 0.00000000000000000 0.86602540377461945 -0.50000000001700740 0.00000000000000000 
6 0 1 292.53709455407363293 -209.31088913336668611 0.00000000000000000  292.03709455405663675 -210.17691453714130034 0.00000000000000000  
6 0 1 292.53709455407363293 -209.31088913336668611 93.00000000000000000  292.03709455405663675 -210.17691453714130034 93.00000000000000000  
1 292.03709455405663675 -210.17691453714130034 93.00000000000000000 0.86602540377461945 -0.50000000001700740 0.00000000000000000 
6 0 1 315.91978045598847302 -222.81088913382595251 93.00000000000000000  315.41978045597147684 -223.67691453760056675 93.00000000000000000  
1 315.41978045597147684 -223.67691453760056675 0.00000000000000000 0.00000000000000000 0.00000000000000000 1.00000000000000000 
2 305.02747559068524197 -217.67691452585472689 82.99999999999656097 -0.50000000000000011 -0.86602540378443871 0.00000000000000000 0.86602540378443871 -0.50000000000000011 0.00000000000000011 -0.00000000000000010 0.00000000000000006 1.00000000000000000 1.70000000004957852
1 14.46262424324305407 -724.34999995342184320 82.99999999999656097 0.50000000000000000 0.86602540378443871 -0.00000000000000010 
2 305.02747559068524197 -217.67691452585472689 12.99999999999793765 -0.50000000000000011 -0.86602540378443871 0.00000000000000000 0.86602540378443871 -0.50000000000000011 0.00000000000000011 -0.00000000000000010 0.00000000000000006 1.00000000000000000 1.70000000004957852
1 14.46262424324306117 -724.34999995342184320 12.99999999999793765 0.50000000000000000 0.86602540378443871 -0.00000000000000010 
1 -292.53709455407363293 -209.31088913336668611 0.00000000000000000 0.00000000000000000 0.00000000000000000 1.00000000000000000 
2 -0.00000000000003309 -715.99999995339703673 0.00000000000000000 0.00000000000000000 0.00000000000000000 -1.00000000000000000 -1.00000000000000000 -0.00000000000000000 -0.00000000000000000 -0.00000000000000000 1.00000000000000000 0.00000000000000000 585.07418906813177273
2 -0.00000000000003309 -715.99999995339703673 0.00000000000000000 0.00000000000000000 0.00000000000000000 -1.00000000000000000 -1.00000000000000000 -0.00000000000000000 -0.00000000000000000 -0.00000000000000000 1.00000000000000000 0.00000000000000000 585.07418906813177273
2 0.00000000000003309 -715.99999995339703673 0.00000000000000000 0.00000000000000000 0.00000000000000000 1.00000000000000000 1.00000000000000000 0.00000000000000000 -0.00000000000000000 -0.00000000000000000 1.00000000000000000 0.00000000000000000 584.07418906813177273
6 0 1 0.00000000000006100 -130.92581088526526401 0.00000000000000000  -0.00000000000006083 -131.92581088526526401 0.00000000000000000  
7 0 0  1 2 2  -0.00000000000005684 -130.92581088526526401 93.00000000000000000  -0.00000000000005684 -131.92581088526526401 93.00000000000000000 
 0.00000000000000000 2 1.00000000000000000 2
2 0.00000000000003309 -715.99999995339703673 93.00000000000000000 0.00000000000000000 0.00000000000000000 1.00000000000000000 1.00000000000000000 0.00000000000000000 -0.00000000000000000 -0.00000000000000000 1.00000000000000000 0.00000000000000000 584.07418906813177273
1 292.03709455405663675 -210.17691453714130034 0.00000000000000000 0.00000000000000000 0.00000000000000000 1.00000000000000000 
1 -292.53709455407363293 -209.31088913336668611 0.00000000000000000 -0.86602540377461945 -0.50000000001700740 0.00000000000000000 
1 -292.53709455407363293 -209.31088913336668611 0.00000000000000000 -0.86602540377461945 -0.50000000001700740 0.00000000000000000 
1 -315.91978045598847302 -222.81088913382595251 0.00000000000000000 0.00000000000000000 0.00000000000000000 1.00000000000000000 
2 -305.52747559068524197 -216.81088912207030717 82.99999999999648992 0.49999999999999989 -0.86602540378443882 0.00000000000000011 -0.86602540378443882 -0.49999999999999989 -0.00000000000000008 0.00000000000000012 -0.00000000000000006 -1.00000000000000000 1.70000000004957852
2 -305.52747559068524197 -216.81088912207030717 12.99999999999786837 0.49999999999999989 -0.86602540378443882 0.00000000000000011 -0.86602540378443882 -0.49999999999999989 -0.00000000000000008 0.00000000000000012 -0.00000000000000006 -1.00000000000000000 1.70000000004957852
2 -0.00000000000003309 -715.99999995339703673 0.00000000000000000 0.00000000000000000 0.00000000000000000 -1.00000000000000000 -1.00000000000000000 -0.00000000000000000 -0.00000000000000000 -0.00000000000000000 1.00000000000000000 0.00000000000000000 584.07418906813177273
6 0 1 -292.53709455407363293 -209.31088913336668611 0.00000000000000000  -292.03709455403947004 -210.17691453713138117 0.00000000000000000  
7 0 0  1 2 2  -292.53709455407346240 -209.31088913336657242 93.00000000000000000  -292.03709455403924267 -210.17691453713126748 93.00000000000000000 
 0.00000000000000000 2 1.00000000000000000 2
2 -0.00000000000003309 -715.99999995339703673 93.00000000000000000 0.00000000000000000 0.00000000000000000 -1.00000000000000000 -1.00000000000000000 -0.00000000000000000 -0.00000000000000000 -0.00000000000000000 1.00000000000000000 0.00000000000000000 584.07418906813177273
1 -0.00000000000006083 -131.92581088526526401 0.00000000000000000 0.00000000000000000 0.00000000000000000 1.00000000000000000 
1 -292.03709455405663675 -210.17691453714130034 0.00000000000000000 -0.86602540377461945 -0.50000000001700740 0.00000000000000000 
6 0 1 -315.91978045598847302 -222.81088913382595251 0.00000000000000000  -315.41978045597147684 -223.67691453760056675 0.00000000000000000  
6 0 1 -315.91978045598847302 -222.81088913382595251 93.00000000000000000  -315.41978045597147684 -223.67691453760056675 93.00000000000000000  
1 -292.03709455405663675 -210.17691453714130034 93.00000000000000000 -0.86602540377461945 -0.50000000001700740 0.00000000000000000 
1 -315.41978045597147684 -223.67691453760056675 0.00000000000000000 0.00000000000000000 0.00000000000000000 1.00000000000000000 
2 -305.02747559068524197 -217.67691452585472689 82.99999999999648992 0.49999999999999989 -0.86602540378443882 0.00000000000000011 -0.86602540378443882 -0.49999999999999989 -0.00000000000000008 0.00000000000000012 -0.00000000000000006 -1.00000000000000000 1.70000000004957852
1 -14.46262424324323348 -724.34999995342184320 82.99999999999656097 -0.49999999999999983 0.86602540378443882 -0.00000000000000022 
2 -305.02747559068524197 -217.67691452585472689 12.99999999999786837 0.49999999999999989 -0.86602540378443882 0.00000000000000011 -0.86602540378443882 -0.49999999999999989 -0.00000000000000008 0.00000000000000012 -0.00000000000000006 -1.00000000000000000 1.70000000004957852
1 -14.46262424324322637 -724.34999995342184320 12.99999999999793410 -0.49999999999999983 0.86602540378443882 -0.00000000000000022 
1 -292.03709455403947004 -210.17691453713138117 0.00000000000000000 0.00000000000000000 0.00000000000000000 1.00000000000000000 
Polygon3D 0
PolygonOnTriangulations 0
Surfaces 22
1 292.53709455407363293 -209.31088913336668611 0.00000000000000000 0.50000000001700740 0.86602540377461945 0.00000000000000000 0.86602540377461945 -0.50000000001700740 0.00000000000000000 0.00000000000000000 0.00000000000000000 -1.00000000000000000 
2 0.00000000000003309 -715.99999995339703673 0.00000000000000000 -0.00000000000000000 -0.00000000000000000 -1.00000000000000000 1.00000000000000000 0.00000000000000000 0.00000000000000000 -0.00000000000000000 1.00000000000000000 -0.00000000000000000 585.07418906813177273
2 12.99038105676657295 -723.49999995339703673 82.99999999999656097 -0.50000000000000011 -0.86602540378443871 -0.00000000000000000 0.86602540378443871 -0.50000000000000011 0.00000000000000011 -0.00000000000000010 0.00000000000000006 1.00000000000000000 1.70000000004957852
2 12.99038105676657828 -723.49999995339703673 12.99999999999793765 -0.50000000000000011 -0.86602540378443871 -0.00000000000000000 0.86602540378443871 -0.50000000000000011 0.00000000000000011 -0.00000000000000010 0.00000000000000006 1.00000000000000000 1.70000000004957852
2 -0.00000000000003309 -715.99999995339703673 0.00000000000000000 0.00000000000000000 0.00000000000000000 -1.00000000000000000 -1.00000000000000000 -0.00000000000000000 -0.00000000000000000 -0.00000000000000000 1.00000000000000000 0.00000000000000000 585.07418906813177273
9 0 0 0 0 7 1 8 2 2 2 -0.00000000000007721 -130.92581088526520716 0.00000000000000000  -0.00000000000013494 -131.92581088526517874 0.00000000000000000  
43.76344700762087570 -130.92581088526532085 0.00000000000000000  43.68864718252945778 -131.92581088526611666 0.00000000000000000  
87.52689397970085849 -134.74489224259198750 0.00000000000000000  87.37729432958012410 -135.73836472620189397 0.00000000000000000  
130.89040792432570015 -142.38305387304677652 0.00000000000000000  130.66669200868517464 -143.36347132573911267 0.00000000000000000  
173.45405468820061401 -153.78794865125234992 0.00000000000000000  173.15758962799358756 -154.74887302939956157 0.00000000000000000  
214.82704017624101311 -168.85486361501159536 0.00000000000000000  214.45986103179976112 -169.79003584882880773 0.00000000000000000  
254.63683768916388317 -187.42916562806013303 0.00000000000000000  254.20161623785600113 -188.33259094437215708 0.00000000000000000  
292.53709455407346240 -209.31088913336657242 0.00000000000000000  292.03709455403924267 -210.17691453713126748 0.00000000000000000  

4.71238898038468967 8
5.23598775602247546 8

0.00000000000000000 2
1.00000000000000000 2

9 0 0 0 0 7 1 8 2 2 2 292.53709455407368978 -209.31088913336668611 93.00000000000000000  292.03709455403952688 -210.17691453713138117 93.00000000000000000  
254.63683768916408212 -187.42916562806021830 93.00000000000019895  254.20161623785634220 -188.33259094437229919 93.00000000000019895  
214.82704017624047310 -168.85486361501131114 92.99999999999955946  214.45986103179873794 -169.79003584882849509 92.99999999999955946  
173.45405468820092665 -153.78794865125351521 93.00000000000083844  173.15758962799500864 -154.74887302940010159 93.00000000000083844  
130.89040792432561489 -142.38305387304512806 92.99999999999894840  130.66669200868417988 -143.36347132573848739 92.99999999999894840  
87.52689397970034690 -134.74489224259284015 93.00000000000069633  87.37729432957995357 -135.73836472620220661 93.00000000000069633  
43.76344700762081885 -130.92581088526512190 92.99999999999982947  43.68864718252939383 -131.92581088526588928 92.99999999999982947  
-0.00000000000005684 -130.92581088526526401 93.00000000000000000  -0.00000000000005684 -131.92581088526526401 93.00000000000000000  

1.04719755115711055 8
1.57079632679489678 8

0.00000000000000000 2
1.00000000000000000 2

1 292.03709455405663675 -210.17691453714130034 0.00000000000000000 0.00000000000000000 0.00000000000000000 -1.00000000000000000 0.86602540377461945 -0.50000000001700740 0.00000000000000000 -0.50000000001700740 -0.86602540377461945 -0.00000000000000000 
1 292.03709455405663675 -210.17691453714130034 93.00000000000000000 0.00000000000000000 0.00000000000000000 1.00000000000000000 -0.86602540377461945 0.50000000001700740 0.00000000000000000 -0.50000000001700740 -0.86602540377461945 0.00000000000000000 
1 315.41978045597147684 -223.67691453760056675 0.00000000000000000 0.86602540377462300 -0.50000000001700129 0.00000000000000000 0.00000000000000000 0.00000000000000000 1.00000000000000000 -0.50000000001700129 -0.86602540377462300 0.00000000000000000 
1 -292.53709455407363293 -209.31088913336668611 0.00000000000000000 0.50000000001700740 -0.86602540377461945 0.00000000000000000 -0.86602540377461945 -0.50000000001700740 0.00000000000000000 0.00000000000000000 -0.00000000000000000 -1.00000000000000000 
9 0 0 0 0 7 1 8 2 2 2 -292.53709455407368978 -209.31088913336668611 0.00000000000000000  -292.03709455403952688 -210.17691453713138117 0.00000000000000000  
-254.63683768916408212 -187.42916562806021830 0.00000000000000000  -254.20161623785634220 -188.33259094437229919 0.00000000000000000  
-214.82704017624047310 -168.85486361501131114 0.00000000000000000  -214.45986103179873794 -169.79003584882849509 0.00000000000000000  
-173.45405468820092665 -153.78794865125351521 0.00000000000000000  -173.15758962799500864 -154.74887302940010159 0.00000000000000000  
-130.89040792432561489 -142.38305387304512806 0.00000000000000000  -130.66669200868417988 -143.36347132573848739 0.00000000000000000  
-87.52689397970034690 -134.74489224259284015 0.00000000000000000  -87.37729432957995357 -135.73836472620220661 0.00000000000000000  
-43.76344700762081885 -130.92581088526512190 0.00000000000000000  -43.68864718252939383 -131.92581088526588928 0.00000000000000000  
0.00000000000005684 -130.92581088526526401 0.00000000000000000  0.00000000000005684 -131.92581088526526401 0.00000000000000000  

1.04719755115711055 8
1.57079632679489678 8

0.00000000000000000 2
1.00000000000000000 2

9 0 0 0 0 7 1 8 2 2 2 0.00000000000007721 -130.92581088526520716 92.99999999999995737  0.00000000000013494 -131.92581088526517874 92.99999999999995737  
-43.76344700762087570 -130.92581088526532085 93.00000000000044054  -43.68864718252945778 -131.92581088526611666 93.00000000000044054  
-87.52689397970085849 -134.74489224259198750 92.99999999999904787  -87.37729432958012410 -135.73836472620189397 92.99999999999904787  
-130.89040792432570015 -142.38305387304677652 93.00000000000115108  -130.66669200868517464 -143.36347132573911267 93.00000000000115108  
-173.45405468820061401 -153.78794865125234992 92.99999999999916156  -173.15758962799358756 -154.74887302939956157 92.99999999999916156  
-214.82704017624101311 -168.85486361501159536 93.00000000000045475  -214.45986103179976112 -169.79003584882880773 93.00000000000045475  
-254.63683768916388317 -187.42916562806013303 92.99999999999982947  -254.20161623785600113 -188.33259094437215708 92.99999999999982947  
-292.53709455407346240 -209.31088913336657242 93.00000000000000000  -292.03709455403924267 -210.17691453713126748 93.00000000000000000  

4.71238898038468967 8
5.23598775602247546 8

0.00000000000000000 2
1.00000000000000000 2

2 0.00000000000003309 -715.99999995339703673 0.00000000000000000 -0.00000000000000000 -0.00000000000000000 -1.00000000000000000 1.00000000000000000 0.00000000000000000 0.00000000000000000 -0.00000000000000000 1.00000000000000000 -0.00000000000000000 584.07418906813177273
1 292.03709455405663675 -210.17691453714130034 0.00000000000000000 0.50000000001700740 0.86602540377461945 0.00000000000000000 0.86602540377461945 -0.50000000001700740 0.00000000000000000 0.00000000000000000 0.00000000000000000 -1.00000000000000000 
2 -12.99038105676675059 -723.49999995339703673 82.99999999999656097 0.49999999999999994 -0.86602540378443882 0.00000000000000011 -0.86602540378443882 -0.49999999999999989 -0.00000000000000008 -0.00000000000000012 0.00000000000000006 1.00000000000000000 1.70000000004957852
2 -12.99038105676674171 -723.49999995339703673 12.99999999999793410 0.49999999999999994 -0.86602540378443882 0.00000000000000011 -0.86602540378443882 -0.49999999999999989 -0.00000000000000008 -0.00000000000000012 0.00000000000000006 1.00000000000000000 1.70000000004957852
2 -0.00000000000003309 -715.99999995339703673 0.00000000000000000 0.00000000000000000 0.00000000000000000 -1.00000000000000000 -1.00000000000000000 -0.00000000000000000 -0.00000000000000000 -0.00000000000000000 1.00000000000000000 0.00000000000000000 584.07418906813177273
1 -292.03709455405663675 -210.17691453714130034 0.00000000000000000 0.00000000000000000 0.00000000000000000 -1.00000000000000000 0.86602540377461945 0.50000000001700740 0.00000000000000000 0.50000000001700740 -0.86602540377461945 0.00000000000000000 
1 -292.03709455405663675 -210.17691453714130034 93.00000000000000000 0.00000000000000000 0.00000000000000000 1.00000000000000000 -0.86602540377461945 -0.50000000001700740 0.00000000000000000 0.50000000001700740 -0.86602540377461945 0.00000000000000000 
1 -315.41978045597147684 -223.67691453760056675 0.00000000000000000 -0.86602540377462300 -0.50000000001700129 0.00000000000000000 -0.00000000000000000 0.00000000000000000 -1.00000000000000000 0.50000000001700129 -0.86602540377462300 -0.00000000000000000 
1 -292.03709455405663675 -210.17691453714130034 0.00000000000000000 0.50000000001700740 -0.86602540377461945 0.00000000000000000 -0.86602540377461945 -0.50000000001700740 0.00000000000000000 0.00000000000000000 -0.00000000000000000 -1.00000000000000000 
Triangulations 0

TShapes 130
Ve
0.000000102469508
292.537094554073633 -209.310889133366686 0.000000000000000
0 0

0101101
*
Ve
0.000000102469508
292.537094554073633 -209.310889133366686 93.000000000000000
0 0

0101101
*
Ed
 0.000000100000000 1 1 0
1  1 0 0.000000000000000 93.000000000000000
2  1 2 0 0.000000000000000 93.000000000000000
4 G1 1 0 2 0
0

0101000
+130 7 -129 7 *
Ve
0.000000102469508
315.919780455988473 -222.810889133825953 0.000000000000000
0 0

0101101
*
Ed
 0.000000100000000 1 1 0
1  2 0 0.000000000000000 27.000000000000131
0

0101000
+130 7 -127 7 *
Ve
0.000000102469508
315.919780455988473 -222.810889133825953 93.000000000000000
0 0

0101101
*
Ed
 0.000000100000000 1 1 0
1  3 0 0.000000000000000 27.000000000000131
0

0101000
+129 10 -125 10 *
Ed
 0.000000102469508 1 1 0
1  4 0 0.000000000000000 93.000000000000000
0

0101000
+127 7 -125 7 *
Wi

0101100
+128 5 -126 5 +124 9 -123 5 *
Ve
0.000000100033417
306.999718777144949 -217.660889122123990 82.999999999996504
0 0

0101101
*
Ed
 0.000000100000000 1 1 0
1  5 0 0.000000000000000 6.283185307179586
2  2 3 0 0.000000000000000 6.283185307179586
0

0101100
+121 11 -121 11 *
Wi

0101100
+120 0 *
Ve
0.000000100033417
306.999718777144949 -217.660889122123990 12.999999999997877
0 0

0101101
*
Ed
 0.000000100000000 1 1 0
1  6 0 0.000000000000000 6.283185307179586
2  3 4 0 0.000000000000000 6.283185307179586
0

0101100
+118 11 -118 11 *
Wi

0101100
+117 0 *
Fa
0  0.000000100000000 1 5

0111000
+122 0 +119 0 +116 0 *
Ve
0.000000102469508
0.000000000000061 -130.925810885265264 0.000000000000000
0 0

0101101
*
Ve
0.000000102469508
0.000000000000061 -130.925810885265264 93.000000000000000
0 0

0101101
*
Ed
 0.000000100000000 1 1 0
1  7 0 0.000000000000000 93.000000000000000
2  4 2 0 0.000000000000000 93.000000000000000
2  5 5 0 0.000000000000000 93.000000000000000
4 C2 2 0 5 0
0

0101000
+114 7 -113 7 *
Ed
 0.000000100000000 1 1 0
1  8 0 1.047197551157111 1.570796326794897
2  6 2 0 1.047197551157111 1.570796326794897
2  7 6 0 1.047197551157111 1.570796326794897
0

0101000
+130 7 -114 7 *
Ed
 0.000000100000000 1 1 0
1  9 0 1.047197551157111 1.570796326794897
2  8 2 13 1.047197551157111 1.570796326794897
2  9 7 13 1.047197551157111 1.570796326794897
0

0101000
+129 10 -113 10 *
Wi

0101100
+128 0 -112 0 -111 0 +110 8 *
Fa
0  0.000000100000000 2 0

0111000
+109 0 *
Ve
0.000000102469508
315.419780455971477 -223.676914537600567 0.000000000000000
0 0

0101101
*
Ed
 0.000000100000000 1 1 0
1  10 0 0.000000000000000 1.000000000000000
0

0101000
+127 7 -107 7 *
Ve
0.000000102479421
292.037094554048053 -210.176914537136327 0.000000000000000
0 0

0101101
*
Ed
 0.000000100000000 1 1 0
1  11 0 0.000000000000000 27.000000000000131
0

0101000
+105 7 -107 7 *
Ed
 0.000000100018169 1 1 0
1  12 0 0.000000000000000 1.000000000000000
2  10 6 0 0.000000000000000 1.000000000000000
0

0101000
+130 7 -105 7 *
Wi

0101100
+126 0 +106 0 -104 0 -103 0 *
Fa
0  0.000000100000000 8 0

0111000
+102 0 *
Ve
0.000000102479421
292.037094554048053 -210.176914537136327 93.000000000000000
0 0

0101101
*
Ed
 0.000000100018169 1 1 0
1  13 0 0.000000000000000 1.000000000000000
2  11 7 0 0.000000000000000 1.000000000000000
0

0101000
+129 7 -100 7 *
Ve
0.000000102469508
315.419780455971477 -223.676914537600567 93.000000000000000
0 0

0101101
*
Ed
 0.000000100000000 1 1 0
1  14 0 0.000000000000000 27.000000000000131
0

0101000
+100 7 -98 7 *
Ed
 0.000000100000000 1 1 0
1  15 0 0.000000000000000 1.000000000000000
0

0101000
+125 7 -98 7 *
Wi

0101100
-124 8 +99 0 +97 0 -96 0 *
Fa
0  0.000000100000000 9 0

0111000
+95 0 *
Ed
 0.000000100000000 1 1 0
1  16 0 0.000000000000000 93.000000000000000
0

0101000
+107 7 -98 7 *
Wi

0101000
+123 0 +96 0 -93 0 -106 0 *
Fa
0  0.000000100000000 10 0

0111000
+92 0 *
Ve
0.000000100033466
306.499718777144949 -218.526914525908467 82.999999999996504
0 0

0101101
*
Ed
 0.000000100000000 1 1 0
1  17 0 0.000000000000000 6.283185307179586
2  12 3 0 0.000000000000000 6.283185307179586
0

0101100
+90 11 -90 11 *
Ed
 0.000000100000000 1 1 0
1  18 0 584.074189067803786 585.074189067803786
3  13 14CN 3 0 584.074189067803786 585.074189067803786
0

0101000
+90 11 -121 11 *
Wi

0101100
-89 0 -88 0 +120 0 +88 0 *
Fa
0  0.000000100000000 3 0

0111000
+87 0 *
Ve
0.000000100033466
306.499718777144949 -218.526914525908467 12.999999999997877
0 0

0101101
*
Ed
 0.000000100000000 1 1 0
1  19 0 0.000000000000000 6.283185307179586
2  15 4 0 0.000000000000000 6.283185307179586
0

0101100
+85 11 -85 11 *
Ed
 0.000000100000000 1 1 0
1  20 0 584.074189067803786 585.074189067803786
3  16 17CN 4 0 584.074189067803786 585.074189067803786
0

0101000
+85 11 -118 11 *
Wi

0101100
-84 0 -83 0 +117 0 +83 0 *
Fa
0  0.000000100000000 4 0

0111000
+82 0 *
Ve
0.000000102469508
-292.537094554073633 -209.310889133366686 0.000000000000000
0 0

0101101
*
Ve
0.000000102469508
-292.537094554073633 -209.310889133366686 93.000000000000000
0 0

0101101
*
Ed
 0.000000100000000 1 1 0
1  21 0 0.000000000000000 93.000000000000000
2  18 5 0 0.000000000000000 93.000000000000000
4 G1 5 0 11 0
0

0101000
+80 7 -79 7 *
Ed
 0.000000100000000 1 1 0
1  22 0 1.047197551157111 1.570796326794897
2  19 5 0 1.047197551157111 1.570796326794897
2  20 12 0 1.047197551157111 1.570796326794897
0

0101000
+80 7 -114 7 *
Ed
 0.000000100000000 1 1 0
1  23 0 1.047197551157111 1.570796326794897
2  21 5 13 1.047197551157111 1.570796326794897
2  22 13 13 1.047197551157111 1.570796326794897
0

0101000
+79 10 -113 10 *
Wi

0101100
+78 0 -112 0 -77 0 +76 8 *
Fa
0  0.000000100000000 5 0

0111000
+75 0 *
Ve
0.000000102469568
-0.000000000000000 -131.925810885265264 0.000000000000000
0 0

0101101
*
Ed
 0.000000100000000 1 1 0
1  24 0 1.047197551157111 1.570796326794897
2  23 6 0 1.047197551157111 1.570796326794897
2  6 14 0 1.047197551157111 1.570796326794897
0

0101000
+105 7 -73 7 *
Ed
 0.000000100000112 1 1 0
1  25 0 0.000000000000000 1.000000000000000
2  24 6 0 0.000000000000000 1.000000000000000
2  25 12 0 0.000000000000000 1.000000000000000
0

0101000
+114 7 -73 7 *
Wi

0101100
-111 0 +103 0 +72 0 -71 0 *
Fa
0  0.000000100000000 6 0

0111000
+70 0 *
Ve
0.000000102469568
-0.000000000000000 -131.925810885265264 93.000000000000000
0 0

0101101
*
Ed
 0.000000100000118 1 1 0
1  26 0 0.000000000000000 1.000000000000000
2  26 7 0 0.000000000000000 1.000000000000000
2  27 13 0 0.000000000000000 1.000000000000000
0

0101000
+113 7 -68 7 *
Ed
 0.000000100000000 1 1 0
1  27 0 1.047197551157111 1.570796326794897
2  28 7 0 1.047197551157111 1.570796326794897
2  8 14 0 1.047197551157111 1.570796326794897
0

0101000
+100 7 -68 7 *
Wi

0101100
+110 8 +67 0 -66 0 -99 0 *
Fa
0  0.000000100000000 7 0

0111000
+65 0 *
Ed
 0.000000100019826 1 1 0
1  28 0 0.000000000000000 93.000000000000000
2  29 14 0 0.000000000000000 93.000000000000000
0

0101000
+105 7 -100 7 *
Wi

0101100
+63 5 -104 5 +97 5 -93 5 *
Wi

0101100
+89 0 *
Wi

0101100
+84 0 *
Fa
0  0.000000100000000 15 5

0111000
+62 0 +61 0 +60 0 *
Ve
0.000000102469508
-315.919780455988473 -222.810889133825953 0.000000000000000
0 0

0101101
*
Ed
 0.000000100000000 1 1 0
1  29 0 0.000000000000000 27.000000000000131
0

0101000
+80 7 -58 7 *
Ve
0.000000102469508
-315.919780455988473 -222.810889133825953 93.000000000000000
0 0

0101101
*
Ed
 0.000000100000000 1 1 0
1  30 0 0.000000000000000 27.000000000000131
0

0101000
+79 10 -56 10 *
Ed
 0.000000102469508 1 1 0
1  31 0 0.000000000000000 93.000000000000000
0

0101000
+58 7 -56 7 *
Wi

0101100
+78 12 -57 12 +55 14 -54 12 *
Ve
0.000000100033466
-306.999718777144949 -217.660889122124047 82.999999999996433
0 0

0101101
*
Ed
 0.000000100000000 1 1 0
1  32 0 0.000000000000000 6.283185307179586
2  30 16 15 0.000000000000000 6.283185307179586
0

0101100
+52 16 -52 16 *
Wi

0101100
-51 0 *
Ve
0.000000100033466
-306.999718777144949 -217.660889122124047 12.999999999997808
0 0

0101101
*
Ed
 0.000000100000000 1 1 0
1  33 0 0.000000000000000 6.283185307179586
2  31 17 15 0.000000000000000 6.283185307179586
0

0101100
+49 16 -49 16 *
Wi

0101100
-48 0 *
Fa
0  0.000000100000000 11 12

0111000
+53 0 +50 0 +47 0 *
Ve
0.000000102479421
-292.037094554048053 -210.176914537136327 0.000000000000000
0 0

0101101
*
Ed
 0.000000100000000 1 1 0
1  34 0 1.047197551157111 1.570796326794897
2  32 12 0 1.047197551157111 1.570796326794897
2  19 18 0 1.047197551157111 1.570796326794897
0

0101000
+45 7 -73 7 *
Ed
 0.000000100018184 1 1 0
1  35 0 0.000000000000000 1.000000000000000
2  33 12 0 0.000000000000000 1.000000000000000
0

0101000
+80 7 -45 7 *
Wi

0101100
+77 0 +71 0 -44 0 -43 0 *
Fa
0  0.000000100000000 12 0

0111000
+42 0 *
Ve
0.000000102479421
-292.037094554048053 -210.176914537136327 93.000000000000000
0 0

0101101
*
Ed
 0.000000100018437 1 1 0
1  36 0 0.000000000000000 1.000000000000000
2  34 13 0 0.000000000000000 1.000000000000000
0

0101000
+79 7 -40 7 *
Ed
 0.000000100000000 1 1 0
1  37 0 1.047197551157111 1.570796326794897
2  35 13 0 1.047197551157111 1.570796326794897
2  21 18 0 1.047197551157111 1.570796326794897
0

0101000
+40 7 -68 7 *
Wi

0101100
-76 8 +39 0 +38 0 -67 0 *
Fa
0  0.000000100000000 13 0

0111000
+37 0 *
Ed
 0.000000100000122 1 1 0
1  38 0 0.000000000000000 93.000000000000000
2  4 14 0 0.000000000000000 93.000000000000000
2  36 18 0 0.000000000000000 93.000000000000000
0

0101000
+73 7 -68 7 *
Wi

0101100
+63 0 -35 0 -72 0 +66 0 *
Fa
0  0.000000100000000 14 0

0111000
+34 0 *
Ve
0.000000102469508
-315.419780455971477 -223.676914537600567 0.000000000000000
0 0

0101101
*
Ed
 0.000000100000000 1 1 0
1  39 0 0.000000000000000 27.000000000000131
0

0101000
+45 7 -32 7 *
Ed
 0.000000100000000 1 1 0
1  40 0 0.000000000000000 1.000000000000000
0

0101000
+58 7 -32 7 *
Wi

0101100
-57 0 +43 0 +31 0 -30 0 *
Fa
0  0.000000100000000 19 0

0111000
+29 0 *
Ve
0.000000102469508
-315.419780455971477 -223.676914537600567 93.000000000000000
0 0

0101101
*
Ed
 0.000000100000000 1 1 0
1  41 0 0.000000000000000 1.000000000000000
0

0101000
+56 7 -27 7 *
Ed
 0.000000100000000 1 1 0
1  42 0 0.000000000000000 27.000000000000131
0

0101000
+40 7 -27 7 *
Wi

0101100
+55 8 +26 0 -25 0 -39 0 *
Fa
0  0.000000100000000 20 0

0111000
+24 0 *
Ed
 0.000000100000000 1 1 0
1  43 0 0.000000000000000 93.000000000000000
0

0101000
+32 7 -27 7 *
Wi

0101000
-54 0 +30 0 +22 0 -26 0 *
Fa
0  0.000000100000000 21 0

0111000
+21 0 *
Ve
0.000000100033388
-306.499718777145006 -218.526914525908410 82.999999999996433
0 0

0101101
*
Ed
 0.000000100000000 1 1 0
1  44 0 0.000000000000000 6.283185307179586
2  37 16 15 0.000000000000000 6.283185307179586
0

0101100
+19 16 -19 16 *
Ed
 0.000000100000000 1 1 0
1  45 0 584.074189067803900 585.074189067803673
3  38 39CN 16 0 584.074189067803900 585.074189067803673
0

0101000
+19 17 -52 17 *
Wi

0101100
+18 0 -17 15 -51 0 +17 15 *
Fa
0  0.000000100000000 16 15

0111000
+16 0 *
Ve
0.000000100033388
-306.499718777145006 -218.526914525908410 12.999999999997808
0 0

0101101
*
Ed
 0.000000100000000 1 1 0
1  46 0 0.000000000000000 6.283185307179586
2  40 17 15 0.000000000000000 6.283185307179586
0

0101100
+14 16 -14 16 *
Ed
 0.000000100000000 1 1 0
1  47 0 584.074189067803900 585.074189067803673
3  41 42CN 17 0 584.074189067803900 585.074189067803673
0

0101000
+14 17 -49 17 *
Wi

0101100
+13 0 -12 15 -48 0 +12 15 *
Fa
0  0.000000100000000 17 15

0111000
+11 0 *
Ed
 0.000000100019826 1 1 0
1  48 0 0.000000000000000 93.000000000000000
2  18 18 0 0.000000000000000 93.000000000000000
0

0101000
+45 7 -40 7 *
Wi

0101100
+9 0 -35 0 -44 0 +38 0 *
Fa
0  0.000000100000000 18 0

0111000
+8 0 *
Wi

0101100
+9 12 -31 12 +25 12 -22 12 *
Wi

0101100
-18 0 *
Wi

0101100
-13 0 *
Fa
0  0.000000100000000 22 12

0111000
+6 0 +5 0 +4 0 *
Sh

0101100
+115 2 -108 12 +101 12 +94 12 +91 12 -86 2 -81 2 +74 12 +69 12 +64 12 
-59 2 -46 0 +41 12 +36 12 +33 12 +28 12 +23 12 +20 12 +15 0 +10 0 
-7 12 +3 0 *
So

1100000
+2 0 *

+1 1 