
CASCADE Topology V1, (c) Matra-Datavision
Locations 38
1
1.000000000000000 0.000000000000000 0.000000000000000 0.000000000000000 
0.000000000000000 1.000000000000000 0.000000000000000 0.000000000000000 
0.000000000000000 0.000000000000000 1.000000000000000 0.000000000000000 
1
0.000000000000000 0.000000000000000 -1.000000000000000 -41.299999999999415 
0.000000000000000 1.000000000000000 0.000000000000000 0.000000000000000 
1.000000000000000 0.000000000000000 0.000000000000000 41.099999999999419 
1
0.000000000000000 0.000000000000000 -1.000000000000000 -41.299999999999415 
0.000000000000000 1.000000000000000 0.000000000000000 0.000000000000000 
1.000000000000000 0.000000000000000 0.000000000000000 41.099999999999419 
2  3 -1 0
2  2 1 3 -1 0
1
1.000000000000000 0.000000000000000 0.000000000000000 0.000000000000000 
0.000000000000000 1.000000000000000 0.000000000000000 0.000000000000000 
0.000000000000000 0.000000000000000 1.000000000000000 -0.300000000000000 
2  6 -1 0
2  2 -1 0
2  6 1 2 1 0
2  2 -1 6 -1 0
1
1.000000000000000 0.000000000000000 0.000000000000000 0.000000000000000 
0.000000000000000 1.000000000000000 0.000000000000000 0.000000000000000 
0.000000000000000 0.000000000000000 1.000000000000000 0.000000000000000 
2  11 -1 0
2  6 1 2 1 3 -1 0
1
1.000000000000000 0.000000000000000 0.000000000000000 0.000000000000000 
0.000000000000000 1.000000000000000 0.000000000000000 0.000000000000000 
0.000000000000000 0.000000000000000 1.000000000000000 0.000000000000000 
1
1.000000000000000 0.000000000000000 0.000000000000000 0.000000000000000 
0.000000000000000 1.000000000000000 0.000000000000000 0.000000000000000 
0.000000000000000 0.000000000000000 1.000000000000000 0.000000000000000 
1
1.000000000000000 0.000000000000000 0.000000000000000 0.000000000000000 
0.000000000000000 1.000000000000000 0.000000000000000 0.000000000000000 
0.000000000000000 0.000000000000000 1.000000000000000 0.000000000000000 
1
1.000000000000000 0.000000000000000 0.000000000000000 0.000000000000000 
0.000000000000000 1.000000000000000 0.000000000000000 0.000000000000000 
0.000000000000000 0.000000000000000 1.000000000000000 0.300000000000000 
2  14 1 15 1 16 -1 17 1 11 1 0
2  17 -1 16 1 15 -1 14 -1 0
2  15 -1 14 -1 0
2  11 -1 17 -1 16 1 15 -1 14 -1 0
2  14 1 15 1 16 -1 11 1 0
2  16 1 15 -1 14 -1 0
2  11 -1 16 1 15 -1 14 -1 0
2  16 -1 17 1 11 1 0
2  16 -1 11 1 0
2  14 1 15 1 16 -1 0
2  14 1 15 1 16 -1 17 1 0
1
0.000000000000000 0.000000000000000 1.000000000000000 41.299999999999415 
0.000000000000000 1.000000000000000 0.000000000000000 0.000000000000000 
-1.000000000000000 0.000000000000000 0.000000000000000 41.099999999999419 
2  29 -1 0
1
0.000000000000000 0.000000000000000 1.000000000000000 41.299999999999415 
0.000000000000000 1.000000000000000 0.000000000000000 0.000000000000000 
-1.000000000000000 0.000000000000000 0.000000000000000 41.099999999999419 
2  31 1 29 -1 0
1
1.000000000000000 0.000000000000000 0.000000000000000 0.000000000000000 
0.000000000000000 1.000000000000000 0.000000000000000 0.000000000000000 
0.000000000000000 0.000000000000000 1.000000000000000 -0.300000000000000 
2  33 1 31 1 29 -1 0
2  33 -1 0
2  31 -1 0
2  33 1 31 1 0
2  31 -1 33 -1 0
Curve2ds 130
1 0.40000000000000002 0.00000000000000000 -1.00000000000000000 0.00000000000000000 
1 -0.00000000000000139 0.39999999999999858 -0.00000000000000011 -1.00000000000000000 
1 -0.15000000000000002 -16.02072950340601665 1.00000000000000000 -0.00000000000000000 
1 0.00000000000000000 0.00000000000000000 0.00000000000000000 -1.00000000000000000 
1 31.00000000000000000 0.00000000000000000 0.00000000000000000 -1.00000000000000000 
1 0.00000000000000000 0.00000000000000000 0.00000000000000000 -1.00000000000000000 
1 0.00000000000000000 0.00000000000000000 1.00000000000000000 0.00000000000000000 
1 0.00000000000000000 -0.29999999999999999 1.00000000000000000 0.00000000000000000 
1 15.50000000000000711 16.02072950340598823 -1.00000000000000000 0.00000000000000000 
1 0.00000000000000000 32.04145900681201908 1.00000000000000000 0.00000000000000000 
2 0.00000000000000000 0.00000000000000000 1.00000000000000000 0.00000000000000000 -0.00000000000000000 1.00000000000000000 0.40000000000000002
2 0.00000000000000000 0.00000000000000000 1.00000000000000000 0.00000000000000000 -0.00000000000000000 1.00000000000000000 0.10000000000000003
1 0.00000000000000000 0.00000000000000000 1.00000000000000000 0.00000000000000000 
1 26.02776295505891113 0.00000000000000000 0.00000000000000000 -1.00000000000000000 
1 0.00000000000000000 0.00000000000000000 0.00000000000000000 -1.00000000000000000 
1 0.10000000000000003 0.00000000000000000 1.00000000000000000 0.00000000000000000 
1 0.00000000000000000 0.00000000000000000 0.00000000000000000 -1.00000000000000000 
1 32.04145900681201908 0.00000000000000000 0.00000000000000000 -1.00000000000000000 
1 -15.49999999999999289 16.02072950340598823 0.00000000000000000 -1.00000000000000000 
1 0.00000000000000000 0.00000000000000000 1.00000000000000000 0.00000000000000000 
1 0.00000000000000000 -0.29999999999999999 1.00000000000000000 0.00000000000000000 
1 0.00000000000000000 0.00000000000000000 0.00000000000000000 1.00000000000000000 
1 1.57079632679489656 0.00000000000000000 0.00000000000000000 1.00000000000000000 
1 -0.15000000000000002 16.02072950340600244 0.00000000000000000 -1.00000000000000000 
1 15.50000000000000711 -16.02072950340603086 0.00000000000000000 1.00000000000000000 
1 0.00000000000000000 0.00000000000000000 1.00000000000000000 0.00000000000000000 
1 0.00000000000000000 -0.29999999999999999 1.00000000000000000 0.00000000000000000 
1 -15.49999999999999289 -16.02072950340603086 1.00000000000000000 0.00000000000000000 
1 0.00000000000000000 0.00000000000000000 0.00000000000000000 1.00000000000000000 
1 1.57079632679489656 0.00000000000000000 0.00000000000000000 1.00000000000000000 
1 0.14999999999999997 -16.02072950340601665 0.00000000000000000 1.00000000000000000 
1 15.50000000000000711 16.02072950340598823 0.00000000000000000 -1.00000000000000000 
1 0.00000000000000000 0.00000000000000000 1.00000000000000000 0.00000000000000000 
2 0.00000000000000000 0.00000000000000000 -1.00000000000000000 0.00000000000000000 0.00000000000000000 1.00000000000000000 0.40000000000000002
1 0.00000000000000000 -0.29999999999999999 1.00000000000000000 0.00000000000000000 
1 -41.19999999999941309 13.84642415414526795 0.00000000000000000 -1.00000000000000000 
8 0.00000000000000000 32.04145900681201908
1 0.00000000000000000 32.04145900681201908 -0.00000000000000000 -1.00000000000000000 
1 0.00000000000000000 32.04145900681201908 1.00000000000000000 0.00000000000000000 
2 0.00000000000000000 0.00000000000000000 -1.00000000000000000 0.00000000000000000 0.00000000000000000 1.00000000000000000 0.10000000000000003
1 0.00000000000000000 0.00000000000000000 1.00000000000000000 0.00000000000000000 
1 -41.19999999999941309 13.84642415414526795 0.00000000000000000 -1.00000000000000000 
8 0.00000000000000000 32.04145900681201908
1 0.00000000000000000 0.00000000000000000 0.00000000000000000 1.00000000000000000 
1 1.87402178629321936 0.00000000000000000 0.00000000000000000 -1.00000000000000000 
1 0.00000000000000000 0.00000000000000000 0.00000000000000000 -1.00000000000000000 
1 0.00000000000000000 0.00000000000000000 1.00000000000000000 0.00000000000000000 
1 -16.35966698284722654 21.61831581845169126 -0.95437833286106821 -0.29860006323731458 
1 0.00000000000000000 -0.29999999999999999 1.00000000000000000 0.00000000000000000 
1 -16.35966698284722654 21.61831581845169126 -0.95437833286106821 -0.29860006323731458 
1 -0.10000000000000003 0.00000000000000000 -1.00000000000000000 0.00000000000000000 
1 0.00000000000000139 0.10000000000000142 -0.00000000000000011 1.00000000000000000 
1 0.14999999999999997 16.02072950340600244 -1.00000000000000000 0.00000000000000000 
1 31.00000000000000000 -0.29999999999999999 0.00000000000000000 1.00000000000000000 
1 0.00000000000000000 0.00000000000000000 0.00000000000000000 -1.00000000000000000 
1 32.04145900681201908 0.00000000000000000 0.00000000000000000 -1.00000000000000000 
1 -0.10000000000000003 0.00000000000000000 -1.00000000000000000 0.00000000000000000 
1 0.00000000000000000 -0.29999999999999999 1.00000000000000000 0.00000000000000000 
1 -41.19999999999941309 -18.19503485266675114 1.00000000000000000 0.00000000000000000 
1 0.00000000000000000 -0.29999999999999999 1.00000000000000000 0.00000000000000000 
1 41.19999999999942730 -18.19503485266675114 0.00000000000000000 1.00000000000000000 
8 0.00000000000000000 32.04145900681201908
1 0.00000000000000000 32.04145900681201908 -0.00000000000000000 -1.00000000000000000 
1 0.00000000000000000 -0.29999999999999999 1.00000000000000000 0.00000000000000000 
1 41.19999999999942730 13.84642415414526795 -0.95437833286106810 0.29860006323731497 
1 0.00000000000000000 -0.29999999999999999 1.00000000000000000 0.00000000000000000 
2 14.86666666666079450 16.84642415414631955 1.00000000000000000 0.00000000000000000 -0.00000000000000000 1.00000000000000000 5.00000000000000000
1 0.00000000000000000 -0.29999999999999999 1.00000000000000000 0.00000000000000000 
1 14.86666666666079450 21.84642415414631955 -1.00000000000000000 0.00000000000000000 
1 0.00000000000000000 -0.29999999999999999 1.00000000000000000 0.00000000000000000 
2 -14.86666666666071457 16.84642415414631955 1.00000000000000000 0.00000000000000000 -0.00000000000000000 1.00000000000000000 5.00000000000000000
1 0.00000000000000000 0.00000000000000000 1.00000000000000000 0.00000000000000000 
1 -41.19999999999941309 -18.19503485266675114 1.00000000000000000 0.00000000000000000 
1 0.00000000000000000 0.00000000000000000 1.00000000000000000 0.00000000000000000 
1 41.19999999999942730 -18.19503485266675114 0.00000000000000000 1.00000000000000000 
8 0.00000000000000000 32.04145900681201908
1 0.00000000000000000 0.00000000000000000 0.00000000000000000 1.00000000000000000 
1 0.00000000000000000 0.00000000000000000 1.00000000000000000 0.00000000000000000 
1 41.19999999999942730 13.84642415414526795 -0.95437833286106810 0.29860006323731497 
1 0.00000000000000000 0.00000000000000000 1.00000000000000000 0.00000000000000000 
2 14.86666666666079450 16.84642415414631955 1.00000000000000000 0.00000000000000000 -0.00000000000000000 1.00000000000000000 5.00000000000000000
1 0.00000000000000000 -0.00000000000000000 1.00000000000000000 0.00000000000000000 
1 14.86666666666079450 21.84642415414631955 -1.00000000000000000 0.00000000000000000 
1 0.00000000000000000 0.00000000000000000 1.00000000000000000 0.00000000000000000 
2 -14.86666666666071457 16.84642415414631955 1.00000000000000000 0.00000000000000000 -0.00000000000000000 1.00000000000000000 5.00000000000000000
1 29.73333333332151085 0.00000000000000000 0.00000000000000000 -1.00000000000000000 
1 1.57079632679489656 0.00000000000000000 0.00000000000000000 -1.00000000000000000 
1 82.39999999999884039 0.00000000000000000 0.00000000000000000 -1.00000000000000000 
1 0.00000000000000000 0.00000000000000000 0.00000000000000000 -1.00000000000000000 
1 0.10000000000000003 0.00000000000000000 1.00000000000000000 0.00000000000000000 
1 0.00000000000000000 0.00000000000000000 1.00000000000000000 0.00000000000000000 
2 0.00000000000000000 0.00000000000000000 -1.00000000000000000 0.00000000000000000 0.00000000000000000 1.00000000000000000 0.40000000000000002
1 0.00000000000000000 32.04145900681201908 1.00000000000000000 0.00000000000000000 
2 0.00000000000000000 0.00000000000000000 1.00000000000000000 0.00000000000000000 -0.00000000000000000 1.00000000000000000 0.40000000000000002
1 0.00000000000000000 0.00000000000000000 0.00000000000000000 1.00000000000000000 
1 1.57079632679489656 0.00000000000000000 0.00000000000000000 1.00000000000000000 
1 0.15000000000000002 -16.02072950340604507 0.00000000000000000 1.00000000000000000 
1 -15.50000000000000711 16.02072950340598823 0.00000000000000000 -1.00000000000000000 
1 32.04145900681201908 0.00000000000000000 0.00000000000000000 -1.00000000000000000 
1 0.00000000000000000 0.00000000000000000 0.00000000000000000 -1.00000000000000000 
1 -0.10000000000000003 0.00000000000000000 -1.00000000000000000 0.00000000000000000 
1 26.02776295505878323 0.00000000000000000 0.00000000000000000 -1.00000000000000000 
1 1.26757086729656221 0.00000000000000000 0.00000000000000000 -1.00000000000000000 
1 1.57079632679489656 0.00000000000000000 0.00000000000000000 -1.00000000000000000 
1 0.00000000000000000 -0.00000000000000000 0.00000000000000000 -1.00000000000000000 
2 0.00000000000000000 0.00000000000000000 1.00000000000000000 0.00000000000000000 -0.00000000000000000 1.00000000000000000 0.10000000000000003
1 0.00000000000000000 0.00000000000000000 1.00000000000000000 0.00000000000000000 
1 0.00000000000000000 32.04145900681201908 1.00000000000000000 0.00000000000000000 
2 0.00000000000000000 0.00000000000000000 -1.00000000000000000 0.00000000000000000 0.00000000000000000 1.00000000000000000 0.10000000000000003
1 0.00000000000000000 0.00000000000000000 0.00000000000000000 1.00000000000000000 
1 1.57079632679489656 0.00000000000000000 0.00000000000000000 1.00000000000000000 
1 -0.14999999999999997 16.02072950340597401 0.00000000000000000 -1.00000000000000000 
1 -15.50000000000000711 -16.02072950340603086 0.00000000000000000 1.00000000000000000 
1 0.40000000000000002 0.00000000000000000 -1.00000000000000000 0.00000000000000000 
1 -0.00000000000000139 0.39999999999999858 -0.00000000000000011 -1.00000000000000000 
1 0.15000000000000002 16.02072950340597401 -1.00000000000000000 -0.00000000000000000 
1 0.00000000000000000 0.00000000000000000 0.00000000000000000 -1.00000000000000000 
1 -0.10000000000000003 0.00000000000000000 -1.00000000000000000 0.00000000000000000 
1 0.00000000000000139 0.10000000000000142 -0.00000000000000011 1.00000000000000000 
1 -0.14999999999999997 -16.02072950340604507 1.00000000000000000 0.00000000000000000 
1 31.00000000000000000 -0.29999999999999999 0.00000000000000000 1.00000000000000000 
1 0.00000000000000000 0.00000000000000000 1.00000000000000000 0.00000000000000000 
1 0.00000000000000000 -0.29999999999999999 1.00000000000000000 0.00000000000000000 
1 -15.50000000000000711 -16.02072950340603086 1.00000000000000000 0.00000000000000000 
1 15.49999999999999289 -16.02072950340603086 0.00000000000000000 1.00000000000000000 
1 0.00000000000000000 0.00000000000000000 1.00000000000000000 0.00000000000000000 
1 0.00000000000000000 -0.29999999999999999 1.00000000000000000 0.00000000000000000 
1 15.49999999999999289 16.02072950340598823 -1.00000000000000000 0.00000000000000000 
1 0.00000000000000000 0.00000000000000000 1.00000000000000000 0.00000000000000000 
1 0.00000000000000000 -0.29999999999999999 1.00000000000000000 0.00000000000000000 
1 31.00000000000000000 0.00000000000000000 0.00000000000000000 -1.00000000000000000 
1 0.00000000000000000 0.00000000000000000 0.00000000000000000 -1.00000000000000000 
1 0.00000000000000000 0.00000000000000000 0.00000000000000000 -1.00000000000000000 
1 32.04145900681201908 0.00000000000000000 0.00000000000000000 -1.00000000000000000 
Curves 50
1 -41.19999999999942020 152.62175689746464968 0.29999999999999999 0.00000000000000000 0.00000000000000000 -1.00000000000000000 
1 -72.19999999999942020 152.62175689746464968 0.29999999999999999 0.00000000000000000 0.00000000000000000 -1.00000000000000000 
1 -41.19999999999942020 152.62175689746464968 0.29999999999999999 -1.00000000000000000 0.00000000000000000 0.00000000000000000 
2 -41.19999999999942020 152.62175689746464968 -0.10000000000000003 0.00000000000000000 -1.00000000000000000 0.00000000000000000 0.00000000000000000 0.00000000000000000 1.00000000000000000 -1.00000000000000000 0.00000000000000000 0.00000000000000000 0.40000000000000002
2 -41.19999999999942020 152.62175689746464968 -0.10000000000000003 0.00000000000000000 -1.00000000000000000 0.00000000000000000 0.00000000000000000 0.00000000000000000 1.00000000000000000 -1.00000000000000000 0.00000000000000000 0.00000000000000000 0.10000000000000003
1 -41.19999999999942020 152.62175689746464968 0.00000000000000000 0.00000000000000000 0.00000000000000000 1.00000000000000000 
1 -72.19999999999942020 120.58029789065263060 0.29999999999999999 0.00000000000000000 0.00000000000000000 -1.00000000000000000 
1 -72.19999999999942020 152.62175689746464968 0.29999999999999999 0.00000000000000000 -1.00000000000000000 0.00000000000000000 
1 -41.19999999999942020 120.58029789065263060 0.29999999999999999 0.00000000000000000 1.00000000000000000 0.00000000000000000 
1 -72.19999999999942020 120.58029789065263060 0.29999999999999999 1.00000000000000000 0.00000000000000000 0.00000000000000000 
1 -41.19999999999942020 152.62175689746464968 0.00000000000000000 0.00000000000000000 -1.00000000000000000 0.00000000000000000 
2 -41.19999999999942020 120.58029789065263060 -0.10000000000000003 0.00000000000000000 -1.00000000000000000 0.00000000000000000 0.00000000000000000 0.00000000000000000 1.00000000000000000 -1.00000000000000000 0.00000000000000000 0.00000000000000000 0.40000000000000002
1 -41.19999999999942020 152.62175689746464968 0.00000000000000000 0.00000000000000000 -1.00000000000000000 0.00000000000000000 
2 -41.19999999999942020 120.58029789065263060 -0.10000000000000003 0.00000000000000000 -1.00000000000000000 0.00000000000000000 0.00000000000000000 0.00000000000000000 1.00000000000000000 -1.00000000000000000 0.00000000000000000 0.00000000000000000 0.10000000000000003
1 -41.19999999999942020 152.62175689746464968 0.00000000000000000 0.00000000000000000 -1.00000000000000000 0.00000000000000000 
1 -16.35966698284723009 160.39364856177107299 0.00000000000000000 0.00000000000000000 0.00000000000000000 1.00000000000000000 
1 -16.35966698284723009 160.39364856177107299 0.00000000000000000 -0.95437833286106821 -0.29860006323731458 0.00000000000000000 
1 -16.35966698284723009 160.39364856177107299 0.00000000000000000 -0.95437833286106821 -0.29860006323731458 0.00000000000000000 
1 -41.19999999999942020 120.58029789065263060 0.00000000000000000 0.00000000000000000 0.00000000000000000 1.00000000000000000 
1 -41.19999999999942020 120.58029789065263060 0.00000000000000000 0.00000000000000000 0.00000000000000000 1.00000000000000000 
1 -41.19999999999942020 120.58029789065263060 0.00000000000000000 1.00000000000000000 0.00000000000000000 0.00000000000000000 
1 41.19999999999942020 120.58029789065263060 0.00000000000000000 0.00000000000000000 1.00000000000000000 0.00000000000000000 
1 41.19999999999942020 152.62175689746464968 0.00000000000000000 -0.95437833286106810 0.29860006323731497 0.00000000000000000 
2 14.86666666666079095 155.62175689746570129 0.00000000000000000 0.00000000000000000 0.00000000000000000 1.00000000000000000 1.00000000000000000 0.00000000000000000 0.00000000000000000 0.00000000000000000 1.00000000000000000 0.00000000000000000 5.00000000000000000
1 14.86666666666079095 160.62175689746570129 0.00000000000000000 -1.00000000000000000 0.00000000000000000 0.00000000000000000 
2 -14.86666666666071812 155.62175689746570129 0.00000000000000000 0.00000000000000000 0.00000000000000000 1.00000000000000000 1.00000000000000000 0.00000000000000000 0.00000000000000000 0.00000000000000000 1.00000000000000000 0.00000000000000000 5.00000000000000000
1 -41.19999999999942020 120.58029789065263060 0.00000000000000000 1.00000000000000000 0.00000000000000000 0.00000000000000000 
1 41.19999999999942020 120.58029789065263060 0.00000000000000000 0.00000000000000000 1.00000000000000000 0.00000000000000000 
1 41.19999999999942020 152.62175689746464968 0.00000000000000000 -0.95437833286106810 0.29860006323731497 0.00000000000000000 
2 14.86666666666079095 155.62175689746570129 0.00000000000000000 0.00000000000000000 0.00000000000000000 1.00000000000000000 1.00000000000000000 0.00000000000000000 0.00000000000000000 0.00000000000000000 1.00000000000000000 0.00000000000000000 5.00000000000000000
1 14.86666666666079095 160.62175689746570129 0.00000000000000000 -1.00000000000000000 0.00000000000000000 0.00000000000000000 
2 -14.86666666666071812 155.62175689746570129 0.00000000000000000 0.00000000000000000 0.00000000000000000 1.00000000000000000 1.00000000000000000 0.00000000000000000 0.00000000000000000 0.00000000000000000 1.00000000000000000 0.00000000000000000 5.00000000000000000
1 -14.86666666666071990 160.62175689746570129 0.00000000000000000 0.00000000000000000 0.00000000000000000 1.00000000000000000 
1 41.19999999999942020 120.58029789065263060 0.00000000000000000 0.00000000000000000 0.00000000000000000 1.00000000000000000 
2 41.19999999999942020 152.62175689746464968 -0.10000000000000003 0.00000000000000000 1.00000000000000000 0.00000000000000000 0.00000000000000000 -0.00000000000000000 1.00000000000000000 1.00000000000000000 0.00000000000000000 -0.00000000000000000 0.40000000000000002
2 41.19999999999942020 120.58029789065263060 -0.10000000000000003 0.00000000000000000 1.00000000000000000 0.00000000000000000 0.00000000000000000 -0.00000000000000000 1.00000000000000000 1.00000000000000000 0.00000000000000000 -0.00000000000000000 0.40000000000000002
1 41.19999999999942020 152.62175689746464968 0.29999999999999999 0.00000000000000000 -1.00000000000000000 0.00000000000000000 
1 41.19999999999942020 152.62175689746464968 0.00000000000000000 0.00000000000000000 0.00000000000000000 1.00000000000000000 
1 16.35966698284735799 160.39364856177104457 0.00000000000000000 0.00000000000000000 0.00000000000000000 1.00000000000000000 
1 14.86666666666079095 160.62175689746570129 0.00000000000000000 0.00000000000000000 0.00000000000000000 1.00000000000000000 
2 41.19999999999942020 120.58029789065263060 -0.10000000000000003 0.00000000000000000 1.00000000000000000 0.00000000000000000 0.00000000000000000 -0.00000000000000000 1.00000000000000000 1.00000000000000000 0.00000000000000000 -0.00000000000000000 0.10000000000000003
2 41.19999999999942020 152.62175689746464968 -0.10000000000000003 0.00000000000000000 1.00000000000000000 0.00000000000000000 0.00000000000000000 -0.00000000000000000 1.00000000000000000 1.00000000000000000 0.00000000000000000 -0.00000000000000000 0.10000000000000003
1 41.19999999999942020 120.58029789065263060 0.00000000000000000 0.00000000000000000 1.00000000000000000 0.00000000000000000 
1 41.19999999999942020 120.58029789065263060 0.29999999999999999 0.00000000000000000 0.00000000000000000 -1.00000000000000000 
1 41.19999999999942020 152.62175689746464968 0.00000000000000000 0.00000000000000000 0.00000000000000000 1.00000000000000000 
1 41.19999999999942020 120.58029789065263060 0.29999999999999999 1.00000000000000000 0.00000000000000000 0.00000000000000000 
1 72.19999999999942020 120.58029789065263060 0.29999999999999999 0.00000000000000000 1.00000000000000000 0.00000000000000000 
1 72.19999999999942020 152.62175689746464968 0.29999999999999999 -1.00000000000000000 0.00000000000000000 0.00000000000000000 
1 72.19999999999942020 120.58029789065263060 0.29999999999999999 0.00000000000000000 0.00000000000000000 -1.00000000000000000 
1 72.19999999999942020 152.62175689746464968 0.29999999999999999 0.00000000000000000 0.00000000000000000 -1.00000000000000000 
Polygon3D 0
PolygonOnTriangulations 0
Surfaces 28
1 -41.19999999999942020 152.62175689746464968 0.29999999999999999 0.00000000000000000 1.00000000000000000 0.00000000000000000 -1.00000000000000000 0.00000000000000000 0.00000000000000000 0.00000000000000000 -0.00000000000000000 1.00000000000000000 
1 -41.19999999999942020 152.62175689746464968 -0.10000000000000003 0.00000000000000000 -1.00000000000000000 0.00000000000000000 0.00000000000000000 0.00000000000000000 1.00000000000000000 -1.00000000000000000 0.00000000000000000 0.00000000000000000 
1 -41.19999999999941309 136.60102739405863304 0.14999999999999997 -1.00000000000000000 -0.00000000000000000 -0.00000000000000000 0.00000000000000000 0.00000000000000000 -1.00000000000000000 0.00000000000000000 -1.00000000000000000 0.00000000000000000 
1 -72.19999999999942020 152.62175689746464968 0.29999999999999999 -1.00000000000000000 -0.00000000000000000 -0.00000000000000000 0.00000000000000000 -1.00000000000000000 0.00000000000000000 -0.00000000000000000 0.00000000000000000 1.00000000000000000 
1 -56.69999999999942730 136.60102739405866146 0.29999999999999999 0.00000000000000000 0.00000000000000000 1.00000000000000000 1.00000000000000000 0.00000000000000000 -0.00000000000000000 -0.00000000000000000 1.00000000000000000 0.00000000000000000 
2 -41.19999999999942020 120.58029789065263060 -0.10000000000000003 -0.00000000000000000 1.00000000000000000 -0.00000000000000000 0.00000000000000000 0.00000000000000000 1.00000000000000000 -1.00000000000000000 -0.00000000000000000 0.00000000000000000 0.40000000000000002
2 -41.19999999999942020 152.62175689746464968 -0.10000000000000003 0.00000000000000000 -1.00000000000000000 0.00000000000000000 0.00000000000000000 0.00000000000000000 1.00000000000000000 -1.00000000000000000 0.00000000000000000 0.00000000000000000 0.10000000000000003
1 -16.35966698284723009 160.39364856177107299 0.00000000000000000 0.29860006323731458 -0.95437833286106821 0.00000000000000000 -0.95437833286106821 -0.29860006323731458 0.00000000000000000 0.00000000000000000 -0.00000000000000000 -1.00000000000000000 
1 -41.19999999999942020 152.62175689746464968 0.00000000000000000 1.00000000000000000 0.00000000000000000 -0.00000000000000000 0.00000000000000000 -1.00000000000000000 0.00000000000000000 0.00000000000000000 -0.00000000000000000 -1.00000000000000000 
1 -72.19999999999942020 120.58029789065263060 0.29999999999999999 0.00000000000000000 -1.00000000000000000 0.00000000000000000 1.00000000000000000 0.00000000000000000 0.00000000000000000 -0.00000000000000000 0.00000000000000000 1.00000000000000000 
1 -41.19999999999942020 120.58029789065263060 -0.10000000000000003 0.00000000000000000 -1.00000000000000000 0.00000000000000000 -0.00000000000000000 -0.00000000000000000 -1.00000000000000000 -1.00000000000000000 0.00000000000000000 0.00000000000000000 
1 -0.00000000000000393 138.77533274331938173 0.00000000000000000 0.00000000000000000 0.00000000000000000 1.00000000000000000 1.00000000000000000 0.00000000000000000 -0.00000000000000000 -0.00000000000000000 1.00000000000000000 0.00000000000000000 
1 -0.00000000000000393 138.77533274331938173 0.00000000000000000 0.00000000000000000 0.00000000000000000 1.00000000000000000 1.00000000000000000 0.00000000000000000 -0.00000000000000000 -0.00000000000000000 1.00000000000000000 0.00000000000000000 
2 -14.86666666666071812 155.62175689746570129 0.00000000000000000 -0.00000000000000000 -0.00000000000000000 -1.00000000000000000 1.00000000000000000 0.00000000000000000 0.00000000000000000 0.00000000000000000 1.00000000000000000 0.00000000000000000 5.00000000000000000
1 -41.19999999999942020 120.58029789065263060 0.00000000000000000 0.00000000000000000 1.00000000000000000 0.00000000000000000 1.00000000000000000 0.00000000000000000 0.00000000000000000 0.00000000000000000 0.00000000000000000 -1.00000000000000000 
1 41.19999999999942020 120.58029789065263060 0.00000000000000000 -1.00000000000000000 0.00000000000000000 0.00000000000000000 0.00000000000000000 1.00000000000000000 0.00000000000000000 0.00000000000000000 0.00000000000000000 -1.00000000000000000 
2 41.19999999999942020 152.62175689746464968 -0.10000000000000003 -0.00000000000000000 -1.00000000000000000 -0.00000000000000000 0.00000000000000000 0.00000000000000000 1.00000000000000000 1.00000000000000000 -0.00000000000000000 -0.00000000000000000 0.40000000000000002
1 41.19999999999942020 152.62175689746464968 0.00000000000000000 -0.29860006323731497 -0.95437833286106810 0.00000000000000000 -0.95437833286106810 0.29860006323731497 0.00000000000000000 -0.00000000000000000 0.00000000000000000 -1.00000000000000000 
2 14.86666666666079095 155.62175689746570129 0.00000000000000000 -0.00000000000000000 -0.00000000000000000 -1.00000000000000000 1.00000000000000000 0.00000000000000000 0.00000000000000000 0.00000000000000000 1.00000000000000000 0.00000000000000000 5.00000000000000000
1 14.86666666666079095 160.62175689746570129 0.00000000000000000 0.00000000000000000 -1.00000000000000000 0.00000000000000000 -1.00000000000000000 0.00000000000000000 0.00000000000000000 -0.00000000000000000 -0.00000000000000000 -1.00000000000000000 
2 41.19999999999942020 120.58029789065263060 -0.10000000000000003 0.00000000000000000 1.00000000000000000 0.00000000000000000 0.00000000000000000 -0.00000000000000000 1.00000000000000000 1.00000000000000000 0.00000000000000000 -0.00000000000000000 0.10000000000000003
1 41.19999999999942020 120.58029789065263060 -0.10000000000000003 0.00000000000000000 1.00000000000000000 0.00000000000000000 0.00000000000000000 -0.00000000000000000 1.00000000000000000 1.00000000000000000 0.00000000000000000 -0.00000000000000000 
1 41.19999999999942020 152.62175689746464968 -0.10000000000000003 0.00000000000000000 1.00000000000000000 0.00000000000000000 -0.00000000000000000 0.00000000000000000 -1.00000000000000000 1.00000000000000000 0.00000000000000000 -0.00000000000000000 
1 41.19999999999941309 136.60102739405860461 0.14999999999999997 1.00000000000000000 -0.00000000000000000 -0.00000000000000000 0.00000000000000000 0.00000000000000000 1.00000000000000000 -0.00000000000000000 -1.00000000000000000 0.00000000000000000 
1 56.69999999999942730 136.60102739405866146 0.29999999999999999 0.00000000000000000 0.00000000000000000 1.00000000000000000 1.00000000000000000 0.00000000000000000 -0.00000000000000000 -0.00000000000000000 1.00000000000000000 0.00000000000000000 
1 41.19999999999942020 120.58029789065263060 0.29999999999999999 0.00000000000000000 -1.00000000000000000 0.00000000000000000 1.00000000000000000 0.00000000000000000 0.00000000000000000 -0.00000000000000000 0.00000000000000000 1.00000000000000000 
1 72.19999999999942020 152.62175689746464968 0.29999999999999999 0.00000000000000000 1.00000000000000000 0.00000000000000000 -1.00000000000000000 0.00000000000000000 0.00000000000000000 0.00000000000000000 -0.00000000000000000 1.00000000000000000 
1 72.19999999999942020 120.58029789065263060 0.29999999999999999 1.00000000000000000 -0.00000000000000000 0.00000000000000000 0.00000000000000000 1.00000000000000000 0.00000000000000000 -0.00000000000000000 0.00000000000000000 1.00000000000000000 
Triangulations 0

TShapes 137
Ve
0.000000100000000
-41.599999999999419 152.621756897464650 -0.100000000000001
0 0

0101101
*
Ve
0.000000100000000
-41.299999999999422 152.621756897464650 -0.100000000000001
0 0

0101101
*
Ed
 0.000000100000000 1 1 0
1  1 0 0.000000000000000 0.300000000000000
2  1 2 0 0.000000000000000 0.300000000000000
2  2 2 4 0.000000000000000 0.300000000000000
2  3 3 0 0.000000000000000 0.300000000000000
2  4 1 5 0.000000000000000 0.300000000000000
0

0101000
+137 4 -136 4 *
Ve
0.000000100000000
-72.199999999999420 152.621756897464650 0.300000000000000
0 0

0101101
*
Ed
 0.000000100000000 1 1 0
1  2 0 0.000000000000000 0.300000000000000
2  5 1 0 0.000000000000000 0.300000000000000
2  6 4 0 0.000000000000000 0.300000000000000
0

0101000
+134 0 -134 6 *
Ed
 0.000000100000000 1 1 0
1  3 0 0.000000000000000 31.000000000000000
2  7 1 0 0.000000000000000 31.000000000000000
2  8 1 7 0.000000000000000 31.000000000000000
2  9 5 0 0.000000000000000 31.000000000000000
0

0101000
+137 8 -134 0 *
Ed
 0.000000100000000 1 1 0
1  3 0 0.000000000000000 31.000000000000000
2  7 1 0 0.000000000000000 31.000000000000000
2  8 1 7 0.000000000000000 31.000000000000000
2  9 5 0 0.000000000000000 31.000000000000000
0

0101000
+136 10 -134 0 *
Wi

0101100
+135 3 -133 2 -132 2 +131 9 *
Fa
0  0.000000100000000 1 2

0101000
+130 0 *
Ve
0.000000100000000
-41.199999999999420 152.621756897464650 0.300000000000000
0 0

0101101
*
Ed
 0.000000100000000 1 1 0
1  4 0 0.000000000000000 1.570796326794897
2  10 6 0 0.000000000000000 1.570796326794897
2  11 2 0 0.000000000000000 1.570796326794897
0

0101000
+128 0 -137 0 *
Ve
0.000000100000000
-41.199999999999420 152.621756897464650 0.000000000000000
0 0

0101101
*
Ed
 0.000000100000000 1 1 0
1  5 0 0.000000000000000 1.570796326794897
2  12 2 0 0.000000000000000 1.570796326794897
2  13 7 0 0.000000000000000 1.570796326794897
0

0101000
+126 0 -136 0 *
Ed
 0.000000100000000 1 1 0
1  6 0 0.000000000000000 0.300000000000000
2  14 8 0 0.000000000000000 0.300000000000000
2  15 9 0 0.000000000000000 0.300000000000000
2  16 2 12 0.000000000000000 0.300000000000000
0

0101000
+126 12 -128 12 *
Wi

0101100
+127 0 -125 0 +124 11 +135 3 *
Fa
0  0.000000100000000 2 0

0101000
+123 0 *
Ve
0.000000100000000
-72.199999999999420 120.580297890652631 0.300000000000000
0 0

0101101
*
Ed
 0.000000100000000 1 1 0
1  7 0 0.000000000000000 0.300000000000000
2  17 10 0 0.000000000000000 0.300000000000000
2  18 4 0 0.000000000000000 0.300000000000000
0

0101000
+121 0 -121 6 *
Ed
 0.000000100000000 1 1 0
1  8 0 0.000000000000000 32.041459006812019
2  19 5 0 0.000000000000000 32.041459006812019
2  20 4 0 0.000000000000000 32.041459006812019
2  21 4 7 0.000000000000000 32.041459006812019
0

0101000
+134 0 -121 0 *
Wi

0101100
+133 0 -120 0 -119 0 +119 6 *
Fa
0  0.000000100000000 4 0

0101000
+118 0 *
Ve
0.000000100000000
-41.599999999999419 120.580297890652631 -0.100000000000001
0 0

0101101
*
Ed
 0.000000100000000 1 1 0
1  9 0 0.000000000000000 32.041459006812019
2  22 6 0 0.000000000000000 32.041459006812019
2  23 6 4 0.000000000000000 32.041459006812019
2  24 3 0 0.000000000000000 32.041459006812019
2  25 5 5 0.000000000000000 32.041459006812019
0

0101000
+116 4 -137 4 *
Ed
 0.000000100000000 1 1 0
1  10 0 0.000000000000000 31.000000000000000
2  26 10 0 0.000000000000000 31.000000000000000
2  27 10 7 0.000000000000000 31.000000000000000
2  28 5 0 0.000000000000000 31.000000000000000
0

0101000
+121 0 -116 8 *
Wi

0101100
+115 3 +132 2 +119 2 +114 2 *
Fa
0  0.000000100000000 5 2

0101000
+113 0 *
Ve
0.000000100000000
-41.299999999999422 120.580297890652631 -0.100000000000001
0 0

0101101
*
Ed
 0.000000100000000 1 1 0
1  11 0 0.000000000000000 32.041459006812019
2  29 7 0 0.000000000000000 32.041459006812019
2  30 7 4 0.000000000000000 32.041459006812019
2  31 3 0 0.000000000000000 32.041459006812019
2  32 5 13 0.000000000000000 32.041459006812019
0

0101000
+136 4 -111 4 *
Ed
 0.000000100000000 1 1 0
1  10 0 0.000000000000000 31.000000000000000
2  26 10 0 0.000000000000000 31.000000000000000
2  27 10 7 0.000000000000000 31.000000000000000
2  28 5 0 0.000000000000000 31.000000000000000
0

0101000
+121 0 -111 10 *
Wi

0101100
-110 3 +131 9 +119 9 +109 9 *
Fa
0  0.000000100000000 5 9

0101000
+108 0 *
Ve
0.000000100000000
-41.199999999999420 120.580297890652631 0.300000000000000
0 0

0101101
*
Ed
 0.000000100000000 1 1 0
1  12 0 0.000000000000000 1.570796326794897
2  33 6 0 0.000000000000000 1.570796326794897
2  34 11 0 0.000000000000000 1.570796326794897
0

0101000
+106 0 -116 0 *
Ed
 0.000000100000000 1 1 0
1  13 0 0.000000000000000 32.041459006812019
2  35 9 19 0.000000000000000 32.041459006812019
2  36 12 20 0.000000000000000 32.041459006812019
2  37 6 21 0.000000000000000 32.041459006812019
0

0101000
+128 21 -106 21 *
Wi

0101100
+105 0 -127 0 +104 18 +115 3 *
Fa
0  0.000000100000000 6 0

0101000
+103 0 *
Ve
0.000000100000000
-41.199999999999420 120.580297890652631 0.000000000000000
0 0

0101101
*
Ed
 0.000000100000000 1 1 0
1  14 0 0.000000000000000 1.570796326794897
2  38 7 0 0.000000000000000 1.570796326794897
2  39 11 0 0.000000000000000 1.570796326794897
0

0101000
+101 0 -111 0 *
Ed
 0.000000100000000 1 1 0
1  15 0 0.000000000000000 32.041459006812019
2  40 9 23 0.000000000000000 32.041459006812019
2  41 13 20 0.000000000000000 32.041459006812019
2  42 7 24 0.000000000000000 32.041459006812019
0

0101000
+126 24 -101 24 *
Wi

0101100
+125 0 -100 0 -99 22 +110 3 *
Fa
0  0.000000100000000 7 0

0101000
+98 0 *
Ve
0.000000100000000
-16.359666982847230 160.393648561771073 0.000000000000000
0 0

0101101
*
Ve
0.000000100000000
-16.359666982847230 160.393648561771073 0.300000000000000
0 0

0101101
*
Ed
 0.000000100000000 1 1 0
1  16 0 0.000000000000000 0.300000000000000
2  43 14 0 0.000000000000000 0.300000000000000
2  44 8 0 0.000000000000000 0.300000000000000
4 G1 14 0 8 0
0

0101000
+96 12 -95 12 *
Ed
 0.000000100000000 1 1 0
1  17 0 0.000000000000000 26.027762955058908
2  45 8 23 0.000000000000000 26.027762955058908
2  46 13 20 0.000000000000000 26.027762955058908
0

0101000
+96 24 -126 24 *
Ed
 0.000000100000000 1 1 0
1  18 0 0.000000000000000 26.027762955058908
2  47 8 19 0.000000000000000 26.027762955058908
2  48 12 20 0.000000000000000 26.027762955058908
0

0101000
+95 21 -128 21 *
Wi

0101100
+94 11 -124 11 -93 22 +92 18 *
Fa
0  0.000000100000000 8 11

0101000
+91 0 *
Ed
 0.000000100000000 1 1 0
1  19 0 0.000000000000000 0.300000000000000
2  49 11 0 0.000000000000000 0.300000000000000
2  50 11 4 0.000000000000000 0.300000000000000
2  51 3 0 0.000000000000000 0.300000000000000
2  52 10 5 0.000000000000000 0.300000000000000
0

0101000
+111 4 -116 4 *
Wi

0101100
+120 2 +89 3 -114 2 +109 9 *
Fa
0  0.000000100000000 10 2

0101000
+88 0 *
Ed
 0.000000100000000 1 1 0
1  20 0 0.000000000000000 0.300000000000000
2  53 15 0 0.000000000000000 0.300000000000000
2  54 9 0 0.000000000000000 0.300000000000000
2  55 11 12 0.000000000000000 0.300000000000000
0

0101000
+101 12 -106 12 *
Wi

0101100
+100 0 -105 0 -86 11 +89 3 *
Fa
0  0.000000100000000 11 0

0101000
+85 0 *
Ve
0.000000100000000
41.199999999999420 120.580297890652631 0.300000000000000
0 0

0101101
*
Ed
 0.000000100000000 1 1 0
1  21 0 0.000000000000000 82.399999999998840
2  56 15 19 0.000000000000000 82.399999999998840
2  57 12 20 0.000000000000000 82.399999999998840
0

0101000
+106 21 -83 21 *
Ve
0.000000100000000
41.199999999999420 152.621756897464650 0.300000000000000
0 0

0101101
*
Ed
 0.000000100000000 1 1 0
1  22 0 0.000000000000000 32.041459006812019
2  58 16 19 0.000000000000000 32.041459006812019
2  59 12 20 0.000000000000000 32.041459006812019
2  60 17 21 0.000000000000000 32.041459006812019
0

0101000
+83 21 -81 21 *
Ve
0.000000100000004
16.359666982847358 160.393648561771045 0.300000000000000
0 0

0101101
*
Ed
 0.000000100000000 1 1 0
1  23 0 0.000000000000000 26.027762955058776
2  61 18 19 0.000000000000000 26.027762955058776
2  62 12 20 0.000000000000000 26.027762955058776
0

0101000
+81 21 -79 21 *
Ve
0.000000100000000
14.866666666660791 160.621756897465701 0.300000000000000
0 0

0101101
*
Ed
 0.000000100000000 1 1 0
1  24 0 1.267570867296562 1.570796326794897
2  63 19 19 1.267570867296562 1.570796326794897
2  64 12 20 1.267570867296562 1.570796326794897
0

0101000
+79 21 -77 21 *
Ve
0.000000100000001
-14.866666666660720 160.621756897465701 0.300000000000000
0 0

0101101
*
Ed
 0.000000100000000 1 1 0
1  25 0 0.000000000000000 29.733333333321511
2  65 20 19 0.000000000000000 29.733333333321511
2  66 12 20 0.000000000000000 29.733333333321511
0

0101000
+77 21 -75 21 *
Ed
 0.000000100000000 1 1 0
1  26 0 1.570796326794897 1.874021786293219
2  67 14 19 1.570796326794897 1.874021786293219
2  68 12 20 1.570796326794897 1.874021786293219
0

0101000
+75 21 -95 21 *
Wi

0101100
+82 18 +80 18 +78 18 +76 18 +74 18 +73 18 +92 18 +104 18 *
Fa
0  0.000000100000000 12 25

0101000
+72 0 *
Ve
0.000000100000000
41.199999999999420 120.580297890652631 0.000000000000000
0 0

0101101
*
Ed
 0.000000100000000 1 1 0
1  27 0 0.000000000000000 82.399999999998840
2  69 15 23 0.000000000000000 82.399999999998840
2  70 13 20 0.000000000000000 82.399999999998840
0

0101000
+101 24 -70 24 *
Ve
0.000000100000000
41.199999999999420 152.621756897464650 0.000000000000000
0 0

0101101
*
Ed
 0.000000100000000 1 1 0
1  28 0 0.000000000000000 32.041459006812019
2  71 16 23 0.000000000000000 32.041459006812019
2  72 13 20 0.000000000000000 32.041459006812019
2  73 21 24 0.000000000000000 32.041459006812019
0

0101000
+70 24 -68 24 *
Ve
0.000000100000000
16.359666982847358 160.393648561771045 0.000000000000000
0 0

0101101
*
Ed
 0.000000100000000 1 1 0
1  29 0 0.000000000000000 26.027762955058776
2  74 18 23 0.000000000000000 26.027762955058776
2  75 13 20 0.000000000000000 26.027762955058776
0

0101000
+68 24 -66 24 *
Ve
0.000000100000000
14.866666666660791 160.621756897465701 0.000000000000000
0 0

0101101
*
Ed
 0.000000100000000 1 1 0
1  30 0 1.267570867296562 1.570796326794897
2  76 19 23 1.267570867296562 1.570796326794897
2  77 13 20 1.267570867296562 1.570796326794897
0

0101000
+66 24 -64 24 *
Ve
0.000000100000001
-14.866666666660720 160.621756897465701 0.000000000000000
0 0

0101101
*
Ed
 0.000000100000000 1 1 0
1  31 0 0.000000000000000 29.733333333321511
2  78 20 23 0.000000000000000 29.733333333321511
2  79 13 20 0.000000000000000 29.733333333321511
0

0101000
+64 24 -62 24 *
Ed
 0.000000100000000 1 1 0
1  32 0 1.570796326794897 1.874021786293219
2  80 14 23 1.570796326794897 1.874021786293219
2  81 13 20 1.570796326794897 1.874021786293219
0

0101000
+62 24 -96 24 *
Wi

0101100
+69 22 +67 22 +65 22 +63 22 +61 22 +60 22 +93 22 +99 22 *
Fa
0  0.000000100000000 13 26

0101000
+59 0 *
Ed
 0.000000100000001 1 1 0
1  33 0 0.000000000000000 0.300000000000000
2  82 20 0 0.000000000000000 0.300000000000000
2  83 14 0 0.000000000000000 0.300000000000000
4 G1 20 0 14 0
0

0101000
+62 12 -75 12 *
Wi

0101100
+57 0 -94 0 -60 27 +73 28 *
Fa
0  0.000000100000000 14 0

0101000
+56 0 *
Ed
 0.000000100000000 1 1 0
1  34 0 0.000000000000000 0.300000000000000
2  84 15 0 0.000000000000000 0.300000000000000
2  85 16 0 0.000000000000000 0.300000000000000
2  86 22 12 0.000000000000000 0.300000000000000
0

0101000
+70 12 -83 12 *
Wi

0101100
+86 11 -54 11 -69 22 +82 18 *
Fa
0  0.000000100000000 15 11

0101000
+53 0 *
Ve
0.000000100000000
41.599999999999419 152.621756897464650 -0.100000000000001
0 0

0101101
*
Ed
 0.000000100000000 1 1 0
1  35 0 0.000000000000000 1.570796326794897
2  87 17 0 0.000000000000000 1.570796326794897
2  88 23 0 0.000000000000000 1.570796326794897
0

0101000
+81 0 -51 0 *
Ve
0.000000100000000
41.599999999999419 120.580297890652631 -0.100000000000001
0 0

0101101
*
Ed
 0.000000100000000 1 1 0
1  36 0 0.000000000000000 1.570796326794897
2  89 17 0 0.000000000000000 1.570796326794897
2  90 22 0 0.000000000000000 1.570796326794897
0

0101000
+83 0 -49 0 *
Ed
 0.000000100000000 1 1 0
1  37 0 0.000000000000000 32.041459006812019
2  91 17 0 0.000000000000000 32.041459006812019
2  92 17 30 0.000000000000000 32.041459006812019
2  93 24 0 0.000000000000000 32.041459006812019
2  94 25 32 0.000000000000000 32.041459006812019
0

0101000
+51 30 -49 30 *
Wi

0101100
+50 0 -48 0 +80 18 +47 29 *
Fa
0  0.000000100000000 17 0

0101000
+46 0 *
Ed
 0.000000100000000 1 1 0
1  38 0 0.000000000000000 0.300000000000000
2  95 16 0 0.000000000000000 0.300000000000000
2  96 18 0 0.000000000000000 0.300000000000000
2  97 23 12 0.000000000000000 0.300000000000000
0

0101000
+68 12 -81 12 *
Ed
 0.000000100000000 1 1 0
1  39 0 0.000000000000000 0.300000000000000
2  98 18 0 0.000000000000000 0.300000000000000
2  99 19 0 0.000000000000000 0.300000000000000
4 G1 18 0 19 0
0

0101000
+66 12 -79 12 *
Wi

0101100
+44 11 -43 11 -65 22 +78 18 *
Fa
0  0.000000100000000 18 11

0101000
+42 0 *
Ed
 0.000000100000000 1 1 0
1  40 0 0.000000000000000 0.300000000000000
2  100 19 0 0.000000000000000 0.300000000000000
2  101 20 0 0.000000000000000 0.300000000000000
4 G1 19 0 20 0
0

0101000
+64 12 -77 12 *
Wi

0101100
+43 0 -40 0 -63 27 +76 28 *
Fa
0  0.000000100000000 19 0

0101000
+39 0 *
Wi

0101100
+40 0 -57 0 -61 27 +74 28 *
Fa
0  0.000000100000000 20 0

0101000
+37 0 *
Ve
0.000000100000000
41.299999999999422 120.580297890652631 -0.100000000000001
0 0

0101101
*
Ed
 0.000000100000000 1 1 0
1  41 0 0.000000000000000 1.570796326794897
2  102 22 0 0.000000000000000 1.570796326794897
2  103 21 0 0.000000000000000 1.570796326794897
0

0101000
+70 0 -35 0 *
Ve
0.000000100000000
41.299999999999422 152.621756897464650 -0.100000000000001
0 0

0101101
*
Ed
 0.000000100000000 1 1 0
1  42 0 0.000000000000000 1.570796326794897
2  104 21 0 0.000000000000000 1.570796326794897
2  105 23 0 0.000000000000000 1.570796326794897
0

0101000
+68 0 -33 0 *
Ed
 0.000000100000000 1 1 0
1  43 0 0.000000000000000 32.041459006812019
2  106 21 0 0.000000000000000 32.041459006812019
2  107 21 30 0.000000000000000 32.041459006812019
2  108 24 0 0.000000000000000 32.041459006812019
2  109 25 34 0.000000000000000 32.041459006812019
0

0101000
+35 30 -33 30 *
Wi

0101100
+34 0 -32 0 -67 22 +31 29 *
Fa
0  0.000000100000000 21 0

0101000
+30 0 *
Ed
 0.000000100000000 1 1 0
1  44 0 0.000000000000000 0.300000000000000
2  110 22 0 0.000000000000000 0.300000000000000
2  111 22 30 0.000000000000000 0.300000000000000
2  112 24 0 0.000000000000000 0.300000000000000
2  113 26 32 0.000000000000000 0.300000000000000
0

0101000
+49 30 -35 30 *
Wi

0101100
+48 0 -34 0 +54 11 +28 29 *
Fa
0  0.000000100000000 22 0

0101000
+27 0 *
Ed
 0.000000100000000 1 1 0
1  45 0 0.000000000000000 0.300000000000000
2  114 23 0 0.000000000000000 0.300000000000000
2  115 23 30 0.000000000000000 0.300000000000000
2  116 24 0 0.000000000000000 0.300000000000000
2  117 27 32 0.000000000000000 0.300000000000000
0

0101000
+33 30 -51 30 *
Wi

0101100
+32 0 -50 0 -44 11 +25 29 *
Fa
0  0.000000100000000 23 0

0101000
+24 0 *
Ve
0.000000100000000
72.199999999999420 120.580297890652631 0.300000000000000
0 0

0101101
*
Ed
 0.000000100000000 1 1 0
1  46 0 0.000000000000000 31.000000000000000
2  118 26 0 0.000000000000000 31.000000000000000
2  119 26 35 0.000000000000000 31.000000000000000
2  120 25 0 0.000000000000000 31.000000000000000
0

0101000
+49 36 -22 0 *
Ve
0.000000100000000
72.199999999999420 152.621756897464650 0.300000000000000
0 0

0101101
*
Ed
 0.000000100000000 1 1 0
1  47 0 0.000000000000000 32.041459006812019
2  121 25 0 0.000000000000000 32.041459006812019
2  122 28 0 0.000000000000000 32.041459006812019
2  123 28 35 0.000000000000000 32.041459006812019
0

0101000
+22 0 -20 0 *
Ed
 0.000000100000000 1 1 0
1  48 0 0.000000000000000 31.000000000000000
2  124 25 0 0.000000000000000 31.000000000000000
2  125 27 0 0.000000000000000 31.000000000000000
2  126 27 35 0.000000000000000 31.000000000000000
0

0101000
+20 0 -51 36 *
Wi

0101100
+47 29 +21 31 +19 31 +18 31 *
Fa
0  0.000000100000000 25 31

0101000
+17 0 *
Ed
 0.000000100000000 1 1 0
1  46 0 0.000000000000000 31.000000000000000
2  118 26 0 0.000000000000000 31.000000000000000
2  119 26 35 0.000000000000000 31.000000000000000
2  120 25 0 0.000000000000000 31.000000000000000
0

0101000
+35 38 -22 0 *
Ed
 0.000000100000000 1 1 0
1  48 0 0.000000000000000 31.000000000000000
2  124 25 0 0.000000000000000 31.000000000000000
2  125 27 0 0.000000000000000 31.000000000000000
2  126 27 35 0.000000000000000 31.000000000000000
0

0101000
+20 0 -33 38 *
Wi

0101100
-31 29 +15 37 +19 37 +14 37 *
Fa
0  0.000000100000000 25 37

0101000
+13 0 *
Ed
 0.000000100000000 1 1 0
1  49 0 0.000000000000000 0.300000000000000
2  127 26 0 0.000000000000000 0.300000000000000
2  128 28 0 0.000000000000000 0.300000000000000
0

0101000
+22 0 -22 33 *
Wi

0101100
+28 29 -11 31 -21 31 +15 37 *
Fa
0  0.000000100000000 26 31

0101000
+10 0 *
Ed
 0.000000100000000 1 1 0
1  50 0 0.000000000000000 0.300000000000000
2  129 27 0 0.000000000000000 0.300000000000000
2  130 28 0 0.000000000000000 0.300000000000000
0

0101000
+20 0 -20 33 *
Wi

0101100
+8 31 +25 29 -18 31 +14 37 *
Fa
0  0.000000100000000 27 31

0101000
+7 0 *
Wi

0101100
+11 0 -8 0 -19 0 +19 33 *
Fa
0  0.000000100000000 28 0

0101000
+5 0 *
Sh

0101100
+129 0 -122 0 +117 2 +112 0 -107 0 -102 0 -97 0 -90 0 +87 0 -84 0 
+71 0 -58 0 -55 11 -52 0 -45 0 -41 0 -38 11 -36 11 -29 0 -26 0 
-23 0 +16 0 -12 0 +9 0 +6 0 +4 31 *
So

0100000
+3 0 *
Co

1100000
+2 0 *

+1 1 