
CASCADE Topology V1, (c) Matra-Datavision
Locations 12
1
1.000000000000000 0.000000000000000 0.000000000000000 0.000000000000000 
0.000000000000000 1.000000000000000 0.000000000000000 0.000000000000000 
0.000000000000000 0.000000000000000 1.000000000000000 0.000000000000000 
1
1.000000000000000 0.000000000000000 0.000000000000000 0.000000000000000 
0.000000000000000 -0.000000000000000 -1.000000000000000 -0.000000000000354 
0.000000000000000 1.000000000000000 -0.000000000000000 1594.000000000000000 
1
1.000000000000000 0.000000000000000 0.000000000000000 0.000000000000000 
0.000000000000000 1.000000000000000 0.000000000000000 0.000000000000000 
0.000000000000000 0.000000000000000 1.000000000000000 0.000000000000000 
2  1 1 2 1 3 -1 0
1
1.000000000000000 0.000000000000000 0.000000000000000 0.000000000000000 
0.000000000000000 1.000000000000000 0.000000000000000 -2.000000000000000 
0.000000000000000 0.000000000000000 1.000000000000000 -0.000000000000000 
2  1 1 2 1 3 -1 5 1 0
2  3 1 2 -1 1 -1 0
2  5 -1 3 1 2 -1 1 -1 0
2  2 -1 1 -1 0
2  3 -1 0
2  1 1 2 1 0
2  3 -1 5 1 0
Curve2ds 48
1 0.00000000000000000 0.00000000000000000 0.00000000000000000 -1.00000000000000000 
1 28.60000000000000142 0.00000000000000000 0.00000000000000000 -1.00000000000000000 
1 2.00000000000000000 0.00000000000000000 0.00000000000000000 -1.00000000000000000 
1 0.00000000000000000 0.00000000000000000 0.00000000000000000 -1.00000000000000000 
1 0.00000000000000000 0.00000000000000000 1.00000000000000000 0.00000000000000000 
1 0.00000000000000044 -2.00000000000000000 1.00000000000000000 0.00000000000000000 
1 -45.26933318637770753 14.29999999995855120 1.00000000000000000 0.00000000000000000 
1 4.71238898038469056 0.00000000000000000 0.00000000000000000 -1.00000000000000000 
1 20.19999999999994245 0.00000000000000000 0.00000000000000000 -1.00000000000000000 
1 -43.26933318637770753 14.29999999995855120 0.00000000000000000 1.00000000000000000 
1 0.00000000000000000 0.00000000000000000 1.00000000000000000 0.00000000000000000 
1 0.00000000000000000 -2.00000000000000000 1.00000000000000000 0.00000000000000000 
1 6.28318530717958623 0.00000000000000000 0.00000000000000000 -1.00000000000000000 
1 0.00000000000000000 0.00000000000000000 1.00000000000000000 0.00000000000000000 
1 0.00000000000000000 -2.00000000000000000 1.00000000000000000 0.00000000000000000 
2 -40.26933318637770753 34.49999999995849720 0.00000000000000000 1.00000000000000000 1.00000000000000000 -0.00000000000000000 3.00000000000004974
1 -0.00000000000000533 0.00000000000000000 0.00000000000000000 -1.00000000000000000 
1 -40.26933318637770753 37.49999999995854694 1.00000000000000000 0.00000000000000000 
1 1.57079632680011305 0.00000000000000000 0.00000000000000000 -1.00000000000000000 
1 0.00000000000000000 0.00000000000000000 1.00000000000000000 0.00000000000000000 
1 0.00000000000000000 -2.00000000000000000 1.00000000000000000 0.00000000000000000 
2 41.73066681360660368 34.49999999995849009 0.00000000000000000 1.00000000000000000 1.00000000000000000 -0.00000000000000000 3.00000000000004974
1 1.57079632680011216 0.00000000000000000 0.00000000000000000 -1.00000000000000000 
1 44.73066681360660368 34.49999999994284394 -0.00000000000521312 -1.00000000000000000 
1 3.14159265358986506 0.00000000000000000 0.00000000000000000 -1.00000000000000000 
1 0.00000000000000000 0.00000000000000000 1.00000000000000000 0.00000000000000000 
1 0.00000000000000000 -2.00000000000000000 1.00000000000000000 0.00000000000000000 
2 41.73066681324667115 -34.50000000004139622 0.00000000000000000 1.00000000000000000 1.00000000000000000 -0.00000000000000000 3.00000000000004974
1 3.14159265358979267 0.00000000000000000 0.00000000000000000 -1.00000000000000000 
1 41.73066681324644378 -37.50000000004144596 -1.00000000000000000 0.00000000000000000 
1 4.71238898038469056 0.00000000000000000 0.00000000000000000 -1.00000000000000000 
1 0.00000000000000000 0.00000000000000000 0.00000000000000000 -1.00000000000000000 
1 0.00000000000000000 0.00000000000000000 1.00000000000000000 0.00000000000000000 
1 0.00000000000000000 -2.00000000000000000 1.00000000000000000 0.00000000000000000 
2 -40.26933318637725279 -34.50000000004139622 0.00000000000000000 1.00000000000000000 1.00000000000000000 -0.00000000000000000 3.00000000000004974
1 0.00000000000000000 0.00000000000000000 0.00000000000000000 -1.00000000000000000 
1 20.19999999999994955 0.00000000000000000 0.00000000000000000 -1.00000000000000000 
1 -43.26933318637748016 -34.50000000004139622 0.00000000000000000 1.00000000000000000 
1 0.00000000000000000 0.00000000000000000 1.00000000000000000 0.00000000000000000 
1 0.00000000000000000 -2.00000000000000000 1.00000000000000000 0.00000000000000000 
1 0.00000000000000000 0.00000000000000000 0.00000000000000000 -1.00000000000000000 
1 2.00000000000022737 0.00000000000000000 0.00000000000000000 -1.00000000000000000 
1 -43.26933318637748016 -14.30000000004145022 -1.00000000000000000 0.00000000000000000 
1 0.00000000000000000 0.00000000000000000 1.00000000000000000 0.00000000000000000 
1 -0.00000000000000044 -2.00000000000000000 1.00000000000000000 0.00000000000000000 
1 0.00000000000000000 0.00000000000000000 1.00000000000000000 0.00000000000000000 
1 0.00000000000000000 -2.00000000000000000 1.00000000000000000 0.00000000000000000 
1 -45.26933318637770753 -14.30000000004145022 0.00000000000000001 1.00000000000000000 
Curves 24
1 14.30000000000000071 -0.00000000000035394 1594.00000000000000000 0.00000000000000000 -1.00000000000000000 -0.00000000000000022 
1 14.30000000000000071 -0.00000000000035438 1596.00000000000000000 0.00000000000000000 -1.00000000000000000 -0.00000000000000022 
1 14.30000000000000071 0.00000000000000036 0.00000000000000000 0.00000000000000000 1.00000000000000000 0.00000000000000000 
1 34.49999999999994316 -0.00000000000035438 1596.00000000000000000 0.00000000000000000 -1.00000000000000000 -0.00000000000000022 
1 14.30000000000000071 2.00000000000000089 0.00000000000000000 1.00000000000000000 0.00000000000000000 0.00000000000000000 
1 37.49999999999999289 -0.00000000000035505 1599.00000000000000000 0.00000000000000000 -1.00000000000000000 -0.00000000000000022 
2 34.49999999999994316 5.00000000000005151 0.00000000000000000 0.00000000000000000 0.00000000000000000 1.00000000000000000 1.00000000000000000 0.00000000000000000 -0.00000000000000000 -0.00000000000000000 1.00000000000000000 0.00000000000000000 3.00000000000005063
1 37.49999999999998579 -0.00000000000037326 1680.99999999998408384 0.00000000000000000 -1.00000000000000000 -0.00000000000000022 
1 37.49999999999999289 5.00000000000005151 0.00000000000000000 0.00000000000000000 1.00000000000000000 0.00000000000000000 
1 34.49999999998428990 -0.00000000000037392 1683.99999999998431122 0.00000000000000000 -1.00000000000000000 -0.00000000000000022 
2 34.49999999999993605 86.99999999998421174 0.00000000000000000 0.00000000000000000 0.00000000000000000 1.00000000000000000 1.00000000000000000 0.00000000000000000 -0.00000000000000000 -0.00000000000000000 1.00000000000000000 0.00000000000000000 3.00000000000005063
1 -34.50000000001559641 -0.00000000000037392 1683.99999999962460606 0.00000000000000000 -1.00000000000000000 -0.00000000000000022 
1 34.49999999998428990 89.99999999998425437 0.00000000000000000 -1.00000000000000000 -0.00000000000521312 0.00000000000000000 
1 -37.50000000000000000 -0.00000000000037326 1680.99999999962415131 0.00000000000000000 -1.00000000000000000 -0.00000000000000022 
2 -34.49999999999995026 86.99999999962444974 0.00000000000000000 0.00000000000000000 0.00000000000000000 1.00000000000000000 1.00000000000000000 0.00000000000000000 -0.00000000000000000 -0.00000000000000000 1.00000000000000000 0.00000000000000000 3.00000000000005063
1 -37.50000000000000000 -0.00000000000035505 1599.00000000000045475 0.00000000000000000 -1.00000000000000000 -0.00000000000000022 
1 -37.50000000000000000 86.99999999962422237 0.00000000000000000 0.00000000000000000 -1.00000000000000000 0.00000000000000000 
1 -34.49999999999995026 -0.00000000000035438 1596.00000000000022737 0.00000000000000000 -1.00000000000000000 -0.00000000000000022 
2 -34.49999999999995026 5.00000000000034284 0.00000000000000000 0.00000000000000000 0.00000000000000000 1.00000000000000000 1.00000000000000000 0.00000000000000000 -0.00000000000000000 -0.00000000000000000 1.00000000000000000 0.00000000000000000 3.00000000000005063
1 -14.30000000000000071 -0.00000000000035438 1596.00000000000022737 0.00000000000000000 -1.00000000000000000 -0.00000000000000022 
1 -34.49999999999995026 2.00000000000029221 0.00000000000000000 1.00000000000000000 0.00000000000000000 0.00000000000000000 
1 -14.30000000000000071 -0.00000000000035394 1594.00000000000000000 0.00000000000000000 -1.00000000000000000 -0.00000000000000022 
1 -14.30000000000000071 2.00000000000029221 0.00000000000000000 0.00000000000000000 -1.00000000000000000 0.00000000000000000 
1 -14.30000000000000071 0.00000000000000000 0.00000000000000000 1.00000000000000000 0.00000000000000001 0.00000000000000000 
Polygon3D 0
PolygonOnTriangulations 0
Surfaces 13
1 14.30000000000000071 -0.00000000000035394 1594.00000000000000000 -1.00000000000000000 -0.00000000000000000 0.00000000000000000 0.00000000000000000 -0.00000000000000022 1.00000000000000000 0.00000000000000000 1.00000000000000000 0.00000000000000022 
1 -14.30000000000000071 -0.00000000000035394 1594.00000000000000000 -0.00000000000000001 -0.00000000000000022 1.00000000000000000 1.00000000000000000 0.00000000000000000 0.00000000000000001 -0.00000000000000000 1.00000000000000000 0.00000000000000022 
1 14.30000000000000071 -0.00000000000035438 1596.00000000000000000 0.00000000000000000 -0.00000000000000022 1.00000000000000000 1.00000000000000000 0.00000000000000000 0.00000000000000000 -0.00000000000000000 1.00000000000000000 0.00000000000000022 
1 0.00000000004144946 -0.00000000000036399 1639.26933318637770753 -0.00000000000000000 1.00000000000000000 0.00000000000000022 0.00000000000000000 -0.00000000000000022 1.00000000000000000 1.00000000000000000 0.00000000000000000 0.00000000000000000 
2 34.49999999999994316 -0.00000000000035505 1599.00000000000000000 -0.00000000000000000 1.00000000000000000 0.00000000000000022 1.00000000000000000 0.00000000000000000 0.00000000000000000 -0.00000000000000000 -0.00000000000000022 1.00000000000000000 3.00000000000005063
1 37.49999999999999289 -0.00000000000035505 1599.00000000000000000 -1.00000000000000000 -0.00000000000000000 0.00000000000000000 0.00000000000000000 -0.00000000000000022 1.00000000000000000 0.00000000000000000 1.00000000000000000 0.00000000000000022 
2 34.49999999999993605 -0.00000000000037326 1680.99999999998431122 -0.00000000000000000 1.00000000000000000 0.00000000000000022 1.00000000000000000 0.00000000000000000 0.00000000000000000 -0.00000000000000000 -0.00000000000000022 1.00000000000000000 3.00000000000005063
1 34.49999999998428990 -0.00000000000037392 1683.99999999998431122 0.00000000000521312 0.00000000000000022 -1.00000000000000000 -1.00000000000000000 0.00000000000000000 -0.00000000000521312 -0.00000000000000000 1.00000000000000000 0.00000000000000022 
2 -34.49999999999995026 -0.00000000000037326 1680.99999999962437869 -0.00000000000000000 1.00000000000000000 0.00000000000000022 1.00000000000000000 0.00000000000000000 0.00000000000000000 -0.00000000000000000 -0.00000000000000022 1.00000000000000000 3.00000000000005063
1 -37.50000000000000000 -0.00000000000037326 1680.99999999962415131 1.00000000000000000 0.00000000000000000 0.00000000000000000 0.00000000000000000 0.00000000000000022 -1.00000000000000000 -0.00000000000000000 1.00000000000000000 0.00000000000000022 
2 -34.49999999999995026 -0.00000000000035505 1599.00000000000045475 -0.00000000000000000 1.00000000000000000 0.00000000000000022 1.00000000000000000 0.00000000000000000 0.00000000000000000 -0.00000000000000000 -0.00000000000000022 1.00000000000000000 3.00000000000005063
1 -34.49999999999995026 -0.00000000000035438 1596.00000000000022737 0.00000000000000000 -0.00000000000000022 1.00000000000000000 1.00000000000000000 0.00000000000000000 0.00000000000000000 -0.00000000000000000 1.00000000000000000 0.00000000000000022 
1 -14.30000000000000071 -0.00000000000035438 1596.00000000000022737 1.00000000000000000 0.00000000000000000 0.00000000000000000 0.00000000000000000 0.00000000000000022 -1.00000000000000000 -0.00000000000000000 1.00000000000000000 0.00000000000000022 
Triangulations 0

TShapes 64
Ve
0.000000100000000
14.300000000000001 0.000000000000000 0.000000000000000
0 0

0101101
*
Ed
 0.000000100000000 1 1 0
1  1 0 0.000000000000000 2.000000000000000
2  1 1 0 0.000000000000000 2.000000000000000
2  2 2 0 0.000000000000000 2.000000000000000
0

0101000
+64 4 -64 6 *
Ve
0.000000100000000
14.300000000000001 2.000000000000001 0.000000000000000
0 0

0101101
*
Ed
 0.000000100000000 1 1 0
1  2 0 0.000000000000000 2.000000000000000
2  3 1 0 0.000000000000000 2.000000000000000
2  4 3 0 0.000000000000000 2.000000000000000
0

0101000
+62 4 -62 6 *
Ed
 0.000000100000000 1 1 0
1  3 0 0.000000000000000 2.000000000000000
2  5 1 7 0.000000000000000 2.000000000000000
2  6 1 8 0.000000000000000 2.000000000000000
2  7 4 9 0.000000000000000 2.000000000000000
0

0101000
+64 0 -62 0 *
Wi

0101100
+63 0 -61 0 -60 4 +60 6 *
Fa
0  0.000000100000000 1 0

0111000
+59 0 *
Ve
0.000000100000000
34.499999999999943 2.000000000000001 0.000000000000000
0 0

0101101
*
Ed
 0.000000100000000 1 1 0
1  4 0 0.000000000000000 2.000000000000000
2  8 5 0 0.000000000000000 2.000000000000000
4 G1 3 0 5 0
2  9 3 0 0.000000000000000 2.000000000000000
0

0101000
+57 4 -57 6 *
Ed
 0.000000100000000 1 1 0
1  5 0 0.000000000000000 20.199999999999942
2  10 4 9 0.000000000000000 20.199999999999942
2  11 3 7 0.000000000000000 20.199999999999942
2  12 3 8 0.000000000000000 20.199999999999942
0

0101000
+62 0 -57 0 *
Wi

0101100
+61 0 -56 0 -55 4 +55 6 *
Fa
0  0.000000100000000 3 0

0111000
+54 0 *
Ve
0.000000100000000
37.499999999999993 5.000000000000052 0.000000000000000
0 0

0101101
*
Ed
 0.000000100000000 1 1 0
1  6 0 0.000000000000000 2.000000000000000
2  13 5 0 0.000000000000000 2.000000000000000
4 G1 5 0 6 0
0

0101000
+52 4 -52 6 *
Ed
 0.000000100000000 1 1 0
1  7 0 4.712388980384691 6.283185307179586
2  14 5 7 4.712388980384691 6.283185307179586
2  15 5 8 4.712388980384691 6.283185307179586
2  16 4 9 4.712388980384691 6.283185307179586
0

0101000
+57 0 -52 0 *
Wi

0101100
+56 0 -51 0 -50 4 +50 6 *
Fa
0  0.000000100000000 5 0

0111000
+49 0 *
Ve
0.000000100000004
37.499999999999986 86.999999999984198 0.000000000000000
0 0

0101101
*
Ed
 0.000000100000004 1 1 0
1  8 0 0.000000000000000 2.000000000000000
2  17 7 0 0.000000000000000 2.000000000000000
4 G1 6 0 7 0
0

0101000
+47 4 -47 6 *
Ed
 0.000000100000000 1 1 0
1  9 0 0.000000000000000 81.999999999984141
2  18 4 9 0.000000000000000 81.999999999984141
0

0101000
+52 0 -47 0 *
Wi

0101100
+51 0 -46 0 -45 4 +45 6 *
Fa
0  0.000000100000000 6 0

0111000
+44 0 *
Ve
0.000000100000007
34.499999999984290 89.999999999984254 0.000000000000000
0 0

0101101
*
Ed
 0.000000100000007 1 1 0
1  10 0 0.000000000000000 2.000000000000000
2  19 7 0 0.000000000000000 2.000000000000000
4 G1 7 0 8 0
0

0101000
+42 4 -42 6 *
Ed
 0.000000100000000 1 1 0
1  11 0 -0.000000000000005 1.570796326800113
2  20 7 7 -0.000000000000005 1.570796326800113
2  21 7 8 -0.000000000000005 1.570796326800113
2  22 4 9 -0.000000000000005 1.570796326800113
0

0101000
+47 0 -42 0 *
Wi

0101100
+46 0 -41 0 -40 4 +40 6 *
Fa
0  0.000000100000000 7 0

0111000
+39 0 *
Ve
0.000000100000021
-34.500000000015596 89.999999999624521 0.000000000000000
0 0

0101101
*
Ed
 0.000000100000021 1 1 0
1  12 0 0.000000000000000 2.000000000000000
2  23 9 0 0.000000000000000 2.000000000000000
4 G1 8 0 9 0
0

0101000
+37 4 -37 6 *
Ed
 0.000000100000000 1 1 0
1  13 0 0.000000000000000 68.999999999999886
2  24 4 9 0.000000000000000 68.999999999999886
0

0101000
+42 0 -37 0 *
Wi

0101100
+41 0 -36 0 -35 4 +35 6 *
Fa
0  0.000000100000000 8 0

0111000
+34 0 *
Ve
0.000000100000007
-37.500000000000000 86.999999999624237 0.000000000000000
0 0

0101101
*
Ed
 0.000000100000007 1 1 0
1  14 0 0.000000000000000 2.000000000000000
2  25 9 0 0.000000000000000 2.000000000000000
4 G1 9 0 10 0
0

0101000
+32 4 -32 6 *
Ed
 0.000000100000000 1 1 0
1  15 0 1.570796326800112 3.141592653589865
2  26 9 7 1.570796326800112 3.141592653589865
2  27 9 8 1.570796326800112 3.141592653589865
2  28 4 9 1.570796326800112 3.141592653589865
0

0101000
+37 0 -32 0 *
Wi

0101100
+36 0 -31 0 -30 4 +30 6 *
Fa
0  0.000000100000000 9 0

0111000
+29 0 *
Ve
0.000000100000002
-37.500000000000000 5.000000000000343 0.000000000000000
0 0

0101101
*
Ed
 0.000000100000002 1 1 0
1  16 0 0.000000000000000 2.000000000000000
2  29 11 0 0.000000000000000 2.000000000000000
4 G1 10 0 11 0
0

0101000
+27 4 -27 6 *
Ed
 0.000000100000000 1 1 0
1  17 0 0.000000000000000 81.999999999623881
2  30 4 9 0.000000000000000 81.999999999623881
0

0101000
+32 0 -27 0 *
Wi

0101100
+31 0 -26 0 -25 4 +25 6 *
Fa
0  0.000000100000000 10 0

0111000
+24 0 *
Ve
0.000000100000000
-34.499999999999950 2.000000000000292 0.000000000000000
0 0

0101101
*
Ed
 0.000000100000000 1 1 0
1  18 0 0.000000000000000 2.000000000000000
2  31 11 0 0.000000000000000 2.000000000000000
4 G1 11 0 12 0
2  32 12 0 0.000000000000000 2.000000000000000
0

0101000
+22 4 -22 6 *
Ed
 0.000000100000000 1 1 0
1  19 0 3.141592653589793 4.712388980384691
2  33 11 7 3.141592653589793 4.712388980384691
2  34 11 8 3.141592653589793 4.712388980384691
2  35 4 9 3.141592653589793 4.712388980384691
0

0101000
+27 0 -22 0 *
Wi

0101100
+26 0 -21 0 -20 4 +20 6 *
Fa
0  0.000000100000000 11 0

0111000
+19 0 *
Ve
0.000000100000000
-14.300000000000001 2.000000000000292 0.000000000000000
0 0

0101101
*
Ed
 0.000000100000000 1 1 0
1  20 0 0.000000000000000 2.000000000000000
2  36 13 0 0.000000000000000 2.000000000000000
2  37 12 0 0.000000000000000 2.000000000000000
0

0101000
+17 4 -17 6 *
Ed
 0.000000100000000 1 1 0
1  21 0 0.000000000000000 20.199999999999950
2  38 4 9 0.000000000000000 20.199999999999950
2  39 12 7 0.000000000000000 20.199999999999950
2  40 12 8 0.000000000000000 20.199999999999950
0

0101000
+22 0 -17 0 *
Wi

0101100
+21 0 -16 0 -15 4 +15 6 *
Fa
0  0.000000100000000 12 0

0111000
+14 0 *
Ve
0.000000100000000
-14.300000000000001 0.000000000000000 0.000000000000000
0 0

0101101
*
Ed
 0.000000100000000 1 1 0
1  22 0 0.000000000000000 2.000000000000000
2  41 2 0 0.000000000000000 2.000000000000000
2  42 13 0 0.000000000000000 2.000000000000000
0

0101000
+12 4 -12 6 *
Ed
 0.000000100000000 1 1 0
1  23 0 0.000000000000000 2.000000000000292
2  43 4 9 0.000000000000000 2.000000000000292
2  44 13 7 0.000000000000000 2.000000000000292
2  45 13 8 0.000000000000000 2.000000000000292
0

0101000
+17 0 -12 0 *
Wi

0101100
+16 0 -11 0 -10 4 +10 6 *
Fa
0  0.000000100000000 13 0

0111000
+9 0 *
Ed
 0.000000100000000 1 1 0
1  24 0 0.000000000000000 28.600000000000001
2  46 2 7 0.000000000000000 28.600000000000001
2  47 2 8 0.000000000000000 28.600000000000001
2  48 4 9 0.000000000000000 28.600000000000001
0

0101000
+12 0 -64 0 *
Wi

0101100
+11 0 -63 0 -7 4 +7 6 *
Fa
0  0.000000100000000 2 0

0111000
+6 0 *
Wi

0101100
+60 0 +55 0 +50 0 +45 0 +40 0 +35 0 +30 0 +25 0 +20 0 +15 0 
+10 0 +7 0 *
Fa
0  0.000000100000000 4 0

0111000
-4 11 *
Sh

0101100
-58 0 -53 0 -48 0 -43 0 -38 0 -33 0 -28 0 -23 0 -18 0 -13 0 
-8 0 -5 0 +3 10 -3 12 *
So

1100000
+2 0 *

+1 0 