
CASCADE Topology V1, (c) Matra-Datavision
Locations 38
1
1.000000000000000 0.000000000000000 0.000000000000000 0.000000000000000 
0.000000000000000 1.000000000000000 0.000000000000000 0.000000000000000 
0.000000000000000 0.000000000000000 1.000000000000000 0.000000000000000 
1
1.000000000000000 0.000000000000000 0.000000000000000 0.000000000000000 
0.000000000000000 1.000000000000000 0.000000000000000 0.000000000000000 
0.000000000000000 0.000000000000000 1.000000000000000 0.000000000000000 
1
1.000000000000000 0.000000000000000 0.000000000000000 0.000000000000000 
0.000000000000000 1.000000000000000 0.000000000000000 0.000000000000000 
0.000000000000000 0.000000000000000 1.000000000000000 0.000000000000000 
1
1.000000000000000 0.000000000000000 0.000000000000000 0.000000000000000 
0.000000000000000 1.000000000000000 0.000000000000000 0.000000000000000 
0.000000000000000 0.000000000000000 1.000000000000000 0.000000000000000 
1
1.000000000000000 0.000000000000000 0.000000000000000 0.000000000000000 
0.000000000000000 1.000000000000000 0.000000000000000 0.000000000000000 
0.000000000000000 0.000000000000000 1.000000000000000 0.000000000000000 
1
1.000000000000000 0.000000000000000 0.000000000000000 0.000000000000000 
0.000000000000000 1.000000000000000 0.000000000000000 0.000000000000000 
0.000000000000000 0.000000000000000 1.000000000000000 0.000000000000000 
1
1.000000000000000 0.000000000000000 0.000000000000000 0.000000000000000 
0.000000000000000 1.000000000000000 0.000000000000000 0.000000000000000 
0.000000000000000 0.000000000000000 1.000000000000000 0.000000000000000 
1
1.000000000000000 0.000000000000000 0.000000000000000 0.000000000000000 
0.000000000000000 1.000000000000000 0.000000000000000 0.000000000000000 
0.000000000000000 0.000000000000000 1.000000000000000 0.000000000000000 
1
1.000000000000000 0.000000000000000 0.000000000000000 0.000000000000000 
0.000000000000000 1.000000000000000 0.000000000000000 0.000000000000000 
0.000000000000000 0.000000000000000 1.000000000000000 0.000000000000000 
2  2 -1 3 -1 4 1 5 1 6 1 7 1 8 1 9 -1 0
1
1.000000000000000 0.000000000000000 0.000000000000000 0.000000000000000 
0.000000000000000 1.000000000000000 0.000000000000000 0.000000000000000 
0.000000000000000 0.000000000000000 1.000000000000000 3.000000000000000 
2  2 -1 3 -1 4 1 5 1 6 1 7 1 8 1 9 -1 11 1 0
1
1.000000000000000 0.000000000000000 0.000000000000000 0.000000000000000 
0.000000000000000 1.000000000000000 0.000000000000000 0.000000000000000 
0.000000000000000 0.000000000000000 1.000000000000000 0.000000000000000 
1
1.000000000000000 0.000000000000000 0.000000000000000 0.000000000000000 
0.000000000000000 1.000000000000000 0.000000000000000 0.000000000000000 
0.000000000000000 0.000000000000000 1.000000000000000 0.000000000000000 
1
1.000000000000000 0.000000000000000 0.000000000000000 0.000000000000000 
0.000000000000000 1.000000000000000 0.000000000000000 0.000000000000000 
0.000000000000000 0.000000000000000 1.000000000000000 0.000000000000000 
2  13 1 14 -1 15 1 1 -1 0
2  4 1 5 1 6 1 7 1 8 1 9 -1 0
2  6 -1 5 -1 4 -1 0
2  9 1 8 -1 7 -1 6 -1 5 -1 4 -1 0
2  11 -1 9 1 8 -1 7 -1 6 -1 5 -1 4 -1 0
2  2 -1 3 -1 0
2  4 1 5 1 6 1 7 1 8 1 9 -1 11 1 0
2  13 1 14 -1 15 1 1 -1 9 1 8 -1 7 -1 6 -1 5 -1 4 -1 0
2  13 1 14 -1 15 1 1 -1 11 -1 9 1 8 -1 7 -1 6 -1 5 -1 4 -1 0
2  15 1 1 -1 0
1
1.000000000000000 0.000000000000000 0.000000000000000 0.000000000000000 
0.000000000000000 1.000000000000000 0.000000000000000 0.000000000000000 
0.000000000000000 0.000000000000000 1.000000000000000 0.000000000000000 
2  3 1 26 1 6 1 7 1 8 1 9 -1 0
2  3 1 26 1 6 1 7 1 8 1 9 -1 11 1 0
2  9 1 8 -1 7 -1 6 -1 26 -1 3 -1 0
2  11 -1 9 1 8 -1 7 -1 6 -1 26 -1 3 -1 0
2  6 -1 26 -1 3 -1 0
2  2 -1 3 -1 4 1 5 1 26 -1 3 -1 0
2  15 1 1 -1 9 1 8 -1 7 -1 6 -1 26 -1 3 -1 0
2  15 1 1 -1 11 -1 9 1 8 -1 7 -1 6 -1 26 -1 3 -1 0
2  7 1 8 1 9 -1 0
2  4 1 5 1 6 1 0
2  3 1 26 1 6 1 0
2  7 1 8 1 9 -1 11 1 0
Curve2ds 86
1 0.00000000000000000 0.00000000000000000 0.00000000000000000 -1.00000000000000000 
1 0.00000000000000000 0.00000000000000000 0.00000000000000000 -1.00000000000000000 
1 14.50000000000001066 -0.00000000000000000 0.00000000000000000 -1.00000000000000000 
1 0.00000000000000000 0.00000000000000000 0.00000000000000000 -1.00000000000000000 
1 0.00000000000000000 -362.25451715559307786 0.00000000000000000 1.00000000000000000 
1 3.00000000000000000 -362.25451715559307786 -0.00000000000000000 1.00000000000000000 
1 0.00000000000000124 -176.04135436847519713 -1.00000000000000000 0.00000000000000000 
1 0.00000000000000000 0.00000000000000000 1.00000000000000000 0.00000000000000000 
1 0.00000000000000000 -3.00000000000000000 1.00000000000000000 0.00000000000000000 
1 63.00641495328051178 0.00000000000000000 0.00000000000000000 -1.00000000000000000 
1 0.00000000000000000 0.00000000000000000 0.00000000000000000 -1.00000000000000000 
1 2.26046237088744917 -362.25451715559307786 0.00000000000000000 1.00000000000000000 
1 0.00000000000000000 -362.25451715559307786 0.00000000000000000 1.00000000000000000 
1 -14.50000000000000888 -176.04135436847519713 -0.43011493385387412 0.90277413768665171 
1 0.00000000000000000 0.00000000000000000 1.00000000000000000 0.00000000000000000 
1 0.00000000000000000 -3.00000000000000000 1.00000000000000000 0.00000000000000000 
1 264.50914416164823706 0.00000000000000000 0.00000000000000000 -1.00000000000000000 
1 0.00000000000000000 0.00000000000000000 0.00000000000000000 -1.00000000000000000 
1 1.73205080756886787 -362.25451715559307786 0.00000000000000000 1.00000000000000000 
1 0.00000000000000000 -362.25451715559307786 0.00000000000000000 1.00000000000000000 
1 -41.60000000000000142 -119.16079244030001405 0.00000000000000000 1.00000000000000000 
1 0.00000000000000000 0.00000000000000000 1.00000000000000000 0.00000000000000000 
1 0.00000000000000000 -3.00000000000000000 1.00000000000000000 0.00000000000000000 
1 30.13768405169847497 0.00000000000000000 0.00000000000000000 -1.00000000000000000 
1 0.00000000000000000 0.00000000000000000 0.00000000000000000 -1.00000000000000000 
8 0.00000000000000000 3.00000000000000000
1 2.61799387799154060 -362.25451715559307786 -0.00000000000000000 1.00000000000000000 
1 -0.00000000000002905 -362.25451715559307786 0.00000000000000000 1.00000000000000000 
1 -41.60000000000000142 145.34835172134819459 0.86602540378443837 0.50000000000000044 
1 0.00000000000000000 0.00000000000000000 1.00000000000000000 0.00000000000000000 
1 0.00000000000000000 -3.00000000000000000 1.00000000000000000 0.00000000000000000 
1 0.00000000000000000 0.00000000000000000 0.00000000000000000 -1.00000000000000000 
1 3.00000000000000000 0.00000000000000000 0.00000000000000000 -1.00000000000000000 
1 2.99999999999999423 -362.25451715559307786 0.00000000000000000 1.00000000000000000 
1 -15.49999999999999822 160.41719374719744451 -0.50000000000000000 0.86602540378443871 
1 0.00000000000000000 0.00000000000000000 1.00000000000000000 0.00000000000000000 
1 0.00000000000000000 -3.00000000000000000 1.00000000000000000 0.00000000000000000 
1 -0.00000000000002905 -362.25451715559307786 1.00000000000000000 0.00000000000000000 
1 -0.00000000000002905 -359.25451715559307786 1.00000000000000000 0.00000000000000000 
1 19.62990915244727930 0.00000000000000000 0.00000000000000000 -1.00000000000000000 
1 19.62990915244727930 0.00000000000000000 0.00000000000000000 -1.00000000000000000 
1 1.73205080756888563 -362.25451715559307786 0.00000000000000000 1.00000000000000000 
1 -0.00000000000000000 -362.25451715559307786 0.00000000000000000 1.00000000000000000 
1 1.73205080756888563 -362.25451715559307786 0.00000000000000000 1.00000000000000000 
1 0.00000000000000000 -362.25451715559307786 0.00000000000000000 1.00000000000000000 
1 0.00000000000000000 0.00000000000000000 1.00000000000000000 0.00000000000000000 
1 0.00000000000000000 -3.00000000000000000 1.00000000000000000 0.00000000000000000 
1 -17.00000000000000000 163.01526995855076052 0.86602540378443860 0.50000000000000022 
1 0.00000000000000000 0.00000000000000000 0.00000000000000000 -1.00000000000000000 
1 3.00000000000000000 0.00000000000000000 0.00000000000000000 -1.00000000000000000 
1 2.99999999999999423 -362.25451715559307786 0.00000000000000000 1.00000000000000000 
1 0.00000000000000000 0.00000000000000000 1.00000000000000000 0.00000000000000000 
1 0.00000000000000000 -3.00000000000000000 1.00000000000000000 0.00000000000000000 
1 17.00000000000000000 163.01526995855076052 -0.86602540378443860 0.50000000000000022 
1 0.00000000000000000 0.00000000000000000 0.00000000000000000 -1.00000000000000000 
1 30.13768405169847497 0.00000000000000000 0.00000000000000000 -1.00000000000000000 
8 0.00000000000000000 3.00000000000000000
1 2.61799387799154060 -362.25451715559307786 -0.00000000000000000 1.00000000000000000 
1 -0.00000000000002905 -362.25451715559307786 0.00000000000000000 1.00000000000000000 
1 0.00000000000000000 0.00000000000000000 1.00000000000000000 0.00000000000000000 
1 0.00000000000000000 -3.00000000000000000 1.00000000000000000 0.00000000000000000 
1 15.50000000000000178 160.41719374719744451 0.50000000000000000 0.86602540378443871 
1 -0.00000000000002905 -362.25451715559307786 1.00000000000000000 0.00000000000000000 
1 -0.00000000000002905 -359.25451715559307786 1.00000000000000000 0.00000000000000000 
1 0.00000000000000000 0.00000000000000000 0.00000000000000000 -1.00000000000000000 
1 264.50914416164823706 0.00000000000000000 0.00000000000000000 -1.00000000000000000 
1 1.73205080756886787 -362.25451715559307786 0.00000000000000000 1.00000000000000000 
1 0.00000000000000000 -362.25451715559307786 0.00000000000000000 1.00000000000000000 
1 0.00000000000000000 0.00000000000000000 1.00000000000000000 0.00000000000000000 
1 0.00000000000000000 -3.00000000000000000 1.00000000000000000 0.00000000000000000 
1 41.60000000000000142 145.34835172134819459 -0.86602540378443837 0.50000000000000044 
1 0.00000000000000000 0.00000000000000000 0.00000000000000000 -1.00000000000000000 
1 63.00641495328051178 0.00000000000000000 0.00000000000000000 -1.00000000000000000 
1 2.26046237088744917 -362.25451715559307786 0.00000000000000000 1.00000000000000000 
1 0.00000000000000000 -362.25451715559307786 0.00000000000000000 1.00000000000000000 
1 0.00000000000000000 0.00000000000000000 1.00000000000000000 0.00000000000000000 
1 0.00000000000000000 -3.00000000000000000 1.00000000000000000 0.00000000000000000 
1 41.60000000000000142 -119.16079244030001405 0.00000000000000000 1.00000000000000000 
1 0.00000000000000000 0.00000000000000000 0.00000000000000000 -1.00000000000000000 
1 14.50000000000001066 0.00000000000000000 0.00000000000000000 -1.00000000000000000 
1 0.00000000000000000 -362.25451715559307786 0.00000000000000000 1.00000000000000000 
1 3.00000000000000000 -362.25451715559307786 0.00000000000000000 1.00000000000000000 
1 0.00000000000000000 0.00000000000000000 1.00000000000000000 0.00000000000000000 
1 0.00000000000000000 -3.00000000000000000 1.00000000000000000 0.00000000000000000 
1 14.50000000000001243 -176.04135436847519713 0.43011493385387412 0.90277413768665171 
1 0.00000000000000000 0.00000000000000000 1.00000000000000000 0.00000000000000000 
1 0.00000000000000000 -3.00000000000000000 1.00000000000000000 0.00000000000000000 
1 0.00000000000000124 -176.04135436847519713 1.00000000000000000 0.00000000000000000 
Curves 24
1 0.00000000000000000 -167.50000000000000000 0.00000000000000000 0.00000000000000000 0.00000000000000000 1.00000000000000000 
1 -14.50000000000001066 -167.50000000000000000 0.00000000000000000 0.00000000000000000 0.00000000000000000 1.00000000000000000 
1 0.00000000000000000 -167.50000000000000000 0.00000000000000000 -1.00000000000000000 -0.00000000000000000 -0.00000000000000000 
1 -41.60000000000000142 -110.61943807182483113 0.00000000000000000 0.00000000000000000 0.00000000000000000 1.00000000000000000 
1 -14.50000000000001066 -167.50000000000000000 0.00000000000000000 -0.43011493385387412 0.90277413768665171 -0.00000000000000000 
1 -41.60000000000000142 153.88970608982339172 0.00000000000000000 0.00000000000000000 0.00000000000000000 1.00000000000000000 
1 -41.60000000000000142 -110.61943807182483113 0.00000000000000000 -0.00000000000000000 1.00000000000000000 -0.00000000000000000 
1 -15.50000000000000000 168.95854811567264164 0.00000000000000000 0.00000000000000000 0.00000000000000000 1.00000000000000000 
1 -41.60000000000000142 153.88970608982339172 0.00000000000000000 0.86602540378443837 0.50000000000000044 -0.00000000000000000 
1 -17.00000000000000000 171.55662432702595765 0.00000000000000000 0.00000000000000000 0.00000000000000000 1.00000000000000000 
1 -15.50000000000000000 168.95854811567264164 0.00000000000000000 -0.50000000000000000 0.86602540378443871 -0.00000000000000000 
1 0.00000000000000000 181.37157890324959908 0.00000000000000000 0.00000000000000000 0.00000000000000000 1.00000000000000000 
1 -17.00000000000000000 171.55662432702595765 0.00000000000000000 0.86602540378443860 0.50000000000000022 -0.00000000000000000 
1 17.00000000000000000 171.55662432702595765 0.00000000000000000 0.00000000000000000 0.00000000000000000 1.00000000000000000 
1 17.00000000000000000 171.55662432702595765 0.00000000000000000 -0.86602540378443849 0.50000000000000011 0.00000000000000000 
1 15.50000000000000000 168.95854811567264164 0.00000000000000000 0.00000000000000000 0.00000000000000000 1.00000000000000000 
1 15.50000000000000000 168.95854811567264164 0.00000000000000000 0.50000000000000000 0.86602540378443871 0.00000000000000000 
1 41.60000000000000142 153.88970608982339172 0.00000000000000000 0.00000000000000000 0.00000000000000000 1.00000000000000000 
1 41.60000000000000142 153.88970608982339172 0.00000000000000000 -0.86602540378443837 0.50000000000000044 0.00000000000000000 
1 41.60000000000000142 -110.61943807182483113 0.00000000000000000 0.00000000000000000 0.00000000000000000 1.00000000000000000 
1 41.60000000000000142 -110.61943807182483113 0.00000000000000000 0.00000000000000000 1.00000000000000000 0.00000000000000000 
1 14.50000000000001066 -167.50000000000000000 0.00000000000000000 0.00000000000000000 0.00000000000000000 1.00000000000000000 
1 14.50000000000001066 -167.50000000000000000 0.00000000000000000 0.43011493385387412 0.90277413768665171 0.00000000000000000 
1 0.00000000000000000 -167.50000000000000000 0.00000000000000000 1.00000000000000000 0.00000000000000000 0.00000000000000000 
Polygon3D 0
PolygonOnTriangulations 0
Surfaces 33
1 0.00000000000000000 -167.50000000000000000 0.00000000000000000 0.00000000000000000 -1.00000000000000000 0.00000000000000000 -1.00000000000000000 0.00000000000000000 0.00000000000000000 -0.00000000000000000 -0.00000000000000000 -1.00000000000000000 
1 0.00000000000000000 -167.50000000000000000 0.00000000000000000 0.00000000000000000 1.00000000000000000 0.00000000000000000 1.00000000000000000 0.00000000000000000 0.00000000000000000 0.00000000000000000 0.00000000000000000 -1.00000000000000000 
1 -14.50000000000001066 -167.50000000000000000 0.00000000000000000 -0.90277413768665171 -0.43011493385387412 0.00000000000000000 -0.43011493385387412 0.90277413768665171 0.00000000000000000 -0.00000000000000000 0.00000000000000000 -1.00000000000000000 
1 -14.50000000000001066 -167.50000000000000000 362.25451715559307786 -0.90277413769307513 -0.43011493384039179 -0.00000000000000000 -0.43011493384039179 0.90277413769307513 -0.00000000000000000 -0.00000000000000000 -0.00000000000000000 1.00000000000000000 
1 -11.50000000000001066 -167.50000000000000000 362.25451715559307786 -0.00000000000000000 -1.00000000000000000 -0.00000000000000000 -1.00000000000000000 0.00000000000000000 0.00000000000000000 -0.00000000000000000 -0.00000000000000000 1.00000000000000000 
1 -0.00000000000000124 8.54135436847519003 0.00000000000000000 0.00000000000000000 0.00000000000000000 1.00000000000000000 1.00000000000000000 0.00000000000000000 -0.00000000000000000 -0.00000000000000000 1.00000000000000000 0.00000000000000000 
1 -41.60000000000000142 -110.61943807182483113 0.00000000000000000 -1.00000000000000000 0.00000000000000000 0.00000000000000000 0.00000000000000000 1.00000000000000000 0.00000000000000000 0.00000000000000000 0.00000000000000000 -1.00000000000000000 
1 -40.62774137686658094 -112.66012503947587220 362.25451715559307786 -0.90277413769236614 -0.43011493384187993 -0.00000000000000000 -0.43011493384187993 0.90277413769236614 -0.00000000000000000 -0.00000000000000000 -0.00000000000000000 1.00000000000000000 
1 -41.59999999996674092 -110.61943807182483113 362.25451715559307786 -1.00000000000000000 -0.00000000000000000 -0.00000000000000000 0.00000000000000000 1.00000000000000000 -0.00000000000000000 -0.00000000000000000 0.00000000000000000 1.00000000000000000 
1 -41.60000000000000142 153.88970608982339172 0.00000000000000000 -0.50000000000000044 0.86602540378443837 0.00000000000000000 0.86602540378443837 0.50000000000000044 0.00000000000000000 0.00000000000000000 0.00000000000000000 -1.00000000000000000 
1 -41.60000000000000142 152.15765528225452385 362.25451715559307786 -1.00000000000000000 -0.00000000000000000 -0.00000000000000000 0.00000000000000000 1.00000000000000000 -0.00000000000000000 -0.00000000000000000 0.00000000000000000 1.00000000000000000 
1 -41.60000000000000142 153.88970608982339172 362.25451715559307786 -0.50000000000000588 0.86602540378443527 -0.00000000000000000 0.86602540378443527 0.50000000000000588 -0.00000000000000000 -0.00000000000000000 0.00000000000000000 1.00000000000000000 
1 -15.50000000000000000 168.95854811567264164 0.00000000000000000 -0.86602540378443871 -0.50000000000000000 0.00000000000000000 -0.50000000000000000 0.86602540378443871 0.00000000000000000 -0.00000000000000000 0.00000000000000000 -1.00000000000000000 
2 -16.88564064605490600 168.15854811567285765 362.25451715559307786 -0.00000000000000000 -0.00000000000000000 1.00000000000000000 -1.00000000000000000 0.00000000000000000 -0.00000000000000000 -0.00000000000000000 1.00000000000000000 0.00000000000000000 1.59999999999991460
1 -15.49999999999984013 168.95854811567275533 362.25451715559307786 -0.86602540378440163 -0.50000000000006428 -0.00000000000000000 -0.50000000000006428 0.86602540378440163 -0.00000000000000000 -0.00000000000000000 -0.00000000000000000 1.00000000000000000 
1 -17.00000000000000000 171.55662432702595765 0.00000000000000000 -0.50000000000000022 0.86602540378443860 0.00000000000000000 0.86602540378443860 0.50000000000000022 0.00000000000000000 0.00000000000000000 0.00000000000000000 -1.00000000000000000 
1 17.00000000000000000 171.55662432702595765 0.00000000000000000 -0.50000000000000022 -0.86602540378443860 0.00000000000000000 -0.86602540378443860 0.50000000000000022 0.00000000000000000 -0.00000000000000000 0.00000000000000000 -1.00000000000000000 
1 1.50000000000000488 180.50555349946515094 362.25451715559307786 0.50000000000000377 0.86602540378443649 -0.00000000000000000 -0.86602540378443649 0.50000000000000377 0.00000000000000000 0.00000000000000000 0.00000000000000000 1.00000000000000000 
1 0.00000000000000355 181.37157890324959908 362.25451715559307786 -1.00000000000000000 0.00000000000000726 0.00000000000000000 -0.00000000000000726 -1.00000000000000000 0.00000000000000000 0.00000000000000000 0.00000000000000000 1.00000000000000000 
1 -1.50000000000000488 180.50555349946515094 362.25451715559307786 -0.50000000000000377 0.86602540378443649 -0.00000000000000000 0.86602540378443649 0.50000000000000377 -0.00000000000000000 -0.00000000000000000 0.00000000000000000 1.00000000000000000 
1 -0.00000000000000355 181.37157890324959908 362.25451715559307786 1.00000000000000000 0.00000000000000726 -0.00000000000000000 0.00000000000000726 -1.00000000000000000 0.00000000000000000 -0.00000000000000000 0.00000000000000000 1.00000000000000000 
1 15.50000000000000000 168.95854811567264164 0.00000000000000000 -0.86602540378443871 0.50000000000000000 0.00000000000000000 0.50000000000000000 0.86602540378443871 0.00000000000000000 0.00000000000000000 0.00000000000000000 -1.00000000000000000 
1 15.49999999999984013 168.95854811567275533 362.25451715559307786 0.86602540378440163 -0.50000000000006428 0.00000000000000000 0.50000000000006428 0.86602540378440163 0.00000000000000000 -0.00000000000000000 0.00000000000000000 1.00000000000000000 
1 41.60000000000000142 153.88970608982339172 0.00000000000000000 -0.50000000000000044 -0.86602540378443837 0.00000000000000000 -0.86602540378443837 0.50000000000000044 0.00000000000000000 -0.00000000000000000 0.00000000000000000 -1.00000000000000000 
2 16.88564064605490600 168.15854811567285765 362.25451715559307786 0.00000000000000000 0.00000000000000000 1.00000000000000000 1.00000000000000000 0.00000000000000000 -0.00000000000000000 -0.00000000000000000 1.00000000000000000 0.00000000000000000 1.59999999999991460
1 41.60000000000000142 -110.61943807182483113 0.00000000000000000 -1.00000000000000000 0.00000000000000000 0.00000000000000000 0.00000000000000000 1.00000000000000000 0.00000000000000000 0.00000000000000000 0.00000000000000000 -1.00000000000000000 
1 41.60000000000000142 152.15765528225452385 362.25451715559307786 1.00000000000000000 0.00000000000000000 0.00000000000000000 -0.00000000000000000 1.00000000000000000 0.00000000000000000 0.00000000000000000 -0.00000000000000000 1.00000000000000000 
1 41.60000000000000142 153.88970608982339172 362.25451715559307786 0.50000000000000588 0.86602540378443527 -0.00000000000000000 -0.86602540378443527 0.50000000000000588 0.00000000000000000 0.00000000000000000 0.00000000000000000 1.00000000000000000 
1 14.50000000000001066 -167.50000000000000000 0.00000000000000000 -0.90277413768665171 0.43011493385387412 0.00000000000000000 0.43011493385387412 0.90277413768665171 0.00000000000000000 0.00000000000000000 0.00000000000000000 -1.00000000000000000 
1 40.62774137686658094 -112.66012503947587220 362.25451715559307786 0.90277413769236614 -0.43011493384187993 0.00000000000000000 0.43011493384187993 0.90277413769236614 0.00000000000000000 -0.00000000000000000 0.00000000000000000 1.00000000000000000 
1 41.59999999996674092 -110.61943807182483113 362.25451715559307786 1.00000000000000000 0.00000000000000000 0.00000000000000000 -0.00000000000000000 1.00000000000000000 0.00000000000000000 0.00000000000000000 -0.00000000000000000 1.00000000000000000 
1 14.50000000000001066 -167.50000000000000000 362.25451715559307786 0.90277413769307513 -0.43011493384039179 0.00000000000000000 0.43011493384039179 0.90277413769307513 0.00000000000000000 -0.00000000000000000 0.00000000000000000 1.00000000000000000 
1 11.50000000000001066 -167.50000000000000000 362.25451715559307786 0.00000000000000000 -1.00000000000000000 0.00000000000000000 1.00000000000000000 0.00000000000000000 0.00000000000000000 -0.00000000000000000 0.00000000000000000 1.00000000000000000 
Triangulations 0

TShapes 64
Ve
0.000000100000000
0.000000000000000 -167.500000000000000 0.000000000000000
0 0

0101101
*
Ed
 0.000000100000000 1 1 0
1  1 0 0.000000000000000 3.000000000000000
4 C2 1 0 2 0
2  1 2 0 0.000000000000000 3.000000000000000
2  2 1 0 0.000000000000000 3.000000000000000
0

0101000
+64 10 -64 12 *
Ve
0.000000100041060
-14.500000000000011 -167.500000000000000 0.000000000000000
0 0

0101101
*
Ed
 0.000000100000000 1 1 0
1  2 0 0.000000000000000 3.000000000000000
2  3 1 0 0.000000000000000 3.000000000000000
2  4 3 0 0.000000000000000 3.000000000000000
2  5 4 16 0.000000000000000 3.000000000000000
2  6 5 16 0.000000000000000 3.000000000000000
0

0101000
+62 10 -62 12 *
Ed
 0.000000100000000 1 1 0
1  3 0 0.000000000000000 14.500000000000011
2  7 6 18 0.000000000000000 14.500000000000011
2  8 1 19 0.000000000000000 14.500000000000011
2  9 1 20 0.000000000000000 14.500000000000011
0

0101000
+64 21 -62 21 *
Wi

0101100
+63 0 -61 0 -60 17 +60 22 *
Fa
0  0.000000100000000 1 0

0111000
+59 0 *
Ve
0.000000100033261
-41.600000000000001 -110.619438071824831 0.000000000000000
0 0

0101101
*
Ed
 0.000000100033261 1 1 0
1  4 0 0.000000000000000 3.000000000000000
2  10 3 0 0.000000000000000 3.000000000000000
2  11 7 0 0.000000000000000 3.000000000000000
2  12 8 16 0.000000000000000 3.000000000000000
2  13 9 16 0.000000000000000 3.000000000000000
0

0101000
+57 10 -57 12 *
Ed
 0.000000100000000 1 1 0
1  5 0 0.000000000000000 63.006414953280512
2  14 6 18 0.000000000000000 63.006414953280512
2  15 3 19 0.000000000000000 63.006414953280512
2  16 3 20 0.000000000000000 63.006414953280512
0

0101000
+62 21 -57 21 *
Wi

0101100
+61 0 -56 0 -55 17 +55 22 *
Fa
0  0.000000100000000 3 0

0111000
+54 0 *
Ve
0.000000100000029
-41.600000000000001 153.889706089823392 0.000000000000000
0 0

0101101
*
Ed
 0.000000100000000 1 1 0
1  6 0 0.000000000000000 3.000000000000000
2  17 7 0 0.000000000000000 3.000000000000000
2  18 10 0 0.000000000000000 3.000000000000000
2  19 11 16 0.000000000000000 3.000000000000000
2  20 12 16 0.000000000000000 3.000000000000000
0

0101000
+52 10 -52 12 *
Ed
 0.000000100000000 1 1 0
1  7 0 0.000000000000000 264.509144161648237
2  21 6 18 0.000000000000000 264.509144161648237
2  22 7 19 0.000000000000000 264.509144161648237
2  23 7 20 0.000000000000000 264.509144161648237
0

0101000
+57 21 -52 21 *
Wi

0101100
+56 0 -51 0 -50 17 +50 22 *
Fa
0  0.000000100000000 7 0

0111000
+49 0 *
Ve
0.000000150001000
-15.500000000000000 168.958548115672642 0.000000000000000
0 0

0101101
*
Ed
 0.000000100000196 1 1 0
1  8 0 0.000000000000000 3.000000000000000
2  24 10 0 0.000000000000000 3.000000000000000
2  25 13 0 0.000000000000000 3.000000000000000
2  26 14 16 0.000000000000000 3.000000000000000
2  27 15 16 0.000000000000000 3.000000000000000
0

0101000
+47 10 -47 12 *
Ed
 0.000000100000000 1 1 0
1  9 0 0.000000000000000 30.137684051698475
2  28 6 18 0.000000000000000 30.137684051698475
2  29 10 19 0.000000000000000 30.137684051698475
2  30 10 20 0.000000000000000 30.137684051698475
0

0101000
+52 21 -47 21 *
Wi

0101100
+51 0 -46 0 -45 17 +45 22 *
Fa
0  0.000000100000000 10 0

0111000
+44 0 *
Ve
0.000000100000177
-17.000000000000000 171.556624327025958 0.000000000000000
0 0

0101101
*
Ed
 0.000000100000087 1 1 0
1  10 0 0.000000000000000 3.000000000000000
2  31 16 0 0.000000000000000 3.000000000000000
2  32 13 0 0.000000000000000 3.000000000000000
2  33 15 16 0.000000000000000 3.000000000000000
0

0101000
+42 10 -42 12 *
Ed
 0.000000100000177 1 1 0
1  11 0 0.000000000000000 3.000000000000000
2  34 6 18 0.000000000000000 3.000000000000000
2  35 13 19 0.000000000000000 3.000000000000000
2  36 13 20 0.000000000000000 3.000000000000000
2  37 15 23 0.000000000000000 3.000000000000000
2  38 15 24 0.000000000000000 3.000000000000000
0

0101000
+47 21 -42 21 *
Wi

0101100
+46 0 -41 0 -40 17 +40 22 *
Fa
0  0.000000100000000 13 0

0111000
+39 0 *
Ve
0.000000212133034
0.000000000000000 181.371578903249599 0.000000000000000
0 0

0101101
*
Ed
 0.000000100000004 1 1 0
1  12 0 0.000000000000000 3.000000000000000
2  39 16 0 0.000000000000000 3.000000000000000
2  40 17 0 0.000000000000000 3.000000000000000
2  41 18 25 0.000000000000000 3.000000000000000
2  42 19 25 0.000000000000000 3.000000000000000
2  43 20 16 0.000000000000000 3.000000000000000
2  44 21 16 0.000000000000000 3.000000000000000
0

0101000
+37 10 -37 12 *
Ed
 0.000000100000000 1 1 0
1  13 0 0.000000000000000 19.629909152447276
2  45 16 19 0.000000000000000 19.629909152447276
2  46 16 20 0.000000000000000 19.629909152447276
2  47 6 18 0.000000000000000 19.629909152447276
0

0101000
+42 21 -37 21 *
Wi

0101100
+41 0 -36 0 -35 17 +35 22 *
Fa
0  0.000000100000000 16 0

0111000
+34 0 *
Ve
0.000000100000177
17.000000000000000 171.556624327025958 0.000000000000000
0 0

0101101
*
Ed
 0.000000100000087 1 1 0
1  14 0 0.000000000000000 3.000000000000000
2  48 17 0 0.000000000000000 3.000000000000000
2  49 22 0 0.000000000000000 3.000000000000000
2  50 23 25 0.000000000000000 3.000000000000000
0

0101000
+32 27 -32 28 *
Ed
 0.000000100000000 1 1 0
1  15 0 0.000000000000000 19.629909152447276
2  51 17 29 0.000000000000000 19.629909152447276
2  52 17 30 0.000000000000000 19.629909152447276
2  53 6 31 0.000000000000000 19.629909152447276
0

0101000
+32 0 -37 32 *
Wi

0101100
+31 0 -36 0 -30 27 +30 28 *
Fa
0  0.000000100000000 17 0

0111000
+29 0 *
Ve
0.000000150001000
15.500000000000000 168.958548115672642 0.000000000000000
0 0

0101101
*
Ed
 0.000000100000196 1 1 0
1  16 0 0.000000000000000 3.000000000000000
2  54 22 0 0.000000000000000 3.000000000000000
2  55 24 0 0.000000000000000 3.000000000000000
2  56 25 25 0.000000000000000 3.000000000000000
2  57 23 25 0.000000000000000 3.000000000000000
0

0101000
+27 27 -27 28 *
Ed
 0.000000100000177 1 1 0
1  17 0 0.000000000000000 3.000000000000000
2  58 22 29 0.000000000000000 3.000000000000000
2  59 22 30 0.000000000000000 3.000000000000000
2  60 6 31 0.000000000000000 3.000000000000000
2  61 23 33 0.000000000000000 3.000000000000000
2  62 23 34 0.000000000000000 3.000000000000000
0

0101000
+27 0 -32 0 *
Wi

0101100
+26 0 -31 0 -25 27 +25 28 *
Fa
0  0.000000100000000 22 0

0111000
+24 0 *
Ve
0.000000100000029
41.600000000000001 153.889706089823392 0.000000000000000
0 0

0101101
*
Ed
 0.000000100000000 1 1 0
1  18 0 0.000000000000000 3.000000000000000
2  63 24 0 0.000000000000000 3.000000000000000
2  64 26 0 0.000000000000000 3.000000000000000
2  65 27 25 0.000000000000000 3.000000000000000
2  66 28 25 0.000000000000000 3.000000000000000
0

0101000
+22 27 -22 28 *
Ed
 0.000000100000000 1 1 0
1  19 0 0.000000000000000 30.137684051698475
2  67 24 29 0.000000000000000 30.137684051698475
2  68 24 30 0.000000000000000 30.137684051698475
2  69 6 31 0.000000000000000 30.137684051698475
0

0101000
+22 0 -27 0 *
Wi

0101100
+21 0 -26 0 -20 27 +20 28 *
Fa
0  0.000000100000000 24 0

0111000
+19 0 *
Ve
0.000000100033261
41.600000000000001 -110.619438071824831 0.000000000000000
0 0

0101101
*
Ed
 0.000000100033261 1 1 0
1  20 0 0.000000000000000 3.000000000000000
2  70 26 0 0.000000000000000 3.000000000000000
2  71 29 0 0.000000000000000 3.000000000000000
2  72 30 25 0.000000000000000 3.000000000000000
2  73 31 25 0.000000000000000 3.000000000000000
0

0101000
+17 27 -17 28 *
Ed
 0.000000100000000 1 1 0
1  21 0 0.000000000000000 264.509144161648237
2  74 26 29 0.000000000000000 264.509144161648237
2  75 26 30 0.000000000000000 264.509144161648237
2  76 6 31 0.000000000000000 264.509144161648237
0

0101000
+17 0 -22 0 *
Wi

0101100
+16 0 -21 0 -15 27 +15 28 *
Fa
0  0.000000100000000 26 0

0111000
+14 0 *
Ve
0.000000100041060
14.500000000000011 -167.500000000000000 0.000000000000000
0 0

0101101
*
Ed
 0.000000100000000 1 1 0
1  22 0 0.000000000000000 3.000000000000000
2  77 29 0 0.000000000000000 3.000000000000000
2  78 2 0 0.000000000000000 3.000000000000000
2  79 32 25 0.000000000000000 3.000000000000000
2  80 33 25 0.000000000000000 3.000000000000000
0

0101000
+12 27 -12 28 *
Ed
 0.000000100000000 1 1 0
1  23 0 0.000000000000000 63.006414953280512
2  81 29 29 0.000000000000000 63.006414953280512
2  82 29 30 0.000000000000000 63.006414953280512
2  83 6 31 0.000000000000000 63.006414953280512
0

0101000
+12 0 -17 0 *
Wi

0101100
+11 0 -16 0 -10 27 +10 28 *
Fa
0  0.000000100000000 29 0

0111000
+9 0 *
Ed
 0.000000100000000 1 1 0
1  24 0 0.000000000000000 14.500000000000011
2  84 2 29 0.000000000000000 14.500000000000011
2  85 2 30 0.000000000000000 14.500000000000011
2  86 6 31 0.000000000000000 14.500000000000011
0

0101000
+64 32 -12 0 *
Wi

0101100
+63 0 -11 0 -7 27 +7 28 *
Fa
0  0.000000100000000 2 0

0111000
+6 0 *
Wi

0101100
+60 36 +55 36 +50 36 +45 36 +40 36 +35 36 -30 37 -25 37 -20 37 -15 37 
-10 37 -7 37 *
Fa
0  0.000000100000000 6 0

0111000
-4 0 *
Sh

0101100
-58 0 -53 0 -48 0 -43 0 -38 0 -33 0 +28 0 +23 0 +18 0 +13 0 
+8 0 +5 0 +3 35 -3 38 *
So

1100000
-2 0 *

+1 1 