
CASCADE Topology V1, (c) Matra-Datavision
Locations 3
1
1.000000000000000 0.000000000000000 0.000000000000000 0.000000000000000 
0.000000000000000 1.000000000000000 0.000000000000000 0.000000000000000 
0.000000000000000 0.000000000000000 1.000000000000000 0.000000000000000 
1
1.000000000000000 0.000000000000000 0.000000000000000 0.000000000000000 
0.000000000000000 1.000000000000000 0.000000000000000 0.000000000000000 
0.000000000000000 0.000000000000000 1.000000000000000 1113.000000000000000 
2  2 -1 0
Curve2ds 56
1 0.00000000000000000 0.00000000000000000 0.00000000000000000 -1.00000000000000000 
1 6.28318530717958623 0.00000000000000000 0.00000000000000000 -1.00000000000000000 
1 0.00000000000000000 -0.50000000000000000 1.00000000000000000 0.00000000000000000 
1 0.00000000000000000 -0.50000000000000000 -1.00000000000000000 0.00000000000000000 
1 34.60000000002628440 0.00000000000000000 0.00000000000000000 -1.00000000000000000 
1 0.00000000000000000 0.00000000000000000 1.00000000000000000 0.00000000000000000 
1 0.00000000000000000 -0.50000000000000000 1.00000000000000000 0.00000000000000000 
1 0.00000000000000000 -0.50000000000000000 -1.00000000000000000 0.00000000000000000 
1 0.00000000000000000 0.00000000000000000 1.00000000000000000 0.00000000000000000 
1 0.00000000000000000 -1113.00000000000000000 1.00000000000000000 0.00000000000000000 
6 0 1 0.00000000000000000 -0.50000000000000000  0.00000000000000000 0.00000000000000000  
1 0.00000000000000000 0.00000000000000000 0.00000000000000000 -1.00000000000000000 
6 0 1 0.00000000000000000 -0.50000000000000000  0.00000000000000000 0.00000000000000000  
1 4.71238898038468967 0.00000000000000000 0.00000000000000000 -1.00000000000000000 
1 0.00000000000000000 -0.50000000000000000 1.00000000000000000 0.00000000000000000 
1 0.00000000000000000 -0.50000000000000000 -1.00000000000000000 0.00000000000000000 
1 18.50000000000000355 0.00000000000000000 0.00000000000000000 -1.00000000000000000 
1 -4.71238898038468967 1113.00000000000000000 1.00000000000000000 0.00000000000000000 
1 0.00000000000000000 0.00000000000000000 1.00000000000000000 0.00000000000000000 
1 0.00000000000000000 -1113.00000000000000000 1.00000000000000000 0.00000000000000000 
1 6.28318530717958623 0.00000000000000000 -1.00000000000000000 0.00000000000000000 
1 0.00000000000000000 0.00000000000000000 1.00000000000000000 0.00000000000000000 
1 0.00000000000000000 0.00000000000000000 1.00000000000000000 0.00000000000000000 
1 -0.00000000000000000 0.00000000000000000 -1.00000000000000000 0.00000000000000000 
6 0 1 0.00000000000000000 -0.50000000000000000  0.00000000000000000 0.00000000000000000  
6 0 1 -34.60000000002628440 -0.50000000000000000  -34.60000000002628440 0.00000000000000000  
8 0.00000000000000000 1.00000000000000000
1 6.28318530717958623 0.00000000000000000 0.00000000000000000 1.00000000000000000 
6 0 1 34.60000000002628440 -0.50000000000000000  34.60000000002628440 0.00000000000000000  
6 0 1 -1113.00000000000000000 -0.50000000000000000  -1113.00000000000000000 0.00000000000000000  
8 0.00000000000000000 1.00000000000000000
1 0.00000000000000000 0.00000000000000000 0.00000000000000000 1.00000000000000000 
1 0.00000000000000000 -1113.00000000000000000 1.00000000000000000 0.00000000000000000 
1 0.00000000000000000 0.00000000000000000 1.00000000000000000 0.00000000000000000 
1 34.60000000002628440 0.00000000000000000 0.00000000000000000 -1.00000000000000000 
1 0.00000000000000000 0.00000000000000000 -1.00000000000000000 0.00000000000000000 
8 0.00000000000000000 1113.00000000000000000
1 6.28318530717958623 0.00000000000000000 0.00000000000000000 -1.00000000000000000 
1 0.00000000000000000 0.00000000000000000 0.00000000000000000 -1.00000000000000000 
1 0.00000000000000000 0.00000000000000000 1.00000000000000000 0.00000000000000000 
1 0.00000000000000000 -0.50000000000000000 -1.00000000000000000 0.00000000000000000 
1 0.00000000000000000 -0.50000000000000000 1.00000000000000000 0.00000000000000000 
1 0.00000000000000000 0.00000000000000000 1.00000000000000000 0.00000000000000000 
1 0.00000000000000000 -1113.00000000000000000 1.00000000000000000 0.00000000000000000 
1 0.00000000000000000 1.00000000000000000 1.00000000000000000 0.00000000000000000 
1 4.71238898038468967 0.00000000000000000 0.00000000000000000 1.00000000000000000 
6 0 1 0.00000000000000000 -0.50000000000000000  0.00000000000000000 0.00000000000000000  
1 1.57079632679489656 0.00000000000000000 0.00000000000000000 1.00000000000000000 
7 0 0  1 2 2  -1113.00000000000000000 -0.50000000000000000  -1113.00000000000000000 -0.00000000000000355 
 0.00000000000000000 2 1.00000000000000000 2
1 6.28318530717958623 1.00000000000000000 -1.00000000000000000 0.00000000000000000 
1 0.00000000000000000 0.00000000000000000 -1.00000000000000000 0.00000000000000000 
1 18.50000000000000355 0.00000000000000000 0.00000000000000000 -1.00000000000000000 
6 0 1 0.00000000000000000 -0.50000000000000000  0.00000000000000000 0.00000000000000000  
1 0.00000000000000000 0.00000000000000000 0.00000000000000000 -1.00000000000000000 
6 0 1 0.00000000000000000 -0.50000000000000000  0.00000000000000000 0.00000000000000000  
1 0.00000000000000000 0.00000000000000000 1.00000000000000000 0.00000000000000000 
1 0.00000000000000000 0.00000000000000000 1.00000000000000000 0.00000000000000000 
1 0.00000000000000000 -1113.00000000000000000 1.00000000000000000 0.00000000000000000 
1 0.00000000000000000 0.00000000000000000 -1.00000000000000000 0.00000000000000000 
Curves 25
1 -18.30000000002628369 1.50000000000000355 0.00000000000000000 0.00000000000000000 0.00000000000000000 1.00000000000000000 
1 16.30000000000000071 1.50000000000000355 0.00000000000000000 0.00000000000000000 0.00000000000000000 1.00000000000000000 
1 -18.30000000002628369 1.50000000000000355 0.00000000000000000 1.00000000000000000 0.00000000000000000 0.00000000000000000 
6 0 1 -18.30000000002628369 1.50000000000000355 1113.00000000000000000  -18.30000000002628369 2.00000000000000355 1113.00000000000000000  
1 -18.30000000002628369 2.00000000000000355 0.00000000000000000 0.00000000000000000 0.00000000000000000 1.00000000000000000 
6 0 1 -18.30000000002628369 1.50000000000000355 0.00000000000000000  -18.30000000002628369 2.00000000000000355 0.00000000000000000  
1 18.30000000000000071 -0.49999999999999645 0.00000000000000000 0.00000000000000000 0.00000000000000000 1.00000000000000000 
2 16.30000000000000071 -0.49999999999999645 0.00000000000000000 0.00000000000000000 0.00000000000000000 1.00000000000000000 -0.00000000000000022 1.00000000000000000 0.00000000000000000 -1.00000000000000000 -0.00000000000000022 0.00000000000000000 2.00000000000000000
1 -18.30000000002628369 2.00000000000000355 0.00000000000000000 1.00000000000000000 0.00000000000000000 0.00000000000000000 
6 0 1 16.30000000000000071 1.50000000000000355 0.00000000000000000  16.30000000000000071 2.00000000000000355 0.00000000000000000  
6 0 1 16.30000000000000071 1.50000000000000355 1113.00000000000000000  16.30000000000000071 2.00000000000000355 1113.00000000000000000  
1 -18.30000000002628369 2.00000000000000355 1113.00000000000000000 1.00000000000000000 0.00000000000000000 0.00000000000000000 
1 16.30000000000000071 2.00000000000000355 0.00000000000000000 0.00000000000000000 0.00000000000000000 1.00000000000000000 
1 18.30000000000000071 -19.00000000000000000 0.00000000000000000 0.00000000000000000 0.00000000000000000 1.00000000000000000 
1 18.30000000000000071 -19.00000000000000000 0.00000000000000000 0.00000000000000000 1.00000000000000000 0.00000000000000000 
2 16.30000000000000071 -0.49999999999999645 0.00000000000000000 0.00000000000000000 0.00000000000000000 1.00000000000000000 -0.00000000000000022 1.00000000000000000 0.00000000000000000 -1.00000000000000000 -0.00000000000000022 0.00000000000000000 2.50000000000000000
6 0 1 18.30000000000000071 -0.49999999999999645 0.00000000000000000  18.80000000000000071 -0.49999999999999634 0.00000000000000000  
7 0 0  1 2 2  18.30000000000000071 -0.49999999999999611 1113.00000000000000000  18.79999999999999716 -0.49999999999999556 1113.00000000000000000 
 0.00000000000000000 2 1.00000000000000000 2
2 16.30000000000000071 -0.49999999999999645 1113.00000000000000000 0.00000000000000000 0.00000000000000000 1.00000000000000000 -0.00000000000000022 1.00000000000000000 0.00000000000000000 -1.00000000000000000 -0.00000000000000022 0.00000000000000000 2.50000000000000000
1 18.80000000000000071 -0.49999999999999634 0.00000000000000000 0.00000000000000000 0.00000000000000000 1.00000000000000000 
6 0 1 18.30000000000000071 -19.00000000000000000 0.00000000000000000  18.80000000000000071 -19.00000000000000000 0.00000000000000000  
1 18.80000000000000071 -19.00000000000000000 0.00000000000000000 0.00000000000000000 0.00000000000000000 1.00000000000000000 
6 0 1 18.30000000000000071 -19.00000000000000000 1113.00000000000000000  18.80000000000000071 -19.00000000000000000 1113.00000000000000000  
1 18.80000000000000071 -19.00000000000000000 0.00000000000000000 0.00000000000000000 1.00000000000000000 0.00000000000000000 
1 18.80000000000000071 -19.00000000000000000 1113.00000000000000000 0.00000000000000000 1.00000000000000000 0.00000000000000000 
Polygon3D 0
PolygonOnTriangulations 0
Surfaces 21
1 -18.30000000002628369 1.50000000000000355 0.00000000000000000 0.00000000000000000 1.00000000000000000 0.00000000000000000 1.00000000000000000 0.00000000000000000 0.00000000000000000 0.00000000000000000 0.00000000000000000 -1.00000000000000000 
2 16.30000000000000071 -0.49999999999999645 0.00000000000000000 -0.00000000000000000 -0.00000000000000000 -1.00000000000000000 -0.00000000000000022 1.00000000000000000 0.00000000000000000 -1.00000000000000000 -0.00000000000000022 0.00000000000000000 2.00000000000000000
1 16.30000000000000071 2.00000000000000355 0.00000000000000000 -1.00000000000000000 0.00000000000000000 0.00000000000000000 0.00000000000000000 0.00000000000000000 1.00000000000000000 0.00000000000000000 1.00000000000000000 -0.00000000000000000 
1 16.30000000000000071 2.00000000000000355 0.00000000000000000 1.00000000000000000 0.00000000000000000 0.00000000000000000 0.00000000000000000 0.00000000000000000 -1.00000000000000000 -0.00000000000000000 1.00000000000000000 0.00000000000000000 
1 -18.30000000002628369 1.50000000000000355 0.00000000000000000 0.00000000000000000 1.00000000000000000 0.00000000000000000 1.00000000000000000 0.00000000000000000 0.00000000000000000 0.00000000000000000 0.00000000000000000 -1.00000000000000000 
1 -18.30000000002628369 2.00000000000000355 1113.00000000000000000 0.00000000000000000 0.00000000000000000 1.00000000000000000 1.00000000000000000 0.00000000000000000 -0.00000000000000000 -0.00000000000000000 1.00000000000000000 0.00000000000000000 
1 -18.30000000002628369 2.00000000000000355 0.00000000000000000 0.00000000000000000 0.00000000000000000 -1.00000000000000000 -1.00000000000000000 -0.00000000000000000 -0.00000000000000000 -0.00000000000000000 1.00000000000000000 0.00000000000000000 
1 -18.30000000002628369 2.00000000000000355 0.00000000000000000 -1.00000000000000000 0.00000000000000000 0.00000000000000000 0.00000000000000000 0.00000000000000000 1.00000000000000000 0.00000000000000000 1.00000000000000000 -0.00000000000000000 
1 -18.30000000002628369 2.00000000000000355 0.00000000000000000 0.00000000000000000 1.00000000000000000 0.00000000000000000 1.00000000000000000 0.00000000000000000 0.00000000000000000 0.00000000000000000 0.00000000000000000 -1.00000000000000000 
1 18.30000000000000071 -19.00000000000000000 0.00000000000000000 -1.00000000000000000 0.00000000000000000 0.00000000000000000 0.00000000000000000 1.00000000000000000 0.00000000000000000 0.00000000000000000 0.00000000000000000 -1.00000000000000000 
1 18.80000000000000071 -0.49999999999999645 0.00000000000000000 0.00000000000000000 1.00000000000000000 0.00000000000000000 0.00000000000000000 -0.00000000000000000 1.00000000000000000 1.00000000000000000 0.00000000000000000 -0.00000000000000000 
1 18.80000000000000071 -0.49999999999999634 0.00000000000000000 0.00000000000000022 -1.00000000000000000 0.00000000000000000 0.00000000000000000 -0.00000000000000000 -1.00000000000000000 1.00000000000000000 0.00000000000000022 0.00000000000000000 
2 16.30000000000000071 -0.49999999999999600 1113.00000000000000000 0.00000000000000000 0.00000000000000000 -1.00000000000000000 1.00000000000000000 -0.00000000000000000 0.00000000000000000 -0.00000000000000000 1.00000000000000000 0.00000000000000000 2.00000000000000000
9 0 0 0 0 8 1 9 2 2 2 16.30000000000000071 1.50000000000000355 1113.00000000000000000  16.29999999999999716 2.00000000000000355 1113.00000000000000000  
16.69269908169878391 1.50000000000000777 1112.99999999999886313  16.79087385212336514 2.00000000000000089 1112.99999999999886313  
17.08539828700823193 1.41187842207758263 1113.00000000000477485  17.28174785876064945 1.88984802759700043 1113.00000000000477485  
17.45502646867051411 1.23563613174289233 1112.99999999998954081  17.74378308583742481 1.66954516467857927 1112.99999999998954081  
17.77851751155927573 0.97851751155975664 1113.00000000001455192  18.14814688945003951 1.34814688944973193 1113.00000000001455192  
18.03563613174334535 0.65502646867015324 1112.99999999998726707  18.46954516467830842 0.94378308583766657 1112.99999999998726707  
18.21187842207730512 0.28539828700842212 1113.00000000000636646  18.68984802759712949 0.48174785876053633 1113.00000000000636646  
18.30000000000008953 -0.10730091830126993 1112.99999999999863576  18.79999999999996874 -0.00912614787659028 1112.99999999999863576  
18.30000000000000071 -0.49999999999999611 1113.00000000000000000  18.79999999999999716 -0.49999999999999556 1113.00000000000000000  

0.00000000000000000 9
1.57079632679489656 9

0.00000000000000000 2
1.00000000000000000 2

9 0 0 0 0 8 1 9 2 2 2 18.29999999999998650 -0.49999999999999606 0.00000000000000000  18.79999999999998650 -0.49999999999999606 0.00000000000000000  
18.29999999999982307 -0.10730091830127898 0.00000000000000000  18.79999999999976268 -0.00912614787660627 0.00000000000000000  
18.21187842207819685 0.28539828700845660 0.00000000000000000  18.68984802759783292 0.48174785876059290 0.00000000000000000  
18.03563613174190650 0.65502646867009173 0.00000000000000000  18.46954516467712537 0.94378308583757164 0.00000000000000000  
17.77851751156073590 0.97851751155982092 0.00000000000000000  18.14814688945135401 1.34814688944982342 0.00000000000000000  
17.45502646866948382 1.23563613174284503 0.00000000000000000  17.74378308583637676 1.66954516467851999 0.00000000000000000  
17.08539828700871865 1.41187842207760550 0.00000000000000000  17.28174785876122854 1.88984802759702442 0.00000000000000000  
16.69269908169866667 1.50000000000000133 0.00000000000000000  16.79087385212320527 1.99999999999999556 0.00000000000000000  
16.30000000000000071 1.50000000000000355 0.00000000000000000  16.30000000000000071 2.00000000000000355 0.00000000000000000  

4.71238898038468967 9
6.28318530717958623 9

0.00000000000000000 2
1.00000000000000000 2

2 16.30000000000000071 -0.49999999999999645 0.00000000000000000 -0.00000000000000000 -0.00000000000000000 -1.00000000000000000 -0.00000000000000022 1.00000000000000000 0.00000000000000000 -1.00000000000000000 -0.00000000000000022 0.00000000000000000 2.50000000000000000
1 18.30000000000000071 -19.00000000000000000 0.00000000000000000 -1.00000000000000000 0.00000000000000000 0.00000000000000000 0.00000000000000000 1.00000000000000000 0.00000000000000000 0.00000000000000000 0.00000000000000000 -1.00000000000000000 
1 18.80000000000000071 -19.00000000000000000 1113.00000000000000000 0.00000000000000000 0.00000000000000000 1.00000000000000000 0.00000000000000000 -1.00000000000000000 0.00000000000000000 1.00000000000000000 0.00000000000000000 -0.00000000000000000 
1 18.80000000000000071 -19.00000000000000000 0.00000000000000000 0.00000000000000000 0.00000000000000000 -1.00000000000000000 0.00000000000000000 1.00000000000000000 0.00000000000000000 1.00000000000000000 -0.00000000000000000 0.00000000000000000 
1 18.80000000000000071 -19.00000000000000000 0.00000000000000000 -1.00000000000000000 0.00000000000000000 0.00000000000000000 0.00000000000000000 1.00000000000000000 0.00000000000000000 0.00000000000000000 0.00000000000000000 -1.00000000000000000 
1 18.80000000000000071 -19.00000000000000000 0.00000000000000000 0.00000000000000000 -1.00000000000000000 0.00000000000000000 -0.00000000000000000 -0.00000000000000000 -1.00000000000000000 1.00000000000000000 0.00000000000000000 -0.00000000000000000 
Triangulations 0

TShapes 68
Ve
0.001000000000000
-18.300000000026284 1.500000000000004 0.000000000000000
0 0

0101101
*
Ed
 0.001000000000000 1 1 0
1  1 0 0.000000000000000 1113.000000000000000
2  1 1 0 0.000000000000000 1113.000000000000000
0

0101000
+68 0 -68 2 *
Ve
0.001000000000000
16.300000000000001 1.500000000000004 0.000000000000000
0 0

0101101
*
Ed
 0.001000000000000 1 1 0
1  2 0 0.000000000000000 1113.000000000000000
2  2 2 0 0.000000000000000 1113.000000000000000
4 G1 1 0 2 0
2  3 3 0 0.000000000000000 1113.000000000000000
2  4 4 0 0.000000000000000 1113.000000000000000
2  5 1 0 0.000000000000000 1113.000000000000000
0

0101000
+66 0 -66 2 *
Ed
 0.001000000000000 1 1 0
2  6 5 0 0.000000000000000 34.600000000026284
1  3 0 0.000000000000000 34.600000000026284
2  7 6 3 0.000000000000000 34.600000000026284
2  8 7 0 0.000000000000000 34.600000000026284
2  9 1 0 0.000000000000000 34.600000000026284
2  10 1 3 0.000000000000000 34.600000000026284
0

0101000
+68 0 -66 0 *
Wi

0101100
+67 0 -65 0 -64 0 +64 2 *
Fa
0  0.001000000000000 1 0

0111000
+63 0 *
Ve
0.001000000000000
-18.300000000026284 2.000000000000004 1113.000000000000000
0 0

0101101
*
Ed
 0.000000100000000 1 1 0
1  4 0 0.000000000000000 1.000000000000000
4 C0 8 0 6 0
2  11 6 0 0.000000000000000 1.000000000000000
0

0101000
+68 2 -61 0 *
Ve
0.001000000000000
-18.300000000026284 2.000000000000004 0.000000000000000
0 0

0101101
*
Ed
 0.001000000000000 1 1 0
2  12 9 0 0.000000000000000 1113.000000000000000
1  5 0 0.000000000000000 1113.000000000000000
0

0101000
+59 0 -61 0 *
Ed
 0.000000100000000 1 1 0
1  6 0 0.000000000000000 1.000000000000000
4 C0 8 0 7 0
2  13 7 0 0.000000000000000 1.000000000000000
0

0101000
+68 0 -59 0 *
Wi

0101000
+67 0 +60 0 -58 0 -57 0 *
Fa
0  0.000000100000000 8 0

0111000
+56 0 *
Ve
0.001000000000000
18.300000000000001 -0.499999999999996 0.000000000000000
0 0

0101101
*
Ed
 0.001000000000000 1 1 0
1  7 0 0.000000000000000 1113.000000000000000
2  14 2 0 0.000000000000000 1113.000000000000000
4 G1 2 0 10 0
2  15 11 0 0.000000000000000 1113.000000000000000
2  16 12 0 0.000000000000000 1113.000000000000000
2  17 10 0 0.000000000000000 1113.000000000000000
0

0101000
+54 0 -54 2 *
Ed
 0.000000100000000 1 1 0
2  18 13 0 4.712388980384690 6.283185307179586
1  8 0 4.712388980384690 6.283185307179586
2  19 2 0 4.712388980384690 6.283185307179586
2  20 2 3 4.712388980384690 6.283185307179586
2  21 14 3 4.712388980384690 6.283185307179586
2  22 15 0 4.712388980384690 6.283185307179586
0

0101000
+54 0 -66 0 *
Wi

0101100
+53 0 -65 0 -52 0 +52 2 *
Fa
0  0.000000100000000 2 0

0111000
+51 0 *
Ve
0.001000000000000
16.300000000000001 2.000000000000004 0.000000000000000
0 0

0101101
*
Ed
 0.001000000000000 1 1 0
2  23 9 0 0.000000000000000 34.600000000026284
1  9 0 0.000000000000000 34.600000000026284
2  24 7 0 0.000000000000000 34.600000000026284
0

0101000
+59 0 -49 0 *
Ed
 0.000000100000000 1 1 0
1  10 0 0.000000000000000 1.000000000000000
4 C0 4 0 7 0
2  25 4 0 0.000000000000000 1.000000000000000
2  26 7 0 0.000000000000000 1.000000000000000
2  27 15 0 0.000000000000000 1.000000000000000
0

0101000
+66 0 -49 0 *
Wi

0101100
-64 0 +57 0 +48 0 -47 0 *
Fa
0  0.000000100000000 7 0

0111000
+46 0 *
Ve
0.001000000000000
16.300000000000001 2.000000000000004 1113.000000000000000
0 0

0101101
*
Ed
 0.000000100000000 1 1 0
1  11 0 0.000000000000000 1.000000000000000
4 C0 6 0 4 0
2  28 6 0 0.000000000000000 1.000000000000000
2  29 4 0 0.000000000000000 1.000000000000000
2  30 14 0 0.000000000000000 1.000000000000000
0

0101000
+66 2 -44 0 *
Ed
 0.001000000000000 1 1 0
2  31 9 0 0.000000000000000 34.600000000026284
1  12 0 0.000000000000000 34.600000000026284
2  32 6 0 0.000000000000000 34.600000000026284
0

0101000
+61 0 -44 0 *
Wi

0101100
+64 2 +43 0 -42 0 -60 0 *
Fa
0  0.000000100000000 6 0

0111000
+41 0 *
Ed
 0.001000000000000 1 1 0
2  33 9 0 0.000000000000000 1113.000000000000000
1  13 0 0.000000000000000 1113.000000000000000
2  34 4 0 0.000000000000000 1113.000000000000000
2  35 16 0 0.000000000000000 1113.000000000000000
0

0101000
+49 0 -44 0 *
Wi

0101100
+58 0 -39 0 -48 0 +42 0 *
Fa
0  0.001000000000000 9 0

0111000
+38 0 *
Ve
0.001000000000000
18.300000000000001 -19.000000000000000 0.000000000000000
0 0

0101101
*
Ed
 0.001000000000000 1 1 0
1  14 0 0.000000000000000 1113.000000000000000
2  36 10 0 0.000000000000000 1113.000000000000000
0

0101000
+36 0 -36 2 *
Ed
 0.001000000000000 1 1 0
2  37 17 0 0.000000000000000 18.500000000000004
1  15 0 0.000000000000000 18.500000000000004
2  38 18 3 0.000000000000000 18.500000000000004
2  39 19 0 0.000000000000000 18.500000000000004
2  40 10 0 0.000000000000000 18.500000000000004
2  41 10 3 0.000000000000000 18.500000000000004
0

0101000
+36 0 -54 0 *
Wi

0101100
+35 0 -53 0 -34 0 +34 2 *
Fa
0  0.001000000000000 10 0

0111000
+33 0 *
Ve
0.001000000000000
18.800000000000001 -0.499999999999996 0.000000000000000
0 0

0101101
*
Ed
 0.000000100000000 1 1 0
2  19 16 0 4.712388980384690 6.283185307179586
1  16 0 4.712388980384690 6.283185307179586
2  42 15 0 4.712388980384690 6.283185307179586
0

0101000
+31 0 -49 0 *
Ed
 0.000000100000000 1 1 0
1  17 0 0.000000000000000 1.000000000000000
2  43 15 0 0.000000000000000 1.000000000000000
4 C0 12 0 15 0
2  44 12 0 0.000000000000000 1.000000000000000
0

0101000
+54 0 -31 0 *
Wi

0101100
+52 0 +47 0 -30 0 -29 0 *
Fa
0  0.000000100000000 15 0

0111000
+28 0 *
Ve
0.001000000000000
18.800000000000001 -0.499999999999996 1113.000000000000000
0 0

0101101
*
Ed
 0.000000100000001 1 1 0
1  18 0 0.000000000000000 1.000000000000000
2  45 14 0 0.000000000000000 1.000000000000000
4 C0 14 0 12 0
2  46 12 0 0.000000000000000 1.000000000000000
0

0101000
+54 2 -26 0 *
Ed
 0.000000100000000 1 1 0
2  20 16 0 4.712388980384690 6.283185307179586
1  19 0 4.712388980384690 6.283185307179586
2  47 14 0 4.712388980384690 6.283185307179586
0

0101000
+26 0 -44 0 *
Wi

0101100
-52 2 +25 0 +24 0 -43 0 *
Fa
0  0.000000100000000 14 0

0111000
+23 0 *
Ed
 0.001000000000000 1 1 0
2  14 16 0 0.000000000000000 1113.000000000000000
1  20 0 0.000000000000000 1113.000000000000000
2  48 12 0 0.000000000000000 1113.000000000000000
2  49 20 0 0.000000000000000 1113.000000000000000
0

0101000
+31 0 -26 0 *
Wi

0101100
+21 0 -39 0 -30 0 +24 0 *
Fa
0  0.000000100000000 16 0

0111000
+20 0 *
Ve
0.001000000000000
18.800000000000001 -19.000000000000000 0.000000000000000
0 0

0101101
*
Ed
 0.000000100000000 1 1 0
1  21 0 0.000000000000000 1.000000000000000
4 C0 21 0 19 0
2  50 19 0 0.000000000000000 1.000000000000000
0

0101000
+36 0 -18 0 *
Ve
0.001000000000000
18.800000000000001 -19.000000000000000 1113.000000000000000
0 0

0101101
*
Ed
 0.001000000000000 1 1 0
2  51 20 0 0.000000000000000 1113.000000000000000
1  22 0 0.000000000000000 1113.000000000000000
0

0101000
+18 0 -16 0 *
Ed
 0.000000100000000 1 1 0
1  23 0 0.000000000000000 1.000000000000000
4 C0 18 0 21 0
2  52 18 0 0.000000000000000 1.000000000000000
0

0101000
+36 2 -16 0 *
Wi

0101000
-35 0 +17 0 +15 0 -14 0 *
Fa
0  0.000000100000000 21 0

0111000
+13 0 *
Ed
 0.001000000000000 1 1 0
2  53 20 0 0.000000000000000 18.500000000000004
1  24 0 0.000000000000000 18.500000000000004
2  54 19 0 0.000000000000000 18.500000000000004
0

0101000
+18 0 -31 0 *
Wi

0101100
+34 0 +29 0 -11 0 -17 0 *
Fa
0  0.000000100000000 19 0

0111000
+10 0 *
Ed
 0.001000000000000 1 1 0
2  55 20 0 0.000000000000000 18.500000000000004
1  25 0 0.000000000000000 18.500000000000004
2  56 18 0 0.000000000000000 18.500000000000004
0

0101000
+16 0 -26 0 *
Wi

0101100
-34 2 +14 0 +8 0 -25 0 *
Fa
0  0.000000100000000 18 0

0111000
+7 0 *
Wi

0101100
+15 0 -21 0 -11 0 +8 0 *
Fa
0  0.001000000000000 20 0

0111000
+5 0 *
Sh

0101100
-62 0 +55 0 +50 0 +45 0 +40 0 +37 0 +32 0 +27 0 +22 0 -19 0 
+12 0 +9 0 +6 0 -4 0 *
So

0100000
+3 0 *
Co

1100000
+2 0 *

+1 1 