
CASCADE Topology V1, (c) Matra-Datavision
Locations 17
1
1.000000000000000 0.000000000000000 0.000000000000000 18.300000000000015 
0.000000000000000 1.000000000000000 0.000000000000000 -11.500000000000000 
0.000000000000000 0.000000000000000 1.000000000000000 71.333333333333329 
1
1.000000000000000 0.000000000000000 0.000000000000000 0.000000000000000 
0.000000000000000 1.000000000000000 0.000000000000000 0.000000000000000 
0.000000000000000 0.000000000000000 1.000000000000000 0.000000000000000 
1
1.000000000000000 0.000000000000000 0.000000000000000 0.000000000000000 
0.000000000000000 1.000000000000000 0.000000000000000 0.000000000000000 
0.000000000000000 0.000000000000000 1.000000000000000 0.000000000000000 
1
1.000000000000000 0.000000000000000 0.000000000000000 0.000000000000000 
0.000000000000000 1.000000000000000 0.000000000000000 0.000000000000000 
0.000000000000000 0.000000000000000 1.000000000000000 0.000000000000000 
1
1.000000000000000 0.000000000000000 0.000000000000000 0.000000000000000 
0.000000000000000 1.000000000000000 0.000000000000000 0.000000000000000 
0.000000000000000 0.000000000000000 1.000000000000000 0.000000000000000 
1
1.000000000000000 0.000000000000000 0.000000000000000 0.000000000000000 
0.000000000000000 1.000000000000000 0.000000000000000 0.000000000000000 
0.000000000000000 0.000000000000000 1.000000000000000 0.000000000000000 
1
1.000000000000000 0.000000000000000 0.000000000000000 0.000000000000000 
0.000000000000000 1.000000000000000 0.000000000000000 0.000000000000000 
0.000000000000000 0.000000000000000 1.000000000000000 0.000000000000000 
1
1.000000000000000 0.000000000000000 0.000000000000000 0.000000000000000 
0.000000000000000 1.000000000000000 0.000000000000000 0.000000000000000 
0.000000000000000 0.000000000000000 1.000000000000000 0.000000000000000 
1
1.000000000000000 0.000000000000000 0.000000000000000 0.000000000000000 
0.000000000000000 1.000000000000000 0.000000000000000 0.000000000000000 
0.000000000000000 0.000000000000000 1.000000000000000 0.000000000000000 
1
1.000000000000000 0.000000000000000 0.000000000000000 0.000000000000000 
0.000000000000000 1.000000000000000 0.000000000000000 0.000000000000000 
0.000000000000000 0.000000000000000 1.000000000000000 0.000000000000000 
2  2 1 3 1 4 -1 5 1 6 -1 7 1 8 -1 9 1 10 -1 1 -1 0
1
1.000000000000000 0.000000000000000 0.000000000000000 18.300000000000011 
0.000000000000000 1.000000000000000 0.000000000000000 -11.500000000000000 
0.000000000000000 0.000000000000000 1.000000000000000 42.666666666666664 
2  2 1 3 1 4 -1 5 1 6 -1 7 1 8 -1 9 1 10 -1 12 -1 0
1
1.000000000000000 0.000000000000000 0.000000000000000 18.300000000000022 
0.000000000000000 1.000000000000000 0.000000000000000 -11.500000000000000 
0.000000000000000 0.000000000000000 1.000000000000000 100.000000000000000 
2  2 1 3 1 4 -1 5 1 6 -1 7 1 8 -1 9 1 10 -1 14 -1 0
1
1.000000000000000 0.000000000000000 0.000000000000000 18.300000000000004 
0.000000000000000 1.000000000000000 0.000000000000000 -11.500000000000000 
0.000000000000000 0.000000000000000 1.000000000000000 14.000000000000000 
2  2 1 3 1 4 -1 5 1 6 -1 7 1 8 -1 9 1 10 -1 16 -1 0
Curve2ds 13
2 0.00000000000000000 0.00000000000000000 -1.00000000000000000 0.00000000000000000 0.00000000000000000 1.00000000000000000 1.69999999999999996
1 0.00000000000000000 0.00000000000000000 1.00000000000000000 0.00000000000000000 
2 7.50000000000005684 -71.33333333333332860 0.00000000000000000 1.00000000000000000 -1.00000000000000000 0.00000000000000000 1.70000000000000284
2 7.50000000000005684 -42.66666666666666430 0.00000000000000000 1.00000000000000000 -1.00000000000000000 0.00000000000000000 1.70000000000000284
2 7.50000000000005684 -100.00000000000000000 0.00000000000000000 1.00000000000000000 -1.00000000000000000 0.00000000000000000 1.70000000000000284
2 7.50000000000005684 -14.00000000000000000 0.00000000000000000 1.00000000000000000 -1.00000000000000000 0.00000000000000000 1.69999999999999929
1 0.00000000000000000 3405.26828558335273556 1.00000000000000000 0.00000000000000000 
1 0.00000000000000000 0.00000000000000000 1.00000000000000000 0.00000000000000000 
1 6.28318530717958623 0.00000000000000000 0.00000000000000000 1.00000000000000000 
1 0.00000000000000000 0.00000000000000000 0.00000000000000000 1.00000000000000000 
1 0.00000000000000000 1.98327677526591595 1.00000000000000000 0.00000000000000000 
1 6.28318530717958623 0.00000000000000000 0.00000000000000000 1.00000000000000000 
1 0.00000000000000000 0.00000000000000000 0.00000000000000000 1.00000000000000000 
Curves 4
2 0.00000000000000000 0.00000000000000000 0.00000000000000000 1.00000000000000000 0.00000000000000022 -0.00000000000000022 -0.00000000000000022 0.00000000000000000 -1.00000000000000000 -0.00000000000000022 1.00000000000000000 0.00000000000000000 1.69999999999999996
2 -3405.26828558335273556 -0.00000000000075612 0.00000000000075612 1.00000000000000000 0.00000000000000022 -0.00000000000000022 -0.00000000000000022 0.00000000000000000 -1.00000000000000000 -0.00000000000000022 1.00000000000000000 0.00000000000000000 1.69999999999979146
1 -0.00000000000000038 0.00000000000000000 -1.69999999999999996 -1.00000000000000000 -0.00000000000000022 0.00000000000000028 
1 -3405.26828558335273556 -0.00000000000075612 -1.69999999999903539 -0.51503807491012432 -0.00000000000000011 0.85716730070207015 
Polygon3D 0
PolygonOnTriangulations 0
Surfaces 4
1 0.00000000000000000 0.00000000000000000 0.00000000000000000 1.00000000000000000 0.00000000000000022 -0.00000000000000022 0.00000000000000022 0.00000000000000000 1.00000000000000000 -0.00000000000000022 1.00000000000000000 0.00000000000000000 
2 0.00000000000000000 0.00000000000000000 0.00000000000000000 -1.00000000000000000 -0.00000000000000022 0.00000000000000022 -0.00000000000000022 0.00000000000000000 -1.00000000000000000 -0.00000000000000022 1.00000000000000000 0.00000000000000000 1.69999999999999996
1 18.30000000000002203 -3.99999999999994271 0.00000000000000000 1.00000000000000000 0.00000000000000000 -0.00000000000000000 0.00000000000000000 -1.00000000000000000 0.00000000000000000 0.00000000000000000 -0.00000000000000000 -1.00000000000000000 
3 -3405.26828558335273556 -0.00000000000075612 0.00000000000075612 -1.00000000000000000 -0.00000000000000022 0.00000000000000022 -0.00000000000000022 0.00000000000000000 -1.00000000000000000 -0.00000000000000022 1.00000000000000000 0.00000000000000000 1.69999999999979146
-1.02974425867657238
Triangulations 0

TShapes 17
Ve
0.001000000000018
-0.000000000000000 0.000000000000000 -1.700000000000000
0 0

0101101
*
Ed
 0.001000000000018 1 1 0
1  1 0 0.000000000000000 6.283185307179586
2  1 1 0 0.000000000000000 6.283185307179586
2  2 2 0 0.000000000000000 6.283185307179586
2  3 3 11 0.000000000000000 6.283185307179586
2  4 3 13 0.000000000000000 6.283185307179586
2  5 3 15 0.000000000000000 6.283185307179586
2  6 3 17 0.000000000000000 6.283185307179586
0

0101000
+17 0 -17 0 *
Wi

0101100
-16 0 *
Fa
0  0.000000100000000 1 0

0111000
+15 0 *
Ve
0.000000100000000
-3405.268285583352736 -0.000000000000756 -1.699999999999035
0 0

0101101
*
Ed
 0.000000100000000 1 1 0
1  2 0 0.000000000000000 6.283185307179586
2  7 2 0 0.000000000000000 6.283185307179586
2  8 4 0 0.000000000000000 6.283185307179586
0

0101000
+13 0 -13 0 *
Ed
 0.000000100000000 1 1 0
1  3 0 0.000000000000000 3405.268285583352736
3  9 10CN 2 0 0.000000000000000 3405.268285583352736
0

0101000
+17 0 -13 0 *
Wi

0101100
+16 0 -12 0 -11 0 +11 0 *
Fa
0  0.000000100000000 2 0

0111000
+10 0 *
Ve
0.000000100000000
-3406.289748635699652 -0.000000000000756 0.000000000000756
0 0

0101101
*
Ed
 0.000000100000000 1 1 1
2  11 4 0 0.000000000000000 6.283185307179586
0

0101000
+8 0 -8 0 *
Ed
 0.000000100000000 1 1 0
1  4 0 0.000000000000000 1.983276775265916
3  12 13CN 4 0 0.000000000000000 1.983276775265916
0

0101000
+13 0 -8 0 *
Wi

0101100
+12 0 -7 0 -6 0 +6 0 *
Fa
0  0.000000100000000 4 0

0111000
+5 0 *
Sh

0101100
+14 0 +9 0 +4 0 *
So

0100000
-3 0 *
Co

1100000
+2 1 +2 12 +2 14 +2 16 *

+1 0 