
CASCADE Topology V1, (c) Matra-Datavision
Locations 14
1
1.000000000000000 0.000000000000000 0.000000000000000 0.000000000000000 
0.000000000000000 1.000000000000000 0.000000000000000 -0.000000000000013 
0.000000000000000 0.000000000000000 1.000000000000000 57.000000000000000 
1
1.000000000000000 0.000000000000000 0.000000000000000 0.000000000000000 
0.000000000000000 1.000000000000000 0.000000000000000 0.000000000000000 
0.000000000000000 0.000000000000000 1.000000000000000 0.000000000000000 
1
1.000000000000000 0.000000000000000 0.000000000000000 0.000000000000000 
0.000000000000000 1.000000000000000 0.000000000000000 0.000000000000000 
0.000000000000000 0.000000000000000 1.000000000000000 0.000000000000000 
1
1.000000000000000 0.000000000000000 0.000000000000000 0.000000000000000 
0.000000000000000 1.000000000000000 0.000000000000000 0.000000000000000 
0.000000000000000 0.000000000000000 1.000000000000000 0.000000000000000 
1
1.000000000000000 0.000000000000000 0.000000000000000 0.000000000000000 
0.000000000000000 1.000000000000000 0.000000000000000 0.000000000000000 
0.000000000000000 0.000000000000000 1.000000000000000 0.000000000000000 
2  2 1 3 1 4 1 5 -1 1 -1 0
1
1.000000000000000 0.000000000000000 0.000000000000000 0.000000000000000 
0.000000000000000 1.000000000000000 0.000000000000000 -0.000000000000005 
0.000000000000000 0.000000000000000 1.000000000000000 21.000000000000000 
2  2 1 3 1 4 1 5 -1 7 -1 0
1
1.000000000000000 0.000000000000000 0.000000000000000 0.000000000000000 
0.000000000000000 1.000000000000000 0.000000000000000 0.000000000000000 
0.000000000000000 0.000000000000000 1.000000000000000 0.000000000000000 
1
1.000000000000000 0.000000000000000 0.000000000000000 0.000000000000000 
0.000000000000000 1.000000000000000 0.000000000000000 0.000000000000000 
0.000000000000000 0.000000000000000 1.000000000000000 0.000000000000000 
1
1.000000000000000 0.000000000000000 0.000000000000000 0.000000000000000 
0.000000000000000 1.000000000000000 0.000000000000000 0.000000000000000 
0.000000000000000 0.000000000000000 1.000000000000000 0.000000000000000 
1
1.000000000000000 0.000000000000000 0.000000000000000 0.000000000000000 
0.000000000000000 1.000000000000000 0.000000000000000 0.000000000000000 
0.000000000000000 0.000000000000000 1.000000000000000 0.000000000000000 
2  9 1 10 -1 11 1 12 -1 1 -1 0
2  9 1 10 -1 11 1 12 -1 7 -1 0
Curve2ds 13
2 0.00000000000000000 0.00000000000000000 -1.00000000000000000 -0.00000000000000000 -0.00000000000000000 1.00000000000000000 2.50000000000000000
1 0.00000000000000000 0.00000000000000000 1.00000000000000000 0.00000000000000000 
2 42.99999999993968203 -19.00000000000001066 -0.00000000000000022 1.00000000000000000 1.00000000000000000 0.00000000000000022 2.50000000000000000
2 78.99999999993967492 -19.00000000000000355 -0.00000000000000022 1.00000000000000000 1.00000000000000000 0.00000000000000022 2.50000000000000000
2 12.99999999999994316 -736.33463815306140532 0.00000000000000000 -1.00000000000000000 1.00000000000000000 0.00000000000000000 2.50000000000000000
2 48.99999999999994316 -736.33463815306140532 0.00000000000000000 -1.00000000000000000 1.00000000000000000 0.00000000000000000 2.50000000000000000
1 0.00000000000000000 25.00000000000000000 1.00000000000000000 0.00000000000000000 
1 0.00000000000000000 0.00000000000000000 1.00000000000000000 0.00000000000000000 
1 6.28318530717958623 0.00000000000000000 0.00000000000000000 1.00000000000000000 
1 0.00000000000000000 0.00000000000000000 0.00000000000000000 1.00000000000000000 
1 0.00000000000000000 2.91658349303832454 1.00000000000000000 0.00000000000000000 
1 6.28318530717958623 0.00000000000000000 0.00000000000000000 1.00000000000000000 
1 0.00000000000000000 0.00000000000000000 0.00000000000000000 1.00000000000000000 
Curves 4
2 0.00000000000000000 0.00000000000000000 0.00000000000000000 0.00000000000000000 -1.00000000000000000 -0.00000000000000022 -1.00000000000000000 -0.00000000000000000 0.00000000000000000 -0.00000000000000000 0.00000000000000022 -1.00000000000000000 2.50000000000000000
2 0.00000000000000000 25.00000000000000000 0.00000000000000555 0.00000000000000000 -1.00000000000000000 -0.00000000000000022 -1.00000000000000000 -0.00000000000000000 0.00000000000000000 -0.00000000000000000 0.00000000000000022 -1.00000000000000000 2.49999999999999867
1 -2.50000000000000000 -0.00000000000000000 0.00000000000000000 0.00000000000000005 1.00000000000000000 0.00000000000000022 
1 -2.49999999999999867 25.00000000000000000 0.00000000000000555 0.85716730070211233 0.51503807491005416 0.00000000000000011 
Polygon3D 0
PolygonOnTriangulations 0
Surfaces 5
1 0.00000000000000000 0.00000000000000000 0.00000000000000000 0.00000000000000000 -1.00000000000000000 -0.00000000000000022 1.00000000000000000 0.00000000000000000 0.00000000000000000 -0.00000000000000000 0.00000000000000022 -1.00000000000000000 
2 0.00000000000000000 0.00000000000000000 0.00000000000000000 -0.00000000000000000 1.00000000000000000 0.00000000000000022 -1.00000000000000000 0.00000000000000000 -0.00000000000000000 0.00000000000000000 0.00000000000000022 -1.00000000000000000 2.50000000000000000
1 -19.00000000000002132 0.00000000000002642 99.99999999993967492 0.00000000000000022 1.00000000000000000 -0.00000000000014406 0.00000000000000022 -0.00000000000014406 -1.00000000000000000 -1.00000000000000000 0.00000000000000022 -0.00000000000000022 
1 736.33463815306140532 -0.00000000000024299 69.99999999999994316 -0.00000000000000033 -1.00000000000000000 -0.00000000000000000 0.00000000000000000 0.00000000000000000 -1.00000000000000000 1.00000000000000000 -0.00000000000000033 0.00000000000000000 
3 0.00000000000000000 25.00000000000000000 0.00000000000000555 -0.00000000000000000 1.00000000000000000 0.00000000000000022 -1.00000000000000000 0.00000000000000000 -0.00000000000000000 0.00000000000000000 0.00000000000000022 -1.00000000000000000 2.49999999999999867
-1.02974425867665453
Triangulations 0

TShapes 17
Ve
0.001000000011715
-2.500000000000000 -0.000000000000000 0.000000000000000
0 0

0101101
*
Ed
 0.001000000011715 1 1 0
1  1 0 0.000000000000000 6.283185307179586
2  1 1 0 0.000000000000000 6.283185307179586
2  2 2 0 0.000000000000000 6.283185307179586
2  3 3 6 0.000000000000000 6.283185307179586
2  4 3 8 0.000000000000000 6.283185307179586
2  5 4 13 0.000000000000000 6.283185307179586
2  6 4 14 0.000000000000000 6.283185307179586
0

0101000
+17 0 -17 0 *
Wi

0101100
-16 0 *
Fa
0  0.000000100000000 1 0

0111000
+15 0 *
Ve
0.000000100000000
-2.499999999999999 25.000000000000000 0.000000000000006
0 0

0101101
*
Ed
 0.000000100000000 1 1 0
1  2 0 0.000000000000000 6.283185307179586
2  7 2 0 0.000000000000000 6.283185307179586
2  8 5 0 0.000000000000000 6.283185307179586
0

0101000
+13 0 -13 0 *
Ed
 0.000000100000000 1 1 0
1  3 0 0.000000000000000 25.000000000000000
3  9 10CN 2 0 0.000000000000000 25.000000000000000
0

0101000
+17 0 -13 0 *
Wi

0101100
+16 0 -12 0 -11 0 +11 0 *
Fa
0  0.000000100000000 2 0

0111000
+10 0 *
Ve
0.000000100000000
-0.000000000000000 26.502151547568900 0.000000000000006
0 0

0101101
*
Ed
 0.000000100000000 1 1 1
2  11 5 0 0.000000000000000 6.283185307179586
0

0101000
+8 0 -8 0 *
Ed
 0.000000100000000 1 1 0
1  4 0 0.000000000000000 2.916583493038325
3  12 13CN 5 0 0.000000000000000 2.916583493038325
0

0101000
+13 0 -8 0 *
Wi

0101100
+12 0 -7 0 -6 0 +6 0 *
Fa
0  0.000000100000000 5 0

0111000
+5 0 *
Sh

0101100
+14 0 +9 0 +4 0 *
So

0100000
-3 0 *
Co

1100000
+2 1 +2 7 *

+1 0 