
CASCADE Topology V1, (c) Matra-Datavision
Locations 27
1
1.000000000000000 0.000000000000000 0.000000000000000 0.000000000000000 
0.000000000000000 1.000000000000000 0.000000000000000 0.000000000000000 
0.000000000000000 0.000000000000000 1.000000000000000 0.000000000000000 
1
1.000000000000000 0.000000000000000 0.000000000000000 0.000000000000000 
0.000000000000000 1.000000000000000 0.000000000000000 0.000000000000000 
0.000000000000000 0.000000000000000 1.000000000000000 0.000000000000000 
1
1.000000000000000 0.000000000000000 0.000000000000000 0.000000000000000 
0.000000000000000 1.000000000000000 0.000000000000000 0.000000000000000 
0.000000000000000 0.000000000000000 1.000000000000000 0.000000000000000 
1
1.000000000000000 0.000000000000000 0.000000000000000 0.000000000000000 
0.000000000000000 1.000000000000000 0.000000000000000 0.000000000000000 
0.000000000000000 0.000000000000000 1.000000000000000 0.000000000000000 
1
1.000000000000000 0.000000000000000 0.000000000000000 0.000000000000000 
0.000000000000000 1.000000000000000 0.000000000000000 0.000000000000000 
0.000000000000000 0.000000000000000 1.000000000000000 0.000000000000000 
2  2 1 3 -1 4 1 5 -1 0
1
1.000000000000000 0.000000000000000 0.000000000000000 0.000000000000000 
0.000000000000000 1.000000000000000 0.000000000000000 0.000000000000000 
0.000000000000000 0.000000000000000 1.000000000000000 0.000000000000000 
2  7 -1 5 1 4 -1 3 1 2 -1 0
1
1.000000000000000 0.000000000000000 0.000000000000000 0.000000000000000 
0.000000000000000 1.000000000000000 0.000000000000000 -274.300000000000011 
0.000000000000000 0.000000000000000 1.000000000000000 0.000000000000061 
2  9 1 2 1 3 -1 4 1 5 -1 0
2  7 -1 5 1 4 -1 3 1 2 -1 9 -1 0
2  7 -1 0
2  9 -1 0
2  4 1 5 -1 0
2  2 1 3 -1 0
2  9 1 2 1 3 -1 0
1
1.000000000000000 0.000000000000000 0.000000000000000 0.000000000000009 
0.000000000000000 1.000000000000000 0.000000000000000 -122.500000000000000 
0.000000000000000 0.000000000000000 1.000000000000000 0.000000000000000 
2  7 -1 5 1 4 -1 17 -1 0
1
1.000000000000000 0.000000000000000 0.000000000000000 0.000000000000000 
0.000000000000000 1.000000000000000 0.000000000000000 -75.000000000012022 
0.000000000000000 0.000000000000000 1.000000000000000 0.000000000000000 
2  7 -1 5 1 4 -1 19 -1 0
1
1.000000000000000 0.000000000000000 0.000000000000000 0.000000000000000 
0.000000000000000 1.000000000000000 0.000000000000000 0.000000000000000 
0.000000000000000 0.000000000000000 1.000000000000000 0.000000000000000 
2  7 -1 5 1 4 -1 21 -1 0
1
1.000000000000000 0.000000000000000 0.000000000000000 0.000000000000000 
0.000000000000000 1.000000000000000 0.000000000000000 75.000000000050946 
0.000000000000000 0.000000000000000 1.000000000000000 0.000000000000000 
2  7 -1 5 1 4 -1 23 -1 0
1
1.000000000000000 0.000000000000000 0.000000000000000 0.000000000521431 
0.000000000000000 1.000000000000000 0.000000000000000 122.500000000000000 
0.000000000000000 0.000000000000000 1.000000000000000 0.000000000000000 
2  7 -1 5 1 4 -1 25 -1 0
2  7 -1 5 1 4 -1 0
Curve2ds 52
1 1.57079632679489656 0.00000000000000000 0.00000000000000000 -1.00000000000000000 
1 0.00000000000000000 -266.92769123959391209 1.00000000000000000 0.00000000000000000 
1 0.00000000000000000 -266.92769123959391209 1.00000000000000000 0.00000000000000000 
1 0.00000000000000000 -266.92769123959391209 1.00000000000000000 0.00000000000000000 
1 0.00000000000000000 0.00000000000000000 0.00000000000000000 -1.00000000000000000 
1 0.00000000000000000 0.00000000000000000 1.00000000000000000 0.00000000000000000 
1 0.00000000000000000 0.00000000000000000 1.00000000000000000 0.00000000000000000 
1 0.00000000000000000 -274.30000000000001137 1.00000000000000000 0.00000000000000000 
1 6.28318530717958623 0.00000000000000000 -1.00000000000000000 0.00000000000000000 
1 1.57079632679489656 0.00000000000000000 0.00000000000000000 1.00000000000000000 
1 4.71238898038468967 0.00000000000000000 0.00000000000000000 1.00000000000000000 
1 0.00000000000000000 0.00000000000000000 0.00000000000000000 -1.00000000000000000 
1 6.28318530717958623 0.00000000000000000 0.00000000000000000 -1.00000000000000000 
1 0.00000000000000000 -267.22769123959392346 1.00000000000000000 0.00000000000000000 
1 0.00000000000000000 0.00000000000000000 0.00000000000000000 -1.00000000000000000 
1 6.28318530717958623 0.00000000000000000 0.00000000000000000 -1.00000000000000000 
1 0.00000000000000000 -267.22769123959392346 1.00000000000000000 0.00000000000000000 
1 0.00000000000000000 0.00000000000000000 0.00000000000000000 -1.00000000000000000 
1 6.28318530717958623 0.00000000000000000 0.00000000000000000 -1.00000000000000000 
1 0.00000000000000000 -267.22769123959392346 1.00000000000000000 0.00000000000000000 
1 6.28318530717958623 0.00000000000000000 0.00000000000000000 -1.00000000000000000 
1 0.00000000000000000 0.00000000000000000 1.00000000000000000 0.00000000000000000 
1 0.00000000000000000 1.00000000000000000 1.00000000000000000 0.00000000000000000 
1 0.00000000000000000 0.00000000000000000 0.00000000000000000 1.00000000000000000 
1 6.28318530717958623 0.00000000000000000 0.00000000000000000 1.00000000000000000 
1 6.28318530717958623 1.00000000000000000 -1.00000000000000000 0.00000000000000000 
1 1.57079632679489656 0.00000000000000000 0.00000000000000000 -1.00000000000000000 
1 4.71238898038469056 0.00000000000000000 0.00000000000000000 -1.00000000000000000 
1 0.00000000000000000 0.00000000000000000 1.00000000000000000 0.00000000000000000 
1 0.00000000000000000 0.00000000000000000 1.00000000000000000 0.00000000000000000 
1 0.00000000000000000 -274.30000000000001137 1.00000000000000000 0.00000000000000000 
1 6.28318530717958623 0.00000000000000000 -1.00000000000000000 0.00000000000000000 
1 6.28318530717958623 0.00000000000000000 0.00000000000000000 1.00000000000000000 
1 0.00000000000000000 0.00000000000000000 0.00000000000000000 1.00000000000000000 
1 6.28318530717958623 0.00000000000000000 0.00000000000000000 1.00000000000000000 
1 0.00000000000000000 0.00000000000000000 0.00000000000000000 1.00000000000000000 
1 6.28318530717958623 0.30000000000611066 -1.00000000000000000 0.00000000000000000 
1 6.28318530717958623 0.30000000000612120 -1.00000000000000000 0.00000000000000000 
1 6.28318530717958623 0.30000000000613786 -1.00000000000000000 0.00000000000000000 
1 6.28318530717958623 0.30000000000615451 -1.00000000000000000 0.00000000000000000 
1 6.28318530717958623 0.30000000000616506 -1.00000000000000000 0.00000000000000000 
1 0.00000000000000000 -289.92769123959391209 1.00000000000000000 0.00000000000000000 
1 0.00000000000000000 -289.92769123959391209 1.00000000000000000 0.00000000000000000 
1 0.00000000000000000 -289.92769123959391209 1.00000000000000000 0.00000000000000000 
1 0.00000000000000000 1.00000000000000000 1.00000000000000000 0.00000000000000000 
1 4.71238898038469056 0.00000000000000000 0.00000000000000000 1.00000000000000000 
1 1.57079632679489567 0.00000000000000000 0.00000000000000000 1.00000000000000000 
1 6.28318530717958623 1.00000000000000000 -1.00000000000000000 0.00000000000000000 
1 6.28318530717958623 0.00000000000000000 0.00000000000000000 -1.00000000000000000 
1 0.00000000000000000 -289.62769123959390072 1.00000000000000000 0.00000000000000000 
1 0.00000000000000000 -289.62769123959390072 1.00000000000000000 0.00000000000000000 
1 0.00000000000000000 -289.62769123959390072 1.00000000000000000 0.00000000000000000 
Curves 77
1 11.49999999998128963 146.80000000000001137 -0.40000000000617036 0.00000000000000000 -1.00000000000000000 0.00000000000000022 
1 11.49999999998128963 146.80000000000001137 -0.00000000000617044 0.00000000000000000 -0.00000000000000022 -1.00000000000000000 
1 11.49999999998128963 146.80000000000001137 -0.00000000000617044 0.00000000000000000 -0.00000000000000022 -1.00000000000000000 
1 11.49999999998128963 146.80000000000001137 -15.00000000000758504 0.00000000000000000 -1.00000000000000000 0.00000000000000022 
2 11.49999999998129852 -122.50000000000027001 -6.99999999999995293 1.00000000000000000 -0.00000000000000022 0.00000000000000022 0.00000000000000022 1.00000000000000000 -0.00000000000000022 -0.00000000000000022 0.00000000000000022 1.00000000000000000 1.70000000000008367
2 11.49999999998129852 -0.00000000000000411 -6.99999999999998046 1.00000000000000000 -0.00000000000000022 0.00000000000000022 0.00000000000000022 1.00000000000000000 -0.00000000000000022 -0.00000000000000022 0.00000000000000022 1.00000000000000000 1.70000000000008367
2 11.49999999998129852 122.50000000000027001 -7.00000000000000799 1.00000000000000000 -0.00000000000000022 0.00000000000000022 0.00000000000000022 1.00000000000000000 -0.00000000000000022 -0.00000000000000022 0.00000000000000022 1.00000000000000000 1.70000000000008367
1 11.09999999998129105 146.80000000000001137 -0.00000000000617043 0.00000000000000000 -1.00000000000000000 0.00000000000000022 
2 11.09999999998128928 146.80000000000001137 -0.40000000000617036 0.00000000000000000 1.00000000000000000 -0.00000000000000022 0.00000000000000000 0.00000000000000022 1.00000000000000000 1.00000000000000000 -0.00000000000000000 0.00000000000000000 0.40000000000000002
2 11.09999999998128928 146.80000000000001137 -0.40000000000617036 0.00000000000000000 1.00000000000000000 -0.00000000000000022 0.00000000000000000 0.00000000000000022 1.00000000000000000 1.00000000000000000 -0.00000000000000000 0.00000000000000000 0.40000000000000002
6 0 1 11.49999999998128963 146.80000000000001137 -15.00000000000758504  11.19999999998128892 146.80000000000001137 -15.00000000000758504  
1 11.19999999998128892 146.80000000000001137 -0.00000000000617045 0.00000000000000000 -0.00000000000000022 -1.00000000000000000 
6 0 1 11.49999999998128963 146.80000000000001137 -0.40000000000617036  11.19999999998128892 146.80000000000001137 -0.40000000000617036  
6 0 1 11.49999999998128963 -127.50000000000000000 -0.40000000000610947  11.19999999998128892 -127.50000000000000000 -0.40000000000610947  
1 11.19999999998128892 -127.50000000000000000 -0.00000000000610956 0.00000000000000000 -0.00000000000000022 -1.00000000000000000 
6 0 1 11.49999999998128963 -127.50000000000000000 -15.00000000000752465  11.19999999998128892 -127.50000000000000000 -15.00000000000752465  
1 11.19999999998128892 146.80000000000001137 -15.00000000000758504 0.00000000000000000 -1.00000000000000000 0.00000000000000022 
1 278.42769123957521060 -120.80000000000023874 -6.99999999999989431 -1.00000000000000000 0.00000000000000022 -0.00000000000000028 
2 11.19999999998128715 -122.50000000000027001 -6.99999999999995293 1.00000000000000000 -0.00000000000000022 0.00000000000000022 0.00000000000000022 1.00000000000000000 -0.00000000000000022 -0.00000000000000022 0.00000000000000022 1.00000000000000000 1.70000000000008367
1 278.42769123957521060 1.70000000000002038 -6.99999999999992095 -1.00000000000000000 0.00000000000000022 -0.00000000000000028 
2 11.19999999998128715 -0.00000000000000404 -6.99999999999998046 1.00000000000000000 -0.00000000000000022 0.00000000000000022 0.00000000000000022 1.00000000000000000 -0.00000000000000022 -0.00000000000000022 0.00000000000000022 1.00000000000000000 1.70000000000008367
1 278.42769123957521060 124.20000000000030127 -6.99999999999994849 -1.00000000000000000 0.00000000000000022 -0.00000000000000028 
2 11.19999999998128715 122.50000000000027001 -7.00000000000000799 1.00000000000000000 -0.00000000000000022 0.00000000000000022 0.00000000000000022 1.00000000000000000 -0.00000000000000022 -0.00000000000000022 0.00000000000000022 1.00000000000000000 1.70000000000008367
1 -11.10000000001871001 146.80000000000001137 -0.00000000000617043 0.00000000000000000 -1.00000000000000000 0.00000000000000022 
1 -11.50000000001871037 146.80000000000001137 -0.00000000000617043 1.00000000000000000 0.00000000000000000 0.00000000000000000 
1 -11.50000000001871037 146.80000000000001137 -0.00000000000617043 1.00000000000000000 0.00000000000000000 0.00000000000000000 
2 0.00000000000000000 0.00000000000000000 0.00000000000000000 0.00000000000000000 0.00000000000000000 1.00000000000000000 1.00000000000000000 0.00000000000000000 -0.00000000000000000 -0.00000000000000000 1.00000000000000000 0.00000000000000000 1.69999999999999996
2 0.00000000000000000 0.00000000000000000 0.00000000000000000 0.00000000000000000 0.00000000000000000 1.00000000000000000 1.00000000000000000 0.00000000000000000 -0.00000000000000000 -0.00000000000000000 1.00000000000000000 0.00000000000000000 1.69999999999999996
2 0.00000000000000000 0.00000000000000000 0.00000000000000000 0.00000000000000000 0.00000000000000000 1.00000000000000000 1.00000000000000000 0.00000000000000000 -0.00000000000000000 -0.00000000000000000 1.00000000000000000 0.00000000000000000 1.69999999999999996
2 0.00000000000000000 0.00000000000000000 0.00000000000000000 0.00000000000000000 0.00000000000000000 1.00000000000000000 1.00000000000000000 0.00000000000000000 -0.00000000000000000 -0.00000000000000000 1.00000000000000000 0.00000000000000000 1.69999999999999996
2 0.00000000000000000 0.00000000000000000 0.00000000000000000 0.00000000000000000 0.00000000000000000 1.00000000000000000 1.00000000000000000 0.00000000000000000 -0.00000000000000000 -0.00000000000000000 1.00000000000000000 0.00000000000000000 1.69999999999999996
2 11.09999999998128928 146.80000000000001137 -0.40000000000617036 0.00000000000000000 1.00000000000000000 -0.00000000000000022 0.00000000000000000 0.00000000000000022 1.00000000000000000 1.00000000000000000 -0.00000000000000000 0.00000000000000000 0.10000000000000003
6 0 1 11.09999999998129105 146.80000000000001137 -0.00000000000617043  11.09999999998128928 146.80000000000001137 -0.30000000000617033  
7 0 0  1 2 2  11.09999999998128750 -127.50000000000000000 -0.00000000000610942  11.09999999998129105 -127.50000000000000000 -0.30000000000610938 
 0.00000000000000000 2 1.00000000000000000 2
2 11.09999999998128928 -127.50000000000000000 -0.40000000000610947 0.00000000000000000 1.00000000000000000 -0.00000000000000022 0.00000000000000000 0.00000000000000022 1.00000000000000000 1.00000000000000000 -0.00000000000000000 0.00000000000000000 0.10000000000000003
1 11.19999999998128892 146.80000000000001137 -0.40000000000617036 0.00000000000000000 -1.00000000000000000 0.00000000000000022 
1 -11.50000000001871037 146.80000000000001137 -0.40000000000616964 0.00000000000000000 -1.00000000000000000 0.00000000000000022 
2 -11.10000000001871001 146.80000000000001137 -0.40000000000616964 -0.00000000000000000 1.00000000000000000 -0.00000000000000022 0.00000000000000022 0.00000000000000022 1.00000000000000000 1.00000000000000000 -0.00000000000000000 -0.00000000000000022 0.40000000000000002
2 -11.10000000001871001 146.80000000000001137 -0.40000000000616964 -0.00000000000000000 1.00000000000000000 -0.00000000000000022 0.00000000000000022 0.00000000000000022 1.00000000000000000 1.00000000000000000 -0.00000000000000000 -0.00000000000000022 0.40000000000000002
1 -11.50000000001871037 146.80000000000001137 -0.30000000000617044 1.00000000000000000 0.00000000000000000 0.00000000000000000 
6 0 1 -11.10000000001871001 146.80000000000001137 -0.00000000000617043  -11.10000000001871001 146.80000000000001137 -0.30000000000617044  
6 0 1 -11.10000000001871001 -127.50000000000000000 -0.00000000000610952  -11.10000000001871001 -127.50000000000000000 -0.30000000000610955  
1 -11.50000000001871037 -127.50000000000000000 -0.30000000000610955 1.00000000000000000 0.00000000000000000 0.00000000000000000 
1 1.69999999999999996 0.00000000000000000 0.00000000000000000 -0.00000000000000006 0.00000000000000000 -1.00000000000000000 
2 0.00000000000000890 -122.50000000000000000 -0.30000000000611066 0.00000000000000000 0.00000000000000000 -1.00000000000000000 1.00000000000000000 0.00000000000000000 0.00000000000000000 0.00000000000000000 -1.00000000000000000 0.00000000000000000 1.69999999999999996
1 1.69999999999999996 0.00000000000000000 0.00000000000000000 -0.00000000000000006 0.00000000000000000 -1.00000000000000000 
2 0.00000000000000000 -75.00000000001202238 -0.30000000000612120 0.00000000000000000 0.00000000000000000 -1.00000000000000000 1.00000000000000000 0.00000000000000000 0.00000000000000000 0.00000000000000000 -1.00000000000000000 0.00000000000000000 1.69999999999999996
1 1.69999999999999996 0.00000000000000000 0.00000000000000000 -0.00000000000000006 0.00000000000000000 -1.00000000000000000 
2 0.00000000000000000 0.00000000000000000 -0.30000000000613786 0.00000000000000000 0.00000000000000000 -1.00000000000000000 1.00000000000000000 0.00000000000000000 0.00000000000000000 0.00000000000000000 -1.00000000000000000 0.00000000000000000 1.69999999999999996
1 1.69999999999999996 0.00000000000000000 0.00000000000000000 -0.00000000000000006 0.00000000000000000 -1.00000000000000000 
2 0.00000000000000000 75.00000000005094591 -0.30000000000615451 0.00000000000000000 0.00000000000000000 -1.00000000000000000 1.00000000000000000 0.00000000000000000 0.00000000000000000 0.00000000000000000 -1.00000000000000000 0.00000000000000000 1.69999999999999996
1 1.69999999999999996 0.00000000000000000 0.00000000000000000 -0.00000000000000006 0.00000000000000000 -1.00000000000000000 
2 0.00000000052143120 122.50000000000000000 -0.30000000000616506 0.00000000000000000 0.00000000000000000 -1.00000000000000000 1.00000000000000000 0.00000000000000000 0.00000000000000000 0.00000000000000000 -1.00000000000000000 0.00000000000000000 1.69999999999999996
1 11.09999999998128928 146.80000000000001137 -0.30000000000617033 0.00000000000000000 -1.00000000000000000 0.00000000000000022 
1 -11.50000000001871037 146.80000000000001137 -15.00000000000758327 0.00000000000000000 -1.00000000000000000 0.00000000000000022 
1 -11.50000000001871037 146.80000000000001137 -15.00000000000758327 0.00000000000000000 0.00000000000000022 1.00000000000000000 
1 -11.50000000001871037 146.80000000000001137 -15.00000000000758327 0.00000000000000000 0.00000000000000022 1.00000000000000000 
2 -11.50000000001870148 -122.50000000000025580 -6.99999999999995737 1.00000000000000000 -0.00000000000000022 0.00000000000000022 0.00000000000000022 1.00000000000000000 -0.00000000000000022 -0.00000000000000022 0.00000000000000022 1.00000000000000000 1.70000000000008367
2 -11.50000000001870148 122.50000000000028422 -7.00000000000001243 1.00000000000000000 -0.00000000000000022 0.00000000000000022 0.00000000000000022 1.00000000000000000 -0.00000000000000022 -0.00000000000000022 0.00000000000000022 1.00000000000000000 1.70000000000008367
2 -11.50000000001870148 0.00000000000000100 -6.99999999999998490 1.00000000000000000 -0.00000000000000022 0.00000000000000022 0.00000000000000022 1.00000000000000000 -0.00000000000000022 -0.00000000000000022 0.00000000000000022 1.00000000000000000 1.70000000000008367
2 -11.10000000001871001 146.80000000000001137 -0.40000000000616964 -0.00000000000000000 1.00000000000000000 -0.00000000000000022 0.00000000000000022 0.00000000000000022 1.00000000000000000 1.00000000000000000 -0.00000000000000000 -0.00000000000000022 0.10000000000000003
6 0 1 -11.50000000001871037 146.80000000000001137 -0.40000000000616964  -11.20000000001870966 146.80000000000001137 -0.40000000000616953  
7 0 0  1 2 2  -11.50000000001871037 -127.50000000000000000 -0.40000000000610830  -11.20000000001870788 -127.50000000000000000 -0.40000000000610858 
 0.00000000000000000 2 1.00000000000000000 2
2 -11.10000000001871001 -127.50000000000000000 -0.40000000000610875 -0.00000000000000000 1.00000000000000000 -0.00000000000000022 0.00000000000000022 0.00000000000000022 1.00000000000000000 1.00000000000000000 -0.00000000000000000 -0.00000000000000022 0.10000000000000003
1 -11.10000000001871001 146.80000000000001137 -0.30000000000617044 0.00000000000000000 -1.00000000000000000 0.00000000000000022 
6 0 1 -11.50000000001871037 146.80000000000001137 -15.00000000000758327  -11.20000000001870966 146.80000000000001137 -15.00000000000758327  
1 -11.20000000001870966 146.80000000000001137 -15.00000000000758327 0.00000000000000000 -1.00000000000000000 0.00000000000000022 
6 0 1 -11.50000000001871037 -127.50000000000000000 -15.00000000000752287  -11.20000000001870966 -127.50000000000000000 -15.00000000000752287  
1 -11.20000000001870966 146.80000000000001137 -15.00000000000758327 0.00000000000000000 0.00000000000000022 1.00000000000000000 
1 -11.20000000001870966 -127.50000000000000000 -15.00000000000752287 0.00000000000000000 0.00000000000000022 1.00000000000000000 
2 -11.20000000001869012 -122.50000000000025580 -6.99999999999995737 1.00000000000000000 -0.00000000000000022 0.00000000000000022 0.00000000000000022 1.00000000000000000 -0.00000000000000022 -0.00000000000000022 0.00000000000000022 1.00000000000000000 1.70000000000008367
1 278.42769123957521060 -120.80000000000023874 -6.99999999999989431 -1.00000000000000000 0.00000000000000022 -0.00000000000000028 
2 -11.20000000001869012 122.50000000000028422 -7.00000000000001243 1.00000000000000000 -0.00000000000000022 0.00000000000000022 0.00000000000000022 1.00000000000000000 -0.00000000000000022 -0.00000000000000022 0.00000000000000022 1.00000000000000000 1.70000000000008367
1 278.42769123957521060 124.20000000000030127 -6.99999999999994849 -1.00000000000000000 0.00000000000000022 -0.00000000000000028 
2 -11.20000000001869012 0.00000000000000093 -6.99999999999998490 1.00000000000000000 -0.00000000000000022 0.00000000000000022 0.00000000000000022 1.00000000000000000 -0.00000000000000022 -0.00000000000000022 0.00000000000000022 1.00000000000000000 1.70000000000008367
1 278.42769123957521060 1.70000000000002038 -6.99999999999992095 -1.00000000000000000 0.00000000000000022 -0.00000000000000028 
1 -11.20000000001870966 146.80000000000001137 -0.40000000000616953 0.00000000000000000 -1.00000000000000000 0.00000000000000022 
Polygon3D 0
PolygonOnTriangulations 0
Surfaces 33
1 11.49999999998128963 146.80000000000001137 -0.40000000000617036 1.00000000000000000 0.00000000000000000 0.00000000000000000 0.00000000000000000 -0.00000000000000022 -1.00000000000000000 0.00000000000000000 1.00000000000000000 -0.00000000000000022 
2 11.09999999998128928 146.80000000000001137 -0.40000000000617036 0.00000000000000000 1.00000000000000000 -0.00000000000000022 0.00000000000000000 0.00000000000000022 1.00000000000000000 1.00000000000000000 -0.00000000000000000 0.00000000000000000 0.40000000000000002
2 278.42769123957521060 -122.50000000000032685 -6.99999999999989342 1.00000000000000000 -0.00000000000000022 0.00000000000000022 0.00000000000000022 1.00000000000000000 -0.00000000000000022 -0.00000000000000022 0.00000000000000022 1.00000000000000000 1.70000000000008367
2 278.42769123957521060 -0.00000000000006338 -6.99999999999992095 1.00000000000000000 -0.00000000000000022 0.00000000000000022 0.00000000000000022 1.00000000000000000 -0.00000000000000022 -0.00000000000000022 0.00000000000000022 1.00000000000000000 1.70000000000008367
2 278.42769123957521060 122.50000000000021316 -6.99999999999994849 1.00000000000000000 -0.00000000000000022 0.00000000000000022 0.00000000000000022 1.00000000000000000 -0.00000000000000022 -0.00000000000000022 0.00000000000000022 1.00000000000000000 1.70000000000008367
1 -11.10000000001871001 146.80000000000001137 -0.00000000000617043 0.00000000000000000 0.00000000000000022 1.00000000000000000 1.00000000000000000 0.00000000000000000 -0.00000000000000000 -0.00000000000000000 1.00000000000000000 -0.00000000000000022 
9 0 0 0 0 7 1 8 2 2 2 11.09999999998128928 146.80000000000001137 -0.00000000000617033  11.09999999998128750 146.80000000000001137 -0.30000000000617033  
11.18975979008390453 146.79999999999995453 -0.00000000000617085  11.12243994750696352 146.79999999999995453 -0.30000000000617150  
11.27951914597445437 146.79999999999921556 -0.02349955462682354  11.14487978647948374 146.79999999999921556 -0.30587488866132845  
11.36189877631084855 146.80000000000197247 -0.07049491112529328  11.16547469406386028 146.80000000000197247 -0.31762372778595999  
11.42950508886183236 146.79999999999807869 -0.13810122367698396  11.18237627220125674 146.79999999999807869 -0.33452530592386565  
11.47650044536080927 146.80000000000100613 -0.22048085401279224  11.19412511132626520 146.80000000000100613 -0.35512021350782996  
11.49999999998124167 146.79999999999981242 -0.31024020990360485  11.19999999998124984 146.79999999999981242 -0.37756005248052793  
11.49999999998128963 146.80000000000001137 -0.40000000000617042  11.19999999998128715 146.80000000000001137 -0.40000000000617036  

0.00000000000000000 8
1.57079632679489656 8

0.00000000000000000 2
1.00000000000000000 2

9 0 0 0 0 7 1 8 2 2 2 11.49999999998128075 -127.49999999999991473 -0.40000000000610936  11.19999999998128359 -127.49999999999991473 -0.40000000000610914  
11.49999999998137312 -127.50000000000139266 -0.31024020990354600  11.19999999998139018 -127.50000000000139266 -0.37756005248047303  
11.47650044536045755 -127.49999999999643308 -0.22048085401272591  11.19412511132592236 -127.49999999999643308 -0.35512021350775136  
11.42950508886239014 -127.50000000000504485 -0.13810122367693137  11.18237627220175234 -127.50000000000504485 -0.33452530592383384  
11.36189877631030676 -127.49999999999570832 -0.07049491112522525  11.16547469406341619 -127.49999999999570832 -0.31762372778587050  
11.27951914597473859 -127.50000000000220268 -0.02349955462676642  11.14487978647970934 -127.50000000000220268 -0.30587488866128398  
11.18975979008384769 -127.49999999999940314 -0.00000000000610907  11.12243994750691733 -127.49999999999940314 -0.30000000000610610  
11.09999999998128750 -127.50000000000000000 -0.00000000000610942  11.09999999998129105 -127.50000000000000000 -0.30000000000610938  

4.71238898038468967 8
6.28318530717958623 8

0.00000000000000000 2
1.00000000000000000 2

1 11.19999999998128892 146.80000000000001137 -0.00000000000617045 0.00000000000000000 1.00000000000000000 -0.00000000000000022 0.00000000000000000 -0.00000000000000022 -1.00000000000000000 -1.00000000000000000 0.00000000000000000 -0.00000000000000000 
1 11.19999999998128892 -127.50000000000000000 -0.00000000000610956 -0.00000000000000000 -1.00000000000000000 0.00000000000000022 0.00000000000000000 0.00000000000000022 1.00000000000000000 -1.00000000000000000 0.00000000000000000 0.00000000000000000 
1 11.19999999998128892 146.80000000000001137 -15.00000000000758504 -0.00000000000000000 -0.00000000000000022 -1.00000000000000000 0.00000000000000000 -1.00000000000000000 0.00000000000000022 -1.00000000000000000 0.00000000000000000 0.00000000000000000 
2 -11.10000000001871001 146.80000000000001137 -0.40000000000616964 -0.00000000000000000 1.00000000000000000 -0.00000000000000022 0.00000000000000022 0.00000000000000022 1.00000000000000000 1.00000000000000000 -0.00000000000000000 -0.00000000000000022 0.40000000000000002
2 0.00000000000000000 0.00000000000000000 0.00000000000000000 -0.00000000000000000 -0.00000000000000000 -1.00000000000000000 1.00000000000000000 0.00000000000000000 0.00000000000000000 -0.00000000000000000 1.00000000000000000 -0.00000000000000000 1.69999999999999996
2 0.00000000000000000 0.00000000000000000 0.00000000000000000 -0.00000000000000000 -0.00000000000000000 -1.00000000000000000 1.00000000000000000 0.00000000000000000 0.00000000000000000 -0.00000000000000000 1.00000000000000000 -0.00000000000000000 1.69999999999999996
2 0.00000000000000000 0.00000000000000000 0.00000000000000000 -0.00000000000000000 -0.00000000000000000 -1.00000000000000000 1.00000000000000000 0.00000000000000000 0.00000000000000000 -0.00000000000000000 1.00000000000000000 -0.00000000000000000 1.69999999999999996
2 0.00000000000000000 0.00000000000000000 0.00000000000000000 -0.00000000000000000 -0.00000000000000000 -1.00000000000000000 1.00000000000000000 0.00000000000000000 0.00000000000000000 -0.00000000000000000 1.00000000000000000 -0.00000000000000000 1.69999999999999996
2 0.00000000000000000 0.00000000000000000 0.00000000000000000 -0.00000000000000000 -0.00000000000000000 -1.00000000000000000 1.00000000000000000 0.00000000000000000 0.00000000000000000 -0.00000000000000000 1.00000000000000000 -0.00000000000000000 1.69999999999999996
2 11.09999999998128928 146.80000000000001137 -0.40000000000617036 0.00000000000000000 1.00000000000000000 -0.00000000000000022 0.00000000000000000 0.00000000000000022 1.00000000000000000 1.00000000000000000 -0.00000000000000000 0.00000000000000000 0.10000000000000003
1 11.19999999998128892 146.80000000000001137 -0.40000000000617036 1.00000000000000000 0.00000000000000000 0.00000000000000000 0.00000000000000000 -0.00000000000000022 -1.00000000000000000 0.00000000000000000 1.00000000000000000 -0.00000000000000022 
1 -11.50000000001871037 146.80000000000001137 -15.00000000000758327 -1.00000000000000000 0.00000000000000000 0.00000000000000000 0.00000000000000000 0.00000000000000022 1.00000000000000000 0.00000000000000000 1.00000000000000000 -0.00000000000000022 
9 0 0 0 0 7 1 8 2 2 2 -11.50000000001871214 146.80000000000001137 -0.40000000000616931  -11.20000000001870966 146.80000000000001137 -0.40000000000616953  
-11.50000000001872102 146.80000000000057980 -0.31024020990360390  -11.20000000001871321 146.80000000000057980 -0.37756005248052915  
-11.47650044539797776 146.79999999999768079 -0.22048085401278872  -11.19412511136351362 146.79999999999768079 -0.35512021350782036  
-11.42950508889971850 146.80000000000379146 -0.13810122367698652  -11.18237627223895103 146.80000000000379146 -0.33452530592388097  
-11.36189877634776302 146.79999999999623128 -0.07049491112528902  -11.16547469410098792 146.79999999999623128 -0.31762372778594161  
-11.27951914601218064 146.80000000000228511 -0.02349955462682480  -11.14487978651707500 146.80000000000228511 -0.30587488866133855  
-11.18975979012123823 146.79999999999938609 -0.00000000000616946  -11.12243994754434340 146.79999999999938609 -0.30000000000616789  
-11.10000000001871179 146.80000000000001137 -0.00000000000616962  -11.10000000001871001 146.80000000000001137 -0.30000000000616961  

4.71238898038469056 8
6.28318530717958623 8

0.00000000000000000 2
1.00000000000000000 2

9 0 0 0 0 7 1 8 2 2 2 -11.10000000001871001 -127.50000000000000000 -0.00000000000610872  -11.10000000001870823 -127.50000000000000000 -0.30000000000610871  
-11.18975979012127198 -127.50000000000014211 -0.00000000000610903  -11.12243994754437360 -127.50000000000014211 -0.30000000000611043  
-11.27951914601203853 -127.49999999999877787 -0.02349955462676232  -11.14487978651692224 -127.49999999999877787 -0.30587488866126522  
-11.36189877634800993 -127.50000000000235900 -0.07049491112523083  -11.16547469410128457 -127.50000000000235900 -0.31762372778590187  
-11.42950508889948402 -127.49999999999785416 -0.13810122367692262  -11.18237627223864550 -127.49999999999785416 -0.33452530592379925  
-11.47650044539810388 -127.50000000000119371 -0.22048085401273002  -11.19412511136370725 -127.50000000000119371 -0.35512021350777173  
-11.50000000001869793 -127.49999999999964473 -0.31024020990354279  -11.20000000001867058 -127.49999999999964473 -0.37756005248046509  
-11.50000000001871037 -127.50000000000000000 -0.40000000000610830  -11.20000000001870788 -127.50000000000000000 -0.40000000000610858  

0.00000000000000000 8
1.57079632679489567 8

0.00000000000000000 2
1.00000000000000000 2

1 -11.50000000001871037 146.80000000000001137 -0.30000000000617044 0.00000000000000000 1.00000000000000000 0.00000000000000000 1.00000000000000000 0.00000000000000000 0.00000000000000000 0.00000000000000000 0.00000000000000000 -1.00000000000000000 
1 -11.50000000001871037 -127.50000000000000000 -0.30000000000610955 0.00000000000000000 -1.00000000000000000 0.00000000000000000 -1.00000000000000000 0.00000000000000000 0.00000000000000000 -0.00000000000000000 -0.00000000000000000 -1.00000000000000000 
2 278.42769123957521060 -122.50000000000032685 -6.99999999999989342 1.00000000000000000 -0.00000000000000022 0.00000000000000022 0.00000000000000022 1.00000000000000000 -0.00000000000000022 -0.00000000000000022 0.00000000000000022 1.00000000000000000 1.70000000000008367
2 278.42769123957521060 122.50000000000021316 -6.99999999999994849 1.00000000000000000 -0.00000000000000022 0.00000000000000022 0.00000000000000022 1.00000000000000000 -0.00000000000000022 -0.00000000000000022 0.00000000000000022 1.00000000000000000 1.70000000000008367
2 278.42769123957521060 -0.00000000000006338 -6.99999999999992095 1.00000000000000000 -0.00000000000000022 0.00000000000000022 0.00000000000000022 1.00000000000000000 -0.00000000000000022 -0.00000000000000022 0.00000000000000022 1.00000000000000000 1.70000000000008367
2 -11.10000000001871001 146.80000000000001137 -0.40000000000616964 -0.00000000000000000 1.00000000000000000 -0.00000000000000022 0.00000000000000022 0.00000000000000022 1.00000000000000000 1.00000000000000000 -0.00000000000000000 -0.00000000000000022 0.10000000000000003
1 -11.10000000001871001 146.80000000000001137 -0.30000000000617044 0.00000000000000000 0.00000000000000022 1.00000000000000000 1.00000000000000000 0.00000000000000000 -0.00000000000000000 -0.00000000000000000 1.00000000000000000 -0.00000000000000022 
1 -11.20000000001870966 146.80000000000001137 -15.00000000000758327 0.00000000000000000 -0.00000000000000022 -1.00000000000000000 0.00000000000000000 1.00000000000000000 -0.00000000000000022 1.00000000000000000 0.00000000000000000 0.00000000000000000 
1 -11.20000000001870966 146.80000000000001137 -15.00000000000758327 0.00000000000000000 1.00000000000000000 -0.00000000000000022 0.00000000000000000 0.00000000000000022 1.00000000000000000 1.00000000000000000 -0.00000000000000000 0.00000000000000000 
1 -11.20000000001870966 -127.50000000000000000 -15.00000000000752287 0.00000000000000000 -1.00000000000000000 0.00000000000000022 -0.00000000000000000 -0.00000000000000022 -1.00000000000000000 1.00000000000000000 0.00000000000000000 -0.00000000000000000 
1 -11.20000000001870966 146.80000000000001137 -15.00000000000758327 -1.00000000000000000 0.00000000000000000 0.00000000000000000 0.00000000000000000 0.00000000000000022 1.00000000000000000 0.00000000000000000 1.00000000000000000 -0.00000000000000022 
Triangulations 0

TShapes 213
Ve
0.001000000000000
11.499999999981290 146.800000000000011 -0.400000000006170
0 0

0101101
*
Ve
0.001000000000000
11.499999999981290 -127.500000000000000 -0.400000000006109
0 0

0101101
*
Ed
 0.001000000000000 1 1 0
1  1 0 0.000000000000000 274.300000000000011
2  1 2 0 0.000000000000000 274.300000000000011
4 G1 1 0 2 0
0

0101000
+213 8 -212 8 *
Ve
0.001000000000000
11.499999999981290 146.800000000000011 -15.000000000007585
0 0

0101101
*
Ed
 0.001000000000000 1 1 0
1  2 0 0.400000000000000 15.000000000001414
0

0101000
+213 8 -210 8 *
Ve
0.001000000000000
11.499999999981290 -127.500000000000000 -15.000000000007525
0 0

0101101
*
Ed
 0.001000000000000 1 1 0
1  3 0 0.400000000000000 15.000000000001414
0

0101000
+212 11 -208 11 *
Ed
 0.001000000000000 1 1 0
1  4 0 0.000000000000000 274.300000000000011
0

0101000
+210 8 -208 8 *
Wi

0101100
+211 6 -209 6 +207 10 -206 6 *
Ve
0.001000000000015
11.499999999981299 -120.800000000000182 -6.999999999999968
0 0

0101101
*
Ed
 0.001000000000000 1 1 0
1  5 0 0.000000000000000 6.283185307179586
2  2 3 0 0.000000000000000 6.283185307179586
0

0101100
+204 12 -204 12 *
Wi

0101100
-203 0 *
Ve
0.001000000000014
11.499999999981299 1.700000000000080 -6.999999999999995
0 0

0101101
*
Ed
 0.001000000000000 1 1 0
1  6 0 0.000000000000000 6.283185307179586
2  3 4 0 0.000000000000000 6.283185307179586
0

0101100
+201 12 -201 12 *
Wi

0101100
-200 0 *
Ve
0.001000000000014
11.499999999981299 124.200000000000358 -7.000000000000022
0 0

0101101
*
Ed
 0.001000000000000 1 1 0
1  7 0 0.000000000000000 6.283185307179586
2  4 5 0 0.000000000000000 6.283185307179586
0

0101100
+198 12 -198 12 *
Wi

0101100
-197 0 *
Fa
0  0.001000000000000 1 6

0101000
+205 0 +202 0 +199 0 +196 0 *
Ve
0.001000000000000
11.099999999981291 146.800000000000011 -0.000000000006170
0 0

0101101
*
Ve
0.001000000000000
11.099999999981291 -127.500000000000000 -0.000000000006110
0 0

0101101
*
Ed
 0.001000000000000 1 1 0
1  8 0 0.000000000000000 274.300000000000011
2  5 2 0 0.000000000000000 274.300000000000011
4 G1 2 0 6 0
0

0101000
+194 8 -193 8 *
Ed
 0.000000100000000 1 1 0
1  9 0 0.000000000000000 1.570796326794897
2  6 2 0 0.000000000000000 1.570796326794897
2  7 7 0 0.000000000000000 1.570796326794897
0

0101000
+194 8 -213 8 *
Ed
 0.000000100000000 1 1 0
1  10 0 0.000000000000000 1.570796326794897
2  8 2 13 0.000000000000000 1.570796326794897
2  9 8 13 0.000000000000000 1.570796326794897
0

0101000
+193 11 -212 11 *
Wi

0101100
+192 0 -211 0 -191 0 +190 9 *
Fa
0  0.000000100000000 2 0

0101000
+189 0 *
Ve
0.001000000000000
11.199999999981289 146.800000000000011 -15.000000000007585
0 0

0101101
*
Ed
 0.000000100000000 1 1 0
1  11 0 0.000000000000000 1.000000000000000
0

0101000
+210 8 -187 8 *
Ve
0.001000000000000
11.199999999981289 146.800000000000011 -0.400000000006170
0 0

0101101
*
Ed
 0.001000000000000 1 1 0
1  12 0 0.400000000000000 15.000000000001414
0

0101000
+185 8 -187 8 *
Ed
 0.000000100000000 1 1 0
1  13 0 0.000000000000000 1.000000000000000
2  10 7 0 0.000000000000000 1.000000000000000
0

0101000
+213 8 -185 8 *
Wi

0101100
+209 0 +186 0 -184 0 -183 0 *
Fa
0  0.000000100000000 9 0

0101000
+182 0 *
Ve
0.001000000000000
11.199999999981289 -127.500000000000000 -0.400000000006109
0 0

0101101
*
Ed
 0.000000100000000 1 1 0
1  14 0 0.000000000000000 1.000000000000000
2  11 8 0 0.000000000000000 1.000000000000000
0

0101000
+212 8 -180 8 *
Ve
0.001000000000000
11.199999999981289 -127.500000000000000 -15.000000000007525
0 0

0101101
*
Ed
 0.001000000000000 1 1 0
1  15 0 0.400000000000000 15.000000000001414
0

0101000
+180 8 -178 8 *
Ed
 0.000000100000000 1 1 0
1  16 0 0.000000000000000 1.000000000000000
0

0101000
+208 8 -178 8 *
Wi

0101100
-207 9 +179 0 +177 0 -176 0 *
Fa
0  0.000000100000000 10 0

0101000
+175 0 *
Ed
 0.001000000000000 1 1 0
1  17 0 0.000000000000000 274.300000000000011
0

0101000
+187 8 -178 8 *
Wi

0101000
+206 0 +176 0 -173 0 -186 0 *
Fa
0  0.000000100000000 11 0

0101000
+172 0 *
Ve
0.001000000000016
11.199999999981287 -120.800000000000182 -6.999999999999969
0 0

0101101
*
Ed
 0.000000100000000 1 1 0
1  18 0 266.927691239593912 267.227691239593923
3  12 13CN 3 0 266.927691239593912 267.227691239593923
0

0101000
+204 12 -170 12 *
Ed
 0.001000000000000 1 1 0
1  19 0 0.000000000000000 6.283185307179586
2  14 3 0 0.000000000000000 6.283185307179586
0

0101100
+170 12 -170 12 *
Wi

0101100
-203 0 -169 0 +168 0 +169 0 *
Fa
0  0.000000100000000 3 0

0101000
+167 0 *
Ve
0.001000000000015
11.199999999981287 1.700000000000080 -6.999999999999996
0 0

0101101
*
Ed
 0.000000100000000 1 1 0
1  20 0 266.927691239593912 267.227691239593923
3  15 16CN 4 0 266.927691239593912 267.227691239593923
0

0101000
+201 12 -165 12 *
Ed
 0.001000000000000 1 1 0
1  21 0 0.000000000000000 6.283185307179586
2  17 4 0 0.000000000000000 6.283185307179586
0

0101100
+165 12 -165 12 *
Wi

0101100
-200 0 -164 0 +163 0 +164 0 *
Fa
0  0.000000100000000 4 0

0101000
+162 0 *
Ve
0.001000000000015
11.199999999981287 124.200000000000358 -7.000000000000023
0 0

0101101
*
Ed
 0.000000100000000 1 1 0
1  22 0 266.927691239593912 267.227691239593923
3  18 19CN 5 0 266.927691239593912 267.227691239593923
0

0101000
+198 12 -160 12 *
Ed
 0.001000000000000 1 1 0
1  23 0 0.000000000000000 6.283185307179586
2  20 5 0 0.000000000000000 6.283185307179586
0

0101100
+160 12 -160 12 *
Wi

0101100
-197 0 -159 0 +158 0 +159 0 *
Fa
0  0.000000100000000 5 0

0101000
+157 0 *
Ve
0.001000000000000
-11.100000000018710 146.800000000000011 -0.000000000006170
0 0

0101101
*
Ve
0.001000000000000
-11.100000000018710 -127.500000000000000 -0.000000000006110
0 0

0101101
*
Ed
 0.001000000000000 1 1 0
1  24 0 0.000000000000000 274.300000000000011
2  21 12 0 0.000000000000000 274.300000000000011
4 G1 6 0 12 0
0

0101000
+155 8 -154 8 *
Ed
 0.001000000000000 1 1 0
1  25 0 0.400000000000000 22.600000000000001
0

0101000
+155 8 -194 8 *
Ed
 0.001000000000000 1 1 0
1  26 0 0.400000000000000 22.600000000000001
0

0101000
+154 11 -193 11 *
Wi

0101100
+153 15 -152 15 +151 16 -192 15 *
Ve
0.001000000006165
1.700000000000009 -122.500000000000000 0.000000000000000
0 0

0101101
*
Ed
 0.001000000006165 1 1 0
1  27 0 0.000000000000000 6.283185307179586
2  22 13 0 0.000000000000000 6.283185307179586
0

0101000
+149 18 -149 18 *
Wi

0101100
-148 17 *
Ve
0.001000000006165
1.700000000000000 -75.000000000012022 0.000000000000000
0 0

0101101
*
Ed
 0.001000000006165 1 1 0
1  28 0 0.000000000000000 6.283185307179586
2  22 14 0 0.000000000000000 6.283185307179586
0

0101000
+146 20 -146 20 *
Wi

0101100
-145 19 *
Ve
0.001000000006165
1.700000000000000 0.000000000000000 0.000000000000000
0 0

0101101
*
Ed
 0.001000000006165 1 1 0
1  29 0 0.000000000000000 6.283185307179586
2  22 15 0 0.000000000000000 6.283185307179586
0

0101000
+143 22 -143 22 *
Wi

0101100
-142 21 *
Ve
0.001000000006165
1.700000000000000 75.000000000050946 0.000000000000000
0 0

0101101
*
Ed
 0.001000000006165 1 1 0
1  30 0 0.000000000000000 6.283185307179586
2  22 16 0 0.000000000000000 6.283185307179586
0

0101000
+140 24 -140 24 *
Wi

0101100
-139 23 *
Ve
0.001000000006165
1.700000000521431 122.500000000000000 0.000000000000000
0 0

0101101
*
Ed
 0.001000000006165 1 1 0
1  31 0 0.000000000000000 6.283185307179586
2  22 17 0 0.000000000000000 6.283185307179586
0

0101000
+137 26 -137 26 *
Wi

0101100
-136 25 *
Fa
0  0.001000000000000 6 15

0101000
+150 0 +147 0 +144 0 +141 0 +138 0 +135 0 *
Ve
0.001000000000002
11.099999999981291 146.800000000000011 -0.300000000006170
0 0

0101101
*
Ed
 0.000000100000000 1 1 0
1  32 0 0.000000000000000 1.570796326794897
2  23 7 0 0.000000000000000 1.570796326794897
2  6 18 0 0.000000000000000 1.570796326794897
0

0101000
+133 8 -185 8 *
Ed
 0.000000100000004 1 1 0
1  33 0 0.000000000000000 1.000000000000000
2  24 7 0 0.000000000000000 1.000000000000000
0

0101000
+194 8 -133 8 *
Wi

0101100
+191 0 +183 0 -132 0 -131 0 *
Fa
0  0.000000100000000 7 0

0101000
+130 0 *
Ve
0.001000000000002
11.099999999981291 -127.500000000000000 -0.300000000006109
0 0

0101101
*
Ed
 0.000000100000004 1 1 0
1  34 0 0.000000000000000 1.000000000000000
2  25 8 0 0.000000000000000 1.000000000000000
0

0101000
+193 8 -128 8 *
Ed
 0.000000100000000 1 1 0
1  35 0 0.000000000000000 1.570796326794897
2  26 8 0 0.000000000000000 1.570796326794897
2  8 18 0 0.000000000000000 1.570796326794897
0

0101000
+128 8 -180 8 *
Wi

0101100
-190 9 +127 0 +126 0 -179 0 *
Fa
0  0.000000100000000 8 0

0101000
+125 0 *
Ed
 0.001000000000000 1 1 0
1  36 0 0.000000000000000 274.300000000000011
2  27 18 0 0.000000000000000 274.300000000000011
0

0101000
+185 8 -180 8 *
Wi

0101100
+123 6 -184 6 +177 6 -173 6 *
Wi

0101100
-168 0 *
Wi

0101100
-163 0 *
Wi

0101100
-158 0 *
Fa
0  0.001000000000000 19 6

0101000
+122 0 +121 0 +120 0 +119 0 *
Ve
0.001000000000000
-11.500000000018710 146.800000000000011 -0.400000000006170
0 0

0101101
*
Ve
0.001000000000000
-11.500000000018710 -127.500000000000000 -0.400000000006109
0 0

0101101
*
Ed
 0.001000000000000 1 1 0
1  37 0 0.000000000000000 274.300000000000011
2  28 12 0 0.000000000000000 274.300000000000011
4 G1 12 0 20 0
0

0101000
+117 8 -116 8 *
Ed
 0.000000100000000 1 1 0
1  38 0 4.712388980384691 6.283185307179586
2  29 12 0 4.712388980384691 6.283185307179586
2  30 21 0 4.712388980384691 6.283185307179586
0

0101000
+117 8 -155 8 *
Ed
 0.000000100000000 1 1 0
1  39 0 4.712388980384691 6.283185307179586
2  31 12 13 4.712388980384691 6.283185307179586
2  32 22 13 4.712388980384691 6.283185307179586
0

0101000
+116 11 -154 11 *
Wi

0101100
+115 0 -153 0 -114 0 +113 9 *
Fa
0  0.000000100000000 12 0

0101000
+112 0 *
Ve
0.001000000000000
-11.100000000018710 146.800000000000011 -0.300000000006170
0 0

0101101
*
Ed
 0.001000000000000 1 1 0
1  40 0 0.400000000000000 22.600000000000001
0

0101000
+110 8 -133 8 *
Ed
 0.000000100000000 1 1 0
1  41 0 0.000000000000000 1.000000000000000
2  33 21 0 0.000000000000000 1.000000000000000
0

0101000
+155 8 -110 8 *
Wi

0101100
+152 0 +131 0 -109 0 -108 0 *
Fa
0  0.000000100000000 23 0

0101000
+107 0 *
Ve
0.001000000000000
-11.100000000018710 -127.500000000000000 -0.300000000006110
0 0

0101101
*
Ed
 0.000000100000000 1 1 0
1  42 0 0.000000000000000 1.000000000000000
2  34 22 0 0.000000000000000 1.000000000000000
0

0101000
+154 8 -105 8 *
Ed
 0.001000000000000 1 1 0
1  43 0 0.400000000000000 22.600000000000001
0

0101000
+105 8 -128 8 *
Wi

0101100
-151 9 +104 0 +103 0 -127 0 *
Fa
0  0.000000100000000 24 0

0101000
+102 0 *
Ve
0.001000000000000
1.700000000000009 -122.500000000000000 -0.300000000006111
0 0

0101101
*
Ed
 0.000000100000000 1 1 0
1  44 0 0.000000000000000 0.300000000006111
3  35 36CN 13 0 0.000000000000000 0.300000000006111
0

0101000
+149 18 -100 18 *
Ed
 0.001000000000000 1 1 0
1  45 0 0.000000000000000 6.283185307179586
2  37 13 17 0.000000000000000 6.283185307179586
0

0101100
+100 27 -100 27 *
Wi

0101100
-99 17 +98 0 +99 17 +148 17 *
Fa
0  0.000000100000000 13 17

0101000
+97 0 *
Ve
0.001000000000000
1.700000000000000 -75.000000000012022 -0.300000000006121
0 0

0101101
*
Ed
 0.000000100000000 1 1 0
1  46 0 0.000000000000000 0.300000000006121
3  35 36CN 14 0 0.000000000000000 0.300000000006121
0

0101000
+146 20 -95 20 *
Ed
 0.001000000000000 1 1 0
1  47 0 0.000000000000000 6.283185307179586
2  38 14 19 0.000000000000000 6.283185307179586
0

0101100
+95 27 -95 27 *
Wi

0101100
-94 19 +93 0 +94 19 +145 19 *
Fa
0  0.000000100000000 14 19

0101000
+92 0 *
Ve
0.001000000000000
1.700000000000000 0.000000000000000 -0.300000000006138
0 0

0101101
*
Ed
 0.000000100000000 1 1 0
1  48 0 0.000000000000000 0.300000000006138
3  35 36CN 15 0 0.000000000000000 0.300000000006138
0

0101000
+143 22 -90 22 *
Ed
 0.001000000000000 1 1 0
1  49 0 0.000000000000000 6.283185307179586
2  39 15 21 0.000000000000000 6.283185307179586
0

0101100
+90 27 -90 27 *
Wi

0101100
-89 21 +88 0 +89 21 +142 21 *
Fa
0  0.000000100000000 15 21

0101000
+87 0 *
Ve
0.001000000000000
1.700000000000000 75.000000000050946 -0.300000000006155
0 0

0101101
*
Ed
 0.000000100000000 1 1 0
1  50 0 0.000000000000000 0.300000000006155
3  35 36CN 16 0 0.000000000000000 0.300000000006155
0

0101000
+140 24 -85 24 *
Ed
 0.001000000000000 1 1 0
1  51 0 0.000000000000000 6.283185307179586
2  40 16 23 0.000000000000000 6.283185307179586
0

0101100
+85 27 -85 27 *
Wi

0101100
-84 23 +83 0 +84 23 +139 23 *
Fa
0  0.000000100000000 16 23

0101000
+82 0 *
Ve
0.001000000000000
1.700000000521431 122.500000000000000 -0.300000000006165
0 0

0101101
*
Ed
 0.000000100000000 1 1 0
1  52 0 0.000000000000000 0.300000000006165
3  35 36CN 17 0 0.000000000000000 0.300000000006165
0

0101000
+137 26 -80 26 *
Ed
 0.001000000000000 1 1 0
1  53 0 0.000000000000000 6.283185307179586
2  41 17 25 0.000000000000000 6.283185307179586
0

0101100
+80 27 -80 27 *
Wi

0101100
-79 25 +78 0 +79 25 +136 25 *
Fa
0  0.000000100000000 17 25

0101000
+77 0 *
Ed
 0.001000000000000 1 1 0
1  54 0 0.000000000000000 274.300000000000011
2  5 18 0 0.000000000000000 274.300000000000011
0

0101000
+133 8 -128 8 *
Wi

0101100
+75 0 -123 0 -132 0 +126 0 *
Fa
0  0.000000100000000 18 0

0101000
+74 0 *
Ve
0.001000000000000
-11.500000000018710 146.800000000000011 -15.000000000007583
0 0

0101101
*
Ve
0.001000000000000
-11.500000000018710 -127.500000000000000 -15.000000000007523
0 0

0101101
*
Ed
 0.001000000000000 1 1 0
1  55 0 0.000000000000000 274.300000000000011
0

0101000
+72 8 -71 8 *
Ed
 0.001000000000000 1 1 0
1  56 0 0.000000000000000 14.600000000001414
0

0101000
+72 8 -117 8 *
Ed
 0.001000000000000 1 1 0
1  57 0 0.000000000000000 14.600000000001414
0

0101000
+71 11 -116 11 *
Wi

0101100
+70 6 -69 6 +68 10 -115 6 *
Ve
0.001000000000018
-11.500000000018701 -120.800000000000168 -6.999999999999975
0 0

0101101
*
Ed
 0.001000000000000 1 1 0
1  58 0 0.000000000000000 6.283185307179586
2  42 25 0 0.000000000000000 6.283185307179586
0

0101100
+66 12 -66 12 *
Wi

0101100
+65 0 *
Ve
0.001000000000017
-11.500000000018701 124.200000000000372 -7.000000000000029
0 0

0101101
*
Ed
 0.001000000000000 1 1 0
1  59 0 0.000000000000000 6.283185307179586
2  43 26 0 0.000000000000000 6.283185307179586
0

0101100
+63 12 -63 12 *
Wi

0101100
+62 0 *
Ve
0.001000000000017
-11.500000000018701 1.700000000000085 -7.000000000000002
0 0

0101101
*
Ed
 0.001000000000000 1 1 0
1  60 0 0.000000000000000 6.283185307179586
2  44 27 0 0.000000000000000 6.283185307179586
0

0101100
+60 12 -60 12 *
Wi

0101100
+59 0 *
Fa
0  0.001000000000000 20 6

0101000
+67 0 +64 0 +61 0 +58 0 *
Ve
0.001000000000000
-11.200000000018710 146.800000000000011 -0.400000000006170
0 0

0101101
*
Ed
 0.000000100000000 1 1 0
1  61 0 4.712388980384691 6.283185307179586
2  45 21 0 4.712388980384691 6.283185307179586
2  29 28 0 4.712388980384691 6.283185307179586
0

0101000
+56 8 -110 8 *
Ed
 0.000000100000002 1 1 0
1  62 0 0.000000000000000 1.000000000000000
2  46 21 0 0.000000000000000 1.000000000000000
0

0101000
+117 8 -56 8 *
Wi

0101100
+114 0 +108 0 -55 0 -54 0 *
Fa
0  0.000000100000000 21 0

0101000
+53 0 *
Ve
0.001000000000000
-11.200000000018710 -127.500000000000000 -0.400000000006109
0 0

0101101
*
Ed
 0.000000100000001 1 1 0
1  63 0 0.000000000000000 1.000000000000000
2  47 22 0 0.000000000000000 1.000000000000000
0

0101000
+116 8 -51 8 *
Ed
 0.000000100000000 1 1 0
1  64 0 4.712388980384691 6.283185307179586
2  48 22 0 4.712388980384691 6.283185307179586
2  31 28 0 4.712388980384691 6.283185307179586
0

0101000
+51 8 -105 8 *
Wi

0101100
-113 9 +50 0 +49 0 -104 0 *
Fa
0  0.000000100000000 22 0

0101000
+48 0 *
Ed
 0.001000000000000 1 1 0
1  65 0 0.000000000000000 274.300000000000011
2  49 28 0 0.000000000000000 274.300000000000011
0

0101000
+110 8 -105 8 *
Wi

0101100
+46 15 -109 15 +103 15 -75 15 *
Wi

0101100
+98 0 *
Wi

0101100
+93 0 *
Wi

0101100
+88 0 *
Wi

0101100
+83 0 *
Wi

0101100
+78 0 *
Fa
0  0.001000000000000 29 15

0101000
+45 0 +44 0 +43 0 +42 0 +41 0 +40 0 *
Ve
0.001000000000000
-11.200000000018710 146.800000000000011 -15.000000000007583
0 0

0101101
*
Ed
 0.000000100000000 1 1 0
1  66 0 0.000000000000000 1.000000000000000
0

0101000
+72 8 -38 8 *
Ve
0.001000000000000
-11.200000000018710 -127.500000000000000 -15.000000000007523
0 0

0101101
*
Ed
 0.001000000000000 1 1 0
1  67 0 0.000000000000000 274.300000000000011
0

0101000
+38 8 -36 8 *
Ed
 0.000000100000000 1 1 0
1  68 0 0.000000000000000 1.000000000000000
0

0101000
+71 8 -36 8 *
Wi

0101000
-70 0 +37 0 +35 0 -34 0 *
Fa
0  0.000000100000000 30 0

0101000
+33 0 *
Ed
 0.001000000000000 1 1 0
1  69 0 0.000000000000000 14.600000000001414
0

0101000
+38 8 -56 8 *
Wi

0101100
+69 0 +54 0 -31 0 -37 0 *
Fa
0  0.000000100000000 31 0

0101000
+30 0 *
Ed
 0.001000000000000 1 1 0
1  70 0 0.000000000000000 14.600000000001414
0

0101000
+36 8 -51 8 *
Wi

0101100
-68 9 +34 0 +28 0 -50 0 *
Fa
0  0.000000100000000 32 0

0101000
+27 0 *
Ve
0.001000000000018
-11.200000000018690 -120.800000000000168 -6.999999999999975
0 0

0101101
*
Ed
 0.001000000000000 1 1 0
1  71 0 0.000000000000000 6.283185307179586
2  50 25 0 0.000000000000000 6.283185307179586
0

0101100
+25 12 -25 12 *
Ed
 0.000000100000000 1 1 0
1  72 0 289.627691239593901 289.927691239593912
3  12 13CN 25 0 289.627691239593901 289.927691239593912
0

0101000
+25 12 -66 12 *
Wi

0101100
-24 0 -23 0 +65 0 +23 0 *
Fa
0  0.000000100000000 25 0

0101000
+22 0 *
Ve
0.001000000000017
-11.200000000018690 124.200000000000372 -7.000000000000029
0 0

0101101
*
Ed
 0.001000000000000 1 1 0
1  73 0 0.000000000000000 6.283185307179586
2  51 26 0 0.000000000000000 6.283185307179586
0

0101100
+20 12 -20 12 *
Ed
 0.000000100000000 1 1 0
1  74 0 289.627691239593901 289.927691239593912
3  18 19CN 26 0 289.627691239593901 289.927691239593912
0

0101000
+20 12 -63 12 *
Wi

0101100
-19 0 -18 0 +62 0 +18 0 *
Fa
0  0.000000100000000 26 0

0101000
+17 0 *
Ve
0.001000000000017
-11.200000000018690 1.700000000000085 -7.000000000000002
0 0

0101101
*
Ed
 0.001000000000000 1 1 0
1  75 0 0.000000000000000 6.283185307179586
2  52 27 0 0.000000000000000 6.283185307179586
0

0101100
+15 12 -15 12 *
Ed
 0.000000100000000 1 1 0
1  76 0 289.627691239593901 289.927691239593912
3  15 16CN 27 0 289.627691239593901 289.927691239593912
0

0101000
+15 12 -60 12 *
Wi

0101100
-14 0 -13 0 +59 0 +13 0 *
Fa
0  0.000000100000000 27 0

0101000
+12 0 *
Ed
 0.001000000000000 1 1 0
1  77 0 0.000000000000000 274.300000000000011
2  28 28 0 0.000000000000000 274.300000000000011
0

0101000
+56 8 -51 8 *
Wi

0101100
+10 0 -46 0 -55 0 +49 0 *
Fa
0  0.000000100000000 28 0

0101000
+9 0 *
Wi

0101100
+35 6 -31 6 +28 6 -10 6 *
Wi

0101100
+24 0 *
Wi

0101100
+19 0 *
Wi

0101100
+14 0 *
Fa
0  0.001000000000000 33 6

0101000
+7 0 +6 0 +5 0 +4 0 *
Sh

0101100
+195 0 +188 6 +181 6 +174 6 +171 6 -166 0 -161 0 -156 0 +134 14 +129 6 
+124 6 -118 0 +111 6 +106 6 +101 6 +96 14 +91 14 +86 14 +81 14 +76 14 
-73 6 +57 0 +52 6 +47 6 -39 14 +32 6 +29 6 +26 6 -21 0 -16 0 
-11 0 -8 6 -3 0 *
So

1100000
+2 0 *

+1 1 