
CASCADE Topology V1, (c) Matra-Datavision
Locations 19
1
1.000000000000000 0.000000000000000 0.000000000000000 0.000000000000000 
0.000000000000000 1.000000000000000 0.000000000000000 0.000000000000000 
0.000000000000000 0.000000000000000 1.000000000000000 0.000000000000000 
1
0.000000000000000 -0.000000000000000 1.000000000000000 -0.000000000000317 
1.000000000000000 0.000000000000000 -0.000000000000000 0.000000000000317 
-0.000000000000000 1.000000000000000 0.000000000000000 1427.999999999999773 
1
1.000000000000000 0.000000000000000 0.000000000000000 0.000000000000000 
0.000000000000000 1.000000000000000 0.000000000000000 0.000000000000000 
0.000000000000000 0.000000000000000 1.000000000000000 0.000000000000000 
1
1.000000000000000 0.000000000000000 0.000000000000000 1487.149440473208642 
0.000000000000000 1.000000000000000 0.000000000000000 -0.000000000000330 
0.000000000000000 0.000000000000000 1.000000000000000 0.000000000000413 
2  1 1 2 1 3 -1 4 1 0
1
1.000000000000000 0.000000000000000 0.000000000000000 -2974.298880946417285 
0.000000000000000 1.000000000000000 0.000000000000000 0.000000000000660 
0.000000000000000 0.000000000000000 1.000000000000000 -0.000000000000826 
2  1 1 2 1 3 -1 4 1 6 1 0
1
1.000000000000000 0.000000000000000 0.000000000000000 1487.149440473208642 
0.000000000000000 1.000000000000000 0.000000000000000 -0.000000000000330 
0.000000000000000 0.000000000000000 1.000000000000000 0.000000000000413 
1
1.000000000000000 0.000000000000000 0.000000000000000 0.000000000000000 
0.000000000000000 1.000000000000000 0.000000000000000 0.000000000000000 
0.000000000000000 0.000000000000000 1.000000000000000 0.000000000000000 
1
0.000000000000000 -0.000000000000000 1.000000000000000 -0.000000000000317 
1.000000000000000 0.000000000000000 -0.000000000000000 0.000000000000317 
-0.000000000000000 1.000000000000000 0.000000000000000 1427.999999999999773 
1
1.000000000000000 0.000000000000000 0.000000000000000 0.000000000000000 
0.000000000000000 1.000000000000000 0.000000000000000 0.000000000000000 
0.000000000000000 0.000000000000000 1.000000000000000 0.000000000000000 
2  8 -1 9 1 10 -1 11 -1 0
1
1.000000000000000 0.000000000000000 0.000000000000000 -2974.298880946417285 
0.000000000000000 1.000000000000000 0.000000000000000 0.000000000000660 
0.000000000000000 0.000000000000000 1.000000000000000 -0.000000000000826 
2  13 -1 8 -1 9 1 10 -1 11 -1 0
2  4 -1 3 1 2 -1 1 -1 0
2  6 -1 4 -1 3 1 2 -1 1 -1 0
2  3 -1 4 1 0
2  1 1 2 1 0
2  3 -1 4 1 6 1 0
Curve2ds 18
1 0.00000000000000000 0.00000000000000000 -0.00000000000000000 -1.00000000000000000 
1 4.94974746830583356 0.00000000000000000 -0.00000000000000004 -1.00000000000000000 
1 3.50000000000000044 0.00000000000000078 -0.00000000000000000 -1.00000000000000000 
1 0.00000000000000000 0.00000000000000000 0.00000000000000006 -1.00000000000000000 
1 0.00000000000000000 0.00000000000000000 1.00000000000000000 -0.00000000000000000 
1 -0.00000000000000000 -2974.29888094641728458 1.00000000000000000 -0.00000000000000000 
1 0.00000000000000000 0.00000000000000000 1.00000000000000000 -0.00000000000000000 
1 -0.00000000000000000 -2974.29888094641728458 1.00000000000000000 -0.00000000000000000 
1 0.00000000000000000 0.00000000000000000 -0.00000000000000004 -1.00000000000000000 
1 3.50000000000000000 -0.00000000000000078 0.00000000000000006 -1.00000000000000000 
1 0.00000000000000000 0.00000000000000000 1.00000000000000000 0.00000000000000000 
1 0.00000000000024907 -2974.29888094641728458 1.00000000000000000 0.00000000000000000 
1 0.00000000000000000 0.00000000000000000 1.00000000000000000 0.00000000000000000 
1 0.00000000000024907 -2974.29888094641728458 1.00000000000000000 0.00000000000000000 
1 0.00000000000000000 0.00000000000000000 1.00000000000000000 0.00000000000000000 
1 -0.00000000000020568 -2974.29888094641728458 1.00000000000000000 0.00000000000000000 
1 0.00000000000000000 0.00000000000000000 1.00000000000000000 0.00000000000000000 
1 -0.00000000000020568 -2974.29888094641728458 1.00000000000000000 0.00000000000000000 
Curves 6
1 1487.14944047320841491 -0.00000000000001269 1428.00000000000022737 -1.00000000000000000 0.00000000000000022 -0.00000000000000028 
1 1487.14944047320841491 -3.50000000000001332 1428.00000000000022737 -1.00000000000000000 0.00000000000000022 -0.00000000000000028 
1 0.00000000000000044 0.00000000000000040 0.00000000000000000 -1.00000000000000000 -0.00000000000000014 0.00000000000000000 
1 1487.14944047320841491 -3.50000000000001421 1424.50000000000022737 -1.00000000000000000 0.00000000000000022 -0.00000000000000028 
1 -3.50000000000000000 -0.00000000000000010 0.00000000000000000 0.00000000000000000 -1.00000000000000000 0.00000000000000000 
1 -3.50000000000000000 -3.50000000000000000 0.00000000000000000 0.70710678118654757 0.70710678118654757 0.00000000000000000 
Polygon3D 0
PolygonOnTriangulations 0
Surfaces 7
1 1487.14944047320841491 -0.00000000000001269 1428.00000000000022737 -0.00000000000000028 0.00000000000000008 1.00000000000000000 -0.00000000000000022 -1.00000000000000000 0.00000000000000008 1.00000000000000000 -0.00000000000000022 0.00000000000000028 
1 1487.14944047320841491 -3.50000000000001421 1424.50000000000022737 0.00000000000000035 0.70710678118654746 -0.70710678118654768 -0.00000000000000000 0.70710678118654768 0.70710678118654746 1.00000000000000000 -0.00000000000000025 0.00000000000000025 
1 1487.14944047320841491 -3.50000000000001332 1428.00000000000022737 -0.00000000000000022 -1.00000000000000000 0.00000000000000022 0.00000000000000022 -0.00000000000000022 -1.00000000000000000 1.00000000000000000 -0.00000000000000022 0.00000000000000022 
1 1487.14944047320841491 -0.00000000000001269 1428.00000000000022737 -0.00000000000000028 0.00000000000000008 1.00000000000000000 -0.00000000000000022 -1.00000000000000000 0.00000000000000008 1.00000000000000000 -0.00000000000000022 0.00000000000000028 
1 1487.14944047320841491 -3.50000000000001332 1428.00000000000022737 -0.00000000000000022 -1.00000000000000000 0.00000000000000022 0.00000000000000022 -0.00000000000000022 -1.00000000000000000 1.00000000000000000 -0.00000000000000022 0.00000000000000022 
1 1487.14944047320841491 -3.50000000000001421 1424.50000000000022737 0.00000000000000035 0.70710678118654746 -0.70710678118654768 -0.00000000000000000 0.70710678118654768 0.70710678118654746 1.00000000000000000 -0.00000000000000025 0.00000000000000025 
1 -0.00000000000031731 -2.26256313292322497 1426.76256313292356026 1.00000000000000000 -0.00000000000000022 0.00000000000000022 -0.00000000000000022 0.00000000000000000 1.00000000000000000 -0.00000000000000022 -1.00000000000000000 -0.00000000000000000 
Triangulations 0

TShapes 19
Ve
0.000000100000000
0.000000000000000 0.000000000000000 0.000000000000000
0 0

0101101
*
Ed
 0.000000100000000 1 1 0
1  1 0 0.000000000000000 2974.298880946417285
2  1 1 0 0.000000000000000 2974.298880946417285
2  2 2 0 0.000000000000000 2974.298880946417285
0

0101000
+19 5 -19 7 *
Ve
0.000000100000000
-3.500000000000000 -0.000000000000000 0.000000000000000
0 0

0101101
*
Ed
 0.000000100000000 1 1 0
1  2 0 0.000000000000000 2974.298880946417285
2  3 1 0 0.000000000000000 2974.298880946417285
2  4 3 0 0.000000000000000 2974.298880946417285
0

0101000
+17 5 -17 7 *
Ed
 0.000000100000000 1 1 0
1  3 0 0.000000000000000 3.500000000000000
2  5 4 12 0.000000000000000 3.500000000000000
2  6 4 14 0.000000000000000 3.500000000000000
2  7 1 15 0.000000000000000 3.500000000000000
2  8 1 16 0.000000000000000 3.500000000000000
0

0101000
+19 0 -17 0 *
Wi

0101100
+18 0 -16 0 -15 5 +15 7 *
Fa
0  0.000000100000000 1 0

0111000
+14 0 *
Ve
0.000000100000000
-3.500000000000000 -3.500000000000000 0.000000000000000
0 0

0101101
*
Ed
 0.000000100000000 1 1 0
1  4 0 0.000000000000000 2974.298880946417285
2  9 2 0 0.000000000000000 2974.298880946417285
2  10 3 0 0.000000000000000 2974.298880946417285
0

0101000
+12 5 -12 7 *
Ed
 0.000000100000000 1 1 0
1  5 0 0.000000000000000 3.500000000000000
2  11 5 12 0.000000000000000 3.500000000000000
2  12 5 14 0.000000000000000 3.500000000000000
2  13 3 15 0.000000000000000 3.500000000000000
2  14 3 16 0.000000000000000 3.500000000000000
0

0101000
+17 0 -12 0 *
Wi

0101100
+16 0 -11 0 -10 5 +10 7 *
Fa
0  0.000000100000000 3 0

0111000
+9 0 *
Ed
 0.000000100000000 1 1 0
1  6 0 0.000000000000000 4.949747468305834
2  15 6 12 0.000000000000000 4.949747468305834
2  16 6 14 0.000000000000000 4.949747468305834
2  17 2 15 0.000000000000000 4.949747468305834
2  18 2 16 0.000000000000000 4.949747468305834
0

0101000
+12 0 -19 0 *
Wi

0101100
+11 0 -18 0 -7 5 +7 7 *
Fa
0  0.000000100000000 2 0

0111000
+6 0 *
Wi

0101100
+15 0 +10 0 +7 0 *
Fa
0  0.000000100000000 7 0

0111000
+4 18 *
Sh

0101100
+13 0 +8 0 +5 0 +3 17 -3 19 *
So

1100000
+2 0 *

+1 0 