
CASCADE Topology V1, (c) Matra-Datavision
Locations 19
1
1.000000000000000 0.000000000000000 0.000000000000000 0.000000000000000 
0.000000000000000 1.000000000000000 0.000000000000000 0.000000000000000 
0.000000000000000 0.000000000000000 1.000000000000000 0.000000000000000 
1
1.000000000000000 0.000000000000000 0.000000000000000 0.000000000000000 
0.000000000000000 1.000000000000000 0.000000000000000 0.000000000000000 
0.000000000000000 0.000000000000000 1.000000000000000 0.000000000000000 
1
1.000000000000000 0.000000000000000 0.000000000000000 0.000000000000000 
0.000000000000000 1.000000000000000 0.000000000000000 0.000000000000000 
0.000000000000000 0.000000000000000 1.000000000000000 0.000000000000000 
2  2 1 3 -1 0
1
1.000000000000000 0.000000000000000 0.000000000000000 0.000000000000000 
0.000000000000000 1.000000000000000 0.000000000000000 0.000000000000000 
0.000000000000000 0.000000000000000 1.000000000000000 422.000000000000000 
2  5 -1 0
2  5 1 2 1 3 -1 0
1
1.000000000000000 0.000000000000000 0.000000000000000 270.618283952441800 
0.000000000000000 1.000000000000000 0.000000000000000 185.237062276713175 
0.000000000000000 0.000000000000000 1.000000000000000 409.000000000000114 
1
1.000000000000000 0.000000000000000 0.000000000000000 252.942558156446665 
0.000000000000000 1.000000000000000 0.000000000000000 192.206188304042143 
0.000000000000000 0.000000000000000 1.000000000000000 223.000000000000028 
2  2 1 3 -1 9 -1 0
1
1.000000000000000 0.000000000000000 0.000000000000000 252.942558156446552 
0.000000000000000 1.000000000000000 0.000000000000000 192.206188304042143 
0.000000000000000 0.000000000000000 1.000000000000000 319.000000000000057 
2  2 1 3 -1 11 -1 0
2  2 1 3 -1 8 -1 0
1
1.000000000000000 0.000000000000000 0.000000000000000 270.618283952441914 
0.000000000000000 1.000000000000000 0.000000000000000 185.237062276713516 
0.000000000000000 0.000000000000000 1.000000000000000 13.000000000000004 
2  2 1 3 -1 14 -1 0
2  8 -1 0
2  11 -1 0
2  9 -1 0
2  14 -1 0
Curve2ds 111
1 0.00000000000000000 0.00000000000000000 0.00000000000000000 -1.00000000000000000 
1 1.94635906870702846 0.00000000000000000 0.00000000000000000 -1.00000000000000000 
1 0.00000000000000000 -0.99999999999995015 1.00000000000000000 0.00000000000000000 
1 0.00000000000000000 -0.99999999999999256 -1.00000000000000000 0.00000000000000000 
1 58.96381239625320347 0.00000000000000000 0.00000000000000000 -1.00000000000000000 
1 0.00000000000000000 0.00000000000000000 1.00000000000000000 0.00000000000000000 
1 -0.00000000000001904 -0.99999999999999256 1.00000000000000000 0.00000000000000000 
1 0.00000000000001904 -0.99999999999999256 -1.00000000000000000 0.00000000000000000 
1 0.00000000000000000 0.00000000000000000 1.00000000000000000 0.00000000000000000 
1 0.00000000000000000 -422.00000000000000000 1.00000000000000000 0.00000000000000000 
6 0 1 0.00000000000000000 -1.00000000000000000  0.00000000000000000 0.00000000000000000  
1 0.00000000000000000 0.00000000000000000 0.00000000000000000 -1.00000000000000000 
6 0 1 0.00000000000000000 -1.00000000000000000  0.00000000000000000 0.00000000000000000  
1 1.57079632679489656 0.00000000000000000 0.00000000000000000 -1.00000000000000000 
1 0.00000000000000000 -1.00000000000000000 1.00000000000000000 0.00000000000000000 
1 0.00000000000000000 -1.00000000000000000 -1.00000000000000000 0.00000000000000000 
1 0.00000000000000000 0.00000000000000000 0.00000000000000000 -1.00000000000000000 
1 0.00000000000000000 0.00000000000000000 1.00000000000000000 0.00000000000000000 
1 0.00000000000000000 0.00000000000000000 1.00000000000000000 0.00000000000000000 
1 0.00000000000000000 -422.00000000000000000 1.00000000000000000 0.00000000000000000 
1 6.28318530717958623 0.00000000000000000 -1.00000000000000000 0.00000000000000000 
1 0.00000000000000000 0.00000000000000000 1.00000000000000000 0.00000000000000000 
1 0.00000000000000000 0.00000000000000000 1.00000000000000000 0.00000000000000000 
1 -0.00000000000000000 0.00000000000000000 -1.00000000000000000 0.00000000000000000 
6 0 1 0.00000000000000000 -1.00000000000000000  0.00000000000000000 0.00000000000000000  
6 0 1 -58.96381239625318926 -1.00000000000000000  -58.96381239625324611 0.00000000000000000  
8 0.00000000000000000 1.00000000000000000
1 1.94635906870702846 0.00000000000000000 0.00000000000000000 1.00000000000000000 
6 0 1 58.96381239625318926 -1.00000000000000000  58.96381239625324611 0.00000000000000000  
6 0 1 -422.00000000000000000 -1.00000000000000000  -422.00000000000000000 0.00000000000000000  
8 0.00000000000000000 1.00000000000000000
1 4.33682623847255755 0.00000000000000000 0.00000000000000000 1.00000000000000000 
1 0.00000000000000000 -422.00000000000000000 1.00000000000000000 0.00000000000000000 
1 0.00000000000000000 0.00000000000000000 1.00000000000000000 0.00000000000000000 
1 58.96381239625320347 0.00000000000000000 0.00000000000000000 -1.00000000000000000 
1 0.00000000000000000 0.00000000000000000 -1.00000000000000000 0.00000000000000000 
8 0.00000000000000000 422.00000000000000000
1 1.94635906870702846 0.00000000000000000 0.00000000000000000 -1.00000000000000000 
1 1.57079632679489656 0.00000000000000000 0.00000000000000000 -1.00000000000000000 
1 0.00000000000000000 -1.00000000000000000 1.00000000000000000 0.00000000000000000 
1 0.00000000000000000 -1.00000000000000000 -1.00000000000000000 0.00000000000000000 
1 10.00000000000000000 0.00000000000000000 0.00000000000000000 -1.00000000000000000 
1 0.00000000000000000 0.00000000000000000 1.00000000000000000 0.00000000000000000 
1 0.00000000000000000 -1.00000000000000000 1.00000000000000000 0.00000000000000000 
1 0.00000000000000000 -1.00000000000000000 -1.00000000000000000 0.00000000000000000 
1 0.00000000000000000 0.00000000000000000 1.00000000000000000 0.00000000000000000 
1 0.00000000000000000 -422.00000000000000000 1.00000000000000000 0.00000000000000000 
1 0.00000000000000000 1.00000000000000000 1.00000000000000000 0.00000000000000000 
1 1.57079632679489656 0.00000000000000000 0.00000000000000000 1.00000000000000000 
6 0 1 0.00000000000000000 -1.00000000000000000  0.00000000000000000 0.00000000000000000  
1 4.71238898038468967 0.00000000000000000 0.00000000000000000 1.00000000000000000 
7 0 0  1 2 2  -422.00000000000011369 -0.99999999999997158  -422.00000000000011369 0.00000000000000000 
 0.00000000000000000 2 1.00000000000000000 2
1 6.28318530717958623 1.00000000000000000 -1.00000000000000000 0.00000000000000000 
1 0.00000000000000000 0.00000000000000000 -1.00000000000000000 0.00000000000000000 
1 0.00000000000000000 0.00000000000000000 0.00000000000000000 -1.00000000000000000 
1 1.19523358488276266 0.00000000000000000 0.00000000000000000 -1.00000000000000000 
1 0.00000000000000000 -0.99999999999999256 1.00000000000000000 0.00000000000000000 
1 0.00000000000000000 -1.00000000000005596 -1.00000000000000000 0.00000000000000000 
1 58.96381239625017656 0.00000000000000000 0.00000000000000000 -1.00000000000000000 
1 0.00000000000000000 0.00000000000000000 1.00000000000000000 0.00000000000000000 
1 0.00000000000000000 0.00000000000000000 1.00000000000000000 0.00000000000000000 
1 0.00000000000000000 -422.00000000000000000 1.00000000000000000 0.00000000000000000 
1 6.28318530717958623 0.00000000000000000 -1.00000000000000000 0.00000000000000000 
1 0.00000000000000000 0.00000000000000000 1.00000000000000000 0.00000000000000000 
1 0.00000000000000000 0.00000000000000000 1.00000000000000000 0.00000000000000000 
1 -0.00000000000000000 0.00000000000000000 -1.00000000000000000 0.00000000000000000 
6 0 1 -10.00000000000000000 -1.00000000000000000  -10.00000000000000000 0.00000000000000000  
6 0 1 0.00000000000000000 -1.00000000000000000  0.00000000000000000 0.00000000000000000  
8 0.00000000000000000 1.00000000000000000
1 1.57079632679489656 0.00000000000000000 0.00000000000000000 1.00000000000000000 
6 0 1 10.00000000000000000 -1.00000000000000000  10.00000000000000000 0.00000000000000000  
6 0 1 -422.00000000000000000 -1.00000000000000000  -422.00000000000000000 0.00000000000000000  
8 0.00000000000000000 1.00000000000000000
1 4.71238898038468967 0.00000000000000000 0.00000000000000000 1.00000000000000000 
1 0.00000000000000000 -422.00000000000000000 1.00000000000000000 0.00000000000000000 
1 0.00000000000000000 0.00000000000000000 1.00000000000000000 0.00000000000000000 
1 10.00000000000000000 0.00000000000000000 0.00000000000000000 -1.00000000000000000 
1 0.00000000000000000 0.00000000000000000 -1.00000000000000000 0.00000000000000000 
8 0.00000000000000000 422.00000000000000000
1 1.57079632679489656 0.00000000000000000 0.00000000000000000 -1.00000000000000000 
1 0.00000000000000000 0.00000000000000000 0.00000000000000000 -1.00000000000000000 
1 0.00000000000000000 0.00000000000000000 1.00000000000000000 0.00000000000000000 
1 0.00000000000002276 -0.99999999999999256 -1.00000000000000000 0.00000000000000000 
1 -0.00000000000002276 -0.99999999999999256 1.00000000000000000 0.00000000000000000 
1 0.00000000000000000 0.00000000000000000 1.00000000000000000 0.00000000000000000 
1 0.00000000000000000 -422.00000000000000000 1.00000000000000000 0.00000000000000000 
2 0.00000000000000000 0.00000000000000000 -1.00000000000000000 -0.00000000000000000 -0.00000000000000000 1.00000000000000000 1.69999999999999996
1 0.00000000000000000 0.00000000000000000 1.00000000000000000 0.00000000000000000 
2 28.96381239625027959 -223.00000000000002842 0.00000000000000183 -1.00000000000000000 1.00000000000000000 0.00000000000000183 1.69999999999998863
2 28.96381239625037907 -319.00000000000005684 0.00000000000000183 -1.00000000000000000 1.00000000000000000 0.00000000000000183 1.69999999999998863
2 9.96381239625022808 -409.00000000000011369 0.00000000000000183 -1.00000000000000000 1.00000000000000000 0.00000000000000183 1.69999999999998863
2 9.96381239625022808 -13.00000000000000355 0.00000000000000183 -1.00000000000000000 1.00000000000000000 0.00000000000000183 1.69999999999999929
1 0.00000000000000000 1.00000000000000000 1.00000000000000000 0.00000000000000000 
1 1.19523358488276266 0.00000000000000000 0.00000000000000000 1.00000000000000000 
6 0 1 0.00000000000000000 -1.00000000000005684  0.00000000000000000 0.00000000000000000  
1 5.08795172229682358 0.00000000000000000 0.00000000000000000 1.00000000000000000 
7 0 0  1 2 2  -422.00000000000011369 -1.00000000000000000  -422.00000000000011369 -0.00000000000011369 
 0.00000000000000000 2 1.00000000000000000 2
1 6.28318530717958623 1.00000000000000000 -1.00000000000000000 0.00000000000000000 
1 0.00000000000000000 0.00000000000000000 -1.00000000000000000 0.00000000000000000 
1 58.96381239625017656 0.00000000000000000 0.00000000000000000 -1.00000000000000000 
6 0 1 -0.00000000000005684 -1.00000000000000000  0.00000000000000000 0.00000000000000000  
1 0.00000000000000000 0.00000000000000000 0.00000000000000000 -1.00000000000000000 
6 0 1 0.00000000000005684 -1.00000000000000000  0.00000000000000000 0.00000000000000000  
1 0.00000000000000000 0.00000000000000000 1.00000000000000000 0.00000000000000000 
1 0.00000000000000000 0.00000000000000000 1.00000000000000000 0.00000000000000000 
1 0.00000000000000000 -422.00000000000000000 1.00000000000000000 0.00000000000000000 
1 0.00000000000000000 0.00000000000000000 -1.00000000000000000 0.00000000000000000 
1 6.28318530717958623 0.00000000000000000 0.00000000000000000 1.00000000000000000 
1 0.00000000000000000 0.00000000000000000 0.00000000000000000 1.00000000000000000 
2 9.96381239625021742 -409.00000000000011369 0.00000000000000183 -1.00000000000000000 -1.00000000000000000 -0.00000000000000183 1.69999999999999996
1 6.28318530717958623 1.00000000000027223 -1.00000000000000000 0.00000000000000000 
2 28.96381239625035420 -319.00000000000005684 0.00000000000000183 -1.00000000000000000 -1.00000000000000000 -0.00000000000000183 1.69999999999999996
1 6.28318530717958623 1.00000000000006639 -1.00000000000000000 0.00000000000000000 
2 28.96381239625025117 -223.00000000000002842 0.00000000000000183 -1.00000000000000000 -1.00000000000000000 -0.00000000000000183 1.69999999999999996
1 6.28318530717958623 1.00000000000000311 -1.00000000000000000 0.00000000000000000 
2 9.96381239625022808 -13.00000000000000355 0.00000000000000183 -1.00000000000000000 -1.00000000000000000 -0.00000000000000183 1.69999999999999996
1 6.28318530717958623 0.99999999999993971 -1.00000000000000000 0.00000000000000000 
Curves 45
1 -279.88763215238174098 181.58237468186462138 0.00000000000000000 0.00000000000000000 0.00000000000000000 1.00000000000000000 
1 -225.03351742592514029 203.21007150508830819 0.00000000000000000 0.00000000000000000 0.00000000000000000 1.00000000000000000 
1 -279.88763215238174098 181.58237468186462138 0.00000000000000000 0.93030135768395894 0.36679610670150625 0.00000000000000000 
6 0 1 -279.88763215238174098 181.58237468186462138 422.00000000000000000  -280.25442825908322675 182.51267603954858032 422.00000000000000000  
1 -280.25442825908322675 182.51267603954858032 0.00000000000000000 0.00000000000000000 0.00000000000000000 1.00000000000000000 
6 0 1 -279.88763215238174098 181.58237468186462138 0.00000000000000000  -280.25442825908322675 182.51267603954858032 0.00000000000000000  
1 -5.00000000000003730 245.02086815318455137 0.00000000000000000 0.00000000000000000 0.00000000000000000 1.00000000000000000 
2 -5.00000000000007372 -354.85877453065472764 0.00000000000000000 0.00000000000000000 0.00000000000000000 1.00000000000000000 1.00000000000000000 0.00000000000000000 -0.00000000000000000 -0.00000000000000000 1.00000000000000000 0.00000000000000000 599.87964268383927902
1 -280.25442825908322675 182.51267603954858032 0.00000000000000000 0.93030135768395894 0.36679610670150625 0.00000000000000000 
6 0 1 -225.03351742592514029 203.21007150508830819 0.00000000000000000  -225.40031353262662606 204.14037286277226713 0.00000000000000000  
6 0 1 -225.03351742592514029 203.21007150508830819 422.00000000000000000  -225.40031353262662606 204.14037286277226713 422.00000000000000000  
1 -280.25442825908322675 182.51267603954858032 422.00000000000000000 0.93030135768395894 0.36679610670150625 0.00000000000000000 
1 -225.40031353262662606 204.14037286277226713 0.00000000000000000 0.00000000000000000 0.00000000000000000 1.00000000000000000 
1 4.99999999999996270 245.02086815318455137 0.00000000000000000 0.00000000000000000 0.00000000000000000 1.00000000000000000 
1 -5.00000000000003730 245.02086815318455137 0.00000000000000000 1.00000000000000000 0.00000000000000000 0.00000000000000000 
2 -5.00000000000007372 -354.85877453065472764 0.00000000000000000 0.00000000000000000 0.00000000000000000 1.00000000000000000 1.00000000000000000 0.00000000000000000 -0.00000000000000000 -0.00000000000000000 1.00000000000000000 0.00000000000000000 600.87964268383927902
6 0 1 -5.00000000000003730 245.02086815318455137 0.00000000000000000  -5.00000000000003730 246.02086815318455137 0.00000000000000000  
7 0 0  1 2 2  -5.00000000000018652 245.02086815318457980 422.00000000000011369  -5.00000000000018563 246.02086815318455137 422.00000000000011369 
 0.00000000000000000 2 1.00000000000000000 2
2 -5.00000000000007372 -354.85877453065472764 422.00000000000000000 0.00000000000000000 0.00000000000000000 1.00000000000000000 1.00000000000000000 0.00000000000000000 -0.00000000000000000 -0.00000000000000000 1.00000000000000000 0.00000000000000000 600.87964268383927902
1 -5.00000000000003730 246.02086815318455137 0.00000000000000000 0.00000000000000000 0.00000000000000000 1.00000000000000000 
1 225.03351742592803930 203.21007150508739869 0.00000000000000000 0.00000000000000000 0.00000000000000000 1.00000000000000000 
2 4.99999999999992628 -354.85877453065984355 0.00000000000000000 0.00000000000000000 0.00000000000000000 1.00000000000000000 1.00000000000000000 0.00000000000000000 -0.00000000000000000 -0.00000000000000000 1.00000000000000000 0.00000000000000000 599.87964268384439492
1 -5.00000000000003730 246.02086815318455137 0.00000000000000000 1.00000000000000000 0.00000000000000000 0.00000000000000000 
6 0 1 4.99999999999996270 245.02086815318455137 0.00000000000000000  4.99999999999996270 246.02086815318455137 0.00000000000000000  
6 0 1 4.99999999999996270 245.02086815318455137 422.00000000000000000  4.99999999999996270 246.02086815318455137 422.00000000000000000  
1 -5.00000000000003730 246.02086815318455137 422.00000000000000000 1.00000000000000000 0.00000000000000000 0.00000000000000000 
1 4.99999999999996270 246.02086815318455137 0.00000000000000000 0.00000000000000000 0.00000000000000000 1.00000000000000000 
1 279.88763215238174098 181.58237468186462138 0.00000000000000000 0.00000000000000000 0.00000000000000000 1.00000000000000000 
1 279.88763215238174098 181.58237468186462138 0.00000000000000000 -0.93030135768395761 0.36679610670150969 0.00000000000000000 
2 0.00000000000000000 0.00000000000000000 0.00000000000000000 -0.36679610670151452 -0.93030135768395572 -0.00000000000000072 -0.00000000000000196 -0.00000000000000000 1.00000000000000000 -0.93030135768395572 0.36679610670151452 -0.00000000000000182 1.69999999999999996
2 4.99999999999992628 -354.85877453065984355 0.00000000000000000 0.00000000000000000 0.00000000000000000 1.00000000000000000 1.00000000000000000 0.00000000000000000 -0.00000000000000000 -0.00000000000000000 1.00000000000000000 0.00000000000000000 600.87964268384439492
6 0 1 225.03351742592803930 203.21007150508739869 0.00000000000000000  225.40031353262955349 204.14037286277141447 0.00000000000000000  
7 0 0  1 2 2  225.03351742592798246 203.21007150508754080 422.00000000000011369  225.40031353262941138 204.14037286277141447 422.00000000000011369 
 0.00000000000000000 2 1.00000000000000000 2
2 4.99999999999992628 -354.85877453065984355 422.00000000000000000 0.00000000000000000 0.00000000000000000 1.00000000000000000 1.00000000000000000 0.00000000000000000 -0.00000000000000000 -0.00000000000000000 1.00000000000000000 0.00000000000000000 600.87964268384439492
1 225.40031353262955349 204.14037286277141447 0.00000000000000000 0.00000000000000000 0.00000000000000000 1.00000000000000000 
6 0 1 279.88763215238174098 181.58237468186462138 0.00000000000000000  280.25442825908322675 182.51267603954858032 0.00000000000000000  
1 280.25442825908322675 182.51267603954858032 0.00000000000000000 0.00000000000000000 0.00000000000000000 1.00000000000000000 
6 0 1 279.88763215238174098 181.58237468186462138 422.00000000000000000  280.25442825908322675 182.51267603954858032 422.00000000000000000  
1 280.25442825908322675 182.51267603954858032 0.00000000000000000 -0.93030135768395761 0.36679610670150969 0.00000000000000000 
1 280.25442825908322675 182.51267603954858032 422.00000000000000000 -0.93030135768395761 0.36679610670150969 0.00000000000000000 
1 -0.00000000000000334 0.00000000000000000 1.69999999999999996 0.36679610670151452 0.93030135768395572 0.00000000000000066 
2 270.98508005914339947 186.16736363439738966 409.00000000000011369 0.36679610670151452 0.93030135768395572 0.00000000000000072 -0.00000000000000196 -0.00000000000000000 1.00000000000000000 0.93030135768395572 -0.36679610670151452 0.00000000000000182 1.69999999999999996
2 253.30935426314809433 193.13648966172615928 319.00000000000005684 0.36679610670151452 0.93030135768395572 0.00000000000000072 -0.00000000000000196 -0.00000000000000000 1.00000000000000000 0.93030135768395572 -0.36679610670151452 0.00000000000000182 1.69999999999999996
2 253.30935426314817960 193.13648966172610244 223.00000000000002842 0.36679610670151452 0.93030135768395572 0.00000000000000072 -0.00000000000000196 -0.00000000000000000 1.00000000000000000 0.93030135768395572 -0.36679610670151452 0.00000000000000182 1.69999999999999996
2 270.98508005914339947 186.16736363439741808 13.00000000000000355 0.36679610670151452 0.93030135768395572 0.00000000000000072 -0.00000000000000196 -0.00000000000000000 1.00000000000000000 0.93030135768395572 -0.36679610670151452 0.00000000000000182 1.69999999999999996
Polygon3D 0
PolygonOnTriangulations 0
Surfaces 37
1 -279.88763215238174098 181.58237468186462138 0.00000000000000000 -0.36679610670150625 0.93030135768395894 0.00000000000000000 0.93030135768395894 0.36679610670150625 0.00000000000000000 0.00000000000000000 0.00000000000000000 -1.00000000000000000 
2 -5.00000000000007372 -354.85877453065472764 0.00000000000000000 -0.00000000000000000 -0.00000000000000000 -1.00000000000000000 1.00000000000000000 0.00000000000000000 0.00000000000000000 -0.00000000000000000 1.00000000000000000 -0.00000000000000000 599.87964268383927902
1 -225.40031353262665448 204.14037286277221028 0.00000000000000000 -0.93030135768394862 -0.36679610670153251 0.00000000000000000 0.00000000000000000 0.00000000000000000 1.00000000000000000 -0.36679610670153251 0.93030135768394862 0.00000000000000000 
1 -225.40031353262662606 204.14037286277226713 0.00000000000000000 0.93030135768396593 0.36679610670148854 -0.00000000000000000 0.00000000000000000 -0.00000000000000000 -1.00000000000000000 -0.36679610670148854 0.93030135768396593 -0.00000000000000000 
1 -279.88763215238174098 181.58237468186462138 0.00000000000000000 -0.36679610670150625 0.93030135768395894 0.00000000000000000 0.93030135768395894 0.36679610670150625 0.00000000000000000 0.00000000000000000 0.00000000000000000 -1.00000000000000000 
1 -280.25442825908322675 182.51267603954858032 422.00000000000000000 0.00000000000000000 -0.00000000000000000 1.00000000000000000 0.93030135768395894 0.36679610670150625 0.00000000000000000 -0.36679610670150625 0.93030135768395894 0.00000000000000000 
1 -280.25442825908322675 182.51267603954858032 0.00000000000000000 0.00000000000000000 0.00000000000000000 -1.00000000000000000 -0.93030135768395894 -0.36679610670150625 -0.00000000000000000 -0.36679610670150625 0.93030135768395894 0.00000000000000000 
1 -280.25442825908322675 182.51267603954858032 0.00000000000000000 -0.93030135768396593 -0.36679610670148854 0.00000000000000000 0.00000000000000000 0.00000000000000000 1.00000000000000000 -0.36679610670148854 0.93030135768396593 0.00000000000000000 
1 -280.25442825908322675 182.51267603954858032 0.00000000000000000 -0.36679610670150625 0.93030135768395894 0.00000000000000000 0.93030135768395894 0.36679610670150625 0.00000000000000000 0.00000000000000000 0.00000000000000000 -1.00000000000000000 
1 -5.00000000000003730 245.02086815318455137 0.00000000000000000 0.00000000000000000 1.00000000000000000 0.00000000000000000 1.00000000000000000 0.00000000000000000 0.00000000000000000 0.00000000000000000 0.00000000000000000 -1.00000000000000000 
1 -5.00000000000003730 246.02086815318455137 0.00000000000000000 -1.00000000000000000 0.00000000000000000 0.00000000000000000 0.00000000000000000 0.00000000000000000 1.00000000000000000 0.00000000000000000 1.00000000000000000 -0.00000000000000000 
1 -5.00000000000003730 246.02086815318455137 0.00000000000000000 1.00000000000000000 0.00000000000000000 0.00000000000000000 0.00000000000000000 0.00000000000000000 -1.00000000000000000 -0.00000000000000000 1.00000000000000000 0.00000000000000000 
2 -5.00000000000007372 -354.85877453065472764 0.00000000000000000 -0.00000000000000000 -0.00000000000000000 -1.00000000000000000 1.00000000000000000 0.00000000000000000 0.00000000000000000 -0.00000000000000000 1.00000000000000000 -0.00000000000000000 599.87964268383927902
9 0 0 0 0 6 1 7 2 2 2 -225.03351742592539608 203.21007150508816608 422.00000000000000000  -225.40031353262691027 204.14037286277206817 422.00000000000000000  
-190.10187309377181464 216.98280335793012341 422.00000000000017053  -190.41043811235741146 217.93606387420678061 422.00000000000017053  
-154.13572455983151599 228.13173022111533328 421.99999999999948841  -154.38433397070008368 229.10357601028613317 421.99999999999948841  
-117.38141724314364467 236.55972288381900626 421.99999999999954525  -117.56875718477003545 237.54561814568967293 421.99999999999954525  
-80.09748034970502317 242.20048669542822495 422.00000000000119371  -80.22266792902296118 243.19578511654944464 422.00000000000119371  
-42.54874057060244041 245.02086815318429558 421.99999999999920419  -42.61133436092106308 246.02086815318438084 421.99999999999920419  
-5.00000000000018652 245.02086815318457980 422.00000000000011369  -5.00000000000018563 246.02086815318455137 422.00000000000011369  

4.33682623847255755 7
4.71238898038468967 7

0.00000000000000000 2
1.00000000000000000 2

9 0 0 0 0 6 1 7 2 2 2 -5.00000000000002842 245.02086815318455137 0.00000000000000000  -5.00000000000004263 246.02086815318455137 0.00000000000000000  
-42.54874057060199277 245.02086815318426716 0.00000000000000000  -42.61133436092067228 246.02086815318409663 0.00000000000000000  
-80.09748034970526476 242.20048669542819653 0.00000000000000000  -80.22266792902304644 243.19578511655006992 0.00000000000000000  
-117.38141724314243675 236.55972288381929047 0.00000000000000000  -117.56875718476905490 237.54561814568927502 0.00000000000000000  
-154.13572455983251075 228.13173022111527644 0.00000000000000000  -154.38433397070099318 229.10357601028655949 0.00000000000000000  
-190.10187309377161569 216.98280335793032236 0.00000000000000000  -190.41043811235721250 217.93606387420680903 0.00000000000000000  
-225.03351742592514029 203.21007150508830819 0.00000000000000000  -225.40031353262665448 204.14037286277221028 0.00000000000000000  

1.57079632679489656 7
1.94635906870702846 7

0.00000000000000000 2
1.00000000000000000 2

2 -5.00000000000007372 -354.85877453065472764 0.00000000000000000 -0.00000000000000000 -0.00000000000000000 -1.00000000000000000 1.00000000000000000 0.00000000000000000 0.00000000000000000 -0.00000000000000000 1.00000000000000000 -0.00000000000000000 600.87964268383927902
2 4.99999999999992628 -354.85877453065984355 0.00000000000000000 -0.00000000000000000 -0.00000000000000000 -1.00000000000000000 1.00000000000000000 0.00000000000000000 0.00000000000000000 -0.00000000000000000 1.00000000000000000 -0.00000000000000000 599.87964268384439492
1 4.99999999999996270 246.02086815318455137 0.00000000000000000 -1.00000000000000000 0.00000000000000000 0.00000000000000000 0.00000000000000000 0.00000000000000000 1.00000000000000000 0.00000000000000000 1.00000000000000000 -0.00000000000000000 
1 4.99999999999996270 246.02086815318455137 0.00000000000000000 1.00000000000000000 0.00000000000000000 0.00000000000000000 0.00000000000000000 0.00000000000000000 -1.00000000000000000 -0.00000000000000000 1.00000000000000000 0.00000000000000000 
1 -5.00000000000003730 245.02086815318455137 0.00000000000000000 0.00000000000000000 1.00000000000000000 0.00000000000000000 1.00000000000000000 0.00000000000000000 0.00000000000000000 0.00000000000000000 0.00000000000000000 -1.00000000000000000 
1 -5.00000000000003730 246.02086815318455137 422.00000000000000000 0.00000000000000000 0.00000000000000000 1.00000000000000000 1.00000000000000000 0.00000000000000000 -0.00000000000000000 -0.00000000000000000 1.00000000000000000 0.00000000000000000 
1 -5.00000000000003730 246.02086815318455137 0.00000000000000000 0.00000000000000000 0.00000000000000000 -1.00000000000000000 -1.00000000000000000 -0.00000000000000000 -0.00000000000000000 -0.00000000000000000 1.00000000000000000 0.00000000000000000 
1 -5.00000000000003730 246.02086815318455137 0.00000000000000000 0.00000000000000000 1.00000000000000000 0.00000000000000000 1.00000000000000000 0.00000000000000000 0.00000000000000000 0.00000000000000000 0.00000000000000000 -1.00000000000000000 
1 279.88763215238174098 181.58237468186462138 0.00000000000000000 -0.36679610670150969 -0.93030135768395761 0.00000000000000000 -0.93030135768395761 0.36679610670150969 0.00000000000000000 -0.00000000000000000 0.00000000000000000 -1.00000000000000000 
1 225.40031353262952507 204.14037286277135763 0.00000000000000000 -0.93030135768396593 0.36679610670148854 0.00000000000000000 0.00000000000000000 0.00000000000000000 1.00000000000000000 0.36679610670148854 0.93030135768396593 -0.00000000000000000 
1 225.40031353262955349 204.14037286277141447 0.00000000000000000 0.93030135768396394 -0.36679610670149376 0.00000000000000000 0.00000000000000000 -0.00000000000000000 -1.00000000000000000 0.36679610670149376 0.93030135768396394 0.00000000000000000 
2 4.99999999999992628 -354.85877453065984355 0.00000000000000000 -0.00000000000000000 -0.00000000000000000 -1.00000000000000000 1.00000000000000000 0.00000000000000000 0.00000000000000000 -0.00000000000000000 1.00000000000000000 -0.00000000000000000 599.87964268384439492
9 0 0 0 0 6 1 7 2 2 2 4.99999999999979217 245.02086815318443769 421.99999999999977263  4.99999999999979305 246.02086815318440927 421.99999999999977263  
42.54874057060255410 245.02086815318475033 422.00000000000028422  42.61133436092134019 246.02086815318463664 422.00000000000028422  
80.09748034970452579 242.20048669542796915 421.99999999999931788  80.22266792902217958 243.19578511654927411 421.99999999999931788  
117.38141724314485259 236.55972288381897783 421.99999999999988631  117.56875718477147075 237.54561814568936029 421.99999999999988631  
154.13572455983415921 228.13173022111541854 422.00000000000039790  154.38433397070258479 229.10357601028627528 422.00000000000039790  
190.10187309377383258 216.98280335792952656 421.99999999999971578  190.41043811235951466 217.93606387420626902 421.99999999999971578  
225.03351742592798246 203.21007150508754080 422.00000000000011369  225.40031353262941138 204.14037286277141447 422.00000000000011369  

4.71238898038468967 7
5.08795172229682358 7

0.00000000000000000 2
1.00000000000000000 2

9 0 0 0 0 6 1 7 2 2 2 225.03351742592801088 203.21007150508739869 0.00000000000000000  225.40031353262952507 204.14037286277138605 0.00000000000000000  
190.10187309377394627 216.98280335792966866 0.00000000000000000  190.41043811235945782 217.93606387420658166 0.00000000000000000  
154.13572455983418763 228.13173022111539012 0.00000000000000000  154.38433397070264164 229.10357601028528052 0.00000000000000000  
117.38141724314424152 236.55972288381869362 0.00000000000000000  117.56875718477078863 237.54561814569078138 0.00000000000000000  
80.09748034970587582 242.20048669542859443 0.00000000000000000  80.22266792902377119 243.19578511654830777 0.00000000000000000  
42.54874057060258963 245.02086815318429558 0.00000000000000000  42.61133436092119098 246.02086815318497770 0.00000000000000000  
4.99999999999995737 245.02086815318457980 0.00000000000000000  4.99999999999994316 246.02086815318452295 0.00000000000000000  

1.19523358488276266 7
1.57079632679489656 7

0.00000000000000000 2
1.00000000000000000 2

2 4.99999999999992628 -354.85877453065984355 0.00000000000000000 -0.00000000000000000 -0.00000000000000000 -1.00000000000000000 1.00000000000000000 0.00000000000000000 0.00000000000000000 -0.00000000000000000 1.00000000000000000 -0.00000000000000000 600.87964268384439492
1 279.88763215238174098 181.58237468186462138 0.00000000000000000 -0.36679610670150969 -0.93030135768395761 0.00000000000000000 -0.93030135768395761 0.36679610670150969 0.00000000000000000 -0.00000000000000000 0.00000000000000000 -1.00000000000000000 
1 280.25442825908322675 182.51267603954858032 422.00000000000000000 0.00000000000000000 -0.00000000000000000 1.00000000000000000 0.93030135768395761 -0.36679610670150969 -0.00000000000000000 0.36679610670150969 0.93030135768395761 0.00000000000000000 
1 280.25442825908322675 182.51267603954858032 0.00000000000000000 0.00000000000000000 0.00000000000000000 -1.00000000000000000 -0.93030135768395761 0.36679610670150969 0.00000000000000000 0.36679610670150969 0.93030135768395761 0.00000000000000000 
1 0.00000000000000000 0.00000000000000000 0.00000000000000000 -0.36679610670151452 -0.93030135768395572 -0.00000000000000072 0.00000000000000196 0.00000000000000000 -1.00000000000000000 -0.93030135768395572 0.36679610670151452 -0.00000000000000182 
2 0.00000000000000000 0.00000000000000000 0.00000000000000000 0.36679610670151452 0.93030135768395572 0.00000000000000072 -0.00000000000000196 -0.00000000000000000 1.00000000000000000 -0.93030135768395572 0.36679610670151452 -0.00000000000000182 1.69999999999999996
1 280.25442825908322675 182.51267603954858032 0.00000000000000000 -0.36679610670150969 -0.93030135768395761 0.00000000000000000 -0.93030135768395761 0.36679610670150969 0.00000000000000000 -0.00000000000000000 0.00000000000000000 -1.00000000000000000 
1 280.25442825908322675 182.51267603954858032 0.00000000000000000 0.93030135768396593 -0.36679610670148854 0.00000000000000000 0.00000000000000000 -0.00000000000000000 -1.00000000000000000 0.36679610670148854 0.93030135768396593 0.00000000000000000 
Triangulations 0

TShapes 133
Ve
0.000000102469508
-279.887632152381741 181.582374681864621 0.000000000000000
0 0

0101101
*
Ed
 0.000000102469508 1 1 0
1  1 0 0.000000000000000 422.000000000000000
2  1 1 0 0.000000000000000 422.000000000000000
0

0101000
+133 0 -133 5 *
Ve
0.000000102469508
-225.033517425925140 203.210071505088308 0.000000000000000
0 0

0101101
*
Ed
 0.000000100000000 1 1 0
1  2 0 0.000000000000000 422.000000000000000
2  2 2 0 0.000000000000000 422.000000000000000
4 G1 1 0 2 0
2  3 3 0 0.000000000000000 422.000000000000000
2  4 4 0 0.000000000000000 422.000000000000000
2  5 1 0 0.000000000000000 422.000000000000000
0

0101000
+131 0 -131 5 *
Ed
 0.000000100000000 1 1 0
2  6 5 0 0.000000000000000 58.963812396253203
1  3 0 0.000000000000000 58.963812396253203
2  7 6 6 0.000000000000000 58.963812396253203
2  8 7 0 0.000000000000000 58.963812396253203
2  9 1 0 0.000000000000000 58.963812396253203
2  10 1 6 0.000000000000000 58.963812396253203
0

0101000
+133 0 -131 0 *
Wi

0101100
+132 0 -130 0 -129 0 +129 5 *
Fa
0  0.000000100000000 1 0

0101000
+128 0 *
Ve
0.000000102469508
-280.254428259083227 182.512676039548580 422.000000000000000
0 0

0101101
*
Ed
 0.000000100000000 1 1 0
1  4 0 0.000000000000000 1.000000000000000
4 C0 8 0 6 0
2  11 6 0 0.000000000000000 1.000000000000000
0

0101000
+133 5 -126 0 *
Ve
0.000000102469508
-280.254428259083227 182.512676039548580 0.000000000000000
0 0

0101101
*
Ed
 0.000000100000000 1 1 0
2  12 9 0 0.000000000000000 422.000000000000000
1  5 0 0.000000000000000 422.000000000000000
0

0101000
+124 0 -126 0 *
Ed
 0.000000100000000 1 1 0
1  6 0 0.000000000000000 1.000000000000000
4 C0 8 0 7 0
2  13 7 0 0.000000000000000 1.000000000000000
0

0101000
+133 0 -124 0 *
Wi

0101000
+132 0 +125 0 -123 0 -122 0 *
Fa
0  0.000000100000000 8 0

0101000
+121 0 *
Ve
0.000000102469508
-5.000000000000037 245.020868153184551 0.000000000000000
0 0

0101101
*
Ed
 0.000000100000000 1 1 0
1  7 0 0.000000000000000 422.000000000000000
2  14 2 0 0.000000000000000 422.000000000000000
4 G1 2 0 10 0
2  15 11 0 0.000000000000000 422.000000000000000
2  16 12 0 0.000000000000000 422.000000000000000
2  17 10 0 0.000000000000000 422.000000000000000
0

0101000
+119 0 -119 5 *
Ed
 0.000000100000000 1 1 0
2  18 13 0 1.570796326794897 1.946359068707028
1  8 0 1.570796326794897 1.946359068707028
2  19 2 0 1.570796326794897 1.946359068707028
2  20 2 6 1.570796326794897 1.946359068707028
2  21 14 6 1.570796326794897 1.946359068707028
2  22 15 0 1.570796326794897 1.946359068707028
0

0101000
+119 0 -131 0 *
Wi

0101100
+118 0 -130 0 -117 0 +117 5 *
Fa
0  0.000000100000000 2 0

0101000
+116 0 *
Ve
0.000000102469539
-225.400313532626626 204.140372862772239 0.000000000000000
0 0

0101101
*
Ed
 0.000000100000000 1 1 0
2  23 9 0 0.000000000000000 58.963812396253203
1  9 0 0.000000000000000 58.963812396253203
2  24 7 0 0.000000000000000 58.963812396253203
0

0101000
+124 0 -114 0 *
Ed
 0.000000100000064 1 1 0
1  10 0 0.000000000000000 1.000000000000000
4 C0 4 0 7 0
2  25 4 0 0.000000000000000 1.000000000000000
2  26 7 0 0.000000000000000 1.000000000000000
2  27 15 0 0.000000000000000 1.000000000000000
0

0101000
+131 0 -114 0 *
Wi

0101100
-129 0 +122 0 +113 0 -112 0 *
Fa
0  0.000000100000000 7 0

0101000
+111 0 *
Ve
0.000000102469539
-225.400313532626626 204.140372862772239 422.000000000000000
0 0

0101101
*
Ed
 0.000000100000064 1 1 0
1  11 0 0.000000000000000 1.000000000000000
4 C0 6 0 4 0
2  28 6 0 0.000000000000000 1.000000000000000
2  29 4 0 0.000000000000000 1.000000000000000
2  30 14 0 0.000000000000000 1.000000000000000
0

0101000
+131 5 -109 0 *
Ed
 0.000000100000000 1 1 0
2  31 9 0 0.000000000000000 58.963812396253203
1  12 0 0.000000000000000 58.963812396253203
2  32 6 0 0.000000000000000 58.963812396253203
0

0101000
+126 0 -109 0 *
Wi

0101100
+129 5 +108 0 -107 0 -125 0 *
Fa
0  0.000000100000000 6 0

0101000
+106 0 *
Ed
 0.000000100000064 1 1 0
2  33 9 0 0.000000000000000 422.000000000000000
1  13 0 0.000000000000000 422.000000000000000
2  34 4 0 0.000000000000000 422.000000000000000
2  35 16 0 0.000000000000000 422.000000000000000
0

0101000
+114 0 -109 0 *
Wi

0101100
+123 0 -104 0 -113 0 +107 0 *
Fa
0  0.000000100000000 9 0

0101000
+103 0 *
Ve
0.000000102469508
4.999999999999963 245.020868153184551 0.000000000000000
0 0

0101101
*
Ed
 0.000000100000000 1 1 0
1  14 0 0.000000000000000 422.000000000000000
2  36 17 0 0.000000000000000 422.000000000000000
4 G1 10 0 17 0
2  37 18 0 0.000000000000000 422.000000000000000
2  38 19 0 0.000000000000000 422.000000000000000
2  39 10 0 0.000000000000000 422.000000000000000
0

0101000
+101 0 -101 5 *
Ed
 0.000000100000000 1 1 0
2  40 20 0 0.000000000000000 10.000000000000000
1  15 0 0.000000000000000 10.000000000000000
2  41 21 6 0.000000000000000 10.000000000000000
2  42 22 0 0.000000000000000 10.000000000000000
2  43 10 0 0.000000000000000 10.000000000000000
2  44 10 6 0.000000000000000 10.000000000000000
0

0101000
+119 0 -101 0 *
Wi

0101100
+118 0 -100 0 -99 0 +99 5 *
Fa
0  0.000000100000000 10 0

0101000
+98 0 *
Ve
0.000000102469508
-5.000000000000037 246.020868153184551 0.000000000000000
0 0

0101101
*
Ed
 0.000000100000000 1 1 0
2  19 16 0 1.570796326794897 1.946359068707028
1  16 0 1.570796326794897 1.946359068707028
2  45 15 0 1.570796326794897 1.946359068707028
0

0101000
+96 0 -114 0 *
Ed
 0.000000100000000 1 1 0
1  17 0 0.000000000000000 1.000000000000000
2  46 15 0 0.000000000000000 1.000000000000000
4 C0 12 0 15 0
2  47 12 0 0.000000000000000 1.000000000000000
0

0101000
+119 0 -96 0 *
Wi

0101100
+117 0 +112 0 -95 0 -94 0 *
Fa
0  0.000000100000000 15 0

0101000
+93 0 *
Ve
0.000000102469508
-5.000000000000037 246.020868153184551 422.000000000000000
0 0

0101101
*
Ed
 0.000000100000188 1 1 0
1  18 0 0.000000000000000 1.000000000000000
2  48 14 0 0.000000000000000 1.000000000000000
4 C0 14 0 12 0
2  49 12 0 0.000000000000000 1.000000000000000
0

0101000
+119 5 -91 0 *
Ed
 0.000000100000000 1 1 0
2  20 16 0 1.570796326794897 1.946359068707028
1  19 0 1.570796326794897 1.946359068707028
2  50 14 0 1.570796326794897 1.946359068707028
0

0101000
+91 0 -109 0 *
Wi

0101100
-117 5 +90 0 +89 0 -108 0 *
Fa
0  0.000000100000000 14 0

0101000
+88 0 *
Ed
 0.000000100000000 1 1 0
2  14 16 0 0.000000000000000 422.000000000000000
1  20 0 0.000000000000000 422.000000000000000
2  51 12 0 0.000000000000000 422.000000000000000
2  52 23 0 0.000000000000000 422.000000000000000
0

0101000
+96 0 -91 0 *
Wi

0101100
+86 0 -104 0 -95 0 +89 0 *
Fa
0  0.000000100000000 16 0

0101000
+85 0 *
Ve
0.000000102469508
225.033517425928039 203.210071505087399 0.000000000000000
0 0

0101101
*
Ed
 0.000000100000000 1 1 0
1  21 0 0.000000000000000 422.000000000000000
2  53 17 0 0.000000000000000 422.000000000000000
4 G1 17 0 24 0
2  54 25 0 0.000000000000000 422.000000000000000
2  55 26 0 0.000000000000000 422.000000000000000
2  56 24 0 0.000000000000000 422.000000000000000
0

0101000
+83 0 -83 5 *
Ed
 0.000000100000000 1 1 0
2  57 27 0 1.195233584882763 1.570796326794897
1  22 0 1.195233584882763 1.570796326794897
2  58 17 0 1.195233584882763 1.570796326794897
2  59 17 6 1.195233584882763 1.570796326794897
2  60 28 6 1.195233584882763 1.570796326794897
2  61 29 0 1.195233584882763 1.570796326794897
0

0101000
+83 0 -101 0 *
Wi

0101100
+82 0 -100 0 -81 0 +81 5 *
Fa
0  0.000000100000000 17 0

0101000
+80 0 *
Ve
0.000000102469508
4.999999999999963 246.020868153184551 0.000000000000000
0 0

0101101
*
Ed
 0.000000100000000 1 1 0
2  62 23 0 0.000000000000000 10.000000000000000
1  23 0 0.000000000000000 10.000000000000000
2  63 22 0 0.000000000000000 10.000000000000000
0

0101000
+96 0 -78 0 *
Ed
 0.000000100000000 1 1 0
1  24 0 0.000000000000000 1.000000000000000
4 C0 19 0 22 0
2  64 22 0 0.000000000000000 1.000000000000000
2  65 19 0 0.000000000000000 1.000000000000000
2  66 29 0 0.000000000000000 1.000000000000000
0

0101000
+101 0 -78 0 *
Wi

0101100
-99 0 +94 0 +77 0 -76 0 *
Fa
0  0.000000100000000 22 0

0101000
+75 0 *
Ve
0.000000102469508
4.999999999999963 246.020868153184551 422.000000000000000
0 0

0101101
*
Ed
 0.000000100000000 1 1 0
1  25 0 0.000000000000000 1.000000000000000
4 C0 21 0 19 0
2  67 21 0 0.000000000000000 1.000000000000000
2  68 19 0 0.000000000000000 1.000000000000000
2  69 28 0 0.000000000000000 1.000000000000000
0

0101000
+101 5 -73 0 *
Ed
 0.000000100000000 1 1 0
2  70 23 0 0.000000000000000 10.000000000000000
1  26 0 0.000000000000000 10.000000000000000
2  71 21 0 0.000000000000000 10.000000000000000
0

0101000
+91 0 -73 0 *
Wi

0101100
+99 5 +72 0 -71 0 -90 0 *
Fa
0  0.000000100000000 21 0

0101000
+70 0 *
Ed
 0.000000100000000 1 1 0
2  72 23 0 0.000000000000000 422.000000000000000
1  27 0 0.000000000000000 422.000000000000000
2  73 19 0 0.000000000000000 422.000000000000000
2  74 30 0 0.000000000000000 422.000000000000000
0

0101000
+78 0 -73 0 *
Wi

0101100
+86 0 -68 0 -77 0 +71 0 *
Fa
0  0.000000100000000 23 0

0101000
+67 0 *
Ve
0.000000102469508
279.887632152381741 181.582374681864621 0.000000000000000
0 0

0101101
*
Ed
 0.000000102469508 1 1 0
1  28 0 0.000000000000000 422.000000000000000
2  75 24 0 0.000000000000000 422.000000000000000
0

0101000
+65 0 -65 5 *
Ed
 0.000000100000000 1 1 0
2  76 31 0 0.000000000000000 58.963812396250169
1  29 0 0.000000000000000 58.963812396250169
2  77 32 6 0.000000000000000 58.963812396250169
2  78 33 0 0.000000000000000 58.963812396250169
2  79 24 0 0.000000000000000 58.963812396250169
2  80 24 6 0.000000000000000 58.963812396250169
0

0101000
+65 0 -83 0 *
Wi

0101100
+64 4 -63 4 +63 7 -82 4 *
Ve
0.000000100000306
-0.000000000000003 0.000000000000000 1.700000000000000
0 0

0101101
*
Ed
 0.000000100000306 1 1 0
1  30 0 0.000000000000000 6.283185307179586
2  81 34 0 0.000000000000000 6.283185307179586
2  82 35 0 0.000000000000000 6.283185307179586
2  83 24 10 0.000000000000000 6.283185307179586
2  84 24 12 0.000000000000000 6.283185307179586
2  85 24 13 0.000000000000000 6.283185307179586
2  86 24 15 0.000000000000000 6.283185307179586
0

0101000
+61 0 -61 0 *
Wi

0101100
-60 8 *
Wi

0101100
-60 11 *
Wi

0101100
-60 9 *
Wi

0101100
-60 14 *
Fa
0  0.000000100000000 24 4

0101000
+62 0 +59 0 +58 0 +57 0 +56 0 *
Ve
0.000000102469539
225.400313532629525 204.140372862771386 0.000000000000000
0 0

0101101
*
Ed
 0.000000100000000 1 1 0
2  58 30 0 1.195233584882763 1.570796326794897
1  31 0 1.195233584882763 1.570796326794897
2  87 29 0 1.195233584882763 1.570796326794897
0

0101000
+54 0 -78 0 *
Ed
 0.000000100000028 1 1 0
1  32 0 0.000000000000000 1.000000000000000
2  88 29 0 0.000000000000000 1.000000000000000
4 C0 26 0 29 0
2  89 26 0 0.000000000000000 1.000000000000000
0

0101000
+83 0 -54 0 *
Wi

0101100
+81 0 +76 0 -53 0 -52 0 *
Fa
0  0.000000100000000 29 0

0101000
+51 0 *
Ve
0.000000102469539
225.400313532629525 204.140372862771386 422.000000000000000
0 0

0101101
*
Ed
 0.000000100000171 1 1 0
1  33 0 0.000000000000000 1.000000000000000
2  90 28 0 0.000000000000000 1.000000000000000
4 C0 28 0 26 0
2  91 26 0 0.000000000000000 1.000000000000000
0

0101000
+83 5 -49 0 *
Ed
 0.000000100000000 1 1 0
2  59 30 0 1.195233584882763 1.570796326794897
1  34 0 1.195233584882763 1.570796326794897
2  92 28 0 1.195233584882763 1.570796326794897
0

0101000
+49 0 -73 0 *
Wi

0101100
-81 5 +48 0 +47 0 -72 0 *
Fa
0  0.000000100000000 28 0

0101000
+46 0 *
Ed
 0.000000100000064 1 1 0
2  53 30 0 0.000000000000000 422.000000000000000
1  35 0 0.000000000000000 422.000000000000000
2  93 26 0 0.000000000000000 422.000000000000000
2  94 36 0 0.000000000000000 422.000000000000000
0

0101000
+54 0 -49 0 *
Wi

0101100
+44 0 -68 0 -53 0 +47 0 *
Fa
0  0.000000100000000 30 0

0101000
+43 0 *
Ve
0.000000102469508
280.254428259083227 182.512676039548580 0.000000000000000
0 0

0101101
*
Ed
 0.000000100000000 1 1 0
1  36 0 0.000000000000000 1.000000000000000
4 C0 37 0 33 0
2  95 33 0 0.000000000000000 1.000000000000000
0

0101000
+65 0 -41 0 *
Ve
0.000000102469508
280.254428259083227 182.512676039548580 422.000000000000000
0 0

0101101
*
Ed
 0.000000100000000 1 1 0
2  96 36 0 0.000000000000000 422.000000000000000
1  37 0 0.000000000000000 422.000000000000000
0

0101000
+41 0 -39 0 *
Ed
 0.000000100000000 1 1 0
1  38 0 0.000000000000000 1.000000000000000
4 C0 32 0 37 0
2  97 32 0 0.000000000000000 1.000000000000000
0

0101000
+65 5 -39 0 *
Wi

0101000
-64 0 +40 0 +38 0 -37 0 *
Fa
0  0.000000100000000 37 0

0101000
+36 0 *
Ed
 0.000000100000000 1 1 0
2  98 36 0 0.000000000000000 58.963812396250169
1  39 0 0.000000000000000 58.963812396250169
2  99 33 0 0.000000000000000 58.963812396250169
0

0101000
+41 0 -54 0 *
Wi

0101100
+63 0 +52 0 -34 0 -40 0 *
Fa
0  0.000000100000000 33 0

0101000
+33 0 *
Ed
 0.000000100000000 1 1 0
2  100 36 0 0.000000000000000 58.963812396250169
1  40 0 0.000000000000000 58.963812396250169
2  101 32 0 0.000000000000000 58.963812396250169
0

0101000
+39 0 -49 0 *
Wi

0101100
-63 5 +37 0 +31 0 -48 0 *
Fa
0  0.000000100000000 32 0

0101000
+30 0 *
Ve
0.000000100000000
270.985080059143399 186.167363634397390 410.700000000000102
0 0

0101101
*
Ed
 0.000000100000000 1 1 0
1  41 0 0.000000000000000 1.000000000000272
3  102 103CN 35 0 0.000000000000000 1.000000000000272
0

0101000
+61 0 -28 16 *
Ed
 0.000000100000000 1 1 0
1  42 0 0.000000000000000 6.283185307179586
2  104 36 4 0.000000000000000 6.283185307179586
2  105 35 8 0.000000000000000 6.283185307179586
0

0101100
+28 0 -28 0 *
Wi

0101100
-27 8 +26 0 +27 8 +60 8 *
Fa
0  0.000000100000000 35 8

0101000
+25 0 *
Ve
0.000000100000000
253.309354263148094 193.136489661726159 320.700000000000045
0 0

0101101
*
Ed
 0.000000100000000 1 1 0
1  41 0 0.000000000000000 1.000000000000066
3  102 103CN 35 0 0.000000000000000 1.000000000000066
0

0101000
+61 0 -23 17 *
Ed
 0.000000100000000 1 1 0
1  43 0 0.000000000000000 6.283185307179586
2  106 36 4 0.000000000000000 6.283185307179586
2  107 35 11 0.000000000000000 6.283185307179586
0

0101100
+23 0 -23 0 *
Wi

0101100
-22 11 +21 0 +22 11 +60 11 *
Fa
0  0.000000100000000 35 11

0101000
+20 0 *
Ve
0.000000100000000
253.309354263148180 193.136489661726102 224.700000000000017
0 0

0101101
*
Ed
 0.000000100000000 1 1 0
1  41 0 0.000000000000000 1.000000000000003
3  102 103CN 35 0 0.000000000000000 1.000000000000003
0

0101000
+61 0 -18 18 *
Ed
 0.000000100000000 1 1 0
1  44 0 0.000000000000000 6.283185307179586
2  108 36 4 0.000000000000000 6.283185307179586
2  109 35 9 0.000000000000000 6.283185307179586
0

0101100
+18 0 -18 0 *
Wi

0101100
-17 9 +16 0 +17 9 +60 9 *
Fa
0  0.000000100000000 35 9

0101000
+15 0 *
Ve
0.000000100000002
270.985080059143399 186.167363634397418 14.700000000000003
0 0

0101101
*
Ed
 0.000000100000000 1 1 0
1  41 0 0.000000000000000 0.999999999999940
3  102 103CN 35 0 0.000000000000000 0.999999999999940
0

0101000
+61 0 -13 19 *
Ed
 0.000000100000000 1 1 0
1  45 0 0.000000000000000 6.283185307179586
2  110 36 4 0.000000000000000 6.283185307179586
2  111 35 14 0.000000000000000 6.283185307179586
0

0101100
+13 0 -13 0 *
Wi

0101100
-12 14 +11 0 +12 14 +60 14 *
Fa
0  0.000000100000000 35 14

0101000
+10 0 *
Wi

0101100
+38 4 -34 4 +31 4 -44 4 *
Wi

0101100
+26 0 *
Wi

0101100
+21 0 *
Wi

0101100
+16 0 *
Wi

0101100
+11 0 *
Fa
0  0.000000100000000 36 4

0101000
+8 0 +7 0 +6 0 +5 0 +4 0 *
Sh

0101100
-127 4 +120 4 +115 4 +110 4 +105 4 +102 4 -97 4 +92 4 +87 4 -84 4 
+79 4 +74 4 +69 4 +66 4 +55 0 +50 4 +45 4 -42 4 +35 4 +32 4 
+29 4 +24 0 +19 0 +14 0 +9 0 -3 0 *
So

0100000
+2 0 *

+1 1 