
CASCADE Topology V1, (c) Matra-Datavision
Locations 11
1
1.000000000000000 0.000000000000000 0.000000000000000 0.000000000000000 
0.000000000000000 1.000000000000000 0.000000000000000 0.000000000000000 
0.000000000000000 0.000000000000000 1.000000000000000 0.000000000000000 
1
1.000000000000000 0.000000000000000 0.000000000000000 0.000000000000000 
0.000000000000000 1.000000000000000 0.000000000000000 0.000000000000000 
0.000000000000000 0.000000000000000 1.000000000000000 0.000000000000000 
1
1.000000000000000 0.000000000000000 0.000000000000000 0.000000000000000 
0.000000000000000 1.000000000000000 0.000000000000000 0.000000000000000 
0.000000000000000 0.000000000000000 1.000000000000000 0.000000000000000 
2  2 1 3 -1 0
1
1.000000000000000 0.000000000000000 0.000000000000000 -0.000000000000000 
0.000000000000000 1.000000000000000 0.000000000000000 1060.000000000000000 
0.000000000000000 0.000000000000000 1.000000000000000 0.000000000000235 
1
1.000000000000000 0.000000000000000 0.000000000000000 0.000000000000000 
0.000000000000000 1.000000000000000 0.000000000000000 -1060.000000000000000 
0.000000000000000 0.000000000000000 1.000000000000000 -0.000000000000235 
2  5 1 6 1 0
2  5 1 2 1 3 -1 0
2  6 -1 5 -1 0
2  5 -1 0
2  5 1 6 1 2 1 3 -1 0
Curve2ds 105
1 1.57079632679489656 0.00000000000000000 0.00000000000000000 -1.00000000000000000 
1 0.00000000000000000 -0.29999999999999893 1.00000000000000000 0.00000000000000000 
1 0.00000000000000000 -0.30000000000000071 -1.00000000000000000 0.00000000000000000 
1 0.00000000000000000 0.00000000000000000 0.00000000000000000 -1.00000000000000000 
1 0.00000000000000000 0.00000000000000000 1.00000000000000000 0.00000000000000000 
1 0.00000000000000000 -0.30000000000000071 -1.00000000000000000 0.00000000000000000 
1 0.00000000000000000 -0.30000000000000071 1.00000000000000000 0.00000000000000000 
1 -0.39999999999999991 0.00000000000000009 1.00000000000000000 0.00000000000000000 
1 -0.39999999999999991 -1060.00000000000000000 1.00000000000000000 0.00000000000000000 
1 9.60000000000000142 -0.00000000000000213 0.00000000000000000 -1.00000000000000000 
2 4.29999999999997318 -980.00000000000000000 0.00000000000000044 1.00000000000000000 -1.00000000000000000 0.00000000000000044 1.69999999999999996
1 0.00000000000000000 -1054.90071331022340928 1.00000000000000000 0.00000000000000000 
1 0.00000000000000000 0.00000000000000000 0.00000000000000000 -1.00000000000000000 
1 -0.00000000000000007 -0.29999999999999999 1.00000000000000000 0.00000000000000000 
1 0.00000000000000007 -0.29999999999999988 -1.00000000000000000 0.00000000000000000 
1 31.70000000000000284 0.00000000000000000 0.00000000000000000 -1.00000000000000000 
1 0.00000000000000000 1060.00000000000000000 1.00000000000000000 0.00000000000000000 
1 0.00000000000000000 0.00000000000000000 1.00000000000000000 0.00000000000000000 
1 0.00000000000000000 -1060.00000000000000000 1.00000000000000000 0.00000000000000000 
1 6.28318530717958623 0.00000000000000000 -1.00000000000000000 0.00000000000000000 
1 0.00000000000000000 0.00000000000000000 1.00000000000000000 0.00000000000000000 
6 0 1 10.00000000000000000 -0.30000000000000071  10.00000000000000000 0.00000000000000000  
1 -0.39999999999999991 0.00000000000000009 1.00000000000000000 0.00000000000000000 
1 0.00000000000000000 0.00000000000000000 1.00000000000000000 0.00000000000000000 
6 0 1 0.00000000000000000 -0.30000000000000071  0.00000000000000000 0.00000000000000000  
6 0 1 0.39999999999999991 -0.30000000000000071  0.39999999999999991 0.00000000000000000  
8 0.00000000000000000 1.00000000000000000
1 1.57079632679489656 0.00000000000000000 0.00000000000000000 1.00000000000000000 
6 0 1 -0.39999999999999991 -0.30000000000000071  -0.39999999999999991 0.00000000000000000  
6 0 1 -1060.00000000000000000 -0.30000000000000071  -1060.00000000000000000 0.00000000000000000  
8 0.00000000000000000 1.00000000000000000
1 4.71238898038468967 0.00000000000000000 0.00000000000000000 1.00000000000000000 
1 -0.39999999999999991 -1060.00000000000000000 1.00000000000000000 0.00000000000000000 
1 0.00000000000000000 0.00000000000000000 -1.00000000000000000 0.00000000000000000 
6 0 1 -10.00000000000000000 -0.30000000000000071  -10.00000000000000000 0.00000000000000000  
1 9.60000000000000142 -0.00000000000000213 0.00000000000000000 -1.00000000000000000 
1 0.00000000000000000 0.00000000000000000 0.00000000000000000 -1.00000000000000000 
1 6.28318530717958623 0.00000000000000000 0.00000000000000000 -1.00000000000000000 
2 4.29999999999997318 -980.00000000000000000 0.00000000000000044 1.00000000000000000 -1.00000000000000000 0.00000000000000044 1.69999999999999996
1 0.00000000000000000 -1055.20071331022336381 1.00000000000000000 0.00000000000000000 
1 6.28318530717958623 0.00000000000000000 0.00000000000000000 -1.00000000000000000 
1 -0.00000000000000007 -0.29999999999999855 1.00000000000000000 0.00000000000000000 
1 0.00000000000000007 -0.29999999999999999 -1.00000000000000000 0.00000000000000000 
1 0.00000000000000000 0.00000000000000000 0.00000000000000000 -1.00000000000000000 
1 0.00000000000000000 0.00000000000000000 1.00000000000000000 0.00000000000000000 
1 0.00000000000000000 -0.29999999999999999 -1.00000000000000000 0.00000000000000000 
1 0.00000000000000000 -0.29999999999999999 1.00000000000000000 0.00000000000000000 
1 -0.39999999999999858 0.00000000000000000 1.00000000000000000 0.00000000000000000 
1 -0.39999999999999858 -1060.00000000000000000 1.00000000000000000 0.00000000000000000 
1 0.00000000000000000 1.00000000000000000 1.00000000000000000 0.00000000000000000 
1 0.00000000000000000 0.00000000000000000 0.00000000000000000 1.00000000000000000 
6 0 1 0.00000000000000000 -0.29999999999999988  0.00000000000000000 0.00000000000000000  
1 6.28318530717958623 0.00000000000000000 0.00000000000000000 1.00000000000000000 
7 0 0  1 2 2  -1060.00000000000000000 -0.30000000000000004  -1060.00000000000000000 -0.00000000000000006 
 0.00000000000000000 2 1.00000000000000000 2
1 6.28318530717958623 1.00000000000000000 -1.00000000000000000 0.00000000000000000 
1 0.00000000000000000 0.00000000000000000 0.00000000000000000 -1.00000000000000000 
1 0.00000000000000000 0.00000000000000000 -1.00000000000000000 0.00000000000000000 
8 0.00000000000000000 1060.00000000000000000
1 1.57079632679489656 0.00000000000000000 0.00000000000000000 -1.00000000000000000 
1 4.71238898038468967 0.00000000000000000 0.00000000000000000 -1.00000000000000000 
1 0.00000000000000000 -0.30000000000000071 1.00000000000000000 0.00000000000000000 
1 -0.00000000000000000 -0.29999999999999893 -1.00000000000000000 0.00000000000000000 
1 9.60000000000000142 0.00000000000000213 0.00000000000000000 -1.00000000000000000 
1 -4.71238898038468967 1060.00000000000000000 1.00000000000000000 0.00000000000000000 
1 0.00000000000000000 0.00000000000000000 1.00000000000000000 0.00000000000000000 
1 0.00000000000000000 -1060.00000000000000000 1.00000000000000000 0.00000000000000000 
1 6.28318530717958623 0.00000000000000000 -1.00000000000000000 0.00000000000000000 
1 0.00000000000000000 0.00000000000000000 1.00000000000000000 0.00000000000000000 
1 -0.39999999999999858 0.00000000000000000 1.00000000000000000 0.00000000000000000 
1 0.00000000000000000 0.00000000000000000 1.00000000000000000 0.00000000000000000 
6 0 1 0.39999999999999858 -0.29999999999999999  0.39999999999999858 0.00000000000000000  
6 0 1 0.00000000000000000 -0.29999999999999999  0.00000000000000000 0.00000000000000000  
8 0.00000000000000000 1.00000000000000000
1 6.28318530717958623 0.00000000000000000 0.00000000000000000 1.00000000000000000 
6 0 1 -0.39999999999999858 -0.29999999999999999  -0.39999999999999858 0.00000000000000000  
6 0 1 -1060.00000000000000000 -0.29999999999999999  -1060.00000000000000000 0.00000000000000000  
8 0.00000000000000000 1.00000000000000000
1 0.00000000000000000 0.00000000000000000 0.00000000000000000 1.00000000000000000 
1 -0.39999999999999858 -1060.00000000000000000 1.00000000000000000 0.00000000000000000 
1 0.00000000000000000 0.00000000000000000 -1.00000000000000000 0.00000000000000000 
1 0.00000000000000000 0.00000000000000000 -1.00000000000000000 0.00000000000000000 
1 31.70000000000000284 0.00000000000000000 0.00000000000000000 -1.00000000000000000 
1 0.00000000000000000 0.00000000000000000 0.00000000000000000 -1.00000000000000000 
1 0.00000000000000000 0.00000000000000000 1.00000000000000000 0.00000000000000000 
1 0.00000000000000000 -0.30000000000000071 -1.00000000000000000 0.00000000000000000 
1 0.00000000000000000 -0.30000000000000071 1.00000000000000000 0.00000000000000000 
1 0.00000000000000000 0.00000000000000000 1.00000000000000000 0.00000000000000000 
1 0.00000000000000089 -1060.00000000000000000 1.00000000000000000 0.00000000000000000 
2 5.30000000000002025 -980.00000000000000000 -0.00000000000000044 1.00000000000000000 1.00000000000000000 0.00000000000000044 1.69999999999999996
1 0.00000000000000000 -1087.40071331022340928 1.00000000000000000 0.00000000000000000 
1 0.00000000000000000 1.00000000000000000 1.00000000000000000 0.00000000000000000 
1 4.71238898038468967 0.00000000000000000 0.00000000000000000 1.00000000000000000 
6 0 1 0.00000000000000000 -0.30000000000000071  0.00000000000000000 0.00000000000000000  
1 1.57079632679489656 0.00000000000000000 0.00000000000000000 1.00000000000000000 
7 0 0  1 2 2  -1060.00000000000000000 -0.29999999999999716  -1060.00000000000000000 0.00000000000000178 
 0.00000000000000000 2 1.00000000000000000 2
1 6.28318530717958623 1.00000000000000000 -1.00000000000000000 0.00000000000000000 
1 0.00000000000000000 0.00000000000000000 0.00000000000000000 -1.00000000000000000 
1 0.00000000000000000 0.00000000000000000 -1.00000000000000000 0.00000000000000000 
8 0.00000000000000000 1060.00000000000000000
1 6.28318530717958623 0.00000000000000000 0.00000000000000000 -1.00000000000000000 
6 0 1 0.00000000000000000 -0.30000000000000071  0.00000000000000000 0.00000000000000000  
1 0.00000000000000000 0.00000000000000000 0.00000000000000000 -1.00000000000000000 
6 0 1 0.00000000000000000 -0.30000000000000071  0.00000000000000000 0.00000000000000000  
1 0.00000000000000000 0.00000000000000000 1.00000000000000000 0.00000000000000000 
1 0.00000000000000000 0.00000000000000000 1.00000000000000000 0.00000000000000000 
1 0.00000000000000089 -1060.00000000000000000 1.00000000000000000 0.00000000000000000 
1 0.00000000000000000 0.00000000000000000 -1.00000000000000000 0.00000000000000000 
2 5.30000000000002025 -980.00000000000000000 -0.00000000000000044 1.00000000000000000 1.00000000000000000 0.00000000000000044 1.69999999999999996
1 0.00000000000000000 -1087.10071331022345476 1.00000000000000000 0.00000000000000000 
1 0.00000000000000000 0.00000000000000000 -1.00000000000000000 0.00000000000000000 
1 9.60000000000000142 0.00000000000000213 0.00000000000000000 -1.00000000000000000 
Curves 44
1 16.25000000000000000 1060.00000000000000000 -0.39999999999976454 0.00000000000000000 -1.00000000000000000 -0.00000000000000022 
1 16.25000000000000000 0.00000000000000000 0.00000000000000000 0.00000000000000000 0.00000000000000022 -1.00000000000000000 
1 16.25000000000000000 1060.00000000000000000 -9.99999999999976552 0.00000000000000000 -1.00000000000000000 -0.00000000000000022 
2 16.25000000000000000 80.00000000000000000 -4.69999999999995399 1.00000000000000000 -0.00000000000000022 0.00000000000000022 0.00000000000000022 1.00000000000000000 -0.00000000000000022 -0.00000000000000022 0.00000000000000022 1.00000000000000000 1.69999999999999996
1 15.85000000000000142 1060.00000000000000000 0.00000000000023537 0.00000000000000000 -1.00000000000000000 -0.00000000000000022 
2 15.85000000000000142 0.00000000000000000 -0.39999999999999991 -0.00000000000000000 1.00000000000000000 0.00000000000000022 0.00000000000000000 -0.00000000000000022 1.00000000000000000 1.00000000000000000 0.00000000000000000 0.00000000000000000 0.40000000000000002
6 0 1 16.25000000000000000 1060.00000000000000000 -9.99999999999976552  15.94999999999999929 1060.00000000000000000 -9.99999999999976552  
1 15.94999999999999929 1060.00000000000000000 0.00000000000023537 0.00000000000000000 0.00000000000000022 -1.00000000000000000 
6 0 1 16.25000000000000000 1060.00000000000000000 -0.39999999999976454  15.94999999999999929 1060.00000000000000000 -0.39999999999976454  
6 0 1 16.25000000000000000 0.00000000000000009 -0.39999999999999991  15.94999999999999929 0.00000000000000000 -0.39999999999999991  
1 15.94999999999999929 0.00000000000000000 0.00000000000000000 0.00000000000000000 0.00000000000000022 -1.00000000000000000 
6 0 1 16.25000000000000000 0.00000000000000222 -10.00000000000000000  15.94999999999999929 0.00000000000000000 -10.00000000000000000  
1 15.94999999999999929 1060.00000000000000000 -9.99999999999976552 0.00000000000000000 -1.00000000000000000 -0.00000000000000022 
1 1071.15071331022340928 81.69999999999977547 -4.69999999999971951 -1.00000000000000000 0.00000000000000022 -0.00000000000000028 
2 15.95000000000004547 80.00000000000000000 -4.69999999999995399 1.00000000000000000 -0.00000000000000022 0.00000000000000022 0.00000000000000022 1.00000000000000000 -0.00000000000000022 -0.00000000000000022 0.00000000000000022 1.00000000000000000 1.69999999999999996
1 -15.85000000000000142 1060.00000000000000000 0.00000000000023537 0.00000000000000000 -1.00000000000000000 -0.00000000000000022 
1 -16.25000000000000000 0.00000000000000000 0.00000000000000000 1.00000000000000000 0.00000000000000000 0.00000000000000000 
2 15.85000000000000142 1060.00000000000000000 -0.39999999999976454 -0.00000000000000000 1.00000000000000000 0.00000000000000022 0.00000000000000000 -0.00000000000000022 1.00000000000000000 1.00000000000000000 0.00000000000000000 0.00000000000000000 0.10000000000000003
6 0 1 15.85000000000000142 1060.00000000000000000 0.00000000000023537  15.85000000000000142 1060.00000000000000000 -0.29999999999976451  
7 0 0  1 2 2  15.84999999999999964 -0.00000000000000009 0.00000000000000014  15.85000000000000320 -0.00000000000000002 -0.29999999999999982 
 0.00000000000000000 2 1.00000000000000000 2
2 15.85000000000000142 0.00000000000000000 -0.39999999999999991 -0.00000000000000000 1.00000000000000000 0.00000000000000022 0.00000000000000000 -0.00000000000000022 1.00000000000000000 1.00000000000000000 0.00000000000000000 0.00000000000000000 0.10000000000000003
1 15.94999999999999929 1060.00000000000000000 -0.39999999999976454 0.00000000000000000 -1.00000000000000000 -0.00000000000000022 
1 -16.25000000000000000 1060.00000000000000000 -0.39999999999976499 0.00000000000000000 -1.00000000000000000 -0.00000000000000022 
2 -15.85000000000000142 -0.00000000000000361 -0.39999999999999858 0.00000000000000000 1.00000000000000000 0.00000000000000022 0.00000000000000022 -0.00000000000000022 1.00000000000000000 1.00000000000000000 0.00000000000000000 -0.00000000000000022 0.40000000000000002
1 -16.25000000000000000 1060.00000000000000000 -0.29999999999976462 1.00000000000000000 0.00000000000000000 0.00000000000000000 
6 0 1 -15.85000000000000142 1060.00000000000000000 0.00000000000023537  -15.85000000000000142 1060.00000000000000000 -0.29999999999976462  
6 0 1 -15.85000000000000142 0.00000000000000000 0.00000000000000000  -15.85000000000000142 0.00000000000000000 -0.29999999999999999  
1 -16.25000000000000000 0.00000000000000000 -0.29999999999999999 1.00000000000000000 0.00000000000000000 0.00000000000000000 
1 15.85000000000000142 1060.00000000000000000 -0.29999999999976451 0.00000000000000000 -1.00000000000000000 -0.00000000000000022 
1 -16.25000000000000000 1060.00000000000000000 -9.99999999999976552 0.00000000000000000 -1.00000000000000000 -0.00000000000000022 
1 -16.25000000000000000 0.00000000000000222 -10.00000000000000000 0.00000000000000000 -0.00000000000000022 1.00000000000000000 
2 -16.25000000000000000 80.00000000000001421 -4.69999999999996110 1.00000000000000000 -0.00000000000000022 0.00000000000000022 0.00000000000000022 1.00000000000000000 -0.00000000000000022 -0.00000000000000022 0.00000000000000022 1.00000000000000000 1.69999999999999996
2 -15.85000000000000142 1060.00000000000000000 -0.39999999999976321 0.00000000000000000 1.00000000000000000 0.00000000000000022 0.00000000000000022 -0.00000000000000022 1.00000000000000000 1.00000000000000000 0.00000000000000000 -0.00000000000000022 0.10000000000000003
6 0 1 -16.25000000000000000 1060.00000000000000000 -0.39999999999976499  -15.95000000000000107 1060.00000000000000000 -0.39999999999976321  
7 0 0  1 2 2  -16.24999999999999645 -0.00000000000000361 -0.39999999999999847  -15.94999999999999929 -0.00000000000000000 -0.39999999999999847 
 0.00000000000000000 2 1.00000000000000000 2
2 -15.85000000000000142 0.00000000000000000 -0.39999999999999858 0.00000000000000000 1.00000000000000000 0.00000000000000022 0.00000000000000022 -0.00000000000000022 1.00000000000000000 1.00000000000000000 0.00000000000000000 -0.00000000000000022 0.10000000000000003
1 -15.85000000000000142 1060.00000000000000000 -0.29999999999976462 0.00000000000000000 -1.00000000000000000 -0.00000000000000022 
6 0 1 -16.25000000000000000 1060.00000000000000000 -9.99999999999976552  -15.94999999999999929 1060.00000000000000000 -9.99999999999976552  
1 -15.94999999999999929 1060.00000000000000000 -9.99999999999976552 0.00000000000000000 -1.00000000000000000 -0.00000000000000022 
6 0 1 -16.25000000000000000 0.00000000000000222 -10.00000000000000000  -15.94999999999999929 0.00000000000000000 -10.00000000000000000  
1 -15.94999999999999929 1060.00000000000000000 -9.99999999999976552 0.00000000000000000 -0.00000000000000022 1.00000000000000000 
1 -15.94999999999999929 0.00000000000000000 -10.00000000000000000 0.00000000000000000 -0.00000000000000022 1.00000000000000000 
2 -15.95000000000004547 80.00000000000001421 -4.69999999999996110 1.00000000000000000 -0.00000000000000022 0.00000000000000022 0.00000000000000022 1.00000000000000000 -0.00000000000000022 -0.00000000000000022 0.00000000000000022 1.00000000000000000 1.69999999999999996
1 -15.95000000000000107 1060.00000000000000000 -0.39999999999976321 -0.00000000000000000 -1.00000000000000000 -0.00000000000000022 
Polygon3D 0
PolygonOnTriangulations 0
Surfaces 36
1 16.25000000000000000 1060.00000000000000000 -0.39999999999976454 1.00000000000000000 0.00000000000000000 0.00000000000000000 0.00000000000000000 0.00000000000000022 -1.00000000000000000 -0.00000000000000000 1.00000000000000000 0.00000000000000022 
2 15.85000000000000142 1060.00000000000000000 -0.39999999999976454 -0.00000000000000000 1.00000000000000000 0.00000000000000022 0.00000000000000000 -0.00000000000000022 1.00000000000000000 1.00000000000000000 0.00000000000000000 0.00000000000000000 0.40000000000000002
1 15.95000000000000107 1060.00000000000000000 -0.39999999999976454 0.00000000000000000 0.00000000000000022 -1.00000000000000000 0.00000000000000000 -1.00000000000000000 -0.00000000000000022 -1.00000000000000000 0.00000000000000000 -0.00000000000000000 
1 15.94999999999999929 1060.00000000000000000 -0.39999999999976454 0.00000000000000000 -0.00000000000000022 1.00000000000000000 -0.00000000000000000 1.00000000000000000 0.00000000000000022 -1.00000000000000000 -0.00000000000000000 0.00000000000000000 
1 16.25000000000000000 0.00000000000000000 0.00000000000000000 1.00000000000000000 0.00000000000000000 0.00000000000000000 0.00000000000000000 0.00000000000000022 -1.00000000000000000 -0.00000000000000000 1.00000000000000000 0.00000000000000022 
1 15.94999999999999929 0.00000000000000000 0.00000000000000000 -0.00000000000000000 -1.00000000000000000 -0.00000000000000022 -0.00000000000000000 -0.00000000000000022 1.00000000000000000 -1.00000000000000000 0.00000000000000000 0.00000000000000000 
1 15.94999999999999929 1060.00000000000000000 0.00000000000023537 0.00000000000000000 1.00000000000000000 0.00000000000000022 0.00000000000000000 0.00000000000000022 -1.00000000000000000 -1.00000000000000000 0.00000000000000000 0.00000000000000000 
2 1071.15071331022340928 79.99999999999977263 -4.69999999999971951 1.00000000000000000 -0.00000000000000022 0.00000000000000022 0.00000000000000022 1.00000000000000000 -0.00000000000000022 -0.00000000000000022 0.00000000000000022 1.00000000000000000 1.69999999999999996
1 -15.85000000000000142 1060.00000000000000000 0.00000000000023537 0.00000000000000000 -0.00000000000000022 1.00000000000000000 1.00000000000000000 0.00000000000000000 0.00000000000000000 -0.00000000000000000 1.00000000000000000 0.00000000000000022 
1 15.85000000000000142 1060.00000000000000000 -0.29999999999976462 1.00000000000000000 0.00000000000000000 0.00000000000000000 0.00000000000000000 -1.00000000000000000 -0.00000000000000022 0.00000000000000000 0.00000000000000022 -1.00000000000000000 
1 15.85000000000000142 1060.00000000000000000 -0.29999999999976451 -1.00000000000000000 0.00000000000000000 -0.00000000000000000 0.00000000000000000 1.00000000000000000 0.00000000000000022 0.00000000000000000 0.00000000000000022 -1.00000000000000000 
2 15.85000000000000142 -1060.00000000000000000 -0.40000000000023528 -0.00000000000000000 1.00000000000000000 0.00000000000000022 0.00000000000000000 -0.00000000000000022 1.00000000000000000 1.00000000000000000 0.00000000000000000 0.00000000000000000 0.40000000000000002
9 0 0 0 0 7 1 8 2 2 2 16.24999999999998934 0.00000000000000000 -0.39999999999999980  15.94999999999999218 0.00000000000000000 -0.39999999999999958  
16.25000000000012790 -0.00000000000000002 -0.31024020989743611  15.95000000000013429 -0.00000000000000000 -0.37756005247436109  
16.22650044537907377 -0.00000000000000004 -0.22048085400661732  15.94412511134457944 -0.00000000000000001 -0.35512021350165007  
16.17950508888122840 -0.00000000000000006 -0.13810122367082051  15.93237627222053732 -0.00000000000000001 -0.33452530591770963  
16.11189877632893541 -0.00000000000000007 -0.07049491111911677  15.91547469408207505 -0.00000000000000002 -0.31762372777977621  
16.02951914599347560 -0.00000000000000008 -0.02349955462065629  15.89487978649845346 -0.00000000000000002 -0.30587488865516499  
15.93975979010254918 -0.00000000000000009 0.00000000000000032  15.87243994752561882 -0.00000000000000002 -0.29999999999999954  
15.84999999999999964 -0.00000000000000009 0.00000000000000014  15.85000000000000320 -0.00000000000000002 -0.29999999999999982  

4.71238898038468967 8
6.28318530717958623 8

0.00000000000000000 2
1.00000000000000000 2

9 0 0 0 0 7 1 8 2 2 2 15.84999999999999964 1060.00000000000000000 0.00000000000023548  15.84999999999999964 1060.00000000000000000 -0.29999999999976457  
15.93975979010262556 1060.00000000000318323 0.00000000000023497  15.87243994752569343 1060.00000000000318323 -0.29999999999976545  
16.02951914599307059 1059.99999999998567546 -0.02349955462041772  15.89487978649808042 1059.99999999998567546 -0.30587488865492363  
16.11189877632977385 1060.00000000002637535 -0.07049491111888775  15.91547469408280335 1060.00000000002637535 -0.31762372777955317  
16.17950508888027628 1059.99999999997453415 -0.13810122367057742  15.93237627221971131 1059.99999999997453415 -0.33452530591746060  
16.22650044537971326 1060.00000000001477929 -0.22048085400638737  15.94412511134513721 1060.00000000001477929 -0.35512021350142359  
16.24999999999989342 1059.99999999999567990 -0.31024020989719836  15.94999999999991935 1059.99999999999567990 -0.37756005247412222  
16.24999999999999645 1060.00000000000000000 -0.39999999999976454  15.94999999999999929 1060.00000000000000000 -0.39999999999976460  

0.00000000000000000 8
1.57079632679489656 8

0.00000000000000000 2
1.00000000000000000 2

1 15.94999999999999929 1060.00000000000000000 -9.99999999999976552 0.00000000000000000 0.00000000000000022 -1.00000000000000000 0.00000000000000000 -1.00000000000000000 -0.00000000000000022 -1.00000000000000000 0.00000000000000000 -0.00000000000000000 
1 15.94999999999999929 1060.00000000000000000 -0.39999999999976454 1.00000000000000000 0.00000000000000000 0.00000000000000000 0.00000000000000000 0.00000000000000022 -1.00000000000000000 -0.00000000000000000 1.00000000000000000 0.00000000000000022 
2 -15.85000000000000142 1060.00000000000000000 -0.39999999999976321 0.00000000000000000 1.00000000000000000 0.00000000000000022 0.00000000000000022 -0.00000000000000022 1.00000000000000000 1.00000000000000000 0.00000000000000000 -0.00000000000000022 0.40000000000000002
1 -15.85000000000000142 1060.00000000000000000 -0.29999999999976318 1.00000000000000000 -0.00000000000000000 0.00000000000000000 0.00000000000000000 -1.00000000000000000 -0.00000000000000022 0.00000000000000000 0.00000000000000022 -1.00000000000000000 
1 -15.85000000000000142 1060.00000000000000000 -0.29999999999976462 -1.00000000000000000 0.00000000000000000 -0.00000000000000000 0.00000000000000000 1.00000000000000000 0.00000000000000022 0.00000000000000000 0.00000000000000022 -1.00000000000000000 
1 -16.25000000000000000 0.00000000000000000 0.00000000000000000 0.00000000000000000 -0.00000000000000022 1.00000000000000000 1.00000000000000000 0.00000000000000000 0.00000000000000000 -0.00000000000000000 1.00000000000000000 0.00000000000000022 
1 -16.25000000000000000 0.00000000000000000 -0.29999999999999999 0.00000000000000000 -1.00000000000000000 0.00000000000000000 -1.00000000000000000 0.00000000000000000 0.00000000000000000 -0.00000000000000000 -0.00000000000000000 -1.00000000000000000 
1 -16.25000000000000000 1060.00000000000000000 -0.29999999999976462 -0.00000000000000000 1.00000000000000000 0.00000000000000000 1.00000000000000000 0.00000000000000000 0.00000000000000000 0.00000000000000000 0.00000000000000000 -1.00000000000000000 
2 15.85000000000000142 1060.00000000000000000 -0.39999999999976454 -0.00000000000000000 1.00000000000000000 0.00000000000000022 0.00000000000000000 -0.00000000000000022 1.00000000000000000 1.00000000000000000 0.00000000000000000 0.00000000000000000 0.10000000000000003
1 -16.25000000000000000 1060.00000000000000000 -9.99999999999976552 -1.00000000000000000 -0.00000000000000000 0.00000000000000000 0.00000000000000000 -0.00000000000000022 1.00000000000000000 0.00000000000000000 1.00000000000000000 0.00000000000000022 
1 -15.94999999999999929 1060.00000000000000000 -0.39999999999976410 -0.00000000000000296 -0.00000000000000022 1.00000000000000000 0.00000000000000000 -1.00000000000000000 -0.00000000000000022 1.00000000000000000 -0.00000000000000000 0.00000000000000296 
1 -15.95000000000000107 1060.00000000000000000 -0.39999999999976321 0.00000000000000592 0.00000000000000022 -1.00000000000000000 0.00000000000000000 1.00000000000000000 0.00000000000000022 1.00000000000000000 -0.00000000000000000 0.00000000000000592 
2 -15.85000000000000142 -1060.00000000000000000 -0.40000000000023550 0.00000000000000000 1.00000000000000000 0.00000000000000022 -1.00000000000000000 0.00000000000000000 0.00000000000000000 0.00000000000000000 -0.00000000000000022 1.00000000000000000 0.40000000000000002
9 0 0 0 0 7 1 8 2 2 2 -15.84999999999999964 -0.00000000000000370 0.00000000000000144  -15.84999999999999964 -0.00000000000000002 -0.29999999999999849  
-15.93975979010262556 -0.00000000000000370 0.00000000000000104  -15.87243994752569343 -0.00000000000000002 -0.29999999999999871  
-16.02951914599307059 -0.00000000000000369 -0.02349955462065193  -15.89487978649808042 -0.00000000000000002 -0.30587488865516060  
-16.11189877632977385 -0.00000000000000368 -0.07049491111912132  -15.91547469408280335 -0.00000000000000002 -0.31762372777978182  
-16.17950508888027628 -0.00000000000000367 -0.13810122367081190  -15.93237627221971131 -0.00000000000000001 -0.33452530591769974  
-16.22650044537971326 -0.00000000000000365 -0.22048085400662071  -15.94412511134513721 -0.00000000000000001 -0.35512021350165485  
-16.24999999999989342 -0.00000000000000363 -0.31024020989743262  -15.94999999999991935 -0.00000000000000000 -0.37756005247435714  
-16.24999999999999645 -0.00000000000000361 -0.39999999999999847  -15.94999999999999929 -0.00000000000000000 -0.39999999999999847  

0.00000000000000000 8
1.57079632679489656 8

0.00000000000000000 2
1.00000000000000000 2

9 0 0 0 0 7 1 8 2 2 2 -16.24999999999998934 1059.99999999999909051 -0.39999999999976299  -15.94999999999999218 1059.99999999999909051 -0.39999999999976293  
-16.25000000000012790 1060.00000000001227818 -0.31024020989720003  -15.95000000000014317 1060.00000000001227818 -0.37756005247412427  
-16.22650044537907377 1059.99999999996930455 -0.22048085400637768  -15.94412511134451904 1059.99999999996930455 -0.35512021350141387  
-16.17950508888122840 1060.00000000004479261 -0.13810122367058861  -15.93237627222066699 1060.00000000004479261 -0.33452530591747243  
-16.11189877632893541 1059.99999999996111910 -0.07049491111887531  -15.91547469408192583 1059.99999999996111910 -0.31762372777953990  
-16.02951914599347560 1060.00000000002250999 -0.02349955462042219  -15.89487978649854050 1060.00000000002250999 -0.30587488865492796  
-15.93975979010254918 1059.99999999999272404 0.00000000000023776  -15.87243994752559395 1059.99999999999272404 -0.29999999999976329  
-15.84999999999999964 1060.00000000000000000 0.00000000000023681  -15.85000000000000320 1060.00000000000000000 -0.29999999999976323  

4.71238898038468967 8
6.28318530717958623 8

0.00000000000000000 2
1.00000000000000000 2

1 -15.85000000000000142 1060.00000000000000000 -0.29999999999976462 0.00000000000000000 -0.00000000000000022 1.00000000000000000 1.00000000000000000 0.00000000000000000 0.00000000000000000 -0.00000000000000000 1.00000000000000000 0.00000000000000022 
1 -16.25000000000000000 0.00000000000000222 -10.00000000000000000 -1.00000000000000000 -0.00000000000000000 0.00000000000000000 0.00000000000000000 -0.00000000000000022 1.00000000000000000 0.00000000000000000 1.00000000000000000 0.00000000000000022 
1 -15.94999999999999929 0.00000000000000000 -10.00000000000000000 -0.00000000000000740 -1.00000000000000000 -0.00000000000000022 0.00000000000000000 0.00000000000000022 -1.00000000000000000 1.00000000000000000 -0.00000000000000740 -0.00000000000000000 
1 -15.94999999999999929 1060.00000000000000000 -9.99999999999976552 -0.00000000000000000 1.00000000000000000 0.00000000000000022 0.00000000000000000 -0.00000000000000022 1.00000000000000000 1.00000000000000000 0.00000000000000000 0.00000000000000000 
2 -15.85000000000000142 1060.00000000000000000 -0.39999999999976321 0.00000000000000000 1.00000000000000000 0.00000000000000022 0.00000000000000022 -0.00000000000000022 1.00000000000000000 1.00000000000000000 0.00000000000000000 -0.00000000000000022 0.10000000000000003
1 -15.94999999999999929 1060.00000000000000000 -9.99999999999976552 0.00000000000000000 0.00000000000000022 -1.00000000000000000 0.00000000000000000 1.00000000000000000 0.00000000000000022 1.00000000000000000 -0.00000000000000000 0.00000000000000000 
1 -15.94999999999999929 1060.00000000000000000 -9.99999999999976552 -1.00000000000000000 -0.00000000000000000 0.00000000000000000 0.00000000000000000 -0.00000000000000022 1.00000000000000000 0.00000000000000000 1.00000000000000000 0.00000000000000022 
Triangulations 0

TShapes 121
Ve
0.001000000000000
16.250000000000000 0.000000000000000 -0.400000000000000
0 0

0101101
*
Ed
 0.001000000000000 1 1 0
1  1 0 0.000000000000000 1060.000000000000000
2  1 2 0 0.000000000000000 1060.000000000000000
4 G1 1 0 2 0
2  2 3 0 0.000000000000000 1060.000000000000000
2  3 4 0 0.000000000000000 1060.000000000000000
2  4 1 0 0.000000000000000 1060.000000000000000
0

0101000
+121 5 -121 7 *
Ve
0.001000000000000
16.250000000000000 0.000000000000002 -10.000000000000000
0 0

0101101
*
Ed
 0.001000000000000 1 1 0
2  5 5 0 0.400000000000000 10.000000000000000
1  2 0 0.400000000000000 10.000000000000000
2  6 6 9 0.400000000000000 10.000000000000000
2  7 7 10 0.400000000000000 10.000000000000000
2  8 1 10 0.400000000000000 10.000000000000000
2  9 1 9 0.400000000000000 10.000000000000000
0

0101000
+121 0 -119 0 *
Ed
 0.001000000000000 1 1 0
1  3 0 0.000000000000000 1060.000000000000000
2  10 1 0 0.000000000000000 1060.000000000000000
0

0101000
+119 5 -119 7 *
Wi

0101100
+120 4 -118 8 +118 11 -117 4 *
Ve
0.001000000000059
16.250000000000000 81.700000000000003 -4.700000000000013
0 0

0101101
*
Ed
 0.001000000000000 1 1 0
1  4 0 0.000000000000000 6.283185307179586
2  11 1 4 0.000000000000000 6.283185307179586
2  12 8 0 0.000000000000000 6.283185307179586
0

0101100
+115 0 -115 0 *
Wi

0101100
-114 0 *
Fa
0  0.001000000000000 1 4

0101000
+116 0 +113 0 *
Ve
0.001000000000000
15.850000000000001 0.000000000000000 0.000000000000000
0 0

0101101
*
Ed
 0.001000000000000 1 1 0
1  5 0 0.000000000000000 1060.000000000000000
2  13 2 0 0.000000000000000 1060.000000000000000
4 G1 2 0 9 0
2  14 10 0 0.000000000000000 1060.000000000000000
2  15 11 0 0.000000000000000 1060.000000000000000
2  16 9 0 0.000000000000000 1060.000000000000000
0

0101000
+111 5 -111 7 *
Ed
 0.000000100000000 1 1 0
2  17 12 0 0.000000000000000 1.570796326794897
1  6 0 0.000000000000000 1.570796326794897
2  18 2 10 0.000000000000000 1.570796326794897
2  19 2 9 0.000000000000000 1.570796326794897
2  20 13 9 0.000000000000000 1.570796326794897
2  21 14 10 0.000000000000000 1.570796326794897
0

0101000
+111 0 -121 0 *
Wi

0101100
+110 0 -120 0 -109 5 +109 7 *
Fa
0  0.000000100000000 2 0

0101000
+108 0 *
Ve
0.001000000000000
15.949999999999999 1060.000000000000000 -9.999999999999766
0 0

0101101
*
Ed
 0.000000100000000 1 1 0
1  7 0 0.000000000000000 1.000000000000000
4 C0 15 0 7 0
2  22 7 0 0.000000000000000 1.000000000000000
0

0101000
+119 5 -106 0 *
Ve
0.001000000000000
15.949999999999999 1060.000000000000000 -0.399999999999765
0 0

0101101
*
Ed
 0.001000000000000 1 1 0
2  23 16 0 0.400000000000000 10.000000000000000
1  8 0 0.400000000000000 10.000000000000000
2  24 7 0 0.400000000000000 10.000000000000000
0

0101000
+104 0 -106 0 *
Ed
 0.000000100000000 1 1 0
1  9 0 0.000000000000000 1.000000000000000
4 C0 4 0 7 0
2  25 4 0 0.000000000000000 1.000000000000000
2  26 7 0 0.000000000000000 1.000000000000000
2  27 14 0 0.000000000000000 1.000000000000000
0

0101000
+121 5 -104 0 *
Wi

0101100
+118 5 +105 0 -103 0 -102 0 *
Fa
0  0.000000100000000 7 0

0101000
+101 0 *
Ve
0.001000000000000
15.949999999999999 0.000000000000000 -0.400000000000000
0 0

0101101
*
Ed
 0.000000100000000 1 1 0
1  10 0 0.000000000000000 1.000000000000000
4 C0 6 0 4 0
2  28 6 0 0.000000000000000 1.000000000000000
2  29 4 0 0.000000000000000 1.000000000000000
2  30 13 0 0.000000000000000 1.000000000000000
0

0101000
+121 7 -99 0 *
Ve
0.001000000000000
15.949999999999999 0.000000000000000 -10.000000000000000
0 0

0101101
*
Ed
 0.001000000000000 1 1 0
2  31 16 0 0.400000000000000 10.000000000000000
1  11 0 0.400000000000000 10.000000000000000
2  32 6 0 0.400000000000000 10.000000000000000
0

0101000
+99 0 -97 0 *
Ed
 0.000000100000000 1 1 0
1  12 0 0.000000000000000 1.000000000000000
4 C0 15 0 6 0
2  33 6 0 0.000000000000000 1.000000000000000
0

0101000
+119 7 -97 0 *
Wi

0101100
-118 7 +98 0 +96 0 -95 0 *
Fa
0  0.000000100000000 6 0

0101000
+94 0 *
Ed
 0.001000000000000 1 1 0
2  34 16 0 0.000000000000000 1060.000000000000000
1  13 0 0.000000000000000 1060.000000000000000
0

0101000
+106 0 -97 0 *
Wi

0101000
+117 0 +95 0 -92 0 -105 0 *
Fa
0  0.000000100000000 15 0

0101000
+91 0 *
Ve
0.001000000000059
15.950000000000045 81.700000000000003 -4.700000000000013
0 0

0101101
*
Ed
 0.000000100000000 1 1 0
1  14 0 1054.900713310223409 1055.200713310223364
3  35 36CN 8 0 1054.900713310223409 1055.200713310223364
0

0101000
+115 0 -89 0 *
Ed
 0.001000000000000 1 1 0
1  15 0 0.000000000000000 6.283185307179586
2  37 16 4 0.000000000000000 6.283185307179586
2  38 8 0 0.000000000000000 6.283185307179586
0

0101100
+89 0 -89 0 *
Wi

0101100
-114 0 -88 0 +87 0 +88 0 *
Fa
0  0.000000100000000 8 0

0101000
+86 0 *
Ve
0.001000000000000
-15.850000000000001 0.000000000000000 0.000000000000000
0 0

0101101
*
Ed
 0.001000000000000 1 1 0
1  16 0 0.000000000000000 1060.000000000000000
2  39 17 0 0.000000000000000 1060.000000000000000
4 G1 9 0 17 0
2  40 18 0 0.000000000000000 1060.000000000000000
2  41 19 0 0.000000000000000 1060.000000000000000
2  42 9 0 0.000000000000000 1060.000000000000000
0

0101000
+84 5 -84 7 *
Ed
 0.001000000000000 1 1 0
2  43 20 0 0.399999999999999 32.100000000000001
1  17 0 0.399999999999999 32.100000000000001
2  44 21 9 0.399999999999999 32.100000000000001
2  45 22 10 0.399999999999999 32.100000000000001
2  46 9 10 0.399999999999999 32.100000000000001
2  47 9 9 0.399999999999999 32.100000000000001
0

0101000
+84 0 -111 0 *
Wi

0101100
+83 0 -110 0 -82 5 +82 7 *
Fa
0  0.001000000000000 9 0

0101000
+81 0 *
Ve
0.001000000000000
15.850000000000001 1060.000000000000000 -0.299999999999765
0 0

0101101
*
Ed
 0.000000100000000 1 1 0
2  18 23 0 0.000000000000000 1.570796326794897
1  18 0 0.000000000000000 1.570796326794897
2  48 14 0 0.000000000000000 1.570796326794897
0

0101000
+79 0 -104 0 *
Ed
 0.000000100000000 1 1 0
1  19 0 0.000000000000000 1.000000000000000
2  49 14 0 0.000000000000000 1.000000000000000
4 C0 11 0 14 0
2  50 11 0 0.000000000000000 1.000000000000000
0

0101000
+111 5 -79 0 *
Wi

0101100
+109 5 +102 0 -78 0 -77 0 *
Fa
0  0.000000100000000 14 0

0101000
+76 0 *
Ve
0.001000000000000
15.850000000000001 0.000000000000000 -0.300000000000000
0 0

0101101
*
Ed
 0.000000100000002 1 1 0
1  20 0 0.000000000000000 1.000000000000000
2  51 13 0 0.000000000000000 1.000000000000000
4 C0 13 0 11 0
2  52 11 0 0.000000000000000 1.000000000000000
0

0101000
+111 7 -74 0 *
Ed
 0.000000100000000 1 1 0
2  19 23 0 0.000000000000000 1.570796326794897
1  21 0 0.000000000000000 1.570796326794897
2  53 13 0 0.000000000000000 1.570796326794897
0

0101000
+74 0 -99 0 *
Wi

0101100
-109 7 +73 0 +72 0 -98 0 *
Fa
0  0.000000100000000 13 0

0101000
+71 0 *
Ed
 0.001000000000000 1 1 0
2  54 16 0 0.000000000000000 1060.000000000000000
1  22 0 0.000000000000000 1060.000000000000000
2  55 4 0 0.000000000000000 1060.000000000000000
2  56 23 0 0.000000000000000 1060.000000000000000
0

0101000
+104 0 -99 0 *
Wi

0101100
+69 4 -103 4 +96 4 -92 4 *
Wi

0101100
-87 0 *
Fa
0  0.001000000000000 16 4

0101000
+68 0 +67 0 *
Ve
0.001000000000000
-16.250000000000000 0.000000000000000 -0.400000000000000
0 0

0101101
*
Ed
 0.001000000000000 1 1 0
1  23 0 0.000000000000000 1060.000000000000000
2  57 17 0 0.000000000000000 1060.000000000000000
4 G1 17 0 24 0
2  58 25 0 0.000000000000000 1060.000000000000000
2  59 26 0 0.000000000000000 1060.000000000000000
2  60 24 0 0.000000000000000 1060.000000000000000
0

0101000
+65 5 -65 7 *
Ed
 0.000000100000004 1 1 0
2  61 27 0 4.712388980384690 6.283185307179586
1  24 0 4.712388980384690 6.283185307179586
2  62 17 10 4.712388980384690 6.283185307179586
2  63 17 9 4.712388980384690 6.283185307179586
2  64 28 9 4.712388980384690 6.283185307179586
2  65 29 10 4.712388980384690 6.283185307179586
0

0101000
+65 0 -84 0 *
Wi

0101100
+64 0 -83 0 -63 5 +63 7 *
Fa
0  0.000000100000004 17 0

0101000
+62 0 *
Ve
0.001000000000000
-15.850000000000001 1060.000000000000000 -0.299999999999765
0 0

0101101
*
Ed
 0.001000000000000 1 1 0
2  66 30 0 0.399999999999999 32.100000000000001
1  25 0 0.399999999999999 32.100000000000001
2  67 22 0 0.399999999999999 32.100000000000001
0

0101000
+60 0 -79 0 *
Ed
 0.000000100000000 1 1 0
1  26 0 0.000000000000000 1.000000000000000
4 C0 19 0 22 0
2  68 22 0 0.000000000000000 1.000000000000000
2  69 19 0 0.000000000000000 1.000000000000000
2  70 29 0 0.000000000000000 1.000000000000000
0

0101000
+84 5 -60 0 *
Wi

0101100
+82 5 +77 0 -59 0 -58 0 *
Fa
0  0.000000100000000 22 0

0101000
+57 0 *
Ve
0.001000000000000
-15.850000000000001 0.000000000000000 -0.300000000000000
0 0

0101101
*
Ed
 0.000000100000000 1 1 0
1  27 0 0.000000000000000 1.000000000000000
4 C0 21 0 19 0
2  71 21 0 0.000000000000000 1.000000000000000
2  72 19 0 0.000000000000000 1.000000000000000
2  73 28 0 0.000000000000000 1.000000000000000
0

0101000
+84 7 -55 0 *
Ed
 0.001000000000000 1 1 0
2  74 30 0 0.399999999999999 32.100000000000001
1  28 0 0.399999999999999 32.100000000000001
2  75 21 0 0.399999999999999 32.100000000000001
0

0101000
+55 0 -74 0 *
Wi

0101100
-82 7 +54 0 +53 0 -73 0 *
Fa
0  0.000000100000000 21 0

0101000
+52 0 *
Ed
 0.001000000000000 1 1 0
2  13 23 0 0.000000000000000 1060.000000000000000
1  29 0 0.000000000000000 1060.000000000000000
2  76 11 0 0.000000000000000 1060.000000000000000
2  77 30 0 0.000000000000000 1060.000000000000000
0

0101000
+79 0 -74 0 *
Wi

0101100
+50 0 -69 0 -78 0 +72 0 *
Fa
0  0.000000100000000 23 0

0101000
+49 0 *
Ve
0.001000000000000
-16.250000000000000 0.000000000000002 -10.000000000000000
0 0

0101101
*
Ed
 0.001000000000000 1 1 0
1  30 0 0.000000000000000 1060.000000000000000
2  78 24 0 0.000000000000000 1060.000000000000000
0

0101000
+47 5 -47 7 *
Ed
 0.001000000000000 1 1 0
2  79 31 0 0.000000000000000 9.600000000000000
1  31 0 0.000000000000000 9.600000000000000
2  80 32 9 0.000000000000000 9.600000000000000
2  81 33 10 0.000000000000000 9.600000000000000
2  82 24 10 0.000000000000000 9.600000000000000
2  83 24 9 0.000000000000000 9.600000000000000
0

0101000
+47 0 -65 0 *
Wi

0101100
+46 4 -45 8 +45 11 -64 4 *
Ve
0.001000000000060
-16.250000000000000 81.700000000000017 -4.700000000000021
0 0

0101101
*
Ed
 0.001000000000000 1 1 0
1  32 0 0.000000000000000 6.283185307179586
2  84 24 4 0.000000000000000 6.283185307179586
2  85 8 0 0.000000000000000 6.283185307179586
0

0101100
+43 0 -43 0 *
Wi

0101100
+42 0 *
Fa
0  0.001000000000000 24 4

0101000
+44 0 +41 0 *
Ve
0.001000000000001
-15.949999999999999 1060.000000000000000 -0.399999999999764
0 0

0101101
*
Ed
 0.000000100000004 1 1 0
2  62 34 0 4.712388980384690 6.283185307179586
1  33 0 4.712388980384690 6.283185307179586
2  86 29 0 4.712388980384690 6.283185307179586
0

0101000
+39 0 -60 0 *
Ed
 0.000000100000001 1 1 0
1  34 0 0.000000000000000 1.000000000000000
2  87 29 0 0.000000000000000 1.000000000000000
4 C0 26 0 29 0
2  88 26 0 0.000000000000000 1.000000000000000
0

0101000
+65 5 -39 0 *
Wi

0101100
+63 5 +58 0 -38 0 -37 0 *
Fa
0  0.000000100000000 29 0

0101000
+36 0 *
Ve
0.001000000000001
-15.949999999999999 0.000000000000000 -0.399999999999999
0 0

0101101
*
Ed
 0.000000100000004 1 1 0
1  35 0 0.000000000000000 1.000000000000000
2  89 28 0 0.000000000000000 1.000000000000000
4 C0 28 0 26 0
2  90 26 0 0.000000000000000 1.000000000000000
0

0101000
+65 7 -34 0 *
Ed
 0.000000100000004 1 1 0
2  63 34 0 4.712388980384690 6.283185307179586
1  36 0 4.712388980384690 6.283185307179586
2  91 28 0 4.712388980384690 6.283185307179586
0

0101000
+34 0 -55 0 *
Wi

0101100
-63 7 +33 0 +32 0 -54 0 *
Fa
0  0.000000100000000 28 0

0101000
+31 0 *
Ed
 0.001000000000000 1 1 0
2  92 30 0 0.000000000000000 1060.000000000000000
1  37 0 0.000000000000000 1060.000000000000000
2  93 19 0 0.000000000000000 1060.000000000000000
2  94 34 0 0.000000000000000 1060.000000000000000
0

0101000
+60 0 -55 0 *
Wi

0101100
+29 0 -50 0 -59 0 +53 0 *
Fa
0  0.001000000000000 30 0

0101000
+28 0 *
Ve
0.001000000000000
-15.949999999999999 1060.000000000000000 -9.999999999999766
0 0

0101101
*
Ed
 0.000000100000000 1 1 0
1  38 0 0.000000000000000 1.000000000000000
4 C0 35 0 33 0
2  95 33 0 0.000000000000000 1.000000000000000
0

0101000
+47 5 -26 0 *
Ve
0.001000000000000
-15.949999999999999 0.000000000000000 -10.000000000000000
0 0

0101101
*
Ed
 0.001000000000000 1 1 0
2  96 36 0 0.000000000000000 1060.000000000000000
1  39 0 0.000000000000000 1060.000000000000000
0

0101000
+26 0 -24 0 *
Ed
 0.000000100000000 1 1 0
1  40 0 0.000000000000000 1.000000000000000
4 C0 32 0 35 0
2  97 32 0 0.000000000000000 1.000000000000000
0

0101000
+47 7 -24 0 *
Wi

0101000
-46 0 +25 0 +23 0 -22 0 *
Fa
0  0.000000100000000 35 0

0101000
+21 0 *
Ed
 0.001000000000000 1 1 0
2  98 36 0 0.000000000000000 9.600000000000000
1  41 0 0.000000000000000 9.600000000000000
2  99 33 0 0.000000000000000 9.600000000000000
0

0101000
+26 0 -39 0 *
Wi

0101100
+45 5 +37 0 -19 0 -25 0 *
Fa
0  0.000000100000000 33 0

0101000
+18 0 *
Ed
 0.001000000000000 1 1 0
2  100 36 0 0.000000000000000 9.600000000000000
1  42 0 0.000000000000000 9.600000000000000
2  101 32 0 0.000000000000000 9.600000000000000
0

0101000
+24 0 -34 0 *
Wi

0101100
-45 7 +22 0 +16 0 -33 0 *
Fa
0  0.000000100000000 32 0

0101000
+15 0 *
Ve
0.001000000000060
-15.950000000000045 81.700000000000017 -4.700000000000021
0 0

0101101
*
Ed
 0.001000000000000 1 1 0
1  43 0 0.000000000000000 6.283185307179586
2  102 36 4 0.000000000000000 6.283185307179586
2  103 8 0 0.000000000000000 6.283185307179586
0

0101100
+13 0 -13 0 *
Ed
 0.000000100000000 1 1 0
1  14 0 1087.100713310223455 1087.400713310223409
3  35 36CN 8 0 1087.100713310223455 1087.400713310223409
0

0101000
+13 0 -43 0 *
Wi

0101100
-12 0 -11 0 +42 0 +11 0 *
Fa
0  0.000000100000000 8 0

0101000
+10 0 *
Ed
 0.001000000000000 1 1 0
2  57 34 0 0.000000000000000 1060.000000000000000
1  44 0 0.000000000000000 1060.000000000000000
2  104 26 0 0.000000000000000 1060.000000000000000
2  105 36 0 0.000000000000000 1060.000000000000000
0

0101000
+39 0 -34 0 *
Wi

0101100
+8 0 -29 0 -38 0 +32 0 *
Fa
0  0.000000100000004 34 0

0101000
+7 0 *
Wi

0101100
+23 4 -19 4 +16 4 -8 4 *
Wi

0101100
+12 0 *
Fa
0  0.001000000000000 36 4

0101000
+5 0 +4 0 *
Sh

0101100
+112 0 +107 4 +100 4 +93 4 +90 4 -85 0 +80 4 +75 4 +70 4 -66 0 
+61 4 +56 4 +51 4 -48 4 +40 0 +35 4 +30 4 -27 4 +20 4 +17 4 
+14 4 -9 0 -6 4 -3 0 *
So

0100000
+2 0 *

+1 1 