
CASCADE Topology V1, (c) Matra-Datavision
Locations 58
1
1.000000000000000 0.000000000000000 0.000000000000000 1103.000000000000000 
0.000000000000000 1.000000000000000 0.000000000000000 0.000000000000000 
0.000000000000000 0.000000000000000 1.000000000000000 0.000000000000000 
1
1.000000000000000 0.000000000000000 0.000000000000000 0.000000000000000 
0.000000000000000 1.000000000000000 0.000000000000000 0.000000000000000 
0.000000000000000 0.000000000000000 1.000000000000000 0.000000000000000 
1
0.000000000000000 -1.000000000000000 0.000000000000000 0.000000000000000 
0.000000000000000 0.000000000000000 -1.000000000000000 0.000000000000000 
1.000000000000000 0.000000000000000 0.000000000000000 481.000000000000000 
1
1.000000000000000 0.000000000000000 0.000000000000000 0.000000000000000 
0.000000000000000 1.000000000000000 0.000000000000000 0.000000000000000 
0.000000000000000 0.000000000000000 1.000000000000000 0.000000000000000 
1
1.000000000000000 0.000000000000000 0.000000000000000 0.000000000000000 
0.000000000000000 1.000000000000000 0.000000000000000 0.000000000000000 
0.000000000000000 0.000000000000000 1.000000000000000 0.000000000000000 
1
1.000000000000000 0.000000000000000 0.000000000000000 0.000000000000000 
0.000000000000000 1.000000000000000 0.000000000000000 0.000000000000000 
0.000000000000000 0.000000000000000 1.000000000000000 0.000000000000000 
1
0.000000000000000 -1.000000000000000 0.000000000000000 0.000000000000000 
1.000000000000000 0.000000000000000 0.000000000000000 -12.000000000000000 
0.000000000000000 0.000000000000000 1.000000000000000 0.000000000000000 
1
1.000000000000000 0.000000000000000 0.000000000000000 0.000000000000000 
0.000000000000000 1.000000000000000 0.000000000000000 0.000000000000000 
0.000000000000000 0.000000000000000 1.000000000000000 0.000000000000000 
1
1.000000000000000 0.000000000000000 0.000000000000000 1702.634142791676368 
0.000000000000000 1.000000000000000 0.000000000000000 -0.000000000000378 
0.000000000000000 0.000000000000000 1.000000000000000 -0.000000000000000 
2  1 1 2 1 3 1 4 1 5 1 6 1 7 1 8 -1 9 1 0
1
1.000000000000000 0.000000000000000 0.000000000000000 -3405.268285583352736 
0.000000000000000 1.000000000000000 0.000000000000000 0.000000000000756 
0.000000000000000 0.000000000000000 1.000000000000000 0.000000000000000 
2  1 1 2 1 3 1 4 1 5 1 6 1 7 1 8 -1 9 1 11 1 0
1
1.000000000000000 0.000000000000000 0.000000000000000 1702.634142791676368 
0.000000000000000 1.000000000000000 0.000000000000000 -0.000000000000378 
0.000000000000000 0.000000000000000 1.000000000000000 -0.000000000000000 
1
1.000000000000000 0.000000000000000 0.000000000000000 0.000000000000000 
0.000000000000000 1.000000000000000 0.000000000000000 0.000000000000000 
0.000000000000000 0.000000000000000 1.000000000000000 0.000000000000000 
1
0.000000000000000 -1.000000000000000 0.000000000000000 0.000000000000000 
1.000000000000000 0.000000000000000 0.000000000000000 -12.000000000000000 
0.000000000000000 0.000000000000000 1.000000000000000 0.000000000000000 
1
1.000000000000000 0.000000000000000 0.000000000000000 0.000000000000000 
0.000000000000000 1.000000000000000 0.000000000000000 0.000000000000000 
0.000000000000000 0.000000000000000 1.000000000000000 0.000000000000000 
1
1.000000000000000 0.000000000000000 0.000000000000000 0.000000000000000 
0.000000000000000 1.000000000000000 0.000000000000000 0.000000000000000 
0.000000000000000 0.000000000000000 1.000000000000000 0.000000000000000 
1
1.000000000000000 0.000000000000000 0.000000000000000 0.000000000000000 
0.000000000000000 1.000000000000000 0.000000000000000 0.000000000000000 
0.000000000000000 0.000000000000000 1.000000000000000 0.000000000000000 
2  13 -1 14 1 15 -1 16 -1 17 -1 18 -1 3 -1 2 -1 1 -1 0
1
1.000000000000000 0.000000000000000 0.000000000000000 -3405.268285583352736 
0.000000000000000 1.000000000000000 0.000000000000000 0.000000000000756 
0.000000000000000 0.000000000000000 1.000000000000000 0.000000000000000 
2  20 -1 13 -1 14 1 15 -1 16 -1 17 -1 18 -1 3 -1 2 -1 1 -1 0
1
1.000000000000000 0.000000000000000 0.000000000000000 829.750000000000000 
0.000000000000000 1.000000000000000 0.000000000000000 0.000000000000000 
0.000000000000000 0.000000000000000 1.000000000000000 0.000000000000000 
2  13 -1 14 1 15 -1 16 -1 17 -1 18 -1 3 -1 2 -1 22 -1 0
2  20 -1 13 -1 14 1 15 -1 16 -1 17 -1 18 -1 3 -1 2 -1 22 -1 0
1
1.000000000000000 0.000000000000000 0.000000000000000 556.500000000000000 
0.000000000000000 1.000000000000000 0.000000000000000 0.000000000000000 
0.000000000000000 0.000000000000000 1.000000000000000 0.000000000000000 
2  13 -1 14 1 15 -1 16 -1 17 -1 18 -1 3 -1 2 -1 25 -1 0
2  20 -1 13 -1 14 1 15 -1 16 -1 17 -1 18 -1 3 -1 2 -1 25 -1 0
1
1.000000000000000 0.000000000000000 0.000000000000000 10.000000000000000 
0.000000000000000 1.000000000000000 0.000000000000000 0.000000000000000 
0.000000000000000 0.000000000000000 1.000000000000000 0.000000000000000 
2  13 -1 14 1 15 -1 16 -1 17 -1 18 -1 3 -1 2 -1 28 -1 0
2  20 -1 13 -1 14 1 15 -1 16 -1 17 -1 18 -1 3 -1 2 -1 28 -1 0
1
1.000000000000000 0.000000000000000 0.000000000000000 283.250000000000000 
0.000000000000000 1.000000000000000 0.000000000000000 0.000000000000000 
0.000000000000000 0.000000000000000 1.000000000000000 0.000000000000000 
2  13 -1 14 1 15 -1 16 -1 17 -1 18 -1 3 -1 2 -1 31 -1 0
2  20 -1 13 -1 14 1 15 -1 16 -1 17 -1 18 -1 3 -1 2 -1 31 -1 0
2  9 -1 8 1 7 -1 6 -1 5 -1 4 -1 3 -1 2 -1 1 -1 0
2  11 -1 9 -1 8 1 7 -1 6 -1 5 -1 4 -1 3 -1 2 -1 1 -1 0
2  9 -1 8 1 7 -1 6 -1 5 -1 4 -1 3 -1 2 -1 22 -1 0
2  11 -1 9 -1 8 1 7 -1 6 -1 5 -1 4 -1 3 -1 2 -1 22 -1 0
2  9 -1 8 1 7 -1 6 -1 5 -1 4 -1 3 -1 2 -1 25 -1 0
2  11 -1 9 -1 8 1 7 -1 6 -1 5 -1 4 -1 3 -1 2 -1 25 -1 0
2  9 -1 8 1 7 -1 6 -1 5 -1 4 -1 3 -1 2 -1 28 -1 0
2  11 -1 9 -1 8 1 7 -1 6 -1 5 -1 4 -1 3 -1 2 -1 28 -1 0
2  9 -1 8 1 7 -1 6 -1 5 -1 4 -1 3 -1 2 -1 31 -1 0
2  11 -1 9 -1 8 1 7 -1 6 -1 5 -1 4 -1 3 -1 2 -1 31 -1 0
2  3 1 4 1 5 1 6 1 7 1 8 -1 9 1 0
2  1 1 2 1 0
2  3 1 4 1 5 1 6 1 7 1 8 -1 9 1 11 1 0
2  22 1 2 1 3 1 4 1 5 1 6 1 7 1 8 -1 9 1 0
2  22 1 2 1 3 1 4 1 5 1 6 1 7 1 8 -1 9 1 11 1 0
2  22 1 2 1 0
2  25 1 2 1 3 1 4 1 5 1 6 1 7 1 8 -1 9 1 0
2  25 1 2 1 3 1 4 1 5 1 6 1 7 1 8 -1 9 1 11 1 0
2  25 1 2 1 0
2  28 1 2 1 3 1 4 1 5 1 6 1 7 1 8 -1 9 1 0
2  28 1 2 1 3 1 4 1 5 1 6 1 7 1 8 -1 9 1 11 1 0
2  28 1 2 1 0
2  31 1 2 1 3 1 4 1 5 1 6 1 7 1 8 -1 9 1 0
2  31 1 2 1 3 1 4 1 5 1 6 1 7 1 8 -1 9 1 11 1 0
2  31 1 2 1 0
Curve2ds 30
1 0.00000000000000000 0.00000000000000000 0.00000000000000000 -1.00000000000000000 
1 6.28318530717958623 0.00000000000000000 0.00000000000000000 -1.00000000000000000 
1 0.00000000000000000 0.00000000000000000 1.00000000000000000 0.00000000000000000 
1 0.00000000000000000 -3405.26828558335273556 1.00000000000000000 0.00000000000000000 
1 0.00000000000000000 0.00000000000000000 1.00000000000000000 0.00000000000000000 
1 0.00000000000000000 -3405.26828558335273556 1.00000000000000000 0.00000000000000000 
1 0.00000000000000000 0.00000000000000000 1.00000000000000000 0.00000000000000000 
1 0.00000000000000000 -3405.26828558335273556 1.00000000000000000 0.00000000000000000 
1 0.00000000000000000 0.00000000000000000 1.00000000000000000 0.00000000000000000 
1 0.00000000000000000 -3405.26828558335273556 1.00000000000000000 0.00000000000000000 
1 0.00000000000000000 0.00000000000000000 1.00000000000000000 0.00000000000000000 
1 0.00000000000000000 -3405.26828558335273556 1.00000000000000000 0.00000000000000000 
1 0.00000000000000000 0.00000000000000000 1.00000000000000000 0.00000000000000000 
1 0.00000000000000000 -3405.26828558335273556 1.00000000000000000 0.00000000000000000 
1 0.00000000000000000 0.00000000000000000 1.00000000000000000 0.00000000000000000 
1 0.00000000000000000 -3405.26828558335273556 1.00000000000000000 0.00000000000000000 
1 0.00000000000000000 0.00000000000000000 1.00000000000000000 0.00000000000000000 
1 0.00000000000000000 -3405.26828558335273556 1.00000000000000000 0.00000000000000000 
1 0.00000000000000000 0.00000000000000000 1.00000000000000000 0.00000000000000000 
1 0.00000000000000000 -3405.26828558335273556 1.00000000000000000 0.00000000000000000 
1 0.00000000000000000 0.00000000000000000 1.00000000000000000 0.00000000000000000 
1 0.00000000000000000 -3405.26828558335273556 1.00000000000000000 0.00000000000000000 
1 0.00000000000000000 0.00000000000000000 0.00000000000000000 -1.00000000000000000 
1 6.28318530717958623 0.00000000000000000 0.00000000000000000 -1.00000000000000000 
1 0.00000000000000000 0.00000000000000000 0.00000000000000000 -1.00000000000000000 
1 6.28318530717958623 0.00000000000000000 0.00000000000000000 -1.00000000000000000 
1 0.00000000000000000 0.00000000000000000 0.00000000000000000 -1.00000000000000000 
1 6.28318530717958623 0.00000000000000000 0.00000000000000000 -1.00000000000000000 
1 0.00000000000000000 0.00000000000000000 0.00000000000000000 -1.00000000000000000 
1 6.28318530717958623 0.00000000000000000 0.00000000000000000 -1.00000000000000000 
Curves 6
1 1702.63414279167636778 -12.00000000000037836 1585.70000000000004547 -1.00000000000000000 0.00000000000000022 0.00000000000000000 
2 0.00000000000000000 0.00000000000000000 0.00000000000000000 0.00000000000000000 0.00000000000000000 1.00000000000000000 1.00000000000000000 0.00000000000000000 -0.00000000000000000 -0.00000000000000000 1.00000000000000000 0.00000000000000000 1.70000000000001150
1 1702.63414279167636778 -12.00000000000037836 1312.45000000000004547 -1.00000000000000000 0.00000000000000022 0.00000000000000000 
1 1702.63414279167636778 -12.00000000000037836 1039.20000000000004547 -1.00000000000000000 0.00000000000000022 0.00000000000000000 
1 1702.63414279167636778 -12.00000000000037836 492.69999999999998863 -1.00000000000000000 0.00000000000000022 0.00000000000000000 
1 1702.63414279167636778 -12.00000000000037836 765.95000000000004547 -1.00000000000000000 0.00000000000000022 0.00000000000000000 
Polygon3D 0
PolygonOnTriangulations 0
Surfaces 15
2 1702.63414279167636778 -12.00000000000037836 1584.00000000000000000 1.00000000000000000 -0.00000000000000022 0.00000000000000000 0.00000000000000000 0.00000000000000000 1.00000000000000000 -0.00000000000000022 -1.00000000000000000 0.00000000000000000 1.70000000000001150
2 1702.63414279167636778 -12.00000000000037836 1584.00000000000000000 1.00000000000000000 -0.00000000000000022 0.00000000000000000 0.00000000000000000 0.00000000000000000 1.00000000000000000 -0.00000000000000022 -1.00000000000000000 0.00000000000000000 1.70000000000001150
2 1702.63414279167636778 -12.00000000000037836 1310.75000000000000000 1.00000000000000000 -0.00000000000000022 0.00000000000000000 0.00000000000000000 0.00000000000000000 1.00000000000000000 -0.00000000000000022 -1.00000000000000000 0.00000000000000000 1.70000000000001150
2 1702.63414279167636778 -12.00000000000037836 1037.50000000000000000 1.00000000000000000 -0.00000000000000022 0.00000000000000000 0.00000000000000000 0.00000000000000000 1.00000000000000000 -0.00000000000000022 -1.00000000000000000 0.00000000000000000 1.70000000000001150
2 1702.63414279167636778 -12.00000000000037836 491.00000000000000000 1.00000000000000000 -0.00000000000000022 0.00000000000000000 0.00000000000000000 0.00000000000000000 1.00000000000000000 -0.00000000000000022 -1.00000000000000000 0.00000000000000000 1.70000000000001150
2 1702.63414279167636778 -12.00000000000037836 764.25000000000000000 1.00000000000000000 -0.00000000000000022 0.00000000000000000 0.00000000000000000 0.00000000000000000 1.00000000000000000 -0.00000000000000022 -1.00000000000000000 0.00000000000000000 1.70000000000001150
2 1702.63414279167636778 -12.00000000000037836 1310.75000000000000000 1.00000000000000000 -0.00000000000000022 0.00000000000000000 0.00000000000000000 0.00000000000000000 1.00000000000000000 -0.00000000000000022 -1.00000000000000000 0.00000000000000000 1.70000000000001150
2 1702.63414279167636778 -12.00000000000037836 1037.50000000000000000 1.00000000000000000 -0.00000000000000022 0.00000000000000000 0.00000000000000000 0.00000000000000000 1.00000000000000000 -0.00000000000000022 -1.00000000000000000 0.00000000000000000 1.70000000000001150
2 1702.63414279167636778 -12.00000000000037836 491.00000000000000000 1.00000000000000000 -0.00000000000000022 0.00000000000000000 0.00000000000000000 0.00000000000000000 1.00000000000000000 -0.00000000000000022 -1.00000000000000000 0.00000000000000000 1.70000000000001150
2 1702.63414279167636778 -12.00000000000037836 764.25000000000000000 1.00000000000000000 -0.00000000000000022 0.00000000000000000 0.00000000000000000 0.00000000000000000 1.00000000000000000 -0.00000000000000022 -1.00000000000000000 0.00000000000000000 1.70000000000001150
1 556.49999999999920419 0.00000000000000003 0.00000000000000000 0.00000000000000000 0.00000000000000000 1.00000000000000000 1.00000000000000000 0.00000000000000000 -0.00000000000000000 -0.00000000000000000 1.00000000000000000 0.00000000000000000 
1 556.49999999999920419 0.00000000000000003 0.00000000000000000 0.00000000000000000 0.00000000000000000 1.00000000000000000 1.00000000000000000 0.00000000000000000 -0.00000000000000000 -0.00000000000000000 1.00000000000000000 0.00000000000000000 
1 556.49999999999920419 0.00000000000000003 0.00000000000000000 0.00000000000000000 0.00000000000000000 1.00000000000000000 1.00000000000000000 0.00000000000000000 -0.00000000000000000 -0.00000000000000000 1.00000000000000000 0.00000000000000000 
1 556.49999999999920419 0.00000000000000003 0.00000000000000000 0.00000000000000000 0.00000000000000000 1.00000000000000000 1.00000000000000000 0.00000000000000000 -0.00000000000000000 -0.00000000000000000 1.00000000000000000 0.00000000000000000 
1 556.49999999999920419 0.00000000000000003 0.00000000000000000 0.00000000000000000 0.00000000000000000 1.00000000000000000 1.00000000000000000 0.00000000000000000 -0.00000000000000000 -0.00000000000000000 1.00000000000000000 0.00000000000000000 
Triangulations 0

TShapes 38
Ve
0.000000100000000
1.700000000000012 0.000000000000000 0.000000000000000
0 0

0101101
*
Ed
 0.000000100000000 1 1 0
1  1 0 0.000000000000000 3405.268285583352736
3  1 2CN 1 0 0.000000000000000 3405.268285583352736
0

0101000
+38 10 -38 12 *
Ed
 0.000000100000000 1 1 0
1  2 0 0.000000000000000 6.283185307179586
2  3 2 19 0.000000000000000 6.283185307179586
2  4 2 21 0.000000000000000 6.283185307179586
2  5 3 23 0.000000000000000 6.283185307179586
2  6 3 24 0.000000000000000 6.283185307179586
2  7 4 26 0.000000000000000 6.283185307179586
2  8 4 27 0.000000000000000 6.283185307179586
2  9 5 29 0.000000000000000 6.283185307179586
2  10 5 30 0.000000000000000 6.283185307179586
2  11 6 32 0.000000000000000 6.283185307179586
2  12 6 33 0.000000000000000 6.283185307179586
2  13 1 34 0.000000000000000 6.283185307179586
2  14 1 35 0.000000000000000 6.283185307179586
2  15 7 36 0.000000000000000 6.283185307179586
2  16 7 37 0.000000000000000 6.283185307179586
2  17 8 38 0.000000000000000 6.283185307179586
2  18 8 39 0.000000000000000 6.283185307179586
2  19 9 40 0.000000000000000 6.283185307179586
2  20 9 41 0.000000000000000 6.283185307179586
2  21 10 42 0.000000000000000 6.283185307179586
2  22 10 43 0.000000000000000 6.283185307179586
0

0101100
+38 0 -38 0 *
Wi

0101100
+37 0 -37 0 -36 10 +36 12 *
Fa
0  0.000000100000000 1 0

0111000
+35 0 *
Wi

0101100
+36 45 *
Fa
0  0.000000100000000 11 0

0111000
+33 0 *
Sh

0101100
+34 0 +32 44 -32 46 *
So

0100000
+31 0 *
Ed
 0.000000100000000 1 1 0
1  3 0 0.000000000000000 3405.268285583352736
3  23 24CN 7 0 0.000000000000000 3405.268285583352736
0

0101000
+38 47 -38 48 *
Wi

0101100
+29 0 -29 0 -36 47 +36 48 *
Fa
0  0.000000100000000 7 0

0111000
+28 0 *
Wi

0101100
+36 49 *
Fa
0  0.000000100000000 12 0

0111000
+26 0 *
Sh

0101100
+27 0 +25 44 -25 46 *
So

0100000
+24 0 *
Ed
 0.000000100000000 1 1 0
1  4 0 0.000000000000000 3405.268285583352736
3  25 26CN 8 0 0.000000000000000 3405.268285583352736
0

0101000
+38 50 -38 51 *
Wi

0101100
+22 0 -22 0 -36 50 +36 51 *
Fa
0  0.000000100000000 8 0

0111000
+21 0 *
Wi

0101100
+36 52 *
Fa
0  0.000000100000000 13 0

0111000
+19 0 *
Sh

0101100
+20 0 +18 44 -18 46 *
So

0100000
+17 0 *
Ed
 0.000000100000000 1 1 0
1  5 0 0.000000000000000 3405.268285583352736
3  27 28CN 9 0 0.000000000000000 3405.268285583352736
0

0101000
+38 53 -38 54 *
Wi

0101100
+15 0 -15 0 -36 53 +36 54 *
Fa
0  0.000000100000000 9 0

0111000
+14 0 *
Wi

0101100
+36 55 *
Fa
0  0.000000100000000 14 0

0111000
+12 0 *
Sh

0101100
+13 0 +11 44 -11 46 *
So

0100000
+10 0 *
Ed
 0.000000100000000 1 1 0
1  6 0 0.000000000000000 3405.268285583352736
3  29 30CN 10 0 0.000000000000000 3405.268285583352736
0

0101000
+38 56 -38 57 *
Wi

0101100
+8 0 -8 0 -36 56 +36 57 *
Fa
0  0.000000100000000 10 0

0111000
+7 0 *
Wi

0101100
+36 58 *
Fa
0  0.000000100000000 15 0

0111000
+5 0 *
Sh

0101100
+6 0 +4 44 -4 46 *
So

0100000
+3 0 *
Co

1100000
+30 0 +23 0 +16 0 +9 0 +2 0 *

+1 0 