
CASCADE Topology V1, (c) Matra-Datavision
Locations 40
1
1.000000000000000 0.000000000000000 0.000000000000000 0.000000000000000 
0.000000000000000 1.000000000000000 0.000000000000000 0.000000000000000 
0.000000000000000 0.000000000000000 1.000000000000000 0.000000000000000 
1
0.866025403784439 -0.000000000000000 -0.500000000000000 14.499999999999993 
-0.500000000000000 0.000000000000000 -0.866025403784439 -3.464101615137760 
0.000000000000000 1.000000000000000 0.000000000000000 0.000000000000002 
1
1.000000000000000 0.000000000000000 0.000000000000000 0.000000000000000 
0.000000000000000 1.000000000000000 0.000000000000000 0.000000000000000 
0.000000000000000 0.000000000000000 1.000000000000000 0.000000000000000 
1
1.000000000000000 0.000000000000000 0.000000000000000 -743.574720236604435 
0.000000000000000 1.000000000000000 0.000000000000000 -1287.909194673612546 
0.000000000000000 0.000000000000000 1.000000000000000 0.000000000000371 
2  1 1 2 1 3 -1 4 1 0
1
1.000000000000000 0.000000000000000 0.000000000000000 1487.149440473208870 
0.000000000000000 1.000000000000000 0.000000000000000 2575.818389347225093 
0.000000000000000 0.000000000000000 1.000000000000000 -0.000000000000743 
2  1 1 2 1 3 -1 4 1 6 1 0
1
1.000000000000000 0.000000000000000 0.000000000000000 -743.574720236604435 
0.000000000000000 1.000000000000000 0.000000000000000 -1287.909194673612546 
0.000000000000000 0.000000000000000 1.000000000000000 0.000000000000371 
1
1.000000000000000 0.000000000000000 0.000000000000000 0.000000000000000 
0.000000000000000 1.000000000000000 0.000000000000000 0.000000000000000 
0.000000000000000 0.000000000000000 1.000000000000000 0.000000000000000 
1
0.866025403784439 -0.000000000000000 -0.500000000000000 14.499999999999993 
-0.500000000000000 0.000000000000000 -0.866025403784439 -3.464101615137760 
0.000000000000000 1.000000000000000 0.000000000000000 0.000000000000002 
1
1.000000000000000 0.000000000000000 0.000000000000000 0.000000000000000 
0.000000000000000 1.000000000000000 0.000000000000000 0.000000000000000 
0.000000000000000 0.000000000000000 1.000000000000000 0.000000000000000 
2  8 -1 9 1 10 -1 11 -1 0
1
1.000000000000000 0.000000000000000 0.000000000000000 1487.149440473208870 
0.000000000000000 1.000000000000000 0.000000000000000 2575.818389347225093 
0.000000000000000 0.000000000000000 1.000000000000000 -0.000000000000743 
2  13 -1 8 -1 9 1 10 -1 11 -1 0
1
1.000000000000000 0.000000000000000 0.000000000000000 -743.574720236604435 
0.000000000000000 1.000000000000000 0.000000000000000 -1287.909194673612546 
0.000000000000000 0.000000000000000 1.000000000000000 0.000000000000371 
1
1.000000000000000 0.000000000000000 0.000000000000000 0.000000000000000 
0.000000000000000 1.000000000000000 0.000000000000000 0.000000000000000 
0.000000000000000 0.000000000000000 1.000000000000000 0.000000000000000 
1
0.866025403784439 -0.000000000000000 -0.500000000000000 14.499999999999993 
-0.500000000000000 0.000000000000000 -0.866025403784439 -3.464101615137760 
0.000000000000000 1.000000000000000 0.000000000000000 0.000000000000002 
1
1.000000000000000 0.000000000000000 0.000000000000000 0.000000000000000 
0.000000000000000 1.000000000000000 0.000000000000000 0.000000000000000 
0.000000000000000 0.000000000000000 1.000000000000000 0.000000000000000 
2  15 -1 16 1 17 -1 18 -1 0
1
1.000000000000000 0.000000000000000 0.000000000000000 1487.149440473208870 
0.000000000000000 1.000000000000000 0.000000000000000 2575.818389347225093 
0.000000000000000 0.000000000000000 1.000000000000000 -0.000000000000743 
2  20 -1 15 -1 16 1 17 -1 18 -1 0
1
1.000000000000000 0.000000000000000 0.000000000000000 -743.574720236604435 
0.000000000000000 1.000000000000000 0.000000000000000 -1287.909194673612546 
0.000000000000000 0.000000000000000 1.000000000000000 0.000000000000371 
1
1.000000000000000 0.000000000000000 0.000000000000000 0.000000000000000 
0.000000000000000 1.000000000000000 0.000000000000000 0.000000000000000 
0.000000000000000 0.000000000000000 1.000000000000000 0.000000000000000 
1
0.866025403784439 -0.000000000000000 -0.500000000000000 14.499999999999993 
-0.500000000000000 0.000000000000000 -0.866025403784439 -3.464101615137760 
0.000000000000000 1.000000000000000 0.000000000000000 0.000000000000002 
1
1.000000000000000 0.000000000000000 0.000000000000000 0.000000000000000 
0.000000000000000 1.000000000000000 0.000000000000000 0.000000000000000 
0.000000000000000 0.000000000000000 1.000000000000000 0.000000000000000 
2  22 -1 23 1 24 -1 25 -1 0
1
1.000000000000000 0.000000000000000 0.000000000000000 1487.149440473208870 
0.000000000000000 1.000000000000000 0.000000000000000 2575.818389347225093 
0.000000000000000 0.000000000000000 1.000000000000000 -0.000000000000743 
2  27 -1 22 -1 23 1 24 -1 25 -1 0
1
1.000000000000000 0.000000000000000 0.000000000000000 -743.574720236604435 
0.000000000000000 1.000000000000000 0.000000000000000 -1287.909194673612546 
0.000000000000000 0.000000000000000 1.000000000000000 0.000000000000371 
1
1.000000000000000 0.000000000000000 0.000000000000000 0.000000000000000 
0.000000000000000 1.000000000000000 0.000000000000000 0.000000000000000 
0.000000000000000 0.000000000000000 1.000000000000000 0.000000000000000 
1
0.866025403784439 -0.000000000000000 -0.500000000000000 14.499999999999993 
-0.500000000000000 0.000000000000000 -0.866025403784439 -3.464101615137760 
0.000000000000000 1.000000000000000 0.000000000000000 0.000000000000002 
1
1.000000000000000 0.000000000000000 0.000000000000000 0.000000000000000 
0.000000000000000 1.000000000000000 0.000000000000000 0.000000000000000 
0.000000000000000 0.000000000000000 1.000000000000000 0.000000000000000 
2  29 -1 30 1 31 -1 32 -1 0
1
1.000000000000000 0.000000000000000 0.000000000000000 1487.149440473208870 
0.000000000000000 1.000000000000000 0.000000000000000 2575.818389347225093 
0.000000000000000 0.000000000000000 1.000000000000000 -0.000000000000743 
2  34 -1 29 -1 30 1 31 -1 32 -1 0
2  4 -1 3 1 2 -1 1 -1 0
2  6 -1 4 -1 3 1 2 -1 1 -1 0
2  3 -1 4 1 0
2  1 1 2 1 0
2  3 -1 4 1 6 1 0
Curve2ds 120
1 4.71238898038468967 0.00000000000000000 0.00000000000000000 -1.00000000000000000 
1 0.00000000000000000 0.00000000000000000 0.00000000000000000 -1.00000000000000000 
1 0.00000000000000000 0.00000000000000000 -0.00000000000000001 -1.00000000000000000 
1 9.99999999999993605 -0.00000000000003730 0.00000000000000000 -1.00000000000000000 
1 0.00000000000000000 0.00000000000000000 1.00000000000000000 -0.00000000000000000 
1 0.00000000000000000 -2974.29888094641773932 1.00000000000000000 -0.00000000000000000 
1 0.00000000000000000 0.00000000000000000 1.00000000000000000 -0.00000000000000000 
1 0.00000000000000000 -2974.29888094641773932 1.00000000000000000 -0.00000000000000000 
1 0.00000000000000000 0.00000000000000000 1.00000000000000000 -0.00000000000000000 
1 0.00000000000000000 -2974.29888094641773932 1.00000000000000000 -0.00000000000000000 
1 0.00000000000000000 0.00000000000000000 1.00000000000000000 -0.00000000000000000 
1 0.00000000000000000 -2974.29888094641773932 1.00000000000000000 -0.00000000000000000 
1 0.00000000000000000 0.00000000000000000 1.00000000000000000 -0.00000000000000000 
1 0.00000000000000000 -2974.29888094641773932 1.00000000000000000 -0.00000000000000000 
1 105.99999999999994316 -0.00000000000002763 -0.00000000000000001 -1.00000000000000000 
1 0.00000000000000000 0.00000000000000000 -0.00000000000000000 -1.00000000000000000 
1 0.00000000000000000 0.00000000000000000 1.00000000000000000 0.00000000000000000 
1 -0.00000000000009325 -2974.29888094641773932 1.00000000000000000 0.00000000000000000 
1 0.00000000000000000 0.00000000000000000 1.00000000000000000 0.00000000000000000 
1 -0.00000000000009325 -2974.29888094641773932 1.00000000000000000 0.00000000000000000 
1 0.00000000000000000 0.00000000000000000 1.00000000000000000 0.00000000000000000 
1 -0.00000000000009325 -2974.29888094641773932 1.00000000000000000 0.00000000000000000 
1 0.00000000000000000 0.00000000000000000 1.00000000000000000 0.00000000000000000 
1 -0.00000000000009325 -2974.29888094641773932 1.00000000000000000 0.00000000000000000 
1 0.00000000000000000 0.00000000000000000 1.00000000000000000 0.00000000000000000 
1 -0.00000000000009325 -2974.29888094641773932 1.00000000000000000 0.00000000000000000 
1 0.00000000000000000 0.00000000000000000 0.00000000000000001 -1.00000000000000000 
1 14.99999999999995381 0.00000000000002665 -0.00000000000000000 -1.00000000000000000 
1 0.00000000000000000 0.00000000000000000 1.00000000000000000 0.00000000000000000 
1 -0.00000000000000000 -2974.29888094641773932 1.00000000000000000 0.00000000000000000 
1 0.00000000000000000 0.00000000000000000 1.00000000000000000 0.00000000000000000 
1 -0.00000000000000000 -2974.29888094641773932 1.00000000000000000 0.00000000000000000 
1 0.00000000000000000 0.00000000000000000 1.00000000000000000 0.00000000000000000 
1 -0.00000000000000000 -2974.29888094641773932 1.00000000000000000 0.00000000000000000 
1 0.00000000000000000 0.00000000000000000 1.00000000000000000 0.00000000000000000 
1 -0.00000000000000000 -2974.29888094641773932 1.00000000000000000 0.00000000000000000 
1 0.00000000000000000 0.00000000000000000 1.00000000000000000 0.00000000000000000 
1 -0.00000000000000000 -2974.29888094641773932 1.00000000000000000 0.00000000000000000 
1 6.28318530717959778 0.00000000000000000 0.00000000000000000 -1.00000000000000000 
1 110.99999999999994316 0.00000000000002894 0.00000000000000001 -1.00000000000000000 
1 0.00000000000000000 0.00000000000000000 1.00000000000000000 0.00000000000000000 
1 0.00000000000003640 -2974.29888094641773932 1.00000000000000000 0.00000000000000000 
1 0.00000000000000000 0.00000000000000000 1.00000000000000000 0.00000000000000000 
1 0.00000000000003640 -2974.29888094641773932 1.00000000000000000 0.00000000000000000 
1 0.00000000000000000 0.00000000000000000 1.00000000000000000 0.00000000000000000 
1 0.00000000000003640 -2974.29888094641773932 1.00000000000000000 0.00000000000000000 
1 0.00000000000000000 0.00000000000000000 1.00000000000000000 0.00000000000000000 
1 0.00000000000003640 -2974.29888094641773932 1.00000000000000000 0.00000000000000000 
1 0.00000000000000000 0.00000000000000000 1.00000000000000000 0.00000000000000000 
1 0.00000000000003640 -2974.29888094641773932 1.00000000000000000 0.00000000000000000 
1 0.00000000000000000 0.00000000000000000 1.00000000000000000 0.00000000000000000 
1 0.00000000000000000 -2974.29888094641773932 1.00000000000000000 0.00000000000000000 
1 0.00000000000000000 0.00000000000000000 1.00000000000000000 0.00000000000000000 
1 0.00000000000000000 -2974.29888094641773932 1.00000000000000000 0.00000000000000000 
1 0.00000000000000000 0.00000000000000000 1.00000000000000000 0.00000000000000000 
1 0.00000000000000000 -2974.29888094641773932 1.00000000000000000 0.00000000000000000 
1 0.00000000000000000 0.00000000000000000 1.00000000000000000 0.00000000000000000 
1 0.00000000000000000 -2974.29888094641773932 1.00000000000000000 0.00000000000000000 
1 0.00000000000000000 0.00000000000000000 1.00000000000000000 0.00000000000000000 
1 0.00000000000000000 -2974.29888094641773932 1.00000000000000000 0.00000000000000000 
1 -0.00000000000001100 0.00000000000000000 0.00000000000000000 -1.00000000000000000 
1 0.00000000000000000 0.00000000000000000 0.00000000000000001 -1.00000000000000000 
1 75.00000000004706635 0.00000000000001955 0.00000000000000001 -1.00000000000000000 
1 0.00000000000000000 0.00000000000000000 0.00000000000000000 -1.00000000000000000 
1 0.00000000000000000 0.00000000000000000 1.00000000000000000 0.00000000000000000 
1 -0.00000000000013413 -2974.29888094641773932 1.00000000000000000 0.00000000000000000 
1 0.00000000000000000 0.00000000000000000 1.00000000000000000 0.00000000000000000 
1 -0.00000000000013413 -2974.29888094641773932 1.00000000000000000 0.00000000000000000 
1 0.00000000000000000 0.00000000000000000 1.00000000000000000 0.00000000000000000 
1 -0.00000000000013413 -2974.29888094641773932 1.00000000000000000 0.00000000000000000 
1 0.00000000000000000 0.00000000000000000 1.00000000000000000 0.00000000000000000 
1 -0.00000000000013413 -2974.29888094641773932 1.00000000000000000 0.00000000000000000 
1 0.00000000000000000 0.00000000000000000 1.00000000000000000 0.00000000000000000 
1 -0.00000000000013413 -2974.29888094641773932 1.00000000000000000 0.00000000000000000 
1 14.99999999999995381 -0.00000000000002665 0.00000000000000000 -1.00000000000000000 
1 70.00000000004706635 0.00000000000001825 0.00000000000000001 -1.00000000000000000 
1 0.00000000000000000 0.00000000000000000 1.00000000000000000 -0.00000000000000000 
1 0.00000000000000000 -2974.29888094641773932 1.00000000000000000 -0.00000000000000000 
1 0.00000000000000000 0.00000000000000000 1.00000000000000000 -0.00000000000000000 
1 0.00000000000000000 -2974.29888094641773932 1.00000000000000000 -0.00000000000000000 
1 0.00000000000000000 0.00000000000000000 1.00000000000000000 -0.00000000000000000 
1 0.00000000000000000 -2974.29888094641773932 1.00000000000000000 -0.00000000000000000 
1 0.00000000000000000 0.00000000000000000 1.00000000000000000 -0.00000000000000000 
1 0.00000000000000000 -2974.29888094641773932 1.00000000000000000 -0.00000000000000000 
1 0.00000000000000000 0.00000000000000000 1.00000000000000000 -0.00000000000000000 
1 0.00000000000000000 -2974.29888094641773932 1.00000000000000000 -0.00000000000000000 
1 0.00000000000000000 0.00000000000000000 0.00000000000000001 -1.00000000000000000 
1 0.00000000000000000 0.00000000000000000 -0.00000000000000000 -1.00000000000000000 
1 0.00000000000000000 0.00000000000000000 1.00000000000000000 0.00000000000000000 
1 -0.00000000000013413 -2974.29888094641773932 1.00000000000000000 0.00000000000000000 
1 0.00000000000000000 0.00000000000000000 1.00000000000000000 0.00000000000000000 
1 -0.00000000000013413 -2974.29888094641773932 1.00000000000000000 0.00000000000000000 
1 0.00000000000000000 0.00000000000000000 1.00000000000000000 0.00000000000000000 
1 -0.00000000000013413 -2974.29888094641773932 1.00000000000000000 0.00000000000000000 
1 0.00000000000000000 0.00000000000000000 1.00000000000000000 0.00000000000000000 
1 -0.00000000000013413 -2974.29888094641773932 1.00000000000000000 0.00000000000000000 
1 0.00000000000000000 0.00000000000000000 1.00000000000000000 0.00000000000000000 
1 -0.00000000000013413 -2974.29888094641773932 1.00000000000000000 0.00000000000000000 
1 1.57079632681829806 0.00000000000000000 0.00000000000000000 -1.00000000000000000 
1 9.99999999988299315 0.00000000000007816 -0.00000000000000000 -1.00000000000000000 
1 0.00000000000000000 0.00000000000000000 1.00000000000000000 0.00000000000000000 
1 -0.00000000000000000 -2974.29888094641773932 1.00000000000000000 0.00000000000000000 
1 0.00000000000000000 0.00000000000000000 1.00000000000000000 0.00000000000000000 
1 -0.00000000000000000 -2974.29888094641773932 1.00000000000000000 0.00000000000000000 
1 0.00000000000000000 0.00000000000000000 1.00000000000000000 0.00000000000000000 
1 -0.00000000000000000 -2974.29888094641773932 1.00000000000000000 0.00000000000000000 
1 0.00000000000000000 0.00000000000000000 1.00000000000000000 0.00000000000000000 
1 -0.00000000000000000 -2974.29888094641773932 1.00000000000000000 0.00000000000000000 
1 0.00000000000000000 0.00000000000000000 1.00000000000000000 0.00000000000000000 
1 -0.00000000000000000 -2974.29888094641773932 1.00000000000000000 0.00000000000000000 
1 0.00000000000000000 0.00000000000000000 1.00000000000000000 0.00000000000000000 
1 0.00000000000000000 -2974.29888094641773932 1.00000000000000000 0.00000000000000000 
1 0.00000000000000000 0.00000000000000000 1.00000000000000000 0.00000000000000000 
1 0.00000000000000000 -2974.29888094641773932 1.00000000000000000 0.00000000000000000 
1 0.00000000000000000 0.00000000000000000 1.00000000000000000 0.00000000000000000 
1 0.00000000000000000 -2974.29888094641773932 1.00000000000000000 0.00000000000000000 
1 0.00000000000000000 0.00000000000000000 1.00000000000000000 0.00000000000000000 
1 0.00000000000000000 -2974.29888094641773932 1.00000000000000000 0.00000000000000000 
1 0.00000000000000000 0.00000000000000000 1.00000000000000000 0.00000000000000000 
1 0.00000000000000000 -2974.29888094641773932 1.00000000000000000 0.00000000000000000 
Curves 20
1 -720.41446619876012392 -1296.37329628874999798 516.00000000000034106 0.50000000000000011 0.86602540378443871 -0.00000000000000025 
1 -729.07472023660443483 -1291.37329628874999798 516.00000000000034106 0.50000000000000011 0.86602540378443871 -0.00000000000000025 
1 9.99999999999999822 516.00000000000000000 0.00000000000000000 -1.00000000000000000 0.00000000000000000 0.00000000000000000 
1 -729.07472023660443483 -1291.37329628874999798 410.00000000000039790 0.50000000000000011 0.86602540378443871 -0.00000000000000025 
1 0.00000000000000000 516.00000000000000000 0.00000000000000000 0.00000000000000000 -1.00000000000000000 0.00000000000000000 
1 -716.08433917983791162 -1298.87329628874999798 410.00000000000039790 0.50000000000000011 0.86602540378443871 -0.00000000000000025 
1 0.00000000000000000 410.00000000000000000 0.00000000000000000 1.00000000000000000 0.00000000000000000 0.00000000000000000 
1 -716.08433917983791162 -1298.87329628874999798 521.00000000000034106 0.50000000000000011 0.86602540378443871 -0.00000000000000025 
1 15.00000000000000000 410.00000000000000000 0.00000000000000000 0.00000000000000000 1.00000000000000000 0.00000000000000000 
2 10.00000000000000000 521.00000000000000000 0.00000000000000000 0.00000000000000000 0.00000000000000000 1.00000000000000000 1.00000000000000000 0.00000000000000000 -0.00000000000000000 -0.00000000000000000 1.00000000000000000 0.00000000000000000 5.00000000000000000
1 -716.08433917983791162 -1298.87329628874977061 1352.99999999995338840 0.50000000000000011 0.86602540378443871 -0.00000000000000025 
1 -716.08433917983791162 -1298.87329628874977061 1428.00000000000045475 0.50000000000000011 0.86602540378443871 -0.00000000000000025 
1 15.00000000000000000 1352.99999999995293365 0.00000000000000000 0.00000000000000000 1.00000000000000000 0.00000000000000000 
1 -729.07472023660443483 -1291.37329628874977061 1428.00000000000045475 0.50000000000000011 0.86602540378443871 -0.00000000000000025 
1 15.00000000000000000 1428.00000000000000000 0.00000000000000000 -1.00000000000000000 0.00000000000000000 0.00000000000000000 
1 -729.07472023660443483 -1291.37329628874977061 1357.99999999995338840 0.50000000000000011 0.86602540378443871 -0.00000000000000025 
1 0.00000000000000000 1357.99999999995293365 0.00000000000000000 0.00000000000000000 1.00000000000000000 0.00000000000000000 
1 -720.41446619886141889 -1296.37329628869133558 1357.99999999995338840 0.50000000000000011 0.86602540378443871 -0.00000000000000025 
1 0.00000000000000000 1357.99999999995293365 0.00000000000000000 1.00000000000000000 0.00000000000000000 0.00000000000000000 
2 10.00000000000000000 1352.99999999995293365 0.00000000000000000 0.00000000000000000 0.00000000000000000 1.00000000000000000 1.00000000000000000 0.00000000000000000 -0.00000000000000000 -0.00000000000000000 1.00000000000000000 0.00000000000000000 5.00000000000000000
Polygon3D 0
PolygonOnTriangulations 0
Surfaces 52
1 -720.41446619876012392 -1296.37329628874999798 516.00000000000034106 -0.00000000000000004 0.00000000000000031 1.00000000000000000 -0.86602540378443871 0.50000000000000011 -0.00000000000000019 -0.50000000000000011 -0.86602540378443871 0.00000000000000025 
2 -720.41446619876001023 -1296.37329628874999798 521.00000000000034106 -0.50000000000000011 -0.86602540378443871 0.00000000000000026 0.86602540378443871 -0.50000000000000011 0.00000000000000019 -0.00000000000000003 0.00000000000000032 1.00000000000000000 5.00000000000000000
1 -729.07472023660443483 -1291.37329628874999798 516.00000000000034106 -0.86602540378443871 0.50000000000000011 -0.00000000000000019 0.00000000000000004 -0.00000000000000032 -1.00000000000000000 -0.50000000000000011 -0.86602540378443871 0.00000000000000026 
1 -720.41446619876012392 -1296.37329628874999798 516.00000000000034106 -0.00000000000000004 0.00000000000000031 1.00000000000000000 -0.86602540378443871 0.50000000000000011 -0.00000000000000019 -0.50000000000000011 -0.86602540378443871 0.00000000000000025 
1 -720.41446619876012392 -1296.37329628874999798 516.00000000000034106 -0.00000000000000004 0.00000000000000031 1.00000000000000000 -0.86602540378443871 0.50000000000000011 -0.00000000000000019 -0.50000000000000011 -0.86602540378443871 0.00000000000000025 
1 -720.41446619876012392 -1296.37329628874999798 516.00000000000034106 -0.00000000000000004 0.00000000000000031 1.00000000000000000 -0.86602540378443871 0.50000000000000011 -0.00000000000000019 -0.50000000000000011 -0.86602540378443871 0.00000000000000025 
1 -720.41446619876012392 -1296.37329628874999798 516.00000000000034106 -0.00000000000000004 0.00000000000000031 1.00000000000000000 -0.86602540378443871 0.50000000000000011 -0.00000000000000019 -0.50000000000000011 -0.86602540378443871 0.00000000000000025 
1 -729.07472023660443483 -1291.37329628874999798 410.00000000000039790 0.00000000000000004 -0.00000000000000031 -1.00000000000000000 0.86602540378443871 -0.50000000000000011 0.00000000000000019 -0.50000000000000011 -0.86602540378443871 0.00000000000000025 
1 -729.07472023660443483 -1291.37329628874999798 516.00000000000034106 -0.86602540378443871 0.50000000000000011 -0.00000000000000019 0.00000000000000004 -0.00000000000000032 -1.00000000000000000 -0.50000000000000011 -0.86602540378443871 0.00000000000000026 
1 -729.07472023660443483 -1291.37329628874999798 516.00000000000034106 -0.86602540378443871 0.50000000000000011 -0.00000000000000019 0.00000000000000004 -0.00000000000000032 -1.00000000000000000 -0.50000000000000011 -0.86602540378443871 0.00000000000000026 
1 -729.07472023660443483 -1291.37329628874999798 516.00000000000034106 -0.86602540378443871 0.50000000000000011 -0.00000000000000019 0.00000000000000004 -0.00000000000000032 -1.00000000000000000 -0.50000000000000011 -0.86602540378443871 0.00000000000000026 
1 -729.07472023660443483 -1291.37329628874999798 516.00000000000034106 -0.86602540378443871 0.50000000000000011 -0.00000000000000019 0.00000000000000004 -0.00000000000000032 -1.00000000000000000 -0.50000000000000011 -0.86602540378443871 0.00000000000000026 
1 -716.08433917983791162 -1298.87329628874999798 410.00000000000039790 0.86602540378443871 -0.50000000000000011 0.00000000000000019 -0.00000000000000004 0.00000000000000032 1.00000000000000000 -0.50000000000000011 -0.86602540378443871 0.00000000000000026 
1 -729.07472023660443483 -1291.37329628874999798 410.00000000000039790 0.00000000000000004 -0.00000000000000031 -1.00000000000000000 0.86602540378443871 -0.50000000000000011 0.00000000000000019 -0.50000000000000011 -0.86602540378443871 0.00000000000000025 
1 -729.07472023660443483 -1291.37329628874999798 410.00000000000039790 0.00000000000000004 -0.00000000000000031 -1.00000000000000000 0.86602540378443871 -0.50000000000000011 0.00000000000000019 -0.50000000000000011 -0.86602540378443871 0.00000000000000025 
1 -729.07472023660443483 -1291.37329628874999798 410.00000000000039790 0.00000000000000004 -0.00000000000000031 -1.00000000000000000 0.86602540378443871 -0.50000000000000011 0.00000000000000019 -0.50000000000000011 -0.86602540378443871 0.00000000000000025 
1 -729.07472023660443483 -1291.37329628874999798 410.00000000000039790 0.00000000000000004 -0.00000000000000031 -1.00000000000000000 0.86602540378443871 -0.50000000000000011 0.00000000000000019 -0.50000000000000011 -0.86602540378443871 0.00000000000000025 
1 -716.08433917983791162 -1298.87329628874999798 410.00000000000039790 0.86602540378443871 -0.50000000000000011 0.00000000000000019 -0.00000000000000004 0.00000000000000032 1.00000000000000000 -0.50000000000000011 -0.86602540378443871 0.00000000000000026 
1 -716.08433917983791162 -1298.87329628874999798 410.00000000000039790 0.86602540378443871 -0.50000000000000011 0.00000000000000019 -0.00000000000000004 0.00000000000000032 1.00000000000000000 -0.50000000000000011 -0.86602540378443871 0.00000000000000026 
1 -716.08433917983791162 -1298.87329628874999798 410.00000000000039790 0.86602540378443871 -0.50000000000000011 0.00000000000000019 -0.00000000000000004 0.00000000000000032 1.00000000000000000 -0.50000000000000011 -0.86602540378443871 0.00000000000000026 
1 -716.08433917983791162 -1298.87329628874999798 410.00000000000039790 0.86602540378443871 -0.50000000000000011 0.00000000000000019 -0.00000000000000004 0.00000000000000032 1.00000000000000000 -0.50000000000000011 -0.86602540378443871 0.00000000000000026 
2 -720.41446619876001023 -1296.37329628874999798 521.00000000000034106 -0.50000000000000011 -0.86602540378443871 0.00000000000000026 0.86602540378443871 -0.50000000000000011 0.00000000000000019 -0.00000000000000003 0.00000000000000032 1.00000000000000000 5.00000000000000000
2 -720.41446619876001023 -1296.37329628874999798 521.00000000000034106 -0.50000000000000011 -0.86602540378443871 0.00000000000000026 0.86602540378443871 -0.50000000000000011 0.00000000000000019 -0.00000000000000003 0.00000000000000032 1.00000000000000000 5.00000000000000000
2 -720.41446619876001023 -1296.37329628874999798 521.00000000000034106 -0.50000000000000011 -0.86602540378443871 0.00000000000000026 0.86602540378443871 -0.50000000000000011 0.00000000000000019 -0.00000000000000003 0.00000000000000032 1.00000000000000000 5.00000000000000000
2 -720.41446619876001023 -1296.37329628874999798 521.00000000000034106 -0.50000000000000011 -0.86602540378443871 0.00000000000000026 0.86602540378443871 -0.50000000000000011 0.00000000000000019 -0.00000000000000003 0.00000000000000032 1.00000000000000000 5.00000000000000000
1 21.22230494185492233 -7.34522618289219587 850.01645599042728918 0.50000000000000000 0.86602540378443871 -0.00000000000000026 0.86602540378443871 -0.50000000000000000 0.00000000000000000 -0.00000000000000013 -0.00000000000000023 -1.00000000000000000 
1 -716.08433917983791162 -1298.87329628874977061 1352.99999999995338840 0.86602540378443871 -0.50000000000000011 0.00000000000000019 -0.00000000000000004 0.00000000000000032 1.00000000000000000 -0.50000000000000011 -0.86602540378443871 0.00000000000000026 
2 -720.41446619876012392 -1296.37329628874977061 1352.99999999995338840 -0.50000000000000011 -0.86602540378443871 0.00000000000000026 0.86602540378443871 -0.50000000000000011 0.00000000000000019 -0.00000000000000003 0.00000000000000032 1.00000000000000000 5.00000000000000000
1 -716.08433917983791162 -1298.87329628874977061 1428.00000000000045475 -0.00000000000000004 0.00000000000000031 1.00000000000000000 -0.86602540378443871 0.50000000000000011 -0.00000000000000019 -0.50000000000000011 -0.86602540378443871 0.00000000000000025 
1 -716.08433917983791162 -1298.87329628874977061 1352.99999999995338840 0.86602540378443871 -0.50000000000000011 0.00000000000000019 -0.00000000000000004 0.00000000000000032 1.00000000000000000 -0.50000000000000011 -0.86602540378443871 0.00000000000000026 
1 -716.08433917983791162 -1298.87329628874977061 1352.99999999995338840 0.86602540378443871 -0.50000000000000011 0.00000000000000019 -0.00000000000000004 0.00000000000000032 1.00000000000000000 -0.50000000000000011 -0.86602540378443871 0.00000000000000026 
1 -716.08433917983791162 -1298.87329628874977061 1352.99999999995338840 0.86602540378443871 -0.50000000000000011 0.00000000000000019 -0.00000000000000004 0.00000000000000032 1.00000000000000000 -0.50000000000000011 -0.86602540378443871 0.00000000000000026 
1 -716.08433917983791162 -1298.87329628874977061 1352.99999999995338840 0.86602540378443871 -0.50000000000000011 0.00000000000000019 -0.00000000000000004 0.00000000000000032 1.00000000000000000 -0.50000000000000011 -0.86602540378443871 0.00000000000000026 
1 -729.07472023660443483 -1291.37329628874977061 1357.99999999995338840 0.86602540378443871 -0.50000000000000011 0.00000000000000019 -0.00000000000000004 0.00000000000000032 1.00000000000000000 -0.50000000000000011 -0.86602540378443871 0.00000000000000026 
1 -716.08433917983791162 -1298.87329628874977061 1428.00000000000045475 -0.00000000000000004 0.00000000000000031 1.00000000000000000 -0.86602540378443871 0.50000000000000011 -0.00000000000000019 -0.50000000000000011 -0.86602540378443871 0.00000000000000025 
1 -716.08433917983791162 -1298.87329628874977061 1428.00000000000045475 -0.00000000000000004 0.00000000000000031 1.00000000000000000 -0.86602540378443871 0.50000000000000011 -0.00000000000000019 -0.50000000000000011 -0.86602540378443871 0.00000000000000025 
1 -716.08433917983791162 -1298.87329628874977061 1428.00000000000045475 -0.00000000000000004 0.00000000000000031 1.00000000000000000 -0.86602540378443871 0.50000000000000011 -0.00000000000000019 -0.50000000000000011 -0.86602540378443871 0.00000000000000025 
1 -716.08433917983791162 -1298.87329628874977061 1428.00000000000045475 -0.00000000000000004 0.00000000000000031 1.00000000000000000 -0.86602540378443871 0.50000000000000011 -0.00000000000000019 -0.50000000000000011 -0.86602540378443871 0.00000000000000025 
1 -729.07472023660443483 -1291.37329628874977061 1357.99999999995338840 0.00000000000000004 -0.00000000000000031 -1.00000000000000000 0.86602540378443871 -0.50000000000000011 0.00000000000000019 -0.50000000000000011 -0.86602540378443871 0.00000000000000025 
1 -729.07472023660443483 -1291.37329628874977061 1357.99999999995338840 0.86602540378443871 -0.50000000000000011 0.00000000000000019 -0.00000000000000004 0.00000000000000032 1.00000000000000000 -0.50000000000000011 -0.86602540378443871 0.00000000000000026 
1 -729.07472023660443483 -1291.37329628874977061 1357.99999999995338840 0.86602540378443871 -0.50000000000000011 0.00000000000000019 -0.00000000000000004 0.00000000000000032 1.00000000000000000 -0.50000000000000011 -0.86602540378443871 0.00000000000000026 
1 -729.07472023660443483 -1291.37329628874977061 1357.99999999995338840 0.86602540378443871 -0.50000000000000011 0.00000000000000019 -0.00000000000000004 0.00000000000000032 1.00000000000000000 -0.50000000000000011 -0.86602540378443871 0.00000000000000026 
1 -729.07472023660443483 -1291.37329628874977061 1357.99999999995338840 0.86602540378443871 -0.50000000000000011 0.00000000000000019 -0.00000000000000004 0.00000000000000032 1.00000000000000000 -0.50000000000000011 -0.86602540378443871 0.00000000000000026 
1 -729.07472023660443483 -1291.37329628874977061 1357.99999999995338840 0.00000000000000004 -0.00000000000000031 -1.00000000000000000 0.86602540378443871 -0.50000000000000011 0.00000000000000019 -0.50000000000000011 -0.86602540378443871 0.00000000000000025 
1 -729.07472023660443483 -1291.37329628874977061 1357.99999999995338840 0.00000000000000004 -0.00000000000000031 -1.00000000000000000 0.86602540378443871 -0.50000000000000011 0.00000000000000019 -0.50000000000000011 -0.86602540378443871 0.00000000000000025 
1 -729.07472023660443483 -1291.37329628874977061 1357.99999999995338840 0.00000000000000004 -0.00000000000000031 -1.00000000000000000 0.86602540378443871 -0.50000000000000011 0.00000000000000019 -0.50000000000000011 -0.86602540378443871 0.00000000000000025 
1 -729.07472023660443483 -1291.37329628874977061 1357.99999999995338840 0.00000000000000004 -0.00000000000000031 -1.00000000000000000 0.86602540378443871 -0.50000000000000011 0.00000000000000019 -0.50000000000000011 -0.86602540378443871 0.00000000000000025 
2 -720.41446619876012392 -1296.37329628874977061 1352.99999999995338840 -0.50000000000000011 -0.86602540378443871 0.00000000000000026 0.86602540378443871 -0.50000000000000011 0.00000000000000019 -0.00000000000000003 0.00000000000000032 1.00000000000000000 5.00000000000000000
2 -720.41446619876012392 -1296.37329628874977061 1352.99999999995338840 -0.50000000000000011 -0.86602540378443871 0.00000000000000026 0.86602540378443871 -0.50000000000000011 0.00000000000000019 -0.00000000000000003 0.00000000000000032 1.00000000000000000 5.00000000000000000
2 -720.41446619876012392 -1296.37329628874977061 1352.99999999995338840 -0.50000000000000011 -0.86602540378443871 0.00000000000000026 0.86602540378443871 -0.50000000000000011 0.00000000000000019 -0.00000000000000003 0.00000000000000032 1.00000000000000000 5.00000000000000000
2 -720.41446619876012392 -1296.37329628874977061 1352.99999999995338840 -0.50000000000000011 -0.86602540378443871 0.00000000000000026 0.86602540378443871 -0.50000000000000011 0.00000000000000019 -0.00000000000000003 0.00000000000000032 1.00000000000000000 5.00000000000000000
1 21.22230494185492233 -7.34522618289219587 850.01645599042728918 0.50000000000000000 0.86602540378443871 -0.00000000000000026 0.86602540378443871 -0.50000000000000000 0.00000000000000000 -0.00000000000000013 -0.00000000000000023 -1.00000000000000000 
Triangulations 0

TShapes 59
Ve
0.000000100000000
9.999999999999998 516.000000000000000 0.000000000000000
0 0

0101101
*
Ed
 0.000000100000000 1 1 0
1  1 0 0.000000000000000 2974.298880946417739
2  1 2 0 0.000000000000000 2974.298880946417739
4 G1 1 0 2 0
2  2 1 0 0.000000000000000 2974.298880946417739
0

0101000
+59 5 -59 7 *
Ve
0.000000100000000
0.000000000000000 516.000000000000000 0.000000000000000
0 0

0101101
*
Ed
 0.000000100000000 1 1 0
1  2 0 0.000000000000000 2974.298880946417739
2  3 3 0 0.000000000000000 2974.298880946417739
2  4 1 0 0.000000000000000 2974.298880946417739
0

0101000
+57 5 -57 7 *
Ed
 0.000000100000000 1 1 0
1  3 0 0.000000000000000 9.999999999999998
2  5 4 12 0.000000000000000 9.999999999999998
2  6 4 14 0.000000000000000 9.999999999999998
2  7 5 19 0.000000000000000 9.999999999999998
2  8 5 21 0.000000000000000 9.999999999999998
2  9 6 26 0.000000000000000 9.999999999999998
2  10 6 28 0.000000000000000 9.999999999999998
2  11 7 33 0.000000000000000 9.999999999999998
2  12 7 35 0.000000000000000 9.999999999999998
2  13 1 36 0.000000000000000 9.999999999999998
2  14 1 37 0.000000000000000 9.999999999999998
0

0101000
+59 0 -57 0 *
Wi

0101100
+58 0 -56 0 -55 5 +55 7 *
Fa
0  0.000000100000000 1 0

0111000
+54 0 *
Ve
0.000000100000000
0.000000000000000 410.000000000000000 0.000000000000000
0 0

0101101
*
Ed
 0.000000100000000 1 1 0
1  4 0 0.000000000000000 2974.298880946417739
2  15 3 0 0.000000000000000 2974.298880946417739
2  16 8 0 0.000000000000000 2974.298880946417739
0

0101000
+52 5 -52 7 *
Ed
 0.000000100000000 1 1 0
1  5 0 0.000000000000000 106.000000000000000
2  17 9 12 0.000000000000000 106.000000000000000
2  18 9 14 0.000000000000000 106.000000000000000
2  19 10 19 0.000000000000000 106.000000000000000
2  20 10 21 0.000000000000000 106.000000000000000
2  21 11 26 0.000000000000000 106.000000000000000
2  22 11 28 0.000000000000000 106.000000000000000
2  23 12 33 0.000000000000000 106.000000000000000
2  24 12 35 0.000000000000000 106.000000000000000
2  25 3 36 0.000000000000000 106.000000000000000
2  26 3 37 0.000000000000000 106.000000000000000
0

0101000
+57 0 -52 0 *
Wi

0101100
+56 0 -51 0 -50 5 +50 7 *
Fa
0  0.000000100000000 3 0

0111000
+49 0 *
Ve
0.000000100000000
15.000000000000000 410.000000000000000 0.000000000000000
0 0

0101101
*
Ed
 0.000000100000000 1 1 0
1  6 0 0.000000000000000 2974.298880946417739
2  27 13 0 0.000000000000000 2974.298880946417739
2  28 8 0 0.000000000000000 2974.298880946417739
0

0101000
+47 5 -47 7 *
Ed
 0.000000100000000 1 1 0
1  7 0 0.000000000000000 15.000000000000000
2  29 14 12 0.000000000000000 15.000000000000000
2  30 14 14 0.000000000000000 15.000000000000000
2  31 15 19 0.000000000000000 15.000000000000000
2  32 15 21 0.000000000000000 15.000000000000000
2  33 16 26 0.000000000000000 15.000000000000000
2  34 16 28 0.000000000000000 15.000000000000000
2  35 17 33 0.000000000000000 15.000000000000000
2  36 17 35 0.000000000000000 15.000000000000000
2  37 8 36 0.000000000000000 15.000000000000000
2  38 8 37 0.000000000000000 15.000000000000000
0

0101000
+52 0 -47 0 *
Wi

0101100
+51 0 -46 0 -45 5 +45 7 *
Fa
0  0.000000100000000 8 0

0111000
+44 0 *
Ve
0.000000100000000
15.000000000000000 521.000000000000000 0.000000000000000
0 0

0101101
*
Ed
 0.000000100000000 1 1 0
1  8 0 0.000000000000000 2974.298880946417739
2  39 2 0 0.000000000000000 2974.298880946417739
2  40 13 0 0.000000000000000 2974.298880946417739
0

0101000
+42 5 -42 7 *
Ed
 0.000000100000000 1 1 0
1  9 0 0.000000000000000 111.000000000000000
2  41 18 12 0.000000000000000 111.000000000000000
2  42 18 14 0.000000000000000 111.000000000000000
2  43 19 19 0.000000000000000 111.000000000000000
2  44 19 21 0.000000000000000 111.000000000000000
2  45 20 26 0.000000000000000 111.000000000000000
2  46 20 28 0.000000000000000 111.000000000000000
2  47 21 33 0.000000000000000 111.000000000000000
2  48 21 35 0.000000000000000 111.000000000000000
2  49 13 36 0.000000000000000 111.000000000000000
2  50 13 37 0.000000000000000 111.000000000000000
0

0101000
+47 0 -42 0 *
Wi

0101100
+46 0 -41 0 -40 5 +40 7 *
Fa
0  0.000000100000000 13 0

0111000
+39 0 *
Ed
 0.000000100000000 1 1 0
1  10 0 4.712388980384690 6.283185307179598
2  51 22 12 4.712388980384690 6.283185307179598
2  52 22 14 4.712388980384690 6.283185307179598
2  53 23 19 4.712388980384690 6.283185307179598
2  54 23 21 4.712388980384690 6.283185307179598
2  55 24 26 4.712388980384690 6.283185307179598
2  56 24 28 4.712388980384690 6.283185307179598
2  57 25 33 4.712388980384690 6.283185307179598
2  58 25 35 4.712388980384690 6.283185307179598
2  59 2 36 4.712388980384690 6.283185307179598
2  60 2 37 4.712388980384690 6.283185307179598
0

0101000
+59 0 -42 0 *
Wi

0101100
+58 0 -41 0 -37 5 +37 7 *
Fa
0  0.000000100000000 2 0

0111000
+36 0 *
Wi

0101100
+55 0 +50 0 +45 0 +40 0 -37 0 *
Fa
0  0.000000100000000 26 0

0111000
-34 39 *
Sh

0101100
-53 0 -48 0 -43 0 -38 0 +35 0 +33 38 -33 40 *
So

0100000
-32 0 *
Ve
0.000000100000000
15.000000000000000 1352.999999999952934 0.000000000000000
0 0

0101101
*
Ed
 0.000000100000000 1 1 0
1  11 0 0.000000000000000 2974.298880946417739
2  61 28 0 0.000000000000000 2974.298880946417739
2  62 27 0 0.000000000000000 2974.298880946417739
0

0101000
+30 5 -30 7 *
Ve
0.000000100000000
15.000000000000000 1428.000000000000000 0.000000000000000
0 0

0101101
*
Ed
 0.000000100000000 1 1 0
1  12 0 0.000000000000000 2974.298880946417739
2  63 27 0 0.000000000000000 2974.298880946417739
2  64 29 0 0.000000000000000 2974.298880946417739
0

0101000
+28 5 -28 7 *
Ed
 0.000000100000000 1 1 0
1  13 0 0.000000000000000 75.000000000047066
2  65 30 12 0.000000000000000 75.000000000047066
2  66 30 14 0.000000000000000 75.000000000047066
2  67 31 19 0.000000000000000 75.000000000047066
2  68 31 21 0.000000000000000 75.000000000047066
2  69 32 26 0.000000000000000 75.000000000047066
2  70 32 28 0.000000000000000 75.000000000047066
2  71 33 33 0.000000000000000 75.000000000047066
2  72 33 35 0.000000000000000 75.000000000047066
2  73 27 36 0.000000000000000 75.000000000047066
2  74 27 37 0.000000000000000 75.000000000047066
0

0101000
+30 0 -28 0 *
Wi

0101100
+29 0 -27 0 -26 5 +26 7 *
Fa
0  0.000000100000000 27 0

0111000
+25 0 *
Ve
0.000000100000000
0.000000000000000 1428.000000000000000 0.000000000000000
0 0

0101101
*
Ed
 0.000000100000000 1 1 0
1  14 0 0.000000000000000 2974.298880946417739
2  75 29 0 0.000000000000000 2974.298880946417739
2  76 34 0 0.000000000000000 2974.298880946417739
0

0101000
+23 5 -23 7 *
Ed
 0.000000100000000 1 1 0
1  15 0 0.000000000000000 15.000000000000000
2  77 35 12 0.000000000000000 15.000000000000000
2  78 35 14 0.000000000000000 15.000000000000000
2  79 36 19 0.000000000000000 15.000000000000000
2  80 36 21 0.000000000000000 15.000000000000000
2  81 37 26 0.000000000000000 15.000000000000000
2  82 37 28 0.000000000000000 15.000000000000000
2  83 38 33 0.000000000000000 15.000000000000000
2  84 38 35 0.000000000000000 15.000000000000000
2  85 29 36 0.000000000000000 15.000000000000000
2  86 29 37 0.000000000000000 15.000000000000000
0

0101000
+28 0 -23 0 *
Wi

0101100
+27 0 -22 0 -21 5 +21 7 *
Fa
0  0.000000100000000 29 0

0111000
+20 0 *
Ve
0.000000100000000
0.000000000000000 1357.999999999952934 0.000000000000000
0 0

0101101
*
Ed
 0.000000100000000 1 1 0
1  16 0 0.000000000000000 2974.298880946417739
2  87 34 0 0.000000000000000 2974.298880946417739
2  88 39 0 0.000000000000000 2974.298880946417739
0

0101000
+18 5 -18 7 *
Ed
 0.000000100000000 1 1 0
1  17 0 0.000000000000000 70.000000000047066
2  89 40 12 0.000000000000000 70.000000000047066
2  90 40 14 0.000000000000000 70.000000000047066
2  91 41 19 0.000000000000000 70.000000000047066
2  92 41 21 0.000000000000000 70.000000000047066
2  93 42 26 0.000000000000000 70.000000000047066
2  94 42 28 0.000000000000000 70.000000000047066
2  95 43 33 0.000000000000000 70.000000000047066
2  96 43 35 0.000000000000000 70.000000000047066
2  97 34 36 0.000000000000000 70.000000000047066
2  98 34 37 0.000000000000000 70.000000000047066
0

0101000
+18 0 -23 0 *
Wi

0101100
+17 0 -22 0 -16 5 +16 7 *
Fa
0  0.000000100000000 34 0

0111000
+15 0 *
Ve
0.000000100000000
9.999999999882995 1357.999999999952934 0.000000000000000
0 0

0101101
*
Ed
 0.000000100000000 1 1 0
1  18 0 0.000000000000000 2974.298880946417739
2  99 28 0 0.000000000000000 2974.298880946417739
4 G1 39 0 28 0
2  100 39 0 0.000000000000000 2974.298880946417739
0

0101000
+13 5 -13 7 *
Ed
 0.000000100000000 1 1 0
1  19 0 0.000000000000000 9.999999999882995
2  101 44 12 0.000000000000000 9.999999999882995
2  102 44 14 0.000000000000000 9.999999999882995
2  103 45 19 0.000000000000000 9.999999999882995
2  104 45 21 0.000000000000000 9.999999999882995
2  105 46 26 0.000000000000000 9.999999999882995
2  106 46 28 0.000000000000000 9.999999999882995
2  107 47 33 0.000000000000000 9.999999999882995
2  108 47 35 0.000000000000000 9.999999999882995
2  109 39 36 0.000000000000000 9.999999999882995
2  110 39 37 0.000000000000000 9.999999999882995
0

0101000
+18 0 -13 0 *
Wi

0101100
+17 0 -12 0 -11 5 +11 7 *
Fa
0  0.000000100000000 39 0

0111000
+10 0 *
Ed
 0.000000100000000 1 1 0
1  20 0 -0.000000000000011 1.570796326818298
2  111 48 12 -0.000000000000011 1.570796326818298
2  112 48 14 -0.000000000000011 1.570796326818298
2  113 49 19 -0.000000000000011 1.570796326818298
2  114 49 21 -0.000000000000011 1.570796326818298
2  115 50 26 -0.000000000000011 1.570796326818298
2  116 50 28 -0.000000000000011 1.570796326818298
2  117 51 33 -0.000000000000011 1.570796326818298
2  118 51 35 -0.000000000000011 1.570796326818298
2  119 28 36 -0.000000000000011 1.570796326818298
2  120 28 37 -0.000000000000011 1.570796326818298
0

0101000
+30 0 -13 0 *
Wi

0101100
+29 0 -12 0 -8 5 +8 7 *
Fa
0  0.000000100000000 28 0

0111000
+7 0 *
Wi

0101100
+26 0 +21 0 -16 0 +11 0 -8 0 *
Fa
0  0.000000100000000 52 0

0111000
-5 39 *
Sh

0101100
-24 0 -19 0 +14 0 -9 0 +6 0 +4 38 -4 40 *
So

0100000
-3 0 *
Co

1100000
+31 0 +2 0 *

+1 0 