
CASCADE Topology V1, (c) Matra-Datavision
Locations 64
1
1.000000000000000 0.000000000000000 0.000000000000000 0.000000000000000 
0.000000000000000 1.000000000000000 0.000000000000000 0.000000000000000 
0.000000000000000 0.000000000000000 1.000000000000000 0.000000000000000 
1
1.000000000000000 0.000000000000000 0.000000000000000 0.000000000000000 
0.000000000000000 1.000000000000000 0.000000000000000 0.000000000000000 
0.000000000000000 0.000000000000000 1.000000000000000 0.000000000000000 
1
-0.500000000000001 0.866025403784439 0.000000000000000 0.000000000000000 
-0.866025403784439 -0.500000000000001 0.000000000000000 0.000000000000000 
0.000000000000000 0.000000000000000 1.000000000000001 0.000000000000000 
1
1.000000000000000 0.000000000000000 0.000000000000000 0.000000000000000 
0.000000000000000 1.000000000000000 0.000000000000000 0.000000000000000 
0.000000000000000 0.000000000000000 1.000000000000000 0.000000000000000 
1
1.000000000000000 0.000000000000000 0.000000000000000 0.000000000000000 
0.000000000000000 1.000000000000000 0.000000000000000 0.000000000000000 
0.000000000000000 0.000000000000000 1.000000000000000 0.000000000000000 
1
1.000000000000000 0.000000000000000 0.000000000000000 0.000000000000000 
0.000000000000000 1.000000000000000 0.000000000000000 0.000000000000000 
0.000000000000000 0.000000000000000 1.000000000000000 0.000000000000000 
1
1.000000000000000 0.000000000000000 0.000000000000000 0.000000000000000 
0.000000000000000 1.000000000000000 0.000000000000000 0.000000000000000 
0.000000000000000 0.000000000000000 1.000000000000000 0.000000000000000 
2  2 1 3 1 4 1 5 1 6 1 7 -1 0
1
1.000000000000000 0.000000000000000 0.000000000000000 0.000000000000000 
0.000000000000000 1.000000000000000 0.000000000000000 0.000000000000000 
0.000000000000000 0.000000000000000 1.000000000000000 3.000000000000000 
2  2 1 3 1 4 1 5 1 6 1 7 -1 9 1 0
1
1.000000000000000 0.000000000000000 0.000000000000000 0.000000000000000 
0.000000000000000 1.000000000000000 0.000000000000000 0.000000000000000 
0.000000000000000 0.000000000000000 1.000000000000000 0.000000000000000 
1
1.000000000000000 0.000000000000000 0.000000000000000 0.000000000000000 
0.000000000000000 1.000000000000000 0.000000000000000 0.000000000000000 
0.000000000000000 0.000000000000000 1.000000000000000 0.000000000000000 
1
1.000000000000000 0.000000000000000 0.000000000000000 0.000000000000000 
0.000000000000000 1.000000000000000 0.000000000000000 0.000000000000000 
0.000000000000000 0.000000000000000 1.000000000000000 0.000000000000000 
2  11 1 12 1 13 1 2 1 3 1 4 1 5 1 6 1 7 -1 0
2  7 1 6 -1 5 -1 4 -1 3 -1 2 -1 13 -1 12 -1 11 -1 0
2  9 -1 7 1 6 -1 5 -1 4 -1 3 -1 2 -1 13 -1 12 -1 11 -1 0
1
1.000000000000000 0.000000000000000 0.000000000000000 0.000000000000000 
0.000000000000000 1.000000000000000 0.000000000000000 0.000000000000000 
0.000000000000000 0.000000000000000 1.000000000000000 0.000000000000000 
2  7 1 6 -1 5 -1 4 -1 17 -1 2 -1 13 -1 12 -1 11 -1 0
2  9 -1 7 1 6 -1 5 -1 4 -1 17 -1 2 -1 13 -1 12 -1 11 -1 0
2  4 -1 3 -1 2 -1 13 -1 12 -1 11 -1 0
2  4 -1 17 -1 2 -1 13 -1 12 -1 11 -1 0
2  13 -1 12 -1 11 -1 0
2  11 1 12 1 13 1 2 1 3 1 4 1 5 1 6 1 7 -1 9 1 0
1
-0.500000000000000 -0.866025403784439 0.000000000000000 0.000000000000000 
0.866025403784439 -0.500000000000000 0.000000000000000 0.000000000000000 
0.000000000000000 0.000000000000000 1.000000000000000 0.000000000000000 
2  7 1 6 -1 5 -1 4 -1 24 -1 2 -1 13 -1 12 -1 11 -1 0
2  9 -1 7 1 6 -1 5 -1 4 -1 24 -1 2 -1 13 -1 12 -1 11 -1 0
2  4 -1 24 -1 2 -1 13 -1 12 -1 11 -1 0
2  2 1 17 1 4 1 5 1 6 1 7 -1 0
2  2 1 17 1 4 1 5 1 6 1 7 -1 9 1 0
2  2 1 17 1 3 -1 2 -1 13 -1 12 -1 11 -1 0
1
1.000000000000000 0.000000000000000 0.000000000000000 0.000000000000000 
0.000000000000000 1.000000000000000 0.000000000000000 0.000000000000000 
0.000000000000000 0.000000000000000 1.000000000000000 0.000000000000000 
1
1.000000000000000 0.000000000000000 0.000000000000000 0.000000000000000 
0.000000000000000 1.000000000000000 0.000000000000000 0.000000000000000 
0.000000000000000 0.000000000000000 1.000000000000000 0.000000000000000 
2  31 1 32 1 13 1 2 1 17 1 4 1 5 1 6 1 7 -1 0
2  7 1 6 -1 5 -1 4 -1 17 -1 2 -1 13 -1 32 -1 31 -1 0
2  9 -1 7 1 6 -1 5 -1 4 -1 17 -1 2 -1 13 -1 32 -1 31 -1 0
2  4 -1 17 -1 2 -1 13 -1 32 -1 31 -1 0
2  13 -1 32 -1 31 -1 0
2  31 1 32 1 13 1 2 1 17 1 4 1 5 1 6 1 7 -1 9 1 0
2  7 1 6 -1 5 -1 4 -1 24 -1 2 -1 13 -1 32 -1 31 -1 0
2  9 -1 7 1 6 -1 5 -1 4 -1 24 -1 2 -1 13 -1 32 -1 31 -1 0
2  7 1 6 -1 5 -1 4 -1 3 -1 2 -1 13 -1 32 -1 31 -1 0
2  9 -1 7 1 6 -1 5 -1 4 -1 3 -1 2 -1 13 -1 32 -1 31 -1 0
2  4 -1 24 -1 2 -1 13 -1 32 -1 31 -1 0
2  4 -1 3 -1 2 -1 13 -1 32 -1 31 -1 0
2  11 1 12 1 13 1 2 1 17 1 4 1 5 1 6 1 7 -1 0
2  11 1 12 1 13 1 2 1 17 1 4 1 5 1 6 1 7 -1 9 1 0
2  2 1 24 1 4 1 5 1 6 1 7 -1 0
2  2 1 24 1 4 1 5 1 6 1 7 -1 9 1 0
2  31 1 32 1 13 1 2 1 24 1 4 1 5 1 6 1 7 -1 0
2  2 1 17 1 24 -1 2 -1 13 -1 32 -1 31 -1 0
2  31 1 32 1 13 1 2 1 24 1 4 1 5 1 6 1 7 -1 9 1 0
2  11 1 12 1 13 1 2 1 24 1 4 1 5 1 6 1 7 -1 0
2  11 1 12 1 13 1 2 1 24 1 4 1 5 1 6 1 7 -1 9 1 0
2  31 1 32 1 13 1 2 1 3 1 4 1 5 1 6 1 7 -1 0
2  2 1 24 1 3 -1 2 -1 13 -1 32 -1 31 -1 0
2  31 1 32 1 13 1 2 1 3 1 4 1 5 1 6 1 7 -1 9 1 0
2  5 1 6 1 7 -1 0
2  11 1 12 1 13 1 2 1 3 1 4 1 0
2  31 1 32 1 13 1 2 1 17 1 4 1 0
2  11 1 12 1 13 1 2 1 17 1 4 1 0
2  31 1 32 1 13 1 2 1 24 1 4 1 0
2  11 1 12 1 13 1 2 1 24 1 4 1 0
2  31 1 32 1 13 1 2 1 3 1 4 1 0
2  5 1 6 1 7 -1 9 1 0
Curve2ds 120
1 1.34948188444710726 0.00000000000000000 0.00000000000000000 -1.00000000000000000 
1 4.49107453803690060 0.00000000000000000 0.00000000000000000 -1.00000000000000000 
1 1.57079632679489656 0.00000000000000000 0.00000000000000000 -1.00000000000000000 
1 1.57079632679489656 0.00000000000000000 0.00000000000000000 -1.00000000000000000 
1 0.00000000000000000 0.00000000000000000 1.00000000000000000 0.00000000000000000 
1 0.00000000000000000 -3.00000000000000000 1.00000000000000000 0.00000000000000000 
1 0.00000000000000000 0.00000000000000000 1.00000000000000000 0.00000000000000000 
1 0.00000000000000000 -3.00000000000000000 1.00000000000000000 0.00000000000000000 
2 241.62108765585779224 -139.49999999999985789 0.50000000000000067 0.86602540378443837 0.86602540378443837 -0.50000000000000067 82.00000000000076739
2 0.00000000000002679 278.99999999999931788 -1.00000000000000000 0.00000000000000000 0.00000000000000000 1.00000000000000000 82.00000000000072475
1 4.67717488133159343 0.00000000000000000 0.00000000000000000 -1.00000000000000000 
1 1.53558222774180031 0.00000000000000000 0.00000000000000000 -1.00000000000000000 
1 0.00000000000000000 0.00000000000000000 1.00000000000000000 0.00000000000000000 
1 0.00000000000000000 -3.00000000000000000 1.00000000000000000 0.00000000000000000 
1 0.00000000000000000 0.00000000000000000 1.00000000000000000 0.00000000000000000 
1 0.00000000000000000 -3.00000000000000000 1.00000000000000000 0.00000000000000000 
1 0.00000000000000000 0.00000000000000000 1.00000000000000000 0.00000000000000000 
1 0.00000000000000000 -3.00000000000000000 1.00000000000000000 0.00000000000000000 
2 398.18515226136997853 -188.32308546376111735 0.50000000000000067 0.86602540378443837 0.86602540378443837 -0.50000000000000067 82.00000000000156319
2 -36.00000000000014211 439.00000000000153477 -1.00000000000000000 0.00000000000000000 0.00000000000000000 1.00000000000000000 82.00000000000153477
2 -362.18515226136992169 -250.67691453624058795 0.49999999999999978 -0.86602540378443882 -0.86602540378443882 -0.49999999999999978 82.00000000000156319
1 0.00503520302751024 0.00000000000000000 0.00000000000000000 -1.00000000000000000 
1 3.14662785661730249 0.00000000000000000 0.00000000000000000 -1.00000000000000000 
1 0.00000000000000000 0.00000000000000000 1.00000000000000000 0.00000000000000000 
1 0.00000000000000000 -3.00000000000000000 1.00000000000000000 0.00000000000000000 
1 0.00000000000000000 0.00000000000000000 1.00000000000000000 0.00000000000000000 
1 0.00000000000000000 -3.00000000000000000 1.00000000000000000 0.00000000000000000 
1 0.00000000000000000 0.00000000000000000 1.00000000000000000 0.00000000000000000 
1 0.00000000000000000 -3.00000000000000000 1.00000000000000000 0.00000000000000000 
2 323.12233904495508341 -148.44108360781268630 0.50000000000000067 0.86602540378443837 0.86602540378443837 -0.50000000000000067 3.00000000000000000
2 -33.00742015282212094 354.05269594708573777 -1.00000000000000000 0.00000000000000000 0.00000000000000000 1.00000000000000000 3.00000000000000000
2 -290.11491889213300510 -205.61161233927319358 0.49999999999999978 -0.86602540378443882 -0.86602540378443882 -0.49999999999999978 3.00000000000000000
1 3.66519142918678842 0.00000000000000000 0.00000000000000000 -1.00000000000000000 
1 3.66519142918678842 0.00000000000000000 0.00000000000000000 -1.00000000000000000 
1 0.00000000000000000 0.00000000000000000 1.00000000000000000 0.00000000000000000 
1 0.00000000000000000 -3.00000000000000000 1.00000000000000000 0.00000000000000000 
2 618.34213830302041970 357.00000000161190883 0.50000000000000067 0.86602540378443837 0.86602540378443837 -0.50000000000000067 582.34213830395106015
1 3.14662785661730249 0.00000000000000000 0.00000000000000000 -1.00000000000000000 
1 0.00503520302751024 0.00000000000000000 0.00000000000000000 -1.00000000000000000 
1 0.00000000000000000 0.00000000000000000 1.00000000000000000 0.00000000000000000 
1 0.00000000000000000 -3.00000000000000000 1.00000000000000000 0.00000000000000000 
2 618.34213830395083278 357.00000000000000000 1.00000000000000000 0.00000000000000000 -0.00000000000000000 1.00000000000000000 582.34213830395083278
1 1.53558222774180031 0.00000000000000000 0.00000000000000000 -1.00000000000000000 
1 4.67717488133159343 0.00000000000000000 0.00000000000000000 -1.00000000000000000 
1 0.00000000000000000 0.00000000000000000 1.00000000000000000 0.00000000000000000 
1 0.00000000000000000 -3.00000000000000000 1.00000000000000000 0.00000000000000000 
1 0.00000000000000000 0.00000000000000000 1.00000000000000000 0.00000000000000000 
1 0.00000000000000000 -3.00000000000000000 1.00000000000000000 0.00000000000000000 
1 0.00000000000000000 0.00000000000000000 1.00000000000000000 0.00000000000000000 
1 0.00000000000000000 -3.00000000000000000 1.00000000000000000 0.00000000000000000 
2 33.00742015282217778 354.05269594708573777 1.00000000000000000 0.00000000000000000 -0.00000000000000000 1.00000000000000000 3.00000000000000000
2 -323.12233904495508341 -148.44108360781231681 -0.49999999999999978 0.86602540378443882 -0.86602540378443882 -0.49999999999999978 3.00000000000000000
2 290.11491889213289141 -205.61161233927353464 -0.50000000000000067 -0.86602540378443837 0.86602540378443837 -0.50000000000000067 3.00000000000000000
1 4.49107453803690060 0.00000000000000000 0.00000000000000000 -1.00000000000000000 
1 1.34948188444710726 0.00000000000000000 0.00000000000000000 -1.00000000000000000 
1 0.00000000000000000 0.00000000000000000 1.00000000000000000 0.00000000000000000 
1 0.00000000000000000 -3.00000000000000000 1.00000000000000000 0.00000000000000000 
1 0.00000000000000000 0.00000000000000000 1.00000000000000000 0.00000000000000000 
1 0.00000000000000000 -3.00000000000000000 1.00000000000000000 0.00000000000000000 
1 0.00000000000000000 0.00000000000000000 1.00000000000000000 0.00000000000000000 
1 0.00000000000000000 -3.00000000000000000 1.00000000000000000 0.00000000000000000 
2 36.00000000000019895 439.00000000000153477 1.00000000000000000 0.00000000000000000 -0.00000000000000000 1.00000000000000000 82.00000000000153477
2 -398.18515226137003538 -188.32308546376071945 -0.49999999999999978 0.86602540378443882 -0.86602540378443882 -0.49999999999999978 82.00000000000153477
2 362.18515226136969432 -250.67691453624101428 -0.50000000000000067 -0.86602540378443837 0.86602540378443837 -0.50000000000000067 82.00000000000154898
1 1.57079632679489656 0.00000000000000000 0.00000000000000000 -1.00000000000000000 
1 1.57079632679489656 0.00000000000000000 0.00000000000000000 -1.00000000000000000 
1 0.00000000000000000 0.00000000000000000 1.00000000000000000 0.00000000000000000 
1 0.00000000000000000 -3.00000000000000000 1.00000000000000000 0.00000000000000000 
2 0.00000000000002679 278.99999999999931788 1.00000000000000000 0.00000000000000000 -0.00000000000000000 1.00000000000000000 82.00000000000072475
1 1.34948188444710726 0.00000000000000000 0.00000000000000000 -1.00000000000000000 
1 4.49107453803690060 0.00000000000000000 0.00000000000000000 -1.00000000000000000 
1 4.67717488133159343 0.00000000000000000 0.00000000000000000 -1.00000000000000000 
1 1.53558222774180031 0.00000000000000000 0.00000000000000000 -1.00000000000000000 
1 0.00503520302751024 0.00000000000000000 0.00000000000000000 -1.00000000000000000 
1 3.14662785661730249 0.00000000000000000 0.00000000000000000 -1.00000000000000000 
1 3.66519142918678842 0.00000000000000000 0.00000000000000000 -1.00000000000000000 
1 3.66519142918678842 0.00000000000000000 0.00000000000000000 -1.00000000000000000 
1 0.00000000000000000 0.00000000000000000 1.00000000000000000 0.00000000000000000 
1 0.00000000000000000 -3.00000000000000000 1.00000000000000000 0.00000000000000000 
1 0.00000000000000000 0.00000000000000000 1.00000000000000000 0.00000000000000000 
1 0.00000000000000000 -3.00000000000000000 1.00000000000000000 0.00000000000000000 
2 -618.34213830395083278 357.00000000000000000 -1.00000000000000000 0.00000000000000000 0.00000000000000000 1.00000000000000000 582.34213830395083278
2 0.00000000093066724 -714.00000000161219305 0.49999999999999978 -0.86602540378443882 -0.86602540378443882 -0.49999999999999978 582.34213830395071909
1 3.14662785661730249 0.00000000000000000 0.00000000000000000 -1.00000000000000000 
1 0.00503520302751024 0.00000000000000000 0.00000000000000000 -1.00000000000000000 
1 0.00000000000000000 0.00000000000000000 1.00000000000000000 0.00000000000000000 
1 0.00000000000000000 -3.00000000000000000 1.00000000000000000 0.00000000000000000 
2 -618.34213830301996495 357.00000000161242042 -0.49999999999999978 0.86602540378443882 -0.86602540378443882 -0.49999999999999978 582.34213830395083278
1 1.53558222774180031 0.00000000000000000 0.00000000000000000 -1.00000000000000000 
1 4.67717488133159343 0.00000000000000000 0.00000000000000000 -1.00000000000000000 
1 4.49107453803690060 0.00000000000000000 0.00000000000000000 -1.00000000000000000 
1 1.34948188444710726 0.00000000000000000 0.00000000000000000 -1.00000000000000000 
1 1.57079632679489656 0.00000000000000000 0.00000000000000000 -1.00000000000000000 
1 1.57079632679489656 0.00000000000000000 0.00000000000000000 -1.00000000000000000 
1 0.00000000000000000 0.00000000000000000 1.00000000000000000 0.00000000000000000 
1 0.00000000000000000 -3.00000000000000000 1.00000000000000000 0.00000000000000000 
2 -241.62108765585782066 -139.49999999999957367 -0.49999999999999978 0.86602540378443882 -0.86602540378443882 -0.49999999999999978 82.00000000000073896
1 1.34948188444710726 0.00000000000000000 0.00000000000000000 -1.00000000000000000 
1 4.49107453803690060 0.00000000000000000 0.00000000000000000 -1.00000000000000000 
1 0.00000000000000000 0.00000000000000000 1.00000000000000000 0.00000000000000000 
1 0.00000000000000000 -3.00000000000000000 1.00000000000000000 0.00000000000000000 
2 -241.62108765585782066 -139.49999999999957367 0.49999999999999978 -0.86602540378443882 -0.86602540378443882 -0.49999999999999978 82.00000000000072475
1 4.67717488133159343 0.00000000000000000 0.00000000000000000 -1.00000000000000000 
1 1.53558222774180031 0.00000000000000000 0.00000000000000000 -1.00000000000000000 
1 0.00503520302751024 0.00000000000000000 0.00000000000000000 -1.00000000000000000 
1 3.14662785661730249 0.00000000000000000 0.00000000000000000 -1.00000000000000000 
1 3.66519142918678842 0.00000000000000000 0.00000000000000000 -1.00000000000000000 
1 3.66519142918678842 0.00000000000000000 0.00000000000000000 -1.00000000000000000 
1 3.14662785661730249 0.00000000000000000 0.00000000000000000 -1.00000000000000000 
1 0.00503520302751024 0.00000000000000000 0.00000000000000000 -1.00000000000000000 
1 0.00000000000000000 0.00000000000000000 1.00000000000000000 0.00000000000000000 
1 0.00000000000000000 -3.00000000000000000 1.00000000000000000 0.00000000000000000 
2 -0.00000000093129579 -714.00000000161242042 -0.50000000000000067 -0.86602540378443837 0.86602540378443837 -0.50000000000000067 582.34213830395106015
1 1.53558222774180031 0.00000000000000000 0.00000000000000000 -1.00000000000000000 
1 4.67717488133159343 0.00000000000000000 0.00000000000000000 -1.00000000000000000 
1 4.49107453803690060 0.00000000000000000 0.00000000000000000 -1.00000000000000000 
1 1.34948188444710726 0.00000000000000000 0.00000000000000000 -1.00000000000000000 
1 0.00000000000000000 0.00000000000000000 1.00000000000000000 0.00000000000000000 
1 0.00000000000000000 -3.00000000000000000 1.00000000000000000 0.00000000000000000 
2 241.62108765585779224 -139.49999999999985789 -0.50000000000000067 -0.86602540378443837 0.86602540378443837 -0.50000000000000067 82.00000000000073896
Curves 32
1 319.90311995861344485 -163.91154273188035972 0.00000000000000000 0.00000000000000000 0.00000000000000000 1.00000000000000000 
1 312.63517076618234114 -180.50000000000028422 0.00000000000000000 0.00000000000000000 0.00000000000000000 1.00000000000000000 
2 -0.00000000000000000 278.99999999999931788 0.00000000000000000 0.00000000000000000 0.00000000000000000 -1.00000000000000000 -1.00000000000000000 -0.00000000000000000 -0.00000000000000000 -0.00000000000000000 1.00000000000000000 0.00000000000000000 82.00000000000072475
1 325.77161480553439787 -149.84868367331677064 0.00000000000000000 0.00000000000000000 0.00000000000000000 1.00000000000000000 
2 -36.00000000000017053 439.00000000000153477 0.00000000000000000 0.00000000000000000 0.00000000000000000 -1.00000000000000000 -1.00000000000000000 -0.00000000000000000 -0.00000000000000000 -0.00000000000000000 1.00000000000000000 0.00000000000000000 82.00000000000153477
1 324.63540181597034007 -145.85059310387958931 0.00000000000000000 0.00000000000000000 0.00000000000000000 1.00000000000000000 
2 -33.00742015282214936 354.05269594708573777 0.00000000000000000 0.00000000000000000 0.00000000000000000 -1.00000000000000000 -1.00000000000000000 -0.00000000000000000 -0.00000000000000000 -0.00000000000000000 1.00000000000000000 0.00000000000000000 3.00000000000000000
1 114.01905283811308323 65.82893084883060908 0.00000000000000000 0.00000000000000000 0.00000000000000000 1.00000000000000000 
2 -618.34213830395083278 357.00000000000000000 0.00000000000000000 0.00000000000000000 0.00000000000000000 -1.00000000000000000 -1.00000000000000000 -0.00000000000000000 -0.00000000000000000 -0.00000000000000000 1.00000000000000000 0.00000000000000000 582.34213830395083278
1 36.00738212299824426 354.06780149233901511 0.00000000000000000 0.00000000000000000 0.00000000000000000 1.00000000000000000 
2 618.34213830395083278 357.00000000000000000 0.00000000000000000 0.00000000000000000 0.00000000000000000 1.00000000000000000 1.00000000000000000 0.00000000000000000 -0.00000000000000000 -0.00000000000000000 1.00000000000000000 0.00000000000000000 582.34213830395083278
1 33.11304061801665455 357.05083609012979196 0.00000000000000000 0.00000000000000000 0.00000000000000000 1.00000000000000000 
2 33.00742015282214936 354.05269594708573777 0.00000000000000000 0.00000000000000000 0.00000000000000000 1.00000000000000000 1.00000000000000000 0.00000000000000000 -0.00000000000000000 -0.00000000000000000 1.00000000000000000 0.00000000000000000 3.00000000000000000
1 18.00000000000000000 359.00000000000000000 0.00000000000000000 0.00000000000000000 0.00000000000000000 1.00000000000000000 
2 36.00000000000017053 439.00000000000153477 0.00000000000000000 0.00000000000000000 0.00000000000000000 1.00000000000000000 1.00000000000000000 0.00000000000000000 -0.00000000000000000 -0.00000000000000000 1.00000000000000000 0.00000000000000000 82.00000000000153477
1 0.00000000000000000 361.00000000000005684 0.00000000000000000 0.00000000000000000 0.00000000000000000 1.00000000000000000 
2 0.00000000000000000 278.99999999999931788 0.00000000000000000 0.00000000000000000 0.00000000000000000 1.00000000000000000 1.00000000000000000 0.00000000000000000 -0.00000000000000000 -0.00000000000000000 1.00000000000000000 0.00000000000000000 82.00000000000072475
1 -18.00000000000000000 359.00000000000000000 0.00000000000000000 0.00000000000000000 0.00000000000000000 1.00000000000000000 
1 -33.11304061801665455 357.05083609012979196 0.00000000000000000 0.00000000000000000 0.00000000000000000 1.00000000000000000 
1 -36.00738212299823005 354.06780149233890143 0.00000000000000000 0.00000000000000000 0.00000000000000000 1.00000000000000000 
1 -114.01905283811295533 65.82893084883079382 0.00000000000000000 0.00000000000000000 0.00000000000000000 1.00000000000000000 
1 -324.63540181597056744 -145.85059310387927667 0.00000000000000000 0.00000000000000000 0.00000000000000000 1.00000000000000000 
1 -325.77161480553445472 -149.84868367331642958 0.00000000000000000 0.00000000000000000 0.00000000000000000 1.00000000000000000 
1 -319.90311995861355854 -163.91154273188001866 0.00000000000000000 0.00000000000000000 0.00000000000000000 1.00000000000000000 
1 -312.63517076618251167 -180.49999999999997158 0.00000000000000000 0.00000000000000000 0.00000000000000000 1.00000000000000000 
1 -301.90311995861355854 -195.08845726811981081 0.00000000000000000 0.00000000000000000 0.00000000000000000 1.00000000000000000 
1 -292.65857418751784280 -207.20215241681319185 0.00000000000000000 0.00000000000000000 0.00000000000000000 1.00000000000000000 
1 -288.62801969297220239 -208.21720838845948265 0.00000000000000000 0.00000000000000000 0.00000000000000000 1.00000000000000000 
1 -0.00000000000014211 -131.65786169766141711 0.00000000000000000 0.00000000000000000 0.00000000000000000 1.00000000000000000 
1 288.62801969297220239 -208.21720838845990897 0.00000000000000000 0.00000000000000000 0.00000000000000000 1.00000000000000000 
1 292.65857418751767227 -207.20215241681356133 0.00000000000000000 0.00000000000000000 0.00000000000000000 1.00000000000000000 
1 301.90311995861344485 -195.08845726812018029 0.00000000000000000 0.00000000000000000 0.00000000000000000 1.00000000000000000 
Polygon3D 0
PolygonOnTriangulations 0
Surfaces 25
2 241.62108765585776382 -139.49999999999988631 0.00000000000000000 0.00000000000000000 -0.00000000000000000 -1.00000000000000000 0.50000000000000067 0.86602540378443837 0.00000000000000000 0.86602540378443837 -0.50000000000000067 0.00000000000000000 82.00000000000073896
2 398.18515226136997853 -188.32308546376114577 0.00000000000000000 0.00000000000000000 -0.00000000000000000 -1.00000000000000000 0.50000000000000067 0.86602540378443837 0.00000000000000000 0.86602540378443837 -0.50000000000000067 0.00000000000000000 82.00000000000154898
2 241.62108765585776382 -139.49999999999988631 0.00000000000000000 -0.00000000000000000 -0.00000000000000000 -1.00000000000000000 -0.50000000000000067 -0.86602540378443837 0.00000000000000000 0.86602540378443837 -0.50000000000000067 -0.00000000000000000 82.00000000000073896
2 -0.00000000000000000 278.99999999999931788 0.00000000000000000 0.00000000000000000 0.00000000000000000 -1.00000000000000000 -1.00000000000000000 -0.00000000000000000 -0.00000000000000000 -0.00000000000000000 1.00000000000000000 0.00000000000000000 82.00000000000072475
1 -0.00000000000002679 -0.00000000000002037 0.00000000000000000 0.00000000000000000 0.00000000000000000 1.00000000000000000 1.00000000000000000 0.00000000000000000 -0.00000000000000000 -0.00000000000000000 1.00000000000000000 0.00000000000000000 
2 323.12233904495508341 -148.44108360781271472 0.00000000000000000 0.00000000000000000 -0.00000000000000000 -1.00000000000000000 0.50000000000000067 0.86602540378443837 0.00000000000000000 0.86602540378443837 -0.50000000000000067 0.00000000000000000 3.00000000000000089
2 -36.00000000000017053 439.00000000000153477 0.00000000000000000 0.00000000000000000 0.00000000000000000 -1.00000000000000000 -1.00000000000000000 -0.00000000000000000 -0.00000000000000000 -0.00000000000000000 1.00000000000000000 0.00000000000000000 82.00000000000153477
2 -362.18515226136992169 -250.67691453624061637 0.00000000000000000 -0.00000000000000000 0.00000000000000000 -1.00000000000000000 0.49999999999999978 -0.86602540378443882 -0.00000000000000000 -0.86602540378443882 -0.49999999999999978 0.00000000000000000 82.00000000000153477
2 618.34213830302041970 357.00000000161190883 0.00000000000000000 0.00000000000000000 -0.00000000000000000 -1.00000000000000000 0.50000000000000067 0.86602540378443837 0.00000000000000000 0.86602540378443837 -0.50000000000000067 0.00000000000000000 582.34213830395094647
2 -33.00742015282214936 354.05269594708573777 0.00000000000000000 0.00000000000000000 0.00000000000000000 -1.00000000000000000 -1.00000000000000000 -0.00000000000000000 -0.00000000000000000 -0.00000000000000000 1.00000000000000000 0.00000000000000000 3.00000000000000000
2 -290.11491889213300510 -205.61161233927322201 0.00000000000000000 -0.00000000000000000 0.00000000000000000 -1.00000000000000000 0.49999999999999978 -0.86602540378443882 -0.00000000000000000 -0.86602540378443882 -0.49999999999999978 0.00000000000000000 3.00000000000000000
2 618.34213830395083278 357.00000000000000000 0.00000000000000000 -0.00000000000000000 -0.00000000000000000 -1.00000000000000000 1.00000000000000000 0.00000000000000000 0.00000000000000000 -0.00000000000000000 1.00000000000000000 -0.00000000000000000 582.34213830395083278
2 33.00742015282214936 354.05269594708573777 0.00000000000000000 -0.00000000000000000 -0.00000000000000000 -1.00000000000000000 1.00000000000000000 0.00000000000000000 0.00000000000000000 -0.00000000000000000 1.00000000000000000 -0.00000000000000000 3.00000000000000000
2 36.00000000000017053 439.00000000000153477 0.00000000000000000 -0.00000000000000000 -0.00000000000000000 -1.00000000000000000 1.00000000000000000 0.00000000000000000 0.00000000000000000 -0.00000000000000000 1.00000000000000000 -0.00000000000000000 82.00000000000153477
2 -323.12233904495508341 -148.44108360781234524 0.00000000000000000 -0.00000000000000000 -0.00000000000000000 -1.00000000000000000 -0.49999999999999978 0.86602540378443882 0.00000000000000000 -0.86602540378443882 -0.49999999999999978 0.00000000000000000 3.00000000000000000
2 290.11491889213289141 -205.61161233927356307 0.00000000000000000 -0.00000000000000000 -0.00000000000000000 -1.00000000000000000 -0.50000000000000067 -0.86602540378443837 0.00000000000000000 0.86602540378443837 -0.50000000000000067 -0.00000000000000000 3.00000000000000089
2 0.00000000000000000 278.99999999999931788 0.00000000000000000 -0.00000000000000000 -0.00000000000000000 -1.00000000000000000 1.00000000000000000 0.00000000000000000 0.00000000000000000 -0.00000000000000000 1.00000000000000000 -0.00000000000000000 82.00000000000072475
2 -398.18515226137003538 -188.32308546376074787 0.00000000000000000 -0.00000000000000000 -0.00000000000000000 -1.00000000000000000 -0.49999999999999978 0.86602540378443882 0.00000000000000000 -0.86602540378443882 -0.49999999999999978 0.00000000000000000 82.00000000000153477
2 362.18515226136969432 -250.67691453624104270 0.00000000000000000 -0.00000000000000000 -0.00000000000000000 -1.00000000000000000 -0.50000000000000067 -0.86602540378443837 0.00000000000000000 0.86602540378443837 -0.50000000000000067 -0.00000000000000000 82.00000000000154898
2 -618.34213830395083278 357.00000000000000000 0.00000000000000000 0.00000000000000000 0.00000000000000000 -1.00000000000000000 -1.00000000000000000 -0.00000000000000000 -0.00000000000000000 -0.00000000000000000 1.00000000000000000 0.00000000000000000 582.34213830395083278
2 -618.34213830301996495 357.00000000161242042 0.00000000000000000 -0.00000000000000000 -0.00000000000000000 -1.00000000000000000 -0.49999999999999978 0.86602540378443882 0.00000000000000000 -0.86602540378443882 -0.49999999999999978 0.00000000000000000 582.34213830395083278
2 0.00000000093064045 -714.00000000161219305 0.00000000000000000 -0.00000000000000000 0.00000000000000000 -1.00000000000000000 0.49999999999999978 -0.86602540378443882 -0.00000000000000000 -0.86602540378443882 -0.49999999999999978 0.00000000000000000 582.34213830395083278
2 -241.62108765585784909 -139.49999999999960210 0.00000000000000000 -0.00000000000000000 -0.00000000000000000 -1.00000000000000000 -0.49999999999999978 0.86602540378443882 0.00000000000000000 -0.86602540378443882 -0.49999999999999978 0.00000000000000000 82.00000000000072475
2 -241.62108765585784909 -139.49999999999960210 0.00000000000000000 -0.00000000000000000 0.00000000000000000 -1.00000000000000000 0.49999999999999978 -0.86602540378443882 -0.00000000000000000 -0.86602540378443882 -0.49999999999999978 0.00000000000000000 82.00000000000072475
2 -0.00000000093132257 -714.00000000161242042 0.00000000000000000 -0.00000000000000000 -0.00000000000000000 -1.00000000000000000 -0.50000000000000067 -0.86602540378443837 0.00000000000000000 0.86602540378443837 -0.50000000000000067 -0.00000000000000000 582.34213830395094647
Triangulations 0

TShapes 100
Ve
0.000000100000029
-18.000000000000000 359.000000000000000 0.000000000000000
0 0

0101101
*
Ed
 0.000000100000029 1 1 0
1  1 0 0.000000000000000 3.000000000000000
2  1 1 0 0.000000000000000 3.000000000000000
2  2 2 0 0.000000000000000 3.000000000000000
4 C1 1 0 2 0
0

0101000
+100 8 -100 10 *
Ve
0.000000100000037
0.000000000000000 361.000000000000057 0.000000000000000
0 0

0101101
*
Ed
 0.000000100000037 1 1 0
1  2 0 0.000000000000000 3.000000000000000
2  3 1 0 0.000000000000000 3.000000000000000
2  4 3 0 0.000000000000000 3.000000000000000
4 C2 1 0 3 0
0

0101000
+98 8 -98 10 *
Ed
 0.000000100000000 1 1 0
1  3 0 1.349481884447107 1.570796326794897
2  5 1 15 1.349481884447107 1.570796326794897
2  6 1 16 1.349481884447107 1.570796326794897
2  7 4 18 1.349481884447107 1.570796326794897
2  8 4 19 1.349481884447107 1.570796326794897
2  9 5 20 1.349481884447107 1.570796326794897
2  10 5 21 1.349481884447107 1.570796326794897
0

0101000
+100 22 -98 22 *
Wi

0101100
+99 0 -97 0 -96 14 +96 23 *
Fa
0  0.000000100000000 1 0

0101000
+95 0 *
Ve
0.000000100000018
-33.113040618016655 357.050836090129792 0.000000000000000
0 0

0101101
*
Ed
 0.000000100000018 1 1 0
1  4 0 0.000000000000000 3.000000000000000
2  11 2 0 0.000000000000000 3.000000000000000
2  12 6 0 0.000000000000000 3.000000000000000
4 G1 2 0 6 0
0

0101000
+93 8 -93 10 *
Ed
 0.000000100000000 1 1 0
1  5 0 4.491074538036901 4.677174881331593
2  13 2 15 4.491074538036901 4.677174881331593
2  14 2 16 4.491074538036901 4.677174881331593
2  15 7 18 4.491074538036901 4.677174881331593
2  16 7 19 4.491074538036901 4.677174881331593
2  17 8 25 4.491074538036901 4.677174881331593
2  18 8 26 4.491074538036901 4.677174881331593
2  19 5 20 4.491074538036901 4.677174881331593
2  20 5 21 4.491074538036901 4.677174881331593
2  21 5 27 4.491074538036901 4.677174881331593
0

0101000
+100 22 -93 22 *
Wi

0101100
+99 0 -92 0 -91 14 +91 23 *
Fa
0  0.000000100000000 2 0

0101000
+90 0 *
Ve
0.000000100000021
-36.007382122998230 354.067801492338901 0.000000000000000
0 0

0101101
*
Ed
 0.000000100000021 1 1 0
1  6 0 0.000000000000000 3.000000000000000
2  22 6 0 0.000000000000000 3.000000000000000
2  23 9 0 0.000000000000000 3.000000000000000
4 G1 6 0 9 0
0

0101000
+88 8 -88 10 *
Ed
 0.000000100000000 1 1 0
1  7 0 0.005035203027510 1.535582227741800
2  24 6 15 0.005035203027510 1.535582227741800
2  25 6 16 0.005035203027510 1.535582227741800
2  26 10 18 0.005035203027510 1.535582227741800
2  27 10 19 0.005035203027510 1.535582227741800
2  28 11 25 0.005035203027510 1.535582227741800
2  29 11 26 0.005035203027510 1.535582227741800
2  30 5 20 0.005035203027510 1.535582227741800
2  31 5 21 0.005035203027510 1.535582227741800
2  32 5 27 0.005035203027510 1.535582227741800
0

0101000
+88 22 -93 22 *
Wi

0101100
+87 0 -92 0 -86 14 +86 23 *
Fa
0  0.000000100000000 6 0

0101000
+85 0 *
Ve
0.000000100171609
114.019052838113083 65.828930848830609 0.000000000000000
0 0

0101101
*
Ed
 0.000000100171609 1 1 0
1  8 0 0.000000000000000 3.000000000000000
2  33 9 0 0.000000000000000 3.000000000000000
2  34 12 0 0.000000000000000 3.000000000000000
4 C2 9 0 12 0
0

0101000
+83 28 -83 29 *
Ed
 0.000000100000000 1 1 0
1  9 0 3.146627856617302 3.665191429186788
2  35 9 15 3.146627856617302 3.665191429186788
2  36 9 16 3.146627856617302 3.665191429186788
2  37 5 20 3.146627856617302 3.665191429186788
0

0101000
+88 22 -83 30 *
Wi

0101100
+87 0 -82 0 -81 14 +81 23 *
Fa
0  0.000000100000000 9 0

0101000
+80 0 *
Ve
0.000000100000021
36.007382122998244 354.067801492339015 0.000000000000000
0 0

0101101
*
Ed
 0.000000100000021 1 1 0
1  10 0 0.000000000000000 3.000000000000000
2  38 12 0 0.000000000000000 3.000000000000000
2  39 13 0 0.000000000000000 3.000000000000000
4 G1 12 0 13 0
0

0101000
+78 28 -78 29 *
Ed
 0.000000100000000 1 1 0
1  11 0 3.146627856617302 3.665191429186788
2  40 12 34 3.146627856617302 3.665191429186788
2  41 12 35 3.146627856617302 3.665191429186788
2  42 5 36 3.146627856617302 3.665191429186788
0

0101000
+78 37 -83 37 *
Wi

0101100
+77 0 -82 0 -76 33 +76 38 *
Fa
0  0.000000100000000 12 0

0101000
+75 0 *
Ve
0.000000100000018
33.113040618016655 357.050836090129792 0.000000000000000
0 0

0101101
*
Ed
 0.000000100000018 1 1 0
1  12 0 0.000000000000000 3.000000000000000
2  43 13 0 0.000000000000000 3.000000000000000
2  44 14 0 0.000000000000000 3.000000000000000
4 G1 13 0 14 0
0

0101000
+73 28 -73 29 *
Ed
 0.000000100000000 1 1 0
1  13 0 0.005035203027510 1.535582227741800
2  45 13 34 0.005035203027510 1.535582227741800
2  46 13 35 0.005035203027510 1.535582227741800
2  47 15 39 0.005035203027510 1.535582227741800
2  48 15 40 0.005035203027510 1.535582227741800
2  49 16 41 0.005035203027510 1.535582227741800
2  50 16 42 0.005035203027510 1.535582227741800
2  51 5 36 0.005035203027510 1.535582227741800
2  52 5 43 0.005035203027510 1.535582227741800
2  53 5 44 0.005035203027510 1.535582227741800
0

0101000
+78 37 -73 37 *
Wi

0101100
+77 0 -72 0 -71 33 +71 38 *
Fa
0  0.000000100000000 13 0

0101000
+70 0 *
Ve
0.000000100000029
18.000000000000000 359.000000000000000 0.000000000000000
0 0

0101101
*
Ed
 0.000000100000029 1 1 0
1  14 0 0.000000000000000 3.000000000000000
2  54 14 0 0.000000000000000 3.000000000000000
2  55 17 0 0.000000000000000 3.000000000000000
4 C1 14 0 17 0
0

0101000
+68 28 -68 29 *
Ed
 0.000000100000000 1 1 0
1  15 0 4.491074538036901 4.677174881331593
2  56 14 34 4.491074538036901 4.677174881331593
2  57 14 35 4.491074538036901 4.677174881331593
2  58 18 39 4.491074538036901 4.677174881331593
2  59 18 40 4.491074538036901 4.677174881331593
2  60 19 41 4.491074538036901 4.677174881331593
2  61 19 42 4.491074538036901 4.677174881331593
2  62 5 36 4.491074538036901 4.677174881331593
2  63 5 43 4.491074538036901 4.677174881331593
2  64 5 44 4.491074538036901 4.677174881331593
0

0101000
+68 37 -73 37 *
Wi

0101100
+67 0 -72 0 -66 33 +66 38 *
Fa
0  0.000000100000000 14 0

0101000
+65 0 *
Ed
 0.000000100000037 1 1 0
1  16 0 0.000000000000000 3.000000000000000
2  65 17 0 0.000000000000000 3.000000000000000
2  66 4 0 0.000000000000000 3.000000000000000
4 C2 17 0 4 0
0

0101000
+98 28 -98 29 *
Ed
 0.000000100000000 1 1 0
1  17 0 1.349481884447107 1.570796326794897
2  67 17 34 1.349481884447107 1.570796326794897
2  68 17 35 1.349481884447107 1.570796326794897
2  69 5 36 1.349481884447107 1.570796326794897
0

0101000
+68 37 -98 37 *
Wi

0101100
+67 0 -63 0 -62 33 +62 38 *
Fa
0  0.000000100000000 17 0

0101000
+61 0 *
Ed
 0.000000100000029 1 1 0
1  18 0 0.000000000000000 3.000000000000000
2  70 4 0 0.000000000000000 3.000000000000000
2  71 7 0 0.000000000000000 3.000000000000000
4 C1 4 0 7 0
0

0101000
+100 28 -100 29 *
Wi

0101100
+59 0 -63 0 -96 45 +96 46 *
Fa
0  0.000000100000000 4 0

0101000
+58 0 *
Ed
 0.000000100000018 1 1 0
1  19 0 0.000000000000000 3.000000000000000
2  72 7 0 0.000000000000000 3.000000000000000
2  73 10 0 0.000000000000000 3.000000000000000
4 G1 7 0 10 0
0

0101000
+93 28 -93 29 *
Wi

0101100
+59 0 -56 0 -91 45 +91 46 *
Fa
0  0.000000100000000 7 0

0101000
+55 0 *
Ed
 0.000000100000021 1 1 0
1  20 0 0.000000000000000 3.000000000000000
2  74 10 0 0.000000000000000 3.000000000000000
2  75 20 0 0.000000000000000 3.000000000000000
4 G1 10 0 20 0
0

0101000
+88 28 -88 29 *
Wi

0101100
+53 0 -56 0 -86 45 +86 46 *
Fa
0  0.000000100000000 10 0

0101000
+52 0 *
Ve
0.000000100171701
-114.019052838112955 65.828930848830794 0.000000000000000
0 0

0101101
*
Ed
 0.000000100171701 1 1 0
1  21 0 0.000000000000000 3.000000000000000
2  76 20 0 0.000000000000000 3.000000000000000
2  77 21 0 0.000000000000000 3.000000000000000
4 C2 20 0 21 0
0

0101000
+50 28 -50 29 *
Ed
 0.000000100000000 1 1 0
1  9 0 3.146627856617302 3.665191429186788
2  78 20 18 3.146627856617302 3.665191429186788
2  79 20 19 3.146627856617302 3.665191429186788
2  80 22 25 3.146627856617302 3.665191429186788
2  81 22 26 3.146627856617302 3.665191429186788
2  82 5 21 3.146627856617302 3.665191429186788
2  83 5 27 3.146627856617302 3.665191429186788
0

0101000
+88 22 -50 22 *
Wi

0101100
+53 0 -49 0 -48 45 +48 46 *
Fa
0  0.000000100000000 20 0

0101000
+47 0 *
Ed
 0.000000100000021 1 1 0
1  22 0 0.000000000000000 3.000000000000000
2  84 21 0 0.000000000000000 3.000000000000000
2  85 15 0 0.000000000000000 3.000000000000000
4 G1 21 0 15 0
0

0101000
+78 47 -78 48 *
Ed
 0.000000100000000 1 1 0
1  11 0 3.146627856617302 3.665191429186788
2  86 21 39 3.146627856617302 3.665191429186788
2  87 21 40 3.146627856617302 3.665191429186788
2  88 5 43 3.146627856617302 3.665191429186788
0

0101000
+78 37 -50 50 *
Wi

0101100
+45 0 -49 0 -44 49 +44 51 *
Fa
0  0.000000100000000 21 0

0101000
+43 0 *
Ed
 0.000000100000018 1 1 0
1  23 0 0.000000000000000 3.000000000000000
2  89 15 0 0.000000000000000 3.000000000000000
2  90 18 0 0.000000000000000 3.000000000000000
4 G1 15 0 18 0
0

0101000
+73 47 -73 48 *
Wi

0101100
+45 0 -41 0 -71 49 +71 51 *
Fa
0  0.000000100000000 15 0

0101000
+40 0 *
Ed
 0.000000100000029 1 1 0
1  24 0 0.000000000000000 3.000000000000000
2  91 18 0 0.000000000000000 3.000000000000000
2  92 23 0 0.000000000000000 3.000000000000000
4 C1 18 0 23 0
0

0101000
+68 47 -68 48 *
Wi

0101100
+38 0 -41 0 -66 49 +66 51 *
Fa
0  0.000000100000000 18 0

0101000
+37 0 *
Ve
0.000000100000005
0.000000000000000 361.000000000000114 0.000000000000000
0 0

0101101
*
Ed
 0.000000100000005 1 1 0
1  25 0 0.000000000000000 3.000000000000000
2  93 23 0 0.000000000000000 3.000000000000000
2  94 24 0 0.000000000000000 3.000000000000000
4 C2 23 0 24 0
0

0101000
+35 47 -35 48 *
Ed
 0.000000100000000 1 1 0
1  17 0 1.349481884447107 1.570796326794897
2  95 23 39 1.349481884447107 1.570796326794897
2  96 23 40 1.349481884447107 1.570796326794897
2  97 5 43 1.349481884447107 1.570796326794897
0

0101000
+68 37 -35 37 *
Wi

0101100
+38 0 -34 0 -33 49 +33 51 *
Fa
0  0.000000100000000 23 0

0101000
+32 0 *
Ed
 0.000000100000029 1 1 0
1  26 0 0.000000000000000 3.000000000000000
2  98 24 0 0.000000000000000 3.000000000000000
2  99 8 0 0.000000000000000 3.000000000000000
4 C1 24 0 8 0
0

0101000
+100 47 -100 48 *
Ed
 0.000000100000000 1 1 0
1  3 0 1.349481884447107 1.570796326794897
2  100 24 25 1.349481884447107 1.570796326794897
2  101 24 26 1.349481884447107 1.570796326794897
2  102 5 27 1.349481884447107 1.570796326794897
0

0101000
+100 22 -35 22 *
Wi

0101100
+30 0 -34 0 -29 52 +29 53 *
Fa
0  0.000000100000000 24 0

0101000
+28 0 *
Ed
 0.000000100000018 1 1 0
1  27 0 0.000000000000000 3.000000000000000
2  103 8 0 0.000000000000000 3.000000000000000
2  104 11 0 0.000000000000000 3.000000000000000
4 G1 8 0 11 0
0

0101000
+93 47 -93 48 *
Wi

0101100
+30 0 -26 0 -91 52 +91 53 *
Fa
0  0.000000100000000 8 0

0101000
+25 0 *
Ed
 0.000000100000021 1 1 0
1  28 0 0.000000000000000 3.000000000000000
2  105 11 0 0.000000000000000 3.000000000000000
2  106 22 0 0.000000000000000 3.000000000000000
4 G1 11 0 22 0
0

0101000
+88 47 -88 48 *
Wi

0101100
+23 0 -26 0 -86 52 +86 53 *
Fa
0  0.000000100000000 11 0

0101000
+22 0 *
Ed
 0.000000100171701 1 1 0
1  29 0 0.000000000000000 3.000000000000000
2  107 22 0 0.000000000000000 3.000000000000000
2  108 25 0 0.000000000000000 3.000000000000000
4 C2 22 0 25 0
0

0101000
+50 47 -50 48 *
Wi

0101100
+23 0 -20 0 -48 52 +48 53 *
Fa
0  0.000000100000000 22 0

0101000
+19 0 *
Ed
 0.000000100000021 1 1 0
1  30 0 0.000000000000000 3.000000000000000
2  109 25 0 0.000000000000000 3.000000000000000
2  110 16 0 0.000000000000000 3.000000000000000
4 G1 25 0 16 0
0

0101000
+78 8 -78 10 *
Ed
 0.000000100000000 1 1 0
1  11 0 3.146627856617302 3.665191429186788
2  111 25 41 3.146627856617302 3.665191429186788
2  112 25 42 3.146627856617302 3.665191429186788
2  113 5 44 3.146627856617302 3.665191429186788
0

0101000
+78 37 -50 55 *
Wi

0101100
+17 0 -20 0 -16 54 +16 56 *
Fa
0  0.000000100000000 25 0

0101000
+15 0 *
Ed
 0.000000100000018 1 1 0
1  31 0 0.000000000000000 3.000000000000000
2  114 16 0 0.000000000000000 3.000000000000000
2  115 19 0 0.000000000000000 3.000000000000000
4 G1 16 0 19 0
0

0101000
+73 8 -73 10 *
Wi

0101100
+17 0 -13 0 -71 54 +71 56 *
Fa
0  0.000000100000000 16 0

0101000
+12 0 *
Ed
 0.000000100000029 1 1 0
1  32 0 0.000000000000000 3.000000000000000
2  116 19 0 0.000000000000000 3.000000000000000
2  117 3 0 0.000000000000000 3.000000000000000
4 C1 19 0 3 0
0

0101000
+68 8 -68 10 *
Wi

0101100
+10 0 -13 0 -66 54 +66 56 *
Fa
0  0.000000100000000 19 0

0101000
+9 0 *
Ed
 0.000000100000000 1 1 0
1  17 0 1.349481884447107 1.570796326794897
2  118 3 41 1.349481884447107 1.570796326794897
2  119 3 42 1.349481884447107 1.570796326794897
2  120 5 44 1.349481884447107 1.570796326794897
0

0101000
+68 37 -98 37 *
Wi

0101100
+10 0 -97 0 -7 54 +7 56 *
Fa
0  0.000000100000000 3 0

0101000
+6 0 *
Wi

0101100
-96 58 +91 58 -86 58 +81 58 -76 59 +71 59 -66 59 +62 59 -96 60 +91 60 
-86 60 +48 60 -44 61 +71 61 -66 61 +33 61 -29 62 +91 62 -86 62 +48 62 
-16 63 +71 63 -66 63 +7 63 *
Fa
0  0.000000100000000 5 0

0101000
+4 0 *
Sh

0101100
-94 0 +89 0 -84 0 +79 0 -74 0 +69 0 -64 0 +60 0 -57 0 +54 0 
-51 0 +46 0 -42 0 +39 0 -36 0 +31 0 -27 0 +24 0 -21 0 +18 0 
-14 0 +11 0 -8 0 +5 0 +3 57 -3 64 *
So

1100000
-2 0 *

+1 1 