
CASCADE Topology V1, (c) Matra-Datavision
Locations 16
1
1.000000000000000 0.000000000000000 0.000000000000000 0.000000000000000 
0.000000000000000 1.000000000000000 0.000000000000000 0.000000000000000 
0.000000000000000 0.000000000000000 1.000000000000000 0.000000000000000 
1
1.000000000000000 0.000000000000000 0.000000000000000 0.000000000000000 
0.000000000000000 1.000000000000000 0.000000000000000 0.000000000000000 
0.000000000000000 0.000000000000000 1.000000000000000 0.000000000000000 
1
1.000000000000000 0.000000000000000 0.000000000000000 0.000000000000000 
0.000000000000000 1.000000000000000 0.000000000000000 0.000000000000000 
0.000000000000000 0.000000000000000 1.000000000000000 0.000000000000000 
1
1.000000000000000 0.000000000000000 0.000000000000000 0.000000000000000 
0.000000000000000 1.000000000000000 0.000000000000000 0.000000000000000 
0.000000000000000 0.000000000000000 1.000000000000000 0.000000000000000 
2  2 1 3 1 4 -1 0
1
1.000000000000000 0.000000000000000 0.000000000000000 0.000000000000000 
0.000000000000000 1.000000000000000 0.000000000000000 0.000000000000000 
0.000000000000000 0.000000000000000 1.000000000000000 3.000000000000000 
2  2 1 3 1 4 -1 6 1 0
2  3 -1 2 -1 0
1
1.000000000000000 0.000000000000000 0.000000000000000 0.000000000000000 
0.000000000000000 1.000000000000000 0.000000000000000 0.000000000000000 
0.000000000000000 0.000000000000000 1.000000000000000 0.000000000000000 
2  9 -1 4 1 3 -1 2 -1 0
2  9 -1 6 -1 4 1 3 -1 2 -1 0
2  4 1 3 -1 2 -1 0
2  6 -1 4 1 3 -1 2 -1 0
2  4 -1 0
2  2 1 3 1 0
2  4 -1 6 1 0
Curve2ds 30
1 3.14159265358979267 0.00000000000000000 0.00000000000000000 -1.00000000000000000 
1 -0.00000000006926815 0.00000000000000000 0.00000000000000000 -1.00000000000000000 
1 -5.70799387596103003 133.77740860518088084 0.00000000006924959 1.00000000000000000 
1 -14.30000000000100080 317.60000000000019327 -0.00000000006924959 1.00000000000000000 
1 317.60000000000019327 -14.30000000000100968 1.00000000000000000 -0.00000000006924959 
1 1.57079632679423242 0.00000000000000000 0.00000000000000000 -1.00000000000000000 
1 0.00000000000000000 -0.00000000000000000 0.00000000000000000 -1.00000000000000000 
1 0.00000000000000000 0.00000000000000000 1.00000000000000000 0.00000000000000000 
1 0.00000000000000000 -3.00000000000000000 1.00000000000000000 0.00000000000000000 
2 -8.20799387153546078 197.67740860518125601 1.00000000000000000 0.00000000000000000 -0.00000000000000000 1.00000000000000000 2.49999999999947953
2 -11.80000000442657004 381.50000000000056843 -1.00000000000000000 0.00000000000000000 0.00000000000000000 1.00000000000000000 2.49999999999947953
2 381.50000000000056843 -11.80000000442657893 0.00000000000000000 -1.00000000000000000 1.00000000000000000 0.00000000000000000 2.49999999999947953
1 11.80000000442820784 0.00000000000000000 0.00000000000000000 -1.00000000000000000 
1 0.00000000000000000 0.00000000000000000 0.00000000000000000 -1.00000000000000000 
1 0.00000000000000000 -0.00000000000000000 1.00000000000000000 0.00000000000000000 
1 0.00000000000000000 -3.00000000000000000 1.00000000000000000 0.00000000000000000 
1 -8.20799387153379989 200.17740860518074442 -1.00000000000000000 0.00000000000000000 
1 384.00000000000005684 0.00000000000000000 0.00000000000000000 -1.00000000000000000 
1 0.00000000000000000 0.00000000000000000 0.00000000000000000 -1.00000000000000000 
1 0.00000000000000000 0.00000000000000000 1.00000000000000000 0.00000000000000000 
1 0.00000000000000000 -3.00000000000000000 1.00000000000000000 0.00000000000000000 
1 -20.00799387596200773 200.17740860518074442 0.00000000000000000 -1.00000000000000000 
1 3.68458002829967146 0.00000000000000000 0.00000000000000000 -1.00000000000000000 
1 102.17710147299166579 0.00000000000000000 0.00000000000000000 -1.00000000000000000 
1 0.00000000000000000 0.00000000000000000 1.00000000000000000 0.00000000000000000 
1 0.00000000000000000 -3.00000000000000000 1.00000000000000000 0.00000000000000000 
1 -20.00799387596200773 -183.82259139481931243 0.86602540378443860 0.50000000000000011 
1 0.00000000000000000 0.00000000000000000 1.00000000000000000 0.00000000000000000 
1 0.00000000000000000 -3.00000000000000000 1.00000000000000000 0.00000000000000000 
2 510.09134260791370252 133.77740860518059662 1.00000000000000000 0.00000000000000000 -0.00000000000000000 1.00000000000000000 515.79933648387464018
Curves 12
1 14.30000000000097771 317.60000000000019327 0.00000000000000000 0.00000000000000000 0.00000000000000000 1.00000000000000000 
1 14.30000000442602648 381.49999999982742338 0.00000000000000000 0.00000000000000000 0.00000000000000000 1.00000000000000000 
1 14.30000000000097771 317.60000000000019327 0.00000000000000000 0.00000000006924959 1.00000000000000000 0.00000000000000000 
1 11.80000000442820784 384.00000000000005684 0.00000000000000000 0.00000000000000000 0.00000000000000000 1.00000000000000000 
2 11.80000000442654695 381.50000000000056843 0.00000000000000000 0.00000000000000000 0.00000000000000000 1.00000000000000000 1.00000000000000000 0.00000000000000000 -0.00000000000000000 -0.00000000000000000 1.00000000000000000 0.00000000000000000 2.49999999999947908
1 0.00000000000000000 384.00000000000005684 0.00000000000000000 0.00000000000000000 0.00000000000000000 1.00000000000000000 
1 11.80000000442820784 384.00000000000005684 0.00000000000000000 -1.00000000000000000 0.00000000000000000 0.00000000000000000 
1 0.00000000000000000 0.00000000000000000 0.00000000000000000 0.00000000000000000 0.00000000000000000 1.00000000000000000 
1 0.00000000000000000 384.00000000000005684 0.00000000000000000 0.00000000000000000 -1.00000000000000000 0.00000000000000000 
1 88.48796556067117081 51.08855073649584710 0.00000000000000000 0.00000000000000000 0.00000000000000000 1.00000000000000000 
1 0.00000000000000000 0.00000000000000000 0.00000000000000000 0.86602540378443860 0.50000000000000011 0.00000000000000000 
2 530.09933648387573157 317.59999999999990905 0.00000000000000000 0.00000000000000000 0.00000000000000000 1.00000000000000000 1.00000000000000000 0.00000000000000000 -0.00000000000000000 -0.00000000000000000 1.00000000000000000 0.00000000000000000 515.79933648387475387
Polygon3D 0
PolygonOnTriangulations 0
Surfaces 9
1 14.30000000000097771 317.60000000000019327 0.00000000000000000 -1.00000000000000000 0.00000000006924959 0.00000000000000000 0.00000000006924959 1.00000000000000000 0.00000000000000000 0.00000000000000000 0.00000000000000000 -1.00000000000000000 
2 530.09933648387573157 317.59999999999990905 0.00000000000000000 -0.00000000000000000 -0.00000000000000000 -1.00000000000000000 1.00000000000000000 0.00000000000000000 0.00000000000000000 -0.00000000000000000 1.00000000000000000 -0.00000000000000000 515.79933648387475387
2 11.80000000442654695 381.50000000000056843 0.00000000000000000 -0.00000000000000000 -0.00000000000000000 -1.00000000000000000 1.00000000000000000 0.00000000000000000 0.00000000000000000 -0.00000000000000000 1.00000000000000000 -0.00000000000000000 2.49999999999947908
1 20.00799387596200773 183.82259139481931243 0.00000000000000000 0.00000000000000000 0.00000000000000000 1.00000000000000000 1.00000000000000000 0.00000000000000000 -0.00000000000000000 -0.00000000000000000 1.00000000000000000 0.00000000000000000 
1 -0.00000000000002366 -0.00000000000001431 0.00000000000000000 -0.00000000000000000 -0.00000000000000000 -1.00000000000000000 -1.00000000000000000 0.00000000000000000 0.00000000000000000 0.00000000000000000 1.00000000000000000 -0.00000000000000000 
1 -0.00000000000003249 -0.00000000000001856 3.00000000000000044 0.00000000000000000 0.00000000000000000 1.00000000000000000 0.00000000000000000 1.00000000000000000 -0.00000000000000000 -1.00000000000000000 0.00000000000000000 0.00000000000000000 
1 11.80000000442820784 384.00000000000005684 0.00000000000000000 0.00000000000000000 -1.00000000000000000 0.00000000000000000 -1.00000000000000000 0.00000000000000000 0.00000000000000000 -0.00000000000000000 -0.00000000000000000 -1.00000000000000000 
1 0.00000000000000000 384.00000000000005684 0.00000000000000000 1.00000000000000000 0.00000000000000000 -0.00000000000000000 0.00000000000000000 -1.00000000000000000 0.00000000000000000 0.00000000000000000 -0.00000000000000000 -1.00000000000000000 
1 0.00000000000000000 0.00000000000000000 0.00000000000000000 -0.50000000000000011 0.86602540378443860 0.00000000000000000 0.86602540378443860 0.50000000000000011 0.00000000000000000 0.00000000000000000 0.00000000000000000 -1.00000000000000000 
Triangulations 0

TShapes 34
Ve
0.000000100000000
14.300000000000978 317.600000000000193 0.000000000000000
0 0

0101101
*
Ed
 0.000000100000000 1 1 0
1  1 0 0.000000000000000 3.000000000000000
2  1 2 0 0.000000000000000 3.000000000000000
4 G1 1 0 2 0
0

0101000
+34 5 -34 7 *
Ve
0.000000100000000
14.300000004426026 381.499999999827423 0.000000000000000
0 0

0101101
*
Ed
 0.000000100000000 1 1 0
1  2 0 0.000000000000000 3.000000000000000
2  2 3 0 0.000000000000000 3.000000000000000
4 G1 1 0 3 0
0

0101000
+32 5 -32 7 *
Ed
 0.000000100000000 1 1 0
1  3 0 0.000000000000000 63.899999999827230
2  3 4 8 0.000000000000000 63.899999999827230
2  4 5 10 0.000000000000000 63.899999999827230
2  5 6 11 0.000000000000000 63.899999999827230
0

0101000
+34 0 -32 0 *
Wi

0101100
+33 0 -31 0 -30 5 +30 7 *
Fa
0  0.000000100000000 1 0

0101000
+29 0 *
Ve
0.000000100000000
11.800000004428208 384.000000000000057 0.000000000000000
0 0

0101101
*
Ed
 0.000000100000000 1 1 0
1  4 0 0.000000000000000 3.000000000000000
2  6 3 0 0.000000000000000 3.000000000000000
4 G1 3 0 7 0
2  7 7 0 0.000000000000000 3.000000000000000
0

0101000
+27 5 -27 7 *
Ed
 0.000000100000000 1 1 0
1  5 0 -0.000000000069268 1.570796326794232
2  8 3 12 -0.000000000069268 1.570796326794232
2  9 3 13 -0.000000000069268 1.570796326794232
2  10 4 8 -0.000000000069268 1.570796326794232
2  11 5 10 -0.000000000069268 1.570796326794232
2  12 6 11 -0.000000000069268 1.570796326794232
0

0101000
+32 0 -27 0 *
Wi

0101100
+31 0 -26 0 -25 5 +25 7 *
Fa
0  0.000000100000000 3 0

0101000
+24 0 *
Ve
0.000000100000000
0.000000000000000 384.000000000000057 0.000000000000000
0 0

0101101
*
Ed
 0.000000100000000 1 1 0
1  6 0 0.000000000000000 3.000000000000000
2  13 7 0 0.000000000000000 3.000000000000000
2  14 8 0 0.000000000000000 3.000000000000000
0

0101000
+22 5 -22 7 *
Ed
 0.000000100000000 1 1 0
1  7 0 0.000000000000000 11.800000004428208
2  15 7 12 0.000000000000000 11.800000004428208
2  16 7 13 0.000000000000000 11.800000004428208
2  17 4 8 0.000000000000000 11.800000004428208
0

0101000
+27 0 -22 0 *
Wi

0101100
+26 0 -21 0 -20 5 +20 7 *
Fa
0  0.000000100000000 7 0

0101000
+19 0 *
Ve
0.000000100000000
0.000000000000000 0.000000000000000 0.000000000000000
0 0

0101101
*
Ed
 0.000000100000000 1 1 0
1  8 0 0.000000000000000 3.000000000000000
2  18 8 0 0.000000000000000 3.000000000000000
2  19 9 0 0.000000000000000 3.000000000000000
0

0101000
+17 5 -17 7 *
Ed
 0.000000100000000 1 1 0
1  9 0 0.000000000000000 384.000000000000057
2  20 8 12 0.000000000000000 384.000000000000057
2  21 8 13 0.000000000000000 384.000000000000057
2  22 4 8 0.000000000000000 384.000000000000057
0

0101000
+22 0 -17 0 *
Wi

0101100
+21 0 -16 0 -15 5 +15 7 *
Fa
0  0.000000100000000 8 0

0101000
+14 0 *
Ve
0.000000100000004
88.487965560671171 51.088550736495847 0.000000000000000
0 0

0101101
*
Ed
 0.000000100000004 1 1 0
1  10 0 0.000000000000000 3.000000000000000
2  23 2 0 0.000000000000000 3.000000000000000
2  24 9 0 0.000000000000000 3.000000000000000
0

0101000
+12 5 -12 7 *
Ed
 0.000000100000000 1 1 0
1  11 0 0.000000000000000 102.177101472991680
2  25 9 12 0.000000000000000 102.177101472991680
2  26 9 13 0.000000000000000 102.177101472991680
2  27 4 8 0.000000000000000 102.177101472991680
0

0101000
+17 0 -12 0 *
Wi

0101100
+16 0 -11 0 -10 5 +10 7 *
Fa
0  0.000000100000000 9 0

0101000
+9 0 *
Ed
 0.000000100000000 1 1 0
1  12 0 3.141592653589793 3.684580028299671
2  28 2 12 3.141592653589793 3.684580028299671
2  29 2 13 3.141592653589793 3.684580028299671
2  30 4 8 3.141592653589793 3.684580028299671
0

0101000
+34 0 -12 0 *
Wi

0101100
+33 0 -11 0 -7 5 +7 7 *
Fa
0  0.000000100000000 2 0

0101000
+6 0 *
Wi

0101100
+30 0 +25 0 +20 0 +15 0 +10 0 -7 0 *
Fa
0  0.000000100000000 4 0

0101000
+4 15 *
Sh

0101100
+28 0 +23 0 +18 0 +13 0 +8 0 -5 0 +3 14 -3 16 *
So

1100000
-2 0 *

+1 1 