
CASCADE Topology V1, (c) Matra-Datavision
Locations 16
1
1.000000000000000 0.000000000000000 0.000000000000000 0.000000000000000 
0.000000000000000 1.000000000000000 0.000000000000000 0.000000000000000 
0.000000000000000 0.000000000000000 1.000000000000000 0.000000000000000 
1
1.000000000000000 0.000000000000000 0.000000000000000 0.000000000000000 
0.000000000000000 1.000000000000000 0.000000000000000 0.000000000000000 
0.000000000000000 0.000000000000000 1.000000000000000 0.000000000000000 
1
1.000000000000000 0.000000000000000 0.000000000000000 0.000000000000000 
0.000000000000000 1.000000000000000 0.000000000000000 0.000000000000000 
0.000000000000000 0.000000000000000 1.000000000000000 0.000000000000000 
2  2 1 3 -1 0
1
1.000000000000000 0.000000000000000 0.000000000000000 0.000000000000000 
0.000000000000000 1.000000000000000 0.000000000000000 0.000000000000000 
0.000000000000000 0.000000000000000 1.000000000000000 0.000000000000000 
2  5 -1 3 1 2 -1 0
1
1.000000000000000 0.000000000000000 0.000000000000000 -0.000000000000000 
0.000000000000000 1.000000000000000 0.000000000000000 128.000000000000000 
0.000000000000000 0.000000000000000 1.000000000000000 0.000000000000028 
2  7 1 2 1 3 -1 0
2  5 -1 3 1 2 -1 7 -1 0
1
1.000000000000000 0.000000000000000 0.000000000000000 0.000000000000000 
0.000000000000000 1.000000000000000 0.000000000000000 -256.000000000000000 
0.000000000000000 0.000000000000000 1.000000000000000 -0.000000000000057 
2  7 1 10 1 2 1 3 -1 0
2  5 -1 3 1 2 -1 10 -1 7 -1 0
2  5 -1 0
2  7 -1 0
2  7 1 10 1 0
2  10 -1 7 -1 0
Curve2ds 44
1 1.57079632679489656 0.00000000000000000 0.00000000000000000 -1.00000000000000000 
1 0.00000000000000000 -248.54312911515273754 1.00000000000000000 0.00000000000000000 
1 0.00000000000000000 -248.54312911515273754 1.00000000000000000 0.00000000000000000 
1 0.00000000000000000 -248.54312911515273754 1.00000000000000000 0.00000000000000000 
1 0.00000000000000000 0.00000000000000000 0.00000000000000000 -1.00000000000000000 
1 0.00000000000000000 0.00000000000000000 1.00000000000000000 0.00000000000000000 
1 0.00000000000000000 0.00000000000000000 1.00000000000000000 0.00000000000000000 
1 0.00000000000000000 -256.00000000000000000 1.00000000000000000 0.00000000000000000 
1 6.28318530717958623 0.00000000000000000 -1.00000000000000000 0.00000000000000000 
1 1.57079632679489656 0.00000000000000000 0.00000000000000000 1.00000000000000000 
1 4.71238898038468967 0.00000000000000000 0.00000000000000000 1.00000000000000000 
1 0.00000000000000000 0.00000000000000000 0.00000000000000000 -1.00000000000000000 
1 6.28318530717958623 0.00000000000000000 0.00000000000000000 -1.00000000000000000 
1 0.00000000000000000 -248.84312911515274891 1.00000000000000000 0.00000000000000000 
1 0.00000000000000000 0.00000000000000000 0.00000000000000000 -1.00000000000000000 
1 6.28318530717958623 0.00000000000000000 0.00000000000000000 -1.00000000000000000 
1 0.00000000000000000 -248.84312911515274891 1.00000000000000000 0.00000000000000000 
1 0.00000000000000000 0.00000000000000000 0.00000000000000000 -1.00000000000000000 
1 6.28318530717958623 0.00000000000000000 0.00000000000000000 -1.00000000000000000 
1 0.00000000000000000 -248.84312911515274891 1.00000000000000000 0.00000000000000000 
1 6.28318530717958623 0.00000000000000000 0.00000000000000000 -1.00000000000000000 
1 0.00000000000000000 1.00000000000000000 1.00000000000000000 0.00000000000000000 
1 0.00000000000000000 0.00000000000000000 0.00000000000000000 1.00000000000000000 
1 6.28318530717958623 0.00000000000000000 0.00000000000000000 1.00000000000000000 
1 6.28318530717958623 1.00000000000000000 -1.00000000000000000 0.00000000000000000 
1 1.57079632679489656 0.00000000000000000 0.00000000000000000 -1.00000000000000000 
1 4.71238898038468967 0.00000000000000000 0.00000000000000000 -1.00000000000000000 
1 0.00000000000000000 0.00000000000000000 1.00000000000000000 0.00000000000000000 
1 0.00000000000000000 0.00000000000000000 1.00000000000000000 0.00000000000000000 
1 0.00000000000000000 -256.00000000000000000 1.00000000000000000 0.00000000000000000 
1 6.28318530717958623 0.00000000000000000 -1.00000000000000000 0.00000000000000000 
1 6.28318530717958623 0.00000000000000000 0.00000000000000000 1.00000000000000000 
1 0.00000000000000000 0.00000000000000000 0.00000000000000000 1.00000000000000000 
1 0.00000000000000000 -271.54312911515273754 1.00000000000000000 0.00000000000000000 
1 0.00000000000000000 -271.54312911515273754 1.00000000000000000 0.00000000000000000 
1 0.00000000000000000 -271.54312911515273754 1.00000000000000000 0.00000000000000000 
1 0.00000000000000000 1.00000000000000000 1.00000000000000000 0.00000000000000000 
1 4.71238898038468967 0.00000000000000000 0.00000000000000000 1.00000000000000000 
1 1.57079632679489656 0.00000000000000000 0.00000000000000000 1.00000000000000000 
1 6.28318530717958623 1.00000000000000000 -1.00000000000000000 0.00000000000000000 
1 6.28318530717958623 0.00000000000000000 0.00000000000000000 -1.00000000000000000 
1 0.00000000000000000 -271.24312911515272617 1.00000000000000000 0.00000000000000000 
1 0.00000000000000000 -271.24312911515272617 1.00000000000000000 0.00000000000000000 
1 0.00000000000000000 -271.24312911515272617 1.00000000000000000 0.00000000000000000 
Curves 62
1 11.50000000000000000 128.00000000000000000 -0.39999999999997149 0.00000000000000000 -1.00000000000000000 -0.00000000000000022 
1 11.50000000000000000 0.00000000000000000 0.00000000000000000 0.00000000000000000 0.00000000000000022 -1.00000000000000000 
1 11.50000000000000000 0.00000000000000000 0.00000000000000000 0.00000000000000000 0.00000000000000022 -1.00000000000000000 
1 11.50000000000000000 128.00000000000000000 -14.99999999999997158 0.00000000000000000 -1.00000000000000000 -0.00000000000000022 
2 11.50000000000000000 -120.00000000000000000 -8.00000000000000000 1.00000000000000000 0.00000000000000000 0.00000000000000000 -0.00000000000000000 1.00000000000000000 0.00000000000000000 0.00000000000000000 -0.00000000000000000 1.00000000000000000 1.69999999999999996
2 11.50000000000000000 0.00000000000000000 -8.00000000000000000 1.00000000000000000 0.00000000000000000 0.00000000000000000 -0.00000000000000000 1.00000000000000000 0.00000000000000000 0.00000000000000000 -0.00000000000000000 1.00000000000000000 1.69999999999999996
2 11.50000000000000000 120.00000000000000000 -8.00000000000000000 1.00000000000000000 0.00000000000000000 0.00000000000000000 -0.00000000000000000 1.00000000000000000 0.00000000000000000 0.00000000000000000 -0.00000000000000000 1.00000000000000000 1.69999999999999996
1 11.10000000000000142 128.00000000000000000 0.00000000000002842 0.00000000000000000 -1.00000000000000000 -0.00000000000000022 
2 11.10000000000000142 0.00000000000000000 -0.39999999999999991 -0.00000000000000000 1.00000000000000000 0.00000000000000022 0.00000000000000000 -0.00000000000000022 1.00000000000000000 1.00000000000000000 0.00000000000000000 0.00000000000000000 0.40000000000000002
2 11.10000000000000142 0.00000000000000000 -0.39999999999999991 -0.00000000000000000 1.00000000000000000 0.00000000000000022 0.00000000000000000 -0.00000000000000022 1.00000000000000000 1.00000000000000000 0.00000000000000000 0.00000000000000000 0.40000000000000002
6 0 1 11.50000000000000000 128.00000000000000000 -14.99999999999997158  11.19999999999999929 128.00000000000000000 -14.99999999999997158  
1 11.19999999999999929 128.00000000000000000 0.00000000000002842 0.00000000000000000 0.00000000000000022 -1.00000000000000000 
6 0 1 11.50000000000000000 128.00000000000000000 -0.39999999999997149  11.19999999999999929 128.00000000000000000 -0.39999999999997149  
6 0 1 11.50000000000000000 -128.00000000000000000 -0.40000000000002833  11.19999999999999929 -128.00000000000000000 -0.40000000000002833  
1 11.19999999999999929 -128.00000000000000000 -0.00000000000002842 0.00000000000000000 0.00000000000000022 -1.00000000000000000 
6 0 1 11.50000000000000000 -128.00000000000000000 -15.00000000000002842  11.19999999999999929 -128.00000000000000000 -15.00000000000002842  
1 11.19999999999999929 128.00000000000000000 -14.99999999999997158 0.00000000000000000 -1.00000000000000000 -0.00000000000000022 
1 260.04312911515273754 -118.29999999999999716 -8.00000000000000000 -1.00000000000000000 -0.00000000000000000 -0.00000000000000000 
2 11.19999999999998863 -120.00000000000000000 -8.00000000000000000 1.00000000000000000 0.00000000000000000 0.00000000000000000 -0.00000000000000000 1.00000000000000000 0.00000000000000000 0.00000000000000000 -0.00000000000000000 1.00000000000000000 1.69999999999999996
1 260.04312911515273754 1.69999999999999996 -8.00000000000000000 -1.00000000000000000 -0.00000000000000000 -0.00000000000000000 
2 11.19999999999998863 0.00000000000000000 -8.00000000000000000 1.00000000000000000 0.00000000000000000 0.00000000000000000 -0.00000000000000000 1.00000000000000000 0.00000000000000000 0.00000000000000000 -0.00000000000000000 1.00000000000000000 1.69999999999999996
1 260.04312911515273754 121.70000000000000284 -8.00000000000000000 -1.00000000000000000 -0.00000000000000000 -0.00000000000000000 
2 11.19999999999998863 120.00000000000000000 -8.00000000000000000 1.00000000000000000 0.00000000000000000 0.00000000000000000 -0.00000000000000000 1.00000000000000000 0.00000000000000000 0.00000000000000000 -0.00000000000000000 1.00000000000000000 1.69999999999999996
1 -11.09999999999999964 128.00000000000000000 0.00000000000002842 0.00000000000000000 -1.00000000000000000 -0.00000000000000022 
1 -11.50000000000000000 0.00000000000000000 0.00000000000000000 1.00000000000000000 0.00000000000000000 0.00000000000000000 
1 -11.50000000000000000 0.00000000000000000 0.00000000000000000 1.00000000000000000 0.00000000000000000 0.00000000000000000 
2 11.10000000000000142 128.00000000000000000 -0.39999999999997149 -0.00000000000000000 1.00000000000000000 0.00000000000000022 0.00000000000000000 -0.00000000000000022 1.00000000000000000 1.00000000000000000 0.00000000000000000 0.00000000000000000 0.10000000000000003
6 0 1 11.10000000000000142 128.00000000000000000 0.00000000000002842  11.10000000000000142 128.00000000000000000 -0.29999999999997146  
7 0 0  1 2 2  11.09999999999999964 -128.00000000000000000 -0.00000000000002828  11.10000000000000320 -128.00000000000000000 -0.30000000000002824 
 0.00000000000000000 2 1.00000000000000000 2
2 11.10000000000000142 -128.00000000000000000 -0.40000000000002833 -0.00000000000000000 1.00000000000000000 0.00000000000000022 0.00000000000000000 -0.00000000000000022 1.00000000000000000 1.00000000000000000 0.00000000000000000 0.00000000000000000 0.10000000000000003
1 11.19999999999999929 128.00000000000000000 -0.39999999999997149 0.00000000000000000 -1.00000000000000000 -0.00000000000000022 
1 -11.50000000000000000 128.00000000000000000 -0.39999999999997193 0.00000000000000000 -1.00000000000000000 -0.00000000000000022 
2 -11.10000000000000142 -0.00000000000000255 -0.40000000000000036 0.00000000000000000 1.00000000000000000 0.00000000000000022 0.00000000000000022 -0.00000000000000022 1.00000000000000000 1.00000000000000000 0.00000000000000000 -0.00000000000000022 0.40000000000000002
2 -11.10000000000000142 -0.00000000000000255 -0.40000000000000036 0.00000000000000000 1.00000000000000000 0.00000000000000022 0.00000000000000022 -0.00000000000000022 1.00000000000000000 1.00000000000000000 0.00000000000000000 -0.00000000000000022 0.40000000000000002
1 -11.50000000000000000 128.00000000000000000 -0.29999999999997157 1.00000000000000000 0.00000000000000000 0.00000000000000000 
6 0 1 -11.09999999999999964 128.00000000000000000 0.00000000000002842  -11.09999999999999964 128.00000000000000000 -0.29999999999997157  
6 0 1 -11.09999999999999964 -128.00000000000000000 -0.00000000000002842  -11.09999999999999964 -128.00000000000000000 -0.30000000000002841  
1 -11.50000000000000000 -128.00000000000000000 -0.30000000000002841 1.00000000000000000 0.00000000000000000 0.00000000000000000 
1 11.10000000000000142 128.00000000000000000 -0.29999999999997146 0.00000000000000000 -1.00000000000000000 -0.00000000000000022 
1 -11.50000000000000000 128.00000000000000000 -14.99999999999997158 0.00000000000000000 -1.00000000000000000 -0.00000000000000022 
1 -11.50000000000000000 0.00000000000000333 -15.00000000000000000 0.00000000000000000 -0.00000000000000022 1.00000000000000000 
1 -11.50000000000000000 0.00000000000000333 -15.00000000000000000 0.00000000000000000 -0.00000000000000022 1.00000000000000000 
2 -11.50000000000000000 -120.00000000000000000 -8.00000000000000000 1.00000000000000000 0.00000000000000000 0.00000000000000000 -0.00000000000000000 1.00000000000000000 0.00000000000000000 0.00000000000000000 -0.00000000000000000 1.00000000000000000 1.69999999999999996
2 -11.50000000000000000 120.00000000000000000 -8.00000000000000000 1.00000000000000000 0.00000000000000000 0.00000000000000000 -0.00000000000000000 1.00000000000000000 0.00000000000000000 0.00000000000000000 -0.00000000000000000 1.00000000000000000 1.69999999999999996
2 -11.50000000000000000 0.00000000000000000 -8.00000000000000000 1.00000000000000000 0.00000000000000000 0.00000000000000000 -0.00000000000000000 1.00000000000000000 0.00000000000000000 0.00000000000000000 -0.00000000000000000 1.00000000000000000 1.69999999999999996
2 -11.10000000000000142 128.00000000000000000 -0.39999999999997193 0.00000000000000000 1.00000000000000000 0.00000000000000022 0.00000000000000022 -0.00000000000000022 1.00000000000000000 1.00000000000000000 0.00000000000000000 -0.00000000000000022 0.10000000000000003
6 0 1 -11.50000000000000000 128.00000000000000000 -0.39999999999997193  -11.20000000000000107 128.00000000000000000 -0.39999999999997193  
7 0 0  1 2 2  -11.50000000000000178 -128.00000000000000000 -0.40000000000002867  -11.19999999999999929 -128.00000000000000000 -0.40000000000002867 
 0.00000000000000000 2 1.00000000000000000 2
2 -11.10000000000000142 -128.00000000000000000 -0.40000000000002878 0.00000000000000000 1.00000000000000000 0.00000000000000022 0.00000000000000022 -0.00000000000000022 1.00000000000000000 1.00000000000000000 0.00000000000000000 -0.00000000000000022 0.10000000000000003
1 -11.09999999999999964 128.00000000000000000 -0.29999999999997157 0.00000000000000000 -1.00000000000000000 -0.00000000000000022 
6 0 1 -11.50000000000000000 128.00000000000000000 -14.99999999999997158  -11.19999999999999929 128.00000000000000000 -14.99999999999997158  
1 -11.19999999999999929 128.00000000000000000 -14.99999999999997158 0.00000000000000000 -1.00000000000000000 -0.00000000000000022 
6 0 1 -11.50000000000000000 -128.00000000000000000 -15.00000000000002842  -11.19999999999999929 -128.00000000000000000 -15.00000000000002842  
1 -11.19999999999999929 128.00000000000000000 -14.99999999999997158 0.00000000000000000 -0.00000000000000022 1.00000000000000000 
1 -11.19999999999999929 -128.00000000000000000 -15.00000000000002842 0.00000000000000000 -0.00000000000000022 1.00000000000000000 
2 -11.19999999999998863 -120.00000000000000000 -8.00000000000000000 1.00000000000000000 0.00000000000000000 0.00000000000000000 -0.00000000000000000 1.00000000000000000 0.00000000000000000 0.00000000000000000 -0.00000000000000000 1.00000000000000000 1.69999999999999996
1 260.04312911515273754 -118.29999999999999716 -8.00000000000000000 -1.00000000000000000 -0.00000000000000000 -0.00000000000000000 
2 -11.19999999999998863 120.00000000000000000 -8.00000000000000000 1.00000000000000000 0.00000000000000000 0.00000000000000000 -0.00000000000000000 1.00000000000000000 0.00000000000000000 0.00000000000000000 -0.00000000000000000 1.00000000000000000 1.69999999999999996
1 260.04312911515273754 121.70000000000000284 -8.00000000000000000 -1.00000000000000000 -0.00000000000000000 -0.00000000000000000 
2 -11.19999999999998863 0.00000000000000000 -8.00000000000000000 1.00000000000000000 0.00000000000000000 0.00000000000000000 -0.00000000000000000 1.00000000000000000 0.00000000000000000 0.00000000000000000 -0.00000000000000000 1.00000000000000000 1.69999999999999996
1 260.04312911515273754 1.69999999999999996 -8.00000000000000000 -1.00000000000000000 -0.00000000000000000 -0.00000000000000000 
1 -11.20000000000000107 128.00000000000000000 -0.39999999999997193 -0.00000000000000000 -1.00000000000000000 -0.00000000000000022 
Polygon3D 0
PolygonOnTriangulations 0
Surfaces 28
1 11.50000000000000000 128.00000000000000000 -0.39999999999997149 1.00000000000000000 0.00000000000000000 0.00000000000000000 0.00000000000000000 0.00000000000000022 -1.00000000000000000 -0.00000000000000000 1.00000000000000000 0.00000000000000022 
2 11.10000000000000142 128.00000000000000000 -0.39999999999997149 0.00000000000000000 1.00000000000000000 0.00000000000000022 0.00000000000000000 -0.00000000000000022 1.00000000000000000 1.00000000000000000 0.00000000000000000 -0.00000000000000000 0.40000000000000002
2 260.04312911515273754 -120.00000000000000000 -8.00000000000000000 1.00000000000000000 0.00000000000000000 0.00000000000000000 -0.00000000000000000 1.00000000000000000 0.00000000000000000 0.00000000000000000 -0.00000000000000000 1.00000000000000000 1.69999999999999996
2 260.04312911515273754 0.00000000000000000 -8.00000000000000000 1.00000000000000000 0.00000000000000000 0.00000000000000000 -0.00000000000000000 1.00000000000000000 0.00000000000000000 0.00000000000000000 -0.00000000000000000 1.00000000000000000 1.69999999999999996
2 260.04312911515273754 120.00000000000000000 -8.00000000000000000 1.00000000000000000 0.00000000000000000 0.00000000000000000 -0.00000000000000000 1.00000000000000000 0.00000000000000000 0.00000000000000000 -0.00000000000000000 1.00000000000000000 1.69999999999999996
1 -11.09999999999999964 128.00000000000000000 0.00000000000002842 0.00000000000000000 -0.00000000000000022 1.00000000000000000 1.00000000000000000 0.00000000000000000 0.00000000000000000 -0.00000000000000000 1.00000000000000000 0.00000000000000022 
9 0 0 0 0 7 1 8 2 2 2 11.10000000000000142 128.00000000000000000 0.00000000000002853  11.09999999999999964 128.00000000000000000 -0.29999999999997151  
11.18975979010259536 128.00000000000028422 0.00000000000002776  11.12243994752566856 128.00000000000028422 -0.29999999999997234  
11.27951914599323047 127.99999999999843681 -0.02349955462062374  11.14487978649820654 127.99999999999843681 -0.30587488865513013  
11.36189877632947542 128.00000000000292744 -0.07049491111909637  11.16547469408257776 128.00000000000292744 -0.31762372777976045  
11.42950508888059069 127.99999999999720046 -0.13810122367078256  11.18237627221995290 127.99999999999720046 -0.33452530591766755  
11.47650044537952319 128.00000000000159162 -0.22048085400659537  11.19412511134497912 128.00000000000159162 -0.35512021350163020  
11.49999999999994849 127.99999999999954525 -0.31024020989740503  11.19999999999996909 127.99999999999954525 -0.37756005247432944  
11.50000000000000178 128.00000000000000000 -0.39999999999997149  11.19999999999999929 128.00000000000000000 -0.39999999999997154  

0.00000000000000000 8
1.57079632679489656 8

0.00000000000000000 2
1.00000000000000000 2

9 0 0 0 0 7 1 8 2 2 2 11.49999999999999289 -127.99999999999991473 -0.40000000000002822  11.19999999999999574 -127.99999999999991473 -0.40000000000002800  
11.50000000000007638 -128.00000000000113687 -0.31024020989746465  11.20000000000010942 -128.00000000000113687 -0.37756005247439089  
11.47650044537920877 -127.99999999999728573 -0.22048085400664522  11.19412511134460608 -127.99999999999728573 -0.35512021350167383  
11.42950508888102057 -128.00000000000372324 -0.13810122367084982  11.18237627222053554 -128.00000000000372324 -0.33452530591774599  
11.36189877632913259 -127.99999999999698730 -0.07049491111914440  11.16547469408206084 -127.99999999999698730 -0.31762372777979703  
11.27951914599337080 -128.00000000000147793 -0.02349955462068514  11.14487978649845346 -128.00000000000147793 -0.30587488865519757  
11.18975979010258648 -127.99999999999965894 -0.00000000000002798  11.12243994752561882 -127.99999999999965894 -0.30000000000002691  
11.09999999999999964 -128.00000000000000000 -0.00000000000002828  11.10000000000000320 -128.00000000000000000 -0.30000000000002824  

4.71238898038468967 8
6.28318530717958623 8

0.00000000000000000 2
1.00000000000000000 2

1 11.19999999999999929 128.00000000000000000 0.00000000000002842 0.00000000000000000 1.00000000000000000 0.00000000000000022 0.00000000000000000 0.00000000000000022 -1.00000000000000000 -1.00000000000000000 0.00000000000000000 0.00000000000000000 
1 11.19999999999999929 -128.00000000000000000 -0.00000000000002842 -0.00000000000000000 -1.00000000000000000 -0.00000000000000022 0.00000000000000000 -0.00000000000000022 1.00000000000000000 -1.00000000000000000 0.00000000000000000 0.00000000000000000 
1 11.19999999999999929 128.00000000000000000 -14.99999999999997158 0.00000000000000000 0.00000000000000022 -1.00000000000000000 0.00000000000000000 -1.00000000000000000 -0.00000000000000022 -1.00000000000000000 0.00000000000000000 -0.00000000000000000 
2 -11.10000000000000142 128.00000000000000000 -0.39999999999997193 0.00000000000000000 1.00000000000000000 0.00000000000000022 0.00000000000000022 -0.00000000000000022 1.00000000000000000 1.00000000000000000 0.00000000000000000 -0.00000000000000022 0.40000000000000002
2 11.10000000000000142 128.00000000000000000 -0.39999999999997149 0.00000000000000000 1.00000000000000000 0.00000000000000022 0.00000000000000000 -0.00000000000000022 1.00000000000000000 1.00000000000000000 0.00000000000000000 -0.00000000000000000 0.10000000000000003
1 11.19999999999999929 128.00000000000000000 -0.39999999999997149 1.00000000000000000 0.00000000000000000 0.00000000000000000 0.00000000000000000 0.00000000000000022 -1.00000000000000000 -0.00000000000000000 1.00000000000000000 0.00000000000000022 
1 -11.50000000000000000 128.00000000000000000 -14.99999999999997158 -1.00000000000000000 0.00000000000000000 0.00000000000000000 0.00000000000000000 -0.00000000000000022 1.00000000000000000 0.00000000000000000 1.00000000000000000 0.00000000000000022 
9 0 0 0 0 7 1 8 2 2 2 -11.49999999999999467 127.99999999999991473 -0.39999999999997171  -11.19999999999999574 127.99999999999991473 -0.39999999999997166  
-11.50000000000009770 128.00000000000113687 -0.31024020989740830  -11.20000000000010054 128.00000000000113687 -0.37756005247433322  
-11.47650044537912706 127.99999999999728573 -0.22048085400658812  -11.19412511134460608 127.99999999999728573 -0.35512021350162160  
-11.42950508888115024 128.00000000000372324 -0.13810122367079469  -11.18237627222056929 128.00000000000372324 -0.33452530591768326  
-11.36189877632900824 127.99999999999698730 -0.07049491111908625  -11.16547469408199689 127.99999999999698730 -0.31762372777974651  
-11.27951914599344185 128.00000000000147793 -0.02349955462062978  -11.14487978649850497 128.00000000000147793 -0.30587488865513773  
-11.18975979010256339 127.99999999999965894 0.00000000000002872  -11.12243994752560106 127.99999999999965894 -0.29999999999997184  
-11.10000000000000142 128.00000000000000000 0.00000000000002809  -11.10000000000000320 128.00000000000000000 -0.29999999999997196  

4.71238898038468967 8
6.28318530717958623 8

0.00000000000000000 2
1.00000000000000000 2

9 0 0 0 0 7 1 8 2 2 2 -11.10000000000000142 -128.00000000000000000 -0.00000000000002875  -11.09999999999999964 -128.00000000000000000 -0.30000000000002869  
-11.18975979010257760 -128.00000000000028422 -0.00000000000002911  -11.12243994752568099 -128.00000000000028422 -0.30000000000002869  
-11.27951914599327310 -127.99999999999843681 -0.02349955462068228  -11.14487978649815503 -127.99999999999843681 -0.30587488865519114  
-11.36189877632940970 -128.00000000000292744 -0.07049491111915127  -11.16547469408267901 -128.00000000000292744 -0.31762372777981268  
-11.42950508888065286 -127.99999999999720046 -0.13810122367084263  -11.18237627221983743 -127.99999999999720046 -0.33452530591772850  
-11.47650044537948766 -128.00000000000159162 -0.22048085400665038  -11.19412511134505195 -128.00000000000159162 -0.35512021350168632  
-11.49999999999995559 -127.99999999999954525 -0.31024020989746309  -11.19999999999994422 -127.99999999999954525 -0.37756005247438684  
-11.50000000000000178 -128.00000000000000000 -0.40000000000002867  -11.19999999999999929 -128.00000000000000000 -0.40000000000002867  

0.00000000000000000 8
1.57079632679489656 8

0.00000000000000000 2
1.00000000000000000 2

1 -11.50000000000000000 128.00000000000000000 -0.29999999999997157 0.00000000000000000 1.00000000000000000 0.00000000000000000 1.00000000000000000 0.00000000000000000 0.00000000000000000 0.00000000000000000 0.00000000000000000 -1.00000000000000000 
1 -11.50000000000000000 -128.00000000000000000 -0.30000000000002841 0.00000000000000000 -1.00000000000000000 0.00000000000000000 -1.00000000000000000 0.00000000000000000 0.00000000000000000 -0.00000000000000000 -0.00000000000000000 -1.00000000000000000 
2 260.04312911515273754 -120.00000000000000000 -8.00000000000000000 1.00000000000000000 0.00000000000000000 0.00000000000000000 -0.00000000000000000 1.00000000000000000 0.00000000000000000 0.00000000000000000 -0.00000000000000000 1.00000000000000000 1.69999999999999996
2 260.04312911515273754 120.00000000000000000 -8.00000000000000000 1.00000000000000000 0.00000000000000000 0.00000000000000000 -0.00000000000000000 1.00000000000000000 0.00000000000000000 0.00000000000000000 -0.00000000000000000 1.00000000000000000 1.69999999999999996
2 260.04312911515273754 0.00000000000000000 -8.00000000000000000 1.00000000000000000 0.00000000000000000 0.00000000000000000 -0.00000000000000000 1.00000000000000000 0.00000000000000000 0.00000000000000000 -0.00000000000000000 1.00000000000000000 1.69999999999999996
2 -11.10000000000000142 128.00000000000000000 -0.39999999999997193 0.00000000000000000 1.00000000000000000 0.00000000000000022 0.00000000000000022 -0.00000000000000022 1.00000000000000000 1.00000000000000000 0.00000000000000000 -0.00000000000000022 0.10000000000000003
1 -11.09999999999999964 128.00000000000000000 -0.29999999999997157 0.00000000000000000 -0.00000000000000022 1.00000000000000000 1.00000000000000000 0.00000000000000000 0.00000000000000000 -0.00000000000000000 1.00000000000000000 0.00000000000000022 
1 -11.19999999999999929 128.00000000000000000 -14.99999999999997158 0.00000000000000000 0.00000000000000022 -1.00000000000000000 0.00000000000000000 1.00000000000000000 0.00000000000000022 1.00000000000000000 -0.00000000000000000 0.00000000000000000 
1 -11.19999999999999929 128.00000000000000000 -14.99999999999997158 0.00000000000000000 1.00000000000000000 0.00000000000000022 0.00000000000000000 -0.00000000000000022 1.00000000000000000 1.00000000000000000 0.00000000000000000 -0.00000000000000000 
1 -11.19999999999999929 -128.00000000000000000 -15.00000000000002842 0.00000000000000000 -1.00000000000000000 -0.00000000000000022 0.00000000000000000 0.00000000000000022 -1.00000000000000000 1.00000000000000000 0.00000000000000000 0.00000000000000000 
1 -11.19999999999999929 128.00000000000000000 -14.99999999999997158 -1.00000000000000000 0.00000000000000000 0.00000000000000000 0.00000000000000000 -0.00000000000000022 1.00000000000000000 0.00000000000000000 1.00000000000000000 0.00000000000000022 
Triangulations 0

TShapes 168
Ve
0.001000000000000
11.500000000000000 128.000000000000000 -0.399999999999971
0 0

0101101
*
Ve
0.001000000000000
11.500000000000000 -128.000000000000000 -0.400000000000028
0 0

0101101
*
Ed
 0.001000000000000 1 1 0
1  1 0 0.000000000000000 256.000000000000000
2  1 2 0 0.000000000000000 256.000000000000000
4 G1 1 0 2 0
0

0101000
+168 6 -167 6 *
Ve
0.001000000000000
11.500000000000000 128.000000000000000 -14.999999999999972
0 0

0101101
*
Ed
 0.001000000000000 1 1 0
1  2 0 0.400000000000000 15.000000000000000
0

0101000
+168 9 -165 9 *
Ve
0.001000000000000
11.500000000000000 -128.000000000000000 -15.000000000000028
0 0

0101101
*
Ed
 0.001000000000000 1 1 0
1  3 0 0.400000000000000 15.000000000000000
0

0101000
+167 12 -163 12 *
Ed
 0.001000000000000 1 1 0
1  4 0 0.000000000000000 256.000000000000000
0

0101000
+165 6 -163 6 *
Wi

0101100
+166 4 -164 8 +162 11 -161 4 *
Ve
0.001000000000000
11.500000000000000 -118.299999999999997 -8.000000000000000
0 0

0101101
*
Ed
 0.001000000000000 1 1 0
1  5 0 0.000000000000000 6.283185307179586
2  2 3 0 0.000000000000000 6.283185307179586
0

0101100
+159 13 -159 13 *
Wi

0101100
-158 0 *
Ve
0.001000000000000
11.500000000000000 1.700000000000000 -8.000000000000000
0 0

0101101
*
Ed
 0.001000000000000 1 1 0
1  6 0 0.000000000000000 6.283185307179586
2  3 4 0 0.000000000000000 6.283185307179586
0

0101100
+156 13 -156 13 *
Wi

0101100
-155 0 *
Ve
0.001000000000000
11.500000000000000 121.700000000000003 -8.000000000000000
0 0

0101101
*
Ed
 0.001000000000000 1 1 0
1  7 0 0.000000000000000 6.283185307179586
2  4 5 0 0.000000000000000 6.283185307179586
0

0101100
+153 13 -153 13 *
Wi

0101100
-152 0 *
Fa
0  0.001000000000000 1 4

0101000
+160 0 +157 0 +154 0 +151 0 *
Ve
0.001000000000000
11.100000000000001 128.000000000000000 0.000000000000028
0 0

0101101
*
Ve
0.001000000000000
11.100000000000001 -128.000000000000000 -0.000000000000028
0 0

0101101
*
Ed
 0.001000000000000 1 1 0
1  8 0 0.000000000000000 256.000000000000000
2  5 2 0 0.000000000000000 256.000000000000000
4 G1 2 0 6 0
0

0101000
+149 6 -148 6 *
Ed
 0.000000100000000 1 1 0
1  9 0 0.000000000000000 1.570796326794897
2  6 2 14 0.000000000000000 1.570796326794897
2  7 7 14 0.000000000000000 1.570796326794897
0

0101000
+149 9 -168 9 *
Ed
 0.000000100000000 1 1 0
1  10 0 0.000000000000000 1.570796326794897
2  8 2 16 0.000000000000000 1.570796326794897
2  9 8 16 0.000000000000000 1.570796326794897
0

0101000
+148 12 -167 12 *
Wi

0101100
+147 0 -166 0 -146 7 +145 15 *
Fa
0  0.000000100000000 2 0

0101000
+144 0 *
Ve
0.001000000000000
11.199999999999999 128.000000000000000 -14.999999999999972
0 0

0101101
*
Ed
 0.000000100000000 1 1 0
1  11 0 0.000000000000000 1.000000000000000
0

0101000
+165 6 -142 6 *
Ve
0.001000000000000
11.199999999999999 128.000000000000000 -0.399999999999971
0 0

0101101
*
Ed
 0.001000000000000 1 1 0
1  12 0 0.400000000000000 15.000000000000000
0

0101000
+140 6 -142 6 *
Ed
 0.000000100000002 1 1 0
1  13 0 0.000000000000000 1.000000000000000
2  10 7 0 0.000000000000000 1.000000000000000
0

0101000
+168 6 -140 6 *
Wi

0101100
+164 7 +141 0 -139 0 -138 0 *
Fa
0  0.000000100000000 9 0

0101000
+137 0 *
Ve
0.001000000000000
11.199999999999999 -128.000000000000000 -0.400000000000028
0 0

0101101
*
Ed
 0.000000100000002 1 1 0
1  14 0 0.000000000000000 1.000000000000000
2  11 8 0 0.000000000000000 1.000000000000000
0

0101000
+167 6 -135 6 *
Ve
0.001000000000000
11.199999999999999 -128.000000000000000 -15.000000000000028
0 0

0101101
*
Ed
 0.001000000000000 1 1 0
1  15 0 0.400000000000000 15.000000000000000
0

0101000
+135 6 -133 6 *
Ed
 0.000000100000000 1 1 0
1  16 0 0.000000000000000 1.000000000000000
0

0101000
+163 6 -133 6 *
Wi

0101100
-162 15 +134 0 +132 0 -131 0 *
Fa
0  0.000000100000000 10 0

0101000
+130 0 *
Ed
 0.001000000000000 1 1 0
1  17 0 0.000000000000000 256.000000000000000
0

0101000
+142 6 -133 6 *
Wi

0101000
+161 0 +131 0 -128 0 -141 0 *
Fa
0  0.000000100000000 11 0

0101000
+127 0 *
Ve
0.001000000000000
11.199999999999989 -118.299999999999997 -8.000000000000000
0 0

0101101
*
Ed
 0.000000100000000 1 1 0
1  18 0 248.543129115152738 248.843129115152749
3  12 13CN 3 0 248.543129115152738 248.843129115152749
0

0101000
+159 13 -125 13 *
Ed
 0.001000000000000 1 1 0
1  19 0 0.000000000000000 6.283185307179586
2  14 3 0 0.000000000000000 6.283185307179586
0

0101100
+125 13 -125 13 *
Wi

0101100
-158 0 -124 0 +123 0 +124 0 *
Fa
0  0.000000100000000 3 0

0101000
+122 0 *
Ve
0.001000000000000
11.199999999999989 1.700000000000000 -8.000000000000000
0 0

0101101
*
Ed
 0.000000100000000 1 1 0
1  20 0 248.543129115152738 248.843129115152749
3  15 16CN 4 0 248.543129115152738 248.843129115152749
0

0101000
+156 13 -120 13 *
Ed
 0.001000000000000 1 1 0
1  21 0 0.000000000000000 6.283185307179586
2  17 4 0 0.000000000000000 6.283185307179586
0

0101100
+120 13 -120 13 *
Wi

0101100
-155 0 -119 0 +118 0 +119 0 *
Fa
0  0.000000100000000 4 0

0101000
+117 0 *
Ve
0.001000000000000
11.199999999999989 121.700000000000003 -8.000000000000000
0 0

0101101
*
Ed
 0.000000100000000 1 1 0
1  22 0 248.543129115152738 248.843129115152749
3  18 19CN 5 0 248.543129115152738 248.843129115152749
0

0101000
+153 13 -115 13 *
Ed
 0.001000000000000 1 1 0
1  23 0 0.000000000000000 6.283185307179586
2  20 5 0 0.000000000000000 6.283185307179586
0

0101100
+115 13 -115 13 *
Wi

0101100
-152 0 -114 0 +113 0 +114 0 *
Fa
0  0.000000100000000 5 0

0101000
+112 0 *
Ve
0.001000000000000
-11.100000000000000 128.000000000000000 0.000000000000028
0 0

0101101
*
Ve
0.001000000000000
-11.100000000000000 -128.000000000000000 -0.000000000000028
0 0

0101101
*
Ed
 0.001000000000000 1 1 0
1  24 0 0.000000000000000 256.000000000000000
2  21 12 0 0.000000000000000 256.000000000000000
4 G1 6 0 12 0
0

0101000
+110 6 -109 6 *
Ed
 0.001000000000000 1 1 0
1  25 0 0.400000000000000 22.600000000000001
0

0101000
+110 9 -149 9 *
Ed
 0.001000000000000 1 1 0
1  26 0 0.400000000000000 22.600000000000001
0

0101000
+109 12 -148 12 *
Wi

0101100
+108 0 -147 0 -107 7 +106 15 *
Fa
0  0.001000000000000 6 0

0101000
+105 0 *
Ve
0.001000000000001
11.100000000000001 128.000000000000000 -0.299999999999972
0 0

0101101
*
Ed
 0.000000100000000 1 1 0
1  27 0 0.000000000000000 1.570796326794897
2  22 7 0 0.000000000000000 1.570796326794897
2  6 13 0 0.000000000000000 1.570796326794897
0

0101000
+103 6 -140 6 *
Ed
 0.000000100000002 1 1 0
1  28 0 0.000000000000000 1.000000000000000
2  23 7 0 0.000000000000000 1.000000000000000
0

0101000
+149 6 -103 6 *
Wi

0101100
+146 7 +138 0 -102 0 -101 0 *
Fa
0  0.000000100000000 7 0

0101000
+100 0 *
Ve
0.001000000000001
11.100000000000001 -128.000000000000000 -0.300000000000028
0 0

0101101
*
Ed
 0.000000100000002 1 1 0
1  29 0 0.000000000000000 1.000000000000000
2  24 8 0 0.000000000000000 1.000000000000000
0

0101000
+148 6 -98 6 *
Ed
 0.000000100000000 1 1 0
1  30 0 0.000000000000000 1.570796326794897
2  25 8 0 0.000000000000000 1.570796326794897
2  8 13 0 0.000000000000000 1.570796326794897
0

0101000
+98 6 -135 6 *
Wi

0101100
-145 15 +97 0 +96 0 -134 0 *
Fa
0  0.000000100000000 8 0

0101000
+95 0 *
Ed
 0.001000000000000 1 1 0
1  31 0 0.000000000000000 256.000000000000000
2  26 13 0 0.000000000000000 256.000000000000000
0

0101000
+140 6 -135 6 *
Wi

0101100
+93 4 -139 4 +132 4 -128 4 *
Wi

0101100
-123 0 *
Wi

0101100
-118 0 *
Wi

0101100
-113 0 *
Fa
0  0.001000000000000 14 4

0101000
+92 0 +91 0 +90 0 +89 0 *
Ve
0.001000000000000
-11.500000000000000 128.000000000000000 -0.399999999999972
0 0

0101101
*
Ve
0.001000000000000
-11.500000000000000 -128.000000000000000 -0.400000000000029
0 0

0101101
*
Ed
 0.001000000000000 1 1 0
1  32 0 0.000000000000000 256.000000000000000
2  27 12 0 0.000000000000000 256.000000000000000
4 G1 12 0 15 0
0

0101000
+87 6 -86 6 *
Ed
 0.000000100000003 1 1 0
1  33 0 4.712388980384690 6.283185307179586
2  28 12 14 4.712388980384690 6.283185307179586
2  29 16 14 4.712388980384690 6.283185307179586
0

0101000
+87 9 -110 9 *
Ed
 0.000000100000003 1 1 0
1  34 0 4.712388980384690 6.283185307179586
2  30 12 16 4.712388980384690 6.283185307179586
2  31 17 16 4.712388980384690 6.283185307179586
0

0101000
+86 12 -109 12 *
Wi

0101100
+85 0 -108 0 -84 7 +83 15 *
Fa
0  0.000000100000003 12 0

0101000
+82 0 *
Ve
0.001000000000000
-11.100000000000000 128.000000000000000 -0.299999999999972
0 0

0101101
*
Ed
 0.001000000000000 1 1 0
1  35 0 0.400000000000000 22.600000000000001
0

0101000
+80 6 -103 6 *
Ed
 0.000000100000002 1 1 0
1  36 0 0.000000000000000 1.000000000000000
2  32 16 0 0.000000000000000 1.000000000000000
0

0101000
+110 6 -80 6 *
Wi

0101100
+107 7 +101 0 -79 0 -78 0 *
Fa
0  0.000000100000000 18 0

0101000
+77 0 *
Ve
0.001000000000000
-11.100000000000000 -128.000000000000000 -0.300000000000028
0 0

0101101
*
Ed
 0.000000100000002 1 1 0
1  37 0 0.000000000000000 1.000000000000000
2  33 17 0 0.000000000000000 1.000000000000000
0

0101000
+109 6 -75 6 *
Ed
 0.001000000000000 1 1 0
1  38 0 0.400000000000000 22.600000000000001
0

0101000
+75 6 -98 6 *
Wi

0101100
-106 15 +74 0 +73 0 -97 0 *
Fa
0  0.000000100000000 19 0

0101000
+72 0 *
Ed
 0.001000000000000 1 1 0
1  39 0 0.000000000000000 256.000000000000000
2  5 13 0 0.000000000000000 256.000000000000000
0

0101000
+103 6 -98 6 *
Wi

0101100
+70 0 -93 0 -102 0 +96 0 *
Fa
0  0.000000100000000 13 0

0101000
+69 0 *
Ve
0.001000000000000
-11.500000000000000 128.000000000000000 -14.999999999999972
0 0

0101101
*
Ve
0.001000000000000
-11.500000000000000 -128.000000000000000 -15.000000000000028
0 0

0101101
*
Ed
 0.001000000000000 1 1 0
1  40 0 0.000000000000000 256.000000000000000
0

0101000
+67 6 -66 6 *
Ed
 0.001000000000000 1 1 0
1  41 0 0.000000000000000 14.600000000000000
0

0101000
+67 9 -87 9 *
Ed
 0.001000000000000 1 1 0
1  42 0 0.000000000000000 14.600000000000000
0

0101000
+66 12 -86 12 *
Wi

0101100
+65 4 -64 8 +63 11 -85 4 *
Ve
0.001000000000000
-11.500000000000000 -118.299999999999997 -8.000000000000000
0 0

0101101
*
Ed
 0.001000000000000 1 1 0
1  43 0 0.000000000000000 6.283185307179586
2  34 20 0 0.000000000000000 6.283185307179586
0

0101100
+61 13 -61 13 *
Wi

0101100
+60 0 *
Ve
0.001000000000000
-11.500000000000000 121.700000000000003 -8.000000000000000
0 0

0101101
*
Ed
 0.001000000000000 1 1 0
1  44 0 0.000000000000000 6.283185307179586
2  35 21 0 0.000000000000000 6.283185307179586
0

0101100
+58 13 -58 13 *
Wi

0101100
+57 0 *
Ve
0.001000000000000
-11.500000000000000 1.700000000000000 -8.000000000000000
0 0

0101101
*
Ed
 0.001000000000000 1 1 0
1  45 0 0.000000000000000 6.283185307179586
2  36 22 0 0.000000000000000 6.283185307179586
0

0101100
+55 13 -55 13 *
Wi

0101100
+54 0 *
Fa
0  0.001000000000000 15 4

0101000
+62 0 +59 0 +56 0 +53 0 *
Ve
0.001000000000001
-11.199999999999999 128.000000000000000 -0.399999999999972
0 0

0101101
*
Ed
 0.000000100000003 1 1 0
1  46 0 4.712388980384690 6.283185307179586
2  37 16 0 4.712388980384690 6.283185307179586
2  28 23 0 4.712388980384690 6.283185307179586
0

0101000
+51 6 -80 6 *
Ed
 0.000000100000000 1 1 0
1  47 0 0.000000000000000 1.000000000000000
2  38 16 0 0.000000000000000 1.000000000000000
0

0101000
+87 6 -51 6 *
Wi

0101100
+84 7 +78 0 -50 0 -49 0 *
Fa
0  0.000000100000000 16 0

0101000
+48 0 *
Ve
0.001000000000001
-11.199999999999999 -128.000000000000000 -0.400000000000029
0 0

0101101
*
Ed
 0.000000100000000 1 1 0
1  48 0 0.000000000000000 1.000000000000000
2  39 17 0 0.000000000000000 1.000000000000000
0

0101000
+86 6 -46 6 *
Ed
 0.000000100000003 1 1 0
1  49 0 4.712388980384690 6.283185307179586
2  40 17 0 4.712388980384690 6.283185307179586
2  30 23 0 4.712388980384690 6.283185307179586
0

0101000
+46 6 -75 6 *
Wi

0101100
-83 15 +45 0 +44 0 -74 0 *
Fa
0  0.000000100000000 17 0

0101000
+43 0 *
Ed
 0.001000000000000 1 1 0
1  50 0 0.000000000000000 256.000000000000000
2  41 23 0 0.000000000000000 256.000000000000000
0

0101000
+80 6 -75 6 *
Wi

0101100
+41 0 -70 0 -79 0 +73 0 *
Fa
0  0.001000000000000 24 0

0101000
+40 0 *
Ve
0.001000000000000
-11.199999999999999 128.000000000000000 -14.999999999999972
0 0

0101101
*
Ed
 0.000000100000000 1 1 0
1  51 0 0.000000000000000 1.000000000000000
0

0101000
+67 6 -38 6 *
Ve
0.001000000000000
-11.199999999999999 -128.000000000000000 -15.000000000000028
0 0

0101101
*
Ed
 0.001000000000000 1 1 0
1  52 0 0.000000000000000 256.000000000000000
0

0101000
+38 6 -36 6 *
Ed
 0.000000100000000 1 1 0
1  53 0 0.000000000000000 1.000000000000000
0

0101000
+66 6 -36 6 *
Wi

0101000
-65 0 +37 0 +35 0 -34 0 *
Fa
0  0.000000100000000 25 0

0101000
+33 0 *
Ed
 0.001000000000000 1 1 0
1  54 0 0.000000000000000 14.600000000000000
0

0101000
+38 6 -51 6 *
Wi

0101100
+64 7 +49 0 -31 0 -37 0 *
Fa
0  0.000000100000000 26 0

0101000
+30 0 *
Ed
 0.001000000000000 1 1 0
1  55 0 0.000000000000000 14.600000000000000
0

0101000
+36 6 -46 6 *
Wi

0101100
-63 15 +34 0 +28 0 -45 0 *
Fa
0  0.000000100000000 27 0

0101000
+27 0 *
Ve
0.001000000000000
-11.199999999999989 -118.299999999999997 -8.000000000000000
0 0

0101101
*
Ed
 0.001000000000000 1 1 0
1  56 0 0.000000000000000 6.283185307179586
2  42 20 0 0.000000000000000 6.283185307179586
0

0101100
+25 13 -25 13 *
Ed
 0.000000100000000 1 1 0
1  57 0 271.243129115152726 271.543129115152738
3  12 13CN 20 0 271.243129115152726 271.543129115152738
0

0101000
+25 13 -61 13 *
Wi

0101100
-24 0 -23 0 +60 0 +23 0 *
Fa
0  0.000000100000000 20 0

0101000
+22 0 *
Ve
0.001000000000000
-11.199999999999989 121.700000000000003 -8.000000000000000
0 0

0101101
*
Ed
 0.001000000000000 1 1 0
1  58 0 0.000000000000000 6.283185307179586
2  43 21 0 0.000000000000000 6.283185307179586
0

0101100
+20 13 -20 13 *
Ed
 0.000000100000000 1 1 0
1  59 0 271.243129115152726 271.543129115152738
3  18 19CN 21 0 271.243129115152726 271.543129115152738
0

0101000
+20 13 -58 13 *
Wi

0101100
-19 0 -18 0 +57 0 +18 0 *
Fa
0  0.000000100000000 21 0

0101000
+17 0 *
Ve
0.001000000000000
-11.199999999999989 1.700000000000000 -8.000000000000000
0 0

0101101
*
Ed
 0.001000000000000 1 1 0
1  60 0 0.000000000000000 6.283185307179586
2  44 22 0 0.000000000000000 6.283185307179586
0

0101100
+15 13 -15 13 *
Ed
 0.000000100000000 1 1 0
1  61 0 271.243129115152726 271.543129115152738
3  15 16CN 22 0 271.243129115152726 271.543129115152738
0

0101000
+15 13 -55 13 *
Wi

0101100
-14 0 -13 0 +54 0 +13 0 *
Fa
0  0.000000100000000 22 0

0101000
+12 0 *
Ed
 0.001000000000000 1 1 0
1  62 0 0.000000000000000 256.000000000000000
2  27 23 0 0.000000000000000 256.000000000000000
0

0101000
+51 6 -46 6 *
Wi

0101100
+10 0 -41 0 -50 0 +44 0 *
Fa
0  0.000000100000003 23 0

0101000
+9 0 *
Wi

0101100
+35 4 -31 4 +28 4 -10 4 *
Wi

0101100
+24 0 *
Wi

0101100
+19 0 *
Wi

0101100
+14 0 *
Fa
0  0.001000000000000 28 4

0101000
+7 0 +6 0 +5 0 +4 0 *
Sh

0101100
+150 0 +143 4 +136 4 +129 4 +126 4 -121 0 -116 0 -111 0 +104 4 +99 4 
+94 4 -88 0 +81 4 +76 4 +71 4 -68 4 +52 0 +47 4 +42 4 -39 4 
+32 4 +29 4 +26 4 -21 0 -16 0 -11 0 -8 4 -3 0 *
So

1100000
+2 0 *

+1 1 