
CASCADE Topology V1, (c) Matra-Datavision
Locations 11
1
1.000000000000000 0.000000000000000 0.000000000000000 0.000000000000000 
0.000000000000000 1.000000000000000 0.000000000000000 0.000000000000000 
0.000000000000000 0.000000000000000 1.000000000000000 0.000000000000000 
1
0.866025403784439 -0.000000000000000 -0.500000000000000 12.990381056766580 
-0.500000000000000 0.000000000000000 -0.866025403784439 -723.499999953397037 
0.000000000000000 1.000000000000000 0.000000000000000 0.000000000000161 
1
1.000000000000000 0.000000000000000 0.000000000000000 0.000000000000000 
0.000000000000000 1.000000000000000 0.000000000000000 0.000000000000000 
0.000000000000000 0.000000000000000 1.000000000000000 0.000000000000000 
2  1 1 2 1 3 -1 0
1
1.000000000000000 0.000000000000000 0.000000000000000 880.510619545626128 
0.000000000000000 1.000000000000000 0.000000000000000 1525.089129656974364 
0.000000000000000 0.000000000000000 1.000000000000000 -0.000000000000183 
2  1 1 2 1 3 -1 5 1 0
2  3 1 2 -1 1 -1 0
2  5 -1 3 1 2 -1 1 -1 0
2  3 -1 0
2  1 1 2 1 0
2  3 -1 5 1 0
Curve2ds 8
1 0.00000000000000000 0.00000000000000000 0.00000000000000000 -1.00000000000000000 
1 6.28318530717958623 0.00000000000000000 0.00000000000000000 -1.00000000000000000 
1 0.00000000000000000 0.00000000000000000 1.00000000000000000 0.00000000000000000 
1 0.00000000000000000 -1761.02123909125248247 1.00000000000000000 0.00000000000000000 
1 0.00000000000000000 0.00000000000000000 0.00000000000000000 -1.00000000000000000 
1 6.28318530717958623 0.00000000000000000 0.00000000000000000 -1.00000000000000000 
1 0.00000000000000000 0.00000000000000000 1.00000000000000000 0.00000000000000000 
1 0.00000000000000000 -1761.02123909125248247 1.00000000000000000 0.00000000000000000 
Curves 4
1 14.46262424324306117 -724.34999995342184320 12.99999999999793765 0.50000000000000000 0.86602540378443871 -0.00000000000000010 
2 0.00000000000000000 12.99999999999777778 0.00000000000000000 0.00000000000000000 0.00000000000000000 1.00000000000000000 1.00000000000000000 0.00000000000000000 -0.00000000000000000 -0.00000000000000000 1.00000000000000000 0.00000000000000000 1.70000000004957852
1 14.46262424324305407 -724.34999995342184320 82.99999999999656097 0.50000000000000000 0.86602540378443871 -0.00000000000000010 
2 0.00000000000000000 82.99999999999640465 0.00000000000000000 0.00000000000000000 0.00000000000000000 1.00000000000000000 1.00000000000000000 0.00000000000000000 -0.00000000000000000 -0.00000000000000000 1.00000000000000000 0.00000000000000000 1.70000000004957852
Polygon3D 0
PolygonOnTriangulations 0
Surfaces 4
2 12.99038105676657828 -723.49999995339703673 12.99999999999793765 -0.50000000000000011 -0.86602540378443871 -0.00000000000000000 0.86602540378443871 -0.50000000000000011 0.00000000000000011 -0.00000000000000010 0.00000000000000006 1.00000000000000000 1.70000000004957852
1 12.99038105676657295 -723.49999995339703673 47.99999999999720046 0.49999999999999067 0.86602540378444404 0.00000000000000005 0.86602540378444404 -0.49999999999999067 0.00000000000000000 0.00000000000000002 0.00000000000000004 -1.00000000000000000 
2 12.99038105676657295 -723.49999995339703673 82.99999999999656097 -0.50000000000000011 -0.86602540378443871 -0.00000000000000000 0.86602540378443871 -0.50000000000000011 0.00000000000000011 -0.00000000000000010 0.00000000000000006 1.00000000000000000 1.70000000004957852
1 12.99038105676657295 -723.49999995339703673 47.99999999999720046 0.49999999999999067 0.86602540378444404 0.00000000000000005 0.86602540378444404 -0.49999999999999067 0.00000000000000000 0.00000000000000002 0.00000000000000004 -1.00000000000000000 
Triangulations 0

TShapes 19
Ve
0.000000100000000
1.700000000049579 12.999999999997778 0.000000000000000
0 0

0101101
*
Ed
 0.000000100000000 1 1 0
1  1 0 0.000000000000000 1761.021239091252482
3  1 2CN 1 0 0.000000000000000 1761.021239091252482
0

0101000
+19 4 -19 6 *
Ed
 0.000000100000000 1 1 0
1  2 0 0.000000000000000 6.283185307179586
2  3 1 7 0.000000000000000 6.283185307179586
2  4 1 8 0.000000000000000 6.283185307179586
0

0101100
+19 0 -19 0 *
Wi

0101100
+18 0 -18 0 -17 4 +17 6 *
Fa
0  0.000000100000000 1 0

0111000
+16 0 *
Wi

0101100
+17 0 *
Fa
0  0.000000100000000 2 0

0111000
-14 10 *
Sh

0101100
-15 0 +13 9 -13 11 *
So

0100000
-12 0 *
Ve
0.000000100000000
1.700000000049579 82.999999999996405 0.000000000000000
0 0

0101101
*
Ed
 0.000000100000000 1 1 0
1  3 0 0.000000000000000 1761.021239091252482
3  5 6CN 3 0 0.000000000000000 1761.021239091252482
0

0101000
+10 4 -10 6 *
Ed
 0.000000100000000 1 1 0
1  4 0 0.000000000000000 6.283185307179586
2  7 3 7 0.000000000000000 6.283185307179586
2  8 3 8 0.000000000000000 6.283185307179586
0

0101100
+10 0 -10 0 *
Wi

0101100
+9 0 -9 0 -8 4 +8 6 *
Fa
0  0.000000100000000 3 0

0111000
+7 0 *
Wi

0101100
+8 0 *
Fa
0  0.000000100000000 4 0

0111000
-5 10 *
Sh

0101100
-6 0 +4 9 -4 11 *
So

0100000
-3 0 *
Co

1100000
+11 0 +2 0 *

+1 0 