
CASCADE Topology V1, (c) Matra-Datavision
Locations 29
1
1.000000000000000 0.000000000000000 0.000000000000000 0.000000000000000 
0.000000000000000 1.000000000000000 0.000000000000000 0.000000000000000 
0.000000000000000 0.000000000000000 1.000000000000000 0.000000000000000 
1
1.000000000000000 0.000000000000000 0.000000000000000 0.000000000000000 
0.000000000000000 1.000000000000000 0.000000000000000 0.000000000000000 
0.000000000000000 0.000000000000000 1.000000000000000 0.000000000000000 
1
1.000000000000000 0.000000000000000 0.000000000000000 0.000000000000000 
0.000000000000000 1.000000000000000 0.000000000000000 0.000000000000000 
0.000000000000000 0.000000000000000 1.000000000000000 0.000000000000000 
1
1.000000000000000 0.000000000000000 0.000000000000000 0.000000000000000 
0.000000000000000 1.000000000000000 0.000000000000000 0.000000000000000 
0.000000000000000 0.000000000000000 1.000000000000000 0.000000000000000 
1
1.000000000000000 0.000000000000000 0.000000000000000 0.000000000000000 
0.000000000000000 1.000000000000000 0.000000000000000 0.000000000000000 
0.000000000000000 0.000000000000000 1.000000000000000 0.000000000000000 
1
1.000000000000000 0.000000000000000 0.000000000000000 0.000000000000000 
0.000000000000000 1.000000000000000 0.000000000000000 0.000000000000000 
0.000000000000000 0.000000000000000 1.000000000000000 0.000000000000000 
1
1.000000000000000 0.000000000000000 0.000000000000000 0.000000000000000 
0.000000000000000 1.000000000000000 0.000000000000000 0.000000000000000 
0.000000000000000 0.000000000000000 1.000000000000000 0.000000000000000 
1
1.000000000000000 0.000000000000000 0.000000000000000 0.000000000000000 
0.000000000000000 1.000000000000000 0.000000000000000 0.000000000000000 
0.000000000000000 0.000000000000000 1.000000000000000 0.000000000000000 
1
1.000000000000000 0.000000000000000 0.000000000000000 0.000000000000000 
0.000000000000000 1.000000000000000 0.000000000000000 0.000000000000000 
0.000000000000000 0.000000000000000 1.000000000000000 0.000000000000000 
2  2 -1 3 -1 4 1 5 1 6 1 7 1 8 1 9 -1 0
1
1.000000000000000 0.000000000000000 0.000000000000000 0.000000000000000 
0.000000000000000 1.000000000000000 0.000000000000000 0.000000000000000 
0.000000000000000 0.000000000000000 1.000000000000000 3.000000000000000 
2  2 -1 3 -1 4 1 5 1 6 1 7 1 8 1 9 -1 11 1 0
2  4 1 5 1 6 1 7 1 8 1 9 -1 0
2  9 1 8 -1 7 -1 6 -1 5 -1 4 -1 0
2  11 -1 9 1 8 -1 7 -1 6 -1 5 -1 4 -1 0
2  6 -1 5 -1 4 -1 0
2  2 -1 3 -1 0
2  4 1 5 1 6 1 7 1 8 1 9 -1 11 1 0
1
1.000000000000000 0.000000000000000 0.000000000000000 0.000000000000000 
0.000000000000000 1.000000000000000 0.000000000000000 0.000000000000000 
0.000000000000000 0.000000000000000 1.000000000000000 0.000000000000000 
2  3 1 19 1 6 1 7 1 8 1 9 -1 0
2  3 1 19 1 6 1 7 1 8 1 9 -1 11 1 0
2  9 1 8 -1 7 -1 6 -1 19 -1 3 -1 0
2  11 -1 9 1 8 -1 7 -1 6 -1 19 -1 3 -1 0
2  6 -1 19 -1 3 -1 0
2  2 -1 3 -1 4 1 5 1 19 -1 3 -1 0
2  7 1 8 1 9 -1 0
2  4 1 5 1 6 1 0
2  3 1 19 1 6 1 0
2  7 1 8 1 9 -1 11 1 0
Curve2ds 40
1 0.53757250073266782 0.00000000000000000 0.00000000000000000 -1.00000000000000000 
1 6.82075780791225483 0.00000000000000000 0.00000000000000000 -1.00000000000000000 
1 1.57079632679489656 0.00000000000000000 0.00000000000000000 -1.00000000000000000 
1 1.57079632679489656 0.00000000000000000 0.00000000000000000 -1.00000000000000000 
1 0.00000000000000000 0.00000000000000000 1.00000000000000000 0.00000000000000000 
1 0.00000000000000000 -3.00000000000000000 1.00000000000000000 0.00000000000000000 
2 0.00000000000000254 -144.84836341909760904 -1.00000000000000000 0.00000000000000000 0.00000000000000000 1.00000000000000000 185.00000000000000000
1 5.43507121257458259 0.00000000000000000 0.00000000000000000 -1.00000000000000000 
1 6.28318530717958978 0.00000000000000000 0.00000000000000000 -1.00000000000000000 
1 0.00000000000000000 0.00000000000000000 1.00000000000000000 0.00000000000000000 
1 0.00000000000000000 -3.00000000000000000 1.00000000000000000 0.00000000000000000 
2 -156.75914473933582372 -51.39880194023376703 -1.00000000000000000 0.00000000000000000 0.00000000000000000 1.00000000000000000 2.50000000000000000
1 4.55964175914443359 0.00000000000000000 0.00000000000000000 -1.00000000000000000 
1 0.64586053017777578 0.00000000000000000 0.00000000000000000 -1.00000000000000000 
1 0.00000000000000000 0.00000000000000000 1.00000000000000000 0.00000000000000000 
1 0.00000000000000000 -3.00000000000000000 1.00000000000000000 0.00000000000000000 
3 -145.18466547414581669 -38.27319986872150537 -0.66139881515371457 -0.75003440408641431 -0.75003440408641431 0.66139881515371457 19.99999999999999645 10.00000000000001243
1 1.57079632679489656 0.00000000000000000 0.00000000000000000 -1.00000000000000000 
1 1.57079632679489656 0.00000000000000000 0.00000000000000000 -1.00000000000000000 
1 0.00000000000000000 0.00000000000000000 1.00000000000000000 0.00000000000000000 
1 0.00000000000000000 -3.00000000000000000 1.00000000000000000 0.00000000000000000 
2 0.00000000000000254 -144.84836341909760904 -1.00000000000000000 0.00000000000000000 0.00000000000000000 1.00000000000000000 170.00000000000000000
1 0.64586053017777578 0.00000000000000000 0.00000000000000000 -1.00000000000000000 
1 4.55964175914443359 0.00000000000000000 0.00000000000000000 -1.00000000000000000 
1 0.00000000000000000 0.00000000000000000 1.00000000000000000 0.00000000000000000 
1 0.00000000000000000 -3.00000000000000000 1.00000000000000000 0.00000000000000000 
2 0.00000000000000254 -144.84836341909760904 1.00000000000000000 0.00000000000000000 -0.00000000000000000 1.00000000000000000 170.00000000000000000
1 6.28318530717958978 0.00000000000000000 0.00000000000000000 -1.00000000000000000 
1 5.43507121257458259 0.00000000000000000 0.00000000000000000 -1.00000000000000000 
1 0.00000000000000000 0.00000000000000000 1.00000000000000000 0.00000000000000000 
1 0.00000000000000000 -3.00000000000000000 1.00000000000000000 0.00000000000000000 
3 145.18466547414581669 -38.27319986872150537 0.66139881515371457 -0.75003440408641431 0.75003440408641431 0.66139881515371457 19.99999999999999645 10.00000000000001243
1 6.82075780791225483 0.00000000000000000 0.00000000000000000 -1.00000000000000000 
1 0.53757250073266782 0.00000000000000000 0.00000000000000000 -1.00000000000000000 
1 0.00000000000000000 0.00000000000000000 1.00000000000000000 0.00000000000000000 
1 0.00000000000000000 -3.00000000000000000 1.00000000000000000 0.00000000000000000 
2 156.75914473933582372 -51.39880194023376703 1.00000000000000000 0.00000000000000000 -0.00000000000000000 1.00000000000000000 2.50000000000000000
1 0.00000000000000000 0.00000000000000000 1.00000000000000000 0.00000000000000000 
1 0.00000000000000000 -3.00000000000000000 1.00000000000000000 0.00000000000000000 
2 0.00000000000000254 -144.84836341909760904 1.00000000000000000 0.00000000000000000 -0.00000000000000000 1.00000000000000000 185.00000000000000000
Curves 16
1 -158.90653028371031041 94.72969245802636351 0.00000000000000000 0.00000000000000000 0.00000000000000000 1.00000000000000000 
1 -0.00000000000000000 185.00000000000000000 0.00000000000000000 0.00000000000000000 0.00000000000000000 1.00000000000000000 
2 0.00000000000000000 0.00000000000000000 0.00000000000000000 0.00000000000000000 0.00000000000000000 -1.00000000000000000 -1.00000000000000000 -0.00000000000000000 -0.00000000000000000 -0.00000000000000000 1.00000000000000000 0.00000000000000000 185.00000000000000000
1 -158.41264177722013073 91.57447546864781884 0.00000000000000000 0.00000000000000000 0.00000000000000000 1.00000000000000000 
2 -156.75914473933582372 93.44956147886384201 0.00000000000000000 0.00000000000000000 0.00000000000000000 -1.00000000000000000 -1.00000000000000000 -0.00000000000000000 -0.00000000000000000 -0.00000000000000000 1.00000000000000000 0.00000000000000000 2.50000000000000000
1 -135.75896069513510156 102.32059710037250966 0.00000000000000000 0.00000000000000000 0.00000000000000000 1.00000000000000000 
3 -145.18466547414581669 106.57516355037610367 0.00000000000000000 0.00000000000000000 0.00000000000000000 -1.00000000000000000 -0.66139881515371457 -0.75003440408641431 -0.00000000000000000 -0.75003440408641431 0.66139881515371457 0.00000000000000000 20.00000000000000000 10.00000000000001066
1 -0.00000000000000000 170.00000000000000000 0.00000000000000000 0.00000000000000000 0.00000000000000000 1.00000000000000000 
2 0.00000000000000000 0.00000000000000000 0.00000000000000000 0.00000000000000000 0.00000000000000000 -1.00000000000000000 -1.00000000000000000 -0.00000000000000000 -0.00000000000000000 -0.00000000000000000 1.00000000000000000 0.00000000000000000 170.00000000000000000
1 135.75896069513510156 102.32059710037250966 0.00000000000000000 0.00000000000000000 0.00000000000000000 1.00000000000000000 
2 0.00000000000000000 0.00000000000000000 0.00000000000000000 0.00000000000000000 0.00000000000000000 1.00000000000000000 1.00000000000000000 0.00000000000000000 -0.00000000000000000 -0.00000000000000000 1.00000000000000000 0.00000000000000000 170.00000000000000000
1 158.41264177722013073 91.57447546864781884 0.00000000000000000 0.00000000000000000 0.00000000000000000 1.00000000000000000 
3 145.18466547414581669 106.57516355037610367 0.00000000000000000 -0.00000000000000000 0.00000000000000000 1.00000000000000000 0.66139881515371457 -0.75003440408641431 0.00000000000000000 0.75003440408641431 0.66139881515371457 0.00000000000000000 20.00000000000000000 10.00000000000001066
1 158.90653028371031041 94.72969245802636351 0.00000000000000000 0.00000000000000000 0.00000000000000000 1.00000000000000000 
2 156.75914473933582372 93.44956147886384201 0.00000000000000000 0.00000000000000000 0.00000000000000000 1.00000000000000000 1.00000000000000000 0.00000000000000000 -0.00000000000000000 -0.00000000000000000 1.00000000000000000 0.00000000000000000 2.50000000000000000
2 0.00000000000000000 0.00000000000000000 0.00000000000000000 0.00000000000000000 0.00000000000000000 1.00000000000000000 1.00000000000000000 0.00000000000000000 -0.00000000000000000 -0.00000000000000000 1.00000000000000000 0.00000000000000000 185.00000000000000000
Polygon3D 0
PolygonOnTriangulations 0
Surfaces 9
2 0.00000000000000000 0.00000000000000000 0.00000000000000000 0.00000000000000000 0.00000000000000000 -1.00000000000000000 -1.00000000000000000 -0.00000000000000000 -0.00000000000000000 -0.00000000000000000 1.00000000000000000 0.00000000000000000 185.00000000000000000
2 -156.75914473933582372 93.44956147886384201 0.00000000000000000 0.00000000000000000 0.00000000000000000 -1.00000000000000000 -1.00000000000000000 -0.00000000000000000 -0.00000000000000000 -0.00000000000000000 1.00000000000000000 0.00000000000000000 2.50000000000000000
2 0.00000000000000000 0.00000000000000000 0.00000000000000000 -0.00000000000000000 -0.00000000000000000 -1.00000000000000000 1.00000000000000000 0.00000000000000000 0.00000000000000000 -0.00000000000000000 1.00000000000000000 -0.00000000000000000 185.00000000000000000
1 -0.00000000000000254 144.84836341909760904 0.00000000000000000 0.00000000000000000 0.00000000000000000 1.00000000000000000 1.00000000000000000 0.00000000000000000 -0.00000000000000000 -0.00000000000000000 1.00000000000000000 0.00000000000000000 
6 -0.00000000000000000 -0.00000000000000000 -1.00000000000000000 
3 -145.18466547414581669 106.57516355037610367 0.00000000000000000 0.00000000000000000 0.00000000000000000 -1.00000000000000000 -0.66139881515371457 -0.75003440408641431 -0.00000000000000000 -0.75003440408641431 0.66139881515371457 0.00000000000000000 20.00000000000000000 10.00000000000001066
2 0.00000000000000000 0.00000000000000000 0.00000000000000000 0.00000000000000000 0.00000000000000000 -1.00000000000000000 -1.00000000000000000 -0.00000000000000000 -0.00000000000000000 -0.00000000000000000 1.00000000000000000 0.00000000000000000 170.00000000000000000
2 0.00000000000000000 0.00000000000000000 0.00000000000000000 -0.00000000000000000 -0.00000000000000000 -1.00000000000000000 1.00000000000000000 0.00000000000000000 0.00000000000000000 -0.00000000000000000 1.00000000000000000 -0.00000000000000000 170.00000000000000000
6 -0.00000000000000000 -0.00000000000000000 -1.00000000000000000 
3 145.18466547414581669 106.57516355037610367 0.00000000000000000 -0.00000000000000000 0.00000000000000000 1.00000000000000000 0.66139881515371457 -0.75003440408641431 0.00000000000000000 0.75003440408641431 0.66139881515371457 0.00000000000000000 20.00000000000000000 10.00000000000001066
2 156.75914473933582372 93.44956147886384201 0.00000000000000000 -0.00000000000000000 -0.00000000000000000 -1.00000000000000000 1.00000000000000000 0.00000000000000000 0.00000000000000000 -0.00000000000000000 1.00000000000000000 -0.00000000000000000 2.50000000000000000
Triangulations 0

TShapes 44
Ve
0.000000100000014
-158.906530283710310 94.729692458026364 0.000000000000000
0 0

0101101
*
Ed
 0.000000100000014 1 1 0
1  1 0 0.000000000000000 3.000000000000000
2  1 1 0 0.000000000000000 3.000000000000000
2  2 2 0 0.000000000000000 3.000000000000000
4 G1 1 0 2 0
0

0101000
+44 10 -44 12 *
Ve
0.000000100000011
-0.000000000000000 185.000000000000000 0.000000000000000
0 0

0101101
*
Ed
 0.000000100000011 1 1 0
1  2 0 0.000000000000000 3.000000000000000
2  3 1 0 0.000000000000000 3.000000000000000
2  4 3 0 0.000000000000000 3.000000000000000
4 C2 1 0 3 0
0

0101000
+42 10 -42 12 *
Ed
 0.000000100000000 1 1 0
1  3 0 0.537572500732668 1.570796326794897
2  5 1 14 0.537572500732668 1.570796326794897
2  6 1 15 0.537572500732668 1.570796326794897
2  7 4 16 0.537572500732668 1.570796326794897
0

0101000
+44 17 -42 17 *
Wi

0101100
+43 0 -41 0 -40 13 +40 18 *
Fa
0  0.000000100000000 1 0

0101000
+39 0 *
Ve
0.000000100000007
-158.412641777220131 91.574475468647819 0.000000000000000
0 0

0101101
*
Ed
 0.000000100000007 1 1 0
1  4 0 0.000000000000000 3.000000000000000
2  8 2 0 0.000000000000000 3.000000000000000
2  9 5 0 0.000000000000000 3.000000000000000
4 G1 2 0 5 0
0

0101000
+37 10 -37 12 *
Ed
 0.000000100000000 1 1 0
1  5 0 5.435071212574583 6.820757807912255
2  10 2 14 5.435071212574583 6.820757807912255
2  11 2 15 5.435071212574583 6.820757807912255
2  12 4 16 5.435071212574583 6.820757807912255
0

0101000
+37 17 -44 17 *
Wi

0101100
+36 0 -43 0 -35 13 +35 18 *
Fa
0  0.000000100000000 2 0

0101000
+34 0 *
Ve
0.000000100000032
-135.758960695135102 102.320597100372510 0.000000000000000
0 0

0101101
*
Ed
 0.000000100000032 1 1 0
1  6 0 0.000000000000000 3.000000000000000
2  13 5 0 0.000000000000000 3.000000000000000
2  14 6 0 0.000000000000000 3.000000000000000
4 G1 5 0 6 0
0

0101000
+32 10 -32 12 *
Ed
 0.000000100000000 1 1 0
1  7 0 4.559641759144434 6.283185307179590
2  15 5 14 4.559641759144434 6.283185307179590
2  16 5 15 4.559641759144434 6.283185307179590
2  17 4 16 4.559641759144434 6.283185307179590
0

0101000
+32 17 -37 17 *
Wi

0101100
+31 0 -36 0 -30 13 +30 18 *
Fa
0  0.000000100000000 5 0

0101000
+29 0 *
Ve
0.000000100000010
-0.000000000000000 170.000000000000000 0.000000000000000
0 0

0101101
*
Ed
 0.000000100000010 1 1 0
1  8 0 0.000000000000000 3.000000000000000
2  18 6 0 0.000000000000000 3.000000000000000
2  19 7 0 0.000000000000000 3.000000000000000
4 C2 6 0 7 0
0

0101000
+27 10 -27 12 *
Ed
 0.000000100000000 1 1 0
1  9 0 0.645860530177776 1.570796326794897
2  20 6 14 0.645860530177776 1.570796326794897
2  21 6 15 0.645860530177776 1.570796326794897
2  22 4 16 0.645860530177776 1.570796326794897
0

0101000
+32 17 -27 17 *
Wi

0101100
+31 0 -26 0 -25 13 +25 18 *
Fa
0  0.000000100000000 6 0

0101000
+24 0 *
Ve
0.000000100000032
135.758960695135102 102.320597100372510 0.000000000000000
0 0

0101101
*
Ed
 0.000000100000032 1 1 0
1  10 0 0.000000000000000 3.000000000000000
2  23 7 0 0.000000000000000 3.000000000000000
2  24 8 0 0.000000000000000 3.000000000000000
4 G1 7 0 8 0
0

0101000
+22 20 -22 21 *
Ed
 0.000000100000000 1 1 0
1  11 0 0.645860530177776 1.570796326794897
2  25 7 22 0.645860530177776 1.570796326794897
2  26 7 23 0.645860530177776 1.570796326794897
2  27 4 24 0.645860530177776 1.570796326794897
0

0101000
+22 0 -27 25 *
Wi

0101100
+21 0 -26 0 -20 20 +20 21 *
Fa
0  0.000000100000000 7 0

0101000
+19 0 *
Ve
0.000000100000007
158.412641777220131 91.574475468647819 0.000000000000000
0 0

0101101
*
Ed
 0.000000100000007 1 1 0
1  12 0 0.000000000000000 3.000000000000000
2  28 8 0 0.000000000000000 3.000000000000000
2  29 9 0 0.000000000000000 3.000000000000000
4 G1 8 0 9 0
0

0101000
+17 20 -17 21 *
Ed
 0.000000100000000 1 1 0
1  13 0 4.559641759144434 6.283185307179590
2  30 8 22 4.559641759144434 6.283185307179590
2  31 8 23 4.559641759144434 6.283185307179590
2  32 4 24 4.559641759144434 6.283185307179590
0

0101000
+22 0 -17 0 *
Wi

0101100
+21 0 -16 0 -15 20 +15 21 *
Fa
0  0.000000100000000 8 0

0101000
+14 0 *
Ve
0.000000100000014
158.906530283710310 94.729692458026364 0.000000000000000
0 0

0101101
*
Ed
 0.000000100000014 1 1 0
1  14 0 0.000000000000000 3.000000000000000
2  33 9 0 0.000000000000000 3.000000000000000
2  34 3 0 0.000000000000000 3.000000000000000
4 G1 9 0 3 0
0

0101000
+12 20 -12 21 *
Ed
 0.000000100000000 1 1 0
1  15 0 5.435071212574583 6.820757807912255
2  35 9 22 5.435071212574583 6.820757807912255
2  36 9 23 5.435071212574583 6.820757807912255
2  37 4 24 5.435071212574583 6.820757807912255
0

0101000
+17 0 -12 0 *
Wi

0101100
+16 0 -11 0 -10 20 +10 21 *
Fa
0  0.000000100000000 9 0

0101000
+9 0 *
Ed
 0.000000100000000 1 1 0
1  16 0 0.537572500732668 1.570796326794897
2  38 3 22 0.537572500732668 1.570796326794897
2  39 3 23 0.537572500732668 1.570796326794897
2  40 4 24 0.537572500732668 1.570796326794897
0

0101000
+12 0 -42 25 *
Wi

0101100
+11 0 -41 0 -7 20 +7 21 *
Fa
0  0.000000100000000 3 0

0101000
+6 0 *
Wi

0101100
-40 27 -35 27 -30 27 +25 27 -20 28 +15 28 +10 28 +7 28 *
Fa
0  0.000000100000000 4 0

0101000
+4 0 *
Sh

0101100
-38 0 -33 0 -28 0 +23 0 -18 0 +13 0 +8 0 +5 0 +3 26 -3 29 
*
So

1100000
-2 0 *

+1 1 