
CASCADE Topology V1, (c) Matra-Datavision
Locations 12
1
1.000000000000000 0.000000000000000 0.000000000000000 0.000000000000000 
0.000000000000000 1.000000000000000 0.000000000000000 0.000000000000000 
0.000000000000000 0.000000000000000 1.000000000000000 0.000000000000000 
1
1.000000000000000 0.000000000000000 0.000000000000000 0.000000000000000 
0.000000000000000 1.000000000000000 0.000000000000000 0.000000000000000 
0.000000000000000 0.000000000000000 1.000000000000000 0.000000000000000 
1
1.000000000000000 0.000000000000000 0.000000000000000 0.000000000000000 
0.000000000000000 1.000000000000000 0.000000000000000 0.000000000000000 
0.000000000000000 0.000000000000000 1.000000000000000 0.000000000000000 
1
1.000000000000000 0.000000000000000 0.000000000000000 0.000000000000000 
0.000000000000000 1.000000000000000 0.000000000000000 0.000000000000000 
0.000000000000000 0.000000000000000 1.000000000000000 362.254517155593078 
2  1 1 2 1 3 -1 4 1 0
1
1.000000000000000 0.000000000000000 0.000000000000000 -0.000000000000000 
0.000000000000000 1.000000000000000 0.000000000000000 -0.000000000000000 
0.000000000000000 0.000000000000000 1.000000000000000 -724.509034311186156 
2  1 1 2 1 3 -1 4 1 6 1 0
2  4 -1 3 1 2 -1 1 -1 0
2  6 -1 4 -1 3 1 2 -1 1 -1 0
2  3 -1 4 1 0
2  1 1 2 1 0
2  3 -1 4 1 6 1 0
Curve2ds 64
1 2.61799387799154060 0.00000000000000000 0.00000000000000000 -1.00000000000000000 
1 0.00000000000000000 0.00000000000000000 0.00000000000000000 -1.00000000000000000 
1 2.99999999999989919 0.00000000000000000 0.00000000000000000 -1.00000000000000000 
1 0.00000000000000000 0.00000000000000000 0.00000000000000000 -1.00000000000000000 
1 0.00000000000000000 0.00000000000000000 1.00000000000000000 0.00000000000000000 
1 0.00000000000000000 -724.50903431118615572 1.00000000000000000 0.00000000000000000 
1 2.99999999999928724 0.00000000000000000 0.00000000000000000 -1.00000000000000000 
1 0.00000000000000000 0.00000000000000000 0.00000000000000000 -1.00000000000000000 
1 0.00000000000000000 0.00000000000000000 1.00000000000000000 0.00000000000000000 
1 0.00000000000000000 -724.50903431118615572 1.00000000000000000 0.00000000000000000 
1 5.75958653158127465 0.00000000000000000 0.00000000000000000 -1.00000000000000000 
1 3.00665927567398361 0.00000000000000000 0.00000000000000000 -1.00000000000000000 
1 0.00000000000000000 0.00000000000000000 1.00000000000000000 0.00000000000000000 
1 -0.00000000000000000 -724.50903431118615572 1.00000000000000000 0.00000000000000000 
1 0.00000000000000000 0.00000000000000000 1.00000000000000000 0.00000000000000000 
1 0.00000000000000000 -724.50903431118615572 1.00000000000000000 0.00000000000000000 
1 4.71238898038468879 0.00000000000000000 0.00000000000000000 -1.00000000000000000 
1 0.00000000000000000 0.00000000000000000 0.00000000000000000 -1.00000000000000000 
1 5.83855957305824536 0.00000000000000000 0.00000000000000000 -1.00000000000000000 
1 2.99997315284715249 0.00000000000000000 0.00000000000000000 -1.00000000000000000 
1 0.00000000000000000 0.00000000000000000 1.00000000000000000 0.00000000000000000 
1 0.00000000000000000 -724.50903431118615572 1.00000000000000000 0.00000000000000000 
1 0.00000000000000000 0.00000000000000000 0.00000000000000000 -1.00000000000000000 
1 3.00000000000000000 0.00000000000000000 0.00000000000000000 -1.00000000000000000 
1 0.00000000000000000 0.00000000000000000 1.00000000000000000 0.00000000000000000 
1 0.00000000000000000 -724.50903431118615572 1.00000000000000000 0.00000000000000000 
1 0.00000000000000000 0.00000000000000000 1.00000000000000000 0.00000000000000000 
1 0.00000000000000000 -724.50903431118615572 1.00000000000000000 0.00000000000000000 
1 5.83856522224514585 0.00000000000000000 0.00000000000000000 -1.00000000000000000 
1 0.00000000000000000 0.00000000000000000 0.00000000000000000 -1.00000000000000000 
1 2.26046237087314061 0.00000000000000000 0.00000000000000000 -1.00000000000000000 
1 0.00000000000000000 0.00000000000000000 0.00000000000000000 -1.00000000000000000 
1 0.00000000000000000 0.00000000000000000 1.00000000000000000 0.00000000000000000 
1 0.00000000000000000 -724.50903431118615572 1.00000000000000000 0.00000000000000000 
1 6.28318788833327435 0.00000000000000000 0.00000000000000000 -1.00000000000000000 
1 2.26048818242455241 0.00000000000000000 0.00000000000000000 -1.00000000000000000 
1 0.00000000000000000 0.00000000000000000 1.00000000000000000 0.00000000000000000 
1 0.00000000000000000 -724.50903431118615572 1.00000000000000000 0.00000000000000000 
1 0.00000000000000000 0.00000000000000000 1.00000000000000000 0.00000000000000000 
1 0.00000000000000000 -724.50903431118615572 1.00000000000000000 0.00000000000000000 
1 -0.00000000000000355 0.00000000000000000 0.00000000000000000 -1.00000000000000000 
1 0.00000000000000000 0.00000000000000000 0.00000000000000000 -1.00000000000000000 
1 1.73205080756886787 0.00000000000000000 0.00000000000000000 -1.00000000000000000 
1 0.00000000000000000 0.00000000000000000 0.00000000000000000 -1.00000000000000000 
1 0.00000000000000000 0.00000000000000000 1.00000000000000000 0.00000000000000000 
1 0.00000000000000000 -724.50903431118615572 1.00000000000000000 0.00000000000000000 
1 1.04719755119659563 0.00000000000000000 0.00000000000000000 -1.00000000000000000 
1 1.73205080756887586 0.00000000000000000 0.00000000000000000 -1.00000000000000000 
1 0.00000000000000000 0.00000000000000000 1.00000000000000000 0.00000000000000000 
1 0.00000000000000000 -724.50903431118615572 1.00000000000000000 0.00000000000000000 
1 0.00000000000000000 0.00000000000000000 1.00000000000000000 0.00000000000000000 
1 0.00000000000000000 -724.50903431118615572 1.00000000000000000 0.00000000000000000 
1 1.04719755119659585 0.00000000000000000 0.00000000000000000 -1.00000000000000000 
1 0.00000000000000000 0.00000000000000000 0.00000000000000000 -1.00000000000000000 
1 1.73205080756888319 0.00000000000000000 0.00000000000000000 -1.00000000000000000 
1 0.00000000000000000 0.00000000000000000 0.00000000000000000 -1.00000000000000000 
1 0.00000000000000000 0.00000000000000000 1.00000000000000000 0.00000000000000000 
1 0.00000000000000000 -724.50903431118615572 1.00000000000000000 0.00000000000000000 
1 1.57079632679489656 0.00000000000000000 0.00000000000000000 -1.00000000000000000 
1 0.46410161513776416 0.00000000000000000 0.00000000000000000 -1.00000000000000000 
1 0.00000000000000000 0.00000000000000000 1.00000000000000000 0.00000000000000000 
1 0.00000000000000000 -724.50903431118615572 1.00000000000000000 0.00000000000000000 
1 0.00000000000000000 0.00000000000000000 1.00000000000000000 0.00000000000000000 
1 -0.00000000000000000 -724.50903431118615572 1.00000000000000000 0.00000000000000000 
Curves 32
1 15.49999999999984013 168.95854811567275533 362.25451715559307786 -0.00000000000000000 -0.00000000000000000 -1.00000000000000000 
1 16.99999999999998224 171.55662432702587239 362.25451715559307786 -0.00000000000000000 -0.00000000000000000 -1.00000000000000000 
1 15.49999999999984013 168.95854811567275533 0.00000000000000000 0.50000000000006428 0.86602540378440163 0.00000000000000000 
1 19.59807621135244204 170.05662432702581555 362.25451715559307786 -0.00000000000000000 -0.00000000000000000 -1.00000000000000000 
1 16.99999999999998224 171.55662432702587239 0.00000000000000000 0.86602540378435910 -0.50000000000013789 0.00000000000000000 
1 18.27128129210992213 167.35854811567287470 362.25451715559307786 -0.00000000000000000 -0.00000000000000000 -1.00000000000000000 
1 19.59807621135244204 170.05662432702581555 0.00000000000000000 -0.44128542598000259 -0.89736679948483034 0.00000000000000000 
2 16.88564064605490600 168.15854811567285765 0.00000000000000000 0.00000000000000000 0.00000000000000000 1.00000000000000000 1.00000000000000000 0.00000000000000000 -0.00000000000000000 -0.00000000000000000 1.00000000000000000 0.00000000000000000 1.59999999999991460
1 11.50000000000001066 -167.50000000000000000 362.25451715559307786 -0.00000000000000000 -0.00000000000000000 -1.00000000000000000 
1 15.79033325415981537 -164.79170182383603560 362.25451715559307786 -0.00000000000000000 -0.00000000000000000 -1.00000000000000000 
2 11.50000000000001599 -162.74759890374713223 0.00000000000000000 0.00000000000000000 0.00000000000000000 1.00000000000000000 1.00000000000000000 0.00000000000000000 -0.00000000000000000 -0.00000000000000000 1.00000000000000000 0.00000000000000000 4.75240109625286333
1 14.50000000000001066 -167.50000000000000000 362.25451715559307786 -0.00000000000000000 -0.00000000000000000 -1.00000000000000000 
1 14.50000000000001066 -167.50000000000000000 0.00000000000000000 0.43011493384039179 0.90277413769307513 0.00000000000000000 
1 11.50000000000001066 -167.50000000000000000 0.00000000000000000 1.00000000000000000 0.00000000000000000 0.00000000000000000 
1 40.62774137686658094 -112.66012503947587220 362.25451715559307786 -0.00000000000000000 -0.00000000000000000 -1.00000000000000000 
1 41.59999999996674092 -110.61943807182483113 362.25451715559307786 -0.00000000000000000 -0.00000000000000000 -1.00000000000000000 
1 40.62774137686658094 -112.66012503947587220 0.00000000000000000 0.43011493384187993 0.90277413769236614 0.00000000000000000 
1 41.59999999996674092 -108.35894988940027872 362.25451715559307786 -0.00000000000000000 -0.00000000000000000 -1.00000000000000000 
2 31.60000000000005471 -108.35897570093715103 0.00000000000000000 0.00000000000000000 0.00000000000000000 1.00000000000000000 1.00000000000000000 0.00000000000000000 -0.00000000000000000 -0.00000000000000000 1.00000000000000000 0.00000000000000000 10.00000000000000000
1 41.59999999996674092 -110.61943807182483113 0.00000000000000000 0.00000000000000000 1.00000000000000000 0.00000000000000000 
1 41.60000000000000142 152.15765528225452385 362.25451715559307786 -0.00000000000000000 -0.00000000000000000 -1.00000000000000000 
1 41.60000000000000142 153.88970608982339172 362.25451715559307786 -0.00000000000000000 -0.00000000000000000 -1.00000000000000000 
1 41.60000000000000142 152.15765528225452385 0.00000000000000000 0.00000000000000000 1.00000000000000000 0.00000000000000000 
1 40.10000000000000853 154.75573149360783987 362.25451715559307786 -0.00000000000000000 -0.00000000000000000 -1.00000000000000000 
2 38.60000000000000142 152.15765528225452385 0.00000000000000000 0.00000000000000000 0.00000000000000000 1.00000000000000000 1.00000000000000000 0.00000000000000000 -0.00000000000000000 -0.00000000000000000 1.00000000000000000 0.00000000000000000 3.00000000000000000
1 41.60000000000000142 153.88970608982339172 0.00000000000000000 -0.86602540378443527 0.50000000000000588 0.00000000000000000 
1 1.50000000000000488 180.50555349946515094 362.25451715559307786 -0.00000000000000000 -0.00000000000000000 -1.00000000000000000 
1 0.00000000000000355 181.37157890324959908 362.25451715559307786 -0.00000000000000000 -0.00000000000000000 -1.00000000000000000 
1 1.50000000000000488 180.50555349946515094 0.00000000000000000 -0.86602540378443649 0.50000000000000377 0.00000000000000000 
1 0.00000000000000018 180.90747728811183492 362.25451715559307786 -0.00000000000000000 -0.00000000000000000 -1.00000000000000000 
2 0.00000000000000000 177.90747728811183492 0.00000000000000000 0.00000000000000000 0.00000000000000000 1.00000000000000000 1.00000000000000000 0.00000000000000000 -0.00000000000000000 -0.00000000000000000 1.00000000000000000 0.00000000000000000 3.00000000000000000
1 0.00000000000000355 181.37157890324959908 0.00000000000000000 -0.00000000000000726 -1.00000000000000000 0.00000000000000000 
Polygon3D 0
PolygonOnTriangulations 0
Surfaces 21
1 15.49999999999984013 168.95854811567275533 362.25451715559307786 0.86602540378440163 -0.50000000000006428 0.00000000000000000 0.50000000000006428 0.86602540378440163 0.00000000000000000 -0.00000000000000000 0.00000000000000000 1.00000000000000000 
2 16.88564064605490600 168.15854811567285765 362.25451715559307786 0.00000000000000000 0.00000000000000000 1.00000000000000000 1.00000000000000000 0.00000000000000000 -0.00000000000000000 -0.00000000000000000 1.00000000000000000 0.00000000000000000 1.59999999999991460
1 16.99999999999998224 171.55662432702587239 362.25451715559307786 -0.50000000000013789 -0.86602540378435910 0.00000000000000000 0.86602540378435910 -0.50000000000013789 0.00000000000000000 0.00000000000000000 0.00000000000000000 1.00000000000000000 
1 19.59807621135244204 170.05662432702581555 362.25451715559307786 -0.89736679948483034 0.44128542598000259 0.00000000000000000 -0.44128542598000259 -0.89736679948483034 0.00000000000000000 0.00000000000000000 0.00000000000000000 1.00000000000000000 
1 23.43456025994957059 25.86077921051141359 0.00000000000000000 0.00000000000000000 0.00000000000000000 1.00000000000000000 1.00000000000000000 0.00000000000000000 -0.00000000000000000 -0.00000000000000000 1.00000000000000000 0.00000000000000000 
2 11.50000000000001599 -162.74759890374713223 362.25451715559307786 0.00000000000000000 0.00000000000000000 1.00000000000000000 1.00000000000000000 0.00000000000000000 -0.00000000000000000 -0.00000000000000000 1.00000000000000000 0.00000000000000000 4.75240109625286333
1 11.50000000000001066 -167.50000000000000000 362.25451715559307786 0.00000000000000000 -1.00000000000000000 0.00000000000000000 1.00000000000000000 0.00000000000000000 0.00000000000000000 -0.00000000000000000 0.00000000000000000 1.00000000000000000 
1 14.50000000000001066 -167.50000000000000000 362.25451715559307786 0.90277413769307513 -0.43011493384039179 0.00000000000000000 0.43011493384039179 0.90277413769307513 0.00000000000000000 -0.00000000000000000 0.00000000000000000 1.00000000000000000 
1 23.43456025994957059 25.86077921051141359 0.00000000000000000 0.00000000000000000 0.00000000000000000 1.00000000000000000 1.00000000000000000 0.00000000000000000 -0.00000000000000000 -0.00000000000000000 1.00000000000000000 0.00000000000000000 
1 40.62774137686658094 -112.66012503947587220 362.25451715559307786 0.90277413769236614 -0.43011493384187993 0.00000000000000000 0.43011493384187993 0.90277413769236614 0.00000000000000000 -0.00000000000000000 0.00000000000000000 1.00000000000000000 
2 31.60000000000005471 -108.35897570093715103 362.25451715559307786 0.00000000000000000 0.00000000000000000 1.00000000000000000 1.00000000000000000 0.00000000000000000 -0.00000000000000000 -0.00000000000000000 1.00000000000000000 0.00000000000000000 10.00000000000000000
1 41.59999999996674092 -110.61943807182483113 362.25451715559307786 1.00000000000000000 0.00000000000000000 0.00000000000000000 -0.00000000000000000 1.00000000000000000 0.00000000000000000 0.00000000000000000 -0.00000000000000000 1.00000000000000000 
1 23.43456025994957059 25.86077921051141359 0.00000000000000000 0.00000000000000000 0.00000000000000000 1.00000000000000000 1.00000000000000000 0.00000000000000000 -0.00000000000000000 -0.00000000000000000 1.00000000000000000 0.00000000000000000 
1 41.60000000000000142 152.15765528225452385 362.25451715559307786 1.00000000000000000 0.00000000000000000 0.00000000000000000 -0.00000000000000000 1.00000000000000000 0.00000000000000000 0.00000000000000000 -0.00000000000000000 1.00000000000000000 
2 38.60000000000000142 152.15765528225452385 362.25451715559307786 0.00000000000000000 0.00000000000000000 1.00000000000000000 1.00000000000000000 0.00000000000000000 -0.00000000000000000 -0.00000000000000000 1.00000000000000000 0.00000000000000000 3.00000000000000000
1 41.60000000000000142 153.88970608982339172 362.25451715559307786 0.50000000000000588 0.86602540378443527 -0.00000000000000000 -0.86602540378443527 0.50000000000000588 0.00000000000000000 0.00000000000000000 0.00000000000000000 1.00000000000000000 
1 23.43456025994957059 25.86077921051141359 0.00000000000000000 0.00000000000000000 0.00000000000000000 1.00000000000000000 1.00000000000000000 0.00000000000000000 -0.00000000000000000 -0.00000000000000000 1.00000000000000000 0.00000000000000000 
1 1.50000000000000488 180.50555349946515094 362.25451715559307786 0.50000000000000377 0.86602540378443649 -0.00000000000000000 -0.86602540378443649 0.50000000000000377 0.00000000000000000 0.00000000000000000 0.00000000000000000 1.00000000000000000 
2 0.00000000000000000 177.90747728811183492 362.25451715559307786 0.00000000000000000 0.00000000000000000 1.00000000000000000 1.00000000000000000 0.00000000000000000 -0.00000000000000000 -0.00000000000000000 1.00000000000000000 0.00000000000000000 3.00000000000000000
1 0.00000000000000355 181.37157890324959908 362.25451715559307786 -1.00000000000000000 0.00000000000000726 0.00000000000000000 -0.00000000000000726 -1.00000000000000000 0.00000000000000000 0.00000000000000000 0.00000000000000000 1.00000000000000000 
1 23.43456025994957059 25.86077921051141359 0.00000000000000000 0.00000000000000000 0.00000000000000000 1.00000000000000000 1.00000000000000000 0.00000000000000000 -0.00000000000000000 -0.00000000000000000 1.00000000000000000 0.00000000000000000 
Triangulations 0

TShapes 101
Ve
0.000000100000000
15.499999999999840 168.958548115672755 0.000000000000000
0 0

0101101
*
Ed
 0.000000100000000 1 1 0
1  1 0 0.000000000000000 724.509034311186156
2  1 2 0 0.000000000000000 724.509034311186156
4 G1 1 0 2 0
2  2 1 0 0.000000000000000 724.509034311186156
0

0101000
+101 5 -101 7 *
Ve
0.000000100000000
16.999999999999982 171.556624327025872 0.000000000000000
0 0

0101101
*
Ed
 0.000000100000000 1 1 0
1  2 0 0.000000000000000 724.509034311186156
2  3 1 0 0.000000000000000 724.509034311186156
2  4 3 0 0.000000000000000 724.509034311186156
0

0101000
+99 5 -99 7 *
Ed
 0.000000100000000 1 1 0
1  3 0 0.000000000000000 2.999999999999899
2  5 1 8 0.000000000000000 2.999999999999899
2  6 1 9 0.000000000000000 2.999999999999899
0

0101000
+101 0 -99 0 *
Wi

0101100
+100 0 -98 0 -97 5 +97 7 *
Fa
0  0.000000100000000 1 0

0111000
+96 0 *
Ve
0.000000100000000
19.598076211352442 170.056624327025816 0.000000000000000
0 0

0101101
*
Ed
 0.000000100000000 1 1 0
1  4 0 0.000000000000000 724.509034311186156
2  7 3 0 0.000000000000000 724.509034311186156
2  8 4 0 0.000000000000000 724.509034311186156
0

0101000
+94 5 -94 7 *
Ed
 0.000000100000000 1 1 0
1  5 0 0.000000000000000 2.999999999999287
2  9 3 8 0.000000000000000 2.999999999999287
2  10 3 9 0.000000000000000 2.999999999999287
0

0101000
+99 0 -94 0 *
Wi

0101100
+98 0 -93 0 -92 5 +92 7 *
Fa
0  0.000000100000000 3 0

0111000
+91 0 *
Ve
0.000000100000000
18.271281292109922 167.358548115672875 0.000000000000000
0 0

0101101
*
Ed
 0.000000100000000 1 1 0
1  6 0 0.000000000000000 724.509034311186156
2  11 2 0 0.000000000000000 724.509034311186156
2  12 4 0 0.000000000000000 724.509034311186156
0

0101000
+89 5 -89 7 *
Ed
 0.000000100000000 1 1 0
1  7 0 0.000000000000000 3.006659275673984
2  13 4 8 0.000000000000000 3.006659275673984
2  14 4 9 0.000000000000000 3.006659275673984
0

0101000
+94 0 -89 0 *
Wi

0101100
+93 0 -88 0 -87 5 +87 7 *
Fa
0  0.000000100000000 4 0

0111000
+86 0 *
Ed
 0.000000100000000 1 1 0
1  8 0 2.617993877991541 5.759586531581275
2  15 2 8 2.617993877991541 5.759586531581275
2  16 2 9 2.617993877991541 5.759586531581275
0

0101000
+101 0 -89 0 *
Wi

0101100
+100 0 -88 0 -84 5 +84 7 *
Fa
0  0.000000100000000 2 0

0111000
+83 0 *
Wi

0101100
+97 0 +92 0 +87 0 -84 0 *
Fa
0  0.000000100000000 5 0

0111000
-81 11 *
Sh

0101100
-95 0 -90 0 -85 0 +82 0 +80 10 -80 12 *
So

0100000
+79 0 *
Ve
0.000000100000000
11.500000000000011 -167.500000000000000 0.000000000000000
0 0

0101101
*
Ed
 0.000000100000000 1 1 0
1  9 0 0.000000000000000 724.509034311186156
2  17 6 0 0.000000000000000 724.509034311186156
2  18 7 0 0.000000000000000 724.509034311186156
0

0101000
+77 5 -77 7 *
Ve
0.000000100000000
15.790333254159815 -164.791701823836036 0.000000000000000
0 0

0101101
*
Ed
 0.000000100000000 1 1 0
1  10 0 0.000000000000000 724.509034311186156
2  19 6 0 0.000000000000000 724.509034311186156
2  20 8 0 0.000000000000000 724.509034311186156
0

0101000
+75 5 -75 7 *
Ed
 0.000000100000000 1 1 0
1  11 0 4.712388980384689 5.838559573058245
2  21 6 8 4.712388980384689 5.838559573058245
2  22 6 9 4.712388980384689 5.838559573058245
0

0101000
+77 0 -75 0 *
Wi

0101100
+76 0 -74 0 -73 5 +73 7 *
Fa
0  0.000000100000000 6 0

0111000
+72 0 *
Ve
0.000000100000000
14.500000000000011 -167.500000000000000 0.000000000000000
0 0

0101101
*
Ed
 0.000000100000000 1 1 0
1  12 0 0.000000000000000 724.509034311186156
2  23 8 0 0.000000000000000 724.509034311186156
2  24 7 0 0.000000000000000 724.509034311186156
0

0101000
+70 5 -70 7 *
Ed
 0.000000100000000 1 1 0
1  13 0 0.000000000000000 2.999973152847153
2  25 8 8 0.000000000000000 2.999973152847153
2  26 8 9 0.000000000000000 2.999973152847153
0

0101000
+70 0 -75 0 *
Wi

0101100
+69 0 -74 0 -68 5 +68 7 *
Fa
0  0.000000100000000 8 0

0111000
+67 0 *
Ed
 0.000000100000000 1 1 0
1  14 0 0.000000000000000 3.000000000000000
2  27 7 8 0.000000000000000 3.000000000000000
2  28 7 9 0.000000000000000 3.000000000000000
0

0101000
+77 0 -70 0 *
Wi

0101100
+76 0 -69 0 -65 5 +65 7 *
Fa
0  0.000000100000000 7 0

0111000
+64 0 *
Wi

0101100
+73 0 -68 0 -65 0 *
Fa
0  0.000000100000000 9 0

0111000
-62 11 *
Sh

0101100
-71 0 +66 0 +63 0 +61 10 -61 12 *
So

0100000
+60 0 *
Ve
0.000000100000000
40.627741376866581 -112.660125039475872 0.000000000000000
0 0

0101101
*
Ed
 0.000000100000000 1 1 0
1  15 0 0.000000000000000 724.509034311186156
2  29 11 0 0.000000000000000 724.509034311186156
2  30 10 0 0.000000000000000 724.509034311186156
0

0101000
+58 5 -58 7 *
Ve
0.000000100000000
41.599999999966741 -110.619438071824831 0.000000000000000
0 0

0101101
*
Ed
 0.000000100000000 1 1 0
1  16 0 0.000000000000000 724.509034311186156
2  31 10 0 0.000000000000000 724.509034311186156
2  32 12 0 0.000000000000000 724.509034311186156
0

0101000
+56 5 -56 7 *
Ed
 0.000000100000000 1 1 0
1  17 0 0.000000000000000 2.260462370873141
2  33 10 8 0.000000000000000 2.260462370873141
2  34 10 9 0.000000000000000 2.260462370873141
0

0101000
+58 0 -56 0 *
Wi

0101100
+57 0 -55 0 -54 5 +54 7 *
Fa
0  0.000000100000000 10 0

0111000
+53 0 *
Ve
0.000000100000000
41.599999999966741 -108.358949889400279 0.000000000000000
0 0

0101101
*
Ed
 0.000000100000000 1 1 0
1  18 0 0.000000000000000 724.509034311186156
2  35 11 0 0.000000000000000 724.509034311186156
2  36 12 0 0.000000000000000 724.509034311186156
0

0101000
+51 5 -51 7 *
Ed
 0.000000100000000 1 1 0
1  19 0 5.838565222245146 6.283187888333274
2  37 11 8 5.838565222245146 6.283187888333274
2  38 11 9 5.838565222245146 6.283187888333274
0

0101000
+58 0 -51 0 *
Wi

0101100
+57 0 -50 0 -49 5 +49 7 *
Fa
0  0.000000100000000 11 0

0111000
+48 0 *
Ed
 0.000000100000000 1 1 0
1  20 0 0.000000000000000 2.260488182424552
2  39 12 8 0.000000000000000 2.260488182424552
2  40 12 9 0.000000000000000 2.260488182424552
0

0101000
+56 0 -51 0 *
Wi

0101100
+55 0 -50 0 -46 5 +46 7 *
Fa
0  0.000000100000000 12 0

0111000
+45 0 *
Wi

0101100
-54 0 +49 0 -46 0 *
Fa
0  0.000000100000000 13 0

0111000
-43 11 *
Sh

0101100
+52 0 -47 0 +44 0 +42 10 -42 12 *
So

0100000
+41 0 *
Ve
0.000000100000000
41.600000000000001 152.157655282254524 0.000000000000000
0 0

0101101
*
Ed
 0.000000100000000 1 1 0
1  21 0 0.000000000000000 724.509034311186156
2  41 15 0 0.000000000000000 724.509034311186156
2  42 14 0 0.000000000000000 724.509034311186156
0

0101000
+39 5 -39 7 *
Ve
0.000000100000000
41.600000000000001 153.889706089823392 0.000000000000000
0 0

0101101
*
Ed
 0.000000100000000 1 1 0
1  22 0 0.000000000000000 724.509034311186156
2  43 14 0 0.000000000000000 724.509034311186156
2  44 16 0 0.000000000000000 724.509034311186156
0

0101000
+37 5 -37 7 *
Ed
 0.000000100000000 1 1 0
1  23 0 0.000000000000000 1.732050807568868
2  45 14 8 0.000000000000000 1.732050807568868
2  46 14 9 0.000000000000000 1.732050807568868
0

0101000
+39 0 -37 0 *
Wi

0101100
+38 0 -36 0 -35 5 +35 7 *
Fa
0  0.000000100000000 14 0

0111000
+34 0 *
Ve
0.000000100000000
40.100000000000009 154.755731493607840 0.000000000000000
0 0

0101101
*
Ed
 0.000000100000000 1 1 0
1  24 0 0.000000000000000 724.509034311186156
2  47 15 0 0.000000000000000 724.509034311186156
2  48 16 0 0.000000000000000 724.509034311186156
0

0101000
+32 5 -32 7 *
Ed
 0.000000100000000 1 1 0
1  25 0 -0.000000000000004 1.047197551196596
2  49 15 8 -0.000000000000004 1.047197551196596
2  50 15 9 -0.000000000000004 1.047197551196596
0

0101000
+39 0 -32 0 *
Wi

0101100
+38 0 -31 0 -30 5 +30 7 *
Fa
0  0.000000100000000 15 0

0111000
+29 0 *
Ed
 0.000000100000000 1 1 0
1  26 0 0.000000000000000 1.732050807568876
2  51 16 8 0.000000000000000 1.732050807568876
2  52 16 9 0.000000000000000 1.732050807568876
0

0101000
+37 0 -32 0 *
Wi

0101100
+36 0 -31 0 -27 5 +27 7 *
Fa
0  0.000000100000000 16 0

0111000
+26 0 *
Wi

0101100
-35 0 +30 0 -27 0 *
Fa
0  0.000000100000000 17 0

0111000
-24 11 *
Sh

0101100
+33 0 -28 0 +25 0 +23 10 -23 12 *
So

0100000
+22 0 *
Ve
0.000000100000000
1.500000000000005 180.505553499465151 0.000000000000000
0 0

0101101
*
Ed
 0.000000100000000 1 1 0
1  27 0 0.000000000000000 724.509034311186156
2  53 19 0 0.000000000000000 724.509034311186156
2  54 18 0 0.000000000000000 724.509034311186156
0

0101000
+20 5 -20 7 *
Ve
0.000000100000000
0.000000000000004 181.371578903249599 0.000000000000000
0 0

0101101
*
Ed
 0.000000100000000 1 1 0
1  28 0 0.000000000000000 724.509034311186156
2  55 18 0 0.000000000000000 724.509034311186156
2  56 20 0 0.000000000000000 724.509034311186156
0

0101000
+18 5 -18 7 *
Ed
 0.000000100000000 1 1 0
1  29 0 0.000000000000000 1.732050807568883
2  57 18 8 0.000000000000000 1.732050807568883
2  58 18 9 0.000000000000000 1.732050807568883
0

0101000
+20 0 -18 0 *
Wi

0101100
+19 0 -17 0 -16 5 +16 7 *
Fa
0  0.000000100000000 18 0

0111000
+15 0 *
Ve
0.000000100000000
0.000000000000000 180.907477288111835 0.000000000000000
0 0

0101101
*
Ed
 0.000000100000000 1 1 0
1  30 0 0.000000000000000 724.509034311186156
2  59 19 0 0.000000000000000 724.509034311186156
2  60 20 0 0.000000000000000 724.509034311186156
0

0101000
+13 5 -13 7 *
Ed
 0.000000100000000 1 1 0
1  31 0 1.047197551196596 1.570796326794897
2  61 19 8 1.047197551196596 1.570796326794897
2  62 19 9 1.047197551196596 1.570796326794897
0

0101000
+20 0 -13 0 *
Wi

0101100
+19 0 -12 0 -11 5 +11 7 *
Fa
0  0.000000100000000 19 0

0111000
+10 0 *
Ed
 0.000000100000000 1 1 0
1  32 0 0.000000000000000 0.464101615137764
2  63 20 8 0.000000000000000 0.464101615137764
2  64 20 9 0.000000000000000 0.464101615137764
0

0101000
+18 0 -13 0 *
Wi

0101100
+17 0 -12 0 -8 5 +8 7 *
Fa
0  0.000000100000000 20 0

0111000
+7 0 *
Wi

0101100
-16 0 +11 0 -8 0 *
Fa
0  0.000000100000000 21 0

0111000
-5 11 *
Sh

0101100
+14 0 -9 0 +6 0 +4 10 -4 12 *
So

0100000
+3 0 *
Co

1100000
+78 0 +59 0 +40 0 +21 0 +2 0 *

+1 0 