
CASCADE Topology V1, (c) Matra-Datavision
Locations 3
1
1.000000000000000 0.000000000000000 0.000000000000000 0.000000000000000 
0.000000000000000 1.000000000000000 0.000000000000000 0.000000000000000 
0.000000000000000 0.000000000000000 1.000000000000000 0.000000000000000 
1
1.000000000000000 0.000000000000000 0.000000000000000 0.000000000000000 
0.000000000000000 1.000000000000000 0.000000000000000 0.000000000000000 
0.000000000000000 0.000000000000000 1.000000000000000 1594.000000000000000 
2  2 -1 0
Curve2ds 97
1 1.57079632679489656 0.00000000000000000 0.00000000000000000 -1.00000000000000000 
1 0.00000000000000000 -2.00000000000000000 1.00000000000000000 0.00000000000000000 
1 0.00000000000000000 -2.00000000000000000 -1.00000000000000000 0.00000000000000000 
1 0.00000000000000000 0.00000000000000000 0.00000000000000000 -1.00000000000000000 
1 14.99999999999996447 0.00000000000000000 0.00000000000000000 -1.00000000000000000 
1 0.00000000000000000 0.00000000000000000 1.00000000000000000 0.00000000000000000 
1 0.00000000000000000 -2.00000000000000000 -1.00000000000000000 0.00000000000000000 
1 0.00000000000000000 -2.00000000000000000 1.00000000000000000 0.00000000000000000 
1 -3.99999999999999956 0.00000000000000000 1.00000000000000000 0.00000000000000000 
1 -3.99999999999999956 -1594.00000000000000000 1.00000000000000000 0.00000000000000000 
1 0.00000000000000000 0.00000000000000000 0.00000000000000000 -1.00000000000000000 
1 0.00000000000000000 -2.00000000000000000 1.00000000000000000 0.00000000000000000 
1 0.00000000000000000 -1.99999999999999956 -1.00000000000000000 0.00000000000000000 
1 28.60000000000000142 0.00000000000000000 0.00000000000000000 -1.00000000000000000 
1 0.00000000000000000 1594.00000000000000000 1.00000000000000000 0.00000000000000000 
1 0.00000000000000000 0.00000000000000000 1.00000000000000000 0.00000000000000000 
1 0.00000000000000000 -1594.00000000000000000 1.00000000000000000 0.00000000000000000 
1 6.28318530717958623 0.00000000000000000 -1.00000000000000000 0.00000000000000000 
1 0.00000000000000000 0.00000000000000000 1.00000000000000000 0.00000000000000000 
6 0 1 -18.99999999999996447 -2.00000000000000000  -18.99999999999996447 0.00000000000000000  
1 14.99999999999996447 0.00000000000000000 0.00000000000000000 -1.00000000000000000 
6 0 1 18.99999999999996447 -2.00000000000000000  18.99999999999996447 0.00000000000000000  
1 -3.99999999999999956 0.00000000000000000 1.00000000000000000 0.00000000000000000 
1 0.00000000000000000 0.00000000000000000 1.00000000000000000 0.00000000000000000 
6 0 1 0.00000000000000000 -2.00000000000000000  0.00000000000000000 0.00000000000000000  
6 0 1 3.99999999999999956 -2.00000000000000000  3.99999999999999956 0.00000000000000000  
8 0.00000000000000000 1.00000000000000000
1 1.57079632679489656 0.00000000000000000 0.00000000000000000 1.00000000000000000 
6 0 1 -3.99999999999999956 -2.00000000000000000  -3.99999999999999956 0.00000000000000000  
6 0 1 -1594.00000000000000000 -2.00000000000000000  -1594.00000000000000000 0.00000000000000000  
8 0.00000000000000000 1.00000000000000000
1 4.71238898038468967 0.00000000000000000 0.00000000000000000 1.00000000000000000 
1 -3.99999999999999956 -1594.00000000000000000 1.00000000000000000 0.00000000000000000 
1 0.00000000000000000 0.00000000000000000 -1.00000000000000000 0.00000000000000000 
1 6.28318530717958623 0.00000000000000000 0.00000000000000000 -1.00000000000000000 
1 0.00000000000000000 -2.00000000000000000 1.00000000000000000 0.00000000000000000 
1 0.00000000000000000 -2.00000000000000000 -1.00000000000000000 0.00000000000000000 
1 0.00000000000000000 0.00000000000000000 0.00000000000000000 -1.00000000000000000 
1 0.00000000000000000 0.00000000000000000 1.00000000000000000 0.00000000000000000 
1 0.00000000000000000 -2.00000000000000000 -1.00000000000000000 0.00000000000000000 
1 0.00000000000000000 -2.00000000000000000 1.00000000000000000 0.00000000000000000 
1 -4.00000000000000000 0.00000000000000000 1.00000000000000000 0.00000000000000000 
1 -4.00000000000000000 -1594.00000000000000000 1.00000000000000000 0.00000000000000000 
1 0.00000000000000000 1.00000000000000000 1.00000000000000000 0.00000000000000000 
1 0.00000000000000000 0.00000000000000000 0.00000000000000000 1.00000000000000000 
6 0 1 0.00000000000000000 -1.99999999999999956  0.00000000000000000 0.00000000000000000  
1 6.28318530717958623 0.00000000000000000 0.00000000000000000 1.00000000000000000 
7 0 0  1 2 2  -1594.00000000000000000 -1.99999999999999956  -1594.00000000000000000 -0.00000000000000044 
 0.00000000000000000 2 1.00000000000000000 2
7 0 0  1 2 2  -32.60000000000000142 -2.00000000000000000  -32.60000000000000142 -0.00000000000000089 
 0.00000000000000000 2 1.00000000000000000 2
1 6.28318530717958623 1.00000000000000000 -1.00000000000000000 0.00000000000000000 
1 0.00000000000000000 0.00000000000000000 0.00000000000000000 -1.00000000000000000 
1 0.00000000000000000 0.00000000000000000 -1.00000000000000000 0.00000000000000000 
8 0.00000000000000000 1594.00000000000000000
1 1.57079632679489656 0.00000000000000000 0.00000000000000000 -1.00000000000000000 
1 4.71238898038468967 0.00000000000000000 0.00000000000000000 -1.00000000000000000 
1 0.00000000000000000 -2.00000000000000000 1.00000000000000000 0.00000000000000000 
1 0.00000000000000000 -2.00000000000000000 -1.00000000000000000 0.00000000000000000 
1 14.99999999999996447 0.00000000000000000 0.00000000000000000 -1.00000000000000000 
1 -4.71238898038468967 1594.00000000000000000 1.00000000000000000 0.00000000000000000 
1 0.00000000000000000 0.00000000000000000 1.00000000000000000 0.00000000000000000 
1 0.00000000000000000 -1594.00000000000000000 1.00000000000000000 0.00000000000000000 
1 6.28318530717958623 0.00000000000000000 -1.00000000000000000 0.00000000000000000 
1 0.00000000000000000 0.00000000000000000 1.00000000000000000 0.00000000000000000 
1 -4.00000000000000000 0.00000000000000000 1.00000000000000000 0.00000000000000000 
1 0.00000000000000000 0.00000000000000000 1.00000000000000000 0.00000000000000000 
6 0 1 4.00000000000000000 -2.00000000000000000  4.00000000000000000 0.00000000000000000  
6 0 1 0.00000000000000000 -2.00000000000000000  0.00000000000000000 0.00000000000000000  
8 0.00000000000000000 1.00000000000000000
1 6.28318530717958623 0.00000000000000000 0.00000000000000000 1.00000000000000000 
6 0 1 -4.00000000000000000 -2.00000000000000000  -4.00000000000000000 0.00000000000000000  
6 0 1 -1594.00000000000000000 -2.00000000000000000  -1594.00000000000000000 0.00000000000000000  
8 0.00000000000000000 1.00000000000000000
1 0.00000000000000000 0.00000000000000000 0.00000000000000000 1.00000000000000000 
1 -4.00000000000000000 -1594.00000000000000000 1.00000000000000000 0.00000000000000000 
1 0.00000000000000000 0.00000000000000000 -1.00000000000000000 0.00000000000000000 
1 0.00000000000000000 0.00000000000000000 -1.00000000000000000 0.00000000000000000 
1 28.60000000000000142 0.00000000000000000 0.00000000000000000 -1.00000000000000000 
1 0.00000000000000000 0.00000000000000000 0.00000000000000000 -1.00000000000000000 
1 0.00000000000000000 0.00000000000000000 1.00000000000000000 0.00000000000000000 
1 0.00000000000000000 -2.00000000000000000 -1.00000000000000000 0.00000000000000000 
1 0.00000000000000000 -2.00000000000000000 1.00000000000000000 0.00000000000000000 
1 0.00000000000000000 0.00000000000000000 1.00000000000000000 0.00000000000000000 
1 0.00000000000000000 -1594.00000000000000000 1.00000000000000000 0.00000000000000000 
1 0.00000000000000000 1.00000000000000000 1.00000000000000000 0.00000000000000000 
1 4.71238898038468967 0.00000000000000000 0.00000000000000000 1.00000000000000000 
6 0 1 0.00000000000000000 -2.00000000000000000  0.00000000000000000 0.00000000000000000  
1 1.57079632679489656 0.00000000000000000 0.00000000000000000 1.00000000000000000 
7 0 0  1 2 2  -1594.00000000000000000 -2.00000000000000355  -1594.00000000000000000 0.00000000000000000 
 0.00000000000000000 2 1.00000000000000000 2
7 0 0  1 2 2  -14.99999999999996625 -2.00000000000000355  -14.99999999999996625 0.00000000000000000 
 0.00000000000000000 2 1.00000000000000000 2
1 6.28318530717958623 1.00000000000000000 -1.00000000000000000 0.00000000000000000 
1 0.00000000000000000 0.00000000000000000 0.00000000000000000 -1.00000000000000000 
1 0.00000000000000000 0.00000000000000000 -1.00000000000000000 0.00000000000000000 
8 0.00000000000000000 1594.00000000000000000
1 6.28318530717958623 0.00000000000000000 0.00000000000000000 -1.00000000000000000 
6 0 1 0.00000000000000000 -2.00000000000000000  0.00000000000000000 0.00000000000000000  
1 0.00000000000000000 0.00000000000000000 0.00000000000000000 -1.00000000000000000 
6 0 1 0.00000000000000000 -2.00000000000000000  0.00000000000000000 0.00000000000000000  
1 0.00000000000000000 0.00000000000000000 1.00000000000000000 0.00000000000000000 
1 0.00000000000000000 0.00000000000000000 1.00000000000000000 0.00000000000000000 
1 0.00000000000000000 -1594.00000000000000000 1.00000000000000000 0.00000000000000000 
1 0.00000000000000000 0.00000000000000000 -1.00000000000000000 0.00000000000000000 
1 0.00000000000000000 0.00000000000000000 -1.00000000000000000 0.00000000000000000 
1 14.99999999999996447 0.00000000000000000 0.00000000000000000 -1.00000000000000000 
Curves 39
1 18.30000000000002203 -3.99999999999994271 0.00000000000000000 0.00000000000000000 0.00000000000000000 1.00000000000000000 
1 18.30000000000002203 -18.99999999999990763 0.00000000000000000 0.00000000000000000 0.00000000000000000 1.00000000000000000 
1 18.30000000000002203 0.00000000000005684 0.00000000000000000 0.00000000000000000 -1.00000000000000000 0.00000000000000000 
1 14.30000000000002203 0.00000000000005684 0.00000000000000000 0.00000000000000000 0.00000000000000000 1.00000000000000000 
2 14.30000000000002203 -3.99999999999994271 0.00000000000000000 0.00000000000000000 0.00000000000000000 -1.00000000000000000 0.00000000000000000 1.00000000000000000 0.00000000000000000 1.00000000000000000 -0.00000000000000000 0.00000000000000000 4.00000000000000000
6 0 1 18.30000000000002203 -18.99999999999990763 1594.00000000000000000  16.30000000000002203 -18.99999999999990763 1594.00000000000000000  
1 16.30000000000002203 -18.99999999999990763 0.00000000000000000 0.00000000000000000 0.00000000000000000 1.00000000000000000 
6 0 1 18.30000000000002203 -18.99999999999990763 0.00000000000000000  16.30000000000002203 -18.99999999999990763 0.00000000000000000  
1 16.30000000000002203 0.00000000000005684 0.00000000000000000 0.00000000000000000 -1.00000000000000000 0.00000000000000000 
6 0 1 18.30000000000002203 -3.99999999999994271 0.00000000000000000  16.30000000000002203 -3.99999999999994271 0.00000000000000000  
6 0 1 18.30000000000002203 -3.99999999999994271 1594.00000000000000000  16.30000000000002203 -3.99999999999994271 1594.00000000000000000  
1 16.30000000000002203 0.00000000000005684 1594.00000000000000000 0.00000000000000000 -1.00000000000000000 0.00000000000000000 
1 -14.29999999999997939 0.00000000000005684 0.00000000000000000 0.00000000000000000 0.00000000000000000 1.00000000000000000 
1 -18.29999999999997939 0.00000000000005684 0.00000000000000000 1.00000000000000000 0.00000000000000000 0.00000000000000000 
2 14.30000000000002203 -3.99999999999994271 0.00000000000000000 0.00000000000000000 0.00000000000000000 -1.00000000000000000 0.00000000000000000 1.00000000000000000 0.00000000000000000 1.00000000000000000 -0.00000000000000000 0.00000000000000000 2.00000000000000000
6 0 1 14.30000000000002203 0.00000000000005684 0.00000000000000000  14.30000000000002203 -1.99999999999994271 0.00000000000000000  
7 0 0  1 2 2  14.30000000000002380 0.00000000000005684 1594.00000000000000000  14.30000000000002203 -1.99999999999994227 1594.00000000000000000 
 0.00000000000000000 2 1.00000000000000000 2
2 14.30000000000002203 -3.99999999999994271 1594.00000000000000000 0.00000000000000000 0.00000000000000000 -1.00000000000000000 0.00000000000000000 1.00000000000000000 0.00000000000000000 1.00000000000000000 -0.00000000000000000 0.00000000000000000 2.00000000000000000
1 16.30000000000002203 -3.99999999999994271 0.00000000000000000 0.00000000000000000 0.00000000000000000 1.00000000000000000 
1 -18.29999999999997939 -3.99999999999994316 0.00000000000000000 0.00000000000000000 0.00000000000000000 1.00000000000000000 
2 -14.29999999999997939 -3.99999999999994316 0.00000000000000000 0.00000000000000000 0.00000000000000000 -1.00000000000000000 0.00000000000000022 1.00000000000000000 0.00000000000000000 1.00000000000000000 -0.00000000000000022 0.00000000000000000 4.00000000000000000
1 -18.29999999999997939 -1.99999999999994316 0.00000000000000000 1.00000000000000000 0.00000000000000000 0.00000000000000000 
6 0 1 -14.29999999999997939 0.00000000000005684 0.00000000000000000  -14.29999999999997939 -1.99999999999994316 0.00000000000000000  
6 0 1 -14.29999999999997939 0.00000000000005684 1594.00000000000000000  -14.29999999999997939 -1.99999999999994316 1594.00000000000000000  
1 -18.29999999999997939 -1.99999999999994316 1594.00000000000000000 1.00000000000000000 0.00000000000000000 0.00000000000000000 
1 14.30000000000002203 -1.99999999999994271 0.00000000000000000 -0.00000000000000000 -0.00000000000000000 1.00000000000000000 
1 -18.29999999999997939 -18.99999999999990763 0.00000000000000000 0.00000000000000000 0.00000000000000000 1.00000000000000000 
1 -18.29999999999997939 -18.99999999999990763 0.00000000000000000 0.00000000000000000 1.00000000000000000 0.00000000000000000 
2 -14.29999999999997939 -3.99999999999994316 0.00000000000000000 0.00000000000000000 0.00000000000000000 -1.00000000000000000 0.00000000000000022 1.00000000000000000 0.00000000000000000 1.00000000000000000 -0.00000000000000022 0.00000000000000000 2.00000000000000000
6 0 1 -18.29999999999997939 -3.99999999999994316 0.00000000000000000  -16.29999999999997939 -3.99999999999994316 0.00000000000000000  
7 0 0  1 2 2  -18.29999999999998295 -3.99999999999994182 1594.00000000000000000  -16.29999999999997939 -3.99999999999994182 1594.00000000000000000 
 0.00000000000000000 2 1.00000000000000000 2
2 -14.29999999999997939 -3.99999999999994316 1594.00000000000000000 0.00000000000000000 0.00000000000000000 -1.00000000000000000 0.00000000000000022 1.00000000000000000 0.00000000000000000 1.00000000000000000 -0.00000000000000022 0.00000000000000000 2.00000000000000000
1 -14.29999999999997939 -1.99999999999994316 0.00000000000000000 0.00000000000000000 0.00000000000000000 1.00000000000000000 
6 0 1 -18.29999999999997939 -18.99999999999990763 0.00000000000000000  -16.29999999999997939 -18.99999999999990763 0.00000000000000000  
1 -16.29999999999997939 -18.99999999999990763 0.00000000000000000 0.00000000000000000 0.00000000000000000 1.00000000000000000 
6 0 1 -18.29999999999997939 -18.99999999999990763 1594.00000000000000000  -16.29999999999997939 -18.99999999999990763 1594.00000000000000000  
1 -16.29999999999997939 -18.99999999999990763 0.00000000000000000 0.00000000000000000 1.00000000000000000 0.00000000000000000 
1 -16.29999999999997939 -18.99999999999990763 1594.00000000000000000 0.00000000000000000 1.00000000000000000 0.00000000000000000 
1 -16.29999999999997939 -3.99999999999994316 0.00000000000000000 -0.00000000000000000 -0.00000000000000000 1.00000000000000000 
Polygon3D 0
PolygonOnTriangulations 0
Surfaces 35
1 18.30000000000002203 -3.99999999999994271 0.00000000000000000 1.00000000000000000 0.00000000000000000 -0.00000000000000000 0.00000000000000000 -1.00000000000000000 0.00000000000000000 0.00000000000000000 -0.00000000000000000 -1.00000000000000000 
2 14.30000000000002203 -3.99999999999994271 0.00000000000000000 0.00000000000000000 0.00000000000000000 -1.00000000000000000 0.00000000000000000 1.00000000000000000 0.00000000000000000 1.00000000000000000 -0.00000000000000000 0.00000000000000000 4.00000000000000000
1 16.30000000000002203 -3.99999999999994271 0.00000000000000000 -0.00000000000000000 -1.00000000000000000 -0.00000000000000000 -0.00000000000000000 0.00000000000000000 1.00000000000000000 -1.00000000000000000 0.00000000000000000 -0.00000000000000000 
1 16.30000000000002203 -3.99999999999994271 0.00000000000000000 0.00000000000000000 1.00000000000000000 -0.00000000000000000 0.00000000000000000 -0.00000000000000000 -1.00000000000000000 -1.00000000000000000 0.00000000000000000 -0.00000000000000000 
1 18.30000000000002203 0.00000000000005684 0.00000000000000000 1.00000000000000000 0.00000000000000000 -0.00000000000000000 0.00000000000000000 -1.00000000000000000 0.00000000000000000 0.00000000000000000 -0.00000000000000000 -1.00000000000000000 
1 16.30000000000002203 0.00000000000005684 1594.00000000000000000 0.00000000000000000 0.00000000000000000 1.00000000000000000 -0.00000000000000000 1.00000000000000000 0.00000000000000000 -1.00000000000000000 -0.00000000000000000 0.00000000000000000 
1 16.30000000000002203 0.00000000000005684 0.00000000000000000 -0.00000000000000000 -0.00000000000000000 -1.00000000000000000 0.00000000000000000 -1.00000000000000000 0.00000000000000000 -1.00000000000000000 0.00000000000000000 0.00000000000000000 
1 -14.29999999999997939 0.00000000000005684 0.00000000000000000 0.00000000000000000 1.00000000000000000 0.00000000000000000 1.00000000000000000 0.00000000000000000 0.00000000000000000 0.00000000000000000 0.00000000000000000 -1.00000000000000000 
1 14.30000000000002203 -1.99999999999994316 0.00000000000000000 1.00000000000000000 0.00000000000000000 -0.00000000000000000 0.00000000000000000 0.00000000000000000 1.00000000000000000 0.00000000000000000 -1.00000000000000000 0.00000000000000000 
1 14.30000000000002203 -1.99999999999994271 0.00000000000000000 -1.00000000000000000 -0.00000000000000000 -0.00000000000000000 0.00000000000000000 0.00000000000000000 -1.00000000000000000 0.00000000000000000 -1.00000000000000000 0.00000000000000000 
2 14.30000000000002203 -3.99999999999994271 1594.00000000000000000 -0.00000000000000000 0.00000000000000000 -1.00000000000000000 0.00000000000000000 1.00000000000000000 0.00000000000000000 1.00000000000000000 0.00000000000000000 -0.00000000000000000 4.00000000000000000
9 0 0 0 0 8 1 9 2 2 2 18.30000000000000782 -3.99999999999994094 1593.99999999999886313  16.30000000000001137 -3.99999999999994005 1593.99999999999886313  
18.29999999999971649 -3.21460183660247134 1593.99999999998226485  16.29999999999978044 -3.60730091830116351 1593.99999999998226485  
18.12375684415623311 -2.42920342598317207 1594.00000000005911716  16.21187842207842422 -3.21460171299170394 1594.00000000005911716  
17.77127226348395794 -1.68994706265954342 1593.99999999990222932  16.03563613174145530 -2.84497353132949193 1593.99999999990222932  
17.25703502312157411 -1.04296497688053935 1594.00000000010095391  15.77851751156142512 -2.52148248844051848 1594.00000000010095391  
16.61005293733877863 -0.52872773651409810 1593.99999999992701305  15.45502646866888874 -2.26436386825681124 1593.99999999992701305  
15.87079657401761779 -0.17624315584481318 1594.00000000003569767  15.08539828700909524 -2.08812157792248199 1594.00000000003569767  
15.08539816339726691 0.00000000000007052 1593.99999999999067768  14.69269908169856720 -1.99999999999990719 1593.99999999999067768  
14.30000000000002380 0.00000000000005684 1594.00000000000000000  14.30000000000002203 -1.99999999999994227 1594.00000000000000000  

4.71238898038468967 9
6.28318530717958623 9

0.00000000000000000 2
1.00000000000000000 2

9 0 0 0 0 8 1 9 2 2 2 14.30000000000002203 0.00000000000005729 0.00000000000000000  14.30000000000002203 -1.99999999999994227 0.00000000000000000  
15.08539816339747475 0.00000000000006002 0.00000000000000000  14.69269908169873062 -1.99999999999994382 0.00000000000000000  
15.87079657401683619 -0.17624315584476330 0.00000000000000000  15.08539828700848417 -2.08812157792234787 0.00000000000000000  
16.61005293734038801 -0.52872773651420268 0.00000000000000000  15.45502646867004337 -2.26436386825707991 0.00000000000000000  
17.25703502311940341 -1.04296497688039924 0.00000000000000000  15.77851751156000049 -2.52148248844016498 0.00000000000000000  
17.77127226348591904 -1.68994706265966799 0.00000000000000000  16.03563613174267033 -2.84497353132980901 0.00000000000000000  
18.12375684415510335 -2.42920342598309613 0.00000000000000000  16.21187842207773855 -3.21460171299151831 0.00000000000000000  
18.30000000000005400 -3.21460183660249266 0.00000000000000000  16.29999999999998295 -3.60730091830121724 0.00000000000000000  
18.30000000000002203 -3.99999999999994227 0.00000000000000000  16.30000000000002203 -3.99999999999994227 0.00000000000000000  

0.00000000000000000 9
1.57079632679489656 9

0.00000000000000000 2
1.00000000000000000 2

1 16.30000000000002203 -18.99999999999990763 0.00000000000000000 0.00000000000000000 -1.00000000000000000 0.00000000000000000 0.00000000000000000 0.00000000000000000 1.00000000000000000 -1.00000000000000000 0.00000000000000000 0.00000000000000000 
1 16.30000000000002203 -3.99999999999994271 0.00000000000000000 1.00000000000000000 0.00000000000000000 -0.00000000000000000 0.00000000000000000 -1.00000000000000000 0.00000000000000000 0.00000000000000000 -0.00000000000000000 -1.00000000000000000 
2 -14.29999999999997939 -3.99999999999994316 0.00000000000000000 0.00000000000000000 0.00000000000000000 -1.00000000000000000 0.00000000000000022 1.00000000000000000 0.00000000000000000 1.00000000000000000 -0.00000000000000022 0.00000000000000000 4.00000000000000000
1 -14.29999999999997939 -1.99999999999994316 0.00000000000000000 1.00000000000000000 0.00000000000000000 0.00000000000000000 0.00000000000000000 -0.00000000000000000 1.00000000000000000 0.00000000000000000 -1.00000000000000000 -0.00000000000000000 
1 -14.29999999999997939 -1.99999999999994316 0.00000000000000000 -1.00000000000000000 0.00000000000000000 0.00000000000000000 0.00000000000000000 0.00000000000000000 -1.00000000000000000 -0.00000000000000000 -1.00000000000000000 -0.00000000000000000 
1 -18.29999999999997939 0.00000000000005684 0.00000000000000000 0.00000000000000000 1.00000000000000000 0.00000000000000000 1.00000000000000000 0.00000000000000000 0.00000000000000000 0.00000000000000000 0.00000000000000000 -1.00000000000000000 
1 -18.29999999999997939 -1.99999999999994316 1594.00000000000000000 -0.00000000000000000 0.00000000000000000 1.00000000000000000 -1.00000000000000000 0.00000000000000000 -0.00000000000000000 -0.00000000000000000 -1.00000000000000000 0.00000000000000000 
1 -18.29999999999997939 -1.99999999999994316 0.00000000000000000 0.00000000000000000 0.00000000000000000 -1.00000000000000000 1.00000000000000000 0.00000000000000000 0.00000000000000000 0.00000000000000000 -1.00000000000000000 0.00000000000000000 
2 14.30000000000002203 -3.99999999999994271 0.00000000000000000 0.00000000000000000 0.00000000000000000 -1.00000000000000000 0.00000000000000000 1.00000000000000000 0.00000000000000000 1.00000000000000000 -0.00000000000000000 0.00000000000000000 2.00000000000000000
1 -18.29999999999997939 -18.99999999999990763 0.00000000000000000 -1.00000000000000000 0.00000000000000000 0.00000000000000000 0.00000000000000000 1.00000000000000000 0.00000000000000000 0.00000000000000000 0.00000000000000000 -1.00000000000000000 
1 -16.29999999999997939 -3.99999999999994316 0.00000000000000000 0.00000000000000000 1.00000000000000000 0.00000000000000000 0.00000000000000000 -0.00000000000000000 1.00000000000000000 1.00000000000000000 0.00000000000000000 -0.00000000000000000 
1 -16.29999999999997939 -3.99999999999994316 0.00000000000000000 0.00000000000000000 -1.00000000000000000 0.00000000000000000 0.00000000000000000 0.00000000000000000 -1.00000000000000000 1.00000000000000000 0.00000000000000000 0.00000000000000000 
2 -14.29999999999997939 -3.99999999999994271 1594.00000000000000000 0.00000000000000000 0.00000000000000000 -1.00000000000000000 -1.00000000000000000 0.00000000000000000 0.00000000000000000 0.00000000000000000 1.00000000000000000 0.00000000000000000 4.00000000000000000
9 0 0 0 0 8 1 9 2 2 2 -14.29999999999998295 0.00000000000005729 1594.00000000000000000  -14.29999999999997939 -1.99999999999994271 1594.00000000000000000  
-15.08539816339741435 0.00000000000005646 1594.00000000000159162  -14.69269908169866845 -1.99999999999994005 1594.00000000000159162  
-15.87079657401682908 -0.17624315584475309 1593.99999999999454303  -15.08539828700848773 -2.08812157792235897 1593.99999999999454303  
-16.61005293734032406 -0.52872773651422222 1594.00000000001182343  -15.45502646866998653 -2.26436386825705815 1594.00000000001182343  
-17.25703502311935367 -1.04296497688037126 1593.99999999998453859  -15.77851751155987259 -2.52148248844019074 1593.99999999998453859  
-17.77127226348590128 -1.68994706265969596 1594.00000000001296030  -16.03563613174275559 -2.84497353132978681 1594.00000000001296030  
-18.12375684415505361 -2.42920342598307570 1593.99999999999272404  -16.21187842207762841 -3.21460171299152897 1593.99999999999272404  
-18.30000000000001492 -3.21460183660250065 1594.00000000000204636  -16.29999999999995808 -3.60730091830121458 1594.00000000000204636  
-18.29999999999998295 -3.99999999999994182 1594.00000000000000000  -16.29999999999997939 -3.99999999999994182 1594.00000000000000000  

0.00000000000000000 9
1.57079632679489656 9

0.00000000000000000 2
1.00000000000000000 2

9 0 0 0 0 8 1 9 2 2 2 -18.29999999999996518 -3.99999999999994049 0.00000000000000000  -16.29999999999996874 -3.99999999999994049 0.00000000000000000  
-18.29999999999981242 -3.21460183660247711 0.00000000000000000  -16.29999999999982663 -3.60730091830117372 0.00000000000000000  
-18.12375684415572508 -2.42920342598314942 0.00000000000000000  -16.21187842207807961 -3.21460171299166975 0.00000000000000000  
-17.77127226348474665 -1.68994706265957517 0.00000000000000000  -16.03563613174200952 -2.84497353132954611 0.00000000000000000  
-17.25703502312061488 -1.04296497688051093 0.00000000000000000  -15.77851751156061866 -2.52148248844045852 0.00000000000000000  
-16.61005293733938970 -0.52872773651411442 0.00000000000000000  -15.45502646866950336 -2.26436386825686009 0.00000000000000000  
-15.87079657401727317 -0.17624315584480640 0.00000000000000000  -15.08539828700869023 -2.08812157792245934 0.00000000000000000  
-15.08539816339730955 0.00000000000006920 0.00000000000000000  -14.69269908169863470 -1.99999999999991385 0.00000000000000000  
-14.29999999999997939 0.00000000000005707 0.00000000000000000  -14.29999999999997939 -1.99999999999994316 0.00000000000000000  

4.71238898038468967 9
6.28318530717958623 9

0.00000000000000000 2
1.00000000000000000 2

1 -14.29999999999997939 -1.99999999999994316 0.00000000000000000 0.00000000000000000 1.00000000000000000 0.00000000000000000 1.00000000000000000 0.00000000000000000 0.00000000000000000 0.00000000000000000 0.00000000000000000 -1.00000000000000000 
1 -18.29999999999997939 -18.99999999999990763 0.00000000000000000 -1.00000000000000000 0.00000000000000000 0.00000000000000000 0.00000000000000000 1.00000000000000000 0.00000000000000000 0.00000000000000000 0.00000000000000000 -1.00000000000000000 
1 -16.29999999999997939 -18.99999999999990763 1594.00000000000000000 0.00000000000000000 0.00000000000000000 1.00000000000000000 0.00000000000000000 -1.00000000000000000 0.00000000000000000 1.00000000000000000 0.00000000000000000 -0.00000000000000000 
1 -16.29999999999997939 -18.99999999999990763 0.00000000000000000 0.00000000000000000 0.00000000000000000 -1.00000000000000000 0.00000000000000000 1.00000000000000000 0.00000000000000000 1.00000000000000000 -0.00000000000000000 0.00000000000000000 
2 -14.29999999999997939 -3.99999999999994316 0.00000000000000000 0.00000000000000000 0.00000000000000000 -1.00000000000000000 0.00000000000000022 1.00000000000000000 0.00000000000000000 1.00000000000000000 -0.00000000000000022 0.00000000000000000 2.00000000000000000
1 -16.29999999999997939 -18.99999999999990763 0.00000000000000000 0.00000000000000000 -1.00000000000000000 0.00000000000000000 -0.00000000000000000 -0.00000000000000000 -1.00000000000000000 1.00000000000000000 0.00000000000000000 -0.00000000000000000 
1 -16.29999999999997939 -18.99999999999990763 0.00000000000000000 -1.00000000000000000 0.00000000000000000 0.00000000000000000 0.00000000000000000 1.00000000000000000 0.00000000000000000 0.00000000000000000 0.00000000000000000 -1.00000000000000000 
Triangulations 0

TShapes 104
Ve
0.001000000000000
18.300000000000022 -3.999999999999943 0.000000000000000
0 0

0101101
*
Ed
 0.001000000000000 1 1 0
1  1 0 0.000000000000000 1594.000000000000000
2  1 2 0 0.000000000000000 1594.000000000000000
4 G1 1 0 2 0
2  2 3 0 0.000000000000000 1594.000000000000000
2  3 4 0 0.000000000000000 1594.000000000000000
2  4 1 0 0.000000000000000 1594.000000000000000
0

0101000
+104 0 -104 2 *
Ve
0.001000000000000
18.300000000000022 -18.999999999999908 0.000000000000000
0 0

0101101
*
Ed
 0.001000000000000 1 1 0
1  2 0 0.000000000000000 1594.000000000000000
2  5 1 0 0.000000000000000 1594.000000000000000
0

0101000
+102 0 -102 2 *
Ed
 0.001000000000000 1 1 0
2  6 5 0 4.000000000000000 18.999999999999964
1  3 0 4.000000000000000 18.999999999999964
2  7 6 3 4.000000000000000 18.999999999999964
2  8 7 0 4.000000000000000 18.999999999999964
2  9 1 0 4.000000000000000 18.999999999999964
2  10 1 3 4.000000000000000 18.999999999999964
0

0101000
+104 0 -102 0 *
Wi

0101100
+103 0 -101 0 -100 0 +100 2 *
Fa
0  0.001000000000000 1 0

0111000
+99 0 *
Ve
0.001000000000000
14.300000000000022 0.000000000000057 0.000000000000000
0 0

0101101
*
Ed
 0.001000000000000 1 1 0
1  4 0 0.000000000000000 1594.000000000000000
2  11 2 0 0.000000000000000 1594.000000000000000
4 G1 2 0 8 0
2  12 9 0 0.000000000000000 1594.000000000000000
2  13 10 0 0.000000000000000 1594.000000000000000
2  14 8 0 0.000000000000000 1594.000000000000000
0

0101000
+97 0 -97 2 *
Ed
 0.000000100000000 1 1 0
2  15 11 0 0.000000000000000 1.570796326794897
1  5 0 0.000000000000000 1.570796326794897
2  16 2 0 0.000000000000000 1.570796326794897
2  17 2 3 0.000000000000000 1.570796326794897
2  18 12 3 0.000000000000000 1.570796326794897
2  19 13 0 0.000000000000000 1.570796326794897
0

0101000
+97 0 -104 0 *
Wi

0101100
+96 0 -103 0 -95 0 +95 2 *
Fa
0  0.000000100000000 2 0

0111000
+94 0 *
Ve
0.001000000000000
16.300000000000022 -18.999999999999908 1594.000000000000000
0 0

0101101
*
Ed
 0.000000100000000 1 1 0
1  6 0 0.000000000000000 1.000000000000000
4 C0 14 0 6 0
2  20 6 0 0.000000000000000 1.000000000000000
0

0101000
+102 2 -92 0 *
Ve
0.001000000000000
16.300000000000022 -18.999999999999908 0.000000000000000
0 0

0101101
*
Ed
 0.001000000000000 1 1 0
2  21 15 0 0.000000000000000 1594.000000000000000
1  7 0 0.000000000000000 1594.000000000000000
0

0101000
+90 0 -92 0 *
Ed
 0.000000100000000 1 1 0
1  8 0 0.000000000000000 1.000000000000000
4 C0 14 0 7 0
2  22 7 0 0.000000000000000 1.000000000000000
0

0101000
+102 0 -90 0 *
Wi

0101000
+101 0 +91 0 -89 0 -88 0 *
Fa
0  0.000000100000000 14 0

0111000
+87 0 *
Ve
0.001000000000000
16.300000000000022 -3.999999999999943 0.000000000000000
0 0

0101101
*
Ed
 0.001000000000000 1 1 0
2  23 15 0 4.000000000000000 18.999999999999964
1  9 0 4.000000000000000 18.999999999999964
2  24 7 0 4.000000000000000 18.999999999999964
0

0101000
+85 0 -90 0 *
Ed
 0.000000100000000 1 1 0
1  10 0 0.000000000000000 1.000000000000000
4 C0 4 0 7 0
2  25 4 0 0.000000000000000 1.000000000000000
2  26 7 0 0.000000000000000 1.000000000000000
2  27 13 0 0.000000000000000 1.000000000000000
0

0101000
+104 0 -85 0 *
Wi

0101100
+100 0 +88 0 -84 0 -83 0 *
Fa
0  0.000000100000000 7 0

0111000
+82 0 *
Ve
0.001000000000000
16.300000000000022 -3.999999999999943 1594.000000000000000
0 0

0101101
*
Ed
 0.000000100000000 1 1 0
1  11 0 0.000000000000000 1.000000000000000
4 C0 6 0 4 0
2  28 6 0 0.000000000000000 1.000000000000000
2  29 4 0 0.000000000000000 1.000000000000000
2  30 12 0 0.000000000000000 1.000000000000000
0

0101000
+104 2 -80 0 *
Ed
 0.001000000000000 1 1 0
2  31 15 0 4.000000000000000 18.999999999999964
1  12 0 4.000000000000000 18.999999999999964
2  32 6 0 4.000000000000000 18.999999999999964
0

0101000
+80 0 -92 0 *
Wi

0101100
-100 2 +79 0 +78 0 -91 0 *
Fa
0  0.000000100000000 6 0

0111000
+77 0 *
Ve
0.001000000000000
-14.299999999999979 0.000000000000057 0.000000000000000
0 0

0101101
*
Ed
 0.001000000000000 1 1 0
1  13 0 0.000000000000000 1594.000000000000000
2  33 16 0 0.000000000000000 1594.000000000000000
4 G1 8 0 16 0
2  34 17 0 0.000000000000000 1594.000000000000000
2  35 18 0 0.000000000000000 1594.000000000000000
2  36 8 0 0.000000000000000 1594.000000000000000
0

0101000
+75 0 -75 2 *
Ed
 0.001000000000000 1 1 0
2  37 19 0 4.000000000000000 32.600000000000001
1  14 0 4.000000000000000 32.600000000000001
2  38 20 3 4.000000000000000 32.600000000000001
2  39 21 0 4.000000000000000 32.600000000000001
2  40 8 0 4.000000000000000 32.600000000000001
2  41 8 3 4.000000000000000 32.600000000000001
0

0101000
+75 0 -97 0 *
Wi

0101100
+74 0 -96 0 -73 0 +73 2 *
Fa
0  0.001000000000000 8 0

0111000
+72 0 *
Ve
0.001000000000000
14.300000000000022 -1.999999999999943 0.000000000000000
0 0

0101101
*
Ed
 0.000000100000000 1 1 0
2  16 22 0 0.000000000000000 1.570796326794897
1  15 0 0.000000000000000 1.570796326794897
2  42 13 0 0.000000000000000 1.570796326794897
0

0101000
+70 0 -85 0 *
Ed
 0.000000100000000 1 1 0
1  16 0 0.000000000000000 1.000000000000000
2  43 13 0 0.000000000000000 1.000000000000000
4 C0 10 0 13 0
2  44 10 0 0.000000000000000 1.000000000000000
0

0101000
+97 0 -70 0 *
Wi

0101100
+95 0 +83 0 -69 0 -68 0 *
Fa
0  0.000000100000000 13 0

0111000
+67 0 *
Ve
0.001000000000000
14.300000000000022 -1.999999999999943 1594.000000000000000
0 0

0101101
*
Ed
 0.000000100000002 1 1 0
1  17 0 0.000000000000000 1.000000000000000
2  45 12 0 0.000000000000000 1.000000000000000
4 C0 12 0 10 0
2  46 10 0 0.000000000000000 1.000000000000000
2  47 20 0 0.000000000000000 1.000000000000000
0

0101000
+97 2 -65 0 *
Ed
 0.000000100000000 1 1 0
2  17 22 0 0.000000000000000 1.570796326794897
1  18 0 0.000000000000000 1.570796326794897
2  48 12 0 0.000000000000000 1.570796326794897
0

0101000
+65 0 -80 0 *
Wi

0101100
-95 2 +64 0 +63 0 -79 0 *
Fa
0  0.000000100000000 12 0

0111000
+62 0 *
Ed
 0.001000000000000 1 1 0
2  49 15 0 0.000000000000000 1594.000000000000000
1  19 0 0.000000000000000 1594.000000000000000
2  50 4 0 0.000000000000000 1594.000000000000000
2  51 22 0 0.000000000000000 1594.000000000000000
0

0101000
+85 0 -80 0 *
Wi

0101100
+60 0 -89 0 -84 0 +78 0 *
Fa
0  0.001000000000000 15 0

0111000
+59 0 *
Ve
0.001000000000000
-18.299999999999979 -3.999999999999943 0.000000000000000
0 0

0101101
*
Ed
 0.001000000000000 1 1 0
1  20 0 0.000000000000000 1594.000000000000000
2  52 16 0 0.000000000000000 1594.000000000000000
4 G1 16 0 23 0
2  53 24 0 0.000000000000000 1594.000000000000000
2  54 25 0 0.000000000000000 1594.000000000000000
2  55 23 0 0.000000000000000 1594.000000000000000
0

0101000
+57 0 -57 2 *
Ed
 0.000000100000000 1 1 0
2  56 26 0 4.712388980384690 6.283185307179586
1  21 0 4.712388980384690 6.283185307179586
2  57 16 0 4.712388980384690 6.283185307179586
2  58 16 3 4.712388980384690 6.283185307179586
2  59 27 3 4.712388980384690 6.283185307179586
2  60 28 0 4.712388980384690 6.283185307179586
0

0101000
+57 0 -75 0 *
Wi

0101100
+56 0 -74 0 -55 0 +55 2 *
Fa
0  0.000000100000000 16 0

0111000
+54 0 *
Ve
0.001000000000000
-14.299999999999979 -1.999999999999943 0.000000000000000
0 0

0101101
*
Ed
 0.001000000000000 1 1 0
2  61 29 0 4.000000000000000 32.600000000000001
1  22 0 4.000000000000000 32.600000000000001
2  62 21 0 4.000000000000000 32.600000000000001
0

0101000
+52 0 -70 0 *
Ed
 0.000000100000000 1 1 0
1  23 0 0.000000000000000 1.000000000000000
4 C0 18 0 21 0
2  63 21 0 0.000000000000000 1.000000000000000
2  64 18 0 0.000000000000000 1.000000000000000
2  65 28 0 0.000000000000000 1.000000000000000
0

0101000
+75 0 -52 0 *
Wi

0101100
+73 0 +68 0 -51 0 -50 0 *
Fa
0  0.000000100000000 21 0

0111000
+49 0 *
Ve
0.001000000000000
-14.299999999999979 -1.999999999999943 1594.000000000000000
0 0

0101101
*
Ed
 0.000000100000000 1 1 0
1  24 0 0.000000000000000 1.000000000000000
4 C0 20 0 18 0
2  66 20 0 0.000000000000000 1.000000000000000
2  67 18 0 0.000000000000000 1.000000000000000
2  68 27 0 0.000000000000000 1.000000000000000
0

0101000
+75 2 -47 0 *
Ed
 0.001000000000000 1 1 0
2  69 29 0 4.000000000000000 32.600000000000001
1  25 0 4.000000000000000 32.600000000000001
2  70 20 0 4.000000000000000 32.600000000000001
0

0101000
+47 0 -65 0 *
Wi

0101100
-73 2 +46 0 +45 0 -64 0 *
Fa
0  0.000000100000000 20 0

0111000
+44 0 *
Ed
 0.001000000000000 1 1 0
2  11 22 0 0.000000000000000 1594.000000000000000
1  26 0 0.000000000000000 1594.000000000000000
2  71 10 0 0.000000000000000 1594.000000000000000
2  72 29 0 0.000000000000000 1594.000000000000000
0

0101000
+70 0 -65 0 *
Wi

0101100
+42 0 -60 0 -69 0 +63 0 *
Fa
0  0.000000100000000 22 0

0111000
+41 0 *
Ve
0.001000000000000
-18.299999999999979 -18.999999999999908 0.000000000000000
0 0

0101101
*
Ed
 0.001000000000000 1 1 0
1  27 0 0.000000000000000 1594.000000000000000
2  73 23 0 0.000000000000000 1594.000000000000000
0

0101000
+39 0 -39 2 *
Ed
 0.001000000000000 1 1 0
2  74 30 0 0.000000000000000 14.999999999999964
1  28 0 0.000000000000000 14.999999999999964
2  75 31 3 0.000000000000000 14.999999999999964
2  76 32 0 0.000000000000000 14.999999999999964
2  77 23 0 0.000000000000000 14.999999999999964
2  78 23 3 0.000000000000000 14.999999999999964
0

0101000
+39 0 -57 0 *
Wi

0101100
+38 0 -56 0 -37 0 +37 2 *
Fa
0  0.001000000000000 23 0

0111000
+36 0 *
Ve
0.001000000000000
-16.299999999999979 -3.999999999999943 0.000000000000000
0 0

0101101
*
Ed
 0.000000100000000 1 1 0
2  57 33 0 4.712388980384690 6.283185307179586
1  29 0 4.712388980384690 6.283185307179586
2  79 28 0 4.712388980384690 6.283185307179586
0

0101000
+34 0 -52 0 *
Ed
 0.000000100000000 1 1 0
1  30 0 0.000000000000000 1.000000000000000
2  80 28 0 0.000000000000000 1.000000000000000
4 C0 25 0 28 0
2  81 25 0 0.000000000000000 1.000000000000000
0

0101000
+57 0 -34 0 *
Wi

0101100
+55 0 +50 0 -33 0 -32 0 *
Fa
0  0.000000100000000 28 0

0111000
+31 0 *
Ve
0.001000000000000
-16.299999999999979 -3.999999999999943 1594.000000000000000
0 0

0101101
*
Ed
 0.000000100000001 1 1 0
1  31 0 0.000000000000000 1.000000000000000
2  82 27 0 0.000000000000000 1.000000000000000
4 C0 27 0 25 0
2  83 25 0 0.000000000000000 1.000000000000000
2  84 31 0 0.000000000000000 1.000000000000000
0

0101000
+57 2 -29 0 *
Ed
 0.000000100000000 1 1 0
2  58 33 0 4.712388980384690 6.283185307179586
1  32 0 4.712388980384690 6.283185307179586
2  85 27 0 4.712388980384690 6.283185307179586
0

0101000
+29 0 -47 0 *
Wi

0101100
-55 2 +28 0 +27 0 -46 0 *
Fa
0  0.000000100000000 27 0

0111000
+26 0 *
Ed
 0.001000000000000 1 1 0
2  86 29 0 0.000000000000000 1594.000000000000000
1  33 0 0.000000000000000 1594.000000000000000
2  87 18 0 0.000000000000000 1594.000000000000000
2  88 33 0 0.000000000000000 1594.000000000000000
0

0101000
+52 0 -47 0 *
Wi

0101100
+24 0 -42 0 -51 0 +45 0 *
Fa
0  0.001000000000000 29 0

0111000
+23 0 *
Ve
0.001000000000000
-16.299999999999979 -18.999999999999908 0.000000000000000
0 0

0101101
*
Ed
 0.000000100000000 1 1 0
1  34 0 0.000000000000000 1.000000000000000
4 C0 34 0 32 0
2  89 32 0 0.000000000000000 1.000000000000000
0

0101000
+39 0 -21 0 *
Ve
0.001000000000000
-16.299999999999979 -18.999999999999908 1594.000000000000000
0 0

0101101
*
Ed
 0.001000000000000 1 1 0
2  90 35 0 0.000000000000000 1594.000000000000000
1  35 0 0.000000000000000 1594.000000000000000
0

0101000
+21 0 -19 0 *
Ed
 0.000000100000000 1 1 0
1  36 0 0.000000000000000 1.000000000000000
4 C0 31 0 34 0
2  91 31 0 0.000000000000000 1.000000000000000
0

0101000
+39 2 -19 0 *
Wi

0101000
-38 0 +20 0 +18 0 -17 0 *
Fa
0  0.000000100000000 34 0

0111000
+16 0 *
Ed
 0.001000000000000 1 1 0
2  92 35 0 0.000000000000000 14.999999999999964
1  37 0 0.000000000000000 14.999999999999964
2  93 32 0 0.000000000000000 14.999999999999964
0

0101000
+21 0 -34 0 *
Wi

0101100
+37 0 +32 0 -14 0 -20 0 *
Fa
0  0.000000100000000 32 0

0111000
+13 0 *
Ed
 0.001000000000000 1 1 0
2  94 35 0 0.000000000000000 14.999999999999964
1  38 0 0.000000000000000 14.999999999999964
2  95 31 0 0.000000000000000 14.999999999999964
0

0101000
+19 0 -29 0 *
Wi

0101100
-37 2 +17 0 +11 0 -28 0 *
Fa
0  0.000000100000000 31 0

0111000
+10 0 *
Ed
 0.001000000000000 1 1 0
2  52 33 0 0.000000000000000 1594.000000000000000
1  39 0 0.000000000000000 1594.000000000000000
2  96 25 0 0.000000000000000 1594.000000000000000
2  97 35 0 0.000000000000000 1594.000000000000000
0

0101000
+34 0 -29 0 *
Wi

0101100
+8 0 -24 0 -33 0 +27 0 *
Fa
0  0.000000100000000 33 0

0111000
+7 0 *
Wi

0101100
+18 0 -8 0 -14 0 +11 0 *
Fa
0  0.001000000000000 35 0

0111000
+5 0 *
Sh

0101100
+98 0 +93 0 +86 0 +81 0 +76 0 +71 0 +66 0 +61 0 -58 0 +53 0 
+48 0 +43 0 -40 0 +35 0 +30 0 +25 0 -22 0 +15 0 +12 0 +9 0 
-6 0 -4 0 *
So

0100000
+3 0 *
Co

1100000
+2 0 *

+1 1 