
CASCADE Topology V1, (c) Matra-Datavision
Locations 17
1
1.000000000000000 0.000000000000000 0.000000000000000 0.000000000000000 
0.000000000000000 1.000000000000000 0.000000000000000 0.000000000000000 
0.000000000000000 0.000000000000000 1.000000000000000 0.000000000000000 
1
1.000000000000000 0.000000000000000 0.000000000000000 0.000000000000000 
0.000000000000000 1.000000000000000 0.000000000000000 0.000000000000000 
0.000000000000000 0.000000000000000 1.000000000000000 0.000000000000000 
1
1.000000000000000 0.000000000000000 0.000000000000000 0.000000000000000 
0.000000000000000 1.000000000000000 0.000000000000000 0.000000000000000 
0.000000000000000 0.000000000000000 1.000000000000000 0.000000000000000 
2  2 1 3 -1 0
1
1.000000000000000 0.000000000000000 0.000000000000000 0.000000000000000 
0.000000000000000 1.000000000000000 0.000000000000000 0.000000000000000 
0.000000000000000 0.000000000000000 1.000000000000000 0.000000000000000 
1
1.000000000000000 0.000000000000000 0.000000000000000 0.000000000000000 
0.000000000000000 1.000000000000000 0.000000000000000 0.000000000000000 
0.000000000000000 0.000000000000000 1.000000000000000 0.000000000000000 
1
1.000000000000000 0.000000000000000 0.000000000000000 0.000000000000000 
0.000000000000000 1.000000000000000 0.000000000000000 0.000000000000000 
0.000000000000000 0.000000000000000 1.000000000000000 0.000000000000000 
2  5 1 6 1 7 -1 0
1
1.000000000000000 0.000000000000000 0.000000000000000 0.000000000000000 
0.000000000000000 1.000000000000000 0.000000000000000 0.000000000000000 
0.000000000000000 0.000000000000000 1.000000000000000 6.000000000000000 
2  5 1 6 1 7 -1 9 1 0
2  7 1 6 -1 5 -1 0
2  9 -1 7 1 6 -1 5 -1 0
2  6 -1 5 -1 0
2  7 -1 2 1 3 -1 0
2  5 1 6 1 7 -1 2 1 3 -1 0
2  7 -1 9 1 2 1 3 -1 0
2  5 1 6 1 7 -1 9 1 2 1 3 -1 0
Curve2ds 48
1 3.14159265358979356 0.00000000000000000 0.00000000000000000 -1.00000000000000000 
1 4.71238898038468967 0.00000000000000000 0.00000000000000000 -1.00000000000000000 
1 0.00000000000000000 0.00000000000000000 1.00000000000000000 0.00000000000000000 
1 0.00000000000000000 -6.00000000000000000 1.00000000000000000 0.00000000000000000 
2 -22.52499999999999147 -15.00000000000000000 1.00000000000000000 0.00000000000000000 -0.00000000000000000 1.00000000000000000 9.00000000000000000
1 3.14159265358979312 0.00000000000000000 0.00000000000000000 -1.00000000000000000 
1 -31.52499999999999147 -15.00000000000000355 0.00000000000000000 1.00000000000000000 
1 4.71238898038468967 0.00000000000000000 0.00000000000000000 -1.00000000000000000 
1 22.52499999999999503 -24.00000000000000000 -1.00000000000000000 0.00000000000000000 
1 0.00000000000000000 0.00000000000000000 1.00000000000000000 0.00000000000000000 
1 0.00000000000000000 -6.00000000000000000 1.00000000000000000 0.00000000000000000 
2 -22.52499999999999147 15.00000000000000000 1.00000000000000000 0.00000000000000000 -0.00000000000000000 1.00000000000000000 9.00000000000000000
1 0.00000000000000000 0.00000000000000000 1.00000000000000000 0.00000000000000000 
1 0.00000000000000000 -6.00000000000000000 1.00000000000000000 0.00000000000000000 
2 22.52499999999999503 -15.00000000000000000 1.00000000000000000 0.00000000000000000 -0.00000000000000000 1.00000000000000000 9.00000000000000000
1 -22.52499999999999147 24.00000000000000000 1.00000000000000000 0.00000000000000000 
1 31.52499999999999503 15.00000000000000178 0.00000000000000000 -1.00000000000000000 
1 0.00000000000000000 0.00000000000000000 1.00000000000000000 0.00000000000000000 
1 0.00000000000000000 -6.00000000000000000 1.00000000000000000 0.00000000000000000 
2 22.52499999999999503 15.00000000000000000 1.00000000000000000 0.00000000000000000 -0.00000000000000000 1.00000000000000000 9.00000000000000000
2 -22.52499999999999503 -15.00000000000000000 1.00000000000000000 0.00000000000000000 -0.00000000000000000 1.00000000000000000 3.25000000000000000
1 0.00000000000000000 -80.26356633149313780 1.00000000000000000 0.00000000000000000 
2 22.52499999999999858 -15.00000000000000000 1.00000000000000000 0.00000000000000000 -0.00000000000000000 1.00000000000000000 3.25000000000000000
1 0.00000000000000000 -80.26356633149313780 1.00000000000000000 0.00000000000000000 
2 -22.52499999999999503 15.00000000000000000 1.00000000000000000 0.00000000000000000 -0.00000000000000000 1.00000000000000000 3.25000000000000000
1 0.00000000000000000 -80.26356633149313780 1.00000000000000000 0.00000000000000000 
2 22.52499999999999503 15.00000000000000000 1.00000000000000000 0.00000000000000000 -0.00000000000000000 1.00000000000000000 3.25000000000000000
1 0.00000000000000000 -80.26356633149313780 1.00000000000000000 0.00000000000000000 
2 -22.52499999999999503 -15.00000000000000000 1.00000000000000000 0.00000000000000000 -0.00000000000000000 1.00000000000000000 3.25000000000000000
1 0.00000000000000000 -74.26356633149313780 1.00000000000000000 0.00000000000000000 
2 22.52499999999999858 -15.00000000000000000 1.00000000000000000 0.00000000000000000 -0.00000000000000000 1.00000000000000000 3.25000000000000000
1 0.00000000000000000 -74.26356633149313780 1.00000000000000000 0.00000000000000000 
2 -22.52499999999999503 15.00000000000000000 1.00000000000000000 0.00000000000000000 -0.00000000000000000 1.00000000000000000 3.25000000000000000
1 0.00000000000000000 -74.26356633149313780 1.00000000000000000 0.00000000000000000 
2 22.52499999999999503 15.00000000000000000 1.00000000000000000 0.00000000000000000 -0.00000000000000000 1.00000000000000000 3.25000000000000000
1 0.00000000000000000 -74.26356633149313780 1.00000000000000000 0.00000000000000000 
1 1.57079632679489678 0.00000000000000000 0.00000000000000000 -1.00000000000000000 
1 6.28318530717958623 0.00000000000000000 0.00000000000000000 -1.00000000000000000 
1 1.57079632679489634 0.00000000000000000 0.00000000000000000 -1.00000000000000000 
1 0.00000000000000020 0.00000000000000000 0.00000000000000000 -1.00000000000000000 
1 0.00000000000000000 0.00000000000000000 0.00000000000000000 -1.00000000000000000 
1 6.28318530717958623 0.00000000000000000 0.00000000000000000 -1.00000000000000000 
1 0.00000000000000000 0.00000000000000000 0.00000000000000000 -1.00000000000000000 
1 6.28318530717958623 0.00000000000000000 0.00000000000000000 -1.00000000000000000 
1 0.00000000000000000 0.00000000000000000 0.00000000000000000 -1.00000000000000000 
1 6.28318530717958623 0.00000000000000000 0.00000000000000000 -1.00000000000000000 
1 0.00000000000000000 0.00000000000000000 0.00000000000000000 -1.00000000000000000 
1 6.28318530717958623 0.00000000000000000 0.00000000000000000 -1.00000000000000000 
Curves 28
1 -31.52499999999999147 -15.00000000000000355 0.00000000000000000 0.00000000000000000 0.00000000000000000 1.00000000000000000 
1 -22.52499999999999147 -24.00000000000000000 0.00000000000000000 0.00000000000000000 0.00000000000000000 1.00000000000000000 
2 -22.52499999999999147 -15.00000000000000000 0.00000000000000000 0.00000000000000000 0.00000000000000000 1.00000000000000000 1.00000000000000000 0.00000000000000000 -0.00000000000000000 -0.00000000000000000 1.00000000000000000 0.00000000000000000 9.00000000000000000
1 -31.52499999999999147 15.00000000000000355 0.00000000000000000 0.00000000000000000 0.00000000000000000 1.00000000000000000 
1 -31.52499999999999147 -15.00000000000000355 0.00000000000000000 0.00000000000000000 1.00000000000000000 0.00000000000000000 
1 22.52499999999999503 -24.00000000000000000 0.00000000000000000 0.00000000000000000 0.00000000000000000 1.00000000000000000 
1 22.52499999999999503 -24.00000000000000000 0.00000000000000000 -1.00000000000000000 0.00000000000000000 0.00000000000000000 
2 -22.52499999999999147 15.00000000000000000 0.00000000000000000 0.00000000000000000 0.00000000000000000 1.00000000000000000 1.00000000000000000 0.00000000000000000 -0.00000000000000000 -0.00000000000000000 1.00000000000000000 0.00000000000000000 9.00000000000000000
2 22.52499999999999503 -15.00000000000000000 0.00000000000000000 0.00000000000000000 0.00000000000000000 1.00000000000000000 1.00000000000000000 0.00000000000000000 -0.00000000000000000 -0.00000000000000000 1.00000000000000000 0.00000000000000000 9.00000000000000000
1 -22.52499999999999147 24.00000000000000000 0.00000000000000000 1.00000000000000000 0.00000000000000000 0.00000000000000000 
1 31.52499999999999503 15.00000000000000178 0.00000000000000000 0.00000000000000000 -1.00000000000000000 0.00000000000000000 
2 22.52499999999999503 15.00000000000000000 0.00000000000000000 0.00000000000000000 0.00000000000000000 1.00000000000000000 1.00000000000000000 0.00000000000000000 -0.00000000000000000 -0.00000000000000000 1.00000000000000000 0.00000000000000000 9.00000000000000000
2 -22.52499999999999503 -15.00000000000000000 0.00000000000000000 0.00000000000000000 0.00000000000000000 1.00000000000000000 1.00000000000000000 0.00000000000000000 -0.00000000000000000 -0.00000000000000000 1.00000000000000000 0.00000000000000000 3.25000000000000000
2 22.52499999999999858 -15.00000000000000000 0.00000000000000000 0.00000000000000000 0.00000000000000000 1.00000000000000000 1.00000000000000000 0.00000000000000000 -0.00000000000000000 -0.00000000000000000 1.00000000000000000 0.00000000000000000 3.25000000000000000
2 -22.52499999999999503 15.00000000000000000 0.00000000000000000 0.00000000000000000 0.00000000000000000 1.00000000000000000 1.00000000000000000 0.00000000000000000 -0.00000000000000000 -0.00000000000000000 1.00000000000000000 0.00000000000000000 3.25000000000000000
2 22.52499999999999503 15.00000000000000000 0.00000000000000000 0.00000000000000000 0.00000000000000000 1.00000000000000000 1.00000000000000000 0.00000000000000000 -0.00000000000000000 -0.00000000000000000 1.00000000000000000 0.00000000000000000 3.25000000000000000
2 -22.52499999999999503 -15.00000000000000000 6.00000000000000000 0.00000000000000000 0.00000000000000000 1.00000000000000000 1.00000000000000000 0.00000000000000000 -0.00000000000000000 -0.00000000000000000 1.00000000000000000 0.00000000000000000 3.25000000000000000
2 22.52499999999999858 -15.00000000000000000 6.00000000000000000 0.00000000000000000 0.00000000000000000 1.00000000000000000 1.00000000000000000 0.00000000000000000 -0.00000000000000000 -0.00000000000000000 1.00000000000000000 0.00000000000000000 3.25000000000000000
2 -22.52499999999999503 15.00000000000000000 6.00000000000000000 0.00000000000000000 0.00000000000000000 1.00000000000000000 1.00000000000000000 0.00000000000000000 -0.00000000000000000 -0.00000000000000000 1.00000000000000000 0.00000000000000000 3.25000000000000000
2 22.52499999999999503 15.00000000000000000 6.00000000000000000 0.00000000000000000 0.00000000000000000 1.00000000000000000 1.00000000000000000 0.00000000000000000 -0.00000000000000000 -0.00000000000000000 1.00000000000000000 0.00000000000000000 3.25000000000000000
1 -22.52499999999999147 24.00000000000000000 0.00000000000000000 0.00000000000000000 0.00000000000000000 1.00000000000000000 
1 31.52499999999999503 -15.00000000000000178 0.00000000000000000 0.00000000000000000 0.00000000000000000 1.00000000000000000 
1 22.52499999999999858 24.00000000000000000 0.00000000000000000 0.00000000000000000 0.00000000000000000 1.00000000000000000 
1 31.52499999999999503 15.00000000000000178 0.00000000000000000 0.00000000000000000 0.00000000000000000 1.00000000000000000 
1 -19.27499999999999503 -15.00000000000000000 80.26356633149313780 -0.00000000000000000 -0.00000000000000000 -1.00000000000000000 
1 25.77499999999999858 -15.00000000000000000 80.26356633149313780 -0.00000000000000000 -0.00000000000000000 -1.00000000000000000 
1 -19.27499999999999503 15.00000000000000000 80.26356633149313780 -0.00000000000000000 -0.00000000000000000 -1.00000000000000000 
1 25.77499999999999503 15.00000000000000000 80.26356633149313780 -0.00000000000000000 -0.00000000000000000 -1.00000000000000000 
Polygon3D 0
PolygonOnTriangulations 0
Surfaces 13
2 -22.52499999999999147 -15.00000000000000000 0.00000000000000000 -0.00000000000000000 -0.00000000000000000 -1.00000000000000000 1.00000000000000000 0.00000000000000000 0.00000000000000000 -0.00000000000000000 1.00000000000000000 -0.00000000000000000 9.00000000000000000
1 -31.52499999999999147 -15.00000000000000355 0.00000000000000000 -1.00000000000000000 0.00000000000000000 0.00000000000000000 0.00000000000000000 1.00000000000000000 0.00000000000000000 0.00000000000000000 0.00000000000000000 -1.00000000000000000 
1 22.52499999999999503 -24.00000000000000000 0.00000000000000000 0.00000000000000000 -1.00000000000000000 0.00000000000000000 -1.00000000000000000 0.00000000000000000 0.00000000000000000 -0.00000000000000000 -0.00000000000000000 -1.00000000000000000 
1 0.00000000000000110 -0.00000000000000014 0.00000000000000000 0.00000000000000000 0.00000000000000000 1.00000000000000000 1.00000000000000000 0.00000000000000000 -0.00000000000000000 -0.00000000000000000 1.00000000000000000 0.00000000000000000 
2 -22.52499999999999147 15.00000000000000000 0.00000000000000000 -0.00000000000000000 -0.00000000000000000 -1.00000000000000000 1.00000000000000000 0.00000000000000000 0.00000000000000000 -0.00000000000000000 1.00000000000000000 -0.00000000000000000 9.00000000000000000
2 22.52499999999999503 -15.00000000000000000 0.00000000000000000 -0.00000000000000000 -0.00000000000000000 -1.00000000000000000 1.00000000000000000 0.00000000000000000 0.00000000000000000 -0.00000000000000000 1.00000000000000000 -0.00000000000000000 9.00000000000000000
2 22.52499999999999503 15.00000000000000000 0.00000000000000000 -0.00000000000000000 -0.00000000000000000 -1.00000000000000000 1.00000000000000000 0.00000000000000000 0.00000000000000000 -0.00000000000000000 1.00000000000000000 -0.00000000000000000 9.00000000000000000
2 -22.52499999999999503 -15.00000000000000000 80.26356633149313780 0.00000000000000000 0.00000000000000000 1.00000000000000000 1.00000000000000000 0.00000000000000000 -0.00000000000000000 -0.00000000000000000 1.00000000000000000 0.00000000000000000 3.25000000000000000
2 22.52499999999999858 -15.00000000000000000 80.26356633149313780 0.00000000000000000 0.00000000000000000 1.00000000000000000 1.00000000000000000 0.00000000000000000 -0.00000000000000000 -0.00000000000000000 1.00000000000000000 0.00000000000000000 3.25000000000000000
2 -22.52499999999999503 15.00000000000000000 80.26356633149313780 0.00000000000000000 0.00000000000000000 1.00000000000000000 1.00000000000000000 0.00000000000000000 -0.00000000000000000 -0.00000000000000000 1.00000000000000000 0.00000000000000000 3.25000000000000000
2 22.52499999999999503 15.00000000000000000 80.26356633149313780 0.00000000000000000 0.00000000000000000 1.00000000000000000 1.00000000000000000 0.00000000000000000 -0.00000000000000000 -0.00000000000000000 1.00000000000000000 0.00000000000000000 3.25000000000000000
1 -22.52499999999999147 24.00000000000000000 0.00000000000000000 0.00000000000000000 1.00000000000000000 0.00000000000000000 1.00000000000000000 0.00000000000000000 0.00000000000000000 0.00000000000000000 0.00000000000000000 -1.00000000000000000 
1 31.52499999999999503 15.00000000000000178 0.00000000000000000 1.00000000000000000 0.00000000000000000 -0.00000000000000000 0.00000000000000000 -1.00000000000000000 0.00000000000000000 0.00000000000000000 -0.00000000000000000 -1.00000000000000000 
Triangulations 0

TShapes 82
Ve
0.000000100000000
-31.524999999999991 -15.000000000000004 0.000000000000000
0 0

0101101
*
Ed
 0.000000100000000 1 1 0
1  1 0 0.000000000000000 6.000000000000000
2  1 1 0 0.000000000000000 6.000000000000000
4 G1 1 0 2 0
0

0101000
+82 8 -82 10 *
Ve
0.000000100000002
-22.524999999999991 -24.000000000000000 0.000000000000000
0 0

0101101
*
Ed
 0.000000100000002 1 1 0
1  2 0 0.000000000000000 6.000000000000000
2  2 1 0 0.000000000000000 6.000000000000000
4 G1 1 0 3 0
0

0101000
+80 8 -80 10 *
Ed
 0.000000100000000 1 1 0
1  3 0 3.141592653589794 4.712388980384690
2  3 1 11 3.141592653589794 4.712388980384690
2  4 1 12 3.141592653589794 4.712388980384690
2  5 4 13 3.141592653589794 4.712388980384690
0

0101000
+82 0 -80 0 *
Wi

0101100
+81 0 -79 0 -78 8 +78 10 *
Fa
0  0.000000100000000 1 0

0101000
+77 0 *
Ve
0.000000100000001
-31.524999999999991 15.000000000000004 0.000000000000000
0 0

0101101
*
Ed
 0.000000100000001 1 1 0
1  4 0 0.000000000000000 6.000000000000000
2  6 5 0 0.000000000000000 6.000000000000000
4 G1 5 0 2 0
0

0101000
+75 8 -75 10 *
Ed
 0.000000100000000 1 1 0
1  5 0 0.000000000000000 30.000000000000007
2  7 4 13 0.000000000000000 30.000000000000007
0

0101000
+82 0 -75 0 *
Wi

0101100
+81 0 -74 0 -73 8 +73 10 *
Fa
0  0.000000100000000 2 0

0101000
+72 0 *
Ve
0.000000100000000
22.524999999999995 -24.000000000000000 0.000000000000000
0 0

0101101
*
Ed
 0.000000100000000 1 1 0
1  6 0 0.000000000000000 6.000000000000000
2  8 6 0 0.000000000000000 6.000000000000000
4 G1 3 0 6 0
0

0101000
+70 8 -70 10 *
Ed
 0.000000100000000 1 1 0
1  7 0 0.000000000000000 45.049999999999983
2  9 4 13 0.000000000000000 45.049999999999983
0

0101000
+70 0 -80 0 *
Wi

0101100
+69 0 -79 0 -68 8 +68 10 *
Fa
0  0.000000100000000 3 0

0101000
+67 0 *
Ve
0.000000100000000
-22.524999999999991 24.000000000000000 0.000000000000000
0 0

0101101
*
Ed
 0.000000100000000 1 1 0
1  8 0 1.570796326794897 3.141592653589793
2  10 5 11 1.570796326794897 3.141592653589793
2  11 5 12 1.570796326794897 3.141592653589793
2  12 4 13 1.570796326794897 3.141592653589793
0

0101000
+65 0 -75 0 *
Ve
0.000000100000000
31.524999999999995 -15.000000000000002 0.000000000000000
0 0

0101101
*
Ed
 0.000000100000000 1 1 0
1  9 0 4.712388980384690 6.283185307179586
2  13 6 11 4.712388980384690 6.283185307179586
2  14 6 12 4.712388980384690 6.283185307179586
2  15 4 13 4.712388980384690 6.283185307179586
0

0101000
+70 0 -63 0 *
Ve
0.000000100000000
22.524999999999999 24.000000000000000 0.000000000000000
0 0

0101101
*
Ed
 0.000000100000000 1 1 0
1  10 0 0.000000000000000 45.049999999999990
2  16 4 13 0.000000000000000 45.049999999999990
0

0101000
+65 0 -61 0 *
Ve
0.000000100000000
31.524999999999995 15.000000000000002 0.000000000000000
0 0

0101101
*
Ed
 0.000000100000000 1 1 0
1  11 0 0.000000000000000 30.000000000000004
2  17 4 13 0.000000000000000 30.000000000000004
0

0101000
+59 0 -63 0 *
Ed
 0.000000100000000 1 1 0
1  12 0 0.000000000000000 1.570796326794896
2  18 7 11 0.000000000000000 1.570796326794896
2  19 7 12 0.000000000000000 1.570796326794896
2  20 4 13 0.000000000000000 1.570796326794896
0

0101000
+59 0 -61 0 *
Wi

0101100
+78 15 -73 15 -68 15 +64 15 +62 15 -60 15 -58 15 +57 15 *
Ve
0.000000100000000
-19.274999999999995 -15.000000000000000 0.000000000000000
0 0

0101101
*
Ed
 0.000000100000000 1 1 0
1  13 0 0.000000000000000 6.283185307179586
2  21 4 14 0.000000000000000 6.283185307179586
2  22 8 0 0.000000000000000 6.283185307179586
0

0101100
+55 0 -55 0 *
Wi

0101100
-54 0 *
Ve
0.000000100000000
25.774999999999999 -15.000000000000000 0.000000000000000
0 0

0101101
*
Ed
 0.000000100000000 1 1 0
1  14 0 0.000000000000000 6.283185307179586
2  23 4 14 0.000000000000000 6.283185307179586
2  24 9 0 0.000000000000000 6.283185307179586
0

0101100
+52 0 -52 0 *
Wi

0101100
-51 0 *
Ve
0.000000100000000
-19.274999999999995 15.000000000000000 0.000000000000000
0 0

0101101
*
Ed
 0.000000100000000 1 1 0
1  15 0 0.000000000000000 6.283185307179586
2  25 4 14 0.000000000000000 6.283185307179586
2  26 10 0 0.000000000000000 6.283185307179586
0

0101100
+49 0 -49 0 *
Wi

0101100
-48 0 *
Ve
0.000000100000000
25.774999999999995 15.000000000000000 0.000000000000000
0 0

0101101
*
Ed
 0.000000100000000 1 1 0
1  16 0 0.000000000000000 6.283185307179586
2  27 4 14 0.000000000000000 6.283185307179586
2  28 11 0 0.000000000000000 6.283185307179586
0

0101100
+46 0 -46 0 *
Wi

0101100
-45 0 *
Fa
0  0.000000100000000 4 14

0101000
+56 0 +53 0 +50 0 +47 0 +44 0 *
Wi

0101100
+78 17 -73 17 -68 17 +64 17 +62 17 -60 17 -58 17 +57 17 *
Ve
0.000000100000000
-19.274999999999995 -15.000000000000000 6.000000000000000
0 0

0101101
*
Ed
 0.000000100000000 1 1 0
1  17 0 0.000000000000000 6.283185307179586
2  29 4 16 0.000000000000000 6.283185307179586
2  30 8 0 0.000000000000000 6.283185307179586
0

0101100
+41 0 -41 0 *
Wi

0101100
-40 0 *
Ve
0.000000100000000
25.774999999999999 -15.000000000000000 6.000000000000000
0 0

0101101
*
Ed
 0.000000100000000 1 1 0
1  18 0 0.000000000000000 6.283185307179586
2  31 4 16 0.000000000000000 6.283185307179586
2  32 9 0 0.000000000000000 6.283185307179586
0

0101100
+38 0 -38 0 *
Wi

0101100
-37 0 *
Ve
0.000000100000000
-19.274999999999995 15.000000000000000 6.000000000000000
0 0

0101101
*
Ed
 0.000000100000000 1 1 0
1  19 0 0.000000000000000 6.283185307179586
2  33 4 16 0.000000000000000 6.283185307179586
2  34 10 0 0.000000000000000 6.283185307179586
0

0101100
+35 0 -35 0 *
Wi

0101100
-34 0 *
Ve
0.000000100000000
25.774999999999995 15.000000000000000 6.000000000000000
0 0

0101101
*
Ed
 0.000000100000000 1 1 0
1  20 0 0.000000000000000 6.283185307179586
2  35 4 16 0.000000000000000 6.283185307179586
2  36 11 0 0.000000000000000 6.283185307179586
0

0101100
+32 0 -32 0 *
Wi

0101100
-31 0 *
Fa
0  0.000000100000000 4 16

0101000
+42 0 +39 0 +36 0 +33 0 +30 0 *
Ed
 0.000000100000000 1 1 0
1  21 0 0.000000000000000 6.000000000000000
2  37 5 0 0.000000000000000 6.000000000000000
4 G1 12 0 5 0
0

0101000
+65 8 -65 10 *
Wi

0101100
+28 0 -74 0 -64 8 +64 10 *
Fa
0  0.000000100000000 5 0

0101000
+27 0 *
Ed
 0.000000100000000 1 1 0
1  22 0 0.000000000000000 6.000000000000000
2  38 6 0 0.000000000000000 6.000000000000000
4 G1 6 0 13 0
0

0101000
+63 8 -63 10 *
Wi

0101100
+69 0 -25 0 -62 8 +62 10 *
Fa
0  0.000000100000000 6 0

0101000
+24 0 *
Ed
 0.000000100000000 1 1 0
1  23 0 0.000000000000000 6.000000000000000
2  39 7 0 0.000000000000000 6.000000000000000
4 G1 7 0 12 0
0

0101000
+61 8 -61 10 *
Wi

0101100
+28 0 -22 0 -60 8 +60 10 *
Fa
0  0.000000100000000 12 0

0101000
+21 0 *
Ed
 0.000000100000000 1 1 0
1  24 0 0.000000000000000 6.000000000000000
2  40 7 0 0.000000000000000 6.000000000000000
4 G1 13 0 7 0
0

0101000
+59 8 -59 10 *
Wi

0101100
+19 0 -25 0 -58 8 +58 10 *
Fa
0  0.000000100000000 13 0

0101000
+18 0 *
Wi

0101100
+19 0 -22 0 -57 8 +57 10 *
Fa
0  0.000000100000000 7 0

0101000
+16 0 *
Ed
 0.000000100000000 1 1 0
1  25 0 74.263566331493138 80.263566331493138
3  41 42CN 8 0 74.263566331493138 80.263566331493138
0

0101000
+41 0 -55 0 *
Wi

0101100
-40 0 -14 0 +54 0 +14 0 *
Fa
0  0.000000100000000 8 0

0101000
+13 0 *
Ed
 0.000000100000000 1 1 0
1  26 0 74.263566331493138 80.263566331493138
3  43 44CN 9 0 74.263566331493138 80.263566331493138
0

0101000
+38 0 -52 0 *
Wi

0101100
-37 0 -11 0 +51 0 +11 0 *
Fa
0  0.000000100000000 9 0

0101000
+10 0 *
Ed
 0.000000100000000 1 1 0
1  27 0 74.263566331493138 80.263566331493138
3  45 46CN 10 0 74.263566331493138 80.263566331493138
0

0101000
+35 0 -49 0 *
Wi

0101100
-34 0 -8 0 +48 0 +8 0 *
Fa
0  0.000000100000000 10 0

0101000
+7 0 *
Ed
 0.000000100000000 1 1 0
1  28 0 74.263566331493138 80.263566331493138
3  47 48CN 11 0 74.263566331493138 80.263566331493138
0

0101000
+32 0 -46 0 *
Wi

0101100
-31 0 -5 0 +45 0 +5 0 *
Fa
0  0.000000100000000 11 0

0101000
+4 0 *
Sh

0101100
-76 4 +71 4 +66 4 -43 0 +29 0 -26 4 -23 4 +20 4 +17 4 -15 4 
-12 0 -9 0 -6 0 -3 0 *
So

0100000
+2 0 *

+1 1 