
CASCADE Topology V1, (c) Matra-Datavision
Locations 21
1
1.000000000000000 0.000000000000000 0.000000000000000 0.000000000000000 
0.000000000000000 1.000000000000000 0.000000000000000 0.000000000000000 
0.000000000000000 0.000000000000000 1.000000000000000 0.000000000000000 
1
1.000000000000000 0.000000000000000 0.000000000000000 0.000000000000000 
0.000000000000000 1.000000000000000 0.000000000000000 0.000000000000000 
0.000000000000000 0.000000000000000 1.000000000000000 0.000000000000000 
1
1.000000000000000 0.000000000000000 0.000000000000000 0.000000000000000 
0.000000000000000 1.000000000000000 0.000000000000000 0.000000000000000 
0.000000000000000 0.000000000000000 1.000000000000000 0.000000000000000 
1
1.000000000000000 0.000000000000000 0.000000000000000 1787.999983858713676 
0.000000000000000 1.000000000000000 0.000000000000000 -0.000000000000590 
0.000000000000000 0.000000000000000 1.000000000000000 0.000000000000393 
2  1 1 2 1 3 -1 4 1 0
1
1.000000000000000 0.000000000000000 0.000000000000000 -3575.999967717427353 
0.000000000000000 1.000000000000000 0.000000000000000 0.000000000001180 
0.000000000000000 0.000000000000000 1.000000000000000 -0.000000000000787 
2  1 1 2 1 3 -1 4 1 6 1 0
1
0.000000000000000 -0.000000000000000 1.000000000000000 0.000000000000000 
1.000000000000000 0.000000000000000 -0.000000000000000 0.000000000000000 
-0.000000000000000 1.000000000000000 0.000000000000000 0.000000000000000 
1
1.000000000000000 0.000000000000000 0.000000000000000 0.000000000000000 
0.000000000000000 1.000000000000000 0.000000000000000 0.000000000000000 
0.000000000000000 0.000000000000000 1.000000000000000 0.000000000000000 
2  8 1 9 1 1 1 2 1 3 -1 4 1 0
2  9 -1 8 -1 0
2  8 1 9 1 1 1 2 1 3 -1 4 1 6 1 0
1
1.000000000000000 0.000000000000000 0.000000000000000 1787.999983858713676 
0.000000000000000 1.000000000000000 0.000000000000000 -0.000000000000596 
0.000000000000000 0.000000000000000 1.000000000000000 0.000000000000397 
1
1.000000000000000 0.000000000000000 0.000000000000000 0.000000000000000 
0.000000000000000 1.000000000000000 0.000000000000000 0.000000000000000 
0.000000000000000 0.000000000000000 1.000000000000000 0.000000000000000 
1
1.000000000000000 0.000000000000000 0.000000000000000 0.000000000000000 
0.000000000000000 1.000000000000000 0.000000000000000 0.000000000000000 
0.000000000000000 0.000000000000000 1.000000000000000 0.000000000000000 
2  13 -1 14 1 15 -1 1 -1 9 -1 8 -1 0
1
1.000000000000000 0.000000000000000 0.000000000000000 -3575.999967717427353 
0.000000000000000 1.000000000000000 0.000000000000000 0.000000000001191 
0.000000000000000 0.000000000000000 1.000000000000000 -0.000000000000794 
2  17 -1 13 -1 14 1 15 -1 1 -1 9 -1 8 -1 0
2  4 -1 3 1 2 -1 1 -1 9 -1 8 -1 0
2  6 -1 4 -1 3 1 2 -1 1 -1 9 -1 8 -1 0
2  8 1 9 1 0
Curve2ds 36
1 -0.00000000000004000 0.00000000000000000 -0.00000000000000022 -1.00000000000000000 
1 351.29422863413219602 -0.00000000000003864 0.00000000000000022 -1.00000000000000000 
1 40.00000000000230216 0.00000000000000000 -0.00000000000000022 -1.00000000000000000 
1 -0.00000000000004263 0.00000000000000000 -0.00000000000000022 -1.00000000000000000 
1 0.00000000000000000 0.00000000000000000 1.00000000000000000 0.00000000000000000 
1 -0.00000000000000000 -3575.99996771742735291 1.00000000000000000 0.00000000000000000 
1 0.00000000000000000 0.00000000000000000 1.00000000000000000 0.00000000000000000 
1 -0.00000000000078672 -3575.99996771742735291 1.00000000000000000 0.00000000000000000 
1 0.00000000000000000 0.00000000000000000 -0.00000000000000022 -1.00000000000000000 
1 0.40000000000137703 0.00000000000000000 -0.00000000000000022 -1.00000000000000000 
1 0.00000000000000000 0.00000000000000000 1.00000000000000000 0.00000000000000000 
1 -0.00000000000000178 -3575.99996771742735291 1.00000000000000000 0.00000000000000000 
1 0.00000000000000000 0.00000000000000000 1.00000000000000000 0.00000000000000000 
1 -0.00000000000078160 -3575.99996771742735291 1.00000000000000000 0.00000000000000000 
1 351.29422863413219602 0.00000000000003864 -0.00000000000000022 -1.00000000000000000 
1 -0.00000000000003553 0.00000000000000000 0.00000000000000022 -1.00000000000000000 
1 0.00000000000000000 0.00000000000000000 1.00000000000000000 0.00000000000000000 
1 -0.00000000000000266 -3575.99996771742735291 1.00000000000000000 0.00000000000000000 
1 0.00000000000000000 0.00000000000000000 1.00000000000000000 0.00000000000000000 
1 -0.00000000000080035 -3575.99996771742735291 1.00000000000000000 0.00000000000000000 
1 0.40000000000372893 0.00000000000000000 0.00000000000000022 -1.00000000000000000 
1 -0.00000000000003553 0.00000000000000000 0.00000000000000022 -1.00000000000000000 
1 0.00000000000000000 0.00000000000000000 1.00000000000000000 -0.00000000000000000 
1 0.00000000000000178 -3575.99996771742735291 1.00000000000000000 -0.00000000000000000 
1 0.00000000000000000 0.00000000000000000 1.00000000000000000 0.00000000000000000 
1 0.00000000000078160 -3575.99996771742735291 1.00000000000000000 0.00000000000000000 
1 39.99999999999995737 0.00000000000000000 0.00000000000000022 -1.00000000000000000 
1 0.00000000000000000 0.00000000000000000 0.00000000000000022 -1.00000000000000000 
1 0.00000000000000000 0.00000000000000000 1.00000000000000000 -0.00000000000000000 
1 0.00000000000000178 -3575.99996771742735291 1.00000000000000000 -0.00000000000000000 
1 0.00000000000000000 0.00000000000000000 1.00000000000000000 0.00000000000000000 
1 0.00000000000078160 -3575.99996771742735291 1.00000000000000000 0.00000000000000000 
1 0.00000000000000000 0.00000000000000000 1.00000000000000000 -0.00000000000000000 
1 0.00000000000000266 -3575.99996771742735291 1.00000000000000000 -0.00000000000000000 
1 0.00000000000000000 0.00000000000000000 1.00000000000000000 0.00000000000000000 
1 0.00000000000080035 -3575.99996771742735291 1.00000000000000000 0.00000000000000000 
Curves 24
1 1787.99998385871390383 883.38268590239579225 -80.80000000000731575 -1.00000000000000000 0.00000000000000033 -0.00000000000000022 
1 1787.99998385871390383 883.38268590239579225 119.20000000000437979 -1.00000000000000000 0.00000000000000033 -0.00000000000000022 
1 883.38268590239636069 -80.80000000000751470 0.00000000000009808 0.00000000000000000 1.00000000000000000 -0.00000000000000000 
1 1787.99998385871344908 -873.08845726826518785 -80.80000000000693205 -1.00000000000000000 0.00000000000000033 -0.00000000000000022 
1 -873.08845726826461942 -80.80000000000751470 -0.00000000000009693 1.00000000000000000 -0.00000000000000000 0.00000000000000011 
1 1787.99998385871390383 883.38268590239579225 121.20000000001148521 -1.00000000000000000 0.00000000000000033 -0.00000000000000022 
1 883.38268590239636069 119.20000000000420926 0.00000000000009808 0.00000000000000000 1.00000000000000000 -0.00000000000000000 
1 1787.99998385871344908 -873.08845726826518785 119.19999999999306795 -1.00000000000000000 0.00000000000000033 -0.00000000000000022 
1 -873.08845726826461942 119.19999999999249951 -0.00000000000009693 0.00000000000000000 -1.00000000000000000 0.00000000000000000 
1 1787.99998385871344908 -873.08845726826518785 121.20000000001188312 -1.00000000000000000 0.00000000000000033 -0.00000000000000022 
1 883.38268590239636069 121.20000000001128626 0.00000000000009808 -1.00000000000000000 0.00000000000000000 -0.00000000000000011 
1 -873.08845726826461942 121.20000000001131468 -0.00000000000009693 0.00000000000000000 -1.00000000000000000 0.00000000000000000 
1 1787.99998385871367645 180.79422863413137179 0.00000000000035336 -1.00000000000000000 0.00000000000000033 -0.00000000000000022 
1 1787.99998385871367645 180.79422863413137179 40.00000000000269296 -1.00000000000000000 0.00000000000000033 -0.00000000000000022 
1 180.79422863413196865 -0.00000000000000000 0.00000000000002007 0.00000000000000000 1.00000000000000000 -0.00000000000000000 
1 1787.99998385871367645 180.79422863413137179 40.40000000000411262 -1.00000000000000000 0.00000000000000033 -0.00000000000000022 
1 180.79422863413196865 40.00000000000234479 0.00000000000002007 0.00000000000000000 1.00000000000000000 -0.00000000000000000 
1 1787.99998385871367645 -170.50000000000082423 40.40000000000419078 -1.00000000000000000 0.00000000000000033 -0.00000000000000022 
1 180.79422863413196865 40.40000000000376446 0.00000000000002007 -1.00000000000000000 0.00000000000000000 -0.00000000000000011 
1 1787.99998385871367645 -170.50000000000082423 40.00000000000042633 -1.00000000000000000 0.00000000000000033 -0.00000000000000022 
1 -170.50000000000022737 40.40000000000376446 -0.00000000000001893 0.00000000000000000 -1.00000000000000000 0.00000000000000000 
1 1787.99998385871367645 -170.50000000000082423 0.00000000000043136 -1.00000000000000000 0.00000000000000033 -0.00000000000000022 
1 -170.50000000000022737 40.00000000000000000 -0.00000000000001893 0.00000000000000000 -1.00000000000000000 0.00000000000000000 
1 -170.50000000000022737 0.00000000000000000 -0.00000000000001893 1.00000000000000000 -0.00000000000000000 0.00000000000000011 
Polygon3D 0
PolygonOnTriangulations 0
Surfaces 19
1 1787.99998385871367645 883.38268590239579225 -80.80000000000711680 0.00000000000000033 1.00000000000000000 -0.00000000000000000 0.00000000000000000 0.00000000000000000 1.00000000000000000 1.00000000000000000 -0.00000000000000033 0.00000000000000000 
1 1787.99998385871367645 883.38268590239579225 119.20000000000460716 0.00000000000000033 1.00000000000000000 -0.00000000000000000 0.00000000000000000 0.00000000000000000 1.00000000000000000 1.00000000000000000 -0.00000000000000033 0.00000000000000000 
1 1787.99998385871367645 -873.08845726826518785 -80.80000000000711680 0.00000000000000022 -0.00000000000000000 -1.00000000000000000 0.00000000000000011 1.00000000000000000 0.00000000000000000 1.00000000000000000 -0.00000000000000011 0.00000000000000022 
1 1787.99998385871367645 -873.08845726826518785 119.19999999999289741 -0.00000000000000033 -1.00000000000000000 -0.00000000000000000 0.00000000000000000 0.00000000000000000 -1.00000000000000000 1.00000000000000000 -0.00000000000000033 0.00000000000000000 
1 1787.99998385871367645 -873.08845726826518785 121.20000000001171259 -0.00000000000000033 -1.00000000000000000 -0.00000000000000000 0.00000000000000000 0.00000000000000000 -1.00000000000000000 1.00000000000000000 -0.00000000000000033 0.00000000000000000 
1 1787.99998385871367645 883.38268590239579225 121.20000000001168416 -0.00000000000000022 0.00000000000000000 1.00000000000000000 -0.00000000000000011 -1.00000000000000000 0.00000000000000000 1.00000000000000000 -0.00000000000000011 0.00000000000000022 
1 1787.99998385871367645 180.79422863413137179 0.00000000000039336 0.00000000000000033 1.00000000000000000 -0.00000000000000000 0.00000000000000000 0.00000000000000000 1.00000000000000000 1.00000000000000000 -0.00000000000000033 0.00000000000000000 
1 1787.99998385871367645 -170.50000000000082423 0.00000000000039336 0.00000000000000022 -0.00000000000000000 -1.00000000000000000 0.00000000000000011 1.00000000000000000 0.00000000000000000 1.00000000000000000 -0.00000000000000011 0.00000000000000022 
1 1787.99998385871367645 180.79422863413137179 40.00000000000273559 0.00000000000000033 1.00000000000000000 -0.00000000000000000 0.00000000000000000 0.00000000000000000 1.00000000000000000 1.00000000000000000 -0.00000000000000033 0.00000000000000000 
1 1787.99998385871367645 180.79422863413137179 0.00000000000035687 0.00000000000000033 1.00000000000000000 -0.00000000000000022 -0.00000000000000022 0.00000000000000022 1.00000000000000000 1.00000000000000000 -0.00000000000000033 0.00000000000000022 
1 1787.99998385871367645 180.79422863413137179 40.40000000000415525 -0.00000000000000022 0.00000000000000000 1.00000000000000000 -0.00000000000000011 -1.00000000000000000 0.00000000000000000 1.00000000000000000 -0.00000000000000011 0.00000000000000022 
1 1787.99998385871367645 180.79422863413137179 40.00000000000270006 0.00000000000000033 1.00000000000000000 -0.00000000000000022 -0.00000000000000022 0.00000000000000022 1.00000000000000000 1.00000000000000000 -0.00000000000000033 0.00000000000000022 
1 1787.99998385871367645 -170.50000000000082423 40.40000000000415525 -0.00000000000000033 -1.00000000000000000 -0.00000000000000000 0.00000000000000000 0.00000000000000000 -1.00000000000000000 1.00000000000000000 -0.00000000000000033 0.00000000000000000 
1 1787.99998385871367645 180.79422863413137179 40.40000000000411973 -0.00000000000000022 0.00000000000000022 1.00000000000000000 -0.00000000000000033 -1.00000000000000000 0.00000000000000022 1.00000000000000000 -0.00000000000000033 0.00000000000000022 
1 1787.99998385871367645 -170.50000000000082423 40.00000000000039080 -0.00000000000000033 -1.00000000000000000 -0.00000000000000000 0.00000000000000000 0.00000000000000000 -1.00000000000000000 1.00000000000000000 -0.00000000000000033 0.00000000000000000 
1 1787.99998385871367645 -170.50000000000082423 40.40000000000419789 -0.00000000000000033 -1.00000000000000000 0.00000000000000022 0.00000000000000022 -0.00000000000000022 -1.00000000000000000 1.00000000000000000 -0.00000000000000033 0.00000000000000022 
1 1787.99998385871367645 -170.50000000000082423 40.00000000000043343 -0.00000000000000033 -1.00000000000000000 0.00000000000000022 0.00000000000000022 -0.00000000000000022 -1.00000000000000000 1.00000000000000000 -0.00000000000000033 0.00000000000000022 
1 1787.99998385871367645 -170.50000000000082423 0.00000000000043487 0.00000000000000022 -0.00000000000000022 -1.00000000000000000 0.00000000000000033 1.00000000000000000 -0.00000000000000022 1.00000000000000000 -0.00000000000000033 0.00000000000000022 
1 -0.00000000000000277 5.14711431706586797 20.20000000000186446 1.00000000000000000 -0.00000000000000033 0.00000000000000022 0.00000000000000033 1.00000000000000000 0.00000000000000011 -0.00000000000000022 -0.00000000000000011 1.00000000000000000 
Triangulations 0

TShapes 65
Ve
0.000000500000000
0.000000000000312 883.382685902396361 -80.800000000007714
0 0

0101101
*
Ed
 0.000000500000000 1 1 0
1  1 0 0.000000000000000 3575.999967717427353
0

0101000
+65 5 -65 7 *
Ve
0.000000500000000
0.000000000000268 883.382685902396361 119.200000000003982
0 0

0101101
*
Ed
 0.000000500000000 1 1 0
1  2 0 0.000000000000000 3575.999967717427353
4 C2 1 0 2 0
0

0101000
+63 5 -63 7 *
Ed
 0.000000500000000 1 1 0
1  3 0 0.000000000000000 200.000000000011710
0

0101000
+65 11 -63 11 *
Wi

0101100
+64 0 -62 0 -61 10 +61 12 *
Fa
0  0.000000500000000 1 0

0101000
+60 0 *
Ve
0.000000500000000
-0.000000000000273 -873.088457268264619 -80.800000000007330
0 0

0101101
*
Ed
 0.000000500000000 1 1 0
1  4 0 0.000000000000000 3575.999967717427353
0

0101000
+58 5 -58 7 *
Ed
 0.000000500000000 1 1 0
1  5 0 0.000000000000000 1756.471143170660980
0

0101000
+58 11 -65 11 *
Wi

0101100
+57 0 -64 0 -56 10 +56 12 *
Fa
0  0.000000500000000 3 0

0101000
+55 0 *
Ve
0.000000500000000
0.000000000000267 883.382685902396361 121.200000000011087
0 0

0101101
*
Ed
 0.000000500000000 1 1 0
1  6 0 0.000000000000000 3575.999967717427353
0

0101000
+53 5 -53 7 *
Ed
 0.000000500000000 1 1 0
1  7 0 0.000000000000000 2.000000000007098
0

0101000
+63 11 -53 11 *
Wi

0101100
+62 0 -52 0 -51 10 +51 12 *
Fa
0  0.000000500000000 2 0

0101000
+50 0 *
Ve
0.000000500000000
-0.000000000000317 -873.088457268264619 119.199999999992670
0 0

0101101
*
Ed
 0.000000500000000 1 1 0
1  8 0 0.000000000000000 3575.999967717427353
4 C2 4 0 5 0
0

0101000
+48 5 -48 7 *
Ed
 0.000000500000000 1 1 0
1  9 0 0.000000000000000 200.000000000000000
0

0101000
+48 11 -58 11 *
Wi

0101100
+47 0 -57 0 -46 10 +46 12 *
Fa
0  0.000000500000000 4 0

0101000
+45 0 *
Ve
0.000000500000000
-0.000000000000318 -873.088457268264619 121.200000000011485
0 0

0101101
*
Ed
 0.000000500000000 1 1 0
1  10 0 0.000000000000000 3575.999967717427353
0

0101000
+43 5 -43 7 *
Ed
 0.000000500000000 1 1 0
1  11 0 0.000000000000000 1756.471143170660980
0

0101000
+53 11 -43 11 *
Wi

0101100
+52 0 -42 0 -41 10 +41 12 *
Fa
0  0.000000500000000 6 0

0101000
+40 0 *
Ed
 0.000000500000000 1 1 0
1  12 0 0.000000000000000 2.000000000018822
0

0101000
+43 11 -48 11 *
Wi

0101100
+42 0 -47 0 -38 10 +38 12 *
Fa
0  0.000000500000000 5 0

0101000
+37 0 *
Ve
0.000000500000000
0.000000000000060 180.794228634131969 -0.000000000000040
0 0

0101101
*
Ed
 0.000000500000000 1 1 0
1  13 0 0.000000000000000 3575.999967717427353
2  1 7 0 0.000000000000000 3575.999967717427353
2  2 8 0 0.000000000000000 3575.999967717427353
0

0101000
+35 5 -35 7 *
Ve
0.000000500000000
0.000000000000051 180.794228634131969 40.000000000002302
0 0

0101101
*
Ed
 0.000000500000000 1 1 0
1  14 0 0.000000000000000 3575.999967717427353
4 C2 7 0 9 0
2  3 7 0 0.000000000000000 3575.999967717427353
2  4 9 0 0.000000000000000 3575.999967717427353
0

0101000
+33 5 -33 7 *
Ed
 0.000000500000000 1 1 0
1  15 0 0.000000000000000 40.000000000002345
2  5 10 16 0.000000000000000 40.000000000002345
2  6 10 18 0.000000000000000 40.000000000002345
2  7 7 19 0.000000000000000 40.000000000002345
2  8 7 20 0.000000000000000 40.000000000002345
0

0101000
+35 11 -33 11 *
Wi

0101100
+34 0 -32 0 -31 10 +31 12 *
Fa
0  0.000000500000000 7 0

0101000
+30 0 *
Ve
0.000000500000000
0.000000000000051 180.794228634131969 40.400000000003722
0 0

0101101
*
Ed
 0.000000500000000 1 1 0
1  16 0 0.000000000000000 3575.999967717427353
2  9 11 0 0.000000000000000 3575.999967717427353
2  10 9 0 0.000000000000000 3575.999967717427353
0

0101000
+28 5 -28 7 *
Ed
 0.000000500000000 1 1 0
1  17 0 0.000000000000000 0.400000000001420
2  11 12 16 0.000000000000000 0.400000000001420
2  12 12 18 0.000000000000000 0.400000000001420
2  13 9 19 0.000000000000000 0.400000000001420
2  14 9 20 0.000000000000000 0.400000000001420
0

0101000
+33 11 -28 11 *
Wi

0101100
+32 0 -27 0 -26 10 +26 12 *
Fa
0  0.000000500000000 9 0

0101000
+25 0 *
Ve
0.000000500000000
-0.000000000000066 -170.500000000000227 40.400000000003800
0 0

0101101
*
Ed
 0.000000500000000 1 1 0
1  18 0 0.000000000000000 3575.999967717427353
2  15 11 0 0.000000000000000 3575.999967717427353
2  16 13 0 0.000000000000000 3575.999967717427353
0

0101000
+23 5 -23 7 *
Ed
 0.000000500000000 1 1 0
1  19 0 0.000000000000000 351.294228634132196
2  17 14 16 0.000000000000000 351.294228634132196
2  18 14 18 0.000000000000000 351.294228634132196
2  19 11 19 0.000000000000000 351.294228634132196
2  20 11 20 0.000000000000000 351.294228634132196
0

0101000
+28 11 -23 11 *
Wi

0101100
+27 0 -22 0 -21 10 +21 12 *
Fa
0  0.000000500000000 11 0

0101000
+20 0 *
Ve
0.000000500000000
-0.000000000000066 -170.500000000000227 40.000000000000036
0 0

0101101
*
Ed
 0.000000500000000 1 1 0
1  20 0 0.000000000000000 3575.999967717427353
4 C2 13 0 15 0
2  21 13 0 0.000000000000000 3575.999967717427353
2  22 15 0 0.000000000000000 3575.999967717427353
0

0101000
+18 5 -18 7 *
Ed
 0.000000500000000 1 1 0
1  21 0 0.000000000000000 0.400000000003764
2  23 16 16 0.000000000000000 0.400000000003764
2  24 16 18 0.000000000000000 0.400000000003764
2  25 13 19 0.000000000000000 0.400000000003764
2  26 13 20 0.000000000000000 0.400000000003764
0

0101000
+23 11 -18 11 *
Wi

0101100
+22 0 -17 0 -16 10 +16 12 *
Fa
0  0.000000500000000 13 0

0101000
+15 0 *
Ve
0.000000500000000
-0.000000000000057 -170.500000000000227 0.000000000000038
0 0

0101101
*
Ed
 0.000000500000000 1 1 0
1  22 0 0.000000000000000 3575.999967717427353
2  27 15 0 0.000000000000000 3575.999967717427353
2  28 8 0 0.000000000000000 3575.999967717427353
0

0101000
+13 5 -13 7 *
Ed
 0.000000500000000 1 1 0
1  23 0 0.000000000000000 40.000000000000000
2  29 17 16 0.000000000000000 40.000000000000000
2  30 17 18 0.000000000000000 40.000000000000000
2  31 15 19 0.000000000000000 40.000000000000000
2  32 15 20 0.000000000000000 40.000000000000000
0

0101000
+18 11 -13 11 *
Wi

0101100
+17 0 -12 0 -11 10 +11 12 *
Fa
0  0.000000500000000 15 0

0101000
+10 0 *
Ed
 0.000000500000000 1 1 0
1  24 0 0.000000000000000 351.294228634132196
2  33 18 16 0.000000000000000 351.294228634132196
2  34 18 18 0.000000000000000 351.294228634132196
2  35 8 19 0.000000000000000 351.294228634132196
2  36 8 20 0.000000000000000 351.294228634132196
0

0101000
+13 11 -35 11 *
Wi

0101100
+12 0 -34 0 -8 10 +8 12 *
Fa
0  0.000000500000000 8 0

0101000
+7 0 *
Wi

0101100
+61 21 +56 21 +51 21 +46 21 +41 21 +38 21 *
Wi

0101100
-31 21 -26 21 -21 21 -16 21 -11 21 -8 21 *
Fa
0  0.000000500000000 19 0

0101000
+5 0 +4 0 *
Sh

0101100
+59 0 +54 0 +49 0 +44 0 +39 0 +36 0 -29 0 -24 0 -19 0 -14 0 
-9 0 -6 0 +3 5 -3 7 *
So

1100000
+2 0 *

+1 0 