
CASCADE Topology V1, (c) Matra-Datavision
Locations 66
1
1.000000000000000 0.000000000000000 0.000000000000000 0.000000000000000 
0.000000000000000 1.000000000000000 0.000000000000000 0.000000000000000 
0.000000000000000 0.000000000000000 1.000000000000000 0.000000000000000 
1
1.000000000000000 0.000000000000000 0.000000000000000 0.000000000000000 
0.000000000000000 1.000000000000000 0.000000000000000 0.000000000000000 
0.000000000000000 0.000000000000000 1.000000000000000 0.000000000000000 
1
-0.500000000000001 0.866025403784439 0.000000000000000 0.000000000000000 
-0.866025403784439 -0.500000000000001 0.000000000000000 0.000000000000000 
0.000000000000000 0.000000000000000 1.000000000000001 0.000000000000000 
1
1.000000000000000 0.000000000000000 0.000000000000000 0.000000000000000 
0.000000000000000 1.000000000000000 0.000000000000000 0.000000000000000 
0.000000000000000 0.000000000000000 1.000000000000000 0.000000000000000 
1
1.000000000000000 0.000000000000000 0.000000000000000 0.000000000000000 
0.000000000000000 1.000000000000000 0.000000000000000 0.000000000000000 
0.000000000000000 0.000000000000000 1.000000000000000 0.000000000000000 
1
1.000000000000000 0.000000000000000 0.000000000000000 0.000000000000000 
0.000000000000000 1.000000000000000 0.000000000000000 0.000000000000000 
0.000000000000000 0.000000000000000 1.000000000000000 0.000000000000000 
1
1.000000000000000 0.000000000000000 0.000000000000000 0.000000000000000 
0.000000000000000 1.000000000000000 0.000000000000000 0.000000000000000 
0.000000000000000 0.000000000000000 1.000000000000000 0.000000000000000 
1
1.000000000000000 0.000000000000000 0.000000000000000 0.000000000000000 
0.000000000000000 1.000000000000000 0.000000000000000 0.000000000000000 
0.000000000000000 0.000000000000000 1.000000000000000 0.000000000000000 
1
1.000000000000000 0.000000000000000 0.000000000000000 0.000000000000000 
0.000000000000000 1.000000000000000 0.000000000000000 0.000000000000000 
0.000000000000000 0.000000000000000 1.000000000000000 0.000000000000000 
2  2 1 3 1 4 1 5 1 6 1 7 1 8 1 9 -1 0
1
1.000000000000000 0.000000000000000 0.000000000000000 0.000000000000000 
0.000000000000000 1.000000000000000 0.000000000000000 0.000000000000000 
0.000000000000000 0.000000000000000 1.000000000000000 3.000000000000000 
2  2 1 3 1 4 1 5 1 6 1 7 1 8 1 9 -1 11 1 0
1
1.000000000000000 0.000000000000000 0.000000000000000 0.000000000000000 
0.000000000000000 1.000000000000000 0.000000000000000 0.000000000000000 
0.000000000000000 0.000000000000000 1.000000000000000 0.000000000000000 
1
1.000000000000000 0.000000000000000 0.000000000000000 0.000000000000000 
0.000000000000000 1.000000000000000 0.000000000000000 0.000000000000000 
0.000000000000000 0.000000000000000 1.000000000000000 0.000000000000000 
1
1.000000000000000 0.000000000000000 0.000000000000000 0.000000000000000 
0.000000000000000 1.000000000000000 0.000000000000000 0.000000000000000 
0.000000000000000 0.000000000000000 1.000000000000000 0.000000000000000 
2  13 1 14 1 15 1 2 1 3 1 4 1 5 1 6 1 7 1 8 1 9 -1 0
2  6 -1 5 -1 4 -1 3 -1 2 -1 15 -1 14 -1 13 -1 0
1
1.000000000000000 0.000000000000000 0.000000000000000 0.000000000000000 
0.000000000000000 1.000000000000000 0.000000000000000 0.000000000000000 
0.000000000000000 0.000000000000000 1.000000000000000 0.000000000000000 
2  6 -1 5 -1 4 -1 18 -1 2 -1 15 -1 14 -1 13 -1 0
2  15 -1 14 -1 13 -1 0
2  13 1 14 1 15 1 2 1 3 1 4 1 5 1 6 1 7 1 8 1 9 -1 11 1 0
2  9 1 8 -1 7 -1 6 -1 5 -1 4 -1 3 -1 2 -1 15 -1 14 -1 13 -1 0
2  11 -1 9 1 8 -1 7 -1 6 -1 5 -1 4 -1 3 -1 2 -1 15 -1 14 -1 13 -1 0
2  9 1 8 -1 7 -1 6 -1 5 -1 4 -1 18 -1 2 -1 15 -1 14 -1 13 -1 0
2  11 -1 9 1 8 -1 7 -1 6 -1 5 -1 4 -1 18 -1 2 -1 15 -1 14 -1 13 -1 0
1
-0.500000000000000 -0.866025403784439 0.000000000000000 0.000000000000000 
0.866025403784439 -0.500000000000000 0.000000000000000 0.000000000000000 
0.000000000000000 0.000000000000000 1.000000000000000 0.000000000000000 
2  9 1 8 -1 7 -1 6 -1 5 -1 4 -1 26 -1 2 -1 15 -1 14 -1 13 -1 0
2  11 -1 9 1 8 -1 7 -1 6 -1 5 -1 4 -1 26 -1 2 -1 15 -1 14 -1 13 -1 0
2  6 -1 5 -1 4 -1 26 -1 2 -1 15 -1 14 -1 13 -1 0
2  2 1 18 1 4 1 5 1 6 1 7 1 8 1 9 -1 0
2  2 1 18 1 4 1 5 1 6 1 7 1 8 1 9 -1 11 1 0
2  2 1 18 1 3 -1 2 -1 15 -1 14 -1 13 -1 0
1
1.000000000000000 0.000000000000000 0.000000000000000 0.000000000000000 
0.000000000000000 1.000000000000000 0.000000000000000 0.000000000000000 
0.000000000000000 0.000000000000000 1.000000000000000 0.000000000000000 
1
1.000000000000000 0.000000000000000 0.000000000000000 0.000000000000000 
0.000000000000000 1.000000000000000 0.000000000000000 0.000000000000000 
0.000000000000000 0.000000000000000 1.000000000000000 0.000000000000000 
2  33 1 34 1 15 1 2 1 18 1 4 1 5 1 6 1 7 1 8 1 9 -1 0
2  9 1 8 -1 7 -1 6 -1 5 -1 4 -1 18 -1 2 -1 15 -1 34 -1 33 -1 0
2  11 -1 9 1 8 -1 7 -1 6 -1 5 -1 4 -1 18 -1 2 -1 15 -1 34 -1 33 -1 0
2  6 -1 5 -1 4 -1 18 -1 2 -1 15 -1 34 -1 33 -1 0
2  15 -1 34 -1 33 -1 0
2  33 1 34 1 15 1 2 1 18 1 4 1 5 1 6 1 7 1 8 1 9 -1 11 1 0
2  6 -1 5 -1 4 -1 26 -1 2 -1 15 -1 34 -1 33 -1 0
2  6 -1 5 -1 4 -1 3 -1 2 -1 15 -1 34 -1 33 -1 0
2  9 1 8 -1 7 -1 6 -1 5 -1 4 -1 26 -1 2 -1 15 -1 34 -1 33 -1 0
2  11 -1 9 1 8 -1 7 -1 6 -1 5 -1 4 -1 26 -1 2 -1 15 -1 34 -1 33 -1 0
2  9 1 8 -1 7 -1 6 -1 5 -1 4 -1 3 -1 2 -1 15 -1 34 -1 33 -1 0
2  11 -1 9 1 8 -1 7 -1 6 -1 5 -1 4 -1 3 -1 2 -1 15 -1 34 -1 33 -1 0
2  13 1 14 1 15 1 2 1 18 1 4 1 5 1 6 1 7 1 8 1 9 -1 0
2  13 1 14 1 15 1 2 1 18 1 4 1 5 1 6 1 7 1 8 1 9 -1 11 1 0
2  2 1 26 1 4 1 5 1 6 1 7 1 8 1 9 -1 0
2  2 1 26 1 4 1 5 1 6 1 7 1 8 1 9 -1 11 1 0
2  33 1 34 1 15 1 2 1 26 1 4 1 5 1 6 1 7 1 8 1 9 -1 0
2  2 1 18 1 26 -1 2 -1 15 -1 34 -1 33 -1 0
2  33 1 34 1 15 1 2 1 26 1 4 1 5 1 6 1 7 1 8 1 9 -1 11 1 0
2  13 1 14 1 15 1 2 1 26 1 4 1 5 1 6 1 7 1 8 1 9 -1 0
2  13 1 14 1 15 1 2 1 26 1 4 1 5 1 6 1 7 1 8 1 9 -1 11 1 0
2  33 1 34 1 15 1 2 1 3 1 4 1 5 1 6 1 7 1 8 1 9 -1 0
2  2 1 26 1 3 -1 2 -1 15 -1 34 -1 33 -1 0
2  33 1 34 1 15 1 2 1 3 1 4 1 5 1 6 1 7 1 8 1 9 -1 11 1 0
2  7 1 8 1 9 -1 0
2  13 1 14 1 15 1 2 1 3 1 4 1 5 1 6 1 0
2  33 1 34 1 15 1 2 1 18 1 4 1 5 1 6 1 0
2  13 1 14 1 15 1 2 1 18 1 4 1 5 1 6 1 0
2  33 1 34 1 15 1 2 1 26 1 4 1 5 1 6 1 0
2  13 1 14 1 15 1 2 1 26 1 4 1 5 1 6 1 0
2  33 1 34 1 15 1 2 1 3 1 4 1 5 1 6 1 0
2  7 1 8 1 9 -1 11 1 0
Curve2ds 72
1 1.57079632679489611 0.00000000000000000 0.00000000000000000 -1.00000000000000000 
1 329.08965343808665693 -190.00000000000019895 0.50000000000000067 0.86602540378443837 
1 0.00000000000001211 380.00000000000005684 -1.00000000000000000 0.00000000000000000 
1 0.00000000000000012 0.00000000000000000 0.00000000000000000 -1.00000000000000000 
1 0.00000000000000000 0.00000000000000000 1.00000000000000000 0.00000000000000000 
1 0.00000000000000000 -3.00000000000000000 1.00000000000000000 0.00000000000000000 
1 0.00000000000000000 0.00000000000000000 1.00000000000000000 0.00000000000000000 
1 0.00000000000000000 -3.00000000000000000 1.00000000000000000 0.00000000000000000 
1 0.00000000000000000 0.00000000000000000 1.00000000000000000 0.00000000000000000 
1 0.00000000000000000 -3.00000000000000000 1.00000000000000000 0.00000000000000000 
2 342.99157722673334092 -159.92116167511377967 0.50000000000000067 0.86602540378443837 0.86602540378443837 -0.50000000000000067 3.00000000000000000
2 -32.99999999999992895 377.00000000000005684 -1.00000000000000000 0.00000000000000000 0.00000000000000000 1.00000000000000000 3.00000000000000000
2 -309.99157722673351145 -217.07883832488627718 0.49999999999999978 -0.86602540378443882 -0.86602540378443882 -0.49999999999999978 3.00000000000000000
1 3.14159265358978468 0.00000000000000000 0.00000000000000000 -1.00000000000000000 
1 344.49157722673334092 -157.32308546376046365 -0.86602540378443837 0.50000000000000067 
1 -35.99999999999992895 377.00000000000005684 0.00000000000000000 -1.00000000000000000 
1 -308.49157722673351145 -219.67691453623959319 0.86602540378443882 0.49999999999999978 
1 3.66519142918779206 0.00000000000000000 0.00000000000000000 -1.00000000000000000 
1 3.66519142918779206 0.00000000000000000 0.00000000000000000 -1.00000000000000000 
1 0.00000000000000000 0.00000000000000000 1.00000000000000000 0.00000000000000000 
1 0.00000000000000000 -3.00000000000000000 1.00000000000000000 0.00000000000000000 
2 605.41418266098423828 349.53604133077806182 0.50000000000000067 0.86602540378443837 0.86602540378443837 -0.50000000000000067 569.41418266119364944
1 3.14159265358978468 0.00000000000000000 0.00000000000000000 -1.00000000000000000 
1 0.00000000000000000 0.00000000000000000 1.00000000000000000 0.00000000000000000 
1 0.00000000000000000 -3.00000000000000000 1.00000000000000000 0.00000000000000000 
2 605.41418266119342206 349.53604133041523028 1.00000000000000000 0.00000000000000000 -0.00000000000000000 1.00000000000000000 569.41418266119364944
1 0.00000000000000012 0.00000000000000000 0.00000000000000000 -1.00000000000000000 
1 35.99999999999995737 377.00000000000005684 0.00000000000000000 -1.00000000000000000 
1 -344.49157722673339777 -157.32308546376006575 0.86602540378443882 0.49999999999999978 
1 308.49157722673334092 -219.67691453623996267 -0.86602540378443837 0.50000000000000067 
1 1.57079632679489611 0.00000000000000000 0.00000000000000000 -1.00000000000000000 
1 0.00000000000000000 0.00000000000000000 1.00000000000000000 0.00000000000000000 
1 0.00000000000000000 -3.00000000000000000 1.00000000000000000 0.00000000000000000 
1 0.00000000000000000 0.00000000000000000 1.00000000000000000 0.00000000000000000 
1 0.00000000000000000 -3.00000000000000000 1.00000000000000000 0.00000000000000000 
1 0.00000000000000000 0.00000000000000000 1.00000000000000000 0.00000000000000000 
1 0.00000000000000000 -3.00000000000000000 1.00000000000000000 0.00000000000000000 
2 32.99999999999995737 377.00000000000005684 1.00000000000000000 0.00000000000000000 -0.00000000000000000 1.00000000000000000 3.00000000000000000
2 -342.99157722673339777 -159.92116167511338176 -0.49999999999999978 0.86602540378443882 -0.86602540378443882 -0.49999999999999978 3.00000000000000000
2 309.99157722673334092 -217.07883832488664666 -0.50000000000000067 -0.86602540378443837 0.86602540378443837 -0.50000000000000067 3.00000000000000000
1 0.00000000000001211 380.00000000000005684 1.00000000000000000 0.00000000000000000 
1 1.57079632679489611 0.00000000000000000 0.00000000000000000 -1.00000000000000000 
1 0.00000000000000012 0.00000000000000000 0.00000000000000000 -1.00000000000000000 
1 3.14159265358978468 0.00000000000000000 0.00000000000000000 -1.00000000000000000 
1 3.66519142918779206 0.00000000000000000 0.00000000000000000 -1.00000000000000000 
1 3.66519142918779206 0.00000000000000000 0.00000000000000000 -1.00000000000000000 
1 0.00000000000000000 0.00000000000000000 1.00000000000000000 0.00000000000000000 
1 0.00000000000000000 -3.00000000000000000 1.00000000000000000 0.00000000000000000 
1 0.00000000000000000 0.00000000000000000 1.00000000000000000 0.00000000000000000 
1 0.00000000000000000 -3.00000000000000000 1.00000000000000000 0.00000000000000000 
2 -605.41418266119342206 349.53604133041523028 -1.00000000000000000 0.00000000000000000 0.00000000000000000 1.00000000000000000 569.41418266119364944
2 0.00000000020953696 -699.07208266119334894 0.49999999999999978 -0.86602540378443882 -0.86602540378443882 -0.49999999999999978 569.41418266119353575
1 3.14159265358978468 0.00000000000000000 0.00000000000000000 -1.00000000000000000 
1 0.00000000000000000 0.00000000000000000 1.00000000000000000 0.00000000000000000 
1 0.00000000000000000 -3.00000000000000000 1.00000000000000000 0.00000000000000000 
2 -605.41418266098366985 349.53604133077857341 -0.49999999999999978 0.86602540378443882 -0.86602540378443882 -0.49999999999999978 569.41418266119353575
1 0.00000000000000012 0.00000000000000000 0.00000000000000000 -1.00000000000000000 
1 1.57079632679489611 0.00000000000000000 0.00000000000000000 -1.00000000000000000 
1 -329.08965343808677062 -189.99999999999982947 -0.49999999999999978 0.86602540378443882 
1 1.57079632679489611 0.00000000000000000 0.00000000000000000 -1.00000000000000000 
1 -329.08965343808677062 -189.99999999999982947 0.49999999999999978 -0.86602540378443882 
1 0.00000000000000012 0.00000000000000000 0.00000000000000000 -1.00000000000000000 
1 3.14159265358978468 0.00000000000000000 0.00000000000000000 -1.00000000000000000 
1 3.66519142918779206 0.00000000000000000 0.00000000000000000 -1.00000000000000000 
1 3.66519142918779206 0.00000000000000000 0.00000000000000000 -1.00000000000000000 
1 3.14159265358978468 0.00000000000000000 0.00000000000000000 -1.00000000000000000 
1 0.00000000000000000 0.00000000000000000 1.00000000000000000 0.00000000000000000 
1 0.00000000000000000 -3.00000000000000000 1.00000000000000000 0.00000000000000000 
2 -0.00000000021013801 -699.07208266119357631 -0.50000000000000067 -0.86602540378443837 0.86602540378443837 -0.50000000000000067 569.41418266119364944
1 0.00000000000000012 0.00000000000000000 0.00000000000000000 -1.00000000000000000 
1 1.57079632679489611 0.00000000000000000 0.00000000000000000 -1.00000000000000000 
1 329.08965343808665693 -190.00000000000019895 -0.50000000000000067 -0.86602540378443837 
Curves 32
1 329.08965343808671378 -190.00000000000031264 0.00000000000000000 0.00000000000000000 0.00000000000000000 1.00000000000000000 
1 345.58965343808665693 -161.42116167511386493 0.00000000000000000 0.00000000000000000 0.00000000000000000 1.00000000000000000 
1 -0.00000000000000000 380.00000000000000000 0.00000000000000000 -1.00000000000000000 -0.00000000000000000 -0.00000000000000000 
1 344.49157722673334092 -157.32308546376054892 0.00000000000000000 0.00000000000000000 0.00000000000000000 1.00000000000000000 
2 -32.99999999999994316 377.00000000000000000 0.00000000000000000 0.00000000000000000 0.00000000000000000 -1.00000000000000000 -1.00000000000000000 -0.00000000000000000 -0.00000000000000000 -0.00000000000000000 1.00000000000000000 0.00000000000000000 3.00000000000000000
1 320.70709133039122207 -143.59110612897057990 0.00000000000000000 0.00000000000000000 0.00000000000000000 1.00000000000000000 
1 -35.99999999999994316 377.00000000000000000 0.00000000000000000 -0.00000000000000000 -1.00000000000000000 -0.00000000000000000 
1 112.28703520134243377 64.82894999999990659 0.00000000000000000 0.00000000000000000 0.00000000000000000 1.00000000000000000 
2 -605.41418266119342206 349.53604133041517343 0.00000000000000000 0.00000000000000000 0.00000000000000000 -1.00000000000000000 -1.00000000000000000 -0.00000000000000000 -0.00000000000000000 -0.00000000000000000 1.00000000000000000 0.00000000000000000 569.41418266119353575
1 35.99999999999993605 349.53604133042011881 0.00000000000000000 0.00000000000000000 0.00000000000000000 1.00000000000000000 
2 605.41418266119342206 349.53604133041517343 0.00000000000000000 0.00000000000000000 0.00000000000000000 1.00000000000000000 1.00000000000000000 0.00000000000000000 -0.00000000000000000 -0.00000000000000000 1.00000000000000000 0.00000000000000000 569.41418266119353575
1 35.99999999999994316 377.00000000000000000 0.00000000000000000 0.00000000000000000 0.00000000000000000 1.00000000000000000 
1 35.99999999999994316 377.00000000000000000 0.00000000000000000 0.00000000000000000 -1.00000000000000000 0.00000000000000000 
1 32.99999999999994316 380.00000000000000000 0.00000000000000000 0.00000000000000000 0.00000000000000000 1.00000000000000000 
2 32.99999999999994316 377.00000000000000000 0.00000000000000000 0.00000000000000000 0.00000000000000000 1.00000000000000000 1.00000000000000000 0.00000000000000000 -0.00000000000000000 -0.00000000000000000 1.00000000000000000 0.00000000000000000 3.00000000000000000
1 -0.00000000000002842 380.00000000000011369 0.00000000000000000 0.00000000000000000 0.00000000000000000 1.00000000000000000 
1 0.00000000000000000 380.00000000000000000 0.00000000000000000 1.00000000000000000 0.00000000000000000 0.00000000000000000 
1 -32.99999999999994316 380.00000000000000000 0.00000000000000000 0.00000000000000000 0.00000000000000000 1.00000000000000000 
1 -35.99999999999994316 377.00000000000000000 0.00000000000000000 0.00000000000000000 0.00000000000000000 1.00000000000000000 
1 -35.99999999999991473 349.53604133042006197 0.00000000000000000 0.00000000000000000 0.00000000000000000 1.00000000000000000 
1 -112.28703520134233429 64.82895000000009134 0.00000000000000000 0.00000000000000000 0.00000000000000000 1.00000000000000000 
1 -320.70709133039133576 -143.59110612897023884 0.00000000000000000 0.00000000000000000 0.00000000000000000 1.00000000000000000 
1 -344.49157722673339777 -157.32308546376015101 0.00000000000000000 0.00000000000000000 0.00000000000000000 1.00000000000000000 
1 -345.58965343808671378 -161.42116167511346703 0.00000000000000000 0.00000000000000000 0.00000000000000000 1.00000000000000000 
1 -329.08965343808677062 -189.99999999999991473 0.00000000000000000 0.00000000000000000 0.00000000000000000 1.00000000000000000 
1 -312.58965343808682746 -218.57883832488636244 0.00000000000000000 0.00000000000000000 0.00000000000000000 1.00000000000000000 
1 -308.49157722673351145 -219.67691453623967845 0.00000000000000000 0.00000000000000000 0.00000000000000000 1.00000000000000000 
1 -284.70709133039139260 -205.94493520144968102 0.00000000000000000 0.00000000000000000 0.00000000000000000 1.00000000000000000 
1 -0.00000000000013500 -129.65790000000001214 0.00000000000000000 0.00000000000000000 0.00000000000000000 1.00000000000000000 
1 284.70709133039127892 -205.94493520145007892 0.00000000000000000 0.00000000000000000 0.00000000000000000 1.00000000000000000 
1 308.49157722673334092 -219.67691453624004794 0.00000000000000000 0.00000000000000000 0.00000000000000000 1.00000000000000000 
1 312.58965343808665693 -218.57883832488673193 0.00000000000000000 0.00000000000000000 0.00000000000000000 1.00000000000000000 
Polygon3D 0
PolygonOnTriangulations 0
Surfaces 25
1 329.08965343808665693 -190.00000000000028422 0.00000000000000000 -0.86602540378443837 0.50000000000000067 0.00000000000000000 0.50000000000000067 0.86602540378443837 -0.00000000000000000 -0.00000000000000000 0.00000000000000000 -1.00000000000000000 
1 329.08965343808665693 -190.00000000000028422 0.00000000000000000 0.86602540378443837 -0.50000000000000067 0.00000000000000000 -0.50000000000000067 -0.86602540378443837 0.00000000000000000 0.00000000000000000 -0.00000000000000000 -1.00000000000000000 
2 342.99157722673334092 -159.92116167511386493 0.00000000000000000 0.00000000000000000 -0.00000000000000000 -1.00000000000000000 0.50000000000000067 0.86602540378443837 0.00000000000000000 0.86602540378443837 -0.50000000000000067 0.00000000000000000 3.00000000000000089
1 -0.00000000000001211 -0.00000000000007665 0.00000000000000000 0.00000000000000000 0.00000000000000000 1.00000000000000000 1.00000000000000000 0.00000000000000000 -0.00000000000000000 -0.00000000000000000 1.00000000000000000 0.00000000000000000 
1 344.49157722673334092 -157.32308546376054892 0.00000000000000000 -0.50000000000000067 -0.86602540378443837 0.00000000000000000 -0.86602540378443837 0.50000000000000067 0.00000000000000000 -0.00000000000000000 0.00000000000000000 -1.00000000000000000 
2 -32.99999999999994316 377.00000000000000000 0.00000000000000000 0.00000000000000000 0.00000000000000000 -1.00000000000000000 -1.00000000000000000 -0.00000000000000000 -0.00000000000000000 -0.00000000000000000 1.00000000000000000 0.00000000000000000 3.00000000000000000
2 -309.99157722673351145 -217.07883832488636244 0.00000000000000000 -0.00000000000000000 0.00000000000000000 -1.00000000000000000 0.49999999999999978 -0.86602540378443882 -0.00000000000000000 -0.86602540378443882 -0.49999999999999978 0.00000000000000000 3.00000000000000000
2 605.41418266098423828 349.53604133077800498 0.00000000000000000 0.00000000000000000 -0.00000000000000000 -1.00000000000000000 0.50000000000000067 0.86602540378443837 0.00000000000000000 0.86602540378443837 -0.50000000000000067 0.00000000000000000 569.41418266119364944
2 605.41418266119342206 349.53604133041517343 0.00000000000000000 -0.00000000000000000 -0.00000000000000000 -1.00000000000000000 1.00000000000000000 0.00000000000000000 0.00000000000000000 -0.00000000000000000 1.00000000000000000 -0.00000000000000000 569.41418266119353575
1 35.99999999999994316 377.00000000000000000 0.00000000000000000 1.00000000000000000 0.00000000000000000 -0.00000000000000000 0.00000000000000000 -1.00000000000000000 0.00000000000000000 0.00000000000000000 -0.00000000000000000 -1.00000000000000000 
2 32.99999999999994316 377.00000000000000000 0.00000000000000000 -0.00000000000000000 -0.00000000000000000 -1.00000000000000000 1.00000000000000000 0.00000000000000000 0.00000000000000000 -0.00000000000000000 1.00000000000000000 -0.00000000000000000 3.00000000000000000
1 0.00000000000000000 380.00000000000000000 0.00000000000000000 0.00000000000000000 1.00000000000000000 0.00000000000000000 1.00000000000000000 0.00000000000000000 0.00000000000000000 0.00000000000000000 0.00000000000000000 -1.00000000000000000 
2 -342.99157722673339777 -159.92116167511346703 0.00000000000000000 -0.00000000000000000 -0.00000000000000000 -1.00000000000000000 -0.49999999999999978 0.86602540378443882 0.00000000000000000 -0.86602540378443882 -0.49999999999999978 0.00000000000000000 3.00000000000000000
2 309.99157722673334092 -217.07883832488673193 0.00000000000000000 -0.00000000000000000 -0.00000000000000000 -1.00000000000000000 -0.50000000000000067 -0.86602540378443837 0.00000000000000000 0.86602540378443837 -0.50000000000000067 -0.00000000000000000 3.00000000000000089
1 -0.00000000000000000 380.00000000000000000 0.00000000000000000 0.00000000000000000 -1.00000000000000000 0.00000000000000000 -1.00000000000000000 0.00000000000000000 0.00000000000000000 -0.00000000000000000 -0.00000000000000000 -1.00000000000000000 
1 -35.99999999999994316 377.00000000000000000 0.00000000000000000 1.00000000000000000 0.00000000000000000 0.00000000000000000 0.00000000000000000 -1.00000000000000000 0.00000000000000000 0.00000000000000000 0.00000000000000000 -1.00000000000000000 
2 -605.41418266119342206 349.53604133041517343 0.00000000000000000 0.00000000000000000 0.00000000000000000 -1.00000000000000000 -1.00000000000000000 -0.00000000000000000 -0.00000000000000000 -0.00000000000000000 1.00000000000000000 0.00000000000000000 569.41418266119353575
2 -605.41418266098366985 349.53604133077851657 0.00000000000000000 -0.00000000000000000 -0.00000000000000000 -1.00000000000000000 -0.49999999999999978 0.86602540378443882 0.00000000000000000 -0.86602540378443882 -0.49999999999999978 0.00000000000000000 569.41418266119353575
2 0.00000000020952484 -699.07208266119346263 0.00000000000000000 -0.00000000000000000 0.00000000000000000 -1.00000000000000000 0.49999999999999978 -0.86602540378443882 -0.00000000000000000 -0.86602540378443882 -0.49999999999999978 0.00000000000000000 569.41418266119353575
1 -344.49157722673339777 -157.32308546376015101 0.00000000000000000 -0.49999999999999978 0.86602540378443882 0.00000000000000000 0.86602540378443882 0.49999999999999978 0.00000000000000000 0.00000000000000000 0.00000000000000000 -1.00000000000000000 
1 -329.08965343808677062 -189.99999999999991473 0.00000000000000000 -0.86602540378443882 -0.49999999999999978 0.00000000000000000 -0.49999999999999978 0.86602540378443882 0.00000000000000000 -0.00000000000000000 0.00000000000000000 -1.00000000000000000 
1 -329.08965343808677062 -189.99999999999991473 0.00000000000000000 0.86602540378443882 0.49999999999999978 -0.00000000000000000 0.49999999999999978 -0.86602540378443882 0.00000000000000000 0.00000000000000000 -0.00000000000000000 -1.00000000000000000 
1 -308.49157722673351145 -219.67691453623967845 0.00000000000000000 -0.49999999999999978 0.86602540378443882 0.00000000000000000 0.86602540378443882 0.49999999999999978 -0.00000000000000000 -0.00000000000000000 0.00000000000000000 -1.00000000000000000 
2 -0.00000000021015012 -699.07208266119369000 0.00000000000000000 -0.00000000000000000 -0.00000000000000000 -1.00000000000000000 -0.50000000000000067 -0.86602540378443837 0.00000000000000000 0.86602540378443837 -0.50000000000000067 -0.00000000000000000 569.41418266119364944
1 308.49157722673334092 -219.67691453624004794 0.00000000000000000 -0.50000000000000067 -0.86602540378443837 0.00000000000000000 -0.86602540378443837 0.50000000000000067 0.00000000000000000 -0.00000000000000000 0.00000000000000000 -1.00000000000000000 
Triangulations 0

TShapes 100
Ve
0.000000100000000
-0.000000000000028 380.000000000000114 0.000000000000000
0 0

0101101
*
Ed
 0.000000100000000 1 1 0
1  1 0 0.000000000000000 3.000000000000000
4 C2 1 0 2 0
0

0101000
+100 10 -100 12 *
Ve
0.000000100000000
-32.999999999999943 380.000000000000000 0.000000000000000
0 0

0101101
*
Ed
 0.000000100000000 1 1 0
1  2 0 0.000000000000000 3.000000000000000
2  1 3 0 0.000000000000000 3.000000000000000
4 G1 1 0 3 0
0

0101000
+98 10 -98 12 *
Ed
 0.000000100000000 1 1 0
1  3 0 0.000000000000000 32.999999999999943
2  2 4 17 0.000000000000000 32.999999999999943
2  3 4 19 0.000000000000000 32.999999999999943
0

0101000
+100 20 -98 20 *
Wi

0101100
+99 0 -97 0 -96 16 +96 21 *
Fa
0  0.000000100000000 1 0

0101000
+95 0 *
Ve
0.000000100000000
-35.999999999999943 377.000000000000000 0.000000000000000
0 0

0101101
*
Ed
 0.000000100000000 1 1 0
1  4 0 0.000000000000000 3.000000000000000
2  4 3 0 0.000000000000000 3.000000000000000
4 G1 3 0 5 0
0

0101000
+93 10 -93 12 *
Ed
 0.000000100000000 1 1 0
1  5 0 0.000000000000000 1.570796326794896
2  5 3 22 0.000000000000000 1.570796326794896
2  6 3 23 0.000000000000000 1.570796326794896
2  7 6 24 0.000000000000000 1.570796326794896
2  8 6 25 0.000000000000000 1.570796326794896
2  9 7 27 0.000000000000000 1.570796326794896
2  10 7 28 0.000000000000000 1.570796326794896
2  11 4 17 0.000000000000000 1.570796326794896
2  12 4 19 0.000000000000000 1.570796326794896
2  13 4 29 0.000000000000000 1.570796326794896
0

0101000
+93 20 -98 20 *
Wi

0101100
+92 0 -97 0 -91 16 +91 21 *
Fa
0  0.000000100000000 3 0

0101000
+90 0 *
Ve
0.000000100000028
-35.999999999999915 349.536041330420062 0.000000000000000
0 0

0101101
*
Ed
 0.000000100000028 1 1 0
1  6 0 0.000000000000000 3.000000000000000
2  14 8 0 0.000000000000000 3.000000000000000
4 G1 5 0 8 0
0

0101000
+88 10 -88 12 *
Ed
 0.000000100000000 1 1 0
1  7 0 0.000000000000000 27.463958669579938
2  15 4 17 0.000000000000000 27.463958669579938
2  16 4 19 0.000000000000000 27.463958669579938
2  17 4 29 0.000000000000000 27.463958669579938
0

0101000
+93 20 -88 20 *
Wi

0101100
+92 0 -87 0 -86 16 +86 21 *
Fa
0  0.000000100000000 5 0

0101000
+85 0 *
Ve
0.000000100038824
112.287035201342434 64.828949999999907 0.000000000000000
0 0

0101101
*
Ed
 0.000000100038824 1 1 0
1  8 0 0.000000000000000 3.000000000000000
2  18 8 0 0.000000000000000 3.000000000000000
2  19 9 0 0.000000000000000 3.000000000000000
4 C2 8 0 9 0
0

0101000
+83 30 -83 31 *
Ed
 0.000000100000000 1 1 0
1  9 0 3.141592653589785 3.665191429187792
2  20 8 22 3.141592653589785 3.665191429187792
2  21 8 23 3.141592653589785 3.665191429187792
2  22 4 17 3.141592653589785 3.665191429187792
0

0101000
+88 20 -83 32 *
Wi

0101100
+87 0 -82 0 -81 16 +81 21 *
Fa
0  0.000000100000000 8 0

0101000
+80 0 *
Ve
0.000000100000028
35.999999999999936 349.536041330420119 0.000000000000000
0 0

0101101
*
Ed
 0.000000100000028 1 1 0
1  10 0 0.000000000000000 3.000000000000000
2  23 9 0 0.000000000000000 3.000000000000000
4 G1 9 0 10 0
0

0101000
+78 30 -78 31 *
Ed
 0.000000100000000 1 1 0
1  11 0 3.141592653589785 3.665191429187792
2  24 9 36 3.141592653589785 3.665191429187792
2  25 9 37 3.141592653589785 3.665191429187792
2  26 4 38 3.141592653589785 3.665191429187792
0

0101000
+78 39 -83 39 *
Wi

0101100
+77 0 -82 0 -76 35 +76 40 *
Fa
0  0.000000100000000 9 0

0101000
+75 0 *
Ve
0.000000100000000
35.999999999999943 377.000000000000000 0.000000000000000
0 0

0101101
*
Ed
 0.000000100000000 1 1 0
1  12 0 0.000000000000000 3.000000000000000
2  27 11 0 0.000000000000000 3.000000000000000
4 G1 10 0 11 0
0

0101000
+73 30 -73 31 *
Ed
 0.000000100000000 1 1 0
1  13 0 0.000000000000000 27.463958669579938
2  28 4 38 0.000000000000000 27.463958669579938
2  29 4 41 0.000000000000000 27.463958669579938
2  30 4 42 0.000000000000000 27.463958669579938
0

0101000
+73 39 -78 39 *
Wi

0101100
+72 0 -77 0 -71 35 +71 40 *
Fa
0  0.000000100000000 10 0

0101000
+70 0 *
Ve
0.000000100000000
32.999999999999943 380.000000000000000 0.000000000000000
0 0

0101101
*
Ed
 0.000000100000000 1 1 0
1  14 0 0.000000000000000 3.000000000000000
2  31 11 0 0.000000000000000 3.000000000000000
4 G1 11 0 12 0
0

0101000
+68 30 -68 31 *
Ed
 0.000000100000000 1 1 0
1  15 0 0.000000000000000 1.570796326794896
2  32 11 36 0.000000000000000 1.570796326794896
2  33 11 37 0.000000000000000 1.570796326794896
2  34 13 43 0.000000000000000 1.570796326794896
2  35 13 44 0.000000000000000 1.570796326794896
2  36 14 45 0.000000000000000 1.570796326794896
2  37 14 46 0.000000000000000 1.570796326794896
2  38 4 38 0.000000000000000 1.570796326794896
2  39 4 41 0.000000000000000 1.570796326794896
2  40 4 42 0.000000000000000 1.570796326794896
0

0101000
+73 39 -68 39 *
Wi

0101100
+72 0 -67 0 -66 35 +66 40 *
Fa
0  0.000000100000000 11 0

0101000
+65 0 *
Ed
 0.000000100000000 1 1 0
1  16 0 0.000000000000000 3.000000000000000
4 C2 12 0 15 0
0

0101000
+100 30 -100 31 *
Ed
 0.000000100000000 1 1 0
1  17 0 0.000000000000000 32.999999999999943
2  41 4 38 0.000000000000000 32.999999999999943
0

0101000
+100 39 -68 39 *
Wi

0101100
+63 0 -67 0 -62 35 +62 40 *
Fa
0  0.000000100000000 12 0

0101000
+61 0 *
Ed
 0.000000100000000 1 1 0
1  18 0 0.000000000000000 3.000000000000000
2  42 6 0 0.000000000000000 3.000000000000000
4 G1 15 0 6 0
0

0101000
+98 30 -98 31 *
Wi

0101100
+63 0 -59 0 -96 47 +96 48 *
Fa
0  0.000000100000000 15 0

0101000
+58 0 *
Ed
 0.000000100000000 1 1 0
1  19 0 0.000000000000000 3.000000000000000
2  43 6 0 0.000000000000000 3.000000000000000
4 G1 6 0 16 0
0

0101000
+93 30 -93 31 *
Wi

0101100
+56 0 -59 0 -91 47 +91 48 *
Fa
0  0.000000100000000 6 0

0101000
+55 0 *
Ed
 0.000000100000028 1 1 0
1  20 0 0.000000000000000 3.000000000000000
2  44 17 0 0.000000000000000 3.000000000000000
4 G1 16 0 17 0
0

0101000
+88 30 -88 31 *
Wi

0101100
+56 0 -53 0 -86 47 +86 48 *
Fa
0  0.000000100000000 16 0

0101000
+52 0 *
Ve
0.000000100038921
-112.287035201342334 64.828950000000091 0.000000000000000
0 0

0101101
*
Ed
 0.000000100038921 1 1 0
1  21 0 0.000000000000000 3.000000000000000
2  45 17 0 0.000000000000000 3.000000000000000
2  46 18 0 0.000000000000000 3.000000000000000
4 C2 17 0 18 0
0

0101000
+50 30 -50 31 *
Ed
 0.000000100000000 1 1 0
1  9 0 3.141592653589785 3.665191429187792
2  47 17 24 3.141592653589785 3.665191429187792
2  48 17 25 3.141592653589785 3.665191429187792
2  49 19 27 3.141592653589785 3.665191429187792
2  50 19 28 3.141592653589785 3.665191429187792
2  51 4 19 3.141592653589785 3.665191429187792
2  52 4 29 3.141592653589785 3.665191429187792
0

0101000
+88 20 -50 20 *
Wi

0101100
+53 0 -49 0 -48 47 +48 48 *
Fa
0  0.000000100000000 17 0

0101000
+47 0 *
Ed
 0.000000100000028 1 1 0
1  22 0 0.000000000000000 3.000000000000000
2  53 18 0 0.000000000000000 3.000000000000000
4 G1 18 0 20 0
0

0101000
+78 49 -78 50 *
Ed
 0.000000100000000 1 1 0
1  11 0 3.141592653589785 3.665191429187792
2  54 18 43 3.141592653589785 3.665191429187792
2  55 18 44 3.141592653589785 3.665191429187792
2  56 4 41 3.141592653589785 3.665191429187792
0

0101000
+78 39 -50 52 *
Wi

0101100
+45 0 -49 0 -44 51 +44 53 *
Fa
0  0.000000100000000 18 0

0101000
+43 0 *
Ed
 0.000000100000000 1 1 0
1  23 0 0.000000000000000 3.000000000000000
2  57 13 0 0.000000000000000 3.000000000000000
4 G1 20 0 13 0
0

0101000
+73 49 -73 50 *
Wi

0101100
+41 0 -45 0 -71 51 +71 53 *
Fa
0  0.000000100000000 20 0

0101000
+40 0 *
Ed
 0.000000100000000 1 1 0
1  24 0 0.000000000000000 3.000000000000000
2  58 13 0 0.000000000000000 3.000000000000000
4 G1 13 0 21 0
0

0101000
+68 49 -68 50 *
Wi

0101100
+41 0 -38 0 -66 51 +66 53 *
Fa
0  0.000000100000000 13 0

0101000
+37 0 *
Ve
0.000000100000000
0.000000000000000 380.000000000000000 0.000000000000000
0 0

0101101
*
Ed
 0.000000100000000 1 1 0
1  25 0 0.000000000000000 3.000000000000000
4 C2 21 0 22 0
0

0101000
+35 49 -35 50 *
Ed
 0.000000100000000 1 1 0
1  17 0 0.000000000000000 32.999999999999943
2  59 4 41 0.000000000000000 32.999999999999943
0

0101000
+35 39 -68 39 *
Wi

0101100
+34 0 -38 0 -33 51 +33 53 *
Fa
0  0.000000100000000 21 0

0101000
+32 0 *
Ed
 0.000000100000000 1 1 0
1  26 0 0.000000000000000 3.000000000000000
2  60 7 0 0.000000000000000 3.000000000000000
4 G1 22 0 7 0
0

0101000
+98 49 -98 50 *
Ed
 0.000000100000000 1 1 0
1  3 0 0.000000000000000 32.999999999999943
2  61 4 29 0.000000000000000 32.999999999999943
0

0101000
+35 20 -98 20 *
Wi

0101100
+34 0 -30 0 -29 54 +29 55 *
Fa
0  0.000000100000000 22 0

0101000
+28 0 *
Ed
 0.000000100000000 1 1 0
1  27 0 0.000000000000000 3.000000000000000
2  62 7 0 0.000000000000000 3.000000000000000
4 G1 7 0 23 0
0

0101000
+93 49 -93 50 *
Wi

0101100
+26 0 -30 0 -91 54 +91 55 *
Fa
0  0.000000100000000 7 0

0101000
+25 0 *
Ed
 0.000000100000028 1 1 0
1  28 0 0.000000000000000 3.000000000000000
2  63 19 0 0.000000000000000 3.000000000000000
4 G1 23 0 19 0
0

0101000
+88 49 -88 50 *
Wi

0101100
+26 0 -23 0 -86 54 +86 55 *
Fa
0  0.000000100000000 23 0

0101000
+22 0 *
Ed
 0.000000100038921 1 1 0
1  29 0 0.000000000000000 3.000000000000000
2  64 19 0 0.000000000000000 3.000000000000000
2  65 24 0 0.000000000000000 3.000000000000000
4 C2 19 0 24 0
0

0101000
+50 49 -50 50 *
Wi

0101100
+23 0 -20 0 -48 54 +48 55 *
Fa
0  0.000000100000000 19 0

0101000
+19 0 *
Ed
 0.000000100000028 1 1 0
1  30 0 0.000000000000000 3.000000000000000
2  66 24 0 0.000000000000000 3.000000000000000
4 G1 24 0 25 0
0

0101000
+78 10 -78 12 *
Ed
 0.000000100000000 1 1 0
1  11 0 3.141592653589785 3.665191429187792
2  67 24 45 3.141592653589785 3.665191429187792
2  68 24 46 3.141592653589785 3.665191429187792
2  69 4 42 3.141592653589785 3.665191429187792
0

0101000
+78 39 -50 57 *
Wi

0101100
+17 0 -20 0 -16 56 +16 58 *
Fa
0  0.000000100000000 24 0

0101000
+15 0 *
Ed
 0.000000100000000 1 1 0
1  31 0 0.000000000000000 3.000000000000000
2  70 14 0 0.000000000000000 3.000000000000000
4 G1 25 0 14 0
0

0101000
+73 10 -73 12 *
Wi

0101100
+13 0 -17 0 -71 56 +71 58 *
Fa
0  0.000000100000000 25 0

0101000
+12 0 *
Ed
 0.000000100000000 1 1 0
1  32 0 0.000000000000000 3.000000000000000
2  71 14 0 0.000000000000000 3.000000000000000
4 G1 14 0 2 0
0

0101000
+68 10 -68 12 *
Wi

0101100
+13 0 -10 0 -66 56 +66 58 *
Fa
0  0.000000100000000 14 0

0101000
+9 0 *
Ed
 0.000000100000000 1 1 0
1  17 0 0.000000000000000 32.999999999999943
2  72 4 42 0.000000000000000 32.999999999999943
0

0101000
+100 39 -68 39 *
Wi

0101100
+99 0 -10 0 -7 56 +7 58 *
Fa
0  0.000000100000000 2 0

0101000
+6 0 *
Wi

0101100
+96 60 -91 60 +86 60 +81 60 -76 61 -71 61 +66 61 -62 61 +96 62 -91 62 
+86 62 +48 62 -44 63 -71 63 +66 63 -33 63 +29 64 -91 64 +86 64 +48 64 
-16 65 -71 65 +66 65 -7 65 *
Fa
0  0.000000100000000 4 0

0101000
+4 0 *
Sh

0101100
+94 0 -89 0 +84 0 +79 0 -74 0 -69 0 +64 0 -60 0 +57 0 -54 0 
+51 0 +46 0 -42 0 -39 0 +36 0 -31 0 +27 0 -24 0 +21 0 +18 0 
-14 0 -11 0 +8 0 -5 0 +3 59 -3 66 *
So

1100000
-2 0 *

+1 1 