
CASCADE Topology V1, (c) Matra-Datavision
Locations 31
1
1.000000000000000 0.000000000000000 0.000000000000000 0.000000000000000 
0.000000000000000 1.000000000000000 0.000000000000000 0.000000000000000 
0.000000000000000 0.000000000000000 1.000000000000000 0.000000000000000 
1
0.000000000000000 -0.000000000000000 1.000000000000000 -0.000000000000002 
1.000000000000000 0.000000000000000 -0.000000000000000 -9.999999999999998 
-0.000000000000000 1.000000000000000 0.000000000000000 0.000000000000002 
1
1.000000000000000 0.000000000000000 0.000000000000000 0.000000000000000 
0.000000000000000 1.000000000000000 0.000000000000000 0.000000000000000 
0.000000000000000 0.000000000000000 1.000000000000000 0.000000000000000 
1
1.000000000000000 0.000000000000000 0.000000000000000 132.365157351527074 
0.000000000000000 1.000000000000000 0.000000000000000 -0.000000000000029 
0.000000000000000 0.000000000000000 1.000000000000000 0.000000000000037 
2  1 1 2 1 3 -1 4 1 0
1
1.000000000000000 0.000000000000000 0.000000000000000 -264.730314703054148 
0.000000000000000 1.000000000000000 0.000000000000000 0.000000000000059 
0.000000000000000 0.000000000000000 1.000000000000000 -0.000000000000073 
2  1 1 2 1 3 -1 4 1 6 1 0
2  4 -1 3 1 2 -1 1 -1 0
2  6 -1 4 -1 3 1 2 -1 1 -1 0
1
1.000000000000000 0.000000000000000 0.000000000000000 126.808897885388788 
0.000000000000000 1.000000000000000 0.000000000000000 -0.000000000000028 
0.000000000000000 0.000000000000000 1.000000000000000 0.000000000000028 
1
1.000000000000000 0.000000000000000 0.000000000000000 0.000000000000000 
0.000000000000000 1.000000000000000 0.000000000000000 0.000000000000000 
0.000000000000000 0.000000000000000 1.000000000000000 0.000000000000000 
1
1.000000000000000 0.000000000000000 0.000000000000000 0.000000000000000 
0.000000000000000 1.000000000000000 0.000000000000000 0.000000000000000 
0.000000000000000 0.000000000000000 1.000000000000000 0.000000000000000 
1
1.000000000000000 0.000000000000000 0.000000000000000 0.000000000000000 
0.000000000000000 1.000000000000000 0.000000000000000 0.000000000000000 
0.000000000000000 0.000000000000000 1.000000000000000 0.000000000000000 
1
1.000000000000000 0.000000000000000 0.000000000000000 0.000000000000000 
0.000000000000000 1.000000000000000 0.000000000000000 0.000000000000000 
0.000000000000000 0.000000000000000 1.000000000000000 -1594.000000000000227 
1
1.000000000000000 0.000000000000000 0.000000000000000 0.000000000000000 
0.000000000000000 1.000000000000000 0.000000000000000 -2.000000000000000 
0.000000000000000 0.000000000000000 1.000000000000000 1594.000000000000000 
1
0.000000000000000 -0.000000000000000 1.000000000000000 -0.000000000000002 
1.000000000000000 0.000000000000000 -0.000000000000000 -9.999999999999998 
-0.000000000000000 1.000000000000000 0.000000000000000 0.000000000000002 
2  10 -1 11 1 12 -1 13 -1 14 -1 15 -1 16 -1 0
1
1.000000000000000 0.000000000000000 0.000000000000000 -253.617795770777576 
0.000000000000000 1.000000000000000 0.000000000000000 0.000000000000056 
0.000000000000000 0.000000000000000 1.000000000000000 -0.000000000000056 
2  18 -1 10 -1 11 1 12 -1 13 -1 14 -1 15 -1 16 -1 0
1
1.000000000000000 0.000000000000000 0.000000000000000 126.808897885388788 
0.000000000000000 1.000000000000000 0.000000000000000 -0.000000000000028 
0.000000000000000 0.000000000000000 1.000000000000000 0.000000000000028 
1
1.000000000000000 0.000000000000000 0.000000000000000 0.000000000000000 
0.000000000000000 1.000000000000000 0.000000000000000 0.000000000000000 
0.000000000000000 0.000000000000000 1.000000000000000 0.000000000000000 
1
1.000000000000000 0.000000000000000 0.000000000000000 0.000000000000000 
0.000000000000000 1.000000000000000 0.000000000000000 0.000000000000000 
0.000000000000000 0.000000000000000 1.000000000000000 0.000000000000000 
1
1.000000000000000 0.000000000000000 0.000000000000000 0.000000000000000 
0.000000000000000 1.000000000000000 0.000000000000000 0.000000000000000 
0.000000000000000 0.000000000000000 1.000000000000000 0.000000000000000 
1
1.000000000000000 0.000000000000000 0.000000000000000 0.000000000000000 
0.000000000000000 1.000000000000000 0.000000000000000 0.000000000000000 
0.000000000000000 0.000000000000000 1.000000000000000 -1594.000000000000227 
1
1.000000000000000 0.000000000000000 0.000000000000000 0.000000000000000 
0.000000000000000 1.000000000000000 0.000000000000000 -2.000000000000000 
0.000000000000000 0.000000000000000 1.000000000000000 1594.000000000000000 
2  20 -1 21 1 22 -1 23 -1 24 -1 25 -1 16 -1 0
1
1.000000000000000 0.000000000000000 0.000000000000000 -253.617795770777576 
0.000000000000000 1.000000000000000 0.000000000000000 0.000000000000056 
0.000000000000000 0.000000000000000 1.000000000000000 -0.000000000000056 
2  27 -1 20 -1 21 1 22 -1 23 -1 24 -1 25 -1 16 -1 0
2  3 -1 4 1 0
2  1 1 2 1 0
2  3 -1 4 1 6 1 0
Curve2ds 16
1 0.00000000000000000 0.00000000000000000 0.00000000000000000 -1.00000000000000000 
1 6.28318530717958623 0.00000000000000000 0.00000000000000000 -1.00000000000000000 
1 0.00000000000000000 0.00000000000000000 1.00000000000000000 0.00000000000000000 
1 0.00000000000000000 -264.73031470305414814 1.00000000000000000 0.00000000000000000 
1 0.00000000000000000 0.00000000000000000 1.00000000000000000 0.00000000000000000 
1 0.00000000000000000 -253.61779577077757608 1.00000000000000000 0.00000000000000000 
1 0.00000000000000000 0.00000000000000000 1.00000000000000000 0.00000000000000000 
1 0.00000000000000000 -253.61779577077757608 1.00000000000000000 0.00000000000000000 
1 0.00000000000000000 0.00000000000000000 0.00000000000000000 -1.00000000000000000 
1 6.28318530717958623 0.00000000000000000 0.00000000000000000 -1.00000000000000000 
1 0.00000000000000000 0.00000000000000000 1.00000000000000000 0.00000000000000000 
1 0.00000000000000000 -264.73031470305414814 1.00000000000000000 0.00000000000000000 
1 0.00000000000000000 0.00000000000000000 1.00000000000000000 0.00000000000000000 
1 0.00000000000000000 -253.61779577077757608 1.00000000000000000 0.00000000000000000 
1 0.00000000000000000 0.00000000000000000 1.00000000000000000 0.00000000000000000 
1 0.00000000000000000 -253.61779577077757608 1.00000000000000000 0.00000000000000000 
Curves 4
1 132.36515735152707407 -8.29999999998281091 9.99999999992148503 -1.00000000000000000 0.00000000000000022 -0.00000000000000028 
2 0.00000000000000000 9.99999999992144595 0.00000000000000000 0.00000000000000000 0.00000000000000000 1.00000000000000000 1.00000000000000000 0.00000000000000000 -0.00000000000000000 -0.00000000000000000 1.00000000000000000 0.00000000000000000 1.70000000001721463
1 132.36515735152704565 -8.29999999998279669 79.99999999999764100 -1.00000000000000000 0.00000000000000022 -0.00000000000000028 
2 0.00000000000000000 79.99999999999759837 0.00000000000000000 0.00000000000000000 0.00000000000000000 1.00000000000000000 1.00000000000000000 0.00000000000000000 -0.00000000000000000 -0.00000000000000000 1.00000000000000000 0.00000000000000000 1.70000000001721463
Polygon3D 0
PolygonOnTriangulations 0
Surfaces 8
2 132.36515735152707407 -10.00000000000002665 9.99999999992148503 1.00000000000000000 -0.00000000000000022 0.00000000000000022 0.00000000000000022 1.00000000000000000 -0.00000000000000022 -0.00000000000000022 0.00000000000000022 1.00000000000000000 1.70000000001721463
2 126.80889788538878804 -12.00000000000002487 9.99999999992122035 1.00000000000000000 -0.00000000000000022 0.00000000000000022 0.00000000000000022 1.00000000000000000 -0.00000000000000022 -0.00000000000000022 0.00000000000000022 1.00000000000000000 1.70000000001721463
2 126.80889788538878804 -12.00000000000002487 9.99999999992122035 1.00000000000000000 -0.00000000000000022 0.00000000000000022 0.00000000000000022 1.00000000000000000 -0.00000000000000022 -0.00000000000000022 0.00000000000000022 1.00000000000000000 1.70000000001721463
1 -0.00000000000001221 -9.99999999999999112 44.99999999995951327 1.00000000000000000 -0.00000000000000022 0.00000000000000022 0.00000000000000022 1.00000000000000000 0.00000000000000000 -0.00000000000000022 0.00000000000000000 1.00000000000000000 
2 132.36515735152704565 -10.00000000000001066 79.99999999999764100 1.00000000000000000 -0.00000000000000022 0.00000000000000022 0.00000000000000022 1.00000000000000000 -0.00000000000000022 -0.00000000000000022 0.00000000000000022 1.00000000000000000 1.70000000001721463
2 126.80889788538877383 -12.00000000000000888 79.99999999999737099 1.00000000000000000 -0.00000000000000022 0.00000000000000022 0.00000000000000022 1.00000000000000000 -0.00000000000000022 -0.00000000000000022 0.00000000000000022 1.00000000000000000 1.70000000001721463
2 126.80889788538877383 -12.00000000000000888 79.99999999999737099 1.00000000000000000 -0.00000000000000022 0.00000000000000022 0.00000000000000022 1.00000000000000000 -0.00000000000000022 -0.00000000000000022 0.00000000000000022 1.00000000000000000 1.70000000001721463
1 -0.00000000000001221 -9.99999999999999112 44.99999999995951327 1.00000000000000000 -0.00000000000000022 0.00000000000000022 0.00000000000000022 1.00000000000000000 0.00000000000000000 -0.00000000000000022 0.00000000000000000 1.00000000000000000 
Triangulations 0

TShapes 19
Ve
0.000000100000000
1.700000000017215 9.999999999921446 0.000000000000000
0 0

0101101
*
Ed
 0.000000100000000 1 1 0
1  1 0 0.000000000000000 264.730314703054148
3  1 2CN 1 0 0.000000000000000 264.730314703054148
0

0101000
+19 5 -19 7 *
Ed
 0.000000100000000 1 1 0
1  2 0 0.000000000000000 6.283185307179586
2  3 1 8 0.000000000000000 6.283185307179586
2  4 1 9 0.000000000000000 6.283185307179586
2  5 2 17 0.000000000000000 6.283185307179586
2  6 2 19 0.000000000000000 6.283185307179586
2  7 3 26 0.000000000000000 6.283185307179586
2  8 3 28 0.000000000000000 6.283185307179586
0

0101100
+19 0 -19 0 *
Wi

0101100
+18 0 -18 0 -17 5 +17 7 *
Fa
0  0.000000100000000 1 0

0111000
+16 0 *
Wi

0101100
+17 0 *
Fa
0  0.000000100000000 4 0

0111000
+14 30 *
Sh

0101100
+15 0 +13 29 -13 31 *
So

0100000
+12 0 *
Ve
0.000000100000000
1.700000000017215 79.999999999997598 0.000000000000000
0 0

0101101
*
Ed
 0.000000100000000 1 1 0
1  3 0 0.000000000000000 264.730314703054148
3  9 10CN 5 0 0.000000000000000 264.730314703054148
0

0101000
+10 5 -10 7 *
Ed
 0.000000100000000 1 1 0
1  4 0 0.000000000000000 6.283185307179586
2  11 5 8 0.000000000000000 6.283185307179586
2  12 5 9 0.000000000000000 6.283185307179586
2  13 6 17 0.000000000000000 6.283185307179586
2  14 6 19 0.000000000000000 6.283185307179586
2  15 7 26 0.000000000000000 6.283185307179586
2  16 7 28 0.000000000000000 6.283185307179586
0

0101100
+10 0 -10 0 *
Wi

0101100
+9 0 -9 0 -8 5 +8 7 *
Fa
0  0.000000100000000 5 0

0111000
+7 0 *
Wi

0101100
+8 0 *
Fa
0  0.000000100000000 8 0

0111000
+5 30 *
Sh

0101100
+6 0 +4 29 -4 31 *
So

0100000
+3 0 *
Co

1100000
+11 0 +2 0 *

+1 0 