
CASCADE Topology V1, (c) Matra-Datavision
Locations 15
1
1.000000000000000 0.000000000000000 0.000000000000000 0.000000000000000 
0.000000000000000 1.000000000000000 0.000000000000000 0.000000000000000 
0.000000000000000 0.000000000000000 1.000000000000000 0.000000000000000 
1
1.000000000000000 0.000000000000000 0.000000000000000 10.000000000000000 
0.000000000000000 1.000000000000000 0.000000000000000 0.000000000000000 
0.000000000000000 0.000000000000000 1.000000000000000 0.000000000000000 
1
1.000000000000000 0.000000000000000 0.000000000000000 0.000000000000000 
0.000000000000000 1.000000000000000 0.000000000000000 0.000000000000000 
0.000000000000000 0.000000000000000 1.000000000000000 0.000000000000000 
1
1.000000000000000 0.000000000000000 -0.000000000000000 0.000000000000000 
-0.000000000000000 0.000000000000000 -1.000000000000000 0.000000000000000 
0.000000000000000 1.000000000000000 0.000000000000000 0.000000000000000 
1
1.000000000000000 0.000000000000000 0.000000000000000 0.000000000000000 
0.000000000000000 1.000000000000000 0.000000000000000 0.000000000000000 
0.000000000000000 0.000000000000000 1.000000000000000 0.000000000000000 
2  4 1 5 1 0
1
1.000000000000000 0.000000000000000 0.000000000000000 0.000000000000000 
0.000000000000000 1.000000000000000 0.000000000000000 0.000000000000000 
0.000000000000000 0.000000000000000 1.000000000000000 0.000000000000000 
2  7 -1 5 -1 4 -1 0
1
1.000000000000000 0.000000000000000 0.000000000000000 0.000000000000000 
0.000000000000000 1.000000000000000 0.000000000000000 0.000000000000000 
0.000000000000000 0.000000000000000 1.000000000000000 0.000000000000000 
2  9 1 3 1 0
2  7 -1 3 -1 9 -1 0
1
1.000000000000000 0.000000000000000 0.000000000000000 283.250000000000000 
0.000000000000000 1.000000000000000 0.000000000000000 0.000000000000000 
0.000000000000000 0.000000000000000 1.000000000000000 0.000000000000000 
1
1.000000000000000 0.000000000000000 0.000000000000000 556.500000000000000 
0.000000000000000 1.000000000000000 0.000000000000000 0.000000000000000 
0.000000000000000 0.000000000000000 1.000000000000000 0.000000000000000 
1
1.000000000000000 0.000000000000000 0.000000000000000 829.750000000000000 
0.000000000000000 1.000000000000000 0.000000000000000 0.000000000000000 
0.000000000000000 0.000000000000000 1.000000000000000 0.000000000000000 
1
1.000000000000000 0.000000000000000 0.000000000000000 1103.000000000000000 
0.000000000000000 1.000000000000000 0.000000000000000 0.000000000000000 
0.000000000000000 0.000000000000000 1.000000000000000 0.000000000000000 
Curve2ds 0
Curves 7
1 0.00000000000000000 0.00000000000000000 0.00000000000000000 1.00000000000000000 0.00000000000000000 0.00000000000000000 
1 109.29999999999998295 0.00000000000000000 0.00000000000000000 -0.93465529130606351 -0.35555518057479879 0.00000000000000000 
1 -30.76206083517650924 -53.28145231205043331 0.00000000000000000 0.49999999999999983 0.86602540378443882 0.00000000000000000 
1 0.00000000000000455 0.00000000000000431 0.00000000000000000 -0.49999999999999989 0.86602540378443882 0.00000000000000000 
1 -30.76206083517649503 53.28145231205041910 0.00000000000000000 0.93465529130606351 -0.35555518057479868 0.00000000000000000 
1 0.00000000000000000 -31.21608000000000160 0.00000000000000000 0.00000000000000000 1.00000000000000000 0.00000000000000000 
1 109.29999999999995453 0.00000000000000000 0.00000000000000000 -0.96155297028741438 -0.27461952831408565 0.00000000000000000 
Polygon3D 0
PolygonOnTriangulations 0
Surfaces 3
1 0.00000000000000455 0.00000000000000431 0.00000000000000000 0.00000000000000000 0.00000000000000000 1.00000000000000000 1.00000000000000000 0.00000000000000000 -0.00000000000000000 -0.00000000000000000 1.00000000000000000 0.00000000000000000 
1 0.00000000000000455 0.00000000000000431 0.00000000000000000 0.00000000000000000 0.00000000000000000 1.00000000000000000 1.00000000000000000 0.00000000000000000 -0.00000000000000000 -0.00000000000000000 1.00000000000000000 0.00000000000000000 
1 0.00000000000000000 0.00000000000000000 0.00000000000000000 0.00000000000000000 -1.00000000000000000 0.00000000000000022 0.00000000000000000 -0.00000000000000022 -1.00000000000000000 1.00000000000000000 0.00000000000000000 0.00000000000000000 
Triangulations 0

TShapes 20
Ve
0.000010930000005
0.000000000000003 0.000000000000003 0.000000000000000
0 0

0101101
*
Ve
0.000010930000012
109.299999999999997 0.000000000000000 0.000000000000000
0 0

0101101
*
Ed
 0.000010930000000 1 1 0
1  1 0 0.000000000000000 109.299999999999997
0

0101000
+20 8 -19 8 *
Ve
0.000010930000006
-30.762060835176474 -53.281452312050433 0.000000000000000
0 0

0101101
*
Ed
 0.000010930000000 1 1 0
1  2 0 0.000000000000000 149.854242668927782
0

0101000
+19 11 -17 11 *
Ed
 0.000010930000000 1 1 0
1  3 0 0.000000000000000 61.524121670353054
0

0101000
+17 11 -20 11 *
Wi

0101000
-18 6 -16 10 -15 10 *
Fa
0  0.000010930000000 1 3

0111000
+14 0 *
Ve
0.000010930000000
-30.762060835176474 53.281452312050433 0.000000000000000
0 0

0101101
*
Ed
 0.000010930000000 1 1 0
1  4 0 0.000000000000000 61.524121670353054
0

0101000
+20 11 -12 11 *
Ed
 0.000010930000000 1 1 0
1  5 0 0.000000000000000 149.854242668927782
0

0101000
+12 11 -19 11 *
Wi

0101000
-11 10 -10 10 +18 6 *
Fa
0  0.000010930000000 2 3

0111000
+9 0 *
Ve
0.000010930000000
0.000000000000000 -0.000000000000007 -31.216080000000002
0 0

0101101
*
Ed
 0.000010930000000 1 1 0
1  6 0 0.000000000000000 31.216080000000002
0

0101000
+7 8 -20 8 *
Ed
 0.000010930000000 1 1 0
1  7 0 0.000000000000000 113.670284817829440
0

0101000
+19 8 -7 8 *
Wi

0101000
-18 6 -6 6 -5 6 *
Fa
0  0.000010930000000 3 5

0111000
+4 0 *
Sh

0101000
+13 0 +8 0 +3 0 *
Co

1100000
+2 2 +2 12 +2 13 +2 14 +2 15 *

+1 1 