
CASCADE Topology V1, (c) Matra-Datavision
Locations 35
1
1.000000000000000 0.000000000000000 0.000000000000000 0.000000000000000 
0.000000000000000 1.000000000000000 0.000000000000000 0.000000000000000 
0.000000000000000 0.000000000000000 1.000000000000000 0.000000000000000 
1
0.000000000000000 -0.000000000000000 1.000000000000000 0.000000000000000 
1.000000000000000 0.000000000000000 -0.000000000000000 0.000000000000000 
-0.000000000000000 1.000000000000000 0.000000000000000 0.000000000000000 
1
1.000000000000000 0.000000000000000 0.000000000000000 0.000000000000000 
0.000000000000000 1.000000000000000 0.000000000000000 0.000000000000000 
0.000000000000000 0.000000000000000 1.000000000000000 0.000000000000000 
2  2 1 3 1 0
2  3 -1 2 -1 0
1
1.000000000000000 0.000000000000000 0.000000000000000 736.334638153061405 
0.000000000000000 1.000000000000000 0.000000000000000 -0.000000000000245 
0.000000000000000 0.000000000000000 1.000000000000000 0.000000000000163 
1
1.000000000000000 0.000000000000000 0.000000000000000 0.000000000000000 
0.000000000000000 1.000000000000000 0.000000000000000 0.000000000000000 
0.000000000000000 0.000000000000000 1.000000000000000 0.000000000000000 
1
1.000000000000000 0.000000000000000 0.000000000000000 0.000000000000000 
0.000000000000000 1.000000000000000 0.000000000000000 0.000000000000000 
0.000000000000000 0.000000000000000 1.000000000000000 0.000000000000000 
2  6 -1 7 1 8 -1 1 -1 3 -1 2 -1 0
1
1.000000000000000 0.000000000000000 0.000000000000000 -1472.669276306122811 
0.000000000000000 1.000000000000000 0.000000000000000 0.000000000000490 
0.000000000000000 0.000000000000000 1.000000000000000 -0.000000000000327 
2  10 -1 6 -1 7 1 8 -1 1 -1 3 -1 2 -1 0
1
1.000000000000000 0.000000000000000 0.000000000000000 736.334638153061405 
0.000000000000000 1.000000000000000 0.000000000000000 -0.000000000000243 
0.000000000000000 0.000000000000000 1.000000000000000 0.000000000000162 
1
1.000000000000000 0.000000000000000 0.000000000000000 0.000000000000000 
0.000000000000000 1.000000000000000 0.000000000000000 0.000000000000000 
0.000000000000000 0.000000000000000 1.000000000000000 0.000000000000000 
1
1.000000000000000 0.000000000000000 0.000000000000000 0.000000000000000 
0.000000000000000 1.000000000000000 0.000000000000000 0.000000000000000 
0.000000000000000 0.000000000000000 1.000000000000000 0.000000000000000 
2  12 -1 13 1 14 -1 1 -1 3 -1 2 -1 0
1
1.000000000000000 0.000000000000000 0.000000000000000 -1472.669276306122811 
0.000000000000000 1.000000000000000 0.000000000000000 0.000000000000486 
0.000000000000000 0.000000000000000 1.000000000000000 -0.000000000000324 
2  16 -1 12 -1 13 1 14 -1 1 -1 3 -1 2 -1 0
1
1.000000000000000 0.000000000000000 0.000000000000000 736.334638153061405 
0.000000000000000 1.000000000000000 0.000000000000000 -0.000000000000243 
0.000000000000000 0.000000000000000 1.000000000000000 0.000000000000162 
1
1.000000000000000 0.000000000000000 0.000000000000000 0.000000000000000 
0.000000000000000 1.000000000000000 0.000000000000000 0.000000000000000 
0.000000000000000 0.000000000000000 1.000000000000000 0.000000000000000 
1
1.000000000000000 0.000000000000000 0.000000000000000 0.000000000000000 
0.000000000000000 1.000000000000000 0.000000000000000 0.000000000000000 
0.000000000000000 0.000000000000000 1.000000000000000 0.000000000000000 
2  18 -1 19 1 20 -1 1 -1 3 -1 2 -1 0
1
1.000000000000000 0.000000000000000 0.000000000000000 -1472.669276306122811 
0.000000000000000 1.000000000000000 0.000000000000000 0.000000000000486 
0.000000000000000 0.000000000000000 1.000000000000000 -0.000000000000324 
2  22 -1 18 -1 19 1 20 -1 1 -1 3 -1 2 -1 0
1
1.000000000000000 0.000000000000000 0.000000000000000 736.334638153061405 
0.000000000000000 1.000000000000000 0.000000000000000 -0.000000000000243 
0.000000000000000 0.000000000000000 1.000000000000000 0.000000000000162 
1
1.000000000000000 0.000000000000000 0.000000000000000 0.000000000000000 
0.000000000000000 1.000000000000000 0.000000000000000 0.000000000000000 
0.000000000000000 0.000000000000000 1.000000000000000 0.000000000000000 
1
1.000000000000000 0.000000000000000 0.000000000000000 0.000000000000000 
0.000000000000000 1.000000000000000 0.000000000000000 0.000000000000000 
0.000000000000000 0.000000000000000 1.000000000000000 0.000000000000000 
2  24 -1 25 1 26 -1 1 -1 3 -1 2 -1 0
1
1.000000000000000 0.000000000000000 0.000000000000000 -1472.669276306122811 
0.000000000000000 1.000000000000000 0.000000000000000 0.000000000000486 
0.000000000000000 0.000000000000000 1.000000000000000 -0.000000000000324 
2  28 -1 24 -1 25 1 26 -1 1 -1 3 -1 2 -1 0
1
1.000000000000000 0.000000000000000 0.000000000000000 736.334638153061405 
0.000000000000000 1.000000000000000 0.000000000000000 -0.000000000000243 
0.000000000000000 0.000000000000000 1.000000000000000 0.000000000000162 
1
1.000000000000000 0.000000000000000 0.000000000000000 0.000000000000000 
0.000000000000000 1.000000000000000 0.000000000000000 0.000000000000000 
0.000000000000000 0.000000000000000 1.000000000000000 0.000000000000000 
1
1.000000000000000 0.000000000000000 0.000000000000000 0.000000000000000 
0.000000000000000 1.000000000000000 0.000000000000000 0.000000000000000 
0.000000000000000 0.000000000000000 1.000000000000000 0.000000000000000 
2  30 -1 31 1 32 -1 1 -1 3 -1 2 -1 0
1
1.000000000000000 0.000000000000000 0.000000000000000 -1472.669276306122811 
0.000000000000000 1.000000000000000 0.000000000000000 0.000000000000486 
0.000000000000000 0.000000000000000 1.000000000000000 -0.000000000000324 
2  34 -1 30 -1 31 1 32 -1 1 -1 3 -1 2 -1 0
Curve2ds 60
1 0.00000000000000000 0.00000000000000000 1.00000000000000000 0.00000000000000000 
1 -0.00000000000001202 -1472.66927630612281064 1.00000000000000000 0.00000000000000000 
1 0.00000000000000000 0.00000000000000000 1.00000000000000000 0.00000000000000000 
1 -0.00000000000039814 -1472.66927630612281064 1.00000000000000000 0.00000000000000000 
1 0.00000000000000000 0.00000000000000000 1.00000000000000000 0.00000000000000000 
1 -0.00000000000039814 -1472.66927630612281064 1.00000000000000000 0.00000000000000000 
1 0.00000000000000000 0.00000000000000000 1.00000000000000000 0.00000000000000000 
1 -0.00000000000039814 -1472.66927630612281064 1.00000000000000000 0.00000000000000000 
1 0.00000000000000000 0.00000000000000000 1.00000000000000000 0.00000000000000000 
1 -0.00000000000039814 -1472.66927630612281064 1.00000000000000000 0.00000000000000000 
1 0.00000000000000000 0.00000000000000000 1.00000000000000000 0.00000000000000000 
1 0.00000000000000000 -1472.66927630612281064 1.00000000000000000 0.00000000000000000 
1 0.00000000000000000 0.00000000000000000 1.00000000000000000 0.00000000000000000 
1 0.00000000000032399 -1472.66927630612281064 1.00000000000000000 0.00000000000000000 
1 0.00000000000000000 0.00000000000000000 1.00000000000000000 0.00000000000000000 
1 0.00000000000032399 -1472.66927630612281064 1.00000000000000000 0.00000000000000000 
1 0.00000000000000000 0.00000000000000000 1.00000000000000000 0.00000000000000000 
1 0.00000000000032399 -1472.66927630612281064 1.00000000000000000 0.00000000000000000 
1 0.00000000000000000 0.00000000000000000 1.00000000000000000 0.00000000000000000 
1 0.00000000000032399 -1472.66927630612281064 1.00000000000000000 0.00000000000000000 
1 0.00000000000000000 0.00000000000000000 1.00000000000000000 0.00000000000000000 
1 0.00000000000000000 -1472.66927630612281064 1.00000000000000000 0.00000000000000000 
1 0.00000000000000000 0.00000000000000000 1.00000000000000000 0.00000000000000000 
1 -0.00000000000032399 -1472.66927630612281064 1.00000000000000000 0.00000000000000000 
1 0.00000000000000000 0.00000000000000000 1.00000000000000000 0.00000000000000000 
1 -0.00000000000032399 -1472.66927630612281064 1.00000000000000000 0.00000000000000000 
1 0.00000000000000000 0.00000000000000000 1.00000000000000000 0.00000000000000000 
1 -0.00000000000032399 -1472.66927630612281064 1.00000000000000000 0.00000000000000000 
1 0.00000000000000000 0.00000000000000000 1.00000000000000000 0.00000000000000000 
1 -0.00000000000032399 -1472.66927630612281064 1.00000000000000000 0.00000000000000000 
1 0.00000000000000000 0.00000000000000000 1.00000000000000000 0.00000000000000000 
1 0.00000000000000020 -1472.66927630612281064 1.00000000000000000 0.00000000000000000 
1 0.00000000000000000 0.00000000000000000 1.00000000000000000 0.00000000000000000 
1 -0.00000000000038079 -1472.66927630612281064 1.00000000000000000 0.00000000000000000 
1 0.00000000000000000 0.00000000000000000 1.00000000000000000 0.00000000000000000 
1 -0.00000000000038079 -1472.66927630612281064 1.00000000000000000 0.00000000000000000 
1 0.00000000000000000 0.00000000000000000 1.00000000000000000 0.00000000000000000 
1 -0.00000000000038079 -1472.66927630612281064 1.00000000000000000 0.00000000000000000 
1 0.00000000000000000 0.00000000000000000 1.00000000000000000 0.00000000000000000 
1 -0.00000000000038079 -1472.66927630612281064 1.00000000000000000 0.00000000000000000 
1 0.00000000000000000 0.00000000000000000 1.00000000000000000 0.00000000000000000 
1 0.00000000000000022 -1472.66927630612281064 1.00000000000000000 0.00000000000000000 
1 0.00000000000000000 0.00000000000000000 1.00000000000000000 0.00000000000000000 
1 -0.00000000000032473 -1472.66927630612281064 1.00000000000000000 0.00000000000000000 
1 0.00000000000000000 0.00000000000000000 1.00000000000000000 0.00000000000000000 
1 -0.00000000000032473 -1472.66927630612281064 1.00000000000000000 0.00000000000000000 
1 0.00000000000000000 0.00000000000000000 1.00000000000000000 0.00000000000000000 
1 -0.00000000000032473 -1472.66927630612281064 1.00000000000000000 0.00000000000000000 
1 0.00000000000000000 0.00000000000000000 1.00000000000000000 0.00000000000000000 
1 -0.00000000000032473 -1472.66927630612281064 1.00000000000000000 0.00000000000000000 
1 0.00000000000000000 0.00000000000000000 1.00000000000000000 -0.00000000000000000 
1 0.00000000000001406 -1472.66927630612281064 1.00000000000000000 -0.00000000000000000 
1 0.00000000000000000 0.00000000000000000 1.00000000000000000 0.00000000000000000 
1 0.00000000000031264 -1472.66927630612281064 1.00000000000000000 0.00000000000000000 
1 0.00000000000000000 0.00000000000000000 1.00000000000000000 0.00000000000000000 
1 0.00000000000031264 -1472.66927630612281064 1.00000000000000000 0.00000000000000000 
1 0.00000000000000000 0.00000000000000000 1.00000000000000000 0.00000000000000000 
1 0.00000000000031264 -1472.66927630612281064 1.00000000000000000 0.00000000000000000 
1 0.00000000000000000 0.00000000000000000 1.00000000000000000 0.00000000000000000 
1 0.00000000000031264 -1472.66927630612281064 1.00000000000000000 0.00000000000000000 
Curves 10
1 -66.52173913043682774 -250.82608695651987318 -0.00000000000000739 1.00000000000000000 0.00000000000000000 0.00000000000000011 
1 -66.52173913043684195 449.17391304347796677 -0.00000000000000739 0.00000000000000000 -1.00000000000000000 0.00000000000000000 
1 133.47826086956973768 -250.82608695651987318 0.00000000000001482 0.00000000000000000 1.00000000000000000 -0.00000000000000000 
1 -16.52173913043682774 449.17391304347796677 -0.00000000000000183 -1.00000000000000000 0.00000000000000000 -0.00000000000000011 
1 133.47826086956973768 -190.82608695651987318 0.00000000000001482 -0.22819132278933854 0.97361631056779852 -0.00000000000000003 
1 0.00000000000000000 0.00000000000000000 0.00000000000000000 1.00000000000000000 0.00000000000000000 0.00000000000000011 
1 20.00000000000065725 0.00000000000000000 0.00000000000000222 0.00000000000000000 1.00000000000000000 -0.00000000000000000 
1 20.00000000000065725 6.00000000000000000 0.00000000000000222 -0.22819132278933854 0.97361631056779852 -0.00000000000000003 
1 5.00000000000000000 69.99999999999978684 0.00000000000000056 -1.00000000000000000 0.00000000000000000 -0.00000000000000011 
1 0.00000000000000000 69.99999999999978684 -0.00000000000000000 0.00000000000000000 -1.00000000000000000 0.00000000000000000 
Polygon3D 0
PolygonOnTriangulations 0
Surfaces 31
1 -0.00000000000001420 2.70089991362421911 67.99874296276831842 1.00000000000000000 -0.00000000000000033 0.00000000000000022 0.00000000000000033 1.00000000000000000 0.00000000000000011 -0.00000000000000022 -0.00000000000000011 1.00000000000000000 
1 736.33463815306151901 133.47826086956945346 -190.82608695651973107 0.00000000000000027 0.97361631056779863 0.22819132278933835 -0.00000000000000029 -0.22819132278933835 0.97361631056779863 1.00000000000000000 -0.00000000000000033 0.00000000000000022 
1 736.33463815306140532 133.47826086956948188 -190.82608695651970265 0.00000000000000027 0.97361631056779852 0.22819132278933854 -0.00000000000000003 -0.22819132278933854 0.97361631056779852 1.00000000000000000 -0.00000000000000027 -0.00000000000000003 
1 736.33463815306140532 133.47826086956948188 -190.82608695651970265 0.00000000000000027 0.97361631056779852 0.22819132278933854 -0.00000000000000003 -0.22819132278933854 0.97361631056779852 1.00000000000000000 -0.00000000000000027 -0.00000000000000003 
1 736.33463815306140532 133.47826086956948188 -190.82608695651970265 0.00000000000000027 0.97361631056779852 0.22819132278933854 -0.00000000000000003 -0.22819132278933854 0.97361631056779852 1.00000000000000000 -0.00000000000000027 -0.00000000000000003 
1 736.33463815306140532 133.47826086956948188 -190.82608695651970265 0.00000000000000027 0.97361631056779852 0.22819132278933854 -0.00000000000000003 -0.22819132278933854 0.97361631056779852 1.00000000000000000 -0.00000000000000027 -0.00000000000000003 
1 736.33463815306140532 -0.00000000000024525 0.00000000000016350 0.00000000000000022 -0.00000000000000022 -1.00000000000000000 0.00000000000000033 1.00000000000000000 -0.00000000000000022 1.00000000000000000 -0.00000000000000033 0.00000000000000022 
1 736.33463815306140532 -0.00000000000024299 0.00000000000016199 0.00000000000000022 -0.00000000000000000 -1.00000000000000000 0.00000000000000011 1.00000000000000000 0.00000000000000000 1.00000000000000000 -0.00000000000000011 0.00000000000000022 
1 736.33463815306140532 -0.00000000000024299 0.00000000000016199 0.00000000000000022 -0.00000000000000000 -1.00000000000000000 0.00000000000000011 1.00000000000000000 0.00000000000000000 1.00000000000000000 -0.00000000000000011 0.00000000000000022 
1 736.33463815306140532 -0.00000000000024299 0.00000000000016199 0.00000000000000022 -0.00000000000000000 -1.00000000000000000 0.00000000000000011 1.00000000000000000 0.00000000000000000 1.00000000000000000 -0.00000000000000011 0.00000000000000022 
1 736.33463815306140532 -0.00000000000024299 0.00000000000016199 0.00000000000000022 -0.00000000000000000 -1.00000000000000000 0.00000000000000011 1.00000000000000000 0.00000000000000000 1.00000000000000000 -0.00000000000000011 0.00000000000000022 
1 736.33463815306140532 20.00000000000041211 0.00000000000015906 0.00000000000000033 1.00000000000000000 -0.00000000000000022 -0.00000000000000022 0.00000000000000022 1.00000000000000000 1.00000000000000000 -0.00000000000000033 0.00000000000000022 
1 736.33463815306140532 20.00000000000041567 0.00000000000016199 0.00000000000000033 1.00000000000000000 -0.00000000000000000 0.00000000000000000 0.00000000000000000 1.00000000000000000 1.00000000000000000 -0.00000000000000033 0.00000000000000000 
1 736.33463815306140532 20.00000000000041567 0.00000000000016199 0.00000000000000033 1.00000000000000000 -0.00000000000000000 0.00000000000000000 0.00000000000000000 1.00000000000000000 1.00000000000000000 -0.00000000000000033 0.00000000000000000 
1 736.33463815306140532 20.00000000000041567 0.00000000000016199 0.00000000000000033 1.00000000000000000 -0.00000000000000000 0.00000000000000000 0.00000000000000000 1.00000000000000000 1.00000000000000000 -0.00000000000000033 0.00000000000000000 
1 736.33463815306140532 20.00000000000041567 0.00000000000016199 0.00000000000000033 1.00000000000000000 -0.00000000000000000 0.00000000000000000 0.00000000000000000 1.00000000000000000 1.00000000000000000 -0.00000000000000033 0.00000000000000000 
1 736.33463815306140532 20.00000000000041211 6.00000000000015898 0.00000000000000027 0.97361631056779863 0.22819132278933835 -0.00000000000000029 -0.22819132278933835 0.97361631056779863 1.00000000000000000 -0.00000000000000033 0.00000000000000022 
1 736.33463815306140532 20.00000000000041567 6.00000000000016165 0.00000000000000027 0.97361631056779852 0.22819132278933854 -0.00000000000000003 -0.22819132278933854 0.97361631056779852 1.00000000000000000 -0.00000000000000027 -0.00000000000000003 
1 736.33463815306140532 20.00000000000041567 6.00000000000016165 0.00000000000000027 0.97361631056779852 0.22819132278933854 -0.00000000000000003 -0.22819132278933854 0.97361631056779852 1.00000000000000000 -0.00000000000000027 -0.00000000000000003 
1 736.33463815306140532 20.00000000000041567 6.00000000000016165 0.00000000000000027 0.97361631056779852 0.22819132278933854 -0.00000000000000003 -0.22819132278933854 0.97361631056779852 1.00000000000000000 -0.00000000000000027 -0.00000000000000003 
1 736.33463815306140532 20.00000000000041567 6.00000000000016165 0.00000000000000027 0.97361631056779852 0.22819132278933854 -0.00000000000000003 -0.22819132278933854 0.97361631056779852 1.00000000000000000 -0.00000000000000027 -0.00000000000000003 
1 736.33463815306140532 4.99999999999976996 69.99999999999995737 -0.00000000000000022 0.00000000000000022 1.00000000000000000 -0.00000000000000033 -1.00000000000000000 0.00000000000000022 1.00000000000000000 -0.00000000000000033 0.00000000000000022 
1 736.33463815306140532 4.99999999999975664 69.99999999999994316 -0.00000000000000022 0.00000000000000000 1.00000000000000000 -0.00000000000000011 -1.00000000000000000 -0.00000000000000000 1.00000000000000000 -0.00000000000000011 0.00000000000000022 
1 736.33463815306140532 4.99999999999975664 69.99999999999994316 -0.00000000000000022 0.00000000000000000 1.00000000000000000 -0.00000000000000011 -1.00000000000000000 -0.00000000000000000 1.00000000000000000 -0.00000000000000011 0.00000000000000022 
1 736.33463815306140532 4.99999999999975664 69.99999999999994316 -0.00000000000000022 0.00000000000000000 1.00000000000000000 -0.00000000000000011 -1.00000000000000000 -0.00000000000000000 1.00000000000000000 -0.00000000000000011 0.00000000000000022 
1 736.33463815306140532 4.99999999999975664 69.99999999999994316 -0.00000000000000022 0.00000000000000000 1.00000000000000000 -0.00000000000000011 -1.00000000000000000 -0.00000000000000000 1.00000000000000000 -0.00000000000000011 0.00000000000000022 
1 736.33463815306140532 -0.00000000000022971 69.99999999999995737 -0.00000000000000033 -1.00000000000000000 0.00000000000000022 0.00000000000000022 -0.00000000000000022 -1.00000000000000000 1.00000000000000000 -0.00000000000000033 0.00000000000000022 
1 736.33463815306140532 -0.00000000000024299 69.99999999999994316 -0.00000000000000033 -1.00000000000000000 -0.00000000000000000 0.00000000000000000 0.00000000000000000 -1.00000000000000000 1.00000000000000000 -0.00000000000000033 0.00000000000000000 
1 736.33463815306140532 -0.00000000000024299 69.99999999999994316 -0.00000000000000033 -1.00000000000000000 -0.00000000000000000 0.00000000000000000 0.00000000000000000 -1.00000000000000000 1.00000000000000000 -0.00000000000000033 0.00000000000000000 
1 736.33463815306140532 -0.00000000000024299 69.99999999999994316 -0.00000000000000033 -1.00000000000000000 -0.00000000000000000 0.00000000000000000 0.00000000000000000 -1.00000000000000000 1.00000000000000000 -0.00000000000000033 0.00000000000000000 
1 736.33463815306140532 -0.00000000000024299 69.99999999999994316 -0.00000000000000033 -1.00000000000000000 -0.00000000000000000 0.00000000000000000 0.00000000000000000 -1.00000000000000000 1.00000000000000000 -0.00000000000000033 0.00000000000000000 
Triangulations 0

TShapes 24
Ve
0.000001000000000
0.000000000000034 -66.521739130436885 -250.826086956519845
0 0

0101101
*
Ve
0.000001000000000
0.000000000000100 133.478260869569681 -250.826086956519873
0 0

0101101
*
Ed
 0.000001000000000 1 1 0
1  1 0 0.000000000000000 200.000000000006565
0

0101000
+24 5 -23 5 *
Ve
0.000001000000000
-0.000000000000122 -66.521739130436742 449.173913043478024
0 0

0101101
*
Ed
 0.000001000000000 1 1 0
1  2 0 0.000000000000000 699.999999999997840
0

0101000
+21 5 -24 5 *
Ve
0.000001000000000
0.000000000000087 133.478260869569681 -190.826086956519902
0 0

0101101
*
Ed
 0.000001000000000 1 1 0
1  3 0 0.000000000000000 60.000000000000000
0

0101000
+23 5 -19 5 *
Ve
0.000001000000000
-0.000000000000105 -16.521739130436735 449.173913043478024
0 0

0101101
*
Ed
 0.000001000000000 1 1 0
1  4 0 0.000000000000000 50.000000000000000
0

0101000
+17 5 -21 5 *
Ed
 0.000001000000000 1 1 0
1  5 0 0.000000000000000 657.343137181791235
2  1 2 9 0.000000000000000 657.343137181791235
2  2 2 11 0.000000000000000 657.343137181791235
2  3 3 15 0.000000000000000 657.343137181791235
2  4 3 17 0.000000000000000 657.343137181791235
2  5 4 21 0.000000000000000 657.343137181791235
2  6 4 23 0.000000000000000 657.343137181791235
2  7 5 27 0.000000000000000 657.343137181791235
2  8 5 29 0.000000000000000 657.343137181791235
2  9 6 33 0.000000000000000 657.343137181791235
2  10 6 35 0.000000000000000 657.343137181791235
0

0101000
+19 5 -17 5 *
Wi

0101100
+22 4 +20 4 +18 4 +16 4 +15 4 *
Ve
0.000001000000000
0.000000000000000 0.000000000000000 0.000000000000000
0 0

0101101
*
Ve
0.000001000000000
0.000000000000007 20.000000000000657 -0.000000000000004
0 0

0101101
*
Ed
 0.000001000000000 1 1 0
1  6 0 0.000000000000000 20.000000000000657
2  11 7 9 0.000000000000000 20.000000000000657
2  12 7 11 0.000000000000000 20.000000000000657
2  13 8 15 0.000000000000000 20.000000000000657
2  14 8 17 0.000000000000000 20.000000000000657
2  15 9 21 0.000000000000000 20.000000000000657
2  16 9 23 0.000000000000000 20.000000000000657
2  17 10 27 0.000000000000000 20.000000000000657
2  18 10 29 0.000000000000000 20.000000000000657
2  19 11 33 0.000000000000000 20.000000000000657
2  20 11 35 0.000000000000000 20.000000000000657
0

0101000
+13 5 -12 5 *
Ve
0.000001000000000
0.000000000000005 20.000000000000657 5.999999999999996
0 0

0101101
*
Ed
 0.000001000000000 1 1 0
1  7 0 0.000000000000000 6.000000000000000
2  21 12 9 0.000000000000000 6.000000000000000
2  22 12 11 0.000000000000000 6.000000000000000
2  23 13 15 0.000000000000000 6.000000000000000
2  24 13 17 0.000000000000000 6.000000000000000
2  25 14 21 0.000000000000000 6.000000000000000
2  26 14 23 0.000000000000000 6.000000000000000
2  27 15 27 0.000000000000000 6.000000000000000
2  28 15 29 0.000000000000000 6.000000000000000
2  29 16 33 0.000000000000000 6.000000000000000
2  30 16 35 0.000000000000000 6.000000000000000
0

0101000
+12 5 -10 5 *
Ve
0.000001000000000
-0.000000000000014 5.000000000000015 69.999999999999787
0 0

0101101
*
Ed
 0.000001000000000 1 1 0
1  8 0 0.000000000000000 65.734313718179123
2  31 17 9 0.000000000000000 65.734313718179123
2  32 17 11 0.000000000000000 65.734313718179123
2  33 18 15 0.000000000000000 65.734313718179123
2  34 18 17 0.000000000000000 65.734313718179123
2  35 19 21 0.000000000000000 65.734313718179123
2  36 19 23 0.000000000000000 65.734313718179123
2  37 20 27 0.000000000000000 65.734313718179123
2  38 20 29 0.000000000000000 65.734313718179123
2  39 21 33 0.000000000000000 65.734313718179123
2  40 21 35 0.000000000000000 65.734313718179123
0

0101000
+10 5 -8 5 *
Ve
0.000001000000000
-0.000000000000016 0.000000000000016 69.999999999999787
0 0

0101101
*
Ed
 0.000001000000000 1 1 0
1  9 0 0.000000000000000 5.000000000000000
2  41 22 9 0.000000000000000 5.000000000000000
2  42 22 11 0.000000000000000 5.000000000000000
2  43 23 15 0.000000000000000 5.000000000000000
2  44 23 17 0.000000000000000 5.000000000000000
2  45 24 21 0.000000000000000 5.000000000000000
2  46 24 23 0.000000000000000 5.000000000000000
2  47 25 27 0.000000000000000 5.000000000000000
2  48 25 29 0.000000000000000 5.000000000000000
2  49 26 33 0.000000000000000 5.000000000000000
2  50 26 35 0.000000000000000 5.000000000000000
0

0101000
+8 5 -6 5 *
Ed
 0.000001000000000 1 1 0
1  10 0 0.000000000000000 69.999999999999787
2  51 27 9 0.000000000000000 69.999999999999787
2  52 27 11 0.000000000000000 69.999999999999787
2  53 28 15 0.000000000000000 69.999999999999787
2  54 28 17 0.000000000000000 69.999999999999787
2  55 29 21 0.000000000000000 69.999999999999787
2  56 29 23 0.000000000000000 69.999999999999787
2  57 30 27 0.000000000000000 69.999999999999787
2  58 30 29 0.000000000000000 69.999999999999787
2  59 31 33 0.000000000000000 69.999999999999787
2  60 31 35 0.000000000000000 69.999999999999787
0

0101000
+6 5 -13 5 *
Wi

0101100
-11 4 -9 4 -7 4 -5 4 -4 4 *
Fa
0  0.000001000000000 1 0

0101000
+14 0 +3 0 *
Sh

1101000
+2 0 *

+1 1 