
CASCADE Topology V1, (c) Matra-Datavision
Locations 22
1
1.000000000000000 0.000000000000000 0.000000000000000 -7.500000000000000 
0.000000000000000 1.000000000000000 0.000000000000000 15.000000000005116 
0.000000000000000 0.000000000000000 1.000000000000000 0.000000000000000 
1
1.000000000000000 0.000000000000000 0.000000000000000 0.000000000000000 
0.000000000000000 1.000000000000000 0.000000000000000 0.000000000000000 
0.000000000000000 0.000000000000000 1.000000000000000 0.000000000000000 
1
1.000000000000000 0.000000000000000 0.000000000000000 0.000000000000000 
0.000000000000000 1.000000000000000 0.000000000000000 0.000000000000000 
0.000000000000000 0.000000000000000 1.000000000000000 0.000000000000000 
1
1.000000000000000 0.000000000000000 0.000000000000000 0.000000000000000 
0.000000000000000 1.000000000000000 0.000000000000000 0.000000000000000 
0.000000000000000 0.000000000000000 1.000000000000000 0.000000000000000 
1
1.000000000000000 0.000000000000000 0.000000000000000 0.000000000000000 
0.000000000000000 1.000000000000000 0.000000000000000 0.000000000000000 
0.000000000000000 0.000000000000000 1.000000000000000 0.000000000000000 
1
1.000000000000000 0.000000000000000 0.000000000000000 0.000000000000000 
0.000000000000000 1.000000000000000 0.000000000000000 0.000000000000000 
0.000000000000000 0.000000000000000 1.000000000000000 0.000000000000000 
1
1.000000000000000 0.000000000000000 0.000000000000000 0.000000000000000 
0.000000000000000 1.000000000000000 0.000000000000000 0.000000000000000 
0.000000000000000 0.000000000000000 1.000000000000000 0.000000000000000 
2  2 1 3 1 4 1 5 -1 6 1 7 -1 1 -1 0
1
1.000000000000000 0.000000000000000 0.000000000000000 7.500000000000000 
0.000000000000000 1.000000000000000 0.000000000000000 15.000000000005116 
0.000000000000000 0.000000000000000 1.000000000000000 0.000000000000000 
2  2 1 3 1 4 1 5 -1 6 1 7 -1 9 -1 0
1
1.000000000000000 0.000000000000000 0.000000000000000 -7.500000000000000 
0.000000000000000 1.000000000000000 0.000000000000000 45.000000001141018 
0.000000000000000 0.000000000000000 1.000000000000000 0.000000000000000 
2  2 1 3 1 4 1 5 -1 6 1 7 -1 11 -1 0
1
1.000000000000000 0.000000000000000 0.000000000000000 7.500000000000000 
0.000000000000000 1.000000000000000 0.000000000000000 45.000000000005095 
0.000000000000000 0.000000000000000 1.000000000000000 0.000000000000000 
2  2 1 3 1 4 1 5 -1 6 1 7 -1 13 -1 0
1
1.000000000000000 0.000000000000000 0.000000000000000 0.000000000000000 
0.000000000000000 1.000000000000000 0.000000000000000 0.000000000000000 
0.000000000000000 0.000000000000000 1.000000000000000 0.000000000000000 
1
1.000000000000000 0.000000000000000 0.000000000000000 0.000000000000000 
0.000000000000000 1.000000000000000 0.000000000000000 0.000000000000000 
0.000000000000000 0.000000000000000 1.000000000000000 0.000000000000000 
2  15 1 16 -1 9 -1 0
2  15 1 16 -1 1 -1 0
1
1.000000000000000 0.000000000000000 0.000000000000000 0.000000000000000 
0.000000000000000 1.000000000000000 0.000000000000000 0.000000000000000 
0.000000000000000 0.000000000000000 1.000000000000000 0.000000000000000 
1
1.000000000000000 0.000000000000000 0.000000000000000 0.000000000000000 
0.000000000000000 1.000000000000000 0.000000000000000 0.000000000000000 
0.000000000000000 0.000000000000000 1.000000000000000 0.000000000000000 
2  19 1 20 -1 15 1 16 -1 9 -1 0
2  19 1 20 -1 15 1 16 -1 1 -1 0
Curve2ds 17
2 0.00000000000000000 0.00000000000000000 -1.00000000000000000 0.00000000000000000 0.00000000000000000 1.00000000000000000 1.69999999999999996
1 0.00000000000000000 0.00000000000000000 1.00000000000000000 0.00000000000000000 
2 14.60000000001914167 -11.49999999999999645 -0.00000000000000022 1.00000000000000000 1.00000000000000000 0.00000000000000022 1.69999999999999929
2 14.60000000001914522 -26.49999999999999645 -0.00000000000000022 1.00000000000000000 1.00000000000000000 0.00000000000000022 1.70000000000000018
2 44.60000000115504548 -11.49999999999998934 -0.00000000000000022 1.00000000000000000 1.00000000000000000 0.00000000000000022 1.69999999999999929
2 44.60000000001912923 -26.49999999999998934 -0.00000000000000022 1.00000000000000000 1.00000000000000000 0.00000000000000022 1.70000000000000018
2 15.00000000000527933 -728.83463815306140532 -0.00000000000000011 -1.00000000000000000 1.00000000000000000 -0.00000000000000011 1.70000000000000018
2 15.00000000000527756 -743.83463815306140532 -0.00000000000000011 -1.00000000000000000 1.00000000000000000 -0.00000000000000011 1.69999999999999929
2 27.50000000000339639 -15.00000000000511591 -1.00000000000000000 -0.00000000000000000 0.00000000000000000 -1.00000000000000000 1.70000000000000018
2 12.50000000000339639 -15.00000000000511591 -1.00000000000000000 -0.00000000000000000 0.00000000000000000 -1.00000000000000000 1.69999999999999929
1 0.00000000000000000 25.00000000000000000 1.00000000000000000 0.00000000000000000 
1 0.00000000000000000 0.00000000000000000 1.00000000000000000 0.00000000000000000 
1 6.28318530717958623 0.00000000000000000 0.00000000000000000 1.00000000000000000 
1 0.00000000000000000 0.00000000000000000 0.00000000000000000 1.00000000000000000 
1 0.00000000000000000 1.98327677526606050 1.00000000000000000 0.00000000000000000 
1 6.28318530717958623 0.00000000000000000 0.00000000000000000 1.00000000000000000 
1 0.00000000000000000 0.00000000000000000 0.00000000000000000 1.00000000000000000 
Curves 4
2 0.00000000000000000 0.00000000000000000 0.00000000000000000 -0.00000000000000000 -0.00000000000000000 -1.00000000000000000 -1.00000000000000000 0.00000000000000000 0.00000000000000000 0.00000000000000000 1.00000000000000000 -0.00000000000000000 1.69999999999999996
2 0.00000000000000000 0.00000000000000000 25.00000000000000000 -0.00000000000000000 -0.00000000000000000 -1.00000000000000000 -1.00000000000000000 0.00000000000000000 0.00000000000000000 0.00000000000000000 1.00000000000000000 -0.00000000000000000 1.69999999999999840
1 -1.69999999999999996 0.00000000000000000 0.00000000000000000 0.00000000000000006 0.00000000000000000 1.00000000000000000 
1 -1.69999999999999840 0.00000000000000000 25.00000000000000000 0.85716730070211211 0.00000000000000000 0.51503807491005460 
Polygon3D 0
PolygonOnTriangulations 0
Surfaces 6
1 0.00000000000000000 0.00000000000000000 0.00000000000000000 -0.00000000000000000 -0.00000000000000000 -1.00000000000000000 1.00000000000000000 -0.00000000000000000 0.00000000000000000 0.00000000000000000 1.00000000000000000 -0.00000000000000000 
2 0.00000000000000000 0.00000000000000000 0.00000000000000000 0.00000000000000000 0.00000000000000000 1.00000000000000000 -1.00000000000000000 0.00000000000000000 0.00000000000000000 -0.00000000000000000 1.00000000000000000 -0.00000000000000000 1.69999999999999996
1 -19.00000000000000000 0.39999999998597574 -0.00000000003695405 -0.00000000000000028 -0.00000000000074471 1.00000000000000000 0.00000000000000022 1.00000000000000000 0.00000000000074471 -1.00000000000000000 0.00000000000000022 -0.00000000000000028 
1 736.33463815306140532 -0.00000000000024299 0.00000000000016199 0.00000000000000022 -0.00000000000000000 -1.00000000000000000 0.00000000000000011 1.00000000000000000 0.00000000000000000 1.00000000000000000 -0.00000000000000011 0.00000000000000022 
1 -20.00000000000339639 -0.00000000000000000 0.00000000000000577 0.00000000000000000 0.00000000000000022 -1.00000000000000000 1.00000000000000000 0.00000000000000000 0.00000000000000000 0.00000000000000000 -1.00000000000000000 -0.00000000000000022 
3 0.00000000000000000 0.00000000000000000 25.00000000000000000 0.00000000000000000 0.00000000000000000 1.00000000000000000 -1.00000000000000000 0.00000000000000000 0.00000000000000000 -0.00000000000000000 1.00000000000000000 -0.00000000000000000 1.69999999999999840
-1.02974425867665409
Triangulations 0

TShapes 17
Ve
0.001000000027344
-1.700000000000000 0.000000000000000 0.000000000000000
0 0

0101101
*
Ed
 0.001000000027344 1 1 0
1  1 0 0.000000000000000 6.283185307179586
2  1 1 0 0.000000000000000 6.283185307179586
2  2 2 0 0.000000000000000 6.283185307179586
2  3 3 8 0.000000000000000 6.283185307179586
2  4 3 10 0.000000000000000 6.283185307179586
2  5 3 12 0.000000000000000 6.283185307179586
2  6 3 14 0.000000000000000 6.283185307179586
2  7 4 17 0.000000000000000 6.283185307179586
2  8 4 18 0.000000000000000 6.283185307179586
2  9 5 21 0.000000000000000 6.283185307179586
2  10 5 22 0.000000000000000 6.283185307179586
0

0101000
+17 0 -17 0 *
Wi

0101100
-16 0 *
Fa
0  0.000000100000000 1 0

0111000
+15 0 *
Ve
0.000000100000000
-1.699999999999998 0.000000000000000 25.000000000000000
0 0

0101101
*
Ed
 0.000000100000000 1 1 0
1  2 0 0.000000000000000 6.283185307179586
2  11 2 0 0.000000000000000 6.283185307179586
2  12 6 0 0.000000000000000 6.283185307179586
0

0101000
+13 0 -13 0 *
Ed
 0.000000100000000 1 1 0
1  3 0 0.000000000000000 25.000000000000000
3  13 14CN 2 0 0.000000000000000 25.000000000000000
0

0101000
+17 0 -13 0 *
Wi

0101100
+16 0 -12 0 -11 0 +11 0 *
Fa
0  0.000000100000000 2 0

0111000
+10 0 *
Ve
0.000000100000000
0.000000000000000 0.000000000000000 26.021463052346853
0 0

0101101
*
Ed
 0.000000100000000 1 1 1
2  15 6 0 0.000000000000000 6.283185307179586
0

0101000
+8 0 -8 0 *
Ed
 0.000000100000000 1 1 0
1  4 0 0.000000000000000 1.983276775266060
3  16 17CN 6 0 0.000000000000000 1.983276775266060
0

0101000
+13 0 -8 0 *
Wi

0101100
+12 0 -7 0 -6 0 +6 0 *
Fa
0  0.000000100000000 6 0

0111000
+5 0 *
Sh

0101100
+14 0 +9 0 +4 0 *
So

0100000
-3 0 *
Co

1100000
+2 1 +2 9 +2 11 +2 13 *

+1 0 