
CASCADE Topology V1, (c) Matra-Datavision
Locations 23
1
1.000000000000000 0.000000000000000 0.000000000000000 0.000000000000000 
0.000000000000000 1.000000000000000 0.000000000000000 0.000000000000000 
0.000000000000000 0.000000000000000 1.000000000000000 0.000000000000000 
1
0.000000000000000 -0.000000000000000 1.000000000000000 0.000000000000000 
1.000000000000000 0.000000000000000 -0.000000000000000 0.000000000000000 
-0.000000000000000 1.000000000000000 0.000000000000000 0.000000000000000 
1
1.000000000000000 0.000000000000000 0.000000000000000 0.000000000000000 
0.000000000000000 1.000000000000000 0.000000000000000 0.000000000000000 
0.000000000000000 0.000000000000000 1.000000000000000 0.000000000000000 
1
1.000000000000000 0.000000000000000 0.000000000000000 1497.067073246905920 
0.000000000000000 1.000000000000000 0.000000000000000 -0.000000000000332 
0.000000000000000 0.000000000000000 1.000000000000000 0.000000000000416 
2  1 1 2 1 3 -1 4 1 0
1
1.000000000000000 0.000000000000000 0.000000000000000 -2994.134146493811841 
0.000000000000000 1.000000000000000 0.000000000000000 0.000000000000665 
0.000000000000000 0.000000000000000 1.000000000000000 -0.000000000000831 
2  1 1 2 1 3 -1 4 1 6 1 0
1
1.000000000000000 0.000000000000000 0.000000000000000 0.000000000000000 
0.000000000000000 1.000000000000000 0.000000000000000 0.000000000000000 
0.000000000000000 0.000000000000000 1.000000000000000 0.000000000000000 
1
1.000000000000000 0.000000000000000 0.000000000000000 0.000000000000000 
0.000000000000000 1.000000000000000 0.000000000000000 0.000000000000000 
0.000000000000000 0.000000000000000 1.000000000000000 0.000000000000000 
1
0.000000000000000 -0.000000000000000 1.000000000000000 0.000000000000000 
1.000000000000000 0.000000000000000 -0.000000000000000 0.000000000000000 
-0.000000000000000 1.000000000000000 0.000000000000000 0.000000000000000 
2  8 -1 9 -1 10 -1 0
1
1.000000000000000 0.000000000000000 0.000000000000000 15.000000000000000 
0.000000000000000 1.000000000000000 0.000000000000000 -0.000000000000003 
0.000000000000000 0.000000000000000 1.000000000000000 0.000000000000003 
1
1.000000000000000 0.000000000000000 0.000000000000000 0.000000000000000 
0.000000000000000 1.000000000000000 0.000000000000000 0.000000000000000 
0.000000000000000 0.000000000000000 1.000000000000000 0.000000000000000 
1
1.000000000000000 0.000000000000000 0.000000000000000 0.000000000000000 
0.000000000000000 1.000000000000000 0.000000000000000 0.000000000000000 
0.000000000000000 0.000000000000000 1.000000000000000 0.000000000000000 
1
1.000000000000000 0.000000000000000 0.000000000000000 0.000000000000000 
0.000000000000000 1.000000000000000 0.000000000000000 0.000000000000000 
0.000000000000000 0.000000000000000 1.000000000000000 0.000000000000000 
2  12 -1 13 1 14 -1 15 -1 8 -1 9 -1 10 -1 0
1
1.000000000000000 0.000000000000000 0.000000000000000 -30.000000000000000 
0.000000000000000 1.000000000000000 0.000000000000000 0.000000000000007 
0.000000000000000 0.000000000000000 1.000000000000000 -0.000000000000007 
2  17 -1 12 -1 13 1 14 -1 15 -1 8 -1 9 -1 10 -1 0
2  4 -1 3 1 2 -1 1 -1 0
2  6 -1 4 -1 3 1 2 -1 1 -1 0
2  3 -1 4 1 0
2  1 1 2 1 0
2  3 -1 4 1 6 1 0
Curve2ds 38
1 121.00000000000000000 0.00000000000002687 -0.00000000000000000 -1.00000000000000000 
1 0.00000000000000000 0.00000000000000000 0.00000000000000000 -1.00000000000000000 
1 198.03912903592879502 140.95825891353371162 -1.00000000000000000 0.00000000000000022 
1 0.00000000000000000 0.00000000000000000 1.00000000000000000 0.00000000000000000 
1 -0.00000000000000666 -30.00000000000000000 1.00000000000000000 0.00000000000000000 
1 121.00000000000000000 -0.00000000000002687 0.00000000000000000 -1.00000000000000000 
1 0.00000000000000000 0.00000000000000000 0.00000000000000000 -1.00000000000000000 
1 0.00000000000000000 0.00000000000000000 1.00000000000000000 -0.00000000000000000 
1 0.00000000000000308 -2994.13414649381184063 1.00000000000000000 -0.00000000000000000 
1 0.00000000000000000 0.00000000000000000 1.00000000000000000 0.00000000000000000 
1 -0.00000000000000666 -30.00000000000000000 1.00000000000000000 0.00000000000000000 
1 -201.96087096407120498 140.95825891353379689 -0.00000000000000022 -1.00000000000000000 
1 159.00000000000000000 -0.00000000000003531 0.00000000000000000 -1.00000000000000000 
1 0.00000000000000000 0.00000000000000000 -0.00000000000000006 -1.00000000000000000 
1 0.00000000000000000 0.00000000000000000 1.00000000000000000 -0.00000000000000000 
1 -0.00000000000001113 -2994.13414649381184063 1.00000000000000000 -0.00000000000000000 
1 -201.96087096407123340 19.95825891353379689 -0.00000000000000022 -1.00000000000000000 
1 0.00000000000000000 0.00000000000000000 1.00000000000000000 0.00000000000000000 
1 -0.00000000000000666 -30.00000000000000000 1.00000000000000000 0.00000000000000000 
1 409.25764192008955433 0.00000000000009087 -0.00000000000000006 -1.00000000000000000 
1 -0.00000000000000000 0.00000000000000000 0.00000000000000000 -1.00000000000000000 
1 0.00000000000000000 0.00000000000000000 1.00000000000000000 0.00000000000000000 
1 -0.00000000000016621 -2994.13414649381184063 1.00000000000000000 0.00000000000000000 
1 -201.96087096407126182 -139.04174108646620311 1.00000000000000000 -0.00000000000000022 
1 0.00000000000000000 0.00000000000000000 1.00000000000000000 0.00000000000000000 
1 0.00000000000000000 -30.00000000000000000 1.00000000000000000 0.00000000000000000 
1 0.00000000000000000 0.00000000000000000 -0.00000000000000000 -1.00000000000000000 
1 159.26928119986163779 0.00000000000003325 0.00000000000000000 -1.00000000000000000 
1 -0.00000000000000000 0.00000000000000000 1.00000000000000000 -0.00000000000000000 
1 -0.00000000000000634 -2994.13414649381184063 1.00000000000000000 -0.00000000000000000 
1 207.29677095601829251 -139.04174108646628838 -0.05812572173583440 0.99830927095399069 
1 -0.00000000000000000 0.00000000000000000 1.00000000000000000 0.00000000000000000 
1 0.00000000000000626 -30.00000000000000000 1.00000000000000000 0.00000000000000000 
1 0.00000000000000000 0.00000000000000000 1.00000000000000000 0.00000000000000000 
1 0.00000000000001113 -2994.13414649381184063 1.00000000000000000 0.00000000000000000 
1 198.03912903592879502 19.95825891353371162 0.00000000000000022 1.00000000000000000 
1 0.00000000000000000 0.00000000000000000 1.00000000000000000 -0.00000000000000000 
1 0.00000000000000666 -30.00000000000000000 1.00000000000000000 -0.00000000000000000 
Curves 12
1 1497.06707324690592031 -50.00000000000024158 400.00000000000039790 -1.00000000000000000 0.00000000000000022 -0.00000000000000028 
1 1497.06707324690592031 -50.00000000000033396 0.00000000000042662 -1.00000000000000000 0.00000000000000022 -0.00000000000000028 
1 -50.00000000000000000 400.00000000000000000 0.00000000000000000 0.00000000000000000 -1.00000000000000000 0.00000000000000000 
1 1497.06707324690592031 70.99999999999967315 0.00000000000039975 -1.00000000000000000 0.00000000000000022 -0.00000000000000028 
1 -50.00000000000000000 0.00000000000000000 0.00000000000000000 1.00000000000000000 0.00000000000000000 0.00000000000000000 
1 1497.06707324690592031 229.99999999999965894 0.00000000000036445 -1.00000000000000000 0.00000000000000022 -0.00000000000000028 
1 71.00000000000000000 0.00000000000000000 0.00000000000000000 1.00000000000000000 0.00000000000000000 0.00000000000000000 
1 1497.06707324690592031 229.99999999999974420 409.25764192008989539 -1.00000000000000000 0.00000000000000022 -0.00000000000000028 
1 230.00000000000000000 0.00000000000000000 0.00000000000000000 0.00000000000000000 1.00000000000000000 0.00000000000000000 
1 1497.06707324690592031 70.99999999999975842 400.00000000000039790 -1.00000000000000000 0.00000000000000022 -0.00000000000000028 
1 230.00000000000000000 409.25764192008955433 0.00000000000000000 -0.99830927095399069 -0.05812572173583462 0.00000000000000000 
1 71.00000000000000000 400.00000000000000000 0.00000000000000000 -1.00000000000000000 0.00000000000000000 0.00000000000000000 
Polygon3D 0
PolygonOnTriangulations 0
Surfaces 14
1 1497.06707324690592031 -50.00000000000024158 400.00000000000039790 -0.00000000000000022 -1.00000000000000000 0.00000000000000022 0.00000000000000022 -0.00000000000000022 -1.00000000000000000 1.00000000000000000 -0.00000000000000022 0.00000000000000022 
1 1497.06707324690592031 70.99999999999975842 400.00000000000039790 -0.00000000000000028 0.00000000000000022 1.00000000000000000 -0.00000000000000022 -1.00000000000000000 0.00000000000000022 1.00000000000000000 -0.00000000000000022 0.00000000000000028 
1 1497.06707324690592031 -50.00000000000033396 0.00000000000042662 0.00000000000000028 -0.00000000000000022 -1.00000000000000000 0.00000000000000022 1.00000000000000000 -0.00000000000000022 1.00000000000000000 -0.00000000000000022 0.00000000000000028 
1 -0.00000000000002465 90.95825891353379689 201.96087096407120498 1.00000000000000000 -0.00000000000000022 0.00000000000000022 -0.00000000000000022 0.00000000000000000 1.00000000000000000 -0.00000000000000022 -1.00000000000000000 -0.00000000000000000 
1 14.99999999999990052 -49.99999999999990763 400.00000000000000000 -0.00000000000000022 -1.00000000000000000 0.00000000000000022 0.00000000000000022 -0.00000000000000022 -1.00000000000000000 1.00000000000000000 -0.00000000000000022 0.00000000000000022 
1 1497.06707324690592031 70.99999999999967315 0.00000000000039975 0.00000000000000028 -0.00000000000000022 -1.00000000000000000 0.00000000000000022 1.00000000000000000 -0.00000000000000022 1.00000000000000000 -0.00000000000000022 0.00000000000000028 
1 14.99999999999998934 -50.00000000000000000 0.00000000000001443 0.00000000000000022 -0.00000000000000022 -1.00000000000000000 0.00000000000000022 1.00000000000000000 -0.00000000000000022 1.00000000000000000 -0.00000000000000022 0.00000000000000022 
1 1497.06707324690592031 229.99999999999965894 0.00000000000036445 0.00000000000000022 1.00000000000000000 -0.00000000000000022 -0.00000000000000022 0.00000000000000022 1.00000000000000000 1.00000000000000000 -0.00000000000000022 0.00000000000000022 
1 15.00000000000001599 71.00000000000000000 -0.00000000000001243 0.00000000000000022 -0.00000000000000022 -1.00000000000000000 0.00000000000000022 1.00000000000000000 -0.00000000000000022 1.00000000000000000 -0.00000000000000022 0.00000000000000022 
1 1497.06707324690592031 229.99999999999974420 409.25764192008989539 -0.00000000000000029 -0.05812572173583440 0.99830927095399069 -0.00000000000000021 -0.99830927095399069 -0.05812572173583440 1.00000000000000000 -0.00000000000000023 0.00000000000000028 
1 15.00000000000005151 230.00000000000000000 -0.00000000000004774 0.00000000000000022 1.00000000000000000 -0.00000000000000022 -0.00000000000000022 0.00000000000000022 1.00000000000000000 1.00000000000000000 -0.00000000000000022 0.00000000000000022 
1 14.99999999999996092 230.00000000000008527 409.25764192008949749 -0.00000000000000023 -0.05812572173583440 0.99830927095399069 -0.00000000000000021 -0.99830927095399069 -0.05812572173583440 1.00000000000000000 -0.00000000000000022 0.00000000000000022 
1 14.99999999999992717 71.00000000000008527 400.00000000000000000 -0.00000000000000022 0.00000000000000022 1.00000000000000000 -0.00000000000000022 -1.00000000000000000 0.00000000000000022 1.00000000000000000 -0.00000000000000022 0.00000000000000022 
1 -0.00000000000002465 90.95825891353379689 201.96087096407120498 1.00000000000000000 -0.00000000000000022 0.00000000000000022 -0.00000000000000022 0.00000000000000000 1.00000000000000000 -0.00000000000000022 -1.00000000000000000 -0.00000000000000000 
Triangulations 0

TShapes 34
Ve
0.000000100000000
-50.000000000000000 400.000000000000000 0.000000000000000
0 0

0101101
*
Ed
 0.000000100000000 1 1 0
1  1 0 0.000000000000000 2994.134146493811841
2  1 2 0 0.000000000000000 2994.134146493811841
0

0101000
+34 5 -34 7 *
Ve
0.000000100000000
-50.000000000000000 0.000000000000000 0.000000000000000
0 0

0101101
*
Ed
 0.000000100000000 1 1 0
1  2 0 0.000000000000000 2994.134146493811841
2  2 3 0 0.000000000000000 2994.134146493811841
0

0101000
+32 5 -32 7 *
Ed
 0.000000100000000 1 1 0
1  3 0 0.000000000000000 400.000000000000000
2  3 4 11 0.000000000000000 400.000000000000000
2  4 5 16 0.000000000000000 400.000000000000000
2  5 5 18 0.000000000000000 400.000000000000000
0

0101000
+34 0 -32 0 *
Wi

0101100
+33 0 -31 0 -30 5 +30 7 *
Fa
0  0.000000100000000 1 0

0111000
+29 0 *
Ve
0.000000100000000
71.000000000000000 0.000000000000000 0.000000000000000
0 0

0101101
*
Ed
 0.000000100000000 1 1 0
1  4 0 0.000000000000000 2994.134146493811841
4 C2 3 0 6 0
2  6 3 0 0.000000000000000 2994.134146493811841
2  7 6 0 0.000000000000000 2994.134146493811841
0

0101000
+27 5 -27 7 *
Ed
 0.000000100000000 1 1 0
1  5 0 0.000000000000000 121.000000000000000
2  8 3 19 0.000000000000000 121.000000000000000
2  9 3 20 0.000000000000000 121.000000000000000
2  10 7 16 0.000000000000000 121.000000000000000
2  11 7 18 0.000000000000000 121.000000000000000
2  12 4 11 0.000000000000000 121.000000000000000
0

0101000
+32 0 -27 0 *
Wi

0101100
+31 0 -26 0 -25 5 +25 7 *
Fa
0  0.000000100000000 3 0

0111000
+24 0 *
Ve
0.000000100000000
230.000000000000000 0.000000000000000 0.000000000000000
0 0

0101101
*
Ed
 0.000000100000000 1 1 0
1  6 0 0.000000000000000 2994.134146493811841
2  13 6 0 0.000000000000000 2994.134146493811841
2  14 8 0 0.000000000000000 2994.134146493811841
0

0101000
+22 5 -22 7 *
Ed
 0.000000100000000 1 1 0
1  7 0 0.000000000000000 159.000000000000000
2  15 6 19 0.000000000000000 159.000000000000000
2  16 6 20 0.000000000000000 159.000000000000000
2  17 4 11 0.000000000000000 159.000000000000000
2  18 9 16 0.000000000000000 159.000000000000000
2  19 9 18 0.000000000000000 159.000000000000000
0

0101000
+27 0 -22 0 *
Wi

0101100
+26 0 -21 0 -20 5 +20 7 *
Fa
0  0.000000100000000 6 0

0111000
+19 0 *
Ve
0.000000100000000
230.000000000000000 409.257641920089554 0.000000000000000
0 0

0101101
*
Ed
 0.000000100000000 1 1 0
1  8 0 0.000000000000000 2994.134146493811841
2  20 8 0 0.000000000000000 2994.134146493811841
2  21 10 0 0.000000000000000 2994.134146493811841
0

0101000
+17 5 -17 7 *
Ed
 0.000000100000000 1 1 0
1  9 0 0.000000000000000 409.257641920089554
2  22 8 19 0.000000000000000 409.257641920089554
2  23 8 20 0.000000000000000 409.257641920089554
2  24 4 11 0.000000000000000 409.257641920089554
2  25 11 16 0.000000000000000 409.257641920089554
2  26 11 18 0.000000000000000 409.257641920089554
0

0101000
+22 0 -17 0 *
Wi

0101100
+21 0 -16 0 -15 5 +15 7 *
Fa
0  0.000000100000000 8 0

0111000
+14 0 *
Ve
0.000000100000000
71.000000000000000 400.000000000000000 0.000000000000000
0 0

0101101
*
Ed
 0.000000100000000 1 1 0
1  10 0 0.000000000000000 2994.134146493811841
2  27 2 0 0.000000000000000 2994.134146493811841
2  28 10 0 0.000000000000000 2994.134146493811841
0

0101000
+12 5 -12 7 *
Ed
 0.000000100000000 1 1 0
1  11 0 0.000000000000000 159.269281199861638
2  29 10 19 0.000000000000000 159.269281199861638
2  30 10 20 0.000000000000000 159.269281199861638
2  31 4 11 0.000000000000000 159.269281199861638
2  32 12 16 0.000000000000000 159.269281199861638
2  33 12 18 0.000000000000000 159.269281199861638
0

0101000
+17 0 -12 0 *
Wi

0101100
+16 0 -11 0 -10 5 +10 7 *
Fa
0  0.000000100000000 10 0

0111000
+9 0 *
Ed
 0.000000100000000 1 1 0
1  12 0 0.000000000000000 121.000000000000000
2  34 2 19 0.000000000000000 121.000000000000000
2  35 2 20 0.000000000000000 121.000000000000000
2  36 4 11 0.000000000000000 121.000000000000000
2  37 13 16 0.000000000000000 121.000000000000000
2  38 13 18 0.000000000000000 121.000000000000000
0

0101000
+12 0 -34 0 *
Wi

0101100
+11 0 -33 0 -7 5 +7 7 *
Fa
0  0.000000100000000 2 0

0111000
+6 0 *
Wi

0101100
+30 0 +25 0 +20 0 +15 0 +10 0 +7 0 *
Fa
0  0.000000100000000 14 0

0111000
+4 22 *
Sh

0101100
+28 0 +23 0 +18 0 +13 0 +8 0 +5 0 +3 21 -3 23 *
So

1100000
+2 0 *

+1 0 