
CASCADE Topology V1, (c) Matra-Datavision
Locations 12
1
1.000000000000000 0.000000000000000 0.000000000000000 0.000000000000000 
0.000000000000000 1.000000000000000 0.000000000000000 0.000000000000000 
0.000000000000000 0.000000000000000 1.000000000000000 0.000000000000000 
1
1.000000000000000 0.000000000000000 0.000000000000000 0.000000000000000 
0.000000000000000 1.000000000000000 0.000000000000000 0.000000000000000 
0.000000000000000 0.000000000000000 1.000000000000000 0.000000000000000 
1
1.000000000000000 0.000000000000000 0.000000000000000 0.000000000000000 
0.000000000000000 1.000000000000000 0.000000000000000 0.000000000000000 
0.000000000000000 0.000000000000000 1.000000000000000 0.000000000000000 
2  1 1 2 1 3 -1 0
1
1.000000000000000 0.000000000000000 0.000000000000000 0.000000000000000 
0.000000000000000 1.000000000000000 0.000000000000000 0.000000000000000 
0.000000000000000 0.000000000000000 1.000000000000000 1.500000000000000 
2  1 1 2 1 3 -1 5 1 0
2  3 1 2 -1 1 -1 0
2  5 -1 3 1 2 -1 1 -1 0
2  2 -1 1 -1 0
2  3 -1 0
2  1 1 2 1 0
2  3 -1 5 1 0
Curve2ds 33
1 0.00000000000000000 0.00000000000000000 0.00000000000000000 -1.00000000000000000 
1 342.99999999997953637 0.00000000000000000 0.00000000000000000 -1.00000000000000000 
1 95.99999999993507060 0.00000000000000000 0.00000000000000000 -1.00000000000000000 
1 0.00000000000000000 0.00000000000000000 0.00000000000000000 -1.00000000000000000 
1 0.00000000000000000 0.00000000000000000 1.00000000000000000 0.00000000000000000 
1 0.00000000000000000 -1.50000000000000000 1.00000000000000000 0.00000000000000000 
1 -175.34693411012793263 48.04387703065524562 0.00000000000000000 -1.00000000000000000 
1 338.99999999999624833 0.00000000000000000 0.00000000000000000 -1.00000000000000000 
1 0.00000000000000000 0.00000000000000000 1.00000000000000000 0.00000000000000000 
1 0.00000000000000000 -1.50000000000000000 1.00000000000000000 0.00000000000000000 
1 -175.34693411012793263 -47.95612296927982499 1.00000000000000000 0.00000000000000000 
1 163.65306588986831571 -47.95612296927982499 0.00000000000000000 1.00000000000000000 
1 163.65306588986831571 -39.95612296930400476 1.00000000000000000 0.00000000000000000 
1 -0.00000000001181366 0.00000000000000000 0.00000000000000000 -1.00000000000000000 
1 169.65306588986700831 -39.95612296930400476 0.00000000000000000 1.00000000000000000 
1 1.57079632679652192 0.00000000000000000 0.00000000000000000 -1.00000000000000000 
1 0.00000000000000000 -0.00000000000000000 0.00000000000000000 -1.00000000000000000 
1 0.00000000000000000 0.00000000000000000 1.00000000000000000 0.00000000000000000 
1 0.00000000000000000 -1.50000000000000000 1.00000000000000000 0.00000000000000000 
2 167.65306588985484382 46.04387703064310955 1.00000000000000000 0.00000000000000000 -0.00000000000000000 1.00000000000000000 2.00000000001216449
1 0.00000000000000000 -0.00000000000000000 1.00000000000000000 0.00000000000000000 
1 0.00000000000000000 -1.50000000000000000 1.00000000000000000 0.00000000000000000 
1 167.65306588985160374 48.04387703065524562 -1.00000000000000000 0.00000000000000000 
1 0.00000000000000000 0.00000000000000000 0.00000000000000000 -1.00000000000000000 
1 6.28318530717958623 0.00000000000000000 0.00000000000000000 -1.00000000000000000 
1 0.00000000000000000 0.00000000000000000 1.00000000000000000 0.00000000000000000 
1 0.00000000000000000 -1.50000000000000000 1.00000000000000000 0.00000000000000000 
2 153.45306588986832708 -32.45612296930914198 1.00000000000000000 0.00000000000000000 -0.00000000000000000 1.00000000000000000 1.69999999999998863
1 0.00000000000000000 0.00000000000000000 0.00000000000000000 -1.00000000000000000 
1 6.28318530717958623 0.00000000000000000 0.00000000000000000 -1.00000000000000000 
1 0.00000000000000000 0.00000000000000000 1.00000000000000000 0.00000000000000000 
1 0.00000000000000000 -1.50000000000000000 1.00000000000000000 0.00000000000000000 
2 153.45306588986832708 27.54387703068822901 1.00000000000000000 0.00000000000000000 -0.00000000000000000 1.00000000000000000 1.69999999999998863
Curves 18
1 0.00000000000000000 95.99999999990973265 0.00000000000000000 0.00000000000000000 0.00000000000000000 1.00000000000000000 
1 0.00000000000000000 -0.00000000002533798 0.00000000000000000 0.00000000000000000 0.00000000000000000 1.00000000000000000 
1 0.00000000000000000 95.99999999990973265 0.00000000000000000 0.00000000000000000 -1.00000000000000000 0.00000000000000000 
1 338.99999999999624833 -0.00000000002533800 0.00000000000000000 0.00000000000000000 0.00000000000000000 1.00000000000000000 
1 0.00000000000000000 -0.00000000002533800 0.00000000000000000 1.00000000000000000 0.00000000000000000 0.00000000000000000 
1 338.99999999999624833 7.99999999995048050 0.00000000000000000 0.00000000000000000 0.00000000000000000 1.00000000000000000 
1 338.99999999999624833 -0.00000000002533800 0.00000000000000000 0.00000000000000000 1.00000000000000000 0.00000000000000000 
1 344.99999999999494094 7.99999999995048050 0.00000000000000000 0.00000000000000000 0.00000000000000000 1.00000000000000000 
1 338.99999999999624833 7.99999999995048050 0.00000000000000000 1.00000000000000000 0.00000000000000000 0.00000000000000000 
1 344.99999999999494094 93.99999999987396393 0.00000000000000000 0.00000000000000000 0.00000000000000000 1.00000000000000000 
1 344.99999999999494094 7.99999999995048050 0.00000000000000000 0.00000000000000000 1.00000000000000000 0.00000000000000000 
1 342.99999999997953637 95.99999999990973265 0.00000000000000000 0.00000000000000000 0.00000000000000000 1.00000000000000000 
2 342.99999999998277644 93.99999999989759658 0.00000000000000000 0.00000000000000000 0.00000000000000000 1.00000000000000000 1.00000000000000000 0.00000000000000000 -0.00000000000000000 -0.00000000000000000 1.00000000000000000 0.00000000000000000 2.00000000001213696
1 342.99999999997953637 95.99999999990973265 0.00000000000000000 -1.00000000000000000 0.00000000000000000 0.00000000000000000 
1 330.49999999999624833 15.49999999994534505 0.00000000000000000 0.00000000000000000 0.00000000000000000 1.00000000000000000 
2 328.79999999999625970 15.49999999994534505 0.00000000000000000 0.00000000000000000 0.00000000000000000 1.00000000000000000 1.00000000000000000 0.00000000000000000 -0.00000000000000000 -0.00000000000000000 1.00000000000000000 0.00000000000000000 1.70000000000000528
1 330.49999999999624833 75.49999999994271604 0.00000000000000000 0.00000000000000000 0.00000000000000000 1.00000000000000000 
2 328.79999999999625970 75.49999999994271604 0.00000000000000000 0.00000000000000000 0.00000000000000000 1.00000000000000000 1.00000000000000000 0.00000000000000000 -0.00000000000000000 -0.00000000000000000 1.00000000000000000 0.00000000000000000 1.70000000000000528
Polygon3D 0
PolygonOnTriangulations 0
Surfaces 10
1 0.00000000000000000 95.99999999990973265 0.00000000000000000 1.00000000000000000 0.00000000000000000 -0.00000000000000000 0.00000000000000000 -1.00000000000000000 0.00000000000000000 0.00000000000000000 -0.00000000000000000 -1.00000000000000000 
1 342.99999999997953637 95.99999999990973265 0.00000000000000000 0.00000000000000000 -1.00000000000000000 0.00000000000000000 -1.00000000000000000 0.00000000000000000 0.00000000000000000 -0.00000000000000000 -0.00000000000000000 -1.00000000000000000 
1 0.00000000000000000 -0.00000000002533800 0.00000000000000000 0.00000000000000000 1.00000000000000000 0.00000000000000000 1.00000000000000000 0.00000000000000000 0.00000000000000000 0.00000000000000000 0.00000000000000000 -1.00000000000000000 
1 175.34693411012793263 47.95612296925448703 0.00000000000000000 0.00000000000000000 0.00000000000000000 1.00000000000000000 1.00000000000000000 0.00000000000000000 -0.00000000000000000 -0.00000000000000000 1.00000000000000000 0.00000000000000000 
1 338.99999999999624833 -0.00000000002533800 0.00000000000000000 -1.00000000000000000 0.00000000000000000 0.00000000000000000 0.00000000000000000 1.00000000000000000 0.00000000000000000 0.00000000000000000 0.00000000000000000 -1.00000000000000000 
1 338.99999999999624833 7.99999999995048050 0.00000000000000000 0.00000000000000000 1.00000000000000000 0.00000000000000000 1.00000000000000000 0.00000000000000000 0.00000000000000000 0.00000000000000000 0.00000000000000000 -1.00000000000000000 
1 344.99999999999494094 7.99999999995048050 0.00000000000000000 -1.00000000000000000 0.00000000000000000 0.00000000000000000 0.00000000000000000 1.00000000000000000 0.00000000000000000 0.00000000000000000 0.00000000000000000 -1.00000000000000000 
2 342.99999999998277644 93.99999999989759658 0.00000000000000000 -0.00000000000000000 -0.00000000000000000 -1.00000000000000000 1.00000000000000000 0.00000000000000000 0.00000000000000000 -0.00000000000000000 1.00000000000000000 -0.00000000000000000 2.00000000001213696
2 328.79999999999625970 15.49999999994534505 0.00000000000000000 -0.00000000000000000 -0.00000000000000000 -1.00000000000000000 1.00000000000000000 0.00000000000000000 0.00000000000000000 -0.00000000000000000 1.00000000000000000 -0.00000000000000000 1.70000000000000528
2 328.79999999999625970 75.49999999994271604 0.00000000000000000 -0.00000000000000000 -0.00000000000000000 -1.00000000000000000 1.00000000000000000 0.00000000000000000 0.00000000000000000 -0.00000000000000000 1.00000000000000000 -0.00000000000000000 1.70000000000000528
Triangulations 0

TShapes 51
Ve
0.000000100000000
0.000000000000000 95.999999999909733 0.000000000000000
0 0

0101101
*
Ed
 0.000000100000000 1 1 0
1  1 0 0.000000000000000 1.500000000000000
2  1 1 0 0.000000000000000 1.500000000000000
2  2 2 0 0.000000000000000 1.500000000000000
0

0101000
+51 4 -51 6 *
Ve
0.000000100000000
0.000000000000000 -0.000000000025338 0.000000000000000
0 0

0101101
*
Ed
 0.000000100000000 1 1 0
1  2 0 0.000000000000000 1.500000000000000
2  3 1 0 0.000000000000000 1.500000000000000
2  4 3 0 0.000000000000000 1.500000000000000
0

0101000
+49 4 -49 6 *
Ed
 0.000000100000000 1 1 0
1  3 0 0.000000000000000 95.999999999935071
2  5 1 7 0.000000000000000 95.999999999935071
2  6 1 8 0.000000000000000 95.999999999935071
2  7 4 9 0.000000000000000 95.999999999935071
0

0101000
+51 0 -49 0 *
Wi

0101100
+50 0 -48 0 -47 4 +47 6 *
Fa
0  0.000000100000000 1 0

0111000
+46 0 *
Ve
0.000000100000000
338.999999999996248 -0.000000000025338 0.000000000000000
0 0

0101101
*
Ed
 0.000000100000000 1 1 0
1  4 0 0.000000000000000 1.500000000000000
2  8 3 0 0.000000000000000 1.500000000000000
0

0101000
+44 4 -44 6 *
Ed
 0.000000100000000 1 1 0
1  5 0 0.000000000000000 338.999999999996248
2  9 3 7 0.000000000000000 338.999999999996248
2  10 3 8 0.000000000000000 338.999999999996248
2  11 4 9 0.000000000000000 338.999999999996248
0

0101000
+49 0 -44 0 *
Wi

0101100
+48 0 -43 0 -42 4 +42 6 *
Fa
0  0.000000100000000 3 0

0111000
+41 0 *
Ve
0.000000100000000
338.999999999996248 7.999999999950481 0.000000000000000
0 0

0101101
*
Ed
 0.000000100000000 1 1 0
1  6 0 0.000000000000000 1.500000000000000
0

0101000
+39 4 -39 6 *
Ed
 0.000000100000000 1 1 0
1  7 0 0.000000000000000 7.999999999975818
2  12 4 9 0.000000000000000 7.999999999975818
0

0101000
+44 0 -39 0 *
Wi

0101100
+43 0 -38 0 -37 4 +37 6 *
Fa
0  0.000000100000000 5 0

0111000
+36 0 *
Ve
0.000000100000000
344.999999999994941 7.999999999950481 0.000000000000000
0 0

0101101
*
Ed
 0.000000100000000 1 1 0
1  8 0 0.000000000000000 1.500000000000000
0

0101000
+34 4 -34 6 *
Ed
 0.000000100000000 1 1 0
1  9 0 0.000000000000000 5.999999999998693
2  13 4 9 0.000000000000000 5.999999999998693
0

0101000
+39 0 -34 0 *
Wi

0101100
+38 0 -33 0 -32 4 +32 6 *
Fa
0  0.000000100000000 6 0

0111000
+31 0 *
Ve
0.000000100000000
344.999999999994941 93.999999999873964 0.000000000000000
0 0

0101101
*
Ed
 0.000000100000000 1 1 0
1  10 0 0.000000000000000 1.500000000000000
2  14 8 0 0.000000000000000 1.500000000000000
4 G1 7 0 8 0
0

0101000
+29 4 -29 6 *
Ed
 0.000000100000000 1 1 0
1  11 0 0.000000000000000 85.999999999923489
2  15 4 9 0.000000000000000 85.999999999923489
0

0101000
+34 0 -29 0 *
Wi

0101100
+33 0 -28 0 -27 4 +27 6 *
Fa
0  0.000000100000000 7 0

0111000
+26 0 *
Ve
0.000000100000000
342.999999999979536 95.999999999909733 0.000000000000000
0 0

0101101
*
Ed
 0.000000100000000 1 1 0
1  12 0 0.000000000000000 1.500000000000000
2  16 8 0 0.000000000000000 1.500000000000000
4 G1 8 0 2 0
2  17 2 0 0.000000000000000 1.500000000000000
0

0101000
+24 4 -24 6 *
Ed
 0.000000100000000 1 1 0
1  13 0 -0.000000000011814 1.570796326796522
2  18 8 7 -0.000000000011814 1.570796326796522
2  19 8 8 -0.000000000011814 1.570796326796522
2  20 4 9 -0.000000000011814 1.570796326796522
0

0101000
+29 0 -24 0 *
Wi

0101100
+28 0 -23 0 -22 4 +22 6 *
Fa
0  0.000000100000000 8 0

0111000
+21 0 *
Ed
 0.000000100000000 1 1 0
1  14 0 0.000000000000000 342.999999999979536
2  21 2 7 0.000000000000000 342.999999999979536
2  22 2 8 0.000000000000000 342.999999999979536
2  23 4 9 0.000000000000000 342.999999999979536
0

0101000
+24 0 -51 0 *
Wi

0101100
+23 0 -50 0 -19 4 +19 6 *
Fa
0  0.000000100000000 2 0

0111000
+18 0 *
Ve
0.000000100000000
330.499999999996248 15.499999999945345 0.000000000000000
0 0

0101101
*
Ed
 0.000000100000000 1 1 0
1  15 0 0.000000000000000 1.500000000000000
3  24 25CN 9 0 0.000000000000000 1.500000000000000
0

0101000
+16 4 -16 6 *
Ed
 0.000000100000000 1 1 0
1  16 0 0.000000000000000 6.283185307179586
2  26 9 7 0.000000000000000 6.283185307179586
2  27 9 8 0.000000000000000 6.283185307179586
2  28 4 9 0.000000000000000 6.283185307179586
0

0101100
+16 0 -16 0 *
Wi

0101100
+15 0 -15 0 -14 4 +14 6 *
Fa
0  0.000000100000000 9 0

0111000
+13 0 *
Ve
0.000000100000000
330.499999999996248 75.499999999942716 0.000000000000000
0 0

0101101
*
Ed
 0.000000100000000 1 1 0
1  17 0 0.000000000000000 1.500000000000000
3  29 30CN 10 0 0.000000000000000 1.500000000000000
0

0101000
+11 4 -11 6 *
Ed
 0.000000100000000 1 1 0
1  18 0 0.000000000000000 6.283185307179586
2  31 10 7 0.000000000000000 6.283185307179586
2  32 10 8 0.000000000000000 6.283185307179586
2  33 4 9 0.000000000000000 6.283185307179586
0

0101100
+11 0 -11 0 *
Wi

0101100
+10 0 -10 0 -9 4 +9 6 *
Fa
0  0.000000100000000 10 0

0111000
+8 0 *
Wi

0101100
+47 0 +42 0 +37 0 +32 0 +27 0 +22 0 +19 0 *
Wi

0101100
+14 0 *
Wi

0101100
+9 0 *
Fa
0  0.000000100000000 4 0

0111000
+6 11 -5 11 -4 11 *
Sh

0101100
+45 0 +40 0 +35 0 +30 0 +25 0 +20 0 +17 0 -12 0 -7 0 +3 10 
-3 12 *
So

1100000
-2 0 *

+1 0 