
CASCADE Topology V1, (c) Matra-Datavision
Locations 6
1
1.000000000000000 0.000000000000000 0.000000000000000 0.000000000000000 
0.000000000000000 1.000000000000000 0.000000000000000 0.000000000000000 
0.000000000000000 0.000000000000000 1.000000000000000 0.000000000000000 
1
1.000000000000000 0.000000000000000 0.000000000000000 -0.000000000000000 
0.000000000000000 1.000000000000000 0.000000000000000 1060.000000000000000 
0.000000000000000 0.000000000000000 1.000000000000000 0.000000000000235 
1
1.000000000000000 0.000000000000000 0.000000000000000 0.000000000000000 
0.000000000000000 1.000000000000000 0.000000000000000 -1060.000000000000000 
0.000000000000000 0.000000000000000 1.000000000000000 -0.000000000000235 
2  2 1 3 1 0
2  3 -1 2 -1 0
2  2 -1 0
Curve2ds 95
1 1.57079632679489656 0.00000000000000000 0.00000000000000000 -1.00000000000000000 
1 0.00000000000000000 -0.29999999999999893 1.00000000000000000 0.00000000000000000 
1 0.00000000000000000 -0.30000000000000071 -1.00000000000000000 0.00000000000000000 
1 0.00000000000000000 0.00000000000000000 0.00000000000000000 -1.00000000000000000 
1 9.60000000000000142 -0.00000000000000213 0.00000000000000000 -1.00000000000000000 
1 0.00000000000000000 0.00000000000000000 1.00000000000000000 0.00000000000000000 
1 0.00000000000000000 -0.30000000000000071 -1.00000000000000000 0.00000000000000000 
1 0.00000000000000000 -0.30000000000000071 1.00000000000000000 0.00000000000000000 
1 -0.39999999999999991 0.00000000000000009 1.00000000000000000 0.00000000000000000 
1 -0.39999999999999991 -1060.00000000000000000 1.00000000000000000 0.00000000000000000 
1 0.00000000000000000 0.00000000000000000 0.00000000000000000 -1.00000000000000000 
1 -0.00000000000000007 -0.29999999999999999 1.00000000000000000 0.00000000000000000 
1 0.00000000000000007 -0.29999999999999988 -1.00000000000000000 0.00000000000000000 
1 31.70000000000000284 0.00000000000000000 0.00000000000000000 -1.00000000000000000 
1 0.00000000000000000 1060.00000000000000000 1.00000000000000000 0.00000000000000000 
1 0.00000000000000000 0.00000000000000000 1.00000000000000000 0.00000000000000000 
1 0.00000000000000000 -1060.00000000000000000 1.00000000000000000 0.00000000000000000 
1 6.28318530717958623 0.00000000000000000 -1.00000000000000000 0.00000000000000000 
1 0.00000000000000000 0.00000000000000000 1.00000000000000000 0.00000000000000000 
6 0 1 -10.00000000000000000 -0.30000000000000071  -10.00000000000000000 0.00000000000000000  
1 9.60000000000000142 -0.00000000000000213 0.00000000000000000 -1.00000000000000000 
6 0 1 10.00000000000000000 -0.30000000000000071  10.00000000000000000 0.00000000000000000  
1 -0.39999999999999991 0.00000000000000009 1.00000000000000000 0.00000000000000000 
1 0.00000000000000000 0.00000000000000000 1.00000000000000000 0.00000000000000000 
6 0 1 0.00000000000000000 -0.30000000000000071  0.00000000000000000 0.00000000000000000  
6 0 1 0.39999999999999991 -0.30000000000000071  0.39999999999999991 0.00000000000000000  
8 0.00000000000000000 1.00000000000000000
1 1.57079632679489656 0.00000000000000000 0.00000000000000000 1.00000000000000000 
6 0 1 -0.39999999999999991 -0.30000000000000071  -0.39999999999999991 0.00000000000000000  
6 0 1 -1060.00000000000000000 -0.30000000000000071  -1060.00000000000000000 0.00000000000000000  
8 0.00000000000000000 1.00000000000000000
1 4.71238898038468967 0.00000000000000000 0.00000000000000000 1.00000000000000000 
1 -0.39999999999999991 -1060.00000000000000000 1.00000000000000000 0.00000000000000000 
1 0.00000000000000000 0.00000000000000000 -1.00000000000000000 0.00000000000000000 
1 6.28318530717958623 0.00000000000000000 0.00000000000000000 -1.00000000000000000 
1 -0.00000000000000007 -0.29999999999999855 1.00000000000000000 0.00000000000000000 
1 0.00000000000000007 -0.29999999999999999 -1.00000000000000000 0.00000000000000000 
1 0.00000000000000000 0.00000000000000000 0.00000000000000000 -1.00000000000000000 
1 0.00000000000000000 0.00000000000000000 1.00000000000000000 0.00000000000000000 
1 0.00000000000000000 -0.29999999999999999 -1.00000000000000000 0.00000000000000000 
1 0.00000000000000000 -0.29999999999999999 1.00000000000000000 0.00000000000000000 
1 -0.39999999999999858 0.00000000000000000 1.00000000000000000 0.00000000000000000 
1 -0.39999999999999858 -1060.00000000000000000 1.00000000000000000 0.00000000000000000 
1 0.00000000000000000 1.00000000000000000 1.00000000000000000 0.00000000000000000 
1 0.00000000000000000 0.00000000000000000 0.00000000000000000 1.00000000000000000 
6 0 1 0.00000000000000000 -0.29999999999999988  0.00000000000000000 0.00000000000000000  
1 6.28318530717958623 0.00000000000000000 0.00000000000000000 1.00000000000000000 
7 0 0  1 2 2  -1060.00000000000000000 -0.30000000000000004  -1060.00000000000000000 -0.00000000000000006 
 0.00000000000000000 2 1.00000000000000000 2
1 6.28318530717958623 1.00000000000000000 -1.00000000000000000 0.00000000000000000 
1 0.00000000000000000 0.00000000000000000 0.00000000000000000 -1.00000000000000000 
1 0.00000000000000000 0.00000000000000000 -1.00000000000000000 0.00000000000000000 
8 0.00000000000000000 1060.00000000000000000
1 1.57079632679489656 0.00000000000000000 0.00000000000000000 -1.00000000000000000 
1 4.71238898038468967 0.00000000000000000 0.00000000000000000 -1.00000000000000000 
1 0.00000000000000000 -0.30000000000000071 1.00000000000000000 0.00000000000000000 
1 -0.00000000000000000 -0.29999999999999893 -1.00000000000000000 0.00000000000000000 
1 9.60000000000000142 0.00000000000000213 0.00000000000000000 -1.00000000000000000 
1 -4.71238898038468967 1060.00000000000000000 1.00000000000000000 0.00000000000000000 
1 0.00000000000000000 0.00000000000000000 1.00000000000000000 0.00000000000000000 
1 0.00000000000000000 -1060.00000000000000000 1.00000000000000000 0.00000000000000000 
1 6.28318530717958623 0.00000000000000000 -1.00000000000000000 0.00000000000000000 
1 0.00000000000000000 0.00000000000000000 1.00000000000000000 0.00000000000000000 
1 -0.39999999999999858 0.00000000000000000 1.00000000000000000 0.00000000000000000 
1 0.00000000000000000 0.00000000000000000 1.00000000000000000 0.00000000000000000 
6 0 1 0.39999999999999858 -0.29999999999999999  0.39999999999999858 0.00000000000000000  
6 0 1 0.00000000000000000 -0.29999999999999999  0.00000000000000000 0.00000000000000000  
8 0.00000000000000000 1.00000000000000000
1 6.28318530717958623 0.00000000000000000 0.00000000000000000 1.00000000000000000 
6 0 1 -0.39999999999999858 -0.29999999999999999  -0.39999999999999858 0.00000000000000000  
6 0 1 -1060.00000000000000000 -0.29999999999999999  -1060.00000000000000000 0.00000000000000000  
8 0.00000000000000000 1.00000000000000000
1 0.00000000000000000 0.00000000000000000 0.00000000000000000 1.00000000000000000 
1 -0.39999999999999858 -1060.00000000000000000 1.00000000000000000 0.00000000000000000 
1 0.00000000000000000 0.00000000000000000 -1.00000000000000000 0.00000000000000000 
1 0.00000000000000000 0.00000000000000000 -1.00000000000000000 0.00000000000000000 
1 31.70000000000000284 0.00000000000000000 0.00000000000000000 -1.00000000000000000 
1 0.00000000000000000 0.00000000000000000 0.00000000000000000 -1.00000000000000000 
1 0.00000000000000000 0.00000000000000000 1.00000000000000000 0.00000000000000000 
1 0.00000000000000000 -0.30000000000000071 -1.00000000000000000 0.00000000000000000 
1 0.00000000000000000 -0.30000000000000071 1.00000000000000000 0.00000000000000000 
1 0.00000000000000000 0.00000000000000000 1.00000000000000000 0.00000000000000000 
1 0.00000000000000089 -1060.00000000000000000 1.00000000000000000 0.00000000000000000 
1 0.00000000000000000 1.00000000000000000 1.00000000000000000 0.00000000000000000 
1 4.71238898038468967 0.00000000000000000 0.00000000000000000 1.00000000000000000 
6 0 1 0.00000000000000000 -0.30000000000000071  0.00000000000000000 0.00000000000000000  
1 1.57079632679489656 0.00000000000000000 0.00000000000000000 1.00000000000000000 
7 0 0  1 2 2  -1060.00000000000000000 -0.29999999999999716  -1060.00000000000000000 0.00000000000000178 
 0.00000000000000000 2 1.00000000000000000 2
1 6.28318530717958623 1.00000000000000000 -1.00000000000000000 0.00000000000000000 
1 0.00000000000000000 0.00000000000000000 0.00000000000000000 -1.00000000000000000 
1 0.00000000000000000 0.00000000000000000 -1.00000000000000000 0.00000000000000000 
8 0.00000000000000000 1060.00000000000000000
1 6.28318530717958623 0.00000000000000000 0.00000000000000000 -1.00000000000000000 
6 0 1 0.00000000000000000 -0.30000000000000071  0.00000000000000000 0.00000000000000000  
1 0.00000000000000000 0.00000000000000000 0.00000000000000000 -1.00000000000000000 
6 0 1 0.00000000000000000 -0.30000000000000071  0.00000000000000000 0.00000000000000000  
1 0.00000000000000000 0.00000000000000000 1.00000000000000000 0.00000000000000000 
1 0.00000000000000000 0.00000000000000000 1.00000000000000000 0.00000000000000000 
1 0.00000000000000089 -1060.00000000000000000 1.00000000000000000 0.00000000000000000 
1 0.00000000000000000 0.00000000000000000 -1.00000000000000000 0.00000000000000000 
1 0.00000000000000000 0.00000000000000000 -1.00000000000000000 0.00000000000000000 
1 9.60000000000000142 0.00000000000000213 0.00000000000000000 -1.00000000000000000 
Curves 39
1 16.25000000000000000 1060.00000000000000000 -0.39999999999976454 0.00000000000000000 -1.00000000000000000 -0.00000000000000022 
1 16.25000000000000000 1060.00000000000000000 -9.99999999999976552 0.00000000000000000 -1.00000000000000000 -0.00000000000000022 
1 16.25000000000000000 0.00000000000000000 0.00000000000000000 0.00000000000000000 0.00000000000000022 -1.00000000000000000 
1 15.85000000000000142 1060.00000000000000000 0.00000000000023537 0.00000000000000000 -1.00000000000000000 -0.00000000000000022 
2 15.85000000000000142 0.00000000000000000 -0.39999999999999991 -0.00000000000000000 1.00000000000000000 0.00000000000000022 0.00000000000000000 -0.00000000000000022 1.00000000000000000 1.00000000000000000 0.00000000000000000 0.00000000000000000 0.40000000000000002
6 0 1 16.25000000000000000 0.00000000000000222 -10.00000000000000000  15.94999999999999929 0.00000000000000000 -10.00000000000000000  
1 15.94999999999999929 1060.00000000000000000 -9.99999999999976552 0.00000000000000000 -1.00000000000000000 -0.00000000000000022 
6 0 1 16.25000000000000000 1060.00000000000000000 -9.99999999999976552  15.94999999999999929 1060.00000000000000000 -9.99999999999976552  
1 15.94999999999999929 1060.00000000000000000 0.00000000000023537 0.00000000000000000 0.00000000000000022 -1.00000000000000000 
6 0 1 16.25000000000000000 1060.00000000000000000 -0.39999999999976454  15.94999999999999929 1060.00000000000000000 -0.39999999999976454  
6 0 1 16.25000000000000000 0.00000000000000009 -0.39999999999999991  15.94999999999999929 0.00000000000000000 -0.39999999999999991  
1 15.94999999999999929 0.00000000000000000 0.00000000000000000 0.00000000000000000 0.00000000000000022 -1.00000000000000000 
1 -15.85000000000000142 1060.00000000000000000 0.00000000000023537 0.00000000000000000 -1.00000000000000000 -0.00000000000000022 
1 -16.25000000000000000 0.00000000000000000 0.00000000000000000 1.00000000000000000 0.00000000000000000 0.00000000000000000 
2 15.85000000000000142 1060.00000000000000000 -0.39999999999976454 -0.00000000000000000 1.00000000000000000 0.00000000000000022 0.00000000000000000 -0.00000000000000022 1.00000000000000000 1.00000000000000000 0.00000000000000000 0.00000000000000000 0.10000000000000003
6 0 1 15.85000000000000142 1060.00000000000000000 0.00000000000023537  15.85000000000000142 1060.00000000000000000 -0.29999999999976451  
7 0 0  1 2 2  15.84999999999999964 -0.00000000000000009 0.00000000000000014  15.85000000000000320 -0.00000000000000002 -0.29999999999999982 
 0.00000000000000000 2 1.00000000000000000 2
2 15.85000000000000142 0.00000000000000000 -0.39999999999999991 -0.00000000000000000 1.00000000000000000 0.00000000000000022 0.00000000000000000 -0.00000000000000022 1.00000000000000000 1.00000000000000000 0.00000000000000000 0.00000000000000000 0.10000000000000003
1 15.94999999999999929 1060.00000000000000000 -0.39999999999976454 0.00000000000000000 -1.00000000000000000 -0.00000000000000022 
1 -16.25000000000000000 1060.00000000000000000 -0.39999999999976499 0.00000000000000000 -1.00000000000000000 -0.00000000000000022 
2 -15.85000000000000142 -0.00000000000000361 -0.39999999999999858 0.00000000000000000 1.00000000000000000 0.00000000000000022 0.00000000000000022 -0.00000000000000022 1.00000000000000000 1.00000000000000000 0.00000000000000000 -0.00000000000000022 0.40000000000000002
1 -16.25000000000000000 1060.00000000000000000 -0.29999999999976462 1.00000000000000000 0.00000000000000000 0.00000000000000000 
6 0 1 -15.85000000000000142 1060.00000000000000000 0.00000000000023537  -15.85000000000000142 1060.00000000000000000 -0.29999999999976462  
6 0 1 -15.85000000000000142 0.00000000000000000 0.00000000000000000  -15.85000000000000142 0.00000000000000000 -0.29999999999999999  
1 -16.25000000000000000 0.00000000000000000 -0.29999999999999999 1.00000000000000000 0.00000000000000000 0.00000000000000000 
1 15.85000000000000142 1060.00000000000000000 -0.29999999999976451 0.00000000000000000 -1.00000000000000000 -0.00000000000000022 
1 -16.25000000000000000 1060.00000000000000000 -9.99999999999976552 0.00000000000000000 -1.00000000000000000 -0.00000000000000022 
1 -16.25000000000000000 0.00000000000000222 -10.00000000000000000 0.00000000000000000 -0.00000000000000022 1.00000000000000000 
2 -15.85000000000000142 1060.00000000000000000 -0.39999999999976321 0.00000000000000000 1.00000000000000000 0.00000000000000022 0.00000000000000022 -0.00000000000000022 1.00000000000000000 1.00000000000000000 0.00000000000000000 -0.00000000000000022 0.10000000000000003
6 0 1 -16.25000000000000000 1060.00000000000000000 -0.39999999999976499  -15.95000000000000107 1060.00000000000000000 -0.39999999999976321  
7 0 0  1 2 2  -16.24999999999999645 -0.00000000000000361 -0.39999999999999847  -15.94999999999999929 -0.00000000000000000 -0.39999999999999847 
 0.00000000000000000 2 1.00000000000000000 2
2 -15.85000000000000142 0.00000000000000000 -0.39999999999999858 0.00000000000000000 1.00000000000000000 0.00000000000000022 0.00000000000000022 -0.00000000000000022 1.00000000000000000 1.00000000000000000 0.00000000000000000 -0.00000000000000022 0.10000000000000003
1 -15.85000000000000142 1060.00000000000000000 -0.29999999999976462 0.00000000000000000 -1.00000000000000000 -0.00000000000000022 
6 0 1 -16.25000000000000000 1060.00000000000000000 -9.99999999999976552  -15.94999999999999929 1060.00000000000000000 -9.99999999999976552  
1 -15.94999999999999929 1060.00000000000000000 -9.99999999999976552 0.00000000000000000 -1.00000000000000000 -0.00000000000000022 
6 0 1 -16.25000000000000000 0.00000000000000222 -10.00000000000000000  -15.94999999999999929 0.00000000000000000 -10.00000000000000000  
1 -15.94999999999999929 1060.00000000000000000 -9.99999999999976552 0.00000000000000000 -0.00000000000000022 1.00000000000000000 
1 -15.94999999999999929 0.00000000000000000 -10.00000000000000000 0.00000000000000000 -0.00000000000000022 1.00000000000000000 
1 -15.95000000000000107 1060.00000000000000000 -0.39999999999976321 -0.00000000000000000 -1.00000000000000000 -0.00000000000000022 
Polygon3D 0
PolygonOnTriangulations 0
Surfaces 35
1 16.25000000000000000 1060.00000000000000000 -0.39999999999976454 1.00000000000000000 0.00000000000000000 0.00000000000000000 0.00000000000000000 0.00000000000000022 -1.00000000000000000 -0.00000000000000000 1.00000000000000000 0.00000000000000022 
2 15.85000000000000142 1060.00000000000000000 -0.39999999999976454 -0.00000000000000000 1.00000000000000000 0.00000000000000022 0.00000000000000000 -0.00000000000000022 1.00000000000000000 1.00000000000000000 0.00000000000000000 0.00000000000000000 0.40000000000000002
1 15.95000000000000107 1060.00000000000000000 -0.39999999999976454 0.00000000000000000 0.00000000000000022 -1.00000000000000000 0.00000000000000000 -1.00000000000000000 -0.00000000000000022 -1.00000000000000000 0.00000000000000000 -0.00000000000000000 
1 15.94999999999999929 1060.00000000000000000 -0.39999999999976454 0.00000000000000000 -0.00000000000000022 1.00000000000000000 -0.00000000000000000 1.00000000000000000 0.00000000000000022 -1.00000000000000000 -0.00000000000000000 0.00000000000000000 
1 16.25000000000000000 0.00000000000000000 0.00000000000000000 1.00000000000000000 0.00000000000000000 0.00000000000000000 0.00000000000000000 0.00000000000000022 -1.00000000000000000 -0.00000000000000000 1.00000000000000000 0.00000000000000022 
1 15.94999999999999929 0.00000000000000000 0.00000000000000000 -0.00000000000000000 -1.00000000000000000 -0.00000000000000022 -0.00000000000000000 -0.00000000000000022 1.00000000000000000 -1.00000000000000000 0.00000000000000000 0.00000000000000000 
1 15.94999999999999929 1060.00000000000000000 0.00000000000023537 0.00000000000000000 1.00000000000000000 0.00000000000000022 0.00000000000000000 0.00000000000000022 -1.00000000000000000 -1.00000000000000000 0.00000000000000000 0.00000000000000000 
1 -15.85000000000000142 1060.00000000000000000 0.00000000000023537 0.00000000000000000 -0.00000000000000022 1.00000000000000000 1.00000000000000000 0.00000000000000000 0.00000000000000000 -0.00000000000000000 1.00000000000000000 0.00000000000000022 
1 15.85000000000000142 1060.00000000000000000 -0.29999999999976462 1.00000000000000000 0.00000000000000000 0.00000000000000000 0.00000000000000000 -1.00000000000000000 -0.00000000000000022 0.00000000000000000 0.00000000000000022 -1.00000000000000000 
1 15.85000000000000142 1060.00000000000000000 -0.29999999999976451 -1.00000000000000000 0.00000000000000000 -0.00000000000000000 0.00000000000000000 1.00000000000000000 0.00000000000000022 0.00000000000000000 0.00000000000000022 -1.00000000000000000 
2 15.85000000000000142 -1060.00000000000000000 -0.40000000000023528 -0.00000000000000000 1.00000000000000000 0.00000000000000022 0.00000000000000000 -0.00000000000000022 1.00000000000000000 1.00000000000000000 0.00000000000000000 0.00000000000000000 0.40000000000000002
9 0 0 0 0 7 1 8 2 2 2 16.24999999999998934 0.00000000000000000 -0.39999999999999980  15.94999999999999218 0.00000000000000000 -0.39999999999999958  
16.25000000000012790 -0.00000000000000002 -0.31024020989743611  15.95000000000013429 -0.00000000000000000 -0.37756005247436109  
16.22650044537907377 -0.00000000000000004 -0.22048085400661732  15.94412511134457944 -0.00000000000000001 -0.35512021350165007  
16.17950508888122840 -0.00000000000000006 -0.13810122367082051  15.93237627222053732 -0.00000000000000001 -0.33452530591770963  
16.11189877632893541 -0.00000000000000007 -0.07049491111911677  15.91547469408207505 -0.00000000000000002 -0.31762372777977621  
16.02951914599347560 -0.00000000000000008 -0.02349955462065629  15.89487978649845346 -0.00000000000000002 -0.30587488865516499  
15.93975979010254918 -0.00000000000000009 0.00000000000000032  15.87243994752561882 -0.00000000000000002 -0.29999999999999954  
15.84999999999999964 -0.00000000000000009 0.00000000000000014  15.85000000000000320 -0.00000000000000002 -0.29999999999999982  

4.71238898038468967 8
6.28318530717958623 8

0.00000000000000000 2
1.00000000000000000 2

9 0 0 0 0 7 1 8 2 2 2 15.84999999999999964 1060.00000000000000000 0.00000000000023548  15.84999999999999964 1060.00000000000000000 -0.29999999999976457  
15.93975979010262556 1060.00000000000318323 0.00000000000023497  15.87243994752569343 1060.00000000000318323 -0.29999999999976545  
16.02951914599307059 1059.99999999998567546 -0.02349955462041772  15.89487978649808042 1059.99999999998567546 -0.30587488865492363  
16.11189877632977385 1060.00000000002637535 -0.07049491111888775  15.91547469408280335 1060.00000000002637535 -0.31762372777955317  
16.17950508888027628 1059.99999999997453415 -0.13810122367057742  15.93237627221971131 1059.99999999997453415 -0.33452530591746060  
16.22650044537971326 1060.00000000001477929 -0.22048085400638737  15.94412511134513721 1060.00000000001477929 -0.35512021350142359  
16.24999999999989342 1059.99999999999567990 -0.31024020989719836  15.94999999999991935 1059.99999999999567990 -0.37756005247412222  
16.24999999999999645 1060.00000000000000000 -0.39999999999976454  15.94999999999999929 1060.00000000000000000 -0.39999999999976460  

0.00000000000000000 8
1.57079632679489656 8

0.00000000000000000 2
1.00000000000000000 2

1 15.94999999999999929 1060.00000000000000000 -9.99999999999976552 0.00000000000000000 0.00000000000000022 -1.00000000000000000 0.00000000000000000 -1.00000000000000000 -0.00000000000000022 -1.00000000000000000 0.00000000000000000 -0.00000000000000000 
1 15.94999999999999929 1060.00000000000000000 -0.39999999999976454 1.00000000000000000 0.00000000000000000 0.00000000000000000 0.00000000000000000 0.00000000000000022 -1.00000000000000000 -0.00000000000000000 1.00000000000000000 0.00000000000000022 
2 -15.85000000000000142 1060.00000000000000000 -0.39999999999976321 0.00000000000000000 1.00000000000000000 0.00000000000000022 0.00000000000000022 -0.00000000000000022 1.00000000000000000 1.00000000000000000 0.00000000000000000 -0.00000000000000022 0.40000000000000002
1 -15.85000000000000142 1060.00000000000000000 -0.29999999999976318 1.00000000000000000 -0.00000000000000000 0.00000000000000000 0.00000000000000000 -1.00000000000000000 -0.00000000000000022 0.00000000000000000 0.00000000000000022 -1.00000000000000000 
1 -15.85000000000000142 1060.00000000000000000 -0.29999999999976462 -1.00000000000000000 0.00000000000000000 -0.00000000000000000 0.00000000000000000 1.00000000000000000 0.00000000000000022 0.00000000000000000 0.00000000000000022 -1.00000000000000000 
1 -16.25000000000000000 0.00000000000000000 0.00000000000000000 0.00000000000000000 -0.00000000000000022 1.00000000000000000 1.00000000000000000 0.00000000000000000 0.00000000000000000 -0.00000000000000000 1.00000000000000000 0.00000000000000022 
1 -16.25000000000000000 0.00000000000000000 -0.29999999999999999 0.00000000000000000 -1.00000000000000000 0.00000000000000000 -1.00000000000000000 0.00000000000000000 0.00000000000000000 -0.00000000000000000 -0.00000000000000000 -1.00000000000000000 
1 -16.25000000000000000 1060.00000000000000000 -0.29999999999976462 -0.00000000000000000 1.00000000000000000 0.00000000000000000 1.00000000000000000 0.00000000000000000 0.00000000000000000 0.00000000000000000 0.00000000000000000 -1.00000000000000000 
2 15.85000000000000142 1060.00000000000000000 -0.39999999999976454 -0.00000000000000000 1.00000000000000000 0.00000000000000022 0.00000000000000000 -0.00000000000000022 1.00000000000000000 1.00000000000000000 0.00000000000000000 0.00000000000000000 0.10000000000000003
1 -16.25000000000000000 1060.00000000000000000 -9.99999999999976552 -1.00000000000000000 -0.00000000000000000 0.00000000000000000 0.00000000000000000 -0.00000000000000022 1.00000000000000000 0.00000000000000000 1.00000000000000000 0.00000000000000022 
1 -15.94999999999999929 1060.00000000000000000 -0.39999999999976410 -0.00000000000000296 -0.00000000000000022 1.00000000000000000 0.00000000000000000 -1.00000000000000000 -0.00000000000000022 1.00000000000000000 -0.00000000000000000 0.00000000000000296 
1 -15.95000000000000107 1060.00000000000000000 -0.39999999999976321 0.00000000000000592 0.00000000000000022 -1.00000000000000000 0.00000000000000000 1.00000000000000000 0.00000000000000022 1.00000000000000000 -0.00000000000000000 0.00000000000000592 
2 -15.85000000000000142 -1060.00000000000000000 -0.40000000000023550 0.00000000000000000 1.00000000000000000 0.00000000000000022 -1.00000000000000000 0.00000000000000000 0.00000000000000000 0.00000000000000000 -0.00000000000000022 1.00000000000000000 0.40000000000000002
9 0 0 0 0 7 1 8 2 2 2 -15.84999999999999964 -0.00000000000000370 0.00000000000000144  -15.84999999999999964 -0.00000000000000002 -0.29999999999999849  
-15.93975979010262556 -0.00000000000000370 0.00000000000000104  -15.87243994752569343 -0.00000000000000002 -0.29999999999999871  
-16.02951914599307059 -0.00000000000000369 -0.02349955462065193  -15.89487978649808042 -0.00000000000000002 -0.30587488865516060  
-16.11189877632977385 -0.00000000000000368 -0.07049491111912132  -15.91547469408280335 -0.00000000000000002 -0.31762372777978182  
-16.17950508888027628 -0.00000000000000367 -0.13810122367081190  -15.93237627221971131 -0.00000000000000001 -0.33452530591769974  
-16.22650044537971326 -0.00000000000000365 -0.22048085400662071  -15.94412511134513721 -0.00000000000000001 -0.35512021350165485  
-16.24999999999989342 -0.00000000000000363 -0.31024020989743262  -15.94999999999991935 -0.00000000000000000 -0.37756005247435714  
-16.24999999999999645 -0.00000000000000361 -0.39999999999999847  -15.94999999999999929 -0.00000000000000000 -0.39999999999999847  

0.00000000000000000 8
1.57079632679489656 8

0.00000000000000000 2
1.00000000000000000 2

9 0 0 0 0 7 1 8 2 2 2 -16.24999999999998934 1059.99999999999909051 -0.39999999999976299  -15.94999999999999218 1059.99999999999909051 -0.39999999999976293  
-16.25000000000012790 1060.00000000001227818 -0.31024020989720003  -15.95000000000014317 1060.00000000001227818 -0.37756005247412427  
-16.22650044537907377 1059.99999999996930455 -0.22048085400637768  -15.94412511134451904 1059.99999999996930455 -0.35512021350141387  
-16.17950508888122840 1060.00000000004479261 -0.13810122367058861  -15.93237627222066699 1060.00000000004479261 -0.33452530591747243  
-16.11189877632893541 1059.99999999996111910 -0.07049491111887531  -15.91547469408192583 1059.99999999996111910 -0.31762372777953990  
-16.02951914599347560 1060.00000000002250999 -0.02349955462042219  -15.89487978649854050 1060.00000000002250999 -0.30587488865492796  
-15.93975979010254918 1059.99999999999272404 0.00000000000023776  -15.87243994752559395 1059.99999999999272404 -0.29999999999976329  
-15.84999999999999964 1060.00000000000000000 0.00000000000023681  -15.85000000000000320 1060.00000000000000000 -0.29999999999976323  

4.71238898038468967 8
6.28318530717958623 8

0.00000000000000000 2
1.00000000000000000 2

1 -15.85000000000000142 1060.00000000000000000 -0.29999999999976462 0.00000000000000000 -0.00000000000000022 1.00000000000000000 1.00000000000000000 0.00000000000000000 0.00000000000000000 -0.00000000000000000 1.00000000000000000 0.00000000000000022 
1 -16.25000000000000000 0.00000000000000222 -10.00000000000000000 -1.00000000000000000 -0.00000000000000000 0.00000000000000000 0.00000000000000000 -0.00000000000000022 1.00000000000000000 0.00000000000000000 1.00000000000000000 0.00000000000000022 
1 -15.94999999999999929 0.00000000000000000 -10.00000000000000000 -0.00000000000000740 -1.00000000000000000 -0.00000000000000022 0.00000000000000000 0.00000000000000022 -1.00000000000000000 1.00000000000000000 -0.00000000000000740 -0.00000000000000000 
1 -15.94999999999999929 1060.00000000000000000 -9.99999999999976552 -0.00000000000000000 1.00000000000000000 0.00000000000000022 0.00000000000000000 -0.00000000000000022 1.00000000000000000 1.00000000000000000 0.00000000000000000 0.00000000000000000 
2 -15.85000000000000142 1060.00000000000000000 -0.39999999999976321 0.00000000000000000 1.00000000000000000 0.00000000000000022 0.00000000000000022 -0.00000000000000022 1.00000000000000000 1.00000000000000000 0.00000000000000000 -0.00000000000000022 0.10000000000000003
1 -15.94999999999999929 1060.00000000000000000 -9.99999999999976552 0.00000000000000000 0.00000000000000022 -1.00000000000000000 0.00000000000000000 1.00000000000000000 0.00000000000000022 1.00000000000000000 -0.00000000000000000 0.00000000000000000 
1 -15.94999999999999929 1060.00000000000000000 -9.99999999999976552 -1.00000000000000000 -0.00000000000000000 0.00000000000000000 0.00000000000000000 -0.00000000000000022 1.00000000000000000 0.00000000000000000 1.00000000000000000 0.00000000000000022 
Triangulations 0

TShapes 104
Ve
0.001000000000000
16.250000000000000 0.000000000000000 -0.400000000000000
0 0

0101101
*
Ed
 0.001000000000000 1 1 0
1  1 0 0.000000000000000 1060.000000000000000
2  1 2 0 0.000000000000000 1060.000000000000000
4 G1 1 0 2 0
2  2 3 0 0.000000000000000 1060.000000000000000
2  3 4 0 0.000000000000000 1060.000000000000000
2  4 1 0 0.000000000000000 1060.000000000000000
0

0101000
+104 2 -104 4 *
Ve
0.001000000000000
16.250000000000000 0.000000000000002 -10.000000000000000
0 0

0101101
*
Ed
 0.001000000000000 1 1 0
1  2 0 0.000000000000000 1060.000000000000000
2  5 1 0 0.000000000000000 1060.000000000000000
0

0101000
+102 2 -102 4 *
Ed
 0.001000000000000 1 1 0
2  6 5 0 0.400000000000000 10.000000000000000
1  3 0 0.400000000000000 10.000000000000000
2  7 6 5 0.400000000000000 10.000000000000000
2  8 7 6 0.400000000000000 10.000000000000000
2  9 1 6 0.400000000000000 10.000000000000000
2  10 1 5 0.400000000000000 10.000000000000000
0

0101000
+104 0 -102 0 *
Wi

0101100
+103 0 -101 0 -100 2 +100 4 *
Fa
0  0.001000000000000 1 0

0101000
+99 0 *
Ve
0.001000000000000
15.850000000000001 0.000000000000000 0.000000000000000
0 0

0101101
*
Ed
 0.001000000000000 1 1 0
1  4 0 0.000000000000000 1060.000000000000000
2  11 2 0 0.000000000000000 1060.000000000000000
4 G1 2 0 8 0
2  12 9 0 0.000000000000000 1060.000000000000000
2  13 10 0 0.000000000000000 1060.000000000000000
2  14 8 0 0.000000000000000 1060.000000000000000
0

0101000
+97 2 -97 4 *
Ed
 0.000000100000000 1 1 0
2  15 11 0 0.000000000000000 1.570796326794897
1  5 0 0.000000000000000 1.570796326794897
2  16 2 6 0.000000000000000 1.570796326794897
2  17 2 5 0.000000000000000 1.570796326794897
2  18 12 5 0.000000000000000 1.570796326794897
2  19 13 6 0.000000000000000 1.570796326794897
0

0101000
+97 0 -104 0 *
Wi

0101100
+96 0 -103 0 -95 2 +95 4 *
Fa
0  0.000000100000000 2 0

0101000
+94 0 *
Ve
0.001000000000000
15.949999999999999 0.000000000000000 -10.000000000000000
0 0

0101101
*
Ed
 0.000000100000000 1 1 0
1  6 0 0.000000000000000 1.000000000000000
4 C0 14 0 6 0
2  20 6 0 0.000000000000000 1.000000000000000
0

0101000
+102 4 -92 0 *
Ve
0.001000000000000
15.949999999999999 1060.000000000000000 -9.999999999999766
0 0

0101101
*
Ed
 0.001000000000000 1 1 0
2  21 15 0 0.000000000000000 1060.000000000000000
1  7 0 0.000000000000000 1060.000000000000000
0

0101000
+90 0 -92 0 *
Ed
 0.000000100000000 1 1 0
1  8 0 0.000000000000000 1.000000000000000
4 C0 14 0 7 0
2  22 7 0 0.000000000000000 1.000000000000000
0

0101000
+102 2 -90 0 *
Wi

0101000
+101 0 +91 0 -89 0 -88 0 *
Fa
0  0.000000100000000 14 0

0101000
+87 0 *
Ve
0.001000000000000
15.949999999999999 1060.000000000000000 -0.399999999999765
0 0

0101101
*
Ed
 0.001000000000000 1 1 0
2  23 15 0 0.400000000000000 10.000000000000000
1  9 0 0.400000000000000 10.000000000000000
2  24 7 0 0.400000000000000 10.000000000000000
0

0101000
+85 0 -90 0 *
Ed
 0.000000100000000 1 1 0
1  10 0 0.000000000000000 1.000000000000000
4 C0 4 0 7 0
2  25 4 0 0.000000000000000 1.000000000000000
2  26 7 0 0.000000000000000 1.000000000000000
2  27 13 0 0.000000000000000 1.000000000000000
0

0101000
+104 2 -85 0 *
Wi

0101100
+100 2 +88 0 -84 0 -83 0 *
Fa
0  0.000000100000000 7 0

0101000
+82 0 *
Ve
0.001000000000000
15.949999999999999 0.000000000000000 -0.400000000000000
0 0

0101101
*
Ed
 0.000000100000000 1 1 0
1  11 0 0.000000000000000 1.000000000000000
4 C0 6 0 4 0
2  28 6 0 0.000000000000000 1.000000000000000
2  29 4 0 0.000000000000000 1.000000000000000
2  30 12 0 0.000000000000000 1.000000000000000
0

0101000
+104 4 -80 0 *
Ed
 0.001000000000000 1 1 0
2  31 15 0 0.400000000000000 10.000000000000000
1  12 0 0.400000000000000 10.000000000000000
2  32 6 0 0.400000000000000 10.000000000000000
0

0101000
+80 0 -92 0 *
Wi

0101100
-100 4 +79 0 +78 0 -91 0 *
Fa
0  0.000000100000000 6 0

0101000
+77 0 *
Ve
0.001000000000000
-15.850000000000001 0.000000000000000 0.000000000000000
0 0

0101101
*
Ed
 0.001000000000000 1 1 0
1  13 0 0.000000000000000 1060.000000000000000
2  33 16 0 0.000000000000000 1060.000000000000000
4 G1 8 0 16 0
2  34 17 0 0.000000000000000 1060.000000000000000
2  35 18 0 0.000000000000000 1060.000000000000000
2  36 8 0 0.000000000000000 1060.000000000000000
0

0101000
+75 2 -75 4 *
Ed
 0.001000000000000 1 1 0
2  37 19 0 0.399999999999999 32.100000000000001
1  14 0 0.399999999999999 32.100000000000001
2  38 20 5 0.399999999999999 32.100000000000001
2  39 21 6 0.399999999999999 32.100000000000001
2  40 8 6 0.399999999999999 32.100000000000001
2  41 8 5 0.399999999999999 32.100000000000001
0

0101000
+75 0 -97 0 *
Wi

0101100
+74 0 -96 0 -73 2 +73 4 *
Fa
0  0.001000000000000 8 0

0101000
+72 0 *
Ve
0.001000000000000
15.850000000000001 1060.000000000000000 -0.299999999999765
0 0

0101101
*
Ed
 0.000000100000000 1 1 0
2  16 22 0 0.000000000000000 1.570796326794897
1  15 0 0.000000000000000 1.570796326794897
2  42 13 0 0.000000000000000 1.570796326794897
0

0101000
+70 0 -85 0 *
Ed
 0.000000100000000 1 1 0
1  16 0 0.000000000000000 1.000000000000000
2  43 13 0 0.000000000000000 1.000000000000000
4 C0 10 0 13 0
2  44 10 0 0.000000000000000 1.000000000000000
0

0101000
+97 2 -70 0 *
Wi

0101100
+95 2 +83 0 -69 0 -68 0 *
Fa
0  0.000000100000000 13 0

0101000
+67 0 *
Ve
0.001000000000000
15.850000000000001 0.000000000000000 -0.300000000000000
0 0

0101101
*
Ed
 0.000000100000002 1 1 0
1  17 0 0.000000000000000 1.000000000000000
2  45 12 0 0.000000000000000 1.000000000000000
4 C0 12 0 10 0
2  46 10 0 0.000000000000000 1.000000000000000
0

0101000
+97 4 -65 0 *
Ed
 0.000000100000000 1 1 0
2  17 22 0 0.000000000000000 1.570796326794897
1  18 0 0.000000000000000 1.570796326794897
2  47 12 0 0.000000000000000 1.570796326794897
0

0101000
+65 0 -80 0 *
Wi

0101100
-95 4 +64 0 +63 0 -79 0 *
Fa
0  0.000000100000000 12 0

0101000
+62 0 *
Ed
 0.001000000000000 1 1 0
2  48 15 0 0.000000000000000 1060.000000000000000
1  19 0 0.000000000000000 1060.000000000000000
2  49 4 0 0.000000000000000 1060.000000000000000
2  50 22 0 0.000000000000000 1060.000000000000000
0

0101000
+85 0 -80 0 *
Wi

0101100
+60 0 -89 0 -84 0 +78 0 *
Fa
0  0.001000000000000 15 0

0101000
+59 0 *
Ve
0.001000000000000
-16.250000000000000 0.000000000000000 -0.400000000000000
0 0

0101101
*
Ed
 0.001000000000000 1 1 0
1  20 0 0.000000000000000 1060.000000000000000
2  51 16 0 0.000000000000000 1060.000000000000000
4 G1 16 0 23 0
2  52 24 0 0.000000000000000 1060.000000000000000
2  53 25 0 0.000000000000000 1060.000000000000000
2  54 23 0 0.000000000000000 1060.000000000000000
0

0101000
+57 2 -57 4 *
Ed
 0.000000100000004 1 1 0
2  55 26 0 4.712388980384690 6.283185307179586
1  21 0 4.712388980384690 6.283185307179586
2  56 16 6 4.712388980384690 6.283185307179586
2  57 16 5 4.712388980384690 6.283185307179586
2  58 27 5 4.712388980384690 6.283185307179586
2  59 28 6 4.712388980384690 6.283185307179586
0

0101000
+57 0 -75 0 *
Wi

0101100
+56 0 -74 0 -55 2 +55 4 *
Fa
0  0.000000100000004 16 0

0101000
+54 0 *
Ve
0.001000000000000
-15.850000000000001 1060.000000000000000 -0.299999999999765
0 0

0101101
*
Ed
 0.001000000000000 1 1 0
2  60 29 0 0.399999999999999 32.100000000000001
1  22 0 0.399999999999999 32.100000000000001
2  61 21 0 0.399999999999999 32.100000000000001
0

0101000
+52 0 -70 0 *
Ed
 0.000000100000000 1 1 0
1  23 0 0.000000000000000 1.000000000000000
4 C0 18 0 21 0
2  62 21 0 0.000000000000000 1.000000000000000
2  63 18 0 0.000000000000000 1.000000000000000
2  64 28 0 0.000000000000000 1.000000000000000
0

0101000
+75 2 -52 0 *
Wi

0101100
+73 2 +68 0 -51 0 -50 0 *
Fa
0  0.000000100000000 21 0

0101000
+49 0 *
Ve
0.001000000000000
-15.850000000000001 0.000000000000000 -0.300000000000000
0 0

0101101
*
Ed
 0.000000100000000 1 1 0
1  24 0 0.000000000000000 1.000000000000000
4 C0 20 0 18 0
2  65 20 0 0.000000000000000 1.000000000000000
2  66 18 0 0.000000000000000 1.000000000000000
2  67 27 0 0.000000000000000 1.000000000000000
0

0101000
+75 4 -47 0 *
Ed
 0.001000000000000 1 1 0
2  68 29 0 0.399999999999999 32.100000000000001
1  25 0 0.399999999999999 32.100000000000001
2  69 20 0 0.399999999999999 32.100000000000001
0

0101000
+47 0 -65 0 *
Wi

0101100
-73 4 +46 0 +45 0 -64 0 *
Fa
0  0.000000100000000 20 0

0101000
+44 0 *
Ed
 0.001000000000000 1 1 0
2  11 22 0 0.000000000000000 1060.000000000000000
1  26 0 0.000000000000000 1060.000000000000000
2  70 10 0 0.000000000000000 1060.000000000000000
2  71 29 0 0.000000000000000 1060.000000000000000
0

0101000
+70 0 -65 0 *
Wi

0101100
+42 0 -60 0 -69 0 +63 0 *
Fa
0  0.000000100000000 22 0

0101000
+41 0 *
Ve
0.001000000000000
-16.250000000000000 0.000000000000002 -10.000000000000000
0 0

0101101
*
Ed
 0.001000000000000 1 1 0
1  27 0 0.000000000000000 1060.000000000000000
2  72 23 0 0.000000000000000 1060.000000000000000
0

0101000
+39 2 -39 4 *
Ed
 0.001000000000000 1 1 0
2  73 30 0 0.000000000000000 9.600000000000000
1  28 0 0.000000000000000 9.600000000000000
2  74 31 5 0.000000000000000 9.600000000000000
2  75 32 6 0.000000000000000 9.600000000000000
2  76 23 6 0.000000000000000 9.600000000000000
2  77 23 5 0.000000000000000 9.600000000000000
0

0101000
+39 0 -57 0 *
Wi

0101100
+38 0 -56 0 -37 2 +37 4 *
Fa
0  0.001000000000000 23 0

0101000
+36 0 *
Ve
0.001000000000001
-15.949999999999999 1060.000000000000000 -0.399999999999764
0 0

0101101
*
Ed
 0.000000100000004 1 1 0
2  56 33 0 4.712388980384690 6.283185307179586
1  29 0 4.712388980384690 6.283185307179586
2  78 28 0 4.712388980384690 6.283185307179586
0

0101000
+34 0 -52 0 *
Ed
 0.000000100000001 1 1 0
1  30 0 0.000000000000000 1.000000000000000
2  79 28 0 0.000000000000000 1.000000000000000
4 C0 25 0 28 0
2  80 25 0 0.000000000000000 1.000000000000000
0

0101000
+57 2 -34 0 *
Wi

0101100
+55 2 +50 0 -33 0 -32 0 *
Fa
0  0.000000100000000 28 0

0101000
+31 0 *
Ve
0.001000000000001
-15.949999999999999 0.000000000000000 -0.399999999999999
0 0

0101101
*
Ed
 0.000000100000004 1 1 0
1  31 0 0.000000000000000 1.000000000000000
2  81 27 0 0.000000000000000 1.000000000000000
4 C0 27 0 25 0
2  82 25 0 0.000000000000000 1.000000000000000
0

0101000
+57 4 -29 0 *
Ed
 0.000000100000004 1 1 0
2  57 33 0 4.712388980384690 6.283185307179586
1  32 0 4.712388980384690 6.283185307179586
2  83 27 0 4.712388980384690 6.283185307179586
0

0101000
+29 0 -47 0 *
Wi

0101100
-55 4 +28 0 +27 0 -46 0 *
Fa
0  0.000000100000000 27 0

0101000
+26 0 *
Ed
 0.001000000000000 1 1 0
2  84 29 0 0.000000000000000 1060.000000000000000
1  33 0 0.000000000000000 1060.000000000000000
2  85 18 0 0.000000000000000 1060.000000000000000
2  86 33 0 0.000000000000000 1060.000000000000000
0

0101000
+52 0 -47 0 *
Wi

0101100
+24 0 -42 0 -51 0 +45 0 *
Fa
0  0.001000000000000 29 0

0101000
+23 0 *
Ve
0.001000000000000
-15.949999999999999 1060.000000000000000 -9.999999999999766
0 0

0101101
*
Ed
 0.000000100000000 1 1 0
1  34 0 0.000000000000000 1.000000000000000
4 C0 34 0 32 0
2  87 32 0 0.000000000000000 1.000000000000000
0

0101000
+39 2 -21 0 *
Ve
0.001000000000000
-15.949999999999999 0.000000000000000 -10.000000000000000
0 0

0101101
*
Ed
 0.001000000000000 1 1 0
2  88 35 0 0.000000000000000 1060.000000000000000
1  35 0 0.000000000000000 1060.000000000000000
0

0101000
+21 0 -19 0 *
Ed
 0.000000100000000 1 1 0
1  36 0 0.000000000000000 1.000000000000000
4 C0 31 0 34 0
2  89 31 0 0.000000000000000 1.000000000000000
0

0101000
+39 4 -19 0 *
Wi

0101000
-38 0 +20 0 +18 0 -17 0 *
Fa
0  0.000000100000000 34 0

0101000
+16 0 *
Ed
 0.001000000000000 1 1 0
2  90 35 0 0.000000000000000 9.600000000000000
1  37 0 0.000000000000000 9.600000000000000
2  91 32 0 0.000000000000000 9.600000000000000
0

0101000
+21 0 -34 0 *
Wi

0101100
+37 2 +32 0 -14 0 -20 0 *
Fa
0  0.000000100000000 32 0

0101000
+13 0 *
Ed
 0.001000000000000 1 1 0
2  92 35 0 0.000000000000000 9.600000000000000
1  38 0 0.000000000000000 9.600000000000000
2  93 31 0 0.000000000000000 9.600000000000000
0

0101000
+19 0 -29 0 *
Wi

0101100
-37 4 +17 0 +11 0 -28 0 *
Fa
0  0.000000100000000 31 0

0101000
+10 0 *
Ed
 0.001000000000000 1 1 0
2  51 33 0 0.000000000000000 1060.000000000000000
1  39 0 0.000000000000000 1060.000000000000000
2  94 25 0 0.000000000000000 1060.000000000000000
2  95 35 0 0.000000000000000 1060.000000000000000
0

0101000
+34 0 -29 0 *
Wi

0101100
+8 0 -24 0 -33 0 +27 0 *
Fa
0  0.000000100000004 33 0

0101000
+7 0 *
Wi

0101100
+18 0 -8 0 -14 0 +11 0 *
Fa
0  0.001000000000000 35 0

0101000
+5 0 *
Sh

0101100
+98 0 +93 0 +86 0 +81 0 +76 0 +71 0 +66 0 +61 0 -58 0 +53 0 
+48 0 +43 0 -40 0 +35 0 +30 0 +25 0 -22 0 +15 0 +12 0 +9 0 
-6 0 -4 0 *
So

0100000
+3 0 *
Co

1100000
+2 0 *

+1 1 