
CASCADE Topology V1, (c) Matra-Datavision
Locations 56
1
1.000000000000000 0.000000000000000 0.000000000000000 0.000000000000000 
0.000000000000000 1.000000000000000 0.000000000000000 0.000000000000000 
0.000000000000000 0.000000000000000 1.000000000000000 0.000000000000000 
1
1.000000000000000 0.000000000000000 0.000000000000000 0.000000000000000 
0.000000000000000 1.000000000000000 0.000000000000000 0.000000000000000 
0.000000000000000 0.000000000000000 1.000000000000000 0.000000000000000 
1
1.000000000000000 0.000000000000000 0.000000000000000 0.000000000000000 
0.000000000000000 1.000000000000000 0.000000000000000 0.000000000000000 
0.000000000000000 0.000000000000000 1.000000000000000 0.000000000000000 
2  2 1 3 -1 0
1
0.000000000000000 0.000000000000000 -1.000000000000000 -41.299999999999415 
0.000000000000000 1.000000000000000 0.000000000000000 0.000000000000000 
1.000000000000000 0.000000000000000 0.000000000000000 41.099999999999419 
1
0.000000000000000 0.000000000000000 -1.000000000000000 -41.299999999999415 
0.000000000000000 1.000000000000000 0.000000000000000 0.000000000000000 
1.000000000000000 0.000000000000000 0.000000000000000 41.099999999999419 
2  6 -1 0
2  5 1 6 -1 0
1
1.000000000000000 0.000000000000000 0.000000000000000 0.000000000000000 
0.000000000000000 1.000000000000000 0.000000000000000 0.000000000000000 
0.000000000000000 0.000000000000000 1.000000000000000 -0.300000000000000 
2  9 -1 0
2  5 -1 0
2  9 1 5 1 0
2  5 -1 9 -1 0
1
1.000000000000000 0.000000000000000 0.000000000000000 0.000000000000000 
0.000000000000000 1.000000000000000 0.000000000000000 0.000000000000000 
0.000000000000000 0.000000000000000 1.000000000000000 0.000000000000000 
2  14 -1 0
2  5 1 2 1 3 -1 0
2  9 1 5 1 6 -1 0
1
1.000000000000000 0.000000000000000 0.000000000000000 0.000000000000000 
0.000000000000000 1.000000000000000 0.000000000000000 0.000000000000000 
0.000000000000000 0.000000000000000 1.000000000000000 0.000000000000000 
1
1.000000000000000 0.000000000000000 0.000000000000000 0.000000000000000 
0.000000000000000 1.000000000000000 0.000000000000000 0.000000000000000 
0.000000000000000 0.000000000000000 1.000000000000000 0.000000000000000 
1
1.000000000000000 0.000000000000000 0.000000000000000 0.000000000000000 
0.000000000000000 1.000000000000000 0.000000000000000 0.000000000000000 
0.000000000000000 0.000000000000000 1.000000000000000 0.000000000000000 
1
1.000000000000000 0.000000000000000 0.000000000000000 0.000000000000000 
0.000000000000000 1.000000000000000 0.000000000000000 0.000000000000000 
0.000000000000000 0.000000000000000 1.000000000000000 0.300000000000000 
2  18 1 19 1 20 -1 21 1 14 1 0
2  21 -1 20 1 19 -1 18 -1 0
2  19 -1 18 -1 0
2  14 -1 21 -1 20 1 19 -1 18 -1 0
2  18 1 19 1 20 -1 14 1 0
2  20 1 19 -1 18 -1 0
2  14 -1 20 1 19 -1 18 -1 0
2  20 -1 21 1 14 1 2 1 3 -1 0
2  18 1 19 1 20 -1 21 1 14 1 2 1 3 -1 0
1
1.000000000000000 0.000000000000000 0.000000000000000 -22.299999999999713 
0.000000000000000 1.000000000000000 0.000000000000000 125.580297890654023 
0.000000000000000 0.000000000000000 1.000000000000000 -37.100000000000001 
1
1.000000000000000 0.000000000000000 0.000000000000000 0.000000000000066 
0.000000000000000 1.000000000000000 0.000000000000000 129.871934891629593 
0.000000000000000 0.000000000000000 1.000000000000000 -37.100000000000001 
1
1.000000000000000 0.000000000000000 0.000000000000000 22.299999999999713 
0.000000000000000 1.000000000000000 0.000000000000000 125.580297890652631 
0.000000000000000 0.000000000000000 1.000000000000000 -37.100000000000001 
1
1.000000000000000 0.000000000000000 0.000000000000000 -14.866666666660789 
0.000000000000000 1.000000000000000 0.000000000000000 155.621756897464962 
0.000000000000000 0.000000000000000 1.000000000000000 -37.100000000000001 
1
1.000000000000000 0.000000000000000 0.000000000000000 14.866666666660791 
0.000000000000000 1.000000000000000 0.000000000000000 155.621756897465701 
0.000000000000000 0.000000000000000 1.000000000000000 -37.100000000000001 
2  20 -1 14 1 2 1 3 -1 0
2  18 1 19 1 20 -1 14 1 2 1 3 -1 0
2  14 1 2 1 3 -1 0
2  18 1 19 1 20 -1 0
2  18 1 19 1 20 -1 21 1 0
1
0.000000000000000 0.000000000000000 1.000000000000000 41.299999999999415 
0.000000000000000 1.000000000000000 0.000000000000000 0.000000000000000 
-1.000000000000000 0.000000000000000 0.000000000000000 41.099999999999419 
2  41 -1 0
1
0.000000000000000 0.000000000000000 1.000000000000000 41.299999999999415 
0.000000000000000 1.000000000000000 0.000000000000000 0.000000000000000 
-1.000000000000000 0.000000000000000 0.000000000000000 41.099999999999419 
2  43 1 41 -1 0
2  31 -1 0
2  32 -1 0
2  33 -1 0
2  34 -1 0
2  35 -1 0
1
1.000000000000000 0.000000000000000 0.000000000000000 0.000000000000000 
0.000000000000000 1.000000000000000 0.000000000000000 0.000000000000000 
0.000000000000000 0.000000000000000 1.000000000000000 -0.300000000000000 
2  50 1 43 1 41 -1 0
2  50 -1 0
2  43 -1 0
2  50 1 43 1 0
2  43 -1 50 -1 0
2  43 1 2 1 3 -1 0
Curve2ds 152
1 0.40000000000000002 0.00000000000000000 -1.00000000000000000 0.00000000000000000 
1 -0.00000000000000139 0.39999999999999858 -0.00000000000000011 -1.00000000000000000 
1 -0.15000000000000002 -16.02072950340601665 1.00000000000000000 -0.00000000000000000 
1 0.00000000000000000 0.00000000000000000 0.00000000000000000 -1.00000000000000000 
1 31.00000000000000000 0.00000000000000000 0.00000000000000000 -1.00000000000000000 
1 0.00000000000000000 0.00000000000000000 0.00000000000000000 -1.00000000000000000 
1 0.00000000000000000 0.00000000000000000 1.00000000000000000 0.00000000000000000 
1 0.00000000000000000 -0.29999999999999999 1.00000000000000000 0.00000000000000000 
1 15.50000000000000711 16.02072950340598823 -1.00000000000000000 0.00000000000000000 
1 0.00000000000000000 32.04145900681201908 1.00000000000000000 0.00000000000000000 
2 0.00000000000000000 0.00000000000000000 1.00000000000000000 0.00000000000000000 -0.00000000000000000 1.00000000000000000 0.40000000000000002
2 0.00000000000000000 0.00000000000000000 1.00000000000000000 0.00000000000000000 -0.00000000000000000 1.00000000000000000 0.10000000000000003
1 0.00000000000000000 0.00000000000000000 1.00000000000000000 0.00000000000000000 
1 26.02776295505891113 0.00000000000000000 0.00000000000000000 -1.00000000000000000 
1 0.00000000000000000 0.00000000000000000 0.00000000000000000 -1.00000000000000000 
1 0.10000000000000003 0.00000000000000000 1.00000000000000000 0.00000000000000000 
1 0.00000000000000000 0.00000000000000000 0.00000000000000000 -1.00000000000000000 
1 32.04145900681201908 0.00000000000000000 0.00000000000000000 -1.00000000000000000 
1 -15.49999999999999289 16.02072950340598823 0.00000000000000000 -1.00000000000000000 
1 0.00000000000000000 0.00000000000000000 1.00000000000000000 0.00000000000000000 
1 0.00000000000000000 -0.29999999999999999 1.00000000000000000 0.00000000000000000 
1 0.00000000000000000 0.00000000000000000 0.00000000000000000 1.00000000000000000 
1 1.57079632679489656 0.00000000000000000 0.00000000000000000 1.00000000000000000 
1 -0.15000000000000002 16.02072950340600244 0.00000000000000000 -1.00000000000000000 
1 15.50000000000000711 -16.02072950340603086 0.00000000000000000 1.00000000000000000 
1 0.00000000000000000 0.00000000000000000 1.00000000000000000 0.00000000000000000 
1 0.00000000000000000 -0.29999999999999999 1.00000000000000000 0.00000000000000000 
1 -15.49999999999999289 -16.02072950340603086 1.00000000000000000 0.00000000000000000 
1 0.00000000000000000 0.00000000000000000 0.00000000000000000 1.00000000000000000 
1 1.57079632679489656 0.00000000000000000 0.00000000000000000 1.00000000000000000 
1 0.14999999999999997 -16.02072950340601665 0.00000000000000000 1.00000000000000000 
1 15.50000000000000711 16.02072950340598823 0.00000000000000000 -1.00000000000000000 
1 0.00000000000000000 0.00000000000000000 1.00000000000000000 0.00000000000000000 
2 0.00000000000000000 0.00000000000000000 -1.00000000000000000 0.00000000000000000 0.00000000000000000 1.00000000000000000 0.40000000000000002
1 0.00000000000000000 -0.29999999999999999 1.00000000000000000 0.00000000000000000 
1 -41.19999999999941309 13.84642415414526795 0.00000000000000000 -1.00000000000000000 
8 0.00000000000000000 32.04145900681201908
1 0.00000000000000000 32.04145900681201908 -0.00000000000000000 -1.00000000000000000 
1 0.00000000000000000 32.04145900681201908 1.00000000000000000 0.00000000000000000 
2 0.00000000000000000 0.00000000000000000 -1.00000000000000000 0.00000000000000000 0.00000000000000000 1.00000000000000000 0.10000000000000003
1 0.00000000000000000 0.00000000000000000 1.00000000000000000 0.00000000000000000 
1 -41.19999999999941309 13.84642415414526795 0.00000000000000000 -1.00000000000000000 
8 0.00000000000000000 32.04145900681201908
1 0.00000000000000000 0.00000000000000000 0.00000000000000000 1.00000000000000000 
1 1.87402178629321936 0.00000000000000000 0.00000000000000000 -1.00000000000000000 
1 0.00000000000000000 0.00000000000000000 0.00000000000000000 -1.00000000000000000 
1 0.00000000000000000 0.00000000000000000 1.00000000000000000 0.00000000000000000 
1 -16.35966698284722654 21.61831581845169126 -0.95437833286106821 -0.29860006323731458 
1 0.00000000000000000 -0.29999999999999999 1.00000000000000000 0.00000000000000000 
1 -16.35966698284722654 21.61831581845169126 -0.95437833286106821 -0.29860006323731458 
1 -0.10000000000000003 0.00000000000000000 -1.00000000000000000 0.00000000000000000 
1 0.00000000000000139 0.10000000000000142 -0.00000000000000011 1.00000000000000000 
1 0.14999999999999997 16.02072950340600244 -1.00000000000000000 0.00000000000000000 
1 31.00000000000000000 -0.29999999999999999 0.00000000000000000 1.00000000000000000 
1 0.00000000000000000 0.00000000000000000 0.00000000000000000 -1.00000000000000000 
1 32.04145900681201908 0.00000000000000000 0.00000000000000000 -1.00000000000000000 
1 -0.10000000000000003 0.00000000000000000 -1.00000000000000000 0.00000000000000000 
1 0.00000000000000000 -0.29999999999999999 1.00000000000000000 0.00000000000000000 
1 -41.19999999999941309 -18.19503485266675114 1.00000000000000000 0.00000000000000000 
1 0.00000000000000000 -0.29999999999999999 1.00000000000000000 0.00000000000000000 
1 41.19999999999942730 -18.19503485266675114 0.00000000000000000 1.00000000000000000 
8 0.00000000000000000 32.04145900681201908
1 0.00000000000000000 32.04145900681201908 -0.00000000000000000 -1.00000000000000000 
1 0.00000000000000000 -0.29999999999999999 1.00000000000000000 0.00000000000000000 
1 41.19999999999942730 13.84642415414526795 -0.95437833286106810 0.29860006323731497 
1 0.00000000000000000 -0.29999999999999999 1.00000000000000000 0.00000000000000000 
2 -14.86666666666071457 16.84642415414631955 1.00000000000000000 0.00000000000000000 -0.00000000000000000 1.00000000000000000 5.00000000000000000
1 0.00000000000000000 -0.29999999999999999 1.00000000000000000 0.00000000000000000 
2 14.86666666666079450 16.84642415414631955 1.00000000000000000 0.00000000000000000 -0.00000000000000000 1.00000000000000000 5.00000000000000000
1 0.00000000000000000 -0.29999999999999999 1.00000000000000000 0.00000000000000000 
1 14.86666666666079450 21.84642415414631955 -1.00000000000000000 0.00000000000000000 
2 -22.29999999999970939 -13.19503485266535847 -1.00000000000000000 0.00000000000000000 -0.00000000000000000 -1.00000000000000000 1.69999999999999996
1 6.28318530717958623 37.39999999999999858 -1.00000000000000000 0.00000000000000000 
2 0.00000000000006983 -8.90339785168978892 -1.00000000000000000 0.00000000000000000 -0.00000000000000000 -1.00000000000000000 1.69999999999999996
1 6.28318530717958623 37.39999999999999858 -1.00000000000000000 0.00000000000000000 
2 22.29999999999971649 -13.19503485266675114 -1.00000000000000000 0.00000000000000000 -0.00000000000000000 -1.00000000000000000 1.69999999999999996
1 6.28318530717958623 37.39999999999999858 -1.00000000000000000 0.00000000000000000 
2 -14.86666666666078562 16.84642415414558059 -1.00000000000000000 0.00000000000000000 -0.00000000000000000 -1.00000000000000000 1.69999999999999996
1 6.28318530717958623 37.39999999999999858 -1.00000000000000000 0.00000000000000000 
2 14.86666666666079450 16.84642415414631955 -1.00000000000000000 0.00000000000000000 -0.00000000000000000 -1.00000000000000000 1.69999999999999996
1 6.28318530717958623 37.39999999999999858 -1.00000000000000000 0.00000000000000000 
1 0.00000000000000000 0.00000000000000000 1.00000000000000000 0.00000000000000000 
1 -41.19999999999941309 -18.19503485266675114 1.00000000000000000 0.00000000000000000 
1 0.00000000000000000 0.00000000000000000 1.00000000000000000 0.00000000000000000 
1 41.19999999999942730 -18.19503485266675114 0.00000000000000000 1.00000000000000000 
8 0.00000000000000000 32.04145900681201908
1 0.00000000000000000 0.00000000000000000 0.00000000000000000 1.00000000000000000 
1 0.00000000000000000 0.00000000000000000 1.00000000000000000 0.00000000000000000 
1 41.19999999999942730 13.84642415414526795 -0.95437833286106810 0.29860006323731497 
1 0.00000000000000000 0.00000000000000000 1.00000000000000000 0.00000000000000000 
2 -14.86666666666071457 16.84642415414631955 1.00000000000000000 0.00000000000000000 -0.00000000000000000 1.00000000000000000 5.00000000000000000
1 0.00000000000000000 0.00000000000000000 1.00000000000000000 0.00000000000000000 
2 14.86666666666079450 16.84642415414631955 1.00000000000000000 0.00000000000000000 -0.00000000000000000 1.00000000000000000 5.00000000000000000
1 0.00000000000000000 -0.00000000000000000 1.00000000000000000 0.00000000000000000 
1 14.86666666666079450 21.84642415414631955 -1.00000000000000000 0.00000000000000000 
2 -22.29999999999970939 -13.19503485266535847 -1.00000000000000000 0.00000000000000000 -0.00000000000000000 -1.00000000000000000 1.69999999999999996
1 6.28318530717958623 37.10000000000000142 -1.00000000000000000 0.00000000000000000 
2 0.00000000000006983 -8.90339785168978892 -1.00000000000000000 0.00000000000000000 -0.00000000000000000 -1.00000000000000000 1.69999999999999996
1 6.28318530717958623 37.10000000000000142 -1.00000000000000000 0.00000000000000000 
2 22.29999999999971649 -13.19503485266675114 -1.00000000000000000 0.00000000000000000 -0.00000000000000000 -1.00000000000000000 1.69999999999999996
1 6.28318530717958623 37.10000000000000142 -1.00000000000000000 0.00000000000000000 
2 -14.86666666666078562 16.84642415414558059 -1.00000000000000000 0.00000000000000000 -0.00000000000000000 -1.00000000000000000 1.69999999999999996
1 6.28318530717958623 37.10000000000000142 -1.00000000000000000 0.00000000000000000 
2 14.86666666666079450 16.84642415414631955 -1.00000000000000000 0.00000000000000000 -0.00000000000000000 -1.00000000000000000 1.69999999999999996
1 6.28318530717958623 37.10000000000000142 -1.00000000000000000 0.00000000000000000 
1 29.73333333332151085 0.00000000000000000 0.00000000000000000 -1.00000000000000000 
1 1.57079632679489656 0.00000000000000000 0.00000000000000000 -1.00000000000000000 
1 82.39999999999884039 0.00000000000000000 0.00000000000000000 -1.00000000000000000 
1 0.00000000000000000 0.00000000000000000 0.00000000000000000 -1.00000000000000000 
1 0.10000000000000003 0.00000000000000000 1.00000000000000000 0.00000000000000000 
1 0.00000000000000000 0.00000000000000000 1.00000000000000000 0.00000000000000000 
2 0.00000000000000000 0.00000000000000000 -1.00000000000000000 0.00000000000000000 0.00000000000000000 1.00000000000000000 0.40000000000000002
1 0.00000000000000000 32.04145900681201908 1.00000000000000000 0.00000000000000000 
2 0.00000000000000000 0.00000000000000000 1.00000000000000000 0.00000000000000000 -0.00000000000000000 1.00000000000000000 0.40000000000000002
1 0.00000000000000000 0.00000000000000000 0.00000000000000000 1.00000000000000000 
1 1.57079632679489656 0.00000000000000000 0.00000000000000000 1.00000000000000000 
1 0.15000000000000002 -16.02072950340604507 0.00000000000000000 1.00000000000000000 
1 -15.50000000000000711 16.02072950340598823 0.00000000000000000 -1.00000000000000000 
1 32.04145900681201908 0.00000000000000000 0.00000000000000000 -1.00000000000000000 
1 0.00000000000000000 0.00000000000000000 0.00000000000000000 -1.00000000000000000 
1 -0.10000000000000003 0.00000000000000000 -1.00000000000000000 0.00000000000000000 
1 26.02776295505878323 0.00000000000000000 0.00000000000000000 -1.00000000000000000 
1 1.26757086729656221 0.00000000000000000 0.00000000000000000 -1.00000000000000000 
1 1.57079632679489656 0.00000000000000000 0.00000000000000000 -1.00000000000000000 
1 0.00000000000000000 -0.00000000000000000 0.00000000000000000 -1.00000000000000000 
1 6.28318530717958623 0.00000000000000000 0.00000000000000000 1.00000000000000000 
1 0.00000000000000000 0.00000000000000000 0.00000000000000000 1.00000000000000000 
2 0.00000000000000000 0.00000000000000000 1.00000000000000000 0.00000000000000000 -0.00000000000000000 1.00000000000000000 0.10000000000000003
1 0.00000000000000000 0.00000000000000000 1.00000000000000000 0.00000000000000000 
1 0.00000000000000000 32.04145900681201908 1.00000000000000000 0.00000000000000000 
2 0.00000000000000000 0.00000000000000000 -1.00000000000000000 0.00000000000000000 0.00000000000000000 1.00000000000000000 0.10000000000000003
1 0.00000000000000000 0.00000000000000000 0.00000000000000000 1.00000000000000000 
1 1.57079632679489656 0.00000000000000000 0.00000000000000000 1.00000000000000000 
1 -0.14999999999999997 16.02072950340597401 0.00000000000000000 -1.00000000000000000 
1 -15.50000000000000711 -16.02072950340603086 0.00000000000000000 1.00000000000000000 
1 0.40000000000000002 0.00000000000000000 -1.00000000000000000 0.00000000000000000 
1 -0.00000000000000139 0.39999999999999858 -0.00000000000000011 -1.00000000000000000 
1 0.15000000000000002 16.02072950340597401 -1.00000000000000000 -0.00000000000000000 
1 0.00000000000000000 0.00000000000000000 0.00000000000000000 -1.00000000000000000 
1 -0.10000000000000003 0.00000000000000000 -1.00000000000000000 0.00000000000000000 
1 0.00000000000000139 0.10000000000000142 -0.00000000000000011 1.00000000000000000 
1 -0.14999999999999997 -16.02072950340604507 1.00000000000000000 0.00000000000000000 
1 31.00000000000000000 -0.29999999999999999 0.00000000000000000 1.00000000000000000 
1 0.00000000000000000 0.00000000000000000 1.00000000000000000 0.00000000000000000 
1 0.00000000000000000 -0.29999999999999999 1.00000000000000000 0.00000000000000000 
1 -15.50000000000000711 -16.02072950340603086 1.00000000000000000 0.00000000000000000 
1 15.49999999999999289 -16.02072950340603086 0.00000000000000000 1.00000000000000000 
1 0.00000000000000000 0.00000000000000000 1.00000000000000000 0.00000000000000000 
1 0.00000000000000000 -0.29999999999999999 1.00000000000000000 0.00000000000000000 
1 15.49999999999999289 16.02072950340598823 -1.00000000000000000 0.00000000000000000 
1 0.00000000000000000 0.00000000000000000 1.00000000000000000 0.00000000000000000 
1 0.00000000000000000 -0.29999999999999999 1.00000000000000000 0.00000000000000000 
1 31.00000000000000000 0.00000000000000000 0.00000000000000000 -1.00000000000000000 
1 0.00000000000000000 0.00000000000000000 0.00000000000000000 -1.00000000000000000 
1 0.00000000000000000 0.00000000000000000 0.00000000000000000 -1.00000000000000000 
1 32.04145900681201908 0.00000000000000000 0.00000000000000000 -1.00000000000000000 
Curves 61
1 -41.19999999999942020 152.62175689746464968 0.29999999999999999 0.00000000000000000 0.00000000000000000 -1.00000000000000000 
1 -72.19999999999942020 152.62175689746464968 0.29999999999999999 0.00000000000000000 0.00000000000000000 -1.00000000000000000 
1 -41.19999999999942020 152.62175689746464968 0.29999999999999999 -1.00000000000000000 0.00000000000000000 0.00000000000000000 
2 -41.19999999999942020 152.62175689746464968 -0.10000000000000003 0.00000000000000000 -1.00000000000000000 0.00000000000000000 0.00000000000000000 0.00000000000000000 1.00000000000000000 -1.00000000000000000 0.00000000000000000 0.00000000000000000 0.40000000000000002
2 -41.19999999999942020 152.62175689746464968 -0.10000000000000003 0.00000000000000000 -1.00000000000000000 0.00000000000000000 0.00000000000000000 0.00000000000000000 1.00000000000000000 -1.00000000000000000 0.00000000000000000 0.00000000000000000 0.10000000000000003
1 -41.19999999999942020 152.62175689746464968 0.00000000000000000 0.00000000000000000 0.00000000000000000 1.00000000000000000 
1 -72.19999999999942020 120.58029789065263060 0.29999999999999999 0.00000000000000000 0.00000000000000000 -1.00000000000000000 
1 -72.19999999999942020 152.62175689746464968 0.29999999999999999 0.00000000000000000 -1.00000000000000000 0.00000000000000000 
1 -41.19999999999942020 120.58029789065263060 0.29999999999999999 0.00000000000000000 1.00000000000000000 0.00000000000000000 
1 -72.19999999999942020 120.58029789065263060 0.29999999999999999 1.00000000000000000 0.00000000000000000 0.00000000000000000 
1 -41.19999999999942020 152.62175689746464968 0.00000000000000000 0.00000000000000000 -1.00000000000000000 0.00000000000000000 
2 -41.19999999999942020 120.58029789065263060 -0.10000000000000003 0.00000000000000000 -1.00000000000000000 0.00000000000000000 0.00000000000000000 0.00000000000000000 1.00000000000000000 -1.00000000000000000 0.00000000000000000 0.00000000000000000 0.40000000000000002
1 -41.19999999999942020 152.62175689746464968 0.00000000000000000 0.00000000000000000 -1.00000000000000000 0.00000000000000000 
2 -41.19999999999942020 120.58029789065263060 -0.10000000000000003 0.00000000000000000 -1.00000000000000000 0.00000000000000000 0.00000000000000000 0.00000000000000000 1.00000000000000000 -1.00000000000000000 0.00000000000000000 0.00000000000000000 0.10000000000000003
1 -41.19999999999942020 152.62175689746464968 0.00000000000000000 0.00000000000000000 -1.00000000000000000 0.00000000000000000 
1 -16.35966698284723009 160.39364856177107299 0.00000000000000000 0.00000000000000000 0.00000000000000000 1.00000000000000000 
1 -16.35966698284723009 160.39364856177107299 0.00000000000000000 -0.95437833286106821 -0.29860006323731458 0.00000000000000000 
1 -16.35966698284723009 160.39364856177107299 0.00000000000000000 -0.95437833286106821 -0.29860006323731458 0.00000000000000000 
1 -41.19999999999942020 120.58029789065263060 0.00000000000000000 0.00000000000000000 0.00000000000000000 1.00000000000000000 
1 -41.19999999999942020 120.58029789065263060 0.00000000000000000 0.00000000000000000 0.00000000000000000 1.00000000000000000 
1 -41.19999999999942020 120.58029789065263060 0.00000000000000000 1.00000000000000000 0.00000000000000000 0.00000000000000000 
1 41.19999999999942020 120.58029789065263060 0.00000000000000000 0.00000000000000000 1.00000000000000000 0.00000000000000000 
1 41.19999999999942020 152.62175689746464968 0.00000000000000000 -0.95437833286106810 0.29860006323731497 0.00000000000000000 
2 -14.86666666666071812 155.62175689746570129 0.00000000000000000 0.00000000000000000 0.00000000000000000 1.00000000000000000 1.00000000000000000 0.00000000000000000 0.00000000000000000 0.00000000000000000 1.00000000000000000 0.00000000000000000 5.00000000000000000
2 14.86666666666079095 155.62175689746570129 0.00000000000000000 0.00000000000000000 0.00000000000000000 1.00000000000000000 1.00000000000000000 0.00000000000000000 0.00000000000000000 0.00000000000000000 1.00000000000000000 0.00000000000000000 5.00000000000000000
1 14.86666666666079095 160.62175689746570129 0.00000000000000000 -1.00000000000000000 0.00000000000000000 0.00000000000000000 
2 -22.29999999999971294 125.58029789065402326 0.29999999999999716 0.00000000000000000 0.00000000000000000 1.00000000000000000 -1.00000000000000000 0.00000000000000000 0.00000000000000000 0.00000000000000000 -1.00000000000000000 0.00000000000000000 1.69999999999999996
2 0.00000000000006590 129.87193489162959281 0.29999999999999716 0.00000000000000000 0.00000000000000000 1.00000000000000000 -1.00000000000000000 0.00000000000000000 0.00000000000000000 0.00000000000000000 -1.00000000000000000 0.00000000000000000 1.69999999999999996
2 22.29999999999971294 125.58029789065263060 0.29999999999999716 0.00000000000000000 0.00000000000000000 1.00000000000000000 -1.00000000000000000 0.00000000000000000 0.00000000000000000 0.00000000000000000 -1.00000000000000000 0.00000000000000000 1.69999999999999996
2 -14.86666666666078918 155.62175689746496232 0.29999999999999716 0.00000000000000000 0.00000000000000000 1.00000000000000000 -1.00000000000000000 0.00000000000000000 0.00000000000000000 0.00000000000000000 -1.00000000000000000 0.00000000000000000 1.69999999999999996
2 14.86666666666079095 155.62175689746570129 0.29999999999999716 0.00000000000000000 0.00000000000000000 1.00000000000000000 -1.00000000000000000 0.00000000000000000 0.00000000000000000 0.00000000000000000 -1.00000000000000000 0.00000000000000000 1.69999999999999996
1 -41.19999999999942020 120.58029789065263060 0.00000000000000000 1.00000000000000000 0.00000000000000000 0.00000000000000000 
1 41.19999999999942020 120.58029789065263060 0.00000000000000000 0.00000000000000000 1.00000000000000000 0.00000000000000000 
1 41.19999999999942020 152.62175689746464968 0.00000000000000000 -0.95437833286106810 0.29860006323731497 0.00000000000000000 
2 -14.86666666666071812 155.62175689746570129 0.00000000000000000 0.00000000000000000 0.00000000000000000 1.00000000000000000 1.00000000000000000 0.00000000000000000 0.00000000000000000 0.00000000000000000 1.00000000000000000 0.00000000000000000 5.00000000000000000
2 14.86666666666079095 155.62175689746570129 0.00000000000000000 0.00000000000000000 0.00000000000000000 1.00000000000000000 1.00000000000000000 0.00000000000000000 0.00000000000000000 0.00000000000000000 1.00000000000000000 0.00000000000000000 5.00000000000000000
1 14.86666666666079095 160.62175689746570129 0.00000000000000000 -1.00000000000000000 0.00000000000000000 0.00000000000000000 
2 -22.29999999999971294 125.58029789065402326 0.00000000000000000 0.00000000000000000 0.00000000000000000 1.00000000000000000 -1.00000000000000000 0.00000000000000000 0.00000000000000000 0.00000000000000000 -1.00000000000000000 0.00000000000000000 1.69999999999999996
2 0.00000000000006590 129.87193489162959281 0.00000000000000000 0.00000000000000000 0.00000000000000000 1.00000000000000000 -1.00000000000000000 0.00000000000000000 0.00000000000000000 0.00000000000000000 -1.00000000000000000 0.00000000000000000 1.69999999999999996
2 22.29999999999971294 125.58029789065263060 0.00000000000000000 0.00000000000000000 0.00000000000000000 1.00000000000000000 -1.00000000000000000 0.00000000000000000 0.00000000000000000 0.00000000000000000 -1.00000000000000000 0.00000000000000000 1.69999999999999996
2 -14.86666666666078918 155.62175689746496232 0.00000000000000000 0.00000000000000000 0.00000000000000000 1.00000000000000000 -1.00000000000000000 0.00000000000000000 0.00000000000000000 0.00000000000000000 -1.00000000000000000 0.00000000000000000 1.69999999999999996
2 14.86666666666079095 155.62175689746570129 0.00000000000000000 0.00000000000000000 0.00000000000000000 1.00000000000000000 -1.00000000000000000 0.00000000000000000 0.00000000000000000 0.00000000000000000 -1.00000000000000000 0.00000000000000000 1.69999999999999996
1 -14.86666666666071990 160.62175689746570129 0.00000000000000000 0.00000000000000000 0.00000000000000000 1.00000000000000000 
1 41.19999999999942020 120.58029789065263060 0.00000000000000000 0.00000000000000000 0.00000000000000000 1.00000000000000000 
2 41.19999999999942020 152.62175689746464968 -0.10000000000000003 0.00000000000000000 1.00000000000000000 0.00000000000000000 0.00000000000000000 -0.00000000000000000 1.00000000000000000 1.00000000000000000 0.00000000000000000 -0.00000000000000000 0.40000000000000002
2 41.19999999999942020 120.58029789065263060 -0.10000000000000003 0.00000000000000000 1.00000000000000000 0.00000000000000000 0.00000000000000000 -0.00000000000000000 1.00000000000000000 1.00000000000000000 0.00000000000000000 -0.00000000000000000 0.40000000000000002
1 41.19999999999942020 152.62175689746464968 0.29999999999999999 0.00000000000000000 -1.00000000000000000 0.00000000000000000 
1 41.19999999999942020 152.62175689746464968 0.00000000000000000 0.00000000000000000 0.00000000000000000 1.00000000000000000 
1 16.35966698284735799 160.39364856177104457 0.00000000000000000 0.00000000000000000 0.00000000000000000 1.00000000000000000 
1 14.86666666666079095 160.62175689746570129 0.00000000000000000 0.00000000000000000 0.00000000000000000 1.00000000000000000 
1 -1.69999999999999996 0.00000000000000000 0.00000000000000000 0.00000000000000006 0.00000000000000000 1.00000000000000000 
2 41.19999999999942020 120.58029789065263060 -0.10000000000000003 0.00000000000000000 1.00000000000000000 0.00000000000000000 0.00000000000000000 -0.00000000000000000 1.00000000000000000 1.00000000000000000 0.00000000000000000 -0.00000000000000000 0.10000000000000003
2 41.19999999999942020 152.62175689746464968 -0.10000000000000003 0.00000000000000000 1.00000000000000000 0.00000000000000000 0.00000000000000000 -0.00000000000000000 1.00000000000000000 1.00000000000000000 0.00000000000000000 -0.00000000000000000 0.10000000000000003
1 41.19999999999942020 120.58029789065263060 0.00000000000000000 0.00000000000000000 1.00000000000000000 0.00000000000000000 
1 41.19999999999942020 120.58029789065263060 0.29999999999999999 0.00000000000000000 0.00000000000000000 -1.00000000000000000 
1 41.19999999999942020 152.62175689746464968 0.00000000000000000 0.00000000000000000 0.00000000000000000 1.00000000000000000 
1 41.19999999999942020 120.58029789065263060 0.29999999999999999 1.00000000000000000 0.00000000000000000 0.00000000000000000 
1 72.19999999999942020 120.58029789065263060 0.29999999999999999 0.00000000000000000 1.00000000000000000 0.00000000000000000 
1 72.19999999999942020 152.62175689746464968 0.29999999999999999 -1.00000000000000000 0.00000000000000000 0.00000000000000000 
1 72.19999999999942020 120.58029789065263060 0.29999999999999999 0.00000000000000000 0.00000000000000000 -1.00000000000000000 
1 72.19999999999942020 152.62175689746464968 0.29999999999999999 0.00000000000000000 0.00000000000000000 -1.00000000000000000 
Polygon3D 0
PolygonOnTriangulations 0
Surfaces 29
1 -41.19999999999942020 152.62175689746464968 0.29999999999999999 0.00000000000000000 1.00000000000000000 0.00000000000000000 -1.00000000000000000 0.00000000000000000 0.00000000000000000 0.00000000000000000 -0.00000000000000000 1.00000000000000000 
1 -41.19999999999942020 152.62175689746464968 -0.10000000000000003 0.00000000000000000 -1.00000000000000000 0.00000000000000000 0.00000000000000000 0.00000000000000000 1.00000000000000000 -1.00000000000000000 0.00000000000000000 0.00000000000000000 
1 -41.19999999999941309 136.60102739405863304 0.14999999999999997 -1.00000000000000000 -0.00000000000000000 -0.00000000000000000 0.00000000000000000 0.00000000000000000 -1.00000000000000000 0.00000000000000000 -1.00000000000000000 0.00000000000000000 
1 -72.19999999999942020 152.62175689746464968 0.29999999999999999 -1.00000000000000000 -0.00000000000000000 -0.00000000000000000 0.00000000000000000 -1.00000000000000000 0.00000000000000000 -0.00000000000000000 0.00000000000000000 1.00000000000000000 
1 -56.69999999999942730 136.60102739405866146 0.29999999999999999 0.00000000000000000 0.00000000000000000 1.00000000000000000 1.00000000000000000 0.00000000000000000 -0.00000000000000000 -0.00000000000000000 1.00000000000000000 0.00000000000000000 
2 -41.19999999999942020 120.58029789065263060 -0.10000000000000003 -0.00000000000000000 1.00000000000000000 -0.00000000000000000 0.00000000000000000 0.00000000000000000 1.00000000000000000 -1.00000000000000000 -0.00000000000000000 0.00000000000000000 0.40000000000000002
2 -41.19999999999942020 152.62175689746464968 -0.10000000000000003 0.00000000000000000 -1.00000000000000000 0.00000000000000000 0.00000000000000000 0.00000000000000000 1.00000000000000000 -1.00000000000000000 0.00000000000000000 0.00000000000000000 0.10000000000000003
1 -16.35966698284723009 160.39364856177107299 0.00000000000000000 0.29860006323731458 -0.95437833286106821 0.00000000000000000 -0.95437833286106821 -0.29860006323731458 0.00000000000000000 0.00000000000000000 -0.00000000000000000 -1.00000000000000000 
1 -41.19999999999942020 152.62175689746464968 0.00000000000000000 1.00000000000000000 0.00000000000000000 -0.00000000000000000 0.00000000000000000 -1.00000000000000000 0.00000000000000000 0.00000000000000000 -0.00000000000000000 -1.00000000000000000 
1 -72.19999999999942020 120.58029789065263060 0.29999999999999999 0.00000000000000000 -1.00000000000000000 0.00000000000000000 1.00000000000000000 0.00000000000000000 0.00000000000000000 -0.00000000000000000 0.00000000000000000 1.00000000000000000 
1 -41.19999999999942020 120.58029789065263060 -0.10000000000000003 0.00000000000000000 -1.00000000000000000 0.00000000000000000 -0.00000000000000000 -0.00000000000000000 -1.00000000000000000 -1.00000000000000000 0.00000000000000000 0.00000000000000000 
1 -0.00000000000000393 138.77533274331938173 0.00000000000000000 0.00000000000000000 0.00000000000000000 1.00000000000000000 1.00000000000000000 0.00000000000000000 -0.00000000000000000 -0.00000000000000000 1.00000000000000000 0.00000000000000000 
1 -0.00000000000000393 138.77533274331938173 0.00000000000000000 0.00000000000000000 0.00000000000000000 1.00000000000000000 1.00000000000000000 0.00000000000000000 -0.00000000000000000 -0.00000000000000000 1.00000000000000000 0.00000000000000000 
2 -14.86666666666071812 155.62175689746570129 0.00000000000000000 -0.00000000000000000 -0.00000000000000000 -1.00000000000000000 1.00000000000000000 0.00000000000000000 0.00000000000000000 0.00000000000000000 1.00000000000000000 0.00000000000000000 5.00000000000000000
1 -41.19999999999942020 120.58029789065263060 0.00000000000000000 0.00000000000000000 1.00000000000000000 0.00000000000000000 1.00000000000000000 0.00000000000000000 0.00000000000000000 0.00000000000000000 0.00000000000000000 -1.00000000000000000 
1 41.19999999999942020 120.58029789065263060 0.00000000000000000 -1.00000000000000000 0.00000000000000000 0.00000000000000000 0.00000000000000000 1.00000000000000000 0.00000000000000000 0.00000000000000000 0.00000000000000000 -1.00000000000000000 
2 41.19999999999942020 152.62175689746464968 -0.10000000000000003 -0.00000000000000000 -1.00000000000000000 -0.00000000000000000 0.00000000000000000 0.00000000000000000 1.00000000000000000 1.00000000000000000 -0.00000000000000000 -0.00000000000000000 0.40000000000000002
1 41.19999999999942020 152.62175689746464968 0.00000000000000000 -0.29860006323731497 -0.95437833286106810 0.00000000000000000 -0.95437833286106810 0.29860006323731497 0.00000000000000000 -0.00000000000000000 0.00000000000000000 -1.00000000000000000 
2 14.86666666666079095 155.62175689746570129 0.00000000000000000 -0.00000000000000000 -0.00000000000000000 -1.00000000000000000 1.00000000000000000 0.00000000000000000 0.00000000000000000 0.00000000000000000 1.00000000000000000 0.00000000000000000 5.00000000000000000
1 14.86666666666079095 160.62175689746570129 0.00000000000000000 0.00000000000000000 -1.00000000000000000 0.00000000000000000 -1.00000000000000000 0.00000000000000000 0.00000000000000000 -0.00000000000000000 -0.00000000000000000 -1.00000000000000000 
2 0.00000000000000000 0.00000000000000000 0.00000000000000000 0.00000000000000000 0.00000000000000000 1.00000000000000000 -1.00000000000000000 0.00000000000000000 0.00000000000000000 -0.00000000000000000 1.00000000000000000 -0.00000000000000000 1.69999999999999996
2 41.19999999999942020 120.58029789065263060 -0.10000000000000003 0.00000000000000000 1.00000000000000000 0.00000000000000000 0.00000000000000000 -0.00000000000000000 1.00000000000000000 1.00000000000000000 0.00000000000000000 -0.00000000000000000 0.10000000000000003
1 41.19999999999942020 120.58029789065263060 -0.10000000000000003 0.00000000000000000 1.00000000000000000 0.00000000000000000 0.00000000000000000 -0.00000000000000000 1.00000000000000000 1.00000000000000000 0.00000000000000000 -0.00000000000000000 
1 41.19999999999942020 152.62175689746464968 -0.10000000000000003 0.00000000000000000 1.00000000000000000 0.00000000000000000 -0.00000000000000000 0.00000000000000000 -1.00000000000000000 1.00000000000000000 0.00000000000000000 -0.00000000000000000 
1 41.19999999999941309 136.60102739405860461 0.14999999999999997 1.00000000000000000 -0.00000000000000000 -0.00000000000000000 0.00000000000000000 0.00000000000000000 1.00000000000000000 -0.00000000000000000 -1.00000000000000000 0.00000000000000000 
1 56.69999999999942730 136.60102739405866146 0.29999999999999999 0.00000000000000000 0.00000000000000000 1.00000000000000000 1.00000000000000000 0.00000000000000000 -0.00000000000000000 -0.00000000000000000 1.00000000000000000 0.00000000000000000 
1 41.19999999999942020 120.58029789065263060 0.29999999999999999 0.00000000000000000 -1.00000000000000000 0.00000000000000000 1.00000000000000000 0.00000000000000000 0.00000000000000000 -0.00000000000000000 0.00000000000000000 1.00000000000000000 
1 72.19999999999942020 152.62175689746464968 0.29999999999999999 0.00000000000000000 1.00000000000000000 0.00000000000000000 -1.00000000000000000 0.00000000000000000 0.00000000000000000 0.00000000000000000 -0.00000000000000000 1.00000000000000000 
1 72.19999999999942020 120.58029789065263060 0.29999999999999999 1.00000000000000000 -0.00000000000000000 0.00000000000000000 0.00000000000000000 1.00000000000000000 0.00000000000000000 -0.00000000000000000 0.00000000000000000 1.00000000000000000 
Triangulations 0

TShapes 181
Ve
0.000000100000000
-41.599999999999419 152.621756897464650 -0.100000000000001
0 0

0101101
*
Ve
0.000000100000000
-41.299999999999422 152.621756897464650 -0.100000000000001
0 0

0101101
*
Ed
 0.000000100000000 1 1 0
1  1 0 0.000000000000000 0.300000000000000
2  1 2 0 0.000000000000000 0.300000000000000
2  2 2 7 0.000000000000000 0.300000000000000
2  3 3 0 0.000000000000000 0.300000000000000
2  4 1 8 0.000000000000000 0.300000000000000
0

0101000
+181 7 -180 7 *
Ve
0.000000100000000
-72.199999999999420 152.621756897464650 0.300000000000000
0 0

0101101
*
Ed
 0.000000100000000 1 1 0
1  2 0 0.000000000000000 0.300000000000000
2  5 1 0 0.000000000000000 0.300000000000000
2  6 4 0 0.000000000000000 0.300000000000000
0

0101000
+178 0 -178 9 *
Ed
 0.000000100000000 1 1 0
1  3 0 0.000000000000000 31.000000000000000
2  7 1 0 0.000000000000000 31.000000000000000
2  8 1 10 0.000000000000000 31.000000000000000
2  9 5 0 0.000000000000000 31.000000000000000
0

0101000
+181 11 -178 0 *
Ed
 0.000000100000000 1 1 0
1  3 0 0.000000000000000 31.000000000000000
2  7 1 0 0.000000000000000 31.000000000000000
2  8 1 10 0.000000000000000 31.000000000000000
2  9 5 0 0.000000000000000 31.000000000000000
0

0101000
+180 13 -178 0 *
Wi

0101100
+179 6 -177 5 -176 5 +175 12 *
Fa
0  0.000000100000000 1 5

0101000
+174 0 *
Ve
0.000000100000000
-41.199999999999420 152.621756897464650 0.300000000000000
0 0

0101101
*
Ed
 0.000000100000000 1 1 0
1  4 0 0.000000000000000 1.570796326794897
2  10 6 0 0.000000000000000 1.570796326794897
2  11 2 0 0.000000000000000 1.570796326794897
0

0101000
+172 0 -181 0 *
Ve
0.000000100000000
-41.199999999999420 152.621756897464650 0.000000000000000
0 0

0101101
*
Ed
 0.000000100000000 1 1 0
1  5 0 0.000000000000000 1.570796326794897
2  12 2 0 0.000000000000000 1.570796326794897
2  13 7 0 0.000000000000000 1.570796326794897
0

0101000
+170 0 -180 0 *
Ed
 0.000000100000000 1 1 0
1  6 0 0.000000000000000 0.300000000000000
2  14 8 0 0.000000000000000 0.300000000000000
2  15 9 0 0.000000000000000 0.300000000000000
2  16 2 15 0.000000000000000 0.300000000000000
0

0101000
+170 15 -172 15 *
Wi

0101100
+171 0 -169 0 +168 14 +179 6 *
Fa
0  0.000000100000000 2 0

0101000
+167 0 *
Ve
0.000000100000000
-72.199999999999420 120.580297890652631 0.300000000000000
0 0

0101101
*
Ed
 0.000000100000000 1 1 0
1  7 0 0.000000000000000 0.300000000000000
2  17 10 0 0.000000000000000 0.300000000000000
2  18 4 0 0.000000000000000 0.300000000000000
0

0101000
+165 0 -165 9 *
Ed
 0.000000100000000 1 1 0
1  8 0 0.000000000000000 32.041459006812019
2  19 5 0 0.000000000000000 32.041459006812019
2  20 4 0 0.000000000000000 32.041459006812019
2  21 4 10 0.000000000000000 32.041459006812019
0

0101000
+178 0 -165 0 *
Wi

0101100
+177 0 -164 0 -163 0 +163 9 *
Fa
0  0.000000100000000 4 0

0101000
+162 0 *
Ve
0.000000100000000
-41.599999999999419 120.580297890652631 -0.100000000000001
0 0

0101101
*
Ed
 0.000000100000000 1 1 0
1  9 0 0.000000000000000 32.041459006812019
2  22 6 0 0.000000000000000 32.041459006812019
2  23 6 7 0.000000000000000 32.041459006812019
2  24 3 0 0.000000000000000 32.041459006812019
2  25 5 8 0.000000000000000 32.041459006812019
0

0101000
+160 7 -181 7 *
Ed
 0.000000100000000 1 1 0
1  10 0 0.000000000000000 31.000000000000000
2  26 10 0 0.000000000000000 31.000000000000000
2  27 10 10 0.000000000000000 31.000000000000000
2  28 5 0 0.000000000000000 31.000000000000000
0

0101000
+165 0 -160 11 *
Wi

0101100
+159 6 +176 5 +163 5 +158 5 *
Fa
0  0.000000100000000 5 5

0101000
+157 0 *
Ve
0.000000100000000
-41.299999999999422 120.580297890652631 -0.100000000000001
0 0

0101101
*
Ed
 0.000000100000000 1 1 0
1  11 0 0.000000000000000 32.041459006812019
2  29 7 0 0.000000000000000 32.041459006812019
2  30 7 7 0.000000000000000 32.041459006812019
2  31 3 0 0.000000000000000 32.041459006812019
2  32 5 17 0.000000000000000 32.041459006812019
0

0101000
+180 7 -155 7 *
Ed
 0.000000100000000 1 1 0
1  10 0 0.000000000000000 31.000000000000000
2  26 10 0 0.000000000000000 31.000000000000000
2  27 10 10 0.000000000000000 31.000000000000000
2  28 5 0 0.000000000000000 31.000000000000000
0

0101000
+165 0 -155 13 *
Wi

0101100
-154 6 +175 12 +163 12 +153 12 *
Fa
0  0.000000100000000 5 12

0101000
+152 0 *
Ve
0.000000100000000
-41.199999999999420 120.580297890652631 0.300000000000000
0 0

0101101
*
Ed
 0.000000100000000 1 1 0
1  12 0 0.000000000000000 1.570796326794897
2  33 6 0 0.000000000000000 1.570796326794897
2  34 11 0 0.000000000000000 1.570796326794897
0

0101000
+150 0 -160 0 *
Ed
 0.000000100000000 1 1 0
1  13 0 0.000000000000000 32.041459006812019
2  35 9 23 0.000000000000000 32.041459006812019
2  36 12 24 0.000000000000000 32.041459006812019
2  37 6 25 0.000000000000000 32.041459006812019
0

0101000
+172 25 -150 25 *
Wi

0101100
+149 0 -171 0 +148 22 +159 6 *
Fa
0  0.000000100000000 6 0

0101000
+147 0 *
Ve
0.000000100000000
-41.199999999999420 120.580297890652631 0.000000000000000
0 0

0101101
*
Ed
 0.000000100000000 1 1 0
1  14 0 0.000000000000000 1.570796326794897
2  38 7 0 0.000000000000000 1.570796326794897
2  39 11 0 0.000000000000000 1.570796326794897
0

0101000
+145 0 -155 0 *
Ed
 0.000000100000000 1 1 0
1  15 0 0.000000000000000 32.041459006812019
2  40 9 27 0.000000000000000 32.041459006812019
2  41 13 24 0.000000000000000 32.041459006812019
2  42 7 28 0.000000000000000 32.041459006812019
0

0101000
+170 28 -145 28 *
Wi

0101100
+169 0 -144 0 -143 26 +154 6 *
Fa
0  0.000000100000000 7 0

0101000
+142 0 *
Ve
0.000000100000000
-16.359666982847230 160.393648561771073 0.000000000000000
0 0

0101101
*
Ve
0.000000100000000
-16.359666982847230 160.393648561771073 0.300000000000000
0 0

0101101
*
Ed
 0.000000100000000 1 1 0
1  16 0 0.000000000000000 0.300000000000000
2  43 14 0 0.000000000000000 0.300000000000000
2  44 8 0 0.000000000000000 0.300000000000000
4 G1 14 0 8 0
0

0101000
+140 15 -139 15 *
Ed
 0.000000100000000 1 1 0
1  17 0 0.000000000000000 26.027762955058908
2  45 8 27 0.000000000000000 26.027762955058908
2  46 13 24 0.000000000000000 26.027762955058908
0

0101000
+140 28 -170 28 *
Ed
 0.000000100000000 1 1 0
1  18 0 0.000000000000000 26.027762955058908
2  47 8 23 0.000000000000000 26.027762955058908
2  48 12 24 0.000000000000000 26.027762955058908
0

0101000
+139 25 -172 25 *
Wi

0101100
+138 14 -168 14 -137 26 +136 22 *
Fa
0  0.000000100000000 8 14

0101000
+135 0 *
Ed
 0.000000100000000 1 1 0
1  19 0 0.000000000000000 0.300000000000000
2  49 11 0 0.000000000000000 0.300000000000000
2  50 11 7 0.000000000000000 0.300000000000000
2  51 3 0 0.000000000000000 0.300000000000000
2  52 10 8 0.000000000000000 0.300000000000000
0

0101000
+155 7 -160 7 *
Wi

0101100
+164 5 +133 6 -158 5 +153 12 *
Fa
0  0.000000100000000 10 5

0101000
+132 0 *
Ed
 0.000000100000000 1 1 0
1  20 0 0.000000000000000 0.300000000000000
2  53 15 0 0.000000000000000 0.300000000000000
2  54 9 0 0.000000000000000 0.300000000000000
2  55 11 15 0.000000000000000 0.300000000000000
0

0101000
+145 15 -150 15 *
Wi

0101100
+144 0 -149 0 -130 14 +133 6 *
Fa
0  0.000000100000000 11 0

0101000
+129 0 *
Ve
0.000000100000000
41.199999999999420 120.580297890652631 0.300000000000000
0 0

0101101
*
Ed
 0.000000100000000 1 1 0
1  21 0 0.000000000000000 82.399999999998840
2  56 15 23 0.000000000000000 82.399999999998840
2  57 12 24 0.000000000000000 82.399999999998840
0

0101000
+150 25 -127 25 *
Ve
0.000000100000000
41.199999999999420 152.621756897464650 0.300000000000000
0 0

0101101
*
Ed
 0.000000100000000 1 1 0
1  22 0 0.000000000000000 32.041459006812019
2  58 16 23 0.000000000000000 32.041459006812019
2  59 12 24 0.000000000000000 32.041459006812019
2  60 17 25 0.000000000000000 32.041459006812019
0

0101000
+127 25 -125 25 *
Ve
0.000000100000004
16.359666982847358 160.393648561771045 0.300000000000000
0 0

0101101
*
Ed
 0.000000100000000 1 1 0
1  23 0 0.000000000000000 26.027762955058776
2  61 18 23 0.000000000000000 26.027762955058776
2  62 12 24 0.000000000000000 26.027762955058776
0

0101000
+125 25 -123 25 *
Ve
0.000000100000001
-14.866666666660720 160.621756897465701 0.300000000000000
0 0

0101101
*
Ed
 0.000000100000000 1 1 0
1  24 0 1.570796326794897 1.874021786293219
2  63 14 23 1.570796326794897 1.874021786293219
2  64 12 24 1.570796326794897 1.874021786293219
0

0101000
+121 25 -139 25 *
Ve
0.000000100000000
14.866666666660791 160.621756897465701 0.300000000000000
0 0

0101101
*
Ed
 0.000000100000000 1 1 0
1  25 0 1.267570867296562 1.570796326794897
2  65 19 23 1.267570867296562 1.570796326794897
2  66 12 24 1.267570867296562 1.570796326794897
0

0101000
+123 25 -119 25 *
Ed
 0.000000100000000 1 1 0
1  26 0 0.000000000000000 29.733333333321511
2  67 20 23 0.000000000000000 29.733333333321511
2  68 12 24 0.000000000000000 29.733333333321511
0

0101000
+119 25 -121 25 *
Wi

0101100
+126 30 +148 30 +124 30 +136 30 +122 30 +120 30 +118 30 +117 30 *
Ve
0.000000100000004
-23.999999999999709 125.580297890654023 0.299999999999997
0 0

0101101
*
Ed
 0.000000100000000 1 1 0
1  27 0 0.000000000000000 6.283185307179586
2  69 12 29 0.000000000000000 6.283185307179586
2  70 21 31 0.000000000000000 6.283185307179586
0

0101100
+115 0 -115 0 *
Wi

0101100
-114 0 *
Ve
0.000000100000002
-1.699999999999932 129.871934891629593 0.299999999999997
0 0

0101101
*
Ed
 0.000000100000000 1 1 0
1  28 0 0.000000000000000 6.283185307179586
2  71 12 29 0.000000000000000 6.283185307179586
2  72 21 32 0.000000000000000 6.283185307179586
0

0101100
+112 0 -112 0 *
Wi

0101100
-111 0 *
Ve
0.000000100000004
20.599999999999717 125.580297890652631 0.299999999999997
0 0

0101101
*
Ed
 0.000000100000000 1 1 0
1  29 0 0.000000000000000 6.283185307179586
2  73 12 29 0.000000000000000 6.283185307179586
2  74 21 33 0.000000000000000 6.283185307179586
0

0101100
+109 0 -109 0 *
Wi

0101100
-108 0 *
Ve
0.000000100000004
-16.566666666660787 155.621756897464962 0.299999999999997
0 0

0101101
*
Ed
 0.000000100000000 1 1 0
1  30 0 0.000000000000000 6.283185307179586
2  75 12 29 0.000000000000000 6.283185307179586
2  76 21 34 0.000000000000000 6.283185307179586
0

0101100
+106 0 -106 0 *
Wi

0101100
-105 0 *
Ve
0.000000100000002
13.166666666660793 155.621756897465701 0.299999999999997
0 0

0101101
*
Ed
 0.000000100000000 1 1 0
1  31 0 0.000000000000000 6.283185307179586
2  77 12 29 0.000000000000000 6.283185307179586
2  78 21 35 0.000000000000000 6.283185307179586
0

0101100
+103 0 -103 0 *
Wi

0101100
-102 0 *
Fa
0  0.000000100000000 12 29

0101000
+116 0 +113 0 +110 0 +107 0 +104 0 +101 0 *
Ve
0.000000100000000
41.199999999999420 120.580297890652631 0.000000000000000
0 0

0101101
*
Ed
 0.000000100000000 1 1 0
1  32 0 0.000000000000000 82.399999999998840
2  79 15 27 0.000000000000000 82.399999999998840
2  80 13 24 0.000000000000000 82.399999999998840
0

0101000
+145 28 -99 28 *
Ve
0.000000100000000
41.199999999999420 152.621756897464650 0.000000000000000
0 0

0101101
*
Ed
 0.000000100000000 1 1 0
1  33 0 0.000000000000000 32.041459006812019
2  81 16 27 0.000000000000000 32.041459006812019
2  82 13 24 0.000000000000000 32.041459006812019
2  83 22 28 0.000000000000000 32.041459006812019
0

0101000
+99 28 -97 28 *
Ve
0.000000100000000
16.359666982847358 160.393648561771045 0.000000000000000
0 0

0101101
*
Ed
 0.000000100000000 1 1 0
1  34 0 0.000000000000000 26.027762955058776
2  84 18 27 0.000000000000000 26.027762955058776
2  85 13 24 0.000000000000000 26.027762955058776
0

0101000
+97 28 -95 28 *
Ve
0.000000100000001
-14.866666666660720 160.621756897465701 0.000000000000000
0 0

0101101
*
Ed
 0.000000100000000 1 1 0
1  35 0 1.570796326794897 1.874021786293219
2  86 14 27 1.570796326794897 1.874021786293219
2  87 13 24 1.570796326794897 1.874021786293219
0

0101000
+93 28 -140 28 *
Ve
0.000000100000000
14.866666666660791 160.621756897465701 0.000000000000000
0 0

0101101
*
Ed
 0.000000100000000 1 1 0
1  36 0 1.267570867296562 1.570796326794897
2  88 19 27 1.267570867296562 1.570796326794897
2  89 13 24 1.267570867296562 1.570796326794897
0

0101000
+95 28 -91 28 *
Ed
 0.000000100000000 1 1 0
1  37 0 0.000000000000000 29.733333333321511
2  90 20 27 0.000000000000000 29.733333333321511
2  91 13 24 0.000000000000000 29.733333333321511
0

0101000
+91 28 -93 28 *
Wi

0101100
+98 37 +143 37 +96 37 +137 37 +94 37 +92 37 +90 37 +89 37 *
Ve
0.000000100000004
-23.999999999999709 125.580297890654023 0.000000000000000
0 0

0101101
*
Ed
 0.000000100000000 1 1 0
1  38 0 0.000000000000000 6.283185307179586
2  92 13 36 0.000000000000000 6.283185307179586
2  93 21 31 0.000000000000000 6.283185307179586
0

0101100
+87 0 -87 0 *
Wi

0101100
-86 0 *
Ve
0.000000100000002
-1.699999999999932 129.871934891629593 0.000000000000000
0 0

0101101
*
Ed
 0.000000100000000 1 1 0
1  39 0 0.000000000000000 6.283185307179586
2  94 13 36 0.000000000000000 6.283185307179586
2  95 21 32 0.000000000000000 6.283185307179586
0

0101100
+84 0 -84 0 *
Wi

0101100
-83 0 *
Ve
0.000000100000004
20.599999999999717 125.580297890652631 0.000000000000000
0 0

0101101
*
Ed
 0.000000100000000 1 1 0
1  40 0 0.000000000000000 6.283185307179586
2  96 13 36 0.000000000000000 6.283185307179586
2  97 21 33 0.000000000000000 6.283185307179586
0

0101100
+81 0 -81 0 *
Wi

0101100
-80 0 *
Ve
0.000000100000004
-16.566666666660787 155.621756897464962 0.000000000000000
0 0

0101101
*
Ed
 0.000000100000000 1 1 0
1  41 0 0.000000000000000 6.283185307179586
2  98 13 36 0.000000000000000 6.283185307179586
2  99 21 34 0.000000000000000 6.283185307179586
0

0101100
+78 0 -78 0 *
Wi

0101100
-77 0 *
Ve
0.000000100000002
13.166666666660793 155.621756897465701 0.000000000000000
0 0

0101101
*
Ed
 0.000000100000000 1 1 0
1  42 0 0.000000000000000 6.283185307179586
2  100 13 36 0.000000000000000 6.283185307179586
2  101 21 35 0.000000000000000 6.283185307179586
0

0101100
+75 0 -75 0 *
Wi

0101100
-74 0 *
Fa
0  0.000000100000000 13 36

0101000
+88 0 +85 0 +82 0 +79 0 +76 0 +73 0 *
Ed
 0.000000100000001 1 1 0
1  43 0 0.000000000000000 0.300000000000000
2  102 20 0 0.000000000000000 0.300000000000000
2  103 14 0 0.000000000000000 0.300000000000000
4 G1 20 0 14 0
0

0101000
+93 15 -121 15 *
Wi

0101100
+71 0 -138 0 -92 39 +120 40 *
Fa
0  0.000000100000000 14 0

0101000
+70 0 *
Ed
 0.000000100000000 1 1 0
1  44 0 0.000000000000000 0.300000000000000
2  104 15 0 0.000000000000000 0.300000000000000
2  105 16 0 0.000000000000000 0.300000000000000
2  106 23 15 0.000000000000000 0.300000000000000
0

0101000
+99 15 -127 15 *
Wi

0101100
+130 14 -68 14 -98 26 +126 22 *
Fa
0  0.000000100000000 15 14

0101000
+67 0 *
Ve
0.000000100000000
41.599999999999419 152.621756897464650 -0.100000000000001
0 0

0101101
*
Ed
 0.000000100000000 1 1 0
1  45 0 0.000000000000000 1.570796326794897
2  107 17 0 0.000000000000000 1.570796326794897
2  108 24 0 0.000000000000000 1.570796326794897
0

0101000
+125 0 -65 0 *
Ve
0.000000100000000
41.599999999999419 120.580297890652631 -0.100000000000001
0 0

0101101
*
Ed
 0.000000100000000 1 1 0
1  46 0 0.000000000000000 1.570796326794897
2  109 17 0 0.000000000000000 1.570796326794897
2  110 23 0 0.000000000000000 1.570796326794897
0

0101000
+127 0 -63 0 *
Ed
 0.000000100000000 1 1 0
1  47 0 0.000000000000000 32.041459006812019
2  111 17 0 0.000000000000000 32.041459006812019
2  112 17 42 0.000000000000000 32.041459006812019
2  113 25 0 0.000000000000000 32.041459006812019
2  114 26 44 0.000000000000000 32.041459006812019
0

0101000
+65 42 -63 42 *
Wi

0101100
+64 0 -62 0 +124 22 +61 41 *
Fa
0  0.000000100000000 17 0

0101000
+60 0 *
Ed
 0.000000100000000 1 1 0
1  48 0 0.000000000000000 0.300000000000000
2  115 16 0 0.000000000000000 0.300000000000000
2  116 18 0 0.000000000000000 0.300000000000000
2  117 24 15 0.000000000000000 0.300000000000000
0

0101000
+97 15 -125 15 *
Ed
 0.000000100000000 1 1 0
1  49 0 0.000000000000000 0.300000000000000
2  118 18 0 0.000000000000000 0.300000000000000
2  119 19 0 0.000000000000000 0.300000000000000
4 G1 18 0 19 0
0

0101000
+95 15 -123 15 *
Wi

0101100
+58 14 -57 14 -94 26 +122 22 *
Fa
0  0.000000100000000 18 14

0101000
+56 0 *
Ed
 0.000000100000000 1 1 0
1  50 0 0.000000000000000 0.300000000000000
2  120 19 0 0.000000000000000 0.300000000000000
2  121 20 0 0.000000000000000 0.300000000000000
4 G1 19 0 20 0
0

0101000
+91 15 -119 15 *
Wi

0101100
+57 0 -54 0 -90 39 +118 40 *
Fa
0  0.000000100000000 19 0

0101000
+53 0 *
Wi

0101100
+54 0 -71 0 -89 39 +117 40 *
Fa
0  0.000000100000000 20 0

0101000
+51 0 *
Ed
 0.000000100000000 1 1 0
1  51 0 37.100000000000001 37.399999999999999
3  122 123CN 21 0 37.100000000000001 37.399999999999999
0

0101000
+87 45 -115 45 *
Wi

0101100
-86 0 -49 31 +114 0 +49 31 *
Fa
0  0.000000100000000 21 31

0101000
+48 0 *
Ed
 0.000000100000000 1 1 0
1  51 0 37.100000000000001 37.399999999999999
3  122 123CN 21 0 37.100000000000001 37.399999999999999
0

0101000
+84 46 -112 46 *
Wi

0101100
-83 0 -46 32 +111 0 +46 32 *
Fa
0  0.000000100000000 21 32

0101000
+45 0 *
Ed
 0.000000100000000 1 1 0
1  51 0 37.100000000000001 37.399999999999999
3  122 123CN 21 0 37.100000000000001 37.399999999999999
0

0101000
+81 47 -109 47 *
Wi

0101100
-80 0 -43 33 +108 0 +43 33 *
Fa
0  0.000000100000000 21 33

0101000
+42 0 *
Ed
 0.000000100000000 1 1 0
1  51 0 37.100000000000001 37.399999999999999
3  122 123CN 21 0 37.100000000000001 37.399999999999999
0

0101000
+78 48 -106 48 *
Wi

0101100
-77 0 -40 34 +105 0 +40 34 *
Fa
0  0.000000100000000 21 34

0101000
+39 0 *
Ed
 0.000000100000000 1 1 0
1  51 0 37.100000000000001 37.399999999999999
3  122 123CN 21 0 37.100000000000001 37.399999999999999
0

0101000
+75 49 -103 49 *
Wi

0101100
-74 0 -37 35 +102 0 +37 35 *
Fa
0  0.000000100000000 21 35

0101000
+36 0 *
Ve
0.000000100000000
41.299999999999422 120.580297890652631 -0.100000000000001
0 0

0101101
*
Ed
 0.000000100000000 1 1 0
1  52 0 0.000000000000000 1.570796326794897
2  124 23 0 0.000000000000000 1.570796326794897
2  125 22 0 0.000000000000000 1.570796326794897
0

0101000
+99 0 -34 0 *
Ve
0.000000100000000
41.299999999999422 152.621756897464650 -0.100000000000001
0 0

0101101
*
Ed
 0.000000100000000 1 1 0
1  53 0 0.000000000000000 1.570796326794897
2  126 22 0 0.000000000000000 1.570796326794897
2  127 24 0 0.000000000000000 1.570796326794897
0

0101000
+97 0 -32 0 *
Ed
 0.000000100000000 1 1 0
1  54 0 0.000000000000000 32.041459006812019
2  128 22 0 0.000000000000000 32.041459006812019
2  129 22 42 0.000000000000000 32.041459006812019
2  130 25 0 0.000000000000000 32.041459006812019
2  131 26 51 0.000000000000000 32.041459006812019
0

0101000
+34 42 -32 42 *
Wi

0101100
+33 0 -31 0 -96 26 +30 41 *
Fa
0  0.000000100000000 22 0

0101000
+29 0 *
Ed
 0.000000100000000 1 1 0
1  55 0 0.000000000000000 0.300000000000000
2  132 23 0 0.000000000000000 0.300000000000000
2  133 23 42 0.000000000000000 0.300000000000000
2  134 25 0 0.000000000000000 0.300000000000000
2  135 27 44 0.000000000000000 0.300000000000000
0

0101000
+63 42 -34 42 *
Wi

0101100
+62 0 -33 0 +68 14 +27 41 *
Fa
0  0.000000100000000 23 0

0101000
+26 0 *
Ed
 0.000000100000000 1 1 0
1  56 0 0.000000000000000 0.300000000000000
2  136 24 0 0.000000000000000 0.300000000000000
2  137 24 42 0.000000000000000 0.300000000000000
2  138 25 0 0.000000000000000 0.300000000000000
2  139 28 44 0.000000000000000 0.300000000000000
0

0101000
+32 42 -65 42 *
Wi

0101100
+31 0 -64 0 -58 14 +24 41 *
Fa
0  0.000000100000000 24 0

0101000
+23 0 *
Ve
0.000000100000000
72.199999999999420 120.580297890652631 0.300000000000000
0 0

0101101
*
Ed
 0.000000100000000 1 1 0
1  57 0 0.000000000000000 31.000000000000000
2  140 27 0 0.000000000000000 31.000000000000000
2  141 27 52 0.000000000000000 31.000000000000000
2  142 26 0 0.000000000000000 31.000000000000000
0

0101000
+63 53 -21 0 *
Ve
0.000000100000000
72.199999999999420 152.621756897464650 0.300000000000000
0 0

0101101
*
Ed
 0.000000100000000 1 1 0
1  58 0 0.000000000000000 32.041459006812019
2  143 26 0 0.000000000000000 32.041459006812019
2  144 29 0 0.000000000000000 32.041459006812019
2  145 29 52 0.000000000000000 32.041459006812019
0

0101000
+21 0 -19 0 *
Ed
 0.000000100000000 1 1 0
1  59 0 0.000000000000000 31.000000000000000
2  146 26 0 0.000000000000000 31.000000000000000
2  147 28 0 0.000000000000000 31.000000000000000
2  148 28 52 0.000000000000000 31.000000000000000
0

0101000
+19 0 -65 53 *
Wi

0101100
+61 41 +20 43 +18 43 +17 43 *
Fa
0  0.000000100000000 26 43

0101000
+16 0 *
Ed
 0.000000100000000 1 1 0
1  57 0 0.000000000000000 31.000000000000000
2  140 27 0 0.000000000000000 31.000000000000000
2  141 27 52 0.000000000000000 31.000000000000000
2  142 26 0 0.000000000000000 31.000000000000000
0

0101000
+34 55 -21 0 *
Ed
 0.000000100000000 1 1 0
1  59 0 0.000000000000000 31.000000000000000
2  146 26 0 0.000000000000000 31.000000000000000
2  147 28 0 0.000000000000000 31.000000000000000
2  148 28 52 0.000000000000000 31.000000000000000
0

0101000
+19 0 -32 55 *
Wi

0101100
-30 41 +14 54 +18 54 +13 54 *
Fa
0  0.000000100000000 26 54

0101000
+12 0 *
Ed
 0.000000100000000 1 1 0
1  60 0 0.000000000000000 0.300000000000000
2  149 27 0 0.000000000000000 0.300000000000000
2  150 29 0 0.000000000000000 0.300000000000000
0

0101000
+21 0 -21 50 *
Wi

0101100
+27 41 -10 43 -20 43 +14 54 *
Fa
0  0.000000100000000 27 43

0101000
+9 0 *
Ed
 0.000000100000000 1 1 0
1  61 0 0.000000000000000 0.300000000000000
2  151 28 0 0.000000000000000 0.300000000000000
2  152 29 0 0.000000000000000 0.300000000000000
0

0101000
+19 0 -19 50 *
Wi

0101100
+7 43 +24 41 -17 43 +13 54 *
Fa
0  0.000000100000000 28 43

0101000
+6 0 *
Wi

0101100
+10 0 -7 0 -18 0 +18 50 *
Fa
0  0.000000100000000 29 0

0101000
+4 0 *
Sh

0101100
+173 4 -166 4 +161 16 +156 4 -151 4 -146 4 -141 4 -134 4 +131 4 -128 4 
+100 0 -72 0 -69 38 -66 4 -59 4 -55 4 -52 38 -50 38 +47 0 +44 0 
+41 0 +38 0 +35 0 -28 4 -25 4 -22 4 +15 4 -11 4 +8 4 +5 4 
+3 56 *
So

0100000
+2 0 *

+1 1 