
CASCADE Topology V1, (c) Matra-Datavision
Locations 11
1
1.000000000000000 0.000000000000000 0.000000000000000 0.000000000000000 
0.000000000000000 1.000000000000000 0.000000000000000 0.000000000000000 
0.000000000000000 0.000000000000000 1.000000000000000 0.000000000000000 
1
1.000000000000000 0.000000000000000 0.000000000000000 0.000000000000000 
0.000000000000000 1.000000000000000 0.000000000000000 0.000000000000000 
0.000000000000000 0.000000000000000 1.000000000000000 0.000000000000000 
1
1.000000000000000 0.000000000000000 0.000000000000000 0.000000000000000 
0.000000000000000 1.000000000000000 0.000000000000000 0.000000000000000 
0.000000000000000 0.000000000000000 1.000000000000000 0.000000000000000 
2  2 1 3 -1 0
1
1.000000000000000 0.000000000000000 0.000000000000000 -0.000000000000000 
0.000000000000000 1.000000000000000 0.000000000000000 128.000000000000000 
0.000000000000000 0.000000000000000 1.000000000000000 0.000000000000028 
1
1.000000000000000 0.000000000000000 0.000000000000000 0.000000000000000 
0.000000000000000 1.000000000000000 0.000000000000000 -256.000000000000000 
0.000000000000000 0.000000000000000 1.000000000000000 -0.000000000000057 
2  5 1 6 1 0
2  5 1 2 1 3 -1 0
2  6 -1 5 -1 0
2  5 -1 0
2  5 1 6 1 2 1 3 -1 0
Curve2ds 124
1 1.57079632679489656 0.00000000000000000 0.00000000000000000 -1.00000000000000000 
1 0.00000000000000000 -0.29999999999999893 1.00000000000000000 0.00000000000000000 
1 0.00000000000000000 -0.30000000000000071 -1.00000000000000000 0.00000000000000000 
1 0.00000000000000000 0.00000000000000000 0.00000000000000000 -1.00000000000000000 
1 0.00000000000000000 0.00000000000000000 1.00000000000000000 0.00000000000000000 
1 0.00000000000000000 -0.30000000000000071 -1.00000000000000000 0.00000000000000000 
1 0.00000000000000000 -0.30000000000000071 1.00000000000000000 0.00000000000000000 
1 -0.39999999999999991 0.00000000000000009 1.00000000000000000 0.00000000000000000 
1 -0.39999999999999991 -256.00000000000000000 1.00000000000000000 0.00000000000000000 
1 14.59999999999999964 -0.00000000000000324 0.00000000000000000 -1.00000000000000000 
2 7.59999999999997300 -248.00000000000000000 0.00000000000000022 1.00000000000000000 -1.00000000000000000 0.00000000000000022 1.69999999999999996
1 0.00000000000000000 -248.54312911515273754 1.00000000000000000 0.00000000000000000 
2 7.59999999999999964 -128.00000000000000000 0.00000000000000022 1.00000000000000000 -1.00000000000000000 0.00000000000000022 1.69999999999999996
1 0.00000000000000000 -248.54312911515273754 1.00000000000000000 0.00000000000000000 
2 7.60000000000002629 -8.00000000000000178 0.00000000000000022 1.00000000000000000 -1.00000000000000000 0.00000000000000022 1.69999999999999996
1 0.00000000000000000 -248.54312911515273754 1.00000000000000000 0.00000000000000000 
1 0.00000000000000000 0.00000000000000000 0.00000000000000000 -1.00000000000000000 
1 -0.00000000000000007 -0.29999999999999999 1.00000000000000000 0.00000000000000000 
1 0.00000000000000007 -0.29999999999999988 -1.00000000000000000 0.00000000000000000 
1 22.20000000000000284 0.00000000000000000 0.00000000000000000 -1.00000000000000000 
1 0.00000000000000000 256.00000000000000000 1.00000000000000000 0.00000000000000000 
1 0.00000000000000000 0.00000000000000000 1.00000000000000000 0.00000000000000000 
1 0.00000000000000000 -256.00000000000000000 1.00000000000000000 0.00000000000000000 
1 6.28318530717958623 0.00000000000000000 -1.00000000000000000 0.00000000000000000 
1 0.00000000000000000 0.00000000000000000 1.00000000000000000 0.00000000000000000 
6 0 1 15.00000000000000000 -0.30000000000000071  15.00000000000000000 0.00000000000000000  
1 -0.39999999999999991 0.00000000000000009 1.00000000000000000 0.00000000000000000 
1 0.00000000000000000 0.00000000000000000 1.00000000000000000 0.00000000000000000 
6 0 1 0.00000000000000000 -0.30000000000000071  0.00000000000000000 0.00000000000000000  
6 0 1 0.39999999999999991 -0.30000000000000071  0.39999999999999991 0.00000000000000000  
8 0.00000000000000000 1.00000000000000000
1 1.57079632679489656 0.00000000000000000 0.00000000000000000 1.00000000000000000 
6 0 1 -0.39999999999999991 -0.30000000000000071  -0.39999999999999991 0.00000000000000000  
6 0 1 -256.00000000000000000 -0.30000000000000071  -256.00000000000000000 0.00000000000000000  
8 0.00000000000000000 1.00000000000000000
1 4.71238898038468967 0.00000000000000000 0.00000000000000000 1.00000000000000000 
1 -0.39999999999999991 -256.00000000000000000 1.00000000000000000 0.00000000000000000 
1 0.00000000000000000 0.00000000000000000 -1.00000000000000000 0.00000000000000000 
6 0 1 -15.00000000000000000 -0.30000000000000071  -15.00000000000000000 0.00000000000000000  
1 14.59999999999999964 -0.00000000000000324 0.00000000000000000 -1.00000000000000000 
1 0.00000000000000000 0.00000000000000000 0.00000000000000000 -1.00000000000000000 
1 6.28318530717958623 0.00000000000000000 0.00000000000000000 -1.00000000000000000 
2 7.59999999999997300 -248.00000000000000000 0.00000000000000022 1.00000000000000000 -1.00000000000000000 0.00000000000000022 1.69999999999999996
1 0.00000000000000000 -248.84312911515274891 1.00000000000000000 0.00000000000000000 
1 0.00000000000000000 0.00000000000000000 0.00000000000000000 -1.00000000000000000 
1 6.28318530717958623 0.00000000000000000 0.00000000000000000 -1.00000000000000000 
2 7.59999999999999964 -128.00000000000000000 0.00000000000000022 1.00000000000000000 -1.00000000000000000 0.00000000000000022 1.69999999999999996
1 0.00000000000000000 -248.84312911515274891 1.00000000000000000 0.00000000000000000 
1 0.00000000000000000 0.00000000000000000 0.00000000000000000 -1.00000000000000000 
1 6.28318530717958623 0.00000000000000000 0.00000000000000000 -1.00000000000000000 
2 7.60000000000002629 -8.00000000000000178 0.00000000000000022 1.00000000000000000 -1.00000000000000000 0.00000000000000022 1.69999999999999996
1 0.00000000000000000 -248.84312911515274891 1.00000000000000000 0.00000000000000000 
1 6.28318530717958623 0.00000000000000000 0.00000000000000000 -1.00000000000000000 
1 -0.00000000000000007 -0.30000000000000032 1.00000000000000000 0.00000000000000000 
1 0.00000000000000007 -0.29999999999999999 -1.00000000000000000 0.00000000000000000 
1 0.00000000000000000 0.00000000000000000 0.00000000000000000 -1.00000000000000000 
1 0.00000000000000000 0.00000000000000000 1.00000000000000000 0.00000000000000000 
1 0.00000000000000000 -0.29999999999999999 -1.00000000000000000 0.00000000000000000 
1 0.00000000000000000 -0.29999999999999999 1.00000000000000000 0.00000000000000000 
1 -0.40000000000000036 0.00000000000000000 1.00000000000000000 0.00000000000000000 
1 -0.40000000000000036 -256.00000000000000000 1.00000000000000000 0.00000000000000000 
1 0.00000000000000000 1.00000000000000000 1.00000000000000000 0.00000000000000000 
1 0.00000000000000000 0.00000000000000000 0.00000000000000000 1.00000000000000000 
6 0 1 0.00000000000000000 -0.29999999999999988  0.00000000000000000 0.00000000000000000  
1 6.28318530717958623 0.00000000000000000 0.00000000000000000 1.00000000000000000 
7 0 0  1 2 2  -256.00000000000000000 -0.30000000000000004  -256.00000000000000000 -0.00000000000000006 
 0.00000000000000000 2 1.00000000000000000 2
1 6.28318530717958623 1.00000000000000000 -1.00000000000000000 0.00000000000000000 
1 0.00000000000000000 0.00000000000000000 0.00000000000000000 -1.00000000000000000 
1 0.00000000000000000 0.00000000000000000 -1.00000000000000000 0.00000000000000000 
8 0.00000000000000000 256.00000000000000000
1 1.57079632679489656 0.00000000000000000 0.00000000000000000 -1.00000000000000000 
1 4.71238898038468967 0.00000000000000000 0.00000000000000000 -1.00000000000000000 
1 -0.00000000000000000 -0.30000000000000071 1.00000000000000000 0.00000000000000000 
1 -0.00000000000000000 -0.29999999999999893 -1.00000000000000000 0.00000000000000000 
1 14.59999999999999964 0.00000000000000324 0.00000000000000000 -1.00000000000000000 
1 -4.71238898038468967 256.00000000000000000 1.00000000000000000 0.00000000000000000 
1 0.00000000000000000 0.00000000000000000 1.00000000000000000 0.00000000000000000 
1 0.00000000000000000 -256.00000000000000000 1.00000000000000000 0.00000000000000000 
1 6.28318530717958623 0.00000000000000000 -1.00000000000000000 0.00000000000000000 
1 0.00000000000000000 0.00000000000000000 1.00000000000000000 0.00000000000000000 
1 -0.40000000000000036 0.00000000000000000 1.00000000000000000 0.00000000000000000 
1 0.00000000000000000 0.00000000000000000 1.00000000000000000 0.00000000000000000 
6 0 1 0.40000000000000036 -0.29999999999999999  0.40000000000000036 0.00000000000000000  
6 0 1 0.00000000000000000 -0.29999999999999999  0.00000000000000000 0.00000000000000000  
8 0.00000000000000000 1.00000000000000000
1 6.28318530717958623 0.00000000000000000 0.00000000000000000 1.00000000000000000 
6 0 1 -0.40000000000000036 -0.29999999999999999  -0.40000000000000036 0.00000000000000000  
6 0 1 -256.00000000000000000 -0.29999999999999999  -256.00000000000000000 0.00000000000000000  
8 0.00000000000000000 1.00000000000000000
1 0.00000000000000000 0.00000000000000000 0.00000000000000000 1.00000000000000000 
1 -0.40000000000000036 -256.00000000000000000 1.00000000000000000 0.00000000000000000 
1 0.00000000000000000 0.00000000000000000 -1.00000000000000000 0.00000000000000000 
1 0.00000000000000000 0.00000000000000000 -1.00000000000000000 0.00000000000000000 
1 0.00000000000000000 0.00000000000000000 0.00000000000000000 -1.00000000000000000 
1 0.00000000000000000 0.00000000000000000 1.00000000000000000 0.00000000000000000 
1 0.00000000000000000 -0.30000000000000071 -1.00000000000000000 0.00000000000000000 
1 0.00000000000000000 -0.30000000000000071 1.00000000000000000 0.00000000000000000 
1 0.00000000000000000 0.00000000000000000 1.00000000000000000 0.00000000000000000 
1 0.00000000000000000 -256.00000000000000000 1.00000000000000000 0.00000000000000000 
2 7.00000000000002665 -248.00000000000000000 -0.00000000000000022 1.00000000000000000 1.00000000000000000 0.00000000000000022 1.69999999999999996
1 0.00000000000000000 -271.54312911515273754 1.00000000000000000 0.00000000000000000 
2 6.99999999999997335 -7.99999999999999822 -0.00000000000000022 1.00000000000000000 1.00000000000000000 0.00000000000000022 1.69999999999999996
1 0.00000000000000000 -271.54312911515273754 1.00000000000000000 0.00000000000000000 
2 7.00000000000000000 -128.00000000000000000 -0.00000000000000022 1.00000000000000000 1.00000000000000000 0.00000000000000022 1.69999999999999996
1 0.00000000000000000 -271.54312911515273754 1.00000000000000000 0.00000000000000000 
1 0.00000000000000000 1.00000000000000000 1.00000000000000000 0.00000000000000000 
1 4.71238898038468967 0.00000000000000000 0.00000000000000000 1.00000000000000000 
6 0 1 0.00000000000000000 -0.29999999999999893  0.00000000000000000 0.00000000000000000  
1 1.57079632679489656 0.00000000000000000 0.00000000000000000 1.00000000000000000 
7 0 0  1 2 2  -256.00000000000000000 -0.30000000000000071  -256.00000000000000000 0.00000000000000178 
 0.00000000000000000 2 1.00000000000000000 2
1 6.28318530717958623 1.00000000000000000 -1.00000000000000000 0.00000000000000000 
1 0.00000000000000000 0.00000000000000000 0.00000000000000000 -1.00000000000000000 
1 0.00000000000000000 0.00000000000000000 -1.00000000000000000 0.00000000000000000 
8 0.00000000000000000 256.00000000000000000
1 6.28318530717958623 0.00000000000000000 0.00000000000000000 -1.00000000000000000 
6 0 1 0.00000000000000000 -0.30000000000000071  0.00000000000000000 0.00000000000000000  
1 0.00000000000000000 0.00000000000000000 0.00000000000000000 -1.00000000000000000 
6 0 1 0.00000000000000000 -0.30000000000000071  0.00000000000000000 0.00000000000000000  
1 0.00000000000000000 0.00000000000000000 1.00000000000000000 0.00000000000000000 
1 0.00000000000000000 0.00000000000000000 1.00000000000000000 0.00000000000000000 
1 0.00000000000000000 -256.00000000000000000 1.00000000000000000 0.00000000000000000 
1 0.00000000000000000 0.00000000000000000 -1.00000000000000000 0.00000000000000000 
2 7.00000000000002665 -248.00000000000000000 -0.00000000000000022 1.00000000000000000 1.00000000000000000 0.00000000000000022 1.69999999999999996
1 0.00000000000000000 -271.24312911515272617 1.00000000000000000 0.00000000000000000 
2 6.99999999999997335 -7.99999999999999822 -0.00000000000000022 1.00000000000000000 1.00000000000000000 0.00000000000000022 1.69999999999999996
1 0.00000000000000000 -271.24312911515272617 1.00000000000000000 0.00000000000000000 
2 7.00000000000000000 -128.00000000000000000 -0.00000000000000022 1.00000000000000000 1.00000000000000000 0.00000000000000022 1.69999999999999996
1 0.00000000000000000 -271.24312911515272617 1.00000000000000000 0.00000000000000000 
1 0.00000000000000000 0.00000000000000000 -1.00000000000000000 0.00000000000000000 
1 14.59999999999999964 0.00000000000000324 0.00000000000000000 -1.00000000000000000 
Curves 54
1 11.50000000000000000 128.00000000000000000 -0.39999999999997149 0.00000000000000000 -1.00000000000000000 -0.00000000000000022 
1 11.50000000000000000 0.00000000000000000 0.00000000000000000 0.00000000000000000 0.00000000000000022 -1.00000000000000000 
1 11.50000000000000000 128.00000000000000000 -14.99999999999997158 0.00000000000000000 -1.00000000000000000 -0.00000000000000022 
2 11.50000000000000000 -120.00000000000000000 -8.00000000000000000 1.00000000000000000 0.00000000000000000 0.00000000000000000 -0.00000000000000000 1.00000000000000000 0.00000000000000000 0.00000000000000000 -0.00000000000000000 1.00000000000000000 1.69999999999999996
2 11.50000000000000000 0.00000000000000000 -8.00000000000000000 1.00000000000000000 0.00000000000000000 0.00000000000000000 -0.00000000000000000 1.00000000000000000 0.00000000000000000 0.00000000000000000 -0.00000000000000000 1.00000000000000000 1.69999999999999996
2 11.50000000000000000 120.00000000000000000 -8.00000000000000000 1.00000000000000000 0.00000000000000000 0.00000000000000000 -0.00000000000000000 1.00000000000000000 0.00000000000000000 0.00000000000000000 -0.00000000000000000 1.00000000000000000 1.69999999999999996
1 11.10000000000000142 128.00000000000000000 0.00000000000002842 0.00000000000000000 -1.00000000000000000 -0.00000000000000022 
2 11.10000000000000142 0.00000000000000000 -0.39999999999999991 -0.00000000000000000 1.00000000000000000 0.00000000000000022 0.00000000000000000 -0.00000000000000022 1.00000000000000000 1.00000000000000000 0.00000000000000000 0.00000000000000000 0.40000000000000002
6 0 1 11.50000000000000000 128.00000000000000000 -14.99999999999997158  11.19999999999999929 128.00000000000000000 -14.99999999999997158  
1 11.19999999999999929 128.00000000000000000 0.00000000000002842 0.00000000000000000 0.00000000000000022 -1.00000000000000000 
6 0 1 11.50000000000000000 128.00000000000000000 -0.39999999999997149  11.19999999999999929 128.00000000000000000 -0.39999999999997149  
6 0 1 11.50000000000000000 -128.00000000000000000 -0.40000000000002833  11.19999999999999929 -128.00000000000000000 -0.40000000000002833  
1 11.19999999999999929 -128.00000000000000000 -0.00000000000002842 0.00000000000000000 0.00000000000000022 -1.00000000000000000 
6 0 1 11.50000000000000000 -128.00000000000000000 -15.00000000000002842  11.19999999999999929 -128.00000000000000000 -15.00000000000002842  
1 11.19999999999999929 128.00000000000000000 -14.99999999999997158 0.00000000000000000 -1.00000000000000000 -0.00000000000000022 
1 260.04312911515273754 -118.29999999999999716 -8.00000000000000000 -1.00000000000000000 -0.00000000000000000 -0.00000000000000000 
2 11.19999999999998863 -120.00000000000000000 -8.00000000000000000 1.00000000000000000 0.00000000000000000 0.00000000000000000 -0.00000000000000000 1.00000000000000000 0.00000000000000000 0.00000000000000000 -0.00000000000000000 1.00000000000000000 1.69999999999999996
1 260.04312911515273754 1.69999999999999996 -8.00000000000000000 -1.00000000000000000 -0.00000000000000000 -0.00000000000000000 
2 11.19999999999998863 0.00000000000000000 -8.00000000000000000 1.00000000000000000 0.00000000000000000 0.00000000000000000 -0.00000000000000000 1.00000000000000000 0.00000000000000000 0.00000000000000000 -0.00000000000000000 1.00000000000000000 1.69999999999999996
1 260.04312911515273754 121.70000000000000284 -8.00000000000000000 -1.00000000000000000 -0.00000000000000000 -0.00000000000000000 
2 11.19999999999998863 120.00000000000000000 -8.00000000000000000 1.00000000000000000 0.00000000000000000 0.00000000000000000 -0.00000000000000000 1.00000000000000000 0.00000000000000000 0.00000000000000000 -0.00000000000000000 1.00000000000000000 1.69999999999999996
1 -11.09999999999999964 128.00000000000000000 0.00000000000002842 0.00000000000000000 -1.00000000000000000 -0.00000000000000022 
1 -11.50000000000000000 0.00000000000000000 0.00000000000000000 1.00000000000000000 0.00000000000000000 0.00000000000000000 
2 11.10000000000000142 128.00000000000000000 -0.39999999999997149 -0.00000000000000000 1.00000000000000000 0.00000000000000022 0.00000000000000000 -0.00000000000000022 1.00000000000000000 1.00000000000000000 0.00000000000000000 0.00000000000000000 0.10000000000000003
6 0 1 11.10000000000000142 128.00000000000000000 0.00000000000002842  11.10000000000000142 128.00000000000000000 -0.29999999999997146  
7 0 0  1 2 2  11.09999999999999964 -128.00000000000000000 -0.00000000000002828  11.10000000000000320 -128.00000000000000000 -0.30000000000002824 
 0.00000000000000000 2 1.00000000000000000 2
2 11.10000000000000142 -128.00000000000000000 -0.40000000000002833 -0.00000000000000000 1.00000000000000000 0.00000000000000022 0.00000000000000000 -0.00000000000000022 1.00000000000000000 1.00000000000000000 0.00000000000000000 0.00000000000000000 0.10000000000000003
1 11.19999999999999929 128.00000000000000000 -0.39999999999997149 0.00000000000000000 -1.00000000000000000 -0.00000000000000022 
1 -11.50000000000000000 128.00000000000000000 -0.39999999999997193 0.00000000000000000 -1.00000000000000000 -0.00000000000000022 
2 -11.10000000000000142 -0.00000000000000255 -0.40000000000000036 0.00000000000000000 1.00000000000000000 0.00000000000000022 0.00000000000000022 -0.00000000000000022 1.00000000000000000 1.00000000000000000 0.00000000000000000 -0.00000000000000022 0.40000000000000002
1 -11.50000000000000000 128.00000000000000000 -0.29999999999997157 1.00000000000000000 0.00000000000000000 0.00000000000000000 
6 0 1 -11.09999999999999964 128.00000000000000000 0.00000000000002842  -11.09999999999999964 128.00000000000000000 -0.29999999999997157  
6 0 1 -11.09999999999999964 -128.00000000000000000 -0.00000000000002842  -11.09999999999999964 -128.00000000000000000 -0.30000000000002841  
1 -11.50000000000000000 -128.00000000000000000 -0.30000000000002841 1.00000000000000000 0.00000000000000000 0.00000000000000000 
1 11.10000000000000142 128.00000000000000000 -0.29999999999997146 0.00000000000000000 -1.00000000000000000 -0.00000000000000022 
1 -11.50000000000000000 128.00000000000000000 -14.99999999999997158 0.00000000000000000 -1.00000000000000000 -0.00000000000000022 
1 -11.50000000000000000 0.00000000000000333 -15.00000000000000000 0.00000000000000000 -0.00000000000000022 1.00000000000000000 
2 -11.50000000000000000 -120.00000000000000000 -8.00000000000000000 1.00000000000000000 0.00000000000000000 0.00000000000000000 -0.00000000000000000 1.00000000000000000 0.00000000000000000 0.00000000000000000 -0.00000000000000000 1.00000000000000000 1.69999999999999996
2 -11.50000000000000000 120.00000000000000000 -8.00000000000000000 1.00000000000000000 0.00000000000000000 0.00000000000000000 -0.00000000000000000 1.00000000000000000 0.00000000000000000 0.00000000000000000 -0.00000000000000000 1.00000000000000000 1.69999999999999996
2 -11.50000000000000000 0.00000000000000000 -8.00000000000000000 1.00000000000000000 0.00000000000000000 0.00000000000000000 -0.00000000000000000 1.00000000000000000 0.00000000000000000 0.00000000000000000 -0.00000000000000000 1.00000000000000000 1.69999999999999996
2 -11.10000000000000142 128.00000000000000000 -0.39999999999997193 0.00000000000000000 1.00000000000000000 0.00000000000000022 0.00000000000000022 -0.00000000000000022 1.00000000000000000 1.00000000000000000 0.00000000000000000 -0.00000000000000022 0.10000000000000003
6 0 1 -11.50000000000000000 128.00000000000000000 -0.39999999999997193  -11.20000000000000107 128.00000000000000000 -0.39999999999997193  
7 0 0  1 2 2  -11.50000000000000178 -128.00000000000000000 -0.40000000000002867  -11.19999999999999929 -128.00000000000000000 -0.40000000000002867 
 0.00000000000000000 2 1.00000000000000000 2
2 -11.10000000000000142 -128.00000000000000000 -0.40000000000002878 0.00000000000000000 1.00000000000000000 0.00000000000000022 0.00000000000000022 -0.00000000000000022 1.00000000000000000 1.00000000000000000 0.00000000000000000 -0.00000000000000022 0.10000000000000003
1 -11.09999999999999964 128.00000000000000000 -0.29999999999997157 0.00000000000000000 -1.00000000000000000 -0.00000000000000022 
6 0 1 -11.50000000000000000 128.00000000000000000 -14.99999999999997158  -11.19999999999999929 128.00000000000000000 -14.99999999999997158  
1 -11.19999999999999929 128.00000000000000000 -14.99999999999997158 0.00000000000000000 -1.00000000000000000 -0.00000000000000022 
6 0 1 -11.50000000000000000 -128.00000000000000000 -15.00000000000002842  -11.19999999999999929 -128.00000000000000000 -15.00000000000002842  
1 -11.19999999999999929 128.00000000000000000 -14.99999999999997158 0.00000000000000000 -0.00000000000000022 1.00000000000000000 
1 -11.19999999999999929 -128.00000000000000000 -15.00000000000002842 0.00000000000000000 -0.00000000000000022 1.00000000000000000 
2 -11.19999999999998863 -120.00000000000000000 -8.00000000000000000 1.00000000000000000 0.00000000000000000 0.00000000000000000 -0.00000000000000000 1.00000000000000000 0.00000000000000000 0.00000000000000000 -0.00000000000000000 1.00000000000000000 1.69999999999999996
2 -11.19999999999998863 120.00000000000000000 -8.00000000000000000 1.00000000000000000 0.00000000000000000 0.00000000000000000 -0.00000000000000000 1.00000000000000000 0.00000000000000000 0.00000000000000000 -0.00000000000000000 1.00000000000000000 1.69999999999999996
2 -11.19999999999998863 0.00000000000000000 -8.00000000000000000 1.00000000000000000 0.00000000000000000 0.00000000000000000 -0.00000000000000000 1.00000000000000000 0.00000000000000000 0.00000000000000000 -0.00000000000000000 1.00000000000000000 1.69999999999999996
1 -11.20000000000000107 128.00000000000000000 -0.39999999999997193 -0.00000000000000000 -1.00000000000000000 -0.00000000000000022 
Polygon3D 0
PolygonOnTriangulations 0
Surfaces 38
1 11.50000000000000000 128.00000000000000000 -0.39999999999997149 1.00000000000000000 0.00000000000000000 0.00000000000000000 0.00000000000000000 0.00000000000000022 -1.00000000000000000 -0.00000000000000000 1.00000000000000000 0.00000000000000022 
2 11.10000000000000142 128.00000000000000000 -0.39999999999997149 -0.00000000000000000 1.00000000000000000 0.00000000000000022 0.00000000000000000 -0.00000000000000022 1.00000000000000000 1.00000000000000000 0.00000000000000000 0.00000000000000000 0.40000000000000002
1 11.20000000000000107 128.00000000000000000 -0.39999999999997149 0.00000000000000000 0.00000000000000022 -1.00000000000000000 0.00000000000000000 -1.00000000000000000 -0.00000000000000022 -1.00000000000000000 0.00000000000000000 -0.00000000000000000 
1 11.19999999999999929 128.00000000000000000 -0.39999999999997149 0.00000000000000000 -0.00000000000000022 1.00000000000000000 -0.00000000000000000 1.00000000000000000 0.00000000000000022 -1.00000000000000000 -0.00000000000000000 0.00000000000000000 
1 11.50000000000000000 0.00000000000000000 0.00000000000000000 1.00000000000000000 0.00000000000000000 0.00000000000000000 0.00000000000000000 0.00000000000000022 -1.00000000000000000 -0.00000000000000000 1.00000000000000000 0.00000000000000022 
1 11.19999999999999929 -128.00000000000000000 -0.00000000000002842 -0.00000000000000000 -1.00000000000000000 -0.00000000000000022 -0.00000000000000000 -0.00000000000000022 1.00000000000000000 -1.00000000000000000 0.00000000000000000 0.00000000000000000 
1 11.19999999999999929 128.00000000000000000 0.00000000000002842 0.00000000000000000 1.00000000000000000 0.00000000000000022 0.00000000000000000 0.00000000000000022 -1.00000000000000000 -1.00000000000000000 0.00000000000000000 0.00000000000000000 
2 260.04312911515273754 -120.00000000000000000 -8.00000000000000000 1.00000000000000000 0.00000000000000000 0.00000000000000000 -0.00000000000000000 1.00000000000000000 0.00000000000000000 0.00000000000000000 -0.00000000000000000 1.00000000000000000 1.69999999999999996
2 260.04312911515273754 0.00000000000000000 -8.00000000000000000 1.00000000000000000 0.00000000000000000 0.00000000000000000 -0.00000000000000000 1.00000000000000000 0.00000000000000000 0.00000000000000000 -0.00000000000000000 1.00000000000000000 1.69999999999999996
2 260.04312911515273754 120.00000000000000000 -8.00000000000000000 1.00000000000000000 0.00000000000000000 0.00000000000000000 -0.00000000000000000 1.00000000000000000 0.00000000000000000 0.00000000000000000 -0.00000000000000000 1.00000000000000000 1.69999999999999996
1 -11.09999999999999964 128.00000000000000000 0.00000000000002842 0.00000000000000000 -0.00000000000000022 1.00000000000000000 1.00000000000000000 0.00000000000000000 0.00000000000000000 -0.00000000000000000 1.00000000000000000 0.00000000000000022 
1 11.10000000000000320 128.00000000000000000 -0.29999999999997157 1.00000000000000000 -0.00000000000000000 0.00000000000000592 0.00000000000000000 -1.00000000000000000 -0.00000000000000022 0.00000000000000592 0.00000000000000022 -1.00000000000000000 
1 11.10000000000000142 128.00000000000000000 -0.29999999999997146 -1.00000000000000000 0.00000000000000000 -0.00000000000000000 0.00000000000000000 1.00000000000000000 0.00000000000000022 0.00000000000000000 0.00000000000000022 -1.00000000000000000 
2 11.10000000000000142 -256.00000000000000000 -0.40000000000005675 -0.00000000000000000 1.00000000000000000 0.00000000000000022 0.00000000000000000 -0.00000000000000022 1.00000000000000000 1.00000000000000000 0.00000000000000000 0.00000000000000000 0.40000000000000002
9 0 0 0 0 7 1 8 2 2 2 11.49999999999999289 -127.99999999999991473 -0.40000000000002822  11.19999999999999574 -127.99999999999991473 -0.40000000000002800  
11.50000000000007638 -128.00000000000113687 -0.31024020989746465  11.20000000000010942 -128.00000000000113687 -0.37756005247439089  
11.47650044537920877 -127.99999999999728573 -0.22048085400664522  11.19412511134460608 -127.99999999999728573 -0.35512021350167383  
11.42950508888102057 -128.00000000000372324 -0.13810122367084982  11.18237627222053554 -128.00000000000372324 -0.33452530591774599  
11.36189877632913259 -127.99999999999698730 -0.07049491111914440  11.16547469408206084 -127.99999999999698730 -0.31762372777979703  
11.27951914599337080 -128.00000000000147793 -0.02349955462068514  11.14487978649845346 -128.00000000000147793 -0.30587488865519757  
11.18975979010258648 -127.99999999999965894 -0.00000000000002798  11.12243994752561882 -127.99999999999965894 -0.30000000000002691  
11.09999999999999964 -128.00000000000000000 -0.00000000000002828  11.10000000000000320 -128.00000000000000000 -0.30000000000002824  

4.71238898038468967 8
6.28318530717958623 8

0.00000000000000000 2
1.00000000000000000 2

9 0 0 0 0 7 1 8 2 2 2 11.10000000000000142 128.00000000000000000 0.00000000000002853  11.09999999999999964 128.00000000000000000 -0.29999999999997151  
11.18975979010259536 128.00000000000028422 0.00000000000002776  11.12243994752566856 128.00000000000028422 -0.29999999999997234  
11.27951914599323047 127.99999999999843681 -0.02349955462062374  11.14487978649820654 127.99999999999843681 -0.30587488865513013  
11.36189877632947542 128.00000000000292744 -0.07049491111909637  11.16547469408257776 128.00000000000292744 -0.31762372777976045  
11.42950508888059069 127.99999999999720046 -0.13810122367078256  11.18237627221995290 127.99999999999720046 -0.33452530591766755  
11.47650044537952319 128.00000000000159162 -0.22048085400659537  11.19412511134497912 128.00000000000159162 -0.35512021350163020  
11.49999999999994849 127.99999999999954525 -0.31024020989740503  11.19999999999996909 127.99999999999954525 -0.37756005247432944  
11.50000000000000178 128.00000000000000000 -0.39999999999997149  11.19999999999999929 128.00000000000000000 -0.39999999999997154  

0.00000000000000000 8
1.57079632679489656 8

0.00000000000000000 2
1.00000000000000000 2

1 11.19999999999999929 128.00000000000000000 -14.99999999999997158 0.00000000000000000 0.00000000000000022 -1.00000000000000000 0.00000000000000000 -1.00000000000000000 -0.00000000000000022 -1.00000000000000000 0.00000000000000000 -0.00000000000000000 
1 11.19999999999999929 128.00000000000000000 -0.39999999999997149 1.00000000000000000 0.00000000000000000 0.00000000000000000 0.00000000000000000 0.00000000000000022 -1.00000000000000000 -0.00000000000000000 1.00000000000000000 0.00000000000000022 
2 -11.10000000000000142 128.00000000000000000 -0.39999999999997193 0.00000000000000000 1.00000000000000000 0.00000000000000022 0.00000000000000022 -0.00000000000000022 1.00000000000000000 1.00000000000000000 0.00000000000000000 -0.00000000000000022 0.40000000000000002
1 -11.10000000000000142 128.00000000000000000 -0.29999999999997190 1.00000000000000000 0.00000000000000000 -0.00000000000000592 -0.00000000000000000 -1.00000000000000000 -0.00000000000000022 -0.00000000000000592 0.00000000000000022 -1.00000000000000000 
1 -11.09999999999999964 128.00000000000000000 -0.29999999999997157 -1.00000000000000000 0.00000000000000000 -0.00000000000000000 0.00000000000000000 1.00000000000000000 0.00000000000000022 0.00000000000000000 0.00000000000000022 -1.00000000000000000 
1 -11.50000000000000000 0.00000000000000000 0.00000000000000000 0.00000000000000000 -0.00000000000000022 1.00000000000000000 1.00000000000000000 0.00000000000000000 0.00000000000000000 -0.00000000000000000 1.00000000000000000 0.00000000000000022 
1 -11.50000000000000000 -128.00000000000000000 -0.30000000000002841 0.00000000000000000 -1.00000000000000000 0.00000000000000000 -1.00000000000000000 0.00000000000000000 0.00000000000000000 -0.00000000000000000 -0.00000000000000000 -1.00000000000000000 
1 -11.50000000000000000 128.00000000000000000 -0.29999999999997157 -0.00000000000000000 1.00000000000000000 0.00000000000000000 1.00000000000000000 0.00000000000000000 0.00000000000000000 0.00000000000000000 0.00000000000000000 -1.00000000000000000 
2 11.10000000000000142 128.00000000000000000 -0.39999999999997149 -0.00000000000000000 1.00000000000000000 0.00000000000000022 0.00000000000000000 -0.00000000000000022 1.00000000000000000 1.00000000000000000 0.00000000000000000 0.00000000000000000 0.10000000000000003
1 -11.50000000000000000 128.00000000000000000 -14.99999999999997158 -1.00000000000000000 -0.00000000000000000 0.00000000000000000 0.00000000000000000 -0.00000000000000022 1.00000000000000000 0.00000000000000000 1.00000000000000000 0.00000000000000022 
1 -11.19999999999999929 128.00000000000000000 -0.39999999999997193 0.00000000000000000 -0.00000000000000022 1.00000000000000000 0.00000000000000000 -1.00000000000000000 -0.00000000000000022 1.00000000000000000 0.00000000000000000 0.00000000000000000 
1 -11.20000000000000107 128.00000000000000000 -0.39999999999997193 0.00000000000000000 0.00000000000000022 -1.00000000000000000 0.00000000000000000 1.00000000000000000 0.00000000000000022 1.00000000000000000 -0.00000000000000000 0.00000000000000000 
2 -11.09999999999999964 -256.00000000000000000 -0.40000000000005698 0.00000000000000000 1.00000000000000000 0.00000000000000022 -1.00000000000000000 0.00000000000000000 0.00000000000000000 0.00000000000000000 -0.00000000000000022 1.00000000000000000 0.40000000000000002
9 0 0 0 0 7 1 8 2 2 2 -11.10000000000000142 -128.00000000000000000 -0.00000000000002875  -11.09999999999999964 -128.00000000000000000 -0.30000000000002869  
-11.18975979010257760 -128.00000000000028422 -0.00000000000002911  -11.12243994752568099 -128.00000000000028422 -0.30000000000002869  
-11.27951914599327310 -127.99999999999843681 -0.02349955462068228  -11.14487978649815503 -127.99999999999843681 -0.30587488865519114  
-11.36189877632940970 -128.00000000000292744 -0.07049491111915127  -11.16547469408267901 -128.00000000000292744 -0.31762372777981268  
-11.42950508888065286 -127.99999999999720046 -0.13810122367084263  -11.18237627221983743 -127.99999999999720046 -0.33452530591772850  
-11.47650044537948766 -128.00000000000159162 -0.22048085400665038  -11.19412511134505195 -128.00000000000159162 -0.35512021350168632  
-11.49999999999995559 -127.99999999999954525 -0.31024020989746309  -11.19999999999994422 -127.99999999999954525 -0.37756005247438684  
-11.50000000000000178 -128.00000000000000000 -0.40000000000002867  -11.19999999999999929 -128.00000000000000000 -0.40000000000002867  

0.00000000000000000 8
1.57079632679489656 8

0.00000000000000000 2
1.00000000000000000 2

9 0 0 0 0 7 1 8 2 2 2 -11.49999999999999467 127.99999999999991473 -0.39999999999997171  -11.19999999999999574 127.99999999999991473 -0.39999999999997166  
-11.50000000000009770 128.00000000000113687 -0.31024020989740830  -11.20000000000010054 128.00000000000113687 -0.37756005247433322  
-11.47650044537912706 127.99999999999728573 -0.22048085400658812  -11.19412511134460608 127.99999999999728573 -0.35512021350162160  
-11.42950508888115024 128.00000000000372324 -0.13810122367079469  -11.18237627222056929 128.00000000000372324 -0.33452530591768326  
-11.36189877632900824 127.99999999999698730 -0.07049491111908625  -11.16547469408199689 127.99999999999698730 -0.31762372777974651  
-11.27951914599344185 128.00000000000147793 -0.02349955462062978  -11.14487978649850497 128.00000000000147793 -0.30587488865513773  
-11.18975979010256339 127.99999999999965894 0.00000000000002872  -11.12243994752560106 127.99999999999965894 -0.29999999999997184  
-11.10000000000000142 128.00000000000000000 0.00000000000002809  -11.10000000000000320 128.00000000000000000 -0.29999999999997196  

4.71238898038468967 8
6.28318530717958623 8

0.00000000000000000 2
1.00000000000000000 2

1 -11.09999999999999964 128.00000000000000000 -0.29999999999997157 0.00000000000000000 -0.00000000000000022 1.00000000000000000 1.00000000000000000 0.00000000000000000 0.00000000000000000 -0.00000000000000000 1.00000000000000000 0.00000000000000022 
1 -11.50000000000000000 0.00000000000000333 -15.00000000000000000 -1.00000000000000000 -0.00000000000000000 0.00000000000000000 0.00000000000000000 -0.00000000000000022 1.00000000000000000 0.00000000000000000 1.00000000000000000 0.00000000000000022 
1 -11.19999999999999929 -128.00000000000000000 -15.00000000000002842 0.00000000000000000 -1.00000000000000000 -0.00000000000000022 -0.00000000000000000 0.00000000000000022 -1.00000000000000000 1.00000000000000000 0.00000000000000000 0.00000000000000000 
1 -11.19999999999999929 128.00000000000000000 -14.99999999999997158 -0.00000000000000000 1.00000000000000000 0.00000000000000022 0.00000000000000000 -0.00000000000000022 1.00000000000000000 1.00000000000000000 0.00000000000000000 0.00000000000000000 
2 -11.10000000000000142 128.00000000000000000 -0.39999999999997193 0.00000000000000000 1.00000000000000000 0.00000000000000022 0.00000000000000022 -0.00000000000000022 1.00000000000000000 1.00000000000000000 0.00000000000000000 -0.00000000000000022 0.10000000000000003
1 -11.19999999999999929 128.00000000000000000 -14.99999999999997158 0.00000000000000000 0.00000000000000022 -1.00000000000000000 0.00000000000000000 1.00000000000000000 0.00000000000000022 1.00000000000000000 -0.00000000000000000 0.00000000000000000 
1 -11.19999999999999929 128.00000000000000000 -14.99999999999997158 -1.00000000000000000 -0.00000000000000000 0.00000000000000000 0.00000000000000000 -0.00000000000000022 1.00000000000000000 0.00000000000000000 1.00000000000000000 0.00000000000000022 
Triangulations 0

TShapes 157
Ve
0.001000000000000
11.500000000000000 0.000000000000000 -0.400000000000000
0 0

0101101
*
Ed
 0.001000000000000 1 1 0
1  1 0 0.000000000000000 256.000000000000000
2  1 2 0 0.000000000000000 256.000000000000000
4 G1 1 0 2 0
2  2 3 0 0.000000000000000 256.000000000000000
2  3 4 0 0.000000000000000 256.000000000000000
2  4 1 0 0.000000000000000 256.000000000000000
0

0101000
+157 5 -157 7 *
Ve
0.001000000000000
11.500000000000000 0.000000000000003 -15.000000000000000
0 0

0101101
*
Ed
 0.001000000000000 1 1 0
2  5 5 0 0.400000000000000 15.000000000000000
1  2 0 0.400000000000000 15.000000000000000
2  6 6 9 0.400000000000000 15.000000000000000
2  7 7 10 0.400000000000000 15.000000000000000
2  8 1 10 0.400000000000000 15.000000000000000
2  9 1 9 0.400000000000000 15.000000000000000
0

0101000
+157 0 -155 0 *
Ed
 0.001000000000000 1 1 0
1  3 0 0.000000000000000 256.000000000000000
2  10 1 0 0.000000000000000 256.000000000000000
0

0101000
+155 5 -155 7 *
Wi

0101100
+156 4 -154 8 +154 11 -153 4 *
Ve
0.001000000000000
11.500000000000000 -118.299999999999997 -8.000000000000000
0 0

0101101
*
Ed
 0.001000000000000 1 1 0
1  4 0 0.000000000000000 6.283185307179586
2  11 1 4 0.000000000000000 6.283185307179586
2  12 8 0 0.000000000000000 6.283185307179586
0

0101100
+151 0 -151 0 *
Wi

0101100
-150 0 *
Ve
0.001000000000000
11.500000000000000 1.700000000000000 -8.000000000000000
0 0

0101101
*
Ed
 0.001000000000000 1 1 0
1  5 0 0.000000000000000 6.283185307179586
2  13 1 4 0.000000000000000 6.283185307179586
2  14 9 0 0.000000000000000 6.283185307179586
0

0101100
+148 0 -148 0 *
Wi

0101100
-147 0 *
Ve
0.001000000000000
11.500000000000000 121.700000000000003 -8.000000000000000
0 0

0101101
*
Ed
 0.001000000000000 1 1 0
1  6 0 0.000000000000000 6.283185307179586
2  15 1 4 0.000000000000000 6.283185307179586
2  16 10 0 0.000000000000000 6.283185307179586
0

0101100
+145 0 -145 0 *
Wi

0101100
-144 0 *
Fa
0  0.001000000000000 1 4

0101000
+152 0 +149 0 +146 0 +143 0 *
Ve
0.001000000000000
11.100000000000001 0.000000000000000 0.000000000000000
0 0

0101101
*
Ed
 0.001000000000000 1 1 0
1  7 0 0.000000000000000 256.000000000000000
2  17 2 0 0.000000000000000 256.000000000000000
4 G1 2 0 11 0
2  18 12 0 0.000000000000000 256.000000000000000
2  19 13 0 0.000000000000000 256.000000000000000
2  20 11 0 0.000000000000000 256.000000000000000
0

0101000
+141 5 -141 7 *
Ed
 0.000000100000000 1 1 0
2  21 14 0 0.000000000000000 1.570796326794897
1  8 0 0.000000000000000 1.570796326794897
2  22 2 10 0.000000000000000 1.570796326794897
2  23 2 9 0.000000000000000 1.570796326794897
2  24 15 9 0.000000000000000 1.570796326794897
2  25 16 10 0.000000000000000 1.570796326794897
0

0101000
+141 0 -157 0 *
Wi

0101100
+140 0 -156 0 -139 5 +139 7 *
Fa
0  0.000000100000000 2 0

0101000
+138 0 *
Ve
0.001000000000000
11.199999999999999 128.000000000000000 -14.999999999999972
0 0

0101101
*
Ed
 0.000000100000000 1 1 0
1  9 0 0.000000000000000 1.000000000000000
4 C0 17 0 7 0
2  26 7 0 0.000000000000000 1.000000000000000
0

0101000
+155 5 -136 0 *
Ve
0.001000000000000
11.199999999999999 128.000000000000000 -0.399999999999971
0 0

0101101
*
Ed
 0.001000000000000 1 1 0
2  27 18 0 0.400000000000000 15.000000000000000
1  10 0 0.400000000000000 15.000000000000000
2  28 7 0 0.400000000000000 15.000000000000000
0

0101000
+134 0 -136 0 *
Ed
 0.000000100000002 1 1 0
1  11 0 0.000000000000000 1.000000000000000
4 C0 4 0 7 0
2  29 4 0 0.000000000000000 1.000000000000000
2  30 7 0 0.000000000000000 1.000000000000000
2  31 16 0 0.000000000000000 1.000000000000000
0

0101000
+157 5 -134 0 *
Wi

0101100
+154 5 +135 0 -133 0 -132 0 *
Fa
0  0.000000100000000 7 0

0101000
+131 0 *
Ve
0.001000000000000
11.199999999999999 -128.000000000000000 -0.400000000000028
0 0

0101101
*
Ed
 0.000000100000002 1 1 0
1  12 0 0.000000000000000 1.000000000000000
4 C0 6 0 4 0
2  32 6 0 0.000000000000000 1.000000000000000
2  33 4 0 0.000000000000000 1.000000000000000
2  34 15 0 0.000000000000000 1.000000000000000
0

0101000
+157 7 -129 0 *
Ve
0.001000000000000
11.199999999999999 -128.000000000000000 -15.000000000000028
0 0

0101101
*
Ed
 0.001000000000000 1 1 0
2  35 18 0 0.400000000000000 15.000000000000000
1  13 0 0.400000000000000 15.000000000000000
2  36 6 0 0.400000000000000 15.000000000000000
0

0101000
+129 0 -127 0 *
Ed
 0.000000100000000 1 1 0
1  14 0 0.000000000000000 1.000000000000000
4 C0 17 0 6 0
2  37 6 0 0.000000000000000 1.000000000000000
0

0101000
+155 7 -127 0 *
Wi

0101100
-154 7 +128 0 +126 0 -125 0 *
Fa
0  0.000000100000000 6 0

0101000
+124 0 *
Ed
 0.001000000000000 1 1 0
2  38 18 0 0.000000000000000 256.000000000000000
1  15 0 0.000000000000000 256.000000000000000
0

0101000
+136 0 -127 0 *
Wi

0101000
+153 0 +125 0 -122 0 -135 0 *
Fa
0  0.000000100000000 17 0

0101000
+121 0 *
Ve
0.001000000000000
11.199999999999989 -118.299999999999997 -8.000000000000000
0 0

0101101
*
Ed
 0.000000100000000 1 1 0
1  16 0 248.543129115152738 248.843129115152749
3  39 40CN 8 0 248.543129115152738 248.843129115152749
0

0101000
+151 0 -119 0 *
Ed
 0.001000000000000 1 1 0
1  17 0 0.000000000000000 6.283185307179586
2  41 18 4 0.000000000000000 6.283185307179586
2  42 8 0 0.000000000000000 6.283185307179586
0

0101100
+119 0 -119 0 *
Wi

0101100
-150 0 -118 0 +117 0 +118 0 *
Fa
0  0.000000100000000 8 0

0101000
+116 0 *
Ve
0.001000000000000
11.199999999999989 1.700000000000000 -8.000000000000000
0 0

0101101
*
Ed
 0.000000100000000 1 1 0
1  18 0 248.543129115152738 248.843129115152749
3  43 44CN 9 0 248.543129115152738 248.843129115152749
0

0101000
+148 0 -114 0 *
Ed
 0.001000000000000 1 1 0
1  19 0 0.000000000000000 6.283185307179586
2  45 18 4 0.000000000000000 6.283185307179586
2  46 9 0 0.000000000000000 6.283185307179586
0

0101100
+114 0 -114 0 *
Wi

0101100
-147 0 -113 0 +112 0 +113 0 *
Fa
0  0.000000100000000 9 0

0101000
+111 0 *
Ve
0.001000000000000
11.199999999999989 121.700000000000003 -8.000000000000000
0 0

0101101
*
Ed
 0.000000100000000 1 1 0
1  20 0 248.543129115152738 248.843129115152749
3  47 48CN 10 0 248.543129115152738 248.843129115152749
0

0101000
+145 0 -109 0 *
Ed
 0.001000000000000 1 1 0
1  21 0 0.000000000000000 6.283185307179586
2  49 18 4 0.000000000000000 6.283185307179586
2  50 10 0 0.000000000000000 6.283185307179586
0

0101100
+109 0 -109 0 *
Wi

0101100
-144 0 -108 0 +107 0 +108 0 *
Fa
0  0.000000100000000 10 0

0101000
+106 0 *
Ve
0.001000000000000
-11.100000000000000 0.000000000000000 0.000000000000000
0 0

0101101
*
Ed
 0.001000000000000 1 1 0
1  22 0 0.000000000000000 256.000000000000000
2  51 19 0 0.000000000000000 256.000000000000000
4 G1 11 0 19 0
2  52 20 0 0.000000000000000 256.000000000000000
2  53 21 0 0.000000000000000 256.000000000000000
2  54 11 0 0.000000000000000 256.000000000000000
0

0101000
+104 5 -104 7 *
Ed
 0.001000000000000 1 1 0
2  55 22 0 0.400000000000000 22.600000000000001
1  23 0 0.400000000000000 22.600000000000001
2  56 23 9 0.400000000000000 22.600000000000001
2  57 24 10 0.400000000000000 22.600000000000001
2  58 11 10 0.400000000000000 22.600000000000001
2  59 11 9 0.400000000000000 22.600000000000001
0

0101000
+104 0 -141 0 *
Wi

0101100
+103 0 -140 0 -102 5 +102 7 *
Fa
0  0.001000000000000 11 0

0101000
+101 0 *
Ve
0.001000000000001
11.100000000000001 128.000000000000000 -0.299999999999972
0 0

0101101
*
Ed
 0.000000100000000 1 1 0
2  22 25 0 0.000000000000000 1.570796326794897
1  24 0 0.000000000000000 1.570796326794897
2  60 16 0 0.000000000000000 1.570796326794897
0

0101000
+99 0 -134 0 *
Ed
 0.000000100000002 1 1 0
1  25 0 0.000000000000000 1.000000000000000
2  61 16 0 0.000000000000000 1.000000000000000
4 C0 13 0 16 0
2  62 13 0 0.000000000000000 1.000000000000000
0

0101000
+141 5 -99 0 *
Wi

0101100
+139 5 +132 0 -98 0 -97 0 *
Fa
0  0.000000100000000 16 0

0101000
+96 0 *
Ve
0.001000000000001
11.100000000000001 -128.000000000000000 -0.300000000000028
0 0

0101101
*
Ed
 0.000000100000002 1 1 0
1  26 0 0.000000000000000 1.000000000000000
2  63 15 0 0.000000000000000 1.000000000000000
4 C0 15 0 13 0
2  64 13 0 0.000000000000000 1.000000000000000
0

0101000
+141 7 -94 0 *
Ed
 0.000000100000000 1 1 0
2  23 25 0 0.000000000000000 1.570796326794897
1  27 0 0.000000000000000 1.570796326794897
2  65 15 0 0.000000000000000 1.570796326794897
0

0101000
+94 0 -129 0 *
Wi

0101100
-139 7 +93 0 +92 0 -128 0 *
Fa
0  0.000000100000000 15 0

0101000
+91 0 *
Ed
 0.001000000000000 1 1 0
2  66 18 0 0.000000000000000 256.000000000000000
1  28 0 0.000000000000000 256.000000000000000
2  67 4 0 0.000000000000000 256.000000000000000
2  68 25 0 0.000000000000000 256.000000000000000
0

0101000
+134 0 -129 0 *
Wi

0101100
+89 4 -133 4 +126 4 -122 4 *
Wi

0101100
-117 0 *
Wi

0101100
-112 0 *
Wi

0101100
-107 0 *
Fa
0  0.001000000000000 18 4

0101000
+88 0 +87 0 +86 0 +85 0 *
Ve
0.001000000000000
-11.500000000000000 0.000000000000000 -0.400000000000000
0 0

0101101
*
Ed
 0.001000000000000 1 1 0
1  29 0 0.000000000000000 256.000000000000000
2  69 19 0 0.000000000000000 256.000000000000000
4 G1 19 0 26 0
2  70 27 0 0.000000000000000 256.000000000000000
2  71 28 0 0.000000000000000 256.000000000000000
2  72 26 0 0.000000000000000 256.000000000000000
0

0101000
+83 5 -83 7 *
Ed
 0.000000100000003 1 1 0
2  73 29 0 4.712388980384690 6.283185307179586
1  30 0 4.712388980384690 6.283185307179586
2  74 19 10 4.712388980384690 6.283185307179586
2  75 19 9 4.712388980384690 6.283185307179586
2  76 30 9 4.712388980384690 6.283185307179586
2  77 31 10 4.712388980384690 6.283185307179586
0

0101000
+83 0 -104 0 *
Wi

0101100
+82 0 -103 0 -81 5 +81 7 *
Fa
0  0.000000100000003 19 0

0101000
+80 0 *
Ve
0.001000000000000
-11.100000000000000 128.000000000000000 -0.299999999999972
0 0

0101101
*
Ed
 0.001000000000000 1 1 0
2  78 32 0 0.400000000000000 22.600000000000001
1  31 0 0.400000000000000 22.600000000000001
2  79 24 0 0.400000000000000 22.600000000000001
0

0101000
+78 0 -99 0 *
Ed
 0.000000100000002 1 1 0
1  32 0 0.000000000000000 1.000000000000000
4 C0 21 0 24 0
2  80 24 0 0.000000000000000 1.000000000000000
2  81 21 0 0.000000000000000 1.000000000000000
2  82 31 0 0.000000000000000 1.000000000000000
0

0101000
+104 5 -78 0 *
Wi

0101100
+102 5 +97 0 -77 0 -76 0 *
Fa
0  0.000000100000000 24 0

0101000
+75 0 *
Ve
0.001000000000000
-11.100000000000000 -128.000000000000000 -0.300000000000028
0 0

0101101
*
Ed
 0.000000100000002 1 1 0
1  33 0 0.000000000000000 1.000000000000000
4 C0 23 0 21 0
2  83 23 0 0.000000000000000 1.000000000000000
2  84 21 0 0.000000000000000 1.000000000000000
2  85 30 0 0.000000000000000 1.000000000000000
0

0101000
+104 7 -73 0 *
Ed
 0.001000000000000 1 1 0
2  86 32 0 0.400000000000000 22.600000000000001
1  34 0 0.400000000000000 22.600000000000001
2  87 23 0 0.400000000000000 22.600000000000001
0

0101000
+73 0 -94 0 *
Wi

0101100
-102 7 +72 0 +71 0 -93 0 *
Fa
0  0.000000100000000 23 0

0101000
+70 0 *
Ed
 0.001000000000000 1 1 0
2  17 25 0 0.000000000000000 256.000000000000000
1  35 0 0.000000000000000 256.000000000000000
2  88 13 0 0.000000000000000 256.000000000000000
0

0101000
+99 0 -94 0 *
Wi

0101100
+68 0 -89 0 -98 0 +92 0 *
Fa
0  0.000000100000000 25 0

0101000
+67 0 *
Ve
0.001000000000000
-11.500000000000000 0.000000000000003 -15.000000000000000
0 0

0101101
*
Ed
 0.001000000000000 1 1 0
1  36 0 0.000000000000000 256.000000000000000
2  89 26 0 0.000000000000000 256.000000000000000
0

0101000
+65 5 -65 7 *
Ed
 0.001000000000000 1 1 0
2  90 33 0 0.000000000000000 14.600000000000000
1  37 0 0.000000000000000 14.600000000000000
2  91 34 9 0.000000000000000 14.600000000000000
2  92 35 10 0.000000000000000 14.600000000000000
2  93 26 10 0.000000000000000 14.600000000000000
2  94 26 9 0.000000000000000 14.600000000000000
0

0101000
+65 0 -83 0 *
Wi

0101100
+64 4 -63 8 +63 11 -82 4 *
Ve
0.001000000000000
-11.500000000000000 -118.299999999999997 -8.000000000000000
0 0

0101101
*
Ed
 0.001000000000000 1 1 0
1  38 0 0.000000000000000 6.283185307179586
2  95 26 4 0.000000000000000 6.283185307179586
2  96 8 0 0.000000000000000 6.283185307179586
0

0101100
+61 0 -61 0 *
Wi

0101100
+60 0 *
Ve
0.001000000000000
-11.500000000000000 121.700000000000003 -8.000000000000000
0 0

0101101
*
Ed
 0.001000000000000 1 1 0
1  39 0 0.000000000000000 6.283185307179586
2  97 26 4 0.000000000000000 6.283185307179586
2  98 10 0 0.000000000000000 6.283185307179586
0

0101100
+58 0 -58 0 *
Wi

0101100
+57 0 *
Ve
0.001000000000000
-11.500000000000000 1.700000000000000 -8.000000000000000
0 0

0101101
*
Ed
 0.001000000000000 1 1 0
1  40 0 0.000000000000000 6.283185307179586
2  99 26 4 0.000000000000000 6.283185307179586
2  100 9 0 0.000000000000000 6.283185307179586
0

0101100
+55 0 -55 0 *
Wi

0101100
+54 0 *
Fa
0  0.001000000000000 26 4

0101000
+62 0 +59 0 +56 0 +53 0 *
Ve
0.001000000000001
-11.199999999999999 128.000000000000000 -0.399999999999972
0 0

0101101
*
Ed
 0.000000100000003 1 1 0
2  74 36 0 4.712388980384690 6.283185307179586
1  41 0 4.712388980384690 6.283185307179586
2  101 31 0 4.712388980384690 6.283185307179586
0

0101000
+51 0 -78 0 *
Ed
 0.000000100000000 1 1 0
1  42 0 0.000000000000000 1.000000000000000
2  102 31 0 0.000000000000000 1.000000000000000
4 C0 28 0 31 0
2  103 28 0 0.000000000000000 1.000000000000000
0

0101000
+83 5 -51 0 *
Wi

0101100
+81 5 +76 0 -50 0 -49 0 *
Fa
0  0.000000100000000 31 0

0101000
+48 0 *
Ve
0.001000000000001
-11.199999999999999 -128.000000000000000 -0.400000000000029
0 0

0101101
*
Ed
 0.000000100000000 1 1 0
1  43 0 0.000000000000000 1.000000000000000
2  104 30 0 0.000000000000000 1.000000000000000
4 C0 30 0 28 0
2  105 28 0 0.000000000000000 1.000000000000000
0

0101000
+83 7 -46 0 *
Ed
 0.000000100000003 1 1 0
2  75 36 0 4.712388980384690 6.283185307179586
1  44 0 4.712388980384690 6.283185307179586
2  106 30 0 4.712388980384690 6.283185307179586
0

0101000
+46 0 -73 0 *
Wi

0101100
-81 7 +45 0 +44 0 -72 0 *
Fa
0  0.000000100000000 30 0

0101000
+43 0 *
Ed
 0.001000000000000 1 1 0
2  107 32 0 0.000000000000000 256.000000000000000
1  45 0 0.000000000000000 256.000000000000000
2  108 21 0 0.000000000000000 256.000000000000000
2  109 36 0 0.000000000000000 256.000000000000000
0

0101000
+78 0 -73 0 *
Wi

0101100
+41 0 -68 0 -77 0 +71 0 *
Fa
0  0.001000000000000 32 0

0101000
+40 0 *
Ve
0.001000000000000
-11.199999999999999 128.000000000000000 -14.999999999999972
0 0

0101101
*
Ed
 0.000000100000000 1 1 0
1  46 0 0.000000000000000 1.000000000000000
4 C0 37 0 35 0
2  110 35 0 0.000000000000000 1.000000000000000
0

0101000
+65 5 -38 0 *
Ve
0.001000000000000
-11.199999999999999 -128.000000000000000 -15.000000000000028
0 0

0101101
*
Ed
 0.001000000000000 1 1 0
2  111 38 0 0.000000000000000 256.000000000000000
1  47 0 0.000000000000000 256.000000000000000
0

0101000
+38 0 -36 0 *
Ed
 0.000000100000000 1 1 0
1  48 0 0.000000000000000 1.000000000000000
4 C0 34 0 37 0
2  112 34 0 0.000000000000000 1.000000000000000
0

0101000
+65 7 -36 0 *
Wi

0101000
-64 0 +37 0 +35 0 -34 0 *
Fa
0  0.000000100000000 37 0

0101000
+33 0 *
Ed
 0.001000000000000 1 1 0
2  113 38 0 0.000000000000000 14.600000000000000
1  49 0 0.000000000000000 14.600000000000000
2  114 35 0 0.000000000000000 14.600000000000000
0

0101000
+38 0 -51 0 *
Wi

0101100
+63 5 +49 0 -31 0 -37 0 *
Fa
0  0.000000100000000 35 0

0101000
+30 0 *
Ed
 0.001000000000000 1 1 0
2  115 38 0 0.000000000000000 14.600000000000000
1  50 0 0.000000000000000 14.600000000000000
2  116 34 0 0.000000000000000 14.600000000000000
0

0101000
+36 0 -46 0 *
Wi

0101100
-63 7 +34 0 +28 0 -45 0 *
Fa
0  0.000000100000000 34 0

0101000
+27 0 *
Ve
0.001000000000000
-11.199999999999989 -118.299999999999997 -8.000000000000000
0 0

0101101
*
Ed
 0.001000000000000 1 1 0
1  51 0 0.000000000000000 6.283185307179586
2  117 38 4 0.000000000000000 6.283185307179586
2  118 8 0 0.000000000000000 6.283185307179586
0

0101100
+25 0 -25 0 *
Ed
 0.000000100000000 1 1 0
1  16 0 271.243129115152726 271.543129115152738
3  39 40CN 8 0 271.243129115152726 271.543129115152738
0

0101000
+25 0 -61 0 *
Wi

0101100
-24 0 -23 0 +60 0 +23 0 *
Fa
0  0.000000100000000 8 0

0101000
+22 0 *
Ve
0.001000000000000
-11.199999999999989 121.700000000000003 -8.000000000000000
0 0

0101101
*
Ed
 0.001000000000000 1 1 0
1  52 0 0.000000000000000 6.283185307179586
2  119 38 4 0.000000000000000 6.283185307179586
2  120 10 0 0.000000000000000 6.283185307179586
0

0101100
+20 0 -20 0 *
Ed
 0.000000100000000 1 1 0
1  20 0 271.243129115152726 271.543129115152738
3  47 48CN 10 0 271.243129115152726 271.543129115152738
0

0101000
+20 0 -58 0 *
Wi

0101100
-19 0 -18 0 +57 0 +18 0 *
Fa
0  0.000000100000000 10 0

0101000
+17 0 *
Ve
0.001000000000000
-11.199999999999989 1.700000000000000 -8.000000000000000
0 0

0101101
*
Ed
 0.001000000000000 1 1 0
1  53 0 0.000000000000000 6.283185307179586
2  121 38 4 0.000000000000000 6.283185307179586
2  122 9 0 0.000000000000000 6.283185307179586
0

0101100
+15 0 -15 0 *
Ed
 0.000000100000000 1 1 0
1  18 0 271.243129115152726 271.543129115152738
3  43 44CN 9 0 271.243129115152726 271.543129115152738
0

0101000
+15 0 -55 0 *
Wi

0101100
-14 0 -13 0 +54 0 +13 0 *
Fa
0  0.000000100000000 9 0

0101000
+12 0 *
Ed
 0.001000000000000 1 1 0
2  69 36 0 0.000000000000000 256.000000000000000
1  54 0 0.000000000000000 256.000000000000000
2  123 28 0 0.000000000000000 256.000000000000000
2  124 38 0 0.000000000000000 256.000000000000000
0

0101000
+51 0 -46 0 *
Wi

0101100
+10 0 -41 0 -50 0 +44 0 *
Fa
0  0.000000100000003 36 0

0101000
+9 0 *
Wi

0101100
+35 4 -31 4 +28 4 -10 4 *
Wi

0101100
+24 0 *
Wi

0101100
+19 0 *
Wi

0101100
+14 0 *
Fa
0  0.001000000000000 38 4

0101000
+7 0 +6 0 +5 0 +4 0 *
Sh

0101100
+142 0 +137 4 +130 4 +123 4 +120 4 -115 0 -110 0 -105 0 +100 4 +95 4 
+90 4 -84 0 +79 4 +74 4 +69 4 -66 4 +52 0 +47 4 +42 4 -39 4 
+32 4 +29 4 +26 4 -21 0 -16 0 -11 0 -8 4 -3 0 *
So

0100000
+2 0 *

+1 1 