
CASCADE Topology V1, (c) Matra-Datavision
Locations 3
1
1.000000000000000 0.000000000000000 0.000000000000000 0.000000000000000 
0.000000000000000 1.000000000000000 0.000000000000000 0.000000000000000 
0.000000000000000 0.000000000000000 1.000000000000000 0.000000000000000 
1
1.000000000000000 0.000000000000000 0.000000000000000 0.000000000000000 
0.000000000000000 1.000000000000000 0.000000000000000 -274.300000000000011 
0.000000000000000 0.000000000000000 1.000000000000000 0.000000000000061 
2  2 -1 0
Curve2ds 95
1 1.57079632679489656 0.00000000000000000 0.00000000000000000 -1.00000000000000000 
1 0.00000000000000000 -0.30000000000000071 1.00000000000000000 0.00000000000000000 
1 0.00000000000000000 -0.30000000000000071 -1.00000000000000000 0.00000000000000000 
1 0.00000000000000000 0.00000000000000000 0.00000000000000000 -1.00000000000000000 
1 14.60000000000141540 0.00000000000000324 0.00000000000000000 -1.00000000000000000 
1 0.00000000000000000 0.00000000000000000 1.00000000000000000 0.00000000000000000 
1 0.00000000000000003 -0.30000000000000071 -1.00000000000000000 0.00000000000000000 
1 -0.00000000000000002 -0.30000000000000071 1.00000000000000000 0.00000000000000000 
1 -0.39999999999999991 -0.00000000000000009 1.00000000000000000 0.00000000000000000 
1 -0.39999999999999991 -274.30000000000001137 1.00000000000000000 0.00000000000000000 
1 0.00000000000000000 0.00000000000000000 0.00000000000000000 -1.00000000000000000 
1 0.00000000000000007 -0.30000000000000004 1.00000000000000000 0.00000000000000000 
1 -0.00000000000000007 -0.29999999999999993 -1.00000000000000000 0.00000000000000000 
1 22.20000000000000284 0.00000000000000000 0.00000000000000000 -1.00000000000000000 
1 0.00000000000000000 274.30000000000001137 1.00000000000000000 0.00000000000000000 
1 0.00000000000000000 0.00000000000000000 1.00000000000000000 0.00000000000000000 
1 0.00000000000000000 -274.30000000000001137 1.00000000000000000 0.00000000000000000 
1 6.28318530717958623 0.00000000000000000 -1.00000000000000000 0.00000000000000000 
1 0.00000000000000000 0.00000000000000000 1.00000000000000000 0.00000000000000000 
6 0 1 -15.00000000000141576 -0.30000000000000071  -15.00000000000141576 0.00000000000000000  
1 14.60000000000141540 0.00000000000000324 0.00000000000000000 -1.00000000000000000 
6 0 1 15.00000000000141576 -0.30000000000000071  15.00000000000141576 0.00000000000000000  
1 -0.39999999999999991 -0.00000000000000009 1.00000000000000000 0.00000000000000000 
1 0.00000000000000000 0.00000000000000000 1.00000000000000000 0.00000000000000000 
6 0 1 0.00000000000000000 -0.30000000000000071  0.00000000000000000 0.00000000000000000  
6 0 1 0.39999999999999991 -0.30000000000000071  0.39999999999999991 0.00000000000000000  
8 0.00000000000000000 1.00000000000000000
1 1.57079632679489656 0.00000000000000000 0.00000000000000000 1.00000000000000000 
6 0 1 -0.39999999999999991 -0.30000000000000071  -0.39999999999999991 0.00000000000000000  
6 0 1 -274.30000000000001137 -0.30000000000000071  -274.30000000000001137 0.00000000000000000  
8 0.00000000000000000 1.00000000000000000
1 4.71238898038468967 0.00000000000000000 0.00000000000000000 1.00000000000000000 
1 -0.39999999999999991 -274.30000000000001137 1.00000000000000000 0.00000000000000000 
1 0.00000000000000000 0.00000000000000000 -1.00000000000000000 0.00000000000000000 
1 6.28318530717958623 0.00000000000000000 0.00000000000000000 -1.00000000000000000 
1 0.00000000000000007 -0.29999999999999916 1.00000000000000000 0.00000000000000000 
1 -0.00000000000000007 -0.30000000000000004 -1.00000000000000000 0.00000000000000000 
1 0.00000000000000000 0.00000000000000000 0.00000000000000000 -1.00000000000000000 
1 0.00000000000000000 0.00000000000000000 1.00000000000000000 0.00000000000000000 
1 0.00000000000000000 -0.30000000000000004 -1.00000000000000000 0.00000000000000000 
1 0.00000000000000000 -0.30000000000000004 1.00000000000000000 0.00000000000000000 
1 -0.40000000000000036 0.00000000000000000 1.00000000000000000 0.00000000000000000 
1 -0.40000000000000036 -274.30000000000001137 1.00000000000000000 0.00000000000000000 
1 0.00000000000000000 1.00000000000000000 1.00000000000000000 0.00000000000000000 
1 0.00000000000000000 0.00000000000000000 0.00000000000000000 1.00000000000000000 
6 0 1 0.00000000000000000 -0.29999999999999993  0.00000000000000000 0.00000000000000000  
1 6.28318530717958623 0.00000000000000000 0.00000000000000000 1.00000000000000000 
7 0 0  1 2 2  -274.30000000000001137 -0.29999999999999999  -274.30000000000001137 -0.00000000000000006 
 0.00000000000000000 2 1.00000000000000000 2
1 6.28318530717958623 1.00000000000000000 -1.00000000000000000 0.00000000000000000 
1 0.00000000000000000 0.00000000000000000 0.00000000000000000 -1.00000000000000000 
1 0.00000000000000000 0.00000000000000000 -1.00000000000000000 0.00000000000000000 
8 0.00000000000000000 274.30000000000001137
1 1.57079632679489656 0.00000000000000000 0.00000000000000000 -1.00000000000000000 
1 4.71238898038469056 0.00000000000000000 0.00000000000000000 -1.00000000000000000 
1 0.00000000000000000 -0.30000000000000071 1.00000000000000000 0.00000000000000000 
1 0.00000000000000000 -0.30000000000000071 -1.00000000000000000 -0.00000000000000000 
1 14.60000000000141362 -0.00000000000000324 0.00000000000000000 -1.00000000000000000 
1 -4.71238898038468967 274.30000000000001137 1.00000000000000000 0.00000000000000000 
1 0.00000000000000000 0.00000000000000000 1.00000000000000000 0.00000000000000000 
1 0.00000000000000000 -274.30000000000001137 1.00000000000000000 0.00000000000000000 
1 6.28318530717958623 0.00000000000000000 -1.00000000000000000 0.00000000000000000 
1 0.00000000000000000 0.00000000000000000 1.00000000000000000 0.00000000000000000 
1 -0.40000000000000036 0.00000000000000000 1.00000000000000000 0.00000000000000000 
1 0.00000000000000000 0.00000000000000000 1.00000000000000000 0.00000000000000000 
6 0 1 0.40000000000000036 -0.30000000000000004  0.40000000000000036 0.00000000000000000  
6 0 1 0.00000000000000000 -0.30000000000000004  0.00000000000000000 0.00000000000000000  
8 0.00000000000000000 1.00000000000000000
1 6.28318530717958623 0.00000000000000000 0.00000000000000000 1.00000000000000000 
6 0 1 -0.40000000000000036 -0.30000000000000004  -0.40000000000000036 0.00000000000000000  
6 0 1 -274.30000000000001137 -0.30000000000000004  -274.30000000000001137 0.00000000000000000  
8 0.00000000000000000 1.00000000000000000
1 0.00000000000000000 0.00000000000000000 0.00000000000000000 1.00000000000000000 
1 -0.40000000000000036 -274.30000000000001137 1.00000000000000000 0.00000000000000000 
1 0.00000000000000000 0.00000000000000000 -1.00000000000000000 0.00000000000000000 
1 0.00000000000000000 -0.00000000000000000 -1.00000000000000000 0.00000000000000000 
1 22.19999999999999929 0.00000000000000000 0.00000000000000000 -1.00000000000000000 
1 0.00000000000000000 0.00000000000000000 0.00000000000000000 -1.00000000000000000 
1 0.00000000000000000 0.00000000000000000 1.00000000000000000 0.00000000000000000 
1 0.00000000000000000 -0.30000000000000071 -1.00000000000000000 0.00000000000000000 
1 0.00000000000000000 -0.30000000000000071 1.00000000000000000 0.00000000000000000 
1 0.00000000000000000 0.00000000000000000 1.00000000000000000 0.00000000000000000 
1 -0.00000000000000051 -274.30000000000001137 1.00000000000000000 0.00000000000000000 
1 0.00000000000000000 1.00000000000000000 1.00000000000000000 0.00000000000000000 
1 4.71238898038469056 0.00000000000000000 0.00000000000000000 1.00000000000000000 
6 0 1 0.00000000000000000 -0.30000000000000071  0.00000000000000000 0.00000000000000000  
1 1.57079632679489567 0.00000000000000000 0.00000000000000000 1.00000000000000000 
7 0 0  1 2 2  -274.30000000000001137 -0.30000000000000071  -274.30000000000001137 0.00000000000000178 
 0.00000000000000000 2 1.00000000000000000 2
1 6.28318530717958623 1.00000000000000000 -1.00000000000000000 0.00000000000000000 
1 0.00000000000000000 0.00000000000000000 0.00000000000000000 -1.00000000000000000 
1 0.00000000000000000 0.00000000000000000 -1.00000000000000000 0.00000000000000000 
8 0.00000000000000000 274.30000000000001137
1 6.28318530717958623 0.00000000000000000 0.00000000000000000 -1.00000000000000000 
6 0 1 0.00000000000000000 -0.30000000000000071  0.00000000000000000 0.00000000000000000  
1 0.00000000000000000 0.00000000000000000 0.00000000000000000 -1.00000000000000000 
6 0 1 0.00000000000000000 -0.30000000000000071  0.00000000000000000 0.00000000000000000  
1 0.00000000000000000 0.00000000000000000 1.00000000000000000 0.00000000000000000 
1 0.00000000000000000 0.00000000000000000 1.00000000000000000 0.00000000000000000 
1 -0.00000000000000051 -274.30000000000001137 1.00000000000000000 0.00000000000000000 
1 -0.00000000000000000 0.00000000000000000 -1.00000000000000000 0.00000000000000000 
1 0.00000000000000000 0.00000000000000000 -1.00000000000000000 0.00000000000000000 
1 14.60000000000141362 -0.00000000000000324 0.00000000000000000 -1.00000000000000000 
Curves 39
1 11.49999999998128963 146.80000000000001137 -0.40000000000617036 0.00000000000000000 -1.00000000000000000 0.00000000000000022 
1 11.49999999998128963 146.80000000000001137 -15.00000000000758504 0.00000000000000000 -1.00000000000000000 0.00000000000000022 
1 11.49999999998128963 146.80000000000001137 -0.00000000000617044 0.00000000000000000 -0.00000000000000022 -1.00000000000000000 
1 11.09999999998129105 146.80000000000001137 -0.00000000000617043 0.00000000000000000 -1.00000000000000000 0.00000000000000022 
2 11.09999999998128928 146.80000000000001137 -0.40000000000617036 0.00000000000000000 1.00000000000000000 -0.00000000000000022 0.00000000000000000 0.00000000000000022 1.00000000000000000 1.00000000000000000 -0.00000000000000000 0.00000000000000000 0.40000000000000002
6 0 1 11.49999999998128963 -127.50000000000000000 -15.00000000000752465  11.19999999998128892 -127.50000000000000000 -15.00000000000752465  
1 11.19999999998128892 146.80000000000001137 -15.00000000000758504 0.00000000000000000 -1.00000000000000000 0.00000000000000022 
6 0 1 11.49999999998128963 146.80000000000001137 -15.00000000000758504  11.19999999998128892 146.80000000000001137 -15.00000000000758504  
1 11.19999999998128892 146.80000000000001137 -0.00000000000617045 0.00000000000000000 -0.00000000000000022 -1.00000000000000000 
6 0 1 11.49999999998128963 146.80000000000001137 -0.40000000000617036  11.19999999998128892 146.80000000000001137 -0.40000000000617036  
6 0 1 11.49999999998128963 -127.50000000000000000 -0.40000000000610947  11.19999999998128892 -127.50000000000000000 -0.40000000000610947  
1 11.19999999998128892 -127.50000000000000000 -0.00000000000610956 0.00000000000000000 -0.00000000000000022 -1.00000000000000000 
1 -11.10000000001871001 146.80000000000001137 -0.00000000000617043 0.00000000000000000 -1.00000000000000000 0.00000000000000022 
1 -11.50000000001871037 146.80000000000001137 -0.00000000000617043 1.00000000000000000 0.00000000000000000 0.00000000000000000 
2 11.09999999998128928 146.80000000000001137 -0.40000000000617036 0.00000000000000000 1.00000000000000000 -0.00000000000000022 0.00000000000000000 0.00000000000000022 1.00000000000000000 1.00000000000000000 -0.00000000000000000 0.00000000000000000 0.10000000000000003
6 0 1 11.09999999998129105 146.80000000000001137 -0.00000000000617043  11.09999999998128928 146.80000000000001137 -0.30000000000617033  
7 0 0  1 2 2  11.09999999998128750 -127.50000000000000000 -0.00000000000610942  11.09999999998129105 -127.50000000000000000 -0.30000000000610938 
 0.00000000000000000 2 1.00000000000000000 2
2 11.09999999998128928 -127.50000000000000000 -0.40000000000610947 0.00000000000000000 1.00000000000000000 -0.00000000000000022 0.00000000000000000 0.00000000000000022 1.00000000000000000 1.00000000000000000 -0.00000000000000000 0.00000000000000000 0.10000000000000003
1 11.19999999998128892 146.80000000000001137 -0.40000000000617036 0.00000000000000000 -1.00000000000000000 0.00000000000000022 
1 -11.50000000001871037 146.80000000000001137 -0.40000000000616964 0.00000000000000000 -1.00000000000000000 0.00000000000000022 
2 -11.10000000001871001 146.80000000000001137 -0.40000000000616964 -0.00000000000000000 1.00000000000000000 -0.00000000000000022 0.00000000000000022 0.00000000000000022 1.00000000000000000 1.00000000000000000 -0.00000000000000000 -0.00000000000000022 0.40000000000000002
1 -11.50000000001871037 146.80000000000001137 -0.30000000000617044 1.00000000000000000 0.00000000000000000 0.00000000000000000 
6 0 1 -11.10000000001871001 146.80000000000001137 -0.00000000000617043  -11.10000000001871001 146.80000000000001137 -0.30000000000617044  
6 0 1 -11.10000000001871001 -127.50000000000000000 -0.00000000000610952  -11.10000000001871001 -127.50000000000000000 -0.30000000000610955  
1 -11.50000000001871037 -127.50000000000000000 -0.30000000000610955 1.00000000000000000 0.00000000000000000 0.00000000000000000 
1 11.09999999998128928 146.80000000000001137 -0.30000000000617033 -0.00000000000000000 -1.00000000000000000 0.00000000000000022 
1 -11.50000000001871037 146.80000000000001137 -15.00000000000758327 0.00000000000000000 -1.00000000000000000 0.00000000000000022 
1 -11.50000000001871037 146.80000000000001137 -15.00000000000758327 0.00000000000000000 0.00000000000000022 1.00000000000000000 
2 -11.10000000001871001 146.80000000000001137 -0.40000000000616964 -0.00000000000000000 1.00000000000000000 -0.00000000000000022 0.00000000000000022 0.00000000000000022 1.00000000000000000 1.00000000000000000 -0.00000000000000000 -0.00000000000000022 0.10000000000000003
6 0 1 -11.50000000001871037 146.80000000000001137 -0.40000000000616964  -11.20000000001870966 146.80000000000001137 -0.40000000000616953  
7 0 0  1 2 2  -11.50000000001871037 -127.50000000000000000 -0.40000000000610830  -11.20000000001870788 -127.50000000000000000 -0.40000000000610858 
 0.00000000000000000 2 1.00000000000000000 2
2 -11.10000000001871001 -127.50000000000000000 -0.40000000000610875 -0.00000000000000000 1.00000000000000000 -0.00000000000000022 0.00000000000000022 0.00000000000000022 1.00000000000000000 1.00000000000000000 -0.00000000000000000 -0.00000000000000022 0.10000000000000003
1 -11.10000000001871001 146.80000000000001137 -0.30000000000617044 0.00000000000000000 -1.00000000000000000 0.00000000000000022 
6 0 1 -11.50000000001871037 146.80000000000001137 -15.00000000000758327  -11.20000000001870966 146.80000000000001137 -15.00000000000758327  
1 -11.20000000001870966 146.80000000000001137 -15.00000000000758327 0.00000000000000000 -1.00000000000000000 0.00000000000000022 
6 0 1 -11.50000000001871037 -127.50000000000000000 -15.00000000000752287  -11.20000000001870966 -127.50000000000000000 -15.00000000000752287  
1 -11.20000000001870966 146.80000000000001137 -15.00000000000758327 0.00000000000000000 0.00000000000000022 1.00000000000000000 
1 -11.20000000001870966 -127.50000000000000000 -15.00000000000752287 0.00000000000000000 0.00000000000000022 1.00000000000000000 
1 -11.20000000001870966 146.80000000000001137 -0.40000000000616953 0.00000000000000000 -1.00000000000000000 0.00000000000000022 
Polygon3D 0
PolygonOnTriangulations 0
Surfaces 35
1 11.49999999998128963 146.80000000000001137 -0.40000000000617036 1.00000000000000000 0.00000000000000000 0.00000000000000000 0.00000000000000000 -0.00000000000000022 -1.00000000000000000 0.00000000000000000 1.00000000000000000 -0.00000000000000022 
2 11.09999999998128928 146.80000000000001137 -0.40000000000617036 0.00000000000000000 1.00000000000000000 -0.00000000000000022 0.00000000000000000 0.00000000000000022 1.00000000000000000 1.00000000000000000 -0.00000000000000000 0.00000000000000000 0.40000000000000002
1 11.19999999998128892 146.80000000000001137 -0.40000000000617036 -0.00000000000000000 -0.00000000000000022 -1.00000000000000000 -0.00000000000000000 -1.00000000000000000 0.00000000000000022 -1.00000000000000000 0.00000000000000000 0.00000000000000000 
1 11.19999999998128892 146.80000000000001137 -0.40000000000617036 0.00000000000000000 0.00000000000000022 1.00000000000000000 -0.00000000000000000 1.00000000000000000 -0.00000000000000022 -1.00000000000000000 0.00000000000000000 0.00000000000000000 
1 11.49999999998128963 146.80000000000001137 -0.00000000000617044 1.00000000000000000 0.00000000000000000 0.00000000000000000 0.00000000000000000 -0.00000000000000022 -1.00000000000000000 0.00000000000000000 1.00000000000000000 -0.00000000000000022 
1 11.19999999998128892 -127.50000000000000000 -0.00000000000610956 -0.00000000000000000 -1.00000000000000000 0.00000000000000022 0.00000000000000000 0.00000000000000022 1.00000000000000000 -1.00000000000000000 0.00000000000000000 0.00000000000000000 
1 11.19999999998128892 146.80000000000001137 -0.00000000000617045 0.00000000000000000 1.00000000000000000 -0.00000000000000022 0.00000000000000000 -0.00000000000000022 -1.00000000000000000 -1.00000000000000000 0.00000000000000000 -0.00000000000000000 
1 -11.10000000001871001 146.80000000000001137 -0.00000000000617043 -0.00000000000000000 0.00000000000000022 1.00000000000000000 1.00000000000000000 0.00000000000000000 0.00000000000000000 0.00000000000000000 1.00000000000000000 -0.00000000000000022 
1 11.09999999998129283 146.80000000000001137 -0.30000000000617044 1.00000000000000000 0.00000000000000000 0.00000000000000592 -0.00000000000000000 -1.00000000000000000 0.00000000000000022 0.00000000000000592 -0.00000000000000022 -1.00000000000000000 
1 11.09999999998128928 146.80000000000001137 -0.30000000000617033 -1.00000000000000000 0.00000000000000000 0.00000000000000592 -0.00000000000000000 1.00000000000000000 -0.00000000000000022 -0.00000000000000592 -0.00000000000000022 -1.00000000000000000 
2 11.09999999998128928 -127.50000000000000000 -0.40000000000610947 0.00000000000000000 1.00000000000000000 -0.00000000000000022 0.00000000000000000 0.00000000000000022 1.00000000000000000 1.00000000000000000 -0.00000000000000000 0.00000000000000000 0.40000000000000002
9 0 0 0 0 7 1 8 2 2 2 11.49999999998128075 -127.49999999999991473 -0.40000000000610936  11.19999999998128359 -127.49999999999991473 -0.40000000000610914  
11.49999999998137312 -127.50000000000139266 -0.31024020990354600  11.19999999998139018 -127.50000000000139266 -0.37756005248047303  
11.47650044536045755 -127.49999999999643308 -0.22048085401272591  11.19412511132592236 -127.49999999999643308 -0.35512021350775136  
11.42950508886239014 -127.50000000000504485 -0.13810122367693137  11.18237627220175234 -127.50000000000504485 -0.33452530592383384  
11.36189877631030676 -127.49999999999570832 -0.07049491112522525  11.16547469406341619 -127.49999999999570832 -0.31762372778587050  
11.27951914597473859 -127.50000000000220268 -0.02349955462676642  11.14487978647970934 -127.50000000000220268 -0.30587488866128398  
11.18975979008384769 -127.49999999999940314 -0.00000000000610907  11.12243994750691733 -127.49999999999940314 -0.30000000000610610  
11.09999999998128750 -127.50000000000000000 -0.00000000000610942  11.09999999998129105 -127.50000000000000000 -0.30000000000610938  

4.71238898038468967 8
6.28318530717958623 8

0.00000000000000000 2
1.00000000000000000 2

9 0 0 0 0 7 1 8 2 2 2 11.09999999998128928 146.80000000000001137 -0.00000000000617033  11.09999999998128750 146.80000000000001137 -0.30000000000617033  
11.18975979008390453 146.79999999999995453 -0.00000000000617085  11.12243994750696352 146.79999999999995453 -0.30000000000617150  
11.27951914597445437 146.79999999999921556 -0.02349955462682354  11.14487978647948374 146.79999999999921556 -0.30587488866132845  
11.36189877631084855 146.80000000000197247 -0.07049491112529328  11.16547469406386028 146.80000000000197247 -0.31762372778595999  
11.42950508886183236 146.79999999999807869 -0.13810122367698396  11.18237627220125674 146.79999999999807869 -0.33452530592386565  
11.47650044536080927 146.80000000000100613 -0.22048085401279224  11.19412511132626520 146.80000000000100613 -0.35512021350782996  
11.49999999998124167 146.79999999999981242 -0.31024020990360485  11.19999999998124984 146.79999999999981242 -0.37756005248052793  
11.49999999998128963 146.80000000000001137 -0.40000000000617042  11.19999999998128715 146.80000000000001137 -0.40000000000617036  

0.00000000000000000 8
1.57079632679489656 8

0.00000000000000000 2
1.00000000000000000 2

1 11.19999999998128892 146.80000000000001137 -15.00000000000758504 -0.00000000000000000 -0.00000000000000022 -1.00000000000000000 0.00000000000000000 -1.00000000000000000 0.00000000000000022 -1.00000000000000000 0.00000000000000000 0.00000000000000000 
1 11.19999999998128892 146.80000000000001137 -0.40000000000617036 1.00000000000000000 0.00000000000000000 0.00000000000000000 0.00000000000000000 -0.00000000000000022 -1.00000000000000000 0.00000000000000000 1.00000000000000000 -0.00000000000000022 
2 -11.10000000001871001 146.80000000000001137 -0.40000000000616964 -0.00000000000000000 1.00000000000000000 -0.00000000000000022 0.00000000000000022 0.00000000000000022 1.00000000000000000 1.00000000000000000 -0.00000000000000000 -0.00000000000000022 0.40000000000000002
1 -11.10000000001871001 146.80000000000001137 -0.30000000000616961 1.00000000000000000 0.00000000000000000 0.00000000000000000 0.00000000000000000 -1.00000000000000000 0.00000000000000022 0.00000000000000000 -0.00000000000000022 -1.00000000000000000 
1 -11.10000000001871001 146.80000000000001137 -0.30000000000617044 -1.00000000000000000 -0.00000000000000000 -0.00000000000000000 0.00000000000000000 1.00000000000000000 -0.00000000000000022 0.00000000000000000 -0.00000000000000022 -1.00000000000000000 
1 -11.50000000001871037 146.80000000000001137 -0.00000000000617043 -0.00000000000000000 0.00000000000000022 1.00000000000000000 1.00000000000000000 0.00000000000000000 0.00000000000000000 0.00000000000000000 1.00000000000000000 -0.00000000000000022 
1 -11.50000000001871037 -127.50000000000000000 -0.30000000000610955 0.00000000000000000 -1.00000000000000000 0.00000000000000000 -1.00000000000000000 0.00000000000000000 0.00000000000000000 -0.00000000000000000 -0.00000000000000000 -1.00000000000000000 
1 -11.50000000001871037 146.80000000000001137 -0.30000000000617044 -0.00000000000000000 1.00000000000000000 0.00000000000000000 1.00000000000000000 0.00000000000000000 0.00000000000000000 0.00000000000000000 0.00000000000000000 -1.00000000000000000 
2 11.09999999998128928 146.80000000000001137 -0.40000000000617036 0.00000000000000000 1.00000000000000000 -0.00000000000000022 0.00000000000000000 0.00000000000000022 1.00000000000000000 1.00000000000000000 -0.00000000000000000 0.00000000000000000 0.10000000000000003
1 -11.50000000001871037 146.80000000000001137 -15.00000000000758327 -1.00000000000000000 0.00000000000000000 0.00000000000000000 0.00000000000000000 0.00000000000000022 1.00000000000000000 0.00000000000000000 1.00000000000000000 -0.00000000000000022 
1 -11.20000000001870966 146.80000000000001137 -0.40000000000616964 -0.00000000000000000 0.00000000000000022 1.00000000000000000 0.00000000000000000 -1.00000000000000000 0.00000000000000022 1.00000000000000000 0.00000000000000000 0.00000000000000000 
1 -11.20000000001870966 146.80000000000001137 -0.40000000000616953 0.00000000000000037 -0.00000000000000022 -1.00000000000000000 0.00000000000000000 1.00000000000000000 -0.00000000000000022 1.00000000000000000 0.00000000000000000 0.00000000000000037 
2 -11.10000000001871001 -127.50000000000000000 -0.40000000000610908 0.00000000000000000 1.00000000000000000 -0.00000000000000022 -1.00000000000000000 0.00000000000000000 0.00000000000000000 0.00000000000000000 0.00000000000000022 1.00000000000000000 0.40000000000000002
9 0 0 0 0 7 1 8 2 2 2 -11.10000000001871001 -127.50000000000000000 -0.00000000000610872  -11.10000000001870823 -127.50000000000000000 -0.30000000000610871  
-11.18975979012127198 -127.50000000000014211 -0.00000000000610903  -11.12243994754437360 -127.50000000000014211 -0.30000000000611043  
-11.27951914601203853 -127.49999999999877787 -0.02349955462676232  -11.14487978651692224 -127.49999999999877787 -0.30587488866126522  
-11.36189877634800993 -127.50000000000235900 -0.07049491112523083  -11.16547469410128457 -127.50000000000235900 -0.31762372778590187  
-11.42950508889948402 -127.49999999999785416 -0.13810122367692262  -11.18237627223864550 -127.49999999999785416 -0.33452530592379925  
-11.47650044539810388 -127.50000000000119371 -0.22048085401273002  -11.19412511136370725 -127.50000000000119371 -0.35512021350777173  
-11.50000000001869793 -127.49999999999964473 -0.31024020990354279  -11.20000000001867058 -127.49999999999964473 -0.37756005248046509  
-11.50000000001871037 -127.50000000000000000 -0.40000000000610830  -11.20000000001870788 -127.50000000000000000 -0.40000000000610858  

0.00000000000000000 8
1.57079632679489567 8

0.00000000000000000 2
1.00000000000000000 2

9 0 0 0 0 7 1 8 2 2 2 -11.50000000001871214 146.80000000000001137 -0.40000000000616931  -11.20000000001870966 146.80000000000001137 -0.40000000000616953  
-11.50000000001872102 146.80000000000057980 -0.31024020990360390  -11.20000000001871321 146.80000000000057980 -0.37756005248052915  
-11.47650044539797776 146.79999999999768079 -0.22048085401278872  -11.19412511136351362 146.79999999999768079 -0.35512021350782036  
-11.42950508889971850 146.80000000000379146 -0.13810122367698652  -11.18237627223895103 146.80000000000379146 -0.33452530592388097  
-11.36189877634776302 146.79999999999623128 -0.07049491112528902  -11.16547469410098792 146.79999999999623128 -0.31762372778594161  
-11.27951914601218064 146.80000000000228511 -0.02349955462682480  -11.14487978651707500 146.80000000000228511 -0.30587488866133855  
-11.18975979012123823 146.79999999999938609 -0.00000000000616946  -11.12243994754434340 146.79999999999938609 -0.30000000000616789  
-11.10000000001871179 146.80000000000001137 -0.00000000000616962  -11.10000000001871001 146.80000000000001137 -0.30000000000616961  

4.71238898038469056 8
6.28318530717958623 8

0.00000000000000000 2
1.00000000000000000 2

1 -11.10000000001871001 146.80000000000001137 -0.30000000000617044 -0.00000000000000000 0.00000000000000022 1.00000000000000000 1.00000000000000000 0.00000000000000000 0.00000000000000000 0.00000000000000000 1.00000000000000000 -0.00000000000000022 
1 -11.50000000001871037 146.80000000000001137 -15.00000000000758327 -1.00000000000000000 0.00000000000000000 0.00000000000000000 0.00000000000000000 0.00000000000000022 1.00000000000000000 0.00000000000000000 1.00000000000000000 -0.00000000000000022 
1 -11.20000000001870966 -127.50000000000000000 -15.00000000000752287 0.00000000000000000 -1.00000000000000000 0.00000000000000022 -0.00000000000000000 -0.00000000000000022 -1.00000000000000000 1.00000000000000000 0.00000000000000000 -0.00000000000000000 
1 -11.20000000001870966 146.80000000000001137 -15.00000000000758327 0.00000000000000000 1.00000000000000000 -0.00000000000000022 0.00000000000000000 0.00000000000000022 1.00000000000000000 1.00000000000000000 -0.00000000000000000 0.00000000000000000 
2 -11.10000000001871001 146.80000000000001137 -0.40000000000616964 -0.00000000000000000 1.00000000000000000 -0.00000000000000022 0.00000000000000022 0.00000000000000022 1.00000000000000000 1.00000000000000000 -0.00000000000000000 -0.00000000000000022 0.10000000000000003
1 -11.20000000001870966 146.80000000000001137 -15.00000000000758327 0.00000000000000000 -0.00000000000000022 -1.00000000000000000 -0.00000000000000000 1.00000000000000000 -0.00000000000000022 1.00000000000000000 0.00000000000000000 0.00000000000000000 
1 -11.20000000001870966 146.80000000000001137 -15.00000000000758327 -1.00000000000000000 0.00000000000000000 0.00000000000000000 0.00000000000000000 0.00000000000000022 1.00000000000000000 0.00000000000000000 1.00000000000000000 -0.00000000000000022 
Triangulations 0

TShapes 104
Ve
0.001000000000000
11.499999999981290 146.800000000000011 -0.400000000006170
0 0

0101101
*
Ed
 0.001000000000000 1 1 0
1  1 0 0.000000000000000 274.300000000000011
2  1 2 0 0.000000000000000 274.300000000000011
4 G1 1 0 2 0
2  2 3 0 0.000000000000000 274.300000000000011
2  3 4 0 0.000000000000000 274.300000000000011
2  4 1 0 0.000000000000000 274.300000000000011
0

0101000
+104 0 -104 2 *
Ve
0.001000000000000
11.499999999981290 146.800000000000011 -15.000000000007585
0 0

0101101
*
Ed
 0.001000000000000 1 1 0
1  2 0 0.000000000000000 274.300000000000011
2  5 1 0 0.000000000000000 274.300000000000011
0

0101000
+102 0 -102 2 *
Ed
 0.001000000000000 1 1 0
2  6 5 0 0.400000000000000 15.000000000001414
1  3 0 0.400000000000000 15.000000000001414
2  7 6 3 0.400000000000000 15.000000000001414
2  8 7 0 0.400000000000000 15.000000000001414
2  9 1 0 0.400000000000000 15.000000000001414
2  10 1 3 0.400000000000000 15.000000000001414
0

0101000
+104 0 -102 0 *
Wi

0101100
+103 0 -101 0 -100 0 +100 2 *
Fa
0  0.001000000000000 1 0

0111000
+99 0 *
Ve
0.001000000000000
11.099999999981291 146.800000000000011 -0.000000000006170
0 0

0101101
*
Ed
 0.001000000000000 1 1 0
1  4 0 0.000000000000000 274.300000000000011
2  11 2 0 0.000000000000000 274.300000000000011
4 G1 2 0 8 0
2  12 9 0 0.000000000000000 274.300000000000011
2  13 10 0 0.000000000000000 274.300000000000011
2  14 8 0 0.000000000000000 274.300000000000011
0

0101000
+97 0 -97 2 *
Ed
 0.000000100000000 1 1 0
2  15 11 0 0.000000000000000 1.570796326794897
1  5 0 0.000000000000000 1.570796326794897
2  16 2 0 0.000000000000000 1.570796326794897
2  17 2 3 0.000000000000000 1.570796326794897
2  18 12 3 0.000000000000000 1.570796326794897
2  19 13 0 0.000000000000000 1.570796326794897
0

0101000
+97 0 -104 0 *
Wi

0101100
+96 0 -103 0 -95 0 +95 2 *
Fa
0  0.000000100000000 2 0

0111000
+94 0 *
Ve
0.001000000000000
11.199999999981289 -127.500000000000000 -15.000000000007525
0 0

0101101
*
Ed
 0.000000100000000 1 1 0
1  6 0 0.000000000000000 1.000000000000000
4 C0 14 0 6 0
2  20 6 0 0.000000000000000 1.000000000000000
0

0101000
+102 2 -92 0 *
Ve
0.001000000000000
11.199999999981289 146.800000000000011 -15.000000000007585
0 0

0101101
*
Ed
 0.001000000000000 1 1 0
2  21 15 0 0.000000000000000 274.300000000000011
1  7 0 0.000000000000000 274.300000000000011
0

0101000
+90 0 -92 0 *
Ed
 0.000000100000000 1 1 0
1  8 0 0.000000000000000 1.000000000000000
4 C0 14 0 7 0
2  22 7 0 0.000000000000000 1.000000000000000
0

0101000
+102 0 -90 0 *
Wi

0101000
+101 0 +91 0 -89 0 -88 0 *
Fa
0  0.000000100000000 14 0

0111000
+87 0 *
Ve
0.001000000000000
11.199999999981289 146.800000000000011 -0.400000000006170
0 0

0101101
*
Ed
 0.001000000000000 1 1 0
2  23 15 0 0.400000000000000 15.000000000001414
1  9 0 0.400000000000000 15.000000000001414
2  24 7 0 0.400000000000000 15.000000000001414
0

0101000
+85 0 -90 0 *
Ed
 0.000000100000000 1 1 0
1  10 0 0.000000000000000 1.000000000000000
4 C0 4 0 7 0
2  25 4 0 0.000000000000000 1.000000000000000
2  26 7 0 0.000000000000000 1.000000000000000
2  27 13 0 0.000000000000000 1.000000000000000
0

0101000
+104 0 -85 0 *
Wi

0101100
+100 0 +88 0 -84 0 -83 0 *
Fa
0  0.000000100000000 7 0

0111000
+82 0 *
Ve
0.001000000000000
11.199999999981289 -127.500000000000000 -0.400000000006109
0 0

0101101
*
Ed
 0.000000100000000 1 1 0
1  11 0 0.000000000000000 1.000000000000000
4 C0 6 0 4 0
2  28 6 0 0.000000000000000 1.000000000000000
2  29 4 0 0.000000000000000 1.000000000000000
2  30 12 0 0.000000000000000 1.000000000000000
0

0101000
+104 2 -80 0 *
Ed
 0.001000000000000 1 1 0
2  31 15 0 0.400000000000000 15.000000000001414
1  12 0 0.400000000000000 15.000000000001414
2  32 6 0 0.400000000000000 15.000000000001414
0

0101000
+80 0 -92 0 *
Wi

0101100
-100 2 +79 0 +78 0 -91 0 *
Fa
0  0.000000100000000 6 0

0111000
+77 0 *
Ve
0.001000000000000
-11.100000000018710 146.800000000000011 -0.000000000006170
0 0

0101101
*
Ed
 0.001000000000000 1 1 0
1  13 0 0.000000000000000 274.300000000000011
2  33 16 0 0.000000000000000 274.300000000000011
4 G1 8 0 16 0
2  34 17 0 0.000000000000000 274.300000000000011
2  35 18 0 0.000000000000000 274.300000000000011
2  36 8 0 0.000000000000000 274.300000000000011
0

0101000
+75 0 -75 2 *
Ed
 0.001000000000000 1 1 0
2  37 19 0 0.400000000000000 22.600000000000001
1  14 0 0.400000000000000 22.600000000000001
2  38 20 3 0.400000000000000 22.600000000000001
2  39 21 0 0.400000000000000 22.600000000000001
2  40 8 0 0.400000000000000 22.600000000000001
2  41 8 3 0.400000000000000 22.600000000000001
0

0101000
+75 0 -97 0 *
Wi

0101100
+74 0 -96 0 -73 0 +73 2 *
Fa
0  0.001000000000000 8 0

0111000
+72 0 *
Ve
0.001000000000002
11.099999999981291 146.800000000000011 -0.300000000006170
0 0

0101101
*
Ed
 0.000000100000000 1 1 0
2  16 22 0 0.000000000000000 1.570796326794897
1  15 0 0.000000000000000 1.570796326794897
2  42 13 0 0.000000000000000 1.570796326794897
0

0101000
+70 0 -85 0 *
Ed
 0.000000100000004 1 1 0
1  16 0 0.000000000000000 1.000000000000000
2  43 13 0 0.000000000000000 1.000000000000000
4 C0 10 0 13 0
2  44 10 0 0.000000000000000 1.000000000000000
0

0101000
+97 0 -70 0 *
Wi

0101100
+95 0 +83 0 -69 0 -68 0 *
Fa
0  0.000000100000000 13 0

0111000
+67 0 *
Ve
0.001000000000002
11.099999999981291 -127.500000000000000 -0.300000000006109
0 0

0101101
*
Ed
 0.000000100000004 1 1 0
1  17 0 0.000000000000000 1.000000000000000
2  45 12 0 0.000000000000000 1.000000000000000
4 C0 12 0 10 0
2  46 10 0 0.000000000000000 1.000000000000000
0

0101000
+97 2 -65 0 *
Ed
 0.000000100000000 1 1 0
2  17 22 0 0.000000000000000 1.570796326794897
1  18 0 0.000000000000000 1.570796326794897
2  47 12 0 0.000000000000000 1.570796326794897
0

0101000
+65 0 -80 0 *
Wi

0101100
-95 2 +64 0 +63 0 -79 0 *
Fa
0  0.000000100000000 12 0

0111000
+62 0 *
Ed
 0.001000000000000 1 1 0
2  48 15 0 0.000000000000000 274.300000000000011
1  19 0 0.000000000000000 274.300000000000011
2  49 4 0 0.000000000000000 274.300000000000011
2  50 22 0 0.000000000000000 274.300000000000011
0

0101000
+85 0 -80 0 *
Wi

0101100
+60 0 -89 0 -84 0 +78 0 *
Fa
0  0.001000000000000 15 0

0111000
+59 0 *
Ve
0.001000000000000
-11.500000000018710 146.800000000000011 -0.400000000006170
0 0

0101101
*
Ed
 0.001000000000000 1 1 0
1  20 0 0.000000000000000 274.300000000000011
2  51 16 0 0.000000000000000 274.300000000000011
4 G1 16 0 23 0
2  52 24 0 0.000000000000000 274.300000000000011
2  53 25 0 0.000000000000000 274.300000000000011
2  54 23 0 0.000000000000000 274.300000000000011
0

0101000
+57 0 -57 2 *
Ed
 0.000000100000000 1 1 0
2  55 26 0 4.712388980384691 6.283185307179586
1  21 0 4.712388980384691 6.283185307179586
2  56 16 0 4.712388980384691 6.283185307179586
2  57 16 3 4.712388980384691 6.283185307179586
2  58 27 3 4.712388980384691 6.283185307179586
2  59 28 0 4.712388980384691 6.283185307179586
0

0101000
+57 0 -75 0 *
Wi

0101100
+56 0 -74 0 -55 0 +55 2 *
Fa
0  0.000000100000000 16 0

0111000
+54 0 *
Ve
0.001000000000000
-11.100000000018710 146.800000000000011 -0.300000000006170
0 0

0101101
*
Ed
 0.001000000000000 1 1 0
2  60 29 0 0.400000000000000 22.600000000000001
1  22 0 0.400000000000000 22.600000000000001
2  61 21 0 0.400000000000000 22.600000000000001
0

0101000
+52 0 -70 0 *
Ed
 0.000000100000000 1 1 0
1  23 0 0.000000000000000 1.000000000000000
4 C0 18 0 21 0
2  62 21 0 0.000000000000000 1.000000000000000
2  63 18 0 0.000000000000000 1.000000000000000
2  64 28 0 0.000000000000000 1.000000000000000
0

0101000
+75 0 -52 0 *
Wi

0101100
+73 0 +68 0 -51 0 -50 0 *
Fa
0  0.000000100000000 21 0

0111000
+49 0 *
Ve
0.001000000000000
-11.100000000018710 -127.500000000000000 -0.300000000006110
0 0

0101101
*
Ed
 0.000000100000000 1 1 0
1  24 0 0.000000000000000 1.000000000000000
4 C0 20 0 18 0
2  65 20 0 0.000000000000000 1.000000000000000
2  66 18 0 0.000000000000000 1.000000000000000
2  67 27 0 0.000000000000000 1.000000000000000
0

0101000
+75 2 -47 0 *
Ed
 0.001000000000000 1 1 0
2  68 29 0 0.400000000000000 22.600000000000001
1  25 0 0.400000000000000 22.600000000000001
2  69 20 0 0.400000000000000 22.600000000000001
0

0101000
+47 0 -65 0 *
Wi

0101100
-73 2 +46 0 +45 0 -64 0 *
Fa
0  0.000000100000000 20 0

0111000
+44 0 *
Ed
 0.001000000000000 1 1 0
2  11 22 0 0.000000000000000 274.300000000000011
1  26 0 0.000000000000000 274.300000000000011
2  70 10 0 0.000000000000000 274.300000000000011
2  71 29 0 0.000000000000000 274.300000000000011
0

0101000
+70 0 -65 0 *
Wi

0101100
+42 0 -60 0 -69 0 +63 0 *
Fa
0  0.000000100000000 22 0

0111000
+41 0 *
Ve
0.001000000000000
-11.500000000018710 146.800000000000011 -15.000000000007583
0 0

0101101
*
Ed
 0.001000000000000 1 1 0
1  27 0 0.000000000000000 274.300000000000011
2  72 23 0 0.000000000000000 274.300000000000011
0

0101000
+39 0 -39 2 *
Ed
 0.001000000000000 1 1 0
2  73 30 0 0.000000000000000 14.600000000001414
1  28 0 0.000000000000000 14.600000000001414
2  74 31 3 0.000000000000000 14.600000000001414
2  75 32 0 0.000000000000000 14.600000000001414
2  76 23 0 0.000000000000000 14.600000000001414
2  77 23 3 0.000000000000000 14.600000000001414
0

0101000
+39 0 -57 0 *
Wi

0101100
+38 0 -56 0 -37 0 +37 2 *
Fa
0  0.001000000000000 23 0

0111000
+36 0 *
Ve
0.001000000000000
-11.200000000018710 146.800000000000011 -0.400000000006170
0 0

0101101
*
Ed
 0.000000100000000 1 1 0
2  56 33 0 4.712388980384691 6.283185307179586
1  29 0 4.712388980384691 6.283185307179586
2  78 28 0 4.712388980384691 6.283185307179586
0

0101000
+34 0 -52 0 *
Ed
 0.000000100000002 1 1 0
1  30 0 0.000000000000000 1.000000000000000
2  79 28 0 0.000000000000000 1.000000000000000
4 C0 25 0 28 0
2  80 25 0 0.000000000000000 1.000000000000000
0

0101000
+57 0 -34 0 *
Wi

0101100
+55 0 +50 0 -33 0 -32 0 *
Fa
0  0.000000100000000 28 0

0111000
+31 0 *
Ve
0.001000000000000
-11.200000000018710 -127.500000000000000 -0.400000000006109
0 0

0101101
*
Ed
 0.000000100000001 1 1 0
1  31 0 0.000000000000000 1.000000000000000
2  81 27 0 0.000000000000000 1.000000000000000
4 C0 27 0 25 0
2  82 25 0 0.000000000000000 1.000000000000000
0

0101000
+57 2 -29 0 *
Ed
 0.000000100000000 1 1 0
2  57 33 0 4.712388980384691 6.283185307179586
1  32 0 4.712388980384691 6.283185307179586
2  83 27 0 4.712388980384691 6.283185307179586
0

0101000
+29 0 -47 0 *
Wi

0101100
-55 2 +28 0 +27 0 -46 0 *
Fa
0  0.000000100000000 27 0

0111000
+26 0 *
Ed
 0.001000000000000 1 1 0
2  84 29 0 0.000000000000000 274.300000000000011
1  33 0 0.000000000000000 274.300000000000011
2  85 18 0 0.000000000000000 274.300000000000011
2  86 33 0 0.000000000000000 274.300000000000011
0

0101000
+52 0 -47 0 *
Wi

0101100
+24 0 -42 0 -51 0 +45 0 *
Fa
0  0.001000000000000 29 0

0111000
+23 0 *
Ve
0.001000000000000
-11.200000000018710 146.800000000000011 -15.000000000007583
0 0

0101101
*
Ed
 0.000000100000000 1 1 0
1  34 0 0.000000000000000 1.000000000000000
4 C0 34 0 32 0
2  87 32 0 0.000000000000000 1.000000000000000
0

0101000
+39 0 -21 0 *
Ve
0.001000000000000
-11.200000000018710 -127.500000000000000 -15.000000000007523
0 0

0101101
*
Ed
 0.001000000000000 1 1 0
2  88 35 0 0.000000000000000 274.300000000000011
1  35 0 0.000000000000000 274.300000000000011
0

0101000
+21 0 -19 0 *
Ed
 0.000000100000000 1 1 0
1  36 0 0.000000000000000 1.000000000000000
4 C0 31 0 34 0
2  89 31 0 0.000000000000000 1.000000000000000
0

0101000
+39 2 -19 0 *
Wi

0101000
-38 0 +20 0 +18 0 -17 0 *
Fa
0  0.000000100000000 34 0

0111000
+16 0 *
Ed
 0.001000000000000 1 1 0
2  90 35 0 0.000000000000000 14.600000000001414
1  37 0 0.000000000000000 14.600000000001414
2  91 32 0 0.000000000000000 14.600000000001414
0

0101000
+21 0 -34 0 *
Wi

0101100
+37 0 +32 0 -14 0 -20 0 *
Fa
0  0.000000100000000 32 0

0111000
+13 0 *
Ed
 0.001000000000000 1 1 0
2  92 35 0 0.000000000000000 14.600000000001414
1  38 0 0.000000000000000 14.600000000001414
2  93 31 0 0.000000000000000 14.600000000001414
0

0101000
+19 0 -29 0 *
Wi

0101100
-37 2 +17 0 +11 0 -28 0 *
Fa
0  0.000000100000000 31 0

0111000
+10 0 *
Ed
 0.001000000000000 1 1 0
2  51 33 0 0.000000000000000 274.300000000000011
1  39 0 0.000000000000000 274.300000000000011
2  94 25 0 0.000000000000000 274.300000000000011
2  95 35 0 0.000000000000000 274.300000000000011
0

0101000
+34 0 -29 0 *
Wi

0101100
+8 0 -24 0 -33 0 +27 0 *
Fa
0  0.000000100000000 33 0

0111000
+7 0 *
Wi

0101100
+18 0 -8 0 -14 0 +11 0 *
Fa
0  0.001000000000000 35 0

0111000
+5 0 *
Sh

0101100
+98 0 +93 0 +86 0 +81 0 +76 0 +71 0 +66 0 +61 0 -58 0 +53 0 
+48 0 +43 0 -40 0 +35 0 +30 0 +25 0 -22 0 +15 0 +12 0 +9 0 
-6 0 -4 0 *
So

0100000
+3 0 *
Co

1100000
+2 0 *

+1 1 